<svg xmlns="http://www.w3.org/2000/svg" xml:space="preserve" width="373px" height="200px" version="1.1" style="shape-rendering:geometricPrecision; text-rendering:geometricPrecision; image-rendering:optimizeQuality; fill-rule:evenodd; clip-rule:evenodd" viewBox="0 0 373 200"  xmlns:xlink="http://www.w3.org/1999/xlink">
  <path fill="#F9D5D7" d="M11.22 0l351.04 0c6.17,0 11.22,5.05 11.22,11.22l0 177.46c0,6.17 -5.05,11.22 -11.22,11.22l-351.04 0c-6.17,0 -11.22,-5.05 -11.22,-11.22l0 -177.46c0,-6.17 5.05,-11.22 11.22,-11.22z"/>
  <path fill="#F9D5D7" d="M11.22 0l351.04 0c6.17,0 11.22,5.05 11.22,11.22l0 177.46c0,6.17 -5.05,11.22 -11.22,11.22l-351.04 0c-6.17,0 -11.22,-5.05 -11.22,-11.22l0 -177.46c0,-6.17 5.05,-11.22 11.22,-11.22zm86.42 53.18l178.2 0c5.93,0 10.78,4.85 10.78,10.78l0 71.98c0,5.93 -4.85,10.78 -10.78,10.78l-178.2 0c-5.93,0 -10.78,-4.85 -10.78,-10.78l0 -71.98c0,-5.93 4.85,-10.78 10.78,-10.78z"/>
  <path fill="#E4C0C1" fill-rule="nonzero" d="M36.23 114.58l-2.42 0 0 0 -0.01 -0.23 -0.02 -0.22 -0.03 -0.23 -0.03 -0.22 -0.05 -0.22 -0.06 -0.21 -0.07 -0.21 -0.09 -0.2 -0.08 -0.2 -0.1 -0.2 -0.11 -0.18 -0.12 -0.19 -0.12 -0.17 -0.14 -0.17 -0.14 -0.16 -0.15 -0.16 -0.16 -0.15 -0.16 -0.14 -0.17 -0.14 -0.18 -0.12 -0.17 -0.12 -0.19 -0.11 -0.2 -0.1 -0.2 -0.08 -0.2 -0.09 -0.21 -0.07 -0.21 -0.06 -0.22 -0.05 -0.22 -0.03 -0.23 -0.03 -0.22 -0.02 -0.23 -0.01 0 -2.42 0.35 0.01 0.35 0.02 0.35 0.05 0.34 0.06 0.33 0.08 0.33 0.09 0.32 0.11 0.32 0.12 0.3 0.14 0.3 0.15 0.29 0.17 0.29 0.18 0.26 0.19 0.27 0.21 0.25 0.22 0.24 0.23 0.22 0.23 0.22 0.25 0.21 0.27 0.19 0.27 0.18 0.28 0.17 0.29 0.15 0.3 0.14 0.3 0.12 0.31 0.11 0.33 0.09 0.33 0.08 0.33 0.06 0.34 0.05 0.35 0.02 0.35 0.01 0.35 0 0zm-6.91 6.92l0 -2.42 0 0 0.23 -0.01 0.22 -0.02 0.23 -0.03 0.22 -0.03 0.22 -0.05 0.21 -0.06 0.21 -0.08 0.2 -0.08 0.2 -0.08 0.2 -0.1 0.19 -0.11 0.18 -0.12 0.17 -0.12 0.17 -0.14 0.17 -0.14 0.15 -0.15 0.15 -0.16 0.14 -0.16 0.14 -0.17 0.12 -0.17 0.12 -0.18 0.11 -0.19 0.1 -0.2 0.08 -0.2 0.09 -0.2 0.07 -0.21 0.06 -0.21 0.05 -0.22 0.03 -0.22 0.03 -0.23 0.02 -0.22 0.01 -0.24 2.42 0 -0.01 0.36 -0.02 0.35 -0.05 0.35 -0.06 0.34 -0.08 0.33 -0.09 0.33 -0.11 0.32 -0.12 0.32 -0.14 0.3 -0.15 0.3 -0.17 0.29 -0.18 0.28 -0.19 0.27 -0.21 0.27 -0.22 0.25 -0.22 0.24 -0.24 0.22 -0.25 0.22 -0.27 0.21 -0.27 0.19 -0.28 0.18 -0.29 0.17 -0.29 0.15 -0.31 0.14 -0.32 0.12 -0.32 0.11 -0.33 0.09 -0.33 0.08 -0.34 0.06 -0.35 0.05 -0.35 0.02 -0.35 0.01 0 0zm-6.92 -6.92l2.42 0 0 0 0.01 0.24 0.02 0.22 0.03 0.23 0.03 0.22 0.05 0.22 0.06 0.21 0.07 0.21 0.09 0.2 0.09 0.2 0.09 0.2 0.11 0.19 0.12 0.17 0.13 0.18 0.13 0.17 0.14 0.16 0.15 0.16 0.15 0.15 0.17 0.14 0.17 0.14 0.17 0.12 0.19 0.12 0.18 0.11 0.2 0.1 0.2 0.08 0.2 0.08 0.21 0.08 0.21 0.06 0.22 0.05 0.22 0.03 0.23 0.03 0.22 0.02 0.24 0.01 0 2.42 -0.36 -0.01 -0.35 -0.02 -0.35 -0.05 -0.34 -0.06 -0.33 -0.08 -0.33 -0.09 -0.32 -0.11 -0.32 -0.12 -0.31 -0.14 -0.29 -0.15 -0.29 -0.17 -0.28 -0.18 -0.27 -0.19 -0.27 -0.21 -0.24 -0.21 -0.24 -0.23 -0.23 -0.24 -0.22 -0.25 -0.21 -0.27 -0.19 -0.26 -0.18 -0.29 -0.17 -0.29 -0.15 -0.3 -0.14 -0.3 -0.12 -0.32 -0.11 -0.32 -0.09 -0.33 -0.08 -0.33 -0.06 -0.34 -0.05 -0.35 -0.02 -0.35 -0.01 -0.36 0 0zm6.92 -6.91l0 2.42 0 0 -0.24 0.01 -0.22 0.02 -0.23 0.03 -0.22 0.03 -0.22 0.05 -0.21 0.06 -0.21 0.07 -0.2 0.09 -0.2 0.08 -0.2 0.1 -0.18 0.11 -0.18 0.12 -0.18 0.12 -0.17 0.14 -0.16 0.14 -0.16 0.15 -0.15 0.16 -0.14 0.16 -0.13 0.17 -0.13 0.18 -0.12 0.18 -0.11 0.18 -0.09 0.2 -0.09 0.2 -0.09 0.2 -0.07 0.21 -0.06 0.21 -0.05 0.22 -0.03 0.22 -0.03 0.23 -0.02 0.22 -0.01 0.23 -2.42 0 0.01 -0.35 0.02 -0.35 0.05 -0.35 0.06 -0.34 0.08 -0.33 0.09 -0.33 0.11 -0.33 0.12 -0.31 0.14 -0.3 0.15 -0.3 0.17 -0.29 0.18 -0.28 0.19 -0.27 0.21 -0.27 0.22 -0.25 0.22 -0.24 0.24 -0.22 0.25 -0.22 0.27 -0.21 0.27 -0.19 0.28 -0.18 0.29 -0.17 0.3 -0.15 0.3 -0.14 0.32 -0.12 0.32 -0.11 0.33 -0.09 0.33 -0.08 0.34 -0.06 0.35 -0.05 0.35 -0.02 0.36 -0.01 0 0z"/>
  <path fill="#EAC9CA" d="M20.73 73.95c2.3,0 4.16,1.86 4.16,4.15 0,2.3 -1.86,4.16 -4.16,4.16 -2.3,0 -4.16,-1.86 -4.16,-4.16 0,-2.29 1.86,-4.15 4.16,-4.15z"/>
  <path fill="#EAC9CA" d="M75.91 15.7c2.3,0 4.16,1.86 4.16,4.15 0,2.3 -1.86,4.16 -4.16,4.16 -2.29,0 -4.15,-1.86 -4.15,-4.16 0,-2.29 1.86,-4.15 4.15,-4.15z"/>
  <path fill="#EAC9CA" d="M90.8 177.79c2.3,0 4.16,1.86 4.16,4.16 0,2.29 -1.86,4.16 -4.16,4.16 -2.3,0 -4.16,-1.87 -4.16,-4.16 0,-2.3 1.86,-4.16 4.16,-4.16z"/>
  <path fill="#EAC9CA" d="M306.51 14c2.3,0 4.16,1.86 4.16,4.15 0,2.3 -1.86,4.16 -4.16,4.16 -2.29,0 -4.15,-1.86 -4.15,-4.16 0,-2.29 1.86,-4.15 4.15,-4.15z"/>
  <path fill="#EAC9CA" d="M309.13 109.38c2.3,0 4.16,1.86 4.16,4.16 0,2.29 -1.86,4.15 -4.16,4.15 -2.3,0 -4.16,-1.86 -4.16,-4.15 0,-2.3 1.86,-4.16 4.16,-4.16z"/>
  <path fill="#EAC9CA" d="M198.52 181.48c2.3,0 4.16,1.86 4.16,4.16 0,2.29 -1.86,4.15 -4.16,4.15 -2.3,0 -4.16,-1.86 -4.16,-4.15 0,-2.3 1.86,-4.16 4.16,-4.16z"/>
  <path fill="#EAC9CA" fill-rule="nonzero" d="M229.34 162.86l-2.43 0 0 0 0 -0.23 -0.02 -0.23 -0.03 -0.23 -0.04 -0.22 -0.05 -0.22 -0.06 -0.21 -0.07 -0.21 -0.08 -0.2 -0.09 -0.2 -0.1 -0.19 -0.11 -0.19 -0.12 -0.18 -0.12 -0.18 -0.13 -0.17 -0.15 -0.16 -0.15 -0.16 -0.15 -0.15 -0.17 -0.14 -0.16 -0.13 -0.18 -0.13 -0.18 -0.12 -0.19 -0.1 -0.19 -0.1 -0.2 -0.09 -0.21 -0.08 -0.2 -0.07 -0.22 -0.06 -0.21 -0.05 -0.23 -0.04 -0.22 -0.03 -0.23 -0.02 -0.23 0 0 -2.43 0.35 0.01 0.36 0.03 0.34 0.04 0.34 0.06 0.34 0.08 0.32 0.09 0.33 0.11 0.31 0.12 0.31 0.14 0.3 0.16 0.29 0.16 0.28 0.18 0.27 0.2 0.26 0.2 0.25 0.22 0.24 0.23 0.23 0.24 0.21 0.25 0.21 0.26 0.19 0.27 0.18 0.28 0.17 0.29 0.15 0.3 0.14 0.3 0.13 0.32 0.1 0.32 0.1 0.33 0.08 0.34 0.06 0.34 0.04 0.34 0.03 0.35 0.01 0.36 0 0zm-6.92 6.92l0 -2.43 0 0 0.23 -0.01 0.23 -0.01 0.22 -0.03 0.23 -0.04 0.21 -0.05 0.22 -0.06 0.2 -0.07 0.21 -0.08 0.19 -0.09 0.2 -0.1 0.19 -0.11 0.18 -0.12 0.18 -0.12 0.16 -0.13 0.17 -0.15 0.16 -0.15 0.14 -0.15 0.15 -0.16 0.13 -0.18 0.12 -0.17 0.12 -0.18 0.11 -0.19 0.1 -0.19 0.09 -0.2 0.08 -0.21 0.07 -0.21 0.06 -0.21 0.05 -0.21 0.04 -0.22 0.03 -0.23 0.02 -0.23 0 -0.23 2.43 0 -0.01 0.35 -0.03 0.36 -0.04 0.34 -0.06 0.34 -0.08 0.34 -0.1 0.32 -0.1 0.33 -0.13 0.31 -0.14 0.31 -0.15 0.3 -0.17 0.28 -0.18 0.29 -0.19 0.27 -0.2 0.26 -0.22 0.25 -0.23 0.24 -0.24 0.23 -0.25 0.21 -0.26 0.21 -0.27 0.19 -0.28 0.18 -0.29 0.17 -0.3 0.15 -0.31 0.14 -0.31 0.13 -0.33 0.1 -0.32 0.1 -0.34 0.08 -0.34 0.06 -0.34 0.04 -0.36 0.03 -0.35 0.01 0 0zm-6.92 -6.92l2.43 0 0 0 0 0.23 0.02 0.23 0.03 0.23 0.04 0.22 0.05 0.21 0.06 0.21 0.07 0.21 0.08 0.21 0.09 0.2 0.1 0.19 0.11 0.19 0.11 0.18 0.13 0.17 0.13 0.17 0.14 0.17 0.15 0.15 0.16 0.15 0.16 0.15 0.17 0.13 0.18 0.12 0.18 0.12 0.19 0.11 0.19 0.1 0.2 0.09 0.2 0.08 0.21 0.07 0.22 0.06 0.21 0.05 0.22 0.04 0.23 0.03 0.23 0.01 0.23 0.01 0 2.43 -0.36 -0.01 -0.35 -0.03 -0.34 -0.04 -0.34 -0.06 -0.34 -0.08 -0.33 -0.1 -0.32 -0.1 -0.31 -0.13 -0.31 -0.14 -0.3 -0.15 -0.29 -0.17 -0.28 -0.18 -0.27 -0.19 -0.26 -0.21 -0.25 -0.21 -0.24 -0.23 -0.23 -0.24 -0.22 -0.25 -0.2 -0.26 -0.2 -0.27 -0.18 -0.29 -0.16 -0.28 -0.16 -0.3 -0.13 -0.31 -0.13 -0.31 -0.11 -0.33 -0.09 -0.32 -0.08 -0.34 -0.06 -0.34 -0.04 -0.34 -0.03 -0.36 -0.01 -0.35 0 0zm6.92 -6.92l0 2.43 0 0 -0.23 0 -0.23 0.02 -0.23 0.03 -0.22 0.04 -0.21 0.05 -0.22 0.06 -0.21 0.07 -0.2 0.08 -0.2 0.09 -0.19 0.1 -0.19 0.11 -0.18 0.11 -0.18 0.13 -0.17 0.13 -0.16 0.14 -0.16 0.15 -0.15 0.16 -0.14 0.16 -0.13 0.17 -0.13 0.18 -0.11 0.18 -0.11 0.19 -0.1 0.19 -0.09 0.2 -0.08 0.2 -0.07 0.21 -0.06 0.21 -0.05 0.22 -0.04 0.22 -0.03 0.23 -0.02 0.23 0 0.23 -2.43 0 0.01 -0.36 0.03 -0.35 0.04 -0.34 0.06 -0.34 0.08 -0.34 0.09 -0.33 0.11 -0.32 0.13 -0.32 0.13 -0.3 0.16 -0.3 0.16 -0.29 0.18 -0.28 0.2 -0.27 0.2 -0.26 0.22 -0.25 0.23 -0.24 0.24 -0.23 0.25 -0.22 0.26 -0.2 0.27 -0.2 0.28 -0.18 0.29 -0.16 0.3 -0.16 0.31 -0.14 0.31 -0.12 0.32 -0.11 0.33 -0.09 0.34 -0.08 0.34 -0.06 0.34 -0.04 0.35 -0.03 0.36 -0.01 0 0z"/>
  <path fill="#EAC9CA" fill-rule="nonzero" d="M284.63 46.32c1.91,0 3.64,0.77 4.89,2.02 1.26,1.26 2.03,2.99 2.03,4.9 0,1.91 -0.77,3.64 -2.03,4.89 -0.97,0.97 -2.23,1.66 -3.64,1.91 -0.33,-0.82 -0.75,-1.6 -1.26,-2.31l0.01 0c1.24,0 2.37,-0.5 3.18,-1.32 0.81,-0.81 1.32,-1.93 1.32,-3.17 0,-1.24 -0.51,-2.37 -1.32,-3.18 -0.81,-0.81 -1.94,-1.32 -3.18,-1.32 -1.24,0 -2.36,0.51 -3.17,1.32 -0.82,0.81 -1.32,1.94 -1.32,3.18 0,0.3 0.03,0.6 0.09,0.88 -0.79,-0.35 -1.63,-0.62 -2.51,-0.77l0 -0.11c0,-1.91 0.77,-3.64 2.02,-4.9 1.25,-1.25 2.98,-2.02 4.89,-2.02z"/>
  <path fill="#EAC9CA" fill-rule="nonzero" d="M353.3 100.13l-2.42 0 0 0 -0.01 -0.24 -0.01 -0.22 -0.03 -0.23 -0.04 -0.22 -0.05 -0.22 -0.06 -0.21 -0.07 -0.21 -0.09 -0.2 -0.08 -0.2 -0.1 -0.19 -0.11 -0.19 -0.12 -0.18 -0.12 -0.18 -0.14 -0.17 -0.14 -0.16 -0.15 -0.16 -0.15 -0.15 -0.17 -0.14 -0.17 -0.13 -0.17 -0.13 -0.19 -0.12 -0.18 -0.1 -0.2 -0.1 -0.2 -0.09 -0.2 -0.08 -0.21 -0.07 -0.21 -0.06 -0.22 -0.05 -0.22 -0.04 -0.22 -0.03 -0.23 -0.02 -0.23 0 0 -2.43 0.35 0.01 0.35 0.03 0.35 0.04 0.34 0.06 0.33 0.08 0.33 0.09 0.33 0.11 0.31 0.12 0.3 0.14 0.3 0.16 0.29 0.16 0.28 0.18 0.28 0.2 0.26 0.2 0.25 0.22 0.24 0.23 0.23 0.24 0.21 0.25 0.21 0.26 0.19 0.27 0.18 0.28 0.17 0.29 0.15 0.3 0.14 0.3 0.12 0.32 0.11 0.32 0.1 0.33 0.07 0.34 0.06 0.34 0.05 0.34 0.02 0.35 0.01 0.36 0 0zm-6.91 6.91l0 -2.42 0 0 0.23 -0.01 0.23 -0.01 0.22 -0.03 0.22 -0.04 0.22 -0.05 0.21 -0.06 0.21 -0.07 0.2 -0.08 0.2 -0.09 0.2 -0.1 0.18 -0.11 0.19 -0.12 0.17 -0.12 0.17 -0.13 0.17 -0.15 0.15 -0.15 0.15 -0.15 0.14 -0.16 0.14 -0.18 0.12 -0.17 0.12 -0.18 0.11 -0.19 0.1 -0.2 0.08 -0.19 0.09 -0.21 0.07 -0.21 0.06 -0.21 0.05 -0.21 0.04 -0.23 0.03 -0.22 0.01 -0.23 0.01 -0.23 2.42 0 -0.01 0.35 -0.02 0.35 -0.05 0.35 -0.06 0.34 -0.07 0.33 -0.1 0.33 -0.11 0.33 -0.12 0.31 -0.14 0.31 -0.15 0.29 -0.17 0.29 -0.18 0.29 -0.19 0.27 -0.21 0.26 -0.21 0.25 -0.23 0.24 -0.24 0.23 -0.25 0.21 -0.26 0.21 -0.28 0.19 -0.28 0.18 -0.29 0.17 -0.29 0.15 -0.31 0.14 -0.32 0.12 -0.32 0.11 -0.33 0.1 -0.33 0.07 -0.34 0.06 -0.35 0.05 -0.35 0.03 -0.35 0 0 0zm-6.92 -6.91l2.42 0 0 0 0.01 0.23 0.02 0.23 0.03 0.22 0.04 0.23 0.04 0.21 0.07 0.21 0.07 0.21 0.08 0.21 0.09 0.19 0.1 0.2 0.1 0.19 0.12 0.18 0.12 0.17 0.14 0.17 0.14 0.17 0.15 0.15 0.16 0.15 0.16 0.14 0.17 0.14 0.18 0.12 0.18 0.12 0.19 0.11 0.19 0.1 0.2 0.09 0.2 0.08 0.21 0.07 0.21 0.06 0.22 0.05 0.22 0.04 0.23 0.03 0.22 0.01 0.24 0.01 0 2.42 -0.36 0 -0.35 -0.03 -0.35 -0.05 -0.34 -0.06 -0.33 -0.07 -0.33 -0.1 -0.32 -0.11 -0.32 -0.12 -0.31 -0.14 -0.29 -0.15 -0.29 -0.17 -0.28 -0.18 -0.27 -0.19 -0.27 -0.21 -0.25 -0.21 -0.23 -0.23 -0.23 -0.24 -0.22 -0.25 -0.21 -0.26 -0.19 -0.27 -0.18 -0.29 -0.17 -0.29 -0.15 -0.29 -0.14 -0.31 -0.12 -0.31 -0.11 -0.33 -0.09 -0.33 -0.08 -0.33 -0.06 -0.34 -0.04 -0.35 -0.03 -0.35 -0.01 -0.35 0 0zm6.92 -6.92l0 2.43 0 0 -0.24 0 -0.22 0.02 -0.23 0.03 -0.22 0.04 -0.22 0.05 -0.21 0.06 -0.21 0.07 -0.2 0.08 -0.2 0.09 -0.19 0.1 -0.19 0.1 -0.18 0.12 -0.18 0.13 -0.17 0.13 -0.16 0.14 -0.16 0.15 -0.15 0.16 -0.14 0.16 -0.14 0.17 -0.12 0.18 -0.12 0.18 -0.1 0.19 -0.1 0.19 -0.09 0.2 -0.08 0.2 -0.07 0.21 -0.07 0.21 -0.04 0.22 -0.04 0.22 -0.03 0.23 -0.02 0.22 -0.01 0.24 -2.42 0 0.01 -0.36 0.03 -0.35 0.04 -0.34 0.06 -0.34 0.08 -0.34 0.09 -0.33 0.11 -0.32 0.12 -0.32 0.14 -0.3 0.15 -0.3 0.17 -0.29 0.18 -0.28 0.19 -0.27 0.21 -0.26 0.22 -0.25 0.22 -0.24 0.24 -0.23 0.26 -0.22 0.26 -0.2 0.27 -0.2 0.28 -0.18 0.29 -0.16 0.3 -0.16 0.3 -0.14 0.32 -0.12 0.32 -0.11 0.33 -0.09 0.33 -0.08 0.34 -0.06 0.35 -0.04 0.35 -0.03 0.36 -0.01 0 0z"/>
  <path fill="#EAC9CA" d="M184.93 37.38l-3.23 4c16.52,3.47 20.6,-7.31 32.49,-0.51 -0.75,0.51 -1.31,1.2 -1.55,2.04 -0.71,2.44 1.44,5.21 4.8,6.19 3.37,0.98 6.67,-0.2 7.39,-2.64 0.21,-0.73 0.17,-1.48 -0.09,-2.21 7,0.98 9.63,4.66 12.82,8.93l19.4 0 -1.61 -34.27c-7.62,4.44 -6.77,-13.52 -27.34,-3.68l-0.6 1.85c-0.08,-0.1 -0.16,-0.21 -0.25,-0.31 0.18,-0.54 0.36,-1.08 0.54,-1.63 -7.88,-14.76 -19.45,-6.08 -22.18,-11.21l-2.14 0 -21.47 26.58c0.69,0.86 1.42,1.53 2.19,2.06l-2.76 3.4c1.25,0.62 2.44,1.08 3.59,1.41z"/>
  <path fill="#EAC9CA" d="M52.62 100.34c1.74,1.88 2.81,1.66 2.99,-1.26 -5.7,-16.01 -12,-32.3 -19.6,-49.22l-9.85 -15.43c4.89,-9.75 -8.31,-24.23 -18.44,-24.53 11.43,7.25 -2.06,20.42 14.15,25.66l5.2 17.67 0 0 0 0 0.47 1.6c0.1,0.05 0.21,0.09 0.32,0.12 7.08,15.29 15.55,30.39 24.76,45.39z"/>
  <path fill="#EAC9CA" d="M49.34 39.88c0.33,0.44 0,0 0.12,0.58l12.03 59.59 3.22 -0.65 0 0 3.28 -0.66 3.28 -0.67 -12.08 -59.8 -0.03 -0.15 -0.05 -0.22 -6.9 -13.07 -0.62 -3.06c-0.1,-0.5 -0.59,-0.83 -1.09,-0.73l0 0c-0.5,0.1 -0.82,0.6 -0.72,1.09l0.63 3.11 -1.07 14.64z"/>
  <path fill="#EAC9CA" d="M311.29 156.19c2.83,5.97 3.08,13.66 2.76,17.47 14.68,4.53 28.36,2.88 40.67,-7.11 -2.64,-4.01 -6.04,-12.98 -6.82,-19.59 4.74,-4.04 9.73,-7.77 14.53,-11.74 -10.52,-0.21 -20.6,-0.01 -34.78,-3.88 -7.98,7.94 -20.83,14.68 -37.11,20.55 6.12,0.17 13.3,2.03 20.75,4.3zm50.56 -18.66c0.83,0 1.5,0.77 1.5,1.72 0,0.95 -0.67,1.72 -1.5,1.72 2.4,4.66 3.41,10.92 6.16,14.45 -3.11,0.22 -3,3.55 -9.33,0.67 2.65,-4.09 2.45,-10.25 3.1,-15.12 -0.8,-0.04 -1.43,-0.79 -1.43,-1.72 0,-0.95 0.67,-1.72 1.5,-1.72zm-66.92 16.25c0.83,0 1.5,0.77 1.5,1.72 0,0.95 -0.67,1.72 -1.5,1.72 2.4,4.66 3.41,10.92 6.17,14.45 -3.11,0.22 -3,3.55 -9.34,0.67 2.65,-4.09 2.45,-10.25 3.1,-15.12 -0.8,-0.04 -1.43,-0.79 -1.43,-1.72 0,-0.95 0.67,-1.72 1.5,-1.72z"/>
  <path fill="#EAC9CA" d="M317.9 66.57c3.85,-13.84 7.7,-27.67 11.54,-41.5 13.55,-6.88 17.57,9.32 29.85,4.13l-1.26 4.55c1.06,-0.14 2.18,-0.44 3.38,-0.95 -3.7,13.3 -8.68,26.71 -12.38,40.01 -21.63,5.82 -15.64,-13.65 -31.66,-3.7 0.26,-0.91 0.52,-1.8 0.79,-2.7 -0.08,0.05 -0.17,0.1 -0.26,0.16zm10.38 -42.35c-0.43,-1.55 -3.28,-2.25 -4.77,-1.16l-12.27 43.08c-0.54,1.89 4.88,3.56 5.39,0.96 0.11,-0.85 11.65,-42.88 11.65,-42.88z"/>
  <path fill="#EAC9CA" fill-rule="nonzero" d="M152.73 37.63l-2.42 0 0 0 -0.01 -0.23 -0.02 -0.22 -0.03 -0.23 -0.04 -0.22 -0.05 -0.22 -0.06 -0.21 -0.07 -0.21 -0.08 -0.2 -0.09 -0.2 -0.1 -0.2 -0.1 -0.18 -0.12 -0.19 -0.13 -0.17 -0.13 -0.17 -0.14 -0.16 -0.15 -0.16 -0.16 -0.15 -0.16 -0.14 -0.17 -0.14 -0.18 -0.12 -0.18 -0.12 -0.19 -0.11 -0.19 -0.1 -0.2 -0.08 -0.2 -0.09 -0.21 -0.07 -0.21 -0.06 -0.22 -0.05 -0.22 -0.04 -0.23 -0.02 -0.22 -0.02 -0.24 -0.01 0 -2.42 0.36 0.01 0.35 0.02 0.34 0.05 0.35 0.06 0.33 0.08 0.33 0.09 0.32 0.11 0.32 0.12 0.3 0.14 0.3 0.15 0.29 0.17 0.28 0.18 0.27 0.19 0.26 0.21 0.26 0.22 0.24 0.22 0.22 0.24 0.22 0.25 0.21 0.26 0.19 0.28 0.18 0.28 0.16 0.29 0.16 0.3 0.14 0.3 0.12 0.31 0.11 0.33 0.09 0.33 0.08 0.33 0.06 0.34 0.04 0.35 0.03 0.35 0.01 0.35 0 0zm-6.92 6.92l0 -2.42 0 0 0.24 -0.01 0.22 -0.02 0.23 -0.03 0.22 -0.03 0.22 -0.05 0.21 -0.06 0.21 -0.08 0.2 -0.08 0.2 -0.09 0.19 -0.09 0.19 -0.11 0.18 -0.12 0.18 -0.12 0.17 -0.14 0.16 -0.14 0.16 -0.15 0.15 -0.16 0.14 -0.16 0.13 -0.17 0.13 -0.17 0.12 -0.18 0.1 -0.2 0.1 -0.19 0.09 -0.2 0.08 -0.2 0.07 -0.21 0.06 -0.21 0.05 -0.22 0.04 -0.22 0.03 -0.23 0.02 -0.22 0.01 -0.24 2.42 0 -0.01 0.36 -0.03 0.35 -0.04 0.35 -0.06 0.34 -0.08 0.33 -0.09 0.33 -0.11 0.32 -0.12 0.32 -0.14 0.3 -0.16 0.3 -0.16 0.29 -0.18 0.28 -0.19 0.27 -0.21 0.27 -0.22 0.25 -0.23 0.24 -0.23 0.22 -0.25 0.22 -0.27 0.21 -0.27 0.19 -0.28 0.18 -0.29 0.17 -0.3 0.15 -0.3 0.14 -0.32 0.12 -0.32 0.11 -0.33 0.09 -0.33 0.08 -0.35 0.06 -0.34 0.05 -0.35 0.02 -0.36 0.01 0 0zm-6.91 -6.92l2.42 0 0 0 0.01 0.24 0.01 0.22 0.03 0.23 0.04 0.22 0.05 0.22 0.06 0.21 0.07 0.21 0.08 0.2 0.09 0.2 0.1 0.19 0.11 0.2 0.12 0.17 0.12 0.18 0.14 0.17 0.14 0.16 0.15 0.16 0.15 0.15 0.17 0.14 0.17 0.14 0.17 0.12 0.19 0.12 0.18 0.11 0.2 0.09 0.2 0.09 0.2 0.08 0.21 0.08 0.21 0.06 0.22 0.05 0.22 0.03 0.22 0.03 0.23 0.02 0.23 0.01 0 2.42 -0.35 -0.01 -0.35 -0.02 -0.35 -0.05 -0.34 -0.06 -0.33 -0.08 -0.33 -0.09 -0.33 -0.11 -0.31 -0.12 -0.31 -0.14 -0.29 -0.15 -0.29 -0.17 -0.28 -0.18 -0.28 -0.19 -0.26 -0.21 -0.25 -0.22 -0.24 -0.22 -0.22 -0.24 -0.22 -0.25 -0.21 -0.27 -0.19 -0.26 -0.18 -0.29 -0.17 -0.29 -0.15 -0.3 -0.14 -0.3 -0.12 -0.32 -0.11 -0.32 -0.1 -0.33 -0.07 -0.33 -0.06 -0.34 -0.05 -0.35 -0.02 -0.35 -0.01 -0.36 0 0zm6.91 -6.91l0 2.42 0 0 -0.23 0.01 -0.23 0.02 -0.22 0.02 -0.22 0.04 -0.22 0.05 -0.21 0.06 -0.21 0.07 -0.2 0.09 -0.2 0.08 -0.2 0.1 -0.18 0.11 -0.19 0.12 -0.17 0.12 -0.17 0.14 -0.17 0.14 -0.15 0.15 -0.15 0.16 -0.14 0.16 -0.14 0.17 -0.12 0.17 -0.12 0.19 -0.11 0.18 -0.1 0.2 -0.09 0.2 -0.08 0.2 -0.07 0.21 -0.06 0.21 -0.05 0.22 -0.04 0.22 -0.03 0.23 -0.01 0.22 -0.01 0.23 -2.42 0 0.01 -0.35 0.02 -0.35 0.05 -0.35 0.06 -0.34 0.07 -0.33 0.1 -0.33 0.11 -0.33 0.12 -0.31 0.14 -0.3 0.15 -0.3 0.17 -0.29 0.18 -0.28 0.19 -0.28 0.21 -0.26 0.21 -0.25 0.23 -0.24 0.24 -0.22 0.25 -0.22 0.26 -0.21 0.28 -0.19 0.28 -0.18 0.29 -0.17 0.29 -0.15 0.31 -0.14 0.31 -0.12 0.33 -0.11 0.33 -0.09 0.33 -0.08 0.34 -0.06 0.35 -0.05 0.35 -0.02 0.35 -0.01 0 0z"/>
  <path fill="#EAC9CA" d="M111.95 175.18c2.14,-1.18 4.59,-0.99 5.95,-0.01l0 -28.45 1.84 0 15.9 6.37c0,-0.2 0.16,-0.36 0.35,-0.36l0.08 0c0.2,0 0.36,0.16 0.36,0.36l0 7.52 0 21.86c0,0.05 0,0.19 0.01,0.37 0.9,1.66 -0.52,4.19 -3.19,5.65 -2.67,1.47 -5.57,1.32 -6.49,-0.34 -0.91,-1.66 0.26,-4.71 2.93,-6.18 2.13,-1.18 4.58,-0.99 5.95,-0.01l0 -16.73 -16.94 -7.04 0 17.49c0,0.05 0,0.19 0.01,0.37 0.9,1.66 -0.53,4.19 -3.19,5.65 -2.67,1.47 -5.57,1.32 -6.49,-0.34 -0.91,-1.66 0.26,-4.71 2.92,-6.18zm23.69 -9.95l0 -7.04 -16.94 -6.37 0 2 0 2.57 16.85 6.76 0.09 2.08z"/>
  <path id="1" fill="#E4C0C1" fill-rule="nonzero" d="M117.73 175.17l0.35 0 -0.28 0.14 -0.12 -0.09 -0.13 -0.08 -0.14 -0.07 -0.14 -0.08 -0.15 -0.06 -0.15 -0.07 -0.16 -0.05 -0.16 -0.05 -0.17 -0.05 -0.17 -0.04 -0.17 -0.04 -0.18 -0.03 -0.18 -0.02 -0.19 -0.02 -0.18 -0.02 -0.19 0 -0.2 0 -0.19 0 -0.2 0.01 -0.2 0.02 -0.19 0.02 -0.2 0.04 -0.21 0.03 -0.2 0.05 -0.2 0.05 -0.2 0.06 -0.2 0.07 -0.2 0.07 -0.2 0.08 -0.2 0.09 -0.2 0.09 -0.19 0.11 -0.17 -0.3 0.21 -0.11 0.21 -0.1 0.21 -0.1 0.21 -0.08 0.21 -0.08 0.21 -0.07 0.21 -0.06 0.21 -0.06 0.22 -0.04 0.21 -0.04 0.21 -0.04 0.21 -0.02 0.21 -0.02 0.2 -0.01 0.21 -0.01 0.2 0 0.2 0.01 0.2 0.01 0.2 0.03 0.19 0.02 0.19 0.03 0.19 0.04 0.18 0.05 0.18 0.05 0.17 0.05 0.17 0.06 0.17 0.07 0.16 0.07 0.15 0.08 0.15 0.08 0.15 0.09 0.14 0.1 -0.28 0.14zm0.35 0l0 0.33 -0.28 -0.19 0.28 -0.14zm0 -28.45l0 28.45 -0.35 0 0 -28.45 0.17 -0.17 0.18 0.17zm-0.35 0l0 -0.17 0.17 0 -0.17 0.17zm2.01 0.17l-1.84 0 0 -0.34 1.84 0 0.07 0.01 -0.07 0.33zm0 -0.34l0.04 0 0.03 0.01 -0.07 -0.01zm15.83 6.7l-15.89 -6.37 0.13 -0.32 15.89 6.37 0.11 0.16 -0.24 0.16zm0.24 -0.16l0 0.26 -0.24 -0.1 0.24 -0.16zm0.18 -0.53l0 0.34 0 0 0 0 -0.02 0.01 -0.01 0 0 0 -0.01 0 -0.02 0.01 0 0 -0.01 0 0 0 -0.01 0.01 -0.01 0 -0.01 0.01 -0.01 0 0 0.01 -0.01 0 -0.01 0.01 -0.01 0.01 0 0 0 0.01 -0.01 0.01 0 0 -0.01 0.01 -0.01 0.01 0 0.01 0 0.01 0 0 -0.01 0.02 0 0.01 0 0 0 0.01 0 0.01 0 0.01 -0.35 0 0 -0.03 0.01 -0.02 0 -0.03 0.01 -0.03 0 -0.02 0.01 -0.02 0.01 -0.03 0.01 -0.03 0.01 -0.02 0.01 -0.02 0.01 -0.02 0.01 -0.02 0.02 -0.02 0.01 -0.03 0.03 -0.02 0.01 -0.01 0.01 -0.02 0.03 -0.02 0.02 -0.02 0.02 -0.01 0.02 -0.01 0.02 -0.01 0.02 -0.01 0.02 -0.02 0.03 -0.01 0.03 -0.01 0.02 0 0.02 -0.01 0.04 0 0.02 -0.01 0.02 0 0.03 0 0 0zm0.08 0.34l-0.08 0 0 -0.34 0.08 0 0 0 0 0.34zm0.53 0.19l-0.34 0 0 0 0 -0.01 0 -0.01 0 -0.01 0 0 -0.01 -0.01 0 -0.02 0 0 0 -0.01 -0.01 -0.01 0 -0.01 -0.01 -0.01 0 0 -0.01 -0.01 0 -0.01 -0.01 0 0 -0.01 -0.01 -0.01 -0.01 0 0 -0.01 -0.01 0 -0.01 -0.01 -0.01 0 -0.01 -0.01 -0.01 0 0 0 -0.01 0 -0.01 -0.01 -0.01 0 0 0 -0.02 0 -0.01 -0.01 -0.01 0 0 -0.34 0.03 0 0.03 0 0.02 0.01 0.03 0 0.03 0.01 0.02 0 0.02 0.01 0.03 0.01 0.03 0.02 0.02 0.01 0.02 0.01 0.02 0.01 0.02 0.01 0.02 0.02 0.02 0.02 0.02 0.02 0.01 0.01 0.02 0.02 0.02 0.03 0.01 0.02 0.02 0.02 0.01 0.02 0.01 0.02 0.01 0.02 0.01 0.03 0.01 0.03 0.01 0.02 0 0.02 0.01 0.03 0 0.03 0 0.02 0 0.03 0 0zm-0.34 7.52l0 -7.52 0.34 0 0 7.52 0 0 -0.34 0zm0 21.86l0 -21.86 0.34 0 0 21.86 0 0 -0.34 0zm0.33 0.29l-0.3 0.16 -0.02 -0.08 0 -0.01 0 -0.02 0 -0.02 0 -0.01 0 -0.02 0 -0.02 0 -0.01 -0.01 -0.01 0 -0.02 0 -0.02 0 0 0 -0.02 0 -0.02 0 -0.01 0 -0.01 0 -0.01 0 -0.02 0 -0.01 0 -0.01 0 -0.01 0 -0.01 0 0 0 -0.01 0 -0.02 0 -0.01 0 -0.01 0 0 0 -0.01 0 -0.01 0 0 0 -0.01 0 0 0.34 0 0 0 0 0.01 0 0 0 0.01 0 0.01 0 0 0 0.01 0 0.01 0 0 0 0.01 0 0.02 0 0.01 0 0.01 0 0.01 0 0.01 0 0.01 0.01 0.01 0 0.02 0 0.01 0 0.01 0 0.01 0 0.02 0 0.02 0 0.01 0 0.01 0 0.02 0 0.01 0 0.02 0 0.02 0 0.01 0 0.02 0 0.01 -0.02 -0.07zm-0.3 0.16l-0.02 -0.04 0 -0.04 0.02 0.08zm-2.95 5.72l-0.17 -0.3 0 0 0.24 -0.13 0.24 -0.15 0.22 -0.15 0.22 -0.15 0.21 -0.16 0.2 -0.16 0.2 -0.17 0.18 -0.17 0.18 -0.17 0.17 -0.18 0.15 -0.18 0.15 -0.18 0.14 -0.18 0.13 -0.18 0.12 -0.19 0.11 -0.19 0.1 -0.18 0.09 -0.19 0.08 -0.18 0.06 -0.18 0.06 -0.19 0.05 -0.18 0.03 -0.17 0.02 -0.18 0.02 -0.17 0 -0.17 -0.02 -0.17 -0.02 -0.16 -0.04 -0.16 -0.04 -0.15 -0.06 -0.15 -0.07 -0.15 0.3 -0.16 0.08 0.17 0.07 0.17 0.06 0.18 0.04 0.19 0.03 0.19 0.01 0.19 0 0.19 -0.01 0.19 -0.03 0.2 -0.04 0.2 -0.05 0.2 -0.06 0.2 -0.07 0.2 -0.09 0.2 -0.09 0.2 -0.11 0.19 -0.12 0.2 -0.12 0.2 -0.14 0.19 -0.15 0.2 -0.15 0.19 -0.17 0.18 -0.18 0.19 -0.18 0.18 -0.19 0.18 -0.21 0.17 -0.21 0.17 -0.22 0.17 -0.23 0.16 -0.23 0.15 -0.24 0.15 -0.25 0.14 0 0zm-6.73 -0.41l0.3 -0.17 0 0 0.09 0.14 0.09 0.14 0.11 0.12 0.11 0.11 0.13 0.11 0.13 0.1 0.14 0.09 0.16 0.09 0.16 0.07 0.17 0.07 0.17 0.06 0.19 0.05 0.19 0.04 0.2 0.03 0.2 0.03 0.21 0.01 0.22 0.01 0.22 0 0.22 -0.01 0.23 -0.02 0.23 -0.03 0.24 -0.04 0.24 -0.05 0.24 -0.05 0.24 -0.07 0.25 -0.07 0.25 -0.09 0.24 -0.09 0.25 -0.1 0.25 -0.12 0.25 -0.12 0.24 -0.13 0.17 0.3 -0.26 0.14 -0.26 0.13 -0.25 0.11 -0.26 0.11 -0.26 0.1 -0.26 0.08 -0.25 0.08 -0.26 0.07 -0.25 0.06 -0.25 0.05 -0.25 0.04 -0.24 0.03 -0.25 0.02 -0.23 0.01 -0.24 0 -0.23 0 -0.22 -0.02 -0.22 -0.03 -0.22 -0.03 -0.21 -0.05 -0.2 -0.05 -0.19 -0.07 -0.19 -0.07 -0.18 -0.09 -0.17 -0.09 -0.16 -0.11 -0.16 -0.11 -0.14 -0.12 -0.13 -0.14 -0.13 -0.14 -0.11 -0.16 -0.1 -0.16 0 0zm2.99 -6.41l0.17 0.3 0 0 -0.24 0.14 -0.23 0.14 -0.22 0.16 -0.22 0.16 -0.2 0.17 -0.2 0.18 -0.18 0.18 -0.18 0.19 -0.17 0.19 -0.15 0.19 -0.15 0.2 -0.14 0.21 -0.13 0.2 -0.12 0.21 -0.1 0.21 -0.1 0.21 -0.09 0.2 -0.08 0.22 -0.06 0.2 -0.06 0.21 -0.05 0.21 -0.03 0.2 -0.03 0.2 -0.01 0.19 0 0.2 0.01 0.18 0.01 0.18 0.04 0.18 0.04 0.17 0.05 0.16 0.06 0.16 0.07 0.14 -0.3 0.17 -0.08 -0.17 -0.08 -0.18 -0.06 -0.19 -0.04 -0.19 -0.04 -0.2 -0.02 -0.2 -0.01 -0.21 0.01 -0.21 0.01 -0.21 0.03 -0.22 0.04 -0.22 0.05 -0.22 0.06 -0.22 0.07 -0.23 0.08 -0.22 0.09 -0.22 0.11 -0.23 0.11 -0.22 0.13 -0.22 0.13 -0.21 0.15 -0.22 0.15 -0.21 0.17 -0.2 0.18 -0.21 0.18 -0.19 0.2 -0.19 0.2 -0.19 0.22 -0.18 0.22 -0.17 0.24 -0.16 0.24 -0.16 0.25 -0.14 0 0zm5.86 0.14l0.35 0 -0.27 0.14 -0.13 -0.09 -0.13 -0.08 -0.14 -0.07 -0.14 -0.08 -0.15 -0.06 -0.15 -0.06 -0.15 -0.06 -0.17 -0.05 -0.17 -0.05 -0.17 -0.04 -0.17 -0.04 -0.18 -0.03 -0.18 -0.02 -0.18 -0.02 -0.19 -0.02 -0.19 0 -0.19 0 -0.2 0 -0.2 0.01 -0.19 0.02 -0.2 0.03 -0.2 0.03 -0.2 0.04 -0.21 0.04 -0.2 0.05 -0.2 0.06 -0.2 0.07 -0.2 0.07 -0.2 0.08 -0.2 0.09 -0.2 0.09 -0.19 0.11 -0.17 -0.3 0.21 -0.11 0.21 -0.1 0.21 -0.1 0.21 -0.08 0.21 -0.08 0.21 -0.07 0.21 -0.06 0.21 -0.05 0.22 -0.05 0.21 -0.04 0.21 -0.03 0.21 -0.03 0.21 -0.02 0.21 -0.01 0.2 -0.01 0.2 0 0.21 0.01 0.19 0.02 0.2 0.02 0.19 0.02 0.19 0.03 0.19 0.04 0.18 0.05 0.18 0.05 0.17 0.05 0.18 0.06 0.16 0.07 0.16 0.07 0.16 0.08 0.15 0.08 0.14 0.09 0.14 0.1 -0.28 0.14zm0.35 0l0 0.33 -0.27 -0.19 0.27 -0.14zm0 -16.73l0 16.73 -0.35 0 0 -16.73 0.24 -0.16 0.11 0.16zm-0.11 -0.16l0.11 0.05 0 0.11 -0.11 -0.16zm-16.93 -7.03l16.93 7.03 -0.13 0.32 -16.94 -7.04 -0.1 -0.16 0.24 -0.15zm-0.24 0.15l0 -0.25 0.24 0.1 -0.24 0.15zm0 17.49l0 -17.49 0.34 0 0 17.49 0 0 -0.34 0zm0.33 0.29l-0.3 0.16 -0.02 -0.08 0 -0.01 0 -0.02 0 -0.02 0 -0.01 -0.01 -0.02 0 -0.02 0 -0.01 0 -0.01 0 -0.02 0 -0.01 0 -0.01 0 -0.03 0 0 0 -0.01 0 -0.02 0 -0.02 0 -0.01 0 0 0 -0.01 0 -0.02 0 -0.01 0 -0.01 0 -0.01 0 0 0 -0.01 0 -0.02 0 0 0 -0.01 0 -0.01 0 0 0 -0.01 0 0 0.34 0 0 0 0 0.01 0 0 0 0.01 0 0.01 0 0 0 0 0 0.01 0 0.02 0 0.01 0 0.01 0 0.01 0 0 0 0.01 0 0.02 0 0.01 0 0.02 0 0 0 0.01 0 0.02 0 0.01 0.01 0.02 0 0.02 0 0 0 0.02 0 0.02 0 0.01 0 0.02 0 0.02 0 0.01 0 0.02 0 0.01 -0.02 -0.07zm-0.3 0.16l-0.02 -0.04 0 -0.04 0.02 0.08zm-2.95 5.72l-0.17 -0.3 0 0 0.24 -0.13 0.23 -0.15 0.23 -0.15 0.22 -0.15 0.21 -0.16 0.2 -0.16 0.2 -0.17 0.18 -0.17 0.18 -0.17 0.17 -0.18 0.15 -0.18 0.15 -0.18 0.14 -0.18 0.13 -0.18 0.12 -0.19 0.11 -0.19 0.1 -0.18 0.09 -0.19 0.08 -0.18 0.06 -0.18 0.06 -0.19 0.05 -0.18 0.03 -0.17 0.02 -0.18 0.01 -0.17 0 -0.17 -0.01 -0.17 -0.02 -0.16 -0.04 -0.16 -0.04 -0.15 -0.06 -0.15 -0.07 -0.15 0.3 -0.16 0.08 0.17 0.07 0.17 0.06 0.18 0.04 0.19 0.02 0.19 0.02 0.19 0 0.19 -0.01 0.19 -0.03 0.2 -0.04 0.2 -0.05 0.2 -0.06 0.2 -0.07 0.2 -0.09 0.2 -0.09 0.2 -0.11 0.19 -0.12 0.2 -0.12 0.2 -0.14 0.19 -0.15 0.19 -0.15 0.2 -0.17 0.18 -0.18 0.19 -0.18 0.18 -0.19 0.18 -0.21 0.17 -0.21 0.17 -0.22 0.17 -0.23 0.16 -0.23 0.15 -0.24 0.15 -0.25 0.14 0 0zm-6.73 -0.41l0.3 -0.17 0 0 0.09 0.14 0.09 0.14 0.11 0.12 0.11 0.11 0.13 0.11 0.13 0.1 0.14 0.09 0.15 0.09 0.17 0.07 0.16 0.07 0.18 0.06 0.19 0.05 0.19 0.04 0.19 0.03 0.21 0.03 0.21 0.01 0.21 0.01 0.22 0 0.23 -0.01 0.23 -0.02 0.23 -0.03 0.24 -0.04 0.24 -0.05 0.24 -0.05 0.24 -0.07 0.25 -0.07 0.24 -0.09 0.25 -0.09 0.25 -0.1 0.25 -0.12 0.24 -0.12 0.25 -0.13 0.17 0.3 -0.26 0.14 -0.26 0.13 -0.25 0.11 -0.26 0.11 -0.26 0.1 -0.26 0.08 -0.25 0.08 -0.26 0.07 -0.25 0.06 -0.25 0.05 -0.25 0.04 -0.25 0.03 -0.24 0.02 -0.24 0.01 -0.23 0 -0.23 0 -0.22 -0.02 -0.22 -0.03 -0.22 -0.03 -0.21 -0.05 -0.2 -0.05 -0.19 -0.07 -0.19 -0.07 -0.18 -0.09 -0.17 -0.09 -0.17 -0.11 -0.15 -0.11 -0.14 -0.13 -0.14 -0.13 -0.12 -0.14 -0.11 -0.16 -0.1 -0.16 0 0zm2.99 -6.41l0.17 0.3 0 0 -0.24 0.13 -0.23 0.15 -0.22 0.16 -0.22 0.16 -0.2 0.17 -0.2 0.18 -0.18 0.18 -0.18 0.18 -0.17 0.2 -0.15 0.19 -0.15 0.2 -0.14 0.2 -0.13 0.21 -0.12 0.21 -0.11 0.21 -0.09 0.2 -0.09 0.21 -0.08 0.21 -0.06 0.21 -0.06 0.21 -0.05 0.21 -0.03 0.2 -0.03 0.2 -0.01 0.19 0 0.2 0 0.18 0.02 0.18 0.03 0.18 0.04 0.17 0.06 0.16 0.06 0.16 0.07 0.14 -0.3 0.17 -0.08 -0.17 -0.08 -0.18 -0.06 -0.19 -0.04 -0.19 -0.04 -0.2 -0.02 -0.2 -0.01 -0.21 0.01 -0.21 0.01 -0.21 0.03 -0.22 0.04 -0.22 0.05 -0.22 0.05 -0.22 0.08 -0.23 0.08 -0.22 0.09 -0.23 0.11 -0.22 0.11 -0.22 0.13 -0.22 0.13 -0.22 0.15 -0.21 0.15 -0.21 0.17 -0.2 0.18 -0.21 0.18 -0.19 0.2 -0.2 0.2 -0.18 0.22 -0.18 0.22 -0.17 0.24 -0.16 0.24 -0.16 0.25 -0.14 0 0zm23.94 -16.84l0 7.04 -0.35 0 0 -7.04 0.24 -0.16 0.11 0.16zm-0.11 -0.16l0.11 0.04 0 0.12 -0.11 -0.16zm-16.94 -6.37l16.94 6.37 -0.12 0.32 -16.94 -6.37 -0.11 -0.16 0.23 -0.16zm-0.23 0.16l0 -0.25 0.23 0.09 -0.23 0.16zm0 2l0 -2 0.34 0 0 2 0 0 -0.34 0zm0 2.57l0 -2.57 0.34 0 0 2.57 -0.23 0.16 -0.11 -0.16zm0.11 0.16l-0.11 -0.04 0 -0.12 0.11 0.16zm16.85 6.76l-16.85 -6.76 0.12 -0.32 16.85 6.76 0.11 0.15 -0.23 0.17zm0.12 -0.32l0.11 0.04 0 0.11 -0.11 -0.15zm-0.15 2.25l-0.08 -2.09 0.34 -0.01 0.09 2.08 0 0.01 -0.35 0.01z"/>
  <path fill="#EAC9CA" d="M99.53 32.16c3.01,0.03 5.54,1.71 6.43,3.59l13.86 -24.76c0.12,-0.22 0.39,-0.29 0.61,-0.17l0.08 0.04c0.22,0.12 0.29,0.39 0.17,0.61 -3.63,8.83 3.16,18.72 -7.71,27.42 -0.93,0.53 -1.83,-0.71 -1.04,-1.38 7.71,-5.26 5.8,-12.85 4.21,-17.93l-9.63 17.2c-0.03,0.05 -0.12,0.21 -0.22,0.41 -0.03,2.33 -3.1,4.2 -6.86,4.17 -3.77,-0.02 -6.81,-1.95 -6.79,-4.29 0.02,-2.35 3.12,-4.93 6.89,-4.91z"/>
  <path id="1" fill="#E4C0C1" fill-rule="nonzero" d="M105.81 35.66l0.3 0.17 -0.31 -0.01 -0.08 -0.17 -0.1 -0.16 -0.1 -0.17 -0.11 -0.16 -0.12 -0.17 -0.13 -0.16 -0.13 -0.16 -0.15 -0.15 -0.15 -0.15 -0.16 -0.15 -0.17 -0.15 -0.18 -0.14 -0.18 -0.14 -0.19 -0.13 -0.19 -0.13 -0.2 -0.12 -0.21 -0.12 -0.22 -0.11 -0.22 -0.11 -0.22 -0.1 -0.23 -0.09 -0.24 -0.09 -0.24 -0.08 -0.25 -0.08 -0.25 -0.06 -0.25 -0.06 -0.26 -0.05 -0.26 -0.04 -0.27 -0.04 -0.26 -0.02 -0.28 -0.02 -0.27 0 0 -0.35 0.29 0.01 0.28 0.02 0.28 0.02 0.28 0.04 0.27 0.04 0.27 0.05 0.27 0.06 0.26 0.07 0.25 0.08 0.25 0.09 0.25 0.09 0.24 0.09 0.24 0.11 0.23 0.11 0.22 0.12 0.22 0.12 0.21 0.13 0.21 0.14 0.19 0.14 0.2 0.14 0.18 0.15 0.18 0.15 0.17 0.16 0.16 0.16 0.15 0.17 0.15 0.16 0.13 0.17 0.13 0.18 0.12 0.17 0.11 0.18 0.1 0.18 0.09 0.19 -0.3 -0.02zm0.3 0.17l-0.17 0.29 -0.14 -0.3 0.31 0.01zm13.86 -24.76l-13.86 24.76 -0.3 -0.17 13.86 -24.76 0 0 0.3 0.17zm0.54 -0.4l-0.17 0.3 0 0 -0.01 -0.01 -0.01 -0.01 -0.02 0 -0.01 0 -0.01 -0.01 -0.02 0 0 0 -0.02 -0.01 -0.02 0 0 0 -0.02 0 -0.01 0 -0.02 0.01 -0.01 0 -0.01 0 -0.01 0 -0.02 0.01 -0.01 0 -0.01 0 -0.02 0.01 -0.01 0.01 0 0 -0.02 0.01 -0.01 0.01 -0.01 0.01 -0.01 0.01 0 0 -0.02 0.02 0 0.01 -0.01 0.01 -0.01 0.01 -0.01 0.01 -0.3 -0.17 0.02 -0.02 0.02 -0.03 0.02 -0.03 0.02 -0.02 0.01 -0.02 0.03 -0.02 0.02 -0.02 0.02 -0.02 0.03 -0.02 0.02 -0.01 0.03 -0.02 0.03 -0.02 0.02 -0.01 0.03 -0.01 0.03 -0.01 0.02 -0.01 0.03 0 0.03 -0.01 0.03 -0.01 0.03 0 0.02 0 0.04 0 0.03 0 0.03 0 0.02 0.01 0.04 0 0.03 0.01 0.03 0.01 0.02 0.01 0.03 0.01 0.03 0.01 0.03 0.02 0 0zm-0.08 0.34l-0.09 -0.04 0.17 -0.3 0.09 0.04 0 0 -0.17 0.3zm0.41 0.52l-0.32 -0.13 0.01 -0.02 0.01 -0.01 0 -0.01 0.01 -0.01 0 -0.02 0.01 -0.01 0 -0.01 0 -0.01 0 -0.02 0.01 -0.02 0 0 0 -0.01 0 -0.02 -0.01 -0.02 0 -0.01 0 -0.01 0 -0.01 -0.01 -0.02 0 -0.01 -0.01 -0.01 0 -0.01 -0.01 -0.01 0 -0.01 -0.01 -0.01 -0.01 -0.02 -0.01 0 -0.01 -0.02 0 0 -0.02 -0.01 -0.01 -0.01 -0.01 -0.01 -0.01 -0.01 -0.01 -0.01 0.17 -0.3 0.02 0.02 0.03 0.02 0.03 0.02 0.02 0.02 0.02 0.01 0.02 0.03 0.02 0.02 0.02 0.03 0.02 0.02 0.01 0.02 0.02 0.03 0.02 0.03 0.01 0.02 0.01 0.03 0.01 0.03 0.01 0.02 0 0.03 0.01 0.03 0.01 0.03 0 0.03 0 0.03 0 0.03 0 0.03 0 0.03 -0.01 0.03 0 0.03 -0.01 0.03 -0.01 0.03 -0.01 0.03 -0.01 0.02 -0.01 0.03 -0.02 0.03 0.01 -0.02zm-0.32 -0.13l0.01 -0.01 0 -0.01 -0.01 0.02zm-7.47 27.64l-0.17 -0.3 -0.02 0.01 0.96 -0.81 0.86 -0.82 0.77 -0.82 0.69 -0.83 0.59 -0.83 0.53 -0.84 0.45 -0.84 0.38 -0.85 0.32 -0.85 0.27 -0.85 0.21 -0.86 0.17 -0.86 0.13 -0.86 0.09 -0.87 0.06 -0.86 0.03 -0.88 0.01 -0.87 0 -0.87 -0.02 -0.87 -0.02 -0.87 -0.02 -0.87 -0.02 -0.88 -0.01 -0.87 0.01 -0.87 0.03 -0.86 0.05 -0.87 0.08 -0.86 0.12 -0.86 0.17 -0.86 0.2 -0.85 0.26 -0.85 0.31 -0.84 0.32 0.13 -0.3 0.82 -0.26 0.83 -0.2 0.83 -0.16 0.84 -0.11 0.85 -0.09 0.85 -0.05 0.85 -0.03 0.86 0 0.86 0 0.87 0.02 0.87 0.02 0.87 0.02 0.87 0.02 0.88 0 0.88 -0.01 0.87 -0.03 0.88 -0.06 0.88 -0.09 0.88 -0.13 0.88 -0.17 0.88 -0.22 0.87 -0.27 0.87 -0.33 0.87 -0.4 0.87 -0.46 0.86 -0.53 0.86 -0.61 0.85 -0.7 0.85 -0.78 0.83 -0.88 0.84 -0.98 0.82 -0.02 0.02zm0.02 -0.02l0 0.01 -0.02 0.01 0.02 -0.02zm-1.24 -1.65l0.19 0.28 0.02 -0.01 -0.06 0.05 -0.05 0.06 -0.04 0.05 -0.03 0.06 -0.02 0.06 -0.02 0.05 -0.02 0.06 0 0.06 0 0.06 0 0.06 0.01 0.06 0.02 0.06 0.02 0.05 0.03 0.06 0.03 0.05 0.03 0.06 0.04 0.04 0.04 0.05 0.05 0.04 0.05 0.04 0.05 0.03 0.06 0.03 0.06 0.02 0.06 0.02 0.06 0.01 0.06 0.01 0.07 0 0.06 0 0.07 -0.02 0.07 -0.02 0.07 -0.02 0.07 -0.04 0.17 0.3 -0.1 0.05 -0.1 0.04 -0.1 0.03 -0.1 0.02 -0.1 0.01 -0.1 -0.01 -0.1 -0.01 -0.09 -0.01 -0.09 -0.03 -0.08 -0.04 -0.09 -0.04 -0.07 -0.05 -0.08 -0.05 -0.06 -0.06 -0.07 -0.07 -0.05 -0.07 -0.05 -0.07 -0.05 -0.08 -0.04 -0.08 -0.03 -0.09 -0.02 -0.09 -0.02 -0.09 -0.01 -0.09 0 -0.09 0.01 -0.09 0.02 -0.09 0.03 -0.1 0.04 -0.09 0.05 -0.08 0.06 -0.09 0.07 -0.08 0.09 -0.07 0.01 -0.01zm-0.01 0.01l0 -0.01 0.01 0 -0.01 0.01zm4.47 -17.71l-0.3 -0.17 0.31 0.03 0.15 0.49 0.15 0.5 0.15 0.51 0.15 0.52 0.14 0.54 0.13 0.54 0.12 0.56 0.12 0.57 0.1 0.57 0.08 0.58 0.07 0.59 0.05 0.59 0.03 0.6 0.01 0.6 -0.01 0.6 -0.05 0.61 -0.06 0.6 -0.1 0.61 -0.13 0.6 -0.16 0.61 -0.2 0.6 -0.24 0.59 -0.27 0.59 -0.32 0.59 -0.35 0.58 -0.4 0.57 -0.45 0.56 -0.5 0.56 -0.54 0.54 -0.59 0.53 -0.65 0.51 -0.71 0.51 -0.19 -0.28 0.69 -0.5 0.63 -0.5 0.58 -0.52 0.53 -0.53 0.49 -0.54 0.43 -0.54 0.39 -0.56 0.35 -0.56 0.3 -0.57 0.27 -0.57 0.22 -0.58 0.2 -0.58 0.16 -0.59 0.12 -0.59 0.1 -0.58 0.06 -0.59 0.04 -0.59 0.02 -0.59 -0.01 -0.59 -0.03 -0.59 -0.05 -0.58 -0.07 -0.57 -0.08 -0.57 -0.1 -0.57 -0.11 -0.56 -0.13 -0.55 -0.13 -0.54 -0.13 -0.53 -0.15 -0.52 -0.15 -0.51 -0.15 -0.49 -0.15 -0.48 0.32 0.03zm-0.3 -0.17l0.19 -0.35 0.12 0.38 -0.31 -0.03zm-9.63 17.2l9.63 -17.2 0.3 0.17 -9.63 17.19 0 0 -0.3 -0.16zm0.1 0.49l-0.34 -0.01 0.02 -0.07 0.01 -0.02 0.01 -0.02 0.01 -0.02 0.01 -0.02 0 -0.01 0.01 -0.02 0.01 -0.02 0.01 -0.01 0.01 -0.02 0.01 -0.02 0.01 -0.01 0.01 -0.02 0 -0.01 0.01 -0.01 0.01 -0.02 0 -0.01 0.01 -0.02 0.01 -0.01 0.01 -0.01 0 -0.02 0.01 0 0 -0.01 0.01 -0.01 0.01 -0.02 0 0 0.01 -0.01 0 0 0 -0.02 0.01 -0.01 0 0 0 0 0.01 -0.02 0.3 0.17 0 0 -0.01 0.01 -0.01 0.02 0 0 0 0 -0.01 0.02 0 0 0 0.01 -0.01 0.01 0 0.01 -0.01 0.01 -0.01 0.02 0 0 -0.01 0.01 -0.01 0.02 0 0.01 -0.01 0.01 0 0.01 -0.01 0.02 -0.01 0.02 -0.01 0.01 -0.01 0.02 -0.01 0.01 0 0.02 -0.01 0.01 -0.01 0.02 -0.01 0.02 -0.01 0.02 -0.01 0.01 -0.01 0.02 -0.01 0.02 -0.01 0.02 0.02 -0.08zm-0.34 -0.01l0 -0.04 0.02 -0.03 -0.02 0.07zm-6.69 4.36l0 -0.35 0 0 0.35 0 0.34 -0.01 0.34 -0.03 0.33 -0.03 0.32 -0.05 0.32 -0.05 0.31 -0.06 0.3 -0.07 0.3 -0.09 0.29 -0.08 0.28 -0.1 0.27 -0.11 0.26 -0.11 0.26 -0.12 0.24 -0.13 0.23 -0.14 0.22 -0.14 0.21 -0.14 0.2 -0.16 0.18 -0.16 0.17 -0.16 0.16 -0.17 0.15 -0.17 0.13 -0.18 0.12 -0.18 0.1 -0.19 0.09 -0.19 0.08 -0.19 0.06 -0.19 0.04 -0.2 0.03 -0.2 0.01 -0.21 0.34 0.01 -0.01 0.23 -0.03 0.23 -0.05 0.22 -0.07 0.22 -0.08 0.22 -0.1 0.21 -0.11 0.21 -0.14 0.2 -0.14 0.19 -0.16 0.19 -0.17 0.18 -0.19 0.18 -0.2 0.17 -0.21 0.16 -0.22 0.16 -0.23 0.15 -0.25 0.14 -0.25 0.13 -0.26 0.13 -0.28 0.12 -0.28 0.11 -0.29 0.1 -0.3 0.09 -0.31 0.09 -0.32 0.07 -0.32 0.07 -0.33 0.05 -0.33 0.05 -0.34 0.03 -0.35 0.03 -0.35 0.01 -0.36 0.01 0 0zm-6.96 -4.47l0.34 0 0 0 0.01 0.2 0.02 0.21 0.04 0.19 0.06 0.2 0.06 0.2 0.09 0.19 0.1 0.18 0.12 0.19 0.12 0.18 0.15 0.18 0.15 0.17 0.17 0.17 0.19 0.16 0.19 0.15 0.21 0.16 0.22 0.14 0.23 0.14 0.24 0.13 0.25 0.13 0.26 0.11 0.27 0.11 0.28 0.11 0.29 0.09 0.29 0.09 0.31 0.07 0.31 0.07 0.32 0.06 0.32 0.05 0.33 0.04 0.34 0.03 0.34 0.02 0.34 0 0 0.35 -0.35 -0.01 -0.36 -0.02 -0.34 -0.03 -0.34 -0.04 -0.34 -0.05 -0.33 -0.06 -0.32 -0.07 -0.32 -0.08 -0.3 -0.09 -0.3 -0.1 -0.29 -0.1 -0.29 -0.12 -0.27 -0.12 -0.26 -0.13 -0.25 -0.14 -0.25 -0.15 -0.23 -0.15 -0.22 -0.16 -0.21 -0.17 -0.19 -0.17 -0.18 -0.18 -0.17 -0.19 -0.16 -0.19 -0.14 -0.2 -0.13 -0.2 -0.11 -0.21 -0.09 -0.21 -0.08 -0.22 -0.07 -0.22 -0.04 -0.23 -0.03 -0.23 0 -0.23 0 0zm7.06 -5.08l0 0.35 0 0 -0.35 0 -0.34 0.02 -0.33 0.03 -0.33 0.05 -0.33 0.06 -0.31 0.07 -0.32 0.09 -0.3 0.09 -0.3 0.11 -0.29 0.12 -0.28 0.12 -0.28 0.14 -0.26 0.14 -0.25 0.16 -0.25 0.16 -0.23 0.16 -0.22 0.18 -0.22 0.18 -0.2 0.18 -0.18 0.19 -0.18 0.2 -0.16 0.2 -0.15 0.2 -0.13 0.21 -0.12 0.21 -0.11 0.2 -0.09 0.21 -0.07 0.21 -0.06 0.21 -0.04 0.21 -0.03 0.21 -0.01 0.21 -0.34 0 0.01 -0.24 0.03 -0.23 0.05 -0.24 0.06 -0.23 0.08 -0.23 0.1 -0.23 0.12 -0.23 0.13 -0.22 0.14 -0.22 0.16 -0.22 0.17 -0.21 0.19 -0.21 0.19 -0.2 0.22 -0.2 0.22 -0.19 0.23 -0.18 0.25 -0.18 0.25 -0.17 0.27 -0.16 0.28 -0.15 0.28 -0.14 0.3 -0.13 0.3 -0.12 0.31 -0.11 0.32 -0.1 0.32 -0.09 0.33 -0.08 0.34 -0.06 0.35 -0.05 0.35 -0.03 0.35 -0.02 0.36 -0.01 0 0z"/>
  <path fill="#E4C0C1" d="M255.57 182.01c2.95,-0.61 5.78,0.51 7.04,2.16l8.38 -27.11c0.07,-0.23 0.32,-0.37 0.55,-0.29l0.1 0.03c0.23,0.07 0.36,0.32 0.29,0.55 -1.71,9.4 7,17.65 -1.81,28.43 -0.79,0.71 -1.94,-0.31 -1.31,-1.14 6.45,-6.75 2.99,-13.77 0.37,-18.4l-5.82 18.83c-0.02,0.06 -0.07,0.23 -0.13,0.44 0.46,2.29 -2.14,4.76 -5.83,5.52 -3.69,0.76 -7.07,-0.48 -7.54,-2.78 -0.47,-2.3 2.02,-5.48 5.71,-6.24z"/>
  <path id="1" fill="#EAC9CA" fill-rule="nonzero" d="M262.44 184.12l0.33 0.1 -0.3 0.06 -0.12 -0.15 -0.12 -0.14 -0.14 -0.14 -0.14 -0.14 -0.15 -0.14 -0.16 -0.13 -0.17 -0.12 -0.17 -0.12 -0.18 -0.12 -0.19 -0.11 -0.2 -0.11 -0.2 -0.1 -0.2 -0.1 -0.22 -0.09 -0.21 -0.08 -0.23 -0.08 -0.23 -0.07 -0.23 -0.07 -0.24 -0.06 -0.24 -0.05 -0.24 -0.04 -0.25 -0.04 -0.26 -0.03 -0.25 -0.02 -0.26 -0.01 -0.26 0 -0.26 0 -0.27 0.01 -0.26 0.03 -0.27 0.03 -0.27 0.04 -0.27 0.05 -0.07 -0.34 0.28 -0.05 0.28 -0.04 0.28 -0.04 0.28 -0.02 0.28 -0.01 0.27 -0.01 0.27 0.01 0.27 0.01 0.27 0.02 0.26 0.03 0.26 0.04 0.26 0.04 0.25 0.06 0.25 0.06 0.24 0.07 0.24 0.07 0.23 0.09 0.23 0.08 0.23 0.1 0.21 0.1 0.21 0.11 0.21 0.11 0.2 0.12 0.19 0.12 0.18 0.13 0.18 0.14 0.17 0.13 0.16 0.15 0.15 0.14 0.15 0.15 0.14 0.16 0.12 0.16 -0.3 0.05zm0.33 0.1l-0.1 0.32 -0.2 -0.26 0.3 -0.06zm8.38 -27.11l-8.38 27.11 -0.33 -0.1 8.38 -27.11 0 0 0.33 0.1zm0.44 -0.51l-0.1 0.33 0 0 -0.01 0 -0.01 -0.01 -0.02 0 -0.02 0 0 0 -0.02 0 -0.01 0 -0.02 0 -0.01 0 -0.01 0 -0.01 0.01 -0.02 0 -0.01 0 -0.01 0.01 -0.01 0 -0.02 0.01 -0.01 0.01 -0.01 0 -0.01 0.01 -0.01 0.01 -0.01 0.01 -0.01 0.01 -0.01 0.01 -0.01 0 -0.01 0.02 0 0.01 -0.01 0.01 -0.01 0.01 0 0.01 -0.01 0.01 0 0.02 -0.01 0.01 -0.33 -0.1 0.01 -0.03 0.01 -0.03 0.02 -0.03 0.01 -0.03 0.02 -0.02 0.01 -0.03 0.02 -0.02 0.02 -0.02 0.02 -0.03 0.02 -0.02 0.02 -0.02 0.03 -0.02 0.02 -0.02 0.02 -0.01 0.03 -0.02 0.03 -0.01 0.02 -0.01 0.02 -0.02 0.04 -0.01 0.02 -0.01 0.03 -0.01 0.03 0 0.03 -0.01 0.03 0 0.03 0 0.03 0 0.03 0 0.03 0 0.03 0 0.03 0.01 0.03 0 0.03 0.01 0 0zm0 0.36l-0.1 -0.03 0.1 -0.33 0.1 0.03 0 0 -0.1 0.33zm0.51 0.42l-0.34 -0.06 0 -0.02 0.01 -0.01 0 -0.02 0 -0.01 0 -0.01 0.01 -0.02 0 -0.01 0 -0.01 -0.01 -0.02 0 -0.01 0 -0.01 0 -0.02 -0.01 -0.01 0 -0.01 0 -0.01 -0.01 -0.02 0 -0.01 -0.01 -0.01 -0.01 -0.01 -0.01 -0.01 0 -0.01 -0.01 -0.01 -0.01 -0.01 -0.01 -0.01 -0.01 -0.01 -0.01 -0.01 -0.01 -0.01 -0.01 0 -0.01 -0.01 -0.02 -0.01 -0.01 0 -0.01 -0.01 -0.01 0 0.1 -0.33 0.03 0.01 0.03 0.01 0.03 0.02 0.02 0.01 0.03 0.01 0.02 0.02 0.03 0.02 0.02 0.02 0.02 0.02 0.03 0.02 0.01 0.02 0.02 0.02 0.02 0.03 0.02 0.02 0.02 0.03 0.01 0.02 0.01 0.03 0.01 0.02 0.01 0.03 0.01 0.03 0.01 0.03 0.01 0.02 0 0.03 0.01 0.04 0 0.03 0 0.03 0 0.03 0 0.03 -0.01 0.03 0 0.03 -0.01 0.03 -0.01 0.03 0.01 -0.02zm-0.34 -0.06l0 -0.01 0 -0.01 0 0.02zm-1.53 28.58l-0.23 -0.25 -0.01 0.02 0.77 -1 0.67 -0.98 0.58 -0.96 0.49 -0.96 0.41 -0.94 0.34 -0.93 0.26 -0.91 0.2 -0.91 0.14 -0.9 0.08 -0.89 0.03 -0.88 -0.02 -0.88 -0.05 -0.87 -0.1 -0.86 -0.12 -0.87 -0.15 -0.85 -0.17 -0.86 -0.19 -0.85 -0.19 -0.85 -0.21 -0.85 -0.2 -0.85 -0.2 -0.85 -0.19 -0.85 -0.17 -0.85 -0.16 -0.85 -0.13 -0.86 -0.1 -0.86 -0.06 -0.86 -0.02 -0.87 0.02 -0.88 0.08 -0.88 0.13 -0.89 0.34 0.06 -0.13 0.87 -0.07 0.86 -0.03 0.86 0.02 0.85 0.07 0.85 0.09 0.85 0.13 0.84 0.15 0.85 0.18 0.84 0.19 0.85 0.19 0.84 0.21 0.85 0.2 0.85 0.2 0.86 0.19 0.85 0.17 0.86 0.15 0.87 0.12 0.87 0.1 0.88 0.06 0.89 0.01 0.89 -0.03 0.9 -0.08 0.91 -0.14 0.92 -0.2 0.93 -0.27 0.94 -0.35 0.95 -0.42 0.96 -0.5 0.97 -0.59 0.99 -0.69 0.99 -0.78 1.01 -0.02 0.02zm0.02 -0.02l0 0.01 -0.02 0.01 0.02 -0.02zm-1.56 -1.35l0.25 0.23 0.01 -0.01 -0.05 0.06 -0.03 0.07 -0.03 0.06 -0.02 0.06 -0.01 0.06 -0.01 0.06 0 0.06 0.01 0.06 0.01 0.06 0.02 0.06 0.02 0.05 0.03 0.06 0.03 0.05 0.04 0.05 0.04 0.04 0.04 0.05 0.05 0.04 0.06 0.03 0.05 0.03 0.06 0.03 0.06 0.02 0.05 0.02 0.07 0.01 0.06 0 0.06 0 0.06 0 0.07 -0.02 0.06 -0.02 0.06 -0.02 0.07 -0.04 0.06 -0.04 0.06 -0.05 0.23 0.25 -0.08 0.08 -0.09 0.06 -0.1 0.05 -0.09 0.04 -0.1 0.03 -0.09 0.02 -0.1 0.01 -0.1 0 -0.09 -0.01 -0.09 -0.02 -0.09 -0.02 -0.08 -0.03 -0.09 -0.04 -0.08 -0.05 -0.07 -0.05 -0.07 -0.05 -0.07 -0.07 -0.06 -0.06 -0.05 -0.08 -0.05 -0.07 -0.04 -0.08 -0.04 -0.09 -0.02 -0.08 -0.02 -0.09 -0.01 -0.1 0 -0.09 0.01 -0.1 0.02 -0.1 0.03 -0.09 0.04 -0.1 0.05 -0.09 0.07 -0.09 0.01 -0.01zm-0.01 0.01l0 0 0.01 -0.01 -0.01 0.01zm0.67 -18.25l-0.33 -0.11 0.31 -0.03 0.25 0.44 0.25 0.46 0.25 0.47 0.25 0.48 0.25 0.5 0.25 0.5 0.24 0.52 0.22 0.53 0.22 0.54 0.21 0.55 0.19 0.56 0.17 0.57 0.16 0.58 0.13 0.58 0.11 0.6 0.09 0.6 0.06 0.6 0.03 0.62 0 0.62 -0.04 0.62 -0.06 0.63 -0.11 0.63 -0.14 0.64 -0.19 0.63 -0.22 0.65 -0.28 0.64 -0.32 0.64 -0.37 0.64 -0.41 0.65 -0.48 0.64 -0.52 0.64 -0.58 0.64 -0.25 -0.23 0.57 -0.63 0.51 -0.63 0.46 -0.63 0.41 -0.62 0.36 -0.63 0.31 -0.63 0.26 -0.62 0.23 -0.62 0.18 -0.62 0.13 -0.62 0.11 -0.61 0.06 -0.61 0.04 -0.6 0 -0.6 -0.04 -0.6 -0.05 -0.59 -0.09 -0.59 -0.11 -0.58 -0.13 -0.57 -0.15 -0.57 -0.17 -0.55 -0.19 -0.55 -0.2 -0.54 -0.21 -0.54 -0.23 -0.52 -0.23 -0.51 -0.25 -0.5 -0.24 -0.49 -0.25 -0.48 -0.25 -0.47 -0.25 -0.45 -0.25 -0.44 0.32 -0.03zm-0.33 -0.11l0.11 -0.38 0.2 0.35 -0.31 0.03zm-5.82 18.84l5.82 -18.84 0.33 0.11 -5.83 18.83 -0.32 -0.1 0 0zm0.2 0.46l-0.33 0.06 0 -0.08 0 -0.02 0.01 -0.01 0.01 -0.03 0 -0.01 0.01 -0.03 0 -0.01 0.01 -0.02 0 -0.02 0.01 -0.01 0 -0.02 0.01 -0.02 0 -0.02 0.01 -0.02 0 -0.01 0 -0.01 0.01 -0.02 0 -0.01 0.01 -0.02 0 -0.01 0 -0.01 0.01 -0.01 0 -0.02 0 0 0.01 -0.02 0 -0.01 0 0 0 -0.01 0.01 -0.01 0 -0.01 0.01 -0.02 0 0 0 0 0.32 0.1 0 0 0 0.02 0 0 0 0 0 0.01 -0.01 0 0 0.02 0 0.01 -0.01 0.01 0 0.01 0 0.01 -0.01 0.01 0 0.02 0 0.01 -0.01 0.01 0 0.02 -0.01 0.01 0 0.01 -0.01 0.03 0 0.01 0 0.01 -0.01 0.02 0 0.02 -0.01 0.01 0 0.02 -0.01 0.02 0 0.02 -0.01 0.02 -0.01 0.02 0 0.01 0 0.02 -0.01 0.03 0 -0.08zm-0.33 0.06l-0.01 -0.04 0.01 -0.04 0 0.08zm-5.63 5.66l-0.07 -0.34 0 0 0.34 -0.07 0.33 -0.09 0.32 -0.09 0.31 -0.1 0.31 -0.12 0.3 -0.11 0.29 -0.13 0.28 -0.14 0.28 -0.14 0.26 -0.14 0.26 -0.16 0.24 -0.16 0.23 -0.17 0.22 -0.17 0.21 -0.17 0.2 -0.18 0.19 -0.18 0.17 -0.19 0.16 -0.19 0.15 -0.2 0.13 -0.2 0.13 -0.19 0.1 -0.2 0.09 -0.2 0.08 -0.21 0.07 -0.2 0.04 -0.2 0.03 -0.21 0.02 -0.2 0 -0.2 -0.01 -0.21 -0.03 -0.2 0.33 -0.06 0.04 0.22 0.01 0.23 0 0.23 -0.02 0.23 -0.03 0.23 -0.05 0.23 -0.07 0.23 -0.09 0.22 -0.1 0.22 -0.12 0.22 -0.13 0.21 -0.14 0.21 -0.16 0.21 -0.17 0.2 -0.19 0.2 -0.19 0.2 -0.21 0.19 -0.22 0.18 -0.23 0.18 -0.25 0.17 -0.25 0.17 -0.27 0.16 -0.27 0.16 -0.28 0.14 -0.3 0.14 -0.3 0.13 -0.31 0.13 -0.32 0.11 -0.32 0.11 -0.33 0.09 -0.34 0.09 -0.35 0.08 0 0zm-7.75 -2.92l0.34 -0.07 0 0 0.05 0.2 0.06 0.2 0.08 0.18 0.1 0.18 0.11 0.18 0.12 0.17 0.14 0.16 0.15 0.16 0.16 0.15 0.18 0.14 0.19 0.13 0.2 0.13 0.21 0.12 0.23 0.12 0.23 0.1 0.24 0.09 0.26 0.09 0.26 0.08 0.27 0.07 0.28 0.06 0.29 0.05 0.29 0.05 0.31 0.03 0.3 0.02 0.32 0.01 0.31 0 0.33 -0.01 0.33 -0.02 0.33 -0.03 0.33 -0.04 0.34 -0.05 0.34 -0.07 0.07 0.34 -0.35 0.06 -0.35 0.06 -0.35 0.04 -0.34 0.03 -0.34 0.02 -0.33 0.01 -0.33 0 -0.33 -0.01 -0.31 -0.02 -0.32 -0.03 -0.3 -0.05 -0.3 -0.05 -0.3 -0.06 -0.28 -0.08 -0.28 -0.08 -0.26 -0.09 -0.26 -0.1 -0.25 -0.11 -0.24 -0.13 -0.23 -0.12 -0.21 -0.14 -0.21 -0.15 -0.19 -0.15 -0.18 -0.17 -0.17 -0.17 -0.15 -0.18 -0.14 -0.19 -0.12 -0.19 -0.11 -0.21 -0.09 -0.21 -0.07 -0.22 -0.06 -0.23 0 0zm5.85 -6.44l0.07 0.34 0 0 -0.34 0.08 -0.33 0.09 -0.32 0.1 -0.31 0.11 -0.31 0.13 -0.29 0.14 -0.29 0.15 -0.28 0.15 -0.27 0.17 -0.26 0.17 -0.25 0.19 -0.23 0.19 -0.23 0.19 -0.22 0.21 -0.2 0.21 -0.2 0.21 -0.18 0.22 -0.17 0.22 -0.15 0.22 -0.15 0.23 -0.13 0.22 -0.12 0.23 -0.1 0.23 -0.09 0.23 -0.07 0.23 -0.06 0.23 -0.04 0.22 -0.03 0.22 -0.02 0.22 0.01 0.21 0.01 0.21 0.04 0.2 -0.34 0.07 -0.04 -0.23 -0.02 -0.23 0 -0.24 0.02 -0.24 0.03 -0.25 0.05 -0.24 0.06 -0.25 0.08 -0.24 0.1 -0.25 0.11 -0.25 0.12 -0.24 0.14 -0.24 0.15 -0.24 0.17 -0.24 0.17 -0.23 0.19 -0.23 0.21 -0.22 0.21 -0.22 0.23 -0.21 0.24 -0.21 0.25 -0.2 0.26 -0.19 0.27 -0.18 0.28 -0.17 0.29 -0.17 0.3 -0.15 0.31 -0.14 0.31 -0.13 0.33 -0.13 0.33 -0.1 0.35 -0.1 0.35 -0.08 0 0z"/>
  <path fill="#EAC9CA" d="M143.37 186.54c2.14,-1.18 4.59,-0.98 5.95,-0.01l0 -28.87c0,-0.19 0.16,-0.35 0.36,-0.35l0.08 0c0.2,0 0.36,0.16 0.36,0.35l16.93 6.79c0,-0.19 0.16,-0.35 0.36,-0.35l0.08 0c0.2,0 0.36,0.16 0.36,0.35l0 7.52 0 21.86c0,0.05 0,0.19 0.01,0.37 0.9,1.66 -0.53,4.19 -3.19,5.66 -0.09,0.05 -0.18,0.09 -0.27,0.14l-5.85 0c-0.15,-0.15 -0.27,-0.31 -0.37,-0.49 -0.91,-1.66 0.25,-4.71 2.92,-6.18 2.14,-1.17 4.59,-0.98 5.95,-0.01l0 -16.73 -16.93 -7.03 0 17.48c0,0.05 0,0.19 0,0.37 0.9,1.66 -0.52,4.19 -3.18,5.66 -2.67,1.47 -5.58,1.31 -6.49,-0.35 -0.92,-1.66 0.25,-4.71 2.92,-6.18zm23.68 -9.95l0 -7.03 -16.93 -6.38 0 2 0 2.57 16.85 6.76 0.08 2.08z"/>
  <path id="1" fill="#E4C0C1" fill-rule="nonzero" d="M149.15 186.53l0.34 0 -0.27 0.14 -0.12 -0.08 -0.13 -0.09 -0.14 -0.07 -0.14 -0.07 -0.15 -0.07 -0.15 -0.06 -0.16 -0.06 -0.16 -0.05 -0.17 -0.05 -0.17 -0.04 -0.17 -0.03 -0.18 -0.04 -0.18 -0.02 -0.19 -0.02 -0.19 -0.01 -0.19 -0.01 -0.19 0 -0.19 0 -0.2 0.02 -0.2 0.01 -0.2 0.03 -0.2 0.03 -0.2 0.04 -0.2 0.04 -0.2 0.05 -0.2 0.06 -0.2 0.07 -0.2 0.07 -0.2 0.08 -0.2 0.09 -0.2 0.1 -0.2 0.1 -0.16 -0.3 0.2 -0.11 0.21 -0.1 0.21 -0.09 0.21 -0.09 0.21 -0.08 0.22 -0.06 0.21 -0.07 0.21 -0.05 0.21 -0.05 0.21 -0.04 0.22 -0.03 0.2 -0.03 0.21 -0.02 0.21 -0.01 0.21 0 0.2 0 0.2 0 0.2 0.02 0.2 0.02 0.19 0.02 0.19 0.04 0.19 0.04 0.18 0.04 0.17 0.05 0.18 0.06 0.17 0.06 0.17 0.06 0.16 0.08 0.15 0.07 0.15 0.09 0.14 0.09 0.14 0.09 -0.27 0.14zm0.34 0l0 0.33 -0.27 -0.19 0.27 -0.14zm0 -28.87l0 28.87 -0.34 0 0 -28.87 0 0 0.34 0zm0.19 -0.52l0 0.34 0 0 -0.01 0 -0.01 0 -0.01 0 0 0 -0.01 0 -0.02 0.01 -0.01 0 0 0 -0.01 0.01 -0.01 0 -0.01 0.01 0 0 -0.02 0.01 0 0 0 0 -0.01 0.01 -0.01 0.01 -0.01 0.01 0 0 0 0.01 -0.01 0.01 0 0.01 -0.01 0.01 0 0 -0.01 0.01 0 0.01 0 0.01 0 0.01 -0.01 0 0 0.01 0 0.02 0 0 -0.34 0 0 -0.03 0 -0.02 0 -0.02 0.01 -0.04 0.01 -0.02 0 -0.02 0.01 -0.03 0.01 -0.02 0.01 -0.03 0.01 -0.02 0.02 -0.02 0.01 -0.02 0.01 -0.02 0.02 -0.02 0.02 -0.02 0.01 -0.02 0.02 -0.01 0.02 -0.02 0.03 -0.02 0.01 -0.01 0.03 -0.02 0.02 -0.01 0.02 -0.01 0.02 -0.01 0.03 -0.01 0.03 -0.01 0.01 -0.01 0.03 0 0.03 -0.01 0.03 0 0.02 0 0.03 0 0 0zm0.08 0.34l-0.08 0 0 -0.34 0.08 0 0 0 0 0.34zm0.42 0.03l-0.13 0.31 -0.1 -0.16 0 0 -0.01 -0.02 0 -0.01 0 0 0 -0.01 0 -0.01 -0.01 -0.01 0 -0.01 0 0 -0.01 -0.01 0 -0.01 -0.01 -0.01 0 -0.01 -0.01 0 0 -0.01 -0.01 -0.01 -0.01 -0.01 0 0 -0.01 0 -0.01 -0.01 0 0 -0.01 -0.01 -0.01 0 -0.01 -0.01 -0.01 0 0 0 -0.02 -0.01 -0.01 0 0 0 -0.01 0 -0.01 0 -0.01 0 0 -0.34 0.03 0 0.02 0 0.03 0 0.03 0.01 0.03 0 0.01 0.01 0.03 0.01 0.03 0.01 0.02 0.01 0.02 0.01 0.02 0.01 0.02 0.02 0.02 0.01 0.03 0.02 0.02 0.02 0.01 0.01 0.02 0.02 0.02 0.02 0.02 0.02 0.01 0.02 0.01 0.02 0.01 0.02 0.02 0.02 0.01 0.03 0.01 0.02 0.01 0.03 0 0.02 0.01 0.02 0 0.04 0.01 0.02 0 0.02 0 0.03 -0.11 -0.15zm-0.13 0.31l-0.1 -0.04 0 -0.12 0.1 0.16zm16.94 6.79l-16.94 -6.79 0.13 -0.31 16.94 6.79 0.1 0.15 -0.23 0.16zm0.23 -0.16l0 0.26 -0.23 -0.1 0.23 -0.16zm0.19 -0.52l0 0.34 0 0 -0.01 0 0 0 -0.02 0 -0.01 0 0 0 -0.01 0.01 -0.02 0 0 0 -0.01 0.01 -0.01 0 -0.01 0.01 0 0 -0.01 0.01 -0.01 0.01 -0.01 0 0 0 -0.01 0.01 -0.01 0.01 0 0 0 0.01 -0.01 0.01 0 0.01 -0.01 0 0 0.02 -0.01 0 0 0 0 0.02 0 0.01 0 0 0 0.01 -0.01 0.02 0 0 -0.34 0 0 -0.02 0 -0.03 0.01 -0.02 0 -0.04 0.01 -0.02 0 -0.02 0.01 -0.03 0.01 -0.02 0.01 -0.02 0.01 -0.03 0.02 -0.02 0.01 -0.02 0.01 -0.02 0.02 -0.02 0.02 -0.02 0.01 -0.02 0.02 -0.02 0.03 -0.02 0.01 -0.01 0.02 -0.01 0.03 -0.02 0.02 -0.01 0.02 -0.01 0.03 -0.01 0.02 -0.01 0.02 -0.01 0.02 -0.01 0.03 -0.01 0.03 0 0.02 0 0.03 0 0.03 0 0 0zm0.08 0.34l-0.08 0 0 -0.34 0.08 0 0 0 0 0.34zm0.53 0.18l-0.34 0 0 0 0 0 -0.01 -0.02 0 -0.01 0 0 0 -0.01 0 -0.02 0 0 -0.01 0 0 -0.02 -0.01 0 0 -0.01 -0.01 -0.01 0 -0.01 0 0 -0.01 -0.01 -0.01 -0.01 0 0 -0.01 0 -0.01 -0.02 -0.01 0 0 0 -0.01 -0.01 -0.01 0 -0.01 -0.01 -0.01 0 0 0 -0.02 -0.01 0 0 -0.01 0 -0.01 0 -0.01 0 -0.01 0 0 -0.34 0.03 0 0.03 0 0.02 0 0.03 0.01 0.03 0 0.02 0.01 0.02 0.01 0.02 0.01 0.03 0.01 0.03 0.01 0.01 0.01 0.03 0.02 0.02 0.01 0.01 0.01 0.03 0.02 0.02 0.02 0.01 0.02 0.02 0.02 0.02 0.02 0.01 0.02 0.01 0.02 0.02 0.02 0.01 0.03 0.01 0.02 0.01 0.02 0.01 0.03 0 0.02 0.01 0.02 0 0.04 0.01 0.02 0 0.03 0 0.02 0 0zm-0.34 7.52l0 -7.52 0.34 0 0 7.52 0 0 -0.34 0zm0 21.86l0 -21.86 0.34 0 0 21.86 0 0 -0.34 0zm0.33 0.29l-0.3 0.16 -0.03 -0.07 0 -0.02 0 -0.02 0 -0.02 0 -0.01 0 -0.01 0 -0.02 0 -0.01 0 -0.02 0 -0.02 0 -0.01 0 -0.01 0 -0.02 0 -0.01 0 -0.01 0 -0.02 0 -0.01 0 -0.01 0 -0.01 0 -0.01 0 -0.02 0 -0.01 0 -0.01 0 -0.01 0 0.01 0 -0.01 0 -0.02 0 -0.01 0 -0.01 0 0 0 -0.01 0 -0.01 0 0 0.34 0 0 0 0 0.01 0 0.01 0 0 0 0.01 0 0.01 0 -0.01 0 0.01 0 0.02 0 0.01 0 0.01 0 0.01 0 0 0 0.02 0 0.02 0 0.01 0 0.01 0 0 0 0.02 0 0.02 0 0 0 0.02 0 0.02 0 0.01 0.01 0.01 0 0.03 0 0 0 0.02 0 0.02 0 0.01 0 0.02 0 0.02 -0.02 -0.08zm-0.3 0.16l-0.02 -0.03 -0.01 -0.04 0.03 0.07zm-2.96 5.73l-0.16 -0.3 0 0 0.24 -0.14 0.23 -0.15 0.23 -0.14 0.22 -0.16 0.21 -0.16 0.2 -0.16 0.19 -0.17 0.19 -0.17 0.18 -0.17 0.16 -0.18 0.16 -0.17 0.15 -0.18 0.14 -0.19 0.13 -0.18 0.12 -0.19 0.11 -0.18 0.1 -0.19 0.09 -0.18 0.08 -0.19 0.06 -0.18 0.06 -0.18 0.04 -0.18 0.04 -0.18 0.02 -0.18 0.01 -0.17 0 -0.17 -0.01 -0.17 -0.02 -0.16 -0.04 -0.16 -0.04 -0.15 -0.06 -0.15 -0.07 -0.15 0.3 -0.16 0.08 0.17 0.07 0.18 0.06 0.18 0.04 0.18 0.02 0.19 0.02 0.19 0 0.19 -0.02 0.2 -0.02 0.19 -0.04 0.2 -0.05 0.2 -0.06 0.2 -0.08 0.2 -0.08 0.2 -0.09 0.2 -0.11 0.2 -0.12 0.19 -0.12 0.2 -0.14 0.2 -0.15 0.19 -0.16 0.19 -0.16 0.19 -0.18 0.18 -0.18 0.18 -0.2 0.18 -0.2 0.18 -0.21 0.17 -0.22 0.16 -0.23 0.16 -0.23 0.16 -0.25 0.14 -0.25 0.15 0 0zm-0.35 0.16l0 -0.34 -0.07 0.02 0 -0.01 0.01 0 0.01 -0.01 0.01 0 0 0 0.02 -0.01 0 0 0 0 0.02 -0.01 0.01 -0.01 0 0 0.02 -0.01 0.01 0 0 0 0.01 -0.01 0.01 0 0 0 0.01 -0.01 0.01 0 0.01 -0.01 0.01 -0.01 0.01 0 0.01 0 0 -0.01 0.01 0 0.01 -0.01 0.01 0 0 0 0.01 -0.01 0.01 0 0.01 -0.01 0.01 0 0.16 0.3 0 0 -0.01 0.01 -0.01 0 -0.01 0 -0.01 0.01 -0.01 0.01 0 0 -0.01 0 -0.01 0.01 -0.01 0 -0.01 0.01 -0.01 0 0 0 -0.01 0.01 -0.01 0 -0.02 0.01 0 0.01 0 0 -0.02 0.01 -0.01 0 0 0 -0.02 0.01 0 0 0 0 -0.02 0.01 -0.01 0.01 0 0 -0.02 0.01 -0.01 0 0 0 -0.01 0.01 -0.01 0 -0.08 0.02zm0.08 -0.02l-0.04 0.02 -0.04 0 0.08 -0.02zm-5.93 -0.32l5.85 0 0 0.34 -5.85 0 -0.13 -0.05 0.13 -0.29zm0 0.34l-0.08 0 -0.05 -0.05 0.13 0.05zm-0.52 -0.58l0.3 -0.16 0 0 0.01 0.01 0.01 0.02 0.01 0.02 0 0.01 0.01 0.01 0.01 0.02 0.01 0.01 0.01 0.02 0.01 0.01 0.01 0.02 0.01 0.01 0.02 0.02 0.01 0.02 0 0.01 0.01 0.01 0.02 0.02 0 0.01 0.01 0.01 0.02 0.02 0.01 0.01 0.01 0.01 0.01 0.02 0.01 0.01 0.01 0.01 0.01 0.02 0.01 0.01 0.02 0.02 0.01 0.01 0.01 0.01 0.01 0.01 0.02 0.02 0.01 0.01 -0.25 0.24 -0.01 -0.02 -0.01 -0.01 -0.02 -0.01 -0.02 -0.02 -0.01 -0.02 -0.01 -0.01 -0.01 -0.01 -0.02 -0.02 -0.01 -0.02 -0.01 -0.01 -0.02 -0.02 -0.01 -0.01 -0.01 -0.02 -0.02 -0.01 -0.01 -0.02 -0.01 -0.02 -0.01 -0.01 -0.01 -0.02 -0.02 -0.02 -0.01 -0.02 -0.01 -0.01 -0.01 -0.02 -0.01 -0.02 -0.01 -0.01 -0.01 -0.02 -0.02 -0.02 -0.01 -0.01 -0.01 -0.02 -0.01 -0.02 -0.01 -0.02 -0.01 -0.02 -0.01 -0.02 0 0zm2.99 -6.41l0.17 0.3 0 0 -0.24 0.14 -0.23 0.15 -0.23 0.15 -0.21 0.17 -0.2 0.16 -0.2 0.18 -0.19 0.18 -0.17 0.19 -0.17 0.19 -0.16 0.2 -0.14 0.2 -0.14 0.2 -0.13 0.2 -0.12 0.21 -0.11 0.21 -0.1 0.21 -0.08 0.21 -0.08 0.21 -0.07 0.21 -0.05 0.21 -0.05 0.2 -0.04 0.2 -0.02 0.2 -0.01 0.2 -0.01 0.19 0.01 0.19 0.02 0.18 0.03 0.18 0.04 0.16 0.05 0.17 0.07 0.15 0.07 0.15 -0.3 0.16 -0.09 -0.17 -0.07 -0.18 -0.06 -0.18 -0.05 -0.2 -0.03 -0.19 -0.02 -0.21 -0.01 -0.2 0 -0.22 0.02 -0.21 0.02 -0.22 0.04 -0.22 0.05 -0.22 0.06 -0.22 0.07 -0.22 0.09 -0.23 0.09 -0.22 0.1 -0.22 0.12 -0.22 0.12 -0.22 0.14 -0.22 0.15 -0.21 0.15 -0.21 0.17 -0.21 0.17 -0.2 0.19 -0.2 0.2 -0.19 0.2 -0.19 0.22 -0.17 0.22 -0.18 0.23 -0.16 0.25 -0.15 0.25 -0.15 0 0zm5.86 0.14l0.34 0 -0.27 0.14 -0.12 -0.08 -0.13 -0.08 -0.14 -0.08 -0.14 -0.07 -0.15 -0.07 -0.15 -0.06 -0.16 -0.06 -0.16 -0.05 -0.17 -0.05 -0.17 -0.04 -0.17 -0.03 -0.18 -0.03 -0.18 -0.03 -0.19 -0.02 -0.19 -0.01 -0.19 -0.01 -0.19 0 -0.19 0 -0.2 0.02 -0.2 0.02 -0.2 0.02 -0.2 0.03 -0.2 0.04 -0.2 0.04 -0.2 0.05 -0.2 0.06 -0.2 0.07 -0.2 0.07 -0.2 0.08 -0.2 0.09 -0.2 0.1 -0.19 0.1 -0.17 -0.3 0.21 -0.11 0.2 -0.1 0.21 -0.09 0.21 -0.09 0.22 -0.08 0.21 -0.06 0.21 -0.07 0.21 -0.05 0.21 -0.05 0.21 -0.04 0.22 -0.03 0.21 -0.03 0.2 -0.02 0.21 -0.01 0.21 0 0.2 0 0.2 0.01 0.2 0.01 0.2 0.02 0.19 0.03 0.19 0.03 0.19 0.04 0.18 0.04 0.18 0.05 0.17 0.06 0.17 0.06 0.17 0.07 0.16 0.07 0.15 0.08 0.15 0.08 0.14 0.09 0.14 0.09 -0.27 0.14zm0.34 0l0 0.33 -0.27 -0.19 0.27 -0.14zm0 -16.73l0 16.73 -0.34 0 0 -16.73 0.24 -0.15 0.1 0.15zm-0.1 -0.15l0.1 0.04 0 0.11 -0.1 -0.15zm-16.94 -7.04l16.94 7.04 -0.13 0.31 -16.94 -7.03 -0.1 -0.16 0.23 -0.16zm-0.23 0.16l0 -0.26 0.23 0.1 -0.23 0.16zm0 17.48l0 -17.48 0.34 0 0 17.48 0 0 -0.34 0zm0.33 0.29l-0.31 0.16 -0.02 -0.07 0 -0.02 0 -0.02 0 -0.02 0 -0.01 0 -0.01 0 -0.02 0 -0.02 0 -0.02 0 0 0 -0.02 0 -0.02 0 -0.01 0 -0.01 0 -0.01 0 -0.02 0 -0.01 0 -0.01 0 -0.01 0 -0.02 0 -0.01 0 -0.01 0 -0.01 0 -0.01 0 0 0 0 0 -0.02 0 -0.01 0 -0.01 0 0 0 -0.01 0 -0.01 0 0 0.34 0 0 0 0 0.01 0 0.01 0 0 0 0.01 0 0.01 0 -0.01 0 0.01 0 0.02 0 0.01 0 0.01 0 0.01 0 0.01 0 0 0 0.02 0 0.02 0 0.01 0 0 0 0.02 0 0.02 0 0.01 0 0.01 0 0.01 0 0.02 0 0.02 0 0.01 0 0.01 0 0.03 0 0.01 0 0.01 0.01 0.02 0 0.02 -0.02 -0.08zm-0.31 0.16l-0.02 -0.03 0 -0.04 0.02 0.07zm-2.95 5.73l-0.16 -0.3 0 0 0.24 -0.14 0.23 -0.15 0.23 -0.14 0.22 -0.16 0.21 -0.16 0.2 -0.16 0.19 -0.17 0.19 -0.17 0.17 -0.17 0.17 -0.18 0.16 -0.17 0.15 -0.18 0.14 -0.19 0.13 -0.18 0.12 -0.19 0.11 -0.18 0.1 -0.19 0.09 -0.18 0.07 -0.19 0.07 -0.18 0.06 -0.18 0.04 -0.18 0.04 -0.18 0.02 -0.18 0.01 -0.17 0 -0.17 -0.01 -0.17 -0.02 -0.16 -0.04 -0.16 -0.05 -0.15 -0.05 -0.15 -0.08 -0.15 0.31 -0.16 0.08 0.17 0.07 0.18 0.05 0.18 0.04 0.18 0.03 0.19 0.01 0.19 0 0.19 -0.01 0.2 -0.02 0.19 -0.04 0.2 -0.05 0.2 -0.06 0.2 -0.08 0.2 -0.08 0.2 -0.1 0.2 -0.1 0.2 -0.12 0.19 -0.13 0.2 -0.13 0.2 -0.15 0.19 -0.16 0.19 -0.16 0.19 -0.18 0.18 -0.18 0.18 -0.2 0.18 -0.2 0.18 -0.21 0.17 -0.22 0.16 -0.23 0.16 -0.23 0.16 -0.25 0.14 -0.25 0.15 0 0zm-6.72 -0.42l0.3 -0.16 0 0 0.08 0.14 0.1 0.13 0.1 0.12 0.12 0.12 0.12 0.1 0.14 0.1 0.14 0.1 0.15 0.08 0.16 0.08 0.17 0.06 0.18 0.06 0.18 0.05 0.19 0.04 0.2 0.04 0.21 0.02 0.21 0.02 0.21 0 0.22 0 0.23 -0.01 0.23 -0.02 0.23 -0.03 0.24 -0.04 0.24 -0.04 0.23 -0.06 0.25 -0.07 0.25 -0.07 0.24 -0.08 0.25 -0.1 0.25 -0.1 0.24 -0.11 0.25 -0.12 0.25 -0.13 0.16 0.3 -0.25 0.13 -0.26 0.13 -0.26 0.12 -0.25 0.1 -0.26 0.1 -0.26 0.09 -0.26 0.07 -0.25 0.07 -0.25 0.06 -0.25 0.05 -0.25 0.04 -0.25 0.03 -0.24 0.02 -0.24 0.01 -0.23 0.01 -0.23 -0.01 -0.23 -0.02 -0.22 -0.02 -0.21 -0.04 -0.21 -0.05 -0.2 -0.05 -0.2 -0.06 -0.18 -0.08 -0.18 -0.08 -0.18 -0.1 -0.16 -0.1 -0.15 -0.12 -0.14 -0.12 -0.14 -0.13 -0.12 -0.15 -0.11 -0.15 -0.1 -0.17 0 0zm2.99 -6.41l0.16 0.3 0 0 -0.24 0.14 -0.23 0.15 -0.22 0.15 -0.21 0.16 -0.21 0.17 -0.19 0.18 -0.19 0.18 -0.17 0.19 -0.17 0.19 -0.16 0.2 -0.14 0.2 -0.14 0.2 -0.13 0.2 -0.12 0.21 -0.11 0.21 -0.1 0.21 -0.08 0.21 -0.08 0.21 -0.07 0.21 -0.06 0.2 -0.04 0.21 -0.04 0.2 -0.02 0.2 -0.01 0.2 -0.01 0.19 0.01 0.19 0.02 0.18 0.03 0.18 0.04 0.16 0.05 0.17 0.07 0.15 0.07 0.15 -0.3 0.16 -0.09 -0.17 -0.07 -0.18 -0.06 -0.18 -0.05 -0.2 -0.03 -0.19 -0.02 -0.21 -0.01 -0.2 0 -0.22 0.02 -0.21 0.02 -0.22 0.04 -0.22 0.05 -0.22 0.06 -0.22 0.07 -0.22 0.09 -0.23 0.09 -0.22 0.1 -0.22 0.12 -0.22 0.12 -0.22 0.14 -0.22 0.14 -0.21 0.16 -0.21 0.17 -0.21 0.17 -0.2 0.19 -0.2 0.19 -0.19 0.21 -0.19 0.21 -0.17 0.23 -0.18 0.23 -0.16 0.25 -0.15 0.25 -0.15 0 0zm23.93 -16.83l0 7.03 -0.34 0 0 -7.03 0.23 -0.16 0.11 0.16zm-0.11 -0.16l0.11 0.04 0 0.12 -0.11 -0.16zm-16.93 -6.38l16.93 6.38 -0.12 0.32 -16.93 -6.38 -0.11 -0.16 0.23 -0.16zm-0.23 0.16l0 -0.25 0.23 0.09 -0.23 0.16zm0 2l0 -2 0.34 0 0 2 0 0 -0.34 0zm0 2.57l0 -2.57 0.34 0 0 2.57 -0.24 0.16 -0.1 -0.16zm0.1 0.16l-0.1 -0.04 0 -0.12 0.1 0.16zm16.85 6.76l-16.85 -6.76 0.13 -0.32 16.85 6.76 0.11 0.15 -0.24 0.17zm0.13 -0.32l0.1 0.04 0.01 0.11 -0.11 -0.15zm-0.15 2.25l-0.08 -2.08 0.34 -0.02 0.08 2.09 0 0 -0.34 0.01z"/>
  <path fill="#EAC9CA" d="M67.98 170.25c-6.63,-12.73 -13.26,-25.46 -19.89,-38.2 -14.69,-3.91 -15.26,12.76 -28.35,10.24l2.18 4.18c-1.06,0.09 -2.22,0.02 -3.5,-0.22 6.38,12.24 14.03,24.33 20.41,36.57 22.37,1.21 12.46,-16.6 30.2,-10.19 -0.43,-0.83 -0.88,-1.66 -1.33,-2.48 0.1,0.04 0.19,0.07 0.28,0.1zm-18.93 -39.27c0.09,-1.6 2.74,-2.89 4.42,-2.12l20.95 39.6c0.92,1.73 -4.04,4.49 -5.08,2.05 -0.28,-0.81 -20.29,-39.53 -20.29,-39.53z"/>
  <path fill="#FEFEFE" fill-rule="nonzero" d="M275.84 53.94l-178.2 0 0 -1.52 178.2 0 0 0 0 1.52zm11.54 10.02l-1.52 0 0 0 -0.01 -0.51 -0.04 -0.51 -0.07 -0.5 -0.08 -0.49 -0.12 -0.48 -0.13 -0.48 -0.16 -0.46 -0.18 -0.46 -0.2 -0.44 -0.22 -0.43 -0.24 -0.42 -0.27 -0.41 -0.28 -0.39 -0.3 -0.38 -0.31 -0.37 -0.33 -0.35 -0.35 -0.33 -0.37 -0.31 -0.38 -0.3 -0.39 -0.28 -0.41 -0.27 -0.42 -0.24 -0.43 -0.22 -0.44 -0.2 -0.46 -0.18 -0.46 -0.16 -0.48 -0.13 -0.48 -0.12 -0.49 -0.08 -0.5 -0.07 -0.51 -0.04 -0.51 -0.01 0 -1.52 0.59 0.02 0.58 0.04 0.58 0.08 0.57 0.1 0.55 0.13 0.55 0.16 0.54 0.18 0.52 0.21 0.51 0.23 0.5 0.25 0.48 0.28 0.47 0.3 0.45 0.32 0.44 0.35 0.42 0.36 0.4 0.38 0.38 0.4 0.36 0.42 0.35 0.44 0.32 0.45 0.3 0.47 0.28 0.48 0.25 0.5 0.24 0.51 0.2 0.52 0.18 0.54 0.16 0.55 0.13 0.55 0.1 0.57 0.08 0.58 0.04 0.58 0.02 0.59 0 0zm-1.52 71.98l0 -71.98 1.52 0 0 71.98 0 0 -1.52 0zm-10.02 11.54l0 -1.52 0 0 0.51 -0.01 0.51 -0.04 0.5 -0.06 0.49 -0.09 0.48 -0.12 0.48 -0.13 0.46 -0.16 0.46 -0.18 0.44 -0.2 0.43 -0.22 0.42 -0.24 0.41 -0.27 0.39 -0.28 0.38 -0.3 0.37 -0.31 0.35 -0.33 0.33 -0.35 0.31 -0.37 0.3 -0.38 0.28 -0.39 0.27 -0.41 0.24 -0.42 0.22 -0.43 0.2 -0.44 0.18 -0.46 0.16 -0.46 0.13 -0.48 0.12 -0.48 0.08 -0.49 0.07 -0.5 0.04 -0.51 0.01 -0.51 1.52 0 -0.02 0.59 -0.04 0.58 -0.08 0.58 -0.1 0.57 -0.13 0.55 -0.16 0.55 -0.18 0.54 -0.2 0.52 -0.24 0.51 -0.25 0.5 -0.28 0.48 -0.3 0.47 -0.32 0.45 -0.35 0.44 -0.36 0.42 -0.38 0.4 -0.4 0.38 -0.42 0.36 -0.44 0.35 -0.45 0.32 -0.47 0.3 -0.48 0.28 -0.5 0.25 -0.51 0.24 -0.52 0.2 -0.54 0.19 -0.55 0.15 -0.55 0.13 -0.57 0.1 -0.58 0.08 -0.58 0.04 -0.59 0.02 0 0zm-178.2 -1.52l178.2 0 0 1.52 -178.2 0 0 0 0 -1.52zm-11.54 -10.02l1.52 0 0 0 0.01 0.51 0.04 0.51 0.06 0.5 0.09 0.49 0.12 0.48 0.13 0.48 0.16 0.46 0.18 0.46 0.2 0.44 0.22 0.43 0.24 0.42 0.27 0.41 0.28 0.39 0.3 0.38 0.31 0.37 0.33 0.35 0.35 0.33 0.37 0.32 0.37 0.29 0.4 0.28 0.41 0.27 0.42 0.24 0.43 0.22 0.44 0.2 0.46 0.18 0.46 0.16 0.48 0.13 0.48 0.12 0.49 0.09 0.5 0.06 0.51 0.04 0.51 0.01 0 1.52 -0.59 -0.02 -0.58 -0.04 -0.58 -0.08 -0.57 -0.1 -0.55 -0.13 -0.55 -0.15 -0.54 -0.19 -0.52 -0.2 -0.51 -0.24 -0.5 -0.25 -0.48 -0.28 -0.47 -0.3 -0.45 -0.32 -0.44 -0.35 -0.42 -0.36 -0.4 -0.38 -0.38 -0.4 -0.36 -0.42 -0.35 -0.44 -0.32 -0.45 -0.3 -0.47 -0.28 -0.48 -0.25 -0.5 -0.24 -0.51 -0.2 -0.52 -0.19 -0.54 -0.15 -0.55 -0.13 -0.55 -0.1 -0.57 -0.08 -0.58 -0.04 -0.58 -0.02 -0.59 0 0zm1.52 -71.98l0 71.98 -1.52 0 0 -71.98 0 0 1.52 0zm10.02 -11.54l0 1.52 0 0 -0.51 0.01 -0.51 0.04 -0.5 0.07 -0.49 0.08 -0.48 0.12 -0.48 0.13 -0.46 0.16 -0.46 0.18 -0.44 0.2 -0.43 0.22 -0.42 0.24 -0.41 0.27 -0.39 0.28 -0.38 0.29 -0.37 0.32 -0.35 0.33 -0.33 0.35 -0.31 0.37 -0.3 0.38 -0.28 0.39 -0.27 0.41 -0.24 0.42 -0.22 0.43 -0.2 0.44 -0.18 0.46 -0.16 0.46 -0.13 0.48 -0.12 0.48 -0.09 0.49 -0.06 0.5 -0.04 0.51 -0.01 0.51 -1.52 0 0.02 -0.59 0.04 -0.58 0.08 -0.58 0.1 -0.57 0.13 -0.55 0.15 -0.55 0.19 -0.54 0.2 -0.52 0.24 -0.51 0.25 -0.5 0.28 -0.48 0.3 -0.47 0.32 -0.45 0.35 -0.44 0.36 -0.42 0.38 -0.4 0.4 -0.38 0.42 -0.36 0.44 -0.35 0.45 -0.32 0.47 -0.3 0.48 -0.28 0.5 -0.25 0.51 -0.23 0.52 -0.21 0.54 -0.18 0.55 -0.16 0.55 -0.13 0.57 -0.1 0.58 -0.08 0.58 -0.04 0.59 -0.02 0 0z"/>
</svg>
