<svg xmlns="http://www.w3.org/2000/svg" xml:space="preserve" width="373px" height="200px" version="1.1" style="shape-rendering:geometricPrecision; text-rendering:geometricPrecision; image-rendering:optimizeQuality; fill-rule:evenodd; clip-rule:evenodd" viewBox="0 0 373 200"  xmlns:xlink="http://www.w3.org/1999/xlink">
  <rect fill="#C4D985" width="373" height="199.65" rx="11.21" ry="11.21"/>
  <path fill="#C4D985" d="M11.21 0l350.58 0c6.17,0 11.21,5.04 11.21,11.21l0 177.23c0,6.16 -5.04,11.21 -11.21,11.21l-350.58 0c-6.17,0 -11.21,-5.05 -11.21,-11.21l0 -177.23c0,-6.17 5.04,-11.21 11.21,-11.21zm82.87 53.11l185.69 0c5.93,0 10.77,4.85 10.77,10.77l0 71.88c0,5.93 -4.84,10.77 -10.77,10.77l-185.69 0c-5.92,0 -10.76,-4.84 -10.76,-10.77l0 -71.88c0,-5.92 4.84,-10.77 10.76,-10.77z"/>
  <circle fill="#BDD180" cx="255.73" cy="18.63" r="4.15"/>
  <path fill="#BDD180" d="M16.5 66.8c2.3,0 4.16,1.86 4.16,4.15 0,2.29 -1.86,4.15 -4.16,4.15 -2.29,0 -4.15,-1.86 -4.15,-4.15 0,-2.29 1.86,-4.15 4.15,-4.15z"/>
  <circle fill="#BDD180" cx="354.67" cy="68.52" r="4.15"/>
  <path fill="#BDD180" fill-rule="nonzero" d="M106.02 162.85l-2.42 0 0 0 -0.01 -0.23 -0.01 -0.23 -0.03 -0.23 -0.04 -0.22 -0.05 -0.21 -0.06 -0.21 -0.07 -0.22 -0.08 -0.2 -0.09 -0.19 -0.1 -0.2 -0.11 -0.18 -0.12 -0.19 -0.12 -0.17 -0.13 -0.17 -0.15 -0.17 -0.14 -0.15 -0.16 -0.15 -0.16 -0.14 -0.17 -0.14 -0.18 -0.12 -0.18 -0.12 -0.19 -0.11 -0.19 -0.09 -0.2 -0.1 -0.2 -0.07 -0.21 -0.08 -0.21 -0.06 -0.22 -0.05 -0.22 -0.03 -0.23 -0.03 -0.22 -0.02 -0.24 -0.01 0 -2.42 0.36 0.01 0.35 0.03 0.34 0.04 0.34 0.06 0.34 0.08 0.33 0.09 0.32 0.11 0.31 0.12 0.31 0.14 0.3 0.15 0.29 0.17 0.28 0.18 0.27 0.19 0.26 0.21 0.25 0.21 0.24 0.23 0.23 0.25 0.21 0.24 0.21 0.26 0.19 0.28 0.18 0.28 0.17 0.29 0.15 0.29 0.14 0.31 0.12 0.32 0.11 0.32 0.09 0.32 0.08 0.34 0.06 0.34 0.05 0.34 0.02 0.36 0.01 0.35 0 0zm-6.91 6.91l0 -2.42 0 0 0.24 -0.01 0.22 -0.02 0.23 -0.03 0.22 -0.04 0.22 -0.05 0.21 -0.06 0.21 -0.07 0.2 -0.08 0.2 -0.09 0.19 -0.1 0.19 -0.1 0.18 -0.12 0.18 -0.12 0.17 -0.14 0.16 -0.14 0.16 -0.15 0.14 -0.15 0.15 -0.17 0.13 -0.17 0.12 -0.17 0.12 -0.19 0.11 -0.18 0.1 -0.2 0.09 -0.19 0.08 -0.21 0.07 -0.21 0.06 -0.21 0.05 -0.21 0.04 -0.22 0.03 -0.23 0.01 -0.23 0.01 -0.23 2.42 0 -0.01 0.35 -0.02 0.36 -0.05 0.34 -0.06 0.34 -0.08 0.34 -0.09 0.32 -0.11 0.32 -0.12 0.32 -0.14 0.3 -0.15 0.3 -0.17 0.29 -0.18 0.28 -0.19 0.27 -0.21 0.26 -0.21 0.25 -0.23 0.24 -0.24 0.23 -0.25 0.22 -0.26 0.2 -0.27 0.2 -0.28 0.18 -0.29 0.17 -0.3 0.15 -0.31 0.13 -0.31 0.13 -0.32 0.11 -0.33 0.09 -0.34 0.08 -0.34 0.06 -0.34 0.04 -0.35 0.03 -0.36 0.01 0 0zm-6.9 -6.91l2.42 0 0 0 0 0.23 0.02 0.23 0.03 0.23 0.04 0.22 0.05 0.21 0.06 0.21 0.07 0.21 0.08 0.21 0.09 0.19 0.1 0.2 0.11 0.18 0.11 0.19 0.13 0.17 0.13 0.17 0.14 0.17 0.15 0.15 0.16 0.15 0.16 0.14 0.17 0.14 0.18 0.12 0.18 0.12 0.18 0.1 0.2 0.1 0.2 0.09 0.2 0.08 0.21 0.07 0.21 0.06 0.22 0.05 0.22 0.04 0.23 0.03 0.22 0.02 0.23 0.01 0 2.42 -0.35 -0.01 -0.35 -0.03 -0.35 -0.04 -0.34 -0.06 -0.33 -0.08 -0.33 -0.09 -0.32 -0.11 -0.32 -0.13 -0.3 -0.13 -0.3 -0.15 -0.29 -0.17 -0.28 -0.18 -0.27 -0.2 -0.26 -0.2 -0.25 -0.22 -0.24 -0.23 -0.23 -0.24 -0.22 -0.25 -0.2 -0.26 -0.19 -0.27 -0.18 -0.28 -0.17 -0.29 -0.15 -0.3 -0.14 -0.3 -0.13 -0.32 -0.1 -0.32 -0.1 -0.32 -0.08 -0.34 -0.06 -0.34 -0.04 -0.34 -0.03 -0.36 0 -0.35 0 0zm6.9 -6.91l0 2.42 0 0 -0.23 0.01 -0.22 0.02 -0.23 0.03 -0.22 0.03 -0.22 0.05 -0.21 0.06 -0.21 0.08 -0.2 0.07 -0.2 0.1 -0.2 0.09 -0.18 0.11 -0.18 0.12 -0.18 0.12 -0.17 0.14 -0.16 0.14 -0.16 0.15 -0.15 0.15 -0.14 0.17 -0.13 0.17 -0.13 0.17 -0.11 0.19 -0.11 0.18 -0.1 0.2 -0.09 0.19 -0.08 0.2 -0.07 0.22 -0.06 0.21 -0.05 0.21 -0.04 0.22 -0.03 0.23 -0.02 0.23 0 0.23 -2.42 0 0 -0.35 0.03 -0.36 0.04 -0.34 0.06 -0.34 0.08 -0.34 0.1 -0.32 0.1 -0.32 0.13 -0.32 0.14 -0.31 0.15 -0.29 0.17 -0.29 0.18 -0.28 0.19 -0.28 0.2 -0.26 0.22 -0.24 0.23 -0.25 0.24 -0.23 0.25 -0.21 0.26 -0.21 0.27 -0.19 0.28 -0.18 0.29 -0.17 0.3 -0.15 0.3 -0.14 0.32 -0.12 0.32 -0.11 0.33 -0.09 0.33 -0.08 0.34 -0.06 0.35 -0.04 0.35 -0.03 0.35 -0.01 0 0z"/>
  <path fill="#BDD180" fill-rule="nonzero" d="M319.46 94.08l-2.42 0 0 0 0 -0.23 -0.02 -0.22 -0.03 -0.23 -0.04 -0.22 -0.05 -0.22 -0.06 -0.21 -0.07 -0.21 -0.08 -0.2 -0.09 -0.2 -0.1 -0.2 -0.11 -0.18 -0.11 -0.18 -0.13 -0.18 -0.13 -0.17 -0.15 -0.16 -0.14 -0.16 -0.16 -0.15 -0.16 -0.14 -0.17 -0.13 -0.18 -0.13 -0.18 -0.12 -0.19 -0.1 -0.19 -0.1 -0.2 -0.09 -0.2 -0.08 -0.21 -0.07 -0.21 -0.06 -0.22 -0.05 -0.22 -0.04 -0.23 -0.03 -0.22 -0.02 -0.23 0 0 -2.43 0.35 0.01 0.35 0.03 0.35 0.04 0.34 0.06 0.33 0.08 0.33 0.1 0.32 0.1 0.31 0.13 0.31 0.14 0.3 0.15 0.29 0.17 0.28 0.17 0.27 0.2 0.26 0.2 0.25 0.22 0.24 0.23 0.23 0.24 0.21 0.25 0.21 0.26 0.19 0.27 0.18 0.28 0.17 0.29 0.15 0.3 0.14 0.3 0.12 0.32 0.11 0.32 0.1 0.33 0.07 0.33 0.06 0.34 0.05 0.35 0.02 0.35 0.01 0.35 0 0zm-6.9 6.91l0 -2.42 0 0 0.23 -0.01 0.22 -0.01 0.23 -0.03 0.22 -0.04 0.22 -0.05 0.21 -0.06 0.21 -0.07 0.2 -0.08 0.2 -0.09 0.19 -0.1 0.19 -0.11 0.18 -0.12 0.18 -0.12 0.17 -0.13 0.16 -0.15 0.16 -0.14 0.14 -0.16 0.15 -0.16 0.13 -0.17 0.13 -0.18 0.11 -0.18 0.11 -0.19 0.1 -0.19 0.09 -0.2 0.08 -0.2 0.07 -0.21 0.06 -0.21 0.05 -0.22 0.04 -0.22 0.03 -0.23 0.02 -0.23 0 -0.23 2.42 0 -0.01 0.36 -0.02 0.35 -0.05 0.34 -0.06 0.34 -0.07 0.34 -0.1 0.33 -0.11 0.32 -0.12 0.31 -0.14 0.31 -0.15 0.3 -0.17 0.29 -0.18 0.28 -0.19 0.27 -0.21 0.26 -0.21 0.25 -0.23 0.24 -0.24 0.23 -0.25 0.21 -0.26 0.21 -0.27 0.19 -0.28 0.18 -0.29 0.17 -0.3 0.15 -0.31 0.14 -0.31 0.12 -0.32 0.11 -0.33 0.09 -0.33 0.08 -0.34 0.06 -0.35 0.05 -0.35 0.02 -0.35 0.01 0 0zm-6.91 -6.91l2.42 0 0 0 0 0.23 0.02 0.23 0.03 0.23 0.04 0.22 0.05 0.22 0.06 0.21 0.07 0.21 0.08 0.2 0.09 0.2 0.1 0.19 0.11 0.19 0.12 0.18 0.12 0.18 0.13 0.17 0.14 0.16 0.15 0.16 0.16 0.14 0.16 0.15 0.17 0.13 0.18 0.12 0.18 0.12 0.19 0.11 0.19 0.1 0.2 0.09 0.2 0.08 0.21 0.07 0.21 0.06 0.22 0.05 0.22 0.04 0.23 0.03 0.22 0.01 0.24 0.01 0 2.42 -0.36 -0.01 -0.35 -0.02 -0.34 -0.05 -0.34 -0.06 -0.34 -0.08 -0.33 -0.09 -0.32 -0.11 -0.31 -0.12 -0.31 -0.14 -0.3 -0.15 -0.29 -0.17 -0.28 -0.18 -0.27 -0.19 -0.26 -0.21 -0.25 -0.21 -0.24 -0.23 -0.23 -0.24 -0.21 -0.25 -0.21 -0.26 -0.19 -0.27 -0.18 -0.28 -0.17 -0.29 -0.15 -0.3 -0.14 -0.31 -0.12 -0.31 -0.11 -0.32 -0.1 -0.33 -0.07 -0.34 -0.06 -0.34 -0.05 -0.34 -0.02 -0.35 -0.01 -0.36 0 0zm6.91 -6.91l0 2.43 0 0 -0.24 0 -0.22 0.02 -0.23 0.03 -0.22 0.04 -0.22 0.05 -0.21 0.06 -0.21 0.07 -0.2 0.08 -0.2 0.09 -0.19 0.1 -0.19 0.1 -0.18 0.12 -0.18 0.13 -0.17 0.13 -0.16 0.14 -0.16 0.15 -0.15 0.16 -0.14 0.16 -0.13 0.17 -0.12 0.18 -0.12 0.18 -0.11 0.18 -0.1 0.2 -0.09 0.2 -0.08 0.2 -0.07 0.21 -0.06 0.21 -0.05 0.22 -0.04 0.22 -0.03 0.23 -0.02 0.22 0 0.23 -2.42 0 0.01 -0.35 0.02 -0.35 0.05 -0.35 0.06 -0.34 0.07 -0.33 0.1 -0.33 0.11 -0.32 0.12 -0.32 0.14 -0.3 0.15 -0.3 0.17 -0.29 0.18 -0.28 0.19 -0.27 0.21 -0.26 0.21 -0.25 0.23 -0.24 0.24 -0.23 0.25 -0.22 0.26 -0.2 0.27 -0.2 0.28 -0.17 0.29 -0.17 0.3 -0.15 0.31 -0.14 0.31 -0.13 0.32 -0.1 0.33 -0.1 0.34 -0.08 0.34 -0.06 0.34 -0.04 0.35 -0.03 0.36 -0.01 0 0z"/>
  <path fill="#BDD180" fill-rule="nonzero" d="M101.2 21.04l-2.42 0 0 0 0 -0.23 -0.02 -0.23 -0.03 -0.23 -0.04 -0.22 -0.05 -0.21 -0.06 -0.22 -0.07 -0.2 -0.08 -0.21 -0.09 -0.2 -0.1 -0.19 -0.11 -0.19 -0.11 -0.18 -0.13 -0.17 -0.13 -0.17 -0.15 -0.17 -0.14 -0.15 -0.16 -0.15 -0.16 -0.15 -0.17 -0.13 -0.18 -0.12 -0.18 -0.12 -0.19 -0.11 -0.19 -0.1 -0.2 -0.09 -0.2 -0.08 -0.21 -0.07 -0.21 -0.06 -0.22 -0.05 -0.22 -0.03 -0.23 -0.03 -0.22 -0.02 -0.24 -0.01 0 -2.42 0.36 0.01 0.35 0.03 0.34 0.04 0.34 0.06 0.34 0.08 0.33 0.09 0.32 0.11 0.32 0.12 0.3 0.14 0.3 0.15 0.29 0.17 0.28 0.18 0.27 0.19 0.26 0.21 0.25 0.21 0.24 0.23 0.23 0.24 0.21 0.25 0.21 0.26 0.19 0.27 0.18 0.28 0.17 0.3 0.15 0.29 0.14 0.31 0.12 0.31 0.11 0.32 0.1 0.33 0.07 0.34 0.06 0.34 0.05 0.34 0.02 0.35 0.01 0.36 0 0zm-6.91 6.91l0 -2.43 0 0 0.24 0 0.22 -0.02 0.23 -0.03 0.22 -0.04 0.22 -0.05 0.21 -0.06 0.21 -0.07 0.2 -0.08 0.2 -0.09 0.19 -0.1 0.19 -0.1 0.18 -0.12 0.18 -0.13 0.17 -0.13 0.16 -0.14 0.16 -0.15 0.15 -0.16 0.14 -0.16 0.13 -0.17 0.13 -0.17 0.11 -0.19 0.11 -0.18 0.1 -0.2 0.09 -0.2 0.08 -0.2 0.07 -0.21 0.06 -0.21 0.05 -0.22 0.04 -0.22 0.03 -0.22 0.02 -0.23 0 -0.23 2.42 0 -0.01 0.35 -0.02 0.35 -0.05 0.35 -0.06 0.34 -0.07 0.33 -0.1 0.33 -0.11 0.32 -0.12 0.32 -0.14 0.3 -0.15 0.3 -0.17 0.29 -0.18 0.28 -0.19 0.27 -0.21 0.26 -0.21 0.25 -0.23 0.24 -0.24 0.23 -0.25 0.22 -0.26 0.2 -0.27 0.2 -0.28 0.18 -0.29 0.16 -0.3 0.15 -0.3 0.14 -0.32 0.13 -0.32 0.11 -0.33 0.09 -0.34 0.08 -0.34 0.06 -0.34 0.04 -0.35 0.03 -0.36 0.01 0 0zm-6.9 -6.91l2.42 0 0 0 0 0.23 0.02 0.23 0.03 0.22 0.04 0.22 0.05 0.22 0.06 0.21 0.07 0.21 0.08 0.2 0.09 0.2 0.1 0.2 0.1 0.18 0.12 0.19 0.13 0.17 0.13 0.17 0.14 0.16 0.15 0.16 0.16 0.15 0.16 0.14 0.17 0.13 0.18 0.13 0.18 0.12 0.19 0.1 0.19 0.1 0.2 0.09 0.2 0.08 0.21 0.07 0.21 0.06 0.22 0.05 0.22 0.04 0.23 0.03 0.22 0.02 0.23 0 0 2.43 -0.35 -0.01 -0.35 -0.03 -0.35 -0.04 -0.34 -0.06 -0.33 -0.08 -0.33 -0.09 -0.32 -0.11 -0.32 -0.13 -0.3 -0.14 -0.3 -0.15 -0.29 -0.16 -0.28 -0.18 -0.27 -0.2 -0.26 -0.2 -0.25 -0.22 -0.24 -0.23 -0.23 -0.24 -0.21 -0.25 -0.21 -0.26 -0.19 -0.27 -0.18 -0.28 -0.17 -0.29 -0.15 -0.3 -0.14 -0.3 -0.12 -0.32 -0.11 -0.32 -0.1 -0.33 -0.07 -0.33 -0.06 -0.34 -0.05 -0.35 -0.03 -0.35 0 -0.35 0 0zm6.9 -6.91l0 2.42 0 0 -0.23 0.01 -0.22 0.02 -0.23 0.03 -0.22 0.03 -0.22 0.05 -0.21 0.06 -0.21 0.07 -0.2 0.08 -0.2 0.09 -0.19 0.1 -0.19 0.11 -0.18 0.12 -0.18 0.12 -0.17 0.13 -0.16 0.15 -0.16 0.15 -0.15 0.15 -0.14 0.17 -0.13 0.17 -0.13 0.17 -0.11 0.18 -0.11 0.19 -0.1 0.19 -0.09 0.2 -0.08 0.21 -0.07 0.2 -0.06 0.22 -0.05 0.21 -0.04 0.22 -0.03 0.23 -0.02 0.23 0 0.23 -2.42 0 0 -0.36 0.03 -0.35 0.05 -0.34 0.06 -0.34 0.07 -0.34 0.1 -0.33 0.11 -0.32 0.12 -0.31 0.14 -0.31 0.15 -0.29 0.17 -0.3 0.18 -0.28 0.19 -0.27 0.21 -0.26 0.21 -0.25 0.23 -0.24 0.24 -0.23 0.25 -0.21 0.26 -0.21 0.27 -0.19 0.28 -0.18 0.29 -0.17 0.3 -0.15 0.3 -0.14 0.32 -0.12 0.32 -0.11 0.33 -0.09 0.33 -0.08 0.34 -0.06 0.35 -0.04 0.35 -0.03 0.35 -0.01 0 0z"/>
  <path fill="#BDD180" d="M281.55 6.89c9.82,13.1 25.81,1.6 40.92,17.9 -0.04,0.25 -0.09,0.51 -0.14,0.78 0.14,-0.25 0.28,-0.49 0.41,-0.71 21.1,-7.02 29.58,10.76 44.49,4.01 -3.39,6.42 -7.21,11.1 -11.26,14.4l-18.97 39.98 0 0c0.82,0.39 1.17,1.38 0.78,2.21l-5.84 12.32c-0.39,0.82 -1.39,1.17 -2.21,0.79l0 -0.01 -1.12 -0.53 0 0c-0.82,-0.39 -1.17,-1.38 -0.78,-2.2l5.85 -12.32c0.38,-0.82 1.37,-1.18 2.2,-0.79l0 0 17.96 -37.85c-8.56,5.89 -17.91,6.13 -26.1,3.97 -3.97,-1.04 -9.41,7.48 -12.61,5.69l0 0c-2.81,-0.81 -3.63,-10.06 -6.89,-10.73 -13.43,-2.78 -27.11,-12.29 -26.69,-36.91zm69.9 29c-9.69,7.93 -22.79,6.48 -23.44,1.13 2.62,-11.14 14.65,0.43 23.44,-1.13zm-57.11 -14.75c4.68,11.62 16.86,16.66 20,12.28 3.06,-11.03 -13.05,-6.68 -20,-12.28zm-6.99 -6.08c-0.85,-0.21 -1.72,0.33 -1.95,1.21 -0.23,0.89 0.28,1.78 1.12,2 0.85,0.22 1.72,-0.33 1.95,-1.21 0.23,-0.88 -0.28,-1.78 -1.12,-2z"/>
  <path fill="#BDD180" fill-rule="nonzero" d="M48.77 118.26l-2.43 0 0 0 0 -0.23 -0.02 -0.23 -0.03 -0.23 -0.04 -0.22 -0.05 -0.21 -0.06 -0.22 -0.07 -0.2 -0.08 -0.21 -0.09 -0.2 -0.1 -0.19 -0.1 -0.19 -0.12 -0.18 -0.13 -0.18 -0.13 -0.16 -0.14 -0.17 -0.15 -0.15 -0.16 -0.15 -0.16 -0.14 -0.17 -0.14 -0.18 -0.12 -0.18 -0.12 -0.18 -0.11 -0.2 -0.09 -0.2 -0.1 -0.2 -0.07 -0.21 -0.08 -0.21 -0.06 -0.22 -0.05 -0.22 -0.03 -0.22 -0.03 -0.23 -0.02 -0.23 -0.01 0 -2.42 0.35 0.01 0.35 0.03 0.35 0.04 0.34 0.06 0.33 0.08 0.33 0.09 0.32 0.11 0.32 0.12 0.3 0.14 0.3 0.15 0.29 0.17 0.28 0.18 0.27 0.19 0.26 0.21 0.25 0.22 0.24 0.22 0.23 0.24 0.22 0.25 0.2 0.26 0.2 0.28 0.17 0.27 0.17 0.3 0.15 0.29 0.14 0.31 0.13 0.31 0.1 0.32 0.1 0.33 0.08 0.34 0.06 0.34 0.04 0.34 0.03 0.35 0.01 0.36 0 0zm-6.91 6.91l0 -2.42 0 0 0.23 -0.01 0.23 -0.02 0.22 -0.03 0.22 -0.04 0.22 -0.05 0.21 -0.06 0.21 -0.07 0.2 -0.08 0.2 -0.09 0.2 -0.1 0.18 -0.1 0.18 -0.12 0.18 -0.13 0.17 -0.13 0.16 -0.14 0.16 -0.15 0.15 -0.15 0.14 -0.17 0.13 -0.17 0.13 -0.17 0.12 -0.19 0.1 -0.18 0.1 -0.2 0.09 -0.2 0.08 -0.2 0.07 -0.21 0.06 -0.21 0.05 -0.21 0.04 -0.22 0.03 -0.23 0.02 -0.23 0 -0.23 2.43 0 -0.01 0.35 -0.03 0.36 -0.04 0.34 -0.06 0.34 -0.08 0.33 -0.1 0.33 -0.1 0.32 -0.13 0.32 -0.14 0.3 -0.15 0.3 -0.16 0.29 -0.18 0.28 -0.2 0.27 -0.2 0.26 -0.22 0.25 -0.23 0.25 -0.24 0.22 -0.25 0.22 -0.26 0.21 -0.27 0.19 -0.28 0.18 -0.29 0.16 -0.3 0.15 -0.3 0.14 -0.32 0.13 -0.32 0.11 -0.33 0.09 -0.33 0.08 -0.34 0.06 -0.35 0.04 -0.35 0.03 -0.35 0.01 0 0zm-6.91 -6.91l2.42 0 0 0 0.01 0.23 0.01 0.23 0.03 0.23 0.04 0.22 0.05 0.21 0.06 0.21 0.07 0.21 0.08 0.2 0.09 0.2 0.1 0.2 0.11 0.18 0.12 0.19 0.12 0.17 0.13 0.17 0.15 0.17 0.14 0.15 0.16 0.15 0.16 0.14 0.17 0.13 0.18 0.13 0.18 0.12 0.19 0.1 0.19 0.1 0.2 0.09 0.2 0.08 0.21 0.07 0.22 0.06 0.21 0.05 0.22 0.04 0.23 0.03 0.23 0.02 0.23 0.01 0 2.42 -0.36 -0.01 -0.35 -0.03 -0.34 -0.04 -0.34 -0.06 -0.34 -0.08 -0.33 -0.09 -0.32 -0.11 -0.31 -0.13 -0.31 -0.14 -0.29 -0.15 -0.3 -0.16 -0.28 -0.18 -0.27 -0.19 -0.26 -0.21 -0.25 -0.22 -0.24 -0.22 -0.23 -0.25 -0.21 -0.25 -0.21 -0.26 -0.19 -0.27 -0.18 -0.28 -0.17 -0.29 -0.15 -0.3 -0.14 -0.3 -0.12 -0.32 -0.11 -0.32 -0.09 -0.33 -0.08 -0.33 -0.06 -0.34 -0.05 -0.34 -0.02 -0.36 -0.01 -0.35 0 0zm6.91 -6.91l0 2.42 0 0 -0.23 0.01 -0.23 0.02 -0.23 0.03 -0.22 0.03 -0.21 0.05 -0.22 0.06 -0.21 0.08 -0.2 0.07 -0.2 0.1 -0.19 0.09 -0.19 0.11 -0.18 0.12 -0.18 0.12 -0.17 0.14 -0.16 0.14 -0.16 0.15 -0.14 0.15 -0.15 0.17 -0.13 0.16 -0.12 0.18 -0.12 0.18 -0.11 0.19 -0.1 0.19 -0.09 0.2 -0.08 0.21 -0.07 0.2 -0.06 0.22 -0.05 0.21 -0.04 0.22 -0.03 0.23 -0.01 0.23 -0.01 0.23 -2.42 0 0.01 -0.36 0.02 -0.35 0.05 -0.34 0.06 -0.34 0.08 -0.34 0.09 -0.33 0.11 -0.32 0.12 -0.31 0.14 -0.31 0.15 -0.29 0.17 -0.3 0.18 -0.27 0.19 -0.28 0.21 -0.26 0.21 -0.25 0.23 -0.24 0.24 -0.22 0.25 -0.22 0.26 -0.21 0.27 -0.19 0.28 -0.18 0.3 -0.17 0.29 -0.15 0.31 -0.14 0.31 -0.12 0.32 -0.11 0.33 -0.09 0.34 -0.08 0.34 -0.06 0.34 -0.04 0.35 -0.03 0.36 -0.01 0 0z"/>
  <path fill="#BDD180" d="M62.64 83.26c2.3,0 4.16,1.86 4.16,4.15 0,2.29 -1.86,4.15 -4.16,4.15 -2.29,0 -4.15,-1.86 -4.15,-4.15 0,-2.29 1.86,-4.15 4.15,-4.15z"/>
  <circle fill="#BDD180" cx="122.18" cy="185.22" r="4.15"/>
  <path fill="#BDD180" fill-rule="nonzero" d="M274.18 41.38c1.9,0 3.63,0.77 4.88,2.02 1.25,1.25 2.02,2.98 2.02,4.89 0,1.9 -0.77,3.63 -2.02,4.88 -0.14,0.14 -0.29,0.28 -0.45,0.41 -0.99,-0.3 -2.04,-0.47 -3.13,-0.47l-6.25 0c-1.21,-1.24 -1.96,-2.95 -1.96,-4.82 0,-1.91 0.77,-3.64 2.02,-4.89 1.25,-1.25 2.98,-2.02 4.89,-2.02zm3.17 3.73c-0.81,-0.81 -1.94,-1.31 -3.17,-1.31 -1.24,0 -2.37,0.5 -3.18,1.31 -0.81,0.81 -1.31,1.94 -1.31,3.18 0,1.23 0.5,2.36 1.31,3.17 0.81,0.81 1.94,1.31 3.18,1.31 1.23,0 2.36,-0.5 3.17,-1.31 0.81,-0.81 1.31,-1.94 1.31,-3.17 0,-1.24 -0.5,-2.37 -1.31,-3.18z"/>
  <path fill="#BDD180" d="M22.31 171.72c-2.88,-1.69 0.79,-5.83 4.1,-6.61 1.57,-0.37 2.24,-1.8 4.51,-0.95 1.35,0.23 2.73,0.48 4.16,0.76 -1.24,-0.28 -2.4,-0.52 -3.45,-0.7 8.19,-6.87 17.01,-10.25 26.79,-8.81 1.32,0.2 4.93,0.91 3.66,0.33 -7.53,-3.44 -17.08,-0.41 -18.54,0.08 -10.07,-3.98 -29.1,1.53 -29.59,-12.27 -2.2,-1.01 -3.83,-3.17 -4.1,-5.81 -0.39,-3.91 2.36,-7.39 6.15,-7.77 3.8,-0.39 7.19,2.47 7.59,6.38 0.29,2.89 -1.13,5.54 -3.42,6.88 3.12,4.98 15.04,2.34 24.47,0.69 0,0 17.36,-6.14 27.19,10.78 0.04,2.96 0.04,7.05 -1.01,8.14 2.3,3.28 1.67,14.44 0.26,20.55 1.13,2.21 1.88,4.65 2.11,6.85 0.71,6.62 -3.37,11.64 -9.54,-0.05 -6.05,-5.09 -15.31,-11.67 -25.2,-14.25 -8.78,-2.25 -13.08,0.98 -16.14,-4.22z"/>
  <path fill="#BDD180" d="M71.8 58.35c1.04,2.84 -0.44,6.01 -3.29,7.05l-10.84 3.93 0.09 0.24 -4.1 1.49 -0.1 -0.23 -12.69 4.6c-2.84,1.04 -6.01,-0.45 -7.05,-3.29l-4.17 -11.49 -0.24 0.09 -1.56 -4.31 0.23 -0.09 -4.29 -11.83c-0.96,-2.62 0.23,-5.52 2.64,-6.77 -0.28,0.03 -0.56,0.06 -0.85,0.09 -4.9,0.4 -9.5,-1.64 -9.5,-1.64l4.45 -5.34c0,0 3.52,2.9 9.53,2.61 4,-0.19 6.99,-1.32 8.65,-2.12l-0.03 -0.03c-0.02,-0.02 -0.03,-0.04 -0.05,-0.07 -12.05,1.58 -24.25,-3.11 -17.99,-12.96 5.89,-9.26 14.92,-0.96 18.37,8.09 -0.67,-9.74 4.2,-21.29 13.45,-15.17 9.44,6.24 1.02,14.43 -9.76,19.07 -0.01,0.08 -0.03,0.17 -0.05,0.25 1.74,-0.28 4.81,-0.94 7.71,-2.43 4.83,-2.48 7.2,-7.19 7.2,-7.19l5.26 3.09c0,0 -1.38,1.88 -3.72,3.7 1.2,0.62 2.18,1.66 2.67,3.02l3.99 11 0.24 -0.09 1.87 5.15 -0.24 0.09 4.17 11.49zm-35.93 -24.09l2.39 -0.87 -0.1 -0.23 3.05 -1.11c-0.72,0.25 -1.53,0.13 -2.14,-0.35 -0.71,0.7 -1.79,1.63 -3.2,2.56zm5.38 -2.23l2.54 -0.92 0.09 0.24 0.78 -0.28c-0.84,-0.06 -1.58,-0.13 -2.14,-0.2 -0.15,0.31 -0.37,0.59 -0.65,0.82 -0.19,0.15 -0.4,0.26 -0.62,0.34zm-2.84 -1.16c-6.42,-0.72 -14.45,-2.03 -10.87,-8.31 3.36,-5.86 8.77,-0.15 11.56,5.53l-0.04 0.04c-0.85,0.66 -1.09,1.81 -0.65,2.74zm1.19 -3.06c0.21,-6.36 2.81,-13.91 8.3,-9.89 5.51,4.03 0.09,8.58 -5.17,11.88 -0.03,-0.46 -0.19,-0.91 -0.49,-1.3 -0.64,-0.81 -1.72,-1.07 -2.64,-0.69z"/>
  <path fill="#BDD180" fill-rule="nonzero" d="M282.08 161.28c3.35,-5.04 10.99,-5.96 15.88,-4.26 0.91,-2 1.84,-3.8 2.1,-4.37 0.42,-0.92 3.7,1.2 4.18,2.16 0.31,0.63 -0.63,1.9 -1.75,4.14 0.17,0.15 1.57,1.02 2.3,1.83 3.89,4.37 7.92,11.51 2.53,20.93 -4.2,7.32 -16.96,8.96 -23.79,2.77 -6.86,-6.2 -7.11,-14.77 -1.45,-23.2zm26.18 -26.36c-2.62,1.51 -4.42,10.44 -5.16,15.4 2.49,-3 8.1,-10.21 7.62,-13.85 -0.1,-0.66 -0.37,-1.12 -0.89,-1.45l-0.27 -0.15c-0.46,-0.21 -0.87,-0.19 -1.3,0.05zm-6.13 17.59c-0.22,-0.1 -0.34,-0.32 -0.31,-0.55 0.18,-1.6 1.93,-15.68 5.94,-17.96 0.84,-0.48 1.75,-0.45 2.66,0.13 0.77,0.49 1.21,1.23 1.35,2.19 0.67,5.12 -8.65,15.61 -9.04,16.06 -0.14,0.17 -0.4,0.22 -0.6,0.13z"/>
  <path fill="#BDD180" fill-rule="nonzero" d="M320.15 165.64c-0.55,-6.94 5.69,-13.21 11.32,-15.14 -0.6,-2.47 -1.04,-4.75 -1.21,-5.45 -0.28,-1.14 4.18,-1.55 5.31,-1.02 0.73,0.35 0.77,2.16 1.37,4.98 0.25,0.02 2.14,-0.2 3.38,0.02 6.62,1.17 15.34,4.75 17.17,17.1 1.41,9.61 -8.94,20.16 -19.52,19.44 -10.61,-0.73 -16.93,-8.29 -17.82,-19.93zm4.9 -42.44c-1.29,3.23 3.43,12.57 6.29,17.58 0.12,-4.47 0.05,-14.98 -2.97,-17.93 -0.55,-0.52 -1.13,-0.75 -1.83,-0.68l-0.36 0.06c-0.56,0.14 -0.91,0.44 -1.13,0.97zm6.97 20.25c-0.26,0.07 -0.53,-0.04 -0.66,-0.27 -0.98,-1.58 -9.42,-15.54 -7.42,-20.45 0.42,-1.04 1.26,-1.66 2.5,-1.79 1.04,-0.09 1.97,0.25 2.78,1.03 4.25,4.14 3.29,20.25 3.26,20.93 -0.01,0.26 -0.21,0.49 -0.46,0.55z"/>
  <path fill="#BDD180" fill-rule="nonzero" d="M256.66 178.21l-2.42 0 0 0 -0.01 -0.23 -0.02 -0.23 -0.03 -0.23 -0.03 -0.22 -0.05 -0.21 -0.06 -0.22 -0.08 -0.21 -0.07 -0.2 -0.1 -0.2 -0.09 -0.19 -0.11 -0.19 -0.12 -0.18 -0.12 -0.17 -0.14 -0.17 -0.14 -0.17 -0.15 -0.15 -0.15 -0.15 -0.17 -0.15 -0.17 -0.13 -0.17 -0.12 -0.19 -0.12 -0.18 -0.11 -0.2 -0.1 -0.19 -0.09 -0.2 -0.08 -0.22 -0.07 -0.21 -0.06 -0.21 -0.05 -0.22 -0.04 -0.23 -0.03 -0.23 -0.01 -0.23 -0.01 0 -2.42 0.35 0.01 0.36 0.02 0.34 0.05 0.34 0.06 0.34 0.08 0.32 0.09 0.32 0.11 0.32 0.12 0.31 0.14 0.29 0.15 0.29 0.17 0.28 0.18 0.28 0.19 0.26 0.21 0.24 0.21 0.25 0.23 0.23 0.24 0.21 0.25 0.21 0.26 0.19 0.27 0.18 0.28 0.17 0.3 0.15 0.29 0.14 0.31 0.12 0.31 0.11 0.32 0.09 0.33 0.08 0.34 0.06 0.34 0.04 0.34 0.03 0.35 0.01 0.36 0 0zm-6.91 6.91l0 -2.43 0 0 0.23 0 0.23 -0.02 0.23 -0.03 0.22 -0.04 0.21 -0.05 0.21 -0.06 0.22 -0.07 0.2 -0.08 0.19 -0.09 0.2 -0.1 0.18 -0.1 0.19 -0.12 0.17 -0.12 0.17 -0.14 0.17 -0.14 0.15 -0.15 0.15 -0.16 0.14 -0.16 0.14 -0.17 0.12 -0.18 0.12 -0.18 0.11 -0.18 0.09 -0.2 0.1 -0.2 0.07 -0.2 0.08 -0.21 0.06 -0.21 0.05 -0.22 0.03 -0.22 0.03 -0.22 0.02 -0.23 0.01 -0.23 2.42 0 -0.01 0.35 -0.03 0.35 -0.04 0.35 -0.06 0.34 -0.08 0.33 -0.09 0.33 -0.11 0.32 -0.12 0.32 -0.14 0.3 -0.15 0.3 -0.17 0.29 -0.18 0.28 -0.19 0.27 -0.21 0.26 -0.21 0.25 -0.23 0.24 -0.25 0.23 -0.24 0.22 -0.26 0.2 -0.28 0.2 -0.28 0.18 -0.29 0.16 -0.29 0.15 -0.31 0.14 -0.32 0.13 -0.32 0.11 -0.32 0.09 -0.34 0.08 -0.34 0.06 -0.34 0.04 -0.36 0.03 -0.35 0.01 0 0zm-6.91 -6.91l2.42 0 0 0 0.01 0.23 0.02 0.23 0.03 0.22 0.04 0.22 0.05 0.22 0.06 0.21 0.07 0.21 0.08 0.2 0.09 0.2 0.1 0.2 0.1 0.18 0.12 0.18 0.12 0.18 0.14 0.17 0.14 0.16 0.15 0.16 0.15 0.15 0.17 0.14 0.17 0.14 0.17 0.12 0.19 0.12 0.18 0.1 0.2 0.1 0.19 0.09 0.21 0.08 0.21 0.07 0.21 0.06 0.21 0.05 0.22 0.04 0.23 0.03 0.23 0.02 0.23 0 0 2.43 -0.35 -0.01 -0.36 -0.03 -0.34 -0.04 -0.34 -0.06 -0.34 -0.08 -0.32 -0.09 -0.32 -0.11 -0.32 -0.13 -0.3 -0.14 -0.3 -0.15 -0.29 -0.16 -0.28 -0.18 -0.27 -0.2 -0.26 -0.2 -0.25 -0.22 -0.24 -0.23 -0.23 -0.24 -0.22 -0.25 -0.2 -0.26 -0.2 -0.27 -0.18 -0.28 -0.17 -0.29 -0.15 -0.3 -0.13 -0.3 -0.13 -0.32 -0.11 -0.32 -0.09 -0.33 -0.08 -0.33 -0.06 -0.34 -0.04 -0.35 -0.03 -0.35 -0.01 -0.35 0 0zm6.91 -6.91l0 2.42 0 0 -0.23 0.01 -0.23 0.01 -0.23 0.03 -0.22 0.04 -0.21 0.05 -0.21 0.06 -0.21 0.07 -0.21 0.08 -0.19 0.09 -0.2 0.1 -0.18 0.11 -0.19 0.12 -0.17 0.12 -0.17 0.13 -0.17 0.15 -0.15 0.15 -0.15 0.15 -0.14 0.17 -0.14 0.17 -0.12 0.17 -0.12 0.18 -0.1 0.19 -0.1 0.19 -0.09 0.2 -0.08 0.2 -0.07 0.21 -0.06 0.22 -0.05 0.21 -0.04 0.22 -0.03 0.23 -0.02 0.23 -0.01 0.23 -2.42 0 0.01 -0.36 0.03 -0.35 0.04 -0.34 0.06 -0.34 0.08 -0.34 0.09 -0.33 0.11 -0.32 0.13 -0.31 0.13 -0.31 0.15 -0.29 0.17 -0.3 0.18 -0.28 0.2 -0.27 0.2 -0.26 0.22 -0.25 0.23 -0.24 0.24 -0.23 0.25 -0.21 0.26 -0.21 0.27 -0.19 0.28 -0.18 0.29 -0.17 0.3 -0.15 0.3 -0.14 0.32 -0.12 0.32 -0.11 0.32 -0.09 0.34 -0.08 0.34 -0.06 0.34 -0.05 0.36 -0.02 0.35 -0.01 0 0z"/>
  <path fill="#BDD180" d="M220.3 154.48c-11.87,11.27 -25.71,-2.74 -43.34,10.8 0,0.26 0,0.53 0.01,0.8 -0.09,-0.27 -0.19,-0.53 -0.28,-0.77 -19.63,-10.45 -30.96,5.66 -44.54,-3.49 2.27,6.9 5.26,12.15 8.7,16.08l6.13 21.75 1.29 0 -5.59 -19.81c7.45,7.24 16.63,9.04 25.07,8.28 4.08,-0.36 8.02,8.95 11.47,7.71l0 0c2.91,-0.32 5.26,-9.31 8.59,-9.43 13.71,-0.48 28.79,-7.58 32.49,-31.92zm-73.77 16.9c8.23,9.44 21.39,10.2 22.92,5.03 -0.72,-11.41 -14.51,-2.02 -22.92,-5.03zm58.78 -4.98c-6.56,10.66 -19.41,13.6 -21.77,8.75 -1.18,-11.38 13.98,-4.4 21.77,-8.75zm7.91 -4.83c0.87,-0.07 1.64,0.61 1.72,1.52 0.07,0.91 -0.57,1.7 -1.45,1.78 -0.87,0.07 -1.64,-0.61 -1.71,-1.52 -0.08,-0.91 0.57,-1.71 1.44,-1.78z"/>
  <path fill="#BDD180" fill-rule="nonzero" d="M148.27 11.12c5.06,3.32 6.04,10.95 4.37,15.85 2.01,0.9 3.81,1.82 4.38,2.07 0.93,0.42 -1.16,3.71 -2.13,4.2 -0.63,0.31 -1.89,-0.62 -4.15,-1.72 -0.15,0.17 -1,1.58 -1.82,2.32 -4.33,3.92 -11.44,7.99 -20.9,2.67 -7.35,-4.15 -9.08,-16.9 -2.94,-23.78 6.16,-6.9 14.72,-7.2 23.19,-1.61zm26.55 26c-1.54,-2.61 -10.47,-4.35 -15.44,-5.06 3.01,2.47 10.26,8.03 13.9,7.52 0.66,-0.1 1.12,-0.37 1.45,-0.89l0.15 -0.28c0.2,-0.46 0.18,-0.86 -0.06,-1.29zm-17.64 -6.01c0.1,-0.22 0.32,-0.34 0.54,-0.31 1.61,0.16 15.7,1.82 18.01,5.81 0.49,0.84 0.46,1.75 -0.11,2.66 -0.49,0.77 -1.22,1.23 -2.19,1.37 -5.11,0.71 -15.66,-8.54 -16.11,-8.92 -0.18,-0.15 -0.23,-0.41 -0.14,-0.61z"/>
  <path fill="#BDD180" d="M227.97 53.11c-0.28,-1.42 -1.11,-2.73 -2.38,-3.56 0.27,0.07 0.55,0.12 0.84,0.18 4.82,0.9 9.62,-0.65 9.62,-0.65l-3.88 -5.77c0,0 -3.81,2.52 -9.75,1.62 -3.96,-0.6 -6.83,-2.03 -8.39,-2.99l0.03 -0.03c0.02,-0.02 0.04,-0.04 0.06,-0.06 11.82,2.79 24.44,-0.62 19.22,-11.06 -4.91,-9.81 -14.74,-2.48 -19.1,6.16 1.66,-9.61 -2,-21.6 -11.83,-16.46 -10.03,5.24 -2.49,14.25 7.76,19.97 0,0.08 0.01,0.17 0.03,0.25 -1.71,-0.45 -4.69,-1.42 -7.42,-3.2 -4.56,-2.97 -6.43,-7.89 -6.43,-7.89l-5.56 2.53c0,0 1.18,2.02 3.33,4.07 -1.25,0.49 -2.34,1.43 -2.96,2.73l-5.1 10.53 -0.23 -0.12 -1.82 3.75 43.96 0zm-11.42 -7.98l-2.28 -1.11 0.12 -0.22 -2.93 -1.42c0.7,0.33 1.51,0.28 2.17,-0.12 0.64,0.76 1.61,1.8 2.92,2.87zm-5.12 -2.77l-2.43 -1.17 -0.12 0.23 -0.74 -0.36c0.84,0.02 1.58,0.03 2.15,0.02 0.11,0.32 0.3,0.62 0.56,0.88 0.18,0.16 0.37,0.3 0.58,0.4zm2.95 -0.87c6.46,-0.05 14.58,-0.53 11.65,-7.15 -2.74,-6.18 -8.7,-1.04 -12.06,4.32l0.04 0.04c0.78,0.75 0.9,1.91 0.37,2.79zm-0.88 -3.16c0.45,-6.34 -1.37,-14.12 -7.24,-10.69 -5.9,3.44 -0.97,8.52 3.93,12.35 0.07,-0.45 0.27,-0.89 0.62,-1.24 0.72,-0.74 1.82,-0.89 2.69,-0.42z"/>
  <path fill="#FEFEFE" fill-rule="nonzero" d="M279.77 53.87l-186.37 0 0 -1.51 186.37 0 0 0 0 1.51zm11.53 10.01l-1.52 0 0 0 -0.01 -0.51 -0.04 -0.51 -0.06 -0.5 -0.09 -0.49 -0.11 -0.48 -0.14 -0.48 -0.15 -0.46 -0.18 -0.45 -0.21 -0.45 -0.22 -0.43 -0.24 -0.42 -0.26 -0.4 -0.28 -0.4 -0.3 -0.38 -0.31 -0.36 -0.34 -0.35 -0.35 -0.33 -0.36 -0.32 -0.38 -0.29 -0.39 -0.28 -0.41 -0.27 -0.42 -0.24 -0.43 -0.22 -0.44 -0.2 -0.45 -0.18 -0.47 -0.16 -0.47 -0.13 -0.49 -0.12 -0.49 -0.08 -0.5 -0.07 -0.5 -0.04 -0.52 -0.01 0 -1.51 0.59 0.01 0.59 0.05 0.57 0.07 0.57 0.1 0.56 0.13 0.54 0.16 0.54 0.18 0.52 0.21 0.51 0.23 0.5 0.25 0.48 0.28 0.47 0.3 0.45 0.32 0.43 0.35 0.42 0.36 0.4 0.38 0.39 0.4 0.36 0.42 0.34 0.44 0.32 0.45 0.3 0.46 0.28 0.49 0.26 0.49 0.23 0.51 0.21 0.53 0.18 0.53 0.15 0.55 0.13 0.56 0.1 0.56 0.08 0.58 0.04 0.58 0.02 0.59 0 0zm-1.52 71.88l0 -71.88 1.52 0 0 71.88 0 0 -1.52 0zm-10.01 11.53l0 -1.52 0 0 0.52 -0.01 0.5 -0.04 0.5 -0.06 0.49 -0.09 0.49 -0.11 0.47 -0.14 0.47 -0.16 0.45 -0.17 0.44 -0.21 0.43 -0.22 0.42 -0.24 0.41 -0.26 0.39 -0.28 0.38 -0.3 0.36 -0.31 0.35 -0.34 0.34 -0.35 0.31 -0.36 0.3 -0.38 0.28 -0.39 0.26 -0.41 0.24 -0.42 0.22 -0.43 0.21 -0.44 0.17 -0.45 0.16 -0.47 0.14 -0.47 0.11 -0.49 0.09 -0.49 0.06 -0.5 0.04 -0.5 0.01 -0.52 1.52 0 -0.02 0.59 -0.04 0.59 -0.08 0.57 -0.1 0.57 -0.13 0.56 -0.15 0.54 -0.19 0.54 -0.2 0.52 -0.23 0.51 -0.26 0.5 -0.28 0.48 -0.3 0.47 -0.32 0.45 -0.34 0.43 -0.37 0.42 -0.38 0.4 -0.4 0.38 -0.42 0.37 -0.43 0.34 -0.45 0.32 -0.47 0.3 -0.48 0.28 -0.5 0.26 -0.51 0.23 -0.52 0.2 -0.54 0.19 -0.54 0.15 -0.56 0.13 -0.57 0.1 -0.57 0.08 -0.59 0.04 -0.59 0.02 0 0zm-186.37 -1.52l186.37 0 0 1.52 -186.37 0 0 0 0 -1.52zm-11.53 -10.01l1.52 0 0 0 0.01 0.52 0.04 0.5 0.06 0.5 0.09 0.49 0.11 0.49 0.14 0.47 0.16 0.47 0.17 0.45 0.21 0.44 0.22 0.43 0.24 0.42 0.26 0.41 0.28 0.39 0.3 0.38 0.32 0.36 0.33 0.35 0.35 0.34 0.36 0.31 0.38 0.3 0.39 0.28 0.41 0.26 0.42 0.24 0.43 0.22 0.44 0.21 0.45 0.18 0.47 0.15 0.47 0.14 0.49 0.11 0.49 0.09 0.5 0.06 0.5 0.04 0.52 0.01 0 1.52 -0.59 -0.02 -0.59 -0.04 -0.57 -0.08 -0.57 -0.1 -0.56 -0.13 -0.54 -0.15 -0.54 -0.18 -0.52 -0.21 -0.51 -0.23 -0.5 -0.26 -0.48 -0.28 -0.47 -0.3 -0.45 -0.32 -0.43 -0.34 -0.42 -0.36 -0.4 -0.39 -0.38 -0.4 -0.37 -0.42 -0.34 -0.43 -0.32 -0.45 -0.3 -0.47 -0.28 -0.48 -0.26 -0.5 -0.23 -0.51 -0.21 -0.52 -0.18 -0.54 -0.15 -0.54 -0.13 -0.56 -0.1 -0.57 -0.08 -0.57 -0.04 -0.59 -0.02 -0.59 0 0zm1.52 -71.88l0 71.88 -1.52 0 0 -71.88 0 0 1.52 0zm10.01 -11.52l0 1.51 0 0 -0.52 0.01 -0.5 0.04 -0.5 0.07 -0.49 0.08 -0.49 0.12 -0.47 0.13 -0.47 0.16 -0.45 0.18 -0.44 0.2 -0.43 0.22 -0.42 0.24 -0.41 0.27 -0.39 0.28 -0.38 0.29 -0.36 0.32 -0.35 0.33 -0.34 0.35 -0.31 0.36 -0.3 0.38 -0.28 0.39 -0.26 0.41 -0.24 0.42 -0.22 0.43 -0.21 0.44 -0.17 0.46 -0.16 0.46 -0.14 0.48 -0.11 0.48 -0.09 0.49 -0.06 0.5 -0.04 0.51 -0.01 0.51 -1.52 0 0.02 -0.59 0.04 -0.58 0.08 -0.58 0.1 -0.56 0.13 -0.56 0.15 -0.55 0.18 -0.53 0.21 -0.53 0.23 -0.51 0.26 -0.49 0.28 -0.49 0.3 -0.46 0.32 -0.45 0.34 -0.44 0.36 -0.42 0.39 -0.4 0.4 -0.38 0.42 -0.36 0.43 -0.35 0.45 -0.32 0.47 -0.3 0.48 -0.28 0.5 -0.25 0.51 -0.23 0.52 -0.21 0.54 -0.18 0.54 -0.16 0.56 -0.13 0.57 -0.1 0.57 -0.07 0.59 -0.05 0.59 -0.01 0 0z"/>
  <circle fill="#BDD180" cx="352.17" cy="118.75" r="4.15"/>
</svg>
