<svg xmlns="http://www.w3.org/2000/svg" xml:space="preserve" width="373px" height="200px" version="1.1" style="shape-rendering:geometricPrecision; text-rendering:geometricPrecision; image-rendering:optimizeQuality; fill-rule:evenodd; clip-rule:evenodd" viewBox="0 0 373 200"  xmlns:xlink="http://www.w3.org/1999/xlink">
  <rect fill="#D8ECE4" width="373" height="199.65" rx="11.21" ry="11.21"/>
  <path fill="#D8ECE4" d="M11.21 0l350.58 0c6.17,0 11.21,5.04 11.21,11.21l0 177.23c0,6.16 -5.04,11.21 -11.21,11.21l-350.58 0c-6.17,0 -11.21,-5.05 -11.21,-11.21l0 -177.23c0,-6.17 5.04,-11.21 11.21,-11.21zm77.72 53.11l186.55 0 38.62 0c5.92,0 10.77,4.85 10.77,10.77l0 71.88c0,5.93 -4.85,10.77 -10.77,10.77l-38.62 0 -186.55 0 -30.03 0c-5.92,0 -10.77,-4.84 -10.77,-10.77l0 -71.88c0,-5.92 4.85,-10.77 10.77,-10.77l30.03 0z"/>
  <path fill="#C7E3D8" fill-rule="nonzero" d="M355.11 13.6l-2.43 0 0 0 0 -0.23 -0.02 -0.23 -0.03 -0.23 -0.04 -0.22 -0.05 -0.21 -0.06 -0.22 -0.07 -0.2 -0.08 -0.21 -0.09 -0.2 -0.1 -0.19 -0.1 -0.19 -0.12 -0.18 -0.12 -0.17 -0.14 -0.17 -0.14 -0.17 -0.15 -0.15 -0.16 -0.15 -0.16 -0.14 -0.17 -0.14 -0.17 -0.12 -0.19 -0.12 -0.18 -0.11 -0.2 -0.09 -0.2 -0.1 -0.2 -0.07 -0.21 -0.08 -0.21 -0.06 -0.22 -0.05 -0.22 -0.03 -0.22 -0.03 -0.23 -0.02 -0.23 -0.01 0 -2.42 0.35 0.01 0.35 0.03 0.35 0.04 0.34 0.06 0.33 0.08 0.33 0.09 0.32 0.11 0.32 0.12 0.3 0.14 0.3 0.15 0.29 0.17 0.28 0.18 0.27 0.19 0.26 0.21 0.25 0.21 0.24 0.23 0.23 0.24 0.22 0.25 0.2 0.26 0.2 0.27 0.18 0.28 0.16 0.3 0.15 0.29 0.14 0.31 0.13 0.31 0.11 0.32 0.09 0.33 0.08 0.34 0.06 0.34 0.04 0.34 0.03 0.35 0.01 0.36 0 0zm-6.91 6.91l0 -2.42 0 0 0.23 -0.01 0.23 -0.02 0.22 -0.03 0.22 -0.04 0.22 -0.05 0.21 -0.06 0.21 -0.07 0.2 -0.08 0.2 -0.09 0.2 -0.1 0.18 -0.1 0.19 -0.12 0.17 -0.12 0.17 -0.14 0.16 -0.14 0.16 -0.15 0.15 -0.16 0.14 -0.16 0.14 -0.17 0.12 -0.17 0.12 -0.19 0.1 -0.18 0.1 -0.2 0.09 -0.2 0.08 -0.2 0.07 -0.21 0.06 -0.21 0.05 -0.22 0.04 -0.22 0.03 -0.22 0.02 -0.23 0 -0.23 2.43 0 -0.01 0.35 -0.03 0.35 -0.04 0.35 -0.06 0.34 -0.08 0.33 -0.09 0.33 -0.11 0.32 -0.13 0.32 -0.14 0.3 -0.15 0.3 -0.16 0.29 -0.18 0.28 -0.2 0.27 -0.2 0.26 -0.22 0.25 -0.23 0.24 -0.24 0.23 -0.25 0.22 -0.26 0.2 -0.27 0.2 -0.28 0.18 -0.29 0.16 -0.3 0.15 -0.3 0.14 -0.32 0.13 -0.32 0.11 -0.33 0.09 -0.33 0.08 -0.34 0.06 -0.35 0.04 -0.35 0.03 -0.35 0.01 0 0zm-6.91 -6.91l2.42 0 0 0 0.01 0.23 0.01 0.23 0.03 0.22 0.04 0.22 0.05 0.22 0.06 0.21 0.07 0.21 0.08 0.2 0.09 0.2 0.1 0.2 0.11 0.18 0.12 0.19 0.12 0.17 0.13 0.17 0.15 0.16 0.15 0.16 0.15 0.15 0.17 0.14 0.17 0.14 0.17 0.12 0.18 0.12 0.19 0.1 0.19 0.1 0.2 0.09 0.2 0.08 0.21 0.07 0.22 0.06 0.21 0.05 0.22 0.04 0.23 0.03 0.23 0.02 0.23 0.01 0 2.42 -0.36 -0.01 -0.35 -0.03 -0.34 -0.04 -0.34 -0.06 -0.34 -0.08 -0.33 -0.09 -0.32 -0.11 -0.31 -0.13 -0.31 -0.14 -0.29 -0.15 -0.3 -0.16 -0.28 -0.18 -0.27 -0.2 -0.26 -0.2 -0.25 -0.22 -0.24 -0.23 -0.23 -0.24 -0.21 -0.25 -0.21 -0.26 -0.19 -0.27 -0.18 -0.28 -0.17 -0.29 -0.15 -0.3 -0.14 -0.3 -0.12 -0.32 -0.11 -0.32 -0.09 -0.33 -0.08 -0.33 -0.06 -0.34 -0.04 -0.35 -0.03 -0.35 -0.01 -0.35 0 0zm6.91 -6.91l0 2.42 0 0 -0.23 0.01 -0.23 0.02 -0.23 0.03 -0.22 0.03 -0.21 0.05 -0.22 0.06 -0.21 0.08 -0.2 0.07 -0.2 0.1 -0.19 0.09 -0.19 0.11 -0.18 0.12 -0.18 0.12 -0.16 0.14 -0.17 0.14 -0.16 0.15 -0.14 0.15 -0.15 0.17 -0.13 0.17 -0.12 0.17 -0.12 0.18 -0.11 0.19 -0.1 0.19 -0.09 0.2 -0.08 0.21 -0.07 0.2 -0.06 0.22 -0.05 0.21 -0.04 0.22 -0.03 0.23 -0.01 0.23 -0.01 0.23 -2.42 0 0.01 -0.36 0.03 -0.35 0.04 -0.34 0.06 -0.34 0.08 -0.34 0.09 -0.33 0.11 -0.32 0.12 -0.31 0.14 -0.31 0.15 -0.29 0.17 -0.3 0.18 -0.28 0.19 -0.27 0.21 -0.26 0.21 -0.25 0.23 -0.24 0.24 -0.23 0.25 -0.21 0.27 -0.21 0.26 -0.19 0.28 -0.18 0.3 -0.17 0.29 -0.15 0.31 -0.14 0.31 -0.12 0.32 -0.11 0.33 -0.09 0.34 -0.08 0.34 -0.06 0.34 -0.04 0.35 -0.03 0.36 -0.01 0 0z"/>
  <path fill="#C7E3D8" d="M246.04 37.71c2.29,0 4.15,1.86 4.15,4.15 0,2.29 -1.86,4.15 -4.15,4.15 -2.3,0 -4.15,-1.86 -4.15,-4.15 0,-2.29 1.85,-4.15 4.15,-4.15z"/>
  <path fill="#C7E3D8" fill-rule="nonzero" d="M270.85 174.16l-2.42 0 0 0 -0.01 -0.23 -0.02 -0.23 -0.03 -0.22 -0.03 -0.22 -0.05 -0.22 -0.06 -0.21 -0.08 -0.21 -0.07 -0.2 -0.1 -0.2 -0.09 -0.2 -0.11 -0.18 -0.12 -0.19 -0.12 -0.17 -0.14 -0.17 -0.14 -0.16 -0.15 -0.16 -0.15 -0.15 -0.17 -0.14 -0.17 -0.14 -0.17 -0.12 -0.18 -0.12 -0.19 -0.1 -0.19 -0.1 -0.2 -0.09 -0.21 -0.08 -0.21 -0.07 -0.21 -0.06 -0.21 -0.05 -0.22 -0.04 -0.23 -0.03 -0.23 -0.02 -0.23 0 0 -2.43 0.36 0.01 0.35 0.03 0.34 0.04 0.34 0.06 0.34 0.08 0.33 0.09 0.32 0.11 0.31 0.13 0.31 0.14 0.29 0.15 0.29 0.16 0.28 0.18 0.28 0.2 0.26 0.2 0.25 0.22 0.24 0.23 0.23 0.24 0.21 0.25 0.21 0.26 0.19 0.27 0.18 0.28 0.17 0.29 0.15 0.3 0.14 0.3 0.12 0.32 0.11 0.32 0.09 0.33 0.08 0.33 0.06 0.34 0.04 0.35 0.03 0.35 0.01 0.35 0 0zm-6.91 6.91l0 -2.42 0 0 0.23 -0.01 0.23 -0.01 0.23 -0.03 0.22 -0.04 0.21 -0.05 0.21 -0.06 0.21 -0.07 0.21 -0.08 0.2 -0.09 0.19 -0.1 0.19 -0.11 0.18 -0.12 0.17 -0.12 0.17 -0.13 0.17 -0.15 0.15 -0.14 0.15 -0.16 0.14 -0.17 0.14 -0.16 0.12 -0.18 0.12 -0.18 0.11 -0.19 0.09 -0.19 0.1 -0.2 0.07 -0.2 0.08 -0.21 0.06 -0.22 0.05 -0.21 0.03 -0.22 0.03 -0.23 0.02 -0.23 0.01 -0.23 2.42 0 -0.01 0.36 -0.03 0.35 -0.04 0.34 -0.06 0.34 -0.08 0.34 -0.09 0.33 -0.11 0.32 -0.12 0.31 -0.14 0.31 -0.15 0.29 -0.17 0.3 -0.18 0.28 -0.19 0.26 -0.21 0.27 -0.21 0.25 -0.23 0.24 -0.24 0.23 -0.25 0.21 -0.26 0.21 -0.28 0.19 -0.28 0.18 -0.29 0.17 -0.29 0.15 -0.31 0.14 -0.31 0.12 -0.32 0.11 -0.33 0.09 -0.34 0.08 -0.34 0.06 -0.34 0.05 -0.35 0.02 -0.36 0.01 0 0zm-6.91 -6.91l2.42 0 0 0 0.01 0.23 0.02 0.23 0.03 0.23 0.04 0.22 0.05 0.21 0.06 0.22 0.07 0.21 0.08 0.2 0.09 0.2 0.1 0.19 0.1 0.19 0.12 0.18 0.13 0.18 0.13 0.16 0.14 0.17 0.15 0.16 0.15 0.14 0.17 0.15 0.17 0.13 0.17 0.12 0.19 0.12 0.18 0.11 0.2 0.1 0.19 0.09 0.21 0.08 0.21 0.07 0.21 0.06 0.22 0.05 0.22 0.04 0.22 0.03 0.23 0.01 0.23 0.01 0 2.42 -0.35 -0.01 -0.35 -0.02 -0.35 -0.05 -0.34 -0.06 -0.33 -0.08 -0.33 -0.09 -0.32 -0.11 -0.32 -0.12 -0.3 -0.14 -0.3 -0.15 -0.29 -0.17 -0.28 -0.18 -0.27 -0.19 -0.26 -0.21 -0.25 -0.21 -0.24 -0.23 -0.23 -0.24 -0.22 -0.25 -0.21 -0.27 -0.19 -0.26 -0.18 -0.28 -0.16 -0.3 -0.16 -0.29 -0.13 -0.31 -0.13 -0.31 -0.11 -0.32 -0.09 -0.33 -0.08 -0.34 -0.06 -0.34 -0.04 -0.34 -0.03 -0.35 -0.01 -0.36 0 0zm6.91 -6.91l0 2.43 0 0 -0.23 0 -0.23 0.02 -0.22 0.03 -0.22 0.04 -0.22 0.05 -0.21 0.06 -0.21 0.07 -0.21 0.08 -0.19 0.09 -0.2 0.1 -0.18 0.1 -0.19 0.12 -0.17 0.13 -0.17 0.13 -0.17 0.14 -0.15 0.15 -0.15 0.16 -0.14 0.16 -0.13 0.17 -0.13 0.17 -0.12 0.19 -0.1 0.18 -0.1 0.2 -0.09 0.2 -0.08 0.2 -0.07 0.21 -0.06 0.21 -0.05 0.22 -0.04 0.22 -0.03 0.22 -0.02 0.23 -0.01 0.23 -2.42 0 0.01 -0.35 0.03 -0.35 0.04 -0.35 0.06 -0.34 0.08 -0.33 0.09 -0.33 0.11 -0.32 0.13 -0.32 0.13 -0.3 0.16 -0.3 0.16 -0.29 0.18 -0.28 0.19 -0.27 0.21 -0.26 0.22 -0.25 0.23 -0.24 0.24 -0.23 0.25 -0.22 0.26 -0.2 0.27 -0.2 0.28 -0.17 0.29 -0.17 0.3 -0.15 0.3 -0.14 0.32 -0.13 0.32 -0.11 0.33 -0.09 0.33 -0.08 0.34 -0.06 0.35 -0.04 0.35 -0.03 0.35 -0.01 0 0z"/>
  <path fill="#C7E3D8" fill-rule="nonzero" d="M143.56 161.34l-2.42 0 0 0 -0.01 -0.24 -0.02 -0.22 -0.03 -0.23 -0.04 -0.22 -0.05 -0.22 -0.06 -0.21 -0.07 -0.21 -0.08 -0.2 -0.09 -0.2 -0.1 -0.19 -0.1 -0.19 -0.12 -0.18 -0.12 -0.18 -0.14 -0.17 -0.14 -0.16 -0.15 -0.16 -0.15 -0.14 -0.17 -0.15 -0.17 -0.13 -0.17 -0.13 -0.19 -0.11 -0.18 -0.11 -0.2 -0.1 -0.2 -0.09 -0.2 -0.08 -0.21 -0.07 -0.21 -0.06 -0.21 -0.05 -0.22 -0.04 -0.23 -0.03 -0.23 -0.02 -0.23 0 0 -2.42 0.35 0.01 0.36 0.02 0.34 0.05 0.34 0.06 0.34 0.07 0.32 0.1 0.32 0.11 0.32 0.12 0.3 0.14 0.3 0.15 0.29 0.17 0.28 0.18 0.27 0.19 0.26 0.21 0.25 0.21 0.24 0.23 0.23 0.24 0.22 0.25 0.2 0.26 0.2 0.27 0.18 0.28 0.16 0.29 0.16 0.3 0.13 0.3 0.13 0.32 0.11 0.32 0.09 0.33 0.08 0.34 0.06 0.34 0.04 0.34 0.03 0.35 0.01 0.36 0 0zm-6.91 6.9l0 -2.42 0 0 0.23 0 0.23 -0.02 0.23 -0.03 0.22 -0.04 0.21 -0.05 0.21 -0.06 0.21 -0.07 0.2 -0.08 0.2 -0.09 0.2 -0.1 0.18 -0.11 0.19 -0.11 0.17 -0.13 0.17 -0.13 0.17 -0.14 0.15 -0.15 0.15 -0.16 0.14 -0.16 0.14 -0.17 0.12 -0.18 0.12 -0.18 0.1 -0.19 0.1 -0.19 0.09 -0.2 0.08 -0.2 0.07 -0.21 0.06 -0.21 0.05 -0.22 0.04 -0.22 0.03 -0.23 0.02 -0.22 0.01 -0.23 2.42 0 -0.01 0.35 -0.03 0.35 -0.04 0.35 -0.06 0.34 -0.08 0.33 -0.09 0.33 -0.11 0.32 -0.13 0.32 -0.13 0.3 -0.16 0.3 -0.16 0.29 -0.18 0.28 -0.2 0.27 -0.2 0.26 -0.22 0.25 -0.23 0.24 -0.24 0.23 -0.25 0.21 -0.26 0.21 -0.27 0.19 -0.28 0.18 -0.29 0.17 -0.3 0.15 -0.3 0.14 -0.32 0.12 -0.32 0.11 -0.32 0.1 -0.34 0.07 -0.34 0.06 -0.34 0.05 -0.36 0.03 -0.35 0 0 0zm-6.91 -6.9l2.42 0 0 0 0.01 0.23 0.02 0.22 0.03 0.23 0.03 0.22 0.05 0.22 0.06 0.21 0.07 0.21 0.08 0.2 0.1 0.2 0.09 0.19 0.11 0.19 0.12 0.18 0.12 0.18 0.14 0.17 0.14 0.16 0.15 0.16 0.15 0.15 0.17 0.14 0.17 0.13 0.17 0.13 0.18 0.11 0.19 0.11 0.2 0.1 0.19 0.09 0.2 0.08 0.22 0.07 0.21 0.06 0.21 0.05 0.22 0.04 0.23 0.03 0.23 0.02 0.23 0 0 2.42 -0.36 0 -0.35 -0.03 -0.34 -0.05 -0.34 -0.06 -0.34 -0.07 -0.32 -0.1 -0.32 -0.11 -0.32 -0.12 -0.31 -0.14 -0.29 -0.15 -0.29 -0.17 -0.28 -0.18 -0.28 -0.19 -0.26 -0.21 -0.24 -0.21 -0.25 -0.23 -0.23 -0.24 -0.21 -0.25 -0.21 -0.26 -0.19 -0.27 -0.18 -0.28 -0.17 -0.29 -0.15 -0.3 -0.14 -0.3 -0.12 -0.32 -0.11 -0.32 -0.09 -0.33 -0.08 -0.33 -0.06 -0.34 -0.04 -0.35 -0.03 -0.35 -0.01 -0.35 0 0zm6.91 -6.91l0 2.42 0 0 -0.23 0 -0.23 0.02 -0.23 0.03 -0.22 0.04 -0.21 0.05 -0.21 0.06 -0.22 0.07 -0.2 0.08 -0.19 0.09 -0.2 0.1 -0.19 0.11 -0.18 0.11 -0.17 0.13 -0.17 0.13 -0.17 0.15 -0.15 0.14 -0.15 0.16 -0.14 0.16 -0.14 0.17 -0.12 0.18 -0.12 0.18 -0.11 0.19 -0.09 0.19 -0.1 0.2 -0.08 0.2 -0.07 0.21 -0.06 0.21 -0.05 0.22 -0.03 0.22 -0.03 0.23 -0.02 0.22 -0.01 0.24 -2.42 0 0.01 -0.36 0.03 -0.35 0.04 -0.34 0.06 -0.34 0.08 -0.34 0.09 -0.33 0.11 -0.32 0.12 -0.32 0.14 -0.3 0.15 -0.3 0.17 -0.29 0.18 -0.28 0.19 -0.27 0.21 -0.26 0.21 -0.25 0.23 -0.24 0.25 -0.23 0.24 -0.21 0.26 -0.21 0.28 -0.19 0.28 -0.18 0.29 -0.17 0.29 -0.15 0.31 -0.14 0.32 -0.12 0.32 -0.11 0.32 -0.1 0.34 -0.07 0.34 -0.06 0.34 -0.05 0.35 -0.02 0.36 -0.01 0 0z"/>
  <path fill="#C7E3D8" d="M43.13 180.75c2.3,0 4.16,1.86 4.16,4.16 0,2.29 -1.86,4.15 -4.16,4.15 -2.29,0 -4.15,-1.86 -4.15,-4.15 0,-2.3 1.86,-4.16 4.15,-4.16z"/>
  <path fill="#C7E3D8" d="M232.8 174.03c2.29,0 4.15,1.86 4.15,4.15 0,2.3 -1.86,4.15 -4.15,4.15 -2.29,0 -4.15,-1.85 -4.15,-4.15 0,-2.29 1.86,-4.15 4.15,-4.15z"/>
  <path fill="#C7E3D8" d="M170 171.88c2.29,0 4.15,1.86 4.15,4.15 0,2.3 -1.86,4.16 -4.15,4.16 -2.29,0 -4.15,-1.86 -4.15,-4.16 0,-2.29 1.86,-4.15 4.15,-4.15z"/>
  <path fill="#C7E3D8" fill-rule="nonzero" d="M82.03 13.51l-2.42 0 0 0 0 -0.23 -0.02 -0.23 -0.03 -0.22 -0.04 -0.22 -0.05 -0.22 -0.06 -0.21 -0.07 -0.21 -0.08 -0.2 -0.09 -0.2 -0.1 -0.2 -0.11 -0.18 -0.11 -0.18 -0.13 -0.18 -0.13 -0.17 -0.14 -0.16 -0.15 -0.16 -0.16 -0.15 -0.16 -0.14 -0.17 -0.13 -0.18 -0.13 -0.18 -0.12 -0.18 -0.1 -0.2 -0.1 -0.2 -0.09 -0.2 -0.08 -0.21 -0.07 -0.21 -0.06 -0.22 -0.05 -0.22 -0.04 -0.23 -0.03 -0.22 -0.02 -0.23 0 0 -2.43 0.35 0.01 0.35 0.03 0.35 0.04 0.34 0.06 0.33 0.08 0.33 0.1 0.32 0.1 0.31 0.13 0.31 0.14 0.3 0.15 0.29 0.17 0.28 0.17 0.27 0.2 0.26 0.2 0.25 0.22 0.24 0.23 0.23 0.24 0.22 0.25 0.2 0.26 0.19 0.27 0.18 0.28 0.17 0.29 0.15 0.3 0.14 0.3 0.12 0.32 0.11 0.32 0.1 0.33 0.07 0.33 0.06 0.34 0.05 0.35 0.03 0.35 0 0.35 0 0zm-6.9 6.91l0 -2.42 0 0 0.23 -0.01 0.22 -0.01 0.23 -0.03 0.22 -0.04 0.22 -0.05 0.21 -0.06 0.21 -0.07 0.2 -0.08 0.2 -0.09 0.2 -0.1 0.18 -0.11 0.18 -0.12 0.18 -0.12 0.17 -0.13 0.16 -0.14 0.16 -0.16 0.15 -0.15 0.14 -0.16 0.13 -0.17 0.13 -0.18 0.11 -0.18 0.11 -0.19 0.1 -0.19 0.09 -0.2 0.08 -0.2 0.07 -0.21 0.06 -0.22 0.05 -0.21 0.04 -0.22 0.03 -0.23 0.02 -0.23 0 -0.23 2.42 0 0 0.36 -0.03 0.35 -0.05 0.34 -0.06 0.34 -0.07 0.34 -0.1 0.33 -0.11 0.32 -0.12 0.31 -0.14 0.31 -0.15 0.29 -0.17 0.3 -0.18 0.28 -0.19 0.27 -0.2 0.26 -0.22 0.25 -0.23 0.24 -0.24 0.22 -0.25 0.22 -0.26 0.21 -0.27 0.19 -0.28 0.18 -0.29 0.17 -0.3 0.15 -0.31 0.14 -0.31 0.12 -0.32 0.11 -0.33 0.09 -0.33 0.08 -0.34 0.06 -0.35 0.04 -0.35 0.03 -0.35 0.01 0 0zm-6.91 -6.91l2.42 0 0 0 0.01 0.23 0.01 0.23 0.03 0.23 0.04 0.22 0.05 0.21 0.06 0.22 0.07 0.21 0.08 0.2 0.09 0.2 0.1 0.19 0.11 0.19 0.12 0.18 0.12 0.18 0.13 0.17 0.14 0.16 0.15 0.15 0.16 0.16 0.16 0.14 0.17 0.13 0.18 0.12 0.18 0.12 0.19 0.11 0.19 0.1 0.2 0.09 0.2 0.08 0.21 0.07 0.21 0.06 0.22 0.05 0.22 0.04 0.23 0.03 0.23 0.01 0.23 0.01 0 2.42 -0.36 -0.01 -0.35 -0.03 -0.34 -0.04 -0.34 -0.06 -0.34 -0.08 -0.33 -0.09 -0.32 -0.11 -0.31 -0.12 -0.31 -0.14 -0.3 -0.15 -0.29 -0.17 -0.28 -0.18 -0.27 -0.19 -0.26 -0.21 -0.25 -0.22 -0.24 -0.22 -0.23 -0.24 -0.21 -0.25 -0.21 -0.26 -0.19 -0.27 -0.18 -0.28 -0.17 -0.3 -0.15 -0.29 -0.14 -0.31 -0.12 -0.31 -0.11 -0.32 -0.09 -0.33 -0.08 -0.34 -0.06 -0.34 -0.05 -0.34 -0.02 -0.35 -0.01 -0.36 0 0zm6.91 -6.91l0 2.43 0 0 -0.23 0 -0.23 0.02 -0.23 0.03 -0.22 0.04 -0.22 0.05 -0.21 0.06 -0.21 0.07 -0.2 0.08 -0.2 0.09 -0.19 0.1 -0.19 0.1 -0.18 0.12 -0.18 0.13 -0.17 0.13 -0.16 0.14 -0.15 0.15 -0.16 0.16 -0.14 0.16 -0.13 0.17 -0.12 0.18 -0.12 0.18 -0.11 0.18 -0.1 0.2 -0.09 0.2 -0.08 0.2 -0.07 0.21 -0.06 0.21 -0.05 0.22 -0.04 0.22 -0.03 0.22 -0.01 0.23 -0.01 0.23 -2.42 0 0.01 -0.35 0.02 -0.35 0.05 -0.35 0.06 -0.34 0.08 -0.33 0.09 -0.33 0.11 -0.32 0.12 -0.32 0.14 -0.3 0.15 -0.3 0.17 -0.29 0.18 -0.28 0.19 -0.27 0.21 -0.26 0.21 -0.25 0.23 -0.24 0.24 -0.23 0.25 -0.22 0.26 -0.2 0.27 -0.2 0.28 -0.17 0.29 -0.17 0.3 -0.15 0.31 -0.14 0.31 -0.13 0.32 -0.1 0.33 -0.1 0.34 -0.08 0.34 -0.06 0.34 -0.04 0.35 -0.03 0.36 -0.01 0 0z"/>
  <path fill="#FEFEFE" fill-rule="nonzero" d="M314.1 53.87l-255.2 0 0 -1.51 255.2 0 0 0 0 1.51zm11.52 10.01l-1.51 0 0 0 -0.01 -0.51 -0.04 -0.51 -0.07 -0.5 -0.08 -0.49 -0.11 -0.48 -0.14 -0.48 -0.16 -0.46 -0.18 -0.45 -0.2 -0.45 -0.22 -0.43 -0.24 -0.42 -0.26 -0.4 -0.28 -0.4 -0.3 -0.38 -0.32 -0.36 -0.33 -0.35 -0.35 -0.33 -0.36 -0.32 -0.38 -0.29 -0.39 -0.28 -0.41 -0.27 -0.42 -0.24 -0.43 -0.22 -0.44 -0.2 -0.46 -0.18 -0.46 -0.16 -0.48 -0.13 -0.48 -0.12 -0.49 -0.08 -0.5 -0.07 -0.51 -0.04 -0.51 -0.01 0 -1.51 0.59 0.01 0.58 0.05 0.58 0.07 0.57 0.1 0.55 0.13 0.55 0.16 0.53 0.18 0.53 0.21 0.51 0.23 0.49 0.25 0.49 0.28 0.46 0.3 0.46 0.32 0.43 0.35 0.42 0.36 0.4 0.38 0.38 0.4 0.36 0.42 0.35 0.44 0.32 0.45 0.3 0.46 0.28 0.49 0.25 0.49 0.24 0.51 0.2 0.53 0.18 0.53 0.16 0.55 0.13 0.56 0.1 0.56 0.07 0.58 0.05 0.58 0.01 0.59 0 0zm-1.51 71.88l0 -71.88 1.51 0 0 71.88 0 0 -1.51 0zm-10.01 11.53l0 -1.52 0 0 0.51 -0.01 0.51 -0.04 0.5 -0.06 0.49 -0.09 0.48 -0.11 0.48 -0.14 0.46 -0.16 0.46 -0.17 0.44 -0.21 0.43 -0.22 0.42 -0.24 0.4 -0.26 0.4 -0.28 0.38 -0.3 0.36 -0.31 0.35 -0.34 0.33 -0.35 0.32 -0.36 0.3 -0.38 0.27 -0.39 0.27 -0.41 0.24 -0.42 0.22 -0.43 0.2 -0.44 0.18 -0.45 0.16 -0.47 0.14 -0.47 0.11 -0.49 0.08 -0.49 0.07 -0.5 0.04 -0.5 0.01 -0.52 1.51 0 -0.01 0.59 -0.05 0.59 -0.07 0.57 -0.1 0.57 -0.13 0.56 -0.16 0.54 -0.18 0.54 -0.2 0.52 -0.24 0.51 -0.25 0.5 -0.28 0.48 -0.3 0.47 -0.32 0.45 -0.35 0.43 -0.36 0.42 -0.38 0.4 -0.4 0.38 -0.42 0.37 -0.43 0.34 -0.46 0.32 -0.46 0.3 -0.49 0.28 -0.49 0.26 -0.51 0.23 -0.53 0.2 -0.53 0.19 -0.55 0.15 -0.55 0.13 -0.57 0.1 -0.58 0.08 -0.58 0.04 -0.59 0.02 0 0zm-255.2 -1.52l255.2 0 0 1.52 -255.2 0 0 0 0 -1.52zm-11.53 -10.01l1.52 0 0 0 0.01 0.52 0.04 0.5 0.06 0.5 0.09 0.49 0.11 0.49 0.14 0.47 0.16 0.47 0.18 0.45 0.2 0.44 0.22 0.43 0.24 0.42 0.26 0.41 0.28 0.39 0.3 0.38 0.32 0.36 0.33 0.35 0.35 0.34 0.36 0.31 0.38 0.3 0.39 0.28 0.41 0.26 0.42 0.24 0.43 0.22 0.44 0.21 0.46 0.18 0.46 0.15 0.48 0.14 0.48 0.11 0.49 0.09 0.5 0.06 0.5 0.04 0.52 0.01 0 1.52 -0.59 -0.02 -0.58 -0.04 -0.58 -0.08 -0.57 -0.1 -0.55 -0.13 -0.55 -0.15 -0.54 -0.18 -0.52 -0.21 -0.51 -0.23 -0.5 -0.26 -0.48 -0.28 -0.46 -0.3 -0.46 -0.32 -0.43 -0.34 -0.42 -0.36 -0.4 -0.39 -0.38 -0.4 -0.36 -0.42 -0.35 -0.43 -0.32 -0.45 -0.3 -0.47 -0.28 -0.48 -0.25 -0.5 -0.24 -0.51 -0.2 -0.52 -0.18 -0.54 -0.16 -0.54 -0.13 -0.56 -0.1 -0.57 -0.08 -0.57 -0.04 -0.59 -0.02 -0.59 0 0zm1.52 -71.88l0 71.88 -1.52 0 0 -71.88 0 0 1.52 0zm10.01 -11.52l0 1.51 0 0 -0.52 0.01 -0.5 0.04 -0.5 0.07 -0.49 0.08 -0.48 0.12 -0.48 0.13 -0.46 0.16 -0.46 0.18 -0.44 0.2 -0.43 0.22 -0.42 0.24 -0.41 0.27 -0.39 0.28 -0.38 0.29 -0.36 0.32 -0.35 0.33 -0.33 0.35 -0.32 0.36 -0.3 0.38 -0.28 0.39 -0.26 0.41 -0.24 0.42 -0.22 0.43 -0.2 0.44 -0.18 0.46 -0.16 0.46 -0.14 0.48 -0.11 0.48 -0.09 0.49 -0.06 0.5 -0.04 0.51 -0.01 0.51 -1.52 0 0.02 -0.59 0.04 -0.58 0.08 -0.58 0.1 -0.56 0.13 -0.56 0.15 -0.55 0.19 -0.53 0.2 -0.53 0.24 -0.51 0.25 -0.49 0.28 -0.49 0.3 -0.46 0.32 -0.45 0.34 -0.44 0.37 -0.42 0.38 -0.4 0.4 -0.38 0.42 -0.36 0.43 -0.35 0.45 -0.32 0.47 -0.3 0.48 -0.28 0.5 -0.25 0.51 -0.23 0.52 -0.21 0.54 -0.18 0.55 -0.16 0.55 -0.13 0.57 -0.1 0.57 -0.07 0.59 -0.05 0.59 -0.01 0 0z"/>
  <path fill="#C7E3D8" fill-rule="nonzero" d="M148.07 35.1l-2.43 0 0 0 0 -0.23 -0.02 -0.23 -0.03 -0.23 -0.04 -0.22 -0.05 -0.21 -0.06 -0.21 -0.07 -0.21 -0.08 -0.21 -0.09 -0.19 -0.1 -0.2 -0.1 -0.18 -0.12 -0.19 -0.12 -0.17 -0.14 -0.17 -0.14 -0.17 -0.15 -0.15 -0.16 -0.15 -0.16 -0.14 -0.17 -0.14 -0.18 -0.12 -0.18 -0.12 -0.18 -0.1 -0.2 -0.1 -0.2 -0.09 -0.2 -0.08 -0.21 -0.07 -0.21 -0.07 -0.22 -0.04 -0.22 -0.04 -0.22 -0.03 -0.23 -0.02 -0.23 -0.01 0 -2.42 0.35 0.01 0.35 0.03 0.35 0.04 0.34 0.06 0.33 0.08 0.33 0.09 0.32 0.11 0.32 0.13 0.3 0.13 0.3 0.15 0.29 0.17 0.28 0.18 0.27 0.2 0.26 0.2 0.25 0.21 0.24 0.24 0.23 0.24 0.22 0.25 0.2 0.26 0.2 0.27 0.18 0.28 0.16 0.29 0.15 0.29 0.14 0.31 0.13 0.32 0.11 0.32 0.09 0.32 0.08 0.34 0.06 0.34 0.04 0.34 0.03 0.36 0.01 0.35 0 0zm-6.91 6.91l0 -2.42 0 0 0.23 -0.01 0.23 -0.02 0.22 -0.03 0.22 -0.04 0.22 -0.04 0.21 -0.06 0.21 -0.08 0.2 -0.07 0.2 -0.1 0.2 -0.1 0.18 -0.1 0.18 -0.12 0.18 -0.12 0.17 -0.14 0.16 -0.14 0.16 -0.15 0.15 -0.15 0.14 -0.17 0.14 -0.17 0.12 -0.17 0.12 -0.19 0.1 -0.18 0.1 -0.2 0.09 -0.19 0.08 -0.21 0.07 -0.21 0.06 -0.21 0.05 -0.21 0.04 -0.22 0.03 -0.23 0.02 -0.23 0 -0.23 2.43 0 -0.01 0.35 -0.03 0.36 -0.04 0.34 -0.06 0.34 -0.08 0.34 -0.09 0.32 -0.11 0.32 -0.13 0.32 -0.14 0.31 -0.15 0.29 -0.16 0.29 -0.18 0.28 -0.2 0.28 -0.2 0.25 -0.22 0.25 -0.23 0.25 -0.24 0.23 -0.25 0.21 -0.26 0.2 -0.27 0.2 -0.28 0.18 -0.29 0.17 -0.3 0.15 -0.3 0.14 -0.32 0.12 -0.32 0.11 -0.33 0.09 -0.33 0.08 -0.34 0.06 -0.35 0.04 -0.35 0.03 -0.35 0.01 0 0zm-6.91 -6.91l2.42 0 0 0 0.01 0.23 0.01 0.23 0.03 0.23 0.04 0.22 0.05 0.21 0.06 0.21 0.07 0.21 0.08 0.21 0.09 0.19 0.1 0.2 0.11 0.18 0.12 0.19 0.12 0.17 0.13 0.17 0.15 0.17 0.14 0.15 0.16 0.15 0.17 0.14 0.17 0.14 0.17 0.12 0.18 0.12 0.19 0.1 0.19 0.1 0.2 0.1 0.2 0.07 0.21 0.08 0.22 0.06 0.21 0.04 0.22 0.04 0.23 0.03 0.23 0.02 0.23 0.01 0 2.42 -0.36 -0.01 -0.35 -0.03 -0.34 -0.04 -0.34 -0.06 -0.34 -0.08 -0.33 -0.09 -0.32 -0.11 -0.31 -0.12 -0.31 -0.14 -0.29 -0.15 -0.3 -0.17 -0.28 -0.18 -0.27 -0.2 -0.26 -0.2 -0.25 -0.21 -0.24 -0.23 -0.23 -0.25 -0.21 -0.25 -0.21 -0.25 -0.19 -0.28 -0.18 -0.28 -0.17 -0.29 -0.15 -0.29 -0.14 -0.31 -0.12 -0.32 -0.11 -0.32 -0.09 -0.32 -0.08 -0.34 -0.06 -0.34 -0.05 -0.34 -0.02 -0.36 -0.01 -0.35 0 0zm6.91 -6.91l0 2.42 0 0 -0.23 0.01 -0.23 0.02 -0.23 0.03 -0.22 0.04 -0.21 0.04 -0.22 0.07 -0.21 0.07 -0.2 0.08 -0.2 0.09 -0.19 0.1 -0.19 0.1 -0.18 0.12 -0.17 0.12 -0.17 0.14 -0.17 0.14 -0.16 0.15 -0.14 0.15 -0.15 0.17 -0.13 0.17 -0.12 0.17 -0.12 0.19 -0.11 0.18 -0.1 0.2 -0.09 0.19 -0.08 0.21 -0.07 0.21 -0.06 0.21 -0.05 0.21 -0.04 0.22 -0.03 0.23 -0.01 0.23 -0.01 0.23 -2.42 0 0.01 -0.35 0.02 -0.36 0.05 -0.34 0.06 -0.34 0.08 -0.34 0.09 -0.32 0.11 -0.32 0.12 -0.32 0.14 -0.31 0.15 -0.29 0.17 -0.29 0.18 -0.28 0.19 -0.27 0.21 -0.26 0.21 -0.25 0.23 -0.24 0.24 -0.24 0.25 -0.21 0.26 -0.2 0.27 -0.2 0.28 -0.18 0.3 -0.17 0.29 -0.15 0.31 -0.13 0.31 -0.13 0.32 -0.11 0.33 -0.09 0.34 -0.08 0.34 -0.06 0.34 -0.04 0.35 -0.03 0.36 -0.01 0 0z"/>
  <path fill="#C7E3D8" d="M348.27 64.91c2.29,0 4.15,1.86 4.15,4.15 0,2.29 -1.86,4.15 -4.15,4.15 -2.29,0 -4.15,-1.86 -4.15,-4.15 0,-2.29 1.86,-4.15 4.15,-4.15z"/>
  <path fill="#C7E3D8" fill-rule="nonzero" d="M19.06 183.88l-2.43 0 0 0 0 -0.23 -0.02 -0.23 -0.03 -0.23 -0.04 -0.22 -0.05 -0.21 -0.06 -0.22 -0.07 -0.21 -0.08 -0.2 -0.09 -0.2 -0.1 -0.19 -0.1 -0.19 -0.12 -0.18 -0.12 -0.18 -0.14 -0.17 -0.14 -0.16 -0.15 -0.15 -0.16 -0.15 -0.16 -0.15 -0.17 -0.13 -0.17 -0.12 -0.19 -0.12 -0.18 -0.11 -0.2 -0.1 -0.2 -0.09 -0.2 -0.08 -0.21 -0.07 -0.21 -0.06 -0.22 -0.05 -0.22 -0.04 -0.22 -0.03 -0.23 -0.01 -0.23 -0.01 0 -2.42 0.35 0.01 0.35 0.03 0.35 0.04 0.34 0.06 0.33 0.08 0.33 0.09 0.32 0.11 0.32 0.12 0.3 0.14 0.3 0.15 0.29 0.17 0.28 0.18 0.27 0.19 0.26 0.21 0.25 0.21 0.24 0.23 0.23 0.24 0.22 0.25 0.2 0.26 0.2 0.27 0.18 0.28 0.16 0.3 0.15 0.29 0.14 0.31 0.13 0.31 0.11 0.32 0.09 0.33 0.08 0.34 0.06 0.34 0.04 0.34 0.03 0.35 0.01 0.36 0 0zm-6.91 6.91l0 -2.43 0 0 0.23 0 0.23 -0.02 0.22 -0.03 0.22 -0.04 0.22 -0.05 0.21 -0.06 0.21 -0.07 0.2 -0.08 0.2 -0.09 0.2 -0.1 0.18 -0.1 0.19 -0.12 0.17 -0.13 0.17 -0.13 0.16 -0.14 0.16 -0.15 0.15 -0.16 0.14 -0.16 0.13 -0.17 0.13 -0.18 0.12 -0.18 0.1 -0.18 0.1 -0.2 0.09 -0.2 0.08 -0.2 0.07 -0.21 0.06 -0.21 0.05 -0.22 0.04 -0.22 0.03 -0.22 0.02 -0.23 0 -0.23 2.43 0 -0.01 0.35 -0.03 0.35 -0.04 0.35 -0.06 0.34 -0.08 0.33 -0.09 0.33 -0.11 0.32 -0.13 0.32 -0.14 0.3 -0.15 0.3 -0.17 0.29 -0.17 0.28 -0.2 0.27 -0.2 0.26 -0.22 0.25 -0.23 0.24 -0.24 0.23 -0.25 0.22 -0.26 0.2 -0.27 0.2 -0.28 0.17 -0.29 0.17 -0.3 0.15 -0.3 0.14 -0.32 0.13 -0.32 0.1 -0.33 0.1 -0.33 0.08 -0.34 0.06 -0.35 0.04 -0.35 0.03 -0.35 0.01 0 0zm-6.91 -6.91l2.42 0 0 0 0.01 0.23 0.01 0.23 0.03 0.22 0.04 0.22 0.05 0.22 0.06 0.21 0.07 0.21 0.08 0.2 0.09 0.2 0.1 0.2 0.11 0.18 0.12 0.18 0.12 0.18 0.13 0.17 0.15 0.16 0.14 0.16 0.16 0.15 0.17 0.14 0.16 0.13 0.18 0.13 0.18 0.12 0.19 0.1 0.19 0.1 0.2 0.09 0.2 0.08 0.21 0.07 0.22 0.06 0.21 0.05 0.22 0.04 0.23 0.03 0.23 0.02 0.23 0 0 2.43 -0.36 -0.01 -0.35 -0.03 -0.34 -0.04 -0.34 -0.06 -0.34 -0.08 -0.33 -0.1 -0.32 -0.1 -0.31 -0.13 -0.31 -0.14 -0.29 -0.15 -0.3 -0.17 -0.28 -0.17 -0.27 -0.2 -0.26 -0.2 -0.25 -0.22 -0.24 -0.23 -0.23 -0.24 -0.21 -0.25 -0.21 -0.26 -0.19 -0.27 -0.18 -0.28 -0.17 -0.29 -0.15 -0.3 -0.14 -0.3 -0.12 -0.32 -0.11 -0.32 -0.09 -0.33 -0.08 -0.33 -0.06 -0.34 -0.05 -0.35 -0.02 -0.35 -0.01 -0.35 0 0zm6.91 -6.91l0 2.42 0 0 -0.23 0.01 -0.23 0.01 -0.23 0.03 -0.22 0.04 -0.21 0.05 -0.22 0.06 -0.21 0.07 -0.2 0.08 -0.2 0.09 -0.19 0.1 -0.19 0.11 -0.18 0.12 -0.18 0.12 -0.16 0.13 -0.17 0.15 -0.16 0.15 -0.14 0.15 -0.15 0.16 -0.13 0.17 -0.12 0.18 -0.12 0.18 -0.11 0.19 -0.1 0.19 -0.09 0.2 -0.08 0.2 -0.07 0.21 -0.06 0.22 -0.05 0.21 -0.04 0.22 -0.03 0.23 -0.01 0.23 -0.01 0.23 -2.42 0 0.01 -0.36 0.02 -0.35 0.05 -0.34 0.06 -0.34 0.08 -0.34 0.09 -0.33 0.11 -0.32 0.12 -0.31 0.14 -0.31 0.15 -0.29 0.17 -0.3 0.18 -0.28 0.19 -0.27 0.21 -0.26 0.21 -0.25 0.23 -0.24 0.24 -0.23 0.25 -0.21 0.26 -0.21 0.27 -0.19 0.28 -0.18 0.3 -0.17 0.29 -0.15 0.31 -0.14 0.31 -0.12 0.32 -0.11 0.33 -0.09 0.34 -0.08 0.34 -0.06 0.34 -0.04 0.35 -0.03 0.36 -0.01 0 0z"/>
  <path fill="#C7E3D8" d="M296.86 162.38c2.29,0 4.15,1.86 4.15,4.16 0,2.29 -1.86,4.15 -4.15,4.15 -2.29,0 -4.15,-1.86 -4.15,-4.15 0,-2.3 1.86,-4.16 4.15,-4.16z"/>
  <path fill="#C7E3D8" fill-rule="nonzero" d="M364.53 103.62l-2.42 0 0 0 0 -0.23 -0.02 -0.23 -0.03 -0.22 -0.04 -0.22 -0.05 -0.22 -0.06 -0.21 -0.07 -0.21 -0.08 -0.2 -0.09 -0.2 -0.1 -0.2 -0.11 -0.18 -0.11 -0.18 -0.13 -0.18 -0.13 -0.17 -0.14 -0.16 -0.15 -0.16 -0.16 -0.15 -0.16 -0.14 -0.17 -0.13 -0.18 -0.13 -0.18 -0.11 -0.19 -0.11 -0.19 -0.1 -0.2 -0.09 -0.2 -0.08 -0.21 -0.07 -0.21 -0.06 -0.22 -0.05 -0.22 -0.04 -0.23 -0.03 -0.22 -0.02 -0.23 0 0 -2.42 0.35 0 0.35 0.03 0.35 0.05 0.34 0.06 0.33 0.07 0.33 0.1 0.32 0.11 0.32 0.12 0.3 0.14 0.3 0.15 0.29 0.17 0.28 0.18 0.27 0.19 0.26 0.2 0.25 0.22 0.24 0.23 0.23 0.24 0.21 0.25 0.21 0.26 0.19 0.27 0.18 0.28 0.17 0.29 0.15 0.3 0.14 0.3 0.12 0.32 0.11 0.32 0.1 0.33 0.07 0.33 0.06 0.34 0.05 0.35 0.03 0.35 0 0.35 0 0zm-6.9 6.91l0 -2.42 0 0 0.23 -0.01 0.22 -0.01 0.23 -0.03 0.22 -0.04 0.22 -0.05 0.21 -0.06 0.21 -0.07 0.2 -0.08 0.2 -0.09 0.19 -0.1 0.19 -0.11 0.18 -0.12 0.18 -0.12 0.17 -0.13 0.16 -0.14 0.16 -0.16 0.15 -0.15 0.14 -0.16 0.13 -0.17 0.13 -0.18 0.12 -0.18 0.1 -0.19 0.1 -0.19 0.09 -0.2 0.08 -0.2 0.07 -0.21 0.06 -0.21 0.05 -0.22 0.04 -0.22 0.03 -0.23 0.02 -0.23 0 -0.23 2.42 0 0 0.36 -0.03 0.35 -0.05 0.34 -0.06 0.34 -0.07 0.34 -0.1 0.33 -0.11 0.32 -0.12 0.31 -0.14 0.31 -0.15 0.3 -0.17 0.29 -0.18 0.28 -0.19 0.27 -0.21 0.26 -0.21 0.25 -0.23 0.24 -0.24 0.23 -0.25 0.21 -0.26 0.21 -0.27 0.19 -0.28 0.18 -0.29 0.17 -0.3 0.15 -0.3 0.14 -0.32 0.12 -0.32 0.11 -0.33 0.09 -0.33 0.08 -0.34 0.06 -0.35 0.05 -0.35 0.02 -0.35 0.01 0 0zm-6.91 -6.91l2.42 0 0 0 0 0.23 0.02 0.23 0.03 0.23 0.04 0.22 0.05 0.22 0.06 0.21 0.07 0.21 0.08 0.2 0.09 0.2 0.1 0.19 0.11 0.19 0.12 0.18 0.12 0.18 0.13 0.17 0.14 0.16 0.15 0.15 0.16 0.16 0.16 0.14 0.17 0.13 0.18 0.12 0.18 0.12 0.19 0.11 0.19 0.1 0.2 0.09 0.2 0.08 0.21 0.07 0.21 0.06 0.22 0.05 0.22 0.04 0.23 0.03 0.22 0.01 0.24 0.01 0 2.42 -0.36 -0.01 -0.35 -0.02 -0.34 -0.05 -0.34 -0.06 -0.34 -0.08 -0.33 -0.09 -0.32 -0.11 -0.31 -0.12 -0.31 -0.14 -0.3 -0.15 -0.29 -0.17 -0.28 -0.18 -0.27 -0.19 -0.26 -0.21 -0.25 -0.21 -0.24 -0.23 -0.23 -0.24 -0.21 -0.25 -0.21 -0.26 -0.19 -0.27 -0.18 -0.28 -0.17 -0.29 -0.15 -0.3 -0.14 -0.31 -0.12 -0.31 -0.11 -0.32 -0.1 -0.33 -0.07 -0.34 -0.06 -0.34 -0.05 -0.34 -0.02 -0.35 -0.01 -0.36 0 0zm6.91 -6.9l0 2.42 0 0 -0.24 0 -0.22 0.02 -0.23 0.03 -0.22 0.04 -0.22 0.05 -0.21 0.06 -0.21 0.07 -0.2 0.08 -0.2 0.09 -0.19 0.1 -0.19 0.11 -0.18 0.11 -0.18 0.13 -0.17 0.13 -0.16 0.14 -0.16 0.15 -0.14 0.16 -0.15 0.16 -0.13 0.17 -0.12 0.18 -0.12 0.18 -0.11 0.18 -0.1 0.2 -0.09 0.2 -0.08 0.2 -0.07 0.21 -0.06 0.21 -0.05 0.22 -0.04 0.22 -0.03 0.22 -0.02 0.23 0 0.23 -2.42 0 0.01 -0.35 0.02 -0.35 0.05 -0.35 0.06 -0.34 0.07 -0.33 0.1 -0.33 0.11 -0.32 0.12 -0.32 0.14 -0.3 0.15 -0.3 0.17 -0.29 0.18 -0.28 0.19 -0.27 0.21 -0.26 0.21 -0.25 0.23 -0.24 0.24 -0.23 0.25 -0.22 0.26 -0.2 0.27 -0.19 0.28 -0.18 0.29 -0.17 0.3 -0.15 0.31 -0.14 0.31 -0.12 0.32 -0.11 0.33 -0.1 0.34 -0.07 0.34 -0.06 0.34 -0.05 0.35 -0.03 0.36 0 0 0z"/>
  <path fill="#C7E3D8" d="M277.35 13.13l1.26 0.36 0.97 -3.4c0.06,-0.24 0.32,-0.38 0.56,-0.31l7.73 2.19c0.24,0.07 0.38,0.32 0.31,0.56l-0.96 3.4 8.67 2.46 0.96 -3.4c0.07,-0.24 0.32,-0.38 0.56,-0.31l7.73 2.19c0.24,0.07 0.38,0.32 0.32,0.56l-0.97 3.4 8.79 2.5 0.97 -3.4c0.07,-0.24 0.32,-0.38 0.56,-0.32l7.73 2.2c0.24,0.07 0.38,0.32 0.32,0.56l-0.97 3.4 8.73 2.47 0.97 -3.4c0.06,-0.24 0.32,-0.38 0.56,-0.31l7.73 2.19c0.24,0.07 0.38,0.32 0.31,0.56l-0.96 3.41 1.28 0.36c0.69,0.19 1.09,0.92 0.9,1.61l-4.57 16.1c-0.2,0.69 -0.92,1.1 -1.61,0.9l-63.16 -17.91c-0.69,-0.2 -1.1,-0.92 -0.9,-1.62l4.57 -16.1c0.19,-0.69 0.92,-1.09 1.61,-0.9z"/>
  <path fill="#C7E3D8" d="M0 45.92l15.58 -3.08c3.22,-0.48 3.82,-3.55 2.26,-5.86l-10.49 -17.7c-1.55,-2.71 -5.1,-2.33 -6.15,0.18l-1.2 2.78 0 13.39 3.39 -7.87c0.49,-1.17 2.15,-1.35 2.87,-0.09l4.89 8.25c0.72,1.08 0.44,2.5 -1.06,2.73l-8.96 1.77c-0.43,0.1 -0.81,0.13 -1.13,0.08l0 5.42zm0 20.19l0 -10.23 4 6.75c0.72,1.26 2.38,1.08 2.87,-0.08l4.32 -10.03c0.88,-1.82 -0.03,-3.11 -2.06,-2.64l-8.96 1.78c-0.06,0.01 -0.12,0.02 -0.17,0.03l0 -5.27 13.92 -2.76c4.36,-1.02 6.31,1.75 4.42,5.66l-9.28 21.53c-1.05,2.5 -4.6,2.89 -6.15,0.18l-2.91 -4.92zm48.32 -22.46c1.63,-3.77 -0.06,-6.45 -3.82,-5.46l-16.61 3.68c-2.78,0.46 -3.31,3.42 -1.96,5.66l9.06 17.08c1.34,2.62 4.41,2.25 5.31,-0.17l8.02 -20.79zm-6.17 3.09c0.76,-1.75 -0.03,-3 -1.78,-2.54l-7.75 1.71c-1.29,0.22 -1.53,1.6 -0.91,2.64l4.23 7.96c0.62,1.22 2.05,1.04 2.47,-0.08l3.74 -9.69zm-16.74 -11.31c-1.63,3.77 0.06,6.45 3.82,5.47l16.61 -3.68c2.78,-0.46 3.31,-3.42 1.96,-5.66l-9.06 -17.09c-1.34,-2.61 -4.4,-2.24 -5.31,0.18l-8.02 20.78zm6.18 -3.09c-0.76,1.76 0.02,3.01 1.78,2.55l7.74 -1.71c1.29,-0.22 1.53,-1.6 0.91,-2.64l-4.23 -7.96c-0.62,-1.22 -2.05,-1.05 -2.47,0.08l-3.73 9.68zm-20.95 37.32c-1.89,4.07 0.07,6.67 4.42,5.28l16.98 -4.36c3.22,-0.76 3.93,-3.91 2.37,-6.09l-9.42 -16.79c-1.55,-2.58 -5.1,-1.89 -6.15,0.71l-8.2 21.25zm6 -4.23c-0.88,1.9 0.03,3.11 2.06,2.46l7.34 -1.71c1.5,-0.36 1.92,-1.81 1.19,-2.83l-3.33 -7.16c-0.72,-1.2 -2.38,-0.88 -2.87,0.33l-4.39 8.91zm15.83 -49.71c1.89,-3.9 -0.07,-6.68 -4.43,-5.66l-18.25 2.33c-3.22,0.49 -3.73,4.04 -2.17,6.36l10.5 17.7c1.54,2.71 5.09,2.32 6.15,-0.18l8.2 -20.55zm-6.49 3.08c0.88,-1.82 -0.03,-3.11 -2.06,-2.64l-8.55 0.92c-1.5,0.22 -1.78,1.65 -1.05,2.73l4.89 8.24c0.72,1.26 2.37,1.08 2.86,-0.08l3.91 -9.17z"/>
  <path fill="#C7E3D8" d="M322.84 143.55l44.64 14.51 -11.23 34.57 -14.54 -4.73 4.89 -15.04 -0.01 0c1.36,-4.17 -1.03,-8.69 -5.33,-10.08 -4.29,-1.4 -8.88,0.85 -10.23,5.02 -0.05,0.14 -0.09,0.28 -0.13,0.43l-4.75 14.61 -14.55 -4.72 11.24 -34.57zm34.54 -30.33l5.28 20.36 -21.52 -6.99 16.24 -13.37zm-19.93 13.81l27.93 9.08 -5.8 17.86 -27.94 -9.08 5.81 -17.86z"/>
  <path fill="#C7E3D8" d="M11.64 151.08l1.36 -0.36 -0.96 -3.65c-0.07,-0.26 0.09,-0.53 0.35,-0.6l8.31 -2.18c0.25,-0.07 0.52,0.09 0.59,0.35l0.96 3.65 9.31 -2.45 -0.96 -3.65c-0.07,-0.26 0.09,-0.53 0.35,-0.59l8.31 -2.19c0.25,-0.06 0.52,0.09 0.59,0.35l0.96 3.65 1.24 -0.33c0.74,-0.19 1.51,0.26 1.71,1l4.54 17.3c0.2,0.74 -0.25,1.51 -0.99,1.7l-30.41 7.99c-0.74,0.2 -1.51,-0.25 -1.7,-0.99l-4.55 -17.3c-0.19,-0.74 0.25,-1.51 0.99,-1.7z"/>
  <path fill="#C7E3D8" d="M221.95 161.81c2.42,-4.99 -0.09,-8.54 -5.65,-7.23l-24.59 4.86c-4.12,0.62 -4.89,4.54 -2.9,7.5l13.42 22.61c1.97,3.47 6.51,2.97 7.85,-0.23l11.87 -27.51zm-9.14 4.09c1.12,-2.32 -0.04,-3.98 -2.64,-3.37l-11.45 2.27c-1.92,0.29 -2.28,2.11 -1.35,3.49l6.25 10.54c0.92,1.61 3.03,1.38 3.66,-0.11l5.53 -12.82z"/>
  <path fill="#C7E3D8" d="M121.64 186.95l-39.07 12.7 43.2 0 -4.13 -12.7zm-34.53 -30.33l-5.29 20.36 21.52 -6.99 -16.23 -13.37zm19.92 13.81l-27.93 9.08 5.81 17.86 27.93 -9.08 -5.81 -17.86z"/>
  <path fill="#C7E3D8" d="M196.64 0l-35.69 11.6 11.24 34.57 14.54 -4.73 -4.89 -15.04 0.01 0c-1.36,-4.17 1.03,-8.69 5.32,-10.08 4.3,-1.4 8.88,0.85 10.24,5.02 0.05,0.14 0.09,0.28 0.13,0.43l4.75 14.62 14.54 -4.73 -10.29 -31.66 -9.9 0zm-30.22 0l25.54 0 -23.1 7.51 -2.44 -7.51z"/>
  <path fill="#C7E3D8" fill-rule="nonzero" d="M246.68 20.19l-2.42 0 0 0 0 -0.23 -0.02 -0.23 -0.03 -0.23 -0.04 -0.22 -0.05 -0.21 -0.06 -0.22 -0.07 -0.21 -0.08 -0.2 -0.09 -0.2 -0.1 -0.19 -0.11 -0.19 -0.11 -0.18 -0.13 -0.17 -0.13 -0.17 -0.14 -0.17 -0.15 -0.16 -0.16 -0.14 -0.16 -0.15 -0.17 -0.13 -0.18 -0.12 -0.18 -0.12 -0.18 -0.11 -0.2 -0.1 -0.2 -0.09 -0.2 -0.08 -0.21 -0.07 -0.21 -0.06 -0.22 -0.05 -0.22 -0.04 -0.23 -0.03 -0.22 -0.01 -0.23 -0.01 0 -2.42 0.35 0.01 0.35 0.02 0.35 0.05 0.34 0.06 0.33 0.08 0.33 0.09 0.32 0.11 0.32 0.12 0.3 0.14 0.3 0.15 0.29 0.17 0.28 0.18 0.27 0.19 0.26 0.21 0.25 0.21 0.24 0.23 0.23 0.24 0.22 0.25 0.2 0.26 0.19 0.27 0.18 0.28 0.17 0.3 0.15 0.29 0.14 0.31 0.13 0.31 0.1 0.32 0.1 0.33 0.08 0.34 0.06 0.34 0.04 0.34 0.03 0.35 0 0.36 0 0zm-6.9 6.91l0 -2.43 0 0 0.23 0 0.22 -0.02 0.23 -0.03 0.22 -0.04 0.22 -0.05 0.21 -0.06 0.21 -0.07 0.2 -0.08 0.2 -0.09 0.2 -0.1 0.18 -0.1 0.18 -0.12 0.18 -0.12 0.17 -0.14 0.16 -0.14 0.16 -0.15 0.15 -0.16 0.14 -0.16 0.13 -0.17 0.13 -0.18 0.11 -0.18 0.11 -0.18 0.1 -0.2 0.09 -0.2 0.08 -0.2 0.07 -0.21 0.06 -0.21 0.05 -0.22 0.04 -0.22 0.03 -0.22 0.02 -0.23 0 -0.23 2.42 0 0 0.35 -0.03 0.35 -0.04 0.35 -0.06 0.34 -0.08 0.33 -0.1 0.33 -0.1 0.32 -0.13 0.32 -0.14 0.3 -0.15 0.3 -0.17 0.29 -0.18 0.28 -0.19 0.27 -0.2 0.26 -0.22 0.25 -0.23 0.24 -0.24 0.23 -0.25 0.22 -0.26 0.2 -0.27 0.2 -0.28 0.18 -0.29 0.16 -0.3 0.15 -0.3 0.14 -0.32 0.13 -0.32 0.11 -0.33 0.09 -0.33 0.08 -0.34 0.06 -0.35 0.04 -0.35 0.03 -0.35 0.01 0 0zm-6.91 -6.91l2.42 0 0 0 0 0.23 0.02 0.23 0.03 0.22 0.04 0.22 0.05 0.22 0.06 0.21 0.07 0.21 0.08 0.2 0.09 0.2 0.1 0.2 0.11 0.18 0.12 0.18 0.12 0.18 0.13 0.17 0.15 0.16 0.14 0.16 0.16 0.15 0.16 0.14 0.17 0.14 0.18 0.12 0.18 0.12 0.19 0.1 0.19 0.1 0.2 0.09 0.2 0.08 0.21 0.07 0.21 0.06 0.22 0.05 0.22 0.04 0.23 0.03 0.22 0.02 0.24 0 0 2.43 -0.36 -0.01 -0.35 -0.03 -0.34 -0.04 -0.34 -0.06 -0.34 -0.08 -0.33 -0.09 -0.32 -0.11 -0.31 -0.13 -0.31 -0.14 -0.3 -0.15 -0.29 -0.16 -0.28 -0.18 -0.27 -0.2 -0.26 -0.2 -0.25 -0.22 -0.24 -0.23 -0.23 -0.24 -0.21 -0.25 -0.21 -0.26 -0.19 -0.27 -0.18 -0.28 -0.17 -0.29 -0.15 -0.3 -0.14 -0.3 -0.12 -0.32 -0.11 -0.32 -0.09 -0.33 -0.08 -0.33 -0.06 -0.34 -0.05 -0.35 -0.02 -0.35 -0.01 -0.35 0 0zm6.91 -6.91l0 2.42 0 0 -0.24 0.01 -0.22 0.01 -0.23 0.03 -0.22 0.04 -0.22 0.05 -0.21 0.06 -0.21 0.07 -0.2 0.08 -0.2 0.09 -0.19 0.1 -0.19 0.11 -0.18 0.12 -0.18 0.12 -0.17 0.13 -0.16 0.15 -0.16 0.14 -0.14 0.16 -0.15 0.17 -0.13 0.17 -0.12 0.17 -0.12 0.18 -0.11 0.19 -0.1 0.19 -0.09 0.2 -0.08 0.2 -0.07 0.21 -0.06 0.22 -0.05 0.21 -0.04 0.22 -0.03 0.23 -0.02 0.23 0 0.23 -2.42 0 0.01 -0.36 0.02 -0.35 0.05 -0.34 0.06 -0.34 0.08 -0.34 0.09 -0.33 0.11 -0.32 0.12 -0.31 0.14 -0.31 0.15 -0.29 0.17 -0.3 0.18 -0.28 0.19 -0.27 0.21 -0.26 0.21 -0.25 0.23 -0.24 0.24 -0.23 0.25 -0.21 0.26 -0.21 0.27 -0.19 0.28 -0.18 0.29 -0.17 0.3 -0.15 0.31 -0.14 0.31 -0.12 0.32 -0.11 0.33 -0.09 0.34 -0.08 0.34 -0.06 0.34 -0.05 0.35 -0.02 0.36 -0.01 0 0z"/>
  <path fill="#C7E3D8" d="M118.95 16.85c2.42,-4.99 -0.09,-8.54 -5.65,-7.23l-24.59 4.86c-4.11,0.62 -4.89,4.53 -2.89,7.5l13.41 22.61c1.97,3.46 6.51,2.97 7.85,-0.23l11.87 -27.51zm-9.14 4.09c1.12,-2.33 -0.04,-3.98 -2.64,-3.37l-11.45 2.27c-1.92,0.28 -2.28,2.11 -1.35,3.49l6.25 10.53c0.92,1.62 3.03,1.39 3.66,-0.1l5.53 -12.82z"/>
  <path fill="#C7E3D8" d="M40.77 96.4c2.41,-4.99 -0.09,-8.53 -5.66,-7.23l-24.58 4.87c-4.12,0.61 -4.89,4.53 -2.9,7.49l13.42 22.62c1.97,3.46 6.51,2.97 7.85,-0.23l11.87 -27.52zm-9.14 4.09c1.12,-2.32 -0.04,-3.97 -2.64,-3.37l-11.45 2.27c-1.92,0.29 -2.28,2.11 -1.35,3.49l6.25 10.54c0.92,1.61 3.03,1.38 3.66,-0.11l5.53 -12.82z"/>
</svg>
