<svg xmlns="http://www.w3.org/2000/svg" xml:space="preserve" width="373px" height="200px" version="1.1" style="shape-rendering:geometricPrecision; text-rendering:geometricPrecision; image-rendering:optimizeQuality; fill-rule:evenodd; clip-rule:evenodd" viewBox="0 0 373 200"  xmlns:xlink="http://www.w3.org/1999/xlink">
  <path fill="#F9D5D7" d="M10.67 -0.4l350.58 0c6.17,0 11.21,5.05 11.21,11.21l0 177.23c0,6.16 -5.04,11.21 -11.21,11.21l-350.58 0c-6.16,0 -11.21,-5.05 -11.21,-11.21l0 -177.23c0,-6.16 5.05,-11.21 11.21,-11.21z"/>
  <path fill="#F9D5D7" d="M10.67 -0.4l350.58 0c6.17,0 11.21,5.05 11.21,11.21l0 177.23c0,6.16 -5.04,11.21 -11.21,11.21l-350.58 0c-6.16,0 -11.21,-5.05 -11.21,-11.21l0 -177.23c0,-6.16 5.05,-11.21 11.21,-11.21zm86.31 53.12l177.97 0c5.92,0 10.76,4.84 10.76,10.76l0 71.89c0,5.92 -4.84,10.76 -10.76,10.76l-177.97 0c-5.92,0 -10.77,-4.84 -10.77,-10.76l0 -71.89c0,-5.92 4.85,-10.76 10.77,-10.76z"/>
  <path fill="#E4C0C1" fill-rule="nonzero" d="M101.2 174.31l-2.42 0 0 0 -0.01 -0.23 -0.02 -0.22 -0.03 -0.23 -0.04 -0.22 -0.05 -0.22 -0.06 -0.21 -0.07 -0.21 -0.08 -0.2 -0.09 -0.2 -0.1 -0.19 -0.1 -0.19 -0.12 -0.18 -0.12 -0.18 -0.14 -0.17 -0.14 -0.16 -0.15 -0.16 -0.15 -0.15 -0.17 -0.14 -0.17 -0.13 -0.17 -0.13 -0.19 -0.11 -0.18 -0.11 -0.2 -0.1 -0.2 -0.09 -0.2 -0.08 -0.21 -0.07 -0.21 -0.06 -0.22 -0.05 -0.21 -0.04 -0.23 -0.03 -0.23 -0.02 -0.23 0 0 -2.42 0.35 0 0.36 0.03 0.34 0.05 0.34 0.06 0.34 0.07 0.32 0.1 0.32 0.11 0.32 0.12 0.3 0.14 0.3 0.15 0.29 0.17 0.28 0.18 0.27 0.19 0.26 0.21 0.25 0.21 0.24 0.23 0.23 0.24 0.22 0.25 0.2 0.26 0.2 0.27 0.18 0.28 0.16 0.29 0.16 0.3 0.13 0.3 0.13 0.32 0.11 0.32 0.09 0.33 0.08 0.33 0.06 0.34 0.04 0.35 0.03 0.35 0.01 0.35 0 0zm-6.91 6.91l0 -2.42 0 0 0.23 -0.01 0.23 -0.01 0.23 -0.03 0.21 -0.04 0.22 -0.05 0.21 -0.06 0.21 -0.07 0.2 -0.08 0.2 -0.09 0.2 -0.1 0.18 -0.11 0.19 -0.12 0.17 -0.12 0.17 -0.13 0.17 -0.15 0.15 -0.14 0.15 -0.16 0.14 -0.16 0.14 -0.17 0.12 -0.18 0.12 -0.18 0.1 -0.19 0.1 -0.19 0.09 -0.2 0.08 -0.2 0.07 -0.21 0.06 -0.21 0.05 -0.22 0.04 -0.22 0.03 -0.23 0.02 -0.22 0.01 -0.24 2.42 0 -0.01 0.36 -0.03 0.35 -0.04 0.34 -0.06 0.34 -0.08 0.34 -0.09 0.33 -0.11 0.32 -0.13 0.31 -0.13 0.31 -0.16 0.3 -0.16 0.29 -0.18 0.28 -0.2 0.27 -0.2 0.26 -0.22 0.25 -0.23 0.24 -0.24 0.23 -0.25 0.21 -0.26 0.21 -0.27 0.19 -0.28 0.18 -0.29 0.17 -0.3 0.15 -0.3 0.14 -0.32 0.12 -0.32 0.11 -0.32 0.09 -0.34 0.08 -0.34 0.06 -0.34 0.05 -0.36 0.02 -0.35 0.01 0 0zm-6.91 -6.91l2.42 0 0 0 0.01 0.24 0.02 0.22 0.02 0.23 0.04 0.22 0.05 0.22 0.06 0.21 0.07 0.21 0.08 0.2 0.09 0.2 0.1 0.19 0.11 0.19 0.12 0.18 0.12 0.18 0.14 0.17 0.14 0.16 0.15 0.16 0.15 0.14 0.17 0.15 0.16 0.13 0.18 0.12 0.18 0.12 0.19 0.11 0.19 0.1 0.2 0.09 0.2 0.08 0.22 0.07 0.21 0.06 0.21 0.05 0.22 0.04 0.23 0.03 0.23 0.01 0.23 0.01 0 2.42 -0.36 -0.01 -0.35 -0.02 -0.34 -0.05 -0.34 -0.06 -0.34 -0.08 -0.33 -0.09 -0.32 -0.11 -0.31 -0.12 -0.31 -0.14 -0.29 -0.15 -0.29 -0.17 -0.28 -0.18 -0.27 -0.19 -0.27 -0.21 -0.25 -0.21 -0.24 -0.23 -0.23 -0.24 -0.21 -0.25 -0.21 -0.26 -0.19 -0.27 -0.18 -0.28 -0.17 -0.29 -0.15 -0.3 -0.14 -0.31 -0.12 -0.31 -0.11 -0.32 -0.09 -0.33 -0.08 -0.34 -0.06 -0.34 -0.04 -0.34 -0.03 -0.35 -0.01 -0.36 0 0zm6.91 -6.9l0 2.42 0 0 -0.23 0 -0.23 0.02 -0.23 0.03 -0.22 0.04 -0.21 0.05 -0.21 0.06 -0.22 0.07 -0.2 0.08 -0.2 0.09 -0.19 0.1 -0.19 0.11 -0.18 0.11 -0.17 0.13 -0.17 0.13 -0.17 0.14 -0.15 0.15 -0.15 0.16 -0.14 0.16 -0.14 0.17 -0.12 0.18 -0.12 0.18 -0.11 0.19 -0.1 0.19 -0.09 0.2 -0.08 0.2 -0.07 0.21 -0.06 0.21 -0.05 0.22 -0.04 0.22 -0.02 0.23 -0.02 0.22 -0.01 0.23 -2.42 0 0.01 -0.35 0.03 -0.35 0.04 -0.35 0.06 -0.34 0.08 -0.33 0.09 -0.33 0.11 -0.32 0.12 -0.32 0.14 -0.3 0.15 -0.3 0.17 -0.29 0.18 -0.28 0.19 -0.27 0.21 -0.26 0.21 -0.25 0.23 -0.24 0.24 -0.23 0.25 -0.21 0.26 -0.21 0.28 -0.19 0.28 -0.18 0.29 -0.17 0.29 -0.15 0.31 -0.14 0.31 -0.12 0.32 -0.11 0.33 -0.1 0.34 -0.07 0.34 -0.06 0.34 -0.05 0.35 -0.03 0.36 0 0 0z"/>
  <path fill="#EAC9CA" d="M20.17 73.45c2.29,0 4.15,1.86 4.15,4.15 0,2.3 -1.86,4.16 -4.15,4.16 -2.3,0 -4.16,-1.86 -4.16,-4.16 0,-2.29 1.86,-4.15 4.16,-4.15z"/>
  <path fill="#EAC9CA" d="M39.47 177.25c2.3,0 4.16,1.86 4.16,4.15 0,2.29 -1.86,4.15 -4.16,4.15 -2.29,0 -4.15,-1.86 -4.15,-4.15 0,-2.29 1.86,-4.15 4.15,-4.15z"/>
  <path fill="#EAC9CA" d="M183.24 12.97c2.29,0 4.15,1.86 4.15,4.15 0,2.29 -1.86,4.15 -4.15,4.15 -2.3,0 -4.16,-1.86 -4.16,-4.15 0,-2.29 1.86,-4.15 4.16,-4.15z"/>
  <path fill="#EAC9CA" d="M356.16 171.31c2.3,0 4.15,1.86 4.15,4.15 0,2.29 -1.85,4.15 -4.15,4.15 -2.29,0 -4.15,-1.86 -4.15,-4.15 0,-2.29 1.86,-4.15 4.15,-4.15z"/>
  <path fill="#EAC9CA" d="M197.73 180.85c2.29,0 4.15,1.86 4.15,4.15 0,2.29 -1.86,4.15 -4.15,4.15 -2.29,0 -4.15,-1.86 -4.15,-4.15 0,-2.29 1.86,-4.15 4.15,-4.15z"/>
  <path fill="#EAC9CA" fill-rule="nonzero" d="M228.5 162.25l-2.42 0 0 0 0 -0.23 -0.02 -0.23 -0.03 -0.23 -0.04 -0.22 -0.05 -0.21 -0.06 -0.21 -0.07 -0.21 -0.08 -0.2 -0.09 -0.2 -0.1 -0.2 -0.11 -0.18 -0.12 -0.19 -0.12 -0.17 -0.13 -0.17 -0.15 -0.17 -0.14 -0.15 -0.16 -0.15 -0.16 -0.14 -0.17 -0.14 -0.18 -0.12 -0.18 -0.12 -0.19 -0.1 -0.19 -0.1 -0.2 -0.09 -0.2 -0.08 -0.21 -0.07 -0.21 -0.06 -0.22 -0.05 -0.22 -0.04 -0.23 -0.03 -0.22 -0.02 -0.24 -0.01 0 -2.42 0.36 0.01 0.35 0.03 0.34 0.04 0.34 0.06 0.34 0.08 0.33 0.09 0.32 0.11 0.31 0.13 0.31 0.13 0.3 0.16 0.29 0.16 0.28 0.18 0.27 0.2 0.26 0.2 0.25 0.22 0.24 0.23 0.23 0.24 0.21 0.25 0.21 0.26 0.19 0.27 0.18 0.28 0.17 0.29 0.15 0.3 0.14 0.3 0.12 0.32 0.11 0.32 0.1 0.32 0.07 0.34 0.06 0.34 0.05 0.34 0.02 0.36 0.01 0.35 0 0zm-6.91 6.91l0 -2.42 0 0 0.24 -0.01 0.22 -0.02 0.23 -0.03 0.22 -0.03 0.22 -0.05 0.21 -0.06 0.21 -0.08 0.2 -0.07 0.2 -0.1 0.19 -0.09 0.19 -0.11 0.18 -0.12 0.18 -0.12 0.17 -0.14 0.16 -0.14 0.16 -0.15 0.14 -0.15 0.15 -0.17 0.13 -0.17 0.12 -0.17 0.12 -0.18 0.11 -0.19 0.1 -0.2 0.09 -0.19 0.08 -0.2 0.07 -0.22 0.06 -0.21 0.05 -0.21 0.04 -0.22 0.03 -0.23 0.02 -0.23 0 -0.23 2.42 0 -0.01 0.36 -0.02 0.35 -0.05 0.34 -0.06 0.34 -0.07 0.34 -0.1 0.32 -0.11 0.32 -0.12 0.32 -0.14 0.31 -0.15 0.29 -0.17 0.29 -0.18 0.28 -0.19 0.28 -0.21 0.26 -0.21 0.24 -0.23 0.25 -0.24 0.23 -0.25 0.21 -0.26 0.21 -0.27 0.19 -0.28 0.18 -0.29 0.17 -0.3 0.15 -0.31 0.14 -0.31 0.12 -0.32 0.11 -0.33 0.09 -0.34 0.08 -0.34 0.06 -0.34 0.04 -0.35 0.03 -0.36 0.01 0 0zm-6.9 -6.91l2.42 0 0 0 0 0.23 0.02 0.23 0.03 0.23 0.04 0.22 0.05 0.21 0.06 0.21 0.07 0.22 0.08 0.2 0.09 0.19 0.1 0.2 0.11 0.19 0.11 0.18 0.13 0.18 0.13 0.16 0.14 0.17 0.15 0.15 0.16 0.15 0.16 0.14 0.17 0.14 0.18 0.12 0.18 0.12 0.19 0.11 0.19 0.09 0.2 0.1 0.2 0.07 0.21 0.08 0.21 0.06 0.22 0.05 0.22 0.03 0.23 0.03 0.22 0.02 0.23 0.01 0 2.42 -0.35 -0.01 -0.35 -0.03 -0.35 -0.04 -0.34 -0.06 -0.33 -0.08 -0.33 -0.09 -0.32 -0.11 -0.31 -0.12 -0.31 -0.14 -0.3 -0.15 -0.29 -0.17 -0.28 -0.18 -0.27 -0.19 -0.26 -0.21 -0.25 -0.22 -0.24 -0.23 -0.23 -0.23 -0.21 -0.25 -0.21 -0.27 -0.19 -0.27 -0.18 -0.28 -0.17 -0.29 -0.15 -0.29 -0.14 -0.31 -0.12 -0.32 -0.11 -0.32 -0.1 -0.32 -0.07 -0.34 -0.06 -0.34 -0.05 -0.34 -0.02 -0.35 -0.01 -0.36 0 0zm6.9 -6.91l0 2.42 0 0 -0.23 0.01 -0.22 0.02 -0.23 0.03 -0.22 0.04 -0.22 0.05 -0.21 0.06 -0.21 0.07 -0.2 0.08 -0.2 0.09 -0.19 0.1 -0.19 0.1 -0.18 0.12 -0.18 0.12 -0.17 0.14 -0.16 0.14 -0.16 0.15 -0.15 0.16 -0.14 0.16 -0.13 0.17 -0.13 0.17 -0.11 0.19 -0.11 0.18 -0.1 0.2 -0.09 0.2 -0.08 0.2 -0.07 0.21 -0.06 0.21 -0.05 0.21 -0.04 0.22 -0.03 0.23 -0.02 0.23 0 0.23 -2.42 0 0.01 -0.35 0.02 -0.36 0.05 -0.34 0.06 -0.34 0.07 -0.34 0.1 -0.32 0.11 -0.32 0.12 -0.32 0.14 -0.3 0.15 -0.3 0.17 -0.29 0.18 -0.28 0.19 -0.27 0.21 -0.26 0.21 -0.25 0.23 -0.24 0.24 -0.23 0.25 -0.22 0.26 -0.2 0.27 -0.2 0.28 -0.18 0.29 -0.16 0.3 -0.16 0.31 -0.13 0.31 -0.13 0.32 -0.11 0.33 -0.09 0.33 -0.08 0.34 -0.06 0.35 -0.04 0.35 -0.03 0.35 -0.01 0 0z"/>

  <path fill="#EAC9CA" fill-rule="nonzero" d="M283.73 45.86c1.91,0 3.64,0.77 4.89,2.03 1.25,1.25 2.02,2.97 2.02,4.88 0,1.91 -0.77,3.63 -2.02,4.88 -0.98,0.98 -2.24,1.66 -3.65,1.92 -0.32,-0.83 -0.75,-1.6 -1.25,-2.31l0.01 0c1.24,0 2.36,-0.51 3.17,-1.32 0.81,-0.81 1.32,-1.93 1.32,-3.17 0,-1.24 -0.51,-2.36 -1.32,-3.17 -0.81,-0.81 -1.93,-1.32 -3.17,-1.32 -1.24,0 -2.36,0.51 -3.17,1.32 -0.81,0.81 -1.32,1.93 -1.32,3.17 0,0.3 0.03,0.6 0.09,0.88 -0.79,-0.35 -1.63,-0.61 -2.51,-0.77l0 -0.11c0,-1.91 0.78,-3.63 2.03,-4.88 1.25,-1.26 2.97,-2.03 4.88,-2.03z"/>

  <path fill="#EAC9CA" fill-rule="nonzero" d="M364.08 100.72l-2.42 0 0 0 -0.01 -0.24 -0.01 -0.22 -0.03 -0.23 -0.04 -0.22 -0.05 -0.22 -0.06 -0.21 -0.07 -0.21 -0.08 -0.2 -0.09 -0.2 -0.1 -0.19 -0.11 -0.19 -0.12 -0.18 -0.12 -0.18 -0.13 -0.17 -0.15 -0.16 -0.14 -0.15 -0.16 -0.16 -0.16 -0.14 -0.17 -0.13 -0.18 -0.12 -0.18 -0.12 -0.19 -0.11 -0.19 -0.1 -0.2 -0.09 -0.2 -0.08 -0.21 -0.07 -0.21 -0.06 -0.22 -0.05 -0.22 -0.04 -0.23 -0.03 -0.23 -0.01 -0.23 -0.01 0 -2.42 0.36 0.01 0.35 0.02 0.34 0.05 0.34 0.06 0.34 0.08 0.33 0.09 0.32 0.11 0.31 0.12 0.31 0.14 0.29 0.15 0.3 0.17 0.28 0.18 0.27 0.19 0.26 0.21 0.25 0.21 0.24 0.23 0.23 0.24 0.21 0.25 0.21 0.26 0.19 0.27 0.18 0.28 0.17 0.29 0.15 0.3 0.14 0.31 0.12 0.31 0.11 0.32 0.09 0.33 0.08 0.34 0.06 0.34 0.05 0.34 0.02 0.35 0.01 0.36 0 0zm-6.91 6.9l0 -2.42 0 0 0.23 0 0.23 -0.02 0.23 -0.03 0.22 -0.04 0.22 -0.05 0.21 -0.06 0.21 -0.07 0.2 -0.08 0.2 -0.09 0.19 -0.1 0.19 -0.11 0.18 -0.11 0.18 -0.13 0.17 -0.13 0.16 -0.14 0.16 -0.15 0.14 -0.16 0.15 -0.16 0.13 -0.17 0.12 -0.18 0.12 -0.18 0.11 -0.18 0.1 -0.2 0.09 -0.2 0.08 -0.2 0.07 -0.21 0.06 -0.21 0.05 -0.22 0.04 -0.22 0.03 -0.23 0.01 -0.22 0.01 -0.23 2.42 0 -0.01 0.35 -0.02 0.35 -0.05 0.35 -0.06 0.34 -0.08 0.33 -0.09 0.33 -0.11 0.32 -0.12 0.31 -0.14 0.31 -0.15 0.3 -0.17 0.29 -0.18 0.28 -0.19 0.27 -0.21 0.26 -0.21 0.25 -0.23 0.24 -0.24 0.23 -0.25 0.22 -0.26 0.2 -0.27 0.19 -0.28 0.18 -0.3 0.17 -0.29 0.15 -0.31 0.14 -0.31 0.12 -0.32 0.11 -0.33 0.1 -0.34 0.07 -0.34 0.06 -0.34 0.05 -0.35 0.03 -0.36 0 0 0zm-6.91 -6.9l2.43 0 0 0 0 0.23 0.02 0.22 0.03 0.23 0.04 0.22 0.05 0.22 0.06 0.21 0.07 0.21 0.08 0.2 0.09 0.2 0.1 0.2 0.1 0.18 0.12 0.18 0.13 0.18 0.13 0.17 0.14 0.16 0.15 0.16 0.16 0.15 0.16 0.14 0.17 0.13 0.18 0.13 0.18 0.11 0.18 0.11 0.2 0.1 0.2 0.09 0.2 0.08 0.21 0.07 0.21 0.06 0.22 0.05 0.22 0.04 0.22 0.03 0.23 0.02 0.23 0 0 2.42 -0.35 0 -0.35 -0.03 -0.35 -0.05 -0.34 -0.06 -0.33 -0.07 -0.33 -0.1 -0.32 -0.11 -0.32 -0.12 -0.3 -0.14 -0.3 -0.15 -0.29 -0.17 -0.28 -0.18 -0.27 -0.19 -0.26 -0.2 -0.25 -0.22 -0.24 -0.23 -0.23 -0.24 -0.22 -0.25 -0.2 -0.26 -0.2 -0.27 -0.17 -0.28 -0.17 -0.29 -0.15 -0.3 -0.14 -0.31 -0.13 -0.31 -0.1 -0.32 -0.1 -0.33 -0.08 -0.33 -0.06 -0.34 -0.04 -0.35 -0.03 -0.35 -0.01 -0.35 0 0zm6.91 -6.91l0 2.42 0 0 -0.23 0.01 -0.23 0.01 -0.22 0.03 -0.22 0.04 -0.22 0.05 -0.21 0.06 -0.21 0.07 -0.2 0.08 -0.2 0.09 -0.2 0.1 -0.18 0.11 -0.18 0.12 -0.18 0.12 -0.17 0.13 -0.16 0.14 -0.16 0.16 -0.15 0.15 -0.14 0.16 -0.13 0.17 -0.13 0.18 -0.12 0.18 -0.1 0.19 -0.1 0.19 -0.09 0.2 -0.08 0.2 -0.07 0.21 -0.06 0.21 -0.05 0.22 -0.04 0.22 -0.03 0.23 -0.02 0.22 0 0.24 -2.43 0 0.01 -0.36 0.03 -0.35 0.04 -0.34 0.06 -0.34 0.08 -0.34 0.1 -0.33 0.1 -0.32 0.13 -0.31 0.14 -0.31 0.15 -0.3 0.17 -0.29 0.17 -0.28 0.2 -0.27 0.2 -0.26 0.22 -0.25 0.23 -0.24 0.24 -0.23 0.25 -0.21 0.26 -0.21 0.27 -0.19 0.28 -0.18 0.29 -0.17 0.3 -0.15 0.3 -0.14 0.32 -0.12 0.32 -0.11 0.33 -0.09 0.33 -0.08 0.34 -0.06 0.35 -0.05 0.35 -0.02 0.35 -0.01 0 0z"/>
  <path fill="#EAC9CA" fill-rule="nonzero" d="M162.7 39.34l-2.43 0 0 0 0 -0.23 -0.02 -0.23 -0.03 -0.23 -0.04 -0.22 -0.05 -0.21 -0.06 -0.21 -0.07 -0.21 -0.08 -0.21 -0.09 -0.2 -0.1 -0.19 -0.1 -0.19 -0.12 -0.18 -0.12 -0.17 -0.14 -0.17 -0.14 -0.17 -0.15 -0.15 -0.16 -0.15 -0.16 -0.14 -0.17 -0.14 -0.17 -0.12 -0.19 -0.12 -0.18 -0.1 -0.2 -0.1 -0.2 -0.09 -0.2 -0.08 -0.21 -0.07 -0.21 -0.07 -0.22 -0.04 -0.22 -0.04 -0.22 -0.03 -0.23 -0.02 -0.23 -0.01 0 -2.42 0.35 0.01 0.35 0.03 0.35 0.04 0.34 0.06 0.33 0.08 0.33 0.09 0.32 0.11 0.32 0.13 0.3 0.13 0.3 0.15 0.29 0.17 0.28 0.18 0.27 0.19 0.26 0.21 0.25 0.21 0.24 0.23 0.23 0.24 0.22 0.25 0.2 0.26 0.2 0.28 0.18 0.28 0.16 0.29 0.15 0.29 0.14 0.31 0.13 0.32 0.11 0.32 0.09 0.32 0.08 0.34 0.06 0.34 0.04 0.34 0.03 0.35 0.01 0.36 0 0zm-6.91 6.91l0 -2.42 0 0 0.23 -0.01 0.23 -0.02 0.22 -0.03 0.22 -0.04 0.22 -0.05 0.21 -0.06 0.21 -0.07 0.2 -0.08 0.2 -0.09 0.2 -0.1 0.18 -0.1 0.19 -0.12 0.17 -0.13 0.17 -0.13 0.16 -0.14 0.16 -0.15 0.15 -0.15 0.14 -0.17 0.13 -0.17 0.13 -0.17 0.12 -0.19 0.1 -0.18 0.1 -0.19 0.09 -0.2 0.08 -0.21 0.07 -0.21 0.06 -0.21 0.05 -0.22 0.04 -0.21 0.03 -0.23 0.02 -0.23 0 -0.23 2.43 0 -0.01 0.35 -0.03 0.36 -0.04 0.34 -0.06 0.34 -0.08 0.33 -0.09 0.33 -0.11 0.32 -0.13 0.32 -0.14 0.3 -0.15 0.3 -0.17 0.29 -0.17 0.28 -0.2 0.27 -0.2 0.27 -0.22 0.25 -0.23 0.24 -0.24 0.22 -0.25 0.22 -0.26 0.21 -0.27 0.19 -0.28 0.18 -0.29 0.16 -0.3 0.16 -0.3 0.13 -0.32 0.13 -0.32 0.11 -0.33 0.09 -0.33 0.08 -0.34 0.06 -0.35 0.04 -0.35 0.03 -0.35 0.01 0 0zm-6.91 -6.91l2.42 0 0 0 0.01 0.23 0.01 0.23 0.03 0.23 0.04 0.21 0.05 0.22 0.06 0.21 0.07 0.21 0.08 0.21 0.09 0.2 0.1 0.19 0.11 0.18 0.12 0.19 0.12 0.17 0.13 0.17 0.15 0.17 0.14 0.15 0.16 0.15 0.17 0.14 0.16 0.13 0.18 0.13 0.18 0.12 0.19 0.1 0.19 0.1 0.2 0.09 0.2 0.08 0.21 0.07 0.22 0.06 0.21 0.05 0.22 0.04 0.23 0.03 0.23 0.02 0.23 0.01 0 2.42 -0.36 -0.01 -0.35 -0.03 -0.34 -0.04 -0.34 -0.06 -0.34 -0.08 -0.33 -0.09 -0.32 -0.11 -0.31 -0.13 -0.31 -0.13 -0.29 -0.16 -0.3 -0.16 -0.28 -0.18 -0.26 -0.19 -0.27 -0.21 -0.25 -0.22 -0.24 -0.22 -0.23 -0.24 -0.21 -0.25 -0.21 -0.27 -0.19 -0.27 -0.18 -0.28 -0.17 -0.29 -0.15 -0.3 -0.14 -0.3 -0.12 -0.32 -0.11 -0.32 -0.09 -0.33 -0.08 -0.33 -0.06 -0.34 -0.05 -0.34 -0.02 -0.36 -0.01 -0.35 0 0zm6.91 -6.91l0 2.42 0 0 -0.23 0.01 -0.23 0.02 -0.23 0.03 -0.22 0.04 -0.21 0.04 -0.22 0.07 -0.21 0.07 -0.2 0.08 -0.2 0.09 -0.19 0.1 -0.19 0.1 -0.18 0.12 -0.18 0.12 -0.16 0.14 -0.17 0.14 -0.16 0.15 -0.14 0.15 -0.15 0.17 -0.13 0.17 -0.12 0.17 -0.12 0.18 -0.11 0.19 -0.1 0.19 -0.09 0.2 -0.08 0.21 -0.07 0.21 -0.06 0.21 -0.05 0.21 -0.04 0.22 -0.03 0.23 -0.01 0.23 -0.01 0.23 -2.42 0 0.01 -0.36 0.02 -0.35 0.05 -0.34 0.06 -0.34 0.08 -0.34 0.09 -0.32 0.11 -0.32 0.12 -0.32 0.14 -0.31 0.15 -0.29 0.17 -0.29 0.18 -0.28 0.19 -0.28 0.21 -0.26 0.21 -0.25 0.23 -0.24 0.24 -0.23 0.25 -0.21 0.27 -0.21 0.26 -0.19 0.28 -0.18 0.3 -0.17 0.29 -0.15 0.31 -0.13 0.31 -0.13 0.32 -0.11 0.33 -0.09 0.34 -0.08 0.34 -0.06 0.34 -0.04 0.35 -0.03 0.36 -0.01 0 0z"/>
  <path fill="#FEFEFE" fill-rule="nonzero" d="M274.95 53.47l-177.97 0 0 -1.51 177.97 0 0 0 0 1.51zm11.52 10.01l-1.51 0 0 0 -0.02 -0.51 -0.04 -0.51 -0.06 -0.5 -0.09 -0.49 -0.11 -0.48 -0.14 -0.47 -0.15 -0.47 -0.18 -0.45 -0.2 -0.45 -0.22 -0.43 -0.25 -0.42 -0.26 -0.4 -0.28 -0.4 -0.3 -0.37 -0.31 -0.37 -0.34 -0.35 -0.34 -0.33 -0.37 -0.32 -0.38 -0.29 -0.39 -0.28 -0.4 -0.26 -0.43 -0.25 -0.43 -0.22 -0.44 -0.2 -0.45 -0.18 -0.47 -0.16 -0.47 -0.13 -0.48 -0.11 -0.5 -0.09 -0.49 -0.07 -0.51 -0.03 -0.51 -0.02 0 -1.51 0.59 0.01 0.58 0.05 0.58 0.07 0.56 0.1 0.56 0.13 0.54 0.16 0.54 0.18 0.52 0.21 0.51 0.23 0.5 0.26 0.48 0.27 0.47 0.3 0.45 0.33 0.44 0.34 0.41 0.36 0.4 0.38 0.39 0.4 0.36 0.42 0.34 0.44 0.33 0.45 0.29 0.47 0.28 0.48 0.26 0.5 0.23 0.51 0.21 0.52 0.18 0.53 0.15 0.55 0.13 0.56 0.11 0.56 0.07 0.58 0.04 0.58 0.02 0.59 0 0zm-1.51 71.89l0 -71.89 1.51 0 0 71.89 0 0 -1.51 0zm-10.01 11.52l0 -1.51 0 0 0.51 -0.02 0.51 -0.04 0.49 -0.06 0.5 -0.09 0.48 -0.11 0.47 -0.14 0.47 -0.15 0.45 -0.18 0.44 -0.2 0.43 -0.23 0.43 -0.24 0.4 -0.26 0.39 -0.28 0.38 -0.3 0.37 -0.31 0.34 -0.34 0.34 -0.34 0.31 -0.37 0.3 -0.38 0.28 -0.39 0.26 -0.41 0.25 -0.42 0.22 -0.43 0.2 -0.44 0.18 -0.45 0.15 -0.47 0.14 -0.47 0.11 -0.48 0.09 -0.5 0.06 -0.49 0.04 -0.51 0.02 -0.51 1.51 0 -0.02 0.58 -0.04 0.59 -0.07 0.58 -0.11 0.56 -0.13 0.56 -0.15 0.54 -0.18 0.54 -0.21 0.52 -0.23 0.51 -0.26 0.5 -0.28 0.48 -0.29 0.47 -0.33 0.45 -0.34 0.44 -0.36 0.41 -0.39 0.4 -0.4 0.39 -0.41 0.36 -0.44 0.34 -0.45 0.32 -0.47 0.3 -0.48 0.28 -0.5 0.26 -0.51 0.23 -0.52 0.21 -0.54 0.18 -0.54 0.15 -0.56 0.13 -0.56 0.1 -0.58 0.08 -0.58 0.04 -0.59 0.02 0 0zm-177.97 -1.51l177.97 0 0 1.51 -177.97 0 0 0 0 -1.51zm-11.53 -10.01l1.52 0 0 0 0.01 0.51 0.04 0.51 0.06 0.49 0.09 0.5 0.11 0.48 0.14 0.47 0.16 0.47 0.18 0.45 0.2 0.44 0.22 0.43 0.24 0.42 0.26 0.41 0.28 0.39 0.3 0.38 0.32 0.37 0.33 0.34 0.35 0.34 0.36 0.31 0.38 0.3 0.39 0.28 0.41 0.26 0.42 0.24 0.43 0.23 0.44 0.2 0.46 0.18 0.46 0.15 0.48 0.14 0.48 0.11 0.49 0.09 0.5 0.06 0.5 0.04 0.52 0.02 0 1.51 -0.59 -0.02 -0.59 -0.04 -0.57 -0.08 -0.57 -0.1 -0.55 -0.13 -0.55 -0.15 -0.54 -0.18 -0.52 -0.21 -0.51 -0.23 -0.5 -0.26 -0.48 -0.28 -0.47 -0.3 -0.45 -0.32 -0.43 -0.34 -0.42 -0.36 -0.4 -0.39 -0.38 -0.4 -0.37 -0.41 -0.34 -0.44 -0.32 -0.45 -0.3 -0.47 -0.28 -0.48 -0.25 -0.5 -0.24 -0.51 -0.2 -0.52 -0.19 -0.54 -0.15 -0.54 -0.13 -0.56 -0.1 -0.56 -0.08 -0.58 -0.04 -0.59 -0.02 -0.58 0 0zm1.52 -71.89l0 71.89 -1.52 0 0 -71.89 0 0 1.52 0zm10.01 -11.52l0 1.51 0 0 -0.52 0.02 -0.5 0.03 -0.5 0.07 -0.49 0.09 -0.48 0.11 -0.48 0.13 -0.46 0.16 -0.46 0.18 -0.44 0.2 -0.43 0.22 -0.42 0.25 -0.41 0.26 -0.39 0.28 -0.38 0.29 -0.36 0.32 -0.35 0.33 -0.33 0.35 -0.32 0.37 -0.3 0.37 -0.28 0.4 -0.26 0.4 -0.24 0.42 -0.22 0.43 -0.2 0.45 -0.18 0.45 -0.16 0.47 -0.14 0.47 -0.11 0.48 -0.09 0.49 -0.06 0.5 -0.04 0.51 -0.01 0.51 -1.52 0 0.02 -0.59 0.04 -0.58 0.08 -0.58 0.1 -0.56 0.13 -0.56 0.15 -0.55 0.19 -0.53 0.2 -0.52 0.24 -0.51 0.25 -0.5 0.28 -0.48 0.3 -0.47 0.32 -0.45 0.34 -0.44 0.37 -0.42 0.38 -0.4 0.4 -0.38 0.42 -0.36 0.43 -0.34 0.45 -0.33 0.47 -0.3 0.48 -0.27 0.5 -0.26 0.51 -0.23 0.52 -0.21 0.54 -0.18 0.55 -0.16 0.55 -0.13 0.57 -0.1 0.57 -0.07 0.59 -0.05 0.59 -0.01 0 0z"/>
  <path fill="#EAC9CA" d="M36.8 61.52l23.29 -11.2c0.62,-0.29 1.36,-0.03 1.66,0.59l0.11 0.22c0.3,0.62 0.03,1.37 -0.58,1.67l-23.29 11.19c-0.62,0.3 -1.37,0.03 -1.66,-0.58l-0.11 -0.23c-0.3,-0.62 -0.04,-1.37 0.58,-1.66zm-19.62 -35.05l6.93 -3.33 1.9 5.43 4.99 -2.4 -3.02 -4.89 6.13 -2.94 2.04 5.36 4.95 -2.38 -3.03 -4.89 6.9 -3.32c1.68,4.7 2.3,9.19 0.2,13.14l-17.97 8.64c-4.17,-0.96 -7.32,-4.2 -10.02,-8.42zm20.48 33.4l20.61 -9.9 -11.78 -18.51 -16.24 7.8 7.41 20.61zm0.74 5.16l23.72 -11.4c5.76,3.74 9.13,8.2 8.22,13.95l-26.58 12.77c-4.71,-3.16 -6.7,-8.14 -5.36,-15.32zm6.17 16.17l26.04 -12.51c1.15,-0.56 2.54,-0.07 3.09,1.08l0.47 0.97 -30.22 14.52 -0.46 -0.96c-0.56,-1.15 -0.07,-2.55 1.08,-3.1zm-17.37 -44.93l19.16 -9.22c0.62,-0.29 1.37,-0.03 1.67,0.59l0.11 0.22c0.29,0.62 0.03,1.37 -0.59,1.67l-19.16 9.21c-0.62,0.3 -1.37,0.03 -1.66,-0.58l-0.11 -0.23c-0.3,-0.62 -0.04,-1.37 0.58,-1.66z"/>
  <path fill="#EAC9CA" d="M332.62 186.95l-24.46 -6.83c-1.32,-0.37 -2.7,0.4 -3.07,1.72l-0.3 1.11 29.24 8.17 0.31 -1.1c0.37,-1.32 -0.41,-2.7 -1.72,-3.07zm4.29 -19.83l-22.36 -6.25 1.47 -9.74c7.43,-3.18 13.12,-8.34 15.96,-16.76 0.1,-0.99 -0.94,-1.03 -1.43,-0.13 -1.39,4.08 -4.35,3.94 -8.37,0.99 -2.95,-0.82 -5,-0.03 -7.01,0.83 -0.89,-1.64 -1.36,-3.38 -1.7,-5.15 -0.55,-3.34 3.93,-3.4 6.16,-5.02 3.55,-2.12 6.25,-6.14 8.74,-7.13 0.63,-0.19 -0.72,-2.29 1.78,-3.53 0.52,-0.26 1.23,2.61 1.79,2.44 19.14,1.33 20.8,28.92 4.97,49.45zm-0.06 0.82l-22.55 -6.3c-0.7,-0.2 -1.45,0.22 -1.64,0.92l-0.07 0.26c-0.2,0.71 0.21,1.45 0.92,1.65l22.55 6.3c0.7,0.2 1.45,-0.22 1.64,-0.93l0.08 -0.26c0.19,-0.7 -0.22,-1.44 -0.93,-1.64zm-0.61 3.68l-23.35 -6.52c-4.62,4.32 -6.96,8.9 -5.21,13.97l26.15 7.31c3.77,-3.63 4.77,-8.46 2.41,-14.76z"/>
  <path fill="#EAC9CA" d="M34.46 118.67l30.49 6.46c1.8,0.38 2.96,2.16 2.58,3.96l-6.05 28.59c-0.39,1.8 -2.17,2.95 -3.96,2.57l-30.5 -6.46c-1.8,-0.38 -2.95,-2.16 -2.57,-3.96l6.05 -28.58c0.38,-1.8 2.16,-2.96 3.96,-2.58zm13.22 28.44l-6.44 -1.36 -1.87 3.53c-0.14,0.22 -0.28,0.37 -0.43,0.47 -0.14,0.09 -0.4,0.1 -0.77,0.02l-4.8 -1.01c-0.22,-0.05 -0.35,-0.14 -0.38,-0.27 -0.02,-0.13 0,-0.28 0.08,-0.45l10.72 -18.86c0.47,-0.81 0.94,-1.3 1.4,-1.46 0.47,-0.16 1.08,-0.17 1.82,-0.01l2.64 0.56c0.4,0.09 0.73,0.17 1.02,0.27 0.29,0.09 0.53,0.23 0.74,0.41 0.2,0.18 0.36,0.42 0.49,0.74 0.13,0.31 0.21,0.72 0.26,1.23l2.15 21.62c0.02,0.12 0,0.25 -0.07,0.4 -0.06,0.14 -0.22,0.19 -0.49,0.13l-4.93 -1.04c-0.26,-0.06 -0.47,-0.14 -0.63,-0.24 -0.16,-0.1 -0.25,-0.28 -0.26,-0.53l-0.25 -4.15zm-4.04 -5.91l3.72 0.79 -0.08 -2.68 -0.05 -4.93 -0.26 -0.05 -2.13 4.57 -1.2 2.3z"/>
  <path fill="#EAC9CA" fill-rule="nonzero" d="M256.34 183.58l-6.54 0 -1.1 3.82c-0.09,0.24 -0.19,0.43 -0.31,0.55 -0.13,0.12 -0.37,0.18 -0.75,0.18l-4.88 0c-0.22,0 -0.36,-0.06 -0.42,-0.18 -0.05,-0.12 -0.06,-0.27 -0.02,-0.45l6.55 -20.56c0.29,-0.88 0.64,-1.45 1.06,-1.71 0.42,-0.25 1.01,-0.38 1.76,-0.38l2.69 0c0.4,0 0.75,0.02 1.05,0.05 0.3,0.03 0.56,0.12 0.79,0.25 0.24,0.13 0.45,0.34 0.63,0.61 0.19,0.28 0.36,0.66 0.52,1.15l6.54 20.59c0.05,0.11 0.05,0.24 0.02,0.4 -0.04,0.15 -0.18,0.23 -0.45,0.23l-5.02 0c-0.26,0 -0.48,-0.03 -0.66,-0.1 -0.18,-0.06 -0.3,-0.22 -0.36,-0.46l-1.1 -3.99zm-5.15 -4.91l3.79 0 -0.63 -2.59 -1.07 -4.79 -0.26 0 -1.13 4.89 -0.7 2.49z"/>
  <path fill="#EAC9CA" d="M241.35 17.12l-8.86 20.46c-0.69,1.59 -2.56,2.33 -4.15,1.64l-27.01 -11.7c-1.59,-0.69 -2.33,-2.56 -1.64,-4.15l2.7 -6.25 9.4 0c-0.12,0.49 -0.22,0.97 -0.29,1.45 -0.22,1.47 -0.16,2.86 0.2,4.15 0.35,1.3 1.03,2.49 2.02,3.57 1,1.09 2.38,2.01 4.17,2.79 1.3,0.56 2.61,0.97 3.93,1.22 1.32,0.25 2.73,0.27 4.25,0.07 0.27,-0.02 0.45,-0.11 0.54,-0.26 0.09,-0.15 0.13,-0.41 0.12,-0.77l-0.12 -3.26c0.01,-0.41 -0.05,-0.66 -0.16,-0.75 -0.11,-0.1 -0.34,-0.15 -0.7,-0.16 -0.74,-0.04 -1.53,-0.09 -2.35,-0.16 -0.83,-0.08 -1.75,-0.33 -2.77,-0.78 -1.55,-0.67 -2.43,-1.63 -2.66,-2.89 -0.2,-1.15 0.02,-2.56 0.68,-4.22l22.7 0z"/>
  <path fill="#EAC9CA" d="M222.19 -0.4l19.63 8.5c1.59,0.69 2.33,2.56 1.64,4.15l-10.97 25.33c-0.69,1.59 -2.56,2.33 -4.15,1.64l-27.01 -11.7c-1.59,-0.69 -2.33,-2.56 -1.64,-4.15l10.29 -23.77 12.21 0zm-1.56 24.63c1.02,0.45 1.94,0.7 2.77,0.78 0.82,0.07 1.61,0.12 2.35,0.16 0.36,0.01 0.59,0.06 0.7,0.16 0.11,0.09 0.17,0.34 0.16,0.75l0.12 3.26c0.01,0.36 -0.03,0.62 -0.12,0.77 -0.09,0.15 -0.27,0.24 -0.54,0.26 -1.52,0.2 -2.93,0.18 -4.25,-0.07 -1.32,-0.25 -2.63,-0.66 -3.93,-1.22 -1.79,-0.78 -3.17,-1.7 -4.17,-2.79 -0.99,-1.08 -1.67,-2.27 -2.02,-3.57 -0.36,-1.29 -0.42,-2.68 -0.2,-4.15 0.22,-1.48 0.67,-3 1.35,-4.56 0.7,-1.62 1.58,-2.99 2.63,-4.1 1.06,-1.12 2.23,-1.96 3.51,-2.54 1.28,-0.57 2.65,-0.85 4.1,-0.84 1.44,0.01 2.91,0.33 4.39,0.97 1.16,0.51 2.21,1.07 3.14,1.7 0.93,0.63 1.72,1.38 2.39,2.27 0.12,0.17 0.21,0.3 0.27,0.4 0.06,0.1 0.08,0.2 0.05,0.29 -0.03,0.1 -0.08,0.2 -0.17,0.32 -0.09,0.12 -0.21,0.26 -0.38,0.42l-2.12 2.01c-0.3,0.32 -0.54,0.49 -0.7,0.5 -0.16,0.02 -0.39,-0.12 -0.7,-0.39 -0.35,-0.3 -0.67,-0.56 -0.95,-0.79 -0.28,-0.23 -0.56,-0.44 -0.85,-0.63 -0.28,-0.2 -0.57,-0.37 -0.88,-0.53 -0.3,-0.15 -0.63,-0.31 -0.99,-0.46 -1.24,-0.54 -2.47,-0.48 -3.68,0.17 -1.21,0.65 -2.23,1.93 -3.05,3.83 -0.82,1.89 -1.11,3.46 -0.89,4.73 0.23,1.26 1.11,2.22 2.66,2.89z"/>
  <path fill="#EAC9CA" fill-rule="nonzero" d="M356.23 60.23c0.89,-0.2 1.63,-0.48 2.21,-0.83 0.58,-0.35 1.13,-0.69 1.64,-1.02 0.24,-0.17 0.42,-0.24 0.54,-0.23 0.12,0.01 0.27,0.14 0.46,0.41l1.66 2.11c0.18,0.23 0.27,0.42 0.29,0.57 0.01,0.14 -0.07,0.28 -0.23,0.43 -0.91,0.86 -1.86,1.53 -2.86,2 -0.99,0.47 -2.06,0.83 -3.19,1.09 -1.55,0.35 -2.92,0.4 -4.1,0.16 -1.18,-0.24 -2.2,-0.7 -3.06,-1.39 -0.86,-0.69 -1.58,-1.57 -2.14,-2.66 -0.56,-1.08 -1,-2.3 -1.3,-3.67 -0.32,-1.41 -0.39,-2.74 -0.23,-3.99 0.16,-1.24 0.53,-2.36 1.1,-3.36 0.57,-1 1.34,-1.85 2.3,-2.54 0.97,-0.69 2.1,-1.18 3.39,-1.47 1.01,-0.23 1.98,-0.36 2.89,-0.39 0.92,-0.03 1.82,0.09 2.68,0.35 0.16,0.06 0.29,0.1 0.38,0.14 0.09,0.03 0.14,0.09 0.17,0.16 0.03,0.08 0.04,0.18 0.04,0.3 0,0.12 -0.02,0.27 -0.05,0.46l-0.43 2.35c-0.05,0.36 -0.13,0.59 -0.23,0.67 -0.1,0.09 -0.31,0.11 -0.65,0.08 -0.37,-0.03 -0.71,-0.05 -1.01,-0.06 -0.29,-0.02 -0.58,-0.02 -0.87,-0.02 -0.28,0.01 -0.56,0.04 -0.83,0.08 -0.27,0.04 -0.57,0.1 -0.88,0.17 -1.09,0.24 -1.87,0.87 -2.36,1.89 -0.49,1.02 -0.54,2.35 -0.17,4.01 0.36,1.64 0.93,2.83 1.69,3.56 0.75,0.72 1.81,0.94 3.15,0.64z"/>
  <path fill="#EAC9CA" d="M139.28 164.83l25.87 -11.8c1.53,-0.7 3.34,-0.02 4.04,1.51l11.06 24.25c0.7,1.53 0.02,3.35 -1.5,4.04l-25.88 11.8c-1.52,0.7 -3.34,0.02 -4.04,-1.51l-11.06 -24.25c-0.7,-1.53 -0.02,-3.35 1.51,-4.04zm24.19 5.93c0.6,-0.01 1.15,0.07 1.64,0.24 0.5,0.17 0.95,0.41 1.36,0.7 0.4,0.3 0.76,0.65 1.05,1.04 0.3,0.39 0.55,0.8 0.74,1.23 0.39,0.86 0.58,1.71 0.57,2.56 -0.01,0.86 -0.19,1.67 -0.54,2.45 -0.36,0.78 -0.87,1.48 -1.54,2.12 -0.67,0.64 -1.46,1.17 -2.39,1.59l-6.95 3.17c-0.73,0.33 -1.26,0.41 -1.6,0.23 -0.34,-0.18 -0.66,-0.58 -0.94,-1.2l-6.92 -15.18c-0.27,-0.59 -0.37,-1.08 -0.29,-1.47 0.08,-0.39 0.49,-0.75 1.22,-1.09l6.95 -3.17c0.8,-0.36 1.59,-0.62 2.36,-0.75 0.78,-0.14 1.52,-0.13 2.21,0.02 0.7,0.16 1.33,0.47 1.91,0.94 0.58,0.47 1.07,1.13 1.46,1.98 0.31,0.7 0.43,1.45 0.36,2.28 -0.08,0.82 -0.32,1.54 -0.73,2.15l0.07 0.16zm-0.58 5.24c-0.24,-0.52 -0.58,-0.87 -1.04,-1.06 -0.46,-0.19 -0.99,-0.15 -1.57,0.12l-3.14 1.43 1.6 3.5 3.13 -1.43c0.36,-0.16 0.63,-0.35 0.81,-0.56 0.18,-0.21 0.3,-0.44 0.36,-0.68 0.06,-0.24 0.07,-0.48 0.04,-0.7 -0.04,-0.22 -0.1,-0.42 -0.19,-0.62zm-7.55 -3.46l2.79 -1.28c0.35,-0.16 0.64,-0.4 0.86,-0.71 0.22,-0.32 0.21,-0.73 -0.03,-1.25 -0.18,-0.41 -0.45,-0.67 -0.78,-0.77 -0.34,-0.11 -0.71,-0.07 -1.12,0.12l-2.89 1.32 1.17 2.57z"/>
  <path fill="#EAC9CA" fill-rule="nonzero" d="M317.72 86.47c0.58,0.25 1.08,0.57 1.49,0.96 0.4,0.38 0.74,0.81 1,1.28 0.26,0.47 0.45,0.96 0.56,1.47 0.12,0.52 0.17,1.02 0.17,1.52 0,1 -0.19,1.92 -0.57,2.74 -0.39,0.83 -0.93,1.54 -1.62,2.13 -0.69,0.6 -1.5,1.06 -2.43,1.38 -0.92,0.33 -1.93,0.49 -3.02,0.49l-8.14 0c-0.86,0 -1.41,-0.16 -1.66,-0.49 -0.25,-0.32 -0.38,-0.85 -0.38,-1.58l0 -17.79c0,-0.69 0.13,-1.21 0.38,-1.55 0.25,-0.34 0.8,-0.52 1.66,-0.52l8.14 0c0.94,0 1.82,0.11 2.63,0.32 0.82,0.21 1.53,0.54 2.13,1 0.61,0.46 1.09,1.04 1.44,1.75 0.36,0.71 0.54,1.57 0.54,2.57 0,0.81 -0.22,1.6 -0.66,2.37 -0.44,0.76 -0.99,1.35 -1.66,1.76l0 0.19zm-2.88 4.83c0,-0.61 -0.19,-1.1 -0.55,-1.49 -0.36,-0.39 -0.89,-0.58 -1.57,-0.58l-3.68 0 0 4.1 3.68 0c0.41,0 0.75,-0.06 1.03,-0.19 0.27,-0.12 0.49,-0.29 0.65,-0.5 0.17,-0.21 0.28,-0.43 0.34,-0.66 0.07,-0.22 0.1,-0.45 0.1,-0.68zm-5.8 -6.71l3.27 0c0.42,0 0.8,-0.1 1.15,-0.31 0.35,-0.21 0.53,-0.62 0.53,-1.22 0,-0.48 -0.14,-0.85 -0.42,-1.1 -0.28,-0.25 -0.66,-0.37 -1.13,-0.37l-3.4 0 0 3z"/>
  <path fill="#EAC9CA" d="M311.92 17.12l32.29 0c-0.01,0.07 -0.02,0.13 -0.03,0.2l-26.57 12.77c-4.19,-2.8 -6.22,-7.03 -5.69,-12.97zm6.5 13.83l26.03 -12.52c1.15,-0.55 2.55,-0.06 3.1,1.09l0.46 0.96 -30.21 14.53 -0.47 -0.97c-0.55,-1.15 -0.06,-2.54 1.09,-3.09z"/>
  <path fill="#EAC9CA" d="M310.65 11.26l23.28 -11.19c0.62,-0.3 1.37,-0.04 1.67,0.58l0.11 0.23c0.29,0.62 0.03,1.37 -0.59,1.66l-23.28 11.2c-0.62,0.29 -1.37,0.03 -1.67,-0.59l-0.11 -0.22c-0.29,-0.62 -0.03,-1.37 0.59,-1.67zm-2.74 -11.66l24.13 0 0.07 0.11 -20.6 9.91 -3.6 -10.02zm4.33 15.17l23.72 -11.4c5.77,3.74 9.14,8.2 8.22,13.95l-26.57 12.77c-4.72,-3.15 -6.7,-8.13 -5.37,-15.32zm6.18 16.18l26.03 -12.52c1.15,-0.55 2.55,-0.06 3.1,1.09l0.46 0.96 -30.21 14.53 -0.47 -0.97c-0.55,-1.15 -0.06,-2.54 1.09,-3.09z"/>
  <path fill="#EAC9CA" d="M68.49 102.51c2.29,0 4.15,1.86 4.15,4.15 0,2.3 -1.86,4.15 -4.15,4.15 -2.29,0 -4.15,-1.85 -4.15,-4.15 0,-2.29 1.86,-4.15 4.15,-4.15z"/>
  <path fill="#EAC9CA" fill-rule="nonzero" d="M87.53 29.4l-2.42 0 0 0 -0.01 -0.24 -0.02 -0.22 -0.03 -0.23 -0.04 -0.22 -0.05 -0.22 -0.06 -0.21 -0.07 -0.21 -0.08 -0.2 -0.09 -0.2 -0.1 -0.19 -0.1 -0.19 -0.12 -0.18 -0.12 -0.18 -0.14 -0.17 -0.14 -0.16 -0.15 -0.16 -0.15 -0.14 -0.17 -0.15 -0.17 -0.13 -0.17 -0.12 -0.19 -0.12 -0.18 -0.11 -0.2 -0.1 -0.2 -0.09 -0.2 -0.08 -0.21 -0.07 -0.21 -0.06 -0.22 -0.05 -0.22 -0.04 -0.22 -0.03 -0.23 -0.01 -0.23 -0.01 0 -2.42 0.35 0.01 0.35 0.02 0.35 0.05 0.34 0.06 0.34 0.08 0.32 0.09 0.32 0.11 0.32 0.12 0.3 0.14 0.3 0.15 0.29 0.17 0.28 0.18 0.27 0.19 0.26 0.21 0.25 0.21 0.24 0.23 0.23 0.24 0.22 0.25 0.2 0.26 0.2 0.27 0.18 0.28 0.16 0.29 0.16 0.3 0.13 0.31 0.13 0.31 0.11 0.32 0.09 0.33 0.08 0.34 0.06 0.34 0.04 0.34 0.03 0.35 0.01 0.36 0 0zm-6.91 6.9l0 -2.42 0 0 0.23 0 0.23 -0.02 0.22 -0.03 0.22 -0.04 0.22 -0.05 0.21 -0.06 0.21 -0.07 0.2 -0.08 0.2 -0.09 0.2 -0.1 0.18 -0.11 0.19 -0.11 0.17 -0.13 0.17 -0.13 0.16 -0.14 0.16 -0.15 0.15 -0.16 0.14 -0.16 0.14 -0.17 0.12 -0.18 0.12 -0.18 0.1 -0.18 0.1 -0.2 0.09 -0.2 0.08 -0.2 0.07 -0.21 0.06 -0.21 0.05 -0.22 0.04 -0.22 0.03 -0.23 0.02 -0.22 0.01 -0.23 2.42 0 -0.01 0.35 -0.03 0.35 -0.04 0.35 -0.06 0.34 -0.08 0.33 -0.09 0.33 -0.11 0.32 -0.13 0.31 -0.13 0.31 -0.16 0.3 -0.16 0.29 -0.18 0.28 -0.2 0.27 -0.2 0.26 -0.22 0.25 -0.23 0.24 -0.24 0.23 -0.25 0.22 -0.26 0.2 -0.27 0.19 -0.28 0.18 -0.29 0.17 -0.3 0.15 -0.3 0.14 -0.32 0.12 -0.32 0.11 -0.32 0.1 -0.34 0.07 -0.34 0.06 -0.35 0.05 -0.35 0.03 -0.35 0 0 0zm-6.91 -6.9l2.42 0 0 0 0.01 0.23 0.02 0.22 0.02 0.23 0.04 0.22 0.05 0.22 0.06 0.21 0.07 0.21 0.08 0.2 0.09 0.2 0.1 0.2 0.11 0.18 0.12 0.18 0.12 0.18 0.14 0.17 0.14 0.16 0.15 0.16 0.15 0.15 0.17 0.14 0.16 0.13 0.18 0.13 0.18 0.11 0.19 0.11 0.19 0.1 0.2 0.09 0.2 0.08 0.22 0.07 0.21 0.06 0.21 0.05 0.22 0.04 0.23 0.03 0.23 0.02 0.23 0 0 2.42 -0.36 0 -0.35 -0.03 -0.34 -0.05 -0.34 -0.06 -0.34 -0.07 -0.33 -0.1 -0.32 -0.11 -0.31 -0.12 -0.31 -0.14 -0.29 -0.15 -0.29 -0.17 -0.28 -0.18 -0.27 -0.19 -0.27 -0.2 -0.25 -0.22 -0.24 -0.23 -0.23 -0.24 -0.21 -0.25 -0.21 -0.26 -0.19 -0.27 -0.18 -0.28 -0.17 -0.29 -0.15 -0.3 -0.14 -0.31 -0.12 -0.31 -0.11 -0.32 -0.09 -0.33 -0.08 -0.33 -0.06 -0.34 -0.04 -0.35 -0.03 -0.35 -0.01 -0.35 0 0zm6.91 -6.91l0 2.42 0 0 -0.23 0.01 -0.23 0.01 -0.23 0.03 -0.22 0.04 -0.21 0.05 -0.21 0.06 -0.22 0.07 -0.2 0.08 -0.2 0.09 -0.19 0.1 -0.19 0.11 -0.18 0.12 -0.18 0.12 -0.16 0.13 -0.17 0.15 -0.15 0.14 -0.15 0.16 -0.14 0.16 -0.14 0.17 -0.12 0.18 -0.12 0.18 -0.11 0.19 -0.1 0.19 -0.09 0.2 -0.08 0.2 -0.07 0.21 -0.06 0.21 -0.05 0.22 -0.04 0.22 -0.02 0.23 -0.02 0.22 -0.01 0.24 -2.42 0 0.01 -0.36 0.03 -0.35 0.04 -0.34 0.06 -0.34 0.08 -0.34 0.09 -0.33 0.11 -0.32 0.12 -0.31 0.14 -0.31 0.15 -0.3 0.17 -0.29 0.18 -0.28 0.19 -0.27 0.21 -0.26 0.21 -0.25 0.23 -0.24 0.24 -0.23 0.25 -0.21 0.27 -0.21 0.27 -0.19 0.28 -0.18 0.29 -0.17 0.29 -0.15 0.31 -0.14 0.31 -0.12 0.32 -0.11 0.33 -0.09 0.34 -0.08 0.34 -0.06 0.34 -0.05 0.35 -0.02 0.36 -0.01 0 0z"/>
  <path fill="#EAC9CA" d="M134.84 17.12l-6.77 18.33c-0.58,1.58 -2.34,2.39 -3.91,1.81l-26.68 -9.86c-1.58,-0.58 -2.39,-2.34 -1.81,-3.91l2.36 -6.37 9.49 0 -1.76 4.77c-0.24,0.65 -0.3,1.15 -0.18,1.52 0.11,0.36 0.55,0.69 1.3,0.96l7.17 2.65c0.95,0.35 1.89,0.54 2.81,0.56 0.92,0.01 1.79,-0.13 2.59,-0.43 0.79,-0.3 1.5,-0.75 2.11,-1.35 0.6,-0.6 1.07,-1.34 1.4,-2.22 0.16,-0.44 0.27,-0.91 0.34,-1.39 0.06,-0.49 0.06,-0.98 -0.02,-1.48 -0.08,-0.5 -0.23,-0.98 -0.46,-1.46 -0.24,-0.47 -0.57,-0.91 -1,-1.32l0.06 -0.17c0.53,-0.11 1.05,-0.32 1.53,-0.64l11.43 0zm-17.12 4.12c0.19,-0.54 0.19,-1.03 0,-1.49 -0.19,-0.46 -0.6,-0.8 -1.2,-1.02l-3.23 -1.2 -1.33 3.61 3.23 1.2c0.37,0.14 0.69,0.19 0.97,0.17 0.27,-0.02 0.52,-0.1 0.73,-0.23 0.22,-0.13 0.39,-0.29 0.52,-0.47 0.13,-0.18 0.23,-0.37 0.31,-0.57z"/>
  <path fill="#EAC9CA" d="M116.75 -0.4l18.76 6.93c1.57,0.58 2.38,2.34 1.8,3.91l-9.24 25.01c-0.58,1.58 -2.34,2.39 -3.91,1.81l-26.68 -9.86c-1.58,-0.58 -2.39,-2.34 -1.81,-3.91l8.83 -23.89 12.25 0zm5.07 18.33c0.43,0.41 0.76,0.85 1,1.32 0.23,0.48 0.38,0.96 0.46,1.46 0.08,0.5 0.08,0.99 0.02,1.48 -0.07,0.48 -0.18,0.95 -0.34,1.39 -0.33,0.88 -0.8,1.62 -1.4,2.22 -0.61,0.6 -1.32,1.05 -2.11,1.35 -0.8,0.3 -1.67,0.44 -2.59,0.43 -0.92,-0.02 -1.86,-0.21 -2.81,-0.56l-7.17 -2.65c-0.75,-0.27 -1.19,-0.6 -1.3,-0.96 -0.12,-0.37 -0.06,-0.87 0.18,-1.52l5.78 -15.65c0.23,-0.6 0.5,-1.02 0.84,-1.24 0.33,-0.22 0.87,-0.19 1.62,0.09l7.17 2.64c0.83,0.31 1.56,0.68 2.21,1.13 0.65,0.45 1.17,0.98 1.55,1.58 0.38,0.6 0.62,1.27 0.7,2.01 0.08,0.74 -0.04,1.55 -0.37,2.43 -0.26,0.72 -0.71,1.34 -1.35,1.87 -0.63,0.52 -1.31,0.86 -2.03,1.01l-0.06 0.17zm-4.1 3.31c0.19,-0.54 0.19,-1.03 0,-1.49 -0.19,-0.46 -0.6,-0.8 -1.2,-1.02l-3.23 -1.2 -1.33 3.61 3.23 1.2c0.37,0.14 0.69,0.19 0.97,0.17 0.27,-0.02 0.52,-0.1 0.73,-0.23 0.22,-0.13 0.39,-0.29 0.52,-0.47 0.13,-0.18 0.23,-0.37 0.31,-0.57zm-2.92 -7.78l2.87 1.06c0.37,0.14 0.74,0.17 1.12,0.1 0.37,-0.07 0.66,-0.37 0.86,-0.91 0.15,-0.42 0.15,-0.79 -0.01,-1.09 -0.17,-0.32 -0.46,-0.55 -0.88,-0.71l-2.99 -1.1 -0.97 2.65z"/>
</svg>
