<svg xmlns="http://www.w3.org/2000/svg" xml:space="preserve" width="373px" height="200px" version="1.1" style="shape-rendering:geometricPrecision; text-rendering:geometricPrecision; image-rendering:optimizeQuality; fill-rule:evenodd; clip-rule:evenodd" viewBox="0 0 373 200"  xmlns:xlink="http://www.w3.org/1999/xlink">
  <path fill="#D8ECE4" d="M11.21 0l350.58 0c6.17,0 11.21,5.04 11.21,11.21l0 177.23c0,6.16 -5.04,11.21 -11.21,11.21l-350.58 0c-6.17,0 -11.21,-5.05 -11.21,-11.21l0 -177.23c0,-6.17 5.04,-11.21 11.21,-11.21z"/>
  <path fill="#D8ECE4" d="M11.21 0l350.58 0c6.17,0 11.21,5.04 11.21,11.21l0 177.23c0,6.16 -5.04,11.21 -11.21,11.21l-350.58 0c-6.17,0 -11.21,-5.05 -11.21,-11.21l0 -177.23c0,-6.17 5.04,-11.21 11.21,-11.21zm86.31 53.11l177.96 0c5.93,0 10.77,4.85 10.77,10.77l0 71.88c0,5.93 -4.84,10.77 -10.77,10.77l-177.96 0c-5.93,0 -10.77,-4.84 -10.77,-10.77l0 -71.88c0,-5.92 4.84,-10.77 10.77,-10.77z"/>
  <path fill="#FEFEFE" fill-rule="nonzero" d="M275.48 53.87l-177.96 0 0 -1.51 177.96 0 0 0 0 1.51zm11.53 10.01l-1.52 0 0 0 -0.01 -0.51 -0.04 -0.51 -0.06 -0.5 -0.09 -0.49 -0.11 -0.48 -0.14 -0.48 -0.16 -0.46 -0.18 -0.46 -0.2 -0.44 -0.22 -0.43 -0.24 -0.42 -0.26 -0.41 -0.28 -0.39 -0.3 -0.38 -0.31 -0.36 -0.34 -0.35 -0.35 -0.33 -0.36 -0.32 -0.38 -0.29 -0.39 -0.28 -0.41 -0.27 -0.42 -0.24 -0.43 -0.22 -0.44 -0.2 -0.46 -0.18 -0.46 -0.16 -0.47 -0.13 -0.49 -0.12 -0.49 -0.08 -0.5 -0.07 -0.5 -0.04 -0.52 -0.01 0 -1.51 0.59 0.01 0.59 0.05 0.57 0.07 0.57 0.1 0.56 0.13 0.54 0.16 0.54 0.18 0.52 0.21 0.51 0.23 0.5 0.25 0.48 0.28 0.47 0.3 0.45 0.32 0.43 0.35 0.42 0.36 0.4 0.38 0.38 0.4 0.37 0.42 0.34 0.44 0.32 0.45 0.3 0.46 0.28 0.49 0.26 0.49 0.23 0.51 0.21 0.53 0.18 0.53 0.15 0.55 0.13 0.56 0.1 0.56 0.08 0.58 0.04 0.58 0.02 0.59 0 0zm-1.52 71.88l0 -71.88 1.52 0 0 71.88 0 0 -1.52 0zm-10.01 11.53l0 -1.52 0 0 0.52 -0.01 0.5 -0.04 0.5 -0.06 0.49 -0.09 0.49 -0.11 0.47 -0.14 0.46 -0.16 0.46 -0.17 0.44 -0.21 0.43 -0.22 0.42 -0.24 0.41 -0.26 0.39 -0.28 0.38 -0.3 0.36 -0.31 0.35 -0.34 0.34 -0.35 0.31 -0.36 0.3 -0.38 0.28 -0.39 0.26 -0.41 0.24 -0.42 0.22 -0.43 0.2 -0.44 0.18 -0.45 0.16 -0.47 0.14 -0.47 0.11 -0.49 0.09 -0.49 0.06 -0.5 0.04 -0.5 0.01 -0.52 1.52 0 -0.02 0.59 -0.04 0.59 -0.08 0.57 -0.1 0.57 -0.13 0.56 -0.15 0.54 -0.18 0.54 -0.21 0.52 -0.23 0.51 -0.26 0.5 -0.28 0.48 -0.3 0.47 -0.32 0.45 -0.34 0.43 -0.37 0.42 -0.38 0.4 -0.4 0.39 -0.42 0.36 -0.43 0.34 -0.45 0.32 -0.47 0.3 -0.48 0.28 -0.5 0.26 -0.51 0.23 -0.52 0.21 -0.54 0.18 -0.54 0.15 -0.56 0.13 -0.57 0.1 -0.57 0.08 -0.59 0.04 -0.59 0.02 0 0zm-177.96 -1.52l177.96 0 0 1.52 -177.96 0 0 0 0 -1.52zm-11.53 -10.01l1.52 0 0 0 0.01 0.52 0.04 0.5 0.06 0.5 0.09 0.49 0.11 0.49 0.14 0.47 0.16 0.47 0.17 0.45 0.21 0.44 0.22 0.43 0.24 0.42 0.26 0.41 0.28 0.39 0.3 0.38 0.31 0.36 0.34 0.35 0.35 0.34 0.36 0.31 0.38 0.3 0.39 0.28 0.41 0.26 0.42 0.24 0.43 0.22 0.44 0.21 0.45 0.17 0.47 0.16 0.47 0.14 0.49 0.11 0.49 0.09 0.5 0.06 0.5 0.04 0.52 0.01 0 1.52 -0.59 -0.02 -0.59 -0.04 -0.57 -0.08 -0.57 -0.1 -0.56 -0.13 -0.54 -0.15 -0.54 -0.18 -0.52 -0.21 -0.51 -0.23 -0.5 -0.26 -0.48 -0.28 -0.47 -0.3 -0.45 -0.32 -0.43 -0.34 -0.42 -0.36 -0.4 -0.39 -0.39 -0.4 -0.36 -0.42 -0.34 -0.43 -0.32 -0.45 -0.3 -0.47 -0.28 -0.48 -0.26 -0.5 -0.23 -0.51 -0.21 -0.52 -0.18 -0.54 -0.15 -0.54 -0.13 -0.56 -0.1 -0.57 -0.08 -0.57 -0.04 -0.59 -0.02 -0.59 0 0zm1.52 -71.88l0 71.88 -1.52 0 0 -71.88 0 0 1.52 0zm10.01 -11.52l0 1.51 0 0 -0.52 0.01 -0.5 0.04 -0.5 0.07 -0.49 0.08 -0.49 0.12 -0.47 0.13 -0.47 0.16 -0.45 0.18 -0.44 0.2 -0.43 0.22 -0.42 0.24 -0.41 0.27 -0.39 0.28 -0.38 0.29 -0.36 0.32 -0.35 0.33 -0.34 0.35 -0.31 0.36 -0.3 0.38 -0.28 0.39 -0.26 0.41 -0.24 0.42 -0.22 0.43 -0.21 0.44 -0.17 0.46 -0.16 0.46 -0.14 0.48 -0.11 0.48 -0.09 0.49 -0.06 0.5 -0.04 0.51 -0.01 0.51 -1.52 0 0.02 -0.59 0.04 -0.58 0.08 -0.58 0.1 -0.56 0.13 -0.56 0.15 -0.55 0.18 -0.53 0.21 -0.53 0.23 -0.51 0.26 -0.49 0.28 -0.49 0.3 -0.46 0.32 -0.45 0.34 -0.44 0.36 -0.42 0.39 -0.4 0.4 -0.38 0.42 -0.36 0.43 -0.35 0.45 -0.32 0.47 -0.3 0.48 -0.28 0.5 -0.25 0.51 -0.23 0.52 -0.21 0.54 -0.18 0.54 -0.16 0.56 -0.13 0.57 -0.1 0.57 -0.07 0.59 -0.05 0.59 -0.01 0 0z"/>
  <path fill="#C7E3D8" fill-rule="nonzero" d="M286.44 15.78l-2.42 0 0 0 0 -0.23 -0.02 -0.22 -0.03 -0.23 -0.04 -0.22 -0.05 -0.22 -0.06 -0.21 -0.07 -0.21 -0.08 -0.2 -0.09 -0.2 -0.1 -0.19 -0.11 -0.19 -0.12 -0.18 -0.12 -0.18 -0.13 -0.17 -0.15 -0.16 -0.14 -0.16 -0.16 -0.15 -0.16 -0.14 -0.17 -0.13 -0.18 -0.13 -0.18 -0.11 -0.19 -0.11 -0.19 -0.1 -0.2 -0.09 -0.2 -0.08 -0.21 -0.07 -0.21 -0.06 -0.22 -0.05 -0.22 -0.04 -0.23 -0.03 -0.22 -0.02 -0.24 0 0 -2.42 0.36 0 0.35 0.03 0.34 0.05 0.34 0.06 0.34 0.07 0.33 0.1 0.32 0.11 0.32 0.12 0.3 0.14 0.3 0.15 0.29 0.17 0.28 0.18 0.27 0.19 0.26 0.21 0.25 0.21 0.24 0.23 0.23 0.24 0.21 0.25 0.21 0.26 0.19 0.27 0.18 0.28 0.17 0.29 0.15 0.3 0.14 0.3 0.12 0.32 0.11 0.32 0.1 0.33 0.07 0.33 0.06 0.34 0.05 0.35 0.02 0.35 0.01 0.35 0 0zm-6.91 6.91l0 -2.42 0 0 0.24 0 0.22 -0.02 0.23 -0.03 0.22 -0.04 0.22 -0.05 0.21 -0.06 0.21 -0.07 0.2 -0.08 0.2 -0.09 0.19 -0.1 0.19 -0.11 0.18 -0.12 0.18 -0.12 0.17 -0.13 0.16 -0.15 0.16 -0.14 0.14 -0.16 0.15 -0.16 0.13 -0.17 0.12 -0.18 0.12 -0.18 0.11 -0.19 0.1 -0.19 0.09 -0.2 0.08 -0.2 0.07 -0.21 0.06 -0.21 0.05 -0.22 0.04 -0.22 0.03 -0.23 0.02 -0.22 0 -0.24 2.42 0 -0.01 0.36 -0.02 0.35 -0.05 0.34 -0.06 0.34 -0.07 0.34 -0.1 0.33 -0.11 0.32 -0.12 0.31 -0.14 0.31 -0.15 0.3 -0.17 0.29 -0.18 0.28 -0.19 0.27 -0.21 0.26 -0.21 0.25 -0.23 0.24 -0.24 0.23 -0.25 0.21 -0.26 0.21 -0.27 0.19 -0.28 0.18 -0.29 0.17 -0.3 0.15 -0.3 0.14 -0.32 0.12 -0.32 0.11 -0.33 0.1 -0.34 0.07 -0.34 0.06 -0.34 0.05 -0.35 0.02 -0.36 0.01 0 0zm-6.9 -6.91l2.42 0 0 0 0 0.24 0.02 0.22 0.03 0.23 0.04 0.22 0.05 0.22 0.06 0.21 0.07 0.21 0.08 0.2 0.09 0.2 0.1 0.19 0.11 0.19 0.11 0.18 0.13 0.18 0.13 0.17 0.14 0.16 0.15 0.16 0.16 0.14 0.16 0.15 0.17 0.13 0.18 0.12 0.18 0.12 0.19 0.11 0.19 0.1 0.2 0.09 0.2 0.08 0.21 0.07 0.21 0.06 0.22 0.05 0.22 0.04 0.23 0.03 0.22 0.02 0.23 0 0 2.42 -0.35 -0.01 -0.35 -0.02 -0.35 -0.05 -0.34 -0.06 -0.33 -0.07 -0.33 -0.1 -0.32 -0.11 -0.32 -0.12 -0.3 -0.14 -0.3 -0.15 -0.29 -0.17 -0.28 -0.18 -0.27 -0.19 -0.26 -0.21 -0.25 -0.21 -0.24 -0.23 -0.23 -0.24 -0.21 -0.25 -0.21 -0.26 -0.19 -0.27 -0.18 -0.28 -0.17 -0.29 -0.15 -0.3 -0.14 -0.31 -0.12 -0.31 -0.11 -0.32 -0.1 -0.33 -0.07 -0.34 -0.06 -0.34 -0.05 -0.34 -0.03 -0.35 0 -0.36 0 0zm6.9 -6.9l0 2.42 0 0 -0.23 0 -0.22 0.02 -0.23 0.03 -0.22 0.04 -0.22 0.05 -0.21 0.06 -0.21 0.07 -0.2 0.08 -0.2 0.09 -0.19 0.1 -0.19 0.11 -0.18 0.11 -0.18 0.13 -0.17 0.13 -0.16 0.14 -0.16 0.15 -0.15 0.16 -0.14 0.16 -0.13 0.17 -0.13 0.18 -0.11 0.18 -0.11 0.19 -0.1 0.19 -0.09 0.2 -0.08 0.2 -0.07 0.21 -0.06 0.21 -0.05 0.22 -0.04 0.22 -0.03 0.23 -0.02 0.22 0 0.23 -2.42 0 0 -0.35 0.03 -0.35 0.05 -0.35 0.06 -0.34 0.07 -0.33 0.1 -0.33 0.11 -0.32 0.12 -0.32 0.14 -0.3 0.15 -0.3 0.17 -0.29 0.18 -0.28 0.19 -0.27 0.21 -0.26 0.21 -0.25 0.23 -0.24 0.24 -0.23 0.25 -0.21 0.26 -0.21 0.27 -0.19 0.28 -0.18 0.29 -0.17 0.3 -0.15 0.3 -0.14 0.32 -0.12 0.32 -0.11 0.33 -0.1 0.33 -0.07 0.34 -0.06 0.35 -0.05 0.35 -0.03 0.35 0 0 0z"/>
  <path fill="#C7E3D8" d="M144.73 14.17c2.29,0 4.15,1.86 4.15,4.15 0,2.3 -1.86,4.16 -4.15,4.16 -2.29,0 -4.15,-1.86 -4.15,-4.16 0,-2.29 1.86,-4.15 4.15,-4.15z"/>
  <path fill="#C7E3D8" fill-rule="nonzero" d="M127.73 44.37l-2.42 0 0 0 0 -0.23 -0.02 -0.22 -0.03 -0.23 -0.04 -0.22 -0.05 -0.22 -0.06 -0.21 -0.07 -0.21 -0.08 -0.2 -0.09 -0.2 -0.1 -0.19 -0.11 -0.19 -0.11 -0.18 -0.13 -0.18 -0.13 -0.17 -0.14 -0.16 -0.15 -0.16 -0.16 -0.14 -0.16 -0.15 -0.17 -0.13 -0.18 -0.13 -0.18 -0.11 -0.19 -0.11 -0.19 -0.1 -0.2 -0.09 -0.2 -0.08 -0.21 -0.07 -0.21 -0.06 -0.22 -0.05 -0.22 -0.04 -0.23 -0.03 -0.22 -0.02 -0.23 0 0 -2.42 0.35 0.01 0.35 0.02 0.35 0.05 0.34 0.06 0.33 0.07 0.33 0.1 0.32 0.11 0.32 0.12 0.3 0.14 0.3 0.15 0.29 0.17 0.28 0.18 0.27 0.19 0.26 0.2 0.25 0.22 0.24 0.23 0.23 0.24 0.21 0.25 0.21 0.26 0.19 0.27 0.18 0.28 0.17 0.29 0.15 0.3 0.14 0.31 0.12 0.31 0.11 0.32 0.1 0.33 0.07 0.33 0.06 0.34 0.05 0.35 0.03 0.35 0 0.35 0 0zm-6.9 6.91l0 -2.42 0 0 0.23 0 0.22 -0.02 0.23 -0.03 0.22 -0.04 0.22 -0.05 0.21 -0.06 0.21 -0.07 0.2 -0.08 0.2 -0.09 0.19 -0.1 0.19 -0.11 0.18 -0.12 0.18 -0.12 0.17 -0.13 0.16 -0.14 0.16 -0.15 0.15 -0.16 0.14 -0.16 0.13 -0.17 0.13 -0.18 0.12 -0.18 0.1 -0.19 0.1 -0.19 0.09 -0.2 0.08 -0.2 0.07 -0.21 0.06 -0.21 0.05 -0.22 0.04 -0.22 0.03 -0.23 0.02 -0.22 0 -0.24 2.42 0 0 0.36 -0.03 0.35 -0.05 0.34 -0.06 0.34 -0.07 0.34 -0.1 0.33 -0.11 0.32 -0.12 0.31 -0.14 0.31 -0.15 0.3 -0.17 0.29 -0.18 0.28 -0.19 0.27 -0.21 0.26 -0.21 0.25 -0.23 0.24 -0.24 0.23 -0.25 0.21 -0.26 0.21 -0.27 0.19 -0.28 0.18 -0.29 0.17 -0.3 0.15 -0.3 0.14 -0.32 0.12 -0.32 0.11 -0.33 0.1 -0.33 0.07 -0.34 0.06 -0.35 0.05 -0.35 0.02 -0.35 0.01 0 0zm-6.91 -6.91l2.42 0 0 0 0 0.24 0.02 0.22 0.03 0.23 0.04 0.22 0.05 0.22 0.06 0.21 0.07 0.21 0.08 0.2 0.09 0.2 0.1 0.19 0.11 0.19 0.12 0.18 0.12 0.18 0.13 0.17 0.14 0.16 0.15 0.16 0.16 0.15 0.16 0.14 0.17 0.13 0.18 0.12 0.18 0.12 0.19 0.11 0.19 0.1 0.2 0.09 0.2 0.08 0.21 0.07 0.21 0.06 0.22 0.05 0.22 0.04 0.23 0.03 0.22 0.02 0.24 0 0 2.42 -0.36 -0.01 -0.35 -0.02 -0.34 -0.05 -0.34 -0.06 -0.34 -0.07 -0.33 -0.1 -0.32 -0.11 -0.31 -0.12 -0.31 -0.14 -0.3 -0.15 -0.29 -0.17 -0.28 -0.18 -0.27 -0.19 -0.26 -0.21 -0.25 -0.21 -0.24 -0.23 -0.23 -0.24 -0.21 -0.25 -0.21 -0.26 -0.19 -0.27 -0.18 -0.28 -0.17 -0.29 -0.15 -0.3 -0.14 -0.31 -0.12 -0.31 -0.11 -0.32 -0.1 -0.33 -0.07 -0.34 -0.06 -0.34 -0.05 -0.34 -0.02 -0.35 -0.01 -0.36 0 0zm6.91 -6.9l0 2.42 0 0 -0.24 0 -0.22 0.02 -0.23 0.03 -0.22 0.04 -0.22 0.05 -0.21 0.06 -0.21 0.07 -0.2 0.08 -0.2 0.09 -0.19 0.1 -0.19 0.11 -0.18 0.11 -0.18 0.13 -0.17 0.13 -0.16 0.15 -0.16 0.14 -0.14 0.16 -0.15 0.16 -0.13 0.17 -0.12 0.18 -0.12 0.18 -0.11 0.19 -0.1 0.19 -0.09 0.2 -0.08 0.2 -0.07 0.21 -0.06 0.21 -0.05 0.22 -0.04 0.22 -0.03 0.23 -0.02 0.22 0 0.23 -2.42 0 0.01 -0.35 0.02 -0.35 0.05 -0.35 0.06 -0.34 0.07 -0.33 0.1 -0.33 0.11 -0.32 0.12 -0.31 0.14 -0.31 0.15 -0.3 0.17 -0.29 0.18 -0.28 0.19 -0.27 0.21 -0.26 0.21 -0.25 0.23 -0.24 0.24 -0.23 0.25 -0.22 0.26 -0.2 0.27 -0.19 0.28 -0.18 0.29 -0.17 0.3 -0.15 0.31 -0.14 0.31 -0.12 0.32 -0.11 0.33 -0.1 0.34 -0.07 0.34 -0.06 0.34 -0.05 0.35 -0.02 0.36 -0.01 0 0z"/>
  <path fill="#C7E3D8" d="M358.04 39.97c2.3,0 4.16,1.86 4.16,4.15 0,2.3 -1.86,4.16 -4.16,4.16 -2.29,0 -4.15,-1.86 -4.15,-4.16 0,-2.29 1.86,-4.15 4.15,-4.15z"/>
  <path fill="#C7E3D8" fill-rule="nonzero" d="M270.85 174.16l-2.42 0 0 0 -0.01 -0.23 -0.02 -0.23 -0.03 -0.22 -0.03 -0.22 -0.05 -0.22 -0.06 -0.21 -0.08 -0.21 -0.07 -0.2 -0.1 -0.2 -0.09 -0.2 -0.11 -0.18 -0.12 -0.19 -0.12 -0.17 -0.14 -0.17 -0.14 -0.16 -0.15 -0.16 -0.15 -0.15 -0.17 -0.14 -0.17 -0.14 -0.17 -0.12 -0.18 -0.12 -0.19 -0.1 -0.19 -0.1 -0.2 -0.09 -0.21 -0.08 -0.21 -0.07 -0.21 -0.06 -0.21 -0.05 -0.22 -0.04 -0.23 -0.03 -0.23 -0.02 -0.23 0 0 -2.43 0.36 0.01 0.35 0.03 0.34 0.04 0.34 0.06 0.34 0.08 0.33 0.09 0.32 0.11 0.31 0.13 0.31 0.14 0.29 0.15 0.29 0.16 0.28 0.18 0.28 0.2 0.26 0.2 0.25 0.22 0.24 0.23 0.23 0.24 0.21 0.25 0.21 0.26 0.19 0.27 0.18 0.28 0.17 0.29 0.15 0.3 0.14 0.3 0.12 0.32 0.11 0.32 0.09 0.33 0.08 0.33 0.06 0.34 0.04 0.35 0.03 0.35 0.01 0.35 0 0zm-6.91 6.91l0 -2.42 0 0 0.23 -0.01 0.23 -0.01 0.23 -0.03 0.22 -0.04 0.21 -0.05 0.21 -0.06 0.21 -0.07 0.21 -0.08 0.2 -0.09 0.19 -0.1 0.19 -0.11 0.18 -0.12 0.17 -0.12 0.17 -0.13 0.17 -0.15 0.15 -0.14 0.15 -0.16 0.14 -0.17 0.14 -0.16 0.12 -0.18 0.12 -0.18 0.11 -0.19 0.09 -0.19 0.1 -0.2 0.07 -0.2 0.08 -0.21 0.06 -0.22 0.05 -0.21 0.03 -0.22 0.03 -0.23 0.02 -0.23 0.01 -0.23 2.42 0 -0.01 0.36 -0.03 0.35 -0.04 0.34 -0.06 0.34 -0.08 0.34 -0.09 0.33 -0.11 0.32 -0.12 0.31 -0.14 0.31 -0.15 0.29 -0.17 0.3 -0.18 0.28 -0.19 0.26 -0.21 0.27 -0.21 0.25 -0.23 0.24 -0.24 0.23 -0.25 0.21 -0.26 0.21 -0.28 0.19 -0.28 0.18 -0.29 0.17 -0.29 0.15 -0.31 0.14 -0.31 0.12 -0.32 0.11 -0.33 0.09 -0.34 0.08 -0.34 0.06 -0.34 0.05 -0.35 0.02 -0.36 0.01 0 0zm-6.91 -6.91l2.42 0 0 0 0.01 0.23 0.02 0.23 0.03 0.23 0.04 0.22 0.05 0.21 0.06 0.22 0.07 0.21 0.08 0.2 0.09 0.2 0.1 0.19 0.1 0.19 0.12 0.18 0.13 0.18 0.13 0.16 0.14 0.17 0.15 0.16 0.15 0.14 0.17 0.15 0.17 0.13 0.17 0.12 0.19 0.12 0.18 0.11 0.2 0.1 0.19 0.09 0.21 0.08 0.21 0.07 0.21 0.06 0.22 0.05 0.22 0.04 0.22 0.03 0.23 0.01 0.23 0.01 0 2.42 -0.35 -0.01 -0.35 -0.02 -0.35 -0.05 -0.34 -0.06 -0.33 -0.08 -0.33 -0.09 -0.32 -0.11 -0.32 -0.12 -0.3 -0.14 -0.3 -0.15 -0.29 -0.17 -0.28 -0.18 -0.27 -0.19 -0.26 -0.21 -0.25 -0.21 -0.24 -0.23 -0.23 -0.24 -0.22 -0.25 -0.21 -0.27 -0.19 -0.26 -0.18 -0.28 -0.16 -0.3 -0.16 -0.29 -0.13 -0.31 -0.13 -0.31 -0.11 -0.32 -0.09 -0.33 -0.08 -0.34 -0.06 -0.34 -0.04 -0.34 -0.03 -0.35 -0.01 -0.36 0 0zm6.91 -6.91l0 2.43 0 0 -0.23 0 -0.23 0.02 -0.22 0.03 -0.22 0.04 -0.22 0.05 -0.21 0.06 -0.21 0.07 -0.21 0.08 -0.19 0.09 -0.2 0.1 -0.18 0.1 -0.19 0.12 -0.17 0.13 -0.17 0.13 -0.17 0.14 -0.15 0.15 -0.15 0.16 -0.14 0.16 -0.13 0.17 -0.13 0.17 -0.12 0.19 -0.1 0.18 -0.1 0.2 -0.09 0.2 -0.08 0.2 -0.07 0.21 -0.06 0.21 -0.05 0.22 -0.04 0.22 -0.03 0.22 -0.02 0.23 -0.01 0.23 -2.42 0 0.01 -0.35 0.03 -0.35 0.04 -0.35 0.06 -0.34 0.08 -0.33 0.09 -0.33 0.11 -0.32 0.13 -0.32 0.13 -0.3 0.16 -0.3 0.16 -0.29 0.18 -0.28 0.19 -0.27 0.21 -0.26 0.22 -0.25 0.23 -0.24 0.24 -0.23 0.25 -0.22 0.26 -0.2 0.27 -0.2 0.28 -0.17 0.29 -0.17 0.3 -0.15 0.3 -0.14 0.32 -0.13 0.32 -0.11 0.33 -0.09 0.33 -0.08 0.34 -0.06 0.35 -0.04 0.35 -0.03 0.35 -0.01 0 0z"/>
  <path fill="#C7E3D8" fill-rule="nonzero" d="M111.54 170.09l-2.42 0 0 0 0 -0.23 -0.02 -0.23 -0.03 -0.23 -0.04 -0.22 -0.05 -0.22 -0.06 -0.21 -0.07 -0.21 -0.08 -0.2 -0.09 -0.2 -0.1 -0.19 -0.11 -0.19 -0.12 -0.18 -0.12 -0.18 -0.13 -0.17 -0.14 -0.16 -0.15 -0.15 -0.16 -0.16 -0.16 -0.14 -0.17 -0.13 -0.18 -0.12 -0.18 -0.12 -0.19 -0.11 -0.19 -0.1 -0.2 -0.09 -0.2 -0.08 -0.21 -0.07 -0.21 -0.06 -0.22 -0.05 -0.22 -0.04 -0.23 -0.03 -0.22 -0.01 -0.24 -0.01 0 -2.42 0.36 0.01 0.35 0.02 0.34 0.05 0.34 0.06 0.34 0.08 0.33 0.09 0.32 0.11 0.31 0.12 0.31 0.14 0.3 0.15 0.29 0.17 0.28 0.18 0.27 0.19 0.26 0.21 0.25 0.21 0.24 0.23 0.23 0.24 0.21 0.25 0.21 0.26 0.19 0.27 0.18 0.28 0.17 0.29 0.15 0.3 0.14 0.31 0.12 0.31 0.11 0.32 0.1 0.33 0.07 0.34 0.06 0.34 0.05 0.34 0.02 0.35 0.01 0.36 0 0zm-6.91 6.9l0 -2.42 0 0 0.24 0 0.22 -0.02 0.23 -0.03 0.22 -0.04 0.22 -0.05 0.21 -0.06 0.21 -0.07 0.2 -0.08 0.2 -0.09 0.19 -0.1 0.19 -0.11 0.18 -0.11 0.18 -0.13 0.17 -0.13 0.16 -0.14 0.16 -0.15 0.14 -0.16 0.15 -0.16 0.13 -0.17 0.12 -0.18 0.12 -0.18 0.11 -0.18 0.1 -0.2 0.09 -0.2 0.08 -0.2 0.07 -0.21 0.06 -0.21 0.05 -0.22 0.04 -0.22 0.03 -0.22 0.02 -0.23 0 -0.23 2.42 0 -0.01 0.35 -0.02 0.35 -0.05 0.35 -0.06 0.34 -0.07 0.33 -0.1 0.33 -0.11 0.32 -0.12 0.32 -0.14 0.3 -0.15 0.3 -0.17 0.29 -0.18 0.28 -0.19 0.27 -0.21 0.26 -0.21 0.25 -0.23 0.24 -0.24 0.23 -0.25 0.22 -0.26 0.2 -0.27 0.19 -0.28 0.18 -0.29 0.17 -0.3 0.15 -0.31 0.14 -0.31 0.13 -0.32 0.1 -0.33 0.1 -0.34 0.08 -0.34 0.06 -0.34 0.04 -0.35 0.03 -0.36 0 0 0zm-6.9 -6.9l2.42 0 0 0 0 0.23 0.02 0.23 0.03 0.22 0.04 0.22 0.05 0.22 0.06 0.21 0.07 0.21 0.08 0.2 0.09 0.2 0.1 0.2 0.11 0.18 0.11 0.18 0.13 0.18 0.13 0.17 0.14 0.16 0.15 0.16 0.16 0.15 0.16 0.14 0.17 0.13 0.18 0.13 0.18 0.11 0.19 0.11 0.19 0.1 0.2 0.09 0.2 0.08 0.21 0.07 0.21 0.06 0.22 0.05 0.22 0.04 0.23 0.03 0.22 0.02 0.23 0 0 2.42 -0.35 0 -0.35 -0.03 -0.35 -0.04 -0.34 -0.06 -0.33 -0.08 -0.33 -0.1 -0.32 -0.1 -0.32 -0.13 -0.3 -0.14 -0.3 -0.15 -0.29 -0.17 -0.28 -0.18 -0.27 -0.19 -0.26 -0.2 -0.25 -0.22 -0.24 -0.23 -0.23 -0.24 -0.22 -0.25 -0.2 -0.26 -0.19 -0.27 -0.18 -0.28 -0.17 -0.29 -0.15 -0.3 -0.14 -0.3 -0.12 -0.32 -0.11 -0.32 -0.1 -0.33 -0.07 -0.33 -0.07 -0.34 -0.04 -0.35 -0.03 -0.35 0 -0.35 0 0zm6.9 -6.91l0 2.42 0 0 -0.23 0.01 -0.22 0.01 -0.23 0.03 -0.22 0.04 -0.22 0.05 -0.21 0.06 -0.21 0.07 -0.2 0.08 -0.2 0.09 -0.19 0.1 -0.19 0.11 -0.18 0.12 -0.18 0.12 -0.17 0.13 -0.16 0.14 -0.16 0.16 -0.15 0.15 -0.14 0.16 -0.13 0.17 -0.13 0.18 -0.12 0.18 -0.1 0.19 -0.1 0.19 -0.09 0.2 -0.08 0.2 -0.07 0.21 -0.06 0.21 -0.05 0.22 -0.04 0.22 -0.03 0.23 -0.02 0.23 0 0.23 -2.42 0 0 -0.36 0.03 -0.35 0.04 -0.34 0.07 -0.34 0.07 -0.34 0.1 -0.33 0.11 -0.32 0.12 -0.31 0.14 -0.31 0.15 -0.3 0.17 -0.29 0.18 -0.28 0.19 -0.27 0.2 -0.26 0.22 -0.25 0.23 -0.24 0.24 -0.23 0.25 -0.21 0.26 -0.21 0.27 -0.19 0.28 -0.18 0.29 -0.17 0.3 -0.15 0.3 -0.14 0.32 -0.12 0.32 -0.11 0.33 -0.09 0.33 -0.08 0.34 -0.06 0.35 -0.05 0.35 -0.02 0.35 -0.01 0 0z"/>
  <path fill="#C7E3D8" fill-rule="nonzero" d="M22.26 124.15l-2.42 0 0 0 -0.01 -0.23 -0.02 -0.23 -0.03 -0.23 -0.04 -0.22 -0.05 -0.21 -0.06 -0.22 -0.07 -0.21 -0.08 -0.2 -0.09 -0.2 -0.1 -0.19 -0.1 -0.19 -0.12 -0.18 -0.12 -0.18 -0.14 -0.17 -0.14 -0.16 -0.15 -0.16 -0.16 -0.14 -0.16 -0.15 -0.17 -0.13 -0.17 -0.12 -0.19 -0.12 -0.18 -0.11 -0.2 -0.1 -0.2 -0.09 -0.2 -0.08 -0.21 -0.07 -0.21 -0.06 -0.22 -0.05 -0.22 -0.04 -0.22 -0.03 -0.23 -0.01 -0.23 -0.01 0 -2.42 0.35 0.01 0.35 0.02 0.35 0.05 0.34 0.06 0.34 0.08 0.32 0.09 0.32 0.11 0.32 0.12 0.3 0.14 0.3 0.15 0.29 0.17 0.28 0.18 0.27 0.19 0.26 0.21 0.25 0.21 0.24 0.23 0.23 0.24 0.22 0.25 0.2 0.26 0.2 0.27 0.18 0.28 0.16 0.3 0.16 0.29 0.13 0.31 0.13 0.31 0.11 0.32 0.09 0.33 0.08 0.34 0.06 0.34 0.04 0.34 0.03 0.35 0.01 0.36 0 0zm-6.91 6.91l0 -2.43 0 0 0.23 0 0.23 -0.02 0.22 -0.03 0.22 -0.04 0.22 -0.05 0.21 -0.06 0.21 -0.07 0.2 -0.08 0.2 -0.09 0.2 -0.1 0.18 -0.1 0.19 -0.12 0.17 -0.13 0.17 -0.13 0.16 -0.14 0.16 -0.15 0.15 -0.16 0.14 -0.16 0.14 -0.17 0.12 -0.18 0.12 -0.18 0.1 -0.18 0.1 -0.2 0.09 -0.2 0.08 -0.2 0.07 -0.21 0.06 -0.21 0.05 -0.22 0.04 -0.22 0.03 -0.22 0.02 -0.23 0.01 -0.23 2.42 0 -0.01 0.35 -0.03 0.35 -0.04 0.35 -0.06 0.34 -0.08 0.33 -0.09 0.33 -0.11 0.32 -0.13 0.32 -0.13 0.3 -0.16 0.3 -0.16 0.29 -0.18 0.28 -0.2 0.27 -0.2 0.26 -0.22 0.25 -0.23 0.24 -0.24 0.23 -0.25 0.22 -0.26 0.2 -0.27 0.2 -0.28 0.17 -0.29 0.17 -0.3 0.15 -0.3 0.14 -0.32 0.13 -0.32 0.1 -0.32 0.1 -0.34 0.08 -0.34 0.06 -0.35 0.04 -0.35 0.03 -0.35 0.01 0 0zm-6.91 -6.91l2.42 0 0 0 0.01 0.23 0.02 0.23 0.02 0.22 0.04 0.22 0.05 0.22 0.06 0.21 0.07 0.21 0.08 0.2 0.09 0.2 0.1 0.2 0.11 0.18 0.12 0.18 0.12 0.18 0.14 0.17 0.14 0.16 0.15 0.16 0.15 0.15 0.17 0.14 0.17 0.13 0.17 0.13 0.18 0.12 0.19 0.1 0.19 0.1 0.2 0.09 0.2 0.08 0.21 0.07 0.22 0.06 0.21 0.05 0.22 0.04 0.23 0.03 0.23 0.02 0.23 0 0 2.43 -0.36 -0.01 -0.35 -0.03 -0.34 -0.04 -0.34 -0.06 -0.34 -0.08 -0.33 -0.1 -0.32 -0.1 -0.31 -0.13 -0.31 -0.14 -0.29 -0.15 -0.3 -0.17 -0.27 -0.17 -0.28 -0.2 -0.26 -0.2 -0.25 -0.22 -0.24 -0.23 -0.23 -0.24 -0.21 -0.25 -0.21 -0.26 -0.19 -0.27 -0.18 -0.28 -0.17 -0.29 -0.15 -0.3 -0.14 -0.3 -0.12 -0.32 -0.11 -0.32 -0.09 -0.33 -0.08 -0.33 -0.06 -0.34 -0.04 -0.35 -0.03 -0.35 -0.01 -0.35 0 0zm6.91 -6.91l0 2.42 0 0 -0.23 0.01 -0.23 0.01 -0.23 0.03 -0.22 0.04 -0.21 0.05 -0.22 0.06 -0.21 0.07 -0.2 0.08 -0.2 0.09 -0.19 0.1 -0.19 0.11 -0.18 0.12 -0.17 0.12 -0.17 0.13 -0.17 0.15 -0.15 0.14 -0.15 0.16 -0.14 0.16 -0.14 0.17 -0.12 0.18 -0.12 0.18 -0.11 0.19 -0.1 0.19 -0.09 0.2 -0.08 0.2 -0.07 0.21 -0.06 0.22 -0.05 0.21 -0.04 0.22 -0.02 0.23 -0.02 0.23 -0.01 0.23 -2.42 0 0.01 -0.36 0.03 -0.35 0.04 -0.34 0.06 -0.34 0.08 -0.34 0.09 -0.33 0.11 -0.32 0.12 -0.31 0.14 -0.31 0.15 -0.29 0.17 -0.3 0.18 -0.28 0.19 -0.27 0.21 -0.26 0.21 -0.25 0.23 -0.24 0.24 -0.23 0.25 -0.21 0.26 -0.21 0.28 -0.19 0.27 -0.18 0.3 -0.17 0.29 -0.15 0.31 -0.14 0.31 -0.12 0.32 -0.11 0.33 -0.09 0.34 -0.08 0.34 -0.06 0.34 -0.05 0.35 -0.02 0.36 -0.01 0 0z"/>
  <path fill="#C7E3D8" d="M43.13 180.75c2.3,0 4.16,1.86 4.16,4.16 0,2.29 -1.86,4.15 -4.16,4.15 -2.29,0 -4.15,-1.86 -4.15,-4.15 0,-2.3 1.86,-4.16 4.15,-4.16z"/>
  <path fill="#C7E3D8" d="M232.8 174.03c2.29,0 4.15,1.86 4.15,4.15 0,2.3 -1.86,4.15 -4.15,4.15 -2.29,0 -4.15,-1.85 -4.15,-4.15 0,-2.29 1.86,-4.15 4.15,-4.15z"/>
  <path fill="#C7E3D8" d="M309.88 118.14c2.29,0 4.15,1.86 4.15,4.16 0,2.29 -1.86,4.15 -4.15,4.15 -2.29,0 -4.15,-1.86 -4.15,-4.15 0,-2.3 1.86,-4.16 4.15,-4.16z"/>
  <path fill="#C7E3D8" d="M199.85 151.86c2.29,0 4.15,1.86 4.15,4.15 0,2.29 -1.86,4.15 -4.15,4.15 -2.29,0 -4.15,-1.86 -4.15,-4.15 0,-2.29 1.86,-4.15 4.15,-4.15z"/>
  <path fill="#C7E3D8" fill-rule="nonzero" d="M364.53 103.62l-2.42 0 0 0 0 -0.23 -0.02 -0.23 -0.03 -0.22 -0.04 -0.22 -0.05 -0.22 -0.06 -0.21 -0.07 -0.21 -0.08 -0.2 -0.09 -0.2 -0.1 -0.2 -0.11 -0.18 -0.11 -0.18 -0.13 -0.18 -0.13 -0.17 -0.14 -0.16 -0.15 -0.16 -0.16 -0.15 -0.16 -0.14 -0.17 -0.13 -0.18 -0.13 -0.18 -0.11 -0.19 -0.11 -0.19 -0.1 -0.2 -0.09 -0.2 -0.08 -0.21 -0.07 -0.21 -0.06 -0.22 -0.05 -0.22 -0.04 -0.23 -0.03 -0.22 -0.02 -0.23 0 0 -2.42 0.35 0 0.35 0.03 0.35 0.05 0.34 0.06 0.33 0.07 0.33 0.1 0.32 0.11 0.32 0.12 0.3 0.14 0.3 0.15 0.29 0.17 0.28 0.18 0.27 0.19 0.26 0.2 0.25 0.22 0.24 0.23 0.23 0.24 0.21 0.25 0.21 0.26 0.19 0.27 0.18 0.28 0.17 0.29 0.15 0.3 0.14 0.3 0.12 0.32 0.11 0.32 0.1 0.33 0.07 0.33 0.06 0.34 0.05 0.35 0.03 0.35 0 0.35 0 0zm-6.9 6.91l0 -2.42 0 0 0.23 -0.01 0.22 -0.01 0.23 -0.03 0.22 -0.04 0.22 -0.05 0.21 -0.06 0.21 -0.07 0.2 -0.08 0.2 -0.09 0.19 -0.1 0.19 -0.11 0.18 -0.12 0.18 -0.12 0.17 -0.13 0.16 -0.14 0.16 -0.16 0.15 -0.15 0.14 -0.16 0.13 -0.17 0.13 -0.18 0.12 -0.18 0.1 -0.19 0.1 -0.19 0.09 -0.2 0.08 -0.2 0.07 -0.21 0.06 -0.21 0.05 -0.22 0.04 -0.22 0.03 -0.23 0.02 -0.23 0 -0.23 2.42 0 0 0.36 -0.03 0.35 -0.05 0.34 -0.06 0.34 -0.07 0.34 -0.1 0.33 -0.11 0.32 -0.12 0.31 -0.14 0.31 -0.15 0.3 -0.17 0.29 -0.18 0.28 -0.19 0.27 -0.21 0.26 -0.21 0.25 -0.23 0.24 -0.24 0.23 -0.25 0.21 -0.26 0.21 -0.27 0.19 -0.28 0.18 -0.29 0.17 -0.3 0.15 -0.3 0.14 -0.32 0.12 -0.32 0.11 -0.33 0.09 -0.33 0.08 -0.34 0.06 -0.35 0.05 -0.35 0.02 -0.35 0.01 0 0zm-6.91 -6.91l2.42 0 0 0 0 0.23 0.02 0.23 0.03 0.23 0.04 0.22 0.05 0.22 0.06 0.21 0.07 0.21 0.08 0.2 0.09 0.2 0.1 0.19 0.11 0.19 0.12 0.18 0.12 0.18 0.13 0.17 0.14 0.16 0.15 0.15 0.16 0.16 0.16 0.14 0.17 0.13 0.18 0.12 0.18 0.12 0.19 0.11 0.19 0.1 0.2 0.09 0.2 0.08 0.21 0.07 0.21 0.06 0.22 0.05 0.22 0.04 0.23 0.03 0.22 0.01 0.24 0.01 0 2.42 -0.36 -0.01 -0.35 -0.02 -0.34 -0.05 -0.34 -0.06 -0.34 -0.08 -0.33 -0.09 -0.32 -0.11 -0.31 -0.12 -0.31 -0.14 -0.3 -0.15 -0.29 -0.17 -0.28 -0.18 -0.27 -0.19 -0.26 -0.21 -0.25 -0.21 -0.24 -0.23 -0.23 -0.24 -0.21 -0.25 -0.21 -0.26 -0.19 -0.27 -0.18 -0.28 -0.17 -0.29 -0.15 -0.3 -0.14 -0.31 -0.12 -0.31 -0.11 -0.32 -0.1 -0.33 -0.07 -0.34 -0.06 -0.34 -0.05 -0.34 -0.02 -0.35 -0.01 -0.36 0 0zm6.91 -6.9l0 2.42 0 0 -0.24 0 -0.22 0.02 -0.23 0.03 -0.22 0.04 -0.22 0.05 -0.21 0.06 -0.21 0.07 -0.2 0.08 -0.2 0.09 -0.19 0.1 -0.19 0.11 -0.18 0.11 -0.18 0.13 -0.17 0.13 -0.16 0.14 -0.16 0.15 -0.14 0.16 -0.15 0.16 -0.13 0.17 -0.12 0.18 -0.12 0.18 -0.11 0.18 -0.1 0.2 -0.09 0.2 -0.08 0.2 -0.07 0.21 -0.06 0.21 -0.05 0.22 -0.04 0.22 -0.03 0.22 -0.02 0.23 0 0.23 -2.42 0 0.01 -0.35 0.02 -0.35 0.05 -0.35 0.06 -0.34 0.07 -0.33 0.1 -0.33 0.11 -0.32 0.12 -0.32 0.14 -0.3 0.15 -0.3 0.17 -0.29 0.18 -0.28 0.19 -0.27 0.21 -0.26 0.21 -0.25 0.23 -0.24 0.24 -0.23 0.25 -0.22 0.26 -0.2 0.27 -0.19 0.28 -0.18 0.29 -0.17 0.3 -0.15 0.31 -0.14 0.31 -0.12 0.32 -0.11 0.33 -0.1 0.34 -0.07 0.34 -0.06 0.34 -0.05 0.35 -0.03 0.36 0 0 0z"/>
  <path fill="#C7E3D8" d="M300.75 164.3l16.21 -11.57 0.91 1.26c-0.33,1.64 0.03,3.46 1.12,4.99 2.01,2.81 5.76,3.58 8.39,1.7 2.62,-1.87 3.12,-5.67 1.11,-8.49 -1.09,-1.52 -2.7,-2.44 -4.36,-2.67l-0.9 -1.27 16.21 -11.57 7.94 11.11 1.26 -0.9c0.23,-1.66 1.15,-3.27 2.68,-4.36 2.81,-2.01 6.61,-1.51 8.49,1.11 1.87,2.63 1.11,6.38 -1.71,8.39 -1.52,1.09 -3.34,1.44 -4.98,1.12l-1.27 0.9 7.94 11.12 -16.21 11.58 -0.91 -1.27c0.33,-1.64 -0.02,-3.46 -1.11,-4.98 -2.01,-2.82 -5.77,-3.58 -8.39,-1.71 -2.63,1.87 -3.12,5.67 -1.11,8.49 1.09,1.53 2.69,2.45 4.35,2.67l0.9 1.27 -16.21 11.58 -20.35 -28.5z"/>
  <path fill="#C7E3D8" d="M53.48 149.36l4.94 -2.92 -1.47 -2.5 10.18 -6 1.47 2.5 4.37 -2.58c0.23,1.09 0.13,2.14 -0.94,3.09l-15.44 12.97c0.07,0.41 0.11,0.83 0.11,1.26 0,1.49 -0.47,2.86 -1.27,3.99l0 6.18 -11.18 0 0 -3.57c-8.32,-2.84 -15.05,-8.04 -16.68,-20.78 0.06,-8.71 4.24,-15.86 12.91,-21.31l-10.51 -17.83 13.39 -7.9 19.64 33.3 -3.58 2.11 3.16 5.36 -6.25 3.68 -3.16 -5.36 3.13 -1.84 -6.7 3.95 -2.85 -4.84c-8.99,4.72 -8.4,15.46 -0.15,18.8 0.97,-0.52 2.07,-0.81 3.24,-0.81 1.33,0 2.58,0.39 3.64,1.05zm-22.77 16.03l41.1 0c2.4,0 4.36,1.96 4.36,4.36l0 1.31 -49.83 0 0 -1.31c0,-2.4 1.97,-4.36 4.37,-4.36zm-3.53 -75.61l6.96 -4.1 6 10.17 -6.96 4.11 -6 -10.18z"/>
  <path fill="#C7E3D8" d="M39.26 10.89c-2.65,1.29 -3.59,4.82 -2.53,7.02 1.07,2.19 2.29,3.09 3.75,3.55l0.24 0.49 -16.44 7.97 5.46 11.25 -1.28 0.62c-1.43,-0.55 -3.13,-0.51 -4.67,0.24 -2.85,1.38 -4.11,4.65 -2.82,7.31 1.28,2.65 4.64,3.68 7.48,2.3 1.55,-0.75 2.62,-2.06 3.08,-3.52l1.28 -0.62 5.46 11.24 16.4 -7.96 0.84 1.75c-0.54,1.43 -0.82,2.47 0.25,4.67 1.06,2.19 4.54,3.87 7.19,2.59 2.65,-1.29 3.48,-5.06 2.41,-7.25 -1.06,-2.2 -2.05,-2.63 -3.51,-3.08l-0.85 -1.75 16.4 -7.96 -4.58 -9.43c-0.67,1.21 -1.73,2.25 -3.1,2.92 -0.27,0.13 -0.53,0.24 -0.8,0.33 -1.83,0.72 -3.64,0.51 -5.12,-0.23 -1.27,-0.59 -2.33,-1.58 -2.97,-2.9 -0.83,-1.71 -0.79,-3.63 -0.04,-5.3 0.53,-1.33 1.49,-2.52 2.9,-3.2 0.08,-0.04 0.17,-0.08 0.26,-0.12 0.06,-0.03 0.12,-0.06 0.18,-0.09 1.37,-0.67 2.84,-0.86 4.21,-0.63l-4.93 -10.17 -16.36 7.94 -0.24 -0.49c0.55,-1.43 0.59,-2.94 -0.47,-5.13 -1.07,-2.2 -4.42,-3.65 -7.08,-2.36z"/>
  <path fill="#C7E3D8" fill-rule="nonzero" d="M80.65 86.2l-2.42 0 0 0 0 -0.23 -0.02 -0.23 -0.03 -0.22 -0.04 -0.22 -0.05 -0.22 -0.06 -0.21 -0.07 -0.21 -0.08 -0.21 -0.09 -0.19 -0.1 -0.2 -0.1 -0.18 -0.12 -0.19 -0.13 -0.17 -0.13 -0.17 -0.14 -0.16 -0.15 -0.16 -0.16 -0.15 -0.16 -0.14 -0.17 -0.13 -0.18 -0.13 -0.18 -0.12 -0.19 -0.1 -0.19 -0.1 -0.2 -0.09 -0.2 -0.08 -0.21 -0.07 -0.21 -0.06 -0.22 -0.05 -0.22 -0.04 -0.23 -0.03 -0.22 -0.02 -0.23 -0.01 0 -2.42 0.35 0.01 0.35 0.03 0.35 0.04 0.34 0.06 0.33 0.08 0.33 0.09 0.32 0.11 0.32 0.13 0.3 0.13 0.3 0.16 0.29 0.16 0.28 0.18 0.27 0.19 0.26 0.21 0.25 0.22 0.24 0.23 0.23 0.24 0.21 0.25 0.21 0.26 0.19 0.27 0.18 0.28 0.17 0.29 0.15 0.3 0.14 0.3 0.12 0.32 0.11 0.32 0.1 0.33 0.07 0.33 0.06 0.34 0.05 0.35 0.03 0.35 0 0.35 0 0zm-6.9 6.91l0 -2.42 0 0 0.23 -0.01 0.22 -0.02 0.23 -0.03 0.22 -0.03 0.22 -0.05 0.21 -0.06 0.21 -0.08 0.2 -0.07 0.2 -0.1 0.19 -0.09 0.19 -0.11 0.18 -0.12 0.18 -0.12 0.17 -0.14 0.16 -0.14 0.16 -0.15 0.15 -0.15 0.14 -0.17 0.13 -0.17 0.13 -0.17 0.11 -0.18 0.11 -0.19 0.1 -0.19 0.09 -0.2 0.08 -0.21 0.07 -0.2 0.06 -0.22 0.05 -0.21 0.04 -0.22 0.03 -0.23 0.02 -0.23 0 -0.23 2.42 0 0 0.36 -0.03 0.35 -0.05 0.34 -0.06 0.34 -0.07 0.34 -0.1 0.33 -0.11 0.32 -0.12 0.31 -0.14 0.31 -0.15 0.29 -0.17 0.3 -0.18 0.28 -0.19 0.27 -0.21 0.26 -0.21 0.25 -0.23 0.24 -0.24 0.22 -0.25 0.22 -0.26 0.21 -0.27 0.19 -0.28 0.18 -0.29 0.17 -0.3 0.15 -0.3 0.14 -0.32 0.12 -0.32 0.11 -0.33 0.09 -0.33 0.08 -0.34 0.06 -0.35 0.04 -0.35 0.03 -0.35 0.01 0 0zm-6.91 -6.91l2.42 0 0 0 0.01 0.23 0.01 0.23 0.03 0.23 0.04 0.22 0.05 0.21 0.06 0.22 0.07 0.2 0.08 0.21 0.09 0.2 0.1 0.19 0.11 0.19 0.12 0.18 0.12 0.18 0.13 0.16 0.15 0.17 0.14 0.15 0.16 0.15 0.16 0.14 0.17 0.14 0.18 0.12 0.18 0.12 0.19 0.11 0.19 0.09 0.2 0.1 0.2 0.07 0.21 0.08 0.21 0.06 0.22 0.05 0.22 0.03 0.23 0.03 0.22 0.02 0.24 0.01 0 2.42 -0.36 -0.01 -0.35 -0.03 -0.34 -0.04 -0.34 -0.06 -0.34 -0.08 -0.33 -0.09 -0.32 -0.11 -0.31 -0.12 -0.31 -0.14 -0.3 -0.15 -0.29 -0.17 -0.28 -0.18 -0.27 -0.19 -0.26 -0.21 -0.25 -0.22 -0.24 -0.22 -0.23 -0.24 -0.21 -0.25 -0.21 -0.27 -0.19 -0.26 -0.18 -0.28 -0.17 -0.3 -0.15 -0.29 -0.14 -0.31 -0.12 -0.31 -0.11 -0.32 -0.09 -0.33 -0.08 -0.34 -0.06 -0.34 -0.05 -0.34 -0.02 -0.35 -0.01 -0.36 0 0zm6.91 -6.91l0 2.42 0 0 -0.24 0.01 -0.22 0.02 -0.23 0.03 -0.22 0.04 -0.22 0.05 -0.21 0.06 -0.21 0.07 -0.2 0.08 -0.2 0.09 -0.19 0.1 -0.19 0.1 -0.18 0.12 -0.18 0.13 -0.17 0.13 -0.16 0.14 -0.16 0.15 -0.14 0.16 -0.15 0.16 -0.13 0.16 -0.12 0.18 -0.12 0.19 -0.11 0.18 -0.1 0.2 -0.09 0.19 -0.08 0.21 -0.07 0.21 -0.06 0.21 -0.05 0.22 -0.04 0.22 -0.03 0.22 -0.01 0.23 -0.01 0.23 -2.42 0 0.01 -0.35 0.02 -0.35 0.05 -0.35 0.06 -0.34 0.08 -0.33 0.09 -0.33 0.11 -0.32 0.12 -0.32 0.14 -0.3 0.15 -0.3 0.17 -0.29 0.18 -0.28 0.19 -0.27 0.21 -0.26 0.21 -0.25 0.23 -0.24 0.24 -0.23 0.25 -0.22 0.26 -0.21 0.27 -0.19 0.28 -0.18 0.29 -0.16 0.3 -0.16 0.31 -0.13 0.31 -0.13 0.32 -0.11 0.33 -0.09 0.34 -0.08 0.34 -0.06 0.34 -0.04 0.35 -0.03 0.36 -0.01 0 0z"/>
  <path fill="#C7E3D8" d="M316.34 73.46l-4.94 -2.91 1.47 -2.5 -10.17 -6 -1.48 2.5 -4.37 -2.58c-0.22,1.08 -0.13,2.13 0.94,3.08l15.44 12.97c-0.07,0.41 -0.11,0.83 -0.11,1.26 0,1.49 0.47,2.86 1.27,3.99l0 6.19 11.19 0 0 -3.58c8.31,-2.83 15.04,-8.03 16.67,-20.78 -0.06,-8.7 -4.24,-15.86 -12.91,-21.3l10.52 -17.84 -13.4 -7.9 -19.63 33.31 3.57 2.1 -3.16 5.36 6.25 3.68 3.16 -5.35 -3.13 -1.85 6.7 3.95 2.85 -4.84c8.99,4.72 8.4,15.47 0.15,18.8 -0.97,-0.51 -2.07,-0.81 -3.24,-0.81 -1.33,0 -2.58,0.39 -3.64,1.05zm22.78 16.03l-41.11 0c-2.4,0 -4.36,1.96 -4.36,4.36l0 1.31 49.83 0 0 -1.31c0,-2.4 -1.97,-4.36 -4.36,-4.36zm3.52 -75.6l-6.96 -4.11 -6 10.18 6.96 4.1 6 -10.17z"/>
  <path fill="#C7E3D8" d="M184.33 0c0.28,1.84 1.41,3.45 3.16,4.19 2.75,1.16 6,-0.3 7.24,-3.25 0.13,-0.31 0.23,-0.63 0.31,-0.94l12.42 0 4.85 2.04 -4.92 11.67 1.33 0.56c1.42,-0.63 3.14,-0.68 4.74,-0.01 2.96,1.24 4.41,4.49 3.25,7.24 -1.15,2.75 -4.49,3.98 -7.45,2.74 -1.6,-0.68 -2.76,-1.94 -3.3,-3.4l-1.33 -0.55 -4.91 11.67 -14.71 -6.19c1.18,-0.67 1.9,-1.8 2.45,-3.11 1.39,-3.3 -0.32,-7.17 -3.82,-8.65 -3.49,-1.47 -7.45,0.02 -8.84,3.32 -0.56,1.31 -0.86,2.62 -0.51,3.93l-15.2 -6.4 6.26 -14.86 18.98 0z"/>
  <path fill="#C7E3D8" d="M239.11 1.25c2.75,1.16 3.69,5.17 2.73,7.45 -0.95,2.28 -1.93,2.77 -3.39,3.31l-0.21 0.51 17.06 7.18 -4.91 11.67 1.33 0.56c1.42,-0.63 3.13,-0.68 4.74,-0.01 2.95,1.25 4.41,4.49 3.25,7.24 -1.16,2.76 -4.49,3.98 -7.45,2.74 -1.6,-0.68 -2.76,-1.94 -3.31,-3.39l-1.33 -0.56 -4.91 11.67 -17.02 -7.16 -0.76 1.81c0.62,1.42 0.96,2.46 0,4.74 -0.96,2.28 -4.38,4.17 -7.14,3.01 -2.75,-1.16 -3.79,-4.93 -2.83,-7.21 0.96,-2.28 1.93,-2.76 3.39,-3.31l0.76 -1.81 -17.02 -7.16 4.12 -9.8c0.74,1.19 1.87,2.19 3.29,2.79 0.28,0.11 0.55,0.21 0.83,0.29 1.89,0.63 3.71,0.32 5.17,-0.51 1.25,-0.66 2.27,-1.72 2.85,-3.09 0.75,-1.78 0.6,-3.72 -0.25,-5.37 -0.61,-1.32 -1.65,-2.47 -3.1,-3.08 -0.1,-0.04 -0.19,-0.07 -0.28,-0.11 -0.06,-0.03 -0.12,-0.06 -0.19,-0.08 -1.42,-0.6 -2.92,-0.71 -4.29,-0.41l4.44 -10.56 16.98 7.15 0.22 -0.51c-0.63,-1.42 -0.97,-2.46 -0.01,-4.74 0.96,-2.27 4.49,-4.41 7.24,-3.25z"/>
  <path fill="#C7E3D8" d="M180.96 161.87l14.71 37.78 -1.56 0c-0.93,-1.05 -2.4,-1.47 -3.74,-0.95 -0.53,0.21 -0.97,0.54 -1.32,0.95l-50.91 0 -7.13 -18.32 1.33 -0.52 0.01 0.03c0.7,1.81 2.68,2.72 4.41,2.04 1.74,-0.67 2.57,-2.68 1.87,-4.48l-0.01 -0.04 2.05 -0.8 0.02 0.04c0.7,1.8 2.67,2.71 4.41,2.04 1.73,-0.68 2.57,-2.69 1.87,-4.49l-0.02 -0.03 2.06 -0.81 0.01 0.04c0.7,1.8 2.68,2.72 4.41,2.04 1.74,-0.68 2.58,-2.68 1.87,-4.49l-0.01 -0.03 2.06 -0.8 0.01 0.03c0.7,1.81 2.67,2.72 4.41,2.04 1.74,-0.67 2.57,-2.68 1.87,-4.48l-0.01 -0.04 1.93 -0.75 0.01 0.03c0.71,1.81 2.68,2.72 4.42,2.04 1.73,-0.67 2.57,-2.68 1.87,-4.48l-0.02 -0.04 1.69 -0.66 0.02 0.04c0.7,1.8 2.67,2.71 4.41,2.04 1.73,-0.68 2.57,-2.69 1.87,-4.49l-0.02 -0.03 1.15 -0.45z"/>
</svg>
