<svg xmlns="http://www.w3.org/2000/svg" xml:space="preserve" width="373px" height="200px" version="1.1" style="shape-rendering:geometricPrecision; text-rendering:geometricPrecision; image-rendering:optimizeQuality; fill-rule:evenodd; clip-rule:evenodd" viewBox="0 0 373 200" xmlns:xlink="http://www.w3.org/1999/xlink">
  <path fill="#C4D985" d="M11.21 0l350.58 0c6.17,0 11.21,5.04 11.21,11.21l0 177.23c0,6.16 -5.04,11.21 -11.21,11.21l-350.58 0c-6.17,0 -11.21,-5.05 -11.21,-11.21l0 -177.23c0,-6.17 5.04,-11.21 11.21,-11.21z"/>
  <path fill="#C4D985" d="M11.21 0l350.58 0c6.17,0 11.21,5.04 11.21,11.21l0 177.23c0,6.16 -5.04,11.21 -11.21,11.21l-350.58 0c-6.17,0 -11.21,-5.05 -11.21,-11.21l0 -177.23c0,-6.17 5.04,-11.21 11.21,-11.21zm86.31 53.11l177.96 0c5.93,0 10.77,4.85 10.77,10.77l0 71.88c0,5.93 -4.84,10.77 -10.77,10.77l-177.96 0c-5.93,0 -10.77,-4.84 -10.77,-10.77l0 -71.88c0,-5.92 4.84,-10.77 10.77,-10.77z"/>
  <path fill="#BDD180" fill-rule="nonzero" d="M58.53 83l-2.42 0 0 0 0 -0.24 -0.02 -0.22 -0.03 -0.23 -0.04 -0.22 -0.05 -0.22 -0.06 -0.21 -0.07 -0.21 -0.08 -0.2 -0.09 -0.2 -0.1 -0.19 -0.11 -0.19 -0.11 -0.18 -0.13 -0.18 -0.13 -0.17 -0.14 -0.16 -0.15 -0.16 -0.16 -0.15 -0.16 -0.14 -0.17 -0.13 -0.18 -0.13 -0.18 -0.11 -0.18 -0.11 -0.2 -0.1 -0.2 -0.09 -0.2 -0.08 -0.21 -0.07 -0.21 -0.06 -0.22 -0.05 -0.22 -0.04 -0.23 -0.03 -0.22 -0.02 -0.23 0 0 -2.42 0.35 0.01 0.35 0.02 0.35 0.05 0.34 0.06 0.33 0.07 0.33 0.1 0.32 0.11 0.32 0.12 0.3 0.14 0.3 0.15 0.29 0.17 0.28 0.18 0.27 0.19 0.26 0.21 0.25 0.21 0.24 0.23 0.23 0.24 0.22 0.25 0.2 0.26 0.19 0.27 0.18 0.28 0.17 0.29 0.15 0.3 0.14 0.3 0.13 0.32 0.1 0.32 0.1 0.33 0.08 0.33 0.06 0.35 0.04 0.34 0.03 0.35 0 0.36 0 0zm-6.9 6.9l0 -2.42 0 0 0.23 0 0.22 -0.02 0.23 -0.03 0.22 -0.04 0.22 -0.05 0.21 -0.06 0.21 -0.07 0.2 -0.08 0.2 -0.09 0.2 -0.1 0.18 -0.11 0.18 -0.11 0.18 -0.13 0.17 -0.13 0.16 -0.14 0.16 -0.15 0.15 -0.16 0.14 -0.16 0.13 -0.17 0.13 -0.18 0.11 -0.18 0.11 -0.19 0.1 -0.19 0.09 -0.2 0.08 -0.2 0.07 -0.21 0.06 -0.21 0.05 -0.22 0.04 -0.22 0.03 -0.23 0.02 -0.22 0 -0.23 2.42 0 0 0.35 -0.03 0.35 -0.04 0.35 -0.06 0.34 -0.08 0.33 -0.1 0.33 -0.1 0.32 -0.13 0.32 -0.14 0.3 -0.15 0.3 -0.17 0.29 -0.18 0.28 -0.19 0.27 -0.2 0.26 -0.22 0.25 -0.23 0.24 -0.24 0.23 -0.25 0.21 -0.26 0.21 -0.27 0.19 -0.28 0.18 -0.29 0.17 -0.3 0.15 -0.3 0.14 -0.32 0.12 -0.32 0.11 -0.33 0.1 -0.33 0.07 -0.34 0.06 -0.35 0.05 -0.35 0.03 -0.35 0 0 0zm-6.91 -6.9l2.42 0 0 0 0 0.23 0.02 0.22 0.03 0.23 0.04 0.22 0.05 0.22 0.06 0.21 0.07 0.21 0.08 0.2 0.09 0.2 0.1 0.19 0.11 0.19 0.12 0.18 0.12 0.18 0.13 0.17 0.15 0.16 0.14 0.16 0.16 0.15 0.16 0.14 0.17 0.13 0.18 0.13 0.18 0.11 0.19 0.11 0.19 0.1 0.2 0.09 0.2 0.08 0.21 0.07 0.21 0.06 0.22 0.05 0.22 0.04 0.23 0.03 0.22 0.02 0.24 0 0 2.42 -0.36 0 -0.35 -0.03 -0.34 -0.05 -0.34 -0.06 -0.34 -0.07 -0.33 -0.1 -0.32 -0.11 -0.31 -0.12 -0.31 -0.14 -0.3 -0.15 -0.29 -0.17 -0.28 -0.18 -0.27 -0.19 -0.26 -0.21 -0.25 -0.21 -0.24 -0.23 -0.23 -0.24 -0.21 -0.25 -0.21 -0.26 -0.19 -0.27 -0.18 -0.28 -0.17 -0.29 -0.15 -0.3 -0.14 -0.3 -0.12 -0.32 -0.11 -0.32 -0.09 -0.33 -0.08 -0.33 -0.06 -0.34 -0.05 -0.35 -0.02 -0.35 -0.01 -0.35 0 0zm6.91 -6.91l0 2.42 0 0 -0.24 0 -0.22 0.02 -0.23 0.03 -0.22 0.04 -0.22 0.05 -0.21 0.06 -0.21 0.07 -0.2 0.08 -0.2 0.09 -0.19 0.1 -0.19 0.11 -0.18 0.11 -0.18 0.13 -0.17 0.13 -0.16 0.14 -0.16 0.15 -0.14 0.16 -0.15 0.16 -0.13 0.17 -0.12 0.18 -0.12 0.18 -0.11 0.19 -0.1 0.19 -0.09 0.2 -0.08 0.2 -0.07 0.21 -0.06 0.21 -0.05 0.22 -0.04 0.22 -0.03 0.23 -0.02 0.22 0 0.24 -2.42 0 0.01 -0.36 0.02 -0.35 0.05 -0.34 0.06 -0.35 0.08 -0.33 0.09 -0.33 0.11 -0.32 0.12 -0.32 0.14 -0.3 0.15 -0.3 0.17 -0.29 0.18 -0.28 0.19 -0.27 0.21 -0.26 0.21 -0.25 0.23 -0.24 0.24 -0.23 0.25 -0.21 0.26 -0.21 0.27 -0.19 0.28 -0.18 0.29 -0.17 0.3 -0.15 0.31 -0.14 0.31 -0.12 0.32 -0.11 0.33 -0.1 0.34 -0.07 0.34 -0.06 0.34 -0.05 0.35 -0.02 0.36 -0.01 0 0z"/>
  <path fill="#BDD180" d="M69.74 126.18c2.29,0 4.15,1.86 4.15,4.16 0,2.29 -1.86,4.15 -4.15,4.15 -2.3,0 -4.15,-1.86 -4.15,-4.15 0,-2.3 1.85,-4.16 4.15,-4.16z"/>
  <path fill="#BDD180" d="M254.21 13.37c2.29,0 4.15,1.86 4.15,4.15 0,2.29 -1.86,4.15 -4.15,4.15 -2.29,0 -4.15,-1.86 -4.15,-4.15 0,-2.29 1.86,-4.15 4.15,-4.15z"/>
  <path fill="#BDD180" d="M74.12 39.87c2.29,0 4.15,1.86 4.15,4.15 0,2.3 -1.86,4.15 -4.15,4.15 -2.29,0 -4.15,-1.85 -4.15,-4.15 0,-2.29 1.86,-4.15 4.15,-4.15z"/>
  <path fill="#BDD180" d="M297.21 178.49c2.3,0 4.15,1.86 4.15,4.15 0,2.3 -1.85,4.16 -4.15,4.16 -2.29,0 -4.15,-1.86 -4.15,-4.16 0,-2.29 1.86,-4.15 4.15,-4.15z"/>
  <path fill="#BDD180" d="M174.5 154.07c2.29,0 4.15,1.85 4.15,4.15 0,2.29 -1.86,4.15 -4.15,4.15 -2.29,0 -4.15,-1.86 -4.15,-4.15 0,-2.3 1.86,-4.15 4.15,-4.15z"/>
  <path fill="#BDD180" fill-rule="nonzero" d="M207.15 163.89l-2.42 0 0 0 -0.01 -0.23 -0.02 -0.22 -0.03 -0.23 -0.04 -0.22 -0.04 -0.22 -0.07 -0.21 -0.07 -0.21 -0.08 -0.2 -0.09 -0.2 -0.1 -0.19 -0.1 -0.19 -0.12 -0.18 -0.12 -0.18 -0.14 -0.17 -0.14 -0.16 -0.15 -0.16 -0.15 -0.15 -0.17 -0.14 -0.17 -0.13 -0.17 -0.12 -0.19 -0.12 -0.18 -0.11 -0.2 -0.1 -0.19 -0.09 -0.21 -0.08 -0.21 -0.07 -0.21 -0.06 -0.21 -0.05 -0.22 -0.04 -0.23 -0.03 -0.23 -0.02 -0.23 0 0 -2.42 0.35 0.01 0.36 0.02 0.34 0.05 0.34 0.06 0.34 0.08 0.32 0.09 0.32 0.11 0.32 0.12 0.31 0.14 0.29 0.15 0.29 0.17 0.28 0.18 0.27 0.19 0.26 0.21 0.26 0.21 0.23 0.23 0.23 0.24 0.22 0.25 0.2 0.26 0.2 0.27 0.18 0.28 0.17 0.29 0.15 0.3 0.13 0.31 0.13 0.31 0.11 0.32 0.09 0.33 0.08 0.33 0.06 0.34 0.04 0.35 0.03 0.35 0.01 0.35 0 0zm-6.91 6.91l0 -2.42 0 0 0.23 0 0.23 -0.02 0.23 -0.03 0.22 -0.04 0.21 -0.05 0.21 -0.06 0.21 -0.07 0.21 -0.08 0.19 -0.09 0.2 -0.1 0.18 -0.11 0.19 -0.11 0.17 -0.13 0.17 -0.13 0.17 -0.14 0.15 -0.15 0.15 -0.16 0.14 -0.16 0.14 -0.17 0.12 -0.18 0.12 -0.18 0.1 -0.19 0.1 -0.19 0.09 -0.2 0.08 -0.2 0.07 -0.21 0.07 -0.21 0.04 -0.22 0.04 -0.22 0.03 -0.23 0.02 -0.22 0.01 -0.24 2.42 0 -0.01 0.36 -0.03 0.35 -0.04 0.34 -0.06 0.34 -0.08 0.34 -0.09 0.33 -0.11 0.32 -0.13 0.31 -0.13 0.31 -0.15 0.3 -0.17 0.29 -0.18 0.28 -0.19 0.27 -0.21 0.26 -0.22 0.25 -0.23 0.24 -0.23 0.23 -0.26 0.22 -0.26 0.2 -0.27 0.19 -0.28 0.18 -0.29 0.17 -0.29 0.15 -0.31 0.14 -0.32 0.12 -0.32 0.11 -0.32 0.1 -0.34 0.07 -0.34 0.06 -0.34 0.05 -0.36 0.02 -0.35 0.01 0 0zm-6.91 -6.91l2.42 0 0 0 0.01 0.24 0.02 0.22 0.03 0.23 0.03 0.22 0.05 0.22 0.06 0.21 0.08 0.21 0.07 0.2 0.1 0.2 0.09 0.19 0.11 0.19 0.12 0.18 0.12 0.18 0.14 0.17 0.14 0.16 0.15 0.16 0.15 0.15 0.17 0.14 0.17 0.13 0.17 0.13 0.19 0.11 0.18 0.11 0.2 0.1 0.19 0.09 0.2 0.08 0.22 0.07 0.21 0.06 0.21 0.05 0.22 0.04 0.23 0.03 0.23 0.02 0.23 0 0 2.42 -0.35 -0.01 -0.36 -0.02 -0.34 -0.05 -0.34 -0.06 -0.34 -0.07 -0.32 -0.1 -0.32 -0.11 -0.32 -0.12 -0.31 -0.14 -0.29 -0.15 -0.29 -0.17 -0.28 -0.18 -0.27 -0.19 -0.27 -0.2 -0.25 -0.22 -0.23 -0.23 -0.23 -0.24 -0.22 -0.25 -0.21 -0.26 -0.19 -0.27 -0.18 -0.28 -0.17 -0.29 -0.15 -0.3 -0.14 -0.31 -0.12 -0.31 -0.11 -0.32 -0.09 -0.33 -0.08 -0.34 -0.06 -0.34 -0.04 -0.34 -0.03 -0.35 -0.01 -0.36 0 0zm6.91 -6.9l0 2.42 0 0 -0.23 0 -0.23 0.02 -0.23 0.03 -0.22 0.04 -0.21 0.05 -0.21 0.06 -0.22 0.07 -0.2 0.08 -0.19 0.09 -0.2 0.1 -0.18 0.11 -0.19 0.12 -0.17 0.12 -0.17 0.13 -0.17 0.14 -0.15 0.15 -0.15 0.16 -0.14 0.16 -0.14 0.17 -0.12 0.18 -0.12 0.18 -0.11 0.19 -0.09 0.19 -0.1 0.2 -0.07 0.2 -0.08 0.21 -0.06 0.21 -0.05 0.22 -0.03 0.22 -0.03 0.23 -0.02 0.22 -0.01 0.23 -2.42 0 0.01 -0.35 0.03 -0.35 0.04 -0.35 0.06 -0.34 0.08 -0.33 0.09 -0.33 0.11 -0.32 0.12 -0.31 0.14 -0.31 0.15 -0.3 0.17 -0.29 0.18 -0.28 0.2 -0.27 0.2 -0.26 0.22 -0.25 0.23 -0.24 0.23 -0.23 0.25 -0.21 0.27 -0.21 0.27 -0.19 0.28 -0.18 0.29 -0.17 0.29 -0.15 0.31 -0.14 0.32 -0.12 0.32 -0.11 0.32 -0.09 0.34 -0.08 0.34 -0.06 0.34 -0.05 0.36 -0.02 0.35 -0.01 0 0z"/>
  <path fill="#BDD180" fill-rule="nonzero" d="M274.18 41.38c1.9,0 3.63,0.77 4.88,2.02 1.25,1.25 2.02,2.98 2.02,4.89 0,1.9 -0.77,3.63 -2.02,4.88 -0.14,0.14 -0.29,0.28 -0.45,0.41 -0.99,-0.3 -2.04,-0.47 -3.13,-0.47l-6.25 0c-1.21,-1.24 -1.96,-2.95 -1.96,-4.82 0,-1.91 0.77,-3.64 2.02,-4.89 1.25,-1.25 2.98,-2.02 4.89,-2.02zm3.17 3.73c-0.81,-0.81 -1.94,-1.31 -3.17,-1.31 -1.24,0 -2.37,0.5 -3.18,1.31 -0.81,0.81 -1.31,1.94 -1.31,3.18 0,1.23 0.5,2.36 1.31,3.17 0.81,0.81 1.94,1.31 3.18,1.31 1.23,0 2.36,-0.5 3.17,-1.31 0.81,-0.81 1.31,-1.94 1.31,-3.17 0,-1.24 -0.5,-2.37 -1.31,-3.18z"/>
  <path fill="#BDD180" fill-rule="nonzero" d="M368.4 106.31l-2.42 0 0 0 0 -0.23 -0.02 -0.22 -0.03 -0.23 -0.04 -0.22 -0.05 -0.22 -0.06 -0.21 -0.07 -0.21 -0.08 -0.2 -0.09 -0.2 -0.1 -0.2 -0.11 -0.18 -0.11 -0.18 -0.13 -0.18 -0.13 -0.17 -0.14 -0.16 -0.15 -0.16 -0.16 -0.15 -0.16 -0.14 -0.17 -0.13 -0.18 -0.13 -0.18 -0.11 -0.19 -0.11 -0.19 -0.1 -0.2 -0.09 -0.2 -0.08 -0.21 -0.07 -0.21 -0.06 -0.22 -0.05 -0.22 -0.04 -0.23 -0.03 -0.22 -0.02 -0.24 0 0 -2.42 0.36 0 0.35 0.03 0.34 0.05 0.35 0.06 0.33 0.07 0.33 0.1 0.32 0.11 0.32 0.12 0.3 0.14 0.3 0.15 0.29 0.17 0.28 0.18 0.27 0.19 0.26 0.2 0.25 0.22 0.24 0.23 0.23 0.24 0.21 0.25 0.21 0.26 0.19 0.27 0.18 0.28 0.17 0.29 0.15 0.3 0.14 0.31 0.12 0.31 0.11 0.32 0.1 0.33 0.07 0.33 0.06 0.34 0.05 0.35 0.02 0.35 0.01 0.35 0 0zm-6.91 6.91l0 -2.42 0 0 0.24 -0.01 0.22 -0.01 0.23 -0.03 0.22 -0.04 0.22 -0.05 0.21 -0.06 0.21 -0.07 0.2 -0.08 0.2 -0.09 0.19 -0.1 0.19 -0.11 0.18 -0.12 0.18 -0.12 0.17 -0.13 0.16 -0.15 0.16 -0.14 0.14 -0.16 0.15 -0.16 0.13 -0.17 0.13 -0.18 0.11 -0.18 0.11 -0.19 0.1 -0.19 0.09 -0.2 0.08 -0.2 0.07 -0.21 0.06 -0.21 0.05 -0.22 0.04 -0.22 0.03 -0.23 0.02 -0.22 0 -0.24 2.42 0 -0.01 0.36 -0.02 0.35 -0.05 0.34 -0.06 0.34 -0.07 0.34 -0.1 0.33 -0.11 0.32 -0.12 0.31 -0.14 0.31 -0.15 0.3 -0.17 0.29 -0.18 0.28 -0.19 0.27 -0.21 0.26 -0.21 0.25 -0.23 0.24 -0.24 0.23 -0.25 0.21 -0.26 0.21 -0.27 0.19 -0.28 0.18 -0.29 0.17 -0.3 0.15 -0.3 0.14 -0.32 0.12 -0.32 0.11 -0.33 0.09 -0.33 0.08 -0.35 0.06 -0.34 0.05 -0.35 0.02 -0.36 0.01 0 0zm-6.9 -6.91l2.42 0 0 0 0 0.24 0.02 0.22 0.03 0.23 0.04 0.22 0.05 0.22 0.06 0.21 0.07 0.21 0.08 0.2 0.09 0.2 0.1 0.19 0.11 0.19 0.11 0.18 0.13 0.18 0.13 0.17 0.14 0.16 0.15 0.16 0.16 0.14 0.16 0.15 0.17 0.13 0.18 0.12 0.18 0.12 0.19 0.11 0.19 0.1 0.2 0.09 0.2 0.08 0.21 0.07 0.21 0.06 0.22 0.05 0.22 0.04 0.23 0.03 0.22 0.01 0.23 0.01 0 2.42 -0.35 -0.01 -0.35 -0.02 -0.35 -0.05 -0.34 -0.06 -0.33 -0.08 -0.33 -0.09 -0.32 -0.11 -0.32 -0.12 -0.3 -0.14 -0.3 -0.15 -0.29 -0.17 -0.28 -0.18 -0.27 -0.19 -0.26 -0.21 -0.25 -0.21 -0.24 -0.23 -0.23 -0.24 -0.21 -0.25 -0.21 -0.26 -0.19 -0.27 -0.18 -0.28 -0.17 -0.29 -0.15 -0.3 -0.14 -0.31 -0.12 -0.31 -0.11 -0.32 -0.1 -0.33 -0.07 -0.34 -0.06 -0.34 -0.05 -0.34 -0.03 -0.35 0 -0.36 0 0zm6.9 -6.9l0 2.42 0 0 -0.23 0 -0.22 0.02 -0.23 0.03 -0.22 0.04 -0.22 0.05 -0.21 0.06 -0.21 0.07 -0.2 0.08 -0.2 0.09 -0.19 0.1 -0.19 0.11 -0.18 0.11 -0.18 0.13 -0.17 0.13 -0.16 0.14 -0.16 0.15 -0.15 0.16 -0.14 0.16 -0.13 0.17 -0.13 0.18 -0.11 0.18 -0.11 0.18 -0.1 0.2 -0.09 0.2 -0.08 0.2 -0.07 0.21 -0.06 0.21 -0.05 0.22 -0.04 0.22 -0.03 0.23 -0.02 0.22 0 0.23 -2.42 0 0 -0.35 0.03 -0.35 0.05 -0.35 0.06 -0.34 0.07 -0.33 0.1 -0.33 0.11 -0.32 0.12 -0.31 0.14 -0.31 0.15 -0.3 0.17 -0.29 0.18 -0.28 0.19 -0.27 0.21 -0.26 0.21 -0.25 0.23 -0.24 0.24 -0.23 0.25 -0.22 0.26 -0.2 0.27 -0.19 0.28 -0.18 0.29 -0.17 0.3 -0.15 0.3 -0.14 0.32 -0.12 0.32 -0.11 0.33 -0.1 0.33 -0.07 0.34 -0.06 0.35 -0.05 0.35 -0.03 0.35 0 0 0z"/>
  <path fill="#BDD180" fill-rule="nonzero" d="M144.07 34.93l-2.42 0 0 0 -0.01 -0.23 -0.01 -0.22 -0.03 -0.23 -0.04 -0.22 -0.05 -0.22 -0.06 -0.21 -0.07 -0.21 -0.08 -0.2 -0.09 -0.2 -0.1 -0.2 -0.11 -0.18 -0.12 -0.18 -0.12 -0.18 -0.13 -0.17 -0.15 -0.16 -0.14 -0.16 -0.16 -0.15 -0.16 -0.14 -0.17 -0.13 -0.18 -0.13 -0.18 -0.12 -0.19 -0.1 -0.19 -0.1 -0.2 -0.09 -0.2 -0.08 -0.21 -0.07 -0.22 -0.06 -0.21 -0.05 -0.22 -0.04 -0.23 -0.03 -0.23 -0.02 -0.23 0 0 -2.42 0.36 0 0.35 0.03 0.34 0.04 0.34 0.06 0.34 0.08 0.33 0.1 0.32 0.1 0.31 0.13 0.31 0.14 0.29 0.15 0.3 0.17 0.28 0.18 0.27 0.19 0.26 0.2 0.25 0.22 0.24 0.23 0.23 0.24 0.21 0.25 0.21 0.26 0.19 0.27 0.18 0.28 0.17 0.29 0.15 0.3 0.14 0.3 0.12 0.32 0.11 0.32 0.09 0.33 0.08 0.33 0.06 0.34 0.05 0.35 0.02 0.35 0.01 0.35 0 0zm-6.91 6.91l0 -2.42 0 0 0.23 -0.01 0.23 -0.01 0.23 -0.03 0.22 -0.04 0.21 -0.05 0.22 -0.06 0.21 -0.07 0.2 -0.08 0.2 -0.09 0.19 -0.1 0.19 -0.11 0.18 -0.12 0.18 -0.12 0.17 -0.13 0.16 -0.15 0.16 -0.14 0.14 -0.16 0.15 -0.16 0.13 -0.17 0.12 -0.18 0.12 -0.18 0.11 -0.19 0.1 -0.19 0.09 -0.2 0.08 -0.2 0.07 -0.21 0.06 -0.21 0.05 -0.22 0.04 -0.22 0.03 -0.23 0.01 -0.22 0.01 -0.24 2.42 0 -0.01 0.36 -0.02 0.35 -0.05 0.34 -0.06 0.34 -0.08 0.34 -0.09 0.33 -0.11 0.32 -0.12 0.31 -0.14 0.31 -0.15 0.3 -0.17 0.29 -0.18 0.28 -0.19 0.27 -0.21 0.26 -0.21 0.25 -0.23 0.24 -0.24 0.23 -0.25 0.21 -0.26 0.21 -0.27 0.19 -0.28 0.18 -0.3 0.17 -0.29 0.15 -0.31 0.14 -0.31 0.12 -0.32 0.11 -0.33 0.09 -0.34 0.08 -0.34 0.06 -0.34 0.05 -0.35 0.02 -0.36 0.01 0 0zm-6.91 -6.91l2.43 0 0 0 0 0.24 0.02 0.22 0.03 0.23 0.04 0.22 0.05 0.22 0.06 0.21 0.07 0.21 0.08 0.2 0.09 0.2 0.1 0.19 0.1 0.19 0.12 0.18 0.13 0.18 0.13 0.17 0.14 0.16 0.15 0.16 0.16 0.14 0.16 0.15 0.17 0.13 0.18 0.12 0.18 0.12 0.18 0.11 0.2 0.1 0.2 0.09 0.2 0.08 0.21 0.07 0.21 0.06 0.22 0.05 0.22 0.04 0.22 0.03 0.23 0.01 0.23 0.01 0 2.42 -0.35 -0.01 -0.35 -0.02 -0.35 -0.05 -0.34 -0.06 -0.33 -0.08 -0.33 -0.09 -0.32 -0.11 -0.32 -0.12 -0.3 -0.14 -0.3 -0.15 -0.29 -0.17 -0.28 -0.18 -0.27 -0.19 -0.26 -0.21 -0.25 -0.21 -0.24 -0.23 -0.23 -0.24 -0.22 -0.25 -0.2 -0.26 -0.2 -0.27 -0.17 -0.28 -0.17 -0.29 -0.15 -0.3 -0.14 -0.31 -0.13 -0.31 -0.1 -0.32 -0.1 -0.33 -0.08 -0.34 -0.06 -0.34 -0.04 -0.34 -0.03 -0.35 -0.01 -0.36 0 0zm6.91 -6.9l0 2.42 0 0 -0.23 0 -0.23 0.02 -0.22 0.03 -0.22 0.04 -0.22 0.05 -0.21 0.06 -0.21 0.07 -0.2 0.08 -0.2 0.09 -0.2 0.1 -0.18 0.1 -0.18 0.12 -0.18 0.13 -0.17 0.13 -0.16 0.14 -0.16 0.15 -0.15 0.16 -0.14 0.16 -0.13 0.17 -0.13 0.18 -0.12 0.18 -0.1 0.18 -0.1 0.2 -0.09 0.2 -0.08 0.2 -0.07 0.21 -0.06 0.21 -0.05 0.22 -0.04 0.22 -0.03 0.23 -0.02 0.22 0 0.23 -2.43 0 0.01 -0.35 0.03 -0.35 0.04 -0.35 0.06 -0.34 0.08 -0.33 0.1 -0.33 0.1 -0.32 0.13 -0.32 0.14 -0.3 0.15 -0.3 0.17 -0.29 0.17 -0.28 0.2 -0.27 0.2 -0.26 0.22 -0.25 0.23 -0.24 0.24 -0.23 0.25 -0.22 0.26 -0.2 0.27 -0.19 0.28 -0.18 0.29 -0.17 0.3 -0.15 0.3 -0.14 0.32 -0.13 0.32 -0.1 0.33 -0.1 0.33 -0.08 0.34 -0.06 0.35 -0.04 0.35 -0.03 0.35 0 0 0z"/>
  <path fill="#FEFEFE" fill-rule="nonzero" d="M275.48 53.87l-177.96 0 0 -1.51 177.96 0 0 0 0 1.51zm11.53 10.01l-1.52 0 0 0 -0.01 -0.51 -0.04 -0.51 -0.06 -0.5 -0.09 -0.49 -0.11 -0.48 -0.14 -0.48 -0.16 -0.46 -0.18 -0.46 -0.2 -0.44 -0.22 -0.43 -0.24 -0.42 -0.26 -0.41 -0.28 -0.39 -0.3 -0.38 -0.31 -0.36 -0.34 -0.35 -0.35 -0.33 -0.36 -0.32 -0.38 -0.29 -0.39 -0.28 -0.41 -0.27 -0.42 -0.24 -0.43 -0.22 -0.44 -0.2 -0.46 -0.18 -0.46 -0.16 -0.47 -0.13 -0.49 -0.12 -0.49 -0.08 -0.5 -0.07 -0.5 -0.04 -0.52 -0.01 0 -1.51 0.59 0.01 0.59 0.05 0.57 0.07 0.57 0.1 0.56 0.13 0.54 0.16 0.54 0.18 0.52 0.21 0.51 0.23 0.5 0.25 0.48 0.28 0.47 0.3 0.45 0.32 0.43 0.35 0.42 0.36 0.4 0.38 0.38 0.4 0.37 0.42 0.34 0.44 0.32 0.45 0.3 0.46 0.28 0.49 0.26 0.49 0.23 0.51 0.21 0.53 0.18 0.53 0.15 0.55 0.13 0.56 0.1 0.56 0.08 0.58 0.04 0.58 0.02 0.59 0 0zm-1.52 71.88l0 -71.88 1.52 0 0 71.88 0 0 -1.52 0zm-10.01 11.53l0 -1.52 0 0 0.52 -0.01 0.5 -0.04 0.5 -0.06 0.49 -0.09 0.49 -0.11 0.47 -0.14 0.46 -0.16 0.46 -0.17 0.44 -0.21 0.43 -0.22 0.42 -0.24 0.41 -0.26 0.39 -0.28 0.38 -0.3 0.36 -0.31 0.35 -0.34 0.34 -0.35 0.31 -0.36 0.3 -0.38 0.28 -0.39 0.26 -0.41 0.24 -0.42 0.22 -0.43 0.2 -0.44 0.18 -0.45 0.16 -0.47 0.14 -0.47 0.11 -0.49 0.09 -0.49 0.06 -0.5 0.04 -0.5 0.01 -0.52 1.52 0 -0.02 0.59 -0.04 0.59 -0.08 0.57 -0.1 0.57 -0.13 0.56 -0.15 0.54 -0.18 0.54 -0.21 0.52 -0.23 0.51 -0.26 0.5 -0.28 0.48 -0.3 0.47 -0.32 0.45 -0.34 0.43 -0.37 0.42 -0.38 0.4 -0.4 0.39 -0.42 0.36 -0.43 0.34 -0.45 0.32 -0.47 0.3 -0.48 0.28 -0.5 0.26 -0.51 0.23 -0.52 0.21 -0.54 0.18 -0.54 0.15 -0.56 0.13 -0.57 0.1 -0.57 0.08 -0.59 0.04 -0.59 0.02 0 0zm-177.96 -1.52l177.96 0 0 1.52 -177.96 0 0 0 0 -1.52zm-11.53 -10.01l1.52 0 0 0 0.01 0.52 0.04 0.5 0.06 0.5 0.09 0.49 0.11 0.49 0.14 0.47 0.16 0.47 0.17 0.45 0.21 0.44 0.22 0.43 0.24 0.42 0.26 0.41 0.28 0.39 0.3 0.38 0.31 0.36 0.34 0.35 0.35 0.34 0.36 0.31 0.38 0.3 0.39 0.28 0.41 0.26 0.42 0.24 0.43 0.22 0.44 0.21 0.45 0.17 0.47 0.16 0.47 0.14 0.49 0.11 0.49 0.09 0.5 0.06 0.5 0.04 0.52 0.01 0 1.52 -0.59 -0.02 -0.59 -0.04 -0.57 -0.08 -0.57 -0.1 -0.56 -0.13 -0.54 -0.15 -0.54 -0.18 -0.52 -0.21 -0.51 -0.23 -0.5 -0.26 -0.48 -0.28 -0.47 -0.3 -0.45 -0.32 -0.43 -0.34 -0.42 -0.36 -0.4 -0.39 -0.39 -0.4 -0.36 -0.42 -0.34 -0.43 -0.32 -0.45 -0.3 -0.47 -0.28 -0.48 -0.26 -0.5 -0.23 -0.51 -0.21 -0.52 -0.18 -0.54 -0.15 -0.54 -0.13 -0.56 -0.1 -0.57 -0.08 -0.57 -0.04 -0.59 -0.02 -0.59 0 0zm1.52 -71.88l0 71.88 -1.52 0 0 -71.88 0 0 1.52 0zm10.01 -11.52l0 1.51 0 0 -0.52 0.01 -0.5 0.04 -0.5 0.07 -0.49 0.08 -0.49 0.12 -0.47 0.13 -0.47 0.16 -0.45 0.18 -0.44 0.2 -0.43 0.22 -0.42 0.24 -0.41 0.27 -0.39 0.28 -0.38 0.29 -0.36 0.32 -0.35 0.33 -0.34 0.35 -0.31 0.36 -0.3 0.38 -0.28 0.39 -0.26 0.41 -0.24 0.42 -0.22 0.43 -0.21 0.44 -0.17 0.46 -0.16 0.46 -0.14 0.48 -0.11 0.48 -0.09 0.49 -0.06 0.5 -0.04 0.51 -0.01 0.51 -1.52 0 0.02 -0.59 0.04 -0.58 0.08 -0.58 0.1 -0.56 0.13 -0.56 0.15 -0.55 0.18 -0.53 0.21 -0.53 0.23 -0.51 0.26 -0.49 0.28 -0.49 0.3 -0.46 0.32 -0.45 0.34 -0.44 0.36 -0.42 0.39 -0.4 0.4 -0.38 0.42 -0.36 0.43 -0.35 0.45 -0.32 0.47 -0.3 0.48 -0.28 0.5 -0.25 0.51 -0.23 0.52 -0.21 0.54 -0.18 0.54 -0.16 0.56 -0.13 0.57 -0.1 0.57 -0.07 0.59 -0.05 0.59 -0.01 0 0z"/>
  <path fill="#BDD180" d="M348.21 135.67l0.12 0.1 -0.22 -0.19 0.1 0.09zm0.63 0.56c1.77,1.66 3.32,3.47 4.65,5.39l-4.57 3.01 0.79 1.21 4.57 -3.02c1.29,2.04 2.33,4.18 3.13,6.4l-5.25 1.74 0.45 1.37 5.26 -1.74c0.72,2.28 1.18,4.63 1.39,7.01l-5.6 0.33 0.09 1.44 5.61 -0.34c0.11,2.39 -0.04,4.79 -0.44,7.16l-5.62 -1.15 -0.29 1.41 5.63 1.16c-0.5,2.33 -1.25,4.62 -2.27,6.83l-5.25 -2.63 -0.64 1.29 5.27 2.64c-1.17,2.28 -2.62,4.46 -4.36,6.5l-49.8 -44.23c2.05,-2.23 4.33,-4.1 6.78,-5.64l-0.63 0.41 3.24 4.92 1.21 -0.79 -3.23 -4.9c2.3,-1.38 4.73,-2.46 7.24,-3.24l-0.69 0.23 1.81 5.46 1.37 -0.46 -1.81 -5.43c2.53,-0.73 5.13,-1.15 7.75,-1.27l-0.68 0.05 0.33 5.61 1.44 -0.09 -0.33 -5.59c2.38,-0.05 4.76,0.15 7.11,0.61l-1.11 5.42 1.41 0.29 1.11 -5.41c2.26,0.55 4.47,1.33 6.6,2.35 -0.83,1.67 -1.67,3.34 -2.51,5.01l1.5 0.75 2.5 -4.99c2.02,1.09 3.95,2.41 5.76,3.97l-3.62 4.08 1.07 0.95 3.63 -4.08zm5.05 5.99c0.1,0.14 0.19,0.28 0.28,0.42l-0.28 -0.42zm3.71 7.55c0.04,0.11 0.08,0.23 0.12,0.34l-0.12 -0.34zm-1.54 25.35c-0.1,0.19 -0.2,0.39 -0.3,0.58l0.3 -0.58zm-8.18 -8.99c4.73,-5.64 2.04,-15.95 -6.12,-23.2 -8.15,-7.25 -18.71,-8.7 -23.75,-3.33l29.87 26.53z"/>
  <path fill="#BDD180" d="M320.71 18.62l4.76 -0.01 0 -3.44c0,-0.45 0.36,-0.81 0.8,-0.81l0.51 0c0.44,0 0.8,0.36 0.8,0.81l0 3.43 5.59 -0.02 0 -3.41c0,-0.45 0.36,-0.81 0.81,-0.81l0.5 0c0.44,0 0.8,0.36 0.8,0.81l0 3.41 5.2 -0.02 0 -3.39c0,-0.45 0.36,-0.81 0.8,-0.81l0.5 0c0.44,0 0.8,0.36 0.8,0.81l0 3.39 9.94 -0.03c-14.49,8.92 9.97,38.57 -2.15,56.19l-4.04 0.01c-0.35,0.56 5.85,-10.29 3.8,-15.92 1.19,1.6 -2.03,14.44 -8.04,18.94 -13.38,0.04 -23.89,0.07 -37.28,0.1 11.69,-10.83 8.26,-26.94 6.4,-42.51 -0.79,-6.58 0.19,-15.24 6.51,-16.21l0 -3.96c0,-0.45 0.36,-0.81 0.8,-0.81l0.5 0c0.44,0 0.8,0.36 0.8,0.81l0 3.5c0.29,-0.03 0.58,-0.05 0.89,-0.05zm21.87 2.28l0 1.69c0,0.44 -0.36,0.8 -0.8,0.8l-0.5 0c-0.44,0 -0.8,-0.36 -0.8,-0.8l0 -1.6c-0.68,0.39 -1.13,1.11 -1.13,1.95 0,1.25 1.01,2.26 2.26,2.26 1.25,0 2.26,-1.01 2.26,-2.26 0,-0.9 -0.53,-1.68 -1.29,-2.04zm-7.3 0.06l0 1.63c0,0.44 -0.36,0.8 -0.8,0.8l-0.5 0c-0.45,0 -0.81,-0.36 -0.81,-0.8l0 -1.67c-0.74,0.37 -1.25,1.13 -1.25,2.02 0,1.25 1.02,2.26 2.26,2.26 1.25,0 2.26,-1.01 2.26,-2.26 0,-0.85 -0.47,-1.59 -1.16,-1.98zm-7.7 -0.03l0 1.66c0,0.44 -0.36,0.8 -0.8,0.8l-0.51 0c-0.44,0 -0.8,-0.36 -0.8,-0.8l0 -1.63c-0.7,0.38 -1.17,1.12 -1.17,1.98 0,1.25 1.01,2.26 2.26,2.26 1.24,0 2.25,-1.01 2.25,-2.26 0,-0.88 -0.5,-1.64 -1.23,-2.01zm-7.76 -0.02l0 1.68c0,0.44 -0.36,0.8 -0.8,0.8l-0.5 0c-0.44,0 -0.8,-0.36 -0.8,-0.8l0 -1.62c-0.69,0.39 -1.15,1.13 -1.15,1.97 0,1.25 1.01,2.26 2.26,2.26 1.24,0 2.26,-1.01 2.26,-2.26 0,-0.89 -0.52,-1.66 -1.27,-2.03z"/>
  <path fill="#BDD180" d="M63.05 13.17l0.25 0.18c0.44,0.31 1.05,0.2 1.36,-0.25l3 -4.31c0.3,-0.44 0.19,-1.06 -0.25,-1.36l-0.25 -0.18c-0.45,-0.31 -1.06,-0.2 -1.37,0.25l-2.99 4.31c-0.31,0.44 -0.2,1.06 0.25,1.36zm-49.25 72.59c2.39,-0.82 7.54,-6.26 8.58,-7.75l23.93 -34.49 -5.58 -3.87 -23.93 34.49c-1.04,1.49 -4.33,8.21 -4.26,10.75l-1.92 2.76c-0.23,0.35 -0.15,0.83 0.2,1.06l0 0.01c0.34,0.23 0.82,0.15 1.06,-0.2l1.92 -2.76zm33.62 -41.69l15.62 -22.51c1.45,-2.09 0.93,-4.98 -1.16,-6.43l0 0c-2.09,-1.45 -4.99,-0.93 -6.44,1.16l-1.09 1.57c-2.51,-0.24 -5.24,0.34 -6.99,2.87l-22.41 32.29c-0.33,0.49 -0.21,1.15 0.27,1.49l0 0c0.48,0.33 1.15,0.21 1.48,-0.27l22.41 -32.29c0.7,-1.01 1.89,-0.96 3.09,-0.98l-12.38 17.83 7.6 5.27z"/>
  <path fill="#BDD180" d="M17 136.52l33 -33.94 16.59 73.48 -0.28 -0.27 -4.33 4.46 0.55 0.54 4.16 -4.28 0.71 3.13 -0.28 -0.27 -2.94 3.02 0.56 0.54 2.76 -2.84 0.7 3.13 -0.27 -0.27 -1.54 1.58 0.37 0.37 -6.44 -6.26 3.28 -3.36 -0.56 -0.55 -3.27 3.37 0 0 -1.65 -1.6 3.27 -3.37 -0.55 -0.54 -3.28 3.37 -1.65 -1.61 3.28 -3.36 -0.56 -0.54 -3.27 3.36 -2.2 -2.14 0.55 0.54 3.27 -3.37 -0.56 -0.54 -3.27 3.37 -6.06 -5.9 3.27 -3.36 -0.56 -0.55 -3.27 3.37 -6.08 -5.91 0.02 0.02 5.03 -5.18 -0.56 -0.54 -5.03 5.18 -3.85 -3.75 3.27 -3.37 -0.56 -0.54 -3.27 3.37 -1.91 -1.86 0.26 0.25 3.27 -3.37 -0.56 -0.54 -3.27 3.37 -1.65 -1.6 3.28 -3.37 -0.56 -0.54 -3.28 3.37 -4.05 -3.95 0.2 0.2 3.27 -3.37 -0.56 -0.54 -3.27 3.37 -1.65 -1.61 3.28 -3.36 -0.56 -0.54 -3.27 3.36 0.26 0.26 -4.12 -4.01 3.27 -3.36 -0.55 -0.55 -3.28 3.37 -2.03 -1.97 0.38 0.37 5.03 -5.18 -0.55 -0.54 -5.03 5.18 -0.85 -0.83zm51.31 47.16l0.7 3.13 -0.27 -0.27 -0.14 0.14 0.33 0.33 -1.98 -1.93 1.36 -1.4zm-19.57 -16.3l3.27 -3.37 0.56 0.54 -3.28 3.37 -0.55 -0.54zm-4.42 -4.29l3.27 -3.37 0.56 0.54 -3.27 3.37 -0.56 -0.54zm-2.2 -2.15l3.27 -3.37 0.56 0.54 -3.28 3.37 -0.55 -0.54zm-4.42 -4.29l3.28 -3.37 0.55 0.55 -3.27 3.36 -0.56 -0.54zm-15.44 -15.01l3.27 -3.37 0.56 0.54 -3.27 3.37 -0.56 -0.54zm28.68 27.88l5.04 -5.17 0.55 0.54 -5.03 5.17 -0.56 -0.54zm-22.06 -21.45l5.03 -5.18 0.56 0.55 -5.03 5.17 -0.56 -0.54zm1.78 -11.01l23.29 22.64 -8.54 -37.82 -14.75 15.18z"/>
  <path fill="#BDD180" d="M131.29 165.88l-4.76 2.55 -1.85 -3.43c-0.24,-0.44 -0.79,-0.61 -1.23,-0.37l-0.5 0.27c-0.44,0.24 -0.61,0.79 -0.37,1.23l1.85 3.43 -5.59 2.99 -1.84 -3.41c-0.24,-0.44 -0.79,-0.6 -1.23,-0.37l-0.5 0.27c-0.44,0.24 -0.61,0.8 -0.37,1.24l1.83 3.4 -5.19 2.78 -1.82 -3.39c-0.24,-0.44 -0.79,-0.61 -1.24,-0.37l-0.5 0.27c-0.44,0.24 -0.6,0.79 -0.36,1.23l1.82 3.39 -5.63 3.01 6.58 -0.12c0.08,-0.2 0.19,-0.38 0.31,-0.56l0.29 0.55 2.69 -0.05 -0.83 -1.55c0.88,0.03 1.72,0.52 2.17,1.35 0.03,0.05 0.06,0.11 0.08,0.17l35.54 -0.67c-0.29,-0.76 -0.59,-1.51 -0.89,-2.27 -2.75,-6.98 -8.38,-15.1 -15.2,-12.66l-2.14 -3.96c-0.24,-0.44 -0.79,-0.61 -1.23,-0.37l-0.5 0.27c-0.44,0.24 -0.61,0.79 -0.37,1.23l1.89 3.5c-0.3,0.12 -0.6,0.26 -0.91,0.42zm-13.27 10.18l0.87 1.62c0.24,0.44 0.79,0.6 1.23,0.37l0.5 -0.27c0.44,-0.24 0.61,-0.79 0.37,-1.24l-0.9 -1.66c0.94,-0.03 1.86,0.46 2.34,1.34 0.67,1.25 0.2,2.8 -1.04,3.47 -1.25,0.67 -2.8,0.21 -3.47,-1.04 -0.45,-0.85 -0.38,-1.83 0.1,-2.59zm7.66 -4.18l0.89 1.66c0.24,0.44 0.79,0.6 1.23,0.36l0.5 -0.27c0.44,-0.23 0.61,-0.79 0.37,-1.23l-0.88 -1.62c0.91,0 1.78,0.49 2.24,1.34 0.67,1.24 0.21,2.8 -1.04,3.47 -1.24,0.67 -2.79,0.2 -3.46,-1.04 -0.47,-0.88 -0.38,-1.91 0.15,-2.67zm7.72 -4.19l0.9 1.67c0.24,0.44 0.79,0.61 1.24,0.37l0.49 -0.27c0.45,-0.23 0.61,-0.79 0.37,-1.23l-0.86 -1.61c0.89,0.02 1.74,0.5 2.2,1.34 0.67,1.25 0.2,2.8 -1.04,3.47 -1.24,0.67 -2.8,0.21 -3.47,-1.04 -0.47,-0.88 -0.38,-1.93 0.17,-2.7z"/>
  <path fill="#BDD180" d="M131.29 165.88l-4.76 2.55 -1.85 -3.43c-0.24,-0.44 -0.79,-0.61 -1.23,-0.37l-0.5 0.27c-0.44,0.24 -0.61,0.79 -0.37,1.23l1.85 3.43 -5.59 2.99 -1.84 -3.41c-0.24,-0.44 -0.79,-0.6 -1.23,-0.37l-0.5 0.27c-0.44,0.24 -0.61,0.8 -0.37,1.24l1.83 3.4 -5.19 2.78 -1.82 -3.39c-0.24,-0.44 -0.79,-0.61 -1.24,-0.37l-0.5 0.27c-0.44,0.24 -0.6,0.79 -0.36,1.23l1.82 3.39 -9.93 5.31c7.74,0.44 11,7.61 13.54,16.75l46.18 0c-3.76,-6.74 -6.49,-14.62 -9.48,-22.2 -2.75,-6.98 -8.38,-15.1 -15.2,-12.66l-2.14 -3.96c-0.24,-0.44 -0.79,-0.61 -1.23,-0.37l-0.5 0.27c-0.44,0.24 -0.61,0.79 -0.37,1.23l1.89 3.5c-0.3,0.12 -0.6,0.26 -0.91,0.42zm-20.59 14.04l0.91 1.69c0.23,0.43 0.79,0.6 1.23,0.36l0.5 -0.27c0.44,-0.23 0.61,-0.79 0.37,-1.23l-0.86 -1.6c0.88,0.03 1.72,0.52 2.17,1.35 0.67,1.24 0.21,2.79 -1.04,3.46 -1.24,0.67 -2.79,0.21 -3.46,-1.03 -0.49,-0.9 -0.38,-1.96 0.18,-2.73zm7.32 -3.86l0.87 1.62c0.24,0.44 0.79,0.6 1.23,0.37l0.5 -0.27c0.44,-0.24 0.61,-0.79 0.37,-1.24l-0.9 -1.66c0.94,-0.03 1.86,0.46 2.34,1.34 0.67,1.25 0.2,2.8 -1.04,3.47 -1.25,0.67 -2.8,0.21 -3.47,-1.04 -0.45,-0.85 -0.38,-1.83 0.1,-2.59zm7.66 -4.18l0.89 1.66c0.24,0.44 0.79,0.6 1.23,0.36l0.5 -0.27c0.44,-0.23 0.61,-0.79 0.37,-1.23l-0.88 -1.62c0.91,0 1.78,0.49 2.24,1.34 0.67,1.24 0.21,2.8 -1.04,3.47 -1.24,0.67 -2.79,0.2 -3.46,-1.04 -0.47,-0.88 -0.38,-1.91 0.15,-2.67zm7.72 -4.19l0.9 1.67c0.24,0.44 0.79,0.61 1.24,0.37l0.49 -0.27c0.45,-0.23 0.61,-0.79 0.37,-1.23l-0.86 -1.61c0.89,0.02 1.74,0.5 2.2,1.34 0.67,1.25 0.2,2.8 -1.04,3.47 -1.24,0.67 -2.8,0.21 -3.47,-1.04 -0.47,-0.88 -0.38,-1.93 0.17,-2.7z"/>
  <path fill="#BDD180" fill-rule="nonzero" d="M23.8 175.91l-2.42 0 0 0 0 -0.23 -0.02 -0.23 -0.03 -0.23 -0.04 -0.22 -0.05 -0.21 -0.06 -0.21 -0.07 -0.21 -0.08 -0.21 -0.09 -0.2 -0.1 -0.19 -0.11 -0.19 -0.11 -0.18 -0.13 -0.17 -0.13 -0.17 -0.14 -0.17 -0.15 -0.15 -0.16 -0.15 -0.16 -0.14 -0.17 -0.14 -0.18 -0.12 -0.18 -0.12 -0.19 -0.1 -0.19 -0.1 -0.2 -0.09 -0.2 -0.08 -0.21 -0.07 -0.21 -0.07 -0.22 -0.04 -0.22 -0.04 -0.23 -0.03 -0.22 -0.02 -0.23 -0.01 0 -2.42 0.35 0.01 0.35 0.03 0.35 0.04 0.34 0.06 0.33 0.08 0.33 0.09 0.32 0.11 0.32 0.13 0.3 0.13 0.3 0.15 0.29 0.17 0.28 0.18 0.27 0.19 0.26 0.21 0.25 0.22 0.24 0.22 0.23 0.24 0.21 0.25 0.21 0.26 0.19 0.28 0.18 0.28 0.17 0.29 0.15 0.29 0.14 0.31 0.12 0.32 0.11 0.32 0.1 0.32 0.07 0.34 0.06 0.34 0.05 0.34 0.03 0.35 0 0.36 0 0zm-6.9 6.91l0 -2.42 0 0 0.23 -0.01 0.22 -0.02 0.23 -0.03 0.22 -0.04 0.22 -0.05 0.21 -0.06 0.21 -0.07 0.2 -0.08 0.2 -0.09 0.19 -0.1 0.19 -0.1 0.18 -0.12 0.18 -0.13 0.17 -0.13 0.16 -0.14 0.16 -0.15 0.15 -0.15 0.14 -0.17 0.13 -0.17 0.13 -0.17 0.12 -0.19 0.1 -0.18 0.1 -0.19 0.09 -0.2 0.08 -0.21 0.07 -0.21 0.06 -0.21 0.05 -0.22 0.04 -0.21 0.03 -0.23 0.02 -0.23 0 -0.23 2.42 0 0 0.35 -0.03 0.36 -0.05 0.34 -0.06 0.34 -0.07 0.33 -0.1 0.33 -0.11 0.32 -0.12 0.32 -0.14 0.3 -0.15 0.3 -0.17 0.29 -0.18 0.28 -0.19 0.27 -0.21 0.27 -0.21 0.25 -0.23 0.24 -0.24 0.22 -0.25 0.22 -0.26 0.21 -0.27 0.19 -0.28 0.18 -0.29 0.16 -0.3 0.16 -0.3 0.13 -0.32 0.13 -0.32 0.11 -0.33 0.09 -0.33 0.08 -0.34 0.06 -0.35 0.04 -0.35 0.03 -0.35 0.01 0 0zm-6.91 -6.91l2.42 0 0 0 0 0.23 0.02 0.23 0.03 0.23 0.04 0.21 0.05 0.22 0.06 0.21 0.07 0.21 0.08 0.21 0.09 0.2 0.1 0.19 0.11 0.18 0.12 0.19 0.12 0.17 0.13 0.17 0.14 0.17 0.15 0.15 0.16 0.15 0.16 0.14 0.17 0.13 0.18 0.13 0.18 0.12 0.19 0.1 0.19 0.1 0.2 0.09 0.2 0.08 0.21 0.07 0.21 0.06 0.22 0.05 0.22 0.04 0.23 0.03 0.22 0.02 0.24 0.01 0 2.42 -0.36 -0.01 -0.35 -0.03 -0.34 -0.04 -0.34 -0.06 -0.34 -0.08 -0.33 -0.09 -0.32 -0.11 -0.31 -0.13 -0.31 -0.13 -0.3 -0.16 -0.29 -0.16 -0.28 -0.18 -0.27 -0.19 -0.26 -0.21 -0.25 -0.22 -0.24 -0.22 -0.23 -0.24 -0.21 -0.25 -0.21 -0.27 -0.19 -0.27 -0.18 -0.28 -0.17 -0.29 -0.15 -0.3 -0.14 -0.3 -0.12 -0.32 -0.11 -0.32 -0.1 -0.33 -0.07 -0.33 -0.06 -0.34 -0.05 -0.34 -0.02 -0.36 -0.01 -0.35 0 0zm6.91 -6.91l0 2.42 0 0 -0.24 0.01 -0.22 0.02 -0.23 0.03 -0.22 0.04 -0.22 0.04 -0.21 0.07 -0.21 0.07 -0.2 0.08 -0.2 0.09 -0.19 0.1 -0.19 0.1 -0.18 0.12 -0.18 0.12 -0.17 0.14 -0.16 0.14 -0.16 0.15 -0.15 0.15 -0.14 0.17 -0.13 0.17 -0.12 0.17 -0.12 0.18 -0.11 0.19 -0.1 0.19 -0.09 0.2 -0.08 0.21 -0.07 0.21 -0.06 0.21 -0.05 0.21 -0.04 0.22 -0.03 0.23 -0.02 0.23 0 0.23 -2.42 0 0.01 -0.36 0.02 -0.35 0.05 -0.34 0.06 -0.34 0.07 -0.34 0.1 -0.32 0.11 -0.32 0.12 -0.32 0.14 -0.31 0.15 -0.29 0.17 -0.29 0.18 -0.28 0.19 -0.28 0.21 -0.26 0.21 -0.25 0.23 -0.24 0.24 -0.22 0.25 -0.22 0.26 -0.21 0.27 -0.19 0.28 -0.18 0.29 -0.17 0.3 -0.15 0.31 -0.13 0.31 -0.13 0.32 -0.11 0.33 -0.09 0.34 -0.08 0.34 -0.06 0.34 -0.04 0.35 -0.03 0.36 -0.01 0 0z"/>
  <path fill="#BDD180" d="M268.88 160.63l-0.14 0.15c0.03,-0.05 0.06,-0.1 0.1,-0.13l0.04 -0.02zm19.66 -2.31c0.1,0.3 0.08,0.61 -0.04,0.87 -0.12,0.28 -0.35,0.5 -0.66,0.62l-2.93 1.1c-3.97,3 -7.95,5.99 -11.93,8.99l0 0.02 -0.05 0.02 -0.06 0.04 -0.05 0 -4.54 1.71 0.01 0 -53.98 20.27c-1.24,-3.3 -2.49,-6.61 -3.73,-9.92 19.66,-7.37 38.9,-14.62 58.55,-22.01 4.97,-0.42 9.94,-0.87 14.9,-1.3l2.99 -1.12c0.3,-0.12 0.62,-0.1 0.9,0.03 0.27,0.12 0.5,0.35 0.61,0.65l0.01 0.03z"/>
  <path fill="#BDD180" d="M243.14 43.39c0.14,-0.56 -0.31,-1.22 -1.28,-1.96l-0.04 -0.03c-7.19,-3.52 -14.37,-6.87 -21.57,-9.96 -6.64,-2.86 -13.3,-5.5 -19.98,-7.86 -0.03,-0.06 -0.06,-0.13 -0.09,-0.19l-0.06 -0.1 -1.52 -0.29 -0.23 -0.08 -0.01 0.03c-5.16,-1 -10.32,-2 -15.49,-3.01 -3.27,-7.5 -7.87,-7.09 -12.57,-6.67 -3.83,0.34 -7.72,0.68 -10.95,-3.48l-0.53 -0.69 0.1 0.86c0.4,3.18 2.41,6.55 5.2,9.33 1.99,1.99 4.38,3.68 6.86,4.8 2.5,1.13 5.11,1.69 7.51,1.39 1.26,-0.16 2.47,-0.55 3.57,-1.22 4.16,2.24 10.57,5.92 13.98,7.18l0 0.01 0.18 0.06 0.03 0.01 0.04 0.01c7.69,2.62 15.2,4.96 22.6,7.1 7.41,2.15 14.7,4.1 21.92,5.93l0.04 0.01 0.05 -0.01c1.37,-0.21 2.09,-0.61 2.24,-1.17z"/>
  <path fill="#BDD180" d="M93.88 17.52l7.51 0 -1.04 3.13 0.69 0.23c-2.51,-0.78 -4.94,-1.86 -7.24,-3.24l0.08 -0.12zm9.03 0l6.16 0 -0.28 4.79 0.68 0.04c-2.62,-0.12 -5.22,-0.54 -7.75,-1.27l1.19 -3.56zm7.6 0l5.96 0 0.87 4.24c-2.35,0.46 -4.73,0.66 -7.11,0.61l0.28 -4.85zm7.43 0l6.62 0 0.79 1.59c-2.13,1.02 -4.34,1.81 -6.6,2.35l-0.81 -3.94zm8.49 0l1.85 0c-0.48,0.29 -0.95,0.56 -1.44,0.83l-0.41 -0.83z"/>
  <path fill="#BDD180" d="M133.05 13.98l0.12 -0.1 -0.22 0.19 0.1 -0.09zm-33.5 -13.98l14.62 0 -11.32 10.05c5.04,5.37 15.6,3.92 23.75,-3.32 2.32,-2.06 4.19,-4.36 5.58,-6.73l8.77 0 1.3 0.43c-0.8,2.22 -1.84,4.37 -3.13,6.4l-4.57 -3.02 -0.79 1.21 4.57 3.01c-1.33,1.92 -2.88,3.73 -4.65,5.39l-3.63 -4.08 -1.07 0.96 3.62 4.08c-1.81,1.55 -3.74,2.87 -5.76,3.97l-2.5 -5 -1.5 0.75c0.84,1.67 1.68,3.34 2.51,5.01 -2.13,1.02 -4.34,1.81 -6.6,2.35l-1.11 -5.41 -1.41 0.29 1.11 5.42c-2.35,0.46 -4.73,0.66 -7.11,0.61l0.33 -5.59 -1.44 -0.09 -0.33 5.62 0.68 0.04c-2.62,-0.12 -5.22,-0.54 -7.75,-1.27l1.81 -5.43 -1.37 -0.46 -1.81 5.46 0.69 0.23c-2.51,-0.78 -4.94,-1.86 -7.24,-3.24l3.23 -4.9 -1.21 -0.79 -3.24 4.92 0.63 0.41c-2.45,-1.53 -4.73,-3.41 -6.78,-5.63l13.12 -11.65zm39.18 7.44c0.1,-0.14 0.19,-0.28 0.28,-0.43l-0.28 0.43z"/>
  <path fill="#BDD180" d="M309.89 98.96c2.29,0 4.15,1.85 4.15,4.15 0,2.29 -1.86,4.15 -4.15,4.15 -2.3,0 -4.16,-1.86 -4.16,-4.15 0,-2.3 1.86,-4.15 4.16,-4.15z"/>
  <path fill="#BDD180" fill-rule="nonzero" d="M300.75 0c0.09,0.45 0.14,0.92 0.14,1.4 0,1.91 -0.78,3.63 -2.03,4.88 -1.25,1.25 -2.97,2.03 -4.88,2.03 -1.91,0 -3.63,-0.78 -4.89,-2.03 -1.25,-1.25 -2.02,-2.97 -2.02,-4.88 0,-0.48 0.05,-0.95 0.14,-1.4l2.51 0c-0.15,0.44 -0.23,0.91 -0.23,1.4 0,1.24 0.51,2.36 1.32,3.17 0.81,0.81 1.93,1.31 3.17,1.31 1.24,0 2.36,-0.5 3.17,-1.31 0.81,-0.81 1.32,-1.93 1.32,-3.17 0,-0.49 -0.08,-0.96 -0.23,-1.4l2.51 0z"/>
</svg>
