<svg xmlns="http://www.w3.org/2000/svg" xml:space="preserve" width="373px" height="200px" version="1.1" style="shape-rendering:geometricPrecision; text-rendering:geometricPrecision; image-rendering:optimizeQuality; fill-rule:evenodd; clip-rule:evenodd" viewBox="0 0 373 200"  xmlns:xlink="http://www.w3.org/1999/xlink">
  <path fill="#C4D985" d="M11.21 0l350.58 0c6.17,0 11.21,5.04 11.21,11.21l0 177.23c0,6.16 -5.04,11.21 -11.21,11.21l-350.58 0c-6.17,0 -11.21,-5.05 -11.21,-11.21l0 -177.23c0,-6.17 5.04,-11.21 11.21,-11.21z"/>
  <path fill="#C4D985" d="M11.21 0l350.58 0c6.17,0 11.21,5.04 11.21,11.21l0 177.23c0,6.16 -5.04,11.21 -11.21,11.21l-350.58 0c-6.17,0 -11.21,-5.05 -11.21,-11.21l0 -177.23c0,-6.17 5.04,-11.21 11.21,-11.21zm86.31 53.11l177.96 0c5.93,0 10.77,4.85 10.77,10.77l0 71.88c0,5.93 -4.84,10.77 -10.77,10.77l-177.96 0c-5.93,0 -10.77,-4.84 -10.77,-10.77l0 -71.88c0,-5.92 4.84,-10.77 10.77,-10.77z"/>
  <path fill="#BDD180" fill-rule="nonzero" d="M28.98 107.43l-2.42 0 0 0 -0.01 -0.23 -0.02 -0.23 -0.02 -0.23 -0.04 -0.22 -0.05 -0.21 -0.06 -0.22 -0.07 -0.21 -0.08 -0.2 -0.09 -0.2 -0.1 -0.19 -0.11 -0.19 -0.12 -0.18 -0.12 -0.17 -0.14 -0.17 -0.14 -0.17 -0.15 -0.16 -0.15 -0.14 -0.17 -0.15 -0.17 -0.13 -0.17 -0.12 -0.18 -0.12 -0.19 -0.11 -0.19 -0.1 -0.2 -0.09 -0.2 -0.08 -0.22 -0.07 -0.21 -0.06 -0.21 -0.05 -0.22 -0.04 -0.23 -0.03 -0.23 -0.01 -0.23 -0.01 0 -2.42 0.36 0.01 0.35 0.02 0.34 0.05 0.34 0.06 0.34 0.08 0.33 0.09 0.32 0.11 0.31 0.12 0.31 0.14 0.29 0.15 0.29 0.17 0.28 0.18 0.28 0.19 0.26 0.21 0.25 0.21 0.24 0.23 0.23 0.24 0.21 0.25 0.21 0.26 0.19 0.27 0.18 0.28 0.17 0.3 0.15 0.29 0.14 0.31 0.12 0.31 0.11 0.32 0.09 0.33 0.08 0.34 0.06 0.34 0.04 0.34 0.03 0.35 0.01 0.36 0 0zm-6.91 6.91l0 -2.43 0 0 0.23 0 0.23 -0.02 0.23 -0.03 0.22 -0.04 0.21 -0.05 0.21 -0.06 0.22 -0.07 0.2 -0.08 0.2 -0.09 0.19 -0.1 0.19 -0.1 0.18 -0.12 0.17 -0.12 0.17 -0.14 0.17 -0.14 0.15 -0.15 0.15 -0.16 0.14 -0.16 0.14 -0.17 0.12 -0.18 0.12 -0.18 0.11 -0.18 0.1 -0.2 0.09 -0.2 0.08 -0.2 0.07 -0.21 0.06 -0.21 0.05 -0.22 0.04 -0.22 0.02 -0.22 0.02 -0.23 0.01 -0.23 2.42 0 -0.01 0.35 -0.03 0.35 -0.04 0.35 -0.06 0.34 -0.08 0.33 -0.09 0.33 -0.11 0.32 -0.12 0.32 -0.14 0.3 -0.15 0.3 -0.17 0.29 -0.18 0.28 -0.19 0.27 -0.21 0.26 -0.21 0.25 -0.23 0.24 -0.24 0.23 -0.25 0.22 -0.26 0.2 -0.28 0.2 -0.28 0.18 -0.29 0.16 -0.29 0.15 -0.31 0.14 -0.31 0.13 -0.32 0.11 -0.33 0.09 -0.34 0.08 -0.34 0.06 -0.34 0.04 -0.35 0.03 -0.36 0.01 0 0zm-6.91 -6.91l2.42 0 0 0 0.01 0.23 0.02 0.23 0.03 0.22 0.04 0.22 0.05 0.22 0.06 0.21 0.07 0.21 0.08 0.2 0.09 0.2 0.1 0.2 0.1 0.18 0.12 0.18 0.12 0.18 0.14 0.17 0.14 0.16 0.15 0.16 0.15 0.15 0.17 0.14 0.17 0.14 0.17 0.12 0.19 0.12 0.18 0.1 0.2 0.1 0.2 0.09 0.2 0.08 0.21 0.07 0.21 0.06 0.22 0.05 0.22 0.04 0.22 0.03 0.23 0.02 0.23 0 0 2.43 -0.35 -0.01 -0.35 -0.03 -0.35 -0.04 -0.34 -0.06 -0.34 -0.08 -0.32 -0.09 -0.32 -0.11 -0.32 -0.13 -0.3 -0.14 -0.3 -0.15 -0.29 -0.16 -0.28 -0.18 -0.27 -0.2 -0.26 -0.2 -0.25 -0.22 -0.24 -0.23 -0.23 -0.24 -0.22 -0.25 -0.2 -0.26 -0.2 -0.27 -0.18 -0.28 -0.16 -0.29 -0.16 -0.3 -0.13 -0.3 -0.13 -0.32 -0.11 -0.32 -0.09 -0.33 -0.08 -0.33 -0.06 -0.34 -0.04 -0.35 -0.03 -0.35 -0.01 -0.35 0 0zm6.91 -6.91l0 2.42 0 0 -0.23 0.01 -0.23 0.01 -0.22 0.03 -0.22 0.04 -0.22 0.05 -0.21 0.06 -0.21 0.07 -0.2 0.08 -0.2 0.09 -0.2 0.1 -0.18 0.11 -0.19 0.12 -0.17 0.12 -0.17 0.13 -0.17 0.15 -0.15 0.14 -0.15 0.16 -0.14 0.17 -0.14 0.17 -0.12 0.17 -0.12 0.18 -0.1 0.19 -0.1 0.19 -0.09 0.2 -0.08 0.2 -0.07 0.21 -0.06 0.22 -0.05 0.21 -0.04 0.22 -0.03 0.23 -0.02 0.23 -0.01 0.23 -2.42 0 0.01 -0.36 0.03 -0.35 0.04 -0.34 0.06 -0.34 0.08 -0.34 0.09 -0.33 0.11 -0.32 0.13 -0.31 0.13 -0.31 0.16 -0.29 0.16 -0.3 0.18 -0.28 0.2 -0.27 0.2 -0.26 0.22 -0.25 0.23 -0.24 0.24 -0.23 0.25 -0.21 0.26 -0.21 0.27 -0.19 0.28 -0.18 0.29 -0.17 0.3 -0.15 0.3 -0.14 0.32 -0.12 0.32 -0.11 0.32 -0.09 0.34 -0.08 0.34 -0.06 0.35 -0.05 0.35 -0.02 0.35 -0.01 0 0z"/>
  <path fill="#BDD180" d="M69.74 126.18c2.29,0 4.15,1.86 4.15,4.16 0,2.29 -1.86,4.15 -4.15,4.15 -2.3,0 -4.15,-1.86 -4.15,-4.15 0,-2.3 1.85,-4.16 4.15,-4.16z"/>
  <path fill="#BDD180" d="M215.64 11.44c2.3,0 4.16,1.86 4.16,4.15 0,2.29 -1.86,4.15 -4.16,4.15 -2.29,0 -4.15,-1.86 -4.15,-4.15 0,-2.29 1.86,-4.15 4.15,-4.15z"/>
  <path fill="#BDD180" d="M143.16 22.25c2.29,0 4.15,1.86 4.15,4.15 0,2.29 -1.86,4.15 -4.15,4.15 -2.29,0 -4.15,-1.86 -4.15,-4.15 0,-2.29 1.86,-4.15 4.15,-4.15z"/>
  <path fill="#BDD180" d="M275.77 13.83c2.29,0 4.15,1.86 4.15,4.15 0,2.29 -1.86,4.15 -4.15,4.15 -2.3,0 -4.16,-1.86 -4.16,-4.15 0,-2.29 1.86,-4.15 4.16,-4.15z"/>
  <path fill="#BDD180" d="M346.53 89.62c2.29,0 4.15,1.86 4.15,4.15 0,2.29 -1.86,4.15 -4.15,4.15 -2.3,0 -4.16,-1.86 -4.16,-4.15 0,-2.29 1.86,-4.15 4.16,-4.15z"/>
  <path fill="#BDD180" d="M177.07 180.87c2.3,0 4.16,1.86 4.16,4.15 0,2.29 -1.86,4.15 -4.16,4.15 -2.29,0 -4.15,-1.86 -4.15,-4.15 0,-2.29 1.86,-4.15 4.15,-4.15z"/>
  <path fill="#BDD180" fill-rule="nonzero" d="M148.13 169.79l-2.42 0 0 0 -0.01 -0.24 -0.01 -0.22 -0.03 -0.23 -0.04 -0.22 -0.05 -0.22 -0.06 -0.21 -0.07 -0.21 -0.08 -0.2 -0.09 -0.2 -0.1 -0.19 -0.11 -0.19 -0.12 -0.18 -0.12 -0.18 -0.13 -0.17 -0.15 -0.16 -0.15 -0.16 -0.15 -0.15 -0.17 -0.14 -0.17 -0.13 -0.17 -0.13 -0.18 -0.11 -0.19 -0.11 -0.19 -0.1 -0.2 -0.09 -0.2 -0.08 -0.21 -0.07 -0.22 -0.06 -0.21 -0.05 -0.22 -0.04 -0.23 -0.03 -0.23 -0.02 -0.23 0 0 -2.42 0.36 0 0.35 0.03 0.34 0.05 0.34 0.06 0.34 0.07 0.33 0.1 0.32 0.11 0.31 0.12 0.31 0.14 0.29 0.15 0.3 0.17 0.28 0.18 0.27 0.19 0.26 0.21 0.25 0.21 0.24 0.23 0.23 0.24 0.21 0.25 0.21 0.26 0.19 0.27 0.18 0.28 0.17 0.29 0.15 0.3 0.14 0.3 0.12 0.32 0.11 0.32 0.09 0.33 0.08 0.33 0.06 0.35 0.05 0.34 0.02 0.35 0.01 0.36 0 0zm-6.91 6.9l0 -2.42 0 0 0.23 0 0.23 -0.02 0.23 -0.03 0.22 -0.04 0.21 -0.05 0.22 -0.06 0.21 -0.07 0.2 -0.08 0.2 -0.09 0.19 -0.1 0.19 -0.11 0.18 -0.11 0.17 -0.13 0.17 -0.13 0.17 -0.14 0.15 -0.15 0.15 -0.16 0.15 -0.16 0.13 -0.17 0.12 -0.18 0.12 -0.18 0.11 -0.19 0.1 -0.19 0.09 -0.2 0.08 -0.2 0.07 -0.21 0.06 -0.21 0.05 -0.22 0.04 -0.22 0.03 -0.23 0.01 -0.22 0.01 -0.23 2.42 0 -0.01 0.35 -0.02 0.35 -0.05 0.35 -0.06 0.34 -0.08 0.33 -0.09 0.33 -0.11 0.32 -0.12 0.32 -0.14 0.3 -0.15 0.3 -0.17 0.29 -0.18 0.28 -0.19 0.27 -0.21 0.26 -0.21 0.25 -0.23 0.24 -0.24 0.23 -0.25 0.21 -0.26 0.21 -0.27 0.19 -0.28 0.18 -0.3 0.17 -0.29 0.15 -0.31 0.14 -0.31 0.12 -0.32 0.11 -0.33 0.1 -0.34 0.07 -0.34 0.06 -0.34 0.05 -0.35 0.03 -0.36 0 0 0zm-6.91 -6.9l2.43 0 0 0 0 0.23 0.02 0.22 0.03 0.23 0.04 0.22 0.05 0.22 0.06 0.21 0.07 0.21 0.08 0.2 0.09 0.2 0.1 0.19 0.1 0.19 0.12 0.18 0.12 0.18 0.14 0.17 0.14 0.16 0.15 0.16 0.16 0.15 0.16 0.14 0.17 0.13 0.17 0.13 0.19 0.11 0.18 0.11 0.2 0.1 0.2 0.09 0.2 0.08 0.21 0.07 0.21 0.06 0.22 0.05 0.22 0.04 0.22 0.03 0.23 0.02 0.23 0 0 2.42 -0.35 0 -0.35 -0.03 -0.35 -0.05 -0.34 -0.06 -0.33 -0.07 -0.33 -0.1 -0.32 -0.11 -0.32 -0.12 -0.3 -0.14 -0.3 -0.15 -0.29 -0.17 -0.28 -0.18 -0.27 -0.19 -0.26 -0.21 -0.25 -0.21 -0.24 -0.23 -0.23 -0.24 -0.22 -0.25 -0.2 -0.26 -0.2 -0.27 -0.18 -0.28 -0.16 -0.29 -0.15 -0.3 -0.14 -0.3 -0.13 -0.32 -0.11 -0.32 -0.09 -0.33 -0.08 -0.33 -0.06 -0.34 -0.04 -0.35 -0.03 -0.35 -0.01 -0.35 0 0zm6.91 -6.91l0 2.42 0 0 -0.23 0 -0.23 0.02 -0.22 0.03 -0.22 0.04 -0.22 0.05 -0.21 0.06 -0.21 0.07 -0.2 0.08 -0.2 0.09 -0.2 0.1 -0.18 0.11 -0.19 0.11 -0.17 0.13 -0.17 0.13 -0.16 0.14 -0.16 0.15 -0.15 0.16 -0.14 0.16 -0.14 0.17 -0.12 0.18 -0.12 0.18 -0.1 0.19 -0.1 0.19 -0.09 0.2 -0.08 0.2 -0.07 0.21 -0.06 0.21 -0.05 0.22 -0.04 0.22 -0.03 0.23 -0.02 0.22 0 0.24 -2.43 0 0.01 -0.36 0.03 -0.35 0.04 -0.34 0.06 -0.35 0.08 -0.33 0.09 -0.33 0.11 -0.32 0.13 -0.32 0.14 -0.3 0.15 -0.3 0.16 -0.29 0.18 -0.28 0.2 -0.27 0.2 -0.26 0.22 -0.25 0.23 -0.24 0.24 -0.23 0.25 -0.21 0.26 -0.21 0.27 -0.19 0.28 -0.18 0.29 -0.17 0.3 -0.15 0.3 -0.14 0.32 -0.12 0.32 -0.11 0.33 -0.1 0.33 -0.07 0.34 -0.06 0.35 -0.05 0.35 -0.03 0.35 0 0 0z"/>
  <path fill="#BDD180" fill-rule="nonzero" d="M274.18 41.38c1.9,0 3.63,0.77 4.88,2.02 1.25,1.25 2.02,2.98 2.02,4.89 0,1.9 -0.77,3.63 -2.02,4.88 -0.14,0.14 -0.29,0.28 -0.45,0.41 -0.99,-0.3 -2.04,-0.47 -3.13,-0.47l-6.25 0c-1.21,-1.24 -1.96,-2.95 -1.96,-4.82 0,-1.91 0.77,-3.64 2.02,-4.89 1.25,-1.25 2.98,-2.02 4.89,-2.02zm3.17 3.73c-0.81,-0.81 -1.94,-1.31 -3.17,-1.31 -1.24,0 -2.37,0.5 -3.18,1.31 -0.81,0.81 -1.31,1.94 -1.31,3.18 0,1.23 0.5,2.36 1.31,3.17 0.81,0.81 1.94,1.31 3.18,1.31 1.23,0 2.36,-0.5 3.17,-1.31 0.81,-0.81 1.31,-1.94 1.31,-3.17 0,-1.24 -0.5,-2.37 -1.31,-3.18z"/>
  <path fill="#BDD180" fill-rule="nonzero" d="M290.98 168.87l-2.42 0 0 0 -0.01 -0.23 -0.02 -0.23 -0.03 -0.23 -0.04 -0.22 -0.05 -0.21 -0.06 -0.21 -0.07 -0.21 -0.08 -0.21 -0.09 -0.2 -0.1 -0.19 -0.1 -0.18 -0.12 -0.19 -0.12 -0.17 -0.14 -0.17 -0.14 -0.17 -0.15 -0.15 -0.16 -0.15 -0.16 -0.14 -0.17 -0.13 -0.17 -0.13 -0.19 -0.12 -0.18 -0.1 -0.2 -0.1 -0.2 -0.09 -0.2 -0.08 -0.21 -0.07 -0.21 -0.06 -0.22 -0.05 -0.22 -0.04 -0.22 -0.03 -0.23 -0.02 -0.23 -0.01 0 -2.42 0.35 0.01 0.36 0.03 0.34 0.04 0.34 0.06 0.34 0.08 0.32 0.09 0.32 0.11 0.32 0.13 0.3 0.13 0.3 0.16 0.29 0.16 0.28 0.18 0.27 0.19 0.26 0.21 0.25 0.22 0.24 0.22 0.23 0.24 0.22 0.25 0.2 0.26 0.2 0.28 0.18 0.28 0.16 0.29 0.16 0.3 0.13 0.3 0.13 0.32 0.11 0.32 0.09 0.32 0.08 0.34 0.06 0.34 0.04 0.34 0.03 0.36 0.01 0.35 0 0zm-6.91 6.91l0 -2.42 0 0 0.23 -0.01 0.23 -0.02 0.22 -0.03 0.22 -0.04 0.22 -0.05 0.21 -0.06 0.21 -0.07 0.2 -0.08 0.2 -0.09 0.2 -0.1 0.18 -0.1 0.19 -0.12 0.17 -0.13 0.17 -0.13 0.16 -0.14 0.16 -0.15 0.15 -0.15 0.14 -0.17 0.14 -0.17 0.12 -0.17 0.12 -0.19 0.1 -0.18 0.1 -0.19 0.09 -0.2 0.08 -0.21 0.07 -0.21 0.06 -0.21 0.05 -0.21 0.04 -0.22 0.03 -0.23 0.02 -0.23 0.01 -0.23 2.42 0 -0.01 0.35 -0.03 0.36 -0.04 0.34 -0.06 0.34 -0.08 0.34 -0.09 0.32 -0.11 0.32 -0.13 0.32 -0.13 0.3 -0.16 0.3 -0.16 0.3 -0.18 0.27 -0.2 0.27 -0.2 0.27 -0.22 0.25 -0.23 0.24 -0.24 0.22 -0.25 0.22 -0.26 0.21 -0.27 0.19 -0.28 0.18 -0.29 0.17 -0.3 0.15 -0.3 0.13 -0.32 0.13 -0.32 0.11 -0.32 0.09 -0.34 0.08 -0.34 0.06 -0.34 0.04 -0.36 0.03 -0.35 0.01 0 0zm-6.91 -6.91l2.42 0 0 0 0.01 0.23 0.02 0.23 0.02 0.23 0.04 0.22 0.05 0.21 0.06 0.21 0.07 0.21 0.08 0.21 0.09 0.2 0.1 0.19 0.11 0.18 0.12 0.19 0.12 0.17 0.14 0.17 0.14 0.17 0.15 0.15 0.15 0.15 0.17 0.14 0.16 0.13 0.18 0.13 0.18 0.12 0.19 0.1 0.19 0.1 0.2 0.09 0.2 0.08 0.22 0.07 0.21 0.06 0.21 0.05 0.22 0.04 0.23 0.03 0.23 0.02 0.23 0.01 0 2.42 -0.36 -0.01 -0.35 -0.03 -0.34 -0.04 -0.34 -0.06 -0.34 -0.08 -0.33 -0.09 -0.32 -0.11 -0.31 -0.13 -0.31 -0.13 -0.29 -0.15 -0.29 -0.17 -0.28 -0.18 -0.27 -0.19 -0.27 -0.21 -0.25 -0.22 -0.24 -0.22 -0.23 -0.24 -0.21 -0.25 -0.21 -0.27 -0.19 -0.27 -0.18 -0.27 -0.17 -0.3 -0.15 -0.3 -0.14 -0.3 -0.12 -0.32 -0.11 -0.32 -0.09 -0.32 -0.08 -0.34 -0.06 -0.34 -0.04 -0.34 -0.03 -0.36 -0.01 -0.35 0 0zm6.91 -6.91l0 2.42 0 0 -0.23 0.01 -0.23 0.02 -0.23 0.03 -0.22 0.04 -0.21 0.05 -0.21 0.06 -0.22 0.07 -0.2 0.08 -0.2 0.09 -0.19 0.1 -0.19 0.1 -0.18 0.12 -0.18 0.13 -0.16 0.13 -0.17 0.14 -0.15 0.15 -0.15 0.15 -0.14 0.17 -0.14 0.17 -0.12 0.17 -0.12 0.19 -0.11 0.18 -0.1 0.19 -0.09 0.2 -0.08 0.21 -0.07 0.21 -0.06 0.21 -0.05 0.21 -0.04 0.22 -0.02 0.23 -0.02 0.23 -0.01 0.23 -2.42 0 0.01 -0.35 0.03 -0.36 0.04 -0.34 0.06 -0.34 0.08 -0.34 0.09 -0.32 0.11 -0.32 0.12 -0.32 0.14 -0.3 0.15 -0.3 0.17 -0.29 0.18 -0.28 0.19 -0.28 0.21 -0.26 0.21 -0.25 0.23 -0.24 0.24 -0.22 0.25 -0.22 0.27 -0.21 0.27 -0.19 0.28 -0.18 0.29 -0.16 0.29 -0.16 0.31 -0.13 0.31 -0.13 0.32 -0.11 0.33 -0.09 0.34 -0.08 0.34 -0.06 0.34 -0.04 0.35 -0.03 0.36 -0.01 0 0z"/>
  <path fill="#BDD180" d="M297.08 25.22l24.58 -10.58c2.35,-1.02 5.78,-0.11 6.12,2.43l1.86 14.18c0.92,7.01 11.08,3.79 20.75,3.96l0.23 0.01 0.31 0.01 0.28 0.01 0.25 0.01c0.12,0 0.23,0.01 0.35,0.02l0.23 0.01c0.12,0.01 0.24,0.01 0.35,0.02l0.18 0.02c0.14,0.01 0.28,0.02 0.42,0.03l0.14 0.02c0.14,0.01 0.29,0.03 0.43,0.04l0.11 0.02c0.16,0.02 0.31,0.04 0.47,0.06l0.08 0.01c0.16,0.02 0.32,0.05 0.49,0.07l0.06 0.01c0.17,0.03 0.33,0.06 0.49,0.09l0.05 0.01c0.17,0.03 0.35,0.07 0.52,0.11l0 0 0.01 0 0.01 0c0.17,0.04 0.35,0.08 0.52,0.12l0.01 0c0.18,0.05 0.35,0.09 0.53,0.14l0 0 0 0c0.18,0.05 0.35,0.1 0.52,0.16l0.02 0c0.17,0.05 0.34,0.11 0.51,0.17 7.7,2.69 4.75,11.4 2.4,12.41l-8.58 3.7 -30.42 13.11 -9.17 3.95c-6.53,2.81 -10.95,-13.27 -9.81,-17.83l0 -0.01 0 -0.02 0 -0.01c-0.01,-0.2 -0.01,-0.4 -0.02,-0.59l0 -0.02 0 -0.01 0 -0.01 0 -0.02 0 -0.01 0 -0.05 0 -0.01 0 -0.02 0 -0.01 0 -0.01 0 -0.02c-0.52,-14.79 -5.24,-14 -7.71,-19.56 -1.04,-2.34 0.08,-5.1 2.43,-6.12zm32.89 -6.65c2.53,-2.14 4.89,-3.58 6.9,-4.2 1.1,-0.35 2.11,-0.45 3,-0.31 0.93,0.15 1.72,0.58 2.33,1.29 0.41,0.48 0.73,1.07 0.96,1.8l0.06 0.2 -0.08 0.2c-1.11,2.83 -4.35,2.56 -7.86,2.26 -1.69,-0.14 -3.46,-0.28 -4.97,-0.06l-0.83 0.12 -0.36 0.96 -0.18 -0.88 -0.7 0.11 0.61 -0.53 -0.16 -0.75c-0.69,-3.32 -0.82,-6.15 -0.39,-8.26 0.23,-1.12 0.62,-2.06 1.18,-2.77 0.58,-0.74 1.33,-1.23 2.25,-1.42 0.62,-0.13 1.29,-0.12 2.04,0.03l0.2 0.04 0.14 0.17c1.94,2.33 0.14,5.05 -1.8,7.97 -0.88,1.32 -1.79,2.69 -2.34,4.03zm7.26 -3.04c-1.51,0.47 -3.26,1.45 -5.15,2.9 1.09,-0.01 2.21,0.09 3.31,0.18 2.93,0.24 5.65,0.47 6.54,-1.31 -0.17,-0.47 -0.39,-0.86 -0.65,-1.16 -0.42,-0.49 -0.96,-0.78 -1.61,-0.88 -0.69,-0.12 -1.51,-0.02 -2.44,0.27zm-7.74 -4.76c-0.32,1.55 -0.3,3.56 0.05,5.91 0.53,-0.95 1.15,-1.89 1.76,-2.81 1.63,-2.45 3.14,-4.73 2.01,-6.36 -0.5,-0.08 -0.94,-0.07 -1.33,0.01 -0.63,0.13 -1.15,0.46 -1.55,0.98 -0.43,0.55 -0.75,1.32 -0.94,2.27z"/>
  <path fill="#BDD180" d="M311.61 71.92l0.77 -0.33c1.04,2.26 2.26,4.66 3.39,6.68l-1.21 0.52c-1.31,0.56 -2.85,-0.05 -3.41,-1.36l-0.9 -2.09c-0.57,-1.32 0.04,-2.85 1.36,-3.42zm2.99 -1.29l6.12 -2.63c1,2.22 2.2,4.62 3.34,6.69l-6.79 2.93 2.63 -1.14zm4.95 -10.26l13.13 -5.66 0 0 2.96 6.86 -4.75 2.05c-1.18,-2.17 -2.34,-4.57 -3.26,-6.74l-4.14 1.79c0.95,2.16 2.13,4.57 3.28,6.72l-3.88 1.67c-1.18,-2.1 -2.36,-4.48 -3.34,-6.69zm17.56 -7.57l4.81 -2.07c1.14,2.11 2.3,4.51 3.24,6.74l-5.09 2.19 -2.96 -6.86zm8.95 -3.86l4.57 -1.97c1.17,2.23 2.31,4.64 3.17,6.78l4.14 -1.79c-0.86,-2.06 -2.01,-4.49 -3.18,-6.77l2.18 -0.94c1.31,-0.56 2.85,0.05 3.42,1.36l0.9 2.09c0.56,1.32 -0.05,2.85 -1.36,3.42l-10.61 4.57c-0.95,-2.19 -2.11,-4.61 -3.23,-6.75z"/>
  <path fill="#BDD180" fill-rule="nonzero" d="M77.45 167.06c7.28,0.19 14.26,0.12 21.35,-0.1 0.46,2.38 0.59,4.76 0.23,7.14 -0.38,2.45 -1.27,4.92 -2.88,7.4 -29.31,-0.2 -50.8,-6.55 -71.88,-12.77 -1.22,-0.36 -2.43,-0.72 -3.71,-1.09 -1.65,-1.72 -2.56,-3.38 -2.81,-4.85 -0.13,-0.73 -0.09,-1.42 0.11,-2.04 0.2,-0.62 0.56,-1.19 1.07,-1.68 0.96,-0.94 2.46,-1.63 4.45,-1.97l0 0c5.82,-1.06 11.16,-1.89 16.14,-2.47 4.75,-0.56 9.16,-0.89 13.35,-0.97 -0.07,0.83 -0.17,1.74 -0.28,2.66 -0.41,3.47 -0.83,7.14 0.74,8.95l0.15 0.17 0.21 0.02c8.54,0.91 16.31,1.39 23.76,1.6zm-29.69 -13.46l-0.12 0.07 -0.14 -0.27c-0.96,-1.78 -2.19,-3.57 -3.43,-5.37 -1.81,-2.64 -3.64,-5.3 -4.56,-7.85 1.1,-0.95 2.53,-1.6 4.34,-1.85 1.75,-0.25 3.86,-0.12 6.36,0.47 0.01,2.27 -1.04,7.62 -1.96,12.32 -0.17,0.87 -0.34,1.71 -0.49,2.48zm-17.91 -0.63c0.18,-0.48 0.36,-0.97 0.54,-1.47 1.15,-3.17 2.34,-6.45 4.59,-9.1 0.75,0.08 2.5,2.04 4.44,4.2 0.43,0.48 0.87,0.97 1.11,1.24 0.83,0.9 1.74,1.83 2.53,2.64 0.77,0.79 1.42,1.46 1.8,1.89 -1.78,0.4 -3.81,0.64 -5.95,0.75 -2.85,0.15 -5.9,0.07 -8.86,-0.14l-0.2 -0.01zm60.1 35.33c-3.87,0.04 -7.75,-0.11 -11.77,-0.56 -4.01,-0.44 -8.15,-1.18 -12.56,-2.29 -0.07,-0.47 -0.11,-1.02 -0.16,-1.57 -0.06,-0.73 -0.12,-1.45 -0.23,-2.03l-0.07 -0.38 -0.39 -0.06c-12.94,-2.04 -22.45,-4.27 -29.3,-6.4 -6.85,-2.14 -10.99,-4.14 -13.23,-5.73l1.72 0.51c20.99,6.19 42.38,12.51 71.48,12.8 -0.78,0.84 -1.59,1.65 -2.4,2.47 -1.05,1.06 -2.11,2.13 -3.09,3.24z"/>
  <path fill="#BDD180" d="M60.19 11.98c0.54,0.23 1.06,0.53 1.56,0.93 5.77,7.35 -7.33,17.46 -11.52,28.15 -3.1,5.78 -6.14,12.5 -13.31,15.27 -0.12,0.07 -0.25,0.14 -0.38,0.21l-0.01 0.01c-0.12,0.07 -0.23,0.13 -0.35,0.19l-0.03 0.01 -0.19 0.1 0 0c-0.39,0.19 -0.79,0.37 -1.19,0.52l-0.03 0.02c-0.12,0.04 -0.25,0.09 -0.37,0.13l-0.03 0.02 -0.18 0.06 -0.05 0.02c-0.19,0.06 -0.38,0.12 -0.57,0.18l-0.09 0.02c-0.11,0.04 -0.22,0.07 -0.33,0.1l-0.05 0.01 -0.17 0.04 -0.1 0.03 -0.16 0.04c-0.07,0.01 -0.14,0.03 -0.22,0.05l-0.01 0 -0.16 0.03 -0.12 0.02c-0.06,0.02 -0.13,0.03 -0.2,0.04 -0.06,0.01 -0.13,0.02 -0.19,0.04l-0.15 0.02 -0.14 0.02 -0.15 0.02c-0.08,0.01 -0.16,0.02 -0.25,0.03l-0.14 0.02 -0.14 0.01 -0.16 0.02c-0.09,0.01 -0.17,0.01 -0.26,0.02l-0.12 0.01 -0.17 0.01 -0.15 0.01c-0.09,0 -0.18,0 -0.27,0.01l-0.12 0c-0.06,0 -0.13,0 -0.19,0l-0.13 0c-0.1,0 -0.19,0 -0.28,0l-0.12 0 -0.2 -0.01 -0.14 0c-0.09,-0.01 -0.19,-0.01 -0.28,-0.02l-0.13 -0.01 -0.2 -0.01 -0.13 -0.02c-0.1,0 -0.2,-0.01 -0.3,-0.02l-0.1 -0.02c-0.08,0 -0.17,-0.01 -0.25,-0.02l-0.1 -0.02c-0.11,-0.01 -0.22,-0.03 -0.32,-0.04l-0.1 -0.02c-0.08,-0.01 -0.17,-0.02 -0.25,-0.04l-0.12 -0.02c-0.1,-0.02 -0.21,-0.04 -0.32,-0.06l-0.09 -0.02c-0.09,-0.01 -0.18,-0.03 -0.26,-0.05l-0.12 -0.02c-0.11,-0.03 -0.23,-0.05 -0.35,-0.08l-0.03 -0.01c-0.11,-0.02 -0.21,-0.05 -0.32,-0.08l-0.1 -0.02c-0.12,-0.03 -0.23,-0.06 -0.35,-0.1l-0.02 0 -0.04 -0.01c-0.1,-0.03 -0.21,-0.06 -0.32,-0.09l-0.1 -0.03c-0.12,-0.04 -0.24,-0.08 -0.36,-0.11l-0.06 -0.02c-0.1,-0.04 -0.21,-0.07 -0.32,-0.11l-0.11 -0.04c-0.12,-0.04 -0.24,-0.08 -0.35,-0.12l-0.02 0 0 0 -0.04 -0.02c-0.12,-0.04 -0.23,-0.08 -0.35,-0.13l-0.09 -0.03c-0.13,-0.05 -0.26,-0.1 -0.39,-0.15l-0.23 -0.18 -0.02 -0.01 -0.2 -0.17 -0.05 -0.03 -0.18 -0.15 -0.02 -0.01 -0.12 -0.11 -0.12 -0.09 -0.12 -0.1 -0.1 -0.08 -0.15 -0.13 -0.07 -0.06 -0.14 -0.12 -0.11 -0.09 -0.11 -0.11 -0.09 -0.08 -0.15 -0.13 -0.05 -0.05 -0.16 -0.14 -0.07 -0.08 -0.15 -0.13 -0.02 -0.03c-0.19,-0.18 -0.37,-0.37 -0.55,-0.56l-0.04 -0.04c-0.05,-0.05 -0.09,-0.1 -0.14,-0.15l-0.06 -0.07c-0.04,-0.05 -0.09,-0.1 -0.13,-0.15l-0.06 -0.07c-0.05,-0.05 -0.09,-0.11 -0.14,-0.16l-0.05 -0.07 -0.13 -0.16 -0.06 -0.08c-0.04,-0.05 -0.08,-0.1 -0.12,-0.16l-0.06 -0.07c-0.04,-0.06 -0.08,-0.11 -0.12,-0.17l-0.05 -0.07c-0.04,-0.06 -0.09,-0.12 -0.13,-0.18l-0.04 -0.06c-0.04,-0.07 -0.09,-0.13 -0.13,-0.2l0 -0.01c-0.27,-0.41 -0.5,-0.85 -0.71,-1.31l-0.01 -0.01c-0.04,-0.08 -0.08,-0.17 -0.11,-0.25l-0.02 -0.04c-0.03,-0.09 -0.07,-0.17 -0.1,-0.25l-0.02 -0.05c-0.03,-0.09 -0.06,-0.17 -0.1,-0.26l-0.01 -0.05c-0.03,-0.08 -0.06,-0.17 -0.09,-0.26l-0.02 -0.05c-0.03,-0.09 -0.05,-0.18 -0.08,-0.27l-0.01 -0.04c-0.03,-0.1 -0.06,-0.19 -0.08,-0.29l-0.01 -0.02c-0.22,-0.86 -0.36,-1.81 -0.41,-2.87l0 -0.01c0,-0.13 0,-0.26 -0.01,-0.38l0 -0.04c0,-0.12 0,-0.24 0,-0.37l0 -0.06c0,-0.12 0.01,-0.24 0.01,-0.37l0 -0.06c0.01,-0.13 0.01,-0.26 0.02,-0.4l0 0c0.07,-1.17 0.24,-2.45 0.55,-3.87l0 -0.03c0.04,-0.17 0.08,-0.34 0.12,-0.51l0.01 -0.04c0.03,-0.17 0.08,-0.34 0.12,-0.52l0.01 -0.04c0.04,-0.17 0.09,-0.35 0.14,-0.53l0.01 -0.05c0.05,-0.17 0.09,-0.35 0.15,-0.53l0.01 -0.06c0.7,-2.48 1.75,-5.32 3.21,-8.6 3.58,-2.14 7.42,-2.6 11.13,-1.95 0.24,-0.24 0.48,-0.47 0.72,-0.7 12.3,-12.6 21.13,-17.37 27.4,-16.37 0.46,0.36 0.84,0.74 1.14,1.15zm-19.12 68.34c-0.01,0.07 -0.02,0.14 -0.03,0.21l0 0.01 0 0.01 -0.01 0.06 -0.02 0.15 -0.01 0.11 -0.01 0.13 -0.02 0.11c0,0.07 -0.01,0.15 -0.02,0.22l0 0.05c0,0.07 -0.01,0.13 -0.01,0.2l-0.01 0.07 -0.01 0.19 0 0.05c0,0.08 0,0.16 0,0.24l0 0.06 -0.01 0.19 0.01 0.07c0,0.07 0,0.15 0,0.22l0 0.02c0,0.08 0.01,0.17 0.01,0.25l0 0.06c0.01,0.06 0.01,0.13 0.02,0.2l0 0.06c0.01,0.08 0.02,0.16 0.02,0.24l0 0.01c0.01,0.08 0.02,0.16 0.03,0.25l0.01 0.05c0.01,0.06 0.02,0.13 0.03,0.2l0.01 0.06 0.02 -3.75zm0.03 4.03c0.01,0.07 0.02,0.14 0.04,0.21l0.01 0.07c0.01,0.07 0.03,0.13 0.04,0.2l0.02 0.05c0.02,0.09 0.04,0.17 0.06,0.25l0.01 0.04c0.02,0.07 0.04,0.14 0.06,0.21l0.02 0.06c0.02,0.07 0.04,0.14 0.06,0.21l0.01 0.05c0.03,0.08 0.06,0.16 0.09,0.24l0.02 0.06c0.02,0.06 0.04,0.13 0.07,0.19l0.02 0.07c0.03,0.07 0.06,0.14 0.09,0.22l0.01 0.02c0.04,0.08 0.07,0.16 0.11,0.24l0.03 0.07c0.03,0.06 0.06,0.12 0.09,0.19l0.03 0.06c0.04,0.08 0.08,0.16 0.12,0.24 1.63,3.13 3.05,6.42 11.64,8.26 2.29,0.42 5.01,0.3 7.83,-0.57 5.36,-1.51 10.96,-5.24 13.1,-11.73 0.47,-0.9 0.92,-1.85 1.33,-2.85 -0.48,-2.5 -1.65,-4.54 -3.29,-6.18 0.25,-1.97 0.39,-4.07 0.45,-6.29 0.07,-1.04 0.14,-2.06 0.21,-3.05 2.81,-15.32 1.24,-24.3 -3.75,-25.01l0 0c-0.61,-0.29 -1.29,-0.51 -2.06,-0.64 -9.07,0.38 -10.33,18.93 -22.07,31.85 -0.06,0.16 -0.11,0.32 -0.17,0.48 -0.26,0.15 -0.52,0.3 -0.76,0.46 -0.6,0.89 -1.28,2.01 -1.88,3.29l-0.01 0c-0.05,0.11 -0.1,0.22 -0.15,0.33l-0.07 0.16 -0.06 0.14 -0.02 0.04c-0.1,0.22 -0.19,0.43 -0.27,0.65l-0.02 0.03c-0.05,0.15 -0.11,0.3 -0.17,0.45l-0.03 0.08 -0.04 0.12 -0.03 0.08c-0.05,0.15 -0.1,0.31 -0.16,0.47l-0.01 0.04 -0.05 0.15 -0.01 0.05 -0.05 0.15 -0.05 0.19 -0.04 0.13 -0.02 0.08 -0.03 0.13 -0.04 0.12 -0.02 0.1 0 0 -0.05 0.18 0 0.01 -0.03 0.13 -0.02 0.1 -0.02 0.12 -0.03 0.11 -0.03 0.19 -0.03 0.13 -0.01 0.09 -0.03 0.15 -0.02 0.1 0.03 4.03zm-0.15 -1.09c0.01,0.08 0.02,0.16 0.02,0.24l-0.02 -0.24zm0.14 1.05l0 0.01 0.01 0.03 -0.01 -0.04z"/>
  <path fill="#BDD180" fill-rule="nonzero" d="M110.68 17.52l-2.42 0 0 0 -0.01 -0.23 -0.02 -0.23 -0.03 -0.23 -0.04 -0.22 -0.05 -0.21 -0.06 -0.22 -0.07 -0.21 -0.08 -0.2 -0.09 -0.2 -0.1 -0.19 -0.1 -0.19 -0.12 -0.18 -0.12 -0.17 -0.14 -0.17 -0.14 -0.17 -0.15 -0.15 -0.16 -0.15 -0.16 -0.14 -0.17 -0.14 -0.17 -0.12 -0.19 -0.12 -0.18 -0.11 -0.2 -0.1 -0.2 -0.09 -0.2 -0.08 -0.21 -0.07 -0.21 -0.06 -0.22 -0.05 -0.22 -0.04 -0.22 -0.03 -0.23 -0.01 -0.23 -0.01 0 -2.42 0.35 0.01 0.35 0.03 0.35 0.04 0.34 0.06 0.34 0.08 0.32 0.09 0.32 0.11 0.32 0.12 0.3 0.14 0.3 0.15 0.29 0.17 0.28 0.18 0.27 0.19 0.26 0.21 0.25 0.21 0.24 0.23 0.23 0.24 0.22 0.25 0.2 0.26 0.2 0.27 0.18 0.28 0.16 0.3 0.16 0.29 0.13 0.31 0.13 0.31 0.11 0.32 0.09 0.33 0.08 0.34 0.06 0.34 0.04 0.34 0.03 0.35 0.01 0.36 0 0zm-6.91 6.91l0 -2.42 0 0 0.23 -0.01 0.23 -0.02 0.22 -0.03 0.22 -0.04 0.22 -0.05 0.21 -0.06 0.21 -0.07 0.2 -0.08 0.2 -0.09 0.2 -0.1 0.18 -0.1 0.19 -0.12 0.17 -0.12 0.17 -0.14 0.16 -0.14 0.16 -0.15 0.15 -0.16 0.14 -0.16 0.14 -0.17 0.12 -0.17 0.12 -0.19 0.1 -0.18 0.1 -0.2 0.09 -0.2 0.08 -0.2 0.07 -0.21 0.06 -0.21 0.05 -0.22 0.04 -0.22 0.03 -0.22 0.02 -0.23 0.01 -0.23 2.42 0 -0.01 0.35 -0.03 0.35 -0.04 0.35 -0.06 0.34 -0.08 0.33 -0.09 0.33 -0.11 0.32 -0.13 0.32 -0.13 0.3 -0.16 0.3 -0.16 0.29 -0.18 0.28 -0.2 0.27 -0.2 0.26 -0.22 0.25 -0.23 0.24 -0.24 0.23 -0.25 0.22 -0.26 0.2 -0.27 0.2 -0.28 0.18 -0.29 0.16 -0.3 0.15 -0.3 0.14 -0.32 0.13 -0.32 0.11 -0.32 0.09 -0.34 0.08 -0.34 0.06 -0.35 0.04 -0.35 0.03 -0.35 0.01 0 0zm-6.91 -6.91l2.42 0 0 0 0.01 0.23 0.01 0.23 0.03 0.22 0.04 0.22 0.05 0.22 0.06 0.21 0.07 0.21 0.08 0.2 0.09 0.2 0.1 0.2 0.11 0.18 0.12 0.19 0.12 0.17 0.14 0.17 0.14 0.16 0.15 0.16 0.15 0.15 0.17 0.14 0.17 0.14 0.17 0.12 0.18 0.12 0.19 0.1 0.19 0.1 0.2 0.09 0.2 0.08 0.21 0.07 0.22 0.06 0.21 0.05 0.22 0.04 0.23 0.03 0.23 0.02 0.23 0.01 0 2.42 -0.36 -0.01 -0.35 -0.03 -0.34 -0.04 -0.34 -0.06 -0.34 -0.08 -0.33 -0.09 -0.32 -0.11 -0.31 -0.13 -0.31 -0.14 -0.29 -0.15 -0.3 -0.16 -0.28 -0.18 -0.27 -0.2 -0.26 -0.2 -0.25 -0.22 -0.24 -0.23 -0.23 -0.24 -0.21 -0.25 -0.21 -0.26 -0.19 -0.27 -0.18 -0.28 -0.17 -0.29 -0.15 -0.3 -0.14 -0.3 -0.12 -0.32 -0.11 -0.32 -0.09 -0.33 -0.08 -0.33 -0.06 -0.34 -0.04 -0.35 -0.03 -0.35 -0.01 -0.35 0 0zm6.91 -6.91l0 2.42 0 0 -0.23 0.01 -0.23 0.01 -0.23 0.03 -0.22 0.04 -0.21 0.05 -0.22 0.06 -0.21 0.07 -0.2 0.08 -0.2 0.09 -0.19 0.1 -0.19 0.11 -0.18 0.12 -0.17 0.12 -0.17 0.14 -0.17 0.14 -0.15 0.15 -0.15 0.15 -0.14 0.17 -0.14 0.17 -0.12 0.17 -0.12 0.18 -0.11 0.19 -0.1 0.19 -0.09 0.2 -0.08 0.2 -0.07 0.21 -0.06 0.22 -0.05 0.21 -0.04 0.22 -0.03 0.23 -0.01 0.23 -0.01 0.23 -2.42 0 0.01 -0.36 0.03 -0.35 0.04 -0.34 0.06 -0.34 0.08 -0.34 0.09 -0.33 0.11 -0.32 0.12 -0.31 0.14 -0.31 0.15 -0.29 0.17 -0.3 0.18 -0.28 0.19 -0.27 0.21 -0.26 0.21 -0.25 0.23 -0.24 0.24 -0.23 0.25 -0.21 0.26 -0.21 0.27 -0.19 0.28 -0.18 0.3 -0.17 0.29 -0.15 0.31 -0.14 0.31 -0.12 0.32 -0.11 0.33 -0.09 0.34 -0.08 0.34 -0.06 0.34 -0.04 0.35 -0.03 0.36 -0.01 0 0z"/>
  <path fill="#BDD180" d="M231.78 194.27l-1.2 -2.89 -5.04 -1.48 -3.04 1.49 -28.54 -9.1c-2.55,-2.89 -3.76,-6.2 -2.42,-9.68l0.23 0.07c-0.04,-0.12 -0.06,-0.24 -0.06,-0.37l-0.01 -0.01 0 -0.01 0 0 0 -0.01 0 0 0 0 0 -0.01 0 0 0 0 0 -0.01 0 -0.02c0.12,-0.28 0.23,-0.56 0.35,-0.82l0.01 -0.02c0.12,-0.26 0.23,-0.51 0.35,-0.75l0.02 -0.05c0.11,-0.23 0.23,-0.46 0.35,-0.67l0.02 -0.05c0.12,-0.22 0.24,-0.43 0.35,-0.63l0.03 -0.05c0.12,-0.2 0.24,-0.39 0.36,-0.57l0.03 -0.06c0.12,-0.18 0.24,-0.36 0.36,-0.53l0.02 -0.03c0.12,-0.17 0.24,-0.33 0.37,-0.48l0.03 -0.04c0.12,-0.16 0.24,-0.3 0.36,-0.44l0.04 -0.05c0.13,-0.14 0.25,-0.27 0.37,-0.39l0.05 -0.06c0.12,-0.12 0.24,-0.23 0.36,-0.34l0.07 -0.06c0.12,-0.11 0.24,-0.21 0.36,-0.31l0.06 -0.05c0.12,-0.09 0.23,-0.18 0.35,-0.27l0.09 -0.06c0.11,-0.07 0.22,-0.15 0.33,-0.22l0.11 -0.06c0.11,-0.07 0.22,-0.13 0.32,-0.19l0.12 -0.07c0.11,-0.05 0.22,-0.11 0.33,-0.16l0.12 -0.05c0.11,-0.05 0.22,-0.1 0.33,-0.14l0.14 -0.06c0.09,-0.03 0.19,-0.07 0.29,-0.1 0.06,-0.02 0.12,-0.04 0.18,-0.06 0.09,-0.03 0.18,-0.05 0.26,-0.08 0.08,-0.02 0.15,-0.04 0.23,-0.06 0.07,-0.02 0.16,-0.04 0.24,-0.06 0.08,-0.02 0.16,-0.03 0.24,-0.05 0.07,-0.02 0.15,-0.03 0.22,-0.04 0.1,-0.02 0.19,-0.04 0.29,-0.05l0.15 -0.02c0.12,-0.02 0.24,-0.03 0.36,-0.05l0.08 -0.01c4.19,-0.43 8.98,1.12 14.12,-0.71l-1.99 -3.11c-0.55,-0.85 1.43,-2.38 2.21,-2.9 0.65,-0.43 1.53,-0.25 1.96,0.4l2.13 3.22c0.3,-0.23 0.61,-0.49 0.92,-0.76l-1.61 -2.51c-0.55,-0.86 1.43,-2.39 2.21,-2.91 0.22,-0.14 0.46,-0.21 0.7,-0.23 3.12,-3.71 6.67,-4.76 10.73,-1.39 2.44,4.12 -0.88,5.45 1.03,6.29 12.86,5.65 15.07,-1.48 19.06,0.82 2.9,1.67 1.13,5.86 -0.31,8.02 -0.35,0.25 -0.73,0.46 -1.14,0.62 -1.86,7.6 -3.47,15.45 -7.02,21.29 -0.67,2.88 -0.92,5.35 -2.37,7.2l-9.65 -3z"/>
  <path fill="#BDD180" fill-rule="nonzero" d="M147.01 38.65c-7.17,1.32 -14.08,2.32 -21.11,3.19 -0.1,2.42 0.14,4.79 0.86,7.1 0.45,1.41 1.09,2.81 1.95,4.17l15.61 0c21.99,-5.15 38.88,-13.12 55.49,-20.97 1.15,-0.55 2.29,-1.09 3.5,-1.65 1.36,-1.96 2.01,-3.73 2.03,-5.23 0.01,-0.74 -0.13,-1.41 -0.43,-1.99 -0.29,-0.59 -0.73,-1.09 -1.31,-1.5 -1.09,-0.78 -2.68,-1.23 -4.7,-1.26l0 0c-5.91,-0.15 -11.31,-0.15 -16.33,0.04 -4.78,0.18 -9.19,0.53 -13.33,1.09 0.19,0.82 0.43,1.69 0.68,2.58 0.93,3.37 1.92,6.93 0.64,8.97l-0.12 0.18 -0.2 0.06c-8.3,2.21 -15.9,3.88 -23.23,5.22zm27.26 -17.86l0.13 0.06 0.1 -0.29c0.67,-1.91 1.62,-3.87 2.56,-5.84 1.39,-2.88 2.79,-5.79 3.31,-8.45 -1.24,-0.77 -2.75,-1.19 -4.58,-1.17 -1.77,0.03 -3.83,0.48 -6.21,1.45 0.34,2.25 2.2,7.37 3.83,11.87 0.3,0.83 0.6,1.64 0.86,2.37zm17.6 -3.37c-0.25,-0.45 -0.5,-0.91 -0.75,-1.37 -1.63,-2.96 -3.31,-6.01 -5.94,-8.29 -0.73,0.2 -2.16,2.41 -3.74,4.84 -0.35,0.54 -0.72,1.09 -0.91,1.39 -0.68,1.03 -1.43,2.08 -2.09,3 -0.64,0.9 -1.18,1.66 -1.49,2.14 1.82,0.13 3.86,0.05 6,-0.16 2.83,-0.3 5.84,-0.84 8.73,-1.51l0.19 -0.04zm-30.45 35.69c-0.05,-0.61 -0.08,-1.21 -0.07,-1.71l0.02 -0.39 0.37 -0.12c12.47,-4 21.53,-7.67 27.97,-10.83 6.44,-3.16 10.22,-5.78 12.19,-7.69l-1.63 0.76c-15.55,7.35 -31.35,14.81 -51.35,19.98l12.5 0z"/>
  <path fill="#BDD180" fill-rule="nonzero" d="M239.98 36.8l-2.42 0 0 0 -0.01 -0.23 -0.02 -0.23 -0.03 -0.22 -0.04 -0.22 -0.04 -0.22 -0.07 -0.21 -0.07 -0.21 -0.08 -0.2 -0.09 -0.2 -0.1 -0.2 -0.1 -0.18 -0.12 -0.18 -0.12 -0.18 -0.14 -0.17 -0.14 -0.16 -0.15 -0.16 -0.15 -0.15 -0.17 -0.14 -0.17 -0.13 -0.17 -0.13 -0.19 -0.12 -0.18 -0.1 -0.2 -0.1 -0.19 -0.09 -0.21 -0.08 -0.21 -0.07 -0.21 -0.06 -0.21 -0.05 -0.22 -0.04 -0.23 -0.03 -0.23 -0.02 -0.23 0 0 -2.43 0.35 0.01 0.36 0.03 0.34 0.04 0.34 0.06 0.34 0.08 0.32 0.1 0.32 0.1 0.32 0.13 0.31 0.14 0.29 0.15 0.29 0.17 0.28 0.17 0.27 0.2 0.26 0.2 0.25 0.22 0.24 0.23 0.24 0.24 0.21 0.25 0.2 0.26 0.2 0.27 0.18 0.28 0.17 0.29 0.15 0.3 0.13 0.3 0.13 0.32 0.11 0.32 0.09 0.33 0.08 0.33 0.06 0.34 0.04 0.35 0.03 0.35 0.01 0.35 0 0zm-6.91 6.91l0 -2.42 0 0 0.23 -0.01 0.23 -0.01 0.23 -0.03 0.22 -0.04 0.21 -0.05 0.21 -0.06 0.21 -0.07 0.21 -0.08 0.19 -0.09 0.2 -0.1 0.18 -0.11 0.19 -0.12 0.17 -0.12 0.17 -0.13 0.17 -0.15 0.15 -0.14 0.15 -0.16 0.14 -0.16 0.14 -0.17 0.12 -0.18 0.12 -0.18 0.1 -0.19 0.1 -0.19 0.09 -0.2 0.08 -0.2 0.07 -0.21 0.07 -0.21 0.04 -0.22 0.04 -0.22 0.03 -0.23 0.02 -0.23 0.01 -0.23 2.42 0 -0.01 0.36 -0.03 0.35 -0.04 0.34 -0.06 0.34 -0.08 0.34 -0.09 0.33 -0.11 0.32 -0.13 0.31 -0.13 0.31 -0.15 0.29 -0.17 0.3 -0.18 0.28 -0.2 0.27 -0.2 0.26 -0.21 0.25 -0.24 0.24 -0.24 0.23 -0.25 0.21 -0.26 0.21 -0.27 0.19 -0.28 0.18 -0.29 0.17 -0.29 0.15 -0.31 0.14 -0.32 0.12 -0.32 0.11 -0.32 0.09 -0.34 0.08 -0.34 0.06 -0.34 0.05 -0.36 0.02 -0.35 0.01 0 0zm-6.91 -6.91l2.42 0 0 0 0.01 0.23 0.02 0.23 0.03 0.23 0.03 0.22 0.05 0.22 0.06 0.21 0.08 0.21 0.07 0.2 0.1 0.2 0.09 0.19 0.11 0.19 0.12 0.18 0.12 0.18 0.14 0.17 0.14 0.16 0.15 0.16 0.15 0.14 0.17 0.15 0.17 0.13 0.17 0.12 0.19 0.12 0.18 0.11 0.2 0.1 0.19 0.09 0.2 0.08 0.22 0.07 0.21 0.06 0.21 0.05 0.22 0.04 0.23 0.03 0.23 0.01 0.23 0.01 0 2.42 -0.35 -0.01 -0.36 -0.02 -0.34 -0.05 -0.34 -0.06 -0.34 -0.08 -0.32 -0.09 -0.32 -0.11 -0.32 -0.12 -0.31 -0.14 -0.29 -0.15 -0.29 -0.17 -0.28 -0.18 -0.28 -0.19 -0.26 -0.21 -0.24 -0.21 -0.25 -0.23 -0.23 -0.24 -0.21 -0.25 -0.2 -0.26 -0.2 -0.27 -0.18 -0.28 -0.17 -0.3 -0.15 -0.29 -0.14 -0.31 -0.12 -0.31 -0.11 -0.32 -0.09 -0.33 -0.08 -0.34 -0.06 -0.34 -0.04 -0.34 -0.03 -0.35 -0.01 -0.36 0 0zm6.91 -6.91l0 2.43 0 0 -0.23 0 -0.23 0.02 -0.23 0.03 -0.22 0.04 -0.21 0.05 -0.21 0.06 -0.22 0.07 -0.2 0.08 -0.19 0.09 -0.2 0.1 -0.18 0.1 -0.19 0.12 -0.17 0.13 -0.17 0.13 -0.17 0.14 -0.15 0.15 -0.15 0.16 -0.14 0.16 -0.14 0.17 -0.12 0.18 -0.12 0.18 -0.11 0.18 -0.09 0.2 -0.1 0.2 -0.07 0.2 -0.08 0.21 -0.06 0.21 -0.05 0.22 -0.03 0.22 -0.03 0.22 -0.02 0.23 -0.01 0.23 -2.42 0 0.01 -0.35 0.03 -0.35 0.04 -0.35 0.06 -0.34 0.08 -0.33 0.09 -0.33 0.11 -0.32 0.12 -0.32 0.14 -0.3 0.15 -0.3 0.17 -0.29 0.18 -0.28 0.2 -0.27 0.2 -0.26 0.21 -0.25 0.23 -0.24 0.25 -0.23 0.24 -0.22 0.26 -0.2 0.28 -0.2 0.28 -0.17 0.29 -0.17 0.29 -0.15 0.31 -0.14 0.32 -0.13 0.32 -0.1 0.32 -0.1 0.34 -0.08 0.34 -0.06 0.34 -0.04 0.36 -0.03 0.35 -0.01 0 0z"/>
  <path fill="#FEFEFE" fill-rule="nonzero" d="M275.48 53.87l-177.96 0 0 -1.51 177.96 0 0 0 0 1.51zm11.53 10.01l-1.52 0 0 0 -0.01 -0.51 -0.04 -0.51 -0.06 -0.5 -0.09 -0.49 -0.11 -0.48 -0.14 -0.48 -0.16 -0.46 -0.18 -0.46 -0.2 -0.44 -0.22 -0.43 -0.24 -0.42 -0.26 -0.41 -0.28 -0.39 -0.3 -0.38 -0.31 -0.36 -0.34 -0.35 -0.35 -0.33 -0.36 -0.32 -0.38 -0.29 -0.39 -0.28 -0.41 -0.27 -0.42 -0.24 -0.43 -0.22 -0.44 -0.2 -0.46 -0.18 -0.46 -0.16 -0.47 -0.13 -0.49 -0.12 -0.49 -0.08 -0.5 -0.07 -0.5 -0.04 -0.52 -0.01 0 -1.51 0.59 0.01 0.59 0.05 0.57 0.07 0.57 0.1 0.56 0.13 0.54 0.16 0.54 0.18 0.52 0.21 0.51 0.23 0.5 0.25 0.48 0.28 0.47 0.3 0.45 0.32 0.43 0.35 0.42 0.36 0.4 0.38 0.38 0.4 0.37 0.42 0.34 0.44 0.32 0.45 0.3 0.46 0.28 0.49 0.26 0.49 0.23 0.51 0.21 0.53 0.18 0.53 0.15 0.55 0.13 0.56 0.1 0.56 0.08 0.58 0.04 0.58 0.02 0.59 0 0zm-1.52 71.88l0 -71.88 1.52 0 0 71.88 0 0 -1.52 0zm-10.01 11.53l0 -1.52 0 0 0.52 -0.01 0.5 -0.04 0.5 -0.06 0.49 -0.09 0.49 -0.11 0.47 -0.14 0.46 -0.16 0.46 -0.17 0.44 -0.21 0.43 -0.22 0.42 -0.24 0.41 -0.26 0.39 -0.28 0.38 -0.3 0.36 -0.31 0.35 -0.34 0.34 -0.35 0.31 -0.36 0.3 -0.38 0.28 -0.39 0.26 -0.41 0.24 -0.42 0.22 -0.43 0.2 -0.44 0.18 -0.45 0.16 -0.47 0.14 -0.47 0.11 -0.49 0.09 -0.49 0.06 -0.5 0.04 -0.5 0.01 -0.52 1.52 0 -0.02 0.59 -0.04 0.59 -0.08 0.57 -0.1 0.57 -0.13 0.56 -0.15 0.54 -0.18 0.54 -0.21 0.52 -0.23 0.51 -0.26 0.5 -0.28 0.48 -0.3 0.47 -0.32 0.45 -0.34 0.43 -0.37 0.42 -0.38 0.4 -0.4 0.39 -0.42 0.36 -0.43 0.34 -0.45 0.32 -0.47 0.3 -0.48 0.28 -0.5 0.26 -0.51 0.23 -0.52 0.21 -0.54 0.18 -0.54 0.15 -0.56 0.13 -0.57 0.1 -0.57 0.08 -0.59 0.04 -0.59 0.02 0 0zm-177.96 -1.52l177.96 0 0 1.52 -177.96 0 0 0 0 -1.52zm-11.53 -10.01l1.52 0 0 0 0.01 0.52 0.04 0.5 0.06 0.5 0.09 0.49 0.11 0.49 0.14 0.47 0.16 0.47 0.17 0.45 0.21 0.44 0.22 0.43 0.24 0.42 0.26 0.41 0.28 0.39 0.3 0.38 0.31 0.36 0.34 0.35 0.35 0.34 0.36 0.31 0.38 0.3 0.39 0.28 0.41 0.26 0.42 0.24 0.43 0.22 0.44 0.21 0.45 0.17 0.47 0.16 0.47 0.14 0.49 0.11 0.49 0.09 0.5 0.06 0.5 0.04 0.52 0.01 0 1.52 -0.59 -0.02 -0.59 -0.04 -0.57 -0.08 -0.57 -0.1 -0.56 -0.13 -0.54 -0.15 -0.54 -0.18 -0.52 -0.21 -0.51 -0.23 -0.5 -0.26 -0.48 -0.28 -0.47 -0.3 -0.45 -0.32 -0.43 -0.34 -0.42 -0.36 -0.4 -0.39 -0.39 -0.4 -0.36 -0.42 -0.34 -0.43 -0.32 -0.45 -0.3 -0.47 -0.28 -0.48 -0.26 -0.5 -0.23 -0.51 -0.21 -0.52 -0.18 -0.54 -0.15 -0.54 -0.13 -0.56 -0.1 -0.57 -0.08 -0.57 -0.04 -0.59 -0.02 -0.59 0 0zm1.52 -71.88l0 71.88 -1.52 0 0 -71.88 0 0 1.52 0zm10.01 -11.52l0 1.51 0 0 -0.52 0.01 -0.5 0.04 -0.5 0.07 -0.49 0.08 -0.49 0.12 -0.47 0.13 -0.47 0.16 -0.45 0.18 -0.44 0.2 -0.43 0.22 -0.42 0.24 -0.41 0.27 -0.39 0.28 -0.38 0.29 -0.36 0.32 -0.35 0.33 -0.34 0.35 -0.31 0.36 -0.3 0.38 -0.28 0.39 -0.26 0.41 -0.24 0.42 -0.22 0.43 -0.21 0.44 -0.17 0.46 -0.16 0.46 -0.14 0.48 -0.11 0.48 -0.09 0.49 -0.06 0.5 -0.04 0.51 -0.01 0.51 -1.52 0 0.02 -0.59 0.04 -0.58 0.08 -0.58 0.1 -0.56 0.13 -0.56 0.15 -0.55 0.18 -0.53 0.21 -0.53 0.23 -0.51 0.26 -0.49 0.28 -0.49 0.3 -0.46 0.32 -0.45 0.34 -0.44 0.36 -0.42 0.39 -0.4 0.4 -0.38 0.42 -0.36 0.43 -0.35 0.45 -0.32 0.47 -0.3 0.48 -0.28 0.5 -0.25 0.51 -0.23 0.52 -0.21 0.54 -0.18 0.54 -0.16 0.56 -0.13 0.57 -0.1 0.57 -0.07 0.59 -0.05 0.59 -0.01 0 0z"/>
  <path fill="#BDD180" d="M320.53 106.62c-0.54,0.23 -1.06,0.54 -1.56,0.94 -5.77,7.34 7.33,17.45 11.52,28.15 3.1,5.77 6.14,12.49 13.31,15.26 0.12,0.08 0.25,0.15 0.38,0.22l0.01 0.01c0.12,0.06 0.23,0.12 0.35,0.18l0.03 0.02 0.19 0.09 0 0c0.39,0.19 0.79,0.37 1.19,0.53l0.03 0.01c0.13,0.05 0.25,0.09 0.37,0.14l0.03 0.01 0.19 0.06 0.04 0.02c0.19,0.06 0.38,0.12 0.57,0.18l0.09 0.03c0.11,0.03 0.22,0.06 0.33,0.09l0.05 0.01 0.17 0.05 0.1 0.02 0.16 0.04c0.07,0.02 0.14,0.03 0.22,0.05l0.01 0 0.16 0.03 0.12 0.03c0.06,0.01 0.13,0.02 0.2,0.03 0.06,0.01 0.13,0.03 0.19,0.04l0.15 0.02 0.14 0.02 0.15 0.02c0.08,0.02 0.16,0.03 0.25,0.04l0.14 0.01 0.14 0.02 0.16 0.01c0.09,0.01 0.17,0.02 0.26,0.02l0.13 0.01 0.16 0.01 0.15 0.01c0.09,0 0.18,0.01 0.27,0.01l0.12 0c0.06,0 0.13,0 0.19,0l0.13 0c0.1,0 0.19,0 0.28,0l0.12 0 0.2 -0.01 0.14 0c0.09,-0.01 0.19,-0.01 0.28,-0.02l0.12 -0.01 0.21 -0.01 0.13 -0.01c0.1,-0.01 0.2,-0.02 0.3,-0.03l0.1 -0.01c0.08,-0.01 0.17,-0.02 0.25,-0.03l0.1 -0.02c0.11,-0.01 0.22,-0.02 0.32,-0.04l0.1 -0.01c0.08,-0.02 0.17,-0.03 0.25,-0.05l0.12 -0.02c0.1,-0.01 0.21,-0.03 0.32,-0.05l0.09 -0.02c0.09,-0.02 0.18,-0.04 0.26,-0.06l0.12 -0.02c0.11,-0.02 0.23,-0.05 0.35,-0.08l0.03 -0.01c0.11,-0.02 0.21,-0.05 0.32,-0.08l0.11 -0.02c0.11,-0.03 0.22,-0.06 0.34,-0.09l0.02 -0.01 0.04 -0.01c0.11,-0.03 0.21,-0.06 0.32,-0.09l0.1 -0.03c0.12,-0.04 0.24,-0.07 0.36,-0.11l0.06 -0.02c0.11,-0.03 0.21,-0.07 0.32,-0.1l0.11 -0.04c0.12,-0.04 0.24,-0.08 0.36,-0.12l0.01 -0.01 0 0 0.04 -0.01c0.12,-0.05 0.23,-0.09 0.35,-0.13l0.09 -0.04c0.13,-0.05 0.26,-0.1 0.39,-0.15l0.23 -0.18 0.02 -0.01 0.21 -0.16 0.04 -0.04 0.18 -0.15 0.02 -0.01 0.13 -0.1 0.11 -0.1 0.12 -0.09 0.1 -0.09 0.15 -0.13 0.07 -0.06 0.14 -0.12 0.11 -0.09 0.11 -0.1 0.09 -0.08 0.15 -0.14 0.06 -0.05 0.15 -0.14 0.07 -0.07 0.15 -0.14 0.03 -0.03c0.18,-0.18 0.37,-0.37 0.54,-0.56l0.04 -0.03c0.05,-0.05 0.09,-0.11 0.14,-0.16l0.06 -0.06c0.04,-0.06 0.09,-0.11 0.14,-0.16l0.05 -0.07c0.05,-0.05 0.09,-0.11 0.14,-0.16l0.05 -0.06 0.13 -0.16 0.06 -0.08c0.04,-0.06 0.08,-0.11 0.12,-0.16l0.06 -0.08c0.04,-0.06 0.08,-0.11 0.12,-0.17l0.05 -0.07c0.05,-0.06 0.09,-0.12 0.13,-0.18l0.04 -0.06c0.04,-0.07 0.09,-0.13 0.13,-0.2l0.01 -0.01c0.26,-0.41 0.49,-0.84 0.71,-1.3l0 -0.02c0.04,-0.08 0.08,-0.17 0.11,-0.25l0.02 -0.04c0.03,-0.08 0.07,-0.17 0.1,-0.25l0.02 -0.05c0.03,-0.08 0.06,-0.17 0.1,-0.25l0.01 -0.05c0.03,-0.09 0.06,-0.18 0.09,-0.26l0.02 -0.05c0.03,-0.09 0.05,-0.18 0.08,-0.27l0.01 -0.05c0.03,-0.1 0.06,-0.19 0.08,-0.29l0.01 -0.02c0.22,-0.86 0.36,-1.81 0.41,-2.86l0 -0.02c0,-0.13 0.01,-0.25 0.01,-0.38l0 -0.04c0,-0.12 0,-0.24 0,-0.36l0 -0.07c0,-0.12 -0.01,-0.24 -0.01,-0.37l0 -0.05c-0.01,-0.14 -0.01,-0.27 -0.02,-0.4l0 -0.01c-0.07,-1.17 -0.24,-2.45 -0.54,-3.87l-0.01 -0.03c-0.04,-0.17 -0.08,-0.34 -0.12,-0.51l0 -0.04c-0.04,-0.17 -0.09,-0.34 -0.13,-0.51l-0.01 -0.05c-0.04,-0.17 -0.09,-0.35 -0.14,-0.52l-0.01 -0.06c-0.05,-0.17 -0.1,-0.35 -0.14,-0.53l-0.02 -0.06c-0.7,-2.48 -1.75,-5.31 -3.22,-8.59 -3.57,-2.14 -7.41,-2.61 -11.12,-1.96 -0.23,-0.24 -0.48,-0.47 -0.72,-0.7 -12.3,-12.59 -21.13,-17.37 -27.4,-16.37 -0.46,0.36 -0.84,0.74 -1.14,1.15zm19.12 68.34c0.01,0.07 0.02,0.14 0.03,0.21l0 0.01 0 0.01 0.01 0.06 0.02 0.15 0.01 0.11 0.02 0.14 0.01 0.1c0,0.07 0.01,0.15 0.02,0.22l0 0.05c0,0.07 0.01,0.13 0.01,0.2l0.01 0.07 0.01 0.2 0 0.04c0,0.08 0,0.16 0,0.24l0.01 0.07 0 0.18 0 0.07c-0.01,0.08 -0.01,0.15 -0.01,0.23l0 0.02c0,0.08 -0.01,0.16 -0.01,0.24l0 0.06c-0.01,0.07 -0.01,0.13 -0.02,0.2l0 0.06c-0.01,0.08 -0.01,0.16 -0.02,0.25l0 0c-0.01,0.08 -0.02,0.17 -0.03,0.25l-0.01 0.05c-0.01,0.07 -0.02,0.13 -0.03,0.2l-0.01 0.06 -0.02 -3.75zm-0.03 4.04c-0.01,0.07 -0.02,0.14 -0.03,0.2l-0.02 0.08c-0.01,0.06 -0.03,0.13 -0.04,0.19l-0.02 0.06c-0.01,0.08 -0.04,0.16 -0.06,0.24l-0.01 0.04c-0.02,0.07 -0.04,0.15 -0.06,0.22l-0.01 0.05c-0.02,0.07 -0.05,0.14 -0.07,0.21l-0.01 0.05c-0.03,0.08 -0.06,0.16 -0.08,0.24l-0.03 0.06c-0.02,0.06 -0.04,0.13 -0.07,0.19l-0.02 0.07c-0.03,0.07 -0.06,0.15 -0.09,0.22l-0.01 0.02c-0.04,0.09 -0.07,0.17 -0.11,0.25l-0.03 0.07c-0.03,0.06 -0.05,0.12 -0.08,0.18l-0.04 0.07c-0.04,0.08 -0.08,0.16 -0.12,0.24 -1.63,3.13 -3.05,6.41 -11.64,8.26 -2.28,0.41 -5.01,0.29 -7.83,-0.58 -5.36,-1.5 -10.96,-5.24 -13.1,-11.73 -0.47,-0.89 -0.92,-1.84 -1.33,-2.85 0.48,-2.5 1.65,-4.54 3.29,-6.17 -0.25,-1.98 -0.38,-4.08 -0.45,-6.29 -0.07,-1.05 -0.14,-2.07 -0.21,-3.06 -2.81,-15.32 -1.24,-24.3 3.75,-25l0 0c0.61,-0.3 1.29,-0.51 2.06,-0.65 9.07,0.39 10.33,18.93 22.07,31.85 0.06,0.17 0.12,0.32 0.17,0.48 0.27,0.15 0.52,0.3 0.76,0.46 0.6,0.89 1.28,2.01 1.89,3.29l0 0.01c0.05,0.1 0.1,0.21 0.15,0.32l0.07 0.16 0.07 0.14 0.02 0.05c0.09,0.21 0.18,0.43 0.27,0.65l0.01 0.02c0.05,0.15 0.11,0.3 0.17,0.45l0.03 0.08 0.04 0.12 0.03 0.08c0.05,0.16 0.11,0.31 0.16,0.47l0.01 0.04 0.05 0.15 0.01 0.06 0.05 0.15 0.05 0.18 0.04 0.13 0.02 0.08 0.04 0.13 0.03 0.12 0.02 0.1 0 0 0.05 0.19 0 0 0.03 0.13 0.02 0.1 0.03 0.12 0.02 0.11 0.03 0.19 0.03 0.14 0.02 0.08 0.02 0.16 0.02 0.09 -0.03 4.04zm0.15 -1.1c-0.01,0.08 -0.01,0.16 -0.02,0.25l0.02 -0.25zm-0.14 1.05l0 0.01 -0.01 0.04 0.01 -0.05z"/>
</svg>
