<svg xmlns="http://www.w3.org/2000/svg" xml:space="preserve" width="373px" height="200px" version="1.1" style="shape-rendering:geometricPrecision; text-rendering:geometricPrecision; image-rendering:optimizeQuality; fill-rule:evenodd; clip-rule:evenodd" viewBox="0 0 373 200"  xmlns:xlink="http://www.w3.org/1999/xlink">
  <path fill="#F9D5D7" d="M11.21 0l350.58 0c6.17,0 11.21,5.04 11.21,11.21l0 177.23c0,6.16 -5.04,11.21 -11.21,11.21l-350.58 0c-6.17,0 -11.21,-5.05 -11.21,-11.21l0 -177.23c0,-6.17 5.04,-11.21 11.21,-11.21z"/>
  <path fill="#F9D5D7" d="M11.21 0l350.58 0c6.17,0 11.21,5.04 11.21,11.21l0 177.23c0,6.16 -5.04,11.21 -11.21,11.21l-350.58 0c-6.17,0 -11.21,-5.05 -11.21,-11.21l0 -177.23c0,-6.17 5.04,-11.21 11.21,-11.21zm86.31 53.11l177.96 0c5.93,0 10.77,4.85 10.77,10.77l0 71.88c0,5.93 -4.84,10.77 -10.77,10.77l-177.96 0c-5.93,0 -10.77,-4.84 -10.77,-10.77l0 -71.88c0,-5.92 4.84,-10.77 10.77,-10.77z"/>
  <path fill="#E4C0C1" fill-rule="nonzero" d="M42.43 98.62l-2.42 0 0 0 0 -0.23 -0.02 -0.23 -0.03 -0.23 -0.04 -0.22 -0.05 -0.21 -0.06 -0.22 -0.07 -0.21 -0.08 -0.2 -0.09 -0.2 -0.1 -0.19 -0.11 -0.19 -0.12 -0.18 -0.12 -0.17 -0.13 -0.17 -0.15 -0.17 -0.14 -0.15 -0.16 -0.15 -0.16 -0.15 -0.17 -0.13 -0.18 -0.12 -0.18 -0.12 -0.19 -0.11 -0.19 -0.1 -0.2 -0.09 -0.2 -0.08 -0.21 -0.07 -0.21 -0.06 -0.22 -0.05 -0.22 -0.04 -0.23 -0.03 -0.22 -0.01 -0.24 -0.01 0 -2.42 0.36 0.01 0.35 0.02 0.34 0.05 0.34 0.06 0.34 0.08 0.33 0.09 0.32 0.11 0.31 0.12 0.31 0.14 0.3 0.15 0.29 0.17 0.28 0.18 0.27 0.19 0.26 0.21 0.25 0.21 0.24 0.23 0.23 0.24 0.21 0.25 0.21 0.26 0.19 0.27 0.18 0.28 0.17 0.3 0.15 0.29 0.14 0.31 0.12 0.31 0.11 0.32 0.1 0.33 0.07 0.34 0.06 0.34 0.05 0.34 0.02 0.35 0.01 0.36 0 0zm-6.91 6.91l0 -2.43 0 0 0.24 0 0.22 -0.02 0.23 -0.03 0.22 -0.04 0.22 -0.05 0.21 -0.06 0.21 -0.07 0.2 -0.08 0.2 -0.09 0.19 -0.1 0.19 -0.1 0.18 -0.12 0.18 -0.12 0.17 -0.14 0.16 -0.14 0.16 -0.15 0.14 -0.16 0.15 -0.16 0.13 -0.17 0.12 -0.17 0.12 -0.19 0.11 -0.18 0.1 -0.2 0.09 -0.2 0.08 -0.2 0.07 -0.21 0.06 -0.21 0.05 -0.22 0.04 -0.22 0.03 -0.22 0.02 -0.23 0 -0.23 2.42 0 -0.01 0.35 -0.02 0.35 -0.05 0.35 -0.06 0.34 -0.07 0.33 -0.1 0.33 -0.11 0.32 -0.12 0.32 -0.14 0.3 -0.15 0.3 -0.17 0.29 -0.18 0.28 -0.19 0.27 -0.21 0.26 -0.21 0.25 -0.23 0.24 -0.24 0.23 -0.25 0.22 -0.26 0.2 -0.27 0.2 -0.28 0.18 -0.29 0.16 -0.3 0.15 -0.31 0.14 -0.31 0.13 -0.32 0.11 -0.33 0.09 -0.34 0.08 -0.34 0.06 -0.34 0.04 -0.35 0.03 -0.36 0.01 0 0zm-6.9 -6.91l2.42 0 0 0 0 0.23 0.02 0.23 0.03 0.22 0.04 0.22 0.05 0.22 0.06 0.21 0.07 0.21 0.08 0.2 0.09 0.2 0.1 0.2 0.11 0.18 0.11 0.19 0.13 0.17 0.13 0.17 0.14 0.16 0.15 0.16 0.16 0.15 0.16 0.14 0.17 0.14 0.18 0.12 0.18 0.12 0.19 0.1 0.19 0.1 0.2 0.09 0.2 0.08 0.21 0.07 0.21 0.06 0.22 0.05 0.22 0.04 0.23 0.03 0.22 0.02 0.23 0 0 2.43 -0.35 -0.01 -0.35 -0.03 -0.35 -0.04 -0.34 -0.06 -0.33 -0.08 -0.33 -0.09 -0.32 -0.11 -0.32 -0.13 -0.3 -0.14 -0.3 -0.15 -0.29 -0.16 -0.28 -0.18 -0.27 -0.2 -0.26 -0.2 -0.25 -0.22 -0.24 -0.23 -0.23 -0.24 -0.22 -0.25 -0.2 -0.26 -0.19 -0.27 -0.18 -0.28 -0.17 -0.29 -0.15 -0.3 -0.14 -0.3 -0.12 -0.32 -0.11 -0.32 -0.1 -0.33 -0.07 -0.33 -0.07 -0.34 -0.04 -0.35 -0.03 -0.35 0 -0.35 0 0zm6.9 -6.91l0 2.42 0 0 -0.23 0.01 -0.22 0.01 -0.23 0.03 -0.22 0.04 -0.22 0.05 -0.21 0.06 -0.21 0.07 -0.2 0.08 -0.2 0.09 -0.19 0.1 -0.19 0.11 -0.18 0.12 -0.18 0.12 -0.17 0.13 -0.16 0.15 -0.16 0.15 -0.15 0.15 -0.14 0.17 -0.13 0.17 -0.13 0.17 -0.11 0.18 -0.11 0.19 -0.1 0.19 -0.09 0.2 -0.08 0.2 -0.07 0.21 -0.06 0.22 -0.05 0.21 -0.04 0.22 -0.03 0.23 -0.02 0.23 0 0.23 -2.42 0 0 -0.36 0.03 -0.35 0.04 -0.34 0.07 -0.34 0.07 -0.34 0.1 -0.33 0.11 -0.32 0.12 -0.31 0.14 -0.31 0.15 -0.29 0.17 -0.3 0.18 -0.28 0.19 -0.27 0.2 -0.26 0.22 -0.25 0.23 -0.24 0.24 -0.23 0.25 -0.21 0.26 -0.21 0.27 -0.19 0.28 -0.18 0.29 -0.17 0.3 -0.15 0.3 -0.14 0.32 -0.12 0.32 -0.11 0.33 -0.09 0.33 -0.08 0.34 -0.06 0.35 -0.05 0.35 -0.02 0.35 -0.01 0 0z"/>
  <path fill="#EAC9CA" d="M71.05 121.91c2.29,0 4.15,1.86 4.15,4.15 0,2.29 -1.86,4.15 -4.15,4.15 -2.3,0 -4.16,-1.86 -4.16,-4.15 0,-2.29 1.86,-4.15 4.16,-4.15z"/>
  <path fill="#EAC9CA" d="M124.11 32.77c2.3,0 4.15,1.86 4.15,4.15 0,2.29 -1.85,4.15 -4.15,4.15 -2.29,0 -4.15,-1.86 -4.15,-4.15 0,-2.29 1.86,-4.15 4.15,-4.15z"/>
  <path fill="#EAC9CA" d="M90.68 177.56c2.3,0 4.15,1.86 4.15,4.16 0,2.29 -1.85,4.15 -4.15,4.15 -2.29,0 -4.15,-1.86 -4.15,-4.15 0,-2.3 1.86,-4.16 4.15,-4.16z"/>
  <path fill="#EAC9CA" d="M293.38 12.88c2.3,0 4.16,1.86 4.16,4.15 0,2.29 -1.86,4.15 -4.16,4.15 -2.29,0 -4.15,-1.86 -4.15,-4.15 0,-2.29 1.86,-4.15 4.15,-4.15z"/>
  <path fill="#EAC9CA" d="M344.67 69.38c2.29,0 4.15,1.86 4.15,4.16 0,2.29 -1.86,4.15 -4.15,4.15 -2.29,0 -4.15,-1.86 -4.15,-4.15 0,-2.3 1.86,-4.16 4.15,-4.16z"/>
  <path fill="#EAC9CA" d="M251.06 182.5c2.3,0 4.16,1.86 4.16,4.15 0,2.29 -1.86,4.15 -4.16,4.15 -2.29,0 -4.15,-1.86 -4.15,-4.15 0,-2.29 1.86,-4.15 4.15,-4.15z"/>
  <path fill="#EAC9CA" fill-rule="nonzero" d="M223.74 171.28l-2.42 0 0 0 -0.01 -0.23 -0.02 -0.23 -0.03 -0.23 -0.04 -0.22 -0.05 -0.21 -0.06 -0.21 -0.07 -0.22 -0.08 -0.2 -0.09 -0.19 -0.1 -0.2 -0.1 -0.19 -0.12 -0.18 -0.12 -0.17 -0.14 -0.17 -0.14 -0.17 -0.15 -0.15 -0.15 -0.15 -0.17 -0.14 -0.17 -0.14 -0.17 -0.12 -0.19 -0.12 -0.18 -0.11 -0.2 -0.1 -0.19 -0.09 -0.21 -0.08 -0.21 -0.07 -0.21 -0.06 -0.21 -0.05 -0.22 -0.03 -0.23 -0.03 -0.23 -0.02 -0.23 -0.01 0 -2.42 0.35 0.01 0.36 0.03 0.34 0.04 0.34 0.06 0.34 0.08 0.32 0.09 0.32 0.11 0.32 0.12 0.3 0.14 0.3 0.15 0.29 0.17 0.28 0.18 0.27 0.19 0.26 0.21 0.25 0.21 0.24 0.23 0.23 0.24 0.22 0.25 0.2 0.26 0.2 0.28 0.18 0.28 0.17 0.29 0.15 0.29 0.13 0.31 0.13 0.32 0.11 0.32 0.09 0.32 0.08 0.34 0.06 0.34 0.04 0.34 0.03 0.35 0.01 0.36 0 0zm-6.91 6.91l0 -2.42 0 0 0.23 -0.01 0.23 -0.02 0.23 -0.03 0.22 -0.04 0.21 -0.05 0.21 -0.06 0.21 -0.07 0.21 -0.08 0.19 -0.09 0.2 -0.1 0.18 -0.1 0.19 -0.12 0.17 -0.12 0.17 -0.14 0.17 -0.14 0.15 -0.15 0.15 -0.15 0.14 -0.17 0.14 -0.17 0.12 -0.17 0.12 -0.19 0.1 -0.18 0.1 -0.2 0.09 -0.2 0.08 -0.2 0.07 -0.21 0.06 -0.21 0.05 -0.21 0.04 -0.22 0.03 -0.23 0.02 -0.23 0.01 -0.23 2.42 0 -0.01 0.35 -0.03 0.36 -0.04 0.34 -0.06 0.34 -0.08 0.34 -0.09 0.32 -0.11 0.32 -0.13 0.32 -0.13 0.3 -0.15 0.3 -0.17 0.29 -0.18 0.28 -0.2 0.27 -0.2 0.26 -0.22 0.25 -0.23 0.24 -0.24 0.23 -0.25 0.22 -0.26 0.2 -0.27 0.2 -0.28 0.18 -0.29 0.16 -0.3 0.16 -0.3 0.13 -0.32 0.13 -0.32 0.11 -0.32 0.09 -0.34 0.08 -0.34 0.06 -0.34 0.04 -0.36 0.03 -0.35 0.01 0 0zm-6.91 -6.91l2.42 0 0 0 0.01 0.23 0.02 0.23 0.03 0.23 0.03 0.22 0.05 0.21 0.06 0.21 0.08 0.21 0.07 0.2 0.1 0.2 0.09 0.2 0.11 0.18 0.12 0.19 0.12 0.17 0.14 0.17 0.14 0.17 0.15 0.15 0.15 0.15 0.17 0.14 0.17 0.14 0.17 0.12 0.19 0.12 0.18 0.1 0.2 0.1 0.19 0.09 0.2 0.08 0.22 0.07 0.21 0.06 0.21 0.05 0.22 0.04 0.23 0.03 0.23 0.02 0.23 0.01 0 2.42 -0.35 -0.01 -0.36 -0.03 -0.34 -0.04 -0.34 -0.06 -0.34 -0.08 -0.32 -0.09 -0.32 -0.11 -0.32 -0.13 -0.31 -0.13 -0.29 -0.16 -0.29 -0.16 -0.28 -0.18 -0.28 -0.2 -0.26 -0.2 -0.24 -0.22 -0.25 -0.23 -0.23 -0.24 -0.21 -0.25 -0.21 -0.26 -0.19 -0.27 -0.18 -0.28 -0.17 -0.29 -0.15 -0.3 -0.14 -0.3 -0.12 -0.32 -0.11 -0.32 -0.09 -0.32 -0.08 -0.34 -0.06 -0.34 -0.04 -0.34 -0.03 -0.36 -0.01 -0.35 0 0zm6.91 -6.91l0 2.42 0 0 -0.23 0.01 -0.23 0.02 -0.23 0.03 -0.22 0.03 -0.21 0.05 -0.21 0.06 -0.22 0.07 -0.2 0.08 -0.19 0.09 -0.2 0.1 -0.18 0.11 -0.19 0.12 -0.17 0.12 -0.17 0.14 -0.17 0.14 -0.15 0.15 -0.15 0.15 -0.14 0.17 -0.14 0.17 -0.12 0.17 -0.12 0.18 -0.11 0.19 -0.09 0.2 -0.1 0.19 -0.07 0.2 -0.08 0.22 -0.06 0.21 -0.05 0.21 -0.03 0.22 -0.03 0.23 -0.02 0.23 -0.01 0.23 -2.42 0 0.01 -0.36 0.03 -0.35 0.04 -0.34 0.06 -0.34 0.08 -0.34 0.09 -0.32 0.11 -0.32 0.12 -0.32 0.14 -0.31 0.15 -0.29 0.17 -0.29 0.18 -0.28 0.19 -0.28 0.21 -0.26 0.21 -0.25 0.23 -0.24 0.25 -0.23 0.24 -0.21 0.26 -0.21 0.28 -0.19 0.28 -0.18 0.29 -0.17 0.29 -0.15 0.31 -0.14 0.32 -0.12 0.32 -0.11 0.32 -0.09 0.34 -0.08 0.34 -0.06 0.34 -0.04 0.36 -0.03 0.35 -0.01 0 0z"/>
  <path fill="#EAC9CA" fill-rule="nonzero" d="M284.27 46.26c1.91,0 3.63,0.77 4.88,2.02 1.25,1.25 2.03,2.98 2.03,4.89 0,1.91 -0.78,3.63 -2.03,4.88 -0.97,0.98 -2.23,1.66 -3.64,1.92 -0.33,-0.83 -0.75,-1.6 -1.26,-2.32l0.02 0c1.24,0 2.36,-0.5 3.17,-1.31 0.81,-0.81 1.31,-1.93 1.31,-3.17 0,-1.24 -0.5,-2.36 -1.31,-3.17 -0.81,-0.82 -1.93,-1.32 -3.17,-1.32 -1.24,0 -2.36,0.5 -3.17,1.32 -0.82,0.81 -1.32,1.93 -1.32,3.17 0,0.3 0.03,0.6 0.09,0.88 -0.79,-0.35 -1.63,-0.62 -2.51,-0.77l0 -0.11c0,-1.91 0.77,-3.64 2.02,-4.89 1.25,-1.25 2.98,-2.02 4.89,-2.02z"/>
  <path fill="#EAC9CA" fill-rule="nonzero" d="M362.82 125.98l-2.42 0 0 0 -0.01 -0.24 -0.02 -0.22 -0.03 -0.23 -0.03 -0.22 -0.05 -0.22 -0.06 -0.21 -0.08 -0.21 -0.07 -0.2 -0.1 -0.2 -0.09 -0.19 -0.11 -0.19 -0.12 -0.18 -0.12 -0.18 -0.14 -0.17 -0.14 -0.16 -0.15 -0.16 -0.15 -0.15 -0.17 -0.14 -0.16 -0.13 -0.18 -0.13 -0.18 -0.11 -0.19 -0.11 -0.2 -0.1 -0.19 -0.09 -0.2 -0.08 -0.22 -0.07 -0.21 -0.06 -0.21 -0.05 -0.22 -0.04 -0.23 -0.03 -0.23 -0.02 -0.23 0 0 -2.42 0.35 0.01 0.36 0.02 0.34 0.05 0.34 0.06 0.34 0.07 0.32 0.1 0.32 0.11 0.32 0.12 0.31 0.14 0.29 0.15 0.29 0.17 0.28 0.18 0.27 0.19 0.27 0.21 0.25 0.21 0.23 0.23 0.23 0.24 0.22 0.25 0.21 0.26 0.19 0.27 0.18 0.28 0.17 0.29 0.15 0.3 0.14 0.31 0.12 0.31 0.11 0.32 0.09 0.33 0.08 0.34 0.06 0.34 0.04 0.34 0.03 0.35 0.01 0.36 0 0zm-6.91 6.9l0 -2.42 0 0 0.23 0 0.23 -0.02 0.23 -0.03 0.22 -0.04 0.21 -0.05 0.21 -0.06 0.22 -0.07 0.2 -0.08 0.19 -0.09 0.2 -0.1 0.19 -0.11 0.18 -0.12 0.18 -0.12 0.16 -0.13 0.17 -0.15 0.15 -0.14 0.15 -0.16 0.14 -0.16 0.14 -0.17 0.12 -0.18 0.12 -0.18 0.11 -0.19 0.09 -0.19 0.1 -0.2 0.07 -0.2 0.08 -0.21 0.06 -0.21 0.05 -0.22 0.03 -0.22 0.03 -0.23 0.02 -0.22 0.01 -0.23 2.42 0 -0.01 0.35 -0.03 0.35 -0.04 0.35 -0.06 0.34 -0.08 0.33 -0.09 0.33 -0.11 0.32 -0.12 0.31 -0.14 0.31 -0.15 0.3 -0.17 0.29 -0.18 0.28 -0.19 0.27 -0.21 0.26 -0.21 0.25 -0.24 0.24 -0.24 0.23 -0.24 0.21 -0.27 0.21 -0.27 0.19 -0.28 0.18 -0.29 0.17 -0.29 0.15 -0.31 0.14 -0.32 0.12 -0.32 0.11 -0.32 0.1 -0.34 0.07 -0.34 0.06 -0.34 0.05 -0.36 0.02 -0.35 0.01 0 0zm-6.91 -6.9l2.42 0 0 0 0.01 0.23 0.02 0.22 0.03 0.23 0.04 0.22 0.05 0.22 0.06 0.21 0.07 0.21 0.08 0.2 0.09 0.2 0.1 0.19 0.1 0.19 0.12 0.18 0.12 0.18 0.14 0.17 0.14 0.16 0.15 0.16 0.15 0.14 0.17 0.15 0.17 0.13 0.17 0.12 0.19 0.12 0.18 0.11 0.2 0.1 0.19 0.09 0.21 0.08 0.21 0.07 0.21 0.06 0.21 0.05 0.22 0.04 0.23 0.03 0.23 0.02 0.23 0 0 2.42 -0.35 -0.01 -0.36 -0.02 -0.34 -0.05 -0.34 -0.06 -0.34 -0.07 -0.32 -0.1 -0.32 -0.11 -0.32 -0.12 -0.3 -0.14 -0.3 -0.15 -0.29 -0.17 -0.28 -0.18 -0.27 -0.19 -0.26 -0.21 -0.25 -0.21 -0.24 -0.23 -0.23 -0.24 -0.22 -0.25 -0.2 -0.26 -0.2 -0.27 -0.18 -0.28 -0.17 -0.29 -0.15 -0.3 -0.13 -0.31 -0.13 -0.31 -0.11 -0.32 -0.09 -0.33 -0.08 -0.33 -0.06 -0.34 -0.04 -0.35 -0.03 -0.35 -0.01 -0.35 0 0zm6.91 -6.91l0 2.42 0 0 -0.23 0 -0.23 0.02 -0.23 0.03 -0.22 0.04 -0.21 0.05 -0.21 0.06 -0.21 0.07 -0.21 0.08 -0.19 0.09 -0.2 0.1 -0.18 0.11 -0.19 0.11 -0.17 0.13 -0.17 0.13 -0.16 0.14 -0.16 0.15 -0.15 0.16 -0.14 0.16 -0.14 0.17 -0.12 0.18 -0.12 0.18 -0.1 0.19 -0.1 0.19 -0.09 0.2 -0.08 0.2 -0.07 0.21 -0.06 0.21 -0.05 0.22 -0.04 0.22 -0.03 0.23 -0.02 0.22 -0.01 0.24 -2.42 0 0.01 -0.36 0.03 -0.35 0.04 -0.34 0.06 -0.34 0.08 -0.34 0.09 -0.33 0.11 -0.32 0.13 -0.31 0.13 -0.31 0.15 -0.3 0.17 -0.29 0.18 -0.28 0.19 -0.27 0.21 -0.26 0.22 -0.25 0.23 -0.24 0.24 -0.23 0.25 -0.21 0.26 -0.21 0.27 -0.19 0.28 -0.18 0.29 -0.17 0.3 -0.15 0.3 -0.14 0.32 -0.12 0.32 -0.11 0.32 -0.1 0.34 -0.07 0.34 -0.06 0.34 -0.05 0.36 -0.02 0.35 -0.01 0 0z"/>
  <path fill="#EAC9CA" fill-rule="nonzero" d="M110.05 14.92l-2.43 0 0 0 0 -0.23 -0.02 -0.23 -0.03 -0.22 -0.04 -0.22 -0.05 -0.22 -0.06 -0.21 -0.07 -0.21 -0.08 -0.2 -0.09 -0.2 -0.1 -0.2 -0.1 -0.18 -0.12 -0.18 -0.12 -0.18 -0.14 -0.17 -0.14 -0.16 -0.15 -0.16 -0.16 -0.15 -0.16 -0.14 -0.17 -0.13 -0.17 -0.13 -0.19 -0.12 -0.18 -0.1 -0.2 -0.1 -0.2 -0.09 -0.2 -0.08 -0.21 -0.07 -0.21 -0.06 -0.22 -0.05 -0.22 -0.04 -0.22 -0.03 -0.23 -0.02 -0.23 0 0 -2.43 0.35 0.01 0.35 0.03 0.35 0.04 0.34 0.06 0.33 0.08 0.33 0.1 0.32 0.1 0.32 0.13 0.3 0.14 0.3 0.15 0.29 0.17 0.28 0.17 0.27 0.2 0.26 0.2 0.25 0.22 0.24 0.23 0.23 0.24 0.22 0.25 0.2 0.26 0.2 0.27 0.18 0.28 0.16 0.29 0.15 0.3 0.14 0.3 0.13 0.32 0.11 0.32 0.09 0.33 0.08 0.33 0.06 0.34 0.04 0.35 0.03 0.35 0.01 0.35 0 0zm-6.91 6.91l0 -2.42 0 0 0.23 -0.01 0.23 -0.01 0.22 -0.03 0.22 -0.04 0.22 -0.05 0.21 -0.06 0.21 -0.07 0.2 -0.08 0.2 -0.09 0.2 -0.1 0.18 -0.11 0.19 -0.12 0.17 -0.12 0.17 -0.13 0.16 -0.15 0.16 -0.14 0.15 -0.16 0.14 -0.16 0.14 -0.17 0.12 -0.18 0.12 -0.18 0.1 -0.19 0.1 -0.19 0.09 -0.2 0.08 -0.2 0.07 -0.21 0.06 -0.21 0.05 -0.22 0.04 -0.22 0.03 -0.23 0.02 -0.23 0 -0.23 2.43 0 -0.01 0.36 -0.03 0.35 -0.04 0.34 -0.06 0.34 -0.08 0.34 -0.09 0.33 -0.11 0.32 -0.13 0.31 -0.14 0.31 -0.15 0.29 -0.16 0.3 -0.18 0.28 -0.2 0.27 -0.2 0.26 -0.22 0.25 -0.23 0.24 -0.24 0.23 -0.25 0.21 -0.26 0.21 -0.27 0.19 -0.28 0.18 -0.29 0.17 -0.3 0.15 -0.3 0.14 -0.32 0.12 -0.32 0.11 -0.33 0.09 -0.33 0.08 -0.34 0.06 -0.35 0.05 -0.35 0.02 -0.35 0.01 0 0zm-6.91 -6.91l2.42 0 0 0 0.01 0.23 0.01 0.23 0.03 0.23 0.04 0.22 0.05 0.22 0.06 0.21 0.07 0.21 0.08 0.2 0.09 0.2 0.1 0.19 0.11 0.19 0.12 0.18 0.12 0.18 0.13 0.17 0.15 0.16 0.15 0.16 0.15 0.14 0.17 0.15 0.17 0.13 0.17 0.12 0.18 0.12 0.19 0.11 0.19 0.1 0.2 0.09 0.2 0.08 0.21 0.07 0.22 0.06 0.21 0.05 0.22 0.04 0.23 0.03 0.23 0.01 0.23 0.01 0 2.42 -0.36 -0.01 -0.35 -0.02 -0.34 -0.05 -0.34 -0.06 -0.34 -0.08 -0.33 -0.09 -0.32 -0.11 -0.31 -0.12 -0.31 -0.14 -0.29 -0.15 -0.3 -0.17 -0.28 -0.18 -0.27 -0.19 -0.26 -0.21 -0.25 -0.21 -0.24 -0.23 -0.23 -0.24 -0.21 -0.25 -0.21 -0.26 -0.19 -0.27 -0.18 -0.28 -0.17 -0.3 -0.15 -0.29 -0.14 -0.31 -0.12 -0.31 -0.11 -0.32 -0.09 -0.33 -0.08 -0.34 -0.06 -0.34 -0.05 -0.34 -0.02 -0.35 -0.01 -0.36 0 0zm6.91 -6.91l0 2.43 0 0 -0.23 0 -0.23 0.02 -0.23 0.03 -0.22 0.04 -0.21 0.05 -0.22 0.06 -0.21 0.07 -0.2 0.08 -0.2 0.09 -0.19 0.1 -0.19 0.1 -0.18 0.12 -0.17 0.13 -0.17 0.13 -0.17 0.14 -0.15 0.15 -0.15 0.16 -0.15 0.16 -0.13 0.17 -0.12 0.18 -0.12 0.18 -0.11 0.18 -0.1 0.2 -0.09 0.2 -0.08 0.2 -0.07 0.21 -0.06 0.21 -0.05 0.22 -0.04 0.22 -0.03 0.22 -0.01 0.23 -0.01 0.23 -2.42 0 0.01 -0.35 0.02 -0.35 0.05 -0.35 0.06 -0.34 0.08 -0.33 0.09 -0.33 0.11 -0.32 0.12 -0.32 0.14 -0.3 0.15 -0.3 0.17 -0.29 0.18 -0.28 0.19 -0.27 0.21 -0.26 0.21 -0.25 0.23 -0.24 0.24 -0.23 0.25 -0.22 0.26 -0.2 0.27 -0.2 0.28 -0.17 0.3 -0.17 0.29 -0.15 0.31 -0.14 0.31 -0.13 0.32 -0.1 0.33 -0.1 0.34 -0.08 0.34 -0.06 0.34 -0.04 0.35 -0.03 0.36 -0.01 0 0z"/>
  <path fill="#FEFEFE" fill-rule="nonzero" d="M275.48 53.87l-177.96 0 0 -1.51 177.96 0 0 0 0 1.51zm11.53 10.01l-1.52 0 0 0 -0.01 -0.51 -0.04 -0.51 -0.06 -0.5 -0.09 -0.49 -0.11 -0.48 -0.14 -0.48 -0.16 -0.46 -0.18 -0.46 -0.2 -0.44 -0.22 -0.43 -0.24 -0.42 -0.26 -0.41 -0.28 -0.39 -0.3 -0.38 -0.31 -0.36 -0.34 -0.35 -0.35 -0.33 -0.36 -0.32 -0.38 -0.29 -0.39 -0.28 -0.41 -0.27 -0.42 -0.24 -0.43 -0.22 -0.44 -0.2 -0.46 -0.18 -0.46 -0.16 -0.47 -0.13 -0.49 -0.12 -0.49 -0.08 -0.5 -0.07 -0.5 -0.04 -0.52 -0.01 0 -1.51 0.59 0.01 0.59 0.05 0.57 0.07 0.57 0.1 0.56 0.13 0.54 0.16 0.54 0.18 0.52 0.21 0.51 0.23 0.5 0.25 0.48 0.28 0.47 0.3 0.45 0.32 0.43 0.35 0.42 0.36 0.4 0.38 0.38 0.4 0.37 0.42 0.34 0.44 0.32 0.45 0.3 0.46 0.28 0.49 0.26 0.49 0.23 0.51 0.21 0.53 0.18 0.53 0.15 0.55 0.13 0.56 0.1 0.56 0.08 0.58 0.04 0.58 0.02 0.59 0 0zm-1.52 71.88l0 -71.88 1.52 0 0 71.88 0 0 -1.52 0zm-10.01 11.53l0 -1.52 0 0 0.52 -0.01 0.5 -0.04 0.5 -0.06 0.49 -0.09 0.49 -0.11 0.47 -0.14 0.46 -0.16 0.46 -0.17 0.44 -0.21 0.43 -0.22 0.42 -0.24 0.41 -0.26 0.39 -0.28 0.38 -0.3 0.36 -0.31 0.35 -0.34 0.34 -0.35 0.31 -0.36 0.3 -0.38 0.28 -0.39 0.26 -0.41 0.24 -0.42 0.22 -0.43 0.2 -0.44 0.18 -0.45 0.16 -0.47 0.14 -0.47 0.11 -0.49 0.09 -0.49 0.06 -0.5 0.04 -0.5 0.01 -0.52 1.52 0 -0.02 0.59 -0.04 0.59 -0.08 0.57 -0.1 0.57 -0.13 0.56 -0.15 0.54 -0.18 0.54 -0.21 0.52 -0.23 0.51 -0.26 0.5 -0.28 0.48 -0.3 0.47 -0.32 0.45 -0.34 0.43 -0.37 0.42 -0.38 0.4 -0.4 0.39 -0.42 0.36 -0.43 0.34 -0.45 0.32 -0.47 0.3 -0.48 0.28 -0.5 0.26 -0.51 0.23 -0.52 0.21 -0.54 0.18 -0.54 0.15 -0.56 0.13 -0.57 0.1 -0.57 0.08 -0.59 0.04 -0.59 0.02 0 0zm-177.96 -1.52l177.96 0 0 1.52 -177.96 0 0 0 0 -1.52zm-11.53 -10.01l1.52 0 0 0 0.01 0.52 0.04 0.5 0.06 0.5 0.09 0.49 0.11 0.49 0.14 0.47 0.16 0.47 0.17 0.45 0.21 0.44 0.22 0.43 0.24 0.42 0.26 0.41 0.28 0.39 0.3 0.38 0.31 0.36 0.34 0.35 0.35 0.34 0.36 0.31 0.38 0.3 0.39 0.28 0.41 0.26 0.42 0.24 0.43 0.22 0.44 0.21 0.45 0.17 0.47 0.16 0.47 0.14 0.49 0.11 0.49 0.09 0.5 0.06 0.5 0.04 0.52 0.01 0 1.52 -0.59 -0.02 -0.59 -0.04 -0.57 -0.08 -0.57 -0.1 -0.56 -0.13 -0.54 -0.15 -0.54 -0.18 -0.52 -0.21 -0.51 -0.23 -0.5 -0.26 -0.48 -0.28 -0.47 -0.3 -0.45 -0.32 -0.43 -0.34 -0.42 -0.36 -0.4 -0.39 -0.39 -0.4 -0.36 -0.42 -0.34 -0.43 -0.32 -0.45 -0.3 -0.47 -0.28 -0.48 -0.26 -0.5 -0.23 -0.51 -0.21 -0.52 -0.18 -0.54 -0.15 -0.54 -0.13 -0.56 -0.1 -0.57 -0.08 -0.57 -0.04 -0.59 -0.02 -0.59 0 0zm1.52 -71.88l0 71.88 -1.52 0 0 -71.88 0 0 1.52 0zm10.01 -11.52l0 1.51 0 0 -0.52 0.01 -0.5 0.04 -0.5 0.07 -0.49 0.08 -0.49 0.12 -0.47 0.13 -0.47 0.16 -0.45 0.18 -0.44 0.2 -0.43 0.22 -0.42 0.24 -0.41 0.27 -0.39 0.28 -0.38 0.29 -0.36 0.32 -0.35 0.33 -0.34 0.35 -0.31 0.36 -0.3 0.38 -0.28 0.39 -0.26 0.41 -0.24 0.42 -0.22 0.43 -0.21 0.44 -0.17 0.46 -0.16 0.46 -0.14 0.48 -0.11 0.48 -0.09 0.49 -0.06 0.5 -0.04 0.51 -0.01 0.51 -1.52 0 0.02 -0.59 0.04 -0.58 0.08 -0.58 0.1 -0.56 0.13 -0.56 0.15 -0.55 0.18 -0.53 0.21 -0.53 0.23 -0.51 0.26 -0.49 0.28 -0.49 0.3 -0.46 0.32 -0.45 0.34 -0.44 0.36 -0.42 0.39 -0.4 0.4 -0.38 0.42 -0.36 0.43 -0.35 0.45 -0.32 0.47 -0.3 0.48 -0.28 0.5 -0.25 0.51 -0.23 0.52 -0.21 0.54 -0.18 0.54 -0.16 0.56 -0.13 0.57 -0.1 0.57 -0.07 0.59 -0.05 0.59 -0.01 0 0z"/>
  <path fill="#EAC9CA" d="M40.52 140.28c13.64,0 23.67,10.26 23.67,23.87 0,13.6 -8.87,20.15 -24.98,23.03 -5.18,0.93 -9.05,0.47 -12.55,-1.64 -7.84,-4.7 -11.79,-13.91 -11.79,-23.32 0,-13.6 12.01,-21.94 25.65,-21.94z"/>
  <path fill="#F9D5D7" d="M34.81 166.05c-1.17,3.99 -1.88,6.94 -2.66,9.3 1.17,1.36 2.59,2.78 4.16,4.06 1.23,0.99 2.55,1.9 3.93,2.62 3.64,-0.59 6.97,-1.75 9.73,-3.34 1.47,-4.03 2.1,-7.4 2.57,-10.35 -1.89,-1.52 -4.32,-3.33 -7.32,-5.94 -1.61,0.48 -3.14,0.96 -4.57,1.44 -2.19,0.74 -4.16,1.47 -5.84,2.21zm-3.08 9.5c-2.42,0.46 -4.83,0.92 -8.89,-0.47l-0.01 -0.02c-0.55,1.54 -0.87,3.44 -1.06,4.81 0.95,1.9 4.53,5.04 7.42,6.74 0.82,0.28 1.67,0.51 2.54,0.7 0.28,0.05 0.45,0.09 0.61,0.13l0.01 0c0.83,0.18 1.16,0.26 1.64,0.21l0 0c0.33,-0.02 0.74,-0.11 1.43,-0.24 0.7,-0.14 1.69,-0.33 3.18,-0.59 0.33,-1.27 0.98,-2.19 1.43,-4.39 -1.41,-0.73 -2.76,-1.65 -4,-2.66 -1.64,-1.33 -3.11,-2.81 -4.3,-4.22zm-9.2 -0.97c-1.95,-3.25 -3.12,-6.63 -2.94,-10.26 -0.77,-0.4 -1.45,-0.83 -2.04,-1.29 -0.69,-0.52 -1.26,-1.08 -1.74,-1.67 -0.37,0.48 -1.22,1.65 -1.46,2.88 -0.46,-2 0.48,-6.17 1.29,-8.63l0.18 -1.38 0 -0.04 0.02 -0.04c1.34,-2.36 2.87,-4.34 4.59,-5.97 1.5,-1.42 3.15,-2.58 4.92,-3.49 1.28,-1.53 3.91,-3.7 7.15,-4.72 1.79,-0.59 6.15,-0.38 8.02,0.31 3.8,0.19 6.54,0.69 8.61,1.3 2.32,0.68 3.78,1.5 4.92,2.16l0.03 0.01 0.01 0.02c0.39,0.33 0.73,0.68 1.04,1.03 1.49,1.19 3.25,2.94 4.67,5.48 -0.87,-0.91 -1.79,-1.43 -2.56,-2.1 -0.09,0.65 -0.14,1.27 -0.2,1.88 -0.1,1.16 -0.21,2.29 -0.46,3.44 1.81,2.82 2.38,5.68 2.44,9.26 1.65,0.85 3.07,2.48 4,3.7 0.76,-1.34 1.01,-2.11 1,-1.94 0,0.75 -0.11,1.81 -0.28,2.94l0.11 0.16 0 0 0.03 0.03 0.04 0.08 -0.01 0.08c-0.43,3.35 -1.61,7.17 -3.82,10.15 -1.68,2.26 -3.94,4.04 -6.92,4.76 -2.19,2.87 -2.62,2.8 -5.78,4.99 -2.85,0.53 -6.43,0.16 -8.18,-0.53 -1.77,0.3 -2.91,0.52 -3.7,0.68 -0.7,0.13 -1.12,0.22 -1.48,0.25l0 0c-0.55,0.05 -0.9,-0.03 -1.78,-0.22l0 0c-0.2,-0.05 -0.43,-0.1 -0.61,-0.14 -2.2,-0.47 -4.25,-1.22 -6.07,-2.32 -1.7,-1.02 -3.19,-2.33 -4.4,-3.97l-0.05 -0.08 0.01 -0.09 0.02 -0.19c-0.87,-0.97 -1.57,-1.93 -2.29,-2.9 -0.14,-0.08 1.57,0.91 2.5,1.29 0.21,-1.45 0.57,-3.38 1.17,-4.91zm-2.7 -10.64c1.54,-2.19 3.93,-3.65 6.71,-4.77 -0.01,-1.99 0.22,-3.87 0.67,-5.67 0.41,-1.62 0.99,-3.16 1.73,-4.65 -1.43,-1.16 -2.94,-2.27 -4.19,-3.32 -1.43,0.82 -2.76,1.81 -4,2.98 -1.61,1.52 -3.05,3.35 -4.31,5.51 -0.07,1.14 -0.32,5.16 -0.42,6.86 0.47,0.63 1.07,1.23 1.8,1.79 0.59,0.45 1.26,0.87 2.01,1.27zm7.17 -4.69c2.48,2.26 4.95,4.5 7.41,6.47 1.74,-0.77 3.8,-1.54 6.1,-2.31 1.51,-0.51 3.12,-1.02 4.82,-1.52 0.96,-2.88 1.63,-5.64 2.46,-8.76 -0.63,-0.99 -1.32,-1.91 -2.06,-2.75 -1.74,-1.98 -3.78,-3.53 -6.08,-4.73 -3.55,0.55 -7.31,1.6 -10.15,3.12 -0.8,1.55 -1.42,3.16 -1.84,4.84 -0.45,1.79 -0.68,3.66 -0.66,5.64zm29.22 -6.28c0.19,-0.98 0.28,-1.95 0.37,-2.96 0.06,-0.71 0.13,-1.44 0.23,-2.2 -1.55,-1.46 -2.76,-2.88 -3.87,-4.17 -0.99,-0.53 -2.23,-1.11 -3.95,-1.62 -1.94,-0.57 -4.49,-1.05 -7.98,-1.25 -0.52,0.99 -0.75,1.75 -1.27,4.41 2.39,1.24 4.52,2.84 6.33,4.9 0.68,0.77 1.32,1.62 1.91,2.53 3.18,-0.64 5.51,-0.97 8.14,0.24l0.09 0.12zm-3.25 15.57c-0.49,3.02 -1.14,6.47 -2.68,10.59 0.82,1.18 1.18,1.55 3.04,3.08 2.73,-0.74 4.83,-2.41 6.39,-4.53 1.22,-1.64 2.12,-3.55 2.75,-5.49 0.15,-1.54 0.06,-3.54 0.38,-5.19 -0.87,-1.18 -2.29,-2.89 -3.92,-3.78 -2.69,3.38 -3.66,4.37 -5.96,5.32zm-29.94 14.37c0.84,0.82 1.77,1.53 2.78,2.13 1.05,0.63 2.18,1.15 3.38,1.56 -2.79,-1.26 -4.71,-2.49 -6.16,-3.69z"/>
  <path fill="#EAC9CA" fill-rule="nonzero" d="M38.58 187.28c-0.25,-0.01 -0.44,-0.23 -0.43,-0.48 0.01,-0.25 0.22,-0.44 0.47,-0.43l-0.04 0.91zm14.43 -5.4l0.64 0.65 -0.35 0.33 -0.35 0.31 -0.36 0.3 -0.37 0.29 -0.38 0.28 -0.39 0.26 -0.4 0.26 -0.4 0.24 -0.42 0.23 -0.42 0.22 -0.43 0.21 -0.44 0.19 -0.44 0.19 -0.46 0.17 -0.46 0.16 -0.47 0.16 -0.47 0.14 -0.49 0.12 -0.49 0.12 -0.5 0.11 -0.51 0.1 -0.51 0.08 -0.53 0.08 -0.52 0.06 -0.54 0.05 -0.55 0.05 -0.55 0.03 -0.56 0.02 -0.56 0.01 -0.58 0 -0.58 -0.01 -0.59 -0.01 0.04 -0.91 0.57 0.02 0.57 0.01 0.56 -0.01 0.55 -0.01 0.54 -0.02 0.53 -0.03 0.53 -0.04 0.52 -0.05 0.51 -0.06 0.5 -0.08 0.49 -0.08 0.49 -0.09 0.48 -0.1 0.47 -0.12 0.46 -0.12 0.46 -0.13 0.44 -0.15 0.44 -0.15 0.43 -0.16 0.42 -0.18 0.42 -0.19 0.4 -0.19 0.4 -0.21 0.39 -0.22 0.38 -0.23 0.37 -0.23 0.37 -0.26 0.36 -0.26 0.35 -0.27 0.34 -0.28 0.33 -0.29 0.32 -0.31zm0 0c0.18,-0.18 0.47,-0.17 0.65,0.01 0.17,0.18 0.17,0.47 -0.01,0.64l-0.64 -0.65z"/>
  <path fill="#EAC9CA" fill-rule="nonzero" d="M40.08 140.27c0.25,0.01 0.45,0.22 0.44,0.47 -0.01,0.25 -0.23,0.44 -0.48,0.43l0.04 -0.9zm-14.43 5.39l-0.63 -0.65 0.34 -0.32 0.36 -0.32 0.36 -0.3 0.37 -0.29 0.38 -0.27 0.39 -0.27 0.4 -0.25 0.4 -0.25 0.41 -0.23 0.42 -0.22 0.43 -0.2 0.44 -0.2 0.45 -0.19 0.45 -0.17 0.46 -0.16 0.47 -0.15 0.48 -0.14 0.48 -0.13 0.49 -0.12 0.51 -0.11 0.5 -0.09 0.52 -0.09 0.52 -0.07 0.53 -0.07 0.54 -0.05 0.54 -0.04 0.55 -0.04 0.56 -0.02 0.57 -0.01 0.57 0 0.58 0.01 0.59 0.02 -0.04 0.9 -0.57 -0.01 -0.56 -0.01 -0.56 0 -0.55 0.01 -0.54 0.02 -0.54 0.03 -0.52 0.04 -0.52 0.06 -0.51 0.06 -0.5 0.07 -0.5 0.08 -0.48 0.09 -0.48 0.11 -0.47 0.11 -0.47 0.12 -0.45 0.13 -0.45 0.15 -0.44 0.15 -0.43 0.17 -0.42 0.17 -0.41 0.19 -0.41 0.2 -0.39 0.2 -0.4 0.22 -0.38 0.23 -0.37 0.24 -0.37 0.25 -0.35 0.26 -0.35 0.27 -0.34 0.28 -0.33 0.3 -0.33 0.3zm0 0c-0.18,0.18 -0.47,0.17 -0.64,-0.01 -0.17,-0.18 -0.17,-0.46 0.01,-0.64l0.63 0.65z"/>
  <path fill="#EAC9CA" d="M358.17 153.63c2.13,1.85 2.19,3.69 -0.44,3.75 -0.62,0 -1.2,0 -1.76,0 0.89,0.32 1.74,0.72 2.53,1.21 2.87,1.78 5.02,4.63 5.78,8.13 0.75,3.49 -0.04,6.97 -1.93,9.77 -1.86,2.77 -4.79,4.86 -8.34,5.63 -3.55,0.76 -7.08,0.06 -9.92,-1.69 -2.87,-1.78 -5.02,-4.63 -5.77,-8.13 -0.76,-3.49 0.03,-6.97 1.92,-9.77l0.04 -0.06c-0.76,-1.86 -1.35,-3.79 -1.72,-5.69 -1.1,1.93 -1.33,4.4 -2.41,7.54 -0.08,0.33 -0.05,0.19 0,0l-0.01 0 -0.23 1.01c-0.47,4.58 -1.3,7.6 -2.93,9.87 -1.79,2.49 -4.22,3.79 -7.81,4.85l-0.09 0.02 -0.22 0.04 -24.9 4.48c-0.32,1.52 -0.96,2.96 -1.86,4.25 -1.75,2.46 -4.47,4.35 -7.76,5.05 -3.29,0.71 -6.54,0.12 -9.15,-1.41 -2.64,-1.56 -4.6,-4.07 -5.27,-7.17 -0.67,-3.1 0.09,-6.19 1.86,-8.69 1.5,-2.13 3.73,-3.82 6.42,-4.7 -5.31,0.25 -9.72,3.74 -9.44,2.05 4.69,-10.58 23.17,-11.84 29.79,-1.08l24.62 -4.86c0.2,-0.99 0.36,-2.15 0.49,-3.52l0.02 -0.22 0.05 -0.18c0.57,-2.48 -0.14,0.56 0.26,-1.19 1.7,-5.75 1.79,-10.02 6.39,-13.2l-15.15 -35.25 -0.02 -0.04c-0.68,0.21 -1.42,-0.15 -1.66,-0.83l-1.11 -3.09c-0.26,-0.69 0.11,-1.46 0.8,-1.71l0.16 -0.06 -3.28 -7.66 -6.27 1.75c-0.16,0.05 -0.33,0.08 -0.5,0.09 -0.27,1.56 -1.21,2.79 -2.54,3.08 -1.11,0.24 -2.25,-0.24 -3.11,-1.18l-6.08 1.51c-0.3,0.09 -0.6,0.11 -0.89,0.09 -1.1,-0.01 -2.1,-0.81 -2.35,-1.97 -0.26,-1.23 0.4,-2.43 1.51,-2.84 0.12,-0.05 0.25,-0.1 0.38,-0.14l6.05 -1.5c0.28,-1.56 1.22,-2.77 2.54,-3.06 1.14,-0.24 2.3,0.26 3.17,1.24 0.15,-0.07 0.31,-0.13 0.47,-0.18l7.81 -2.19c0.05,-0.02 0.1,-0.04 0.15,-0.07 0.36,-0.16 0.72,-0.25 1.06,-0.26l6.32 -1.77c0.25,-1.46 1.12,-2.6 2.35,-2.86 0.82,-0.18 1.65,0.06 2.36,0.61l2.94 -1.11c1.34,-0.37 2.73,0.42 3.11,1.76 0.37,1.34 -0.42,2.73 -1.76,3.11l-2.47 0.92c-0.19,1.56 -1.08,2.81 -2.38,3.09 -0.88,0.19 -1.78,-0.11 -2.52,-0.74l-4.38 1.23 3.05 7.34 -0.01 0.01 0.73 -0.26c0.69,-0.25 1.47,0.11 1.72,0.81l1.11 3.08c0.21,0.6 -0.03,1.26 -0.54,1.59l14.97 34.81c1.66,-0.4 3.34,0.6 3.78,2.26 0.15,0.58 0.14,1.16 -0.02,1.7 3.24,-0.73 7.89,-0.67 12.29,2.6zm-70.56 23.27c1.42,0 2.78,0.41 3.93,1.12 0.61,0.38 1.16,0.85 1.64,1.39l-5.11 0.92c-1.71,0.32 -2.83,1.96 -2.52,3.67 0.32,1.71 1.97,2.84 3.68,2.52l4.03 -0.73c-0.91,1.28 -2.35,2.25 -4.1,2.63 -1.76,0.38 -3.49,0.07 -4.86,-0.73 -1.33,-0.79 -2.32,-2.05 -2.66,-3.61 -0.34,-1.56 0.05,-3.12 0.94,-4.38 0.91,-1.3 2.36,-2.29 4.13,-2.67 0.3,-0.07 0.6,-0.11 0.9,-0.13zm40.63 -5.97c0.23,-0.43 0.43,-0.94 0.6,-1.53l-0.6 1.53zm7.9 -6.61c0.16,-0.67 0.07,-0.28 0.01,0l-0.01 0zm8.21 5.23c1.28,1.62 2.71,3.04 4.26,4.16 1.41,1.01 3.38,0.69 4.39,-0.72 1.02,-1.41 0.69,-3.38 -0.72,-4.39 -1.6,-1.15 -3.06,-2.85 -4.28,-4.82 0.58,-0.31 1.23,-0.55 1.91,-0.7 1.91,-0.41 3.79,-0.05 5.27,0.88 1.45,0.89 2.54,2.33 2.92,4.09 0.38,1.75 -0.02,3.51 -0.98,4.92 -0.97,1.45 -2.53,2.56 -4.44,2.97 -1.91,0.41 -3.78,0.04 -5.27,-0.88 -1.45,-0.89 -2.54,-2.33 -2.92,-4.09 -0.1,-0.48 -0.14,-0.95 -0.14,-1.42z"/>
  <path fill="#EAC9CA" d="M79.21 21.7c-0.42,0 -4.4,10.58 -3.86,14.41 0.53,3.82 0.9,8.99 0.05,11.93 -0.59,2.05 -1.49,2.98 -1.97,3.35l-3.61 8.66c0,0 -0.97,0.17 -2.4,0.21 -0.6,1 -1.43,2.82 -0.56,3.99 1.26,1.68 6.09,2.33 7.06,3.21 0.96,0.89 0.16,2.86 0.16,2.86 0,0 -16.93,-3.45 -25.13,-5.36 -8.19,-1.92 -25.24,-7.09 -29.06,-8.66 -3.82,-1.56 -7.6,-3.25 -7.6,-3.25l-1.25 -3.79c0,0 1.47,-1.05 2.44,-1.84 0.46,-0.39 0.98,-0.72 1.39,-0.96 -0.83,-0.77 -0.61,-3.05 0.09,-2.61 -0.67,-0.93 0.45,-6.77 2.96,-7.56 1.83,-0.58 4.93,-0.52 8.07,-0.57l0.1 2.5c0.01,0.44 0.38,0.78 0.82,0.77 0.44,-0.02 0.79,-0.39 0.77,-0.83l-0.08 -2.06c0.13,0.02 -0.06,-0.38 0.07,-0.42l-0.02 0c1.04,-0.04 2.06,-0.1 3.01,-0.22l0 0 0.56 3.07c0.07,0.44 0.49,0.73 0.92,0.65 0.44,-0.08 0.72,-0.5 0.65,-0.93l-0.55 -3.05c0.47,-0.11 0.92,-0.23 1.32,-0.38 0.36,-0.14 0.75,-0.29 1.18,-0.45l1.28 3.58c0.14,0.41 0.6,0.63 1.02,0.48 0.41,-0.15 0.63,-0.61 0.48,-1.02l-1.31 -3.65 0 0c0.79,-0.33 1.63,-0.7 2.5,-1.11l1.84 3.84c0.19,0.4 0.67,0.57 1.07,0.37 0.39,-0.18 0.56,-0.66 0.37,-1.06l-1.84 -3.83c0.77,-0.37 1.54,-0.77 2.29,-1.17l0 0 2.41 3.87c0.22,0.38 0.71,0.5 1.09,0.27 0.38,-0.22 0.5,-0.71 0.27,-1.09l-2.37 -3.83c0.75,-0.43 1.46,-0.87 2.12,-1.32l2.99 3.66c0.27,0.35 0.77,0.41 1.12,0.13 0.34,-0.27 0.4,-0.77 0.13,-1.12l-2.94 -3.6c0.64,-0.51 1.19,-1.01 1.62,-1.5l-0.04 0.05 3.76 3.18c0.34,0.28 0.84,0.24 1.13,-0.1 0.29,-0.33 0.24,-0.83 -0.09,-1.12l-3.83 -3.22c0.43,-0.59 0.94,-1.28 1.49,-2.05l4.67 3.12c0.37,0.24 0.87,0.15 1.11,-0.22 0.25,-0.37 0.15,-0.86 -0.22,-1.11l-4.63 -3.08c0.47,-0.65 0.95,-1.33 1.44,-2.02l4.74 2.74c0.38,0.22 0.86,0.1 1.09,-0.28 0.23,-0.38 0.1,-0.87 -0.28,-1.1l-4.63 -2.67c0.58,-0.81 1.15,-1.63 1.7,-2.42l0 0 4.45 2.57c0.38,0.23 0.87,0.1 1.09,-0.28 0.23,-0.38 0.1,-0.86 -0.28,-1.09l-4.35 -2.51c0.66,-0.96 1.26,-1.83 1.76,-2.57l4.29 2.47c0.38,0.23 0.87,0.1 1.09,-0.28 0.23,-0.38 0.1,-0.87 -0.28,-1.09l-4.21 -2.44c0.16,-0.25 0.29,-0.46 0.39,-0.62 1.27,-2.1 2.07,-2.81 2.07,-2.81 0,0 1.13,1.22 2.05,2.23 0.92,1.01 1.17,2.36 1.17,2.36 0,0 1.3,0.72 2.44,1.52 1.13,0.8 7.08,6.87 8.05,7.33 0.97,0.47 3.19,0.94 3.19,0.94zm-30.14 4.35c0.04,-0.05 0.08,-0.1 0.11,-0.15 -0.03,0.05 -0.07,0.1 -0.11,0.15zm-31.47 21.67c-0.47,0.39 -0.99,0.96 -0.97,1.59 0.04,1.14 2.76,3.04 5.79,4.06 2.65,0.89 6.3,1.27 7.52,0.57 0.62,-0.37 1.01,-0.8 1.25,-1.2 -4.25,-1.4 -10.17,-3.62 -13.59,-5.02zm17.21 5.39c0.05,0.95 0.22,2.98 0.84,3.44 1.01,0.76 7.6,2.84 12.39,4.03 4.79,1.19 10.75,3.06 12.65,2.01 1.49,-0.82 1.99,-2.06 2.2,-2.74 -3.32,-0.75 -6.52,-2.36 -6.52,-2.36l1.28 -5.04c0,0 -4.32,0.37 -8.16,0.91 -5,0.7 -10.27,0.61 -14.09,-0.12 -0.17,-0.03 -0.37,-0.07 -0.59,-0.13z"/>
  <path fill="#EAC9CA" d="M179.92 172.73c-0.06,0.86 -0.37,1.67 -0.88,2.34 -0.49,1.08 -1.42,1.95 -2.64,2.32 -0.61,0.18 -1.23,0.23 -1.82,0.14l-0.12 1.22c0.51,0.47 0.91,1.1 1.15,1.87 0.25,1.33 0.65,2.97 0.67,4.08 -0.25,2.68 -2.02,4.25 -4.46,4.27 -1.61,0.02 -3.73,-1.01 -4.2,-3.69 -0.09,-0.49 -0.11,-3.03 -0.05,-3.61 0.13,-1.39 0.94,-2.66 2.19,-3.34 -0.47,0.15 -0.94,0.29 -1.43,0.42 -9.81,1.71 -19.28,2.7 -28.94,3.41 -0.45,1.19 -1.43,2.17 -2.74,2.56 -0.84,0.26 -1.69,0.24 -2.47,0.01l-0.03 0.34c0.55,0.5 0.98,1.18 1.24,2.01 0.27,1.44 0.7,3.22 0.73,4.41 -0.28,2.9 -2.19,4.6 -4.82,4.62 -1.75,0.01 -4.04,-1.09 -4.55,-3.99 -0.09,-0.53 -0.11,-3.27 -0.05,-3.9 0.17,-1.81 1.4,-3.42 3.24,-3.98 0.22,-0.06 0.44,-0.12 0.65,-0.15l-0.06 -1.35c-2.02,0.12 -4.06,0.23 -6.12,0.34 -6.65,-1.73 -9.66,-5.61 -9.85,-9.19 -0.41,-2.38 0.8,-4.71 3.25,-6.12 1.58,-1 3.68,-1.55 6.22,-1.38l2.43 -0.22 47.16 -6.61c6.59,-1.46 11.1,-4.31 11.97,-2.77 0.01,0.02 0.02,0.05 0.03,0.07 0.22,0.02 0.38,0.11 0.5,0.28 2.27,3.41 -0.02,10.29 -6.2,15.59zm-7.38 -10.89l0.01 0c-0.01,0.04 -0.01,0.09 -0.01,0.13 0.08,0.57 0.67,0.38 0.79,-0.05 -0.03,-0.38 -0.18,-0.6 -0.39,-0.52 -0.14,0.05 -0.28,0.21 -0.4,0.44zm6.21 -1.75l0.02 -0.01c0.14,0.47 0.97,0.33 1.11,-0.15 0.05,-0.14 0.06,-0.28 0.04,-0.4l0.01 -0.01c-0.01,-0.05 -0.03,-0.09 -0.04,-0.14 -0.05,-0.14 -0.14,-0.24 -0.25,-0.26 -0.06,-0.02 -0.12,-0.02 -0.18,0.01 -0.07,0.02 -0.15,0.08 -0.22,0.15 -0.23,0.17 -0.38,0.48 -0.49,0.81zm-53.46 15.22c0.01,-0.03 0.02,-0.06 0.04,-0.09 0.06,-0.1 0.16,-0.18 0.26,-0.22 0.07,-0.03 0.14,0.01 0.18,0.07 0.04,0.09 0.06,0.21 0.06,0.36l0 0.02c-0.07,0.31 -0.52,0.35 -0.57,0.01 0,-0.05 0.01,-0.1 0.03,-0.15zm0.5 -5.29c0.05,-0.11 0.11,-0.21 0.17,-0.28 0.05,-0.05 0.1,-0.08 0.15,-0.1 0.05,-0.02 0.09,-0.01 0.13,0.01 0.07,0.07 0.12,0.21 0.12,0.4l-0.01 0.03c-0.07,0.31 -0.52,0.36 -0.56,0.01 0,-0.02 0,-0.05 0,-0.07zm2.88 4.84c0.02,-0.04 0.04,-0.08 0.06,-0.12 0.09,-0.12 0.21,-0.22 0.32,-0.26 0.2,-0.08 0.38,0.22 0.3,0.57 -0.08,0.39 -0.65,0.45 -0.71,0.01 -0.01,-0.07 0,-0.13 0.03,-0.2zm1.21 -6.12c0.07,0.1 0.11,0.26 0.12,0.47 0,0.02 -0.01,0.03 -0.01,0.05 -0.09,0.39 -0.66,0.45 -0.72,0.01 -0.03,-0.24 0.21,-0.5 0.41,-0.58 0.08,-0.02 0.15,0 0.2,0.05zm42.7 -0.84c0.02,-0.03 0.05,-0.06 0.07,-0.09l0 0 0.01 -0.01c0.05,-0.05 0.1,-0.09 0.15,-0.12 0.01,-0.01 0.03,-0.01 0.04,-0.02 0.18,-0.06 0.31,0.07 0.37,0.33 0,0.07 0,0.14 -0.02,0.22 -0.09,0.39 -0.66,0.45 -0.71,0 -0.02,-0.1 0.02,-0.21 0.08,-0.3l0.01 -0.01 0 0zm-1.44 9.95l0.03 -0.01 0 0 -0.03 0.01zm8.81 -10.9c-0.17,0.56 -1,0.59 -1.04,-0.06 0,-0.03 0,-0.05 0,-0.07l0 -0.02 0 -0.01 0 0 0.01 -0.02 0 0 0 -0.01 0 0 0 -0.02 0 0 0.01 -0.01 0 0 0 -0.02 0 0 0.01 -0.01 0 -0.01 0 -0.01 0 0 0 -0.01 0.01 -0.01 0 -0.01 0 0 0.01 -0.01 0 -0.01 0 -0.01 0.01 -0.01 0 0 0 -0.01 0.01 -0.01 0 -0.01 0 0 0.01 -0.01 0 0 0.01 -0.02 0.01 -0.01 0 0 0.01 -0.02 0 0 0.01 -0.01 0 0 0.01 -0.01 0 -0.01 0 -0.01 0.01 0 0 -0.01 0.01 0 0 -0.01 0.01 -0.01 0 -0.01 0.01 0 0.01 -0.01 0 -0.01 0.01 0 0.02 -0.03 0.01 -0.01 0 0 0.01 -0.01 0 0 0.01 -0.01 0 0 0.01 -0.02 0 0 0.01 0 0.02 -0.02 0 0 0.01 -0.01 0 0 0.01 -0.01 0.01 -0.01 0.01 0 0 -0.01 0.01 0 0 -0.01 0.01 0 0.01 -0.01 0 -0.01 0.02 0 0.01 -0.01 0 0 0.01 -0.01 0 0 0.01 -0.01 0.01 0 0.01 -0.01 0.01 -0.01 0 0 0.02 -0.01 0 0 0.01 -0.01 0 0 0.02 -0.01 0 0 0.01 -0.01 0.01 0 0.01 0 0.01 -0.01 0 0 0.01 -0.01 0.01 0 0 0 0.01 -0.01 0.01 0 0 0 0.01 -0.01 0.01 0 0 0 0.01 -0.01 0.01 0 0.01 0 0 0 0.01 -0.01 0.01 0 0.01 0 0 0 0.01 -0.01 0.01 0 0.01 0 0 0 0.01 0 0.01 0 0 -0.01 0.01 0 0.01 0 0 0 0.01 0 0 0 0.01 0 0 0 0.01 0 0.01 0 0 0 0.01 0 0 0 0.01 0.01 0 0 0.01 0 0.01 0 0.01 0 0 0 0 0 0.01 0.01 0.01 0 0 0 0.01 0 0.01 0 0 0.01 0 0 0.01 0 0 0.01 0.01 0 0 0 0.01 0.01 0 0 0.01 0 0 0 0.01 0.01 0.01 0.01 0 0 0.01 0 0.01 0.01 0 0 0.01 0.01 0 0.01 0.01 0 0 0.01 0.01 0 0 0.01 0.01 0 0 0.01 0.01 0.01 0 0 0 0.01 0 0 0.01 0.01 0 0 0.01 0.01 0 0.01 0 0 0.01 0.01 0 0 0.01 0.01 0 0.01 0 0.01 0 0 0.01 0.01 0 0 0 0.01 0.01 0 0 0.01 0 0.02 0 0 0.01 0.01 0 0 0 0.02 0.01 0 0 0.01 0 0.01 0 0 0.01 0.02 0 0 0 0.01 0 0.01 0 0.01 0 0 0.01 0.01 0 0.01 0 0.01 0 0.01 0 0.01 0.01 0.01 0 0 0 0.02 0 0 0 0.01 0 0.01 0 0.01 0 0.01 0 0.01 0 0.01 0 0 0 0.02 0 0 0 0.02 0 0 0 0.01 0 0.02 0 0 0 0.02 0 0c0,0.08 -0.01,0.17 -0.04,0.27z"/>
  <path fill="#EAC9CA" d="M354.85 58.85c-4.43,-2.74 -9.54,-5.94 -12.9,-8.13 -7.05,-4.59 -21.31,-15.27 -24.37,-18.04 -3.06,-2.78 -6.04,-5.65 -6.04,-5.65l0.12 -3.99c0,0 1.74,-0.48 2.92,-0.9 0.57,-0.2 1.17,-0.34 1.63,-0.43 -0.51,-1 0.47,-3.07 0.98,-2.42 -0.09,-0.32 0.11,-0.99 0.5,-1.77l11.97 0 -0.09 0.27c-0.13,0.42 0.1,0.87 0.52,1.01 0.42,0.13 0.87,-0.1 1,-0.52l0.24 -0.76 3.35 0 -0.39 2.32c-0.08,0.43 0.21,0.84 0.65,0.92 0.43,0.07 0.84,-0.22 0.92,-0.65l0.44 -2.59 2.71 0 -0.01 3.4c0,0.44 0.35,0.8 0.79,0.8 0.44,0.01 0.8,-0.35 0.8,-0.79l0.02 -3.41 2.79 0 0.36 3.58c0.04,0.44 0.43,0.76 0.87,0.71 0.44,-0.04 0.76,-0.43 0.72,-0.87l-0.34 -3.42 2.7 0 0.71 3.33c0.08,0.43 0.5,0.71 0.93,0.63 0.43,-0.08 0.71,-0.5 0.63,-0.94l-0.63 -3.02 2.81 0 0.9 2.56c0.14,0.42 0.59,0.64 1.01,0.51 0.06,-0.02 0.12,-0.05 0.17,-0.09l0.46 28.66c-1.87,-1.49 -3.23,-2.92 -3.23,-2.92l2.92 -4.31c0,0 -4.19,-1.13 -7.98,-1.93 -4.94,-1.05 -9.86,-2.93 -13.21,-4.91 -0.15,-0.09 -0.32,-0.2 -0.5,-0.32 -0.29,0.91 -0.81,2.87 -0.39,3.52 0.69,1.06 6.18,5.26 10.28,8.01 4.09,2.75 9.06,6.54 11.2,6.2 0.35,-0.05 0.67,-0.14 0.95,-0.25l0.11 6.6zm-0.64 -40.31l-0.36 -1.02 0.34 0 0.02 1.02zm-35.86 5.29c-0.57,0.2 -1.26,0.57 -1.45,1.17 -0.36,1.08 1.56,3.8 4.06,5.78 2.18,1.74 5.49,3.35 6.88,3.1 0.7,-0.13 1.22,-0.41 1.58,-0.7 -3.52,-2.76 -8.33,-6.87 -11.07,-9.35z"/>
  <path fill="#EAC9CA" d="M373 43.2c-0.14,0.23 -0.28,0.44 -0.42,0.64 -1.26,1.72 -2.41,2.29 -3,2.47l-6.34 6.92c0,0 -0.97,-0.17 -2.33,-0.62 -0.9,0.73 -2.3,2.15 -1.88,3.55 0.61,2.01 4.93,4.27 5.54,5.43 0.6,1.16 -0.83,2.74 -0.83,2.74 0,0 -14.74,-9.02 -21.79,-13.61 -7.05,-4.59 -21.31,-15.27 -24.37,-18.04 -3.06,-2.78 -6.04,-5.65 -6.04,-5.65l0.12 -3.99c0,0 1.74,-0.48 2.92,-0.9 0.57,-0.2 1.17,-0.34 1.63,-0.43 -0.51,-1 0.47,-3.07 0.98,-2.42 -0.31,-1.1 2.73,-6.21 5.36,-6.1 1.91,0.09 4.82,1.2 7.78,2.22l-0.76 2.38c-0.13,0.42 0.1,0.87 0.52,1.01 0.42,0.13 0.87,-0.1 1,-0.52l0.63 -1.96c0.11,0.06 0.06,-0.38 0.2,-0.38l-0.01 -0.01c0.99,0.33 1.97,0.61 2.9,0.83l0 0 -0.52 3.08c-0.08,0.43 0.21,0.84 0.65,0.92 0.43,0.07 0.84,-0.22 0.92,-0.65l0.52 -3.06c0.48,0.06 0.94,0.1 1.38,0.09 0.38,0 0.8,-0.01 1.25,-0.02l-0.01 3.8c0,0.44 0.35,0.8 0.79,0.8 0.44,0.01 0.8,-0.35 0.8,-0.79l0.02 -3.88 0 0c0.86,-0.04 1.77,-0.1 2.73,-0.19l0.42 4.24c0.04,0.44 0.43,0.76 0.87,0.71 0.44,-0.04 0.76,-0.43 0.72,-0.87l-0.42 -4.23c0.84,-0.09 1.7,-0.19 2.55,-0.32l0 0 0.94 4.46c0.08,0.43 0.5,0.71 0.93,0.63 0.43,-0.08 0.71,-0.5 0.63,-0.94l-0.92 -4.4c0.84,-0.16 1.67,-0.33 2.44,-0.52l1.56 4.46c0.14,0.42 0.59,0.64 1.01,0.51 0.42,-0.14 0.64,-0.59 0.5,-1.01l-1.53 -4.4c0.77,-0.25 1.46,-0.53 2.03,-0.85l-0.06 0.04 2.46 4.26c0.22,0.38 0.71,0.52 1.09,0.3 0.38,-0.22 0.52,-0.7 0.3,-1.09l-2.5 -4.33c0.61,-0.4 1.32,-0.88 2.1,-1.42l3.33 4.53c0.26,0.35 0.76,0.43 1.12,0.17 0.35,-0.27 0.43,-0.76 0.17,-1.12l-3.3 -4.48c0.65,-0.45 1.34,-0.92 2.03,-1.4l3.53 4.18c0.28,0.34 0.78,0.39 1.12,0.11 0.34,-0.28 0.39,-0.78 0.11,-1.12l-3.44 -4.09c0.81,-0.57 1.63,-1.14 2.42,-1.7l0 0 3.31 3.94c0.28,0.34 0.78,0.39 1.12,0.11 0.34,-0.28 0.39,-0.78 0.11,-1.12l-3.24 -3.85c0.95,-0.67 1.81,-1.29 2.53,-1.82l3.19 3.79 0.03 0.03c0.26,0.94 0.4,1.94 0.4,2.96l0 31.99zm-17.67 -29.01c0.05,-0.04 0.1,-0.07 0.15,-0.1 -0.05,0.03 -0.1,0.06 -0.15,0.1zm-36.98 9.64c-0.57,0.2 -1.26,0.57 -1.45,1.17 -0.36,1.08 1.56,3.8 4.06,5.78 2.18,1.74 5.49,3.35 6.88,3.1 0.7,-0.13 1.22,-0.41 1.58,-0.7 -3.52,-2.76 -8.33,-6.87 -11.07,-9.35zm14.35 10.94c-0.29,0.91 -0.81,2.87 -0.39,3.52 0.69,1.06 6.18,5.26 10.28,8.01 4.09,2.75 9.06,6.54 11.2,6.2 1.68,-0.26 2.58,-1.26 3,-1.82 -2.86,-1.84 -5.32,-4.44 -5.32,-4.44l2.92 -4.31c0,0 -4.19,-1.13 -7.98,-1.93 -4.94,-1.05 -9.86,-2.93 -13.21,-4.91 -0.15,-0.09 -0.32,-0.2 -0.5,-0.32z"/>
  <path fill="#EAC9CA" d="M255.3 13.91l-0.04 0.05 1.54 1.15 0.89 -1.2 9.34 0 -4.23 5.67 3.36 2.5c0.83,0.62 1,1.8 0.38,2.63l0 0c-0.61,0.83 -1.79,1 -2.62,0.38l-3.36 -2.5 -8.39 11.25c-0.84,1.14 -2.46,1.37 -3.59,0.53l-1.89 -1.41c-1.13,-0.84 -1.37,-2.46 -0.52,-3.59l8.39 -11.26 -1.54 -1.14 -11.01 14.77c-1.08,1.44 -3.14,1.74 -4.58,0.66l-2.41 -1.79c-1.44,-1.08 -1.74,-3.14 -0.67,-4.58l9.04 -12.12 11.91 0z"/>
  <path fill="#EAC9CA" d="M236.54 0l11.07 8.25 6.15 -8.25 11.91 0 -10.41 13.96 1.54 1.15 8.39 -11.26c0.85,-1.13 2.46,-1.37 3.6,-0.53l1.88 1.41c1.13,0.85 1.37,2.46 0.53,3.6l-8.4 11.25 3.36 2.5c0.83,0.62 1,1.8 0.38,2.63l0 0c-0.61,0.83 -1.79,1 -2.62,0.38l-3.36 -2.5 -8.39 11.25c-0.84,1.14 -2.46,1.37 -3.59,0.53l-1.89 -1.41c-1.13,-0.84 -1.37,-2.46 -0.52,-3.59l8.39 -11.26 -1.54 -1.14 -11.01 14.77c-1.08,1.44 -3.14,1.74 -4.58,0.66l-2.41 -1.79c-1.44,-1.08 -1.74,-3.14 -0.67,-4.58l11.01 -14.77 -15.1 -11.26 6.28 0z"/>
  <path fill="#EAC9CA" d="M147.81 17.52l33.2 0c1.22,1.4 2.28,3 3.12,4.77 4.82,10.11 -0.98,18.52 -10.59,23.1 -9.6,4.58 -19.39,3.59 -24.2,-6.52 -2.85,-5.97 -2.66,-12.56 -0.06,-17.9l-0.5 0.1c-0.26,-1.3 -0.6,-2.47 -0.97,-3.55z"/>
  <path fill="#EAC9CA" d="M158 12.27c1.67,-0.8 3.4,-1.32 5.15,-1.58 -1.04,-1.77 -1.84,-3.42 -2.54,-4.88 -1.53,-3.19 -2.35,-4.92 -6.67,-2.83 -5.09,2.46 -4.45,3.7 -3.06,6.41 0.83,1.62 1.81,3.52 2.65,5.88 1.31,-1.19 2.81,-2.21 4.47,-3zm-11.27 -12.27l17.84 0c0.51,0.95 1.02,2.01 1.57,3.17 1.1,2.29 2.45,5.11 4.77,7.97 5.53,1.48 10.48,5.41 13.22,11.15 4.82,10.11 -0.98,18.52 -10.59,23.1 -9.6,4.58 -19.39,3.59 -24.2,-6.52 -2.85,-5.97 -2.66,-12.56 -0.06,-17.9l-0.5 0.1c-0.78,-3.87 -2.23,-6.69 -3.36,-8.89 -2.78,-5.4 -4.31,-8.38 1.31,-12.18z"/>
  <path fill="#EAC9CA" fill-rule="nonzero" d="M213.89 17.52l-2.42 0 0 0 0 -0.23 -0.02 -0.23 -0.03 -0.23 -0.04 -0.22 -0.05 -0.21 -0.06 -0.22 -0.07 -0.21 -0.08 -0.2 -0.09 -0.2 -0.1 -0.19 -0.11 -0.19 -0.11 -0.18 -0.13 -0.18 -0.13 -0.16 -0.14 -0.17 -0.15 -0.16 -0.16 -0.14 -0.16 -0.14 -0.17 -0.14 -0.18 -0.12 -0.18 -0.12 -0.18 -0.11 -0.2 -0.1 -0.2 -0.09 -0.2 -0.08 -0.21 -0.07 -0.21 -0.06 -0.22 -0.05 -0.22 -0.04 -0.22 -0.03 -0.23 -0.01 -0.23 -0.01 0 -2.42 0.35 0.01 0.35 0.03 0.35 0.04 0.34 0.06 0.33 0.08 0.33 0.09 0.32 0.11 0.32 0.12 0.3 0.14 0.3 0.15 0.29 0.17 0.28 0.18 0.27 0.19 0.26 0.21 0.25 0.21 0.24 0.23 0.23 0.24 0.22 0.25 0.2 0.27 0.19 0.26 0.18 0.28 0.17 0.3 0.15 0.29 0.14 0.31 0.13 0.31 0.1 0.32 0.1 0.33 0.08 0.34 0.06 0.34 0.04 0.34 0.03 0.35 0 0.36 0 0zm-6.9 6.91l0 -2.42 0 0 0.23 -0.01 0.23 -0.02 0.22 -0.03 0.22 -0.04 0.22 -0.05 0.21 -0.06 0.21 -0.07 0.2 -0.08 0.2 -0.09 0.2 -0.1 0.18 -0.1 0.18 -0.12 0.18 -0.12 0.17 -0.14 0.16 -0.14 0.16 -0.15 0.15 -0.16 0.14 -0.16 0.13 -0.17 0.13 -0.17 0.11 -0.19 0.11 -0.18 0.1 -0.2 0.09 -0.2 0.08 -0.2 0.07 -0.21 0.06 -0.21 0.05 -0.22 0.04 -0.22 0.03 -0.22 0.02 -0.23 0 -0.23 2.42 0 0 0.35 -0.03 0.35 -0.04 0.35 -0.06 0.34 -0.08 0.33 -0.1 0.33 -0.1 0.32 -0.13 0.32 -0.14 0.3 -0.15 0.3 -0.17 0.29 -0.18 0.28 -0.19 0.27 -0.2 0.26 -0.22 0.25 -0.23 0.24 -0.24 0.23 -0.25 0.22 -0.26 0.2 -0.27 0.2 -0.28 0.18 -0.29 0.16 -0.3 0.15 -0.3 0.14 -0.32 0.13 -0.32 0.11 -0.33 0.09 -0.33 0.08 -0.34 0.06 -0.35 0.04 -0.35 0.03 -0.35 0.01 0 0zm-6.91 -6.91l2.42 0 0 0 0.01 0.23 0.01 0.23 0.03 0.22 0.04 0.22 0.05 0.22 0.06 0.21 0.07 0.21 0.08 0.2 0.09 0.2 0.1 0.2 0.11 0.18 0.12 0.19 0.12 0.17 0.13 0.17 0.14 0.16 0.16 0.16 0.15 0.15 0.16 0.14 0.17 0.13 0.18 0.13 0.18 0.12 0.19 0.1 0.19 0.1 0.2 0.09 0.2 0.08 0.21 0.07 0.21 0.06 0.22 0.05 0.22 0.04 0.23 0.03 0.23 0.02 0.23 0.01 0 2.42 -0.36 -0.01 -0.35 -0.03 -0.34 -0.04 -0.34 -0.06 -0.34 -0.08 -0.33 -0.09 -0.32 -0.11 -0.31 -0.13 -0.31 -0.14 -0.3 -0.15 -0.29 -0.17 -0.28 -0.17 -0.27 -0.2 -0.26 -0.2 -0.25 -0.22 -0.24 -0.23 -0.23 -0.24 -0.21 -0.25 -0.21 -0.26 -0.19 -0.27 -0.18 -0.28 -0.17 -0.29 -0.15 -0.3 -0.14 -0.3 -0.12 -0.32 -0.11 -0.32 -0.09 -0.33 -0.08 -0.33 -0.06 -0.34 -0.05 -0.35 -0.02 -0.35 -0.01 -0.35 0 0zm6.91 -6.91l0 2.42 0 0 -0.23 0.01 -0.23 0.01 -0.23 0.03 -0.22 0.04 -0.22 0.05 -0.21 0.06 -0.21 0.07 -0.2 0.08 -0.2 0.09 -0.19 0.1 -0.19 0.11 -0.18 0.12 -0.18 0.12 -0.17 0.14 -0.16 0.14 -0.15 0.14 -0.16 0.16 -0.14 0.17 -0.13 0.16 -0.12 0.18 -0.12 0.18 -0.11 0.19 -0.1 0.19 -0.09 0.2 -0.08 0.2 -0.07 0.21 -0.06 0.22 -0.05 0.21 -0.04 0.22 -0.03 0.23 -0.01 0.23 -0.01 0.23 -2.42 0 0.01 -0.36 0.02 -0.35 0.05 -0.34 0.06 -0.34 0.08 -0.34 0.09 -0.33 0.11 -0.32 0.12 -0.31 0.14 -0.31 0.15 -0.29 0.17 -0.3 0.18 -0.28 0.19 -0.26 0.21 -0.27 0.21 -0.25 0.23 -0.24 0.24 -0.23 0.25 -0.21 0.26 -0.21 0.27 -0.19 0.28 -0.18 0.29 -0.17 0.3 -0.15 0.31 -0.14 0.31 -0.12 0.32 -0.11 0.33 -0.09 0.34 -0.08 0.34 -0.06 0.34 -0.04 0.35 -0.03 0.36 -0.01 0 0z"/>
</svg>
