<svg xmlns="http://www.w3.org/2000/svg" xml:space="preserve" width="373px" height="200px" version="1.1" style="shape-rendering:geometricPrecision; text-rendering:geometricPrecision; image-rendering:optimizeQuality; fill-rule:evenodd; clip-rule:evenodd" viewBox="0 0 373 200"  xmlns:xlink="http://www.w3.org/1999/xlink">
  <path fill="#F9D5D7" d="M11.21 0.5l350.58 0c6.17,0 11.21,5.04 11.21,11.21l0 177.23c0,6.16 -5.04,11.21 -11.21,11.21l-350.58 0c-6.17,0 -11.21,-5.05 -11.21,-11.21l0 -177.23c0,-6.17 5.04,-11.21 11.21,-11.21z"/>
  <path fill="#F9D5D7" d="M11.21 0.5l350.58 0c6.17,0 11.21,5.04 11.21,11.21l0 177.23c0,6.16 -5.04,11.21 -11.21,11.21l-350.58 0c-6.17,0 -11.21,-5.05 -11.21,-11.21l0 -177.23c0,-6.17 5.04,-11.21 11.21,-11.21zm86.31 53.11l177.96 0c5.93,0 10.77,4.85 10.77,10.77l0 71.88c0,5.93 -4.84,10.77 -10.77,10.77l-177.96 0c-5.93,0 -10.77,-4.84 -10.77,-10.77l0 -71.88c0,-5.92 4.84,-10.77 10.77,-10.77z"/>
  <path fill="#E4C0C1" fill-rule="nonzero" d="M257.94 21.92l-2.42 0 0 0 -0.01 -0.23 -0.01 -0.23 -0.03 -0.23 -0.04 -0.22 -0.05 -0.21 -0.06 -0.22 -0.07 -0.2 -0.08 -0.21 -0.09 -0.2 -0.1 -0.19 -0.11 -0.19 -0.12 -0.18 -0.12 -0.17 -0.13 -0.17 -0.15 -0.17 -0.14 -0.15 -0.16 -0.15 -0.16 -0.15 -0.17 -0.13 -0.18 -0.12 -0.18 -0.12 -0.19 -0.11 -0.19 -0.1 -0.2 -0.09 -0.2 -0.08 -0.21 -0.07 -0.21 -0.06 -0.22 -0.05 -0.22 -0.03 -0.23 -0.03 -0.23 -0.02 -0.23 -0.01 0 -2.42 0.36 0.01 0.35 0.03 0.34 0.04 0.34 0.06 0.34 0.08 0.33 0.09 0.32 0.11 0.31 0.12 0.31 0.14 0.29 0.15 0.3 0.17 0.28 0.18 0.27 0.19 0.26 0.21 0.25 0.21 0.24 0.23 0.23 0.24 0.21 0.25 0.21 0.26 0.19 0.27 0.18 0.28 0.17 0.3 0.15 0.29 0.14 0.31 0.12 0.31 0.11 0.32 0.09 0.33 0.08 0.34 0.06 0.34 0.05 0.34 0.02 0.35 0.01 0.36 0 0zm-6.91 6.91l0 -2.43 0 0 0.23 0 0.23 -0.02 0.23 -0.03 0.22 -0.04 0.22 -0.05 0.21 -0.06 0.21 -0.07 0.2 -0.08 0.2 -0.09 0.19 -0.1 0.19 -0.1 0.18 -0.12 0.18 -0.13 0.17 -0.13 0.16 -0.14 0.16 -0.15 0.14 -0.16 0.15 -0.16 0.13 -0.17 0.12 -0.17 0.12 -0.19 0.11 -0.18 0.1 -0.2 0.09 -0.2 0.08 -0.2 0.07 -0.21 0.06 -0.21 0.05 -0.22 0.04 -0.22 0.03 -0.22 0.01 -0.23 0.01 -0.23 2.42 0 -0.01 0.35 -0.02 0.35 -0.05 0.35 -0.06 0.34 -0.08 0.33 -0.09 0.33 -0.11 0.32 -0.12 0.32 -0.14 0.3 -0.15 0.3 -0.17 0.29 -0.18 0.28 -0.19 0.27 -0.21 0.26 -0.21 0.25 -0.23 0.24 -0.24 0.23 -0.25 0.22 -0.26 0.2 -0.27 0.2 -0.28 0.18 -0.3 0.16 -0.29 0.15 -0.31 0.14 -0.31 0.13 -0.32 0.11 -0.33 0.09 -0.34 0.08 -0.34 0.06 -0.34 0.04 -0.35 0.03 -0.36 0.01 0 0zm-6.91 -6.91l2.43 0 0 0 0 0.23 0.02 0.23 0.03 0.22 0.04 0.22 0.05 0.22 0.06 0.21 0.07 0.21 0.08 0.2 0.09 0.2 0.1 0.2 0.1 0.18 0.12 0.19 0.13 0.17 0.13 0.17 0.14 0.16 0.15 0.16 0.16 0.15 0.16 0.14 0.17 0.13 0.18 0.13 0.18 0.12 0.18 0.1 0.2 0.1 0.2 0.09 0.2 0.08 0.21 0.07 0.21 0.06 0.22 0.05 0.22 0.04 0.22 0.03 0.23 0.02 0.23 0 0 2.43 -0.35 -0.01 -0.35 -0.03 -0.35 -0.04 -0.34 -0.06 -0.33 -0.08 -0.33 -0.09 -0.32 -0.11 -0.32 -0.13 -0.3 -0.14 -0.3 -0.15 -0.29 -0.16 -0.28 -0.18 -0.27 -0.2 -0.26 -0.2 -0.25 -0.22 -0.24 -0.23 -0.23 -0.24 -0.22 -0.25 -0.2 -0.26 -0.2 -0.27 -0.17 -0.28 -0.17 -0.29 -0.15 -0.3 -0.14 -0.3 -0.13 -0.32 -0.1 -0.32 -0.1 -0.33 -0.08 -0.33 -0.06 -0.34 -0.04 -0.35 -0.03 -0.35 -0.01 -0.35 0 0zm6.91 -6.91l0 2.42 0 0 -0.23 0.01 -0.23 0.02 -0.22 0.03 -0.22 0.03 -0.22 0.05 -0.21 0.06 -0.21 0.07 -0.2 0.08 -0.2 0.09 -0.2 0.1 -0.18 0.11 -0.18 0.12 -0.18 0.12 -0.17 0.13 -0.16 0.15 -0.16 0.15 -0.15 0.15 -0.14 0.17 -0.13 0.17 -0.13 0.17 -0.12 0.18 -0.1 0.19 -0.1 0.19 -0.09 0.2 -0.08 0.21 -0.07 0.2 -0.06 0.22 -0.05 0.21 -0.04 0.22 -0.03 0.23 -0.02 0.23 0 0.23 -2.43 0 0.01 -0.36 0.03 -0.35 0.04 -0.34 0.06 -0.34 0.08 -0.34 0.1 -0.33 0.1 -0.32 0.13 -0.31 0.14 -0.31 0.15 -0.29 0.17 -0.3 0.17 -0.28 0.2 -0.27 0.2 -0.26 0.22 -0.25 0.23 -0.24 0.24 -0.23 0.25 -0.21 0.26 -0.21 0.27 -0.19 0.28 -0.18 0.29 -0.17 0.3 -0.15 0.3 -0.14 0.32 -0.12 0.32 -0.11 0.33 -0.09 0.33 -0.08 0.34 -0.06 0.35 -0.04 0.35 -0.03 0.35 -0.01 0 0z"/>
  <path fill="#EAC9CA" d="M66.32 78.78c2.29,0 4.15,1.86 4.15,4.15 0,2.3 -1.86,4.16 -4.15,4.16 -2.3,0 -4.16,-1.86 -4.16,-4.16 0,-2.29 1.86,-4.15 4.16,-4.15z"/>
  <path fill="#EAC9CA" d="M133.93 30.8c2.3,0 4.15,1.86 4.15,4.15 0,2.29 -1.85,4.15 -4.15,4.15 -2.29,0 -4.15,-1.86 -4.15,-4.15 0,-2.29 1.86,-4.15 4.15,-4.15z"/>
  <path fill="#EAC9CA" d="M90.42 177.97c2.29,0 4.15,1.86 4.15,4.15 0,2.29 -1.86,4.15 -4.15,4.15 -2.29,0 -4.15,-1.86 -4.15,-4.15 0,-2.29 1.86,-4.15 4.15,-4.15z"/>
  <path fill="#EAC9CA" d="M305.86 14.38c2.29,0 4.15,1.86 4.15,4.15 0,2.3 -1.86,4.16 -4.15,4.16 -2.3,0 -4.16,-1.86 -4.16,-4.16 0,-2.29 1.86,-4.15 4.16,-4.15z"/>
  <path fill="#EAC9CA" d="M308.47 109.64c2.29,0 4.15,1.86 4.15,4.15 0,2.3 -1.86,4.16 -4.15,4.16 -2.29,0 -4.15,-1.86 -4.15,-4.16 0,-2.29 1.86,-4.15 4.15,-4.15z"/>
  <path fill="#EAC9CA" d="M234.2 166.56c2.29,0 4.15,1.85 4.15,4.15 0,2.29 -1.86,4.15 -4.15,4.15 -2.29,0 -4.15,-1.86 -4.15,-4.15 0,-2.3 1.86,-4.15 4.15,-4.15z"/>
  <path fill="#EAC9CA" fill-rule="nonzero" d="M196.04 163.11l-2.42 0 0 0 -0.01 -0.24 -0.02 -0.22 -0.03 -0.23 -0.04 -0.22 -0.05 -0.22 -0.06 -0.21 -0.07 -0.21 -0.08 -0.2 -0.09 -0.2 -0.1 -0.19 -0.1 -0.19 -0.12 -0.18 -0.12 -0.18 -0.14 -0.17 -0.14 -0.16 -0.15 -0.16 -0.16 -0.15 -0.16 -0.14 -0.17 -0.13 -0.17 -0.12 -0.19 -0.12 -0.18 -0.11 -0.2 -0.1 -0.2 -0.09 -0.2 -0.08 -0.21 -0.07 -0.21 -0.06 -0.21 -0.05 -0.22 -0.04 -0.23 -0.03 -0.23 -0.02 -0.23 0 0 -2.42 0.35 0.01 0.36 0.02 0.34 0.05 0.34 0.06 0.34 0.07 0.32 0.1 0.32 0.11 0.32 0.12 0.3 0.14 0.3 0.15 0.29 0.17 0.28 0.18 0.27 0.19 0.26 0.21 0.25 0.21 0.24 0.23 0.23 0.24 0.22 0.25 0.2 0.26 0.2 0.27 0.18 0.28 0.16 0.29 0.16 0.3 0.13 0.31 0.13 0.31 0.11 0.32 0.09 0.33 0.08 0.34 0.06 0.34 0.04 0.34 0.03 0.35 0.01 0.36 0 0zm-6.91 6.9l0 -2.42 0 0 0.23 0 0.23 -0.02 0.23 -0.03 0.22 -0.04 0.21 -0.05 0.21 -0.06 0.21 -0.07 0.2 -0.08 0.2 -0.09 0.2 -0.1 0.18 -0.11 0.19 -0.11 0.17 -0.13 0.17 -0.13 0.17 -0.15 0.15 -0.14 0.15 -0.16 0.14 -0.16 0.14 -0.17 0.12 -0.18 0.12 -0.18 0.1 -0.19 0.1 -0.19 0.09 -0.2 0.08 -0.2 0.07 -0.21 0.06 -0.21 0.05 -0.22 0.04 -0.22 0.03 -0.23 0.02 -0.22 0.01 -0.23 2.42 0 -0.01 0.35 -0.03 0.35 -0.04 0.35 -0.06 0.34 -0.08 0.33 -0.09 0.33 -0.11 0.32 -0.13 0.31 -0.13 0.31 -0.16 0.3 -0.16 0.29 -0.18 0.28 -0.2 0.27 -0.2 0.26 -0.22 0.25 -0.23 0.24 -0.24 0.23 -0.25 0.22 -0.26 0.2 -0.27 0.19 -0.28 0.18 -0.29 0.17 -0.3 0.15 -0.3 0.14 -0.32 0.12 -0.32 0.11 -0.32 0.1 -0.34 0.07 -0.34 0.06 -0.34 0.05 -0.36 0.02 -0.35 0.01 0 0zm-6.91 -6.9l2.42 0 0 0 0.01 0.23 0.02 0.22 0.03 0.23 0.03 0.22 0.05 0.22 0.06 0.21 0.07 0.21 0.08 0.2 0.1 0.2 0.09 0.19 0.11 0.19 0.12 0.18 0.12 0.18 0.14 0.17 0.14 0.16 0.15 0.16 0.15 0.14 0.17 0.15 0.16 0.13 0.18 0.13 0.18 0.11 0.19 0.11 0.2 0.1 0.19 0.09 0.2 0.08 0.22 0.07 0.21 0.06 0.21 0.05 0.22 0.04 0.23 0.03 0.23 0.02 0.23 0 0 2.42 -0.36 -0.01 -0.35 -0.02 -0.34 -0.05 -0.34 -0.06 -0.34 -0.07 -0.32 -0.1 -0.32 -0.11 -0.32 -0.12 -0.31 -0.14 -0.29 -0.15 -0.29 -0.17 -0.28 -0.18 -0.27 -0.19 -0.27 -0.2 -0.24 -0.22 -0.24 -0.23 -0.24 -0.24 -0.21 -0.25 -0.21 -0.26 -0.19 -0.27 -0.18 -0.28 -0.17 -0.29 -0.15 -0.3 -0.14 -0.31 -0.12 -0.31 -0.11 -0.32 -0.09 -0.33 -0.08 -0.33 -0.06 -0.34 -0.04 -0.35 -0.03 -0.35 -0.01 -0.35 0 0zm6.91 -6.91l0 2.42 0 0 -0.23 0 -0.23 0.02 -0.23 0.03 -0.22 0.04 -0.21 0.05 -0.21 0.06 -0.22 0.07 -0.2 0.08 -0.19 0.09 -0.2 0.1 -0.19 0.11 -0.18 0.12 -0.18 0.12 -0.16 0.13 -0.17 0.14 -0.15 0.15 -0.15 0.16 -0.14 0.16 -0.14 0.17 -0.12 0.18 -0.12 0.18 -0.11 0.19 -0.09 0.19 -0.1 0.2 -0.08 0.2 -0.07 0.21 -0.06 0.21 -0.05 0.22 -0.03 0.22 -0.03 0.23 -0.02 0.22 -0.01 0.24 -2.42 0 0.01 -0.36 0.03 -0.35 0.04 -0.34 0.06 -0.34 0.08 -0.34 0.09 -0.33 0.11 -0.32 0.12 -0.31 0.14 -0.31 0.15 -0.3 0.17 -0.29 0.18 -0.28 0.19 -0.27 0.21 -0.26 0.21 -0.25 0.24 -0.24 0.23 -0.23 0.25 -0.21 0.27 -0.21 0.27 -0.19 0.28 -0.18 0.29 -0.17 0.29 -0.15 0.31 -0.14 0.32 -0.12 0.32 -0.11 0.32 -0.1 0.34 -0.07 0.34 -0.06 0.34 -0.05 0.35 -0.02 0.36 -0.01 0 0z"/>
  <path fill="#EAC9CA" fill-rule="nonzero" d="M286.24 51.02c1.91,0 3.64,0.78 4.89,2.03 1.25,1.25 2.02,2.98 2.02,4.88 0,1.91 -0.77,3.64 -2.02,4.89 -1.25,1.25 -2.97,2.02 -4.88,2.02l0 -0.46c0,-0.67 -0.06,-1.33 -0.18,-1.96 0.06,0 0.12,0 0.17,0 1.24,0 2.37,-0.5 3.18,-1.31 0.81,-0.82 1.31,-1.94 1.31,-3.18 0,-1.24 -0.5,-2.36 -1.31,-3.17 -0.81,-0.81 -1.94,-1.31 -3.18,-1.31 -1.23,0 -2.36,0.5 -3.17,1.31 -0.35,0.35 -0.65,0.77 -0.87,1.22 -0.63,-0.5 -1.32,-0.94 -2.05,-1.3 0.32,-0.6 0.73,-1.15 1.21,-1.63 1.25,-1.25 2.98,-2.03 4.88,-2.03z"/>
  <path fill="#EAC9CA" fill-rule="nonzero" d="M356.13 94.44l-2.42 0 0 0 -0.01 -0.23 -0.02 -0.22 -0.03 -0.23 -0.03 -0.22 -0.05 -0.22 -0.06 -0.21 -0.08 -0.21 -0.07 -0.2 -0.1 -0.2 -0.09 -0.2 -0.11 -0.18 -0.12 -0.18 -0.12 -0.18 -0.14 -0.17 -0.14 -0.16 -0.15 -0.16 -0.15 -0.15 -0.17 -0.14 -0.17 -0.13 -0.17 -0.13 -0.18 -0.12 -0.19 -0.1 -0.2 -0.1 -0.19 -0.09 -0.2 -0.08 -0.22 -0.07 -0.21 -0.06 -0.21 -0.05 -0.22 -0.04 -0.23 -0.03 -0.23 -0.02 -0.23 0 0 -2.42 0.36 0 0.35 0.03 0.34 0.04 0.34 0.06 0.34 0.08 0.32 0.1 0.32 0.1 0.32 0.13 0.31 0.14 0.29 0.15 0.29 0.17 0.28 0.18 0.28 0.19 0.26 0.2 0.24 0.22 0.25 0.23 0.23 0.24 0.21 0.25 0.21 0.26 0.19 0.27 0.18 0.28 0.17 0.29 0.15 0.3 0.14 0.3 0.12 0.32 0.11 0.32 0.09 0.33 0.08 0.33 0.06 0.34 0.04 0.35 0.03 0.35 0.01 0.35 0 0zm-6.91 6.91l0 -2.42 0 0 0.23 -0.01 0.23 -0.01 0.23 -0.03 0.22 -0.04 0.21 -0.05 0.21 -0.06 0.22 -0.07 0.2 -0.08 0.19 -0.09 0.2 -0.1 0.19 -0.11 0.18 -0.12 0.17 -0.12 0.17 -0.13 0.17 -0.15 0.15 -0.14 0.15 -0.16 0.14 -0.16 0.14 -0.17 0.12 -0.18 0.12 -0.18 0.11 -0.19 0.09 -0.19 0.1 -0.2 0.07 -0.2 0.08 -0.21 0.06 -0.21 0.05 -0.22 0.03 -0.22 0.03 -0.23 0.02 -0.22 0.01 -0.24 2.42 0 -0.01 0.36 -0.03 0.35 -0.04 0.34 -0.06 0.34 -0.08 0.34 -0.09 0.33 -0.11 0.32 -0.12 0.31 -0.14 0.31 -0.15 0.3 -0.17 0.29 -0.18 0.28 -0.19 0.27 -0.21 0.26 -0.21 0.25 -0.23 0.24 -0.25 0.23 -0.24 0.21 -0.26 0.21 -0.28 0.19 -0.28 0.18 -0.29 0.17 -0.29 0.15 -0.31 0.14 -0.32 0.12 -0.32 0.11 -0.32 0.09 -0.34 0.08 -0.34 0.06 -0.34 0.05 -0.35 0.02 -0.36 0.01 0 0zm-6.91 -6.91l2.42 0 0 0 0.01 0.24 0.02 0.22 0.03 0.23 0.04 0.22 0.05 0.22 0.06 0.21 0.07 0.21 0.08 0.2 0.09 0.2 0.1 0.19 0.1 0.19 0.12 0.18 0.12 0.18 0.14 0.17 0.14 0.16 0.15 0.16 0.15 0.14 0.17 0.15 0.17 0.13 0.17 0.12 0.19 0.12 0.18 0.11 0.2 0.1 0.2 0.09 0.2 0.08 0.21 0.07 0.21 0.06 0.21 0.05 0.22 0.04 0.23 0.03 0.23 0.01 0.23 0.01 0 2.42 -0.35 -0.01 -0.36 -0.02 -0.34 -0.05 -0.34 -0.06 -0.34 -0.08 -0.32 -0.09 -0.32 -0.11 -0.32 -0.12 -0.3 -0.14 -0.3 -0.15 -0.29 -0.17 -0.28 -0.18 -0.27 -0.19 -0.26 -0.21 -0.25 -0.21 -0.24 -0.23 -0.23 -0.24 -0.22 -0.25 -0.2 -0.26 -0.2 -0.27 -0.18 -0.28 -0.16 -0.29 -0.16 -0.3 -0.13 -0.31 -0.13 -0.31 -0.11 -0.32 -0.09 -0.33 -0.08 -0.34 -0.06 -0.34 -0.04 -0.34 -0.03 -0.35 -0.01 -0.36 0 0zm6.91 -6.9l0 2.42 0 0 -0.23 0 -0.23 0.02 -0.23 0.03 -0.22 0.04 -0.21 0.05 -0.21 0.06 -0.21 0.07 -0.2 0.08 -0.2 0.09 -0.2 0.1 -0.18 0.1 -0.19 0.12 -0.17 0.13 -0.17 0.13 -0.17 0.14 -0.15 0.15 -0.15 0.16 -0.14 0.16 -0.14 0.17 -0.12 0.18 -0.12 0.18 -0.1 0.18 -0.1 0.2 -0.09 0.2 -0.08 0.2 -0.07 0.21 -0.06 0.21 -0.05 0.22 -0.04 0.22 -0.03 0.23 -0.02 0.22 -0.01 0.23 -2.42 0 0.01 -0.35 0.03 -0.35 0.04 -0.35 0.06 -0.34 0.08 -0.33 0.09 -0.33 0.11 -0.32 0.13 -0.32 0.13 -0.3 0.16 -0.3 0.16 -0.29 0.18 -0.28 0.2 -0.27 0.2 -0.26 0.22 -0.25 0.23 -0.24 0.24 -0.23 0.25 -0.22 0.26 -0.2 0.27 -0.19 0.28 -0.18 0.29 -0.17 0.3 -0.15 0.3 -0.14 0.32 -0.13 0.32 -0.1 0.32 -0.1 0.34 -0.08 0.34 -0.06 0.34 -0.04 0.36 -0.03 0.35 0 0 0z"/>
  <path fill="#EAC9CA" fill-rule="nonzero" d="M100.46 21.11l-2.42 0 0 0 0 -0.23 -0.02 -0.23 -0.03 -0.23 -0.04 -0.22 -0.05 -0.21 -0.06 -0.22 -0.07 -0.2 -0.08 -0.21 -0.09 -0.2 -0.1 -0.19 -0.1 -0.19 -0.12 -0.18 -0.13 -0.17 -0.13 -0.17 -0.14 -0.17 -0.15 -0.15 -0.16 -0.15 -0.16 -0.15 -0.17 -0.13 -0.18 -0.12 -0.18 -0.12 -0.18 -0.11 -0.2 -0.1 -0.2 -0.09 -0.2 -0.08 -0.21 -0.07 -0.21 -0.06 -0.22 -0.05 -0.22 -0.04 -0.23 -0.02 -0.22 -0.02 -0.23 -0.01 0 -2.42 0.35 0.01 0.35 0.03 0.35 0.04 0.34 0.06 0.33 0.08 0.33 0.09 0.32 0.11 0.32 0.12 0.3 0.14 0.3 0.15 0.29 0.17 0.28 0.18 0.27 0.19 0.26 0.21 0.25 0.21 0.24 0.23 0.23 0.24 0.22 0.25 0.2 0.26 0.19 0.27 0.18 0.28 0.17 0.3 0.15 0.29 0.14 0.31 0.13 0.31 0.1 0.32 0.1 0.33 0.08 0.34 0.06 0.34 0.04 0.34 0.03 0.35 0 0.36 0 0zm-6.9 6.91l0 -2.43 0 0 0.23 0 0.22 -0.02 0.23 -0.03 0.22 -0.04 0.22 -0.05 0.21 -0.06 0.21 -0.07 0.2 -0.08 0.2 -0.09 0.2 -0.1 0.18 -0.1 0.18 -0.12 0.18 -0.13 0.17 -0.13 0.16 -0.14 0.16 -0.15 0.15 -0.16 0.14 -0.16 0.13 -0.17 0.13 -0.17 0.12 -0.19 0.1 -0.18 0.1 -0.2 0.09 -0.2 0.08 -0.2 0.07 -0.21 0.06 -0.21 0.05 -0.22 0.04 -0.22 0.03 -0.22 0.02 -0.23 0 -0.23 2.42 0 0 0.35 -0.03 0.35 -0.04 0.35 -0.06 0.34 -0.08 0.33 -0.1 0.33 -0.1 0.32 -0.13 0.32 -0.14 0.3 -0.15 0.3 -0.17 0.29 -0.18 0.28 -0.19 0.27 -0.2 0.26 -0.22 0.25 -0.23 0.24 -0.24 0.23 -0.25 0.22 -0.26 0.2 -0.27 0.2 -0.28 0.18 -0.29 0.16 -0.3 0.15 -0.3 0.14 -0.32 0.13 -0.32 0.11 -0.33 0.09 -0.33 0.08 -0.34 0.06 -0.35 0.04 -0.35 0.03 -0.35 0.01 0 0zm-6.91 -6.91l2.42 0 0 0 0.01 0.23 0.01 0.23 0.03 0.22 0.04 0.22 0.05 0.22 0.06 0.21 0.07 0.21 0.08 0.2 0.09 0.2 0.1 0.2 0.11 0.18 0.12 0.19 0.12 0.17 0.13 0.17 0.15 0.16 0.14 0.16 0.16 0.15 0.16 0.14 0.17 0.13 0.18 0.13 0.18 0.12 0.19 0.1 0.19 0.1 0.2 0.09 0.2 0.08 0.21 0.07 0.21 0.06 0.22 0.05 0.22 0.04 0.23 0.03 0.23 0.02 0.23 0 0 2.43 -0.36 -0.01 -0.35 -0.03 -0.34 -0.04 -0.34 -0.06 -0.34 -0.08 -0.33 -0.09 -0.32 -0.11 -0.31 -0.13 -0.31 -0.14 -0.3 -0.15 -0.29 -0.16 -0.28 -0.18 -0.27 -0.2 -0.26 -0.2 -0.25 -0.22 -0.24 -0.23 -0.23 -0.24 -0.21 -0.25 -0.21 -0.26 -0.19 -0.27 -0.18 -0.28 -0.17 -0.29 -0.15 -0.3 -0.14 -0.3 -0.12 -0.32 -0.11 -0.32 -0.09 -0.33 -0.08 -0.33 -0.06 -0.34 -0.05 -0.35 -0.02 -0.35 -0.01 -0.35 0 0zm6.91 -6.91l0 2.42 0 0 -0.23 0.01 -0.23 0.02 -0.23 0.02 -0.22 0.04 -0.22 0.05 -0.21 0.06 -0.21 0.07 -0.2 0.08 -0.2 0.09 -0.19 0.1 -0.19 0.11 -0.18 0.12 -0.18 0.12 -0.17 0.13 -0.16 0.15 -0.16 0.15 -0.14 0.15 -0.15 0.17 -0.13 0.17 -0.12 0.17 -0.12 0.18 -0.11 0.19 -0.1 0.19 -0.09 0.2 -0.08 0.21 -0.07 0.2 -0.06 0.22 -0.05 0.21 -0.04 0.22 -0.03 0.23 -0.01 0.23 -0.01 0.23 -2.42 0 0.01 -0.36 0.02 -0.35 0.05 -0.34 0.06 -0.34 0.08 -0.34 0.09 -0.33 0.11 -0.32 0.12 -0.31 0.14 -0.31 0.15 -0.29 0.17 -0.3 0.18 -0.28 0.19 -0.27 0.21 -0.26 0.21 -0.25 0.23 -0.24 0.24 -0.23 0.25 -0.21 0.26 -0.21 0.27 -0.19 0.28 -0.18 0.29 -0.17 0.3 -0.15 0.31 -0.14 0.31 -0.12 0.32 -0.11 0.33 -0.09 0.34 -0.08 0.34 -0.06 0.34 -0.04 0.35 -0.03 0.36 -0.01 0 0z"/>
  <path fill="#EAC9CA" d="M353.09 38.7l-3.05 9.41c0.02,0.12 0.01,0.23 -0.02,0.33 -0.03,0.1 -0.09,0.2 -0.18,0.28l-6.72 20.73c0,0.18 -0.03,0.36 -0.08,0.53 -0.06,0.17 -0.14,0.33 -0.25,0.48l0 0 0 0c-1.41,1.98 -7.22,1.99 -13.59,-0.07 -6.37,-2.07 -11.06,-5.48 -11.05,-7.92l0 0 0 0c0,-0.18 0.03,-0.36 0.09,-0.53 0.05,-0.17 0.13,-0.33 0.24,-0.48l6.72 -20.73c-0.02,-0.12 -0.01,-0.23 0.02,-0.33 0.03,-0.1 0.09,-0.2 0.18,-0.28l3.05 -9.41c-0.01,-0.13 0,-0.27 0.04,-0.4 0.26,-0.8 1.58,-1.19 3.57,-1.18l1.29 -3.97c0.33,-1.01 1.42,-1.57 2.43,-1.24l0.16 0.05c2.14,-2.85 5.64,-1.21 6.95,-2.99 0.9,-1.44 -0.63,-2.27 0.14,-4.64 0.53,-1.65 2.46,-2.49 4.31,-1.9 1.85,0.6 2.91,2.42 2.38,4.07 -0.77,2.37 -2.24,1.89 -2.62,3.88 -0.09,2.37 3.76,2.97 3.87,6.45l0.17 0.06c1.01,0.32 1.57,1.42 1.24,2.43l-1.29 3.97c1.62,1.16 2.46,2.25 2.2,3.06 -0.04,0.12 -0.11,0.24 -0.2,0.34z"/>
  <path fill="#EAC9CA" d="M186.53 10.11c8.25,-2.95 15.93,-3.74 19.73,-2.33l0.01 0c2.81,0.25 3.55,5.4 4.08,6.89 0.74,2.05 -1.31,4.87 -5.13,7.63 4.68,7.5 10.73,11.64 14.69,18.55 2.46,5.94 -4.99,11.87 -10.78,6.88 -4.24,-5.51 -5.75,-13.13 -10.45,-21.62 -1.73,0.83 -3.61,1.62 -5.59,2.33 -2.08,0.74 -4.13,1.35 -6.1,1.82 1.76,9.55 5.44,16.4 5.67,23.35l-12.92 0c-0.85,-7.27 0.87,-13.97 -0.23,-22.19 -4.6,0.25 -7.88,-0.63 -8.49,-2.66 -0.44,-1.44 -3.35,-5.49 -1.5,-7.38l0 -0.01c1.67,-3.6 8.34,-8.15 17.01,-11.26z"/>
  <path fill="#EAC9CA" fill-rule="nonzero" d="M35.58 116.01c4.42,-1.94 9.22,-1.9 13.42,-0.24 4.18,1.65 7.74,4.9 9.71,9.35 1.96,4.45 1.96,9.27 0.36,13.47 -1.61,4.22 -4.81,7.8 -9.22,9.74 -4.42,1.95 -9.22,1.9 -13.41,0.25 -4.18,-1.65 -7.75,-4.9 -9.71,-9.35 -1.97,-4.45 -1.96,-9.27 -0.36,-13.47 1.6,-4.22 4.8,-7.8 9.21,-9.75zm25.71 22.25c1.86,-0.82 4.04,0.03 4.86,1.89 0.82,1.86 -0.02,4.04 -1.88,4.86 -1.87,0.83 -4.05,-0.02 -4.87,-1.88 -0.82,-1.87 0.02,-4.04 1.89,-4.87zm-25.9 12.18c1.87,-0.83 4.04,0.02 4.87,1.88 0.82,1.87 -0.03,4.04 -1.89,4.87 -1.86,0.82 -4.04,-0.02 -4.86,-1.89 -0.83,-1.86 0.02,-4.04 1.88,-4.86zm6.89 -43.99c1.87,-0.82 4.04,0.02 4.87,1.89 0.82,1.86 -0.02,4.04 -1.89,4.86 -1.86,0.82 -4.04,-0.02 -4.86,-1.88 -0.83,-1.87 0.02,-4.05 1.88,-4.87zm-19.57 9.63c1.86,-0.82 4.04,0.02 4.87,1.89 0.82,1.86 -0.03,4.04 -1.89,4.86 -1.86,0.82 -4.04,-0.02 -4.86,-1.88 -0.83,-1.87 0.02,-4.05 1.88,-4.87zm39.36 3.72c1.87,-0.82 4.04,0.02 4.87,1.89 0.82,1.86 -0.03,4.04 -1.89,4.86 -1.86,0.83 -4.04,-0.02 -4.86,-1.88 -0.83,-1.87 0.02,-4.04 1.88,-4.87zm-42.36 17.78c1.86,-0.82 4.04,0.02 4.86,1.89 0.82,1.86 -0.02,4.04 -1.89,4.86 -1.86,0.83 -4.04,-0.02 -4.86,-1.88 -0.82,-1.87 0.02,-4.04 1.89,-4.87zm20.94 -10.08c2.58,-1.14 5.6,0.03 6.74,2.61 1.14,2.58 -0.03,5.6 -2.61,6.74 -2.58,1.14 -5.6,-0.03 -6.74,-2.61 -1.14,-2.58 0.03,-5.6 2.61,-6.74zm13.05 20.81c4.97,12.78 11.81,18.06 16.78,29.31 1.3,2.95 -0.05,6.44 -3,7.75 -0.72,0.31 -1.44,0.63 -2.15,0.94 -2.96,1.31 -6.45,-0.04 -7.75,-3 -4.96,-11.23 -4.25,-19.83 -10.4,-32.04 1.09,-0.24 2.18,-0.59 3.25,-1.06 1.17,-0.53 2.27,-1.16 3.27,-1.9zm-6.54 -27.92c-2.98,-1.17 -6.41,-1.2 -9.56,0.19 -3.16,1.39 -5.44,3.94 -6.58,6.94 -1.15,3.01 -1.15,6.48 0.27,9.7 1.42,3.21 3.98,5.55 6.98,6.73 2.98,1.18 6.41,1.21 9.56,-0.18 3.16,-1.39 5.44,-3.94 6.58,-6.94 1.15,-3.01 1.15,-6.49 -0.27,-9.7 -1.42,-3.21 -3.98,-5.55 -6.98,-6.74z"/>
  <path fill="#EAC9CA" fill-rule="nonzero" d="M49.06 115.61l-0.13 0.32 0 0 -0.39 -0.15 -0.39 -0.14 -0.4 -0.13 -0.4 -0.12 -0.4 -0.11 -0.41 -0.1 -0.41 -0.09 -0.41 -0.08 -0.41 -0.08 -0.42 -0.06 -0.41 -0.05 -0.42 -0.04 -0.42 -0.03 -0.42 -0.03 -0.42 -0.01 -0.42 0 -0.43 0.01 -0.42 0.02 -0.43 0.03 -0.42 0.04 -0.42 0.06 -0.43 0.06 -0.42 0.07 -0.42 0.09 -0.42 0.09 -0.42 0.11 -0.42 0.12 -0.42 0.13 -0.42 0.14 -0.41 0.15 -0.42 0.16 -0.41 0.18 -0.14 -0.31 0.42 -0.18 0.42 -0.17 0.43 -0.15 0.42 -0.15 0.43 -0.13 0.43 -0.12 0.43 -0.11 0.43 -0.1 0.43 -0.08 0.43 -0.08 0.43 -0.06 0.43 -0.06 0.44 -0.04 0.43 -0.03 0.43 -0.02 0.43 -0.01 0.43 0 0.43 0.01 0.43 0.02 0.43 0.03 0.42 0.05 0.43 0.05 0.42 0.06 0.42 0.08 0.42 0.08 0.42 0.09 0.41 0.11 0.41 0.11 0.41 0.12 0.41 0.14 0.4 0.14 0.4 0.15 0 0zm9.8 9.44l-0.31 0.14 0 0 -0.19 -0.41 -0.19 -0.41 -0.21 -0.39 -0.21 -0.39 -0.23 -0.38 -0.23 -0.38 -0.23 -0.36 -0.25 -0.36 -0.26 -0.35 -0.26 -0.34 -0.27 -0.34 -0.28 -0.33 -0.28 -0.32 -0.29 -0.31 -0.3 -0.31 -0.31 -0.29 -0.31 -0.29 -0.31 -0.28 -0.33 -0.27 -0.33 -0.26 -0.33 -0.26 -0.34 -0.25 -0.35 -0.23 -0.35 -0.23 -0.36 -0.22 -0.36 -0.22 -0.36 -0.2 -0.37 -0.19 -0.38 -0.19 -0.38 -0.17 -0.38 -0.17 -0.39 -0.16 0.13 -0.32 0.39 0.16 0.39 0.17 0.39 0.18 0.38 0.19 0.38 0.2 0.37 0.21 0.37 0.21 0.36 0.22 0.36 0.24 0.35 0.24 0.35 0.25 0.34 0.26 0.34 0.27 0.33 0.28 0.32 0.29 0.32 0.29 0.31 0.3 0.31 0.31 0.29 0.32 0.29 0.33 0.29 0.33 0.27 0.34 0.27 0.35 0.26 0.36 0.25 0.37 0.24 0.37 0.24 0.38 0.23 0.39 0.21 0.4 0.21 0.4 0.2 0.41 0.19 0.42 0 0zm0.37 13.6l-0.32 -0.12 0 0 0.14 -0.39 0.14 -0.4 0.12 -0.4 0.12 -0.4 0.1 -0.4 0.1 -0.41 0.08 -0.41 0.08 -0.41 0.07 -0.41 0.06 -0.42 0.04 -0.42 0.04 -0.42 0.03 -0.42 0.02 -0.42 0 -0.43 0 -0.42 -0.01 -0.42 -0.03 -0.43 -0.03 -0.42 -0.04 -0.43 -0.06 -0.43 -0.07 -0.42 -0.07 -0.43 -0.09 -0.42 -0.1 -0.43 -0.11 -0.42 -0.12 -0.42 -0.13 -0.43 -0.14 -0.42 -0.16 -0.41 -0.16 -0.42 -0.18 -0.41 0.31 -0.14 0.18 0.42 0.17 0.42 0.16 0.43 0.14 0.43 0.14 0.43 0.12 0.43 0.11 0.43 0.1 0.43 0.09 0.43 0.08 0.44 0.07 0.43 0.06 0.44 0.04 0.43 0.04 0.44 0.02 0.43 0.01 0.43 0.01 0.44 -0.01 0.43 -0.02 0.43 -0.02 0.43 -0.04 0.43 -0.05 0.42 -0.06 0.43 -0.07 0.42 -0.08 0.42 -0.09 0.42 -0.1 0.41 -0.1 0.41 -0.12 0.41 -0.13 0.41 -0.14 0.4 -0.14 0.4 0 0zm-9.31 9.84l-0.14 -0.31 0 0 0.41 -0.19 0.4 -0.19 0.39 -0.21 0.38 -0.21 0.38 -0.22 0.37 -0.23 0.36 -0.24 0.36 -0.25 0.34 -0.25 0.34 -0.26 0.34 -0.27 0.32 -0.28 0.32 -0.29 0.3 -0.29 0.3 -0.3 0.3 -0.3 0.28 -0.32 0.28 -0.32 0.26 -0.32 0.26 -0.33 0.25 -0.34 0.25 -0.34 0.23 -0.35 0.22 -0.35 0.22 -0.36 0.21 -0.37 0.2 -0.37 0.19 -0.37 0.18 -0.37 0.17 -0.39 0.16 -0.38 0.16 -0.39 0.32 0.12 -0.16 0.4 -0.16 0.39 -0.18 0.39 -0.18 0.38 -0.2 0.39 -0.2 0.37 -0.21 0.37 -0.22 0.37 -0.23 0.36 -0.24 0.35 -0.25 0.35 -0.25 0.35 -0.27 0.33 -0.27 0.34 -0.28 0.32 -0.29 0.32 -0.3 0.31 -0.31 0.31 -0.31 0.29 -0.32 0.29 -0.33 0.29 -0.34 0.27 -0.35 0.27 -0.35 0.26 -0.37 0.25 -0.37 0.25 -0.37 0.23 -0.39 0.23 -0.39 0.22 -0.4 0.2 -0.41 0.2 -0.41 0.19 0 0zm-13.55 0.25l0.13 -0.32 0 0 0.39 0.15 0.4 0.14 0.39 0.13 0.4 0.12 0.41 0.11 0.4 0.1 0.41 0.09 0.41 0.08 0.41 0.08 0.42 0.06 0.42 0.05 0.41 0.04 0.42 0.03 0.43 0.02 0.42 0.02 0.42 0 0.42 -0.01 0.42 -0.02 0.43 -0.03 0.42 -0.05 0.42 -0.05 0.43 -0.06 0.42 -0.08 0.42 -0.08 0.43 -0.1 0.42 -0.1 0.42 -0.12 0.41 -0.13 0.42 -0.14 0.41 -0.15 0.42 -0.17 0.41 -0.17 0.14 0.31 -0.42 0.18 -0.42 0.17 -0.43 0.15 -0.42 0.15 -0.43 0.13 -0.42 0.12 -0.43 0.11 -0.43 0.1 -0.43 0.08 -0.44 0.08 -0.43 0.06 -0.43 0.06 -0.43 0.04 -0.43 0.03 -0.44 0.02 -0.43 0.01 -0.43 0 -0.43 -0.01 -0.43 -0.03 -0.43 -0.03 -0.42 -0.04 -0.43 -0.05 -0.42 -0.07 -0.42 -0.07 -0.42 -0.08 -0.42 -0.1 -0.41 -0.1 -0.41 -0.11 -0.41 -0.13 -0.41 -0.13 -0.4 -0.14 -0.4 -0.15 0 0zm-9.8 -9.44l0.31 -0.14 0 0 0.19 0.41 0.2 0.41 0.2 0.39 0.22 0.39 0.22 0.38 0.23 0.37 0.24 0.37 0.25 0.36 0.25 0.35 0.26 0.34 0.27 0.34 0.28 0.33 0.28 0.32 0.3 0.31 0.29 0.3 0.31 0.3 0.31 0.29 0.32 0.28 0.32 0.27 0.33 0.26 0.34 0.26 0.34 0.24 0.34 0.24 0.35 0.23 0.36 0.22 0.36 0.21 0.37 0.21 0.37 0.19 0.37 0.19 0.38 0.17 0.38 0.17 0.39 0.16 -0.13 0.32 -0.39 -0.16 -0.39 -0.17 -0.39 -0.18 -0.38 -0.19 -0.38 -0.2 -0.37 -0.21 -0.37 -0.21 -0.36 -0.23 -0.36 -0.23 -0.35 -0.24 -0.35 -0.25 -0.34 -0.26 -0.34 -0.28 -0.33 -0.27 -0.32 -0.29 -0.32 -0.29 -0.31 -0.3 -0.3 -0.31 -0.3 -0.32 -0.29 -0.33 -0.28 -0.33 -0.28 -0.34 -0.27 -0.36 -0.26 -0.35 -0.25 -0.37 -0.24 -0.37 -0.24 -0.38 -0.22 -0.39 -0.22 -0.4 -0.21 -0.4 -0.2 -0.41 -0.19 -0.42 0 0zm-0.36 -13.6l0.32 0.12 0 0 -0.15 0.39 -0.13 0.4 -0.13 0.39 -0.11 0.4 -0.11 0.41 -0.1 0.41 -0.08 0.41 -0.08 0.41 -0.07 0.41 -0.05 0.42 -0.05 0.42 -0.04 0.42 -0.03 0.42 -0.01 0.42 -0.01 0.42 0 0.43 0.01 0.42 0.03 0.43 0.03 0.42 0.05 0.43 0.05 0.43 0.07 0.42 0.08 0.43 0.08 0.42 0.1 0.43 0.11 0.42 0.12 0.42 0.13 0.42 0.15 0.42 0.15 0.42 0.17 0.42 0.17 0.41 -0.31 0.14 -0.18 -0.42 -0.17 -0.43 -0.16 -0.42 -0.14 -0.43 -0.14 -0.43 -0.12 -0.43 -0.11 -0.43 -0.1 -0.43 -0.09 -0.44 -0.08 -0.43 -0.07 -0.43 -0.05 -0.44 -0.05 -0.43 -0.03 -0.44 -0.03 -0.43 -0.01 -0.44 0 -0.43 0 -0.43 0.02 -0.43 0.03 -0.43 0.04 -0.43 0.05 -0.42 0.05 -0.43 0.07 -0.42 0.08 -0.42 0.09 -0.42 0.1 -0.41 0.11 -0.42 0.11 -0.41 0.13 -0.4 0.14 -0.4 0.15 -0.4 0 0zm9.3 -9.84l0.14 0.31 0 0 -0.4 0.19 -0.4 0.19 -0.39 0.2 -0.39 0.22 -0.38 0.22 -0.37 0.23 -0.36 0.24 -0.35 0.24 -0.35 0.26 -0.34 0.26 -0.33 0.27 -0.33 0.28 -0.31 0.29 -0.31 0.29 -0.3 0.3 -0.3 0.3 -0.28 0.31 -0.27 0.32 -0.27 0.33 -0.26 0.33 -0.25 0.34 -0.24 0.34 -0.24 0.35 -0.22 0.35 -0.22 0.36 -0.21 0.36 -0.19 0.37 -0.2 0.37 -0.18 0.38 -0.17 0.38 -0.16 0.39 -0.15 0.39 -0.32 -0.12 0.15 -0.4 0.17 -0.39 0.17 -0.39 0.19 -0.39 0.19 -0.38 0.2 -0.37 0.21 -0.37 0.23 -0.37 0.22 -0.36 0.24 -0.35 0.25 -0.35 0.26 -0.35 0.26 -0.34 0.27 -0.33 0.29 -0.32 0.28 -0.32 0.3 -0.31 0.31 -0.31 0.31 -0.3 0.33 -0.29 0.33 -0.28 0.34 -0.28 0.34 -0.27 0.36 -0.25 0.36 -0.26 0.37 -0.24 0.38 -0.23 0.38 -0.23 0.39 -0.22 0.4 -0.21 0.41 -0.19 0.41 -0.19 0 0zm30.8 24.22l-0.32 0.14 0 0 -0.07 -0.16 -0.09 -0.16 -0.09 -0.16 -0.1 -0.14 -0.1 -0.14 -0.11 -0.13 -0.12 -0.13 -0.12 -0.12 -0.13 -0.11 -0.13 -0.11 -0.14 -0.1 -0.14 -0.1 -0.15 -0.08 -0.14 -0.08 -0.16 -0.08 -0.15 -0.06 -0.16 -0.06 -0.16 -0.05 -0.17 -0.04 -0.16 -0.03 -0.17 -0.03 -0.17 -0.02 -0.17 -0.01 -0.17 0 -0.17 0.01 -0.17 0.01 -0.17 0.03 -0.18 0.03 -0.17 0.04 -0.17 0.05 -0.17 0.06 -0.16 0.07 -0.14 -0.31 0.18 -0.08 0.19 -0.06 0.18 -0.06 0.19 -0.04 0.19 -0.04 0.19 -0.03 0.19 -0.01 0.18 -0.01 0.19 0 0.19 0.01 0.18 0.02 0.19 0.03 0.18 0.04 0.18 0.04 0.18 0.06 0.17 0.06 0.17 0.07 0.17 0.08 0.16 0.09 0.16 0.09 0.16 0.11 0.15 0.1 0.14 0.12 0.14 0.13 0.14 0.13 0.13 0.14 0.12 0.15 0.11 0.15 0.11 0.16 0.1 0.17 0.09 0.17 0.09 0.18 0 0zm-1.98 5.09l-0.13 -0.31 0 0 0.16 -0.08 0.16 -0.09 0.15 -0.09 0.15 -0.09 0.13 -0.11 0.14 -0.11 0.13 -0.12 0.12 -0.12 0.11 -0.13 0.11 -0.13 0.1 -0.13 0.09 -0.15 0.09 -0.14 0.08 -0.15 0.07 -0.15 0.06 -0.16 0.06 -0.16 0.05 -0.16 0.04 -0.16 0.04 -0.17 0.02 -0.17 0.02 -0.17 0.01 -0.17 0 -0.17 0 -0.17 -0.02 -0.17 -0.02 -0.17 -0.04 -0.17 -0.04 -0.17 -0.05 -0.17 -0.06 -0.17 -0.07 -0.17 0.32 -0.14 0.07 0.18 0.07 0.19 0.05 0.19 0.05 0.18 0.03 0.19 0.03 0.19 0.02 0.19 0.01 0.19 -0.01 0.19 -0.01 0.18 -0.02 0.19 -0.02 0.18 -0.04 0.18 -0.05 0.18 -0.05 0.18 -0.06 0.17 -0.08 0.18 -0.07 0.16 -0.09 0.17 -0.1 0.16 -0.1 0.15 -0.11 0.15 -0.12 0.15 -0.12 0.14 -0.14 0.13 -0.14 0.13 -0.14 0.12 -0.16 0.12 -0.16 0.1 -0.16 0.1 -0.18 0.1 -0.18 0.08 0 0zm-5.09 -1.97l0.32 -0.14 0 0 0.08 0.16 0.08 0.16 0.09 0.15 0.1 0.15 0.1 0.14 0.11 0.13 0.12 0.13 0.12 0.12 0.13 0.11 0.13 0.11 0.14 0.1 0.14 0.1 0.15 0.08 0.15 0.08 0.15 0.07 0.15 0.07 0.16 0.06 0.16 0.05 0.17 0.04 0.16 0.03 0.17 0.03 0.17 0.02 0.17 0.01 0.17 0 0.17 -0.01 0.17 -0.01 0.18 -0.03 0.17 -0.03 0.17 -0.04 0.17 -0.05 0.17 -0.06 0.17 -0.07 0.13 0.31 -0.18 0.08 -0.18 0.06 -0.19 0.06 -0.19 0.04 -0.19 0.04 -0.18 0.03 -0.19 0.01 -0.19 0.01 -0.19 0 -0.19 -0.01 -0.18 -0.02 -0.19 -0.03 -0.18 -0.04 -0.18 -0.04 -0.18 -0.06 -0.17 -0.06 -0.17 -0.07 -0.17 -0.08 -0.16 -0.09 -0.16 -0.09 -0.16 -0.11 -0.15 -0.11 -0.14 -0.11 -0.14 -0.13 -0.14 -0.13 -0.12 -0.14 -0.13 -0.15 -0.11 -0.15 -0.11 -0.16 -0.1 -0.17 -0.09 -0.17 -0.09 -0.18 0 0zm1.98 -5.09l0.14 0.31 0 0 -0.17 0.08 -0.16 0.08 -0.15 0.1 -0.15 0.09 -0.13 0.11 -0.14 0.11 -0.12 0.12 -0.13 0.12 -0.11 0.12 -0.11 0.14 -0.1 0.13 -0.09 0.14 -0.09 0.15 -0.08 0.15 -0.07 0.15 -0.06 0.16 -0.06 0.16 -0.05 0.16 -0.04 0.16 -0.04 0.17 -0.02 0.17 -0.02 0.16 -0.01 0.17 0 0.18 0 0.17 0.02 0.17 0.02 0.17 0.04 0.17 0.04 0.17 0.05 0.17 0.06 0.17 0.07 0.17 -0.32 0.14 -0.07 -0.19 -0.07 -0.18 -0.05 -0.19 -0.05 -0.18 -0.03 -0.19 -0.03 -0.19 -0.02 -0.19 -0.01 -0.19 0.01 -0.19 0.01 -0.18 0.02 -0.19 0.02 -0.18 0.04 -0.19 0.05 -0.17 0.05 -0.18 0.06 -0.18 0.08 -0.17 0.08 -0.16 0.08 -0.17 0.1 -0.16 0.1 -0.15 0.11 -0.15 0.12 -0.15 0.12 -0.14 0.14 -0.13 0.14 -0.13 0.14 -0.12 0.16 -0.12 0.16 -0.1 0.16 -0.11 0.18 -0.09 0.18 -0.08 0 0zm-20.81 14.14l-0.31 0.14 0 0 -0.08 -0.16 -0.08 -0.16 -0.1 -0.15 -0.09 -0.15 -0.11 -0.14 -0.11 -0.13 -0.12 -0.13 -0.12 -0.12 -0.12 -0.11 -0.14 -0.11 -0.13 -0.1 -0.14 -0.09 -0.15 -0.09 -0.15 -0.08 -0.15 -0.07 -0.16 -0.07 -0.16 -0.05 -0.16 -0.05 -0.16 -0.05 -0.17 -0.03 -0.17 -0.03 -0.16 -0.01 -0.17 -0.01 -0.18 -0.01 -0.17 0.01 -0.17 0.02 -0.17 0.02 -0.17 0.03 -0.17 0.04 -0.17 0.06 -0.17 0.06 -0.17 0.06 -0.14 -0.31 0.19 -0.08 0.18 -0.06 0.19 -0.06 0.19 -0.04 0.18 -0.04 0.19 -0.02 0.19 -0.02 0.19 -0.01 0.19 0 0.18 0.01 0.19 0.02 0.18 0.03 0.19 0.04 0.17 0.04 0.18 0.06 0.18 0.06 0.17 0.07 0.17 0.08 0.16 0.09 0.16 0.09 0.15 0.11 0.15 0.11 0.15 0.12 0.14 0.12 0.13 0.13 0.13 0.14 0.12 0.15 0.12 0.15 0.11 0.16 0.1 0.17 0.09 0.17 0.08 0.18 0 0zm-1.97 5.09l-0.14 -0.31 0 0 0.17 -0.08 0.15 -0.08 0.16 -0.09 0.14 -0.1 0.14 -0.11 0.13 -0.11 0.13 -0.11 0.12 -0.13 0.12 -0.12 0.1 -0.14 0.1 -0.13 0.1 -0.14 0.08 -0.15 0.08 -0.15 0.08 -0.15 0.06 -0.16 0.06 -0.16 0.05 -0.16 0.04 -0.16 0.03 -0.17 0.03 -0.16 0.02 -0.17 0.01 -0.17 0 -0.17 -0.01 -0.18 -0.01 -0.17 -0.03 -0.17 -0.03 -0.17 -0.04 -0.17 -0.05 -0.17 -0.06 -0.17 -0.07 -0.17 0.31 -0.14 0.08 0.19 0.06 0.18 0.06 0.19 0.04 0.19 0.04 0.18 0.03 0.19 0.01 0.19 0.01 0.19 0 0.19 -0.01 0.19 -0.02 0.18 -0.03 0.18 -0.04 0.19 -0.04 0.18 -0.06 0.17 -0.06 0.18 -0.07 0.17 -0.08 0.17 -0.09 0.16 -0.09 0.16 -0.1 0.15 -0.11 0.16 -0.12 0.14 -0.13 0.14 -0.13 0.13 -0.14 0.13 -0.15 0.12 -0.15 0.12 -0.16 0.11 -0.17 0.1 -0.17 0.09 -0.18 0.08 0 0zm-5.09 -1.97l0.31 -0.14 0 0 0.08 0.17 0.09 0.16 0.09 0.15 0.09 0.14 0.11 0.14 0.11 0.14 0.12 0.12 0.12 0.12 0.13 0.12 0.13 0.11 0.14 0.1 0.14 0.09 0.14 0.09 0.15 0.08 0.15 0.07 0.16 0.06 0.16 0.06 0.16 0.05 0.16 0.04 0.17 0.03 0.17 0.03 0.17 0.02 0.17 0.01 0.17 0 0.17 -0.01 0.17 -0.01 0.17 -0.03 0.17 -0.03 0.17 -0.04 0.17 -0.05 0.17 -0.06 0.17 -0.07 0.14 0.31 -0.18 0.08 -0.19 0.06 -0.19 0.06 -0.18 0.05 -0.19 0.03 -0.19 0.03 -0.19 0.02 -0.19 0 -0.19 0 -0.18 -0.01 -0.19 -0.02 -0.18 -0.03 -0.18 -0.03 -0.18 -0.05 -0.18 -0.05 -0.17 -0.07 -0.18 -0.07 -0.16 -0.08 -0.17 -0.08 -0.16 -0.1 -0.15 -0.1 -0.15 -0.11 -0.15 -0.12 -0.14 -0.13 -0.13 -0.13 -0.13 -0.14 -0.12 -0.15 -0.12 -0.15 -0.1 -0.16 -0.1 -0.16 -0.1 -0.18 -0.08 -0.18 0 0zm1.97 -5.09l0.14 0.31 0 0 -0.16 0.08 -0.16 0.09 -0.15 0.09 -0.15 0.1 -0.14 0.1 -0.13 0.11 -0.13 0.12 -0.12 0.12 -0.11 0.13 -0.11 0.13 -0.1 0.14 -0.1 0.14 -0.08 0.14 -0.08 0.15 -0.07 0.15 -0.07 0.16 -0.06 0.16 -0.05 0.16 -0.04 0.17 -0.03 0.16 -0.03 0.17 -0.02 0.17 -0.01 0.17 0 0.17 0.01 0.17 0.02 0.17 0.02 0.17 0.03 0.17 0.04 0.18 0.05 0.17 0.06 0.16 0.07 0.17 -0.31 0.14 -0.08 -0.18 -0.06 -0.19 -0.06 -0.18 -0.04 -0.19 -0.04 -0.19 -0.03 -0.19 -0.01 -0.19 -0.01 -0.19 0 -0.18 0.01 -0.19 0.02 -0.19 0.03 -0.18 0.04 -0.18 0.04 -0.18 0.06 -0.18 0.06 -0.17 0.07 -0.17 0.08 -0.17 0.09 -0.17 0.09 -0.15 0.11 -0.16 0.11 -0.15 0.11 -0.15 0.13 -0.14 0.13 -0.13 0.14 -0.13 0.15 -0.12 0.15 -0.11 0.16 -0.11 0.17 -0.1 0.17 -0.09 0.18 -0.09 0 0zm11.98 -42.01l-0.31 0.14 0 0 -0.08 -0.17 -0.08 -0.16 -0.09 -0.15 -0.1 -0.14 -0.11 -0.14 -0.11 -0.14 -0.11 -0.12 -0.13 -0.12 -0.12 -0.12 -0.14 -0.11 -0.13 -0.1 -0.14 -0.09 -0.15 -0.09 -0.15 -0.08 -0.15 -0.07 -0.16 -0.06 -0.16 -0.06 -0.16 -0.05 -0.16 -0.04 -0.17 -0.04 -0.16 -0.02 -0.17 -0.02 -0.17 -0.01 -0.17 0 -0.18 0 -0.17 0.02 -0.17 0.02 -0.17 0.04 -0.17 0.04 -0.17 0.05 -0.17 0.06 -0.17 0.07 -0.14 -0.32 0.19 -0.07 0.18 -0.07 0.19 -0.05 0.19 -0.05 0.18 -0.03 0.19 -0.03 0.19 -0.02 0.19 0 0.19 0 0.18 0.01 0.19 0.02 0.18 0.03 0.19 0.03 0.18 0.05 0.17 0.05 0.18 0.07 0.17 0.07 0.17 0.08 0.16 0.08 0.16 0.1 0.15 0.1 0.16 0.11 0.14 0.12 0.14 0.13 0.13 0.13 0.13 0.14 0.12 0.14 0.12 0.16 0.11 0.16 0.1 0.16 0.09 0.18 0.08 0.18 0 0zm-1.97 5.09l-0.14 -0.32 0 0 0.17 -0.07 0.16 -0.09 0.15 -0.09 0.14 -0.1 0.14 -0.1 0.14 -0.11 0.12 -0.12 0.12 -0.12 0.12 -0.13 0.11 -0.13 0.1 -0.14 0.09 -0.14 0.09 -0.14 0.07 -0.15 0.08 -0.16 0.06 -0.15 0.06 -0.16 0.05 -0.16 0.04 -0.17 0.03 -0.16 0.03 -0.17 0.02 -0.17 0.01 -0.17 0 -0.17 -0.01 -0.17 -0.01 -0.17 -0.03 -0.17 -0.03 -0.18 -0.04 -0.17 -0.05 -0.17 -0.06 -0.17 -0.07 -0.16 0.31 -0.14 0.08 0.18 0.06 0.19 0.06 0.18 0.05 0.19 0.03 0.19 0.03 0.19 0.02 0.19 0 0.18 0 0.19 -0.01 0.19 -0.02 0.18 -0.03 0.19 -0.03 0.18 -0.05 0.18 -0.05 0.18 -0.07 0.17 -0.07 0.17 -0.08 0.17 -0.08 0.16 -0.1 0.16 -0.1 0.16 -0.11 0.15 -0.12 0.14 -0.13 0.14 -0.13 0.14 -0.14 0.13 -0.15 0.12 -0.15 0.11 -0.16 0.11 -0.16 0.1 -0.18 0.09 -0.18 0.09 0 0zm-5.09 -1.97l0.31 -0.14 0 0 0.08 0.16 0.09 0.16 0.09 0.15 0.1 0.15 0.1 0.14 0.11 0.13 0.12 0.13 0.12 0.12 0.13 0.11 0.13 0.11 0.14 0.1 0.14 0.09 0.14 0.09 0.15 0.08 0.15 0.07 0.16 0.06 0.16 0.06 0.16 0.05 0.17 0.04 0.16 0.04 0.17 0.03 0.17 0.01 0.17 0.01 0.17 0 0.17 0 0.17 -0.02 0.17 -0.02 0.17 -0.04 0.18 -0.04 0.17 -0.05 0.16 -0.06 0.17 -0.07 0.14 0.32 -0.18 0.07 -0.19 0.07 -0.18 0.05 -0.19 0.05 -0.19 0.04 -0.19 0.02 -0.19 0.02 -0.19 0.01 -0.18 -0.01 -0.19 0 -0.19 -0.02 -0.18 -0.03 -0.18 -0.04 -0.18 -0.05 -0.18 -0.05 -0.17 -0.06 -0.17 -0.07 -0.17 -0.08 -0.17 -0.09 -0.15 -0.1 -0.16 -0.1 -0.15 -0.11 -0.15 -0.12 -0.14 -0.12 -0.13 -0.14 -0.13 -0.14 -0.12 -0.14 -0.11 -0.16 -0.11 -0.16 -0.1 -0.16 -0.09 -0.18 -0.09 -0.17 0 0zm1.97 -5.1l0.14 0.32 0 0 -0.16 0.08 -0.16 0.08 -0.15 0.09 -0.15 0.1 -0.14 0.1 -0.13 0.12 -0.13 0.11 -0.12 0.12 -0.11 0.13 -0.11 0.13 -0.1 0.14 -0.09 0.14 -0.09 0.15 -0.08 0.15 -0.07 0.15 -0.07 0.15 -0.05 0.16 -0.05 0.16 -0.05 0.17 -0.03 0.16 -0.03 0.17 -0.01 0.17 -0.01 0.17 -0.01 0.17 0.01 0.17 0.02 0.18 0.02 0.17 0.03 0.17 0.04 0.17 0.06 0.17 0.06 0.17 0.06 0.17 -0.31 0.14 -0.08 -0.19 -0.06 -0.18 -0.06 -0.19 -0.04 -0.19 -0.04 -0.19 -0.02 -0.18 -0.02 -0.19 -0.01 -0.19 0 -0.19 0.01 -0.19 0.02 -0.18 0.03 -0.19 0.04 -0.18 0.04 -0.18 0.06 -0.18 0.06 -0.17 0.07 -0.17 0.08 -0.17 0.09 -0.16 0.09 -0.16 0.11 -0.16 0.11 -0.15 0.12 -0.14 0.12 -0.14 0.13 -0.14 0.14 -0.12 0.15 -0.13 0.15 -0.11 0.16 -0.11 0.17 -0.1 0.17 -0.09 0.18 -0.09 0 0zm-14.48 11.61l-0.31 0.14 0 0 -0.08 -0.17 -0.08 -0.16 -0.1 -0.15 -0.09 -0.14 -0.11 -0.14 -0.11 -0.14 -0.12 -0.12 -0.12 -0.12 -0.13 -0.12 -0.13 -0.11 -0.13 -0.1 -0.15 -0.09 -0.14 -0.09 -0.15 -0.08 -0.15 -0.07 -0.16 -0.06 -0.16 -0.06 -0.16 -0.05 -0.16 -0.04 -0.17 -0.04 -0.17 -0.02 -0.17 -0.02 -0.17 -0.01 -0.17 0 -0.17 0.01 -0.17 0.01 -0.17 0.02 -0.17 0.04 -0.17 0.04 -0.17 0.05 -0.17 0.06 -0.17 0.07 -0.14 -0.32 0.18 -0.07 0.19 -0.07 0.19 -0.05 0.18 -0.05 0.19 -0.03 0.19 -0.03 0.19 -0.02 0.19 -0.01 0.19 0.01 0.18 0.01 0.19 0.02 0.18 0.03 0.18 0.03 0.18 0.05 0.18 0.05 0.17 0.07 0.18 0.07 0.16 0.08 0.17 0.08 0.16 0.1 0.15 0.1 0.15 0.11 0.15 0.12 0.14 0.12 0.13 0.14 0.13 0.14 0.12 0.14 0.12 0.16 0.1 0.16 0.11 0.16 0.09 0.18 0.08 0.18 0 0zm-1.97 5.09l-0.14 -0.32 0 0 0.16 -0.07 0.16 -0.09 0.15 -0.09 0.15 -0.1 0.14 -0.1 0.13 -0.11 0.13 -0.12 0.12 -0.12 0.11 -0.13 0.11 -0.13 0.1 -0.14 0.1 -0.14 0.08 -0.14 0.08 -0.15 0.07 -0.16 0.07 -0.15 0.06 -0.16 0.05 -0.16 0.04 -0.17 0.03 -0.16 0.03 -0.17 0.02 -0.17 0.01 -0.17 0 -0.17 -0.01 -0.17 -0.01 -0.17 -0.03 -0.17 -0.03 -0.18 -0.04 -0.17 -0.05 -0.17 -0.06 -0.17 -0.07 -0.16 0.31 -0.14 0.08 0.18 0.06 0.19 0.06 0.18 0.04 0.19 0.04 0.19 0.03 0.19 0.01 0.19 0.01 0.19 0 0.18 -0.01 0.19 -0.02 0.19 -0.03 0.18 -0.04 0.18 -0.04 0.18 -0.06 0.18 -0.06 0.17 -0.07 0.17 -0.08 0.17 -0.09 0.16 -0.09 0.16 -0.1 0.16 -0.12 0.15 -0.11 0.14 -0.13 0.14 -0.13 0.14 -0.14 0.12 -0.15 0.13 -0.15 0.11 -0.16 0.11 -0.17 0.1 -0.17 0.09 -0.18 0.09 0 0zm-5.09 -1.97l0.31 -0.14 0 0 0.08 0.16 0.09 0.16 0.09 0.15 0.09 0.15 0.11 0.14 0.11 0.13 0.12 0.13 0.12 0.12 0.12 0.11 0.14 0.11 0.13 0.1 0.15 0.09 0.14 0.09 0.15 0.08 0.15 0.07 0.16 0.07 0.16 0.05 0.16 0.05 0.16 0.04 0.17 0.04 0.17 0.02 0.17 0.02 0.17 0.01 0.17 0 0.17 0 0.17 -0.02 0.17 -0.02 0.17 -0.03 0.17 -0.05 0.17 -0.05 0.17 -0.06 0.17 -0.07 0.14 0.32 -0.19 0.07 -0.18 0.07 -0.19 0.05 -0.18 0.05 -0.19 0.04 -0.19 0.02 -0.19 0.02 -0.19 0.01 -0.19 0 -0.18 -0.02 -0.19 -0.02 -0.18 -0.02 -0.18 -0.04 -0.18 -0.05 -0.18 -0.05 -0.18 -0.06 -0.17 -0.08 -0.16 -0.07 -0.17 -0.09 -0.16 -0.1 -0.15 -0.1 -0.15 -0.11 -0.15 -0.12 -0.14 -0.12 -0.13 -0.13 -0.13 -0.14 -0.12 -0.15 -0.12 -0.15 -0.1 -0.16 -0.1 -0.17 -0.1 -0.18 -0.08 -0.17 0 0zm1.97 -5.1l0.14 0.32 0 0 -0.16 0.08 -0.16 0.08 -0.15 0.09 -0.15 0.1 -0.14 0.1 -0.13 0.12 -0.13 0.11 -0.12 0.12 -0.11 0.13 -0.11 0.13 -0.1 0.14 -0.1 0.14 -0.08 0.15 -0.08 0.15 -0.08 0.15 -0.06 0.15 -0.06 0.16 -0.05 0.16 -0.04 0.17 -0.03 0.17 -0.03 0.16 -0.02 0.17 -0.01 0.17 0 0.17 0.01 0.17 0.01 0.18 0.03 0.17 0.03 0.17 0.04 0.17 0.05 0.17 0.06 0.17 0.07 0.17 -0.31 0.14 -0.08 -0.19 -0.06 -0.18 -0.06 -0.19 -0.04 -0.19 -0.04 -0.19 -0.03 -0.18 -0.01 -0.19 -0.01 -0.19 0 -0.19 0.01 -0.19 0.02 -0.18 0.03 -0.19 0.04 -0.18 0.04 -0.18 0.06 -0.17 0.06 -0.18 0.07 -0.17 0.08 -0.17 0.09 -0.16 0.09 -0.16 0.11 -0.16 0.11 -0.15 0.11 -0.14 0.13 -0.14 0.13 -0.14 0.14 -0.12 0.15 -0.12 0.15 -0.12 0.16 -0.11 0.17 -0.1 0.17 -0.09 0.18 -0.09 0 0zm44.45 5.7l-0.31 0.14 0 0 -0.08 -0.17 -0.08 -0.15 -0.09 -0.16 -0.1 -0.14 -0.11 -0.14 -0.11 -0.14 -0.11 -0.12 -0.13 -0.12 -0.12 -0.12 -0.14 -0.11 -0.13 -0.1 -0.14 -0.09 -0.15 -0.09 -0.15 -0.08 -0.15 -0.07 -0.16 -0.06 -0.16 -0.06 -0.16 -0.05 -0.16 -0.04 -0.17 -0.03 -0.17 -0.03 -0.16 -0.02 -0.17 -0.01 -0.18 0 -0.17 0.01 -0.17 0.01 -0.17 0.03 -0.17 0.03 -0.17 0.04 -0.17 0.05 -0.17 0.06 -0.17 0.07 -0.14 -0.31 0.19 -0.08 0.18 -0.06 0.19 -0.06 0.19 -0.05 0.18 -0.03 0.19 -0.03 0.19 -0.02 0.19 0 0.19 0 0.18 0.01 0.19 0.02 0.18 0.03 0.18 0.03 0.19 0.05 0.17 0.05 0.18 0.07 0.17 0.07 0.17 0.08 0.16 0.09 0.16 0.09 0.15 0.1 0.15 0.11 0.15 0.12 0.14 0.13 0.13 0.13 0.13 0.14 0.12 0.15 0.12 0.15 0.11 0.16 0.1 0.17 0.09 0.17 0.08 0.18 0 0zm-1.97 5.09l-0.14 -0.31 0 0 0.17 -0.08 0.15 -0.09 0.16 -0.09 0.14 -0.09 0.14 -0.11 0.13 -0.11 0.13 -0.12 0.12 -0.12 0.12 -0.13 0.1 -0.13 0.1 -0.14 0.1 -0.14 0.08 -0.14 0.08 -0.15 0.08 -0.16 0.06 -0.15 0.06 -0.16 0.05 -0.16 0.04 -0.17 0.03 -0.16 0.03 -0.17 0.02 -0.17 0.01 -0.17 0 -0.17 -0.01 -0.17 -0.01 -0.17 -0.03 -0.17 -0.03 -0.18 -0.04 -0.17 -0.05 -0.17 -0.06 -0.16 -0.07 -0.17 0.31 -0.14 0.08 0.18 0.06 0.19 0.06 0.18 0.05 0.19 0.03 0.19 0.03 0.19 0.02 0.19 0 0.19 0 0.18 -0.01 0.19 -0.02 0.19 -0.03 0.18 -0.04 0.18 -0.04 0.18 -0.06 0.18 -0.06 0.17 -0.07 0.17 -0.08 0.17 -0.09 0.17 -0.09 0.15 -0.1 0.16 -0.11 0.15 -0.12 0.15 -0.13 0.13 -0.13 0.14 -0.14 0.13 -0.15 0.12 -0.15 0.11 -0.16 0.11 -0.17 0.1 -0.17 0.1 -0.18 0.08 0 0zm-5.09 -1.97l0.31 -0.14 0 0 0.08 0.16 0.09 0.16 0.09 0.15 0.09 0.15 0.11 0.14 0.11 0.13 0.12 0.13 0.12 0.12 0.13 0.11 0.13 0.11 0.14 0.1 0.14 0.09 0.14 0.09 0.15 0.08 0.15 0.07 0.16 0.07 0.16 0.06 0.16 0.04 0.16 0.05 0.17 0.03 0.17 0.03 0.17 0.01 0.17 0.01 0.17 0.01 0.17 -0.01 0.17 -0.02 0.17 -0.02 0.17 -0.03 0.17 -0.04 0.17 -0.06 0.17 -0.06 0.17 -0.06 0.14 0.31 -0.18 0.08 -0.19 0.06 -0.19 0.06 -0.18 0.04 -0.19 0.04 -0.19 0.02 -0.19 0.02 -0.19 0.01 -0.19 0 -0.18 -0.01 -0.19 -0.02 -0.18 -0.03 -0.18 -0.04 -0.18 -0.04 -0.18 -0.06 -0.17 -0.06 -0.17 -0.07 -0.17 -0.08 -0.17 -0.09 -0.16 -0.09 -0.15 -0.11 -0.15 -0.11 -0.15 -0.12 -0.14 -0.12 -0.13 -0.13 -0.13 -0.14 -0.12 -0.15 -0.11 -0.15 -0.11 -0.16 -0.1 -0.17 -0.1 -0.17 -0.08 -0.18 0 0zm1.97 -5.09l0.14 0.31 0 0 -0.16 0.08 -0.16 0.08 -0.15 0.09 -0.15 0.1 -0.14 0.11 -0.13 0.11 -0.13 0.11 -0.12 0.13 -0.11 0.12 -0.11 0.14 -0.1 0.13 -0.1 0.14 -0.08 0.15 -0.08 0.15 -0.07 0.15 -0.07 0.16 -0.06 0.15 -0.05 0.17 -0.04 0.16 -0.03 0.17 -0.03 0.16 -0.02 0.17 0 0.17 -0.01 0.17 0.01 0.18 0.02 0.17 0.02 0.17 0.03 0.17 0.04 0.17 0.06 0.17 0.06 0.17 0.06 0.17 -0.31 0.14 -0.08 -0.19 -0.06 -0.18 -0.06 -0.19 -0.04 -0.19 -0.04 -0.18 -0.03 -0.19 -0.01 -0.19 -0.01 -0.19 0 -0.19 0.01 -0.19 0.02 -0.18 0.03 -0.19 0.04 -0.18 0.04 -0.18 0.06 -0.17 0.06 -0.18 0.07 -0.17 0.08 -0.17 0.09 -0.16 0.09 -0.16 0.11 -0.15 0.11 -0.15 0.11 -0.15 0.13 -0.14 0.13 -0.13 0.14 -0.13 0.15 -0.12 0.15 -0.12 0.16 -0.11 0.17 -0.1 0.17 -0.09 0.18 -0.08 0 0zm-37.27 19.75l-0.32 0.14 0 0 -0.07 -0.17 -0.09 -0.15 -0.09 -0.16 -0.1 -0.14 -0.1 -0.14 -0.11 -0.13 -0.12 -0.13 -0.12 -0.12 -0.13 -0.12 -0.13 -0.1 -0.14 -0.11 -0.14 -0.09 -0.15 -0.09 -0.14 -0.08 -0.16 -0.07 -0.15 -0.06 -0.16 -0.06 -0.16 -0.05 -0.17 -0.04 -0.16 -0.04 -0.17 -0.02 -0.17 -0.02 -0.17 -0.01 -0.17 0 -0.17 0.01 -0.17 0.01 -0.18 0.03 -0.17 0.03 -0.17 0.04 -0.17 0.05 -0.17 0.06 -0.16 0.07 -0.14 -0.31 0.18 -0.08 0.19 -0.07 0.18 -0.05 0.19 -0.05 0.19 -0.03 0.19 -0.03 0.18 -0.02 0.19 0 0.19 0 0.19 0.01 0.18 0.02 0.19 0.03 0.18 0.03 0.18 0.05 0.18 0.06 0.17 0.06 0.17 0.07 0.17 0.08 0.16 0.08 0.16 0.1 0.16 0.1 0.15 0.11 0.14 0.12 0.14 0.13 0.14 0.13 0.12 0.14 0.13 0.14 0.11 0.16 0.11 0.16 0.1 0.17 0.09 0.17 0.09 0.18 0 0zm-1.98 5.09l-0.14 -0.31 0 0 0.17 -0.08 0.16 -0.09 0.15 -0.09 0.14 -0.1 0.14 -0.1 0.14 -0.11 0.13 -0.12 0.12 -0.12 0.11 -0.13 0.11 -0.13 0.1 -0.14 0.09 -0.14 0.09 -0.14 0.08 -0.15 0.07 -0.16 0.06 -0.15 0.06 -0.16 0.05 -0.16 0.04 -0.17 0.04 -0.16 0.02 -0.17 0.02 -0.17 0.01 -0.17 0 -0.17 0 -0.17 -0.02 -0.17 -0.02 -0.17 -0.04 -0.18 -0.04 -0.17 -0.05 -0.17 -0.06 -0.16 -0.07 -0.17 0.32 -0.14 0.07 0.18 0.07 0.19 0.05 0.19 0.05 0.18 0.04 0.19 0.02 0.19 0.02 0.19 0.01 0.19 -0.01 0.18 -0.01 0.19 -0.02 0.19 -0.02 0.18 -0.04 0.18 -0.05 0.18 -0.05 0.18 -0.07 0.17 -0.07 0.17 -0.08 0.17 -0.08 0.17 -0.1 0.15 -0.1 0.16 -0.11 0.15 -0.12 0.15 -0.12 0.14 -0.14 0.13 -0.14 0.13 -0.14 0.12 -0.16 0.11 -0.16 0.11 -0.16 0.1 -0.18 0.09 -0.18 0.09 0 0zm-5.09 -1.97l0.32 -0.14 0 0 0.08 0.16 0.08 0.16 0.09 0.15 0.1 0.15 0.1 0.14 0.11 0.13 0.12 0.13 0.12 0.12 0.13 0.11 0.13 0.11 0.14 0.1 0.14 0.09 0.15 0.09 0.14 0.08 0.16 0.07 0.15 0.07 0.16 0.05 0.16 0.05 0.17 0.05 0.16 0.03 0.17 0.03 0.17 0.01 0.17 0.01 0.17 0.01 0.17 -0.01 0.17 -0.02 0.18 -0.02 0.17 -0.03 0.17 -0.05 0.17 -0.05 0.17 -0.06 0.16 -0.06 0.14 0.31 -0.18 0.07 -0.19 0.07 -0.18 0.06 -0.19 0.04 -0.19 0.04 -0.19 0.02 -0.18 0.02 -0.19 0.01 -0.19 0 -0.19 -0.01 -0.18 -0.02 -0.19 -0.03 -0.18 -0.04 -0.18 -0.05 -0.18 -0.05 -0.17 -0.06 -0.17 -0.07 -0.17 -0.08 -0.16 -0.09 -0.16 -0.1 -0.16 -0.1 -0.15 -0.11 -0.14 -0.12 -0.14 -0.12 -0.14 -0.13 -0.13 -0.14 -0.12 -0.15 -0.11 -0.15 -0.11 -0.16 -0.1 -0.17 -0.09 -0.17 -0.09 -0.18 0 0zm1.98 -5.09l0.14 0.31 0 0 -0.17 0.08 -0.16 0.08 -0.15 0.09 -0.14 0.1 -0.14 0.11 -0.14 0.11 -0.13 0.11 -0.12 0.12 -0.11 0.13 -0.11 0.13 -0.1 0.14 -0.09 0.14 -0.09 0.15 -0.08 0.15 -0.07 0.15 -0.06 0.16 -0.06 0.16 -0.05 0.16 -0.04 0.16 -0.04 0.17 -0.02 0.16 -0.02 0.17 -0.01 0.17 0 0.17 0 0.17 0.02 0.18 0.02 0.17 0.04 0.17 0.04 0.17 0.05 0.17 0.06 0.17 0.07 0.17 -0.32 0.14 -0.07 -0.19 -0.07 -0.18 -0.05 -0.19 -0.05 -0.19 -0.03 -0.19 -0.03 -0.18 -0.02 -0.19 -0.01 -0.19 0.01 -0.19 0.01 -0.19 0.02 -0.18 0.03 -0.18 0.03 -0.19 0.05 -0.18 0.05 -0.17 0.06 -0.18 0.08 -0.17 0.07 -0.17 0.09 -0.16 0.1 -0.16 0.1 -0.15 0.11 -0.16 0.12 -0.14 0.12 -0.14 0.14 -0.13 0.14 -0.13 0.14 -0.12 0.16 -0.12 0.16 -0.11 0.16 -0.1 0.18 -0.09 0.18 -0.08 0 0zm27.91 -7.39l-0.32 0.14 0 0 -0.11 -0.23 -0.11 -0.22 -0.13 -0.21 -0.14 -0.21 -0.15 -0.2 -0.15 -0.18 -0.17 -0.18 -0.17 -0.17 -0.18 -0.16 -0.18 -0.15 -0.2 -0.14 -0.19 -0.13 -0.21 -0.12 -0.21 -0.12 -0.21 -0.1 -0.22 -0.09 -0.22 -0.08 -0.23 -0.07 -0.23 -0.06 -0.23 -0.05 -0.24 -0.03 -0.23 -0.03 -0.24 -0.01 -0.24 0 -0.24 0.01 -0.24 0.02 -0.24 0.03 -0.25 0.05 -0.24 0.06 -0.23 0.07 -0.24 0.08 -0.24 0.1 -0.14 -0.32 0.26 -0.1 0.25 -0.09 0.25 -0.07 0.26 -0.07 0.26 -0.05 0.26 -0.03 0.25 -0.03 0.26 -0.01 0.26 0.01 0.25 0.01 0.26 0.03 0.25 0.04 0.25 0.05 0.24 0.06 0.25 0.07 0.23 0.09 0.24 0.1 0.23 0.11 0.22 0.12 0.22 0.13 0.21 0.14 0.21 0.15 0.19 0.16 0.2 0.17 0.18 0.18 0.17 0.19 0.17 0.2 0.16 0.21 0.15 0.22 0.13 0.23 0.13 0.24 0.12 0.24 0 0zm-2.7 6.96l-0.14 -0.31 0 0 0.23 -0.11 0.22 -0.12 0.21 -0.13 0.21 -0.13 0.19 -0.15 0.19 -0.16 0.18 -0.16 0.17 -0.17 0.16 -0.18 0.15 -0.18 0.14 -0.2 0.13 -0.2 0.13 -0.2 0.11 -0.21 0.1 -0.21 0.09 -0.22 0.08 -0.22 0.07 -0.23 0.06 -0.23 0.04 -0.23 0.04 -0.24 0.03 -0.24 0.01 -0.24 0 -0.24 -0.01 -0.23 -0.02 -0.25 -0.03 -0.24 -0.05 -0.24 -0.06 -0.24 -0.07 -0.24 -0.08 -0.23 -0.1 -0.24 0.32 -0.14 0.1 0.25 0.09 0.26 0.07 0.25 0.07 0.26 0.05 0.26 0.03 0.26 0.03 0.25 0.01 0.26 -0.01 0.26 -0.01 0.25 -0.03 0.26 -0.04 0.25 -0.05 0.25 -0.06 0.24 -0.08 0.24 -0.08 0.24 -0.1 0.24 -0.11 0.22 -0.11 0.23 -0.14 0.22 -0.14 0.21 -0.15 0.21 -0.16 0.19 -0.17 0.2 -0.18 0.18 -0.19 0.17 -0.2 0.17 -0.21 0.16 -0.22 0.14 -0.23 0.14 -0.24 0.13 -0.24 0.11 0 0zm-6.96 -2.69l0.31 -0.14 0 0 0.11 0.23 0.12 0.22 0.13 0.21 0.13 0.21 0.15 0.19 0.16 0.19 0.16 0.18 0.17 0.17 0.18 0.16 0.19 0.15 0.19 0.14 0.2 0.13 0.2 0.12 0.21 0.11 0.21 0.11 0.22 0.09 0.22 0.08 0.23 0.07 0.23 0.05 0.23 0.05 0.24 0.04 0.24 0.02 0.24 0.02 0.23 0 0.25 -0.01 0.24 -0.02 0.24 -0.03 0.24 -0.05 0.24 -0.06 0.24 -0.07 0.23 -0.08 0.24 -0.1 0.14 0.31 -0.25 0.11 -0.26 0.09 -0.25 0.07 -0.26 0.07 -0.26 0.04 -0.26 0.04 -0.25 0.02 -0.26 0.01 -0.26 0 -0.25 -0.01 -0.26 -0.03 -0.25 -0.04 -0.25 -0.05 -0.24 -0.06 -0.24 -0.08 -0.24 -0.08 -0.24 -0.1 -0.22 -0.11 -0.23 -0.12 -0.22 -0.13 -0.21 -0.14 -0.2 -0.15 -0.2 -0.16 -0.2 -0.17 -0.18 -0.18 -0.17 -0.19 -0.17 -0.2 -0.16 -0.21 -0.14 -0.22 -0.14 -0.23 -0.13 -0.24 -0.11 -0.24 0 0zm2.69 -6.97l0.14 0.32 0 0 -0.23 0.11 -0.22 0.12 -0.21 0.12 -0.21 0.14 -0.19 0.15 -0.19 0.15 -0.18 0.17 -0.17 0.17 -0.16 0.18 -0.15 0.18 -0.14 0.2 -0.13 0.19 -0.12 0.21 -0.11 0.21 -0.11 0.21 -0.09 0.22 -0.08 0.22 -0.07 0.23 -0.05 0.23 -0.05 0.23 -0.04 0.24 -0.02 0.23 -0.02 0.24 0 0.24 0.01 0.24 0.02 0.24 0.03 0.24 0.05 0.25 0.06 0.24 0.07 0.23 0.08 0.24 0.1 0.24 -0.31 0.14 -0.11 -0.26 -0.09 -0.25 -0.07 -0.25 -0.07 -0.26 -0.04 -0.26 -0.04 -0.26 -0.02 -0.25 -0.01 -0.26 0 -0.26 0.01 -0.25 0.03 -0.26 0.04 -0.25 0.05 -0.25 0.06 -0.24 0.08 -0.25 0.08 -0.23 0.1 -0.24 0.11 -0.23 0.12 -0.22 0.13 -0.22 0.14 -0.21 0.15 -0.21 0.16 -0.19 0.17 -0.2 0.18 -0.18 0.19 -0.18 0.2 -0.16 0.21 -0.16 0.22 -0.15 0.23 -0.13 0.24 -0.13 0.24 -0.12 0 0zm30.06 50.21l-0.32 0.14 0 0 -0.47 -1.04 -0.48 -1 -0.49 -0.97 -0.5 -0.95 -0.5 -0.92 -0.52 -0.89 -0.52 -0.88 -0.52 -0.86 -0.54 -0.84 -0.54 -0.84 -0.54 -0.82 -0.54 -0.81 -0.55 -0.81 -0.56 -0.81 -0.55 -0.81 -0.55 -0.81 -0.56 -0.81 -0.55 -0.82 -0.55 -0.83 -0.55 -0.84 -0.55 -0.86 -0.55 -0.87 -0.54 -0.9 -0.53 -0.91 -0.53 -0.94 -0.53 -0.97 -0.51 -1 -0.51 -1.02 -0.5 -1.07 -0.5 -1.1 -0.48 -1.13 -0.47 -1.18 0.32 -0.13 0.47 1.18 0.48 1.13 0.49 1.09 0.5 1.06 0.5 1.02 0.52 0.99 0.52 0.96 0.53 0.94 0.53 0.91 0.54 0.89 0.54 0.87 0.55 0.85 0.54 0.84 0.56 0.83 0.55 0.82 0.55 0.81 0.56 0.81 0.55 0.81 0.55 0.8 0.55 0.82 0.55 0.81 0.54 0.82 0.54 0.84 0.54 0.85 0.53 0.86 0.52 0.88 0.52 0.91 0.51 0.92 0.5 0.95 0.49 0.98 0.48 1.01 0.48 1.04 0 0zm-3.09 7.97l-0.14 -0.31 0 0 0.26 -0.13 0.26 -0.13 0.24 -0.15 0.24 -0.16 0.22 -0.17 0.22 -0.18 0.21 -0.19 0.19 -0.2 0.19 -0.2 0.17 -0.22 0.16 -0.22 0.15 -0.23 0.14 -0.24 0.13 -0.24 0.12 -0.25 0.11 -0.25 0.09 -0.26 0.08 -0.26 0.07 -0.27 0.05 -0.27 0.05 -0.27 0.02 -0.27 0.02 -0.28 0 -0.27 -0.01 -0.28 -0.02 -0.28 -0.04 -0.28 -0.05 -0.28 -0.07 -0.27 -0.08 -0.28 -0.1 -0.27 -0.11 -0.27 0.32 -0.14 0.11 0.29 0.11 0.28 0.08 0.3 0.07 0.29 0.06 0.29 0.04 0.3 0.03 0.3 0.01 0.29 -0.01 0.29 -0.01 0.3 -0.03 0.29 -0.05 0.29 -0.06 0.28 -0.07 0.28 -0.09 0.28 -0.09 0.27 -0.12 0.27 -0.12 0.26 -0.14 0.26 -0.14 0.25 -0.17 0.25 -0.17 0.23 -0.18 0.23 -0.2 0.22 -0.21 0.21 -0.21 0.2 -0.23 0.19 -0.24 0.18 -0.25 0.17 -0.26 0.16 -0.27 0.14 -0.28 0.13 0 0zm-2.15 0.95l-0.14 -0.31 0 0 0.06 -0.03 0.07 -0.03 0.07 -0.03 0.07 -0.03 0.06 -0.03 0.07 -0.03 0.07 -0.03 0.06 -0.03 0.07 -0.03 0.07 -0.03 0.07 -0.03 0.06 -0.03 0.07 -0.03 0.07 -0.03 0.06 -0.03 0.07 -0.02 0.07 -0.04 0.07 -0.03 0.06 -0.03 0.07 -0.03 0.07 -0.02 0.07 -0.03 0.06 -0.03 0.07 -0.03 0.07 -0.03 0.06 -0.03 0.07 -0.03 0.07 -0.03 0.07 -0.03 0.06 -0.03 0.07 -0.03 0.07 -0.03 0.14 0.31 -0.07 0.03 -0.07 0.03 -0.07 0.03 -0.06 0.03 -0.07 0.03 -0.07 0.03 -0.07 0.03 -0.06 0.03 -0.07 0.03 -0.07 0.03 -0.06 0.03 -0.07 0.03 -0.07 0.03 -0.07 0.03 -0.06 0.03 -0.07 0.03 -0.07 0.03 -0.06 0.03 -0.07 0.03 -0.07 0.03 -0.07 0.03 -0.06 0.03 -0.07 0.02 -0.07 0.03 -0.07 0.03 -0.06 0.03 -0.07 0.03 -0.07 0.03 -0.06 0.03 -0.07 0.03 -0.07 0.03 -0.06 0.03 0 0zm-7.98 -3.09l0.31 -0.14 0 0 0.13 0.27 0.14 0.25 0.15 0.25 0.15 0.23 0.17 0.23 0.18 0.21 0.19 0.21 0.2 0.2 0.21 0.18 0.21 0.18 0.22 0.16 0.23 0.15 0.24 0.14 0.24 0.13 0.25 0.12 0.26 0.1 0.25 0.09 0.27 0.08 0.26 0.07 0.27 0.06 0.27 0.04 0.28 0.03 0.27 0.02 0.28 0 0.28 -0.01 0.28 -0.02 0.27 -0.04 0.28 -0.06 0.28 -0.06 0.27 -0.08 0.28 -0.1 0.27 -0.11 0.14 0.31 -0.29 0.12 -0.29 0.1 -0.29 0.09 -0.3 0.07 -0.29 0.06 -0.3 0.04 -0.29 0.02 -0.3 0.01 -0.29 0 -0.29 -0.02 -0.29 -0.03 -0.29 -0.04 -0.29 -0.06 -0.28 -0.07 -0.28 -0.09 -0.27 -0.1 -0.27 -0.11 -0.26 -0.12 -0.26 -0.14 -0.25 -0.15 -0.24 -0.16 -0.24 -0.17 -0.22 -0.19 -0.22 -0.19 -0.22 -0.21 -0.19 -0.22 -0.2 -0.23 -0.18 -0.24 -0.16 -0.25 -0.16 -0.26 -0.15 -0.27 -0.13 -0.28 0 0zm-10.28 -32.28l0.08 0.34 0.11 -0.25 0.56 1.14 0.52 1.12 0.49 1.1 0.45 1.08 0.42 1.06 0.39 1.05 0.36 1.03 0.34 1.03 0.32 1 0.3 1 0.28 0.99 0.27 0.98 0.25 0.97 0.25 0.96 0.23 0.96 0.23 0.96 0.23 0.95 0.22 0.95 0.23 0.95 0.23 0.95 0.23 0.95 0.24 0.95 0.26 0.96 0.26 0.96 0.28 0.97 0.3 0.97 0.31 0.98 0.34 0.99 0.36 1.01 0.39 1.01 0.42 1.03 0.44 1.04 -0.31 0.14 -0.45 -1.05 -0.42 -1.03 -0.39 -1.02 -0.36 -1.01 -0.34 -1 -0.32 -0.99 -0.3 -0.98 -0.28 -0.97 -0.26 -0.96 -0.26 -0.96 -0.24 -0.96 -0.24 -0.95 -0.22 -0.95 -0.23 -0.95 -0.22 -0.95 -0.23 -0.95 -0.23 -0.96 -0.24 -0.95 -0.24 -0.97 -0.25 -0.96 -0.27 -0.98 -0.28 -0.98 -0.3 -0.99 -0.31 -1.01 -0.34 -1.01 -0.36 -1.03 -0.39 -1.04 -0.42 -1.06 -0.45 -1.08 -0.48 -1.09 -0.52 -1.11 -0.55 -1.13 0.11 -0.25zm-0.11 0.25l-0.1 -0.2 0.21 -0.05 -0.11 0.25zm3.33 -1.3l0.14 0.31 0 0 -0.11 0.05 -0.1 0.04 -0.1 0.04 -0.1 0.05 -0.1 0.04 -0.1 0.04 -0.1 0.04 -0.1 0.04 -0.11 0.03 -0.1 0.04 -0.1 0.04 -0.1 0.04 -0.1 0.03 -0.11 0.04 -0.1 0.03 -0.1 0.04 -0.11 0.03 -0.1 0.03 -0.1 0.03 -0.1 0.04 -0.11 0.03 -0.1 0.03 -0.1 0.03 -0.11 0.02 -0.1 0.03 -0.1 0.03 -0.11 0.03 -0.1 0.02 -0.1 0.03 -0.11 0.02 -0.1 0.03 -0.1 0.02 -0.08 -0.34 0.1 -0.02 0.11 -0.02 0.1 -0.03 0.1 -0.02 0.1 -0.03 0.1 -0.02 0.1 -0.03 0.1 -0.03 0.1 -0.03 0.11 -0.02 0.1 -0.03 0.1 -0.03 0.1 -0.03 0.1 -0.04 0.1 -0.03 0.1 -0.03 0.1 -0.03 0.1 -0.04 0.1 -0.03 0.1 -0.04 0.1 -0.03 0.1 -0.04 0.1 -0.04 0.1 -0.03 0.1 -0.04 0.1 -0.04 0.1 -0.04 0.1 -0.04 0.1 -0.04 0.1 -0.05 0.1 -0.04 0.1 -0.04 0 0zm3.5 -1.8l-0.32 0.13 0.26 0.07 -0.1 0.07 -0.09 0.07 -0.1 0.07 -0.09 0.07 -0.1 0.06 -0.1 0.07 -0.1 0.06 -0.1 0.07 -0.1 0.06 -0.1 0.07 -0.09 0.06 -0.1 0.06 -0.11 0.07 -0.1 0.06 -0.1 0.06 -0.1 0.06 -0.11 0.06 -0.1 0.06 -0.11 0.05 -0.1 0.06 -0.11 0.06 -0.1 0.06 -0.11 0.05 -0.11 0.06 -0.11 0.05 -0.1 0.06 -0.11 0.05 -0.11 0.05 -0.11 0.05 -0.11 0.05 -0.11 0.05 -0.11 0.05 -0.14 -0.31 0.11 -0.05 0.1 -0.05 0.11 -0.05 0.11 -0.05 0.11 -0.05 0.1 -0.05 0.11 -0.06 0.11 -0.05 0.1 -0.05 0.11 -0.06 0.1 -0.05 0.1 -0.06 0.11 -0.06 0.1 -0.05 0.1 -0.06 0.1 -0.06 0.1 -0.06 0.1 -0.06 0.11 -0.06 0.09 -0.06 0.1 -0.06 0.1 -0.06 0.1 -0.06 0.1 -0.07 0.09 -0.06 0.1 -0.07 0.09 -0.06 0.1 -0.07 0.1 -0.06 0.09 -0.07 0.09 -0.07 0.09 -0.06 0.27 0.07zm-0.27 -0.07l0.18 -0.14 0.09 0.21 -0.27 -0.07zm-15.92 -27.44l-0.14 -0.32 0 0 0.3 -0.13 0.3 -0.12 0.31 -0.11 0.3 -0.1 0.31 -0.1 0.3 -0.08 0.31 -0.08 0.31 -0.07 0.31 -0.06 0.31 -0.06 0.3 -0.04 0.32 -0.04 0.3 -0.03 0.31 -0.03 0.31 -0.01 0.31 -0.01 0.31 0 0.31 0.01 0.3 0.01 0.31 0.03 0.3 0.03 0.31 0.04 0.3 0.04 0.3 0.05 0.3 0.06 0.3 0.07 0.3 0.07 0.29 0.08 0.29 0.09 0.29 0.09 0.29 0.11 0.28 0.11 -0.12 0.31 -0.28 -0.1 -0.28 -0.1 -0.28 -0.09 -0.29 -0.09 -0.28 -0.08 -0.29 -0.07 -0.29 -0.06 -0.29 -0.06 -0.29 -0.05 -0.3 -0.04 -0.29 -0.04 -0.3 -0.03 -0.3 -0.02 -0.29 -0.02 -0.3 -0.01 -0.3 0 -0.3 0.01 -0.3 0.02 -0.31 0.02 -0.3 0.03 -0.3 0.04 -0.3 0.04 -0.3 0.05 -0.3 0.06 -0.3 0.07 -0.3 0.08 -0.3 0.08 -0.29 0.1 -0.3 0.1 -0.3 0.11 -0.29 0.11 -0.29 0.13 0 0zm-6.49 6.84l-0.32 -0.12 0 0 0.11 -0.29 0.12 -0.28 0.12 -0.27 0.14 -0.28 0.13 -0.27 0.15 -0.27 0.15 -0.26 0.16 -0.27 0.16 -0.25 0.17 -0.26 0.18 -0.25 0.19 -0.24 0.18 -0.24 0.2 -0.24 0.2 -0.23 0.21 -0.23 0.21 -0.22 0.22 -0.22 0.23 -0.22 0.23 -0.2 0.23 -0.21 0.25 -0.19 0.25 -0.19 0.25 -0.19 0.26 -0.18 0.27 -0.18 0.27 -0.16 0.27 -0.16 0.28 -0.16 0.29 -0.15 0.29 -0.14 0.3 -0.14 0.14 0.32 -0.29 0.13 -0.29 0.14 -0.27 0.14 -0.28 0.15 -0.27 0.16 -0.26 0.16 -0.26 0.17 -0.25 0.18 -0.25 0.18 -0.24 0.19 -0.24 0.19 -0.23 0.2 -0.22 0.2 -0.22 0.2 -0.21 0.22 -0.21 0.21 -0.2 0.23 -0.2 0.22 -0.19 0.23 -0.18 0.24 -0.18 0.24 -0.17 0.24 -0.17 0.25 -0.16 0.25 -0.15 0.25 -0.15 0.26 -0.14 0.26 -0.14 0.26 -0.12 0.27 -0.13 0.27 -0.11 0.27 -0.11 0.28 0 0zm0.27 9.57l-0.32 0.14 0 0 -0.13 -0.31 -0.12 -0.31 -0.11 -0.31 -0.11 -0.31 -0.1 -0.31 -0.08 -0.31 -0.09 -0.31 -0.07 -0.31 -0.06 -0.32 -0.06 -0.31 -0.05 -0.31 -0.04 -0.32 -0.04 -0.31 -0.02 -0.32 -0.02 -0.31 -0.01 -0.31 0 -0.32 0 -0.31 0.02 -0.31 0.02 -0.31 0.02 -0.31 0.04 -0.31 0.04 -0.3 0.05 -0.31 0.06 -0.3 0.06 -0.3 0.07 -0.3 0.08 -0.3 0.08 -0.29 0.09 -0.29 0.1 -0.3 0.11 -0.28 0.32 0.12 -0.1 0.28 -0.1 0.28 -0.09 0.29 -0.08 0.28 -0.08 0.29 -0.06 0.29 -0.07 0.3 -0.05 0.29 -0.05 0.3 -0.04 0.3 -0.03 0.3 -0.03 0.3 -0.02 0.3 -0.01 0.3 -0.01 0.3 0 0.31 0.01 0.3 0.02 0.31 0.03 0.3 0.03 0.31 0.04 0.31 0.05 0.3 0.05 0.31 0.07 0.3 0.07 0.31 0.08 0.3 0.08 0.3 0.1 0.31 0.1 0.3 0.11 0.3 0.12 0.3 0.13 0.3 0 0zm6.89 6.64l-0.13 0.32 0 0 -0.28 -0.11 -0.29 -0.13 -0.27 -0.13 -0.28 -0.13 -0.27 -0.14 -0.27 -0.15 -0.26 -0.16 -0.27 -0.16 -0.25 -0.17 -0.26 -0.18 -0.25 -0.18 -0.24 -0.19 -0.25 -0.19 -0.24 -0.2 -0.23 -0.21 -0.23 -0.21 -0.22 -0.22 -0.22 -0.22 -0.22 -0.23 -0.21 -0.24 -0.2 -0.24 -0.2 -0.25 -0.19 -0.25 -0.19 -0.26 -0.18 -0.27 -0.18 -0.27 -0.17 -0.27 -0.16 -0.29 -0.16 -0.28 -0.15 -0.3 -0.15 -0.29 -0.14 -0.3 0.32 -0.14 0.13 0.29 0.14 0.29 0.15 0.29 0.15 0.27 0.17 0.28 0.16 0.27 0.17 0.26 0.18 0.26 0.18 0.25 0.19 0.25 0.19 0.24 0.2 0.24 0.21 0.23 0.21 0.22 0.21 0.22 0.22 0.21 0.22 0.21 0.23 0.2 0.23 0.19 0.24 0.19 0.24 0.19 0.24 0.17 0.25 0.17 0.25 0.17 0.25 0.16 0.26 0.15 0.26 0.14 0.27 0.14 0.27 0.13 0.27 0.13 0.27 0.12 0.28 0.11 0 0zm9.42 -0.18l0.14 0.32 0 0 -0.3 0.12 -0.3 0.13 -0.3 0.11 -0.31 0.1 -0.3 0.09 -0.31 0.09 -0.31 0.08 -0.31 0.07 -0.31 0.06 -0.3 0.06 -0.31 0.04 -0.31 0.04 -0.31 0.03 -0.31 0.02 -0.31 0.02 -0.31 0.01 -0.31 0 -0.31 -0.01 -0.3 -0.02 -0.31 -0.02 -0.3 -0.03 -0.31 -0.04 -0.3 -0.04 -0.3 -0.05 -0.3 -0.06 -0.3 -0.07 -0.29 -0.07 -0.3 -0.08 -0.29 -0.09 -0.29 -0.1 -0.29 -0.1 -0.28 -0.11 0.13 -0.32 0.27 0.11 0.28 0.1 0.28 0.09 0.29 0.09 0.28 0.07 0.29 0.08 0.29 0.06 0.29 0.06 0.3 0.05 0.29 0.04 0.29 0.04 0.3 0.03 0.3 0.02 0.3 0.02 0.3 0 0.3 0 0.3 0 0.3 -0.02 0.3 -0.02 0.3 -0.03 0.3 -0.04 0.3 -0.04 0.3 -0.06 0.3 -0.06 0.3 -0.06 0.3 -0.08 0.3 -0.08 0.3 -0.1 0.29 -0.1 0.3 -0.11 0.29 -0.11 0.29 -0.13 0 0zm6.49 -6.84l0.32 0.12 0 0 -0.11 0.28 -0.12 0.28 -0.12 0.28 -0.13 0.28 -0.14 0.27 -0.15 0.27 -0.15 0.26 -0.16 0.26 -0.16 0.26 -0.17 0.26 -0.18 0.24 -0.18 0.25 -0.19 0.24 -0.2 0.24 -0.2 0.23 -0.21 0.23 -0.21 0.22 -0.22 0.22 -0.22 0.21 -0.24 0.21 -0.23 0.2 -0.24 0.2 -0.25 0.19 -0.26 0.19 -0.26 0.18 -0.26 0.17 -0.27 0.17 -0.28 0.16 -0.28 0.16 -0.29 0.15 -0.29 0.14 -0.3 0.14 -0.14 -0.32 0.29 -0.13 0.29 -0.14 0.28 -0.14 0.27 -0.15 0.27 -0.16 0.26 -0.17 0.26 -0.16 0.25 -0.18 0.25 -0.18 0.24 -0.19 0.24 -0.19 0.23 -0.2 0.22 -0.2 0.22 -0.21 0.22 -0.21 0.2 -0.22 0.2 -0.22 0.2 -0.22 0.19 -0.23 0.19 -0.24 0.17 -0.24 0.18 -0.24 0.16 -0.25 0.16 -0.25 0.16 -0.25 0.14 -0.26 0.14 -0.26 0.14 -0.26 0.13 -0.27 0.12 -0.27 0.11 -0.28 0.11 -0.27 0 0zm-0.27 -9.57l0.32 -0.14 0 0 0.13 0.31 0.12 0.31 0.12 0.3 0.1 0.31 0.1 0.31 0.09 0.32 0.08 0.31 0.07 0.31 0.07 0.31 0.05 0.32 0.05 0.31 0.04 0.32 0.04 0.31 0.02 0.32 0.02 0.31 0.01 0.31 0 0.32 0 0.31 -0.01 0.31 -0.02 0.31 -0.03 0.31 -0.04 0.3 -0.04 0.31 -0.05 0.3 -0.05 0.31 -0.07 0.3 -0.07 0.3 -0.08 0.3 -0.08 0.29 -0.09 0.29 -0.1 0.29 -0.11 0.29 -0.32 -0.12 0.1 -0.28 0.1 -0.28 0.09 -0.29 0.08 -0.29 0.08 -0.28 0.07 -0.3 0.06 -0.29 0.05 -0.29 0.05 -0.3 0.04 -0.3 0.04 -0.3 0.02 -0.3 0.02 -0.3 0.02 -0.3 0 -0.31 0 -0.3 -0.01 -0.31 -0.02 -0.3 -0.03 -0.31 -0.03 -0.3 -0.04 -0.31 -0.04 -0.3 -0.06 -0.31 -0.06 -0.3 -0.07 -0.31 -0.08 -0.3 -0.09 -0.31 -0.1 -0.3 -0.1 -0.3 -0.11 -0.3 -0.12 -0.3 -0.13 -0.3 0 0zm-6.88 -6.65l0.12 -0.31 0 0 0.29 0.11 0.28 0.12 0.28 0.13 0.27 0.14 0.27 0.14 0.27 0.15 0.27 0.16 0.26 0.16 0.26 0.17 0.25 0.17 0.25 0.19 0.25 0.18 0.24 0.2 0.24 0.2 0.23 0.2 0.23 0.22 0.23 0.22 0.22 0.22 0.21 0.23 0.21 0.24 0.2 0.24 0.2 0.25 0.2 0.25 0.19 0.26 0.18 0.27 0.17 0.27 0.17 0.27 0.17 0.28 0.15 0.29 0.16 0.29 0.14 0.3 0.14 0.3 -0.32 0.14 -0.13 -0.29 -0.14 -0.29 -0.15 -0.29 -0.15 -0.28 -0.16 -0.27 -0.17 -0.27 -0.17 -0.26 -0.18 -0.26 -0.18 -0.25 -0.19 -0.25 -0.19 -0.24 -0.2 -0.24 -0.2 -0.23 -0.21 -0.22 -0.22 -0.22 -0.21 -0.21 -0.23 -0.21 -0.22 -0.2 -0.24 -0.2 -0.23 -0.18 -0.24 -0.19 -0.25 -0.17 -0.24 -0.18 -0.26 -0.16 -0.25 -0.16 -0.26 -0.15 -0.26 -0.15 -0.26 -0.14 -0.27 -0.13 -0.27 -0.12 -0.28 -0.12 -0.27 -0.12 0 0z"/>
  <path fill="#EAC9CA" d="M333.19 121.06c16.92,0 30.65,13.31 30.65,29.74 0,10.27 -5.37,19.32 -13.52,24.66 3.21,1.54 5.42,4.82 5.42,8.62 0,5.27 -4.27,9.55 -9.55,9.55 -5.27,0 -9.55,-4.28 -9.55,-9.55 0,-1.36 0.29,-2.66 0.8,-3.83 -1.39,0.19 -2.81,0.29 -4.25,0.29 -1.08,0 -2.14,-0.05 -3.19,-0.16 0.53,1.19 0.82,2.5 0.82,3.88 0,5.28 -4.27,9.55 -9.55,9.55 -5.27,0 -9.55,-4.27 -9.55,-9.55 0,-3.62 2.01,-6.76 4.98,-8.38 -8.52,-5.29 -14.16,-14.54 -14.16,-25.08 2.44,0.45 5.05,0.81 7.76,1.1l-19.75 -18.83c-0.4,-0.38 -0.41,-1.02 -0.03,-1.42l0 0c0.38,-0.39 1.01,-0.41 1.41,-0.03l21.59 20.59c7.28,0.61 14.98,0.77 21.67,0.77 -0.06,-10.08 0,-23.1 -2,-31.92zm13 60.52c1.38,0 2.5,1.12 2.5,2.5 0,1.38 -1.12,2.5 -2.5,2.5 -1.38,0 -2.5,-1.12 -2.5,-2.5 0,-1.38 1.12,-2.5 2.5,-2.5zm1.89 -4.79c-2.5,1.36 -5.21,2.38 -8.08,3.01 -0.84,1.22 -1.33,2.69 -1.33,4.28 0,4.16 3.37,7.53 7.52,7.53 4.16,0 7.53,-3.37 7.53,-7.53 0,-3.5 -2.4,-6.45 -5.64,-7.29zm-26.81 4.97c1.38,0 2.5,1.12 2.5,2.5 0,1.38 -1.12,2.5 -2.5,2.5 -1.38,0 -2.5,-1.12 -2.5,-2.5 0,-1.38 1.12,-2.5 2.5,-2.5zm6.22 -1.73c-3.04,-0.56 -5.93,-1.55 -8.58,-2.91 -3,0.99 -5.16,3.81 -5.16,7.14 0,4.16 3.37,7.53 7.52,7.53 4.16,0 7.53,-3.37 7.53,-7.53 0,-1.57 -0.48,-3.03 -1.31,-4.23z"/>
  <path fill="#EAC9CA" d="M60.72 11.67c-14.58,-5.86 -31.01,0.87 -36.69,15.02 -3.55,8.85 -2.06,18.51 3.12,25.93 -3.3,0.22 -6.35,2.28 -7.66,5.55 -1.82,4.55 0.38,9.71 4.93,11.53 4.54,1.83 9.7,-0.38 11.53,-4.92 0.47,-1.18 0.67,-2.39 0.63,-3.58 1.14,0.65 2.33,1.22 3.57,1.72 0.93,0.37 1.86,0.7 2.8,0.97 -0.86,0.84 -1.57,1.87 -2.05,3.06 -1.82,4.54 0.38,9.7 4.93,11.53 4.54,1.82 9.7,-0.38 11.53,-4.93 1.25,-3.11 0.6,-6.52 -1.39,-8.94 9.16,-1.61 17.23,-7.63 20.88,-16.71 -2.27,-0.46 -4.64,-1.05 -7.07,-1.74l23.52 -9.39c0.48,-0.19 0.71,-0.74 0.52,-1.21l0 0c-0.19,-0.48 -0.73,-0.71 -1.2,-0.52l-25.72 10.27c-6.49,-1.98 -13.18,-4.51 -18.94,-6.83 3.54,-8.66 7.99,-19.9 12.76,-26.81zm-32.14 47.65c-1.19,-0.48 -2.54,0.1 -3.02,1.29 -0.47,1.19 0.1,2.54 1.29,3.02 1.19,0.48 2.55,-0.1 3.02,-1.29 0.48,-1.19 -0.1,-2.54 -1.29,-3.02zm0.03 -4.78c1.69,2.03 3.67,3.85 5.92,5.39 0.31,1.34 0.22,2.78 -0.33,4.15 -1.43,3.58 -5.5,5.31 -9.08,3.88 -3.58,-1.44 -5.32,-5.51 -3.88,-9.09 1.21,-3.02 4.29,-4.73 7.37,-4.33zm21.38 13.56c-1.19,-0.48 -2.54,0.1 -3.02,1.29 -0.47,1.19 0.1,2.54 1.29,3.02 1.19,0.47 2.55,-0.1 3.02,-1.29 0.48,-1.2 -0.1,-2.55 -1.29,-3.02zm-4.75 -3.65c2.81,0.57 5.64,0.72 8.4,0.46 2.24,1.89 3.12,5.08 1.97,7.94 -1.44,3.58 -5.5,5.32 -9.08,3.88 -3.59,-1.43 -5.32,-5.5 -3.89,-9.08 0.55,-1.36 1.47,-2.45 2.6,-3.2z"/>
  <path fill="#EAC9CA" d="M159.91 189.61l-3.42 10.54 -30.89 0 2.67 -8.24c-0.02,-0.14 -0.02,-0.26 0.02,-0.38 0.04,-0.12 0.11,-0.22 0.21,-0.32l3.45 -10.67c-0.01,-0.16 0.01,-0.31 0.05,-0.45 0.3,-0.92 1.8,-1.35 4.05,-1.34l1.46 -4.51c0.37,-1.15 1.62,-1.78 2.77,-1.41l0.18 0.06c2.42,-3.23 6.39,-1.37 7.88,-3.39 1.02,-1.63 -0.71,-2.58 0.16,-5.26 0.6,-1.87 2.79,-2.83 4.88,-2.15 2.1,0.67 3.3,2.74 2.7,4.61 -0.87,2.69 -2.53,2.14 -2.97,4.4 -0.09,2.69 4.27,3.36 4.39,7.32l0.19 0.06c1.15,0.37 1.79,1.61 1.41,2.76l-1.46 4.51c1.83,1.31 2.79,2.55 2.5,3.46 -0.05,0.14 -0.13,0.28 -0.23,0.4z"/>
  <path fill="#EAC9CA" fill-rule="nonzero" d="M281.29 180.48l-2.42 0 0 0 -0.01 -0.23 -0.01 -0.23 -0.03 -0.22 -0.04 -0.22 -0.05 -0.22 -0.06 -0.21 -0.07 -0.21 -0.08 -0.2 -0.09 -0.2 -0.1 -0.2 -0.11 -0.18 -0.12 -0.19 -0.12 -0.17 -0.13 -0.17 -0.15 -0.16 -0.14 -0.16 -0.16 -0.15 -0.16 -0.14 -0.17 -0.14 -0.18 -0.12 -0.18 -0.12 -0.19 -0.1 -0.19 -0.1 -0.2 -0.09 -0.2 -0.08 -0.21 -0.07 -0.21 -0.06 -0.22 -0.05 -0.22 -0.04 -0.23 -0.03 -0.22 -0.02 -0.24 0 0 -2.43 0.36 0.01 0.35 0.03 0.34 0.04 0.34 0.06 0.34 0.08 0.33 0.09 0.32 0.11 0.31 0.13 0.31 0.14 0.3 0.15 0.29 0.16 0.28 0.18 0.27 0.2 0.26 0.2 0.25 0.22 0.24 0.23 0.23 0.24 0.21 0.25 0.21 0.26 0.19 0.27 0.18 0.28 0.17 0.29 0.15 0.3 0.14 0.3 0.12 0.32 0.11 0.32 0.09 0.33 0.08 0.33 0.06 0.34 0.05 0.35 0.02 0.35 0.01 0.35 0 0zm-6.91 6.91l0 -2.42 0 0 0.24 -0.01 0.22 -0.01 0.23 -0.03 0.22 -0.04 0.22 -0.05 0.21 -0.06 0.21 -0.07 0.2 -0.08 0.2 -0.09 0.19 -0.1 0.19 -0.11 0.18 -0.12 0.18 -0.12 0.17 -0.13 0.16 -0.15 0.16 -0.15 0.14 -0.15 0.15 -0.17 0.13 -0.17 0.12 -0.17 0.12 -0.18 0.11 -0.19 0.1 -0.19 0.09 -0.2 0.08 -0.2 0.07 -0.21 0.06 -0.22 0.05 -0.21 0.04 -0.22 0.03 -0.23 0.01 -0.23 0.01 -0.23 2.42 0 -0.01 0.36 -0.02 0.35 -0.05 0.34 -0.06 0.34 -0.08 0.34 -0.09 0.33 -0.11 0.32 -0.12 0.31 -0.14 0.31 -0.15 0.29 -0.17 0.3 -0.18 0.28 -0.19 0.27 -0.21 0.26 -0.21 0.25 -0.23 0.24 -0.24 0.23 -0.25 0.21 -0.26 0.21 -0.27 0.19 -0.28 0.18 -0.29 0.17 -0.3 0.15 -0.31 0.14 -0.31 0.12 -0.32 0.11 -0.33 0.09 -0.34 0.08 -0.34 0.06 -0.34 0.05 -0.35 0.02 -0.36 0.01 0 0zm-6.9 -6.91l2.42 0 0 0 0 0.23 0.02 0.23 0.03 0.23 0.04 0.22 0.05 0.21 0.06 0.22 0.07 0.21 0.08 0.2 0.09 0.2 0.1 0.19 0.11 0.19 0.11 0.18 0.13 0.17 0.13 0.17 0.14 0.17 0.15 0.15 0.16 0.15 0.16 0.15 0.17 0.13 0.18 0.12 0.18 0.12 0.18 0.11 0.2 0.1 0.2 0.09 0.2 0.08 0.21 0.07 0.21 0.06 0.22 0.05 0.22 0.04 0.23 0.03 0.22 0.01 0.23 0.01 0 2.42 -0.35 -0.01 -0.35 -0.02 -0.35 -0.05 -0.34 -0.06 -0.33 -0.08 -0.33 -0.09 -0.32 -0.11 -0.32 -0.12 -0.3 -0.14 -0.3 -0.15 -0.29 -0.17 -0.28 -0.18 -0.27 -0.19 -0.26 -0.21 -0.25 -0.21 -0.24 -0.23 -0.23 -0.24 -0.22 -0.25 -0.2 -0.26 -0.19 -0.27 -0.18 -0.28 -0.17 -0.3 -0.15 -0.29 -0.14 -0.31 -0.13 -0.31 -0.1 -0.32 -0.1 -0.33 -0.08 -0.34 -0.06 -0.34 -0.04 -0.34 -0.03 -0.35 0 -0.36 0 0zm6.9 -6.91l0 2.43 0 0 -0.23 0 -0.22 0.02 -0.23 0.03 -0.22 0.04 -0.22 0.05 -0.21 0.06 -0.21 0.07 -0.2 0.08 -0.2 0.09 -0.2 0.1 -0.18 0.1 -0.18 0.12 -0.18 0.12 -0.17 0.14 -0.16 0.14 -0.16 0.15 -0.15 0.16 -0.14 0.16 -0.13 0.17 -0.13 0.17 -0.11 0.19 -0.11 0.18 -0.1 0.2 -0.09 0.2 -0.08 0.2 -0.07 0.21 -0.06 0.21 -0.05 0.22 -0.04 0.22 -0.03 0.22 -0.02 0.23 0 0.23 -2.42 0 0 -0.35 0.03 -0.35 0.04 -0.35 0.06 -0.34 0.08 -0.33 0.1 -0.33 0.1 -0.32 0.13 -0.32 0.14 -0.3 0.15 -0.3 0.17 -0.29 0.18 -0.28 0.19 -0.27 0.2 -0.26 0.22 -0.25 0.23 -0.24 0.24 -0.23 0.25 -0.22 0.26 -0.2 0.27 -0.2 0.28 -0.18 0.29 -0.16 0.3 -0.15 0.3 -0.14 0.32 -0.13 0.32 -0.11 0.33 -0.09 0.33 -0.08 0.34 -0.06 0.35 -0.04 0.35 -0.03 0.35 -0.01 0 0z"/>
  <path fill="#FEFEFE" fill-rule="nonzero" d="M275.48 54.37l-177.96 0 0 -1.51 177.96 0 0 0 0 1.51zm11.53 10.01l-1.52 0 0 0 -0.01 -0.51 -0.04 -0.51 -0.06 -0.5 -0.09 -0.49 -0.11 -0.48 -0.14 -0.48 -0.16 -0.46 -0.18 -0.45 -0.2 -0.45 -0.22 -0.43 -0.24 -0.42 -0.26 -0.4 -0.28 -0.4 -0.3 -0.38 -0.31 -0.36 -0.34 -0.35 -0.35 -0.33 -0.36 -0.32 -0.38 -0.29 -0.39 -0.28 -0.41 -0.27 -0.42 -0.24 -0.43 -0.22 -0.44 -0.2 -0.46 -0.18 -0.46 -0.16 -0.47 -0.13 -0.49 -0.11 -0.49 -0.09 -0.5 -0.07 -0.5 -0.04 -0.52 -0.01 0 -1.51 0.59 0.01 0.59 0.05 0.57 0.07 0.57 0.1 0.56 0.13 0.54 0.16 0.54 0.18 0.52 0.21 0.51 0.23 0.5 0.25 0.48 0.28 0.47 0.3 0.45 0.32 0.43 0.35 0.42 0.36 0.4 0.38 0.38 0.4 0.37 0.42 0.34 0.44 0.32 0.45 0.3 0.47 0.28 0.48 0.26 0.49 0.23 0.51 0.2 0.53 0.19 0.53 0.15 0.55 0.13 0.55 0.1 0.57 0.08 0.58 0.04 0.58 0.02 0.59 0 0zm-1.52 71.88l0 -71.88 1.52 0 0 71.88 0 0 -1.52 0zm-10.01 11.53l0 -1.52 0 0 0.52 -0.01 0.5 -0.04 0.5 -0.06 0.49 -0.09 0.49 -0.11 0.47 -0.14 0.46 -0.16 0.46 -0.18 0.44 -0.2 0.43 -0.22 0.42 -0.24 0.41 -0.26 0.39 -0.28 0.38 -0.3 0.36 -0.31 0.35 -0.34 0.34 -0.35 0.31 -0.36 0.3 -0.38 0.28 -0.39 0.26 -0.41 0.24 -0.42 0.22 -0.43 0.2 -0.44 0.18 -0.45 0.16 -0.47 0.14 -0.47 0.11 -0.49 0.09 -0.49 0.06 -0.5 0.04 -0.5 0.01 -0.52 1.52 0 -0.02 0.59 -0.04 0.59 -0.08 0.57 -0.1 0.57 -0.13 0.56 -0.15 0.54 -0.18 0.54 -0.21 0.52 -0.23 0.51 -0.26 0.5 -0.28 0.48 -0.3 0.47 -0.32 0.45 -0.34 0.43 -0.37 0.42 -0.38 0.4 -0.4 0.39 -0.42 0.36 -0.43 0.34 -0.45 0.32 -0.47 0.3 -0.48 0.28 -0.5 0.26 -0.51 0.23 -0.52 0.21 -0.54 0.18 -0.54 0.15 -0.56 0.13 -0.57 0.1 -0.57 0.08 -0.59 0.04 -0.59 0.02 0 0zm-177.96 -1.52l177.96 0 0 1.52 -177.96 0 0 0 0 -1.52zm-11.53 -10.01l1.52 0 0 0 0.01 0.52 0.04 0.5 0.06 0.5 0.09 0.49 0.11 0.49 0.14 0.47 0.16 0.47 0.17 0.45 0.21 0.44 0.22 0.43 0.24 0.42 0.26 0.41 0.28 0.39 0.3 0.38 0.31 0.36 0.34 0.35 0.35 0.34 0.36 0.31 0.38 0.3 0.39 0.28 0.41 0.26 0.42 0.24 0.43 0.22 0.44 0.2 0.45 0.18 0.47 0.16 0.47 0.14 0.49 0.11 0.49 0.09 0.5 0.06 0.5 0.04 0.52 0.01 0 1.52 -0.59 -0.02 -0.59 -0.04 -0.57 -0.08 -0.57 -0.1 -0.56 -0.13 -0.54 -0.15 -0.54 -0.18 -0.52 -0.21 -0.51 -0.23 -0.5 -0.26 -0.48 -0.28 -0.47 -0.3 -0.45 -0.32 -0.43 -0.34 -0.42 -0.36 -0.4 -0.39 -0.39 -0.4 -0.36 -0.42 -0.34 -0.43 -0.32 -0.45 -0.3 -0.47 -0.28 -0.48 -0.26 -0.5 -0.23 -0.51 -0.21 -0.52 -0.18 -0.54 -0.15 -0.54 -0.13 -0.56 -0.1 -0.57 -0.08 -0.57 -0.04 -0.59 -0.02 -0.59 0 0zm1.52 -71.88l0 71.88 -1.52 0 0 -71.88 0 0 1.52 0zm10.01 -11.52l0 1.51 0 0 -0.52 0.01 -0.5 0.04 -0.5 0.07 -0.49 0.09 -0.49 0.11 -0.47 0.13 -0.47 0.16 -0.45 0.18 -0.44 0.2 -0.43 0.22 -0.42 0.24 -0.41 0.27 -0.39 0.28 -0.38 0.29 -0.36 0.32 -0.35 0.33 -0.34 0.35 -0.31 0.36 -0.3 0.38 -0.28 0.4 -0.26 0.4 -0.24 0.42 -0.22 0.43 -0.21 0.45 -0.18 0.45 -0.15 0.46 -0.14 0.48 -0.11 0.48 -0.09 0.49 -0.06 0.5 -0.04 0.51 -0.01 0.51 -1.52 0 0.02 -0.59 0.04 -0.58 0.08 -0.58 0.1 -0.57 0.13 -0.55 0.15 -0.55 0.18 -0.53 0.21 -0.53 0.23 -0.51 0.26 -0.49 0.28 -0.48 0.3 -0.47 0.32 -0.45 0.34 -0.44 0.36 -0.42 0.39 -0.4 0.4 -0.38 0.42 -0.36 0.43 -0.35 0.45 -0.32 0.47 -0.3 0.48 -0.28 0.5 -0.25 0.51 -0.23 0.52 -0.21 0.54 -0.18 0.54 -0.16 0.56 -0.13 0.57 -0.1 0.57 -0.07 0.59 -0.05 0.59 -0.01 0 0z"/>
</svg>
