<svg xmlns="http://www.w3.org/2000/svg" xml:space="preserve" width="373px" height="200px" version="1.1" style="shape-rendering:geometricPrecision; text-rendering:geometricPrecision; image-rendering:optimizeQuality; fill-rule:evenodd; clip-rule:evenodd" viewBox="0 0 373 200"  xmlns:xlink="http://www.w3.org/1999/xlink">
  <path fill="#C4D985" d="M11.21 0.5l350.58 0c6.17,0 11.21,5.04 11.21,11.21l0 177.23c0,6.16 -5.04,11.21 -11.21,11.21l-350.58 0c-6.17,0 -11.21,-5.05 -11.21,-11.21l0 -177.23c0,-6.17 5.04,-11.21 11.21,-11.21z"/>
  <path fill="#C4D985" d="M11.21 0.5l350.58 0c6.17,0 11.21,5.04 11.21,11.21l0 177.23c0,6.16 -5.04,11.21 -11.21,11.21l-350.58 0c-6.17,0 -11.21,-5.05 -11.21,-11.21l0 -177.23c0,-6.17 5.04,-11.21 11.21,-11.21zm86.31 53.11l177.96 0c5.93,0 10.77,4.85 10.77,10.77l0 71.88c0,5.93 -4.84,10.77 -10.77,10.77l-177.96 0c-5.93,0 -10.77,-4.84 -10.77,-10.77l0 -71.88c0,-5.92 4.84,-10.77 10.77,-10.77z"/>
  <path fill="#BDD180" d="M322.75 145.32l0.17 -0.04 0.01 0 -0.18 0.04c-2.19,0.61 -14.42,15.23 -11.49,22.47 0.56,2.03 2.79,3.18 4.98,2.57 2.19,-0.6 3.51,-2.74 2.95,-4.76 -0.38,-1.39 2.6,-9.61 5.6,-11.38 -3,5.48 -2.62,16.68 -1.55,20.56 1.08,3.88 6.9,19.67 13.78,19.15 3.39,-0.12 4.87,-2.63 4.15,-4.52 -0.81,-2.15 -4.08,-3.8 -3.78,-5.47 0.92,-5.01 0.66,-8.95 4.39,-9.12 0.56,-0.02 6.53,4.27 7.13,6.51 -1.3,5.99 1.19,8.69 4.5,7.51 9.15,-3.25 4.13,-21.42 3.12,-25.08 -1.02,-3.66 -6.73,-10.44 -10.9,-14.31 3.81,1.38 9.09,5.39 9.4,6.53 0.56,2.03 2.79,3.18 4.98,2.58 2.19,-0.61 3.51,-2.74 2.95,-4.77 -1.2,-7.71 -19.2,-13.98 -21.39,-13.38l-0.01 0c4.14,-2.27 5.74,-6.39 4.51,-10.84 -0.39,-1.42 -7.91,-6.51 -8.15,-10.41 -0.71,-11.41 4.9,-26.95 -8.15,-23.53 -7.12,1.87 3.56,18.95 3.43,21.73 -2.57,-0.71 -5.43,-0.75 -8.01,-0.04 -2.34,0.65 -3.53,0.82 -6.12,3.98 -1.55,-2.32 -7.68,-22.05 -14.77,-16.52 -11.38,8.87 12.54,9.29 12.59,21.04 0.01,3.31 -3.61,9.83 -2.82,12.91 1.03,4.04 4.3,6.52 8.85,6.55l-0.17 0.04zm11.46 -27.64l-0.1 -0.04 -0.15 -0.05 -0.03 -0.01 -0.02 0c-0.06,-0.02 -0.12,-0.04 -0.18,-0.06l-0.07 -0.02 -0.15 -0.05 -0.12 -0.04 -0.13 -0.03 -0.06 -0.02c5.02,2.15 3.26,1.14 1.01,0.32zm7.36 22.73c0,0 0,0 0,0z"/>
  <path fill="#BDD180" fill-rule="nonzero" d="M64.37 127.72c4.96,1.89 10.03,5.37 14.98,10.76 5.04,1.93 11.02,4.31 14.97,7.88 4.1,3.69 6.03,8.58 2.59,15.39 -1.8,3.59 -8.74,5.4 -11.59,0.32 -3.53,-3.58 -13.74,-6.52 -19.35,5.55 -0.99,2.13 -3.22,3.58 -5.75,4.38 -2.98,0.95 -5.69,0.91 -7.89,0.17 -3.81,-1.28 -5.83,-5.22 -8.46,-6.1 -10.08,-5.21 -18.14,2.56 -18.21,8.99 -0.31,1.07 -0.59,2.05 -0.92,2.85 -0.74,1.75 -1.69,2.66 -3.47,1.91l-0.03 -0.01c-3.02,-1.42 -5.14,-4.22 -6.13,-7.49 -0.99,-3.3 -0.84,-7.08 0.67,-10.43 1.45,-3.18 4.34,-5.8 6.9,-8.11 2.02,-1.84 3.82,-3.47 4.37,-4.91 2.37,-6.21 5.91,-11.57 10.24,-15.53 3.67,-3.36 7.91,-5.72 12.5,-6.77 4.59,-1.05 9.53,-0.77 14.58,1.15zm-5.36 15.5c-0.01,-1.29 -0.02,-2.63 -0.35,-3.69 -1.04,-3.4 -0.14,-5.12 1.71,-5.7 1.91,-0.58 4.89,0.24 7.65,1.74 2.72,1.48 5.28,3.63 6.4,5.73 1.11,2.09 0.91,4.12 -1.66,5.48 -1.79,0.96 -3.49,1.52 -5.3,1.78 -1.81,0.27 -3.71,0.23 -5.92,-0.01 -2.49,-0.27 -2.51,-2.69 -2.53,-5.33zm-13.52 -7.58c0.43,-0.04 0.86,-0.05 1.3,-0.03l0.06 0 0.03 0.01c0.19,0.04 0.4,0.1 0.63,0.19 1.33,0.5 3.2,1.84 4.62,3.57 1.45,1.77 2.45,3.98 2,6.19 -0.06,0.28 -0.14,0.57 -0.25,0.85 -2.08,5.48 -6.73,6.27 -11.97,7.17 -0.66,0.12 -1.32,0.23 -2.01,0.36 -1.87,0.35 -3.69,0.52 -5.13,0.14 -1.57,-0.41 -2.67,-1.43 -2.84,-3.46 -0.04,-0.44 -0.05,-0.88 -0.03,-1.32 0.16,-3.37 1.99,-6.65 4.56,-9.16 2.57,-2.5 5.89,-4.24 9.03,-4.51zm45.05 14.88c0.11,-1.7 0.91,-2.93 2.8,-2.81l0.11 0.01 0.09 0.04c0.49,0.22 0.96,0.54 1.39,0.92 0.95,0.87 1.71,2.12 2.07,3.47 0.38,1.37 0.36,2.85 -0.24,4.18 -0.23,0.51 -0.54,1 -0.95,1.45 -0.8,0.88 -1.73,0.71 -2.61,-0.09 -0.74,-0.68 -1.45,-1.88 -1.95,-3.2 -0.5,-1.31 -0.79,-2.77 -0.71,-3.97z"/>
  <path fill="#C4D985" fill-rule="nonzero" d="M45.49 135.64c0.43,-0.04 0.86,-0.05 1.3,-0.03l0.06 0 0.03 0.01c0.19,0.04 0.4,0.1 0.63,0.19 1.33,0.5 3.2,1.84 4.62,3.57 1.45,1.77 2.45,3.98 2,6.19 -0.06,0.28 -0.14,0.57 -0.25,0.85 -2.08,5.48 -6.73,6.27 -11.97,7.17 -0.66,0.12 -1.32,0.23 -2.01,0.36 -1.87,0.35 -3.69,0.52 -5.13,0.14 -1.57,-0.41 -2.67,-1.43 -2.84,-3.46 -0.04,-0.44 -0.05,-0.88 -0.03,-1.32 0.16,-3.37 1.99,-6.65 4.56,-9.16 2.57,-2.5 5.89,-4.24 9.03,-4.51z"/>
  <path fill="#C4D985" fill-rule="nonzero" d="M59.01 143.22c-0.01,-1.29 -0.02,-2.63 -0.35,-3.69 -1.04,-3.4 -0.14,-5.12 1.71,-5.7 1.91,-0.58 4.89,0.24 7.65,1.74 2.72,1.48 5.28,3.63 6.4,5.73 1.11,2.09 0.91,4.12 -1.66,5.48 -1.79,0.96 -3.49,1.52 -5.3,1.78 -1.81,0.27 -3.71,0.23 -5.92,-0.01 -2.49,-0.27 -2.51,-2.69 -2.53,-5.33z"/>
  <path fill="#BDD180" fill-rule="nonzero" d="M92.79 147.42c-1.85,0.06 -2.71,1.11 -2.92,2.49 -0.21,1.41 0.18,3.14 0.92,4.71 0.73,1.55 1.78,2.91 2.89,3.62 0.66,0.42 1.15,0.57 1.65,0.17 0.63,-0.51 1.13,-1.05 1.51,-1.62 0.99,-1.5 0.76,-3.1 0.27,-4.61 -0.49,-1.53 -1.07,-2.99 -2.51,-3.91 -0.56,-0.36 -1.17,-0.65 -1.81,-0.85zm-17.13 18.18c-0.02,0.02 -0.04,0.04 -0.06,0.05 -0.32,0.29 -0.51,0.82 -0.57,1.35 -0.06,0.52 0,1.01 0.19,1.25 0.01,0.01 0.02,0.02 0.02,0.03l0 0c0.42,0.46 1.06,0.67 1.73,0.65 0.69,-0.03 1.4,-0.3 1.94,-0.79l0 0c0.4,-0.37 0.47,-0.78 0.34,-1.17 -0.09,-0.24 -0.25,-0.48 -0.45,-0.71 -0.23,-0.23 -0.5,-0.44 -0.8,-0.6 -0.77,-0.42 -1.71,-0.55 -2.34,-0.06zm-58.29 1.93c-0.34,0.02 -0.49,0.33 -0.52,0.73 -0.03,0.54 0.11,1.22 0.35,1.85 0.23,0.61 0.54,1.16 0.86,1.44 0.09,0.09 0.16,0.13 0.18,0.11 0.16,-0.18 0.29,-0.37 0.38,-0.57 0.24,-0.54 0.24,-1.16 0.08,-1.74 -0.16,-0.59 -0.48,-1.14 -0.89,-1.51 -0.14,-0.13 -0.29,-0.23 -0.44,-0.31zm-1.67 0.65c0.07,-1.1 0.6,-1.89 1.84,-1.81l0.11 0.01 0.09 0.04c0.3,0.13 0.59,0.33 0.85,0.56 0.57,0.52 1.02,1.26 1.23,2.07 0.23,0.82 0.21,1.71 -0.14,2.51 -0.14,0.31 -0.33,0.61 -0.58,0.88 -0.57,0.63 -1.22,0.52 -1.83,-0.03 -0.44,-0.41 -0.86,-1.12 -1.16,-1.9 -0.28,-0.76 -0.46,-1.62 -0.41,-2.33zm58.89 9.84c2.47,0.61 4.53,0.43 6.18,-0.26 1.3,-0.54 2.35,-1.39 3.15,-2.41 0.81,-1.02 1.37,-2.22 1.67,-3.44 0.42,-1.72 0.35,-3.46 -0.23,-4.85l0 -0.02c-0.53,-1.39 -1.27,-2.52 -2.15,-3.39 -1.34,-1.35 -3.01,-2.12 -4.74,-2.4 -1.75,-0.28 -3.55,-0.08 -5.16,0.54 -1.18,0.44 -2.24,1.11 -3.09,1.95 -0.89,0.89 -1.56,1.97 -1.98,3.14 -0.49,1.37 -0.63,2.86 -0.34,4.33 0.3,1.45 1.02,2.88 2.26,4.11 1.07,1.08 2.54,2.02 4.43,2.7zm0.23 -13.22c0.05,-0.05 0.09,-0.09 0.14,-0.12 1.03,-0.8 2.45,-0.65 3.59,-0.04 0.41,0.22 0.78,0.51 1.09,0.83 0.31,0.33 0.56,0.72 0.7,1.12 0.28,0.81 0.15,1.67 -0.65,2.4l-0.02 0.02 0 0.01c-0.74,0.67 -1.72,1.04 -2.66,1.07 -0.97,0.03 -1.91,-0.29 -2.57,-0.98l-0.01 0 -0.04 -0.05c-0.04,-0.04 -0.07,-0.07 -0.09,-0.1 -0.37,-0.48 -0.51,-1.29 -0.42,-2.09 0.09,-0.78 0.4,-1.58 0.94,-2.07zm-41.19 8.19c0.11,0.48 0.3,0.87 0.56,1.19 0.41,0.5 0.97,0.82 1.59,0.98 0.64,0.17 1.34,0.17 2,0.02l0 0c0.55,-0.13 1.07,-0.37 1.48,-0.7 0.18,-0.15 0.33,-0.31 0.45,-0.49 0.38,-0.52 0.56,-1.19 0.54,-1.85 -0.02,-0.65 -0.23,-1.3 -0.64,-1.81 -0.14,-0.18 -0.31,-0.33 -0.49,-0.46 -0.64,-0.46 -1.47,-0.68 -2.3,-0.68 -0.69,0 -1.37,0.16 -1.93,0.48 -0.54,0.3 -0.97,0.75 -1.2,1.34 -0.2,0.53 -0.25,1.19 -0.06,1.98zm3.24 -7.35c-4.72,0.54 -7.36,2.6 -8.35,5.13 -0.45,1.13 -0.57,2.35 -0.4,3.58 0.16,1.24 0.62,2.48 1.33,3.62 1.93,3.1 5.71,5.45 10.55,5.11 2.28,-0.16 4.04,-1.26 5.26,-2.83 1.42,-1.84 2.13,-4.31 2.07,-6.71 0,-0.11 -0.01,-0.22 -0.02,-0.35 -0.19,-2.25 -1.64,-4.16 -3.56,-5.49 -1.96,-1.37 -4.38,-2.13 -6.45,-2.08 -0.14,0 -0.28,0.01 -0.43,0.02l0 0zm-3.58 9.27c-0.36,-0.45 -0.64,-1 -0.79,-1.66 -0.24,-1.03 -0.17,-1.91 0.11,-2.65 0.33,-0.87 0.95,-1.51 1.71,-1.94 0.74,-0.42 1.62,-0.63 2.49,-0.63 1.06,-0.01 2.13,0.29 2.98,0.89 0.28,0.2 0.52,0.43 0.72,0.68 0.57,0.71 0.87,1.61 0.9,2.51 0.02,0.91 -0.23,1.82 -0.75,2.55 -0.19,0.27 -0.42,0.51 -0.67,0.72 -0.55,0.44 -1.23,0.76 -1.95,0.93l0 0c-0.83,0.19 -1.72,0.19 -2.55,-0.03 -0.85,-0.22 -1.63,-0.67 -2.2,-1.37z"/>
  <path fill="#BDD180" d="M49.77 38.84l-0.16 0.06 0 0.01 0.16 -0.07c2.13,-0.84 20.84,3.52 22.86,11.13 0.78,1.97 -0.32,4.24 -2.45,5.08 -2.13,0.84 -4.48,-0.07 -5.26,-2.04 -0.53,-1.35 -7.91,-6.17 -11.4,-5.78 3.74,1.69 7.53,5.25 10.14,8.56l0.01 0.01 0.11 0.15 0.01 0.01 0.05 0.07 0.01 0.01 0.05 0.06 0.06 0.08 0.01 0.02 0.01 0.01 0.04 0.05 0.02 0.03 0.04 0.05 0.06 0.07 0.01 0.02 0.02 0.02 0.03 0.04 0.03 0.04 0.02 0.04 0.06 0.08 0.02 0.03 0.02 0.02 0.02 0.02 0.04 0.06 0.01 0.02 0.06 0.08 0.03 0.04 0.01 0.02 0.01 0.01 0.05 0.07 0.01 0.01 0.05 0.08 0 0 0.05 0.07 0.01 0.01 0.05 0.07 0 0.01 0.05 0.06 0 0 0.01 0.02 0.04 0.06 0.01 0.02 0.04 0.05 0.02 0.03 0 0 0.03 0.05 0.02 0.03 0.03 0.04 0.02 0.04 0.01 0.01 0.02 0.03 0.08 0.11 0 0 0.02 0.03 0.03 0.05 0 0 0.02 0.03 0.03 0.05 0.02 0.02 0.03 0.06 0.01 0.01 0.04 0.06 0 0.01 0.01 0.01 0.04 0.06 0 0.01 0.09 0.14 0.01 0.01 0.04 0.06 0 0.01c2.18,3.58 4.2,10.05 5.22,13.65l0 0 0.08 0.31 0.09 0.31 0.07 0.29 0.02 0.05c0.19,0.71 0.36,1.43 0.52,2.14l0.01 0.05c0.04,0.18 0.08,0.36 0.12,0.54l0.01 0.08c1.07,5.16 1.16,10.17 -1.54,12.58 -10.15,5.11 -7.98,-3.57 -8.8,-7.79 -0.59,-2.45 -2.5,-3.49 -4.09,-4.07l-0.04 -0.01 -0.05 -0.02 -0.04 -0.02 -0.05 -0.01 -0.05 -0.02 -0.06 -0.01 -0.03 -0.01 -0.07 -0.02 -0.03 0 -0.06 -0.02 -0.05 -0.01 -0.04 0 -0.01 -0.01 -0.09 -0.01 -0.01 0 -0.09 -0.01 -0.07 -0.01 -0.03 0 -0.06 -0.01 -0.03 0 -0.06 0 -0.04 -0.01 -0.06 0 -0.04 0 -0.06 0 -0.04 0.01 -0.06 0 -0.05 0 -0.05 0.01 -0.04 0 -0.06 0.01c-0.03,0 -0.06,0 -0.09,0.01l-0.01 0 -0.02 0 -0.08 0.01 -0.04 0.01 -0.06 0.01 -0.05 0.01 -0.05 0.02 -0.04 0.01 -0.06 0.01 -0.04 0.01 -0.06 0.02 -0.05 0.02 -0.06 0.01 -0.04 0.02 -0.06 0.02 -0.04 0.01 -0.01 0.01 -0.1 0.03c-0.04,0.02 -0.07,0.04 -0.11,0.05l-0.03 0.01 -0.09 0.05 -0.03 0.01c-0.03,0.02 -0.07,0.04 -0.1,0.06l-0.03 0.02 -0.09 0.05 -0.03 0.01c-0.03,0.02 -0.07,0.05 -0.11,0.07l-0.01 0.01c-0.03,0.02 -0.06,0.04 -0.09,0.06l-0.03 0.03c-0.04,0.02 -0.07,0.05 -0.11,0.07l0 0.01c-0.04,0.02 -0.07,0.05 -0.1,0.08l-0.03 0.02 -0.09 0.08 -0.01 0.01c-0.04,0.03 -0.07,0.06 -0.1,0.09l-0.04 0.04 -0.06 0.05 -0.04 0.04 -0.09 0.09 -0.01 0.01 -0.01 0.02 -0.08 0.08 -0.03 0.03 -0.08 0.1 -0.01 0.01 -0.01 0c-0.02,0.04 -0.05,0.07 -0.08,0.11l-0.03 0.03 -0.07 0.09 -0.02 0.03 -0.08 0.11 -0.03 0.04 -0.06 0.09 -0.03 0.04 -0.07 0.1 -0.01 0.02 0 0 -0.01 0.02c-0.03,0.04 -0.05,0.08 -0.08,0.12l-0.01 0.01 -0.07 0.12 -0.01 0.02 -0.01 0.01c-0.02,0.04 -0.04,0.09 -0.07,0.13l-0.01 0.03 -0.06 0.11 -0.02 0.03 -0.07 0.13 0 0.02 -0.02 0.03 -0.05 0.1 -0.02 0.05c-0.02,0.04 -0.04,0.09 -0.06,0.14l0 0 0 0c-0.02,0.05 -0.04,0.1 -0.06,0.14l-0.02 0.04 -0.05 0.12 0 0.03 -0.01 0.01 -0.05 0.14 -0.01 0.04 -0.05 0.12 -0.01 0.04c-0.01,0.05 -0.03,0.09 -0.04,0.14l-0.01 0.02 -0.01 0.02 -0.03 0.12 -0.01 0.05 -0.04 0.14 0 0.01 -0.01 0.01 -0.03 0.15 -0.01 0.04 -0.03 0.13 -0.01 0.04 -0.02 0.15 -0.01 0.04 -0.02 0.13 -0.01 0.04c-0.01,0.05 -0.01,0.1 -0.02,0.15l0 0.01 -0.01 0.02 -0.01 0.14 -0.01 0.04 -0.01 0.14 0 0.02 0 0.01c0,0.05 -0.01,0.1 -0.01,0.15l0 0.06 -0.01 0.11 0 0.05c0,0.05 0,0.1 0,0.15l0 0.05 0 0.12 0.01 0.04c0.04,1.2 0.41,2.39 1.24,3.36 3.42,4.02 5.5,7.53 -2.02,10.49 -2.17,0.85 -6.03,-3.35 -9.48,-8.66l0 -0.01 -0.14 -0.21 -0.14 -0.23 -0.03 -0.03 -0.12 -0.19 -0.14 -0.23 -0.01 -0.01 -0.17 -0.28 -0.16 -0.26 -0.08 -0.14 -0.14 -0.23 -0.04 -0.07 -0.22 -0.37 -0.04 -0.06c-0.08,-0.13 -0.16,-0.26 -0.23,-0.39l-0.03 -0.04 -0.13 -0.24 -0.11 -0.19 -0.03 -0.04 -0.13 -0.24 0 0 -0.1 -0.18 -0.17 -0.29 -0.1 -0.2 -0.16 -0.29 -0.12 -0.22 -0.17 -0.31 -0.08 -0.15 -0.17 -0.32 -0.1 -0.2 -0.16 -0.29 -0.1 -0.21 -0.17 -0.33 -0.07 -0.15c-1.32,-2.67 -3.06,-6.85 -3.66,-10.26l-0.01 -0.02 0 -0.01 -0.01 -0.06 0 -0.03 -0.01 -0.04 -0.01 -0.04 0 0 0 -0.03 -0.01 -0.06 0 -0.01 -0.02 -0.07 0 0 -0.01 -0.08 0 -0.01 -0.01 -0.06 0 -0.03 -0.01 -0.04 -0.01 -0.04 0 -0.04 -0.01 -0.05 0 -0.02 -0.01 -0.07 0 0 -0.01 -0.08 0 -0.01 -0.01 -0.06 -0.01 -0.03 0 -0.05 -0.01 -0.04 0 -0.03 -0.01 -0.06 0 -0.02 -0.01 -0.07 0 -0.01 -0.01 -0.07 0 -0.01 -0.01 -0.07 0 -0.02 -0.01 -0.06 -0.01 -0.03 0 -0.04 -0.01 -0.05 0 -0.01 0 -0.02 -0.01 -0.07 0 -0.01 -0.01 -0.08 0 0 -0.01 -0.08 0 -0.02 -0.01 -0.06 0 -0.03 0 -0.05 -0.01 -0.05 0 -0.03 -0.01 -0.06 0 -0.02 -0.01 -0.08c-0.4,-4.02 -0.26,-9.08 0.41,-12.82 -2.23,3.41 -4.05,9.84 -3.61,10.95 0.77,1.97 -0.32,4.25 -2.45,5.09 -2.13,0.84 -4.49,-0.08 -5.27,-2.05 -3.7,-6.94 7,-22.89 9.13,-23.73l0 0c-4.71,0.67 -8.49,-1.67 -10.2,-6 -0.94,-2.38 -0.92,-4.42 -0.61,-6.22 -2.75,1.26 -6.74,1.51 -8.7,-4.1 -1.41,-4.18 0.87,-7.76 4.43,-9.17 2.89,-1.14 6.05,-0.3 7.85,1.86 1.64,-2.13 3.92,-3.89 6.43,-4.88 3.87,-1.53 8.62,-0.85 12.73,1.69l-0.02 -0.01 -0.02 -0.01 -0.01 -0.02 -0.02 -0.01 0 0 -0.02 -0.01 -0.01 -0.01 -0.02 -0.02 -0.02 -0.01 0 0 -0.02 -0.01 -0.01 -0.01 -0.02 -0.02 -0.02 -0.01 -0.01 0 -0.01 -0.01 -0.01 -0.01 -0.02 -0.02 -0.02 -0.01 -0.01 -0.01 0 0 -0.02 -0.01 -0.02 -0.02 -0.02 -0.01 -0.01 -0.01 -0.01 0 -0.01 -0.01 -0.02 -0.01 -0.02 -0.02 -0.02 -0.01 0 0 -0.01 -0.01 -0.02 -0.01 -0.02 -0.01 -0.02 -0.01 0 -0.01 -0.02 -0.01 -0.01 -0.01 -0.02 -0.01 -0.02 -0.01 0 0 -0.02 -0.01 -0.01 -0.01 -0.02 -0.02 -0.11 -0.06 -0.02 -0.02 -0.02 -0.01 -0.02 -0.01 -0.01 -0.01 0 0 -0.02 -0.01 -0.02 -0.01 -0.02 -0.01 -0.07 -0.05 -0.02 -0.01c-0.06,-0.04 -0.13,-0.07 -0.19,-0.11l0 0c-1.27,-0.71 -2.72,-1.2 -4.25,-1.45 -0.16,-2.81 1.58,-5.57 4.48,-6.71 3.56,-1.41 7.67,-0.34 9.49,3.68 2.4,5.44 -0.69,7.98 -3.56,8.93 -0.67,-0.51 -1.34,-0.95 -1.99,-1.35 0.15,0.14 0.3,0.28 0.44,0.43 0.93,0.92 3.99,1.84 5.73,6.03 1.62,3.88 0.48,7.85 -3.16,10.63l0.16 -0.06zm-6.19 -19.38l0 0 0 0zm1.8 1.27l0 0.01 -0.01 -0.01 0 0 -0.04 -0.03 0 0 0 -0.01 -0.01 0 0 0 0 0 0.01 0 0 0.01 0 0 0 0 0.01 0 0 0.01 0.01 0 0 0 0.01 0.01 0 0 0.01 0.01 0 0 0 0 0 0 0.01 0zm0.03 0.03l0.01 0.01 -0.02 -0.02 -0.01 0 0 -0.01 0 0 0 0 -0.01 0 0 0 0.03 0.02zm-23.37 6.89l-0.01 0.03 0 0.03 -0.01 0 0 0 0 0 0 0.01 0 0 0 0 0 0.01 0 0 0 0 0 0 0 0 0 0.01 0 0 0 0 0 0.01 0 0 -0.01 0 0 0.01 0 0 0 0.01 0 0 0 0 0 0.01 0 0 0 0 0 0.03 -0.01 0 -0.01 0.11 0.05 -0.27zm-0.08 0.39l0 0 0 0 0 0.01 0 0 0 0 0 0.01 0 0 0 0 0 0.01 0 0 0 0 0 0 0 0.01 0 0 0 0 0 0.01 0 0 -0.01 0 0 0.01 0 0 0 0 0 0.01 0 -0.01 0.01 -0.06zm-0.04 0.33l-0.01 0 -0.02 0.2 0 -0.01 0 0 0 0 0 -0.01 0 0 0 0 0 -0.01 0.01 0 0 0 0 -0.01 0 0 0 0 0 -0.01 0 0 0 0 0 0 0 -0.01 0 0 0 0 0 -0.01 0 0 0 0 0 -0.01 0 0 0 0 0 -0.01 0 0 0 0 0 -0.01 0 0 0 0 0 0 0 -0.01 0 0 0 0 0 -0.01 0 0 0.01 0 0 -0.01 0 0 0 0 0 -0.01 0 0 0 0 0 -0.01 0 0 0 0 0 0 0 -0.01 0 0 0 0 0 -0.01 0 0 0 0 0 -0.01 0 0 0 0 0 -0.01 0 0 0 -0.01 0 0 0.01 0 0 0 0 -0.01 0 0.01 0 0 0 -0.01 0 0 0 -0.06 0 0 0.01 -0.01 0 0 0 -0.01 0 0 0 0 0 -0.01 0 0 0 0 0 0 0 0 0 -0.01 0 0 0 -0.01 0 0 0 0 0 -0.01 0 0 0 0 0 0 0 -0.01 0 0 0.01 0 0 -0.01 0 0 0 0 0 0 0 -0.01 0 0 0 0 0 -0.01 0 0 0 0 0 -0.01 0 0 0 0 0 -0.01 0 0 0 0 0 -0.01 0 0 0 0 0 0 0 -0.01 0 0 0 0 0.01 -0.01 0 -0.02 0 0 0 -0.01 0 0 0 -0.01 0 0 0 0 0 0 0 0 0 0.01 0.03 -0.2 -0.06 0.45zm-0.08 0.91l0 0 0 0 0 0zm0 0.29l0 0.01 0 -0.01 0 0 0 -0.01 0 0 0 0 0 -0.01 0 0 0 0 0 0 0 0.02zm0 0.01l0 0.01 0 0 0 0 0 0 0 0 0 0.01 0 0 0 0.01 0 0 0 0.01 0 0 0 0 0 -0.04zm0 0.04l0 0.01 0 0 0 0 0 0 0 0 0 0.01 0 0 0 0 0 0 0 -0.02zm-0.36 1.68c0,0 0,0 0,0l0 0zm0 0l-0.14 0.05 -0.5 2.71 0 -0.02 0.01 -0.06 0.01 -0.07 0.01 -0.03 0.01 -0.04 0.01 -0.08 0.01 -0.04 0 -0.03 0.02 -0.08 0.01 -0.05 0 -0.02 0.02 -0.07 0.01 -0.06 0 -0.02 0.02 -0.07 0.01 -0.06 0 -0.01 0.02 -0.07 0.01 -0.07 0 -0.01 0.02 -0.07 0.02 -0.07 0 -0.01 0.01 -0.06 0.02 -0.07 0 -0.02 0.02 -0.05 0.01 -0.07 0.01 -0.03 0.01 -0.04 0.02 -0.07 0.01 -0.04 0 -0.03 0.02 -0.07 0.01 -0.04 0.01 -0.03 0.02 -0.07 0.01 -0.05 0 -0.02 0.02 -0.06 0.02 -0.07 0 0 0.03 -0.14 0.01 0 0.01 -0.07 0.02 -0.06 0 -0.01 0.02 -0.06 0.02 -0.07 0 -0.01 0.01 -0.05 0.02 -0.07 0.01 -0.02 0.01 -0.04 0.01 -0.07 0.01 -0.04 0.01 -0.03 0.01 -0.02zm23.77 -10.67l0 0.01 0.07 0.05 0 0 -0.07 -0.06zm0.15 0.12l0 0 0 0 0.01 0.01 0 0 -0.01 -0.01zm0.92 0.79l0.05 0.05 -0.05 -0.05zm0.06 0.06c0.08,0.07 0.15,0.14 0.22,0.21l-0.22 -0.21zm-24.9 9.7l0.01 -0.03 0 -0.01 0 -0.01 0.01 -0.03 0 0 0.01 -0.02 0 -0.01 0 -0.02 0.01 -0.02 0 -0.02 0 -0.01 0.01 -0.02 0.01 -0.02 0 -0.01 0 -0.01 0 -0.01 0.01 -0.03 0.01 -0.02 0 0 0 -0.03 0.01 -0.02 0 -0.01 0 -0.01 0.01 -0.01 0 -0.02 0.01 -0.03 0 0 0 -0.02 0.01 -0.03 0 -0.01 0 0 0 0 0.01 -0.01 0 -0.03 0.01 -0.02 0 -0.01 0 -0.01 0.01 -0.03 0.01 -0.02 0 0 0 -0.01 0 -0.02 0.01 -0.02 0 -0.01 0.01 -0.02 0 -0.02 0.01 -0.02 0 -0.01 0 -0.01 0 -0.01 0.01 -0.02 0 -0.02 0 -0.01 0.01 -0.02 0.01 -0.03 0 0 0 -0.02 0 -0.01 0.01 -0.01 0 -0.03 0 0 0.01 -0.02 0 -0.02 0.01 -0.02 0 -0.01 0 -0.02 0 0 0.01 -0.03 0 0 0.01 -0.02 0 -0.02 0 -0.02 0.01 -0.01 0 -0.02 0 -0.01 0.01 -0.02 0 0 0 -0.02 0.01 -0.02 0 -0.03 0.01 -0.02 0 -0.02 0 0 0 -0.02 0.01 -0.01 0 -0.02 0.01 -0.02 0 -0.01 0 -0.02 0.01 -0.02 0 -0.01 0 -0.01 0 0 0 -0.02 0 -0.01 0.01 -0.02 0 -0.03 0.01 -0.02 0 -0.02 0 -0.01 0 0 0 0 0 -0.01 0 0 0 0 0 -0.01 0 0 0 0 0 -0.01 0 0 0 -0.01 0 0 0 0 0 0 0 -0.01 0 0 0 0 0 -0.01 0 0 0 0 0 -0.01 0 0 0 0 0 -0.01 0 0 0 0 0 -0.01 0 0.05 0 0.01 0 0 0 0.01 0 0 0 0 0 0.01 0 0 0 0 0 0.01 0 0 0 0 0 0.01 -0.36 1.55zm0.36 -1.63l0 -0.01 0 0.01zm0 -0.01l0 0 0 -0.01 0 0 0 0 0 -0.01 0 0.01 0 0.01zm0 -0.04l0 0 0 0 0 0zm0 -0.06l0 -0.01 0 0 0 0 0 0 0 -0.01 0 0 0 0 0 -0.01 0 0 0 0 0 -0.01 0 0 0 0.23 0 -0.19zm0 -0.02l0 -0.01 0 0 0 0 0 -0.01 0 0 0 0 0 -0.01 0 0 0 0 0 -0.01 0 0 0 0 0 0 0 -0.01 0 0 0 0 0 -0.01 0 0 0 0 0 -0.01 0 0 0 0 0 -0.01 0 0 0 -0.01 0 0 0 0 0 0 0 -0.01 0 0 0 0 0 -0.01 0 0 0 0 0 -0.01 0 0 0 0 0 -0.01 0 0 0 0 0 -0.01 0 0 0 0 0 0 0 -0.01 0 0 0 -0.01 0 0 0 0 0 0 0 -0.01 0 0 0 -0.01 0 0 0 -0.01 0 0 0 -0.01 0 0 0 0 0 -0.01 0 0 0 0 0 -0.01 0 0 0 0 0 -0.01 0 0 0 0 0 -0.01 0 0 0 -0.01 0 0 0 0 0 -0.01 0 0 0 -0.01 0 0 0 0 0 -0.01 0 0 0 0 0 -0.01 0 0 0 0 0 -0.01 0 0 0 0 0 -0.01 0 0 0 0 0.01 -0.01 0 0 0 0 0 -0.01 0 0 0 0 0 0 0 -0.01 0 0 0 0 0 -0.01 0 0 0 0 0 -0.01 0 0 0 -0.01 0 0 0 0 0 -0.01 0 0 0 0 0 0 0 -0.01 0 0 0 0 0 -0.01 0 0 0 0 0 -0.01 0 0 0 0 0 -0.01 0 0 0 -0.01 0 0 0 0 0 -0.02 0 0 0 0 0 -0.01 0 0 0 -0.01 0 0 0 0 0 -0.01 0 0 0 0 0 0 0 0 -0.01 0.22 0 0.26zm0.03 -0.78l0 -0.01 0 0 0 0 0 -0.01 0.01 0 0 0 0 0 0 -0.01 0 0 0 0 0 -0.01 0 0 0 0 0 -0.01 0 0 0 0 0 0 0 -0.01 0 0 0 0 0 -0.01 0 0 0 0 0 0 0 -0.01 0 0 0 0 0 -0.01 0 0 0 0 0 -0.01 0 0 0 0 0 0 0 -0.01 0 0 0 0 0 0 0 -0.01 0 0 0 0 0 -0.01 0.01 0 0 -0.01 0 0 0 0 0 -0.01 0 0 0 0 0 0 -0.02 0.15zm0 -0.01l0 0 0 0 0 -0.01 0.01 0 0 0 0 0 0 -0.01 0 0 0 0 0 -0.01 0 0 0 0 0 -0.01 0 0 0 0 0 0 0 -0.01 -0.01 0.05zm0.01 -0.11l0 -0.01 0 0 0.01 0 0 -0.01 0 0 0 0 0 -0.01 0 0.01 -0.02 0.19 0 0 0 0 0 -0.01 0 0 0 0 0 -0.01 0 0 0 0 0 -0.01 0 0 0 0 0 0 0 -0.01 0 0 0 0 0 -0.01 0 0 0 -0.01 0.01 -0.11zm0.01 -0.05l0 -0.01 0 -0.01 0 0 0 0 0 -0.01 0 0 0 0 0 -0.01 0 0 0 0 0 -0.01 0.01 0 0 0 0 -0.01 0 0 0 0 0 -0.01 0 0 0 0 0 0 0 -0.01 0 0 0 0 0 -0.01 0 0 0 0 0 -0.01 0 0 0 0 0 -0.01 0 0 0 0 0 -0.01 0 0 0 0 0 0 0 -0.01 0 0 0 0 0 -0.01 0 0 0.01 0 0 -0.01 0 0 0 0 0 -0.01 0 0 0 0 0 -0.01 0 0 0 0 0 0 0 -0.01 0 0 0 0 0 -0.01 0 0 0 0 0 -0.01 0 0 0 0 0 -0.01 0 0 0 -0.01 -0.02 0.22zm0 -0.01l0 -0.01 0 0 0 0 0 0.01zm0.03 -0.21l0 0 0 0zm0.04 -0.31l0 0 0 0zm0 -0.02l0.01 -0.01 0 0 0 0 0 -0.01 0 0 0 -0.01 -0.01 0.03zm0.01 -0.01l0 0 0 0 0 -0.01 0 0 0 0 0 0.01zm0.01 -0.06l0 0 0 -0.01 0 -0.01 0 -0.01 0 0 0 -0.01 0 0 0 0 0 -0.01 0 0 0 0 0 0.01 0 0 0 0 0 0.01 0 0 0 0.03 0 0 -0.01 0 0 0.01 0 0 0 0 0 0.01 0 0 0 0 0.01 -0.02zm0.06 -0.32l-0.07 0.36 0.07 -0.36zm-0.2 1.95l0 0 0 0 0 0zm0 -0.02l0 0 0 0 0 -0.01 0 0.01zm0.04 -0.94l0 0 0 0zm0.08 -0.58l0 0 0 0zm0 -0.02l0.01 -0.01 -0.01 0.01zm0.13 -0.65l0 0 0 0 0 0 0 0 0 0.01 0 0.01 0 0 0 0.01 -0.01 0.01 0.01 -0.04zm0 0l0.04 -0.14 -0.02 0.09 0 0 -0.01 0.03 0 0 0 0 -0.01 0.02zm0.04 -0.14l0 0 0 0zm0 0l0 0 0 0zm0 0l0 -0.01 0 0.01zm0.28 -0.96l0.07 -0.18c-0.02,0.06 -0.04,0.12 -0.07,0.18zm0.09 -0.23c0.02,-0.06 0.05,-0.13 0.07,-0.2 -0.02,0.07 -0.05,0.14 -0.07,0.2zm0.07 -0.2l0 0 0.01 -0.01c0.02,-0.06 0.05,-0.13 0.08,-0.19l0.01 -0.03 0 0 0 -0.01c0.03,-0.06 0.05,-0.12 0.08,-0.18l0.02 -0.06 0.08 -0.16 0.01 -0.03 0.01 -0.01 0 -0.01 0.09 -0.18 0.01 -0.02 0 -0.01c0.03,-0.06 0.06,-0.12 0.09,-0.18l0.02 -0.03 0 -0.01 0 0 0.09 -0.17 0.02 -0.03 0.01 -0.01 0 -0.01 0.09 -0.17 0.02 -0.03 0.01 -0.01 0 -0.01 0.08 -0.15 0.06 -0.09 0.08 -0.14 0.02 -0.03 0.01 -0.01 0 -0.01 0.1 -0.14 0.05 -0.09 0.08 -0.12 0.06 -0.09 0.09 -0.13 0.02 -0.03 0.01 -0.02c0.03,-0.05 0.07,-0.1 0.11,-0.15l0.04 -0.06 0.1 -0.14 0.07 -0.1 0.08 -0.1 0.04 -0.05 -1.85 3.21zm0.1 -0.24c0.03,-0.06 0.05,-0.12 0.08,-0.18l-0.08 0.18zm8.98 20.66c0,0 0,0 0,0z"/>
  <path fill="#BDD180" d="M133.81 32.66l0 -1.98 12.62 0c2.41,0 4.38,-1.97 4.38,-4.38l0 -0.8c0,-2.41 -1.97,-4.38 -4.38,-4.38l-12.62 0 0 -1.36 8.82 0c2.48,0 4.5,-2.02 4.5,-4.5l0 0c0,-2.48 -2.02,-4.51 -4.5,-4.51l-8.82 0 0 -1.73 5.73 0c2.13,0 3.87,-1.74 3.87,-3.87l0 0c0,-2.13 -1.74,-3.87 -3.87,-3.87l-5.73 0 0 -0.61 -3.95 0 0 0.61 -5.72 0c-2.13,0 -3.88,1.74 -3.88,3.87l0 0c0,2.13 1.75,3.87 3.88,3.87l5.72 0 0 1.73 -8.82 0c-2.47,0 -4.5,2.03 -4.5,4.51l0 0c0,2.48 2.03,4.5 4.5,4.5l8.82 0 0 1.36 -12.62 0c-2.4,0 -4.37,1.97 -4.37,4.38l0 0.8c0,2.41 1.97,4.38 4.37,4.38l12.62 0 0 1.98 -14.45 0c-3.71,0 -6.75,3.03 -6.75,6.74l0 1.46c0,3.71 3.04,6.74 6.75,6.74l32.86 0c3.71,0 6.74,-3.03 6.74,-6.74l0 -1.46c0,-3.71 -3.03,-6.74 -6.74,-6.74l-14.46 0z"/>
  <path fill="#BDD180" d="M309.88 66.98c7.49,-5.19 14.23,-13.44 19.44,-23.15l0.02 -0.03 0.03 -0.05 0.01 -0.03 0.02 -0.03 0.01 -0.03 0.02 -0.02 0.01 -0.03 0.02 -0.03 0.07 -0.14 0.01 -0.02 0.02 -0.03 0.01 -0.03 0.02 -0.03 0.01 -0.03 0.02 -0.02 0.01 -0.03 0.02 -0.03 0.01 -0.03 0.02 -0.03 0.01 -0.02 0.02 -0.03 0.01 -0.03 0.02 -0.03 0.01 -0.02 0 -0.01 0.01 -0.02 0.02 -0.03 0.01 -0.03 0.02 -0.03 0.16 -0.3 0.01 -0.03 0.02 -0.03 0.01 -0.01 0 -0.02 0.02 -0.03c0.06,-0.12 0.13,-0.26 0.2,-0.39l0.01 -0.03 0.02 -0.02 0 0 0 0c-3.26,-1.49 -5.68,-4.21 -6.7,-7.37 -0.59,1.46 -1.14,3.02 -1.66,4.7 -1.22,-0.04 -2.53,-0.34 -3.78,-0.85 -0.09,0.16 -0.17,0.32 -0.25,0.48 -1.55,-0.48 -2.9,-1.15 -3.82,-2.23 0.2,-0.1 0.41,-0.22 0.62,-0.36 -1.01,-0.87 -1.87,-1.92 -2.46,-3.1 6.18,-1.4 9.72,-10.67 15.42,-14.76 -0.85,0.06 -1.41,-0.1 -1.51,-0.57 -0.72,-3.06 3.28,-9.39 5.48,-10.29 1.27,-0.44 3.48,2.89 5.69,6.19 0.18,-0.35 0.4,-0.63 0.65,-0.82 1.07,-0.25 2,0.15 2.97,0.4 0.05,0.32 0.05,0.69 0.02,1.11 3.29,-2.07 6.56,-4.09 7.52,-3.18 1.64,1.73 2.71,9.15 0.81,11.64 -0.26,0.35 -0.75,0.31 -1.39,0.01 3,5.98 2.82,14.95 7.68,18.47 -0.88,0.74 -1.91,1.32 -3,1.72 0.18,0.3 0.37,0.57 0.57,0.81 -1.27,0.63 -2.77,0.71 -4.39,0.54 -0.01,-0.2 -0.02,-0.4 -0.04,-0.61 -1.57,0.06 -3.12,-0.18 -4.43,-0.69 0.12,-1.17 0.21,-2.29 0.27,-3.38 -1.98,1.88 -4.65,3.07 -7.54,3.32l0.11 -0.01c1.79,10.5 3.42,20.69 10.67,30.28 -8.58,2.6 -15.64,3.65 -23.1,1.51l-0.06 -0.01c-0.13,-0.04 -0.27,-0.08 -0.41,-0.13l-0.06 -0.01 -0.06 -0.02c-0.15,-0.05 -0.31,-0.1 -0.47,-0.15l-0.05 -0.02 -0.06 -0.02 -0.06 -0.02c-0.12,-0.04 -0.24,-0.08 -0.36,-0.12l-0.06 -0.02 -0.18 -0.06c-0.09,-0.04 -0.19,-0.07 -0.28,-0.11 -0.11,-0.03 -0.22,-0.07 -0.33,-0.12l-0.22 -0.08c-0.13,-0.05 -0.26,-0.1 -0.39,-0.15l-0.17 -0.07c-0.14,-0.05 -0.27,-0.11 -0.41,-0.17 -3.51,-1.47 -7.16,-3.67 -11.16,-6.75zm26.65 -50.88c-0.38,0.11 -0.77,0.24 -1.16,0.37 0.34,-0.05 0.71,-0.08 1.09,-0.08 0.02,-0.1 0.05,-0.2 0.07,-0.29zm3.83 1.08c0.23,0.11 0.44,0.23 0.65,0.36l0.13 0.03c-0.24,-0.22 -0.48,-0.43 -0.71,-0.63 -0.02,0.08 -0.04,0.16 -0.07,0.24zm-36.92 57.06c1.59,-1.21 2.25,-1.61 3.84,-2.82 -1.53,-3.85 -0.71,-7.98 -4.57,-8.69 -1.96,-0.36 -3.47,1.3 -3.88,3.08 -0.65,2.82 0.63,5.92 4.61,8.43zm40.82 1.01c0.49,1.65 1.17,3.24 2.19,4.75 -1.02,0.5 -1.82,1.2 -2.32,2.18 -1.35,-1.97 -2.37,-4.05 -3.18,-6.22 0.71,-0.07 1.74,-0.26 3.31,-0.71zm5.48 8.09c-0.98,-1.74 -1.44,-2.36 -2.42,-4.1 2.92,-2.94 3.79,-7.06 7.62,-6.2 1.94,0.44 2.68,2.56 2.35,4.36 -0.51,2.85 -2.9,5.19 -7.55,5.94zm-0.72 0.47c-0.71,-1.07 -1.41,-2.15 -2.12,-3.23 -1.07,0.29 -1.63,0.97 -1.86,1.66 -0.4,1.23 0.06,1.88 1.28,2.18 0.75,0.18 1.73,0.12 2.7,-0.61zm-10.89 -38.39c1.12,2.03 8.73,5.61 8.54,8.36 -0.49,-0.09 -4.7,3.45 -5.18,3.36l0 0 -0.01 0 0 0 -0.01 -0.01 0 0 -0.01 0 0 0 -0.01 0 0 0 -0.01 0 0 0 -0.01 0 0 0 -0.01 0 0 0 -0.01 -0.01 0 0 -0.01 0 0 0 -0.01 0 0 0 -0.01 0 0 0 -0.01 0 0 0 -0.01 -0.01 0 0 -0.01 0 0 0 -0.01 0 0 0 -0.01 0 0 0 -0.01 0 -0.01 0 -0.02 -0.01c-1,-1.52 -1.98,-10.29 -3.16,-11.68zm-10.22 -1.6c-1.66,1.62 -9.99,2.81 -10.61,5.5 0.49,0.06 3.48,4.67 3.97,4.72l0 0 0.01 0.01 0 0 0.01 0 0 0 0.01 0 0 0 0.01 0 0 0 0.01 0 0 0 0.01 0 0 0 0.01 0 0 0 0.01 0 0 0 0.01 0.01 0 0 0.01 0 0 0 0.01 0 0 0 0.01 0 0 0 0.01 0 0 0 0.01 0 0 0 0.01 0 0 0 0.01 0 0 0 0.01 0.01 0.01 0 0.01 0c1.41,-1.17 4.92,-9.26 6.45,-10.25zm17.3 12.4c-0.11,-0.19 -0.22,-0.38 -0.33,-0.57 -0.32,0.29 -0.66,0.58 -1.02,0.85 -0.37,0.28 -0.78,0.54 -1.23,0.77 0.35,0.42 0.7,0.82 1.08,1.21 0.8,0.82 1.73,1.6 2.94,2.49l0 0 0.02 0.02c1.68,1.5 1.85,3.67 1.99,5.47 0.09,1.18 0.17,2.18 0.64,2.61 0.36,0.13 0.54,-0.01 0.65,-0.28 0.1,-0.27 0.16,-0.64 0.22,-1.03 0.1,-0.62 0.19,-1.24 0.52,-1.61l0.32 -0.36 0.15 0.46c0.19,0.6 0.6,1.61 1.18,2.3 0.35,0.42 0.76,0.72 1.22,0.7 0.25,-0.03 0.33,-0.12 0.32,-0.25 -0.04,-0.34 -0.4,-0.88 -0.75,-1.41 -0.41,-0.61 -0.8,-1.22 -0.81,-1.67l0 -1 0.52 0.86c0.02,0.03 0.04,0.07 0.07,0.11 0.25,0.39 0.71,0.97 1.25,1.36 0.48,0.35 1.03,0.55 1.51,0.26l0.02 -0.01c0.16,-0.16 0.07,-0.37 -0.12,-0.6 -0.34,-0.41 -0.98,-0.83 -1.46,-1.15 -0.38,-0.26 -0.67,-0.46 -0.73,-0.62l-0.25 -0.65 0.63 0.3c0.11,0.06 0.21,0.11 0.33,0.17 0.77,0.4 2.08,1.08 2.86,0.55 0.19,-0.32 0.11,-0.52 -0.09,-0.65 -0.32,-0.22 -0.89,-0.35 -1.41,-0.47 -0.46,-0.11 -0.89,-0.21 -1.17,-0.37l-0.64 -0.35 0.72 -0.16c1.31,-0.28 1.97,-0.56 2.19,-0.8 0.03,-0.03 0.05,-0.02 0.05,-0.03 -0.02,-0.04 -0.09,-0.08 -0.2,-0.12 -0.42,-0.16 -1.19,-0.17 -1.83,0.08l-0.08 0.03 -0.09 -0.02c-1.1,-0.26 -2.51,-0.79 -3.79,-1.4 -1.22,-0.58 -2.33,-1.25 -2.93,-1.83 -0.93,-0.9 -1.75,-1.99 -2.47,-3.19zm-25.68 -2.66c-0.16,-0.3 -0.33,-0.58 -0.52,-0.84 -0.17,-0.25 -0.37,-0.49 -0.58,-0.72 -0.88,0.78 -1.87,1.42 -3.03,1.89 -0.87,0.35 -1.92,0.67 -3.06,0.82 -0.91,0.13 -1.88,0.14 -2.87,-0.02l-0.09 -0.01 -0.06 -0.06c-0.57,-0.53 -1.17,-0.95 -1.63,-1.28 -0.17,-0.12 -0.31,-0.22 -0.46,-0.33 -0.28,-0.21 -0.52,-0.25 -0.68,-0.19 -0.07,0.03 -0.13,0.09 -0.17,0.17 -0.04,0.09 -0.07,0.21 -0.05,0.36 0.04,0.55 0.52,1.35 1.72,2.18l0.61 0.42 -0.74 0.08c-0.09,0.01 -0.21,0.03 -0.34,0.06 -0.55,0.11 -1.34,0.35 -1.97,0.74 -0.58,0.35 -1.02,0.83 -0.95,1.42 0,0.01 0.01,0.03 0.01,0.05 0.32,0.47 0.82,0.22 1.32,-0.02 0.33,-0.16 0.66,-0.32 0.99,-0.34l0.69 -0.04 -0.47 0.5c-0.05,0.05 -0.12,0.11 -0.21,0.19 -0.47,0.39 -1.59,1.34 -1.19,2.16 0.22,0.3 0.46,0.27 0.69,0.11 0.29,-0.2 0.59,-0.56 0.87,-0.9 0.26,-0.3 0.5,-0.59 0.73,-0.76l0.81 -0.6 -0.39 0.93c-0.09,0.21 -0.23,0.46 -0.39,0.73 -0.09,0.15 -0.18,0.31 -0.27,0.47 -0.4,0.74 -0.7,1.55 0.08,1.98 0.4,0.18 0.63,-0.09 0.81,-0.49 0.09,-0.2 0.17,-0.42 0.25,-0.65 0.17,-0.46 0.34,-0.93 0.6,-1.25l0.31 -0.37 0.17 0.45c0.14,0.4 0.11,0.87 0.09,1.33 -0.01,0.15 -0.02,0.31 -0.02,0.47 -0.01,0.52 0.09,0.95 0.73,0.98 0.88,-0.43 1.24,-2.47 1.6,-4.46 0.12,-0.69 0.24,-1.37 0.39,-2.01l0.04 -0.18 0.18 -0.03c2.48,-0.43 4.5,-1.61 6.45,-2.94zm-7.34 15.69c-1.1,1.32 -2.36,2.52 -3.88,3.5 0.74,0.86 1.2,1.82 1.27,2.92 2.01,-1.28 3.77,-2.8 5.37,-4.47 -0.63,-0.34 -1.49,-0.92 -2.76,-1.95zm-7.74 6c1.07,-0.71 2.14,-1.42 3.21,-2.14 0.87,0.68 1.13,1.53 1.06,2.26 -0.11,1.29 -0.79,1.7 -2.03,1.5 -0.76,-0.13 -1.63,-0.57 -2.24,-1.62zm30.33 -32.02c0.55,0.05 1.12,0.06 1.76,0.03 -0.58,0.03 -1.17,0.02 -1.76,-0.03z"/>
  <path fill="#BDD180" fill-rule="nonzero" d="M238.42 9.77c4.16,1.58 8.4,4.5 12.55,9.02 4.23,1.61 9.23,3.61 12.54,6.59 3.44,3.1 5.05,7.2 2.18,12.9 -1.52,3 -7.33,4.53 -9.72,0.27 -2.96,-3 -11.51,-5.46 -16.21,4.65 -0.83,1.79 -2.7,2.99 -4.82,3.67 -2.49,0.79 -4.77,0.76 -6.61,0.14 -3.19,-1.08 -4.88,-4.38 -7.08,-5.11 -8.45,-4.36 -15.21,2.15 -15.26,7.53 -0.26,0.9 -0.49,1.72 -0.77,2.39 -0.42,0.99 -0.92,1.66 -1.66,1.79l-0.6 0c-0.2,-0.03 -0.42,-0.09 -0.65,-0.19l-0.02 -0.01c-2.54,-1.19 -4.31,-3.53 -5.14,-6.28 -0.83,-2.75 -0.71,-5.93 0.56,-8.73 1.22,-2.67 3.64,-4.87 5.78,-6.8 1.7,-1.54 3.2,-2.9 3.67,-4.11 1.98,-5.2 4.94,-9.69 8.57,-13.01 3.08,-2.82 6.63,-4.8 10.47,-5.67 3.85,-0.88 7.99,-0.65 12.22,0.96zm-4.49 12.98c-0.01,-1.07 -0.02,-2.2 -0.29,-3.08 -0.88,-2.85 -0.12,-4.3 1.43,-4.78 1.6,-0.49 4.09,0.2 6.4,1.46 2.29,1.23 4.43,3.04 5.37,4.79 0.93,1.76 0.76,3.45 -1.39,4.6 -1.5,0.8 -2.92,1.27 -4.44,1.49 -1.52,0.22 -3.11,0.19 -4.96,-0.01 -2.09,-0.22 -2.11,-2.25 -2.12,-4.47zm-11.33 -6.35c0.36,-0.03 0.73,-0.04 1.09,-0.02l0.05 0 0.03 0.01c0.16,0.03 0.33,0.08 0.53,0.16 1.11,0.42 2.68,1.54 3.86,2.99 1.22,1.48 2.06,3.33 1.68,5.19 -0.05,0.23 -0.12,0.47 -0.21,0.71 -1.74,4.58 -5.64,5.25 -10.03,6.01 -0.55,0.09 -1.11,0.19 -1.68,0.3 -1.57,0.29 -3.1,0.43 -4.3,0.12 -1.32,-0.35 -2.23,-1.21 -2.38,-2.91 -0.03,-0.36 -0.04,-0.73 -0.02,-1.1 0.13,-2.82 1.66,-5.57 3.82,-7.67 2.15,-2.1 4.93,-3.56 7.56,-3.79zm37.74 12.47c0.1,-1.43 0.77,-2.45 2.35,-2.35l0.09 0.01 0.08 0.03c0.41,0.18 0.81,0.45 1.16,0.77 0.8,0.73 1.43,1.77 1.74,2.91 0.31,1.14 0.3,2.38 -0.2,3.5 -0.19,0.43 -0.46,0.84 -0.8,1.22 -0.67,0.74 -1.45,0.59 -2.19,-0.08 -0.62,-0.57 -1.21,-1.58 -1.63,-2.68 -0.41,-1.1 -0.66,-2.32 -0.6,-3.33z"/>
  <path fill="#C4D985" fill-rule="nonzero" d="M222.6 16.4c0.36,-0.03 0.73,-0.04 1.09,-0.02l0.05 0 0.03 0.01c0.16,0.03 0.33,0.08 0.53,0.16 1.11,0.42 2.68,1.54 3.86,2.99 1.22,1.48 2.06,3.33 1.68,5.19 -0.05,0.23 -0.12,0.47 -0.21,0.71 -1.74,4.58 -5.64,5.25 -10.03,6.01 -0.55,0.09 -1.11,0.19 -1.68,0.3 -1.57,0.29 -3.1,0.43 -4.3,0.12 -1.32,-0.35 -2.23,-1.21 -2.38,-2.91 -0.03,-0.36 -0.04,-0.73 -0.02,-1.1 0.13,-2.82 1.66,-5.57 3.82,-7.67 2.15,-2.1 4.93,-3.56 7.56,-3.79z"/>
  <path fill="#C4D985" fill-rule="nonzero" d="M233.93 22.75c-0.01,-1.07 -0.02,-2.2 -0.29,-3.08 -0.88,-2.85 -0.12,-4.3 1.43,-4.78 1.6,-0.49 4.09,0.2 6.4,1.46 2.29,1.23 4.43,3.04 5.37,4.79 0.93,1.76 0.76,3.45 -1.39,4.6 -1.5,0.8 -2.92,1.27 -4.44,1.49 -1.52,0.22 -3.11,0.19 -4.96,-0.01 -2.09,-0.22 -2.11,-2.25 -2.12,-4.47z"/>
  <path fill="#BDD180" fill-rule="nonzero" d="M262.23 26.28c-1.55,0.05 -2.27,0.92 -2.45,2.08 -0.17,1.18 0.16,2.63 0.78,3.94 0.61,1.3 1.49,2.45 2.41,3.04 0.56,0.36 0.97,0.48 1.38,0.14 0.54,-0.42 0.96,-0.88 1.27,-1.35 0.83,-1.26 0.64,-2.6 0.23,-3.87 -0.41,-1.28 -0.9,-2.5 -2.11,-3.28 -0.46,-0.3 -0.97,-0.54 -1.51,-0.7zm-14.35 15.23c-0.02,0.01 -0.04,0.03 -0.05,0.04 -0.27,0.24 -0.43,0.69 -0.48,1.13 -0.05,0.43 0.01,0.84 0.16,1.05 0.01,0.01 0.01,0.01 0.02,0.02l0 0c0.35,0.38 0.89,0.56 1.44,0.54 0.59,-0.02 1.18,-0.24 1.63,-0.66l0 0c0.34,-0.3 0.4,-0.65 0.28,-0.98 -0.07,-0.2 -0.2,-0.4 -0.37,-0.59 -0.19,-0.19 -0.42,-0.37 -0.67,-0.51 -0.65,-0.35 -1.43,-0.45 -1.96,-0.04zm-48.84 1.61c-0.28,0.02 -0.41,0.27 -0.43,0.61 -0.03,0.46 0.09,1.02 0.29,1.55 0.19,0.52 0.46,0.97 0.72,1.21 0.07,0.07 0.13,0.11 0.15,0.09 0.14,-0.14 0.24,-0.31 0.32,-0.48 0.2,-0.45 0.2,-0.97 0.07,-1.45 -0.14,-0.5 -0.41,-0.96 -0.75,-1.27 -0.12,-0.11 -0.24,-0.19 -0.37,-0.26zm-1.4 0.55c0.06,-0.92 0.5,-1.59 1.55,-1.52l0.09 0.01 0.07 0.03c0.26,0.11 0.5,0.28 0.71,0.47 0.48,0.44 0.86,1.06 1.04,1.73 0.18,0.69 0.17,1.44 -0.13,2.11 -0.11,0.26 -0.27,0.51 -0.48,0.74 -0.48,0.52 -1.02,0.43 -1.53,-0.03 -0.37,-0.34 -0.73,-0.94 -0.97,-1.59 -0.24,-0.64 -0.39,-1.35 -0.35,-1.95zm49.35 8.24c2.06,0.51 3.79,0.36 5.17,-0.22 1.09,-0.45 1.97,-1.16 2.64,-2.01 0.68,-0.86 1.14,-1.87 1.4,-2.89 0.35,-1.43 0.29,-2.9 -0.19,-4.06l-0.01 -0.01c-0.44,-1.17 -1.06,-2.12 -1.8,-2.85 -1.12,-1.13 -2.52,-1.77 -3.97,-2.01 -1.46,-0.23 -2.98,-0.06 -4.32,0.45 -0.99,0.37 -1.88,0.93 -2.58,1.64 -0.75,0.74 -1.32,1.65 -1.67,2.63 -0.41,1.14 -0.53,2.4 -0.28,3.62 0.25,1.22 0.85,2.42 1.89,3.45 0.9,0.91 2.12,1.69 3.72,2.26zm0.18 -11.07c0.04,-0.04 0.08,-0.08 0.12,-0.1 0.87,-0.67 2.06,-0.55 3.01,-0.04 0.34,0.19 0.66,0.43 0.91,0.7 0.27,0.28 0.47,0.6 0.59,0.94 0.24,0.67 0.13,1.4 -0.54,2.01l-0.02 0.02 0 0c-0.62,0.56 -1.44,0.87 -2.23,0.89 -0.81,0.03 -1.6,-0.23 -2.16,-0.81l0 -0.01 -0.04 -0.04c-0.03,-0.03 -0.05,-0.06 -0.07,-0.08 -0.31,-0.4 -0.43,-1.08 -0.35,-1.75 0.07,-0.65 0.33,-1.32 0.78,-1.73zm-34.51 6.86c0.09,0.4 0.26,0.73 0.48,0.99 0.34,0.42 0.81,0.69 1.33,0.83 0.53,0.14 1.12,0.13 1.67,0.01l0 0c0.47,-0.11 0.9,-0.31 1.24,-0.59 0.15,-0.12 0.28,-0.25 0.38,-0.4 0.32,-0.44 0.47,-1 0.45,-1.55 -0.01,-0.55 -0.19,-1.1 -0.54,-1.52 -0.12,-0.15 -0.25,-0.28 -0.41,-0.39 -0.53,-0.38 -1.23,-0.57 -1.92,-0.57 -0.58,0 -1.15,0.14 -1.62,0.4 -0.45,0.26 -0.81,0.63 -1,1.13 -0.17,0.44 -0.21,1 -0.06,1.66zm2.72 -6.16c-3.96,0.45 -6.16,2.18 -7,4.29 -0.37,0.95 -0.47,1.98 -0.33,3.01 0.14,1.03 0.52,2.08 1.12,3.03 0.39,0.63 0.86,1.21 1.42,1.74l11.94 0c1.11,-1.52 1.66,-3.52 1.61,-5.45 0,-0.09 -0.01,-0.19 -0.01,-0.29 -0.16,-1.89 -1.38,-3.49 -2.99,-4.61 -1.64,-1.14 -3.66,-1.78 -5.4,-1.74 -0.11,0 -0.23,0.01 -0.36,0.02l0 0zm-3 7.77c-0.3,-0.38 -0.54,-0.84 -0.66,-1.39 -0.2,-0.87 -0.15,-1.61 0.09,-2.23 0.28,-0.72 0.79,-1.26 1.44,-1.62 0.62,-0.35 1.35,-0.53 2.08,-0.53 0.89,0 1.79,0.25 2.5,0.75 0.23,0.17 0.43,0.36 0.6,0.57 0.48,0.59 0.73,1.34 0.75,2.1 0.02,0.76 -0.19,1.52 -0.63,2.14 -0.16,0.22 -0.34,0.42 -0.56,0.6 -0.45,0.37 -1.02,0.63 -1.63,0.77l0 0.01c-0.69,0.16 -1.44,0.16 -2.14,-0.03 -0.71,-0.18 -1.36,-0.56 -1.84,-1.14z"/>
  <path fill="#BDD180" d="M174.84 27.3c2.3,0 4.15,1.86 4.15,4.15 0,2.3 -1.85,4.16 -4.15,4.16 -2.29,0 -4.15,-1.86 -4.15,-4.16 0,-2.29 1.86,-4.15 4.15,-4.15z"/>
  <path fill="#BDD180" d="M299.69 11.74c2.3,0 4.16,1.86 4.16,4.15 0,2.3 -1.86,4.16 -4.16,4.16 -2.29,0 -4.15,-1.86 -4.15,-4.16 0,-2.29 1.86,-4.15 4.15,-4.15z"/>
  <path fill="#BDD180" d="M300.8 182.16c2.3,0 4.16,1.86 4.16,4.15 0,2.3 -1.86,4.16 -4.16,4.16 -2.29,0 -4.15,-1.86 -4.15,-4.16 0,-2.29 1.86,-4.15 4.15,-4.15z"/>
  <path fill="#BDD180" fill-rule="nonzero" d="M366.1 104.1l-2.42 0 0 0 -0.01 -0.23 -0.01 -0.23 -0.03 -0.23 -0.04 -0.22 -0.05 -0.22 -0.06 -0.21 -0.07 -0.21 -0.08 -0.2 -0.09 -0.2 -0.1 -0.19 -0.11 -0.19 -0.12 -0.18 -0.12 -0.18 -0.13 -0.17 -0.15 -0.16 -0.14 -0.16 -0.16 -0.14 -0.16 -0.15 -0.17 -0.13 -0.18 -0.12 -0.18 -0.12 -0.19 -0.11 -0.19 -0.1 -0.2 -0.09 -0.2 -0.08 -0.21 -0.07 -0.22 -0.06 -0.21 -0.05 -0.22 -0.04 -0.23 -0.03 -0.23 -0.01 -0.23 -0.01 0 -2.42 0.36 0.01 0.35 0.02 0.34 0.05 0.34 0.06 0.34 0.08 0.33 0.09 0.32 0.11 0.31 0.12 0.31 0.14 0.29 0.15 0.3 0.17 0.28 0.18 0.27 0.19 0.26 0.21 0.25 0.21 0.24 0.23 0.23 0.24 0.21 0.25 0.21 0.26 0.19 0.27 0.18 0.28 0.17 0.29 0.15 0.3 0.14 0.31 0.12 0.31 0.11 0.32 0.09 0.33 0.08 0.34 0.06 0.34 0.05 0.34 0.02 0.35 0.01 0.36 0 0zm-6.91 6.9l0 -2.42 0 0 0.23 0 0.23 -0.02 0.23 -0.03 0.22 -0.04 0.21 -0.05 0.22 -0.06 0.21 -0.07 0.2 -0.08 0.2 -0.09 0.19 -0.1 0.19 -0.1 0.18 -0.12 0.18 -0.13 0.17 -0.13 0.16 -0.14 0.16 -0.15 0.14 -0.16 0.15 -0.16 0.13 -0.17 0.12 -0.18 0.12 -0.18 0.11 -0.18 0.1 -0.2 0.09 -0.2 0.08 -0.2 0.07 -0.21 0.06 -0.21 0.05 -0.22 0.04 -0.22 0.03 -0.23 0.01 -0.22 0.01 -0.23 2.42 0 -0.01 0.35 -0.02 0.35 -0.05 0.35 -0.06 0.34 -0.08 0.33 -0.09 0.33 -0.11 0.32 -0.12 0.32 -0.14 0.3 -0.15 0.3 -0.17 0.29 -0.18 0.28 -0.19 0.27 -0.21 0.26 -0.21 0.25 -0.23 0.24 -0.24 0.23 -0.25 0.22 -0.26 0.2 -0.27 0.2 -0.28 0.17 -0.3 0.17 -0.29 0.15 -0.31 0.14 -0.31 0.13 -0.32 0.1 -0.33 0.1 -0.34 0.08 -0.34 0.06 -0.34 0.04 -0.35 0.03 -0.36 0 0 0zm-6.91 -6.9l2.43 0 0 0 0 0.23 0.02 0.22 0.03 0.23 0.04 0.22 0.05 0.22 0.06 0.21 0.07 0.21 0.08 0.2 0.09 0.2 0.1 0.2 0.1 0.18 0.12 0.18 0.13 0.18 0.13 0.17 0.14 0.16 0.15 0.16 0.16 0.15 0.16 0.14 0.17 0.13 0.18 0.13 0.18 0.12 0.18 0.1 0.2 0.1 0.2 0.09 0.2 0.08 0.21 0.07 0.21 0.06 0.22 0.05 0.22 0.04 0.22 0.03 0.23 0.02 0.23 0 0 2.42 -0.35 0 -0.35 -0.03 -0.35 -0.04 -0.34 -0.06 -0.33 -0.08 -0.33 -0.1 -0.32 -0.1 -0.32 -0.13 -0.3 -0.14 -0.3 -0.15 -0.29 -0.17 -0.28 -0.17 -0.27 -0.2 -0.26 -0.2 -0.25 -0.22 -0.24 -0.23 -0.23 -0.24 -0.22 -0.25 -0.2 -0.26 -0.2 -0.27 -0.18 -0.28 -0.16 -0.29 -0.15 -0.3 -0.14 -0.3 -0.13 -0.32 -0.1 -0.32 -0.1 -0.33 -0.08 -0.33 -0.06 -0.34 -0.04 -0.35 -0.03 -0.35 -0.01 -0.35 0 0zm6.91 -6.91l0 2.42 0 0 -0.23 0.01 -0.23 0.01 -0.22 0.03 -0.22 0.04 -0.22 0.05 -0.21 0.06 -0.21 0.07 -0.2 0.08 -0.2 0.09 -0.2 0.1 -0.18 0.11 -0.18 0.12 -0.18 0.12 -0.17 0.13 -0.16 0.15 -0.16 0.14 -0.15 0.16 -0.14 0.16 -0.13 0.17 -0.13 0.18 -0.12 0.18 -0.1 0.19 -0.1 0.19 -0.09 0.2 -0.08 0.2 -0.07 0.21 -0.06 0.21 -0.05 0.22 -0.04 0.22 -0.03 0.23 -0.02 0.23 0 0.23 -2.43 0 0.01 -0.36 0.03 -0.35 0.04 -0.34 0.06 -0.34 0.08 -0.34 0.1 -0.33 0.1 -0.32 0.13 -0.31 0.14 -0.31 0.15 -0.3 0.16 -0.29 0.18 -0.28 0.2 -0.27 0.2 -0.26 0.22 -0.25 0.23 -0.24 0.24 -0.23 0.25 -0.21 0.26 -0.21 0.27 -0.19 0.28 -0.18 0.29 -0.17 0.3 -0.15 0.3 -0.14 0.32 -0.12 0.32 -0.11 0.33 -0.09 0.33 -0.08 0.34 -0.06 0.35 -0.05 0.35 -0.02 0.35 -0.01 0 0z"/>
  <path fill="#BDD180" d="M264.79 174.99l0.69 -1.15 -10.95 -6.64c-0.92,-0.56 -1.53,-1.44 -1.77,-2.41 -0.24,-0.97 -0.11,-2.03 0.45,-2.95l0.36 -0.59c0.55,-0.92 1.44,-1.53 2.41,-1.77 0.97,-0.23 2.03,-0.1 2.95,0.45l10.95 6.64 0.43 -0.7 -7.78 -4.71c-0.94,-0.57 -1.56,-1.47 -1.81,-2.47 -0.24,-1 -0.11,-2.09 0.46,-3.04 0.57,-0.94 1.48,-1.57 2.48,-1.81 1,-0.24 2.09,-0.11 3.03,0.46l7.78 4.71 0.58 -0.97 -5.1 -3.09c-0.82,-0.49 -1.36,-1.28 -1.57,-2.14 -0.21,-0.87 -0.1,-1.81 0.4,-2.63 0.5,-0.82 1.28,-1.36 2.15,-1.57 0.86,-0.21 1.81,-0.1 2.62,0.4l5.11 3.09 0.59 -0.98 -2.94 -1.78c-0.85,-0.51 -1.44,-1.28 -1.71,-2.11 -0.02,-0.07 -0.04,-0.13 -0.05,-0.2l0.93 0c2.44,0 4.69,-0.82 6.5,-2.2l0.79 0.48 0.95 -1.57c-0.06,-0.13 -0.1,-0.26 -0.14,-0.39 1.66,-1.9 2.67,-4.38 2.67,-7.09l0 -0.18c0.58,-0.91 1.53,-1.77 2.59,-2.19 0.91,-0.36 1.91,-0.39 2.82,0.17 0.91,0.55 1.34,1.44 1.45,2.42 0.12,1.17 -0.23,2.46 -0.79,3.39l-2.01 3.31c-0.56,0.93 -1.5,1.78 -2.56,2.17l-0.09 0.03 -1.28 2.12 2.93 1.78c0.86,0.51 1.45,1.28 1.71,2.11 0.27,0.84 0.21,1.73 -0.24,2.48l-0.23 0.39c-0.46,0.75 -1.22,1.21 -2.09,1.36 -0.86,0.15 -1.82,-0.02 -2.67,-0.53l-2.92 -1.78 -0.6 0.98 5.1 3.09c0.82,0.49 1.36,1.28 1.57,2.14 0.21,0.87 0.09,1.81 -0.4,2.63 -0.5,0.82 -1.28,1.36 -2.15,1.57 -0.86,0.21 -1.81,0.1 -2.62,-0.4l-5.1 -3.08 -0.58 0.97 7.76 4.7c0.94,0.57 1.57,1.48 1.81,2.48 0.25,1 0.12,2.09 -0.46,3.03 -0.57,0.94 -1.47,1.57 -2.47,1.81 -1,0.25 -2.09,0.11 -3.04,-0.46l-7.76 -4.7 -0.42 0.7 10.94 6.63c0.92,0.55 1.53,1.44 1.77,2.41 0.23,0.97 0.1,2.03 -0.45,2.95l-0.36 0.59c-0.56,0.92 -1.44,1.52 -2.41,1.76 -0.97,0.24 -2.03,0.11 -2.95,-0.45l-10.95 -6.63 -0.7 1.15 12.76 7.73c1.39,0.84 2.31,2.18 2.68,3.65 0.36,1.48 0.16,3.09 -0.68,4.48l-0.65 1.07c-0.84,1.39 -2.18,2.31 -3.65,2.67 -1.48,0.36 -3.09,0.16 -4.48,-0.68l-29.14 -17.66c-1.39,-0.84 -2.31,-2.18 -2.67,-3.65 -0.37,-1.47 -0.17,-3.09 0.68,-4.48l0.64 -1.06c0.84,-1.4 2.18,-2.32 3.66,-2.68 1.47,-0.36 3.08,-0.16 4.47,0.68l12.77 7.74z"/>
  <path fill="#BDD180" fill-rule="nonzero" d="M89.87 23.67l-2.42 0 0 0 0 -0.23 -0.02 -0.23 -0.03 -0.22 -0.04 -0.22 -0.05 -0.22 -0.06 -0.21 -0.07 -0.21 -0.08 -0.2 -0.09 -0.2 -0.1 -0.2 -0.11 -0.18 -0.12 -0.18 -0.12 -0.18 -0.13 -0.17 -0.15 -0.16 -0.14 -0.16 -0.16 -0.15 -0.16 -0.14 -0.17 -0.13 -0.18 -0.13 -0.18 -0.11 -0.19 -0.11 -0.19 -0.1 -0.2 -0.09 -0.2 -0.08 -0.21 -0.07 -0.21 -0.06 -0.22 -0.05 -0.22 -0.04 -0.23 -0.03 -0.22 -0.02 -0.24 0 0 -2.42 0.36 0 0.35 0.03 0.34 0.04 0.34 0.07 0.34 0.07 0.33 0.1 0.32 0.11 0.31 0.12 0.31 0.14 0.3 0.15 0.29 0.17 0.28 0.18 0.27 0.19 0.26 0.2 0.25 0.22 0.24 0.23 0.23 0.24 0.21 0.25 0.21 0.26 0.19 0.27 0.18 0.28 0.17 0.29 0.15 0.3 0.14 0.3 0.12 0.32 0.11 0.32 0.1 0.33 0.07 0.33 0.06 0.34 0.05 0.35 0.02 0.35 0.01 0.35 0 0zm-6.91 6.91l0 -2.42 0 0 0.24 -0.01 0.22 -0.01 0.23 -0.03 0.22 -0.04 0.22 -0.05 0.21 -0.06 0.21 -0.07 0.2 -0.08 0.2 -0.09 0.19 -0.1 0.19 -0.11 0.18 -0.12 0.18 -0.12 0.17 -0.13 0.16 -0.14 0.16 -0.16 0.15 -0.15 0.14 -0.16 0.13 -0.17 0.12 -0.18 0.12 -0.18 0.11 -0.19 0.1 -0.19 0.09 -0.2 0.08 -0.2 0.07 -0.21 0.06 -0.21 0.05 -0.22 0.04 -0.22 0.03 -0.23 0.02 -0.23 0 -0.23 2.42 0 -0.01 0.36 -0.02 0.35 -0.05 0.34 -0.06 0.34 -0.07 0.34 -0.1 0.33 -0.11 0.32 -0.12 0.31 -0.14 0.31 -0.15 0.3 -0.17 0.29 -0.18 0.28 -0.19 0.27 -0.21 0.26 -0.21 0.25 -0.23 0.24 -0.24 0.23 -0.25 0.21 -0.26 0.21 -0.27 0.19 -0.28 0.18 -0.29 0.17 -0.3 0.15 -0.31 0.14 -0.31 0.12 -0.32 0.11 -0.33 0.09 -0.34 0.08 -0.34 0.06 -0.34 0.05 -0.35 0.02 -0.36 0.01 0 0zm-6.9 -6.91l2.42 0 0 0 0 0.23 0.02 0.23 0.03 0.23 0.04 0.22 0.05 0.22 0.06 0.21 0.07 0.21 0.08 0.2 0.09 0.2 0.1 0.19 0.1 0.19 0.12 0.18 0.13 0.18 0.13 0.17 0.14 0.16 0.15 0.15 0.16 0.16 0.16 0.14 0.17 0.13 0.18 0.12 0.18 0.12 0.19 0.11 0.19 0.1 0.2 0.09 0.2 0.08 0.21 0.07 0.21 0.06 0.22 0.05 0.22 0.04 0.23 0.03 0.22 0.01 0.23 0.01 0 2.42 -0.35 -0.01 -0.35 -0.02 -0.35 -0.05 -0.34 -0.06 -0.33 -0.08 -0.33 -0.09 -0.32 -0.11 -0.32 -0.12 -0.3 -0.14 -0.3 -0.15 -0.29 -0.17 -0.28 -0.18 -0.27 -0.19 -0.26 -0.21 -0.25 -0.21 -0.24 -0.23 -0.23 -0.24 -0.21 -0.25 -0.21 -0.26 -0.19 -0.27 -0.18 -0.28 -0.17 -0.29 -0.15 -0.3 -0.14 -0.31 -0.12 -0.31 -0.11 -0.32 -0.1 -0.33 -0.07 -0.34 -0.06 -0.34 -0.05 -0.34 -0.03 -0.35 0 -0.36 0 0zm6.9 -6.9l0 2.42 0 0 -0.23 0 -0.22 0.02 -0.23 0.03 -0.22 0.04 -0.22 0.05 -0.21 0.06 -0.21 0.07 -0.2 0.08 -0.2 0.09 -0.19 0.1 -0.19 0.11 -0.18 0.11 -0.18 0.13 -0.17 0.13 -0.16 0.14 -0.16 0.15 -0.15 0.16 -0.14 0.16 -0.13 0.17 -0.13 0.18 -0.11 0.18 -0.11 0.18 -0.1 0.2 -0.09 0.2 -0.08 0.2 -0.07 0.21 -0.06 0.21 -0.05 0.22 -0.04 0.22 -0.03 0.22 -0.02 0.23 0 0.23 -2.42 0 0 -0.35 0.03 -0.35 0.05 -0.35 0.06 -0.34 0.07 -0.33 0.1 -0.33 0.11 -0.32 0.12 -0.32 0.14 -0.3 0.15 -0.3 0.17 -0.29 0.18 -0.28 0.19 -0.27 0.21 -0.26 0.21 -0.25 0.23 -0.24 0.24 -0.23 0.25 -0.22 0.26 -0.2 0.27 -0.19 0.28 -0.18 0.29 -0.17 0.3 -0.15 0.3 -0.14 0.32 -0.12 0.32 -0.11 0.33 -0.1 0.33 -0.07 0.34 -0.07 0.35 -0.04 0.35 -0.03 0.35 0 0 0z"/>
  <path fill="#BDD180" d="M157.98 200.15c-1.58,-2.35 -3.07,-4.82 -4.46,-7.4l-0.01 -0.03 -0.03 -0.05 -0.02 -0.03 -0.01 -0.03 -0.02 -0.03 -0.01 -0.02 -0.02 -0.03 -0.01 -0.03 -0.08 -0.14 -0.01 -0.03 -0.02 -0.02 -0.01 -0.03 -0.01 -0.03 -0.02 -0.03 -0.01 -0.02 -0.02 -0.03 -0.01 -0.03 -0.02 -0.03 -0.01 -0.03 -0.02 -0.02 -0.01 -0.03 -0.02 -0.03 -0.01 -0.03 -0.02 -0.02 0 -0.01 -0.01 -0.02 -0.01 -0.03 -0.02 -0.03 -0.01 -0.03 -0.16 -0.3 -0.02 -0.03 -0.01 -0.03 -0.01 -0.01 -0.01 -0.02 -0.01 -0.03c-0.07,-0.13 -0.14,-0.26 -0.2,-0.39l-0.02 -0.03 -0.01 -0.02 -0.01 0 0 0c3.26,-1.49 5.68,-4.21 6.71,-7.37 0.58,1.46 1.13,3.02 1.65,4.7 1.23,-0.04 2.53,-0.34 3.79,-0.85 0.08,0.16 0.16,0.32 0.24,0.48 1.56,-0.48 2.91,-1.15 3.83,-2.23 -0.21,-0.1 -0.41,-0.22 -0.62,-0.36 1.01,-0.88 1.86,-1.92 2.46,-3.1 -6.18,-1.4 -9.72,-10.67 -15.42,-14.76 0.85,0.06 1.41,-0.1 1.51,-0.57 0.72,-3.06 -3.28,-9.39 -5.48,-10.29 -1.27,-0.44 -3.48,2.88 -5.69,6.19 -0.19,-0.35 -0.4,-0.63 -0.66,-0.82 -1.06,-0.25 -2,0.15 -2.97,0.4 -0.04,0.32 -0.05,0.69 -0.01,1.11 -3.3,-2.07 -6.56,-4.09 -7.53,-3.18 -1.63,1.73 -2.7,9.15 -0.8,11.64 0.26,0.35 0.74,0.31 1.38,0.01 -3,5.98 -2.81,14.95 -7.68,18.47 0.89,0.74 1.91,1.31 3.01,1.72 -0.19,0.3 -0.38,0.57 -0.58,0.81 1.27,0.63 2.77,0.71 4.4,0.54 0.01,-0.2 0.02,-0.41 0.03,-0.61 1.58,0.06 3.12,-0.18 4.44,-0.69 -0.12,-1.17 -0.21,-2.29 -0.27,-3.38 1.98,1.88 4.64,3.07 7.54,3.32l-0.12 -0.01c-0.46,2.69 -0.91,5.36 -1.44,8.01l13.68 0zm5.92 0l-4.41 0c-1.58,-2.83 -3.52,-6.74 -4.56,-7.41 1.67,1.62 10,2.81 10.61,5.5 -0.21,0.02 -0.89,0.91 -1.64,1.91zm-20.84 0l-5.42 0c2.22,-2.15 6.28,-4.37 7.07,-5.81 -0.59,0.7 -1.13,3.24 -1.65,5.81zm3.26 -35.13c0.37,0.11 0.76,0.24 1.16,0.37 -0.35,-0.05 -0.71,-0.08 -1.09,-0.08 -0.03,-0.1 -0.05,-0.2 -0.07,-0.29zm-3.84 1.08c-0.22,0.11 -0.44,0.23 -0.64,0.36l-0.13 0.03c0.24,-0.22 0.47,-0.43 0.7,-0.63 0.03,0.08 0.05,0.16 0.07,0.24zm5.58 26.05c-0.54,0.05 -1.11,0.06 -1.75,0.03 0.57,0.02 1.16,0.02 1.75,-0.03z"/>
  <path fill="#BDD180" d="M97.41 182.53c2.3,0 4.15,1.86 4.15,4.15 0,2.3 -1.85,4.16 -4.15,4.16 -2.29,0 -4.15,-1.86 -4.15,-4.16 0,-2.29 1.86,-4.15 4.15,-4.15z"/>
  <path fill="#BDD180" fill-rule="nonzero" d="M221.66 173.88l-2.43 0 0 0 0 -0.24 -0.02 -0.22 -0.03 -0.23 -0.04 -0.22 -0.05 -0.21 -0.06 -0.22 -0.07 -0.21 -0.08 -0.2 -0.09 -0.2 -0.1 -0.19 -0.1 -0.19 -0.12 -0.18 -0.13 -0.18 -0.13 -0.17 -0.14 -0.16 -0.15 -0.15 -0.16 -0.15 -0.16 -0.15 -0.17 -0.13 -0.18 -0.12 -0.18 -0.12 -0.18 -0.11 -0.2 -0.1 -0.2 -0.09 -0.2 -0.08 -0.21 -0.07 -0.21 -0.06 -0.22 -0.05 -0.22 -0.04 -0.22 -0.03 -0.23 -0.01 -0.23 -0.01 0 -2.42 0.35 0.01 0.35 0.02 0.35 0.05 0.34 0.06 0.33 0.08 0.33 0.09 0.32 0.11 0.32 0.12 0.3 0.14 0.3 0.15 0.29 0.17 0.28 0.18 0.27 0.19 0.26 0.21 0.25 0.21 0.24 0.23 0.23 0.24 0.22 0.25 0.2 0.26 0.2 0.27 0.18 0.28 0.16 0.29 0.15 0.3 0.14 0.31 0.13 0.31 0.1 0.32 0.1 0.33 0.08 0.34 0.06 0.34 0.04 0.34 0.03 0.35 0.01 0.36 0 0zm-6.91 6.9l0 -2.42 0 0 0.23 0 0.23 -0.02 0.22 -0.03 0.22 -0.04 0.22 -0.05 0.21 -0.06 0.21 -0.07 0.2 -0.08 0.2 -0.09 0.2 -0.1 0.18 -0.11 0.18 -0.11 0.18 -0.13 0.17 -0.13 0.16 -0.14 0.16 -0.15 0.15 -0.16 0.14 -0.16 0.13 -0.17 0.13 -0.18 0.12 -0.18 0.1 -0.18 0.1 -0.2 0.09 -0.2 0.08 -0.2 0.07 -0.21 0.06 -0.21 0.05 -0.22 0.04 -0.22 0.03 -0.23 0.02 -0.22 0 -0.23 2.43 0 -0.01 0.35 -0.03 0.35 -0.04 0.35 -0.06 0.34 -0.08 0.33 -0.1 0.33 -0.1 0.32 -0.13 0.32 -0.14 0.3 -0.15 0.3 -0.17 0.29 -0.17 0.28 -0.2 0.27 -0.2 0.26 -0.22 0.25 -0.23 0.24 -0.24 0.23 -0.25 0.22 -0.26 0.2 -0.27 0.19 -0.28 0.18 -0.29 0.17 -0.3 0.15 -0.3 0.14 -0.32 0.13 -0.32 0.1 -0.33 0.1 -0.33 0.08 -0.34 0.06 -0.35 0.04 -0.35 0.03 -0.35 0 0 0zm-6.91 -6.9l2.42 0 0 0 0.01 0.23 0.01 0.22 0.03 0.23 0.04 0.22 0.05 0.22 0.06 0.21 0.07 0.21 0.08 0.2 0.09 0.2 0.1 0.2 0.11 0.18 0.12 0.18 0.12 0.18 0.13 0.17 0.15 0.16 0.14 0.16 0.16 0.15 0.16 0.14 0.17 0.13 0.18 0.13 0.18 0.11 0.19 0.11 0.19 0.1 0.2 0.09 0.2 0.08 0.21 0.07 0.22 0.06 0.21 0.05 0.22 0.04 0.23 0.03 0.23 0.02 0.23 0 0 2.42 -0.36 0 -0.35 -0.03 -0.34 -0.04 -0.34 -0.06 -0.34 -0.08 -0.33 -0.1 -0.32 -0.1 -0.31 -0.13 -0.31 -0.14 -0.29 -0.15 -0.3 -0.17 -0.28 -0.18 -0.27 -0.19 -0.26 -0.2 -0.25 -0.22 -0.24 -0.23 -0.23 -0.24 -0.21 -0.25 -0.21 -0.26 -0.19 -0.27 -0.18 -0.28 -0.17 -0.29 -0.15 -0.3 -0.14 -0.3 -0.12 -0.32 -0.11 -0.32 -0.09 -0.33 -0.08 -0.33 -0.06 -0.34 -0.05 -0.35 -0.02 -0.35 -0.01 -0.35 0 0zm6.91 -6.91l0 2.42 0 0 -0.23 0.01 -0.23 0.01 -0.23 0.03 -0.22 0.04 -0.21 0.05 -0.22 0.06 -0.21 0.07 -0.2 0.08 -0.2 0.09 -0.19 0.1 -0.19 0.11 -0.18 0.12 -0.18 0.12 -0.17 0.13 -0.16 0.15 -0.16 0.15 -0.14 0.15 -0.15 0.16 -0.13 0.17 -0.12 0.18 -0.12 0.18 -0.11 0.19 -0.1 0.19 -0.09 0.2 -0.08 0.2 -0.07 0.21 -0.06 0.22 -0.05 0.21 -0.04 0.22 -0.03 0.23 -0.01 0.22 -0.01 0.24 -2.42 0 0.01 -0.36 0.02 -0.35 0.05 -0.34 0.06 -0.34 0.08 -0.34 0.09 -0.33 0.11 -0.32 0.12 -0.31 0.14 -0.31 0.15 -0.3 0.17 -0.29 0.18 -0.28 0.19 -0.27 0.21 -0.26 0.21 -0.25 0.23 -0.24 0.24 -0.23 0.25 -0.21 0.26 -0.21 0.27 -0.19 0.28 -0.18 0.3 -0.17 0.29 -0.15 0.31 -0.14 0.31 -0.12 0.32 -0.11 0.33 -0.09 0.34 -0.08 0.34 -0.06 0.34 -0.05 0.35 -0.02 0.36 -0.01 0 0z"/>
  <path fill="#BDD180" fill-rule="nonzero" d="M83.95 100.96c1,0 1.94,0.21 2.8,0.59l0 2.81c-0.77,-0.61 -1.74,-0.98 -2.8,-0.98 -1.24,0 -2.36,0.51 -3.17,1.32 -0.81,0.81 -1.32,1.93 -1.32,3.17 0,1.24 0.51,2.36 1.32,3.17 0.81,0.81 1.93,1.32 3.17,1.32 1.06,0 2.03,-0.37 2.8,-0.98l0 2.81c-0.86,0.38 -1.8,0.59 -2.8,0.59 -1.91,0 -3.63,-0.78 -4.88,-2.03 -1.26,-1.25 -2.03,-2.97 -2.03,-4.88 0,-1.91 0.77,-3.64 2.03,-4.88 1.25,-1.26 2.97,-2.03 4.88,-2.03z"/>
  <path fill="#BDD180" d="M18.6 90.82c2.29,0 4.15,1.85 4.15,4.15 0,2.29 -1.86,4.15 -4.15,4.15 -2.29,0 -4.15,-1.86 -4.15,-4.15 0,-2.3 1.86,-4.15 4.15,-4.15z"/>
  <path fill="#BDD180" fill-rule="nonzero" d="M281.97 44.45c1.91,0 3.64,0.77 4.88,2.02 1.26,1.25 2.03,2.98 2.03,4.89 0,1.91 -0.77,3.63 -2.03,4.88 -0.76,0.77 -1.7,1.35 -2.76,1.69 -0.59,-0.78 -1.29,-1.49 -2.07,-2.09 1.22,-0.01 2.32,-0.51 3.12,-1.31 0.81,-0.81 1.32,-1.93 1.32,-3.17 0,-1.24 -0.51,-2.36 -1.32,-3.17 -0.81,-0.82 -1.93,-1.32 -3.17,-1.32 -1.24,0 -2.36,0.5 -3.17,1.32 -0.81,0.81 -1.32,1.93 -1.32,3.17 0,0.99 0.32,1.9 0.87,2.64 -0.92,-0.25 -1.88,-0.39 -2.87,-0.39l-0.04 0c-0.24,-0.7 -0.38,-1.46 -0.38,-2.25 0,-1.91 0.78,-3.64 2.03,-4.89 1.25,-1.25 2.97,-2.02 4.88,-2.02z"/>
  <path fill="#BDD180" d="M187.23 155.33c2.29,0 4.15,1.86 4.15,4.15 0,2.29 -1.86,4.15 -4.15,4.15 -2.29,0 -4.15,-1.86 -4.15,-4.15 0,-2.29 1.86,-4.15 4.15,-4.15z"/>
  <path fill="#FEFEFE" fill-rule="nonzero" d="M275.48 54.37l-177.96 0 0 -1.51 177.96 0 0 0 0 1.51zm11.53 10.01l-1.52 0 0 0 -0.01 -0.51 -0.04 -0.51 -0.06 -0.5 -0.09 -0.49 -0.11 -0.48 -0.14 -0.48 -0.16 -0.46 -0.18 -0.45 -0.2 -0.45 -0.22 -0.43 -0.24 -0.42 -0.26 -0.4 -0.28 -0.4 -0.3 -0.38 -0.31 -0.36 -0.34 -0.35 -0.35 -0.33 -0.36 -0.32 -0.38 -0.29 -0.39 -0.28 -0.41 -0.27 -0.42 -0.24 -0.43 -0.22 -0.44 -0.2 -0.46 -0.18 -0.46 -0.16 -0.47 -0.13 -0.49 -0.11 -0.49 -0.09 -0.5 -0.07 -0.5 -0.04 -0.52 -0.01 0 -1.51 0.59 0.01 0.59 0.05 0.57 0.07 0.57 0.1 0.56 0.13 0.54 0.16 0.54 0.18 0.52 0.21 0.51 0.23 0.5 0.25 0.48 0.28 0.47 0.3 0.45 0.32 0.43 0.35 0.42 0.36 0.4 0.38 0.38 0.4 0.37 0.42 0.34 0.44 0.32 0.45 0.3 0.47 0.28 0.48 0.26 0.49 0.23 0.51 0.2 0.53 0.19 0.53 0.15 0.55 0.13 0.55 0.1 0.57 0.08 0.58 0.04 0.58 0.02 0.59 0 0zm-1.52 71.88l0 -71.88 1.52 0 0 71.88 0 0 -1.52 0zm-10.01 11.53l0 -1.52 0 0 0.52 -0.01 0.5 -0.04 0.5 -0.06 0.49 -0.09 0.49 -0.11 0.47 -0.14 0.46 -0.16 0.46 -0.18 0.44 -0.2 0.43 -0.22 0.42 -0.24 0.41 -0.26 0.39 -0.28 0.38 -0.3 0.36 -0.31 0.35 -0.34 0.34 -0.35 0.31 -0.36 0.3 -0.38 0.28 -0.39 0.26 -0.41 0.24 -0.42 0.22 -0.43 0.2 -0.44 0.18 -0.45 0.16 -0.47 0.14 -0.47 0.11 -0.49 0.09 -0.49 0.06 -0.5 0.04 -0.5 0.01 -0.52 1.52 0 -0.02 0.59 -0.04 0.59 -0.08 0.57 -0.1 0.57 -0.13 0.56 -0.15 0.54 -0.18 0.54 -0.21 0.52 -0.23 0.51 -0.26 0.5 -0.28 0.48 -0.3 0.47 -0.32 0.45 -0.34 0.43 -0.37 0.42 -0.38 0.4 -0.4 0.39 -0.42 0.36 -0.43 0.34 -0.45 0.32 -0.47 0.3 -0.48 0.28 -0.5 0.26 -0.51 0.23 -0.52 0.21 -0.54 0.18 -0.54 0.15 -0.56 0.13 -0.57 0.1 -0.57 0.08 -0.59 0.04 -0.59 0.02 0 0zm-177.96 -1.52l177.96 0 0 1.52 -177.96 0 0 0 0 -1.52zm-11.53 -10.01l1.52 0 0 0 0.01 0.52 0.04 0.5 0.06 0.5 0.09 0.49 0.11 0.49 0.14 0.47 0.16 0.47 0.17 0.45 0.21 0.44 0.22 0.43 0.24 0.42 0.26 0.41 0.28 0.39 0.3 0.38 0.31 0.36 0.34 0.35 0.35 0.34 0.36 0.31 0.38 0.3 0.39 0.28 0.41 0.26 0.42 0.24 0.43 0.22 0.44 0.2 0.45 0.18 0.47 0.16 0.47 0.14 0.49 0.11 0.49 0.09 0.5 0.06 0.5 0.04 0.52 0.01 0 1.52 -0.59 -0.02 -0.59 -0.04 -0.57 -0.08 -0.57 -0.1 -0.56 -0.13 -0.54 -0.15 -0.54 -0.18 -0.52 -0.21 -0.51 -0.23 -0.5 -0.26 -0.48 -0.28 -0.47 -0.3 -0.45 -0.32 -0.43 -0.34 -0.42 -0.36 -0.4 -0.39 -0.39 -0.4 -0.36 -0.42 -0.34 -0.43 -0.32 -0.45 -0.3 -0.47 -0.28 -0.48 -0.26 -0.5 -0.23 -0.51 -0.21 -0.52 -0.18 -0.54 -0.15 -0.54 -0.13 -0.56 -0.1 -0.57 -0.08 -0.57 -0.04 -0.59 -0.02 -0.59 0 0zm1.52 -71.88l0 71.88 -1.52 0 0 -71.88 0 0 1.52 0zm10.01 -11.52l0 1.51 0 0 -0.52 0.01 -0.5 0.04 -0.5 0.07 -0.49 0.09 -0.49 0.11 -0.47 0.13 -0.47 0.16 -0.45 0.18 -0.44 0.2 -0.43 0.22 -0.42 0.24 -0.41 0.27 -0.39 0.28 -0.38 0.29 -0.36 0.32 -0.35 0.33 -0.34 0.35 -0.31 0.36 -0.3 0.38 -0.28 0.4 -0.26 0.4 -0.24 0.42 -0.22 0.43 -0.21 0.45 -0.18 0.45 -0.15 0.46 -0.14 0.48 -0.11 0.48 -0.09 0.49 -0.06 0.5 -0.04 0.51 -0.01 0.51 -1.52 0 0.02 -0.59 0.04 -0.58 0.08 -0.58 0.1 -0.57 0.13 -0.55 0.15 -0.55 0.18 -0.53 0.21 -0.53 0.23 -0.51 0.26 -0.49 0.28 -0.48 0.3 -0.47 0.32 -0.45 0.34 -0.44 0.36 -0.42 0.39 -0.4 0.4 -0.38 0.42 -0.36 0.43 -0.35 0.45 -0.32 0.47 -0.3 0.48 -0.28 0.5 -0.25 0.51 -0.23 0.52 -0.21 0.54 -0.18 0.54 -0.16 0.56 -0.13 0.57 -0.1 0.57 -0.07 0.59 -0.05 0.59 -0.01 0 0z"/>
</svg>
