<svg xmlns="http://www.w3.org/2000/svg" xml:space="preserve" width="373px" height="200px" version="1.1" style="shape-rendering:geometricPrecision; text-rendering:geometricPrecision; image-rendering:optimizeQuality; fill-rule:evenodd; clip-rule:evenodd" viewBox="0 0 373 200"  xmlns:xlink="http://www.w3.org/1999/xlink">
  <path fill="#D8ECE4" d="M11.21 -0.5l350.58 0c6.17,0 11.21,5.04 11.21,11.21l0 177.23c0,6.16 -5.04,11.21 -11.21,11.21l-350.58 0c-6.17,0 -11.21,-5.05 -11.21,-11.21l0 -177.23c0,-6.17 5.04,-11.21 11.21,-11.21z"/>
  <path fill="#D8ECE4" d="M11.21 -0.5l350.58 0c6.17,0 11.21,5.04 11.21,11.21l0 177.23c0,6.16 -5.04,11.21 -11.21,11.21l-350.58 0c-6.17,0 -11.21,-5.05 -11.21,-11.21l0 -177.23c0,-6.17 5.04,-11.21 11.21,-11.21zm86.31 53.12l177.96 0c5.93,0 10.77,4.84 10.77,10.76l0 71.89c0,5.92 -4.84,10.76 -10.77,10.76l-177.96 0c-5.93,0 -10.77,-4.84 -10.77,-10.76l0 -71.89c0,-5.92 4.84,-10.76 10.77,-10.76z"/>
  <path fill="#C7E3D8" fill-rule="nonzero" d="M257.67 31.69l-2.43 0 0 0 0 -0.23 -0.02 -0.23 -0.03 -0.22 -0.04 -0.22 -0.05 -0.22 -0.06 -0.21 -0.07 -0.21 -0.08 -0.2 -0.09 -0.2 -0.1 -0.2 -0.1 -0.18 -0.12 -0.19 -0.13 -0.17 -0.13 -0.17 -0.14 -0.17 -0.15 -0.15 -0.16 -0.15 -0.16 -0.14 -0.17 -0.14 -0.18 -0.12 -0.18 -0.12 -0.18 -0.1 -0.2 -0.1 -0.2 -0.09 -0.2 -0.08 -0.21 -0.07 -0.21 -0.06 -0.22 -0.05 -0.22 -0.04 -0.22 -0.03 -0.23 -0.02 -0.23 -0.01 0 -2.42 0.35 0.01 0.35 0.03 0.35 0.04 0.34 0.06 0.33 0.08 0.33 0.09 0.32 0.11 0.32 0.13 0.3 0.13 0.3 0.16 0.29 0.16 0.28 0.18 0.27 0.2 0.26 0.2 0.25 0.22 0.24 0.23 0.23 0.24 0.22 0.25 0.2 0.26 0.2 0.27 0.17 0.28 0.17 0.29 0.15 0.3 0.14 0.3 0.13 0.32 0.1 0.32 0.1 0.32 0.08 0.34 0.06 0.34 0.04 0.35 0.03 0.35 0.01 0.35 0 0zm-6.91 6.91l0 -2.42 0 0 0.23 -0.01 0.23 -0.02 0.22 -0.02 0.22 -0.04 0.22 -0.05 0.21 -0.06 0.21 -0.07 0.2 -0.08 0.2 -0.09 0.2 -0.1 0.18 -0.11 0.18 -0.12 0.18 -0.12 0.17 -0.14 0.16 -0.14 0.16 -0.15 0.15 -0.15 0.14 -0.17 0.13 -0.17 0.13 -0.17 0.12 -0.18 0.1 -0.19 0.1 -0.19 0.09 -0.2 0.08 -0.2 0.07 -0.22 0.06 -0.21 0.05 -0.21 0.04 -0.22 0.03 -0.23 0.02 -0.23 0 -0.23 2.43 0 -0.01 0.36 -0.03 0.35 -0.04 0.34 -0.06 0.34 -0.08 0.34 -0.1 0.33 -0.1 0.32 -0.13 0.31 -0.14 0.31 -0.15 0.29 -0.17 0.29 -0.17 0.28 -0.2 0.28 -0.2 0.26 -0.22 0.25 -0.23 0.24 -0.24 0.23 -0.25 0.21 -0.26 0.21 -0.27 0.19 -0.28 0.18 -0.29 0.17 -0.3 0.15 -0.3 0.14 -0.32 0.12 -0.32 0.11 -0.33 0.09 -0.33 0.08 -0.34 0.06 -0.35 0.04 -0.35 0.03 -0.35 0.01 0 0zm-6.91 -6.91l2.42 0 0 0 0.01 0.23 0.01 0.23 0.03 0.23 0.04 0.22 0.05 0.21 0.06 0.21 0.07 0.22 0.08 0.2 0.09 0.2 0.1 0.19 0.11 0.19 0.12 0.18 0.12 0.17 0.13 0.17 0.15 0.17 0.14 0.15 0.16 0.15 0.16 0.14 0.17 0.14 0.18 0.12 0.18 0.12 0.19 0.11 0.19 0.1 0.2 0.09 0.2 0.08 0.21 0.07 0.21 0.06 0.22 0.05 0.22 0.04 0.23 0.02 0.23 0.02 0.23 0.01 0 2.42 -0.36 -0.01 -0.35 -0.03 -0.34 -0.04 -0.34 -0.06 -0.34 -0.08 -0.33 -0.09 -0.32 -0.11 -0.31 -0.12 -0.31 -0.14 -0.29 -0.15 -0.3 -0.17 -0.28 -0.18 -0.27 -0.19 -0.26 -0.21 -0.25 -0.21 -0.24 -0.23 -0.23 -0.24 -0.21 -0.25 -0.21 -0.26 -0.19 -0.28 -0.18 -0.28 -0.17 -0.29 -0.15 -0.29 -0.14 -0.31 -0.12 -0.31 -0.11 -0.32 -0.09 -0.33 -0.08 -0.34 -0.06 -0.34 -0.05 -0.34 -0.02 -0.35 -0.01 -0.36 0 0zm6.91 -6.91l0 2.42 0 0 -0.23 0.01 -0.23 0.02 -0.23 0.03 -0.22 0.04 -0.22 0.05 -0.21 0.06 -0.21 0.07 -0.2 0.08 -0.2 0.09 -0.19 0.1 -0.19 0.1 -0.18 0.12 -0.18 0.12 -0.17 0.14 -0.16 0.14 -0.16 0.15 -0.14 0.15 -0.15 0.17 -0.13 0.17 -0.12 0.17 -0.12 0.19 -0.11 0.18 -0.1 0.2 -0.09 0.2 -0.08 0.2 -0.07 0.21 -0.06 0.21 -0.05 0.22 -0.04 0.22 -0.03 0.22 -0.01 0.23 -0.01 0.23 -2.42 0 0.01 -0.35 0.02 -0.35 0.05 -0.35 0.06 -0.34 0.08 -0.34 0.09 -0.32 0.11 -0.32 0.12 -0.32 0.14 -0.3 0.15 -0.3 0.17 -0.29 0.18 -0.28 0.19 -0.27 0.21 -0.26 0.21 -0.25 0.23 -0.24 0.24 -0.23 0.25 -0.22 0.26 -0.2 0.27 -0.2 0.28 -0.18 0.3 -0.16 0.29 -0.16 0.31 -0.13 0.31 -0.13 0.32 -0.11 0.33 -0.09 0.34 -0.08 0.34 -0.06 0.34 -0.04 0.35 -0.03 0.36 -0.01 0 0z"/>
  <path fill="#C7E3D8" d="M144.73 13.67c2.29,0 4.15,1.86 4.15,4.16 0,2.29 -1.86,4.15 -4.15,4.15 -2.29,0 -4.15,-1.86 -4.15,-4.15 0,-2.3 1.86,-4.16 4.15,-4.16z"/>
  <path fill="#C7E3D8" fill-rule="nonzero" d="M127.73 43.88l-2.42 0 0 0 0 -0.23 -0.02 -0.23 -0.03 -0.23 -0.04 -0.22 -0.05 -0.22 -0.06 -0.21 -0.07 -0.21 -0.08 -0.2 -0.09 -0.2 -0.1 -0.19 -0.11 -0.19 -0.11 -0.18 -0.13 -0.18 -0.13 -0.17 -0.14 -0.16 -0.15 -0.16 -0.16 -0.14 -0.16 -0.15 -0.17 -0.13 -0.18 -0.12 -0.18 -0.12 -0.19 -0.11 -0.19 -0.1 -0.2 -0.09 -0.2 -0.08 -0.21 -0.07 -0.21 -0.06 -0.22 -0.05 -0.22 -0.04 -0.23 -0.03 -0.22 -0.01 -0.23 -0.01 0 -2.42 0.35 0.01 0.35 0.02 0.35 0.05 0.34 0.06 0.33 0.08 0.33 0.09 0.32 0.11 0.32 0.12 0.3 0.14 0.3 0.15 0.29 0.17 0.28 0.18 0.27 0.19 0.26 0.21 0.25 0.21 0.24 0.23 0.23 0.24 0.21 0.25 0.21 0.26 0.19 0.27 0.18 0.28 0.17 0.3 0.15 0.29 0.14 0.31 0.12 0.31 0.11 0.32 0.1 0.33 0.07 0.34 0.06 0.34 0.05 0.34 0.03 0.35 0 0.36 0 0zm-6.9 6.91l0 -2.43 0 0 0.23 0 0.22 -0.02 0.23 -0.03 0.22 -0.04 0.22 -0.05 0.21 -0.06 0.21 -0.07 0.2 -0.08 0.2 -0.09 0.19 -0.1 0.19 -0.1 0.18 -0.12 0.18 -0.13 0.17 -0.13 0.16 -0.14 0.16 -0.15 0.15 -0.16 0.14 -0.16 0.13 -0.17 0.13 -0.18 0.11 -0.18 0.11 -0.18 0.1 -0.2 0.09 -0.2 0.08 -0.2 0.07 -0.21 0.06 -0.21 0.05 -0.22 0.04 -0.22 0.03 -0.22 0.02 -0.23 0 -0.23 2.42 0 0 0.35 -0.03 0.35 -0.05 0.35 -0.06 0.34 -0.07 0.33 -0.1 0.33 -0.11 0.32 -0.12 0.32 -0.14 0.3 -0.15 0.3 -0.17 0.29 -0.18 0.28 -0.19 0.27 -0.21 0.26 -0.21 0.25 -0.23 0.24 -0.24 0.23 -0.25 0.22 -0.26 0.2 -0.27 0.2 -0.28 0.17 -0.29 0.17 -0.3 0.15 -0.3 0.14 -0.32 0.13 -0.32 0.1 -0.33 0.1 -0.33 0.08 -0.34 0.06 -0.35 0.04 -0.35 0.03 -0.35 0.01 0 0zm-6.91 -6.91l2.42 0 0 0 0 0.23 0.02 0.23 0.03 0.22 0.04 0.22 0.05 0.22 0.06 0.21 0.07 0.21 0.08 0.2 0.09 0.2 0.1 0.2 0.11 0.18 0.12 0.18 0.12 0.18 0.13 0.17 0.15 0.16 0.14 0.16 0.16 0.15 0.16 0.14 0.17 0.13 0.18 0.13 0.18 0.12 0.19 0.1 0.19 0.1 0.2 0.09 0.2 0.08 0.21 0.07 0.21 0.06 0.22 0.05 0.22 0.04 0.23 0.03 0.22 0.02 0.24 0 0 2.43 -0.36 -0.01 -0.35 -0.03 -0.34 -0.04 -0.34 -0.06 -0.34 -0.08 -0.33 -0.1 -0.32 -0.1 -0.31 -0.13 -0.31 -0.14 -0.3 -0.15 -0.29 -0.17 -0.28 -0.17 -0.27 -0.2 -0.26 -0.2 -0.25 -0.22 -0.24 -0.23 -0.23 -0.24 -0.21 -0.25 -0.21 -0.26 -0.19 -0.27 -0.18 -0.28 -0.17 -0.29 -0.15 -0.3 -0.14 -0.3 -0.12 -0.32 -0.11 -0.32 -0.1 -0.33 -0.07 -0.33 -0.06 -0.34 -0.05 -0.35 -0.02 -0.35 -0.01 -0.35 0 0zm6.91 -6.91l0 2.42 0 0 -0.24 0.01 -0.22 0.01 -0.23 0.03 -0.22 0.04 -0.22 0.05 -0.21 0.06 -0.21 0.07 -0.2 0.08 -0.2 0.09 -0.19 0.1 -0.19 0.11 -0.18 0.12 -0.18 0.12 -0.17 0.13 -0.16 0.15 -0.16 0.14 -0.14 0.16 -0.15 0.16 -0.13 0.17 -0.12 0.18 -0.12 0.18 -0.11 0.19 -0.1 0.19 -0.09 0.2 -0.08 0.2 -0.07 0.21 -0.06 0.21 -0.05 0.22 -0.04 0.22 -0.03 0.23 -0.02 0.23 0 0.23 -2.42 0 0.01 -0.36 0.02 -0.35 0.05 -0.34 0.06 -0.34 0.07 -0.34 0.1 -0.33 0.11 -0.32 0.12 -0.31 0.14 -0.31 0.15 -0.29 0.17 -0.3 0.18 -0.28 0.19 -0.27 0.21 -0.26 0.21 -0.25 0.23 -0.24 0.24 -0.23 0.25 -0.21 0.26 -0.21 0.27 -0.19 0.28 -0.18 0.29 -0.17 0.3 -0.15 0.31 -0.14 0.31 -0.12 0.32 -0.11 0.33 -0.09 0.34 -0.08 0.34 -0.06 0.34 -0.05 0.35 -0.02 0.36 -0.01 0 0z"/>
  <path fill="#C7E3D8" d="M212.65 35.96c2.29,0 4.15,1.86 4.15,4.15 0,2.29 -1.86,4.15 -4.15,4.15 -2.3,0 -4.15,-1.86 -4.15,-4.15 0,-2.29 1.85,-4.15 4.15,-4.15z"/>
  <path fill="#C7E3D8" fill-rule="nonzero" d="M270.85 173.66l-2.42 0 0 0 -0.01 -0.23 -0.02 -0.22 -0.03 -0.23 -0.03 -0.22 -0.05 -0.22 -0.06 -0.21 -0.08 -0.21 -0.07 -0.2 -0.1 -0.2 -0.09 -0.19 -0.11 -0.19 -0.12 -0.18 -0.12 -0.18 -0.14 -0.17 -0.14 -0.16 -0.15 -0.16 -0.15 -0.15 -0.17 -0.14 -0.17 -0.13 -0.17 -0.13 -0.18 -0.11 -0.19 -0.11 -0.19 -0.1 -0.2 -0.09 -0.21 -0.08 -0.21 -0.07 -0.21 -0.06 -0.21 -0.05 -0.22 -0.04 -0.23 -0.03 -0.23 -0.02 -0.23 0 0 -2.42 0.36 0 0.35 0.03 0.34 0.05 0.34 0.06 0.34 0.07 0.33 0.1 0.32 0.11 0.31 0.12 0.31 0.14 0.29 0.15 0.29 0.17 0.28 0.18 0.28 0.19 0.26 0.21 0.25 0.21 0.24 0.23 0.23 0.24 0.21 0.25 0.21 0.26 0.19 0.27 0.18 0.28 0.17 0.29 0.15 0.3 0.14 0.3 0.12 0.32 0.11 0.32 0.09 0.33 0.08 0.33 0.06 0.34 0.04 0.35 0.03 0.35 0.01 0.35 0 0zm-6.91 6.91l0 -2.42 0 0 0.23 0 0.23 -0.02 0.23 -0.03 0.22 -0.04 0.21 -0.05 0.21 -0.06 0.21 -0.07 0.21 -0.08 0.2 -0.09 0.19 -0.1 0.19 -0.11 0.18 -0.11 0.17 -0.13 0.17 -0.13 0.17 -0.14 0.15 -0.15 0.15 -0.16 0.14 -0.16 0.14 -0.17 0.12 -0.18 0.12 -0.18 0.11 -0.19 0.09 -0.19 0.1 -0.2 0.07 -0.2 0.08 -0.21 0.06 -0.21 0.05 -0.22 0.03 -0.22 0.03 -0.23 0.02 -0.22 0.01 -0.24 2.42 0 -0.01 0.36 -0.03 0.35 -0.04 0.34 -0.06 0.35 -0.08 0.33 -0.09 0.33 -0.11 0.32 -0.12 0.32 -0.14 0.3 -0.15 0.3 -0.17 0.29 -0.18 0.28 -0.19 0.27 -0.21 0.26 -0.21 0.25 -0.23 0.24 -0.24 0.23 -0.25 0.21 -0.26 0.21 -0.28 0.19 -0.28 0.18 -0.29 0.17 -0.29 0.15 -0.31 0.14 -0.31 0.12 -0.32 0.11 -0.33 0.1 -0.34 0.07 -0.34 0.06 -0.34 0.05 -0.35 0.02 -0.36 0.01 0 0zm-6.91 -6.91l2.42 0 0 0 0.01 0.24 0.02 0.22 0.03 0.23 0.04 0.22 0.05 0.22 0.06 0.21 0.07 0.21 0.08 0.2 0.09 0.2 0.1 0.19 0.1 0.19 0.12 0.18 0.13 0.18 0.13 0.17 0.14 0.16 0.15 0.16 0.15 0.15 0.17 0.14 0.17 0.13 0.17 0.13 0.19 0.11 0.18 0.11 0.2 0.1 0.19 0.09 0.21 0.08 0.21 0.07 0.21 0.06 0.22 0.05 0.22 0.04 0.22 0.03 0.23 0.02 0.23 0 0 2.42 -0.35 -0.01 -0.35 -0.02 -0.35 -0.05 -0.34 -0.06 -0.33 -0.07 -0.33 -0.1 -0.32 -0.11 -0.32 -0.12 -0.3 -0.14 -0.3 -0.15 -0.29 -0.17 -0.28 -0.18 -0.27 -0.19 -0.26 -0.21 -0.25 -0.21 -0.24 -0.23 -0.23 -0.24 -0.22 -0.25 -0.21 -0.26 -0.19 -0.27 -0.18 -0.28 -0.16 -0.29 -0.16 -0.3 -0.13 -0.3 -0.13 -0.32 -0.11 -0.32 -0.09 -0.33 -0.08 -0.33 -0.06 -0.35 -0.04 -0.34 -0.03 -0.35 -0.01 -0.36 0 0zm6.91 -6.9l0 2.42 0 0 -0.23 0 -0.23 0.02 -0.22 0.03 -0.22 0.04 -0.22 0.05 -0.21 0.06 -0.21 0.07 -0.21 0.08 -0.19 0.09 -0.2 0.1 -0.18 0.11 -0.19 0.11 -0.17 0.13 -0.17 0.13 -0.17 0.14 -0.15 0.15 -0.15 0.16 -0.14 0.16 -0.13 0.17 -0.13 0.18 -0.12 0.18 -0.1 0.19 -0.1 0.19 -0.09 0.2 -0.08 0.2 -0.07 0.21 -0.06 0.21 -0.05 0.22 -0.04 0.22 -0.03 0.23 -0.02 0.22 -0.01 0.23 -2.42 0 0.01 -0.35 0.03 -0.35 0.04 -0.35 0.06 -0.34 0.08 -0.33 0.09 -0.33 0.11 -0.32 0.13 -0.32 0.13 -0.3 0.16 -0.3 0.16 -0.29 0.18 -0.28 0.19 -0.27 0.21 -0.26 0.22 -0.25 0.23 -0.24 0.24 -0.23 0.25 -0.21 0.26 -0.21 0.27 -0.19 0.28 -0.18 0.29 -0.17 0.3 -0.15 0.3 -0.14 0.32 -0.12 0.32 -0.11 0.33 -0.1 0.33 -0.07 0.34 -0.06 0.35 -0.05 0.35 -0.03 0.35 0 0 0z"/>
  <path fill="#C7E3D8" fill-rule="nonzero" d="M111.54 169.59l-2.42 0 0 0 0 -0.23 -0.02 -0.23 -0.03 -0.23 -0.04 -0.22 -0.05 -0.21 -0.06 -0.21 -0.07 -0.21 -0.08 -0.21 -0.09 -0.19 -0.1 -0.2 -0.11 -0.18 -0.12 -0.19 -0.12 -0.17 -0.13 -0.17 -0.15 -0.17 -0.14 -0.15 -0.16 -0.15 -0.16 -0.14 -0.17 -0.14 -0.18 -0.12 -0.18 -0.12 -0.19 -0.1 -0.19 -0.1 -0.2 -0.09 -0.2 -0.08 -0.21 -0.07 -0.21 -0.07 -0.22 -0.04 -0.22 -0.04 -0.23 -0.03 -0.22 -0.02 -0.24 -0.01 0 -2.42 0.36 0.01 0.35 0.03 0.34 0.04 0.34 0.06 0.34 0.08 0.33 0.09 0.32 0.11 0.31 0.13 0.31 0.13 0.3 0.15 0.29 0.17 0.28 0.18 0.27 0.2 0.26 0.2 0.25 0.21 0.24 0.24 0.23 0.24 0.21 0.25 0.21 0.26 0.19 0.27 0.18 0.28 0.17 0.29 0.15 0.29 0.14 0.31 0.12 0.32 0.11 0.32 0.1 0.32 0.07 0.34 0.06 0.34 0.05 0.34 0.02 0.36 0.01 0.35 0 0zm-6.91 6.91l0 -2.42 0 0 0.24 -0.01 0.22 -0.02 0.23 -0.03 0.22 -0.03 0.22 -0.05 0.21 -0.06 0.21 -0.08 0.2 -0.07 0.2 -0.1 0.19 -0.09 0.19 -0.11 0.18 -0.12 0.18 -0.12 0.17 -0.14 0.16 -0.14 0.16 -0.15 0.14 -0.15 0.15 -0.17 0.13 -0.17 0.12 -0.17 0.12 -0.19 0.11 -0.18 0.1 -0.2 0.09 -0.19 0.08 -0.2 0.07 -0.22 0.06 -0.21 0.05 -0.21 0.04 -0.22 0.03 -0.23 0.02 -0.23 0 -0.23 2.42 0 -0.01 0.35 -0.02 0.36 -0.05 0.34 -0.06 0.34 -0.07 0.34 -0.1 0.32 -0.11 0.32 -0.12 0.32 -0.14 0.31 -0.15 0.29 -0.17 0.29 -0.18 0.28 -0.19 0.28 -0.21 0.26 -0.21 0.24 -0.23 0.25 -0.24 0.23 -0.25 0.21 -0.26 0.2 -0.27 0.2 -0.28 0.18 -0.29 0.17 -0.3 0.15 -0.31 0.14 -0.31 0.12 -0.32 0.11 -0.33 0.09 -0.34 0.08 -0.34 0.06 -0.34 0.04 -0.35 0.03 -0.36 0.01 0 0zm-6.9 -6.91l2.42 0 0 0 0 0.23 0.02 0.23 0.03 0.23 0.04 0.22 0.05 0.21 0.06 0.21 0.07 0.22 0.08 0.2 0.09 0.19 0.1 0.2 0.11 0.18 0.11 0.19 0.13 0.17 0.13 0.17 0.14 0.17 0.15 0.15 0.16 0.15 0.16 0.14 0.17 0.14 0.18 0.12 0.18 0.12 0.19 0.11 0.19 0.09 0.2 0.1 0.2 0.07 0.21 0.08 0.21 0.06 0.22 0.05 0.22 0.03 0.23 0.03 0.22 0.02 0.23 0.01 0 2.42 -0.35 -0.01 -0.35 -0.03 -0.35 -0.04 -0.34 -0.06 -0.33 -0.08 -0.33 -0.09 -0.32 -0.11 -0.32 -0.12 -0.3 -0.14 -0.3 -0.15 -0.29 -0.17 -0.28 -0.18 -0.27 -0.2 -0.26 -0.2 -0.25 -0.21 -0.24 -0.23 -0.23 -0.25 -0.22 -0.24 -0.2 -0.26 -0.19 -0.28 -0.18 -0.28 -0.17 -0.29 -0.15 -0.29 -0.14 -0.31 -0.12 -0.32 -0.11 -0.32 -0.1 -0.32 -0.07 -0.34 -0.07 -0.34 -0.04 -0.34 -0.03 -0.36 0 -0.35 0 0zm6.9 -6.91l0 2.42 0 0 -0.23 0.01 -0.22 0.02 -0.23 0.03 -0.22 0.04 -0.22 0.04 -0.21 0.07 -0.21 0.07 -0.2 0.08 -0.2 0.09 -0.19 0.1 -0.19 0.1 -0.18 0.12 -0.18 0.12 -0.17 0.14 -0.16 0.14 -0.16 0.15 -0.15 0.15 -0.14 0.17 -0.13 0.17 -0.13 0.17 -0.11 0.19 -0.11 0.18 -0.1 0.2 -0.09 0.19 -0.08 0.21 -0.07 0.21 -0.06 0.21 -0.05 0.21 -0.04 0.22 -0.03 0.23 -0.02 0.23 0 0.23 -2.42 0 0 -0.35 0.03 -0.36 0.04 -0.34 0.07 -0.34 0.07 -0.34 0.1 -0.32 0.11 -0.32 0.12 -0.32 0.14 -0.31 0.15 -0.29 0.17 -0.29 0.18 -0.28 0.19 -0.27 0.2 -0.26 0.22 -0.25 0.23 -0.24 0.24 -0.24 0.25 -0.21 0.26 -0.2 0.27 -0.2 0.28 -0.18 0.29 -0.17 0.3 -0.15 0.3 -0.13 0.32 -0.13 0.32 -0.11 0.33 -0.09 0.33 -0.08 0.34 -0.06 0.35 -0.04 0.35 -0.03 0.35 -0.01 0 0z"/>
  <path fill="#C7E3D8" fill-rule="nonzero" d="M22.26 123.65l-2.42 0 0 0 -0.01 -0.23 -0.02 -0.23 -0.03 -0.23 -0.04 -0.22 -0.05 -0.21 -0.06 -0.21 -0.07 -0.22 -0.08 -0.2 -0.09 -0.19 -0.1 -0.2 -0.1 -0.18 -0.12 -0.19 -0.12 -0.17 -0.14 -0.17 -0.14 -0.17 -0.15 -0.15 -0.16 -0.15 -0.16 -0.14 -0.17 -0.14 -0.17 -0.12 -0.19 -0.12 -0.18 -0.11 -0.2 -0.09 -0.2 -0.1 -0.2 -0.07 -0.21 -0.08 -0.21 -0.06 -0.22 -0.05 -0.22 -0.03 -0.22 -0.03 -0.23 -0.02 -0.23 -0.01 0 -2.42 0.35 0.01 0.35 0.03 0.35 0.04 0.34 0.06 0.34 0.08 0.32 0.09 0.32 0.11 0.32 0.12 0.3 0.14 0.3 0.15 0.29 0.17 0.28 0.18 0.27 0.2 0.26 0.2 0.25 0.21 0.24 0.23 0.23 0.25 0.22 0.24 0.2 0.26 0.2 0.28 0.18 0.28 0.16 0.29 0.16 0.29 0.13 0.31 0.13 0.32 0.11 0.32 0.09 0.32 0.08 0.34 0.06 0.34 0.04 0.34 0.03 0.36 0.01 0.35 0 0zm-6.91 6.91l0 -2.42 0 0 0.23 -0.01 0.23 -0.02 0.22 -0.03 0.22 -0.04 0.22 -0.04 0.21 -0.07 0.21 -0.07 0.2 -0.08 0.2 -0.09 0.2 -0.1 0.18 -0.1 0.19 -0.12 0.17 -0.12 0.17 -0.14 0.16 -0.14 0.16 -0.15 0.15 -0.15 0.14 -0.17 0.13 -0.17 0.13 -0.17 0.12 -0.19 0.1 -0.18 0.1 -0.19 0.09 -0.2 0.08 -0.21 0.07 -0.21 0.06 -0.21 0.05 -0.21 0.04 -0.22 0.03 -0.23 0.02 -0.23 0.01 -0.23 2.42 0 -0.01 0.35 -0.03 0.36 -0.04 0.34 -0.06 0.34 -0.08 0.34 -0.09 0.32 -0.11 0.33 -0.13 0.31 -0.13 0.31 -0.16 0.29 -0.16 0.3 -0.18 0.27 -0.2 0.27 -0.2 0.27 -0.22 0.25 -0.23 0.24 -0.24 0.22 -0.25 0.22 -0.26 0.21 -0.27 0.19 -0.28 0.18 -0.29 0.17 -0.3 0.15 -0.3 0.13 -0.32 0.13 -0.32 0.11 -0.32 0.09 -0.34 0.08 -0.34 0.06 -0.35 0.04 -0.35 0.03 -0.35 0.01 0 0zm-6.91 -6.91l2.42 0 0 0 0.01 0.23 0.02 0.23 0.02 0.23 0.04 0.22 0.05 0.21 0.06 0.21 0.07 0.21 0.08 0.21 0.09 0.2 0.1 0.19 0.11 0.18 0.12 0.19 0.12 0.17 0.14 0.17 0.14 0.17 0.14 0.15 0.16 0.15 0.17 0.14 0.16 0.14 0.18 0.12 0.18 0.12 0.19 0.1 0.19 0.1 0.2 0.09 0.2 0.08 0.21 0.07 0.22 0.07 0.21 0.04 0.22 0.04 0.23 0.03 0.23 0.02 0.23 0.01 0 2.42 -0.36 -0.01 -0.35 -0.03 -0.34 -0.04 -0.34 -0.06 -0.34 -0.08 -0.33 -0.09 -0.32 -0.11 -0.31 -0.13 -0.31 -0.13 -0.29 -0.15 -0.3 -0.17 -0.27 -0.18 -0.27 -0.19 -0.27 -0.21 -0.25 -0.22 -0.24 -0.22 -0.23 -0.24 -0.21 -0.25 -0.21 -0.27 -0.19 -0.27 -0.18 -0.27 -0.17 -0.3 -0.15 -0.29 -0.14 -0.31 -0.12 -0.31 -0.11 -0.33 -0.09 -0.32 -0.08 -0.34 -0.06 -0.34 -0.04 -0.34 -0.03 -0.36 -0.01 -0.35 0 0zm6.91 -6.91l0 2.42 0 0 -0.23 0.01 -0.23 0.02 -0.23 0.03 -0.22 0.03 -0.21 0.05 -0.22 0.06 -0.21 0.08 -0.2 0.07 -0.2 0.1 -0.19 0.09 -0.19 0.11 -0.18 0.12 -0.17 0.12 -0.17 0.14 -0.17 0.14 -0.15 0.15 -0.15 0.15 -0.14 0.17 -0.14 0.17 -0.12 0.17 -0.12 0.19 -0.11 0.18 -0.1 0.2 -0.09 0.19 -0.08 0.2 -0.07 0.22 -0.06 0.21 -0.05 0.21 -0.04 0.22 -0.02 0.23 -0.02 0.23 -0.01 0.23 -2.42 0 0.01 -0.35 0.03 -0.36 0.04 -0.34 0.06 -0.34 0.08 -0.34 0.09 -0.32 0.11 -0.32 0.12 -0.32 0.14 -0.31 0.15 -0.29 0.17 -0.29 0.18 -0.28 0.19 -0.28 0.21 -0.26 0.21 -0.24 0.23 -0.25 0.24 -0.23 0.25 -0.21 0.26 -0.2 0.28 -0.2 0.27 -0.18 0.3 -0.17 0.29 -0.15 0.31 -0.14 0.31 -0.12 0.32 -0.11 0.33 -0.09 0.34 -0.08 0.34 -0.06 0.34 -0.04 0.35 -0.03 0.36 -0.01 0 0z"/>
  <path fill="#C7E3D8" d="M43.13 180.26c2.3,0 4.16,1.86 4.16,4.15 0,2.29 -1.86,4.15 -4.16,4.15 -2.29,0 -4.15,-1.86 -4.15,-4.15 0,-2.29 1.86,-4.15 4.15,-4.15z"/>
  <path fill="#C7E3D8" d="M232.8 173.53c2.29,0 4.15,1.86 4.15,4.16 0,2.29 -1.86,4.15 -4.15,4.15 -2.29,0 -4.15,-1.86 -4.15,-4.15 0,-2.3 1.86,-4.16 4.15,-4.16z"/>
  <path fill="#C7E3D8" d="M304.96 109.64c2.29,0 4.15,1.86 4.15,4.15 0,2.29 -1.86,4.15 -4.15,4.15 -2.29,0 -4.15,-1.86 -4.15,-4.15 0,-2.29 1.86,-4.15 4.15,-4.15z"/>
  <path fill="#C7E3D8" d="M199.85 151.36c2.29,0 4.15,1.86 4.15,4.15 0,2.3 -1.86,4.15 -4.15,4.15 -2.29,0 -4.15,-1.85 -4.15,-4.15 0,-2.29 1.86,-4.15 4.15,-4.15z"/>
  <path fill="#C7E3D8" fill-rule="nonzero" d="M364.53 103.13l-2.42 0 0 0 0 -0.24 -0.02 -0.22 -0.03 -0.23 -0.04 -0.22 -0.05 -0.22 -0.06 -0.21 -0.07 -0.21 -0.08 -0.2 -0.09 -0.2 -0.1 -0.19 -0.11 -0.19 -0.11 -0.18 -0.13 -0.18 -0.13 -0.17 -0.14 -0.16 -0.15 -0.16 -0.16 -0.14 -0.16 -0.15 -0.17 -0.13 -0.18 -0.12 -0.18 -0.12 -0.19 -0.11 -0.19 -0.1 -0.2 -0.09 -0.2 -0.08 -0.21 -0.07 -0.21 -0.06 -0.22 -0.05 -0.22 -0.04 -0.23 -0.03 -0.22 -0.01 -0.23 -0.01 0 -2.42 0.35 0.01 0.35 0.02 0.35 0.05 0.34 0.06 0.33 0.08 0.33 0.09 0.32 0.11 0.32 0.12 0.3 0.14 0.3 0.15 0.29 0.17 0.28 0.18 0.27 0.19 0.26 0.21 0.25 0.21 0.24 0.23 0.23 0.24 0.21 0.25 0.21 0.26 0.19 0.27 0.18 0.28 0.17 0.29 0.15 0.3 0.14 0.31 0.12 0.31 0.11 0.32 0.1 0.33 0.07 0.34 0.06 0.34 0.05 0.34 0.03 0.35 0 0.36 0 0zm-6.9 6.9l0 -2.42 0 0 0.23 0 0.22 -0.02 0.23 -0.03 0.22 -0.04 0.22 -0.05 0.21 -0.06 0.21 -0.07 0.2 -0.08 0.2 -0.09 0.19 -0.1 0.19 -0.11 0.18 -0.11 0.18 -0.13 0.17 -0.13 0.16 -0.14 0.16 -0.15 0.15 -0.16 0.14 -0.16 0.13 -0.17 0.13 -0.18 0.12 -0.18 0.1 -0.18 0.1 -0.2 0.09 -0.2 0.08 -0.2 0.07 -0.21 0.06 -0.21 0.05 -0.22 0.04 -0.22 0.03 -0.23 0.02 -0.22 0 -0.23 2.42 0 0 0.35 -0.03 0.35 -0.05 0.35 -0.06 0.34 -0.07 0.33 -0.1 0.33 -0.11 0.32 -0.12 0.32 -0.14 0.3 -0.15 0.3 -0.17 0.29 -0.18 0.28 -0.19 0.27 -0.21 0.26 -0.21 0.25 -0.23 0.24 -0.24 0.23 -0.25 0.22 -0.26 0.2 -0.27 0.19 -0.28 0.18 -0.29 0.17 -0.3 0.15 -0.3 0.14 -0.32 0.12 -0.32 0.11 -0.33 0.1 -0.33 0.07 -0.34 0.06 -0.35 0.05 -0.35 0.03 -0.35 0 0 0zm-6.91 -6.9l2.42 0 0 0 0 0.23 0.02 0.22 0.03 0.23 0.04 0.22 0.05 0.22 0.06 0.21 0.07 0.21 0.08 0.2 0.09 0.2 0.1 0.2 0.11 0.18 0.12 0.18 0.12 0.18 0.13 0.17 0.14 0.16 0.15 0.16 0.16 0.15 0.16 0.14 0.17 0.13 0.18 0.13 0.18 0.11 0.19 0.11 0.19 0.1 0.2 0.09 0.2 0.08 0.21 0.07 0.21 0.06 0.22 0.05 0.22 0.04 0.23 0.03 0.22 0.02 0.24 0 0 2.42 -0.36 0 -0.35 -0.03 -0.34 -0.05 -0.34 -0.06 -0.34 -0.07 -0.33 -0.1 -0.32 -0.11 -0.31 -0.12 -0.31 -0.14 -0.3 -0.15 -0.29 -0.17 -0.28 -0.18 -0.27 -0.19 -0.26 -0.2 -0.25 -0.22 -0.24 -0.23 -0.23 -0.24 -0.21 -0.25 -0.21 -0.26 -0.19 -0.27 -0.18 -0.28 -0.17 -0.29 -0.15 -0.3 -0.14 -0.3 -0.12 -0.32 -0.11 -0.32 -0.1 -0.33 -0.07 -0.33 -0.06 -0.34 -0.05 -0.35 -0.02 -0.35 -0.01 -0.35 0 0zm6.91 -6.91l0 2.42 0 0 -0.24 0.01 -0.22 0.01 -0.23 0.03 -0.22 0.04 -0.22 0.05 -0.21 0.06 -0.21 0.07 -0.2 0.08 -0.2 0.09 -0.19 0.1 -0.19 0.11 -0.18 0.12 -0.18 0.12 -0.17 0.13 -0.16 0.15 -0.16 0.14 -0.14 0.16 -0.15 0.16 -0.13 0.17 -0.12 0.18 -0.12 0.18 -0.11 0.19 -0.1 0.19 -0.09 0.2 -0.08 0.2 -0.07 0.21 -0.06 0.21 -0.05 0.22 -0.04 0.22 -0.03 0.23 -0.02 0.22 0 0.24 -2.42 0 0.01 -0.36 0.02 -0.35 0.05 -0.34 0.06 -0.34 0.07 -0.34 0.1 -0.33 0.11 -0.32 0.12 -0.31 0.14 -0.31 0.15 -0.3 0.17 -0.29 0.18 -0.28 0.19 -0.27 0.21 -0.26 0.21 -0.25 0.23 -0.24 0.24 -0.23 0.25 -0.21 0.26 -0.21 0.27 -0.19 0.28 -0.18 0.29 -0.17 0.3 -0.15 0.31 -0.14 0.31 -0.12 0.32 -0.11 0.33 -0.09 0.34 -0.08 0.34 -0.06 0.34 -0.05 0.35 -0.02 0.36 -0.01 0 0z"/>
  <path fill="#C7E3D8" fill-rule="nonzero" d="M80.65 85.7l-2.42 0 0 0 0 -0.23 -0.02 -0.22 -0.03 -0.23 -0.04 -0.22 -0.05 -0.22 -0.06 -0.21 -0.07 -0.21 -0.08 -0.2 -0.09 -0.2 -0.1 -0.2 -0.11 -0.18 -0.11 -0.18 -0.13 -0.18 -0.13 -0.17 -0.14 -0.16 -0.15 -0.16 -0.16 -0.15 -0.16 -0.14 -0.17 -0.13 -0.18 -0.13 -0.18 -0.11 -0.19 -0.11 -0.19 -0.1 -0.2 -0.09 -0.2 -0.08 -0.21 -0.07 -0.21 -0.06 -0.22 -0.05 -0.22 -0.04 -0.23 -0.03 -0.22 -0.02 -0.23 0 0 -2.42 0.35 0 0.35 0.03 0.35 0.05 0.34 0.06 0.33 0.07 0.33 0.1 0.32 0.11 0.32 0.12 0.3 0.14 0.3 0.15 0.29 0.17 0.28 0.18 0.27 0.19 0.26 0.2 0.25 0.22 0.24 0.23 0.23 0.24 0.21 0.25 0.21 0.26 0.19 0.27 0.18 0.28 0.17 0.29 0.15 0.3 0.14 0.31 0.12 0.31 0.11 0.32 0.1 0.33 0.07 0.33 0.06 0.34 0.05 0.35 0.03 0.35 0 0.35 0 0zm-6.9 6.91l0 -2.42 0 0 0.23 -0.01 0.22 -0.01 0.23 -0.03 0.22 -0.04 0.22 -0.05 0.21 -0.06 0.21 -0.07 0.2 -0.08 0.2 -0.09 0.19 -0.1 0.19 -0.11 0.18 -0.12 0.18 -0.12 0.17 -0.13 0.16 -0.14 0.16 -0.16 0.15 -0.15 0.14 -0.16 0.13 -0.17 0.13 -0.18 0.12 -0.18 0.1 -0.19 0.1 -0.19 0.09 -0.2 0.08 -0.2 0.07 -0.21 0.06 -0.21 0.05 -0.22 0.04 -0.22 0.03 -0.23 0.02 -0.23 0 -0.23 2.42 0 0 0.36 -0.03 0.35 -0.05 0.34 -0.06 0.34 -0.07 0.34 -0.1 0.33 -0.11 0.32 -0.12 0.31 -0.14 0.31 -0.15 0.3 -0.17 0.29 -0.18 0.28 -0.19 0.27 -0.21 0.26 -0.21 0.25 -0.23 0.24 -0.24 0.23 -0.25 0.21 -0.26 0.21 -0.27 0.19 -0.28 0.18 -0.29 0.17 -0.3 0.15 -0.3 0.14 -0.32 0.12 -0.32 0.11 -0.33 0.09 -0.33 0.08 -0.34 0.06 -0.35 0.05 -0.35 0.02 -0.35 0.01 0 0zm-6.91 -6.91l2.42 0 0 0 0.01 0.23 0.01 0.23 0.03 0.23 0.04 0.22 0.05 0.22 0.06 0.21 0.07 0.21 0.08 0.2 0.09 0.2 0.1 0.19 0.11 0.19 0.12 0.18 0.12 0.18 0.13 0.17 0.15 0.16 0.14 0.16 0.16 0.15 0.16 0.14 0.17 0.13 0.18 0.12 0.18 0.12 0.19 0.11 0.19 0.1 0.2 0.09 0.2 0.08 0.21 0.07 0.21 0.06 0.22 0.05 0.22 0.04 0.23 0.03 0.22 0.01 0.24 0.01 0 2.42 -0.36 -0.01 -0.35 -0.02 -0.34 -0.05 -0.34 -0.06 -0.34 -0.08 -0.33 -0.09 -0.32 -0.11 -0.31 -0.12 -0.31 -0.14 -0.3 -0.15 -0.29 -0.17 -0.28 -0.18 -0.27 -0.19 -0.26 -0.21 -0.25 -0.21 -0.24 -0.23 -0.23 -0.24 -0.21 -0.25 -0.21 -0.26 -0.19 -0.27 -0.18 -0.28 -0.17 -0.29 -0.15 -0.3 -0.14 -0.31 -0.12 -0.31 -0.11 -0.32 -0.09 -0.33 -0.08 -0.34 -0.06 -0.34 -0.05 -0.34 -0.02 -0.35 -0.01 -0.36 0 0zm6.91 -6.9l0 2.42 0 0 -0.24 0 -0.22 0.02 -0.23 0.03 -0.22 0.04 -0.22 0.05 -0.21 0.06 -0.21 0.07 -0.2 0.08 -0.2 0.09 -0.19 0.1 -0.19 0.11 -0.18 0.11 -0.18 0.13 -0.17 0.13 -0.16 0.14 -0.16 0.15 -0.14 0.16 -0.15 0.16 -0.13 0.17 -0.12 0.18 -0.12 0.18 -0.11 0.18 -0.1 0.2 -0.09 0.2 -0.08 0.2 -0.07 0.21 -0.06 0.21 -0.05 0.22 -0.04 0.22 -0.03 0.23 -0.01 0.22 -0.01 0.23 -2.42 0 0.01 -0.35 0.02 -0.35 0.05 -0.35 0.06 -0.34 0.08 -0.33 0.09 -0.33 0.11 -0.32 0.12 -0.31 0.14 -0.31 0.15 -0.3 0.17 -0.29 0.18 -0.28 0.19 -0.27 0.21 -0.26 0.21 -0.25 0.23 -0.24 0.24 -0.23 0.25 -0.22 0.26 -0.2 0.27 -0.19 0.28 -0.18 0.29 -0.17 0.3 -0.15 0.31 -0.14 0.31 -0.12 0.32 -0.11 0.33 -0.1 0.34 -0.07 0.34 -0.06 0.34 -0.05 0.35 -0.03 0.36 0 0 0z"/>
  <path fill="#C7E3D8" d="M42.48 17.02c-5.91,3.23 -13.57,7.3 -21.01,11.37l0.13 17.15 4.76 -14.27 30.1 6.38 -9.73 29.19 -25 -5.29 0.19 25.57c7.85,-2.26 49.14,-28.09 56.39,-32.25 1.4,-1.79 -10.25,-23.95 -21.16,-37.85l-14.67 0z"/>
  <path fill="#C7E3D8" d="M52.25 11.34c-5.43,3.95 -39.35,20.86 -52.25,29.63l0 15.91c1.16,3.03 2.61,6.47 4.64,10.14 4.32,7.85 12.52,17.46 16.27,20.26 3.99,0.63 49.73,-28.01 57.4,-32.41 1.61,-2.07 -14.1,-31.18 -26.06,-43.53zm-35.62 49.13l9.73 -29.2 30.1 6.38 -9.73 29.19 -30.1 -6.37z"/>
  <polygon fill="#C7E3D8" points="21.86,146.41 41.56,117.43 72.58,133.72 52.89,162.71 "/>
  <path fill="#C7E3D8" d="M286.25 130.73c13.61,9.29 27.78,16.48 46.94,19.02 -0.04,-0.43 -0.16,-0.83 -0.36,-1.22 0.4,-0.17 0.79,-0.29 1.18,-0.37 -4.24,-8.16 -6.14,-14.77 -4.67,-19.16 3.76,-2.52 10.1,0.42 15.16,0.63 4.64,1.41 -1.63,10.09 -7.83,18.72 0.28,0.11 0.55,0.26 0.82,0.44 7.59,-5.17 13.94,-7.83 18.47,-6.89 2.95,3.43 0.78,10.08 1.17,15.12 -0.82,4.55 -9.33,0.06 -18.18,-4.82 6.28,7.01 10.71,20.01 18.29,26.74 -5.57,0.72 -12.79,0.81 -12.61,3.76 -0.23,4.16 -10.56,2.77 -19.4,2.2 5.89,-7.12 2.17,-17.75 7.15,-29.31 -0.64,0.09 -1.29,0.16 -1.95,0.2 0.25,-0.32 0.49,-0.63 0.72,-0.94 -33.67,18.36 -50.14,12.27 -58.9,-8.82l3.23 0c5.93,0 10.77,-4.84 10.77,-10.76l0 -4.54z"/>
  <path fill="#FEFEFE" fill-rule="nonzero" d="M275.48 53.37l-177.96 0 0 -1.51 177.96 0 0 0 0 1.51zm11.53 10.01l-1.52 0 0 0 -0.01 -0.51 -0.04 -0.51 -0.06 -0.5 -0.09 -0.49 -0.11 -0.48 -0.14 -0.47 -0.16 -0.47 -0.18 -0.45 -0.2 -0.44 -0.22 -0.44 -0.24 -0.42 -0.26 -0.4 -0.28 -0.39 -0.3 -0.38 -0.31 -0.37 -0.34 -0.35 -0.35 -0.33 -0.36 -0.31 -0.38 -0.3 -0.39 -0.28 -0.41 -0.26 -0.42 -0.25 -0.43 -0.22 -0.44 -0.2 -0.46 -0.18 -0.46 -0.15 -0.47 -0.14 -0.49 -0.11 -0.49 -0.09 -0.5 -0.07 -0.5 -0.03 -0.52 -0.02 0 -1.51 0.59 0.01 0.59 0.05 0.57 0.07 0.57 0.1 0.56 0.13 0.54 0.16 0.54 0.18 0.52 0.21 0.51 0.23 0.5 0.26 0.48 0.27 0.47 0.3 0.45 0.33 0.43 0.34 0.42 0.36 0.4 0.38 0.38 0.4 0.37 0.42 0.34 0.44 0.32 0.45 0.3 0.47 0.28 0.48 0.26 0.5 0.23 0.51 0.21 0.52 0.18 0.53 0.15 0.55 0.13 0.56 0.1 0.56 0.08 0.58 0.04 0.58 0.02 0.59 0 0zm-1.52 71.89l0 -71.89 1.52 0 0 71.89 0 0 -1.52 0zm-10.01 11.52l0 -1.51 0 0 0.52 -0.02 0.5 -0.03 0.5 -0.07 0.49 -0.09 0.49 -0.11 0.47 -0.14 0.46 -0.15 0.46 -0.18 0.44 -0.2 0.43 -0.22 0.42 -0.25 0.41 -0.26 0.39 -0.28 0.38 -0.3 0.36 -0.31 0.35 -0.33 0.34 -0.35 0.31 -0.37 0.3 -0.38 0.28 -0.39 0.26 -0.4 0.24 -0.42 0.22 -0.44 0.2 -0.44 0.18 -0.45 0.16 -0.47 0.14 -0.47 0.11 -0.48 0.09 -0.49 0.06 -0.5 0.04 -0.51 0.01 -0.51 1.52 0 -0.02 0.59 -0.04 0.58 -0.08 0.58 -0.1 0.56 -0.13 0.56 -0.15 0.55 -0.18 0.53 -0.21 0.52 -0.23 0.51 -0.26 0.5 -0.28 0.48 -0.3 0.47 -0.32 0.45 -0.34 0.44 -0.37 0.42 -0.38 0.4 -0.4 0.38 -0.42 0.36 -0.43 0.34 -0.45 0.33 -0.47 0.3 -0.48 0.27 -0.5 0.26 -0.51 0.23 -0.52 0.21 -0.54 0.18 -0.54 0.16 -0.56 0.13 -0.57 0.1 -0.57 0.07 -0.59 0.05 -0.59 0.01 0 0zm-177.96 -1.51l177.96 0 0 1.51 -177.96 0 0 0 0 -1.51zm-11.53 -10.01l1.52 0 0 0 0.01 0.51 0.04 0.51 0.06 0.5 0.09 0.49 0.11 0.48 0.14 0.47 0.16 0.47 0.17 0.45 0.21 0.44 0.22 0.44 0.24 0.42 0.26 0.4 0.28 0.39 0.3 0.38 0.31 0.37 0.34 0.35 0.35 0.33 0.36 0.31 0.38 0.3 0.39 0.28 0.41 0.26 0.42 0.25 0.43 0.22 0.44 0.2 0.45 0.18 0.47 0.15 0.47 0.14 0.49 0.11 0.49 0.09 0.5 0.07 0.5 0.03 0.52 0.02 0 1.51 -0.59 -0.01 -0.59 -0.05 -0.57 -0.07 -0.57 -0.1 -0.56 -0.13 -0.54 -0.16 -0.54 -0.18 -0.52 -0.21 -0.51 -0.23 -0.5 -0.26 -0.48 -0.27 -0.47 -0.3 -0.45 -0.33 -0.43 -0.34 -0.42 -0.36 -0.4 -0.38 -0.39 -0.4 -0.36 -0.42 -0.34 -0.44 -0.32 -0.45 -0.3 -0.47 -0.28 -0.48 -0.26 -0.5 -0.23 -0.51 -0.21 -0.52 -0.18 -0.53 -0.15 -0.55 -0.13 -0.56 -0.1 -0.56 -0.08 -0.58 -0.04 -0.58 -0.02 -0.59 0 0zm1.52 -71.89l0 71.89 -1.52 0 0 -71.89 0 0 1.52 0zm10.01 -11.52l0 1.51 0 0 -0.52 0.02 -0.5 0.03 -0.5 0.07 -0.49 0.09 -0.49 0.11 -0.47 0.14 -0.47 0.15 -0.45 0.18 -0.44 0.2 -0.43 0.22 -0.42 0.25 -0.41 0.26 -0.39 0.28 -0.38 0.3 -0.36 0.31 -0.35 0.33 -0.34 0.35 -0.31 0.37 -0.3 0.38 -0.28 0.39 -0.26 0.4 -0.24 0.42 -0.22 0.44 -0.21 0.44 -0.17 0.45 -0.16 0.47 -0.14 0.47 -0.11 0.48 -0.09 0.49 -0.06 0.5 -0.04 0.51 -0.01 0.51 -1.52 0 0.02 -0.59 0.04 -0.58 0.08 -0.58 0.1 -0.56 0.13 -0.56 0.15 -0.55 0.18 -0.53 0.21 -0.52 0.23 -0.51 0.26 -0.5 0.28 -0.48 0.3 -0.47 0.32 -0.45 0.34 -0.44 0.36 -0.42 0.39 -0.4 0.4 -0.38 0.42 -0.36 0.43 -0.34 0.45 -0.33 0.47 -0.3 0.48 -0.27 0.5 -0.26 0.51 -0.23 0.52 -0.21 0.54 -0.18 0.54 -0.16 0.56 -0.13 0.57 -0.1 0.57 -0.07 0.59 -0.05 0.59 -0.01 0 0z"/>
  <path fill="#C7E3D8" d="M324.4 49.97l-0.9 3.24 3.89 1.08c1.68,0.47 2.66,2.22 2.2,3.89l0 0c-0.47,1.67 -2.22,2.66 -3.89,2.2l-2.78 -0.78c4.79,2.57 7.32,8.23 5.79,13.74 -1.17,4.22 -4.45,7.29 -8.36,8.36l-1.55 5.57 4.82 1.34c1.68,0.47 2.67,2.22 2.2,3.89l0 0c-0.46,1.68 -2.21,2.67 -3.89,2.2l-21.25 -5.91c-1.68,-0.47 -2.67,-2.22 -2.2,-3.89l0 0c0.46,-1.67 2.21,-2.66 3.89,-2.2l4.82 1.34 1.55 -5.56c-2.8,-2.94 -4.02,-7.26 -2.85,-11.49 1.53,-5.5 6.63,-9.04 12.05,-8.77l-2.78 -0.77c-1.67,-0.47 -2.66,-2.22 -2.19,-3.89l0 0c0.46,-1.68 2.21,-2.67 3.88,-2.2l3.9 1.08 0.9 -3.23c-12.81,-3.68 -22.53,-8.16 -21.97,-10.18 0.03,-0.1 0.09,-0.2 0.18,-0.29 -0.03,-0.13 -0.02,-0.26 0.01,-0.38 6.24,-2.73 12.66,-7.47 15.39,-14.98l3.74 -13.44 0 -0.01c0.39,-1.4 6.96,-0.8 14.67,1.35 7.72,2.14 13.66,5.02 13.27,6.42l0 0 -3.74 13.45c-1.69,7.72 1.93,15.01 5.45,20.77 -0.01,0.18 -0.06,0.35 -0.16,0.49 0,0.07 -0.01,0.13 -0.03,0.19 -0.56,2.01 -11.2,0.83 -24.06,-2.63zm-1.29 -8.48l0 0 0 0 0 0zm4.2 1.17l0 0 -0.01 0 0.01 0z"/>
  <path fill="#C7E3D8" d="M189.67 178.49c-13.94,-8.64 -30.47,-18.3 -34.66,-20.95 -1.59,-0.28 -9.2,10.09 -16.04,21.9l50.7 -0.95z"/>
  <path fill="#C7E3D8" d="M189.67 178.49c-13.95,-8.64 -30.47,-18.3 -34.66,-20.95 -1.59,-0.28 -9.2,10.09 -16.04,21.9l50.7 -0.95z"/>
  <path fill="#C7E3D8" d="M154.08 199.15l-4.07 -14.24 30.35 -5.06 5.52 19.3 11.29 0 12.73 -6.87c-5.67,-5.87 -47.82,-30.27 -54.89,-34.74 -2.24,-0.39 -16.37,20.27 -23.55,36.42l2.75 5.19 19.87 0z"/>
  <path fill="#C7E3D8" d="M208.81 199.15c0.87,-2.48 1.48,-4.6 1.7,-6.04 -1.31,-3.83 -48.03,-30.85 -55.5,-35.57 -2.49,-0.43 -19.67,25.12 -25.66,41.61l24.73 0 -4.07 -14.24 30.35 -5.06 5.52 19.3 22.93 0z"/>
  <path fill="#C7E3D8" d="M193.65 17.02c4.58,2.31 7.71,4.85 9.01,7.71 -1.03,4.41 -7.68,6.58 -11.52,9.87 -4.15,2.03 -5.55,-7.49 -6.84,-17.51 -1.95,9.2 -9.83,20.46 -10.78,30.54 -3.88,-4.07 -8.21,-9.84 -10.48,-7.95 -3.5,2.26 -8.47,-6.9 -13.23,-14.37 6.81,0.41 12.07,-4.54 19.3,-8.29l24.54 0z"/>
  <path fill="#C7E3D8" d="M177.52 -0.5c1.47,3.78 3.24,7.6 5.36,11.49 0.32,-0.28 0.58,-0.62 0.78,-1.01 0.36,0.22 0.69,0.47 0.99,0.73 2.35,-4.74 4.74,-8.56 7.2,-11.21l9.49 0c1.59,2.72 2.76,6.21 4.46,8.74 1.59,4.58 -9.11,4.64 -19.74,4.73 0.08,0.29 0.12,0.6 0.13,0.93 8.65,3.07 14.55,6.62 16.47,10.83 -1.03,4.41 -7.68,6.58 -11.52,9.87 -4.15,2.03 -5.55,-7.49 -6.84,-17.51 -1.95,9.2 -9.83,20.46 -10.78,30.54 -3.88,-4.07 -8.21,-9.84 -10.48,-7.95 -3.5,2.26 -8.47,-6.9 -13.23,-14.37 9.22,0.56 15.61,-8.72 27.88,-11.53 -0.46,-0.46 -0.89,-0.95 -1.32,-1.46 0.41,0.02 0.8,0.03 1.19,0.04 -9,-4.24 -15.98,-8.51 -21.18,-12.86l21.14 0z"/>
  <path fill="#C7E3D8" fill-rule="nonzero" d="M296.06 17.02l-2.42 0 0 0 -0.01 -0.23 -0.02 -0.23 -0.03 -0.23 -0.04 -0.22 -0.04 -0.21 -0.07 -0.21 -0.07 -0.21 -0.08 -0.2 -0.09 -0.2 -0.1 -0.2 -0.1 -0.18 -0.12 -0.19 -0.12 -0.17 -0.14 -0.17 -0.14 -0.17 -0.15 -0.15 -0.15 -0.15 -0.17 -0.14 -0.17 -0.14 -0.17 -0.12 -0.19 -0.12 -0.18 -0.1 -0.2 -0.1 -0.19 -0.09 -0.21 -0.08 -0.21 -0.07 -0.21 -0.06 -0.21 -0.05 -0.22 -0.04 -0.23 -0.03 -0.23 -0.02 -0.23 -0.01 0 -2.42 0.35 0.01 0.36 0.03 0.34 0.04 0.34 0.06 0.34 0.08 0.32 0.09 0.32 0.11 0.32 0.13 0.31 0.13 0.29 0.16 0.29 0.16 0.28 0.18 0.27 0.2 0.26 0.2 0.25 0.22 0.24 0.23 0.24 0.24 0.21 0.25 0.2 0.26 0.2 0.27 0.18 0.28 0.17 0.29 0.15 0.3 0.13 0.3 0.13 0.32 0.11 0.32 0.09 0.32 0.08 0.34 0.06 0.34 0.04 0.34 0.03 0.36 0.01 0.35 0 0zm-6.91 6.91l0 -2.42 0 0 0.23 -0.01 0.23 -0.02 0.23 -0.03 0.22 -0.03 0.21 -0.05 0.21 -0.06 0.21 -0.07 0.21 -0.08 0.19 -0.09 0.2 -0.1 0.18 -0.11 0.19 -0.12 0.17 -0.12 0.17 -0.14 0.17 -0.14 0.15 -0.15 0.15 -0.15 0.14 -0.17 0.14 -0.17 0.12 -0.17 0.12 -0.18 0.1 -0.19 0.1 -0.19 0.09 -0.2 0.08 -0.2 0.07 -0.22 0.07 -0.21 0.04 -0.21 0.04 -0.22 0.03 -0.23 0.02 -0.23 0.01 -0.23 2.42 0 -0.01 0.36 -0.03 0.35 -0.04 0.34 -0.06 0.34 -0.08 0.34 -0.09 0.32 -0.11 0.32 -0.13 0.32 -0.13 0.31 -0.15 0.29 -0.17 0.29 -0.18 0.28 -0.2 0.28 -0.2 0.26 -0.21 0.25 -0.24 0.24 -0.24 0.23 -0.25 0.21 -0.26 0.21 -0.27 0.19 -0.28 0.18 -0.29 0.17 -0.29 0.15 -0.31 0.14 -0.32 0.12 -0.32 0.11 -0.32 0.09 -0.34 0.08 -0.34 0.06 -0.34 0.04 -0.36 0.03 -0.35 0.01 0 0zm-6.91 -6.91l2.42 0 0 0 0.01 0.23 0.02 0.23 0.03 0.23 0.03 0.22 0.05 0.21 0.06 0.21 0.08 0.22 0.07 0.2 0.1 0.2 0.09 0.19 0.11 0.19 0.12 0.18 0.12 0.17 0.14 0.17 0.14 0.17 0.15 0.15 0.15 0.15 0.17 0.14 0.17 0.14 0.17 0.12 0.19 0.12 0.18 0.11 0.2 0.1 0.19 0.09 0.2 0.08 0.22 0.07 0.21 0.06 0.21 0.05 0.22 0.03 0.23 0.03 0.23 0.02 0.23 0.01 0 2.42 -0.35 -0.01 -0.36 -0.03 -0.34 -0.04 -0.34 -0.06 -0.34 -0.08 -0.32 -0.09 -0.32 -0.11 -0.32 -0.12 -0.31 -0.14 -0.29 -0.15 -0.29 -0.17 -0.28 -0.18 -0.28 -0.19 -0.26 -0.21 -0.24 -0.21 -0.25 -0.23 -0.23 -0.24 -0.21 -0.25 -0.2 -0.26 -0.2 -0.28 -0.18 -0.28 -0.17 -0.29 -0.15 -0.29 -0.14 -0.31 -0.12 -0.32 -0.11 -0.32 -0.09 -0.32 -0.08 -0.34 -0.06 -0.34 -0.04 -0.34 -0.03 -0.35 -0.01 -0.36 0 0zm6.91 -6.91l0 2.42 0 0 -0.23 0.01 -0.23 0.02 -0.23 0.03 -0.22 0.04 -0.21 0.05 -0.21 0.06 -0.22 0.07 -0.2 0.08 -0.19 0.09 -0.2 0.1 -0.18 0.1 -0.19 0.12 -0.17 0.12 -0.17 0.14 -0.17 0.14 -0.15 0.15 -0.15 0.15 -0.14 0.17 -0.14 0.17 -0.12 0.17 -0.12 0.19 -0.11 0.18 -0.09 0.2 -0.1 0.2 -0.07 0.2 -0.08 0.21 -0.06 0.21 -0.05 0.21 -0.03 0.22 -0.03 0.23 -0.02 0.23 -0.01 0.23 -2.42 0 0.01 -0.35 0.03 -0.36 0.04 -0.34 0.06 -0.34 0.08 -0.34 0.09 -0.32 0.11 -0.32 0.12 -0.32 0.14 -0.3 0.15 -0.3 0.17 -0.29 0.18 -0.28 0.2 -0.27 0.2 -0.26 0.21 -0.25 0.23 -0.24 0.25 -0.23 0.24 -0.22 0.26 -0.2 0.28 -0.2 0.28 -0.18 0.29 -0.16 0.29 -0.16 0.31 -0.13 0.32 -0.13 0.32 -0.11 0.32 -0.09 0.34 -0.08 0.34 -0.06 0.34 -0.04 0.36 -0.03 0.35 -0.01 0 0z"/>
</svg>
