<svg xmlns="http://www.w3.org/2000/svg" width="136" height="59" fill-rule="evenodd" clip-rule="evenodd" image-rendering="optimizeQuality" shape-rendering="geometricPrecision" text-rendering="geometricPrecision" viewBox="0 0 376.49 163"><defs><style>.str0{stroke:#2b2a29;stroke-width:2.48;stroke-miterlimit:22.9256}.fil1{fill:none;fill-rule:nonzero}.fil3{fill:#d8ece4}.fil0{fill:#6fa691}.fil2{fill:#99cfba}.fil4{fill:#2b2a29;fill-rule:nonzero}</style></defs><g id="Слой_x0020_1"><path d="M262.31 120.43c10.18 0 18.43 5.98 18.43 13.35 0 7.38-8.25 13.36-18.43 13.36-10.17 0-18.42-5.98-18.42-13.36 0-7.37 8.25-13.35 18.42-13.35z" class="fil0"/><path id="1" d="M262.31 120.43c10.18 0 18.43 5.98 18.43 13.35 0 7.38-8.25 13.36-18.43 13.36-10.17 0-18.42-5.98-18.42-13.36 0-7.37 8.25-13.35 18.42-13.35z" class="fil1 str0"/><path d="M368.19 154.65c-13.7-32.78-27.39-65.55-41.08-98.33-14.53 18.4-21.78-31.09-66.15 4.37 1.04 29.06.83 42.24 1.87 71.3 53.93-22.7 50.77 18.48 105.36 22.66z" class="fil0"/><path id="1" d="M368.19 154.65c-13.7-32.78-27.39-65.55-41.08-98.33-14.53 18.4-21.78-31.09-66.15 4.37 1.04 29.06.83 42.24 1.87 71.3 53.93-22.7 50.77 18.48 105.36 22.66z" class="fil1 str0"/><path d="M373.57 139.86c-13.7-32.77-27.39-65.55-41.08-98.32-14.53 18.4-30.86-24.65-75.24 10.82 1.04 29.05 4.54 50.57 5.58 79.63 54.2-41.15 59.24 17.14 110.74 7.87z" class="fil2"/><path id="1" d="M373.57 139.86c-13.7-32.77-27.39-65.55-41.08-98.32-14.53 18.4-30.86-24.65-75.24 10.82 1.04 29.05 4.54 50.57 5.58 79.63 54.2-41.15 59.24 17.14 110.74 7.87z" class="fil1 str0"/><path d="M376.41 124.18c-13.69-32.78-27.39-65.55-41.08-98.33-9.96 24.56-36.71-19.86-74.02 18.34 1.04 29.06.86 50.59 1.9 79.65 54.21-41.15 80.31 23.5 113.2.34z" class="fil3"/><path id="1" d="M376.41 124.18c-13.69-32.78-27.39-65.55-41.08-98.33-9.96 24.56-36.71-19.86-74.02 18.34 1.04 29.06.86 50.59 1.9 79.65 54.21-41.15 80.31 23.5 113.2.34z" class="fil1 str0"/><path d="M156.81 162.91c11.53-33.59 23.05-67.19 34.58-100.79 15.7 17.41 19.7-32.45 66.3.05.86 29.05 4.28 40.76 5.14 69.82-55.31-19.13-51.82 23.2-106.02 30.92z" class="fil0"/><path id="1" d="M156.81 162.91c11.53-33.59 23.05-67.19 34.58-100.79 15.7 17.41 19.7-32.45 66.3.05.86 29.05 4.28 40.76 5.14 69.82-55.31-19.13-51.82 23.2-106.02 30.92z" class="fil1 str0"/><g><path d="M150.48 148.51c11.53-33.6 23.05-67.2 34.58-100.79 15.7 17.41 29.18-26.61 75.78 5.88.86 29.06 1.13 49.33 1.99 78.39-56.78-37.52-60.36 22.41-112.35 16.52z" class="fil2"/><path id="1" d="M150.48 148.51c11.53-33.6 23.05-67.2 34.58-100.79 15.7 17.41 29.18-26.61 75.78 5.88.86 29.06 1.13 49.33 1.99 78.39-56.78-37.52-60.36 22.41-112.35 16.52z" class="fil1 str0"/></g><g><path d="M146.62 133.05c11.52-33.6 23.05-67.2 34.58-100.8C198.83 50.8 211.04.07 260.38 44.19c.86 29.06 1.34 52.75 2.19 81.81-56.77-37.52-81.62 28.01-115.95 7.05z" class="fil3"/><path id="1" d="M146.62 133.05c11.52-33.6 23.05-67.2 34.58-100.8C198.83 50.8 211.04.07 260.38 44.19c.86 29.06 1.34 52.75 2.19 81.81-56.77-37.52-81.62 28.01-115.95 7.05z" class="fil1 str0"/></g><g><path d="M155.84 69.59c-1.31-7.28.41-9.84 5.25-11.16-3.31-1.38-6.59-2.31-9.5 2.87-.39-4.7.85-9.37 3.3-14.03-3.96.93-6.9 3.22-7.55 8.52-6.57-13.45-15.12-18.84-23.96-22.98 2.52 4.54 4.85 9.02 5.14 12.82C118.25 26.4 102.14 15.7 78.01 11.8 61.7 5.98 34.9.44 25.5.47c6.83 3.16 7.55 5.64 8.56 7.78-4.18-3.78-6.61-4.63-11.41-6.49-13.87 3.01-18.91 6.36-21.3 9.8-.9 5.26 8.37 16.48 20.92 22.54 9.98 4.8 30.56-5.95 39.53-5.86-5.48 5.44-29.49 11.42-29.19 12.78 6.41-.01 10.53 2.65 15.97 5.26.68.32 15.27-3.02 16-2.7.99.44-11.85 4.53-10.73 4.93 5.71 2.04 13.23 3.45 24.99 2.41-2.34.83-5.11 3.05-7.44 3.88 11.24 10.8 25.41 18.29 49.55 14.33-8.72 4.16-14.71 5.08-19.76 4.88 6.73 6.27 16.28 7.1 31.4-2.81-5.14 4.35-7.56 9.51-5.98 12.25 2.43-6.41 8.59-3.3 14.78-10.01-.03 1.39.04 4.17-1.82 8.51 5.35-2.26 4.37-3.57 6.56-6.13 2.02-2.38 5.06-2.76 6.88-2.39 1.06-1.45 1.76-2.4 2.83-3.84z" class="fil3"/><path id="1" d="M161.27 57.99l-.05.89-.44.12-.41.13-.4.14-.37.15-.35.16-.34.16-.31.17-.3.18-.27.2-.26.2-.25.22-.22.22-.2.24-.19.26-.18.27-.15.28-.14.31-.13.32-.11.34-.09.36-.08.38-.06.41-.05.43-.02.45-.01.47v.5l.03.53.04.55.06.58.07.6.1.63.11.67-.93.16-.11-.68-.1-.65-.08-.63-.05-.6-.05-.57-.03-.56v-.53l.01-.51.03-.49.05-.47.06-.45.09-.43.11-.41.13-.39.15-.38.16-.36.19-.34.21-.32.22-.3.25-.3.27-.27.28-.25.31-.24.32-.23.33-.21.36-.2.38-.18.38-.17.41-.16.42-.14.44-.15.46-.13-.06.89.36-.87zm0 0l1.26.53-1.31.36.05-.89zm-9.22 3.27l-.87-.19.28-.48.28-.45.3-.42.29-.38.29-.36.31-.32.3-.29.31-.26.32-.24.31-.21.32-.18.32-.16.33-.13.33-.1.32-.09.33-.06.33-.04.33-.02h.33l.33.01.32.04.32.05.33.06.32.07.32.08.32.1.32.1.32.11.32.11.32.13.31.12.31.13-.36.87-.3-.13-.31-.12-.3-.12-.3-.1-.31-.11-.29-.1-.3-.08-.29-.08-.29-.06-.29-.06-.29-.04-.28-.03-.27-.01h-.28l-.28.01-.27.03-.27.06-.26.07-.27.08-.27.11-.26.13-.27.15-.26.18-.27.2-.27.23-.26.25-.27.29-.27.31-.27.36-.26.38-.27.41-.27.46-.87-.19.93-.08zm-.06.27l-.75 1.34-.12-1.53.87.19zm2.79-14.71l.53.67-.23.44-.21.43-.21.43-.2.43-.2.43-.19.43-.17.43-.17.43-.17.43-.15.43-.16.43-.13.43-.14.43-.12.43-.12.43-.11.43-.1.43-.09.43-.08.43-.08.43-.07.43-.05.43-.06.43-.04.43-.03.43-.02.43-.02.43v.86l.01.43.02.43.03.43-.93.08-.04-.45-.02-.45-.01-.45v-.9l.02-.45.02-.45.04-.45.04-.45.05-.45.07-.45.06-.44.08-.45.09-.45.1-.45.1-.44.12-.45.11-.45.13-.44.14-.44.15-.45.15-.45.16-.44.17-.44.18-.45.18-.44.19-.44.21-.45.2-.44.22-.44.22-.44.23-.44.52.67-.22-.91zm0 0l1-.24-.47.91-.53-.67zm-7.02 8.77l-.89.14.07-.5.09-.48.09-.47.11-.46.13-.43.13-.42.15-.41.17-.39.17-.38.19-.36.2-.34.21-.34.22-.32.24-.3.24-.29.26-.27.26-.26.28-.25.28-.24.3-.22.3-.21.31-.2.32-.18.33-.18.33-.16.35-.15.34-.14.36-.14.36-.11.37-.12.38-.1.37-.09.22.91-.36.09-.35.09-.34.11-.34.11-.33.12-.32.13-.31.14-.31.15-.29.16-.29.16-.28.18-.28.19-.26.2-.25.21-.24.21-.24.24-.22.24-.22.26-.21.27-.2.28-.19.3-.18.31-.17.33-.15.34-.15.35-.14.37-.12.39-.12.4-.1.42-.09.44-.08.46-.07.47-.88.15.84-.41zm.04.26l-.19 1.57-.69-1.42.88-.15zm-24.83-22.82l.6-.65.84.39.83.41.83.41.82.42.83.44.82.45.82.47.82.48.8.5.81.52.8.54.8.56.79.58.79.61.78.63.77.66.77.69.76.72.75.74.74.78.74.81.73.84.72.88.71.91.7.96.69.99.69 1.03.67 1.07.66 1.11.64 1.16.64 1.2.63 1.25-.84.41-.62-1.23-.63-1.18-.64-1.14-.64-1.09-.66-1.06-.67-1.01-.68-.97-.69-.93-.7-.89-.7-.86-.71-.83-.72-.79-.73-.76-.74-.73-.74-.7-.75-.67-.75-.64-.77-.62-.76-.6-.78-.57-.78-.55-.79-.53-.79-.5-.79-.5-.8-.47-.81-.45-.81-.45-.81-.43-.82-.42-.82-.41-.82-.4-.82-.39.61-.65-.82.45zm0 0l-.71-1.26 1.31.61-.6.65zm5.97 12.38l-.89.26-.03-.34-.04-.35-.05-.36-.07-.35-.08-.37-.08-.36-.1-.37-.1-.38-.11-.37-.13-.38-.13-.39-.14-.39-.14-.39-.16-.39-.16-.4-.17-.4-.18-.4-.18-.4-.19-.41-.2-.41-.19-.41-.21-.41-.21-.41-.21-.42-.22-.42-.22-.42-.22-.42-.23-.42-.23-.42-.24-.43-.23-.42-.23-.43.82-.45.23.42.24.43.23.43.23.42.23.43.23.42.22.43.22.42.22.42.21.42.21.42.2.42.2.41.19.42.18.41.19.41.17.41.17.41.16.4.15.41.15.4.14.4.12.4.12.39.11.39.1.4.09.38.08.38.07.39.06.38.05.37.03.38-.88.25.83-.44zm.05.19l.18 2.23-1.06-1.98.88-.25zM78.16 11.35l-.08-.02 2.25.39 2.2.43 2.16.47 2.11.51 2.07.55 2.02.59 1.98.64 1.93.68 1.89.72 1.84.76 1.81.81 1.76.85 1.71.89 1.68.94 1.64.99 1.59 1.03 1.56 1.07 1.51 1.12 1.47 1.17 1.44 1.21 1.39 1.26 1.36 1.31 1.31 1.35 1.28 1.4 1.24 1.45 1.2 1.49 1.17 1.55 1.13 1.59 1.09 1.64 1.06 1.69 1.02 1.74.99 1.79-.83.44-.97-1.77-1.01-1.71-1.05-1.67-1.08-1.62-1.11-1.57-1.15-1.52-1.18-1.47-1.22-1.43-1.26-1.38-1.3-1.33-1.33-1.28-1.37-1.24-1.41-1.2-1.45-1.14-1.49-1.11-1.53-1.05-1.57-1.02-1.61-.97-1.65-.92-1.69-.88-1.74-.84-1.78-.8-1.82-.75-1.87-.72-1.9-.67-1.96-.62-1.99-.59-2.05-.54-2.09-.51-2.14-.46-2.18-.43-2.23-.38-.08-.02.31-.89zm-.23.91l-.05-.01-.03-.01.08.02zM25.31.9l.19-.9.95.01 1.04.05 1.13.07 1.21.11 1.3.14 1.37.16 1.44.19 1.51.22 1.56.24 1.63.26 1.67.29 1.72.31 1.76.33 1.8.35 1.82.36 1.85.39 1.87.41 1.89.42 1.9.43 1.9.45 1.9.47 1.89.47 1.89.49 1.87.5 1.85.5 1.82.52 1.8.52 1.75.53 1.72.53 1.67.55 1.62.54 1.56.54-.31.89-1.55-.54-1.61-.54-1.67-.54-1.7-.53-1.75-.53-1.79-.52-1.81-.51-1.84-.51-1.87-.49-1.88-.49-1.89-.47-1.89-.46-1.9-.45-1.89-.44-1.88-.41-1.86-.41-1.85-.39-1.82-.36-1.78-.35-1.76-.33-1.71-.31-1.67-.29-1.61-.26-1.56-.24-1.5-.21-1.43-.19-1.36-.16-1.28-.13-1.2-.11L27.43 1 26.42.95 25.5.94l.2-.9-.39.86zm0 0L23.38.01 25.5 0l-.19.9zm9.07 7l-.74.55-.1-.2-.09-.21-.1-.2-.09-.21-.1-.21-.1-.2-.1-.21-.11-.21-.12-.21-.13-.21-.13-.22-.15-.21-.16-.22-.16-.22-.19-.23-.2-.23-.21-.23-.24-.23-.25-.24-.27-.24-.3-.25-.32-.24-.34-.26-.37-.26-.39-.26-.42-.26-.46-.28-.48-.27-.51-.28-.55-.28-.58-.28-.61-.29.39-.86.63.3.59.3.56.29.54.28.49.29.47.28.45.27.41.28.39.27.36.27.34.26.32.27.29.26.28.25.26.26.23.26.22.24.2.26.19.24.17.24.16.24.16.24.13.23.13.23.12.23.11.22.11.22.1.21.1.21.09.21.1.2.09.2-.74.55.63-.7zm.11.15l1 2.12-1.74-1.57.74-.55zM22.55 1.3l.27.02.44.17.43.17.42.16.41.16.39.15.39.16.38.15.37.15.36.15.36.16.35.15.34.16.35.16.33.16.34.17.33.17.33.18.33.19.33.19.33.2.33.21.33.22.33.22.34.24.35.26.34.26.36.27.35.29.37.3.37.32.39.33.39.35-.63.7-.38-.34-.38-.33-.36-.31-.36-.29-.35-.28-.34-.27-.33-.25-.33-.25-.33-.22-.32-.22-.32-.21-.32-.21-.31-.18-.32-.19-.32-.18-.31-.17-.32-.17-.32-.16-.33-.16-.33-.15-.34-.15-.34-.15-.34-.16-.36-.14-.36-.15-.38-.15-.38-.15-.4-.16-.4-.16-.42-.16-.43-.16-.44-.18.27.03-.2-.92zm0 0l.13-.03.14.05-.27-.02zM.88 11.48l.08-.19.24-.33.26-.34.28-.33.3-.34.32-.33.33-.33.36-.33.39-.32.41-.33.43-.33.46-.31.49-.33.52-.32.55-.32.58-.31.61-.31.64-.31.68-.32.71-.31.76-.3.78-.31.83-.3.87-.3.9-.3.95-.3 1-.29 1.04-.3 1.08-.29 1.13-.29 1.18-.29 1.23-.29 1.28-.28.2.92-1.27.28-1.22.28-1.17.29-1.12.29-1.08.29-1.02.29-.98.29-.94.29-.89.3-.86.29-.81.3-.77.3-.73.3-.7.3-.66.3-.62.31-.6.3-.55.31-.53.3-.49.3-.47.31-.44.31-.41.3-.39.31-.36.31-.33.31-.32.3-.29.31-.28.31-.26.31-.24.31-.22.31.08-.19-.93-.16zm0 0l.02-.1.06-.09-.08.19zm21.19 23.04l-1.18-.59-1.15-.62-1.14-.64-1.12-.66-1.08-.69-1.06-.71-1.04-.73-1-.75-.98-.75-.94-.77-.92-.79-.88-.78-.84-.8-.81-.79-.78-.8-.73-.81-.7-.79-.65-.8-.62-.79-.57-.78-.52-.78-.49-.76-.43-.75-.39-.73-.33-.72-.29-.7-.23-.68-.18-.66-.13-.64-.06-.62-.01-.59.06-.57.93.16-.05.45.01.5.05.53.11.56.16.6.22.63.27.65.31.68.37.7.41.72.47.73.51.75.55.76.6.76.64.78.68.78.72.78.75.79.8.78.83.78.86.77.9.77.93.75.96.75.98.73 1.02.71 1.04.7 1.07.68 1.09.65 1.12.63 1.13.61 1.16.57-.41.85zm39.4-6.62l.33.8-.85.03-.91.08-.98.13-1.04.18-1.09.23-1.14.26-1.19.3-1.23.33-1.27.36-1.3.38-1.33.39-1.35.4-1.38.41-1.39.4-1.4.41-1.41.4-1.41.38-1.42.37-1.41.34-1.4.31-1.39.28-1.38.24-1.36.2-1.33.15-1.31.1-1.27.04-1.24-.02-1.2-.09-1.17-.17-1.11-.24-1.06-.34-1.01-.42.41-.85.92.39.98.31 1.04.23 1.1.15 1.15.09 1.18.02 1.23-.03 1.27-.1 1.3-.15 1.33-.19 1.35-.24 1.37-.28 1.39-.3 1.39-.34 1.41-.37 1.4-.38 1.4-.39 1.4-.4 1.39-.41 1.37-.41 1.35-.4 1.34-.39 1.3-.38 1.28-.36 1.24-.34 1.2-.3 1.17-.27 1.12-.23 1.07-.19 1.02-.14.96-.08.9-.02.33.8-.66-.67zm.33-.13l1.12.01-.79.79-.33-.8zM32.61 41.49l-.46-.37.12-.51.28-.27.35-.23.45-.23.55-.25.65-.27.74-.28.82-.31.91-.32.97-.34 1.04-.37 1.08-.37 1.14-.39 1.18-.41 1.21-.42 1.24-.43 1.25-.45 1.26-.45 1.27-.47 1.25-.47 1.24-.48 1.21-.49 1.19-.5 1.14-.5 1.1-.5 1.05-.51.98-.5.9-.51.83-.51.74-.5.64-.49.54-.49.66.67-.6.54-.69.53-.78.53-.86.53-.94.52-1.01.52-1.06.52-1.11.51-1.17.5-1.19.5-1.23.5-1.25.48-1.26.48-1.27.47-1.26.46-1.26.44-1.24.43-1.21.43-1.18.4-1.14.4-1.09.37-1.03.36-.97.34-.9.32-.81.31-.73.28-.62.25-.52.24-.39.2-.25.16-.07.06.03-.23-.46-.37v.94zm0 0h-.38l-.08-.37.46.37zm15.77 5.21l-.51-.24-.5-.25-.5-.25-.49-.24-.48-.24-.47-.24-.48-.23-.47-.23-.46-.24-.47-.22-.46-.21-.46-.22-.46-.2-.46-.21-.46-.19-.47-.19-.46-.18-.47-.16-.47-.16-.48-.16-.48-.14-.48-.14-.49-.12-.5-.11-.51-.1-.52-.09-.52-.07-.54-.06-.54-.05-.56-.04-.57-.02-.58-.01v-.94l.61.01.59.02.58.04.57.05.56.07.55.08.54.09.53.1.52.12.51.13.51.14.5.14.5.16.49.17.48.18.48.18.48.19.47.2.47.21.47.21.47.21.47.23.47.22.47.23.47.24.47.23.48.24.48.24.49.24.49.25.5.24.5.24-.4.85zm.4-.85zm15.61-1.84l.05.02h-.14l-.22.02-.31.03-.38.05-.43.07-.48.08-.53.09-.58.11-.6.11-.64.12-.67.13-.68.13-.7.14-.71.14-.72.14-.72.14-.71.14-.7.14-.68.13-.67.13-.64.13-.61.11-.58.1-.53.1-.49.07-.44.07-.39.06-.33.03-.27.03h-.24l-.27-.07.4-.85-.06-.02h.12l.23-.02.31-.03.36-.05.43-.07.48-.08.53-.09.57-.11.61-.11.63-.12.67-.13.68-.13.7-.14.71-.14.72-.14.71-.14.71-.14.7-.14.7-.13.66-.13.64-.12.61-.12.58-.1.54-.1.49-.07.45-.07.38-.06.34-.04.28-.02h.24l.27.06-.38.86zm.38-.86zm-11.08 5.8l-.33-.3.04-.5.18-.21.21-.14.23-.14.29-.14.33-.15.37-.17.41-.17.44-.19.48-.19.51-.2.52-.2.53-.21.55-.21.55-.21.55-.21.55-.21.53-.21.53-.2.5-.2.47-.19.44-.18.41-.17.36-.16.32-.15.26-.13.19-.11.11-.07h.01l-.05.32.21.26.38-.86.31.36-.09.47-.19.18-.2.14-.25.14-.29.15-.33.15-.38.17-.42.18-.45.18-.48.2-.51.19-.52.21-.53.21-.56.2-.54.22-.56.21-.54.21-.53.2-.52.21-.5.19-.47.19-.44.18-.4.17-.36.16-.3.14-.26.13-.18.11-.1.06.02-.03.02-.36-.21-.2-.32.88zm24.99 1.53l.2.91-1.1.09-1.07.08-1.04.06-1.03.05-1 .03-.97.03-.96.01h-.94l-.91-.01-.89-.03-.88-.03-.85-.05-.83-.05-.81-.07-.8-.08-.78-.08-.76-.1-.74-.1-.73-.11-.71-.12-.69-.13-.67-.14-.67-.14-.65-.15-.63-.15-.62-.17-.61-.17-.59-.17-.58-.18-.57-.18-.56-.19-.55-.19.32-.88.54.18.54.19.56.18.57.17.58.17.59.17.61.15.62.16.63.14.65.14.67.14.68.12.69.12.72.11.73.1.74.09.77.09.78.08.8.06.82.05.84.05.86.04.88.02.9.01h.92l.95-.01.96-.02.99-.04 1.01-.05 1.04-.06 1.06-.08 1.08-.08.2.91-.31-.89zm.11-.02l3.66-.33-3.46 1.24-.2-.91zm-7.71 4.68l.16-.78.21-.08.22-.09.21-.09.22-.1.22-.1.22-.11.23-.12.22-.12.24-.13.23-.13.23-.13.24-.14.23-.14.24-.14.24-.14.24-.14.24-.15.24-.14.24-.14.24-.14.24-.14.23-.13.24-.14.24-.13.24-.13.24-.12.24-.12.23-.11.24-.11.23-.1.23-.09.24-.09.31.89-.21.07-.21.09-.21.09-.22.1-.22.1-.22.12-.23.11-.23.13-.23.12-.23.13-.23.13-.24.14-.24.14-.24.14-.23.14-.24.14-.24.15-.24.14-.24.14-.24.14-.24.14-.24.14-.24.13-.24.13-.24.13-.24.12-.23.12-.24.11-.24.11-.23.1-.23.09-.23.09.17-.78-.65.68zm0 0l-.55-.53.71-.25-.16.78zm49.66 13.57l.28.88-2.24.35-2.19.27-2.14.2-2.08.15-2.02.09-1.98.02-1.92-.03-1.88-.09-1.83-.15-1.78-.2-1.73-.26-1.7-.3-1.65-.35-1.6-.4-1.57-.45-1.53-.5-1.49-.54-1.45-.58-1.42-.62-1.38-.66-1.35-.69-1.31-.74-1.29-.77-1.26-.8-1.23-.83-1.2-.86-1.18-.89-1.15-.92-1.13-.94-1.11-.96-1.09-.99-1.06-1.01.65-.68 1.05 1 1.08.97 1.09.95 1.11.93 1.14.91 1.16.87 1.18.85 1.21.82 1.23.78 1.27.76 1.29.72 1.32.68 1.35.65 1.4.61 1.42.56 1.46.54 1.49.48 1.54.44 1.58.39 1.61.35 1.67.3 1.7.25 1.75.2 1.8.14 1.85.09 1.89.03 1.95-.02 2-.09 2.05-.14 2.11-.21 2.17-.27 2.22-.33.28.88-.41-.84zm.13-.04l3.25-.53-2.97 1.41-.28-.88zm-20 5.68l.34-.81.47.01.47.01h.97l.49-.02.51-.02.51-.03.52-.04.52-.05.53-.06.54-.08.55-.07.56-.1.57-.1.58-.12.6-.13.59-.13.62-.16.62-.17.63-.18.65-.19.67-.21.67-.22.69-.25.7-.25.71-.27.73-.29.74-.31.76-.32.77-.34.79-.37.8-.37.41.84-.81.39-.8.36-.79.35-.77.32-.75.31-.74.3-.73.28-.7.26-.7.24-.7.23-.67.22-.66.19-.65.19-.64.17-.62.16-.62.14-.61.13-.59.12-.58.11-.58.09-.57.09-.56.07-.55.06-.54.05-.53.04-.52.04-.52.02-.51.02h-1l-.48-.01-.49-.01.34-.81-.64.68zm0 0l-.92-.86 1.26.05-.34.81zm31.42-3.51l.56.75-1.41.91-1.38.84-1.34.77-1.32.72-1.29.67-1.26.6-1.23.55-1.2.49-1.17.43-1.15.38-1.12.33-1.09.27-1.07.23-1.04.17-1.02.12-.99.07-.98.02-.94-.02-.93-.07-.9-.12-.88-.16-.85-.21-.84-.24-.81-.29-.79-.34-.77-.37-.75-.4-.73-.45-.72-.49-.68-.51-.68-.55-.65-.59.64-.68.63.56.64.52.65.49.68.46.69.42.71.39.72.35.75.31.77.27.78.24.81.19.83.16.85.11.88.06.89.03.93-.03.95-.06.98-.12 1-.17 1.03-.21 1.06-.26 1.08-.32 1.12-.37 1.14-.42 1.17-.48 1.21-.54 1.23-.59 1.27-.65 1.29-.71 1.33-.77 1.36-.83 1.39-.89.57.75-.61-.72zm.04-.03l6.4-4.19-5.83 4.94-.57-.75zm-5.28 12.8l-.85.07-.16-.3-.12-.32-.1-.32-.08-.35-.05-.35-.02-.35v-.37l.02-.37.05-.38.06-.39.09-.4.12-.4.13-.41.15-.41.17-.42.2-.42.21-.42.24-.43.25-.43.27-.43.29-.43.31-.44.33-.44.34-.43.37-.44.38-.43.39-.44.42-.43.44-.43.44-.42.47-.42.48-.42.61.72-.47.4-.45.41-.43.41-.42.41-.4.42-.39.41-.36.42-.35.42-.33.42-.31.41-.29.42-.28.41-.26.41-.24.4-.21.4-.2.4-.19.39-.16.38-.14.38-.12.37-.1.36-.08.35-.06.34-.04.33-.02.32v.3l.02.3.05.28.05.26.08.26.1.24.11.22-.84.07.88.33zm0 0l-.35.93-.5-.86.85-.07zm13.87-10.18l.81.33-.59.61-.6.56-.59.51-.59.47-.59.41-.59.38-.58.34-.58.31-.56.27-.57.25-.55.23-.54.2-.54.19-.51.18-.52.17-.49.16-.48.16-.47.16-.45.17-.43.17-.42.19-.4.2-.38.22-.37.24-.34.25-.33.3-.31.32-.3.35-.28.4-.26.45-.25.49-.22.54-.88-.33.25-.6.28-.55.3-.51.31-.45.35-.42.36-.37.39-.34.39-.3.42-.28.43-.24.44-.22.45-.2.46-.19.47-.17.48-.17.5-.16.49-.16.51-.17.51-.18.51-.18.53-.2.53-.21.53-.24.54-.26.54-.29.55-.32.55-.35.56-.4.56-.43.55-.48.57-.54.56-.58.82.33-.94-.02zm.12-.31l.84-.91-.02 1.24-.82-.33zm-1.28 9.26l-.62-.62.17-.39.15-.39.15-.38.13-.36.13-.37.11-.34.11-.35.1-.33.08-.32.09-.31.07-.31.07-.3.06-.28.05-.28.05-.27.04-.27.04-.25.03-.25.03-.23.02-.23.03-.22.01-.21.01-.21.02-.19v-.18l.01-.19.01-.17v-.33l.01-.14v-.28l.94.02-.01.13V74.03l-.01.17v.18l-.01.19-.01.2-.01.2-.01.21-.02.23-.02.23-.03.24-.03.25-.03.26-.04.27-.05.27-.05.29-.05.29-.07.31-.07.31-.07.31-.09.33-.09.34-.11.35-.11.35-.12.36-.12.38-.14.38-.15.39-.16.41-.18.4-.61-.62.37.87zm0 0l-1.07.45.45-1.07.62.62zm6.73-6.26l-.19.23-.17.22-.16.21-.14.21-.14.2-.12.2-.12.19-.11.2-.11.19-.1.18-.12.19-.1.19-.12.18-.11.19-.13.19-.14.19-.15.19-.15.18-.18.19-.19.19-.2.19-.22.19-.24.18-.27.19-.28.19-.31.2-.34.19-.36.2-.39.19-.43.21-.46.21-.48.21-.37-.87.48-.2.44-.2.4-.2.37-.19.34-.18.32-.18.28-.18.26-.17.24-.17.21-.16.19-.17.18-.16.16-.15.14-.17.14-.16.12-.16.12-.15.11-.17.11-.17.1-.17.11-.18.1-.18.1-.19.12-.2.12-.2.12-.2.13-.22.15-.22.16-.22.17-.24.19-.24.2-.24.72.6zm0 0zm6.89-2.42l-.47.19-.15-.03-.17-.03-.18-.02-.17-.01-.19-.01-.19-.01h-.4l-.19.01-.21.02-.21.02-.22.03-.21.04-.22.04-.21.05-.22.06-.22.06-.22.08-.22.07-.21.09-.22.1-.21.1-.22.12-.21.12-.2.13-.21.15-.2.15-.2.16-.19.17-.19.18-.18.19-.18.2-.72-.6.21-.24.21-.22.22-.2.22-.2.22-.18.23-.18.24-.16.24-.15.24-.14.24-.13.24-.12.25-.11.24-.1.25-.09.25-.08.25-.08.24-.06.25-.06.24-.05.24-.03.24-.04.24-.02.23-.03.23-.01h.45l.21.01.22.01.21.02.19.02.2.03.19.04-.47.18.75.55zm0 0l-.17.25-.3-.06.47-.19zm2.92-4.19l-.09.35-.09.14-.1.13-.1.13-.09.13-.09.12-.09.12-.09.13-.09.11-.08.12-.09.12-.09.11-.08.11-.08.12-.09.11-.08.11-.08.12-.08.11-.09.11-.08.11-.08.12-.09.11-.08.12-.09.11-.08.12-.09.12-.09.12-.09.12-.09.13-.1.12-.09.13-.1.13-.1.13-.75-.55.1-.13.09-.14.1-.13.09-.12.09-.12.09-.13.09-.12.09-.12.09-.11.09-.12.08-.11.08-.12.08-.12.09-.11.08-.11.08-.11.09-.11.08-.12.08-.11.09-.11.08-.12.09-.11.08-.12.09-.11.08-.12.09-.12.09-.13.09-.12.1-.13.09-.12.1-.14.1-.13-.09.36.93-.16zm0 0l.04.19-.13.16.09-.35z" class="fil4"/></g><g><path d="M179.18 87.07C109.71 32.26 51.69 10.91 5.19 10.41c44.27 8.54 87.49 15.3 160.38 72.63 6.68 3.44 11.47 5.03 13.61 4.03z" class="fil2"/><path id="1" d="M5.1 10.87l.1-.93 4.4.11 4.48.23 4.54.36 4.6.5 4.68.62 4.74.75 4.81.89 4.88 1.04 4.94 1.16 5.01 1.32 5.08 1.46 5.14 1.61 5.22 1.76 5.27 1.9 5.35 2.07 5.41 2.22 5.49 2.38 5.54 2.54 5.62 2.71 5.68 2.87 5.74 3.04 5.82 3.21 5.88 3.39 5.95 3.56 6.02 3.73 6.08 3.92 6.15 4.1 6.21 4.28 6.29 4.47 6.34 4.67 6.42 4.85 6.49 5.04-.58.74-6.48-5.04-6.41-4.84-6.33-4.65-6.28-4.47-6.2-4.27-6.14-4.1-6.07-3.9-6-3.73-5.93-3.55-5.87-3.38-5.8-3.2-5.73-3.03-5.67-2.87-5.6-2.7-5.53-2.53-5.46-2.37-5.4-2.22-5.32-2.06-5.26-1.9-5.19-1.75-5.13-1.6-5.06-1.46-4.98-1.3-4.93-1.17-4.85-1.03-4.79-.88-4.72-.76-4.65-.61-4.58-.5-4.51-.35-4.46-.23-4.37-.11.09-.93-.18.92zm0 0L0 9.88l5.2.06-.1.93zm160.25 72.59l-.07-.05-6.74-5.22-6.58-4.94-6.41-4.66-6.25-4.39-6.1-4.14-5.96-3.88-5.81-3.65-5.68-3.42-5.56-3.2-5.42-2.98-5.31-2.79-5.2-2.6-5.09-2.41-4.99-2.25-4.89-2.08-4.81-1.93-4.73-1.79-4.64-1.66-4.57-1.53-4.51-1.41-4.44-1.32-4.39-1.22-4.34-1.13-4.29-1.06-4.26-.99-4.22-.93-4.2-.89-4.18-.85-4.16-.82-4.15-.81-4.15-.79-4.15-.8.18-.92 4.15.8 4.15.79 4.15.81 4.17.82 4.18.85 4.2.89 4.24.94 4.27.99 4.3 1.06 4.35 1.14 4.41 1.22 4.46 1.32L60.83 23l4.59 1.54 4.66 1.66 4.74 1.79 4.82 1.94 4.92 2.09 5 2.25 5.11 2.43 5.22 2.6 5.32 2.8 5.45 3 5.56 3.2 5.7 3.43 5.83 3.66 5.97 3.89 6.11 4.15 6.27 4.4 6.42 4.67 6.58 4.94 6.76 5.24-.08-.05-.43.83zm0 0l-.03-.02-.04-.03.07.05zm14.12 3.24l-.1.79-.24.1-.26.09-.27.06-.29.05-.29.03-.31.01h-.32l-.34-.02-.34-.03-.36-.05-.37-.06-.38-.07-.4-.09-.41-.1-.42-.11-.43-.13-.44-.14-.47-.15-.46-.17-.49-.18-.49-.19-.51-.2-.52-.22-.53-.23-.55-.23-.55-.26-.57-.26-.58-.27-.59-.29-.6-.29-.61-.31-.63-.32.43-.83.62.31.61.31.59.29.59.28.57.27.56.26.55.25.53.23.52.22.51.22.5.2.48.18.47.18.46.16.44.15.43.13.42.13.4.1.39.1.37.08.36.07.34.06.32.04.31.03.29.01h.28l.26-.01.24-.02.22-.04.21-.05.19-.06.17-.07-.09.8.58-.74zm0 0l.59.47-.69.32.1-.79z" class="fil4"/></g></g></svg>