<svg xmlns="http://www.w3.org/2000/svg" width="117" height="68" fill-rule="evenodd" clip-rule="evenodd" image-rendering="optimizeQuality" shape-rendering="geometricPrecision" text-rendering="geometricPrecision" viewBox="0 0 15.83 9.17"><defs><style>.str0{stroke:#2b2a29;stroke-width:.12;stroke-miterlimit:22.9256}.fil2{fill:none;fill-rule:nonzero}.fil0{fill:#2b2a29}.fil1{fill:#6fa691}</style></defs><g id="Слой_x0020_1"><path d="M4.45 1.77c.06-.01.12 0 .17.02.04.02.07.05.1.07L5.28.57c0-.01.01-.01.02-.02h.03l.03.03v.01l.62.63c.01-.01.02-.01.03 0 .01.01.02.01.02.02.01.01.01.02 0 .03l-.58 1.35-.01.01c0 .06-.03.11-.08.15-.05.04-.12.06-.2.07-.08.01-.15-.01-.21-.03-.06-.03-.1-.08-.1-.14-.01-.05.02-.11.07-.16.05-.04.12-.08.2-.09h.01c.06 0 .12.01.16.03.04.02.08.04.1.07l.32-.72-.61-.62-.33.77-.01.01c.01.05-.02.1-.08.14-.05.04-.12.07-.2.07-.08.01-.15 0-.21-.03s-.1-.08-.1-.13c-.01-.06.02-.12.07-.16.05-.05.12-.09.21-.09zm1.32-.1l.08-.18-.62-.6-.07.17.61.61z" class="fil0"/><path d="M7.92 7.84c.92-2.16 2.25-4.08 3.17-6.23 2.33-.83 2.64 1.88 4.73 1.3-.88 2.07-1.98 4.13-2.86 6.2-3.62.48-2.23-2.54-5.04-1.27z" class="fil1"/><path id="1" d="M7.92 7.84c.92-2.16 2.25-4.08 3.17-6.23 2.33-.83 2.64 1.88 4.73 1.3-.88 2.07-1.98 4.13-2.86 6.2-3.62.48-2.23-2.54-5.04-1.27z" class="fil2 str0"/><path d="M10.48.79C10.45.53 10 .36 9.74.5L6.83 7.2c-.13.3.71.68.85.27.03-.13 2.8-6.68 2.8-6.68z" class="fil1"/><path id="1" d="M10.48.79C10.45.53 10 .36 9.74.5L6.83 7.2c-.13.3.71.68.85.27.03-.13 2.8-6.68 2.8-6.68z" class="fil2 str0"/><path fill="#99cfba" d="M8.06 7.44C8.98 5.28 9.9 3.13 10.82.98c2.34-.82 2.64 1.88 4.74 1.31-.89 2.07-1.77 4.14-2.66 6.21-3.09.3-2.03-2.33-4.84-1.06z"/><path id="1" d="M8.06 7.44C8.98 5.28 9.9 3.13 10.82.98c2.34-.82 2.64 1.88 4.74 1.31-.89 2.07-1.77 4.14-2.66 6.21-3.09.3-2.03-2.33-4.84-1.06z" class="fil2 str0"/><path d="M10.89 3.16c.07-.04.14-.05.2-.05s.11.01.16.03V1.76c0-.01 0-.03.01-.03.01-.01.02-.02.03-.02h.01c.01 0 .02.01.03.02.01 0 .01.01.01.03.02.17.11.31.19.46.16.26.31.52.14.93v.01c-.01.02-.03.03-.06.03-.01 0-.02 0-.03-.01l-.02-.02c-.01-.01-.02-.03-.01-.06.1-.2.09-.37.03-.51-.06-.13-.15-.23-.24-.31V3.23c.03.06.02.13-.02.2-.04.06-.1.13-.19.17-.08.05-.18.07-.25.07-.08 0-.15-.04-.18-.1-.03-.06-.03-.14.01-.21.03-.08.09-.15.18-.2zM7.65 1.27c.07-.02.14-.01.21.01.05.01.1.04.13.07L8.4.03c0-.01.01-.02.02-.02.01-.01.02-.01.03-.01h.01l.03.03v.03c-.03.17.01.33.05.5.07.29.14.58-.14.93h-.01c-.02.02-.04.03-.06.02-.01 0-.02-.01-.03-.02 0 0-.01-.01-.01-.02-.01-.02-.01-.04 0-.06l.01-.01c.15-.16.19-.32.17-.48-.02-.13-.08-.26-.13-.36l-.28.89v.01c.01.07-.02.13-.08.19-.05.05-.14.09-.23.11h-.01c-.09.02-.18.02-.26-.01-.07-.03-.13-.08-.14-.14-.01-.07.02-.15.08-.22.05-.06.13-.1.23-.12zM11.75 4.99c.06-.02.12-.03.18-.02.04 0 .08.02.11.03l.14-1.4c0-.01.01-.02.02-.02.01-.01.02-.01.03-.01.01 0 .02.01.03.01 0 .01 0 .01.01.02l.78.4s.02-.01.03 0c.01 0 .02 0 .03.01 0 .01.01.02.01.03l-.15 1.46v.02c.02.05 0 .1-.03.16-.04.05-.1.1-.17.13-.08.03-.15.04-.22.03-.06-.01-.11-.04-.13-.09l-.01-.01c-.02-.05-.01-.11.03-.17.03-.06.09-.12.16-.15h.01c.05-.02.11-.03.16-.02.05 0 .09.01.12.03l.08-.78-.77-.41-.08.84v.01c.02.05 0 .11-.03.16-.04.05-.1.1-.17.13-.08.03-.15.04-.21.03-.07-.01-.12-.04-.14-.09-.03-.05-.02-.12.02-.18.03-.06.09-.11.16-.15zm1.23-.49l.02-.2-.76-.38-.02.18.76.4zM.61 8.09c.07-.02.14-.02.21-.01.05.02.1.04.14.07l.3-1.35c0-.01.01-.02.02-.03h.04c.01 0 .02.01.03.02 0 .01.01.02 0 .03-.01.17.04.33.09.49.1.29.19.58-.07.95-.02.02-.04.02-.06.02-.01 0-.02-.01-.03-.01-.01-.01-.01-.02-.02-.03-.01-.01-.01-.04.01-.06.14-.18.16-.34.13-.5-.03-.13-.09-.25-.16-.35l-.2.91-.01.02c.02.06-.01.13-.06.19-.05.05-.13.1-.22.13H.74c-.09.03-.18.03-.26.01-.07-.03-.13-.07-.15-.14-.02-.06 0-.14.06-.21.05-.07.12-.12.22-.15zM.24 2.87c.06-.01.12-.01.17 0 .05.01.08.03.11.06l.36-1.36c0-.02.01-.02.02-.03.01 0 .02-.01.03 0h.01c.01 0 .02.01.02.02 0 0 0 .01.01.01l.7.53c.01-.01.02-.01.03-.01h.01c.01.01.02.01.02.02.01.01.01.02.01.03l-.38 1.43v.01c.01.05-.01.1-.06.15-.04.05-.11.08-.19.1-.08.02-.15.02-.21 0s-.11-.06-.12-.11v-.01c-.02-.05 0-.11.05-.16.04-.06.1-.1.18-.12.06-.02.12-.02.18 0 .04.01.08.03.1.05l.2-.76L.8 2.2l-.21.81v.01c.01.05-.02.11-.06.16-.04.04-.11.08-.19.1-.08.02-.15.01-.21 0-.07-.02-.11-.06-.13-.12-.01-.05.01-.12.05-.17.05-.05.11-.1.19-.12zm1.29-.29l.05-.2-.69-.49-.05.17.69.52zM1.73 3.84c.06-.01.12-.01.17 0 .04.01.08.03.11.06l.36-1.36c0-.01.01-.02.02-.03.01 0 .02-.01.03 0 .01 0 .02.01.03.02v.01l.71.53c.01-.01.02-.01.03-.01.02.01.02.01.03.02 0 .01.01.02 0 .03l-.37 1.43v.01c.01.05-.02.11-.06.15-.05.05-.11.08-.19.1-.08.02-.15.02-.21 0-.07-.02-.11-.06-.13-.11-.01-.06.01-.12.05-.17.05-.06.11-.1.19-.12.06-.02.12-.02.17 0 .05.01.08.03.11.05l.2-.76-.69-.52-.21.81-.01.01c.01.06-.01.11-.05.16-.05.04-.11.08-.19.1-.08.02-.16.02-.22 0s-.11-.06-.12-.12c-.01-.05.01-.11.05-.17.04-.05.11-.1.19-.12zm1.29-.29l.05-.2-.7-.49-.04.17.69.52zM4.29 7.11c.07 0 .14.02.2.06.05.03.09.06.11.1l.71-1.18c.01-.01.02-.02.03-.02h.03l.01.01c.01 0 .02.01.02.03v.03c-.07.16-.08.32-.08.49 0 .3 0 .61-.36.88-.03.01-.05.01-.07 0l-.02-.02c-.01-.01-.01-.02-.01-.03 0-.02 0-.04.02-.06.19-.12.27-.27.29-.43.01-.13-.01-.27-.04-.38l-.48.79-.01.02c-.01.06-.05.12-.12.16-.07.04-.16.06-.26.06v-.01c-.1 0-.18-.03-.25-.07-.06-.05-.1-.11-.1-.17 0-.07.05-.14.12-.19.07-.05.16-.07.26-.07z" class="fil0"/></g></svg>