<svg xmlns="http://www.w3.org/2000/svg" width="124" height="63" fill-rule="evenodd" clip-rule="evenodd" image-rendering="optimizeQuality" shape-rendering="geometricPrecision" text-rendering="geometricPrecision" viewBox="0 0 17.98 9.11"><defs><style>.str0{stroke:#2b2a29;stroke-width:.13;stroke-miterlimit:22.9256}.fil1{fill:none;fill-rule:nonzero}.fil2{fill:#6fa691}.fil0{fill:#99cfba}</style></defs><g id="Слой_x0020_1"><path d="M16.35 5.37c-1.4-.46-2.81-.91-4.21-1.36-.01-.29.34-.5.94-.66 1.46.4 2.79.81 4.26 1.21.77.14 1.13 1.75-.63 1.67 1.99-.48.42-2.46-.36-.86z" class="fil0"/><path id="1" d="M16.35 5.37c-1.4-.46-2.81-.91-4.21-1.36-.01-.29.34-.5.94-.66 1.46.4 2.79.81 4.26 1.21.77.14 1.13 1.75-.63 1.67 1.99-.48.42-2.46-.36-.86z" class="fil1 str0"/><path d="M16.59 6.31l-.18-.34-4.09-.77L6 7.43l3.26 1.68z" class="fil2"/><path id="1" d="M16.59 6.31l-.18-.34-4.09-.77L6 7.43l3.26 1.68z" class="fil1 str0"/><path d="M16.41 5.97l-.28-.5-3.97-.76-6.31 2.23 3.26 1.68z" class="fil0"/><path id="1" d="M16.41 5.97l-.28-.5-3.97-.76-6.31 2.23 3.26 1.68z" class="fil1 str0"/><path fill="#d8ece4" d="M16.13 5.47l-4.14-1.43-6.32 2.23 3.26 1.69z"/><path id="1" d="M16.13 5.47l-4.14-1.43-6.32 2.23 3.26 1.69z" class="fil1 str0"/><path d="M16.8 5.12c-.34.15-.51.52-.38.83.14.31.53.43.87.28.34-.15.51-.53.37-.83-.13-.31-.52-.43-.86-.28z" class="fil2"/><path id="1" d="M16.8 5.12c-.34.15-.51.52-.38.83.14.31.53.43.87.28.34-.15.51-.53.37-.83-.13-.31-.52-.43-.86-.28z" class="fil1 str0"/><path d="M2.54 2.91c.89.84.97 2.54.91 3.27 2.14.66 4.13.42 5.93-1.04-.54-.82-1.3-3.06-.92-3.78-.51-1.79-1.94.4-2.72 1.03-1.16-.29-3.34-1.12-3.2.52z" class="fil2"/><path id="1" d="M2.54 2.91c.89.84.97 2.54.91 3.27 2.14.66 4.13.42 5.93-1.04-.54-.82-1.3-3.06-.92-3.78-.51-1.79-1.94.4-2.72 1.03-1.16-.29-3.34-1.12-3.2.52z" class="fil1 str0"/><g><path d="M.02 3c2.37-.86 4.25-1.84 5.41-3C7.5.57 8.97.54 10.5.57 9 1.81 7.37 2.89 6.26 4.61 4.18 4.07 1.79 3.05.02 3z" class="fil2"/><path id="1" d="M.02 3c2.37-.86 4.25-1.84 5.41-3C7.5.57 8.97.54 10.5.57 9 1.81 7.37 2.89 6.26 4.61 4.18 4.07 1.79 3.05.02 3z" class="fil1 str0"/></g><g><path d="M.65 3.76C.55 4.48.59 5.38.2 5.98c.92.42.9-.06 1.36-.09-.41-.52-.55-1.45-.91-2.13z" class="fil2"/><path id="1" d="M.65 3.76C.55 4.48.59 5.38.2 5.98c.92.42.9-.06 1.36-.09-.41-.52-.55-1.45-.91-2.13z" class="fil1 str0"/></g><g><path d="M.66 3.28c.12 0 .22.11.22.25s-.1.25-.22.25-.22-.11-.22-.25.1-.25.22-.25z" class="fil2"/><path id="1" d="M.66 3.28c.12 0 .22.11.22.25s-.1.25-.22.25-.22-.11-.22-.25.1-.25.22-.25z" class="fil1 str0"/></g><g><path d="M10.41 1.39c-.1.72-.06 1.62-.45 2.22.92.42.9-.06 1.36-.09-.41-.52-.55-1.45-.91-2.13z" class="fil2"/><path id="1" d="M10.41 1.39c-.1.72-.06 1.62-.45 2.22.92.42.9-.06 1.36-.09-.41-.52-.55-1.45-.91-2.13z" class="fil1 str0"/></g><g><path d="M10.42.91c.12 0 .22.11.22.25s-.1.25-.22.25-.22-.11-.22-.25.1-.25.22-.25z" class="fil2"/><path id="1" d="M10.42.91c.12 0 .22.11.22.25s-.1.25-.22.25-.22-.11-.22-.25.1-.25.22-.25z" class="fil1 str0"/></g></g></svg>