<svg xmlns="http://www.w3.org/2000/svg" width="104" height="65" fill-rule="evenodd" clip-rule="evenodd" image-rendering="optimizeQuality" shape-rendering="geometricPrecision" text-rendering="geometricPrecision" viewBox="0 0 121.95 76.54"><defs><style>.fil3{fill:#fefefe}.fil5{fill:#2b2a29}.fil2{fill:#d8ece4}.fil0{fill:#99cfba}.fil1,.fil7{fill:#2b2a29;fill-rule:nonzero}</style></defs><g id="Слой_x0020_1"><path d="M50.63 6.28c.76 1.22 2.92.9 3.18-.35L95.31.22l25.18 66.58-44.01 6.69c-.39 2.56-4.26 3.01-5.76.81L15.4 76.34.25 6.12l50.38.16z" class="fil0"/><path id="1" d="M53.78 5.73l.05.39.17-.15-.03.13-.05.13-.06.12-.07.11-.08.11-.08.1-.1.09-.1.08-.11.08-.12.07-.12.05-.12.06-.13.04-.13.04-.13.03-.14.02-.14.01-.14.01-.13-.01-.14-.01-.14-.02-.14-.03-.13-.04-.13-.04-.13-.06-.12-.06-.13-.08-.11-.08-.11-.09-.1-.11-.09-.11-.09-.13.34-.21.06.1.08.09.07.07.09.08.09.06.09.06.1.05.1.05.11.04.11.03.11.02.11.02h.12l.11.01.12-.01.11-.01.11-.02.11-.02.11-.03.11-.03.1-.05.09-.05.09-.05.09-.06.08-.06.07-.07.06-.07.06-.08.05-.08.04-.09.04-.09.02-.09.17-.16zm-.17.16l.03-.14.14-.02-.17.16zM95.34.42l-41.51 5.7-.05-.39L95.28.02l.22.13-.16.27zm-.06-.4l.16-.02.06.15-.22-.13zm25.03 66.85L95.12.29l.38-.14 25.18 66.58-.16.27-.21-.13zm.37-.14l.09.23-.25.04.16-.27zM76.45 73.3l44.01-6.7.06.4-44.01 6.69-.23-.23.17-.16zm-.17.16l.03-.14.14-.02-.17.16zm-5.56 1.04l-.01-.4.17.09.14.19.15.17.16.15.17.15.18.13.19.11.2.1.2.09.21.07.21.06.21.05.22.03.22.02h.22l.21-.01.22-.02.21-.03.21-.05.2-.06.2-.07.18-.09.18-.1.17-.11.16-.12.15-.13.13-.14.12-.16.11-.17.09-.18.08-.19.06-.2.04-.22.4.06-.05.25-.07.24-.1.23-.1.21-.13.2-.15.18-.15.17-.18.16-.18.14-.19.13-.21.11-.21.1-.22.08-.23.07-.23.05-.24.04-.24.02-.24.01h-.24l-.25-.03-.24-.03-.24-.05-.23-.07-.23-.08-.23-.1-.22-.11-.22-.13-.2-.15-.2-.16-.18-.18-.17-.19-.16-.21.17.08zm-.01-.4h.11l.06.09-.17-.09zm-55.32 2.04l55.32-2.04.01.4-55.31 2.04-.2-.16.18-.24zm.02.4h-.17l-.03-.16.2.16zM.44 6.08L15.6 76.3l-.39.08L.05 6.16l.2-.24.19.16zm-.39.08L0 5.92h.25l-.2.24zm50.58.32L.25 6.32v-.4l50.38.16.17.09-.17.31zm0-.4h.11l.06.09-.17-.09z" class="fil1"/><path d="M54.52 8.59L99.3 2.47l22.38 61.4-47.11 7.49z" class="fil2"/><path id="1" d="M99.33 2.67L54.55 8.79l-.06-.39 44.79-6.13.21.13-.16.27zm-.05-.4l.16-.02.05.15-.21-.13zm22.22 61.67L99.12 2.54l.37-.14 22.38 61.41-.15.26-.22-.13zm.37-.13l.08.22-.23.04.15-.26zm-47.33 7.35l47.11-7.48.07.39-47.12 7.48-.22-.13.16-.26zm.06.39l-.17.03-.05-.16.22.13zM54.71 8.53L74.76 71.3l-.38.12L54.33 8.66l.16-.26.22.13zm-.38.13l-.07-.23.23-.03-.16.26z" class="fil1"/><path d="M67.4 19.87l29.1-3.33 10.24 28.1-30.16 3.95z" class="fil3"/><path id="1" d="M96.52 16.74l-29.1 3.33-.04-.4 29.09-3.33.21.13-.16.27zm-.05-.4l.16-.02.05.15-.21-.13zm10.08 28.37l-10.24-28.1.37-.14 10.25 28.1-.17.27-.21-.13zm.38-.14l.08.23-.25.04.17-.27zM76.55 48.4l30.16-3.96.05.4-30.16 3.95-.21-.13.16-.26zm.05.39l-.16.02-.05-.15.21.13zm-9.01-28.98l9.18 28.72-.38.13-9.18-28.73.17-.26.21.14zm-.38.12l-.07-.23.24-.03-.17.26z" class="fil1"/><path fill="#bdd180" d="M71.78 22.51l22.73-2.61 7.99 21.95-23.55 3.08z"/><path id="1" d="M94.53 20.1l-22.72 2.6-.05-.39 22.72-2.6.21.13-.16.26zm-.05-.39l.16-.02.05.15-.21-.13zm7.84 22.2l-8-21.94.37-.13 8 21.94-.16.26-.21-.13zm.37-.13l.09.23-.25.03.16-.26zm-23.77 2.96l23.56-3.09.05.39-23.55 3.09-.22-.13.16-.26zm.06.39l-.17.02-.05-.15.22.13zm-7.01-22.68l7.17 22.42-.38.13-7.16-22.43.16-.26.21.14zm-.37.12l-.08-.23.24-.03-.16.26z" class="fil1"/><path d="M67.43 23.18c2.07-1.01 3.2-2.42 3.13-4.34l-4.3.67 1.17 3.67zm30.48-4.27c-.59.05-2.79-1.05-3.81-2.69l2.91-.41.9 3.1zM74.82 45.69c2.27-.32 4.33 1.45 5.34 3.09l-4.26.6-1.08-3.69zm31.76-4.16c-2.07 1.01-3.2 2.42-3.12 4.34l4.29-.67-1.17-3.67z" class="fil0"/><path id="1" d="M70.59 19.04l-.06-.4.23.19v.37l-.01.18-.02.18-.03.18-.03.17-.04.17-.05.17-.05.16-.06.16-.07.16-.08.15-.08.15-.09.15-.09.15-.1.14-.11.14-.11.14-.12.13-.13.13-.13.13-.14.12-.14.12-.15.12-.16.12-.16.11-.17.11-.17.11-.18.1-.18.11-.19.1-.2.09-.17-.35.18-.1.19-.09.17-.1.17-.1.16-.1.16-.11.16-.1.14-.11.14-.12.14-.11.13-.11.12-.12.12-.12.11-.12.1-.13.1-.13.09-.13.09-.13.07-.13.08-.14.07-.14.06-.14.05-.14.05-.15.04-.15.04-.15.03-.16.02-.16.02-.16.01-.16v-.34l.23.19zm-.06-.4l.22-.03.01.22-.23-.19zm-4.3.68l4.3-.68.06.4-4.3.67-.22-.14.16-.25zm-.16.25l-.07-.22.23-.03-.16.25zm1.17 3.67l-1.17-3.67.38-.12 1.17 3.66-.1.24-.28-.11zm.28.11l-.2.1-.08-.21.28.11zm26.55-7.32l.06.39.14-.3.09.14.11.15.1.14.12.13.11.14.12.13.13.12.13.12.13.12.13.12.14.11.14.11.14.1.14.1.13.09.14.09.14.08.13.08.14.08.13.06.12.07.13.06.11.05.11.04.11.04.1.04.09.03.09.02.07.02.07.01h.09l.03.4h-.08l-.09-.01-.09-.01-.1-.02-.1-.03-.1-.03-.11-.04-.12-.04-.13-.06-.12-.05-.13-.06-.14-.07-.13-.07-.14-.08-.15-.08-.14-.09-.14-.1-.15-.09-.15-.11-.14-.1-.15-.12-.14-.12-.14-.12-.14-.12-.14-.13-.13-.14-.13-.14-.13-.14-.12-.15-.12-.15-.1-.15-.11-.16.14-.3zm-.14.3l-.16-.26.3-.04-.14.3zm3.11-.32l-2.91.41-.06-.39 2.91-.42.22.14-.16.26zm-.06-.4l.17-.02.05.16-.22-.14zm.74 3.35l-.9-3.1.38-.11.9 3.1-.17.26-.21-.15zm.38-.11l.07.24-.24.02.17-.26zM80.19 48.97l-.06-.39-.14.3-.09-.15-.1-.15-.11-.15-.11-.15-.12-.15-.12-.14-.13-.15-.13-.14-.14-.15-.15-.14-.14-.13-.15-.13-.16-.13-.16-.12-.16-.12-.17-.11-.16-.11-.18-.1-.17-.1-.18-.09-.18-.08-.19-.07-.18-.06-.19-.06-.19-.05-.19-.04-.2-.03-.19-.02-.2-.01h-.2l-.2.02-.2.02-.06-.4.23-.02.22-.01.22-.01.22.01.21.03.21.03.22.04.2.06.21.06.2.07.2.08.2.08.19.1.19.1.18.11.18.11.18.12.17.13.17.13.16.13.16.14.16.15.15.14.14.15.14.15.14.16.13.15.12.16.12.16.11.15.11.16.1.16-.14.3zm.14-.3l.16.26-.3.04.14-.3zm-4.46.52l4.26-.61.06.39-4.26.61-.22-.14.16-.25zm.06.39l-.18.03-.04-.17.22.14zm-.92-3.94l1.08 3.69-.38.11-1.08-3.69.16-.26.22.15zm-.38.11l-.07-.22.23-.04-.16.26zm28.8-.08l.06.4-.23-.19-.01-.19.01-.18.01-.18.02-.18.02-.18.03-.17.04-.17.05-.17.06-.16.06-.16.06-.16.08-.15.08-.15.09-.15.09-.15.1-.14.11-.14.12-.14.12-.13.12-.13.14-.13.13-.12.15-.12.15-.12.15-.12.17-.11.16-.11.17-.11.18-.1.19-.11.19-.1.19-.09.18.35-.19.1-.18.09-.18.1-.17.1-.16.1-.16.11-.15.1-.15.11-.14.12-.14.11-.12.11-.12.12-.12.12-.11.13-.11.12-.1.13-.09.13-.08.13-.08.13-.08.14-.06.14-.06.14-.06.14-.05.15-.04.15-.04.15-.02.16-.03.16-.01.16-.01.16-.01.17.01.17-.23-.19zm.06.4l-.22.03-.01-.22.23.19zm4.29-.68l-4.29.68-.06-.4 4.29-.67.22.14-.16.25zm.16-.25l.07.22-.23.03.16-.25zm-1.17-3.67l1.17 3.67-.38.12-1.17-3.66.1-.24.28.11zm-.28-.11l.21-.1.07.21-.28-.11z" class="fil1"/><path d="M4.15 8.62l47.08-.72 21.02 64.32-53.82 1.19z" class="fil2"/><path id="1" d="M51.24 8.1l-47.08.72-.01-.4 47.08-.72.19.14-.18.26zm-.01-.4h.15l.04.14-.19-.14zm20.83 64.58L51.04 7.96l.38-.12 21.02 64.32-.19.26-.19-.14zm.38-.12l.08.25-.27.01.19-.26zm-54.01 1.06l53.82-1.2v.4l-53.82 1.19-.19-.15.19-.24zm0 .39l-.16.01-.03-.16.19.15zM4.35 8.58l14.28 64.79-.39.09L3.96 8.67l.19-.25.2.16zm-.39.09l-.05-.24.24-.01-.19.25z" class="fil1"/><path d="M95.07 31.67l-.4.02-.03-.35-.04-.34-.07-.34-.08-.33-.1-.32-.11-.32-.13-.31-.14-.3-.16-.3-.17-.28-.19-.28-.2-.26-.21-.26-.23-.24-.23-.24-.25-.22-.26-.21-.27-.21-.28-.18-.29-.18-.3-.16-.3-.15-.32-.13-.32-.12-.33-.1-.33-.09-.35-.08-.34-.05-.36-.04-.35-.03h-.36l-.37.01-.02-.4.38-.01.38.01.38.02.37.04.37.06.36.08.35.09.35.11.34.13.33.14.33.16.31.17.3.18.3.2.28.21.28.22.26.24.25.25.24.26.22.27.21.28.2.29.18.3.17.32.16.32.13.32.12.34.11.34.08.36.07.36.05.36.03.37zm-7.09 7.63l-.02-.4.37-.03.35-.05.36-.06.34-.08.34-.1.33-.11.33-.12.32-.14.3-.16.3-.17.29-.18.27-.19.27-.21.26-.21.24-.23.24-.24.22-.25.21-.26.19-.27.19-.28.16-.28.16-.3.14-.3.12-.31.11-.32.1-.32.07-.32.06-.34.05-.34.02-.34.01-.35-.01-.35.4-.02.01.37-.01.37-.03.36-.04.36-.07.36-.08.34-.1.35-.11.33-.14.33-.14.32-.17.31-.18.3-.19.3-.21.28-.22.28-.23.26-.25.25-.26.25-.27.22-.28.22-.3.21-.3.19-.31.17-.33.17-.33.14-.34.14-.35.12-.36.1-.36.08-.37.07-.38.04-.39.04zm-7.89-6.79l.4-.02.02.35.05.34.07.34.08.33.1.32.11.32.13.31.14.3.16.29.17.29.19.28.2.26.21.26.23.24.23.24.25.22.26.21.27.2.28.19.29.17.29.17.31.14.31.14.33.12.33.1.33.09.34.07.35.06.35.04.36.02.36.01.37-.01.02.4-.38.01-.38-.01-.38-.02-.37-.05-.37-.06-.36-.07-.35-.1-.35-.11-.34-.12-.33-.14-.33-.16-.31-.17-.31-.18-.29-.2-.28-.21-.28-.23-.26-.23-.25-.25-.24-.26-.22-.27-.22-.28-.19-.29-.19-.31-.16-.31-.16-.32-.13-.32-.12-.34-.11-.35-.08-.35-.07-.36-.05-.36-.03-.37zm7.09-7.63l.02.4-.37.03-.36.04-.35.07-.34.08-.34.09-.34.11-.32.13-.32.14-.3.15-.3.17-.29.18-.28.2-.26.2-.26.22-.24.23-.24.24-.22.25-.21.26-.2.27-.18.27-.17.29-.15.3-.14.3-.13.31-.11.31-.09.33-.08.32-.06.34-.04.34-.03.34v.34l.01.36-.4.02-.01-.37.01-.37.02-.37.05-.35.06-.36.09-.35.1-.34.11-.33.13-.33.15-.32.17-.31.17-.31.2-.29.21-.29.22-.27.23-.26.25-.26.25-.24.28-.23.28-.21.29-.21.31-.19.31-.18.33-.16.33-.15.34-.13.35-.12.36-.1.36-.08.37-.07.38-.05.39-.03z" class="fil1"/><path d="M80.9 29.79l-.37-.14.18.27h-.08l.03-.01h-.01l-.03.01h-.02l.03-.01-.01.01h-.03.01l-.03-.4h.02-.03H80.62h-.03H80.72l.18.27zm-.18-.27l.28.01-.1.26-.18-.27zm-.23 2.97l-.4.02-.01-.09v-.57l.01-.09v-.09l.01-.09.01-.09.01-.09v-.1l.02-.09.01-.09.01-.08.02-.1.01-.09.02-.08.02-.09.02-.09.02-.09.02-.09.02-.08.03-.09.02-.09.02-.08.03-.09.03-.08.03-.09.03-.08.03-.08.37.14-.03.08-.02.07-.03.08-.03.09-.02.08-.03.08-.02.08-.02.08-.02.08-.03.08-.01.09-.02.08-.02.08-.01.09-.02.08-.01.08-.02.09-.01.09-.01.08-.01.09-.01.08v.09l-.01.09-.01.08V32.4l.01.09zm-.08 1.29l.05-.39-.22.24v-.04l-.01-.03-.01-.04-.01-.03v-.03l-.01-.04-.01-.03v-.04l-.01-.03v-.04l-.01-.03-.01-.04v-.03l-.01-.04v-.03l-.01-.04v-.03l-.01-.04v-.07l-.01-.03v-.07l-.01-.04v-.04l-.01-.03v-.1l-.01-.04v-.07l.4-.02v.1l.01.03v.07l.01.03v.1l.01.03v.04l.01.03v.07l.01.03v.03l.01.04v.03l.01.03v.04l.01.03v.03l.01.03.01.04v.03l.01.03v.03l.01.03.01.04.01.03v.03l-.22.24zm.22-.24l.06.27-.28-.03.22-.24zm-2.15-1.76l.39-.02.01.08.01.07.01.08.02.08.02.07.02.08.03.07.03.07.03.06.04.07.04.07.04.06.04.06.05.06.05.06.05.05.05.06.06.05.06.05.06.04.07.04.06.05.07.03.06.04.08.03.07.03.07.03.08.02.07.02.08.02.08.01.08.02-.05.39-.09-.01-.1-.02-.09-.02-.1-.03-.09-.03-.09-.03-.08-.03-.09-.04-.08-.05-.09-.04-.07-.05-.08-.06-.08-.05-.07-.06-.07-.06-.06-.07-.07-.07-.06-.07-.06-.07-.05-.07-.05-.08-.05-.08-.04-.08-.04-.09-.04-.09-.03-.08-.03-.09-.03-.1-.02-.09-.01-.09-.02-.1v-.1zm2.09-2.26l.03.4h-.01l-.09.01-.09.01-.09.01-.09.02-.09.03-.08.03-.09.03-.08.04-.08.04-.07.04-.08.04-.07.05-.07.06-.06.05-.06.06-.07.06-.05.07-.05.06-.06.07-.04.07-.05.07-.03.08-.04.08-.03.08-.03.08-.02.08-.02.08-.02.09-.01.08-.01.09v.18l-.39.02-.01-.11.01-.11v-.11l.02-.1.02-.11.02-.1.03-.1.03-.1.04-.1.05-.09.05-.1.05-.09.06-.09.06-.08.06-.08.07-.08.08-.07.07-.07.08-.07.09-.07.08-.06.09-.05.1-.06.09-.04.1-.05.1-.04.1-.03.11-.03.11-.03.11-.02.11-.01.11-.01zM96.47 30.83l-.4.02-.01-.09-.01-.09-.01-.08-.02-.09-.03-.08-.03-.08-.03-.08-.04-.08-.04-.07-.04-.07-.05-.07-.05-.07-.05-.07-.06-.06-.06-.06-.06-.06-.07-.05-.07-.05-.07-.05-.07-.04-.08-.04-.08-.04-.08-.04-.08-.03-.08-.03-.09-.02-.08-.02-.09-.01-.09-.01-.1-.01h-.18l-.02-.4h.22l.11.01.11.01.11.02.1.02.11.03.1.04.1.03.1.04.09.05.1.05.09.06.08.05.09.07.08.06.07.07.08.08.07.07.06.08.07.09.06.08.05.09.05.09.04.1.04.1.04.1.03.1.03.1.02.11.01.11.01.11zm-1.83 1.95l.4.05-.26-.21.08-.03.07-.02.07-.03.07-.03.06-.04.07-.03.06-.04.06-.05.06-.04.06-.05.06-.04.05-.05.05-.05.05-.06.05-.05.04-.06.04-.06.04-.06.04-.06.03-.07.03-.06.03-.07.03-.07.02-.07.02-.06.02-.08.01-.07.01-.07.01-.08V30.85l.4-.02v.28l-.01.09-.02.09-.01.09-.02.09-.03.08-.03.09-.03.08-.03.08-.04.08-.04.08-.05.08-.05.07-.05.07-.05.08-.06.06-.06.07-.06.06-.07.06-.07.06-.06.06-.08.05-.07.05-.08.05-.08.04-.08.04-.08.04-.09.04-.09.03-.08.03-.26-.22zm.26.22l-.29.08.03-.3.26.22zm-.23-1.31l.4-.02V31.78l.01.04v.5l-.01.05v.14l-.01.03v.08l-.01.03v.07l-.01.04v.07l-.4-.05.01-.03v-.1l.01-.04v-.06l.01-.03v-.14l.01-.04v-.54l-.01-.04v-.07zm-.52-2.88l.02.4.17-.29.03.08.04.08.04.08.03.08.04.08.03.08.04.08.03.09.03.08.03.08.03.08.03.09.03.08.02.09.03.08.02.09.02.08.02.09.02.09.02.09.02.09.02.08.02.09.01.09.01.09.02.09.01.09.01.09.01.09.01.1v.09l.01.09-.4.02v-.09l-.01-.08-.01-.09-.01-.08-.01-.09-.01-.09-.01-.08-.01-.08-.02-.09-.01-.08-.02-.09-.02-.08-.01-.08-.02-.09-.02-.08-.03-.08-.02-.08-.02-.08-.03-.08-.02-.08-.03-.08-.02-.07-.03-.08-.03-.08-.03-.08-.03-.08-.04-.07-.03-.08-.03-.07-.04-.08-.03-.07-.04-.08.17-.29zm-.17.29l-.14-.27.31-.02-.17.29zM88.89 32.02l-.4.02V32l-.01-.02-.01-.02v-.01l-.01-.02-.02-.01-.01-.02-.02-.02-.02-.02-.01-.01-.03-.02-.02-.01-.02-.02-.03-.02-.03-.01-.03-.01-.03-.02-.04-.01-.03-.01-.04-.01-.03-.01-.04-.01-.04-.01h-.04l-.05-.01h-.09l-.04-.01-.04.01h-.05l-.02-.4H87.87l.05.01h.06l.05.01.05.01.05.01.06.01.04.02.05.01.05.02.05.02.04.02.05.02.03.03.05.02.04.03.03.03.04.03.03.03.03.03.03.04.03.03.03.04.02.05.02.04.01.04.02.05.01.05v.05zm-1.16.88l-.02-.4h.04l.05-.01.04-.01h.04l.05-.01.04-.01.04-.01.04-.01.04-.02.03-.01.04-.01.03-.02.03-.01.03-.02.03-.02.03-.02.03-.02.02-.01.02-.02.02-.02.01-.02.02-.02.02-.02.01-.01.01-.02.01-.02v-.01l.01-.02V32.04l.4-.02v.09l-.01.05-.01.04-.02.05-.01.04-.02.04-.02.04-.03.05-.03.03-.03.03-.03.04-.03.03-.04.03-.04.04-.04.02-.04.03-.04.03-.04.02-.05.02-.04.02-.05.02-.05.02-.05.02-.05.01-.06.02-.05.01-.05.01-.06.01-.06.01h-.05l-.06.01zm-1.25-.75l.39-.02v.01l.01.02v.01l.01.02v.02l.01.01.01.01.01.02.02.02.01.02.02.01.02.02.02.01.03.02.02.02.03.01.03.02.03.01.03.01.04.02.03.01.03.01.04.01.04.01h.04l.04.01h.04l.05.01h.18l.02.4H87.5l-.06-.01-.05-.01h-.05l-.05-.01-.06-.01-.05-.02-.05-.01-.05-.02-.04-.02-.05-.01-.04-.02-.05-.03-.04-.02-.04-.02-.04-.03-.04-.03-.04-.03-.03-.03-.03-.04-.03-.03-.02-.04-.03-.04-.02-.04-.02-.04-.02-.05-.01-.04-.01-.05v-.05zm1.16-.88l.02.4h-.05l-.04.01h-.05l-.04.01-.04.01-.04.01-.04.01-.04.01-.04.01-.04.01-.03.02-.03.01-.03.02-.04.02-.03.02-.02.01-.03.02-.02.02-.02.02-.02.02-.02.01-.01.02-.02.03-.01.01-.01.02-.01.02v.01l-.01.02v.02l-.01.01v.03l-.39.02v-.1l.01-.05.01-.04.01-.04.02-.05.02-.04.02-.04.03-.04.02-.03.03-.04.04-.03.03-.04.04-.03.04-.03.03-.03.05-.02.04-.03.04-.02.04-.03.05-.02.05-.02.05-.01.05-.02.05-.02.05-.01.06-.01.05-.02h.06l.06-.01.05-.01h.06z" class="fil1"/><circle r="6.78" class="fil5" transform="matrix(.10855 -.00608 .00608 .10855 85.3853 29.8124)"/><circle r="6.78" class="fil5" transform="matrix(.10855 -.00608 .00608 .10855 89.5345 29.5274)"/><path d="M90.03 33.91c.09-.09.23-.09.32.01.09.09.09.24 0 .33-.78.73-1.68 1.19-2.62 1.25-.86.06-1.75-.22-2.58-.94-.1-.08-.11-.23-.03-.32.08-.1.23-.11.33-.03.73.63 1.5.88 2.25.83.82-.05 1.63-.47 2.33-1.13zM81 24.27c-.07-.09-.07-.21.02-.29.08-.07.2-.06.28.02l-.3.27zm2.1 2.32L81 24.27l.3-.27 2.09 2.32-.29.27zm.29-.27c.08.08.07.21-.01.28-.08.08-.21.07-.28-.01l.29-.27zM82.9 23.12c-.05-.09-.01-.21.08-.27.1-.05.22-.01.27.08l-.35.19zm1.5 2.75l-1.5-2.75.35-.19 1.5 2.75-.35.19zm.35-.19c.06.1.02.22-.08.27-.09.05-.21.02-.27-.08l.35-.19zM85.28 22.53c-.03-.1.04-.21.15-.23.1-.02.21.04.23.15l-.38.08zm.58 2.75l-.58-2.75.38-.08.59 2.75-.39.08zm.39-.08c.02.1-.05.21-.16.23-.1.03-.21-.04-.23-.15l.39-.08zM87.53 22.54c0-.11.08-.2.19-.2s.2.08.2.19l-.39.01zm.02 2.4l-.02-2.4.39-.01.03 2.4-.4.01zm.4-.01c0 .11-.09.2-.2.21-.11 0-.2-.09-.2-.2l.4-.01zM89.51 22.3l-.4-.04c.01-.11.11-.19.22-.18.11.01.19.11.18.22zm-.28 2.79l-.39-.04.27-2.79.4.04-.28 2.79zm-.39-.04l.39.04c-.01.11-.11.19-.22.18-.1-.01-.18-.11-.17-.22zM91.71 22.84l-.37-.15c.04-.1.16-.15.26-.11.1.04.15.16.11.26zm-1.19 2.9l-.37-.15 1.19-2.9.37.15-1.19 2.9zm-.37-.15l.37.15c-.04.1-.16.15-.26.11-.1-.04-.15-.16-.11-.26z" class="fil1"/><path d="M13.11 16.16l33.36-.52 15.26 45.45-36.86 2.42z" class="fil3"/><path id="1" d="M46.48 15.84l-33.37.52v-.4l33.36-.52.19.14-.18.26zm-.01-.4h.15l.04.14-.19-.14zm15.07 45.72L46.29 15.7l.37-.12 15.26 45.45-.18.26-.2-.13zm.38-.13l.08.25-.26.01.18-.26zm-37.06 2.28l36.86-2.42.02.4-36.85 2.42-.21-.15.18-.25zm.03.4l-.17.01-.04-.16.21.15zM13.3 16.11l11.77 47.36-.39.09-11.76-47.35.19-.25.19.15zm-.38.1l-.06-.25h.25l-.19.25z" class="fil1"/><path fill="#6fa691" d="M19 21.1l25.13-1.5 11.99 34.47-28.19 2.4z"/><path id="1" d="M44.15 19.8l-25.14 1.5-.02-.4 25.13-1.5.2.13-.17.27zm-.03-.4l.15-.01.05.14-.2-.13zm11.81 34.73L43.95 19.66l.37-.13L56.31 54l-.17.27-.21-.14zm.38-.13l.08.24-.25.03.17-.27zm-28.39 2.27l28.19-2.4.03.4-28.19 2.4-.21-.15.18-.25zm.03.4l-.17.01-.04-.16.21.15zM19.2 21.06l8.93 35.36-.39.1-8.93-35.37.18-.25.21.16zm-.39.09l-.06-.23.24-.02-.18.25z" class="fil1"/><path d="M44.76 33.44l-.4.02-.03-.41-.06-.41-.07-.4-.1-.39-.11-.38-.14-.38-.15-.36-.17-.36-.19-.35-.2-.33-.22-.33-.24-.31-.25-.31-.26-.28-.28-.28-.3-.27-.3-.25-.32-.23-.33-.22-.34-.21-.35-.19-.36-.18-.37-.15-.39-.14-.38-.13-.4-.1-.41-.09-.4-.06-.42-.05-.42-.03-.43-.01-.43.02-.03-.4.46-.02.44.01.44.03.44.05.43.07.42.09.42.11.41.13.39.15.39.16.38.18.37.2.35.22.35.23.33.25.32.26.31.28.29.29.28.3.27.32.24.33.23.34.22.35.2.37.17.37.16.39.15.39.12.41.1.41.08.42.06.42.03.44zm-8.3 8.93l-.02-.4.43-.03.42-.06.42-.07.41-.1.4-.11.39-.13.38-.15.37-.16.37-.18.35-.2.34-.22.33-.23.31-.24.3-.25.29-.27.28-.29.26-.29.25-.31.23-.32.22-.32.2-.34.18-.35.16-.36.15-.36.13-.38.11-.38.09-.39.07-.39.06-.4.03-.4.01-.42-.02-.41.4-.02.01.43-.01.43-.03.43-.05.42-.08.42-.09.4-.12.4-.13.4-.16.38-.17.37-.2.37-.21.36-.22.34-.24.33-.26.32-.28.31-.29.3-.3.28-.32.27-.33.26-.34.24-.36.22-.37.21-.37.19-.39.17-.4.16-.42.13-.41.12-.43.1-.44.08-.44.05-.45.04zm-9.25-7.95l.4-.02.03.41.06.41.08.4.09.39.12.38.13.38.15.36.17.36.19.35.2.33.22.33.24.31.25.3.27.3.28.27.29.27.31.25.31.23.33.22.34.21.36.19.36.17.37.16.38.14.39.13.39.1.41.09.41.06.42.05.42.03.43.01.43-.02.02.4-.45.02-.45-.01-.44-.03-.44-.05-.43-.07-.42-.09-.41-.11-.41-.13-.4-.15-.39-.16-.38-.19-.36-.19-.36-.22-.35-.23-.33-.25-.32-.26-.31-.28-.29-.29-.28-.3-.26-.32-.25-.33-.23-.34-.21-.35-.2-.37-.18-.37-.16-.39-.14-.39-.12-.41-.1-.41-.08-.42-.06-.42-.04-.44zm8.3-8.93l.03.4-.43.03-.43.06-.42.07-.41.1-.4.11-.39.13-.38.15-.37.16-.36.18-.35.2-.35.22-.32.22-.32.25-.3.26-.29.26-.28.29-.26.29-.25.31-.23.32-.21.33-.2.33-.18.35-.17.36-.15.37-.13.37-.11.38-.09.39-.07.39-.05.4-.03.4-.01.41.01.42-.4.02-.01-.44.01-.43.03-.42.06-.42.07-.41.1-.41.11-.4.14-.4.16-.38.17-.38.19-.36.21-.35.23-.35.24-.33.26-.33.27-.3.29-.3.3-.28.32-.27.33-.26.35-.24.35-.22.37-.21.38-.19.39-.17.4-.16.41-.13.42-.12.42-.1.44-.08.44-.05.45-.04z" class="fil1"/><path d="M28.1 31.21l-.37-.14.19.27H27.86h.02-.07.03H27.78h.02-.04.01l-.02-.4h.01-.02H27.8h-.03.07-.02H27.92l.18.27zm-.18-.27h.29l-.11.27-.18-.27zm-.31 3.46l-.4.02v-.11l-.01-.11v-.44l.01-.1v-.11l.01-.11v-.11l.01-.1.01-.11.01-.11.02-.1.01-.11.02-.1.02-.11.01-.11.02-.1.02-.1.03-.11.02-.1.03-.1.02-.1.03-.1.03-.11.03-.1.03-.1.04-.1.03-.09.03-.1.04-.1.37.14-.03.09-.04.1-.03.09-.03.1-.03.09-.03.1-.02.09-.03.1-.03.1-.02.09-.02.1-.03.1-.02.1-.01.1-.02.1-.02.1-.01.1-.02.1-.01.1-.01.1-.01.1-.01.1-.01.11v.1l-.01.1v.52l.01.1v.11zm-.05 1.49l.05-.4-.22.24-.01-.04v-.04l-.01-.04-.01-.04-.01-.04-.01-.04v-.04l-.01-.04-.01-.04-.01-.04v-.04l-.01-.04-.01-.04v-.04l-.01-.04v-.04l-.01-.05V35l-.01-.04v-.04l-.01-.04v-.04l-.01-.05v-.04l-.01-.03v-.13l-.01-.04v-.09l-.01-.04.4-.02v.04l.01.04v.08l.01.04V34.72l.01.04v.03l.01.04v.05l.01.03v.04l.01.04v.04l.01.04v.04l.01.04v.04l.01.04.01.03v.04l.01.04.01.04v.04l.01.04.01.03.01.04.01.04v.04l.01.04-.22.24zm.22-.24l.06.27-.28-.03.22-.24zm-2.47-2.08l.4-.03.01.1.01.09.02.1.02.08.02.09.03.09.03.09.04.08.04.08.04.08.05.08.05.08.05.07.06.07.06.07.06.06.06.07.07.06.07.06.07.05.08.05.08.05.08.05.08.04.08.04.09.03.09.04.09.02.09.03.09.02.1.02.09.01-.05.4-.11-.02-.11-.02-.11-.02-.11-.03-.1-.04-.1-.04-.11-.04-.1-.04-.09-.05-.1-.06-.09-.06-.09-.06-.09-.06-.08-.07-.08-.07-.08-.08-.07-.08-.07-.08-.07-.08-.06-.09-.06-.09-.06-.09-.05-.1-.04-.1-.05-.09-.04-.11-.03-.1-.03-.11-.02-.11-.02-.11-.02-.11-.01-.11zm2.44-2.63l.02.4-.11.01-.11.01-.11.02-.11.03-.1.03-.1.03-.1.04-.1.04-.09.05-.09.05-.09.06-.09.06-.08.06-.08.07-.07.07-.08.07-.06.08-.07.08-.06.08-.05.08-.05.09-.05.09-.04.09-.04.1-.04.09-.02.1-.03.1-.02.1-.01.11-.01.1V33.54l-.4.03v-.26l.01-.12.02-.13.02-.12.03-.12.04-.12.03-.11.05-.12.05-.11.06-.1.06-.11.06-.1.08-.1.07-.09.08-.09.09-.09.09-.08.09-.08.1-.07.1-.07.1-.07.11-.06.11-.06.12-.05.11-.04.12-.04.12-.04.13-.03.13-.02.13-.02.13-.01zM46.41 32.45l-.4.02-.01-.11-.01-.1-.02-.1-.03-.1-.03-.1-.03-.1-.04-.09-.04-.1-.05-.09-.05-.08-.06-.09-.06-.08-.07-.08-.06-.07-.08-.07-.07-.07-.08-.06-.08-.07-.09-.05-.08-.06-.1-.05-.09-.04-.09-.04-.1-.04-.1-.03-.11-.03-.1-.02-.11-.02-.1-.01-.11-.01H43.73l-.02-.4h.27l.12.01.13.02.12.02.13.02.12.04.12.03.11.05.12.05.11.05.1.06.11.06.1.07.1.07.09.08.09.08.08.08.09.09.07.1.07.09.07.11.06.1.06.1.05.11.05.12.04.11.04.12.03.12.02.13.02.12.01.13zm-2.08 2.3l.39.05-.25-.22.09-.02.08-.04.09-.03.08-.04.08-.04.08-.04.07-.05.07-.05.08-.05.06-.06.07-.05.07-.06.06-.06.05-.07.06-.07.05-.06.05-.07.05-.08.05-.07.04-.08.03-.08.04-.08.03-.08.03-.08.02-.08.02-.09.01-.08.02-.09.01-.09v-.27l.4-.02V32.66l-.01.11-.01.11-.01.1-.02.11-.03.1-.03.1-.03.1-.03.09-.04.1-.05.09-.05.09-.05.09-.06.09-.06.08-.06.08-.07.08-.06.08-.08.07-.07.07-.08.07-.08.07-.09.06-.08.06-.09.05-.09.05-.1.05-.09.05-.1.04-.1.03-.11.03-.25-.21zm.25.21l-.28.09.03-.3.25.21zm-.22-1.5l.4-.02v.04l.01.05V34.25l-.01.04v.13l-.01.04v.09l-.01.04v.08l-.01.04v.04l-.01.05-.39-.05v-.04l.01-.04v-.04l.01-.04v-.12l.01-.04v-.12l.01-.04V34.03l.01-.04v-.16l-.01-.04v-.29l-.01-.04zm-.65-3.35l.02.4.17-.29.05.09.04.1.05.09.04.09.04.1.04.09.04.1.03.1.04.09.04.1.03.1.03.1.03.09.04.1.02.1.03.1.03.11.02.1.03.1.02.1.02.1.02.11.02.1.02.11.01.1.02.11.01.1.02.11.01.11.01.1v.11l.01.11-.4.02v-.1l-.01-.11-.01-.1-.01-.1-.01-.1-.02-.1-.01-.1-.01-.1-.02-.1-.02-.1-.02-.1-.02-.09-.02-.1-.02-.1-.03-.1-.02-.09-.03-.1-.03-.09-.03-.1-.03-.09-.03-.1-.03-.09-.03-.09-.04-.09-.03-.09-.04-.1-.04-.09-.04-.08-.04-.09-.04-.09-.04-.09-.04-.09.16-.29zm-.16.29l-.14-.27.3-.02-.16.29zM37.49 33.85l-.39.02v-.02l-.01-.02v-.02l-.01-.02-.01-.02-.01-.03-.01-.02-.02-.01-.02-.03-.02-.02-.02-.02-.03-.02-.02-.02-.03-.02-.03-.02-.03-.02-.04-.02-.04-.01-.03-.02-.05-.01-.04-.02-.04-.01-.05-.01-.04-.01-.05-.01-.05-.01h-.05l-.05-.01H36.08l-.02-.4h.26l.07.01h.06l.06.01.06.02.06.01.06.01.06.02.05.02.06.02.05.02.05.02.05.03.05.03.04.02.05.04.05.03.03.03.04.04.04.04.03.04.03.04.03.04.02.05.03.05.01.05.02.05.01.05v.06zm-1.33 1l-.02-.4.05-.01h.06l.05-.01.05-.01.05-.01.05-.01.05-.01.05-.02.05-.01.04-.02.04-.02.04-.01.04-.02.04-.03.03-.01.03-.03.04-.02.02-.02.03-.03.03-.02.02-.02.02-.02.01-.03.02-.02.01-.02.01-.02.01-.03.01-.02.01-.02v-.06l.39-.02v.1l-.01.06-.01.05-.01.04-.02.05-.03.05-.02.05-.03.04-.03.04-.04.04-.03.04-.04.04-.04.04-.05.03-.04.03-.05.03-.05.03-.05.03-.05.03-.05.02-.06.02-.05.02-.06.02-.06.02-.06.02-.06.01-.06.01-.07.02h-.07l-.06.01-.07.01zM34.73 34l.39-.02.01.02v.04l.01.02.01.02.01.02.01.02.02.02.02.02.02.02.02.02.02.03.03.02.03.02.03.02.03.02.04.01.04.02.03.02.04.01.05.02.04.01.05.01.04.01.05.01.05.01h.05l.05.01H36.14l.02.4h-.2l-.06-.01h-.07l-.06-.01-.06-.01-.06-.01-.06-.01-.06-.02-.06-.01-.05-.02-.06-.02-.05-.02-.05-.03-.05-.02-.05-.03-.05-.03-.04-.03-.04-.03-.04-.04-.04-.03-.04-.04-.03-.04-.03-.04-.03-.05-.03-.04-.02-.05-.01-.05-.02-.06-.01-.05V34zm1.33-1l.02.4h-.05l-.06.01-.05.01h-.05l-.05.02-.06.01-.04.01-.05.01-.05.02-.04.01-.04.02-.04.02-.04.02-.04.02-.03.02-.04.02-.03.03-.03.02-.02.02-.02.02-.03.03-.02.02-.01.02-.02.03-.01.02-.01.02-.01.02-.01.03v.02l-.01.01v.05l-.39.02v-.11l.01-.05.01-.05.02-.05.01-.05.03-.05.02-.04.03-.05.03-.04.04-.04.03-.04.04-.03.04-.04.05-.03.04-.03.05-.04.05-.03.05-.02.05-.03.05-.02.06-.03.05-.02.06-.02.06-.02.06-.01.06-.01.06-.02.07-.01.06-.01h.07l.07-.01z" class="fil1"/><circle r="6.78" class="fil5" transform="matrix(.12767 -.00715 .00715 .12767 33.4068 31.2529)"/><circle r="6.78" class="fil5" transform="matrix(.12767 -.00715 .00715 .12767 38.2867 30.9176)"/><path d="M38.86 36.07c.11-.1.29-.1.39.01.1.11.1.28-.01.39-.91.86-1.97 1.4-3.08 1.48-1.01.06-2.05-.27-3.03-1.11-.12-.1-.13-.27-.03-.38.09-.12.27-.13.38-.03.86.73 1.77 1.03 2.65.97.97-.06 1.91-.55 2.73-1.33zM28.34 30.95c-.09.07-.22.05-.28-.04-.07-.09-.04-.22.04-.28l.24.32zm7.04-5.08l-7.04 5.08-.24-.32 7.05-5.09.23.33zm-.23-.33c.09-.06.21-.04.28.05.06.09.04.21-.05.28l-.23-.33z" class="fil1"/><path d="M27.99 31.22c-.11.02-.21-.06-.23-.16-.01-.11.06-.21.17-.23l.06.39zm7.2-5.53l.34.2-.16.28-.17.26-.18.26-.17.26-.19.24-.18.24-.2.24-.19.23-.2.22-.21.21-.21.21-.21.2-.22.19-.22.19-.23.18-.23.17-.24.16-.24.16-.25.15-.25.15-.25.13-.27.13-.26.12-.27.12-.28.1-.28.1-.28.1-.29.08-.3.07-.3.07-.3.06-.31.05-.06-.39.3-.05.29-.06.29-.06.28-.08.28-.08.28-.09.27-.09.26-.1.26-.11.25-.12.25-.12.25-.13.24-.14.24-.14.23-.15.23-.16.22-.17.22-.17.21-.18.21-.19.21-.19.2-.2.2-.21.19-.21.19-.22.18-.22.18-.24.18-.24.17-.24.17-.25.17-.26.16-.27zm0 0c.06-.09.18-.12.27-.07.1.06.13.18.07.27l-.34-.2z" class="fil1"/><path d="M28.03 31.09c.03.1-.04.21-.14.24-.11.03-.22-.03-.24-.14l.38-.1zm7.19-5.77l-.09.39-.32-.06-.33-.04h-.34l-.33.01-.34.05-.33.06-.33.09-.33.11-.33.13-.32.15-.32.16-.31.18-.3.19-.29.21-.28.21-.27.23-.26.23-.25.24-.23.25-.21.25-.2.25-.19.26-.16.25-.15.25-.12.25-.11.24-.08.23-.06.23-.04.21-.01.2.01.19.03.17-.38.1-.05-.23-.01-.23.02-.25.04-.25.07-.26.09-.26.12-.26.13-.27.16-.27.18-.27.19-.27.21-.26.23-.27.24-.25.26-.26.27-.24.28-.24.3-.23.3-.21.32-.2.32-.19.34-.17.34-.16.34-.13.35-.12.36-.09.36-.07.36-.05.36-.02h.37l.36.04.36.07zm0 0c.11.02.18.13.15.24-.02.1-.13.17-.24.15l.09-.39z" class="fil1"/><path d="M43.26 29.28c.11.01.19.11.17.22-.01.11-.11.18-.22.17l.05-.39zm-8.07-3.39l.35-.19.12.22.14.21.15.21.16.19.16.18.18.18.18.17.19.16.2.15.2.14.22.14.22.13.23.12.24.12.24.11.25.1.25.1.26.1.27.08.27.09.28.07.28.07.29.07.29.07.3.06.3.05.3.06.3.05.31.05.31.04.32.04.31.05-.05.39-.32-.04-.31-.04-.32-.05-.31-.05-.31-.05-.31-.05-.3-.06-.3-.06-.3-.07-.29-.07-.29-.07-.29-.08-.28-.09-.27-.09-.27-.09-.27-.11-.26-.1-.25-.12-.25-.12-.24-.13-.24-.14-.22-.14-.22-.16-.22-.16-.2-.17-.2-.18-.19-.19-.18-.2-.16-.21-.16-.22-.15-.23-.14-.24zm0 0c-.06-.1-.02-.22.08-.27.09-.05.21-.02.27.08l-.35.19z" class="fil1"/><g><path d="M42.99 29.39l.39.01c0 .11-.09.2-.2.19-.11 0-.2-.09-.19-.2zm-7.88-4.06l.31-.11.32-.09.32-.07.34-.05.34-.04.34-.01h.35l.34.02.35.04.35.05.35.07.34.08.34.1.33.11.32.13.32.14.31.15.3.16.28.18.27.19.26.2.24.21.23.22.21.23.18.24.17.25.14.26.12.26.1.28.06.29.04.28v.3l-.39-.01-.01-.26-.03-.25-.06-.24-.08-.24-.1-.23-.13-.23-.15-.23-.17-.22-.19-.21-.2-.2-.23-.19-.24-.19-.26-.17-.26-.17-.28-.16-.3-.14-.3-.13-.31-.12-.31-.11-.32-.09-.33-.08-.33-.06-.33-.06-.33-.03-.33-.02h-.32l-.33.01-.31.03-.32.05-.3.06-.29.09-.29.1-.14-.37zm0 0l.14.37c-.1.04-.21-.01-.25-.11-.05-.1 0-.22.11-.26z" class="fil1"/></g><g><path d="M42.77 29.46l.17-.36c.1.05.14.17.1.27-.05.1-.17.14-.27.09zm-7.44-3.59l.17-.36 7.44 3.59-.17.36-7.44-3.59zm.17-.36l-.17.36c-.1-.04-.14-.16-.1-.26.05-.1.17-.14.27-.1z" class="fil1"/></g><g><path d="M48.36 18.62c-.59-.01-3.86-1.8-4.88-3.52l3.95-.11.93 3.63zm-35.24.49c2.08-.82 3.22-2.11 3.14-4.03l-4.32.28 1.18 3.75zm9.69 41.73c2.29-.11 4.35 1.83 5.37 3.55l-4.29.22-1.08-3.77zm38.98-2.77c-2.08.82-3.22 2.11-3.14 4.04l4.32-.29-1.18-3.75z" class="fil0"/><path id="1" d="M43.47 14.9l.01.4.17-.3.09.15.11.16.12.15.13.16.15.15.15.15.15.16.17.15.17.15.18.14.18.15.19.14.18.14.19.13.19.13.19.13.19.12.18.11.18.11.18.1.18.1.17.09.16.08.15.08.14.06.14.07.12.05.11.04.1.03.08.02.06.01.04.01-.01.4-.09-.01-.1-.02-.1-.03-.11-.04-.13-.04-.13-.06-.14-.06-.15-.07-.16-.08-.17-.09-.17-.09-.18-.1-.19-.11-.19-.11-.19-.12-.19-.12-.19-.13-.2-.13-.19-.14-.2-.14-.19-.15-.18-.15-.19-.15-.18-.16-.17-.15-.17-.16-.15-.17-.15-.16-.15-.17-.13-.17-.11-.17-.11-.17.16-.3zm-.16.3l-.18-.29.34-.01-.16.3zm4.13-.01l-3.96.11-.01-.4 3.95-.11.2.15-.18.25zm-.02-.4l.16-.01.04.16-.2-.15zm.75 3.88l-.93-3.63.38-.1.94 3.63-.2.25-.19-.15zm.39-.1l.06.25h-.26l.2-.25zm-32.28-3.3l-.03-.39.21.19.01.18-.01.19-.01.18-.02.17-.02.17-.04.17-.03.17-.05.16-.06.16-.06.16-.07.15-.07.15-.09.14-.09.14-.09.14-.1.13-.11.13-.12.13-.12.12-.13.12-.13.11-.14.12-.15.11-.15.1-.16.1-.16.1-.17.1-.17.09-.18.09-.19.08-.19.08-.19.09-.15-.38.19-.07.18-.08.18-.08.17-.09.16-.08.16-.09.15-.1.15-.09.14-.1.14-.1.13-.1.12-.11.11-.11.11-.11.11-.11.1-.12.09-.12.08-.12.08-.12.08-.13.06-.13.07-.14.05-.14.05-.14.04-.14.04-.15.03-.15.02-.16.02-.15.01-.17V15.08l.21.19zm-.03-.39l.21-.02v.21l-.21-.19zm-4.32.28l4.32-.28.03.39-4.32.29-.21-.14.18-.26zm-.18.26l-.07-.24.25-.02-.18.26zm1.18 3.75l-1.18-3.75.38-.12 1.18 3.75-.11.25-.27-.13zm.27.13l-.2.07-.07-.2.27.13zm14.99 45.29l-.02-.4-.16.3-.1-.16-.1-.15-.1-.16-.12-.16-.12-.16-.12-.16-.13-.16-.13-.15-.14-.16-.15-.15-.15-.15-.15-.14-.15-.14-.16-.14-.17-.13-.17-.13-.17-.12-.17-.12-.18-.11-.18-.1-.18-.1-.19-.09-.19-.08-.19-.08-.19-.06-.19-.06-.2-.05-.19-.03-.2-.03-.2-.02H22.82l-.02-.4h.23l.22.01.22.02.22.03.22.04.21.05.21.06.21.07.21.08.2.09.2.09.19.11.2.11.19.11.18.13.18.13.18.13.17.14.17.15.16.15.16.15.16.15.15.16.14.16.14.17.14.16.13.16.12.17.12.17.11.16.11.17.1.17-.16.3zm.16-.3l.17.28-.33.02.16-.3zm-4.47.13l4.29-.23.02.4-4.29.22-.2-.14.18-.25zm.02.39l-.15.01-.05-.15.2.14zm-.9-4.02l1.09 3.77-.39.11-1.08-3.77.18-.26.2.15zm-.38.11l-.07-.24.25-.02-.18.26zm36.02 1.01l.02.39-.21-.19v-.37l.01-.17.02-.18.03-.17.03-.17.04-.17.05-.16.05-.16.06-.16.07-.15.08-.14.08-.15.09-.14.1-.14.1-.13.11-.13.11-.13.12-.12.13-.12.14-.11.14-.12.14-.1.15-.11.16-.1.16-.1.17-.09.18-.1.18-.09.18-.08.19-.08.2-.08.14.37-.19.07-.18.08-.17.08-.17.09-.17.08-.16.09-.15.1-.15.09-.14.1-.13.1-.13.1-.12.11-.12.11-.11.11-.1.11-.1.12-.09.12-.09.12-.08.13-.07.12-.07.14-.06.13-.06.14-.04.14-.05.14-.03.15-.03.15-.03.16-.01.16-.01.16-.01.17.01.17-.21-.19zm.02.39l-.2.02-.01-.21.21.19zm4.32-.28l-4.32.28-.02-.39 4.32-.29.2.14-.18.26zm.18-.26l.07.24-.25.02.18-.26zm-1.18-3.75l1.18 3.75-.38.12-1.18-3.75.12-.24.26.12zm-.26-.12l.2-.08.06.2-.26-.12z" class="fil1"/></g><g><path d="M40.99 40.62c-.07-.09-.04-.21.05-.28.09-.06.21-.04.27.05l-.32.23zm6.42 9.2l-6.42-9.2.32-.23 6.43 9.2-.14.32-.19-.09zm.33-.23l.19.28-.33.04.14-.32zM31.6 51.25l15.95-1.74.05.4-15.96 1.74-.21-.25.17-.15zm.04.4l-.28.03.07-.28.21.25zm2.61-9.64l-2.43 9.49-.39-.1 2.43-9.48.39.09zm-.39-.09c.03-.11.14-.17.24-.15.11.03.17.14.15.24l-.39-.09z" class="fil1"/></g><path d="M84.14 54.91c.55-.07 1.06-.05 1.54.05.49.1.93.27 1.31.54.38.26.71.61.98 1.03.27.43.47.93.59 1.51.1.53.13 1.03.06 1.49-.06.47-.21.89-.45 1.27-.24.37-.57.7-.99.96-.42.27-.93.46-1.53.59l.49 2.44c.02.08.01.13-.02.16-.02.03-.08.05-.16.06l-.77.12c-.07.01-.13 0-.17-.01-.04-.02-.07-.07-.08-.15l-.5-2.43c-.6.05-1.15.01-1.65-.12-.5-.12-.93-.33-1.3-.61-.37-.29-.68-.64-.92-1.06-.24-.42-.42-.9-.53-1.43-.11-.58-.13-1.11-.04-1.59s.27-.9.53-1.26.6-.65 1.01-.89c.41-.23.88-.39 1.4-.49l-.51-2.54c-.02-.09-.02-.15.02-.18.03-.03.08-.05.15-.06l.77-.12c.08-.01.14-.01.18.01.03.02.06.07.08.17l.51 2.54zm3.26 3.33c-.16-.8-.5-1.41-1.01-1.82-.52-.42-1.2-.59-2.04-.51l1.1 5.47c.45-.11.81-.27 1.1-.48.28-.21.49-.45.64-.73.15-.28.24-.58.27-.91.03-.33.01-.67-.06-1.02zm-6.2.93c.07.35.19.68.35.98.17.3.38.56.64.78.26.22.56.39.9.5.34.11.73.16 1.16.13l-1.11-5.47c-.82.17-1.39.53-1.71 1.07-.31.55-.39 1.22-.23 2.01z" class="fil7"/><path id="1" d="M96.25 56.85c.25 1.23.16 2.21-.27 2.94-.43.74-1.17 1.18-2.23 1.34-1.04.16-1.89-.04-2.56-.59-.67-.55-1.14-1.44-1.39-2.68-.12-.6-.15-1.15-.08-1.64.07-.49.21-.92.44-1.29.23-.36.52-.65.88-.88.36-.22.77-.37 1.24-.44 1.05-.16 1.91.05 2.59.63.68.57 1.14 1.44 1.38 2.61zm-1.2.22c-.07-.36-.17-.7-.29-1.02-.13-.33-.29-.61-.49-.84-.19-.23-.44-.4-.73-.52-.29-.11-.63-.14-1.04-.08-.35.05-.64.17-.87.36-.23.18-.4.41-.52.68-.11.28-.18.58-.2.93-.01.34.02.69.09 1.06.08.41.19.78.33 1.12.13.33.3.61.51.83.2.22.45.38.73.47.28.1.61.12 1 .07.39-.06.7-.19.93-.39.23-.19.4-.43.5-.71.11-.28.16-.59.16-.93 0-.34-.04-.68-.11-1.03z" class="fil7"/><path id="2" d="M101.28 59.59c.02.1.01.17-.02.2-.03.04-.09.07-.18.08l-.68.1c-.09.02-.16.01-.2-.01-.05-.03-.08-.09-.1-.2l-1.19-5.92-2.15.33c-.1.01-.17 0-.21-.04-.04-.03-.07-.09-.09-.16l-.11-.55c-.01-.08-.01-.15.01-.2.03-.05.09-.08.19-.1l5.56-.84c.11-.01.19 0 .23.04.03.04.06.11.08.19l.11.54c.01.08.01.14-.01.18-.02.05-.09.08-.2.1l-2.24.33 1.2 5.93z" class="fil7"/><path id="3" d="M109.88 54.79c.25 1.23.16 2.21-.26 2.94-.43.74-1.17 1.19-2.23 1.35-1.04.15-1.9-.04-2.57-.59-.67-.55-1.13-1.45-1.38-2.68-.12-.61-.15-1.16-.08-1.65.06-.49.21-.92.43-1.28.23-.37.52-.66.89-.89.36-.22.77-.37 1.23-.44 1.05-.15 1.91.06 2.6.63.68.58 1.14 1.45 1.37 2.61zm-1.19.22c-.08-.35-.17-.69-.3-1.02-.12-.33-.28-.6-.48-.83-.2-.23-.44-.41-.73-.52-.29-.12-.64-.15-1.04-.09-.36.06-.65.18-.88.36-.22.19-.4.42-.51.69-.12.27-.19.58-.2.92-.02.34.01.7.09 1.06.08.42.19.79.32 1.12.13.34.3.61.51.83.21.22.45.38.73.48.28.1.62.12 1.01.06.38-.06.69-.19.93-.38.23-.2.39-.43.5-.72.1-.27.16-.58.15-.92 0-.34-.03-.69-.1-1.04z" class="fil7"/></g></svg>