<svg xmlns="http://www.w3.org/2000/svg" width="138" height="64" fill-rule="evenodd" clip-rule="evenodd" image-rendering="optimizeQuality" shape-rendering="geometricPrecision" text-rendering="geometricPrecision" viewBox="0 0 22.47 10.49"><defs><style>.fil3{fill:#f5b2b6}.fil2{fill:#f08bb2}.fil4{fill:#99cfba}.fil0{fill:#2b2a29;fill-rule:nonzero}</style></defs><g id="Слой_x0020_1"><path d="M1.87 1.15l.03-.05-.01.05-.12.03-.1.03-.09.02-.08.04-.08.03-.06.03-.05.04-.05.03-.04.04-.04.03-.03.04-.03.04-.02.04-.02.03-.02.04-.02.04-.03.04-.02.04-.02.04-.03.04-.03.03-.04.04-.04.03-.05.03-.06.04-.06.02-.08.03-.08.02-.09.03-.1.01-.12.02-.13.01v-.05l.13-.02.11-.01.1-.02.09-.02.08-.02L.64 2l.06-.02.05-.03.04-.03.04-.03.04-.04.02-.03.03-.03.02-.04.03-.04.02-.04.02-.03.02-.04.02-.04.03-.04.03-.04.03-.04.04-.04.04-.04.05-.04.06-.04.07-.03.07-.04.09-.03.09-.03.11-.03.12-.02-.01.05zm.03-.05l.07.03-.08.02.01-.05zm-1.49.24L.4 1.28h.04l.04-.01.03-.01.05-.01.04-.01.04-.01.05-.01.04-.01.05-.02.05-.01.05-.01.05-.01.05-.02.05-.01.06-.01.05-.01.05-.01.05-.02h.05l.06-.01.05-.01.05-.01H1.73l.05.01.04.01.04.01.04.02-.03.05-.03-.01-.04-.02h-.03l-.05-.01-.04-.01h-.13l-.05.01h-.1l-.05.01-.05.01-.05.01-.05.01-.05.01-.05.01-.05.01L1 1.2l-.06.01-.05.01-.05.01-.04.02-.05.01-.05.01-.04.01-.05.01-.04.01-.04.01-.04.01-.04.01-.04.01zM.19.7l.04.03-.01.01-.03.02-.02.01-.02.02-.02.02-.02.01L.1.84.09.87.08.89.07.91.06.93v.13l.01.02v.02l.01.03.01.02.02.02.01.02.02.02.02.01.02.02.02.01.02.01.03.01.03.01H.4l.01.06H.3l-.04-.01-.03-.01-.03-.01-.03-.01-.02-.02-.03-.02-.02-.02-.02-.02-.02-.02-.01-.03-.02-.02-.01-.03-.01-.03v-.02L0 1.04V.95L.01.92.02.89.03.87.04.84.05.81.07.79.09.77.11.74.14.73.17.71.2.69.19.7zm.04.03v.01H.22L.23.73zm1.63.4l.05-.01-.05.02-.04-.05-.05-.06-.05-.05-.05-.04-.06-.05-.06-.04-.06-.03-.06-.04-.06-.03-.06-.03L1.24.7 1.18.68 1.11.66 1.05.64.98.63.92.61H.86L.8.6.74.59H.62L.57.6H.52L.47.61.43.62.39.63.35.64.32.66.29.68.27.69.25.71.23.73.19.7.2.68.23.65.26.63.29.61.33.59.37.58.41.56.46.55h.05L.57.54H.8l.07.01.06.01.07.01.06.02.07.01.06.02.07.03.07.02.06.03.07.03.06.04.06.04.06.04.06.04.06.05.05.05.05.06.05.06-.05.02zm.05-.01l.01.09-.06-.07.05-.02zm.82-.66l-.06.02h.01L2.66.45 2.63.42 2.61.39 2.58.36 2.56.34 2.53.33 2.5.31 2.47.3 2.44.29h-.1L2.31.3l-.04.01-.03.01-.03.02-.03.02-.03.02-.03.03-.03.03-.03.04-.03.04-.02.04-.02.05-.02.05-.02.05-.01.06-.01.06-.01.07-.01.07V1.12l-.05.01-.01-.09.01-.07V.89l.01-.07.01-.06L1.9.7l.02-.06.02-.06.02-.05.03-.04.02-.05.03-.03.04-.04.03-.03.03-.03.04-.02.04-.02.03-.01.04-.02h.04l.04-.01h.04l.04.01.03.01.04.01.03.02.04.02.03.02.03.03.03.03.02.04.03.04zm0 0zm-.83.64l-.03.05.01-.05.05-.02.05-.01.05-.02.04-.01.05-.02.05-.01.04-.01.04-.02.04-.01.04-.01.04-.01.03-.02.03-.01.04-.01.02-.02.03-.01.03-.02.02-.01.02-.02.02-.02.02-.02.01-.02.02-.02.01-.02.01-.03V.68l.01-.03v-.1L2.68.52 2.67.48l.06-.02.01.05v.18l-.01.03-.01.03-.02.03-.01.02-.02.03-.02.02-.02.02-.03.02-.02.02-.03.01-.03.02-.03.02-.03.01-.04.01-.04.02-.03.01-.04.01-.04.02-.04.01-.05.01-.04.02-.05.01-.05.01-.05.02-.05.01-.05.02.01-.05zm-.03.05l-.06-.03.07-.02-.01.05zm18.73.45l.02-.05v.05l-.56.23-.57.21-.57.19-.59.18-.59.16-.6.14-.61.12-.61.11-.62.09-.62.08-.62.06-.62.04-.62.03-.63.01h-.62l-.62-.02-.62-.03-.62-.05-.61-.06-.61-.07-.6-.09-.6-.1-.58-.12-.59-.12-.57-.14-.56-.15-.55-.16-.54-.18-.53-.19-.51-.19-.5-.21-.49-.22.03-.05.48.22.5.21.51.19.53.19.54.17.55.16.56.16.57.13.58.13.58.11.6.1.6.09.6.08.62.06.61.04.62.03.62.02h.62l.62-.01.63-.03.62-.04.62-.06.62-.07.61-.09.61-.11.6-.12.6-.14.59-.16.59-.18.57-.19.57-.21.56-.23v.05zm.02-.05l.06.02-.06.03v-.05zM20.35.1l-.03.05-.08-.04-.07-.02-.08-.02-.07-.01h-.13l-.06.01-.06.01-.05.03-.05.02-.04.04-.04.03-.03.04-.03.05-.01.05-.02.05v.12l.01.06.02.07.03.07.04.07.05.07.06.08.07.07.08.08.1.08.1.08.12.08.13.07.15.08.16.08-.02.05-.16-.08-.15-.08-.14-.08-.12-.08-.11-.08-.1-.08-.08-.08-.07-.08-.07-.08-.05-.07-.04-.08-.03-.07-.02-.08-.01-.07-.01-.06.01-.07.01-.06.02-.05.03-.06.04-.04.04-.05.05-.03.05-.03.06-.03.07-.02.06-.01H20.03l.07.01.08.02.08.03.09.04zm0 0zm.26 1.37l.04.04-.05-.02.01-.05v-.11l.01-.06v-.05l.01-.05v-.05l.01-.05v-.05l.01-.05V.69l-.01-.04V.61l-.01-.04-.01-.04-.01-.04-.01-.04-.02-.03-.01-.04-.02-.03-.03-.03-.02-.04-.03-.03-.03-.02L20.4.2l-.04-.03-.04-.02.03-.05.04.02.04.03.04.03.04.03.03.04.03.03.02.04.02.03.02.04.02.04.01.04.02.04.01.05V.6l.01.04v.05l.01.04v.14l-.01.05v.1l-.01.05v.05l-.01.05v.06l-.01.05v.11l-.01.05v.05l-.05-.02zm.04.04l-.05.06v-.08l.05.02zM22.4.73l-.05.02-.01-.03-.02-.03-.02-.02-.02-.02-.02-.02-.03-.01-.04-.01-.03-.01h-.13l-.05.01-.05.01-.05.01-.06.02-.06.02-.06.03-.06.03-.06.03-.07.04-.06.04-.07.04-.07.05-.07.05-.07.05-.08.06-.07.06-.07.07-.08.06-.07.08-.07.07-.08.08-.04-.04.08-.08.07-.07.08-.08.07-.07.08-.06.07-.06.07-.06.08-.06.07-.05.07-.05.07-.04.07-.04.06-.04.07-.03.06-.03.06-.03.06-.02.06-.02.06-.01.05-.02h.05l.05-.01h.05l.05.01.04.01.04.01.03.01.03.03.03.02.03.03.02.03.01.04zm-1.78.82l-.02.05-.02-.04.03-.02h.02l.03-.01h.04l.04-.01h.06l.06-.01h.06L21 1.5l.07-.01.09-.01.08-.01.09-.02.08-.01.09-.02.09-.02.09-.02.08-.02.09-.03.08-.02.07-.04.07-.03.07-.03.06-.04.05-.04.04-.05.04-.04.02-.05.02-.06V.82l-.02-.07.05-.02.02.08.01.07-.01.06-.02.07-.03.05-.04.06-.05.05-.05.04-.06.04-.07.04-.08.04-.07.03-.09.03-.08.02-.09.03-.09.02-.09.02-.09.01-.09.02-.08.01-.09.01-.08.01-.08.01-.07.01-.07.01h-.06l-.05.01h-.05l-.03.01h-.05l.02-.01-.02-.03zm-.02.05l-.02-.01v-.03l.02.04zm1.87 1.62l-.03.05-.14-.07-.13-.06-.11-.06-.1-.06-.09-.06-.07-.05-.06-.06-.05-.05-.05-.05-.03-.05-.03-.05-.02-.05-.02-.05-.01-.04-.02-.05-.01-.05-.01-.04-.01-.04-.01-.05-.02-.04-.02-.05-.02-.04-.03-.05-.04-.05-.05-.05-.06-.05-.07-.05-.08-.06-.1-.05-.11-.06-.13-.07-.14-.06.02-.05.15.06.12.07.12.06.1.06.08.05.07.06.07.05.05.06.04.05.04.05.02.05.03.05.01.04.02.05.01.05.01.04.01.05.01.04.01.04.02.05.02.04.02.05.04.05.04.04.05.05.05.05.07.06.09.05.09.06.11.06.13.06.15.07z" class="fil0"/><path fill="#6fa691" d="M9.69 2.77l1.66 5.88 1.69-5.74c-1.11.21-2.22.16-3.35-.14z"/><path id="1" d="M11.33 8.66L9.66 2.78l.05-.01 1.67 5.88v.01h-.05zm.05 0l-.03.09-.02-.09h.05zm1.69-5.74l-1.69 5.74-.05-.01 1.68-5.74.03-.02.03.03zm-.03-.03l.04-.01-.01.04-.03-.03zm-3.33-.12l-.05.01.03-.03.11.02.11.03.1.02.11.03.1.02.11.02.1.01.11.02.1.02.11.01.1.01.11.01.1.01.1.01.11.01h.1l.11.01H11.89L12 3h.1l.11-.01.1-.01h.1l.11-.02.1-.01.11-.01.1-.02.1-.01.11-.02.01.05-.11.02-.1.02-.11.01-.1.02-.11.01-.1.01-.1.01-.11.01h-.1l-.11.01h-.1l-.11.01H11.58l-.1-.01h-.11l-.1-.01h-.11l-.1-.01-.11-.01-.11-.01-.1-.01-.11-.02-.1-.01-.11-.02-.1-.02-.11-.02-.11-.02-.1-.02-.11-.03-.1-.02-.11-.03.03-.03zm-.05.01l-.01-.05.04.02-.03.03z" class="fil0"/><path d="M6.15 2.1l.9 7.83 2.28-7.35c-1.11.18-2.11-.03-3.18-.48z" class="fil2"/><path id="1" d="M7.02 9.93l-.9-7.83.05-.01.91 7.84v.01l-.06-.01zm.06.01l-.04.12-.02-.13.06.01zm2.28-7.35L7.08 9.94l-.06-.02L9.3 2.57l.03-.01.03.03zm-.03-.03l.04-.01-.01.04-.03-.03zm-3.16-.47l-.05.01.04-.03.1.04.1.04.1.04.09.04.1.04.1.03.1.03.1.03.09.03.1.03.1.03.1.02.09.02.1.02.1.02.1.02.09.01.1.02.1.01.1.01.1.01h.1l.1.01h.19l.1-.01h.11l.1-.01.1-.01.1-.01.1-.01.11-.01.01.05-.11.02-.1.01-.11.01-.1.01-.1.01h-.51l-.1-.01-.1-.01-.1-.01-.09-.01-.1-.01-.1-.02-.1-.01-.1-.02-.1-.02-.1-.03-.09-.02-.1-.03-.1-.02-.1-.03-.1-.03-.1-.04-.1-.03-.1-.04-.09-.04-.1-.03-.11-.04-.1-.05.04-.03zm-.05.01l-.01-.05.05.02-.04.03z" class="fil0"/><path d="M13.32 2.82l2.26 7.53.87-7.76c-1.08.34-1.98.39-3.13.23z" class="fil2"/><path id="1" d="M15.56 10.36l-2.27-7.53.06-.02 2.26 7.53v.02h-.05zm.05 0l-.01.13-.04-.13h.05zm.86-7.76l-.86 7.76-.06-.01.87-7.76.02-.02.03.03zm-.03-.03l.04-.01-.01.04-.03-.03zm-3.09.24l-.06.02.03-.04.11.02.11.01.1.01.1.01.11.01.1.01.1.01h.1l.09.01h.39l.09-.01h.1l.09-.01H15l.1-.01.09-.01.1-.01.09-.02.09-.01.1-.02.09-.01.1-.02.09-.02.1-.03.09-.02.1-.03.1-.02.1-.03.1-.03.01.05-.1.03-.1.03-.09.03-.1.02-.1.03-.1.02-.09.02-.1.02-.09.02-.1.01-.09.02-.1.01-.09.01-.1.01-.09.01-.1.01-.09.01H14.14l-.1-.01-.1-.01h-.1l-.1-.01-.1-.01-.11-.02-.11-.01-.1-.01.03-.04zm-.06.02l-.01-.04h.04l-.03.04z" class="fil0"/><path d="M16.7 2.44l3.16 4.75.03-5.54c-1.02.48-1.97.67-3.19.79z" class="fil3"/><path id="1" d="M19.84 7.2l-3.16-4.75.05-.03 3.15 4.75.01.02-.05.01zm.05-.01v.09l-.05-.08.05-.01zm.02-5.54l-.02 5.54h-.06l.03-5.54.01-.03.04.03zm-.04-.03l.04-.02v.05l-.04-.03zm-3.14.8l-.05.03.02-.04.11-.01.12-.02.11-.01.1-.01.11-.01.11-.02.1-.01.11-.02.1-.01.1-.02.1-.02.1-.02.1-.01.1-.02.1-.03.09-.02.1-.02.09-.03.1-.02.1-.03.09-.03.09-.02.1-.04.09-.03.1-.03.09-.04.09-.03.1-.04.09-.04.09-.04.1-.04.09-.05.03.05-.1.05-.09.04-.1.04-.09.04-.1.04-.09.04-.1.03-.09.03-.09.04-.1.03-.09.03-.1.03-.1.02-.09.03-.1.02-.09.03-.1.02-.1.02-.1.02-.1.02-.1.02-.1.02-.1.01-.11.02-.1.01-.11.02-.1.01-.11.01-.11.02-.11.01-.11.01-.11.01.02-.04zm-.05.03l-.02-.04h.04l-.02.04z" class="fil0"/><path d="M2.87.83L1.82 7.02 5.94 2.2C4.83 1.98 3.81 1.52 2.87.83z" class="fil4"/><path id="1" d="M1.79 7.02L2.84.83l.06.01-1.06 6.19v.01l-.05-.02zm.05.02l-.07.08.02-.1.05.02zm4.12-4.83L1.84 7.04l-.04-.03 4.12-4.83.02-.01.02.04zm-.02-.04l.05.01-.03.03-.02-.04zM2.9.84L2.84.83l.05-.02.09.07.08.06.09.06.09.06.09.06.09.05.09.06.1.05.09.06.09.05.09.05.1.05.09.04.1.05.09.04.09.05.1.04.1.04.09.04.1.04.1.03.1.04.09.03.1.03.1.03.1.03.1.03.11.03.1.02.1.03.1.02.1.02-.01.05-.1-.02-.1-.02-.11-.02-.1-.03-.1-.03-.1-.02-.1-.03-.1-.03-.1-.04-.1-.03-.1-.04-.1-.03-.1-.04-.09-.04-.1-.04-.1-.04-.09-.05-.1-.04-.09-.05-.1-.04-.09-.05-.1-.05-.09-.06-.09-.05-.09-.05-.1-.06-.09-.06-.09-.06-.09-.06-.09-.06-.09-.06-.08-.06.04-.02zM2.84.83l.01-.04.04.02-.05.02z" class="fil0"/><g><path d="M4.01 2.51c.23 0 .42.18.42.42 0 .23-.19.42-.42.42-.23 0-.42-.19-.42-.42 0-.24.19-.42.42-.42zm-1.45.15l-.13.79c.05.03.12.05.19.05.24 0 .42-.19.42-.42 0-.23-.18-.42-.42-.42h-.06zm-.05 3.55l.55-.64c-.07-.06-.17-.1-.27-.1-.24 0-.43.19-.43.42 0 .13.06.24.15.32zm1.36-1.59l.54-.63c-.08-.1-.2-.16-.33-.16-.23 0-.42.19-.42.42 0 .16.08.29.21.37zm1.02-1.2l.53-.62c-.05-.02-.11-.03-.17-.03-.24 0-.42.18-.42.42 0 .08.02.16.06.23zm.71-1.3c-.27-.06-.54-.15-.8-.24-.02.04-.02.08-.02.13 0 .23.18.42.42.42.19 0 .35-.13.4-.31zM2.93 3.95c.23 0 .42.19.42.42 0 .23-.19.42-.42.42-.23 0-.42-.19-.42-.42 0-.23.19-.42.42-.42zm.41-2.64c.23 0 .42.19.42.42 0 .23-.19.42-.42.42-.23 0-.42-.19-.42-.42 0-.23.19-.42.42-.42z" class="fil3"/><path id="1" d="M4.46 2.93H4.4v-.08l-.01-.02v-.02l-.01-.02-.01-.02-.01-.01v-.02l-.01-.02-.01-.01-.01-.02-.02-.01-.01-.02-.01-.01-.02-.01-.01-.02-.01-.01-.02-.01-.02-.01-.01-.01-.02-.01-.02-.01h-.01l-.02-.01h-.02l-.02-.01h-.02l-.02-.01h-.04v-.05h.07l.02.01h.02l.02.01h.02l.03.01.01.01.02.01.02.01.02.01.02.02.02.01.01.01.02.02.01.01.02.02.01.02.01.02.01.01.02.02.01.02v.02l.01.02.01.02.01.02v.05l.01.02v.05zm-.45.45v-.06h.06l.02-.01h.02l.02-.01h.02l.01-.01.02-.01.02-.01.01-.01.02-.01.02-.01.01-.01.01-.01.02-.02.01-.01.01-.01.02-.02.01-.01.01-.02.01-.02V3.1l.01-.02.01-.02.01-.02v-.02l.01-.01v-.08h.06v.04l-.01.02v.05l-.01.02-.01.02-.01.02v.02l-.01.02-.02.02-.01.02-.01.02-.01.01-.02.02-.01.01-.02.02-.01.01-.02.02-.02.01-.02.01-.02.01-.02.01-.01.01-.03.01-.02.01h-.02l-.02.01h-.07l-.02.01zm-.45-.45h.06v.08l.01.01v.02l.01.02.01.02.01.02v.01l.01.02.01.02.01.01.02.02.01.01.01.01.02.02.01.01.01.01.02.01.02.01.01.01.02.01.02.01.02.01h.01l.02.01h.02l.02.01h.06v.06l-.02-.01h-.07l-.02-.01h-.02l-.02-.01-.02-.01-.02-.01-.02-.01-.02-.01-.02-.01-.02-.01-.02-.02-.01-.01-.02-.02-.01-.01-.02-.02-.01-.01-.01-.02-.01-.02-.01-.02-.01-.02-.01-.02-.01-.02-.01-.02v-.02l-.01-.02v-.03l-.01-.02v-.04zm.45-.45v.05h-.04l-.02.01h-.02l-.02.01h-.02l-.01.01h-.02l-.02.01-.02.01-.01.01-.02.01-.02.01-.01.01-.01.02-.02.01-.01.01-.01.02-.02.01-.01.02-.01.01-.01.02v.02l-.01.01-.01.02-.01.02v.02l-.01.02v.08h-.06v-.05l.01-.02v-.02l.01-.03v-.02l.01-.02.01-.02.01-.02.01-.02.01-.02.01-.01.01-.02.01-.02.02-.02.01-.01.02-.02.01-.01.02-.01.02-.02.02-.01.02-.01.02-.01.02-.01.02-.01h.02l.02-.01h.02l.02-.01h.07zm-1.61.97l.13-.79.06.01-.14.79-.04.01-.01-.02zm.01.02H2.4v-.02l.01.02zm.21 0v.06h-.04l-.01-.01h-.05l-.01-.01h-.02l-.01-.01h-.02v-.01h-.02l-.01-.01h-.01l-.01-.01.03-.04h.01l.01.01h.02v.01h.03l.01.01h.03l.01.01H2.62zm.4-.39h.05v.07l-.01.02v.02l-.01.02-.01.02v.02l-.01.02-.01.02-.01.02-.01.02-.02.02-.01.01-.01.02-.02.02-.01.01-.02.01-.02.02-.02.01-.01.01-.02.01-.02.01-.02.01-.02.01-.02.01h-.02l-.03.01h-.04l-.02.01h-.03v-.06h.06l.02-.01h.02l.02-.01h.02l.02-.01.01-.01.02-.01.02-.01.01-.01.02-.01.01-.01.02-.01.01-.01.01-.02.02-.01.01-.02.01-.01.01-.02.01-.01.01-.02.01-.02v-.02L3 3.2v-.02l.01-.02v-.04l.01-.02v-.02zm-.4-.4v-.05h.07l.02.01h.03l.02.01.02.01h.02l.02.01.02.01.02.01.01.02.02.01.02.01.02.02.01.01.02.02.01.01.01.02.02.02.01.02.01.01.01.02.01.02v.02l.01.02.01.03v.02l.01.02v.07h-.05v-.02l-.01-.02V3L3 2.98v-.02l-.01-.02v-.02l-.01-.01-.01-.02-.01-.02-.01-.01-.01-.02-.01-.01-.02-.02-.01-.01-.01-.01-.02-.02-.01-.01-.02-.01-.01-.01-.02-.01-.02-.01h-.01l-.02-.01-.02-.01h-.02l-.02-.01h-.06l-.02-.01zm-.03-.01l-.06-.01.03-.03H2.62v.05H2.6v.01h-.04l.03-.02zm-.06-.01l.01-.02.02-.01-.03.03zm.55 2.93l-.55.64-.04-.04.55-.64h.04v.04zm0-.04l.02.02-.02.02v-.04zm-.29-.05v-.06H2.85l.01.01h.04l.01.01h.02v.01h.02l.01.01h.02l.01.01H3l.01.01.01.01h.01l.01.01h.01l.01.01v.01h.01l.01.01-.04.04v-.01h-.01l-.01-.01h-.01v-.01H3l-.01-.01h-.01l-.01-.01h-.01v-.01h-.02l-.01-.01h-.01l-.01-.01h-.04V5.5h-.08zm-.4.39h-.05v-.07l.01-.02v-.02l.01-.02v-.03l.01-.02.01-.02.01-.02.01-.01.01-.02.02-.02.01-.02.01-.01.02-.02.01-.01.02-.02.02-.01.01-.01.02-.01.02-.02.02-.01h.02l.02-.01.02-.01.02-.01h.05l.02-.01h.05v.06h-.08l-.02.01h-.02l-.02.01-.02.01h-.01l-.02.01-.02.01-.01.01-.02.01-.01.02-.02.01-.01.01-.02.01-.01.02-.01.01-.01.02-.01.02-.01.01-.01.02-.01.02v.01l-.01.02-.01.02v.04l-.01.02v.04zm.1.3l.04.04h-.04v-.01l-.01-.01h-.01l-.01-.01-.01-.01-.01-.01v-.01l-.01-.01-.01-.01v-.01l-.01-.01-.01-.01v-.01l-.01-.01-.01-.01v-.01l-.01-.01v-.02l-.01-.01v-.02l-.01-.01v-.03l-.01-.02v-.07h.05v.03l.01.01V5.99l.01.01v.02l.01.01v.01l.01.01v.02l.01.01.01.01.01.01v.01l.01.01v.01l.01.01h.01v.01l.01.01.01.01.01.01.01.01h-.04zm.04.04l-.01.02-.03-.02h.04zm1.9-2.22l-.54.62-.04-.03.54-.63h.04v.04zm0-.04l.02.02-.02.02v-.04zm-.35-.11V3.8h.05l.02.01h.03l.02.01h.02l.01.01h.01l.02.01h.01l.01.01h.01l.01.01h.01l.01.01.01.01.01.01h.01l.01.01.01.01.01.01h.01l.01.01.01.01.01.01v.01l.01.01-.04.03h-.01l-.01-.01v-.01l-.01-.01-.01-.01h-.01v-.01l-.01-.01h-.01l-.01-.01-.01-.01h-.01l-.01-.01h-.01l-.01-.01h-.01l-.01-.01h-.01l-.01-.01H4.2l-.01-.01h-.02l-.01-.01h-.08zm-.39.39h-.06V4.2l.01-.02v-.04l.01-.02.01-.02.01-.03v-.01l.01-.02.02-.02.01-.02.01-.02.01-.02.02-.01.01-.02.02-.01.01-.02.02-.01.02-.01.02-.01.02-.02.02-.01h.01l.03-.01.02-.01.02-.01h.04l.02-.01h.05v.06H4l-.02.01h-.02l-.02.01-.01.01h-.02l-.02.01-.01.01-.02.01-.02.01-.01.02-.01.01-.02.01-.01.02-.01.01-.02.01-.01.02-.01.02-.01.01-.01.02v.02l-.01.01-.01.02v.02l-.01.02v.08zm.16.35l.04.03-.03.01-.01-.01h-.02l-.01-.01-.01-.01-.01-.01-.01-.01-.01-.01-.01-.01-.01-.01-.01-.01-.01-.01-.01-.01-.01-.01-.01-.02-.01-.01-.01-.01v-.01l-.01-.02-.01-.01v-.01l-.01-.02V4.4l-.01-.01v-.02l-.01-.01v-.03l-.01-.02v-.06h.06v.08l.01.01v.03l.01.01v.01l.01.01v.02l.01.01.01.01v.01l.01.01.01.01v.01l.01.01.01.01.01.01.01.01v.01l.01.01.01.01.01.01h.01l.01.01.01.01.02.01h.01l-.04.01zm.04.03l-.01.02-.02-.01.03-.01zm1.55-1.81l-.52.62-.05-.04.53-.61.03-.01.01.04zm-.01-.04l.04.01-.03.03-.01-.04zm-.18.01v-.05h.07v.01h.05v.01h.02l.01.01h.02l.01.01-.02.05H5.4v-.01h-.02l-.01-.01h-.03V2.8H5.28l-.01-.01h-.02zm-.4.4H4.8v-.07l.01-.02v-.02l.01-.03v-.02l.01-.02.01-.02.01-.02.01-.02.01-.01.02-.02.01-.02.01-.01.02-.02.01-.01.02-.02.02-.01.02-.01.01-.02.02-.01.02-.01.02-.01h.02l.02-.01.02-.01h.03l.02-.01h.07v.05h-.02l-.02.01h-.04l-.02.01h-.02l-.02.01-.02.01h-.01l-.02.01-.02.01-.01.01-.02.01-.01.01-.02.02-.01.01-.01.01-.02.02-.01.01-.01.02-.01.01L4.9 3l-.01.02-.01.01v.02l-.01.02v.02l-.01.02v.02l-.01.02v.04zm.02.21l.05.04-.05-.01-.01-.01v-.01h-.01v-.02h-.01v-.02l-.01-.01v-.01l-.01-.01v-.02l-.01-.01v-.04l-.01-.01v-.07h.05v.03l.01.01v.05l.01.01v.03h.01v.02l.01.01v.01l.01.01v.01l.01.01v.01h.01-.05zm.05.04l-.03.03-.02-.04.05.01zm-.1-1.55l-.05-.02.04-.02.02.01.03.01.02.01.03.01h.02l.03.01.02.01.03.01.02.01.02.01.03.01h.02l.03.01.02.01.03.01h.02l.03.01.03.01.02.01h.03l.02.01.03.01.02.01h.03l.02.01.03.01h.02l.03.01.02.01h.03l.02.01.03.01-.01.05-.03-.01h-.02l-.03-.01-.03-.01h-.02l-.03-.01-.02-.01h-.03l-.02-.01-.03-.01h-.02l-.03-.01-.03-.01-.02-.01h-.03l-.02-.01-.03-.01-.02-.01-.03-.01h-.02L5.06 2l-.02-.01-.03-.01-.02-.01-.03-.01h-.02l-.03-.01-.02-.01-.03-.01-.02-.01-.03-.01-.02-.01.03-.01zm-.05-.02l.01-.03.03.01-.04.02zm.03.14h-.05v-.08h.01v-.04h.01v-.02l.05.02v.03h-.01V1.98H4.8v.03zm.4.39v.06h-.07l-.02-.01h-.02l-.03-.01-.02-.01h-.02L5 2.42l-.02-.01-.02-.01-.01-.02-.02-.01-.02-.01-.01-.02-.02-.01-.02-.02-.01-.01-.01-.02-.02-.02-.01-.02-.01-.01-.01-.02-.01-.02v-.02l-.01-.03-.01-.02V2.1l-.01-.02v-.07h.05v.02l.01.02v.04l.01.02v.02l.01.02v.01l.01.02.01.02.01.02.01.01.01.02.01.01.02.02.01.01.01.01.02.01.01.02.02.01.01.01.02.01.02.01h.01l.02.01.02.01h.02l.02.01h.08zm.4-.25l.01-.05.02.03v.02l-.01.02-.01.01v.02l-.01.02-.01.01-.01.02-.01.01-.01.02-.01.01-.01.01-.01.02-.02.01-.01.01-.01.02-.02.01-.01.01-.02.01-.01.01-.02.01H5.4l-.02.01-.02.01-.02.01h-.01l-.02.01h-.04l-.02.01H5.2V2.4h.08l.02-.01h.01l.02-.01h.01l.02-.01.01-.01h.01l.02-.01.01-.01.02-.01.01-.01.01-.01.01-.01.01-.01.01-.01.02-.01.01-.01v-.02l.01-.01.01-.01.01-.02.01-.01v-.01l.01-.02.01-.01v-.02l.01-.01.02.03zm.01-.05h.03l-.01.03-.02-.03zM3.38 4.37h-.06v-.08l-.01-.02v-.02l-.01-.01-.01-.02V4.2l-.01-.02-.01-.01-.01-.02-.01-.01-.02-.02-.01-.01-.01-.02-.01-.01-.02-.01-.01-.01-.02-.01-.02-.02h-.01l-.02-.01-.02-.01L3.07 4h-.02l-.02-.01h-.02l-.02-.01h-.06v-.06h.05l.02.01h.02l.02.01h.02l.03.01.02.01.02.01.01.01.02.01.02.01.02.01.02.02.01.01.02.01.01.02.02.02.01.01.01.02.01.02.02.02.01.02v.02l.01.02.01.02.01.02v.04l.01.03v.04zm-.45.45v-.05l.02-.01h.06l.02-.01h.02l.02-.01.01-.01h.02l.02-.01.01-.01.02-.01.02-.01.01-.01.02-.02.01-.01.01-.01.01-.02.02-.01.01-.02.01-.01.01-.02.01-.02v-.02l.01-.01.01-.02v-.02l.01-.02v-.08h.06v.05l-.01.02v.04l-.01.03-.01.02-.01.02v.02l-.01.02-.02.01-.01.02-.01.02-.01.02-.02.01-.01.02-.02.01-.01.02-.02.01-.02.01-.02.02-.02.01-.01.01-.02.01h-.02l-.03.01-.02.01h-.02L3 4.82h-.07zm-.45-.45h.06v.06l.01.02v.04l.01.02.01.01.01.02v.02l.01.02.01.01.02.02.01.01.01.02.01.01.02.01.01.02.02.01.01.01.02.01.01.01.02.01h.02l.02.01.01.01h.02l.02.01h.06l.02.01v.05h-.07l-.02-.01h-.02L2.8 4.8l-.02-.01h-.02l-.02-.01-.02-.01-.02-.01-.02-.02-.02-.01-.02-.01-.01-.02-.02-.01-.01-.02-.02-.01-.01-.02-.01-.02-.01-.02-.01-.01-.01-.02-.01-.02-.01-.02-.01-.02v-.03l-.01-.02v-.02l-.01-.02v-.05zm.45-.45v.06h-.06l-.02.01h-.02L2.81 4H2.8l-.02.01-.02.01-.02.01h-.01l-.02.02-.01.01-.02.01-.01.01-.02.01-.01.02-.01.01-.01.02-.02.01-.01.02-.01.01v.02l-.01.02-.01.02-.01.01v.04l-.01.02v.06h-.06v-.04l.01-.03v-.02l.01-.02v-.02l.01-.02.01-.02.01-.02.01-.02.01-.02.01-.02.01-.02.01-.01.02-.02.01-.02.02-.01.01-.01.02-.02.02-.01.02-.01.02-.01.02-.01.02-.01.02-.01.02-.01h.02l.02-.01h.02l.02-.01h.05zm.86-2.19h-.06v-.08l-.01-.02v-.02l-.01-.01-.01-.02-.01-.02v-.02l-.01-.01-.01-.02-.02-.01-.01-.02-.01-.01-.01-.02-.02-.01-.01-.01-.02-.01-.01-.01-.02-.01-.01-.01-.02-.01-.02-.01-.02-.01h-.01l-.02-.01h-.02l-.02-.01h-.06v-.06h.02l.03.01h.04l.02.01h.02l.02.01.02.01.02.01.02.01.02.01.02.01.02.01.02.02.01.01.02.01.01.02.02.02.01.01.01.02.01.02.01.02.01.02.01.02.01.02.01.02v.02l.01.02v.02l.01.03v.04zm-.45.45v-.05h.02l.02-.01h.04l.02-.01h.02l.01-.01.02-.01h.02l.02-.01.01-.01.02-.01.01-.01.02-.01.01-.02.02-.01.01-.01.01-.02.01-.01.02-.02.01-.01.01-.02V1.9l.01-.01.01-.02.01-.02v-.02l.01-.02v-.08h.06v.05l-.01.02v.02l-.01.02v.03l-.01.02-.01.02-.01.02-.01.02-.01.01-.01.02L3.7 2l-.01.02-.02.01-.01.02-.02.01-.01.02-.02.01-.02.01-.02.02-.02.01-.02.01-.02.01h-.02l-.02.01-.02.01h-.02l-.02.01h-.07zm-.45-.45h.06v.08l.01.02v.02l.01.02.01.02v.01l.01.02.01.02.01.01.01.02.02.01.01.02.01.01.01.01.02.02.01.01.02.01.02.01.01.01.02.01h.02l.01.01.02.01h.02l.02.01h.04l.02.01h.02v.05h-.07l-.02-.01h-.02l-.02-.01-.02-.01h-.03l-.02-.01-.01-.01-.02-.01-.02-.02-.02-.01-.02-.01-.01-.02-.02-.01-.01-.02-.02-.01L2.98 2l-.01-.02-.01-.02-.02-.01-.01-.02v-.02l-.01-.02-.01-.02-.01-.03V1.8l-.01-.02v-.05zm.45-.45v.06h-.06l-.02.01h-.02l-.02.01H3.2l-.01.01-.02.01-.02.01-.01.01-.02.01-.02.01-.01.01-.02.01-.01.01-.01.02-.01.01-.02.02-.01.01-.01.02-.01.01-.01.02v.02l-.01.02-.01.01v.02l-.01.02v.08h-.06v-.04l.01-.03v-.04l.01-.02.01-.02.01-.02v-.02l.01-.02.02-.02.01-.02.01-.02.01-.01.02-.02.01-.02.02-.01.01-.01.02-.02.02-.01.02-.01.02-.01.01-.01.02-.01.03-.01.02-.01h.02l.02-.01h.04l.03-.01h.02z" class="fil0"/></g><g><path d="M15.95 2.73v4.35l-.3 2.65V2.8c.1-.02.2-.04.3-.07zm-2.11 1.83l.3.98V2.9c-.1-.01-.2-.01-.3-.02v1.68zm.96 3.18l.29.99V2.88c-.09.01-.19.01-.29.02v4.84z" class="fil4"/><path id="1" d="M15.92 7.08V2.73h.05v4.35h-.05zm.05 0zm-.35 2.65l.3-2.66.05.01-.29 2.66-.06-.01zm.06.01l-.06.49v-.5l.06.01zm0-6.94v6.93h-.06V2.8l.03-.03.03.03zm-.06 0v-.03h.03l-.03.03zm.35-.07h-.05l.03.03h-.02v.01h-.04l-.01.01h-.04l-.01.01h-.03l-.01.01h-.04l-.01.01h-.04l-.01.01h-.03l-.01-.05h.01v-.01h.05l.01-.01h.04v-.01h.04l.01-.01h.04l.01-.01h.03l.01-.01h.03l.01-.01.03.03zm-.03-.03h.03v.03l-.03-.03zm-1.83 2.85l-.29-.99.05-.01.29.98.01.01-.06.01zm.06-.01v.19l-.06-.18.06-.01zm0-2.64v2.64h-.06V2.9l.03-.03.03.03zm-.03-.03h.03v.03l-.03-.03zm-.27.01h-.06l.03-.03h.05l.01.01H14.03l.01.01H14.14v.06h-.03l-.01-.01h-.15l-.01-.01H13.84l.03-.03zm-.06 0v-.03h.03l-.03.03zm0 1.68V2.88h.06v1.68H13.81zm.01 0h-.01.01zm1.25 4.17l-.3-.98.05-.02.3.99v.01h-.05zm.05 0v.18l-.05-.18h.05zm0-5.85v5.85h-.05V2.88l.02-.03.03.03zm-.03-.03h.03v.03l-.03-.03zm-.26.05h-.06l.03-.03H14.9l.01-.01H15.03l.01-.01h.05l.01.05-.01.01H14.99l-.01.01H14.84l-.01.01h-.03l.03-.03zm-.06 0v-.03h.03l-.03.03zm0 4.84V2.9h.06v4.84l-.06.01v-.01zm0 .01v-.01.01z" class="fil0"/></g><g><path d="M7.64 2.67c.1 0 .19.08.19.19s-.09.19-.19.19c-.11 0-.19-.08-.19-.19s.08-.19.19-.19zm-.19 5.98l.11-.37c-.02 0-.04-.01-.05-.01-.11 0-.2.09-.2.2 0 .08.06.15.14.18zm-.44-1.46c.1 0 .19.09.19.19 0 .11-.09.2-.19.2-.11 0-.2-.09-.2-.2 0-.1.09-.19.2-.19zm.38-1.2c.1 0 .19.09.19.19 0 .11-.09.19-.19.19-.11 0-.19-.08-.19-.19 0-.1.08-.19.19-.19zm.71-.85c.11 0 .19.08.19.19s-.08.19-.19.19c-.1 0-.19-.08-.19-.19s.09-.19.19-.19zm-1.18-.39c.1 0 .19.09.19.2 0 .1-.09.19-.19.19-.11 0-.19-.09-.19-.19 0-.11.08-.2.19-.2zm.8-.81c.1 0 .19.08.19.19 0 .1-.09.19-.19.19-.11 0-.19-.09-.19-.19 0-.11.08-.19.19-.19zm-.96-.77c.11 0 .19.09.19.19 0 .11-.08.19-.19.19-.1 0-.19-.08-.19-.19 0-.1.09-.19.19-.19zm1.85.05c.1 0 .19.09.19.19 0 .11-.09.2-.19.2-.11 0-.19-.09-.19-.2 0-.1.08-.19.19-.19z" class="fil3"/><path id="1" d="M7.86 2.86H7.8v-.04l-.01-.01V2.8l-.01-.01v-.01l-.01-.01v-.01h-.01v-.01l-.01-.01-.01-.01-.01-.01h-.01l-.01-.01h-.02V2.7h-.05v-.06h.03l.01.01h.03l.01.01h.01l.01.01h.01l.01.01h.01l.01.01v.01l.01.01h.01l.01.01v.01l.01.01v.01l.01.01v.01h.01v.01l.01.02v.03l.01.01v.02zm-.22.22v-.06h.05v-.01h.02L7.72 3h.01l.01-.01.01-.01.01-.01v-.01h.01v-.01h.01v-.02l.01-.01v-.01l.01-.01v-.04h.06v.02l-.01.01v.04l-.01.01v.01l-.01.01-.01.01v.01l-.01.01V3l-.01.01-.01.01h-.01v.01l-.01.01h-.01l-.01.01h-.01l-.01.01h-.01l-.01.01h-.02l-.01.01h-.04zm-.22-.22h.05v.02l.01.01v.03h.01v.02l.01.01.01.01.01.01v.01h.01v.01h.01l.01.01h.01l.01.01h.01l.01.01h.05v.06h-.05l-.01-.01h-.02l-.01-.01h-.01l-.01-.01h-.01l-.01-.01-.01-.01-.01-.01h-.01l-.01-.01V3l-.01-.01v-.01l-.01-.01-.01-.01v-.01l-.01-.01v-.01l-.01-.01V2.86zm.22-.22v.06h-.05l-.01.01h-.01l-.01.01h-.01l-.01.01h-.01v.01h-.01v.01l-.01.01-.01.01v.01h-.01v.02h-.01v.04h-.01v.02h-.05v-.05l.01-.01v-.02l.01-.01v-.01l.01-.01.01-.01v-.01l.01-.01v-.01h.01l.01-.01.01-.01.01-.01.01-.01h.01l.01-.01h.01l.01-.01h.03l.01-.01h.04zm-.05 5.65l-.12.37-.05-.02.12-.37.03-.01.02.03zm-.02-.03l.03.01-.01.02-.02-.03zm-.06.04v-.05h.05v.01h.01l-.02.05h-.01l-.01-.01h-.02zm-.17.17h-.05V8.41l.01-.01v-.02l.01-.01v-.01l.01-.01v-.01l.01-.01h.01v-.01l.01-.01.01-.01h.01v-.01l.01-.01h.01l.01-.01h.01l.01-.01h.02l.01-.01h.06v.05h-.03l-.01.01h-.02l-.01.01h-.01l-.01.01h-.01l-.01.01h-.01v.01l-.01.01-.01.01-.01.01v.02h-.01v.03h-.01v.04zm.08.17l.05.02-.03.02-.01-.01h-.01l-.01-.01H7.4l-.01-.01-.01-.01h-.01l-.01-.01-.01-.01-.01-.01-.01-.01-.01-.01v-.01h-.01v-.02l-.01-.01v-.01l-.01-.01V8.47h.05v.03l.01.01v.02l.01.01v.01h.01v.01l.01.01.01.01.01.01.01.01h.01v.01h.01l.01.01h.02l-.04.02zm.05.02v.02h-.03l.03-.02zm-.25-1.28h-.05v-.03l-.01-.01v-.02l-.01-.01V7.3l-.01-.01-.01-.01v-.01h-.01v-.01h-.01l-.01-.01-.01-.01h-.01l-.01-.01h-.02l-.01-.01h-.03v-.06h.01l.01.01h.04l.01.01h.01l.01.01h.01l.01.01h.01l.01.01.01.01.01.01.01.01.01.01.01.01v.01l.01.01v.01l.01.01v.02l.01.01v.05zm-.21.22v-.05h.02l.01-.01h.03l.01-.01.01-.01h.01l.01-.01h.01V7.5l.01-.01.01-.01.01-.01v-.02h.01v-.03h.01v-.04h.05V7.44l-.01.01v.02l-.01.01v.01l-.01.01v.01l-.01.01h-.01v.01l-.01.01-.01.01h-.01v.01l-.01.01h-.01l-.01.01H7.1l-.01.01h-.02l-.01.01h-.05zm-.22-.22h.05v.04h.01v.03h.01v.01l.01.01v.01l.01.01.01.01v.01h.01l.01.01h.01l.01.01.01.01h.03l.01.01h.03v.05H6.95l-.01-.01h-.02l-.01-.01H6.9l-.01-.01h-.01l-.01-.01v-.01h-.01l-.01-.01-.01-.01v-.01h-.01l-.01-.01V7.5l-.01-.01v-.01l-.01-.01v-.02l-.01-.01v-.06zm.22-.22v.06h-.04l-.01.01h-.02l-.01.01h-.01l-.01.01-.01.01h-.01v.01h-.01v.01l-.01.01v.01l-.01.01-.01.01v.02l-.01.01v.03h-.05v-.05l.01-.01V7.3l.01-.01v-.01l.01-.01v-.01l.01-.01.01-.01.01-.01.01-.01.01-.01.01-.01h.01l.01-.01h.01l.01-.01h.01l.01-.01h.04l.01-.01h.02zm.6-.98h-.06v-.04l-.01-.01v-.02l-.01-.01-.01-.01v-.01h-.01v-.01H7.5v-.01h-.01v-.01h-.01l-.01-.01-.01-.01h-.02l-.01-.01h-.04v-.06h.02l.01.01h.03l.01.01h.02l.01.01h.01l.01.01.01.01h.01l.01.01v.01h.01l.01.01v.01l.01.01.01.01v.01l.01.01v.02l.01.01v.02l.01.01v.03zm-.22.22v-.05h.02v-.01h.03l.01-.01h.02v-.01h.01l.01-.01.01-.01.01-.01.01-.01v-.01h.01v-.01l.01-.01v-.02l.01-.01v-.04h.06v.04l-.01.01v.02l-.01.01v.02l-.01.01v.01h-.01l-.01.01v.01l-.01.01-.01.01-.01.01-.01.01h-.01l-.01.01-.01.01h-.02l-.01.01h-.02l-.01.01h-.04zm-.22-.22h.05v.01l.01.01v.04l.01.01v.01l.01.01.01.01v.01h.01v.01h.01v.01h.01l.01.01.01.01h.01l.01.01h.03l.01.01h.02v.05h-.05l-.01-.01h-.02l-.01-.01h-.02l-.01-.01v-.01h-.01l-.01-.01-.01-.01h-.01v-.01l-.01-.01-.01-.01V6.3H7.2v-.01l-.01-.01v-.01l-.01-.01v-.02l-.01-.01v-.05zm.22-.22v.06h-.04l-.01.01h-.02l-.01.01H7.3v.01h-.01l-.01.01-.01.01-.01.01-.01.01v.01h-.01v.02l-.01.01v.04h-.01v.01h-.05v-.04l.01-.01v-.02l.01-.01v-.01l.01-.01v-.01l.01-.01v-.01l.01-.01.01-.01.01-.01.01-.01h.01L7.27 6v-.01h.01l.01-.01h.02l.01-.01h.03l.02-.01h.02zm.93-.63h-.05v-.02l-.01-.01v-.03h-.01v-.02l-.01-.01-.01-.01-.01-.01v-.01h-.01V5.2H8.2l-.01-.01h-.01l-.01-.01h-.01l-.01-.01H8.1v-.06h.05l.01.01h.02l.01.01h.01l.01.01h.01v.01h.01l.01.01.01.01h.01v.01l.01.01.01.01v.01l.01.01.01.01v.01l.01.01v.02l.01.02v.04zm-.22.22v-.06h.05l.01-.01h.01l.01-.01h.01v-.01h.02v-.01l.01-.01.01-.01.01-.01v-.01h.01v-.02h.01v-.04h.01v-.02h.05v.04l-.01.01v.02l-.01.01v.01l-.01.01v.01l-.01.01v.01l-.01.01-.01.01-.01.01-.01.01-.01.01h-.01v.01h-.01l-.01.01h-.01l-.01.01h-.03l-.01.01H8.1zm-.22-.22h.06v.04l.01.01v.02l.01.01.01.01v.01h.01v.01l.01.01.01.01h.01l.01.01.01.01h.02v.01h.05v.06h-.03l-.01-.01h-.03l-.01-.01h-.01L8 5.52h-.01l-.01-.01h-.01l-.01-.01-.01-.01v-.01h-.01l-.01-.01v-.01l-.01-.01-.01-.01v-.01l-.01-.01V5.4l-.01-.01v-.03l-.01-.01v-.02zm.22-.22v.06h-.05v.01h-.02l-.01.01h-.01L8 5.2l-.01.01-.01.01v.01h-.01v.01h-.01v.01l-.01.01v.02l-.01.01v.04h-.06v-.02l.01-.01v-.04l.01-.01v-.02l.01-.01.01-.01.01-.01v-.01l.01-.01.01-.01.01-.01.01-.01h.01l.01-.01H8l.01-.01h.01l.01-.01h.02l.01-.01h.04zm-.96-.16h-.06v-.04l-.01-.01v-.02l-.01-.01v-.01l-.01-.01-.01-.01-.01-.01-.01-.01v-.01H7V4.8h-.02l-.01-.01h-.02l-.01-.01h-.02v-.05h.05l.01.01H7l.01.01h.01l.01.01h.01l.01.01.01.01h.01v.01l.01.01.01.01v.01h.01l.01.01v.01l.01.01v.02l.01.01v.03l.01.01v.03zm-.22.22v-.06h.03l.01-.01h.02l.01-.01H7l.01-.01h.01v-.01h.01v-.01h.01v-.01l.01-.01.01-.01v-.01h.01V5l.01-.01v-.04h.06v.02l-.01.01v.03l-.01.01v.02l-.01.01v.01l-.01.01-.01.01v.01h-.01l-.01.01v.01l-.01.01h-.01l-.01.01h-.01l-.01.01h-.01L7 5.15h-.01l-.01.01h-.04l-.01.01h-.01zm-.22-.22h.05v.01l.01.01V5l.01.01v.01l.01.01v.01h.01v.01l.01.01.01.01.01.01h.01v.01h.02v.01h.03v.01h.04v.06h-.01l-.01-.01h-.05l-.01-.01h-.01l-.01-.01h-.01l-.01-.01-.01-.01h-.01l-.01-.01-.01-.01v-.01h-.01l-.01-.01v-.01l-.01-.01v-.01l-.01-.01v-.01l-.01-.01V5l-.01-.01v-.04zm.22-.22v.05h-.03l-.01.01h-.02l-.01.01h-.01l-.01.01h-.01l-.01.01v.01H6.8v.01h-.01v.01h-.01v.01l-.01.01v.01l-.01.01v.03l-.01.01v.02H6.7V4.9l.01-.01v-.02l.01-.01v-.01l.01-.01v-.01l.01-.01.01-.01.01-.01v-.01l.01-.01h.01l.01-.01.01-.01.01-.01h.01l.01-.01h.02l.01-.01H6.92zm1.02-.6h-.06v-.05l-.01-.01v-.01l-.01-.01v-.01h-.01v-.02h-.01l-.01-.01L7.82 4l-.01-.01H7.8v-.01h-.02v-.01h-.04v-.01h-.02v-.05h.04l.01.01h.02l.01.01h.01l.01.01h.01l.01.01h.01l.01.01.01.01.01.01.01.01V4l.01.01h.01v.01l.01.01v.02l.01.01v.02l.01.01v.04zm-.22.22v-.06h.04l.01-.01h.02l.01-.01.01-.01h.01v-.01h.01v-.01h.01l.01-.01v-.01l.01-.01.01-.01v-.02h.01v-.05h.06v.03l-.01.01v.02l-.01.01v.02l-.01.01v.01l-.01.01-.01.01v.01l-.01.01h-.01v.01l-.01.01h-.01l-.01.01-.01.01h-.01l-.01.01h-.02l-.01.01h-.03l-.01.01h-.02zm-.22-.22h.06v.05h.01v.03h.01v.01l.01.01.01.01.01.01.01.01h.01v.01h.01l.01.01h.02l.01.01h.04v.06H7.7l-.01-.01h-.04l-.01-.01h-.02l-.01-.01-.01-.01-.01-.01h-.01l-.01-.01-.01-.01-.01-.01-.01-.01v-.01l-.01-.01v-.01l-.01-.01v-.01l-.01-.01v-.02l-.01-.01v-.04zm.22-.22v.05H7.7l-.01.01h-.03v.01h-.02l-.01.01-.01.01h-.01v.01H7.6v.01h-.01v.01l-.01.01v.01l-.01.01v.01l-.01.01v.05H7.5v-.05l.01-.01v-.02l.01-.01v-.01l.01-.01v-.01h.01V4l.01-.01.01-.01v-.01h.01l.01-.01.01-.01h.01l.01-.01.01-.01h.01l.01-.01h.02l.01-.01h.05zm-.74-.55h-.05l-.01-.01v-.04l-.01-.01v-.02H6.9v-.01l-.01-.01-.01-.01-.01-.01-.01-.01h-.01v-.01h-.01l-.01-.01h-.02L6.8 3.2h-.04v-.06h.03l.02.01h.02l.01.01h.02l.01.01h.01v.01l.01.01h.01l.01.01.01.01.01.01.01.01v.01l.01.01v.01l.01.01v.01l.01.01v.02l.01.01v.04zm-.22.22v-.05h.01l.01-.01h.04v-.01h.02l.01-.01.01-.01h.01v-.01h.01v-.01h.01v-.01l.01-.01.01-.01v-.01l.01-.01v-.05l.01-.01h.05v.05l-.01.01v.02l-.01.01v.01l-.01.01v.01h-.01v.01l-.01.01-.01.01v.01h-.01l-.01.01-.01.01h-.01v.01h-.01l-.01.01h-.01l-.01.01h-.02l-.01.01h-.05zm-.22-.22h.06v.04l.01.01v.02l.01.01v.01h.01v.02h.01l.01.01.01.01.01.01h.01v.01h.02v.01h.04l.01.01h.01v.05h-.04l-.01-.01h-.02l-.01-.01h-.01l-.01-.01h-.01l-.01-.01h-.01l-.01-.01-.01-.01-.01-.01-.01-.01v-.01l-.01-.01h-.01v-.01l-.01-.01v-.02l-.01-.01v-.02l-.01-.01v-.04zm.22-.22v.06h-.04l-.01.01h-.02l-.01.01-.01.01h-.01v.01h-.01v.01h-.01v.01h-.01v.01l-.01.01-.01.01v.02H6.6v.05h-.06v-.03l.01-.01V3.3l.01-.01v-.02l.01-.01v-.01l.01-.01.01-.01v-.01l.01-.01h.01V3.2l.01-.01h.01l.01-.01.01-.01h.01l.01-.01h.02l.01-.01h.02l.01-.01h.03zm2.07.27h-.06v-.04h-.01v-.02l-.01-.01v-.01l-.01-.01-.01-.01V3.3h-.01v-.01h-.01l-.01-.01-.01-.01h-.01l-.01-.01h-.02l-.01-.01h-.03v-.06h.01l.01.01h.04l.01.01h.01l.01.01h.01l.01.01h.01l.01.01h.01v.01l.01.01.01.01h.01v.01l.01.01v.01l.01.01v.01l.01.01v.01l.01.01v.03l.01.01v.02zm-.22.22v-.05h.02l.01-.01h.02l.01-.01h.02v-.01h.01l.01-.01h.01v-.01l.01-.01.01-.01.01-.01v-.02h.01v-.02l.01-.01v-.04h.06v.03l-.01.01v.03l-.01.01v.01l-.01.01v.01l-.01.01v.01l-.01.01-.01.01-.01.01-.01.01-.01.01-.01.01h-.01l-.01.01H8.7l-.01.01h-.02l-.01.01h-.05zm-.22-.22h.05v.03l.01.01v.02l.01.01v.01l.01.01v.01h.01v.01h.01v.01l.01.01.01.01h.01l.01.01h.01l.01.01h.02l.01.01h.03v.05H8.55l-.01-.01h-.02l-.01-.01H8.5l-.01-.01h-.01v-.01l-.01-.01h-.01l-.01-.01-.01-.01v-.01h-.01l-.01-.01v-.01l-.01-.01V3.5l-.01-.01v-.01l-.01-.01v-.06zm.22-.22v.06h-.04v.01h-.03v.01h-.02v.01h-.01l-.01.01-.01.01-.01.01v.01h-.01v.01l-.01.01v.01l-.01.01v.02l-.01.01v.02h-.05v-.05l.01-.01v-.01l.01-.01v-.02l.01-.01v-.01l.01-.01.01-.01.01-.01.01-.01.01-.01h.01v-.01h.01l.01-.01h.01l.01-.01h.01l.01-.01h.04l.02-.01h.01z" class="fil0"/></g><g><path fill="#fefefe" d="M17.18 3.15l2.7-.46v.14l-2.61.45-.09-.13zm.78 1.18l.08.12 1.83-.31.01-.15-1.92.34zm.83 1.25l.09.13.99-.17v-.15l-1.08.19z"/><path id="1" d="M19.89 2.71l-2.7.47-.01-.05 2.7-.47.03.03-.02.02zm-.01-.05l.03-.01v.04l-.03-.03zm-.03.17v-.14h.06v.14l-.02.03-.04-.03zm.06 0v.02l-.02.01.02-.03zm-2.65.42l2.62-.45.01.06-2.62.45-.03-.01.02-.05zm.01.06h-.02l-.01-.01.03.01zm-.06-.17l.08.13-.05.03-.08-.13.02-.04.03.01zm-.05.03l-.02-.04h.04l-.02.04zm.86 1.3l-.08-.13.04-.03.09.13-.02.04-.03-.01zm.03.01h-.02l-.01-.01.03.01zm1.83-.32l-1.83.32-.01-.06 1.83-.31.03.03-.02.02zm.02-.02v.02h-.02l.02-.02zm0-.15v.15h-.05v-.15l.02-.02.03.02zm-.03-.02l.03-.01v.03l-.03-.02zm-1.91.33l1.91-.33.01.05-1.92.33-.02-.01.02-.04zm-.02.04l-.03-.03.05-.01-.02.04zm.91 1.38l-.08-.12.05-.03.08.12-.02.05-.03-.02zm.03.02h-.02l-.01-.02.03.02zm.99-.18l-.99.18-.01-.06.99-.17.04.03-.03.02zm.03-.02v.02h-.03l.03-.02zm0-.15v.15h-.06v-.15l.02-.02.04.02zm-.04-.02l.04-.01v.03l-.04-.02zm-1.07.18l1.07-.18.01.05-1.07.19-.03-.01.02-.05zm-.02.05l-.02-.04.04-.01-.02.05z" class="fil0"/></g></g></svg>