<svg xmlns="http://www.w3.org/2000/svg" width="112" height="67" fill-rule="evenodd" clip-rule="evenodd" image-rendering="optimizeQuality" shape-rendering="geometricPrecision" text-rendering="geometricPrecision" viewBox="0 0 169.68 102.17"><defs><style>.fil3{fill:#f5b2b6}.fil4{fill:#99cfba}.fil1{fill:#2b2a29;fill-rule:nonzero}</style></defs><g id="Слой_x0020_1"><path fill="#c5e3d7" d="M150.86 27.28c10.25 0 18.56 16.22 18.56 36.22s-8.31 36.22-18.56 36.22c-10.25 0-18.56-16.22-18.56-36.22s8.31-36.22 18.56-36.22z"/><path id="1" d="M169.68 63.5h-.51l-.03-1.86-.07-1.83-.12-1.81-.16-1.77-.21-1.75-.25-1.71-.29-1.68-.33-1.64-.37-1.59-.4-1.56-.45-1.51-.48-1.46-.51-1.41-.55-1.36-.58-1.31-.61-1.24-.64-1.2-.67-1.12-.69-1.07-.73-1-.74-.93-.77-.86-.79-.79-.81-.72-.83-.63-.84-.56-.87-.48-.87-.4-.9-.31-.9-.22-.92-.14-.93-.04v-.52l.98.05.97.14.95.24.94.32.92.42.9.5.87.58.86.66.84.73.81.81.78.89.77.95.73 1.02.71 1.08.68 1.15.65 1.21.62 1.27.58 1.32.56 1.38.52 1.42.48 1.48.45 1.52.41 1.57.38 1.62.33 1.65.29 1.69.25 1.72.21 1.76.17 1.79.11 1.82.08 1.85.02 1.87zm-18.82 36.48v-.52l.93-.04.92-.14.9-.22.9-.31.87-.4.87-.48.84-.56.83-.63.81-.72.79-.79.77-.86.74-.93.73-1 .69-1.07.67-1.13.64-1.19.61-1.25.58-1.3.55-1.36.51-1.41.48-1.47.45-1.5.4-1.56.37-1.6.33-1.63.29-1.68.25-1.71.21-1.75.16-1.77.12-1.81.07-1.83.03-1.86h.51l-.02 1.87-.08 1.84-.11 1.83-.17 1.79-.21 1.75-.25 1.73-.29 1.69-.33 1.65-.38 1.62-.41 1.56-.45 1.53-.48 1.47-.52 1.43-.56 1.38-.58 1.32-.62 1.27-.65 1.21-.68 1.15-.71 1.08-.73 1.02-.77.95-.78.89-.81.81-.84.73-.86.66-.87.58-.9.5-.92.42-.94.32-.95.24-.97.14-.98.05zM132.04 63.5h.52l.02 1.86.07 1.83.12 1.81.16 1.77.21 1.75.25 1.71.29 1.68.33 1.63.37 1.6.41 1.56.44 1.5.48 1.47.52 1.41.55 1.36.58 1.3.6 1.25.64 1.19.67 1.13.7 1.07.72 1 .74.93.77.86.79.79.81.72.83.63.84.56.87.48.88.4.89.31.9.22.92.14.93.04v.52l-.98-.05-.97-.14-.95-.24-.93-.32-.92-.42-.9-.5-.88-.58-.86-.66-.83-.73-.81-.81-.79-.89-.76-.95-.74-1.02-.71-1.08-.67-1.15-.65-1.21-.62-1.27-.59-1.32-.55-1.38-.53-1.43-.48-1.47-.45-1.53-.41-1.56-.38-1.62-.33-1.65-.29-1.69-.25-1.73-.21-1.75-.16-1.79-.12-1.83-.07-1.84-.03-1.87zm18.82-36.48v.52l-.93.04-.92.14-.9.22-.89.31-.88.4-.87.48-.84.56-.83.63-.81.72-.79.79-.77.86-.74.93-.72 1-.7 1.07-.67 1.12-.64 1.2-.6 1.24-.58 1.31-.55 1.36-.52 1.41-.48 1.46-.44 1.51-.41 1.56-.37 1.59-.33 1.64-.29 1.68-.25 1.71-.21 1.75-.16 1.77-.12 1.81-.07 1.83-.02 1.86h-.52l.03-1.87.07-1.85.12-1.82.16-1.79.21-1.76.25-1.72.29-1.69.33-1.65.38-1.62.41-1.57.45-1.52.48-1.48.53-1.42.55-1.38.59-1.32.62-1.27.65-1.21.67-1.15.71-1.08.74-1.02.76-.95.79-.89.81-.81.83-.73.86-.66.88-.58.9-.5.92-.42.93-.32.95-.24.97-.14.98-.05z" class="fil1"/><path fill="#f08bb2" d="M119.94.94c3.5 0 6.34 4.66 6.34 10.42 0 5.75-2.84 10.41-6.34 10.41s-6.34-4.66-6.34-10.41c0-5.76 2.84-10.42 6.34-10.42z"/><path id="1" d="M126.54 11.36h-.52l-.01-.53-.02-.52-.04-.52-.06-.5-.07-.5-.08-.48-.1-.48-.11-.46-.12-.46-.14-.44-.15-.42-.16-.42-.18-.4-.18-.38-.19-.37-.21-.35-.21-.34-.23-.32-.23-.3-.24-.28-.25-.26-.25-.24-.26-.22-.27-.2-.27-.18-.28-.15-.29-.13-.29-.11-.29-.09-.29-.06-.31-.04-.3-.01V.69l.35.01.34.04.34.07.33.1.32.12.32.15.31.17.3.2.3.22.28.24.28.26.26.28.26.3.25.32.24.33.22.36.22.37.2.39.19.4.18.41.17.44.16.44.14.46.13.47.11.48.11.49.08.5.08.52.05.52.04.53.03.53.01.55zm-6.6 10.67v-.52l.3-.01.31-.04.29-.06.29-.09.29-.1.29-.14.28-.15.27-.18.27-.2.26-.22.25-.24.25-.26.24-.28.23-.3.23-.32.21-.33.21-.36.19-.37.18-.38.18-.4.16-.41.15-.43.14-.44.12-.46.11-.46.1-.48.08-.48.07-.5.06-.5.04-.52.02-.51.01-.53h.52l-.01.54-.03.54-.04.53-.05.52-.08.51-.08.5-.11.49-.11.48-.13.47-.14.46-.16.45-.17.43-.18.41-.19.41-.2.38-.22.37-.22.36-.24.33-.25.32-.26.3-.26.28-.28.27-.28.24-.3.21-.3.2-.31.17-.32.15-.32.12-.33.1-.34.07-.34.04-.35.02zm-6.6-10.67h.52l.01.53.02.51.04.52.06.5.07.5.08.48.1.48.11.46.12.46.14.44.15.43.16.41.17.4.19.38.19.37.21.36.21.33.22.32.24.3.24.28.25.26.25.24.26.22.27.2.27.18.28.15.28.14.29.1.3.09.29.06.3.04.31.01v.52l-.35-.02-.34-.04-.34-.07-.33-.1-.33-.12-.31-.15-.31-.17-.3-.2-.3-.21-.28-.25-.28-.26-.27-.28-.25-.3-.25-.32-.24-.33-.22-.36-.22-.37-.2-.38-.19-.41-.18-.41-.17-.43-.16-.45-.14-.46-.13-.47-.12-.48-.1-.49-.08-.5-.08-.51-.05-.52-.04-.53-.03-.54-.01-.54zm6.6-10.67v.51l-.31.01-.3.04-.29.06-.3.09-.29.11-.28.13-.28.15-.27.18-.27.2-.26.22-.25.24-.25.26-.24.28-.24.3-.22.32-.21.34-.21.35-.19.37-.19.38-.17.4-.16.42-.15.42-.14.44-.12.46-.11.46-.1.48-.08.48-.07.5-.06.5-.04.52-.02.52-.01.53h-.52l.01-.55.03-.53.04-.53.05-.52.08-.52.08-.5.1-.49.12-.48.13-.47.14-.46.16-.44.17-.44.18-.41.19-.4.2-.39.22-.37.22-.36.24-.33.25-.32.25-.3.27-.28.28-.26.28-.24.3-.22.3-.2.31-.17.31-.15.33-.12.33-.1.34-.07.34-.04.35-.01z" class="fil1"/><path d="M119.57 26h.93c3.76 0 6.77 3.07 6.83 6.83.85 54.71 21.87 54.81 20.01 63.89-.76 3.68-5.87 4.04-9.62 4.04h-35.36c-3.75 0-10.03-1.54-9.62-5.27 1.24-11.27 20.4-14.15 20.01-62.66-.03-3.76 3.07-6.83 6.82-6.83z" class="fil3"/><path id="1" d="M120.5 26.26h-.93v-.51h.93v.51zm7.09 6.56l-.52.01-.01-.34-.03-.33-.05-.33-.06-.32-.08-.32-.09-.31-.1-.3-.12-.3-.13-.29-.15-.28-.16-.28-.17-.27-.18-.26-.2-.24-.2-.24-.22-.23-.23-.22-.24-.21-.24-.19-.26-.18-.26-.18-.27-.16-.29-.14-.29-.13-.29-.12-.3-.1-.31-.09-.32-.08-.32-.05-.33-.05-.33-.02-.34-.01v-.51h.37l.36.03.35.05.34.06.34.08.34.1.33.11.32.13.31.14.3.15.3.17.28.19.28.2.26.21.26.22.24.24.24.24.22.26.21.27.2.27.18.29.17.3.16.3.14.32.13.32.11.33.1.33.09.34.06.35.05.35.03.36.02.36zm20 63.96l-.51-.11.11-.79-.02-.74-.13-.72-.23-.71-.34-.71-.43-.72-.52-.74-.61-.78-.67-.82-.75-.87-.79-.95-.85-1.02-.89-1.1-.92-1.21-.95-1.32-.96-1.44-.97-1.58-.97-1.72-.96-1.88-.94-2.05-.92-2.23-.89-2.42-.85-2.63-.8-2.84-.75-3.06-.68-3.31-.61-3.55-.54-3.82-.44-4.09-.35-4.37-.25-4.67-.14-4.98.52-.01.13 4.97.25 4.65.35 4.36.45 4.08.52 3.8.61 3.53.68 3.29.74 3.05.8 2.82.85 2.61.88 2.4.91 2.21.94 2.03.95 1.86.96 1.71.96 1.56.95 1.42.93 1.31.92 1.2.88 1.1.84 1.01.8.94.74.88.69.83.61.79.54.77.45.76.37.76.25.77.14.8.02.82-.11.87zm-9.87 4.24v-.52h.71l.37-.01.37-.01.38-.02.37-.02.38-.02.38-.03.37-.04.38-.04.37-.05.37-.06.36-.07.36-.07.35-.09.34-.1.33-.1.32-.12.31-.13.3-.13.28-.15.27-.17.25-.17.24-.19.21-.2.2-.21.18-.24.17-.24.14-.26.12-.28.1-.29.08-.32.51.11-.09.35-.12.34-.14.32-.16.3-.19.28-.21.26-.22.25-.25.22-.26.21-.28.2-.3.17-.3.17-.32.15-.33.13-.34.13-.35.11-.36.1-.37.09-.37.08-.37.07-.38.06-.39.05-.38.04-.39.04-.38.03-.39.03-.38.02-.38.01-.38.01-.37.01h-.36l-.36.01zm-17.22-.52h17.22v.52H120.5v-.52zm-.93 0h.93v.52h-.93v-.52zm-17.21 0h17.21v.52h-17.21v-.52zm-9.87-5.04l.51.05-.02.32.02.3.05.29.08.28.11.26.13.26.17.25.2.24.22.23.24.23.27.21.29.2.3.19.33.18.34.17.36.16.37.16.38.13.39.14.4.12.4.11.41.1.41.09.41.08.41.07.41.06.4.05.4.04.38.03.38.02.37.02h.35v.52l-.37-.01-.38-.01-.38-.02-.4-.04-.41-.04-.41-.05-.42-.07-.42-.07-.42-.08-.43-.09-.42-.11-.41-.11-.42-.12-.4-.14-.4-.15-.38-.15-.38-.17-.36-.18-.35-.2-.33-.2-.31-.22-.29-.23-.27-.25-.25-.26-.22-.27-.2-.29-.16-.3-.13-.32-.1-.34-.05-.34-.03-.36.03-.37zm20-62.63h.52l-.02 4.42-.13 4.16-.23 3.92-.32 3.68-.41 3.46-.49 3.23-.57 3.03-.63 2.83-.69 2.64-.74 2.47-.8 2.29-.83 2.14-.86 1.99-.89 1.85-.9 1.72-.92 1.6-.93 1.49-.92 1.39-.91 1.3-.89 1.22-.88 1.15-.84 1.08-.8 1.04-.76.99-.7.96-.65.94-.59.92-.51.93-.43.92-.35.95-.26.97-.16 1-.51-.05.17-1.06.27-1.02.36-.99.45-.96.53-.95.6-.94.66-.96.71-.97.76-1 .81-1.03.84-1.09.86-1.14.89-1.21.91-1.29.91-1.38.91-1.48.91-1.58.9-1.71.88-1.83.86-1.97.82-2.11.79-2.28.73-2.45.69-2.62.63-2.81.56-3.01.49-3.22.41-3.44.32-3.67.23-3.9.12-4.15.02-4.41zm7.08-7.08v.51l-.33.01-.34.02-.32.05-.33.05-.31.08-.32.09-.3.1-.3.12-.29.13-.28.15-.28.15-.27.18-.26.18-.24.19-.25.21-.23.22-.21.23-.21.24-.2.25-.18.25-.17.27-.16.27-.15.29-.13.29-.11.29-.11.31-.08.31-.08.32-.05.32-.04.33-.03.33v.34h-.52l.01-.36.02-.36.05-.36.06-.34.07-.35.1-.33.11-.33.13-.32.14-.32.16-.3.17-.3.18-.29.2-.28.21-.26.22-.26.24-.25.25-.23.26-.22.26-.21.28-.2.29-.19.3-.17.3-.15.32-.14.32-.13.33-.12.34-.09.34-.08.35-.06.35-.05.36-.03h.36z" class="fil1"/><path d="M114.33 20.99h12.08c.75 0 1.36.61 1.36 1.36v.78c0 .75-.61 1.36-1.36 1.36h-12.08c-.75 0-1.36-.61-1.36-1.36v-.78c0-.75.61-1.36 1.36-1.36z" class="fil4"/><path id="1" d="M126.41 21.25h-12.08v-.52h12.08v.52zm1.62 1.1h-.52v-.11l-.01-.06-.01-.05-.01-.06-.02-.05-.02-.05-.01-.05-.03-.05-.02-.05-.03-.04-.03-.04-.03-.05-.03-.04-.04-.04-.03-.04-.04-.04-.04-.03-.04-.03-.05-.03-.04-.03-.05-.03-.04-.02-.05-.03-.05-.02-.05-.01-.06-.02-.05-.01-.05-.01-.06-.01h-.11v-.52h.08l.08.01.08.01.08.01.08.02.08.02.08.03.07.03.07.03.07.04.07.04.06.04.07.04.06.05.06.05.05.06.06.05.05.06.04.06.05.07.04.06.04.07.04.07.03.07.03.07.02.08.03.08.01.07.02.08.01.09v.08l.01.08zm-.52.78v-.78h.52v.78h-.52zm-1.1 1.62v-.51h.06l.05-.01.06-.01.05-.01.05-.01.06-.01.05-.02.05-.02.05-.02.04-.02.05-.03.04-.03.05-.03.04-.04.04-.03.04-.04.03-.04.04-.04.03-.04.03-.04.03-.05.03-.04.02-.05.03-.05.01-.05.02-.05.02-.05.01-.05.01-.06.01-.06v-.11h.52l-.01.09v.08l-.01.08-.02.08-.01.07-.03.08-.02.08-.03.07-.03.07-.04.07-.04.07-.04.07-.05.06-.04.06-.05.06-.06.06-.05.05-.06.05-.06.05-.07.05-.06.03-.07.04-.07.04-.07.03-.07.03-.08.03-.08.02-.08.02-.08.01-.08.01-.08.01h-.08zm-12.08-.51h12.08v.51h-12.08v-.51zm-1.62-1.11h.52v.12l.01.05.01.06.01.05.02.05.01.05.02.05.02.05.03.05.02.05.03.04.03.04.04.04.03.04.04.04.04.04.04.03.04.04.05.03.04.03.04.02.05.03.05.02.05.02.05.02.05.01.06.01.05.01.06.01.05.01h.06v.51h-.08l-.09-.01-.08-.01-.08-.01-.07-.02-.08-.02-.08-.03-.07-.03-.07-.03-.07-.03-.07-.04-.07-.04-.06-.05-.06-.05-.06-.05-.06-.05-.05-.06-.05-.05-.05-.07-.04-.06-.05-.07-.03-.07-.04-.07-.03-.07-.03-.07-.03-.08-.02-.08-.02-.07-.01-.08-.01-.08-.01-.08v-.09zm.52-.78v.78h-.52v-.78h.52zm1.1-1.62v.52h-.11l-.06.01-.05.01-.06.01-.05.02-.05.01-.05.02-.05.03-.04.02-.05.03-.05.03-.04.03-.04.03-.04.03-.04.04-.04.04-.03.04-.04.04-.03.05-.03.04-.02.04-.03.05-.02.05-.02.05-.01.05-.02.05-.01.06-.01.05-.01.06v.11h-.52v-.08l.01-.08.01-.09.01-.08.02-.07.02-.08.03-.08.03-.07.03-.07.04-.07.03-.07.05-.06.04-.07.05-.06.05-.06.05-.05.06-.06.06-.05.06-.05.07-.04.06-.04.06-.04.08-.04.07-.03.07-.03.08-.03.08-.02.07-.02.08-.01.08-.01.09-.01h.08z" class="fil1"/><path d="M150.4.26c3.5 0 6.34 5.94 6.34 13.27 0 7.33-2.84 13.27-6.34 13.27s-6.34-5.94-6.34-13.27c0-7.33 2.84-13.27 6.34-13.27z" class="fil4"/><path id="1" d="M157 13.53h-.52l-.01-.68-.02-.67-.04-.65-.05-.65-.08-.64-.08-.62-.1-.61-.11-.6-.13-.58-.13-.56-.15-.55-.17-.53-.17-.52-.19-.49-.19-.47-.21-.46-.21-.43-.23-.41-.23-.38-.25-.36-.24-.34-.26-.3-.27-.29-.26-.25-.28-.23-.27-.19-.29-.17-.28-.14-.29-.11-.29-.08-.3-.04-.3-.02V0l.35.02.35.05.35.09.33.13.33.16.32.19.31.22.3.25.29.28.29.3.27.33.27.36.25.37.25.41.23.43.23.44.21.47.2.49.19.51.18.53.17.54.15.57.15.58.12.59.12.61.1.63.09.63.07.65.06.66.04.67.02.68.01.69zm-6.6 13.53v-.52l.3-.01.3-.05.29-.07.29-.11.28-.14.29-.17.27-.2.28-.22.26-.26.27-.28.26-.31.24-.33.25-.36.23-.39.23-.4.21-.44.21-.45.19-.47.19-.5.17-.51.17-.53.15-.55.13-.57.13-.57.11-.6.1-.61.08-.62.08-.64.05-.65.04-.66.02-.66.01-.68h.52l-.01.69-.02.68-.04.67-.06.66-.07.65-.09.63-.1.63-.12.61-.12.59-.15.58-.15.56-.17.55-.18.53-.19.5-.2.49-.21.47-.23.45-.23.43-.25.4-.25.38-.27.36-.27.33-.29.3-.29.28-.3.25-.31.22-.32.19-.33.15-.33.13-.35.09-.35.06-.35.02zm-6.59-13.53h.51l.01.68.02.66.04.66.06.65.07.64.08.62.1.61.11.6.13.57.14.57.15.55.16.53.18.51.18.5.2.47.2.45.22.44.22.4.24.39.24.36.25.33.25.31.27.28.27.26.27.22.28.2.28.17.29.14.28.11.3.07.29.05.3.01v.52l-.35-.02-.35-.06-.34-.09-.34-.13-.33-.15-.32-.19-.3-.22-.31-.25-.29-.28-.28-.3-.28-.33-.26-.36-.26-.38-.24-.4-.24-.43-.22-.45-.22-.47-.2-.49-.19-.5-.18-.53-.17-.55-.15-.56-.14-.58-.13-.59-.12-.61-.1-.63-.08-.63-.07-.65-.06-.66-.04-.67-.03-.68v-.69zM150.4 0v.51l-.3.02-.29.04-.3.08-.28.11-.29.14-.28.17-.28.19-.27.23-.27.25-.27.29-.25.3-.25.34-.24.36-.24.38-.22.41-.22.43-.2.46-.2.47-.18.49-.18.52-.16.53-.15.55-.14.56-.13.58-.11.6-.1.61-.08.62-.07.64-.06.65-.04.65-.02.67-.01.68h-.51v-.69l.03-.68.04-.67.06-.66.07-.65.08-.63.1-.63.12-.61.13-.59.14-.58.15-.57.17-.54.18-.53.19-.51.2-.49.22-.47.22-.44.24-.43.24-.41.26-.37.26-.36.28-.33.28-.3.29-.28.31-.25.3-.22.32-.19.33-.16.34-.13.34-.09.35-.05.35-.02z" class="fil1"/><g><path d="M144.79 26.02h12.08c.75 0 1.36.61 1.36 1.36v.78c0 .75-.61 1.36-1.36 1.36h-12.08c-.75 0-1.36-.61-1.36-1.36v-.78c0-.75.61-1.36 1.36-1.36z" class="fil4"/><path id="1" d="M156.87 26.28h-12.08v-.52h12.08v.52zm1.62 1.1h-.52v-.11l-.01-.06-.01-.05-.01-.06-.02-.05-.01-.05-.02-.05-.03-.05-.02-.04-.03-.05-.03-.05-.02-.04-.04-.04-.03-.04-.04-.04-.04-.04-.04-.03-.04-.04-.04-.02-.05-.03-.05-.03-.04-.02-.05-.03-.05-.02-.05-.01-.05-.02-.06-.01-.05-.01-.06-.01h-.11v-.52h.08l.09.01.08.01.08.02.07.01.08.02.08.03.07.03.07.03.07.04.07.04.06.04.07.04.06.05.06.05.05.06.06.05.05.06.05.06.04.07.04.06.04.07.04.07.03.07.03.07.03.08.02.08.01.07.02.08.01.08.01.09v.08zm-.52.78v-.78h.52v.78h-.52zm-1.1 1.62v-.51l.06-.01h.05l.06-.01.05-.01.06-.01.05-.01.05-.02.05-.02.05-.02.04-.03.05-.02.05-.03.04-.03.04-.03.04-.04.04-.04.04-.04.03-.04.04-.04.02-.04.03-.05.03-.04.02-.05.03-.05.02-.05.01-.05.02-.05.01-.05.01-.06.01-.06v-.11h.52v.09l-.01.08-.01.08-.02.08-.01.07-.02.08-.03.08-.03.07-.03.07-.04.07-.04.07-.04.07-.04.06-.05.06-.05.06-.06.06-.05.05-.06.05-.06.05-.07.05-.06.04-.07.03-.07.04-.07.03-.07.03-.08.03-.08.02-.07.02-.08.01-.08.01-.09.01h-.08zm-12.08-.51h12.08v.51h-12.08v-.51zm-1.62-1.11h.52v.11l.01.06.01.06.01.05.02.05.01.05.02.05.03.05.02.05.03.04.03.05.03.04.03.04.04.04.03.04.04.04.04.04.04.03.04.03.05.03.05.02.04.03.05.02.05.02.05.02.05.01.06.01.05.01.06.01h.05l.06.01v.51h-.08l-.08-.01-.09-.01-.08-.01-.07-.02-.08-.02-.08-.03-.07-.03-.07-.03-.07-.04-.07-.03-.06-.04-.07-.05-.06-.05-.06-.05-.05-.05-.06-.06-.05-.06-.05-.06-.04-.06-.04-.07-.04-.07-.04-.07-.03-.07-.03-.07-.03-.08-.02-.08-.01-.07-.02-.08-.01-.08-.01-.08v-.09zm.52-.78v.78h-.52v-.78h.52zm1.1-1.62v.52h-.11l-.06.01-.05.01-.06.01-.05.02-.05.01-.05.02-.05.03-.04.02-.05.03-.05.03-.04.02-.04.04-.04.03-.04.04-.03.04-.04.04-.03.04-.03.04-.03.05-.03.05-.02.04-.03.05-.02.05-.01.05-.02.05-.01.06-.01.05-.01.06v.11h-.52v-.08l.01-.09.01-.08.02-.08.01-.07.02-.08.03-.08.03-.07.03-.07.04-.07.04-.07.04-.06.04-.07.05-.06.05-.06.06-.05.05-.06.06-.05.06-.05.07-.04.06-.04.07-.04.07-.04.07-.03.07-.03.08-.03.08-.02.07-.01.08-.02.09-.01.08-.01h.08z" class="fil1"/></g><g><path d="M43.27 51.2c23.75 0 43.01 11.36 43.01 25.36s-19.26 25.35-43.01 25.35C19.51 101.91.26 90.56.26 76.56c0-14 19.25-25.36 43.01-25.36z" class="fil4"/><path id="1" d="M86.54 76.56h-.51l-.06-1.28-.16-1.27-.27-1.25-.37-1.23-.48-1.2-.57-1.19-.66-1.16-.77-1.14-.85-1.11-.94-1.08-1.02-1.05-1.11-1.02-1.19-.99-1.27-.95-1.34-.91-1.42-.88-1.48-.83-1.55-.79-1.62-.75-1.68-.71-1.73-.65-1.8-.61-1.84-.56-1.9-.5-1.94-.46-2-.39-2.03-.34-2.07-.28-2.11-.23-2.15-.16-2.17-.1-2.21-.03v-.51l2.22.03 2.19.1 2.16.16 2.13.22 2.09.29 2.05.34 2 .4 1.97.46 1.91.51 1.86.56 1.81.61 1.75.67 1.7.71 1.63.75 1.57.8 1.51.85 1.43.89 1.36.92 1.29.97 1.21 1 1.13 1.04 1.04 1.07.96 1.1.87 1.14.78 1.17.69 1.19.59 1.22.48 1.24.39 1.27.28 1.29.16 1.31.06 1.33zm-43.27 25.61v-.51l2.21-.04 2.17-.1 2.15-.15 2.11-.23 2.07-.28 2.03-.34 2-.4 1.94-.45 1.9-.51 1.84-.55 1.8-.61 1.73-.66 1.68-.7 1.62-.75 1.55-.79 1.48-.83 1.42-.88 1.34-.91 1.27-.95 1.19-.99 1.11-1.02 1.02-1.05.94-1.08.85-1.11.77-1.14.66-1.16.57-1.19.48-1.21.37-1.22.27-1.25.16-1.27.06-1.28h.51l-.06 1.32-.16 1.31-.28 1.3-.39 1.26-.48 1.25-.59 1.22-.69 1.19-.78 1.17-.87 1.13-.96 1.11-1.04 1.07-1.13 1.04-1.21 1-1.29.97-1.36.92-1.43.89-1.51.84-1.57.8-1.63.76-1.7.71-1.75.67-1.81.61-1.86.56-1.91.51-1.97.46-2 .4-2.05.34-2.09.28-2.13.23-2.16.16-2.19.1-2.22.03zM0 76.56h.52l.05 1.28.16 1.27.27 1.25.37 1.22.48 1.21.57 1.19.67 1.16.76 1.14.85 1.11.94 1.08 1.02 1.05 1.11 1.02 1.19.99 1.27.95 1.34.91 1.42.88 1.48.83 1.55.79 1.62.75 1.68.7 1.73.66 1.8.61 1.84.55 1.9.51 1.94.45 2 .4 2.03.34 2.07.28 2.11.23 2.15.15 2.17.1 2.21.04v.51l-2.22-.03-2.19-.1-2.16-.16-2.13-.23-2.09-.28-2.05-.34-2-.4-1.97-.46-1.91-.51-1.86-.56-1.81-.61-1.75-.67-1.7-.71-1.63-.76-1.57-.8-1.5-.84-1.44-.89-1.36-.92-1.29-.97-1.21-1-1.12-1.04-1.05-1.07-.96-1.11-.87-1.13-.78-1.17-.69-1.19L1.38 83l-.49-1.25-.39-1.26-.27-1.3-.17-1.31L0 76.56zm43.27-25.61v.51l-2.21.03-2.17.1-2.15.16-2.11.23-2.07.28-2.03.34-2 .39-1.94.46-1.9.5-1.84.56-1.8.61-1.73.65-1.68.71-1.62.75-1.55.79-1.48.83-1.42.88-1.34.91-1.27.95-1.19.99-1.11 1.02-1.02 1.05-.94 1.08-.85 1.11-.76 1.14-.67 1.16-.57 1.19-.48 1.2L1 72.76l-.27 1.25-.16 1.27-.05 1.28H0l.06-1.33.17-1.31.27-1.29.39-1.27.49-1.24.58-1.22.69-1.19.78-1.17.87-1.14.96-1.1 1.05-1.07 1.12-1.04 1.21-1 1.29-.97 1.36-.92 1.44-.89 1.5-.85 1.57-.8 1.63-.75 1.7-.71 1.75-.67 1.81-.61 1.86-.56 1.91-.51 1.97-.46 2-.4 2.05-.34 2.09-.29 2.13-.22 2.16-.16 2.19-.1 2.22-.03z" class="fil1"/></g><g><path d="M43.45 33.85c8.05 0 14.57 3.41 14.57 7.6 0 4.2-6.52 7.6-14.57 7.6-8.06 0-14.58-3.4-14.58-7.6 0-4.19 6.52-7.6 14.58-7.6z" class="fil4"/><path id="1" d="M58.28 41.45h-.51l-.02-.36-.05-.37-.09-.35-.12-.35-.16-.35-.18-.34-.22-.34-.25-.33-.28-.33-.31-.31-.34-.31-.37-.3-.4-.29-.42-.28-.45-.27-.47-.26-.5-.25-.52-.23-.54-.23-.57-.2-.58-.2-.6-.18-.63-.17-.64-.15-.65-.13-.67-.12-.68-.1-.7-.09-.71-.06-.73-.05-.73-.03-.74-.01v-.51l.75.01.75.03.74.04.72.07.71.09.7.1.69.12.67.14.65.15.64.17.61.19.6.2.58.21.56.23.54.25.51.25.5.27.46.28.45.29.41.31.39.32.36.32.34.34.3.35.27.36.24.37.21.38.17.39.13.39.1.41.06.41.02.41zm-14.83 7.86v-.51l.74-.01.73-.03.73-.05.71-.07.7-.08.68-.1.67-.12.65-.14.64-.15.63-.16.6-.18.58-.2.57-.21.54-.22.52-.23.5-.25.47-.26.45-.27.42-.28.4-.29.37-.3.34-.31.31-.32.28-.32.25-.33.22-.34.18-.34.16-.35.12-.35.09-.36.05-.36.02-.37h.51l-.02.42-.06.41-.1.4-.13.4-.17.39-.21.38-.24.37-.27.35-.3.35-.34.34-.36.33-.39.32-.41.3-.45.3-.46.28-.5.27-.51.25-.54.24-.56.23-.58.22-.6.2-.61.18-.64.17-.65.16-.67.13-.69.13-.7.1-.71.09-.72.06-.74.05-.75.03-.75.01zm-14.84-7.86h.51l.02.37.05.36.09.36.12.35.16.35.18.34.22.34.25.33.28.32.32.32.34.31.36.3.4.29.42.28.45.27.48.26.49.25.52.23.55.22.56.21.58.2.61.18.62.16.64.15.65.14.67.12.69.1.7.08.71.07.72.05.73.03.75.01v.51l-.76-.01-.75-.03-.73-.05-.73-.06-.71-.09-.7-.1-.68-.13-.67-.13-.66-.16-.63-.17-.62-.18-.6-.2-.58-.22-.56-.23-.54-.24-.51-.25-.5-.27-.46-.28-.44-.3-.42-.3-.39-.32-.36-.33-.33-.34-.31-.35-.27-.35-.24-.37-.2-.38-.18-.39-.13-.4-.1-.4-.06-.41-.02-.42zm14.84-7.85v.51l-.75.01-.73.03-.72.05-.71.06-.7.09-.69.1-.67.12-.65.13-.64.15-.62.17-.61.18-.58.2-.56.2-.55.23-.52.23-.49.25-.48.26-.45.27-.42.28-.4.29-.36.3-.34.31-.32.31-.28.33-.25.33-.22.34-.18.34-.16.35-.12.35-.09.35-.05.37-.02.36h-.51l.02-.41.06-.41.1-.41.13-.39.18-.39.2-.38.24-.37.27-.36.31-.35.33-.34.36-.32.39-.32.42-.31.44-.29.46-.28.5-.27.51-.25.54-.25.56-.23.58-.21.6-.2.62-.19.63-.17.66-.15.67-.14.68-.12.7-.1.71-.09.73-.07.73-.04.75-.03.76-.01z" class="fil1"/></g><g><path fill="#6fa691" d="M34.97 47.67h15.96c.74 0 1.35.61 1.35 1.36v.78c0 .75-.61 1.36-1.35 1.36H34.97c-.75 0-1.36-.61-1.36-1.36v-.78c0-.75.61-1.36 1.36-1.36z"/><path id="1" d="M50.93 47.93H34.97v-.52h15.96v.52zm1.61 1.1h-.51v-.06l-.01-.05-.01-.06-.01-.05-.01-.06-.01-.05-.02-.05-.02-.05-.02-.05-.03-.05-.02-.04-.03-.05-.03-.04-.03-.04-.04-.04-.04-.04-.04-.04-.04-.03-.04-.04-.04-.03-.04-.03-.05-.02-.05-.03-.05-.02-.05-.02-.05-.01-.05-.02-.05-.01-.06-.01-.05-.01h-.11v-.52h.08l.08.01.08.01.08.01.08.02.07.02.08.03.07.03.08.03.06.04.07.03.07.05.06.04.07.05.05.05.06.05.05.06.05.06.05.06.05.07.04.06.04.07.03.07.03.07.03.07.03.08.02.08.02.07.01.08.01.08.01.08v.09zm-.51.78v-.78h.51v.78h-.51zm-1.1 1.62v-.52h.11l.05-.01.06-.01.05-.01.05-.02.05-.01.05-.02.05-.02.05-.03.05-.02.04-.04.04-.02.04-.04.04-.03.04-.04.04-.04.04-.04.03-.04.03-.04.03-.05.02-.05.03-.04.02-.05.02-.05.02-.05.01-.05.01-.06.01-.05.01-.06.01-.05v-.06h.51v.08l-.01.09-.01.08-.01.08-.02.07-.02.08-.03.08-.03.07-.03.07-.03.07-.04.07-.04.06-.05.07-.05.06-.05.06-.05.06-.06.05-.05.05-.07.05-.06.04-.07.05-.07.03-.06.04-.08.03-.07.03-.08.03-.07.02-.08.02-.08.01-.08.01-.08.01h-.08zm-15.96-.52h15.96v.52H34.97v-.52zm-1.62-1.1h.52v.11l.01.06.01.05.01.06.02.05.01.05.02.05.03.05.02.04.03.05.03.05.02.04.04.04.03.04.04.04.04.04.04.03.04.04.04.02.05.04.05.02.04.03.05.02.05.02.05.01.05.02.06.01.05.01.06.01h.11v.52h-.08l-.09-.01-.08-.01-.08-.01-.07-.02-.08-.02-.08-.03-.07-.03-.07-.03-.07-.04-.07-.03-.06-.05-.07-.04-.06-.05-.06-.05-.05-.05-.06-.06-.05-.06-.05-.06-.04-.07-.04-.06-.04-.07-.04-.07-.03-.07-.03-.07-.03-.08-.02-.08-.01-.07-.02-.08-.01-.08-.01-.09v-.08zm.52-.78v.78h-.52v-.78h.52zm1.1-1.62v.52h-.11l-.06.01-.05.01-.06.01-.05.02-.05.01-.05.02-.05.02-.04.03-.05.02-.05.03-.04.03-.04.04-.04.03-.04.04-.04.04-.03.04-.04.04-.02.04-.03.05-.03.04-.02.05-.03.05-.02.05-.01.05-.02.05-.01.06-.01.05-.01.06v.11h-.52v-.09l.01-.08.01-.08.02-.08.01-.07.02-.08.03-.08.03-.07.03-.07.04-.07.04-.07.04-.06.04-.07.05-.06.05-.06.06-.06.05-.05.06-.05.06-.05.07-.04.06-.05.07-.03.07-.04.07-.03.07-.03.08-.03.08-.02.07-.02.08-.01.08-.01.09-.01h.08z" class="fil1"/></g><g><path d="M24.21 68.7h35.11c1.08 0 1.96.89 1.96 1.97v9.83c0 1.08-.88 1.96-1.96 1.96H24.21c-1.08 0-1.96-.88-1.96-1.96v-9.83c0-1.08.88-1.97 1.96-1.97z" class="fil3"/><path id="1" d="M59.32 68.96H24.21v-.51h35.11v.51zm2.22 1.71h-.52V70.5l-.01-.09-.02-.08-.02-.09-.02-.08-.03-.08-.03-.07-.04-.08-.03-.07-.04-.08-.05-.06-.04-.07-.06-.06-.05-.07-.06-.06-.05-.05-.07-.06-.06-.05-.07-.04-.07-.05-.07-.04-.07-.04-.08-.03-.08-.03-.08-.03-.08-.02-.08-.02-.08-.02-.09-.01-.09-.01h-.08v-.51h.11l.12.01.1.01.12.02.1.03.11.03.1.03.1.04.1.05.1.05.09.05.09.06.09.06.08.07.08.06.08.08.07.08.07.08.07.08.06.09.06.09.05.09.05.1.04.09.04.1.04.11.03.1.03.11.01.11.02.11.01.11v.12zm-.52 9.83v-9.83h.52v9.83h-.52zm-1.7 2.22v-.51l.08-.01h.09l.09-.01.08-.02.08-.02.08-.02.08-.03.08-.03.08-.03.07-.04.07-.04.07-.05.07-.04.06-.06.06-.05.06-.06.06-.05.05-.07.06-.06.04-.07.05-.07.04-.07.03-.07.04-.08.03-.07.03-.08.02-.09.02-.08.02-.08.01-.09V80.5h.52v.11l-.01.12-.02.11-.01.11-.03.11-.03.1-.04.1-.04.1-.04.1-.05.1-.05.09-.06.09-.06.09-.07.08-.07.08-.07.08-.08.07-.08.07-.08.07-.09.06-.09.06-.09.05-.1.05-.1.04-.1.05-.1.03-.11.03-.1.03-.12.02-.1.01-.12.01h-.11zm-35.11-.51h35.11v.51H24.21v-.51zm-2.22-1.71h.52v.09l.01.08.01.09.01.08.02.08.03.09.02.08.03.07.04.08.03.07.05.07.04.07.05.07.05.06.05.06.06.06.06.06.06.05.07.06.06.04.07.05.07.04.08.04.07.03.08.03.08.03.08.02.08.02.08.02.09.01h.09l.08.01v.51h-.11l-.11-.01-.11-.01-.11-.02-.11-.03-.11-.03-.1-.03-.1-.05-.1-.04-.09-.05-.09-.05-.1-.06-.09-.06-.08-.07-.08-.07-.07-.07-.08-.08-.07-.08-.06-.08-.07-.09-.05-.09-.06-.09-.05-.1-.04-.1-.04-.1-.04-.1-.03-.1-.02-.11-.02-.11-.02-.11-.01-.12v-.11zm.52-9.83v9.83h-.52v-9.83h.52zm1.7-2.22v.51h-.08l-.09.01-.09.01-.08.02-.08.02-.08.02-.08.03-.08.03-.07.03-.08.04-.07.04-.07.05-.06.04-.07.05-.06.06-.06.05-.06.06-.05.07-.05.06-.05.07-.04.06-.05.08-.03.07-.04.08-.03.07-.02.08-.03.08-.02.09-.01.08-.01.09-.01.08v.09h-.52v-.12l.01-.11.02-.11.02-.11.02-.11.03-.1.04-.11.04-.1.04-.09.05-.1.06-.09.05-.09.07-.09.06-.08.07-.08.08-.08.07-.08.08-.06.08-.07.09-.06.1-.06.09-.05.09-.05.1-.05.1-.04.1-.03.11-.03.11-.03.11-.02.11-.01.11-.01h.11z" class="fil1"/></g></g></svg>