<svg xmlns="http://www.w3.org/2000/svg" width="138" height="57" fill-rule="evenodd" clip-rule="evenodd" image-rendering="optimizeQuality" shape-rendering="geometricPrecision" text-rendering="geometricPrecision" viewBox="0 0 398.7 165.65"><defs><radialGradient id="id0" cx="149.07" cy="115.06" r="50.52" fx="149.07" fy="115.06" gradientTransform="matrix(1.32753 .04407 -.04407 1.32753 -44 -44)" gradientUnits="userSpaceOnUse"><stop offset="0" stop-color="#fefefe"/><stop offset=".74902" stop-color="#ebecec"/><stop offset="1" stop-color="#d9dada"/></radialGradient><style>.str0{stroke:#2b2a29;stroke-width:2.61;stroke-miterlimit:22.9256}.fil1{fill:none;fill-rule:nonzero}.fil0,.fil2,.fil3{fill:#fefefe;fill-rule:nonzero}.fil0,.fil3{fill:#2b2a29}.fil0{fill:#f08bb2}</style></defs><g id="Слой_x0020_1"><path d="M1.19 104.73C4 87.56 22.88 76.1 37.7 74.78c.02-6.34.33-12.13.33-13.94.01-2.92 11.08-1.25 13.49.7 1.57 1.29.58 5.71.33 12.91.61.19 5.32.79 8.19 2.07 15.35 6.81 34.34 20.72 31.4 51.76-2.34 24.14-33.77 43.53-58.99 35.43-25.29-8.12-36.08-30.24-31.26-58.98z" class="fil0"/><path id="1" d="M1.19 104.73C4 87.56 22.88 76.1 37.7 74.78c.02-6.34.33-12.13.33-13.94.01-2.92 11.08-1.25 13.49.7 1.57 1.29.58 5.71.33 12.91.61.19 5.32.79 8.19 2.07 15.35 6.81 34.34 20.72 31.4 51.76-2.34 24.14-33.77 43.53-58.99 35.43-25.29-8.12-36.08-30.24-31.26-58.98z" class="fil1 str0"/><path d="M83.29 113.14c1.38-3.74-4.67-19.73-14.35-25.91-6.39-4.08-13.99 4.21-11.22 6.33 2.83 2.12 16.03 20.49 16.03 26.85-.02 6.34 7.52-1.62 9.54-7.27z" class="fil2"/><path d="M38.49 4.73c-5.07 7.06.78 32.55 4.72 46.41 2.97-10.78 9.11-36.3 3.54-45.26-1.03-1.6-2.28-2.49-4.04-2.74l-.89-.08c-1.46 0-2.48.52-3.33 1.67zm4.77 53.29c-.67 0-1.27-.43-1.44-1.06-1.44-4.41-13.53-43.31-5.73-54.03C37.72.67 40.14-.34 43.2.1c2.59.4 4.63 1.79 6.13 4.15 7.82 12.59-4.14 51.07-4.63 52.71-.18.63-.79 1.06-1.44 1.06z" class="fil3"/><path fill="url(#id0)" fill-rule="nonzero" d="M106.57 107.75c2.67-16.31 20.62-27.21 34.7-28.47.02-6.01.31-11.52.31-13.24.01-2.77 10.53-1.19 12.81.67 1.5 1.22.57 5.42.33 12.27.57.18 5.05.75 7.78 1.96 14.58 6.47 32.63 19.69 29.84 49.19-2.23 22.94-32.1 41.37-56.06 33.67-24.04-7.72-34.29-28.74-29.71-56.05z"/><path id="1" d="M106.57 107.75c2.67-16.31 20.62-27.21 34.7-28.47.02-6.01.31-11.52.31-13.24.01-2.77 10.53-1.19 12.81.67 1.5 1.22.57 5.42.33 12.27.57.18 5.05.75 7.78 1.96 14.58 6.47 32.63 19.69 29.84 49.19-2.23 22.94-32.1 41.37-56.06 33.67-24.04-7.72-34.29-28.74-29.71-56.05z" class="fil1 str0"/><path d="M184.59 115.75c1.32-3.56-4.44-18.75-13.63-24.63-6.08-3.88-13.3 4-10.67 6.01 2.69 2.02 15.24 19.48 15.23 25.52-.01 6.03 7.15-1.54 9.07-6.9z" class="fil2"/><path d="M142.02 12.72c-4.82 6.71.74 30.93 4.48 44.1 2.82-10.24 8.66-34.5 3.37-43.01-.98-1.52-2.18-2.37-3.84-2.61l-.85-.07c-1.38 0-2.36.5-3.16 1.59zm4.53 50.65c-.63 0-1.2-.42-1.37-1.02-1.37-4.19-12.86-41.16-5.44-51.34 1.55-2.15 3.85-3.11 6.75-2.69 2.46.37 4.41 1.7 5.83 3.94 7.43 11.97-3.94 48.54-4.4 50.09-.17.6-.75 1.01-1.37 1.02z" class="fil3"/><path d="M208.65 104.73c2.81-17.16 21.7-28.63 36.51-29.95.02-6.34.33-12.13.33-13.94.01-2.92 11.08-1.25 13.49.7 1.57 1.29.59 5.71.34 12.91.6.19 5.31.79 8.19 2.07 15.34 6.81 34.34 20.72 31.4 51.76-2.35 24.14-33.78 43.53-58.99 35.43-25.3-8.12-36.08-30.24-31.27-58.98z" class="fil0"/><path id="1" d="M208.65 104.73c2.81-17.16 21.7-28.63 36.51-29.95.02-6.34.33-12.13.33-13.94.01-2.92 11.08-1.25 13.49.7 1.57 1.29.59 5.71.34 12.91.6.19 5.31.79 8.19 2.07 15.34 6.81 34.34 20.72 31.4 51.76-2.35 24.14-33.78 43.53-58.99 35.43-25.3-8.12-36.08-30.24-31.27-58.98z" class="fil1 str0"/><path d="M290.75 113.14c1.39-3.74-4.66-19.72-14.35-25.91-6.38-4.08-13.99 4.21-11.21 6.33 2.82 2.12 16.03 20.49 16.02 26.85-.02 6.34 7.53-1.62 9.54-7.27z" class="fil2"/><path d="M245.95 4.73c-5.07 7.06.78 32.55 4.72 46.41 2.97-10.78 9.11-36.3 3.54-45.26-1.03-1.6-2.28-2.49-4.04-2.74l-.89-.08c-1.45 0-2.48.52-3.33 1.67zm4.78 53.29c-.67 0-1.27-.43-1.45-1.06-1.44-4.41-13.52-43.31-5.72-54.03 1.62-2.26 4.04-3.27 7.1-2.83 2.59.4 4.64 1.79 6.14 4.15 7.81 12.59-4.15 51.07-4.64 52.71-.17.63-.78 1.06-1.43 1.06z" class="fil3"/><g><path fill="#6fa691" fill-rule="nonzero" d="M312.57 107.75c2.67-16.31 20.62-27.21 34.7-28.47.02-6.01.31-11.52.31-13.24.01-2.77 10.53-1.19 12.82.67 1.49 1.22.56 5.42.32 12.27.58.18 5.05.75 7.78 1.96 14.59 6.47 32.64 19.69 29.84 49.19-2.22 22.94-32.1 41.37-56.06 33.67-24.03-7.72-34.28-28.74-29.71-56.05z"/><path id="1" d="M312.57 107.75c2.67-16.31 20.62-27.21 34.7-28.47.02-6.01.31-11.52.31-13.24.01-2.77 10.53-1.19 12.82.67 1.49 1.22.56 5.42.32 12.27.58.18 5.05.75 7.78 1.96 14.59 6.47 32.64 19.69 29.84 49.19-2.22 22.94-32.1 41.37-56.06 33.67-24.03-7.72-34.28-28.74-29.71-56.05z" class="fil1 str0"/></g><path d="M390.59 115.75c1.32-3.56-4.43-18.75-13.63-24.63-6.07-3.88-13.3 4-10.66 6.01 2.68 2.02 15.23 19.48 15.23 25.52-.02 6.03 7.15-1.54 9.06-6.9z" class="fil2"/><path d="M348.02 12.72c-4.82 6.71.74 30.93 4.48 44.1 2.83-10.24 8.66-34.5 3.37-43.01-.98-1.52-2.17-2.37-3.84-2.61l-.85-.07c-1.38 0-2.36.5-3.16 1.59zm4.54 50.65c-.64 0-1.21-.42-1.38-1.02-1.36-4.19-12.85-41.16-5.44-51.34 1.55-2.15 3.85-3.11 6.76-2.69 2.45.37 4.4 1.7 5.82 3.94 7.44 11.97-3.93 48.54-4.4 50.09-.17.6-.75 1.01-1.36 1.02z" class="fil3"/></g></svg>