<svg xmlns="http://www.w3.org/2000/svg" width="136" height="64" fill-rule="evenodd" clip-rule="evenodd" image-rendering="optimizeQuality" shape-rendering="geometricPrecision" text-rendering="geometricPrecision" viewBox="0 0 21.63 10.14"><defs><style>.str0{stroke:#2b2a29;stroke-width:.14;stroke-miterlimit:22.9256}.fil1{fill:none;fill-rule:nonzero}.fil4{fill:#fefefe}.fil2{fill:#f5b2b6}.fil5{fill:#2b2a29;fill-rule:nonzero}</style></defs><g id="Слой_x0020_1"><path fill="#99cfba" d="M.02.03C1.7 1.37 3.36-.61 5.81.97c.21.7.29 2.29 0 4.03-.46.12-.88-1.14-1.42-1.14C2.65 3.87.74 3.04.02.03zM1.8 1.44c.97 1.32 2.69 1.57 2.94.91.03-1.51-1.88-.43-2.94-.91z"/><path id="1" d="M.02.03C1.7 1.37 3.36-.61 5.81.97c.21.7.29 2.29 0 4.03-.46.12-.88-1.14-1.42-1.14C2.65 3.87.74 3.04.02.03zM1.8 1.44c.97 1.32 2.69 1.57 2.94.91.03-1.51-1.88-.43-2.94-.91z" class="fil1 str0"/><path d="M11.64.03C9.97 1.37 8.31-.61 5.85.97c-.08 1.01-.01 3.01-.09 4.02.4.11.82-1.16 1.28-1.14 1.8.09 3.85-.68 4.6-3.82zm-1 .85c.11 0 .21.1.21.22s-.1.21-.21.21c-.12 0-.21-.09-.21-.21s.09-.22.21-.22zm-1.09.54c-.98 1.33-2.69 1.57-2.95.91-.03-1.5 1.88-.42 2.95-.91z" class="fil2"/><path id="1" d="M11.64.03C9.97 1.37 8.31-.61 5.85.97c-.08 1.01-.01 3.01-.09 4.02.4.11.82-1.16 1.28-1.14 1.8.09 3.85-.68 4.6-3.82zm-1 .85c.11 0 .21.1.21.22s-.1.21-.21.21c-.12 0-.21-.09-.21-.21s.09-.22.21-.22zm-1.09.54c-.98 1.33-2.69 1.57-2.95.91-.03-1.5 1.88-.42 2.95-.91z" class="fil1 str0"/><path d="M.73.93L.89.9l1.79 9.2-.16.03z" class="fil2"/><path id="1" d="M.73.93L.89.9l1.79 9.2-.16.03z" class="fil1 str0"/><path fill="#f08bb2" d="M2.09 7.94l.16-.03c.12-.02.23.05.26.17l.34 1.76c.02.12-.06.23-.17.26l-.16.03c-.12.02-.24-.06-.26-.18l-.34-1.76c-.02-.11.05-.23.17-.25z"/><path id="1" d="M2.09 7.94l.16-.03c.12-.02.23.05.26.17l.34 1.76c.02.12-.06.23-.17.26l-.16.03c-.12.02-.24-.06-.26-.18l-.34-1.76c-.02-.11.05-.23.17-.25z" class="fil1 str0"/><g><path d="M18.86 7.14c.49-.2.01-.93-.49-1.13-.24-.09-.31-.33-.68-.25-1.6.04-3.59.19-5.73 1.25-.68.25-1.28 1.12-1.47 1.86-.27 1.01.26 1.89 1.49.21 1.06-.66 2.66-1.48 4.26-1.65 1.42-.15 2.02.45 2.62-.29z" class="fil4"/><path id="1" d="M18.37 6l.05.02.05.03.04.02.05.03.04.03.05.03.04.04.04.04.04.03.04.04.04.05.03.04.03.04.03.04.03.05.02.04.02.04.02.05.02.04.01.05.01.04v.12l-.01.04-.01.03-.02.04-.02.03-.03.03-.04.02-.03.03-.05.02-.01-.02.05-.02.03-.02.03-.03.03-.02.02-.03.02-.04.01-.03.01-.03v-.12l-.01-.04-.01-.04-.02-.04-.01-.05-.03-.04-.02-.04-.03-.05-.03-.04-.03-.04-.03-.04-.04-.04-.03-.04-.04-.04-.04-.03-.05-.04-.04-.03-.04-.03-.05-.03-.04-.03-.05-.02-.05-.02.01-.02zm-.68-.25h-.01l.04-.01h.06l.03-.01h.03l.03.01h.05l.02.01h.02l.03.01.02.01.02.01.02.01.02.01.01.01.02.01.02.02.02.01.01.01.02.01.02.02.01.01.02.01.02.02.02.01.01.01.02.01.02.01.02.01.02.01.02.01-.01.02-.02-.01-.02-.01-.02-.01-.02-.01-.02-.01-.02-.01-.01-.02-.02-.01-.02-.01-.02-.02-.01-.01-.02-.01-.02-.01-.01-.02-.02-.01-.02-.01-.01-.01-.02-.01-.02-.01-.02-.01-.02-.01-.02-.01h-.02l-.03-.01h-.04l-.03-.01h-.03l-.03.01h-.06l-.03.01v-.02zm0 .02zM11.95 7l.2-.1.2-.09.2-.09.2-.08.2-.07.19-.08.2-.06.19-.07.19-.06.19-.05.19-.05.19-.05.19-.05.18-.04.18-.03.19-.04.18-.03.18-.03.17-.02.18-.03.17-.02.17-.02.17-.01.17-.02.16-.01.17-.01.16-.01.16-.01h.16l.15-.01.15-.01h.16v.02h-.16l-.15.01-.15.01h-.16l-.16.01-.16.01-.16.01-.17.01-.17.02-.17.01-.17.02-.17.02-.18.03-.17.02-.18.03-.18.03-.18.04-.18.03-.19.04-.18.05-.19.05-.19.05-.19.05-.19.06-.2.06-.19.07-.2.07-.19.08-.2.08-.2.09-.2.09-.2.1-.01-.02zm.01.02zm-1.48 1.84l.01-.07.03-.07.02-.07.03-.07.02-.07.04-.07.03-.07.03-.08.04-.07.04-.07.04-.07.04-.07.04-.06.05-.07.04-.07.05-.06.05-.07.05-.06.05-.06.06-.06.05-.05.06-.06.06-.05.05-.05.06-.04.06-.05.06-.04.06-.04.06-.03.07-.04.06-.03.06-.02.01.02-.06.02-.06.03-.07.03-.06.04-.06.04-.06.04-.06.04-.05.05-.06.05-.06.05-.05.05-.06.06-.05.06-.05.06-.05.06-.05.06-.05.06-.05.07-.04.07-.04.06-.05.07-.04.07-.03.07-.04.07-.03.07-.04.08-.03.07-.02.07-.03.07-.02.07-.03.07-.01.07-.02-.01zm1.5.23l.01-.01-.12.15-.11.14-.1.12-.1.11-.1.1-.09.08-.09.07-.09.06-.08.04-.07.04-.07.03-.07.01-.07.01-.06-.01-.05-.01-.05-.03-.05-.03-.04-.03-.04-.05-.03-.05-.03-.06-.02-.06-.02-.07-.01-.07-.01-.08-.01-.08V9.24l.01-.09.02-.1.01-.09.03-.1.02.01-.03.09-.01.1-.02.09-.01.09V9.41l.01.08.01.07.01.08.02.06.02.06.03.06.03.05.03.04.04.04.05.03.04.02.06.01h.11l.07-.01.07-.03.07-.03.08-.05.09-.06.08-.07.1-.08.09-.09.1-.11.11-.12.11-.14.11-.15.01.02zm-.01-.02zm4.27-1.63l-.15.02-.15.02-.15.02-.15.03-.15.04-.15.03-.14.04-.15.04-.15.04-.14.05-.15.04-.14.05-.14.06-.14.05-.14.06-.14.05-.14.06-.13.06-.14.06-.13.06-.13.07-.12.06-.13.06-.12.07-.12.06-.12.07-.11.06-.12.06-.11.07-.1.06-.11.06-.1.07-.01-.02.1-.06.11-.07.1-.06.11-.06.12-.07.11-.06.12-.07.12-.06.12-.07.13-.06.13-.06.12-.07.14-.06.13-.06.13-.06.14-.06.14-.05.14-.06.14-.05.14-.06.15-.04.14-.05.15-.05.14-.04.15-.04.15-.04.15-.04.15-.03.15-.03.15-.02.15-.02.15-.02v.02zm0-.02zm2.62-.27h.01l-.06.06-.06.06-.05.05-.06.05-.06.04-.06.03-.06.02-.06.03-.06.01-.07.02h-.06l-.07.01H18l-.07-.01h-.07l-.08-.01-.08-.01-.08-.01-.09-.01-.08-.01-.09-.02-.1-.01-.1-.01h-.1l-.1-.01h-.11l-.11-.01h-.12l-.12.01-.13.01-.13.01v-.02l.13-.01.13-.01.12-.01h.12l.11.01h.11l.1.01h.11l.09.01.1.01.09.02.09.01.08.01.08.01.08.01.08.01h.07l.07.01h.14l.07-.01.06-.01.06-.01.06-.01.06-.02.06-.03.06-.03.06-.04.05-.04.06-.05.05-.06.06-.07.01.02zm-.01-.02z" class="fil5"/></g><g><path fill="#6fa691" d="M17.57 5.75c-1.12-1.26-2.42-1.99-3.98-1.98-.21 0-.79.02-.58-.04 1.26-.36 2.68.33 2.9.44 1.71-.4 4.69.99 4.93-1.46.03-.33-.59-.48-.8-.8.14 1.89-2.24.97-4.04.37 0 0-2.57-1.35-4.49 1.07-.07.46-.17 1.1-.03 1.29-.44.47-.59 2.28-.5 3.26.86-1.34 4.78-2.1 6.59-2.15z"/><path id="1" d="M13.59 3.75l.15.01h.14l.14.01.14.02.14.02.14.02.14.03.14.03.13.03.13.04.13.04.13.05.13.05.13.06.13.05.12.07.12.06.13.07.12.07.12.08.11.08.12.08.12.09.11.09.12.1.11.09.11.1.11.11.11.11.11.11.1.11.11.12-.01.01-.11-.12-.11-.11-.1-.11-.11-.11-.11-.1-.11-.1-.12-.1-.11-.09-.11-.09-.12-.09-.12-.08-.11-.08-.12-.08-.12-.07-.13-.07-.12-.06-.12-.07-.13-.05-.13-.06-.12-.05-.13-.05-.13-.04-.14-.04-.13-.03-.13-.03-.14-.03-.14-.02-.14-.02-.14-.02-.14-.01H13.59v-.03zm-.58-.01l-.01.01h-.02v.01h-.01l.01-.01h-.01.01l.02.01H13.55l.02-.01h.02v.03H12.99l-.01-.01h-.02v-.02l.01-.01.01-.01h.01l.02-.01v.02zm2.9.44h-.01l-.02-.01-.03-.02-.04-.02-.04-.02-.05-.02-.06-.02-.06-.03-.07-.03-.07-.02-.07-.03-.08-.03-.09-.03-.09-.03-.09-.03-.1-.03-.1-.03-.1-.02-.1-.03-.11-.02-.11-.02-.11-.02-.12-.01-.11-.01-.12-.01h-.35l-.12.01-.12.02-.12.02-.12.02-.12.03v-.02l.12-.03.12-.02.12-.02.12-.02.12-.01h.35l.12.01.12.01.11.01.11.02.11.02.11.02.11.03.1.02.1.03.1.03.09.03.09.03.08.03.08.03.08.03.07.02.07.03.06.03.05.02.05.03.05.02.04.01.03.02.02.01h-.01l.01.02zm0 0h-.01.01zm4.94-1.47l-.03.22-.05.2-.06.17-.07.16-.09.14-.1.12-.11.11-.12.09-.14.08-.14.06-.15.05-.16.04-.17.03-.17.02-.18.01-.18.01h-.19l-.19-.01-.19-.01-.2-.01-.2-.02-.2-.01-.2-.02-.19-.01-.2-.02h-.19l-.19-.01h-.19l-.18.01-.18.01-.17.03-.16.03-.01-.02.17-.03.17-.03.18-.01.18-.01h.38l.19.01.2.02.2.01.19.02.2.01.2.02.2.01.19.01.19.01h.19l.18-.01.18-.01.17-.02.17-.03.15-.04.15-.05.14-.06.13-.08.13-.08.11-.11.09-.12.09-.14.07-.15.06-.18.05-.2.03-.22.02.01zm-.82-.8l.02-.01.02.03.02.03.03.03.02.03.03.02.03.03.03.02.03.03.04.02.03.02.03.03.04.02.03.02.04.02.03.02.03.03.04.02.03.02.03.02.03.03.03.02.03.02.02.03.02.02.02.03.02.02.02.03.01.03.01.03.01.02v.07l-.02-.01v-.05l-.01-.03-.01-.03-.01-.02-.01-.03-.02-.02-.02-.03-.02-.02-.03-.02-.02-.03-.03-.02-.03-.02-.03-.02-.03-.02-.04-.03-.03-.02-.03-.02-.04-.02-.03-.02-.04-.03-.03-.02-.04-.02-.03-.03-.03-.02-.03-.03-.03-.02-.03-.03L20.1 2l-.02-.03-.02-.03-.02-.03h.01-.02zm0 0v-.04l.02.03-.02.01zm-4.02.37v-.01l.17.06.17.06.18.06.17.06.18.06.18.05.18.06.18.05.17.05.18.05.17.05.17.04.17.03.16.03.16.02.15.02.15.01h.14l.13-.01.13-.01.12-.03.11-.03.1-.05.09-.06.08-.07.07-.08.06-.09.04-.11.04-.12.02-.14.01-.15-.01-.17h.02l.01.17-.01.15-.02.14-.04.13-.05.11-.06.09-.07.09-.08.07-.09.06-.11.04-.11.04-.12.03-.13.01-.13.01h-.14l-.15-.01-.15-.02-.16-.02-.17-.03-.16-.03-.17-.04-.18-.05-.17-.05-.18-.05-.18-.05-.18-.06-.17-.05-.18-.06-.18-.06-.17-.06-.18-.06-.17-.06.01-.01zm-.01.01zm-4.5 1.06v-.01l.19-.22.18-.19.19-.18.19-.15.19-.14.19-.12.2-.1.19-.09.19-.07.19-.06.19-.05.19-.03.18-.03.18-.01h.34l.16.01.16.02.15.02.14.02.14.03.12.03.12.04.11.03.09.03.09.04.07.03.06.02.05.02.04.02.02.01.01.01-.01.01h-.01l-.02-.01-.03-.02-.05-.02-.06-.03-.08-.02-.08-.04-.1-.03-.11-.03-.11-.04-.13-.03-.13-.03-.14-.02-.15-.02-.16-.02-.16-.01h-.34l-.18.02-.18.02-.18.03-.19.05-.19.06-.19.07-.19.09-.2.1-.19.12-.19.14-.19.15-.18.17-.19.2-.18.21h-.02zm0 0v-.01.01zm-.02 1.29l-.01.01-.01-.02-.01-.03-.01-.02-.01-.03-.01-.03v-.03l-.01-.03v-.07l-.01-.04v-.21l.01-.05V4l.01-.05v-.04l.01-.05v-.05l.01-.05.01-.04v-.05l.01-.05.01-.05v-.04l.01-.05.01-.05v-.04l.01-.04h.02l-.01.04v.05l-.01.04-.01.05v.05l-.01.04-.01.05v.05l-.01.05-.01.04v.05l-.01.05v.05l-.01.04v.14l-.01.04v.17l.01.04v.07l.01.03v.03l.01.03.01.02.01.03.01.02.01.02v.01l-.01-.01zm.01 0h.01l-.01.01v-.01zm-.5 3.26h-.02l-.01-.09-.01-.1v-.1l-.01-.11V7.16l.01-.12v-.11l.01-.12v-.13l.01-.12.01-.12.01-.12.02-.12.01-.12.02-.12.01-.12.02-.11.02-.11.03-.11.02-.1.03-.1.03-.1.02-.09.04-.09.03-.08.03-.08.04-.07.04-.06.03-.06.05-.04.01.01-.04.05-.04.05-.03.06-.04.07-.03.08-.04.08-.03.08-.03.09-.02.1-.03.1-.02.11-.02.1-.03.11-.02.12-.01.11-.02.12-.01.12-.02.12-.01.12-.01.12-.01.13v.12l-.01.12v.12l-.01.11V7.39l.01.11V7.71l.01.09.01.1-.02-.01.02.01zm0 0l-.02.03V7.9h.02zm6.59-2.15l-.01.01-.17.01-.19.01-.2.02-.2.01-.22.03-.22.02-.23.04-.24.03-.24.04-.24.04-.25.05-.25.05-.25.06-.25.05-.25.07-.25.06-.24.07-.24.08-.24.07-.23.09-.22.08-.22.09-.21.09-.2.1-.19.09-.17.11-.17.1-.15.11-.14.12-.12.11-.1.12-.09.12-.02-.01.09-.12.11-.12.12-.12.14-.11.15-.11.17-.11.17-.1.19-.1.2-.1.21-.09.22-.09.22-.08.23-.09.24-.07.24-.08.25-.07.24-.06.25-.07.26-.05.25-.06.24-.05.25-.05.25-.04.24-.04.23-.03.23-.04.23-.02.21-.03.21-.01.2-.02.19-.01.17-.01v.02l.01-.01zm0 0l.02.01h-.03l.01-.01z" class="fil5"/></g><g><path d="M20.8.76c-.59-.15-1.18.22-1.33.83-.15.6.2 1.2.78 1.35.58.15 1.18-.22 1.33-.82.15-.61-.2-1.21-.78-1.36z" class="fil4"/><path id="1" fill="#2b2a29" fill-rule="nonzero" d="M19.46 1.58l.01-.05.02-.06.02-.05.02-.05.03-.05.03-.05.03-.05.03-.04.03-.05.04-.04.03-.04.04-.04.04-.03.05-.04.04-.03.04-.03.05-.02.05-.03.05-.02.05-.02.05-.02.05-.01.05-.02.05-.01h.06l.05-.01h.16l.06.01.05.01.06.01v.02l-.06-.01-.05-.01-.06-.01h-.16l-.05.01h-.05l-.06.01-.05.02-.05.01-.05.02-.05.02-.04.02-.05.02-.04.03-.05.03-.04.03-.04.03-.04.04-.04.04-.04.03-.03.05-.04.04-.03.04-.03.05-.02.05-.03.05-.02.05-.02.05-.02.05-.01.06-.02-.01zm.79 1.37l-.06-.01-.05-.02-.05-.02-.05-.03-.05-.02-.05-.03-.04-.03-.05-.03-.04-.03-.04-.04-.04-.04-.03-.04-.04-.04-.03-.04-.03-.05-.03-.04-.02-.05-.03-.05-.02-.05-.02-.05-.01-.05-.02-.05-.01-.05-.01-.06v-.05l-.01-.06v-.11l.01-.06V1.7l.01-.06.02-.06.02.01-.02.05-.01.06v.06l-.01.05v.11l.01.05v.06l.01.05.01.05.02.06.01.05.02.05.02.04.03.05.02.05.03.04.03.05.03.04.03.04.04.04.04.03.04.04.04.03.04.03.04.03.05.03.05.03.05.02.05.02.05.02.05.01v.02zm1.34-.83l-.01.06-.02.05-.02.05-.03.05-.02.06-.03.04-.03.05-.03.05-.03.04-.04.04-.04.04-.04.04-.04.03-.04.04-.04.03-.05.03-.04.02-.05.03-.05.02-.05.02-.05.02-.05.02-.05.01-.06.01-.05.01h-.22l-.05-.01-.06-.01-.05-.01v-.02l.06.01.05.01.06.01H20.63l.05-.01.05-.01.05-.01.05-.02.05-.02.05-.02.05-.02.05-.02.04-.03.05-.03.04-.03.04-.03.04-.04.04-.03.04-.04.03-.04.03-.05.03-.04.03-.05.03-.04.02-.05.03-.05.02-.06.02-.05.01-.06.02.01zM20.8.75l.05.02.06.01.05.02.05.03.05.02.05.03.04.03.04.03.05.04.04.03.03.04.04.04.03.04.04.04.03.05.02.04.03.05.02.05.02.05.02.05.02.05.01.05.02.06v.05l.01.05v.06l.01.06-.01.05v.06l-.01.06-.01.05-.01.06-.02-.01.01-.05.01-.06.01-.05v-.06l.01-.05-.01-.06v-.05l-.01-.06v-.05l-.02-.05-.01-.05-.02-.05-.01-.05-.03-.05-.02-.05-.02-.05-.03-.04-.03-.05-.03-.04-.04-.04-.03-.04-.04-.03-.04-.04-.04-.03-.04-.03-.05-.03-.04-.03L21 .85l-.05-.03L20.9.8l-.05-.01-.05-.02V.75z"/></g></g></svg>