<svg xmlns="http://www.w3.org/2000/svg" width="118" height="71" fill-rule="evenodd" clip-rule="evenodd" image-rendering="optimizeQuality" shape-rendering="geometricPrecision" text-rendering="geometricPrecision" viewBox="0 0 16.11 9.62"><defs><style>.fil4{fill:#f5b2b6}.fil2{fill:#f08bb2}.fil0{fill:#c4d985}.fil3{fill:#a1b567}.fil1,.fil5{fill:#2b2a29;fill-rule:nonzero}</style></defs><g id="Слой_x0020_1"><path d="M3.89 6.46l.07.18L.5 8l-.07-.18z" class="fil0"/><path id="1" d="M3.94 6.65l-.08-.18.05-.01.07.17-.01.03-.03-.01zm.04-.02l.01.02-.02.01.01-.03zM.49 7.98l3.46-1.36.02.04L.51 8.02l-.03-.01.01-.03zm.02.04l-.02.01-.01-.02.03.01zm-.06-.21l.07.18-.04.02-.07-.18.01-.03.03.01zm-.04.02L.4 7.81l.02-.01-.01.03zm3.48-1.34L.44 7.84.42 7.8l3.46-1.36.03.02-.02.03zm-.01-.05l.02-.01.01.03-.03-.02z" class="fil1"/><path d="M5.15 2.8l.19-.03L6.4 8.03l-.19.03L5.15 2.8zm-1.08.36l.18.02-.44 3.46-.19-.02.45-3.46zm-2.28-.98l.18.04L.61 7.86l-.19-.04 1.37-5.64zM1.7 3.37l.19-.03 1.07 6.04-.18.03L1.7 3.37z" class="fil0"/><path id="1" d="M5.34 2.79l-.19.04v-.05l.18-.03.03.02-.02.02zm-.01-.04l.02-.01.01.03-.03-.02zm1.05 5.29L5.31 2.78l.05-.01 1.06 5.26-.02.02-.02-.01zm.04-.01l.01.02H6.4l.02-.02zm-.21.01l.19-.03v.04l-.18.04-.03-.02.02-.03zm.01.05H6.2l-.01-.02.03.02zM5.17 2.8l1.07 5.26-.05.01-1.06-5.26.02-.03.02.02zm-.04.01l-.01-.02.03-.01-.02.03zm-.88.39l-.19-.02.01-.05.19.02.02.03-.03.02zm.01-.05h.02v.03l-.02-.03zm-.47 3.49l.44-3.47.05.01-.45 3.47-.02.02-.02-.03zm.04.01v.02h-.02l.02-.02zm-.2-.05l.18.02v.05l-.19-.02-.02-.03.03-.02zm-.01.05H3.6v-.03l.02.03zm.47-3.49l-.44 3.47-.05-.01.44-3.47.03-.02.02.03zm-.05-.01l.01-.02h.02l-.03.02zm-2.08-.9l-.18-.05.01-.04.19.04.01.03-.03.02zm.02-.05l.02.01-.01.02-.01-.03zM.58 7.86l1.37-5.64.04.01L.63 7.87l-.03.02-.02-.03zm.05.01l-.01.02H.6l.03-.02zm-.2-.07l.18.04-.01.05-.18-.05-.02-.03.03-.01zm-.01.04H.39l.01-.03.02.03zm1.39-5.66L.44 7.82.4 7.81l1.36-5.64.03-.01.02.02zm-.05-.01l.01-.02.02.01-.03.01zm.13 1.19l-.18.03-.01-.04.18-.04.03.02-.02.03zm-.01-.05h.03v.02l-.03-.02zm1.06 6.07L1.86 3.34l.05-.01 1.08 6.04-.02.03-.03-.02zm.05-.01v.02l-.02.01.02-.03zm-.22.02l.19-.04.01.05-.19.03-.03-.02.02-.02zm.01.04l-.02.01-.01-.03.03.02zM1.72 3.37L2.8 9.4l-.05.01-1.07-6.04.02-.02.02.02zm-.04 0v-.02h.02l-.02.02z" class="fil1"/><path d="M5.17 4.94c.16-.06.31-.24.1-.48-.15-.18-.74-.73-.83-.8-.25-.27.26-.08-.52-.32-.73.14-1.7-.14-2.32-.06-.12.07-.09.72-.02.91.16.41.95.86 1.09 1.04.27.18.4.4 1.03.18.4-.14.96-.28 1.47-.47z" class="fil2"/><path id="1" d="M5.29 4.44l.02.02.02.03.01.02.01.02.02.03.01.02v.02l.01.02v.02l.01.02v.04l-.01.02v.04l-.01.02-.01.01v.02l-.01.01-.01.02-.02.01-.01.02-.01.01-.01.01-.02.01-.01.01-.01.01-.02.01-.01.01-.02.01H5.2l-.02.01-.02-.04.02-.01.01-.01h.01l.02-.01.01-.01.01-.01.02-.01.01-.01.01-.01.01-.01.01-.01.01-.01.01-.01.01-.01v-.02l.01-.01v-.01l.01-.02v-.1l-.01-.02-.01-.01-.01-.02-.01-.02-.01-.02-.01-.03-.02-.02-.02-.02.04-.03zm-.83-.8l.01.01.01.01.02.01.01.02.02.01.02.02.03.03.02.02.03.02.03.03.03.03.03.03.03.03.03.03.03.03.04.03.03.03.03.03.04.03.03.04.03.03.03.03.03.03.03.03.03.03.03.03.03.02.02.03.02.02.02.02.02.02.02.02-.04.03-.01-.02-.02-.02-.02-.02-.02-.02-.03-.03-.02-.02-.03-.03-.03-.03-.03-.03-.03-.03-.03-.03-.03-.03-.04-.03-.03-.03-.03-.04-.04-.03L4.78 4l-.03-.03-.03-.03-.03-.03-.03-.03-.03-.03-.03-.02-.03-.03-.02-.02-.03-.02-.02-.02-.02-.02-.01-.01-.02-.02-.01-.01-.01-.01.03-.03zm-.03.03zm-.51-.35h.01l.07.02.06.02.06.02.04.01.05.01.03.01.04.01.02.01.03.01h.01l.02.01h.01l.01.01h.01l.01.01v.04h-.01v.04l.01.01.01.02.01.02.02.02.02.02-.03.03-.02-.02-.02-.02-.02-.03-.01-.01-.01-.02v-.02l-.01-.01V3.5l.01-.01.01-.01v.02h-.01l-.01-.01h-.01l-.02-.01h-.02l-.03-.01-.03-.01-.04-.01-.04-.01-.05-.02-.05-.01-.07-.02-.07-.02h.02l-.01-.05zm0 0h.01-.01zm-2.33-.06h.01l.06-.01h.06l.06-.01h.13l.07.01h.14l.08.01h.07l.07.01.08.01.07.01h.08l.07.01.08.01.08.01.08.01h.07l.08.01h.08l.08.01h.07l.08.01H3.56l.08-.01h.07l.07-.01.07-.01.07-.01.01.05-.07.01-.08.01h-.07l-.07.01H3.18l-.07-.01h-.08l-.08-.01-.08-.01-.08-.01h-.07l-.08-.01-.08-.01-.07-.01-.08-.01h-.07l-.08-.01-.07-.01h-.07l-.07-.01h-.33l-.06.01H1.6h.01l-.02-.04zm0 0h.01-.01zm-.03.94l-.01-.02v-.02l-.01-.03v-.02l-.01-.03-.01-.03v-.04l-.01-.03v-.07l-.01-.03V3.51l.01-.03v-.06l.01-.03.01-.02v-.03l.01-.02.01-.02.01-.01.02-.02.01-.01.02.04v.01H1.6l-.01.02-.01.01v.02l-.01.02-.01.02v.03l-.01.03v.09l-.01.03V3.8l.01.04v.07l.01.03v.07l.01.03v.03l.01.03.01.02v.03l.01.02v.02l-.04.01zm1.1 1.05l-.01-.01-.01-.01-.02-.02-.02-.02-.03-.02-.02-.03-.03-.02-.04-.03-.03-.02-.04-.03-.04-.03-.04-.03-.04-.03-.04-.04-.05-.03-.04-.03-.04-.04-.05-.03-.04-.04-.04-.03-.05-.04-.04-.04-.04-.04-.04-.03-.04-.04-.03-.04-.04-.04-.03-.04-.03-.04-.03-.04-.02-.04-.02-.04-.02-.04.04-.01.02.03.02.04.02.04.03.03.03.04.03.04.03.04.04.04.03.03.04.04.04.04.04.03.05.04.04.04.04.03.05.04.04.03.04.03.05.04.04.03.04.03.04.03.04.03.03.03.04.03.03.02.03.03.03.02.03.02.02.02.02.02.02.02h-.01l-.02.04zm0 0h-.01v-.01l.01.01zm1.04.19l-.05.02-.06.01-.05.02-.05.01-.05.01-.05.01h-.04l-.04.01H3.2l-.04-.01h-.03l-.03-.01-.03-.01-.03-.01-.03-.01-.02-.01-.03-.01-.02-.02-.03-.01-.02-.01-.03-.02-.02-.02-.02-.01-.02-.02-.03-.02-.02-.01-.02-.02-.02-.02-.03-.02-.02-.01.02-.04.03.02.02.01.03.02.02.02.02.02.02.01.03.02.02.02.02.01.02.02.03.01.02.01.02.02.03.01.02.01.03.01.02.01.03.01h.03l.03.01H3.35l.04-.01.04-.01.05-.01.05-.01.05-.01.05-.02.06-.02.01.05zm1.48-.48l-.05.02-.05.02-.05.01-.04.02-.05.02-.05.01-.05.02-.05.02-.05.01-.05.02-.05.01-.05.02-.05.02-.04.01-.05.01-.05.02-.05.01-.04.02-.05.01-.05.02-.04.01-.05.01-.04.02-.05.01-.04.01-.04.02-.05.01-.04.01-.04.02-.04.01-.04.01-.04.02-.01-.05.04-.01.04-.01.04-.02.04-.01.04-.01.04-.02.05-.01.04-.01.04-.02.05-.01.04-.01.05-.02.05-.01.04-.02.05-.01.05-.01.04-.02.05-.01.05-.02.05-.01.05-.02.05-.01.05-.02.04-.02.05-.01.05-.02.05-.02.05-.01.05-.02.05-.02.05-.02.04-.01.02.04z" class="fil1"/><path d="M.54 2.33c-.02.24.03.43.08.53.3.51.55 1.01 1.5 1.56.37.25.88.34 1.55.22 1.19-.18 2.26-.66 3.11-1.05.3-.13.24-.72-.11-.87-.85-.34-1.63-.53-2.63-.77-.03.01-.33-.05-.38-.05 0 .07 0 .15-.01.21.2.08.65.21.87.31.39.2.41.58-.03.73l-1.5.45c-.42.05-.9-.04-1.22-.23C1.26 3.11.73 2.73.54 2.33z" class="fil3"/><path id="1" d="M.64 2.85l-.04.02-.01-.01v-.01l-.01-.01v-.01l-.01-.02v-.02l-.01-.02v-.01l-.01-.01v-.03L.54 2.7v-.03l-.01-.02v-.03L.52 2.6V2.48l-.01-.02v-.02l.01-.02V2.33l.05.01-.01.02v.18l.01.02v.07l.01.01v.03l.01.02v.03l.01.01v.02l.01.01v.03l.01.01v.01l.01.01v.01l.01.01v.01zm-.04.02zM2.14 4.4l-.03.03v.01l-.08-.06-.09-.05-.08-.05-.07-.05-.08-.05-.07-.05-.06-.05-.06-.05-.06-.05-.06-.05-.06-.05-.05-.05-.05-.05-.04-.05-.05-.04-.04-.05-.04-.05-.04-.05-.04-.05-.03-.05-.04-.04-.03-.05-.03-.05-.03-.05L.8 3.2l-.03-.04-.03-.05-.03-.05-.03-.05-.02-.04-.03-.05-.03-.05.04-.02.03.05.03.04.02.05.03.05.03.05.03.04.03.05.03.05.03.04.03.05.03.05.04.05.03.04.04.05.04.05.04.05.04.04.04.05.05.05.05.05.05.05.05.05.06.04.05.05.07.05.06.05.07.05.07.05.08.05.08.05.08.05.09.06zm0 0v-.01.01zm1.52.22l.01.05-.06.01-.06.01h-.07l-.06.01-.05.01h-.12l-.06.01h-.16l-.05-.01h-.05l-.05-.01h-.05l-.05-.01-.05-.01h-.05l-.04-.02-.05-.01-.04-.01-.05-.01-.04-.02-.04-.01-.04-.02-.05-.02-.03-.02-.04-.02-.04-.02-.04-.02-.03-.02-.04-.03.03-.03.03.02.04.02.03.02.04.02.04.02.03.02.04.02.04.01.04.02.05.01.04.02.04.01.05.01.04.01.05.01.04.01h.05l.05.01h.05l.05.01h.27l.05-.01h.12l.06-.01.06-.01.06-.01.06-.01zm0 0zm3.11-1.05l.02.04-.08.04-.08.03-.08.04-.09.04-.08.04-.09.04-.09.03-.09.04-.09.04-.09.04-.09.04-.09.04-.1.03-.09.04-.1.04-.1.03-.1.04-.1.03-.1.04-.1.03-.1.04-.1.03-.11.03-.1.03-.11.03-.11.02-.11.03-.11.02-.11.03-.11.02-.11.02-.11.02-.01-.05.11-.02.11-.02.11-.02.11-.02.11-.03.11-.02.11-.03.1-.03.11-.03.1-.03.11-.03.1-.03.1-.04.1-.03.1-.03.1-.04.09-.04.1-.03.1-.04.09-.04.09-.04.1-.03.09-.04.09-.04.09-.04.08-.04.09-.03.08-.04.09-.04.08-.04.08-.03.08-.04zm0 0h.01-.01zm-.11-.82l.02-.05.03.02.03.02.03.02.03.02.03.03.02.02.03.03.02.03.02.03.01.04.02.03.01.03.01.04.01.03.01.04v.03L7 3.2v.07l-.01.03v.03l-.01.04-.01.03-.01.03-.01.03-.02.03-.02.02-.02.03-.02.02-.02.02-.03.02-.03.01-.02-.04.03-.01.02-.02.02-.01.02-.02.02-.02.01-.03.02-.02.01-.03.01-.03.01-.02v-.03l.01-.03v-.13l-.01-.04V3.1l-.01-.03-.01-.03-.01-.03-.02-.03-.01-.03-.02-.03-.02-.03-.02-.03-.02-.02-.03-.02-.02-.02-.03-.02-.03-.02-.03-.01zm.02-.05zm-2.63-.73l-.01-.05h.01l.09.03.09.02.09.02.09.02.09.03.09.02.08.02.09.02.08.02.09.03.08.02.08.02.09.02.08.02.08.03.08.02.08.02.08.02.08.03.07.02.08.03.08.02.08.03.08.02.08.03.07.03.08.02.08.03.08.03.08.03.08.03.08.03-.02.05-.08-.04-.08-.03-.08-.03-.07-.02-.08-.03-.08-.03-.08-.03-.08-.02-.07-.03-.08-.03-.08-.02-.08-.02-.08-.03-.08-.02-.08-.02-.08-.03-.08-.02-.08-.02-.08-.02-.08-.03L5 2.21l-.08-.02-.09-.02-.08-.02-.09-.02-.08-.03-.09-.02-.09-.02-.09-.02-.09-.03-.09-.02-.09-.02h.01zm-.01-.05h.01-.01zm-.36-.02l-.04.01.01-.03h.08l.01.01h.06l.01.01h.05l.02.01h.06l.01.01h.09l.01.05h-.08l-.01-.01H3.9l-.01-.01h-.05l-.02-.01h-.06l-.01-.01h-.09l.02-.03zm-.04.01l-.01-.03h.02l-.01.03zm.02.18l-.02.05-.02-.03.01-.01V1.97h.01V1.91l.04-.01v.17l-.01.01v.04l-.01-.03zm-.02.05l-.02-.01v-.02l.02.03zm.89.26l-.02.04-.02-.01-.02-.01-.03-.01-.02-.01-.03-.01-.02-.01-.03-.01-.03-.01-.03-.01-.03-.01-.02-.01-.03-.01-.04-.01-.03-.01-.03-.01-.03-.01-.03-.01-.03-.01-.03-.01-.03-.01-.03-.01-.03-.01-.03-.01-.03-.01-.03-.01-.02-.01h-.03l-.02-.01-.03-.01-.02-.01-.02-.01h-.02l.02-.05.01.01.03.01.02.01h.02l.03.01.02.01.03.01.03.01.02.01.03.01.03.01.03.01h.03l.03.01.04.01.03.01.03.01.03.02.03.01.03.01.03.01.03.01.03.01.03.01.03.01.02.01.03.01.03.01.02.01.03.01.02.01.02.01zm0 0zm-.04.78l-.01-.05.04-.01.03-.02.04-.02.03-.01.03-.02.02-.02.02-.02.02-.02.02-.03.02-.02.01-.02.01-.02.01-.03.01-.02V2.76l-.01-.03-.01-.02-.01-.03-.01-.02-.01-.02-.02-.03-.02-.02-.02-.02-.02-.03-.03-.02-.02-.02-.03-.02-.04-.02-.03-.02.02-.04.04.02.03.02.03.02.03.03.03.02.02.02.03.03.02.02.02.03.01.03.02.02.01.03.01.03v.03l.01.03v.05l-.01.03-.01.03-.01.02-.01.03-.01.03-.02.02-.02.03-.02.02-.03.02-.03.02-.03.02-.03.02-.04.02-.04.02-.04.01v.01zm0-.01v.01-.01zM3 3.62l-.01-.05.04-.01.05-.01.05-.02.04-.01.05-.02.05-.01.04-.01.05-.02.05-.01.04-.01.05-.02.05-.01.04-.02.05-.01.05-.01.04-.02.05-.01.05-.02.04-.01.05-.01.05-.02.04-.01.05-.01.05-.02.04-.01.05-.02.05-.01.04-.01.05-.02.05-.01.04-.02.05-.01.01.05-.04.01-.05.01-.05.02-.04.01-.05.01-.05.02-.04.01-.05.02-.05.01-.04.01-.05.02-.05.01-.04.02-.05.01-.05.01-.04.02-.05.01-.05.01-.04.02-.05.01-.05.02-.04.01-.05.01-.05.02-.04.01-.05.01-.05.02-.04.01-.05.02-.05.01-.04.01-.05.02zm0 0zm-1.24-.23l.02-.04.03.02.03.01.03.02.04.02.03.01.03.02.04.01.04.01.03.01.04.02.04.01.03.01.04.01.04.01.04.01h.04l.04.01.04.01h.04l.04.01h.08l.04.01h.2l.04-.01h.08l.04-.01.01.05h-.04l-.04.01h-.13l-.04.01h-.04l-.04-.01h-.12l-.04-.01h-.05l-.04-.01h-.04l-.04-.01-.04-.01-.04-.01-.04-.01-.04-.01-.04-.01-.03-.01-.04-.01-.04-.01-.04-.02-.03-.01-.04-.02-.03-.01-.04-.02-.03-.01-.03-.02-.03-.02zm.02-.04zM.57 2.34l-.05-.01.04-.01.02.04.02.04.02.03.03.04.02.03.03.04.03.03.03.04.03.04.03.03.04.03.03.04.04.03.04.04.04.03.04.03.04.04.04.03.05.03.04.03.04.03.05.04.05.03.04.02.05.03.04.03.05.03.05.03.05.02.04.03.05.03.05.02-.02.04-.05-.02-.05-.03-.05-.03-.04-.02-.05-.03-.05-.03-.05-.03-.04-.03-.05-.03-.05-.03-.04-.03-.05-.03-.04-.03-.04-.03-.05-.04-.04-.03-.04-.03-.04-.04-.04-.03-.04-.04-.03-.03-.04-.04-.03-.03-.04-.04-.03-.04-.03-.03-.02-.04-.03-.04-.03-.03-.02-.04-.02-.04-.02-.04h.05zm-.05-.01l.01-.08.03.07-.04.01z" class="fil1"/><path d="M2.63.04c.65.08.99.48 1.06.98.16.84.3 1.28.04 2.33-.68.09-1.24.22-1.77.38-.37-.53-.93-.99-1.12-1.57C.7 1.75.72 1.48.75 1.08.89.24 1.78-.06 2.63.04z" class="fil4"/><path id="1" d="M3.71 1.02l-.04.01v-.01L3.66.98 3.65.93 3.64.89 3.63.85 3.62.8 3.6.76 3.58.72 3.56.68 3.54.64 3.52.6 3.5.56 3.48.53 3.45.49 3.42.46 3.39.42 3.36.39 3.33.36 3.29.33 3.26.3 3.22.27 3.18.25 3.14.22 3.09.2 3.05.18 3 .16 2.95.14 2.9.12 2.85.11 2.8.09 2.74.08 2.69.07 2.63.06V.02l.06.01.06.01.06.01.05.01.06.02.05.01.05.02.05.02.04.03.05.02.04.03.04.02.04.03.04.03.04.03.03.04.04.03.03.04.03.03.02.04.03.04.02.04.03.04.02.04.02.04.01.04.02.05.01.04.02.05.01.04.01.05v.05zm-.04.01v-.01.01zm.06 2.34v-.04l-.02.01.02-.09.02-.1.02-.09.02-.08.01-.09.01-.08.01-.08.01-.07.01-.08v-.07l.01-.07v-.27l-.01-.06v-.07l-.01-.06v-.07l-.01-.06-.01-.06-.01-.07-.01-.06-.01-.07-.01-.06-.02-.07-.01-.07-.01-.07-.02-.07-.01-.07-.02-.08-.01-.07.04-.01.02.07.01.08.02.07.01.07.02.07.01.07.01.07.01.07.01.06.02.07.01.06v.06l.01.07.01.06.01.07v.13l.01.06v.14l-.01.07V2.59l-.01.07-.01.08-.01.08-.01.08-.02.09-.01.08-.02.09-.02.1-.03.1-.02.01zm.02-.01v.01h-.02l.02-.01zm-1.81.38l.03-.02-.02-.01.05-.02.05-.01.05-.02.05-.01.05-.02.05-.01.06-.01.05-.02.05-.01.05-.01.05-.02.06-.01.05-.01.05-.02.06-.01.05-.01.06-.01.05-.01.06-.02.06-.01.05-.01.06-.01.06-.01.06-.01.06-.01.06-.01.06-.01.06-.01.06-.01.06-.01h.06l.07-.01v.04l-.06.01-.06.01-.06.01-.07.01-.06.01-.06.01-.06.01-.06.01-.05.01-.06.01-.06.01-.06.01-.05.01-.06.01-.05.01-.06.01-.05.02-.06.01-.05.01-.05.01-.05.02-.06.01-.05.01-.05.02-.05.01-.05.01-.05.02-.06.01-.05.02-.05.01-.05.02-.05.01-.02-.01zm.02.01l-.01.01-.01-.02.02.01zM.82 2.17l.04-.01.02.05.02.05.02.05.03.05.02.06.03.05.03.05.03.05.03.04.04.05.03.05.04.05.04.05.03.05.04.04.04.05.04.05.04.05.04.04.04.05.04.05.04.04.04.05.04.05.04.05.04.04.04.05.04.05.04.05.03.05.04.05.03.05-.03.02-.04-.05-.03-.04-.04-.05-.04-.05-.04-.05-.03-.05-.04-.04-.04-.05-.04-.05-.04-.05-.04-.04-.04-.05-.04-.05-.05-.04-.04-.05-.03-.05-.04-.05-.04-.04-.04-.05-.04-.05-.03-.05-.04-.05-.03-.05-.04-.05-.03-.05-.03-.05-.03-.05-.02-.05-.03-.06-.02-.05-.02-.05-.02-.06zm-.09-1.1l.05.01-.01.04v.1l-.01.04v.13l-.01.03v.16l.01.04v.09l.01.03v.07l.01.03v.03l.01.04.01.03.01.03.01.04.01.04.01.03.01.04.01.04-.04.01-.02-.04-.01-.04-.01-.03-.01-.04-.01-.03-.01-.04v-.03l-.01-.04-.01-.03v-.04l-.01-.03v-.06l-.01-.04V1.32l.01-.03v-.1l.01-.04v-.08zm0 .01v-.01.01zM2.63.02v.04h-.08L2.47.05h-.32l-.08.01L2 .07l-.08.01-.07.01-.08.02-.07.02-.07.02-.07.02L1.5.2l-.07.03-.06.03-.06.04-.06.03-.05.04-.06.05-.05.04-.04.05L1 .56.96.62.93.68.89.74.86.8.83.87.81.93l-.02.08-.01.07-.05-.01L.75 1 .77.92.79.85.82.78.85.71.89.65.92.59.97.54l.04-.06.05-.05.05-.05.06-.04.06-.04.06-.04.06-.04.06-.03.07-.03.07-.03.07-.02.07-.03.07-.02.08-.01.07-.02.08-.01.08-.01h.08L2.23 0h.24l.08.01.08.01z" class="fil1"/><path d="M6.24 7.83l.07.17-3.42 1.4-.07-.17z" class="fil0"/><path id="1" d="M6.29 8.01l-.07-.17.04-.02.08.17-.02.03-.03-.01zm.05-.02l.01.03h-.03l.02-.03zM2.88 9.38l3.43-1.4.01.04-3.42 1.4-.03-.01.01-.03zm.02.04l-.02.01-.01-.02.03.01zm-.06-.2l.08.17-.05.02-.07-.17.01-.03.03.01zm-.04.02l-.01-.02.02-.01-.01.03zm3.45-1.39l-3.42 1.4-.02-.04 3.42-1.4.03.01-.01.03zm-.02-.04l.02-.01.01.02-.03-.01z" class="fil1"/><path d="M.86 2.19c-.1.05-.21.1-.32.14.35.55.55 1.09 1.58 1.68.37.26.88.35 1.55.23 1.19-.18 2.08-.55 2.93-.93.55-.27.29-.55-.07-.7-.84-.34-1.43-.62-2.42-.87-.07-.01-.22-.06-.29-.06.01.07.04.2.04.29.21.05.51.14.72.25.39.2.35.38-.09.53-.5.15-1 .3-1.5.44-.42.06-.9-.03-1.22-.22-.51-.26-.72-.38-.91-.78z" class="fil0"/><path id="1" d="M.56 2.32l-.04.03.01-.04h.01l.01-.01h.02l.01-.01h.01l.01-.01h.01l.01-.01h.01l.01-.01h.02l.01-.01h.01l.01-.01H.7l.01-.01h.02l.01-.01h.01l.01-.01h.01l.01-.01h.01l.01-.01h.02l.01-.01h.01l.01-.01.02.05H.85l-.01.01H.83l-.01.01H.81l-.01.01H.78l-.01.01H.76l-.01.01H.74l-.01.01H.72l-.01.01H.69l-.01.01H.67l-.01.01H.65l-.01.01H.62l-.01.01H.6l-.01.01H.58l-.01.01H.55l.01-.03zm-.04.03l-.01-.03.02-.01-.01.04zM2.14 4l-.03.03-.09-.05-.09-.06-.09-.05-.08-.06-.08-.05-.07-.06-.07-.05-.06-.05-.07-.06-.06-.05-.05-.05-.06-.06-.05-.05-.04-.05-.05-.06-.04-.05-.04-.05-.04-.05-.04-.06-.04-.05-.03-.05-.04-.05-.03-.05-.03-.05-.03-.06-.03-.05-.03-.05-.03-.05-.03-.05-.03-.05-.04-.05-.03-.05.04-.03.03.05.04.05.03.06.03.05.03.05.03.05.03.05.03.05.03.05.03.05.04.06.03.05.04.05.03.05.04.05.04.05.05.05.04.06.05.05.05.05.05.05.06.05.05.06.07.05.06.05.07.06.07.05.08.05.08.06.08.05.09.06.1.05V4zm0-.01V4v-.01zm1.52.23l.01.05-.06.01-.06.01h-.07l-.06.01-.05.01h-.18l-.05.01h-.06l-.05-.01h-.1l-.05-.01h-.05l-.05-.01-.05-.01-.05-.01-.04-.01-.05-.01-.04-.01-.05-.01-.04-.02-.04-.01-.04-.02-.05-.02-.03-.02-.04-.02-.04-.02-.04-.02-.03-.02-.04-.03.03-.03.03.02.04.02.03.02.04.02.04.02.03.02.04.02.04.01.04.02.05.01.04.02.04.01.05.01.04.01.05.01.04.01h.05l.05.01h.05l.05.01h.27l.05-.01h.06l.06-.01h.06l.06-.01.06-.01.06-.01zm0 0zm2.93-.93l.02.04-.08.04-.08.03-.08.04-.08.03-.08.04-.08.03-.09.04-.08.03-.08.04-.09.03-.08.03-.09.04-.08.03-.09.03-.09.03-.09.03-.09.03-.09.03-.09.03-.1.03-.09.03-.1.02-.09.03-.1.03-.1.02-.11.02-.1.03-.1.02-.11.02-.11.02-.11.02-.11.02-.01-.05.11-.02.11-.02.11-.02.11-.02.1-.02.1-.02.11-.03.1-.02.09-.03.1-.02.1-.03.09-.03.09-.02.1-.03.09-.03.09-.03.09-.03.08-.03.09-.04.09-.03.08-.03.09-.03.08-.04.08-.03.09-.03.08-.04.08-.03.08-.04.08-.03.08-.04.08-.04.08-.03zm.02.04zm-.08-.7l.01-.04.04.02.03.01.03.02.03.01.03.02.03.02.03.02.03.02.02.02.02.02.02.02.02.02.02.02.02.03.01.02.01.03.01.02v.08l-.01.03-.01.03-.01.02-.02.03-.02.03-.02.02-.03.03-.04.03-.03.02-.04.03-.05.02-.05.03-.02-.04.05-.03.04-.02.04-.03.04-.02.03-.03.02-.02.02-.02.02-.03.02-.02.01-.02.01-.02V2.94l-.01-.02V2.9l-.01-.02-.02-.02-.01-.02-.02-.02-.02-.02-.02-.02-.02-.02-.03-.01-.02-.02-.03-.02-.03-.02-.03-.01-.03-.02-.03-.01-.03-.02zm.01-.04zM4.1 1.77l.01-.05.1.02.09.03.08.02.09.03.08.02.09.02.08.03.07.02.08.03.08.02.07.03.08.03.07.02.07.03.07.02.07.03.07.03.07.03.07.02.07.03.07.03.07.03.07.03.08.03.07.03.07.03.07.03.08.03.07.03.08.03.07.03.08.03-.01.04-.08-.03-.08-.03-.08-.03-.07-.03-.08-.03-.07-.03L6 2.42l-.07-.03-.07-.03-.07-.03-.07-.03-.07-.03-.07-.02-.07-.03-.07-.03-.07-.03-.07-.02-.07-.03-.08-.02-.07-.03-.07-.03-.08-.02-.07-.03-.08-.02-.08-.03-.08-.02-.08-.03-.08-.02-.09-.02-.09-.03-.09-.02-.09-.02zm.01-.05zm-.27-.04l-.05.01.03-.03h.05l.01.01h.04l.01.01h.03l.01.01H4l.01.01h.03l.01.01h.03l.01.01h.02l-.01.05v-.01h-.04l-.01-.01h-.03l-.01-.01h-.03l-.01-.01h-.03l-.01-.01h-.04l-.01-.01H3.82l.02-.03zm-.05.01v-.03h.03l-.03.03zm.08.25l-.01.05-.02-.02v-.05l-.01-.01V1.85l-.01-.01V1.8l-.01-.01v-.04l-.01-.01V1.7l-.01-.01.05-.01v.03h.01v.04l.01.01v.04l.01.01v.05l.01.01v.07l.01.01v.02l-.02-.03zm-.01.05l-.02-.01v-.01l.02.02zm.73.21l-.02.04-.02-.01-.02-.01-.02-.01-.02-.01-.02-.01-.02-.01-.03-.01-.02-.01h-.02l-.03-.01-.02-.01-.02-.01-.03-.01-.02-.01-.02-.01h-.03l-.02-.01-.02-.01-.03-.01h-.02l-.02-.01-.03-.01-.02-.01h-.02L4 2.03l-.02-.01h-.02l-.02-.01h-.02L3.9 2l-.02-.01h-.02l.01-.05.02.01.02.01h.02l.02.01h.02l.03.01.02.01h.02l.02.01.03.01h.02l.02.01.03.01.02.01h.02l.03.01.02.01.03.01.02.01.02.01h.03l.02.01.02.01.03.01.02.01.02.01.03.01.02.01.02.01.02.01.02.01.02.01zm0 0h.01-.01zm-.1.57l-.01-.04.04-.01.03-.02.04-.01.03-.02.03-.01.03-.02.03-.01.02-.02.02-.01.02-.02.01-.01.01-.02.02-.01v-.02l.01-.01v-.07l-.01-.01-.01-.02-.01-.01-.01-.02-.02-.02-.02-.01-.02-.02-.02-.02-.03-.02-.03-.01-.03-.02-.04-.02.02-.04.04.02.03.02.03.01.03.02.03.02.02.02.02.02.02.02.02.02.01.02.01.02.01.02.01.02v.06l-.01.02-.01.02-.01.01-.01.02-.01.02-.02.02-.02.01-.03.02-.02.02-.03.01-.03.02-.03.01-.03.02-.04.01-.04.02-.04.01zm0 0zM3 3.22l-.01-.05.04-.01.05-.02.05-.01.04-.01.05-.02.05-.01.04-.01.05-.02.05-.01.04-.02.05-.01.05-.01.04-.02.05-.01.05-.02.04-.01.05-.01.05-.02.04-.01.05-.01.05-.02.04-.01.05-.02.05-.01.04-.01.05-.02.05-.01.04-.02.05-.01.05-.01.04-.02.05-.01.01.04-.04.02-.05.01-.05.02-.04.01-.05.01-.05.02-.04.01-.05.01-.05.02-.04.01-.05.02-.05.01-.04.01-.05.02-.05.01-.04.02-.05.01-.05.01-.04.02-.05.01-.05.01-.04.02-.05.01-.05.02-.04.01-.05.01-.05.02-.04.01-.05.01-.05.02-.04.01-.05.02zm0 0zm-1.24-.23l.02-.04.03.02.03.01.03.02.04.01.03.02.03.01.04.02.04.01.03.01.04.01.04.02.03.01.04.01.04.01h.04l.04.01.04.01h.04l.04.01h.04l.04.01h.08l.04.01h.16l.04-.01h.08l.04-.01.01.05h-.04l-.04.01H2.59l-.04-.01h-.09l-.04-.01-.04-.01h-.04l-.04-.01-.04-.01-.04-.01-.04-.01-.04-.01-.03-.01-.04-.01-.04-.02-.04-.01-.03-.01-.04-.02-.03-.01-.04-.02-.03-.02-.03-.01-.03-.02zm.02-.04zm-.91-.73l-.02-.05.03.01.02.04.02.03.02.04.01.03.02.03.02.03.02.02.02.03.02.03.02.02.02.02.02.03.03.02.02.02.02.02.03.02.03.02.02.02.03.02.03.02.03.02.03.02.04.02.03.02.04.02.03.02.04.03.04.02.04.02.05.02.04.02.05.03-.02.04-.05-.02-.04-.03-.05-.02-.04-.02-.04-.02-.04-.02-.04-.03-.03-.02-.04-.02-.03-.02-.03-.02-.03-.02-.03-.02-.03-.02-.03-.02-.03-.02-.03-.02-.02-.02-.03-.03-.02-.02-.02-.02-.02-.03-.03-.02-.02-.03-.02-.03-.02-.03-.02-.03-.02-.03-.01-.03-.02-.03-.02-.04-.02-.04.03.02zm-.02-.05l.02-.01.01.02-.03-.01z" class="fil5"/><g><path d="M2.64 8.59c.25.37.54.59.91.58l-.93.4c-.26.11-.37-.12-.26-.35.09-.21.19-.42.28-.63zM.49 7.49c.24.38.34.22.72.2l-.62.32c-1.21.48-.11-.51-.1-.52zm3.17-1.17c0 .26-.06.32-.35.57l.64-.22c.58-.21-.05-.34-.29-.35zm2.6.88c.09.43-.11.75-.39 1.01l.7-.24c.54-.24-.22-.67-.31-.77z" class="fil3"/><path id="1" d="M3.56 9.19l-.01-.04.01.04h-.14l-.04-.01-.03-.01h-.04l-.03-.01-.03-.01-.03-.01-.03-.02-.03-.01-.03-.01-.04-.02-.02-.02-.03-.02-.03-.02L2.98 9l-.03-.02-.03-.02-.02-.03-.03-.02-.03-.03-.02-.02-.03-.03-.02-.03-.03-.03-.02-.03-.03-.04-.02-.03-.02-.03-.03-.04.04-.02.02.03.03.03.02.04.02.03.03.03.02.03.03.03.02.02.03.03.02.03.03.02.02.02.03.03.03.02.02.02.03.02.03.01.03.02.03.01.03.02.02.01.03.01.03.01.03.01.04.01.03.01.03.01h.1l.03.01.03-.01.01.05zm-.01-.05h.13l-.12.05-.01-.05zm-.94.41l.94-.4.01.04-.93.4-.02-.04zm.02.04zm-.3-.38l.05.02-.01.02-.01.02-.01.02v.02l-.01.02v.11l.01.02v.01l.01.01v.02l.01.01.01.01.01.01.01.01.01.01.01.01h.01l.01.01h.03l.02.01h.02l.02-.01h.04l.02-.01.02-.01.02.04-.03.01-.02.01-.03.01h-.1l-.02-.01h-.02L2.4 9.6l-.02-.01-.01-.01-.02-.02-.01-.01-.01-.02-.01-.01-.01-.02v-.01l-.01-.02v-.04l-.01-.02v-.04l.01-.02V9.3l.01-.02.01-.02v-.03l.01-.02zm0 0v.01-.01zm.33-.63l-.04.02h.04l-.01.02-.01.02v.02l-.01.02-.01.02-.01.02-.01.02-.01.02-.01.02-.01.02-.01.02v.02l-.01.02-.01.01-.01.02-.01.02-.01.02-.01.02-.01.02-.01.02-.01.02v.02l-.01.02-.01.02-.01.02-.01.02-.01.02-.01.02-.01.02-.01.02v.02l-.01.02-.05-.02.01-.02.01-.02.01-.02.01-.02.01-.02.01-.02.01-.02.01-.02v-.02l.01-.02.01-.02.01-.02.01-.02.01-.02.01-.01.01-.02.01-.02.01-.02v-.02l.01-.02.01-.02.01-.02.01-.02.01-.02.01-.02.01-.02.01-.02v-.02l.01-.02.01-.02.01-.02.01-.02h.04zm-.04 0l.02-.04.02.04h-.04zm-1.4-.87l-.02-.04.01.05h-.1l-.03.01h-.05L1 7.74H.98l-.03.01H.91l-.03.01H.76l-.02-.01H.72L.7 7.74l-.02-.01-.02-.01-.02-.02-.02-.01-.02-.02-.02-.02-.03-.02-.02-.03-.02-.03-.02-.03-.02-.03.04-.03.02.03.02.03.02.03.02.03.02.02.02.02.02.01.01.02.02.01.02.01.01.01h.02l.02.01h.03l.02.01h.04l.02-.01h.06l.02-.01h.03l.02-.01h.03l.03-.01h.06l.03-.01h.07l.01.04zm-.01-.04l.1-.01-.09.05-.01-.04zm-.63.32l.62-.32.02.04-.62.32-.02-.04zm.02.04zm-.09-.55l-.04.03.04-.01-.01.01-.01.01-.01.02-.02.01-.03.03-.02.02-.03.03-.03.03-.03.03-.04.04-.03.03-.03.04-.04.04-.03.03-.02.04-.03.04-.02.03-.02.03-.01.03v.05l.01.01.01.01.02.01h.04l.05-.01.05-.01.07-.01.08-.03.1-.03.1-.04.02.04-.11.04-.09.04-.09.02-.07.02-.06.01H.09l-.04-.01-.02-.01-.02-.03L0 8.08v-.03l.01-.03.01-.03.02-.03.02-.04.03-.04.03-.03.03-.04.03-.04.03-.04.04-.03.03-.04.03-.03.04-.03.02-.03.03-.03.02-.02.02-.02.02-.01.01-.01h.04zm-.04 0l.01-.03.03.03H.47zm2.83-.61l.02.04-.03-.03.03-.03.03-.02.02-.02.02-.02.02-.02.02-.02.02-.01.02-.02.02-.02.01-.01.02-.02.01-.01.01-.02.01-.01.01-.02.01-.01.01-.01.01-.02.01-.01v-.02l.01-.01v-.02l.01-.01v-.02l.01-.01v-.04l.01-.02v-.09l.05.01v.04l-.01.02v.07l-.01.01v.02l-.01.02v.02l-.01.02v.01l-.01.02-.01.01-.01.02-.01.01-.01.02-.01.02-.01.01-.02.02-.01.01-.02.02-.01.01-.02.02-.02.02-.02.02-.02.02-.02.01-.02.02-.02.03-.03.02-.02.02-.03-.04zm.02.04l-.12.05.09-.08.03.03zm.64-.22l-.64.22-.02-.04.64-.23.02.05zm0 0l-.03.01.03-.01zm-.27-.36l-.05-.01.02-.02h.05l.03.01h.06l.03.01h.03l.03.01.03.01h.03l.04.01.03.01.02.01.03.01.03.01.02.01.02.01.02.02.02.01.01.02.01.01.01.02v.02l-.01.03-.01.02-.02.01-.02.02-.02.02-.04.02-.04.02-.04.02-.05.02-.02-.05.05-.01.04-.02.04-.02.03-.02.02-.01.02-.02.01-.01.01-.01v-.04l-.01-.01-.02-.01-.01-.01-.02-.01-.02-.01-.02-.01-.03-.01L4 6.4h-.03l-.03-.01-.03-.01h-.03l-.03-.01-.03-.01h-.06l-.02-.01h-.08l.03-.02zm-.05-.01V6.3h.02l-.02.02zm2.23 1.87l.01.04-.02-.04.02-.02.03-.03.02-.02.03-.03.02-.02.02-.03.02-.02.02-.03.02-.03.02-.03.02-.02.02-.03.02-.03.01-.03.02-.03.01-.03.02-.03.01-.03.01-.03.01-.04.01-.03v-.03l.01-.04V7.5l.01-.04v-.1l-.01-.04v-.04l-.01-.04V7.2l.04-.01.01.04.01.04v.08l.01.04v.04l-.01.04v.07l-.01.04-.01.03-.01.04-.01.03-.01.03-.01.04-.01.03-.02.03-.01.03-.02.03-.02.03-.02.03-.02.03-.02.03-.02.03-.02.03-.02.02-.03.03-.02.03-.02.02-.03.03-.03.02-.02.03-.02-.04zm.01.04l-.1.03.08-.07.02.04zm.7-.24l-.7.24-.01-.04.7-.24.01.04zm0 0zm-.3-.8l-.04.01.04-.02v.01l.02.01.01.02.02.01.03.02.02.02.03.02.02.02.03.02.03.03.03.02.03.03.03.02.03.03.03.03.03.03.02.03.02.03.02.03.02.03.02.03.01.03v.03l.01.03-.01.04-.01.03-.01.03-.03.03-.02.03-.04.02-.04.03-.05.02-.02-.04.05-.02.04-.03.03-.02.02-.02.02-.03.01-.02.01-.02v-.05l-.01-.03-.01-.03-.01-.02-.01-.03-.02-.03-.02-.02-.03-.03-.02-.03-.03-.03-.03-.02-.03-.03-.03-.02-.03-.03-.03-.02-.02-.02-.03-.03-.03-.02-.02-.01-.02-.02-.03-.02-.01-.01-.02-.02-.01-.01.04-.02zm-.04.01l-.02-.09.06.07-.04.02z" class="fil1"/></g><g><path d="M10.45 7.28c-.15-.06-.48-.33-.26-.58.15-.18 1.97-1.15 2.05-1.22.26-.27-.26-.08.52-.31.73.13 2.34-.97 2.95-.89.12.06.11 1.83.04 2.02-.16.41-1.69 1.66-1.83 1.84-.27.19-.4.41-1.03.19-.4-.14-1.93-.85-2.44-1.05z" class="fil4"/><path id="1" d="M10.17 6.68l.04.03-.02.03-.02.02-.01.02-.01.02v.02l-.01.02v.07l.01.02v.02l.01.02.01.02.01.02.01.02.01.02.01.02.02.02.01.01.02.02.02.02.01.01.02.02.02.01.02.02.01.01.02.01.02.01.01.01.02.01.01.01h.02l-.02.04h-.01l-.02-.01-.02-.01-.02-.01-.01-.01-.02-.01-.02-.02-.02-.01-.02-.02-.02-.01-.02-.02-.01-.02-.02-.01-.02-.02-.01-.02-.02-.03-.01-.02-.01-.02-.02-.02v-.02l-.01-.03-.01-.02v-.03l-.01-.02v-.03l.01-.02v-.03l.01-.02.01-.03.01-.03.02-.02.02-.03zm2.05-1.22l.03.03v.01l-.01.01-.02.01-.04.02-.04.02-.04.03-.06.03-.06.04-.06.03-.07.04-.08.05-.08.04-.08.05-.09.05-.09.05-.09.05-.09.05-.09.05-.09.05-.09.05-.09.05-.08.05-.08.05-.08.05-.08.04-.07.05-.06.04-.06.03-.05.04-.04.03-.04.03-.03.02-.01.01-.04-.03.02-.02.03-.02.04-.03.04-.03.06-.04.06-.03.06-.04.07-.05.08-.04.07-.05.09-.05.08-.05.09-.05.09-.05.09-.05.09-.05.09-.05.09-.05.09-.05.08-.05.09-.05.08-.04.07-.05.07-.04.07-.03.06-.04.06-.03.04-.03.04-.02.03-.02.02-.01.01-.01zm.03.03v.01-.01zm.52-.35l-.01.05h.01l-.07.02-.06.02-.06.01-.05.02-.04.01-.04.01-.03.01-.03.01h-.02l-.02.01h-.01l-.01.01h-.01l.01-.01V5.3v.02l.01.01v.05l-.01.01-.01.02-.01.02-.01.02-.02.02-.03.02-.03-.03.02-.02.02-.02.01-.02.01-.01.01-.02v-.01l.01-.01v-.01h-.01v-.01l-.01-.01v-.01l.01-.02v-.01h.02l.01-.01h.02l.02-.01.02-.01h.03l.03-.01.04-.01.04-.02.05-.01.05-.02.07-.02.07-.02h.01zm-.01 0h.01-.01zm2.96-.88l-.02.04h.01-.12l-.07.01-.08.01-.08.02-.08.02-.09.03-.09.03-.09.04-.1.04-.1.04-.1.04-.1.05-.11.04-.1.05-.11.04-.11.05-.11.05-.1.04-.11.04-.1.05-.11.04-.1.03-.1.03-.1.03-.09.03-.09.02-.09.02-.09.01h-.16l-.07-.01.01-.05.06.01h.16l.08-.01.09-.01.09-.03.09-.02.1-.03.1-.03.1-.04.1-.04.11-.04.1-.04.11-.05.1-.04.11-.05.11-.05.1-.04.11-.05.1-.04.1-.04.1-.05.1-.03.1-.04.09-.03.09-.03.08-.02.08-.02.08-.02.08-.01h.06l.07.01zm0 0zm.05 2.05l-.04-.02v-.02l.01-.03.01-.03v-.05l.01-.05v-.06l.01-.07v-.14l.01-.08V4.9l-.01-.08v-.08l-.01-.08V4.6l-.01-.07v-.05l-.01-.06-.01-.04-.01-.04-.01-.02V4.3h-.01l.02-.04.02.02.02.02.01.03.01.04v.05l.01.05.01.06v.06l.01.07v.08l.01.07V4.98l.01.08V5.59l-.01.09v.23l-.01.07v.07l-.01.06v.05l-.01.05v.04l-.01.04-.01.02zm-1.84 1.85l-.02-.04-.01.01.02-.02.03-.03.03-.03.04-.04.04-.04.05-.05.06-.05.06-.05.06-.06.07-.06.07-.06.07-.07.08-.07.08-.07.08-.07.07-.07.08-.07.08-.08.08-.07.07-.07.08-.07.07-.07.07-.07.06-.07.06-.07.06-.06.05-.06.04-.05.04-.06.04-.04.02-.05.02-.04.04.02-.02.04-.03.05-.03.05-.04.05-.05.06-.05.06-.05.07-.07.06-.06.07-.07.07-.07.07-.07.07-.08.07-.08.08-.08.07-.08.07-.07.08-.08.07-.08.07-.07.07-.08.06-.07.07-.07.06-.06.05-.06.06-.06.05-.05.04-.04.05-.04.03-.03.03-.03.03-.01.02h-.01zm.01 0h-.01.01zm-1.06.19l.02-.04.06.02.05.01.05.02.05.01.05.01.04.01h.04l.04.01H13.39l.03-.01h.03l.03-.01.03-.01.02-.01h.03l.02-.02.03-.01.02-.01.02-.01.03-.02.02-.01.02-.02.02-.01.02-.02.03-.02.02-.02.02-.01.03-.02.02-.02.03-.02.02.04-.02.02-.03.02-.02.01-.02.02-.03.02-.02.02-.02.01-.02.02-.03.02-.02.01-.02.02-.03.01-.02.01-.03.02-.02.01-.03.01-.03.01-.03.01h-.03l-.03.01H13.24l-.05-.01-.04-.01-.05-.01-.05-.01-.05-.01-.06-.02-.06-.02zM10.44 7.3l.02-.04.05.02.06.02.06.03.06.03.07.03.08.03.08.03.08.04.08.04.09.03.09.04.09.04.09.04.09.04.1.05.09.04.09.04.1.04.09.04.09.04.08.04.09.03.08.04.08.03.08.04.07.03.07.03.06.02.06.03.05.02.05.01.04.02-.02.04-.04-.01-.05-.02-.05-.02-.06-.03-.06-.02-.07-.03-.07-.03-.08-.03-.08-.04-.08-.03-.09-.04-.08-.04-.09-.04-.09-.04-.09-.04-.1-.04-.09-.04-.09-.04-.1-.04-.09-.05-.09-.04-.09-.03-.08-.04-.09-.04-.08-.03-.08-.04-.07-.03-.07-.03-.07-.03-.06-.02-.06-.03-.05-.02z" class="fil1"/></g><g><path d="M10.39 6.91c-.16-.06-.32-.24-.1-.48.15-.18 1.8-1.25 1.88-1.33.26-.27-.25-.07.53-.31.73.14 2.33-.97 2.95-.89.12.07.11 1.83.04 2.03-.16.4-1.69 1.66-1.83 1.84-.27.18-.4.4-1.03.19-.41-.14-1.93-.85-2.44-1.05z" class="fil2"/><path id="1" d="M10.27 6.41l.03.03-.01.02-.02.03-.01.02-.02.02-.01.02v.02l-.01.02-.01.01V6.7l.01.02v.01l.01.01v.02l.01.01.01.01.01.01.01.01.01.02.01.01.01.01h.01l.02.01.01.01.01.01.02.01h.01l.01.01-.01.04-.02-.01h-.01l-.02-.01-.01-.01-.02-.01-.01-.01-.02-.01-.01-.01-.01-.01-.01-.01-.02-.02-.01-.01-.01-.02-.01-.01-.01-.02v-.01l-.01-.02v-.02l-.01-.02v-.08l.01-.02.01-.02v-.02l.01-.02.01-.03.02-.02.01-.02.02-.02.02-.03zm1.89-1.32l.03.03-.01.01-.02.02-.03.02-.04.02-.04.03-.05.04-.06.03-.06.04-.07.05-.06.05-.08.04-.07.06-.08.05-.08.05-.09.06-.08.05-.08.06-.08.06-.09.05-.08.06-.07.05-.08.05-.07.05-.07.05-.07.05-.05.04-.06.04-.05.04-.04.03-.03.03-.03.02-.02.02-.03-.03.02-.02.03-.02.03-.03.05-.04.04-.03.06-.04.06-.05.06-.04.07-.05.07-.05.08-.06.08-.05.08-.06.08-.05.08-.06.09-.05.08-.06.08-.06.08-.05.08-.05.08-.05.07-.05.07-.05.07-.04.06-.04.05-.04.05-.04.04-.03.04-.02.03-.02.02-.02h.01zm.03.03zm.51-.35l-.01.04h.02l-.07.02-.07.02-.05.02-.05.01-.04.02-.04.01-.03.01h-.03l-.02.01-.02.01h-.02l-.01.01v-.02l.01.01.01.01v.04l-.01.01v.02l-.01.01-.01.02-.02.02-.02.03-.02.02-.03-.03.02-.03.02-.02.01-.01.01-.02.01-.01v-.04l-.01-.01v-.03l.01-.01h.01l.01-.01h.01l.02-.01h.01l.03-.01.02-.01.04-.01.03-.01.05-.01.04-.01.06-.02.06-.02.07-.02h.01zm-.01 0h.01-.01zm2.97-.89l-.02.04.01.01-.06-.01-.06.01h-.07l-.08.02-.08.02-.08.02-.09.03-.09.03-.1.04-.09.03-.1.04-.1.05-.11.04-.1.05-.11.04-.1.05-.11.05-.11.04-.11.05-.1.04-.11.04-.1.04-.1.04-.1.03-.1.03-.1.03-.09.02-.09.01-.08.01-.08.01-.08-.01-.08-.01.01-.04.07.01H12.92l.09-.01.08-.02.09-.02.1-.02.09-.03.1-.04.1-.03.11-.04.1-.04.11-.05.1-.04.11-.05.11-.04.1-.05.11-.05.1-.04.11-.05.1-.04.1-.04.1-.04.09-.03.1-.04.08-.02.09-.03.08-.02.08-.01.07-.01h.14zm-.01 0h.01-.01zm.06 2.06l-.05-.02.01-.02.01-.03v-.04l.01-.04v-.06l.01-.06v-.06l.01-.07v-.16l.01-.08v-.61l-.01-.08V4.44l-.01-.08v-.07l-.01-.07v-.06l-.01-.06v-.05l-.01-.04-.01-.04-.01-.03-.01-.01v-.01l.02-.04.02.02.01.03.01.03.01.04.01.04.01.06v.05l.01.07.01.07V4.44l.01.08V5.46l-.01.08v.07l-.01.07v.06l-.01.05v.05l-.01.04v.03l-.01.03zm-1.84 1.85l-.03-.04v.01l.02-.03.02-.02.03-.03.04-.04.05-.04.05-.05.05-.05.06-.06.07-.05.07-.06.07-.07.07-.06.08-.07.07-.07.08-.07.08-.07.08-.08.08-.07.07-.07.08-.08.07-.07.08-.07.06-.07.07-.06.06-.07.05-.06.06-.06.04-.06.04-.05.03-.05.03-.04.01-.04.05.02-.02.04-.03.05-.03.05-.04.05-.05.06-.05.06-.06.06-.06.07-.06.07-.07.06-.07.08-.08.07-.07.07-.08.07-.08.08-.08.07-.08.07-.08.07-.07.07-.08.07-.07.07-.07.06-.07.06-.06.06-.06.05-.06.05-.05.05-.05.04-.03.04-.04.03-.02.03-.02.01v.01zm0-.01v.01-.01zm-1.05.2l.02-.05.05.02.06.02.05.01.05.02h.04l.05.01.04.01H13.36l.03-.01h.03l.02-.01.03-.01.03-.01.02-.01.02-.01.03-.01.02-.02.02-.01.02-.02.03-.01.02-.02.02-.02.02-.01.03-.02.02-.02.02-.01.03-.02.02-.02.03.04-.03.02-.02.01-.02.02-.03.02-.02.01-.02.02-.02.02-.03.01-.02.02-.02.02-.03.01-.02.02-.03.01-.02.01-.03.01-.03.01-.02.01-.03.01-.04.01h-.03l-.03.01h-.11l-.05-.01h-.04l-.05-.01-.04-.01-.05-.01-.06-.02-.05-.01-.06-.02zm-2.44-1.05l.01-.04.06.02.05.02.06.02.07.03.07.03.08.03.07.04.09.03.08.04.09.04.09.04.09.04.09.04.09.04.09.04.1.04.09.04.09.04.09.04.09.04.09.04.09.04.08.04.08.03.07.03.08.03.06.03.07.03.05.02.06.02.04.02.05.01-.02.05-.04-.02-.05-.02-.05-.02-.06-.02-.06-.03-.07-.02-.07-.04-.08-.03-.08-.03-.08-.04-.09-.04-.09-.03-.09-.04-.09-.04-.09-.04-.09-.05-.09-.04-.1-.04-.09-.04-.09-.04-.09-.04-.09-.04-.09-.04-.08-.03-.08-.04-.08-.03-.08-.03-.07-.03-.06-.03-.07-.03-.05-.02-.05-.02z" class="fil1"/></g><g><path d="M16.08 3.78c.02.24-.03.42-.08.53-.3.5-.55 1.01-1.5 1.55-.37.26-.88.35-1.55.23-1.19-.18-2.26-.67-3.11-1.05-.3-.13-.24-.72.11-.87.85-.34 1.63-.53 2.63-.78.03.02.33-.05.38-.04 0 .06 0 .14.01.21-.2.08-.65.2-.87.31-.39.2-.41.58.03.73.5.15 1 .3 1.5.44.42.06.9-.03 1.22-.22.51-.26 1.04-.64 1.23-1.04z" class="fil3"/><path id="1" d="M15.98 4.3v-.01l.01-.01v-.01l.01-.01v-.01l.01-.02v-.02l.01-.01v-.02l.01-.01v-.03l.01-.02v-.03l.01-.02V4l.01-.01v-.18l-.01-.03h.05V3.87l.01.02-.01.02v.14l-.01.01v.04l-.01.02v.03l-.01.01v.03l-.01.02v.01l-.01.02v.02l-.01.01v.02l-.01.01v.01l-.01.01-.04-.02zm.04.02zm-1.54 1.52l.09-.05.08-.05.08-.05.08-.05.07-.05.07-.05.06-.05.07-.05.05-.05.06-.05.05-.04.05-.05.05-.05.05-.05.04-.05.04-.05.04-.04.04-.05.04-.05.03-.05.04-.04.03-.05.03-.05.03-.05.03-.04.03-.05.03-.05.03-.04.03-.05.02-.05.03-.05.03-.04.04.02-.03.05-.03.05-.02.04-.03.05-.03.05-.03.04-.03.05-.03.05-.03.05-.03.05-.03.04-.04.05-.03.05-.04.05-.04.05-.04.04-.04.05-.05.05-.04.05-.05.05-.05.05-.06.05-.06.05-.06.05-.06.05-.06.05-.07.05-.08.05-.07.05-.08.05-.09.05-.08.05-.03-.04zm0 0zm-1.52.23l.06.01.06.01.06.01h.06l.06.01h.06l.05.01H13.64l.05-.01h.05l.05-.01.05-.01h.04l.05-.01.04-.01.05-.01.04-.01.04-.02.05-.01.04-.02.04-.01.04-.02.03-.02.04-.02.04-.02.03-.02.04-.02.03-.03.03.04-.04.03-.03.02-.04.02-.04.02-.04.02-.03.02-.05.02-.04.02-.04.01-.04.02-.05.01-.04.01-.05.01-.04.01-.05.01-.05.01-.05.01h-.05l-.05.01h-.1l-.05.01h-.06l-.05-.01h-.12l-.06-.01h-.05l-.06-.01-.07-.01h-.06l-.06-.01.01-.05zm0 0zM9.85 5.02l.08.03.08.04.08.04.09.04.08.03.09.04.08.04.09.04.09.04.09.03.1.04.09.04.09.04.1.04.1.03.09.04.1.03.1.04.1.03.1.04.1.03.11.03.1.03.11.03.1.03.11.03.11.02.11.03.11.02.11.02.11.02.11.02-.01.05-.11-.02-.11-.02-.11-.02-.11-.03-.11-.02-.11-.03-.11-.03-.11-.02-.1-.03-.11-.03-.1-.04-.1-.03-.1-.03-.1-.04-.1-.03-.1-.04-.1-.03-.1-.04-.09-.04-.1-.04-.09-.03-.09-.04-.09-.04-.09-.04-.09-.04-.09-.04-.09-.03-.08-.04-.09-.04-.08-.04-.08-.03-.08-.04.02-.04zm0 0h-.01.01zm.11-.83l-.03.02-.03.02-.03.01-.02.03-.03.02-.02.02-.02.03-.02.03-.02.02-.01.03-.02.03-.01.04-.01.03-.01.03v.03l-.01.04v.12l.01.03v.03l.01.03.01.03.01.03.02.02.01.02.02.02.02.02.02.02.02.02.03.01-.02.04-.03-.01-.03-.02-.02-.02-.02-.02-.02-.03-.02-.02-.02-.03-.01-.03-.01-.03-.01-.03-.01-.04v-.03l-.01-.04v-.06l.01-.04v-.04l.01-.03.01-.04.01-.03.01-.03.02-.04.01-.03.02-.03.02-.03.03-.03.02-.02.03-.03.03-.02.03-.02.03-.02.03-.02.02.04zm-.02-.04zm2.63-.73h.01l-.09.02-.09.02-.09.03-.09.02-.09.02-.09.02-.08.02-.09.02-.08.03-.09.02-.08.02-.08.02-.08.02-.08.03-.08.02-.08.02-.08.02-.08.03-.08.02-.08.02-.08.03-.08.02-.08.03-.07.02-.08.03-.08.03-.08.02-.08.03-.07.03-.08.03-.08.03-.08.03-.02-.04.08-.03.08-.03.08-.03.08-.03.08-.03.08-.03.07-.02.08-.03.08-.03.08-.02.08-.03.08-.02.07-.02.08-.03.08-.02.08-.02.08-.03.08-.02.08-.02.09-.02.08-.02.08-.03.09-.02.08-.02.09-.02.08-.02.09-.03.09-.02.09-.02.09-.02.09-.03.09-.02h.01l-.01.05zm0-.05h.01-.01zm.37-.02l.02.03h-.01v-.01l-.01.01h-.08l-.02.01h-.04l-.02.01H12.72l-.02.01h-.05l-.02.01H12.57l.01-.05h.07l.02-.01h.06l.01-.01h.05l.02-.01h.06l.01-.01h.09l.01.02h-.04zm.03-.02h.01v.02l-.01-.02zm-.01.21l-.01.03v-.04l-.01-.01v-.17h.04v.07l.01.01V3.55H13v.01l-.02.02-.02-.04zm.04.02v.02h-.02l.02-.02zm-.91.29l.02-.01.02-.01.03-.01.02-.01.03-.01.03-.01.02-.01.03-.01.03-.01.03-.02.03-.01.03-.01.03-.01.03-.01.03-.01.03-.01.03-.01.04-.01.03-.01.03-.01.03-.01.03-.01.03-.01h.02l.03-.01.03-.01.02-.01.03-.01.02-.01h.02l.03-.01.01-.01.02.04-.02.01-.02.01-.02.01-.03.01h-.02l-.03.01-.02.01-.03.01-.03.01-.03.01-.03.01-.03.01-.03.01-.03.01-.03.01-.03.01-.03.01-.03.01-.03.01-.04.01-.03.01-.02.01-.03.01-.03.01-.03.01-.03.01-.02.01-.03.01-.02.01-.03.01-.02.01-.02.01-.02-.04zm0 0zm.04.77l-.04-.01-.04-.02-.04-.02-.03-.02-.03-.02-.03-.02-.03-.02-.02-.03-.02-.02-.02-.02-.01-.03-.01-.03-.01-.02-.01-.03-.01-.03v-.06l.01-.02v-.03l.01-.03.01-.03.02-.02.01-.03.02-.03.02-.02.02-.03.03-.02.03-.03.03-.02.03-.02.03-.02.04-.02.02.04-.03.02-.04.02-.03.02-.02.02-.03.02-.02.02-.02.03-.02.02-.02.02-.01.03-.01.02-.01.03-.01.02-.01.02v.1l.01.02.01.02.01.03.01.02.02.02.02.02.02.02.02.03.02.01.03.02.03.02.04.02.03.01.04.02-.01.04zm0 0zm1.49.45l-.05-.02-.04-.01-.05-.02-.05-.01-.04-.01-.05-.02-.05-.01-.04-.01-.05-.02-.05-.01-.04-.02-.05-.01-.05-.01-.04-.02-.05-.01-.05-.02-.04-.01-.05-.01-.05-.02-.04-.01-.05-.01-.05-.02-.04-.01-.05-.02-.05-.01-.04-.01-.05-.02-.05-.01-.04-.02-.05-.01-.05-.01-.04-.02.01-.04.05.01.04.02.05.01.05.01.04.02.05.01.05.02.04.01.05.01.05.02.04.01.05.02.05.01.04.01.05.02.05.01.04.01.05.02.05.01.04.02.05.01.05.01.04.02.05.01.05.01.04.02.05.01.05.02.04.01.05.01.05.02.04.01-.01.05zm0 0zm1.24-.23l-.03.02-.03.01-.03.02-.04.02-.03.01-.04.02-.03.01-.04.01-.04.02-.04.01-.03.01-.04.01-.04.01-.04.01-.04.01-.04.01h-.04l-.04.01-.04.01h-.09l-.04.01H13.7l-.04-.01h-.04l.01-.05.04.01h.08l.04.01h.16l.04-.01h.08l.04-.01h.04l.04-.01h.04l.04-.01.04-.01.04-.01h.04l.04-.01.03-.01.04-.02.04-.01.03-.01.04-.01.04-.02.03-.01.03-.02.04-.01.03-.02.03-.01.03-.02.02.04zm-.02-.04zm1.21-1.02l.05.01-.02.04-.02.04-.02.03-.03.04-.03.04-.02.04-.03.03-.03.04-.04.03-.03.04-.04.04-.03.03-.04.04-.04.03-.04.03-.04.04-.04.03-.05.03-.04.04-.04.03-.05.03-.04.03-.05.03-.05.03-.04.03-.05.03-.05.03-.05.03-.04.02-.05.03-.05.02-.05.03-.02-.04.05-.03.05-.02.04-.03.05-.02.05-.03.04-.03.05-.03.05-.03.04-.03.05-.03.04-.03.05-.03.04-.03.05-.03.04-.03.04-.04.04-.03.04-.03.04-.04.04-.03.03-.04.04-.03.03-.04.03-.03.03-.04.03-.03.03-.04.02-.03.03-.04.02-.04.02-.03.02-.04.04.01h-.05zm.01-.01l.03-.08.01.09-.04-.01z" class="fil1"/></g><g><path d="M13.99 1.49c-.65.07-.99.48-1.06.98-.16.84-.3 1.27-.04 2.33.68.09 1.24.22 1.77.38.37-.53.93-.99 1.12-1.57.14-.41.12-.69.09-1.08-.14-.84-1.03-1.14-1.88-1.04z" class="fil4"/><path id="1" d="M12.91 2.47v-.05l.01-.05.01-.04.02-.05.01-.04.02-.05.01-.04.02-.04.02-.04.03-.05.02-.03.03-.04.02-.04.03-.04.03-.03.04-.04.03-.03.04-.03.04-.03.04-.03.04-.03.04-.02.05-.02.04-.03.05-.02.05-.02.05-.01.06-.02.05-.01.06-.02.06-.01h.06v.04l-.06.01-.05.01-.06.01-.05.01-.05.02-.05.02-.05.01-.05.02-.04.03-.05.02-.04.02-.04.03-.04.03-.03.03-.04.03-.03.03-.03.03-.03.03-.03.04-.03.03-.02.04-.02.04-.02.04-.02.04-.02.04-.02.04-.02.04-.01.04-.01.05-.01.04-.01.05-.01.04h-.04zm.04 0zm-.06 2.35l-.02-.02-.03-.09-.02-.1-.02-.09-.01-.09-.02-.08-.01-.08-.01-.08-.01-.08-.01-.08v-.14l-.01-.07v-.14l.01-.06v-.13l.01-.07.01-.06.01-.07v-.06l.01-.07.02-.06.01-.07.01-.06.01-.07.01-.07.02-.07.01-.07.02-.07.01-.08.02-.07h.04l-.01.08-.02.08-.01.07-.02.07-.01.07-.01.07-.02.07-.01.06-.01.07-.01.06-.01.07-.01.06-.01.06v.07l-.01.06v.06l-.01.07v.27l.01.07v.07l.01.07.01.08.01.08.01.08.01.09.02.08.02.09.02.1.02.09-.02-.01v.04zm0 0h-.02V4.8l.02.02zm1.79.37l-.02.01-.05-.02-.05-.01-.05-.01-.05-.02-.06-.01-.05-.02-.05-.01-.05-.01-.05-.02-.05-.01-.06-.01-.05-.02-.05-.01-.06-.01-.05-.02-.05-.01-.06-.01-.05-.01-.06-.01-.05-.01-.06-.01-.06-.01-.06-.02-.05-.01-.06-.01-.06-.01-.06-.01h-.06l-.07-.01-.06-.01-.06-.01-.06-.01v-.04h.07l.06.01.06.01.06.01.06.01.06.01.06.01.06.01.06.01.06.01.06.01.05.01.06.01.06.01.05.02.06.01.05.01.06.01.05.01.05.02.06.01.05.01.05.02.05.01.05.01.06.02.05.01.05.02.05.01.05.02.05.01.05.02h-.02l.03.03zm0 0l-.01.01h-.01l.02-.01zm1.12-1.57l-.02.05-.02.06-.02.05-.03.05-.02.06-.03.05-.03.05-.03.05-.04.05-.03.05-.04.05-.03.05-.04.05-.04.04-.04.05-.04.05-.04.05-.03.04-.05.05-.04.05-.04.05-.04.04-.04.05-.04.05-.04.04-.04.05-.03.05-.04.05-.04.05-.04.04-.03.05-.04.05-.03-.03.03-.04.04-.05.03-.05.04-.05.04-.05.04-.05.04-.05.04-.04.04-.05.04-.05.04-.04.04-.05.04-.05.04-.05.04-.04.04-.05.04-.05.04-.05.03-.04.04-.05.04-.05.03-.05.04-.05.03-.05.03-.05.03-.05.03-.05.02-.05.03-.05.02-.05.02-.05.02-.06.04.02zm.09-1.1v.08l.01.03V2.74l.01.03v.36l-.01.03v.07l-.01.03v.04l-.01.03-.01.03v.04l-.01.03-.01.04-.01.04-.01.03-.01.04-.02.04-.04-.02.01-.03.01-.04.01-.04.01-.03.01-.04.01-.03.01-.04.01-.03v-.03l.01-.03v-.07l.01-.03v-.1l.01-.03v-.16l-.01-.03v-.13l-.01-.04v-.1l-.01-.04.05-.01zm0 0v.01-.01zm-1.9-1.05l.08-.01.08-.01h.32l.08.01.08.01.07.01.08.02.08.01.07.02.07.02.07.03.07.03.07.03.06.03.06.04.06.03.06.05.06.04.05.05.05.05.04.05.05.06.03.06.04.06.03.07.03.07.02.07.02.07.02.08-.05.01-.01-.07-.02-.08-.02-.07-.03-.06-.03-.07-.04-.06-.03-.05-.04-.06-.05-.05-.04-.05-.05-.04-.06-.05-.05-.04-.06-.03-.06-.04-.06-.03-.07-.03-.06-.03-.07-.02-.07-.02-.08-.02-.07-.02-.07-.01-.08-.01-.07-.01-.08-.01h-.08l-.08-.01-.08.01h-.16l-.08.01v-.04z" class="fil1"/></g><g><path d="M15.76 3.64c.1.05.21.1.32.14-.35.55-.55 1.09-1.58 1.68-.37.26-.88.34-1.55.23-1.19-.19-2.08-.55-2.93-.93-.55-.28-.29-.55.07-.7.84-.34 1.43-.62 2.42-.87.07-.01.22-.06.29-.06-.01.06-.04.2-.04.28-.21.06-.51.15-.72.26-.39.2-.35.37.09.53.5.15 1 .29 1.5.44.42.06.9-.03 1.22-.22.51-.26.72-.38.91-.78z" class="fil0"/><path id="1" d="M16.06 3.77l.01.03h-.01l-.01-.01h-.02l-.01-.01h-.01L16 3.77h-.01l-.01-.01h-.02l-.01-.01h-.01l-.01-.01h-.01l-.01-.01h-.01l-.01-.01h-.02l-.01-.01h-.01l-.01-.01h-.01l-.01-.01h-.02l-.01-.01h-.01l-.01-.01h-.01l-.01-.01.02-.04.01.01h.02l.01.01h.01l.01.01h.01l.01.01h.02l.01.01h.01l.01.01h.01l.01.01h.01l.01.01h.02l.01.01h.01l.01.01H16l.01.01h.02l.01.01h.01l.01.01h.01l.01.01h.01l.01.03-.04-.02zm.03-.01l.02.01-.01.02-.01-.03zm-1.61 1.68l.1-.05.09-.06.08-.05.08-.06.08-.05.07-.05.07-.06.06-.05.07-.05.05-.06.06-.05.05-.05.05-.05.05-.06.04-.05.05-.05.04-.05.04-.05.03-.05.04-.06.03-.05.04-.05.03-.05.03-.05.03-.05.03-.05.03-.05.03-.06.03-.05.03-.05.04-.05.03-.05.04.02-.03.06-.04.05-.03.05-.03.05-.03.05-.03.05-.03.05-.03.05-.03.06-.03.05-.04.05-.03.05-.04.05-.04.05-.04.06-.04.05-.04.05-.05.05-.04.06-.05.05-.06.05-.05.06-.06.05-.07.05-.06.06-.07.05-.07.06-.08.05-.08.06-.09.05-.09.06-.09.05-.03-.04zm0 0zm-1.52.23l.06.01.06.01.06.01h.06l.06.01h.11l.06.01h.16l.05-.01h.1l.05-.01.05-.01h.04l.05-.01.04-.01.05-.01.04-.02.04-.01.05-.01.04-.02.04-.01.04-.02.03-.02.04-.02.04-.02.03-.02.04-.02.03-.03.03.04-.04.03-.03.02-.04.02-.04.02-.04.02-.03.02-.05.02-.04.01-.04.02-.04.01-.05.02-.04.01-.05.01-.04.01-.05.01-.05.01-.05.01h-.05l-.05.01h-.38l-.06-.01h-.05l-.06-.01-.07-.01-.06-.01-.06-.01.01-.04zm0 0zm-2.93-.93l.08.03.08.04.08.03.08.04.08.03.08.04.08.03.09.04.08.03.08.04.09.03.08.03.09.03.09.03.08.04.09.03.09.03.09.03.1.02.09.03.09.03.1.03.1.02.09.03.1.02.11.03.1.02.1.02.11.02.11.02.11.02.11.02-.01.04-.11-.01-.11-.02-.11-.02-.11-.02-.1-.03-.1-.02-.11-.02-.1-.03-.1-.02-.09-.03-.1-.03-.09-.02-.1-.03-.09-.03-.09-.03-.09-.03-.09-.03-.09-.03-.09-.03-.08-.04-.09-.03-.08-.03-.09-.04-.08-.03-.08-.03-.09-.04-.08-.03-.08-.04-.08-.03-.08-.04-.08-.04-.08-.03.02-.04zm-.02.04zm.08-.7l-.03.02-.03.01-.03.02-.03.01-.03.02-.03.02-.02.01-.03.02-.02.02-.02.02-.02.02-.02.02-.01.02-.02.02-.01.02v.02l-.01.02v.08l.01.03.01.02.02.02.02.02.02.03.02.02.03.03.04.02.04.03.04.02.05.03-.02.04-.05-.03-.05-.02-.04-.03-.03-.03-.04-.02-.03-.03-.02-.03-.02-.02-.02-.03-.01-.03-.01-.02-.01-.03v-.08l.01-.02.01-.03.01-.02.02-.03.02-.02.02-.02.02-.02.02-.02.02-.02.03-.02.03-.02.03-.02.03-.02.03-.01.03-.02.03-.02.04-.01.01.04zm-.01-.04zm2.44-.83l-.09.03-.09.02-.09.02-.09.03-.08.02-.08.03-.08.02-.08.03-.08.02-.07.03-.08.02-.07.03-.07.02-.08.03-.07.03-.07.02-.07.03-.07.03-.07.02-.07.03-.07.03-.07.03-.07.03-.07.03-.07.03-.07.03-.07.03-.08.03-.07.03-.08.03-.08.03-.08.03-.01-.04.08-.03.07-.03.08-.04.07-.03.08-.03.07-.03.07-.03.07-.03.08-.03.07-.02.07-.03.07-.03.07-.03.07-.03.07-.02.07-.03.07-.03.07-.02.07-.03.07-.03.08-.02.07-.03.08-.02.08-.03.07-.02.08-.03.09-.02.08-.03.09-.02.08-.02.09-.03.1-.02.01.04zm-.01-.04zm.27-.04l.02.02h-.01l-.01.01h-.05l-.01.01h-.04l-.01.01h-.03l-.01.01h-.03l-.01.01h-.03l-.01.01h-.03l-.01-.04h.01l.01-.01h.03l.01-.01h.03l.01-.01h.03l.01-.01h.03l.01-.01h.04l.01-.01H12.8l.03.02h-.05zm.02-.02h.03v.02l-.03-.02zm-.05.28l-.02.02V3.4l.01-.01v-.07l.01-.01v-.05l.01-.01v-.04l.01-.01v-.04l.01-.01v-.02h.05l-.01.01v.05h-.01v.05l-.01.01v.04l-.01.01V3.36h-.01V3.42l-.02.02-.01-.05zm.03.03v.01l-.02.01.02-.02zm-.75.23l.02-.01.02-.01.02-.01.02-.01.02-.01.03-.01.02-.01.02-.01.03-.01.02-.01.02-.01.03-.01h.02l.02-.01.03-.01.02-.01.03-.01.02-.01h.02l.03-.01.02-.01.02-.01h.03l.02-.01.02-.01h.02l.03-.01h.02l.02-.01.02-.01h.02l.02-.01.01.05h-.02l-.02.01h-.02l-.02.01-.02.01h-.02l-.02.01-.03.01h-.02l-.02.01-.03.01h-.02l-.02.01-.03.01-.02.01h-.02l-.03.01-.02.01-.02.01-.03.01-.02.01h-.02l-.03.01-.02.01-.02.01-.03.01-.02.01-.02.01-.02.01-.02.01-.02.01-.02.01-.02-.04zm0 0h-.01.01zm.1.57l-.04-.01-.04-.02-.04-.01-.03-.02-.03-.01-.03-.02-.03-.02-.02-.01-.03-.02-.02-.02-.02-.01-.01-.02-.01-.02-.02-.02v-.02l-.01-.02v-.06l.01-.02.01-.02.01-.01.01-.02.02-.02.02-.02.02-.02.02-.02.03-.02.03-.02.03-.02.03-.01.04-.02.02.04-.04.02-.03.01-.03.02-.03.02-.02.02-.02.01-.02.02-.02.02-.01.01-.01.02-.01.02-.01.01V3.96l.01.01v.02l.02.01.01.02.01.01.02.01.02.02.02.01.03.02.03.01.03.02.03.01.04.02.03.01.04.02-.01.04zm0 0zm1.49.45v-.01l-.05-.01-.04-.01-.05-.02-.05-.01-.04-.01-.05-.02-.05-.01-.04-.02-.05-.01-.05-.01-.04-.02-.05-.01-.05-.02-.04-.01-.05-.01-.05-.02-.04-.01-.05-.01-.05-.02-.04-.01-.05-.02-.05-.01-.04-.01-.05-.02-.05-.01-.04-.02-.05-.01-.05-.01-.04-.02-.05-.01-.05-.01-.04-.02.01-.04.05.01.04.02.05.01.05.01.04.02.05.01.05.01.04.02.05.01.05.02.04.01.05.01.05.02.04.01.05.02.05.01.04.01.05.02.05.01.04.01.05.02.05.01.04.02.05.01.05.01.04.02.05.01.05.01.04.02.05.01.05.02.04.01-.01.05zm0 0v-.01.01zm1.24-.23l-.03.02-.03.01-.03.02-.04.01-.03.02-.04.01-.03.02-.04.01-.04.02-.04.01-.03.01-.04.01-.04.01-.04.01-.04.01h-.04l-.04.01-.04.01h-.04l-.05.01h-.04l-.04.01h-.29l-.04-.01h-.08l.01-.05h.04l.04.01h.12l.04.01h.04l.04-.01h.12l.04-.01h.04l.04-.01h.04l.04-.01.04-.01.04-.01.04-.01.04-.01.03-.01.04-.01.04-.01.03-.01.04-.01.04-.02.03-.01.03-.02.04-.01.03-.02.03-.02.03-.01.02.04zm-.02-.04zm.91-.74l.03-.01-.02.04-.02.03-.02.04-.01.03-.02.03-.02.03-.02.03-.02.03-.02.02-.03.03-.02.02-.02.03-.02.02-.03.02-.02.03-.03.02-.03.02-.03.02-.03.02-.03.02-.03.02-.03.02-.03.02-.04.02-.03.02-.04.02-.04.02-.04.03-.04.02-.05.02-.04.02-.05.03-.02-.04.05-.03.04-.02.05-.02.04-.02.04-.03.04-.02.03-.02.04-.02.03-.02.04-.02.03-.02.03-.02.03-.02.03-.02.02-.02.03-.02.03-.02.02-.02.02-.02.03-.02.02-.03.02-.02.02-.03.02-.02.02-.03.02-.02.02-.03.02-.03.01-.04.02-.03.02-.03.02-.04.03-.01-.02.04zm-.01-.03l.01-.02.02.01-.03.01z" class="fil5"/></g></g></svg>