<svg xmlns="http://www.w3.org/2000/svg" width="118" height="59" fill-rule="evenodd" clip-rule="evenodd" image-rendering="optimizeQuality" shape-rendering="geometricPrecision" text-rendering="geometricPrecision" viewBox="0 0 186.96 93.77"><defs><style>.str0{stroke:#2b2a29;stroke-width:1.43;stroke-miterlimit:22.9256}.fil1{fill:none;fill-rule:nonzero}.fil0{fill:#c5e3d7}</style></defs><g id="Слой_x0020_1"><path d="M182.48 11.26c-12.27 1.14-34.09-2.86-38.06 2.09 1.58 4.5-3.19 14.7-3.49 29.85-.23 11.43 3.25 27.25 6.02 32.72 4.69 3.23 23.8 0 36.97 0 3.61-1.27 4.87-43.43-1.44-64.66z" class="fil0"/><path id="1" d="M182.48 11.26c-12.27 1.14-34.09-2.86-38.06 2.09 1.58 4.5-3.19 14.7-3.49 29.85-.23 11.43 3.25 27.25 6.02 32.72 4.69 3.23 23.8 0 36.97 0 3.61-1.27 4.87-43.43-1.44-64.66z" class="fil1 str0"/><path d="M123.92 1.18C109.13 2.79 9.06-3.6 4.27 3.37 6.17 9.7.42 24.07.05 45.41c-.27 16.1 3.93 38.38 7.27 46.08 5.65 4.55 102.47.76 118.34.76 4.35-1.79 5.87-61.16-1.74-91.07z" class="fil0"/><path id="1" d="M123.92 1.18C109.13 2.79 9.06-3.6 4.27 3.37 6.17 9.7.42 24.07.05 45.41c-.27 16.1 3.93 38.38 7.27 46.08 5.65 4.55 102.47.76 118.34.76 4.35-1.79 5.87-61.16-1.74-91.07z" class="fil1 str0"/><g><path fill="#f08bb2" d="M24.59 45.91l41.2-36.79L107 45.91l-41.21 36.8z"/><path id="1" d="M24.59 45.91l41.2-36.79L107 45.91l-41.21 36.8z" class="fil1 str0"/></g></g></svg>