<svg xmlns="http://www.w3.org/2000/svg" width="132" height="70" fill-rule="evenodd" clip-rule="evenodd" image-rendering="optimizeQuality" shape-rendering="geometricPrecision" text-rendering="geometricPrecision" viewBox="0 0 20.99 11.06"><defs><style>.str0{stroke:#2b2a29;stroke-width:.14;stroke-miterlimit:22.9256}.fil1{fill:none;fill-rule:nonzero}.fil4{fill:#f5b2b6}.fil7{fill:#c5e3d7}.fil0{fill:#6fa691}.fil5{fill:#2b2a29;fill-rule:nonzero}</style></defs><g id="Слой_x0020_1"><path d="M17.54.64h.37v10.01h-.37z" class="fil0"/><path id="1" d="M17.54.64h.37v10.01h-.37z" class="fil1 str0"/><path fill="#c4d985" d="M19.59.64v1.8c.06 1.01.76 1.79 1.39 2.39.08.34-1.25.52-2.72.55-.09 0-.07-.7-.24-.97h-.57c-.17 0-.07.97-.24.96-1.44-.04-2.74-.23-2.75-.54.68-.56 1.32-1.37 1.4-2.39V.64c0-.19.83-.34 1.86-.34 1.03 0 1.87.15 1.87.34z"/><path id="1" d="M19.59.64v1.8c.06 1.01.76 1.79 1.39 2.39.08.34-1.25.52-2.72.55-.09 0-.07-.7-.24-.97h-.57c-.17 0-.07.97-.24.96-1.44-.04-2.74-.23-2.75-.54.68-.56 1.32-1.37 1.4-2.39V.64c0-.19.83-.34 1.86-.34 1.03 0 1.87.15 1.87.34z" class="fil1 str0"/><path fill="#a1b567" d="M17.91 4.41c1.71.02 3.07.24 3.07.51s-1.36.49-3.07.5V4.41zm-.37 1.01c-1.72-.01-3.08-.23-3.08-.5s1.36-.49 3.08-.51v1.01z"/><path id="1" d="M17.91 4.41c1.71.02 3.07.24 3.07.51s-1.36.49-3.07.5V4.41zm-.37 1.01c-1.72-.01-3.08-.23-3.08-.5s1.36-.49 3.08-.51v1.01z" class="fil1 str0"/><path d="M17.72 6.63c.85 0 1.53.69 1.53 1.54 0 .57-.3 1.06-.75 1.33v1.15h-1.55V9.5c-.45-.27-.75-.76-.75-1.33 0-.85.68-1.54 1.52-1.54z" class="fil4"/><path id="1" d="M17.72 6.63c.85 0 1.53.69 1.53 1.54 0 .57-.3 1.06-.75 1.33v1.15h-1.55V9.5c-.45-.27-.75-.76-.75-1.33 0-.85.68-1.54 1.52-1.54z" class="fil1 str0"/><path d="M17.02 6.67h1.41c.22 0 .4-.18.4-.41 0-.22-.18-.41-.4-.41h-1.41c-.22 0-.41.19-.41.41 0 .23.19.41.41.41z" class="fil0"/><path id="1" d="M17.02 6.67h1.41c.22 0 .4-.18.4-.41 0-.22-.18-.41-.4-.41h-1.41c-.22 0-.41.19-.41.41 0 .23.19.41.41.41z" class="fil1 str0"/><path d="M16.3 11.06h2.84c.23 0 .41-.19.41-.41 0-.22-.18-.41-.41-.41H16.3c-.22 0-.4.19-.4.41 0 .22.18.41.4.41z" class="fil0"/><path id="1" d="M16.3 11.06h2.84c.23 0 .41-.19.41-.41 0-.22-.18-.41-.41-.41H16.3c-.22 0-.4.19-.4.41 0 .22.18.41.4.41z" class="fil1 str0"/><path d="M6.68.99c2.07 0 3.75 1.68 3.75 3.75 0 2.07-1.68 3.74-3.75 3.74-2.08 0-3.76-1.67-3.76-3.74C2.92 2.67 4.6.99 6.68.99z" class="fil0"/><path id="1" d="M6.68.99c2.07 0 3.75 1.68 3.75 3.75 0 2.07-1.68 3.74-3.75 3.74-2.08 0-3.76-1.67-3.76-3.74C2.92 2.67 4.6.99 6.68.99z" class="fil1 str0"/><path d="M6.7 7.92c1.53 0 2.82.82 3.13 2.08-.07.54-1.43 1.03-3.13 1.05-1.7.01-3.14-.59-3.13-1.05.32-1.26 1.6-2.08 3.13-2.08z" class="fil0"/><path id="1" d="M9.84 10l-.01-.01V10l-.03-.12-.04-.11-.04-.11-.05-.11-.06-.11-.06-.1-.06-.1-.07-.1-.07-.09-.08-.09-.08-.09-.09-.08-.09-.08-.09-.08-.1-.07-.1-.07-.1-.06-.11-.07-.11-.05-.12-.06-.12-.05-.12-.05-.12-.04-.13-.04-.13-.03-.13-.03-.13-.03-.14-.02-.13-.01-.14-.01-.14-.01H6.7v-.01h.15l.14.01.14.01.13.02.14.02.13.02.14.03.12.04.13.03.12.05.13.04.11.05.12.06.11.06.11.06.11.07.1.06.1.08.09.08.09.08.09.08.08.09.08.09.07.09.07.1.06.1.06.1.05.1.05.11.05.11.04.12.03.11V10zm0-.01V10v-.01zM6.7 11.05v-.01h.16l.16-.01h.15l.15-.02.15-.01.15-.01.14-.02.14-.02.13-.02.14-.03.13-.02.12-.03.12-.03.12-.04.11-.03.11-.03.1-.04.1-.04.09-.04.09-.04.08-.04.08-.05.07-.04.06-.05.06-.04.05-.05.05-.05.04-.05.03-.05.02-.05.02-.05.01-.05.01.01-.01.05-.02.05-.03.05-.03.05-.04.05-.04.05-.06.04-.05.05-.07.05-.07.04-.08.04-.08.05-.09.04-.09.04-.1.04-.1.03-.11.04-.11.03-.12.03-.12.03-.12.03-.13.03-.13.02-.14.03-.14.02-.14.01-.15.02-.15.01-.15.01-.15.01-.16.01H6.7zM3.57 9.99V10l.01.04.01.04.02.05.02.04.04.05.04.04.05.05.06.05.06.04.07.05.08.04.08.04.09.05.09.04.1.04.11.04.11.03.11.04.12.04.12.03.13.03.13.03.14.02.14.03.14.02.14.02.15.02.15.01.15.01.16.01h.31v.01h-.16l-.15-.01h-.16l-.15-.01-.15-.02-.15-.01-.14-.02-.15-.02-.13-.03-.14-.02-.13-.03-.13-.03-.12-.04-.12-.03-.12-.04-.11-.04-.1-.04-.1-.04-.1-.04-.08-.04-.09-.04-.07-.05-.07-.04-.07-.05-.05-.04-.05-.05-.05-.05-.03-.04-.03-.05-.02-.04-.01-.05v-.05zm0 0zM6.7 7.92v.01h-.14l-.14.01-.14.01-.14.01-.13.02-.14.03-.13.03-.13.03-.12.04-.13.04-.12.05-.12.05-.11.06-.11.05-.11.07-.11.06-.1.07-.1.07-.09.08-.09.08-.09.08-.08.09-.07.09-.08.09-.07.1-.06.1-.06.1-.05.11-.05.11-.05.11-.03.11-.04.12v-.01l.03-.11.04-.12.04-.11.05-.11.05-.1.06-.1.07-.1.07-.1.07-.09.08-.09.08-.09.09-.08.09-.08.09-.08.1-.08.1-.06.11-.07.1-.06.12-.06.11-.06.12-.05.12-.04.12-.05.13-.03.13-.04.13-.03.13-.02.14-.02.14-.02.14-.01.14-.01h.14z" class="fil5"/><path fill="#f08bb2" d="M10.47 4.57c.14-.01.19.38.19.59 0 2.19-1.79 3.97-3.98 3.97-2.2 0-3.96-1.78-3.96-3.97.03-.2.1-.53.16-.57.81.42 2.12.67 3.8.67 1.67 0 2.99-.27 3.79-.69z"/><path id="1" d="M10.66 5.16h-.01v-.13L10.64 5v-.07l-.01-.03v-.04l-.01-.03v-.02l-.01-.03v-.02l-.01-.02-.01-.02V4.7l-.01-.02-.01-.02-.01-.01v-.02l-.01-.01-.01-.01-.01-.01-.01-.01-.01-.01h-.01l-.02-.01h-.01v-.01l.02.01h.02l.01.01.01.01.01.01.01.01.01.02.01.01.01.02.01.02v.02l.01.02.01.02v.02l.01.02v.03l.01.02v.02l.01.03v.05l.01.02v.07l.01.03v.11zM6.68 9.13v-.01h.2l.2-.02.2-.02.2-.04.19-.04.19-.06.18-.06.18-.07.18-.08.17-.09.17-.09.16-.11.15-.11.15-.11.15-.13.14-.13.13-.14.12-.14.12-.15.11-.16.11-.16.09-.16.09-.18.08-.17.07-.18.06-.19.06-.18.04-.2.04-.19.02-.2.02-.2v-.2h.01l-.01.2-.01.2-.03.2-.03.2-.05.19-.05.19-.06.18-.07.18-.08.18-.09.17-.1.17-.1.16-.11.15-.12.15-.13.15-.13.14-.14.13-.14.12-.15.12-.16.11-.16.1-.17.1-.17.09-.17.08-.18.07-.19.06-.19.05-.19.05-.2.03-.2.03-.2.01-.2.01zM2.72 5.15l.01.01v.2l.02.2.02.2.04.19.04.2.05.18.06.19.07.18.08.17.09.18.09.16.11.16.11.16.11.15.13.14.13.14.13.13.15.13.15.11.15.11.16.11.17.09.17.09.17.08.18.07.19.06.18.06.2.04.19.04.2.02.2.02h.21v.01l-.21-.01-.2-.01-.2-.03-.2-.03L5.68 9l-.19-.05-.18-.06-.18-.07-.18-.08-.17-.09-.16-.1-.16-.1-.16-.11-.15-.12-.14-.12-.14-.13-.13-.14-.12-.15-.12-.15-.11-.15-.1-.16-.1-.17-.08-.17-.08-.18-.07-.18-.07-.18-.05-.19-.04-.19-.04-.2-.02-.2-.02-.2V5.15zm0 .01v-.01.01zm.17-.57l-.01.01h.01-.02v.01l-.01.01v.01l-.01.01-.01.01v.02l-.01.01v.02l-.01.02-.01.01v.02l-.01.02v.02l-.01.02v.02l-.01.03v.02l-.01.02v.02l-.01.02v.03l-.01.02v.02l-.01.02v.05l-.01.02v.06l-.01-.01v-.03l.01-.02v-.05l.01-.02v-.02l.01-.02v-.05l.01-.02V4.9l.01-.02v-.03l.01-.02v-.02l.01-.02v-.02l.01-.02.01-.02v-.02l.01-.01v-.02l.01-.01.01-.02v-.01l.01-.01.01-.01v-.01l.01-.01.01-.01h.01zm-.01 0h.01-.01zm3.8.67v.01l-.16-.01h-.31l-.14-.01h-.15l-.15-.01-.14-.01-.14-.01-.14-.01-.13-.01-.14-.02-.13-.02-.13-.01-.12-.02-.13-.02-.12-.02-.12-.02-.11-.03-.12-.02-.11-.03-.1-.02-.11-.03-.1-.03-.1-.03-.1-.03-.09-.04-.09-.03-.09-.03-.09-.04-.08-.04-.08-.04-.08-.03.01-.01.07.04.08.04.08.03.09.04.09.03.09.04.09.03.1.03.1.03.1.03.11.03.11.03.11.02.11.03.12.02.11.02.12.02.13.02.12.02.13.02.13.01.14.02.13.01.14.01.14.01.14.01.15.01.15.01h.3l.15.01h.16zm3.79-.7v.01l-.07.04-.08.04-.08.04-.09.03-.09.04-.09.03-.1.04-.09.03-.1.03-.11.03-.1.03-.11.03-.11.02-.11.03-.12.02-.12.03-.12.02-.12.02-.13.02-.13.02-.13.01-.13.02L8 5.2l-.14.02-.14.01-.14.01-.15.01h-.14l-.15.01h-.31l-.15.01v-.01h.15l.15-.01h.31l.14-.01.15-.01.14-.01.14-.01L8 5.2l.14-.02.13-.01.13-.02.13-.02.12-.02.13-.02.12-.02.12-.02.11-.03.12-.02.11-.03.11-.03.1-.03.11-.03.1-.03.09-.03.1-.03.09-.04.09-.03.08-.04.08-.04.08-.04.08-.03v-.01zm0 .01v-.01.01z" class="fil5"/><path d="M10.61 5.75c-.79.44-2.22.7-3.92.7-1.7 0-3.13-.27-3.92-.7-.01-.04-.06-.03-.06-.15s.02-.4.05-.6c.8.42 2.26.71 3.93.71 1.67 0 3.13-.29 3.94-.71.02.2.04.48.04.6s-.06.11-.06.15z" class="fil4"/><path id="1" d="M6.69 6.45v-.01h.47l.16-.01h.15l.15-.01.14-.01.15-.01.14-.02.14-.01.14-.01.14-.02.13-.02.14-.02.12-.02.13-.02.13-.02.12-.03.11-.02.12-.03.11-.03.11-.03.11-.03.1-.03.1-.03.1-.04.09-.03.09-.04.09-.03.08-.04.08-.04.08-.04v.01l-.07.04-.08.04-.09.03-.08.04-.09.04-.1.03-.09.04-.11.03-.1.03-.11.03-.11.03-.11.03-.11.02-.12.03-.12.02-.13.03-.12.02-.13.02-.14.02-.13.02-.14.01-.14.02-.14.01-.14.02-.15.01-.14.01h-.15l-.15.01-.16.01h-.47zm-3.93-.7h.01l.07.04.08.04.09.03.08.04.09.04.1.03.09.04.1.03.11.03.1.03.11.03.12.03.11.03.12.02.12.03.13.02.12.02.13.02.14.02.13.02.14.02.14.01.14.01.14.02.15.01.14.01.15.01h.16l.15.01h.47v.01h-.47l-.15-.01-.16-.01h-.15l-.14-.01-.15-.02-.14-.01-.14-.01-.14-.02-.14-.01-.14-.02-.13-.02-.13-.02-.12-.02-.13-.03-.12-.02-.12-.03-.11-.02-.12-.03-.11-.03-.1-.03-.11-.03-.1-.04-.1-.03-.09-.04-.09-.03L3 5.87l-.08-.04-.08-.04-.08-.04zm0 0zm-.05-.15v.01l.01.01v.05l.01.01v.01l.01.01v.01h.01v.01h.01v.01h.01v.02h-.01v-.02h-.01v-.01h-.01v-.01h-.01V5.7l-.01-.01v-.02l-.01-.01V5.6zm.05-.6l-.01.01.01-.01v.02l-.01.02v.06l-.01.02v.08l-.01.02V5.33l-.01.02v.21l-.01.02v.02-.21l.01-.02v-.13l.01-.02v-.08l.01-.02v-.06l.01-.02V5h.01zm-.01 0h.01-.01zm3.94.7v.01h-.31l-.15-.01h-.16l-.15-.01-.14-.01-.15-.01-.15-.01-.14-.01-.14-.02-.14-.01-.14-.02-.13-.02-.14-.02-.13-.02-.12-.02-.13-.03-.12-.02-.12-.03-.12-.03-.11-.02-.11-.03-.11-.03-.11-.04-.1-.03-.1-.03-.09-.04-.1-.03L3 5.12l-.09-.04-.08-.04-.08-.03.01-.01.07.04.09.04.08.03.09.04.09.04.09.03.1.03.1.04.11.03.11.03.11.03.11.03.12.02.12.03.12.02.13.03.12.02.14.02.13.02.13.02.14.02.14.01.14.02.14.01.15.01.15.01.14.01.15.01.16.01H6.69zm3.94-.7h-.01l.01.01-.08.03-.08.04-.09.04-.08.04-.1.03-.09.04-.1.03-.1.03-.11.04-.1.03-.12.03-.11.02-.12.03-.12.03-.12.02-.12.03-.13.02-.13.02-.14.02-.13.02-.14.02-.14.01-.14.02-.14.01-.15.01-.14.01-.15.01-.15.01h-.16L7 5.71h-.31V5.7H7.15l.16-.01.15-.01.15-.01.14-.01.15-.01.14-.01.14-.02.14-.01.14-.02.13-.02.14-.02.13-.02.12-.02.13-.03.12-.02.12-.03.12-.02.11-.03.11-.03.11-.03.11-.03.1-.04.1-.03.09-.03.09-.04.09-.04.09-.03.08-.04.07-.04h.01zm-.01 0h.01-.01zm.05.6v-.07l-.01-.01V5.35l-.01-.02v-.11l-.01-.02v-.08l-.01-.02v-.06l-.01-.02V5h.01v.04l.01.02v.06l.01.02v.08l.01.02V5.35l.01.02v.23zm-.06.16v-.03h.01v-.01h.01v-.01l.01-.01.01-.01v-.01l.01-.01v-.04l.01-.01V5.6 5.66l-.01.01v.02h-.01v.02h-.01v.01h-.01v.01h-.01v.02h-.01v.01zm0-.01v.01-.01z" class="fil5"/><g><path d="M4.51 9.28c.16 0 .29.14.29.31 0 .17-.13.31-.29.31-.16 0-.29-.14-.29-.31 0-.17.13-.31.29-.31z" class="fil7"/><path id="1" d="M4.51 9.28c.16 0 .29.14.29.31 0 .17-.13.31-.29.31-.16 0-.29-.14-.29-.31 0-.17.13-.31.29-.31z" class="fil1 str0"/></g><g><path d="M5.41 9.65c.16 0 .29.14.29.31 0 .18-.13.32-.29.32-.15 0-.28-.14-.28-.32 0-.17.13-.31.28-.31z" class="fil7"/><path id="1" d="M5.41 9.65c.16 0 .29.14.29.31 0 .18-.13.32-.29.32-.15 0-.28-.14-.28-.32 0-.17.13-.31.28-.31z" class="fil1 str0"/></g><g><path d="M5.57 2.86l.24.65h.81l-.65.4.25.65-.65-.41-.66.41.25-.65-.65-.4h.81z" class="fil7"/><path id="1" d="M5.57 2.86l.24.65h.81l-.65.4.25.65-.65-.41-.66.41.25-.65-.65-.4h.81z" class="fil1 str0"/></g><g><path d="M8.47 3.78l.18.46h.57l-.46.29.18.46-.47-.29-.46.29.18-.46-.47-.29h.58z" class="fil7"/><path id="1" d="M8.47 3.78l.18.46h.57l-.46.29.18.46-.47-.29-.46.29.18-.46-.47-.29h.58z" class="fil1 str0"/></g><g><path d="M7.48 1.37l.18.46h.57l-.46.29.17.46-.46-.29-.46.29.18-.46-.47-.29h.57z" class="fil7"/><path id="1" d="M7.48 1.37l.18.46h.57l-.46.29.17.46-.46-.29-.46.29.18-.46-.47-.29h.57z" class="fil1 str0"/></g><path d="M1.69 1.58l.26.67h.83l-.67.41.25.67-.67-.41-.67.41.26-.67-.68-.41h.84zM11.61 1.72l.25.65h.8l-.65.39.25.65-.65-.4-.65.4.25-.65-.66-.39h.81zM.67 4.79l.16.41h.51l-.41.26.16.41-.42-.26-.41.26.16-.41L0 5.2h.51zM4.01 0l.15.4h.5l-.4.25.15.4-.4-.25-.4.25.15-.4-.4-.25h.5zM12.59 7.75l.16.41h.52l-.42.26.16.41-.42-.26-.41.26.16-.41-.42-.26h.52z" class="fil7"/></g></svg>