<svg xmlns="http://www.w3.org/2000/svg" width="69" height="49" fill-rule="evenodd" clip-rule="evenodd" image-rendering="optimizeQuality" shape-rendering="geometricPrecision" text-rendering="geometricPrecision" viewBox="0 0 24.25 17.06"><defs><style>.str0{stroke:#2b2a29;stroke-width:.32;stroke-miterlimit:22.9256}.fil1{fill:none;fill-rule:nonzero}.fil0{fill:#99cfba}</style></defs><g id="Слой_x0020_1"><path d="M13.14 5.48c.17.09.34.19.32.4l-.64 10.8c-.01.21-.18.29-.36.36s-.32-.19-.33-.4l-.3-11.38c0-.2 1.14.13 1.31.22z" class="fil0"/><path id="1" d="M13.14 5.48c.17.09.34.19.32.4l-.64 10.8c-.01.21-.18.29-.36.36s-.32-.19-.33-.4l-.3-11.38c0-.2 1.14.13 1.31.22z" class="fil1 str0"/><path d="M20.04 5.48c-.17.09-.34.19-.33.4l.65 10.8c.01.21.18.29.36.36s.32-.19.33-.4l.29-11.38c.01-.2-1.13.13-1.3.22z" class="fil0"/><path id="1" d="M20.04 5.48c-.17.09-.34.19-.33.4l.65 10.8c.01.21.18.29.36.36s.32-.19.33-.4l.29-11.38c.01-.2-1.13.13-1.3.22z" class="fil1 str0"/><path fill="#a1b567" d="M16.47 2.86c4.29 0 7.77 1.07 7.77 2.39 0 1.33-3.48 2.4-7.77 2.4-4.29 0-7.76-1.07-7.76-2.4 0-1.32 3.47-2.39 7.76-2.39z"/><path id="1" d="M16.47 2.86c4.29 0 7.77 1.07 7.77 2.39 0 1.33-3.48 2.4-7.77 2.4-4.29 0-7.76-1.07-7.76-2.4 0-1.32 3.47-2.39 7.76-2.39z" class="fil1 str0"/><path fill="#c4d985" d="M16.47 2.2c4.29 0 7.77 1.07 7.77 2.39s-3.48 2.39-7.77 2.39c-4.29 0-7.76-1.07-7.76-2.39s3.47-2.39 7.76-2.39z"/><path id="1" d="M16.47 2.2c4.29 0 7.77 1.07 7.77 2.39s-3.48 2.39-7.77 2.39c-4.29 0-7.76-1.07-7.76-2.39s3.47-2.39 7.76-2.39z" class="fil1 str0"/><g><path d="M1.2 9.78L.01.88C-.04.45.27.06.7.01c.43-.05.81.26.87.69l1.18 8.9c.06.42-.26.82-.69.86-.42.05-.81-.26-.86-.68z" class="fil0"/><path id="1" d="M1.2 9.78L.01.88C-.04.45.27.06.7.01c.43-.05.81.26.87.69l1.18 8.9c.06.42-.26.82-.69.86-.42.05-.81-.26-.86-.68z" class="fil1 str0"/></g><g><path d="M2.39 9.11c.22 0 .39.18.39.39v7.08c0 .21-.17.39-.39.39-.21 0-.39-.18-.39-.39V9.5c0-.21.18-.39.39-.39z" class="fil0"/><path id="1" d="M2.39 9.11c.22 0 .39.18.39.39v7.08c0 .21-.17.39-.39.39-.21 0-.39-.18-.39-.39V9.5c0-.21.18-.39.39-.39z" class="fil1 str0"/></g><g><path d="M9.54 9.11c.21 0 .39.18.39.39v7.08c0 .21-.18.39-.39.39-.22 0-.39-.18-.39-.39V9.5c0-.21.17-.39.39-.39z" class="fil0"/><path id="1" d="M9.54 9.11c.21 0 .39.18.39.39v7.08c0 .21-.18.39-.39.39-.22 0-.39-.18-.39-.39V9.5c0-.21.17-.39.39-.39z" class="fil1 str0"/></g><g><path fill="#f08bb2" d="M2.03 8.4h7.63c.43 0 .78.47.78 1.05 0 .58-.35 1.05-.78 1.05H2.03c-.43 0-.79-.47-.79-1.05 0-.58.36-1.05.79-1.05z"/><path id="1" d="M2.03 8.4h7.63c.43 0 .78.47.78 1.05 0 .58-.35 1.05-.78 1.05H2.03c-.43 0-.79-.47-.79-1.05 0-.58.36-1.05.79-1.05z" class="fil1 str0"/></g></g></svg>