<svg xmlns="http://www.w3.org/2000/svg" width="69" height="45" fill-rule="evenodd" clip-rule="evenodd" image-rendering="optimizeQuality" shape-rendering="geometricPrecision" text-rendering="geometricPrecision" viewBox="0 0 24.36 15.84"><defs><style>.str0{stroke:#2b2a29;stroke-width:.32;stroke-miterlimit:22.9256}.fil1{fill:none;fill-rule:nonzero}.fil2{fill:#f08bb2}.fil0{fill:#6fa691}</style></defs><g id="Слой_x0020_1"><path d="M.15 1.56h1.26v14.11H.15z" class="fil0"/><path id="1" d="M.15 1.56h1.26v14.11H.15z" class="fil1 str0"/><path d="M.78.01c.42 0 .77.34.77.77 0 .42-.35.77-.77.77-.43 0-.77-.35-.77-.77C.01.35.35.01.78.01z" class="fil2"/><path id="1" d="M.78.01c.42 0 .77.34.77.77 0 .42-.35.77-.77.77-.43 0-.77-.35-.77-.77C.01.35.35.01.78.01z" class="fil1 str0"/><path d="M8.72 1.56h1.26v14.11H8.72z" class="fil0"/><path id="1" d="M8.72 1.56h1.26v14.11H8.72z" class="fil1 str0"/><path d="M9.35.01c.43 0 .77.34.77.77 0 .42-.34.77-.77.77-.42 0-.77-.35-.77-.77 0-.43.35-.77.77-.77z" class="fil2"/><path id="1" d="M9.35.01c.43 0 .77.34.77.77 0 .42-.34.77-.77.77-.42 0-.77-.35-.77-.77 0-.43.35-.77.77-.77z" class="fil1 str0"/><path d="M.78 11.44h19.49v1.33H.78z" class="fil0"/><path id="1" d="M.78 11.44h19.49v1.33H.78z" class="fil1 str0"/><path d="M2.64 3.2h.86v7.04h-.86z" class="fil2"/><path id="1" d="M2.64 3.2h.86v7.04h-.86z" class="fil1 str0"/><path d="M4.56 3.18h.85v7.03h-.85z" class="fil2"/><path id="1" d="M4.56 3.18h.85v7.03h-.85z" class="fil1 str0"/><path d="M6.57 3.17h.86v7.03h-.86z" class="fil2"/><path id="1" d="M6.57 3.17h.86v7.03h-.86z" class="fil1 str0"/><g><path fill="#c5e3d7" d="M1.69 8.91h17.19c.34 0 .62.28.62.62v1.29c0 .34-.28.62-.62.62H1.69c-.34 0-.62-.28-.62-.62V9.53c0-.34.28-.62.62-.62z"/><path id="1" d="M1.69 8.91h17.19c.34 0 .62.28.62.62v1.29c0 .34-.28.62-.62.62H1.69c-.34 0-.62-.28-.62-.62V9.53c0-.34.28-.62.62-.62z" class="fil1 str0"/></g><g><path d="M.81 2.31h8.93v1.05H.81z" class="fil0"/><path id="1" d="M.81 2.31h8.93v1.05H.81z" class="fil1 str0"/></g><g><path d="M15.48 4.92h1.26v10.91h-1.26z" class="fil0"/><path id="1" d="M15.48 4.92h1.26v10.91h-1.26z" class="fil1 str0"/></g><g><path d="M16.11 3.4c.43 0 .77.34.77.77 0 .42-.34.77-.77.77-.42 0-.77-.35-.77-.77 0-.43.35-.77.77-.77z" class="fil2"/><path id="1" d="M16.11 3.4c.43 0 .77.34.77.77 0 .42-.34.77-.77.77-.42 0-.77-.35-.77-.77 0-.43.35-.77.77-.77z" class="fil1 str0"/></g><g><path d="M22.96 4.83h1.26v10.91h-1.26z" class="fil0"/><path id="1" d="M22.96 4.83h1.26v10.91h-1.26z" class="fil1 str0"/></g><g><path d="M23.59 3.28c.42 0 .76.34.76.77 0 .42-.34.77-.76.77-.43 0-.77-.35-.77-.77 0-.43.34-.77.77-.77z" class="fil2"/><path id="1" d="M23.59 3.28c.42 0 .76.34.76.77 0 .42-.34.77-.76.77-.43 0-.77-.35-.77-.77 0-.43.34-.77.77-.77z" class="fil1 str0"/></g><g><path d="M16.15 5.58h7.5v1.05h-7.5z" class="fil0"/><path id="1" d="M16.15 5.58h7.5v1.05h-7.5z" class="fil1 str0"/></g><g><path d="M16.15 12.75h7.43V6.63h-7.43z" class="fil0"/><path id="1" d="M16.15 12.75h7.43V6.63h-7.43z" class="fil1 str0"/></g></g></svg>