<svg xmlns="http://www.w3.org/2000/svg" width="79" height="52" fill-rule="evenodd" clip-rule="evenodd" image-rendering="optimizeQuality" shape-rendering="geometricPrecision" text-rendering="geometricPrecision" viewBox="0 0 30.26 19.95"><path fill="#C4D985" fill-rule="nonzero" d="M7.57 13.51c-.26 1.77-.58 3.54-.93 5.32 2.65.75 5.3 1.1 7.96 1.11 2.66.01 5.33-.32 8-.93-.46-2.06-.72-4.41-.99-6.77-.14-1.3-.29-2.6-.47-3.86-.02-.19-.01-.33.04-.43.02-.05.05-.09.09-.12.04-.03.09-.04.14-.04.12-.01.26.03.43.12h.01c1.99 1.11 3.61 2.41 5.23 3.72.48.39.96.77 1.44 1.15.28-.21.56-.43.85-.66.28-.23.58-.47.88-.72-.82-1.03-1.78-2.09-2.67-3.07-.87-.96-1.66-1.85-2.18-2.53-1.06-1.45-2.16-2.82-3.47-3.86C20.64.92 19.15.22 17.31.07c-.05.99-.81 1.62-1.73 1.87-.39.1-.81.14-1.21.1-.41-.03-.8-.13-1.14-.31-.63-.32-1.06-.89-1-1.72-.4.13-.79.24-1.19.34-.43.12-.86.24-1.28.38h-.01c-.34.05-.64.17-.91.31-.27.14-.5.32-.72.48C5.9 3.37 3.16 6.69.33 10.13c-.11.13-.21.25-.32.38.31.27.61.54.89.81s.54.54.78.82c.68-.73 1.51-1.46 2.44-2.19.95-.75 2.02-1.5 3.15-2.26h.01c.26-.12.45-.14.59-.06.14.08.21.26.22.53v.01c-.08 1.77-.27 3.55-.52 5.34z"/><path fill="none" fill-rule="nonzero" stroke="#2B2A29" stroke-miterlimit="22.9256" stroke-width=".34" d="M7.57 13.51c-.26 1.77-.58 3.54-.93 5.32 2.65.75 5.3 1.1 7.96 1.11 2.66.01 5.33-.32 8-.93-.46-2.06-.72-4.41-.99-6.77-.14-1.3-.29-2.6-.47-3.86h0c-.02-.19-.01-.33.04-.43.02-.05.05-.09.09-.12.04-.03.09-.04.14-.04.12-.01.26.03.43.12h.01c1.99 1.11 3.61 2.41 5.23 3.72.48.39.96.77 1.44 1.15.28-.21.56-.43.85-.66.28-.23.58-.47.88-.72-.82-1.03-1.78-2.09-2.67-3.07-.87-.96-1.66-1.85-2.18-2.53h0c-1.06-1.45-2.16-2.82-3.47-3.86C20.64.92 19.15.22 17.31.07c-.05.99-.81 1.62-1.73 1.87-.39.1-.81.14-1.21.1-.41-.03-.8-.13-1.14-.31-.63-.32-1.06-.89-1-1.72-.4.13-.79.24-1.19.34-.43.12-.86.24-1.28.38h-.01 0c-.34.05-.64.17-.91.31-.27.14-.5.32-.72.48C5.9 3.37 3.16 6.69.33 10.13c-.11.13-.21.25-.32.38.31.27.61.54.89.81s.54.54.78.82c.68-.73 1.51-1.46 2.44-2.19.95-.75 2.02-1.5 3.15-2.26h.01c.26-.12.45-.14.59-.06.14.08.21.26.22.53v.01c-.08 1.77-.27 3.55-.52 5.34z"/><path fill="#FEFEFE" fill-rule="nonzero" d="M13.32 12.73c.51 0 .92.41.92.92s-.41.92-.92.92-.92-.41-.92-.92.41-.92.92-.92zm-6.45 6.16c.6.17 1.19.31 1.79.43.01-.06.02-.13.02-.2 0-.51-.41-.92-.92-.92-.43 0-.79.3-.89.69zm8.51 1.04c.61-.01 1.23-.04 1.84-.09-.03-.48-.43-.86-.92-.86-.51 0-.92.41-.92.92v.03zm7.06-1.68c-.1-.5-.18-1.01-.26-1.53-.11-.04-.23-.07-.36-.07-.51 0-.92.41-.92.92s.41.92.92.92c.24 0 .46-.09.62-.24zm2.27-8.48c.5.37.98.75 1.46 1.13.12-.16.2-.36.2-.57 0-.51-.41-.92-.92-.92-.3 0-.57.14-.74.36zm4.24.09c-.41-.47-.82-.93-1.22-1.37-.19.17-.31.41-.31.68 0 .51.41.92.92.92.24 0 .45-.09.61-.23zM19.42.52c-.56-.2-1.16-.34-1.79-.42-.01.05-.02.1-.02.16 0 .51.41.92.92.92.42 0 .77-.28.89-.66zm-6.38 1.11c-.3-.2-.54-.46-.68-.78-.08-.02-.15-.03-.23-.03-.51 0-.92.41-.92.92 0 .5.41.92.92.92s.92-.42.92-.92c0-.04 0-.08-.01-.11zM4.67 4.98c-.39.45-.8.91-1.21 1.39.17.14.38.22.6.22.51 0 .92-.41.92-.92 0-.27-.12-.52-.31-.69zm-1.7 5.92c.36-.32.74-.63 1.15-.95.09-.07.18-.14.27-.22-.17-.21-.43-.34-.72-.34-.51 0-.92.41-.92.92 0 .22.08.43.22.59zm3.54-2.7c.25-.17.51-.34.76-.51h.01c.26-.12.45-.14.59-.06.13.08.2.24.22.49.07-.13.11-.27.11-.43 0-.51-.42-.92-.92-.92-.51 0-.92.41-.92.92 0 .19.05.37.15.51zm14.14 3.79c.51 0 .92.41.92.92 0 .5-.41.92-.92.92s-.92-.42-.92-.92c0-.51.41-.92.92-.92zm-8.43 5.07c.51 0 .92.41.92.92 0 .5-.41.92-.92.92s-.92-.42-.92-.92c0-.51.41-.92.92-.92zm-2.83-2.74c.51 0 .92.41.92.92s-.41.92-.92.92-.92-.41-.92-.92.41-.92.92-.92zM8.05 1.94c.5 0 .92.41.92.92s-.42.92-.92.92c-.51 0-.92-.41-.92-.92s.41-.92.92-.92zm16.28 3.99c.51 0 .92.41.92.92s-.41.92-.92.92-.92-.41-.92-.92.41-.92.92-.92zm-3.27-3.41c.5 0 .92.41.92.92s-.42.92-.92.92c-.51 0-.92-.41-.92-.92s.41-.92.92-.92zm-1.71 4.22c.51 0 .92.41.92.92s-.41.92-.92.92-.92-.41-.92-.92.41-.92.92-.92zm-1.93 8.88c.51 0 .92.41.92.92s-.41.92-.92.92-.92-.41-.92-.92.41-.92.92-.92zm-.49-5.34c.51 0 .92.41.92.92s-.41.92-.92.92-.92-.41-.92-.92.41-.92.92-.92zm-.18-7.22c.51 0 .92.41.92.92s-.41.92-.92.92-.92-.41-.92-.92.41-.92.92-.92zm-6.28 1.52c.51 0 .92.42.92.92 0 .51-.41.92-.92.92s-.92-.41-.92-.92c0-.5.41-.92.92-.92zm3.5 2.43c.51 0 .92.41.92.92 0 .5-.41.92-.92.92s-.92-.42-.92-.92c0-.51.41-.92.92-.92zm-3.91 2.78c.51 0 .92.41.92.92s-.41.92-.92.92c-.5 0-.91-.41-.91-.92s.41-.92.91-.92z"/><path fill="none" fill-rule="nonzero" stroke="#2B2A29" stroke-miterlimit="22.9256" stroke-width=".34" d="M13.32 12.73c.51 0 .92.41.92.92s-.41.92-.92.92-.92-.41-.92-.92.41-.92.92-.92zm-6.45 6.16c.6.17 1.19.31 1.79.43.01-.06.02-.13.02-.2 0-.51-.41-.92-.92-.92-.43 0-.79.3-.89.69zm8.51 1.04c.61-.01 1.23-.04 1.84-.09-.03-.48-.43-.86-.92-.86-.51 0-.92.41-.92.92v.03zm7.06-1.68c-.1-.5-.18-1.01-.26-1.53-.11-.04-.23-.07-.36-.07-.51 0-.92.41-.92.92s.41.92.92.92c.24 0 .46-.09.62-.24zm2.27-8.48c.5.37.98.75 1.46 1.13.12-.16.2-.36.2-.57 0-.51-.41-.92-.92-.92-.3 0-.57.14-.74.36zm4.24.09c-.41-.47-.82-.93-1.22-1.37-.19.17-.31.41-.31.68 0 .51.41.92.92.92.24 0 .45-.09.61-.23zM19.42.52c-.56-.2-1.16-.34-1.79-.42-.01.05-.02.1-.02.16 0 .51.41.92.92.92.42 0 .77-.28.89-.66zm-6.38 1.11c-.3-.2-.54-.46-.68-.78-.08-.02-.15-.03-.23-.03-.51 0-.92.41-.92.92 0 .5.41.92.92.92s.92-.42.92-.92c0-.04 0-.08-.01-.11zM4.67 4.98c-.39.45-.8.91-1.21 1.39.17.14.38.22.6.22.51 0 .92-.41.92-.92 0-.27-.12-.52-.31-.69zm-1.7 5.92c.36-.32.74-.63 1.15-.95.09-.07.18-.14.27-.22-.17-.21-.43-.34-.72-.34-.51 0-.92.41-.92.92 0 .22.08.43.22.59zm3.54-2.7c.25-.17.51-.34.76-.51h.01c.26-.12.45-.14.59-.06.13.08.2.24.22.49.07-.13.11-.27.11-.43 0-.51-.42-.92-.92-.92-.51 0-.92.41-.92.92 0 .19.05.37.15.51zm14.14 3.79c.51 0 .92.41.92.92 0 .5-.41.92-.92.92s-.92-.42-.92-.92c0-.51.41-.92.92-.92zm-8.43 5.07c.51 0 .92.41.92.92 0 .5-.41.92-.92.92s-.92-.42-.92-.92c0-.51.41-.92.92-.92zm-2.83-2.74c.51 0 .92.41.92.92s-.41.92-.92.92-.92-.41-.92-.92.41-.92.92-.92zM8.05 1.94c.5 0 .92.41.92.92s-.42.92-.92.92c-.51 0-.92-.41-.92-.92s.41-.92.92-.92zm16.28 3.99c.51 0 .92.41.92.92s-.41.92-.92.92-.92-.41-.92-.92.41-.92.92-.92zm-3.27-3.41c.5 0 .92.41.92.92s-.42.92-.92.92c-.51 0-.92-.41-.92-.92s.41-.92.92-.92zm-1.71 4.22c.51 0 .92.41.92.92s-.41.92-.92.92-.92-.41-.92-.92.41-.92.92-.92zm-1.93 8.88c.51 0 .92.41.92.92s-.41.92-.92.92-.92-.41-.92-.92.41-.92.92-.92zm-.49-5.34c.51 0 .92.41.92.92s-.41.92-.92.92-.92-.41-.92-.92.41-.92.92-.92zm-.18-7.22c.51 0 .92.41.92.92s-.41.92-.92.92-.92-.41-.92-.92.41-.92.92-.92zm-6.28 1.52c.51 0 .92.42.92.92 0 .51-.41.92-.92.92s-.92-.41-.92-.92c0-.5.41-.92.92-.92zm3.5 2.43c.51 0 .92.41.92.92 0 .5-.41.92-.92.92s-.92-.42-.92-.92c0-.51.41-.92.92-.92zm-3.91 2.78c.51 0 .92.41.92.92s-.41.92-.92.92c-.5 0-.91-.41-.91-.92s.41-.92.91-.92z"/></svg>