<svg xmlns="http://www.w3.org/2000/svg" width="136" height="64" fill-rule="evenodd" clip-rule="evenodd" image-rendering="optimizeQuality" shape-rendering="geometricPrecision" text-rendering="geometricPrecision" viewBox="0 0 22.02 10.35"><path fill="#BDD180" fill-rule="nonzero" d="M10.2 6.35c.11.79.26 1.59.41 2.39-1.19.34-2.39.5-3.59.5-1.2.01-2.4-.14-3.6-.42.21-.92.33-1.98.45-3.05.06-.58.13-1.17.21-1.73.01-.09 0-.16-.02-.2-.01-.02-.02-.04-.04-.05-.02-.02-.04-.02-.07-.02-.05-.01-.11.01-.19.05-1.11.62-1.72 1.53-2.7 2.3-.56-.43-.67-.63-.97-.88.37-.46.69-.79 1.09-1.23.39-.43.74-.83.98-1.14.47-.66.97-1.27 1.56-1.74C4.3.67 4.98.35 5.81.29c.02.45.36.73.77.84.18.05.37.06.55.05.18-.02.36-.06.51-.14.29-.15.48-.41.46-.78.17.06.35.11.53.16.19.05.39.1.58.16v.01c.29.04.51.18.74.35 1 .84 2.23 2.33 3.51 3.88.05.06.09.12.14.17-.14.13-.27.25-.4.37s-.46.45-.57.57c-1.22-.96-1-.97-2.3-2.21h-.01c-.11-.05-.2-.06-.26-.02-.06.03-.1.11-.1.24.04.8.12 1.6.24 2.41z"/><path fill="none" fill-rule="nonzero" stroke="#2B2A29" stroke-miterlimit="22.9256" stroke-width=".15" d="M10.2 6.35c.11.79.26 1.59.41 2.39-1.19.34-2.39.5-3.59.5-1.2.01-2.4-.14-3.6-.42.21-.92.33-1.98.45-3.05.06-.58.13-1.17.21-1.73h0c.01-.09 0-.16-.02-.2-.01-.02-.02-.04-.04-.05-.02-.02-.04-.02-.07-.02-.05-.01-.11.01-.19.05h0c-1.11.62-1.72 1.53-2.7 2.3-.56-.43-.67-.63-.97-.88.37-.46.69-.79 1.09-1.23.39-.43.74-.83.98-1.14h0c.47-.66.97-1.27 1.56-1.74C4.3.67 4.98.35 5.81.29c.02.45.36.73.77.84.18.05.37.06.55.05.18-.02.36-.06.51-.14.29-.15.48-.41.46-.78.17.06.35.11.53.16.19.05.39.1.58.16v.01h0c.29.04.51.18.74.35 1 .84 2.23 2.33 3.51 3.88.05.06.09.12.14.17-.14.13-.27.25-.4.37s-.46.45-.57.57c-1.22-.96-1-.97-2.3-2.21h0-.01c-.11-.05-.2-.06-.26-.02-.06.03-.1.11-.1.24h0c.04.8.12 1.6.24 2.41z"/><path fill="#FEFEFE" d="M7.5 8.99l-1.31.07c0-3.4.05-6 .27-7.86l.87-.07c0 2.82.17 5.04.17 7.86z"/><path fill="none" fill-rule="nonzero" stroke="#2B2A29" stroke-miterlimit="22.9256" stroke-width=".15" d="M7.5 8.99l-1.31.07c0-3.4.05-6 .27-7.86l.87-.07c0 2.82.17 5.04.17 7.86z"/><path fill="#FEFEFE" d="M10.56 8.51c-2.23.47-4.72.5-6.99-.01-.21-.08-.32.27-.42.73-.09.35-.07.71.3.78 2.55.47 5.71.46 7.35-.08.37-.02.08-1.4-.24-1.42z"/><path fill="none" fill-rule="nonzero" stroke="#2B2A29" stroke-miterlimit="22.9256" stroke-width=".15" d="M10.56 8.51c-2.23.47-4.72.5-6.99-.01-.21-.08-.32.27-.42.73-.09.35-.07.71.3.78 2.55.47 5.71.46 7.35-.08.37-.02.08-1.4-.24-1.42z"/><path fill="#FEFEFE" d="M13.21 4.13c-.4.2-.84.66-1.37 1.36.52.64.7.56.86.48.32-.34.59-.64.92-.97.09-.18.12-.22-.02-.42-.1-.14-.19-.3-.39-.45z"/><path fill="none" fill-rule="nonzero" stroke="#2B2A29" stroke-miterlimit="22.9256" stroke-width=".15" d="M13.21 4.13c-.4.2-.84.66-1.37 1.36.52.64.7.56.86.48.32-.34.59-.64.92-.97.09-.18.12-.22-.02-.42-.1-.14-.19-.3-.39-.45z"/><path fill="#FEFEFE" d="M.49 4.41c.39.2.84.66 1.37 1.35-.52.65-.7.56-.86.48-.33-.33-.59-.63-.92-.97-.09-.18-.12-.22.02-.42.1-.13.19-.3.39-.44z"/><path fill="none" fill-rule="nonzero" stroke="#2B2A29" stroke-miterlimit="22.9256" stroke-width=".15" d="M.49 4.41c.39.2.84.66 1.37 1.35-.52.65-.7.56-.86.48-.33-.33-.59-.63-.92-.97-.09-.18-.12-.22.02-.42.1-.13.19-.3.39-.44z"/><path fill="#FEFEFE" d="M7.76.06c.22-.17 1.08.07 1.17.34.03.83-.07 1.58-1.03 1.78-.75.12-1.1-.41-1.18-.99.99-.12.92-.49 1.04-1.13z"/><path fill="none" fill-rule="nonzero" stroke="#2B2A29" stroke-miterlimit="22.9256" stroke-width=".15" d="M7.76.06c.22-.17 1.08.07 1.17.34.03.83-.07 1.58-1.03 1.78-.75.12-1.1-.41-1.18-.99.99-.12.92-.49 1.04-1.13z"/><path fill="#FEFEFE" d="M6.13.13c-.26-.21-.6.02-1.05.31-.03.83.07 1.58 1.03 1.78.75.12 1.09-.42 1.18-.99C6.3 1.1 6.25.77 6.13.13z"/><path fill="none" fill-rule="nonzero" stroke="#2B2A29" stroke-miterlimit="22.9256" stroke-width=".15" d="M6.13.13c-.26-.21-.6.02-1.05.31-.03.83.07 1.58 1.03 1.78.75.12 1.09-.42 1.18-.99C6.3 1.1 6.25.77 6.13.13z"/><path fill="#BDD180" d="M7.03 1.12c-.27 0-.5.21-.5.49 0 .27.23.49.5.49.28 0 .5-.22.5-.49 0-.28-.22-.49-.5-.49z"/><path fill="none" fill-rule="nonzero" stroke="#2B2A29" stroke-miterlimit="22.9256" stroke-width=".15" d="M7.03 1.12c-.27 0-.5.21-.5.49 0 .27.23.49.5.49.28 0 .5-.22.5-.49 0-.28-.22-.49-.5-.49z"/><path fill="#BDD180" d="M10.41 6.51c-.53-.05-.96-.16-1.7-.54.08 1.65-.17 2.28.74 2.34 1.52.19 1.2-.72.96-1.8z"/><path fill="none" fill-rule="nonzero" stroke="#2B2A29" stroke-miterlimit="22.9256" stroke-width=".15" d="M10.41 6.51c-.53-.05-.96-.16-1.7-.54.08 1.65-.17 2.28.74 2.34 1.52.19 1.2-.72.96-1.8z"/><path fill="#BDD180" d="M3.56 6.54c.53-.05.97-.16 1.71-.54-.09 1.65.16 2.29-.75 2.34-1.51.19-1.2-.71-.96-1.8z"/><path fill="none" fill-rule="nonzero" stroke="#2B2A29" stroke-miterlimit="22.9256" stroke-width=".15" d="M3.56 6.54c.53-.05.97-.16 1.71-.54-.09 1.65.16 2.29-.75 2.34-1.51.19-1.2-.71-.96-1.8z"/><path fill="#F08BB2" fill-rule="nonzero" d="M21.07 9.8c.4-.07.56-.09.91-.2l.03-.01v-.03c-.29-1.35-.19-2.9-.31-4.18 0-.07-.01-.13-.01-.2l-.01-.11-.06.11v.01l-.42-2.84.04-.02-.02-.03c-.02-.06-.05-.1-.08-.15-.02-.03-.04-.04-.06-.07-.06-.06-.05 0-.13.03-.8.31-4.75.04-5.16.01-.15.15-.2.32-.33.56l-.02.04c.94.14-.46 3.13-.08 2.74-.08-.02-.15-.06-.2-.1l-.06-.04v.07c0 .08 0 .16-.01.21v.21c-.03.71-.11 1.51-.19 2.27-.05.52-.1 1.02-.14 1.48v.03l.03.01c.47.09.83.09 1.15.09.24 0 .96.03 1.2.08h.03l.01-.03 1.01-3.78.2.04 1.36 3.93.01.02h.02c.45-.03.88-.08 1.29-.15z"/><path fill="none" fill-rule="nonzero" stroke="#2B2A29" stroke-miterlimit="22.9256" stroke-width=".15" d="M21.07 9.8c.4-.07.56-.09.91-.2l.03-.01v-.03c-.29-1.35-.19-2.9-.31-4.18 0-.07-.01-.13-.01-.2l-.01-.11-.06.11v.01s0 0 0 0l-.42-2.84.04-.02-.02-.03c-.02-.06-.05-.1-.08-.15-.02-.03-.04-.04-.06-.07-.06-.06-.05 0-.13.03-.8.31-4.75.04-5.16.01-.15.15-.2.32-.33.56l-.02.04c.94.14-.46 3.13-.08 2.74-.08-.02-.15-.06-.2-.1l-.06-.04v.07c0 .08 0 .16-.01.21v.21c-.03.71-.11 1.51-.19 2.27-.05.52-.1 1.02-.14 1.48v.03l.03.01c.47.09.83.09 1.15.09.24 0 .96.03 1.2.08h.03l.01-.03 1.01-3.78.2.04 1.36 3.93.01.02h.02c.45-.03.88-.08 1.29-.15z"/><path fill="#F5B2B6" fill-rule="nonzero" d="M21.37 2.34c-.24.11-.5.18-.77.24-.27.05-.55.08-.83.1h-.07l.01.04.55 2.61.01.01c.16.14.33.25.55.29.22.03.49-.02.84-.21h.01l.01-.01c.14-.17.21-.49.17-.99-.03-.5-.16-1.17-.41-2.07l-.01-.04-.06.03z"/><path fill="none" fill-rule="nonzero" stroke="#2B2A29" stroke-miterlimit="22.9256" stroke-width=".15" d="M21.37 2.34c-.24.11-.5.18-.77.24-.27.05-.55.08-.83.1h-.07l.01.04.55 2.61h0l.01.01c.16.14.33.25.55.29.22.03.49-.02.84-.21h.01l.01-.01c.14-.17.21-.49.17-.99-.03-.5-.16-1.17-.41-2.07l-.01-.04-.06.03z"/><path fill="#F5B2B6" fill-rule="nonzero" d="M15.41 2.39c.24.11.5.19.76.24.27.06.55.09.84.1h.06l-.01.04-.54 2.61v.01l-.01.01c-.16.13-.33.25-.55.28-.23.04-.5-.01-.84-.2h-.01l-.01-.01c-.14-.17-.21-.49-.17-.99.03-.5.16-1.18.41-2.07l.01-.04.06.02z"/><path fill="none" fill-rule="nonzero" stroke="#2B2A29" stroke-miterlimit="22.9256" stroke-width=".15" d="M15.41 2.39c.24.11.5.19.76.24.27.06.55.09.84.1h.06l-.01.04-.54 2.61v.01l-.01.01c-.16.13-.33.25-.55.28-.23.04-.5-.01-.84-.2h-.01l-.01-.01c-.14-.17-.21-.49-.17-.99.03-.5.16-1.18.41-2.07l.01-.04.06.02z"/></svg>