<svg xmlns="http://www.w3.org/2000/svg" width="119" height="58" fill-rule="evenodd" clip-rule="evenodd" image-rendering="optimizeQuality" shape-rendering="geometricPrecision" text-rendering="geometricPrecision" viewBox="0 0 193.23 94.49"><path fill="#F08BB2" d="M41.9 18.11c30.34.2 39.28 34.61 38.26 53.46-1.02 18.85-22.51 13.77-39.36 12.86-16.86-.91-37.4 7.06-36.38-11.79C5.44 53.8 11.57 17.92 41.9 18.11z"/><path fill="none" fill-rule="nonzero" stroke="#2B2A29" stroke-miterlimit="22.9256" stroke-width="1.46" d="M41.9 18.11c30.34.2 39.28 34.61 38.26 53.46-1.02 18.85-22.51 13.77-39.36 12.86-16.86-.91-37.4 7.06-36.38-11.79C5.44 53.8 11.57 17.92 41.9 18.11z"/><path fill="#F5B2B6" d="M40.71.06c6.2.33 10.98 5.31 10.66 11.12-.31 5.81-5.6 10.24-11.8 9.91-6.21-.34-10.98-5.32-10.67-11.13.32-5.8 5.6-10.24 11.81-9.9z"/><path fill="none" fill-rule="nonzero" stroke="#2B2A29" stroke-miterlimit="22.9256" stroke-width="1.46" d="M40.71.06c6.2.33 10.98 5.31 10.66 11.12-.31 5.81-5.6 10.24-11.8 9.91-6.21-.34-10.98-5.32-10.67-11.13.32-5.8 5.6-10.24 11.81-9.9z"/><path fill="#F5B2B6" d="M3.4 67.15c28.11 2.67 50.33 2.51 77.18-2.05 1.9-.32 3.57 1.43 3.65 3.36l.6 14.44c.08 1.93-1.47 3.27-3.36 3.66-26.9 5.59-49.12 5.89-77.17 2.04-1.91-.26-3.57-1.43-3.65-3.36L.04 70.8c-.08-1.93 1.44-3.84 3.36-3.65z"/><path fill="none" fill-rule="nonzero" stroke="#2B2A29" stroke-miterlimit="22.9256" stroke-width="1.46" d="M3.4 67.15c28.11 2.67 50.33 2.51 77.18-2.05 1.9-.32 3.57 1.43 3.65 3.36l.6 14.44c.08 1.93-1.47 3.27-3.36 3.66-26.9 5.59-49.12 5.89-77.17 2.04-1.91-.26-3.57-1.43-3.65-3.36L.04 70.8c-.08-1.93 1.44-3.84 3.36-3.65z"/><path fill="none" fill-rule="nonzero" stroke="#2B2A29" stroke-miterlimit="22.9256" stroke-width="1.46" d="M5.78 67.37c2.14.19 4.25.37 6.33.53-.42 6.03.1 16.01 1.27 21.82-2.13-.23-4.28-.49-6.47-.77-.94-5.66-1.46-15.85-1.13-21.58zM18.44 68.33c2.13.13 4.24.24 6.33.32-.44 6.09.1 16.32 1.31 22.15-2.12-.13-4.26-.29-6.43-.47-.99-5.51-1.55-16.08-1.21-22zM30.74 68.84c2.14.04 4.26.07 6.38.06-.57 5.63-.12 15.98 1.03 22.27-2.1 0-4.21-.04-6.34-.11-.97-5.9-1.5-16.66-1.07-22.22zM70.78 66.6c2.05-.28 4.13-.58 6.24-.92.96 5.4 1.54 15.56 1.24 21.52-2.15.42-4.27.81-6.38 1.16.52-6.01-.03-15.94-1.1-21.76zM57.69 68.03c2.08-.17 4.17-.37 6.27-.6.97 5.08 1.5 15.65 1.16 21.95-2.14.29-4.26.54-6.37.76.54-6.35.02-16.58-1.06-22.11zM44.52 68.78c2.24-.06 4.48-.16 6.72-.29v22.28c-2.24.14-4.48.25-6.72.32V68.78z"/><path fill="#BDD180" d="M157.88 5.1c2.63.99 3.96 3.95 2.97 6.57l-9.86 26.07 16.02-24.52c1.53-2.35 4.71-3.02 7.06-1.48 2.34 1.53 3.01 4.71 1.48 7.05l-14.06 21.52 18.03-19.06c1.93-2.04 5.17-2.12 7.21-.2 2.04 1.93 2.13 5.17.2 7.21l-18.68 19.75 17.25-13.18c2.03-1.55 4.96-1.15 6.51.88 1.55 2.02 1.16 4.95-.87 6.5l-22.55 17.21c-10.62 8.11-19.25 21.95-25.52 24.38-3.75 1.3-16.78-3.88-20.95-10.96-4.65-7.9 8.05-26.31 4.04-35.84-3.01-7.45-9.44-12.11-6.5-15.45 12.63-9 18.69 20.75 20.62 15.66l11.03-29.15c.99-2.62 3.95-3.96 6.57-2.96z"/><path fill="#2B2A29" fill-rule="nonzero" d="M157.88 5.1l.1-.26-.1.26zm3.23 6.67l-.52-.2.08-.23.07-.24.06-.23.04-.24.03-.23.02-.24.01-.24v-.23l-.02-.24-.02-.23-.04-.23-.05-.23-.06-.22-.07-.22-.08-.22-.09-.22-.1-.2-.11-.21-.12-.2-.13-.19-.14-.19-.15-.18-.15-.17-.17-.17-.17-.16-.18-.15-.19-.14-.2-.13-.21-.13-.21-.11-.23-.1-.22-.1.19-.51.26.1.24.12.24.13.23.13.22.15.22.16.2.17.19.17.19.19.17.19.17.2.15.21.14.22.14.22.12.22.11.24.1.23.09.25.08.24.06.26.06.25.04.25.03.26.02.26v.27l-.01.26-.02.26-.04.27-.04.26-.07.27-.07.26-.09.26zm-10.38 25.87l9.86-26.07.52.2-9.87 26.07-.02.05-.49-.25zm.49.25l-1.39 2.12.9-2.37.49.25zm16.02-24.52l-16.02 24.52-.47-.3 16.03-24.53.46.31zm6.98-1.86l-.31.46-.21-.13-.21-.12-.22-.11-.22-.09-.22-.08-.23-.07-.23-.06-.23-.05-.23-.03-.24-.03-.23-.01h-.23l-.23.01-.24.02-.22.03-.23.04-.23.05-.22.07-.22.07-.22.08-.21.1-.21.11-.2.11-.2.13-.19.13-.19.15-.18.15-.17.17-.17.17-.15.19-.15.19-.14.21-.46-.31.16-.22.16-.22.18-.2.18-.2.19-.18.2-.18.21-.16.21-.15.23-.14.22-.13.23-.12.24-.1.24-.1.24-.08.25-.07.26-.06.25-.04.25-.04.26-.02.26-.01h.26l.26.01.26.03.26.04.25.05.26.07.25.08.25.09.25.1.24.12.24.13.24.15zm-.15.23l.15-.23-.15.23zm1.71 7.21l-.46-.31.13-.21.11-.21.11-.22.09-.22.09-.23.06-.22.06-.23.05-.23.04-.23.02-.24.01-.23.01-.23-.01-.23-.02-.24-.03-.23-.05-.22-.05-.23-.07-.22-.07-.22-.08-.22-.1-.21-.1-.21-.12-.2-.13-.2-.13-.19-.15-.19-.15-.18-.17-.17-.17-.17-.19-.15-.19-.15-.21-.14.31-.46.22.15.22.17.2.17.2.19.18.19.18.2.16.21.15.21.14.23.13.22.12.23.1.24.1.24.08.24.07.25.06.25.05.26.03.25.03.26.01.26-.01.26-.01.26-.03.26-.04.25-.05.26-.06.26-.08.25-.09.25-.11.25-.12.24-.13.24-.14.24zm-14.52 21.21l14.06-21.52.46.31-14.06 21.51-.03.04-.43-.34zm.43.34l-2.11 2.23 1.68-2.57.43.34zm18.03-19.06L161.69 40.5l-.4-.38 18.03-19.06.4.38zm7.2-.59l-.38.4-.18-.16-.19-.16-.2-.14-.2-.13-.2-.12-.22-.11-.21-.1-.22-.09-.22-.08-.23-.06-.22-.05-.23-.05-.23-.03-.23-.02-.24-.01h-.23l-.23.01-.23.03-.23.03-.23.05-.23.05-.22.07-.22.07-.21.09-.22.1-.21.11-.2.12-.2.13-.19.15-.19.15-.18.17-.18.17-.4-.38.2-.19.2-.19.21-.17.21-.16.23-.14.23-.14.23-.12.23-.11.25-.1.24-.09.25-.07.25-.06.26-.05.25-.04.26-.03.26-.01h.26l.26.01.25.03.26.03.25.05.26.06.25.07.24.09.25.09.23.12.24.12.23.13.23.15.21.16.22.17.2.18zm-.19.2l.19-.2-.19.2zm.4 7.4l-.4-.38.17-.18.15-.19.14-.2.14-.2.12-.2.1-.22.1-.21.09-.22.08-.22.06-.22.06-.23.04-.23.03-.23.02-.23.01-.23v-.24l-.01-.23-.02-.23-.04-.23-.04-.23-.06-.22-.06-.23-.08-.22-.09-.21-.1-.22-.11-.21-.12-.2-.13-.2-.15-.19-.15-.19-.16-.18-.18-.18.38-.4.19.2.19.2.17.21.16.21.15.23.13.23.12.23.11.23.1.25.09.24.07.25.07.25.05.26.03.25.03.26.01.26v.26l-.01.26-.02.25-.04.26-.04.25-.07.26-.07.25-.08.24-.1.25-.11.23-.12.24-.14.23-.15.23-.15.21-.18.22-.18.2zm-19.08 19.37l18.68-19.75.4.38-18.68 19.74-.04.03-.36-.4zm.36.4l-2.7 2.07 2.34-2.47.36.4zm17.26-13.17l-17.26 13.17-.33-.43 17.26-13.18.33.44zm6.56.49l-.44.33-.14-.17-.15-.17-.15-.15-.16-.15-.17-.14-.17-.13-.18-.11-.18-.12-.19-.1-.19-.09-.19-.08-.2-.07-.2-.06-.21-.06-.2-.04-.21-.03-.21-.03-.21-.01h-.21l-.21.01-.21.01-.21.03-.21.04-.2.05-.21.05-.2.07-.2.08-.2.09-.19.1-.19.11-.19.12-.18.13-.33-.44.2-.14.21-.14.21-.12.22-.12.23-.1.22-.08.23-.08.23-.07.23-.05.24-.04.23-.03.24-.02.24-.01h.23l.24.02.23.02.24.04.23.05.23.06.22.07.22.08.23.09.21.1.21.12.21.12.2.13.19.15.19.16.18.16.17.18.17.18.16.2zm-.22.17l.22-.17-.22.17zm-.71 6.72l-.33-.44.17-.14.17-.15.16-.15.14-.16.14-.17.13-.17.12-.18.11-.18.1-.19.09-.19.08-.19.07-.2.07-.2.05-.21.04-.2.03-.21.03-.21.01-.21v-.21l-.01-.21-.01-.21-.03-.21-.04-.2-.04-.21-.06-.21-.07-.2-.08-.2-.09-.2-.1-.19-.11-.19-.12-.19-.13-.18.44-.33.15.2.13.21.12.22.12.22.1.22.09.22.07.23.07.23.05.23.04.24.03.23.03.24v.47l-.02.24-.02.24-.04.23-.05.23-.06.23-.07.22-.08.23-.09.22-.1.21-.12.21-.12.21-.13.2-.15.19-.15.19-.17.18-.17.18-.19.16-.2.16zM168.43 59.2l22.54-17.21.33.44-22.54 17.21-.33-.44zm-25.27 24.86l-.18-.52h-.01l.57-.25.6-.31.6-.38.63-.43.64-.49.66-.54.66-.59.69-.64.7-.68.71-.72.73-.75.74-.79.75-.82.77-.84.78-.87.79-.88.81-.91.82-.91.83-.93.85-.94.86-.94.87-.94.88-.94.9-.93.91-.93.92-.91.93-.9.95-.89.96-.86.97-.84.98-.81 1-.78.33.44-.98.77-.98.8-.96.83-.95.86-.94.87-.93.9-.91.91-.91.92-.89.93-.88.94-.87.94-.86.93-.84.94-.83.92-.82.92-.81.91-.79.88-.78.87-.77.85-.76.82-.74.79-.74.76-.72.72-.7.69-.7.64-.68.61-.67.55-.66.5-.64.45-.64.4-.63.33-.61.27h-.01zm.01 0h-.01.01zm-21.28-11.08l.47-.28.41.64.45.64.5.62.54.61.59.6.62.58.65.57.68.55.7.53.73.51.74.5.76.48.78.45.78.44.79.41.79.38.79.37.78.34.78.31.76.28.75.26.74.23.71.2.68.17.66.13.62.11.59.07.54.04h.51l.45-.02.41-.07.34-.09.18.52-.41.11-.46.07-.5.03h-.54l-.58-.04-.61-.08-.65-.11-.67-.14-.7-.17-.73-.21-.75-.23-.76-.26-.78-.29-.79-.32-.8-.34-.8-.37-.8-.39-.8-.42-.79-.44-.79-.46-.78-.49-.76-.5-.74-.53-.71-.54-.7-.56-.67-.58-.63-.6-.6-.61-.56-.63-.52-.65-.47-.66-.42-.67zm4.02-35.87l.51-.21.34.94.24.99.15 1.04.08 1.07v1.11l-.08 1.14-.12 1.17-.19 1.2-.23 1.21-.28 1.24-.3 1.25-.34 1.26-.37 1.27-.37 1.27-.39 1.28-.39 1.27-.39 1.27-.39 1.26-.36 1.25-.35 1.22-.32 1.21-.29 1.19-.24 1.16-.2 1.12-.15 1.09-.09 1.05-.03 1.01.04.96.11.91.2.86.28.79.37.74-.47.28-.41-.8-.3-.86-.21-.91-.12-.96-.04-1.01.03-1.04.09-1.08.15-1.11.21-1.15.25-1.17.29-1.2.32-1.22.35-1.24.37-1.25.38-1.26.39-1.27.39-1.27.39-1.27.38-1.27.36-1.27.33-1.25.31-1.24.27-1.22.23-1.2.18-1.17.13-1.14.06-1.11.01-1.08-.07-1.03-.15-.99-.23-.94-.32-.89zm0 0l.04.1-.04-.1zm-6.42-15.78l.33.44.04-.04-.23.29-.17.3-.13.3-.09.31-.05.31-.01.33.03.34.07.36.1.36.13.39.17.39.2.41.22.42.25.44.27.44.29.47.31.47.32.49.34.5.35.51.36.53.37.55.37.55.36.58.37.58.37.6.36.62.35.64.34.64.33.67.31.68.3.7-.51.21-.29-.69-.31-.66-.32-.65-.33-.64-.35-.63-.35-.6-.36-.6-.37-.58-.37-.56-.36-.56-.36-.54-.36-.53-.35-.51-.34-.5-.33-.5-.31-.47-.3-.47-.28-.46-.25-.45-.23-.44-.21-.43-.18-.43-.15-.41-.11-.41-.07-.41-.04-.39.01-.39.06-.39.11-.38.16-.36.21-.36.27-.34.04-.04zm-.04.04l.02-.03.02-.01-.04.04zm20.57 15.74l.52.2-.23.44-.33.28-.43.02-.36-.21-.34-.34-.34-.46-.35-.58-.38-.69-.41-.77-.43-.86-.46-.92-.49-.98-.51-1.02-.55-1.04-.58-1.06-.6-1.07-.64-1.05-.67-1.02-.7-.98-.73-.93-.76-.87-.79-.78-.82-.69-.84-.58-.88-.46-.91-.34-.94-.19-.97-.04-1.01.13-1.04.31-1.1.5-1.13.71-.33-.44 1.2-.75 1.16-.54 1.13-.33 1.1-.14 1.06.04 1.02.21.98.37.94.49.9.61.86.73.81.81.79.89.74.95.72 1 .68 1.04.64 1.06.62 1.08.58 1.07.55 1.05.52 1.02.48.99.47.92.42.85.4.76.37.67.34.55.31.42.25.27.17.1h.06l.11-.1.15-.31zm11.55-28.95l-11.03 29.15-.52-.2 11.03-29.15.52.2zm6.41-3.32l-.19.51-.24-.08-.23-.07-.24-.05-.24-.05-.23-.03-.24-.02-.24-.01-.23.01-.23.01-.24.03-.23.03-.23.05-.22.06-.22.07-.22.08-.21.09-.21.1-.21.11-.2.12-.19.13-.19.14-.18.15-.17.16-.17.16-.15.17-.15.19-.15.19-.13.2-.12.2-.12.22-.1.22-.09.23-.52-.2.11-.25.11-.25.13-.24.14-.23.14-.22.16-.21.17-.21.18-.19.18-.18.2-.18.19-.16.21-.16.22-.14.22-.13.23-.13.23-.11.24-.1.24-.09.25-.08.25-.06.25-.05.26-.05.26-.03.26-.01.26-.01.26.01.27.02.26.04.26.05.27.06.26.08.26.09z"/><path fill="#99CFBA" d="M157.88 5.1c2.63.99 3.96 3.95 2.97 6.57l-2.86 7.55-9.8-2.93 3.12-8.23c.99-2.62 3.95-3.96 6.57-2.96zm4.27 15.55l4.86-7.43c1.53-2.35 4.71-3.02 7.06-1.48 2.34 1.53 3.01 4.71 1.48 7.05l-5.06 7.75-8.34-5.89zm10.5 7.86l6.87-7.26c1.93-2.04 5.17-2.12 7.21-.2 2.04 1.93 2.13 5.17.2 7.21l-6.87 7.26-7.41-7.01zm8.74 9.46l4.11-3.14c2.03-1.55 4.96-1.15 6.51.88 1.55 2.02 1.16 4.95-.87 6.5l-6.82 5.21-2.93-9.45zm-55.87-2.42c-3.18-6.61-8.6-10.88-5.86-14 7-4.99 11.99 1.93 15.37 8.23l-9.51 5.77z"/><path fill="#2B2A29" fill-rule="nonzero" d="M157.88 5.1l.1-.26-.1.26zm3.23 6.67l-.52-.2.08-.23.07-.24.06-.23.04-.24.03-.23.02-.24.01-.24v-.23l-.02-.24-.02-.23-.04-.23-.05-.23-.06-.22-.07-.22-.08-.22-.09-.22-.1-.2-.11-.21-.12-.2-.13-.19-.14-.19-.15-.18-.15-.17-.17-.17-.17-.16-.18-.15-.19-.14-.2-.13-.21-.13-.21-.11-.23-.1-.22-.1.19-.51.26.1.24.12.24.13.23.13.22.15.22.16.2.17.19.17.19.19.17.19.17.2.15.21.15.22.13.22.12.22.11.24.1.23.09.25.08.24.06.26.06.25.04.25.03.26.02.26v.27l-.01.26-.02.26-.04.27-.04.26-.07.27-.07.26-.09.26zm-3.38 7.36l2.86-7.56.52.2-2.86 7.55-.34.17-.18-.36zm.52.19l-.09.24-.25-.07.34-.17zm-9.98-3.29l9.8 2.93-.16.53-9.79-2.94-.18-.36.33-.16zm-.15.52l-.29-.08.11-.28.18.36zm3.45-8.39l-3.12 8.23-.51-.2 3.11-8.23.52.2zm6.41-3.32l-.19.51-.24-.08-.23-.07-.24-.05-.24-.05-.23-.03-.24-.02-.24-.01-.23.01-.23.01-.24.03-.23.03-.23.05-.22.06-.22.07-.22.08-.21.09-.21.1-.21.11-.2.12-.19.13-.19.14-.18.15-.17.16-.17.16-.15.17-.15.19-.15.19-.13.2-.12.2-.12.22-.1.22-.09.23-.52-.2.11-.25.11-.25.13-.24.14-.23.14-.22.16-.21.17-.21.18-.19.18-.18.2-.18.19-.16.21-.16.22-.14.22-.13.23-.13.23-.11.24-.1.24-.09.25-.08.25-.06.25-.05.26-.05.26-.03.26-.01.26-.01.26.01.27.02.26.04.26.05.27.06.26.08.26.09zm9.26 8.53l-4.86 7.43-.46-.3 4.86-7.44.46.31zm6.98-1.86l-.31.46-.21-.13-.21-.12-.22-.11-.22-.09-.22-.08-.23-.07-.23-.06-.23-.05-.23-.03-.24-.03-.23-.01h-.23l-.23.01-.24.02-.22.03-.23.04-.23.05-.22.07-.22.07-.22.08-.21.1-.21.11-.2.11-.2.13-.19.13-.19.15-.18.15-.17.17-.17.17-.15.19-.15.19-.14.21-.46-.31.16-.22.16-.22.18-.2.18-.2.19-.18.2-.18.21-.16.21-.15.23-.14.22-.13.23-.12.24-.1.24-.1.24-.08.25-.07.26-.06.25-.04.25-.04.26-.02.26-.01h.26l.26.01.26.03.26.04.25.05.26.07.25.08.25.09.25.1.24.12.24.13.24.15zm-.15.23l.15-.23-.15.23zm1.71 7.21l-.46-.31.13-.21.11-.21.11-.22.09-.22.09-.23.06-.22.06-.23.05-.23.04-.23.02-.24.01-.23.01-.23-.01-.23-.02-.24-.03-.23-.05-.22-.05-.23-.07-.22-.07-.22-.08-.22-.1-.21-.1-.21-.12-.2-.13-.2-.13-.19-.15-.19-.15-.18-.17-.17-.17-.17-.19-.15-.19-.15-.21-.14.31-.46.22.15.22.17.2.17.2.19.18.19.18.2.16.21.15.21.14.23.13.22.12.23.1.24.1.24.08.24.07.25.06.25.05.26.03.25.03.26.01.26-.01.26-.01.26-.03.26-.04.25-.05.26-.06.26-.08.25-.09.25-.11.25-.12.24-.13.24-.14.24zm-5.52 7.44l5.06-7.75.46.31-5.06 7.74-.39.07-.07-.37zm.46.3l-.16.24-.23-.17.39-.07zm-8.41-6.27l8.34 5.89-.32.45-8.34-5.88-.07-.38.39-.08zm-.32.46l-.22-.16.15-.22.07.38zm17.73.56l-6.87 7.26-.4-.38 6.87-7.26.4.38zm7.2-.59l-.38.4-.18-.16-.19-.16-.2-.14-.2-.13-.2-.12-.22-.11-.21-.1-.22-.09-.22-.08-.23-.06-.22-.05-.23-.05-.23-.03-.23-.02-.24-.01h-.23l-.23.01-.23.03-.23.03-.23.05-.23.05-.22.07-.22.07-.21.09-.22.1-.21.11-.2.12-.2.13-.19.15-.19.15-.18.17-.18.17-.4-.38.2-.19.2-.19.21-.17.21-.16.23-.14.23-.14.23-.12.23-.11.25-.1.24-.09.25-.07.25-.06.26-.05.25-.04.26-.03.26-.01h.26l.26.01.25.03.26.03.25.05.26.06.25.07.24.09.25.09.23.12.24.12.23.13.23.15.21.16.22.17.2.18zm-.19.2l.19-.2-.19.2zm.4 7.4l-.4-.38.17-.18.15-.19.14-.2.14-.2.12-.2.1-.22.1-.21.09-.22.08-.22.06-.22.06-.23.04-.23.03-.23.02-.23.01-.23v-.24l-.01-.23-.02-.23-.04-.23-.04-.23-.06-.22-.06-.23-.08-.22-.09-.21-.1-.22-.11-.21-.12-.2-.13-.2-.15-.19-.15-.19-.16-.18-.18-.18.38-.4.19.2.19.2.17.21.16.21.15.23.13.23.12.23.11.23.1.25.09.24.07.25.07.25.05.26.03.25.03.26.01.26v.26l-.01.26-.02.25-.04.26-.04.25-.07.26-.07.25-.08.24-.1.25-.11.23-.12.24-.14.23-.15.23-.15.21-.18.22-.18.2zm-7.27 6.88l6.87-7.26.4.38-6.87 7.26-.39.01-.01-.39zm.4.38l-.19.2-.2-.19.39-.01zm-7.42-7.4l7.41 7.01-.38.4-7.41-7.01-.01-.39.39-.01zm-.38.4l-.2-.19.19-.2.01.39zm13.21 6.34l-4.11 3.14-.33-.44 4.11-3.14.33.44zm6.56.49l-.44.33-.14-.17-.15-.17-.15-.15-.16-.15-.17-.14-.17-.13-.18-.11-.18-.12-.19-.1-.19-.09-.19-.08-.2-.07-.2-.06-.21-.06-.2-.04-.21-.03-.21-.03-.21-.01h-.21l-.21.01-.21.01-.21.03-.21.04-.2.05-.21.05-.2.07-.2.08-.2.09-.19.1-.19.11-.19.12-.18.13-.33-.44.2-.14.21-.14.21-.12.22-.12.23-.1.22-.08.23-.08.23-.07.23-.05.24-.04.23-.03.24-.02.24-.01h.23l.24.02.23.02.24.04.23.05.23.06.22.07.22.08.23.09.21.1.21.12.21.12.2.13.19.15.19.16.18.16.17.18.17.18.16.2zm-.22.17l.22-.17-.22.17zm-.71 6.72l-.33-.44.17-.14.17-.15.16-.15.14-.16.14-.17.13-.17.12-.18.11-.18.1-.19.09-.19.08-.19.07-.2.07-.2.05-.21.04-.2.03-.21.03-.21.01-.21v-.21l-.01-.21-.01-.21-.03-.21-.04-.2-.04-.21-.06-.21-.07-.2-.08-.2-.09-.2-.1-.19-.11-.19-.12-.19-.13-.18.44-.33.15.2.13.21.12.22.12.22.1.22.09.22.07.23.07.23.05.23.04.24.03.23.03.24v.47l-.02.24-.02.24-.04.23-.05.23-.06.23-.07.22-.08.23-.09.22-.1.21-.12.21-.12.21-.13.2-.15.19-.15.19-.17.18-.17.18-.19.16-.2.16zm-7.15 4.77l6.82-5.21.33.44-6.81 5.2-.43-.13.09-.3zm.34.43l-.32.24-.11-.37.43.13zm-2.83-9.74l2.92 9.44-.52.17-2.93-9.45.1-.3.43.14zm-.53.16l-.06-.18.16-.12-.1.3zm-61.64-16.72l.33.44.04-.04-.21.27-.17.28-.13.28-.09.28-.06.3-.02.3.01.31.05.33.08.33.1.35.13.36.17.37.18.39.22.39.23.41.25.42.27.43.29.44.3.45.31.46.32.48.34.49.33.5.35.51.34.53.35.54.34.55.34.56.34.58.32.59.32.61.31.62-.5.23-.3-.6-.31-.6-.32-.58-.33-.57-.34-.56-.34-.54-.34-.53-.34-.52-.34-.51-.34-.5-.33-.49-.32-.48-.32-.46-.3-.46-.29-.45-.28-.43-.26-.43-.24-.42-.22-.41-.19-.41-.17-.39-.15-.39-.12-.39-.08-.38-.05-.37-.02-.37.03-.36.06-.36.12-.35.15-.34.21-.33.25-.32.04-.04zm-.04.04l.02-.03.02-.01-.04.04zm15.72 8.64l-.29-.47-.09.37-.32-.59-.33-.59-.34-.59-.35-.59-.36-.57-.37-.58-.37-.56-.39-.55-.39-.53-.41-.51-.41-.5-.43-.47-.43-.45-.44-.42-.45-.39-.46-.37-.47-.33-.48-.29-.49-.26-.49-.21-.51-.18-.51-.13-.53-.09-.53-.04-.55.01-.55.06-.57.11-.58.17-.6.23-.61.29-.62.36-.63.42-.33-.44.67-.45.66-.37.64-.31.64-.25.63-.18.61-.13.61-.06.59-.01.59.04.57.1.56.14.55.19.53.24.52.27.51.31.49.35.49.38.47.41.46.44.45.46.43.49.43.51.41.53.41.54.39.56.38.57.38.58.36.59.35.59.34.6.34.59.32.6-.1.36zm.1-.36l.12.23-.22.13.1-.36zm-9.89 5.67l9.5-5.78.29.47-9.5 5.78-.4-.12.11-.35zm.29.47l-.26.16-.14-.28.4.12z"/><path fill="#99CFBA" d="M121.89 72.39c-3.51-6.21-9.53 2.35-6.87 8.25 7.88 9.7 16.65 12.27 23.8 13.57 3.58.19 6.76-7.38 4.25-10.41-3.75 1.3-16.78-3.88-20.95-10.96-.08-.14-.16-.29-.23-.45z"/><path fill="#2B2A29" fill-rule="nonzero" d="M115.23 80.47l-.43.34-.03-.06-.24-.58-.18-.59-.13-.61-.09-.6-.04-.61v-.61l.04-.61.07-.59.11-.59.15-.58.18-.55.2-.54.24-.51.25-.49.29-.46.3-.43.32-.39.34-.35.37-.31.37-.27.39-.22.41-.16.41-.1.42-.05.43.03.42.1.42.17.41.25.4.32.38.4.37.48.34.56-.47.27-.33-.52-.33-.43-.34-.36-.34-.27-.34-.21-.33-.14-.34-.08-.34-.01-.33.03-.34.09-.34.13-.34.19-.32.23-.33.28-.31.32-.29.36-.29.39-.26.43-.24.46-.22.48-.19.51-.17.53-.14.54-.1.55-.08.56-.03.58v.57l.04.57.08.56.12.57.17.55.22.54-.04-.06zm-.43.34l-.01-.02-.02-.04.03.06zm24.03 13.13l-.03.55-.03-.01-.68-.12-.69-.14-.69-.14-.71-.16-.71-.16-.72-.19-.72-.19-.74-.21-.74-.22-.74-.25-.75-.26-.76-.28-.75-.3-.77-.32-.76-.35-.77-.37-.77-.39-.77-.42-.78-.45-.77-.47-.77-.51-.78-.53-.77-.57-.77-.6-.77-.63-.77-.66-.77-.7-.76-.74-.76-.78-.76-.81-.75-.85-.75-.9.43-.34.74.88.74.84.75.8.75.77.75.72.75.69.76.66.76.62.76.59.76.56.76.52.77.5.76.47.76.44.76.41.75.39.76.36.75.34.76.32.74.3.75.27.73.26.74.24.73.22.72.21.72.19.71.18.7.17.7.15.69.14.68.14.68.12h-.04zm-.03.55h-.02l-.01-.01.03.01zm4.36-10.43l-.18-.52.3.08.24.32.2.35.17.37.13.38.1.41.07.41.04.43.01.44-.01.45-.04.44-.06.46-.09.45-.11.46-.13.45-.15.44-.17.44-.19.43-.2.41-.22.4-.24.39-.25.37-.27.34-.28.33-.29.3-.31.27-.32.25-.32.21-.34.17-.35.14-.36.1-.37.05-.37.01.03-.55.3-.01.3-.04.29-.08.3-.12.29-.15.29-.18.28-.22.28-.25.26-.27.26-.3.25-.33.24-.34.22-.36.21-.39.2-.39.17-.4.16-.42.15-.42.12-.43.1-.42.08-.43.06-.43.04-.42.01-.41-.01-.4-.04-.39-.06-.38-.09-.36-.12-.34-.14-.32-.17-.29-.2-.28.3.09zm-.18-.52l.18-.06.12.14-.3-.08zm-21.1-10.56l.48-.28.41.64.45.64.5.62.54.61.59.6.62.58.65.57.68.55.7.53.73.51.74.5.76.48.78.45.78.44.79.41.79.38.79.37.78.34.78.31.76.28.75.26.74.23.71.2.68.16.66.14.62.11.59.07.54.04h.51l.45-.02.4-.07.35-.09.18.52-.41.11-.46.07-.5.03h-.54l-.58-.04-.61-.08-.65-.11-.67-.14-.7-.17-.73-.21-.75-.23-.76-.26-.78-.29-.79-.32-.8-.34-.8-.37-.8-.39-.8-.42-.79-.44-.79-.46-.78-.49-.76-.5-.74-.53-.71-.54-.7-.56-.67-.58-.63-.6-.6-.61-.56-.63-.52-.65-.47-.66-.42-.67h-.01zm.01 0h-.01l-.04-.08.05.08zm-.24-.45l.47-.27.01.01.01.02.01.02.01.03h.01v.01l.01.01.01.03.01.02-.01-.01.02.02v.01l.02.03v.02h.01l.01.02.01.02v.01l.01.02.01.01v.01l.01.01.01.02.01.02.01.02.01.02.01.01.01.01v.01l.01.01-.48.28v-.02l-.01-.01-.01-.02-.01-.01-.01-.01v-.01l-.01-.02-.01-.02-.01-.01v-.01l-.01-.02-.01-.01-.01-.01-.01-.02-.01-.02-.01-.02-.01-.03-.01-.01v-.01l-.01-.01v-.01l-.02-.03-.01-.02-.01-.01-.01-.02v-.02h-.01l-.01-.03-.01-.02.01.01zm.47-.27l.01.01-.01-.01z"/></svg>