<svg xmlns="http://www.w3.org/2000/svg" width="79" height="68" fill-rule="evenodd" clip-rule="evenodd" image-rendering="optimizeQuality" shape-rendering="geometricPrecision" text-rendering="geometricPrecision" viewBox="0 0 33.92 29"><path fill="#F6C0C3" fill-rule="nonzero" d="M13.09 4.63c.16 1.59.24 3.3.23 5.23.65.53 2.21.85 3.91.97 1.81.12 3.77 0 4.97-.38.07-1.7.24-3.38.48-5.05.23-1.65.52-3.3.83-4.95l-2.37.01v.01c-.04.67-.33 1.38-.88 1.9-.54.53-1.34.88-2.37.87-.05 0-.1 0-.15-.01h-.01c-1.2-.15-1.97-.54-2.46-1.1-.48-.54-.68-1.23-.74-1.99l-2.19.03c.34 1.45.58 2.9.75 4.46z"/><path fill="none" fill-rule="nonzero" stroke="#2B2A29" stroke-miterlimit="22.9256" stroke-width=".39" d="M13.09 4.63c.16 1.59.24 3.3.23 5.23.65.53 2.21.85 3.91.97 1.81.12 3.77 0 4.97-.38.07-1.7.24-3.38.48-5.05.23-1.65.52-3.3.83-4.95l-2.37.01v.01c-.04.67-.33 1.38-.88 1.9-.54.53-1.34.88-2.37.87-.05 0-.1 0-.15-.01h-.01c-1.2-.15-1.97-.54-2.46-1.1-.48-.54-.68-1.23-.74-1.99l-2.19.03c.34 1.45.58 2.9.75 4.46z"/><path fill="#F2A0BF" fill-rule="nonzero" d="M.04 21.14c1.85-2.82 3.85-5.19 6.01-7.09 2.17-1.89 4.5-3.32 7.01-4.25l.03-.01.03.01.21.08h.01l.01.01c.19.14.44.26.74.38.33.11.71.22 1.13.3l.08.02-.02.09c-1.02 3.62-2.05 6.99-3.01 10.14-.63 2.07-1.24 4.04-1.79 5.93l-.02.05-.06.01c-.88.03-1.74-.04-2.49-.25-.66-.2-1.24-.5-1.68-.95-.74-.07-1.5-.27-2.11-.57-.4-.19-.73-.42-.96-.68-.24-.27-.36-.57-.33-.9.01-.1.03-.21.07-.31-.55-.24-1.08-.5-1.56-.8-.51-.31-.95-.67-1.29-1.12l-.04-.04.03-.05z"/><path fill="none" fill-rule="nonzero" stroke="#2B2A29" stroke-miterlimit="22.9256" stroke-width=".39" d="M.04 21.14c1.85-2.82 3.85-5.19 6.01-7.09 2.17-1.89 4.5-3.32 7.01-4.25l.03-.01.03.01.21.08h.01l.01.01c.19.14.44.26.74.38.33.11.71.22 1.13.3l.08.02-.02.09c-1.02 3.62-2.05 6.99-3.01 10.14-.63 2.07-1.24 4.04-1.79 5.93l-.02.05-.06.01c-.88.03-1.74-.04-2.49-.25-.66-.2-1.24-.5-1.68-.95-.74-.07-1.5-.27-2.11-.57-.4-.19-.73-.42-.96-.68-.24-.27-.36-.57-.33-.9.01-.1.03-.21.07-.31-.55-.24-1.08-.5-1.56-.8-.51-.31-.95-.67-1.29-1.12l-.04-.04.03-.05z"/><path fill="#F6C0C3" fill-rule="nonzero" d="M6.26 25.62c-.75-.07-1.52-.28-2.14-.58-.4-.19-.73-.42-.96-.68-.24-.27-.36-.57-.33-.9.01-.1.03-.21.07-.31v-.01l.03-.07c1.38-3.06 2.94-5.61 4.64-7.77 1.7-2.16 3.55-3.92 5.5-5.4l.04-.02.04.01.68.26.1.03-.06.09c-1.5 2.11-2.91 4.37-4.18 6.89-1.27 2.51-2.4 5.28-3.34 8.4l-.02.06h-.07z"/><path fill="none" fill-rule="nonzero" stroke="#2B2A29" stroke-miterlimit="22.9256" stroke-width=".39" d="M6.26 25.62c-.75-.07-1.52-.28-2.14-.58-.4-.19-.73-.42-.96-.68-.24-.27-.36-.57-.33-.9.01-.1.03-.21.07-.31v-.01l.03-.07c1.38-3.06 2.94-5.61 4.64-7.77 1.7-2.16 3.55-3.92 5.5-5.4l.04-.02.04.01.68.26.1.03-.06.09c-1.5 2.11-2.91 4.37-4.18 6.89-1.27 2.51-2.4 5.28-3.34 8.4l-.02.06h-.07z"/><path fill="#F2A0BF" fill-rule="nonzero" d="M27.83 14.19c1.91 2.04 3.92 4.93 6.03 8.9l.04.08-.07.04c-.24.13-.46.25-.66.37-.74.42-1.38.79-2.49 1.12.02.07.05.14.08.22.07.17.14.36.2.69l.01.05-.04.03c-1.09.76-2.23 1.24-2.98 1.41-.23.06-.43.08-.58.08-.11 0-.2-.02-.26-.05-.23.56-.57.95-1.2 1.15-.66.21-1.63.22-3.1 0l-.06-.01-.01-.07c-.28-3.15-.77-6.12-1.4-8.97-.62-2.85-1.38-5.58-2.19-8.26l-.03-.1.11-.01c.6-.02 1.18-.06 1.71-.14.47-.07.9-.16 1.26-.27v-.05l.07-.01.02-.01.02.01c1.77.57 3.6 1.76 5.52 3.8z"/><path fill="none" fill-rule="nonzero" stroke="#2B2A29" stroke-miterlimit="22.9256" stroke-width=".39" d="M27.83 14.19c1.91 2.04 3.92 4.93 6.03 8.9l.04.08-.07.04c-.24.13-.46.25-.66.37-.74.42-1.38.79-2.49 1.12.02.07.05.14.08.22.07.17.14.36.2.69l.01.05-.04.03c-1.09.76-2.23 1.24-2.98 1.41-.23.06-.43.08-.58.08-.11 0-.2-.02-.26-.05-.23.56-.57.95-1.2 1.15-.66.21-1.63.22-3.1 0l-.06-.01-.01-.07c-.28-3.15-.77-6.12-1.4-8.97-.62-2.85-1.38-5.58-2.19-8.26l-.03-.1.11-.01c.6-.02 1.18-.06 1.71-.14.47-.07.9-.16 1.26-.27v-.05l.07-.01h0l.02-.01.02.01c1.77.57 3.6 1.76 5.52 3.8z"/><path fill="#F6C0C3" fill-rule="nonzero" d="M24.39 17.85c-1.19-2.81-2.63-5.13-4.19-6.91l-.11-.13.17-.01c.24-.02.48-.05.71-.08.22-.04.43-.07.63-.12l.04-.01.03.03c1.95 1.59 3.65 3.6 5.1 5.86 1.57 2.46 2.85 5.24 3.84 8.12.07.22.12.33.16.44.06.14.11.27.2.55l.01.06-.05.03c-.43.29-1.08.7-1.76 1.01-.69.32-1.42.54-2 .47l-.03-.01-.02-.01-.05-.05c-.01-.01-.02-.03-.04-.04l-.02-.02V27c-.6-3.44-1.5-6.51-2.62-9.15z"/><path fill="none" fill-rule="nonzero" stroke="#2B2A29" stroke-miterlimit="22.9256" stroke-width=".39" d="M24.39 17.85c-1.19-2.81-2.63-5.13-4.19-6.91l-.11-.13.17-.01c.24-.02.48-.05.71-.08.22-.04.43-.07.63-.12l.04-.01.03.03c1.95 1.59 3.65 3.6 5.1 5.86 1.57 2.46 2.85 5.24 3.84 8.12.07.22.12.33.16.44.06.14.11.27.2.55l.01.06-.05.03c-.43.29-1.08.7-1.76 1.01-.69.32-1.42.54-2 .47l-.03-.01-.02-.01-.05-.05c-.01-.01-.02-.03-.04-.04l-.02-.02V27c-.6-3.44-1.5-6.51-2.62-9.15z"/><path fill="#F6C0C3" fill-rule="nonzero" d="M13.34 28.32c-.99-.19-1.99-.66-3-1.5l-.05-.03.02-.05c.55-1.89 1.16-3.88 1.8-5.97.96-3.15 1.99-6.53 3.01-10.14l.02-.07.08.01c.57.12 1.22.2 1.89.25.68.05 1.4.06 2.09.04h.01l.03.01h.06l.01.06c.82 2.68 1.57 5.42 2.2 8.27.62 2.84 1.11 5.79 1.39 8.92.1.09.25.14.38.2l-.05.02c-.44.22-.89.4-1.4.44-.5.05-1.04-.04-1.65-.35-.61.39-1.24.59-1.9.55-.65-.03-1.33-.3-2.03-.85-.96.29-1.93.38-2.91.19z"/><path fill="none" fill-rule="nonzero" stroke="#2B2A29" stroke-miterlimit="22.9256" stroke-width=".39" d="M13.34 28.32c-.99-.19-1.99-.66-3-1.5l-.05-.03.02-.05c.55-1.89 1.16-3.88 1.8-5.97.96-3.15 1.99-6.53 3.01-10.14l.02-.07.08.01c.57.12 1.22.2 1.89.25.68.05 1.4.06 2.09.04h.01l.03.01h.06l.01.06c.82 2.68 1.57 5.42 2.2 8.27.62 2.84 1.11 5.79 1.39 8.92.1.09.25.14.38.2l-.05.02c-.44.22-.89.4-1.4.44-.5.05-1.04-.04-1.65-.35-.61.39-1.24.59-1.9.55-.65-.03-1.33-.3-2.03-.85-.96.29-1.93.38-2.91.19z"/><path fill="#F2A0BF" fill-rule="nonzero" d="M18.35 28.99c-.64-.02-1.31-.27-2-.78l-.04-.03.01-.05c.33-2.41.62-5.56.76-8.9.12-2.74.13-5.62-.04-8.32l-.01-.1.1.01c.21.02.42.03.64.04.22.01.43.01.65.01h.07l.01.07c.35 2.63.69 5.42 1 8.34.31 2.92.59 5.96.81 9.08l.01.15-.13-.07-.01-.01c-.59.38-1.2.58-1.83.56z"/><path fill="none" fill-rule="nonzero" stroke="#2B2A29" stroke-miterlimit="22.9256" stroke-width=".39" d="M18.35 28.99c-.64-.02-1.31-.27-2-.78l-.04-.03.01-.05c.33-2.41.62-5.56.76-8.9.12-2.74.13-5.62-.04-8.32l-.01-.1.1.01c.21.02.42.03.64.04.22.01.43.01.65.01h.07l.01.07c.35 2.63.69 5.42 1 8.34.31 2.92.59 5.96.81 9.08l.01.15-.13-.07-.01-.01c-.59.38-1.2.58-1.83.56z"/><path fill="#F2A0BF" fill-rule="nonzero" d="M13.24 8.56c1.18.78 2.61 1.07 4.18 1.04 1.57-.03 3.29-.39 5.03-.94l.06-.02.04.06c.04.07.02.25 0 .44 0 .05 0 .1-.01.15 0 .06 0 .12-.01.17 0 .1 0 .19-.03.25l-.02.03-.03.01c-.69.18-1.59.37-2.59.5-.8.1-1.66.17-2.51.16-.77-.01-1.5-.06-2.2-.21-.71-.16-1.37-.41-1.99-.8l-.03-.02-.01-.02c-.02-.07-.03-.19-.03-.32-.01-.13 0-.29.02-.42l.02-.14.11.08z"/><path fill="none" fill-rule="nonzero" stroke="#2B2A29" stroke-miterlimit="22.9256" stroke-width=".39" d="M13.24 8.56c1.18.78 2.61 1.07 4.18 1.04 1.57-.03 3.29-.39 5.03-.94l.06-.02.04.06c.04.07.02.25 0 .44 0 .05 0 .1-.01.15 0 .06 0 .12-.01.17 0 .1 0 .19-.03.25l-.02.03-.03.01c-.69.18-1.59.37-2.59.5-.8.1-1.66.17-2.51.16-.77-.01-1.5-.06-2.2-.21-.71-.16-1.37-.41-1.99-.8l-.03-.02-.01-.02c-.02-.07-.03-.19-.03-.32-.01-.13 0-.29.02-.42l.02-.14.11.08z"/><path fill="#F2A0BF" fill-rule="nonzero" d="M9.95.4c.66-.33 1.45-.47 2.31-.34l.06.01.01.05c.25 1.06.44 2.11.6 3.21.15 1.1.26 2.24.32 3.47l.01.12-.11-.04c-.45-.12-1.31-.35-2.16-.53-.55-.12-1.11-.22-1.53-.25h-.02l-.02-.01C8.66 5.63 8.2 5 8.01 4.31c-.22-.76-.11-1.59.26-2.3.36-.67.94-1.25 1.68-1.61z"/><path fill="none" fill-rule="nonzero" stroke="#2B2A29" stroke-miterlimit="22.9256" stroke-width=".39" d="M9.95.4c.66-.33 1.45-.47 2.31-.34l.06.01.01.05c.25 1.06.44 2.11.6 3.21.15 1.1.26 2.24.32 3.47l.01.12-.11-.04c-.45-.12-1.31-.35-2.16-.53-.55-.12-1.11-.22-1.53-.25h-.02l-.02-.01C8.66 5.63 8.2 5 8.01 4.31c-.22-.76-.11-1.59.26-2.3.36-.67.94-1.25 1.68-1.61z"/><path fill="#F2A0BF" fill-rule="nonzero" d="M25.53 7.24c-.45-.2-.91-.39-1.39-.56-.48-.17-.97-.33-1.5-.46l-.07-.02.01-.07c.12-.97.27-1.94.43-2.9.16-.93.33-1.85.5-2.78h-.34l.37-.16c.09-.04.18-.08.27-.11.86-.29 1.76-.19 2.52.16s1.39.96 1.7 1.66c.04.08.07.16.09.23l.01.01c.29 1.16.16 2.14-.3 2.96-.45.82-1.22 1.49-2.23 2.04l-.03.02-.04-.02z"/><path fill="none" fill-rule="nonzero" stroke="#2B2A29" stroke-miterlimit="22.9256" stroke-width=".39" d="M25.53 7.24c-.45-.2-.91-.39-1.39-.56-.48-.17-.97-.33-1.5-.46l-.07-.02.01-.07c.12-.97.27-1.94.43-2.9.16-.93.33-1.85.5-2.78h-.34l.37-.16c.09-.04.18-.08.27-.11.86-.29 1.76-.19 2.52.16s1.39.96 1.7 1.66c.04.08.07.16.09.23l.01.01c.29 1.16.16 2.14-.3 2.96-.45.82-1.22 1.49-2.23 2.04l-.03.02-.04-.02zM19.19 21.9c.28.03.52.14.69.28.18.15.28.34.25.53v.01h0c-.03.19-.17.35-.38.44-.2.1-.46.14-.74.1H19h0c-.27-.04-.51-.14-.68-.28-.18-.15-.28-.34-.25-.53.02-.2.17-.36.38-.46.2-.09.46-.13.74-.09zM15.64 16.45c.15.03.27.11.36.22.09.12.13.27.11.43-.02.16-.1.3-.21.39-.12.09-.27.14-.42.12-.16-.02-.29-.1-.37-.22-.09-.12-.14-.27-.12-.43l.01-.01h0c.02-.16.1-.29.21-.38.11-.09.26-.14.42-.12h.01zM13.34 12.18c.17.02.32.11.42.25.09.13.14.31.12.49-.03.18-.12.33-.24.44-.13.11-.3.16-.47.14-.17-.02-.32-.12-.41-.25-.1-.14-.15-.31-.12-.49.02-.18.11-.34.24-.44.12-.11.29-.16.46-.14zM21.79 12.88c.19.02.36.11.48.23.12.13.18.29.16.46-.02.17-.12.31-.27.4-.14.09-.33.13-.53.11-.19-.03-.36-.12-.48-.24s-.19-.29-.16-.46v-.01h0c.02-.16.12-.3.27-.39.14-.08.32-.12.52-.1h.01z"/><path fill="#F2A0BF" fill-rule="nonzero" d="M26.8 15.41c.21.03.4.12.53.26s.2.33.18.52l-.01.01c-.02.19-.14.34-.3.44-.16.11-.37.15-.59.13h-.01c-.21-.03-.4-.13-.52-.27-.14-.14-.21-.33-.18-.52.02-.19.13-.35.3-.45.16-.1.37-.15.59-.13l.01.01z"/><path fill="none" fill-rule="nonzero" stroke="#2B2A29" stroke-miterlimit="22.9256" stroke-width=".39" d="M26.8 15.41c.21.03.4.12.53.26s.2.33.18.52l-.01.01h0c-.02.19-.14.34-.3.44-.16.11-.37.15-.59.13h-.01 0c-.21-.03-.4-.13-.52-.27-.14-.14-.21-.33-.18-.52.02-.19.13-.35.3-.45.16-.1.37-.15.59-.13l.01.01h0zM31.45 21.62c.15.02.28.11.37.23.08.13.13.29.1.46-.02.17-.1.31-.21.41-.12.1-.27.16-.42.14-.16-.02-.29-.11-.38-.24-.08-.12-.12-.28-.1-.45.02-.17.1-.32.21-.42.12-.1.27-.15.43-.13z"/><path fill="#F2A0BF" fill-rule="nonzero" d="M14.82 23.9c.19.02.36.11.47.22.12.13.18.28.16.45v.01c-.03.16-.12.29-.27.37-.13.09-.32.13-.51.1h-.01c-.18-.02-.34-.11-.45-.22-.12-.12-.18-.28-.16-.44.02-.17.12-.3.26-.39.14-.09.32-.13.51-.1z"/><path fill="none" fill-rule="nonzero" stroke="#2B2A29" stroke-miterlimit="22.9256" stroke-width=".39" d="M14.82 23.9c.19.02.36.11.47.22.12.13.18.28.16.45v.01h0c-.03.16-.12.29-.27.37-.13.09-.32.13-.51.1h-.01 0c-.18-.02-.34-.11-.45-.22-.12-.12-.18-.28-.16-.44.02-.17.12-.3.26-.39.14-.09.32-.13.51-.1z"/><path fill="#F2A0BF" fill-rule="nonzero" d="M6.32 19.88c.16.02.3.11.39.25.08.13.13.3.1.48-.02.18-.1.34-.22.44-.12.11-.28.17-.44.15-.16-.02-.3-.12-.39-.25-.08-.13-.13-.31-.1-.49.02-.18.1-.33.22-.44.12-.11.28-.16.44-.14z"/><path fill="none" fill-rule="nonzero" stroke="#2B2A29" stroke-miterlimit="22.9256" stroke-width=".39" d="M6.32 19.88c.16.02.3.11.39.25.08.13.13.3.1.48-.02.18-.1.34-.22.44-.12.11-.28.17-.44.15-.16-.02-.3-.12-.39-.25-.08-.13-.13-.31-.1-.49.02-.18.1-.33.22-.44.12-.11.28-.16.44-.14z"/><path fill="#F2A0BF" fill-rule="nonzero" d="M5.69 14.56c.14.02.26.11.34.24.07.13.1.3.08.48v.01c-.02.17-.1.33-.2.43-.11.11-.25.17-.4.16-.15-.02-.27-.12-.35-.25-.07-.13-.1-.3-.08-.48.02-.18.1-.33.2-.44.11-.11.25-.17.4-.16l.01.01z"/><path fill="none" fill-rule="nonzero" stroke="#2B2A29" stroke-miterlimit="22.9256" stroke-width=".39" d="M5.69 14.56c.14.02.26.11.34.24.07.13.1.3.08.48v.01h0c-.02.17-.1.33-.2.43-.11.11-.25.17-.4.16-.15-.02-.27-.12-.35-.25-.07-.13-.1-.3-.08-.48h0c.02-.18.1-.33.2-.44.11-.11.25-.17.4-.16l.01.01h0zM15.2 8.18c.17.02.3.12.37.25.07.14.1.32.07.52-.02.19-.11.36-.24.47-.13.11-.29.17-.47.15-.17-.02-.32-.12-.41-.26-.1-.14-.14-.33-.12-.52.03-.19.13-.35.28-.45.15-.12.35-.18.52-.16z"/><path fill="#F2A0BF" fill-rule="nonzero" d="M16.02 4.9c.17.03.33.14.43.29.11.14.17.33.15.49v.01c-.02.15-.11.29-.24.37-.13.09-.3.13-.47.11h-.01c-.17-.02-.33-.11-.45-.22-.13-.12-.2-.28-.18-.45.02-.16.12-.33.27-.44.14-.11.31-.18.49-.16h.01z"/><path fill="none" fill-rule="nonzero" stroke="#2B2A29" stroke-miterlimit="22.9256" stroke-width=".39" d="M16.02 4.9c.17.03.33.14.43.29.11.14.17.33.15.49v.01h0c-.02.15-.11.29-.24.37-.13.09-.3.13-.47.11h-.01 0c-.17-.02-.33-.11-.45-.22-.13-.12-.2-.28-.18-.45.02-.16.12-.33.27-.44.14-.11.31-.18.49-.16h.01z"/><path fill="#F2A0BF" fill-rule="nonzero" d="M19.64 5.63c.15.02.26.11.33.23.07.13.1.3.07.47-.02.17-.1.34-.22.46-.11.12-.25.2-.4.18-.14-.02-.26-.13-.33-.27-.07-.15-.1-.34-.08-.51.02-.16.11-.31.22-.41.11-.11.26-.17.41-.15z"/><path fill="none" fill-rule="nonzero" stroke="#2B2A29" stroke-miterlimit="22.9256" stroke-width=".39" d="M19.64 5.63c.15.02.26.11.33.23.07.13.1.3.07.47-.02.17-.1.34-.22.46-.11.12-.25.2-.4.18-.14-.02-.26-.13-.33-.27-.07-.15-.1-.34-.08-.51.02-.16.11-.31.22-.41.11-.11.26-.17.41-.15z"/><path fill="#F2A0BF" fill-rule="nonzero" d="M22.24 1.74c.16.02.29.13.38.29.07.16.11.36.08.57v.01c-.03.21-.13.4-.27.54-.14.15-.31.23-.47.21h-.01c-.16-.02-.28-.1-.37-.24-.08-.13-.12-.31-.09-.52v-.01c.03-.21.13-.42.27-.58.14-.18.32-.29.48-.27z"/><path fill="none" fill-rule="nonzero" stroke="#2B2A29" stroke-miterlimit="22.9256" stroke-width=".39" d="M22.24 1.74c.16.02.29.13.38.29.07.16.11.36.08.57v.01h0c-.03.21-.13.4-.27.54-.14.15-.31.23-.47.21h-.01 0c-.16-.02-.28-.1-.37-.24-.08-.13-.12-.31-.09-.52v-.01h0c.03-.21.13-.42.27-.58.14-.18.32-.29.48-.27zM14.47 2.53c.17.03.27.11.32.25.05.12.05.28.03.47-.03.19-.12.36-.24.48-.13.12-.3.18-.47.16-.18-.02-.31-.1-.39-.22-.07-.12-.1-.28-.08-.48l.01-.01h0c.03-.2.14-.37.29-.49.15-.12.34-.18.51-.16h.02z"/><path fill="#F2A0BF" fill-rule="nonzero" d="M9.8 2.29c.19.02.35.11.45.25.11.14.16.33.13.56-.03.24-.11.44-.24.58-.12.14-.28.21-.48.19-.19-.03-.36-.14-.47-.31-.1-.17-.15-.38-.12-.61.03-.22.11-.4.23-.52.12-.12.29-.17.49-.15l.01.01z"/><path fill="none" fill-rule="nonzero" stroke="#2B2A29" stroke-miterlimit="22.9256" stroke-width=".39" d="M9.8 2.29c.19.02.35.11.45.25.11.14.16.33.13.56h0c-.03.24-.11.44-.24.58-.12.14-.28.21-.48.19-.19-.03-.36-.14-.47-.31-.1-.17-.15-.38-.12-.61.03-.22.11-.4.23-.52.12-.12.29-.17.49-.15l.01.01h0z"/><path fill="#F6C0C3" fill-rule="nonzero" d="M11.42 2.94c-.32.7-.51 1.71-.45 3.3l.01.1-.11-.02-.33-.06-.3-.06h-.04l-.01-.03c-.15-.2-.26-.41-.34-.63-.36-.89-.26-1.89.11-2.79.36-.89.98-1.67 1.67-2.16.21-.14.42-.26.63-.34l.09-.04.02.1c.05.18.09.37.13.57.04.19.08.38.12.58l.01.05-.04.03c-.42.33-.85.71-1.17 1.4z"/><path fill="none" fill-rule="nonzero" stroke="#2B2A29" stroke-miterlimit="22.9256" stroke-width=".39" d="M11.42 2.94c-.32.7-.51 1.71-.45 3.3l.01.1-.11-.02-.33-.06-.3-.06h-.04l-.01-.03c-.15-.2-.26-.41-.34-.63-.36-.89-.26-1.89.11-2.79.36-.89.98-1.67 1.67-2.16.21-.14.42-.26.63-.34l.09-.04.02.1c.05.18.09.37.13.57.04.19.08.38.12.58l.01.05-.04.03c-.42.33-.85.71-1.17 1.4z"/><path fill="#F6C0C3" fill-rule="nonzero" d="M11.37 6.32c.34-.64.61-1.28.81-1.87.26-.79.41-1.47.46-1.9l.08-.57.09.57c.07.46.14.92.2 1.38.05.47.1.95.15 1.45v.02l-.02.02c-.13.24-.3.46-.49.65-.18.19-.38.36-.61.5l-.03.01-.03-.01c-.09-.02-.18-.04-.28-.06-.08-.02-.18-.04-.28-.07l-.11-.02.06-.1z"/><path fill="none" fill-rule="nonzero" stroke="#2B2A29" stroke-miterlimit="22.9256" stroke-width=".39" d="M11.37 6.32c.34-.64.61-1.28.81-1.87.26-.79.41-1.47.46-1.9l.08-.57.09.57c.07.46.14.92.2 1.38.05.47.1.95.15 1.45v.02l-.02.02c-.13.24-.3.46-.49.65-.18.19-.38.36-.61.5l-.03.01-.03-.01c-.09-.02-.18-.04-.28-.06-.08-.02-.18-.04-.28-.07l-.11-.02.06-.1z"/><path fill="#F6C0C3" fill-rule="nonzero" d="M24.05 6.52c.47-.48.82-1.19.97-1.93.09-.46.11-.94.02-1.37-.09-.43-.27-.82-.57-1.12-.27-.26-.62-.45-1.08-.55l-.08-.01.01-.08c.03-.15.06-.3.09-.44.02-.13.05-.28.08-.44l.01-.07h.07c.71 0 1.41.24 1.94.64.51.39.87.94.98 1.61.16.94.07 1.72-.22 2.39-.3.67-.8 1.23-1.47 1.73l-.04.03-.05-.02c-.1-.04-.2-.08-.31-.12-.1-.04-.21-.08-.32-.11l-.12-.05.09-.09z"/><path fill="none" fill-rule="nonzero" stroke="#2B2A29" stroke-miterlimit="22.9256" stroke-width=".39" d="M24.05 6.52c.47-.48.82-1.19.97-1.93.09-.46.11-.94.02-1.37-.09-.43-.27-.82-.57-1.12-.27-.26-.62-.45-1.08-.55l-.08-.01.01-.08c.03-.15.06-.3.09-.44.02-.13.05-.28.08-.44l.01-.07h.07c.71 0 1.41.24 1.94.64.51.39.87.94.98 1.61h0c.16.94.07 1.72-.22 2.39-.3.67-.8 1.23-1.47 1.73l-.04.03-.05-.02c-.1-.04-.2-.08-.31-.12-.1-.04-.21-.08-.32-.11l-.12-.05.09-.09z"/><path fill="none" fill-rule="nonzero" stroke="#2B2A29" stroke-miterlimit="22.9256" stroke-width=".39" d="M26.14 3.25c.17.02.32.11.41.25.1.13.15.3.12.48-.02.19-.11.34-.23.45-.13.1-.3.16-.47.14-.17-.03-.28-.11-.35-.24-.08-.13-.1-.3-.08-.49.03-.19.09-.35.2-.46.1-.1.23-.16.4-.13z"/><path fill="#F6C0C3" fill-rule="nonzero" d="M22.71 6.14c.1-.3.16-.62.18-.94.02-.3.01-.6-.05-.88v-.03c.05-.3.1-.62.15-.94.06-.33.11-.64.16-.94l.03-.16.11.11c.19.19.35.4.48.65.12.23.21.49.25.78.09.53.12 1.02.08 1.46-.04.45-.14.85-.3 1.23l-.04.07-.07-.03c-.14-.04-.3-.09-.45-.14-.16-.04-.31-.09-.47-.13l-.09-.02.03-.09z"/><path fill="none" fill-rule="nonzero" stroke="#2B2A29" stroke-miterlimit="22.9256" stroke-width=".39" d="M22.71 6.14c.1-.3.16-.62.18-.94.02-.3.01-.6-.05-.88v-.03c.05-.3.1-.62.15-.94.06-.33.11-.64.16-.94l.03-.16.11.11c.19.19.35.4.48.65.12.23.21.49.25.78h0c.09.53.12 1.02.08 1.46-.04.45-.14.85-.3 1.23l-.04.07-.07-.03c-.14-.04-.3-.09-.45-.14-.16-.04-.31-.09-.47-.13l-.09-.02.03-.09z"/></svg>