<svg xmlns="http://www.w3.org/2000/svg" width="70" height="67" fill-rule="evenodd" clip-rule="evenodd" image-rendering="optimizeQuality" shape-rendering="geometricPrecision" text-rendering="geometricPrecision" viewBox="0 0 5.41 5.16"><defs><style>.str0{stroke:#2b2a29;stroke-width:.07;stroke-miterlimit:22.9256}.fil1{fill:none;fill-rule:nonzero}.fil6{fill:#f5b2b6}.fil3{fill:#f08bb2}.fil4{fill:#c5e3d7}.fil0{fill:#c4d985}.fil5{fill:#a1b567}.fil2{fill:#99cfba}</style></defs><g id="Слой_x0020_1"><path d="M.38 3.43l2.29.62 2.54-1.29-3.04-.68z" class="fil0"/><path id="1" d="M.38 3.43l2.29.62 2.54-1.29-3.04-.68z" class="fil1 str0"/><path d="M.3 2.73l3.48-.22.96-1.12-3.18-.32z" class="fil2"/><path id="1" class="fil1" stroke="#f08bb2" stroke-miterlimit="22.9256" stroke-width=".07" d="M.3 2.73l3.48-.22.96-1.12-3.18-.32z"/><path d="M.01.95l1.55.75L4.78.64 3.08 0z" class="fil3"/><path id="1" d="M.01.95l1.55.75L4.78.64 3.08 0z" class="fil1 str0"/><path d="M.01.95l1.55.75 1.12-.37L1.12.6z" class="fil4"/><path id="1" d="M.01.95l1.55.75 1.12-.37L1.12.6z" class="fil1 str0"/><path d="M1.01 1.43l.55.27 1.12-.37-.57-.27z" class="fil4"/><path id="1" d="M1.01 1.43l.55.27 1.12-.37-.57-.27z" class="fil1 str0"/><path d="M2.68 4.05l.19 1.11L5.4 3.78l-.19-1.02z" class="fil2"/><path id="1" d="M2.68 4.05l.19 1.11L5.4 3.78l-.19-1.02z" class="fil1 str0"/><path d="M4.61 4.21l.79-.43-.19-1.02-.79.41z" class="fil5"/><path id="1" d="M4.61 4.21l.79-.43-.19-1.02-.79.41z" class="fil1 str0"/><path d="M2.68 4.05l.19 1.11.89-.48-.19-1.08z" class="fil5"/><path id="1" d="M2.68 4.05l.19 1.11.89-.48-.19-1.08z" class="fil1 str0"/><path d="M2.68 4.05l.19 1.11-2.34-.65-.15-1.08z" class="fil5"/><path id="1" d="M2.68 4.05l.19 1.11-2.34-.65-.15-1.08z" class="fil1 str0"/><path d="M1.25 4.71l-.72-.2-.15-1.08.7.19z" class="fil2"/><path id="1" d="M1.25 4.71l-.72-.2-.15-1.08.7.19z" class="fil1 str0"/><path d="M2.68 4.05l.19 1.11-.83-.23-.17-1.09z" class="fil2"/><path id="1" d="M2.68 4.05l.19 1.11-.83-.23-.17-1.09z" class="fil1 str0"/><path d="M1.56 1.7l.12 1.12 3.21-1.09L4.78.64z" class="fil1 str0"/><path d="M1.56 1.7l.07.67.38.34 2.88-.98L4.78.64z" class="fil3"/><path id="1" d="M1.56 1.7l.07.67.38.34 2.88-.98L4.78.64z" class="fil1 str0"/><path d="M1.56 1.7l.12 1.12L.2 2.05.01.95z" class="fil4"/><path id="1" d="M1.56 1.7l.12 1.12L.2 2.05.01.95z" class="fil1 str0"/><path d="M.69 2.3L.2 2.05.01.95l.51.25z" class="fil2"/><path id="1" d="M.69 2.3L.2 2.05.01.95l.51.25z" class="fil1 str0"/><path d="M.3 2.73l1.13-.07.22 1.13-1.08.06z" class="fil0"/><path id="1" d="M.3 2.73l1.13-.07.22 1.13-1.08.06z" class="fil1 str0"/><g><path d="M3.78 2.51l.96-1.12.16.95-.89 1.31z" class="fil3"/><path id="1" d="M3.78 2.51l.96-1.12.16.95-.89 1.31z" class="fil1 str0"/></g><g><path d="M3.78 2.51l.38-.44.21 1.05-.36.53z" class="fil6"/><path id="1" d="M3.78 2.51l.38-.44.21 1.05-.36.53z" class="fil1 str0"/></g><g><path d="M4.5 1.67l.24-.28.16.95-.2.3z" class="fil5"/><path id="1" d="M4.5 1.67l.24-.28.16.95-.2.3z" class="fil1 str0"/></g><g><path d="M.3 2.73l3.48-.22.23 1.14-3.44.2z" class="fil1 str0"/></g><g><path d="M1.56 1.7l.12 1.12 1.1-.37-.11-1.12z" class="fil6"/><path id="1" d="M1.56 1.7l.12 1.12 1.1-.37-.11-1.12z" class="fil1 str0"/></g><g><path d="M1.56 1.7l.12 1.12-.5-.26-.17-1.13z" class="fil4"/><path id="1" d="M1.56 1.7l.12 1.12-.5-.26-.17-1.13z" class="fil1 str0"/></g><g><path d="M2.68 1.33l-.57-.27 1.1-.37.63.26z" class="fil3"/><path id="1" d="M2.68 1.33l-.57-.27 1.1-.37.63.26z" class="fil1 str0"/></g><g><path d="M.01.95l.52.25 3.08-1-.53-.2z" class="fil6"/><path id="1" d="M.01.95l.52.25 3.08-1-.53-.2z" class="fil1 str0"/></g><g><path d="M.01.95l.52.25L1.64.84 1.12.6z" class="fil6"/><path id="1" d="M.01.95l.52.25L1.64.84 1.12.6z" class="fil1 str0"/></g><g><path d="M3.83.95l.95-.31L3.08 0 2.2.27z" class="fil6"/><path id="1" d="M3.83.95l.95-.31L3.08 0 2.2.27z" class="fil1 str0"/></g><g><path d="M3.83.95l.95-.31-.67-.25-.9.3z" class="fil6"/><path id="1" d="M3.83.95l.95-.31-.67-.25-.9.3z" class="fil1 str0"/></g><g><path d="M2.73.49L3.61.2 3.08 0 2.2.27z" class="fil6"/><path id="1" d="M2.73.49L3.61.2 3.08 0 2.2.27z" class="fil1 str0"/></g><g><path d="M3.95 2.05l.94-.32L4.78.64l-.94.31z" class="fil3"/><path id="1" d="M3.95 2.05l.94-.32L4.78.64l-.94.31z" class="fil1 str0"/></g><g><path d="M2.67 2.58l1.11-.07.23 1.14-1.12.07z" class="fil5"/><path id="1" d="M2.67 2.58l1.11-.07.23 1.14-1.12.07z" class="fil1 str0"/></g></g></svg>