<svg xmlns="http://www.w3.org/2000/svg" width="112" height="66" fill-rule="evenodd" clip-rule="evenodd" image-rendering="optimizeQuality" shape-rendering="geometricPrecision" text-rendering="geometricPrecision" viewBox="0 0 168.62 98.89"><defs><style>.fil4{fill:#f5b2b6}.fil7{fill:#f08bb2}.fil5{fill:#c5e3d7}.fil0{fill:#c4d985}.fil2{fill:#a1b567}.fil6{fill:#99cfba}.fil1,.fil3{fill:#fefefe;fill-rule:nonzero}.fil1{fill:#2b2a29}</style></defs><g id="Слой_x0020_1"><path d="M74.3 65.89h28.42c1.68 0 3.05 1.37 3.05 3.04v26.65c0 1.67-1.37 3.04-3.05 3.04H74.3c-1.67 0-3.04-1.37-3.04-3.04V68.93c0-1.67 1.37-3.04 3.04-3.04z" class="fil0"/><path id="1" d="M102.72 66.14H74.3v-.51h28.42v.51zm3.3 2.79h-.51v-.14l-.02-.14-.01-.14-.03-.14-.03-.13-.04-.13-.04-.13-.05-.13-.06-.12-.06-.12-.07-.12-.07-.11-.08-.11-.08-.11-.09-.1-.09-.1-.1-.09-.1-.09-.1-.08-.11-.08-.12-.07-.12-.07-.11-.06-.13-.06-.12-.05-.13-.04-.14-.04-.13-.03-.14-.02-.14-.02-.13-.01-.15-.01v-.51h.17l.17.02.16.02.16.03.16.04.16.04.15.05.15.06.15.07.14.07.14.08.13.09.13.09.13.1.12.1.11.11.11.11.11.12.09.13.1.13.08.13.08.14.08.14.06.15.06.15.05.15.05.16.03.16.03.16.02.17.02.16v.17zm-.51 26.65V68.93h.51v26.65h-.51zm-2.79 3.3v-.51l.15-.01.13-.01.14-.02.14-.02.13-.03.14-.04.13-.04.12-.06.13-.05.11-.06.12-.07.12-.07.11-.08.1-.08.1-.09.1-.1.09-.09.09-.1.08-.11.08-.11.07-.11.07-.12.06-.12.06-.12.05-.13.04-.13.04-.13.03-.13.03-.14.01-.14.02-.14v-.14h.51v.16l-.02.17-.02.17-.03.16-.03.16-.05.16-.05.15-.06.15-.06.15-.08.14-.08.14-.08.13-.1.13-.09.12-.11.12-.11.12-.11.11-.12.1-.13.1-.13.09-.13.09-.14.08-.14.07-.15.07-.15.06-.15.05-.16.04-.16.04-.16.03-.16.02-.17.01-.17.01zm-28.42-.51h28.42v.51H74.3v-.51zM71 95.58h.51l.01.14.01.14.01.14.03.14.03.13.04.13.04.13.05.13.06.12.06.12.07.12.07.11.08.11.08.11.09.1.09.09.1.1.1.09.1.08.11.08.12.07.12.07.12.06.12.05.13.06.12.04.14.04.13.03.14.02.14.02.14.01.14.01v.51l-.17-.01-.16-.01-.17-.02-.16-.03-.16-.04-.16-.04-.15-.05-.15-.06-.15-.07-.14-.07-.14-.08-.13-.09-.13-.09-.13-.1-.12-.1-.11-.11-.11-.12-.1-.12-.1-.12-.1-.13-.08-.13-.08-.14-.07-.14-.07-.15-.06-.15-.05-.15-.05-.16-.03-.16-.03-.16-.02-.17-.02-.17v-.16zm.51-26.65v26.65H71V68.93h.51zm2.79-3.3v.51l-.14.01-.14.01-.14.02-.14.02-.13.03-.14.04-.12.04-.13.05-.12.06-.12.06-.12.07-.12.07-.11.08-.1.08-.1.09-.1.09-.09.1-.09.1-.08.11-.08.11-.07.11-.07.12-.06.12-.06.12-.05.13-.04.13-.04.13-.03.13-.03.14-.01.14-.01.14-.01.14H71v-.17l.02-.16.02-.17.03-.16.03-.16.05-.16.05-.15.06-.15.07-.15.07-.14.08-.14.08-.13.1-.13.1-.13.1-.12.11-.11.11-.11.12-.1.13-.1.13-.09.13-.09.14-.08.14-.07.15-.07.15-.06.15-.05.16-.05.16-.03.16-.03.17-.02.16-.02h.17z" class="fil1"/><path d="M70.05 65.89H59.52c-.66 0-1.21.54-1.21 1.2v30.33c0 .66.55 1.2 1.21 1.2h10.53c.66 0 1.21-.54 1.21-1.2V67.09c0-.66-.55-1.2-1.21-1.2z" class="fil2"/><path id="1" d="M59.52 65.63h10.53v.51H59.52v-.51zm-.95 1.46h-.51v-.08l.01-.07.01-.07.01-.07.01-.07.03-.07.02-.07.02-.07.03-.06.03-.06.04-.07.04-.05.04-.06.04-.05.05-.06.05-.05.05-.05.05-.04.06-.05.05-.04.06-.04.06-.03.06-.03.07-.03.07-.03.06-.02.07-.02.08-.02.07-.01.07-.01.07-.01h.08v.51l-.05.01h-.1l-.04.01-.05.01-.04.02-.05.01-.04.02-.04.02-.04.02-.04.02-.04.03-.04.02-.03.03-.04.03-.03.03-.03.03-.03.04-.03.03-.03.04-.02.04-.02.04-.03.04-.02.04-.01.04-.02.05-.01.05-.01.04-.01.04v.05l-.01.05v.05zm-.51 30.33V67.09h.51v30.33h-.51zm1.46.95v.51h-.08l-.07-.01-.07-.01-.07-.01-.08-.02-.07-.02-.06-.02-.07-.03-.07-.03-.06-.03-.06-.04-.06-.03-.05-.04-.06-.05-.05-.04-.05-.05-.05-.05-.05-.06-.04-.05-.04-.06-.04-.06-.04-.06-.03-.06-.03-.07-.02-.06-.02-.07-.03-.07-.01-.07-.01-.07-.01-.07-.01-.08v-.07h.51v.04l.01.05v.05l.01.05.01.04.01.05.02.04.01.05.02.03.03.05.02.04.02.04.03.03.03.04.03.03.03.04.03.03.04.03.03.03.04.02.04.03.04.02.04.02.04.02.04.02.05.01.04.02.05.01h.04l.05.01h.05l.05.01zm10.53.51H59.52v-.51h10.53v.51zm.95-1.46h.51v.07l-.01.08-.01.07-.01.07-.01.07-.03.07-.02.07-.02.06-.03.07-.03.06-.04.06-.04.06-.04.06-.04.05-.05.06-.05.05-.05.05-.05.04-.06.05-.05.04-.06.03-.06.04-.06.03-.07.03-.07.03-.06.02-.07.02-.08.02-.07.01-.07.01-.07.01h-.08v-.51l.05-.01h.05l.05-.01h.05l.04-.01.04-.02.05-.01.04-.02.04-.02.04-.02.04-.02.04-.03.04-.02.03-.03.04-.03.03-.03.03-.03.03-.04.03-.04.03-.03.02-.04.02-.04.03-.05.02-.03.01-.05.02-.04.01-.05.01-.04.01-.05v-.05l.01-.05v-.04zm.51-30.33v30.33H71V67.09h.51zm-1.46-.95v-.51h.08l.07.01.07.01.07.01.08.02.07.02.06.02.07.03.07.03.06.03.06.03.06.04.05.04.06.05.05.04.05.05.05.05.05.06.04.05.04.06.04.05.04.07.03.06.03.06.02.07.02.07.03.07.01.07.01.07.01.07.01.07v.08H71v-.05l-.01-.05v-.05l-.01-.04-.01-.04-.01-.05-.02-.05-.01-.04-.02-.04-.03-.04-.02-.04-.02-.04-.03-.04-.03-.03-.03-.04-.03-.03-.03-.03-.04-.03-.03-.03-.04-.02-.04-.03-.04-.02-.04-.02-.04-.02-.04-.02-.05-.01-.04-.02-.04-.01-.05-.01h-.1l-.05-.01z" class="fil1"/><path d="M91.46 88.76h-6l-1 3.5c-.08.22-.18.39-.29.5-.11.11-.34.17-.69.17h-4.47c-.21 0-.33-.06-.38-.17-.05-.11-.06-.25-.02-.41l6-18.85c.26-.81.59-1.34.97-1.57.39-.23.93-.35 1.62-.35h2.47c.36 0 .68.02.96.05.27.03.51.1.73.22.21.13.4.31.57.57.18.25.33.6.48 1.05l6 18.88c.04.1.04.22.01.37-.03.14-.17.21-.41.21h-4.6c-.24 0-.44-.03-.61-.09-.16-.06-.27-.21-.33-.43l-1.01-3.65zm-4.72-4.51h3.47l-.57-2.38-.98-4.38h-.24l-1.04 4.48-.64 2.28z" class="fil3"/><path d="M63.9 33.41h28.42c1.67 0 3.04 1.37 3.04 3.04V63.1c0 1.67-1.37 3.04-3.04 3.04H63.9c-1.68 0-3.05-1.37-3.05-3.04V36.45c0-1.67 1.37-3.04 3.05-3.04z" class="fil4"/><path id="1" d="M92.32 33.66H63.9v-.51h28.42v.51zm3.3 2.79h-.51l-.01-.14-.01-.14-.02-.14-.02-.14-.03-.13-.04-.13-.04-.13-.06-.13-.05-.12-.06-.12-.07-.12-.07-.12-.08-.1-.08-.11-.09-.1-.09-.1-.1-.09-.1-.09-.11-.08-.11-.08-.11-.07-.12-.07-.12-.06-.12-.06-.13-.05-.13-.04-.13-.04-.13-.03-.14-.03-.14-.01-.14-.01-.14-.01v-.51h.17l.16.02.17.02.16.03.16.04.16.04.15.05.15.06.14.07.15.07.14.08.13.08.13.1.13.1.11.1.12.11.11.11.1.12.1.13.09.13.09.13.08.14.07.14.07.15.06.15.05.15.04.16.04.16.03.16.02.17.01.16.01.17zm-.51 26.65V36.45h.51V63.1h-.51zm-2.79 3.3v-.52h.14l.14-.01.14-.02.14-.02.13-.03.13-.04.13-.05.13-.05.12-.05.12-.06.12-.07.11-.07.11-.08.11-.08.1-.09.1-.1.09-.09.09-.1.08-.11.08-.11.07-.11.07-.12.06-.12.05-.12.06-.13.04-.13.04-.13.03-.13.02-.14.02-.14.01-.14.01-.14h.51l-.01.16-.01.17-.02.17-.03.16-.04.16-.04.15-.05.16-.06.15-.07.14-.07.15-.08.13-.09.14-.09.13-.1.12-.1.12-.11.12-.12.11-.11.1-.13.1-.13.09-.13.09-.14.08-.15.07-.14.07-.15.06-.15.05-.16.04-.16.04-.16.03-.17.02-.16.01-.17.01zm-28.42-.52h28.42v.52H63.9v-.52zm-3.3-2.78h.51v.14l.01.14.02.14.03.14.03.13.03.13.05.13.05.13.05.12.06.12.07.12.08.11.07.11.09.11.08.1.1.09.09.1.11.09.1.08.11.08.12.07.11.07.12.06.12.05.13.05.13.05.13.04.14.03.13.02.14.02.14.01h.15v.52l-.17-.01-.17-.01-.17-.02-.16-.03-.16-.04-.15-.04-.16-.05-.14-.06-.15-.07-.15-.07-.13-.08-.14-.09-.12-.09-.13-.1-.12-.1-.11-.11-.11-.12-.11-.12-.1-.12-.09-.13-.08-.14-.08-.13-.08-.15-.06-.14-.06-.15-.06-.16-.04-.15-.04-.16-.02-.16-.03-.17-.01-.17v-.16zm.51-26.65V63.1h-.51V36.45h.51zm2.79-3.3v.51l-.15.01-.14.01-.14.01-.13.03-.14.03-.13.04-.13.04-.13.05-.12.06-.12.06-.11.07-.12.07-.11.08-.1.08-.11.09-.09.09-.1.1-.08.1-.09.11-.07.1-.08.12-.07.12-.06.12-.05.12-.05.13-.05.13-.03.13-.03.13-.03.14-.02.14-.01.14v.14h-.51v-.17l.01-.16.03-.17.02-.16.04-.16.05-.16.05-.15.06-.15.06-.15.08-.14.08-.14.08-.13.09-.13.1-.13.11-.12.11-.11.11-.11.12-.1.13-.1.12-.1.14-.08.13-.08.15-.07.15-.07.14-.06.16-.05.15-.04.16-.04.16-.03.17-.02.17-.02h.17z" class="fil1"/><path d="M136.9 65.13h28.42c1.67 0 3.04 1.37 3.04 3.05v26.64c0 1.68-1.37 3.05-3.04 3.05H136.9c-1.67 0-3.04-1.37-3.04-3.05V68.18c0-1.68 1.37-3.05 3.04-3.05z" class="fil5"/><path id="1" d="M165.32 65.39H136.9v-.51h28.42v.51zm3.3 2.79h-.51l-.01-.15-.01-.14-.01-.14-.03-.13-.03-.14-.04-.13-.04-.13-.05-.13-.06-.12-.06-.12-.07-.12-.07-.11-.08-.11-.08-.1-.09-.11-.09-.09-.1-.1-.1-.08-.1-.09-.11-.07-.12-.08-.12-.07-.12-.06-.12-.05-.13-.05-.12-.05-.14-.03-.13-.04-.14-.02-.14-.02-.14-.01h-.14v-.51h.17l.16.01.17.02.16.03.16.04.16.04.15.06.15.05.15.07.14.08.14.08.13.08.13.09.13.1.12.11.11.1.11.12.1.12.1.12.1.13.08.14.08.13.08.15.06.14.06.15.05.16.05.15.03.16.03.16.02.17.02.17v.17zm-.51 26.64V68.18h.51v26.64h-.51zm-2.79 3.3v-.51h.14l.14-.02.14-.01.14-.03.13-.03.14-.04.12-.04.13-.05.12-.06.12-.06.12-.07.12-.07.11-.08.1-.08.1-.09.1-.09.09-.1.09-.1.08-.1.08-.11.07-.12.07-.12.06-.11.06-.13.05-.13.04-.12.04-.14.03-.13.03-.14.01-.14.01-.14.01-.14h.51v.17l-.02.17-.02.16-.03.16-.03.16-.05.16-.05.15-.06.15-.06.15-.08.14-.08.14-.08.13-.1.13-.1.13-.1.12-.11.11-.11.11-.12.11-.13.09-.13.1-.13.08-.14.08-.14.08-.15.06-.15.06-.15.05-.16.05-.16.03-.16.03-.17.02-.16.02h-.17zm-28.42-.51h28.42v.51H136.9v-.51zm-3.3-2.79h.51v.14l.02.14.01.14.03.14.03.13.04.14.04.12.05.13.06.13.06.11.07.12.07.12.08.11.08.1.09.1.09.1.1.09.1.09.1.08.11.08.12.07.12.07.11.06.13.06.12.05.13.04.14.04.13.03.14.03.14.01.14.02h.14v.51h-.17l-.17-.02-.16-.02-.16-.03-.16-.03-.16-.05-.15-.05-.15-.06-.15-.06-.14-.08-.14-.08-.13-.08-.13-.1-.13-.09-.12-.11-.11-.11-.11-.11-.1-.12-.1-.13-.1-.13-.08-.13-.08-.14-.08-.14-.06-.15-.06-.15-.05-.15-.05-.16-.03-.16-.03-.16-.02-.16-.02-.17v-.17zm.51-26.64v26.64h-.51V68.18h.51zm2.79-3.3v.51h-.14l-.14.01-.14.02-.14.02-.13.03-.14.04-.13.05-.12.05-.13.05-.11.06-.12.07-.12.08-.11.07-.1.09-.1.08-.1.1-.09.09-.09.11-.08.1-.08.11-.07.11-.07.12-.06.12-.06.12-.05.13-.04.13-.04.13-.03.14-.03.13-.01.14-.02.14v.15h-.51v-.17l.02-.17.02-.17.03-.16.03-.16.05-.15.05-.16.06-.15.06-.14.08-.15.08-.13.08-.14.1-.13.1-.12.1-.12.11-.12.11-.1.12-.11.13-.1.13-.09.13-.08.14-.08.14-.08.15-.07.15-.05.15-.06.16-.04.16-.04.16-.03.16-.02.17-.01h.17z" class="fil1"/><path d="M132.65 65.13h-10.53c-.67 0-1.21.54-1.21 1.2v30.33c0 .66.54 1.21 1.21 1.21h10.53c.66 0 1.21-.55 1.21-1.21V66.33c0-.66-.55-1.2-1.21-1.2z" class="fil6"/><path id="1" d="M122.12 64.88h10.53v.51h-10.53v-.51zm-.95 1.45h-.51v-.07l.01-.08v-.07l.02-.07.01-.07.02-.07.02-.06.03-.08.03-.06.03-.06.04-.06.04-.06.04-.06.04-.05.05-.05.05-.06.05-.05.05-.04.05-.04.06-.04.06-.04.06-.04.06-.03.07-.03.07-.03.06-.02.07-.02.08-.01.07-.02.07-.01H122.12v.51h-.1l-.05.01-.05.01-.04.01-.04.01-.05.02-.04.01-.04.02-.04.02-.04.02-.04.03-.04.03-.04.02-.03.03-.03.04-.03.03-.03.03-.03.04-.03.04-.03.04-.02.03-.02.05-.02.04-.01.04-.02.04-.01.05-.01.04-.01.05-.01.05v.09zm-.51 30.33V66.33h.51v30.33h-.51zm1.46.95v.51h-.08l-.07-.01-.07-.01-.07-.01-.08-.01-.07-.03-.06-.02-.07-.02-.07-.03-.06-.03-.06-.04-.06-.04-.06-.04-.05-.04-.06-.05-.04-.05-.05-.05-.05-.05-.04-.06-.04-.05-.04-.06-.04-.06-.03-.06-.03-.07-.03-.07-.02-.06-.02-.07-.01-.08-.02-.07v-.07l-.01-.07v-.08h.51v.1l.01.05.01.04.01.05.01.04.02.05.01.04.02.04.02.04.03.04.02.04.03.04.03.03.02.04.04.03.03.03.04.03.03.03.04.03.04.02.04.02.04.03.04.02.04.01.05.02.04.01.04.01.05.01h.05l.05.01h.05zm10.53.51h-10.53v-.51h10.53v.51zm.95-1.46h.51v.08l-.01.07-.01.07-.01.07-.01.08-.03.07-.02.06-.02.07-.03.07-.03.06-.04.06-.04.06-.04.05-.04.06-.05.05-.05.05-.05.05-.05.05-.06.04-.05.04-.06.04-.06.04-.06.03-.07.03-.07.02-.06.02-.07.03-.08.01-.07.01-.07.01-.07.01h-.08v-.51h.05l.05-.01h.05l.04-.01.05-.01.04-.01.05-.02.04-.01.04-.02.04-.03.04-.02.04-.02.04-.03.03-.03.04-.03.03-.03.03-.03.03-.04.03-.03.03-.04.02-.04.02-.04.03-.04.02-.04.01-.04.02-.05.01-.04.01-.05.01-.04v-.05l.01-.05v-.05zm.51-30.33v30.33h-.51V66.33h.51zm-1.46-.94v-.51H132.8l.07.01.07.02.08.01.07.02.06.02.07.03.07.03.06.03.06.04.06.04.05.04.06.04.05.04.05.05.05.06.05.05.04.05.04.06.04.06.04.06.03.06.03.06.02.08.02.06.03.07.01.07.01.07.01.07.01.08v.07h-.51v-.04l-.01-.05v-.05l-.01-.05-.01-.04-.01-.05-.02-.04-.01-.04-.02-.04-.03-.05-.02-.03-.02-.04-.03-.04-.03-.03-.03-.04-.03-.03-.03-.04-.04-.03-.03-.02-.04-.03-.04-.03-.04-.02-.04-.02-.04-.02-.04-.01-.05-.02-.04-.01-.05-.01-.04-.01-.05-.01h-.1z" class="fil1"/><path d="M116.98 32.92h28.42c1.68 0 3.05 1.37 3.05 3.04V62.6c0 1.68-1.37 3.05-3.05 3.05h-28.42c-1.67 0-3.04-1.37-3.04-3.05V35.96c0-1.67 1.37-3.04 3.04-3.04z" class="fil0"/><path id="1" d="M145.4 33.17h-28.42v-.51h28.42v.51zm3.3 2.79h-.51v-.14l-.01-.14-.02-.14-.03-.14-.03-.13-.04-.14-.04-.13-.05-.12-.05-.13-.07-.11-.06-.12-.08-.12-.07-.11-.09-.1-.08-.1-.1-.1-.1-.09-.1-.09-.1-.08-.11-.08-.12-.07-.11-.07-.12-.06-.13-.06-.12-.05-.13-.04-.13-.04-.14-.03-.13-.03-.14-.01-.14-.01-.15-.01v-.51h.17l.17.02.16.02.17.03.15.03.16.05.16.05.14.06.15.06.15.08.13.08.13.08.13.1.13.1.12.1.11.11.11.11.11.12.1.13.09.13.08.13.08.14.08.14.06.15.06.15.06.15.04.16.04.16.02.16.03.16.01.17v.17zm-.51 26.64V35.96h.51V62.6h-.51zm-2.79 3.31v-.52h.15l.14-.01.14-.02.13-.02.14-.03.13-.04.13-.05.12-.05.13-.05.12-.06.11-.07.12-.08.11-.07.1-.09.1-.08.1-.1.1-.09.08-.1.09-.11.07-.11.08-.11.06-.12.07-.12.05-.12.05-.13.05-.13.03-.13.03-.14.03-.13.02-.14.01-.14v-.15h.51v.17l-.01.17-.03.16-.02.17-.04.16-.05.15-.05.16-.06.15-.06.14-.08.15-.08.13-.08.14-.09.13-.1.12-.11.12-.11.12-.11.1-.12.11-.13.1-.13.09-.13.08-.13.09-.15.07-.15.07-.14.05-.16.06-.16.04-.15.04-.17.03-.16.02-.17.01-.17.01zm-28.42-.52h28.42v.52h-28.42v-.52zm-3.3-2.79h.51l.01.15.01.14.02.14.02.13.03.14.04.13.04.13.05.13.06.12.06.12.07.12.07.11.08.11.08.11.09.1.09.09.1.1.1.08.11.09.11.07.11.08.12.07.12.06.12.05.13.05.13.05.13.04.13.03.14.02.14.02.14.01h.14v.52l-.17-.01-.16-.01-.17-.02-.16-.03-.16-.04-.16-.04-.15-.06-.15-.05-.14-.07-.15-.07-.14-.09-.13-.08-.13-.09-.13-.1-.11-.11-.12-.1-.11-.12-.1-.12-.1-.12-.09-.13-.09-.14-.08-.13-.07-.15-.07-.14-.06-.15-.05-.16-.05-.15-.03-.16-.03-.17-.02-.16-.02-.17v-.17zm.51-26.64V62.6h-.51V35.96h.51zm2.79-3.3v.51l-.14.01-.14.01-.14.01-.14.03-.13.03-.13.04-.13.04-.13.05-.12.06-.12.06-.12.07-.11.07-.11.08-.11.08-.1.09-.1.09-.09.1-.09.1-.08.1-.08.11-.07.12-.07.12-.06.11-.06.13-.05.12-.04.13-.04.14-.03.13-.02.14-.02.14-.01.14-.01.14h-.51v-.17l.02-.17.02-.16.03-.16.04-.16.04-.16.05-.15.06-.15.07-.15.07-.14.08-.14.09-.13.09-.13.1-.13.1-.12.11-.11.12-.11.11-.1.13-.1.13-.1.13-.08.14-.08.15-.08.14-.06.15-.06.15-.05.16-.05.16-.03.16-.03.17-.02.16-.02h.17z" class="fil1"/><path d="M112.73 32.92H102.2c-.66 0-1.2.54-1.2 1.2v30.32c0 .67.54 1.21 1.2 1.21h10.53c.66 0 1.21-.54 1.21-1.21V34.12c0-.66-.55-1.2-1.21-1.2z" class="fil2"/><path id="1" d="M102.2 32.66h10.53v.51H102.2v-.51zm-.95 1.46h-.51v-.08l.01-.07.01-.07.01-.07.02-.07.02-.08.02-.06.02-.07.03-.07.03-.06.04-.06.04-.06.04-.05.05-.06.04-.05.05-.05.05-.05.05-.05.06-.04.05-.04.06-.04.06-.03.06-.03.07-.04.07-.02.06-.02.07-.02.08-.02.07-.01.07-.01.07-.01h.08v.51h-.05l-.05.01h-.05l-.04.01-.05.01-.04.01-.05.02-.04.01-.04.02-.04.03-.04.02-.04.02-.04.03-.03.03-.04.03-.03.03-.03.03-.03.04-.03.03-.03.04-.02.04-.02.04-.03.04-.02.04-.01.04-.02.05-.01.04-.01.05-.01.04v.05l-.01.05v.05zm-.51 30.32V34.12h.51v30.32h-.51zm1.46.95v.52l-.08-.01h-.07l-.07-.01-.07-.01-.08-.02-.07-.02-.06-.02-.07-.03-.07-.03-.06-.03-.06-.04-.06-.04-.05-.04-.06-.04-.05-.05-.05-.04-.05-.06-.04-.04-.05-.06-.04-.06-.04-.06-.04-.06-.03-.06-.03-.07-.02-.07-.02-.06-.02-.07-.02-.07-.01-.07-.01-.08-.01-.07v-.08h.51v.05l.01.05v.05l.01.05.01.04.01.04.02.05.01.04.02.04.03.04.02.04.02.04.03.04.03.03.03.04.03.03.03.04.04.03.03.02.04.03.04.03.04.02.04.02.04.02.04.01.05.02.04.01.05.01.04.01.05.01h.1zm10.53.52H102.2v-.52h10.53v.52zm.95-1.47h.51v.08l-.01.07v.08l-.02.07-.01.07-.02.07-.02.06-.03.07-.03.07-.03.06-.04.06-.04.06-.04.06-.04.06-.05.04-.04.06-.06.04-.05.05-.06.04-.05.04-.06.04-.06.04-.06.03-.07.03-.07.03-.06.02-.07.02-.08.02-.07.01-.07.01h-.07l-.08.01v-.52h.1l.05-.01.05-.01.04-.01.04-.01.05-.02.04-.01.04-.02.04-.02.04-.02.04-.03.04-.03.03-.02.04-.03.03-.04.03-.03.04-.04.02-.03.03-.04.02-.04.03-.04.02-.04.02-.04.01-.04.02-.05.01-.04.01-.04.01-.05.01-.05v-.1zm.51-30.32v30.32h-.51V34.12h.51zm-1.46-.95v-.51h.08l.07.01.07.01.07.01.08.02.07.02.06.02.07.02.07.04.06.03.06.03.06.04.05.04.06.04.05.05.06.05.04.05.05.05.04.06.04.05.04.06.04.06.03.06.03.07.03.07.02.06.02.08.01.07.02.07v.07l.01.07v.08h-.51v-.1l-.01-.05-.01-.04-.01-.05-.01-.04-.02-.05-.01-.04-.02-.04-.02-.04-.02-.04-.03-.04-.03-.04-.02-.03-.04-.04-.03-.03-.03-.03-.03-.03-.04-.03-.04-.03-.04-.02-.04-.02-.04-.03-.04-.02-.04-.01-.05-.02-.04-.01-.04-.01-.05-.01h-.05l-.05-.01h-.05z" class="fil1"/><path d="M100.99.26h28.42c1.68 0 3.05 1.37 3.05 3.04v26.65c0 1.67-1.37 3.04-3.05 3.04h-28.42c-1.67 0-3.04-1.37-3.04-3.04V3.3c0-1.67 1.37-3.04 3.04-3.04z" class="fil5"/><path id="1" d="M129.41.51h-28.42V0h28.42v.51zm3.3 2.79h-.51v-.14l-.01-.14-.02-.14-.02-.14-.04-.13-.03-.13-.05-.13-.05-.13-.05-.12-.06-.12-.07-.12-.08-.12-.07-.1-.09-.11-.08-.1-.1-.1-.09-.09-.11-.09-.1-.08-.11-.08-.11-.07-.12-.07-.12-.06-.12-.06-.13-.05-.13-.04-.13-.04-.14-.03-.13-.03-.14-.01-.14-.01-.15-.01V0h.17l.17.02.17.02.16.03.16.03.15.05.16.05.15.06.14.07.15.07.13.08.14.08.13.1.12.1.12.1.11.11.11.11.11.12.1.13.09.13.08.13.08.14.08.14.06.15.06.15.06.15.04.16.04.16.03.16.02.17.01.16v.17zm-.51 26.65V3.3h.51v26.65h-.51zm-2.79 3.3v-.52h.15l.14-.01.14-.02.13-.02.14-.03.13-.04.13-.05.13-.05.12-.05.12-.06.12-.07.11-.07.11-.08.1-.08.11-.09.09-.1.1-.09.08-.1.09-.11.07-.11.08-.11.07-.12.06-.12.05-.12.05-.13.05-.13.04-.13.03-.13.02-.14.02-.14.01-.14v-.14h.51v.16l-.01.17-.02.17-.03.16-.04.16-.04.15-.06.16-.06.15-.06.14-.08.15-.08.13-.08.14-.09.13-.1.12-.11.12-.11.12-.11.11-.12.1-.12.1-.13.09-.14.09-.13.08-.15.07-.14.07-.15.06-.16.05-.15.04-.16.04-.16.03-.17.02-.17.01-.17.01zm-28.42-.52h28.42v.52h-28.42v-.52zm-3.3-2.78h.52v.14l.01.14.02.14.02.14.03.13.04.13.04.13.06.13.05.12.06.12.07.12.07.11.08.11.08.11.09.1.1.09.09.1.1.09.11.08.11.08.11.07.12.07.12.06.12.05.13.05.13.05.13.04.13.03.14.02.14.02.14.01h.14v.52l-.17-.01-.16-.01-.17-.02-.16-.03-.16-.04-.16-.04-.15-.05-.15-.06-.14-.07-.15-.07-.13-.08-.14-.09-.13-.09-.12-.1-.12-.1-.12-.11-.11-.12-.1-.12-.1-.12-.09-.13-.09-.14-.08-.13-.07-.15-.07-.14-.06-.15-.05-.16-.04-.15-.04-.16-.03-.16-.02-.17-.01-.17-.01-.16zm.52-26.65v26.65h-.52V3.3h.52zm2.78-3.3v.51l-.14.01-.14.01-.14.01-.14.03-.13.03-.13.04-.13.04-.13.05-.12.06-.12.06-.12.07-.11.07-.11.08-.11.08-.1.09-.09.09-.1.1-.09.1-.08.11-.08.1-.07.12-.07.12-.06.12-.05.12-.06.13-.04.13-.04.13-.03.13-.02.14-.02.14-.01.14v.14h-.52l.01-.17.01-.16.02-.17.03-.16.04-.16.04-.16.05-.15.06-.15.07-.15.07-.14.08-.14.09-.13.09-.13.1-.13.1-.12.11-.11.12-.11.12-.1.12-.1.13-.1.14-.08.13-.08.15-.07.14-.07.15-.06.15-.05.16-.05.16-.03.16-.03.17-.02.16-.02h.17z" class="fil1"/><g><path d="M96.75.26H86.21c-.66 0-1.2.54-1.2 1.2v30.33c0 .66.54 1.2 1.2 1.2h10.54c.66 0 1.2-.54 1.2-1.2V1.46c0-.66-.54-1.2-1.2-1.2z" class="fil6"/><path id="1" d="M86.21 0h10.54v.51H86.21V0zm-.95 1.46h-.51v-.08l.01-.07.01-.07.01-.07.02-.07.02-.08.02-.06.03-.07.03-.06.03-.06.03-.07.04-.06.04-.05.05-.06.04-.05.05-.05.05-.05.06-.05.05-.04.06-.04.05-.04.07-.03.06-.03.06-.03.07-.03.07-.02.07-.02.07-.02.07-.01.07-.01.07-.01h.08v.51h-.05l-.05.01h-.05l-.04.01-.04.01-.05.02-.05.01-.04.02-.03.01-.05.03-.04.02-.04.02-.04.03-.03.03-.03.03-.04.03-.03.03-.03.04-.03.03-.02.04-.03.04-.02.04-.02.04-.02.04-.02.04-.01.05-.02.04-.01.05-.01.04v.1l-.01.05zm-.51 30.33V1.46h.51v30.33h-.51zm1.46.94v.52l-.08-.01h-.07l-.07-.01-.07-.01-.07-.02-.07-.02-.07-.02-.07-.03-.06-.03-.06-.03-.07-.04-.05-.03-.06-.05-.05-.04-.06-.04-.05-.05-.05-.05-.04-.06-.05-.05-.04-.06-.03-.05-.04-.07-.03-.06-.03-.06-.03-.07-.02-.07-.02-.07-.02-.07-.01-.07-.01-.07-.01-.08v-.07h.51l.01.05v.09l.01.05.01.04.02.05.01.04.02.04.02.04.02.05.02.03.03.04.02.04.03.04.03.03.03.03.04.04.03.03.03.03.04.02.04.03.04.02.05.02.03.02.04.02.05.01.05.02h.04l.04.01.05.01h.1zm10.54.52H86.21v-.52h10.54v.52zm.94-1.46h.52l-.01.07v.08l-.01.07-.02.07-.01.07-.02.07-.02.07-.03.07-.03.06-.03.06-.04.07-.04.05-.04.06-.04.05-.04.06-.05.05-.06.05-.05.04-.05.04-.06.05-.06.03-.06.04-.06.03-.06.03-.08.03-.06.02-.07.02-.07.02-.07.01-.07.01h-.08l-.07.01v-.52h.09l.05-.01.05-.01h.04l.05-.02.04-.01.04-.02.04-.02.05-.02.03-.02.04-.03.04-.02.04-.03.03-.03.04-.04.03-.03.03-.03.02-.04.03-.04.03-.04.02-.03.02-.05.02-.04.01-.04.02-.04.01-.05.01-.04.01-.05.01-.05v-.09zm.52-30.33v30.33h-.52V1.46h.52zM96.75.51V0h.07l.08.01.07.01.07.01.07.02.07.02.06.02.08.03.06.03.06.03.06.03.06.04.06.04.05.04.05.05.06.05.05.05.04.05.04.06.04.05.04.06.04.07.03.06.03.06.03.07.02.06.02.08.01.07.02.07.01.07v.07l.01.08h-.52v-.1l-.01-.05-.01-.04-.01-.05-.01-.04-.02-.05-.01-.04-.02-.04-.02-.04-.02-.04-.03-.04-.03-.04-.02-.03-.03-.04-.03-.03-.04-.03-.03-.03-.04-.03-.04-.03-.04-.02-.03-.02-.05-.03-.04-.01-.04-.02-.04-.01-.05-.02-.04-.01-.05-.01h-.05l-.05-.01h-.04z" class="fil1"/></g><path d="M118.16 23.13h-6l-1.01 3.5c-.08.22-.18.39-.29.5-.11.11-.34.17-.68.17h-4.48c-.2 0-.33-.06-.38-.17-.05-.11-.06-.25-.02-.41l6-18.85c.27-.82.59-1.34.98-1.57.38-.23.92-.35 1.61-.35h2.47c.36 0 .68.01.96.04.27.03.52.11.73.23.21.12.41.31.58.57.17.25.33.6.47 1.05l6 18.88c.04.1.05.22.02.36-.04.15-.17.22-.42.22h-4.6c-.24 0-.44-.03-.6-.09-.17-.06-.28-.21-.34-.43l-1-3.65zm-4.72-4.51h3.47l-.58-2.38-.98-4.38h-.24l-1.04 4.47-.63 2.29z" class="fil3"/><g><path d="M16.24 65.9h28.42c1.68 0 3.05 1.37 3.05 3.05v26.64c0 1.68-1.37 3.05-3.05 3.05H16.24c-1.67 0-3.04-1.37-3.04-3.05V68.95c0-1.68 1.37-3.05 3.04-3.05z" class="fil4"/><path id="1" d="M44.66 66.16H16.24v-.51h28.42v.51zm3.3 2.79h-.51v-.15l-.01-.13-.02-.15-.03-.13-.03-.14-.03-.13-.05-.13-.05-.13-.06-.12-.06-.12-.07-.12-.07-.11-.07-.11-.09-.1-.09-.11-.09-.09-.1-.1-.1-.08-.1-.09-.11-.07-.12-.08-.11-.07-.12-.06-.13-.05-.12-.05-.13-.05-.13-.03-.14-.04-.13-.02-.14-.02-.14-.01h-.15v-.51h.17l.17.01.16.02.17.03.15.04.16.04.16.06.14.06.15.06.15.08.13.08.13.08.13.09.13.1.12.11.11.11.11.11.11.12.09.12.1.13.08.14.08.14.08.14.06.15.06.14.05.16.05.15.04.16.02.17.03.16.01.17v.17zm-.51 26.64V68.95h.51v26.64h-.51zm-2.79 3.3v-.51h.15l.14-.01.14-.02.13-.03.14-.03.13-.04.13-.04.12-.05.13-.06.12-.06.11-.07.12-.07.11-.08.1-.08.1-.09.1-.09.09-.1.09-.1.09-.1.07-.11.07-.12.07-.11.06-.12.06-.13.05-.12.04-.13.04-.13.03-.14.03-.14.02-.14.01-.13v-.15h.51v.17l-.01.17-.03.16-.02.16-.04.16-.04.16-.06.15-.06.15-.06.15-.08.14-.08.14-.08.13-.1.13-.09.13-.11.12-.11.11-.11.11-.12.11-.13.09-.13.1-.13.08-.13.08-.15.08-.15.06-.14.06-.16.05-.16.05-.15.03-.17.03-.16.02-.17.02h-.17zm-28.42-.51h28.42v.51H16.24v-.51zm-3.3-2.79h.51l.01.15.01.13.02.14.02.14.03.14.04.13.04.13.05.12.06.13.06.12.07.11.07.12.08.11.08.1.09.1.09.1.1.09.1.09.11.08.1.08.12.07.12.07.12.06.12.06.13.05.13.04.13.04.13.03.14.03.14.02.14.01h.14v.51h-.17l-.16-.02-.17-.02-.16-.03-.16-.03-.16-.05-.15-.05-.15-.06-.15-.06-.14-.08-.14-.08-.13-.08-.13-.1-.13-.09-.12-.11-.11-.11-.11-.11-.1-.12-.1-.13-.1-.13-.08-.13-.08-.14-.07-.14-.07-.15-.06-.15-.05-.15-.04-.16-.04-.16-.03-.16-.02-.16-.02-.17v-.17zm.51-26.64v26.64h-.51V68.95h.51zm2.79-3.3v.51h-.14l-.14.01-.14.02-.14.02-.13.04-.13.03-.13.05-.13.05-.12.05-.12.06-.12.07-.12.08-.1.07-.11.09-.1.08-.1.1-.09.09-.09.11-.08.1-.08.11-.07.11-.07.12-.06.12-.06.12-.05.13-.04.13-.04.13-.03.14-.02.13-.02.15-.01.13-.01.15h-.51v-.17l.02-.17.02-.16.03-.17.03-.16.05-.15.05-.16.06-.14.07-.15.07-.14.08-.14.08-.14.1-.13.1-.12.1-.12.11-.11.11-.11.12-.11.13-.1.13-.09.13-.08.14-.08.14-.08.15-.06.15-.06.15-.05.16-.05.16-.04.16-.03.17-.02.16-.01h.17z" class="fil1"/></g><g><path d="M11.99 65.9H1.46c-.66 0-1.2.54-1.2 1.21v30.32c0 .66.54 1.21 1.2 1.21h10.53c.67 0 1.21-.55 1.21-1.21V67.11c0-.67-.54-1.21-1.21-1.21z" class="fil7"/><path id="1" d="M1.46 65.65h10.53v.51H1.46v-.51zm-.95 1.46H0v-.08l.01-.07.01-.07.01-.08.02-.07.02-.07.02-.06.03-.07.03-.07.03-.06.03-.06.04-.06.04-.06.04-.05.05-.05.05-.06.05-.04.05-.05.06-.04.05-.04.06-.04.07-.04.06-.03.06-.03.07-.03.06-.02.08-.02.07-.01.07-.02.07-.01H1.46v.51h-.1l-.05.01-.04.01-.05.01-.04.01-.05.02-.04.01-.04.02-.04.02-.04.02-.04.03-.04.03-.03.02-.04.04-.03.03-.03.03-.03.03-.03.04-.03.04-.02.04-.02.04-.03.04-.01.04-.02.04-.01.05-.02.04-.01.04-.01.05v.05l-.01.05v.05zM0 97.43V67.11h.51v30.32H0zm1.46.95v.51h-.08l-.07-.01-.07-.01-.07-.01-.07-.01-.08-.03-.06-.02-.07-.02-.06-.03-.06-.03-.07-.04-.06-.04-.05-.04-.06-.04-.05-.05-.05-.05-.05-.05-.05-.05-.04-.06-.04-.05-.04-.06-.03-.06-.03-.06L.12 98l-.03-.07-.02-.06-.02-.07-.02-.08-.01-.07-.01-.07-.01-.07v-.08h.51v.05l.01.05v.05l.01.05.01.04.02.04.01.05.02.04.01.04.03.04.02.04.02.04.03.04.03.03.03.04.03.03.03.03.04.03.03.03.04.03.04.02.04.02.04.03.04.02.04.01.05.02.04.01.05.01.04.01h.05l.05.01h.05zm10.53.51H1.46v-.51h10.53v.51zm.95-1.46h.51v.08l-.01.07v.07l-.02.07-.01.08-.02.07-.02.06-.03.07-.03.07-.03.06-.04.06-.04.06-.04.05-.04.06-.05.05-.04.05-.06.05-.05.05-.05.04-.06.04-.06.04-.06.04-.06.03-.07.03-.07.02-.06.02-.07.03-.07.01-.08.01-.07.01-.07.01h-.08v-.51h.05l.05-.01h.05l.05-.01.04-.01.05-.01.04-.02.04-.01.04-.02.05-.03.03-.02.04-.02.04-.03.04-.03.03-.03.03-.03.03-.03.03-.04.03-.03.03-.04.03-.04.02-.04.02-.04.02-.04.01-.04.02-.05.01-.04.01-.04.01-.05.01-.05v-.1zm.51-30.32v30.32h-.51V67.11h.51zm-1.46-.95v-.51H12.14l.07.01.08.02.07.01.07.02.06.02.07.03.07.03.06.03.06.04.06.04.06.04.05.04.05.05.06.04.04.06.05.05.04.05.04.06.04.06.04.06.03.06.03.07.03.07.02.06.02.07.01.07.02.08v.07l.01.07v.08h-.51v-.1l-.01-.05-.01-.05-.01-.04-.01-.04-.02-.05-.01-.04-.02-.04-.02-.04-.03-.04-.02-.04-.03-.04-.03-.04-.03-.03-.03-.03-.03-.03-.04-.04-.03-.02-.04-.03-.04-.03-.03-.02-.05-.02-.04-.02-.04-.01-.04-.02-.05-.01-.04-.01-.05-.01-.05-.01h-.1z" class="fil1"/></g><path fill="#a1b567" fill-rule="nonzero" d="M152.74 87.55c1.07 0 1.99-.12 2.75-.38.75-.25 1.47-.5 2.15-.76.31-.12.54-.17.68-.12.13.04.27.24.42.6l1.36 2.84c.15.32.21.56.19.73-.02.17-.15.32-.38.44-1.26.76-2.53 1.28-3.79 1.57-1.27.28-2.58.42-3.95.42-1.88 0-3.46-.28-4.76-.86-1.3-.58-2.35-1.38-3.16-2.39-.81-1.01-1.4-2.21-1.77-3.61-.37-1.39-.56-2.9-.56-4.55 0-1.7.26-3.25.76-4.64.51-1.4 1.22-2.59 2.14-3.59.91-1 2.01-1.78 3.3-2.33s2.71-.82 4.27-.82c1.22 0 2.36.1 3.43.3 1.06.2 2.06.57 2.98 1.09.17.11.31.19.4.26.1.06.15.14.16.23.01.1 0 .21-.03.35-.03.14-.09.31-.18.52l-1.1 2.59c-.15.4-.29.64-.43.72-.14.07-.4.04-.77-.08-.43-.13-.81-.24-1.14-.34-.34-.09-.67-.17-1-.23-.33-.07-.65-.11-.98-.13-.33-.02-.68-.03-1.06-.03-1.3 0-2.37.52-3.19 1.56-.82 1.05-1.23 2.57-1.23 4.57 0 1.98.34 3.49 1.02 4.52.69 1.04 1.84 1.55 3.47 1.55z"/><path fill="#99cfba" fill-rule="nonzero" d="M83.44 48.83c.54.24 1.01.54 1.39.9.38.36.69.76.94 1.2.24.44.42.9.53 1.38.1.48.16.96.16 1.43 0 .94-.18 1.79-.54 2.56-.37.78-.87 1.44-1.52 2-.64.56-1.4.99-2.27 1.29-.87.3-1.82.46-2.83.46h-7.64c-.8 0-1.32-.16-1.55-.46-.24-.3-.35-.79-.35-1.48V41.44c0-.65.11-1.13.35-1.46.23-.32.75-.48 1.55-.48h7.64c.88 0 1.7.1 2.46.29.77.2 1.43.51 2 .94.56.43 1.01.98 1.35 1.65.33.66.5 1.46.5 2.4 0 .77-.21 1.51-.62 2.22-.41.71-.93 1.27-1.55 1.66v.17zm-2.71 4.52c0-.56-.17-1.03-.5-1.39-.35-.36-.84-.54-1.48-.54H75.3v3.84h3.45c.39 0 .71-.06.96-.17.26-.12.46-.28.61-.47.16-.2.27-.4.33-.62.06-.22.08-.43.08-.65zm-5.43-6.28h3.07c.39 0 .74-.09 1.08-.29.33-.2.49-.58.49-1.15 0-.44-.13-.79-.39-1.02-.26-.24-.62-.36-1.07-.36H75.3v2.82z"/><g><path d="M59.65 33.41H49.11c-.66 0-1.2.54-1.2 1.2v30.33c0 .66.54 1.2 1.2 1.2h10.54c.66 0 1.2-.54 1.2-1.2V34.61c0-.66-.54-1.2-1.2-1.2z" class="fil7"/><path id="1" d="M49.11 33.15h10.54v.51H49.11v-.51zm-.94 1.46h-.52l.01-.08v-.07l.01-.07.01-.07.02-.07.02-.07.02-.07.03-.07.03-.06.03-.06.04-.07.03-.06.05-.05.04-.06.05-.05.04-.05.05-.05.06-.05.05-.04.06-.04.06-.04.06-.03.06-.03.07-.03.07-.03.06-.02.07-.02.07-.02.07-.01.07-.01.08-.01h.07v.51h-.04l-.05.01h-.05l-.05.01-.04.01-.05.02-.04.01-.04.02-.04.02-.05.02-.04.02-.03.02-.04.03-.04.03-.03.03-.03.03-.04.03-.03.04-.03.03-.02.04-.03.04-.02.04-.02.04-.02.04-.02.04-.01.05-.02.04v.05l-.01.05-.01.04v.1zm-.52 30.33V34.61h.52v30.33h-.52zm1.46.94v.52l-.07-.01h-.08l-.07-.01-.07-.01-.07-.02-.07-.02-.06-.02-.07-.03-.07-.03-.06-.03-.06-.04-.06-.03-.06-.05-.05-.04-.06-.04-.05-.05-.04-.05-.05-.05-.04-.06-.05-.06-.03-.05-.04-.07-.03-.06-.03-.06-.03-.07-.02-.07-.02-.07-.02-.07-.01-.07-.01-.07v-.08l-.01-.07h.52v.09l.01.05.01.05v.04l.02.05.01.04.02.04.02.04.02.05.02.03.03.04.02.04.03.04.03.03.04.03.03.04.03.03.04.03.04.02.03.03.04.02.05.02.04.02.04.02.04.01.05.02h.04l.05.01.05.01h.09zm10.54.52H49.11v-.52h10.54v.52zm.95-1.46h.51v.07l-.01.08-.01.07-.01.07-.02.07-.02.07-.02.07-.03.07-.03.06-.03.06-.04.07-.03.05-.04.06-.05.05-.04.06-.05.05-.05.05-.06.04-.05.04-.06.05-.05.03-.07.04-.06.03-.06.03-.07.03-.07.02-.07.02-.07.02-.07.01-.07.01h-.08l-.07.01v-.52h.09l.05-.01.05-.01h.04l.05-.02.04-.01.05-.02.04-.02.04-.02.04-.02.04-.03.04-.02.03-.03.03-.03.04-.04.03-.03.03-.03.03-.04.02-.04.03-.04.02-.03.02-.05.02-.04.02-.04.01-.04.02-.05.01-.04.01-.05v-.09l.01-.05zm.51-30.33v30.33h-.51V34.61h.51zm-1.46-.95v-.51h.07l.08.01.07.01.07.01.07.02.07.02.07.02.07.03.06.03.06.03.07.03.05.04.06.04.05.04.06.05.05.05.05.05.04.05.05.06.04.05.04.06.03.07.03.06.03.06.03.07.02.07.02.07.02.07.01.07.01.07.01.07v.08h-.51l-.01-.05v-.09l-.01-.05-.01-.05-.02-.04-.01-.05-.02-.04-.02-.04-.02-.04-.02-.04-.03-.04-.02-.04-.03-.03-.03-.04-.03-.03-.04-.03-.03-.03-.03-.03-.04-.03-.04-.02-.04-.02-.04-.02-.04-.02-.05-.02-.04-.01-.05-.02-.04-.01-.05-.01h-.05l-.04-.01h-.05z" class="fil1"/></g></g></svg>