<svg xmlns="http://www.w3.org/2000/svg" width="129" height="54" fill-rule="evenodd" clip-rule="evenodd" image-rendering="optimizeQuality" shape-rendering="geometricPrecision" text-rendering="geometricPrecision" viewBox="0 0 249.16 104.32"><defs><style>.str0{stroke:#2b2a29;stroke-width:1.74;stroke-miterlimit:22.9256}.fil4{fill:none;fill-rule:nonzero}.fil3{fill:#fefefe}.fil5{fill:#2b2a29}.fil6{fill:#f5b2b6}.fil2{fill:#99cfba}.fil1{fill:#2b2a29;fill-rule:nonzero}</style></defs><g id="Слой_x0020_1"><path fill="#6fa691" d="M12.88 2.17h160.48c6.9 0 12.55 5.65 12.55 12.55V90.4c0 6.9-5.65 12.55-12.55 12.55H12.88C5.98 102.95.33 97.3.33 90.4V14.72c0-6.9 5.65-12.55 12.55-12.55z"/><path id="1" d="M173.36 2.51H12.88v-.67h160.48v.67zm12.88 12.21h-.66l-.02-.62-.05-.62-.08-.61-.1-.6-.14-.59-.17-.58-.19-.56-.22-.56-.25-.54-.26-.53-.3-.51-.32-.49-.34-.48-.36-.46-.39-.45-.4-.42-.43-.41-.44-.38-.47-.37-.47-.34-.5-.32-.51-.29-.53-.27-.54-.25-.55-.22-.57-.19-.58-.16-.59-.14-.6-.11-.61-.08-.61-.05-.63-.01v-.67l.66.02.65.05.65.08.63.11.62.15.61.17.6.21.58.23.57.26.56.28.54.31.52.34.51.36.48.38.47.41.45.43.43.44.4.47.39.49.35.5.34.53.31.53.29.56.26.57.23.58.2.6.18.61.14.63.11.63.09.64.05.65.01.66zm-.66 75.68V14.72h.66V90.4h-.66zm-12.22 12.88v-.67l.63-.01.61-.05.61-.08.6-.1.59-.14.58-.17.57-.19.55-.22.54-.25.53-.27.51-.29.5-.32.47-.34.47-.36.44-.39.43-.4.4-.43.39-.44.36-.47.34-.47.32-.5.3-.51.26-.53.25-.54.22-.55.19-.57.17-.58.14-.59.1-.6.08-.61.05-.62.02-.62h.66l-.01.66-.05.65-.09.64-.11.64-.14.62-.18.61-.2.6-.23.58-.26.57-.29.56-.31.54-.34.52-.35.51-.39.48-.4.47-.43.45-.45.42-.47.41-.48.38-.51.36-.52.34-.54.31-.56.29-.57.26-.58.23-.6.2-.61.18-.62.14-.63.11-.65.09-.65.05-.66.01zm-160.48-.67h160.48v.67H12.88v-.67zM0 90.4h.67l.01.62.05.62.08.61.1.6.14.59.17.58.19.57.22.55.25.54.27.53.29.51.32.5.34.47.37.47.38.44.41.43.42.4.44.39.47.36.47.34.5.32.51.29.53.27.54.25.56.22.56.19.58.17.59.14.6.1.61.08.62.05.62.01v.67l-.66-.01-.65-.05-.64-.09-.64-.11-.62-.14-.61-.18-.6-.2-.58-.23-.57-.26-.56-.29-.53-.31-.53-.34-.5-.36-.49-.38-.47-.41-.44-.42-.43-.45-.41-.47-.38-.48-.36-.51-.34-.52-.31-.54-.28-.56-.26-.57-.24-.58-.2-.6-.17-.61-.15-.62-.11-.64-.08-.64-.05-.65L0 90.4zm.67-75.68V90.4H0V14.72h.67zM12.88 1.84v.67l-.62.01-.62.05-.61.08-.6.11-.59.14-.58.16-.56.19-.56.22-.54.25-.53.27-.51.29-.5.32-.47.34-.47.37-.44.38-.42.41-.41.42-.38.45-.37.46-.34.48-.32.49-.29.51-.27.53-.25.54-.22.56-.19.56-.17.58-.14.59-.1.6-.08.61-.05.62-.01.62H0l.02-.66.05-.65.08-.64.11-.63.15-.63.17-.61.2-.6.24-.58.26-.57.28-.56.31-.53.34-.53.36-.5.38-.49.41-.47.43-.44.44-.43.47-.41.49-.38.5-.36.53-.34.53-.31.56-.28.57-.26.58-.23.6-.21.61-.17.62-.15.64-.11.64-.08.65-.05.66-.02z" class="fil1"/><path d="M7.5 2.68c3.31 0 6 2.74 6 6.13 0 3.39-2.69 6.14-6 6.14-3.32 0-6.01-2.75-6.01-6.14 0-3.39 2.69-6.13 6.01-6.13zM91.41.05c3.32 0 6.01 2.75 6.01 6.13 0 3.39-2.69 6.14-6.01 6.14S85.4 9.57 85.4 6.18c0-3.38 2.69-6.13 6.01-6.13zm87.07 2.3c3.32 0 6.01 2.74 6.01 6.13 0 3.39-2.69 6.14-6.01 6.14s-6.01-2.75-6.01-6.14c0-3.39 2.69-6.13 6.01-6.13z" class="fil2"/><path id="1" d="M13.55 8.81h-.1V8.5l-.03-.31-.03-.3-.05-.31-.07-.29-.08-.29-.1-.28-.1-.28-.12-.27-.13-.26-.15-.25-.15-.25-.17-.24-.17-.23-.19-.22-.2-.21-.21-.2-.21-.2-.23-.18-.23-.17-.24-.15-.25-.15-.26-.14-.26-.12-.27-.11L9.27 3l-.28-.08-.29-.07-.29-.06-.3-.03-.31-.03-.3-.01v-.09l.31.01.31.02.3.04.3.06.29.06.29.09.28.09.27.11.27.13.26.14.26.14.24.16.24.18.23.18.22.2.21.2.2.21.19.23.18.23.16.25.16.25.15.25.13.27.12.27.11.29.1.28.08.3.07.3.05.3.04.31.02.31.01.32zM7.5 15v-.1l.3-.01.31-.02.3-.04.29-.05.29-.07.28-.08.28-.1.27-.11.26-.12.26-.14.25-.14.24-.16.23-.17.23-.18.21-.19.21-.21.2-.2.19-.23.17-.22.17-.24.15-.25.15-.26.13-.26.12-.27.1-.27.1-.29.08-.29.07-.29.05-.3.03-.31.03-.31v-.31h.1l-.01.32-.02.31-.04.31-.05.31-.07.3-.08.29-.1.29-.11.28-.12.27-.13.27-.15.26-.16.25-.16.24-.18.23-.19.23-.2.21-.21.21-.22.19-.23.19-.24.17-.24.16-.26.15-.26.14-.27.12-.27.11-.28.1-.29.08-.29.07-.3.05-.3.04-.31.03-.31.01zM1.44 8.81h.1l.01.31.02.31.04.31.05.3.07.29.08.29.09.29.11.27.12.27.13.26.14.26.16.25.16.24.18.22.19.23.2.21.2.2.22.19.22.18.24.17.24.16.25.14.25.14.27.12.27.11.27.1.29.08.29.07.29.05.3.04.3.02.31.01v.1l-.31-.01-.31-.03-.3-.04-.3-.05-.3-.07-.28-.08-.28-.1-.28-.11-.27-.12-.26-.14-.25-.15-.25-.16-.24-.17-.22-.19-.22-.19-.21-.21-.2-.21-.19-.23-.18-.23-.17-.24-.16-.25-.14-.26-.14-.27-.12-.27-.11-.28-.09-.29-.08-.29-.07-.3-.06-.31-.03-.31-.03-.31-.01-.32zM7.5 2.63v.09l-.31.01-.3.03-.3.03-.29.06-.29.07-.29.08-.27.09-.27.11-.27.12-.25.14-.25.15-.24.15-.24.17-.22.18-.22.2-.2.2-.2.21-.19.22-.18.23-.16.24-.16.25-.14.25-.13.26-.12.27-.11.28-.09.28-.08.29-.07.29-.05.31-.04.3-.02.31-.01.31h-.1l.01-.32.03-.31.03-.31.06-.3.07-.3.08-.3.09-.28.11-.29.12-.27.14-.27.14-.25.16-.25.17-.25.18-.23.19-.23.2-.21.21-.2.22-.2.22-.18.24-.18.25-.16.25-.14.26-.14.27-.13.28-.11.28-.09.28-.09.3-.06.3-.06.3-.04.31-.02.31-.01zm89.96 3.55h-.09l-.01-.31-.02-.31-.04-.3-.05-.3-.07-.3-.08-.29-.1-.28-.1-.28-.12-.27-.13-.26-.15-.25-.15-.25-.17-.24-.17-.23-.19-.22-.2-.21-.21-.2-.21-.19-.23-.19-.23-.17-.24-.15-.25-.15-.26-.13-.26-.13-.27-.11-.28-.09-.28-.08-.29-.07-.29-.06-.3-.03-.3-.03h-.31V0l.31.01.31.02.3.04.3.06.29.07.29.08.28.1.27.11.27.12.26.14.26.14.24.17.24.17.23.18.22.2.21.2.2.22.19.22.18.23.17.25.16.25.14.26.14.26.12.28.11.28.09.28.08.3.07.3.05.3.04.31.03.32v.31zm-6.05 6.19v-.1l.31-.01.3-.02.3-.04.29-.05.29-.07.28-.08.28-.1.27-.11.26-.12.26-.13.25-.15.24-.16.23-.17.23-.18.21-.19.21-.2.2-.21.19-.22.17-.23.17-.24.15-.25.15-.25.13-.27.12-.27.1-.27.1-.29.08-.28.07-.3.05-.3.04-.3.02-.31.01-.32h.09v.32l-.03.32-.04.3-.05.31-.07.3-.08.29-.09.29-.11.28-.12.27-.14.27-.14.26-.16.25-.17.24-.18.23-.19.23-.2.21-.21.21-.22.19-.23.19-.24.17-.24.16-.26.15-.26.14-.27.12-.27.11-.28.1-.29.08-.29.07-.3.05-.3.04-.31.03-.31.01zm-6.05-6.19h.09l.01.32.02.31.04.3.05.3.07.3.08.28.1.29.1.27.12.27.13.27.14.25.16.25.17.24.17.23.19.22.2.21.2.2.22.19.23.18.23.17.24.16.25.15.26.13.26.12.27.11.28.1.28.08.29.07.29.05.3.04.3.02.31.01v.1l-.31-.01-.31-.03-.3-.04-.3-.05-.29-.07-.29-.08-.28-.1-.28-.11-.26-.12-.27-.14-.25-.15-.25-.16-.23-.17-.23-.19-.22-.19-.21-.21-.2-.21-.19-.23-.18-.23-.17-.24-.16-.25-.14-.26-.14-.27-.12-.27-.11-.28-.09-.29-.08-.29-.07-.3-.05-.31-.04-.3-.03-.32v-.32zM91.41 0v.1h-.31l-.3.03-.3.03-.29.06-.29.07-.28.08-.28.09-.27.11-.26.13-.26.13-.25.15-.24.15-.23.17-.23.19-.22.19-.2.2-.2.21-.19.22-.17.23-.17.24-.16.25-.14.25-.13.26-.12.27-.1.28-.1.28-.08.29-.07.3-.05.3-.04.3-.02.31-.01.31h-.09v-.31l.03-.32.04-.31.05-.3.07-.3.08-.3.09-.28.11-.28.12-.28.14-.26.14-.26.16-.25.17-.25.18-.23.19-.22.2-.22.21-.2.22-.2.23-.18.23-.17.25-.17.25-.14.27-.14.26-.12.28-.11.28-.1.29-.08.29-.07.3-.06.3-.04.31-.02.31-.01zm93.13 8.48h-.1l-.01-.31-.02-.31-.04-.3-.05-.3-.07-.3-.08-.29-.09-.28-.11-.28-.12-.27-.13-.26-.14-.25-.16-.25-.16-.24-.18-.23-.19-.22-.2-.21-.2-.2-.22-.19-.23-.19-.23-.17-.24-.15-.25-.15-.26-.13-.26-.13-.27-.11-.28-.09-.28-.08-.29-.07-.29-.06-.3-.03-.3-.03h-.31v-.1l.31.01.31.02.3.04.3.06.29.07.29.08.28.1.28.11.26.12.27.14.25.14.25.17.23.17.23.18.22.2.21.2.2.22.19.22.18.23.17.25.16.25.14.26.14.26.12.28.11.28.09.28.08.3.07.3.06.3.03.31.03.32.01.31zm-6.06 6.19v-.1l.31-.01.3-.02.3-.04.29-.05.29-.07.28-.08.28-.1.27-.11.26-.12.26-.13.25-.15.24-.16.23-.17.23-.18.22-.19.2-.2.2-.21.19-.22.18-.23.16-.24.16-.25.14-.25.13-.27.12-.27.11-.27.09-.29.08-.28.07-.3.05-.3.04-.3.02-.31.01-.32h.1l-.01.32-.03.32-.03.3-.06.31-.07.3-.08.29-.09.29-.11.28-.12.27-.14.27-.14.26-.16.25-.17.24-.18.23-.19.23-.2.21-.21.21-.22.19-.23.19-.23.17-.25.16-.25.15-.27.14-.26.12-.28.11-.28.1-.29.08-.29.07-.3.05-.3.04-.31.03-.31.01zm-6.05-6.19h.09l.01.32.02.31.04.3.05.3.07.3.08.28.1.29.1.27.12.27.13.27.14.25.16.25.17.24.17.23.19.22.2.21.21.2.21.19.23.18.23.17.24.16.25.15.26.13.26.12.27.11.28.1.28.08.29.07.29.05.3.04.3.02.31.01v.1l-.31-.01-.31-.03-.3-.04-.3-.05-.29-.07-.29-.08-.28-.1-.27-.11-.27-.12-.26-.14-.26-.15-.24-.16-.24-.17-.23-.19-.22-.19-.21-.21-.2-.21-.19-.23-.18-.23-.17-.24-.16-.25-.14-.26-.14-.27-.12-.27-.11-.28-.09-.29-.08-.29-.07-.3-.05-.31-.04-.3-.03-.32v-.32zm6.05-6.18v.1h-.31l-.3.03-.3.03-.29.06-.29.07-.28.08-.28.09-.27.11-.26.13-.26.13-.25.15-.24.15-.23.17-.23.19-.21.19-.21.2-.2.21-.19.22-.17.23-.17.24-.16.25-.14.25-.13.26-.12.27-.1.28-.1.28-.08.29-.07.3-.05.3-.04.3-.02.31-.01.31h-.09v-.31l.03-.32.04-.31.05-.3.07-.3.08-.3.09-.28.11-.28.12-.28.14-.26.14-.26.16-.25.17-.25.18-.23.19-.22.2-.22.21-.2.22-.2.23-.18.24-.17.24-.17.26-.14.26-.14.27-.12.27-.11.28-.1.29-.08.29-.07.3-.06.3-.04.31-.02.31-.01z" class="fil1"/><path d="M39.03 68.04c2.81-1.62 6.4-.65 8.02 2.16 1.61 2.81.65 6.4-2.17 8.02-2.81 1.61-6.39.64-8.01-2.17s-.65-6.4 2.16-8.01z" class="fil3"/><path id="1" d="M39.03 68.04c2.81-1.62 6.4-.65 8.02 2.16 1.61 2.81.65 6.4-2.17 8.02-2.81 1.61-6.39.64-8.01-2.17s-.65-6.4 2.16-8.01z" class="fil4 str0"/><path d="M49.19 62.19c2.81-1.61 6.4-.64 8.02 2.17 1.61 2.8.65 6.39-2.17 8.01-2.8 1.62-6.39.65-8.01-2.16s-.65-6.4 2.16-8.02z" class="fil3"/><path id="1" d="M49.19 62.19c2.81-1.61 6.4-.64 8.02 2.17 1.61 2.8.65 6.39-2.17 8.01-2.8 1.62-6.39.65-8.01-2.16s-.65-6.4 2.16-8.02z" class="fil4 str0"/><path d="M59.41 56.32c2.81-1.62 6.4-.65 8.01 2.16 1.62 2.81.65 6.4-2.16 8.01-2.81 1.62-6.4.65-8.01-2.16-1.62-2.81-.65-6.39 2.16-8.01z" class="fil3"/><path id="1" d="M59.41 56.32c2.81-1.62 6.4-.65 8.01 2.16 1.62 2.81.65 6.4-2.16 8.01-2.81 1.62-6.4.65-8.01-2.16-1.62-2.81-.65-6.39 2.16-8.01z" class="fil4 str0"/><path d="M69.62 50.44c2.81-1.61 6.4-.65 8.02 2.16 1.61 2.81.65 6.4-2.17 8.02-2.81 1.62-6.39.65-8.01-2.16s-.65-6.4 2.16-8.02z" class="fil3"/><path id="1" d="M69.62 50.44c2.81-1.61 6.4-.65 8.02 2.16 1.61 2.81.65 6.4-2.17 8.02-2.81 1.62-6.39.65-8.01-2.16s-.65-6.4 2.16-8.02z" class="fil4 str0"/><path d="M38.94 56.24c2.81-1.62 6.4-.65 8.02 2.16 1.62 2.81.65 6.4-2.16 8.01-2.81 1.62-6.4.65-8.02-2.16-1.61-2.81-.65-6.4 2.16-8.01z" class="fil3"/><path id="1" d="M38.94 56.24c2.81-1.62 6.4-.65 8.02 2.16 1.62 2.81.65 6.4-2.16 8.01-2.81 1.62-6.4.65-8.02-2.16-1.61-2.81-.65-6.4 2.16-8.01z" class="fil4 str0"/><path d="M49.16 50.36c2.81-1.61 6.4-.65 8.01 2.16 1.62 2.81.65 6.4-2.16 8.02-2.81 1.62-6.4.65-8.01-2.16-1.62-2.81-.65-6.4 2.16-8.02z" class="fil3"/><path id="1" d="M49.16 50.36c2.81-1.61 6.4-.65 8.01 2.16 1.62 2.81.65 6.4-2.16 8.02-2.81 1.62-6.4.65-8.01-2.16-1.62-2.81-.65-6.4 2.16-8.02z" class="fil4 str0"/><path d="M59.37 44.49c2.81-1.62 6.4-.65 8.02 2.16 1.61 2.81.65 6.4-2.16 8.01-2.81 1.62-6.4.65-8.02-2.16-1.62-2.81-.65-6.4 2.16-8.01z" class="fil3"/><path id="1" d="M59.37 44.49c2.81-1.62 6.4-.65 8.02 2.16 1.61 2.81.65 6.4-2.16 8.01-2.81 1.62-6.4.65-8.02-2.16-1.62-2.81-.65-6.4 2.16-8.01z" class="fil4 str0"/><g><path d="M38.89 44.37c2.81-1.62 6.4-.65 8.01 2.16 1.62 2.81.65 6.4-2.16 8.02-2.81 1.61-6.4.64-8.01-2.17-1.62-2.81-.65-6.4 2.16-8.01z" class="fil3"/><path id="1" d="M38.89 44.37c2.81-1.62 6.4-.65 8.01 2.16 1.62 2.81.65 6.4-2.16 8.02-2.81 1.61-6.4.64-8.01-2.17-1.62-2.81-.65-6.4 2.16-8.01z" class="fil4 str0"/></g><g><path d="M49.1 38.49c2.81-1.61 6.4-.64 8.02 2.16 1.61 2.82.65 6.4-2.16 8.02-2.81 1.62-6.4.65-8.02-2.16-1.61-2.81-.65-6.4 2.16-8.02z" class="fil3"/><path id="1" d="M49.1 38.49c2.81-1.61 6.4-.64 8.02 2.16 1.61 2.82.65 6.4-2.16 8.02-2.81 1.62-6.4.65-8.02-2.16-1.61-2.81-.65-6.4 2.16-8.02z" class="fil4 str0"/></g><g><path d="M38.9 32.62c2.81-1.62 6.4-.65 8.02 2.16 1.61 2.81.64 6.39-2.17 8.01s-6.4.65-8.01-2.16c-1.62-2.81-.65-6.4 2.16-8.01z" class="fil3"/><path id="1" d="M38.9 32.62c2.81-1.62 6.4-.65 8.02 2.16 1.61 2.81.64 6.39-2.17 8.01s-6.4.65-8.01-2.16c-1.62-2.81-.65-6.4 2.16-8.01z" class="fil4 str0"/></g><path d="M47.49 89.67L246.02 9.52c1.17-.47 2.5.09 2.97 1.26.47 1.16-.09 2.5-1.26 2.97L49.2 93.9c-1.16.47-2.5-.1-2.97-1.26-.47-1.17.1-2.5 1.26-2.97z" class="fil5"/><path d="M47.49 89.67l14.82-5.98 1.7 4.23L49.2 93.9c-1.16.47-2.5-.1-2.97-1.26-.47-1.17.1-2.5 1.26-2.97z" class="fil6"/><path d="M24.94 16.45l207.13 54.21c1.21.31 2.46-.42 2.78-1.63.32-1.22-.41-2.47-1.63-2.79L26.1 12.04c-1.22-.32-2.47.41-2.79 1.63-.31 1.21.42 2.47 1.63 2.78z" class="fil5"/><path d="M24.94 16.45l15.45 4.05 1.16-4.42-15.45-4.04c-1.21-.32-2.47.42-2.79 1.63-.31 1.21.42 2.47 1.63 2.78z" class="fil6"/><g><path d="M7.36 101.64c3.32 0 6.01-2.74 6.01-6.13 0-3.39-2.69-6.14-6.01-6.14s-6 2.75-6 6.14c0 3.39 2.68 6.13 6 6.13zm83.91 2.63c3.32 0 6.01-2.75 6.01-6.13 0-3.39-2.69-6.14-6.01-6.14-3.31 0-6 2.75-6 6.14 0 3.38 2.69 6.13 6 6.13zm87.08-2.3c3.31 0 6-2.75 6-6.13 0-3.39-2.69-6.14-6-6.14-3.32 0-6.01 2.75-6.01 6.14 0 3.38 2.69 6.13 6.01 6.13z" class="fil2"/><path id="1" d="M13.41 95.51v.31l-.03.32-.03.31-.06.3-.07.3-.08.3-.09.28-.11.28-.12.28-.14.27-.14.25-.16.25-.17.25-.18.23-.19.22-.2.22-.21.2-.22.2-.23.18-.23.17-.25.17-.25.14-.27.14-.26.12-.28.11-.28.1-.29.08-.29.07-.3.06-.3.04-.31.02-.31.01v-.09l.31-.01.3-.03.3-.03.29-.06.29-.07.28-.08.28-.09.27-.11.26-.12.26-.14.25-.15.24-.15.23-.17.23-.18.22-.2.2-.2.2-.21.19-.22.17-.23.17-.24.16-.25.14-.25.13-.26.12-.27.11-.28.09-.28.08-.29.07-.29.05-.31.04-.3.02-.31.01-.31h.09zm-6.05-6.19l.31.01.31.03.3.04.3.05.29.07.29.08.28.1.28.11.26.12.27.14.25.15.25.16.23.17.23.19.22.19.21.21.2.21.19.23.18.23.17.24.16.25.14.26.14.27.12.27.11.28.09.29.08.29.07.3.06.31.03.31.03.31v.32h-.09l-.01-.31-.02-.32-.04-.3-.05-.3-.07-.29-.08-.29-.09-.29-.11-.27-.12-.27-.13-.26-.14-.26-.16-.25-.17-.24-.17-.22-.19-.23-.2-.21-.2-.2-.22-.19-.23-.18-.23-.17-.24-.16-.25-.15-.26-.13-.26-.12-.27-.11-.28-.1-.28-.08-.29-.07-.29-.05-.3-.04-.3-.02-.31-.01v-.1zm-6.05 6.19v-.32l.03-.31.04-.31.05-.31.07-.3.08-.29.09-.29.11-.28.12-.27.14-.27.14-.26.16-.25.17-.24.18-.23.19-.23.2-.21.21-.21.22-.19.23-.19.23-.17.25-.16.25-.15.27-.14.26-.12.28-.11.28-.1.29-.08.29-.07.3-.05.3-.04.31-.03.31-.01v.1l-.31.01-.3.02-.3.04-.29.05-.29.07-.28.08-.28.1-.27.11-.26.12-.26.13-.25.15-.24.16-.23.17-.23.18-.22.19-.2.2-.2.21-.19.23-.17.22-.17.24-.15.25-.15.26-.13.26-.12.27-.1.27-.1.29-.08.29-.07.29-.05.3-.03.3-.03.32-.01.31h-.09zm6.05 6.18l-.31-.01-.31-.02-.3-.04-.3-.06-.29-.07-.29-.08-.28-.1-.28-.11-.26-.12-.27-.14-.25-.14-.25-.17-.23-.17-.23-.18-.22-.2-.21-.2-.2-.22-.19-.22-.18-.23-.17-.25-.16-.25-.14-.25-.14-.27-.12-.28-.11-.28-.09-.28-.08-.3-.07-.3-.05-.3-.04-.31-.03-.32v-.31h.09l.01.31.03.31.03.3.05.31.07.29.08.29.1.28.1.28.12.27.13.26.15.25.15.25.17.24.17.23.19.22.2.21.2.2.22.2.23.18.23.17.24.15.25.15.26.14.26.12.27.11.28.09.28.08.29.07.29.06.3.03.3.03.31.01v.09zm89.97-3.55l-.01.31-.03.32-.03.31-.06.3-.07.3-.08.3-.09.28-.11.28-.12.28-.14.26-.14.26-.16.25-.17.24-.18.24-.19.22-.2.22-.21.2-.22.2-.22.18-.24.17-.25.16-.25.15-.26.14-.27.12-.28.11-.28.1-.28.08-.3.07-.3.06-.3.04-.31.02-.31.01v-.1h.31l.3-.03.3-.03.3-.06.28-.07.29-.08.27-.09.27-.11.27-.13.25-.13.25-.15.24-.15.24-.17.22-.19.22-.19.2-.2.2-.21.19-.22.18-.23.16-.24.16-.25.14-.25.13-.26.12-.27.11-.28.09-.28.08-.29.07-.3.05-.3.04-.3.02-.31.01-.31h.1zm-6.06-6.19l.31.01.31.02.3.05.3.05.3.07.28.08.28.1.28.11.27.12.26.14.25.15.25.16.24.17.22.19.22.19.21.21.2.21.19.22.18.24.17.24.16.25.14.26.14.27.12.27.11.28.09.29.08.29.07.3.06.31.03.3.03.32.01.32h-.1l-.01-.32-.02-.31-.04-.3-.05-.3-.07-.3-.08-.29-.09-.28-.11-.27-.12-.27-.13-.27-.14-.25-.16-.25-.16-.24-.18-.23-.19-.22-.2-.21-.2-.2-.22-.19-.22-.18-.24-.17-.24-.16-.25-.15-.25-.13-.27-.12-.27-.11-.27-.1-.29-.08-.28-.07-.3-.05-.3-.04-.3-.02-.31-.01v-.1zm-6.05 6.19l.01-.32.02-.32.04-.3.05-.31.07-.3.08-.29.1-.29.11-.28.12-.27.13-.27.15-.26.15-.25.17-.24.18-.24.19-.22.2-.21.21-.21.22-.19.23-.19.24-.17.24-.16.26-.15.26-.14.27-.12.27-.11.28-.1.29-.08.29-.07.3-.05.3-.05.31-.02.31-.01v.1l-.3.01-.31.02-.3.04-.29.05-.29.07-.28.08-.28.1-.27.11-.26.12-.26.13-.25.15-.24.16-.23.17-.23.18-.21.19-.21.2-.2.21-.18.22-.18.23-.17.24-.15.25-.15.25-.13.27-.12.27-.1.27-.1.28-.08.29-.07.3-.05.3-.03.3-.03.31v.32h-.1zm6.05 6.18l-.31-.01-.31-.02-.3-.04-.3-.06-.29-.07-.29-.08-.28-.1-.27-.11-.27-.12-.26-.14-.26-.15-.24-.16-.24-.17-.23-.18-.22-.2-.21-.2-.2-.22-.19-.22-.18-.24-.17-.24-.15-.25-.15-.26-.13-.26-.12-.28-.11-.28-.1-.28-.08-.3-.07-.3-.05-.3-.04-.31-.02-.32-.01-.31h.1v.31l.03.31.03.3.05.3.07.3.08.29.1.28.1.28.12.27.13.26.15.25.15.25.17.24.18.23.18.22.2.21.21.2.21.19.23.19.23.17.24.15.25.15.26.13.26.13.27.11.28.09.28.08.29.07.29.06.3.03.31.03h.3v.1zm93.13-8.48l-.01.31-.02.32-.04.31-.05.3-.07.3-.08.3-.1.28-.11.28-.12.28-.13.26-.15.26-.16.25-.16.24-.18.24-.2.22-.19.22-.22.2-.22.2-.22.18-.24.17-.25.17-.25.14-.26.14-.27.12-.27.11-.29.1-.28.08-.3.07-.29.06-.31.04-.3.02-.31.01v-.1h.3l.3-.03.3-.03.3-.06.29-.07.28-.08.27-.09.27-.11.27-.13.25-.13.25-.15.24-.15.24-.17.23-.19.21-.19.21-.2.2-.21.18-.22.18-.23.17-.24.15-.25.14-.25.13-.26.12-.27.11-.28.1-.28.08-.29.06-.3.05-.3.04-.3.03-.31v-.31h.1zm-6.05-6.19l.31.01.3.02.31.05.29.05.3.07.28.08.29.1.27.11.27.12.26.14.25.15.25.16.24.17.22.19.22.19.22.2.19.22.2.22.18.24.16.24.16.25.15.26.13.27.12.27.11.28.1.29.08.29.07.3.05.31.04.3.02.32.01.32h-.1v-.32l-.03-.31-.04-.3-.05-.3-.06-.3-.08-.29-.1-.28-.11-.27-.12-.27-.13-.27-.14-.25-.15-.25-.17-.24-.18-.23-.18-.22-.2-.21-.21-.2-.21-.19-.23-.18-.24-.17-.24-.16-.25-.15-.25-.13-.27-.12-.27-.11-.27-.1-.28-.08-.29-.07-.3-.05-.3-.04-.3-.02-.3-.01v-.1zm-6.06 6.19l.01-.32.02-.32.04-.3.06-.31.06-.3.08-.29.1-.29.11-.28.12-.27.13-.27.15-.26.16-.25.16-.24.18-.24.2-.22.19-.21.21-.21.23-.19.22-.19.24-.17.25-.16.25-.15.26-.14.27-.12.27-.11.29-.1.28-.08.29-.07.3-.05.31-.05.3-.02.32-.01v.1l-.31.01-.3.02-.3.04-.3.05-.28.07-.29.08-.27.1-.28.11-.26.12-.26.13-.24.15-.25.16-.23.17-.22.18-.22.19-.21.2-.2.21-.18.22-.18.23-.17.24-.15.25-.14.25-.14.27-.11.27-.11.27-.1.28-.08.29-.06.3-.05.3-.04.3-.03.31v.32h-.1zm6.06 6.18l-.32-.01-.3-.02-.31-.04-.3-.06-.29-.07-.28-.08-.29-.1-.27-.11-.27-.12-.26-.14-.25-.14-.25-.17-.24-.17-.22-.18-.23-.2-.21-.2-.19-.22-.2-.22-.18-.24-.16-.24-.16-.25-.15-.26-.13-.26-.12-.28-.11-.28-.1-.28-.08-.3-.06-.3-.06-.3-.04-.31-.02-.32-.01-.31h.1v.31l.03.31.04.3.05.3.06.3.08.29.1.28.11.28.11.27.14.26.14.25.15.25.17.24.18.23.18.22.2.21.21.2.22.19.22.19.23.17.25.15.24.15.26.13.26.13.28.11.27.09.29.08.28.07.3.06.3.03.3.03h.31v.1z" class="fil1"/></g></g></svg>