<svg xmlns="http://www.w3.org/2000/svg" width="124" height="65" fill-rule="evenodd" clip-rule="evenodd" image-rendering="optimizeQuality" shape-rendering="geometricPrecision" text-rendering="geometricPrecision" viewBox="0 0 17.98 9.45"><defs><style>.fil2{fill:#f5b2b6}.fil3{fill:#f08bb2}.fil4{fill:#99cfba}.fil1{fill:#2b2a29;fill-rule:nonzero}</style></defs><g id="Слой_x0020_1"><path fill="#fefefe" d="M.06 7.25L8.69.03l9.26.57-1.15 8.82z"/><path id="1" d="M8.7.04L.07 7.27l-.03-.04L8.67.01 8.69 0l.01.04zM8.67.01L8.68 0h.01l-.02.01zm9.28.62L8.69.05V0l9.27.58.02.02-.03.03zm.01-.05h.02V.6l-.02-.02zm-1.18 8.84L17.93.6h.05l-1.15 8.82-.03.02-.02-.02zm.05 0l-.01.03-.02-.01.03-.02zM.06 7.22L16.81 9.4l-.01.04L.06 7.27l-.02-.04.02-.01zm0 .05L0 7.26l.04-.03.02.04z" class="fil1"/><path d="M5.34 4.82c1.04 0 1.89.51 1.89 1.14 0 .63-.85 1.14-1.89 1.14s-1.89-.51-1.89-1.14c0-.63.85-1.14 1.89-1.14z" class="fil2"/><path id="1" d="M7.25 5.96H7.2v-.05l-.01-.06-.01-.06-.01-.05-.03-.05-.02-.06-.03-.05-.03-.05-.04-.05-.04-.05-.04-.04-.05-.05-.05-.04-.06-.04-.06-.05-.06-.03-.06-.04-.07-.04-.07-.03-.08-.03-.07-.03-.08-.03-.08-.02-.08-.03-.09-.02-.08-.01-.09-.02-.09-.01-.1-.01-.09-.01h-.09l-.1-.01V4.8h.19l.1.01.09.01.09.01.09.02.09.01.09.03.08.02.09.02.08.03.07.03.08.03.07.04.07.03.07.04.06.04.06.05.06.04.05.04.05.05.05.05.04.05.04.05.03.06.03.05.03.06.02.05.02.06.01.06.01.06v.06zM5.34 7.13v-.05h.1l.09-.01h.09l.1-.01.09-.02.09-.01.08-.02.09-.02.08-.02.08-.03.08-.02.07-.03.08-.03.07-.04.07-.03.06-.04.06-.04.06-.04.06-.04.05-.05.05-.04.04-.05.04-.05.04-.05.03-.05.03-.05.02-.05.03-.06.01-.05.01-.06.01-.05v-.06h.05v.06l-.01.06-.01.06-.02.06-.02.06-.03.05-.03.06-.03.05-.04.05-.04.05-.05.05-.05.05-.05.04-.06.05-.06.04-.06.04-.07.04-.07.04-.07.03-.08.03-.07.03-.08.03-.09.03-.08.02-.09.02-.09.02-.09.01-.09.02-.09.01h-.1l-.09.01h-.1zM3.43 5.96h.04l.01.06v.05l.02.06.01.05.02.06.03.05.03.05.03.05.04.05.04.05.04.05.05.04.05.05.06.04.05.04.07.04.06.04.07.03.07.04.07.03.08.03.08.02.08.03.08.02.08.02.09.02.09.01.09.02.09.01h.1l.09.01h.1v.05h-.1l-.1-.01h-.09l-.1-.01-.09-.02-.09-.01-.09-.02-.08-.02-.09-.02-.08-.03-.08-.03-.08-.03-.07-.03-.07-.03-.07-.04-.07-.04-.06-.04-.06-.04-.06-.05-.05-.04-.05-.05-.05-.05-.04-.05-.04-.05-.04-.05-.03-.06-.02-.05-.02-.06-.02-.06-.01-.06-.01-.06v-.06zM5.34 4.8v.04l-.1.01h-.09l-.1.01-.09.01-.09.01-.09.02-.09.01-.08.02-.08.03-.08.02-.08.03-.08.03-.07.03-.07.03-.07.04-.06.04-.07.03-.05.05-.06.04-.05.04-.05.05-.04.04-.04.05-.04.05-.03.05-.03.05-.03.06-.02.05-.01.05-.02.06v.06l-.01.05h-.04V5.9l.01-.06.01-.06.02-.06.02-.05.02-.06.03-.05.04-.06.04-.05.04-.05.05-.05.05-.05.05-.04.06-.04.06-.05.06-.04.07-.04.07-.03.07-.04.07-.03.08-.03.08-.03.08-.02.09-.02.08-.03.09-.01.09-.02.09-.01.1-.01.09-.01h.2z" class="fil1"/><path d="M9.64 5.37c1.04 0 1.89.51 1.89 1.14 0 .63-.85 1.14-1.89 1.14-1.05 0-1.89-.51-1.89-1.14 0-.63.84-1.14 1.89-1.14z" class="fil3"/><path id="1" d="M11.55 6.51h-.05v-.06l-.01-.05-.01-.06-.02-.05-.02-.06-.02-.05-.03-.05-.03-.05-.04-.05-.04-.05-.04-.05-.05-.04-.05-.05-.06-.04-.06-.04-.06-.04-.06-.04-.07-.03-.07-.03-.08-.04-.07-.03-.08-.02-.08-.03-.08-.02-.09-.02-.09-.02-.08-.01-.09-.02-.1-.01h-.09l-.1-.01h-.09v-.05h.1l.09.01.1.01.09.01.09.01.09.01.09.02.09.02.08.03.09.02.08.03.07.03.08.03.07.04.07.03.07.04.06.04.06.04.06.05.05.04.05.05.05.05.04.05.04.05.03.05.03.06.03.05.02.06.02.06.01.06.01.06v.06zM9.64 7.68v-.05h.09l.1-.01.09-.01.1-.01.09-.01.08-.01.09-.02.09-.02.08-.02.08-.03.08-.03.07-.03.08-.03.07-.03.07-.04.06-.03.06-.04.06-.04.06-.05.05-.04.05-.05.04-.04.04-.05.04-.05.03-.05.03-.05.02-.06.02-.05.02-.05.01-.06.01-.05v-.06h.05v.06l-.01.06-.01.06-.02.06-.02.05-.03.06-.03.05-.03.06-.04.05-.04.05-.05.05-.05.05-.05.04-.06.05-.06.04-.06.04-.07.04-.07.03-.07.04-.08.03-.07.03-.08.03-.09.02-.08.03-.09.02-.09.01-.09.02-.09.01-.09.01-.1.01h-.09l-.1.01zM7.72 6.51h.05l.01.06v.05l.01.06.02.05.02.05.03.06.02.05.04.05.03.05.05.05.04.04.05.05.05.04.05.05.06.04.07.04.06.03.07.04.07.03.07.03.08.03.08.03.08.03.08.02.08.02.09.02.09.01.09.01.09.01.1.01.09.01h.1v.05l-.1-.01h-.1l-.09-.01-.1-.01-.09-.01-.09-.02-.09-.01-.08-.02-.09-.03-.08-.02-.08-.03-.08-.03-.07-.03-.07-.04-.07-.03-.07-.04-.06-.04-.06-.04-.06-.05-.05-.04-.05-.05-.05-.05-.04-.05-.04-.05-.04-.06-.03-.05-.02-.06-.03-.05-.01-.06-.02-.06v-.06l-.01-.06zm1.92-1.17v.05h-.1l-.09.01h-.1l-.09.01-.09.02-.09.01-.09.02-.08.02-.08.02-.08.03-.08.02-.08.03-.07.04-.07.03-.07.03-.06.04-.07.04-.06.04-.05.04-.05.05-.05.04-.04.05-.05.05-.03.05-.04.05-.02.05-.03.05-.02.06-.02.05-.01.06v.05l-.01.06h-.05l.01-.06v-.06l.02-.06.01-.06.03-.06.02-.05.03-.06.04-.05.04-.05.04-.05.05-.05.05-.05.05-.04.06-.05.06-.04.06-.04.07-.04.07-.03.07-.04.07-.03.08-.03.08-.03.08-.02.09-.03.08-.02.09-.02.09-.01.09-.01.1-.01.09-.01.1-.01h.1z" class="fil1"/><path d="M13.88 5.8c1.05 0 1.89.51 1.89 1.14 0 .63-.84 1.14-1.89 1.14-1.04 0-1.89-.51-1.89-1.14 0-.63.85-1.14 1.89-1.14z" class="fil4"/><path id="1" d="M15.8 6.94h-.05l-.01-.06v-.05l-.01-.06-.02-.05-.02-.05-.03-.06-.02-.05-.04-.05-.03-.05-.05-.05-.04-.04-.05-.05-.05-.04-.05-.05-.06-.04-.06-.04-.07-.03-.07-.04-.07-.03-.07-.03-.08-.03-.07-.03-.09-.03-.08-.02-.08-.02-.09-.02-.09-.01-.09-.01-.09-.01-.1-.01-.09-.01h-.1v-.05l.1.01h.1l.09.01.1.01.09.01.09.02.09.01.08.02.09.03.08.02.08.03.08.03.07.03.08.04.06.03.07.04.06.04.06.04.06.05.06.04.05.05.04.05.04.05.04.05.04.06.03.05.02.06.03.05.01.06.02.06v.06l.01.06zm-1.92 1.17v-.05h.1l.09-.01h.1l.09-.01.09-.02.09-.01.09-.02.08-.02.08-.02.09-.03.07-.02.08-.03.07-.04.07-.03.07-.03.07-.04.06-.04.06-.04.05-.04.05-.05.05-.04.04-.05.05-.05.03-.05.04-.05.02-.05.03-.05.02-.06.02-.05.01-.06V7l.01-.06h.05l-.01.06v.06l-.02.06-.01.06-.03.06-.02.05-.03.06-.04.05-.04.05-.04.05-.04.05-.05.05-.06.04-.06.05-.06.04-.06.04-.07.04-.06.03-.08.04-.07.03-.08.03-.08.03-.08.02-.09.03-.08.02-.09.02-.09.01-.09.01-.1.01-.09.01-.1.01h-.1zm-1.91-1.17h.05V7l.01.05.01.06.02.05.02.06.02.05.03.05.03.05.04.05.04.05.05.05.04.04.06.05.05.04.06.04.06.04.06.04.07.03.07.03.08.04.07.03.08.02.08.03.08.02.09.02.09.02.08.01.1.02.09.01h.09l.1.01h.09v.05h-.1l-.09-.01-.1-.01-.09-.01-.09-.01-.09-.01-.09-.02-.09-.02-.08-.03-.09-.02-.08-.03-.07-.03-.08-.03-.07-.04-.07-.03-.07-.04-.06-.04-.06-.04-.06-.05-.05-.04-.05-.05-.05-.05-.04-.05-.04-.05-.03-.05-.03-.06-.03-.05-.02-.06-.02-.06-.01-.06-.01-.06v-.06zm1.91-1.17v.05h-.09l-.1.01-.09.01-.09.01-.1.01-.08.01-.09.02-.09.02-.08.02-.08.03-.08.03-.07.03-.08.03-.07.03-.07.04-.06.03-.06.04-.06.04-.05.05-.06.04-.04.05-.05.04-.04.05-.04.05-.03.05-.03.05-.02.06-.02.05-.02.05-.01.06-.01.05v.06h-.05v-.06l.01-.06.01-.06.02-.06.02-.05.03-.06.03-.05.03-.06.04-.05.04-.05.05-.05.05-.05.05-.04.06-.05.06-.04.06-.04.07-.04.07-.03.07-.04.08-.03.07-.03.08-.03.09-.02.08-.03.09-.02.09-.01.09-.02.09-.01.09-.01.1-.01h.09l.1-.01z" class="fil1"/><path d="M7.5 2.73c.9 0 1.63.42 1.63.94s-.73.94-1.63.94c-.9 0-1.63-.42-1.63-.94s.73-.94 1.63-.94z" class="fil2"/><path id="1" d="M9.16 3.67h-.05v-.05l-.01-.04-.01-.05-.01-.04-.02-.04-.02-.05-.03-.04-.03-.04-.03-.04-.03-.04-.04-.04-.04-.04-.05-.03-.04-.04-.05-.03-.06-.03L8.59 3l-.06-.03-.06-.03-.07-.03-.06-.02-.07-.02-.07-.02-.07-.02-.07-.02-.08-.01-.07-.02-.08-.01-.08-.01H7.58l-.08-.01V2.7l.09.01h.08l.08.01h.08l.08.01.08.02.08.01.07.02.07.02.08.02.07.02.06.03.07.02.06.03.06.03.06.03.05.04.05.03.05.04.05.04.04.03.04.04.04.05.03.04.03.04.03.05.02.05.02.04.02.05.01.05v.05l.01.05zm-1.66.97v-.05h.08l.09-.01h.08l.08-.01.08-.01.07-.01.08-.02.07-.02.07-.01.07-.03.07-.02.06-.02.07-.03.06-.03.06-.02.05-.04.06-.03.05-.03.04-.04.05-.03.04-.04.04-.04.03-.04.03-.04.03-.04.03-.04.02-.04.02-.05.01-.04.01-.05.01-.04v-.05h.05l-.01.05v.05l-.01.05-.02.05-.02.05-.02.04-.03.05-.03.04-.03.04-.04.05-.04.04-.04.04-.05.03-.05.04-.05.03-.05.04-.06.03-.06.03-.06.03-.07.02-.06.03-.07.02-.08.02-.07.02-.07.02-.08.01-.08.02-.08.01-.08.01h-.08l-.08.01H7.5zm-1.65-.97h.05v.09l.01.05.02.04.01.05.03.04.02.04.03.04.03.04.04.04.03.04.05.04.04.03.05.04.05.03.05.03.06.04.05.02.07.03.06.03.06.02.07.02.07.03.07.01.08.02.07.02.08.01.08.01.08.01h.08l.08.01h.08v.05h-.08l-.09-.01h-.08l-.08-.01-.08-.01-.08-.02-.07-.01-.08-.02-.07-.02-.07-.02-.07-.02-.07-.03-.06-.02-.07-.03-.06-.03-.05-.03-.06-.04-.05-.03-.05-.04-.05-.03-.04-.04-.04-.04-.04-.05-.03-.04-.03-.04-.03-.05-.02-.04-.02-.05-.01-.05-.02-.05v-.1zM7.5 2.7v.05l-.08.01h-.16l-.08.01-.08.01-.08.02-.07.01-.08.02-.07.02-.07.02-.07.02-.06.02-.06.03-.07.03-.05.03-.06.03-.05.03-.05.03-.05.04-.04.03-.05.04-.03.04-.04.04-.03.04-.03.04-.02.04-.03.05-.01.04-.02.04-.01.05v.09h-.05v-.1l.02-.05.01-.05.02-.04.02-.05.03-.05.03-.04.03-.04.04-.05.04-.04.04-.03.05-.04.05-.04.05-.03.06-.04.05-.03.06-.03.07-.03.06-.02.07-.03.07-.02.07-.02.07-.02.08-.02.07-.01.08-.02.08-.01h.08l.08-.01h.09l.08-.01z" class="fil1"/><g><path d="M11.21 3.18c.9 0 1.63.42 1.63.94s-.73.94-1.63.94c-.9 0-1.63-.42-1.63-.94s.73-.94 1.63-.94z" class="fil4"/><path id="1" d="M12.87 4.12h-.05v-.04l-.01-.05-.01-.05-.01-.04-.02-.04-.02-.05-.03-.04-.02-.04-.04-.04-.03-.04-.04-.04-.04-.04-.04-.03-.05-.04-.05-.03-.06-.03-.05-.03-.06-.03-.06-.03-.06-.03-.07-.02-.07-.02-.07-.02-.07-.02-.07-.02-.08-.01-.07-.02-.08-.01h-.08l-.08-.01h-.08l-.09-.01v-.04H11.38l.08.01h.09l.07.02.08.01.08.01.07.02.08.02.07.02.07.02.06.03.07.02.06.03.06.03.06.03.05.04.06.03.05.04.04.04.05.04.04.04.03.04.04.04.03.04.02.05.03.05.01.04.02.05.01.05.01.05v.05zm-1.66.97v-.05h.09l.08-.01h.08l.08-.01.08-.01.07-.01.08-.02.07-.02.07-.01.07-.02.07-.03.07-.02.06-.03.06-.02.06-.03.05-.03.06-.04.05-.03.05-.04.04-.03.04-.04.04-.04.03-.04.04-.04.02-.04.03-.04.02-.04.02-.05.01-.04.01-.05.01-.04v-.05h.05v.05l-.01.05-.01.05-.02.05-.01.05-.03.04-.02.05-.03.04-.04.05-.03.04-.04.04-.05.04-.04.03-.05.04-.06.04-.05.03-.06.03-.06.03-.06.03-.07.02-.06.03-.07.02-.07.02-.08.02-.07.02-.08.01-.08.02-.07.01-.09.01h-.08l-.08.01h-.09zm-1.65-.97h.05v.05l.01.04.01.05.01.04.02.05.02.04.02.04.03.04.03.04.04.04.04.04.04.04.04.03.05.04.05.03.05.04.06.03.06.03.06.02.06.03.07.02.06.03.07.02.07.01.08.02.07.02.08.01.08.01.08.01h.08l.08.01h.08v.05h-.08l-.08-.01h-.09l-.08-.01-.08-.01-.08-.02-.07-.01-.08-.02-.07-.02-.07-.02-.07-.02-.07-.03-.06-.02-.06-.03-.06-.03-.06-.03-.06-.03-.05-.04-.05-.04-.04-.03-.05-.04-.04-.04-.04-.04-.03-.05-.03-.04-.03-.05-.02-.04-.02-.05-.01-.05-.01-.05-.01-.05v-.05zm1.65-.96v.04l-.08.01h-.08l-.08.01h-.08l-.08.01-.08.02-.07.01-.08.02-.07.02-.07.02-.06.02-.07.02-.06.03-.06.03-.06.03-.06.03-.05.03-.05.03-.05.04-.04.03-.04.04-.04.04-.04.04-.03.04-.03.04-.02.04-.02.05-.02.04-.01.04-.01.05-.01.05v.04h-.05v-.05l.01-.05.01-.05.01-.05.02-.04.02-.05.03-.05.03-.04.03-.04.04-.04.04-.04.05-.04.04-.04.05-.04.05-.03.06-.04.06-.03.06-.03.06-.03.06-.02.07-.03.07-.02.07-.02.07-.02.08-.02.07-.01.08-.01.08-.02h.08l.09-.01h.16z" class="fil1"/></g><g><path d="M14.89 3.52c.9 0 1.63.42 1.63.94s-.73.94-1.63.94c-.9 0-1.63-.42-1.63-.94s.73-.94 1.63-.94z" class="fil3"/><path id="1" d="M16.54 4.46h-.05v-.1l-.01-.04-.02-.04-.01-.05-.03-.04-.02-.04-.03-.04-.03-.05-.04-.03-.03-.04-.04-.04-.05-.04-.05-.03-.05-.03-.05-.04-.06-.03-.05-.03-.07-.02-.06-.03-.06-.02-.07-.03-.07-.02-.07-.02-.08-.01-.07-.02-.08-.01-.08-.01-.08-.01h-.08l-.08-.01h-.08v-.05h.08l.09.01h.08l.08.01.08.01.08.01.07.02.08.02.07.01.07.03.07.02.07.02.06.03.07.03.06.03.05.03.06.03.05.04.05.03.05.04.04.04.04.04.04.04.03.05.03.04.03.05.02.04.02.05.01.05.02.05v.1zm-1.65.96v-.05h.16l.08-.01.08-.01.08-.01.08-.01.07-.01.08-.02.07-.02.07-.02.07-.02.06-.03.06-.02.07-.03.05-.03.06-.03.05-.03.05-.03.05-.04.04-.04.05-.03.03-.04.04-.04.03-.04.03-.04.02-.04.03-.05.01-.04.02-.05.01-.04v-.09h.05v.1l-.02.05-.01.04-.02.05-.02.05-.03.04-.03.05-.03.04-.04.04-.04.04-.04.04-.05.04-.05.04-.05.03-.06.03-.05.04-.06.03-.07.02-.06.03-.07.03-.07.02-.07.02-.07.02-.08.02-.07.01-.08.01-.08.01-.08.01-.08.01H14.89zm-1.66-.96h.05v.04l.01.05.01.04.01.05.02.04.02.05.03.04.03.04.03.04.03.04.04.04.04.03.05.04.04.04.05.03.06.03.05.03.06.03.06.03.07.02.06.03.07.02.07.02.07.02.07.02.08.01.07.01.08.01.08.01.08.01H14.89v.05H14.72l-.08-.01-.08-.01-.08-.01-.08-.01-.08-.01-.07-.02-.07-.02-.08-.02-.07-.02-.06-.03-.07-.03-.06-.02-.06-.03-.06-.04-.05-.03-.05-.03-.05-.04-.05-.04-.04-.04-.04-.04-.04-.04-.03-.04-.03-.05-.03-.04-.02-.05-.02-.05-.02-.04-.01-.05v-.05l-.01-.05zm1.66-.97v.05h-.08l-.09.01h-.08l-.08.01-.08.01-.07.01-.08.02-.07.01-.07.02-.07.02-.07.03-.06.02-.07.03-.06.02-.06.03-.05.03-.06.04-.05.03-.04.03-.05.04-.04.04-.04.04-.03.03-.03.05-.03.04-.03.04-.02.04-.02.05-.01.04-.01.04-.01.05v.05h-.05l.01-.05v-.05l.01-.05.02-.05.02-.05.02-.04.03-.05.03-.04.03-.05.04-.04.04-.04.04-.04.05-.04.05-.03.05-.04.05-.03.06-.03.06-.03.06-.03.07-.03.06-.02.07-.02.08-.03.07-.01.07-.02.08-.02.08-.01.08-.01.08-.01h.08l.08-.01h.09z" class="fil1"/></g><g><path d="M9.59.75c.74 0 1.34.34 1.34.77s-.6.77-1.34.77c-.74 0-1.34-.34-1.34-.77s.6-.77 1.34-.77z" class="fil3"/><path id="1" d="M10.95 1.52h-.05v-.07l-.01-.04-.01-.04-.02-.03-.02-.04-.02-.03-.02-.04-.02-.03-.03-.03-.03-.03-.04-.03-.03-.03-.04-.03-.04-.03-.05-.02-.04-.03-.05-.02-.05-.03-.05-.02-.06-.02-.05-.02-.06-.01-.06-.02-.06-.01-.06-.01L9.92.8 9.85.79 9.79.78h-.07L9.65.77h-.06V.72h.07l.07.01h.06l.07.01.07.01.06.01.06.01.06.01.06.02.06.02.06.02.05.02.06.02.05.02.05.03.05.02.04.03.04.03.05.03.03.03.04.03.03.04.03.03.03.04.03.03.02.04.02.04.01.04.01.04.01.04.01.04v.04zm-1.36.8v-.05h.13l.07-.01.06-.01h.07l.06-.01.06-.02.06-.01.06-.02.06-.01.05-.02.06-.02.05-.02.05-.02.05-.03.04-.02.05-.03.04-.03.04-.03.03-.03.04-.03.03-.03.03-.03.02-.03.02-.04.02-.03.02-.04.02-.03.01-.04.01-.03v-.08h.05v.04l-.01.04-.01.05-.01.04-.01.03-.02.04-.02.04-.03.04-.03.03-.03.04-.03.03-.04.03-.03.03-.05.03-.04.03-.04.03-.05.03-.05.02-.05.02-.06.03-.05.02-.06.01-.06.02-.06.02-.06.01-.06.01-.06.01-.07.01-.07.01-.06.01h-.14zm-1.37-.8h.05v.04l.01.04.01.03.01.04.01.03.02.04.02.03.02.04.03.03.03.03.03.03.03.03.04.03.04.03.04.03.04.03.05.02.04.03.05.02.06.02.05.02.06.02.05.01.06.02.06.01.06.02.07.01h.06l.06.01.07.01h.14v.05h-.14l-.07-.01-.07-.01-.06-.01-.07-.01-.06-.01-.06-.01L9 2.24l-.06-.02-.06-.01-.05-.02-.05-.03-.06-.02-.05-.02-.04-.03-.05-.03-.04-.03L8.5 2l-.04-.03-.04-.03-.03-.03-.03-.04-.03-.03-.02-.04-.02-.04-.02-.04-.02-.03-.01-.04-.01-.05-.01-.04v-.04zm1.37-.8v.05h-.07l-.07.01h-.07l-.06.01-.06.01-.07.01-.06.01-.06.01-.06.02-.05.01-.06.02-.05.02-.06.02-.05.03-.04.02-.05.03-.04.02-.04.03-.04.03-.04.03-.03.03-.03.03-.03.03-.03.03-.02.04-.02.03-.02.04-.01.03-.01.04-.01.04-.01.03v.04h-.05v-.04l.01-.04.01-.04.01-.04.02-.04.02-.04.02-.04.02-.03.03-.04.03-.03.03-.04.04-.03.04-.03.04-.03.04-.03.05-.03.04-.02.05-.03.06-.02.05-.02.05-.02.06-.02L9 .8l.06-.02.06-.01.06-.01.07-.01.06-.01.07-.01h.07l.07-.01h.07z" class="fil1"/></g><g><path d="M12.64 1.12c.74 0 1.34.34 1.34.77s-.6.77-1.34.77c-.74 0-1.34-.34-1.34-.77s.6-.77 1.34-.77z" class="fil4"/><path id="1" d="M14 1.89h-.05v-.07l-.01-.04-.01-.04-.02-.03-.02-.04-.02-.03-.02-.04-.02-.03-.03-.03-.03-.03-.04-.03-.03-.03-.04-.03-.04-.03-.05-.02-.04-.03-.05-.02-.05-.03-.05-.02-.06-.02-.05-.02-.06-.01-.06-.02-.06-.01-.06-.01-.06-.01-.07-.01-.06-.01h-.07l-.06-.01h-.07v-.05h.07l.07.01h.06l.07.01.07.01.06.01.06.01.06.01.06.02.06.02.06.02.05.02.06.02.05.02.05.03.05.02.04.03.04.03.05.03.03.03.04.03.03.04.03.03.03.04.03.03.02.04.02.04.01.04.02.04v.04l.01.04v.04zm-1.36.8v-.05h.13l.07-.01.06-.01h.07l.06-.01.06-.02.06-.01.06-.02.06-.01.05-.02.06-.02.05-.02.05-.02.05-.03.04-.02.05-.03.04-.03.04-.03.03-.02.04-.04.03-.03.03-.03.02-.03.02-.04.02-.03.02-.04.02-.03.01-.04.01-.03v-.08H14v.04l-.01.04v.05l-.02.04-.01.03-.02.04-.02.04-.03.04-.03.03-.03.04-.03.03-.04.03-.03.03-.05.03-.04.03-.04.03-.05.03-.05.02-.05.02-.06.03-.05.02-.06.02-.06.01-.06.02-.06.01-.06.01-.06.01-.07.01-.07.01-.06.01h-.14zm-1.37-.8h.05v.04l.01.04.01.03.01.04.01.03.02.04.02.03.02.04.03.03.03.03.03.03.03.04.04.02.04.03.04.03.04.03.05.02.05.03.04.02.06.02.05.02.06.02.05.01.06.02.06.01.06.02.07.01h.06l.06.01.07.01h.14v.05h-.14l-.07-.01-.07-.01-.06-.01-.07-.01-.06-.01-.06-.01-.06-.02-.06-.01-.06-.02-.05-.02-.05-.03-.06-.02-.05-.02-.04-.03-.05-.03-.04-.03-.04-.03-.04-.03-.04-.03-.03-.03-.03-.04-.03-.03-.02-.04-.02-.04-.02-.04-.02-.03-.01-.04-.01-.05-.01-.04v-.04zm1.37-.8v.05h-.07l-.07.01h-.07l-.06.01-.06.01-.07.01-.06.01-.06.01-.06.02-.05.01-.06.02-.05.02-.06.02-.04.03-.05.02-.05.03-.04.02-.04.03-.04.03-.04.03-.03.03-.03.03-.03.03-.03.03-.02.04-.02.03-.02.04-.01.03-.01.04-.01.04-.01.03v.04h-.05v-.04l.01-.04.01-.04.01-.04.02-.04.02-.04.02-.04.02-.03.03-.04.03-.03.03-.04.04-.03.04-.03.04-.03.04-.03.05-.03.04-.02.05-.03.06-.02.05-.02.05-.02.06-.02.06-.02.06-.02.06-.01.06-.01.07-.01.06-.01.07-.01h.07l.07-.01h.07z" class="fil1"/></g><g><path d="M15.67 1.37c.74 0 1.34.35 1.34.78 0 .42-.6.77-1.34.77-.74 0-1.34-.35-1.34-.77 0-.43.6-.78 1.34-.78z" class="fil3"/><path id="1" d="M17.03 2.15h-.05v-.08l-.01-.03-.01-.04-.02-.04-.01-.03-.02-.04-.03-.03-.02-.03-.03-.03-.03-.04-.04-.03-.03-.03-.04-.03-.04-.02-.05-.03-.04-.02-.05-.03-.05-.02-.05-.02-.05-.02-.06-.02-.06-.02-.06-.01-.06-.02-.06-.01-.06-.01-.06-.01h-.07l-.07-.01h-.13v-.05h.14l.07.01h.06l.07.01.06.01.06.02.07.01.06.02.05.01.06.02.06.02.05.02.05.03.05.02.05.03.04.03.05.02.04.03.04.04.03.03.03.03.04.04.02.03.03.04.02.04.02.03.01.04.02.04.01.04v.09zm-1.36.79V2.9l.07-.01h.13l.07-.01.06-.01.06-.01.06-.01.06-.01.06-.02.06-.02.06-.02.05-.01.05-.03.05-.02.05-.02.04-.03.05-.02.04-.03.04-.03.03-.03.04-.03.03-.03.03-.03.02-.04.03-.03.02-.03.01-.04.02-.04.01-.03.01-.04v-.07h.05v.08l-.01.04-.02.04-.01.04-.02.04-.02.04-.03.03-.02.04-.04.03-.03.04-.03.03-.04.03-.04.03-.05.03-.04.02-.05.03-.05.03-.05.02-.05.02-.06.02-.06.02-.05.02-.06.01-.07.02-.06.01-.06.01-.07.01-.06.01H15.67zm-1.37-.79h.05l.01.03v.04l.01.04.01.03.01.04.02.04.02.03.02.03.03.04.03.03.03.03.03.03.04.03.04.03.04.03.04.02.05.03.05.02.05.02.05.03.05.01.06.02.05.02.06.02.06.01.06.01.07.01.06.01.07.01h.13l.07.01v.04H15.46l-.06-.01-.07-.01-.06-.01-.07-.01-.06-.02-.06-.01-.06-.02-.05-.02-.06-.02-.05-.02-.05-.02-.05-.03-.05-.03-.05-.02-.04-.03-.04-.03-.04-.03-.03-.03-.04-.04-.03-.03-.03-.04-.02-.03-.02-.04-.02-.04-.02-.04-.01-.04-.01-.04v-.04l-.01-.04zm1.37-.8v.05h-.14l-.06.01h-.07l-.06.01-.07.01-.06.01-.06.02-.06.01-.05.02-.06.02-.05.02-.05.02-.05.02-.05.03-.05.02-.04.03-.04.02-.04.03-.04.03-.03.03-.03.04-.03.03-.03.03-.02.03-.02.04-.02.03-.01.04-.01.04-.01.03v.04l-.01.04h-.05l.01-.05v-.04l.01-.04.01-.04.02-.04.02-.03.02-.04.02-.04.03-.03.03-.04.04-.03.03-.03.04-.04.04-.03.04-.02.05-.03.05-.03.05-.02.05-.03.05-.02.06-.02.05-.02.06-.01.06-.02.06-.01.07-.02.06-.01.07-.01h.06l.07-.01h.14z" class="fil1"/></g></g></svg>