<svg xmlns="http://www.w3.org/2000/svg" width="132" height="68" fill-rule="evenodd" clip-rule="evenodd" image-rendering="optimizeQuality" shape-rendering="geometricPrecision" text-rendering="geometricPrecision" viewBox="0 0 20.52 10.5"><defs><style>.fil2{fill:#f08bb2}.fil4{fill:#d8ece4}.fil0{fill:#99cfba}.fil3{fill:#2b2a29;fill-rule:nonzero}</style></defs><g id="Слой_x0020_1"><path d="M12.02 8.67c1.13-2.52 2.33-5.22 3.46-7.74 2.69-.32 1.58 1.55 5.04 1.95-1.09 2.53-2.17 5.07-3.25 7.61-3.38.15-2.79-1.83-5.25-1.82z" class="fil0"/><path id="1" fill="none" fill-rule="nonzero" stroke="#2b2a29" stroke-miterlimit="22.9256" stroke-width=".14" d="M12.02 8.67c1.13-2.52 2.33-5.22 3.46-7.74 2.69-.32 1.58 1.55 5.04 1.95-1.09 2.53-2.17 5.07-3.25 7.61-3.38.15-2.79-1.83-5.25-1.82z"/><path d="M16.38 5.06c-.04 0 .05.01-.12.01-.17 0-.5.36-.66-.04-.09-.28.24-.51.41-.57.3-.54-.06-.68-.32-.95-.26-.23-.33-.34-.33-.58 0-.27.2-.49.45-.49.26 0 .46.22.46.49 0 .14-.05.26-.13.35-.19.18-.03.39.2.61.75.28.76-.25 1.18-.32.58-.1.44.38.73.58.22.01.39.11.39.22 0 .12-.2.21-.44.21-.07 0-.14 0-.2-.02-.07.04-.15.06-.23.06-.13 0-.25-.05-.33-.13-.16.05-.32.11-.48.16-.53.3.22.35.44.35.33 0 .6.11.6.25s-.27.25-.6.25c-.05 0-.1 0-.15-.01-.4.34.18.47.38.78.04.09-.04.37-.04.51 0 .25-.09.46-.21.46-.11 0-.21-.21-.21-.46 0-.02.01-.04.01-.05-.07.1-.17.17-.28.17-.21 0-.39-.26-.39-.59 0-.21.08-.4.2-.51-.34-.21-.16-.26-.02-.32-.01-.43-.16-.41-.31-.42z" class="fil2"/><path d="M16.35 5.08c-.02-.02-.04-.04.03-.05l.04.01c.14.01.29.02.29.44v.01l-.05.03c-.05.02-.1.04-.11.07-.03.03.01.09.17.19l.03.02-.02.02c-.06.05-.11.12-.14.21-.03.08-.05.18-.05.28 0 .16.04.3.11.41.07.09.15.16.25.16.05 0 .09-.02.14-.05.04-.02.08-.07.11-.12l.06-.08-.01.12v.03c0 .12.02.23.06.31.03.08.08.12.12.12.05 0 .09-.04.13-.12.03-.08.06-.19.06-.31 0-.05.01-.13.02-.2.02-.12.04-.25.01-.29-.06-.1-.16-.18-.26-.26-.07-.05-.14-.11-.19-.17-.09-.11-.11-.23.08-.39H17.32c.03 0 .05.01.08.01.16 0 .3-.03.41-.08.1-.04.16-.09.16-.15s-.06-.11-.16-.15c-.11-.04-.25-.07-.41-.07-.11 0-.35-.02-.51-.07-.05-.01-.09-.04-.11-.06-.03-.04-.04-.08-.01-.12.02-.04.08-.09.18-.15.08-.05.38-.13.49-.17l.02.01c.04.04.09.07.14.09.05.02.11.03.17.03.04 0 .08 0 .11-.01.04-.01.08-.03.11-.04l.01-.01h.01c.03.01.06.02.09.02.04.01.07.01.1.01.12 0 .23-.03.3-.06.07-.04.11-.08.11-.13s-.03-.09-.09-.12c-.07-.04-.16-.07-.27-.07h-.01v-.01c-.11-.07-.16-.18-.21-.29-.08-.18-.15-.34-.51-.28-.14.02-.24.1-.34.19-.17.15-.36.31-.85.13h-.01v-.01c-.12-.11-.22-.22-.26-.33-.05-.11-.05-.22.06-.32.04-.04.07-.09.09-.15.03-.05.04-.11.04-.18 0-.12-.05-.24-.13-.32-.08-.09-.19-.14-.31-.14-.11 0-.22.05-.3.14-.08.08-.13.2-.13.32s.02.2.07.28c.05.08.13.16.25.28.05.05.1.09.15.13.23.21.44.39.18.85v.01l-.01.01c-.1.03-.25.12-.34.24-.06.08-.09.18-.06.29.08.2.21.19.34.14.04-.02.07-.04.11-.05.07-.04.14-.07.19-.07.05 0 .12.07.09.04zm.04.01h-.13c-.04 0-.1.03-.17.07-.03.01-.07.03-.11.05-.15.06-.31.07-.41-.17v-.01c-.04-.12 0-.24.07-.33.1-.13.25-.22.35-.26.23-.42.04-.59-.17-.78-.05-.04-.1-.08-.15-.13-.13-.12-.21-.21-.27-.29-.05-.09-.07-.18-.07-.31 0-.14.05-.27.14-.36.09-.09.21-.15.34-.15.14 0 .26.06.35.15.09.09.14.22.14.36 0 .07-.01.14-.04.2-.02.06-.06.12-.1.17-.09.08-.1.17-.06.26.05.1.14.2.25.31.46.17.63.02.8-.12.1-.09.2-.18.37-.2.39-.07.47.11.56.31.04.1.09.2.18.27.11 0 .21.03.28.07.08.04.13.1.13.17s-.06.13-.15.17c-.08.05-.19.07-.32.07-.03 0-.07 0-.1-.01-.03 0-.07-.01-.09-.01-.04.01-.08.03-.11.04-.04.01-.09.01-.13.01-.07 0-.13-.01-.19-.03-.05-.02-.1-.05-.15-.09l-.46.16c-.09.05-.14.09-.16.12-.01.03-.01.05 0 .06.02.02.06.04.1.05.15.05.38.07.49.07.16 0 .32.02.43.07.12.05.19.12.19.2 0 .08-.07.15-.19.2-.11.05-.27.08-.43.08h-.08c-.02-.01-.04-.01-.06-.01-.15.13-.14.22-.07.31.05.05.11.11.18.16.1.08.21.16.28.27.03.06.01.19-.01.32-.01.08-.02.15-.02.2 0 .13-.02.25-.06.34-.05.09-.11.15-.18.15-.07 0-.13-.06-.17-.15-.03-.08-.06-.19-.06-.31-.03.02-.06.05-.09.07-.05.03-.1.05-.16.05-.11 0-.22-.07-.29-.19-.08-.11-.12-.26-.12-.43 0-.11.02-.21.05-.3.03-.08.08-.15.13-.2-.18-.11-.21-.19-.17-.25.03-.04.08-.07.14-.09l.02-.01c0-.36-.13-.36-.25-.37h-.02z" class="fil3"/><path d="M16.79 2.64c.13-.03.26.06.29.19.02.13-.1.43-.23.45-.13.03-.22-.23-.25-.36-.02-.13.06-.26.19-.28z" class="fil4"/><path d="M16.8 2.66c-.06.02-.11.05-.14.1-.03.04-.04.1-.03.16.02.07.05.19.11.27.03.04.07.07.11.07.05-.02.11-.09.15-.18.04-.09.06-.19.05-.25-.01-.06-.04-.1-.09-.13-.05-.03-.1-.05-.16-.04zm-.01-.05c.07-.01.14 0 .2.04s.1.1.11.17c.02.08-.01.19-.05.28-.05.11-.12.19-.19.21-.07.01-.12-.03-.17-.09-.06-.09-.1-.21-.11-.29v-.01c-.02-.07 0-.14.04-.19.04-.06.1-.1.17-.12z" class="fil3"/><path d="M12.99 2.16c.51.69.88.62 1.11-.23L13.27.36l-.15.03-.13 1.77z" class="fil4"/><path d="M13.02 2.15c.02.18.05.32.16.39.09.06.39.07.46.06.08-.02.36-.08.42-.17.08-.11.07-.29.01-.49L13.25.39l-.1.02-.13 1.74zm.34.43c-.12-.08-.25-.21-.39-.41v-.01c.04-.59.08-1.19.13-1.79l.18-.04c.28.53.56 1.07.85 1.6l-.01.01c-.06.24-.14.42-.23.54-.07.09-.15.15-.24.17-.09.02-.18-.01-.29-.07z" class="fil3"/><path fill="#6fa691" d="M13.35 2.08h.01v.02c.02.07.11.1.21.08.09-.02.16-.07.17-.12.02.05.11.08.2.06.1-.02.17-.08.17-.15l1.36 6.76-1.1.23-1.36-6.74c.03.05.11.07.19.05.1-.02.18-.09.16-.16 0-.01 0-.02-.01-.03zm.38-.07zm.36-.08h.01v.03c0-.01 0-.02-.01-.03z"/><path d="M13.39 2.1c.01.02.03.04.05.05.04.01.08.02.13.01.04-.01.07-.03.1-.05.02-.02.04-.04.04-.06v-.02c0-.06.03-.04.04 0l.01.02c.01.02.03.03.06.04.03.01.07.02.12.01.04-.01.08-.03.1-.05.07-.07.01-.15.08-.13l.11.54 1.27 6.29c-.38.08-.77.16-1.15.24-.47-2.29-.92-4.54-1.38-6.83l.06.05c.01.01.03.03.06.03.03.01.07.01.11.01.04-.01.08-.03.11-.06.02-.02.03-.05.03-.07-.02-.06.04-.07.05-.02zm.04.1c-.02-.01-.04-.02-.05-.03-.01.02-.02.04-.04.06-.03.03-.08.06-.13.07-.05.01-.09 0-.13 0-.01-.01-.02-.01-.03-.02l1.34 6.64 1.05-.21-1.34-6.64c-.01 0-.01.01-.02.02-.03.03-.08.05-.13.06-.05.01-.1.01-.15-.01-.02 0-.04-.02-.06-.03-.01.02-.02.03-.04.04-.03.03-.07.05-.12.06-.06.01-.11 0-.15-.01z" class="fil3"/><path d="M13.36 2.08v.02c.02.07.11.1.21.08.09-.02.16-.07.17-.12l1.36 6.75-.37.07-1.37-6.8z" class="fil0"/><path d="M13.35 2.06s.03-.01.04.04c.01.02.03.04.05.05.04.01.08.02.13.01.04-.01.07-.03.1-.05.02-.02.04-.04.04-.06-.01-.08.04-.07.04-.05.44 2.25.92 4.55 1.38 6.83l-.42.08c-.46-2.25-.91-4.5-1.37-6.75-.01-.05-.03-.1.01-.1zm.08.14c-.01-.01-.02-.01-.03-.01l1.35 6.66.32-.06-1.35-6.66c0 .01-.01.02-.02.02-.03.03-.07.05-.12.06-.06.01-.11 0-.15-.01z" class="fil3"/><path d="M13.12.03c.06-.01.12.02.13.08l.1.49c.01.06-.03.11-.09.12-.05.01-.11-.02-.12-.08l-.1-.49c-.01-.05.03-.11.08-.12z" class="fil2"/><path d="M13.13.05c-.02.01-.04.02-.05.04-.01.01-.02.04-.01.06l.1.49c0 .02.01.03.03.05.02.01.04.01.06.01.02-.01.04-.02.05-.04.01-.01.01-.03.01-.06l-.1-.48c0-.03-.02-.04-.03-.05-.02-.02-.04-.02-.06-.02zM13.12 0c.04 0 .07 0 .1.02s.05.05.05.09l.1.48c.01.04 0 .07-.02.1-.01.03-.04.05-.07.06h-.01c-.04.01-.07 0-.1-.02s-.05-.05-.05-.08l-.1-.49c-.01-.04 0-.07.02-.1.01-.03.04-.05.08-.06z" class="fil3"/><path d="M13.5 10.18c.14.2.25.2.3-.08-.33-1.62-.72-3.28-1.22-5.02-.3.07-.6.14-.91.21.48 1.63 1.12 3.26 1.83 4.89z" class="fil2"/><path d="M13.52 10.17c.07.09.12.13.16.12.04 0 .07-.07.1-.19-.17-.81-.35-1.63-.55-2.46-.2-.83-.42-1.67-.67-2.53l-.85.2c.23.8.51 1.61.81 2.41.31.82.65 1.63 1 2.45zm.17.18c-.06.01-.14-.04-.21-.16h-.01c-.35-.82-.69-1.63-.99-2.45-.31-.81-.59-1.63-.83-2.45l-.01-.02.96-.22.01.03c.25.86.47 1.71.67 2.55.2.83.38 1.65.55 2.46v.01c-.03.16-.08.23-.14.25z" class="fil3"/><path d="M11.7 5.45c.26.16.95-.13.88-.37l-.8-1.76c-.13.04-.26.07-.38.11l.3 2.02z" class="fil4"/><path d="M11.72 5.43c.1.06.26.05.42 0 .09-.02.17-.06.24-.1.07-.04.12-.09.15-.14.03-.03.03-.07.03-.1l-.8-1.74-.33.1.29 1.98zm.43.06c-.17.05-.35.05-.47-.02l-.01-.01c-.1-.68-.2-1.37-.3-2.05l.42-.12c.21.46.69 1.36.82 1.79.01.04 0 .09-.03.14-.04.06-.1.11-.17.16-.08.04-.16.08-.26.11z" class="fil3"/><path fill="#2b2a29" d="M10.39.84c1.06.91-.65 2.07 1.3 2.79.9-.82-.26-2.61-1.3-2.79z"/><path d="M10.48.89c.39.38.34.8.28 1.22-.07.55-.15 1.09.92 1.49.17-.15.26-.34.29-.54.05-.25 0-.54-.11-.81-.11-.28-.28-.55-.49-.77-.26-.29-.58-.51-.89-.59zm.23 1.21c.05-.43.11-.86-.33-1.24L10.3.8l.1.02c.35.06.71.3 1.01.62.21.23.39.51.5.79.11.28.16.57.11.84-.03.22-.13.42-.31.58l-.01.01h-.02c-1.13-.42-1.05-.99-.97-1.56z" class="fil3"/><path fill="#c5e3d7" d="M8.93 3.16c-.39-.36-.79-.28-1.1-.07-.45.31-.86.89-1.43.46-.69-.52.05-1.33-.61-1.9-.8-.69-2.32.02-3.09.51C.46 3.58-.58 6.02.39 7.6c.96 1.58 3.56 1.7 5.8.28 2.24-1.43 3.79-3.46 2.74-4.72zm-3.88-.48c-.2-.32-.71-.35-1.15-.07-.43.28-.63.78-.43 1.1.2.32.71.35 1.14.07.44-.29.63-.78.44-1.1z"/><path id="1" d="M7.82 3.07l.03-.02.03-.02.03-.02.03-.02.03-.01.03-.02.04-.01.03-.01.03-.02.04-.01h.03l.04-.01.03-.01h.04l.03-.01h.08l.03.01h.04l.04.01.03.01.04.01.04.01.04.01.04.02.03.02.04.02.04.03.04.02.04.03.03.03.04.04-.03.03-.04-.03-.04-.03-.03-.03-.04-.02-.03-.02-.04-.02-.04-.02-.03-.02-.04-.01-.03-.01-.04-.01-.03-.01-.04-.01h-.2l-.03.01-.04.01h-.03l-.03.01-.03.02-.03.01-.04.01-.03.02-.03.01-.03.02-.03.01-.02.02-.03.02-.03-.04zm-1.4.46l.05.03.05.03.05.03.05.02.05.01.04.02H6.89l.05-.01.04-.01.04-.02.04-.01.05-.03.04-.02.04-.02.04-.03.04-.03.05-.03.04-.03.04-.03.04-.03.04-.04.04-.03.04-.04.05-.03.04-.04.04-.03.04-.03.04-.03.05-.03.03.04-.05.03-.04.03-.04.03-.04.04-.04.03-.04.03-.04.04-.05.03-.04.04-.04.03-.04.03-.04.03-.05.04-.04.02-.04.03-.05.03-.04.02-.04.02-.05.02-.05.02-.04.01-.05.01-.05.01H6.8l-.05-.01H6.7l-.05-.01-.05-.02-.05-.02-.06-.03-.05-.03-.05-.04.03-.04zm-.62-1.9l.06.06.05.05.05.06.04.06.03.06.02.06.02.07.02.06.01.06.01.07v.06l.01.07v.06l-.01.06v.19l-.01.07v.12l.01.06v.06l.01.06.01.06.02.06.02.05.02.05.04.06.03.05.05.05.05.05.06.05-.03.04-.07-.05-.05-.05-.05-.06-.04-.05-.03-.06-.03-.06-.02-.06-.02-.06-.01-.06L6.06 3l-.01-.06v-.26l.01-.06v-.38l-.01-.06-.01-.06-.02-.06L6 2l-.02-.06-.03-.05-.03-.06-.05-.05-.04-.06-.06-.05.03-.04zm-3.11.5l.07-.04.08-.05.09-.05.08-.05.09-.05.09-.04.1-.05.1-.05.1-.05.1-.04.1-.04.11-.04.11-.04.1-.04.11-.03.11-.03.11-.03.11-.02.11-.02.1-.02.11-.01H5.08l.1.02.1.01.09.03.1.03.09.04.08.04.09.06.07.06-.03.04-.08-.06-.07-.05-.09-.04-.08-.04-.09-.03-.09-.02-.1-.02-.09-.01-.1-.01h-.1l-.11.01-.1.01-.11.01-.1.02-.11.02-.11.03-.1.03-.11.03-.11.04-.1.03-.11.05-.1.04-.1.04-.1.05-.1.04-.09.05-.09.05-.09.05-.09.05-.08.04-.08.05-.07.05-.03-.05zM.36 7.61l-.08-.15L.2 7.3l-.06-.16-.05-.16-.04-.17-.03-.17-.01-.18L0 6.28V6.1l.02-.18.02-.18.04-.19.04-.18.06-.19.06-.19.08-.18.08-.19.1-.18.1-.18.11-.19.12-.18.13-.17.14-.18.14-.17.15-.17.17-.17.17-.16.17-.16.19-.15.19-.15.2-.14.21-.14.03.05-.21.13-.2.15-.19.14-.18.15-.18.16-.17.16-.16.16-.15.17-.14.17-.14.18-.13.17-.12.18-.11.18-.1.18-.09.19-.08.18-.08.18-.06.19-.05.18-.05.18-.03.19-.03.18-.01.18-.01.17.01.18.02.17.02.17.04.16.05.16.06.16.07.16.09.15-.05.02zm5.84.29l-.21.13-.21.12-.22.11-.22.11-.21.09-.22.08-.22.08-.21.06-.22.06-.21.05-.22.04-.21.03-.21.02-.2.01L3 8.9l-.2-.01-.19-.01-.19-.02-.19-.04-.18-.04-.18-.05-.17-.05-.17-.07-.16-.08-.15-.08-.15-.09-.14-.11-.13-.11-.12-.12-.12-.12-.1-.14-.1-.15.05-.02.09.14.1.13.12.13.12.11.12.11.14.1.14.09.15.09.16.07.16.07.17.05.18.05.18.04.18.03.19.03.2.01h.4l.2-.01.21-.02.21-.03.21-.04.21-.05.21-.06.22-.06.21-.08.22-.08.21-.09.22-.1.21-.12.21-.11.21-.13.03.04zm2.75-4.75h.01l.09.12.07.13.07.13.04.13.04.14.02.14V4.23l-.02.15-.03.15-.04.16-.06.15-.06.16-.08.15-.09.16-.09.16-.11.16-.11.16-.13.16-.13.16-.14.16-.15.15-.16.16-.16.16-.17.15-.18.15-.18.15-.19.15-.2.14-.2.15-.2.14-.21.13-.03-.04.21-.14.2-.14.2-.14.2-.14.18-.15.19-.15.17-.15.17-.15.16-.16.16-.15.15-.16.14-.16.13-.15.12-.16.12-.16.1-.16.1-.15.08-.16.08-.15.06-.16.06-.15.04-.15.03-.15.02-.14v-.28l-.02-.14-.04-.13-.04-.13-.06-.13L9 3.3l-.09-.12h.01l.03-.03zm0 0h.01-.01zm-5.06-.56l.04-.03.04-.02.05-.02.04-.03.04-.01.05-.02.04-.02.04-.01.04-.01.05-.01.04-.01h.04l.04-.01h.13l.04.01h.04l.03.01.04.01.04.01.03.01.04.01.03.02.03.02.03.02.03.02.03.02.02.03.03.03.02.03.02.03-.04.02-.02-.02-.02-.03-.02-.02-.03-.03-.02-.02-.03-.02-.03-.02-.02-.01-.04-.02-.03-.01-.03-.01-.03-.01-.04-.01-.03-.01H4.6l-.04-.01h-.07l-.04.01h-.08l-.04.01-.04.01-.04.01-.05.01-.04.02-.04.02-.04.01-.04.02-.04.02-.04.03-.04.02-.03-.04zm-.44 1.13l-.02-.03-.02-.03-.01-.04-.01-.03-.01-.04-.01-.03v-.19l.01-.04.01-.04.01-.04.01-.04.02-.04.01-.03.02-.04.02-.04.02-.04.02-.03.03-.04.03-.04.02-.03.03-.04.04-.03.03-.03.03-.03.04-.04.04-.03.04-.02.04-.03.03.04-.04.03-.04.03-.04.03-.03.03-.03.03-.04.03-.03.03-.02.03-.03.04-.03.03-.02.04-.02.03-.02.04-.02.03-.02.04-.02.03-.01.04-.01.04-.01.03-.01.04v.03l-.01.04v.1l.01.04v.03l.01.03.01.03.01.03.02.03.01.03-.04.03zm1.18.08l-.04.03-.05.02-.04.02-.04.02-.04.02-.05.02-.04.01-.04.02-.05.01-.04.01-.04.01h-.04L4.07 4h-.12l-.04-.01h-.04l-.04-.01-.03-.01-.04-.01-.03-.01-.04-.02-.03-.01-.03-.02-.03-.02-.03-.02-.03-.03-.03-.02-.02-.03-.02-.03-.02-.03.04-.03.02.03.02.03.02.02.03.03.02.02.03.02.02.01.03.02.03.02.03.01.04.01.03.01.04.01.03.01H4.11l.04-.01h.04l.04-.01.04-.01.04-.02.04-.01.05-.02.04-.01.04-.02.04-.03.04-.02.04-.02.03.04zm.44-1.13l.02.03.01.03.02.04.01.03.01.04v.03l.01.04v.11l-.01.04v.04l-.01.04-.01.04-.01.04-.02.03-.01.04-.02.04-.02.04-.02.03-.03.04-.02.04-.03.03-.03.04-.03.03-.03.04-.03.03-.04.03-.03.03-.04.03-.04.03-.04.03-.03-.04.04-.03.04-.03.03-.03.04-.03.03-.03.03-.03.03-.03.03-.03.03-.04.03-.03.02-.04.02-.03.02-.04.02-.03.02-.04.01-.04.02-.03.01-.04.01-.03.01-.04v-.04l.01-.03V2.91l-.01-.03v-.03l-.01-.03-.01-.04-.01-.03-.02-.03-.01-.03.04-.02z" class="fil3"/><path d="M7.98 4.35c-.2-.32-.68-.37-1.08-.11s-.57.73-.37 1.05c.2.33.68.38 1.08.11.4-.26.57-.73.37-1.05z" class="fil2"/><path id="1" d="M6.88 4.22l.04-.03.04-.02.04-.02.04-.02.04-.02.04-.01.04-.01.04-.02.04-.01h.04l.04-.01h.04l.04-.01h.08l.04.01h.04l.03.01.04.01.04.01.03.01.03.01.04.02.03.02.03.01.03.03.03.02.02.02.03.03.02.03.02.02.02.04-.04.02-.02-.03-.02-.02-.02-.03-.02-.02-.03-.02-.02-.02-.03-.02-.03-.02-.03-.01-.03-.02-.03-.01-.03-.01-.03-.01-.04-.01h-.03l-.04-.01H7.33l-.04.01-.04.01-.03.01-.04.01-.04.01-.04.01-.04.02-.03.02-.04.02-.04.02-.04.02-.03-.04zm-.37 1.09l-.02-.04-.02-.03-.01-.03-.01-.04-.01-.03-.01-.04-.01-.03v-.15l.01-.04v-.03l.01-.04.01-.04.02-.04.01-.03.02-.04.01-.04.02-.03.02-.04.02-.03.03-.04.02-.03.03-.03.03-.03.03-.04.03-.03.04-.02.03-.03.04-.03.03-.02.03.04-.03.02-.04.03-.03.03-.03.02-.03.03-.03.03-.03.03-.02.03-.03.04-.02.03-.02.03-.02.03-.02.04-.02.03-.01.04-.01.03-.02.04-.01.03v.04l-.01.03v.03l-.01.04v.07l.01.03v.03l.01.04.01.03.01.03.01.03.02.03.01.03-.04.03zm1.11.12l-.03.02-.04.02-.04.02-.04.02-.04.02-.04.01-.04.02-.04.01-.04.01-.04.01h-.04l-.04.01h-.12l-.04-.01h-.04l-.03-.01-.04-.01-.04-.01-.03-.01-.03-.01-.04-.02-.03-.01-.03-.02-.03-.02-.03-.03-.02-.02-.03-.03-.02-.02-.02-.03-.02-.03.04-.03.02.03.02.02.02.03.02.02.03.02.02.02.03.02.03.02.03.02.03.01.03.01.03.01.03.01.04.01.03.01h.07l.04.01.03-.01h.08l.04-.01h.03l.04-.01.04-.01.04-.02.04-.01.04-.02.03-.01.04-.02.04-.02.04-.03.02.05zM8 4.34l.02.03.02.03.01.03.01.04.01.03.01.04v.03l.01.04v.11l-.01.04-.01.04v.03l-.01.04-.02.04-.01.04-.02.03-.01.04-.02.03-.02.04-.03.03-.02.04-.03.03-.02.03-.03.04-.03.03-.03.03-.04.03-.03.02-.04.03-.04.03-.02-.05.03-.02.04-.03.03-.02.03-.03.03-.03.03-.03.03-.03.02-.03.03-.03.02-.04.02-.03.02-.03.02-.04.02-.03.01-.03.01-.04.01-.03.01-.04.01-.03.01-.04v-.03l.01-.04v-.03l-.01-.04v-.06l-.01-.03-.01-.04L8 4.45l-.01-.03-.02-.03-.01-.03.04-.02z" class="fil3"/><g><path fill="#c4d985" d="M6.33 6.07c-.2-.33-.68-.38-1.08-.12s-.57.74-.37 1.06c.19.32.68.37 1.08.11s.57-.73.37-1.05z"/><path id="1" d="M5.23 5.93l.04-.02.04-.02.04-.03.04-.01.04-.02.04-.02.04-.01.04-.01.04-.01.04-.01h.04l.04-.01h.16l.04.01.03.01h.04l.03.01.04.02.03.01.04.01.03.02.03.02.03.02.02.02.03.03.03.02.02.03.02.03.02.03-.04.03-.02-.03-.02-.03L6.25 6l-.03-.02-.02-.03-.03-.02-.02-.01-.03-.02-.03-.02-.03-.01-.03-.01L6 5.84h-.03l-.04-.01-.03-.01h-.04l-.03-.01h-.08l-.03.01h-.04l-.04.01H5.6l-.03.01-.04.01-.04.01-.04.02-.04.01-.04.02-.03.02-.04.02-.04.03-.03-.05zm-.37 1.09l-.02-.03-.02-.03-.01-.04-.01-.03-.01-.03-.01-.04-.01-.04v-.14l.01-.04v-.04l.01-.04.01-.03.01-.04.02-.04.01-.03.02-.04.02-.04.02-.03.02-.04.03-.03.02-.03.03-.04.03-.03.03-.03.03-.03.04-.03.03-.03.04-.02.03-.03.03.05-.03.02-.04.03-.03.02-.03.03-.03.03-.03.03-.03.03-.03.03-.02.03-.02.03-.02.04-.02.03-.02.03-.02.04-.01.03-.02.04-.01.03-.01.04v.03l-.01.04v.03l-.01.04v.06l.01.04v.03l.01.03.01.03.01.04.01.03.01.03.02.03-.04.02zm1.11.12l-.04.03-.03.02-.04.02-.04.02-.04.02-.04.01-.04.01-.04.01-.05.01-.04.01-.04.01H5.3l-.04-.01-.03-.01-.04-.01-.03-.01-.04-.01-.03-.02-.03-.02-.03-.02L5 7.18l-.03-.02-.02-.02-.03-.03-.02-.03-.02-.03-.02-.03L4.9 7l.02.02.02.03.02.03.02.02.03.02.02.02.03.02.03.02.03.01.03.02.03.01.03.01.03.01.04.01h.03l.03.01h.19l.04-.01.03-.01.04-.01.04-.01.04-.01.04-.01.03-.02.04-.02.04-.02.04-.02.03-.02.03.04zm.38-1.09l.02.03.02.04.01.03.01.03.01.04.01.04v.03l.01.04v.07l-.01.04v.04l-.01.03-.01.04-.01.04-.01.03-.01.04-.02.04-.01.03-.02.04-.02.04-.03.03-.02.03-.03.04-.02.03-.03.03-.03.03-.03.03-.04.03-.03.03-.04.03-.04.02-.03-.04.04-.03.03-.02.04-.03.03-.03.03-.02.03-.03.03-.03.02-.04.03-.03.02-.03.02-.03.02-.04.02-.03.01-.03.02-.04.01-.03.01-.04.01-.03.01-.04.01-.03V6.26l-.01-.03-.01-.03-.01-.03-.01-.03-.02-.03-.01-.03.04-.03z" class="fil3"/></g><g><path d="M3.95 6.79c-.2-.32-.68-.37-1.08-.11s-.57.73-.37 1.05c.19.32.68.37 1.08.11s.56-.73.37-1.05z" class="fil0"/><path id="1" d="M2.85 6.65l.04-.02.04-.02.04-.02.04-.02.04-.02.04-.01.04-.02.04-.01.04-.01h.04l.04-.01h.04l.04-.01h.08l.04.01h.03l.04.01.04.01.03.01.04.01.03.01.03.02.04.01.03.02.03.02.02.03.03.02.02.03.03.02.02.03.02.03-.05.03-.01-.03-.02-.02-.02-.03-.03-.02-.02-.02-.03-.02-.02-.02-.03-.02-.03-.02-.03-.01-.03-.01-.03-.01-.04-.01-.03-.01-.03-.01H3.3l-.04.01h-.04l-.04.01-.03.01-.04.02-.04.01-.04.02-.04.01-.03.02-.04.03-.04.02-.03-.05zm-.38 1.1l-.01-.04-.02-.03-.01-.03-.02-.04v-.03l-.01-.04-.01-.03v-.15l.01-.04v-.04l.01-.03.01-.04.01-.04.02-.03.01-.04.02-.04.02-.03.02-.04.02-.03.03-.04.02-.03.03-.03.03-.04.03-.03.03-.03.03-.03.04-.02.03-.03.04-.03.03.05-.03.02-.04.03-.03.02-.03.03-.03.03-.03.03-.03.03-.03.03-.02.03-.02.04-.03.03-.01.03-.02.04-.02.03-.01.04-.02.03-.01.03-.01.04-.01.03v.04l-.01.03v.14l.01.03.01.03.01.04.01.03.01.03.01.03.02.03-.05.03zm1.12.12l-.04.02-.04.02-.04.02-.04.02-.04.02-.04.01-.04.02-.04.01-.04.01h-.04l-.04.01h-.04l-.04.01H3l-.04-.01h-.04l-.04-.01-.03-.01L2.81 8l-.03-.01-.04-.01-.03-.02-.03-.02-.03-.01-.03-.02-.03-.03-.03-.02-.02-.03-.02-.02-.03-.03-.02-.03.05-.03.02.03.02.02.02.03.02.02.03.02.02.02.03.02.03.02.02.01.03.02.04.01.03.01.03.01.03.01.04.01H3.15l.03-.01.04-.01h.04l.04-.02.04-.01.03-.01.04-.02.04-.02.04-.01.04-.03.03-.02.03.05zm.38-1.1l.02.04.01.03.02.03.01.04.01.03.01.04v.07l.01.04v.03l-.01.04v.04l-.01.04-.01.03-.01.04-.01.04-.01.03-.02.04-.02.04-.01.03-.03.04-.02.03-.02.04-.03.03-.03.03-.02.03-.03.04-.04.03-.03.03-.03.02-.04.03-.04.03-.03-.05.04-.02.03-.03.04-.03.03-.02.03-.03.03-.03.02-.03.03-.03.03-.03.02-.04.02-.03.02-.03.02-.04.01-.03.02-.04.01-.03.01-.03.01-.04.01-.03.01-.04v-.17l-.01-.03v-.04l-.01-.03-.01-.03-.01-.03-.02-.03-.02-.03.05-.03z" class="fil3"/></g><g><path fill="#a1b567" d="M2.45 5.55c-.19-.33-.68-.38-1.08-.12-.4.27-.56.74-.37 1.06.2.32.68.37 1.08.11s.57-.73.37-1.05z"/><path id="1" d="M1.36 5.41l.04-.02.03-.02.04-.02.04-.02.04-.02.04-.01.04-.02.05-.01.04-.01.04-.01h.04l.04-.01H1.95l.04.01h.04l.04.01.03.01.04.01.03.01.04.01.03.02.03.01.03.02.03.02.03.02.02.03.03.02.02.03.02.03.02.03-.04.03-.02-.03-.02-.02-.02-.03-.02-.02-.03-.02-.02-.03-.03-.01-.03-.02-.03-.02-.03-.01-.03-.01-.03-.01-.03-.01-.03-.01-.04-.01h-.07l-.04-.01h-.03l-.04.01H1.8l-.04.01h-.03l-.04.01-.04.01-.04.02-.04.01-.03.02-.04.01-.04.02-.04.02-.03.03-.03-.05zM.98 6.5l-.02-.03-.02-.03-.01-.03-.01-.04-.01-.03L.9 6.3v-.04l-.01-.03v-.08l.01-.03v-.04l.01-.04.01-.03.01-.04.01-.04.01-.04.02-.03.01-.04.02-.03.02-.04.03-.03.02-.04.03-.03.02-.03.03-.04.03-.03.03-.03.04-.03.03-.02.04-.03.04-.03.03.05-.04.02-.03.03-.04.02-.03.03-.03.03-.03.03-.03.03-.02.03-.03.03-.02.04-.02.03-.02.03-.02.04-.01.03-.02.03-.01.04-.01.03-.01.04-.01.03-.01.04v.2l.01.03.01.04.01.03.01.03.02.03.01.03-.04.02zm1.12.12l-.04.03-.04.02-.04.02-.04.02-.04.02-.04.01-.04.01-.04.02-.04.01H1.7l-.04.01h-.04l-.04.01h-.04l-.04-.01h-.08l-.03-.01-.04-.01-.03-.01-.04-.01-.03-.01-.04-.02-.03-.02-.03-.02-.03-.02-.02-.02-.03-.02-.03-.03-.02-.03L1 6.54.98 6.5l.04-.02.02.02.02.03.02.03.03.02.02.02.03.02.02.02.03.02.03.01.03.02.03.01.03.01.03.01.04.01h.03l.04.01H1.65l.04-.01.04-.01.03-.01.04-.01.04-.01.04-.01.04-.02.04-.02.03-.02.04-.02.04-.02.03.04zm.37-1.09l.02.03.02.04.01.03.01.04.01.03.01.04.01.03v.15l-.01.04v.03l-.01.04-.01.04-.01.04-.02.03-.01.04-.02.04-.02.03-.02.04-.02.03-.03.04-.02.03-.03.03-.03.03-.03.03-.03.03-.04.03-.03.03-.04.03-.03.02-.03-.04.03-.02.04-.03.03-.03.03-.02.03-.03.03-.03.03-.03.03-.03.02-.04.02-.03.02-.03.02-.03.02-.04.02-.03.01-.04.02-.03.01-.04.01-.03v-.04l.01-.03v-.04l.01-.03v-.07l-.01-.03v-.03l-.01-.04-.01-.03-.01-.03-.01-.03-.01-.03-.02-.03.04-.03z" class="fil3"/></g></g></svg>