<svg xmlns="http://www.w3.org/2000/svg" width="121" height="67" fill-rule="evenodd" clip-rule="evenodd" image-rendering="optimizeQuality" shape-rendering="geometricPrecision" text-rendering="geometricPrecision" viewBox="0 0 16.94 9.41"><defs><style>.str0{stroke:#2b2a29;stroke-width:.13;stroke-miterlimit:22.9256}.fil0{fill:none;fill-rule:nonzero}.fil2{fill:#f9d5d7}.fil4{fill:#f08bb2}.fil5{fill:#d8ece4}.fil3{fill:#c4d985}.fil1{fill:#99cfba}</style></defs><g id="Слой_x0020_1"><path d="M5.69 0C4.08.3 3.74 1.96 3.35 3.58 2.51 5.07-.86 5.34.84 7.93c.71 1.07 2.43 1.54 4.33.35C6.65 6.81 6.49 6.03 6.6 3.91 6.21 2.24 8.38.09 5.69 0z" class="fil0 str0"/><path d="M.99 5.08c.21 0 .39.18.39.39 0 .22-.18.39-.39.39-.22 0-.39-.17-.39-.39 0-.21.17-.39.39-.39z" class="fil1"/><path id="1" d="M.99 5.08c.21 0 .39.18.39.39 0 .22-.18.39-.39.39-.22 0-.39-.17-.39-.39 0-.21.17-.39.39-.39z" class="fil0 str0"/><path d="M1.81 4.49c.22 0 .39.18.39.39 0 .22-.17.39-.39.39-.21 0-.39-.17-.39-.39 0-.21.18-.39.39-.39z" class="fil2"/><path id="1" d="M1.81 4.49c.22 0 .39.18.39.39 0 .22-.17.39-.39.39-.21 0-.39-.17-.39-.39 0-.21.18-.39.39-.39z" class="fil0 str0"/><path d="M3.49 2.61c.22 0 .39.18.39.39 0 .22-.17.39-.39.39S3.1 3.22 3.1 3c0-.21.17-.39.39-.39z" class="fil1"/><path id="1" d="M3.49 2.61c.22 0 .39.18.39.39 0 .22-.17.39-.39.39S3.1 3.22 3.1 3c0-.21.17-.39.39-.39z" class="fil0 str0"/><path d="M3.76 1.64c.21 0 .39.18.39.39 0 .22-.18.4-.39.4-.22 0-.39-.18-.39-.4 0-.21.17-.39.39-.39z" class="fil3"/><path id="1" d="M3.76 1.64c.21 0 .39.18.39.39 0 .22-.18.4-.39.4-.22 0-.39-.18-.39-.4 0-.21.17-.39.39-.39z" class="fil0 str0"/><path d="M4.19.6c.22 0 .39.17.39.39s-.17.39-.39.39c-.21 0-.39-.17-.39-.39S3.98.6 4.19.6z" class="fil1"/><path id="1" d="M4.19.6c.22 0 .39.17.39.39s-.17.39-.39.39c-.21 0-.39-.17-.39-.39S3.98.6 4.19.6z" class="fil0 str0"/><path d="M6.83 1.33c.22 0 .39.18.39.39 0 .22-.17.4-.39.4-.21 0-.39-.18-.39-.4 0-.21.18-.39.39-.39z" class="fil2"/><path id="1" d="M6.83 1.33c.22 0 .39.18.39.39 0 .22-.17.4-.39.4-.21 0-.39-.18-.39-.4 0-.21.18-.39.39-.39z" class="fil0 str0"/><path d="M6.63 2.41c.22 0 .39.17.39.39s-.17.39-.39.39c-.21 0-.39-.17-.39-.39s.18-.39.39-.39z" class="fil4"/><path id="1" d="M6.63 2.41c.22 0 .39.17.39.39s-.17.39-.39.39c-.21 0-.39-.17-.39-.39s.18-.39.39-.39z" class="fil0 str0"/><path d="M6.6 3.52c.22 0 .4.17.4.39 0 .21-.18.39-.4.39-.21 0-.39-.18-.39-.39 0-.22.18-.39.39-.39z" class="fil4"/><path id="1" d="M6.6 3.52c.22 0 .4.17.4.39 0 .21-.18.39-.4.39-.21 0-.39-.18-.39-.39 0-.22.18-.39.39-.39z" class="fil0 str0"/><path d="M6.47 4.58c.35 0 .64.29.64.64 0 .35-.29.64-.64.64-.35 0-.64-.29-.64-.64 0-.35.29-.64.64-.64z" class="fil1"/><path id="1" d="M6.47 4.58c.35 0 .64.29.64.64 0 .35-.29.64-.64.64-.35 0-.64-.29-.64-.64 0-.35.29-.64.64-.64z" class="fil0 str0"/><path d="M6.32 6.23c.21 0 .39.18.39.39 0 .22-.18.39-.39.39-.22 0-.39-.17-.39-.39 0-.21.17-.39.39-.39z" class="fil3"/><path id="1" d="M6.32 6.23c.21 0 .39.18.39.39 0 .22-.18.39-.39.39-.22 0-.39-.17-.39-.39 0-.21.17-.39.39-.39z" class="fil0 str0"/><path d="M3.47 7.99c.4 0 .72.31.72.71 0 .39-.32.71-.72.71-.39 0-.71-.32-.71-.71 0-.4.32-.71.71-.71z" class="fil4"/><path id="1" d="M3.47 7.99c.4 0 .72.31.72.71 0 .39-.32.71-.72.71-.39 0-.71-.32-.71-.71 0-.4.32-.71.71-.71z" class="fil0 str0"/><path d="M2.16 8.48c.22 0 .39.18.39.39 0 .22-.17.39-.39.39-.21 0-.39-.17-.39-.39 0-.21.18-.39.39-.39z" class="fil5"/><path id="1" d="M2.16 8.48c.22 0 .39.18.39.39 0 .22-.17.39-.39.39-.21 0-.39-.17-.39-.39 0-.21.18-.39.39-.39z" class="fil0 str0"/><path d="M4.76 8.13c.21 0 .39.17.39.39 0 .21-.18.39-.39.39-.22 0-.39-.18-.39-.39 0-.22.17-.39.39-.39z" class="fil3"/><path id="1" d="M4.76 8.13c.21 0 .39.17.39.39 0 .21-.18.39-.39.39-.22 0-.39-.18-.39-.39 0-.22.17-.39.39-.39z" class="fil0 str0"/><path d="M1.26 8.01c.22 0 .39.17.39.39s-.17.39-.39.39c-.21 0-.39-.17-.39-.39s.18-.39.39-.39z" class="fil2"/><path id="1" d="M1.26 8.01c.22 0 .39.17.39.39s-.17.39-.39.39c-.21 0-.39-.17-.39-.39s.18-.39.39-.39z" class="fil0 str0"/><path d="M.39 5.95c.22 0 .39.18.39.39 0 .22-.17.39-.39.39-.21 0-.39-.17-.39-.39 0-.21.18-.39.39-.39z" class="fil4"/><path id="1" d="M.39 5.95c.22 0 .39.18.39.39 0 .22-.17.39-.39.39-.21 0-.39-.17-.39-.39 0-.21.18-.39.39-.39z" class="fil0 str0"/><path d="M16.93 6.39c.02.06 0-.3 0 .1.01.05 0 .1 0 .15 0 .85-1.57 1.55-3.53 1.55-1.95 0-3.54-.7-3.54-1.55v-.06V3.2c0-1.59 7.07-1.58 7.07 0v3.19z" class="fil4"/><path id="1" d="M16.93 6.39c.02.06 0-.3 0 .1.01.05 0 .1 0 .15 0 .85-1.57 1.55-3.53 1.55-1.95 0-3.54-.7-3.54-1.55v-.06V3.2c0-1.59 7.07-1.58 7.07 0v3.19z" class="fil0 str0"/><g><path d="M10.98 7.77c-.16-.07-.31-.14-.44-.22V3.36h.44v4.41z" class="fil2"/><path id="1" d="M10.98 7.77c-.16-.07-.31-.14-.44-.22V3.36h.44v4.41z" class="fil0 str0"/></g><g><path d="M12.29 8.11c-.14-.02-.29-.05-.43-.08V3.55h.43v4.56z" class="fil3"/><path id="1" d="M12.29 8.11c-.14-.02-.29-.05-.43-.08V3.55h.43v4.56z" class="fil0 str0"/></g><g><path d="M16.33 7.5c-.13.09-.28.16-.44.24V3.17h.44V7.5z" class="fil3"/><path id="1" d="M16.33 7.5c-.13.09-.28.16-.44.24V3.17h.44V7.5z" class="fil0 str0"/></g><g><path d="M15.03 8.01c-.14.03-.28.06-.43.09V3.62h.43v4.39z" class="fil2"/><path id="1" d="M15.03 8.01c-.14.03-.28.06-.43.09V3.62h.43v4.39z" class="fil0 str0"/></g><g><path d="M13.66 8.18c-.08.01-.17.01-.26.01-.05 0-.11 0-.17-.01V3.81h.43v4.37z" class="fil1"/><path id="1" d="M13.66 8.18c-.08.01-.17.01-.26.01-.05 0-.11 0-.17-.01V3.81h.43v4.37z" class="fil0 str0"/></g><g><path d="M13.4 1.76c1.95 0 3.53.72 3.53 1.6 0 .88-1.58 1.59-3.53 1.59-1.95 0-3.54-.71-3.54-1.59 0-.88 1.59-1.6 3.54-1.6z" class="fil2"/><path id="1" d="M13.4 1.76c1.95 0 3.53.72 3.53 1.6 0 .88-1.58 1.59-3.53 1.59-1.95 0-3.54-.71-3.54-1.59 0-.88 1.59-1.6 3.54-1.6z" class="fil0 str0"/></g><g><path d="M13.38 1.38c1.96 0 3.54.72 3.54 1.6 0 .88-1.58 1.59-3.54 1.59-1.95 0-3.53-.71-3.53-1.59 0-.88 1.58-1.6 3.53-1.6z" class="fil3"/><path id="1" d="M13.38 1.38c1.96 0 3.54.72 3.54 1.6 0 .88-1.58 1.59-3.54 1.59-1.95 0-3.53-.71-3.53-1.59 0-.88 1.58-1.6 3.53-1.6z" class="fil0 str0"/></g><g><path d="M13.39 2.08c.39 0 .7.15.7.35 0 .19-.31.34-.7.34-.38 0-.7-.15-.7-.34 0-.2.32-.35.7-.35z" class="fil4"/><path id="1" d="M13.39 2.08c.39 0 .7.15.7.35 0 .19-.31.34-.7.34-.38 0-.7-.15-.7-.34 0-.2.32-.35.7-.35z" class="fil0 str0"/></g><g><path d="M13.38 2.98c.19 0 .34.31.34.69 0 .38-.15.69-.34.69-.18 0-.33-.31-.33-.69 0-.38.15-.69.33-.69z" class="fil5"/><path id="1" d="M13.38 2.98c.19 0 .34.31.34.69 0 .38-.15.69-.34.69-.18 0-.33-.31-.33-.69 0-.38.15-.69.33-.69z" class="fil0 str0"/></g><g><path d="M12.59 2.81c.15.1.1.44-.12.76-.22.31-.52.48-.67.37-.15-.11-.1-.45.12-.76s.52-.48.67-.37z" class="fil2"/><path id="1" d="M12.59 2.81c.15.1.1.44-.12.76-.22.31-.52.48-.67.37-.15-.11-.1-.45.12-.76s.52-.48.67-.37z" class="fil0 str0"/></g><g><path d="M14.17 2.86c-.15.11-.1.45.12.76s.52.48.67.38c.15-.11.1-.45-.12-.77-.22-.31-.52-.48-.67-.37z" class="fil1"/><path id="1" d="M14.17 2.86c-.15.11-.1.45.12.76s.52.48.67.38c.15-.11.1-.45-.12-.77-.22-.31-.52-.48-.67-.37z" class="fil0 str0"/></g><g><path fill="#bcdbcf" d="M10.74 2.66c.03.19.35.3.73.24.38-.05.67-.24.64-.42-.02-.19-.35-.3-.73-.25-.37.05-.66.25-.64.43z"/><path id="1" d="M10.74 2.66c.03.19.35.3.73.24.38-.05.67-.24.64-.42-.02-.19-.35-.3-.73-.25-.37.05-.66.25-.64.43z" class="fil0 str0"/></g><g><path d="M15.83 2.6c-.03.19-.35.3-.73.25-.38-.05-.67-.24-.64-.43.02-.18.35-.29.73-.24.38.05.66.24.64.42z" class="fil2"/><path id="1" d="M15.83 2.6c-.03.19-.35.3-.73.25-.38-.05-.67-.24-.64-.43.02-.18.35-.29.73-.24.38.05.66.24.64.42z" class="fil0 str0"/></g><g><path d="M12.57 1.97c-.13.14-.46.04-.74-.22-.06-.06-.11-.11-.15-.17.24-.06.51-.11.78-.14.15.21.2.43.11.53z" class="fil1"/><path id="1" d="M12.57 1.97c-.13.14-.46.04-.74-.22-.06-.06-.11-.11-.15-.17.24-.06.51-.11.78-.14.15.21.2.43.11.53z" class="fil0 str0"/></g><g><path d="M13.97 1.93c.13.14.46.04.74-.22.06-.06.11-.12.16-.18-.25-.05-.52-.09-.8-.12-.15.21-.19.42-.1.52z" class="fil5"/><path id="1" d="M13.97 1.93c.13.14.46.04.74-.22.06-.06.11-.12.16-.18-.25-.05-.52-.09-.8-.12-.15.21-.19.42-.1.52z" class="fil0 str0"/></g><g><path d="M13.63 1.39c-.04.27-.17.47-.32.47-.14 0-.27-.19-.32-.47.13 0 .26-.01.39-.01.09 0 .17.01.25.01z" class="fil2"/><path id="1" d="M13.63 1.39c-.04.27-.17.47-.32.47-.14 0-.27-.19-.32-.47.13 0 .26-.01.39-.01.09 0 .17.01.25.01z" class="fil0 str0"/></g></g></svg>