<svg xmlns="http://www.w3.org/2000/svg" width="99" height="68" fill-rule="evenodd" clip-rule="evenodd" image-rendering="optimizeQuality" shape-rendering="geometricPrecision" text-rendering="geometricPrecision" viewBox="0 0 67.1 46.26"><defs><style>.str0{stroke:#2b2a29;stroke-width:.61;stroke-miterlimit:22.9256}.fil1{fill:none;fill-rule:nonzero}.fil4{fill:#f08bb2}</style></defs><g id="Слой_x0020_1"><path fill="#99cfba" d="M61.91 5.25h-8.33v.68c1.86 1.83.78 4.79-1.6 4.79-2.39 0-3.47-2.96-1.61-4.79v-.68h-8.33v5.97h-.65c-.48-.54-1.19-.87-1.97-.87-1.45 0-2.62 1.14-2.62 2.55 0 1.4 1.17 2.54 2.62 2.54.78 0 1.49-.33 1.97-.86h.65v5.96h6.73c-.56-1.47.47-4.16 3.09-4.16 2.7 0 3.89 2.66 3.2 4.16h6.85V5.25z"/><path id="1" d="M61.91 5.25h-8.33v.68c1.86 1.83.78 4.79-1.6 4.79-2.39 0-3.47-2.96-1.61-4.79v-.68h-8.33v5.97h-.65c-.48-.54-1.19-.87-1.97-.87-1.45 0-2.62 1.14-2.62 2.55 0 1.4 1.17 2.54 2.62 2.54.78 0 1.49-.33 1.97-.86h.65v5.96h6.73c-.56-1.47.47-4.16 3.09-4.16 2.7 0 3.89 2.66 3.2 4.16h6.85V5.25z" class="fil1 str0"/><path fill="#f9d5d7" d="M31.11.02c-2.37-.03-3.26 3.15-1.6 4.79v.26h-8.35v5.96h-.65c-.48-.53-1.19-.87-1.97-.87-1.45 0-2.62 1.14-2.62 2.55s1.17 2.55 2.62 2.55c.78 0 1.49-.34 1.97-.87h.65v5.96h8.33v.93c-1.7 1.67-.65 4.65 1.61 4.67 2.37.01 3.35-2.95 1.6-4.67v-.93h8.33v-4.77c-1.24.91-3.38.44-4.31-.81-.4-.52-.64-1.16-.64-1.87 0-.9.4-1.72 1.04-2.28.96-.91 2.86-1.17 3.91-.39V5.07h-8.31v-.26c1.66-1.64.78-4.77-1.61-4.79z"/><path id="1" d="M31.11.02c-2.37-.03-3.26 3.15-1.6 4.79v.26h-8.35v5.96h-.65c-.48-.53-1.19-.87-1.97-.87-1.45 0-2.62 1.14-2.62 2.55s1.17 2.55 2.62 2.55c.78 0 1.49-.34 1.97-.87h.65v5.96h8.33v.93c-1.7 1.67-.65 4.65 1.61 4.67 2.37.01 3.35-2.95 1.6-4.67v-.93h8.33v-4.77c-1.24.91-3.38.44-4.31-.81-.4-.52-.64-1.16-.64-1.87 0-.9.4-1.72 1.04-2.28.96-.91 2.86-1.17 3.91-.39V5.07h-8.31v-.26c1.66-1.64.78-4.77-1.61-4.79z" class="fil1 str0"/><path fill="#d8ece4" d="M21.16 22.46h6.95c-.87 1.99.9 4.35 3 4.3 2.29-.06 3.78-2.23 3.01-4.3h6.91v5.97h.65c.48-.54 1.19-.87 1.97-.87 1.45 0 2.62 1.14 2.62 2.55 0 1.4-1.17 2.55-2.62 2.55-.78 0-1.49-.34-1.97-.87h-.65v5.96H32.7v-.68c.51-.5.83-1.23.83-2.05 0-1.51-1.09-2.74-2.43-2.74-1.35 0-2.44 1.23-2.44 2.74 0 .82.32 1.55.83 2.05v.68h-8.33V22.46z"/><path id="1" d="M21.16 22.46h6.95c-.87 1.99.9 4.35 3 4.3 2.29-.06 3.78-2.23 3.01-4.3h6.91v5.97h.65c.48-.54 1.19-.87 1.97-.87 1.45 0 2.62 1.14 2.62 2.55 0 1.4-1.17 2.55-2.62 2.55-.78 0-1.49-.34-1.97-.87h-.65v5.96H32.7v-.68c.51-.5.83-1.23.83-2.05 0-1.51-1.09-2.74-2.43-2.74-1.35 0-2.44 1.23-2.44 2.74 0 .82.32 1.55.83 2.05v.68h-8.33V22.46z" class="fil1 str0"/><g><path d="M51.89 17.31c1.35 0 2.44 1.32 2.44 2.49 0 1.16-.32 1.8-.83 2.3v.26h8.35v5.96h.65c.48-.53 1.18-.86 1.97-.86 1.44 0 2.62 1.14 2.62 2.54 0 1.41-1.18 2.55-2.62 2.55-.79 0-1.49-.33-1.97-.86h-.65v5.96h-8.33v.93c.51.5.83.89.83 2.05 0 1.16-1.09 2.61-2.44 2.61-1.35 0-2.44-1.45-2.44-2.61s.32-1.55.83-2.05v-.93h-8.33v-4.77c1.7 1.24 4.95.18 4.96-2.68.01-2.9-3.27-3.92-4.96-2.68v-5.16h8.31v-.26c-.51-.5-.83-1.14-.83-2.3 0-1.17 1.1-2.49 2.44-2.49z" class="fil4"/><path id="1" d="M51.89 17.31c1.35 0 2.44 1.32 2.44 2.49 0 1.16-.32 1.8-.83 2.3v.26h8.35v5.96h.65c.48-.53 1.18-.86 1.97-.86 1.44 0 2.62 1.14 2.62 2.54 0 1.41-1.18 2.55-2.62 2.55-.79 0-1.49-.33-1.97-.86h-.65v5.96h-8.33v.93c.51.5.83.89.83 2.05 0 1.16-1.09 2.61-2.44 2.61-1.35 0-2.44-1.45-2.44-2.61s.32-1.55.83-2.05v-.93h-8.33v-4.77c1.7 1.24 4.95.18 4.96-2.68.01-2.9-3.27-3.92-4.96-2.68v-5.16h8.31v-.26c-.51-.5-.83-1.14-.83-2.3 0-1.17 1.1-2.49 2.44-2.49z" class="fil1 str0"/></g><g><path d="M7.47 23.33l7.28 4.24-.33.57c-.69.16-1.33.61-1.73 1.3-.74 1.26-.38 2.84.8 3.53 1.18.68 2.73.21 3.46-1.05.4-.69.48-1.47.28-2.14l.33-.57 7.28 4.23-2.91 4.99.57.33c.68-.2 1.46-.12 2.15.28 1.26.73 1.73 2.29 1.04 3.46-.68 1.18-2.26 1.54-3.53.8-.68-.39-1.13-1.03-1.29-1.72l-.57-.33-2.91 4.99L10.11 42l.33-.57c.69-.16 1.33-.61 1.73-1.29.74-1.27.38-2.85-.8-3.53-1.18-.69-2.73-.22-3.46 1.04-.4.69-.48 1.47-.28 2.15l-.33.56-7.28-4.23 7.45-12.8z" class="fil4"/><path id="1" d="M7.47 23.33l7.28 4.24-.33.57c-.69.16-1.33.61-1.73 1.3-.74 1.26-.38 2.84.8 3.53 1.18.68 2.73.21 3.46-1.05.4-.69.48-1.47.28-2.14l.33-.57 7.28 4.23-2.91 4.99.57.33c.68-.2 1.46-.12 2.15.28 1.26.73 1.73 2.29 1.04 3.46-.68 1.18-2.26 1.54-3.53.8-.68-.39-1.13-1.03-1.29-1.72l-.57-.33-2.91 4.99L10.11 42l.33-.57c.69-.16 1.33-.61 1.73-1.29.74-1.27.38-2.85-.8-3.53-1.18-.69-2.73-.22-3.46 1.04-.4.69-.48 1.47-.28 2.15l-.33.56-7.28-4.23 7.45-12.8z" class="fil1 str0"/></g></g></svg>