<svg xmlns="http://www.w3.org/2000/svg" width="121" height="69" fill-rule="evenodd" clip-rule="evenodd" image-rendering="optimizeQuality" shape-rendering="geometricPrecision" text-rendering="geometricPrecision" viewBox="0 0 177.53 100.86"><defs><style>.str0{stroke:#2b2a29;stroke-width:1.32;stroke-miterlimit:22.9256}.fil1{fill:none;fill-rule:nonzero}.fil0{fill:#bdd180}.fil2{fill:#a1b567}.fil4{fill:#6fa691}.fil3{fill:#99cfba}.fil6{fill:#fefefe;fill-rule:nonzero}</style></defs><g id="Слой_x0020_1"><path d="M34.33 81.52H23.94v12.73h12.88v-4.12c9.59-3.27 17.34-9.26 19.22-23.95-.08-10.34-5.19-18.78-15.82-25.13-2.71 4-5.42 7.99-8.13 11.98 12.79 5.08 12.02 19.65.64 22.99l1.6 5.5z" class="fil0"/><path id="1" d="M34.33 81.52H23.94v12.73h12.88v-4.12c9.59-3.27 17.34-9.26 19.22-23.95-.08-10.34-5.19-18.78-15.82-25.13-2.71 4-5.42 7.99-8.13 11.98 12.79 5.08 12.02 19.65.64 22.99l1.6 5.5z" class="fil1 str0"/><path d="M56.49 7.17l-8.03-4.73-6.91 11.72 8.02 4.74z" class="fil2"/><path id="1" d="M56.49 7.17l-8.03-4.73-6.91 11.72 8.02 4.74z" class="fil1 str0"/><path d="M30.65 59.45l-15.43-9.1 22.62-38.37 15.44 9.1z" class="fil0"/><path id="1" d="M30.65 59.45l-15.43-9.1 22.62-38.37 15.44 9.1z" class="fil1 str0"/><path d="M26.54 57.03l-7.21-4.25-3.64 6.17 7.21 4.25z" class="fil2"/><path id="1" d="M26.54 57.03l-7.21-4.25-3.64 6.17 7.21 4.25z" class="fil1 str0"/><path d="M20.49 72.46L8.76 65.54l1.7-2.88 11.73 6.92z" class="fil0"/><path id="1" d="M20.49 72.46L8.76 65.54l1.7-2.88 11.73 6.92z" class="fil1 str0"/><path d="M27.79 76.76L3.72 62.57c-.26 1.25-.15 2.45 1.09 3.55L24.19 82.4l3.6-5.64z" class="fil2"/><path id="1" d="M27.79 76.76L3.72 62.57c-.26 1.25-.15 2.45 1.09 3.55L24.19 82.4l3.6-5.64z" class="fil1 str0"/><path d="M52.42 94.28H5.06c-2.76 0-5.02 2.26-5.02 5.03v1.51h57.41v-1.51c0-2.77-2.26-5.03-5.03-5.03z" class="fil2"/><path id="1" d="M52.42 94.28H5.06c-2.76 0-5.02 2.26-5.02 5.03v1.51h57.41v-1.51c0-2.77-2.26-5.03-5.03-5.03z" class="fil1 str0"/><path d="M36.16 42.23c2.77 0 5.02 2.25 5.02 5.03 0 2.77-2.25 5.02-5.02 5.02-2.78 0-5.03-2.25-5.03-5.02 0-2.78 2.25-5.03 5.03-5.03z" class="fil3"/><path id="1" d="M36.16 42.23c2.77 0 5.02 2.25 5.02 5.03 0 2.77-2.25 5.02-5.02 5.02-2.78 0-5.03-2.25-5.03-5.02 0-2.78 2.25-5.03 5.03-5.03z" class="fil1 str0"/><g><path d="M30.38 74.61c4.37 0 7.91 3.54 7.91 7.91s-3.54 7.91-7.91 7.91-7.91-3.54-7.91-7.91 3.54-7.91 7.91-7.91z" class="fil4"/><path id="1" d="M30.38 74.61c4.37 0 7.91 3.54 7.91 7.91s-3.54 7.91-7.91 7.91-7.91-3.54-7.91-7.91 3.54-7.91 7.91-7.91z" class="fil1 str0"/></g><g><path d="M30.38 79.19c1.84 0 3.33 1.49 3.33 3.33s-1.49 3.33-3.33 3.33-3.33-1.49-3.33-3.33 1.49-3.33 3.33-3.33z" class="fil3"/><path id="1" d="M30.38 79.19c1.84 0 3.33 1.49 3.33 3.33s-1.49 3.33-3.33 3.33-3.33-1.49-3.33-3.33 1.49-3.33 3.33-3.33z" class="fil1 str0"/></g><g><path d="M154.62 48.04l-12.55-8.4-22.55 33.66c-4.93 5.64-9.54 6.77-13.91 4.1-5.35-4.08-4-8.98-1.31-14.05l22.5-33.57-12.55-8.41-23.77 35.48c-5.88 7.73-5.82 20.07 1.89 29.55 3.28 4.02 6.43 5.63 11.26 7.13 10.58 3.31 19.65-.05 27.22-10.01l23.77-35.48z" class="fil4"/><path id="1" d="M154.62 48.04l-12.55-8.4-22.55 33.66c-4.93 5.64-9.54 6.77-13.91 4.1-5.35-4.08-4-8.98-1.31-14.05l22.5-33.57-12.55-8.41-23.77 35.48c-5.88 7.73-5.82 20.07 1.89 29.55 3.28 4.02 6.43 5.63 11.26 7.13 10.58 3.31 19.65-.05 27.22-10.01l23.77-35.48z" class="fil1 str0"/></g><g><path fill="#f08bb2" d="M154.62 48.04l-12.55-8.4-22.55 33.66c-4.93 5.64-9.54 6.77-13.91 4.1l-.13-.11-8.8 13.14c1.99 1.35 4.2 2.24 6.95 3.1 10.58 3.31 19.65-.05 27.22-10.01l23.77-35.48z"/><path id="1" d="M154.62 48.04l-12.55-8.4-22.55 33.66c-4.93 5.64-9.54 6.77-13.91 4.1l-.13-.11-8.8 13.14c1.99 1.35 4.2 2.24 6.95 3.1 10.58 3.31 19.65-.05 27.22-10.01l23.77-35.48z" class="fil1 str0"/></g><g><path d="M125.04 20.06c-.04.06-.12.07-.17.03-.06-.04-.07-.12-.03-.18l.2.15zm8.86-11.99l-8.86 11.99-.2-.15 8.85-11.99.23.06-.02.09zm-.21-.15l.18-.24.05.3-.23-.06zm1.28 8.59l-1.3-8.49.25-.04 1.3 8.49-.02.1-.23-.06zm.23.06l-.18.22-.05-.28.23.06zM148.09.2L135.2 16.57l-.2-.16L147.89.05l.2.15zm-.2-.15c.04-.06.12-.07.18-.02.05.04.06.12.02.17l-.2-.15z" class="fil6"/></g><g><path d="M166.38 12.24l-.19-.17c.05-.05.14-.05.19-.01.05.05.05.13 0 .18zM156.3 23.22l-.09.04-.1-.22 10.08-10.97.19.17-10.08 10.98zm-.09.04l-.31.01.21-.23.1.22zm8.57-.59l.1.21-.09.04-8.58.34-.01-.26 8.58-.33zm0 0l.29-.02-.19.23-.1-.21zm-13.51 15.98l-.19-.17 13.61-15.77.19.17-13.61 15.77zm-.19-.17l.19.17c-.04.05-.13.06-.18.01-.05-.04-.05-.13-.01-.18z" class="fil6"/></g><g><path d="M177.5 7.75l-.19-.18c.05-.05.13-.05.18 0 .05.04.06.13.01.18zm-10.09 10.97l-.09.04-.1-.21 10.09-10.98.19.18-10.09 10.97zm-.09.04l-.31.01.21-.22.1.21zm8.57-.59l.11.21-.1.05-8.58.33-.01-.25 8.58-.34zm0 0l.3-.01-.19.22-.11-.21zm-13.5 15.99l-.19-.17 13.6-15.77.2.16-13.61 15.78zm-.19-.17l.19.17c-.05.05-.13.05-.18.01-.05-.05-.06-.13-.01-.18z" class="fil6"/></g></g></svg>