<svg xmlns="http://www.w3.org/2000/svg" width="56" height="54" fill-rule="evenodd" clip-rule="evenodd" image-rendering="optimizeQuality" shape-rendering="geometricPrecision" text-rendering="geometricPrecision" viewBox="0 0 17 16.45"><defs><style>.str0{stroke:#2b2a29;stroke-width:.28;stroke-miterlimit:22.9256}.fil1{fill:none;fill-rule:nonzero}</style></defs><g id="Слой_x0020_1"><path fill="#99cfba" d="M6.85 3.05h10.14v13.39H6.85z"/><path id="1" d="M6.85 3.05h10.14v13.39H6.85z" class="fil1 str0"/><path fill="#f08bb2" d="M.01.01H10.9v.32c-.51 0-.92.4-.92.89s.41.89.92.89v.48c-.51 0-.92.4-.92.89 0 .5.41.89.92.89v.55c-.51 0-.92.4-.92.89 0 .5.41.89.92.89v.59c-.51 0-.92.4-.92.89s.41.89.92.89v.58c-.51 0-.92.4-.92.89s.41.89.92.89v.58c-.51 0-.92.4-.92.89 0 .5.41.89.92.89v.38H.01v-.38h.01c.51 0 .92-.39.92-.89 0-.49-.41-.89-.92-.89H.01v-.58h.01c.51 0 .92-.4.92-.89s-.41-.89-.92-.89H.01v-.58h.01c.51 0 .92-.4.92-.89s-.41-.89-.92-.89H.01V6.7h.01c.51 0 .92-.39.92-.89 0-.49-.41-.89-.92-.89H.01v-.55h.01c.51 0 .92-.39.92-.89 0-.49-.41-.89-.92-.89H.01v-.48h.01c.51 0 .92-.4.92-.89S.53.33.02.33H.01V.01z"/><path id="1" d="M.01.01H10.9v.32c-.51 0-.92.4-.92.89s.41.89.92.89v.48c-.51 0-.92.4-.92.89 0 .5.41.89.92.89v.55c-.51 0-.92.4-.92.89 0 .5.41.89.92.89v.59c-.51 0-.92.4-.92.89s.41.89.92.89v.58c-.51 0-.92.4-.92.89s.41.89.92.89v.58c-.51 0-.92.4-.92.89 0 .5.41.89.92.89v.38H.01v-.38h.01c.51 0 .92-.39.92-.89 0-.49-.41-.89-.92-.89H.01v-.58h.01c.51 0 .92-.4.92-.89s-.41-.89-.92-.89H.01v-.58h.01c.51 0 .92-.4.92-.89s-.41-.89-.92-.89H.01V6.7h.01c.51 0 .92-.39.92-.89 0-.49-.41-.89-.92-.89H.01v-.55h.01c.51 0 .92-.39.92-.89 0-.49-.41-.89-.92-.89H.01v-.48h.01c.51 0 .92-.4.92-.89S.53.33.02.33H.01V.01z" class="fil1 str0"/><g><path fill="#f9d5d7" d="M5.67 6.32c.49 0 .89.39.89.87 0 .47-.4.86-.89.86-.48 0-.88-.39-.88-.86 0-.48.4-.87.88-.87zM2.11 3.27c-.24.21.13 1.05.84 1.89.71.84 1.48 1.35 1.72 1.15.25-.21-.13-1.05-.84-1.89-.71-.84-1.48-1.35-1.72-1.15zm4.53 4.91c-.24.2.14 1.05.85 1.89.7.84 1.47 1.35 1.72 1.14.24-.2-.14-1.05-.85-1.88-.7-.84-1.47-1.36-1.72-1.15zm2.44-5.21c.25.21-.13 1.05-.84 1.89-.71.84-1.48 1.35-1.72 1.15-.24-.21.13-1.05.84-1.89.71-.84 1.48-1.35 1.72-1.15zM4.72 8.23c.24.2-.13 1.05-.84 1.89-.71.84-1.48 1.35-1.72 1.14-.24-.2.13-1.05.84-1.88.71-.84 1.48-1.36 1.72-1.15zm.99.33c.31 0 .57.89.57 1.98 0 1.1-.26 1.99-.57 1.99-.32 0-.58-.89-.58-1.99 0-1.09.26-1.98.58-1.98zm-.15-6.69c.31 0 .57.89.57 1.99s-.26 1.99-.57 1.99c-.32 0-.58-.89-.58-1.99s.26-1.99.58-1.99z"/><path id="1" d="M5.67 6.32c.49 0 .89.39.89.87 0 .47-.4.86-.89.86-.48 0-.88-.39-.88-.86 0-.48.4-.87.88-.87zM2.11 3.27c-.24.21.13 1.05.84 1.89.71.84 1.48 1.35 1.72 1.15.25-.21-.13-1.05-.84-1.89-.71-.84-1.48-1.35-1.72-1.15zm4.53 4.91c-.24.2.14 1.05.85 1.89.7.84 1.47 1.35 1.72 1.14.24-.2-.14-1.05-.85-1.88-.7-.84-1.47-1.36-1.72-1.15zm2.44-5.21c.25.21-.13 1.05-.84 1.89-.71.84-1.48 1.35-1.72 1.15-.24-.21.13-1.05.84-1.89.71-.84 1.48-1.35 1.72-1.15zM4.72 8.23c.24.2-.13 1.05-.84 1.89-.71.84-1.48 1.35-1.72 1.14-.24-.2.13-1.05.84-1.88.71-.84 1.48-1.36 1.72-1.15zm.99.33c.31 0 .57.89.57 1.98 0 1.1-.26 1.99-.57 1.99-.32 0-.58-.89-.58-1.99 0-1.09.26-1.98.58-1.98zm-.15-6.69c.31 0 .57.89.57 1.99s-.26 1.99-.57 1.99c-.32 0-.58-.89-.58-1.99s.26-1.99.58-1.99z" class="fil1 str0"/></g></g></svg>