<svg xmlns="http://www.w3.org/2000/svg" width="121" height="68" fill-rule="evenodd" clip-rule="evenodd" image-rendering="optimizeQuality" shape-rendering="geometricPrecision" text-rendering="geometricPrecision" viewBox="0 0 16.89 9.5"><defs><style>.str0,.str1,.str2{stroke:#fefefe;stroke-width:.13;stroke-miterlimit:22.9256}.str0,.str2{stroke:#2b2a29}.str2{stroke:#99cfba}.fil1{fill:none;fill-rule:nonzero}.fil6{fill:#fefefe}.fil3{fill:#f08bb2}.fil0,.fil7{fill:#99cfba}.fil7{fill-rule:nonzero}</style></defs><g id="Слой_x0020_1"><path d="M3.85.81L8.39.8c-2.07 1.27 1.42 5.49-.31 8-1.91.01-3.81.01-5.72.02 1.66-1.55.66-3.47.39-5.69-.11-.99.05-2.32 1.1-2.32zm-.26.29c.17 0 .32.15.32.33 0 .17-.15.32-.32.32-.18 0-.33-.15-.33-.32 0-.18.15-.33.33-.33zm3.24 0c.18 0 .32.15.32.33 0 .17-.14.32-.32.32s-.32-.15-.32-.32c0-.18.14-.33.32-.33zm-1.06 0c.18 0 .33.15.33.33 0 .17-.15.32-.33.32-.17 0-.32-.15-.32-.32 0-.18.15-.33.32-.33zm-1.08 0c.17 0 .32.15.32.33 0 .17-.15.32-.32.32-.18 0-.32-.15-.32-.32 0-.18.14-.33.32-.33z" class="fil0"/><path id="1" d="M3.85.81L8.39.8c-2.07 1.27 1.42 5.49-.31 8-1.91.01-3.81.01-5.72.02 1.66-1.55.66-3.47.39-5.69-.11-.99.05-2.32 1.1-2.32zm-.26.29c.17 0 .32.15.32.33 0 .17-.15.32-.32.32-.18 0-.33-.15-.33-.32 0-.18.15-.33.33-.33zm3.24 0c.18 0 .32.15.32.33 0 .17-.14.32-.32.32s-.32-.15-.32-.32c0-.18.14-.33.32-.33zm-1.06 0c.18 0 .33.15.33.33 0 .17-.15.32-.33.32-.17 0-.32-.15-.32-.32 0-.18.15-.33.32-.33zm-1.08 0c.17 0 .32.15.32.33 0 .17-.15.32-.32.32-.18 0-.32-.15-.32-.32 0-.18.14-.33.32-.33z" class="fil1 str0"/><path fill="#d8ece4" d="M3.6.87L8.13.86c-2.06 1.27 1.38 6.42-.82 8.37-1.91.01-3.81.01-5.72.02 1.66-1.55 1.18-3.84.91-6.06C2.38 2.2 2.55.87 3.6.87zm-.01.23c.17 0 .32.15.32.33 0 .17-.15.32-.32.32-.18 0-.33-.15-.33-.32 0-.18.15-.33.33-.33zm3.24 0c.18 0 .32.15.32.33 0 .17-.14.32-.32.32s-.32-.15-.32-.32c0-.18.14-.33.32-.33zm-1.06 0c.18 0 .33.15.33.33 0 .17-.15.32-.33.32-.17 0-.32-.15-.32-.32 0-.18.15-.33.32-.33zm-1.08 0c.17 0 .32.15.32.33 0 .17-.15.32-.32.32-.18 0-.32-.15-.32-.32 0-.18.14-.33.32-.33z"/><path id="1" d="M3.6.87L8.13.86c-2.06 1.27 1.38 6.42-.82 8.37-1.91.01-3.81.01-5.72.02 1.66-1.55 1.18-3.84.91-6.06C2.38 2.2 2.55.87 3.6.87zm-.01.23c.17 0 .32.15.32.33 0 .17-.15.32-.32.32-.18 0-.33-.15-.33-.32 0-.18.15-.33.33-.33zm3.24 0c.18 0 .32.15.32.33 0 .17-.14.32-.32.32s-.32-.15-.32-.32c0-.18.14-.33.32-.33zm-1.06 0c.18 0 .33.15.33.33 0 .17-.15.32-.33.32-.17 0-.32-.15-.32-.32 0-.18.15-.33.32-.33zm-1.08 0c.17 0 .32.15.32.33 0 .17-.15.32-.32.32-.18 0-.32-.15-.32-.32 0-.18.14-.33.32-.33z" class="fil1 str0"/><path d="M3.54.2h.07c.07 0 .12.06.12.12v1.06c0 .06-.05.11-.12.11h-.07c-.06 0-.11-.05-.11-.11V.32c0-.06.05-.12.11-.12z" class="fil0"/><path id="1" d="M3.54.2h.07c.07 0 .12.06.12.12v1.06c0 .06-.05.11-.12.11h-.07c-.06 0-.11-.05-.11-.11V.32c0-.06.05-.12.11-.12z" class="fil1 str0"/><path d="M4.65.2h.07c.06 0 .11.06.11.12v1.06c0 .06-.05.11-.11.11h-.07c-.07 0-.12-.05-.12-.11V.32c0-.06.05-.12.12-.12z" class="fil0"/><path id="1" d="M4.65.2h.07c.06 0 .11.06.11.12v1.06c0 .06-.05.11-.11.11h-.07c-.07 0-.12-.05-.12-.11V.32c0-.06.05-.12.12-.12z" class="fil1 str0"/><path d="M5.74.2h.08c.06 0 .11.06.11.12v1.06c0 .06-.05.11-.11.11h-.08c-.06 0-.11-.05-.11-.11V.32c0-.06.05-.12.11-.12z" class="fil0"/><path id="1" d="M5.74.2h.08c.06 0 .11.06.11.12v1.06c0 .06-.05.11-.11.11h-.08c-.06 0-.11-.05-.11-.11V.32c0-.06.05-.12.11-.12z" class="fil1 str0"/><path d="M6.78.2h.08c.06 0 .11.06.11.12v1.06c0 .06-.05.11-.11.11h-.08c-.06 0-.11-.05-.11-.11V.32c0-.06.05-.12.11-.12z" class="fil0"/><path id="1" d="M6.78.2h.08c.06 0 .11.06.11.12v1.06c0 .06-.05.11-.11.11h-.08c-.06 0-.11-.05-.11-.11V.32c0-.06.05-.12.11-.12z" class="fil1 str0"/><path d="M.83.69h.03C.91.69.95.65.95.6V.1C.95.05.91 0 .86 0H.83c-.06 0-.1.05-.1.1v.5c0 .05.04.09.1.09z" class="fil3"/><path id="1" d="M.83.69h.03C.91.69.95.65.95.6V.1C.95.05.91 0 .86 0H.83c-.06 0-.1.05-.1.1v.5c0 .05.04.09.1.09z" class="fil1 str0"/><path fill="#2b2a29" d="M.84 9.5c.04 0 .07-.04.07-.08V9c0-.04-.03-.07-.07-.07-.04 0-.07.03-.07.07v.42c0 .04.03.08.07.08z"/><path id="1" d="M.84 9.5c.04 0 .07-.04.07-.08V9c0-.04-.03-.07-.07-.07-.04 0-.07.03-.07.07v.42c0 .04.03.08.07.08z" class="fil1 str0"/><path d="M.11 6.02c.05 0 .1-.05.1-.11V2.15c0-.18.22-.23.32-.37.05-.07.01-.31 0-.3-.26.1-.53.31-.53.67v3.76c0 .06.05.11.11.11z" class="fil3"/><path id="1" d="M.11 6.02c.05 0 .1-.05.1-.11V2.15c0-.18.22-.23.32-.37.05-.07.01-.31 0-.3-.26.1-.53.31-.53.67v3.76c0 .06.05.11.11.11z" class="fil1 str0"/><path d="M1.28 3.98V1.35c0-.24-.2-.44-.44-.44s-.44.2-.44.44v2.63h.88z" class="fil3"/><path id="1" d="M1.28 3.98V1.35c0-.24-.2-.44-.44-.44s-.44.2-.44.44v2.63h.88z" class="fil1 str0"/><path fill="#f9d5d7" d="M.84 9.15c.18 0 .33-.93.33-1.13V4H.51v4.02c0 .2.15 1.13.33 1.13z"/><path id="1" d="M.84 9.15c.18 0 .33-.93.33-1.13V4H.51v4.02c0 .2.15 1.13.33 1.13z" class="fil1 str0"/><path d="M3.2 2.84h3.26M3.24 3.28H6.5M3.33 3.71h3.26M3.55 7.1h3.27M3.33 7.73h3.26M3.11 8.22h3.26" class="fil1 str0"/><path d="M12.52 2.28L16.89.24l-1.24 8.74-3.13-6.7zm1.28.54l1.4 3 .55-3.91-1.95.91z" class="fil6"/><path d="M12.39 2.21L16.76.17l-1.24 8.75-3.13-6.71zm1.28.55l1.4 3 .55-3.92-1.95.92z" class="fil0"/><path d="M12.45 2.36l.67-.31M13.12 3.78l.66-.31M13.78 5.2l.67-.31M14.44 6.62l.67-.31M15.11 8.04l.57-.27M12.59 2.64l.43-.2M12.72 2.93l.43-.21M12.85 3.21l.44-.2M12.99 3.49l.43-.2M13.25 4.06l.43-.2M13.38 4.35l.44-.21M13.52 4.63l.43-.2M13.65 4.91l.43-.2M13.91 5.48l.44-.2M14.05 5.77l.43-.21M14.18 6.05l.43-.2M14.31 6.33l.43-.2M14.58 6.9l.43-.2M14.71 7.19l.43-.21M14.84 7.47l.44-.2M14.97 7.75l.44-.2" class="fil1 str1"/><g><path d="M15.24 8.32l.39-.18" class="fil1 str1"/></g><g><path d="M15.37 8.61l.21-.1" class="fil1 str1"/></g><g><path d="M15.5 8.89l.02-.01" class="fil1 str1"/></g><path d="M12.49 5.63c.6 1.25.08 2.75-1.16 3.38l-2.2-4.6c1.26-.58 2.76-.04 3.36 1.22zm-.93 2.14c.5-.26.62-1.07.26-1.82-.36-.76-1.06-1.17-1.58-.94l1.32 2.76z" class="fil0"/><path d="M12.6 5.68l.01.01-.01-.02v.01zm.03.05c.08.17.13.35.17.52l-.41.08.02.11.41-.08c.03.18.04.36.03.54l-.42-.03-.01.11.42.03c-.01.19-.05.37-.11.54l-.4-.14-.04.1.41.14c-.06.18-.15.34-.24.5l-.37-.25-.06.09.36.25c-.1.15-.22.29-.36.41l-.29-.34-.08.07.29.35c-.15.12-.32.23-.5.33l-2.21-4.6c.84-.38 1.77-.28 2.49.2l-.24.35.09.06.24-.35c.14.11.28.23.4.37l-.32.28.07.08.32-.27c.11.14.21.29.29.45l-.37.19.04.09.38-.18zm.18.58c0 .01.01.02.01.03l-.01-.03zm.04.64v.03-.03zm-.86 1.74c-.01.01-.03.02-.04.04l.04-.04zm-.31-.87c.5-.26.62-1.07.25-1.82-.36-.76-1.06-1.17-1.57-.94l1.32 2.76z" class="fil6"/><path d="M12.63 5.73l-.38.18-.04-.09.37-.19.05.1zm-.68 3l-.29-.35.08-.07.29.34-.08.08zm.44-.49l-.36-.25.06-.09.37.25-.07.09zm.31-.59l-.41-.14.04-.1.41.14-.04.1zm.14-.64l-.42-.03.01-.11.42.03-.01.11zm-.02-.65l-.41.08-.02-.11.41-.08.02.11z" class="fil7"/><g><path d="M9.89 4.26l.08.45" class="fil1 str2"/></g><g><path d="M10.55 4.24l-.04.44" class="fil1 str2"/></g><g><path d="M11.19 4.39l-.14.4" class="fil1 str2"/></g><path d="M11.82 4.72l-.24.35-.09-.06.24-.35zM12.29 5.18l-.32.27-.07-.08.32-.28z" class="fil7"/></g></svg>