<svg xmlns="http://www.w3.org/2000/svg" width="64" height="71" fill-rule="evenodd" clip-rule="evenodd" image-rendering="optimizeQuality" shape-rendering="geometricPrecision" text-rendering="geometricPrecision" viewBox="0 0 4.46 5"><defs><style>.fil0{fill:#6fa691}.fil1,.fil4{fill:#2b2a29;fill-rule:nonzero}.fil4{fill:#6fa691}</style></defs><g id="Слой_x0020_1"><path d="M2.25 1.3l-.33-.04s.05.03-.19-.05c-.2-.06-.53-.04-.83.64-.4.88-.46 1.12-.45 1.29.01.25.18.68.54.63.02-.01.15.44.15.44s-.6-.04-.93-.47C-.2 3.21.09 2.26.25 1.87c.19-.42.27-.73.63-1C1.39.49 1.98.66 2.1.71c.27.13.25.37.15.59z" class="fil0"/><path id="1" d="M1.92 1.27v-.01l.34.04h-.01l-.33-.03zm0 0l-.01-.01h.01v.01zm-.19-.06l.03.01.02.01h.01l.02.01h.03l.01.01h.02l.01.01h.03l.01.01v-.01.01h.01-.03v-.01h-.03l-.01-.01h-.02l-.02-.01h-.01l-.02-.01h-.02l-.02-.01h-.02v-.01zm-.83.64l.02-.06.03-.06.03-.06.03-.05.03-.04.03-.05.03-.04.03-.04.02-.03.03-.03.03-.03.03-.03.03-.02.03-.02.02-.02.03-.02.03-.01.03-.01.02-.01.03-.01.02-.01h.03l.02-.01H1.65l.02.01h.02l.02.01h.02v.01l-.02-.01h-.02l-.02-.01h-.04l-.02-.01h-.05l-.03.01h-.05l-.02.01-.03.01-.02.01-.03.01-.03.02-.02.01-.03.02-.03.02-.03.03-.03.02-.02.03-.03.03-.03.04-.03.03-.03.04-.03.05-.03.05-.03.05-.02.05-.03.06-.03.06zM.45 3.14v-.13l.01-.02v-.02l.01-.02v-.03l.01-.03.01-.03.01-.03.01-.03.01-.04.01-.03.02-.04.01-.04.02-.05.02-.04.01-.05.02-.06.03-.05.02-.06.03-.06.02-.06.03-.07.03-.07.03-.07.04-.08.04-.08-.04.08-.03.08-.03.07-.03.07-.03.07-.03.06-.03.06-.02.06-.02.06-.02.05-.02.05-.02.04-.02.05-.01.04-.01.04-.02.03-.01.04-.01.03-.01.03-.01.03v.03l-.01.03v.02l-.01.02v.05l-.01.02v.08zm.54.63H.86l-.03-.01-.02-.01-.03-.01-.03-.01-.02-.02-.02-.01-.03-.02-.02-.02-.02-.02-.02-.03-.01-.02-.02-.02-.02-.03-.01-.02-.02-.03-.01-.03-.01-.03-.01-.02-.01-.03-.01-.03-.01-.03-.01-.02v-.03l-.01-.03v-.02l-.01-.03v-.05.03l.01.02v.05l.01.03.01.02v.03l.01.03.01.03.01.03.01.02.01.03.02.03.01.02.02.03.01.02.02.03.02.02.02.02.02.03.02.01.02.02.02.02.03.01.02.02.03.01.02.01h.03l.03.01h.1zm.15.43v.01-.02l-.01-.01v-.01l-.01-.02v-.01l-.01-.02V4.1l-.01-.01v-.02l-.01-.02-.01-.02v-.02l-.01-.02-.01-.02v-.02l-.01-.03-.01-.01v-.02l-.01-.02-.01-.02v-.01l-.01-.02v-.01L1 3.8v-.01l-.01-.01v-.01l.01.01.01.01v.02l.01.01v.01l.01.02v.02l.01.02.01.01v.02l.01.02.01.02v.02l.01.03.01.02v.02l.01.02.01.01v.02l.01.02v.02l.01.01v.01l.01.02v.03-.01zm0 .01zm-.93-.47l.03.04.04.04.03.03.03.03.04.03.04.03.04.03.03.02.04.02.04.03.04.02.04.01.04.02.04.02.03.01.04.01.03.01.04.01.03.01.03.01.03.01h.03l.03.01h.05l.01.01H1.14v.01h-.01l-.01-.01h-.06l-.02-.01H.99l-.03-.01-.03-.01-.03-.01H.87l-.04-.01-.03-.02-.04-.01-.04-.01-.03-.02-.04-.01-.04-.02-.04-.02-.04-.02-.04-.03-.04-.02-.03-.03-.04-.03-.04-.03-.03-.03-.04-.03-.03-.04-.03-.04zm.05-1.87l-.02.04-.02.04L.21 2l-.02.04-.02.05-.01.05-.02.06-.02.05-.01.06-.02.06-.01.06-.02.06-.01.07-.01.06-.01.07-.01.06-.01.07v.07L0 2.95v.13l.01.07.01.07v.06l.02.06.01.06.02.06.02.06.03.06.02.06.04.05.03.05-.04-.05-.03-.05-.03-.06-.02-.06-.02-.05-.02-.06-.02-.07-.01-.06-.01-.06v-.07L0 3.09v-.2l.01-.07.01-.07v-.06l.01-.07.02-.06.01-.07.01-.06.02-.06.01-.06.02-.06.01-.05.02-.06.02-.05.02-.05.01-.05.02-.04.02-.04.01-.04h.01zm.62-1L.85.9.82.92.79.95.76.98.73 1l-.02.03-.03.03-.02.02-.02.03-.03.03-.02.03-.02.03-.01.02-.02.03-.02.03-.02.03-.01.03-.02.04-.01.03-.02.03-.01.03-.02.04-.01.03-.02.03-.01.04-.02.04-.01.03-.02.04-.01.04-.02.03-.02.04-.01.04H.25l.02-.04.02-.04.01-.04.02-.03.01-.04.02-.04.01-.03.02-.04.01-.03.02-.04.01-.03.02-.03.01-.03.02-.04.01-.03.02-.03.02-.03.01-.03.02-.03.02-.03.02-.03.02-.02.02-.03.03-.03.02-.03.02-.02L.73 1 .76.97.78.95.81.92.85.9.88.87zM2.09.71h-.01L2.07.7 2.05.69h-.02L2.01.68 1.98.67h-.02L1.93.66 1.9.65h-.03L1.83.64H1.8L1.76.63H1.5l-.04.01-.05.01-.04.01-.05.01-.05.01-.05.01-.05.02-.05.02-.05.03-.04.02-.05.03-.05.03-.05.03.05-.03.04-.03.05-.03.05-.03.05-.02.05-.02.05-.02.05-.01.05-.02.04-.01.05-.01h.05L1.5.63h.3l.03.01h.04l.03.01.03.01h.03l.03.01.02.01h.02l.02.01.02.01h.01l.02.01h-.01zm.17.59h-.01l.01-.02.01-.02.01-.02v-.03l.01-.02.01-.02v-.02l.01-.02v-.06l.01-.02v-.02l-.01-.02V.95L2.3.93V.91L2.29.89 2.28.88 2.27.86 2.26.84 2.25.83 2.23.81 2.22.79 2.2.78 2.18.76 2.16.75 2.14.74 2.12.72 2.09.71h.01l.02.01.02.01.02.02.02.01.02.02.02.01.01.02.02.01.01.02.01.02.01.02.01.01.01.02v.02l.01.02v.02l.01.02v.1l-.01.02v.04l-.01.02-.01.02v.03l-.01.02-.01.02v.02l-.01.02h-.01.01zm0 0h-.01.01z" class="fil1"/><path fill="#f08bb2" fill-rule="nonzero" d="M1.12 1.43c0-.03-.02-.05-.04-.06-.03 0-.05.02-.06.04L.68 3.33s-.18.98.33 1.29c.04.02.06.04.09.06.23.14.47.3 1.15.31.75.02 1.59-.41 1.64-.43.04-.02.62-.26.57-.92-.06-.65-.34-1.61-.34-1.61-.01-.03-.04-.04-.06-.04-1.54-.15-1.09-.23-2.94-.56z"/><path id="1" d="M1.08 1.37h.01v.01h.02v.02h.01v.03-.02h-.01v-.02H1.1v-.01h-.02v-.01zm0 0zm-.06.04V1.4h.01v-.01l.01-.01h.01v-.01h.03-.02v.01h-.02v.01h-.01v.02h-.01zm0 0zM.69 3.33H.68l.34-1.92-.33 1.92zm.32 1.29l-.05-.03-.04-.04-.04-.03-.03-.04-.03-.05-.03-.04-.02-.05-.03-.05-.01-.05-.02-.06-.02-.05-.01-.05-.01-.06v-.05l-.01-.06v-.05l-.01-.05v-.2l.01-.04v-.08l.01-.04V3.4l.01-.03v-.04h.01-.01v.07l-.01.02v.07l-.01.04v.13l-.01.04v.05l.01.06v.1l.01.06.01.05.01.05.01.06.01.05.02.05.02.06.02.05.02.04.03.05.03.04.04.04.03.04.05.04.04.03zm.09.06l-.01-.01h-.01v-.01h-.01l-.01-.01h-.01v-.01h-.02v-.01h-.01v-.01h-.01.01v.01h.02v.01h.01l.01.01h.01v.01h.02v.01h.01v.01zM2.25 5l-.06-.01h-.12l-.06-.01h-.05l-.05-.01h-.05l-.04-.01-.05-.01h-.04l-.04-.01-.04-.01-.04-.01-.04-.01-.03-.01-.03-.01-.04-.01-.03-.02-.03-.01-.03-.01-.02-.01-.03-.02-.02-.01-.03-.01-.02-.02-.03-.01-.02-.01-.02-.02-.03-.01-.02-.02-.02-.01-.02-.01v-.01l.02.02.02.01.03.02.02.01.02.01.02.02.03.01.02.01.03.02.02.01.03.01.03.02.02.01.03.01.03.01.04.01.03.01.03.01.04.01.04.01.04.01.04.01.04.01.05.01h.04l.05.01.05.01h.11l.06.01h.12V5zm1.64-.44h-.01l-.01.01h-.02l-.02.01-.02.02-.03.01-.03.01-.03.02-.04.02-.04.01-.05.02-.05.02-.05.02-.05.02-.05.02-.06.02-.06.02-.06.02-.06.02-.07.02-.06.02-.07.02-.07.01-.07.02-.06.01-.08.01-.07.01-.07.01-.07.01h-.07L2.32 5h-.07v-.01H2.46l.07-.01.07-.01.07-.01.07-.01.07-.02.07-.01.07-.02.07-.02.06-.01.07-.02.06-.02.06-.02.06-.02.06-.02.05-.02.05-.02.05-.02.05-.02.04-.02.05-.02.03-.01.04-.02.03-.01.03-.02.02-.01.02-.01.02-.01h.01v-.01h.01v.01zm-.01-.01h.01-.01zm.58-.91v.18l-.01.05-.01.05-.01.05-.01.05-.02.04-.02.04-.02.04-.02.04-.03.04-.02.03-.03.03-.02.03-.03.03-.03.03-.02.02-.03.02-.03.02-.02.02-.03.02-.02.02L4 4.5l-.02.01-.02.01-.02.01-.01.01-.02.01H3.9l-.01.01v-.01h.01l.01-.01h.01l.02-.01.02-.01.02-.01L4 4.5l.02-.02.03-.01.02-.02.03-.02.03-.02.02-.02.03-.03.03-.02.03-.03.02-.03.03-.03.02-.04.03-.03.02-.04.02-.04.02-.04.01-.05.02-.04.01-.05.01-.05.01-.05v-.18zm-.34-1.61v.02l.01.02.01.02v.03l.01.03.01.04.01.04.02.04.01.05.01.05.01.05.02.05.01.06.02.06.01.06.02.06.01.07.02.07.01.06.02.07.01.07.01.06.02.07.01.07.01.07.01.07.01.06.01.07v.06l.01.06-.01-.06-.01-.06-.01-.07v-.06l-.01-.07-.02-.07-.01-.07-.01-.06-.01-.07-.02-.07-.01-.07-.02-.06-.01-.07-.02-.06-.01-.07-.02-.06-.01-.06-.01-.06-.02-.05-.01-.05-.01-.05-.02-.05-.01-.04-.01-.04-.01-.04-.01-.03-.01-.03v-.02l-.01-.02v-.02h-.01.01zm0 0zm-.06-.04h.03V2h.01l.01.01v.01h.01v.01h-.01v-.02H4.1V2h-.02v-.01h-.02V2v-.01zm0 .01zm-2.94-.57l.17.03.15.03.14.02.13.03.12.02.12.03.1.02.09.02.09.02.08.02.08.02.07.02.06.02.07.01.06.02.06.02.06.01.05.02.06.01.06.01.06.02.07.01.07.01.07.02.08.01.08.01.1.01.1.02.1.01.12.01.13.02.14.01V2l-.14-.02-.13-.01-.12-.02-.1-.01-.1-.01-.1-.01-.08-.02-.08-.01-.07-.01-.07-.02L3 1.85l-.06-.01-.06-.02-.06-.01-.06-.02-.05-.01-.06-.02-.06-.01-.07-.02-.06-.02-.07-.01-.08-.02-.08-.02-.09-.02-.09-.03-.1-.02-.12-.02-.12-.03-.13-.02-.14-.03-.16-.03-.16-.03zm0 0z" class="fil1"/><path d="M1.33.86L3.21.64s.53-.09.72.34c.35.77.18.98.18.98s-.1.33-.76.41c-.66.09-1.19-.11-1.51-.3-.32-.19-.59-.42-.75-.65-.08-.11-.2-.46.24-.56z" class="fil0"/><path id="1" d="M3.21.64L1.33.86 3.21.64zm0 0zm.72.34L3.91.94 3.89.91 3.87.87 3.84.84 3.82.82 3.79.79 3.77.77 3.74.75 3.71.73 3.68.71 3.65.7 3.62.68 3.59.67 3.56.66h-.03L3.5.65 3.47.64h-.08L3.36.63h-.08l-.02.01h-.05.01l.01-.01h.19l.02.01h.03l.03.01h.03l.03.01.03.01.03.01.03.01.03.02.03.02.03.01.03.03.03.02.02.02.03.03.02.03.02.04.02.03.02.04zm.18.98v-.01l.01-.01v-.01l.01-.01V1.9l.01-.01v-.06l.01-.02V1.7l-.01-.03v-.04l-.01-.04-.01-.04-.01-.04-.01-.05-.01-.05-.02-.05-.01-.06-.02-.05-.03-.07-.02-.06-.03-.07-.03-.07.03.07.03.07.03.06.02.06.02.06.02.06.01.05.02.05.01.05.01.04v.04l.01.04.01.04V1.86l-.01.01v.03l-.01.02v.01l-.01.01v.01l-.01.01zm0 0zm-.76.41l.06-.01h.06l.05-.02.06-.01.04-.01.05-.02.04-.01.04-.02.04-.01.03-.02.03-.02.03-.01.03-.02.02-.02.03-.02.02-.01.02-.02.01-.02.02-.01.01-.02.02-.02.01-.01.01-.01v-.02L4.09 2v-.01l.01-.01v-.01l.01-.01v.02H4.1v.01L4.09 2v.02l-.01.01-.01.01-.01.02-.01.01-.02.02-.01.01-.02.02-.02.02-.02.02-.02.01-.03.02-.03.02-.03.02-.03.01-.03.02-.04.02-.04.01-.04.02-.05.01-.04.02-.05.01-.06.01-.06.01-.06.01v-.01zm-1.51-.3l.03.01.03.02.04.02.03.02.04.01.03.02.04.02.04.02.04.01.04.02.04.01.05.02.04.01.05.02.04.01.05.01.05.01.05.01.05.01.05.01.05.01.05.01h.06l.05.01h.35l.06-.01.06-.01v.01h-.06l-.06.01h-.06l-.06.01H3l-.06-.01h-.11l-.06-.01-.05-.01h-.05l-.05-.01-.05-.01-.05-.01-.05-.02-.05-.01-.05-.01-.04-.01-.05-.02-.04-.01-.04-.02-.04-.01-.04-.02-.04-.02-.04-.01-.03-.02-.04-.02-.03-.02-.04-.02-.03-.01-.03-.02zm-.74-.65l.01.02.02.03.01.02.02.02.02.02.01.02.02.02.02.02.02.02.02.02.02.02.03.03.02.02.02.02.02.02.03.02.02.02.03.02.02.02.03.02.02.02.03.02.03.02.02.02.03.02.03.02.03.01.02.02.03.02.03.02.03.02.03.02-.03-.02-.03-.02-.03-.01L1.72 2l-.03-.02-.02-.02-.03-.02-.03-.02-.03-.02-.02-.02-.03-.02-.03-.02-.02-.02-.03-.02-.02-.02-.02-.02-.03-.02-.02-.02-.02-.02-.03-.02-.02-.02-.02-.02-.02-.03-.02-.02-.02-.02-.02-.02-.02-.02-.01-.02-.02-.02-.02-.02-.01-.02-.02-.02.01-.01zm.23-.56l-.04.01-.03.02-.04.01-.03.01-.02.02-.03.01-.02.02-.02.02-.02.01-.01.02-.02.02-.01.02-.01.02v.02l-.01.03V1.24l.01.02v.02l.01.02v.02l.01.02.01.01v.02l.01.02.01.01.01.01.01.01-.01.01-.01-.02V1.4l-.01-.01-.01-.02-.01-.01v-.02l-.01-.02-.01-.02v-.02l-.01-.02v-.02l-.01-.02v-.08l.01-.03v-.02l.01-.02.01-.02.01-.02.01-.02.02-.02.02-.02.02-.01.02-.02.02-.02.03-.01.03-.02.04-.01.03-.01.04-.01zm0 0z" class="fil1"/><path fill="#e3e3e3" d="M3.61 2.13s-.02-.11-.16-.1l-.3.02s-.13.03-.12.16c.01.11.04.37.04.37s.01.17.24.13c.2-.02.28-.04.28-.04s.13-.02.1-.19c-.02-.12-.08-.35-.08-.35z"/><path id="1" d="M3.45 2.02h.04l.01.01h.03l.01.01h.01l.01.01h.01v.01h.01v.01h.01v.02h.01v.02h.01v.02-.01H3.6V2.1l-.01-.01v-.01h-.01v-.01h-.01v-.01h-.01v-.01h-.01l-.01-.01h-.01l-.01-.01h-.07v-.01zm-.3.03H3.21v-.01H3.31l.02-.01h.11l.01-.01v.01H3.37l-.02.01h-.11l-.01.01h-.08zm0 0zm-.12.16v-.05l.01-.01v-.01l.01-.01v-.01l.01-.01.01-.01v-.01h.01v-.01h.01l.01-.01h.01l.01-.01h.01l.01-.01h.01v.01h-.03v.01h-.01l-.01.01h-.01l-.01.01-.01.01-.01.01v.01h-.01v.02l-.01.01v.06h-.01zm.04.37v-.03l-.01-.01v-.09l-.01-.02v-.09l-.01-.01v-.09l-.01-.01v-.02h.01V2.29l.01.02v.09l.01.02v.09l.01.01V2.58zm0 0zm.24.14h-.09l-.01-.01h-.03l-.01-.01h-.02l-.01-.01h-.01v-.01l-.01-.01h-.01l-.01-.01v-.01l-.01-.01-.01-.01v-.02l-.01-.01v-.02.01l.01.01v.02l.01.01.01.01v.01l.01.01.01.01.01.01h.01l.01.01h.01l.01.01h.01l.01.01h.03l.02.01h.03l.02-.01h.02v.01zm.28-.04H3.53l-.01.01h-.06l-.01.01H3.4l-.02.01h-.05l-.02.01v-.01h.04l.02-.01h.06l.01-.01H3.5l.01-.01H3.57l.01-.01h.01v.01zm0 0zm.1-.2V2.58l-.01.01v.01l-.01.01v.01l-.01.01v.01h-.01l-.01.01-.01.01h-.01v.01H3.6l-.01.01v-.01h.02v-.01h.02v-.01h.01v-.01h.01v-.01h.01v-.01h.01v-.01l.01-.01v-.02l.01-.01V2.48zm-.08-.35v.01h.01v.04l.01.01v.02l.01.01v.03l.01.01v.03l.01.01v.03l.01.02v.04l.01.01v.03l.01.01v.04-.01l-.01-.01v-.04l-.01-.01v-.03l-.01-.02v-.04l-.01-.01v-.03l-.01-.02v-.02l-.01-.01V2.2l-.01-.01v-.03l-.01-.01v-.02zm0 0z" class="fil1"/><path d="M3.67 2.48c.02 0 .04-.02.04-.04s-.02-.04-.04-.04l-.6.07c-.02 0-.04.02-.03.04 0 .03.02.04.04.04l.59-.07z" class="fil4"/><path id="1" d="M3.71 2.44v.02H3.7v.01h-.01v.01h-.02.02v-.01h.01v-.02h.01v-.01zm0 0zm-.05-.04h.02l.01.01h.01v.01h.01v.02-.01H3.7v-.01l-.01-.01h-.02l-.01-.01zm0 0zm-.59.07l.59-.07.01.01-.6.06zm-.03.04v-.03h.01l.01-.01h.01-.01v.01h-.01v.01h-.01v.02zm0 0zm.04.04h-.02v-.01h-.02v-.03.02h.01v.01h.01l.01.01h.01zm0 0zm.59-.07l-.59.07.59-.07zm0 0z" class="fil1"/><g><path d="M2.87.67L2.65.7s.23-.38-.02-.43c-.24-.05-.4.49-.4.49L1.91.8s.1-.74.63-.8c.53-.05.33.67.33.67z" class="fil0"/><path id="1" d="M2.65.7l.22-.03-.22.03zm0 0h-.01.01zM2.63.27l.02.01h.02l.02.01.01.01.02.02.01.01v.01l.01.02v.02l.01.01v.06l-.01.02v.02l-.01.02v.01l-.01.02v.02l-.01.02L2.7.6v.01l-.01.02-.01.01v.02l-.01.01-.01.01v.01h-.01V.7.69h.01V.68l.01-.01V.65l.01-.01.01-.01V.61L2.7.6l.01-.02V.56l.01-.02.01-.02V.5l.01-.01V.36L2.73.34 2.72.33 2.71.32 2.7.31 2.69.3 2.67.29 2.65.28 2.63.27zm-.4.48V.73l.01-.01V.71l.01-.02V.67l.01-.02.01-.02.01-.02.01-.02.01-.02.01-.03.01-.02.02-.02.01-.03.01-.02.02-.02.01-.03.02-.02.02-.02.02-.02.01-.01.02-.02L2.5.3l.02-.01.02-.01.02-.01h.07-.06l-.03.01-.02.01L2.5.3l-.02.01-.01.02-.02.02-.02.01-.02.02-.01.03-.02.02-.01.02-.02.02-.01.03-.01.02-.02.02-.01.03-.01.02-.01.02-.01.02v.02l-.01.02-.01.02v.02l-.01.01v.01l-.01.01v.02-.01zm0 .01zM1.91.8l.32-.05v.01L1.91.8zm0 0zm.63-.79h-.05l-.04.01-.04.02-.05.02-.03.02-.04.02-.04.02-.03.03-.03.03-.03.03-.02.04-.03.03-.02.03-.02.04-.02.04-.02.03-.02.04L2 .49l-.01.04-.02.03-.01.03-.01.03v.03l-.01.03-.01.03v.02l-.01.02v.04L1.91.8V.78l.01-.02V.73l.01-.02.01-.03V.65l.01-.03.01-.03.01-.03.01-.03L2 .49l.01-.03.02-.04.02-.04.01-.03.03-.04.02-.03.02-.04.03-.03.03-.03.03-.03.03-.03.04-.02.03-.03.04-.02.04-.02.05-.01.04-.01.05-.01v.01zm.33.66V.64l.01-.02V.6l.01-.02V.53L2.9.51V.45l.01-.04V.38L2.9.35V.29L2.89.25V.22L2.88.19 2.87.16 2.85.14 2.84.11 2.82.09 2.79.07 2.77.05 2.74.03 2.71.02 2.67.01h-.04L2.59 0l-.05.01V0h.09l.04.01.04.01.03.01.03.02.03.01.02.03.02.02.01.02.02.03.01.03.01.03.01.03v.04l.01.03v.13L2.9.48v.05l-.01.03v.05l-.01.01v.02l-.01.01v.02zm0 0z" class="fil1"/></g><g><path fill="#9ad0bb" fill-rule="nonzero" d="M4.42 3.38s-.02-.39-.37-.47c-.15-.03-.42 0-.7.05-.34.07-.69.17-.83.25-.14.07-.23.13-.31.23-.08.1-.13.23-.18.44 0 .04-.02.09-.03.14-.03.13-.06.27-.08.41-.03.28.02.52.33.56 1.85-.19 2.34-.81 2.17-1.61z"/><path id="1" d="M4.05 2.91l.03.01.03.01.03.01.03.02.02.01.03.02.02.01.02.02.02.02.01.02.02.02.01.02.02.02.01.02.01.02.01.02.01.02v.02l.01.01.01.02v.04l.01.01v.04l.01.01v.03h-.01V3.32L4.4 3.3v-.03l-.01-.02v-.01l-.01-.02-.01-.02-.01-.02v-.02l-.01-.02-.02-.02-.01-.02-.01-.02-.02-.02-.02-.02-.01-.02L4.24 3l-.02-.01-.03-.02-.02-.01-.03-.01-.03-.02-.03-.01h-.03v-.01zm-.7.05h.03l.02-.01h.03l.02-.01h.03l.03-.01h.05l.02-.01h.05l.03-.01h.07l.02-.01H3.99l.02.01h.04v.01l-.01-.01h-.07l-.01-.01H3.8l-.03.01H3.68l-.02.01h-.05l-.03.01h-.05l-.02.01h-.03l-.02.01h-.03l-.03.01h-.02l-.03.01v-.01zm-.83.25l.01-.01h.02l.01-.01.02-.01.02-.01.02-.01h.02l.02-.01.02-.01.02-.01.03-.01h.02l.03-.01.03-.01.02-.01.03-.01.03-.01h.03l.03-.01.03-.01.03-.01.03-.01h.03l.03-.01.03-.01.03-.01h.03l.03-.01.04-.01.03-.01h.03l.03-.01v.01h-.03l-.03.01h-.03l-.04.01-.03.01-.03.01h-.03l-.03.01-.03.01-.03.01h-.03l-.03.01-.03.01-.03.01-.03.01-.03.01h-.03l-.02.01-.03.01-.03.01-.02.01h-.02l-.03.01-.02.01-.02.01-.02.01-.02.01h-.02l-.02.01-.01.01-.02.01h-.01zm-.31.23l.01-.01v-.01l.01-.01h.01l.01-.01v-.01l.01-.01.01-.01h.01l.01-.01.01-.01.01-.01.01-.01.01-.01.01-.01h.01l.01-.01.01-.01h.01l.01-.01h.01l.01-.01.01-.01h.01l.02-.01.01-.01h.01l.01-.01.01-.01h.01l.02-.01-.01.01-.02.01h-.01l-.01.01-.01.01h-.01l-.01.01h-.02l-.01.01-.01.01h-.01l-.01.01-.01.01h-.01l-.01.01-.01.01h-.01v.01l-.01.01-.01.01H2.3l-.01.01-.01.01-.01.01h-.01v.01l-.01.01-.01.01-.01.01v.01h-.01l-.01.01zm-.18.44l.01-.02v-.02l.01-.02v-.03l.01-.02v-.02l.01-.01v-.02l.01-.02v-.01l.01-.02v-.01l.01-.01v-.02l.01-.01v-.01l.01-.02v-.01l.01-.01.01-.01v-.02l.01-.01v-.01l.01-.01.01-.01v-.01l.01-.01.01-.01v-.01l.01-.01.01-.01-.01.01v.01l-.01.01-.01.01v.01l-.01.01-.01.01v.01l-.01.01v.02l-.01.01-.01.01v.01l-.01.01v.02l-.01.01v.01l-.01.02v.01l-.01.02v.01l-.01.02v.01l-.01.02v.01l-.01.02v.02l-.01.02v.01l-.01.02v.04h-.01zm0 0zM2 4.02V4h.01v-.04l.01-.01v-.03l.01-.01v-.03h.01-.01v.04l-.01.01v.04h-.01v.04L2 4.02zm0 0zm-.08.41v-.02l.01-.01V4.34l.01-.02v-.04l.01-.01v-.04l.01-.01v-.04l.01-.01v-.03l.01-.01v-.04l.01-.01v-.03L2 4.04v-.02.03l-.01.02v.02l-.01.01v.04l-.01.01v.03l-.01.01v.04l-.01.01v.04l-.01.02v.05l-.01.01v.07h-.01zm.33.56h-.03l-.02-.01-.03-.01h-.02l-.03-.01-.02-.01-.02-.01-.02-.01-.01-.02-.02-.01-.01-.01L2 4.87l-.01-.02-.01-.01-.01-.02-.01-.02-.01-.02-.01-.02v-.02l-.01-.02V4.7l-.01-.02V4.6l-.01-.02v-.03l.01-.02v-.1h.01l-.01.02V4.65l.01.02v.05l.01.02.01.02v.02l.01.02.01.02.01.02.01.01.01.02.02.01.01.02.02.01.02.01.01.02.02.01.02.01h.03l.02.01.03.01h.02l.03.01zm0 0zm2.17-1.61l.01.07.01.08.01.07v.14l-.01.07-.01.07-.02.06-.02.07-.02.06-.04.06-.03.06-.04.06-.05.06-.06.05-.06.06-.06.05-.07.05-.08.04-.09.05-.09.04-.09.05-.11.04-.11.03-.11.04-.13.03-.13.03-.14.03-.15.03-.15.02-.16.02-.17.02.17-.02.16-.02.15-.03.15-.02.14-.03.13-.03.12-.04.12-.03.11-.04.11-.04.09-.04.09-.04.09-.05.07-.05.08-.05.06-.05.06-.05.05-.06.05-.05.04-.06.04-.06.03-.06.03-.06.02-.07.02-.06.01-.07.01-.07V3.6l-.01-.07-.01-.08-.02-.07h.01zm-.01 0z" class="fil1"/></g><path fill="none" d="M4.39 3.52S4.34 3.2 4 3.27c-.35.07-1.18.22-1.46.44-.15.12-.21.35-.22.69-.02.34.04.52.09.53"/><g><path d="M4.44 3.51s-.06-.37-.45-.29c-.02.01-.07.02-.13.03-.39.08-1.09.22-1.35.43-.09.06-.14.16-.18.28-.03.12-.05.26-.06.44-.01.15 0 .28.02.37.02.13.07.2.11.21l.02-.1c-.01 0-.02-.04-.04-.13-.01-.08-.02-.2-.01-.35 0-.16.02-.3.05-.41.03-.11.08-.19.15-.24.25-.19.93-.33 1.31-.41.04 0 .07-.01.13-.02.29-.06.33.2.33.21l.1-.02z" class="fil4"/><path id="1" d="M3.99 3.22h.03l.04-.01h.09l.03.01h.02l.02.01.03.01.02.01.02.01.01.02.02.01.02.02.01.01.01.02.01.01.01.02.01.01.01.02.01.01v.02l.01.01v.01l.01.02v.02l.01.01v.01h-.01v-.03l-.01-.01v-.02l-.01-.01v-.01l-.01-.02V3.4l-.01-.02-.01-.01-.01-.02-.01-.01-.01-.02-.02-.01-.01-.02-.02-.01-.02-.01-.01-.01-.02-.01-.03-.01-.02-.01-.02-.01h-.03l-.03-.01h-.03l-.03.01h-.04l-.03.01v-.01zm-.13.03h.01v-.01h.05l.01-.01h.04v-.01h.02v.01h-.05v.01h-.05v.01h-.03zm-1.35.42l.02-.02.03-.01.03-.02.03-.02.04-.02.04-.02.04-.01.04-.02.04-.02.04-.01.04-.02.05-.01.05-.02.04-.01.05-.02.05-.01.05-.01.04-.01.05-.02.05-.01.05-.01.05-.01.05-.01.04-.01.05-.01.05-.01.04-.01.04-.01.05-.01.04-.01.04-.01h.04l-.04.01-.04.01h-.04l-.05.01-.04.01-.04.01-.05.01-.05.01-.04.01-.05.01-.05.01-.05.01-.05.02-.04.01-.05.01-.05.01-.05.02-.05.01-.04.02-.05.01-.04.02-.05.01-.04.02-.04.01-.04.02-.04.02-.04.01-.03.02-.04.02-.03.02-.03.02-.02.02v-.01zm-.18.29v-.01l.01-.01v-.03l.01-.01v-.01l.01-.01v-.02l.01-.01v-.01l.01-.01v-.01l.01-.01V3.8h.01v-.01l.01-.01.01-.01v-.01l.01-.01v-.01h.01l.01-.01v-.01l.01-.01h.01l.01-.01v-.01h.01l.01-.01.01-.01v.01H2.5l-.01.01-.01.01-.01.01-.01.01-.01.01-.01.01v.01h-.01v.01l-.01.01-.01.01v.01l-.01.01v.01l-.01.01-.01.01v.01l-.01.01v.01l-.01.01v.01l-.01.01v.03l-.01.01v.02l-.01.01zm-.06.44v-.11l.01-.02V4.19l.01-.02v-.05l.01-.02v-.03l.01-.02v-.03l.01-.01v-.03l.01-.01v-.01.02l-.01.01v.03l-.01.01v.04l-.01.01v.05l-.01.01V4.2l-.01.01v.11l-.01.01v.07zm.01.37V4.71l-.01-.01v-.13l-.01-.01v-.09l.01-.02V4.4 4.67l.01.01v.07l.01.01v.01h-.01zm.13.21H2.4l-.01-.01h-.01l-.01-.01h-.01v-.01l-.01-.01-.01-.01v-.01l-.01-.01V4.9h-.01v-.02l-.01-.01v-.02l-.01-.01v-.02l-.01-.01v-.03l-.01-.01h.01v.03l.01.01v.02l.01.01v.02l.01.01v.02l.01.01v.01l.01.01.01.01v.01h.01v.01h.01v.01h.01v.01h.02l.01.01H2.4h.01zm0 0H2.4h.01zm.01-.1l-.01.1H2.4l.02-.1zm0 0h.01-.01zm-.04-.13v.01h.01v.05h.01v.03l.01.01v.02h.01v.01h-.01v-.02l-.01-.01v-.03h-.01v-.04l-.01-.01v-.02zm-.01-.35V4.47l-.01.01V4.54l.01.02V4.69l.01.01v.05-.02l-.01-.01v-.09l-.01-.01V4.4h.01zm.06-.41L2.42 4v.02l-.01.01v.03l-.01.02v.03l-.01.01v.07l-.01.01v.08l-.01.02V4.4h-.01v-.01l.01-.02v-.12l.01-.01v-.07l.01-.01v-.05l.01-.01v-.04l.01-.01v-.03l.01-.01v-.02h.01zm.14-.24l-.01.01-.01.01h-.01v.01l-.01.01-.01.01-.01.01v.01H2.5v.01l-.01.01-.01.01v.01l-.01.01v.01l-.01.01v.01l-.01.01v.01l-.01.01v.02l-.01.01v.03h-.01v-.01l.01-.01v-.02l.01-.01v-.02l.01-.01V3.9h.01v-.02l.01-.01v-.01h.01v-.02l.01-.01.01-.01v-.01h.01V3.8h.01v-.01l.01-.01h.01v-.01h.01v-.01h.01l.01-.01zm1.31-.4h-.03l-.04.01-.04.01-.04.01-.05.01h-.04l-.04.01-.05.01-.05.01-.04.01-.05.02-.05.01-.04.01-.05.01-.05.01-.05.01-.04.02-.05.01-.04.01-.05.02-.04.01-.04.02-.05.01-.04.02-.03.01-.04.02-.04.02-.03.01-.03.02-.03.02-.03.02-.02.01.02-.02.03-.02.03-.01.03-.02.03-.02.04-.01.03-.02.04-.02.04-.01.04-.02.05-.01.04-.01.05-.02.04-.01.05-.02.04-.01.05-.01.05-.01.05-.02.04-.01.05-.01.05-.01.04-.01.05-.01.05-.01.04-.01.04-.01.05-.01h.04l.04-.01.04-.01.03-.01v.01zm.13-.03h-.02l-.01.01h-.04l-.01.01h-.04l-.01.01v-.01h.04v-.01h.04l.01-.01h.04zm0 0zm.33.21v-.02h-.01v-.03h-.01v-.03l-.01-.01-.01-.01v-.01l-.01-.01-.01-.01-.01-.01-.01-.01-.01-.01-.01-.01-.01-.01-.02-.01-.01-.01h-.02l-.02-.01h-.01l-.02-.01h-.07l-.03.01h-.02l.02-.01H4.15l.02.01h.01l.02.01.02.01.01.01.01.01.01.01.02.01.01.01v.01l.01.01.01.01.01.01v.01l.01.01v.01l.01.01v.02l.01.01v.03zm0 0zm.1-.02l-.1.02v-.01l.1-.01zm0 0z" class="fil1"/></g></g></svg>