<svg xmlns="http://www.w3.org/2000/svg" width="137" height="65" fill-rule="evenodd" clip-rule="evenodd" image-rendering="optimizeQuality" shape-rendering="geometricPrecision" text-rendering="geometricPrecision" viewBox="0 0 324.28 153.86"><defs><style>.str0{stroke:#2b2a29;stroke-width:2.14;stroke-miterlimit:22.9256}.fil1{fill:none;fill-rule:nonzero}.fil3{fill:#f08bb2}.fil0{fill:#9ad0bb}</style></defs><g id="Слой_x0020_1"><path d="M.25 141.66c6.89.37 16.83.92 23.73 1.3 3.66-28.52 5.28-56.81 18.03-81.69L56.33 39l-6.69-28.14c-29.07-.68-34.66 28.05-41.6 60.2C3.07 94.05 2.58 124 .25 141.66z" class="fil0"/><path id="1" d="M.25 141.66c6.89.37 16.83.92 23.73 1.3 3.66-28.52 5.28-56.81 18.03-81.69L56.33 39l-6.69-28.14c-29.07-.68-34.66 28.05-41.6 60.2C3.07 94.05 2.58 124 .25 141.66z" class="fil1 str0"/><path d="M168.23 141.22c-6.9.38-16.83.92-23.73 1.3-3.66-28.52-5.28-56.8-18.03-81.69l-14.32-22.27 6.69-28.13c29.06-.68 34.66 28.05 41.6 60.19 4.97 23 5.46 52.95 7.79 70.6z" class="fil0"/><path id="1" d="M168.23 141.22c-6.9.38-16.83.92-23.73 1.3-3.66-28.52-5.28-56.8-18.03-81.69l-14.32-22.27 6.69-28.13c29.06-.68 34.66 28.05 41.6 60.19 4.97 23 5.46 52.95 7.79 70.6z" class="fil1 str0"/><path d="M167.82 141.24l-23.32 1.28.6 10.84 23.31-1.28z" class="fil0"/><path id="1" d="M167.82 141.24l-23.32 1.28.6 10.84 23.31-1.28z" class="fil1 str0"/><path fill="#6fa691" d="M62.45 6.87c0 11.21 10.1 20.31 22.55 20.31 12.45 0 22.54-9.1 22.54-20.31l12.22 3.77c-.41 11.81.69 25.94 2.7 36.16 1.2 6.16 3.11 11.36 5.52 15.56-3.76 26.08-3.22 53.89 0 82.77H42.01c2.38-26.89 3.93-54.16 0-83.86 2.13-4 3.82-8.83 4.93-14.47 1.99-10.15 3.09-24.17 2.7-35.94l12.81-3.99z"/><path id="1" d="M62.45 6.87c0 11.21 10.1 20.31 22.55 20.31 12.45 0 22.54-9.1 22.54-20.31l12.22 3.77c-.41 11.81.69 25.94 2.7 36.16 1.2 6.16 3.11 11.36 5.52 15.56-3.76 26.08-3.22 53.89 0 82.77H42.01c2.38-26.89 3.93-54.16 0-83.86 2.13-4 3.82-8.83 4.93-14.47 1.99-10.15 3.09-24.17 2.7-35.94l12.81-3.99z" class="fil1 str0"/><path d="M.66 141.68l23.32 1.28-.6 10.84-23.32-1.28z" class="fil0"/><path id="1" d="M.66 141.68l23.32 1.28-.6 10.84-23.32-1.28z" class="fil1 str0"/><path d="M79.75 21.94l9.7.26 8.67 101.11-11.03 15.79-13.79-16.59z" class="fil3"/><path id="1" d="M79.75 21.94l9.7.26 8.67 101.11-11.03 15.79-13.79-16.59z" class="fil1 str0"/><path d="M77.25 15.52h17.04c1.51 2.04-.22 17.08-1.74 16.52-4.54.93-9.18 1.09-14 0-1.47-.66-2.89-16.88-1.3-16.52z" class="fil3"/><path id="1" d="M77.25 15.52h17.04c1.51 2.04-.22 17.08-1.74 16.52-4.54.93-9.18 1.09-14 0-1.47-.66-2.89-16.88-1.3-16.52z" class="fil1 str0"/><path d="M66.8 38.08l16.28-24.09L70.87.08l-8.42 6.79 4.35 31.21zm37.18.18L87.69 14.18 99.91.27l8.41 6.79-4.34 31.2z" class="fil0"/><path id="1" d="M66.8 38.08l16.28-24.09L70.87.08l-8.42 6.79 4.35 31.21zm37.18.18L87.69 14.18 99.91.27l8.41 6.79-4.34 31.2z" class="fil1 str0"/><g><path d="M179.37 135.95c51.45 15.86 99.5 14.7 144.84 0-8.1-34.56-15.62-76.95-38.04-103.58h-69.21c-18.49 21.23-34.68 80.05-37.59 103.58z" class="fil3"/><path id="1" d="M179.37 135.95c51.45 15.86 99.5 14.7 144.84 0-8.1-34.56-15.62-76.95-38.04-103.58h-69.21c-18.49 21.23-34.68 80.05-37.59 103.58z" class="fil1 str0"/></g><g><path d="M228.57 32.11c-13.44 33.38-23.42 70.44-29.58 111.53l23.11 3.27 19.39-113.15-12.92-1.65z" class="fil3"/><path id="1" d="M228.57 32.11c-13.44 33.38-23.42 70.44-29.58 111.53l23.11 3.27 19.39-113.15-12.92-1.65z" class="fil1 str0"/></g><g><path d="M231.6 31.61c-5.95 40.28-10.18 79.95-13.31 117.42l23.3 1.37 3.03-118.2-13.02-.59z" class="fil3"/><path id="1" d="M231.6 31.61c-5.95 40.28-10.18 79.95-13.31 117.42l23.3 1.37 3.03-118.2-13.02-.59z" class="fil1 str0"/></g><g><path d="M280.61 31.15c12.21 33.86 24.57 71.08 29.22 112.37l-25.54 4.38-16.65-115.58 12.97-1.17z" class="fil3"/><path id="1" d="M280.61 31.15c12.21 33.86 24.57 71.08 29.22 112.37l-25.54 4.38-16.65-115.58 12.97-1.17z" class="fil1 str0"/></g><g><path d="M272.59 32.97c5.95 40.28 13.23 78.35 16.35 115.82l-25.45 1.97-3.91-117.19 13.01-.6z" class="fil3"/><path id="1" d="M272.59 32.97c5.95 40.28 13.23 78.35 16.35 115.82l-25.45 1.97-3.91-117.19 13.01-.6z" class="fil1 str0"/></g><g><path d="M245.17 33.15c-1.74 41.89-7.73 81.21-6.95 119.92l29.04.35c.6-39.37-2.38-81.31-9.09-121.05l-13 .78z" class="fil3"/><path id="1" d="M245.17 33.15c-1.74 41.89-7.73 81.21-6.95 119.92l29.04.35c.6-39.37-2.38-81.31-9.09-121.05l-13 .78z" class="fil1 str0"/></g><g><path d="M217.42 18.16c23.52 2.1 46.36 1.85 68.75 0v14.21c-23.11 2.89-46.03 2.94-68.75 0V18.16z" class="fil3"/><path id="1" d="M217.42 18.16c23.52 2.1 46.36 1.85 68.75 0v14.21c-23.11 2.89-46.03 2.94-68.75 0V18.16z" class="fil1 str0"/></g></g></svg>