<svg xmlns="http://www.w3.org/2000/svg" width="128" height="58" fill-rule="evenodd" clip-rule="evenodd" image-rendering="optimizeQuality" shape-rendering="geometricPrecision" text-rendering="geometricPrecision" viewBox="0 0 19.28 8.71"><path fill="#99CFBA" d="M18.08.7h-3.82c-.36 0-.76.32-.66.67l.55 1.96c.35 1.24-2.19 1.14-3.42 2.27-.86.79.02 1.76.39 1.76h7.48c1.02 0 .69-2.35.28-2.89-.83-2.07-.15-2.22-.14-3.1.01-.37-.29-.67-.66-.67zm-3.32 2.31c-.18 0-.32.15-.32.32 0 .18.14.32.32.32.17 0 .31-.14.31-.32 0-.17-.14-.32-.31-.32zm-.22-1.15c-.18 0-.32.15-.32.33 0 .17.14.32.32.32.17 0 .31-.15.31-.32 0-.18-.14-.33-.31-.33z"/><path fill="none" fill-rule="nonzero" stroke="#2B2A29" stroke-miterlimit="22.9256" stroke-width=".14" d="M18.08.7h-3.82c-.36 0-.76.32-.66.67l.55 1.96c.35 1.24-2.19 1.14-3.42 2.27-.86.79.02 1.76.39 1.76h7.48c1.02 0 .69-2.35.28-2.89-.83-2.07-.15-2.22-.14-3.1.01-.37-.29-.67-.66-.67zm-3.32 2.31c-.18 0-.32.15-.32.32 0 .18.14.32.32.32.17 0 .31-.14.31-.32 0-.17-.14-.32-.31-.32zm-.22-1.15c-.18 0-.32.15-.32.33 0 .17.14.32.32.32.17 0 .31-.15.31-.32 0-.18-.14-.33-.31-.33z"/><path fill="#6FA691" d="M11.7 5c-.35.16-.69.35-.97.6-.86.79.02 1.76.39 1.76h1.33c.01-.11.02-.22.02-.34 0-.81-.3-1.54-.77-2.02z"/><path fill="none" fill-rule="nonzero" stroke="#2B2A29" stroke-miterlimit="22.9256" stroke-width=".14" d="M11.7 5c-.35.16-.69.35-.97.6-.86.79.02 1.76.39 1.76h1.33c.01-.11.02-.22.02-.34 0-.81-.3-1.54-.77-2.02z"/><path fill="#6FA691" d="M17.18 7.36h1.42c1.02 0 .69-2.35.28-2.89-.01-.03-.03-.07-.04-.11-.97.25-1.69 1.31-1.69 2.58 0 .14.01.28.03.42z"/><path fill="none" fill-rule="nonzero" stroke="#2B2A29" stroke-miterlimit="22.9256" stroke-width=".14" d="M17.18 7.36h1.42c1.02 0 .69-2.35.28-2.89-.01-.03-.03-.07-.04-.11-.97.25-1.69 1.31-1.69 2.58 0 .14.01.28.03.42z"/><path fill="#6FA691" fill-rule="nonzero" d="M13.66 1.48c-.1-.48-.24-.86-.42-1.11-.09-.13-.2-.23-.31-.3-.12-.06-.24-.08-.38-.06-.08.02-.17.06-.26.12l-.03.02v.03c-.13.42.26.67.68.94.21.14.42.27.57.43l.21.22-.06-.29zM13.1.47c.13.19.24.45.33.78-.13-.1-.26-.19-.39-.27-.36-.23-.68-.44-.63-.72.06-.04.12-.06.18-.08.09-.01.18 0 .26.05.09.04.17.13.25.24z"/><path fill="none" fill-rule="nonzero" stroke="#2B2A29" stroke-miterlimit="22.9256" stroke-width=".14" d="M13.66 1.48c-.1-.48-.24-.86-.42-1.11-.09-.13-.2-.23-.31-.3-.12-.06-.24-.08-.38-.06-.08.02-.17.06-.26.12l-.03.02v.03c-.13.42.26.67.68.94.21.14.42.27.57.43l.21.22-.06-.29zM13.1.47c.13.19.24.45.33.78-.13-.1-.26-.19-.39-.27-.36-.23-.68-.44-.63-.72.06-.04.12-.06.18-.08.09-.01.18 0 .26.05.09.04.17.13.25.24z"/><path fill="#99CFBA" d="M18.81 7.64h-7.86c-.21 0-.37.17-.37.37v.33c0 .2.16.37.37.37h7.86c.21 0 .37-.17.37-.37v-.33c0-.2-.16-.37-.37-.37z"/><path fill="none" fill-rule="nonzero" stroke="#2B2A29" stroke-miterlimit="22.9256" stroke-width=".14" d="M18.81 7.64h-7.86c-.21 0-.37.17-.37.37v.33c0 .2.16.37.37.37h7.86c.21 0 .37-.17.37-.37v-.33c0-.2-.16-.37-.37-.37z"/><path fill="#6FA691" d="M18.69 7.64h-.64c0 .35-.03.73-.07 1.07h.65c.03-.33.05-.71.06-1.07z"/><path fill="none" fill-rule="nonzero" stroke="#2B2A29" stroke-miterlimit="22.9256" stroke-width=".14" d="M18.69 7.64h-.64c0 .35-.03.73-.07 1.07h.65c.03-.33.05-.71.06-1.07z"/><path fill="#6FA691" d="M17.4 7.64h-.64c-.01.35-.03.73-.06 1.07h.64c.03-.34.05-.72.06-1.07z"/><path fill="none" fill-rule="nonzero" stroke="#2B2A29" stroke-miterlimit="22.9256" stroke-width=".14" d="M17.4 7.64h-.64c-.01.35-.03.73-.06 1.07h.64c.03-.34.05-.72.06-1.07z"/><path fill="#6FA691" d="M16.14 7.64h-.64c0 .34-.02.72-.05 1.07h.64c.03-.35.05-.73.05-1.07z"/><path fill="none" fill-rule="nonzero" stroke="#2B2A29" stroke-miterlimit="22.9256" stroke-width=".14" d="M16.14 7.64h-.64c0 .34-.02.72-.05 1.07h.64c.03-.35.05-.73.05-1.07z"/><path fill="#6FA691" d="M11.93 7.64h-.64c-.03.37-.04.75-.04 1.07h.64c0-.33.01-.71.04-1.07z"/><path fill="none" fill-rule="nonzero" stroke="#2B2A29" stroke-miterlimit="22.9256" stroke-width=".14" d="M11.93 7.64h-.64c-.03.37-.04.75-.04 1.07h.64c0-.33.01-.71.04-1.07z"/><path fill="#6FA691" d="M13.28 7.64h-.64c-.03.35-.04.73-.05 1.07h.65c-.01-.35.01-.73.04-1.07z"/><path fill="none" fill-rule="nonzero" stroke="#2B2A29" stroke-miterlimit="22.9256" stroke-width=".14" d="M13.28 7.64h-.64c-.03.35-.04.73-.05 1.07h.65c-.01-.35.01-.73.04-1.07z"/><path fill="#6FA691" d="M14.72 7.64h-.69v1.07h.69z"/><path fill="none" fill-rule="nonzero" stroke="#2B2A29" stroke-miterlimit="22.9256" stroke-width=".14" d="M14.72 7.64h-.69v1.07h.69z"/><path fill="#6FA691" fill-rule="nonzero" d="M13.42 1.7c-.46-.15-.86-.21-1.17-.17-.16.01-.3.06-.41.13-.11.07-.19.17-.23.3-.03.08-.04.18-.02.29v.03l.02.02c.31.31.72.09 1.16-.15.21-.11.44-.23.65-.29l.29-.08-.29-.08zm-1.15 0c.23-.03.51 0 .84.09-.14.06-.28.13-.42.21-.37.2-.72.38-.93.2-.01-.08 0-.14.02-.19.02-.09.08-.16.16-.21.08-.05.19-.09.33-.1z"/><path fill="none" fill-rule="nonzero" stroke="#2B2A29" stroke-miterlimit="22.9256" stroke-width=".14" d="M13.42 1.7c-.46-.15-.86-.21-1.17-.17-.16.01-.3.06-.41.13-.11.07-.19.17-.23.3-.03.08-.04.18-.02.29v.03l.02.02c.31.31.72.09 1.16-.15.21-.11.44-.23.65-.29l.29-.08-.29-.08zm-1.15 0c.23-.03.51 0 .84.09-.14.06-.28.13-.42.21-.37.2-.72.38-.93.2-.01-.08 0-.14.02-.19.02-.09.08-.16.16-.21.08-.05.19-.09.33-.1z"/><path fill="#99CFBA" d="M6.07 7.87l-.18-.43-.75-.22-.45.23L.45 6.09c-.38-.43-.56-.92-.36-1.44 2.6.78 5.17 1.82 7.77 2.6-.1.43-.14.8-.35 1.07l-1.44-.45z"/><path fill="none" fill-rule="nonzero" stroke="#2B2A29" stroke-miterlimit="22.9256" stroke-width=".14" d="M6.07 7.87l-.18-.43-.75-.22-.45.23L.45 6.09c-.38-.43-.56-.92-.36-1.44 2.6.78 5.17 1.82 7.77 2.6-.1.43-.14.8-.35 1.07l-1.44-.45z"/><path fill="#F08BB2" d="M9.21 2.97c-1.9.89-3.04.42-4.13-1.05C3.06 4.97 1.23 1.86.11 4.6c0 .69 3.59 1.44 5.58 2.13 1.11.39 1.98.67 2.17.52.71-1.16.9-2.85 1.35-4.28z"/><path fill="none" fill-rule="nonzero" stroke="#2B2A29" stroke-miterlimit="22.9256" stroke-width=".14" d="M9.21 2.97c-1.9.89-3.04.42-4.13-1.05C3.06 4.97 1.23 1.86.11 4.6c0 .69 3.59 1.44 5.58 2.13 1.11.39 1.98.67 2.17.52.71-1.16.9-2.85 1.35-4.28z"/><path fill="#F5B2B6" d="M1.53 3.35C.99 3.39.5 3.63.11 4.6v.03c0 .01.01.02.01.03 0 .01.01.02.01.03v.01c.01.01.01.02.02.03.01.01.01.02.02.03l.03.03.03.03v.01c.01.01.02.02.04.03.01.01.02.02.04.03.01.01.03.02.04.03l.01.01c.01.01.02.02.04.03.02.01.03.02.05.03h.01c.01.01.03.02.04.03l.02.01c.01.01.03.02.04.03h.01l.06.03h.01l.06.03.01.01c.02.01.03.02.05.02l.02.01c.02.01.03.02.05.03l.02.01c.02 0 .04.01.06.02l.02.01.06.03h.02l.06.03.03.01.05.02.04.01.04.02.06.02.03.01.06.02.05.02.03.01.06.03.03.01.06.02.05.02.04.01.07.02c.1-.66.1-1.51-.24-2.19zm-.6 1.88l.06.03z"/><path fill="none" fill-rule="nonzero" stroke="#2B2A29" stroke-miterlimit="22.9256" stroke-width=".14" d="M1.53 3.35C.99 3.39.5 3.63.11 4.6v.03h0c0 .01.01.02.01.03h0c0 .01.01.02.01.03v.01c.01.01.01.02.02.03h0c.01.01.01.02.02.03h0l.03.03h0l.03.03v.01c.01.01.02.02.04.03h0c.01.01.02.02.04.03h0c.01.01.03.02.04.03l.01.01c.01.01.02.02.04.03h0c.02.01.03.02.05.03h.01c.01.01.03.02.04.03l.02.01c.01.01.03.02.04.03h.01l.06.03h.01l.06.03.01.01c.02.01.03.02.05.02l.02.01c.02.01.03.02.05.03l.02.01c.02 0 .04.01.06.02l.02.01.06.03h.02l.06.03.03.01.05.02.04.01.04.02.06.02.03.01.06.02.05.02.03.01.06.03.03.01.06.02.05.02.04.01.07.02c.1-.66.1-1.51-.24-2.19zm-.6 1.88l.06.03z"/><path fill="#F5B2B6" d="M9.07 3.99c-.7.49-2.23-.11-4.05-.77-.17-.06-.74-.93-.65-1.05.5-.73 1.08-.99 1.76-.43.36.61-.13.81.16.93 1.91.84 2.24-.22 2.83.13.43.24.17.87-.05 1.19z"/><path fill="none" fill-rule="nonzero" stroke="#2B2A29" stroke-miterlimit="22.9256" stroke-width=".14" d="M9.07 3.99c-.7.49-2.23-.11-4.05-.77-.17-.06-.74-.93-.65-1.05.5-.73 1.08-.99 1.76-.43.36.61-.13.81.16.93 1.91.84 2.24-.22 2.83.13.43.24.17.87-.05 1.19z"/><path fill="#99CFBA" d="M4.43 1.98c-.11.08-.41.3-.33.43l.71 1.11c.1.16.43-.03.56-.11.1-.07.13-.2.06-.29l-.71-1.08c-.06-.1-.19-.12-.29-.06z"/><path fill="none" fill-rule="nonzero" stroke="#2B2A29" stroke-miterlimit="22.9256" stroke-width=".14" d="M4.43 1.98c-.11.08-.41.3-.33.43l.71 1.11c.1.16.43-.03.56-.11.1-.07.13-.2.06-.29l-.71-1.08c-.06-.1-.19-.12-.29-.06z"/><path fill="#99CFBA" d="M3.6 2.36c-.12.08-.41.31-.33.43l.71 1.11c.1.16.43-.03.56-.11.1-.07.12-.2.06-.29l-.71-1.08c-.07-.1-.2-.12-.29-.06z"/><path fill="none" fill-rule="nonzero" stroke="#2B2A29" stroke-miterlimit="22.9256" stroke-width=".14" d="M3.6 2.36c-.12.08-.41.31-.33.43l.71 1.11c.1.16.43-.03.56-.11.1-.07.12-.2.06-.29l-.71-1.08c-.07-.1-.2-.12-.29-.06z"/></svg>