<svg xmlns="http://www.w3.org/2000/svg" width="119" height="56" fill-rule="evenodd" clip-rule="evenodd" image-rendering="optimizeQuality" shape-rendering="geometricPrecision" text-rendering="geometricPrecision" viewBox="0 0 16.24 7.61"><path fill="#F5B2B6" fill-rule="nonzero" d="M5.21.34C4.2.76 3.06 1.56 2.03 2.59 1.06 3.55.46 4.5.18 5.31c-.3.88-.22 1.6.2 2.02.39.39 1.13.35 2.03-.04.91-.4 1.97-1.15 2.98-2.16.43-.42.82-.85 1.16-1.26.61-.74 1.04-1.44 1.24-2.06.19-.59.14-1.1-.22-1.46-.03-.03-.06-.06-.1-.09-.49-.39-1.31-.32-2.26.08z"/><path fill="none" fill-rule="nonzero" stroke="#2B2A29" stroke-miterlimit="22.9256" stroke-width=".12" d="M5.21.34C4.2.76 3.06 1.56 2.03 2.59 1.06 3.55.46 4.5.18 5.31c-.3.88-.22 1.6.2 2.02.39.39 1.13.35 2.03-.04.91-.4 1.97-1.15 2.98-2.16.43-.42.82-.85 1.16-1.26.61-.74 1.04-1.44 1.24-2.06.19-.59.14-1.1-.22-1.46-.03-.03-.06-.06-.1-.09h0c-.49-.39-1.31-.32-2.26.08z"/><path fill="#F08BB2" fill-rule="nonzero" d="M2.13 5.12c-.02-.05-.07-.13-.11-.22-.19-.4-.35-.73-.48-.77l-.6 1.25c.4.06.76-.02 1.13-.11.02 0 .05-.01.07-.01l.08-.02v.08c.02.26.06.5.13.73.06.21.14.41.23.61.58-.28.87-.68 1.17-1.08-.24-.07-.49-.14-.74-.2-.28-.07-.57-.14-.84-.22l-.03-.01-.01-.03z"/><path fill="none" fill-rule="nonzero" stroke="#2B2A29" stroke-miterlimit="22.9256" stroke-width=".12" d="M2.13 5.12c-.02-.05-.07-.13-.11-.22-.19-.4-.35-.73-.48-.77l-.6 1.25c.4.06.76-.02 1.13-.11h0c.02 0 .05-.01.07-.01l.08-.02v.08c.02.26.06.5.13.73.06.21.14.41.23.61.58-.28.87-.68 1.17-1.08-.24-.07-.49-.14-.74-.2-.28-.07-.57-.14-.84-.22l-.03-.01-.01-.03z"/><path fill="#99CFBA" fill-rule="nonzero" d="M5.43.63c-.91.44-1.92 1.22-2.62 1.92-1.15 1.14-.64 1.66-.16 2.13.01.02.03.03.05.05.37.24.92.27 1.55.07.59-.19 1.23-.58 1.83-1.17.35-.36.67-.73.92-1.09.27-.41.46-.8.52-1.15.06-.34 0-.63-.22-.85-.04-.05-.09-.09-.15-.12C6.77.15 6.13.29 5.43.63z"/><path fill="none" fill-rule="nonzero" stroke="#2B2A29" stroke-miterlimit="22.9256" stroke-width=".12" d="M5.43.63c-.91.44-1.92 1.22-2.62 1.92-1.15 1.14-.64 1.66-.16 2.13.01.02.03.03.05.05.37.24.92.27 1.55.07.59-.19 1.23-.58 1.83-1.17.35-.36.67-.73.92-1.09.27-.41.46-.8.52-1.15.06-.34 0-.63-.22-.85-.04-.05-.09-.09-.15-.12C6.77.15 6.13.29 5.43.63z"/><path fill="#99CFBA" fill-rule="nonzero" d="M6.72 5.77c.47.13.94.23 1.43.31.5.07 1.02.11 1.58.12.02-.06.05-.12.07-.18.03-.09.06-.17.09-.24l.02-.04h.05c1.62.17 2.83.2 3.72.16.89-.04 1.45-.15 1.76-.27l-.22.01c-2.71.08-5.48.16-8.97-.73.06.13.13.25.21.37.09.16.18.32.26.49z"/><path fill="none" fill-rule="nonzero" stroke="#2B2A29" stroke-miterlimit="22.9256" stroke-width=".12" d="M6.72 5.77c.47.13.94.23 1.43.31.5.07 1.02.11 1.58.12.02-.06.05-.12.07-.18.03-.09.06-.17.09-.24l.02-.04h.05c1.62.17 2.83.2 3.72.16.89-.04 1.45-.15 1.76-.27l-.22.01c-2.71.08-5.48.16-8.97-.73.06.13.13.25.21.37.09.16.18.32.26.49z"/><path fill="#F5B2B6" fill-rule="nonzero" d="M8.9 3.62c-.88-.21-1.72-.44-2.56-.69-.13.27-.22.55-.25.85-.04.3-.01.63.11.98 3.52.9 6.29.82 9.02.74.16 0 .31 0 .48-.01.25-.15.41-.32.49-.49.04-.08.05-.17.05-.25 0-.08-.03-.16-.07-.23-.09-.15-.25-.28-.48-.38-.66-.31-1.27-.58-1.85-.81-.55-.22-1.07-.4-1.57-.54-.02.1-.04.22-.05.33-.06.43-.13.88-.38 1.05l-.02.01h-.02c-1.06-.16-2-.35-2.9-.56z"/><path fill="none" fill-rule="nonzero" stroke="#2B2A29" stroke-miterlimit="22.9256" stroke-width=".12" d="M8.9 3.62c-.88-.21-1.72-.44-2.56-.69-.13.27-.22.55-.25.85-.04.3-.01.63.11.98 3.52.9 6.29.82 9.02.74.16 0 .31 0 .48-.01.25-.15.41-.32.49-.49.04-.08.05-.17.05-.25 0-.08-.03-.16-.07-.23-.09-.15-.25-.28-.48-.38h0c-.66-.31-1.27-.58-1.85-.81-.55-.22-1.07-.4-1.57-.54-.02.1-.04.22-.05.33-.06.43-.13.88-.38 1.05l-.02.01h-.02c-1.06-.16-2-.35-2.9-.56z"/><path fill="#F08BB2" fill-rule="nonzero" d="M13 3.23c.05.05.09.1.13.15.28.31.56.64.94.84.09-.04.2-.35.33-.68.02-.08.05-.15.07-.2.05-.14.12-.29.17-.41.05-.13.1-.24.12-.3-.22.03-.47.09-.72.18-.33.11-.68.26-1.01.41l-.03.01z"/><path fill="none" fill-rule="nonzero" stroke="#2B2A29" stroke-miterlimit="22.9256" stroke-width=".12" d="M13 3.23c.05.05.09.1.13.15.28.31.56.64.94.84.09-.04.2-.35.33-.68.02-.08.05-.15.07-.2.05-.14.12-.29.17-.41.05-.13.1-.24.12-.3-.22.03-.47.09-.72.18-.33.11-.68.26-1.01.41l-.03.01z"/><path fill="#F08BB2" fill-rule="nonzero" d="M12.91 3.13l.01.01.03-.02c.17-.19.37-.36.58-.54.3-.26.6-.52.79-.8-.1-.15-.25-.27-.46-.36-.2-.08-.46-.13-.78-.14-.07.27-.11.95-.15 1.54-.01.11-.02.21-.02.31z"/><path fill="none" fill-rule="nonzero" stroke="#2B2A29" stroke-miterlimit="22.9256" stroke-width=".12" d="M12.91 3.13l.01.01.03-.02c.17-.19.37-.36.58-.54.3-.26.6-.52.79-.8-.1-.15-.25-.27-.46-.36-.2-.08-.46-.13-.78-.14-.07.27-.11.95-.15 1.54-.01.11-.02.21-.02.31z"/></svg>