<svg xmlns="http://www.w3.org/2000/svg" width="67" height="60" fill-rule="evenodd" clip-rule="evenodd" image-rendering="optimizeQuality" shape-rendering="geometricPrecision" text-rendering="geometricPrecision" viewBox="0 0 23.08 20.5"><path fill="#F5B2B6" d="M7.86 12.89c2.21-1.44 3.13-4.09 5.05-6.17 1.19-1.3 3.1-2 3.9-4.07.92-1.42-.34-2.75-2.3-2.34C9.5 1.3 5.85 3.68 2.42 7.35c-3.57 4.52 1.61 7.9 5.44 5.54z"/><path fill="none" fill-rule="nonzero" stroke="#2B2A29" stroke-miterlimit="22.9256" stroke-width=".31" d="M7.86 12.89c2.21-1.44 3.13-4.09 5.05-6.17 1.19-1.3 3.1-2 3.9-4.07.92-1.42-.34-2.75-2.3-2.34C9.5 1.3 5.85 3.68 2.42 7.35c-3.57 4.52 1.61 7.9 5.44 5.54z"/><path fill="#99CFBA" d="M7.21 13.05c2.2-1.44 2.95-3.79 4.7-6.28 1.01-1.45 3.56-2.92 4.55-4.34.92-1.42-.34-2.75-2.3-2.35-5.01.99-8.97 3.76-12.39 7.43-3.57 4.53 1.61 7.9 5.44 5.54z"/><path fill="none" fill-rule="nonzero" stroke="#2B2A29" stroke-miterlimit="22.9256" stroke-width=".31" d="M7.21 13.05c2.2-1.44 2.95-3.79 4.7-6.28 1.01-1.45 3.56-2.92 4.55-4.34.92-1.42-.34-2.75-2.3-2.35-5.01.99-8.97 3.76-12.39 7.43-3.57 4.53 1.61 7.9 5.44 5.54z"/><path fill="#F5B2B6" d="M.76 10.24c1.99-2.06 6.92-3.41 10.81-2.12.22-.41.61-.93.7-1.36C6.8 6.36 1.78 7.25.01 8.75c.25.49.5.99.75 1.49z"/><path fill="none" fill-rule="nonzero" stroke="#2B2A29" stroke-miterlimit="22.9256" stroke-width=".31" d="M.76 10.24c1.99-2.06 6.92-3.41 10.81-2.12.22-.41.61-.93.7-1.36C6.8 6.36 1.78 7.25.01 8.75c.25.49.5.99.75 1.49z"/><path fill="#BDD180" d="M3.34 4.54c2.1.54 3.09 3.47 2.93 9.43.58-.26 1.16-.53 1.74-.79-.23-5.49-1.59-7.97-3.28-9.55-.46.3-.93.6-1.39.91z"/><path fill="none" fill-rule="nonzero" stroke="#2B2A29" stroke-miterlimit="22.9256" stroke-width=".31" d="M3.34 4.54c2.1.54 3.09 3.47 2.93 9.43.58-.26 1.16-.53 1.74-.79-.23-5.49-1.59-7.97-3.28-9.55-.46.3-.93.6-1.39.91z"/><path fill="#F5B2B6" d="M10.93 15.15c.8-2.51 4.29-2.48 6.05-5.63.86-1.55 2.12-3.33 3.22-4.66 1.12-1.27 2.74-.41 2.87 1.59.11 3.14-1.84 8.03-4.46 12.31-3.48 2.61-8.94.71-7.68-3.61z"/><path fill="none" fill-rule="nonzero" stroke="#2B2A29" stroke-miterlimit="22.9256" stroke-width=".31" d="M10.93 15.15c.8-2.51 4.29-2.48 6.05-5.63.86-1.55 2.12-3.33 3.22-4.66 1.12-1.27 2.74-.41 2.87 1.59.11 3.14-1.84 8.03-4.46 12.31-3.48 2.61-8.94.71-7.68-3.61z"/><path fill="#99CFBA" d="M10.03 15.09c.8-2.51 4.3-2.48 6.06-5.64.86-1.54 2.11-3.32 3.22-4.65 1.12-1.27 2.74-.41 2.87 1.59.11 3.14-1.57 8.31-4.19 12.58-2.96 3.5-9.21.44-7.96-3.88z"/><path fill="none" fill-rule="nonzero" stroke="#2B2A29" stroke-miterlimit="22.9256" stroke-width=".31" d="M10.03 15.09c.8-2.51 4.3-2.48 6.06-5.64.86-1.54 2.11-3.32 3.22-4.65 1.12-1.27 2.74-.41 2.87 1.59.11 3.14-1.57 8.31-4.19 12.58-2.96 3.5-9.21.44-7.96-3.88z"/><path fill="#F5B2B6" d="M12.57 11.43c2.16-.22 5.02 3.13 5.93 8.17.45-.45.55-1.35 1.01-1.8-2.1-5.07-3.46-6.62-5.59-7.53-.33.44-1.02.71-1.35 1.16z"/><path fill="none" fill-rule="nonzero" stroke="#2B2A29" stroke-miterlimit="22.9256" stroke-width=".31" d="M12.57 11.43c2.16-.22 5.02 3.13 5.93 8.17.45-.45.55-1.35 1.01-1.8-2.1-5.07-3.46-6.62-5.59-7.53-.33.44-1.02.71-1.35 1.16z"/><path fill="#BDD180" d="M9.87 15.96c1.99-2.06 8.02-3.73 10.8-1.38.22-.41.31-.6.4-1.03-2.97-1.97-8.92-.91-11.13.33 0 0-.38 1.3-.07 2.08z"/><path fill="none" fill-rule="nonzero" stroke="#2B2A29" stroke-miterlimit="22.9256" stroke-width=".31" d="M9.87 15.96c1.99-2.06 8.02-3.73 10.8-1.38.22-.41.31-.6.4-1.03-2.97-1.97-8.92-.91-11.13.33 0 0-.38 1.3-.07 2.08z"/></svg>