<svg xmlns="http://www.w3.org/2000/svg" width="122" height="55" fill-rule="evenodd" clip-rule="evenodd" image-rendering="optimizeQuality" shape-rendering="geometricPrecision" text-rendering="geometricPrecision" viewBox="0 0 211.75 95.9"><path fill="#F08BB2" d="M28.91 40.47c16.31-1.62 24.74 18.4 47.1 20.68 10.95 1.11 24.2 3.9 34.51 6.93 10.03 3.24 9.11 14.63-1.99 20.29-17.69 8.37-50.42 9.31-81.3 4.89C7.92 88.65 4.61 78.59 2.87 69.03.49 55.98 12.89 42.47 28.91 40.47z"/><path fill="none" fill-rule="nonzero" stroke="#2B2A29" stroke-miterlimit="22.9256" stroke-width="1.56" d="M28.91 40.47c16.31-1.62 24.74 18.4 47.1 20.68 10.95 1.11 24.2 3.9 34.51 6.93 10.03 3.24 9.11 14.63-1.99 20.29-17.69 8.37-50.42 9.31-81.3 4.89C7.92 88.65 4.61 78.59 2.87 69.03.49 55.98 12.89 42.47 28.91 40.47z"/><path fill="#6FA691" d="M23.28 38.11c16.31-1.62 28.53 15.52 50.88 17.79 10.96 1.11 24.2 3.9 34.52 6.93 10.02 3.25 9.11 14.63-1.99 20.29-17.69 8.37-51.32 11.55-82.2 7.13-27.26-8.28-37.09-46.69-1.21-52.14z"/><path fill="none" fill-rule="nonzero" stroke="#2B2A29" stroke-miterlimit="22.9256" stroke-width="1.56" d="M23.28 38.11c16.31-1.62 28.53 15.52 50.88 17.79 10.96 1.11 24.2 3.9 34.52 6.93 10.02 3.25 9.11 14.63-1.99 20.29-17.69 8.37-51.32 11.55-82.2 7.13-27.26-8.28-37.09-46.69-1.21-52.14z"/><path fill="#BDD180" fill-rule="nonzero" d="M56.97 42.91c3.22-1.69 7.2-.44 8.89 2.78 1.68 3.22.44 7.2-2.78 8.89-9.9 5.19-13.42 12.23-15.92 17.23-2.11 7.26-.07 15.83 3.17 20.42 1.78 3.22-10.64 3.7-14.86-1.56-1.97-5.98-4.08-15.97-.09-24.72 3.78-7.56 9.18-16.54 21.59-23.04z"/><path fill="none" fill-rule="nonzero" stroke="#2B2A29" stroke-miterlimit="22.9256" stroke-width="1.56" d="M56.97 42.91c3.22-1.69 7.2-.44 8.89 2.78 1.68 3.22.44 7.2-2.78 8.89-9.9 5.19-13.42 12.23-15.92 17.23-2.11 7.26-.07 15.83 3.17 20.42 1.78 3.22-10.64 3.7-14.86-1.56-1.97-5.98-4.08-15.97-.09-24.72 3.78-7.56 9.18-16.54 21.59-23.04z"/><path fill="#2B2A29" fill-rule="nonzero" d="M47.26 66.23l-7.91-7.61c-.63-.55-.91-1.3-.86-2.05.05-.75.43-1.51 1.13-2.11 1.65-1.4 7.62-6.84 8.98-7.62.68-.54 1.52-.82 2.35-.85.86-.03 1.71.24 2.33.79l7.92 7.61c.62.55.9 1.29.85 2.05-.04.75-.42 1.51-1.12 2.1l-8.88 7.55c-.7.59-1.58.9-2.45.93-.87.02-1.71-.24-2.34-.79zm-6.41-8.89l7.92 7.6c.25.23.59.33.94.32.36-.01.71-.14.99-.37l8.88-7.54c.28-.24.43-.55.45-.86.02-.3-.09-.6-.34-.82l-3.19-3.08-4.99 3.79c-1.62.73-2.52-.49-1.53-1.55l4.87-3.74-3.06-3.02c-.25-.22-.61-.33-.96-.32-.35.01-.71.13-.99.37l-8.88 7.54c-.27.24-.43.55-.45.85v.01c-.02.3.09.6.34.82z"/><path fill="#F5B2B6" fill-rule="nonzero" d="M30.38 55.17c3.26-3.91 9.84-7.8 15.38-10.01 3.47-1.86-11.32-7.62-18.07-5.38-5.06 2.1-6.55 4.7-11.86 10.73l14.55 4.66z"/><path fill="none" fill-rule="nonzero" stroke="#2B2A29" stroke-miterlimit="22.9256" stroke-width="1.56" d="M30.38 55.17c3.26-3.91 9.84-7.8 15.38-10.01 3.47-1.86-11.32-7.62-18.07-5.38-5.06 2.1-6.55 4.7-11.86 10.73l14.55 4.66z"/><path fill="#F08BB2" fill-rule="nonzero" d="M30.49 35.54c2.92-2.17 7.05-1.55 9.21 1.37 2.17 2.92 1.56 7.05-1.37 9.21-8.98 6.66-11.36 14.16-13.06 19.49-1.33 4.19-2.44 20.07 1.48 24.1 2.25 2.91-8.22-.42-13.2-4.97-2.88-5.6-2.82-16.84-.82-23.1 2.56-8.06 6.51-17.76 17.76-26.1z"/><path fill="none" fill-rule="nonzero" stroke="#2B2A29" stroke-miterlimit="22.9256" stroke-width="1.56" d="M30.49 35.54c2.92-2.17 7.05-1.55 9.21 1.37 2.17 2.92 1.56 7.05-1.37 9.21-8.98 6.66-11.36 14.16-13.06 19.49-1.33 4.19-2.44 20.07 1.48 24.1 2.25 2.91-8.22-.42-13.2-4.97-2.88-5.6-2.82-16.84-.82-23.1 2.56-8.06 6.51-17.76 17.76-26.1z"/><path fill="#2B2A29" fill-rule="nonzero" d="M24.51 60.08l-9-6.29c-.7-.45-1.09-1.15-1.16-1.9-.07-.75.19-1.56.78-2.25 1.42-1.65 6.47-7.95 7.7-8.93.59-.63 1.38-1.05 2.19-1.2.85-.16 1.73-.03 2.43.42l9 6.29c.7.45 1.09 1.14 1.16 1.9.07.75-.19 1.56-.79 2.25l-7.6 8.83c-.6.69-1.43 1.14-2.28 1.3-.85.15-1.73.03-2.43-.42zm-7.71-7.79l9 6.29c.28.18.64.23.98.16.35-.06.68-.24.92-.52l7.61-8.82c.24-.28.34-.61.31-.92-.03-.3-.18-.58-.46-.76l-3.63-2.54-4.35 4.51c-1.48.97-2.57-.09-1.74-1.29l4.23-4.46-3.5-2.5c-.28-.18-.65-.24-.99-.18h-.01c-.34.07-.67.25-.91.53l-7.61 8.82c-.24.28-.34.61-.31.91.02.31.18.58.46.77z"/><path fill="#F5B2B6" d="M82.29 90.03c14.94-8.44 30.43-26.12 15.69-30 20.78-6.43 22.47 16.05 11.5 22.27-6.56 3.48-15.36 5.79-27.19 7.73z"/><path fill="none" fill-rule="nonzero" stroke="#2B2A29" stroke-miterlimit="22.9256" stroke-width="1.56" d="M82.29 90.03c14.94-8.44 30.43-26.12 15.69-30 20.78-6.43 22.47 16.05 11.5 22.27-6.56 3.48-15.36 5.79-27.19 7.73z"/><path fill="#2B2A29" d="M19.16 60.78c.59 0 1.07.51 1.07 1.14 0 .63-.48 1.14-1.07 1.14-.6 0-1.08-.51-1.08-1.14 0-.63.48-1.14 1.08-1.14zM18.02 66.23c.59 0 1.07.51 1.07 1.14 0 .63-.48 1.14-1.07 1.14-.6 0-1.08-.51-1.08-1.14 0-.63.48-1.14 1.08-1.14zM41.47 65.34c.59 0 1.07.51 1.07 1.14 0 .63-.48 1.14-1.07 1.14-.6 0-1.08-.51-1.08-1.14 0-.63.48-1.14 1.08-1.14zM39.82 70.41c.59 0 1.07.51 1.07 1.15 0 .62-.48 1.14-1.07 1.14-.6 0-1.08-.52-1.08-1.14 0-.64.48-1.15 1.08-1.15z"/><path fill="#F08BB2" d="M127.78 48.48c14.57 2.01 28.15-5.76 43.83-7.55 7-.8 42.14 3.53 37.52-12.87-.84-3-3.28-6.06-7.3-8.3C177.07 5.6 152.94 2.3 125.1 5.23c-31.59 6.05-22.1 39.21 2.68 43.25z"/><path fill="none" fill-rule="nonzero" stroke="#2B2A29" stroke-miterlimit="22.9256" stroke-width="1.56" d="M127.78 48.48c14.57 2.01 28.15-5.76 43.83-7.55 7-.8 42.14 3.53 37.52-12.87-.84-3-3.28-6.06-7.3-8.3C177.07 5.6 152.94 2.3 125.1 5.23c-31.59 6.05-22.1 39.21 2.68 43.25z"/><path fill="#6FA691" d="M124.44 46.78c14.56 2 26.3-5.18 42.78-9.3 9.58-2.4 25.71.69 35.06-1.68 9.1-2.57 13.37-13.9 3.71-20.67-25.06-12.21-56.67-12.69-84.24-11.61-31.59 6.05-22.1 39.21 2.69 43.26z"/><path fill="none" fill-rule="nonzero" stroke="#2B2A29" stroke-miterlimit="22.9256" stroke-width="1.56" d="M124.44 46.78c14.56 2 26.3-5.18 42.78-9.3 9.58-2.4 25.71.69 35.06-1.68 9.1-2.57 13.37-13.9 3.71-20.67-25.06-12.21-56.67-12.69-84.24-11.61-31.59 6.05-22.1 39.21 2.69 43.26z"/><path fill="#F5B2B6" fill-rule="nonzero" d="M140.73 29.6c3.05 3.66 8.79 9.16 13.97 11.23 3.26 1.74-10.18 5.28-16.49 3.18-4.75-1.97-6.14-4.4-11.11-10.04l13.63-4.37z"/><path fill="none" fill-rule="nonzero" stroke="#2B2A29" stroke-miterlimit="22.9256" stroke-width="1.56" d="M140.73 29.6c3.05 3.66 8.79 9.16 13.97 11.23 3.26 1.74-10.18 5.28-16.49 3.18-4.75-1.97-6.14-4.4-11.11-10.04l13.63-4.37z"/><path fill="#BDD180" fill-rule="nonzero" d="M168.77 25.51c3.05 3.65 8.8 9.16 13.98 11.23 3.26 1.74-10.18 5.28-16.5 3.18-4.74-1.98-6.13-4.4-11.1-10.05l13.62-4.36z"/><path fill="none" fill-rule="nonzero" stroke="#2B2A29" stroke-miterlimit="22.9256" stroke-width="1.56" d="M168.77 25.51c3.05 3.65 8.8 9.16 13.98 11.23 3.26 1.74-10.18 5.28-16.5 3.18-4.74-1.98-6.13-4.4-11.1-10.05l13.62-4.36z"/><path fill="#BDD180" fill-rule="nonzero" d="M165.93 37.77c2.74 2.03 6.6 1.46 8.63-1.28 2.03-2.73 1.46-6.6-1.28-8.62-8.41-6.23-11.63-11.84-13.22-16.83-.97-2.96-1.16-6.3.32-8.21.95-.9-7.2-4.37-11.87-.11-1.05 2.23-2.06 6.17-.19 12.04 2.4 7.54 7.08 15.21 17.61 23.01z"/><path fill="none" fill-rule="nonzero" stroke="#2B2A29" stroke-miterlimit="22.9256" stroke-width="1.56" d="M165.93 37.77c2.74 2.03 6.6 1.46 8.63-1.28 2.03-2.73 1.46-6.6-1.28-8.62-8.41-6.23-11.63-11.84-13.22-16.83-.97-2.96-1.16-6.3.32-8.21.95-.9-7.2-4.37-11.87-.11-1.05 2.23-2.06 6.17-.19 12.04 2.4 7.54 7.08 15.21 17.61 23.01z"/><path fill="#2B2A29" fill-rule="nonzero" d="M158.55 11.75l-9.27 6.5c-.71.46-1.17 1.18-1.34 1.96-.16.77-.03 1.61.43 2.33 1.11 1.7 4.99 8.2 6.01 9.22.46.66 1.14 1.08 1.88 1.24.78.16 1.62.03 2.33-.43l9.28-6.5c.71-.47 1.17-1.19 1.34-1.96.16-.78.03-1.62-.44-2.33l-5.93-9.12c-.46-.72-1.18-1.18-1.96-1.34-.77-.17-1.61-.04-2.33.43zm-8.26 8.05l9.27-6.5c.29-.19.62-.24.94-.17.31.07.6.25.79.54l5.93 9.11c.19.29.24.63.17.95-.06.31-.25.6-.53.79l-3.74 2.62-3.46-4.66c-1.26-1-2.42.1-1.81 1.34l3.36 4.6-3.61 2.59c-.28.18-.64.24-.95.18h-.01c-.31-.07-.6-.25-.78-.54l-5.94-9.12c-.18-.29-.23-.63-.17-.94.07-.32.25-.6.54-.79z"/><path fill="#F08BB2" fill-rule="nonzero" d="M137.89 41.87c2.73 2.03 6.59 1.46 8.62-1.28 2.03-2.74 1.46-6.6-1.28-8.63-8.41-6.23-11.63-11.83-13.22-16.83-1.24-3.91-.01-7.76 3.65-11.53 2.11-2.73-9.47-5.67-14.14-1.41-2.69 5.24-3.12 10.8-1.25 16.66 2.4 7.54 7.09 15.22 17.62 23.02z"/><path fill="none" fill-rule="nonzero" stroke="#2B2A29" stroke-miterlimit="22.9256" stroke-width="1.56" d="M137.89 41.87c2.73 2.03 6.59 1.46 8.62-1.28 2.03-2.74 1.46-6.6-1.28-8.63-8.41-6.23-11.63-11.83-13.22-16.83-1.24-3.91-.01-7.76 3.65-11.53 2.11-2.73-9.47-5.67-14.14-1.41-2.69 5.24-3.12 10.8-1.25 16.66 2.4 7.54 7.09 15.22 17.62 23.02z"/><path fill="#2B2A29" fill-rule="nonzero" d="M130.51 15.85l-9.27 6.49c-.72.47-1.18 1.18-1.35 1.96-.16.78-.03 1.62.44 2.33 1.1 1.7 4.98 8.21 6 9.22.46.66 1.15 1.09 1.89 1.25.77.16 1.61.03 2.33-.44l9.27-6.5c.71-.46 1.18-1.18 1.34-1.96.16-.77.03-1.61-.43-2.33l-5.94-9.12c-.46-.71-1.18-1.17-1.95-1.34h-.01c-.77-.16-1.61-.03-2.32.44zm-8.27 8.04l9.27-6.49c.29-.19.63-.24.94-.18.32.07.61.26.79.54l5.94 9.12c.18.29.24.63.17.95-.07.31-.25.6-.54.78l-3.74 2.63-3.46-4.67c-1.26-1-2.42.1-1.81 1.34l3.36 4.61-3.6 2.59c-.29.18-.65.24-.96.17-.32-.06-.6-.25-.79-.53l-5.93-9.12c-.19-.29-.24-.63-.17-.94v-.01c.06-.31.25-.6.53-.79z"/><path fill="#F5B2B6" d="M192.15 36.76c15.3-10.24 15.73-22.87.98-26.75 14.33.3 20.4 9.87 18.12 17.35-2.56 8.4-11.85 9.18-19.1 9.4z"/><path fill="none" fill-rule="nonzero" stroke="#2B2A29" stroke-miterlimit="22.9256" stroke-width="1.56" d="M192.15 36.76c15.3-10.24 15.73-22.87.98-26.75 14.33.3 20.4 9.87 18.12 17.35-2.56 8.4-11.85 9.18-19.1 9.4z"/><path fill="#2B2A29" d="M125 14.01c.59 0 1.07.51 1.07 1.14 0 .63-.48 1.14-1.07 1.14-.6 0-1.08-.51-1.08-1.14 0-.63.48-1.14 1.08-1.14zM124.87 8.94c.59 0 1.08.51 1.08 1.14 0 .63-.49 1.14-1.08 1.14-.59 0-1.08-.51-1.08-1.14 0-.63.49-1.14 1.08-1.14zM153.13 9.83c.6 0 1.08.51 1.08 1.14 0 .63-.48 1.14-1.08 1.14-.59 0-1.07-.51-1.07-1.14 0-.63.48-1.14 1.07-1.14zM152.63 5.26c.59 0 1.07.51 1.07 1.14 0 .63-.48 1.14-1.07 1.14-.6 0-1.08-.51-1.08-1.14 0-.63.48-1.14 1.08-1.14z"/></svg>