<svg xmlns="http://www.w3.org/2000/svg" width="64" height="61" fill-rule="evenodd" clip-rule="evenodd" image-rendering="optimizeQuality" shape-rendering="geometricPrecision" text-rendering="geometricPrecision" viewBox="0 0 20.58 19.59"><path fill="#99CFBA" d="M5.25 6.2C8.59 2.1 11-.74 13 .57c1.92 2.04-1.72 5.41-2.69 8.72-1.08 2.53-2.07 5.61-6.75 5.55-2.04-3.23-.86-5.77 1.69-8.64z"/><path fill="none" fill-rule="nonzero" stroke="#2B2A29" stroke-miterlimit="22.9256" stroke-width=".29" d="M5.25 6.2C8.59 2.1 11-.74 13 .57c1.92 2.04-1.72 5.41-2.69 8.72-1.08 2.53-2.07 5.61-6.75 5.55-2.04-3.23-.86-5.77 1.69-8.64z"/><path fill="#A1B567" d="M4.38 5.64C7.72 1.55 10.24-.12 12.14.01c2.43.88-1.38 5.35-2.5 8.73-.88 2.7-1.9 5.99-6.94 6.01-2.04-3.24-.86-6.23 1.68-9.11z"/><path fill="none" fill-rule="nonzero" stroke="#2B2A29" stroke-miterlimit="22.9256" stroke-width=".29" d="M4.38 5.64C7.72 1.55 10.24-.12 12.14.01c2.43.88-1.38 5.35-2.5 8.73-.88 2.7-1.9 5.99-6.94 6.01-2.04-3.24-.86-6.23 1.68-9.11z"/><path fill="#F5B2B6" d="M.91 6.76c3.18-2.32 7.59.24 9.1 2.86-1.44 2.98-3.33 6.49-7.82 5.16C.5 13.69-1.02 12.38.91 6.76z"/><path fill="none" fill-rule="nonzero" stroke="#2B2A29" stroke-miterlimit="22.9256" stroke-width=".29" d="M.91 6.76c3.18-2.32 7.59.24 9.1 2.86-1.44 2.98-3.33 6.49-7.82 5.16C.5 13.69-1.02 12.38.91 6.76z"/><path fill="#F08BB2" d="M8.21 12.75c-1.31 1.73-3.12 2.88-6.02 2.03C.64 13.78-.77 12.6.5 8.05c3.14-1.93 7.34.44 8.81 2.97-.29.6-.76 1.14-1.1 1.73z"/><path fill="none" fill-rule="nonzero" stroke="#2B2A29" stroke-miterlimit="22.9256" stroke-width=".29" d="M8.21 12.75c-1.31 1.73-3.12 2.88-6.02 2.03C.64 13.78-.77 12.6.5 8.05c3.14-1.93 7.34.44 8.81 2.97-.29.6-.76 1.14-1.1 1.73z"/><path fill="#F5B2B6" d="M3.98 8.04c.54 0 .98.35.98.79 0 .44-.44.79-.98.79S3 9.27 3 8.83c0-.44.44-.79.98-.79z"/><path fill="none" fill-rule="nonzero" stroke="#2B2A29" stroke-miterlimit="22.9256" stroke-width=".29" d="M3.98 8.04c.54 0 .98.35.98.79 0 .44-.44.79-.98.79S3 9.27 3 8.83c0-.44.44-.79.98-.79z"/><path fill="#99CFBA" d="M19.58 13.93c.62-6.68-.22-11.35-2-11.44-3.08.42-1.71 6.2-4.98 9.55-1.98 2.04-2.36 3.2 1.61 6.31 3.6-1.29 5.61-.59 5.37-4.42z"/><path fill="none" fill-rule="nonzero" stroke="#2B2A29" stroke-miterlimit="22.9256" stroke-width=".29" d="M19.58 13.93c.62-6.68-.22-11.35-2-11.44-3.08.42-1.71 6.2-4.98 9.55-1.98 2.04-2.36 3.2 1.61 6.31 3.6-1.29 5.61-.59 5.37-4.42z"/><path fill="#A1B567" d="M19.39 10.79c-.11-5.29-.06-8.24-2.45-8.44-2.7.36-2.58 5.94-5.74 10.12-.71 2.66.47 3.33 4.19 6.17 3.6-1.3 4.23-4.02 4-7.85z"/><path fill="none" fill-rule="nonzero" stroke="#2B2A29" stroke-miterlimit="22.9256" stroke-width=".29" d="M19.39 10.79c-.11-5.29-.06-8.24-2.45-8.44-2.7.36-2.58 5.94-5.74 10.12-.71 2.66.47 3.33 4.19 6.17 3.6-1.3 4.23-4.02 4-7.85z"/><path fill="#F5B2B6" d="M20.57 14.44c-1.08-3.78-7.36-3.47-9.63-1.66-.56 1.02-1.37 3-.32 4.63.57.89 1.79 1.63 3.7 2.16 2.01.18 4.99-1.06 6.25-5.13z"/><path fill="none" fill-rule="nonzero" stroke="#2B2A29" stroke-miterlimit="22.9256" stroke-width=".29" d="M20.57 14.44c-1.08-3.78-7.36-3.47-9.63-1.66-.56 1.02-1.37 3-.32 4.63.57.89 1.79 1.63 3.7 2.16 2.01.18 4.99-1.06 6.25-5.13z"/><path fill="#F08BB2" d="M10.49 13.76c-.4 1.06-.64 2.45.13 3.65.57.89 1.08 1.83 3.7 2.16 1.9.17 5.25-1.19 5.94-4.3-1.99-2.4-7.24-2.4-9.77-1.51z"/><path fill="none" fill-rule="nonzero" stroke="#2B2A29" stroke-miterlimit="22.9256" stroke-width=".29" d="M10.49 13.76c-.4 1.06-.64 2.45.13 3.65.57.89 1.08 1.83 3.7 2.16 1.9.17 5.25-1.19 5.94-4.3-1.99-2.4-7.24-2.4-9.77-1.51z"/><path fill="#F5B2B6" d="M16.72 13.86c-.52-.15-1.04.06-1.17.47-.13.42.19.89.7 1.05.52.16 1.04-.05 1.17-.47.13-.42-.18-.89-.7-1.05z"/><path fill="none" fill-rule="nonzero" stroke="#2B2A29" stroke-miterlimit="22.9256" stroke-width=".29" d="M16.72 13.86c-.52-.15-1.04.06-1.17.47-.13.42.19.89.7 1.05.52.16 1.04-.05 1.17-.47.13-.42-.18-.89-.7-1.05z"/></svg>