<svg xmlns="http://www.w3.org/2000/svg" width="64" height="56" fill-rule="evenodd" clip-rule="evenodd" image-rendering="optimizeQuality" shape-rendering="geometricPrecision" text-rendering="geometricPrecision" viewBox="0 0 4.05 3.54"><defs><style>.str0{stroke:#2b2a29;stroke-width:.06;stroke-miterlimit:22.9256}.fil1{fill:none;fill-rule:nonzero}.fil6{fill:#a1b567}.fil3{fill:#6fa691}.fil0,.fil2{fill:#2b2a29;fill-rule:nonzero}.fil0{fill:#6fa691}</style></defs><g id="Слой_x0020_1"><path d="M.84 2.9c-.08.01-.16-.02-.16-.11-.01-.08.05-.13.14-.14l.62-.05h.01c.23 0 .45-.06.6-.13.14-.06.27-.19.34-.31l.34-.85c.03-.08.1-.11.17-.08.08.03.09.12.05.2l-.35.87h-.01c-.1.18-.25.32-.45.41-.18.09-.41.14-.67.14l-.63.05z" class="fil0"/><path id="1" d="M.84 2.9c-.08.01-.16-.02-.16-.11-.01-.08.05-.13.14-.14l.62-.05h.01c.23 0 .45-.06.6-.13.14-.06.27-.19.34-.31l.34-.85c.03-.08.1-.11.17-.08.08.03.09.12.05.2l-.35.87h-.01c-.1.18-.25.32-.45.41-.18.09-.41.14-.67.14l-.63.05z" class="fil1 str0"/><path d="M.72 2.1c.2 0 .38.08.51.21s.21.31.21.51-.08.38-.21.51-.31.21-.51.21-.38-.08-.51-.21S0 3.02 0 2.82s.08-.38.21-.51.31-.21.51-.21zm.35.37c-.09-.09-.21-.14-.35-.14-.13 0-.26.05-.35.14-.09.09-.14.22-.14.35 0 .14.05.26.14.35.09.09.22.14.35.14.14 0 .26-.05.35-.14.09-.09.14-.21.14-.35 0-.13-.05-.26-.14-.35zM3.33 2.1c.2 0 .38.08.51.21s.21.31.21.51-.08.38-.21.51-.31.21-.51.21-.38-.08-.51-.21-.21-.31-.21-.51.08-.38.21-.51.31-.21.51-.21zm.35.37c-.09-.08-.22-.14-.35-.14-.14 0-.26.06-.35.14-.09.09-.14.22-.14.35 0 .14.05.26.14.35.09.09.21.15.35.15.13 0 .26-.06.35-.15.09-.09.14-.21.14-.35 0-.13-.05-.26-.14-.35z" class="fil2"/><path d="M3.35 2.61c.11 0 .2.08.2.19 0 .1-.09.19-.2.19-.1 0-.19-.09-.19-.19 0-.11.09-.19.19-.19z" class="fil3"/><path id="1" d="M3.35 2.61c.11 0 .2.08.2.19 0 .1-.09.19-.2.19-.1 0-.19-.09-.19-.19 0-.11.09-.19.19-.19z" class="fil1 str0"/><path fill="#a1b567" fill-rule="nonzero" d="M2.72.85c-.02-.06.03-.08.09-.1.06-.02.1-.02.12.04l.04.28.27.96c.07.23.05.45.21.69.02.06 0 .12-.06.14-.06.02-.12-.02-.13-.07.02-.34-.13-.47-.2-.7L2.72.85z"/><path id="1" d="M2.72.85c-.02-.06.03-.08.09-.1.06-.02.1-.02.12.04l.04.28.27.96c.07.23.05.45.21.69.02.06 0 .12-.06.14-.06.02-.12-.02-.13-.07.02-.34-.13-.47-.2-.7L2.72.85z" class="fil1 str0"/><path d="M2.62.59c-.02-.07.05-.1.12-.12.06-.02.12-.02.14.05l.07.28-.25.06-.08-.27z" class="fil0"/><path id="1" d="M2.62.59c-.02-.07.05-.1.12-.12.06-.02.12-.02.14.05l.07.28-.25.06-.08-.27z" class="fil1 str0"/><path d="M2.91 1.53l.19-.04c.01-.01.02 0 .03.01v.03c.01.02 0 .03-.01.03l-.2.05c-.01 0-.02-.01-.02-.02l-.01-.03c0-.01 0-.02.02-.03z" class="fil3"/><path id="1" d="M2.91 1.53l.19-.04c.01-.01.02 0 .03.01v.03c.01.02 0 .03-.01.03l-.2.05c-.01 0-.02-.01-.02-.02l-.01-.03c0-.01 0-.02.02-.03z" class="fil1 str0"/><g><path fill="#99cfba" d="M1.38 1.37l.14-.05.24.64-.15.05z"/><path id="1" d="M1.38 1.37l.14-.05.24.64-.15.05z" class="fil1 str0"/></g><g><path d="M1.83 2.72l.21-.08-.27-.73-.21.07z" class="fil6"/><path id="1" d="M1.83 2.72l.21-.08-.27-.73-.21.07z" class="fil1 str0"/></g><g><path fill="#2b2a29" d="M1.49 2.08l.33-.12-.03-.06-.33.12z"/><path id="1" d="M1.49 2.08l.33-.12-.03-.06-.33.12z" class="fil1 str0"/></g><g><path fill="#f08bb2" d="M1.26 1.51c.26-.09.5-.17.75-.21.02 0 .02-.02.02-.06-.03-.09-.16-.13-.41-.09-.13.03-.3.03-.47.03-.13 0-.24-.02-.35-.06-.1-.03-.12.04-.1.09.18.29.42.34.56.3z"/><path id="1" d="M1.26 1.51c.26-.09.5-.17.75-.21.02 0 .02-.02.02-.06-.03-.09-.16-.13-.41-.09-.13.03-.3.03-.47.03-.13 0-.24-.02-.35-.06-.1-.03-.12.04-.1.09.18.29.42.34.56.3z" class="fil1 str0"/></g><g><path d="M2.72 0c.02 0 .05.01.07.02.01-.01.03-.01.05-.01.08 0 .15.07.15.15V.2l.09.2c.03.03.05.07.05.11 0 .08-.06.14-.14.14-.08 0-.14-.06-.14-.14 0-.04.02-.08.05-.1l-.04-.1H2.8c-.02.01-.05.02-.08.02-.09 0-.17-.07-.17-.16S2.63 0 2.72 0z" class="fil6"/><path id="1" d="M2.72 0c.02 0 .05.01.07.02.01-.01.03-.01.05-.01.08 0 .15.07.15.15V.2l.09.2c.03.03.05.07.05.11 0 .08-.06.14-.14.14-.08 0-.14-.06-.14-.14 0-.04.02-.08.05-.1l-.04-.1H2.8c-.02.01-.05.02-.08.02-.09 0-.17-.07-.17-.16S2.63 0 2.72 0z" class="fil1 str0"/></g></g></svg>