<svg xmlns="http://www.w3.org/2000/svg" width="136" height="57" fill-rule="evenodd" clip-rule="evenodd" image-rendering="optimizeQuality" shape-rendering="geometricPrecision" text-rendering="geometricPrecision" viewBox="0 0 21.69 9.14"><defs><style>.str0{stroke:#2b2a29;stroke-width:.14;stroke-miterlimit:22.9256}.fil1{fill:none;fill-rule:nonzero}.fil10{fill:#fefefe}.fil0,.fil8{fill:#2b2a29}.fil5{fill:#f9d5d7}.fil2{fill:#6fa691}.fil9{fill:#a9a9ab}.fil3{fill:#2b2a29;fill-rule:nonzero}</style></defs><g id="Слой_x0020_1"><path d="M19.77 7.51c-.44 0-.79.35-.79.79 0 .44.35.79.79.79.44 0 .79-.35.79-.79 0-.44-.35-.79-.79-.79z" class="fil0"/><path id="1" d="M19.77 7.51c-.44 0-.79.35-.79.79 0 .44.35.79.79.79.44 0 .79-.35.79-.79 0-.44-.35-.79-.79-.79z" class="fil1 str0"/><path d="M17.71 7.51c-.43 0-.79.35-.79.79 0 .44.36.79.79.79.44 0 .79-.35.79-.79 0-.44-.35-.79-.79-.79z" class="fil0"/><path id="1" d="M17.71 7.51c-.43 0-.79.35-.79.79 0 .44.36.79.79.79.44 0 .79-.35.79-.79 0-.44-.35-.79-.79-.79z" class="fil1 str0"/><path d="M14.43 7.51c-.43 0-.79.35-.79.79 0 .44.36.79.79.79.44 0 .8-.35.8-.79 0-.44-.36-.79-.8-.79z" class="fil0"/><path id="1" d="M14.43 7.51c-.43 0-.79.35-.79.79 0 .44.36.79.79.79.44 0 .8-.35.8-.79 0-.44-.36-.79-.8-.79z" class="fil1 str0"/><path d="M12.48 7.51c-.44 0-.79.35-.79.79 0 .44.35.79.79.79.43 0 .79-.35.79-.79 0-.44-.36-.79-.79-.79z" class="fil0"/><path id="1" d="M12.48 7.51c-.44 0-.79.35-.79.79 0 .44.35.79.79.79.43 0 .79-.35.79-.79 0-.44-.36-.79-.79-.79z" class="fil1 str0"/><path d="M21.4 7.21h-9.14c-.1 0-.15.09-.19.18l-.24.64c-.04.09.08.18.18.18h2.42v-.16c0-.15.13-.28.29-.28h2.69c.15 0 .28.13.28.28v.16h3.81c.1 0 .2-.08.19-.18l-.11-.64c-.02-.1-.08-.18-.18-.18z" class="fil2"/><path id="1" d="M12.26 7.21V7.2h9.14v.01h-9.14zm-.19.18v-.01l.01-.01v-.01l.01-.01v-.01l.01-.01v-.02h.01V7.3l.01-.01v-.01h.01v-.01l.01-.01.01-.01.01-.01.01-.01h.01v-.01h.02v-.01h.05l.01-.01v.01h-.03l-.01.01h-.02l-.01.01-.01.01h-.01v.01h-.01v.01h-.01l-.01.01-.01.01v.01h-.01v.02l-.01.01v.01h-.01v.02l-.01.01v.01l-.01.01v.01h-.01zm-.24.64h-.01l.25-.64h.01l-.25.64zm.18.19h-.03l-.01-.01h-.03l-.01-.01h-.01l-.01-.01-.01-.01h-.01l-.01-.01h-.01v-.01l-.01-.01h-.01v-.01l-.01-.01-.01-.01v-.01l-.01-.01v-.07h.01v.03l-.01.01h.01v.04h.01v.01l.01.01.01.01v.01h.01l.01.01.01.01.01.01h.01l.01.01h.02l.01.01h.01l.01.01h.04v.01zm2.42-.01h.01l-.01.01h-2.42v-.01h2.42zm.01 0v.01h-.01l.01-.01zm-.01-.16h.01v.16h-.01v-.16zm.29-.28h-.02l-.01.01h-.04l-.02.01h-.01l-.01.01h-.01l-.02.01-.01.01h-.01l-.01.01-.01.01-.01.01-.01.01-.01.01-.01.01-.01.01v.01l-.01.01-.01.01v.01l-.01.01-.01.02v.02l-.01.02v.05h-.01v-.04l.01-.01v-.03l.01-.02v-.01l.01-.01v-.01l.01-.02.01-.01.01-.01.01-.01v-.01l.01-.01.01-.01.01-.01.02-.01h.01l.01-.01.01-.01.01-.01h.02l.01-.01h.03l.01-.01h.06zm2.69 0h-2.69 2.69zm.28.28v-.01l-.01-.02v-.04l-.01-.01v-.01l-.01-.01v-.02l-.01-.01v-.01l-.01-.01-.01-.01-.01-.01-.01-.01-.01-.01-.01-.01-.01-.01-.01-.01-.01-.01h-.01l-.01-.01-.01-.01h-.01l-.02-.01h-.01l-.01-.01h-.04l-.02-.01h-.01.05l.02.01h.03l.01.01h.01l.01.01.02.01.01.01h.01l.01.01.01.01.01.01.01.01.01.01.01.01v.01l.01.01.01.02.01.01v.01l.01.01v.03l.01.02v.05zm0 .16v.01-.17.16zm0 .01v-.01.01zm3.81-.01v.01h-3.81v-.01h3.81zm.19-.18V8.09h-.01v.02l-.01.01v.01h-.01v.01l-.01.01v.01h-.01l-.01.01-.01.01-.01.01h-.02v.01h-.01l-.01.01h-.03l-.01.01h-.03v-.01h.04l.01-.01h.02l.01-.01h.01l.01-.01h.01v-.01h.01l.01-.01.01-.01.01-.01.01-.01v-.01h.01V8.1l.01-.01V8.03h.01zm-.11-.64l.11.64h-.01l-.1-.64zm-.18-.19l.01.01h.04l.01.01h.01l.01.01h.01l.01.01.01.01h.01v.01l.01.01.01.01v.01l.01.01.01.01v.01l.01.01v.02l.01.01v.03l-.01-.01v-.02l-.01-.01v-.02l-.01-.01v-.01l-.01-.01v-.01h-.01v-.01l-.01-.01-.01-.01-.01-.01-.01-.01-.01-.01h-.02v-.01h-.03l-.01-.01h-.02V7.2z" class="fil3"/><path fill="#f08bb2" d="M20.2 7.26h-4.56v-.01l-3.67.01c-.76-.14-.81-1.27-.18-1.57.62-.29 2.52-.69 3.36-1.21.53-.32.5-.98.7-1.55l.21-1.91c-.8-2.1 3.89-.26 3.98.08l.19 2.81c.72 2.19.58 3.11-.03 3.35z"/><path id="1" d="M15.64 7.26v-.01h4.56v.01h-4.56zm0 0zm0-.01h.01v.01h-.01v-.01zm0 0h.01-.01zm-3.67.01v-.01h3.67v.01h-3.67zm0 0zm-.18-1.57l-.05.03-.06.04-.05.04-.04.04-.04.05-.04.05-.03.05-.03.05-.03.06-.02.06-.01.06-.02.06-.01.06v.19l.01.07.01.06.02.06.02.06.02.06.03.05.03.06.04.05.04.04.04.05.05.04.05.03.06.03.06.03.06.02.07.01v.01l-.07-.01-.07-.02-.06-.03-.05-.03-.06-.04-.05-.04-.04-.04-.04-.05-.04-.05-.03-.05-.03-.06-.02-.06-.02-.06-.02-.06-.01-.06-.01-.06v-.13l.01-.07.01-.06.01-.06.02-.06.02-.06.02-.06.03-.06.04-.05.03-.05.04-.05.05-.04.05-.04.05-.03.06-.03zm0 0zm3.37-1.21l-.09.05-.08.05-.1.05-.1.04-.1.05-.11.05-.11.04-.11.04-.12.05-.11.04-.12.04-.13.04-.12.04-.12.04-.13.04-.12.04-.12.03-.12.04-.12.04-.12.03-.12.04-.11.03-.11.03-.11.03-.1.04-.1.03-.09.03-.09.03-.08.03-.08.03-.06.03-.07.02.06-.03.07-.03.08-.03.08-.03.09-.03.09-.03.1-.03.1-.03.11-.04.11-.03.11-.03.12-.04.11-.03.12-.04.13-.03.12-.04.12-.04.13-.04.12-.04.12-.04.12-.04.12-.04.12-.04.12-.04.11-.05.11-.04.11-.05.1-.04.1-.05.09-.05.09-.04.08-.05h.01zm.69-1.55l-.02.06-.01.05-.02.06-.01.05-.02.06-.01.05-.01.06-.02.05-.01.06-.01.05-.01.06-.02.05-.01.05-.01.06-.02.05-.01.05-.02.05-.02.05-.01.05-.02.05-.03.05-.02.05-.02.04-.03.04-.03.05-.03.04-.04.04-.03.04-.04.03-.04.04-.05.03-.04.03h-.01l.05-.03.04-.04.04-.03.04-.04.04-.04.03-.04.03-.04.03-.04.03-.04.02-.05.03-.04.02-.05.02-.05.02-.05.01-.05.02-.05.02-.05.01-.06.01-.05.02-.05.01-.06.01-.05.01-.06.02-.05.01-.06.01-.05.02-.06.01-.05.02-.06.01-.05.02-.05.02-.06h-.01.01zm0 0zm.21-1.91h.01l-.22 1.91h-.01l.22-1.91zm.01 0zm3.97.08l-.02-.03-.05-.05-.07-.05-.09-.05-.11-.07-.13-.06-.14-.07-.16-.07-.17-.07-.18-.07-.19-.07-.2-.07-.2-.06-.21-.06-.2-.06-.2-.04-.21-.04-.19-.04-.19-.02-.19-.02h-.17l-.16.01-.14.02-.14.04-.11.05-.09.07-.08.09-.05.1-.02.12v.14l.03.17.06.18h-.01L16 .84l-.03-.17V.53L16 .41l.05-.11.07-.08.1-.07.11-.06.13-.03.15-.03.16-.01.18.01.18.01.19.02.2.04.2.04.2.05.21.05.2.06.2.07.2.06.19.07.18.07.17.07.16.07.14.07.13.07.11.06.1.06.07.05.04.04.03.04h-.01zm.01 0zm.18 2.81h-.01l-.18-2.81h.01l.18 2.81zm0 0zm0 0h-.01.01zm-.01 0zm-.02 3.34l.06-.02.05-.03.05-.03.05-.04.04-.04.04-.04.04-.05.03-.06.03-.06.03-.06.02-.07.02-.08.02-.08.01-.08.01-.1.01-.09V6.1l-.01-.11-.01-.12-.01-.13-.02-.13-.02-.14-.03-.15-.03-.15-.04-.16-.04-.16-.05-.18-.05-.18-.05-.18-.06-.2-.07-.2h.01l.06.2.06.19.06.19.05.18.05.17.04.17.03.16.03.15.03.15.03.14.01.13.02.13.01.12.01.11v.22l-.01.09-.01.1-.01.08-.02.08-.02.08-.02.07-.03.07-.03.06-.04.05-.03.05-.04.05-.05.04-.05.04-.05.03-.05.03-.05.02h-.01v-.01zm.01.01h-.01.01z" class="fil3"/><path d="M12.61 5.41c.14-.05.3-.09.46-.14.13.31.22.61.28.9.02.07-.01.13-.07.15l-.2.08c-.06.02-.13-.01-.15-.07-.08-.31-.19-.62-.32-.92z" class="fil5"/><path id="1" d="M13.07 5.27l-.01.01h-.03l-.02.01H13l-.02.01h-.01l-.02.01h-.01l-.02.01h-.03l-.01.01h-.02l-.01.01h-.01l-.02.01h-.03l-.01.01h-.02l-.01.01h-.01l-.02.01h-.03l-.01.01h-.02l-.01.01h-.01l-.02.01h-.01V5.4h.01l.01-.01h.03l.02-.01h.01l.01-.01h.02l.01-.01h.03l.02-.01h.01l.01-.01h.02l.01-.01h.03l.02-.01h.01l.02-.01h.01l.02-.01h.01l.02-.01H13l.01-.01h.02l.01-.01h.02l.01-.01.01.01h-.01zm0-.01l.01.01-.01-.01zm.28.91l-.01-.02v-.03l-.01-.03-.01-.03v-.02l-.01-.03-.01-.03v-.03l-.01-.03-.01-.02-.01-.03v-.03l-.01-.03-.01-.03-.01-.02-.01-.03-.01-.03-.01-.03-.01-.03v-.03l-.01-.02-.01-.03-.01-.03-.01-.03-.01-.03-.01-.03-.02-.03-.01-.03-.01-.02-.01-.03-.01-.03-.01-.03h.01l.01.03.01.02.01.03.01.03.01.03.01.03.01.03.01.03.01.03.01.02.01.03.01.03.01.03.01.03.01.03.01.03.01.02.01.03.01.03v.03l.01.03.01.02.01.03v.03l.01.03.01.03.01.02v.03l.01.03v.03l.01.02.01.03h-.01zm-.07.15h.01v-.01h.01l.01-.01h.01v-.01h.01v-.02h.01v-.01l.01-.01v-.08h.01v.07l-.01.01v.02h-.01v.02h-.01v.01h-.01v.01h-.01l-.01.01h-.02zm-.2.08v-.01l.2-.07h.01l-.21.08zm-.15-.07h.01v.02h.01v.02h.01l.01.01h.01v.01H13l.01.01H13.07v-.01h.01v.01h-.01l-.01.01h-.05V6.4h-.02l-.01-.01h-.01l-.01-.01-.01-.01-.01-.01v-.01h-.01v-.02zm-.32-.92V5.4l.01.03.02.03.01.03.01.03.01.03.01.03.01.03.02.02.01.03.01.03.01.03.01.03.01.03.01.03.01.03.01.02.01.03.01.03.01.03.01.03.01.03.01.03.01.03.01.02.01.03v.03l.01.03.01.03.01.03.01.03.01.03v.03l-.01-.03-.01-.03-.01-.03-.01-.03v-.03l-.01-.03-.01-.02-.01-.03-.01-.03-.01-.03-.01-.03-.01-.03-.01-.03-.01-.03-.01-.02-.01-.03-.01-.03-.01-.03-.01-.03-.01-.03-.01-.03-.01-.03-.01-.02-.01-.03-.01-.03-.01-.03-.02-.03-.01-.03-.01-.03-.01-.02-.01-.03-.02-.03.01-.01v.01zm-.01 0V5.4h.01l-.01.01z" class="fil3"/><path d="M13.43 5.16c.16-.05.31-.1.47-.15.12.31.21.6.27.89.01.06-.01.13-.07.15l-.21.07c-.05.03-.13 0-.14-.06-.08-.31-.19-.6-.32-.9z" class="fil5"/><path id="1" d="M13.89 5.01l.01.01h-.02l-.01.01h-.03l-.02.01h-.01l-.01.01h-.02l-.01.01h-.02l-.01.01h-.02l-.01.01h-.01l-.02.01h-.03l-.01.01h-.02l-.01.01h-.02l-.01.01h-.01l-.02.01h-.01l-.02.01h-.03l-.01.01h-.02l-.01.01h-.01l-.01-.01h.03l.02-.01h.01l.02-.01h.01l.01-.01h.02l.01-.01h.03l.02-.01h.01l.02-.01h.01l.01-.01h.02l.01-.01h.02l.01-.01h.03l.01-.01h.02l.01-.01h.02l.01-.01h.02l.01-.01h.02l.01-.01h.02-.01zm0 0h.01-.01zm.28.89l-.01-.03-.01-.02v-.03l-.01-.03-.01-.02v-.03l-.01-.03-.01-.03v-.02l-.01-.03-.01-.03-.01-.03v-.02l-.01-.03-.01-.03-.01-.03-.01-.02-.01-.03-.01-.03v-.03l-.01-.03L14 5.3l-.01-.03-.01-.03-.01-.03-.01-.03-.01-.02-.01-.03-.02-.03-.01-.03-.01-.03-.01-.03h.01l.01.03.01.03.01.03.01.02.01.03.01.03.01.03.01.03.01.03.01.02.01.03.01.03.01.03.01.03.01.02.01.03.01.03.01.03v.02l.01.03.01.03.01.03v.03l.01.02.01.03.01.03v.02l.01.03.01.03v.03l.01.02v.03zm-.07.15v-.01h.02v-.01h.01l.01-.01.01-.01V6l.01-.01v-.02l.01-.01V5.9v.01h.01v.04l-.01.01v.03l-.01.01v.01h-.01v.01h-.01v.01l-.01.01h-.01v.01h-.02zm-.2.08l-.01-.01.21-.07-.2.08zm-.15-.07v.01h.01v.01l.01.01v.01h.01l.01.01h.01v.01h.03v.01h.05v-.01h.01l.01.01h-.03v.01h-.03v-.01h-.04v-.01h-.01l-.01-.01h-.01V6.1l-.01-.01-.01-.01v-.01l-.01-.01h.01zm-.31-.9l.01.02.01.03.01.03.01.03.02.03.01.02.01.03.01.03.01.03.01.03.01.02.01.03.01.03.01.03.01.03.01.02.01.03.01.03.01.03.01.03.01.02.01.03.01.03.01.03v.03l.01.02.01.03.01.03.01.03.01.03v.03l.01.03h-.01v-.03L13.73 6l-.01-.03-.01-.03-.01-.02v-.03l-.01-.03-.01-.03-.01-.03-.01-.03-.01-.02-.01-.03-.01-.03-.01-.03-.01-.03-.01-.02-.01-.03-.01-.03-.01-.03-.01-.03-.01-.02-.01-.03-.01-.03-.01-.03-.01-.02-.01-.03-.01-.03-.01-.03-.01-.03-.02-.02-.01-.03-.01-.03v-.01l.01.01zm-.01 0v-.01.01z" class="fil3"/><path d="M14.27 4.88c.16-.05.31-.11.45-.18.13.33.23.64.29.95.02.06-.01.12-.06.14l-.21.08c-.06.02-.13-.01-.15-.07-.08-.31-.19-.61-.32-.92z" class="fil5"/><path id="1" d="M14.71 4.71h.01-.01l-.02.01-.01.01h-.01l-.02.01h-.01l-.01.01h-.02l-.01.01h-.01l-.02.01-.01.01h-.02l-.01.01h-.01l-.02.01h-.01l-.02.01-.01.01h-.01l-.02.01h-.01l-.02.01h-.01l-.02.01h-.01l-.02.01h-.01l-.01.01-.02.01h-.01l-.02.01v-.01l.01-.01h.02l.01-.01h.02l.01-.01h.02l.01-.01h.02l.01-.01.01-.01h.02l.01-.01h.02l.01-.01h.02l.01-.01h.01l.02-.01.01-.01h.02l.01-.01h.01l.02-.01h.01l.01-.01h.02l.01-.01.01-.01h.02l.01-.01h.01l.02-.01-.01.01zm.01-.01zm.29.95L15 5.62v-.03l-.01-.03-.01-.03V5.5l-.01-.03-.01-.02v-.03l-.01-.03-.01-.03-.01-.03-.01-.03-.01-.03v-.03l-.01-.03-.01-.03-.01-.03-.01-.03-.01-.03-.01-.03-.01-.02-.01-.03-.01-.03-.01-.03-.01-.03-.01-.03-.02-.03-.01-.03-.01-.03-.01-.03-.01-.03-.02-.03.01-.01.01.03.02.03.01.03.01.03.01.03.01.03.01.03.01.03.02.03.01.03.01.03.01.03.01.03.01.03.01.03.01.03v.03l.01.03.01.03.01.03.01.03.01.03.01.03v.02l.01.03.01.03.01.03v.03l.01.03.01.03v.03l.01.03h-.01zm-.07.14h.01l.01-.01h.01v-.01h.01v-.01h.01v-.01H15v-.02l.01-.01v-.07h.01v.07l-.01.01v.02H15v.01h-.01v.01l-.01.01h-.01v.01h-.01l-.01.01-.01-.01zm-.2.08l.2-.08.01.01-.21.07zm-.14-.07v.02l.01.01.01.01v.01h.02v.01h.02v.01h.08l-.01.01h-.07v-.01h-.02v-.01h-.01l-.01-.01h-.01v-.01l-.01-.01v-.01h-.01V5.8h.01zm-.33-.91v-.01l.02.03.01.03.01.03.01.03.01.02.01.03.02.03.01.03.01.03.01.03.01.03.01.02.01.03.01.03.01.03.01.03.01.03.01.03.01.02.01.03.01.03.01.03.01.03.01.03.01.03.01.03v.02l.01.03.01.03.01.03.01.03.01.03h-.01l-.01-.03-.01-.03-.01-.03v-.02l-.01-.03-.01-.03-.01-.03-.01-.03-.01-.03-.01-.03-.01-.03-.01-.02-.01-.03-.01-.03-.01-.03-.01-.03-.01-.03-.01-.03-.01-.02-.01-.03-.01-.03-.01-.03-.01-.03-.01-.03-.01-.03-.01-.02-.01-.03-.02-.03-.01-.03-.01-.03-.01-.03-.01-.03v.01zm0-.01z" class="fil3"/><path fill="#99cfba" d="M15.88 2.63l.15-1.28c.84-.28 2.62-.21 4.03.06l.17 2.5c-.32.46-.61.93-.99 1.35-.39.44-1.1.32-1.26-.15-.47-.93-.19-2.04-2.13-2.18l.03-.3z"/><path id="1" d="M16.02 1.35l.01-.01v.01l-.14 1.28h-.01l.14-1.28zm0 0v-.01h.01l-.01.01zm4.04.06l-.13-.02-.14-.03-.13-.02-.14-.02-.14-.02-.14-.02-.14-.01-.15-.02-.14-.01-.14-.02-.14-.01-.14-.01-.15-.01h-.13l-.14-.01h-.28l-.13-.01-.13.01h-.26l-.12.01-.12.01-.12.01-.11.01-.11.01-.11.02-.1.01-.09.02-.09.02-.09.03-.08.02v-.01l.08-.02.08-.02.1-.03.09-.01.1-.02.11-.02.11-.01.11-.01.12-.01.12-.01h.12l.13-.01h.67l.14.01.14.01h.14l.14.01.14.02.14.01.14.01.15.02.14.01.14.02.14.02.14.02.13.03.14.02.13.02.01.01h-.01zm0-.01h.01v.01l-.01-.01zm.17 2.51h-.01l-.16-2.5h.01l.16 2.5zm0 0zm-.99 1.35l.03-.04.04-.04.03-.04.04-.04.03-.04.03-.04.04-.04.03-.05.03-.04.03-.04.03-.04.03-.04.03-.05.03-.04.03-.04.03-.04.03-.05.03-.04.03-.04.03-.05.03-.04.03-.04.03-.05.03-.04.03-.04.03-.05.03-.04.02-.04.03-.04.03-.05.03-.04.03-.04h.01l-.03.04-.03.05-.03.04-.03.04-.03.05-.03.04-.03.04-.03.05-.02.04-.03.04-.03.05-.03.04-.03.04-.03.05-.03.04-.03.04-.03.04-.03.05-.03.04-.03.04-.03.04-.03.05-.03.04-.04.04-.03.04-.03.04-.03.04-.04.04-.03.04-.04.04-.03.04-.04.04zm0 0h-.01.01zm-1.26-.15l.02.04.02.04.02.04.02.03.03.04.03.03.03.03.04.03.04.02.03.03.04.02.05.01.04.02.04.01.05.01.04.01h.05l.05.01h.04l.05-.01h.05l.05-.01.04-.01.05-.02.05-.02.04-.02.05-.02.04-.03.04-.03.04-.03.04-.03.04-.04-.03.04-.04.04-.04.03-.05.03-.04.03-.04.02-.05.02-.05.02-.04.01-.05.02h-.05l-.05.01h-.19l-.04-.01-.05-.01-.04-.01-.05-.02-.04-.02-.04-.02-.04-.02-.04-.03-.03-.02-.03-.03-.03-.04-.03-.03-.03-.04-.02-.04-.02-.04-.02-.04h.01zm0 0zm-2.13-2.18l.17.02.17.02.15.02.14.04.13.03.12.04.11.05.1.05.09.05.08.06.08.06.06.07.07.06.05.08.05.07.05.07.04.08.04.08.03.09.03.08.03.08.03.09.03.09.02.09.03.09.03.08.02.09.03.09.04.09.03.09.04.09.04.09h-.01l-.04-.09-.04-.09-.03-.08-.03-.09-.03-.09-.03-.09-.03-.09-.02-.09-.03-.09-.03-.09-.03-.08-.02-.09-.04-.08-.03-.08-.04-.08-.04-.08-.04-.08-.05-.07-.06-.07-.06-.07-.07-.06-.07-.06-.09-.06-.09-.05-.1-.05-.11-.05-.11-.04-.13-.04-.14-.03-.15-.03-.17-.02-.17-.01-.01-.01h.01zm0 .01h-.01v-.01l.01.01zm.04-.31v.01l-.01.01v.08l-.01.01v.09l-.01.01v.07l-.01.01v.01h-.01l.01-.01V2.86l.01-.01v-.09l.01-.01v-.08l.01-.01v-.03h.01zm-.01 0z" class="fil3"/><path d="M17.43 5.04c-.52-.39-1.15-.73-1.87-1.03-.08-.03-.17-.01-.21.06l-.15.31c-.03.07-.01.17.06.2.69.29 1.32.6 1.89.98.07.05.16.02.2-.06l.14-.25c.04-.07.01-.16-.06-.21z" class="fil2"/><path id="1" d="M15.56 4.01l.07.03.07.03.06.03.07.02.06.03.07.03.06.03.06.03.07.03.06.03.06.03.06.03.06.03.06.04.06.03.06.03.06.03.06.03.06.04.05.03.06.03.05.04.06.03.05.03.06.04.05.03.05.04.05.03.06.04.05.04.05.03.04.04v.01l-.05-.04-.05-.04-.05-.03-.05-.04-.05-.03-.05-.04-.06-.03-.05-.04-.06-.03-.05-.04-.06-.03-.05-.03-.06-.04-.06-.03-.05-.03-.06-.03-.06-.04-.06-.03-.06-.03-.06-.03-.06-.03-.06-.03-.07-.03-.06-.03-.06-.03-.07-.03-.06-.03-.07-.03-.06-.03-.07-.03-.06-.02-.07-.03v-.01zm0 .01zm-.21.05l.01-.01v-.01h.01v-.01l.01-.01h.01l.01-.01.01-.01h.01l.01-.01h.04l.01-.01h.01l.01.01h.05v.01h.01v.01l-.01-.01h-.03V4H15.46l-.01.01h-.03v.01h-.01l-.01.01h-.01v.01h-.01v.01h-.01v.01l-.01.01v.01l-.01-.01zm-.14.31l-.01-.01.15-.3.01.01-.15.3zm.05.21l-.01-.01-.01-.01h-.01l-.01-.01-.01-.01v-.01h-.01v-.02h-.01V4.5l-.01-.01v-.07l.01-.01v-.02l.01-.01v-.01l.01.01h-.01v.03h-.01v.08l.01.01v.02l.01.01v.01h.01v.01h.01v.01h.01v.01h.01l.01.01v.01zm1.88.98l-.05-.04-.05-.04-.06-.03-.05-.03-.06-.04-.05-.03-.06-.04-.05-.03-.06-.03-.06-.03-.05-.04-.06-.03-.06-.03-.06-.03-.05-.03-.06-.03-.06-.03-.06-.03-.06-.03-.06-.03-.06-.03-.06-.03-.06-.03-.06-.02-.07-.03-.06-.03-.06-.03-.06-.02-.07-.03-.06-.03-.06-.03-.07-.02v-.01l.07.03.06.02.07.03.06.03.06.03.07.02.06.03.06.03.06.03.06.03.06.02.06.03.06.03.06.03.06.03.06.03.06.03.06.03.06.03.05.04.06.03.06.03.05.03.06.03.06.04.05.03.06.03.05.04.06.03.05.04.05.03.06.04-.01.01zm.22-.06h-.01v.01l-.01.01-.01.01-.01.01-.01.01h-.01v.01h-.02v.01h-.03v.01H17.19v-.01h-.03v-.01h-.02l.01-.01h.01v.01h.01l.01.01h.07l.01-.01h.02l.01-.01h.01v-.01h.01l.01-.01.01-.01.01-.01v-.01h.01V5.5l.01.01zm.13-.26h.01l-.14.26-.01-.01.14-.25zm-.06-.21l.01.01h.01v.01h.01v.01h.01v.01h.01v.01l.01.01v.01l.01.01v.01l.01.01v.09l-.01.01v.01h-.01v-.01l.01-.01V5.2l.01-.01v-.02h-.01v-.04h-.01v-.02h-.01V5.1l-.01-.01v-.01h-.01v-.01h-.01v-.01h-.01v-.01h-.01v-.01z" class="fil3"/><path d="M18.71 3.74c-.28 0-.51.23-.51.53 0 .29.23.52.51.52s.5-.23.5-.52c0-.3-.22-.53-.5-.53z" class="fil2"/><path id="1" d="M18.71 3.74c-.28 0-.51.23-.51.53 0 .29.23.52.51.52s.5-.23.5-.52c0-.3-.22-.53-.5-.53z" class="fil1 str0"/><path d="M18.83 1.97c-.83-.24-1.78-.36-2.81-.39-.12 0-.22.06-.23.17l-.05.45c-.01.11.07.23.18.23.99.03 1.91.11 2.8.32.11.03.21-.06.23-.17L19 2.2c.02-.11-.06-.2-.17-.23z" class="fil2"/><path id="1" d="M18.83 1.97c-.83-.24-1.78-.36-2.81-.39-.12 0-.22.06-.23.17l-.05.45c-.01.11.07.23.18.23.99.03 1.91.11 2.8.32.11.03.21-.06.23-.17L19 2.2c.02-.11-.06-.2-.17-.23z" class="fil1 str0"/><path fill="#b2b3b3" d="M2.38 8.09c.21.31.63.39.94.18.31-.21.39-.63.18-.94-.21-.31-.63-.39-.94-.18-.31.21-.39.63-.18.94z"/><path d="M2.54 8.11c.21.31.63.39.94.18.3-.21.38-.63.17-.94-.21-.31-.63-.39-.93-.18-.31.21-.39.63-.18.94z" class="fil8"/><g><path d="M3.37 7.88l.54.35.22-.48-.28-.25z" class="fil9"/><path id="1" d="M3.92 8.23h-.01l-.54-.35v-.01l.55.36zm0 0v.01l-.01-.01h.01zm.21-.48l-.21.48h-.01l.22-.48zm0 0zm-.29-.24V7.5h.01l.28.25-.29-.24zm0-.01h.01-.01zm-.47.38v-.01l.47-.37.01.01-.48.37zm0 0v-.01.01z" class="fil3"/></g><path d="M3.96 8.51c.13.16.3.37.43.49.36.23.73.17.97-.13.17-.2.25-.56-.04-.89-.05-.06-.36-.31-.44-.36-.22-.15-.52-.15-.75 0-.31.21-.38.58-.17.89zM7.39 3.92c.21.31.63.39.94.18.31-.21.38-.63.17-.94-.21-.31-.63-.39-.93-.18-.31.21-.39.63-.18.94z" class="fil8"/><g><path d="M8.11 3.49l.59.39.23-.52-.3-.27z" class="fil9"/><path id="1" d="M8.7 3.87v.01l-.59-.38.01-.01.58.38zm0 .01zm.23-.52h.01l-.24.52v-.01l.23-.51zm0 0h.01-.01zm-.31-.27h.01l.3.27-.31-.27zm0 0h.01-.01zm-.5.41h-.01v-.01l.51-.4h.01l-.51.41zm-.01 0v-.01.01z" class="fil3"/></g><g><path d="M8.74 4.18c.16.17.33.4.48.52.38.26.78.19 1.05-.13.17-.22.26-.61-.05-.96-.05-.07-.39-.34-.47-.4-.24-.15-.56-.16-.82.01-.33.23-.41.62-.19.96z" class="fil8"/><path id="1" d="M8.74 4.18c.16.17.33.4.48.52.38.26.78.19 1.05-.13.17-.22.26-.61-.05-.96-.05-.07-.39-.34-.47-.4-.24-.15-.56-.16-.82.01-.33.23-.41.62-.19.96z" class="fil1 str0"/></g><g><path d="M9.09 4.5c.22.33.66.41.98.19.32-.22.41-.66.19-.98-.22-.32-.66-.41-.98-.19-.32.22-.41.66-.19.98z" class="fil10"/><path id="1" d="M9.09 4.5c.22.33.66.41.98.19.32-.22.41-.66.19-.98-.22-.32-.66-.41-.98-.19-.32.22-.41.66-.19.98z" class="fil1 str0"/></g><g><path d="M9.48 4.24c.09.12.25.15.37.07.11-.08.15-.25.06-.36-.08-.12-.24-.15-.36-.07-.12.08-.15.24-.07.36z" class="fil8"/><path id="1" d="M9.48 4.24c.09.12.25.15.37.07.11-.08.15-.25.06-.36-.08-.12-.24-.15-.36-.07-.12.08-.15.24-.07.36z" class="fil1 str0"/></g><g><path fill="#96c11a" d="M1.77 6.44l.08-.08c.06.05.17-.01.1-.08 0-.01-.01-.01-.01-.01L7.31.72C8.35-.77 10.3.28 9.34 2.42c-1.6 1.79-3.11 3.43-4.89 5C2.52 8.83.3 8.4.01 7.48c-.06-.17.35-.28.87-.51.01-.01.03-.01.04-.02.01.01.03.03.05.04.08.03.18-.06.13-.13.03-.01.03-.01.05-.02.21-.11.42-.24.62-.4zm6.48-4.6c.05.02.1-.03.06-.07-.02-.02-.06-.02-.09 0-.02.01-.01.05.03.07zm-.71-.47c.04.02.09-.03.06-.07-.03-.02-.07-.02-.09 0-.03.01-.01.05.03.07zm-.46.37c.05.03.12-.04.07-.09-.03-.02-.08-.02-.11 0-.03.01-.01.07.04.09zm.77.5c.06.02.13-.04.08-.09-.03-.03-.09-.03-.12-.01-.02.02-.01.07.04.1zM2.66 6.98c.06.03.12-.04.07-.09-.03-.02-.08-.02-.11 0-.03.01-.01.06.04.09zm-.83.71c.09.03.18-.07.1-.14-.04-.03-.12-.02-.16.01-.04.03-.01.1.06.13z"/><path id="1" d="M1.84 6.36h.01l-.08.08v-.01l.07-.07zm0 0l.01-.01v.01h-.01zm.12-.08l.01.01v.01l.01.01v.03l-.01.01v.01h-.01v.01h-.01l-.01.01h-.07v-.01h-.02l-.01-.01h.02l.01.01h.03v.01h.01v-.01h.03l.01-.01h.01v-.01l.01-.01v-.03l-.01-.01v-.01l-.01-.01h.01zm-.02-.01v-.01.01h.01v.01h.01-.02v-.01h-.01.01zm-.01 0zM7.31.72h.01L1.94 6.27h-.01L7.31.72zm.01 0zm2.02 1.7h-.01l.09-.2.06-.19.05-.18.04-.18.02-.17v-.31l-.02-.15-.03-.13L9.5.78 9.45.66 9.39.55l-.07-.1-.07-.09-.09-.08-.09-.07-.09-.06-.1-.05-.11-.03-.11-.03-.11-.01h-.12l-.11.01-.12.02-.12.04-.11.04-.12.07-.11.07-.11.09-.11.1-.1.12-.1.13h-.01l.1-.14.1-.11.11-.11.11-.09.12-.07.11-.06.12-.05.12-.04.12-.02.11-.01h.12l.11.01.11.03.11.04.1.05.1.05.09.07.08.08.08.1.07.1.06.11.05.11.04.13.03.14.02.15v.15l-.01.16-.02.17-.03.18-.05.18-.07.19-.08.2zm0 0zm-4.9 5l.17-.15.16-.15.17-.14.16-.15.16-.15.16-.15.16-.15.16-.15.15-.16.16-.15.15-.15.16-.15.15-.16.15-.15.15-.16.15-.15.15-.16.15-.15.15-.16.15-.16.15-.16.14-.16.15-.16.15-.16.15-.16.15-.16.14-.16.15-.17.15-.16.15-.17.15-.16.15-.17-.15.17-.15.17-.15.16-.14.17-.15.16-.15.16-.15.17-.14.16-.15.16-.15.16-.15.16-.15.16-.14.15-.15.16-.15.16-.15.15-.15.16-.15.15-.16.16-.15.15-.15.16-.16.15-.15.15-.16.15-.15.15-.16.15-.16.15-.16.15-.17.15-.16.15-.17.15-.16.15-.01-.01zm.01.01zm-4.44.05l.04.08.04.08.05.08.07.08.07.07.08.06.1.06.1.06.11.06.11.04.13.05.13.03.13.03.15.03.14.02.16.01.16.01.16-.01.16-.01.17-.01.18-.03.17-.03.18-.04.18-.05.18-.06.19-.06.18-.08.18-.09.19-.09.18-.11.18-.11.18-.13.01.01-.18.12-.19.12-.18.11-.18.09-.19.09-.18.07-.18.07-.19.06-.18.05-.17.04-.18.03-.17.03-.18.01-.16.01h-.32l-.16-.01-.15-.02-.14-.03-.14-.03L.9 8.2l-.12-.04-.12-.05-.11-.05L.45 8l-.09-.06-.08-.07L.2 7.8l-.06-.07-.06-.08-.04-.08-.03-.09zm.87-.51l-.05.02-.04.02-.05.02-.05.02-.04.02-.05.02-.04.02-.04.02-.04.01-.04.02-.04.02-.04.01-.03.02-.04.01-.03.02-.03.01-.03.02-.03.01-.02.01-.02.02-.03.01-.02.02-.01.01-.02.01-.01.02-.01.01-.01.02-.01.01v.06L0 7.46v-.03l.01-.01V7.4l.01-.01.01-.02.02-.01.01-.02.02-.01.02-.01.02-.02.03-.01.02-.02.03-.01.03-.02.03-.01.03-.01.04-.02.03-.02.04-.01.04-.02.04-.01.04-.02.04-.02.04-.02.05-.01.04-.02.05-.02.04-.02.05-.02.05-.03v.01zm.04-.02v.01H.9v.01H.88v-.01H.9v-.01h.02zm0 0zm.05.04H.96v-.01H.95l-.01-.01H.93v-.01H.92v-.01h.01v.01h.01v.01h.02v.01h.01v.01zm.13-.12v-.01l.01.01v.01l.01.01v.02h-.01v.02l-.01.01-.01.01v.01h-.01v.01h-.01v.01h-.02v.01h-.03L1.01 7H1l-.01-.01H.97v-.01h.01l.01.01h.03l.01-.01h.02l.01-.01h.01v-.01h.01v-.01h.01v-.01l.01-.01v-.01l.01-.01v-.03H1.1v-.02.01zm0-.01zm.06-.02h-.02v.01h-.02v.01H1.1v.01-.01h.01v-.01h.01l.01-.01h.01l.01-.01.01.01zm.61-.4l-.01.02-.02.01-.02.02-.02.01-.02.01-.02.02-.02.01-.02.02-.02.01-.02.01-.02.02-.02.01-.02.01-.02.02-.02.01-.01.01-.02.01-.02.01-.02.02-.02.01-.02.01-.02.01-.02.01-.02.01-.02.02-.02.01-.02.01-.02.01-.02.01-.02.01-.02.01-.01.01-.01-.01.02-.01.02-.01.02-.01.02-.01.02-.01.02-.01.02-.01.02-.01.02-.01.01-.01.02-.02.02-.01.02-.01.02-.01.02-.01.02-.02.02-.01.02-.01.02-.01.02-.02.02-.01.02-.01.02-.02.02-.01.02-.01.01-.02.02-.01.02-.02.02-.01.02-.02.02-.01.02-.02v.01zm0 0zm6.54-4.67h.01v.01l.01.01v.03h-.01v.01h-.01v.01H8.3l-.01.01h-.03l-.01-.01h.05v-.01h.01v-.01h.01v-.04h-.01v-.01zm-.09-.01h.02v-.01h.05v.01h.02v.01H8.3v-.01h-.07v.01h-.01v-.01zm.03.08h-.01v-.01h-.01v-.01h-.01v-.01h-.01v-.04h.01v-.01.05h.01v.01h.01v.01h.01l.01.01h-.01zM7.6 1.3v.01h.01v.05H7.6v.01h-.01l-.01.01h-.04v-.01h.05v-.01h.01v-.02h.01v-.01H7.6v-.02h-.01l.01-.01zm-.09 0v-.01h.03v-.01h.02l.01.01h.02v.01h.01l-.01.01V1.3h-.02v-.01h-.04v.01h-.02zm.03.08l-.01-.01h-.01v-.01h-.01v-.01H7.5v-.02h-.01v-.02l.01-.01h.01l-.01.01v.02l.01.01v.01h.01v.01h.01v.01h.01v.01zm-.39.27l.01.01v.01h.01v.04l-.01.01-.01.01v.01h-.02v.01h-.05l-.01-.01H7.13v-.01h.02v-.01l.01-.01v-.04l-.01-.01v-.01zm0 0zm-.12-.01h.02v-.01h.08v.01h.02v.02l-.01-.01h-.01v-.01h-.08v.01h-.01l-.01-.01zm.04.1h-.01v-.01h-.01l-.01-.01v-.01h-.01V1.7h-.01v-.05h.01v-.01l.01.01h-.01v.05h.01v.01h.01v.01h.01v.01h.01l.01.01h-.01zm.86.41l.01.01v.01h.01v.03l-.01.01v.01h-.01v.01h-.01v.01H7.9v.01h-.03l-.01-.01h-.01l.01-.01.01.01h.03l.01-.01h.01v-.01h.01v-.01h.01v-.04h-.01v-.01l-.01-.01h.01zm0 0zm-.12-.01h.01v-.01h.04v-.01h.02v.01h.03l.01.01h.01v.01h-.01v-.01h-.03v-.01h-.04l-.01.01h-.02v.01l-.01-.01zm.04.1l-.01-.01h-.01v-.01h-.01v-.01h-.01V2.2H7.8v-.05h.01v-.01l.01.01h-.01v.01l-.01.01h.01v.02l.01.01v.01h.01v.01h.01v.01h.02l-.01.01zM2.73 6.89h.01v.01h.01V6.96h-.01v.01h-.01v.01h-.01l-.01.01h-.05v-.01h.05l.01-.01h.01v-.01h.01V6.9h-.01v-.01zm-.11-.01h.01v-.01h.08l.01.01h.01v.01h-.01l-.01-.01h-.08v.01h-.01v-.01zm.04.1h-.02v-.01h-.01v-.01h-.01v-.01h-.01v-.02H2.6V6.9l.01-.01v-.01h.01v.01h-.01v.04h.01v.02h.01v.01h.01v.01h.02v.01zm-.73.57l.01.01.01.01v.01l.01.01v.05l-.01.01v.01l-.01.01-.01.01h-.01v.01H1.9v.01H1.84l-.01-.01h.07l.01-.01h.01l.01-.01.01-.01v-.01h.01v-.03h.01v-.01l-.01-.01v-.02h-.01v-.01l-.01-.01v-.01zm-.17 0h.02v-.01h.02l.01-.01h.09v.01h.02v.01h.01v.01l-.01-.01h-.01v-.01H1.8v.01h-.02v.01h-.01l-.01-.01zm.07.14h-.01l-.01-.01H1.8l-.01-.01-.01-.01-.01-.01v-.01h-.01v-.01l-.01-.01V7.6h-.01v-.01l.01-.01v-.02h.01v-.01l.01.01-.01.01-.01.01v.03h.01v.02h.01v.01h.01v.01l.01.01h.01v.01h.01l.01.01h.01l.01.01h-.01z" class="fil3"/></g><g><path fill="#c4d985" d="M1.55 6.17L7.26.79c1.03-1.48 2.8-.76 1.97 1.24-1.6 1.79-3.22 3.55-5.01 5.13C2.3 8.57.31 8.1.02 7.38c-.11-.26.69-.54 1.53-1.21zm6.72-4.32c.06.04.13.05.15.04.03-.02.01-.06-.05-.1-.06-.03-.12-.05-.15-.03-.03.02 0 .06.05.09zm-.71-.46c.06.03.12.05.15.03.03-.02.01-.06-.05-.09-.06-.04-.13-.05-.15-.03-.03.01-.01.05.05.09zm.32.87c.08.05.17.07.21.05.03-.03 0-.08-.07-.13-.08-.05-.17-.07-.21-.04-.04.02 0 .07.07.12zm-.77-.5c.07.05.16.07.2.05.04-.02.01-.08-.07-.13-.08-.04-.17-.06-.2-.04-.04.02-.01.08.07.12zM1.02 7.04c.12.07.26.1.31.07.06-.04.01-.12-.11-.19-.06-.04-.18-.1-.26-.08-.02 0-.03.01-.04.01l-.02.02c-.01.02-.01.04 0 .06.02.04.06.08.12.11zm.87.7c.11.07.25.1.3.07.06-.04.01-.12-.1-.19-.06-.04-.12-.06-.17-.07-.04-.03-.11-.02-.15.01-.04.02-.02.07.03.11.02.02.05.05.09.07zm.82-.72c.08.06.19.08.23.05.04-.02 0-.08-.08-.14-.09-.05-.19-.07-.23-.05-.05.03-.01.09.08.14zm-.79-.61c.09.06.19.08.24.05.04-.02 0-.09-.09-.14-.08-.05-.19-.07-.23-.05-.04.03 0 .09.08.14z"/><path id="1" d="M7.26.79V.8L1.55 6.18v-.01L7.26.79zm0 .01zm1.96 1.23l.07-.18.06-.18.04-.17.03-.16.01-.15.01-.14-.01-.14-.02-.13-.03-.11-.04-.11-.05-.1-.05-.09-.07-.08L9.1.22 9.02.16 8.94.11 8.85.07l-.1-.03-.09-.02-.11-.01h-.1l-.11.01-.11.03-.11.03-.11.05-.11.06-.11.07-.11.08-.11.1-.11.1-.1.12-.1.14-.01-.01.1-.13.11-.12.1-.11.11-.09.11-.09.11-.07L8 .12l.12-.04.11-.04.11-.02.11-.02h.1l.11.01.1.02.09.03.09.04.09.05.08.06.07.07.06.09.06.09.05.1.04.1.03.12.02.13v.28l-.01.15-.03.16-.05.17-.05.18-.07.19-.01-.01zm.01.01zM4.22 7.16l.17-.15.16-.15.17-.15.16-.15.17-.15.16-.16.16-.15.16-.16.16-.15.16-.16.16-.16.16-.16.15-.15.16-.16.16-.16.15-.17.16-.16.15-.16.16-.16.15-.17.15-.16.16-.16.15-.17.15-.16.15-.17.15-.17.15-.16.15-.17.15-.17.15-.16.15-.17.15-.17.01.01-.15.16-.15.17-.15.17-.15.17-.15.16-.15.17-.15.17-.16.16-.15.17-.15.16-.15.17-.15.16-.16.16-.15.17-.16.16-.15.16-.16.16-.15.16-.16.16-.16.16-.15.16-.16.16-.16.15-.16.16-.16.15-.17.16-.16.15-.16.15-.17.15-.16.16-.17.14-.17.15zm0 0h.01-.01zm-4.2.22l.03.06.05.07.05.06.06.06.06.06.08.05.09.05.09.05.1.05.11.04.11.03.12.03.13.03.13.02.14.01.14.01.15.01.15-.01.15-.01.16-.02.17-.02.16-.03.17-.05.17-.04.18-.06.17-.07.18-.07.18-.09.18-.1.18-.1.18-.12.18-.12-.18.13-.18.12-.18.1-.18.1-.18.08-.17.08-.18.07-.17.05-.18.05-.17.04-.16.04-.17.02-.16.02-.15.01h-.3l-.15-.01-.13-.01-.14-.02L.97 8l-.12-.03-.12-.04-.1-.04-.11-.04-.09-.05-.08-.05-.08-.06-.07-.05-.06-.06-.05-.07-.04-.06-.04-.07h.01zm1.53-1.2l-.08.06-.08.06-.07.06-.08.05-.07.05-.08.06-.07.04-.08.05-.07.05-.07.04-.06.04-.07.04-.06.04-.06.04-.06.04-.06.03-.05.04L.33 7l-.05.03-.04.03-.04.03-.04.03-.03.03-.03.03-.03.03-.02.02-.01.03-.02.02v.03l-.01.02v.02l.01.03H.01V7.3l.01-.02.01-.03.02-.02.02-.03.02-.03.03-.03.04-.02.03-.03.04-.03.05-.03.05-.04.05-.03.05-.03.06-.04.05-.03.06-.04.07-.04.06-.04.07-.05.07-.04.07-.04.07-.05.08-.05.07-.05.08-.06.07-.05.08-.06.08-.06.08-.06v.01zm0 0zm6.88-4.29h-.02v.01h-.04v-.01h-.04v-.01h-.02l-.01-.01h-.01l-.01-.01h-.01l.01-.01.01.01h.01l.01.01h.01l.01.01h.03l.01.01h.04l.01-.01.01.01zm-.06-.1h.01v.01h.01l.01.01h.01v.01h.01v.01h.01v.02h.01v.03h-.01v.01l-.01-.01h.01v-.03l-.01-.01-.01-.01-.01-.01-.01-.01h-.01V1.8h-.01v-.01zm-.15-.03v-.01h.07l.01.01h.02l.01.01h.02v.01h.01l.01.01v.01l-.01-.01h-.01v-.01h-.02v-.01H8.3v-.01h-.08zm.05.1v-.01h-.01l-.01-.01h-.01v-.01h-.01v-.01h-.01v-.01h-.01v-.03H8.2h.01v-.02h.01v.01h-.01v.02h.01v.02h.01v.01h.01v.01h.01l.01.01h.01v.01h.01l-.01.01zm-.56-.44v.01h-.07l-.01-.01h-.02l-.01-.01h-.01l-.01-.01h-.02v-.01h.02v.01h.02l.01.01h.02v.01h.08zm-.05-.09h.01l.01.01h.01v.01h.01v.01h.01v.01h.01v.02h.01v.02h-.01v.01h-.01l.01-.01v-.02h-.01v-.02H7.7v-.01h-.01v-.01h-.01v-.01h-.01l-.01-.01zm-.15-.04h.08l.01.01h.02v.01h.02v.01h.02v.01h-.01l-.01-.01h-.01l-.01-.01H7.6V1.3h-.03l-.01-.01h-.04v.01h-.01v-.01zm.05.1h-.01l-.01-.01h-.01v-.01l-.01-.01h-.01v-.01l-.01-.01v-.01h-.01V1.3h.01v-.01h.01v.01H7.5v.03h.01v.02h.01v.01h.01v.01h.01l.01.01h.01v.01zm.53.92h-.01l-.01.01H8.01v-.01h-.04l-.01-.01h-.01l-.01-.01h-.02l-.01-.01H7.9v-.01h-.02l.01-.01.01.01h.01l.01.01h.02v.01h.02l.01.01h.02l.01.01h.08V2.3l.01.01zm-.07-.13l.01.01h.01l.01.01h.01v.01h.01v.01h.01v.01l.01.01v.01h.01v.02l.01.01-.01.01v.01l-.01.01-.01-.01h.01v-.01h.01v-.02l-.01-.01v-.01h-.01v-.01l-.01-.01v-.01h-.01v-.01h-.02V2.2h-.01v-.01h-.01l-.01-.01h.01zm-.21-.05h.02l.01-.01h.03l.01.01h.04l.01.01h.02l.01.01h.01l.01.01H8v.01h.01l.01.01H8l-.01-.01h-.01v-.01h-.02l-.01-.01h-.02v-.01H7.9l-.01-.01H7.83l-.01.01h-.01v-.01zm.07.14l-.01-.01-.01-.01h-.01v-.01h-.01v-.01h-.01v-.01h-.01v-.01h-.01V2.2H7.8v-.02l-.01-.01v-.02h.01v-.01h.01v-.01.02H7.8v.03h.01v.02h.01v.01h.01v.01h.01v.01h.01v.01h.01l.01.01h.01l.01.01-.01.01zm-.57-.46v.01h-.09v-.01h-.03l-.01-.01h-.02v-.01h-.02l-.01-.01h-.01l-.01-.01v-.01h.01v.01h.01l.01.01h.01l.01.01h.01l.01.01h.03l.01.01h.09V1.8v.01zm-.07-.13h.01l.01.01.01.01.01.01h.01v.01h.01v.01h.01v.01h.01v.02h.01v.04h-.01v.01h-.01V1.8h.01v-.04h-.01v-.02H7.3v-.01h-.01v-.01h-.01l-.01-.01-.01-.01-.01-.01h-.01v-.01zm-.21-.04l.01-.01H7.14v.01h.03v.01h.02l.01.01h.01l.01.01h.01l.01.01v.01l-.01-.01h-.01v-.01H7.2l-.01-.01h-.01l-.01-.01h-.02l-.01-.01H7.1v-.01h-.04v.01h-.03zm.08.13l-.01-.01h-.01l-.01-.01-.01-.01h-.01v-.01h-.01v-.01h-.01v-.01l-.01-.01v-.01h-.01v-.05h.02-.01v.02h-.01v.01h.01v.02h.01v.02h.01v.01h.01l.01.01.01.01.01.01h.01v.01h.01v.01zM1.33 7.11l-.01.01h-.03l-.01.01h-.03l-.01-.01h-.05l-.01-.01h-.02l-.02-.01h-.01l-.01-.01H1.1l-.01-.01h-.01l-.01-.01-.02-.01h-.01l-.01-.01h-.01l.01-.01h.01l.01.01.01.01h.01l.01.01h.01l.01.01h.01l.01.01h.02l.01.01h.03l.01.01h.03l.01.01h.07l.01-.01h.01l.01-.01v.01zm-.11-.19h.01l.02.01v.01h.01l.01.01.01.01h.01l.01.01.01.01.01.01V7l.01.01.01.01v.01h.01v.02l.01.01v.02l-.01.01v.01h-.01v.01h-.01V7.1h.01v-.01h.01v-.04h-.01v-.02l-.01-.01-.01-.01V7h-.01v-.01l-.01-.01h-.01v-.01l-.01-.01h-.01l-.01-.01-.01-.01h-.01l-.01-.01-.01-.01zm-.26-.08l.01-.01h.05l.01.01h.04l.01.01h.02l.01.01h.01l.01.01h.01l.01.01h.02v.01h.01l.01.01h.01l.01.01h.01v.01h-.01v-.01h-.02V6.9h-.01l-.01-.01h-.02v-.01h-.01l-.01-.01h-.02l-.01-.01h-.02l-.01-.01h-.03l-.01-.01H.96zm0 0zm-.05.01h.01v-.01h.04-.01v.01H.92v.01l-.01-.01zm-.02.02H.9v-.01h.01v-.01l.01.01H.91v.01H.9v.01l-.01-.01zm.01.01zm0 .05v-.01H.89v-.05l.01.01v.04l.01.01H.9zm.01 0zm.11.12v-.01h-.01v-.01H1l-.01-.01H.98v-.01H.97L.96 7H.95v-.01H.94v-.01l-.01-.01-.01-.01-.01-.01v-.01H.9v-.01h.01v.01h.01v.01l.01.01v.01h.01v.01h.01l.01.01.01.01h.01v.01h.01v.01H1l.01.01h.01l.01.01-.01.01zm1.18.76h-.01l-.01.01H2.06l-.01-.01h-.02l-.01-.01H2l-.01-.01h-.02l-.01-.01h-.01l-.01-.01h-.01l-.01-.01h-.01l-.01-.01-.02-.01h.02l.01.01.01.01h.01l.01.01h.01l.02.01h.01l.01.01h.02l.01.01h.02l.01.01h.05l.01.01h.04v-.01h.04V7.8l.01.01zm-.11-.2l.01.01.01.01h.01l.01.01.01.01.01.01.01.01.01.01h.01v.01l.01.01.01.01v.01h.01v.02h.01v.05h-.01v.01l-.01.01-.01-.01h.01v-.01h.01v-.05l-.01-.01v-.01l-.01-.01-.01-.01-.01-.01-.01-.01v-.01h-.01l-.01-.01-.01-.01h-.01l-.01-.01-.01-.01h-.01l-.01-.01.01-.01zm-.17-.07l.01.01h.03v.01h.02l.01.01h.02v.01h.02l.01.01h.01l.01.01h.01v.01h.02l-.01.01-.01-.01h-.01l-.01-.01h-.01l-.01-.01h-.01l-.01-.01H2l-.01-.01h-.02l-.01-.01h-.03v-.01h-.01v-.01zm0 .01zm-.16 0h.02v-.01h.02l.01-.01h.09v.01h.02v.01h-.01v-.01H1.8v.01h-.02v.01h-.01l-.01-.01zm.03.12v-.01h-.01l-.01-.01-.01-.01v-.01h-.01V7.6h-.01v-.01l.01-.01v-.02h.01v-.01l.01.01h-.01v.02h-.01v.03h.01v.02h.01v.01h.01v.01l.01.01.01.01h-.01zm.01 0zm.08.07h-.01v-.01h-.01l-.01-.01-.01-.01h-.01V7.7h-.01v-.01h-.01v-.01H1.8v-.01h-.01.02v.01h.01v.01h.01v.01h.01v.01h.02v.01h.01v.01h.02v.01h-.01zm1.06-.66h-.01l-.01.01h-.07v-.01h-.04v-.01h-.02l-.01-.01h-.02v-.01h-.02l-.01-.01h-.01l-.01-.01v-.01l.01.01h.01v.01h.02l.01.01h.02v.01h.02l.01.01h.03l.01.01h.07l.01-.01h.01v.01zm-.08-.15h.01v.01h.01l.01.01h.01v.01l.01.01.01.01.01.01.01.01.01.01v.01l.01.01v.03h-.01v.01h-.01v.01-.02h.01v-.04h-.01v-.01L2.93 7l-.01-.01-.01-.01-.01-.01-.01-.01h-.01v-.01h-.01l-.01-.01h-.01l.01-.01zm-.24-.05h.01l.01-.01h.09v.01h.03l.01.01h.01l.01.01h.02l.01.01h.01v.01h.02l.01.01-.01.01v-.01h-.01l-.01-.01h-.01l-.01-.01H2.8l-.01-.01h-.02l-.01-.01h-.02l-.01-.01H2.63v.01l-.01-.01zm.09.15l-.01-.01h-.01l-.01-.01L2.67 7h-.01v-.01h-.01l-.01-.01-.01-.01v-.01h-.01v-.01l-.01-.01v-.05h.01v-.01l.01.01h-.01v.01h-.01v.02l.01.01v.01l.01.01v.01h.01v.01l.01.01h.01v.01h.01V7h.01l.01.01.01.01h.01v.01zm-.55-.56h-.02l-.01.01h-.05l-.01-.01h-.04l-.01-.01h-.01L2 6.45h-.02l-.01-.01h-.01l-.01-.01h-.01l-.01-.01h-.01l.01-.01v.01h.02l.01.01h.01l.01.01h.01l.01.01h.02l.01.01h.03l.01.01h.07l.01-.01.01.01zm-.08-.15l.01.01h.01l.01.01.01.01h.01v.01h.01v.01l.01.01.01.01v.01h.01v.02l.01.01v.01l-.01.01v.01h-.01v.01l-.01-.01h.01v-.01h.01v-.03h-.01V6.4h-.01v-.01l-.01-.01-.01-.01-.01-.01h-.01v-.01l-.01-.01h-.01v-.01h-.01l-.01-.01h.01zm-.24-.05h.01v-.01h.09l.01.01h.03l.01.01h.02l.01.01h.01v.01h.02l.01.01h.01l.01.01h-.02l-.01-.01h-.01l-.01-.01h-.02v-.01h-.02l-.01-.01h-.02l-.01-.01H1.85v.01l-.01-.01zm.08.15l-.01-.01-.01-.01h-.01v-.01h-.01l-.01-.01-.01-.01-.01-.01v-.01h-.01v-.01l-.01-.01v-.01h-.01v-.03l.01-.01v-.01h.01l.01.01h-.01l-.01.01v.03l.01.01v.01h.01v.01h.01v.01h.01v.01l.01.01.01.01h.01v.01h.01l.01.01h.01l-.01.01z" class="fil3"/></g><path d="M4.28 8.81c.2.3.61.38.9.17.3-.2.38-.61.17-.9-.2-.3-.6-.38-.9-.17-.3.2-.38.6-.17.9z" class="fil10"/><path d="M4.64 8.57c.07.11.22.13.33.06.11-.08.14-.23.07-.34-.08-.1-.23-.13-.34-.06-.11.08-.14.23-.06.34z" class="fil8"/><path d="M2.84 6.56c-.03.03-.03.08 0 .1.03.03.07.03.1.01l4.53-4.42c.03-.03.03-.08 0-.11s-.07-.03-.1 0L2.84 6.56z" class="fil3"/></g></svg>