<svg xmlns="http://www.w3.org/2000/svg" width="65" height="54" fill-rule="evenodd" clip-rule="evenodd" image-rendering="optimizeQuality" shape-rendering="geometricPrecision" text-rendering="geometricPrecision" viewBox="0 0 6.95 5.76"><defs><style>.str0{stroke:#2b2a29;stroke-width:.1;stroke-miterlimit:22.9256}.fil1{fill:none;fill-rule:nonzero}.fil3{fill:#f08bb2}.fil2{fill:#6fa691}</style></defs><g id="Слой_x0020_1"><path fill="#c4d985" d="M4.25 1.7C3.79.47 4.77-.26 5.75.09c.43.2.51.62.66.86-.02.35-.03.69-.05 1.04.64.43.73 1.89.09 2.76-.79 1.07-3.29 1.2-4.44.81C.07 4.91-.63 2.83.65.93c.2-.3.5-.12.64-.04.28.43 3.62 1.68 2.96.81z"/><path id="1" d="M4.25 1.7C3.79.47 4.77-.26 5.75.09c.43.2.51.62.66.86-.02.35-.03.69-.05 1.04.64.43.73 1.89.09 2.76-.79 1.07-3.29 1.2-4.44.81C.07 4.91-.63 2.83.65.93c.2-.3.5-.12.64-.04.28.43 3.62 1.68 2.96.81z" class="fil1 str0"/><path d="M5.2.89c.13 0 .23.1.23.23s-.1.24-.23.24c-.09 0-.17-.05-.21-.13l.2-.1-.2-.11c.04-.08.12-.13.21-.13z" class="fil2"/><path id="1" d="M5.2.89c.13 0 .23.1.23.23s-.1.24-.23.24c-.09 0-.17-.05-.21-.13l.2-.1-.2-.11c.04-.08.12-.13.21-.13z" class="fil1 str0"/><path d="M.84 2.77c-.02-.09-.13-.1-.19.07-.53 1.06.9 2.66 2.07 1.53.17-.16.11-.3-.08-.25-.97-.28-1.55-.86-1.8-1.35z" class="fil3"/><path id="1" d="M.84 2.77c-.02-.09-.13-.1-.19.07-.53 1.06.9 2.66 2.07 1.53.17-.16.11-.3-.08-.25-.97-.28-1.55-.86-1.8-1.35z" class="fil1 str0"/><g><path d="M6.27 1c-.66.51-.87.84-.67 1.02.16.14.89-.01 1.28-.34.1-.11.07-.21-.07-.26-.05-.01.04-.06.09-.15.06-.1.08-.26-.05-.31-.04-.02-.17-.03-.29-.01-.12.03-.19-.03-.29.05z" class="fil3"/><path id="1" d="M6.27 1c-.66.51-.87.84-.67 1.02.16.14.89-.01 1.28-.34.1-.11.07-.21-.07-.26-.05-.01.04-.06.09-.15.06-.1.08-.26-.05-.31-.04-.02-.17-.03-.29-.01-.12.03-.19-.03-.29.05z" class="fil1 str0"/></g><g><path fill="#99cfba" d="M2.99 2c1.19.33 1.42.44 1.28.91-.13.46-.86.97-1.81.69-.94-.28-1.39-1.07-1.25-1.53.13-.47.52-.56 1.78-.07z"/><path id="1" fill="#2b2a29" fill-rule="nonzero" d="M4.28 2.91h-.01l.01-.05.01-.04.01-.03v-.04l.01-.04v-.03l-.01-.03v-.03l-.01-.03-.01-.03-.02-.03-.02-.03-.02-.02-.03-.03-.03-.02-.03-.03-.04-.02-.04-.02-.04-.03-.05-.02-.06-.02-.06-.03-.06-.02-.07-.02-.07-.03-.08-.02-.08-.03-.09-.02-.09-.03-.1-.03-.1-.03L2.99 2l.11.03.1.03.1.02.09.03.09.03.08.02.08.03.07.02.07.03.06.02.06.02.06.03.05.02.04.02.04.03.04.02.04.02.03.03.02.02.02.03.02.03.02.03.01.03.01.03.01.03v.14l-.01.03-.01.05-.01.04zm-1.82.69h.01l.08.02.09.02.09.02.08.01h.08l.08.01h.08l.08-.01h.07l.08-.02.07-.01.07-.02.06-.02.07-.02.06-.02.06-.03.06-.03.06-.03.05-.03.05-.04.05-.03.04-.04.05-.04.04-.04.03-.04.04-.04.03-.05.02-.04.03-.04.02-.05.02-.04.01-.04h.01l-.02.04-.02.05-.02.04-.02.04-.03.05-.03.04-.03.04-.04.04-.04.04-.04.04-.05.04-.05.04-.05.03-.05.03-.06.04-.06.02-.06.03-.06.03-.06.02-.07.02-.07.02-.07.01-.08.01-.07.01h-.24l-.08-.01-.09-.01-.08-.01-.09-.02-.09-.03zM1.2 2.07h.01l-.01.04-.01.05v.2l.01.05.02.05.01.06.02.05.02.06.03.05.03.06.03.05.03.06.04.05.04.06.05.05.05.05.05.05.05.05.06.05.06.05.06.05.07.04.07.04.07.04.07.04.08.04.08.03.09.03.09.03h-.01l-.08-.02-.09-.03-.08-.04-.08-.03-.07-.04-.08-.04-.07-.04-.06-.05-.07-.04-.06-.05-.05-.05-.06-.05-.05-.05-.05-.06-.04-.05-.04-.06-.04-.05-.04-.06-.03-.05-.03-.06-.02-.05-.02-.06-.02-.05-.02-.06-.01-.05-.01-.05-.01-.06v-.1l.01-.04v-.05l.01-.04zM2.99 2l-.12-.04-.11-.04-.11-.04-.1-.04-.09-.03-.09-.03-.09-.02-.08-.02-.08-.02-.08-.01-.07-.02-.06-.01h-.07l-.06-.01h-.05l-.05.01h-.05l-.05.01-.04.01-.04.01-.04.02-.03.02-.03.02-.03.02-.03.03-.02.03-.03.03-.02.03-.02.04-.01.03-.02.04-.01.05H1.2l.02-.05.01-.04.02-.04.02-.03.02-.04.02-.03.03-.02.02-.03.03-.03.04-.02.03-.01.04-.02.04-.01.04-.02h.05l.05-.01h.16l.07.01.06.01.07.01.08.02.08.01.08.03.09.02.09.03.1.03.1.03.1.04.11.04.12.05zm0 0z"/></g><g><path d="M4.06 3.26c-.31.32-.89.55-1.6.34-.83-.24-1.28-.89-1.28-1.36.5-.07 1.13-.03 1.75.2.58.21.94.51 1.13.82z" class="fil2"/><path id="1" d="M4.06 3.26c-.31.32-.89.55-1.6.34-.83-.24-1.28-.89-1.28-1.36.5-.07 1.13-.03 1.75.2.58.21.94.51 1.13.82z" class="fil1 str0"/></g></g></svg>