<svg xmlns="http://www.w3.org/2000/svg" width="141" height="63" fill-rule="evenodd" clip-rule="evenodd" image-rendering="optimizeQuality" shape-rendering="geometricPrecision" text-rendering="geometricPrecision" viewBox="0 0 428.39 192.78"><defs><style>.str0{stroke:#2b2a29;stroke-width:2.74;stroke-miterlimit:22.9256}.fil5{fill:none;fill-rule:nonzero}.fil2{fill:#2b2a29}.fil7{fill:#f08bb2}.fil4{fill:#6fa691}.fil8{fill:#99cfba}.fil3{fill:#2b2a29;fill-rule:nonzero}</style></defs><g id="Слой_x0020_1"><path fill="#fefefe" d="M71.11 23.59c39.19 0 70.97 31.78 70.97 70.97 0 39.18-31.78 70.96-70.97 70.96S.14 133.74.14 94.56c0-39.19 31.78-70.97 70.97-70.97z"/><path fill="#fefefe" d="M71.11 23.59c39.19 0 70.97 31.78 70.97 70.97 0 14.26-4.22 27.53-11.46 38.66-10.18 5.59-21.88 8.78-34.32 8.78-39.42 0-71.4-31.97-71.4-71.39 0-13.74 3.9-26.57 10.62-37.46 10.47-6.08 22.62-9.56 35.59-9.56z"/><path d="M58.72 100.55c-3.39 11.6-5.43 20.13-7.7 26.92-7.28 1.35-14.25 3.04-26.46-1.14-6.08-9.71-9.82-19.84-9.27-30.76 4.49-7 11.88-11.53 20.58-14.92 7.64 6.97 15.27 13.9 22.85 19.9zM88.29 90.03c9.1 7.94 16.35 13.3 21.92 17.79 6.86-2.79 9.58-5.58 17.6-15.68-.11-11.46-1.9-20.33-8.25-29.23-7.56-3.48-14.26-2.49-23.43-.65-2.67 9.98-4.7 18.64-7.84 27.77zM73.82 146.22c-1.31 7.18-3.36 9.85-4.32 13.78 3.89 2.48 15.84 4.1 25.1 2.35 9.43-6.5 10.34-5.99 17.36-15.36-6.29-5.17-6.86-5.82-9.94-10.39-7.99 4.6-17.64 7.97-28.2 9.62zM42.46 51.9c-4.24-3.46-8.76-6.76-12.46-9.88 2.36-4.08 11-12.33 22.12-15.86 5.8-1.88 20.98-.88 24.6 1.75-1.77 3.29-2.38 5.29-4.17 14.46-10.62 1.64-21.87 4.84-30.09 9.53zM137.39 119.96c.84-4.85.21-12.21 1.57-17.8 2.37-4.08 3.12-6.45 3.1-5.96-.03 6-2.37 18.9-4.67 23.76zM.35 95.41c.9-4.56 4.71-8.84 4.71-8.84.33-5.05 1.31-21.68 1.34-21.19-1.86 1.82-7.89 22-6.05 30.03zM50.48 162.48c-7.87-1.14-26.56-16.1-29.31-23.26-2.28-.72-8.39-4.23-7.97-3.98 6.69 8.89 12.38 17.58 37.28 27.24zM108.25 34.07c3.89 4.43 8.01 9.61 13.79 14.96 2.35 2.17 5.25 3.7 7.97 6.56-8.08-14.46-20.1-19.99-21.76-21.52z" class="fil2"/><path d="M46.48 46.13c-3.68 5.94-6.47 12.23-8.16 18.96-1.7 6.73-2.3 13.9-1.6 21.58l16.23 15.13c5.83-2.91 13.3-5.84 22.02-8.77 8.75-2.94 18.73-5.87 29.53-8.77-3.21-11.8-8.19-21.11-14.61-28.4-6.48-7.34-14.43-12.64-23.51-16.36l-19.9 6.63zm-9.43 18.64c1.75-6.93 4.63-13.41 8.44-19.52l.56.35-.2-.62 20.35-6.79.23-.07.22.09C76 42 84.19 47.43 90.87 55c6.66 7.56 11.81 17.25 15.06 29.55l.17.63-.63.17c-11.05 2.96-21.23 5.94-30.09 8.92-8.85 2.97-16.41 5.95-22.25 8.9l-.41.2-.33-.31-16.74-15.6-.18-.17-.02-.25c-.75-7.94-.15-15.33 1.6-22.27zM111.93 99.05c-.3 1.78-.57 3.5-.85 5.28h-.01c-1.55 9.82-3.36 21.25-8.9 35.45l7.79 7.27c8.57-1.85 15.06-6.85 19.84-13.29 6.1-8.22 9.4-18.78 10.63-28.08-2.54-3.66-10.13-14.48-18.36-14.83-3.07 1.06-3.96 2.47-4.85 3.88-.99 1.57-1.98 3.13-5.29 4.32zm-2.14 5.07c.31-1.99.62-3.93.92-5.66l.06-.39.38-.12c3.17-1.06 4.06-2.49 4.96-3.92 1.02-1.62 2.05-3.25 5.67-4.45l.11-.04.11.01c9.01.28 17.01 11.8 19.58 15.5l.06.1.14.2-.03.25c-1.22 9.55-4.6 20.44-10.9 28.94-5.02 6.75-11.87 11.99-20.95 13.85l-.33.07-.25-.23-8.36-7.8-.33-.3.16-.41c5.63-14.28 7.44-25.75 9-35.6zM48.39 123.7c3.74 4.86 8.79 10.27 14.62 14.98 4.81 3.9 10.15 7.32 15.69 9.56l.57.23-.2.59-3.77 10.8-.13.37-.38.06c-7.11 1.13-11.34 1.96-14.08 2.5-1.98.39-3.18.62-4.21.71-1.57.14-2.57-.08-5.09-.63-.55-.12-1.21-.27-1.74-.38-6.26-1.34-12.12-3.5-17.31-6.62-4.84-2.91-9.1-6.66-12.55-11.35l-.15-.2.03-.26.08-.71c.63-5.24 2.5-20.88 8.17-24.86l.11-.08.16-.02c3.74-.62 6.96.98 10.18 2.59 3.03 1.51 6.07 3.03 9.38 2.48l.39-.06.23.3zm13.8 16c-5.79-4.68-10.83-10.04-14.6-14.9-3.57.45-6.68-1.1-9.79-2.65-2.98-1.49-5.97-2.98-9.23-2.5-5.1 3.78-6.89 18.8-7.5 23.85l-.05.46c3.31 4.44 7.38 8.01 12.01 10.79 5.05 3.04 10.78 5.15 16.91 6.46.78.17 1.28.28 1.75.38 2.38.53 3.32.73 4.7.61.92-.07 2.11-.31 4.07-.7 2.66-.52 6.75-1.32 13.74-2.43l3.44-9.85c-5.47-2.3-10.71-5.69-15.45-9.52z" class="fil3"/><path d="M20.93 98.26c-4.58-1.87-8.4-3.97-11.46-6.3-3.09-2.36-5.41-4.95-6.96-7.78l-.1-.19.02-.2 2.1-16.94.02-.12.06-.12c3.8-6.72 8.18-12.36 13.09-17.02 4.92-4.65 10.38-8.32 16.31-11.09l.05-.03.04-.01 36.63-11.53.1-.03h.11c12.99.36 22.03 1.92 28.62 3.86 6.62 1.95 10.8 4.28 14.06 6.17l.07.03.04.04c1.79 1.55 3.2 3.2 4.62 4.84 1.37 1.61 2.75 3.22 4.48 4.72l.27.24-.05.35c-.44 2.73-.67 5.3-.9 7.79-.45 4.85-.87 9.44-2.64 14.44l-1.23-.43c1.72-4.86 2.14-9.36 2.57-14.13.22-2.41.45-4.89.85-7.52-1.67-1.49-3.01-3.05-4.35-4.61-1.36-1.59-2.73-3.18-4.44-4.67-3.19-1.85-7.28-4.11-13.72-6.01-6.49-1.91-15.37-3.45-28.17-3.8L34.52 39.7c-5.79 2.71-11.11 6.29-15.92 10.84-4.79 4.54-9.07 10.05-12.79 16.59L3.75 83.74c1.47 2.6 3.64 4.99 6.51 7.18 2.97 2.27 6.69 4.32 11.16 6.14l-.49 1.2z" class="fil3"/><path d="M304.33 33.79c3.83 0 7.53.56 11.04 1.62-.38-4.22-.39-8.02-.4-11.39-.01-7.34-.02-11.29-9.97-11.24-11.72.07-11.63 2.95-11.44 9.28.12 3.76.25 8.18-.28 13.36 3.51-1.06 7.22-1.63 11.05-1.63zm25.17 9.39c9.02 7.71 14.78 19.48 14.78 32.66 0 23.23-18.34 33.8-40.41 33.8-22.06 0-39.49-10.57-39.49-33.8 0-13.7 6.22-25.87 15.86-33.55l-1.02-.25c1.99-7.95 1.79-14.51 1.64-19.63-.47-15.24-.68-22.2 24.09-22.33 22.68-.13 22.7 8.31 22.73 23.94.01 5.27.02 11.74 1.82 19.16z" class="fil4"/><path id="1" d="M304.33 33.79c3.83 0 7.53.56 11.04 1.62-.38-4.22-.39-8.02-.4-11.39-.01-7.34-.02-11.29-9.97-11.24-11.72.07-11.63 2.95-11.44 9.28.12 3.76.25 8.18-.28 13.36 3.51-1.06 7.22-1.63 11.05-1.63zm25.17 9.39c9.02 7.71 14.78 19.48 14.78 32.66 0 23.23-18.34 33.8-40.41 33.8-22.06 0-39.49-10.57-39.49-33.8 0-13.7 6.22-25.87 15.86-33.55l-1.02-.25c1.99-7.95 1.79-14.51 1.64-19.63-.47-15.24-.68-22.2 24.09-22.33 22.68-.13 22.7 8.31 22.73 23.94.01 5.27.02 11.74 1.82 19.16z" class="fil5 str0"/><path fill="#fefefe" fill-rule="nonzero" d="M302.75 66.06c.36.13.66.27.9.43.23.16.43.35.58.56.16.21.28.44.37.7.09.25.18.54.26.84l1.3 4.86c.03.07.03.16.01.26-.02.11-.12.16-.3.16h-2.43c-.07 0-.15-.01-.23-.04-.08-.03-.15-.11-.19-.25l-1.28-4.5c-.11-.37-.24-.66-.38-.89-.15-.23-.33-.41-.54-.54-.21-.12-.45-.21-.73-.26-.28-.05-.6-.07-.96-.07h-1.72l.02 6.21c0 .16-.03.25-.08.29-.06.03-.16.05-.3.05h-2.43c-.12 0-.21-.02-.28-.05-.06-.04-.09-.13-.09-.29V59.55c0-.15.03-.25.09-.28.07-.04.16-.05.28-.05h2.45c.14 0 .24.01.3.05.05.03.07.13.04.28v5.34h1.67c.21 0 .43-.02.66-.05.24-.04.46-.12.69-.24.22-.13.42-.32.61-.57.19-.25.34-.59.45-1.02l.95-3.54c.02-.14.08-.22.17-.25.09-.03.17-.04.24-.04h2.35c.18 0 .28.05.3.15.02.11.02.2-.01.26l-.96 3.75c-.28 1.2-.88 2.08-1.78 2.62v.1zm8.79 7.37c0 .2-.03.32-.08.37-.06.05-.19.07-.4.07h-2.22c-.17 0-.29-.03-.37-.09-.07-.07-.11-.18-.11-.35V63.07c0-.5.07-.98.2-1.44.13-.46.34-.88.65-1.24.3-.36.69-.65 1.18-.87.49-.22 1.1-.33 1.82-.33h6.03c.18 0 .3.04.34.11.05.07.08.2.08.4v1.78c0 .18-.03.3-.09.36-.05.07-.16.1-.33.1h-5.34c-.54 0-.91.12-1.09.37-.18.24-.27.55-.27.93v10.19z"/><path d="M173.43 125.26h249.91c2.74 0 4.97 2.23 4.97 4.97 0 2.73-2.23 4.97-4.97 4.97H173.43c-2.73 0-4.97-2.24-4.97-4.97 0-2.74 2.24-4.97 4.97-4.97z" class="fil4"/><path id="1" d="M173.43 125.26h249.91c2.74 0 4.97 2.23 4.97 4.97 0 2.73-2.23 4.97-4.97 4.97H173.43c-2.73 0-4.97-2.24-4.97-4.97 0-2.74 2.24-4.97 4.97-4.97z" class="fil5 str0"/><path d="M192.7 81.24h6.24c3.74 0 6.81 3.06 6.81 6.81v84.36c0 3.74-3.07 6.81-6.81 6.81h-6.24c-3.74 0-6.81-3.07-6.81-6.81V88.05c0-3.75 3.07-6.81 6.81-6.81z" class="fil7"/><path id="1" d="M192.7 81.24h6.24c3.74 0 6.81 3.06 6.81 6.81v84.36c0 3.74-3.07 6.81-6.81 6.81h-6.24c-3.74 0-6.81-3.07-6.81-6.81V88.05c0-3.75 3.07-6.81 6.81-6.81z" class="fil5 str0"/><g><path d="M378.63 67.75h-7.95c-4.77 0-8.68 3.91-8.68 8.68v107.6c0 4.77 3.91 8.68 8.68 8.68h7.95c4.78 0 8.68-3.91 8.68-8.68V76.43c0-4.77-3.9-8.68-8.68-8.68z" class="fil8"/><path id="1" d="M378.63 67.75h-7.95c-4.77 0-8.68 3.91-8.68 8.68v107.6c0 4.77 3.91 8.68 8.68 8.68h7.95c4.78 0 8.68-3.91 8.68-8.68V76.43c0-4.77-3.9-8.68-8.68-8.68z" class="fil5 str0"/></g><g><path d="M405.44 81.24h-6.24c-3.74 0-6.81 3.06-6.81 6.81v84.36c0 3.74 3.07 6.81 6.81 6.81h6.24c3.74 0 6.8-3.07 6.8-6.81V88.05c0-3.75-3.06-6.81-6.8-6.81z" class="fil7"/><path id="1" d="M405.44 81.24h-6.24c-3.74 0-6.81 3.06-6.81 6.81v84.36c0 3.74 3.07 6.81 6.81 6.81h6.24c3.74 0 6.8-3.07 6.8-6.81V88.05c0-3.75-3.06-6.81-6.8-6.81z" class="fil5 str0"/></g><g><path d="M219.5 67.75h7.96c4.77 0 8.68 3.91 8.68 8.68v107.6c0 4.77-3.91 8.68-8.68 8.68h-7.96c-4.77 0-8.68-3.91-8.68-8.68V76.43c0-4.77 3.91-8.68 8.68-8.68z" class="fil8"/><path id="1" d="M219.5 67.75h7.96c4.77 0 8.68 3.91 8.68 8.68v107.6c0 4.77-3.91 8.68-8.68 8.68h-7.96c-4.77 0-8.68-3.91-8.68-8.68V76.43c0-4.77 3.91-8.68 8.68-8.68z" class="fil5 str0"/></g></g></svg>