<svg xmlns="http://www.w3.org/2000/svg" width="63" height="67" fill-rule="evenodd" clip-rule="evenodd" image-rendering="optimizeQuality" shape-rendering="geometricPrecision" text-rendering="geometricPrecision" viewBox="0 0 19.89 20.95"><defs><style>.str0{stroke:#2b2a29;stroke-width:.28;stroke-miterlimit:22.9256}.fil1{fill:none;fill-rule:nonzero}.fil6{fill:#c4d985}.fil0{fill:#96c11a}.fil3{fill:#d8ece4;fill-rule:nonzero}.fil2,.fil4,.fil5{fill:#6fa691;fill-rule:nonzero}.fil4,.fil5{fill:#96c11a}.fil4{fill:#99cfba}</style></defs><g id="Слой_x0020_1"><path d="M.72 15.01c-.38.49-.3.89.26.78 1.55-.34 2.24-.44 3.11-.09.04-.54.08-1.08.13-1.62-.28-.21-2.18-.59-3.5.93z" class="fil0"/><path id="1" d="M.72 15.01c-.38.49-.3.89.26.78 1.55-.34 2.24-.44 3.11-.09.04-.54.08-1.08.13-1.62-.28-.21-2.18-.59-3.5.93z" class="fil1 str0"/><path d="M2.93 15.27c.8 0 1.53.31 2.06.82.53.52.86 1.23.86 2.02 0 .78-.33 1.5-.86 2.01-.53.51-1.26.82-2.06.82s-1.53-.31-2.06-.82-.86-1.23-.86-2.01c0-.79.33-1.5.86-2.02.53-.51 1.26-.82 2.06-.82zm1.09 1.82c-.27-.27-.66-.43-1.09-.43-.43 0-.82.16-1.09.43-.27.26-.44.62-.44 1.02 0 .39.17.75.44 1.01.27.27.66.43 1.09.43.43 0 .82-.16 1.09-.43.27-.26.44-.62.44-1.01 0-.4-.17-.76-.44-1.02z" class="fil2"/><path id="1" d="M2.93 15.27c.8 0 1.53.31 2.06.82.53.52.86 1.23.86 2.02 0 .78-.33 1.5-.86 2.01-.53.51-1.26.82-2.06.82s-1.53-.31-2.06-.82-.86-1.23-.86-2.01c0-.79.33-1.5.86-2.02.53-.51 1.26-.82 2.06-.82zm1.09 1.82c-.27-.27-.66-.43-1.09-.43-.43 0-.82.16-1.09.43-.27.26-.44.62-.44 1.02 0 .39.17.75.44 1.01.27.27.66.43 1.09.43.43 0 .82-.16 1.09-.43.27-.26.44-.62.44-1.01 0-.4-.17-.76-.44-1.02z" class="fil1 str0"/><path d="M3.17 16.28c.59 0 1.13.23 1.52.6.39.38.63.9.63 1.48 0 .57-.24 1.09-.63 1.47-.39.38-.93.61-1.52.61s-1.13-.23-1.52-.61c-.39-.38-.63-.9-.63-1.47 0-.58.24-1.1.63-1.48.39-.37.93-.6 1.52-.6zm1.37.75c-.35-.34-.83-.55-1.37-.55-.54 0-1.03.21-1.38.55-.35.34-.56.81-.56 1.33 0 .51.21.98.56 1.32.35.34.84.55 1.38.55.54 0 1.02-.21 1.37-.55.35-.34.57-.81.57-1.32 0-.52-.22-.99-.57-1.33z" class="fil3"/><path d="M6.29 1.14c.09-.38.34-.61.72-.53.37.08.47.44.38.81l-.41 2.14c-.4.31-.49.72-.13 1.28v.03l-1.82 9.25c.11.79.04 1.68-.18 2.51-.22.86-.61 1.66-1.15 2.25-.25.29-.69.31-.98.05-.28-.25-.3-.69-.04-.98.37-.41.66-1.01.83-1.67.19-.7.24-1.44.14-2.08l-.02-.12.02-.12L5.49 4.6c.48-.13.51-1.13.39-1.2l.41-2.26z" class="fil3"/><path id="1" d="M6.29 1.14c.09-.38.34-.61.72-.53.37.08.47.44.38.81l-.41 2.14c-.4.31-.49.72-.13 1.28v.03l-1.82 9.25c.11.79.04 1.68-.18 2.51-.22.86-.61 1.66-1.15 2.25-.25.29-.69.31-.98.05-.28-.25-.3-.69-.04-.98.37-.41.66-1.01.83-1.67.19-.7.24-1.44.14-2.08l-.02-.12.02-.12L5.49 4.6c.48-.13.51-1.13.39-1.2l.41-2.26z" class="fil1 str0"/><path d="M3.82 14.24c-.39-.02-.68-.34-.66-.73.01-.38.34-.68.72-.66 2.39.24 2.51 1.34 3.33 2.85.17.36-.13-.26.11.24l.02.04.01.05c.24.75.45 1.19.72 1.42.22.21.55.29 1.05.33l7.92-.28c.38-.01.7.3.71.68.01.38-.29.7-.67.71l-7.97.27h-.07c-.82-.06-1.4-.22-1.9-.68-.46-.41-.78-1.02-1.09-1.99l-.1-.2c.02.04.03.06 0 0-.68-1.12-.67-1.91-2.13-2.05zm2.13 2.05c-.06-.14-.03-.06 0 0z" class="fil4"/><path id="1" d="M3.82 14.24c-.39-.02-.68-.34-.66-.73.01-.38.34-.68.72-.66 2.39.24 2.51 1.34 3.33 2.85.17.36-.13-.26.11.24l.02.04.01.05c.24.75.45 1.19.72 1.42.22.21.55.29 1.05.33l7.92-.28c.38-.01.7.3.71.68.01.38-.29.7-.67.71l-7.97.27h-.07c-.82-.06-1.4-.22-1.9-.68-.46-.41-.78-1.02-1.09-1.99l-.1-.2c.02.04.03.06 0 0-.68-1.12-.67-1.91-2.13-2.05zm2.13 2.05c-.06-.14-.03-.06 0 0z" class="fil1 str0"/><path d="M3.46 1.26c-.31-.02-.54-.28-.52-.59.01-.31.28-.54.58-.52l1.11.16c.31.02.54.28.52.59-.02.3-.28.54-.59.52l-1.1-.16z" class="fil5"/><path id="1" d="M3.46 1.26c-.31-.02-.54-.28-.52-.59.01-.31.28-.54.58-.52l1.11.16c.31.02.54.28.52.59-.02.3-.28.54-.59.52l-1.1-.16z" class="fil1 str0"/><path d="M4.69.01c.39 0 .72.42.72.94s-.33.95-.72.95c-.4 0-.72-.43-.72-.95s.32-.94.72-.94z" class="fil6"/><path id="1" d="M4.69.01c.39 0 .72.42.72.94s-.33.95-.72.95c-.4 0-.72-.43-.72-.95s.32-.94.72-.94z" class="fil1 str0"/><path d="M5.71 3.38l1.31.17c.16.03.27.18.25.34l-.1.71c-.02.16-.17.28-.33.26l-1.3-.18c-.16-.02-.28-.17-.25-.33l.09-.72c.02-.16.17-.27.33-.25z" class="fil0"/><path id="1" d="M5.71 3.38l1.31.17c.16.03.27.18.25.34l-.1.71c-.02.16-.17.28-.33.26l-1.3-.18c-.16-.02-.28-.17-.25-.33l.09-.72c.02-.16.17-.27.33-.25z" class="fil1 str0"/><path d="M4.95 1.6c-.31-.01-.54-.28-.53-.58.02-.31.29-.54.59-.52l3.82.23c.3.02.53.28.52.58-.02.31-.28.54-.59.53L4.95 1.6z" class="fil4"/><path id="1" d="M4.95 1.6c-.31-.01-.54-.28-.53-.58.02-.31.29-.54.59-.52l3.82.23c.3.02.53.28.52.58-.02.31-.28.54-.59.53L4.95 1.6z" class="fil1 str0"/><g><path d="M9.56.33c.43 0 .78.46.78 1.02 0 .57-.35 1.03-.78 1.03-.43 0-.78-.46-.78-1.03 0-.56.35-1.02.78-1.02z" class="fil6"/><path id="1" d="M9.56.33c.43 0 .78.46.78 1.02 0 .57-.35 1.03-.78 1.03-.43 0-.78-.46-.78-1.03 0-.56.35-1.02.78-1.02z" class="fil1 str0"/></g><g><path d="M9.84 1.97c-.3-.02-.54-.28-.52-.59.02-.3.28-.54.59-.52l1.71.05c.31.02.54.28.52.59-.02.31-.28.54-.59.52l-1.71-.05z" class="fil5"/><path id="1" d="M9.84 1.97c-.3-.02-.54-.28-.52-.59.02-.3.28-.54.59-.52l1.71.05c.31.02.54.28.52.59-.02.31-.28.54-.59.52l-1.71-.05z" class="fil1 str0"/></g><g><path d="M11.64.92c.29 0 .52.25.52.55 0 .3-.23.54-.52.54-.29 0-.53-.24-.53-.54 0-.3.24-.55.53-.55z" class="fil6"/><path id="1" d="M11.64.92c.29 0 .52.25.52.55 0 .3-.23.54-.52.54-.29 0-.53-.24-.53-.54 0-.3.24-.55.53-.55z" class="fil1 str0"/></g><g><path d="M17.18 15.5c.74 0 1.41.28 1.9.73.5.45.8 1.09.8 1.78 0 .7-.3 1.33-.8 1.79-.49.45-1.16.73-1.9.73s-1.42-.28-1.91-.73c-.49-.46-.8-1.09-.8-1.79 0-.69.31-1.33.8-1.78.49-.45 1.17-.73 1.91-.73zm1.01 1.61c-.26-.23-.61-.38-1.01-.38s-.76.15-1.01.38c-.26.24-.41.55-.41.9s.15.67.41.9c.25.24.61.39 1.01.39s.75-.15 1.01-.39c.25-.23.41-.55.41-.9s-.16-.66-.41-.9z" class="fil2"/><path id="1" d="M17.18 15.5c.74 0 1.41.28 1.9.73.5.45.8 1.09.8 1.78 0 .7-.3 1.33-.8 1.79-.49.45-1.16.73-1.9.73s-1.42-.28-1.91-.73c-.49-.46-.8-1.09-.8-1.79 0-.69.31-1.33.8-1.78.49-.45 1.17-.73 1.91-.73zm1.01 1.61c-.26-.23-.61-.38-1.01-.38s-.76.15-1.01.38c-.26.24-.41.55-.41.9s.15.67.41.9c.25.24.61.39 1.01.39s.75-.15 1.01-.39c.25-.23.41-.55.41-.9s-.16-.66-.41-.9z" class="fil1 str0"/></g><g><path fill="#99cfba" d="M19.61 15.52c.14.37-1.11-.26-2.33.03-.94.24-1.87 1.26-2.14 2.26l-1.03.09-1.09-.76c.58-3.02 5-3.8 6.59-1.62z"/><path id="1" d="M19.61 15.52c.14.37-1.11-.26-2.33.03-.94.24-1.87 1.26-2.14 2.26l-1.03.09-1.09-.76c.58-3.02 5-3.8 6.59-1.62z" class="fil1 str0"/></g><g><path d="M13.21 16.67l1.66 1.25-6.42.16-.88-1.32z" class="fil0"/><path id="1" d="M13.21 16.67l1.66 1.25-6.42.16-.88-1.32z" class="fil1 str0"/></g><g><path d="M14.88 18.28l.05-.36-6.48.16.85.38z" class="fil6"/><path id="1" fill="#2b2a29" fill-rule="nonzero" d="M14.92 17.92l.01-.01v.01l-.04.36h-.01l.04-.36zm.01-.01v.01-.01zm-6.48.18v-.01l6.48-.17v.01l-6.48.17zm0 0l-.03-.01h.03v.01zm.85.36v.02l-.85-.38v-.01l.85.37zm0 .02zm5.58-.2l.01.01v.01l-5.59.18v-.02l5.58-.18zm.01.01v.01-.01z"/></g><path d="M17.35 16.53c.5 0 .95.19 1.28.51.33.32.53.76.53 1.25 0 .48-.2.92-.53 1.24-.33.32-.78.52-1.28.52-.51 0-.96-.2-1.29-.52-.33-.32-.53-.76-.53-1.24 0-.49.2-.93.53-1.25.33-.32.78-.51 1.29-.51zm1.16.64c-.3-.29-.71-.47-1.16-.47-.46 0-.87.18-1.17.47-.29.28-.48.68-.48 1.12 0 .43.19.83.48 1.11.3.29.71.47 1.17.47.45 0 .86-.18 1.16-.47.29-.28.48-.68.48-1.11 0-.44-.19-.84-.48-1.12z" class="fil3"/></g></svg>