<svg xmlns="http://www.w3.org/2000/svg" width="71" height="56" fill-rule="evenodd" clip-rule="evenodd" image-rendering="optimizeQuality" shape-rendering="geometricPrecision" text-rendering="geometricPrecision" viewBox="0 0 24.98 19.7"><defs><style>.str0{stroke:#2b2a29;stroke-width:.32;stroke-miterlimit:22.9256}.fil1{fill:none;fill-rule:nonzero}.fil3{fill:#fefefe}.fil0{fill:#6fa691}</style></defs><g id="Слой_x0020_1"><path d="M5.93 17.73c-.55.42-2.14.17-2.52.37-.39.19-.32.89-.32.89s5.67.46 8.44.62c2.77.15 8.64.08 9.99-.06 1.36-.14 2.71-.33 2.71-.33l.74-1.08s-.37-.47-.6-.81c-.23-.34-.55-.64-.55-.64l-.96.13s.46.46.34.82c-.12.36-1.16.7-2.21.75-.92.03-2.11-.18-2.43-.52-.42-.45-.3-.91-.3-.91l-1.13.09s-.23.98-.62 1.12c-.38.15-2.66.2-4.29.14-1.62-.07-3.68-.03-4.18-.53-.5-.51-.44-1.08-.45-1.21 0-.14-1.55-.42-1.55-.42s.44 1.16-.11 1.58z" class="fil0"/><path id="1" d="M5.93 17.73c-.55.42-2.14.17-2.52.37-.39.19-.32.89-.32.89s5.67.46 8.44.62c2.77.15 8.64.08 9.99-.06 1.36-.14 2.71-.33 2.71-.33l.74-1.08s-.37-.47-.6-.81c-.23-.34-.55-.64-.55-.64l-.96.13s.46.46.34.82c-.12.36-1.16.7-2.21.75-.92.03-2.11-.18-2.43-.52-.42-.45-.3-.91-.3-.91l-1.13.09s-.23.98-.62 1.12c-.38.15-2.66.2-4.29.14-1.62-.07-3.68-.03-4.18-.53-.5-.51-.44-1.08-.45-1.21 0-.14-1.55-.42-1.55-.42s.44 1.16-.11 1.58z" class="fil1 str0"/><path d="M5.38 16.13s.99.49 2.13.57c1.15.09 2.36-.14 2.36-.14l.07-1.71s1.33.51 2.49 1.04c1.52.68 3.13 1.36 4.4 1.48 1.28.13 6.83-.32 7.17-.46.35-.15.5-.92.23-.85-.74.21-3.35.62-7.38.57-1.74-.03-5.66-2.27-7.3-2.73-1.64-.46-4.51-.87-4.51-.87l.34 3.1z" class="fil0"/><path id="1" d="M5.38 16.13s.99.49 2.13.57c1.15.09 2.36-.14 2.36-.14l.07-1.71s1.33.51 2.49 1.04c1.52.68 3.13 1.36 4.4 1.48 1.28.13 6.83-.32 7.17-.46.35-.15.5-.92.23-.85-.74.21-3.35.62-7.38.57-1.74-.03-5.66-2.27-7.3-2.73-1.64-.46-4.51-.87-4.51-.87l.34 3.1z" class="fil1 str0"/><path fill="#99cfba" d="M5.95 3.13c.13.04.42 3.75-.11 4.92-.52 1.16-1.11 2.76-1.11 3.77-.01 1.01.4 1.34.4 1.34s4.01.36 6.07 1.46c2.06 1.1 4.77 2 6.44 2.19 1.68.2 6.29-.52 6.59-.75.3-.23.48-2.18-.24-2.66-.99-.66-3.64-1.04-4.81-1.91-1.18-.87-3.63-2.96-4.12-4.26-.49-1.29-1.83-5.23-2.04-6.01-.21-.78-.4-1.08-.4-1.08s-.47.28-.85.52c-.39.23-.59.64-.59.64s-.48.1-.91.25c-.43.15-2.87 1.52-3.22 1.58-.35.06-1.1 0-1.1 0z"/><path id="1" d="M5.95 3.13c.13.04.42 3.75-.11 4.92-.52 1.16-1.11 2.76-1.11 3.77-.01 1.01.4 1.34.4 1.34s4.01.36 6.07 1.46c2.06 1.1 4.77 2 6.44 2.19 1.68.2 6.29-.52 6.59-.75.3-.23.48-2.18-.24-2.66-.99-.66-3.64-1.04-4.81-1.91-1.18-.87-3.63-2.96-4.12-4.26-.49-1.29-1.83-5.23-2.04-6.01-.21-.78-.4-1.08-.4-1.08s-.47.28-.85.52c-.39.23-.59.64-.59.64s-.48.1-.91.25c-.43.15-2.87 1.52-3.22 1.58-.35.06-1.1 0-1.1 0z" class="fil1 str0"/><path d="M2.88 3.05c.13.04.41 3.75-.11 4.91-.52 1.16-1.12 2.76-1.12 3.77 0 1.01.41 1.34.41 1.34s4 .37 6.06 1.47c2.06 1.1 4.77 1.99 6.45 2.19 1.67.19 6.29-.52 6.58-.75.3-.23.49-2.18-.24-2.67-.99-.66-3.63-1.03-4.81-1.9-1.17-.88-3.62-2.97-4.12-4.26-.49-1.3-1.83-5.23-2.04-6.01C9.73.36 9.55.06 9.55.06s-.47.28-.86.51c-.38.24-.59.64-.59.64s-.47.11-.91.26c-.43.15-2.87 1.52-3.22 1.58-.35.05-1.1 0-1.09 0z" class="fil3"/><path id="1" d="M2.88 3.05c.13.04.41 3.75-.11 4.91-.52 1.16-1.12 2.76-1.12 3.77 0 1.01.41 1.34.41 1.34s4 .37 6.06 1.47c2.06 1.1 4.77 1.99 6.45 2.19 1.67.19 6.29-.52 6.58-.75.3-.23.49-2.18-.24-2.67-.99-.66-3.63-1.03-4.81-1.9-1.17-.88-3.62-2.97-4.12-4.26-.49-1.3-1.83-5.23-2.04-6.01C9.73.36 9.55.06 9.55.06s-.47.28-.86.51c-.38.24-.59.64-.59.64s-.47.11-.91.26c-.43.15-2.87 1.52-3.22 1.58-.35.05-1.1 0-1.09 0z" class="fil1 str0"/><g><path d="M2.86 17.64c-.56.42-2.15.18-2.53.37-.39.19-.32.89-.32.89s5.68.47 8.45.62c2.76.15 8.63.09 9.99-.06 1.35-.14 2.7-.33 2.7-.33l.75-1.08s-.37-.46-.61-.81c-.23-.34-.55-.63-.55-.63l-.96.13s.46.46.34.81c-.11.36-1.15.71-2.2.75-.92.04-2.11-.17-2.43-.51-.43-.45-.3-.91-.3-.91l-1.14.09s-.22.97-.61 1.12c-.39.15-2.67.2-4.29.13-1.63-.06-3.68-.02-4.19-.53-.5-.51-.44-1.08-.44-1.21-.01-.13-1.55-.42-1.55-.42s.44 1.17-.11 1.58z" class="fil3"/><path id="1" d="M2.86 17.64c-.56.42-2.15.18-2.53.37-.39.19-.32.89-.32.89s5.68.47 8.45.62c2.76.15 8.63.09 9.99-.06 1.35-.14 2.7-.33 2.7-.33l.75-1.08s-.37-.46-.61-.81c-.23-.34-.55-.63-.55-.63l-.96.13s.46.46.34.81c-.11.36-1.15.71-2.2.75-.92.04-2.11-.17-2.43-.51-.43-.45-.3-.91-.3-.91l-1.14.09s-.22.97-.61 1.12c-.39.15-2.67.2-4.29.13-1.63-.06-3.68-.02-4.19-.53-.5-.51-.44-1.08-.44-1.21-.01-.13-1.55-.42-1.55-.42s.44 1.17-.11 1.58z" class="fil1 str0"/></g><g><path d="M2.31 16.04s.98.49 2.13.58c1.14.08 2.36-.14 2.36-.14l.06-1.72s1.33.52 2.5 1.04c1.51.68 3.12 1.36 4.4 1.49 1.27.12 6.82-.32 7.17-.47.34-.15.49-.92.22-.84-.73.2-3.35.62-7.38.56-1.74-.02-5.66-2.27-7.3-2.73-1.64-.45-4.51-.86-4.51-.86l.35 3.09z" class="fil0"/><path id="1" d="M2.31 16.04s.98.49 2.13.58c1.14.08 2.36-.14 2.36-.14l.06-1.72s1.33.52 2.5 1.04c1.51.68 3.12 1.36 4.4 1.49 1.27.12 6.82-.32 7.17-.47.34-.15.49-.92.22-.84-.73.2-3.35.62-7.38.56-1.74-.02-5.66-2.27-7.3-2.73-1.64-.45-4.51-.86-4.51-.86l.35 3.09z" class="fil1 str0"/></g><g><path d="M14.04 4.36l-1.71.42c-.14.03-.22.17-.19.31.04.15.18.23.32.19l1.75-.42c-.05-.17-.11-.34-.17-.5zm3.83 8l-.21.65c-.05.13.03.28.16.33.14.04.29-.03.34-.17l.26-.78c-.11-.03-.22-.07-.33-.1.01-.01.02-.02.02-.03l.74-1.02c-.13-.1-.27-.21-.41-.33l-.75 1.04c-.09.11-.06.28.06.36.04.03.08.05.12.05zm-1.38-.71l-.46.91c-.06.13-.01.29.12.36.13.06.29.01.35-.12l.46-.92c-.17-.07-.33-.15-.47-.23zm-1.13-.82l-.75 1.03c-.08.12-.06.28.06.37.12.08.28.06.37-.06l.73-1.01c-.13-.1-.26-.21-.41-.33zm-1.08-.93l-.93 1.04c-.1.11-.09.28.02.37.11.1.27.09.37-.02l.93-1.04c-.13-.12-.26-.23-.39-.35zm-.98-.96l-1.11.99c-.1.1-.11.27-.01.38.1.1.26.11.37.01l1.12-1c-.13-.13-.26-.25-.37-.38zm-.88-1.03l-1.26.87c-.12.09-.15.25-.06.37.08.12.25.14.36.06l1.29-.88c-.12-.14-.23-.28-.33-.42zm-.56-1.09l-1.5.67c-.14.06-.2.21-.14.34.06.14.22.2.35.14l1.49-.66c-.03-.05-.06-.11-.08-.16-.03-.1-.07-.21-.12-.33zm-.45-1.28l-1.75.55c-.14.04-.22.19-.17.33.04.14.19.21.33.17l1.76-.55c-.06-.16-.11-.33-.17-.5zm-1.4-4.17l-1.56.38c-.14.04-.23.18-.19.32.04.14.18.23.32.19l1.59-.39c-.07-.19-.12-.36-.16-.5zm.48 1.48l-1.61.39c-.14.04-.23.18-.19.32.03.14.18.23.32.19l1.64-.4c-.05-.17-.11-.34-.16-.5zm.48 1.42l-1.71.42c-.15.04-.23.18-.19.32.03.14.18.23.32.19l1.75-.43c-.06-.16-.12-.33-.17-.5zm10.02 8.04l-.26.78c-.04.14.03.29.17.33.14.05.28-.03.33-.16l.26-.79c-.17-.05-.33-.1-.5-.16zm-1.43-.58l-.45.92c-.07.13-.01.29.12.35.13.07.28.01.35-.12l.46-.92c-.17-.07-.33-.15-.48-.23zm-2.2-1.75l-.94 1.05c-.09.1-.09.27.02.37.11.09.28.08.37-.02l.94-1.05c-.13-.11-.26-.23-.39-.35zm-.99-.95l-1.1.99c-.11.1-.12.26-.02.37.1.11.27.11.37.01l1.12-1c-.13-.12-.25-.25-.37-.37zM15.5 8l-1.27.87c-.11.08-.14.25-.06.36.09.12.25.15.37.06l1.28-.88c-.12-.14-.22-.28-.32-.41zm-.56-1.09l-1.51.66c-.13.06-.19.22-.13.35.06.13.21.19.35.13l1.48-.65c-.03-.06-.05-.12-.07-.17-.04-.09-.08-.2-.12-.32zm-.46-1.28l-1.75.55c-.13.04-.21.19-.17.32.05.14.19.22.33.18l1.77-.56c-.06-.16-.12-.32-.18-.49zm-1.39-4.17l-1.56.38c-.14.03-.23.18-.19.32.03.14.18.22.32.19l1.58-.39c-.06-.2-.11-.37-.15-.5zm.47 1.47l-1.61.4c-.14.03-.22.18-.19.32.04.14.18.22.32.19l1.65-.4c-.06-.18-.11-.34-.17-.51z" class="fil0"/><path id="1" d="M14.04 4.36l-1.71.42c-.14.03-.22.17-.19.31.04.15.18.23.32.19l1.75-.42c-.05-.17-.11-.34-.17-.5zm3.83 8l-.21.65c-.05.13.03.28.16.33.14.04.29-.03.34-.17l.26-.78c-.11-.03-.22-.07-.33-.1.01-.01.02-.02.02-.03l.74-1.02c-.13-.1-.27-.21-.41-.33l-.75 1.04c-.09.11-.06.28.06.36.04.03.08.05.12.05zm-1.38-.71l-.46.91c-.06.13-.01.29.12.36.13.06.29.01.35-.12l.46-.92c-.17-.07-.33-.15-.47-.23zm-1.13-.82l-.75 1.03c-.08.12-.06.28.06.37.12.08.28.06.37-.06l.73-1.01c-.13-.1-.26-.21-.41-.33zm-1.08-.93l-.93 1.04c-.1.11-.09.28.02.37.11.1.27.09.37-.02l.93-1.04c-.13-.12-.26-.23-.39-.35zm-.98-.96l-1.11.99c-.1.1-.11.27-.01.38.1.1.26.11.37.01l1.12-1c-.13-.13-.26-.25-.37-.38zm-.88-1.03l-1.26.87c-.12.09-.15.25-.06.37.08.12.25.14.36.06l1.29-.88c-.12-.14-.23-.28-.33-.42zm-.56-1.09l-1.5.67c-.14.06-.2.21-.14.34.06.14.22.2.35.14l1.49-.66c-.03-.05-.06-.11-.08-.16-.03-.1-.07-.21-.12-.33zm-.45-1.28l-1.75.55c-.14.04-.22.19-.17.33.04.14.19.21.33.17l1.76-.55c-.06-.16-.11-.33-.17-.5zm-1.4-4.17l-1.56.38c-.14.04-.23.18-.19.32.04.14.18.23.32.19l1.59-.39c-.07-.19-.12-.36-.16-.5zm.48 1.48l-1.61.39c-.14.04-.23.18-.19.32.03.14.18.23.32.19l1.64-.4c-.05-.17-.11-.34-.16-.5zm.48 1.42l-1.71.42c-.15.04-.23.18-.19.32.03.14.18.23.32.19l1.75-.43c-.06-.16-.12-.33-.17-.5zm10.02 8.04l-.26.78c-.04.14.03.29.17.33.14.05.28-.03.33-.16l.26-.79c-.17-.05-.33-.1-.5-.16zm-1.43-.58l-.45.92c-.07.13-.01.29.12.35.13.07.28.01.35-.12l.46-.92c-.17-.07-.33-.15-.48-.23zm-2.2-1.75l-.94 1.05c-.09.1-.09.27.02.37.11.09.28.08.37-.02l.94-1.05c-.13-.11-.26-.23-.39-.35zm-.99-.95l-1.1.99c-.11.1-.12.26-.02.37.1.11.27.11.37.01l1.12-1c-.13-.12-.25-.25-.37-.37zM15.5 8l-1.27.87c-.11.08-.14.25-.06.36.09.12.25.15.37.06l1.28-.88c-.12-.14-.22-.28-.32-.41zm-.56-1.09l-1.51.66c-.13.06-.19.22-.13.35.06.13.21.19.35.13l1.48-.65c-.03-.06-.05-.12-.07-.17-.04-.09-.08-.2-.12-.32zm-.46-1.28l-1.75.55c-.13.04-.21.19-.17.32.05.14.19.22.33.18l1.77-.56c-.06-.16-.12-.32-.18-.49zm-1.39-4.17l-1.56.38c-.14.03-.23.18-.19.32.03.14.18.22.32.19l1.58-.39c-.06-.2-.11-.37-.15-.5zm.47 1.47l-1.61.4c-.14.03-.22.18-.19.32.04.14.18.22.32.19l1.65-.4c-.06-.18-.11-.34-.17-.51z" class="fil1 str0"/></g></g></svg>