<svg xmlns="http://www.w3.org/2000/svg" width="113" height="68" fill-rule="evenodd" clip-rule="evenodd" image-rendering="optimizeQuality" shape-rendering="geometricPrecision" text-rendering="geometricPrecision" viewBox="0 0 14.58 8.83"><path fill="#C4D985" fill-rule="nonzero" d="M12.98 1.29C12.53.98 12 .88 11.5.97c-.5.09-.97.37-1.29.81-.31.45-.42.99-.34 1.49.08.5.36.97.8 1.28.45.32.98.42 1.48.33.5-.09.97-.37 1.29-.82.31-.45.42-.98.34-1.48-.09-.5-.36-.97-.8-1.29zm-1.38.23c.35-.06.73.01 1.05.23.32.23.51.56.57.92.06.36-.02.74-.24 1.07-.23.32-.57.52-.93.59-.35.06-.73-.01-1.05-.24-.32-.22-.51-.56-.57-.91-.06-.36.01-.75.24-1.07.23-.32.57-.53.93-.59z"/><path fill="none" fill-rule="nonzero" stroke="#2B2A29" stroke-miterlimit="22.9256" stroke-width=".12" d="M12.98 1.29C12.53.98 12 .88 11.5.97c-.5.09-.97.37-1.29.81-.31.45-.42.99-.34 1.49.08.5.36.97.8 1.28.45.32.98.42 1.48.33.5-.09.97-.37 1.29-.82.31-.45.42-.98.34-1.48-.09-.5-.36-.97-.8-1.29zm-1.38.23c.35-.06.73.01 1.05.23.32.23.51.56.57.92.06.36-.02.74-.24 1.07-.23.32-.57.52-.93.59-.35.06-.73-.01-1.05-.24-.32-.22-.51-.56-.57-.91-.06-.36.01-.75.24-1.07.23-.32.57-.53.93-.59z"/><path fill="#F08BB2" d="M10.25 4.46c-.84 1.3-1.71 1.74-2.52 2.87-.21.3-.13.71.16.92.08.05.15.11.22.16.3.21.71.14.92-.16.8-1.13.92-2.1 1.87-3.31-.11-.06-.23-.12-.33-.19-.12-.09-.23-.18-.32-.29z"/><path fill="none" fill-rule="nonzero" stroke="#2B2A29" stroke-miterlimit="22.9256" stroke-width=".12" d="M10.25 4.46c-.84 1.3-1.71 1.74-2.52 2.87-.21.3-.13.71.16.92.08.05.15.11.22.16.3.21.71.14.92-.16.8-1.13.92-2.1 1.87-3.31-.11-.06-.23-.12-.33-.19-.12-.09-.23-.18-.32-.29z"/><path fill="#F5B2B6" d="M12.16 2.45c-.26-.18-.62-.12-.81.14-.18.26-.12.62.14.8.26.19.62.13.81-.13.18-.26.12-.62-.14-.81z"/><path fill="none" fill-rule="nonzero" stroke="#2B2A29" stroke-miterlimit="22.9256" stroke-width=".12" d="M12.16 2.45c-.26-.18-.62-.12-.81.14-.18.26-.12.62.14.8.26.19.62.13.81-.13.18-.26.12-.62-.14-.81z"/><path fill="#F08BB2" d="M14.25 4.04c-.19-.14-.45-.09-.58.1-.13.18-.09.44.1.58.19.13.45.09.58-.1.13-.19.09-.45-.1-.58z"/><path fill="none" fill-rule="nonzero" stroke="#2B2A29" stroke-miterlimit="22.9256" stroke-width=".12" d="M14.25 4.04c-.19-.14-.45-.09-.58.1-.13.18-.09.44.1.58.19.13.45.09.58-.1.13-.19.09-.45-.1-.58z"/><path fill="#F08BB2" d="M9.96 1.12c-.19-.13-.45-.09-.58.1-.13.19-.09.45.1.58.19.13.45.09.58-.1.13-.19.09-.45-.1-.58z"/><path fill="none" fill-rule="nonzero" stroke="#2B2A29" stroke-miterlimit="22.9256" stroke-width=".12" d="M9.96 1.12c-.19-.13-.45-.09-.58.1-.13.19-.09.45.1.58.19.13.45.09.58-.1.13-.19.09-.45-.1-.58z"/><path fill="#F08BB2" d="M14.4 1.59c-.19-.13-.45-.09-.58.1-.13.19-.09.45.1.58.19.13.45.09.58-.1.13-.19.09-.45-.1-.58z"/><path fill="none" fill-rule="nonzero" stroke="#2B2A29" stroke-miterlimit="22.9256" stroke-width=".12" d="M14.4 1.59c-.19-.13-.45-.09-.58.1-.13.19-.09.45.1.58.19.13.45.09.58-.1.13-.19.09-.45-.1-.58z"/><path fill="#F08BB2" d="M12.45.09c-.19-.14-.45-.09-.58.1-.13.18-.09.44.1.58.19.13.45.09.58-.1.13-.19.09-.45-.1-.58z"/><path fill="none" fill-rule="nonzero" stroke="#2B2A29" stroke-miterlimit="22.9256" stroke-width=".12" d="M12.45.09c-.19-.14-.45-.09-.58.1-.13.18-.09.44.1.58.19.13.45.09.58-.1.13-.19.09-.45-.1-.58z"/><path fill="#F08BB2" d="M12.23 5.11c-.19-.13-.45-.09-.58.1-.14.19-.09.45.09.58.19.13.45.09.59-.1.13-.19.08-.45-.1-.58z"/><path fill="none" fill-rule="nonzero" stroke="#2B2A29" stroke-miterlimit="22.9256" stroke-width=".12" d="M12.23 5.11c-.19-.13-.45-.09-.58.1-.14.19-.09.45.09.58.19.13.45.09.59-.1.13-.19.08-.45-.1-.58z"/><path fill="#F08BB2" d="M9.63 3.18c-.18-.13-.44-.09-.58.1-.13.19-.09.45.1.58.19.13.45.09.58-.1.14-.19.09-.45-.1-.58z"/><path fill="none" fill-rule="nonzero" stroke="#2B2A29" stroke-miterlimit="22.9256" stroke-width=".12" d="M9.63 3.18c-.18-.13-.44-.09-.58.1-.13.19-.09.45.1.58.19.13.45.09.58-.1.14-.19.09-.45-.1-.58z"/><path fill="#99CFBA" fill-rule="nonzero" d="M4.7 1.65L.46 1.61l-.02.01c-.06.01-.12.02-.16.05-.13.06-.2.15-.24.25-.04.1-.04.2-.03.29.01.06.03.12.05.18.18.48.36.86.71 1.2.31.3.75.55 1.42.8-.03.13-.06.29-.1.44-.2.9-.72 2.15-.59 3.07.18 1.25 2.16 1.36 2.21-.41.02-.65-.36-1.67-.74-3.07.41-.08.8-.23 1.15-.51.42-.33.77-.82 1.04-1.56l.01-.02c.07-.23.03-.39-.07-.5-.09-.11-.23-.16-.38-.17l-.02-.01zm-4.21.39l4.2.04c.05 0 .08.01.09.02.01.01.01.04-.01.11-.24.65-.55 1.09-.91 1.37-.35.28-.75.41-1.18.46l-.16.01H2.5c-.71-.24-1.15-.48-1.44-.77C.77 3 .61 2.67.45 2.23v-.01l-.01-.01c0-.01-.01-.03-.01-.06-.01-.03-.01-.05 0-.08.01-.01.01-.02.03-.02.01-.01.02-.01.03-.01zm2.01 3.3c.02-.11.05-.21.07-.33.16.58.89 2.93.02 2.98-.84-.1-.23-2.02-.09-2.65z"/><path fill="none" fill-rule="nonzero" stroke="#2B2A29" stroke-miterlimit="22.9256" stroke-width=".12" d="M4.7 1.65L.46 1.61l-.02.01c-.06.01-.12.02-.16.05-.13.06-.2.15-.24.25-.04.1-.04.2-.03.29.01.06.03.12.05.18.18.48.36.86.71 1.2.31.3.75.55 1.42.8-.03.13-.06.29-.1.44-.2.9-.72 2.15-.59 3.07.18 1.25 2.16 1.36 2.21-.41.02-.65-.36-1.67-.74-3.07.41-.08.8-.23 1.15-.51.42-.33.77-.82 1.04-1.56l.01-.02c.07-.23.03-.39-.07-.5-.09-.11-.23-.16-.38-.17l-.02-.01zm-4.21.39l4.2.04c.05 0 .08.01.09.02.01.01.01.04-.01.11-.24.65-.55 1.09-.91 1.37-.35.28-.75.41-1.18.46l-.16.01H2.5c-.71-.24-1.15-.48-1.44-.77C.77 3 .61 2.67.45 2.23v-.01l-.01-.01c0-.01-.01-.03-.01-.06-.01-.03-.01-.05 0-.08.01-.01.01-.02.03-.02.01-.01.02-.01.03-.01zm2.01 3.3c.02-.11.05-.21.07-.33.16.58.89 2.93.02 2.98-.84-.1-.23-2.02-.09-2.65z"/><path fill="#6FA691" d="M2.62 0C1.63-.01.81.79.81 1.78c-.01.99.78 1.81 1.78 1.82.99 0 1.8-.79 1.81-1.78C4.41.82 3.61.01 2.62 0z"/><path fill="none" fill-rule="nonzero" stroke="#2B2A29" stroke-miterlimit="22.9256" stroke-width=".12" d="M2.62 0C1.63-.01.81.79.81 1.78c-.01.99.78 1.81 1.78 1.82.99 0 1.8-.79 1.81-1.78C4.41.82 3.61.01 2.62 0z"/><path fill="#D8ECE4" d="M3.26.66c-.2 0-.36.16-.37.36 0 .2.16.36.36.37.2 0 .37-.16.37-.36 0-.21-.16-.37-.36-.37zm-.91 2.38c-.2 0-.36.16-.36.36 0 .03 0 .06.01.09.18.07.38.1.59.11.02 0 .05 0 .07-.01.03-.05.05-.11.05-.18.01-.2-.15-.37-.36-.37zM1.1 2.17c-.09 0-.17.03-.24.08.06.24.17.45.31.64.17-.04.29-.18.29-.36 0-.2-.16-.36-.36-.36zM1.97.34c-.2 0-.37.16-.37.36 0 .2.16.36.36.36.2.01.37-.15.37-.36 0-.2-.16-.36-.36-.36zm.15 1.35c-.2 0-.36.16-.37.36 0 .2.16.36.36.37.2 0 .37-.16.37-.36 0-.21-.16-.37-.36-.37zm1.18.44c-.21 0-.37.16-.37.36 0 .2.16.37.36.37.2 0 .36-.16.37-.36 0-.2-.16-.37-.36-.37z"/><path fill="none" fill-rule="nonzero" stroke="#2B2A29" stroke-miterlimit="22.9256" stroke-width=".12" d="M3.26.66c-.2 0-.36.16-.37.36 0 .2.16.36.36.37.2 0 .37-.16.37-.36 0-.21-.16-.37-.36-.37zm-.91 2.38c-.2 0-.36.16-.36.36 0 .03 0 .06.01.09.18.07.38.1.59.11.02 0 .05 0 .07-.01.03-.05.05-.11.05-.18.01-.2-.15-.37-.36-.37zM1.1 2.17c-.09 0-.17.03-.24.08.06.24.17.45.31.64.17-.04.29-.18.29-.36 0-.2-.16-.36-.36-.36zM1.97.34c-.2 0-.37.16-.37.36 0 .2.16.36.36.36.2.01.37-.15.37-.36 0-.2-.16-.36-.36-.36zm.15 1.35c-.2 0-.36.16-.37.36 0 .2.16.36.36.37.2 0 .37-.16.37-.36 0-.21-.16-.37-.36-.37zm1.18.44c-.21 0-.37.16-.37.36 0 .2.16.37.36.37.2 0 .36-.16.37-.36 0-.2-.16-.37-.36-.37z"/></svg>