<svg xmlns="http://www.w3.org/2000/svg" width="55" height="73" fill-rule="evenodd" clip-rule="evenodd" image-rendering="optimizeQuality" shape-rendering="geometricPrecision" text-rendering="geometricPrecision" viewBox="0 0 16.87 22.75"><path fill="#C5E3D7" d="M3.76 18.79c-.17-1-1.76-4.57.12-4.69 2.24.1 11.74 1.76 12.48 3.6.42 2.38-2.7 5.04-4.76 5.03-3.26.12-6.99-.75-7.84-3.94z"/><path fill="none" fill-rule="nonzero" stroke="#2B2A29" stroke-miterlimit="22.9256" stroke-width=".28" d="M3.76 18.79c-.17-1-1.76-4.57.12-4.69 2.24.1 11.74 1.76 12.48 3.6.42 2.38-2.7 5.04-4.76 5.03-3.26.12-6.99-.75-7.84-3.94z"/><path fill="#C5E3D7" d="M4.93.01C7.18.01 9 2.75 9 6.14c0 1.41-.58 3.57-1.54 4.8-.87.6-2.1 1.19-3.04 1.66-.64.33-1.08.65-1.44.67-1.7 0-2.97-3.29-2.97-6.68C.01 3.21 2.67.01 4.93.01z"/><path fill="none" fill-rule="nonzero" stroke="#2B2A29" stroke-miterlimit="22.9256" stroke-width=".28" d="M4.93.01C7.18.01 9 2.75 9 6.14c0 1.41-.58 3.57-1.54 4.8-.87.6-2.1 1.19-3.04 1.66-.64.33-1.08.65-1.44.67-1.7 0-2.97-3.29-2.97-6.68C.01 3.21 2.67.01 4.93.01z"/><path fill="#C5E3D7" d="M3.39 14.02c1.61-.82 3.22-1.63 4.84-2.45.63-.3 1.44-.27 2.33-.06 3.6.82 6.01 2.13 6.28 4.31.3 2.03-2.18 4.1-5.18 4.27-5.53.26-9.94-3.66-8.27-6.07z"/><path fill="none" fill-rule="nonzero" stroke="#2B2A29" stroke-miterlimit="22.9256" stroke-width=".28" d="M3.39 14.02c1.61-.82 3.22-1.63 4.84-2.45.63-.3 1.44-.27 2.33-.06 3.6.82 6.01 2.13 6.28 4.31.3 2.03-2.18 4.1-5.18 4.27-5.53.26-9.94-3.66-8.27-6.07z"/><path fill="#BCDBCF" d="M5.83 15.39c.15-1.01 1.75-1.99 3.63-2.11 2.23.09 3.96.78 4.7 2.62.29.78-1.32 2.15-3.37 2.14-2.48-.47-4.8-1.02-4.96-2.65z"/><path fill="none" fill-rule="nonzero" stroke="#2B2A29" stroke-miterlimit="22.9256" stroke-width=".28" d="M5.83 15.39c.15-1.01 1.75-1.99 3.63-2.11 2.23.09 3.96.78 4.7 2.62.29.78-1.32 2.15-3.37 2.14-2.48-.47-4.8-1.02-4.96-2.65z"/><path fill="#99CFBA" d="M12.7 17.64c-.55.24-1.2.41-1.91.4-1.67-.31-3.26-.67-4.18-1.36.6-.28 1.32-.48 2.09-.52 1.69.07 3.09.48 4 1.48z"/><path fill="none" fill-rule="nonzero" stroke="#2B2A29" stroke-miterlimit="22.9256" stroke-width=".28" d="M12.7 17.64c-.55.24-1.2.41-1.91.4-1.67-.31-3.26-.67-4.18-1.36.6-.28 1.32-.48 2.09-.52 1.69.07 3.09.48 4 1.48z"/><path fill="#C5E3D7" d="M3.27 12.28l.95-.42c-.03.78.14 1.39.68 1.7l-.58.32-1.12-1.34.07-.26z"/><path fill="none" fill-rule="nonzero" stroke="#2B2A29" stroke-miterlimit="22.9256" stroke-width=".28" d="M3.27 12.28l.95-.42c-.03.78.14 1.39.68 1.7l-.58.32-1.12-1.34.07-.26z"/><path fill="#C5E3D7" d="M6.25 10.97l.88-.39c-.03.72.12 1.29.62 1.58l-.53.29-1.04-1.24.07-.24z"/><path fill="none" fill-rule="nonzero" stroke="#2B2A29" stroke-miterlimit="22.9256" stroke-width=".28" d="M6.25 10.97l.88-.39c-.03.72.12 1.29.62 1.58l-.53.29-1.04-1.24.07-.24z"/></svg>