<svg xmlns="http://www.w3.org/2000/svg" width="108" height="66" fill-rule="evenodd" clip-rule="evenodd" image-rendering="optimizeQuality" shape-rendering="geometricPrecision" text-rendering="geometricPrecision" viewBox="0 0 13.14 8.02"><path fill="#99CFBA" d="M.01 2.83h3.54v4.48c0 .03.01.05.01.08 0 .02-.01.04-.01.07-.1.31-.86.56-1.77.56S.12 7.77.01 7.46c0-.03-.01-.05-.01-.07 0-.03.01-.05.01-.08V2.83z"/><path fill="none" fill-rule="nonzero" stroke="#2B2A29" stroke-miterlimit="22.9256" stroke-width=".11" d="M.01 2.83h3.54v4.48c0 .03.01.05.01.08 0 .02-.01.04-.01.07h0c-.1.31-.86.56-1.77.56S.12 7.77.01 7.46h0c0-.03-.01-.05-.01-.07 0-.03.01-.05.01-.08V2.83z"/><path fill="#D8ECE4" d="M3.55 4.26v3.05c0 .03.01.05.01.08 0 .02-.01.04-.01.07-.1.31-.86.56-1.77.56S.12 7.77.01 7.46c0-.03-.01-.05-.01-.07 0-.03.01-.05.01-.08V4.26h3.54z"/><path fill="none" fill-rule="nonzero" stroke="#2B2A29" stroke-miterlimit="22.9256" stroke-width=".11" d="M3.55 4.26v3.05c0 .03.01.05.01.08 0 .02-.01.04-.01.07h0c-.1.31-.86.56-1.77.56S.12 7.77.01 7.46h0c0-.03-.01-.05-.01-.07 0-.03.01-.05.01-.08V4.26h3.54z"/><path fill="#99CFBA" d="M1.78 2.38c.98 0 1.78.21 1.78.47 0 .27-.8.48-1.78.48S0 3.12 0 2.85c0-.26.8-.47 1.78-.47z"/><path fill="none" fill-rule="nonzero" stroke="#2B2A29" stroke-miterlimit="22.9256" stroke-width=".11" d="M1.78 2.38c.98 0 1.78.21 1.78.47 0 .27-.8.48-1.78.48S0 3.12 0 2.85c0-.26.8-.47 1.78-.47z"/><path fill="#F08BB2" d="M.68 1.72h2.2c.15 0 .26.12.26.26v.59c0 .14-.11.26-.26.26H.68c-.14 0-.26-.12-.26-.26v-.59c0-.14.12-.26.26-.26z"/><path fill="none" fill-rule="nonzero" stroke="#2B2A29" stroke-miterlimit="22.9256" stroke-width=".11" d="M.68 1.72h2.2c.15 0 .26.12.26.26v.59c0 .14-.11.26-.26.26H.68c-.14 0-.26-.12-.26-.26v-.59c0-.14.12-.26.26-.26z"/><path fill="#D8ECE4" d="M1.78 3.91c.98 0 1.78.18 1.78.39 0 .21-.8.38-1.78.38S0 4.51 0 4.3s.8-.39 1.78-.39z"/><path fill="none" fill-rule="nonzero" stroke="#2B2A29" stroke-miterlimit="22.9256" stroke-width=".11" d="M1.78 3.91c.98 0 1.78.18 1.78.39 0 .21-.8.38-1.78.38S0 4.51 0 4.3s.8-.39 1.78-.39z"/><path fill="#F5B2B6" d="M1.78 0c.26 0 .48.19.48.43 0 .34-.21.34-.18.61.1.34.72.21.81.82H.67c.09-.62.7-.51.81-.82C1.53.81 1.3.77 1.3.43c0-.24.22-.43.48-.43z"/><path fill="none" fill-rule="nonzero" stroke="#2B2A29" stroke-miterlimit="22.9256" stroke-width=".11" d="M1.78 0c.26 0 .48.19.48.43 0 .34-.21.34-.18.61.1.34.72.21.81.82H.67c.09-.62.7-.51.81-.82C1.53.81 1.3.77 1.3.43c0-.24.22-.43.48-.43z"/><path fill="#C5E3D7" d="M9.27 6.07c.06.44-.05.89-.36 1.25-.57.68-1.61.75-2.3.16-.7-.59-.79-1.62-.22-2.29.31-.36.74-.55 1.18-.57l.98-1.15 1.7 1.44-.98 1.16z"/><path fill="#2B2A29" fill-rule="nonzero" d="M8.93 7.34l-.03-.03.02-.03.03-.04.03-.03.02-.04.02-.03.03-.04.02-.04.02-.03.02-.04.01-.04.02-.04.02-.03.01-.04.02-.04.01-.04.01-.04.01-.04.01-.04.01-.04.01-.04v-.04l.01-.04V6.4l.01-.04v-.13l-.01-.04v-.08l-.01-.04.04-.01.01.05v.04l.01.04v.21l-.01.04v.04l-.01.04v.05l-.01.04-.01.04-.01.04-.01.04-.01.04-.01.04-.02.04-.01.04-.02.04-.02.04-.02.04-.02.04-.02.03-.02.04-.02.04-.02.03-.03.04-.03.04-.02.03-.03.04zM6.6 7.5l.02-.03.07.05.07.05.06.04.07.05.08.03.07.04.07.03.08.02.07.03.08.01.08.02.07.01.08.01h.23l.08-.01.08-.01.07-.01.08-.02.07-.02.08-.03.07-.03.07-.03.07-.04.06-.04.07-.04.06-.05.07-.05.05-.05.06-.06.06-.06.03.03-.06.06-.06.06-.06.05-.06.05-.07.05-.06.05-.07.04-.07.04-.08.03-.07.03-.07.03-.08.02-.08.02-.08.01-.07.01-.08.01h-.24l-.08-.01-.08-.01-.08-.02-.08-.01-.07-.03-.08-.02-.08-.03-.07-.04-.08-.04-.07-.04-.07-.05-.07-.05-.06-.05zm-.22-2.33l.03.03-.05.06-.05.07-.04.07-.04.06-.04.07-.03.08-.03.07-.02.07-.03.08-.01.07-.02.08v.08l-.01.07v.24l.01.07.02.08.01.08.02.07.03.07.02.08.03.07.04.07.04.07.04.07.04.07.05.06.05.06.06.06.06.06.06.06-.02.03-.07-.06-.06-.06-.06-.06-.05-.06-.05-.07-.05-.07-.04-.07-.04-.07-.03-.07-.03-.08-.03-.07-.03-.08-.02-.08-.01-.07-.02-.08L6 6.37v-.32l.01-.08.02-.07.01-.08.03-.08.02-.07.03-.08.03-.07.04-.08.04-.07.05-.07.04-.06.06-.07zm1.18-.56l.03.03-.02.01h-.12l-.04.01h-.04l-.04.01-.04.01-.04.01-.04.01-.04.01-.04.01-.04.01-.04.02-.03.01-.04.02-.04.01-.04.02-.03.02-.04.02-.04.02-.03.02-.04.03-.03.02-.03.02-.04.03-.03.03-.03.02-.03.03-.03.03-.03.03-.03.04-.03.03-.03-.03.03-.03.03-.03.03-.04.03-.03.03-.03.03-.02.04-.03.03-.03.04-.02.03-.03.04-.02.03-.02.04-.03.04-.02.03-.02.04-.01.04-.02.04-.02.04-.01.04-.02.04-.01.04-.01.04-.01.04-.01.04-.01.04-.01.04-.01h.05l.04-.01h.08l.04-.01-.01.01zm.03.03l-.01.01h-.01l.02-.01zm.98-1.16l-.98 1.16-.03-.03.98-1.15.03-.01v.03zm-.03-.02l.01-.02.02.01-.03.01zm1.7 1.47l-1.7-1.44.03-.04 1.7 1.45v.03h-.03zm.03-.03l.01.01-.01.02V4.9zM9.26 6.05l.98-1.15.03.03-.98 1.15-.04-.01.01-.02zm-.01.02v-.01l.01-.01-.01.02z"/><path fill="#2B2A29" d="M7.58 5.5c0 .02-.01.04-.03.06-.07.08-.18.09-.26.02-.07-.06-.08-.18-.02-.26.02-.02.03-.03.05-.04-.02.07 0 .15.06.2.06.05.14.06.2.02z"/><path fill="#2B2A29" fill-rule="nonzero" d="M7.57 5.57l-.04-.02.01-.01v-.01h.01v-.01l.01-.01v-.02l.04.02v.02h-.01v.02h-.01v.01h-.01v.01zm-.29.03l.03-.04v.01h.01l.01.01.01.01h.01l.01.01h.09l.01-.01h.02l.01-.01h.01v-.01h.01l.01-.01.01-.01.04.02-.01.01-.01.01h-.01v.01l-.01.01h-.01l-.01.01H7.5l-.01.01h-.01l-.01.01H7.35l-.01-.01h-.01l-.01-.01h-.01l-.01-.01-.01-.01h-.01zm-.02-.29l.03.03h-.01v.01l-.01.01-.01.01v.02l-.01.01v.08l.01.01v.02h.01v.02h.01v.01l.01.01.01.01h.01l-.03.04-.01-.01-.01-.01v-.01h-.01l-.01-.01v-.01l-.01-.01v-.01l-.01-.01v-.01l-.01-.01V5.39l.01-.01v-.02l.01-.01v-.01l.01-.01.01-.01.01-.01zm.08-.02l-.04-.02.03.03h-.01v.01h-.01v.01H7.3v.01h-.01v.01l-.03-.03V5.3h.01v-.01h.01v-.01h.01v-.01h.02v-.01l.03.03zm-.03-.03l.05-.02-.02.05-.03-.03zm.08.2l-.03.04v-.01l-.01-.01-.01-.01-.01-.01v-.01h-.01v-.02h-.01v-.02H7.3v-.03l-.01-.01V5.31l.01-.01v-.03l.04.02v.03h-.01v.04h.01v.04h.01v.02l.01.01.01.01v.01h.01v.01h.01zm.21.05l-.04-.02.03.03-.01.01h-.02l-.01.01H7.44l-.01-.01h-.02l-.01-.01-.01-.01h-.01l-.01-.01h-.01l.03-.04.01.01.01.01h.01v.01h.03v.01h.09l.01-.01h.02v-.01l.03.03zm-.03-.03l.05-.02-.02.05-.03-.03z"/><path fill="#2B2A29" d="M8.11 5.95c0 .02-.01.04-.03.06-.06.08-.18.09-.26.02-.07-.07-.08-.18-.02-.26.02-.02.03-.03.05-.04-.02.07 0 .15.06.2.06.05.14.06.2.02z"/><path fill="#2B2A29" fill-rule="nonzero" d="M8.1 6.02L8.06 6l.01-.01v-.01h.01v-.01l.01-.01v-.02l.04.02v.02h-.01V6h-.01v.01H8.1v.01zm-.29.03l.03-.04v.01h.01l.01.01.01.01h.01l.01.01h.09l.01-.01h.02l.01-.01h.01v-.01h.01l.01-.01.01-.01.04.02-.01.01-.01.01h-.01v.01l-.01.01h-.01l-.01.01h-.01l-.01.01h-.01L8 6.09H7.89l-.01-.01h-.02l-.01-.01h-.01l-.01-.01-.01-.01h-.01zm-.02-.29l.03.03h-.01v.01l-.01.01-.01.01v.02l-.01.01v.08l.01.01v.02h.01v.02h.01v.01l.01.01.01.01h.01l-.03.04-.01-.01-.01-.01v-.01h-.01l-.01-.01V6l-.01-.01v-.01l-.01-.01v-.02h-.01V5.84l.01-.01v-.02l.01-.01v-.01l.01-.01.01-.01.01-.01zm.08-.02l-.04-.02.03.03h-.01v.01h-.01v.01h-.01v.01h-.01v.01l-.03-.03v-.01h.01v-.01h.01v-.01h.01v-.01h.02v-.01l.03.03zm-.03-.03l.05-.02-.02.05-.03-.03zm.08.2l-.03.04v-.01l-.01-.01-.01-.01-.01-.01V5.9h-.01v-.02h-.01v-.02h-.01v-.03l-.01-.01V5.76l.01-.01v-.03l.04.02v.03h-.01v.04h.01v.04h.01v.02h.01v.01l.01.01v.01h.01v.01h.01zm.21.05l-.04-.02.03.03-.01.01h-.02l-.01.01H7.97l-.01-.01h-.02l-.01-.01-.01-.01h-.01l-.01-.01h-.01l.03-.04.01.01.01.01h.01l.01.01h.02v.01h.09l.01-.01h.02v-.01l.03.03zm-.03-.03l.05-.02-.02.05-.03-.03z"/><path fill="#2B2A29" d="M8.64 6.4l-.03.06c-.07.07-.18.08-.26.02-.08-.07-.09-.18-.02-.26.01-.02.03-.03.05-.04-.02.07-.01.15.05.2.06.05.15.05.21.02z"/><path fill="#2B2A29" fill-rule="nonzero" d="M8.62 6.47l-.03-.03h.01v-.02h.01V6.4h.01v-.01l.04.01v.01l-.01.01v.01l-.01.01v.01h-.01v.01l-.01.01zm-.29.02l.03-.03.01.01.01.01h.02v.01h.03v.01h.07l.01-.01h.02l.01-.01h.01v-.01h.01l.01-.01.01-.01.01-.01.03.03v.01h-.01l-.01.01-.01.01h-.01v.01h-.01l-.01.01h-.01l-.01.01h-.02l-.01.01h-.08l-.01-.01H8.4l-.01-.01h-.02l-.01-.01-.01-.01h-.01l-.01-.01zm-.02-.28l.03.02v.01l-.01.01-.01.01v.01l-.01.01v.04l-.01.01v.02l.01.01v.03l.01.01v.01l.01.01v.01l.01.01.01.01.01.01-.03.03-.01-.01-.01-.01v-.01l-.01-.01h-.01v-.01l-.01-.01v-.02l-.01-.01v-.03l-.01-.01v-.05l.01-.01v-.02l.01-.01v-.02l.01-.01v-.01l.01-.01.01-.01zm.09-.03l-.04-.01.03.02v.01h-.02v.01h-.01v.01h-.01v.01h-.01l-.03-.02V6.2h.01v-.01h.01v-.01h.01v-.01h.02v-.01h.01l.03.02zm-.03-.02l.05-.03-.02.05-.03-.02zm.08.2l-.03.03h-.01v-.01l-.01-.01-.01-.01-.01-.01v-.01l-.01-.01v-.01l-.01-.01v-.02l-.01-.01v-.09l.01-.01v-.01l.04.01v.01l-.01.01v.08h.01v.02l.01.01v.01l.01.01v.01h.01v.01h.01v.01h.01zm.21.04l-.04-.01.03.02-.01.01h-.01l-.01.01H8.6l-.01.01h-.08l-.01-.01h-.02l-.01-.01h-.01l-.01-.01h-.01l-.01-.01-.01-.01.03-.03.01.01h.01v.01h.01l.01.01h.02l.01.01H8.58l.01-.01h.02l.01-.01h.01l.03.02zm-.03-.02l.05-.03-.02.05-.03-.02z"/><path fill="#2B2A29" d="M6.99 5.66l-.03.06c-.07.08-.19.09-.26.02-.08-.07-.09-.18-.02-.26.01-.02.03-.03.05-.04-.03.07-.01.15.05.2.06.05.14.06.21.02z"/><path fill="#2B2A29" fill-rule="nonzero" d="M6.97 5.73l-.03-.02V5.7h.01v-.02h.01v-.01l.01-.01v-.01l.04.02v.01H7v.02h-.01v.01h-.01v.02h-.01zm-.29.03l.03-.04.01.01.01.01h.01l.01.01h.01l.01.01h.09l.01-.01h.01l.01-.01h.01l.01-.01h.01v-.01h.01v-.01h.01l.03.02-.01.01v.01h-.01l-.01.01-.01.01-.01.01h-.01l-.01.01h-.02l-.01.01H6.76v-.01h-.02l-.01-.01h-.01l-.01-.01H6.7l-.01-.01h-.01zm-.02-.29l.03.02v.01l-.01.01v.01h-.01v.02h-.01v.03l-.01.01v.03l.01.01v.04l.01.01v.01l.01.01.01.01v.01h.01v.01h.01l-.03.04v-.01l-.01-.01-.01-.01-.01-.01-.01-.01V5.7l-.01-.01v-.02l-.01-.01v-.02l-.01-.01v-.05l.01-.01v-.04l.01-.01v-.01l.01-.01v-.01l.01-.01.01-.01zm.09-.02l-.04-.02.03.03h-.01v.01h-.02v.01H6.7v.01h-.01l-.03-.02v-.01h.01v-.01h.01v-.01h.02v-.01h.01v-.01h.01l.03.03zm-.03-.03l.05-.02-.02.05-.03-.03zm.08.2l-.03.03h-.01v-.01h-.01v-.01h-.01v-.01l-.01-.01-.01-.01v-.01l-.01-.01v-.02l-.01-.01V5.45l.01-.01v-.01l.04.02-.01.01v.08l.01.01v.02h.01v.02h.01v.01l.01.01h.01v.01h.01zm.21.05l-.04-.02.03.03h-.01v.01h-.03v.01H6.85l-.01-.01h-.02v-.01H6.8v-.01h-.01l-.01-.01-.01-.01.03-.03v.01h.01l.01.01h.01v.01h.02l.01.01h.09v-.01h.02v-.01h.01l.03.03zm-.03-.03l.05-.02-.02.05-.03-.03z"/><path fill="#2B2A29" d="M7.52 6.11l-.03.06c-.07.08-.19.08-.26.02-.08-.07-.09-.18-.02-.26.01-.02.03-.03.05-.04-.03.07-.01.15.05.2.06.05.14.06.21.02z"/><path fill="#2B2A29" fill-rule="nonzero" d="M7.5 6.18l-.03-.03h.01v-.02h.01v-.01h.01V6.1l.04.02v.01h-.01v.02h-.01v.01h-.01v.02H7.5zm-.29.03l.03-.04.01.01.01.01h.01l.01.01h.02l.01.01h.08l.01-.01h.01l.01-.01h.01l.01-.01h.01v-.01h.01v-.01l.01-.01.03.03-.01.01v.01h-.01l-.01.01-.01.01-.01.01h-.01l-.01.01h-.02l-.01.01H7.29v-.01h-.02l-.01-.01h-.01l-.01-.01h-.01l-.01-.01h-.01zm-.02-.29l.03.02v.01l-.01.01-.01.01v.02h-.01v.03l-.01.01v.03l.01.01v.04l.01.01.01.01v.01l.01.01v.01h.01l.01.01-.03.04V6.2l-.01-.01-.01-.01-.01-.01-.01-.01v-.01l-.01-.01v-.02l-.01-.01v-.02l-.01-.01v-.05l.01-.01v-.03l.01-.01v-.02l.01-.01v-.01l.01-.01.01-.01zm.09-.02l-.04-.02.03.03h-.01l-.01.01h-.01v.01h-.01v.01h-.01l-.03-.02v-.01h.01V5.9h.01v-.01h.02v-.01h.01v-.01h.01l.03.03zm-.03-.03l.05-.02-.02.05-.03-.03zm.08.2l-.03.03h-.01v-.01h-.01v-.01h-.01v-.01l-.01-.01-.01-.01v-.01l-.01-.01v-.02L7.23 6V5.9l.01-.01v-.01l.04.02-.01.01v.08l.01.01v.01l.01.01v.02h.01v.01l.01.01h.01v.01h.01zm.21.05L7.5 6.1l.03.03h-.01l-.01.01h-.02v.01H7.38v-.01h-.03v-.01h-.02v-.01h-.01l-.01-.01-.01-.01.03-.03v.01h.01l.01.01h.01v.01h.02l.01.01h.09V6.1h.02v-.01h.01l.03.03zm-.03-.03l.05-.02-.02.05-.03-.03z"/><path fill="#2B2A29" d="M8.05 6.56c-.01.02-.02.04-.04.05-.06.08-.18.09-.26.03-.07-.07-.08-.19-.02-.26.02-.02.04-.03.05-.04-.02.06 0 .14.06.19.06.06.14.06.21.03z"/><path fill="#2B2A29" fill-rule="nonzero" d="M8.03 6.63L8 6.6v-.01h.01v-.02h.01v-.02h.01l.03.01v.02l-.01.01v.01h-.01v.02h-.01v.01zm-.29.02l.03-.03.01.01h.01v.01h.01l.01.01h.03l.01.01h.05l.01-.01h.02l.01-.01h.01l.01-.01h.01v-.01h.01v-.01h.01L8 6.6l.03.03-.01.01h-.01v.01L8 6.66h-.01l-.01.01h-.01l-.01.01-.01.01h-.03l-.01.01h-.08l-.01-.01H7.8l-.01-.01h-.01l-.01-.01-.01-.01h-.01l-.01-.01zm-.02-.29l.03.03-.01.01-.01.01v.02h-.01v.02h-.01v.08l.01.01v.02l.01.01v.01l.01.01v.01h.01v.01h.01l.01.01-.03.03-.01-.01-.01-.01-.01-.01v-.01H7.7l-.01-.01v-.02l-.01-.01v-.02l-.01-.01v-.09l.01-.01v-.02l.01-.01V6.4l.01-.01v-.01l.01-.01.01-.01zm.08-.02l-.03-.01.02.02v.01h-.01l-.01.01h-.01v.01h-.01v.01l-.03-.03h.01v-.01l.01-.01h.01v-.01h.01v-.01h.02l.02.02zm-.02-.02l.04-.03-.02.05-.02-.02zm.07.2l-.02.03h-.01l-.01-.01v-.01H7.8v-.01h-.01v-.01l-.01-.01v-.01l-.01-.01v-.02l-.01-.01v-.03l-.01-.01v-.03l.01-.01v-.03l.01-.01.03.01V6.45h.01v.02l.01.01v.01h.01v.01l.01.01h.01v.01zm.21.04l-.03-.01.03.02-.01.01h-.02v.01H8l-.01.01h-.07v-.01h-.03l-.01-.01h-.01l-.01-.01h-.02v-.01h-.01v-.01l.02-.03h.01v.01h.01l.01.01h.01l.01.01h.02l.01.01h.05l.01-.01h.03v-.01h.02l.02.02zm-.02-.02l.04-.03-.02.05-.02-.02z"/><path fill="#2B2A29" d="M8.57 7l-.03.06c-.07.08-.18.09-.26.02-.08-.06-.09-.18-.02-.26.01-.01.03-.03.05-.04-.02.07 0 .15.06.2.05.05.14.06.2.02z"/><path fill="#2B2A29" fill-rule="nonzero" d="M8.55 7.07l-.03-.02v-.01h.01v-.01h.01v-.02h.01V7l.04.01v.01h-.01v.02h-.01v.02h-.01v.01h-.01zm-.28.03l.02-.03h.01l.01.01h.01l.01.01h.01l.01.01H8.45l.01-.01h.01l.01-.01h.01v-.01h.01v-.01h.01l.01-.01.03.02v.01l-.01.01-.01.01h-.01v.01h-.01l-.01.01h-.01l-.01.01h-.01l-.01.01h-.04l-.01.01h-.02l-.01-.01h-.04l-.01-.01h-.02l-.01-.01h-.01l-.01-.01-.01-.01zm-.03-.29l.03.03-.01.01v.01l-.01.01v.02h-.01V6.99l.01.01v.02h.01v.01l.01.01.01.01.01.01v.01l-.02.03-.01-.01-.01-.01h-.01v-.01l-.01-.01v-.01l-.01-.01v-.01l-.01-.01-.01-.01v-.05l-.01-.01v-.02l.01-.01v-.04l.01-.01v-.02l.01-.01.01-.01.01-.01v-.01zm.09-.02l-.04-.02.03.03h-.01v.01H8.3v.01h-.01l-.01.01v.01h-.01l-.03-.03h.01V6.8h.01v-.01h.01v-.01h.01v-.01h.02v-.01l.03.03zm-.03-.03l.05-.02-.02.05-.03-.03zm.08.21L8.35 7v-.01h-.01l-.01-.01v-.01h-.01v-.01h-.01v-.02H8.3v-.02h-.01v-.03h-.01V6.8l.01-.01v-.02l.04.02v.01l-.01.01V6.87l.01.01v.03h.01v.01l.01.01v.01h.01v.01l.01.01.01.01zm.21.04L8.55 7l.03.02h-.01v.01h-.02v.01H8.43l-.01-.01H8.4l-.01-.01h-.01l-.01-.01h-.01V7h-.01l.03-.03h.01v.01h.01l.01.01h.02V7H8.53l.01-.01h.02v-.01l.03.03zm-.03-.03l.05-.02-.02.05-.03-.03z"/><path fill="#2B2A29" d="M6.93 6.27c0 .02-.02.04-.03.05-.07.08-.18.09-.26.03-.08-.07-.08-.19-.02-.26l.05-.05c-.02.07 0 .15.06.2.06.05.14.06.2.03z"/><path fill="#2B2A29" fill-rule="nonzero" d="M6.92 6.34l-.04-.03h.01V6.3h.01v-.02h.01v-.02l.04.01v.02h-.01v.02h-.01v.01l-.01.01v.01zm-.29.02l.03-.03.01.01h.01v.01h.01l.01.01h.03v.01H6.79l.01-.01h.02l.01-.01h.01l.01-.01.01-.01h.01v-.01h.01v-.01l.04.03-.01.01H6.9l-.01.01v.01h-.01l-.01.01h-.01l-.01.01h-.01l-.01.01h-.02l-.01.01h-.07l-.01-.01h-.03l-.01-.01h-.01l-.01-.01h-.01l-.01-.01-.01-.01zm-.03-.29l.04.03-.01.01-.01.01v.01h-.01v.03H6.6v.09l.01.01v.01l.01.01v.01l.01.01v.01h.01v.01h.01l.01.01-.03.03-.01-.01h-.01v-.01l-.01-.01-.01-.01v-.01h-.01V6.3l-.01-.01v-.02l-.01-.01V6.15l.01-.01v-.01l.01-.01v-.01l.01-.01v-.01l.01-.01v-.01zm.09-.02l-.04-.01.03.02v.01h-.01l-.01.01h-.01v.01h-.01v.01l-.04-.03h.01v-.01h.01v-.01h.01l.01-.01h.01v-.01h.01l.03.02zm-.03-.02L6.71 6l-.02.05-.03-.02zm.08.2l-.03.03-.01-.01v-.01h-.01v-.01h-.01v-.01l-.01-.01V6.2l-.01-.01v-.01l-.01-.01v-.03l-.01-.01V6.07h.01v-.03l.04.01v.03h-.01v.05h.01v.03l.01.01v.02h.01v.01l.01.01.01.01h.01v.01zm.21.04l-.04-.01.03.02v.01h-.02v.01h-.03l-.01.01h-.07L6.8 6.3h-.03v-.01h-.02v-.01h-.01l-.01-.01h-.01l-.01-.01.03-.03h.01v.01h.01l.01.01h.01v.01h.03l.01.01h.05l.01-.01h.03v-.01h.01l.03.02zm-.03-.02l.05-.03-.02.05-.03-.02z"/><path fill="#2B2A29" d="M7.46 6.72c0 .02-.02.04-.03.05-.07.08-.18.09-.26.02-.08-.06-.08-.18-.02-.25l.05-.05c-.02.07 0 .15.06.2.06.05.14.06.2.03z"/><path fill="#2B2A29" fill-rule="nonzero" d="M7.45 6.79l-.04-.03h.01v-.01h.01v-.02h.01v-.02l.04.01v.02h-.01v.02h-.01v.01l-.01.01v.01zm-.29.02l.03-.03.01.01h.01v.01h.02v.01h.03v.01H7.32l.01-.01h.02l.01-.01h.01l.01-.01.01-.01h.01v-.01h.01v-.01l.04.03-.01.01h-.01l-.01.01v.01h-.01l-.01.01h-.01l-.01.01h-.01l-.01.01h-.02l-.01.01h-.07l-.01-.01h-.03l-.01-.01H7.2l-.01-.01h-.01v-.01h-.01l-.01-.01zm-.03-.29l.04.03-.01.01-.01.01v.01h-.01v.03h-.01v.09l.01.01v.01l.01.01v.01l.01.01v.01h.01v.01h.01l.01.01-.03.03-.01-.01h-.01v-.01l-.01-.01-.01-.01v-.01h-.01v-.01l-.01-.01v-.02l-.01-.01V6.6l.01-.01v-.01l.01-.01v-.01l.01-.01v-.01l.01-.01v-.01zm.09-.02l-.04-.01.03.02v.01h-.02v.01h-.01v.01h-.01v.01l-.04-.03h.01v-.01h.01V6.5h.01l.01-.01h.01v-.01h.01l.03.02zm-.03-.02l.05-.03-.02.05-.03-.02zm.08.2l-.03.03V6.7h-.01v-.01h-.01v-.01h-.01v-.01l-.01-.01v-.01l-.01-.01v-.01l-.01-.01v-.03l-.01-.01V6.52h.01v-.03l.04.01v.02l-.01.01v.05h.01v.03l.01.01v.02h.01v.01l.01.01.01.01h.01v.01zm.21.04l-.04-.01.03.02v.01h-.02v.01h-.03l-.01.01h-.07l-.01-.01H7.3v-.01h-.02v-.01h-.01l-.01-.01h-.01l-.01-.01.03-.03h.01v.01h.01l.01.01h.01l.01.01h.03v.01h.05v-.01h.04V6.7h.01l.03.02zm-.03-.02l.05-.03-.02.05-.03-.02z"/><path fill="#2B2A29" d="M7.99 7.16l-.03.06c-.07.08-.19.09-.26.02-.08-.06-.09-.18-.02-.26.01-.01.03-.03.05-.04-.03.07-.01.15.05.2.06.05.14.06.21.02z"/><path fill="#2B2A29" fill-rule="nonzero" d="M7.97 7.23l-.03-.02V7.2h.01v-.01l.01-.01v-.01l.01-.01v-.01l.04.02v.01H8v.02h-.01v.01l-.01.01v.01h-.01zm-.29.03l.03-.03h.01v.01h.02l.01.01h.01l.01.01H7.87l.01-.01h.01l.01-.01.01-.01h.01v-.01h.01v-.01h.01l.03.02-.01.01v.01l-.01.01h-.01l-.01.01-.01.01h-.01l-.01.01h-.02l-.01.01h-.05l-.01.01-.01-.01h-.04l-.01-.01h-.01l-.01-.01h-.02l-.01-.01-.01-.01h-.01zm-.02-.29l.03.03-.01.01v.01h-.01v.02l-.01.01v.03h-.01v.03l.01.01v.04l.01.01.01.01v.02h.01v.01h.01v.01l.01.01-.03.03v-.01l-.01-.01h-.01v-.01l-.01-.01-.01-.01V7.2l-.01-.01v-.01l-.01-.01v-.03l-.01-.01v-.05l.01-.01v-.03l.01-.01v-.02L7.64 7v-.01h.01v-.01l.01-.01zm.09-.02l-.04-.02.03.03h-.01v.01h-.01l-.01.01H7.7v.01h-.01V7l-.03-.03.01-.01.01-.01.01-.01h.01v-.01h.01v-.01h.01l.03.03zm-.03-.03l.05-.02-.02.05-.03-.03zm.08.2l-.03.04-.01-.01-.01-.01v-.01h-.01v-.01h-.01v-.01l-.01-.01v-.01l-.01-.01v-.02l-.01-.01V6.95l.01-.01v-.01l.04.02-.01.01v.08l.01.01v.02l.01.01v.01h.01v.01l.01.01.01.01h.01zm.21.05l-.04-.02.03.03h-.01v.01h-.03v.01H7.85l-.01-.01h-.02l-.01-.01H7.8v-.01h-.02v-.01h-.01l.03-.04v.01h.01v.01h.01l.01.01h.02v.01H7.95l.01-.01h.01l.01-.01.03.03zm-.03-.03l.05-.02-.02.05-.03-.03z"/><path fill="#2B2A29" d="M7.14 7.11c-.01.03-.02.05-.04.06-.06.08-.18.09-.25.02-.08-.06-.09-.18-.03-.25.02-.02.04-.04.06-.05-.03.07-.01.15.05.2.06.05.14.06.21.02z"/><path fill="#2B2A29" fill-rule="nonzero" d="M7.12 7.19l-.03-.03v-.01h.01v-.01l.01-.01v-.02h.01l.04.01-.01.01v.02h-.01v.01l-.01.01v.01h-.01v.01zm-.29.02l.03-.03h.01v.01h.01l.01.01h.01l.01.01h.03l.01.01h.03l.01-.01h.03l.01-.01h.01l.01-.01h.01v-.01h.01l.01-.01.01-.01.03.03h-.01l-.01.01v.01l-.01.01h-.01l-.01.01h-.01v.01h-.02l-.01.01H7l-.01.01H6.93l-.01-.01h-.03l-.01-.01h-.01v-.01h-.01l-.01-.01h-.01l-.01-.01zm-.02-.29l.03.03-.01.01v.01l-.01.01-.01.01v.02l-.01.01V7.08l.01.01v.02l.01.01v.01l.01.01v.01h.01v.01l.01.01.01.01-.03.03-.01-.01-.01-.01-.01-.01v-.01l-.01-.01v-.01h-.01v-.01l-.01-.01V7.1l-.01-.01v-.08L6.77 7v-.02l.01-.01v-.01l.01-.01.01-.01v-.01l.01-.01zm.09-.02l-.04-.01.03.02h-.01v.01h-.01l-.01.01h-.01v.01h-.01v.01l-.03-.03.01-.01.01-.01h.01v-.01h.01v-.01h.02l.03.02zm-.03-.02l.04-.03-.01.05-.03-.02zm.07.2l-.02.03-.01-.01-.01-.01h-.01v-.01l-.01-.01v-.01h-.01v-.02l-.01-.01v-.01l-.01-.01V6.89h.01l.04.01-.01.01V7l.01.01v.01l.01.01v.01l.01.01v.01h.01v.01h.01v.01zm.22.04l-.04-.01.03.02-.01.01h-.01l-.01.01h-.04l-.01.01h-.05l-.01-.01h-.02l-.01-.01h-.02l-.01-.01h-.01v-.01h-.01l-.01-.01.02-.03h.01v.01h.01l.01.01h.02v.01h.04v.01h.03l.01-.01h.03l.01-.01h.02l.03.02zm-.03-.02l.04-.03-.01.05-.03-.02z"/><path fill="#F5B2B6" d="M10.44 5.25c.07.09.06.22-.01.31l-.08.09c-.09.11-.25.12-.36.03L7.84 3.86c-.11-.1-.12-.26-.03-.37l.08-.09c.07-.09.2-.11.3-.06-.01-.05 0-.09.03-.13l.04-.05c.05-.06.14-.06.2-.01l2.13 1.8c.06.05.06.14.01.2l-.04.05c-.03.03-.07.05-.12.05z"/><path fill="#2B2A29" fill-rule="nonzero" d="M10.44 5.57l-.03-.02.01-.01v-.01l.01-.01v-.01h.01V5.5l.01-.01v-.02l.01-.01v-.03l.01-.01v-.05l-.01-.01v-.04l-.01-.01v-.02l-.01-.01-.01-.01v-.01l.03-.02.01.01v.01l.01.01v.01l.01.01v.02l.01.01v.03l.01.01v.07l-.01.01v.03l-.01.01v.02l-.01.01v.01l-.01.01-.01.01v.01l-.01.01-.01.01zm-.1.06l.07-.08.03.02-.07.09-.03-.03zm-.36.06l.02-.03.01.01.01.01h.01l.01.01h.01l.01.01h.01l.01.01h.04l.01.01h.06l.01-.01h.03l.01-.01h.01l.01-.01h.01l.01-.01.01-.01h.01l.01-.01.01-.01.01-.01.01-.01.03.03-.01.01-.01.01-.01.01-.01.01-.01.01-.02.01h-.01l-.01.01h-.01l-.01.01h-.02l-.01.01h-.03l-.01.01h-.08l-.01-.01h-.03l-.01-.01h-.01l-.02-.01-.01-.01h-.01L10 5.71l-.01-.01-.01-.01zM7.85 3.84L10 5.66l-.02.03-2.15-1.82.02-.03zm-.05-.36l.03.02-.01.01-.01.01v.01l-.01.01-.01.01v.03l-.01.01v.02l-.01.01v.08l.01.01v.02l.01.01v.02l.01.01v.01l.01.01v.01h.01l.01.01.01.01.01.01v.01l-.02.03-.01-.01-.01-.01-.01-.01-.01-.01-.01-.01-.01-.01V3.8l-.01-.02-.01-.01v-.01l-.01-.01v-.03l-.01-.01V3.61l.01-.01v-.03l.01-.01v-.01l.01-.01v-.02l.01-.01.01-.01.01-.01.01-.01zm.1-.06l-.07.08-.03-.02.07-.09.03.03zm.27-.08l.04-.01-.03.02h-.02l-.01-.01h-.03l-.01-.01h-.05l-.01.01h-.04L8 3.35h-.01l-.01.01h-.01l-.01.01h-.01l-.01.01-.01.01-.01.01h-.01v.01l-.01.01-.03-.03.01-.01.01-.01v-.01h.01l.01-.01.01-.01h.01l.01-.01h.01l.01-.01h.01l.01-.01h.01L8 3.3h.03l.02-.01H8.11l.01.01h.04l.01.01h.02l.01.01-.03.02zm.04-.01l.01.04-.04-.02.03-.02zM8.2 3.2l.04.02h-.01v.01l-.01.01v.01l-.01.01v.07l-.04.01v-.03l-.01-.01.01-.01v-.04l.01-.01v-.02h.01v-.01l.01-.01zm.07-.02l-.03.04-.04-.02.04-.05.03.03zm.2-.05l-.02.03h-.01v-.01h-.02v-.01h-.03v-.01h-.04v.01h-.03l-.01.01H8.3v.01h-.01l-.01.01-.01.01-.03-.03.01-.01.01-.01h.01v-.01h.01l.01-.01h.01l.01-.01h.02l.01-.01h.05l.01.01h.02l.01.01h.02v.01h.01l.01.01zm2.1 1.84L8.45 3.16l.02-.03 2.13 1.8-.03.04zm.05.2l-.03-.03v-.01h.01v-.02h.01v-.03l.01-.01v-.03h-.01v-.03L10.6 5v-.01h-.01v-.01l-.01-.01h-.01l.03-.04.01.01v.01h.01v.01l.01.01.01.01v.01l.01.01v.02l.01.01V5.09h-.01v.03h-.01v.02l-.01.01-.01.01v.01zm-.07.01l.04-.04.03.03-.04.04-.03-.03zm-.09.06l-.03.02.02-.03h.03v-.01h.03v-.01h.02V5.2h.01v-.01h.01v-.01l.03.03v.01h-.01v.01h-.01v.01h-.02v.01h-.01l-.01.01h-.03v.01h-.05l.02-.03zm-.03.02l-.03-.04.05.01-.02.03z"/><path fill="#F08BB2" d="M11.19.54l1.52 1.29c.48.41.54 1.14.13 1.62-.34.42-1.22.78-1.85 1.16.06.09.05.2-.02.28-.08.1-.23.11-.33.03L8.48 3.09c-.1-.08-.11-.24-.03-.34.07-.07.18-.1.27-.06C9.01 2 9.3.97 9.57.68c.41-.49 1.14-.55 1.62-.14zm.85 1.59c.29.24.33.67.08.96-.13.15-.31.23-.5.24-.09-.01-.22-.03-.29.02-.09.06-.09.13-.18.24-.29.34-.84.34-1.24 0-.39-.34-.48-.88-.2-1.22.06-.07.18-.12.21-.2.04-.11-.01-.19-.03-.31-.02-.18.03-.38.16-.53.24-.29.67-.32.96-.08.11.1.16.23.22.35.09.19.07.23.13.28.05.04.09.02.31.09.12.04.26.06.37.16z"/><path fill="#2B2A29" fill-rule="nonzero" d="M12.7 1.85L11.18.56l.02-.03 1.52 1.29-.02.03zm.16 1.61l-.03-.02.03-.05.04-.04.03-.05.03-.05.02-.05.03-.05.02-.05.01-.05.02-.06.01-.05.01-.05.01-.06V2.62l-.01-.06v-.05l-.01-.05-.02-.06-.01-.05-.02-.05-.02-.05-.03-.05-.02-.05-.03-.05-.03-.04-.03-.05-.04-.04-.04-.04-.04-.04-.04-.04.02-.03.05.04.04.04.04.04.04.05.03.04.03.05.03.05.03.05.03.05.02.06.02.05.01.05.02.06.01.05.01.06v.05l.01.06v.06l-.01.05v.06l-.01.05-.01.06-.01.05-.02.06-.02.05-.02.06-.02.05-.03.05-.03.05-.03.05-.03.05-.04.04zm-.03-.02v-.01.01zM11.01 4.6l-.03.02v-.03l.06-.03.06-.04.07-.04.06-.03.06-.04.07-.03.06-.04.07-.03.07-.04.06-.03.07-.04.06-.03.07-.04.07-.03.06-.04.06-.03.07-.04.06-.03.06-.04.06-.04.06-.03.06-.04.05-.03.05-.04.06-.04.05-.03.04-.04.05-.04.04-.04.04-.04.03-.03.04-.04.03.02-.03.04-.04.04-.04.04-.05.04-.04.04-.05.04-.05.04-.05.03-.06.04-.05.04-.06.03-.06.04-.06.04-.06.03-.06.04-.07.03-.06.04-.07.03-.06.04-.07.03-.06.04-.07.03-.07.04-.06.03-.07.04-.06.03-.07.04-.06.04-.06.03-.07.04-.06.03-.06.04.01-.03zm-.03.02l-.02-.02.02-.01v.03zm.01.29l-.03-.03v-.01l.01-.01.01-.01v-.01l.01-.01v-.01l.01-.01v-.02l.01-.01V4.7L11 4.69v-.03l-.01-.01v-.01h-.01v-.02l.03-.02.01.01v.01l.01.01v.01l.01.01v.02l.01.01V4.79l-.01.01v.02l-.01.01v.01l-.01.01v.01l-.01.01v.01l-.01.01v.01l-.01.01zm-.02-.02l.02.02-.02-.02zm-.34.05l.02-.04.01.01.01.01h.01l.01.01h.01l.01.01h.01l.01.01h.05l.01.01h.01l.01-.01h.04l.01-.01h.02l.01-.01h.01l.01-.01h.01l.01-.01.01-.01v-.01h.01l.01-.01.03.03-.01.01h-.01l-.01.01-.01.01-.01.01-.01.01h-.01l-.01.01h-.01l-.01.01h-.02l-.01.01h-.03l-.02.01h-.03l-.02-.01h-.03l-.01-.01h-.03l-.01-.01-.01-.01h-.01l-.01-.01-.01-.01h-.01zM8.5 3.07l2.15 1.83-.02.04-2.16-1.83.03-.04zm-.06-.33l.03.03-.01.01v.01h-.01v.01l-.01.01v.01l-.01.01v.02l-.01.01V2.96l.01.01v.02l.01.01v.01l.01.01v.01h.01l.01.01v.01l.01.01.01.01h.01l-.03.04-.01-.01-.01-.01-.01-.01-.01-.01-.01-.01v-.01l-.01-.01v-.01l-.01-.02V3l-.01-.01v-.01l-.01-.01V2.86l.01-.02v-.02l.01-.01V2.8l.01-.02.01-.01v-.01l.01-.01.01-.01zm.01.01l-.01-.01.01.01zm.25-.07l.04.02-.02.01-.01-.01h-.03l-.01-.01H8.6l-.01.01h-.03l-.01.01-.01.01h-.02v.01h-.01l-.01.01-.01.01-.01.01-.01.01-.03-.03.01-.01.01-.01.01-.01h.01V2.7l.01-.01h.01l.01-.01h.01l.01-.01h.02l.01-.01h.02l.01-.01h.09l.01.01h.03l.01.01-.03.01zm.04.02l-.01.01h-.01l.02-.01zM9.56.66l.03.03-.03.03-.02.03-.03.04-.02.04-.03.04-.03.05-.02.05-.03.06-.02.05-.03.06-.03.06-.02.07-.03.06-.03.07-.02.07-.03.07-.03.07-.02.08-.03.07-.03.07-.02.08-.03.07-.03.08-.02.07-.03.08-.03.07-.02.07-.03.07-.03.07-.02.07-.03.07-.03.07-.04-.02.03-.07.03-.06.02-.07.03-.07.03-.07.02-.08.03-.07.03-.07.02-.08.03-.07.03-.08.03-.07.02-.07.03-.08.03-.07.02-.07.03-.07.03-.07.02-.07.03-.07.03-.06.02-.06.03-.06.03-.06.02-.06L9.4.9l.02-.05.03-.04.03-.04.02-.04.03-.04.03-.03zm.03.03zM11.2.53l-.02.03-.05-.04-.05-.03-.04-.03-.05-.03-.05-.03-.05-.02-.05-.02-.06-.02-.05-.01-.05-.01-.05-.01-.06-.01-.05-.01h-.11l-.06.01h-.05l-.05.01-.06.01-.05.01-.05.02-.05.02-.05.02-.05.02-.05.03-.05.03L9.8.5l-.05.03-.04.04-.04.03-.04.05-.04.04-.03-.03.04-.04.04-.04.04-.04.05-.04.04-.04.05-.03.05-.03.05-.02.05-.03.05-.02.06-.02.05-.02.06-.01.05-.01.06-.01.05-.01H10.52l.06.01.05.01.06.01.05.01.06.01.05.02.05.02.06.03.05.02.05.03.05.03.05.04.04.04zm.94 2.57l-.03-.03.02-.02.02-.03.02-.03.01-.03.02-.03.01-.03.01-.03.01-.03.01-.03.01-.03v-.03l.01-.03v-.16l-.01-.03V2.5l-.01-.03-.01-.03-.01-.03-.02-.03-.01-.03-.01-.03-.02-.03-.02-.02-.02-.03-.02-.03-.02-.02-.03-.03-.02-.02.02-.03.03.02.03.03.02.03.02.02.02.03.02.03.02.03.02.03.01.03.02.03.01.03.01.04.01.03v.03l.01.04v.2l-.01.03-.01.03-.01.04-.01.03-.01.03-.02.03-.01.03-.02.03-.02.03-.02.03-.02.03zm-.52.25v-.04l.02-.01h.07l.01-.01h.04l.01-.01h.02l.01-.01h.02l.02-.01h.01l.02-.01.01-.01h.02l.01-.01.02-.01.02-.01.01-.01.01-.01.02-.01.01-.01.02-.01.01-.01.01-.01.02-.01.01-.02.01-.01.01-.01.02-.02.03.03-.01.01-.02.02-.01.01-.01.02-.02.01-.01.01-.02.01-.01.01-.02.02-.01.01-.02.01-.01.01-.02.01h-.02l-.01.01-.02.01-.01.01-.02.01h-.02l-.02.01h-.01l-.02.01h-.02l-.02.01h-.01l-.02.01h-.07l-.02.01h-.02zm0 0zm-.28.02l-.03-.04h.01l.01-.01h.02l.01-.01h.02l.01-.01H11.61l.01.01v.04h-.03v-.01H11.4l-.01.01h-.03v.01h-.02v.01zm-.17.23l-.04-.02.01-.01.01-.01.01-.01v-.01l.01-.01v-.01l.01-.01V3.5h.01v-.01l.01-.01v-.01h.01v-.01l.01-.01v-.01l.01-.01v-.01l.01-.01.01-.01v-.01h.01v-.01l.01-.01h.01v-.01l.01-.01h.01l.01-.01v-.01l.03.04h-.01l-.01.01v.01h-.01l-.01.01-.01.01-.01.01v.01l-.01.01-.01.01v.01l-.01.01v.01l-.01.01-.01.01v.02l-.01.01h-.01v.01l-.01.01v.01l-.01.01-.01.01-.01.01v.01zm0 0zm-1.27.01l.03-.04.03.03.04.03.04.03.04.02.04.02.04.02.04.02.04.02.04.01.04.02.05.01.04.01h.04l.04.01h.16l.04-.01h.04l.04-.01.04-.01.04-.02.03-.01.04-.02.03-.01.04-.03.03-.02.03-.02.03-.03.03-.02.02-.03.04.02-.03.03-.03.03-.03.03-.04.03-.03.02-.04.02-.03.02-.04.02-.04.01-.04.02-.04.01-.04.01h-.04l-.04.01h-.17l-.05-.01h-.04l-.04-.01-.05-.01-.04-.02-.04-.01-.05-.02-.04-.02-.04-.02-.04-.02-.04-.03-.04-.02-.04-.03-.04-.03zm-.2-1.26l.03.03-.03.03-.02.04-.02.03-.02.03-.02.04-.01.03-.01.04-.01.04-.01.04-.01.04V2.93l.01.05v.04l.01.04.02.04.01.04.01.04.02.04.02.03.02.04.02.04.03.04.03.04.02.03.03.04.04.03.03.03.04.03-.03.04-.04-.04-.03-.03-.04-.04-.03-.03-.03-.04-.02-.04-.03-.04-.02-.04-.03-.04-.02-.04-.01-.04-.02-.04-.01-.04-.02-.04-.01-.05v-.04l-.01-.04V2.9l-.01-.04v-.05l.01-.04v-.04l.01-.04.01-.04.01-.04.01-.04.02-.04.01-.04.02-.03.03-.04.02-.03.03-.04zm0 0v.01-.01zm.2-.19l.04.02v.01l-.01.01-.01.01v.01h-.01v.01l-.01.01-.01.01-.01.01h-.01v.01l-.01.01h-.01l-.01.01h-.01v.01l-.01.01h-.01l-.01.01-.01.01-.01.01h-.01v.01h-.01l-.01.01h-.01v.01l-.01.01-.03-.03.01-.01.01-.01.01-.01h.01l.01-.01V2.3h.01l.01-.01h.01l.01-.01v-.01h.01l.01-.01h.01v-.01l.01-.01h.01l.01-.01.01-.01h.01v-.01l.01-.01.01-.01v-.01h.01v-.02zm-.03-.3h.05v.05l.01.01v.03l.01.01v.03l.01.01v.05l.01.01v.07l-.01.01v.02l-.01.01v.01l-.04-.02h.01v-.04l.01-.01v-.05l-.01-.01v-.04L9.9 2v-.03l-.01-.01v-.03l-.01-.01v-.04l-.01-.02zm.16-.55l.03.03-.01.02-.01.01-.01.01-.01.02-.01.01-.01.02-.01.01-.01.02v.02l-.01.01-.01.02v.01l-.01.02-.01.02v.01l-.01.02v.01l-.01.02v.05l-.01.02V1.84l.01.02h-.05v-.19l.01-.02v-.04l.01-.02v-.01l.01-.02v-.02l.01-.02.01-.01v-.02l.01-.02.01-.01.01-.02.01-.02.01-.01.01-.02.01-.01.01-.02.01-.02.01-.01.01-.02zm.99-.07l-.02.03-.03-.02-.03-.02-.03-.02-.02-.02-.03-.01-.03-.02-.03-.01-.03-.01-.04-.01-.03-.01h-.03l-.03-.01h-.16l-.03.01-.03.01h-.03l-.03.01-.03.01-.03.02-.03.01-.03.01-.03.02-.02.02-.03.02-.02.02-.03.02-.02.03-.03.02-.03-.03.03-.02.02-.03.03-.02.03-.02.02-.02.03-.02.03-.02.03-.02.03-.01.03-.02.04-.01.03-.01h.03l.03-.01.04-.01h.17l.03.01h.03l.04.01.03.01.03.01.03.01.03.02.04.01.03.02.03.02.02.02.03.03zm.23.35l-.04.02V1.6l-.01-.01-.01-.01v-.01l-.01-.02v-.01l-.01-.01v-.01l-.01-.01V1.5l-.01-.02-.01-.01v-.01l-.01-.01v-.01l-.01-.01-.01-.01V1.4l-.01-.01v-.01l-.01-.01-.01-.01-.01-.01v-.01l-.01-.01-.01-.01-.01-.01-.01-.01-.01-.01v-.01h-.01L11 1.27l.02-.03h.01l.01.01.01.01.01.01.01.01.01.01.01.02.01.01.01.01v.01l.01.01.01.01.01.01v.01l.01.02.01.01v.01l.01.01.01.01v.01l.01.02v.01l.01.01v.01l.01.01.01.01v.02l.01.01v.01l.01.01v.01l.01.01zm.12.27l-.02.03h-.01v-.01h-.01v-.01h-.01v-.01h-.01v-.01l-.01-.01v-.02l-.01-.01V1.8l-.01-.01v-.02l-.01-.01v-.02l-.01-.01v-.02l-.01-.01v-.01l-.01-.01-.01-.02v-.01l-.01-.02-.01-.02.04-.02.01.02v.02l.01.01.01.02v.01l.01.02v.01l.01.01v.01l.01.01v.01l.01.01v.03l.01.01v.02h.01v.02h.01v.01l.01.01v.01h.01zm.3.09l-.01.04-.02-.01h-.02l-.02-.01h-.01l-.02-.01h-.01l-.02-.01h-.03l-.01-.01h-.04l-.01-.01h-.04l-.01-.01h-.02v-.01h-.02V1.9h-.01v-.01l.02-.03.01.01h.01v.01h.02l.01.01h.04l.01.01h.03l.02.01h.03l.02.01h.01l.02.01h.02l.01.01h.02l.02.01zm.38.16l-.02.03-.01-.01h-.01L12 2.12l-.01-.01-.01-.01h-.01l-.01-.01h-.02l-.01-.01-.01-.01h-.01l-.01-.01h-.02l-.02-.01h-.01l-.01-.01h-.01l-.01-.01h-.03l-.01-.01h-.02l-.02-.01h-.02L11.71 2h-.01l-.02-.01h-.02l.01-.04h.03l.01.01h.01l.01.01h.03l.01.01h.02l.02.01h.02l.01.01h.01l.02.01h.01l.01.01h.01l.02.01h.01l.01.01h.01l.01.01.02.01h.01l.01.01.01.01.01.01h.01l.01.01.01.01z"/></svg>