<svg xmlns="http://www.w3.org/2000/svg" width="56" height="57" fill-rule="evenodd" clip-rule="evenodd" image-rendering="optimizeQuality" shape-rendering="geometricPrecision" text-rendering="geometricPrecision" viewBox="0 0 15.05 15.38"><path fill="#F08BB2" d="M6.42 2.37h7.54c.57 0 1.05 1.19 1.05 1.77v10.14c0 .58-.48 1.05-1.05 1.05H6.42c-.58 0-1.05-.47-1.05-1.05V4.14c0-.58.47-1.77 1.05-1.77z"/><path fill="#2B2A29" fill-rule="nonzero" d="M13.96 2.41H6.42v-.09h7.54v.09zm1.09 1.73h-.09v-.12l-.01-.06-.01-.06-.01-.06-.01-.07-.02-.07-.02-.07-.02-.07-.02-.08-.03-.07-.03-.07-.02-.07-.03-.07-.04-.07-.03-.07-.04-.07-.04-.07-.03-.06-.04-.06-.05-.06-.04-.05-.04-.05-.05-.04-.04-.05-.05-.03-.05-.03-.04-.03-.05-.02-.05-.01-.05-.01-.04-.01v-.09h.06l.05.02.06.01.06.03.05.03.06.03.05.04.05.05.04.05.05.05.05.06.04.06.04.06.04.07.04.06.04.07.04.07.03.08.03.07.03.08.03.07.02.08.03.07.02.07.02.08.02.07.01.07.01.07.01.06.01.07v.12zm-.09 10.14V4.14h.09v10.14h-.09zm-1 1.1v-.09l.05-.01h.05l.05-.01h.05l.05-.02.04-.01.05-.02.05-.01.04-.02.04-.03.05-.02.04-.03.04-.02.03-.03.04-.04.04-.03.03-.03.03-.04.03-.04.03-.04.03-.04.02-.04.02-.04.02-.05.02-.04.02-.05.01-.05.01-.05.01-.05.01-.05v-.1h.09v.11l-.01.06-.01.05-.01.05-.02.06-.01.05-.02.05-.02.05-.03.04-.03.05-.02.04-.04.05-.03.04-.03.04-.04.04-.04.03-.04.04-.04.03-.04.03-.05.03-.04.02-.05.03-.05.02-.05.02-.05.02-.05.01-.05.02-.06.01h-.05l-.06.01h-.05zm-7.54-.09h7.54v.09H6.42v-.09zm-1.1-1.01h.09l.01.05v.05l.01.05v.05l.02.05.01.05.02.05.01.04.02.05.03.04.02.04.03.04.02.04.03.04.04.04.03.03.03.03.04.04.04.03.04.02.04.03.04.02.04.03.05.02.04.01.05.02.05.01.05.02h.05l.05.01h.05l.05.01v.09h-.06l-.05-.01h-.06l-.05-.01-.05-.02-.06-.01-.05-.02-.05-.02-.05-.02-.04-.03-.05-.02-.04-.03-.05-.03-.04-.03-.04-.04-.04-.03-.03-.04-.04-.04-.03-.04-.03-.05-.03-.04-.03-.05-.02-.04-.02-.05-.02-.05-.02-.05-.01-.06-.02-.05-.01-.05v-.06l-.01-.05v-.06zm.09-10.14v10.14h-.09V4.14h.09zm1.01-1.82v.09l-.05.01-.05.01-.04.01-.05.02-.05.03-.05.03-.04.03-.05.05-.04.04-.05.05-.04.05-.04.06-.04.06-.04.06-.04.07-.03.07-.04.07-.03.07-.03.07-.03.07-.03.07-.02.07-.02.08-.02.07-.02.07-.02.07-.01.07-.02.06v.06l-.01.06v.06l-.01.06h-.09v-.06l.01-.06v-.07l.01-.06.02-.07.01-.07.02-.07.02-.08.02-.07.02-.07.03-.08.02-.07.03-.08.04-.07.03-.08.04-.07.03-.07.04-.06.04-.07.04-.06.05-.06.04-.06.05-.05.05-.05.05-.05.05-.04.05-.03.06-.03.05-.03.06-.01.06-.02h.06z"/><path fill="#99CFBA" d="M5.37 12.54V5h7.82v7.54z"/><path fill="#2B2A29" fill-rule="nonzero" d="M5.41 5v7.54h-.09V5l.05-.05.04.05zm-.09 0v-.05h.05L5.32 5zm7.87.05H5.37v-.1h7.82l.04.05-.04.05zm0-.1h.04V5l-.04-.05zm-.05 7.59V5h.09v7.54l-.04.04-.05-.04zm.09 0v.04h-.04l.04-.04zm-7.86-.05h7.82v.09H5.37l-.05-.04.05-.05zm0 .09h-.05v-.04l.05.04z"/><path fill="#F5B2B6" d="M6.77.05h6.84c.39 0 .72.32.72.72v.95c0 .4-.33.73-.72.73H6.77c-.4 0-.72-.33-.72-.73V.77c0-.4.32-.72.72-.72z"/><path fill="#2B2A29" fill-rule="nonzero" d="M13.61.09H6.77V0h6.84v.09zm.77.68h-.1v-.1l-.01-.04-.01-.03-.01-.03-.01-.03-.01-.03-.01-.03-.02-.03-.01-.03-.02-.03-.02-.03-.02-.02-.02-.03-.02-.02-.03-.02-.02-.02-.03-.02-.03-.02-.02-.02-.03-.02-.03-.01-.03-.01-.03-.02-.03-.01-.03-.01h-.04L13.71.1h-.03l-.04-.01h-.03V0h.08l.03.01.04.01h.04l.04.01.03.02.04.01.03.02.03.01.04.02.03.02.03.02.03.03.02.02.03.03.03.02.02.03.02.03.02.03.02.03.02.03.02.04.02.03.01.04.01.03.01.04.01.03.01.04v.04l.01.04v.04zm-.1.95V.77h.1v.95h-.1zm-.67.77V2.4h.07l.03-.01h.03l.04-.01.03-.01.03-.01.03-.01.03-.02.03-.01.03-.02.02-.02.03-.01.03-.02.02-.03.03-.02.02-.02.02-.03.02-.02.02-.03.02-.03.01-.02.02-.03.01-.03.01-.03.01-.04.01-.03.01-.03.01-.03V1.72h.1v.04l-.01.04v.04l-.01.04-.01.04-.01.03-.01.04-.01.03-.02.04-.02.03-.02.03-.02.03-.02.03-.02.03-.02.03-.03.03-.03.02-.02.03-.03.02-.03.02-.03.02-.04.02-.03.02-.03.01-.04.02-.03.01-.04.01-.04.01h-.04l-.03.01h-.08zM6.77 2.4h6.84v.09H6.77V2.4zM6 1.72h.09v.07l.01.04.01.03v.03l.01.03.01.04.01.03.02.03.01.03.02.02.02.03.02.03.02.02.02.03.02.02.02.02.03.03.02.02.03.01.03.02.03.02.03.01.03.02.03.01.03.01.03.01.03.01h.04l.03.01h.07v.09h-.08l-.04-.01h-.04l-.03-.01-.04-.01-.04-.01-.03-.02-.03-.01-.04-.02-.03-.02-.03-.02-.03-.02-.03-.02-.03-.03-.03-.02-.02-.03-.02-.03-.03-.03-.02-.03-.02-.03-.02-.03-.02-.03-.01-.04-.01-.03-.02-.04-.01-.03-.01-.04v-.04L6 1.8v-.08zm.09-.95v.95H6V.77h.09zM6.77 0v.09h-.04L6.7.1h-.03l-.04.01H6.6l-.03.01-.03.01-.03.02-.03.01-.03.01-.03.02-.03.02-.03.02-.02.02-.03.02-.02.02-.02.02-.02.03-.02.02-.02.03-.02.03-.02.03-.01.03-.02.03-.01.03-.01.03-.01.03v.03L6.1.67 6.09.7v.07H6V.69l.01-.04V.61l.01-.03.01-.04.02-.03.01-.04.01-.03.02-.04.02-.03.02-.03.02-.03.03-.03.02-.03.02-.02.03-.03.03-.02.03-.03.03-.02.03-.02.03-.02.04-.01.03-.02.03-.01.04-.02.04-.01h.03l.04-.01.04-.01h.08z"/><path fill="#C4D985" d="M1.81 1.49c.97 0 1.76 1.41 1.76 2.81 0 1.3-.08 2.35-1.08 2.69-.25.09-.24.45-.24.88v5.81h-.89V7.89c0-.51 0-.79-.27-.88C.13 6.69.05 5.58.05 4.3c0-1.55.79-2.81 1.76-2.81z"/><path fill="#2B2A29" fill-rule="nonzero" d="M3.62 4.3h-.09l-.01-.13v-.13l-.01-.13-.02-.13-.02-.12-.02-.13-.03-.12-.03-.13-.04-.12-.03-.12-.05-.11-.04-.11-.05-.11-.05-.11-.06-.1-.05-.1-.06-.1-.07-.09-.06-.09-.07-.08-.07-.07-.07-.07-.08-.07-.07-.06-.08-.05-.08-.05-.08-.04-.08-.03-.08-.03-.09-.02-.08-.01h-.09v-.09h.09l.1.01.09.02.09.03.09.04.09.04.08.05.08.06.08.06.08.07.08.07.07.08.07.09.07.09.06.09.06.1.06.1.06.11.05.11.05.11.05.12.04.11.04.13.04.12.03.12.03.13.02.13.02.13.02.13.01.13.01.13v.14zM2.5 7.03l-.03-.08.09-.04.08-.03.08-.04.07-.05.07-.05.07-.05.06-.05.05-.06.05-.06.05-.07.05-.07.04-.07.04-.08.03-.08.03-.08.03-.08.02-.09.03-.09.02-.09.02-.1.01-.1.02-.1.01-.1.01-.11v-.1L3.51 5l.01-.12V4.42l.01-.12h.09v.24l-.01.12V4.89L3.6 5v.11l-.01.11-.01.11-.01.1-.02.11-.01.1-.02.1-.02.09-.03.1-.02.09-.03.08-.04.09-.03.08-.04.08-.04.08-.05.07-.05.07-.06.07-.06.06-.06.06-.07.06-.08.05-.07.05-.09.04-.09.04-.09.03zm-.03-.08zm-.17.92h-.09V7.49l.01-.03v-.1l.01-.04v-.03l.01-.03.01-.03v-.02l.01-.03.01-.03.01-.02.02-.03.01-.02.01-.02.02-.02.02-.02.02-.02.02-.01.02-.02.02-.01.03-.01.03.08-.02.01-.01.01-.02.01-.01.01-.02.01-.01.02-.01.01-.01.02-.01.02-.01.02-.01.02-.01.02-.01.02v.03l-.01.02v.03l-.01.03v.03l-.01.03v.09l-.01.04V7.87zm-.09 5.81V7.87h.09v5.81l-.05.05-.04-.05zm.09 0v.05h-.05l.05-.05zm-.94-.04h.89v.09h-.89l-.04-.05.04-.04zm0 .09h-.04v-.05l.04.05zm.05-5.84v5.79h-.09V7.89h.09zm-.33-.84l.03-.09.02.01.03.01.02.02.03.01.02.02.02.01.02.02.01.02.02.02.01.02.02.03.01.02.01.03.01.02.01.03v.03l.01.03.01.03v.06l.01.04V7.55l.01.03v.31h-.09V7.67l-.01-.04v-.18l-.01-.04v-.03l-.01-.03v-.02l-.01-.03v-.02l-.01-.03-.01-.02-.01-.02-.01-.02-.01-.02-.01-.01-.01-.02-.01-.01-.01-.02-.02-.01-.01-.01-.02-.01-.02-.01-.02-.01-.02-.01zM0 4.3h.09V4.53l.01.12V4.88l.01.11v.11l.01.11.01.11.01.1.01.11.02.1.02.09.02.1.02.09.02.09.03.09.03.08.03.08.04.08.04.07.04.07.05.07.05.06.05.06.06.06.06.05.07.04.07.05.07.04.08.03.09.03-.03.09-.09-.03-.09-.04-.08-.04-.07-.05-.08-.05-.06-.06-.06-.06-.06-.06-.05-.07-.05-.07-.05-.07-.04-.08-.04-.08-.03-.09-.04-.08-.02-.09-.03-.1-.02-.09-.02-.1-.02-.1-.02-.1-.01-.11-.01-.1-.01-.11-.01-.11L.01 5V4.77L0 4.65V4.3zm1.81-2.85v.09h-.09l-.08.01-.09.02-.08.02-.08.03-.08.04-.08.04-.08.05-.08.06-.07.06-.07.06L.86 2l-.07.08-.07.08-.06.09-.06.09-.06.09-.05.1-.05.11-.05.11-.05.11-.04.12-.04.11-.03.13-.03.12-.03.13-.02.13-.02.14-.02.13-.01.14-.01.14v.15H0v-.15l.01-.14.01-.14.02-.14.02-.14.02-.14.03-.13.03-.13.04-.12.04-.12.04-.12.04-.12.05-.11.06-.11.05-.1.06-.1.07-.1.06-.08.07-.09.07-.08.07-.07.08-.07.08-.07.08-.06.08-.05.08-.04.09-.04.09-.03.09-.03.09-.02.09-.01h.1z"/><path fill="#A1B567" d="M1.45 9.92h.72c.42 0 .76.35.76.77v3.21c0 .42-.34.76-.76.76h-.72c-.42 0-.77-.34-.77-.76v-3.21c0-.42.35-.77.77-.77z"/><path fill="#2B2A29" fill-rule="nonzero" d="M2.17 9.97h-.72v-.09h.72v.09zm.81.72h-.09v-.04l-.01-.03v-.04l-.01-.04v-.03l-.01-.03-.02-.04-.01-.03-.01-.03-.02-.03-.02-.03-.01-.03-.02-.03-.03-.03-.02-.02-.02-.03-.03-.02-.02-.03-.03-.02-.03-.02-.03-.02-.03-.01-.03-.02-.03-.01-.03-.02-.04-.01-.03-.01h-.04l-.03-.01-.04-.01h-.07v-.09h.08l.04.01h.04l.04.01.04.02.04.01.04.01.03.02.04.02.03.02.03.02.03.02.04.02.02.03.03.03.03.02.03.03.02.03.02.04.02.03.02.03.02.04.02.03.01.04.01.04.02.04v.04l.01.04.01.04v.08zm-.09 3.21v-3.21h.09v3.21h-.09zm-.72.81v-.1H2.28l.03-.01.04-.01.03-.01.04-.01.03-.01.03-.02.03-.01.03-.02.03-.02.03-.02.03-.02.02-.02.03-.03.02-.02.02-.03.03-.02.02-.03.01-.03.02-.03.02-.03.01-.03.01-.04.02-.03.01-.03v-.04l.01-.04v-.03l.01-.04v-.03h.09v.08l-.01.04-.01.04v.04l-.02.04-.01.03-.01.04-.02.04-.02.03-.02.04-.02.03-.02.03-.02.03-.03.03-.03.03-.03.03-.02.02-.04.03-.03.02-.03.02-.03.02-.04.02-.03.01-.04.02-.04.01-.04.01-.04.01-.04.01h-.04l-.04.01h-.04zm-.72-.1h.72v.1h-.72v-.1zm-.81-.71h.09v.07l.01.03v.04l.01.04.01.03.01.03.02.04.01.03.02.03.01.03.02.03.02.03.02.02.03.03.02.02.03.03.02.02.03.02.03.02.03.02.03.02.03.01.03.02.03.01.03.01.04.01.03.01.04.01H1.45v.1h-.04l-.05-.01h-.04l-.03-.01-.04-.01-.04-.01-.04-.01-.04-.02-.03-.01-.04-.02-.03-.02-.03-.02-.04-.02-.03-.03-.03-.02-.02-.03-.03-.03-.03-.03-.02-.03-.02-.03-.02-.03-.02-.04-.02-.03-.02-.04-.01-.04-.02-.03-.01-.04-.01-.04v-.04l-.01-.04v-.08zm.09-3.21v3.21H.64v-3.21h.09zm.72-.81v.09h-.08l-.03.01-.04.01h-.03l-.04.01-.03.01-.03.02-.03.01-.03.02-.03.01-.03.02-.03.02-.03.02-.02.03-.03.02-.02.03-.03.02-.02.03-.02.03-.02.03-.01.03-.02.03-.01.03-.02.03-.01.04-.01.03-.01.03v.04l-.01.04v.07H.64v-.08l.01-.04v-.04l.01-.04.01-.04.02-.04.01-.04.02-.03.02-.04.02-.03.02-.03.02-.04.02-.03.03-.03.03-.02.02-.03.03-.03.03-.02.04-.02.03-.02.03-.02.04-.02.03-.02.04-.01.04-.01.04-.02.04-.01h.03l.04-.01h.09z"/></svg>