<svg xmlns="http://www.w3.org/2000/svg" width="98" height="70" fill-rule="evenodd" clip-rule="evenodd" image-rendering="optimizeQuality" shape-rendering="geometricPrecision" text-rendering="geometricPrecision" viewBox="0 0 109.09 78.39"><path fill="#99CFBA" d="M12.38.19c2.23 0 4.06 1.83 4.06 4.06v8.74c-3.06.1-5.87 1.2-8.13 2.99V4.25c0-2.23 1.83-4.06 4.07-4.06z"/><path fill="#2B2A29" fill-rule="nonzero" d="M12.38.19V0v.19zm4.25 4.06h-.38v-.2l-.02-.19-.02-.19-.04-.19-.04-.19-.05-.19-.06-.18-.07-.17-.08-.17-.09-.17-.09-.16-.1-.16-.11-.15-.12-.15-.12-.14-.13-.13-.13-.13-.14-.12-.15-.12-.15-.11-.16-.1-.16-.09-.17-.09-.17-.08-.17-.07-.18-.06-.19-.05-.18-.04-.19-.04-.2-.02-.19-.02h-.2V0l.22.01.21.01.21.03.21.04.21.05.2.05.2.07.19.07.19.09.18.1.18.1.17.11.17.12.16.12.15.14.15.14.14.15.14.15.12.16.12.17.11.17.1.18.1.18.09.19.07.19.07.2.06.2.04.21.04.21.03.21.02.21v.22zm-.38 8.74V4.25h.38v8.74l-.18.19-.2-.19zm.38 0v.18l-.18.01.18-.19zm-8.5 2.99h.37l-.3-.15.21-.17.22-.16.22-.16.23-.15.23-.16.23-.14.23-.15.24-.13.24-.14.24-.12.25-.13.25-.12.25-.11.25-.11.26-.11.26-.1.26-.09.26-.09.27-.08.27-.09.27-.07.27-.07.27-.06.28-.06.28-.05.28-.05.28-.04.29-.03.28-.03.29-.03.28-.02.29-.01.02.38-.28.01-.28.02-.28.02-.28.03-.28.04-.27.04-.27.04-.27.05-.27.06-.27.06-.26.07-.27.07-.26.08-.26.08-.25.09-.26.09-.25.1-.25.1-.25.1-.24.12-.24.11-.24.12-.24.13-.23.13-.23.13-.23.14-.23.14-.22.15-.22.15-.21.15-.22.16-.21.17-.3-.15zm.3.15l-.3.24v-.39l.3.15zM8.5 4.25v11.73h-.37V4.25h.37zM12.38 0v.38h-.2l-.2.02-.19.02-.19.04-.19.04-.18.05-.18.06-.18.07-.17.08-.16.09-.17.09-.15.1-.15.11-.15.12-.14.12-.14.13-.13.13-.12.14-.11.15-.11.15-.1.16-.1.16-.08.17-.08.17-.07.17-.06.18-.05.19-.05.19-.03.19-.03.19-.01.19-.01.2h-.37v-.22l.02-.21.03-.21.03-.21.05-.21.06-.2.07-.2.07-.19.09-.19.09-.18.1-.18.11-.17.12-.17.13-.16.13-.15.14-.15.15-.14.16-.14.16-.12.16-.12.18-.11.17-.1.19-.1.19-.09.19-.07.2-.07.2-.05.2-.05.21-.04.21-.03.22-.01.22-.01z"/><path fill="#6FA691" d="M16.89 12.98h11.74c7.62 0 13.85 6.23 13.85 13.85v35.06c0 7.62-6.23 10.53-13.85 10.53H16.89c-7.61 0-13.84-2.91-13.84-10.53V26.83c0-7.62 6.23-13.85 13.84-13.85z"/><path fill="#2B2A29" fill-rule="nonzero" d="M28.63 13.17H16.89v-.38h11.74v.38zm14.03 13.66h-.37l-.02-.7-.05-.69-.09-.69-.12-.67-.15-.66-.19-.64-.22-.64-.24-.62-.28-.6-.3-.59-.33-.57-.35-.56-.38-.53-.41-.52-.43-.49-.45-.48-.48-.45-.5-.43-.51-.41-.54-.38-.55-.36-.57-.33-.59-.3-.61-.27-.62-.25-.63-.21-.65-.19-.66-.15-.67-.12-.68-.09-.69-.05-.7-.02v-.38l.72.02.71.06.7.08.69.13.68.16.66.19.65.22.64.25.62.28.61.31.58.34.57.37.55.39.54.42.5.44.49.46.47.49.44.51.42.53.39.55.36.57.34.59.32.6.28.63.25.63.22.65.19.67.16.68.12.69.09.7.06.71.01.72zm-.37 35.06V26.83h.37v35.06h-.37zM28.63 72.61v-.37l.71-.01.69-.03.69-.04.67-.06.67-.08.64-.1.64-.12.62-.13.61-.16.59-.17.57-.2.56-.22.53-.23.52-.26.49-.28.47-.29.45-.32.43-.35.4-.36.38-.39.36-.41.32-.43.3-.46.27-.48.25-.5.21-.53.19-.56.15-.58.12-.61.09-.63.05-.67.02-.69h.37l-.01.71-.06.68-.09.66-.12.63-.16.61-.19.58-.22.55-.26.53-.28.5-.32.48-.34.45-.37.43-.39.4-.42.38-.45.36-.47.33-.49.31-.51.29-.53.26-.55.24-.57.23-.59.2-.6.18-.62.15-.64.14-.64.12-.66.1-.68.08-.68.06-.7.05-.71.02-.71.01zm-11.74-.37h11.74v.37H16.89v-.37zM2.86 61.89h.38l.02.69.05.67.08.63.12.61.16.58.18.56.21.53.25.5.27.48.3.46.33.43.35.41.38.39.4.36.43.35.45.32.47.29.5.28.51.26.54.23.55.22.57.2.59.17.61.16.62.13.64.12.65.1.66.08.68.06.68.04.7.03.7.01v.37l-.71-.01-.71-.02-.69-.05-.69-.06-.67-.08-.66-.1-.65-.12-.64-.14-.62-.15-.6-.18-.59-.2-.57-.23-.55-.24-.53-.26-.51-.29-.49-.31-.47-.33-.44-.36-.42-.38-.4-.4-.37-.43-.34-.45-.31-.48-.29-.5-.25-.53-.22-.55-.2-.58-.15-.61-.13-.63-.09-.66-.05-.68-.02-.71zm.38-35.06v35.06h-.38V26.83h.38zm13.65-14.04v.38l-.7.02-.69.05-.68.09-.67.12-.66.15-.65.19-.63.21-.62.25-.6.27-.59.3-.57.33-.56.36-.53.38-.52.41-.5.43-.47.45-.45.48-.43.49-.41.52-.38.53-.36.56-.33.57-.3.59-.27.6-.25.62-.22.64-.18.64-.15.66-.13.67-.08.69-.05.69-.02.7h-.38l.02-.72.05-.71.09-.7.13-.69.15-.68.19-.67.22-.65.26-.63.28-.63.31-.6.34-.59.37-.57.39-.55.41-.53.45-.51.46-.49.49-.46.51-.44.53-.42.55-.39.57-.37.59-.34.6-.31.62-.28.64-.25.65-.22.67-.19.67-.16.69-.13.7-.08.71-.06.72-.02z"/><path fill="#D8ECE4" d="M14.48 19.6h16.56c4.05 0 7.37 3.32 7.37 7.38v14.29c0 4.06-3.32 7.38-7.37 7.38H14.48c-4.05 0-7.37-3.32-7.37-7.38V26.98c0-4.06 3.32-7.38 7.37-7.38z"/><path fill="#2B2A29" fill-rule="nonzero" d="M31.04 19.79H14.48v-.38h16.56v.38zm7.56 7.19h-.38l-.01-.37-.02-.37-.05-.35-.06-.36-.08-.34-.1-.34-.11-.34-.13-.32-.15-.32-.16-.31-.17-.3-.19-.29-.2-.29-.21-.27-.23-.26-.24-.25-.25-.24-.26-.22-.27-.22-.28-.2-.29-.18-.31-.18-.3-.16-.32-.14-.33-.13-.33-.12-.34-.09-.35-.08-.35-.07-.36-.04-.36-.03-.37-.01v-.38l.39.01.38.03.38.05.37.07.36.08.36.1.35.12.35.14.33.15.33.17.31.18.31.2.3.21.28.23.28.23.26.25.25.27.24.27.22.29.21.29.2.31.18.32.17.32.15.34.14.34.12.35.1.36.09.37.06.37.05.37.03.39.01.39zm-.38 14.29V26.98h.38v14.29h-.38zm-7.18 7.57v-.38l.37-.01.36-.03.36-.05.35-.06.35-.08.34-.1.33-.11.33-.13.32-.14.3-.16.31-.18.29-.18.28-.2.27-.22.26-.23.25-.23.24-.25.23-.26.21-.27.2-.29.19-.29.17-.3.16-.31.15-.32.13-.32.11-.34.1-.34.08-.34.06-.36.05-.35.02-.37.01-.37h.38l-.01.39-.03.38-.05.38-.06.37-.09.37-.1.36-.12.35-.14.34-.15.34-.17.32-.18.32-.2.3-.21.3-.22.29-.24.27-.25.27-.26.25-.28.23-.28.23-.3.21-.31.2-.31.18-.33.17-.33.15-.35.13-.35.12-.36.11-.36.08-.37.07-.38.05-.38.03-.39.01zm-16.56-.38h16.56v.38H14.48v-.38zm-7.56-7.19h.38l.01.37.03.37.04.35.07.36.08.34.09.34.12.34.13.32.14.32.16.31.17.3.19.29.2.29.22.27.22.26.24.25.25.23.26.23.27.22.29.2.29.18.3.18.31.16.31.14.33.13.33.11.34.1.35.08.35.06.36.05.36.03.37.01v.38l-.38-.01-.39-.03-.37-.05-.38-.07-.36-.08-.36-.11-.35-.12-.34-.13-.34-.15-.32-.17-.32-.18-.31-.2-.29-.21-.29-.23-.28-.23-.26-.25-.25-.27-.24-.27-.22-.29-.21-.3-.2-.3-.18-.32-.17-.32-.15-.34-.14-.34-.12-.35-.1-.36-.08-.37-.07-.37-.05-.38-.03-.38-.01-.39zm.38-14.29v14.29h-.38V26.98h.38zm7.18-7.57v.38l-.37.01-.36.03-.36.04-.35.07-.35.08-.34.09-.33.12-.33.13-.31.14-.31.16-.3.18-.29.18-.29.2-.27.22-.26.22-.25.24-.24.25-.22.26-.22.27-.2.29-.19.29-.17.3-.16.31-.14.32-.13.32-.12.34-.09.34-.08.34-.07.36-.04.35-.03.37-.01.37h-.38l.01-.39.03-.39.05-.37.07-.37.08-.37.1-.36.12-.35.14-.34.15-.34.17-.32.18-.32.2-.31.21-.29.22-.29.24-.27.25-.27.26-.25.28-.23.29-.23.29-.21.31-.2.32-.18.32-.17.34-.15.34-.14.35-.12.36-.1.36-.08.38-.07.37-.05.39-.03.38-.01z"/><path fill="#F08BB2" d="M14.33 53.01c1.75 0 3.16 1.42 3.16 3.16 0 1.75-1.41 3.16-3.16 3.16-1.74 0-3.16-1.41-3.16-3.16 0-1.74 1.42-3.16 3.16-3.16z"/><path fill="#2B2A29" fill-rule="nonzero" d="M17.68 56.17h-.37l-.01-.15-.01-.15-.02-.15-.02-.15-.04-.14-.04-.14-.04-.14-.06-.13-.06-.14-.06-.12-.07-.13-.08-.12-.09-.12-.08-.11-.1-.11-.1-.1-.1-.1-.11-.09-.11-.09-.12-.08-.11-.08-.13-.07-.13-.07-.13-.05-.13-.06-.14-.04-.14-.04-.15-.04-.14-.02-.15-.02-.15-.01-.16-.01v-.38l.18.01.17.01.16.02.17.03.16.04.16.04.16.06.15.06.15.06.14.08.14.08.14.09.13.09.13.1.12.1.11.11.11.12.11.12.1.13.09.13.09.13.08.15.07.14.07.15.06.15.05.16.05.16.04.16.02.16.03.17.01.17v.17zm-3.35 3.35v-.38h.16l.15-.01.15-.02.14-.03.15-.03.14-.04.14-.05.13-.05.13-.06.13-.07.13-.07.11-.07.12-.09.11-.08.11-.1.1-.1.1-.1.1-.11.08-.11.09-.12.08-.12.07-.12.06-.13.06-.13.06-.14.04-.13.04-.15.04-.14.02-.15.02-.14.01-.15.01-.16h.37v.17l-.01.17-.03.17-.02.17-.04.16-.05.16-.05.15-.06.16-.07.14-.07.15-.08.14-.09.13-.09.14-.1.12-.11.12-.11.12-.11.11-.12.11-.13.1-.13.09-.14.09-.14.08-.14.07-.15.07-.15.06-.16.05-.16.05-.16.03-.17.03-.16.02-.17.02h-.18zm-3.35-3.35h.38l.01.16.01.15.02.14.02.15.04.14.04.15.04.13.06.14.06.13.06.13.07.12.08.12.08.12.09.11.09.11.1.1.11.1.11.1.11.08.11.09.12.07.13.07.13.07.13.06.13.05.14.05.14.04.15.03.14.03.15.02.15.01h.15v.38h-.17l-.17-.02-.16-.02-.17-.03-.16-.03-.16-.05-.16-.05-.15-.06-.15-.07-.14-.07-.14-.08-.14-.09-.13-.09-.13-.1-.12-.11-.11-.11-.11-.12-.11-.12-.1-.12-.09-.14-.09-.13-.08-.14-.08-.15-.06-.14-.06-.16-.06-.15-.04-.16-.04-.16-.03-.17-.02-.17-.01-.17-.01-.17zm3.35-3.35v.38l-.15.01-.15.01-.15.02-.14.02-.15.04-.14.04-.14.04-.13.06-.13.05-.13.07-.13.07-.12.08-.11.08-.11.09-.11.09-.11.1-.1.1-.09.11-.09.11-.08.12-.08.12-.07.13-.06.12-.06.14-.06.13-.04.14-.04.14-.04.14-.02.15-.02.15-.01.15-.01.15h-.38l.01-.17.01-.17.02-.17.03-.16.04-.16.04-.16.06-.16.06-.15.06-.15.08-.14.08-.15.09-.13.09-.13.1-.13.11-.12.11-.12.11-.11.12-.1.13-.1.13-.09.14-.09.14-.08.14-.08.15-.06.15-.06.16-.06.16-.04.16-.04.17-.03.16-.02.17-.01.17-.01z"/><path fill="#99CFBA" d="M2.63 64.47h40.26c1.35 0 2.44 1.1 2.44 2.45v7.57c0 1.35-1.09 2.45-2.44 2.45H2.63c-1.34 0-2.44-1.1-2.44-2.45v-7.57c0-1.35 1.1-2.45 2.44-2.45z"/><path fill="#2B2A29" fill-rule="nonzero" d="M42.89 64.66H2.63v-.37h40.26v.37zm2.63 2.26h-.37l-.01-.12-.01-.11-.01-.11-.02-.11-.03-.11-.03-.11-.03-.1-.04-.1-.05-.11-.05-.09-.05-.1-.06-.09-.06-.09-.07-.08-.07-.08-.08-.08-.08-.08-.08-.07-.08-.07-.09-.06-.09-.06-.1-.05-.09-.05-.1-.05-.11-.04-.1-.03-.11-.04-.11-.02-.11-.02-.11-.01-.11-.01-.12-.01v-.37h.13l.14.01.13.02.13.02.13.03.12.03.12.05.12.04.12.06.11.05.11.07.11.07.1.07.1.08.1.08.09.09.09.09.08.1.08.09.07.11.07.11.06.11.06.11.05.12.05.12.04.12.04.12.03.13.02.13.02.13.01.13v.14zm-.37 7.57v-7.57h.37v7.57h-.37zm-2.26 2.64v-.38h.12l.11-.01.11-.02.11-.02.11-.02.11-.03.1-.04.11-.04.1-.04.09-.05.1-.06.09-.06.09-.06.08-.07.08-.07.08-.07.08-.08.07-.08.07-.09.06-.09.06-.09.05-.09.05-.1.05-.1.04-.1.03-.11.03-.11.03-.1.02-.11.01-.12.01-.11.01-.12h.37v.14l-.01.13-.02.13-.02.13-.03.13-.04.12-.04.13-.05.12-.05.11-.06.12-.06.11-.07.11-.07.1-.08.1-.08.09-.09.09-.09.09-.1.08-.1.08-.1.08-.11.07-.11.06-.11.06-.12.05-.12.05-.12.04-.12.03-.13.03-.13.03-.13.01-.14.01-.13.01zm-40.26-.38h40.26v.38H2.63v-.38zM0 74.49h.38v.12l.01.11.01.12.02.11.03.1.03.11.03.11.04.1.05.1.05.1.05.09.06.09.06.09.07.09.07.08.08.08.08.07.08.07.08.07.09.06.09.06.1.06.1.05.1.04.1.04.1.04.11.03.11.02.11.02.11.02.12.01h.11v.38l-.13-.01-.14-.01-.13-.01-.13-.03-.12-.03-.13-.03-.12-.04-.12-.05-.12-.05-.11-.06-.11-.06-.11-.07-.1-.08-.1-.08-.1-.08-.09-.09-.08-.09-.09-.09-.07-.1-.08-.1-.07-.11-.06-.11-.06-.12-.05-.11-.05-.12-.04-.13-.04-.12-.03-.13-.02-.13-.02-.13-.01-.13v-.14zm.38-7.57v7.57H0v-7.57h.38zm2.25-2.63v.37l-.11.01-.12.01-.11.01-.11.02-.11.02-.11.04-.1.03-.1.04-.1.05-.1.05-.1.05-.09.06-.09.06-.08.07-.08.07-.08.08-.08.08-.07.08-.07.08-.06.09-.06.09-.05.1-.05.09-.05.11-.04.1-.03.1-.03.11-.03.11-.02.11-.01.11-.01.11v.12H0v-.14l.01-.13.02-.13.02-.13.03-.13.04-.12.04-.12.05-.12.05-.12.06-.11.06-.11.07-.11.08-.11.07-.09.09-.1.08-.09.09-.09.1-.08.1-.08.1-.07.11-.07.11-.07.11-.05.12-.06.12-.04.12-.05.13-.03.12-.03.13-.02.13-.02.14-.01h.13zM19.4 35.13c-.43-.05-.75-.44-.7-.87.05-.43.44-.75.87-.7 1.46.17 2.75.72 3.66 1.67.84.89 1.34 2.09 1.33 3.62-.01.43-.36.78-.8.78-.43 0-.78-.36-.77-.79.01-1.09-.33-1.93-.9-2.52-.64-.68-1.59-1.07-2.69-1.19z"/><path fill="#2B2A29" fill-rule="nonzero" d="M19.57 31.03c-.43-.05-.74-.44-.69-.87.04-.43.43-.74.86-.7 2.44.28 4.59 1.19 6.09 2.77 1.38 1.44 2.2 3.43 2.18 5.96-.01.43-.36.78-.8.78-.43 0-.78-.36-.78-.79.02-2.09-.63-3.71-1.74-4.87-1.23-1.29-3.04-2.05-5.12-2.28z"/><path fill="#2B2A29" fill-rule="nonzero" d="M19.41 27.1c-.43-.04-.74-.43-.7-.87.05-.43.44-.74.87-.69 3.6.41 6.77 1.75 8.98 4.06 2.01 2.12 3.21 5.03 3.17 8.75 0 .43-.35.78-.79.78-.43-.01-.78-.36-.78-.79.03-3.28-1-5.82-2.74-7.65-1.94-2.03-4.77-3.22-8.01-3.59z"/><path fill="#99CFBA" d="M75.94 1.45c2.24 0 4.06 1.83 4.06 4.06v8.74c-3.05.1-5.87 1.2-8.12 2.99V5.51c0-2.23 1.83-4.06 4.06-4.06z"/><path fill="#2B2A29" fill-rule="nonzero" d="M75.94 1.45v-.19.19zm4.25 4.06h-.37l-.01-.2-.01-.19-.03-.2-.03-.19-.05-.18-.05-.19-.06-.18-.07-.17-.08-.17-.08-.17-.1-.16-.1-.16-.11-.15-.11-.15-.12-.14-.13-.13-.14-.13-.14-.13-.15-.11-.15-.11-.15-.1-.17-.09-.16-.09-.17-.08-.18-.07-.18-.06-.18-.05-.19-.04-.19-.04-.19-.02-.2-.02h-.2v-.38h.22l.21.02.22.03.21.03.2.05.2.06.2.07.19.07.19.09.19.09.17.11.18.11.16.12.16.12.16.14.15.14.14.14.13.16.13.16.12.17.11.17.1.18.09.18.09.19.07.19.07.2.06.2.05.21.03.2.03.22.02.21v.22zm-.37 8.74V5.51h.37v8.74l-.18.19-.19-.19zm.37 0v.18l-.18.01.18-.19zm-8.5 2.99h.38l-.31-.15.22-.17.22-.16.22-.16.22-.16.23-.15.23-.14.24-.15.23-.13.24-.14.25-.13.24-.12.25-.12.25-.11.26-.11.25-.11.26-.1.26-.09.27-.09.26-.09.27-.08.27-.07.27-.07.28-.06.27-.06.28-.05.28-.05.29-.04.28-.04.28-.03.29-.02.29-.02.29-.01.01.38-.28.01-.28.02-.28.02-.28.03-.27.03-.28.04-.27.05-.27.05-.27.06-.27.06-.26.06-.26.08-.27.08-.25.08-.26.08-.25.1-.26.09-.25.11-.24.1-.25.11-.24.12-.24.12-.23.13-.24.12-.23.14-.23.14-.22.14-.22.15-.23.15-.21.15-.21.16-.21.17-.31-.15zm.31.15l-.31.24v-.39l.31.15zm.07-11.88v11.73h-.38V5.51h.38zm3.87-4.25v.38h-.2l-.19.02-.2.02-.19.04-.18.04-.19.05-.18.06-.17.07-.17.08-.17.09-.16.09-.16.1-.15.11-.15.11-.14.13-.13.13-.13.13-.13.14-.11.15-.11.15-.1.16-.09.16-.09.17-.08.17-.07.17-.06.18-.05.19-.04.18-.04.19-.02.2-.02.19v.2h-.38v-.22l.02-.21.03-.22.04-.2.04-.21.06-.2.07-.2.07-.19.09-.19.1-.18.1-.18.11-.17.12-.17.12-.16.14-.16.14-.14.15-.14.15-.14.16-.12.17-.12.17-.11.18-.11.18-.09.19-.09.19-.07.2-.07.2-.06.21-.05.21-.03.21-.03.21-.02h.22z"/><path fill="#F08BB2" d="M80.46 14.24H92.2c7.61 0 13.84 6.23 13.84 13.84v35.07c0 7.61-6.23 10.53-13.84 10.53H80.46c-7.62 0-13.85-2.92-13.85-10.53V28.08c0-7.61 6.23-13.84 13.85-13.84z"/><path fill="#2B2A29" fill-rule="nonzero" d="M92.2 14.43H80.46v-.38H92.2v.38zm14.03 13.65h-.38l-.02-.7-.05-.69-.09-.68-.12-.67-.15-.66-.18-.64-.22-.64-.25-.62-.27-.6-.3-.59-.33-.57-.36-.56-.38-.53-.41-.52-.43-.5-.45-.47-.48-.45-.49-.43-.52-.41-.53-.38-.56-.36-.57-.33-.59-.3-.6-.27-.62-.25-.64-.22-.64-.18-.66-.15-.67-.12-.68-.09-.69-.05-.7-.02v-.38l.71.02.72.05.7.09.68.13.68.15.67.19.65.22.63.26.63.28.6.31.59.34.57.37.55.39.53.41.51.45.49.46.46.49.44.51.42.53.39.55.37.57.34.59.31.6.28.63.25.63.22.65.2.67.15.67.13.69.09.7.05.72.02.71zm-.38 35.07V28.08h.38v35.07h-.38zM92.2 73.87v-.38l.7-.01.7-.02.68-.05.68-.06.66-.08.65-.09.64-.12.62-.14.6-.15.59-.18.58-.19.55-.22.53-.23.52-.26.49-.28.48-.3.45-.32.43-.34.4-.36.38-.39.35-.41.33-.43.3-.46.27-.48.24-.5.22-.54.18-.55.15-.58.12-.61.09-.64.05-.66.02-.69h.38l-.02.71-.05.68-.09.66-.13.63-.16.61-.19.57-.22.56-.25.53-.29.5-.31.48-.34.45-.37.43-.4.4-.42.38-.44.36-.47.33-.49.31-.51.29-.53.26-.56.24-.57.22-.58.2-.61.18-.62.16-.63.14-.65.12-.66.1-.67.08-.69.06-.7.05-.7.02-.71.01zm-11.74-.38H92.2v.38H80.46v-.38zM66.42 63.15h.38l.02.69.05.66.09.64.12.61.15.58.18.55.22.54.24.5.27.48.3.46.33.43.35.41.38.39.41.36.42.34.45.32.48.3.49.28.52.26.53.23.56.22.57.19.59.18.6.15.63.14.63.12.65.09.66.08.68.06.69.05.69.02.71.01v.38l-.72-.01-.7-.02-.7-.05-.68-.06-.68-.08-.66-.1-.65-.12-.63-.14-.62-.16-.61-.18-.58-.2-.57-.22-.55-.24-.54-.26-.51-.29-.49-.31-.46-.33-.45-.36-.42-.38-.39-.4-.37-.43-.35-.45-.31-.48-.28-.5-.26-.53-.22-.56-.19-.57-.16-.61-.12-.63-.09-.66-.06-.68-.02-.71zm.38-35.07v35.07h-.38V28.08h.38zm13.66-14.03v.38l-.7.02-.69.05-.69.09-.67.12-.66.15-.64.18-.64.22-.62.25-.6.27-.59.3-.57.33-.55.36-.54.38-.52.41-.49.43-.48.45-.45.47-.43.5-.41.52-.38.53-.35.56-.34.57-.3.59-.27.6-.25.62-.21.64-.19.64-.15.66-.12.67-.09.68-.05.69-.02.7h-.38l.02-.71.06-.72.09-.7.12-.69.16-.67.19-.67.22-.65.25-.63.28-.63.31-.6.34-.59.37-.57.39-.55.42-.53.44-.51.47-.49.48-.46.51-.45.53-.41.55-.39.57-.37.59-.34.61-.31.62-.28.63-.26.65-.22.67-.19.68-.15.69-.13.7-.09.71-.05.72-.02z"/><path fill="#D8ECE4" d="M78.05 20.86H94.6c4.06 0 7.38 3.32 7.38 7.37v14.3c0 4.06-3.32 7.37-7.38 7.37H78.05c-4.06 0-7.37-3.31-7.37-7.37v-14.3c0-4.05 3.31-7.37 7.37-7.37z"/><path fill="#2B2A29" fill-rule="nonzero" d="M94.6 21.05H78.05v-.38H94.6v.38zm7.57 7.18h-.38l-.01-.37-.03-.36-.05-.36-.06-.35-.08-.35-.1-.34-.11-.33-.13-.33-.14-.31-.16-.31-.18-.3-.18-.29-.2-.29-.22-.27-.23-.26-.23-.25-.25-.24-.26-.22-.27-.22-.29-.2-.29-.19-.3-.17-.31-.16-.32-.14-.32-.13-.34-.12-.34-.09-.34-.08-.36-.07-.35-.04-.37-.03-.37-.01v-.38l.39.01.38.03.38.05.37.07.37.08.36.1.35.12.34.14.34.15.32.17.32.18.3.2.3.21.29.22.27.24.27.25.25.27.23.27.23.29.21.29.2.31.18.32.17.32.15.34.13.34.12.35.11.36.08.36.07.38.05.37.03.39.01.38zm-.38 14.3v-14.3h.38v14.3h-.38zm-7.19 7.56v-.37l.37-.01.37-.03.35-.05.36-.06.34-.08.34-.1.34-.11.32-.13.32-.15.31-.15.3-.18.29-.18.29-.21.27-.21.26-.23.25-.23.23-.25.23-.27.22-.27.2-.28.18-.29.18-.3.16-.31.14-.32.13-.33.11-.33.1-.34.08-.34.06-.36.05-.36.03-.36.01-.37h.38l-.01.39-.03.38-.05.38-.07.37-.08.37-.11.36-.12.35-.13.34-.15.33-.17.33-.18.32-.2.3-.21.3-.23.29-.23.27-.25.26-.27.25-.27.24-.29.23-.3.21-.3.19-.32.19-.32.17-.34.15-.34.13-.35.12-.36.1-.37.09-.37.07-.38.04-.38.03-.39.01zm-16.55-.37H94.6v.37H78.05v-.37zm-7.56-7.19h.37l.01.37.03.36.05.36.06.36.08.34.1.34.11.33.13.33.15.32.15.31.18.3.18.29.21.28.21.27.23.27.23.25.25.23.27.23.27.21.28.21.29.18.3.18.31.15.32.15.33.13.33.11.34.1.34.08.36.06.36.05.36.03.37.01v.37l-.39-.01-.38-.03-.38-.04-.37-.07-.37-.09-.36-.1-.35-.12-.34-.13-.33-.15-.33-.17-.32-.19-.3-.19-.3-.21-.29-.23-.27-.24-.26-.25-.25-.26-.24-.27-.23-.29-.21-.3-.19-.3-.19-.32-.17-.33-.15-.33-.13-.34-.12-.35-.1-.36-.09-.37-.07-.37-.04-.38-.03-.38-.01-.39zm.37-14.3v14.3h-.37v-14.3h.37zm7.19-7.56v.38l-.37.01-.36.03-.36.04-.36.07-.34.08-.34.09-.33.12-.33.13-.32.14-.31.16-.3.17-.29.19-.28.2-.27.22-.27.22-.25.24-.23.25-.23.26-.21.27-.21.29-.18.29-.18.3-.15.31-.15.31-.13.33-.11.33-.1.34-.08.35-.06.35-.05.36-.03.36-.01.37h-.37l.01-.38.03-.39.04-.37.07-.38.09-.36.1-.36.12-.35.13-.34.15-.34.17-.32.19-.32.19-.31.21-.29.23-.29.24-.27.25-.27.26-.25.27-.24.29-.22.3-.21.3-.2.32-.18.33-.17.33-.15.34-.14.35-.12.36-.1.37-.08.37-.07.38-.05.38-.03.39-.01z"/><path fill="#F5B2B6" d="M77.9 54.27c1.74 0 3.16 1.41 3.16 3.16 0 1.75-1.42 3.16-3.16 3.16-1.75 0-3.16-1.41-3.16-3.16 0-1.75 1.41-3.16 3.16-3.16z"/><path fill="#2B2A29" fill-rule="nonzero" d="M81.25 57.43h-.38v-.15l-.02-.15-.02-.15-.02-.15-.04-.14-.03-.14-.05-.14-.05-.14-.06-.13-.07-.13-.07-.12-.08-.12-.08-.12-.09-.11-.09-.11-.1-.1-.1-.1-.11-.09-.11-.09-.12-.08-.12-.08-.13-.07-.12-.07-.13-.06-.14-.05-.14-.05-.14-.04-.14-.03-.15-.03-.15-.02-.15-.01h-.15v-.38h.17l.17.02.17.02.16.03.16.03.17.05.15.05.15.06.15.07.15.08.14.08.13.08.13.1.13.1.12.1.12.11.11.12.1.12.1.13.09.13.09.13.08.14.08.15.06.15.06.15.06.15.04.16.04.17.03.16.02.17.01.17.01.17zm-3.35 3.35v-.38h.15l.15-.01.15-.02.15-.03.14-.03.14-.04.14-.05.14-.05.13-.06.12-.07.13-.07.12-.08.12-.08.11-.09.11-.09.1-.1.1-.1.09-.11.09-.11.08-.12.08-.12.07-.12.07-.13.06-.13.05-.14.05-.14.03-.14.04-.14.02-.15.02-.15.02-.15v-.15h.38l-.01.17-.01.17-.02.17-.03.17-.04.16-.04.16-.06.15-.06.15-.06.15-.08.15-.08.14-.09.13-.09.13-.1.13-.1.12-.11.12-.12.11-.12.1-.13.1-.13.1-.13.08-.14.09-.15.07-.15.07-.15.06-.15.05-.17.04-.16.04-.16.03-.17.02-.17.02h-.17zm-3.35-3.35h.38v.15l.01.15.02.15.03.15.03.14.04.14.05.14.05.14.06.13.07.13.07.12.07.12.09.12.09.11.09.11.1.1.1.1.11.09.11.09.12.08.12.08.12.07.13.07.13.06.14.05.13.05.15.04.14.03.15.03.14.02.15.01h.16v.38h-.17l-.17-.02-.17-.02-.17-.03-.16-.04-.16-.04-.15-.05-.16-.06-.14-.07-.15-.07-.14-.09-.13-.08-.14-.1-.12-.1-.12-.1-.12-.11-.11-.12-.11-.12-.1-.13-.09-.13-.09-.13-.08-.14-.07-.15-.07-.15-.06-.15-.05-.15-.05-.16-.03-.16-.03-.17-.02-.17-.02-.17v-.17zm3.35-3.35v.38h-.16l-.15.01-.14.02-.15.03-.14.03-.15.04-.13.05-.14.05-.13.06-.13.07-.12.07-.12.08-.12.08-.11.09-.11.09-.1.1-.1.1-.09.11-.09.11-.09.12-.07.12-.07.12-.07.13-.06.13-.05.14-.05.14-.04.14-.03.14-.03.15-.02.15-.01.15v.15h-.38v-.17l.02-.17.02-.17.03-.16.03-.17.05-.16.05-.15.06-.15.07-.15.07-.15.08-.14.09-.13.1-.13.09-.13.11-.12.11-.12.12-.11.12-.1.12-.1.14-.1.13-.08.14-.08.15-.08.14-.07.16-.06.15-.05.16-.05.16-.03.17-.03.17-.02.17-.02h.17z"/><path fill="#99CFBA" d="M66.2 65.73h40.25c1.35 0 2.45 1.1 2.45 2.45v7.57c0 1.35-1.1 2.45-2.45 2.45H66.2c-1.35 0-2.45-1.1-2.45-2.45v-7.57c0-1.35 1.1-2.45 2.45-2.45z"/><path fill="#2B2A29" fill-rule="nonzero" d="M106.45 65.92H66.2v-.38h40.25v.38zm2.64 2.26h-.38v-.12l-.01-.11-.02-.11-.01-.11-.03-.11-.03-.11-.04-.11-.04-.1-.04-.1-.05-.09-.06-.1-.05-.09-.07-.09-.06-.08-.08-.09-.07-.07-.08-.08-.08-.07-.09-.07-.09-.06-.09-.06-.09-.05-.1-.05-.1-.05-.1-.04-.11-.04-.1-.03-.11-.02-.11-.02-.12-.02-.11-.01h-.12v-.38l.14.01.13.01.13.02.13.02.13.03.12.03.13.04.12.05.11.05.12.06.11.07.1.07.11.07.1.08.09.08.09.09.09.09.08.09.08.1.08.11.06.1.07.11.06.12.05.11.05.12.04.13.03.12.03.13.03.13.01.13.01.13.01.14zm-.38 7.57v-7.57h.38v7.57h-.38zm-2.26 2.64v-.38l.12-.01h.11l.12-.02.11-.02.11-.02.1-.04.11-.03.1-.04.1-.05.1-.05.09-.05.09-.06.09-.06.09-.07.08-.07.08-.08.07-.07.08-.09.06-.08.07-.09.05-.09.06-.1.05-.09.04-.1.04-.11.04-.1.03-.11.03-.11.01-.11.02-.11.01-.11v-.12h.38l-.01.14-.01.13-.01.13-.03.13-.03.13-.03.12-.04.13-.05.12-.05.11-.06.12-.07.11-.06.1-.08.11-.08.1-.08.09-.09.09-.09.09-.09.08-.1.08-.11.07-.1.07-.11.07-.12.06-.11.05-.12.05-.13.04-.12.03-.13.03-.13.02-.13.02-.13.01-.14.01zm-40.25-.38h40.25v.38H66.2v-.38zm-2.64-2.26h.38v.12l.01.11.02.11.02.11.02.11.03.11.04.1.04.11.04.1.05.09.06.1.06.09.06.09.07.08.07.09.07.07.08.08.08.07.09.07.09.06.09.06.09.05.1.05.1.05.1.04.11.03.11.04.1.02.11.02.12.02h.11l.12.01v.38l-.14-.01-.13-.01-.13-.02-.13-.02-.13-.03-.12-.03-.13-.04-.12-.05-.11-.05-.11-.06-.12-.07-.1-.07-.11-.07-.1-.08-.09-.08-.09-.09-.09-.09-.08-.09-.08-.1-.07-.11-.07-.1-.07-.11-.06-.12-.05-.11-.05-.12-.04-.13-.03-.12-.03-.13-.03-.13-.01-.13-.01-.13-.01-.14zm.38-7.57v7.57h-.38v-7.57h.38zm2.26-2.64v.38h-.12l-.11.01-.12.02-.11.02-.1.02-.11.03-.11.04-.1.04-.1.05-.1.05-.09.05-.09.06-.09.06-.09.07-.08.07-.08.08-.07.07-.07.09-.07.08-.06.09-.06.09-.06.1-.05.09-.04.1-.04.1-.04.11-.03.11-.02.11-.02.11-.02.11-.01.11v.12h-.38l.01-.14.01-.13.01-.13.03-.13.03-.13.03-.12.04-.13.05-.12.05-.11.06-.12.07-.11.07-.1.07-.11.08-.1.08-.09.09-.09.09-.09.09-.08.1-.08.11-.07.1-.07.12-.07.11-.06.11-.05.12-.05.13-.04.12-.03.13-.03.13-.02.13-.02.13-.01.14-.01zM95.69 35.38h-.37l-.02-.44-.03-.44-.06-.43-.08-.43-.1-.41-.12-.41-.14-.4-.16-.39-.18-.39-.2-.37-.21-.36-.24-.35-.25-.34-.26-.33-.29-.31-.3-.3-.31-.29-.32-.27-.34-.25-.35-.24-.37-.23-.38-.21-.38-.19-.4-.17-.41-.15-.42-.14-.43-.12-.43-.1-.44-.07-.45-.06-.46-.03-.46-.01v-.38l.48.01.47.04.47.06.46.07.46.1.44.13.43.14.43.16.42.18.4.2.39.21.38.24.37.25.35.27.34.28.33.3.31.31.29.33.28.34.26.35.25.37.22.37.21.39.19.4.17.41.14.42.13.43.1.44.08.44.07.45.03.46.01.46zm-9.36 9.02v-.38l.46-.01.46-.04.45-.05.44-.08.43-.1.43-.11.42-.14.41-.15.4-.18.38-.19.38-.2.37-.23.35-.24.34-.26.32-.27.31-.28.3-.3.29-.32.26-.32.25-.34.24-.35.21-.36.2-.38.18-.38.16-.39.14-.4.12-.41.1-.42.08-.42.06-.43.03-.44.02-.45h.37l-.01.47-.03.46-.07.45-.08.44-.1.44-.13.43-.14.41-.17.41-.19.4-.21.39-.22.38-.25.37-.26.35-.28.34-.29.33-.31.31-.33.3-.34.28-.35.27-.37.25-.38.23-.39.22-.4.2-.42.18-.43.16-.43.14-.44.12-.46.1-.46.08-.47.06-.47.03-.48.02zm-9.37-9.02h.37l.02.45.03.44.06.43.08.42.1.42.12.41.14.4.16.39.18.38.2.38.22.36.23.35.25.34.26.32.29.32.3.3.31.28.32.27.34.26.36.24.36.23.38.2.39.19.39.18.41.15.42.14.43.11.43.1.44.08.46.05.45.04.47.01v.38l-.49-.02-.47-.03-.47-.06-.46-.08-.45-.1-.45-.12-.43-.14-.43-.16-.41-.18-.41-.2-.39-.22-.38-.23-.37-.25-.35-.27-.34-.28-.33-.3-.31-.31-.29-.33-.28-.34-.26-.35-.25-.37-.22-.38-.21-.39-.19-.4-.16-.41-.15-.41-.13-.43-.1-.44-.08-.44-.06-.45-.04-.46-.01-.47zm9.37-9.01v.38l-.47.01-.45.03-.46.06-.44.07-.43.1-.43.12-.42.14-.41.15-.39.17-.39.19-.38.21-.36.23-.36.24-.34.25-.32.27-.31.29-.3.3-.29.31-.26.33-.25.34-.23.35-.22.36-.2.37-.18.39-.16.39-.14.4-.12.41-.1.41-.08.43-.06.43-.03.44-.02.44h-.37l.01-.46.04-.46.06-.45.08-.44.1-.44.13-.43.15-.42.16-.41.19-.4.21-.39.22-.37.25-.37.26-.35.28-.34.29-.33.31-.31.33-.3.34-.28.35-.27.37-.25.38-.24.39-.21.41-.2.41-.18.43-.16.43-.14.45-.13.45-.1.46-.07.47-.06.47-.04.49-.01z"/><path fill="#2B2A29" fill-rule="nonzero" d="M78.05 32l-.34-.15.16.26h-.02.01-.04.02-.05.02H77.75h.02H77.71v-.38h.09-.02H77.85h-.02.04-.02.04l.01.01-.01-.01.16.27zm-.16-.27l.27.02-.11.25-.16-.27zm-.56 3.65h-.37v-.35l.01-.11.01-.12v-.12l.01-.11.02-.12.01-.11.01-.11.02-.12.02-.11.02-.12.02-.11.02-.11.02-.11.02-.11.03-.11.03-.11.03-.11.03-.11.03-.11.03-.1.04-.11.03-.11.04-.1.04-.11.04-.1.04-.1.04-.11.04-.1.05-.1.34.15-.04.1-.04.1-.04.09-.04.1-.04.1-.03.1-.04.11-.03.1-.04.1-.03.1-.03.11-.03.1-.03.11-.02.1-.02.1-.03.11-.02.11-.02.1-.02.11-.02.11-.02.11-.01.11-.02.1-.01.11-.01.11-.01.12-.01.11v.1l-.01.12v.22l-.01.11zm-.11 1.57l.07-.38-.22.22-.01-.04v-.05l-.01-.04-.01-.04v-.05l-.01-.04v-.04l-.01-.05v-.04l-.01-.05v-.04l-.01-.04v-.05l-.01-.04v-.09l-.01-.04v-.09l-.01-.04v-.13l-.01-.05v-.36h.37v.09l.01.04v.26l.01.04v.13l.01.04v.08l.01.05v.08l.01.04v.04l.01.04v.04l.01.05v.04l.01.04v.04l.01.04v.04l.01.05.01.04v.04l-.22.22zm.22-.22l.05.26-.27-.04.22-.22zm-2.46-2.37h.38v.1l.01.1.01.1.02.1.02.1.02.09.03.1.04.09.03.09.05.09.04.09.05.08.05.08.06.08.06.08.06.08.07.07.07.07.07.06.08.07.07.06.09.06.08.05.08.05.09.05.09.04.1.04.09.04.1.03.1.03.1.02.1.02-.07.38-.11-.03-.12-.03-.11-.03-.12-.04-.11-.04-.1-.05-.11-.05-.1-.05-.1-.06-.1-.06-.09-.07-.09-.07-.09-.07-.08-.08-.08-.08-.08-.09-.08-.08-.07-.09-.06-.1-.06-.09-.06-.1-.05-.1-.05-.11-.05-.1-.04-.11-.03-.11-.03-.12-.02-.11-.02-.12-.02-.11v-.12l-.01-.12zm2.73-2.63v.38h-.12l-.12.01-.12.01-.11.02-.12.03-.11.03-.11.03-.11.05-.1.04-.1.05-.1.05-.1.06-.09.07-.09.06-.08.07-.08.08-.08.08-.07.08-.08.08-.06.09-.06.09-.06.1-.05.09-.05.1-.04.1-.03.11-.04.11-.02.1-.02.11-.02.12-.01.11v.12h-.38l.01-.14.01-.13.01-.13.03-.13.03-.13.04-.13.04-.12.05-.12.05-.11.06-.12.07-.11.07-.11.08-.1.08-.1.08-.09.1-.09.09-.09.1-.08.1-.08.11-.07.11-.07.11-.07.12-.05.12-.06.13-.04.12-.04.13-.04.13-.03.14-.02.13-.02.14-.01h.14zM97.51 34.42h-.38v-.11l-.01-.12-.01-.11-.03-.11-.02-.11-.03-.1-.04-.11-.04-.1-.05-.1-.05-.09-.05-.1-.06-.09-.07-.09-.07-.08-.07-.08-.08-.08-.08-.08-.09-.07-.08-.06-.09-.07-.1-.06-.1-.05-.1-.05-.1-.05-.11-.04-.11-.03-.11-.03-.11-.03-.12-.02-.11-.01-.12-.01-.12-.01v-.38l.14.01.14.01.13.02.13.02.13.03.13.04.13.04.12.04.12.06.12.05.11.07.11.07.11.07.1.08.1.08.09.09.09.09.09.09.08.1.08.11.07.1.06.11.06.11.06.12.05.12.04.12.03.13.03.12.03.13.02.14.01.13v.13zm-2.31 2.34l.37.06-.23-.21.1-.03.09-.02.1-.04.09-.03.09-.04.08-.04.09-.05.08-.05.08-.05.08-.05.07-.06.07-.06.07-.07.07-.06.06-.07.06-.07.06-.07.06-.08.05-.08.05-.08.04-.08.05-.08.03-.09.04-.09.03-.08.03-.09.02-.1.02-.09.01-.1.01-.09.01-.1v-.1h.38v.12l-.01.11-.01.12-.02.11-.02.11-.03.11-.03.1-.04.11-.04.1-.04.1-.05.1-.05.09-.06.1-.06.09-.07.08-.06.09-.08.08-.07.08-.08.08-.08.07-.08.07-.09.07-.09.06-.09.06-.1.06-.09.05-.1.05-.11.05-.1.04-.11.04-.11.03-.11.03-.23-.22zm.23.22l-.27.06.04-.28.23.22zm-.11-1.6h.37v.37l-.01.04v.14l-.01.05v.09l-.01.04v.05l-.01.04v.09l-.01.05v.04l-.01.04v.05l-.01.04v.05l-.01.05-.01.04v.04l-.01.05-.01.04-.01.04-.37-.06.01-.04.01-.05v-.03l.01-.04v-.05l.01-.04v-.04l.01-.05.01-.04v-.04l.01-.05v-.08l.01-.04v-.05l.01-.04v-.09l.01-.04v-.13l.01-.04v-.27l.01-.04v-.09zm-.52-3.59v.38l.17-.26.04.1.05.1.04.1.04.1.03.11.04.1.04.11.03.1.03.1.04.11.03.11.02.1.03.11.03.11.02.11.03.1.02.11.02.11.02.11.02.12.01.1.02.12.01.11.02.11.01.11.01.12.01.11v.11l.01.12V35.38h-.37l-.01-.11v-.22l-.01-.11v-.11l-.01-.1-.01-.11-.01-.11-.01-.11-.02-.11-.01-.1-.02-.11-.01-.1-.02-.11-.02-.1-.02-.11-.03-.1-.02-.1-.03-.11-.02-.1-.03-.1-.03-.1-.03-.1-.03-.11-.03-.1-.04-.1-.03-.09-.04-.1-.04-.1-.04-.1-.03-.09-.05-.1.18-.27zm-.18.27l-.11-.27h.29l-.18.27zM87.91 35.38h-.37v-.02l-.01-.02v-.03l-.01-.02-.01-.03-.01-.02-.01-.03-.02-.02-.02-.03-.02-.02-.02-.02-.03-.03-.02-.02-.03-.03-.04-.02-.03-.02-.04-.02-.04-.02-.04-.02-.05-.02-.04-.02-.05-.02-.05-.01-.04-.02-.06-.01-.05-.01-.05-.01-.06-.01h-.06l-.05-.01h-.12v-.38h.14l.07.01.06.01.07.01.07.01.06.01.07.02.06.01.06.02.06.02.06.03.05.02.06.03.05.03.05.02.05.04.05.03.04.03.05.04.03.04.04.04.04.04.03.05.03.04.03.05.02.05.02.05.01.05.01.05.01.06v.05zm-1.45.97v-.38h.06l.06-.01h.05l.06-.01h.05l.06-.01.05-.02.06-.01.04-.01.05-.02.05-.01.04-.02.05-.02.04-.02.04-.02.04-.02.03-.03.04-.02.02-.02.03-.02.03-.03.02-.02.02-.03.02-.02.02-.03.01-.02.01-.03.01-.02.01-.03v-.02l.01-.02v-.03h.37v.06l-.01.05-.01.06-.01.05-.02.05-.03.05-.02.05-.03.04-.03.04-.04.05-.04.04-.03.04-.05.03-.04.04-.05.03-.05.03-.05.03-.05.03-.06.03-.05.02-.06.02-.06.02-.06.02-.06.02-.07.01-.06.02-.06.01-.07.01-.07.01h-.14l-.07.01zM85 35.38h.38v.07l.01.03.01.02.01.03.01.02.02.03.02.02.02.03.02.02.03.03.03.02.03.02.03.03.04.02.03.02.04.02.04.02.05.02.04.02.05.01.05.02.05.01.05.01.05.02.06.01h.05l.06.01h.06l.06.01h.06v.38l-.07-.01h-.14l-.07-.01-.07-.01-.07-.01-.06-.02-.06-.01-.07-.02-.06-.02-.06-.02-.05-.02-.06-.02-.05-.03-.06-.03-.05-.03-.05-.03-.04-.03-.05-.04-.04-.03-.04-.04-.04-.04-.04-.04-.03-.05-.03-.04-.02-.05-.03-.05-.02-.05-.01-.05-.01-.06-.01-.05v-.06zm1.46-.96v.38h-.12l-.06.01h-.06l-.05.01-.05.01-.06.01-.05.01-.05.02-.05.01-.05.02-.04.02-.05.02-.04.02-.04.02-.03.02-.04.02-.03.02-.03.03-.03.02-.02.02-.03.03-.02.03-.02.02-.02.02-.01.03-.01.02-.01.03-.01.02v.07H85v-.05l.01-.06.01-.05.01-.05.02-.05.03-.05.02-.05.03-.04.04-.05.03-.04.04-.04.04-.04.04-.04.05-.03.04-.03.05-.04.05-.02.06-.03.05-.03.06-.02.06-.03.05-.02.06-.02.07-.01.06-.02.06-.01.07-.01.07-.01.07-.01.07-.01h.14z"/><circle cx="83.73" cy="32.37" r=".93" fill="#2B2A29"/><circle cx="88.96" cy="32.31" r=".93" fill="#2B2A29"/><path fill="#2B2A29" fill-rule="nonzero" d="M89.27 37.84c.12-.1.31-.09.41.03.1.12.09.31-.03.41-1.03.87-2.19 1.39-3.38 1.4-1.08.01-2.17-.41-3.17-1.36-.12-.11-.12-.3-.01-.41.11-.12.29-.12.41-.01.88.84 1.83 1.2 2.77 1.19 1.04 0 2.08-.47 3-1.25z"/></svg>