<svg xmlns="http://www.w3.org/2000/svg" width="58" height="71" fill-rule="evenodd" clip-rule="evenodd" image-rendering="optimizeQuality" shape-rendering="geometricPrecision" text-rendering="geometricPrecision" viewBox="0 0 16.46 20.12"><path fill="#F08BB2" d="M3.06 17.26c1.84-1.93 3.27-4.74 4.13-7.87.74.1 1.18.16 1.91-.06 1.07 2.74 2.07 5.41 4.56 7.6-3.52 1.91-6.19 2.49-10.6.33z"/><path fill="none" fill-rule="nonzero" stroke="#2B2A29" stroke-miterlimit="22.9256" stroke-width=".25" d="M3.06 17.26c1.84-1.93 3.27-4.74 4.13-7.87.74.1 1.18.16 1.91-.06 1.07 2.74 2.07 5.41 4.56 7.6-3.52 1.91-6.19 2.49-10.6.33z"/><path fill="#F6D0D1" d="M8.03 3.07c1.91 0 3.46 1.44 3.46 3.21S9.94 9.49 8.03 9.49 4.57 8.05 4.57 6.28s1.55-3.21 3.46-3.21z"/><path fill="none" fill-rule="nonzero" stroke="#2B2A29" stroke-miterlimit="22.9256" stroke-width=".25" d="M8.03 3.07c1.91 0 3.46 1.44 3.46 3.21S9.94 9.49 8.03 9.49 4.57 8.05 4.57 6.28s1.55-3.21 3.46-3.21z"/><path fill="#C5E3D7" d="M4.78 9.14c.35-3.51 1.5-5.45 2.66-6.82C4.03 2 4.09 7.01 1.83 8.03c.69.88 1.97 1.27 2.95 1.11z"/><path fill="none" fill-rule="nonzero" stroke="#2B2A29" stroke-miterlimit="22.9256" stroke-width=".25" d="M4.78 9.14c.35-3.51 1.5-5.45 2.66-6.82C4.03 2 4.09 7.01 1.83 8.03c.69.88 1.97 1.27 2.95 1.11z"/><path fill="#C5E3D7" d="M11.04 8.96c-.34-3.51-1.43-5.4-2.58-6.77 3.4-.32 3.28 4.64 5.54 5.66-.7.88-1.98 1.27-2.96 1.11z"/><path fill="none" fill-rule="nonzero" stroke="#2B2A29" stroke-miterlimit="22.9256" stroke-width=".25" d="M11.04 8.96c-.34-3.51-1.43-5.4-2.58-6.77 3.4-.32 3.28 4.64 5.54 5.66-.7.88-1.98 1.27-2.96 1.11z"/><path fill="#99CFBA" d="M13.48 8.67c-.31.24-.71.35-1.16.39-1.22-4.65-2.36-5.63-3.34-6.95 2.1 1.43 3.26 5.57 4.5 6.56z"/><path fill="none" fill-rule="nonzero" stroke="#2B2A29" stroke-miterlimit="22.9256" stroke-width=".25" d="M13.48 8.67c-.31.24-.71.35-1.16.39-1.22-4.65-2.36-5.63-3.34-6.95 2.1 1.43 3.26 5.57 4.5 6.56z"/><path fill="#99CFBA" d="M2.05 19.8c.25-.25.5-.51.75-.76.27.14.39.35.41.55.04.36-.12.51-.47.52-.21.01-.47-.06-.69-.31z"/><path fill="none" fill-rule="nonzero" stroke="#2B2A29" stroke-miterlimit="22.9256" stroke-width=".25" d="M2.05 19.8c.25-.25.5-.51.75-.76.27.14.39.35.41.55.04.36-.12.51-.47.52-.21.01-.47-.06-.69-.31z"/><path fill="#F6D0D1" d="M3.81 17.75c-.23.41-.5.81-.86 1.16.25.19.43.42.51.72.47-.46.86-.97 1.2-1.51-.19-.06-.45-.16-.85-.37z"/><path fill="none" fill-rule="nonzero" stroke="#2B2A29" stroke-miterlimit="22.9256" stroke-width=".25" d="M3.81 17.75c-.23.41-.5.81-.86 1.16.25.19.43.42.51.72.47-.46.86-.97 1.2-1.51-.19-.06-.45-.16-.85-.37z"/><path fill="#99CFBA" d="M2.52 8.87c.3.24.71.34 1.15.39C4.9 4.61 6.04 3.63 7.02 2.3c-2.1 1.44-3.26 5.58-4.5 6.57z"/><path fill="none" fill-rule="nonzero" stroke="#2B2A29" stroke-miterlimit="22.9256" stroke-width=".25" d="M2.52 8.87c.3.24.71.34 1.15.39C4.9 4.61 6.04 3.63 7.02 2.3c-2.1 1.44-3.26 5.58-4.5 6.57z"/><path fill="#C5E3D7" d="M5.36 4.4c1.57.38 3.3.37 5.13.11-.25-.7-.63-2.28-2.35-2.47-1.93.03-2.17 1.26-2.78 2.36z"/><path fill="none" fill-rule="nonzero" stroke="#2B2A29" stroke-miterlimit="22.9256" stroke-width=".25" d="M5.36 4.4c1.57.38 3.3.37 5.13.11-.25-.7-.63-2.28-2.35-2.47-1.93.03-2.17 1.26-2.78 2.36z"/><path fill="#99CFBA" d="M7.86 2.05c-.69-.02-1.09 2.01-1.47 2.66.43.1.79.07 1.26.07-.14-.74.09-2.3.21-2.73z"/><path fill="none" fill-rule="nonzero" stroke="#2B2A29" stroke-miterlimit="22.9256" stroke-width=".25" d="M7.86 2.05c-.69-.02-1.09 2.01-1.47 2.66.43.1.79.07 1.26.07-.14-.74.09-2.3.21-2.73z"/><path fill="#F6D0D1" fill-rule="nonzero" d="M4.93 13.1c-.06-.07-.13-.14-.19-.2s-.13-.11-.2-.16c-.19.26-.42.49-.71.68-.22.14-.48.28-.78.39-.24.08-.51.14-.78.15h-.03l-.02-.01c-.18-.11-.36-.19-.51-.26-.05-.02-.09-.04-.14-.06-.09-.04-.15-.04-.19-.01-.02.01-.03.03-.04.05-.01.03-.01.06 0 .1.05.15.22.34.59.5l.19.08-.2.06c-.02.01-.05.02-.09.03-.14.06-.34.17-.49.31-.13.13-.23.28-.17.44v.01c.11.11.24.02.36-.08.08-.06.16-.12.24-.14l.19-.05-.1.16c-.01.02-.03.04-.05.06-.1.13-.35.45-.2.65.08.07.14.05.2-.01.06-.07.12-.18.18-.29.05-.09.1-.19.16-.24l.18-.21-.05.27c-.02.07-.04.14-.07.22-.01.05-.03.09-.05.14-.06.22-.1.46.14.53.11.03.16-.05.19-.17.01-.06.02-.13.03-.19.02-.14.04-.27.09-.37l.07-.12.07.11c.06.1.07.23.09.36.01.04.02.08.02.12.03.14.08.26.26.23.21-.17.19-.74.18-1.3 0-.19-.01-.38 0-.56v-.05l.04-.02c.65-.25 1.13-.68 1.59-1.15z"/><path fill="none" fill-rule="nonzero" stroke="#2B2A29" stroke-miterlimit="22.9256" stroke-width=".25" d="M4.93 13.1c-.06-.07-.13-.14-.19-.2s-.13-.11-.2-.16c-.19.26-.42.49-.71.68-.22.14-.48.28-.78.39-.24.08-.51.14-.78.15h-.03l-.02-.01c-.18-.11-.36-.19-.51-.26-.05-.02-.09-.04-.14-.06-.09-.04-.15-.04-.19-.01-.02.01-.03.03-.04.05-.01.03-.01.06 0 .1.05.15.22.34.59.5l.19.08-.2.06c-.02.01-.05.02-.09.03-.14.06-.34.17-.49.31-.13.13-.23.28-.17.44v.01c.11.11.24.02.36-.08.08-.06.16-.12.24-.14l.19-.05-.1.16c-.01.02-.03.04-.05.06-.1.13-.35.45-.2.65.08.07.14.05.2-.01.06-.07.12-.18.18-.29.05-.09.1-.19.16-.24l.18-.21-.05.27c-.02.07-.04.14-.07.22-.01.05-.03.09-.05.14-.06.22-.1.46.14.53.11.03.16-.05.19-.17.01-.06.02-.13.03-.19.02-.14.04-.27.09-.37l.07-.12.07.11c.06.1.07.23.09.36.01.04.02.08.02.12.03.14.08.26.26.23.21-.17.19-.74.18-1.3 0-.19-.01-.38 0-.56v-.05l.04-.02c.65-.25 1.13-.68 1.59-1.15z"/><path fill="#F6D0D1" fill-rule="nonzero" d="M12.01 12.4c-.04-.05-.08-.09-.12-.14-.07.1-.14.2-.22.29-.09.1-.18.19-.29.27.11.1.23.19.35.27.27.18.56.34.94.51v.01c.54.31.71.89.84 1.37.09.31.17.58.32.67.11.01.15-.04.16-.12.02-.07.01-.18 0-.29 0-.17-.01-.34.06-.46l.06-.11.07.11c.08.15.25.4.44.56.12.09.25.15.37.12.07-.02.08-.05.07-.09-.02-.09-.15-.21-.28-.34-.14-.14-.28-.28-.31-.4l-.05-.27.19.2c0 .01.01.02.02.03.09.09.25.22.41.29.15.07.31.1.43-.01.04-.05 0-.11-.06-.16-.12-.09-.32-.17-.46-.23-.12-.05-.21-.08-.23-.13l-.11-.16.19.05c.03.01.06.02.1.03.23.06.62.17.8-.01.04-.1 0-.15-.06-.17-.1-.04-.26-.05-.41-.05-.13-.01-.25-.01-.33-.04l-.2-.06.19-.08c.34-.15.5-.26.55-.34l.01-.01c-.01-.01-.03-.01-.06-.02-.12-.02-.33.02-.49.12l-.02.02-.02-.01c-.32 0-.73-.07-1.11-.16-.36-.09-.7-.21-.89-.34-.3-.19-.58-.44-.85-.72z"/><path fill="none" fill-rule="nonzero" stroke="#2B2A29" stroke-miterlimit="22.9256" stroke-width=".25" d="M12.01 12.4c-.04-.05-.08-.09-.12-.14-.07.1-.14.2-.22.29-.09.1-.18.19-.29.27.11.1.23.19.35.27.27.18.56.34.94.51h0v.01c.54.31.71.89.84 1.37.09.31.17.58.32.67.11.01.15-.04.16-.12.02-.07.01-.18 0-.29 0-.17-.01-.34.06-.46l.06-.11.07.11c.08.15.25.4.44.56.12.09.25.15.37.12.07-.02.08-.05.07-.09-.02-.09-.15-.21-.28-.34-.14-.14-.28-.28-.31-.4l-.05-.27.19.2c0 .01.01.02.02.03.09.09.25.22.41.29.15.07.31.1.43-.01h0c.04-.05 0-.11-.06-.16-.12-.09-.32-.17-.46-.23-.12-.05-.21-.08-.23-.13l-.11-.16.19.05c.03.01.06.02.1.03.23.06.62.17.8-.01.04-.1 0-.15-.06-.17-.1-.04-.26-.05-.41-.05-.13-.01-.25-.01-.33-.04l-.2-.06.19-.08c.34-.15.5-.26.55-.34l.01-.01c-.01-.01-.03-.01-.06-.02-.12-.02-.33.02-.49.12l-.02.02-.02-.01c-.32 0-.73-.07-1.11-.16-.36-.09-.7-.21-.89-.34-.3-.19-.58-.44-.85-.72z"/><path fill="#FEFEFE" d="M6.99 5.01c.26 0 .43.26.37.59-.05.33-.3.59-.55.59-.26 0-.43-.26-.37-.59.05-.33.3-.59.55-.59z"/><path fill="none" fill-rule="nonzero" stroke="#2B2A29" stroke-miterlimit="22.9256" stroke-width=".25" d="M6.99 5.01c.26 0 .43.26.37.59-.05.33-.3.59-.55.59-.26 0-.43-.26-.37-.59.05-.33.3-.59.55-.59z"/><path fill="#2B2A29" d="M7.02 5.44c.15 0 .24.16.21.34-.03.19-.17.34-.31.34-.15 0-.24-.15-.21-.34.03-.18.17-.34.31-.34z"/><path fill="#2B2A29" fill-rule="nonzero" d="M7.02 5.4h.04c.07.01.13.05.17.11.04.05.06.12.06.21 0 .02 0 .04-.01.07-.01.1-.06.2-.13.27-.06.07-.15.11-.23.11h-.04c-.07-.01-.13-.05-.17-.11-.03-.06-.05-.13-.05-.21v-.07c.02-.11.06-.2.13-.27.06-.07.15-.11.23-.11zm.03.09h-.03c-.05 0-.11.03-.16.09-.05.05-.09.13-.1.21-.01.02-.01.04-.01.06 0 .06.02.12.04.16.03.03.06.06.1.06.01 0 .02.01.03.01.06 0 .12-.04.16-.09.06-.05.09-.13.11-.21v-.06c0-.07-.01-.12-.04-.16-.03-.04-.06-.06-.1-.07z"/><path fill="#F08BB2" fill-rule="nonzero" d="M6.65 10c-.36.53-2.54 1.31-2.56 2.08.13-.02 1.2 1.07 1.33 1.05H5.48c.31-.39.81-2.78 1.17-3.13z"/><path fill="none" fill-rule="nonzero" stroke="#2B2A29" stroke-miterlimit="22.9256" stroke-width=".25" d="M6.65 10c-.36.53-2.54 1.31-2.56 2.08.13-.02 1.2 1.07 1.33 1.05H5.48c.31-.39.81-2.78 1.17-3.13z"/><path fill="#F08BB2" fill-rule="nonzero" d="M9.5 9.87c.42.49 2.67 1.03 2.77 1.79-.13 0-1.07 1.19-1.21 1.19h-.05c-.36-.35-1.11-2.67-1.51-2.98z"/><path fill="none" fill-rule="nonzero" stroke="#2B2A29" stroke-miterlimit="22.9256" stroke-width=".25" d="M9.5 9.87c.42.49 2.67 1.03 2.77 1.79-.13 0-1.07 1.19-1.21 1.19h0-.01 0-.01 0-.01 0-.01 0-.01 0c-.36-.35-1.11-2.67-1.51-2.98z"/><path fill="#2B2A29" fill-rule="nonzero" d="M6.13 7.44c-.02-.05 0-.09.04-.11.05-.02.1 0 .12.04.2.47.57.76.99.92.27.09.55.13.84.12.28-.01.56-.07.8-.18.38-.17.69-.45.82-.81.02-.05.07-.07.11-.05.04.01.07.06.05.11-.15.41-.49.72-.91.9-.27.12-.56.19-.87.2-.3.01-.61-.03-.89-.13-.47-.17-.88-.5-1.1-1.01zM8.16 6.53c.11 0 .21.03.29.08.08.05.13.12.13.2 0 .08-.05.15-.13.2-.08.05-.18.08-.29.08-.11 0-.21-.03-.29-.08-.08-.05-.13-.12-.13-.2 0-.08.05-.15.13-.2.08-.05.18-.08.29-.08zm.23.16c-.05-.04-.14-.06-.23-.06s-.18.02-.24.06c-.05.03-.08.07-.08.12 0 .05.03.09.08.12.06.04.15.06.24.06s.18-.02.23-.06c.06-.03.09-.07.09-.12 0-.05-.03-.09-.09-.12z"/><path fill="#99CFBA" d="M14.57 19.65c-.25-.26-.5-.51-.75-.76-.27.14-.39.35-.41.55-.04.36.12.5.46.52.22.01.48-.06.7-.31z"/><path fill="none" fill-rule="nonzero" stroke="#2B2A29" stroke-miterlimit="22.9256" stroke-width=".25" d="M14.57 19.65c-.25-.26-.5-.51-.75-.76-.27.14-.39.35-.41.55-.04.36.12.5.46.52.22.01.48-.06.7-.31z"/><path fill="#99CFBA" d="M14.74 19.48c-.36-.42-.52-.56-.88-.98.63-.95.63-2.11 1.72-2.09.55.01.86.54.87 1.04.02.8-.49 1.57-1.71 2.03z"/><path fill="none" fill-rule="nonzero" stroke="#2B2A29" stroke-miterlimit="22.9256" stroke-width=".25" d="M14.74 19.48c-.36-.42-.52-.56-.88-.98.63-.95.63-2.11 1.72-2.09.55.01.86.54.87 1.04.02.8-.49 1.57-1.71 2.03z"/><path fill="#F6D0D1" d="M12.81 17.6c.22.41.5.81.85 1.16-.24.19-.42.42-.5.71-.47-.45-.87-.96-1.21-1.5.19-.06.46-.17.86-.37z"/><path fill="none" fill-rule="nonzero" stroke="#2B2A29" stroke-miterlimit="22.9256" stroke-width=".25" d="M12.81 17.6c.22.41.5.81.85 1.16-.24.19-.42.42-.5.71-.47-.45-.87-.96-1.21-1.5.19-.06.46-.17.86-.37z"/><path fill="#FEFEFE" d="M9.05 4.99c-.26 0-.42.26-.37.59.05.33.3.6.56.6.25 0 .42-.27.37-.6-.05-.33-.3-.59-.56-.59z"/><path fill="none" fill-rule="nonzero" stroke="#2B2A29" stroke-miterlimit="22.9256" stroke-width=".25" d="M9.05 4.99c-.26 0-.42.26-.37.59.05.33.3.6.56.6.25 0 .42-.27.37-.6-.05-.33-.3-.59-.56-.59z"/><path fill="#2B2A29" d="M9.02 5.43c-.15 0-.24.15-.21.34.03.18.17.33.32.33.14 0 .24-.15.21-.33-.03-.19-.17-.34-.32-.34z"/><path fill="#2B2A29" fill-rule="nonzero" d="M9.02 5.47c-.01 0-.02 0-.02.01-.05 0-.08.03-.11.06-.02.04-.04.1-.04.16 0 .02 0 .04.01.06.01.08.05.16.1.21.05.05.11.09.17.09h.02c.04-.01.08-.04.1-.07.03-.04.04-.1.04-.16v-.06c-.01-.08-.05-.16-.1-.21-.05-.05-.11-.09-.17-.09zm-.04-.09h.04c.09 0 .17.04.24.11.06.07.11.16.12.27.01.02.01.05.01.07 0 .08-.02.16-.06.21-.04.06-.1.1-.17.11h-.03c-.09 0-.17-.04-.24-.11-.06-.07-.11-.16-.13-.27V5.7c0-.08.02-.16.06-.21.04-.06.09-.1.16-.11z"/><path fill="#99CFBA" d="M1.72 19.58c.36-.42.52-.56.88-.98-.63-.95-.63-2.11-1.72-2.09-.54.01-.86.54-.87 1.04-.02.8.5 1.57 1.71 2.03z"/><path fill="none" fill-rule="nonzero" stroke="#2B2A29" stroke-miterlimit="22.9256" stroke-width=".25" d="M1.72 19.58c.36-.42.52-.56.88-.98-.63-.95-.63-2.11-1.72-2.09-.54.01-.86.54-.87 1.04-.02.8.5 1.57 1.71 2.03z"/><path fill="#99CFBA" d="M8.26 2.03c.69-.02 1.1 2.01 1.48 2.65-.43.11-.17.07-.64.08.14-.74-.46-2.35-.84-2.73z"/><path fill="none" fill-rule="nonzero" stroke="#2B2A29" stroke-miterlimit="22.9256" stroke-width=".25" d="M8.26 2.03c.69-.02 1.1 2.01 1.48 2.65-.43.11-.17.07-.64.08.14-.74-.46-2.35-.84-2.73z"/><path fill="#F5B2B6" d="M5.65.04c.37-.23 1.38.87 2.28 1.74-1.08.53-2.98 1.83-3.19 1.34-.36-.79.37-2.72.91-3.08z"/><path fill="none" fill-rule="nonzero" stroke="#2B2A29" stroke-miterlimit="22.9256" stroke-width=".25" d="M5.65.04c.37-.23 1.38.87 2.28 1.74-1.08.53-2.98 1.83-3.19 1.34-.36-.79.37-2.72.91-3.08z"/><path fill="#F5B2B6" d="M10.41.1c-.37-.23-1.39.85-2.3 1.7 1.07.55 2.94 1.89 3.16 1.4.38-.77-.32-2.72-.86-3.1z"/><path fill="none" fill-rule="nonzero" stroke="#2B2A29" stroke-miterlimit="22.9256" stroke-width=".25" d="M10.41.1c-.37-.23-1.39.85-2.3 1.7 1.07.55 2.94 1.89 3.16 1.4.38-.77-.32-2.72-.86-3.1z"/><path fill="#F5B2B6" d="M7.66 1.13c.28-.12.55-.06.83-.05.09.24.1.6.05 1.1-.08.09-1.07.19-1.1-.04.02-.43.06-.82.22-1.01z"/><path fill="none" fill-rule="nonzero" stroke="#2B2A29" stroke-miterlimit="22.9256" stroke-width=".25" d="M7.66 1.13c.28-.12.55-.06.83-.05.09.24.1.6.05 1.1-.08.09-1.07.19-1.1-.04.02-.43.06-.82.22-1.01z"/><path fill="#F5B2B6" d="M7.61 15.32c.31 0 .56.24.56.55 0 .31-.25.56-.56.56-.3 0-.55-.25-.55-.56 0-.31.25-.55.55-.55z"/><path fill="none" fill-rule="nonzero" stroke="#2B2A29" stroke-miterlimit="22.9256" stroke-width=".25" d="M7.61 15.32c.31 0 .56.24.56.55 0 .31-.25.56-.56.56-.3 0-.55-.25-.55-.56 0-.31.25-.55.55-.55z"/><path fill="#F5B2B6" d="M5.31 16.21c.3 0 .55.25.55.56 0 .3-.25.55-.55.55-.31 0-.56-.25-.56-.55 0-.31.25-.56.56-.56z"/><path fill="none" fill-rule="nonzero" stroke="#2B2A29" stroke-miterlimit="22.9256" stroke-width=".25" d="M5.31 16.21c.3 0 .55.25.55.56 0 .3-.25.55-.55.55-.31 0-.56-.25-.56-.55 0-.31.25-.56.56-.56z"/><path fill="#F5B2B6" d="M6.25 13.48c.3 0 .55.25.55.55 0 .31-.25.56-.55.56-.31 0-.56-.25-.56-.56 0-.3.25-.55.56-.55z"/><path fill="none" fill-rule="nonzero" stroke="#2B2A29" stroke-miterlimit="22.9256" stroke-width=".25" d="M6.25 13.48c.3 0 .55.25.55.55 0 .31-.25.56-.55.56-.31 0-.56-.25-.56-.56 0-.3.25-.55.56-.55z"/><path fill="#F5B2B6" d="M9.15 12.67c.31 0 .56.25.56.55 0 .31-.25.56-.56.56-.31 0-.55-.25-.55-.56 0-.3.24-.55.55-.55z"/><path fill="none" fill-rule="nonzero" stroke="#2B2A29" stroke-miterlimit="22.9256" stroke-width=".25" d="M9.15 12.67c.31 0 .56.25.56.55 0 .31-.25.56-.56.56-.31 0-.55-.25-.55-.56 0-.3.24-.55.55-.55z"/><path fill="#F5B2B6" d="M7.53 11.3c.3 0 .55.25.55.56 0 .3-.25.55-.55.55-.31 0-.56-.25-.56-.55 0-.31.25-.56.56-.56z"/><path fill="none" fill-rule="nonzero" stroke="#2B2A29" stroke-miterlimit="22.9256" stroke-width=".25" d="M7.53 11.3c.3 0 .55.25.55.56 0 .3-.25.55-.55.55-.31 0-.56-.25-.56-.55 0-.31.25-.56.56-.56z"/><path fill="#F5B2B6" d="M8.9 9.85c.3 0 .55.25.55.55 0 .31-.25.56-.55.56-.31 0-.56-.25-.56-.56 0-.3.25-.55.56-.55z"/><path fill="none" fill-rule="nonzero" stroke="#2B2A29" stroke-miterlimit="22.9256" stroke-width=".25" d="M8.9 9.85c.3 0 .55.25.55.55 0 .31-.25.56-.55.56-.31 0-.56-.25-.56-.56 0-.3.25-.55.56-.55z"/><path fill="#F5B2B6" d="M10.13 14.72c.31 0 .56.25.56.55 0 .31-.25.56-.56.56-.3 0-.55-.25-.55-.56 0-.3.25-.55.55-.55z"/><path fill="none" fill-rule="nonzero" stroke="#2B2A29" stroke-miterlimit="22.9256" stroke-width=".25" d="M10.13 14.72c.31 0 .56.25.56.55 0 .31-.25.56-.56.56-.3 0-.55-.25-.55-.56 0-.3.25-.55.55-.55z"/><path fill="#F5B2B6" d="M9.28 16.98c.31 0 .56.25.56.56 0 .3-.25.55-.56.55-.31 0-.56-.25-.56-.55 0-.31.25-.56.56-.56z"/><path fill="none" fill-rule="nonzero" stroke="#2B2A29" stroke-miterlimit="22.9256" stroke-width=".25" d="M9.28 16.98c.31 0 .56.25.56.56 0 .3-.25.55-.56.55-.31 0-.56-.25-.56-.55 0-.31.25-.56.56-.56z"/><path fill="#F5B2B6" d="M12.01 16.13c.31 0 .56.25.56.55 0 .31-.25.56-.56.56-.3 0-.55-.25-.55-.56 0-.3.25-.55.55-.55z"/><path fill="none" fill-rule="nonzero" stroke="#2B2A29" stroke-miterlimit="22.9256" stroke-width=".25" d="M12.01 16.13c.31 0 .56.25.56.55 0 .31-.25.56-.56.56-.3 0-.55-.25-.55-.56 0-.3.25-.55.55-.55z"/><path fill="#F5B2B6" d="M6.95 18c.31 0 .56.25.56.55 0 .02-.01.04-.01.06-.36-.02-.72-.07-1.1-.15.05-.26.28-.46.55-.46z"/><path fill="none" fill-rule="nonzero" stroke="#2B2A29" stroke-miterlimit="22.9256" stroke-width=".25" d="M6.95 18c.31 0 .56.25.56.55 0 .02-.01.04-.01.06-.36-.02-.72-.07-1.1-.15.05-.26.28-.46.55-.46z"/><path fill="#F5B2B6" d="M7.74 9.46c-.03.27-.27.49-.55.49-.05 0-.11-.01-.16-.02.06-.18.11-.36.16-.54.2.03.38.05.55.07z"/><path fill="none" fill-rule="nonzero" stroke="#2B2A29" stroke-miterlimit="22.9256" stroke-width=".25" d="M7.74 9.46c-.03.27-.27.49-.55.49-.05 0-.11-.01-.16-.02.06-.18.11-.36.16-.54.2.03.38.05.55.07z"/></svg>