<svg xmlns="http://www.w3.org/2000/svg" xml:space="preserve" width="118px" height="57px" version="1.1" style="shape-rendering:geometricPrecision; text-rendering:geometricPrecision; image-rendering:optimizeQuality; fill-rule:evenodd; clip-rule:evenodd" viewBox="0 0 210.87 102.07" xmlns:xlink="http://www.w3.org/1999/xlink">
  <path fill="#C4D985" d="M120.84 75.67l87.66 0c0.95,0 1.74,0.78 1.74,1.74l0 22.35c0,0.96 -0.79,1.74 -1.74,1.74l-87.66 0c-0.95,0 -1.74,-0.78 -1.74,-1.74l0 -22.35c0,-0.96 0.79,-1.74 1.74,-1.74z"/>
  <path fill="#2B2A29" fill-rule="nonzero" d="M208.5 75.97l-87.66 0 0 -0.6 87.66 0 0 0 0 0.6zm2.04 1.44l-0.61 0 0 0 0 -0.07 0 -0.07 -0.01 -0.07 -0.01 -0.08 -0.02 -0.07 -0.02 -0.06 -0.02 -0.07 -0.03 -0.06 -0.03 -0.07 -0.03 -0.06 -0.03 -0.06 -0.04 -0.06 -0.04 -0.06 -0.05 -0.06 -0.04 -0.04 -0.05 -0.05 -0.05 -0.05 -0.05 -0.04 -0.05 -0.05 -0.06 -0.04 -0.06 -0.04 -0.06 -0.03 -0.06 -0.03 -0.07 -0.03 -0.06 -0.03 -0.07 -0.02 -0.06 -0.02 -0.07 -0.02 -0.08 -0.01 -0.07 -0.01 -0.07 0 -0.07 -0.01 0 -0.6 0.1 0 0.11 0.01 0.1 0.01 0.1 0.02 0.09 0.02 0.1 0.03 0.1 0.03 0.09 0.04 0.09 0.04 0.09 0.04 0.09 0.05 0.08 0.06 0.08 0.05 0.07 0.06 0.08 0.07 0.07 0.07 0.07 0.06 0.07 0.09 0.06 0.07 0.05 0.08 0.05 0.08 0.06 0.09 0.04 0.09 0.04 0.09 0.04 0.09 0.03 0.1 0.03 0.09 0.02 0.1 0.02 0.1 0.01 0.1 0.01 0.11 0 0.1 0 0zm-0.61 22.35l0 -22.35 0.61 0 0 22.35 0 0 -0.61 0zm-1.43 2.05l0 -0.61 0 0 0.07 0 0.07 -0.01 0.07 -0.01 0.08 -0.01 0.07 -0.02 0.06 -0.01 0.07 -0.03 0.06 -0.02 0.07 -0.03 0.06 -0.04 0.06 -0.03 0.06 -0.04 0.06 -0.04 0.05 -0.04 0.05 -0.04 0.05 -0.05 0.05 -0.06 0.04 -0.04 0.05 -0.06 0.04 -0.06 0.04 -0.06 0.03 -0.06 0.03 -0.06 0.03 -0.06 0.03 -0.07 0.02 -0.06 0.02 -0.07 0.02 -0.07 0.01 -0.07 0.01 -0.08 0 -0.07 0 -0.07 0.61 0 0 0.1 -0.01 0.11 -0.01 0.1 -0.02 0.1 -0.02 0.1 -0.03 0.1 -0.03 0.09 -0.04 0.1 -0.04 0.09 -0.04 0.09 -0.06 0.08 -0.05 0.08 -0.05 0.08 -0.06 0.08 -0.07 0.08 -0.07 0.07 -0.07 0.06 -0.08 0.07 -0.07 0.06 -0.08 0.05 -0.08 0.06 -0.09 0.05 -0.09 0.04 -0.09 0.04 -0.09 0.04 -0.1 0.03 -0.1 0.03 -0.09 0.02 -0.1 0.02 -0.1 0.02 -0.11 0 -0.1 0.01 0 0zm-87.66 -0.61l87.66 0 0 0.61 -87.66 0 0 0 0 -0.61zm-2.04 -1.44l0.61 0 0 0 0 0.07 0 0.07 0.01 0.08 0.01 0.07 0.02 0.07 0.02 0.07 0.02 0.06 0.03 0.07 0.03 0.06 0.03 0.06 0.03 0.06 0.04 0.06 0.04 0.06 0.05 0.06 0.04 0.04 0.05 0.06 0.05 0.05 0.05 0.04 0.05 0.04 0.06 0.04 0.06 0.04 0.06 0.03 0.06 0.04 0.07 0.03 0.06 0.02 0.07 0.03 0.06 0.01 0.07 0.02 0.08 0.01 0.07 0.01 0.07 0.01 0.07 0 0 0.61 -0.1 -0.01 -0.11 0 -0.1 -0.02 -0.1 -0.02 -0.09 -0.02 -0.1 -0.03 -0.1 -0.03 -0.09 -0.04 -0.09 -0.04 -0.09 -0.04 -0.09 -0.05 -0.08 -0.06 -0.08 -0.05 -0.07 -0.06 -0.08 -0.07 -0.07 -0.06 -0.07 -0.07 -0.07 -0.08 -0.06 -0.08 -0.05 -0.08 -0.05 -0.08 -0.06 -0.08 -0.04 -0.09 -0.04 -0.09 -0.04 -0.1 -0.03 -0.09 -0.03 -0.1 -0.02 -0.1 -0.02 -0.1 -0.01 -0.1 -0.01 -0.11 0 -0.1 0 0zm0.61 -22.35l0 22.35 -0.61 0 0 -22.35 0 0 0.61 0zm1.43 -2.04l0 0.6 0 0 -0.07 0.01 -0.07 0 -0.07 0.01 -0.08 0.01 -0.07 0.02 -0.06 0.02 -0.07 0.02 -0.06 0.03 -0.07 0.03 -0.06 0.03 -0.06 0.03 -0.06 0.04 -0.06 0.04 -0.05 0.05 -0.05 0.04 -0.05 0.05 -0.05 0.05 -0.04 0.04 -0.05 0.06 -0.04 0.06 -0.04 0.06 -0.03 0.06 -0.03 0.06 -0.03 0.07 -0.03 0.06 -0.02 0.07 -0.02 0.06 -0.02 0.07 -0.01 0.08 -0.01 0.07 0 0.07 0 0.07 -0.61 0 0 -0.1 0.01 -0.11 0.01 -0.1 0.02 -0.1 0.02 -0.1 0.03 -0.09 0.03 -0.1 0.04 -0.09 0.04 -0.09 0.04 -0.09 0.06 -0.09 0.05 -0.08 0.05 -0.08 0.06 -0.07 0.07 -0.09 0.07 -0.06 0.07 -0.07 0.08 -0.07 0.07 -0.06 0.08 -0.05 0.08 -0.06 0.09 -0.05 0.09 -0.04 0.09 -0.04 0.09 -0.04 0.1 -0.03 0.1 -0.03 0.09 -0.02 0.1 -0.02 0.1 -0.01 0.11 -0.01 0.1 0 0 0z"/>
  <path fill="#C4D985" d="M123.2 70.35l10.73 0c0.34,0 0.61,0.27 0.61,0.6l0 5.54c0,0.33 -0.27,0.61 -0.61,0.61l-10.73 0c-0.33,0 -0.6,-0.28 -0.6,-0.61l0 -5.54c0,-0.33 0.27,-0.6 0.6,-0.6zm72.18 0l10.74 0c0.33,0 0.6,0.27 0.6,0.6l0 5.54c0,0.33 -0.27,0.61 -0.6,0.61l-10.74 0c-0.33,0 -0.6,-0.28 -0.6,-0.61l0 -5.54c0,-0.33 0.27,-0.6 0.6,-0.6zm-24.06 0l10.74 0c0.33,0 0.6,0.27 0.6,0.6l0 5.54c0,0.33 -0.27,0.61 -0.6,0.61l-10.74 0c-0.33,0 -0.6,-0.28 -0.6,-0.61l0 -5.54c0,-0.33 0.27,-0.6 0.6,-0.6zm-24.14 0l10.73 0c0.33,0 0.6,0.27 0.6,0.6l0 5.54c0,0.33 -0.27,0.61 -0.6,0.61l-10.73 0c-0.34,0 -0.61,-0.28 -0.61,-0.61l0 -5.54c0,-0.33 0.27,-0.6 0.61,-0.6z"/>
  <path fill="#2B2A29" fill-rule="nonzero" d="M133.93 70.65l-10.73 0 0 -0.61 10.73 0 0 0 0 0.61zm0.92 0.3l-0.61 0 0 0 0 -0.02 0 -0.01 0 -0.01 -0.01 -0.02 0 -0.01 0 -0.01 -0.01 -0.01 -0.01 -0.02 -0.01 -0.02 0 -0.02 -0.01 0 0 -0.01 -0.01 -0.01 -0.02 -0.03 0 0 -0.01 -0.01 -0.01 -0.01 -0.02 -0.01 -0.01 -0.01 0 0 -0.02 -0.01 -0.02 -0.01 -0.01 -0.01 -0.01 -0.01 -0.01 0 -0.01 0 -0.02 -0.01 -0.02 0 -0.01 -0.01 -0.02 0 -0.01 0 -0.02 0 0 -0.61 0.05 0 0.05 0.01 0.05 0 0.04 0.01 0.04 0.01 0.04 0.01 0.05 0.02 0.04 0.02 0.04 0.01 0.04 0.02 0.03 0.02 0.04 0.02 0.04 0.04 0.04 0.03 0.02 0.02 0.03 0.02 0.04 0.04 0.03 0.04 0.02 0.03 0.02 0.03 0.03 0.04 0.03 0.04 0.02 0.04 0.01 0.04 0.02 0.04 0.01 0.03 0.02 0.05 0.01 0.05 0 0.04 0.01 0.05 0.01 0.05 0 0.04 0 0zm-0.61 5.54l0 -5.54 0.61 0 0 5.54 0 0 -0.61 0zm-0.31 0.91l0 -0.61 0 0 0.02 0 0.01 0 0.02 0 0.01 0 0.02 -0.01 0.02 0 0.01 0 0.01 -0.01 0.01 -0.01 0.01 0 0.02 -0.01 0.02 -0.01 0 0 0.01 -0.01 0.02 -0.02 0.01 -0.01 0.01 -0.01 0 0 0.02 -0.02 0.01 -0.02 0 0 0.01 -0.01 0.01 -0.02 0 -0.01 0.01 -0.02 0.01 -0.02 0 0 0 -0.02 0.01 -0.02 0 -0.01 0 -0.01 0 -0.02 0.61 0 0 0.04 -0.01 0.05 -0.01 0.05 0 0.05 -0.01 0.04 -0.02 0.05 -0.01 0.03 -0.02 0.05 -0.02 0.03 -0.01 0.04 -0.03 0.04 -0.03 0.05 -0.02 0.03 -0.02 0.02 -0.03 0.04 -0.04 0.04 -0.03 0.02 -0.02 0.03 -0.04 0.03 -0.04 0.03 -0.04 0.02 -0.03 0.02 -0.04 0.02 -0.04 0.02 -0.04 0.02 -0.05 0.01 -0.04 0.01 -0.04 0.01 -0.04 0.01 -0.05 0.01 -0.05 0 -0.05 0 0 0zm-10.73 -0.61l10.73 0 0 0.61 -10.73 0 0 0 0 -0.61zm-0.91 -0.3l0.61 0 0 0 0 0.02 0 0.01 0 0.01 0.01 0.02 0 0.02 0.01 0.01 0 0.01 0.01 0.02 0 0.01 0.01 0.01 0.01 0.02 0 0.01 0.01 0.01 0.01 0.01 0.02 0.02 0 0 0 0.01 0.02 0.01 0.02 0.02 0.01 0 0.01 0.01 0.01 0.01 0.01 0 0.02 0.01 0.02 0.01 0 0 0.02 0 0.01 0.01 0.02 0 0.01 0 0.01 0 0.02 0 0 0.61 -0.04 0 -0.05 0 -0.05 -0.01 -0.04 -0.01 -0.04 -0.01 -0.05 -0.01 -0.04 -0.02 -0.04 -0.01 -0.04 -0.02 -0.04 -0.02 -0.04 -0.02 -0.04 -0.03 -0.03 -0.02 -0.03 -0.03 -0.03 -0.02 -0.04 -0.04 -0.03 -0.03 -0.03 -0.03 -0.02 -0.03 -0.03 -0.04 -0.02 -0.04 -0.02 -0.03 -0.03 -0.05 -0.01 -0.03 -0.02 -0.05 -0.02 -0.04 -0.01 -0.04 -0.01 -0.04 -0.01 -0.05 0 -0.05 -0.01 -0.05 0 -0.04 0 0zm0.61 -5.54l0 5.54 -0.61 0 0 -5.54 0 0 0.61 0zm0.3 -0.91l0 0.61 0 0 -0.02 0 -0.01 0 -0.01 0 -0.02 0.01 -0.01 0 -0.02 0.01 0 0 -0.02 0.01 -0.02 0 -0.01 0.01 -0.01 0 -0.01 0.01 -0.01 0.01 -0.02 0.01 -0.02 0.02 0 0 0 0 -0.02 0.02 -0.01 0.02 -0.01 0.01 0 0.01 -0.01 0.01 -0.01 0.01 0 0.02 -0.01 0.02 0 0 -0.01 0.02 0 0.01 -0.01 0.02 0 0.01 0 0.01 0 0.02 -0.61 0 0 -0.04 0.01 -0.05 0 -0.05 0.01 -0.04 0.01 -0.05 0.01 -0.04 0.02 -0.04 0.02 -0.04 0.01 -0.04 0.03 -0.04 0.02 -0.04 0.02 -0.04 0.03 -0.03 0.02 -0.03 0.03 -0.03 0.03 -0.04 0.04 -0.03 0.03 -0.03 0.03 -0.02 0.03 -0.03 0.04 -0.02 0.04 -0.03 0.04 -0.02 0.04 -0.02 0.04 -0.01 0.04 -0.02 0.05 -0.01 0.04 -0.01 0.04 -0.01 0.05 0 0.05 -0.01 0.04 0 0 0zm82.92 0.61l-10.74 0 0 -0.61 10.74 0 0 0 0 0.61zm0.91 0.3l-0.61 0 0 0 0 -0.02 0 -0.01 0 -0.01 -0.01 -0.02 0 -0.01 0 -0.01 -0.01 -0.01 -0.01 -0.02 -0.01 -0.02 0 -0.02 -0.01 0 0 -0.01 -0.01 -0.01 -0.01 -0.02 -0.01 -0.01 -0.01 -0.01 -0.01 -0.01 -0.02 -0.01 -0.01 -0.01 0 0 -0.02 -0.01 -0.02 -0.02 0 0 -0.02 0 -0.02 -0.01 0 0 -0.02 -0.01 -0.02 0 -0.02 -0.01 0 0 -0.01 0 -0.02 0 0 -0.61 0.04 0 0.05 0.01 0.05 0 0.04 0.01 0.04 0.01 0.04 0.01 0.05 0.02 0.04 0.01 0.04 0.02 0.05 0.03 0.02 0.01 0.04 0.02 0.04 0.04 0.04 0.03 0.02 0.02 0.03 0.02 0.04 0.04 0.03 0.04 0.02 0.03 0.03 0.03 0.02 0.04 0.03 0.04 0.02 0.04 0.01 0.04 0.02 0.04 0.01 0.03 0.02 0.05 0.01 0.05 0 0.04 0.01 0.05 0.01 0.05 0 0.04 0 0zm-0.61 5.54l0 -5.54 0.61 0 0 5.54 0 0 -0.61 0zm-0.3 0.91l0 -0.61 0 0 0.02 0 0.01 0 0 0 0.02 0 0.02 -0.01 0.02 0 0 0 0.02 -0.01 0.02 -0.01 0 0 0.02 -0.01 0.02 -0.01 0 0 0.01 -0.01 0.02 -0.02 0.01 -0.01 0.01 -0.01 0.01 -0.01 0.01 -0.01 0.01 -0.01 0 -0.01 0.01 -0.01 0.01 -0.02 0 -0.01 0.01 -0.02 0.01 -0.02 0 0 0 -0.02 0.01 -0.02 0 -0.01 0 -0.01 0 -0.02 0.61 0 0 0.04 -0.01 0.05 -0.01 0.05 0 0.05 -0.01 0.04 -0.02 0.05 -0.01 0.03 -0.02 0.05 -0.02 0.03 -0.01 0.04 -0.03 0.04 -0.02 0.04 -0.03 0.04 -0.02 0.03 -0.03 0.03 -0.04 0.04 -0.03 0.02 -0.02 0.03 -0.04 0.03 -0.04 0.03 -0.04 0.02 -0.02 0.01 -0.05 0.03 -0.04 0.02 -0.04 0.01 -0.05 0.02 -0.04 0.01 -0.04 0.01 -0.04 0.01 -0.05 0.01 -0.05 0 -0.04 0 0 0zm-10.74 -0.61l10.74 0 0 0.61 -10.74 0 0 0 0 -0.61zm-0.91 -0.3l0.61 0 0 0 0 0.02 0 0.01 0 0.01 0.01 0.02 0 0.02 0.01 0.01 0 0.01 0.01 0.02 0 0.01 0.01 0.01 0.01 0.02 0 0.01 0.01 0.01 0.01 0.01 0.02 0.02 0 0 0 0.01 0.02 0.01 0.02 0.02 0.01 0 0.01 0.01 0.01 0.01 0.01 0 0.02 0.01 0.02 0.01 0 0 0.02 0 0.01 0.01 0.02 0 0.01 0 0.01 0 0.02 0 0 0.61 -0.04 0 -0.05 0 -0.05 -0.01 -0.04 -0.01 -0.04 -0.01 -0.04 -0.01 -0.05 -0.02 -0.04 -0.01 -0.04 -0.02 -0.04 -0.02 -0.04 -0.02 -0.04 -0.03 -0.03 -0.02 -0.03 -0.03 -0.03 -0.02 -0.04 -0.04 -0.03 -0.03 -0.03 -0.03 -0.02 -0.03 -0.03 -0.04 -0.02 -0.04 -0.02 -0.03 -0.03 -0.05 -0.01 -0.03 -0.02 -0.05 -0.02 -0.04 -0.01 -0.04 -0.01 -0.04 -0.01 -0.05 0 -0.05 -0.01 -0.05 0 -0.04 0 0zm0.61 -5.54l0 5.54 -0.61 0 0 -5.54 0 0 0.61 0zm0.3 -0.91l0 0.61 0 0 -0.02 0 -0.01 0 -0.01 0 -0.02 0.01 -0.01 0 -0.02 0.01 0 0 -0.02 0.01 -0.02 0 -0.01 0.01 -0.01 0 -0.01 0.01 -0.01 0.01 -0.02 0.01 -0.02 0.02 0 0 0 0 -0.02 0.02 -0.01 0.02 -0.01 0.01 0 0.01 -0.01 0.01 -0.01 0.01 0 0.02 -0.01 0.02 0 0 -0.01 0.02 0 0.01 -0.01 0.02 0 0.01 0 0.01 0 0.02 -0.61 0 0 -0.04 0.01 -0.05 0 -0.05 0.01 -0.04 0.01 -0.05 0.01 -0.04 0.02 -0.04 0.02 -0.04 0.01 -0.04 0.03 -0.04 0.02 -0.04 0.02 -0.04 0.03 -0.03 0.02 -0.03 0.03 -0.03 0.03 -0.04 0.04 -0.03 0.03 -0.03 0.03 -0.02 0.03 -0.03 0.04 -0.02 0.04 -0.03 0.04 -0.02 0.04 -0.02 0.04 -0.01 0.05 -0.02 0.04 -0.01 0.04 -0.01 0.04 -0.01 0.05 0 0.05 -0.01 0.04 0 0 0zm-13.32 0.61l-10.74 0 0 -0.61 10.74 0 0 0 0 0.61zm0.9 0.3l-0.6 0 0 0 0 -0.02 0 -0.01 -0.01 -0.01 0 -0.02 0 -0.01 -0.01 -0.02 0 0 -0.01 -0.02 0 -0.02 -0.01 -0.01 -0.01 -0.01 0 -0.01 -0.01 -0.01 -0.01 -0.02 -0.02 -0.02 0 0 -0.01 0 -0.01 -0.02 -0.02 -0.01 -0.01 -0.01 -0.01 -0.01 -0.01 0 -0.01 -0.01 -0.02 0 -0.01 -0.01 -0.01 0 -0.02 -0.01 -0.02 0 -0.01 -0.01 -0.02 0 0 0 -0.02 0 0 -0.61 0.04 0 0.05 0.01 0.05 0 0.04 0.01 0.04 0.01 0.04 0.01 0.05 0.02 0.04 0.01 0.04 0.02 0.04 0.02 0.04 0.03 0.03 0.02 0.04 0.03 0.03 0.02 0.03 0.03 0.04 0.03 0.03 0.04 0.03 0.03 0.02 0.03 0.03 0.03 0.02 0.04 0.02 0.04 0.03 0.04 0.01 0.04 0.02 0.04 0.01 0.04 0.02 0.04 0.01 0.05 0 0.04 0.01 0.05 0 0.05 0 0.04 0 0zm-0.6 5.54l0 -5.54 0.6 0 0 5.54 0 0 -0.6 0zm-0.3 0.91l0 -0.61 0 0 0.02 0 0 0 0.02 0 0.01 0 0.02 -0.01 0.02 0 0.01 0 0.01 -0.01 0.02 -0.01 0.01 0 0.01 -0.01 0.01 -0.01 0.01 0 0.02 -0.02 0.01 -0.01 0.01 -0.01 0 0 0.02 -0.02 0.01 -0.01 0.01 -0.01 0 -0.01 0.01 -0.02 0.01 -0.01 0 -0.01 0.01 -0.02 0 -0.01 0.01 -0.01 0 -0.02 0 -0.02 0.01 -0.01 0 -0.01 0 -0.02 0.6 0 0 0.04 0 0.05 -0.01 0.05 0 0.05 -0.01 0.04 -0.02 0.04 -0.01 0.04 -0.02 0.05 -0.01 0.03 -0.03 0.05 -0.02 0.03 -0.02 0.04 -0.03 0.04 -0.02 0.03 -0.03 0.03 -0.03 0.03 -0.04 0.04 -0.03 0.02 -0.03 0.03 -0.04 0.02 -0.03 0.03 -0.04 0.02 -0.04 0.02 -0.04 0.02 -0.04 0.02 -0.05 0.01 -0.04 0.01 -0.04 0.01 -0.04 0.01 -0.05 0.01 -0.05 0 -0.04 0 0 0zm-10.74 -0.61l10.74 0 0 0.61 -10.74 0 0 0 0 -0.61zm-0.91 -0.3l0.61 0 0 0 0 0.02 0 0.01 0 0.01 0.01 0.02 0 0.02 0.01 0.01 0 0.01 0.01 0.02 0 0.01 0.01 0.01 0 0.02 0.01 0.01 0.01 0.01 0.01 0.01 0.02 0.02 0 0 0 0.01 0.02 0.01 0.02 0.02 0.01 0 0.01 0.01 0.01 0.01 0.01 0 0.02 0.01 0.02 0.01 0 0 0.02 0 0.01 0.01 0.02 0 0.01 0 0.01 0 0.02 0 0 0.61 -0.04 0 -0.05 0 -0.05 -0.01 -0.04 -0.01 -0.05 -0.01 -0.04 -0.01 -0.04 -0.02 -0.04 -0.01 -0.04 -0.02 -0.04 -0.02 -0.04 -0.02 -0.04 -0.03 -0.03 -0.02 -0.03 -0.03 -0.03 -0.02 -0.04 -0.04 -0.03 -0.03 -0.03 -0.03 -0.02 -0.03 -0.03 -0.04 -0.02 -0.04 -0.03 -0.03 -0.02 -0.05 -0.02 -0.03 -0.01 -0.05 -0.02 -0.04 -0.01 -0.04 -0.01 -0.04 -0.01 -0.05 0 -0.05 -0.01 -0.05 0 -0.04 0 0zm0.61 -5.54l0 5.54 -0.61 0 0 -5.54 0 0 0.61 0zm0.3 -0.91l0 0.61 0 0 -0.02 0 -0.01 0 -0.01 0 -0.02 0.01 -0.01 0 -0.02 0.01 0 0 -0.02 0.01 -0.02 0 -0.01 0.01 -0.01 0 -0.01 0.01 -0.01 0.01 -0.02 0.01 -0.02 0.02 0 0 0 0 -0.02 0.02 -0.01 0.02 -0.01 0.01 -0.01 0.01 0 0.01 -0.01 0.01 0 0.02 -0.01 0.02 0 0 -0.01 0.02 0 0.01 -0.01 0.02 0 0.01 0 0.01 0 0.02 -0.61 0 0 -0.04 0.01 -0.05 0 -0.05 0.01 -0.04 0.01 -0.05 0.01 -0.04 0.02 -0.04 0.01 -0.04 0.02 -0.04 0.02 -0.04 0.03 -0.04 0.02 -0.04 0.03 -0.03 0.02 -0.03 0.03 -0.03 0.03 -0.04 0.04 -0.03 0.03 -0.03 0.03 -0.02 0.03 -0.03 0.04 -0.02 0.04 -0.03 0.04 -0.02 0.04 -0.02 0.04 -0.01 0.04 -0.02 0.04 -0.01 0.05 -0.01 0.04 -0.01 0.05 0 0.05 -0.01 0.04 0 0 0zm-13.41 0.61l-10.73 0 0 -0.61 10.73 0 0 0 0 0.61zm0.91 0.3l-0.61 0 0 0 0 -0.02 0 -0.01 0 -0.01 -0.01 -0.02 0 -0.01 -0.01 -0.02 0 0 -0.01 -0.02 0 -0.02 -0.01 -0.01 0 -0.01 -0.01 -0.01 -0.01 -0.01 -0.01 -0.02 -0.01 -0.02 -0.01 0 0 0 -0.02 -0.02 -0.02 -0.01 -0.01 -0.01 -0.01 -0.01 -0.01 0 -0.01 -0.01 -0.01 0 -0.02 -0.01 -0.01 0 -0.02 -0.01 -0.01 0 -0.02 -0.01 -0.01 0 -0.01 0 -0.02 0 0 -0.61 0.04 0 0.05 0.01 0.05 0 0.04 0.01 0.05 0.01 0.04 0.01 0.04 0.02 0.04 0.01 0.04 0.02 0.04 0.02 0.04 0.03 0.04 0.02 0.03 0.03 0.03 0.02 0.03 0.03 0.04 0.03 0.04 0.04 0.02 0.03 0.02 0.03 0.03 0.03 0.02 0.04 0.03 0.04 0.02 0.04 0.02 0.04 0.01 0.04 0.02 0.04 0.01 0.04 0.01 0.05 0.01 0.04 0 0.05 0.01 0.05 0 0.04 0 0zm-0.61 5.54l0 -5.54 0.61 0 0 5.54 0 0 -0.61 0zm-0.3 0.91l0 -0.61 0 0 0.02 0 0.01 0 0.01 0 0.02 0 0.01 -0.01 0.02 0 0.01 0 0.02 -0.01 0.01 -0.01 0.01 0 0.01 -0.01 0.01 -0.01 0.01 0 0.02 -0.02 0.02 -0.01 0 -0.01 0.01 0 0.01 -0.02 0.01 -0.01 0.01 -0.01 0.01 -0.01 0 -0.02 0.01 -0.01 0 -0.01 0.01 -0.02 0 -0.01 0.01 -0.01 0 -0.02 0.01 -0.02 0 -0.01 0 -0.01 0 -0.02 0.61 0 0 0.04 -0.01 0.05 0 0.05 -0.01 0.05 -0.01 0.04 -0.01 0.04 -0.02 0.04 -0.01 0.05 -0.02 0.03 -0.02 0.05 -0.03 0.03 -0.02 0.04 -0.03 0.04 -0.02 0.03 -0.02 0.03 -0.04 0.03 -0.04 0.04 -0.03 0.02 -0.03 0.03 -0.03 0.02 -0.04 0.03 -0.04 0.02 -0.04 0.02 -0.04 0.02 -0.04 0.02 -0.04 0.01 -0.04 0.01 -0.05 0.01 -0.04 0.01 -0.05 0.01 -0.05 0 -0.04 0 0 0zm-10.73 -0.61l10.73 0 0 0.61 -10.73 0 0 0 0 -0.61zm-0.91 -0.3l0.61 0 0 0 0 0.02 0 0.01 0 0.01 0 0.02 0 0.02 0.01 0.01 0 0.01 0.01 0.02 0.01 0.01 0 0.01 0.01 0.02 0.01 0.01 0 0.01 0.02 0.01 0.01 0.02 0 0 0.01 0.01 0.02 0.01 0.01 0.02 0.01 0 0.01 0.01 0.02 0.01 0 0 0.02 0.01 0.02 0.01 0.01 0 0.01 0 0.02 0.01 0.01 0 0.02 0 0.01 0 0.02 0 0 0.61 -0.05 0 -0.05 0 -0.05 -0.01 -0.04 -0.01 -0.04 -0.01 -0.04 -0.01 -0.05 -0.02 -0.04 -0.01 -0.03 -0.02 -0.05 -0.02 -0.04 -0.02 -0.03 -0.03 -0.04 -0.02 -0.03 -0.03 -0.03 -0.02 -0.04 -0.04 -0.03 -0.03 -0.02 -0.03 -0.03 -0.03 -0.03 -0.04 -0.02 -0.04 -0.02 -0.03 -0.02 -0.05 -0.02 -0.03 -0.02 -0.05 -0.01 -0.04 -0.01 -0.04 -0.01 -0.04 -0.01 -0.05 -0.01 -0.05 0 -0.05 0 -0.04 0 0zm0.61 -5.54l0 5.54 -0.61 0 0 -5.54 0 0 0.61 0zm0.3 -0.91l0 0.61 0 0 -0.02 0 -0.01 0 -0.02 0 -0.01 0.01 -0.02 0 -0.01 0.01 -0.01 0 -0.02 0.01 -0.02 0 0 0.01 -0.02 0 -0.01 0.01 -0.01 0.01 -0.01 0.01 -0.02 0.02 -0.01 0 0 0 -0.01 0.02 -0.02 0.02 0 0.01 -0.01 0.01 -0.01 0.01 0 0.01 -0.01 0.02 -0.01 0.02 0 0 -0.01 0.02 0 0.01 0 0.02 0 0.01 0 0.01 0 0.02 -0.61 0 0 -0.04 0 -0.05 0.01 -0.05 0.01 -0.04 0.01 -0.05 0.01 -0.04 0.01 -0.04 0.02 -0.04 0.01 -0.04 0.03 -0.04 0.02 -0.04 0.02 -0.04 0.03 -0.03 0.03 -0.03 0.02 -0.03 0.03 -0.04 0.04 -0.03 0.03 -0.03 0.03 -0.02 0.04 -0.03 0.03 -0.02 0.04 -0.03 0.05 -0.02 0.03 -0.02 0.04 -0.01 0.05 -0.02 0.04 -0.01 0.04 -0.01 0.04 -0.01 0.05 0 0.05 -0.01 0.05 0 0 0z"/>
  <path fill="#A1B567" d="M169.54 31.79l39.28 0c0.96,0 1.75,0.78 1.75,1.74l0 22.35c0,0.96 -0.79,1.74 -1.75,1.74l-39.28 0c-0.95,0 -1.74,-0.78 -1.74,-1.74l0 -22.35c0,-0.96 0.79,-1.74 1.74,-1.74z"/>
  <path fill="#2B2A29" fill-rule="nonzero" d="M208.82 32.09l-39.28 0 0 -0.6 39.28 0 0 0 0 0.6zm2.05 1.44l-0.61 0 0 0 0 -0.07 0 -0.07 -0.02 -0.07 -0.01 -0.08 -0.01 -0.07 -0.02 -0.06 -0.02 -0.07 -0.03 -0.07 -0.03 -0.06 -0.03 -0.06 -0.04 -0.06 -0.03 -0.06 -0.05 -0.06 -0.04 -0.06 -0.04 -0.04 -0.05 -0.05 -0.05 -0.06 -0.05 -0.04 -0.06 -0.04 -0.06 -0.04 -0.06 -0.04 -0.05 -0.03 -0.07 -0.03 -0.06 -0.04 -0.07 -0.02 -0.06 -0.02 -0.07 -0.02 -0.07 -0.02 -0.07 -0.01 -0.07 -0.01 -0.07 0 -0.08 -0.01 0 -0.6 0.11 0 0.1 0.01 0.11 0.01 0.09 0.02 0.1 0.02 0.1 0.03 0.1 0.03 0.09 0.04 0.09 0.04 0.09 0.04 0.08 0.05 0.09 0.06 0.07 0.05 0.08 0.06 0.08 0.07 0.07 0.07 0.06 0.06 0.07 0.08 0.06 0.08 0.06 0.08 0.05 0.08 0.05 0.09 0.05 0.09 0.04 0.08 0.04 0.1 0.03 0.09 0.03 0.1 0.02 0.1 0.01 0.1 0.02 0.1 0.01 0.11 0 0.1 0 0zm-0.61 22.35l0 -22.35 0.61 0 0 22.35 0 0 -0.61 0zm-1.44 2.05l0 -0.61 0 0 0.08 0 0.07 -0.01 0.07 -0.01 0.07 -0.01 0.07 -0.02 0.07 -0.01 0.06 -0.03 0.07 -0.02 0.06 -0.04 0.07 -0.03 0.05 -0.03 0.06 -0.04 0.06 -0.04 0.06 -0.04 0.05 -0.04 0.05 -0.06 0.05 -0.05 0.04 -0.04 0.04 -0.06 0.05 -0.06 0.03 -0.06 0.04 -0.06 0.03 -0.06 0.03 -0.06 0.03 -0.07 0.02 -0.06 0.02 -0.07 0.01 -0.07 0.01 -0.08 0.02 -0.07 0 -0.07 0 -0.07 0.61 0 0 0.1 -0.01 0.11 -0.02 0.1 -0.01 0.1 -0.02 0.1 -0.03 0.1 -0.03 0.09 -0.04 0.1 -0.04 0.09 -0.05 0.08 -0.05 0.09 -0.05 0.08 -0.06 0.08 -0.06 0.08 -0.07 0.08 -0.06 0.06 -0.07 0.07 -0.08 0.07 -0.08 0.06 -0.07 0.05 -0.09 0.06 -0.08 0.05 -0.09 0.04 -0.09 0.04 -0.09 0.04 -0.1 0.03 -0.1 0.03 -0.1 0.02 -0.09 0.02 -0.11 0.02 -0.1 0 -0.11 0.01 0 0zm-39.28 -0.61l39.28 0 0 0.61 -39.28 0 0 0 0 -0.61zm-2.04 -1.44l0.61 0 0 0 0 0.07 0 0.07 0.01 0.07 0.02 0.08 0.01 0.07 0.02 0.07 0.02 0.06 0.03 0.07 0.03 0.06 0.03 0.06 0.04 0.06 0.03 0.06 0.04 0.06 0.05 0.06 0.04 0.05 0.05 0.04 0.05 0.06 0.05 0.04 0.06 0.04 0.05 0.04 0.06 0.04 0.06 0.03 0.06 0.03 0.07 0.04 0.06 0.02 0.07 0.03 0.06 0.01 0.07 0.02 0.08 0.01 0.07 0.01 0.07 0.01 0.07 0 0 0.61 -0.1 -0.01 -0.11 0 -0.1 -0.02 -0.1 -0.02 -0.09 -0.02 -0.1 -0.03 -0.1 -0.03 -0.09 -0.04 -0.09 -0.04 -0.09 -0.04 -0.09 -0.05 -0.08 -0.06 -0.08 -0.05 -0.07 -0.06 -0.08 -0.07 -0.07 -0.07 -0.07 -0.06 -0.06 -0.08 -0.06 -0.08 -0.06 -0.08 -0.05 -0.08 -0.05 -0.09 -0.05 -0.08 -0.04 -0.09 -0.04 -0.1 -0.03 -0.09 -0.03 -0.1 -0.02 -0.1 -0.02 -0.1 -0.01 -0.1 -0.01 -0.11 0 -0.1 0 0zm0.61 -22.35l0 22.35 -0.61 0 0 -22.35 0 0 0.61 0zm1.43 -2.04l0 0.6 0 0 -0.07 0.01 -0.07 0 -0.07 0.01 -0.08 0.01 -0.07 0.02 -0.06 0.02 -0.07 0.02 -0.06 0.02 -0.07 0.04 -0.06 0.03 -0.06 0.03 -0.06 0.04 -0.05 0.04 -0.06 0.04 -0.05 0.05 -0.05 0.05 -0.05 0.05 -0.04 0.05 -0.05 0.05 -0.04 0.06 -0.03 0.06 -0.04 0.06 -0.03 0.06 -0.03 0.06 -0.03 0.07 -0.02 0.07 -0.02 0.06 -0.01 0.07 -0.02 0.08 -0.01 0.07 0 0.07 0 0.07 -0.61 0 0 -0.1 0.01 -0.11 0.01 -0.1 0.02 -0.1 0.02 -0.1 0.03 -0.1 0.03 -0.09 0.04 -0.1 0.04 -0.08 0.05 -0.09 0.05 -0.09 0.05 -0.08 0.06 -0.08 0.06 -0.08 0.06 -0.07 0.07 -0.07 0.07 -0.07 0.08 -0.07 0.07 -0.06 0.08 -0.05 0.08 -0.06 0.09 -0.05 0.09 -0.04 0.09 -0.04 0.09 -0.04 0.1 -0.03 0.1 -0.03 0.09 -0.02 0.1 -0.02 0.1 -0.01 0.11 -0.01 0.1 0 0 0z"/>
  <path fill="#A1B567" d="M171.9 26.47l10.74 0c0.33,0 0.6,0.27 0.6,0.6l0 5.54c0,0.33 -0.27,0.61 -0.6,0.61l-10.74 0c-0.33,0 -0.6,-0.28 -0.6,-0.61l0 -5.54c0,-0.33 0.27,-0.6 0.6,-0.6zm23.98 0l10.73 0c0.33,0 0.61,0.27 0.61,0.6l0 5.54c0,0.33 -0.28,0.61 -0.61,0.61l-10.73 0c-0.34,0 -0.61,-0.28 -0.61,-0.61l0 -5.54c0,-0.33 0.27,-0.6 0.61,-0.6z"/>
  <path fill="#2B2A29" fill-rule="nonzero" d="M182.64 26.77l-10.74 0 0 -0.61 10.74 0 0 0 0 0.61zm0.9 0.3l-0.6 0 0 0 0 -0.02 0 -0.01 0 -0.01 -0.01 -0.02 0 -0.01 -0.01 -0.02 0 -0.01 -0.01 -0.01 0 -0.02 -0.01 -0.01 -0.01 -0.01 0 -0.02 -0.01 0 -0.01 -0.02 -0.02 -0.02 0 0 -0.01 -0.01 -0.01 -0.01 -0.02 -0.01 -0.01 -0.01 -0.01 -0.01 -0.01 0 -0.01 -0.01 -0.02 0 -0.01 -0.01 -0.01 -0.01 -0.02 0 -0.02 0 -0.01 -0.01 -0.02 0 0 0 -0.02 0 0 -0.61 0.04 0 0.05 0.01 0.05 0 0.04 0.01 0.04 0.01 0.04 0.01 0.05 0.02 0.04 0.01 0.04 0.02 0.04 0.02 0.04 0.03 0.03 0.02 0.04 0.03 0.03 0.02 0.03 0.02 0.04 0.04 0.03 0.04 0.03 0.03 0.02 0.03 0.03 0.03 0.02 0.04 0.02 0.03 0.03 0.05 0.01 0.04 0.02 0.04 0.01 0.04 0.02 0.04 0.01 0.05 0 0.04 0.01 0.05 0 0.05 0 0.04 0 0zm-0.6 5.54l0 -5.54 0.6 0 0 5.54 0 0 -0.6 0zm-0.3 0.91l0 -0.61 0 0 0.02 0 0 0 0.02 0 0.01 0 0.02 -0.01 0.02 0 0.01 -0.01 0.01 0 0.02 -0.01 0.01 0 0.01 -0.01 0.01 -0.01 0.01 -0.01 0.02 -0.01 0.01 -0.01 0.01 -0.01 0 0 0.02 -0.02 0.01 -0.01 0.01 -0.01 0 -0.01 0.01 -0.02 0.01 -0.01 0 -0.01 0.01 -0.02 0 -0.01 0.01 -0.01 0 -0.02 0.01 -0.02 0 -0.01 0 -0.01 0 -0.02 0.6 0 0 0.04 0 0.05 -0.01 0.05 0 0.05 -0.01 0.04 -0.02 0.04 -0.01 0.04 -0.02 0.04 -0.01 0.04 -0.03 0.05 -0.02 0.03 -0.02 0.04 -0.03 0.04 -0.02 0.03 -0.03 0.03 -0.03 0.03 -0.04 0.04 -0.03 0.02 -0.03 0.03 -0.04 0.02 -0.03 0.03 -0.04 0.02 -0.04 0.02 -0.04 0.02 -0.04 0.01 -0.05 0.02 -0.04 0.01 -0.04 0.01 -0.04 0.01 -0.05 0.01 -0.05 0 -0.04 0 0 0zm-10.74 -0.61l10.74 0 0 0.61 -10.74 0 0 0 0 -0.61zm-0.91 -0.3l0.61 0 0 0 0 0.02 0 0.01 0 0.01 0.01 0.02 0 0.02 0.01 0.01 0 0.01 0.01 0.02 0 0.01 0.01 0.01 0.01 0.02 0 0.01 0.01 0.01 0.01 0.01 0.02 0.02 0 0 0 0.01 0.02 0.01 0.02 0.01 0.01 0.01 0.01 0.01 0.01 0.01 0.01 0 0.02 0.01 0.02 0.01 0 0 0.02 0 0.01 0.01 0.02 0 0.01 0 0.01 0 0.02 0 0 0.61 -0.04 0 -0.05 0 -0.05 -0.01 -0.04 -0.01 -0.05 -0.01 -0.04 -0.01 -0.04 -0.02 -0.04 -0.01 -0.04 -0.02 -0.04 -0.02 -0.04 -0.02 -0.04 -0.03 -0.03 -0.02 -0.03 -0.03 -0.03 -0.02 -0.04 -0.04 -0.03 -0.03 -0.03 -0.03 -0.02 -0.03 -0.03 -0.04 -0.02 -0.04 -0.02 -0.03 -0.03 -0.05 -0.02 -0.04 -0.01 -0.04 -0.02 -0.04 -0.01 -0.04 -0.01 -0.04 -0.01 -0.05 0 -0.05 -0.01 -0.05 0 -0.04 0 0zm0.61 -5.54l0 5.54 -0.61 0 0 -5.54 0 0 0.61 0zm0.3 -0.91l0 0.61 0 0 -0.02 0 -0.01 0 -0.01 0 -0.02 0.01 -0.01 0 -0.02 0 0 0 -0.02 0.02 -0.02 0 -0.01 0.01 -0.01 0 -0.01 0.01 -0.01 0.01 -0.02 0.01 -0.02 0.01 0 0.01 0 0 -0.02 0.02 -0.01 0.02 -0.01 0 0 0.02 -0.01 0.01 -0.01 0.01 0 0.02 -0.01 0.01 0 0.01 -0.01 0.02 0 0.01 -0.01 0.02 0 0.01 0 0.01 0 0.02 -0.61 0 0 -0.04 0.01 -0.05 0 -0.05 0.01 -0.04 0.01 -0.05 0.01 -0.04 0.02 -0.04 0.01 -0.04 0.02 -0.04 0.03 -0.05 0.02 -0.03 0.02 -0.04 0.03 -0.03 0.02 -0.03 0.03 -0.03 0.03 -0.04 0.04 -0.04 0.03 -0.02 0.03 -0.02 0.03 -0.03 0.04 -0.02 0.04 -0.03 0.04 -0.02 0.04 -0.02 0.04 -0.01 0.04 -0.02 0.04 -0.01 0.05 -0.01 0.04 -0.01 0.05 0 0.05 -0.01 0.04 0 0 0zm34.71 0.61l-10.73 0 0 -0.61 10.73 0 0 0 0 0.61zm0.91 0.3l-0.61 0 0 0 0 -0.02 0 -0.01 0 -0.01 0 -0.02 -0.01 -0.01 0 -0.02 0 -0.01 -0.01 -0.01 -0.01 -0.02 0 -0.01 -0.01 -0.01 -0.01 -0.02 -0.01 0 -0.01 -0.02 -0.01 -0.02 -0.01 0 0 -0.01 -0.02 -0.01 -0.02 -0.01 0 -0.01 -0.01 -0.01 -0.02 0 -0.01 -0.01 -0.01 0 -0.02 -0.01 -0.01 -0.01 -0.01 0 -0.02 0 -0.02 -0.01 -0.01 0 -0.01 0 -0.02 0 0 -0.61 0.04 0 0.05 0.01 0.05 0 0.05 0.01 0.04 0.01 0.04 0.01 0.04 0.02 0.04 0.01 0.04 0.02 0.05 0.02 0.03 0.03 0.04 0.02 0.04 0.03 0.03 0.02 0.03 0.02 0.03 0.04 0.04 0.04 0.02 0.03 0.03 0.03 0.02 0.03 0.03 0.04 0.02 0.03 0.02 0.05 0.02 0.04 0.01 0.04 0.02 0.04 0.01 0.04 0.01 0.05 0.01 0.04 0 0.05 0.01 0.05 0 0.04 0 0zm-0.61 5.54l0 -5.54 0.61 0 0 5.54 0 0 -0.61 0zm-0.3 0.91l0 -0.61 0 0 0.02 0 0.01 0 0.01 0 0.02 0 0.02 -0.01 0.01 0 0.01 -0.01 0.02 0 0.01 -0.01 0.01 0 0.02 -0.01 0.01 -0.01 0 -0.01 0.02 -0.01 0.02 -0.01 0 -0.01 0.01 0 0.01 -0.02 0.01 -0.01 0.01 -0.01 0.01 -0.01 0.01 -0.02 0 -0.01 0.01 -0.01 0 -0.02 0.01 -0.01 0 -0.01 0.01 -0.02 0 -0.02 0 -0.01 0 -0.01 0 -0.02 0.61 0 0 0.04 -0.01 0.05 0 0.05 -0.01 0.05 -0.01 0.04 -0.01 0.04 -0.02 0.04 -0.01 0.04 -0.02 0.04 -0.02 0.05 -0.02 0.03 -0.03 0.04 -0.02 0.04 -0.03 0.03 -0.02 0.03 -0.04 0.03 -0.03 0.04 -0.03 0.02 -0.03 0.03 -0.04 0.02 -0.04 0.03 -0.03 0.02 -0.05 0.02 -0.04 0.02 -0.04 0.01 -0.04 0.02 -0.04 0.01 -0.04 0.01 -0.05 0.01 -0.05 0.01 -0.05 0 -0.04 0 0 0zm-10.73 -0.61l10.73 0 0 0.61 -10.73 0 0 0 0 -0.61zm-0.91 -0.3l0.61 0 0 0 0 0.02 0 0.01 0 0.01 0 0.02 0 0.02 0.01 0.01 0 0.01 0.01 0.02 0 0.01 0.01 0.01 0.01 0.02 0.01 0.01 0 0.01 0.01 0.01 0.02 0.02 0 0 0.01 0.01 0.01 0.01 0.02 0.01 0.01 0.01 0.01 0.01 0.02 0.01 0 0 0.02 0.01 0.02 0.01 0.01 0 0.01 0 0.02 0.01 0.01 0 0.02 0 0.01 0 0.02 0 0 0.61 -0.05 0 -0.05 0 -0.05 -0.01 -0.04 -0.01 -0.04 -0.01 -0.04 -0.01 -0.05 -0.02 -0.04 -0.01 -0.03 -0.02 -0.05 -0.02 -0.04 -0.02 -0.03 -0.03 -0.04 -0.02 -0.03 -0.03 -0.03 -0.02 -0.04 -0.04 -0.03 -0.03 -0.02 -0.03 -0.03 -0.03 -0.03 -0.04 -0.02 -0.04 -0.02 -0.03 -0.02 -0.05 -0.02 -0.04 -0.02 -0.04 -0.01 -0.04 -0.01 -0.04 -0.01 -0.04 -0.01 -0.05 -0.01 -0.05 0 -0.05 0 -0.04 0 0zm0.61 -5.54l0 5.54 -0.61 0 0 -5.54 0 0 0.61 0zm0.3 -0.91l0 0.61 0 0 -0.02 0 -0.01 0 -0.02 0 -0.01 0.01 -0.02 0 -0.01 0 -0.01 0 -0.02 0.02 -0.02 0 0 0.01 -0.02 0 -0.01 0.01 -0.01 0.01 -0.02 0.01 -0.01 0.01 -0.01 0.01 0 0 -0.02 0.02 -0.01 0.02 0 0 -0.01 0.02 -0.01 0.01 0 0.01 -0.01 0.02 -0.01 0.01 0 0.01 -0.01 0.02 0 0.01 0 0.02 0 0.01 0 0.01 0 0.02 -0.61 0 0 -0.04 0 -0.05 0.01 -0.05 0.01 -0.04 0.01 -0.05 0.01 -0.04 0.01 -0.04 0.02 -0.04 0.01 -0.04 0.03 -0.05 0.02 -0.03 0.02 -0.04 0.03 -0.03 0.03 -0.03 0.02 -0.03 0.03 -0.04 0.04 -0.04 0.03 -0.02 0.03 -0.02 0.04 -0.03 0.03 -0.02 0.04 -0.03 0.05 -0.02 0.03 -0.02 0.04 -0.01 0.05 -0.02 0.04 -0.01 0.04 -0.01 0.04 -0.01 0.05 0 0.05 -0.01 0.05 0 0 0z"/>
  <path fill="#99CFBA" d="M146.51 5.63l39.28 0c0.96,0 1.74,0.78 1.74,1.74l0 22.35c0,0.96 -0.78,1.74 -1.74,1.74l-39.28 0c-0.96,0 -1.74,-0.78 -1.74,-1.74l0 -22.35c0,-0.96 0.78,-1.74 1.74,-1.74z"/>
  <path fill="#2B2A29" fill-rule="nonzero" d="M185.79 5.93l-39.28 0 0 -0.61 39.28 0 0 0 0 0.61zm2.05 1.44l-0.61 0 0 0 0 -0.07 -0.01 -0.07 -0.01 -0.08 -0.01 -0.07 -0.02 -0.07 -0.01 -0.07 -0.03 -0.06 -0.02 -0.07 -0.03 -0.06 -0.04 -0.06 -0.03 -0.07 -0.04 -0.05 -0.04 -0.06 -0.04 -0.06 -0.04 -0.05 -0.05 -0.05 -0.05 -0.05 -0.05 -0.04 -0.06 -0.04 -0.06 -0.04 -0.06 -0.04 -0.05 -0.03 -0.07 -0.04 -0.06 -0.03 -0.07 -0.02 -0.06 -0.03 -0.07 -0.01 -0.07 -0.02 -0.07 -0.01 -0.07 -0.01 -0.07 -0.01 -0.08 0 0 -0.61 0.11 0.01 0.1 0 0.1 0.02 0.1 0.02 0.1 0.02 0.1 0.03 0.09 0.03 0.1 0.04 0.09 0.04 0.09 0.04 0.08 0.05 0.09 0.06 0.07 0.05 0.08 0.06 0.08 0.07 0.07 0.06 0.06 0.07 0.07 0.08 0.06 0.08 0.06 0.08 0.05 0.08 0.05 0.08 0.04 0.09 0.04 0.09 0.04 0.1 0.03 0.09 0.03 0.1 0.02 0.1 0.02 0.1 0.02 0.1 0 0.11 0.01 0.1 0 0zm-0.61 22.35l0 -22.35 0.61 0 0 22.35 0 0 -0.61 0zm-1.44 2.04l0 -0.6 0 0 0.08 -0.01 0.07 0 0.07 -0.01 0.07 -0.01 0.07 -0.02 0.07 -0.02 0.06 -0.02 0.07 -0.03 0.06 -0.03 0.07 -0.03 0.05 -0.03 0.06 -0.04 0.06 -0.04 0.06 -0.04 0.05 -0.05 0.05 -0.05 0.05 -0.05 0.04 -0.05 0.04 -0.05 0.04 -0.06 0.04 -0.06 0.03 -0.06 0.04 -0.06 0.03 -0.07 0.02 -0.06 0.03 -0.07 0.01 -0.06 0.02 -0.07 0.01 -0.08 0.01 -0.07 0.01 -0.07 0 -0.07 0.61 0 -0.01 0.1 0 0.11 -0.02 0.1 -0.02 0.1 -0.02 0.1 -0.03 0.09 -0.03 0.1 -0.04 0.09 -0.04 0.09 -0.04 0.09 -0.05 0.08 -0.05 0.09 -0.06 0.08 -0.06 0.08 -0.07 0.07 -0.06 0.07 -0.07 0.07 -0.08 0.07 -0.08 0.05 -0.07 0.06 -0.09 0.06 -0.08 0.05 -0.09 0.04 -0.09 0.04 -0.1 0.04 -0.09 0.03 -0.1 0.03 -0.1 0.02 -0.1 0.02 -0.1 0.01 -0.1 0.01 -0.11 0 0 0zm-39.28 -0.6l39.28 0 0 0.6 -39.28 0 0 0 0 -0.6zm-2.04 -1.44l0.6 0 0 0 0.01 0.07 0 0.07 0.01 0.07 0.01 0.08 0.02 0.07 0.02 0.06 0.02 0.07 0.03 0.06 0.03 0.07 0.03 0.06 0.03 0.06 0.04 0.06 0.04 0.06 0.04 0.06 0.05 0.04 0.05 0.05 0.05 0.05 0.04 0.04 0.06 0.05 0.06 0.04 0.06 0.04 0.06 0.03 0.06 0.03 0.07 0.03 0.06 0.03 0.07 0.02 0.06 0.02 0.07 0.02 0.08 0.01 0.07 0.01 0.07 0 0.07 0.01 0 0.6 -0.1 0 -0.11 -0.01 -0.1 -0.01 -0.1 -0.02 -0.1 -0.02 -0.1 -0.03 -0.09 -0.03 -0.09 -0.04 -0.09 -0.04 -0.09 -0.04 -0.09 -0.05 -0.08 -0.06 -0.08 -0.05 -0.07 -0.06 -0.09 -0.07 -0.06 -0.07 -0.07 -0.06 -0.07 -0.09 -0.06 -0.07 -0.05 -0.08 -0.06 -0.08 -0.05 -0.09 -0.04 -0.09 -0.04 -0.09 -0.04 -0.09 -0.03 -0.1 -0.03 -0.09 -0.02 -0.1 -0.02 -0.1 -0.01 -0.1 -0.01 -0.11 0 -0.1 0 0zm0.6 -22.35l0 22.35 -0.6 0 0 -22.35 0 0 0.6 0zm1.44 -2.05l0 0.61 0 0 -0.07 0 -0.07 0.01 -0.07 0.01 -0.08 0.01 -0.07 0.02 -0.06 0.01 -0.07 0.03 -0.06 0.02 -0.07 0.03 -0.06 0.04 -0.06 0.03 -0.06 0.04 -0.06 0.04 -0.06 0.04 -0.04 0.04 -0.05 0.05 -0.05 0.06 -0.05 0.04 -0.04 0.06 -0.04 0.06 -0.04 0.06 -0.03 0.06 -0.03 0.06 -0.03 0.06 -0.03 0.07 -0.02 0.06 -0.02 0.07 -0.02 0.07 -0.01 0.07 -0.01 0.08 0 0.07 -0.01 0.07 -0.6 0 0 -0.1 0.01 -0.11 0.01 -0.1 0.02 -0.1 0.02 -0.1 0.03 -0.1 0.03 -0.09 0.04 -0.1 0.04 -0.09 0.04 -0.09 0.05 -0.08 0.06 -0.08 0.05 -0.08 0.06 -0.08 0.07 -0.08 0.07 -0.07 0.06 -0.06 0.09 -0.07 0.07 -0.06 0.08 -0.05 0.08 -0.06 0.09 -0.05 0.09 -0.04 0.09 -0.04 0.09 -0.04 0.09 -0.03 0.1 -0.03 0.1 -0.02 0.1 -0.02 0.1 -0.02 0.11 0 0.1 -0.01 0 0z"/>
  <path fill="#99CFBA" d="M148.87 0.3l10.73 0c0.34,0 0.61,0.28 0.61,0.61l0 5.54c0,0.33 -0.27,0.6 -0.61,0.6l-10.73 0c-0.33,0 -0.6,-0.27 -0.6,-0.6l0 -5.54c0,-0.33 0.27,-0.61 0.6,-0.61zm23.98 0l10.73 0c0.33,0 0.6,0.28 0.6,0.61l0 5.54c0,0.33 -0.27,0.6 -0.6,0.6l-10.73 0c-0.34,0 -0.61,-0.27 -0.61,-0.6l0 -5.54c0,-0.33 0.27,-0.61 0.61,-0.61z"/>
  <path fill="#2B2A29" fill-rule="nonzero" d="M159.6 0.61l-10.73 0 0 -0.61 10.73 0 0 0 0 0.61zm0.91 0.3l-0.6 0 0 0 0 -0.02 0 -0.01 -0.01 -0.01 0 -0.02 0 -0.02 -0.01 -0.01 0 -0.01 -0.01 -0.02 -0.01 -0.02 0 0 -0.01 -0.02 0 -0.01 -0.01 -0.01 -0.01 -0.01 -0.02 -0.02 0 0 -0.01 -0.01 -0.01 -0.01 -0.02 -0.02 -0.01 0 -0.01 -0.01 -0.01 -0.01 -0.01 0 -0.02 -0.01 -0.01 -0.01 -0.02 0 -0.01 0 -0.02 -0.01 -0.01 0 -0.02 0 0 0 -0.03 0 0 -0.61 0.05 0 0.05 0 0.05 0.01 0.04 0.01 0.04 0.01 0.04 0.01 0.05 0.01 0.04 0.02 0.04 0.02 0.04 0.02 0.04 0.02 0.03 0.03 0.04 0.02 0.03 0.03 0.03 0.02 0.04 0.04 0.03 0.03 0.02 0.03 0.03 0.03 0.03 0.04 0.02 0.04 0.02 0.03 0.03 0.05 0.01 0.04 0.02 0.03 0.01 0.05 0.01 0.04 0.01 0.04 0.01 0.05 0.01 0.05 0 0.05 0 0.04 0 0zm-0.6 5.54l0 -5.54 0.6 0 0 5.54 0 0 -0.6 0zm-0.31 0.91l0 -0.61 0 0 0.03 0 0 0 0.02 0 0.01 -0.01 0.02 0 0.01 -0.01 0.02 0 0.01 -0.01 0.02 0 0.01 -0.01 0.01 0 0.01 -0.01 0.01 -0.01 0.02 -0.01 0.01 -0.01 0.01 -0.01 0 0 0.02 -0.02 0.01 -0.02 0.01 -0.01 0 -0.01 0.01 -0.01 0.01 -0.01 0 -0.01 0.01 -0.02 0 -0.01 0.01 -0.02 0 -0.01 0 -0.02 0.01 -0.01 0 -0.01 0 -0.02 0.6 0 0 0.04 0 0.05 -0.01 0.05 -0.01 0.04 -0.01 0.05 -0.01 0.04 -0.01 0.04 -0.02 0.04 -0.02 0.04 -0.02 0.04 -0.02 0.04 -0.02 0.04 -0.03 0.03 -0.03 0.03 -0.02 0.03 -0.03 0.04 -0.04 0.03 -0.03 0.03 -0.03 0.02 -0.04 0.03 -0.03 0.02 -0.04 0.03 -0.04 0.02 -0.04 0.02 -0.04 0.01 -0.05 0.02 -0.04 0.01 -0.04 0.01 -0.04 0.01 -0.05 0 -0.05 0.01 -0.05 0 0 0zm-10.73 -0.61l10.73 0 0 0.61 -10.73 0 0 0 0 -0.61zm-0.91 -0.3l0.61 0 0 0 0 0.02 0 0.01 0 0.01 0.01 0.02 0 0.01 0 0.02 0.01 0.01 0.01 0.02 0 0.01 0.01 0.01 0 0.01 0.01 0.01 0.01 0.01 0.01 0.02 0.01 0.02 0.01 0 0 0.01 0.02 0.01 0.02 0.01 0 0.01 0.02 0.01 0.01 0 0.01 0.01 0.02 0 0.01 0.01 0.01 0 0.02 0.01 0.01 0 0.02 0.01 0.01 0 0.01 0 0.02 0 0 0.61 -0.04 0 -0.05 -0.01 -0.05 0 -0.04 -0.01 -0.05 -0.01 -0.04 -0.01 -0.05 -0.02 -0.03 -0.01 -0.04 -0.02 -0.05 -0.02 -0.03 -0.03 -0.04 -0.02 -0.04 -0.03 -0.02 -0.02 -0.03 -0.03 -0.04 -0.03 -0.04 -0.04 -0.02 -0.03 -0.02 -0.03 -0.03 -0.03 -0.03 -0.04 -0.02 -0.04 -0.02 -0.04 -0.02 -0.04 -0.01 -0.04 -0.02 -0.04 -0.01 -0.04 -0.01 -0.05 -0.01 -0.04 0 -0.05 -0.01 -0.05 0 -0.04 0 0zm0.61 -5.54l0 5.54 -0.61 0 0 -5.54 0 0 0.61 0zm0.3 -0.91l0 0.61 0 0 -0.02 0 -0.01 0 -0.01 0 -0.02 0 -0.01 0.01 -0.02 0 -0.01 0 -0.01 0.01 -0.02 0.01 -0.01 0 -0.01 0.01 -0.02 0.01 0 0 -0.02 0.02 -0.02 0.01 0 0.01 -0.01 0 -0.01 0.02 -0.01 0.01 -0.01 0.01 -0.01 0.01 0 0.02 -0.01 0 0 0.02 -0.02 0.02 0 0.01 0 0.01 0 0.02 -0.01 0.02 0 0.01 0 0.01 0 0.02 -0.61 0 0 -0.04 0.01 -0.05 0 -0.05 0.01 -0.05 0.01 -0.04 0.01 -0.04 0.02 -0.05 0.01 -0.03 0.02 -0.04 0.02 -0.05 0.02 -0.03 0.03 -0.04 0.03 -0.04 0.02 -0.03 0.02 -0.03 0.04 -0.03 0.04 -0.04 0.03 -0.02 0.02 -0.03 0.04 -0.02 0.04 -0.03 0.03 -0.02 0.05 -0.02 0.04 -0.02 0.03 -0.01 0.05 -0.02 0.04 -0.01 0.05 -0.01 0.04 -0.01 0.05 -0.01 0.05 0 0.04 0 0 0zm34.71 0.61l-10.73 0 0 -0.61 10.73 0 0 0 0 0.61zm0.91 0.3l-0.61 0 0 0 0 -0.02 0 -0.01 0 -0.01 -0.01 -0.02 0 -0.02 -0.01 -0.01 0 -0.01 -0.01 -0.02 0 -0.02 -0.01 0 -0.01 -0.02 0 -0.01 -0.01 -0.01 -0.01 -0.01 -0.02 -0.02 0 0 0 -0.01 -0.02 -0.01 -0.02 -0.02 -0.01 0 -0.01 -0.01 -0.01 -0.01 -0.01 0 -0.02 -0.01 -0.01 -0.01 -0.01 0 -0.02 0 -0.01 -0.01 -0.02 0 -0.01 0 -0.01 0 -0.02 0 0 -0.61 0.04 0 0.05 0 0.05 0.01 0.04 0.01 0.04 0.01 0.04 0.01 0.05 0.01 0.04 0.02 0.04 0.02 0.04 0.02 0.04 0.02 0.03 0.03 0.04 0.02 0.03 0.03 0.03 0.02 0.04 0.04 0.03 0.03 0.03 0.03 0.02 0.03 0.03 0.04 0.02 0.04 0.02 0.03 0.03 0.05 0.01 0.04 0.02 0.03 0.02 0.05 0.01 0.04 0.01 0.04 0.01 0.05 0 0.05 0.01 0.05 0 0.04 0 0zm-0.61 5.54l0 -5.54 0.61 0 0 5.54 0 0 -0.61 0zm-0.3 0.91l0 -0.61 0 0 0.02 0 0.01 0 0.01 0 0.02 -0.01 0.01 0 0.02 -0.01 0.01 0 0.01 -0.01 0.02 0 0.01 -0.01 0.01 0 0.01 -0.01 0.01 -0.01 0.02 -0.01 0.02 -0.01 0 -0.01 0 0 0.02 -0.02 0.01 -0.02 0.01 -0.01 0 -0.01 0.01 -0.01 0.01 -0.01 0 -0.01 0.01 -0.02 0 -0.01 0.01 -0.02 0 -0.01 0.01 -0.02 0 -0.01 0 -0.01 0 -0.02 0.61 0 0 0.04 -0.01 0.05 0 0.05 -0.01 0.04 -0.01 0.05 -0.01 0.04 -0.02 0.04 -0.02 0.04 -0.01 0.04 -0.03 0.04 -0.02 0.04 -0.02 0.04 -0.03 0.03 -0.02 0.03 -0.03 0.03 -0.03 0.04 -0.04 0.03 -0.03 0.03 -0.03 0.02 -0.04 0.03 -0.03 0.02 -0.04 0.03 -0.04 0.02 -0.04 0.02 -0.04 0.01 -0.05 0.02 -0.04 0.01 -0.04 0.01 -0.04 0.01 -0.05 0 -0.05 0.01 -0.04 0 0 0zm-10.73 -0.61l10.73 0 0 0.61 -10.73 0 0 0 0 -0.61zm-0.91 -0.3l0.6 0 0 0 0 0.02 0 0.01 0.01 0.01 0 0.02 0 0.01 0.01 0.02 0 0.01 0.01 0.02 0 0.01 0.01 0.01 0.01 0.01 0 0.01 0.01 0.01 0.01 0.02 0.02 0.02 0 0 0.01 0.01 0.01 0.01 0.02 0.01 0.01 0.01 0.01 0.01 0.01 0 0.01 0.01 0.02 0 0.02 0.01 0 0 0.02 0.01 0.02 0 0.01 0.01 0.02 0 0 0 0.03 0 0 0.61 -0.05 0 -0.05 -0.01 -0.05 0 -0.04 -0.01 -0.04 -0.01 -0.04 -0.01 -0.05 -0.02 -0.04 -0.01 -0.03 -0.02 -0.05 -0.02 -0.04 -0.03 -0.03 -0.02 -0.04 -0.03 -0.03 -0.02 -0.03 -0.03 -0.04 -0.03 -0.03 -0.04 -0.02 -0.03 -0.03 -0.03 -0.03 -0.03 -0.02 -0.04 -0.02 -0.04 -0.03 -0.04 -0.01 -0.04 -0.02 -0.04 -0.01 -0.04 -0.01 -0.04 -0.01 -0.05 -0.01 -0.04 -0.01 -0.05 0 -0.05 0 -0.04 0 0zm0.6 -5.54l0 5.54 -0.6 0 0 -5.54 0 0 0.6 0zm0.31 -0.91l0 0.61 0 0 -0.03 0 0 0 -0.02 0 -0.01 0 -0.02 0.01 -0.02 0 0 0 -0.02 0.01 -0.02 0.01 -0.01 0 -0.01 0.01 -0.01 0.01 -0.01 0 -0.02 0.02 -0.01 0.01 -0.01 0.01 0 0 -0.02 0.02 -0.01 0.01 -0.01 0.01 0 0.01 -0.01 0.02 0 0 -0.01 0.02 -0.01 0.02 0 0.01 -0.01 0.01 0 0.02 0 0.02 -0.01 0.01 0 0.01 0 0.02 -0.6 0 0 -0.04 0 -0.05 0.01 -0.05 0.01 -0.05 0.01 -0.04 0.01 -0.04 0.01 -0.05 0.02 -0.03 0.01 -0.04 0.03 -0.05 0.02 -0.03 0.02 -0.04 0.03 -0.04 0.03 -0.03 0.02 -0.03 0.03 -0.03 0.04 -0.04 0.03 -0.02 0.03 -0.03 0.04 -0.02 0.03 -0.03 0.04 -0.02 0.05 -0.02 0.03 -0.02 0.04 -0.01 0.05 -0.02 0.04 -0.01 0.04 -0.01 0.04 -0.01 0.05 -0.01 0.05 0 0.05 0 0 0z"/>
  <path fill="#99CFBA" d="M2.04 75.93l87.66 0c0.96,0 1.74,0.79 1.74,1.74l0 22.35c0,0.96 -0.78,1.74 -1.74,1.74l-87.66 0c-0.95,0 -1.74,-0.78 -1.74,-1.74l0 -22.35c0,-0.95 0.79,-1.74 1.74,-1.74z"/>
  <path fill="#2B2A29" fill-rule="nonzero" d="M89.7 76.24l-87.66 0 0 -0.61 87.66 0 0 0 0 0.61zm2.04 1.43l-0.6 0 0 0 -0.01 -0.07 0 -0.07 -0.01 -0.07 -0.01 -0.08 -0.02 -0.07 -0.02 -0.06 -0.02 -0.07 -0.03 -0.06 -0.03 -0.07 -0.03 -0.06 -0.03 -0.06 -0.04 -0.06 -0.04 -0.05 -0.04 -0.06 -0.05 -0.05 -0.05 -0.05 -0.05 -0.05 -0.05 -0.05 -0.05 -0.04 -0.06 -0.04 -0.06 -0.04 -0.06 -0.03 -0.06 -0.03 -0.07 -0.03 -0.06 -0.03 -0.07 -0.02 -0.06 -0.02 -0.07 -0.02 -0.08 -0.01 -0.07 -0.01 -0.07 0 -0.07 0 0 -0.61 0.1 0 0.11 0.01 0.1 0.01 0.1 0.02 0.1 0.02 0.1 0.03 0.09 0.03 0.09 0.04 0.09 0.04 0.09 0.04 0.09 0.06 0.08 0.05 0.08 0.06 0.08 0.06 0.07 0.06 0.07 0.07 0.07 0.07 0.06 0.07 0.07 0.08 0.05 0.08 0.06 0.09 0.05 0.08 0.04 0.09 0.04 0.09 0.04 0.09 0.03 0.1 0.03 0.1 0.02 0.1 0.02 0.09 0.01 0.1 0.01 0.11 0 0.1 0 0zm-0.6 22.35l0 -22.35 0.6 0 0 22.35 0 0 -0.6 0zm-1.44 2.05l0 -0.61 0 0 0.07 0 0.07 -0.01 0.07 -0.01 0.08 -0.01 0.07 -0.02 0.06 -0.01 0.07 -0.03 0.06 -0.02 0.07 -0.03 0.06 -0.03 0.06 -0.04 0.06 -0.04 0.06 -0.04 0.05 -0.04 0.05 -0.04 0.05 -0.05 0.05 -0.05 0.05 -0.05 0.04 -0.06 0.04 -0.05 0.04 -0.06 0.03 -0.06 0.03 -0.07 0.03 -0.06 0.03 -0.07 0.02 -0.06 0.02 -0.07 0.02 -0.07 0.01 -0.07 0.01 -0.07 0 -0.07 0.01 -0.08 0.6 0 0 0.11 -0.01 0.1 -0.01 0.1 -0.02 0.1 -0.02 0.1 -0.03 0.1 -0.03 0.09 -0.04 0.1 -0.04 0.09 -0.04 0.09 -0.05 0.08 -0.06 0.08 -0.05 0.08 -0.07 0.08 -0.06 0.08 -0.07 0.07 -0.07 0.06 -0.07 0.07 -0.08 0.06 -0.08 0.06 -0.08 0.05 -0.09 0.05 -0.09 0.05 -0.09 0.04 -0.09 0.03 -0.09 0.04 -0.1 0.03 -0.1 0.02 -0.1 0.01 -0.1 0.02 -0.11 0.01 -0.1 0 0 0zm-87.66 -0.61l87.66 0 0 0.61 -87.66 0 0 0 0 -0.61zm-2.04 -1.44l0.61 0 0 0 0 0.08 0 0.07 0.01 0.07 0.02 0.07 0.01 0.07 0.02 0.07 0.02 0.06 0.03 0.07 0.03 0.06 0.03 0.07 0.04 0.06 0.03 0.06 0.04 0.05 0.05 0.06 0.04 0.05 0.05 0.05 0.05 0.05 0.05 0.04 0.06 0.04 0.05 0.04 0.06 0.04 0.06 0.04 0.06 0.03 0.07 0.03 0.06 0.02 0.07 0.03 0.06 0.01 0.07 0.02 0.08 0.01 0.07 0.01 0.07 0.01 0.07 0 0 0.61 -0.1 0 -0.11 -0.01 -0.1 -0.02 -0.09 -0.01 -0.1 -0.02 -0.1 -0.03 -0.1 -0.04 -0.09 -0.03 -0.09 -0.04 -0.09 -0.05 -0.09 -0.05 -0.08 -0.05 -0.08 -0.06 -0.07 -0.06 -0.08 -0.07 -0.07 -0.06 -0.07 -0.07 -0.06 -0.08 -0.06 -0.08 -0.06 -0.08 -0.05 -0.08 -0.05 -0.08 -0.05 -0.09 -0.04 -0.09 -0.04 -0.1 -0.03 -0.09 -0.03 -0.1 -0.02 -0.1 -0.01 -0.1 -0.02 -0.1 -0.01 -0.1 0 -0.11 0 0zm0.61 -22.35l0 22.35 -0.61 0 0 -22.35 0 0 0.61 0zm1.43 -2.04l0 0.61 0 0 -0.07 0 -0.07 0 -0.07 0.01 -0.08 0.01 -0.07 0.02 -0.06 0.02 -0.07 0.02 -0.06 0.03 -0.07 0.03 -0.06 0.03 -0.06 0.03 -0.06 0.04 -0.05 0.04 -0.06 0.04 -0.05 0.05 -0.05 0.05 -0.05 0.05 -0.04 0.05 -0.05 0.06 -0.04 0.05 -0.03 0.06 -0.04 0.06 -0.03 0.06 -0.03 0.07 -0.03 0.06 -0.02 0.07 -0.02 0.06 -0.01 0.07 -0.02 0.08 -0.01 0.07 0 0.07 0 0.07 -0.61 0 0 -0.1 0.01 -0.11 0.02 -0.1 0.01 -0.09 0.02 -0.1 0.03 -0.1 0.03 -0.1 0.04 -0.09 0.04 -0.09 0.05 -0.09 0.05 -0.08 0.05 -0.09 0.06 -0.08 0.06 -0.08 0.06 -0.07 0.07 -0.07 0.07 -0.07 0.08 -0.06 0.07 -0.06 0.08 -0.06 0.08 -0.05 0.09 -0.06 0.09 -0.04 0.09 -0.04 0.09 -0.04 0.1 -0.03 0.1 -0.03 0.1 -0.02 0.09 -0.02 0.1 -0.01 0.11 -0.01 0.1 0 0 0z"/>
  <path fill="#99CFBA" d="M4.4 70.61l10.74 0c0.33,0 0.6,0.27 0.6,0.6l0 5.54c0,0.34 -0.27,0.61 -0.6,0.61l-10.74 0c-0.33,0 -0.6,-0.27 -0.6,-0.61l0 -5.54c0,-0.33 0.27,-0.6 0.6,-0.6zm72.18 0l10.74 0c0.33,0 0.6,0.27 0.6,0.6l0 5.54c0,0.34 -0.27,0.61 -0.6,0.61l-10.74 0c-0.33,0 -0.6,-0.27 -0.6,-0.61l0 -5.54c0,-0.33 0.27,-0.6 0.6,-0.6zm-24.06 0l10.74 0c0.33,0 0.6,0.27 0.6,0.6l0 5.54c0,0.34 -0.27,0.61 -0.6,0.61l-10.74 0c-0.33,0 -0.6,-0.27 -0.6,-0.61l0 -5.54c0,-0.33 0.27,-0.6 0.6,-0.6zm-24.14 0l10.73 0c0.33,0 0.61,0.27 0.61,0.6l0 5.54c0,0.34 -0.28,0.61 -0.61,0.61l-10.73 0c-0.34,0 -0.61,-0.27 -0.61,-0.61l0 -5.54c0,-0.33 0.27,-0.6 0.61,-0.6z"/>
  <path fill="#2B2A29" fill-rule="nonzero" d="M15.14 70.91l-10.74 0 0 -0.61 10.74 0 0 0 0 0.61zm0.91 0.3l-0.61 0 0 0 0 -0.02 0 -0.01 0 -0.01 -0.01 -0.02 0 -0.01 -0.01 -0.02 0 0 -0.01 -0.02 0 -0.02 -0.01 -0.01 -0.01 -0.01 0 -0.01 -0.01 -0.01 -0.01 -0.02 -0.02 -0.01 0 -0.01 -0.01 0 -0.01 -0.02 -0.02 -0.01 -0.01 -0.01 -0.01 0 -0.01 -0.01 -0.01 -0.01 -0.02 0 -0.01 -0.01 -0.01 0 -0.02 -0.01 -0.01 0 -0.02 -0.01 -0.01 0 -0.01 0 -0.02 0 0 -0.61 0.04 0 0.05 0.01 0.05 0.01 0.04 0 0.04 0.01 0.04 0.01 0.05 0.02 0.04 0.02 0.04 0.01 0.04 0.03 0.04 0.02 0.03 0.02 0.04 0.03 0.03 0.02 0.03 0.03 0.04 0.03 0.03 0.04 0.03 0.03 0.02 0.03 0.03 0.04 0.02 0.03 0.02 0.04 0.03 0.05 0.01 0.03 0.02 0.04 0.02 0.05 0.01 0.04 0.01 0.04 0 0.04 0.01 0.05 0.01 0.05 0 0.04 0 0zm-0.61 5.54l0 -5.54 0.61 0 0 5.54 0 0 -0.61 0zm-0.3 0.91l0 -0.61 0 0 0.02 0 0.01 0 0.01 0 0.02 0 0.01 0 0.02 -0.01 0.01 0 0.01 -0.01 0.02 -0.01 0.01 0 0.01 -0.01 0.01 -0.01 0.01 0 0.02 -0.02 0.01 -0.01 0.01 0 0 -0.01 0.02 -0.02 0.01 -0.01 0.01 -0.01 0 -0.01 0.01 -0.02 0.01 -0.01 0 -0.01 0.01 -0.02 0 -0.01 0.01 -0.01 0 -0.02 0.01 -0.02 0 -0.01 0 -0.01 0 -0.02 0.61 0 0 0.04 -0.01 0.06 -0.01 0.05 0 0.04 -0.01 0.04 -0.01 0.04 -0.02 0.04 -0.02 0.05 -0.01 0.03 -0.03 0.05 -0.02 0.03 -0.02 0.04 -0.03 0.04 -0.02 0.03 -0.03 0.03 -0.03 0.04 -0.04 0.03 -0.03 0.02 -0.03 0.03 -0.04 0.03 -0.03 0.02 -0.04 0.02 -0.04 0.02 -0.04 0.02 -0.04 0.02 -0.05 0.01 -0.04 0.01 -0.04 0.01 -0.04 0.01 -0.05 0.01 -0.05 0 -0.04 0 0 0zm-10.74 -0.61l10.74 0 0 0.61 -10.74 0 0 0 0 -0.61zm-0.91 -0.3l0.61 0 0 0 0 0.02 0 0.01 0 0.01 0.01 0.02 0 0.02 0.01 0.01 0 0.01 0.01 0.02 0 0.01 0.01 0.01 0.01 0.02 0 0.01 0.01 0.01 0.01 0.01 0.02 0.02 0 0.01 0 0 0.02 0.01 0.02 0.02 0.01 0 0.01 0.01 0.01 0.01 0.01 0 0.02 0.01 0.02 0.01 0 0 0.02 0.01 0.01 0 0.02 0 0.01 0 0.01 0 0.02 0 0 0.61 -0.04 0 -0.05 0 -0.05 -0.01 -0.04 -0.01 -0.04 -0.01 -0.04 -0.01 -0.05 -0.02 -0.04 -0.01 -0.03 -0.01 -0.05 -0.03 -0.04 -0.02 -0.04 -0.02 -0.03 -0.03 -0.03 -0.03 -0.03 -0.02 -0.04 -0.03 -0.03 -0.04 -0.03 -0.03 -0.02 -0.03 -0.03 -0.04 -0.02 -0.04 -0.02 -0.03 -0.03 -0.05 -0.01 -0.03 -0.02 -0.05 -0.02 -0.04 -0.01 -0.04 -0.01 -0.04 -0.01 -0.04 0 -0.05 -0.01 -0.06 0 -0.04 0 0zm0.61 -5.54l0 5.54 -0.61 0 0 -5.54 0 0 0.61 0zm0.3 -0.91l0 0.61 0 0 -0.02 0 -0.01 0 -0.01 0 -0.02 0.01 -0.01 0 -0.02 0.01 0 0 -0.02 0.01 -0.02 0 -0.01 0.01 -0.01 0.01 -0.01 0 -0.01 0.01 -0.02 0.01 -0.02 0.02 0 0 0 0.01 -0.02 0.01 -0.01 0.02 -0.01 0.01 0 0.01 -0.01 0.01 -0.01 0.01 0 0.02 -0.01 0.02 0 0 -0.01 0.02 0 0.01 -0.01 0.02 0 0.01 0 0.01 0 0.02 -0.61 0 0 -0.04 0.01 -0.05 0 -0.05 0.01 -0.04 0.01 -0.04 0.01 -0.04 0.02 -0.05 0.02 -0.04 0.01 -0.03 0.03 -0.05 0.02 -0.04 0.02 -0.03 0.03 -0.04 0.02 -0.03 0.03 -0.03 0.03 -0.04 0.04 -0.03 0.03 -0.03 0.03 -0.02 0.03 -0.03 0.04 -0.02 0.04 -0.02 0.05 -0.03 0.03 -0.01 0.04 -0.02 0.05 -0.02 0.04 -0.01 0.04 -0.01 0.04 0 0.05 -0.01 0.05 -0.01 0.04 0 0 0zm82.92 0.61l-10.74 0 0 -0.61 10.74 0 0 0 0 0.61zm0.91 0.3l-0.61 0 0 0 0 -0.02 0 -0.01 0 -0.01 -0.01 -0.02 0 -0.01 -0.01 -0.02 0 0 -0.01 -0.02 0 -0.02 -0.01 -0.01 -0.01 -0.01 0 -0.01 -0.01 -0.01 -0.01 -0.02 -0.02 -0.01 0 -0.01 0 0 -0.02 -0.02 -0.02 -0.01 -0.01 -0.01 -0.01 0 -0.01 -0.01 -0.01 -0.01 -0.02 0 -0.01 -0.01 -0.01 0 -0.02 -0.01 -0.01 0 -0.02 -0.01 -0.01 0 -0.01 0 -0.02 0 0 -0.61 0.04 0 0.05 0.01 0.05 0.01 0.04 0 0.04 0.01 0.04 0.01 0.05 0.02 0.04 0.02 0.04 0.01 0.04 0.03 0.04 0.02 0.03 0.02 0.04 0.03 0.03 0.02 0.03 0.03 0.04 0.03 0.03 0.04 0.03 0.03 0.02 0.03 0.03 0.04 0.02 0.03 0.02 0.04 0.03 0.05 0.01 0.03 0.02 0.04 0.02 0.05 0.01 0.04 0.01 0.04 0.01 0.04 0 0.05 0.01 0.05 0 0.04 0 0zm-0.61 5.54l0 -5.54 0.61 0 0 5.54 0 0 -0.61 0zm-0.3 0.91l0 -0.61 0 0 0.02 0 0.01 0 0.01 0 0.02 0 0.01 0 0.02 -0.01 0.01 0 0.01 -0.01 0.02 -0.01 0.01 0 0.01 -0.01 0.01 -0.01 0.01 0 0.02 -0.02 0.02 -0.01 0 0 0 -0.01 0.02 -0.02 0.01 -0.01 0.01 -0.01 0 -0.01 0.01 -0.02 0.01 -0.01 0 -0.01 0.01 -0.02 0 -0.01 0.01 -0.01 0 -0.02 0.01 -0.02 0 -0.01 0 -0.01 0 -0.02 0.61 0 0 0.04 -0.01 0.06 0 0.05 -0.01 0.04 -0.01 0.04 -0.01 0.04 -0.02 0.04 -0.02 0.05 -0.01 0.03 -0.03 0.05 -0.02 0.03 -0.02 0.04 -0.03 0.04 -0.02 0.03 -0.03 0.03 -0.03 0.04 -0.04 0.03 -0.03 0.02 -0.03 0.03 -0.04 0.03 -0.03 0.02 -0.04 0.02 -0.04 0.02 -0.04 0.02 -0.04 0.02 -0.05 0.01 -0.04 0.01 -0.04 0.01 -0.04 0.01 -0.05 0.01 -0.05 0 -0.04 0 0 0zm-10.74 -0.61l10.74 0 0 0.61 -10.74 0 0 0 0 -0.61zm-0.91 -0.3l0.61 0 0 0 0 0.02 0 0.01 0 0.01 0.01 0.02 0 0.02 0.01 0.01 0 0.01 0.01 0.02 0 0.01 0.01 0.01 0.01 0.02 0 0.01 0.01 0.01 0.01 0.01 0.02 0.02 0 0.01 0 0 0.02 0.01 0.02 0.02 0.01 0 0.01 0.01 0.01 0.01 0.01 0 0.02 0.01 0.02 0.01 0 0 0.02 0.01 0.01 0 0.02 0 0.01 0 0.01 0 0.02 0 0 0.61 -0.04 0 -0.05 0 -0.05 -0.01 -0.04 -0.01 -0.04 -0.01 -0.04 -0.01 -0.05 -0.02 -0.04 -0.01 -0.03 -0.01 -0.05 -0.03 -0.04 -0.02 -0.03 -0.02 -0.04 -0.03 -0.03 -0.03 -0.03 -0.02 -0.04 -0.03 -0.03 -0.04 -0.03 -0.03 -0.02 -0.03 -0.03 -0.04 -0.02 -0.04 -0.02 -0.03 -0.03 -0.05 -0.01 -0.03 -0.02 -0.05 -0.02 -0.04 -0.01 -0.04 -0.01 -0.04 -0.01 -0.04 0 -0.05 -0.01 -0.06 0 -0.04 0 0zm0.61 -5.54l0 5.54 -0.61 0 0 -5.54 0 0 0.61 0zm0.3 -0.91l0 0.61 0 0 -0.02 0 -0.01 0 -0.01 0 -0.02 0.01 -0.01 0 -0.02 0.01 0 0 -0.02 0.01 -0.02 0 -0.01 0.01 -0.01 0.01 -0.01 0 -0.01 0.01 -0.02 0.01 -0.02 0.02 0 0 0 0.01 -0.02 0.01 -0.01 0.02 -0.01 0.01 0 0.01 -0.01 0.01 -0.01 0.01 0 0.02 -0.01 0.02 0 0 -0.01 0.02 0 0.01 -0.01 0.02 0 0.01 0 0.01 0 0.02 -0.61 0 0 -0.04 0.01 -0.05 0 -0.05 0.01 -0.04 0.01 -0.04 0.01 -0.04 0.02 -0.05 0.02 -0.04 0.01 -0.03 0.03 -0.05 0.02 -0.04 0.02 -0.03 0.03 -0.04 0.02 -0.03 0.03 -0.03 0.03 -0.04 0.04 -0.03 0.03 -0.03 0.03 -0.02 0.04 -0.03 0.03 -0.02 0.04 -0.02 0.05 -0.03 0.03 -0.01 0.04 -0.02 0.05 -0.02 0.04 -0.01 0.04 -0.01 0.04 0 0.05 -0.01 0.05 -0.01 0.04 0 0 0zm-13.32 0.61l-10.74 0 0 -0.61 10.74 0 0 0 0 0.61zm0.9 0.3l-0.6 0 0 0 0 -0.02 0 -0.01 0 -0.01 -0.01 -0.02 0 -0.01 -0.01 -0.02 0 0 -0.01 -0.02 0 -0.02 -0.01 -0.01 -0.01 -0.01 0 -0.01 -0.01 -0.01 -0.01 -0.02 -0.02 -0.01 0 -0.01 -0.01 0 -0.01 -0.02 -0.02 -0.01 -0.01 -0.01 -0.01 0 -0.01 -0.01 -0.01 -0.01 -0.02 0 -0.01 -0.01 -0.01 0 -0.02 -0.01 -0.02 0 -0.01 -0.01 -0.01 0 -0.01 0 -0.02 0 0 -0.61 0.04 0 0.05 0.01 0.05 0.01 0.04 0 0.04 0.01 0.04 0.01 0.05 0.02 0.04 0.02 0.04 0.01 0.04 0.03 0.04 0.02 0.03 0.02 0.04 0.03 0.03 0.02 0.03 0.03 0.04 0.03 0.03 0.04 0.03 0.03 0.02 0.03 0.03 0.04 0.02 0.03 0.02 0.04 0.03 0.05 0.01 0.03 0.02 0.04 0.01 0.05 0.02 0.04 0.01 0.04 0 0.04 0.01 0.05 0 0.05 0 0.04 0 0zm-0.6 5.54l0 -5.54 0.6 0 0 5.54 0 0 -0.6 0zm-0.3 0.91l0 -0.61 0 0 0.02 0 0.01 0 0.01 0 0.01 0 0.02 0 0.02 -0.01 0.01 0 0.01 -0.01 0.02 -0.01 0.01 0 0.01 -0.01 0.01 -0.01 0.01 0 0.02 -0.02 0.01 -0.01 0.01 0 0 -0.01 0.02 -0.02 0.01 -0.01 0.01 -0.01 0 -0.01 0.01 -0.02 0.01 -0.01 0 -0.01 0.01 -0.02 0 -0.01 0.01 -0.01 0 -0.02 0.01 -0.02 0 -0.01 0 -0.01 0 -0.02 0.6 0 0 0.04 0 0.06 -0.01 0.05 0 0.04 -0.01 0.04 -0.02 0.04 -0.01 0.04 -0.02 0.05 -0.01 0.03 -0.03 0.05 -0.02 0.03 -0.02 0.04 -0.03 0.04 -0.02 0.03 -0.03 0.03 -0.03 0.04 -0.04 0.03 -0.03 0.02 -0.03 0.03 -0.04 0.03 -0.03 0.02 -0.04 0.02 -0.04 0.02 -0.04 0.02 -0.04 0.02 -0.05 0.01 -0.04 0.01 -0.04 0.01 -0.04 0.01 -0.05 0.01 -0.05 0 -0.04 0 0 0zm-10.74 -0.61l10.74 0 0 0.61 -10.74 0 0 0 0 -0.61zm-0.9 -0.3l0.6 0 0 0 0 0.02 0 0.01 0.01 0.01 0 0.02 0 0.02 0.01 0.01 0 0.01 0.01 0.02 0 0.01 0.01 0.01 0.01 0.02 0 0.01 0.01 0.01 0.01 0.01 0.02 0.02 0 0.01 0.01 0 0.01 0.01 0.02 0.02 0.01 0 0.01 0.01 0.01 0.01 0.01 0 0.02 0.01 0.02 0.01 0 0 0.02 0.01 0.02 0 0.01 0 0.02 0 0 0 0.02 0 0 0.61 -0.04 0 -0.05 0 -0.05 -0.01 -0.04 -0.01 -0.04 -0.01 -0.04 -0.01 -0.05 -0.02 -0.04 -0.01 -0.03 -0.01 -0.05 -0.03 -0.04 -0.02 -0.03 -0.02 -0.04 -0.03 -0.03 -0.03 -0.03 -0.02 -0.04 -0.03 -0.03 -0.04 -0.03 -0.03 -0.02 -0.03 -0.03 -0.04 -0.02 -0.04 -0.02 -0.03 -0.03 -0.05 -0.01 -0.03 -0.02 -0.05 -0.01 -0.04 -0.01 -0.04 -0.02 -0.04 0 -0.04 -0.01 -0.05 0 -0.06 0 -0.04 0 0zm0.6 -5.54l0 5.54 -0.6 0 0 -5.54 0 0 0.6 0zm0.3 -0.91l0 0.61 0 0 -0.02 0 0 0 -0.02 0 -0.01 0.01 -0.02 0 -0.02 0.01 0 0 -0.02 0.01 -0.02 0 -0.01 0.01 -0.01 0.01 -0.01 0 -0.01 0.01 -0.02 0.01 -0.01 0.02 -0.01 0 0 0.01 -0.02 0.01 -0.01 0.02 -0.01 0.01 0 0.01 -0.01 0.01 -0.01 0.01 0 0.02 -0.01 0.02 0 0 -0.01 0.02 0 0.01 0 0.02 -0.01 0.01 0 0.01 0 0.02 -0.6 0 0 -0.04 0 -0.05 0.01 -0.05 0 -0.04 0.02 -0.04 0.01 -0.04 0.01 -0.05 0.02 -0.04 0.01 -0.03 0.03 -0.05 0.02 -0.04 0.02 -0.03 0.03 -0.04 0.02 -0.03 0.03 -0.03 0.03 -0.04 0.04 -0.03 0.03 -0.03 0.03 -0.02 0.04 -0.03 0.03 -0.02 0.04 -0.02 0.05 -0.03 0.03 -0.01 0.04 -0.02 0.05 -0.02 0.04 -0.01 0.04 -0.01 0.04 0 0.05 -0.01 0.05 -0.01 0.04 0 0 0zm-13.41 0.61l-10.73 0 0 -0.61 10.73 0 0 0 0 0.61zm0.91 0.3l-0.61 0 0 0 0 -0.02 0 -0.01 0 -0.01 0 -0.02 -0.01 -0.01 0 -0.02 0 0 -0.01 -0.02 -0.01 -0.02 0 -0.01 -0.01 -0.01 -0.01 -0.01 0 -0.01 -0.02 -0.02 -0.01 -0.01 -0.01 -0.01 0 0 -0.02 -0.02 -0.01 -0.01 -0.01 -0.01 -0.01 0 -0.02 -0.01 -0.01 -0.01 -0.01 0 -0.02 -0.01 -0.01 0 -0.01 -0.01 -0.02 0 -0.02 -0.01 -0.01 0 -0.01 0 -0.02 0 0 -0.61 0.04 0 0.05 0.01 0.05 0.01 0.05 0 0.04 0.01 0.04 0.01 0.04 0.02 0.04 0.02 0.04 0.01 0.05 0.03 0.03 0.02 0.04 0.02 0.04 0.03 0.03 0.02 0.03 0.03 0.03 0.03 0.04 0.04 0.02 0.03 0.03 0.03 0.02 0.04 0.03 0.03 0.02 0.04 0.02 0.05 0.02 0.03 0.01 0.04 0.02 0.05 0.01 0.04 0.01 0.04 0.01 0.04 0.01 0.05 0 0.05 0 0.04 0 0zm-0.61 5.54l0 -5.54 0.61 0 0 5.54 0 0 -0.61 0zm-0.3 0.91l0 -0.61 0 0 0.02 0 0.01 0 0.01 0 0.02 0 0.02 0 0.01 -0.01 0.01 0 0.02 -0.01 0.01 -0.01 0.01 0 0.02 -0.01 0.01 -0.01 0.01 0 0.01 -0.02 0.02 -0.01 0 0 0.01 -0.01 0.01 -0.02 0.02 -0.01 0 -0.01 0.01 -0.01 0.01 -0.02 0 -0.01 0.01 -0.01 0.01 -0.02 0 -0.01 0 -0.01 0.01 -0.02 0 -0.02 0 -0.01 0 -0.01 0 -0.02 0.61 0 0 0.04 0 0.06 -0.01 0.05 -0.01 0.04 -0.01 0.04 -0.01 0.04 -0.02 0.04 -0.01 0.05 -0.02 0.03 -0.02 0.05 -0.02 0.03 -0.03 0.04 -0.02 0.04 -0.03 0.03 -0.02 0.03 -0.04 0.04 -0.03 0.03 -0.03 0.02 -0.03 0.03 -0.04 0.03 -0.04 0.02 -0.03 0.02 -0.05 0.02 -0.04 0.02 -0.04 0.02 -0.04 0.01 -0.04 0.01 -0.04 0.01 -0.05 0.01 -0.05 0.01 -0.05 0 -0.04 0 0 0zm-10.73 -0.61l10.73 0 0 0.61 -10.73 0 0 0 0 -0.61zm-0.91 -0.3l0.61 0 0 0 0 0.02 0 0.01 0 0.01 0 0.02 0 0.02 0.01 0.01 0 0.01 0.01 0.02 0.01 0.01 0 0.01 0.01 0.02 0.01 0.01 0 0.01 0.02 0.01 0.01 0.02 0 0.01 0.01 0 0.02 0.01 0.01 0.02 0.01 0 0.01 0.01 0.02 0.01 0 0 0.02 0.01 0.02 0.01 0.01 0 0.01 0.01 0.02 0 0.02 0 0.01 0 0.01 0 0.02 0 0 0.61 -0.04 0 -0.06 0 -0.05 -0.01 -0.04 -0.01 -0.04 -0.01 -0.04 -0.01 -0.05 -0.02 -0.03 -0.01 -0.04 -0.01 -0.05 -0.03 -0.04 -0.02 -0.03 -0.02 -0.04 -0.03 -0.03 -0.03 -0.03 -0.02 -0.04 -0.03 -0.03 -0.04 -0.02 -0.03 -0.03 -0.03 -0.03 -0.04 -0.02 -0.04 -0.02 -0.03 -0.02 -0.05 -0.02 -0.03 -0.02 -0.05 -0.01 -0.04 -0.01 -0.04 -0.01 -0.04 -0.01 -0.04 -0.01 -0.05 0 -0.06 0 -0.04 0 0zm0.61 -5.54l0 5.54 -0.61 0 0 -5.54 0 0 0.61 0zm0.3 -0.91l0 0.61 0 0 -0.02 0 -0.01 0 -0.01 0 -0.02 0.01 -0.02 0 -0.01 0.01 -0.01 0 -0.02 0.01 -0.02 0 0 0.01 -0.02 0.01 -0.01 0 -0.01 0.01 -0.01 0.01 -0.02 0.02 -0.01 0 0 0.01 -0.01 0.01 -0.02 0.02 0 0.01 -0.01 0.01 -0.01 0.01 0 0.01 -0.01 0.02 -0.01 0.02 0 0 -0.01 0.02 0 0.01 0 0.02 0 0.01 0 0.01 0 0.02 -0.61 0 0 -0.04 0 -0.05 0.01 -0.05 0.01 -0.04 0.01 -0.04 0.01 -0.04 0.02 -0.05 0.01 -0.04 0.01 -0.03 0.03 -0.05 0.02 -0.04 0.02 -0.03 0.03 -0.04 0.03 -0.03 0.02 -0.03 0.03 -0.04 0.04 -0.03 0.03 -0.03 0.03 -0.02 0.04 -0.03 0.03 -0.02 0.04 -0.02 0.05 -0.03 0.04 -0.01 0.03 -0.02 0.05 -0.02 0.04 -0.01 0.04 -0.01 0.04 0 0.05 -0.01 0.06 -0.01 0.04 0 0 0z"/>
  <path fill="#F5B2B6" d="M49.06 48.71l87.65 0c0.96,0 1.74,0.79 1.74,1.75l0 22.34c0,0.96 -0.78,1.75 -1.74,1.75l-87.65 0c-0.96,0 -1.74,-0.79 -1.74,-1.75l0 -22.34c0,-0.96 0.78,-1.75 1.74,-1.75z"/>
  <path fill="#2B2A29" fill-rule="nonzero" d="M136.71 49.02l-87.65 0 0 -0.61 87.65 0 0 0 0 0.61zm2.04 1.44l-0.6 0 0 0 -0.01 -0.08 0 -0.07 -0.01 -0.07 -0.01 -0.07 -0.02 -0.07 -0.02 -0.07 -0.02 -0.06 -0.02 -0.07 -0.03 -0.06 -0.04 -0.07 -0.03 -0.06 -0.04 -0.06 -0.04 -0.05 -0.04 -0.06 -0.05 -0.05 -0.04 -0.05 -0.06 -0.05 -0.05 -0.04 -0.05 -0.04 -0.06 -0.04 -0.06 -0.04 -0.06 -0.04 -0.06 -0.03 -0.06 -0.03 -0.07 -0.03 -0.06 -0.02 -0.07 -0.02 -0.07 -0.01 -0.07 -0.01 -0.08 -0.02 -0.07 0 -0.07 0 0 -0.61 0.1 0 0.11 0.01 0.1 0.02 0.1 0.01 0.1 0.02 0.1 0.03 0.09 0.04 0.1 0.03 0.08 0.04 0.09 0.05 0.09 0.05 0.08 0.05 0.08 0.06 0.08 0.06 0.07 0.06 0.08 0.07 0.06 0.07 0.07 0.08 0.06 0.08 0.06 0.08 0.05 0.08 0.05 0.08 0.04 0.09 0.04 0.09 0.04 0.09 0.03 0.1 0.03 0.1 0.02 0.1 0.02 0.09 0.01 0.11 0.01 0.1 0 0.11 0 0zm-0.6 22.34l0 -22.34 0.6 0 0 22.34 0 0 -0.6 0zm-1.44 2.05l0 -0.61 0 0 0.07 0 0.07 0 0.08 -0.01 0.07 -0.02 0.07 -0.01 0.07 -0.02 0.06 -0.02 0.07 -0.03 0.06 -0.03 0.06 -0.03 0.06 -0.04 0.06 -0.03 0.06 -0.04 0.05 -0.05 0.05 -0.04 0.06 -0.05 0.04 -0.05 0.05 -0.05 0.04 -0.06 0.04 -0.05 0.04 -0.06 0.03 -0.06 0.04 -0.06 0.03 -0.07 0.02 -0.06 0.02 -0.07 0.02 -0.06 0.02 -0.07 0.01 -0.08 0.01 -0.07 0 -0.07 0.01 -0.08 0.6 0 0 0.11 -0.01 0.11 -0.01 0.1 -0.02 0.09 -0.02 0.1 -0.03 0.1 -0.03 0.1 -0.04 0.09 -0.04 0.09 -0.04 0.09 -0.05 0.08 -0.05 0.09 -0.06 0.08 -0.06 0.07 -0.07 0.08 -0.06 0.07 -0.08 0.07 -0.07 0.06 -0.08 0.06 -0.08 0.06 -0.08 0.05 -0.09 0.05 -0.09 0.05 -0.08 0.04 -0.1 0.04 -0.09 0.03 -0.1 0.03 -0.1 0.02 -0.1 0.02 -0.1 0.01 -0.11 0.01 -0.1 0 0 0zm-87.65 -0.61l87.65 0 0 0.61 -87.65 0 0 0 0 -0.61zm-2.05 -1.44l0.61 0 0 0 0 0.08 0.01 0.07 0.01 0.07 0.01 0.08 0.02 0.07 0.01 0.06 0.03 0.07 0.02 0.06 0.03 0.07 0.03 0.06 0.04 0.06 0.04 0.06 0.03 0.05 0.05 0.06 0.04 0.05 0.05 0.05 0.05 0.05 0.05 0.04 0.06 0.05 0.05 0.04 0.07 0.03 0.05 0.04 0.06 0.03 0.07 0.03 0.06 0.03 0.07 0.02 0.07 0.02 0.07 0.01 0.07 0.02 0.07 0.01 0.07 0 0.08 0 0 0.61 -0.11 0 -0.1 -0.01 -0.11 -0.01 -0.09 -0.02 -0.1 -0.02 -0.1 -0.03 -0.1 -0.03 -0.09 -0.04 -0.09 -0.04 -0.09 -0.05 -0.09 -0.05 -0.08 -0.05 -0.08 -0.06 -0.07 -0.06 -0.08 -0.06 -0.07 -0.07 -0.06 -0.07 -0.07 -0.08 -0.06 -0.07 -0.06 -0.08 -0.05 -0.09 -0.05 -0.08 -0.04 -0.09 -0.05 -0.09 -0.03 -0.09 -0.04 -0.1 -0.02 -0.1 -0.03 -0.1 -0.01 -0.09 -0.02 -0.1 -0.01 -0.11 0 -0.11 0 0zm0.61 -22.34l0 22.34 -0.61 0 0 -22.34 0 0 0.61 0zm1.44 -2.05l0 0.61 0 0 -0.08 0 -0.07 0 -0.07 0.02 -0.07 0.01 -0.07 0.01 -0.07 0.02 -0.07 0.02 -0.06 0.03 -0.07 0.03 -0.06 0.03 -0.05 0.04 -0.07 0.04 -0.05 0.04 -0.06 0.04 -0.05 0.04 -0.05 0.05 -0.05 0.05 -0.04 0.05 -0.05 0.06 -0.03 0.05 -0.04 0.06 -0.04 0.06 -0.03 0.07 -0.03 0.06 -0.02 0.07 -0.03 0.06 -0.01 0.07 -0.02 0.07 -0.01 0.07 -0.01 0.07 -0.01 0.07 0 0.08 -0.61 0 0 -0.11 0.01 -0.1 0.02 -0.11 0.01 -0.09 0.03 -0.1 0.02 -0.1 0.04 -0.1 0.03 -0.09 0.05 -0.09 0.04 -0.09 0.05 -0.08 0.05 -0.08 0.06 -0.08 0.06 -0.08 0.07 -0.08 0.06 -0.07 0.07 -0.07 0.08 -0.06 0.07 -0.06 0.08 -0.06 0.08 -0.05 0.09 -0.05 0.09 -0.05 0.09 -0.04 0.09 -0.03 0.1 -0.04 0.1 -0.03 0.1 -0.02 0.09 -0.01 0.11 -0.02 0.1 -0.01 0.11 0 0 0z"/>
  <path fill="#F5B2B6" d="M51.42 43.39l10.73 0c0.33,0 0.6,0.27 0.6,0.61l0 5.54c0,0.33 -0.27,0.6 -0.6,0.6l-10.73 0c-0.34,0 -0.61,-0.27 -0.61,-0.6l0 -5.54c0,-0.34 0.27,-0.61 0.61,-0.61zm72.18 0l10.73 0c0.33,0 0.6,0.27 0.6,0.61l0 5.54c0,0.33 -0.27,0.6 -0.6,0.6l-10.73 0c-0.34,0 -0.61,-0.27 -0.61,-0.6l0 -5.54c0,-0.34 0.27,-0.61 0.61,-0.61zm-24.06 0l10.73 0c0.33,0 0.6,0.27 0.6,0.61l0 5.54c0,0.33 -0.27,0.6 -0.6,0.6l-10.73 0c-0.34,0 -0.61,-0.27 -0.61,-0.6l0 -5.54c0,-0.34 0.27,-0.61 0.61,-0.61zm-24.15 0l10.73 0c0.34,0 0.61,0.27 0.61,0.61l0 5.54c0,0.33 -0.27,0.6 -0.61,0.6l-10.73 0c-0.33,0 -0.61,-0.27 -0.61,-0.6l0 -5.54c0,-0.34 0.28,-0.61 0.61,-0.61z"/>
  <path fill="#2B2A29" fill-rule="nonzero" d="M62.15 43.7l-10.73 0 0 -0.61 10.73 0 0 0 0 0.61zm0.91 0.3l-0.61 0 0 0 0 -0.02 0 -0.01 0 -0.02 -0.01 -0.01 0 -0.02 -0.01 -0.01 0 -0.01 -0.01 -0.02 0 -0.02 -0.01 0 0 -0.02 -0.01 -0.01 -0.01 -0.01 -0.01 -0.02 -0.01 -0.01 -0.01 -0.01 0 0 -0.02 -0.02 -0.02 -0.01 -0.01 0 -0.01 -0.01 -0.01 -0.01 -0.01 -0.01 -0.01 0 -0.02 -0.01 -0.01 0 -0.02 -0.01 -0.01 0 -0.02 0 -0.01 0 -0.01 0 -0.02 0 0 -0.61 0.04 0 0.05 0 0.05 0.01 0.04 0.01 0.05 0.01 0.04 0.01 0.04 0.01 0.04 0.02 0.04 0.02 0.04 0.02 0.04 0.02 0.04 0.02 0.03 0.03 0.03 0.03 0.03 0.02 0.04 0.03 0.04 0.04 0.02 0.03 0.02 0.03 0.03 0.04 0.02 0.03 0.03 0.04 0.02 0.05 0.02 0.03 0.01 0.04 0.02 0.05 0.01 0.04 0.01 0.04 0.01 0.04 0 0.05 0.01 0.05 0 0.05 0 0zm-0.61 5.54l0 -5.54 0.61 0 0 5.54 0 0 -0.61 0zm-0.3 0.9l0 -0.6 0 0 0.02 0 0.01 0 0.01 -0.01 0.02 0 0.01 0 0.02 -0.01 0.01 0 0.02 -0.01 0.01 0 0.01 -0.01 0.01 -0.01 0.01 0 0.01 -0.01 0.02 -0.01 0.02 -0.02 0 0 0.01 -0.01 0.01 -0.01 0.01 -0.02 0.01 -0.01 0.01 -0.01 0 -0.01 0.01 -0.01 0 -0.02 0.01 -0.01 0 -0.01 0.01 -0.02 0 -0.02 0.01 -0.01 0 -0.02 0 0 0 -0.02 0.61 0 0 0.04 -0.01 0.05 0 0.05 -0.01 0.04 -0.01 0.04 -0.01 0.04 -0.02 0.05 -0.01 0.04 -0.02 0.04 -0.02 0.04 -0.03 0.04 -0.02 0.03 -0.03 0.04 -0.02 0.03 -0.02 0.03 -0.04 0.04 -0.04 0.03 -0.03 0.03 -0.03 0.02 -0.03 0.03 -0.04 0.02 -0.04 0.02 -0.04 0.03 -0.04 0.01 -0.04 0.02 -0.04 0.01 -0.04 0.01 -0.05 0.02 -0.04 0 -0.05 0.01 -0.05 0 -0.04 0 0 0zm-10.73 -0.6l10.73 0 0 0.6 -10.73 0 0 0 0 -0.6zm-0.91 -0.3l0.6 0 0 0 0 0.02 0 0 0.01 0.02 0 0.01 0 0.02 0.01 0.02 0 0.01 0.01 0.01 0 0.02 0.01 0.01 0.01 0.01 0 0.01 0.01 0.01 0.01 0.02 0.02 0.01 0 0.01 0.01 0 0.01 0.02 0.02 0.01 0.01 0.01 0.01 0 0.01 0.01 0.01 0.01 0.02 0 0.02 0.01 0 0 0.02 0.01 0.02 0 0.01 0 0.02 0.01 0 0 0.03 0 0 0.6 -0.05 0 -0.05 0 -0.05 -0.01 -0.04 0 -0.04 -0.02 -0.04 -0.01 -0.05 -0.01 -0.04 -0.02 -0.03 -0.01 -0.05 -0.03 -0.04 -0.02 -0.03 -0.02 -0.04 -0.03 -0.03 -0.02 -0.03 -0.03 -0.04 -0.03 -0.03 -0.04 -0.03 -0.03 -0.02 -0.03 -0.03 -0.04 -0.02 -0.03 -0.02 -0.04 -0.03 -0.04 -0.01 -0.04 -0.02 -0.04 -0.01 -0.05 -0.01 -0.04 -0.02 -0.04 0 -0.04 -0.01 -0.05 0 -0.05 0 -0.04 0 0zm0.6 -5.54l0 5.54 -0.6 0 0 -5.54 0 0 0.6 0zm0.31 -0.91l0 0.61 0 0 -0.03 0 0 0 -0.02 0 -0.01 0 -0.02 0 -0.02 0.01 0 0 -0.02 0.01 -0.02 0.01 -0.01 0 -0.01 0.01 -0.01 0.01 -0.01 0 -0.02 0.01 -0.01 0.02 -0.01 0 0 0.01 -0.02 0.01 -0.01 0.02 -0.01 0.01 0 0.01 -0.01 0.02 0 0 -0.01 0.02 -0.01 0.02 0 0.01 -0.01 0.01 0 0.02 0 0.01 -0.01 0.02 0 0.01 0 0.02 -0.6 0 0 -0.05 0 -0.05 0.01 -0.05 0 -0.04 0.02 -0.04 0.01 -0.04 0.01 -0.05 0.02 -0.04 0.01 -0.03 0.03 -0.05 0.02 -0.04 0.02 -0.03 0.03 -0.04 0.02 -0.03 0.03 -0.03 0.03 -0.04 0.04 -0.03 0.03 -0.02 0.03 -0.03 0.04 -0.03 0.03 -0.02 0.04 -0.02 0.05 -0.03 0.03 -0.01 0.04 -0.02 0.05 -0.01 0.04 -0.01 0.04 -0.01 0.04 -0.01 0.05 -0.01 0.05 0 0.05 0 0 0zm82.91 0.61l-10.73 0 0 -0.61 10.73 0 0 0 0 0.61zm0.91 0.3l-0.61 0 0 0 0 -0.02 0 -0.01 0 -0.02 -0.01 -0.01 0 -0.02 0 -0.01 0 -0.01 -0.02 -0.02 0 -0.02 -0.01 0 0 -0.02 -0.01 -0.01 -0.01 -0.01 -0.01 -0.02 -0.01 -0.01 -0.01 -0.01 0 0 -0.02 -0.02 -0.02 -0.01 -0.01 0 -0.01 -0.01 -0.01 -0.01 -0.01 -0.01 -0.01 0 -0.02 -0.01 -0.01 0 -0.02 -0.01 -0.01 0 -0.02 0 -0.01 0 -0.01 0 -0.02 0 0 -0.61 0.04 0 0.05 0 0.05 0.01 0.04 0.01 0.05 0.01 0.04 0.01 0.04 0.01 0.04 0.02 0.04 0.02 0.04 0.02 0.04 0.02 0.04 0.02 0.03 0.03 0.03 0.03 0.03 0.02 0.04 0.03 0.04 0.04 0.02 0.03 0.02 0.03 0.03 0.04 0.02 0.03 0.03 0.04 0.02 0.05 0.02 0.03 0.01 0.04 0.02 0.05 0.01 0.04 0.01 0.04 0.01 0.04 0 0.05 0.01 0.05 0 0.05 0 0zm-0.61 5.54l0 -5.54 0.61 0 0 5.54 0 0 -0.61 0zm-0.3 0.9l0 -0.6 0 0 0.02 0 0.01 0 0.01 -0.01 0.02 0 0.01 0 0.02 -0.01 0.01 0 0.02 -0.01 0.01 0 0.01 -0.01 0.01 -0.01 0.01 0 0.01 -0.01 0.02 -0.01 0.02 -0.02 0 0 0.01 -0.01 0.01 -0.01 0.01 -0.02 0.01 -0.01 0.01 -0.01 0 -0.01 0.01 -0.01 0 -0.02 0.01 -0.01 0.01 -0.01 0 -0.02 0 -0.02 0.01 -0.01 0 -0.02 0 0 0 -0.02 0.61 0 0 0.04 -0.01 0.05 0 0.05 -0.01 0.04 -0.01 0.04 -0.01 0.04 -0.02 0.05 -0.01 0.04 -0.02 0.04 -0.02 0.04 -0.03 0.04 -0.02 0.03 -0.03 0.04 -0.02 0.03 -0.02 0.03 -0.04 0.04 -0.04 0.03 -0.03 0.03 -0.03 0.02 -0.03 0.03 -0.04 0.02 -0.04 0.02 -0.04 0.03 -0.04 0.01 -0.04 0.02 -0.04 0.01 -0.04 0.01 -0.05 0.02 -0.04 0 -0.05 0.01 -0.05 0 -0.04 0 0 0zm-10.73 -0.6l10.73 0 0 0.6 -10.73 0 0 0 0 -0.6zm-0.91 -0.3l0.6 0 0 0 0 0.02 0 0 0.01 0.02 0 0.01 0 0.02 0 0.01 0.01 0.02 0.01 0.01 0.01 0.02 0 0.01 0.01 0.01 0 0 0.01 0.02 0.02 0.02 0 0.01 0.01 0 0.01 0.02 0.02 0.01 0.01 0.01 0 0 0.02 0.01 0.02 0.01 0.01 0.01 0.01 0 0.01 0.01 0.01 0 0.02 0.01 0.02 0 0.02 0 0.01 0.01 0.01 0 0.02 0 0 0.6 -0.04 0 -0.06 0 -0.05 -0.01 -0.04 0 -0.04 -0.02 -0.04 -0.01 -0.05 -0.01 -0.04 -0.02 -0.03 -0.01 -0.05 -0.03 -0.03 -0.02 -0.04 -0.02 -0.04 -0.03 -0.04 -0.03 -0.02 -0.02 -0.03 -0.03 -0.04 -0.03 -0.03 -0.05 -0.02 -0.02 -0.02 -0.03 -0.03 -0.04 -0.03 -0.05 -0.01 -0.03 -0.02 -0.04 -0.02 -0.04 -0.01 -0.04 -0.01 -0.05 -0.02 -0.04 0 -0.04 -0.01 -0.05 0 -0.05 0 -0.04 0 0zm0.6 -5.54l0 5.54 -0.6 0 0 -5.54 0 0 0.6 0zm0.31 -0.91l0 0.61 0 0 -0.02 0 -0.01 0 -0.01 0 -0.02 0 -0.02 0 -0.02 0.01 -0.01 0 -0.01 0.01 -0.01 0 -0.01 0.01 -0.02 0.01 -0.02 0.01 0 0 -0.01 0.01 -0.02 0.02 -0.01 0.01 -0.01 0 0 0.01 -0.02 0.02 -0.01 0.02 0 0 -0.01 0.01 0 0.01 -0.01 0.02 -0.01 0.02 -0.01 0.02 0 0 0 0.02 0 0.01 -0.01 0.02 0 0.01 0 0.02 -0.6 0 0 -0.05 0 -0.05 0.01 -0.05 0 -0.04 0.02 -0.04 0.01 -0.05 0.02 -0.04 0.01 -0.04 0.01 -0.03 0.02 -0.04 0.03 -0.05 0.03 -0.04 0.02 -0.03 0.02 -0.02 0.03 -0.05 0.04 -0.03 0.03 -0.03 0.02 -0.02 0.04 -0.03 0.04 -0.03 0.04 -0.02 0.03 -0.02 0.05 -0.02 0.03 -0.02 0.04 -0.02 0.05 -0.01 0.04 -0.01 0.04 -0.01 0.04 -0.01 0.05 -0.01 0.06 0 0.04 0 0 0zm-13.33 0.61l-10.73 0 0 -0.61 10.73 0 0 0 0 0.61zm0.91 0.3l-0.61 0 0 0 0 -0.02 0 -0.01 0 -0.02 -0.01 -0.01 0 -0.02 -0.01 -0.01 0 -0.01 -0.01 -0.02 0 -0.02 -0.01 0 -0.01 -0.02 0 -0.01 -0.01 -0.01 -0.01 -0.02 -0.02 -0.01 0 -0.01 0 0 -0.02 -0.02 -0.02 -0.01 -0.01 0 -0.01 -0.01 -0.01 -0.01 -0.01 -0.01 -0.01 0 -0.02 -0.01 -0.01 0 -0.02 -0.01 -0.01 0 -0.02 0 -0.01 0 -0.01 0 -0.02 0 0 -0.61 0.04 0 0.05 0 0.05 0.01 0.04 0.01 0.05 0.01 0.04 0.01 0.04 0.01 0.04 0.02 0.04 0.02 0.04 0.02 0.04 0.02 0.04 0.02 0.03 0.03 0.03 0.03 0.03 0.02 0.04 0.03 0.03 0.04 0.03 0.03 0.02 0.03 0.03 0.04 0.02 0.03 0.02 0.04 0.03 0.05 0.01 0.03 0.02 0.04 0.02 0.05 0.01 0.04 0.01 0.04 0.01 0.04 0 0.05 0.01 0.05 0 0.05 0 0zm-0.61 5.54l0 -5.54 0.61 0 0 5.54 0 0 -0.61 0zm-0.3 0.9l0 -0.6 0 0 0.02 0 0.01 0 0.01 -0.01 0.02 0 0.01 0 0.02 -0.01 0.01 0 0.02 -0.01 0.01 0 0.01 -0.01 0.01 -0.01 0.01 0 0.01 -0.01 0.02 -0.01 0.02 -0.02 0 0 0 -0.01 0.02 -0.01 0.01 -0.02 0.01 -0.01 0 -0.01 0.01 -0.01 0.01 -0.01 0 -0.02 0.01 -0.01 0 -0.01 0.01 -0.02 0 -0.02 0.01 -0.01 0 -0.02 0 0 0 -0.02 0.61 0 0 0.04 -0.01 0.05 0 0.05 -0.01 0.04 -0.01 0.04 -0.01 0.04 -0.02 0.05 -0.02 0.04 -0.01 0.04 -0.03 0.04 -0.02 0.04 -0.02 0.03 -0.03 0.04 -0.02 0.03 -0.03 0.03 -0.03 0.04 -0.04 0.03 -0.03 0.03 -0.03 0.02 -0.03 0.03 -0.04 0.02 -0.04 0.02 -0.04 0.03 -0.04 0.01 -0.04 0.02 -0.04 0.01 -0.04 0.01 -0.05 0.02 -0.04 0 -0.05 0.01 -0.05 0 -0.04 0 0 0zm-10.73 -0.6l10.73 0 0 0.6 -10.73 0 0 0 0 -0.6zm-0.91 -0.3l0.6 0 0 0 0 0.02 0 0 0.01 0.02 0 0.01 0 0.02 0.01 0.02 0 0.01 0.01 0.01 0 0.02 0.01 0.01 0.01 0.01 0.01 0.01 0 0.01 0.01 0.02 0.02 0.01 0 0.01 0.01 0 0.01 0.02 0.02 0.01 0.01 0.01 0.01 0 0.02 0.01 0 0.01 0.02 0 0.02 0.01 0.01 0 0.01 0.01 0.02 0 0.01 0 0.02 0.01 0.01 0 0.02 0 0 0.6 -0.05 0 -0.05 0 -0.05 -0.01 -0.04 0 -0.04 -0.02 -0.04 -0.01 -0.05 -0.01 -0.04 -0.02 -0.03 -0.01 -0.05 -0.03 -0.04 -0.02 -0.03 -0.02 -0.04 -0.03 -0.03 -0.02 -0.03 -0.03 -0.04 -0.03 -0.03 -0.04 -0.02 -0.03 -0.03 -0.03 -0.03 -0.04 -0.02 -0.03 -0.02 -0.04 -0.02 -0.04 -0.02 -0.04 -0.02 -0.04 -0.01 -0.05 -0.01 -0.04 -0.01 -0.04 -0.01 -0.04 -0.01 -0.05 0 -0.05 0 -0.04 0 0zm0.6 -5.54l0 5.54 -0.6 0 0 -5.54 0 0 0.6 0zm0.31 -0.91l0 0.61 0 0 -0.02 0 -0.01 0 -0.02 0 -0.01 0 -0.02 0 -0.01 0.01 -0.01 0 -0.02 0.01 -0.02 0.01 0 0 -0.02 0.01 -0.01 0.01 -0.01 0 -0.02 0.01 -0.01 0.02 -0.01 0 0 0.01 -0.02 0.01 -0.01 0.02 0 0.01 -0.01 0.01 -0.01 0.02 0 0 -0.01 0.02 -0.01 0.02 0 0.01 -0.01 0.01 0 0.02 0 0.01 -0.01 0.02 0 0.01 0 0.02 -0.6 0 0 -0.05 0 -0.05 0.01 -0.05 0.01 -0.04 0.01 -0.04 0.01 -0.04 0.01 -0.05 0.02 -0.04 0.01 -0.03 0.03 -0.05 0.02 -0.04 0.02 -0.03 0.03 -0.04 0.03 -0.03 0.02 -0.03 0.03 -0.04 0.04 -0.03 0.03 -0.02 0.03 -0.03 0.04 -0.03 0.03 -0.02 0.04 -0.02 0.05 -0.03 0.03 -0.01 0.04 -0.02 0.05 -0.01 0.04 -0.01 0.04 -0.01 0.04 -0.01 0.05 -0.01 0.05 0 0.05 0 0 0zm-13.42 0.61l-10.73 0 0 -0.61 10.73 0 0 0 0 0.61zm0.91 0.3l-0.61 0 0 0 0 -0.02 0 -0.01 0 -0.02 0 -0.01 0 -0.02 -0.01 -0.01 0 -0.01 -0.01 -0.02 -0.01 -0.02 0 0 -0.01 -0.02 -0.01 -0.01 0 -0.01 -0.02 -0.02 -0.01 -0.01 0 -0.01 -0.01 0 -0.02 -0.02 -0.01 -0.01 -0.01 0 -0.01 -0.01 -0.02 -0.01 -0.01 -0.01 -0.01 0 -0.02 -0.01 -0.01 0 -0.01 -0.01 -0.02 0 -0.02 0 -0.01 0 -0.01 0 -0.02 0 0 -0.61 0.04 0 0.06 0 0.05 0.01 0.04 0.01 0.04 0.01 0.04 0.01 0.04 0.01 0.05 0.02 0.03 0.02 0.05 0.02 0.03 0.02 0.04 0.02 0.04 0.03 0.03 0.03 0.03 0.02 0.04 0.03 0.03 0.04 0.02 0.03 0.03 0.03 0.03 0.04 0.02 0.03 0.02 0.04 0.03 0.05 0.01 0.03 0.01 0.04 0.02 0.05 0.01 0.04 0.01 0.04 0.01 0.04 0.01 0.05 0 0.05 0 0.05 0 0zm-0.61 5.54l0 -5.54 0.61 0 0 5.54 0 0 -0.61 0zm-0.3 0.9l0 -0.6 0 0 0.02 0 0.01 0 0.01 -0.01 0.02 0 0.02 0 0.01 -0.01 0.01 0 0.02 -0.01 0.01 0 0.01 -0.01 0.02 -0.01 0.01 0 0.01 -0.01 0.01 -0.01 0.02 -0.02 0.01 0 0 -0.01 0.01 -0.01 0.02 -0.02 0 -0.01 0.01 -0.01 0.01 -0.01 0 -0.01 0.01 -0.02 0.01 -0.01 0 -0.01 0.01 -0.02 0 -0.02 0 -0.01 0 -0.02 0 0 0 -0.02 0.61 0 0 0.04 0 0.05 -0.01 0.05 -0.01 0.04 -0.01 0.04 -0.01 0.04 -0.01 0.05 -0.02 0.04 -0.02 0.04 -0.02 0.04 -0.02 0.04 -0.02 0.03 -0.03 0.04 -0.03 0.03 -0.02 0.03 -0.03 0.04 -0.04 0.03 -0.03 0.03 -0.03 0.02 -0.04 0.03 -0.04 0.02 -0.03 0.02 -0.05 0.03 -0.03 0.01 -0.05 0.02 -0.04 0.01 -0.04 0.01 -0.04 0.02 -0.04 0 -0.05 0.01 -0.06 0 -0.04 0 0 0zm-10.73 -0.6l10.73 0 0 0.6 -10.73 0 0 0 0 -0.6zm-0.91 -0.3l0.61 0 0 0 0 0.02 0 0 0 0.02 0 0.01 0.01 0.02 0 0.02 0 0.01 0.01 0.01 0.01 0.02 0 0.01 0.01 0.01 0.01 0.01 0 0.01 0.02 0.02 0.01 0.01 0.01 0.01 0 0 0.02 0.02 0.01 0.01 0.01 0.01 0.01 0 0.02 0.01 0 0.01 0.02 0 0.02 0.01 0.01 0 0.01 0.01 0.02 0 0.02 0 0.01 0.01 0.01 0 0.02 0 0 0.6 -0.04 0 -0.05 0 -0.05 -0.01 -0.05 0 -0.04 -0.02 -0.04 -0.01 -0.05 -0.01 -0.03 -0.02 -0.04 -0.01 -0.05 -0.03 -0.03 -0.02 -0.04 -0.02 -0.04 -0.03 -0.03 -0.02 -0.03 -0.03 -0.03 -0.03 -0.04 -0.04 -0.02 -0.03 -0.03 -0.03 -0.02 -0.04 -0.03 -0.03 -0.02 -0.04 -0.02 -0.04 -0.02 -0.04 -0.02 -0.04 -0.01 -0.05 -0.01 -0.04 -0.01 -0.04 -0.01 -0.04 -0.01 -0.05 0 -0.05 0 -0.04 0 0zm0.61 -5.54l0 5.54 -0.61 0 0 -5.54 0 0 0.61 0zm0.3 -0.91l0 0.61 0 0 -0.02 0 -0.01 0 -0.01 0 -0.02 0 -0.02 0 -0.01 0.01 -0.01 0 -0.02 0.01 -0.02 0.01 0 0 -0.02 0.01 -0.01 0.01 -0.01 0 -0.01 0.01 -0.02 0.02 0 0 -0.01 0.01 -0.01 0.01 -0.02 0.02 0 0.01 -0.01 0.01 -0.01 0.02 0 0 -0.01 0.02 -0.01 0.02 0 0.01 0 0.01 -0.01 0.02 0 0.01 0 0.02 0 0.01 0 0.02 -0.61 0 0 -0.05 0 -0.05 0.01 -0.05 0.01 -0.04 0.01 -0.04 0.01 -0.04 0.02 -0.05 0.01 -0.04 0.02 -0.03 0.02 -0.05 0.02 -0.04 0.03 -0.03 0.02 -0.04 0.03 -0.03 0.02 -0.03 0.04 -0.04 0.03 -0.03 0.03 -0.02 0.03 -0.03 0.04 -0.03 0.04 -0.02 0.03 -0.02 0.05 -0.03 0.04 -0.01 0.03 -0.02 0.05 -0.01 0.04 -0.01 0.04 -0.01 0.05 -0.01 0.05 -0.01 0.05 0 0.04 0 0 0z"/>
  <path fill="#F08BB2" d="M72.14 20.57l39.28 0c0.96,0 1.74,0.78 1.74,1.74l0 22.35c0,0.96 -0.79,1.74 -1.74,1.74l-39.28 0c-0.96,0 -1.74,-0.78 -1.74,-1.74l0 -22.35c0,-0.96 0.78,-1.74 1.74,-1.74z"/>
  <path fill="#2B2A29" fill-rule="nonzero" d="M111.42 20.87l-39.28 0 0 -0.6 39.28 0 0 0 0 0.6zm2.04 1.44l-0.61 0 0 0 0 -0.07 0 -0.07 -0.01 -0.08 -0.02 -0.07 -0.01 -0.07 -0.02 -0.07 -0.02 -0.06 -0.03 -0.07 -0.03 -0.06 -0.03 -0.06 -0.03 -0.07 -0.04 -0.05 -0.04 -0.06 -0.04 -0.05 -0.05 -0.06 -0.05 -0.05 -0.05 -0.04 -0.05 -0.05 -0.06 -0.04 -0.05 -0.04 -0.06 -0.04 -0.06 -0.03 -0.06 -0.03 -0.07 -0.04 -0.06 -0.02 -0.07 -0.02 -0.06 -0.02 -0.07 -0.02 -0.08 -0.01 -0.07 -0.01 -0.07 -0.01 -0.07 0 0 -0.6 0.1 0 0.11 0.01 0.1 0.01 0.1 0.02 0.1 0.02 0.09 0.03 0.1 0.03 0.09 0.04 0.09 0.04 0.09 0.04 0.08 0.05 0.09 0.05 0.08 0.06 0.08 0.07 0.07 0.06 0.07 0.06 0.07 0.08 0.06 0.07 0.06 0.08 0.06 0.08 0.05 0.08 0.05 0.08 0.05 0.1 0.04 0.08 0.04 0.1 0.03 0.09 0.03 0.1 0.02 0.1 0.02 0.1 0.01 0.1 0.01 0.11 0 0.1 0 0zm-0.61 22.35l0 -22.35 0.61 0 0 22.35 0 0 -0.61 0zm-1.43 2.04l0 -0.6 0 0 0.07 -0.01 0.07 0 0.07 -0.01 0.08 -0.01 0.06 -0.02 0.07 -0.02 0.07 -0.02 0.06 -0.03 0.07 -0.03 0.06 -0.03 0.06 -0.03 0.06 -0.04 0.05 -0.04 0.06 -0.04 0.05 -0.05 0.05 -0.05 0.05 -0.05 0.04 -0.05 0.05 -0.05 0.04 -0.06 0.04 -0.06 0.03 -0.06 0.03 -0.06 0.03 -0.07 0.03 -0.06 0.02 -0.06 0.02 -0.07 0.01 -0.07 0.02 -0.08 0.01 -0.07 0 -0.07 0 -0.07 0.61 0 0 0.1 -0.01 0.11 -0.01 0.1 -0.02 0.1 -0.02 0.1 -0.03 0.1 -0.03 0.09 -0.04 0.09 -0.04 0.09 -0.05 0.09 -0.05 0.09 -0.05 0.08 -0.06 0.08 -0.06 0.08 -0.06 0.07 -0.07 0.07 -0.07 0.07 -0.08 0.07 -0.07 0.06 -0.08 0.05 -0.09 0.06 -0.08 0.05 -0.09 0.04 -0.09 0.04 -0.09 0.04 -0.1 0.03 -0.09 0.03 -0.1 0.02 -0.1 0.02 -0.1 0.01 -0.11 0.01 -0.1 0 0 0zm-39.28 -0.6l39.28 0 0 0.6 -39.28 0 0 0 0 -0.6zm-2.05 -1.44l0.61 0 0 0 0 0.07 0.01 0.07 0.01 0.07 0.01 0.08 0.02 0.07 0.01 0.07 0.03 0.06 0.02 0.06 0.03 0.07 0.03 0.06 0.04 0.06 0.04 0.06 0.04 0.06 0.04 0.05 0.04 0.05 0.05 0.05 0.05 0.05 0.05 0.05 0.06 0.04 0.06 0.04 0.05 0.04 0.06 0.03 0.07 0.03 0.06 0.03 0.06 0.03 0.07 0.02 0.07 0.02 0.06 0.02 0.08 0.01 0.07 0.01 0.07 0 0.08 0.01 0 0.6 -0.11 0 -0.11 -0.01 -0.1 -0.01 -0.09 -0.02 -0.1 -0.02 -0.1 -0.03 -0.1 -0.03 -0.09 -0.04 -0.09 -0.04 -0.09 -0.04 -0.08 -0.05 -0.09 -0.06 -0.07 -0.05 -0.08 -0.06 -0.08 -0.07 -0.07 -0.07 -0.06 -0.07 -0.07 -0.07 -0.06 -0.08 -0.06 -0.08 -0.05 -0.08 -0.05 -0.09 -0.05 -0.09 -0.04 -0.09 -0.03 -0.09 -0.04 -0.09 -0.03 -0.1 -0.02 -0.1 -0.01 -0.1 -0.02 -0.1 -0.01 -0.11 0 -0.1 0 0zm0.61 -22.35l0 22.35 -0.61 0 0 -22.35 0 0 0.61 0zm1.44 -2.04l0 0.6 0 0 -0.08 0 -0.07 0.01 -0.07 0.01 -0.08 0.01 -0.06 0.02 -0.07 0.02 -0.07 0.02 -0.06 0.02 -0.06 0.04 -0.07 0.03 -0.06 0.03 -0.05 0.04 -0.06 0.04 -0.06 0.04 -0.05 0.05 -0.05 0.04 -0.05 0.06 -0.04 0.05 -0.04 0.05 -0.04 0.06 -0.04 0.06 -0.04 0.06 -0.03 0.06 -0.03 0.06 -0.02 0.07 -0.03 0.06 -0.01 0.07 -0.02 0.07 -0.01 0.07 -0.01 0.08 -0.01 0.07 0 0.07 -0.61 0 0 -0.1 0.01 -0.11 0.02 -0.1 0.01 -0.1 0.02 -0.1 0.03 -0.1 0.04 -0.09 0.03 -0.1 0.04 -0.08 0.05 -0.1 0.05 -0.08 0.05 -0.08 0.06 -0.08 0.06 -0.08 0.07 -0.07 0.06 -0.08 0.07 -0.06 0.08 -0.07 0.08 -0.06 0.07 -0.05 0.09 -0.06 0.08 -0.05 0.09 -0.04 0.09 -0.04 0.09 -0.04 0.1 -0.03 0.1 -0.03 0.1 -0.02 0.09 -0.02 0.1 -0.01 0.11 -0.01 0.11 0 0 0z"/>
  <path fill="#F08BB2" d="M74.5 15.24l10.73 0c0.33,0 0.6,0.28 0.6,0.61l0 5.54c0,0.33 -0.27,0.61 -0.6,0.61l-10.73 0c-0.34,0 -0.61,-0.28 -0.61,-0.61l0 -5.54c0,-0.33 0.27,-0.61 0.61,-0.61zm23.97 0l10.73 0c0.34,0 0.61,0.28 0.61,0.61l0 5.54c0,0.33 -0.27,0.61 -0.61,0.61l-10.73 0c-0.33,0 -0.61,-0.28 -0.61,-0.61l0 -5.54c0,-0.33 0.28,-0.61 0.61,-0.61z"/>
  <path fill="#2B2A29" fill-rule="nonzero" d="M85.23 15.55l-10.73 0 0 -0.61 10.73 0 0 0 0 0.61zm0.91 0.3l-0.61 0 0 0 0 -0.02 0 -0.01 0 -0.01 -0.01 -0.02 0 -0.02 -0.01 -0.01 0 -0.01 -0.01 -0.02 0 -0.02 -0.01 0 0 -0.02 -0.01 -0.01 -0.01 -0.01 -0.01 -0.01 -0.02 -0.02 0 0 0 -0.01 -0.02 -0.01 -0.02 -0.02 -0.01 0 -0.01 -0.01 -0.01 -0.01 -0.01 0 -0.01 -0.01 -0.02 -0.01 -0.01 0 -0.02 0 -0.01 -0.01 -0.02 0 -0.01 0 -0.01 0 -0.02 0 0 -0.61 0.04 0 0.05 0 0.05 0.01 0.04 0.01 0.05 0.01 0.04 0.01 0.04 0.01 0.04 0.02 0.04 0.02 0.04 0.02 0.04 0.02 0.04 0.03 0.03 0.02 0.03 0.03 0.03 0.02 0.04 0.04 0.03 0.03 0.03 0.03 0.02 0.03 0.03 0.04 0.02 0.04 0.03 0.03 0.02 0.05 0.02 0.04 0.01 0.03 0.02 0.05 0.01 0.04 0.01 0.04 0.01 0.05 0 0.05 0.01 0.05 0 0.04 0 0zm-0.61 5.54l0 -5.54 0.61 0 0 5.54 0 0 -0.61 0zm-0.3 0.91l0 -0.61 0 0 0.02 0 0.01 0 0.01 0 0.02 0 0.01 -0.01 0.02 0 0.01 -0.01 0.02 0 0.01 -0.01 0.01 0 0.01 -0.01 0.01 -0.01 0.01 -0.01 0.02 -0.01 0.02 -0.01 0 -0.01 0 0 0.02 -0.02 0.01 -0.02 0.01 0 0.01 -0.01 0 -0.02 0.01 -0.01 0 -0.01 0.01 -0.02 0 -0.01 0.01 -0.01 0 -0.02 0.01 -0.02 0 -0.01 0 -0.01 0 -0.02 0.61 0 0 0.04 -0.01 0.05 0 0.05 -0.01 0.05 -0.01 0.04 -0.01 0.04 -0.02 0.04 -0.01 0.04 -0.02 0.04 -0.02 0.05 -0.03 0.03 -0.02 0.04 -0.03 0.04 -0.02 0.03 -0.03 0.03 -0.03 0.03 -0.04 0.04 -0.03 0.02 -0.03 0.03 -0.03 0.02 -0.04 0.03 -0.04 0.02 -0.04 0.02 -0.04 0.02 -0.04 0.01 -0.04 0.02 -0.04 0.01 -0.05 0.01 -0.04 0.01 -0.05 0 -0.05 0.01 -0.04 0 0 0zm-10.73 -0.61l10.73 0 0 0.61 -10.73 0 0 0 0 -0.61zm-0.91 -0.3l0.61 0 0 0 0 0.02 0 0.01 0 0.01 0 0.02 0 0.02 0.01 0.01 0 0.01 0.01 0.02 0 0.01 0.01 0.01 0.01 0.02 0.01 0.01 0 0 0.01 0.02 0.02 0.02 0 0 0.01 0.01 0.01 0.01 0.02 0.01 0.01 0.01 0.01 0.01 0.02 0.01 0 0 0.02 0.01 0.02 0.01 0.01 0 0.01 0 0.02 0.01 0.01 0 0.02 0 0.01 0 0.02 0 0 0.61 -0.05 0 -0.05 -0.01 -0.05 0 -0.04 -0.01 -0.04 -0.01 -0.04 -0.01 -0.05 -0.02 -0.04 -0.01 -0.03 -0.02 -0.05 -0.02 -0.04 -0.02 -0.03 -0.03 -0.04 -0.02 -0.03 -0.03 -0.03 -0.02 -0.04 -0.04 -0.03 -0.03 -0.02 -0.03 -0.03 -0.03 -0.03 -0.04 -0.02 -0.04 -0.02 -0.03 -0.02 -0.05 -0.02 -0.04 -0.02 -0.04 -0.01 -0.04 -0.01 -0.04 -0.01 -0.04 -0.01 -0.05 -0.01 -0.05 0 -0.05 0 -0.04 0 0zm0.61 -5.54l0 5.54 -0.61 0 0 -5.54 0 0 0.61 0zm0.3 -0.91l0 0.61 0 0 -0.02 0 -0.01 0 -0.02 0 -0.01 0 -0.02 0.01 -0.01 0 -0.01 0 -0.02 0.01 -0.02 0.01 0 0 -0.02 0.01 -0.01 0.01 -0.01 0 -0.02 0.02 -0.01 0.01 -0.01 0.01 0 0 -0.02 0.02 -0.01 0.01 0 0.01 -0.01 0.01 -0.01 0.02 0 0 -0.01 0.02 -0.01 0.02 0 0.01 -0.01 0.01 0 0.02 0 0.02 0 0.01 0 0.01 0 0.02 -0.61 0 0 -0.04 0 -0.05 0.01 -0.05 0.01 -0.05 0.01 -0.04 0.01 -0.04 0.01 -0.05 0.02 -0.03 0.01 -0.04 0.03 -0.05 0.02 -0.03 0.02 -0.04 0.03 -0.04 0.03 -0.03 0.02 -0.03 0.03 -0.03 0.04 -0.04 0.03 -0.02 0.03 -0.03 0.04 -0.02 0.03 -0.03 0.04 -0.02 0.05 -0.02 0.03 -0.02 0.04 -0.01 0.05 -0.02 0.04 -0.01 0.04 -0.01 0.04 -0.01 0.05 -0.01 0.05 0 0.05 0 0 0zm34.7 0.61l-10.73 0 0 -0.61 10.73 0 0 0 0 0.61zm0.91 0.3l-0.61 0 0 0 0 -0.02 0 -0.01 0 -0.01 0 -0.02 0 -0.02 -0.01 -0.01 0 -0.01 -0.01 -0.02 -0.01 -0.02 0 0 -0.01 -0.02 -0.01 -0.01 0 -0.01 -0.02 -0.01 -0.01 -0.02 -0.01 0 0 -0.01 -0.02 -0.01 -0.01 -0.02 -0.01 0 -0.01 -0.01 -0.02 -0.01 -0.01 0 -0.01 -0.01 -0.02 -0.01 -0.01 0 -0.01 0 -0.02 -0.01 -0.02 0 -0.01 0 -0.01 0 -0.02 0 0 -0.61 0.04 0 0.05 0 0.06 0.01 0.04 0.01 0.04 0.01 0.04 0.01 0.04 0.01 0.05 0.02 0.03 0.02 0.05 0.02 0.03 0.02 0.04 0.03 0.04 0.02 0.03 0.03 0.03 0.02 0.04 0.04 0.03 0.03 0.02 0.03 0.03 0.03 0.03 0.04 0.02 0.04 0.02 0.03 0.02 0.05 0.02 0.04 0.01 0.03 0.02 0.05 0.01 0.04 0.01 0.04 0.01 0.05 0.01 0.05 0 0.05 0 0.04 0 0zm-0.61 5.54l0 -5.54 0.61 0 0 5.54 0 0 -0.61 0zm-0.3 0.91l0 -0.61 0 0 0.02 0 0.01 0 0.01 0 0.02 0 0.02 -0.01 0.01 0 0.01 -0.01 0.02 0 0.01 -0.01 0.01 0 0.02 -0.01 0.01 -0.01 0.01 -0.01 0.01 -0.01 0.02 -0.01 0 -0.01 0.01 0 0.01 -0.02 0.02 -0.02 0 0 0.01 -0.01 0.01 -0.02 0 -0.01 0.01 -0.01 0.01 -0.02 0 -0.01 0.01 -0.01 0 -0.02 0 -0.02 0 -0.01 0 -0.01 0 -0.02 0.61 0 0 0.04 0 0.05 -0.01 0.05 -0.01 0.05 -0.01 0.04 -0.01 0.04 -0.01 0.04 -0.02 0.04 -0.02 0.04 -0.02 0.05 -0.02 0.03 -0.02 0.04 -0.03 0.04 -0.03 0.03 -0.02 0.03 -0.03 0.03 -0.04 0.04 -0.03 0.02 -0.03 0.03 -0.04 0.02 -0.04 0.03 -0.03 0.02 -0.05 0.02 -0.03 0.02 -0.05 0.01 -0.04 0.02 -0.04 0.01 -0.04 0.01 -0.04 0.01 -0.06 0 -0.05 0.01 -0.04 0 0 0zm-10.73 -0.61l10.73 0 0 0.61 -10.73 0 0 0 0 -0.61zm-0.91 -0.3l0.61 0 0 0 0 0.02 0 0.01 0 0.01 0 0.02 0.01 0.02 0 0.01 0 0.01 0.01 0.02 0.01 0.01 0 0.01 0.01 0.02 0.01 0.01 0 0 0.02 0.02 0.01 0.02 0.01 0 0 0.01 0.02 0.01 0.01 0.01 0.01 0.01 0.01 0.01 0.02 0.01 0 0 0.02 0.01 0.02 0.01 0.01 0 0.01 0 0.02 0.01 0.02 0 0.01 0 0.01 0 0.02 0 0 0.61 -0.04 0 -0.05 -0.01 -0.05 0 -0.05 -0.01 -0.04 -0.01 -0.04 -0.01 -0.05 -0.02 -0.03 -0.01 -0.04 -0.02 -0.05 -0.02 -0.03 -0.02 -0.04 -0.03 -0.04 -0.02 -0.03 -0.03 -0.03 -0.02 -0.03 -0.04 -0.04 -0.03 -0.02 -0.03 -0.03 -0.03 -0.02 -0.04 -0.03 -0.04 -0.02 -0.03 -0.02 -0.05 -0.02 -0.04 -0.02 -0.04 -0.01 -0.04 -0.01 -0.04 -0.01 -0.04 -0.01 -0.05 -0.01 -0.05 0 -0.05 0 -0.04 0 0zm0.61 -5.54l0 5.54 -0.61 0 0 -5.54 0 0 0.61 0zm0.3 -0.91l0 0.61 0 0 -0.02 0 -0.01 0 -0.01 0 -0.02 0 -0.02 0.01 -0.01 0 -0.01 0 -0.02 0.01 -0.02 0.01 0 0 -0.02 0.01 -0.01 0.01 -0.01 0 -0.01 0.02 -0.02 0.01 0 0.01 -0.01 0 -0.01 0.02 -0.02 0.01 0 0.01 -0.01 0.01 -0.01 0.02 0 0 -0.01 0.02 -0.01 0.02 0 0.01 0 0.01 -0.01 0.02 0 0.02 0 0.01 0 0.01 0 0.02 -0.61 0 0 -0.04 0 -0.05 0.01 -0.05 0.01 -0.05 0.01 -0.04 0.01 -0.04 0.02 -0.05 0.01 -0.03 0.02 -0.04 0.02 -0.05 0.02 -0.03 0.03 -0.04 0.02 -0.04 0.03 -0.03 0.02 -0.03 0.04 -0.03 0.03 -0.04 0.03 -0.02 0.03 -0.03 0.04 -0.02 0.04 -0.03 0.03 -0.02 0.05 -0.02 0.04 -0.02 0.03 -0.01 0.05 -0.02 0.04 -0.01 0.04 -0.01 0.05 -0.01 0.05 -0.01 0.05 0 0.04 0 0 0z"/>
</svg>
