<svg xmlns="http://www.w3.org/2000/svg" width="68" height="46" fill-rule="evenodd" clip-rule="evenodd" image-rendering="optimizeQuality" shape-rendering="geometricPrecision" text-rendering="geometricPrecision" viewBox="0 0 23.63 15.81"><path fill="#A1B567" fill-rule="nonzero" d="M16.35 1.03c1.27.74 1.81 2.89 2.93 4.61 1.29.75 2.51.71 3.44 1.88.96 1.2 1.27 2.65.06 4.4-.65.92-2.61 1.13-3.17-.41-.81-1.15-3.46-2.41-5.49.71-.36.55-1.03.86-1.75.97-.85.14-1.58.01-2.15-.29-.98-.52-1.37-1.71-2.04-2.06-2.52-1.89-5.04-.07-5.33 1.71-.13.29-.25.55-.37.76-.27.46-.57.67-1.02.38h-.01C.69 13.16.23 12.29.1 11.34c-.13-.97.07-2.01.62-2.88.53-.83 1.42-1.43 2.21-1.97.63-.42 1.19-.8 1.4-1.18.9-1.63 1.35-3.17 2.69-4.09C8.16.44 10.16.17 11.45.08c1.29-.1 3.61.19 4.9.95zm5.16 7.48c.11-.47.38-.77.89-.66l.02.01.03.01c.12.09.24.19.34.32.22.28.37.66.41 1.06.05.39-.02.81-.24 1.15-.08.14-.19.26-.32.37-.25.21-.5.12-.7-.14-.18-.22-.32-.59-.4-.98-.08-.39-.1-.8-.03-1.14z"/><path fill="#2B2A29" fill-rule="nonzero" d="M19.31 5.59l-.06.1-.02-.02-.11-.16-.1-.17-.09-.17-.1-.16-.09-.17-.09-.17-.09-.18-.09-.17-.08-.17-.08-.17-.09-.17-.08-.16-.08-.17-.08-.17-.08-.16-.08-.16-.08-.15-.08-.16-.09-.15-.08-.14-.09-.14-.08-.14-.09-.13-.09-.13-.09-.12-.1-.11-.1-.11-.1-.1-.1-.1-.11-.08-.11-.08-.11-.07.06-.11.12.08.12.08.11.1.11.09.1.11.1.11.1.12.09.12.1.13.09.14.08.14.09.14.09.15.08.15.08.15.08.16.08.16.09.16.08.17.08.16.08.17.08.17.08.17.09.17.08.17.09.17.09.17.09.17.1.17.09.16.1.17.11.16-.02-.02zm-.06.1l-.01-.01-.01-.01.02.02zm3.51 1.79l-.09.07-.08-.1-.09-.1-.09-.09-.09-.09-.09-.07-.1-.08-.09-.07-.1-.06-.1-.07-.1-.05-.1-.06-.1-.05-.11-.05-.1-.04-.11-.05-.11-.04-.11-.05-.11-.04-.11-.04-.11-.04-.11-.04-.12-.04-.12-.05-.11-.04-.12-.05-.12-.04-.12-.06-.12-.05-.12-.06-.12-.06-.12-.06-.12-.07.06-.1.12.07.12.06.11.06.12.05.12.06.12.05.11.05.12.04.12.05.11.04.12.04.11.04.11.04.11.04.12.05.11.04.11.04.1.05.11.05.11.05.1.05.11.05.1.06.1.07.1.07.1.07.1.08.1.08.09.09.09.09.1.1.08.11zm.06 4.47l-.09-.06.11-.16.1-.16.09-.16.08-.16.07-.15.07-.15.06-.15.05-.15.04-.15.04-.15.03-.14.02-.14.01-.14.01-.14v-.14l-.01-.13-.01-.13-.01-.14-.03-.13-.03-.13-.03-.12-.04-.13-.05-.13-.05-.12-.06-.12-.06-.12-.06-.12-.07-.12-.08-.12-.08-.11-.08-.12-.09-.11.09-.07.09.11.09.12.08.12.08.12.07.12.07.12.06.13.06.12.05.13.05.13.04.13.04.13.03.14.02.13.02.14.01.14.01.14v.14l-.01.15-.02.14-.02.15-.03.15-.03.15-.05.15-.05.16-.06.15-.07.16-.08.15-.08.16-.09.17-.11.16-.11.16zm-3.26-.41l.1-.06v.01l.06.13.06.13.07.12.08.1.08.1.09.09.09.07.09.07.1.07.11.05.11.05.11.03.11.03.11.03.12.01.12.01H21.4l.11-.02.12-.02.11-.02.11-.03.11-.04.11-.04.1-.05.09-.05.1-.06.08-.06.08-.07.08-.08.07-.07.06-.08.09.06-.06.09-.08.09-.08.07-.09.08-.09.06-.1.07-.1.05-.11.06-.11.04-.11.04-.12.03-.12.03-.12.02-.12.01-.13.01h-.12l-.12-.01-.13-.02-.12-.02-.12-.03-.12-.05-.11-.04-.11-.06-.11-.07-.11-.07-.09-.09-.1-.09-.09-.11-.08-.11-.07-.12-.07-.14-.06-.14.01.01zm.1-.06v.01-.01zm-5.49.77l-.1-.06.19-.28.2-.26.2-.23.2-.21.21-.19.2-.17.21-.14.21-.13.21-.11.21-.08.21-.07.2-.06.21-.03.2-.02.2-.01h.2l.19.02.19.04.18.04.18.05.17.06.17.07.16.08.16.09.14.09.14.09.13.1.12.11.12.11.1.1.09.12.09.11-.1.06-.08-.1-.09-.11-.1-.1-.1-.11-.12-.1-.13-.09-.13-.1-.14-.08-.15-.09-.16-.07-.16-.07-.17-.06-.17-.05-.18-.04-.18-.03-.18-.02-.19-.01-.19.01-.2.02-.19.04-.2.05-.2.07-.2.08-.2.1-.2.12-.2.14-.21.17-.19.18-.2.21-.2.22-.19.26-.19.27zm-1.79 1l-.02-.11.07-.01.06-.02.07-.01.06-.01.07-.02.06-.02.07-.01.06-.02.06-.02.06-.03.06-.02.06-.02.06-.03.06-.02.06-.03.05-.03.06-.03.05-.03.05-.03.05-.04.05-.03.05-.04.05-.03.05-.04.04-.04.04-.04.04-.05.05-.04.03-.05.04-.04.03-.05.04-.05.1.06-.04.06-.04.05-.04.05-.04.05-.04.04-.04.05-.05.04-.05.04-.05.05-.05.04-.05.03-.05.04-.05.04-.06.03-.06.03-.05.03-.06.03-.06.03-.06.03-.06.03-.06.02-.07.02-.06.03-.06.02-.07.02-.07.02-.06.01-.07.02-.07.01-.06.02-.07.01-.07.01zm-2.19-.3l.06-.1.05.03.05.02.06.03.05.02.06.03.06.02.05.02.06.02.06.02.06.01.07.02.06.02.06.01.07.01.06.01.07.01.06.01.07.01.07.01h.07l.07.01H11.9l.08-.01h.07l.08-.01.08-.01.07-.01.08-.01.02.11-.08.01-.08.02h-.08l-.08.01-.07.01h-.08l-.08.01H11.61l-.07-.01h-.08l-.07-.01h-.07l-.07-.01-.07-.01-.07-.01-.07-.01-.06-.02-.07-.01-.06-.02-.07-.01-.06-.02-.06-.02-.07-.02-.06-.02-.06-.03-.05-.02-.06-.02-.06-.03-.05-.03-.06-.03zm-2.05-2.07l.07-.09-.01-.01.07.04.06.04.07.05.06.05.06.06.06.05.05.06.06.07.05.06.06.07.05.07.06.07.05.08.06.07.05.08.06.07.06.08.06.07.05.08.07.08.06.07.06.07.07.08.06.07.07.07.07.06.08.07.07.06.08.06.08.06.09.05.09.05-.06.1-.09-.05-.09-.06-.09-.05-.08-.07-.08-.06-.08-.07-.07-.07-.07-.07-.07-.07-.07-.08-.06-.07-.07-.08-.06-.08-.06-.08-.06-.07-.05-.08-.06-.08-.06-.07-.05-.07-.06-.08-.05-.07-.05-.07-.06-.06-.05-.07-.06-.06-.05-.06-.05-.05-.06-.05-.06-.05-.05-.04-.06-.04-.06-.03-.01-.01zm.01.01l-.01-.01.01.01zM2.9 12.58l-.1-.05-.01.02.04-.18.04-.17.06-.17.08-.16.08-.17.09-.16.11-.16.11-.15.13-.15.13-.14.15-.13.15-.13.16-.12.17-.11.18-.1.18-.09.19-.08.2-.06.2-.06.21-.04.21-.03.22-.01h.22l.23.02.23.03.23.05.23.07.24.09.24.11.23.12.24.15.24.17-.07.09-.23-.16-.23-.15-.24-.12-.23-.1-.22-.09-.23-.06-.22-.05-.23-.04-.21-.01h-.22l-.21.01-.2.03-.2.04-.2.05-.19.06-.18.08-.18.09-.17.09-.16.11-.16.11-.14.13-.14.12-.13.14-.13.14-.11.15-.1.15-.09.16-.08.15-.07.17-.05.16-.05.16-.03.16-.01.02zm.01-.02v.01l-.01.01.01-.02zm-.38.78l-.1-.06.01-.02.01-.02.01-.02.01-.02.02-.02.01-.02.01-.02.01-.02.01-.02.01-.03.01-.02.01-.02.02-.02.01-.03.01-.02.01-.02.01-.03.01-.02.01-.03.02-.02.01-.03.01-.02.01-.03.01-.02.01-.03.02-.02.01-.03.01-.02.01-.03.01-.03.01-.02.02-.03.1.05-.01.03-.01.02-.01.03-.01.02-.02.03-.01.03-.01.02-.01.03-.01.02-.01.03-.02.02-.01.03-.01.02-.01.03-.01.02-.01.03-.02.02-.01.02-.01.03-.01.02-.01.02-.01.03-.01.02-.02.02-.01.02-.01.03-.01.02-.01.02-.01.02-.02.02-.01.02-.01.02zm-1.11.4l.07-.09v-.01l.04.03.04.02.03.02.04.01.04.02.03.01.03.01h.07l.03.01.03-.01h.03l.03-.01h.03l.02-.01.03-.01.03-.02.03-.01.02-.02.03-.02.03-.02.02-.02.03-.03.02-.03.03-.03.03-.03.02-.03.03-.03.02-.04.03-.04.02-.04.03-.04.1.06-.03.04-.02.04-.03.04-.03.04-.02.04-.03.04-.03.03-.03.03-.03.03-.03.03-.03.03-.03.02-.03.03-.03.02-.04.02-.03.01-.04.02-.03.01-.04.01-.03.01h-.16l-.04-.01-.04-.01-.04-.01-.04-.02-.05-.02-.04-.02-.04-.02-.05-.03zm0 0zm.06-.1l.01.01-.07.09.06-.1zm0 0l-.01-.01.01.01zm-1.44-2.3l.12-.01.01.09.01.08.02.09.02.09.02.08.02.09.03.08.02.09.03.08.03.08.03.08.04.08.03.08.04.07.04.08.04.08.04.07.05.07.04.07.05.07.05.07.05.07.05.06.06.07.06.06.05.06.06.06.07.05.06.06.07.05.06.05.07.05-.06.1-.08-.05-.07-.06-.06-.05-.07-.06-.07-.06-.06-.06-.06-.06-.06-.07-.06-.06-.05-.07-.05-.07L.67 13l-.05-.07-.04-.08-.05-.07-.04-.08-.05-.07-.04-.08-.04-.08-.03-.08-.04-.09-.03-.08-.03-.08-.03-.09-.03-.08-.02-.09-.02-.09-.02-.09-.02-.09-.02-.09-.02-.09-.01-.09zm.63-2.91l.1.06-.05.08-.05.08-.05.08-.04.09-.04.08-.04.09-.04.08-.04.09-.03.09-.03.08-.03.09-.03.09-.03.09-.02.09-.02.09-.02.09-.02.09-.02.1-.01.09-.01.09-.01.09-.01.09-.01.09V10.97l.01.09.01.09v.09l.02.09-.12.01-.01-.09-.01-.09-.01-.09v-.1L0 10.88v-.28l.01-.09v-.1l.01-.09.01-.1.01-.09.02-.09.02-.1.01-.09.02-.09.03-.1.02-.09.03-.09.03-.09.03-.09.03-.09.04-.09.03-.09.04-.09.04-.09.05-.09.04-.08.05-.09.05-.08.05-.08zM2.9 6.44l.07.1-.08.05-.07.05-.08.05-.07.05-.08.06-.08.05-.07.05-.08.05-.07.06-.08.05-.07.06-.08.06-.07.05-.08.06-.07.06-.07.06-.08.06-.07.06-.07.06-.07.07-.06.06-.07.06-.07.07-.06.07-.06.06-.06.07-.06.07-.06.07-.06.08-.05.07-.05.07-.05.08-.1-.06.05-.08.05-.08.06-.07.06-.08.06-.07.06-.07.06-.07.06-.07.07-.07.07-.07.06-.06.07-.07.07-.06.07-.07.08-.06.07-.06.07-.06.08-.06.07-.06.08-.06.08-.05.07-.06.08-.06.07-.05.08-.05.08-.06.07-.05.08-.05.08-.05.07-.06.08-.05.07-.05zm1.38-1.16l.1.06-.02.04-.02.03-.03.04-.03.04-.03.04-.03.03-.03.04-.04.04-.03.03-.04.04-.04.04-.04.03-.04.04-.04.04-.05.03-.04.04-.05.04-.05.03-.05.04-.05.04-.05.04-.05.03-.06.04-.05.04-.05.04-.06.04-.05.03-.06.04-.06.04-.06.04-.05.04-.06.04-.07-.1.06-.04.06-.04.06-.03.05-.04.06-.04.05-.04.06-.04.05-.04.06-.03.05-.04.05-.04.05-.03.05-.04.05-.04.05-.03.04-.04.05-.04.04-.03.04-.04.04-.03.04-.04.04-.03.03-.04.04-.03.03-.04.03-.03.03-.04.03-.03.02-.04.03-.03.02-.03.02-.04zm2.71-4.11l.07.1-.12.08-.12.09-.11.1-.11.1-.1.09-.1.11-.1.1-.09.11-.09.12-.09.11-.08.12-.08.12-.08.12-.08.13-.07.13-.08.13-.07.13-.07.13-.07.14-.07.14-.07.14-.07.14-.07.14-.07.15-.08.15-.07.14-.07.15-.08.15-.07.15-.08.15-.08.16-.09.15-.1-.06.08-.15.08-.15.08-.15.08-.15.07-.15.08-.15.07-.15.07-.14.07-.15.07-.14.07-.14.07-.14.07-.14.07-.14.08-.14.07-.13.07-.13.08-.13.08-.13.08-.12.08-.13.09-.12.09-.11.09-.12.09-.11.1-.11.1-.11.11-.1.11-.1.12-.1.12-.09.12-.09zM11.44.02l.01.11-.12.01-.13.01-.13.02-.13.01-.14.01-.14.02-.14.01-.14.02-.15.02-.14.02-.15.03-.15.02-.15.03-.15.03-.15.03-.15.03-.15.03-.15.04-.14.04L8.6.6l-.15.04-.14.04-.14.05-.14.05-.13.05-.13.06-.13.05-.13.06-.12.07-.11.06-.12.07-.1.07-.07-.1.11-.07.12-.07.12-.07.12-.06.13-.06.13-.06.14-.06.13-.05.14-.05.15-.05.14-.04.15-.05.15-.04.14-.04.15-.03.16-.04.15-.03.15-.03.15-.03.15-.02.15-.03.15-.02.15-.02.14-.02.15-.02.14-.02.14-.01.14-.02.13-.01.13-.01.13-.01.12-.01zm4.94.95l-.06.11-.12-.07-.13-.07-.13-.06-.14-.06-.14-.06-.15-.06-.15-.05L15.2.6l-.15-.05-.16-.04-.17-.04-.16-.04-.17-.04-.16-.04-.17-.03-.17-.03-.17-.03-.17-.02-.16-.03-.17-.02-.17-.01-.16-.02-.16-.01-.16-.01-.15-.01-.15-.01H11.7l-.13.01h-.12l-.01-.11.13-.01.13-.01H12.12l.15.01h.15l.16.01.16.01.16.01.17.02.16.02.17.02.17.02.17.03.17.02.17.04.17.03.17.03.17.04.16.04.17.05.16.04.16.05.16.05.15.05.15.06.14.06.15.06.13.07.13.06.13.07zm6.03 6.82l-.03.12-.04-.01-.05-.01h-.19l-.03.01h-.03l-.04.01-.03.02-.02.01-.03.01-.03.02-.02.02-.03.02-.02.02-.03.02-.02.03-.02.02-.02.03-.02.03-.02.03-.01.03-.02.04-.02.03-.01.04-.01.03-.02.04-.01.04-.01.04-.01.05-.11-.03.01-.04.01-.05.01-.04.02-.04.01-.04.02-.04.01-.04.02-.04.02-.04.02-.03.02-.04.03-.03.02-.03.03-.03.03-.03.02-.02.03-.03.04-.02.03-.02.03-.02.04-.01.04-.02.04-.01.04-.01h.04l.04-.01h.13l.05.01h.05l.05.01zm-.03.12zm.03 0h-.03l.03-.12.03.01.02.01-.05.1zm.03-.11h.01l.01.01-.02-.01zm-.03.12l-.02-.01.07-.1.02.02-.07.09zm0 0l.01.01-.01-.01zm.42.24l-.09.07-.01-.01-.01-.02-.01-.01-.01-.01-.01-.01-.01-.01-.01-.01-.01-.01v-.01l-.01-.01-.01-.01-.01-.01-.01-.01-.01-.01-.01-.01-.01-.01-.01-.01-.01-.01-.02-.01-.01-.01-.01-.01-.01-.01-.01-.01h-.01l-.01-.01-.01-.01-.01-.01-.01-.01h-.01l-.01-.01-.01-.01-.02-.01.07-.1.01.01.01.01.02.01.01.01.01.01.01.01.01.01h.02l.01.01.01.01.01.01.01.01.01.01.01.01.02.01.01.01.01.01.01.01.01.01.01.02.01.01.01.01.01.01.01.01.01.01.01.01.01.02.01.01.01.01.01.01.01.01.01.02zm.43 1.08l-.11.01-.01-.03v-.04l-.01-.03-.01-.04v-.03l-.01-.04-.01-.03-.01-.04v-.03l-.01-.04-.01-.03-.01-.04-.02-.03-.01-.03-.01-.04-.01-.03-.02-.03-.01-.04-.01-.03-.02-.03-.01-.03-.02-.03-.02-.03-.01-.03-.02-.03-.02-.03-.01-.03-.02-.03-.02-.02-.02-.03-.02-.03-.02-.02.09-.07.02.02.02.03.02.03.02.03.02.03.02.03.02.03.02.03.02.03.01.04.02.03.02.03.01.03.02.04.01.03.02.04.01.03.01.04.02.03.01.04.01.03.01.04.01.04.01.03.01.04.01.04v.03l.01.04.01.04v.04l.01.03v.04zm0 0V9.2v.04zm-.25 1.19l-.1-.06.02-.03.02-.03.02-.03.01-.04.02-.03.02-.03.01-.04.01-.03.02-.03.01-.04.01-.03.01-.04.01-.03.01-.04.01-.03v-.04l.01-.03.01-.04v-.03l.01-.04V9.58l.01-.04V9.4l-.01-.04V9.25l.11-.01.01.04v.38l-.01.04v.04l-.01.04v.04l-.01.04-.01.03-.01.04-.01.04-.01.04-.01.03-.01.04-.01.04-.02.03-.01.04-.02.04-.01.03-.02.04-.02.03-.02.04-.02.03-.02.03zm-.33.38l-.08-.09.02-.01.01-.01.01-.01.01-.01.01-.01.01-.01.01-.01.01-.01.01-.01.02-.01.01-.01.01-.01.01-.01.01-.01.01-.01v-.01l.02-.01v-.02l.01-.01.01-.01.01-.01.01-.01.01-.01.01-.01.01-.02v-.01l.01-.01.01-.01.01-.01.01-.01.01-.02v-.01l.1.06-.01.02v.01l-.01.01-.01.02-.01.01-.01.01-.01.01-.01.02-.01.01-.01.01-.01.01-.01.01-.01.02-.01.01-.01.01-.01.01-.01.01-.01.02-.01.01-.01.01-.01.01-.01.01-.01.01-.01.01-.02.02-.01.01-.01.01-.01.01-.01.01-.02.01-.01.01-.01.01zm0 0zm-.79-.15l.09-.07.02.03.02.02.02.02.02.02.02.01.02.02.01.02.02.01.02.02.02.01.02.01.02.01.02.01.02.01h.02l.01.01h.04l.02.01h.02l.02-.01h.04l.02-.01h.02l.02-.01.02-.01.02-.01.02-.01.02-.02.02-.01.02-.02.08.09-.03.02-.02.02-.03.02-.03.01-.02.02-.03.01-.02.01-.03.01h-.03l-.03.01h-.13l-.02-.01-.03-.01h-.02l-.03-.01-.02-.01-.03-.02-.02-.01-.02-.02-.03-.01-.02-.02-.02-.02-.02-.02-.03-.02-.02-.02-.02-.03-.02-.02-.02-.03zm-.41-1l.12-.02.01.04v.03l.01.04.01.03.01.04.01.03.01.04.01.03.01.03.01.04.01.03.01.03.01.04.01.03.02.03.01.03.01.03.01.03.02.03.01.03.01.03.02.03.01.02.01.03.02.03.01.02.02.02.01.03.02.02.01.02.02.02.01.02-.09.07-.02-.02-.01-.02-.02-.03-.02-.02-.01-.02-.02-.03-.01-.03-.02-.02-.01-.03-.02-.03-.01-.03-.02-.03-.01-.03-.01-.03-.02-.03-.01-.04-.01-.03-.02-.03-.01-.03-.01-.04-.01-.03-.01-.04-.01-.03-.01-.04-.01-.03-.01-.04-.01-.03-.01-.04-.01-.04-.01-.03-.01-.04-.01-.04zm-.02-1.16l.11.03v.03l-.01.03-.01.03v.06l-.01.03v.07l-.01.04V9.13l.01.04V9.28l.01.03v.04l.01.04v.03l.01.04v.04l.01.03v.04l.01.03.01.04-.12.02v-.03l-.01-.04-.01-.04v-.04l-.01-.03-.01-.04v-.08l-.01-.03v-.04l-.01-.04V9.14l-.01-.04v-.26l.01-.03v-.07l.01-.04v-.07l.01-.03v-.03l.01-.04.01-.03zm0 0z"/><path fill="#F08BB2" fill-rule="nonzero" d="M9.9 2.42c.12.01.23.02.35.05h.03c.05.02.1.05.16.08.34.2.79.65 1.1 1.2.32.56.5 1.21.29 1.81-.03.08-.06.15-.1.23-.8 1.43-2.1 1.46-3.56 1.48-.18 0-.37.01-.56.01-.52.02-1.03-.01-1.4-.18-.41-.18-.67-.51-.63-1.09.01-.12.03-.24.05-.37.18-.93.82-1.77 1.62-2.35.81-.59 1.78-.93 2.65-.87z"/><path fill="#2B2A29" fill-rule="nonzero" d="M10.26 2.41l-.02.11h-.03l-.01-.01H10.14l-.01-.01h-.05l-.01-.01H10l-.01-.01h-.1l.01-.12h.07l.01.01h.07l.01.01h.07l.01.01h.05l.01.01h.04l.01.01h.01zm0 0h.02-.02zm-.01.12l-.01-.01.02-.11h.02l.01.01-.04.11zm.03-.12l.01.01-.01-.01zm-.02.12l-.01-.01.04-.1h.01l-.04.11zm.04-.11h.01-.01zm.17.08l-.06.1h-.01v-.01h-.02l-.01-.01h-.01l-.01-.01h-.01v-.01h-.01l-.01-.01h-.02v-.01h-.02l-.01-.01h-.02l.05-.11h.01l.01.01h.02v.01h.02l.01.01h.01l.01.01h.01v.01h.02l.01.01h.01v.01h.01l.01.01h.01zm0 0l.04.03-.04-.03zm1.13 1.22l-.11.06-.03-.05-.03-.05-.03-.05-.03-.05-.03-.05-.03-.04-.04-.05-.03-.04-.03-.05-.04-.04-.03-.05-.04-.04-.03-.04-.04-.04L11 3.1l-.04-.04-.04-.04-.03-.03-.04-.04-.03-.03-.04-.04-.03-.03-.04-.03-.03-.03-.04-.03-.03-.02-.04-.03-.03-.02-.03-.03-.04-.02-.03-.02-.03-.02.06-.1.03.02.04.02.03.03.04.02.03.03.04.02.03.03.04.03.04.03.03.04.04.03.04.03.03.04.04.03.04.04.04.04.03.04.04.04.04.04.03.05.04.04.03.04.04.05.03.05.04.04.03.05.04.05.03.05.03.05.03.05.04.05.03.05zm.28 1.86l-.11-.04.02-.05.02-.06.01-.05.01-.06.01-.05.01-.06.01-.05V4.88l-.01-.06v-.06l-.01-.05-.01-.06-.01-.06-.01-.05-.02-.06-.01-.05-.02-.06-.02-.06-.02-.05-.02-.06-.02-.05-.03-.06-.02-.05-.03-.05-.02-.06-.03-.05-.03-.05-.03-.05.11-.06.03.05.02.06.03.05.03.06.03.05.02.06.03.05.02.06.02.06.02.06.02.05.02.06.01.06.02.06.01.06.02.06v.06l.01.06.01.06.01.06v.24l-.01.06v.06l-.01.06-.01.06-.01.06-.02.05-.02.06-.02.06zm0 0l.02-.06-.02.06zm-.1.24l-.11-.06.01-.01v-.01l.01-.01.01-.01v-.01l.01-.01v-.02l.01-.01v-.01l.01-.01v-.01l.01-.01v-.01l.01-.01v-.02l.01-.01v-.02l.01-.01v-.01l.11.04v.02h-.01v.03h-.01v.02l-.01.01v.01l-.01.01v.01l-.01.01v.01l-.01.01v.01l-.01.01v.02h-.01v.02l-.01.01-.01.01v.02zm0 0zM8.17 7.33v-.12h.27l.13-.01h.27l.13-.01.13-.01.12-.01.13-.01.12-.01.13-.02.12-.02.11-.02.12-.03.12-.02.11-.04.11-.03.11-.04.1-.05.11-.05.1-.06.1-.06.1-.06.09-.07.09-.08.1-.09.08-.09.09-.09.08-.11.08-.11.08-.12.07-.13.11.06-.08.13-.08.12-.08.12-.09.11-.09.1-.09.1-.1.09-.09.08-.1.07-.11.07-.1.07-.11.05-.11.06-.11.04-.11.05-.12.03-.11.04-.12.03-.12.02-.12.03-.13.02-.12.01-.13.02-.13.01-.12.01-.13.01h-.14l-.13.01h-.27l-.13.01h-.14zm0 0zm-.56.01l-.01-.11h.02l.02-.01H8.03l.02-.01H8.17v.12H7.87l-.01.01H7.61zm-1.43-.18l.05-.11.04.01.03.02.04.01.03.01.04.02.04.01.04.01.03.01.04.01h.04l.05.01.04.01.04.01h.04l.05.01h.04l.04.01h.05l.04.01h.14l.05.01h.42l.01.11h-.1l-.05.01h-.19l-.05-.01h-.19l-.05-.01h-.04l-.05-.01h-.04l-.05-.01h-.04l-.05-.01h-.04l-.05-.01-.04-.01-.04-.01-.04-.01-.04-.01-.05-.01-.03-.01-.04-.02-.04-.01-.04-.01-.04-.02-.04-.01zm-.66-1.15l.12.01V6.26l.01.04v.04l.01.05.01.04.01.04.02.03.01.04.01.03.02.04.02.03.02.03.02.03.02.03.02.03.02.03.03.03.02.02.03.03.03.02.03.02.03.02.03.03.03.02.04.02.03.01.04.02.03.02-.05.11-.04-.02-.03-.02-.04-.02-.04-.02-.04-.03-.03-.02-.03-.02-.04-.03-.03-.03-.03-.02-.03-.03-.02-.03-.03-.03-.03-.04-.02-.03-.02-.04-.02-.03-.02-.04-.02-.04-.02-.04-.02-.04-.01-.04-.01-.04-.01-.05-.01-.04-.01-.05v-.05l-.01-.05V6.01zm.12.01zm-.07-.39l.12.03v-.01l-.01.02v.04l-.01.01v.05l-.01.01V5.85l-.01.01v.08l-.01.01v.07l-.12-.01v-.04l.01-.01v-.09l.01-.01V5.8l.01-.01V5.73l.01-.02v-.04l.01-.01v-.03zm0 0l.01-.06-.01.06zm1.65-2.39l.07.09-.08.06-.07.06-.07.05-.07.06-.07.06-.07.07-.07.06-.06.06-.07.07-.06.07-.06.06-.06.07-.06.07-.06.07-.05.08-.05.07-.05.07-.05.08-.05.08-.05.07-.04.08-.04.08-.04.08-.04.08-.03.08-.04.08-.03.08-.03.09-.02.08-.02.08-.03.09-.01.09-.12-.03.02-.09.02-.08.03-.09.02-.09.03-.08.03-.09.04-.08.03-.09.04-.08.04-.08.05-.08.04-.09.05-.07.05-.08.05-.08.05-.08.05-.07.06-.08.06-.07.06-.07.06-.07.06-.07.07-.07.06-.07.07-.06.07-.07.07-.06.07-.07.07-.06.08-.06.07-.05.08-.06zm2.68-.88l-.01.12-.08-.01h-.24l-.08.01h-.08l-.09.01-.08.01-.08.02-.09.01-.08.02-.08.02-.09.02-.08.02-.09.03-.08.03-.08.02-.09.04-.08.03-.08.03-.08.04-.09.04-.08.04-.08.04-.08.04-.08.04-.08.05-.08.05-.07.05-.08.05-.08.05-.07.05-.07-.09.08-.05.07-.06.08-.05.08-.05.08-.05.08-.05.08-.04.09-.05.08-.04.08-.04.09-.04.08-.03.09-.04.08-.03.09-.04.08-.02.09-.03.09-.03.08-.02.09-.02.08-.02.09-.02.09-.02.08-.01.09-.01.08-.01.09-.01h.09l.08-.01h.08l.09.01h.08zm-.01.12h-.01.01z"/><path fill="#F08BB2" fill-rule="nonzero" d="M13.25 5.12c.05-.36.11-.74.06-1.05-.14-.99.18-1.43.71-1.51.54-.08 1.32.27 2 .81.68.53 1.29 1.24 1.5 1.88.22.63.08 1.18-.68 1.45-.53.19-1.01.28-1.52.27-.5 0-1.01-.1-1.6-.26-.67-.18-.57-.86-.47-1.59z"/><path fill="#2B2A29" fill-rule="nonzero" d="M13.26 4.08l.11-.01.01.03v.06l.01.03v.26l-.01.03v.1l-.01.03v.07l-.01.04v.06l-.01.04v.03l-.01.04v.06l-.01.04v.03l-.01.04v.03l-.01.03-.12-.01.01-.04v-.03l.01-.03v-.04l.01-.03V4.9l.01-.03v-.03l.01-.04v-.06l.01-.04v-.03l.01-.03v-.1l.01-.03V4.17l-.01-.03v-.06zm.75-1.58l.02.12h-.05l-.04.01-.05.02-.04.01-.04.02-.04.01-.04.02-.03.03-.04.02-.03.03-.03.03-.03.03-.03.03-.02.04-.03.04-.02.04-.02.04-.02.05-.02.05-.02.05-.01.06-.01.06-.01.06-.01.06-.01.07V3.8l.01.09.01.08.01.1-.11.01-.02-.09-.01-.09v-.09l-.01-.08v-.16l.01-.08v-.07l.01-.07.01-.06.01-.07.02-.06.02-.06.02-.05.02-.05.02-.05.03-.05.03-.05.03-.04.03-.04.04-.04.03-.03.04-.03.04-.03.05-.03.04-.02.04-.02.05-.02.05-.02.05-.01.05-.01.05-.01zm2.05.83l-.07.09-.07-.05-.06-.05-.07-.05-.06-.04-.07-.05-.06-.04-.07-.04-.06-.04-.07-.04-.07-.04-.06-.04-.07-.03-.06-.03-.07-.04-.06-.03-.07-.02-.06-.03-.06-.02-.07-.03-.06-.02-.06-.02-.06-.01-.06-.02-.06-.01-.05-.01-.06-.01h-.11l-.05-.01-.05.01h-.05l-.05.01-.02-.12.05-.01H14.29l.06.01.06.01.07.01.06.01.06.02.06.01.07.02.06.02.07.03.06.02.07.03.07.03.06.03.07.03.07.03.06.04.07.04.07.04.07.04.06.04.07.04.07.05.07.04.06.05.07.05.06.05.07.05zm1.52 1.9l-.11.03-.02-.05-.03-.06-.02-.06-.03-.06-.03-.06-.03-.06-.03-.06-.04-.06-.04-.06-.03-.06-.04-.06-.05-.06-.04-.06-.05-.06-.04-.06-.05-.06-.05-.06-.05-.06-.05-.06-.06-.06-.05-.06-.05-.06-.06-.05-.06-.06-.06-.06-.06-.05-.05-.05-.07-.06-.06-.05-.06-.05-.06-.05-.06-.05.07-.09.06.05.07.05.06.05.06.05.06.06.06.05.06.06.06.06.06.05.06.06.06.06.05.06.06.06.05.06.05.06.05.06.05.06.05.07.04.06.05.06.04.06.04.06.04.07.04.06.04.06.03.06.04.07.03.06.02.06.03.06.03.07.02.06zm-.72 1.53l-.04-.11.07-.03.06-.02.06-.03.06-.03.05-.03.05-.04.04-.03.05-.03.04-.04.03-.04.04-.04.03-.03.02-.05.03-.04.02-.04.02-.04.02-.05.01-.04.01-.05.01-.05.01-.05V5.6l-.01-.06-.01-.05-.01-.06-.02-.05-.02-.06-.01-.06.11-.03.02.06.01.06.02.06.01.06.01.06.01.05.01.06V5.81l-.01.06v.05l-.01.06-.02.05-.01.05-.02.05-.02.05-.03.05-.03.05-.03.04-.03.05-.04.04-.04.04-.05.04-.04.04-.05.04-.06.04-.06.03-.06.03-.06.03-.07.03-.07.03zm-1.54.27v-.12H15.6l.05-.01h.09l.05-.01h.04l.05-.01.05-.01h.04l.05-.01.04-.01.05-.01h.05l.04-.01.05-.01.05-.01.04-.02.05-.01.05-.01.04-.01.05-.02.05-.01.05-.02.05-.01.04-.02.05-.01.05-.02.04.11-.05.02-.05.01-.05.02-.05.02-.05.01-.05.02-.04.01-.05.01-.05.02-.05.01-.05.01-.04.01-.05.01-.05.01-.05.01-.05.01-.04.01h-.05l-.05.01-.05.01h-.04l-.05.01h-.05l-.05.01h-.09l-.05.01h-.24zm-1.62-.26l.03-.11.06.01.05.02.05.01.06.01.05.02.05.01.06.01.05.01.05.02.05.01.05.01.05.01.05.01.05.01.05.01h.05l.05.01.05.01.05.01h.05l.05.01h.04l.05.01h.05l.05.01h.09l.05.01H15.32v.12h-.14l-.05-.01h-.09l-.05-.01h-.1L14.84 7l-.05-.01h-.05l-.05-.01-.05-.01h-.05l-.05-.01-.05-.01-.05-.01-.05-.01-.05-.01-.05-.01-.05-.01-.06-.01-.05-.01-.05-.01-.05-.02-.06-.01-.05-.01-.05-.02-.06-.01-.06-.02-.05-.01zm-.51-1.66l.12.01-.01.07-.01.07-.01.07-.01.07v.06l-.01.07-.01.06v.06l-.01.07v.29l.01.05v.05l.01.05.01.05.02.05.01.04.02.04.02.04.03.04.02.03.03.04.04.03.03.03.04.02.04.03.05.02.05.02.06.02-.03.11-.06-.02-.06-.02-.06-.03-.05-.03-.05-.03-.04-.04-.04-.03-.04-.04-.03-.05-.03-.04-.02-.05-.03-.05-.01-.05-.02-.05-.01-.05-.01-.06-.01-.06-.01-.05v-.31l.01-.06v-.07l.01-.07.01-.06.01-.07.01-.07.01-.07v-.06l.01-.07z"/><path fill="#FEFEFE" fill-rule="nonzero" d="M22.26 7.75c-.51-.07-.79.19-.9.56-.12.39-.08.89.05 1.36.13.46.36.89.63 1.13.17.15.29.21.44.12.2-.11.36-.24.48-.39.34-.37.34-.83.27-1.27-.07-.45-.16-.88-.52-1.2-.13-.12-.29-.23-.45-.31z"/><path fill="#2B2A29" fill-rule="nonzero" d="M22.24 7.8c-.22-.03-.39.01-.53.09-.15.1-.25.25-.3.44-.06.18-.08.39-.07.61.01.23.05.47.12.71.07.23.16.46.27.65.1.19.22.35.35.46.07.07.14.12.2.14.06.02.12.01.18-.02.09-.06.18-.12.25-.18.08-.06.15-.13.21-.2.16-.18.24-.38.28-.59.03-.21.01-.43-.02-.64-.03-.22-.07-.44-.15-.64-.07-.2-.18-.38-.35-.53-.07-.06-.14-.12-.21-.17-.08-.05-.15-.09-.23-.13zm-.58 0c.15-.09.35-.14.6-.11l.01.01h.01c.09.04.17.09.24.14.08.06.16.12.23.18.18.17.3.36.38.57.08.21.12.43.15.66.04.23.05.46.02.68-.04.23-.13.44-.3.64-.06.07-.14.14-.22.21-.08.07-.17.13-.27.19-.09.05-.17.06-.26.03-.08-.02-.15-.08-.24-.16-.14-.12-.26-.29-.37-.49-.12-.2-.21-.43-.28-.67-.07-.24-.11-.5-.12-.74-.01-.23.01-.45.07-.64.06-.21.18-.39.35-.5z"/><path fill="#F5B2B6" fill-rule="nonzero" d="M22.3 8.16c-.27-.04-.41.15-.47.42-.07.29-.05.66.02 1 .07.35.19.66.33.84.09.11.18.16.26.09.1-.08.19-.18.25-.28.18-.28.23-.62.2-.95-.04-.33-.17-.65-.35-.88-.07-.1-.16-.17-.24-.24z"/><path fill="#2B2A29" fill-rule="nonzero" d="M22.28 8.22c-.1-.02-.19.01-.25.06-.07.07-.12.18-.15.32-.03.13-.04.28-.04.44.01.18.03.36.06.53.04.17.09.34.14.48.06.14.12.26.19.34.03.05.07.08.11.1.02 0 .05 0 .07-.02.05-.04.09-.08.13-.13.04-.04.08-.09.11-.14.08-.13.14-.27.17-.42.03-.16.03-.33.02-.49-.02-.16-.06-.32-.12-.46-.06-.15-.13-.29-.22-.4-.04-.04-.07-.09-.11-.12-.04-.04-.07-.07-.11-.09zm-.32-.02c.09-.08.2-.11.35-.09h.01l.01.01c.04.03.09.07.13.11.04.04.08.08.12.13.09.13.17.27.24.43.06.15.1.32.12.49.02.17.01.35-.02.52-.04.16-.09.31-.18.45-.04.06-.08.11-.12.16-.04.05-.09.1-.15.14-.05.05-.11.06-.17.04-.05-.02-.1-.07-.16-.13-.07-.1-.14-.22-.19-.37-.06-.15-.11-.32-.15-.49-.03-.19-.06-.37-.06-.55-.01-.17 0-.34.04-.48.03-.15.09-.29.18-.37z"/><path fill="#F08BB2" fill-rule="nonzero" d="M6.29 10.41c-1.3-.05-2.11.41-2.48 1.07-.17.3-.26.63-.26.98-.01.36.06.72.21 1.07.39.95 1.32 1.77 2.65 1.88.62.06 1.15-.17 1.55-.56.46-.45.76-1.11.84-1.78.01-.03.01-.06.01-.1.04-.64-.27-1.23-.74-1.69-.47-.46-1.09-.78-1.66-.85-.04-.01-.08-.01-.12-.02zm-1.36 2.43c-.08-.14-.13-.3-.15-.49-.02-.3.04-.54.15-.74.12-.23.32-.38.54-.47.22-.08.47-.1.71-.06.28.04.56.17.77.37.06.07.12.15.16.22.13.23.17.49.14.74-.03.26-.13.5-.31.68-.06.07-.13.13-.21.17-.17.1-.36.16-.57.18-.23.02-.47-.02-.69-.12-.22-.1-.41-.26-.54-.48z"/><path fill="#2B2A29" fill-rule="nonzero" d="M3.86 11.51l-.1-.06.03-.06.04-.06.05-.06.04-.06.05-.06.05-.06.05-.05.06-.06.06-.05.06-.05.07-.04.06-.05.07-.04.07-.05.08-.04.08-.03.08-.04.08-.03.09-.03.08-.03.1-.03.09-.02.1-.02.1-.02.1-.02.1-.01.11-.01.11-.01.12-.01H6.17l.12.01v.11H5.83l-.11.01-.1.01-.11.02-.09.01-.1.02-.09.02-.09.02-.09.03-.09.03-.08.03-.08.03-.07.03-.08.04-.07.04-.07.04-.06.04-.07.04-.06.05-.05.04-.06.05-.05.05-.05.05-.05.06-.05.05-.04.06-.04.05-.04.06-.03.06zm-.25.95h-.12v-.13l.01-.03v-.07l.01-.03v-.04l.01-.03v-.03l.01-.03.01-.04V12l.01-.03.01-.03.01-.03.01-.04.01-.03.01-.03.01-.03.01-.03.01-.03.01-.03.01-.03.02-.03.01-.03.01-.03.02-.03.01-.03.02-.03.02-.03.1.06-.02.03-.01.02-.02.03-.01.03-.01.03-.02.03-.01.02-.01.03-.01.03-.01.03-.01.03-.01.03-.01.03-.01.03-.01.03-.01.03V12l-.01.03-.01.03-.01.03v.03l-.01.03v.03l-.01.03v.06l-.01.04v.15zm.2 1.05l-.11.04-.01-.03-.01-.03-.02-.04-.01-.03-.01-.03-.01-.04-.01-.03-.01-.04-.01-.03-.01-.03-.01-.04-.01-.03-.01-.04-.01-.03-.01-.03v-.04l-.01-.03-.01-.04v-.03l-.01-.04v-.03l-.01-.04v-.06l-.01-.04V12.46h.12l-.01.04v.03l.01.03v.16l.01.04v.03l.01.03v.07l.01.03.01.03v.04l.01.03.01.03v.04l.01.03.01.03.01.03.01.04.01.03.01.03.01.04.01.03.01.03.01.03.02.04.01.03.01.03zm2.61 1.84l-.02.12h.01l-.13-.01-.12-.02-.12-.02-.12-.03-.12-.02-.11-.04-.11-.03-.11-.04-.11-.04-.1-.05-.1-.05-.1-.05-.09-.06-.1-.06-.09-.06-.08-.06-.09-.06-.08-.07-.08-.07-.07-.08-.08-.07-.06-.08-.07-.07-.07-.09-.06-.08-.05-.08-.06-.08-.05-.09-.05-.09-.04-.09-.05-.09-.04-.09.11-.04.04.09.04.08.04.09.05.08.05.08.05.08.06.08.06.08.06.08.06.08.07.07.07.07.07.07.08.07.08.06.08.07.08.06.09.06.09.05.09.06.09.05.1.04.1.05.1.04.1.04.11.03.11.03.11.03.12.02.11.02.12.02.13.01zm1.5-.54l.08.08-.04.04-.04.03-.04.04-.04.03-.04.03-.04.04-.05.03-.04.03-.05.02-.04.03-.05.03-.05.02-.04.03-.05.02-.05.02-.05.02-.05.02-.05.02-.05.01-.06.02-.05.01-.05.01-.06.01-.05.01-.06.01h-.05l-.06.01h-.18l-.06-.01H6.4l.02-.12.05.01H6.75l.05-.01.05-.01h.05l.05-.01.05-.01.05-.02.05-.01.05-.02.05-.01.05-.02.04-.02.05-.02.05-.02.04-.02.04-.02.05-.03.04-.02.04-.03.05-.03.04-.03.04-.03.04-.03.03-.03.04-.03.04-.04.04-.03zm.82-1.75l.12.01-.01.07-.01.06-.01.07-.01.06-.02.06-.01.07-.02.06-.01.06-.02.06-.02.07-.02.06-.02.06-.03.06-.02.06-.03.06-.02.05-.03.06-.03.06-.03.06-.03.05-.03.06-.04.05-.03.06-.04.05-.03.05-.04.05-.04.05-.04.05-.04.04-.04.05-.05.05-.04.04-.08-.08.04-.05.04-.04.04-.04.04-.05.04-.04.03-.05.04-.05.04-.05.03-.05.03-.05.03-.05.04-.06.03-.05.02-.05.03-.06.03-.05.03-.06.02-.06.02-.06.03-.05.02-.06.02-.06.02-.06.01-.06.02-.06.02-.06.01-.06.01-.06.02-.07.01-.06.01-.06v-.06zm.01-.09h.12v.07h-.01v.03l-.12-.01.01-.01h-.01.01v-.08zm-.72-1.65l.09-.08.04.05.04.04.04.05.05.04.04.05.04.05.03.05.04.05.04.05.03.05.03.05.03.05.03.05.03.06.03.05.03.05.02.06.02.06.03.05.02.06.01.06.02.05.01.06.02.06.01.06.01.06v.06l.01.06v.24h-.12l.01-.06v-.12l-.01-.05v-.06l-.01-.06-.01-.05-.01-.06-.01-.05-.01-.06-.02-.05-.02-.05-.01-.06-.02-.05-.03-.05-.02-.06-.02-.05-.03-.05-.03-.05-.03-.05-.03-.05-.03-.05-.03-.05-.04-.05-.03-.04-.04-.05-.03-.05-.04-.04-.04-.05-.04-.04-.04-.04-.05-.05zm-1.63-.84l.02-.11.05.01h.06l.05.02.06.01.05.01.06.02.05.01.06.02.06.02.05.02.06.02.05.02.06.03.05.02.06.03.05.03.06.03.05.02.06.04.05.03.05.03.06.03.05.04.05.04.05.03.05.04.05.04.05.04.05.04.04.05.05.04.05.04-.09.08-.04-.04-.05-.04-.04-.04-.05-.04-.04-.04-.05-.04-.05-.03-.05-.04-.05-.03-.05-.04-.05-.03-.05-.03-.05-.03-.06-.03-.05-.03-.05-.03-.05-.03-.06-.02-.05-.03-.05-.02-.06-.02-.05-.02-.05-.02-.06-.02-.05-.02-.05-.01-.06-.02-.05-.01-.05-.01-.05-.01-.06-.01-.05-.01zm0 0zm-.11-.01v-.11H6.4v.01h.02l-.02.11h-.07l-.01-.01h-.03zm0-.11h.01-.01zm0 .05v.06-.06zm0-.05h.01-.01zm-1.57 1.99l.12-.01v.04l.01.01v.05l.01.02v.03l.01.02v.03l.01.01v.03l.01.02v.01l.01.02v.01l.01.02v.01l.01.01v.02l.01.01.01.01v.02l.01.01v.01l.01.02.01.01v.01l.01.01-.1.06-.01-.01-.01-.02v-.01l-.01-.02-.01-.01-.01-.01v-.02l-.01-.01-.01-.02v-.01l-.01-.02v-.02l-.01-.01v-.02l-.01-.01v-.02l-.01-.02v-.01l-.01-.02v-.02l-.01-.01v-.04l-.01-.02v-.03l-.01-.02v-.07l-.01-.02zm.15-.77l.11.06-.01.02-.01.02-.01.01-.01.02-.01.02-.01.02v.02l-.01.02-.01.02v.02l-.01.02-.01.02v.02l-.01.02v.02l-.01.02V12l-.01.02v.04l-.01.03v.25l-.12.01v-.25l.01-.02v-.05l.01-.03v-.05l.01-.02v-.02l.01-.03v-.02l.01-.02.01-.03v-.02l.01-.02.01-.02.01-.02.01-.03v-.02l.01-.02.01-.02.01-.02.01-.02.01-.02zm.11.06l-.1.17.1-.17zm.47-.55l.04.11-.02.01h-.02l-.02.01-.01.01-.02.01-.02.01-.02.01-.02.01-.02.01-.02.01-.01.02-.02.01-.02.01-.02.01-.01.02-.02.01-.02.01-.01.02-.02.01-.01.02-.02.01-.01.02-.02.02-.01.01-.02.02-.01.02-.01.01-.02.02-.01.02-.01.02-.01.02-.01.02-.11-.06.02-.02.01-.02.01-.02.02-.02.01-.02.02-.02.01-.02.02-.02.01-.02.02-.02.02-.02.01-.01.02-.02.02-.02.02-.01.01-.02.02-.01.02-.02.02-.01.02-.02.02-.01.02-.01.02-.02.02-.01.02-.01.02-.01.02-.01.02-.01.03-.01.02-.01.02-.01.02-.01zm.73-.07l-.01.11h-.05l-.02-.01h-.3l-.02.01h-.04l-.02.01H5.7l-.02.01h-.05l-.02.01-.02.01h-.02l-.02.01h-.02l-.02.01-.02.01-.04-.11.02-.01.02-.01h.03l.02-.01.02-.01h.02l.03-.01h.02l.02-.01h.02l.03-.01h.02l.02-.01h.07l.03-.01H6.07l.02.01h.07l.02.01zm0 0zm.81.39l-.08.09-.02-.02-.02-.02-.02-.02-.02-.01-.02-.02-.02-.02-.02-.01-.02-.02-.02-.01-.03-.02-.02-.01-.02-.01-.02-.02-.03-.01-.02-.01-.02-.01-.03-.01-.02-.01-.02-.01-.03-.01-.02-.01-.03-.01-.02-.01-.03-.01-.02-.01h-.03l-.02-.01-.03-.01h-.03l-.02-.01h-.03l-.02-.01.01-.11h.03l.03.01h.03l.03.01.02.01h.03l.03.01.03.01.02.01.03.01.03.01.02.01.03.01.03.01.02.01.03.01.02.02.03.01.02.01.03.02.02.01.03.02.02.01.02.02.03.01.02.02.02.02.02.02.03.02.02.01.02.02.02.02zm.18.24l-.11.05v-.01l-.01-.01v-.01h-.01v-.01l-.01-.01-.01-.01v-.01l-.01-.01-.01-.01v-.01l-.01-.01-.01-.01-.01-.01v-.01h-.01v-.01h-.01l-.01-.01v-.01h-.01v-.01l-.01-.01-.01-.01.08-.09v.01l.01.01h.01l.01.01v.01h.01v.01l.01.01h.01v.01l.01.01v.01h.01v.01l.01.01.01.01.01.01v.01h.01v.01l.01.01v.01h.01v.01l.01.01v.01h.01v.01l.01.01v.01l.01.01zm-.11.05l-.02-.03.02.03zm.25.72l-.12-.01.01-.03V12.11l-.01-.02v-.05l-.01-.02V12l-.01-.02v-.03l-.01-.02-.01-.02v-.02l-.01-.02-.01-.02-.01-.03-.01-.02-.01-.02v-.02l-.02-.02-.01-.02-.01-.02.11-.05.01.02.01.02.01.02.01.03.01.02.01.02.01.02.01.03.01.02.01.03v.02l.01.02.01.03v.02l.01.03v.05l.01.02v.05l.01.03v.22l-.01.03v.02zm0 0zm-.32.71l-.09-.08.01-.01.02-.02.01-.02.02-.01.01-.02.01-.02.02-.02.01-.02.01-.02.01-.01.02-.02.01-.02.01-.02.01-.02.01-.02.01-.02.01-.02.01-.03v-.02l.01-.02.01-.02.01-.02v-.02l.01-.02.01-.03v-.02l.01-.02v-.05l.01-.02v-.04l.12.01v.03l-.01.02v.05l-.01.02-.01.03v.02l-.01.03-.01.02v.02l-.01.03-.01.02-.01.02-.01.03-.01.02-.01.02-.01.03-.01.02-.01.02-.01.02-.01.02-.02.03-.01.02-.01.02-.02.02-.01.02-.01.02-.02.02-.02.02-.01.02-.02.01-.01.02zm0 0l-.18.19.18-.19zm-.23.18l-.06-.1h.01v-.01h.02v-.01h.01l.01-.01.01-.01h.01v-.01h.02v-.01l.01-.01.01-.01h.01l.01-.01.01-.01.01-.01.01-.01h.01v-.01l.01-.01.01-.01.01-.01.09.08-.01.01-.01.01-.01.01h-.01v.01l-.01.01h-.01v.01l-.01.01h-.01v.01H6.9l-.01.01-.01.01-.01.01h-.01v.01h-.01l-.01.01-.01.01h-.01l-.01.01-.01.01h-.01l-.01.01-.01.01h-.01zm-.59.19l-.01-.12h.03l.02-.01h.06l.01-.01h.04l.02-.01h.03l.02-.01h.02l.01-.01h.02l.02-.01h.02l.01-.01.02-.01h.02l.01-.01.02-.01h.02l.01-.01.02-.01h.01l.02-.01.02-.01.01-.01.02-.01.01-.01.06.1-.02.01-.01.01-.02.01-.02.01-.01.01-.02.01-.02.01h-.02l-.01.01-.02.01-.02.01h-.02l-.02.01-.02.01H6.5l-.02.01h-.02l-.02.01h-.02l-.02.01h-.02l-.02.01h-.02l-.02.01h-.05l-.02.01h-.06l-.02.01zm-.01-.12zm0 .06l.01.06-.01-.06zm0-.06zm-.71-.01l.04-.1.02.01h.02l.02.01.02.01.02.01h.02l.02.01.02.01h.02l.02.01h.02l.02.01h.03l.02.01h.04l.02.01h.04l.02.01H6.16l.01.12H5.94l-.03-.01h-.07l-.02-.01h-.04l-.03-.01h-.02l-.02-.01h-.02l-.03-.01-.02-.01h-.02l-.02-.01-.02-.01h-.03l-.02-.01-.02-.01-.02-.01-.02-.01-.02-.01zm-.57-.5l.1-.06.01.02.01.02.02.02.01.02.01.02.01.02.02.01.01.02.02.02.01.01.01.02.02.01.01.02.02.01.02.02.01.01.02.02.02.01.01.01.02.02.02.01.02.01.01.01.02.02.02.01.02.01.02.01.02.01.02.01.01.01.02.01.02.01-.04.1-.03-.01-.02-.01-.02-.01-.02-.01-.02-.01-.02-.01-.02-.01-.02-.01-.02-.02-.02-.01-.02-.01-.02-.02-.02-.01-.02-.02-.02-.01-.01-.02-.02-.01-.02-.02-.02-.02-.01-.01-.02-.02-.02-.02-.01-.02-.02-.02-.01-.01-.02-.02-.01-.02-.02-.02-.01-.02-.02-.02-.01-.03-.01-.02z"/><path fill="#F5B2B6" fill-rule="nonzero" d="M5.1 12.32c.01.14.05.26.11.36.09.16.22.27.39.34.16.08.35.11.54.09.15-.01.3-.05.43-.13.05-.03.1-.07.14-.12.13-.13.2-.3.23-.49.02-.18-.01-.37-.1-.53-.03-.06-.07-.11-.11-.15-.16-.16-.38-.26-.6-.29-.19-.03-.38-.01-.55.05-.15.06-.29.17-.38.32-.08.14-.11.32-.1.55z"/><path fill="#2B2A29" fill-rule="nonzero" d="M5.26 12.65l-.11.06v-.01l-.01-.01v-.01l-.01-.01v-.02h-.01v-.02l-.01-.01v-.01l-.01-.01v-.01l-.01-.01v-.02l-.01-.02v-.02l-.01-.01v-.03l-.01-.01v-.04l-.01-.01v-.07l-.01-.01v-.01l.12-.01v.05l.01.01v.04l.01.01v.04l.01.01v.02l.01.01v.02l.01.01v.02l.01.01v.02l.01.01v.01h.01v.01l.01.01v.01l.01.01zm.36.32l-.05.1h-.01l-.02-.01-.02-.01-.01-.01h-.02l-.01-.01-.02-.01-.01-.01-.02-.01-.01-.01-.02-.01-.01-.01-.01-.01-.02-.01-.01-.01-.01-.01-.02-.02-.01-.01-.01-.01-.02-.01-.01-.01-.01-.02-.01-.01-.01-.01-.01-.02-.02-.01-.01-.02-.01-.01-.01-.02-.01-.01-.01-.02-.01-.01.11-.06v.01l.01.02.01.01.01.01.01.01.01.02.01.01.01.01.01.01.01.01.01.02.01.01.01.01.01.01.01.01.01.01.01.01.02.01.01.01.01.01.01.01h.01l.02.01.01.01.01.01.02.01h.01l.01.01.02.01h.01l.02.01.01.01zm.52.08v.12H5.92l-.02-.01h-.05l-.02-.01H5.8l-.02-.01h-.02l-.02-.01h-.03l-.02-.01-.02-.01h-.01l-.02-.01h-.02l-.01-.01-.02-.01-.02-.01.05-.1h.01l.02.01.01.01h.02l.02.01h.01l.02.01h.01l.02.01h.01l.02.01h.03l.02.01h.05l.01.01h.08l.02.01h.08l.02-.01h.04zm-.01 0h.01-.01zm.01.12v-.12.12zm0 0zm.4-.24l.06.1-.01.01-.02.01h-.01l-.01.01-.01.01h-.02l-.01.01h-.02l-.01.01-.01.01h-.02l-.01.01h-.01l-.02.01H6.4l-.02.01h-.03l-.01.01h-.03l-.02.01h-.03l-.01.01H6.19l-.02.01h-.03l-.01-.12H6.2l.02-.01h.04l.01-.01h.03l.01-.01h.03l.01-.01h.02l.02-.01h.01l.01-.01h.01l.02-.01h.01l.01-.01h.01l.01-.01h.01l.02-.01.01-.01h.01l.01-.01zm.06.1zm.07-.21l.09.08-.01.01-.01.01-.01.01v.01h-.01l-.01.01-.01.01h-.01v.01h-.01v.01h-.01l-.01.01h-.01V13h-.01v.01h-.01l-.01.01h-.01l-.01.01-.06-.1.01-.01h.01l.01-.01h.01v-.01h.01v-.01h.01l.01-.01.01-.01h.01v-.01h.01v-.01h.01v-.01h.01v-.01h.01v-.01zm0 0zm.21-.45l.12.01-.01.02v.03l-.01.02v.04l-.01.02v.02l-.01.01v.02l-.01.02-.01.01v.02l-.01.02-.01.02v.01l-.01.02-.01.02-.01.01-.01.02v.01l-.01.02-.01.02-.01.01-.01.02-.01.01-.01.02-.02.01-.01.01-.01.02-.01.01-.01.01-.09-.08.01-.01.01-.01.01-.01.01-.01.01-.02.01-.01.01-.01.01-.01.01-.02.01-.01v-.01l.01-.02.01-.01.01-.02v-.01l.01-.01.01-.02v-.01l.01-.02v-.01l.01-.02v-.01l.01-.02v-.02l.01-.01v-.02l.01-.01v-.05l.01-.02v-.01zm.12.01zm-.21-.51l.1-.06.01.02.01.01.01.02v.02l.01.01.01.02v.02l.01.01.01.02v.02l.01.02v.01l.01.02v.02l.01.02v.05l.01.02V12.38l-.12-.01v-.07l.01-.02v-.06l-.01-.02v-.08l-.01-.01v-.03l-.01-.02v-.02l-.01-.01V12l-.01-.02-.01-.01v-.02l-.01-.01v-.02l-.01-.01-.01-.01v-.02l-.01-.01zm-.11-.14l.09-.08.01.01v.01h.01v.01h.01v.01h.01v.01h.01v.01h.01v.02h.01v.01h.01v.01l.01.01v.01h.01v.01l.01.01v.01h.01v.01l-.1.06v-.01h-.01v-.01l-.01-.01v-.01h-.01v-.01l-.01-.01v-.01h-.01v-.01h-.01v-.01l-.01-.01v-.01h-.01v-.01H6.7l-.01-.01v-.01h-.01zm-.56-.27l.02-.12.02.01h.04l.03.01h.02l.02.01.02.01h.02l.02.01.03.01h.02l.02.01.02.01.02.01.02.01.02.01.02.01.02.01.02.01.02.01.02.01.01.01.02.01.02.02.02.01.02.01.01.01.02.02.02.01.01.02.02.01.02.02-.09.08-.01-.01-.01-.02-.02-.01-.01-.01-.02-.01-.01-.02-.02-.01-.02-.01-.01-.01-.02-.01-.01-.01-.02-.01-.02-.01-.02-.01-.01-.01-.02-.01-.02-.01h-.02l-.02-.01-.02-.01-.01-.01h-.02l-.02-.01-.02-.01h-.02l-.02-.01h-.02l-.02-.01h-.02l-.02-.01h-.04zm-.51.04l-.05-.1.02-.01.02-.01h.01l.02-.01h.02l.01-.01h.02l.02-.01h.03l.02-.01h.06l.02-.01H6.06l.02.01h.06l-.02.12H6.1l-.01-.01H6l-.01-.01h-.07l-.02.01h-.1l-.01.01h-.05l-.01.01h-.02l-.01.01h-.04l-.01.01h-.02l-.01.01h-.01zm-.36.3l-.1-.06v.01l.01-.02.01-.02.01-.01.01-.02.01-.01.01-.01.01-.02.01-.01.01-.02.01-.01.02-.01.01-.01.01-.01.01-.02.02-.01.01-.01.01-.01.01-.01.02-.01.01-.01.02-.01.01-.01.02-.01.01-.01h.02l.01-.01.01-.01.02-.01.02-.01h.01l.02-.01h.01l.05.1-.02.01-.01.01h-.02l-.01.01h-.01l-.01.01-.02.01H5.5l-.01.01-.02.01-.01.01-.01.01h-.01l-.01.01-.01.01-.02.01-.01.01-.01.01-.01.01-.01.01-.01.01-.01.01-.01.01-.01.01-.01.01-.01.02-.01.01v.01l-.01.01-.01.02-.01.01-.01.01zm0 0l-.03.07.03-.07zm-.09.52l-.12.01V12.12l.01-.02v-.06l.01-.02v-.03l.01-.02v-.02l.01-.02v-.01l.01-.02v-.02l.01-.01v-.02l.01-.02v-.01l.01-.02.01-.01.01-.02v-.01l.01-.02.1.06v.01l-.01.02-.01.01v.01l-.01.01v.02l-.01.01v.02l-.01.01v.01l-.01.02v.01l-.01.02v.03l-.01.02v.05l-.01.01V12.32zm0 0z"/><path fill="#F08BB2" fill-rule="nonzero" d="M16.02 15.49c.65.28 1.22.32 1.69.2.38-.1.7-.29.96-.54.26-.25.47-.56.6-.89.19-.46.24-.95.14-1.36-.08-.41-.24-.76-.44-1.04-.31-.43-.73-.72-1.19-.87-.46-.16-.96-.18-1.42-.08-.34.08-.66.21-.92.41-.28.21-.51.48-.67.79-.2.36-.3.77-.28 1.2.02.41.16.84.44 1.24.25.35.61.67 1.09.94zm.62-3.67c.02-.01.03-.02.04-.03.32-.18.7-.08.98.14.1.08.19.18.26.28.08.11.13.23.15.34.04.24-.03.48-.28.65h-.01c-.23.16-.51.22-.77.19-.26-.04-.5-.17-.65-.39l-.01-.01c-.01-.02-.02-.03-.02-.04-.08-.15-.09-.38-.03-.6.06-.21.17-.42.34-.53z"/><path fill="#2B2A29" fill-rule="nonzero" d="M17.7 15.63l.03.12-.05.01-.05.01-.04.01h-.05l-.05.01-.05.01h-.05l-.05.01h-.31l-.05-.01h-.05l-.06-.01-.05-.01h-.06l-.05-.01-.06-.01-.06-.02-.05-.01-.06-.02-.06-.01-.06-.02-.06-.02-.06-.02-.06-.02-.06-.02-.06-.03-.06-.02.05-.11.06.03.06.02.05.02.06.02.06.02.06.02.05.02.06.01.05.02.06.01.05.01.06.01.05.01.05.01.06.01h.05l.05.01H17.38l.05-.01.05-.01h.04l.05-.01.04-.01.05-.01.04-.01zm0 0zm.93-.52l.08.08-.02.03-.03.02-.02.03-.03.02-.03.02-.03.02-.02.02-.03.03-.03.02-.03.02-.03.02-.03.02-.02.02-.03.01-.04.02-.03.02-.03.02-.03.01-.03.02-.03.02-.03.01-.04.02-.03.01-.03.01-.04.02-.03.01-.04.01-.03.01-.04.02-.03.01-.04.01-.03.01-.03-.12.03-.01.04-.01.03-.01.03-.01.04-.01.03-.01.03-.01.03-.01.03-.02.04-.01.03-.01.03-.02.03-.01.03-.02.03-.02.03-.01.03-.02.02-.02.03-.01.03-.02.03-.02.03-.02.02-.02.03-.02.03-.02.02-.02.03-.02.02-.02.03-.02.02-.02.03-.03.02-.02zm.59-.87l.1.05-.01.03-.01.03-.02.03-.01.03-.02.03-.01.03-.02.03-.01.03-.02.03-.01.03-.02.03-.02.03-.02.03-.01.03-.02.03-.02.03-.02.03-.02.03-.02.02-.02.03-.02.03-.02.03-.03.02-.02.03-.02.03-.02.02-.03.03-.02.03-.02.02-.03.03-.02.02-.03.02-.08-.08.02-.02.03-.03.02-.02.02-.02.03-.03.02-.02.02-.03.02-.02.02-.03.02-.02.02-.03.02-.03.02-.02.02-.03.02-.03.02-.03.02-.02.02-.03.01-.03.02-.03.02-.03.01-.02.02-.03.01-.03.02-.03.01-.03.02-.03.01-.03.02-.03.01-.03.01-.03.02-.03zm.14-1.32l.11-.03.01.04.01.04v.04l.01.04.01.04v.09l.01.04V13.44l-.01.04v.09l-.01.05v.04l-.01.05-.01.04-.01.04-.01.05-.01.04-.01.05-.01.04-.01.05-.02.04-.01.05-.02.04-.01.05-.02.04-.02.05-.1-.05.01-.04.02-.04.01-.05.02-.04.01-.04.01-.04.02-.05.01-.04.01-.04.01-.04.01-.05v-.04l.01-.04.01-.05v-.04l.01-.04v-.04l.01-.04v-.29l-.01-.04v-.04l-.01-.04v-.04l-.01-.04-.01-.04v-.03zm.11-.03zm0-.01v.01l-.11.03-.01-.01.12-.03zm-.12.03zm-.43-1.02l.1-.07.02.03.02.03.02.03.01.03.02.02.02.03.02.03.01.03.02.03.02.03.01.04.02.03.01.03.02.03.01.03.02.04.01.03.02.03.01.04.01.03.02.04.01.03.01.04.01.03.01.04.01.04.01.03.01.04.01.04.01.04.01.04.01.04-.12.02v-.04l-.01-.04-.01-.03-.01-.04-.01-.04-.01-.03-.01-.04-.01-.03-.01-.04-.01-.03-.02-.03-.01-.04-.01-.03-.01-.03-.02-.04-.01-.03-.01-.03-.02-.03-.01-.03-.02-.03-.01-.03-.02-.03-.01-.03-.02-.03-.02-.03-.01-.03-.02-.02-.02-.03-.01-.03-.02-.03-.02-.02-.02-.03zm.1-.07l.14.2-.14-.2zm-1.26-.78l.04-.11.05.01.04.02.04.02.05.02.04.01.04.02.04.02.04.02.05.02.04.03.04.02.04.03.04.02.04.03.04.02.04.03.04.03.03.03.04.03.04.03.04.03.03.03.04.04.03.03.04.03.03.04.03.04.04.04.03.03.03.04.03.04.03.04-.1.07-.03-.04-.02-.04-.03-.03-.03-.04-.04-.04-.03-.03-.03-.03-.03-.04-.04-.03-.03-.03-.03-.03-.04-.03-.03-.03-.04-.03-.03-.03-.04-.03-.04-.02-.04-.03-.03-.02-.04-.03-.04-.02-.04-.02-.04-.02-.04-.02-.04-.02-.04-.02-.04-.02-.04-.02-.04-.01-.04-.02-.04-.02-.05-.01zm-1.39-.07l-.02-.12h.04l.04-.01.05-.01.04-.01h.05l.04-.01.05-.01h.09l.05-.01h.27l.05.01h.09l.05.01.04.01h.05l.04.01.05.01.05.01.04.01.05.01.04.01.05.01.04.01.05.02.04.01-.04.11-.04-.01-.04-.02-.04-.01-.05-.01-.04-.01-.04-.01-.05-.01-.04-.01-.04-.01h-.05l-.04-.01h-.05l-.04-.01h-.04l-.05-.01h-.35l-.04.01h-.05l-.04.01h-.04l-.05.01h-.04l-.04.01-.05.01-.04.01zm0 0zm-.9.4l-.07-.09.03-.02.02-.02.03-.02.03-.02.02-.01.03-.02.03-.02.03-.02.02-.01.03-.02.03-.01.03-.02.03-.01.03-.02.03-.01.03-.01.03-.02.03-.01.03-.01.03-.01.03-.01.03-.02.03-.01.03-.01.03-.01.03-.01.04-.01h.03l.03-.01.03-.01.03-.01.04-.01.02.12-.03.01h-.03l-.03.01-.03.01-.03.01-.03.01-.03.01h-.03l-.03.01-.03.01-.03.01-.03.02-.03.01-.03.01-.03.01-.03.01-.02.02-.03.01-.03.01-.03.02-.02.01-.03.02-.03.01-.03.02-.02.01-.03.02-.02.01-.03.02-.02.02-.03.01-.02.02-.03.02zm-.65.77l-.11-.06.02-.02.02-.03.01-.03.02-.03.02-.03.01-.03.02-.03.02-.02.02-.03.02-.03.02-.03.02-.02.02-.03.02-.03.02-.02.02-.03.02-.02.03-.03.02-.02.02-.03.03-.02.02-.02.02-.03.03-.02.02-.02.03-.03.02-.02.03-.02.02-.02.03-.02.03-.02.02-.02.07.09-.02.02-.03.02-.02.02-.03.02-.02.02-.03.02-.02.02-.02.02-.03.03-.02.02-.02.02-.02.02-.02.03-.03.02-.02.02-.02.03-.02.02-.02.03-.02.02-.02.03-.02.02-.01.03-.02.02-.02.03-.02.03-.02.02-.01.03-.02.03-.02.03-.01.02-.02.03-.01.03zm-.27 1.16l-.12.01v-.2l.01-.04v-.08l.01-.04v-.04l.01-.04v-.04l.01-.04.01-.04v-.04l.01-.04.01-.04.01-.03.01-.04.01-.04.02-.04.01-.03.01-.04.01-.04.02-.03.01-.04.02-.04.01-.03.02-.04.02-.04.02-.03.01-.04.11.06-.02.03-.02.04-.01.03-.02.03-.01.04-.02.03-.01.04-.02.03-.01.04-.01.03-.01.04-.01.03-.01.04-.01.04-.01.03-.01.04-.01.04-.01.03-.01.04v.04l-.01.03v.04l-.01.04v.08l-.01.03v.23zm.43 1.22l-.1.06-.02-.03-.03-.04-.02-.04-.03-.04-.02-.04-.02-.04-.03-.04-.02-.04-.02-.04-.02-.03-.01-.05-.02-.03-.02-.04-.01-.05-.02-.04-.01-.04-.02-.04-.01-.04-.01-.04-.01-.04-.01-.04-.01-.04-.01-.04-.01-.04-.01-.04v-.04l-.01-.04v-.04l-.01-.04v-.08l-.01-.04.12-.01v.04l.01.04v.08l.01.03v.04l.01.04.01.04v.04l.01.04.01.04.01.03.01.04.01.04.02.04.01.04.01.04.02.03.01.04.02.04.01.04.02.04.02.03.02.04.02.04.02.04.02.03.02.04.03.04.02.03.02.04.03.04zm1.07.92l-.05.11-.05-.03-.05-.03-.04-.02-.04-.03-.05-.03-.04-.03-.04-.02-.04-.03-.04-.03-.04-.03-.04-.03-.04-.03-.03-.03-.04-.03-.04-.03-.03-.03-.04-.03-.03-.03-.03-.03-.03-.03-.04-.03-.03-.03-.03-.03-.03-.03-.02-.04-.03-.03-.03-.03-.03-.03-.02-.04-.03-.03-.02-.03-.03-.04.1-.06.02.03.03.03.02.03.02.03.03.03.03.04.02.03.03.03.03.03.03.03.03.03.03.03.03.03.03.03.03.03.04.03.03.03.03.02.04.03.04.03.03.03.04.03.04.03.04.02.04.03.04.03.04.02.04.03.04.03.04.02.05.03.04.02zm-.05.11zm.65-3.81l.06.1-.01.01v-.01.01h-.01v.01-.01l-.01.01.01-.01v.01h-.02l-.06-.09.01-.01h-.01.02-.01l.01-.01v.01-.01h.01l.01-.01v.01-.01h.01-.01zm.06.1zm.99.05l-.07.09-.03-.02-.03-.02-.02-.02-.03-.01-.03-.02-.03-.02-.02-.01-.03-.01-.03-.02-.03-.01-.03-.01-.03-.01-.03-.01-.03-.01h-.03l-.03-.01-.02-.01h-.21l-.03.01-.03.01h-.03l-.03.01-.02.01-.03.01-.03.02-.03.01-.06-.1.04-.02.03-.01.03-.02.04-.01.03-.01.03-.01.04-.01h.03l.04-.01h.13l.04.01h.07l.03.01.03.01.04.01.03.01.03.01.03.01.04.02.03.01.03.02.03.01.03.02.03.02.03.02.03.02.03.02.03.02zm.27.29l-.1.06v-.01h-.01v-.01l-.01-.01-.01-.01v-.01l-.01-.01-.01-.01-.01-.01-.01-.01-.01-.01-.01-.01v-.01l-.01-.01-.01-.01h-.01v-.01l-.01-.01-.01-.01-.01-.01-.01-.01h-.01v-.01l-.01-.01-.01-.01h-.01l-.01-.01-.01-.01-.01-.01h-.01v-.01l.07-.09.01.01h.01l.01.01.01.01.01.01.01.01.01.01.01.01.01.01.01.01.01.01.01.01.01.01.01.01h.01l.01.01v.01l.01.01.01.01.01.01.01.01v.01l.01.01.01.01.01.01.01.01v.01l.01.01.01.01v.01l.01.01zm0 0zm.15.36l-.11.02v-.02l-.01-.01v-.03l-.01-.01v-.02l-.01-.01v-.02l-.01-.01v-.01l-.01-.01v-.02l-.01-.01v-.01l-.01-.01v-.01l-.01-.01v-.01l-.01-.01v-.01l-.01-.01-.01-.01v-.01l-.01-.01v-.01l-.01-.01-.01-.01.1-.06.01.01.01.01v.01l.01.01.01.01v.01l.01.01v.02l.01.01.01.01v.01l.01.01v.01l.01.01v.01l.01.02v.01l.01.01v.01l.01.01v.03l.01.01v.01l.01.01v.04l.01.01v.03zm-.3.71l-.06-.1.02-.02.02-.01.02-.02.02-.01.01-.02.02-.01.01-.02.02-.02.01-.02.01-.01.02-.02.01-.02.01-.02.01-.01.01-.02v-.02l.01-.02.01-.02v-.02l.01-.02v-.03l.01-.02v-.14l-.01-.02v-.03l.11-.02.01.03v.05l.01.02v.1l-.01.02v.05l-.01.02-.01.02v.03l-.01.02-.01.02-.01.03-.01.02-.01.02-.01.02-.02.02-.01.02-.01.03-.02.02-.02.02-.02.02-.02.01-.02.02-.02.02-.02.02-.02.02-.03.02zm0 0l.01-.01-.01.01zm-.07-.1h.01l.06.1-.07-.1zm0 0l-.03.03.03-.03zm.03.05l.04.05-.04-.05zm-.03-.05l-.03.03.03-.03zm-.74.29l.01-.11H17.11l.03.01h.04l.03-.01h.07l.02-.01h.05l.02-.01h.02l.03-.01h.02l.02-.01.03-.01.02-.01h.02l.03-.01.02-.01.02-.01.02-.01.02-.01.03-.02.02-.01.02-.01.02-.01.02-.02.07.1-.03.02-.02.01-.02.01-.03.02-.02.01-.03.01-.02.01-.03.01-.02.02h-.03l-.02.01-.03.01-.02.01-.03.01-.02.01h-.03l-.02.01h-.03l-.03.01h-.05l-.02.01h-.24l-.02-.01zm-.7-.4l.09-.08v.01l.02.02.01.02.02.02.01.01.02.02.01.02.02.01.02.02.01.01.02.02.02.01.02.01.01.02.02.01.02.01.02.01.02.01.02.02.02.01h.02l.03.01.02.01.02.01.02.01h.02l.02.01.03.01h.02l.02.01H17l.02.01-.01.11h-.06l-.02-.01h-.03l-.02-.01-.03-.01h-.02l-.03-.01-.02-.01-.03-.01-.02-.01-.02-.01-.03-.01-.02-.01-.02-.01-.03-.01-.02-.02-.02-.01-.02-.02-.02-.01-.02-.02-.02-.01-.02-.02-.02-.02-.02-.01-.02-.02-.02-.02-.02-.02-.01-.02-.02-.02-.02-.02-.01-.02zm.09-.08v.01-.01zm0 0l-.09.08v-.01l.09-.07zm-.09.08v-.01.01zm.08-.09l.01.02-.09.06-.01-.01.09-.07zm-.09.07zm-.03-.04l.11-.05v-.01.02-.01.01h.01l-.01-.01v.01h.01v.02l-.09.06-.01-.01V13h-.01.01l-.01-.01V13v-.01.01-.02.01-.01.01l-.01-.01zm0 0l.01.01-.01-.01zm-.03-.64l.12.03-.01.02v.02l-.01.02v.04l-.01.02v.04l-.01.02v.18l.01.02v.05l.01.01v.02l.01.02v.02l.01.02.01.01v.01l.01.02-.11.05v-.01l-.01-.02-.01-.02-.01-.02v-.01l-.01-.02v-.02l-.01-.02v-.02l-.01-.02v-.06l-.01-.02v-.14l.01-.02v-.07l.01-.02v-.04l.01-.03v-.02l.01-.02v-.02zm0 0zm.37-.57l.06.09-.01.01-.01.02-.02.01-.01.01-.01.01-.02.01-.01.01-.01.02-.01.01-.01.02-.02.01-.01.02-.01.01-.01.02-.01.01-.01.02-.01.02-.01.01-.01.02-.01.02-.01.01-.01.02v.02l-.01.02-.01.02-.01.02v.01l-.01.02-.01.02v.02l-.01.02v.02l-.12-.03.01-.02v-.02l.01-.02.01-.02.01-.02v-.03l.01-.02.01-.02.01-.02.01-.02.01-.02.01-.02.01-.02.01-.01.01-.02.01-.02.01-.02.01-.02.01-.02.02-.01.01-.02.01-.02.02-.01.01-.02.02-.02.01-.01.02-.02.01-.01.02-.01.01-.02.02-.01.02-.01zm0 0z"/><path fill="#F5B2B6" fill-rule="nonzero" d="M16.84 12.08c-.01 0-.02.01-.02.01-.1.07-.17.2-.21.35-.04.14-.04.28 0 .36.1.15.26.24.44.26.19.02.4-.02.56-.13.13-.09.16-.2.14-.32-.01-.07-.04-.14-.09-.21-.05-.08-.12-.15-.19-.21-.19-.15-.44-.22-.63-.11z"/><path fill="#2B2A29" fill-rule="nonzero" d="M16.85 12.14l-.07-.1v.01l.01-.01-.01.01.02-.02-.01.01h-.01.01l.02-.01h-.02.02-.01.01v-.01.01l.06.1h-.01.01-.01l-.02.01.02-.01h.01-.02v.01l.01-.01-.01.01.01-.01-.01.01zm0 0zm-.19.32l-.11-.03v-.02l.01-.01v-.02l.01-.01v-.02l.01-.01v-.01l.01-.02v-.01l.01-.02.01-.01v-.01l.01-.02v-.01l.01-.01.01-.01.01-.02v-.01l.01-.01.01-.01.01-.01.01-.02.01-.01v-.01l.01-.01.01-.01.01-.01.01-.01h.01l.01-.01.01-.01.01-.01.07.1h-.01v.01h-.01l-.01.01v.01h-.01l-.01.01-.01.01v.01l-.01.01-.01.01-.01.01-.01.01v.01l-.01.01-.01.01v.02l-.01.01v.01l-.01.01v.01l-.01.01v.01l-.01.02v.01l-.01.01v.01l-.01.02v.02l-.01.02zm0 0zm-.01.3l-.09.07-.01-.01v-.01l-.01-.01v-.02l-.01-.01v-.03l-.01-.01V12.55l.01-.01v-.04l.01-.02v-.03l.01-.01v-.01l.11.03v.02l-.01.01v.04l-.01.01V12.73l.01.01v.02l.01.01-.01-.01zm-.09.07l-.01-.01.01.01zm.05-.08v.11l-.05-.03-.01-.03.06.06-.04-.01-.02-.05.02.04-.02-.04.02.04-.02-.04.01.03.01.01-.02-.04.01.03.01.01-.02-.01v-.03l.02.04-.02-.01v-.01l.01.02-.01-.02.01.01.09-.07.01.01-.01-.01.01.01-.01-.01.02.04-.01-.03-.01-.01.01.01.01.03-.02-.04.01.02.01.02-.02-.04.02.04-.02-.04.02.04-.02-.04-.04-.01.06.05-.01-.02-.05-.03zm0 .11h-.04l-.01-.03.05.03zm0 0v-.11l.05.02-.05.09zm0-.11h.03l.02.02-.05-.02zm.45.25l-.02.12h-.01l-.02-.01h-.04l-.02-.01h-.01l-.02-.01h-.02l-.02-.01-.01-.01h-.02l-.02-.01-.01-.01h-.02l-.01-.01-.02-.01-.02-.01-.01-.01-.02-.01-.01-.01-.02-.01-.01-.01-.01-.01-.02-.01-.01-.02-.01-.01-.01-.01-.02-.02-.01-.01-.01-.01-.01-.02-.01-.01.1-.07.01.01.01.02v.01l.01.01.01.01.01.01.01.01.01.01.01.01.02.01.01.01.01.01h.01l.01.01.02.01.01.01.01.01h.01l.02.01h.01l.01.01.02.01h.01l.02.01h.03l.01.01h.03l.02.01h.03zm-.02.12zm.57-.25v.11l.04-.01-.02.01-.02.02-.02.01-.01.01-.02.01h-.02l-.02.01-.02.01-.01.01-.02.01h-.02l-.02.01-.02.01h-.02l-.02.01h-.02l-.01.01h-.04l-.02.01H17.04l.02-.12h.02l.01.01H17.21l.02-.01h.05l.01-.01h.04l.01-.01h.02l.02-.01h.01l.02-.01h.02l.01-.01.02-.01h.01l.02-.01.01-.01.02-.01h.02l.01-.01.01-.01.02-.01.03-.01zm-.03.01l.01-.01h.02l-.03.01zm.03.1v-.11l.04.1-.04.01zm.04-.01l-.02.01h-.02l.04-.01zm.05-.35l.11-.02v.02l.01.01v.07l-.01.02v.03l-.01.02v.02l-.01.01v.01l-.01.02-.01.01v.01l-.01.01-.01.01-.01.01v.01l-.01.01-.01.02-.01.01-.01.01-.02.01h-.01l-.01.01-.01.01-.07-.09.01-.01.01-.01h.01l.01-.01.01-.01v-.01h.01l.01-.01v-.01l.01-.01.01-.01v-.01l.01-.01v-.01l.01-.01v-.02l.01-.01V12.62zm0 0zm-.09-.19l.1-.07v.01l.01.01v.01h.01v.01l.01.01v.01l.01.01v.01l.01.01v.01l.01.01v.01l.01.01v.01l.01.01v.02l.01.01v.02l.01.01v.03l-.11.02h-.01v-.04h-.01v-.03h-.01v-.02l-.01-.01v-.02h-.01v-.01l-.01-.01v-.01h-.01v-.02h-.01v-.01l-.01-.01zm0 0l-.04-.07.04.07zm-.18-.19l.08-.09.01.01.01.01.01.01h.01l.01.01v.01h.01l.01.01v.01h.01l.01.01v.01h.01l.01.01v.01h.01l.01.01v.01h.01v.01l.01.01.01.01.01.01v.01h.01v.01l.01.01v.01h.01l-.1.07v-.01h-.01v-.01l-.01-.01-.01-.01v-.01h-.01v-.01h-.01v-.01l-.01-.01-.01-.01v-.01h-.01v-.01h-.01l-.01-.01v-.01h-.01v-.01h-.01l-.01-.01-.01-.01-.01-.01h-.01v-.01l-.01-.01h-.01zm-.56-.11l-.06-.1.02-.02.02-.01h.02l.02-.01.03-.01h.02l.02-.01h.16l.02.01h.03l.02.01h.02l.02.01.03.01.02.01h.02l.02.01.02.01.02.02.03.01.02.01.02.01.02.02.02.01.02.01.02.02-.08.09-.01-.01-.02-.02-.02-.01-.02-.01-.01-.01-.02-.01-.02-.01-.02-.01-.02-.01-.02-.01-.02-.01h-.01l-.02-.01h-.02l-.02-.01h-.02l-.02-.01h-.03l-.02-.01h-.06l-.01.01h-.04l-.01.01h-.02l-.02.01h-.01l-.02.01-.01.01zm0 0l.01-.01-.01.01z"/></svg>