<svg xmlns="http://www.w3.org/2000/svg" xml:space="preserve" width="68px" height="46px" version="1.1" style="shape-rendering:geometricPrecision; text-rendering:geometricPrecision; image-rendering:optimizeQuality; fill-rule:evenodd; clip-rule:evenodd" viewBox="0 0 23.63 15.81"  xmlns:xlink="http://www.w3.org/1999/xlink">
  <path fill="#A1B567" fill-rule="nonzero" d="M16.35 1.03c1.27,0.74 1.81,2.89 2.93,4.61 1.29,0.75 2.51,0.71 3.44,1.88 0.96,1.2 1.27,2.65 0.06,4.4 -0.65,0.92 -2.61,1.13 -3.17,-0.41 -0.81,-1.15 -3.46,-2.41 -5.49,0.71 -0.36,0.55 -1.03,0.86 -1.75,0.97 -0.85,0.14 -1.58,0.01 -2.15,-0.29 -0.98,-0.52 -1.37,-1.71 -2.04,-2.06 -2.52,-1.89 -5.04,-0.07 -5.33,1.71 -0.13,0.29 -0.25,0.55 -0.37,0.76 -0.27,0.46 -0.57,0.67 -1.02,0.38l-0.01 0c-0.76,-0.53 -1.22,-1.4 -1.35,-2.35 -0.13,-0.97 0.07,-2.01 0.62,-2.88 0.53,-0.83 1.42,-1.43 2.21,-1.97 0.63,-0.42 1.19,-0.8 1.4,-1.18 0.9,-1.63 1.35,-3.17 2.69,-4.09 1.14,-0.78 3.14,-1.05 4.43,-1.14 1.29,-0.1 3.61,0.19 4.9,0.95zm5.16 7.48c0.11,-0.47 0.38,-0.77 0.89,-0.66l0.02 0.01 0.03 0.01c0.12,0.09 0.24,0.19 0.34,0.32 0.22,0.28 0.37,0.66 0.41,1.06 0.05,0.39 -0.02,0.81 -0.24,1.15 -0.08,0.14 -0.19,0.26 -0.32,0.37 -0.25,0.21 -0.5,0.12 -0.7,-0.14 -0.18,-0.22 -0.32,-0.59 -0.4,-0.98 -0.08,-0.39 -0.1,-0.8 -0.03,-1.14z"/>
  <path fill="#2B2A29" fill-rule="nonzero" d="M19.31 5.59l-0.06 0.1 -0.02 -0.02 -0.11 -0.16 -0.1 -0.17 -0.09 -0.17 -0.1 -0.16 -0.09 -0.17 -0.09 -0.17 -0.09 -0.18 -0.09 -0.17 -0.08 -0.17 -0.08 -0.17 -0.09 -0.17 -0.08 -0.16 -0.08 -0.17 -0.08 -0.17 -0.08 -0.16 -0.08 -0.16 -0.08 -0.15 -0.08 -0.16 -0.09 -0.15 -0.08 -0.14 -0.09 -0.14 -0.08 -0.14 -0.09 -0.13 -0.09 -0.13 -0.09 -0.12 -0.1 -0.11 -0.1 -0.11 -0.1 -0.1 -0.1 -0.1 -0.11 -0.08 -0.11 -0.08 -0.11 -0.07 0.06 -0.11 0.12 0.08 0.12 0.08 0.11 0.1 0.11 0.09 0.1 0.11 0.1 0.11 0.1 0.12 0.09 0.12 0.1 0.13 0.09 0.14 0.08 0.14 0.09 0.14 0.09 0.15 0.08 0.15 0.08 0.15 0.08 0.16 0.08 0.16 0.09 0.16 0.08 0.17 0.08 0.16 0.08 0.17 0.08 0.17 0.08 0.17 0.09 0.17 0.08 0.17 0.09 0.17 0.09 0.17 0.09 0.17 0.1 0.17 0.09 0.16 0.1 0.17 0.11 0.16 -0.02 -0.02zm-0.06 0.1l-0.01 -0.01 -0.01 -0.01 0.02 0.02zm3.51 1.79l-0.09 0.07 0 0 -0.08 -0.1 -0.09 -0.1 -0.09 -0.09 -0.09 -0.09 -0.09 -0.07 -0.1 -0.08 -0.09 -0.07 -0.1 -0.06 -0.1 -0.07 -0.1 -0.05 -0.1 -0.06 -0.1 -0.05 -0.11 -0.05 -0.1 -0.04 -0.11 -0.05 -0.11 -0.04 -0.11 -0.05 -0.11 -0.04 -0.11 -0.04 -0.11 -0.04 -0.11 -0.04 -0.12 -0.04 -0.12 -0.05 -0.11 -0.04 -0.12 -0.05 -0.12 -0.04 -0.12 -0.06 -0.12 -0.05 -0.12 -0.06 -0.12 -0.06 -0.12 -0.06 -0.12 -0.07 0.06 -0.1 0.12 0.07 0.12 0.06 0.11 0.06 0.12 0.05 0.12 0.06 0.12 0.05 0.11 0.05 0.12 0.04 0.12 0.05 0.11 0.04 0.12 0.04 0.11 0.04 0.11 0.04 0.11 0.04 0.12 0.05 0.11 0.04 0.11 0.04 0.1 0.05 0.11 0.05 0.11 0.05 0.1 0.05 0.11 0.05 0.1 0.06 0.1 0.07 0.1 0.07 0.1 0.07 0.1 0.08 0.1 0.08 0.09 0.09 0.09 0.09 0.1 0.1 0.08 0.11 0 0zm0.06 4.47l-0.09 -0.06 0 0 0.11 -0.16 0.1 -0.16 0.09 -0.16 0.08 -0.16 0.07 -0.15 0.07 -0.15 0.06 -0.15 0.05 -0.15 0.04 -0.15 0.04 -0.15 0.03 -0.14 0.02 -0.14 0.01 -0.14 0.01 -0.14 0 -0.14 -0.01 -0.13 -0.01 -0.13 -0.01 -0.14 -0.03 -0.13 -0.03 -0.13 -0.03 -0.12 -0.04 -0.13 -0.05 -0.13 -0.05 -0.12 -0.06 -0.12 -0.06 -0.12 -0.06 -0.12 -0.07 -0.12 -0.08 -0.12 -0.08 -0.11 -0.08 -0.12 -0.09 -0.11 0.09 -0.07 0.09 0.11 0.09 0.12 0.08 0.12 0.08 0.12 0.07 0.12 0.07 0.12 0.06 0.13 0.06 0.12 0.05 0.13 0.05 0.13 0.04 0.13 0.04 0.13 0.03 0.14 0.02 0.13 0.02 0.14 0.01 0.14 0.01 0.14 0 0.14 -0.01 0.15 -0.02 0.14 -0.02 0.15 -0.03 0.15 -0.03 0.15 -0.05 0.15 -0.05 0.16 -0.06 0.15 -0.07 0.16 -0.08 0.15 -0.08 0.16 -0.09 0.17 -0.11 0.16 -0.11 0.16 0 0zm-3.26 -0.41l0.1 -0.06 0 0.01 0.06 0.13 0.06 0.13 0.07 0.12 0.08 0.1 0.08 0.1 0.09 0.09 0.09 0.07 0.09 0.07 0.1 0.07 0.11 0.05 0.11 0.05 0.11 0.03 0.11 0.03 0.11 0.03 0.12 0.01 0.12 0.01 0.11 0 0.12 0 0.11 -0.02 0.12 -0.02 0.11 -0.02 0.11 -0.03 0.11 -0.04 0.11 -0.04 0.1 -0.05 0.09 -0.05 0.1 -0.06 0.08 -0.06 0.08 -0.07 0.08 -0.08 0.07 -0.07 0.06 -0.08 0.09 0.06 -0.06 0.09 -0.08 0.09 -0.08 0.07 -0.09 0.08 -0.09 0.06 -0.1 0.07 -0.1 0.05 -0.11 0.06 -0.11 0.04 -0.11 0.04 -0.12 0.03 -0.12 0.03 -0.12 0.02 -0.12 0.01 -0.13 0.01 -0.12 0 -0.12 -0.01 -0.13 -0.02 -0.12 -0.02 -0.12 -0.03 -0.12 -0.05 -0.11 -0.04 -0.11 -0.06 -0.11 -0.07 -0.11 -0.07 -0.09 -0.09 -0.1 -0.09 -0.09 -0.11 -0.08 -0.11 -0.07 -0.12 -0.07 -0.14 -0.06 -0.14 0.01 0.01zm0.1 -0.06l0 0 0 0.01 0 -0.01zm-5.49 0.77l-0.1 -0.06 0 0 0.19 -0.28 0.2 -0.26 0.2 -0.23 0.2 -0.21 0.21 -0.19 0.2 -0.17 0.21 -0.14 0.21 -0.13 0.21 -0.11 0.21 -0.08 0.21 -0.07 0.2 -0.06 0.21 -0.03 0.2 -0.02 0.2 -0.01 0.2 0 0.19 0.02 0.19 0.04 0.18 0.04 0.18 0.05 0.17 0.06 0.17 0.07 0.16 0.08 0.16 0.09 0.14 0.09 0.14 0.09 0.13 0.1 0.12 0.11 0.12 0.11 0.1 0.1 0.09 0.12 0.09 0.11 -0.1 0.06 -0.08 -0.1 -0.09 -0.11 -0.1 -0.1 -0.1 -0.11 -0.12 -0.1 -0.13 -0.09 -0.13 -0.1 -0.14 -0.08 -0.15 -0.09 -0.16 -0.07 -0.16 -0.07 -0.17 -0.06 -0.17 -0.05 -0.18 -0.04 -0.18 -0.03 -0.18 -0.02 -0.19 -0.01 -0.19 0.01 -0.2 0.02 -0.19 0.04 -0.2 0.05 -0.2 0.07 -0.2 0.08 -0.2 0.1 -0.2 0.12 -0.2 0.14 -0.21 0.17 -0.19 0.18 -0.2 0.21 -0.2 0.22 -0.19 0.26 -0.19 0.27 0 0zm-1.79 1l-0.02 -0.11 0 0 0.07 -0.01 0.06 -0.02 0.07 -0.01 0.06 -0.01 0.07 -0.02 0.06 -0.02 0.07 -0.01 0.06 -0.02 0.06 -0.02 0.06 -0.03 0.06 -0.02 0.06 -0.02 0.06 -0.03 0.06 -0.02 0.06 -0.03 0.05 -0.03 0.06 -0.03 0.05 -0.03 0.05 -0.03 0.05 -0.04 0.05 -0.03 0.05 -0.04 0.05 -0.03 0.05 -0.04 0.04 -0.04 0.04 -0.04 0.04 -0.05 0.05 -0.04 0.03 -0.05 0.04 -0.04 0.03 -0.05 0.04 -0.05 0.1 0.06 -0.04 0.06 -0.04 0.05 -0.04 0.05 -0.04 0.05 -0.04 0.04 -0.04 0.05 -0.05 0.04 -0.05 0.04 -0.05 0.05 -0.05 0.04 -0.05 0.03 -0.05 0.04 -0.05 0.04 -0.06 0.03 -0.06 0.03 -0.05 0.03 -0.06 0.03 -0.06 0.03 -0.06 0.03 -0.06 0.03 -0.06 0.02 -0.07 0.02 -0.06 0.03 -0.06 0.02 -0.07 0.02 -0.07 0.02 -0.06 0.01 -0.07 0.02 -0.07 0.01 -0.06 0.02 -0.07 0.01 -0.07 0.01 0 0zm-2.19 -0.3l0.06 -0.1 0 0 0.05 0.03 0.05 0.02 0.06 0.03 0.05 0.02 0.06 0.03 0.06 0.02 0.05 0.02 0.06 0.02 0.06 0.02 0.06 0.01 0.07 0.02 0.06 0.02 0.06 0.01 0.07 0.01 0.06 0.01 0.07 0.01 0.06 0.01 0.07 0.01 0.07 0.01 0.07 0 0.07 0.01 0.07 0 0.07 0 0.08 0 0.07 0 0.07 0 0.08 -0.01 0.07 0 0.08 -0.01 0.08 -0.01 0.07 -0.01 0.08 -0.01 0.02 0.11 -0.08 0.01 -0.08 0.02 -0.08 0 -0.08 0.01 -0.07 0.01 -0.08 0 -0.08 0.01 -0.07 0 -0.08 0 -0.07 0 -0.07 -0.01 -0.08 0 -0.07 -0.01 -0.07 0 -0.07 -0.01 -0.07 -0.01 -0.07 -0.01 -0.07 -0.01 -0.06 -0.02 -0.07 -0.01 -0.06 -0.02 -0.07 -0.01 -0.06 -0.02 -0.06 -0.02 -0.07 -0.02 -0.06 -0.02 -0.06 -0.03 -0.05 -0.02 -0.06 -0.02 -0.06 -0.03 -0.05 -0.03 -0.06 -0.03 0 0zm-2.05 -2.07l0.07 -0.09 -0.01 -0.01 0.07 0.04 0.06 0.04 0.07 0.05 0.06 0.05 0.06 0.06 0.06 0.05 0.05 0.06 0.06 0.07 0.05 0.06 0.06 0.07 0.05 0.07 0.06 0.07 0.05 0.08 0.06 0.07 0.05 0.08 0.06 0.07 0.06 0.08 0.06 0.07 0.05 0.08 0.07 0.08 0.06 0.07 0.06 0.07 0.07 0.08 0.06 0.07 0.07 0.07 0.07 0.06 0.08 0.07 0.07 0.06 0.08 0.06 0.08 0.06 0.09 0.05 0.09 0.05 -0.06 0.1 -0.09 -0.05 -0.09 -0.06 -0.09 -0.05 -0.08 -0.07 -0.08 -0.06 -0.08 -0.07 -0.07 -0.07 -0.07 -0.07 -0.07 -0.07 -0.07 -0.08 -0.06 -0.07 -0.07 -0.08 -0.06 -0.08 -0.06 -0.08 -0.06 -0.07 -0.05 -0.08 -0.06 -0.08 -0.06 -0.07 -0.05 -0.07 -0.06 -0.08 -0.05 -0.07 -0.05 -0.07 -0.06 -0.06 -0.05 -0.07 -0.06 -0.06 -0.05 -0.06 -0.05 -0.05 -0.06 -0.05 -0.06 -0.05 -0.05 -0.04 -0.06 -0.04 -0.06 -0.03 -0.01 -0.01zm0.01 0.01l-0.01 -0.01 0 0 0.01 0.01zm-5.25 1.69l-0.1 -0.05 -0.01 0.02 0.04 -0.18 0.04 -0.17 0.06 -0.17 0.08 -0.16 0.08 -0.17 0.09 -0.16 0.11 -0.16 0.11 -0.15 0.13 -0.15 0.13 -0.14 0.15 -0.13 0.15 -0.13 0.16 -0.12 0.17 -0.11 0.18 -0.1 0.18 -0.09 0.19 -0.08 0.2 -0.06 0.2 -0.06 0.21 -0.04 0.21 -0.03 0.22 -0.01 0.22 0 0.23 0.02 0.23 0.03 0.23 0.05 0.23 0.07 0.24 0.09 0.24 0.11 0.23 0.12 0.24 0.15 0.24 0.17 -0.07 0.09 -0.23 -0.16 -0.23 -0.15 -0.24 -0.12 -0.23 -0.1 -0.22 -0.09 -0.23 -0.06 -0.22 -0.05 -0.23 -0.04 -0.21 -0.01 -0.22 0 -0.21 0.01 -0.2 0.03 -0.2 0.04 -0.2 0.05 -0.19 0.06 -0.18 0.08 -0.18 0.09 -0.17 0.09 -0.16 0.11 -0.16 0.11 -0.14 0.13 -0.14 0.12 -0.13 0.14 -0.13 0.14 -0.11 0.15 -0.1 0.15 -0.09 0.16 -0.08 0.15 -0.07 0.17 -0.05 0.16 -0.05 0.16 -0.03 0.16 -0.01 0.02zm0.01 -0.02l0 0.01 -0.01 0.01 0.01 -0.02zm-0.38 0.78l-0.1 -0.06 0 0 0.01 -0.02 0.01 -0.02 0.01 -0.02 0.01 -0.02 0.02 -0.02 0.01 -0.02 0.01 -0.02 0.01 -0.02 0.01 -0.02 0.01 -0.03 0.01 -0.02 0.01 -0.02 0.02 -0.02 0.01 -0.03 0.01 -0.02 0.01 -0.02 0.01 -0.03 0.01 -0.02 0.01 -0.03 0.02 -0.02 0.01 -0.03 0.01 -0.02 0.01 -0.03 0.01 -0.02 0.01 -0.03 0.02 -0.02 0.01 -0.03 0.01 -0.02 0.01 -0.03 0.01 -0.03 0.01 -0.02 0.02 -0.03 0.1 0.05 -0.01 0.03 -0.01 0.02 -0.01 0.03 -0.01 0.02 -0.02 0.03 -0.01 0.03 -0.01 0.02 -0.01 0.03 -0.01 0.02 -0.01 0.03 -0.02 0.02 -0.01 0.03 -0.01 0.02 -0.01 0.03 -0.01 0.02 -0.01 0.03 -0.02 0.02 -0.01 0.02 -0.01 0.03 -0.01 0.02 -0.01 0.02 -0.01 0.03 -0.01 0.02 -0.02 0.02 -0.01 0.02 -0.01 0.03 -0.01 0.02 -0.01 0.02 -0.01 0.02 -0.02 0.02 -0.01 0.02 -0.01 0.02 0 0zm-1.11 0.4l0.07 -0.09 0 -0.01 0.04 0.03 0.04 0.02 0.03 0.02 0.04 0.01 0.04 0.02 0.03 0.01 0.03 0.01 0.04 0 0.03 0 0.03 0.01 0.03 -0.01 0.03 0 0.03 -0.01 0.03 0 0.02 -0.01 0.03 -0.01 0.03 -0.02 0.03 -0.01 0.02 -0.02 0.03 -0.02 0.03 -0.02 0.02 -0.02 0.03 -0.03 0.02 -0.03 0.03 -0.03 0.03 -0.03 0.02 -0.03 0.03 -0.03 0.02 -0.04 0.03 -0.04 0.02 -0.04 0.03 -0.04 0.1 0.06 -0.03 0.04 -0.02 0.04 -0.03 0.04 -0.03 0.04 -0.02 0.04 -0.03 0.04 -0.03 0.03 -0.03 0.03 -0.03 0.03 -0.03 0.03 -0.03 0.03 -0.03 0.02 -0.03 0.03 -0.03 0.02 -0.04 0.02 -0.03 0.01 -0.04 0.02 -0.03 0.01 -0.04 0.01 -0.03 0.01 -0.04 0 -0.04 0 -0.04 0 -0.04 0 -0.04 -0.01 -0.04 -0.01 -0.04 -0.01 -0.04 -0.02 -0.05 -0.02 -0.04 -0.02 -0.04 -0.02 -0.05 -0.03 0 0zm0 0l0 0 0 0 0 0zm0.06 -0.1l0.01 0.01 -0.07 0.09 0 0 0.06 -0.1 0 0zm0 0l0 0 -0.01 -0.01 0.01 0.01zm-1.44 -2.3l0.12 -0.01 0 0 0.01 0.09 0.01 0.08 0.02 0.09 0.02 0.09 0.02 0.08 0.02 0.09 0.03 0.08 0.02 0.09 0.03 0.08 0.03 0.08 0.03 0.08 0.04 0.08 0.03 0.08 0.04 0.07 0.04 0.08 0.04 0.08 0.04 0.07 0.05 0.07 0.04 0.07 0.05 0.07 0.05 0.07 0.05 0.07 0.05 0.06 0.06 0.07 0.06 0.06 0.05 0.06 0.06 0.06 0.07 0.05 0.06 0.06 0.07 0.05 0.06 0.05 0.07 0.05 -0.06 0.1 -0.08 -0.05 -0.07 -0.06 -0.06 -0.05 -0.07 -0.06 -0.07 -0.06 -0.06 -0.06 -0.06 -0.06 -0.06 -0.07 -0.06 -0.06 -0.05 -0.07 -0.05 -0.07 -0.06 -0.07 -0.05 -0.07 -0.04 -0.08 -0.05 -0.07 -0.04 -0.08 -0.05 -0.07 -0.04 -0.08 -0.04 -0.08 -0.03 -0.08 -0.04 -0.09 -0.03 -0.08 -0.03 -0.08 -0.03 -0.09 -0.03 -0.08 -0.02 -0.09 -0.02 -0.09 -0.02 -0.09 -0.02 -0.09 -0.02 -0.09 -0.02 -0.09 -0.01 -0.09 0 0zm0.63 -2.91l0.1 0.06 0 0 -0.05 0.08 -0.05 0.08 -0.05 0.08 -0.04 0.09 -0.04 0.08 -0.04 0.09 -0.04 0.08 -0.04 0.09 -0.03 0.09 -0.03 0.08 -0.03 0.09 -0.03 0.09 -0.03 0.09 -0.02 0.09 -0.02 0.09 -0.02 0.09 -0.02 0.09 -0.02 0.1 -0.01 0.09 -0.01 0.09 -0.01 0.09 -0.01 0.09 -0.01 0.09 0 0.09 0 0.1 0 0.09 0 0.09 0 0.09 0.01 0.09 0.01 0.09 0 0.09 0.02 0.09 -0.12 0.01 -0.01 -0.09 -0.01 -0.09 -0.01 -0.09 0 -0.1 -0.01 -0.09 0 -0.09 0 -0.1 0 -0.09 0.01 -0.09 0 -0.1 0.01 -0.09 0.01 -0.1 0.01 -0.09 0.02 -0.09 0.02 -0.1 0.01 -0.09 0.02 -0.09 0.03 -0.1 0.02 -0.09 0.03 -0.09 0.03 -0.09 0.03 -0.09 0.03 -0.09 0.04 -0.09 0.03 -0.09 0.04 -0.09 0.04 -0.09 0.05 -0.09 0.04 -0.08 0.05 -0.09 0.05 -0.08 0.05 -0.08 0 0zm2.23 -1.99l0.07 0.1 0 0 -0.08 0.05 -0.07 0.05 -0.08 0.05 -0.07 0.05 -0.08 0.06 -0.08 0.05 -0.07 0.05 -0.08 0.05 -0.07 0.06 -0.08 0.05 -0.07 0.06 -0.08 0.06 -0.07 0.05 -0.08 0.06 -0.07 0.06 -0.07 0.06 -0.08 0.06 -0.07 0.06 -0.07 0.06 -0.07 0.07 -0.06 0.06 -0.07 0.06 -0.07 0.07 -0.06 0.07 -0.06 0.06 -0.06 0.07 -0.06 0.07 -0.06 0.07 -0.06 0.08 -0.05 0.07 -0.05 0.07 -0.05 0.08 -0.1 -0.06 0.05 -0.08 0.05 -0.08 0.06 -0.07 0.06 -0.08 0.06 -0.07 0.06 -0.07 0.06 -0.07 0.06 -0.07 0.07 -0.07 0.07 -0.07 0.06 -0.06 0.07 -0.07 0.07 -0.06 0.07 -0.07 0.08 -0.06 0.07 -0.06 0.07 -0.06 0.08 -0.06 0.07 -0.06 0.08 -0.06 0.08 -0.05 0.07 -0.06 0.08 -0.06 0.07 -0.05 0.08 -0.05 0.08 -0.06 0.07 -0.05 0.08 -0.05 0.08 -0.05 0.07 -0.06 0.08 -0.05 0.07 -0.05 0 0zm1.38 -1.16l0.1 0.06 0 0 -0.02 0.04 -0.02 0.03 -0.03 0.04 -0.03 0.04 -0.03 0.04 -0.03 0.03 -0.03 0.04 -0.04 0.04 -0.03 0.03 -0.04 0.04 -0.04 0.04 -0.04 0.03 -0.04 0.04 -0.04 0.04 -0.05 0.03 -0.04 0.04 -0.05 0.04 -0.05 0.03 -0.05 0.04 -0.05 0.04 -0.05 0.04 -0.05 0.03 -0.06 0.04 -0.05 0.04 -0.05 0.04 -0.06 0.04 -0.05 0.03 -0.06 0.04 -0.06 0.04 -0.06 0.04 -0.05 0.04 -0.06 0.04 -0.07 -0.1 0.06 -0.04 0.06 -0.04 0.06 -0.03 0.05 -0.04 0.06 -0.04 0.05 -0.04 0.06 -0.04 0.05 -0.04 0.06 -0.03 0.05 -0.04 0.05 -0.04 0.05 -0.03 0.05 -0.04 0.05 -0.04 0.05 -0.03 0.04 -0.04 0.05 -0.04 0.04 -0.03 0.04 -0.04 0.04 -0.03 0.04 -0.04 0.04 -0.03 0.03 -0.04 0.04 -0.03 0.03 -0.04 0.03 -0.03 0.03 -0.04 0.03 -0.03 0.02 -0.04 0.03 -0.03 0.02 -0.03 0.02 -0.04 0 0zm2.71 -4.11l0.07 0.1 0 0 -0.12 0.08 -0.12 0.09 -0.11 0.1 -0.11 0.1 -0.1 0.09 -0.1 0.11 -0.1 0.1 -0.09 0.11 -0.09 0.12 -0.09 0.11 -0.08 0.12 -0.08 0.12 -0.08 0.12 -0.08 0.13 -0.07 0.13 -0.08 0.13 -0.07 0.13 -0.07 0.13 -0.07 0.14 -0.07 0.14 -0.07 0.14 -0.07 0.14 -0.07 0.14 -0.07 0.15 -0.08 0.15 -0.07 0.14 -0.07 0.15 -0.08 0.15 -0.07 0.15 -0.08 0.15 -0.08 0.16 -0.09 0.15 -0.1 -0.06 0.08 -0.15 0.08 -0.15 0.08 -0.15 0.08 -0.15 0.07 -0.15 0.08 -0.15 0.07 -0.15 0.07 -0.14 0.07 -0.15 0.07 -0.14 0.07 -0.14 0.07 -0.14 0.07 -0.14 0.07 -0.14 0.08 -0.14 0.07 -0.13 0.07 -0.13 0.08 -0.13 0.08 -0.13 0.08 -0.12 0.08 -0.13 0.09 -0.12 0.09 -0.11 0.09 -0.12 0.09 -0.11 0.1 -0.11 0.1 -0.11 0.11 -0.1 0.11 -0.1 0.12 -0.1 0.12 -0.09 0.12 -0.09 0 0zm4.45 -1.15l0.01 0.11 0 0 -0.12 0.01 -0.13 0.01 -0.13 0.02 -0.13 0.01 -0.14 0.01 -0.14 0.02 -0.14 0.01 -0.14 0.02 -0.15 0.02 -0.14 0.02 -0.15 0.03 -0.15 0.02 -0.15 0.03 -0.15 0.03 -0.15 0.03 -0.15 0.03 -0.15 0.03 -0.15 0.04 -0.14 0.04 -0.15 0.04 -0.15 0.04 -0.14 0.04 -0.14 0.05 -0.14 0.05 -0.13 0.05 -0.13 0.06 -0.13 0.05 -0.13 0.06 -0.12 0.07 -0.11 0.06 -0.12 0.07 -0.1 0.07 -0.07 -0.1 0.11 -0.07 0.12 -0.07 0.12 -0.07 0.12 -0.06 0.13 -0.06 0.13 -0.06 0.14 -0.06 0.13 -0.05 0.14 -0.05 0.15 -0.05 0.14 -0.04 0.15 -0.05 0.15 -0.04 0.14 -0.04 0.15 -0.03 0.16 -0.04 0.15 -0.03 0.15 -0.03 0.15 -0.03 0.15 -0.02 0.15 -0.03 0.15 -0.02 0.15 -0.02 0.14 -0.02 0.15 -0.02 0.14 -0.02 0.14 -0.01 0.14 -0.02 0.13 -0.01 0.13 -0.01 0.13 -0.01 0.12 -0.01 0 0zm4.94 0.95l-0.06 0.11 0 0 -0.12 -0.07 -0.13 -0.07 -0.13 -0.06 -0.14 -0.06 -0.14 -0.06 -0.15 -0.06 -0.15 -0.05 -0.16 -0.05 -0.15 -0.05 -0.16 -0.04 -0.17 -0.04 -0.16 -0.04 -0.17 -0.04 -0.16 -0.04 -0.17 -0.03 -0.17 -0.03 -0.17 -0.03 -0.17 -0.02 -0.16 -0.03 -0.17 -0.02 -0.17 -0.01 -0.16 -0.02 -0.16 -0.01 -0.16 -0.01 -0.15 -0.01 -0.15 -0.01 -0.15 0 -0.14 0 -0.14 0 -0.14 0 -0.13 0.01 -0.12 0 -0.01 -0.11 0.13 -0.01 0.13 -0.01 0.14 0 0.14 0 0.14 0 0.15 0.01 0.15 0 0.16 0.01 0.16 0.01 0.16 0.01 0.17 0.02 0.16 0.02 0.17 0.02 0.17 0.02 0.17 0.03 0.17 0.02 0.17 0.04 0.17 0.03 0.17 0.03 0.17 0.04 0.16 0.04 0.17 0.05 0.16 0.04 0.16 0.05 0.16 0.05 0.15 0.05 0.15 0.06 0.14 0.06 0.15 0.06 0.13 0.07 0.13 0.06 0.13 0.07 0 0zm6.03 6.82l-0.03 0.12 0 0 -0.04 -0.01 -0.05 -0.01 -0.04 0 -0.04 0 -0.03 0 -0.04 0 -0.04 0 -0.03 0.01 -0.03 0 -0.04 0.01 -0.03 0.02 -0.02 0.01 -0.03 0.01 -0.03 0.02 -0.02 0.02 -0.03 0.02 -0.02 0.02 -0.03 0.02 -0.02 0.03 -0.02 0.02 -0.02 0.03 -0.02 0.03 -0.02 0.03 -0.01 0.03 -0.02 0.04 -0.02 0.03 -0.01 0.04 -0.01 0.03 -0.02 0.04 -0.01 0.04 -0.01 0.04 -0.01 0.05 -0.11 -0.03 0.01 -0.04 0.01 -0.05 0.01 -0.04 0.02 -0.04 0.01 -0.04 0.02 -0.04 0.01 -0.04 0.02 -0.04 0.02 -0.04 0.02 -0.03 0.02 -0.04 0.03 -0.03 0.02 -0.03 0.03 -0.03 0.03 -0.03 0.02 -0.02 0.03 -0.03 0.04 -0.02 0.03 -0.02 0.03 -0.02 0.04 -0.01 0.04 -0.02 0.04 -0.01 0.04 -0.01 0.04 0 0.04 -0.01 0.04 0 0.05 0 0.04 0 0.05 0.01 0.05 0 0.05 0.01 0 0zm-0.03 0.12l0 0 0 0 0 0zm0.03 0l-0.03 0 0.03 -0.12 0.03 0.01 0.02 0.01 -0.05 0.1zm0.03 -0.11l0.01 0 0.01 0.01 -0.02 -0.01zm-0.03 0.12l-0.02 -0.01 0.07 -0.1 0.02 0.02 -0.07 0.09 0 0zm0 0l0 0 0.01 0.01 -0.01 -0.01zm0.42 0.24l-0.09 0.07 0 0 -0.01 -0.01 -0.01 -0.02 -0.01 -0.01 -0.01 -0.01 -0.01 -0.01 -0.01 -0.01 -0.01 -0.01 -0.01 -0.01 0 -0.01 -0.01 -0.01 -0.01 -0.01 -0.01 -0.01 -0.01 -0.01 -0.01 -0.01 -0.01 -0.01 -0.01 -0.01 -0.01 -0.01 -0.01 -0.01 -0.02 -0.01 -0.01 -0.01 -0.01 -0.01 -0.01 -0.01 -0.01 -0.01 -0.01 0 -0.01 -0.01 -0.01 -0.01 -0.01 -0.01 -0.01 -0.01 -0.01 0 -0.01 -0.01 -0.01 -0.01 -0.02 -0.01 0.07 -0.1 0.01 0.01 0.01 0.01 0.02 0.01 0.01 0.01 0.01 0.01 0.01 0.01 0.01 0.01 0.02 0 0.01 0.01 0.01 0.01 0.01 0.01 0.01 0.01 0.01 0.01 0.01 0.01 0.02 0.01 0.01 0.01 0.01 0.01 0.01 0.01 0.01 0.01 0.01 0.02 0.01 0.01 0.01 0.01 0.01 0.01 0.01 0.01 0.01 0.01 0.01 0.01 0.01 0.02 0.01 0.01 0.01 0.01 0.01 0.01 0.01 0.01 0.01 0.02 0 0zm0.43 1.08l-0.11 0.01 0 0 -0.01 -0.03 0 -0.04 -0.01 -0.03 -0.01 -0.04 0 -0.03 -0.01 -0.04 -0.01 -0.03 -0.01 -0.04 0 -0.03 -0.01 -0.04 -0.01 -0.03 -0.01 -0.04 -0.02 -0.03 -0.01 -0.03 -0.01 -0.04 -0.01 -0.03 -0.02 -0.03 -0.01 -0.04 -0.01 -0.03 -0.02 -0.03 -0.01 -0.03 -0.02 -0.03 -0.02 -0.03 -0.01 -0.03 -0.02 -0.03 -0.02 -0.03 -0.01 -0.03 -0.02 -0.03 -0.02 -0.02 -0.02 -0.03 -0.02 -0.03 -0.02 -0.02 0.09 -0.07 0.02 0.02 0.02 0.03 0.02 0.03 0.02 0.03 0.02 0.03 0.02 0.03 0.02 0.03 0.02 0.03 0.02 0.03 0.01 0.04 0.02 0.03 0.02 0.03 0.01 0.03 0.02 0.04 0.01 0.03 0.02 0.04 0.01 0.03 0.01 0.04 0.02 0.03 0.01 0.04 0.01 0.03 0.01 0.04 0.01 0.04 0.01 0.03 0.01 0.04 0.01 0.04 0 0.03 0.01 0.04 0.01 0.04 0 0.04 0.01 0.03 0 0.04 0 0zm0 0l0 0 0 -0.04 0 0.04zm-0.25 1.19l-0.1 -0.06 0 0 0.02 -0.03 0.02 -0.03 0.02 -0.03 0.01 -0.04 0.02 -0.03 0.02 -0.03 0.01 -0.04 0.01 -0.03 0.02 -0.03 0.01 -0.04 0.01 -0.03 0.01 -0.04 0.01 -0.03 0.01 -0.04 0.01 -0.03 0 -0.04 0.01 -0.03 0.01 -0.04 0 -0.03 0.01 -0.04 0 -0.04 0 -0.03 0 -0.04 0.01 -0.04 0 -0.03 0 -0.04 0 -0.03 0 -0.04 -0.01 -0.04 0 -0.03 0 -0.04 0 -0.04 0.11 -0.01 0.01 0.04 0 0.04 0 0.04 0 0.03 0 0.04 0 0.04 0 0.04 0 0.04 0 0.04 0 0.04 0 0.03 -0.01 0.04 0 0.04 -0.01 0.04 0 0.04 -0.01 0.04 -0.01 0.03 -0.01 0.04 -0.01 0.04 -0.01 0.04 -0.01 0.03 -0.01 0.04 -0.01 0.04 -0.02 0.03 -0.01 0.04 -0.02 0.04 -0.01 0.03 -0.02 0.04 -0.02 0.03 -0.02 0.04 -0.02 0.03 -0.02 0.03 0 0zm-0.33 0.38l-0.08 -0.09 0 0 0.02 -0.01 0.01 -0.01 0.01 -0.01 0.01 -0.01 0.01 -0.01 0.01 -0.01 0.01 -0.01 0.01 -0.01 0.01 -0.01 0.02 -0.01 0.01 -0.01 0.01 -0.01 0.01 -0.01 0.01 -0.01 0.01 -0.01 0 -0.01 0.02 -0.01 0 -0.02 0.01 -0.01 0.01 -0.01 0.01 -0.01 0.01 -0.01 0.01 -0.01 0.01 -0.01 0.01 -0.02 0 -0.01 0.01 -0.01 0.01 -0.01 0.01 -0.01 0.01 -0.01 0.01 -0.02 0 -0.01 0.1 0.06 -0.01 0.02 0 0.01 -0.01 0.01 -0.01 0.02 -0.01 0.01 -0.01 0.01 -0.01 0.01 -0.01 0.02 -0.01 0.01 -0.01 0.01 -0.01 0.01 -0.01 0.01 -0.01 0.02 -0.01 0.01 -0.01 0.01 -0.01 0.01 -0.01 0.01 -0.01 0.02 -0.01 0.01 -0.01 0.01 -0.01 0.01 -0.01 0.01 -0.01 0.01 -0.01 0.01 -0.02 0.02 -0.01 0.01 -0.01 0.01 -0.01 0.01 -0.01 0.01 -0.02 0.01 -0.01 0.01 -0.01 0.01 0 0zm0 0l0 0 0 0 0 0zm-0.79 -0.15l0.09 -0.07 0 0 0.02 0.03 0.02 0.02 0.02 0.02 0.02 0.02 0.02 0.01 0.02 0.02 0.01 0.02 0.02 0.01 0.02 0.02 0.02 0.01 0.02 0.01 0.02 0.01 0.02 0.01 0.02 0.01 0.02 0 0.01 0.01 0.02 0 0.02 0 0.02 0.01 0.02 0 0.02 -0.01 0.02 0 0.02 0 0.02 -0.01 0.02 0 0.02 -0.01 0.02 -0.01 0.02 -0.01 0.02 -0.01 0.02 -0.02 0.02 -0.01 0.02 -0.02 0.08 0.09 -0.03 0.02 -0.02 0.02 -0.03 0.02 -0.03 0.01 -0.02 0.02 -0.03 0.01 -0.02 0.01 -0.03 0.01 -0.03 0 -0.03 0.01 -0.02 0 -0.03 0 -0.02 0 -0.03 0 -0.03 0 -0.02 -0.01 -0.03 -0.01 -0.02 0 -0.03 -0.01 -0.02 -0.01 -0.03 -0.02 -0.02 -0.01 -0.02 -0.02 -0.03 -0.01 -0.02 -0.02 -0.02 -0.02 -0.02 -0.02 -0.03 -0.02 -0.02 -0.02 -0.02 -0.03 -0.02 -0.02 -0.02 -0.03 0 0zm-0.41 -1l0.12 -0.02 0 0 0.01 0.04 0 0.03 0.01 0.04 0.01 0.03 0.01 0.04 0.01 0.03 0.01 0.04 0.01 0.03 0.01 0.03 0.01 0.04 0.01 0.03 0.01 0.03 0.01 0.04 0.01 0.03 0.02 0.03 0.01 0.03 0.01 0.03 0.01 0.03 0.02 0.03 0.01 0.03 0.01 0.03 0.02 0.03 0.01 0.02 0.01 0.03 0.02 0.03 0.01 0.02 0.02 0.02 0.01 0.03 0.02 0.02 0.01 0.02 0.02 0.02 0.01 0.02 -0.09 0.07 -0.02 -0.02 -0.01 -0.02 -0.02 -0.03 -0.02 -0.02 -0.01 -0.02 -0.02 -0.03 -0.01 -0.03 -0.02 -0.02 -0.01 -0.03 -0.02 -0.03 -0.01 -0.03 -0.02 -0.03 -0.01 -0.03 -0.01 -0.03 -0.02 -0.03 -0.01 -0.04 -0.01 -0.03 -0.02 -0.03 -0.01 -0.03 -0.01 -0.04 -0.01 -0.03 -0.01 -0.04 -0.01 -0.03 -0.01 -0.04 -0.01 -0.03 -0.01 -0.04 -0.01 -0.03 -0.01 -0.04 -0.01 -0.04 -0.01 -0.03 -0.01 -0.04 -0.01 -0.04 0 0zm-0.02 -1.16l0.11 0.03 0 0 0 0.03 -0.01 0.03 -0.01 0.03 0 0.03 0 0.03 -0.01 0.03 0 0.04 0 0.03 -0.01 0.04 0 0.03 0 0.03 0 0.04 0 0.03 0 0.04 0 0.03 0 0.04 0 0.04 0 0.03 0.01 0.04 0 0.03 0 0.04 0 0.04 0.01 0.03 0 0.04 0.01 0.04 0 0.03 0.01 0.04 0 0.04 0.01 0.03 0 0.04 0.01 0.03 0.01 0.04 -0.12 0.02 0 -0.03 -0.01 -0.04 -0.01 -0.04 0 -0.04 -0.01 -0.03 -0.01 -0.04 0 -0.04 0 -0.04 -0.01 -0.03 0 -0.04 -0.01 -0.04 0 -0.04 0 -0.03 0 -0.04 -0.01 -0.04 0 -0.04 0 -0.03 0 -0.04 0 -0.04 0 -0.03 0 -0.04 0 -0.04 0.01 -0.03 0 -0.04 0 -0.03 0.01 -0.04 0 -0.03 0 -0.04 0.01 -0.03 0 -0.03 0.01 -0.04 0.01 -0.03 0 0zm0 0l0 0 0 0 0 0z"/>
  <path fill="#F08BB2" fill-rule="nonzero" d="M9.9 2.42c0.12,0.01 0.23,0.02 0.35,0.05l0.02 0 0.01 0c0.05,0.02 0.1,0.05 0.16,0.08 0.34,0.2 0.79,0.65 1.1,1.2 0.32,0.56 0.5,1.21 0.29,1.81 -0.03,0.08 -0.06,0.15 -0.1,0.23 -0.8,1.43 -2.1,1.46 -3.56,1.48 -0.18,0 -0.37,0.01 -0.56,0.01 -0.52,0.02 -1.03,-0.01 -1.4,-0.18 -0.41,-0.18 -0.67,-0.51 -0.63,-1.09 0.01,-0.12 0.03,-0.24 0.05,-0.37 0.18,-0.93 0.82,-1.77 1.62,-2.35 0.81,-0.59 1.78,-0.93 2.65,-0.87z"/>
  <path fill="#2B2A29" fill-rule="nonzero" d="M10.26 2.41l-0.02 0.11 0 0 -0.01 0 -0.01 0 -0.01 0 -0.01 -0.01 -0.01 0 -0.01 0 -0.02 0 -0.01 0 -0.01 0 -0.01 -0.01 -0.01 0 -0.01 0 -0.01 0 -0.01 0 -0.01 0 -0.01 -0.01 -0.01 0 -0.01 0 -0.02 0 -0.01 0 -0.01 0 -0.01 0 -0.01 -0.01 -0.01 0 -0.01 0 -0.01 0 -0.01 0 -0.01 0 -0.01 0 -0.01 0 -0.02 0 -0.01 0 0.01 -0.12 0.01 0 0.01 0 0.01 0 0.02 0 0.01 0 0.01 0 0.01 0.01 0.01 0 0.01 0 0.01 0 0.02 0 0.01 0 0.01 0 0.01 0.01 0.01 0 0.01 0 0.01 0 0.02 0 0.01 0 0.01 0 0.01 0.01 0.01 0 0.01 0 0.01 0 0.02 0 0.01 0.01 0.01 0 0.01 0 0.01 0 0.01 0 0.01 0.01 0.01 0 0 0zm0 0l0 0 0.02 0 -0.02 0zm-0.01 0.12l-0.01 -0.01 0.02 -0.11 0.02 0 0.01 0.01 -0.04 0.11zm0.03 -0.12l0 0 0.01 0.01 -0.01 -0.01zm-0.02 0.12l-0.01 -0.01 0.04 -0.1 0.01 0 0 0 -0.04 0.11zm0.04 -0.11l0 0 0.01 0 -0.01 0zm0.17 0.08l-0.06 0.1 0 0 -0.01 0 0 0 0 -0.01 -0.01 0 0 0 -0.01 0 -0.01 -0.01 0 0 -0.01 0 0 0 -0.01 -0.01 0 0 -0.01 0 0 -0.01 -0.01 0 0 0 0 0 -0.01 -0.01 -0.01 0 0 0 0 0 -0.01 0 0 -0.01 -0.01 0 0 0 -0.01 0 0 0 -0.01 -0.01 0 0 -0.01 0 0 0 -0.01 0 0.05 -0.11 0 0 0.01 0 0 0 0.01 0.01 0 0 0.01 0 0 0 0.01 0 0 0.01 0.01 0 0 0 0.01 0 0.01 0.01 0 0 0 0 0.01 0 0.01 0.01 0 0 0.01 0 0 0.01 0.01 0 0 0 0.01 0 0.01 0.01 0 0 0.01 0 0 0.01 0.01 0 0 0 0.01 0.01 0.01 0 0 0 0 0zm0 0l0 0 0.04 0.03 -0.04 -0.03zm1.13 1.22l-0.11 0.06 0 0 -0.03 -0.05 -0.03 -0.05 -0.03 -0.05 -0.03 -0.05 -0.03 -0.05 -0.03 -0.04 -0.04 -0.05 -0.03 -0.04 -0.03 -0.05 -0.04 -0.04 -0.03 -0.05 -0.04 -0.04 -0.03 -0.04 -0.04 -0.04 -0.03 -0.04 -0.04 -0.04 -0.04 -0.04 -0.03 -0.03 -0.04 -0.04 -0.03 -0.03 -0.04 -0.04 -0.03 -0.03 -0.04 -0.03 -0.03 -0.03 -0.04 -0.03 -0.03 -0.02 -0.04 -0.03 -0.03 -0.02 -0.03 -0.03 -0.04 -0.02 -0.03 -0.02 -0.03 -0.02 0.06 -0.1 0.03 0.02 0.04 0.02 0.03 0.03 0.04 0.02 0.03 0.03 0.04 0.02 0.03 0.03 0.04 0.03 0.04 0.03 0.03 0.04 0.04 0.03 0.04 0.03 0.03 0.04 0.04 0.03 0.04 0.04 0.04 0.04 0.03 0.04 0.04 0.04 0.04 0.04 0.03 0.05 0.04 0.04 0.03 0.04 0.04 0.05 0.03 0.05 0.04 0.04 0.03 0.05 0.04 0.05 0.03 0.05 0.03 0.05 0.03 0.05 0.04 0.05 0.03 0.05 0 0zm0.28 1.86l-0.11 -0.04 0 0 0.02 -0.05 0.02 -0.06 0.01 -0.05 0.01 -0.06 0.01 -0.05 0.01 -0.06 0.01 -0.05 0 -0.06 0 -0.06 0 -0.05 0 -0.06 0 -0.05 -0.01 -0.06 0 -0.06 -0.01 -0.05 -0.01 -0.06 -0.01 -0.06 -0.01 -0.05 -0.02 -0.06 -0.01 -0.05 -0.02 -0.06 -0.02 -0.06 -0.02 -0.05 -0.02 -0.06 -0.02 -0.05 -0.03 -0.06 -0.02 -0.05 -0.03 -0.05 -0.02 -0.06 -0.03 -0.05 -0.03 -0.05 -0.03 -0.05 0.11 -0.06 0.03 0.05 0.02 0.06 0.03 0.05 0.03 0.06 0.03 0.05 0.02 0.06 0.03 0.05 0.02 0.06 0.02 0.06 0.02 0.06 0.02 0.05 0.02 0.06 0.01 0.06 0.02 0.06 0.01 0.06 0.02 0.06 0 0.06 0.01 0.06 0.01 0.06 0.01 0.06 0 0.06 0 0.06 0 0.06 0 0.06 -0.01 0.06 0 0.06 -0.01 0.06 -0.01 0.06 -0.01 0.06 -0.02 0.05 -0.02 0.06 -0.02 0.06 0 0zm0 0l0 0 0.02 -0.06 -0.02 0.06zm-0.1 0.24l-0.11 -0.06 0 0 0.01 -0.01 0 0 0 -0.01 0.01 -0.01 0 0 0.01 -0.01 0 -0.01 0 0 0.01 -0.01 0 -0.01 0 0 0 -0.01 0.01 -0.01 0 0 0 -0.01 0.01 -0.01 0 -0.01 0 0 0.01 -0.01 0 -0.01 0 0 0.01 -0.01 0 -0.01 0 0 0 -0.01 0.01 -0.01 0 0 0 -0.01 0 -0.01 0.01 -0.01 0 0 0 -0.01 0.11 0.04 0 0.01 0 0.01 -0.01 0 0 0.01 0 0.01 0 0.01 -0.01 0 0 0.01 0 0.01 -0.01 0.01 0 0 0 0.01 -0.01 0.01 0 0 0 0.01 -0.01 0.01 0 0.01 0 0 -0.01 0.01 0 0.01 0 0 -0.01 0.01 0 0.01 0 0.01 -0.01 0 0 0.01 0 0.01 -0.01 0.01 0 0 -0.01 0.01 0 0.01 0 0.01 0 0zm0 0l0 0 0 0 0 0zm-3.61 1.51l0 -0.12 0 0 0.13 0 0.14 0 0.13 -0.01 0.14 0 0.13 0 0.13 -0.01 0.13 -0.01 0.12 -0.01 0.13 -0.01 0.12 -0.01 0.13 -0.02 0.12 -0.02 0.11 -0.02 0.12 -0.03 0.12 -0.02 0.11 -0.04 0.11 -0.03 0.11 -0.04 0.1 -0.05 0.11 -0.05 0.1 -0.06 0.1 -0.06 0.1 -0.06 0.09 -0.07 0.09 -0.08 0.1 -0.09 0.08 -0.09 0.09 -0.09 0.08 -0.11 0.08 -0.11 0.08 -0.12 0.07 -0.13 0.11 0.06 -0.08 0.13 -0.08 0.12 -0.08 0.12 -0.09 0.11 -0.09 0.1 -0.09 0.1 -0.1 0.09 -0.09 0.08 -0.1 0.07 -0.11 0.07 -0.1 0.07 -0.11 0.05 -0.11 0.06 -0.11 0.04 -0.11 0.05 -0.12 0.03 -0.11 0.04 -0.12 0.03 -0.12 0.02 -0.12 0.03 -0.13 0.02 -0.12 0.01 -0.13 0.02 -0.13 0.01 -0.12 0.01 -0.13 0.01 -0.14 0 -0.13 0.01 -0.13 0 -0.14 0 -0.13 0.01 -0.14 0 0 0zm0 0l0 0 0 0 0 0zm-0.56 0.01l-0.01 -0.11 0 0 0.02 0 0.02 -0.01 0.02 0 0.02 0 0.02 0 0.01 0 0.02 0 0.02 0 0.02 0 0.01 0 0.02 0 0.02 0 0.02 0 0.01 0 0.02 0 0.02 0 0.02 0 0.02 0 0.01 0 0.02 0 0.02 0 0.01 0 0.02 0 0.02 0 0.02 -0.01 0.01 0 0.02 0 0.02 0 0.02 0 0.01 0 0.02 0 0.02 0 0 0.12 -0.02 0 -0.01 0 -0.02 0 -0.02 0 -0.02 0 -0.01 0 -0.02 0 -0.02 0 -0.02 0 -0.01 0 -0.02 0 -0.02 0 -0.02 0 -0.01 0 -0.02 0 -0.02 0 -0.02 0 -0.01 0.01 -0.02 0 -0.02 0 -0.02 0 -0.01 0 -0.02 0 -0.02 0 -0.02 0 -0.01 0 -0.02 0 -0.02 0 -0.02 0 -0.02 0 -0.01 0 -0.02 0 0 0zm-1.43 -0.18l0.05 -0.11 0 0 0.04 0.01 0.03 0.02 0.04 0.01 0.03 0.01 0.04 0.02 0.04 0.01 0.04 0.01 0.03 0.01 0.04 0.01 0.04 0 0.05 0.01 0.04 0.01 0.04 0.01 0.04 0 0.05 0.01 0.04 0 0.04 0.01 0.05 0 0.04 0.01 0.05 0 0.04 0 0.05 0 0.05 0.01 0.04 0 0.05 0 0.05 0 0.04 0 0.05 0 0.05 0 0.05 0 0.05 0 0.04 0 0.01 0.11 -0.05 0 -0.05 0 -0.05 0.01 -0.05 0 -0.05 0 -0.04 0 -0.05 0 -0.05 -0.01 -0.05 0 -0.05 0 -0.04 0 -0.05 0 -0.05 -0.01 -0.04 0 -0.05 -0.01 -0.04 0 -0.05 -0.01 -0.04 0 -0.05 -0.01 -0.04 0 -0.05 -0.01 -0.04 -0.01 -0.04 -0.01 -0.04 -0.01 -0.04 -0.01 -0.05 -0.01 -0.03 -0.01 -0.04 -0.02 -0.04 -0.01 -0.04 -0.01 -0.04 -0.02 -0.04 -0.01 0 0zm-0.66 -1.15l0.12 0.01 0 0 0 0.05 0 0.05 0 0.05 0 0.04 0 0.05 0.01 0.04 0 0.04 0.01 0.05 0.01 0.04 0.01 0.04 0.02 0.03 0.01 0.04 0.01 0.03 0.02 0.04 0.02 0.03 0.02 0.03 0.02 0.03 0.02 0.03 0.02 0.03 0.02 0.03 0.03 0.03 0.02 0.02 0.03 0.03 0.03 0.02 0.03 0.02 0.03 0.02 0.03 0.03 0.03 0.02 0.04 0.02 0.03 0.01 0.04 0.02 0.03 0.02 -0.05 0.11 -0.04 -0.02 -0.03 -0.02 -0.04 -0.02 -0.04 -0.02 -0.04 -0.03 -0.03 -0.02 -0.03 -0.02 -0.04 -0.03 -0.03 -0.03 -0.03 -0.02 -0.03 -0.03 -0.02 -0.03 -0.03 -0.03 -0.03 -0.04 -0.02 -0.03 -0.02 -0.04 -0.02 -0.03 -0.02 -0.04 -0.02 -0.04 -0.02 -0.04 -0.02 -0.04 -0.01 -0.04 -0.01 -0.04 -0.01 -0.05 -0.01 -0.04 -0.01 -0.05 0 -0.05 -0.01 -0.05 0 -0.05 0 -0.05 0 -0.06 0 -0.05 0 0zm0.12 0.01l0 0 0 0 0 0zm-0.07 -0.39l0.12 0.03 0 -0.01 -0.01 0.02 0 0.01 0 0.01 0 0.01 0 0.01 -0.01 0.01 0 0.01 0 0.02 0 0.01 0 0.01 -0.01 0.01 0 0.01 0 0.01 0 0.01 0 0.01 0 0.02 0 0.01 -0.01 0.01 0 0.01 0 0.01 0 0.01 0 0.01 0 0.01 0 0.02 0 0.01 -0.01 0.01 0 0.01 0 0.01 0 0.01 0 0.01 0 0.01 0 0.02 -0.12 -0.01 0 -0.01 0 -0.01 0 -0.02 0.01 -0.01 0 -0.01 0 -0.01 0 -0.01 0 -0.02 0 -0.01 0 -0.01 0 -0.01 0 -0.01 0.01 -0.01 0 -0.02 0 -0.01 0 -0.01 0 -0.01 0 -0.01 0.01 -0.01 0 -0.02 0 -0.01 0 -0.01 0 -0.01 0 -0.01 0.01 -0.02 0 -0.01 0 -0.01 0 -0.01 0 -0.01 0.01 -0.01 0 -0.02 0 -0.01 0 0zm0 0l0 0 0.01 -0.06 -0.01 0.06zm1.65 -2.39l0.07 0.09 0 0 -0.08 0.06 -0.07 0.06 -0.07 0.05 -0.07 0.06 -0.07 0.06 -0.07 0.07 -0.07 0.06 -0.06 0.06 -0.07 0.07 -0.06 0.07 -0.06 0.06 -0.06 0.07 -0.06 0.07 -0.06 0.07 -0.05 0.08 -0.05 0.07 -0.05 0.07 -0.05 0.08 -0.05 0.08 -0.05 0.07 -0.04 0.08 -0.04 0.08 -0.04 0.08 -0.04 0.08 -0.03 0.08 -0.04 0.08 -0.03 0.08 -0.03 0.09 -0.02 0.08 -0.02 0.08 -0.03 0.09 -0.01 0.09 -0.12 -0.03 0.02 -0.09 0.02 -0.08 0.03 -0.09 0.02 -0.09 0.03 -0.08 0.03 -0.09 0.04 -0.08 0.03 -0.09 0.04 -0.08 0.04 -0.08 0.05 -0.08 0.04 -0.09 0.05 -0.07 0.05 -0.08 0.05 -0.08 0.05 -0.08 0.05 -0.07 0.06 -0.08 0.06 -0.07 0.06 -0.07 0.06 -0.07 0.06 -0.07 0.07 -0.07 0.06 -0.07 0.07 -0.06 0.07 -0.07 0.07 -0.06 0.07 -0.07 0.07 -0.06 0.08 -0.06 0.07 -0.05 0.08 -0.06 0 0zm2.68 -0.88l-0.01 0.12 0 0 -0.08 -0.01 -0.08 0 -0.08 0 -0.08 0 -0.08 0.01 -0.08 0 -0.09 0.01 -0.08 0.01 -0.08 0.02 -0.09 0.01 -0.08 0.02 -0.08 0.02 -0.09 0.02 -0.08 0.02 -0.09 0.03 -0.08 0.03 -0.08 0.02 -0.09 0.04 -0.08 0.03 -0.08 0.03 -0.08 0.04 -0.09 0.04 -0.08 0.04 -0.08 0.04 -0.08 0.04 -0.08 0.04 -0.08 0.05 -0.08 0.05 -0.07 0.05 -0.08 0.05 -0.08 0.05 -0.07 0.05 -0.07 -0.09 0.08 -0.05 0.07 -0.06 0.08 -0.05 0.08 -0.05 0.08 -0.05 0.08 -0.05 0.08 -0.04 0.09 -0.05 0.08 -0.04 0.08 -0.04 0.09 -0.04 0.08 -0.03 0.09 -0.04 0.08 -0.03 0.09 -0.04 0.08 -0.02 0.09 -0.03 0.09 -0.03 0.08 -0.02 0.09 -0.02 0.08 -0.02 0.09 -0.02 0.09 -0.02 0.08 -0.01 0.09 -0.01 0.08 -0.01 0.09 -0.01 0.09 0 0.08 -0.01 0.08 0 0.09 0.01 0.08 0 0 0zm-0.01 0.12l0 0 -0.01 0 0.01 0z"/>
  <path fill="#F08BB2" fill-rule="nonzero" d="M13.25 5.12c0.05,-0.36 0.11,-0.74 0.06,-1.05 -0.14,-0.99 0.18,-1.43 0.71,-1.51 0.54,-0.08 1.32,0.27 2,0.81 0.68,0.53 1.29,1.24 1.5,1.88 0.22,0.63 0.08,1.18 -0.68,1.45 -0.53,0.19 -1.01,0.28 -1.52,0.27 -0.5,0 -1.01,-0.1 -1.6,-0.26 -0.67,-0.18 -0.57,-0.86 -0.47,-1.59z"/>
  <path fill="#2B2A29" fill-rule="nonzero" d="M13.26 4.08l0.11 -0.01 0 0 0.01 0.03 0 0.03 0 0.03 0.01 0.03 0 0.03 0 0.03 0 0.03 0 0.04 0 0.03 0 0.03 0 0.03 0 0.04 -0.01 0.03 0 0.03 0 0.04 0 0.03 -0.01 0.03 0 0.04 0 0.03 -0.01 0.04 0 0.03 0 0.03 -0.01 0.04 0 0.03 -0.01 0.04 0 0.03 0 0.03 -0.01 0.04 0 0.03 -0.01 0.04 0 0.03 -0.01 0.03 -0.12 -0.01 0.01 -0.04 0 -0.03 0.01 -0.03 0 -0.04 0.01 -0.03 0 -0.04 0.01 -0.03 0 -0.03 0.01 -0.04 0 -0.03 0 -0.03 0.01 -0.04 0 -0.03 0.01 -0.03 0 -0.04 0 -0.03 0 -0.03 0.01 -0.03 0 -0.04 0 -0.03 0 -0.03 0 -0.03 0 -0.03 0 -0.03 0 -0.03 0 -0.03 0 -0.03 0 -0.03 0 -0.03 -0.01 -0.03 0 -0.03 0 -0.03 0 0zm0.75 -1.58l0.02 0.12 0 0 -0.05 0 -0.04 0.01 -0.05 0.02 -0.04 0.01 -0.04 0.02 -0.04 0.01 -0.04 0.02 -0.03 0.03 -0.04 0.02 -0.03 0.03 -0.03 0.03 -0.03 0.03 -0.03 0.03 -0.02 0.04 -0.03 0.04 -0.02 0.04 -0.02 0.04 -0.02 0.05 -0.02 0.05 -0.02 0.05 -0.01 0.06 -0.01 0.06 -0.01 0.06 -0.01 0.06 -0.01 0.07 0 0.07 0 0.08 0 0.07 0 0.08 0.01 0.09 0.01 0.08 0.01 0.1 -0.11 0.01 -0.02 -0.09 -0.01 -0.09 0 -0.09 -0.01 -0.08 0 -0.08 0 -0.08 0.01 -0.08 0 -0.07 0.01 -0.07 0.01 -0.06 0.01 -0.07 0.02 -0.06 0.02 -0.06 0.02 -0.05 0.02 -0.05 0.02 -0.05 0.03 -0.05 0.03 -0.05 0.03 -0.04 0.03 -0.04 0.04 -0.04 0.03 -0.03 0.04 -0.03 0.04 -0.03 0.05 -0.03 0.04 -0.02 0.04 -0.02 0.05 -0.02 0.05 -0.02 0.05 -0.01 0.05 -0.01 0.05 -0.01 0 0zm2.05 0.83l-0.07 0.09 0 0 -0.07 -0.05 -0.06 -0.05 -0.07 -0.05 -0.06 -0.04 -0.07 -0.05 -0.06 -0.04 -0.07 -0.04 -0.06 -0.04 -0.07 -0.04 -0.07 -0.04 -0.06 -0.04 -0.07 -0.03 -0.06 -0.03 -0.07 -0.04 -0.06 -0.03 -0.07 -0.02 -0.06 -0.03 -0.06 -0.02 -0.07 -0.03 -0.06 -0.02 -0.06 -0.02 -0.06 -0.01 -0.06 -0.02 -0.06 -0.01 -0.05 -0.01 -0.06 -0.01 -0.06 0 -0.05 0 -0.05 -0.01 -0.05 0.01 -0.05 0 -0.05 0.01 -0.02 -0.12 0.05 -0.01 0.06 0 0.06 0 0.05 0 0.06 0 0.06 0.01 0.06 0.01 0.07 0.01 0.06 0.01 0.06 0.02 0.06 0.01 0.07 0.02 0.06 0.02 0.07 0.03 0.06 0.02 0.07 0.03 0.07 0.03 0.06 0.03 0.07 0.03 0.07 0.03 0.06 0.04 0.07 0.04 0.07 0.04 0.07 0.04 0.06 0.04 0.07 0.04 0.07 0.05 0.07 0.04 0.06 0.05 0.07 0.05 0.06 0.05 0.07 0.05 0 0zm1.52 1.9l-0.11 0.03 0 0 -0.02 -0.05 -0.03 -0.06 -0.02 -0.06 -0.03 -0.06 -0.03 -0.06 -0.03 -0.06 -0.03 -0.06 -0.04 -0.06 -0.04 -0.06 -0.03 -0.06 -0.04 -0.06 -0.05 -0.06 -0.04 -0.06 -0.05 -0.06 -0.04 -0.06 -0.05 -0.06 -0.05 -0.06 -0.05 -0.06 -0.05 -0.06 -0.06 -0.06 -0.05 -0.06 -0.05 -0.06 -0.06 -0.05 -0.06 -0.06 -0.06 -0.06 -0.06 -0.05 -0.05 -0.05 -0.07 -0.06 -0.06 -0.05 -0.06 -0.05 -0.06 -0.05 -0.06 -0.05 0.07 -0.09 0.06 0.05 0.07 0.05 0.06 0.05 0.06 0.05 0.06 0.06 0.06 0.05 0.06 0.06 0.06 0.06 0.06 0.05 0.06 0.06 0.06 0.06 0.05 0.06 0.06 0.06 0.05 0.06 0.05 0.06 0.05 0.06 0.05 0.06 0.05 0.07 0.04 0.06 0.05 0.06 0.04 0.06 0.04 0.06 0.04 0.07 0.04 0.06 0.04 0.06 0.03 0.06 0.04 0.07 0.03 0.06 0.02 0.06 0.03 0.06 0.03 0.07 0.02 0.06 0 0zm-0.72 1.53l-0.04 -0.11 0 0 0.07 -0.03 0.06 -0.02 0.06 -0.03 0.06 -0.03 0.05 -0.03 0.05 -0.04 0.04 -0.03 0.05 -0.03 0.04 -0.04 0.03 -0.04 0.04 -0.04 0.03 -0.03 0.02 -0.05 0.03 -0.04 0.02 -0.04 0.02 -0.04 0.02 -0.05 0.01 -0.04 0.01 -0.05 0.01 -0.05 0.01 -0.05 0 -0.04 0 -0.06 0 -0.05 0 -0.05 0 -0.05 -0.01 -0.06 -0.01 -0.05 -0.01 -0.06 -0.02 -0.05 -0.02 -0.06 -0.01 -0.06 0.11 -0.03 0.02 0.06 0.01 0.06 0.02 0.06 0.01 0.06 0.01 0.06 0.01 0.05 0.01 0.06 0 0.06 0 0.06 0 0.05 -0.01 0.06 0 0.05 -0.01 0.06 -0.02 0.05 -0.01 0.05 -0.02 0.05 -0.02 0.05 -0.03 0.05 -0.03 0.05 -0.03 0.04 -0.03 0.05 -0.04 0.04 -0.04 0.04 -0.05 0.04 -0.04 0.04 -0.05 0.04 -0.06 0.04 -0.06 0.03 -0.06 0.03 -0.06 0.03 -0.07 0.03 -0.07 0.03 0 0zm-1.54 0.27l0 -0.12 0 0 0.05 0 0.05 0 0.04 0 0.05 0 0.05 0 0.04 0 0.05 -0.01 0.05 0 0.04 0 0.05 -0.01 0.04 0 0.05 -0.01 0.05 -0.01 0.04 0 0.05 -0.01 0.04 -0.01 0.05 -0.01 0.05 0 0.04 -0.01 0.05 -0.01 0.05 -0.01 0.04 -0.02 0.05 -0.01 0.05 -0.01 0.04 -0.01 0.05 -0.02 0.05 -0.01 0.05 -0.02 0.05 -0.01 0.04 -0.02 0.05 -0.01 0.05 -0.02 0.04 0.11 -0.05 0.02 -0.05 0.01 -0.05 0.02 -0.05 0.02 -0.05 0.01 -0.05 0.02 -0.04 0.01 -0.05 0.01 -0.05 0.02 -0.05 0.01 -0.05 0.01 -0.04 0.01 -0.05 0.01 -0.05 0.01 -0.05 0.01 -0.05 0.01 -0.04 0.01 -0.05 0 -0.05 0.01 -0.05 0.01 -0.04 0 -0.05 0.01 -0.05 0 -0.05 0.01 -0.04 0 -0.05 0 -0.05 0.01 -0.05 0 -0.04 0 -0.05 0 -0.05 0 -0.05 0 0 0zm-1.62 -0.26l0.03 -0.11 0 0 0.06 0.01 0.05 0.02 0.05 0.01 0.06 0.01 0.05 0.02 0.05 0.01 0.06 0.01 0.05 0.01 0.05 0.02 0.05 0.01 0.05 0.01 0.05 0.01 0.05 0.01 0.05 0.01 0.05 0.01 0.05 0 0.05 0.01 0.05 0.01 0.05 0.01 0.05 0 0.05 0.01 0.04 0 0.05 0.01 0.05 0 0.05 0.01 0.04 0 0.05 0 0.05 0.01 0.04 0 0.05 0 0.05 0 0.04 0 0 0.12 -0.04 0 -0.05 0 -0.05 0 -0.05 -0.01 -0.05 0 -0.04 0 -0.05 -0.01 -0.05 0 -0.05 0 -0.05 -0.01 -0.05 -0.01 -0.05 0 -0.05 -0.01 -0.05 -0.01 -0.05 0 -0.05 -0.01 -0.05 -0.01 -0.05 -0.01 -0.05 -0.01 -0.05 -0.01 -0.05 -0.01 -0.05 -0.01 -0.06 -0.01 -0.05 -0.01 -0.05 -0.01 -0.05 -0.02 -0.06 -0.01 -0.05 -0.01 -0.05 -0.02 -0.06 -0.01 -0.06 -0.02 -0.05 -0.01 0 0zm-0.51 -1.66l0.12 0.01 0 0 -0.01 0.07 -0.01 0.07 -0.01 0.07 -0.01 0.07 0 0.06 -0.01 0.07 -0.01 0.06 0 0.06 -0.01 0.07 0 0.06 0 0.06 0 0.06 0 0.05 0 0.06 0.01 0.05 0 0.05 0.01 0.05 0.01 0.05 0.02 0.05 0.01 0.04 0.02 0.04 0.02 0.04 0.03 0.04 0.02 0.03 0.03 0.04 0.04 0.03 0.03 0.03 0.04 0.02 0.04 0.03 0.05 0.02 0.05 0.02 0.06 0.02 -0.03 0.11 -0.06 -0.02 -0.06 -0.02 -0.06 -0.03 -0.05 -0.03 -0.05 -0.03 -0.04 -0.04 -0.04 -0.03 -0.04 -0.04 -0.03 -0.05 -0.03 -0.04 -0.02 -0.05 -0.03 -0.05 -0.01 -0.05 -0.02 -0.05 -0.01 -0.05 -0.01 -0.06 -0.01 -0.06 -0.01 -0.05 0 -0.06 0 -0.06 0 -0.06 0 -0.07 0 -0.06 0.01 -0.06 0 -0.07 0.01 -0.07 0.01 -0.06 0.01 -0.07 0.01 -0.07 0.01 -0.07 0 -0.06 0.01 -0.07 0 0z"/>
  <path fill="#FEFEFE" fill-rule="nonzero" d="M22.26 7.75c-0.51,-0.07 -0.79,0.19 -0.9,0.56 -0.12,0.39 -0.08,0.89 0.05,1.36 0.13,0.46 0.36,0.89 0.63,1.13 0.17,0.15 0.29,0.21 0.44,0.12 0.2,-0.11 0.36,-0.24 0.48,-0.39 0.34,-0.37 0.34,-0.83 0.27,-1.27 -0.07,-0.45 -0.16,-0.88 -0.52,-1.2 -0.13,-0.12 -0.29,-0.23 -0.45,-0.31z"/>
  <path fill="#2B2A29" fill-rule="nonzero" d="M22.24 7.8c-0.22,-0.03 -0.39,0.01 -0.53,0.09 -0.15,0.1 -0.25,0.25 -0.3,0.44 -0.06,0.18 -0.08,0.39 -0.07,0.61 0.01,0.23 0.05,0.47 0.12,0.71 0.07,0.23 0.16,0.46 0.27,0.65 0.1,0.19 0.22,0.35 0.35,0.46 0.07,0.07 0.14,0.12 0.2,0.14 0.06,0.02 0.12,0.01 0.18,-0.02 0.09,-0.06 0.18,-0.12 0.25,-0.18 0.08,-0.06 0.15,-0.13 0.21,-0.2 0.16,-0.18 0.24,-0.38 0.28,-0.59 0.03,-0.21 0.01,-0.43 -0.02,-0.64 -0.03,-0.22 -0.07,-0.44 -0.15,-0.64 -0.07,-0.2 -0.18,-0.38 -0.35,-0.53 -0.07,-0.06 -0.14,-0.12 -0.21,-0.17 -0.08,-0.05 -0.15,-0.09 -0.23,-0.13zm-0.58 0c0.15,-0.09 0.35,-0.14 0.6,-0.11l0.01 0.01 0.01 0c0.09,0.04 0.17,0.09 0.24,0.14 0.08,0.06 0.16,0.12 0.23,0.18 0.18,0.17 0.3,0.36 0.38,0.57 0.08,0.21 0.12,0.43 0.15,0.66 0.04,0.23 0.05,0.46 0.02,0.68 -0.04,0.23 -0.13,0.44 -0.3,0.64 -0.06,0.07 -0.14,0.14 -0.22,0.21 -0.08,0.07 -0.17,0.13 -0.27,0.19 -0.09,0.05 -0.17,0.06 -0.26,0.03 -0.08,-0.02 -0.15,-0.08 -0.24,-0.16 -0.14,-0.12 -0.26,-0.29 -0.37,-0.49 -0.12,-0.2 -0.21,-0.43 -0.28,-0.67 -0.07,-0.24 -0.11,-0.5 -0.12,-0.74 -0.01,-0.23 0.01,-0.45 0.07,-0.64 0.06,-0.21 0.18,-0.39 0.35,-0.5z"/>
  <path fill="#F5B2B6" fill-rule="nonzero" d="M22.3 8.16c-0.27,-0.04 -0.41,0.15 -0.47,0.42 -0.07,0.29 -0.05,0.66 0.02,1 0.07,0.35 0.19,0.66 0.33,0.84 0.09,0.11 0.18,0.16 0.26,0.09 0.1,-0.08 0.19,-0.18 0.25,-0.28 0.18,-0.28 0.23,-0.62 0.2,-0.95 -0.04,-0.33 -0.17,-0.65 -0.35,-0.88 -0.07,-0.1 -0.16,-0.17 -0.24,-0.24z"/>
  <path fill="#2B2A29" fill-rule="nonzero" d="M22.28 8.22c-0.1,-0.02 -0.19,0.01 -0.25,0.06 -0.07,0.07 -0.12,0.18 -0.15,0.32 -0.03,0.13 -0.04,0.28 -0.04,0.44 0.01,0.18 0.03,0.36 0.06,0.53 0.04,0.17 0.09,0.34 0.14,0.48 0.06,0.14 0.12,0.26 0.19,0.34 0.03,0.05 0.07,0.08 0.11,0.1 0.02,0 0.05,0 0.07,-0.02 0.05,-0.04 0.09,-0.08 0.13,-0.13 0.04,-0.04 0.08,-0.09 0.11,-0.14 0.08,-0.13 0.14,-0.27 0.17,-0.42 0.03,-0.16 0.03,-0.33 0.02,-0.49 -0.02,-0.16 -0.06,-0.32 -0.12,-0.46 -0.06,-0.15 -0.13,-0.29 -0.22,-0.4 -0.04,-0.04 -0.07,-0.09 -0.11,-0.12 -0.04,-0.04 -0.07,-0.07 -0.11,-0.09zm-0.32 -0.02c0.09,-0.08 0.2,-0.11 0.35,-0.09l0.01 0 0.01 0.01c0.04,0.03 0.09,0.07 0.13,0.11 0.04,0.04 0.08,0.08 0.12,0.13 0.09,0.13 0.17,0.27 0.24,0.43 0.06,0.15 0.1,0.32 0.12,0.49 0.02,0.17 0.01,0.35 -0.02,0.52 -0.04,0.16 -0.09,0.31 -0.18,0.45 -0.04,0.06 -0.08,0.11 -0.12,0.16 -0.04,0.05 -0.09,0.1 -0.15,0.14 -0.05,0.05 -0.11,0.06 -0.17,0.04 -0.05,-0.02 -0.1,-0.07 -0.16,-0.13 -0.07,-0.1 -0.14,-0.22 -0.19,-0.37 -0.06,-0.15 -0.11,-0.32 -0.15,-0.49 -0.03,-0.19 -0.06,-0.37 -0.06,-0.55 -0.01,-0.17 0,-0.34 0.04,-0.48 0.03,-0.15 0.09,-0.29 0.18,-0.37z"/>
  <path fill="#F08BB2" fill-rule="nonzero" d="M6.29 10.41c-1.3,-0.05 -2.11,0.41 -2.48,1.07 -0.17,0.3 -0.26,0.63 -0.26,0.98 -0.01,0.36 0.06,0.72 0.21,1.07 0.39,0.95 1.32,1.77 2.65,1.88 0.62,0.06 1.15,-0.17 1.55,-0.56 0.46,-0.45 0.76,-1.11 0.84,-1.78 0.01,-0.03 0.01,-0.06 0.01,-0.1 0.04,-0.64 -0.27,-1.23 -0.74,-1.69 -0.47,-0.46 -1.09,-0.78 -1.66,-0.85 -0.04,-0.01 -0.08,-0.01 -0.12,-0.02l0 0zm-1.36 2.43c-0.08,-0.14 -0.13,-0.3 -0.15,-0.49 -0.02,-0.3 0.04,-0.54 0.15,-0.74 0.12,-0.23 0.32,-0.38 0.54,-0.47 0.22,-0.08 0.47,-0.1 0.71,-0.06 0.28,0.04 0.56,0.17 0.77,0.37 0.06,0.07 0.12,0.15 0.16,0.22 0.13,0.23 0.17,0.49 0.14,0.74 -0.03,0.26 -0.13,0.5 -0.31,0.68 -0.06,0.07 -0.13,0.13 -0.21,0.17 -0.17,0.1 -0.36,0.16 -0.57,0.18l0 0c-0.23,0.02 -0.47,-0.02 -0.69,-0.12 -0.22,-0.1 -0.41,-0.26 -0.54,-0.48z"/>
  <path fill="#2B2A29" fill-rule="nonzero" d="M3.86 11.51l-0.1 -0.06 0 0 0.03 -0.06 0.04 -0.06 0.05 -0.06 0.04 -0.06 0.05 -0.06 0.05 -0.06 0.05 -0.05 0.06 -0.06 0.06 -0.05 0.06 -0.05 0.07 -0.04 0.06 -0.05 0.07 -0.04 0.07 -0.05 0.08 -0.04 0.08 -0.03 0.08 -0.04 0.08 -0.03 0.09 -0.03 0.08 -0.03 0.1 -0.03 0.09 -0.02 0.1 -0.02 0.1 -0.02 0.1 -0.02 0.1 -0.01 0.11 -0.01 0.11 -0.01 0.12 -0.01 0.11 0 0.12 0 0.12 0.01 0 0.11 -0.12 0 -0.12 0 -0.11 0 -0.11 0 -0.11 0.01 -0.1 0.01 -0.11 0.02 -0.09 0.01 -0.1 0.02 -0.09 0.02 -0.09 0.02 -0.09 0.03 -0.09 0.03 -0.08 0.03 -0.08 0.03 -0.07 0.03 -0.08 0.04 -0.07 0.04 -0.07 0.04 -0.06 0.04 -0.07 0.04 -0.06 0.05 -0.05 0.04 -0.06 0.05 -0.05 0.05 -0.05 0.05 -0.05 0.06 -0.05 0.05 -0.04 0.06 -0.04 0.05 -0.04 0.06 -0.03 0.06 0 0zm-0.25 0.95l-0.12 0 0 0 0 -0.03 0 -0.03 0 -0.04 0 -0.03 0.01 -0.03 0 -0.04 0 -0.03 0.01 -0.03 0 -0.04 0.01 -0.03 0 -0.03 0.01 -0.03 0.01 -0.04 0 -0.03 0.01 -0.03 0.01 -0.03 0.01 -0.03 0.01 -0.04 0.01 -0.03 0.01 -0.03 0.01 -0.03 0.01 -0.03 0.01 -0.03 0.01 -0.03 0.01 -0.03 0.02 -0.03 0.01 -0.03 0.01 -0.03 0.02 -0.03 0.01 -0.03 0.02 -0.03 0.02 -0.03 0.1 0.06 -0.02 0.03 -0.01 0.02 -0.02 0.03 -0.01 0.03 -0.01 0.03 -0.02 0.03 -0.01 0.02 -0.01 0.03 -0.01 0.03 -0.01 0.03 -0.01 0.03 -0.01 0.03 -0.01 0.03 -0.01 0.03 -0.01 0.03 -0.01 0.03 0 0.03 -0.01 0.03 -0.01 0.03 -0.01 0.03 0 0.03 -0.01 0.03 0 0.03 -0.01 0.03 0 0.03 0 0.03 -0.01 0.04 0 0.03 0 0.03 0 0.03 0 0.03 0 0.03 0 0zm0.2 1.05l-0.11 0.04 0 0 -0.01 -0.03 -0.01 -0.03 -0.02 -0.04 -0.01 -0.03 -0.01 -0.03 -0.01 -0.04 -0.01 -0.03 -0.01 -0.04 -0.01 -0.03 -0.01 -0.03 -0.01 -0.04 -0.01 -0.03 -0.01 -0.04 -0.01 -0.03 -0.01 -0.03 0 -0.04 -0.01 -0.03 -0.01 -0.04 0 -0.03 -0.01 -0.04 0 -0.03 -0.01 -0.04 0 -0.03 0 -0.03 -0.01 -0.04 0 -0.03 0 -0.04 0 -0.03 0 -0.04 0 -0.03 0 -0.03 0 -0.04 0.12 0 -0.01 0.04 0 0.03 0.01 0.03 0 0.03 0 0.04 0 0.03 0 0.03 0 0.03 0.01 0.04 0 0.03 0.01 0.03 0 0.04 0 0.03 0.01 0.03 0.01 0.03 0 0.04 0.01 0.03 0.01 0.03 0 0.04 0.01 0.03 0.01 0.03 0.01 0.03 0.01 0.04 0.01 0.03 0.01 0.03 0.01 0.04 0.01 0.03 0.01 0.03 0.01 0.03 0.02 0.04 0.01 0.03 0.01 0.03 0 0zm2.61 1.84l-0.02 0.12 0.01 0 -0.13 -0.01 -0.12 -0.02 -0.12 -0.02 -0.12 -0.03 -0.12 -0.02 -0.11 -0.04 -0.11 -0.03 -0.11 -0.04 -0.11 -0.04 -0.1 -0.05 -0.1 -0.05 -0.1 -0.05 -0.09 -0.06 -0.1 -0.06 -0.09 -0.06 -0.08 -0.06 -0.09 -0.06 -0.08 -0.07 -0.08 -0.07 -0.07 -0.08 -0.08 -0.07 -0.06 -0.08 -0.07 -0.07 -0.07 -0.09 -0.06 -0.08 -0.05 -0.08 -0.06 -0.08 -0.05 -0.09 -0.05 -0.09 -0.04 -0.09 -0.05 -0.09 -0.04 -0.09 0.11 -0.04 0.04 0.09 0.04 0.08 0.04 0.09 0.05 0.08 0.05 0.08 0.05 0.08 0.06 0.08 0.06 0.08 0.06 0.08 0.06 0.08 0.07 0.07 0.07 0.07 0.07 0.07 0.08 0.07 0.08 0.06 0.08 0.07 0.08 0.06 0.09 0.06 0.09 0.05 0.09 0.06 0.09 0.05 0.1 0.04 0.1 0.05 0.1 0.04 0.1 0.04 0.11 0.03 0.11 0.03 0.11 0.03 0.12 0.02 0.11 0.02 0.12 0.02 0.13 0.01 0 0zm1.5 -0.54l0.08 0.08 0 0 -0.04 0.04 -0.04 0.03 -0.04 0.04 -0.04 0.03 -0.04 0.03 -0.04 0.04 -0.05 0.03 -0.04 0.03 -0.05 0.02 -0.04 0.03 -0.05 0.03 -0.05 0.02 -0.04 0.03 -0.05 0.02 -0.05 0.02 -0.05 0.02 -0.05 0.02 -0.05 0.02 -0.05 0.01 -0.06 0.02 -0.05 0.01 -0.05 0.01 -0.06 0.01 -0.05 0.01 -0.06 0.01 -0.05 0 -0.06 0.01 -0.06 0 -0.06 0 -0.06 0 -0.06 -0.01 -0.06 0 0.02 -0.12 0.05 0.01 0.06 0 0.05 0 0.06 0 0.05 0 0.06 0 0.05 -0.01 0.05 -0.01 0.05 0 0.05 -0.01 0.05 -0.01 0.05 -0.02 0.05 -0.01 0.05 -0.02 0.05 -0.01 0.05 -0.02 0.04 -0.02 0.05 -0.02 0.05 -0.02 0.04 -0.02 0.04 -0.02 0.05 -0.03 0.04 -0.02 0.04 -0.03 0.05 -0.03 0.04 -0.03 0.04 -0.03 0.04 -0.03 0.03 -0.03 0.04 -0.03 0.04 -0.04 0.04 -0.03 0 0zm0.82 -1.75l0.12 0.01 0 0 -0.01 0.07 -0.01 0.06 -0.01 0.07 -0.01 0.06 -0.02 0.06 -0.01 0.07 -0.02 0.06 -0.01 0.06 -0.02 0.06 -0.02 0.07 -0.02 0.06 -0.02 0.06 -0.03 0.06 -0.02 0.06 -0.03 0.06 -0.02 0.05 -0.03 0.06 -0.03 0.06 -0.03 0.06 -0.03 0.05 -0.03 0.06 -0.04 0.05 -0.03 0.06 -0.04 0.05 -0.03 0.05 -0.04 0.05 -0.04 0.05 -0.04 0.05 -0.04 0.04 -0.04 0.05 -0.05 0.05 -0.04 0.04 -0.08 -0.08 0.04 -0.05 0.04 -0.04 0.04 -0.04 0.04 -0.05 0.04 -0.04 0.03 -0.05 0.04 -0.05 0.04 -0.05 0.03 -0.05 0.03 -0.05 0.03 -0.05 0.04 -0.06 0.03 -0.05 0.02 -0.05 0.03 -0.06 0.03 -0.05 0.03 -0.06 0.02 -0.06 0.02 -0.06 0.03 -0.05 0.02 -0.06 0.02 -0.06 0.02 -0.06 0.01 -0.06 0.02 -0.06 0.02 -0.06 0.01 -0.06 0.01 -0.06 0.02 -0.07 0.01 -0.06 0.01 -0.06 0 -0.06 0 0zm0.01 -0.09l0.12 0 0 0 0 0.01 0 0 0 0 0 0.01 0 0 0 0 0 0.01 0 0 0 0 0 0.01 0 0 0 0 0 0.01 0 0 0 0 0 0 0 0.01 0 0 0 0 0 0.01 -0.01 0 0 0.01 0 0 0 0 0 0.01 0 0 0 0 0 0 0 0 0 0.01 0 0 0 0 -0.12 -0.01 0 0 0.01 -0.01 -0.01 0 0 0 0.01 0 0 -0.01 0 0 0 0 0 0 0 -0.01 0 0 0 0 0 0 0 -0.01 0 0 0 0 0 -0.01 0 0 0 0 0 -0.01 0 0 0 0 0 0 0 -0.01 0 0 0 0 0 -0.01 0 0 0 0 0 -0.01 0 0 0 0 0 0zm-0.72 -1.65l0.09 -0.08 0 0 0.04 0.05 0.04 0.04 0.04 0.05 0.05 0.04 0.04 0.05 0.04 0.05 0.03 0.05 0.04 0.05 0.04 0.05 0.03 0.05 0.03 0.05 0.03 0.05 0.03 0.05 0.03 0.06 0.03 0.05 0.03 0.05 0.02 0.06 0.02 0.06 0.03 0.05 0.02 0.06 0.01 0.06 0.02 0.05 0.01 0.06 0.02 0.06 0.01 0.06 0.01 0.06 0 0.06 0.01 0.06 0 0.06 0 0.06 0 0.06 0 0.06 -0.12 0 0.01 -0.06 0 -0.06 0 -0.06 -0.01 -0.05 0 -0.06 -0.01 -0.06 -0.01 -0.05 -0.01 -0.06 -0.01 -0.05 -0.01 -0.06 -0.02 -0.05 -0.02 -0.05 -0.01 -0.06 -0.02 -0.05 -0.03 -0.05 -0.02 -0.06 -0.02 -0.05 -0.03 -0.05 -0.03 -0.05 -0.03 -0.05 -0.03 -0.05 -0.03 -0.05 -0.03 -0.05 -0.04 -0.05 -0.03 -0.04 -0.04 -0.05 -0.03 -0.05 -0.04 -0.04 -0.04 -0.05 -0.04 -0.04 -0.04 -0.04 -0.05 -0.05 0 0zm-1.63 -0.84l0.02 -0.11 0 0 0.05 0.01 0.06 0 0.05 0.02 0.06 0.01 0.05 0.01 0.06 0.02 0.05 0.01 0.06 0.02 0.06 0.02 0.05 0.02 0.06 0.02 0.05 0.02 0.06 0.03 0.05 0.02 0.06 0.03 0.05 0.03 0.06 0.03 0.05 0.02 0.06 0.04 0.05 0.03 0.05 0.03 0.06 0.03 0.05 0.04 0.05 0.04 0.05 0.03 0.05 0.04 0.05 0.04 0.05 0.04 0.05 0.04 0.04 0.05 0.05 0.04 0.05 0.04 -0.09 0.08 -0.04 -0.04 -0.05 -0.04 -0.04 -0.04 -0.05 -0.04 -0.04 -0.04 -0.05 -0.04 -0.05 -0.03 -0.05 -0.04 -0.05 -0.03 -0.05 -0.04 -0.05 -0.03 -0.05 -0.03 -0.05 -0.03 -0.06 -0.03 -0.05 -0.03 -0.05 -0.03 -0.05 -0.03 -0.06 -0.02 -0.05 -0.03 -0.05 -0.02 -0.06 -0.02 -0.05 -0.02 -0.05 -0.02 -0.06 -0.02 -0.05 -0.02 -0.05 -0.01 -0.06 -0.02 -0.05 -0.01 -0.05 -0.01 -0.05 -0.01 -0.06 -0.01 -0.05 -0.01 0 0zm0 0l0 0 0 0 0 0zm-0.11 -0.01l0 -0.11 0.01 0 0 0 0 0 0.01 0 0 0 0.01 0 0 0 0 0 0.01 0 0 0 0.01 0 0 0 0 0 0 0 0.01 0 0.01 0 0 0 0 0 0.01 0 0 0 0 0 0.01 0 0 0 0 0 0.01 0 0 0 0.01 0 0 0.01 0 0 0.01 0 0 0 0 0 0.01 0 -0.02 0.11 0 0 0 0 -0.01 0 0 0 0 0 -0.01 0 0 0 0 0 -0.01 0 0 0 -0.01 0 0 0 0 0 -0.01 0 0 0 0 0 -0.01 0 0 0 0 0 -0.01 0 0 0 -0.01 -0.01 0 0 0 0 0 0 -0.01 0 0 0 -0.01 0 0 0 0 0 -0.01 0 0 0 0 0zm0 -0.11l0.01 0 0 0 -0.01 0zm0 0.05l0 0 0 0 0 0 0 0.06 0 -0.06zm0 -0.05l0.01 0 0 0 -0.01 0zm-1.57 1.99l0.12 -0.01 0 0 0 0.02 0 0.02 0.01 0.01 0 0.02 0 0.02 0 0.01 0.01 0.02 0 0.01 0 0.02 0.01 0.02 0 0.01 0 0.02 0.01 0.01 0 0.02 0 0.01 0.01 0.02 0 0.01 0.01 0.02 0 0.01 0.01 0.02 0 0.01 0.01 0.01 0 0.02 0.01 0.01 0.01 0.01 0 0.02 0.01 0.01 0 0.01 0.01 0.02 0.01 0.01 0 0.01 0.01 0.01 -0.1 0.06 -0.01 -0.01 -0.01 -0.02 0 -0.01 -0.01 -0.02 -0.01 -0.01 -0.01 -0.01 0 -0.02 -0.01 -0.01 -0.01 -0.02 0 -0.01 -0.01 -0.02 0 -0.02 -0.01 -0.01 0 -0.02 -0.01 -0.01 0 -0.02 -0.01 -0.02 0 -0.01 -0.01 -0.02 0 -0.02 -0.01 -0.01 0 -0.02 0 -0.02 -0.01 -0.02 0 -0.01 0 -0.02 -0.01 -0.02 0 -0.02 0 -0.01 0 -0.02 0 -0.02 -0.01 -0.02 0 0zm0.15 -0.77l0.11 0.06 0 0 -0.01 0.02 -0.01 0.02 -0.01 0.01 -0.01 0.02 -0.01 0.02 -0.01 0.02 0 0.02 -0.01 0.02 -0.01 0.02 0 0.02 -0.01 0.02 -0.01 0.02 0 0.02 -0.01 0.02 0 0.02 -0.01 0.02 0 0.02 0 0.03 -0.01 0.02 0 0.02 0 0.02 -0.01 0.03 0 0.02 0 0.03 0 0.02 0 0.03 0 0.02 0 0.03 0 0.02 0 0.03 0 0.03 0 0.02 -0.12 0.01 0 -0.03 0 -0.03 0 -0.02 0 -0.03 0 -0.03 0 -0.03 0 -0.02 0 -0.03 0 -0.03 0.01 -0.02 0 -0.03 0 -0.02 0.01 -0.03 0 -0.02 0 -0.03 0.01 -0.02 0 -0.02 0.01 -0.03 0 -0.02 0.01 -0.02 0.01 -0.03 0 -0.02 0.01 -0.02 0.01 -0.02 0.01 -0.02 0.01 -0.03 0 -0.02 0.01 -0.02 0.01 -0.02 0.01 -0.02 0.01 -0.02 0.01 -0.02 0 0zm0.11 0.06l0 0 -0.1 0.17 0.1 -0.17zm0.47 -0.55l0.04 0.11 0 0 -0.02 0.01 -0.02 0 -0.02 0.01 -0.01 0.01 -0.02 0.01 -0.02 0.01 -0.02 0.01 -0.02 0.01 -0.02 0.01 -0.02 0.01 -0.01 0.02 -0.02 0.01 -0.02 0.01 -0.02 0.01 -0.01 0.02 -0.02 0.01 -0.02 0.01 -0.01 0.02 -0.02 0.01 -0.01 0.02 -0.02 0.01 -0.01 0.02 -0.02 0.02 -0.01 0.01 -0.02 0.02 -0.01 0.02 -0.01 0.01 -0.02 0.02 -0.01 0.02 -0.01 0.02 -0.01 0.02 -0.01 0.02 -0.11 -0.06 0.02 -0.02 0.01 -0.02 0.01 -0.02 0.02 -0.02 0.01 -0.02 0.02 -0.02 0.01 -0.02 0.02 -0.02 0.01 -0.02 0.02 -0.02 0.02 -0.02 0.01 -0.01 0.02 -0.02 0.02 -0.02 0.02 -0.01 0.01 -0.02 0.02 -0.01 0.02 -0.02 0.02 -0.01 0.02 -0.02 0.02 -0.01 0.02 -0.01 0.02 -0.02 0.02 -0.01 0.02 -0.01 0.02 -0.01 0.02 -0.01 0.02 -0.01 0.03 -0.01 0.02 -0.01 0.02 -0.01 0.02 -0.01 0 0zm0.73 -0.07l-0.01 0.11 0 0 -0.02 0 -0.03 0 -0.02 -0.01 -0.02 0 -0.02 0 -0.02 0 -0.02 0 -0.03 0 -0.02 0 -0.02 0 -0.02 0 -0.02 0 -0.02 0 -0.02 0 -0.03 0 -0.02 0 -0.02 0 -0.02 0.01 -0.02 0 -0.02 0 -0.02 0.01 -0.02 0 -0.02 0.01 -0.03 0 -0.02 0 -0.02 0.01 -0.02 0.01 -0.02 0 -0.02 0.01 -0.02 0 -0.02 0.01 -0.02 0.01 -0.04 -0.11 0.02 -0.01 0.02 -0.01 0.03 0 0.02 -0.01 0.02 -0.01 0.02 0 0.03 -0.01 0.02 0 0.02 -0.01 0.02 0 0.03 -0.01 0.02 0 0.02 -0.01 0.03 0 0.02 0 0.02 0 0.03 -0.01 0.02 0 0.02 0 0.03 0 0.02 0 0.02 0 0.03 0 0.02 0 0.02 0 0.03 0 0.02 0 0.02 0.01 0.03 0 0.02 0 0.02 0 0.02 0.01 0 0zm0 0l0 0 0 0 0 0zm0.81 0.39l-0.08 0.09 0 0 -0.02 -0.02 -0.02 -0.02 -0.02 -0.02 -0.02 -0.01 -0.02 -0.02 -0.02 -0.02 -0.02 -0.01 -0.02 -0.02 -0.02 -0.01 -0.03 -0.02 -0.02 -0.01 -0.02 -0.01 -0.02 -0.02 -0.03 -0.01 -0.02 -0.01 -0.02 -0.01 -0.03 -0.01 -0.02 -0.01 -0.02 -0.01 -0.03 -0.01 -0.02 -0.01 -0.03 -0.01 -0.02 -0.01 -0.03 -0.01 -0.02 -0.01 -0.03 0 -0.02 -0.01 -0.03 -0.01 -0.03 0 -0.02 -0.01 -0.03 0 -0.02 -0.01 0.01 -0.11 0.03 0 0.03 0.01 0.03 0 0.03 0.01 0.02 0.01 0.03 0 0.03 0.01 0.03 0.01 0.02 0.01 0.03 0.01 0.03 0.01 0.02 0.01 0.03 0.01 0.03 0.01 0.02 0.01 0.03 0.01 0.02 0.02 0.03 0.01 0.02 0.01 0.03 0.02 0.02 0.01 0.03 0.02 0.02 0.01 0.02 0.02 0.03 0.01 0.02 0.02 0.02 0.02 0.02 0.02 0.03 0.02 0.02 0.01 0.02 0.02 0.02 0.02 0 0zm0.18 0.24l-0.11 0.05 0 0 0 0 0 -0.01 -0.01 -0.01 0 -0.01 -0.01 0 0 -0.01 -0.01 -0.01 0 0 -0.01 -0.01 0 -0.01 0 0 -0.01 -0.01 0 0 -0.01 -0.01 0 -0.01 -0.01 -0.01 0 0 -0.01 -0.01 0 0 -0.01 -0.01 0 -0.01 -0.01 0 0 -0.01 -0.01 0 -0.01 -0.01 0 -0.01 -0.01 0 0 -0.01 -0.01 -0.01 0 0 -0.01 -0.01 0 0 0.08 -0.09 0 0.01 0.01 0.01 0.01 0 0.01 0.01 0 0.01 0.01 0 0 0.01 0.01 0.01 0.01 0 0 0.01 0.01 0.01 0 0.01 0.01 0 0 0.01 0.01 0.01 0.01 0.01 0 0 0.01 0.01 0 0.01 0.01 0 0 0.01 0.01 0.01 0 0.01 0.01 0 0 0.01 0.01 0.01 0 0.01 0.01 0 0 0.01 0.01 0.01 0 0.01 0.01 0.01 0 0zm-0.11 0.05l0 0 -0.02 -0.03 0.02 0.03zm0.25 0.72l-0.12 -0.01 0 0 0.01 -0.03 0 -0.02 0 -0.02 0 -0.02 0 -0.03 0 -0.02 0 -0.02 0 -0.03 0 -0.02 0 -0.02 0 -0.02 0 -0.03 0 -0.02 -0.01 -0.02 0 -0.02 0 -0.03 -0.01 -0.02 0 -0.02 -0.01 -0.02 0 -0.03 -0.01 -0.02 -0.01 -0.02 0 -0.02 -0.01 -0.02 -0.01 -0.02 -0.01 -0.03 -0.01 -0.02 -0.01 -0.02 0 -0.02 -0.02 -0.02 -0.01 -0.02 -0.01 -0.02 0.11 -0.05 0.01 0.02 0.01 0.02 0.01 0.02 0.01 0.03 0.01 0.02 0.01 0.02 0.01 0.02 0.01 0.03 0.01 0.02 0.01 0.03 0 0.02 0.01 0.02 0.01 0.03 0 0.02 0.01 0.03 0 0.02 0 0.03 0.01 0.02 0 0.03 0 0.02 0.01 0.03 0 0.02 0 0.03 0 0.02 0 0.03 0 0.02 0 0.03 0 0.02 0 0.03 0 0.02 -0.01 0.03 0 0.02 0 0zm0 0l0 0 0 0 0 0zm-0.32 0.71l-0.09 -0.08 0 0 0.01 -0.01 0.02 -0.02 0.01 -0.02 0.02 -0.01 0.01 -0.02 0.01 -0.02 0.02 -0.02 0.01 -0.02 0.01 -0.02 0.01 -0.01 0.02 -0.02 0.01 -0.02 0.01 -0.02 0.01 -0.02 0.01 -0.02 0.01 -0.02 0.01 -0.02 0.01 -0.03 0 -0.02 0.01 -0.02 0.01 -0.02 0.01 -0.02 0 -0.02 0.01 -0.02 0.01 -0.03 0 -0.02 0.01 -0.02 0 -0.02 0 -0.03 0.01 -0.02 0 -0.02 0 -0.02 0.12 0.01 0 0.03 -0.01 0.02 0 0.03 0 0.02 -0.01 0.02 -0.01 0.03 0 0.02 -0.01 0.03 -0.01 0.02 0 0.02 -0.01 0.03 -0.01 0.02 -0.01 0.02 -0.01 0.03 -0.01 0.02 -0.01 0.02 -0.01 0.03 -0.01 0.02 -0.01 0.02 -0.01 0.02 -0.01 0.02 -0.02 0.03 -0.01 0.02 -0.01 0.02 -0.02 0.02 -0.01 0.02 -0.01 0.02 -0.02 0.02 -0.02 0.02 -0.01 0.02 -0.02 0.01 -0.01 0.02 0 0zm0 0l0 0 -0.18 0.19 0.18 -0.19zm-0.23 0.18l-0.06 -0.1 0 0 0.01 0 0 -0.01 0.01 0 0.01 0 0 -0.01 0.01 0 0.01 -0.01 0 0 0.01 -0.01 0.01 0 0 -0.01 0.01 0 0.01 0 0 -0.01 0.01 -0.01 0 0 0.01 -0.01 0.01 0 0 0 0.01 -0.01 0.01 -0.01 0 0 0.01 -0.01 0 0 0.01 -0.01 0.01 0 0 -0.01 0.01 -0.01 0 0 0.01 -0.01 0 0 0.01 -0.01 0.09 0.08 -0.01 0.01 -0.01 0.01 0 0 -0.01 0.01 -0.01 0 0 0.01 -0.01 0.01 -0.01 0 0 0.01 -0.01 0.01 -0.01 0 0 0.01 -0.01 0 -0.01 0.01 -0.01 0.01 0 0 -0.01 0.01 -0.01 0 0 0.01 -0.01 0 -0.01 0.01 0 0 -0.01 0.01 -0.01 0 -0.01 0.01 0 0 -0.01 0.01 -0.01 0 -0.01 0.01 0 0 -0.01 0.01 -0.01 0 0 0zm-0.59 0.19l-0.01 -0.12 0 0 0.02 0 0.01 0 0.02 -0.01 0.02 0 0.02 0 0.02 0 0.01 -0.01 0.02 0 0.02 0 0.02 -0.01 0.02 0 0.01 0 0.02 -0.01 0.02 0 0.01 -0.01 0.02 0 0.02 -0.01 0.02 0 0.01 -0.01 0.02 -0.01 0.02 0 0.01 -0.01 0.02 -0.01 0.02 0 0.01 -0.01 0.02 -0.01 0.01 0 0.02 -0.01 0.02 -0.01 0.01 -0.01 0.02 -0.01 0.01 -0.01 0.06 0.1 -0.02 0.01 -0.01 0.01 -0.02 0.01 -0.02 0.01 -0.01 0.01 -0.02 0.01 -0.02 0.01 -0.02 0 -0.01 0.01 -0.02 0.01 -0.02 0.01 -0.02 0 -0.02 0.01 -0.02 0.01 -0.01 0 -0.02 0.01 -0.02 0 -0.02 0.01 -0.02 0 -0.02 0.01 -0.02 0 -0.02 0.01 -0.02 0 -0.02 0.01 -0.02 0 -0.02 0 -0.01 0 -0.02 0.01 -0.02 0 -0.02 0 -0.02 0 -0.02 0.01 0 0zm-0.01 -0.12l0 0 0 0 0 0zm0 0.06l0 0 0 0 0 0 0.01 0.06 -0.01 -0.06zm0 -0.06l0 0 0 0 0 0zm-0.71 -0.01l0.04 -0.1 0 0 0.02 0.01 0.02 0 0.02 0.01 0.02 0.01 0.02 0.01 0.02 0 0.02 0.01 0.02 0.01 0.02 0 0.02 0.01 0.02 0 0.02 0.01 0.03 0 0.02 0.01 0.02 0 0.02 0 0.02 0.01 0.02 0 0.02 0 0.02 0.01 0.02 0 0.03 0 0.02 0 0.02 0 0.02 0 0.02 0 0.02 0 0.02 0 0.02 0 0.02 0 0.03 0 0.02 0 0.01 0.12 -0.03 0 -0.02 0 -0.02 0 -0.03 0 -0.02 0 -0.02 0 -0.02 0 -0.03 0 -0.02 0 -0.02 0 -0.03 -0.01 -0.02 0 -0.02 0 -0.03 0 -0.02 -0.01 -0.02 0 -0.02 0 -0.03 -0.01 -0.02 0 -0.02 -0.01 -0.02 0 -0.03 -0.01 -0.02 -0.01 -0.02 0 -0.02 -0.01 -0.02 -0.01 -0.03 0 -0.02 -0.01 -0.02 -0.01 -0.02 -0.01 -0.02 -0.01 -0.02 -0.01 0 0zm-0.57 -0.5l0.1 -0.06 0 0 0.01 0.02 0.01 0.02 0.02 0.02 0.01 0.02 0.01 0.02 0.01 0.02 0.02 0.01 0.01 0.02 0.02 0.02 0.01 0.01 0.01 0.02 0.02 0.01 0.01 0.02 0.02 0.01 0.02 0.02 0.01 0.01 0.02 0.02 0.02 0.01 0.01 0.01 0.02 0.02 0.02 0.01 0.02 0.01 0.01 0.01 0.02 0.02 0.02 0.01 0.02 0.01 0.02 0.01 0.02 0.01 0.02 0.01 0.01 0.01 0.02 0.01 0.02 0.01 -0.04 0.1 -0.03 -0.01 -0.02 -0.01 -0.02 -0.01 -0.02 -0.01 -0.02 -0.01 -0.02 -0.01 -0.02 -0.01 -0.02 -0.01 -0.02 -0.02 -0.02 -0.01 -0.02 -0.01 -0.02 -0.02 -0.02 -0.01 -0.02 -0.02 -0.02 -0.01 -0.01 -0.02 -0.02 -0.01 -0.02 -0.02 -0.02 -0.02 -0.01 -0.01 -0.02 -0.02 -0.02 -0.02 -0.01 -0.02 -0.02 -0.02 -0.01 -0.01 -0.02 -0.02 -0.01 -0.02 -0.02 -0.02 -0.01 -0.02 -0.02 -0.02 -0.01 -0.03 -0.01 -0.02 0 0z"/>
  <path fill="#F5B2B6" fill-rule="nonzero" d="M5.1 12.32c0.01,0.14 0.05,0.26 0.11,0.36 0.09,0.16 0.22,0.27 0.39,0.34 0.16,0.08 0.35,0.11 0.54,0.09l0 0c0.15,-0.01 0.3,-0.05 0.43,-0.13 0.05,-0.03 0.1,-0.07 0.14,-0.12 0.13,-0.13 0.2,-0.3 0.23,-0.49 0.02,-0.18 -0.01,-0.37 -0.1,-0.53 -0.03,-0.06 -0.07,-0.11 -0.11,-0.15 -0.16,-0.16 -0.38,-0.26 -0.6,-0.29 -0.19,-0.03 -0.38,-0.01 -0.55,0.05 -0.15,0.06 -0.29,0.17 -0.38,0.32 -0.08,0.14 -0.11,0.32 -0.1,0.55z"/>
  <path fill="#2B2A29" fill-rule="nonzero" d="M5.26 12.65l-0.11 0.06 0 0 0 -0.01 -0.01 -0.01 0 -0.01 -0.01 -0.01 0 -0.02 -0.01 0 0 -0.02 -0.01 -0.01 0 -0.01 -0.01 -0.01 0 -0.01 -0.01 -0.01 0 -0.01 0 -0.01 -0.01 -0.02 0 -0.01 0 -0.01 -0.01 -0.01 0 -0.01 0 -0.02 -0.01 -0.01 0 -0.01 0 -0.01 0 -0.02 -0.01 -0.01 0 -0.01 0 -0.02 0 -0.01 0 -0.01 0 -0.02 -0.01 -0.01 0 -0.01 0.12 -0.01 0 0.01 0 0.01 0 0.01 0 0.02 0.01 0.01 0 0.01 0 0.01 0 0.01 0 0.01 0.01 0.01 0 0.02 0 0.01 0 0.01 0.01 0.01 0 0.01 0 0.01 0.01 0.01 0 0.01 0 0.01 0.01 0.01 0 0.01 0 0.01 0.01 0.01 0 0.01 0 0.01 0.01 0.01 0 0.01 0.01 0 0 0.01 0.01 0.01 0 0.01 0.01 0.01 0 0zm0.36 0.32l-0.05 0.1 0 0 -0.01 0 -0.02 -0.01 -0.02 -0.01 -0.01 -0.01 -0.02 0 -0.01 -0.01 -0.02 -0.01 -0.01 -0.01 -0.02 -0.01 -0.01 -0.01 -0.02 -0.01 -0.01 -0.01 -0.01 -0.01 -0.02 -0.01 -0.01 -0.01 -0.01 -0.01 -0.02 -0.02 -0.01 -0.01 -0.01 -0.01 -0.02 -0.01 -0.01 -0.01 -0.01 -0.02 -0.01 -0.01 -0.01 -0.01 -0.01 -0.02 -0.02 -0.01 -0.01 -0.02 -0.01 -0.01 -0.01 -0.02 -0.01 -0.01 -0.01 -0.02 -0.01 -0.01 0.11 -0.06 0 0.01 0.01 0.02 0.01 0.01 0.01 0.01 0.01 0.01 0.01 0.02 0.01 0.01 0.01 0.01 0.01 0.01 0.01 0.01 0.01 0.02 0.01 0.01 0.01 0.01 0.01 0.01 0.01 0.01 0.01 0.01 0.01 0.01 0.02 0.01 0.01 0.01 0.01 0.01 0.01 0.01 0.01 0 0.02 0.01 0.01 0.01 0.01 0.01 0.02 0.01 0.01 0 0.01 0.01 0.02 0.01 0.01 0 0.02 0.01 0.01 0.01 0 0zm0.52 0.08l0 0.12 0 0 -0.02 0 -0.01 0 -0.02 0 -0.02 0 -0.02 0 -0.02 0 -0.02 0 -0.01 0 -0.02 0 -0.02 0 -0.02 0 -0.02 0 -0.02 -0.01 -0.01 0 -0.02 0 -0.02 0 -0.02 -0.01 -0.02 0 -0.01 0 -0.02 -0.01 -0.02 0 -0.02 -0.01 -0.01 0 -0.02 0 -0.02 -0.01 -0.02 -0.01 -0.01 0 -0.02 -0.01 -0.02 0 -0.01 -0.01 -0.02 -0.01 -0.02 -0.01 0.05 -0.1 0.01 0 0.02 0.01 0.01 0.01 0.02 0 0.02 0.01 0.01 0 0.02 0.01 0.01 0 0.02 0.01 0.01 0 0.02 0.01 0.01 0 0.02 0 0.02 0.01 0.01 0 0.02 0 0.02 0 0.01 0.01 0.02 0 0.01 0 0.02 0 0.02 0 0.01 0 0.02 0.01 0.02 0 0.01 0 0.02 0 0.02 0 0.01 0 0.02 -0.01 0.02 0 0.01 0 0.01 0zm-0.01 0l0 0 0.01 0 -0.01 0zm0.01 0.12l0 0 0 -0.12 0 0 0 0.12 0 0zm0 0l0 0 0 0 0 0zm0.4 -0.24l0.06 0.1 0 0 -0.01 0.01 -0.02 0.01 -0.01 0 -0.01 0.01 -0.01 0.01 -0.02 0 -0.01 0.01 -0.02 0 -0.01 0.01 -0.01 0.01 -0.02 0 -0.01 0.01 -0.01 0 -0.02 0.01 -0.01 0 -0.02 0.01 -0.01 0 -0.02 0 -0.01 0.01 -0.02 0 -0.01 0 -0.02 0.01 -0.01 0 -0.02 0 -0.01 0.01 -0.02 0 -0.01 0 -0.02 0 -0.01 0 -0.02 0.01 -0.01 0 -0.02 0 -0.01 -0.12 0.02 0 0.01 0 0.01 0 0.02 0 0.01 0 0.02 -0.01 0.01 0 0.01 0 0.02 0 0.01 -0.01 0.01 0 0.02 0 0.01 -0.01 0.01 0 0.02 0 0.01 -0.01 0.01 0 0.01 0 0.02 -0.01 0.01 0 0.01 -0.01 0.01 0 0.02 -0.01 0.01 0 0.01 -0.01 0.01 0 0.01 -0.01 0.01 0 0.02 -0.01 0.01 -0.01 0.01 0 0.01 -0.01 0 0zm0.06 0.1l0 0 0 0 0 0zm0.07 -0.21l0.09 0.08 0 0 -0.01 0.01 0 0 -0.01 0.01 0 0 -0.01 0.01 0 0 0 0.01 -0.01 0 0 0 -0.01 0.01 0 0 -0.01 0.01 0 0 -0.01 0 0 0.01 -0.01 0 0 0.01 -0.01 0 0 0 -0.01 0.01 0 0 -0.01 0 0 0.01 -0.01 0 0 0.01 -0.01 0 0 0 -0.01 0.01 0 0 -0.01 0 -0.01 0.01 0 0 -0.06 -0.1 0 0 0.01 -0.01 0 0 0.01 0 0 0 0.01 -0.01 0 0 0.01 0 0 -0.01 0 0 0.01 0 0 -0.01 0.01 0 0 0 0.01 -0.01 0 0 0 0 0.01 -0.01 0 0 0.01 0 0 -0.01 0 0 0.01 0 0 -0.01 0.01 0 0 0 0 -0.01 0.01 0 0 0 0 -0.01 0.01 0 0 -0.01 0 0zm0 0l0 0 0 0 0 0zm0.21 -0.45l0.12 0.01 0 0 -0.01 0.02 0 0.02 0 0.01 -0.01 0.02 0 0.02 0 0.02 -0.01 0.02 0 0.02 -0.01 0.01 0 0.02 -0.01 0.02 -0.01 0.01 0 0.02 -0.01 0.02 -0.01 0.02 0 0.01 -0.01 0.02 -0.01 0.02 -0.01 0.01 -0.01 0.02 0 0.01 -0.01 0.02 -0.01 0.02 -0.01 0.01 -0.01 0.02 -0.01 0.01 -0.01 0.02 -0.02 0.01 -0.01 0.01 -0.01 0.02 -0.01 0.01 -0.01 0.01 -0.09 -0.08 0.01 -0.01 0.01 -0.01 0.01 -0.01 0.01 -0.01 0.01 -0.02 0.01 -0.01 0.01 -0.01 0.01 -0.01 0.01 -0.02 0.01 -0.01 0 -0.01 0.01 -0.02 0.01 -0.01 0.01 -0.02 0 -0.01 0.01 -0.01 0.01 -0.02 0 -0.01 0.01 -0.02 0 -0.01 0.01 -0.02 0 -0.01 0.01 -0.02 0 -0.02 0.01 -0.01 0 -0.02 0.01 -0.01 0 -0.02 0 -0.02 0 -0.01 0.01 -0.02 0 -0.01 0 0zm0.12 0.01l0 0 0 0 0 0zm-0.21 -0.51l0.1 -0.06 0 0 0.01 0.02 0.01 0.01 0.01 0.02 0 0.02 0.01 0.01 0.01 0.02 0 0.02 0.01 0.01 0.01 0.02 0 0.02 0.01 0.02 0 0.01 0.01 0.02 0 0.02 0.01 0.02 0 0.02 0 0.01 0 0.02 0.01 0.02 0 0.02 0 0.02 0 0.02 0 0.01 0 0.02 0 0.02 0 0.02 0 0.02 0 0.02 0 0.02 0 0.01 0 0.02 0 0.02 -0.12 -0.01 0 -0.02 0 -0.02 0 -0.01 0 -0.02 0.01 -0.02 0 -0.01 0 -0.02 0 -0.01 0 -0.02 -0.01 -0.02 0 -0.01 0 -0.02 0 -0.02 0 -0.01 0 -0.02 -0.01 -0.01 0 -0.02 0 -0.01 -0.01 -0.02 0 -0.02 -0.01 -0.01 0 -0.02 0 -0.01 -0.01 -0.02 -0.01 -0.01 0 -0.02 -0.01 -0.01 0 -0.02 -0.01 -0.01 -0.01 -0.01 0 -0.02 -0.01 -0.01 0 0zm-0.11 -0.14l0.09 -0.08 0 0 0 0 0.01 0.01 0 0 0 0.01 0.01 0 0 0.01 0.01 0 0 0.01 0.01 0 0 0 0 0.01 0.01 0 0 0.01 0.01 0 0 0.01 0 0.01 0.01 0 0 0.01 0.01 0 0 0.01 0 0 0.01 0.01 0 0 0 0.01 0.01 0 0 0.01 0 0 0.01 0.01 0 0 0 0.01 0.01 0 0 0.01 -0.1 0.06 0 -0.01 -0.01 0 0 -0.01 0 0 -0.01 -0.01 0 0 0 0 0 -0.01 -0.01 0 0 -0.01 0 0 -0.01 -0.01 0 0 0 -0.01 -0.01 0 0 -0.01 0 0 -0.01 0 0 -0.01 0 0 -0.01 -0.01 0 0 0 -0.01 -0.01 0 0 0 0 -0.01 -0.01 0 0 0 -0.01 -0.01 0 0 0 -0.01 -0.01 0 0 0zm-0.56 -0.27l0.02 -0.12 0 0 0.02 0.01 0.02 0 0.02 0 0.03 0.01 0.02 0 0.02 0.01 0.02 0.01 0.02 0 0.02 0.01 0.03 0.01 0.02 0 0.02 0.01 0.02 0.01 0.02 0.01 0.02 0.01 0.02 0.01 0.02 0.01 0.02 0.01 0.02 0.01 0.02 0.01 0.02 0.01 0.01 0.01 0.02 0.01 0.02 0.02 0.02 0.01 0.02 0.01 0.01 0.01 0.02 0.02 0.02 0.01 0.01 0.02 0.02 0.01 0.02 0.02 -0.09 0.08 -0.01 -0.01 -0.01 -0.02 -0.02 -0.01 -0.01 -0.01 -0.02 -0.01 -0.01 -0.02 -0.02 -0.01 -0.02 -0.01 -0.01 -0.01 -0.02 -0.01 -0.01 -0.01 -0.02 -0.01 -0.02 -0.01 -0.02 -0.01 -0.01 -0.01 -0.02 -0.01 -0.02 -0.01 -0.02 0 -0.02 -0.01 -0.02 -0.01 -0.01 -0.01 -0.02 0 -0.02 -0.01 -0.02 -0.01 -0.02 0 -0.02 -0.01 -0.02 0 -0.02 -0.01 -0.02 0 -0.02 -0.01 -0.02 0 -0.02 0 0 0zm-0.51 0.04l-0.05 -0.1 0 0 0.02 -0.01 0.02 -0.01 0.01 0 0.02 -0.01 0.02 0 0.01 -0.01 0.02 0 0.02 -0.01 0.02 0 0.01 0 0.02 -0.01 0.02 0 0.02 0 0.02 0 0.02 -0.01 0.01 0 0.02 0 0.02 0 0.02 0 0.02 0 0.01 0 0.02 0 0.02 0 0.02 0 0.02 0 0.02 0 0.01 0 0.02 0 0.02 0.01 0.02 0 0.02 0 0.02 0 -0.02 0.12 -0.02 0 -0.01 -0.01 -0.02 0 -0.02 0 -0.01 0 -0.02 0 -0.02 0 -0.01 -0.01 -0.02 0 -0.02 0 -0.01 0 -0.02 0 -0.02 0.01 -0.01 0 -0.02 0 -0.02 0 -0.01 0 -0.02 0 -0.02 0 -0.01 0.01 -0.02 0 -0.01 0 -0.02 0 -0.01 0.01 -0.02 0 -0.01 0.01 -0.02 0 -0.02 0 -0.01 0.01 -0.02 0 -0.01 0.01 -0.01 0 0 0zm-0.36 0.3l-0.1 -0.06 0 0.01 0.01 -0.02 0.01 -0.02 0.01 -0.01 0.01 -0.02 0.01 -0.01 0.01 -0.01 0.01 -0.02 0.01 -0.01 0.01 -0.02 0.01 -0.01 0.02 -0.01 0.01 -0.01 0.01 -0.01 0.01 -0.02 0.02 -0.01 0.01 -0.01 0.01 -0.01 0.01 -0.01 0.02 -0.01 0.01 -0.01 0.02 -0.01 0.01 -0.01 0.02 -0.01 0.01 -0.01 0.02 0 0.01 -0.01 0.01 -0.01 0.02 -0.01 0.02 -0.01 0.01 0 0.02 -0.01 0.01 0 0.05 0.1 -0.02 0.01 -0.01 0.01 -0.02 0 -0.01 0.01 -0.01 0 -0.01 0.01 -0.02 0.01 -0.01 0 -0.01 0.01 -0.02 0.01 -0.01 0.01 -0.01 0.01 -0.01 0 -0.01 0.01 -0.01 0.01 -0.02 0.01 -0.01 0.01 -0.01 0.01 -0.01 0.01 -0.01 0.01 -0.01 0.01 -0.01 0.01 -0.01 0.01 -0.01 0.01 -0.01 0.01 -0.01 0.02 -0.01 0.01 0 0.01 -0.01 0.01 -0.01 0.02 -0.01 0.01 -0.01 0.01 0 0zm0 0l0 0 -0.03 0.07 0.03 -0.07zm-0.09 0.52l-0.12 0.01 0 0 0 -0.02 0 -0.03 0 -0.02 0 -0.02 0 -0.02 0 -0.02 0 -0.02 0 -0.02 0 -0.02 0 -0.02 0.01 -0.02 0 -0.02 0 -0.02 0 -0.02 0.01 -0.02 0 -0.02 0 -0.01 0.01 -0.02 0 -0.02 0.01 -0.02 0 -0.01 0.01 -0.02 0 -0.02 0.01 -0.01 0 -0.02 0.01 -0.02 0 -0.01 0.01 -0.02 0.01 -0.01 0.01 -0.02 0 -0.01 0.01 -0.02 0.1 0.06 0 0.01 -0.01 0.02 -0.01 0.01 0 0.01 -0.01 0.01 0 0.02 -0.01 0.01 0 0.02 -0.01 0.01 0 0.01 -0.01 0.02 0 0.01 -0.01 0.02 0 0.01 0 0.02 -0.01 0.02 0 0.01 0 0.02 0 0.02 -0.01 0.01 0 0.02 0 0.02 0 0.02 0 0.01 0 0.02 0 0.02 0 0.02 0 0.02 0 0.02 0 0.02 0 0.02 0 0.02 0 0zm0 0l0 0 0 0 0 0z"/>
  <path fill="#F08BB2" fill-rule="nonzero" d="M16.02 15.49c0.65,0.28 1.22,0.32 1.69,0.2 0.38,-0.1 0.7,-0.29 0.96,-0.54 0.26,-0.25 0.47,-0.56 0.6,-0.89 0.19,-0.46 0.24,-0.95 0.14,-1.36l0 0c-0.08,-0.41 -0.24,-0.76 -0.44,-1.04 -0.31,-0.43 -0.73,-0.72 -1.19,-0.87 -0.46,-0.16 -0.96,-0.18 -1.42,-0.08 -0.34,0.08 -0.66,0.21 -0.92,0.41 -0.28,0.21 -0.51,0.48 -0.67,0.79 -0.2,0.36 -0.3,0.77 -0.28,1.2 0.02,0.41 0.16,0.84 0.44,1.24 0.25,0.35 0.61,0.67 1.09,0.94zm0.62 -3.67c0.02,-0.01 0.03,-0.02 0.04,-0.03 0.32,-0.18 0.7,-0.08 0.98,0.14 0.1,0.08 0.19,0.18 0.26,0.28 0.08,0.11 0.13,0.23 0.15,0.34 0.04,0.24 -0.03,0.48 -0.28,0.65l-0.01 0 0 0c-0.23,0.16 -0.51,0.22 -0.77,0.19 -0.26,-0.04 -0.5,-0.17 -0.65,-0.39l0 0 -0.01 -0.01c-0.01,-0.02 -0.02,-0.03 -0.02,-0.04 -0.08,-0.15 -0.09,-0.38 -0.03,-0.6 0.06,-0.21 0.17,-0.42 0.34,-0.53z"/>
  <path fill="#2B2A29" fill-rule="nonzero" d="M17.7 15.63l0.03 0.12 0 0 -0.05 0.01 -0.05 0.01 -0.04 0.01 -0.05 0 -0.05 0.01 -0.05 0.01 -0.05 0 -0.05 0.01 -0.05 0 -0.05 0 -0.05 0 -0.05 0 -0.05 0 -0.06 0 -0.05 -0.01 -0.05 0 -0.06 -0.01 -0.05 -0.01 -0.06 0 -0.05 -0.01 -0.06 -0.01 -0.06 -0.02 -0.05 -0.01 -0.06 -0.02 -0.06 -0.01 -0.06 -0.02 -0.06 -0.02 -0.06 -0.02 -0.06 -0.02 -0.06 -0.02 -0.06 -0.03 -0.06 -0.02 0.05 -0.11 0.06 0.03 0.06 0.02 0.05 0.02 0.06 0.02 0.06 0.02 0.06 0.02 0.05 0.02 0.06 0.01 0.05 0.02 0.06 0.01 0.05 0.01 0.06 0.01 0.05 0.01 0.05 0.01 0.06 0.01 0.05 0 0.05 0.01 0.05 0 0.05 0 0.05 0 0.05 0 0.05 0 0.05 0 0.04 0 0.05 0 0.05 -0.01 0.05 -0.01 0.04 0 0.05 -0.01 0.04 -0.01 0.05 -0.01 0.04 -0.01 0 0zm0 0l0 0 0 0 0 0zm0.93 -0.52l0.08 0.08 0 0 -0.02 0.03 -0.03 0.02 -0.02 0.03 -0.03 0.02 -0.03 0.02 -0.03 0.02 -0.02 0.02 -0.03 0.03 -0.03 0.02 -0.03 0.02 -0.03 0.02 -0.03 0.02 -0.02 0.02 -0.03 0.01 -0.04 0.02 -0.03 0.02 -0.03 0.02 -0.03 0.01 -0.03 0.02 -0.03 0.02 -0.03 0.01 -0.04 0.02 -0.03 0.01 -0.03 0.01 -0.04 0.02 -0.03 0.01 -0.04 0.01 -0.03 0.01 -0.04 0.02 -0.03 0.01 -0.04 0.01 -0.03 0.01 -0.03 -0.12 0.03 -0.01 0.04 -0.01 0.03 -0.01 0.03 -0.01 0.04 -0.01 0.03 -0.01 0.03 -0.01 0.03 -0.01 0.03 -0.02 0.04 -0.01 0.03 -0.01 0.03 -0.02 0.03 -0.01 0.03 -0.02 0.03 -0.02 0.03 -0.01 0.03 -0.02 0.02 -0.02 0.03 -0.01 0.03 -0.02 0.03 -0.02 0.03 -0.02 0.02 -0.02 0.03 -0.02 0.03 -0.02 0.02 -0.02 0.03 -0.02 0.02 -0.02 0.03 -0.02 0.02 -0.02 0.03 -0.03 0.02 -0.02 0 0zm0.59 -0.87l0.1 0.05 0 0 -0.01 0.03 -0.01 0.03 -0.02 0.03 -0.01 0.03 -0.02 0.03 -0.01 0.03 -0.02 0.03 -0.01 0.03 -0.02 0.03 -0.01 0.03 -0.02 0.03 -0.02 0.03 -0.02 0.03 -0.01 0.03 -0.02 0.03 -0.02 0.03 -0.02 0.03 -0.02 0.03 -0.02 0.02 -0.02 0.03 -0.02 0.03 -0.02 0.03 -0.03 0.02 -0.02 0.03 -0.02 0.03 -0.02 0.02 -0.03 0.03 -0.02 0.03 -0.02 0.02 -0.03 0.03 -0.02 0.02 -0.03 0.02 -0.08 -0.08 0.02 -0.02 0.03 -0.03 0.02 -0.02 0.02 -0.02 0.03 -0.03 0.02 -0.02 0.02 -0.03 0.02 -0.02 0.02 -0.03 0.02 -0.02 0.02 -0.03 0.02 -0.03 0.02 -0.02 0.02 -0.03 0.02 -0.03 0.02 -0.03 0.02 -0.02 0.02 -0.03 0.01 -0.03 0.02 -0.03 0.02 -0.03 0.01 -0.02 0.02 -0.03 0.01 -0.03 0.02 -0.03 0.01 -0.03 0.02 -0.03 0.01 -0.03 0.02 -0.03 0.01 -0.03 0.01 -0.03 0.02 -0.03 0 0zm0.14 -1.32l0.11 -0.03 0 0 0.01 0.04 0.01 0.04 0 0.04 0.01 0.04 0.01 0.04 0 0.05 0 0.04 0.01 0.04 0 0.04 0 0.05 0 0.04 0 0.04 0 0.05 -0.01 0.04 0 0.05 0 0.04 -0.01 0.05 0 0.04 -0.01 0.05 -0.01 0.04 -0.01 0.04 -0.01 0.05 -0.01 0.04 -0.01 0.05 -0.01 0.04 -0.01 0.05 -0.02 0.04 -0.01 0.05 -0.02 0.04 -0.01 0.05 -0.02 0.04 -0.02 0.05 -0.1 -0.05 0.01 -0.04 0.02 -0.04 0.01 -0.05 0.02 -0.04 0.01 -0.04 0.01 -0.04 0.02 -0.05 0.01 -0.04 0.01 -0.04 0.01 -0.04 0.01 -0.05 0 -0.04 0.01 -0.04 0.01 -0.05 0 -0.04 0.01 -0.04 0 -0.04 0.01 -0.04 0 -0.05 0 -0.04 0 -0.04 0 -0.04 0 -0.04 0 -0.04 0 -0.04 -0.01 -0.04 0 -0.04 -0.01 -0.04 0 -0.04 -0.01 -0.04 -0.01 -0.04 0 -0.03 0 0zm0.11 -0.03l0 0 0 0 0 0zm0 -0.01l0 0.01 -0.11 0.03 -0.01 -0.01 0 0 0.12 -0.03zm-0.12 0.03l0 0 0 0 0 0zm-0.43 -1.02l0.1 -0.07 0 0 0.02 0.03 0.02 0.03 0.02 0.03 0.01 0.03 0.02 0.02 0.02 0.03 0.02 0.03 0.01 0.03 0.02 0.03 0.02 0.03 0.01 0.04 0.02 0.03 0.01 0.03 0.02 0.03 0.01 0.03 0.02 0.04 0.01 0.03 0.02 0.03 0.01 0.04 0.01 0.03 0.02 0.04 0.01 0.03 0.01 0.04 0.01 0.03 0.01 0.04 0.01 0.04 0.01 0.03 0.01 0.04 0.01 0.04 0.01 0.04 0.01 0.04 0.01 0.04 -0.12 0.02 0 -0.04 -0.01 -0.04 -0.01 -0.03 -0.01 -0.04 -0.01 -0.04 -0.01 -0.03 -0.01 -0.04 -0.01 -0.03 -0.01 -0.04 -0.01 -0.03 -0.02 -0.03 -0.01 -0.04 -0.01 -0.03 -0.01 -0.03 -0.02 -0.04 -0.01 -0.03 -0.01 -0.03 -0.02 -0.03 -0.01 -0.03 -0.02 -0.03 -0.01 -0.03 -0.02 -0.03 -0.01 -0.03 -0.02 -0.03 -0.02 -0.03 -0.01 -0.03 -0.02 -0.02 -0.02 -0.03 -0.01 -0.03 -0.02 -0.03 -0.02 -0.02 -0.02 -0.03 0 0zm0.1 -0.07l0 0 0.14 0.2 -0.14 -0.2zm-1.26 -0.78l0.04 -0.11 0 0 0.05 0.01 0.04 0.02 0.04 0.02 0.05 0.02 0.04 0.01 0.04 0.02 0.04 0.02 0.04 0.02 0.05 0.02 0.04 0.03 0.04 0.02 0.04 0.03 0.04 0.02 0.04 0.03 0.04 0.02 0.04 0.03 0.04 0.03 0.03 0.03 0.04 0.03 0.04 0.03 0.04 0.03 0.03 0.03 0.04 0.04 0.03 0.03 0.04 0.03 0.03 0.04 0.03 0.04 0.04 0.04 0.03 0.03 0.03 0.04 0.03 0.04 0.03 0.04 -0.1 0.07 -0.03 -0.04 -0.02 -0.04 -0.03 -0.03 -0.03 -0.04 -0.04 -0.04 -0.03 -0.03 -0.03 -0.03 -0.03 -0.04 -0.04 -0.03 -0.03 -0.03 -0.03 -0.03 -0.04 -0.03 -0.03 -0.03 -0.04 -0.03 -0.03 -0.03 -0.04 -0.03 -0.04 -0.02 -0.04 -0.03 -0.03 -0.02 -0.04 -0.03 -0.04 -0.02 -0.04 -0.02 -0.04 -0.02 -0.04 -0.02 -0.04 -0.02 -0.04 -0.02 -0.04 -0.02 -0.04 -0.02 -0.04 -0.01 -0.04 -0.02 -0.04 -0.02 -0.05 -0.01 0 0zm-1.39 -0.07l-0.02 -0.12 0 0 0.04 0 0.04 -0.01 0.05 -0.01 0.04 -0.01 0.05 0 0.04 -0.01 0.05 -0.01 0.05 0 0.04 0 0.05 -0.01 0.04 0 0.05 0 0.05 0 0.04 0 0.05 0 0.04 0 0.05 0.01 0.05 0 0.04 0 0.05 0.01 0.04 0.01 0.05 0 0.04 0.01 0.05 0.01 0.05 0.01 0.04 0.01 0.05 0.01 0.04 0.01 0.05 0.01 0.04 0.01 0.05 0.02 0.04 0.01 -0.04 0.11 -0.04 -0.01 -0.04 -0.02 -0.04 -0.01 -0.05 -0.01 -0.04 -0.01 -0.04 -0.01 -0.05 -0.01 -0.04 -0.01 -0.04 -0.01 -0.05 0 -0.04 -0.01 -0.05 0 -0.04 -0.01 -0.04 0 -0.05 -0.01 -0.04 0 -0.05 0 -0.04 0 -0.04 0 -0.05 0 -0.04 0 -0.05 0 -0.04 0 -0.04 0.01 -0.05 0 -0.04 0.01 -0.04 0 -0.05 0.01 -0.04 0 -0.04 0.01 -0.05 0.01 -0.04 0.01 0 0zm0 0l0 0 0 0 0 0zm-0.9 0.4l-0.07 -0.09 0 0 0.03 -0.02 0.02 -0.02 0.03 -0.02 0.03 -0.02 0.02 -0.01 0.03 -0.02 0.03 -0.02 0.03 -0.02 0.02 -0.01 0.03 -0.02 0.03 -0.01 0.03 -0.02 0.03 -0.01 0.03 -0.02 0.03 -0.01 0.03 -0.01 0.03 -0.02 0.03 -0.01 0.03 -0.01 0.03 -0.01 0.03 -0.01 0.03 -0.02 0.03 -0.01 0.03 -0.01 0.03 -0.01 0.03 -0.01 0.04 -0.01 0.03 0 0.03 -0.01 0.03 -0.01 0.03 -0.01 0.04 -0.01 0.02 0.12 -0.03 0.01 -0.03 0 -0.03 0.01 -0.03 0.01 -0.03 0.01 -0.03 0.01 -0.03 0.01 -0.03 0 -0.03 0.01 -0.03 0.01 -0.03 0.01 -0.03 0.02 -0.03 0.01 -0.03 0.01 -0.03 0.01 -0.03 0.01 -0.02 0.02 -0.03 0.01 -0.03 0.01 -0.03 0.02 -0.02 0.01 -0.03 0.02 -0.03 0.01 -0.03 0.02 -0.02 0.01 -0.03 0.02 -0.02 0.01 -0.03 0.02 -0.02 0.02 -0.03 0.01 -0.02 0.02 -0.03 0.02 0 0zm-0.65 0.77l-0.11 -0.06 0 0 0.02 -0.02 0.02 -0.03 0.01 -0.03 0.02 -0.03 0.02 -0.03 0.01 -0.03 0.02 -0.03 0.02 -0.02 0.02 -0.03 0.02 -0.03 0.02 -0.03 0.02 -0.02 0.02 -0.03 0.02 -0.03 0.02 -0.02 0.02 -0.03 0.02 -0.02 0.03 -0.03 0.02 -0.02 0.02 -0.03 0.03 -0.02 0.02 -0.02 0.02 -0.03 0.03 -0.02 0.02 -0.02 0.03 -0.03 0.02 -0.02 0.03 -0.02 0.02 -0.02 0.03 -0.02 0.03 -0.02 0.02 -0.02 0.07 0.09 -0.02 0.02 -0.03 0.02 -0.02 0.02 -0.03 0.02 -0.02 0.02 -0.03 0.02 -0.02 0.02 -0.02 0.02 -0.03 0.03 -0.02 0.02 -0.02 0.02 -0.02 0.02 -0.02 0.03 -0.03 0.02 -0.02 0.02 -0.02 0.03 -0.02 0.02 -0.02 0.03 -0.02 0.02 -0.02 0.03 -0.02 0.02 -0.01 0.03 -0.02 0.02 -0.02 0.03 -0.02 0.03 -0.02 0.02 -0.01 0.03 -0.02 0.03 -0.02 0.03 -0.01 0.02 -0.02 0.03 -0.01 0.03 0 0zm-0.27 1.16l-0.12 0.01 0 0 0 -0.04 0 -0.04 0 -0.04 0 -0.04 0 -0.04 0.01 -0.04 0 -0.04 0 -0.04 0.01 -0.04 0 -0.04 0.01 -0.04 0 -0.04 0.01 -0.04 0.01 -0.04 0 -0.04 0.01 -0.04 0.01 -0.04 0.01 -0.03 0.01 -0.04 0.01 -0.04 0.02 -0.04 0.01 -0.03 0.01 -0.04 0.01 -0.04 0.02 -0.03 0.01 -0.04 0.02 -0.04 0.01 -0.03 0.02 -0.04 0.02 -0.04 0.02 -0.03 0.01 -0.04 0.11 0.06 -0.02 0.03 -0.02 0.04 -0.01 0.03 -0.02 0.03 -0.01 0.04 -0.02 0.03 -0.01 0.04 -0.02 0.03 -0.01 0.04 -0.01 0.03 -0.01 0.04 -0.01 0.03 -0.01 0.04 -0.01 0.04 -0.01 0.03 -0.01 0.04 -0.01 0.04 -0.01 0.03 -0.01 0.04 0 0.04 -0.01 0.03 0 0.04 -0.01 0.04 0 0.04 0 0.04 -0.01 0.03 0 0.04 0 0.04 0 0.04 0 0.04 0 0.03 0 0.04 0 0zm0.43 1.22l-0.1 0.06 0 0 -0.02 -0.03 -0.03 -0.04 -0.02 -0.04 -0.03 -0.04 -0.02 -0.04 -0.02 -0.04 -0.03 -0.04 -0.02 -0.04 -0.02 -0.04 -0.02 -0.03 -0.01 -0.05 -0.02 -0.03 -0.02 -0.04 -0.01 -0.05 -0.02 -0.04 -0.01 -0.04 -0.02 -0.04 -0.01 -0.04 -0.01 -0.04 -0.01 -0.04 -0.01 -0.04 -0.01 -0.04 -0.01 -0.04 -0.01 -0.04 -0.01 -0.04 0 -0.04 -0.01 -0.04 0 -0.04 -0.01 -0.04 0 -0.04 0 -0.04 -0.01 -0.04 0.12 -0.01 0 0.04 0.01 0.04 0 0.04 0 0.04 0.01 0.03 0 0.04 0.01 0.04 0.01 0.04 0 0.04 0.01 0.04 0.01 0.04 0.01 0.03 0.01 0.04 0.01 0.04 0.02 0.04 0.01 0.04 0.01 0.04 0.02 0.03 0.01 0.04 0.02 0.04 0.01 0.04 0.02 0.04 0.02 0.03 0.02 0.04 0.02 0.04 0.02 0.04 0.02 0.03 0.02 0.04 0.03 0.04 0.02 0.03 0.02 0.04 0.03 0.04 0 0zm1.07 0.92l-0.05 0.11 0 0 -0.05 -0.03 -0.05 -0.03 -0.04 -0.02 -0.04 -0.03 -0.05 -0.03 -0.04 -0.03 -0.04 -0.02 -0.04 -0.03 -0.04 -0.03 -0.04 -0.03 -0.04 -0.03 -0.04 -0.03 -0.03 -0.03 -0.04 -0.03 -0.04 -0.03 -0.03 -0.03 -0.04 -0.03 -0.03 -0.03 -0.03 -0.03 -0.03 -0.03 -0.04 -0.03 -0.03 -0.03 -0.03 -0.03 -0.03 -0.03 -0.02 -0.04 -0.03 -0.03 -0.03 -0.03 -0.03 -0.03 -0.02 -0.04 -0.03 -0.03 -0.02 -0.03 -0.03 -0.04 0.1 -0.06 0.02 0.03 0.03 0.03 0.02 0.03 0.02 0.03 0.03 0.03 0.03 0.04 0.02 0.03 0.03 0.03 0.03 0.03 0.03 0.03 0.03 0.03 0.03 0.03 0.03 0.03 0.03 0.03 0.03 0.03 0.04 0.03 0.03 0.03 0.03 0.02 0.04 0.03 0.04 0.03 0.03 0.03 0.04 0.03 0.04 0.03 0.04 0.02 0.04 0.03 0.04 0.03 0.04 0.02 0.04 0.03 0.04 0.03 0.04 0.02 0.05 0.03 0.04 0.02 0 0zm-0.05 0.11l0 0 0 0 0 0zm0.65 -3.81l0.06 0.1 0 0 0 0 0 0 0 0 0 0 0 0 -0.01 0.01 0 0 0 0 0 -0.01 0 0.01 0 0 0 0 0 0 0 0 0 0 -0.01 0 0 0 0 0 0 0.01 0 -0.01 0 0 -0.01 0.01 0 0 0.01 -0.01 0 0.01 -0.01 0 0 0 0 0 0 0 0 0 0 0 -0.01 0 -0.06 -0.09 0 0 0 0 0 0 0 0 0.01 -0.01 0 0 0 0 -0.01 0 0.01 0 0.01 0 -0.01 0 0 0 0.01 -0.01 0 0.01 0 -0.01 0 0 0 0 0.01 0 0 0 0 0 0 0 0 0 0 0 0 0 0.01 -0.01 0 0 0 0.01 0 -0.01 0 0 0 0 0.01 0 -0.01 0 0 0zm0.06 0.1l0 0 0 0 0 0zm0.99 0.05l-0.07 0.09 0 0 -0.03 -0.02 -0.03 -0.02 -0.02 -0.02 -0.03 -0.01 -0.03 -0.02 -0.03 -0.02 -0.02 -0.01 -0.03 -0.01 -0.03 -0.02 -0.03 -0.01 -0.03 -0.01 -0.03 -0.01 -0.03 -0.01 -0.03 -0.01 -0.03 0 -0.03 -0.01 -0.02 -0.01 -0.03 0 -0.03 0 -0.03 0 -0.03 0 -0.03 0 -0.03 0 -0.03 0 -0.03 0.01 -0.03 0.01 -0.03 0 -0.03 0.01 -0.02 0.01 -0.03 0.01 -0.03 0.02 -0.03 0.01 -0.06 -0.1 0.04 -0.02 0.03 -0.01 0.03 -0.02 0.04 -0.01 0.03 -0.01 0.03 -0.01 0.04 -0.01 0.03 0 0.04 -0.01 0.03 0 0.03 0 0.04 0 0.03 0 0.04 0.01 0.03 0 0.04 0 0.03 0.01 0.03 0.01 0.04 0.01 0.03 0.01 0.03 0.01 0.03 0.01 0.04 0.02 0.03 0.01 0.03 0.02 0.03 0.01 0.03 0.02 0.03 0.02 0.03 0.02 0.03 0.02 0.03 0.02 0.03 0.02 0 0zm0.27 0.29l-0.1 0.06 0 0 0 -0.01 -0.01 0 0 -0.01 -0.01 -0.01 -0.01 -0.01 0 -0.01 -0.01 -0.01 -0.01 -0.01 -0.01 -0.01 0 0 -0.01 -0.01 -0.01 -0.01 -0.01 -0.01 0 -0.01 -0.01 -0.01 -0.01 -0.01 -0.01 0 0 -0.01 -0.01 -0.01 -0.01 -0.01 -0.01 -0.01 -0.01 -0.01 -0.01 0 0 -0.01 -0.01 -0.01 -0.01 -0.01 -0.01 0 -0.01 -0.01 -0.01 -0.01 -0.01 -0.01 -0.01 0 0 -0.01 0.07 -0.09 0.01 0.01 0.01 0 0.01 0.01 0.01 0.01 0.01 0.01 0.01 0.01 0.01 0.01 0 0 0.01 0.01 0.01 0.01 0.01 0.01 0.01 0.01 0.01 0.01 0.01 0.01 0.01 0.01 0.01 0 0.01 0.01 0 0.01 0.01 0.01 0.01 0.01 0.01 0.01 0.01 0.01 0 0.01 0.01 0.01 0.01 0.01 0.01 0.01 0.01 0.01 0 0.01 0.01 0.01 0.01 0.01 0 0.01 0.01 0.01 0 0zm0 0l0 0 0 0 0 0zm0.15 0.36l-0.11 0.02 0 0 0 0 0 -0.02 -0.01 -0.01 0 -0.01 0 -0.01 0 -0.01 -0.01 -0.01 0 -0.01 0 -0.01 -0.01 -0.01 0 -0.01 0 -0.01 -0.01 -0.01 0 -0.01 -0.01 -0.01 0 -0.01 0 -0.01 -0.01 -0.01 0 -0.01 -0.01 -0.01 0 -0.01 -0.01 -0.01 0 -0.01 -0.01 -0.01 0 -0.01 -0.01 -0.01 -0.01 -0.01 0 -0.01 -0.01 -0.01 0 -0.01 -0.01 -0.01 -0.01 -0.01 0.1 -0.06 0.01 0.01 0.01 0.01 0 0.01 0.01 0.01 0.01 0.01 0 0.01 0.01 0.01 0 0.02 0.01 0.01 0.01 0.01 0 0.01 0.01 0.01 0 0.01 0.01 0.01 0 0.01 0.01 0.02 0 0.01 0.01 0.01 0 0.01 0.01 0.01 0 0.01 0 0.02 0.01 0.01 0 0.01 0.01 0.01 0 0.01 0 0.01 0 0.02 0.01 0.01 0 0.01 0 0.01 0 0.01 0 0zm-0.3 0.71l-0.06 -0.1 0 0 0.02 -0.02 0.02 -0.01 0.02 -0.02 0.02 -0.01 0.01 -0.02 0.02 -0.01 0.01 -0.02 0.02 -0.02 0.01 -0.02 0.01 -0.01 0.02 -0.02 0.01 -0.02 0.01 -0.02 0.01 -0.01 0.01 -0.02 0 -0.02 0.01 -0.02 0.01 -0.02 0 -0.02 0.01 -0.02 0 -0.01 0 -0.02 0.01 -0.02 0 -0.02 0 -0.02 0 -0.02 0 -0.02 0 -0.02 0 -0.02 0 -0.02 -0.01 -0.02 0 -0.03 0.11 -0.02 0.01 0.03 0 0.02 0 0.03 0.01 0.02 0 0.02 0 0.03 0 0.02 0 0.03 -0.01 0.02 0 0.02 0 0.03 -0.01 0.02 -0.01 0.02 0 0.03 -0.01 0.02 -0.01 0.02 -0.01 0.03 -0.01 0.02 -0.01 0.02 -0.01 0.02 -0.02 0.02 -0.01 0.02 -0.01 0.03 -0.02 0.02 -0.02 0.02 -0.02 0.02 -0.02 0.01 -0.02 0.02 -0.02 0.02 -0.02 0.02 -0.02 0.02 -0.03 0.02 0 0zm0 0l0 0 0.01 -0.01 -0.01 0.01zm-0.07 -0.1l0.01 0 0.06 0.1 0 0 -0.07 -0.1 0 0zm0 0l0 0 -0.03 0.03 0.03 -0.03zm0.03 0.05l0 0 0 0 0 0 0.04 0.05 -0.04 -0.05zm-0.03 -0.05l0 0 -0.03 0.03 0.03 -0.03zm-0.74 0.29l0.01 -0.11 0 0 0.02 0 0.03 0 0.02 0 0.02 0 0.03 0.01 0.02 0 0.02 0 0.03 -0.01 0.02 0 0.02 0 0.03 0 0.02 -0.01 0.03 0 0.02 0 0.02 -0.01 0.02 0 0.03 -0.01 0.02 0 0.02 -0.01 0.03 -0.01 0.02 -0.01 0.02 0 0.03 -0.01 0.02 -0.01 0.02 -0.01 0.02 -0.01 0.02 -0.01 0.03 -0.02 0.02 -0.01 0.02 -0.01 0.02 -0.01 0.02 -0.02 0.07 0.1 -0.03 0.02 -0.02 0.01 -0.02 0.01 -0.03 0.02 -0.02 0.01 -0.03 0.01 -0.02 0.01 -0.03 0.01 -0.02 0.02 -0.03 0 -0.02 0.01 -0.03 0.01 -0.02 0.01 -0.03 0.01 -0.02 0.01 -0.03 0 -0.02 0.01 -0.03 0 -0.03 0.01 -0.02 0 -0.03 0 -0.02 0.01 -0.03 0 -0.03 0 -0.02 0 -0.03 0 -0.03 0 -0.02 0 -0.03 0 -0.02 0 -0.03 0 -0.02 -0.01 0 0zm-0.7 -0.4l0.09 -0.08 0 0.01 0.02 0.02 0.01 0.02 0.02 0.02 0.01 0.01 0.02 0.02 0.01 0.02 0.02 0.01 0.02 0.02 0.01 0.01 0.02 0.02 0.02 0.01 0.02 0.01 0.01 0.02 0.02 0.01 0.02 0.01 0.02 0.01 0.02 0.01 0.02 0.02 0.02 0.01 0.02 0 0.03 0.01 0.02 0.01 0.02 0.01 0.02 0.01 0.02 0 0.02 0.01 0.03 0.01 0.02 0 0.02 0.01 0.02 0 0.03 0 0.02 0.01 -0.01 0.11 -0.03 0 -0.03 0 -0.02 -0.01 -0.03 0 -0.02 -0.01 -0.03 -0.01 -0.02 0 -0.03 -0.01 -0.02 -0.01 -0.03 -0.01 -0.02 -0.01 -0.02 -0.01 -0.03 -0.01 -0.02 -0.01 -0.02 -0.01 -0.03 -0.01 -0.02 -0.02 -0.02 -0.01 -0.02 -0.02 -0.02 -0.01 -0.02 -0.02 -0.02 -0.01 -0.02 -0.02 -0.02 -0.02 -0.02 -0.01 -0.02 -0.02 -0.02 -0.02 -0.02 -0.02 -0.01 -0.02 -0.02 -0.02 -0.02 -0.02 -0.01 -0.02 0 0zm0.09 -0.08l0 0.01 0 0 0 -0.01zm0 0l0 0 -0.09 0.08 0 0 0 -0.01 0.09 -0.07zm-0.09 0.08l0 0 0 -0.01 0 0.01zm0.08 -0.09l0.01 0.02 -0.09 0.06 -0.01 -0.01 0 0 0.09 -0.07zm-0.09 0.07l0 0 0 0 0 0zm-0.03 -0.04l0.11 -0.05 0 0 0 0 0 0 0 0 0 0 0 -0.01 0 0.01 0 0.01 0 0 0 -0.01 0 0 0 0 0 0.01 0.01 0 -0.01 -0.01 0 0.01 0.01 0 0 0 0 0 0 0 0 0 0 0 0 0.01 0 0 0 0 0 0 0 0 0 0 0 0 0 0 0 0 0 0 0 0.01 -0.09 0.06 0 0 -0.01 -0.01 0 0 0 0 0 0 0 0 0 0 0 0 0 0 0 -0.01 0 0 0 0 0 0 0 0 -0.01 0 0 0 0 0 0.01 0 -0.01 -0.01 0 0.01 0 -0.01 0 0 0 0.01 0 -0.01 0 -0.01 0 0.01 0 0 0 -0.01 0 0.01 0 0 -0.01 -0.01 0 0 0 0zm0 0l0 0 0.01 0.01 -0.01 -0.01zm-0.03 -0.64l0.12 0.03 0 0 -0.01 0.02 0 0.02 -0.01 0.02 0 0.02 0 0.02 -0.01 0.02 0 0.02 0 0.02 -0.01 0.02 0 0.01 0 0.02 0 0.02 0 0.02 0 0.02 0 0.02 0 0.02 0 0.02 0 0.01 0 0.02 0.01 0.02 0 0.02 0 0.01 0 0.02 0.01 0.01 0 0.02 0.01 0.02 0 0.01 0 0.01 0.01 0.02 0.01 0.01 0 0.01 0.01 0.02 -0.11 0.05 0 -0.01 -0.01 -0.02 -0.01 -0.02 -0.01 -0.02 0 -0.01 -0.01 -0.02 0 -0.02 -0.01 -0.02 0 -0.02 -0.01 -0.02 0 -0.02 0 -0.02 0 -0.02 -0.01 -0.02 0 -0.02 0 -0.02 0 -0.02 0 -0.02 0 -0.02 0 -0.02 0 -0.02 0.01 -0.02 0 -0.03 0 -0.02 0 -0.02 0.01 -0.02 0 -0.02 0 -0.02 0.01 -0.03 0 -0.02 0.01 -0.02 0 -0.02 0 0zm0 0l0 0 0 0 0 0zm0.37 -0.57l0.06 0.09 0 0 -0.01 0.01 -0.01 0.02 -0.02 0.01 -0.01 0.01 -0.01 0.01 -0.02 0.01 -0.01 0.01 -0.01 0.02 -0.01 0.01 -0.01 0.02 -0.02 0.01 -0.01 0.02 -0.01 0.01 -0.01 0.02 -0.01 0.01 -0.01 0.02 -0.01 0.02 -0.01 0.01 -0.01 0.02 -0.01 0.02 -0.01 0.01 -0.01 0.02 0 0.02 -0.01 0.02 -0.01 0.02 -0.01 0.02 0 0.01 -0.01 0.02 -0.01 0.02 0 0.02 -0.01 0.02 0 0.02 -0.12 -0.03 0.01 -0.02 0 -0.02 0.01 -0.02 0.01 -0.02 0.01 -0.02 0 -0.03 0.01 -0.02 0.01 -0.02 0.01 -0.02 0.01 -0.02 0.01 -0.02 0.01 -0.02 0.01 -0.02 0.01 -0.01 0.01 -0.02 0.01 -0.02 0.01 -0.02 0.01 -0.02 0.01 -0.02 0.02 -0.01 0.01 -0.02 0.01 -0.02 0.02 -0.01 0.01 -0.02 0.02 -0.02 0.01 -0.01 0.02 -0.02 0.01 -0.01 0.02 -0.01 0.01 -0.02 0.02 -0.01 0.02 -0.01 0 0zm0 0l0 0 0 0 0 0z"/>
  <path fill="#F5B2B6" fill-rule="nonzero" d="M16.84 12.08c-0.01,0 -0.02,0.01 -0.02,0.01 -0.1,0.07 -0.17,0.2 -0.21,0.35 -0.04,0.14 -0.04,0.28 0,0.36 0,0 0,0 0,0l0 0c0.1,0.15 0.26,0.24 0.44,0.26 0.19,0.02 0.4,-0.02 0.56,-0.13l0 0c0.13,-0.09 0.16,-0.2 0.14,-0.32 -0.01,-0.07 -0.04,-0.14 -0.09,-0.21 -0.05,-0.08 -0.12,-0.15 -0.19,-0.21 -0.19,-0.15 -0.44,-0.22 -0.63,-0.11z"/>
  <path fill="#2B2A29" fill-rule="nonzero" d="M16.85 12.14l-0.07 -0.1 0 0 0 0.01 0.01 -0.01 0 0 0 0 0 0 -0.01 0.01 0.02 -0.02 0 0 -0.01 0.01 0 0 -0.01 0 0.01 0 0 0 0.02 -0.01 0 0 -0.02 0 0 0 0.01 0 0 0 0 0 0 0 0 0 0 0 0 0 0 0 0.01 0 0 0 -0.01 0 0 0 0.01 0 0 -0.01 0 0.01 0.06 0.1 -0.01 0 0 0 0.01 0 0 0 -0.01 0 0 0 0 0 0 0 0 0 0 0 0 0 0 0 0 0 0 0 0 0 0 0 -0.02 0.01 0 0 0.02 -0.01 0 0 0.01 0 -0.01 0 -0.01 0 0 0.01 0 0 0.01 -0.01 -0.01 0.01 0 0 0 0 0 0 0.01 -0.01 -0.01 0.01 0 0zm0 0l0 0 0 0 0 0zm-0.19 0.32l-0.11 -0.03 0 0 0 -0.02 0.01 -0.01 0 -0.02 0.01 -0.01 0 -0.02 0.01 -0.01 0 -0.01 0.01 -0.02 0 -0.01 0.01 -0.02 0.01 -0.01 0 -0.01 0.01 -0.02 0 -0.01 0.01 -0.01 0.01 -0.01 0.01 -0.02 0 -0.01 0.01 -0.01 0.01 -0.01 0.01 -0.01 0.01 -0.02 0.01 -0.01 0 -0.01 0.01 -0.01 0.01 -0.01 0.01 -0.01 0.01 -0.01 0.01 0 0.01 -0.01 0.01 -0.01 0.01 -0.01 0.07 0.1 -0.01 0 0 0.01 -0.01 0 -0.01 0.01 0 0.01 -0.01 0 -0.01 0.01 -0.01 0.01 0 0.01 -0.01 0.01 -0.01 0.01 0 0 -0.01 0.01 -0.01 0.01 0 0.01 -0.01 0.01 -0.01 0.01 0 0.02 -0.01 0.01 0 0.01 -0.01 0.01 0 0.01 -0.01 0.01 0 0.01 -0.01 0.02 0 0.01 -0.01 0.01 0 0.01 -0.01 0.02 0 0.01 0 0.01 -0.01 0.02 0 0zm0 0l0 0 0 0 0 0zm-0.01 0.3l-0.09 0.07 -0.01 -0.01 0 -0.01 -0.01 -0.01 0 -0.01 0 -0.01 -0.01 -0.01 0 -0.01 0 -0.01 0 -0.01 -0.01 -0.01 0 -0.01 0 -0.02 0 -0.01 0 -0.01 0 -0.01 0 -0.01 0 -0.02 0 -0.01 0 -0.01 0 -0.02 0 -0.01 0 -0.01 0 -0.02 0 -0.01 0.01 -0.01 0 -0.02 0 -0.01 0 -0.01 0.01 -0.02 0 -0.01 0 -0.02 0.01 -0.01 0 -0.01 0.11 0.03 0 0.01 0 0.01 -0.01 0.01 0 0.01 0 0.02 0 0.01 -0.01 0.01 0 0.01 0 0.02 0 0.01 0 0.01 0 0.01 0 0.01 0 0.01 0 0.01 0 0.01 0 0.01 0 0.02 0 0 0 0.01 0 0.01 0 0.01 0 0.01 0 0.01 0 0.01 0 0 0.01 0.01 0 0.01 0 0 0 0.01 0.01 0.01 0 0 -0.01 -0.01zm-0.09 0.07l0 0 -0.01 -0.01 0.01 0.01zm0.05 -0.08l0 0.11 -0.05 -0.03 -0.01 -0.03 0 0 0 0 0.06 0.06 -0.04 -0.01 -0.02 -0.05 0 0 0 0 0.02 0.04 0 0 -0.02 -0.04 0 0 0.02 0.04 0 0 -0.02 -0.04 0 0 0.01 0.03 0.01 0.01 -0.02 -0.04 0.01 0.03 0.01 0.01 0 0 -0.02 -0.01 0 -0.03 0.02 0.04 -0.02 -0.01 0 -0.01 0 0 0.01 0.02 0 0 -0.01 -0.02 0.01 0.01 0.09 -0.07 0.01 0.01 -0.01 -0.01 0 0 0.01 0.01 0 0 0 0 -0.01 -0.01 0.02 0.04 -0.01 -0.03 -0.01 -0.01 0 0 0.01 0.01 0.01 0.03 -0.02 -0.04 0.01 0.02 0.01 0.02 0 0 -0.02 -0.04 0 0 0.02 0.04 0 0 -0.02 -0.04 0 0 0.02 0.04 0 0 0 0 -0.02 -0.04 -0.04 -0.01 0.06 0.05 0 0 0 0 -0.01 -0.02 -0.05 -0.03zm0 0.11l-0.04 0 -0.01 -0.03 0.05 0.03zm0 0l0 0 0 -0.11 0 0 0.05 0.02 -0.05 0.09zm0 -0.11l0.03 0 0.02 0.02 -0.05 -0.02zm0.45 0.25l-0.02 0.12 0 0 -0.01 0 -0.02 -0.01 -0.02 0 -0.02 0 -0.02 -0.01 -0.01 0 -0.02 -0.01 -0.02 0 -0.02 -0.01 -0.01 -0.01 -0.02 0 -0.02 -0.01 -0.01 -0.01 -0.02 0 -0.01 -0.01 -0.02 -0.01 -0.02 -0.01 -0.01 -0.01 -0.02 -0.01 -0.01 -0.01 -0.02 -0.01 -0.01 -0.01 -0.01 -0.01 -0.02 -0.01 -0.01 -0.02 -0.01 -0.01 -0.01 -0.01 -0.02 -0.02 -0.01 -0.01 -0.01 -0.01 -0.01 -0.02 -0.01 -0.01 0.1 -0.07 0.01 0.01 0.01 0.02 0 0.01 0.01 0.01 0.01 0.01 0.01 0.01 0.01 0.01 0.01 0.01 0.01 0.01 0.02 0.01 0.01 0.01 0.01 0.01 0.01 0 0.01 0.01 0.02 0.01 0.01 0.01 0.01 0.01 0.01 0 0.02 0.01 0.01 0 0.01 0.01 0.02 0.01 0.01 0 0.02 0.01 0.01 0 0.02 0 0.01 0.01 0.02 0 0.01 0 0.02 0.01 0.01 0 0.02 0 0 0zm-0.02 0.12l0 0 0 0 0 0zm0.57 -0.25l0 0.11 0.04 -0.01 -0.02 0.01 -0.02 0.02 -0.02 0.01 -0.01 0.01 -0.02 0.01 -0.02 0 -0.02 0.01 -0.02 0.01 -0.01 0.01 -0.02 0.01 -0.02 0 -0.02 0.01 -0.02 0.01 -0.02 0 -0.02 0.01 -0.02 0 -0.01 0.01 -0.02 0 -0.02 0 -0.02 0.01 -0.02 0 -0.02 0 -0.02 0 -0.02 0 -0.02 0 -0.02 0 -0.02 0 -0.02 0 -0.02 0 -0.02 0 -0.02 0 -0.02 0 0.02 -0.12 0.02 0 0.01 0.01 0.02 0 0.02 0 0.01 0 0.02 0 0.02 0 0.01 0 0.02 0 0.02 -0.01 0.01 0 0.02 0 0.02 0 0.01 -0.01 0.02 0 0.02 0 0.01 -0.01 0.02 0 0.02 -0.01 0.01 0 0.02 -0.01 0.02 0 0.01 -0.01 0.02 -0.01 0.01 0 0.02 -0.01 0.01 -0.01 0.02 -0.01 0.02 0 0.01 -0.01 0.01 -0.01 0.02 -0.01 0.03 -0.01zm-0.03 0.01l0.01 -0.01 0.02 0 -0.03 0.01zm0.03 0.1l0 0 0 -0.11 0 0 0.04 0.1 -0.04 0.01zm0.04 -0.01l-0.02 0.01 -0.02 0 0.04 -0.01zm0.05 -0.35l0.11 -0.02 0 0 0 0.02 0.01 0.01 0 0.01 0 0.01 0 0.02 0 0.01 0 0.01 0 0.01 -0.01 0.02 0 0.01 0 0.01 0 0.01 -0.01 0.02 0 0.01 0 0.01 -0.01 0.01 0 0.01 -0.01 0.02 -0.01 0.01 0 0.01 -0.01 0.01 -0.01 0.01 -0.01 0.01 0 0.01 -0.01 0.01 -0.01 0.02 -0.01 0.01 -0.01 0.01 -0.02 0.01 -0.01 0 -0.01 0.01 -0.01 0.01 -0.07 -0.09 0.01 -0.01 0.01 -0.01 0.01 0 0.01 -0.01 0.01 -0.01 0 -0.01 0.01 0 0.01 -0.01 0 -0.01 0.01 -0.01 0 0 0.01 -0.01 0 -0.01 0.01 -0.01 0 0 0 -0.01 0.01 -0.01 0 -0.01 0 -0.01 0 0 0.01 -0.01 0 -0.01 0 -0.01 0 -0.01 0 -0.01 0 0 0 -0.01 0 -0.01 0 -0.01 0 -0.01 0 -0.01 0 -0.01 0 0zm0 0l0 0 0 0 0 0zm-0.09 -0.19l0.1 -0.07 0 0 0 0.01 0.01 0.01 0 0.01 0.01 0 0 0.01 0.01 0.01 0 0.01 0 0 0.01 0.01 0 0.01 0.01 0.01 0 0 0 0.01 0.01 0.01 0 0 0 0.01 0.01 0.01 0 0.01 0 0 0.01 0.01 0 0.01 0 0.01 0 0 0.01 0.01 0 0.01 0 0.01 0 0 0.01 0.01 0 0.01 0 0.01 0 0.01 0 0 -0.11 0.02 -0.01 0 0 -0.01 0 0 0 -0.01 0 -0.01 0 0 0 -0.01 -0.01 0 0 -0.01 0 -0.01 0 0 0 -0.01 -0.01 0 0 -0.01 0 -0.01 0 0 -0.01 -0.01 0 0 0 -0.01 0 -0.01 -0.01 0 0 -0.01 0 0 -0.01 -0.01 0 -0.01 -0.01 0 0 -0.01 0 -0.01 -0.01 0 0 -0.01 0 0 -0.01 -0.01 0 0zm0 0l0 0 -0.04 -0.07 0.04 0.07zm-0.18 -0.19l0.08 -0.09 0 0 0 0 0.01 0.01 0.01 0.01 0 0 0.01 0.01 0.01 0 0.01 0.01 0 0.01 0.01 0 0.01 0.01 0 0.01 0.01 0 0.01 0.01 0 0.01 0.01 0 0.01 0.01 0 0.01 0.01 0 0.01 0.01 0 0.01 0.01 0 0 0.01 0.01 0.01 0.01 0.01 0 0 0.01 0.01 0 0.01 0.01 0 0 0.01 0.01 0.01 0 0.01 0.01 0 -0.1 0.07 0 -0.01 -0.01 0 0 -0.01 -0.01 -0.01 0 0 -0.01 -0.01 0 -0.01 -0.01 0 0 -0.01 -0.01 0 0 -0.01 -0.01 -0.01 0 0 -0.01 -0.01 0 -0.01 -0.01 0 0 -0.01 -0.01 0 -0.01 -0.01 0 -0.01 -0.01 0 0 -0.01 -0.01 0 -0.01 -0.01 0 0 -0.01 -0.01 0 0 -0.01 -0.01 -0.01 0 0 -0.01 -0.01 -0.01 -0.01 0 0 0zm-0.56 -0.11l-0.06 -0.1 0 0 0.02 -0.02 0.02 -0.01 0.02 0 0.02 -0.01 0.03 -0.01 0.02 0 0.02 -0.01 0.02 0 0.03 0 0.02 0 0.02 0 0.03 0 0.02 0 0.02 0 0.02 0.01 0.03 0 0.02 0.01 0.02 0 0.02 0.01 0.03 0.01 0.02 0.01 0.02 0 0.02 0.01 0.02 0.01 0.02 0.02 0.03 0.01 0.02 0.01 0.02 0.01 0.02 0.02 0.02 0.01 0.02 0.01 0.02 0.02 -0.08 0.09 -0.01 -0.01 -0.02 -0.02 -0.02 -0.01 -0.02 -0.01 -0.01 -0.01 -0.02 -0.01 -0.02 -0.01 -0.02 -0.01 -0.02 -0.01 -0.02 -0.01 -0.02 -0.01 -0.01 0 -0.02 -0.01 -0.02 0 -0.02 -0.01 -0.02 0 -0.02 -0.01 -0.02 0 -0.01 0 -0.02 -0.01 -0.02 0 -0.02 0 -0.02 0 -0.01 0.01 -0.02 0 -0.02 0 -0.01 0.01 -0.02 0 -0.02 0.01 -0.01 0 -0.02 0.01 -0.01 0.01 0 0zm0 0l0 0 0.01 -0.01 -0.01 0.01z"/>
</svg>
