
<svg xmlns="http://www.w3.org/2000/svg" xml:space="preserve" width="129px" height="70px" version="1.1" style="shape-rendering:geometricPrecision; text-rendering:geometricPrecision; image-rendering:optimizeQuality; fill-rule:evenodd; clip-rule:evenodd" viewBox="0 0 19.45 10.61"  xmlns:xlink="http://www.w3.org/1999/xlink">
  <path fill="#A1B567" d="M17.25 3.7c-0.42,0 0,0 0,0zm0.05 1.17c0.43,0.12 1.08,1.04 1.08,1.22 0,0.27 0.24,0.49 0.53,0.49 0.29,0 0.53,-0.22 0.53,-0.49 0.11,-1 -1.9,-2.39 -2.19,-2.39l-2.5 0.03c-0.3,0 -2.31,1.4 -2.2,2.4 0,0.27 0.24,0.49 0.53,0.49 0.29,0 0.53,-0.22 0.53,-0.49 0,-0.16 0.52,-0.83 0.94,-1.14 -0.38,0.63 -0.76,1.66 -0.76,2.15 -0.15,1.02 0.29,3.46 0.85,3.46 1.04,0 0.95,-0.51 0.74,-1.15 -0.17,-0.49 0.31,-1.03 0.69,-1.03 0.32,0 0.49,0.27 0.59,0.78 0.1,0.54 -0.76,1.47 0.68,1.34 0.98,-0.36 0.89,-2.95 0.89,-3.47 0,-0.52 -0.37,-1.62 -0.93,-2.2zm-2.55 -1.14c0,0 0,0 0,0z"/>
  <path fill="none" fill-rule="nonzero" stroke="#2B2A29" stroke-width="0.14" stroke-miterlimit="22.9256" d="M17.25 3.7c-0.42,0 0,0 0,0zm0.05 1.17c0.43,0.12 1.08,1.04 1.08,1.22 0,0.27 0.24,0.49 0.53,0.49 0.29,0 0.53,-0.22 0.53,-0.49 0.11,-1 -1.9,-2.39 -2.19,-2.39l-2.5 0.03c-0.3,0 -2.31,1.4 -2.2,2.4 0,0.27 0.24,0.49 0.53,0.49 0.29,0 0.53,-0.22 0.53,-0.49 0,-0.16 0.52,-0.83 0.94,-1.14 -0.38,0.63 -0.76,1.66 -0.76,2.15 -0.15,1.02 0.29,3.46 0.85,3.46 1.04,0 0.95,-0.51 0.74,-1.15 -0.17,-0.49 0.31,-1.03 0.69,-1.03 0.32,0 0.49,0.27 0.59,0.78 0.1,0.54 -0.76,1.47 0.68,1.34 0.98,-0.36 0.89,-2.95 0.89,-3.47 0,-0.52 -0.37,-1.62 -0.93,-2.2zm-2.55 -1.14c0,0 0,0 0,0z"/>
  <path fill="#F08BB2" d="M13.9 6.5c1.49,0.23 3.19,0.28 4.2,-0.14 0.08,0.28 0.13,0.53 0.13,0.71 0,0.3 0.03,1.28 -0.13,2.13 -0.38,0.08 -0.87,0.03 -1.47,-0.15 -0.1,-0.41 -0.28,-0.63 -0.56,-0.63 -0.26,0 -0.58,0.27 -0.69,0.6 -0.52,0.1 -1.01,0.14 -1.45,0.11 -0.15,-0.71 -0.21,-1.51 -0.14,-1.99 0,-0.16 0.04,-0.39 0.11,-0.64z"/>
  <path fill="none" fill-rule="nonzero" stroke="#2B2A29" stroke-width="0.14" stroke-miterlimit="22.9256" d="M13.9 6.5c1.49,0.23 3.19,0.28 4.2,-0.14 0.08,0.28 0.13,0.53 0.13,0.71 0,0.3 0.03,1.28 -0.13,2.13 -0.38,0.08 -0.87,0.03 -1.47,-0.15 -0.1,-0.41 -0.28,-0.63 -0.56,-0.63 -0.26,0 -0.58,0.27 -0.69,0.6 -0.52,0.1 -1.01,0.14 -1.45,0.11 -0.15,-0.71 -0.21,-1.51 -0.14,-1.99 0,-0.16 0.04,-0.39 0.11,-0.64z"/>
  <path fill="#F5B2B6" d="M13.9 6.5c1.49,0.23 3.19,0.28 4.2,-0.14 0.08,0.26 0.12,0.5 0.13,0.68 -1.52,0.25 -3.01,0.28 -4.44,0.02 0.01,-0.16 0.05,-0.35 0.11,-0.56z"/>
  <path fill="none" fill-rule="nonzero" stroke="#2B2A29" stroke-width="0.14" stroke-miterlimit="22.9256" d="M13.9 6.5c1.49,0.23 3.19,0.28 4.2,-0.14 0.08,0.26 0.12,0.5 0.13,0.68 -1.52,0.25 -3.01,0.28 -4.44,0.02 0.01,-0.16 0.05,-0.35 0.11,-0.56z"/>
  <path fill="#A1B567" d="M15.98 0.31c0.69,0 1.39,0.51 1.72,1.29 0.07,0.15 0.39,0.41 0.4,0.99 0.01,0.57 -0.37,1.02 -1.02,1.14 -0.32,0.07 -0.66,0.1 -1.03,0.1 -0.44,0 -0.8,0 -1.24,-0.08 -0.63,-0.12 -0.99,-0.59 -0.99,-1.2 0,-0.62 0.35,-0.93 0.54,-1.24 0.21,-0.59 0.94,-1 1.62,-1z"/>
  <path fill="none" fill-rule="nonzero" stroke="#2B2A29" stroke-width="0.14" stroke-miterlimit="22.9256" d="M15.98 0.31c0.69,0 1.39,0.51 1.72,1.29 0.07,0.15 0.39,0.41 0.4,0.99 0.01,0.57 -0.37,1.02 -1.02,1.14 -0.32,0.07 -0.66,0.1 -1.03,0.1 -0.44,0 -0.8,0 -1.24,-0.08 -0.63,-0.12 -0.99,-0.59 -0.99,-1.2 0,-0.62 0.35,-0.93 0.54,-1.24 0.21,-0.59 0.94,-1 1.62,-1z"/>
  <path fill="#2B2A29" d="M15.94 2.1c0.22,0 0.4,0.08 0.48,0.19 -0.28,0.13 -0.33,0.41 -0.48,0.42 -0.17,0 -0.24,-0.24 -0.5,-0.4 0.07,-0.12 0.27,-0.21 0.5,-0.21z"/>
  <path fill="#2B2A29" fill-rule="nonzero" d="M15.94 2.08c0.11,0 0.21,0.02 0.3,0.05 0.09,0.03 0.16,0.08 0.2,0.14l0.02 0.03 -0.03 0.01c-0.14,0.07 -0.23,0.18 -0.29,0.27 -0.07,0.08 -0.12,0.15 -0.2,0.15 -0.11,0 -0.17,-0.07 -0.26,-0.17 -0.07,-0.08 -0.14,-0.16 -0.25,-0.23l-0.02 -0.01 0.01 -0.02c0.04,-0.07 0.11,-0.13 0.2,-0.16 0.09,-0.04 0.2,-0.06 0.32,-0.06zm0.28 0.09c-0.08,-0.03 -0.18,-0.05 -0.28,-0.05 -0.11,0 -0.21,0.02 -0.3,0.06 -0.07,0.03 -0.13,0.07 -0.16,0.12 0.1,0.07 0.17,0.15 0.24,0.22 0.07,0.09 0.14,0.16 0.22,0.16 0.06,0 0.1,-0.06 0.16,-0.13 0.06,-0.09 0.14,-0.2 0.28,-0.27 -0.03,-0.04 -0.09,-0.08 -0.16,-0.11z"/>
  <path fill="#2B2A29" fill-rule="nonzero" d="M14.88 2.68c0.07,0.18 0.16,0.32 0.28,0.42 0.11,0.09 0.24,0.15 0.4,0.15 0.06,0 0.13,-0.01 0.2,-0.03 0.05,-0.02 0.09,-0.05 0.12,-0.09 0.02,-0.05 0.02,-0.12 0.03,-0.2 0,-0.08 -0.01,-0.16 -0.01,-0.22l0.04 -0.01c0.01,0.07 0.01,0.15 0.01,0.23 0,0.09 -0.01,0.17 -0.03,0.22l0 0.01 0 0c-0.04,0.05 -0.09,0.08 -0.15,0.11 -0.06,0.02 -0.14,0.03 -0.21,0.03 -0.17,-0.01 -0.31,-0.06 -0.43,-0.16 -0.12,-0.11 -0.22,-0.25 -0.3,-0.44l0.05 -0.02z"/>
  <path fill="#2B2A29" fill-rule="nonzero" d="M14.9 2.67c0.03,0.09 0.08,0.17 0.12,0.24 0.05,0.07 0.1,0.12 0.15,0.17 0.06,0.05 0.12,0.08 0.18,0.11 0.07,0.02 0.14,0.03 0.21,0.04 0.03,0 0.06,0 0.1,-0.01 0.03,0 0.06,-0.01 0.09,-0.02 0.02,-0.01 0.04,-0.02 0.06,-0.04 0.02,-0.01 0.03,-0.02 0.05,-0.04 0,-0.02 0.01,-0.05 0.01,-0.08 0.01,-0.03 0.01,-0.07 0.01,-0.11 0,-0.04 0,-0.08 0,-0.11 0,-0.04 -0.01,-0.08 -0.01,-0.11l0 -0.03 0.1 0 0 0.02c0,0.03 0,0.07 0.01,0.11 0,0.04 0,0.08 0,0.12 0,0.05 0,0.09 -0.01,0.13 -0.01,0.04 -0.01,0.07 -0.03,0.1l0 0.01 0 0c-0.02,0.03 -0.04,0.05 -0.07,0.07 -0.02,0.02 -0.06,0.04 -0.09,0.05 -0.03,0.01 -0.07,0.02 -0.11,0.03 -0.04,0 -0.08,0 -0.11,0 -0.09,0 -0.17,-0.02 -0.24,-0.04 -0.08,-0.03 -0.15,-0.07 -0.21,-0.12 -0.06,-0.06 -0.12,-0.12 -0.17,-0.2 -0.05,-0.07 -0.09,-0.16 -0.13,-0.25l-0.01 -0.03 0.09 -0.03 0.01 0.02zm0.01 0.13c-0.02,-0.03 -0.03,-0.06 -0.05,-0.09 0.02,0.03 0.03,0.06 0.05,0.09zm0.65 0.47l0 0 0 0zm0.21 -0.03l0 0 0 0zm0.13 -0.1l0 0c0.01,-0.01 0.01,-0.03 0.01,-0.05 0,0.02 0,0.04 -0.01,0.05zm0.03 -0.33c0,0.03 0,0.06 0,0.09 0,-0.03 0,-0.06 0,-0.09 0,-0.03 -0.01,-0.05 -0.01,-0.08 0,0.02 0.01,0.05 0.01,0.08zm0 0.11l0 0.01 0 -0.01z"/>
  <path fill="#2B2A29" fill-rule="nonzero" d="M14.71 2.88c0.01,-0.08 0.05,-0.15 0.1,-0.2 0.04,-0.06 0.11,-0.1 0.19,-0.12l0.02 0.04c-0.08,0.03 -0.14,0.06 -0.18,0.11 -0.04,0.05 -0.07,0.1 -0.08,0.18l-0.05 -0.01z"/>
  <path fill="#2B2A29" fill-rule="nonzero" d="M14.69 2.87c0,-0.04 0.02,-0.08 0.03,-0.11 0.02,-0.04 0.04,-0.07 0.07,-0.1 0.02,-0.03 0.05,-0.05 0.09,-0.07 0.03,-0.03 0.07,-0.04 0.12,-0.06l0.02 0 0.03 0.09 -0.02 0.01c-0.04,0.01 -0.07,0.02 -0.1,0.04 -0.03,0.01 -0.05,0.03 -0.07,0.05 -0.02,0.03 -0.04,0.05 -0.05,0.08 -0.01,0.03 -0.02,0.06 -0.03,0.09l0 0.02 -0.1 -0.01 0.01 -0.03zm0.13 -0.18c0,0.01 -0.01,0.02 -0.02,0.03 0.01,-0.01 0.02,-0.02 0.02,-0.03zm0.02 -0.02c0,0.01 -0.01,0.02 -0.02,0.02 0.01,0 0.02,-0.01 0.02,-0.02z"/>
  <path fill="#2B2A29" fill-rule="nonzero" d="M17.01 2.71c-0.08,0.19 -0.17,0.34 -0.3,0.44 -0.12,0.1 -0.26,0.16 -0.43,0.16 -0.07,0.01 -0.15,0 -0.21,-0.03 -0.06,-0.02 -0.11,-0.06 -0.15,-0.11l0 0 0 0c-0.02,-0.06 -0.03,-0.14 -0.03,-0.22 0,-0.08 0,-0.17 0.01,-0.23l0.05 0c-0.01,0.07 -0.02,0.15 -0.01,0.23 0,0.07 0,0.15 0.02,0.2 0.03,0.04 0.07,0.07 0.13,0.08 0.06,0.03 0.13,0.04 0.19,0.03 0.16,0 0.29,-0.05 0.4,-0.15 0.12,-0.09 0.21,-0.23 0.28,-0.42l0.05 0.02z"/>
  <path fill="#2B2A29" fill-rule="nonzero" d="M17.03 2.72c-0.04,0.1 -0.08,0.18 -0.13,0.26 -0.05,0.07 -0.11,0.14 -0.17,0.19 -0.06,0.05 -0.13,0.09 -0.21,0.12 -0.07,0.03 -0.15,0.04 -0.23,0.05 -0.04,0 -0.08,0 -0.12,-0.01 -0.04,0 -0.08,-0.01 -0.11,-0.03 -0.03,-0.01 -0.06,-0.03 -0.09,-0.05 -0.03,-0.01 -0.05,-0.04 -0.07,-0.06l0 -0.01 0 0c-0.02,-0.03 -0.02,-0.07 -0.03,-0.11 0,-0.04 -0.01,-0.08 -0.01,-0.12 0,-0.04 0,-0.09 0.01,-0.13 0,-0.04 0,-0.07 0,-0.1l0 -0.03 0.1 0.01 0 0.02c0,0.04 -0.01,0.07 -0.01,0.11 0,0.04 0,0.08 0,0.12 0,0.03 0,0.07 0.01,0.1 0,0.03 0.01,0.06 0.01,0.09 0.02,0.01 0.03,0.03 0.05,0.04 0.02,0.01 0.04,0.02 0.06,0.03 0.03,0.01 0.06,0.02 0.09,0.02 0.04,0.01 0.07,0.01 0.1,0.01 0.08,0 0.14,-0.02 0.21,-0.04 0.06,-0.02 0.12,-0.06 0.18,-0.1 0.05,-0.05 0.1,-0.11 0.15,-0.18 0.04,-0.07 0.09,-0.14 0.12,-0.23l0.01 -0.03 0.09 0.04 -0.01 0.02zm-0.09 0.1c0.01,-0.03 0.02,-0.06 0.04,-0.09 -0.02,0.03 -0.03,0.06 -0.04,0.09zm-0.66 0.47l0 0 0 0zm-0.28 -0.07l0 0 0 0zm-0.07 -0.08l0.01 0.02 -0.01 -0.02zm-0.02 -0.31l0 0.04 0 -0.04c0.01,-0.03 0.01,-0.06 0.01,-0.09 0,0.03 0,0.06 -0.01,0.09zm0.09 0.39l0 -0.01 0 0.01z"/>
  <path fill="#2B2A29" fill-rule="nonzero" d="M17.05 2.9c-0.01,-0.07 -0.04,-0.13 -0.08,-0.18 -0.04,-0.04 -0.1,-0.08 -0.18,-0.1l0.02 -0.05c0.08,0.03 0.15,0.07 0.2,0.12 0.05,0.05 0.08,0.12 0.09,0.2l-0.05 0.01z"/>
  <path fill="#2B2A29" fill-rule="nonzero" d="M17.03 2.9c-0.01,-0.03 -0.02,-0.06 -0.03,-0.09 -0.01,-0.02 -0.03,-0.05 -0.05,-0.07 -0.02,-0.02 -0.04,-0.04 -0.07,-0.06 -0.03,-0.01 -0.06,-0.03 -0.09,-0.04l-0.03 -0.01 0.03 -0.09 0.03 0.01c0.04,0.01 0.08,0.03 0.11,0.05 0.04,0.02 0.07,0.05 0.09,0.07 0.03,0.03 0.05,0.07 0.07,0.1 0.02,0.04 0.03,0.08 0.04,0.12l0 0.02 -0.1 0.02 0 -0.03zm-0.04 -0.19c0.01,0 0.01,0.01 0.02,0.02 -0.01,-0.01 -0.01,-0.02 -0.02,-0.02zm-0.02 -0.02c0.01,0 0.01,0.01 0.02,0.02 -0.01,-0.01 -0.01,-0.02 -0.02,-0.02z"/>
  <path fill="#A1B567" d="M14.15 0c0.4,0 0.73,0.25 0.84,0.59 -0.29,0.18 -0.53,0.43 -0.63,0.72 -0.09,0.15 -0.22,0.29 -0.33,0.47 -0.38,0.02 -0.87,-0.14 -0.84,-0.9 0.03,-0.56 0.47,-0.88 0.96,-0.88z"/>
  <path fill="none" fill-rule="nonzero" stroke="#2B2A29" stroke-width="0.14" stroke-miterlimit="22.9256" d="M14.15 0c0.4,0 0.73,0.25 0.84,0.59 -0.29,0.18 -0.53,0.43 -0.63,0.72 -0.09,0.15 -0.22,0.29 -0.33,0.47 -0.38,0.02 -0.87,-0.14 -0.84,-0.9 0.03,-0.56 0.47,-0.88 0.96,-0.88z"/>
  <path fill="#A1B567" d="M17.72 0.01c-0.39,0 -0.73,0.25 -0.84,0.59 0.22,0.13 0.41,0.3 0.54,0.51 0.09,0.13 0.18,0.27 0.25,0.42 0.05,0.08 0.11,0.16 0.17,0.25 0.38,0.02 0.87,-0.13 0.84,-0.89 -0.03,-0.56 -0.47,-0.88 -0.96,-0.88z"/>
  <path fill="none" fill-rule="nonzero" stroke="#2B2A29" stroke-width="0.14" stroke-miterlimit="22.9256" d="M17.72 0.01c-0.39,0 -0.73,0.25 -0.84,0.59 0.22,0.13 0.41,0.3 0.54,0.51 0.09,0.13 0.18,0.27 0.25,0.42 0.05,0.08 0.11,0.16 0.17,0.25 0.38,0.02 0.87,-0.13 0.84,-0.89 -0.03,-0.56 -0.47,-0.88 -0.96,-0.88z"/>
  <path fill="#2B2A29" d="M15.6 1.33c0.08,0 0.12,0.1 0.11,0.23 -0.01,0.12 0,0.2 -0.16,0.22 -0.15,0.02 -0.17,-0.09 -0.16,-0.21 0.02,-0.13 0.14,-0.24 0.21,-0.24z"/>
  <path fill="#2B2A29" fill-rule="nonzero" d="M15.6 1.31l0.02 0c0.03,0 0.07,0.03 0.09,0.06 0.02,0.04 0.03,0.09 0.03,0.14 0,0.02 0,0.03 -0.01,0.05l0 0.04c-0.01,0.11 -0.02,0.18 -0.18,0.21 -0.09,0.01 -0.14,-0.02 -0.16,-0.07 -0.03,-0.05 -0.03,-0.11 -0.02,-0.18 0,-0.06 0.04,-0.12 0.08,-0.17 0.05,-0.05 0.11,-0.08 0.15,-0.08zm0.01 0.04l-0.01 0c-0.03,0 -0.08,0.03 -0.12,0.08 -0.03,0.04 -0.06,0.09 -0.07,0.14 0,0.06 0,0.11 0.02,0.15 0.02,0.03 0.05,0.05 0.12,0.04 0.12,-0.02 0.12,-0.08 0.13,-0.17l0.01 -0.04c0,-0.01 0,-0.03 0,-0.04 0,-0.04 -0.01,-0.08 -0.03,-0.11 -0.01,-0.03 -0.03,-0.04 -0.05,-0.05z"/>
  <path fill="#2B2A29" d="M16.28 1.33c-0.07,0 -0.12,0.1 -0.1,0.23 0.01,0.12 0,0.2 0.16,0.22 0.15,0.02 0.17,-0.09 0.16,-0.21 -0.02,-0.13 -0.14,-0.24 -0.22,-0.24z"/>
  <path fill="#2B2A29" fill-rule="nonzero" d="M16.28 1.36l0 0c-0.02,0 -0.04,0.01 -0.06,0.04 -0.01,0.03 -0.02,0.07 -0.02,0.11 0,0.02 0,0.03 0,0.04l0.01 0.04c0.01,0.09 0.01,0.15 0.13,0.17 0.07,0.01 0.1,-0.01 0.12,-0.04 0.02,-0.04 0.02,-0.09 0.01,-0.15 0,-0.05 -0.03,-0.1 -0.07,-0.14 -0.04,-0.05 -0.08,-0.07 -0.12,-0.07zm-0.01 -0.05l0.01 0c0.05,0 0.11,0.03 0.16,0.09 0.04,0.04 0.07,0.1 0.08,0.16 0.01,0.07 0.01,0.14 -0.02,0.18 -0.02,0.05 -0.08,0.08 -0.17,0.07 -0.15,-0.03 -0.16,-0.1 -0.17,-0.21l-0.01 -0.04c0,-0.02 0,-0.03 0,-0.05 0,-0.05 0.01,-0.1 0.03,-0.13 0.02,-0.04 0.05,-0.07 0.09,-0.07z"/>
  <path fill="#C4D985" d="M14.18 0.72c0.18,0 0.32,0.12 0.38,0.24 -0.09,0.11 -0.16,0.23 -0.2,0.35 -0.04,0.06 -0.08,0.11 -0.12,0.17 -0.01,0 0.09,0 -0.02,0 -0.11,0 -0.41,-0.19 -0.41,-0.39 0,-0.21 0.2,-0.37 0.37,-0.37z"/>
  <path fill="none" fill-rule="nonzero" stroke="#2B2A29" stroke-width="0.14" stroke-miterlimit="22.9256" d="M14.18 0.72c0.18,0 0.32,0.12 0.38,0.24 -0.09,0.11 -0.16,0.23 -0.2,0.35 -0.04,0.06 -0.08,0.11 -0.12,0.17 -0.01,0 0.09,0 -0.02,0 -0.11,0 -0.41,-0.19 -0.41,-0.39 0,-0.21 0.2,-0.37 0.37,-0.37z"/>
  <path fill="#C4D985" d="M17.69 0.73c-0.18,0 -0.32,0.11 -0.37,0.24 0.03,0.04 0.07,0.09 0.1,0.14 0.08,0.11 0.16,0.24 0.23,0.38l0 0c0.11,0 0.41,-0.2 0.41,-0.4 0,-0.2 -0.19,-0.36 -0.37,-0.36z"/>
  <path fill="none" fill-rule="nonzero" stroke="#2B2A29" stroke-width="0.14" stroke-miterlimit="22.9256" d="M17.69 0.73c-0.18,0 -0.32,0.11 -0.37,0.24 0.03,0.04 0.07,0.09 0.1,0.14 0.08,0.11 0.16,0.24 0.23,0.38l0 0c0.11,0 0.41,-0.2 0.41,-0.4 0,-0.2 -0.19,-0.36 -0.37,-0.36z"/>
  <path fill="#F08BB2" d="M15.42 4.05c0.19,0 0.54,0.19 0.54,0.42 0,0.23 -0.47,0.43 -0.66,0.43 -0.2,0 -0.3,-0.18 -0.23,-0.44 0.08,-0.25 0.16,-0.41 0.35,-0.41zm1.14 -0.01c-0.19,0 -0.54,0.19 -0.54,0.42 0,0.23 0.47,0.43 0.67,0.43 0.19,0 0.3,-0.18 0.22,-0.44 -0.08,-0.26 -0.16,-0.41 -0.35,-0.41z"/>
  <path fill="none" fill-rule="nonzero" stroke="#2B2A29" stroke-width="0.14" stroke-miterlimit="22.9256" d="M15.42 4.05c0.19,0 0.54,0.19 0.54,0.42 0,0.23 -0.47,0.43 -0.66,0.43 -0.2,0 -0.3,-0.18 -0.23,-0.44 0.08,-0.25 0.16,-0.41 0.35,-0.41zm1.14 -0.01c-0.19,0 -0.54,0.19 -0.54,0.42 0,0.23 0.47,0.43 0.67,0.43 0.19,0 0.3,-0.18 0.22,-0.44 -0.08,-0.26 -0.16,-0.41 -0.35,-0.41z"/>
  <path fill="#FEFEFE" d="M15.55 1.41c0.03,0 0.05,0.02 0.05,0.04 0,0.02 -0.02,0.04 -0.05,0.04 -0.02,0 -0.04,-0.02 -0.04,-0.04 0,-0.02 0.02,-0.04 0.04,-0.04z"/>
  <path fill="#FEFEFE" d="M16.26 1.4c0.03,0 0.05,0.02 0.05,0.04 0,0.03 -0.02,0.04 -0.05,0.04 -0.02,0 -0.04,-0.01 -0.04,-0.04 0,-0.02 0.02,-0.04 0.04,-0.04z"/>
  <path fill="#F08BB2" d="M15.91 4.16l0.18 0c0.07,0 0.12,0.05 0.12,0.12l0.05 0.35c0.01,0.07 -0.05,0.12 -0.12,0.12l-0.28 0c-0.07,0 -0.13,-0.05 -0.12,-0.12l0.05 -0.35c0.01,-0.07 0.05,-0.12 0.12,-0.12z"/>
  <path fill="none" fill-rule="nonzero" stroke="#2B2A29" stroke-width="0.14" stroke-miterlimit="22.9256" d="M15.91 4.16l0.18 0c0.07,0 0.12,0.05 0.12,0.12l0.05 0.35c0.01,0.07 -0.05,0.12 -0.12,0.12l-0.28 0c-0.07,0 -0.13,-0.05 -0.12,-0.12l0.05 -0.35c0.01,-0.07 0.05,-0.12 0.12,-0.12z"/>
  <path fill="#F5B2B6" d="M7.14 4.89c-0.5,0 0,0 0,0zm0.07 1.43c0.52,0.14 1.31,1.26 1.31,1.48 0,0.33 0.29,0.6 0.65,0.6 0.35,0 0.64,-0.27 0.64,-0.6 0.14,-1.21 -2.31,-2.91 -2.67,-2.91l-3.04 0.05c-0.35,0 -2.81,1.69 -2.67,2.9 0,0.33 0.29,0.6 0.65,0.6 0.35,0 0.64,-0.27 0.64,-0.6 0,-0.18 0.63,-1.01 1.14,-1.37 -0.46,0.76 -1.04,2.01 -1.04,2.61 0,0.59 0.8,1.29 1.48,1.29 1.1,0 1.32,-0.11 1.47,-0.12 0.18,0 0.25,0.11 1.52,0.11 0.8,0 1.34,-0.74 1.34,-1.37 0,-0.63 -0.74,-1.97 -1.42,-2.67zm-3.11 -1.38c0,0 0,0 0,0z"/>
  <path fill="none" fill-rule="nonzero" stroke="#2B2A29" stroke-width="0.14" stroke-miterlimit="22.9256" d="M7.14 4.89c-0.5,0 0,0 0,0zm0.07 1.43c0.52,0.14 1.31,1.26 1.31,1.48 0,0.33 0.29,0.6 0.65,0.6 0.35,0 0.64,-0.27 0.64,-0.6 0.14,-1.21 -2.31,-2.91 -2.67,-2.91l-3.04 0.05c-0.35,0 -2.81,1.69 -2.67,2.9 0,0.33 0.29,0.6 0.65,0.6 0.35,0 0.64,-0.27 0.64,-0.6 0,-0.18 0.63,-1.01 1.14,-1.37 -0.46,0.76 -1.04,2.01 -1.04,2.61 0,0.59 0.8,1.29 1.48,1.29 1.1,0 1.32,-0.11 1.47,-0.12 0.18,0 0.25,0.11 1.52,0.11 0.8,0 1.34,-0.74 1.34,-1.37 0,-0.63 -0.74,-1.97 -1.42,-2.67zm-3.11 -1.38c0,0 0,0 0,0z"/>
  <path fill="#F5B2B6" d="M6.85 7.61c0.61,0.02 1.22,0.59 1.22,1.35 0,0.76 -0.2,1.18 -0.74,1.31 -0.54,0.13 -1.47,-0.51 -1.5,-1.29 -0.04,-0.78 0.24,-1.25 1.02,-1.37z"/>
  <path fill="none" fill-rule="nonzero" stroke="#2B2A29" stroke-width="0.14" stroke-miterlimit="22.9256" d="M6.85 7.61c0.61,0.02 1.22,0.59 1.22,1.35 0,0.76 -0.2,1.18 -0.74,1.31 -0.54,0.13 -1.47,-0.51 -1.5,-1.29 -0.04,-0.78 0.24,-1.25 1.02,-1.37z"/>
  <path fill="#F5B2B6" d="M5.12 7.82c-0.59,-0.17 -1.35,0.17 -1.59,0.89 -0.25,0.72 -0.19,1.18 0.28,1.48 0.46,0.3 1.55,-0.01 1.83,-0.74 0.29,-0.73 0.17,-1.26 -0.52,-1.63z"/>
  <path fill="none" fill-rule="nonzero" stroke="#2B2A29" stroke-width="0.14" stroke-miterlimit="22.9256" d="M5.12 7.82c-0.59,-0.17 -1.35,0.17 -1.59,0.89 -0.25,0.72 -0.19,1.18 0.28,1.48 0.46,0.3 1.55,-0.01 1.83,-0.74 0.29,-0.73 0.17,-1.26 -0.52,-1.63z"/>
  <path fill="#F5B2B6" d="M7.57 0.68c-0.66,0.02 -0.69,0.23 -0.79,0.55 0.27,0.16 0.49,0.4 0.59,0.67 0.09,0.14 0.21,0.27 0.31,0.44 0.33,-1.16 2.13,3.44 3.1,2.59 -0.02,-0.53 -1.89,-4.21 -3.21,-4.25z"/>
  <path fill="none" fill-rule="nonzero" stroke="#2B2A29" stroke-width="0.14" stroke-miterlimit="22.9256" d="M7.57 0.68c-0.66,0.02 -0.69,0.23 -0.79,0.55 0.27,0.16 0.49,0.4 0.59,0.67 0.09,0.14 0.21,0.27 0.31,0.44 0.33,-1.16 2.13,3.44 3.1,2.59 -0.02,-0.53 -1.89,-4.21 -3.21,-4.25z"/>
  <path fill="#FEFEFE" d="M7.54 1.2c-0.57,0.05 -0.41,0.31 -0.35,0.37 0.17,0.29 0.13,0.3 0.31,0.49 0.08,-0.14 0.29,-0.24 0.47,-0.14 0.74,0.42 2.03,2.59 2.21,2.46 0.22,-0.16 -1.86,-3.37 -2.64,-3.18z"/>
  <path fill="none" fill-rule="nonzero" stroke="#2B2A29" stroke-width="0.14" stroke-miterlimit="22.9256" d="M7.54 1.2c-0.57,0.05 -0.41,0.31 -0.35,0.37 0.17,0.29 0.13,0.3 0.31,0.49 0.08,-0.14 0.29,-0.24 0.47,-0.14 0.74,0.42 2.03,2.59 2.21,2.46 0.22,-0.16 -1.86,-3.37 -2.64,-3.18z"/>
  <path fill="#2B2A29" fill-rule="nonzero" d="M4.05 3.94c0.01,-0.09 0.05,-0.17 0.11,-0.24 0.06,-0.06 0.13,-0.11 0.23,-0.14l0.02 0.06c-0.09,0.03 -0.16,0.07 -0.21,0.12 -0.05,0.06 -0.08,0.13 -0.1,0.21l-0.05 -0.01z"/>
  <path fill="none" fill-rule="nonzero" stroke="#2B2A29" stroke-width="0.14" stroke-miterlimit="22.9256" d="M4.05 3.94c0.01,-0.09 0.05,-0.17 0.11,-0.24 0.06,-0.06 0.13,-0.11 0.23,-0.14l0.02 0.06c-0.09,0.03 -0.16,0.07 -0.21,0.12 -0.05,0.06 -0.08,0.13 -0.1,0.21l-0.05 -0.01z"/>
  <path fill="#F5B2B6" d="M3.51 0.58c0.72,0.02 0.75,0.25 0.87,0.6 -0.3,0.18 -0.54,0.43 -0.65,0.74 -0.1,0.14 -0.22,0.29 -0.33,0.47 -0.37,-1.26 -2.33,3.77 -3.4,2.83 0.03,-0.57 2.07,-4.6 3.51,-4.64z"/>
  <path fill="none" fill-rule="nonzero" stroke="#2B2A29" stroke-width="0.14" stroke-miterlimit="22.9256" d="M3.51 0.58c0.72,0.02 0.75,0.25 0.87,0.6 -0.3,0.18 -0.54,0.43 -0.65,0.74 -0.1,0.14 -0.22,0.29 -0.33,0.47 -0.37,-1.26 -2.33,3.77 -3.4,2.83 0.03,-0.57 2.07,-4.6 3.51,-4.64z"/>
  <path fill="#FEFEFE" d="M3.54 1.15c0.63,0.06 0.45,0.34 0.39,0.41 -0.19,0.31 -0.14,0.32 -0.34,0.53 -0.09,-0.15 -0.32,-0.26 -0.51,-0.16 -0.81,0.46 -2.22,2.83 -2.42,2.69 -0.24,-0.18 2.04,-3.68 2.88,-3.47z"/>
  <path fill="none" fill-rule="nonzero" stroke="#2B2A29" stroke-width="0.14" stroke-miterlimit="22.9256" d="M3.54 1.15c0.63,0.06 0.45,0.34 0.39,0.41 -0.19,0.31 -0.14,0.32 -0.34,0.53 -0.09,-0.15 -0.32,-0.26 -0.51,-0.16 -0.81,0.46 -2.22,2.83 -2.42,2.69 -0.24,-0.18 2.04,-3.68 2.88,-3.47z"/>
  <path fill="#F5B2B6" d="M5.61 0.77c0.84,0 1.68,0.63 2.08,1.57 0.08,0.19 0.47,0.49 0.49,1.2 0.01,0.7 -0.45,1.24 -1.24,1.39 -0.39,0.08 -0.8,0.12 -1.26,0.12 -0.53,0 -0.97,0.01 -1.5,-0.1 -0.77,-0.14 -1.21,-0.71 -1.21,-1.46 0,-0.75 0.43,-1.13 0.66,-1.5 0.26,-0.72 1.14,-1.22 1.98,-1.22z"/>
  <path fill="none" fill-rule="nonzero" stroke="#2B2A29" stroke-width="0.14" stroke-miterlimit="22.9256" d="M5.61 0.77c0.84,0 1.68,0.63 2.08,1.57 0.08,0.19 0.47,0.49 0.49,1.2 0.01,0.7 -0.45,1.24 -1.24,1.39 -0.39,0.08 -0.8,0.12 -1.26,0.12 -0.53,0 -0.97,0.01 -1.5,-0.1 -0.77,-0.14 -1.21,-0.71 -1.21,-1.46 0,-0.75 0.43,-1.13 0.66,-1.5 0.26,-0.72 1.14,-1.22 1.98,-1.22z"/>
  <path fill="#2B2A29" d="M5.55 2.95c0.27,0 0.5,0.09 0.59,0.23 -0.35,0.16 -0.41,0.5 -0.59,0.5 -0.2,0.01 -0.29,-0.28 -0.6,-0.48 0.08,-0.15 0.32,-0.25 0.6,-0.25z"/>
  <path fill="none" fill-rule="nonzero" stroke="#2B2A29" stroke-width="0.14" stroke-miterlimit="22.9256" d="M5.55 2.95c0.27,0 0.5,0.09 0.59,0.23 -0.35,0.16 -0.41,0.5 -0.59,0.5 -0.2,0.01 -0.29,-0.28 -0.6,-0.48 0.08,-0.15 0.32,-0.25 0.6,-0.25z"/>
  <path fill="#2B2A29" fill-rule="nonzero" d="M4.26 3.65c0.09,0.22 0.2,0.4 0.34,0.51 0.14,0.12 0.3,0.18 0.49,0.19 0.08,0 0.17,-0.01 0.24,-0.04 0.06,-0.02 0.11,-0.06 0.15,-0.11 0.02,-0.06 0.03,-0.15 0.03,-0.24 0,-0.1 0,-0.2 -0.01,-0.27l0.06 -0.01c0,0.08 0.01,0.18 0.01,0.28 0,0.1 -0.01,0.2 -0.04,0.27l0 0 0 0c-0.04,0.06 -0.11,0.11 -0.18,0.14 -0.08,0.03 -0.17,0.04 -0.26,0.04 -0.2,-0.01 -0.38,-0.08 -0.52,-0.2 -0.15,-0.13 -0.27,-0.31 -0.36,-0.54l0.05 -0.02z"/>
  <path fill="none" fill-rule="nonzero" stroke="#2B2A29" stroke-width="0.14" stroke-miterlimit="22.9256" d="M4.26 3.65c0.09,0.22 0.2,0.4 0.34,0.51 0.14,0.12 0.3,0.18 0.49,0.19 0.08,0 0.17,-0.01 0.24,-0.04 0.06,-0.02 0.11,-0.06 0.15,-0.11 0.02,-0.06 0.03,-0.15 0.03,-0.24 0,-0.1 0,-0.2 -0.01,-0.27l0.06 -0.01c0,0.08 0.01,0.18 0.01,0.28 0,0.1 -0.01,0.2 -0.04,0.27l0 0 0 0c-0.04,0.06 -0.11,0.11 -0.18,0.14 -0.08,0.03 -0.17,0.04 -0.26,0.04 -0.2,-0.01 -0.38,-0.08 -0.52,-0.2 -0.15,-0.13 -0.27,-0.31 -0.36,-0.54l0.05 -0.02z"/>
  <path fill="#2B2A29" fill-rule="nonzero" d="M6.85 3.69c-0.09,0.23 -0.21,0.41 -0.36,0.54 -0.14,0.12 -0.32,0.19 -0.52,0.19 -0.08,0.01 -0.18,-0.01 -0.26,-0.04 -0.07,-0.02 -0.14,-0.07 -0.18,-0.13l0 0 0 0c-0.03,-0.07 -0.04,-0.17 -0.04,-0.27 0,-0.1 0.01,-0.2 0.01,-0.28l0.06 0c-0.01,0.08 -0.01,0.18 -0.01,0.28 0,0.09 0.01,0.18 0.03,0.24 0.04,0.05 0.09,0.08 0.15,0.11 0.08,0.03 0.16,0.04 0.24,0.03 0.19,0 0.35,-0.06 0.49,-0.18 0.14,-0.12 0.25,-0.29 0.34,-0.51l0.05 0.02z"/>
  <path fill="none" fill-rule="nonzero" stroke="#2B2A29" stroke-width="0.14" stroke-miterlimit="22.9256" d="M6.85 3.69c-0.09,0.23 -0.21,0.41 -0.36,0.54 -0.14,0.12 -0.32,0.19 -0.52,0.19 -0.08,0.01 -0.18,-0.01 -0.26,-0.04 -0.07,-0.02 -0.14,-0.07 -0.18,-0.13l0 0 0 0c-0.03,-0.07 -0.04,-0.17 -0.04,-0.27 0,-0.1 0.01,-0.2 0.01,-0.28l0.06 0c-0.01,0.08 -0.01,0.18 -0.01,0.28 0,0.09 0.01,0.18 0.03,0.24 0.04,0.05 0.09,0.08 0.15,0.11 0.08,0.03 0.16,0.04 0.24,0.03 0.19,0 0.35,-0.06 0.49,-0.18 0.14,-0.12 0.25,-0.29 0.34,-0.51l0.05 0.02z"/>
  <path fill="#2B2A29" fill-rule="nonzero" d="M6.91 3.92c-0.02,-0.09 -0.05,-0.16 -0.1,-0.21 -0.05,-0.06 -0.13,-0.1 -0.22,-0.13l0.02 -0.06c0.1,0.03 0.18,0.08 0.24,0.15 0.06,0.06 0.1,0.14 0.12,0.24l-0.06 0.01z"/>
  <path fill="none" fill-rule="nonzero" stroke="#2B2A29" stroke-width="0.14" stroke-miterlimit="22.9256" d="M6.91 3.92c-0.02,-0.09 -0.05,-0.16 -0.1,-0.21 -0.05,-0.06 -0.13,-0.1 -0.22,-0.13l0.02 -0.06c0.1,0.03 0.18,0.08 0.24,0.15 0.06,0.06 0.1,0.14 0.12,0.24l-0.06 0.01z"/>
  <path fill="#2B2A29" d="M5.15 2.01c0.09,0 0.14,0.12 0.12,0.27 -0.01,0.16 0,0.25 -0.19,0.28 -0.19,0.03 -0.21,-0.11 -0.19,-0.26 0.01,-0.15 0.17,-0.29 0.26,-0.29z"/>
  <path fill="none" fill-rule="nonzero" stroke="#2B2A29" stroke-width="0.14" stroke-miterlimit="22.9256" d="M5.15 2.01c0.09,0 0.14,0.12 0.12,0.27 -0.01,0.16 0,0.25 -0.19,0.28 -0.19,0.03 -0.21,-0.11 -0.19,-0.26 0.01,-0.15 0.17,-0.29 0.26,-0.29z"/>
  <path fill="#2B2A29" d="M5.97 2.01c-0.09,0 -0.14,0.12 -0.13,0.28 0.02,0.15 0.01,0.24 0.2,0.27 0.19,0.03 0.21,-0.11 0.19,-0.26 -0.02,-0.15 -0.17,-0.29 -0.26,-0.29z"/>
  <path fill="none" fill-rule="nonzero" stroke="#2B2A29" stroke-width="0.14" stroke-miterlimit="22.9256" d="M5.97 2.01c-0.09,0 -0.14,0.12 -0.13,0.28 0.02,0.15 0.01,0.24 0.2,0.27 0.19,0.03 0.21,-0.11 0.19,-0.26 -0.02,-0.15 -0.17,-0.29 -0.26,-0.29z"/>
  <path fill="#A1B567" d="M4.94 4.96c0.23,0 0.66,0.24 0.66,0.52 0,0.27 -0.58,0.52 -0.81,0.52 -0.23,0 -0.36,-0.22 -0.27,-0.53 0.09,-0.32 0.19,-0.51 0.42,-0.51zm1.39 -0.01c-0.23,0 -0.66,0.24 -0.66,0.51 0,0.28 0.58,0.53 0.81,0.53 0.24,0 0.37,-0.22 0.27,-0.54 -0.09,-0.31 -0.19,-0.5 -0.42,-0.5z"/>
  <path fill="none" fill-rule="nonzero" stroke="#2B2A29" stroke-width="0.14" stroke-miterlimit="22.9256" d="M4.94 4.96c0.23,0 0.66,0.24 0.66,0.52 0,0.27 -0.58,0.52 -0.81,0.52 -0.23,0 -0.36,-0.22 -0.27,-0.53 0.09,-0.32 0.19,-0.51 0.42,-0.51zm1.39 -0.01c-0.23,0 -0.66,0.24 -0.66,0.51 0,0.28 0.58,0.53 0.81,0.53 0.24,0 0.37,-0.22 0.27,-0.54 -0.09,-0.31 -0.19,-0.5 -0.42,-0.5z"/>
  <path fill="#FEFEFE" d="M7.5 8.09c-0.09,-0.05 -0.21,0 -0.26,0.1 -0.05,0.1 -0.01,0.22 0.08,0.27 0.09,0.04 0.21,0 0.26,-0.1 0.05,-0.11 0.02,-0.23 -0.08,-0.27zm-3.53 0.85c0.3,0 0.75,0.44 0.75,0.73 0,0.28 -0.35,0.4 -0.66,0.4 -0.3,0 -0.55,-0.23 -0.55,-0.51 0,-0.28 0.15,-0.62 0.46,-0.62zm1.36 0.22c0.1,0 0.19,0.08 0.19,0.17 0,0.09 -0.09,0.17 -0.19,0.17 -0.11,0 -0.19,-0.08 -0.19,-0.17 0,-0.09 0.08,-0.17 0.19,-0.17zm-0.31 -0.76c0.12,0 0.21,0.1 0.21,0.22 0,0.12 -0.09,0.21 -0.21,0.21 -0.12,0 -0.21,-0.09 -0.21,-0.21 0,-0.12 0.09,-0.22 0.21,-0.22zm-0.6 -0.25c0.11,0 0.19,0.09 0.19,0.21 0,0.11 -0.08,0.2 -0.19,0.2 -0.1,0 -0.19,-0.09 -0.19,-0.2 0,-0.12 0.09,-0.21 0.19,-0.21zm3.09 0.88c-0.27,-0.13 -0.86,0.07 -0.99,0.32 -0.12,0.25 0.13,0.52 0.41,0.65 0.28,0.14 0.6,0.04 0.72,-0.21 0.13,-0.26 0.14,-0.62 -0.14,-0.76zm-1.08 -0.43c-0.1,-0.05 -0.21,-0.02 -0.25,0.06 -0.04,0.09 0.01,0.19 0.1,0.24 0.09,0.04 0.2,0.01 0.24,-0.07 0.04,-0.08 0,-0.19 -0.09,-0.23zm0.42 -0.48c-0.1,-0.06 -0.23,-0.01 -0.28,0.09 -0.05,0.11 -0.01,0.24 0.1,0.29 0.1,0.05 0.23,0.01 0.28,-0.1 0.06,-0.1 0.01,-0.23 -0.1,-0.28z"/>
  <path fill="none" fill-rule="nonzero" stroke="#2B2A29" stroke-width="0.14" stroke-miterlimit="22.9256" d="M7.5 8.09c-0.09,-0.05 -0.21,0 -0.26,0.1 -0.05,0.1 -0.01,0.22 0.08,0.27 0.09,0.04 0.21,0 0.26,-0.1 0.05,-0.11 0.02,-0.23 -0.08,-0.27zm-3.53 0.85c0.3,0 0.75,0.44 0.75,0.73 0,0.28 -0.35,0.4 -0.66,0.4 -0.3,0 -0.55,-0.23 -0.55,-0.51 0,-0.28 0.15,-0.62 0.46,-0.62zm1.36 0.22c0.1,0 0.19,0.08 0.19,0.17 0,0.09 -0.09,0.17 -0.19,0.17 -0.11,0 -0.19,-0.08 -0.19,-0.17 0,-0.09 0.08,-0.17 0.19,-0.17zm-0.31 -0.76c0.12,0 0.21,0.1 0.21,0.22 0,0.12 -0.09,0.21 -0.21,0.21 -0.12,0 -0.21,-0.09 -0.21,-0.21 0,-0.12 0.09,-0.22 0.21,-0.22zm-0.6 -0.25c0.11,0 0.19,0.09 0.19,0.21 0,0.11 -0.08,0.2 -0.19,0.2 -0.1,0 -0.19,-0.09 -0.19,-0.2 0,-0.12 0.09,-0.21 0.19,-0.21zm3.09 0.88c-0.27,-0.13 -0.86,0.07 -0.99,0.32 -0.12,0.25 0.13,0.52 0.41,0.65 0.28,0.14 0.6,0.04 0.72,-0.21 0.13,-0.26 0.14,-0.62 -0.14,-0.76zm-1.08 -0.43c-0.1,-0.05 -0.21,-0.02 -0.25,0.06 -0.04,0.09 0.01,0.19 0.1,0.24 0.09,0.04 0.2,0.01 0.24,-0.07 0.04,-0.08 0,-0.19 -0.09,-0.23zm0.42 -0.48c-0.1,-0.06 -0.23,-0.01 -0.28,0.09 -0.05,0.11 -0.01,0.24 0.1,0.29 0.1,0.05 0.23,0.01 0.28,-0.1 0.06,-0.1 0.01,-0.23 -0.1,-0.28z"/>
  <path fill="#FEFEFE" d="M5.08 2.1c0.03,0 0.06,0.03 0.06,0.06 0,0.03 -0.03,0.05 -0.06,0.05 -0.03,0 -0.05,-0.02 -0.05,-0.05 0,-0.03 0.02,-0.06 0.05,-0.06z"/>
  <path fill="#FEFEFE" d="M5.95 2.09c0.03,0 0.05,0.03 0.05,0.06 0,0.03 -0.02,0.05 -0.05,0.05 -0.03,0 -0.06,-0.02 -0.06,-0.05 0,-0.03 0.03,-0.06 0.06,-0.06z"/>
  <path fill="#A1B567" d="M5.54 5.1l0.22 0c0.08,0 0.14,0.06 0.15,0.14l0.06 0.43c0.01,0.08 -0.07,0.15 -0.15,0.15l-0.34 0c-0.08,0 -0.16,-0.07 -0.15,-0.15l0.06 -0.43c0.01,-0.08 0.06,-0.14 0.15,-0.14z"/>
  <path fill="none" fill-rule="nonzero" stroke="#2B2A29" stroke-width="0.14" stroke-miterlimit="22.9256" d="M5.54 5.1l0.22 0c0.08,0 0.14,0.06 0.15,0.14l0.06 0.43c0.01,0.08 -0.07,0.15 -0.15,0.15l-0.34 0c-0.08,0 -0.16,-0.07 -0.15,-0.15l0.06 -0.43c0.01,-0.08 0.06,-0.14 0.15,-0.14z"/>
</svg>
