<svg xmlns="http://www.w3.org/2000/svg" width="118" height="57" fill-rule="evenodd" clip-rule="evenodd" image-rendering="optimizeQuality" shape-rendering="geometricPrecision" text-rendering="geometricPrecision" viewBox="0 0 210.87 102.07"><path fill="#C4D985" d="M120.84 75.67h87.66c.95 0 1.74.78 1.74 1.74v22.35c0 .96-.79 1.74-1.74 1.74h-87.66c-.95 0-1.74-.78-1.74-1.74V77.41c0-.96.79-1.74 1.74-1.74z"/><path fill="#2B2A29" fill-rule="nonzero" d="M208.5 75.97h-87.66v-.6h87.66v.6zm2.04 1.44h-.61v-.14l-.01-.07-.01-.08-.02-.07-.02-.06-.02-.07-.03-.06-.03-.07-.03-.06-.03-.06-.04-.06-.04-.06-.05-.06-.04-.04-.05-.05-.05-.05-.05-.04-.05-.05-.06-.04-.06-.04-.06-.03-.06-.03-.07-.03-.06-.03-.07-.02-.06-.02-.07-.02-.08-.01-.07-.01h-.07l-.07-.01v-.6h.1l.11.01.1.01.1.02.09.02.1.03.1.03.09.04.09.04.09.04.09.05.08.06.08.05.07.06.08.07.07.07.07.06.07.09.06.07.05.08.05.08.06.09.04.09.04.09.04.09.03.1.03.09.02.1.02.1.01.1.01.11v.1zm-.61 22.35V77.41h.61v22.35h-.61zm-1.43 2.05v-.61h.07l.07-.01.07-.01.08-.01.07-.02.06-.01.07-.03.06-.02.07-.03.06-.04.06-.03.06-.04.06-.04.05-.04.05-.04.05-.05.05-.06.04-.04.05-.06.04-.06.04-.06.03-.06.03-.06.03-.06.03-.07.02-.06.02-.07.02-.07.01-.07.01-.08v-.14h.61v.1l-.01.11-.01.1-.02.1-.02.1-.03.1-.03.09-.04.1-.04.09-.04.09-.06.08-.05.08-.05.08-.06.08-.07.08-.07.07-.07.06-.08.07-.07.06-.08.05-.08.06-.09.05-.09.04-.09.04-.09.04-.1.03-.1.03-.09.02-.1.02-.1.02h-.11l-.1.01zm-87.66-.61h87.66v.61h-87.66v-.61zm-2.04-1.44h.61v.14l.01.08.01.07.02.07.02.07.02.06.03.07.03.06.03.06.03.06.04.06.04.06.05.06.04.04.05.06.05.05.05.04.05.04.06.04.06.04.06.03.06.04.07.03.06.02.07.03.06.01.07.02.08.01.07.01.07.01h.07v.61l-.1-.01h-.11l-.1-.02-.1-.02-.09-.02-.1-.03-.1-.03-.09-.04-.09-.04-.09-.04-.09-.05-.08-.06-.08-.05-.07-.06-.08-.07-.07-.06-.07-.07-.07-.08-.06-.08-.05-.08-.05-.08-.06-.08-.04-.09-.04-.09-.04-.1-.03-.09-.03-.1-.02-.1-.02-.1-.01-.1-.01-.11v-.1zm.61-22.35v22.35h-.61V77.41h.61zm1.43-2.04v.6l-.07.01h-.07l-.07.01-.08.01-.07.02-.06.02-.07.02-.06.03-.07.03-.06.03-.06.03-.06.04-.06.04-.05.05-.05.04-.05.05-.05.05-.04.04-.05.06-.04.06-.04.06-.03.06-.03.06-.03.07-.03.06-.02.07-.02.06-.02.07-.01.08-.01.07v.14h-.61v-.1l.01-.11.01-.1.02-.1.02-.1.03-.09.03-.1.04-.09.04-.09.04-.09.06-.09.05-.08.05-.08.06-.07.07-.09.07-.06.07-.07.08-.07.07-.06.08-.05.08-.06.09-.05.09-.04.09-.04.09-.04.1-.03.1-.03.09-.02.1-.02.1-.01.11-.01h.1z"/><path fill="#C4D985" d="M123.2 70.35h10.73c.34 0 .61.27.61.6v5.54c0 .33-.27.61-.61.61H123.2c-.33 0-.6-.28-.6-.61v-5.54c0-.33.27-.6.6-.6zm72.18 0h10.74c.33 0 .6.27.6.6v5.54c0 .33-.27.61-.6.61h-10.74c-.33 0-.6-.28-.6-.61v-5.54c0-.33.27-.6.6-.6zm-24.06 0h10.74c.33 0 .6.27.6.6v5.54c0 .33-.27.61-.6.61h-10.74c-.33 0-.6-.28-.6-.61v-5.54c0-.33.27-.6.6-.6zm-24.14 0h10.73c.33 0 .6.27.6.6v5.54c0 .33-.27.61-.6.61h-10.73c-.34 0-.61-.28-.61-.61v-5.54c0-.33.27-.6.61-.6z"/><path fill="#2B2A29" fill-rule="nonzero" d="M133.93 70.65H123.2v-.61h10.73v.61zm.92.3h-.61v-.04l-.01-.02v-.02l-.01-.01-.01-.02-.01-.02v-.02h-.01v-.01l-.01-.01-.02-.03-.01-.01-.01-.01-.02-.01-.01-.01-.02-.01-.02-.01-.01-.01-.01-.01h-.02l-.02-.01h-.02l-.01-.01h-.05v-.61h.05l.05.01h.05l.04.01.04.01.04.01.05.02.04.02.04.01.04.02.03.02.04.02.04.04.04.03.02.02.03.02.04.04.03.04.02.03.02.03.03.04.03.04.02.04.01.04.02.04.01.03.02.05.01.05v.04l.01.05.01.05v.04zm-.61 5.54v-5.54h.61v5.54h-.61zm-.31.91v-.61H133.99l.02-.01h.03l.01-.01.01-.01h.01l.02-.01.02-.01.01-.01.02-.02.01-.01.01-.01.02-.02.01-.02.01-.01.01-.02v-.01l.01-.02.01-.02v-.02l.01-.02v-.04h.61v.04l-.01.05-.01.05v.05l-.01.04-.02.05-.01.03-.02.05-.02.03-.01.04-.03.04-.03.05-.02.03-.02.02-.03.04-.04.04-.03.02-.02.03-.04.03-.04.03-.04.02-.03.02-.04.02-.04.02-.04.02-.05.01-.04.01-.04.01-.04.01-.05.01h-.1zm-10.73-.61h10.73v.61H123.2v-.61zm-.91-.3h.61v.04l.01.02v.02l.01.01v.01l.01.02v.01l.01.01.01.02v.01l.01.01.01.01.02.02v.01l.02.01.02.02h.01l.01.01.01.01h.01l.02.01.02.01h.02l.01.01h.06v.61h-.09l-.05-.01-.04-.01-.04-.01-.05-.01-.04-.02-.04-.01-.04-.02-.04-.02-.04-.02-.04-.03-.03-.02-.03-.03-.03-.02-.04-.04-.03-.03-.03-.03-.02-.03-.03-.04-.02-.04-.02-.03-.03-.05-.01-.03-.02-.05-.02-.04-.01-.04-.01-.04-.01-.05v-.05l-.01-.05v-.04zm.61-5.54v5.54h-.61v-5.54h.61zm.3-.91v.61h-.04l-.02.01h-.01l-.02.01-.02.01h-.02l-.01.01h-.01l-.01.01-.01.01-.02.01-.02.02-.02.02-.01.02-.01.01v.01l-.01.01-.01.01v.02l-.01.02-.01.02v.01l-.01.02v.04h-.61v-.04l.01-.05v-.05l.01-.04.01-.05.01-.04.02-.04.02-.04.01-.04.03-.04.02-.04.02-.04.03-.03.02-.03.03-.03.03-.04.04-.03.03-.03.03-.02.03-.03.04-.02.04-.03.04-.02.04-.02.04-.01.04-.02.05-.01.04-.01.04-.01h.05l.05-.01h.04zm82.92.61h-10.74v-.61h10.74v.61zm.91.3h-.61v-.04l-.01-.02v-.02l-.01-.01-.01-.02-.01-.02v-.02h-.01v-.01l-.01-.01-.01-.02-.01-.01-.01-.01-.01-.01-.02-.01-.01-.01-.02-.01-.02-.02h-.02l-.02-.01-.02-.01h-.02l-.02-.01h-.03v-.61h.04l.05.01h.05l.04.01.04.01.04.01.05.02.04.01.04.02.05.03.02.01.04.02.04.04.04.03.02.02.03.02.04.04.03.04.02.03.03.03.02.04.03.04.02.04.01.04.02.04.01.03.02.05.01.05v.04l.01.05.01.05v.04zm-.61 5.54v-5.54h.61v5.54h-.61zm-.3.91v-.61h.05l.02-.01h.02l.02-.01.02-.01.02-.01.02-.01.01-.01.02-.02.01-.01.01-.01.01-.01.01-.01.01-.01v-.01l.01-.01.01-.02v-.01l.01-.02.01-.02v-.02l.01-.02v-.04h.61v.04l-.01.05-.01.05v.05l-.01.04-.02.05-.01.03-.02.05-.02.03-.01.04-.03.04-.02.04-.03.04-.02.03-.03.03-.04.04-.03.02-.02.03-.04.03-.04.03-.04.02-.02.01-.05.03-.04.02-.04.01-.05.02-.04.01-.04.01-.04.01-.05.01h-.09zm-10.74-.61h10.74v.61h-10.74v-.61zm-.91-.3h.61v.04l.01.02v.02l.01.01v.01l.01.02v.01l.01.01.01.02v.01l.01.01.01.01.02.02v.01l.02.01.02.02h.01l.01.01.01.01h.01l.02.01.02.01h.02l.01.01h.06v.61h-.09l-.05-.01-.04-.01-.04-.01-.04-.01-.05-.02-.04-.01-.04-.02-.04-.02-.04-.02-.04-.03-.03-.02-.03-.03-.03-.02-.04-.04-.03-.03-.03-.03-.02-.03-.03-.04-.02-.04-.02-.03-.03-.05-.01-.03-.02-.05-.02-.04-.01-.04-.01-.04-.01-.05v-.05l-.01-.05v-.04zm.61-5.54v5.54h-.61v-5.54h.61zm.3-.91v.61h-.04l-.02.01h-.01l-.02.01-.02.01h-.02l-.01.01h-.01l-.01.01-.01.01-.02.01-.02.02-.02.02-.01.02-.01.01v.01l-.01.01-.01.01v.02l-.01.02-.01.02v.01l-.01.02v.04h-.61v-.04l.01-.05v-.05l.01-.04.01-.05.01-.04.02-.04.02-.04.01-.04.03-.04.02-.04.02-.04.03-.03.02-.03.03-.03.03-.04.04-.03.03-.03.03-.02.03-.03.04-.02.04-.03.04-.02.04-.02.04-.01.05-.02.04-.01.04-.01.04-.01h.05l.05-.01h.04zm-13.32.61h-10.74v-.61h10.74v.61zm.9.3h-.6v-.03l-.01-.01v-.03l-.01-.02-.01-.02v-.02l-.01-.01-.01-.01v-.01l-.01-.01-.01-.02-.02-.02h-.01l-.01-.02-.02-.01-.01-.01-.01-.01h-.01l-.01-.01h-.02l-.01-.01h-.01l-.02-.01h-.02l-.01-.01h-.04v-.61h.04l.05.01h.05l.04.01.04.01.04.01.05.02.04.01.04.02.04.02.04.03.03.02.04.03.03.02.03.03.04.03.03.04.03.03.02.03.03.03.02.04.02.04.03.04.01.04.02.04.01.04.02.04.01.05v.04l.01.05v.09zm-.6 5.54v-5.54h.6v5.54h-.6zm-.3.91v-.61h.05l.02-.01h.03l.01-.01.02-.01h.01l.01-.01.01-.01h.01l.02-.02.01-.01.01-.01.02-.02.01-.01.01-.01v-.01l.01-.02.01-.01v-.01l.01-.02v-.01l.01-.01v-.04l.01-.01v-.03h.6v.09l-.01.05v.05l-.01.04-.02.04-.01.04-.02.05-.01.03-.03.05-.02.03-.02.04-.03.04-.02.03-.03.03-.03.03-.04.04-.03.02-.03.03-.04.02-.03.03-.04.02-.04.02-.04.02-.04.02-.05.01-.04.01-.04.01-.04.01-.05.01h-.09zm-10.74-.61h10.74v.61h-10.74v-.61zm-.91-.3h.61v.04l.01.02v.02l.01.01v.01l.01.02v.01l.01.01v.02l.01.01.01.01.01.01.02.02v.01l.02.01.02.02h.01l.01.01.01.01h.01l.02.01.02.01h.02l.01.01h.06v.61h-.09l-.05-.01-.04-.01-.05-.01-.04-.01-.04-.02-.04-.01-.04-.02-.04-.02-.04-.02-.04-.03-.03-.02-.03-.03-.03-.02-.04-.04-.03-.03-.03-.03-.02-.03-.03-.04-.02-.04-.03-.03-.02-.05-.02-.03-.01-.05-.02-.04-.01-.04-.01-.04-.01-.05v-.05l-.01-.05v-.04zm.61-5.54v5.54h-.61v-5.54h.61zm.3-.91v.61h-.04l-.02.01h-.01l-.02.01-.02.01h-.02l-.01.01h-.01l-.01.01-.01.01-.02.01-.02.02-.02.02-.01.02-.01.01-.01.01v.01l-.01.01v.02l-.01.02-.01.02v.01l-.01.02v.04h-.61v-.04l.01-.05v-.05l.01-.04.01-.05.01-.04.02-.04.01-.04.02-.04.02-.04.03-.04.02-.04.03-.03.02-.03.03-.03.03-.04.04-.03.03-.03.03-.02.03-.03.04-.02.04-.03.04-.02.04-.02.04-.01.04-.02.04-.01.05-.01.04-.01h.05l.05-.01h.04zm-13.41.61h-10.73v-.61h10.73v.61zm.91.3h-.61v-.04l-.01-.02v-.01l-.01-.02-.01-.02v-.02l-.01-.01v-.01l-.01-.01-.01-.01-.01-.02-.01-.02h-.01l-.02-.02-.02-.01-.01-.01-.01-.01h-.01l-.01-.01h-.01l-.02-.01H158l-.02-.01h-.01l-.02-.01h-.04v-.61h.04l.05.01h.05l.04.01.05.01.04.01.04.02.04.01.04.02.04.02.04.03.04.02.03.03.03.02.03.03.04.03.04.04.02.03.02.03.03.03.02.04.03.04.02.04.02.04.01.04.02.04.01.04.01.05.01.04v.05l.01.05v.04zm-.61 5.54v-5.54h.61v5.54h-.61zm-.3.91v-.61h.06l.01-.01h.03l.02-.01.01-.01h.01l.01-.01.01-.01h.01l.02-.02.02-.01v-.01h.01l.01-.02.01-.01.01-.01.01-.01v-.02l.01-.01v-.01l.01-.02v-.01l.01-.01v-.02l.01-.02v-.04h.61v.04l-.01.05v.05l-.01.05-.01.04-.01.04-.02.04-.01.05-.02.03-.02.05-.03.03-.02.04-.03.04-.02.03-.02.03-.04.03-.04.04-.03.02-.03.03-.03.02-.04.03-.04.02-.04.02-.04.02-.04.02-.04.01-.04.01-.05.01-.04.01-.05.01h-.09zm-10.73-.61h10.73v.61h-10.73v-.61zm-.91-.3h.61v.08l.01.01v.01l.01.02.01.01v.01l.01.02.01.01v.01l.02.01.01.02.01.01.02.01.01.02h.01l.01.01.02.01.02.01.02.01h.02l.02.01h.06v.61h-.1l-.05-.01-.04-.01-.04-.01-.04-.01-.05-.02-.04-.01-.03-.02-.05-.02-.04-.02-.03-.03-.04-.02-.03-.03-.03-.02-.04-.04-.03-.03-.02-.03-.03-.03-.03-.04-.02-.04-.02-.03-.02-.05-.02-.03-.02-.05-.01-.04-.01-.04-.01-.04-.01-.05-.01-.05v-.09zm.61-5.54v5.54h-.61v-5.54h.61zm.3-.91v.61h-.05l-.01.01h-.02l-.01.01h-.01l-.02.01h-.02v.01h-.02l-.01.01-.01.01-.01.01-.02.02h-.01l-.01.02-.02.02v.01l-.01.01-.01.01v.01l-.01.02-.01.02-.01.02v.07h-.61v-.09l.01-.05.01-.04.01-.05.01-.04.01-.04.02-.04.01-.04.03-.04.02-.04.02-.04.03-.03.03-.03.02-.03.03-.04.04-.03.03-.03.03-.02.04-.03.03-.02.04-.03.05-.02.03-.02.04-.01.05-.02.04-.01.04-.01.04-.01h.05l.05-.01h.05z"/><path fill="#A1B567" d="M169.54 31.79h39.28c.96 0 1.75.78 1.75 1.74v22.35c0 .96-.79 1.74-1.75 1.74h-39.28c-.95 0-1.74-.78-1.74-1.74V33.53c0-.96.79-1.74 1.74-1.74z"/><path fill="#2B2A29" fill-rule="nonzero" d="M208.82 32.09h-39.28v-.6h39.28v.6zm2.05 1.44h-.61v-.14l-.02-.07-.01-.08-.01-.07-.02-.06-.02-.07-.03-.07-.03-.06-.03-.06-.04-.06-.03-.06-.05-.06-.04-.06-.04-.04-.05-.05-.05-.06-.05-.04-.06-.04-.06-.04-.06-.04-.05-.03-.07-.03-.06-.04-.07-.02-.06-.02-.07-.02-.07-.02-.07-.01-.07-.01h-.07l-.08-.01v-.6h.11l.1.01.11.01.09.02.1.02.1.03.1.03.09.04.09.04.09.04.08.05.09.06.07.05.08.06.08.07.07.07.06.06.07.08.06.08.06.08.05.08.05.09.05.09.04.08.04.1.03.09.03.1.02.1.01.1.02.1.01.11v.1zm-.61 22.35V33.53h.61v22.35h-.61zm-1.44 2.05v-.61h.08l.07-.01.07-.01.07-.01.07-.02.07-.01.06-.03.07-.02.06-.04.07-.03.05-.03.06-.04.06-.04.06-.04.05-.04.05-.06.05-.05.04-.04.04-.06.05-.06.03-.06.04-.06.03-.06.03-.06.03-.07.02-.06.02-.07.01-.07.01-.08.02-.07v-.14h.61v.1l-.01.11-.02.1-.01.1-.02.1-.03.1-.03.09-.04.1-.04.09-.05.08-.05.09-.05.08-.06.08-.06.08-.07.08-.06.06-.07.07-.08.07-.08.06-.07.05-.09.06-.08.05-.09.04-.09.04-.09.04-.1.03-.1.03-.1.02-.09.02-.11.02h-.1l-.11.01zm-39.28-.61h39.28v.61h-39.28v-.61zm-2.04-1.44h.61v.14l.01.07.02.08.01.07.02.07.02.06.03.07.03.06.03.06.04.06.03.06.04.06.05.06.04.05.05.04.05.06.05.04.06.04.05.04.06.04.06.03.06.03.07.04.06.02.07.03.06.01.07.02.08.01.07.01.07.01h.07v.61l-.1-.01h-.11l-.1-.02-.1-.02-.09-.02-.1-.03-.1-.03-.09-.04-.09-.04-.09-.04-.09-.05-.08-.06-.08-.05-.07-.06-.08-.07-.07-.07-.07-.06-.06-.08-.06-.08-.06-.08-.05-.08-.05-.09-.05-.08-.04-.09-.04-.1-.03-.09-.03-.1-.02-.1-.02-.1-.01-.1-.01-.11v-.1zm.61-22.35v22.35h-.61V33.53h.61zm1.43-2.04v.6l-.07.01h-.07l-.07.01-.08.01-.07.02-.06.02-.07.02-.06.02-.07.04-.06.03-.06.03-.06.04-.05.04-.06.04-.05.05-.05.05-.05.05-.04.05-.05.05-.04.06-.03.06-.04.06-.03.06-.03.06-.03.07-.02.07-.02.06-.01.07-.02.08-.01.07v.14h-.61v-.1l.01-.11.01-.1.02-.1.02-.1.03-.1.03-.09.04-.1.04-.08.05-.09.05-.09.05-.08.06-.08.06-.08.06-.07.07-.07.07-.07.08-.07.07-.06.08-.05.08-.06.09-.05.09-.04.09-.04.09-.04.1-.03.1-.03.09-.02.1-.02.1-.01.11-.01h.1z"/><path fill="#A1B567" d="M171.9 26.47h10.74c.33 0 .6.27.6.6v5.54c0 .33-.27.61-.6.61H171.9c-.33 0-.6-.28-.6-.61v-5.54c0-.33.27-.6.6-.6zm23.98 0h10.73c.33 0 .61.27.61.6v5.54c0 .33-.28.61-.61.61h-10.73c-.34 0-.61-.28-.61-.61v-5.54c0-.33.27-.6.61-.6z"/><path fill="#2B2A29" fill-rule="nonzero" d="M182.64 26.77H171.9v-.61h10.74v.61zm.9.3h-.6v-.04l-.01-.02V27l-.01-.02v-.01l-.01-.01v-.02l-.01-.01-.01-.01v-.02h-.01l-.01-.02-.02-.02-.01-.01-.01-.01-.02-.01-.01-.01-.01-.01h-.01l-.01-.01h-.02l-.01-.01-.01-.01h-.04l-.01-.01h-.04v-.61h.04l.05.01h.05l.04.01.04.01.04.01.05.02.04.01.04.02.04.02.04.03.03.02.04.03.03.02.03.02.04.04.03.04.03.03.02.03.03.03.02.04.02.03.03.05.01.04.02.04.01.04.02.04.01.05v.04l.01.05v.09zm-.6 5.54v-5.54h.6v5.54h-.6zm-.3.91v-.61h.05l.02-.01h.02l.01-.01h.01l.02-.01h.01l.01-.01.01-.01.01-.01.02-.01.01-.01.01-.01.02-.02.01-.01.01-.01v-.01l.01-.02.01-.01v-.01l.01-.02v-.01l.01-.01v-.02l.01-.02v-.04h.6v.09l-.01.05v.05l-.01.04-.02.04-.01.04-.02.04-.01.04-.03.05-.02.03-.02.04-.03.04-.02.03-.03.03-.03.03-.04.04-.03.02-.03.03-.04.02-.03.03-.04.02-.04.02-.04.02-.04.01-.05.02-.04.01-.04.01-.04.01-.05.01h-.09zm-10.74-.61h10.74v.61H171.9v-.61zm-.91-.3h.61v.04l.01.02v.02l.01.01v.01l.01.02v.01l.01.01.01.02v.01l.01.01.01.01.02.02v.01l.02.01.02.01.01.01.01.01.01.01h.01l.02.01.02.01h.02l.01.01h.06v.61h-.09l-.05-.01-.04-.01-.05-.01-.04-.01-.04-.02-.04-.01-.04-.02-.04-.02-.04-.02-.04-.03-.03-.02-.03-.03-.03-.02-.04-.04-.03-.03-.03-.03-.02-.03-.03-.04-.02-.04-.02-.03-.03-.05-.02-.04-.01-.04-.02-.04-.01-.04-.01-.04-.01-.05v-.05l-.01-.05v-.04zm.61-5.54v5.54h-.61v-5.54h.61zm.3-.91v.61h-.04l-.02.01h-.03l-.02.02h-.02l-.01.01h-.01l-.01.01-.01.01-.02.01-.02.01v.01l-.02.02-.01.02h-.01v.02l-.01.01-.01.01v.02l-.01.01v.01l-.01.02v.01l-.01.02v.04h-.61v-.04l.01-.05v-.05l.01-.04.01-.05.01-.04.02-.04.01-.04.02-.04.03-.05.02-.03.02-.04.03-.03.02-.03.03-.03.03-.04.04-.04.03-.02.03-.02.03-.03.04-.02.04-.03.04-.02.04-.02.04-.01.04-.02.04-.01.05-.01.04-.01h.05l.05-.01h.04zm34.71.61h-10.73v-.61h10.73v.61zm.91.3h-.61v-.06l-.01-.01v-.03l-.01-.01-.01-.02v-.01l-.01-.01-.01-.02h-.01l-.01-.02-.01-.02h-.01v-.01l-.02-.01-.02-.01v-.01l-.01-.01h-.02l-.01-.01h-.01l-.02-.01-.01-.01h-.03l-.02-.01h-.04v-.61h.04l.05.01h.05l.05.01.04.01.04.01.04.02.04.01.04.02.05.02.03.03.04.02.04.03.03.02.03.02.03.04.04.04.02.03.03.03.02.03.03.04.02.03.02.05.02.04.01.04.02.04.01.04.01.05.01.04v.05l.01.05v.04zm-.61 5.54v-5.54h.61v5.54h-.61zm-.3.91v-.61h.06l.02-.01h.01l.01-.01h.02l.01-.01h.01l.02-.01.01-.01v-.01l.02-.01.02-.01v-.01h.01l.01-.02.01-.01.01-.01.01-.01.01-.02v-.01l.01-.01v-.02l.01-.01v-.01l.01-.02v-.06h.61v.04l-.01.05v.05l-.01.05-.01.04-.01.04-.02.04-.01.04-.02.04-.02.05-.02.03-.03.04-.02.04-.03.03-.02.03-.04.03-.03.04-.03.02-.03.03-.04.02-.04.03-.03.02-.05.02-.04.02-.04.01-.04.02-.04.01-.04.01-.05.01-.05.01h-.09zm-10.73-.61h10.73v.61h-10.73v-.61zm-.91-.3h.61v.08l.01.01v.01l.01.02v.01l.01.01.01.02.01.01v.01l.01.01.02.02.01.01.01.01.02.01.01.01.01.01.02.01.02.01.02.01h.02l.02.01h.06v.61h-.1l-.05-.01-.04-.01-.04-.01-.04-.01-.05-.02-.04-.01-.03-.02-.05-.02-.04-.02-.03-.03-.04-.02-.03-.03-.03-.02-.04-.04-.03-.03-.02-.03-.03-.03-.03-.04-.02-.04-.02-.03-.02-.05-.02-.04-.02-.04-.01-.04-.01-.04-.01-.04-.01-.05-.01-.05v-.09zm.61-5.54v5.54h-.61v-5.54h.61zm.3-.91v.61h-.05l-.01.01h-.04l-.02.02h-.02v.01h-.02l-.01.01-.01.01-.02.01-.01.01-.01.01-.02.02-.01.02-.01.02-.01.01v.01l-.01.02-.01.01v.01l-.01.02v.07h-.61v-.09l.01-.05.01-.04.01-.05.01-.04.01-.04.02-.04.01-.04.03-.05.02-.03.02-.04.03-.03.03-.03.02-.03.03-.04.04-.04.03-.02.03-.02.04-.03.03-.02.04-.03.05-.02.03-.02.04-.01.05-.02.04-.01.04-.01.04-.01h.05l.05-.01h.05z"/><path fill="#99CFBA" d="M146.51 5.63h39.28c.96 0 1.74.78 1.74 1.74v22.35c0 .96-.78 1.74-1.74 1.74h-39.28c-.96 0-1.74-.78-1.74-1.74V7.37c0-.96.78-1.74 1.74-1.74z"/><path fill="#2B2A29" fill-rule="nonzero" d="M185.79 5.93h-39.28v-.61h39.28v.61zm2.05 1.44h-.61V7.3l-.01-.07-.01-.08-.01-.07-.02-.07-.01-.07-.03-.06-.02-.07-.03-.06-.04-.06-.03-.07-.04-.05-.04-.06-.04-.06-.04-.05-.05-.05-.05-.05-.05-.04-.06-.04-.06-.04-.06-.04-.05-.03-.07-.04-.06-.03-.07-.02-.06-.03-.07-.01-.07-.02-.07-.01-.07-.01-.07-.01h-.08v-.61l.11.01h.1l.1.02.1.02.1.02.1.03.09.03.1.04.09.04.09.04.08.05.09.06.07.05.08.06.08.07.07.06.06.07.07.08.06.08.06.08.05.08.05.08.04.09.04.09.04.1.03.09.03.1.02.1.02.1.02.1v.11l.01.1zm-.61 22.35V7.37h.61v22.35h-.61zm-1.44 2.04v-.6l.08-.01h.07l.07-.01.07-.01.07-.02.07-.02.06-.02.07-.03.06-.03.07-.03.05-.03.06-.04.06-.04.06-.04.05-.05.05-.05.05-.05.04-.05.04-.05.04-.06.04-.06.03-.06.04-.06.03-.07.02-.06.03-.07.01-.06.02-.07.01-.08.01-.07.01-.07v-.07h.61l-.01.1v.11l-.02.1-.02.1-.02.1-.03.09-.03.1-.04.09-.04.09-.04.09-.05.08-.05.09-.06.08-.06.08-.07.07-.06.07-.07.07-.08.07-.08.05-.07.06-.09.06-.08.05-.09.04-.09.04-.1.04-.09.03-.1.03-.1.02-.1.02-.1.01-.1.01h-.11zm-39.28-.6h39.28v.6h-39.28v-.6zm-2.04-1.44h.6l.01.07v.07l.01.07.01.08.02.07.02.06.02.07.03.06.03.07.03.06.03.06.04.06.04.06.04.06.05.04.05.05.05.05.04.04.06.05.06.04.06.04.06.03.06.03.07.03.06.03.07.02.06.02.07.02.08.01.07.01h.07l.07.01v.6h-.1l-.11-.01-.1-.01-.1-.02-.1-.02-.1-.03-.09-.03-.09-.04-.09-.04-.09-.04-.09-.05-.08-.06-.08-.05-.07-.06-.09-.07-.06-.07-.07-.06-.07-.09-.06-.07-.05-.08-.06-.08-.05-.09-.04-.09-.04-.09-.04-.09-.03-.1-.03-.09-.02-.1-.02-.1-.01-.1-.01-.11v-.1zm.6-22.35v22.35h-.6V7.37h.6zm1.44-2.05v.61h-.07l-.07.01-.07.01-.08.01-.07.02-.06.01-.07.03-.06.02-.07.03-.06.04-.06.03-.06.04-.06.04-.06.04-.04.04-.05.05-.05.06-.05.04-.04.06-.04.06-.04.06-.03.06-.03.06-.03.06-.03.07-.02.06-.02.07-.02.07-.01.07-.01.08v.07l-.01.07h-.6v-.1l.01-.11.01-.1.02-.1.02-.1.03-.1.03-.09.04-.1.04-.09.04-.09.05-.08.06-.08.05-.08.06-.08.07-.08.07-.07.06-.06.09-.07.07-.06.08-.05.08-.06.09-.05.09-.04.09-.04.09-.04.09-.03.1-.03.1-.02.1-.02.1-.02h.11l.1-.01z"/><path fill="#99CFBA" d="M148.87.3h10.73c.34 0 .61.28.61.61v5.54c0 .33-.27.6-.61.6h-10.73c-.33 0-.6-.27-.6-.6V.91c0-.33.27-.61.6-.61zm23.98 0h10.73c.33 0 .6.28.6.61v5.54c0 .33-.27.6-.6.6h-10.73c-.34 0-.61-.27-.61-.6V.91c0-.33.27-.61.61-.61z"/><path fill="#2B2A29" fill-rule="nonzero" d="M159.6.61h-10.73V0h10.73v.61zm.91.3h-.6V.88l-.01-.01V.83l-.01-.01V.81l-.01-.02-.01-.02-.01-.02V.74l-.01-.01-.01-.01-.02-.02-.01-.01-.01-.01-.02-.02h-.01l-.01-.01-.01-.01h-.01l-.02-.01-.01-.01h-.03l-.02-.01h-.06V0h.1l.05.01.04.01.04.01.04.01.05.01.04.02.04.02.04.02.04.02.03.03.04.02.03.03.03.02.04.04.03.03.02.03.03.03.03.04.02.04.02.03.03.05.01.04.02.03.01.05.01.04.01.04.01.05.01.05v.09zm-.6 5.54V.91h.6v5.54h-.6zm-.31.91v-.61h.05l.01-.01h.02l.01-.01h.02l.01-.01h.02l.01-.01h.01l.01-.01.01-.01.02-.01.01-.01.01-.01.02-.02.01-.02.01-.01V6.6l.01-.01.01-.01v-.01l.01-.02v-.01l.01-.02v-.03l.01-.01v-.03h.6v.09l-.01.05-.01.04-.01.05-.01.04-.01.04-.02.04-.02.04-.02.04-.02.04-.02.04-.03.03-.03.03-.02.03-.03.04-.04.03-.03.03-.03.02-.04.03-.03.02-.04.03-.04.02-.04.02-.04.01-.05.02-.04.01-.04.01-.04.01h-.05l-.05.01h-.05zm-10.73-.61h10.73v.61h-10.73v-.61zm-.91-.3h.61v.04l.01.02v.03l.01.01.01.02v.01l.01.01v.01l.01.01.01.01.01.02.01.02h.01v.01l.02.01.02.01v.01l.02.01h.01l.01.01h.02l.01.01h.01l.02.01h.01l.02.01h.04v.61h-.04l-.05-.01h-.05l-.04-.01-.05-.01-.04-.01-.05-.02-.03-.01-.04-.02-.05-.02-.03-.03-.04-.02-.04-.03-.02-.02-.03-.03-.04-.03-.04-.04-.02-.03-.02-.03-.03-.03-.03-.04-.02-.04-.02-.04-.02-.04-.01-.04-.02-.04-.01-.04-.01-.05-.01-.04v-.05l-.01-.05v-.04zm.61-5.54v5.54h-.61V.91h.61zm.3-.91v.61h-.06l-.01.01h-.03l-.01.01-.02.01h-.01l-.01.01-.02.01-.02.02-.02.01V.7h-.01l-.01.02-.01.01-.01.01-.01.01v.02h-.01v.02l-.02.02v.04l-.01.02v.04h-.61V.87l.01-.05V.77l.01-.05.01-.04.01-.04.02-.05.01-.03.02-.04.02-.05.02-.03.03-.04.03-.04.02-.03.02-.03.04-.03.04-.04.03-.02.02-.03.04-.02.04-.03.03-.02.05-.02.04-.02.03-.01.05-.02.04-.01.05-.01.04-.01.05-.01h.09zm34.71.61h-10.73V0h10.73v.61zm.91.3h-.61V.87l-.01-.02V.83l-.01-.01V.81l-.01-.02V.77h-.01l-.01-.02V.74l-.01-.01-.01-.01-.02-.02V.69l-.02-.01-.02-.02h-.01l-.01-.01-.01-.01h-.01l-.02-.01-.01-.01h-.03l-.01-.01h-.06V0h.09l.05.01.04.01.04.01.04.01.05.01.04.02.04.02.04.02.04.02.03.03.04.02.03.03.03.02.04.04.03.03.03.03.02.03.03.04.02.04.02.03.03.05.01.04.02.03.02.05.01.04.01.04.01.05v.05l.01.05v.04zm-.61 5.54V.91h.61v5.54h-.61zm-.3.91v-.61h.04l.02-.01h.01l.02-.01h.01l.01-.01h.02l.01-.01h.01l.01-.01.01-.01.02-.01.02-.01v-.01l.02-.02.01-.02.01-.01V6.6l.01-.01.01-.01v-.01l.01-.02v-.01l.01-.02v-.01l.01-.02v-.04h.61v.04l-.01.05v.05l-.01.04-.01.05-.01.04-.02.04-.02.04-.01.04-.03.04-.02.04-.02.04-.03.03-.02.03-.03.03-.03.04-.04.03-.03.03-.03.02-.04.03-.03.02-.04.03-.04.02-.04.02-.04.01-.05.02-.04.01-.04.01-.04.01h-.05l-.05.01h-.04zm-10.73-.61h10.73v.61h-10.73v-.61zm-.91-.3h.6v.03l.01.01v.03l.01.02v.01l.01.02v.01l.01.01.01.01v.01l.01.01.01.02.02.02.01.01.01.01.02.01.01.01.01.01h.01l.01.01h.02l.02.01.02.01h.02l.01.01h.05v.61h-.05l-.05-.01h-.05l-.04-.01-.04-.01-.04-.01-.05-.02-.04-.01-.03-.02-.05-.02-.04-.03-.03-.02-.04-.03-.03-.02-.03-.03-.04-.03-.03-.04-.02-.03-.03-.03-.03-.03-.02-.04-.02-.04-.03-.04-.01-.04-.02-.04-.01-.04-.01-.04-.01-.05-.01-.04-.01-.05v-.09zm.6-5.54v5.54h-.6V.91h.6zm.31-.91v.61H172.79l-.02.01h-.02l-.02.01-.02.01h-.01l-.01.01-.01.01h-.01l-.02.02-.01.01-.01.01-.02.02-.01.01-.01.01v.01l-.01.02-.01.02-.01.02v.01l-.01.01v.04l-.01.01v.03h-.6V.82l.01-.05.01-.05.01-.04.01-.04.01-.05.02-.03.01-.04.03-.05.02-.03.02-.04.03-.04.03-.03.02-.03.03-.03.04-.04.03-.02.03-.03.04-.02.03-.03.04-.02.05-.02.03-.02.04-.01.05-.02.04-.01.04-.01.04-.01.05-.01h.1z"/><path fill="#99CFBA" d="M2.04 75.93H89.7c.96 0 1.74.79 1.74 1.74v22.35c0 .96-.78 1.74-1.74 1.74H2.04c-.95 0-1.74-.78-1.74-1.74V77.67c0-.95.79-1.74 1.74-1.74z"/><path fill="#2B2A29" fill-rule="nonzero" d="M89.7 76.24H2.04v-.61H89.7v.61zm2.04 1.43h-.6l-.01-.07v-.07l-.01-.07-.01-.08-.02-.07-.02-.06-.02-.07-.03-.06-.03-.07-.03-.06-.03-.06-.04-.06-.04-.05-.04-.06-.05-.05-.05-.05-.05-.05-.05-.05-.05-.04-.06-.04-.06-.04-.06-.03-.06-.03-.07-.03-.06-.03-.07-.02-.06-.02-.07-.02-.08-.01-.07-.01h-.14v-.61h.1l.11.01.1.01.1.02.1.02.1.03.09.03.09.04.09.04.09.04.09.06.08.05.08.06.08.06.07.06.07.07.07.07.06.07.07.08.05.08.06.09.05.08.04.09.04.09.04.09.03.1.03.1.02.1.02.09.01.1.01.11v.1zm-.6 22.35V77.67h.6v22.35h-.6zm-1.44 2.05v-.61h.07l.07-.01.07-.01.08-.01.07-.02.06-.01.07-.03.06-.02.07-.03.06-.03.06-.04.06-.04.06-.04.05-.04.05-.04.05-.05.05-.05.05-.05.04-.06.04-.05.04-.06.03-.06.03-.07.03-.06.03-.07.02-.06.02-.07.02-.07.01-.07.01-.07v-.07l.01-.08h.6v.11l-.01.1-.01.1-.02.1-.02.1-.03.1-.03.09-.04.1-.04.09-.04.09-.05.08-.06.08-.05.08-.07.08-.06.08-.07.07-.07.06-.07.07-.08.06-.08.06-.08.05-.09.05-.09.05-.09.04-.09.03-.09.04-.1.03-.1.02-.1.01-.1.02-.11.01h-.1zm-87.66-.61H89.7v.61H2.04v-.61zM0 100.02h.61V100.17l.01.07.02.07.01.07.02.07.02.06.03.07.03.06.03.07.04.06.03.06.04.05.05.06.04.05.05.05.05.05.05.04.06.04.05.04.06.04.06.04.06.03.07.03.06.02.07.03.06.01.07.02.08.01.07.01.07.01h.07v.61h-.1l-.11-.01-.1-.02-.09-.01-.1-.02-.1-.03-.1-.04-.09-.03-.09-.04-.09-.05-.09-.05-.08-.05-.08-.06-.07-.06-.08-.07-.07-.06-.07-.07-.06-.08-.06-.08-.06-.08-.05-.08-.05-.08-.05-.09-.04-.09-.04-.1-.03-.09-.03-.1-.02-.1-.01-.1-.02-.1-.01-.1v-.11zm.61-22.35v22.35H0V77.67h.61zm1.43-2.04v.61H1.9l-.07.01-.08.01-.07.02-.06.02-.07.02-.06.03-.07.03-.06.03-.06.03-.06.04-.05.04-.06.04-.05.05-.05.05-.05.05-.04.05-.05.06-.04.05-.03.06-.04.06-.03.06-.03.07-.03.06-.02.07-.02.06-.01.07-.02.08-.01.07v.14H0v-.1l.01-.11.02-.1.01-.09.02-.1.03-.1.03-.1.04-.09.04-.09.05-.09.05-.08.05-.09.06-.08.06-.08.06-.07.07-.07.07-.07.08-.06.07-.06.08-.06.08-.05.09-.06.09-.04.09-.04.09-.04.1-.03.1-.03.1-.02.09-.02.1-.01.11-.01h.1z"/><path fill="#99CFBA" d="M4.4 70.61h10.74c.33 0 .6.27.6.6v5.54c0 .34-.27.61-.6.61H4.4c-.33 0-.6-.27-.6-.61v-5.54c0-.33.27-.6.6-.6zm72.18 0h10.74c.33 0 .6.27.6.6v5.54c0 .34-.27.61-.6.61H76.58c-.33 0-.6-.27-.6-.61v-5.54c0-.33.27-.6.6-.6zm-24.06 0h10.74c.33 0 .6.27.6.6v5.54c0 .34-.27.61-.6.61H52.52c-.33 0-.6-.27-.6-.61v-5.54c0-.33.27-.6.6-.6zm-24.14 0h10.73c.33 0 .61.27.61.6v5.54c0 .34-.28.61-.61.61H28.38c-.34 0-.61-.27-.61-.61v-5.54c0-.33.27-.6.61-.6z"/><path fill="#2B2A29" fill-rule="nonzero" d="M15.14 70.91H4.4v-.61h10.74v.61zm.91.3h-.61v-.04l-.01-.02v-.01l-.01-.02-.01-.02v-.02l-.01-.01-.01-.01v-.01l-.01-.01-.01-.02-.02-.01V71h-.01l-.01-.02-.02-.01-.01-.01h-.01l-.01-.01-.01-.01h-.02l-.01-.01h-.01l-.02-.01h-.01l-.02-.01h-.04v-.61h.04l.05.01.05.01h.04l.04.01.04.01.05.02.04.02.04.01.04.03.04.02.03.02.04.03.03.02.03.03.04.03.03.04.03.03.02.03.03.04.02.03.02.04.03.05.01.03.02.04.02.05.01.04.01.04v.04l.01.05.01.05v.04zm-.61 5.54v-5.54h.61v5.54h-.61zm-.3.91v-.61H15.21l.02-.01h.01l.01-.01.02-.01h.01l.01-.01.01-.01h.01l.02-.02.01-.01h.01v-.01l.02-.02.01-.01.01-.01v-.01l.01-.02.01-.01v-.01l.01-.02v-.01l.01-.01v-.02l.01-.02v-.04h.61v.04l-.01.06-.01.05v.04l-.01.04-.01.04-.02.04-.02.05-.01.03-.03.05-.02.03-.02.04-.03.04-.02.03-.03.03-.03.04-.04.03-.03.02-.03.03-.04.03-.03.02-.04.02-.04.02-.04.02-.04.02-.05.01-.04.01-.04.01-.04.01-.05.01h-.09zM4.4 77.05h10.74v.61H4.4v-.61zm-.91-.3h.61v.04l.01.02v.02l.01.01v.01l.01.02v.01l.01.01.01.02v.01l.01.01.01.01.02.02v.01l.02.01.02.02h.01l.01.01.01.01h.01l.02.01.02.01.02.01h.07v.61h-.09l-.05-.01-.04-.01-.04-.01-.04-.01-.05-.02-.04-.01-.03-.01-.05-.03-.04-.02-.04-.02-.03-.03-.03-.03-.03-.02-.04-.03-.03-.04-.03-.03-.02-.03-.03-.04-.02-.04-.02-.03-.03-.05-.01-.03-.02-.05-.02-.04-.01-.04-.01-.04-.01-.04v-.05l-.01-.06v-.04zm.61-5.54v5.54h-.61v-5.54h.61zm.3-.91v.61h-.04l-.02.01h-.01l-.02.01-.02.01h-.02l-.01.01-.01.01h-.01l-.01.01-.02.01-.02.02v.01l-.02.01-.01.02-.01.01v.01l-.01.01-.01.01v.02l-.01.02-.01.02v.01l-.01.02v.04h-.61v-.04l.01-.05v-.05l.01-.04.01-.04.01-.04.02-.05.02-.04.01-.03.03-.05.02-.04.02-.03.03-.04.02-.03.03-.03.03-.04.04-.03.03-.03.03-.02.03-.03.04-.02.04-.02.05-.03.03-.01.04-.02.05-.02.04-.01.04-.01h.04l.05-.01.05-.01h.04zm82.92.61H76.58v-.61h10.74v.61zm.91.3h-.61v-.04l-.01-.02v-.01l-.01-.02-.01-.02v-.02l-.01-.01-.01-.01v-.01l-.01-.01-.01-.02-.02-.01V71l-.02-.02-.02-.01-.01-.01h-.01l-.01-.01-.01-.01h-.02l-.01-.01h-.01l-.02-.01h-.01l-.02-.01h-.04v-.61h.04l.05.01.05.01h.04l.04.01.04.01.05.02.04.02.04.01.04.03.04.02.03.02.04.03.03.02.03.03.04.03.03.04.03.03.02.03.03.04.02.03.02.04.03.05.01.03.02.04.02.05.01.04.01.04.01.04v.05l.01.05v.04zm-.61 5.54v-5.54h.61v5.54h-.61zm-.3.91v-.61H87.39l.02-.01h.01l.01-.01.02-.01h.01l.01-.01.01-.01h.01l.02-.02.02-.01v-.01l.02-.02.01-.01.01-.01v-.01l.01-.02.01-.01v-.01l.01-.02v-.01l.01-.01v-.02l.01-.02v-.04h.61v.04l-.01.06v.05l-.01.04-.01.04-.01.04-.02.04-.02.05-.01.03-.03.05-.02.03-.02.04-.03.04-.02.03-.03.03-.03.04-.04.03-.03.02-.03.03-.04.03-.03.02-.04.02-.04.02-.04.02-.04.02-.05.01-.04.01-.04.01-.04.01-.05.01h-.09zm-10.74-.61h10.74v.61H76.58v-.61zm-.91-.3h.61v.04l.01.02v.02l.01.01v.01l.01.02v.01l.01.01.01.02v.01l.01.01.01.01.02.02v.01l.02.01.02.02h.01l.01.01.01.01h.01l.02.01.02.01.02.01h.07v.61h-.09l-.05-.01-.04-.01-.04-.01-.04-.01-.05-.02-.04-.01-.03-.01-.05-.03-.04-.02-.03-.02-.04-.03-.03-.03-.03-.02-.04-.03-.03-.04-.03-.03-.02-.03-.03-.04-.02-.04-.02-.03-.03-.05-.01-.03-.02-.05-.02-.04-.01-.04-.01-.04-.01-.04v-.05l-.01-.06v-.04zm.61-5.54v5.54h-.61v-5.54h.61zm.3-.91v.61h-.04l-.02.01h-.01l-.02.01-.02.01h-.02l-.01.01-.01.01h-.01l-.01.01-.02.01-.02.02v.01l-.02.01-.01.02-.01.01v.01l-.01.01-.01.01v.02l-.01.02-.01.02v.01l-.01.02v.04h-.61v-.04l.01-.05v-.05l.01-.04.01-.04.01-.04.02-.05.02-.04.01-.03.03-.05.02-.04.02-.03.03-.04.02-.03.03-.03.03-.04.04-.03.03-.03.03-.02.04-.03.03-.02.04-.02.05-.03.03-.01.04-.02.05-.02.04-.01.04-.01h.04l.05-.01.05-.01h.04zm-13.32.61H52.52v-.61h10.74v.61zm.9.3h-.6v-.04l-.01-.02v-.01l-.01-.02-.01-.02v-.02l-.01-.01-.01-.01v-.01l-.01-.01-.01-.02-.02-.01V71h-.01l-.01-.02-.02-.01-.01-.01h-.01l-.01-.01-.01-.01h-.02l-.01-.01h-.01l-.02-.01h-.02l-.01-.01h-.04v-.61h.04l.05.01.05.01h.04l.04.01.04.01.05.02.04.02.04.01.04.03.04.02.03.02.04.03.03.02.03.03.04.03.03.04.03.03.02.03.03.04.02.03.02.04.03.05.01.03.02.04.01.05.02.04.01.04v.04l.01.05v.09zm-.6 5.54v-5.54h.6v5.54h-.6zm-.3.91v-.61h.07l.02-.01h.01l.01-.01.02-.01h.01l.01-.01.01-.01h.01l.02-.02.01-.01h.01v-.01l.02-.02.01-.01.01-.01v-.01l.01-.02.01-.01v-.01l.01-.02v-.01l.01-.01v-.02l.01-.02v-.04h.6v.1l-.01.05v.04l-.01.04-.02.04-.01.04-.02.05-.01.03-.03.05-.02.03-.02.04-.03.04-.02.03-.03.03-.03.04-.04.03-.03.02-.03.03-.04.03-.03.02-.04.02-.04.02-.04.02-.04.02-.05.01-.04.01-.04.01-.04.01-.05.01h-.09zm-10.74-.61h10.74v.61H52.52v-.61zm-.9-.3h.6v.03l.01.01v.04l.01.01v.01l.01.02v.01l.01.01.01.02v.01l.01.01.01.01.02.02v.01h.01l.01.01.02.02h.01l.01.01.01.01h.01l.02.01.02.01.02.01h.07v.61h-.09l-.05-.01-.04-.01-.04-.01-.04-.01-.05-.02-.04-.01-.03-.01-.05-.03-.04-.02-.03-.02-.04-.03-.03-.03-.03-.02-.04-.03-.03-.04-.03-.03-.02-.03-.03-.04-.02-.04-.02-.03-.03-.05-.01-.03-.02-.05-.01-.04-.01-.04-.02-.04v-.04l-.01-.05v-.1zm.6-5.54v5.54h-.6v-5.54h.6zm.3-.91v.61h-.04l-.01.01h-.02l-.02.01-.02.01h-.02l-.01.01-.01.01h-.01l-.01.01-.02.01-.01.02h-.01v.01l-.02.01-.01.02-.01.01v.01l-.01.01-.01.01v.02l-.01.02-.01.02v.03l-.01.01v.03h-.6v-.09l.01-.05v-.04l.02-.04.01-.04.01-.05.02-.04.01-.03.03-.05.02-.04.02-.03.03-.04.02-.03.03-.03.03-.04.04-.03.03-.03.03-.02.04-.03.03-.02.04-.02.05-.03.03-.01.04-.02.05-.02.04-.01.04-.01h.04l.05-.01.05-.01h.04zm-13.41.61H28.38v-.61h10.73v.61zm.91.3h-.61v-.06l-.01-.01v-.02l-.01-.02-.01-.02v-.01l-.01-.01-.01-.01v-.01l-.02-.02-.01-.01-.01-.01-.02-.02-.01-.01-.01-.01h-.01l-.02-.01-.01-.01h-.01l-.02-.01h-.01l-.01-.01h-.02l-.02-.01h-.04v-.61h.04l.05.01.05.01h.05l.04.01.04.01.04.02.04.02.04.01.05.03.03.02.04.02.04.03.03.02.03.03.03.03.04.04.02.03.03.03.02.04.03.03.02.04.02.05.02.03.01.04.02.05.01.04.01.04.01.04.01.05v.09zm-.61 5.54v-5.54h.61v5.54h-.61zm-.3.91v-.61h.08l.01-.01h.01l.02-.01.01-.01h.01l.02-.01.01-.01h.01l.01-.02.02-.01.01-.01.01-.02.02-.01v-.01l.01-.01.01-.02v-.01l.01-.01.01-.02v-.02l.01-.02v-.06h.61v.1l-.01.05-.01.04-.01.04-.01.04-.02.04-.01.05-.02.03-.02.05-.02.03-.03.04-.02.04-.03.03-.02.03-.04.04-.03.03-.03.02-.03.03-.04.03-.04.02-.03.02-.05.02-.04.02-.04.02-.04.01-.04.01-.04.01-.05.01-.05.01h-.09zm-10.73-.61h10.73v.61H28.38v-.61zm-.91-.3h.61v.08l.01.01v.01l.01.02.01.01v.01l.01.02.01.01v.01l.02.01.01.02v.01h.01l.02.01.01.02h.01l.01.01.02.01.02.01.02.01h.01l.01.01h.08v.61h-.1l-.05-.01-.04-.01-.04-.01-.04-.01-.05-.02-.03-.01-.04-.01-.05-.03-.04-.02-.03-.02-.04-.03-.03-.03-.03-.02-.04-.03-.03-.04-.02-.03-.03-.03-.03-.04-.02-.04-.02-.03-.02-.05-.02-.03-.02-.05-.01-.04-.01-.04-.01-.04-.01-.04-.01-.05v-.1zm.61-5.54v5.54h-.61v-5.54h.61zm.3-.91v.61h-.04l-.02.01h-.02l-.01.01h-.01l-.02.01h-.02v.01l-.02.01h-.01l-.01.01-.01.01-.02.02h-.01v.01l-.01.01-.02.02v.01l-.01.01-.01.01v.01l-.01.02-.01.02-.01.02v.07h-.61v-.09l.01-.05.01-.04.01-.04.01-.04.02-.05.01-.04.01-.03.03-.05.02-.04.02-.03.03-.04.03-.03.02-.03.03-.04.04-.03.03-.03.03-.02.04-.03.03-.02.04-.02.05-.03.04-.01.03-.02.05-.02.04-.01.04-.01h.04l.05-.01.06-.01h.04z"/><path fill="#F5B2B6" d="M49.06 48.71h87.65c.96 0 1.74.79 1.74 1.75V72.8c0 .96-.78 1.75-1.74 1.75H49.06c-.96 0-1.74-.79-1.74-1.75V50.46c0-.96.78-1.75 1.74-1.75z"/><path fill="#2B2A29" fill-rule="nonzero" d="M136.71 49.02H49.06v-.61h87.65v.61zm2.04 1.44h-.6l-.01-.08v-.07l-.01-.07-.01-.07-.02-.07-.02-.07-.02-.06-.02-.07-.03-.06-.04-.07-.03-.06-.04-.06-.04-.05-.04-.06-.05-.05-.04-.05-.06-.05-.05-.04-.05-.04-.06-.04-.06-.04-.06-.04-.06-.03-.06-.03-.07-.03-.06-.02-.07-.02-.07-.01-.07-.01-.08-.02h-.14v-.61h.1l.11.01.1.02.1.01.1.02.1.03.09.04.1.03.08.04.09.05.09.05.08.05.08.06.08.06.07.06.08.07.06.07.07.08.06.08.06.08.05.08.05.08.04.09.04.09.04.09.03.1.03.1.02.1.02.09.01.11.01.1v.11zm-.6 22.34V50.46h.6V72.8h-.6zm-1.44 2.05v-.61h.14l.08-.01.07-.02.07-.01.07-.02.06-.02.07-.03.06-.03.06-.03.06-.04.06-.03.06-.04.05-.05.05-.04.06-.05.04-.05.05-.05.04-.06.04-.05.04-.06.03-.06.04-.06.03-.07.02-.06.02-.07.02-.06.02-.07.01-.08.01-.07v-.07l.01-.08h.6v.11l-.01.11-.01.1-.02.09-.02.1-.03.1-.03.1-.04.09-.04.09-.04.09-.05.08-.05.09-.06.08-.06.07-.07.08-.06.07-.08.07-.07.06-.08.06-.08.06-.08.05-.09.05-.09.05-.08.04-.1.04-.09.03-.1.03-.1.02-.1.02-.1.01-.11.01h-.1zm-87.65-.61h87.65v.61H49.06v-.61zm-2.05-1.44h.61v.08l.01.07.01.07.01.08.02.07.01.06.03.07.02.06.03.07.03.06.04.06.04.06.03.05.05.06.04.05.05.05.05.05.05.04.06.05.05.04.07.03.05.04.06.03.07.03.06.03.07.02.07.02.07.01.07.02.07.01H49.06v.61h-.11l-.1-.01-.11-.01-.09-.02-.1-.02-.1-.03-.1-.03-.09-.04-.09-.04-.09-.05-.09-.05-.08-.05-.08-.06-.07-.06-.08-.06-.07-.07-.06-.07-.07-.08-.06-.07-.06-.08-.05-.09-.05-.08-.04-.09-.05-.09-.03-.09-.04-.1-.02-.1-.03-.1-.01-.09-.02-.1-.01-.11v-.11zm.61-22.34V72.8h-.61V50.46h.61zm1.44-2.05v.61H48.91l-.07.02-.07.01-.07.01-.07.02-.07.02-.06.03-.07.03-.06.03-.05.04-.07.04-.05.04-.06.04-.05.04-.05.05-.05.05-.04.05-.05.06-.03.05-.04.06-.04.06-.03.07-.03.06-.02.07-.03.06-.01.07-.02.07-.01.07-.01.07-.01.07v.08h-.61v-.11l.01-.1.02-.11.01-.09.03-.1.02-.1.04-.1.03-.09.05-.09.04-.09.05-.08.05-.08.06-.08.06-.08.07-.08.06-.07.07-.07.08-.06.07-.06.08-.06.08-.05.09-.05.09-.05.09-.04.09-.03.1-.04.1-.03.1-.02.09-.01.11-.02.1-.01h.11z"/><path fill="#F5B2B6" d="M51.42 43.39h10.73c.33 0 .6.27.6.61v5.54c0 .33-.27.6-.6.6H51.42c-.34 0-.61-.27-.61-.6V44c0-.34.27-.61.61-.61zm72.18 0h10.73c.33 0 .6.27.6.61v5.54c0 .33-.27.6-.6.6H123.6c-.34 0-.61-.27-.61-.6V44c0-.34.27-.61.61-.61zm-24.06 0h10.73c.33 0 .6.27.6.61v5.54c0 .33-.27.6-.6.6H99.54c-.34 0-.61-.27-.61-.6V44c0-.34.27-.61.61-.61zm-24.15 0h10.73c.34 0 .61.27.61.61v5.54c0 .33-.27.6-.61.6H75.39c-.33 0-.61-.27-.61-.6V44c0-.34.28-.61.61-.61z"/><path fill="#2B2A29" fill-rule="nonzero" d="M62.15 43.7H51.42v-.61h10.73v.61zm.91.3h-.61v-.05l-.01-.01v-.02l-.01-.01v-.01l-.01-.02v-.02h-.01v-.02l-.01-.01-.01-.01-.01-.02-.01-.01-.01-.01-.02-.02-.02-.01h-.01l-.01-.01-.01-.01-.01-.01h-.01l-.02-.01h-.01l-.02-.01h-.07v-.61h.09l.05.01.04.01.05.01.04.01.04.01.04.02.04.02.04.02.04.02.04.02.03.03.03.03.03.02.04.03.04.04.02.03.02.03.03.04.02.03.03.04.02.05.02.03.01.04.02.05.01.04.01.04.01.04v.05l.01.05V44zm-.61 5.54V44h.61v5.54h-.61zm-.3.9v-.6h.03l.01-.01h.03l.02-.01h.01l.02-.01h.01l.01-.01.01-.01h.01l.01-.01.02-.01.02-.02.01-.01.01-.01.01-.02.01-.01.01-.01v-.01l.01-.01v-.02l.01-.01v-.01l.01-.02v-.02l.01-.01v-.04h.61v.04l-.01.05v.05l-.01.04-.01.04-.01.04-.02.05-.01.04-.02.04-.02.04-.03.04-.02.03-.03.04-.02.03-.02.03-.04.04-.04.03-.03.03-.03.02-.03.03-.04.02-.04.02-.04.03-.04.01-.04.02-.04.01-.04.01-.05.02h-.04l-.05.01h-.09zm-10.73-.6h10.73v.6H51.42v-.6zm-.91-.3h.6v.02l.01.02v.03l.01.02v.01l.01.01v.02l.01.01.01.01v.01l.01.01.01.02.02.01v.01h.01l.01.02.02.01.01.01h.01l.01.01.01.01h.02l.02.01.02.01h.03l.02.01h.03v.6h-.1l-.05-.01h-.04l-.04-.02-.04-.01-.05-.01-.04-.02-.03-.01-.05-.03-.04-.02-.03-.02-.04-.03-.03-.02-.03-.03-.04-.03-.03-.04-.03-.03-.02-.03-.03-.04-.02-.03-.02-.04-.03-.04-.01-.04-.02-.04-.01-.05-.01-.04-.02-.04v-.04l-.01-.05v-.09zm.6-5.54v5.54h-.6V44h.6zm.31-.91v.61h-.08l-.02.01-.02.01-.02.01h-.01l-.01.01-.01.01h-.01l-.02.01-.01.02h-.01v.01l-.02.01-.01.02-.01.01v.01l-.01.02-.01.02-.01.02v.01l-.01.01v.03l-.01.02V44h-.6v-.1l.01-.05v-.04l.02-.04.01-.04.01-.05.02-.04.01-.03.03-.05.02-.04.02-.03.03-.04.02-.03.03-.03.03-.04.04-.03.03-.02.03-.03.04-.03.03-.02.04-.02.05-.03.03-.01.04-.02.05-.01.04-.01.04-.01.04-.01.05-.01h.1zm82.91.61H123.6v-.61h10.73v.61zm.91.3h-.61v-.05l-.01-.01v-.04l-.02-.02v-.02h-.01v-.02l-.01-.01-.01-.01-.01-.02-.01-.01-.01-.01-.02-.02-.02-.01h-.01l-.01-.01-.01-.01-.01-.01h-.01l-.02-.01h-.01l-.02-.01h-.07v-.61h.09l.05.01.04.01.05.01.04.01.04.01.04.02.04.02.04.02.04.02.04.02.03.03.03.03.03.02.04.03.04.04.02.03.02.03.03.04.02.03.03.04.02.05.02.03.01.04.02.05.01.04.01.04.01.04v.05l.01.05V44zm-.61 5.54V44h.61v5.54h-.61zm-.3.9v-.6h.03l.01-.01h.03l.02-.01h.01l.02-.01h.01l.01-.01.01-.01h.01l.01-.01.02-.01.02-.02.01-.01.01-.01.01-.02.01-.01.01-.01v-.01l.01-.01v-.02l.01-.01.01-.01v-.04l.01-.01v-.04h.61v.04l-.01.05v.05l-.01.04-.01.04-.01.04-.02.05-.01.04-.02.04-.02.04-.03.04-.02.03-.03.04-.02.03-.02.03-.04.04-.04.03-.03.03-.03.02-.03.03-.04.02-.04.02-.04.03-.04.01-.04.02-.04.01-.04.01-.05.02h-.04l-.05.01h-.09zm-10.73-.6h10.73v.6H123.6v-.6zm-.91-.3h.6v.02l.01.02v.04l.01.02.01.01.01.02v.01l.01.01.01.02.02.02v.01h.01l.01.02.02.01.01.01.02.01.02.01.01.01h.01l.01.01h.01l.02.01h.04l.01.01h.03v.6h-.1l-.05-.01h-.04l-.04-.02-.04-.01-.05-.01-.04-.02-.03-.01-.05-.03-.03-.02-.04-.02-.04-.03-.04-.03-.02-.02-.03-.03-.04-.03-.03-.05-.02-.02-.02-.03-.03-.04-.03-.05-.01-.03-.02-.04-.02-.04-.01-.04-.01-.05-.02-.04v-.04l-.01-.05v-.09zm.6-5.54v5.54h-.6V44h.6zm.31-.91v.61h-.08l-.02.01h-.01l-.01.01h-.01l-.01.01-.02.01-.02.01-.01.01-.02.02-.01.01h-.01v.01l-.02.02-.01.02-.01.01v.01l-.01.02-.01.02-.01.02v.03l-.01.02V44h-.6v-.1l.01-.05v-.04l.02-.04.01-.05.02-.04.01-.04.01-.03.02-.04.03-.05.03-.04.02-.03.02-.02.03-.05.04-.03.03-.03.02-.02.04-.03.04-.03.04-.02.03-.02.05-.02.03-.02.04-.02.05-.01.04-.01.04-.01.04-.01.05-.01h.1zm-13.33.61H99.54v-.61h10.73v.61zm.91.3h-.61v-.05l-.01-.01v-.02l-.01-.01v-.01l-.01-.02v-.02h-.01l-.01-.02v-.01l-.01-.01-.01-.02-.02-.01v-.01l-.02-.02-.02-.01h-.01l-.01-.01-.01-.01-.01-.01h-.01l-.02-.01h-.01l-.02-.01h-.07v-.61h.09l.05.01.04.01.05.01.04.01.04.01.04.02.04.02.04.02.04.02.04.02.03.03.03.03.03.02.04.03.03.04.03.03.02.03.03.04.02.03.02.04.03.05.01.03.02.04.02.05.01.04.01.04.01.04v.05l.01.05V44zm-.61 5.54V44h.61v5.54h-.61zm-.3.9v-.6h.03l.01-.01h.03l.02-.01h.01l.02-.01h.01l.01-.01.01-.01h.01l.01-.01.02-.01.02-.02v-.01l.02-.01.01-.02.01-.01v-.01l.01-.01.01-.01v-.02l.01-.01v-.01l.01-.02v-.02l.01-.01v-.04h.61v.04l-.01.05v.05l-.01.04-.01.04-.01.04-.02.05-.02.04-.01.04-.03.04-.02.04-.02.03-.03.04-.02.03-.03.03-.03.04-.04.03-.03.03-.03.02-.03.03-.04.02-.04.02-.04.03-.04.01-.04.02-.04.01-.04.01-.05.02h-.04l-.05.01h-.09zm-10.73-.6h10.73v.6H99.54v-.6zm-.91-.3h.6v.02l.01.02v.03l.01.02v.01l.01.01v.02l.01.01.01.01.01.01v.01l.01.02.02.01v.01h.01l.01.02.02.01.01.01h.01l.02.01v.01h.02l.02.01h.01l.01.01h.03l.02.01h.03v.6h-.1l-.05-.01h-.04l-.04-.02-.04-.01-.05-.01-.04-.02-.03-.01-.05-.03-.04-.02-.03-.02-.04-.03-.03-.02-.03-.03-.04-.03-.03-.04-.02-.03-.03-.03-.03-.04-.02-.03-.02-.04-.02-.04-.02-.04-.02-.04-.01-.05-.01-.04-.01-.04-.01-.04-.01-.05v-.09zm.6-5.54v5.54h-.6V44h.6zm.31-.91v.61h-.08l-.01.01h-.01l-.02.01-.02.01-.02.01-.01.01h-.01l-.02.01-.01.02h-.01v.01l-.02.01-.01.02v.01l-.01.01-.01.02-.01.02-.01.02v.01l-.01.01v.03l-.01.02V44h-.6v-.1l.01-.05.01-.04.01-.04.01-.04.01-.05.02-.04.01-.03.03-.05.02-.04.02-.03.03-.04.03-.03.02-.03.03-.04.04-.03.03-.02.03-.03.04-.03.03-.02.04-.02.05-.03.03-.01.04-.02.05-.01.04-.01.04-.01.04-.01.05-.01h.1zm-13.42.61H75.39v-.61h10.73v.61zm.91.3h-.61v-.08l-.01-.01v-.01l-.01-.02-.01-.02-.01-.02-.01-.01v-.01l-.02-.02-.01-.01v-.01h-.01l-.02-.02-.01-.01h-.01l-.01-.01-.02-.01-.01-.01h-.01l-.02-.01h-.01l-.01-.01h-.08v-.61h.1l.05.01.04.01.04.01.04.01.04.01.05.02.03.02.05.02.03.02.04.02.04.03.03.03.03.02.04.03.03.04.02.03.03.03.03.04.02.03.02.04.03.05.01.03.01.04.02.05.01.04.01.04.01.04.01.05v.1zm-.61 5.54V44h.61v5.54h-.61zm-.3.9v-.6h.03l.01-.01h.04l.01-.01h.01l.02-.01h.01l.01-.01.02-.01h.01l.01-.01.01-.01.02-.02h.01v-.01l.01-.01.02-.02v-.01l.01-.01.01-.01v-.01l.01-.02.01-.01v-.01l.01-.02v-.07h.61v.09l-.01.05-.01.04-.01.04-.01.04-.01.05-.02.04-.02.04-.02.04-.02.04-.02.03-.03.04-.03.03-.02.03-.03.04-.04.03-.03.03-.03.02-.04.03-.04.02-.03.02-.05.03-.03.01-.05.02-.04.01-.04.01-.04.02h-.04l-.05.01h-.1zm-10.73-.6h10.73v.6H75.39v-.6zm-.91-.3h.61v.05l.01.02v.03l.01.01.01.02v.01l.01.01.01.01v.01l.02.02.01.01.01.01.02.02.01.01.01.01h.01l.02.01v.01h.02l.02.01h.01l.01.01h.04l.01.01h.03v.6h-.09l-.05-.01h-.05l-.04-.02-.04-.01-.05-.01-.03-.02-.04-.01-.05-.03-.03-.02-.04-.02-.04-.03-.03-.02-.03-.03-.03-.03-.04-.04-.02-.03-.03-.03-.02-.04-.03-.03-.02-.04-.02-.04-.02-.04-.02-.04-.01-.05-.01-.04-.01-.04-.01-.04-.01-.05v-.09zm.61-5.54v5.54h-.61V44h.61zm.3-.91v.61h-.08l-.01.01h-.01l-.02.01-.02.01-.02.01-.01.01h-.01l-.01.01-.02.02-.01.01-.01.01-.02.02v.01l-.01.01-.01.02-.01.02-.01.02v.02l-.01.02V44h-.61v-.1l.01-.05.01-.04.01-.04.01-.04.02-.05.01-.04.02-.03.02-.05.02-.04.03-.03.02-.04.03-.03.02-.03.04-.04.03-.03.03-.02.03-.03.04-.03.04-.02.03-.02.05-.03.04-.01.03-.02.05-.01.04-.01.04-.01.05-.01.05-.01h.09z"/><path fill="#F08BB2" d="M72.14 20.57h39.28c.96 0 1.74.78 1.74 1.74v22.35c0 .96-.79 1.74-1.74 1.74H72.14c-.96 0-1.74-.78-1.74-1.74V22.31c0-.96.78-1.74 1.74-1.74z"/><path fill="#2B2A29" fill-rule="nonzero" d="M111.42 20.87H72.14v-.6h39.28v.6zm2.04 1.44h-.61v-.14l-.01-.08-.02-.07-.01-.07-.02-.07-.02-.06-.03-.07-.03-.06-.03-.06-.03-.07-.04-.05-.04-.06-.04-.05-.05-.06-.05-.05-.05-.04-.05-.05-.06-.04-.05-.04-.06-.04-.06-.03-.06-.03-.07-.04-.06-.02-.07-.02-.06-.02-.07-.02-.08-.01-.07-.01-.07-.01h-.07v-.6h.1l.11.01.1.01.1.02.1.02.09.03.1.03.09.04.09.04.09.04.08.05.09.05.08.06.08.07.07.06.07.06.07.08.06.07.06.08.06.08.05.08.05.08.05.1.04.08.04.1.03.09.03.1.02.1.02.1.01.1.01.11v.1zm-.61 22.35V22.31h.61v22.35h-.61zm-1.43 2.04v-.6l.07-.01h.07l.07-.01.08-.01.06-.02.07-.02.07-.02.06-.03.07-.03.06-.03.06-.03.06-.04.05-.04.06-.04.05-.05.05-.05.05-.05.04-.05.05-.05.04-.06.04-.06.03-.06.03-.06.03-.07.03-.06.02-.06.02-.07.01-.07.02-.08.01-.07v-.14h.61v.1l-.01.11-.01.1-.02.1-.02.1-.03.1-.03.09-.04.09-.04.09-.05.09-.05.09-.05.08-.06.08-.06.08-.06.07-.07.07-.07.07-.08.07-.07.06-.08.05-.09.06-.08.05-.09.04-.09.04-.09.04-.1.03-.09.03-.1.02-.1.02-.1.01-.11.01h-.1zm-39.28-.6h39.28v.6H72.14v-.6zm-2.05-1.44h.61v.07l.01.07.01.07.01.08.02.07.01.07.03.06.02.06.03.07.03.06.04.06.04.06.04.06.04.05.04.05.05.05.05.05.05.05.06.04.06.04.05.04.06.03.07.03.06.03.06.03.07.02.07.02.06.02.08.01.07.01h.07l.08.01v.6h-.11l-.11-.01-.1-.01-.09-.02-.1-.02-.1-.03-.1-.03-.09-.04-.09-.04-.09-.04-.08-.05-.09-.06-.07-.05-.08-.06-.08-.07-.07-.07-.06-.07-.07-.07-.06-.08-.06-.08-.05-.08-.05-.09-.05-.09-.04-.09-.03-.09-.04-.09-.03-.1-.02-.1-.01-.1-.02-.1-.01-.11v-.1zm.61-22.35v22.35h-.61V22.31h.61zm1.44-2.04v.6h-.08l-.07.01-.07.01-.08.01-.06.02-.07.02-.07.02-.06.02-.06.04-.07.03-.06.03-.05.04-.06.04-.06.04-.05.05-.05.04-.05.06-.04.05-.04.05-.04.06-.04.06-.04.06-.03.06-.03.06-.02.07-.03.06-.01.07-.02.07-.01.07-.01.08-.01.07v.07h-.61v-.1l.01-.11.02-.1.01-.1.02-.1.03-.1.04-.09.03-.1.04-.08.05-.1.05-.08.05-.08.06-.08.06-.08.07-.07.06-.08.07-.06.08-.07.08-.06.07-.05.09-.06.08-.05.09-.04.09-.04.09-.04.1-.03.1-.03.1-.02.09-.02.1-.01.11-.01h.11z"/><path fill="#F08BB2" d="M74.5 15.24h10.73c.33 0 .6.28.6.61v5.54c0 .33-.27.61-.6.61H74.5c-.34 0-.61-.28-.61-.61v-5.54c0-.33.27-.61.61-.61zm23.97 0h10.73c.34 0 .61.28.61.61v5.54c0 .33-.27.61-.61.61H98.47c-.33 0-.61-.28-.61-.61v-5.54c0-.33.28-.61.61-.61z"/><path fill="#2B2A29" fill-rule="nonzero" d="M85.23 15.55H74.5v-.61h10.73v.61zm.91.3h-.61v-.04l-.01-.02v-.02l-.01-.01v-.01l-.01-.02v-.02h-.01v-.02l-.01-.01-.01-.01-.01-.01-.02-.02v-.01l-.02-.01-.02-.02h-.01l-.01-.01-.01-.01h-.01l-.01-.01-.02-.01h-.03l-.01-.01h-.06v-.61h.09l.05.01.04.01.05.01.04.01.04.01.04.02.04.02.04.02.04.02.04.03.03.02.03.03.03.02.04.04.03.03.03.03.02.03.03.04.02.04.03.03.02.05.02.04.01.03.02.05.01.04.01.04.01.05v.05l.01.05v.04zm-.61 5.54v-5.54h.61v5.54h-.61zm-.3.91v-.61h.06l.01-.01h.02l.01-.01h.02l.01-.01h.01l.01-.01.01-.01.01-.01.02-.01.02-.01v-.01l.02-.02.01-.02h.01l.01-.01v-.02l.01-.01v-.01l.01-.02v-.01l.01-.01v-.02l.01-.02v-.04h.61v.04l-.01.05v.05l-.01.05-.01.04-.01.04-.02.04-.01.04-.02.04-.02.05-.03.03-.02.04-.03.04-.02.03-.03.03-.03.03-.04.04-.03.02-.03.03-.03.02-.04.03-.04.02-.04.02-.04.02-.04.01-.04.02-.04.01-.05.01-.04.01h-.05l-.05.01h-.04zm-10.73-.61h10.73v.61H74.5v-.61zm-.91-.3h.61v.08l.01.01v.01l.01.02v.01l.01.01.01.02.01.01.01.02.02.02.01.01.01.01.02.01.01.01.01.01.02.01.02.01.02.01h.02l.02.01h.06v.61h-.05l-.05-.01h-.05l-.04-.01-.04-.01-.04-.01-.05-.02-.04-.01-.03-.02-.05-.02-.04-.02-.03-.03-.04-.02-.03-.03-.03-.02-.04-.04-.03-.03-.02-.03-.03-.03-.03-.04-.02-.04-.02-.03-.02-.05-.02-.04-.02-.04-.01-.04-.01-.04-.01-.04-.01-.05-.01-.05v-.09zm.61-5.54v5.54h-.61v-5.54h.61zm.3-.91v.61H74.44l-.02.01h-.02l-.02.01-.02.01-.02.01-.01.01h-.01l-.02.02-.01.01-.01.01-.02.02-.01.01v.01l-.01.01-.01.02-.01.02-.01.02v.01l-.01.01v.08h-.61v-.09l.01-.05.01-.05.01-.04.01-.04.01-.05.02-.03.01-.04.03-.05.02-.03.02-.04.03-.04.03-.03.02-.03.03-.03.04-.04.03-.02.03-.03.04-.02.03-.03.04-.02.05-.02.03-.02.04-.01.05-.02.04-.01.04-.01.04-.01.05-.01h.1zm34.7.61H98.47v-.61h10.73v.61zm.91.3h-.61v-.08l-.01-.01v-.01l-.01-.02-.01-.02-.01-.02-.01-.01v-.01l-.02-.01-.01-.02h-.01v-.01l-.02-.01-.01-.02h-.01l-.01-.01-.02-.01h-.01l-.01-.01-.02-.01h-.02l-.02-.01h-.06v-.61h.09l.06.01.04.01.04.01.04.01.04.01.05.02.03.02.05.02.03.02.04.03.04.02.03.03.03.02.04.04.03.03.02.03.03.03.03.04.02.04.02.03.02.05.02.04.01.03.02.05.01.04.01.04.01.05.01.05v.09zm-.61 5.54v-5.54h.61v5.54h-.61zm-.3.91v-.61h.06l.02-.01h.01l.01-.01h.02l.01-.01h.01l.02-.01.01-.01.01-.01.01-.01.02-.01v-.01h.01l.01-.02.02-.02.01-.01.01-.02v-.01l.01-.01.01-.02v-.01l.01-.01v-.08h.61v.09l-.01.05-.01.05-.01.04-.01.04-.01.04-.02.04-.02.04-.02.05-.02.03-.02.04-.03.04-.03.03-.02.03-.03.03-.04.04-.03.02-.03.03-.04.02-.04.03-.03.02-.05.02-.03.02-.05.01-.04.02-.04.01-.04.01-.04.01h-.06l-.05.01h-.04zm-10.73-.61h10.73v.61H98.47v-.61zm-.91-.3h.61v.06l.01.02v.02l.01.02.01.01v.01l.01.02.01.01.02.02.01.02h.01v.01l.02.01.01.01.01.01.01.01.02.01.02.01.02.01h.02l.02.01h.06v.61h-.04l-.05-.01h-.05l-.05-.01-.04-.01-.04-.01-.05-.02-.03-.01-.04-.02-.05-.02-.03-.02-.04-.03-.04-.02-.03-.03-.03-.02-.03-.04-.04-.03-.02-.03-.03-.03-.02-.04-.03-.04-.02-.03-.02-.05-.02-.04-.02-.04-.01-.04-.01-.04-.01-.04-.01-.05-.01-.05v-.09zm.61-5.54v5.54h-.61v-5.54h.61zm.3-.91v.61h-.06l-.02.01h-.02l-.02.01-.02.01-.02.01-.01.01h-.01l-.01.02-.02.01v.01h-.01l-.01.02-.02.01v.01l-.01.01-.01.02-.01.02-.01.02v.02l-.01.02v.06h-.61v-.09l.01-.05.01-.05.01-.04.01-.04.02-.05.01-.03.02-.04.02-.05.02-.03.03-.04.02-.04.03-.03.02-.03.04-.03.03-.04.03-.02.03-.03.04-.02.04-.03.03-.02.05-.02.04-.02.03-.01.05-.02.04-.01.04-.01.05-.01.05-.01h.09z"/></svg>