<svg xmlns="http://www.w3.org/2000/svg" width="129" height="70" fill-rule="evenodd" clip-rule="evenodd" image-rendering="optimizeQuality" shape-rendering="geometricPrecision" text-rendering="geometricPrecision" viewBox="0 0 19.45 10.61"><path fill="#A1B567" d="M17.25 3.7c-.42 0 0 0 0 0zm.05 1.17c.43.12 1.08 1.04 1.08 1.22 0 .27.24.49.53.49.29 0 .53-.22.53-.49.11-1-1.9-2.39-2.19-2.39l-2.5.03c-.3 0-2.31 1.4-2.2 2.4 0 .27.24.49.53.49.29 0 .53-.22.53-.49 0-.16.52-.83.94-1.14-.38.63-.76 1.66-.76 2.15-.15 1.02.29 3.46.85 3.46 1.04 0 .95-.51.74-1.15-.17-.49.31-1.03.69-1.03.32 0 .49.27.59.78.1.54-.76 1.47.68 1.34.98-.36.89-2.95.89-3.47s-.37-1.62-.93-2.2zm-2.55-1.14z"/><path fill="none" fill-rule="nonzero" stroke="#2B2A29" stroke-miterlimit="22.9256" stroke-width=".14" d="M17.25 3.7c-.42 0 0 0 0 0zm.05 1.17c.43.12 1.08 1.04 1.08 1.22 0 .27.24.49.53.49.29 0 .53-.22.53-.49.11-1-1.9-2.39-2.19-2.39l-2.5.03c-.3 0-2.31 1.4-2.2 2.4 0 .27.24.49.53.49.29 0 .53-.22.53-.49 0-.16.52-.83.94-1.14-.38.63-.76 1.66-.76 2.15-.15 1.02.29 3.46.85 3.46 1.04 0 .95-.51.74-1.15-.17-.49.31-1.03.69-1.03.32 0 .49.27.59.78.1.54-.76 1.47.68 1.34.98-.36.89-2.95.89-3.47s-.37-1.62-.93-2.2zm-2.55-1.14s0 0 0 0z"/><path fill="#F08BB2" d="M13.9 6.5c1.49.23 3.19.28 4.2-.14.08.28.13.53.13.71 0 .3.03 1.28-.13 2.13-.38.08-.87.03-1.47-.15-.1-.41-.28-.63-.56-.63-.26 0-.58.27-.69.6-.52.1-1.01.14-1.45.11-.15-.71-.21-1.51-.14-1.99 0-.16.04-.39.11-.64z"/><path fill="none" fill-rule="nonzero" stroke="#2B2A29" stroke-miterlimit="22.9256" stroke-width=".14" d="M13.9 6.5c1.49.23 3.19.28 4.2-.14.08.28.13.53.13.71 0 .3.03 1.28-.13 2.13-.38.08-.87.03-1.47-.15-.1-.41-.28-.63-.56-.63-.26 0-.58.27-.69.6-.52.1-1.01.14-1.45.11-.15-.71-.21-1.51-.14-1.99 0-.16.04-.39.11-.64z"/><path fill="#F5B2B6" d="M13.9 6.5c1.49.23 3.19.28 4.2-.14.08.26.12.5.13.68-1.52.25-3.01.28-4.44.02.01-.16.05-.35.11-.56z"/><path fill="none" fill-rule="nonzero" stroke="#2B2A29" stroke-miterlimit="22.9256" stroke-width=".14" d="M13.9 6.5c1.49.23 3.19.28 4.2-.14.08.26.12.5.13.68-1.52.25-3.01.28-4.44.02.01-.16.05-.35.11-.56z"/><path fill="#A1B567" d="M15.98.31c.69 0 1.39.51 1.72 1.29.07.15.39.41.4.99.01.57-.37 1.02-1.02 1.14-.32.07-.66.1-1.03.1-.44 0-.8 0-1.24-.08-.63-.12-.99-.59-.99-1.2 0-.62.35-.93.54-1.24.21-.59.94-1 1.62-1z"/><path fill="none" fill-rule="nonzero" stroke="#2B2A29" stroke-miterlimit="22.9256" stroke-width=".14" d="M15.98.31c.69 0 1.39.51 1.72 1.29.07.15.39.41.4.99.01.57-.37 1.02-1.02 1.14-.32.07-.66.1-1.03.1-.44 0-.8 0-1.24-.08-.63-.12-.99-.59-.99-1.2 0-.62.35-.93.54-1.24.21-.59.94-1 1.62-1z"/><path fill="#2B2A29" d="M15.94 2.1c.22 0 .4.08.48.19-.28.13-.33.41-.48.42-.17 0-.24-.24-.5-.4.07-.12.27-.21.5-.21z"/><path fill="#2B2A29" fill-rule="nonzero" d="M15.94 2.08c.11 0 .21.02.3.05.09.03.16.08.2.14l.02.03-.03.01c-.14.07-.23.18-.29.27-.07.08-.12.15-.2.15-.11 0-.17-.07-.26-.17-.07-.08-.14-.16-.25-.23l-.02-.01.01-.02c.04-.07.11-.13.2-.16.09-.04.2-.06.32-.06zm.28.09c-.08-.03-.18-.05-.28-.05-.11 0-.21.02-.3.06-.07.03-.13.07-.16.12.1.07.17.15.24.22.07.09.14.16.22.16.06 0 .1-.06.16-.13.06-.09.14-.2.28-.27-.03-.04-.09-.08-.16-.11z"/><path fill="#2B2A29" fill-rule="nonzero" d="M14.88 2.68c.07.18.16.32.28.42.11.09.24.15.4.15.06 0 .13-.01.2-.03.05-.02.09-.05.12-.09.02-.05.02-.12.03-.2 0-.08-.01-.16-.01-.22l.04-.01c.01.07.01.15.01.23 0 .09-.01.17-.03.22v.01c-.04.05-.09.08-.15.11-.06.02-.14.03-.21.03-.17-.01-.31-.06-.43-.16-.12-.11-.22-.25-.3-.44l.05-.02z"/><path fill="#2B2A29" fill-rule="nonzero" d="M14.9 2.67c.03.09.08.17.12.24.05.07.1.12.15.17.06.05.12.08.18.11.07.02.14.03.21.04.03 0 .06 0 .1-.01.03 0 .06-.01.09-.02.02-.01.04-.02.06-.04.02-.01.03-.02.05-.04 0-.02.01-.05.01-.08.01-.03.01-.07.01-.11v-.11c0-.04-.01-.08-.01-.11v-.03h.1v.02c0 .03 0 .07.01.11v.12c0 .05 0 .09-.01.13-.01.04-.01.07-.03.1v.01c-.02.03-.04.05-.07.07-.02.02-.06.04-.09.05-.03.01-.07.02-.11.03h-.11c-.09 0-.17-.02-.24-.04-.08-.03-.15-.07-.21-.12-.06-.06-.12-.12-.17-.2-.05-.07-.09-.16-.13-.25l-.01-.03.09-.03.01.02zm.01.13c-.02-.03-.03-.06-.05-.09.02.03.03.06.05.09zm.65.47zm.21-.03zm.13-.1c.01-.01.01-.03.01-.05 0 .02 0 .04-.01.05zm.03-.33v0c0-.03-.01-.05-.01-.08 0 .02.01.05.01.08zm0 .11v.01-.01z"/><path fill="#2B2A29" fill-rule="nonzero" d="M14.71 2.88c.01-.08.05-.15.1-.2.04-.06.11-.1.19-.12l.02.04c-.08.03-.14.06-.18.11-.04.05-.07.1-.08.18l-.05-.01z"/><path fill="#2B2A29" fill-rule="nonzero" d="M14.69 2.87c0-.04.02-.08.03-.11.02-.04.04-.07.07-.1.02-.03.05-.05.09-.07.03-.03.07-.04.12-.06h.02l.03.09-.02.01c-.04.01-.07.02-.1.04-.03.01-.05.03-.07.05-.02.03-.04.05-.05.08l-.03.09v.02l-.1-.01.01-.03zm.13-.18c0 .01-.01.02-.02.03.01-.01.02-.02.02-.03zm.02-.02c0 .01-.01.02-.02.02.01 0 .02-.01.02-.02zM17.01 2.71c-.08.19-.17.34-.3.44-.12.1-.26.16-.43.16-.07.01-.15 0-.21-.03-.06-.02-.11-.06-.15-.11-.02-.06-.03-.14-.03-.22 0-.08 0-.17.01-.23h.05c-.01.07-.02.15-.01.23 0 .07 0 .15.02.2.03.04.07.07.13.08.06.03.13.04.19.03.16 0 .29-.05.4-.15.12-.09.21-.23.28-.42l.05.02z"/><path fill="#2B2A29" fill-rule="nonzero" d="M17.03 2.72c-.04.1-.08.18-.13.26-.05.07-.11.14-.17.19-.06.05-.13.09-.21.12-.07.03-.15.04-.23.05-.04 0-.08 0-.12-.01-.04 0-.08-.01-.11-.03-.03-.01-.06-.03-.09-.05-.03-.01-.05-.04-.07-.06v-.01c-.02-.03-.02-.07-.03-.11 0-.04-.01-.08-.01-.12 0-.04 0-.09.01-.13v-.13l.1.01v.02c0 .04-.01.07-.01.11v.12c0 .03 0 .07.01.1 0 .03.01.06.01.09.02.01.03.03.05.04l.06.03c.03.01.06.02.09.02.04.01.07.01.1.01.08 0 .14-.02.21-.04.06-.02.12-.06.18-.1.05-.05.1-.11.15-.18.04-.07.09-.14.12-.23l.01-.03.09.04-.01.02zm-.09.1c.01-.03.02-.06.04-.09-.02.03-.03.06-.04.09zm-.66.47zM16 3.22zm-.07-.08l.01.02-.01-.02zm-.02-.31v.04-.04c.01-.03.01-.06.01-.09 0 .03 0 .06-.01.09zm.09.39v-.01.01z"/><path fill="#2B2A29" fill-rule="nonzero" d="M17.05 2.9c-.01-.07-.04-.13-.08-.18-.04-.04-.1-.08-.18-.1l.02-.05c.08.03.15.07.2.12.05.05.08.12.09.2l-.05.01z"/><path fill="#2B2A29" fill-rule="nonzero" d="M17.03 2.9L17 2.81c-.01-.02-.03-.05-.05-.07-.02-.02-.04-.04-.07-.06-.03-.01-.06-.03-.09-.04l-.03-.01.03-.09.03.01c.04.01.08.03.11.05.04.02.07.05.09.07.03.03.05.07.07.1.02.04.03.08.04.12v.02l-.1.02V2.9zm-.04-.19c.01 0 .01.01.02.02-.01-.01-.01-.02-.02-.02zm-.02-.02c.01 0 .01.01.02.02-.01-.01-.01-.02-.02-.02z"/><path fill="#A1B567" d="M14.15 0c.4 0 .73.25.84.59-.29.18-.53.43-.63.72-.09.15-.22.29-.33.47-.38.02-.87-.14-.84-.9.03-.56.47-.88.96-.88z"/><path fill="none" fill-rule="nonzero" stroke="#2B2A29" stroke-miterlimit="22.9256" stroke-width=".14" d="M14.15 0c.4 0 .73.25.84.59-.29.18-.53.43-.63.72-.09.15-.22.29-.33.47-.38.02-.87-.14-.84-.9.03-.56.47-.88.96-.88z"/><path fill="#A1B567" d="M17.72.01c-.39 0-.73.25-.84.59.22.13.41.3.54.51.09.13.18.27.25.42.05.08.11.16.17.25.38.02.87-.13.84-.89-.03-.56-.47-.88-.96-.88z"/><path fill="none" fill-rule="nonzero" stroke="#2B2A29" stroke-miterlimit="22.9256" stroke-width=".14" d="M17.72.01c-.39 0-.73.25-.84.59.22.13.41.3.54.51.09.13.18.27.25.42.05.08.11.16.17.25.38.02.87-.13.84-.89-.03-.56-.47-.88-.96-.88z"/><path fill="#2B2A29" d="M15.6 1.33c.08 0 .12.1.11.23-.01.12 0 .2-.16.22-.15.02-.17-.09-.16-.21.02-.13.14-.24.21-.24z"/><path fill="#2B2A29" fill-rule="nonzero" d="M15.6 1.31h.02c.03 0 .07.03.09.06.02.04.03.09.03.14 0 .02 0 .03-.01.05v.04c-.01.11-.02.18-.18.21-.09.01-.14-.02-.16-.07-.03-.05-.03-.11-.02-.18 0-.06.04-.12.08-.17.05-.05.11-.08.15-.08zm.01.04h-.01c-.03 0-.08.03-.12.08-.03.04-.06.09-.07.14 0 .06 0 .11.02.15.02.03.05.05.12.04.12-.02.12-.08.13-.17l.01-.04v-.04c0-.04-.01-.08-.03-.11-.01-.03-.03-.04-.05-.05z"/><path fill="#2B2A29" d="M16.28 1.33c-.07 0-.12.1-.1.23.01.12 0 .2.16.22.15.02.17-.09.16-.21-.02-.13-.14-.24-.22-.24z"/><path fill="#2B2A29" fill-rule="nonzero" d="M16.28 1.36c-.02 0-.04.01-.06.04-.01.03-.02.07-.02.11v.04l.01.04c.01.09.01.15.13.17.07.01.1-.01.12-.04.02-.04.02-.09.01-.15 0-.05-.03-.1-.07-.14-.04-.05-.08-.07-.12-.07zm-.01-.05h.01c.05 0 .11.03.16.09.04.04.07.1.08.16.01.07.01.14-.02.18-.02.05-.08.08-.17.07-.15-.03-.16-.1-.17-.21l-.01-.04v-.05c0-.05.01-.1.03-.13.02-.04.05-.07.09-.07z"/><path fill="#C4D985" d="M14.18.72c.18 0 .32.12.38.24-.09.11-.16.23-.2.35-.04.06-.08.11-.12.17h-.02c-.11 0-.41-.19-.41-.39 0-.21.2-.37.37-.37z"/><path fill="none" fill-rule="nonzero" stroke="#2B2A29" stroke-miterlimit="22.9256" stroke-width=".14" d="M14.18.72c.18 0 .32.12.38.24-.09.11-.16.23-.2.35-.04.06-.08.11-.12.17h-.02c-.11 0-.41-.19-.41-.39 0-.21.2-.37.37-.37z"/><path fill="#C4D985" d="M17.69.73c-.18 0-.32.11-.37.24.03.04.07.09.1.14.08.11.16.24.23.38.11 0 .41-.2.41-.4s-.19-.36-.37-.36z"/><path fill="none" fill-rule="nonzero" stroke="#2B2A29" stroke-miterlimit="22.9256" stroke-width=".14" d="M17.69.73c-.18 0-.32.11-.37.24.03.04.07.09.1.14.08.11.16.24.23.38h0c.11 0 .41-.2.41-.4s-.19-.36-.37-.36z"/><path fill="#F08BB2" d="M15.42 4.05c.19 0 .54.19.54.42 0 .23-.47.43-.66.43-.2 0-.3-.18-.23-.44.08-.25.16-.41.35-.41zm1.14-.01c-.19 0-.54.19-.54.42 0 .23.47.43.67.43.19 0 .3-.18.22-.44-.08-.26-.16-.41-.35-.41z"/><path fill="none" fill-rule="nonzero" stroke="#2B2A29" stroke-miterlimit="22.9256" stroke-width=".14" d="M15.42 4.05c.19 0 .54.19.54.42 0 .23-.47.43-.66.43-.2 0-.3-.18-.23-.44.08-.25.16-.41.35-.41zm1.14-.01c-.19 0-.54.19-.54.42 0 .23.47.43.67.43.19 0 .3-.18.22-.44-.08-.26-.16-.41-.35-.41z"/><path fill="#FEFEFE" d="M15.55 1.41c.03 0 .05.02.05.04s-.02.04-.05.04c-.02 0-.04-.02-.04-.04s.02-.04.04-.04zM16.26 1.4c.03 0 .05.02.05.04 0 .03-.02.04-.05.04-.02 0-.04-.01-.04-.04 0-.02.02-.04.04-.04z"/><path fill="#F08BB2" d="M15.91 4.16h.18c.07 0 .12.05.12.12l.05.35c.01.07-.05.12-.12.12h-.28c-.07 0-.13-.05-.12-.12l.05-.35c.01-.07.05-.12.12-.12z"/><path fill="none" fill-rule="nonzero" stroke="#2B2A29" stroke-miterlimit="22.9256" stroke-width=".14" d="M15.91 4.16h.18c.07 0 .12.05.12.12l.05.35c.01.07-.05.12-.12.12h-.28c-.07 0-.13-.05-.12-.12l.05-.35c.01-.07.05-.12.12-.12z"/><path fill="#F5B2B6" d="M7.14 4.89c-.5 0 0 0 0 0zm.07 1.43c.52.14 1.31 1.26 1.31 1.48 0 .33.29.6.65.6.35 0 .64-.27.64-.6.14-1.21-2.31-2.91-2.67-2.91l-3.04.05c-.35 0-2.81 1.69-2.67 2.9 0 .33.29.6.65.6.35 0 .64-.27.64-.6 0-.18.63-1.01 1.14-1.37-.46.76-1.04 2.01-1.04 2.61 0 .59.8 1.29 1.48 1.29 1.1 0 1.32-.11 1.47-.12.18 0 .25.11 1.52.11.8 0 1.34-.74 1.34-1.37 0-.63-.74-1.97-1.42-2.67zM4.1 4.94z"/><path fill="none" fill-rule="nonzero" stroke="#2B2A29" stroke-miterlimit="22.9256" stroke-width=".14" d="M7.14 4.89c-.5 0 0 0 0 0zm.07 1.43c.52.14 1.31 1.26 1.31 1.48 0 .33.29.6.65.6.35 0 .64-.27.64-.6.14-1.21-2.31-2.91-2.67-2.91l-3.04.05c-.35 0-2.81 1.69-2.67 2.9 0 .33.29.6.65.6.35 0 .64-.27.64-.6 0-.18.63-1.01 1.14-1.37-.46.76-1.04 2.01-1.04 2.61 0 .59.8 1.29 1.48 1.29 1.1 0 1.32-.11 1.47-.12.18 0 .25.11 1.52.11.8 0 1.34-.74 1.34-1.37 0-.63-.74-1.97-1.42-2.67zM4.1 4.94s0 0 0 0z"/><path fill="#F5B2B6" d="M6.85 7.61c.61.02 1.22.59 1.22 1.35 0 .76-.2 1.18-.74 1.31-.54.13-1.47-.51-1.5-1.29-.04-.78.24-1.25 1.02-1.37z"/><path fill="none" fill-rule="nonzero" stroke="#2B2A29" stroke-miterlimit="22.9256" stroke-width=".14" d="M6.85 7.61c.61.02 1.22.59 1.22 1.35 0 .76-.2 1.18-.74 1.31-.54.13-1.47-.51-1.5-1.29-.04-.78.24-1.25 1.02-1.37z"/><path fill="#F5B2B6" d="M5.12 7.82c-.59-.17-1.35.17-1.59.89-.25.72-.19 1.18.28 1.48.46.3 1.55-.01 1.83-.74.29-.73.17-1.26-.52-1.63z"/><path fill="none" fill-rule="nonzero" stroke="#2B2A29" stroke-miterlimit="22.9256" stroke-width=".14" d="M5.12 7.82c-.59-.17-1.35.17-1.59.89-.25.72-.19 1.18.28 1.48.46.3 1.55-.01 1.83-.74.29-.73.17-1.26-.52-1.63z"/><path fill="#F5B2B6" d="M7.57.68c-.66.02-.69.23-.79.55.27.16.49.4.59.67.09.14.21.27.31.44.33-1.16 2.13 3.44 3.1 2.59C10.76 4.4 8.89.72 7.57.68z"/><path fill="none" fill-rule="nonzero" stroke="#2B2A29" stroke-miterlimit="22.9256" stroke-width=".14" d="M7.57.68c-.66.02-.69.23-.79.55.27.16.49.4.59.67.09.14.21.27.31.44.33-1.16 2.13 3.44 3.1 2.59C10.76 4.4 8.89.72 7.57.68z"/><path fill="#FEFEFE" d="M7.54 1.2c-.57.05-.41.31-.35.37.17.29.13.3.31.49.08-.14.29-.24.47-.14.74.42 2.03 2.59 2.21 2.46.22-.16-1.86-3.37-2.64-3.18z"/><path fill="none" fill-rule="nonzero" stroke="#2B2A29" stroke-miterlimit="22.9256" stroke-width=".14" d="M7.54 1.2c-.57.05-.41.31-.35.37.17.29.13.3.31.49.08-.14.29-.24.47-.14.74.42 2.03 2.59 2.21 2.46.22-.16-1.86-3.37-2.64-3.18z"/><path fill="#2B2A29" fill-rule="nonzero" d="M4.05 3.94c.01-.09.05-.17.11-.24.06-.06.13-.11.23-.14l.02.06c-.09.03-.16.07-.21.12-.05.06-.08.13-.1.21l-.05-.01z"/><path fill="none" fill-rule="nonzero" stroke="#2B2A29" stroke-miterlimit="22.9256" stroke-width=".14" d="M4.05 3.94c.01-.09.05-.17.11-.24.06-.06.13-.11.23-.14l.02.06c-.09.03-.16.07-.21.12-.05.06-.08.13-.1.21l-.05-.01z"/><path fill="#F5B2B6" d="M3.51.58c.72.02.75.25.87.6-.3.18-.54.43-.65.74-.1.14-.22.29-.33.47C3.03 1.13 1.07 6.16 0 5.22.03 4.65 2.07.62 3.51.58z"/><path fill="none" fill-rule="nonzero" stroke="#2B2A29" stroke-miterlimit="22.9256" stroke-width=".14" d="M3.51.58c.72.02.75.25.87.6-.3.18-.54.43-.65.74-.1.14-.22.29-.33.47C3.03 1.13 1.07 6.16 0 5.22.03 4.65 2.07.62 3.51.58z"/><path fill="#FEFEFE" d="M3.54 1.15c.63.06.45.34.39.41-.19.31-.14.32-.34.53-.09-.15-.32-.26-.51-.16C2.27 2.39.86 4.76.66 4.62.42 4.44 2.7.94 3.54 1.15z"/><path fill="none" fill-rule="nonzero" stroke="#2B2A29" stroke-miterlimit="22.9256" stroke-width=".14" d="M3.54 1.15c.63.06.45.34.39.41-.19.31-.14.32-.34.53-.09-.15-.32-.26-.51-.16C2.27 2.39.86 4.76.66 4.62.42 4.44 2.7.94 3.54 1.15z"/><path fill="#F5B2B6" d="M5.61.77c.84 0 1.68.63 2.08 1.57.08.19.47.49.49 1.2.01.7-.45 1.24-1.24 1.39-.39.08-.8.12-1.26.12-.53 0-.97.01-1.5-.1-.77-.14-1.21-.71-1.21-1.46s.43-1.13.66-1.5C3.89 1.27 4.77.77 5.61.77z"/><path fill="none" fill-rule="nonzero" stroke="#2B2A29" stroke-miterlimit="22.9256" stroke-width=".14" d="M5.61.77c.84 0 1.68.63 2.08 1.57.08.19.47.49.49 1.2.01.7-.45 1.24-1.24 1.39-.39.08-.8.12-1.26.12-.53 0-.97.01-1.5-.1-.77-.14-1.21-.71-1.21-1.46s.43-1.13.66-1.5C3.89 1.27 4.77.77 5.61.77z"/><path fill="#2B2A29" d="M5.55 2.95c.27 0 .5.09.59.23-.35.16-.41.5-.59.5-.2.01-.29-.28-.6-.48.08-.15.32-.25.6-.25z"/><path fill="none" fill-rule="nonzero" stroke="#2B2A29" stroke-miterlimit="22.9256" stroke-width=".14" d="M5.55 2.95c.27 0 .5.09.59.23-.35.16-.41.5-.59.5-.2.01-.29-.28-.6-.48.08-.15.32-.25.6-.25z"/><path fill="#2B2A29" fill-rule="nonzero" d="M4.26 3.65c.09.22.2.4.34.51.14.12.3.18.49.19.08 0 .17-.01.24-.04.06-.02.11-.06.15-.11.02-.06.03-.15.03-.24 0-.1 0-.2-.01-.27l.06-.01c0 .08.01.18.01.28 0 .1-.01.2-.04.27-.04.06-.11.11-.18.14-.08.03-.17.04-.26.04-.2-.01-.38-.08-.52-.2-.15-.13-.27-.31-.36-.54l.05-.02z"/><path fill="none" fill-rule="nonzero" stroke="#2B2A29" stroke-miterlimit="22.9256" stroke-width=".14" d="M4.26 3.65c.09.22.2.4.34.51.14.12.3.18.49.19.08 0 .17-.01.24-.04.06-.02.11-.06.15-.11.02-.06.03-.15.03-.24 0-.1 0-.2-.01-.27l.06-.01c0 .08.01.18.01.28 0 .1-.01.2-.04.27h0c-.04.06-.11.11-.18.14-.08.03-.17.04-.26.04-.2-.01-.38-.08-.52-.2-.15-.13-.27-.31-.36-.54l.05-.02z"/><path fill="#2B2A29" fill-rule="nonzero" d="M6.85 3.69c-.09.23-.21.41-.36.54-.14.12-.32.19-.52.19-.08.01-.18-.01-.26-.04-.07-.02-.14-.07-.18-.13-.03-.07-.04-.17-.04-.27s.01-.2.01-.28h.06c-.01.08-.01.18-.01.28 0 .09.01.18.03.24.04.05.09.08.15.11.08.03.16.04.24.03.19 0 .35-.06.49-.18s.25-.29.34-.51l.05.02z"/><path fill="none" fill-rule="nonzero" stroke="#2B2A29" stroke-miterlimit="22.9256" stroke-width=".14" d="M6.85 3.69c-.09.23-.21.41-.36.54-.14.12-.32.19-.52.19-.08.01-.18-.01-.26-.04-.07-.02-.14-.07-.18-.13h0c-.03-.07-.04-.17-.04-.27s.01-.2.01-.28h.06c-.01.08-.01.18-.01.28 0 .09.01.18.03.24.04.05.09.08.15.11.08.03.16.04.24.03.19 0 .35-.06.49-.18s.25-.29.34-.51l.05.02z"/><path fill="#2B2A29" fill-rule="nonzero" d="M6.91 3.92c-.02-.09-.05-.16-.1-.21-.05-.06-.13-.1-.22-.13l.02-.06c.1.03.18.08.24.15.06.06.1.14.12.24l-.06.01z"/><path fill="none" fill-rule="nonzero" stroke="#2B2A29" stroke-miterlimit="22.9256" stroke-width=".14" d="M6.91 3.92c-.02-.09-.05-.16-.1-.21-.05-.06-.13-.1-.22-.13l.02-.06c.1.03.18.08.24.15.06.06.1.14.12.24l-.06.01z"/><path fill="#2B2A29" d="M5.15 2.01c.09 0 .14.12.12.27-.01.16 0 .25-.19.28-.19.03-.21-.11-.19-.26.01-.15.17-.29.26-.29z"/><path fill="none" fill-rule="nonzero" stroke="#2B2A29" stroke-miterlimit="22.9256" stroke-width=".14" d="M5.15 2.01c.09 0 .14.12.12.27-.01.16 0 .25-.19.28-.19.03-.21-.11-.19-.26.01-.15.17-.29.26-.29z"/><path fill="#2B2A29" d="M5.97 2.01c-.09 0-.14.12-.13.28.02.15.01.24.2.27.19.03.21-.11.19-.26-.02-.15-.17-.29-.26-.29z"/><path fill="none" fill-rule="nonzero" stroke="#2B2A29" stroke-miterlimit="22.9256" stroke-width=".14" d="M5.97 2.01c-.09 0-.14.12-.13.28.02.15.01.24.2.27.19.03.21-.11.19-.26-.02-.15-.17-.29-.26-.29z"/><path fill="#A1B567" d="M4.94 4.96c.23 0 .66.24.66.52 0 .27-.58.52-.81.52-.23 0-.36-.22-.27-.53.09-.32.19-.51.42-.51zm1.39-.01c-.23 0-.66.24-.66.51 0 .28.58.53.81.53.24 0 .37-.22.27-.54-.09-.31-.19-.5-.42-.5z"/><path fill="none" fill-rule="nonzero" stroke="#2B2A29" stroke-miterlimit="22.9256" stroke-width=".14" d="M4.94 4.96c.23 0 .66.24.66.52 0 .27-.58.52-.81.52-.23 0-.36-.22-.27-.53.09-.32.19-.51.42-.51zm1.39-.01c-.23 0-.66.24-.66.51 0 .28.58.53.81.53.24 0 .37-.22.27-.54-.09-.31-.19-.5-.42-.5z"/><path fill="#FEFEFE" d="M7.5 8.09c-.09-.05-.21 0-.26.1-.05.1-.01.22.08.27.09.04.21 0 .26-.1.05-.11.02-.23-.08-.27zm-3.53.85c.3 0 .75.44.75.73 0 .28-.35.4-.66.4-.3 0-.55-.23-.55-.51s.15-.62.46-.62zm1.36.22c.1 0 .19.08.19.17 0 .09-.09.17-.19.17-.11 0-.19-.08-.19-.17 0-.09.08-.17.19-.17zm-.31-.76c.12 0 .21.1.21.22s-.09.21-.21.21-.21-.09-.21-.21.09-.22.21-.22zm-.6-.25c.11 0 .19.09.19.21 0 .11-.08.2-.19.2-.1 0-.19-.09-.19-.2 0-.12.09-.21.19-.21zm3.09.88c-.27-.13-.86.07-.99.32-.12.25.13.52.41.65.28.14.6.04.72-.21.13-.26.14-.62-.14-.76zM6.43 8.6c-.1-.05-.21-.02-.25.06-.04.09.01.19.1.24.09.04.2.01.24-.07.04-.08 0-.19-.09-.23zm.42-.48c-.1-.06-.23-.01-.28.09-.05.11-.01.24.1.29.1.05.23.01.28-.1.06-.1.01-.23-.1-.28z"/><path fill="none" fill-rule="nonzero" stroke="#2B2A29" stroke-miterlimit="22.9256" stroke-width=".14" d="M7.5 8.09c-.09-.05-.21 0-.26.1-.05.1-.01.22.08.27.09.04.21 0 .26-.1.05-.11.02-.23-.08-.27zm-3.53.85c.3 0 .75.44.75.73 0 .28-.35.4-.66.4-.3 0-.55-.23-.55-.51s.15-.62.46-.62zm1.36.22c.1 0 .19.08.19.17 0 .09-.09.17-.19.17-.11 0-.19-.08-.19-.17 0-.09.08-.17.19-.17zm-.31-.76c.12 0 .21.1.21.22s-.09.21-.21.21-.21-.09-.21-.21.09-.22.21-.22zm-.6-.25c.11 0 .19.09.19.21 0 .11-.08.2-.19.2-.1 0-.19-.09-.19-.2 0-.12.09-.21.19-.21zm3.09.88c-.27-.13-.86.07-.99.32-.12.25.13.52.41.65.28.14.6.04.72-.21.13-.26.14-.62-.14-.76zM6.43 8.6c-.1-.05-.21-.02-.25.06-.04.09.01.19.1.24.09.04.2.01.24-.07.04-.08 0-.19-.09-.23zm.42-.48c-.1-.06-.23-.01-.28.09-.05.11-.01.24.1.29.1.05.23.01.28-.1.06-.1.01-.23-.1-.28z"/><path fill="#FEFEFE" d="M5.08 2.1c.03 0 .06.03.06.06s-.03.05-.06.05-.05-.02-.05-.05c0-.03.02-.06.05-.06zM5.95 2.09c.03 0 .05.03.05.06s-.02.05-.05.05c-.03 0-.06-.02-.06-.05 0-.03.03-.06.06-.06z"/><path fill="#A1B567" d="M5.54 5.1h.22c.08 0 .14.06.15.14l.06.43c.01.08-.07.15-.15.15h-.34c-.08 0-.16-.07-.15-.15l.06-.43c.01-.08.06-.14.15-.14z"/><path fill="none" fill-rule="nonzero" stroke="#2B2A29" stroke-miterlimit="22.9256" stroke-width=".14" d="M5.54 5.1h.22c.08 0 .14.06.15.14l.06.43c.01.08-.07.15-.15.15h-.34c-.08 0-.16-.07-.15-.15l.06-.43c.01-.08.06-.14.15-.14z"/></svg>