
<svg xmlns="http://www.w3.org/2000/svg" xml:space="preserve" width="58px" height="71px" version="1.1" style="shape-rendering:geometricPrecision; text-rendering:geometricPrecision; image-rendering:optimizeQuality; fill-rule:evenodd; clip-rule:evenodd" viewBox="0 0 16.46 20.12"  xmlns:xlink="http://www.w3.org/1999/xlink">
  <path fill="#F08BB2" d="M3.06 17.26c1.84,-1.93 3.27,-4.74 4.13,-7.87 0.74,0.1 1.18,0.16 1.91,-0.06 1.07,2.74 2.07,5.41 4.56,7.6 -3.52,1.91 -6.19,2.49 -10.6,0.33z"/>
  <path fill="none" fill-rule="nonzero" stroke="#2B2A29" stroke-width="0.25" stroke-miterlimit="22.9256" fill="none" fill-rule="nonzero" d="M3.06 17.26c1.84,-1.93 3.27,-4.74 4.13,-7.87 0.74,0.1 1.18,0.16 1.91,-0.06 1.07,2.74 2.07,5.41 4.56,7.6 -3.52,1.91 -6.19,2.49 -10.6,0.33z"/>
  <path fill="#F6D0D1" d="M8.03 3.07c1.91,0 3.46,1.44 3.46,3.21 0,1.77 -1.55,3.21 -3.46,3.21 -1.91,0 -3.46,-1.44 -3.46,-3.21 0,-1.77 1.55,-3.21 3.46,-3.21z"/>
  <path fill="none" fill-rule="nonzero" stroke="#2B2A29" stroke-width="0.25" stroke-miterlimit="22.9256" fill="none" fill-rule="nonzero" d="M8.03 3.07c1.91,0 3.46,1.44 3.46,3.21 0,1.77 -1.55,3.21 -3.46,3.21 -1.91,0 -3.46,-1.44 -3.46,-3.21 0,-1.77 1.55,-3.21 3.46,-3.21z"/>
  <path fill="#C5E3D7" d="M4.78 9.14c0.35,-3.51 1.5,-5.45 2.66,-6.82 -3.41,-0.32 -3.35,4.69 -5.61,5.71 0.69,0.88 1.97,1.27 2.95,1.11z"/>
  <path fill="none" fill-rule="nonzero" stroke="#2B2A29" stroke-width="0.25" stroke-miterlimit="22.9256" fill="none" fill-rule="nonzero" d="M4.78 9.14c0.35,-3.51 1.5,-5.45 2.66,-6.82 -3.41,-0.32 -3.35,4.69 -5.61,5.71 0.69,0.88 1.97,1.27 2.95,1.11z"/>
  <path fill="#C5E3D7" d="M11.04 8.96c-0.34,-3.51 -1.43,-5.4 -2.58,-6.77 3.4,-0.32 3.28,4.64 5.54,5.66 -0.7,0.88 -1.98,1.27 -2.96,1.11z"/>
  <path fill="none" fill-rule="nonzero" stroke="#2B2A29" stroke-width="0.25" stroke-miterlimit="22.9256" fill="none" fill-rule="nonzero" d="M11.04 8.96c-0.34,-3.51 -1.43,-5.4 -2.58,-6.77 3.4,-0.32 3.28,4.64 5.54,5.66 -0.7,0.88 -1.98,1.27 -2.96,1.11z"/>
  <path fill="#99CFBA" d="M13.48 8.67c-0.31,0.24 -0.71,0.35 -1.16,0.39 -1.22,-4.65 -2.36,-5.63 -3.34,-6.95 2.1,1.43 3.26,5.57 4.5,6.56z"/>
  <path fill="none" fill-rule="nonzero" stroke="#2B2A29" stroke-width="0.25" stroke-miterlimit="22.9256" fill="none" fill-rule="nonzero" d="M13.48 8.67c-0.31,0.24 -0.71,0.35 -1.16,0.39 -1.22,-4.65 -2.36,-5.63 -3.34,-6.95 2.1,1.43 3.26,5.57 4.5,6.56z"/>
  <path fill="#99CFBA" d="M2.05 19.8c0.25,-0.25 0.5,-0.51 0.75,-0.76 0.27,0.14 0.39,0.35 0.41,0.55 0.04,0.36 -0.12,0.51 -0.47,0.52 -0.21,0.01 -0.47,-0.06 -0.69,-0.31z"/>
  <path fill="none" fill-rule="nonzero" stroke="#2B2A29" stroke-width="0.25" stroke-miterlimit="22.9256" fill="none" fill-rule="nonzero" d="M2.05 19.8c0.25,-0.25 0.5,-0.51 0.75,-0.76 0.27,0.14 0.39,0.35 0.41,0.55 0.04,0.36 -0.12,0.51 -0.47,0.52 -0.21,0.01 -0.47,-0.06 -0.69,-0.31z"/>
  <path fill="#F6D0D1" d="M3.81 17.75c-0.23,0.41 -0.5,0.81 -0.86,1.16 0.25,0.19 0.43,0.42 0.51,0.72 0.47,-0.46 0.86,-0.97 1.2,-1.51 -0.19,-0.06 -0.45,-0.16 -0.85,-0.37z"/>
  <path fill="none" fill-rule="nonzero" stroke="#2B2A29" stroke-width="0.25" stroke-miterlimit="22.9256" fill="none" fill-rule="nonzero" d="M3.81 17.75c-0.23,0.41 -0.5,0.81 -0.86,1.16 0.25,0.19 0.43,0.42 0.51,0.72 0.47,-0.46 0.86,-0.97 1.2,-1.51 -0.19,-0.06 -0.45,-0.16 -0.85,-0.37z"/>
  <path fill="#99CFBA" d="M2.52 8.87c0.3,0.24 0.71,0.34 1.15,0.39 1.23,-4.65 2.37,-5.63 3.35,-6.96 -2.1,1.44 -3.26,5.58 -4.5,6.57z"/>
  <path fill="none" fill-rule="nonzero" stroke="#2B2A29" stroke-width="0.25" stroke-miterlimit="22.9256" fill="none" fill-rule="nonzero" d="M2.52 8.87c0.3,0.24 0.71,0.34 1.15,0.39 1.23,-4.65 2.37,-5.63 3.35,-6.96 -2.1,1.44 -3.26,5.58 -4.5,6.57z"/>
  <path fill="#C5E3D7" d="M5.36 4.4c1.57,0.38 3.3,0.37 5.13,0.11 -0.25,-0.7 -0.63,-2.28 -2.35,-2.47 -1.93,0.03 -2.17,1.26 -2.78,2.36z"/>
  <path fill="none" fill-rule="nonzero" stroke="#2B2A29" stroke-width="0.25" stroke-miterlimit="22.9256" fill="none" fill-rule="nonzero" d="M5.36 4.4c1.57,0.38 3.3,0.37 5.13,0.11 -0.25,-0.7 -0.63,-2.28 -2.35,-2.47 -1.93,0.03 -2.17,1.26 -2.78,2.36z"/>
  <path fill="#99CFBA" d="M7.86 2.05c-0.69,-0.02 -1.09,2.01 -1.47,2.66 0.43,0.1 0.79,0.07 1.26,0.07 -0.14,-0.74 0.09,-2.3 0.21,-2.73z"/>
  <path fill="none" fill-rule="nonzero" stroke="#2B2A29" stroke-width="0.25" stroke-miterlimit="22.9256" fill="none" fill-rule="nonzero" d="M7.86 2.05c-0.69,-0.02 -1.09,2.01 -1.47,2.66 0.43,0.1 0.79,0.07 1.26,0.07 -0.14,-0.74 0.09,-2.3 0.21,-2.73z"/>
  <path fill="#F6D0D1" fill-rule="nonzero" d="M4.93 13.1c-0.06,-0.07 -0.13,-0.14 -0.19,-0.2 -0.06,-0.06 -0.13,-0.11 -0.2,-0.16 -0.19,0.26 -0.42,0.49 -0.71,0.68 -0.22,0.14 -0.48,0.28 -0.78,0.39 -0.24,0.08 -0.51,0.14 -0.78,0.15l-0.03 0 -0.02 -0.01c-0.18,-0.11 -0.36,-0.19 -0.51,-0.26 -0.05,-0.02 -0.09,-0.04 -0.14,-0.06 -0.09,-0.04 -0.15,-0.04 -0.19,-0.01 -0.02,0.01 -0.03,0.03 -0.04,0.05 -0.01,0.03 -0.01,0.06 0,0.1 0.05,0.15 0.22,0.34 0.59,0.5l0.19 0.08 -0.2 0.06c-0.02,0.01 -0.05,0.02 -0.09,0.03 -0.14,0.06 -0.34,0.17 -0.49,0.31 -0.13,0.13 -0.23,0.28 -0.17,0.44 0,0 0,0.01 0,0.01 0.11,0.11 0.24,0.02 0.36,-0.08 0.08,-0.06 0.16,-0.12 0.24,-0.14l0.19 -0.05 -0.1 0.16c-0.01,0.02 -0.03,0.04 -0.05,0.06 -0.1,0.13 -0.35,0.45 -0.2,0.65 0.08,0.07 0.14,0.05 0.2,-0.01 0.06,-0.07 0.12,-0.18 0.18,-0.29 0.05,-0.09 0.1,-0.19 0.16,-0.24l0.18 -0.21 -0.05 0.27c-0.02,0.07 -0.04,0.14 -0.07,0.22 -0.01,0.05 -0.03,0.09 -0.05,0.14 -0.06,0.22 -0.1,0.46 0.14,0.53 0.11,0.03 0.16,-0.05 0.19,-0.17 0.01,-0.06 0.02,-0.13 0.03,-0.19 0.02,-0.14 0.04,-0.27 0.09,-0.37l0.07 -0.12 0.07 0.11c0.06,0.1 0.07,0.23 0.09,0.36 0.01,0.04 0.02,0.08 0.02,0.12 0.03,0.14 0.08,0.26 0.26,0.23 0.21,-0.17 0.19,-0.74 0.18,-1.3 0,-0.19 -0.01,-0.38 0,-0.56l0 -0.05 0.04 -0.02c0.65,-0.25 1.13,-0.68 1.59,-1.15z"/>
  <path fill="none" fill-rule="nonzero" stroke="#2B2A29" stroke-width="0.25" stroke-miterlimit="22.9256" fill="none" fill-rule="nonzero" d="M4.93 13.1c-0.06,-0.07 -0.13,-0.14 -0.19,-0.2 -0.06,-0.06 -0.13,-0.11 -0.2,-0.16 -0.19,0.26 -0.42,0.49 -0.71,0.68 -0.22,0.14 -0.48,0.28 -0.78,0.39 -0.24,0.08 -0.51,0.14 -0.78,0.15l-0.03 0 -0.02 -0.01c-0.18,-0.11 -0.36,-0.19 -0.51,-0.26 -0.05,-0.02 -0.09,-0.04 -0.14,-0.06 -0.09,-0.04 -0.15,-0.04 -0.19,-0.01 -0.02,0.01 -0.03,0.03 -0.04,0.05 -0.01,0.03 -0.01,0.06 0,0.1 0.05,0.15 0.22,0.34 0.59,0.5l0.19 0.08 -0.2 0.06c-0.02,0.01 -0.05,0.02 -0.09,0.03 -0.14,0.06 -0.34,0.17 -0.49,0.31 -0.13,0.13 -0.23,0.28 -0.17,0.44 0,0 0,0.01 0,0.01 0.11,0.11 0.24,0.02 0.36,-0.08 0.08,-0.06 0.16,-0.12 0.24,-0.14l0.19 -0.05 -0.1 0.16c-0.01,0.02 -0.03,0.04 -0.05,0.06 -0.1,0.13 -0.35,0.45 -0.2,0.65 0.08,0.07 0.14,0.05 0.2,-0.01 0.06,-0.07 0.12,-0.18 0.18,-0.29 0.05,-0.09 0.1,-0.19 0.16,-0.24l0.18 -0.21 -0.05 0.27c-0.02,0.07 -0.04,0.14 -0.07,0.22 -0.01,0.05 -0.03,0.09 -0.05,0.14 -0.06,0.22 -0.1,0.46 0.14,0.53 0.11,0.03 0.16,-0.05 0.19,-0.17 0.01,-0.06 0.02,-0.13 0.03,-0.19 0.02,-0.14 0.04,-0.27 0.09,-0.37l0.07 -0.12 0.07 0.11c0.06,0.1 0.07,0.23 0.09,0.36 0.01,0.04 0.02,0.08 0.02,0.12 0.03,0.14 0.08,0.26 0.26,0.23 0.21,-0.17 0.19,-0.74 0.18,-1.3 0,-0.19 -0.01,-0.38 0,-0.56l0 -0.05 0.04 -0.02c0.65,-0.25 1.13,-0.68 1.59,-1.15z"/>
  <path fill="#F6D0D1" fill-rule="nonzero" d="M12.01 12.4c-0.04,-0.05 -0.08,-0.09 -0.12,-0.14 -0.07,0.1 -0.14,0.2 -0.22,0.29 -0.09,0.1 -0.18,0.19 -0.29,0.27 0.11,0.1 0.23,0.19 0.35,0.27 0.27,0.18 0.56,0.34 0.94,0.51l0 0 0 0.01c0.54,0.31 0.71,0.89 0.84,1.37 0.09,0.31 0.17,0.58 0.32,0.67 0.11,0.01 0.15,-0.04 0.16,-0.12 0.02,-0.07 0.01,-0.18 0,-0.29 0,-0.17 -0.01,-0.34 0.06,-0.46l0.06 -0.11 0.07 0.11c0.08,0.15 0.25,0.4 0.44,0.56 0.12,0.09 0.25,0.15 0.37,0.12 0.07,-0.02 0.08,-0.05 0.07,-0.09 -0.02,-0.09 -0.15,-0.21 -0.28,-0.34 -0.14,-0.14 -0.28,-0.28 -0.31,-0.4l-0.05 -0.27 0.19 0.2c0,0.01 0.01,0.02 0.02,0.03 0.09,0.09 0.25,0.22 0.41,0.29 0.15,0.07 0.31,0.1 0.43,-0.01l0 0c0.04,-0.05 0,-0.11 -0.06,-0.16 -0.12,-0.09 -0.32,-0.17 -0.46,-0.23 -0.12,-0.05 -0.21,-0.08 -0.23,-0.13l-0.11 -0.16 0.19 0.05c0.03,0.01 0.06,0.02 0.1,0.03 0.23,0.06 0.62,0.17 0.8,-0.01 0.04,-0.1 0,-0.15 -0.06,-0.17 -0.1,-0.04 -0.26,-0.05 -0.41,-0.05 -0.13,-0.01 -0.25,-0.01 -0.33,-0.04l-0.2 -0.06 0.19 -0.08c0.34,-0.15 0.5,-0.26 0.55,-0.34 0.01,-0.01 0.01,-0.01 0.01,-0.01 -0.01,-0.01 -0.03,-0.01 -0.06,-0.02 -0.12,-0.02 -0.33,0.02 -0.49,0.12l-0.02 0.02 -0.02 -0.01c-0.32,0 -0.73,-0.07 -1.11,-0.16 -0.36,-0.09 -0.7,-0.21 -0.89,-0.34 -0.3,-0.19 -0.58,-0.44 -0.85,-0.72z"/>
  <path fill="none" fill-rule="nonzero" stroke="#2B2A29" stroke-width="0.25" stroke-miterlimit="22.9256" fill="none" fill-rule="nonzero" d="M12.01 12.4c-0.04,-0.05 -0.08,-0.09 -0.12,-0.14 -0.07,0.1 -0.14,0.2 -0.22,0.29 -0.09,0.1 -0.18,0.19 -0.29,0.27 0.11,0.1 0.23,0.19 0.35,0.27 0.27,0.18 0.56,0.34 0.94,0.51l0 0 0 0.01c0.54,0.31 0.71,0.89 0.84,1.37 0.09,0.31 0.17,0.58 0.32,0.67 0.11,0.01 0.15,-0.04 0.16,-0.12 0.02,-0.07 0.01,-0.18 0,-0.29 0,-0.17 -0.01,-0.34 0.06,-0.46l0.06 -0.11 0.07 0.11c0.08,0.15 0.25,0.4 0.44,0.56 0.12,0.09 0.25,0.15 0.37,0.12 0.07,-0.02 0.08,-0.05 0.07,-0.09 -0.02,-0.09 -0.15,-0.21 -0.28,-0.34 -0.14,-0.14 -0.28,-0.28 -0.31,-0.4l-0.05 -0.27 0.19 0.2c0,0.01 0.01,0.02 0.02,0.03 0.09,0.09 0.25,0.22 0.41,0.29 0.15,0.07 0.31,0.1 0.43,-0.01l0 0c0.04,-0.05 0,-0.11 -0.06,-0.16 -0.12,-0.09 -0.32,-0.17 -0.46,-0.23 -0.12,-0.05 -0.21,-0.08 -0.23,-0.13l-0.11 -0.16 0.19 0.05c0.03,0.01 0.06,0.02 0.1,0.03 0.23,0.06 0.62,0.17 0.8,-0.01 0.04,-0.1 0,-0.15 -0.06,-0.17 -0.1,-0.04 -0.26,-0.05 -0.41,-0.05 -0.13,-0.01 -0.25,-0.01 -0.33,-0.04l-0.2 -0.06 0.19 -0.08c0.34,-0.15 0.5,-0.26 0.55,-0.34 0.01,-0.01 0.01,-0.01 0.01,-0.01 -0.01,-0.01 -0.03,-0.01 -0.06,-0.02 -0.12,-0.02 -0.33,0.02 -0.49,0.12l-0.02 0.02 -0.02 -0.01c-0.32,0 -0.73,-0.07 -1.11,-0.16 -0.36,-0.09 -0.7,-0.21 -0.89,-0.34 -0.3,-0.19 -0.58,-0.44 -0.85,-0.72z"/>
  <path fill="#FEFEFE" d="M6.99 5.01c0.26,0 0.43,0.26 0.37,0.59 -0.05,0.33 -0.3,0.59 -0.55,0.59 -0.26,0 -0.43,-0.26 -0.37,-0.59 0.05,-0.33 0.3,-0.59 0.55,-0.59z"/>
  <path fill="none" fill-rule="nonzero" stroke="#2B2A29" stroke-width="0.25" stroke-miterlimit="22.9256" fill="none" fill-rule="nonzero" d="M6.99 5.01c0.26,0 0.43,0.26 0.37,0.59 -0.05,0.33 -0.3,0.59 -0.55,0.59 -0.26,0 -0.43,-0.26 -0.37,-0.59 0.05,-0.33 0.3,-0.59 0.55,-0.59z"/>
  <path fill="#2B2A29" d="M7.02 5.44c0.15,0 0.24,0.16 0.21,0.34 -0.03,0.19 -0.17,0.34 -0.31,0.34 -0.15,0 -0.24,-0.15 -0.21,-0.34 0.03,-0.18 0.17,-0.34 0.31,-0.34z"/>
  <path fill="#2B2A29" fill-rule="nonzero" d="M7.02 5.4c0.02,0 0.03,0 0.04,0 0.07,0.01 0.13,0.05 0.17,0.11 0.04,0.05 0.06,0.12 0.06,0.21 0,0.02 0,0.04 -0.01,0.07 -0.01,0.1 -0.06,0.2 -0.13,0.27 -0.06,0.07 -0.15,0.11 -0.23,0.11 -0.01,0 -0.03,0 -0.04,0 -0.07,-0.01 -0.13,-0.05 -0.17,-0.11 -0.03,-0.06 -0.05,-0.13 -0.05,-0.21 0,-0.02 0,-0.05 0,-0.07 0.02,-0.11 0.06,-0.2 0.13,-0.27 0.06,-0.07 0.15,-0.11 0.23,-0.11zm0.03 0.09c-0.01,0 -0.02,0 -0.03,0 -0.05,0 -0.11,0.03 -0.16,0.09 -0.05,0.05 -0.09,0.13 -0.1,0.21 -0.01,0.02 -0.01,0.04 -0.01,0.06 0,0.06 0.02,0.12 0.04,0.16 0.03,0.03 0.06,0.06 0.1,0.06 0.01,0 0.02,0.01 0.03,0.01 0.06,0 0.12,-0.04 0.16,-0.09 0.06,-0.05 0.09,-0.13 0.11,-0.21 0,-0.02 0,-0.04 0,-0.06 0,-0.07 -0.01,-0.12 -0.04,-0.16 -0.03,-0.04 -0.06,-0.06 -0.1,-0.07z"/>
  <path fill="#F08BB2" fill-rule="nonzero" d="M6.65 10c-0.36,0.53 -2.54,1.31 -2.56,2.08 0.13,-0.02 1.2,1.07 1.33,1.05l0 0 0 0 0 0 0.01 0 0 0 0 0 0 0 0 0 0 0 0.01 0 0 0 0 0 0 0 0 0 0 0 0 0 0 0 0.01 0 0 0 0 0 0 0 0 0 0 0 0.01 0 0 0 0 0 0 0 0 0 0 0 0 0 0 0 0.01 0 0 0 0 0 0 0 0.01 0c0.31,-0.39 0.81,-2.78 1.17,-3.13z"/>
  <path fill="none" fill-rule="nonzero" stroke="#2B2A29" stroke-width="0.25" stroke-miterlimit="22.9256" fill="none" fill-rule="nonzero" d="M6.65 10c-0.36,0.53 -2.54,1.31 -2.56,2.08 0.13,-0.02 1.2,1.07 1.33,1.05l0 0 0 0 0 0 0.01 0 0 0 0 0 0 0 0 0 0 0 0.01 0 0 0 0 0 0 0 0 0 0 0 0 0 0 0 0.01 0 0 0 0 0 0 0 0 0 0 0 0.01 0 0 0 0 0 0 0 0 0 0 0 0 0 0 0 0.01 0 0 0 0 0 0 0 0.01 0c0.31,-0.39 0.81,-2.78 1.17,-3.13z"/>
  <path fill="#F08BB2" fill-rule="nonzero" d="M9.5 9.87c0.42,0.49 2.67,1.03 2.77,1.79 -0.13,0 -1.07,1.19 -1.21,1.19l0 0 0 0 0 0 -0.01 0 0 0 0 0 0 0 0 0 0 0 0 0 0 0 -0.01 0 0 0 0 0 0 0 0 0 0 0 -0.01 0 0 0 0 0 0 0 0 0 0 0 0 0 0 0 -0.01 0 0 0 0 0 0 0 0 0 0 0 -0.01 0 0 0 0 0 0 0 0 0c-0.36,-0.35 -1.11,-2.67 -1.51,-2.98z"/>
  <path fill="none" fill-rule="nonzero" stroke="#2B2A29" stroke-width="0.25" stroke-miterlimit="22.9256" fill="none" fill-rule="nonzero" d="M9.5 9.87c0.42,0.49 2.67,1.03 2.77,1.79 -0.13,0 -1.07,1.19 -1.21,1.19l0 0 0 0 0 0 -0.01 0 0 0 0 0 0 0 0 0 0 0 0 0 0 0 -0.01 0 0 0 0 0 0 0 0 0 0 0 -0.01 0 0 0 0 0 0 0 0 0 0 0 0 0 0 0 -0.01 0 0 0 0 0 0 0 0 0 0 0 -0.01 0 0 0 0 0 0 0 0 0c-0.36,-0.35 -1.11,-2.67 -1.51,-2.98z"/>
  <path fill="#2B2A29" fill-rule="nonzero" d="M6.13 7.44c-0.02,-0.05 0,-0.09 0.04,-0.11 0.05,-0.02 0.1,0 0.12,0.04 0.2,0.47 0.57,0.76 0.99,0.92 0.27,0.09 0.55,0.13 0.84,0.12 0.28,-0.01 0.56,-0.07 0.8,-0.18 0.38,-0.17 0.69,-0.45 0.82,-0.81 0.02,-0.05 0.07,-0.07 0.11,-0.05 0.04,0.01 0.07,0.06 0.05,0.11 -0.15,0.41 -0.49,0.72 -0.91,0.9 -0.27,0.12 -0.56,0.19 -0.87,0.2 -0.3,0.01 -0.61,-0.03 -0.89,-0.13 -0.47,-0.17 -0.88,-0.5 -1.1,-1.01z"/>
  <path fill="#2B2A29" fill-rule="nonzero" d="M8.16 6.53c0.11,0 0.21,0.03 0.29,0.08 0.08,0.05 0.13,0.12 0.13,0.2 0,0.08 -0.05,0.15 -0.13,0.2 -0.08,0.05 -0.18,0.08 -0.29,0.08 -0.11,0 -0.21,-0.03 -0.29,-0.08 -0.08,-0.05 -0.13,-0.12 -0.13,-0.2 0,-0.08 0.05,-0.15 0.13,-0.2 0.08,-0.05 0.18,-0.08 0.29,-0.08zm0.23 0.16c-0.05,-0.04 -0.14,-0.06 -0.23,-0.06 -0.09,0 -0.18,0.02 -0.24,0.06 -0.05,0.03 -0.08,0.07 -0.08,0.12 0,0.05 0.03,0.09 0.08,0.12 0.06,0.04 0.15,0.06 0.24,0.06 0.09,0 0.18,-0.02 0.23,-0.06 0.06,-0.03 0.09,-0.07 0.09,-0.12 0,-0.05 -0.03,-0.09 -0.09,-0.12z"/>
  <path fill="#99CFBA" d="M14.57 19.65c-0.25,-0.26 -0.5,-0.51 -0.75,-0.76 -0.27,0.14 -0.39,0.35 -0.41,0.55 -0.04,0.36 0.12,0.5 0.46,0.52 0.22,0.01 0.48,-0.06 0.7,-0.31z"/>
  <path fill="none" fill-rule="nonzero" stroke="#2B2A29" stroke-width="0.25" stroke-miterlimit="22.9256" fill="none" fill-rule="nonzero" d="M14.57 19.65c-0.25,-0.26 -0.5,-0.51 -0.75,-0.76 -0.27,0.14 -0.39,0.35 -0.41,0.55 -0.04,0.36 0.12,0.5 0.46,0.52 0.22,0.01 0.48,-0.06 0.7,-0.31z"/>
  <path fill="#99CFBA" d="M14.74 19.48c-0.36,-0.42 -0.52,-0.56 -0.88,-0.98 0.63,-0.95 0.63,-2.11 1.72,-2.09 0.55,0.01 0.86,0.54 0.87,1.04 0.02,0.8 -0.49,1.57 -1.71,2.03z"/>
  <path fill="none" fill-rule="nonzero" stroke="#2B2A29" stroke-width="0.25" stroke-miterlimit="22.9256" fill="none" fill-rule="nonzero" d="M14.74 19.48c-0.36,-0.42 -0.52,-0.56 -0.88,-0.98 0.63,-0.95 0.63,-2.11 1.72,-2.09 0.55,0.01 0.86,0.54 0.87,1.04 0.02,0.8 -0.49,1.57 -1.71,2.03z"/>
  <path fill="#F6D0D1" d="M12.81 17.6c0.22,0.41 0.5,0.81 0.85,1.16 -0.24,0.19 -0.42,0.42 -0.5,0.71 -0.47,-0.45 -0.87,-0.96 -1.21,-1.5 0.19,-0.06 0.46,-0.17 0.86,-0.37z"/>
  <path fill="none" fill-rule="nonzero" stroke="#2B2A29" stroke-width="0.25" stroke-miterlimit="22.9256" fill="none" fill-rule="nonzero" d="M12.81 17.6c0.22,0.41 0.5,0.81 0.85,1.16 -0.24,0.19 -0.42,0.42 -0.5,0.71 -0.47,-0.45 -0.87,-0.96 -1.21,-1.5 0.19,-0.06 0.46,-0.17 0.86,-0.37z"/>
  <path fill="#FEFEFE" d="M9.05 4.99c-0.26,0 -0.42,0.26 -0.37,0.59 0.05,0.33 0.3,0.6 0.56,0.6 0.25,0 0.42,-0.27 0.37,-0.6 -0.05,-0.33 -0.3,-0.59 -0.56,-0.59z"/>
  <path fill="none" fill-rule="nonzero" stroke="#2B2A29" stroke-width="0.25" stroke-miterlimit="22.9256" fill="none" fill-rule="nonzero" d="M9.05 4.99c-0.26,0 -0.42,0.26 -0.37,0.59 0.05,0.33 0.3,0.6 0.56,0.6 0.25,0 0.42,-0.27 0.37,-0.6 -0.05,-0.33 -0.3,-0.59 -0.56,-0.59z"/>
  <path fill="#2B2A29" d="M9.02 5.43c-0.15,0 -0.24,0.15 -0.21,0.34 0.03,0.18 0.17,0.33 0.32,0.33 0.14,0 0.24,-0.15 0.21,-0.33 -0.03,-0.19 -0.17,-0.34 -0.32,-0.34z"/>
  <path fill="#2B2A29" fill-rule="nonzero" d="M9.02 5.47c-0.01,0 -0.02,0 -0.02,0.01 -0.05,0 -0.08,0.03 -0.11,0.06 -0.02,0.04 -0.04,0.1 -0.04,0.16 0,0.02 0,0.04 0.01,0.06 0.01,0.08 0.05,0.16 0.1,0.21 0.05,0.05 0.11,0.09 0.17,0.09 0.01,0 0.01,0 0.02,0 0.04,-0.01 0.08,-0.04 0.1,-0.07 0.03,-0.04 0.04,-0.1 0.04,-0.16 0,-0.02 0,-0.04 0,-0.06 -0.01,-0.08 -0.05,-0.16 -0.1,-0.21 -0.05,-0.05 -0.11,-0.09 -0.17,-0.09zm-0.04 -0.09c0.01,0 0.03,0 0.04,0 0.09,0 0.17,0.04 0.24,0.11 0.06,0.07 0.11,0.16 0.12,0.27 0.01,0.02 0.01,0.05 0.01,0.07 0,0.08 -0.02,0.16 -0.06,0.21 -0.04,0.06 -0.1,0.1 -0.17,0.11 -0.01,0 -0.02,0 -0.03,0 -0.09,0 -0.17,-0.04 -0.24,-0.11 -0.06,-0.07 -0.11,-0.16 -0.13,-0.27 0,-0.02 0,-0.05 0,-0.07 0,-0.08 0.02,-0.16 0.06,-0.21 0.04,-0.06 0.09,-0.1 0.16,-0.11z"/>
  <path fill="#99CFBA" d="M1.72 19.58c0.36,-0.42 0.52,-0.56 0.88,-0.98 -0.63,-0.95 -0.63,-2.11 -1.72,-2.09 -0.54,0.01 -0.86,0.54 -0.87,1.04 -0.02,0.8 0.5,1.57 1.71,2.03z"/>
  <path fill="none" fill-rule="nonzero" stroke="#2B2A29" stroke-width="0.25" stroke-miterlimit="22.9256" fill="none" fill-rule="nonzero" d="M1.72 19.58c0.36,-0.42 0.52,-0.56 0.88,-0.98 -0.63,-0.95 -0.63,-2.11 -1.72,-2.09 -0.54,0.01 -0.86,0.54 -0.87,1.04 -0.02,0.8 0.5,1.57 1.71,2.03z"/>
  <path fill="#99CFBA" d="M8.26 2.03c0.69,-0.02 1.1,2.01 1.48,2.65 -0.43,0.11 -0.17,0.07 -0.64,0.08 0.14,-0.74 -0.46,-2.35 -0.84,-2.73z"/>
  <path fill="none" fill-rule="nonzero" stroke="#2B2A29" stroke-width="0.25" stroke-miterlimit="22.9256" fill="none" fill-rule="nonzero" d="M8.26 2.03c0.69,-0.02 1.1,2.01 1.48,2.65 -0.43,0.11 -0.17,0.07 -0.64,0.08 0.14,-0.74 -0.46,-2.35 -0.84,-2.73z"/>
  <path fill="#F5B2B6" d="M5.65 0.04c0.37,-0.23 1.38,0.87 2.28,1.74 -1.08,0.53 -2.98,1.83 -3.19,1.34 -0.36,-0.79 0.37,-2.72 0.91,-3.08z"/>
  <path fill="none" fill-rule="nonzero" stroke="#2B2A29" stroke-width="0.25" stroke-miterlimit="22.9256" fill="none" fill-rule="nonzero" d="M5.65 0.04c0.37,-0.23 1.38,0.87 2.28,1.74 -1.08,0.53 -2.98,1.83 -3.19,1.34 -0.36,-0.79 0.37,-2.72 0.91,-3.08z"/>
  <path fill="#F5B2B6" d="M10.41 0.1c-0.37,-0.23 -1.39,0.85 -2.3,1.7 1.07,0.55 2.94,1.89 3.16,1.4 0.38,-0.77 -0.32,-2.72 -0.86,-3.1z"/>
  <path fill="none" fill-rule="nonzero" stroke="#2B2A29" stroke-width="0.25" stroke-miterlimit="22.9256" fill="none" fill-rule="nonzero" d="M10.41 0.1c-0.37,-0.23 -1.39,0.85 -2.3,1.7 1.07,0.55 2.94,1.89 3.16,1.4 0.38,-0.77 -0.32,-2.72 -0.86,-3.1z"/>
  <path fill="#F5B2B6" d="M7.66 1.13c0.28,-0.12 0.55,-0.06 0.83,-0.05 0.09,0.24 0.1,0.6 0.05,1.1 -0.08,0.09 -1.07,0.19 -1.1,-0.04 0.02,-0.43 0.06,-0.82 0.22,-1.01z"/>
  <path fill="none" fill-rule="nonzero" stroke="#2B2A29" stroke-width="0.25" stroke-miterlimit="22.9256" fill="none" fill-rule="nonzero" d="M7.66 1.13c0.28,-0.12 0.55,-0.06 0.83,-0.05 0.09,0.24 0.1,0.6 0.05,1.1 -0.08,0.09 -1.07,0.19 -1.1,-0.04 0.02,-0.43 0.06,-0.82 0.22,-1.01z"/>
  <path fill="#F5B2B6" d="M7.61 15.32c0.31,0 0.56,0.24 0.56,0.55 0,0.31 -0.25,0.56 -0.56,0.56 -0.3,0 -0.55,-0.25 -0.55,-0.56 0,-0.31 0.25,-0.55 0.55,-0.55z"/>
  <path fill="none" fill-rule="nonzero" stroke="#2B2A29" stroke-width="0.25" stroke-miterlimit="22.9256" fill="none" fill-rule="nonzero" d="M7.61 15.32c0.31,0 0.56,0.24 0.56,0.55 0,0.31 -0.25,0.56 -0.56,0.56 -0.3,0 -0.55,-0.25 -0.55,-0.56 0,-0.31 0.25,-0.55 0.55,-0.55z"/>
  <path fill="#F5B2B6" d="M5.31 16.21c0.3,0 0.55,0.25 0.55,0.56 0,0.3 -0.25,0.55 -0.55,0.55 -0.31,0 -0.56,-0.25 -0.56,-0.55 0,-0.31 0.25,-0.56 0.56,-0.56z"/>
  <path fill="none" fill-rule="nonzero" stroke="#2B2A29" stroke-width="0.25" stroke-miterlimit="22.9256" fill="none" fill-rule="nonzero" d="M5.31 16.21c0.3,0 0.55,0.25 0.55,0.56 0,0.3 -0.25,0.55 -0.55,0.55 -0.31,0 -0.56,-0.25 -0.56,-0.55 0,-0.31 0.25,-0.56 0.56,-0.56z"/>
  <path fill="#F5B2B6" d="M6.25 13.48c0.3,0 0.55,0.25 0.55,0.55 0,0.31 -0.25,0.56 -0.55,0.56 -0.31,0 -0.56,-0.25 -0.56,-0.56 0,-0.3 0.25,-0.55 0.56,-0.55z"/>
  <path fill="none" fill-rule="nonzero" stroke="#2B2A29" stroke-width="0.25" stroke-miterlimit="22.9256" fill="none" fill-rule="nonzero" d="M6.25 13.48c0.3,0 0.55,0.25 0.55,0.55 0,0.31 -0.25,0.56 -0.55,0.56 -0.31,0 -0.56,-0.25 -0.56,-0.56 0,-0.3 0.25,-0.55 0.56,-0.55z"/>
  <path fill="#F5B2B6" d="M9.15 12.67c0.31,0 0.56,0.25 0.56,0.55 0,0.31 -0.25,0.56 -0.56,0.56 -0.31,0 -0.55,-0.25 -0.55,-0.56 0,-0.3 0.24,-0.55 0.55,-0.55z"/>
  <path fill="none" fill-rule="nonzero" stroke="#2B2A29" stroke-width="0.25" stroke-miterlimit="22.9256" fill="none" fill-rule="nonzero" d="M9.15 12.67c0.31,0 0.56,0.25 0.56,0.55 0,0.31 -0.25,0.56 -0.56,0.56 -0.31,0 -0.55,-0.25 -0.55,-0.56 0,-0.3 0.24,-0.55 0.55,-0.55z"/>
  <path fill="#F5B2B6" d="M7.53 11.3c0.3,0 0.55,0.25 0.55,0.56 0,0.3 -0.25,0.55 -0.55,0.55 -0.31,0 -0.56,-0.25 -0.56,-0.55 0,-0.31 0.25,-0.56 0.56,-0.56z"/>
  <path fill="none" fill-rule="nonzero" stroke="#2B2A29" stroke-width="0.25" stroke-miterlimit="22.9256" fill="none" fill-rule="nonzero" d="M7.53 11.3c0.3,0 0.55,0.25 0.55,0.56 0,0.3 -0.25,0.55 -0.55,0.55 -0.31,0 -0.56,-0.25 -0.56,-0.55 0,-0.31 0.25,-0.56 0.56,-0.56z"/>
  <path fill="#F5B2B6" d="M8.9 9.85c0.3,0 0.55,0.25 0.55,0.55 0,0.31 -0.25,0.56 -0.55,0.56 -0.31,0 -0.56,-0.25 -0.56,-0.56 0,-0.3 0.25,-0.55 0.56,-0.55z"/>
  <path fill="none" fill-rule="nonzero" stroke="#2B2A29" stroke-width="0.25" stroke-miterlimit="22.9256" fill="none" fill-rule="nonzero" d="M8.9 9.85c0.3,0 0.55,0.25 0.55,0.55 0,0.31 -0.25,0.56 -0.55,0.56 -0.31,0 -0.56,-0.25 -0.56,-0.56 0,-0.3 0.25,-0.55 0.56,-0.55z"/>
  <path fill="#F5B2B6" d="M10.13 14.72c0.31,0 0.56,0.25 0.56,0.55 0,0.31 -0.25,0.56 -0.56,0.56 -0.3,0 -0.55,-0.25 -0.55,-0.56 0,-0.3 0.25,-0.55 0.55,-0.55z"/>
  <path fill="none" fill-rule="nonzero" stroke="#2B2A29" stroke-width="0.25" stroke-miterlimit="22.9256" fill="none" fill-rule="nonzero" d="M10.13 14.72c0.31,0 0.56,0.25 0.56,0.55 0,0.31 -0.25,0.56 -0.56,0.56 -0.3,0 -0.55,-0.25 -0.55,-0.56 0,-0.3 0.25,-0.55 0.55,-0.55z"/>
  <path fill="#F5B2B6" d="M9.28 16.98c0.31,0 0.56,0.25 0.56,0.56 0,0.3 -0.25,0.55 -0.56,0.55 -0.31,0 -0.56,-0.25 -0.56,-0.55 0,-0.31 0.25,-0.56 0.56,-0.56z"/>
  <path fill="none" fill-rule="nonzero" stroke="#2B2A29" stroke-width="0.25" stroke-miterlimit="22.9256" fill="none" fill-rule="nonzero" d="M9.28 16.98c0.31,0 0.56,0.25 0.56,0.56 0,0.3 -0.25,0.55 -0.56,0.55 -0.31,0 -0.56,-0.25 -0.56,-0.55 0,-0.31 0.25,-0.56 0.56,-0.56z"/>
  <path fill="#F5B2B6" d="M12.01 16.13c0.31,0 0.56,0.25 0.56,0.55 0,0.31 -0.25,0.56 -0.56,0.56 -0.3,0 -0.55,-0.25 -0.55,-0.56 0,-0.3 0.25,-0.55 0.55,-0.55z"/>
  <path fill="none" fill-rule="nonzero" stroke="#2B2A29" stroke-width="0.25" stroke-miterlimit="22.9256" fill="none" fill-rule="nonzero" d="M12.01 16.13c0.31,0 0.56,0.25 0.56,0.55 0,0.31 -0.25,0.56 -0.56,0.56 -0.3,0 -0.55,-0.25 -0.55,-0.56 0,-0.3 0.25,-0.55 0.55,-0.55z"/>
  <path fill="#F5B2B6" d="M6.95 18c0.31,0 0.56,0.25 0.56,0.55 0,0.02 -0.01,0.04 -0.01,0.06 -0.36,-0.02 -0.72,-0.07 -1.1,-0.15 0.05,-0.26 0.28,-0.46 0.55,-0.46z"/>
  <path fill="none" fill-rule="nonzero" stroke="#2B2A29" stroke-width="0.25" stroke-miterlimit="22.9256" fill="none" fill-rule="nonzero" d="M6.95 18c0.31,0 0.56,0.25 0.56,0.55 0,0.02 -0.01,0.04 -0.01,0.06 -0.36,-0.02 -0.72,-0.07 -1.1,-0.15 0.05,-0.26 0.28,-0.46 0.55,-0.46z"/>
  <path fill="#F5B2B6" d="M7.74 9.46c-0.03,0.27 -0.27,0.49 -0.55,0.49 -0.05,0 -0.11,-0.01 -0.16,-0.02 0.06,-0.18 0.11,-0.36 0.16,-0.54 0.2,0.03 0.38,0.05 0.55,0.07z"/>
  <path fill="none" fill-rule="nonzero" stroke="#2B2A29" stroke-width="0.25" stroke-miterlimit="22.9256" fill="none" fill-rule="nonzero" d="M7.74 9.46c-0.03,0.27 -0.27,0.49 -0.55,0.49 -0.05,0 -0.11,-0.01 -0.16,-0.02 0.06,-0.18 0.11,-0.36 0.16,-0.54 0.2,0.03 0.38,0.05 0.55,0.07z"/>
</svg>
