
<svg xmlns="http://www.w3.org/2000/svg" xml:space="preserve" width="130px" height="67px" version="1.1" style="shape-rendering:geometricPrecision; text-rendering:geometricPrecision; image-rendering:optimizeQuality; fill-rule:evenodd; clip-rule:evenodd" viewBox="0 0 19.84 10.3"  xmlns:xlink="http://www.w3.org/1999/xlink">
  <path fill="#C5E3D7" d="M6.8 4.03c0.34,0.34 -0.29,1.03 -0.68,0.81 -0.14,-0.11 -1,-0.49 -1.88,-0.93 -0.23,-0.11 -0.22,0.02 -0.25,0.22 0.33,1.28 1.14,2.09 1.17,2.39 -0.01,0.24 -0.39,0.41 -0.89,0.5 0.09,1.78 0.7,2.09 0.64,2.38 -0.09,0.47 -1.3,0.45 -1.33,0 0.02,-0.2 0.05,-1.25 0.02,-2.32 -0.14,0.01 -0.29,0.01 -0.43,0 -0.04,1.12 0,2.26 0.01,2.47 -0.02,0.45 -1.23,0.48 -1.32,0.01 -0.06,-0.3 0.58,-0.62 0.65,-2.55 -0.44,-0.09 -0.77,-0.24 -0.81,-0.47 -0.08,-0.4 0.79,-1.32 1.04,-2.52 -0.04,-0.05 -0.1,-0.04 -0.2,0.04 -0.19,0.17 -1.53,1.33 -1.69,1.38 -0.38,0.12 -1,-0.31 -0.78,-0.67 0.18,-0.27 1.59,-0.54 2.66,-1.85 -0.45,-0.21 -0.77,-0.69 -0.77,-1.23 0,-0.75 0.58,-1.35 1.3,-1.35 0.71,0 1.29,0.6 1.29,1.35 0,0.5 -0.26,0.94 -0.66,1.17 1.4,1.1 2.68,0.96 2.91,1.17z"/>
  <path fill="#2B2A29" fill-rule="nonzero" d="M6.11 4.86l0.03 -0.04 0 0 0.03 0.01 0.04 0.02 0.03 0 0.04 0.01 0.04 -0.01 0.04 0 0.03 -0.01 0.04 -0.01 0.04 -0.02 0.04 -0.02 0.04 -0.02 0.03 -0.02 0.04 -0.03 0.03 -0.03 0.04 -0.03 0.03 -0.03 0.02 -0.04 0.03 -0.03 0.02 -0.04 0.02 -0.04 0.02 -0.04 0.02 -0.03 0.01 -0.04 0.01 -0.04 0 -0.04 0 -0.04 0 -0.03 -0.01 -0.04 -0.01 -0.03 -0.02 -0.04 -0.02 -0.03 -0.03 -0.03 0.04 -0.03 0.03 0.03 0.02 0.04 0.02 0.04 0.02 0.04 0.01 0.04 0 0.04 0 0.04 0 0.05 -0.01 0.04 -0.01 0.04 -0.02 0.04 -0.02 0.05 -0.02 0.04 -0.03 0.04 -0.02 0.04 -0.03 0.03 -0.04 0.04 -0.03 0.03 -0.04 0.03 -0.04 0.03 -0.04 0.03 -0.04 0.02 -0.04 0.02 -0.04 0.02 -0.04 0.01 -0.05 0.01 -0.04 0.01 -0.04 0 -0.05 -0.01 -0.04 0 -0.04 -0.02 -0.04 -0.02 0 0zm0 0l0 0 0 0 0 0zm-1.89 -0.93l0.03 -0.04 0 0 0.08 0.04 0.08 0.04 0.08 0.04 0.09 0.04 0.08 0.04 0.08 0.04 0.07 0.04 0.08 0.03 0.08 0.04 0.08 0.04 0.07 0.03 0.07 0.04 0.07 0.03 0.07 0.03 0.07 0.03 0.07 0.04 0.06 0.03 0.06 0.02 0.06 0.03 0.06 0.03 0.05 0.03 0.05 0.02 0.05 0.02 0.04 0.03 0.04 0.02 0.04 0.02 0.04 0.02 0.03 0.01 0.03 0.02 0.02 0.01 0.02 0.02 0.02 0.01 -0.03 0.04 -0.02 -0.01 -0.02 -0.01 -0.02 -0.02 -0.03 -0.01 -0.03 -0.02 -0.03 -0.02 -0.04 -0.02 -0.04 -0.02 -0.04 -0.02 -0.05 -0.02 -0.05 -0.03 -0.06 -0.02 -0.05 -0.03 -0.06 -0.03 -0.06 -0.03 -0.07 -0.03 -0.06 -0.03 -0.07 -0.03 -0.07 -0.03 -0.07 -0.04 -0.07 -0.03 -0.08 -0.04 -0.07 -0.03 -0.08 -0.04 -0.08 -0.04 -0.08 -0.04 -0.08 -0.03 -0.08 -0.04 -0.08 -0.04 -0.08 -0.04 -0.08 -0.05 -0.09 -0.04 0 0zm-0.2 0.2l-0.06 0.01 0 -0.01 0.01 -0.02 0 -0.02 0 -0.02 0 -0.01 0.01 -0.02 0 -0.02 0 -0.01 0 -0.02 0.01 -0.01 0 -0.02 0 -0.01 0.01 -0.02 0 -0.01 0 -0.01 0.01 -0.01 0.01 -0.01 0 -0.01 0.01 -0.01 0.01 -0.01 0.01 -0.01 0.02 0 0.01 -0.01 0.01 0 0.02 0 0.01 0 0.02 0 0.01 0.01 0.02 0 0.02 0.01 0.02 0.01 0.02 0.01 0.02 0.01 -0.03 0.04 -0.02 -0.01 -0.01 0 -0.02 -0.01 -0.02 -0.01 -0.01 0 -0.01 0 -0.01 -0.01 -0.01 0 -0.01 0 -0.01 0 -0.01 0.01 0 0 -0.01 0 0 0.01 -0.01 0 0 0.01 0 0 -0.01 0.01 0 0.01 0 0.01 -0.01 0.01 0 0.01 0 0.02 -0.01 0.01 0 0.01 0 0.02 0 0.02 0 0.01 -0.01 0.02 0 0.02 0 0.02 0 0.02 0 -0.01zm-0.06 0.01l0 0 0 -0.01 0 0.01zm1.23 2.38l-0.05 0 0 0 -0.01 -0.02 -0.01 -0.03 -0.01 -0.04 -0.02 -0.04 -0.02 -0.04 -0.02 -0.04 -0.03 -0.05 -0.03 -0.05 -0.03 -0.05 -0.04 -0.06 -0.04 -0.05 -0.04 -0.07 -0.04 -0.06 -0.04 -0.07 -0.05 -0.07 -0.04 -0.07 -0.05 -0.08 -0.05 -0.08 -0.05 -0.08 -0.05 -0.09 -0.04 -0.08 -0.05 -0.09 -0.05 -0.1 -0.05 -0.09 -0.04 -0.1 -0.05 -0.11 -0.04 -0.1 -0.04 -0.11 -0.04 -0.11 -0.04 -0.11 -0.03 -0.12 -0.04 -0.12 0.06 -0.01 0.03 0.12 0.03 0.11 0.04 0.11 0.04 0.11 0.04 0.11 0.04 0.1 0.04 0.1 0.05 0.1 0.05 0.1 0.04 0.09 0.05 0.09 0.05 0.09 0.05 0.08 0.04 0.09 0.05 0.07 0.05 0.08 0.05 0.07 0.04 0.07 0.04 0.07 0.05 0.07 0.04 0.06 0.03 0.06 0.04 0.05 0.03 0.06 0.04 0.05 0.02 0.04 0.03 0.05 0.02 0.04 0.02 0.04 0.01 0.04 0.01 0.03 0.01 0.04 0 0zm0 0l0 0 0 0 0 0zm-0.9 0.5l-0.05 0 0.02 -0.03 0.05 0 0.04 -0.01 0.05 -0.01 0.04 -0.01 0.05 -0.01 0.04 -0.01 0.04 -0.01 0.04 -0.02 0.04 -0.01 0.04 -0.01 0.03 -0.01 0.04 -0.02 0.03 -0.01 0.03 -0.01 0.03 -0.02 0.03 -0.01 0.03 -0.02 0.03 -0.02 0.03 -0.01 0.02 -0.02 0.02 -0.02 0.02 -0.01 0.02 -0.02 0.02 -0.02 0.01 -0.02 0.01 -0.02 0.02 -0.01 0.01 -0.02 0 -0.02 0.01 -0.02 0 -0.02 0.01 -0.02 0.05 0 -0.01 0.03 0 0.02 -0.01 0.02 -0.01 0.03 -0.01 0.02 -0.01 0.02 -0.02 0.02 -0.01 0.03 -0.02 0.02 -0.02 0.02 -0.03 0.01 -0.02 0.02 -0.03 0.02 -0.02 0.02 -0.03 0.02 -0.03 0.01 -0.03 0.02 -0.04 0.01 -0.03 0.02 -0.03 0.01 -0.04 0.02 -0.04 0.01 -0.04 0.01 -0.04 0.01 -0.04 0.02 -0.04 0.01 -0.04 0.01 -0.05 0.01 -0.04 0.01 -0.05 0.01 -0.04 0.01 -0.05 0.01 0.02 -0.03zm-0.05 0l0 -0.02 0.02 -0.01 -0.02 0.03zm0.7 2.39l-0.05 -0.01 0 0 0 -0.03 0 -0.02 0 -0.03 -0.01 -0.02 -0.01 -0.03 -0.01 -0.03 -0.02 -0.03 -0.02 -0.04 -0.02 -0.04 -0.02 -0.04 -0.02 -0.04 -0.03 -0.05 -0.02 -0.05 -0.03 -0.05 -0.03 -0.06 -0.03 -0.06 -0.03 -0.06 -0.03 -0.08 -0.03 -0.07 -0.03 -0.08 -0.03 -0.09 -0.02 -0.09 -0.03 -0.1 -0.03 -0.1 -0.03 -0.11 -0.02 -0.12 -0.02 -0.12 -0.02 -0.14 -0.02 -0.13 -0.02 -0.15 -0.01 -0.16 -0.01 -0.16 0.05 0 0.01 0.16 0.02 0.15 0.01 0.15 0.02 0.14 0.02 0.13 0.02 0.12 0.03 0.12 0.02 0.11 0.03 0.1 0.02 0.1 0.03 0.09 0.03 0.08 0.03 0.08 0.03 0.08 0.03 0.06 0.03 0.07 0.03 0.06 0.03 0.06 0.02 0.05 0.03 0.05 0.03 0.04 0.02 0.05 0.02 0.04 0.02 0.04 0.02 0.03 0.01 0.04 0.02 0.03 0.01 0.03 0.01 0.03 0 0.04 0 0.03 0 0.03 0 0zm0 0l0 0 0 0 0 0zm-1.38 -0.02l0.05 0.01 0 0 0 0.03 0.01 0.04 0.02 0.03 0.02 0.03 0.03 0.03 0.03 0.02 0.04 0.03 0.04 0.02 0.04 0.02 0.05 0.02 0.05 0.01 0.05 0.01 0.06 0.01 0.06 0.01 0.05 0.01 0.06 0 0.06 0 0.06 -0.01 0.06 0 0.05 -0.01 0.06 -0.01 0.05 -0.02 0.05 -0.01 0.05 -0.02 0.04 -0.02 0.04 -0.03 0.04 -0.02 0.03 -0.03 0.03 -0.03 0.02 -0.04 0.02 -0.03 0.01 -0.04 0.05 0.01 -0.02 0.04 -0.02 0.05 -0.02 0.04 -0.03 0.03 -0.04 0.04 -0.04 0.03 -0.04 0.02 -0.05 0.03 -0.05 0.02 -0.06 0.01 -0.05 0.02 -0.06 0.01 -0.06 0.01 -0.06 0.01 -0.06 0 -0.06 0 -0.06 0 -0.06 -0.01 -0.06 0 -0.06 -0.02 -0.05 -0.01 -0.05 -0.01 -0.06 -0.02 -0.04 -0.02 -0.05 -0.03 -0.04 -0.02 -0.04 -0.04 -0.03 -0.03 -0.02 -0.03 -0.02 -0.04 -0.02 -0.05 0 -0.04 0 -0.01zm0 0.01l0 0 0 -0.01 0 0.01zm0.04 -2.29l0 -0.05 0.03 0.02 0 0.1 0 0.1 0 0.1 0.01 0.1 0 0.1 0 0.1 0 0.09 0 0.1 0 0.09 0 0.09 0 0.09 0 0.09 0 0.09 0 0.08 0 0.09 0 0.08 -0.01 0.07 0 0.08 0 0.07 0 0.07 0 0.06 0 0.07 0 0.06 -0.01 0.05 0 0.05 0 0.05 0 0.05 0 0.03 -0.01 0.04 0 0.03 0 0.03 0 0.02 -0.05 -0.01 0 -0.02 0 -0.02 0 -0.03 0 -0.04 0.01 -0.04 0 -0.04 0 -0.05 0 -0.05 0 -0.06 0.01 -0.05 0 -0.07 0 -0.06 0 -0.07 0 -0.07 0 -0.08 0 -0.08 0 -0.08 0.01 -0.08 0 -0.08 0 -0.09 0 -0.09 0 -0.09 0 -0.09 0 -0.09 0 -0.1 0 -0.09 -0.01 -0.1 0 -0.1 0 -0.1 0 -0.1 0 -0.09 0 -0.1 0.02 0.02zm0 -0.05l0.03 0 0 0.02 -0.03 -0.02zm-0.4 0.02l-0.06 0 0.03 -0.02 0.01 0 0.02 0 0.01 0 0.02 0 0.01 0 0.01 0 0.02 0 0.01 0 0.01 0 0.02 0 0.01 0 0.01 0 0.02 0 0.01 0 0.01 0 0.02 0 0.01 0 0.01 0 0.02 0 0.01 0 0.01 0 0.02 0 0.01 0 0.01 0 0.02 0 0.01 0 0.01 0 0.02 0 0.01 0 0.01 0 0.02 0 0.01 0 0 0.05 -0.01 0 -0.01 0 -0.02 0 -0.01 0 -0.02 0 -0.01 0 -0.01 0 -0.02 0 -0.01 0 -0.01 0 -0.02 0 -0.01 0 -0.01 0 -0.02 0 -0.01 0 -0.01 0 -0.02 0 -0.01 0 -0.02 0 -0.01 0 -0.01 0 -0.02 0 -0.01 0 -0.01 0 -0.02 0 -0.01 0 -0.01 0 -0.02 0 -0.01 0 -0.01 0 -0.02 0 -0.01 0 0.03 -0.03zm-0.06 0l0.01 -0.02 0.02 0 -0.03 0.02zm0.07 2.47l-0.05 0 0 0.01 0 -0.03 -0.01 -0.03 0 -0.03 0 -0.04 0 -0.04 0 -0.05 0 -0.05 -0.01 -0.05 0 -0.06 0 -0.07 0 -0.06 0 -0.08 -0.01 -0.07 0 -0.08 0 -0.08 0 -0.08 0 -0.09 0 -0.09 0 -0.09 0 -0.09 0 -0.09 0 -0.1 0 -0.1 0 -0.1 0 -0.1 0 -0.1 0 -0.11 0 -0.1 0.01 -0.1 0 -0.11 0 -0.1 0 -0.11 0.06 0 -0.01 0.11 0 0.1 0 0.11 0 0.1 -0.01 0.11 0 0.1 0 0.1 0 0.1 0 0.1 0 0.1 0 0.1 0 0.09 0 0.09 0 0.09 0 0.09 0 0.09 0 0.08 0 0.08 0.01 0.08 0 0.07 0 0.07 0 0.07 0 0.06 0.01 0.06 0 0.06 0 0.05 0 0.05 0 0.04 0 0.04 0.01 0.03 0 0.03 0 0.02 0 0zm0 0l0 0 0 0 0 0zm-1.38 0.01l0.05 -0.01 0 0 0.01 0.04 0.02 0.04 0.02 0.03 0.03 0.03 0.03 0.03 0.04 0.03 0.04 0.02 0.04 0.03 0.05 0.01 0.05 0.02 0.05 0.01 0.06 0.02 0.05 0 0.06 0.01 0.06 0 0.06 0 0.05 0 0.06 0 0.06 -0.01 0.05 -0.01 0.06 -0.01 0.05 -0.02 0.04 -0.01 0.05 -0.02 0.04 -0.03 0.04 -0.02 0.03 -0.03 0.02 -0.03 0.03 -0.03 0.01 -0.03 0.01 -0.03 0.01 -0.04 0.05 0 -0.01 0.05 -0.01 0.04 -0.02 0.04 -0.03 0.04 -0.03 0.03 -0.03 0.03 -0.04 0.03 -0.05 0.02 -0.05 0.02 -0.05 0.02 -0.05 0.02 -0.06 0.01 -0.05 0.01 -0.06 0.01 -0.06 0 -0.06 0.01 -0.06 0 -0.06 -0.01 -0.06 0 -0.06 -0.01 -0.06 -0.01 -0.06 -0.02 -0.05 -0.02 -0.05 -0.02 -0.05 -0.02 -0.04 -0.03 -0.04 -0.03 -0.04 -0.03 -0.03 -0.04 -0.03 -0.04 -0.02 -0.04 -0.01 -0.05 0 0zm0 0l0 0 0 0.01 0 -0.01zm0.67 -2.53l0.01 -0.05 0.02 0.03 0 0.18 -0.01 0.16 -0.02 0.16 -0.02 0.15 -0.01 0.14 -0.03 0.14 -0.02 0.13 -0.02 0.11 -0.03 0.12 -0.03 0.1 -0.03 0.1 -0.03 0.09 -0.03 0.09 -0.03 0.08 -0.03 0.08 -0.03 0.07 -0.03 0.06 -0.03 0.06 -0.03 0.06 -0.03 0.05 -0.02 0.05 -0.03 0.05 -0.02 0.04 -0.02 0.04 -0.02 0.03 -0.02 0.04 -0.01 0.03 -0.01 0.03 -0.01 0.03 0 0.02 0 0.03 0 0.02 -0.05 0.01 0 -0.03 0 -0.03 0 -0.03 0.01 -0.03 0.01 -0.04 0.02 -0.03 0.01 -0.04 0.02 -0.04 0.02 -0.04 0.03 -0.04 0.02 -0.04 0.03 -0.05 0.02 -0.05 0.03 -0.06 0.03 -0.06 0.03 -0.07 0.03 -0.06 0.03 -0.08 0.03 -0.08 0.03 -0.08 0.03 -0.09 0.03 -0.1 0.03 -0.11 0.03 -0.11 0.02 -0.11 0.02 -0.13 0.02 -0.13 0.02 -0.14 0.02 -0.15 0.01 -0.16 0.01 -0.17 0.01 -0.17 0.02 0.02zm0.01 -0.05l0.03 0.01 -0.01 0.02 -0.02 -0.03zm-0.84 -0.44l0.05 -0.01 0 0 0.01 0.02 0 0.02 0.01 0.02 0.01 0.02 0.01 0.02 0.01 0.01 0.02 0.02 0.01 0.02 0.02 0.02 0.01 0.01 0.02 0.02 0.02 0.01 0.03 0.02 0.02 0.02 0.02 0.01 0.03 0.01 0.03 0.02 0.02 0.01 0.03 0.02 0.03 0.01 0.03 0.01 0.03 0.01 0.04 0.02 0.03 0.01 0.04 0.01 0.03 0.01 0.04 0.01 0.04 0.01 0.03 0.01 0.04 0.01 0.04 0 0.04 0.01 -0.01 0.05 -0.04 0 -0.04 -0.01 -0.04 -0.01 -0.04 -0.01 -0.03 -0.01 -0.04 -0.01 -0.04 -0.01 -0.03 -0.01 -0.04 -0.02 -0.03 -0.01 -0.04 -0.01 -0.03 -0.01 -0.03 -0.02 -0.03 -0.01 -0.03 -0.02 -0.03 -0.01 -0.02 -0.02 -0.03 -0.01 -0.02 -0.02 -0.03 -0.01 -0.02 -0.02 -0.02 -0.02 -0.02 -0.02 -0.02 -0.02 -0.01 -0.02 -0.02 -0.02 -0.01 -0.02 -0.02 -0.02 -0.01 -0.02 -0.01 -0.02 0 -0.02 -0.01 -0.03 0 0zm0 0l0 0 0 0.01 0 -0.01zm1.05 -2.51l0.04 -0.03 0 0.02 -0.02 0.11 -0.03 0.12 -0.03 0.1 -0.04 0.11 -0.04 0.11 -0.04 0.1 -0.04 0.1 -0.04 0.1 -0.04 0.1 -0.05 0.1 -0.04 0.09 -0.05 0.09 -0.05 0.09 -0.04 0.09 -0.05 0.08 -0.04 0.08 -0.05 0.08 -0.04 0.08 -0.04 0.07 -0.04 0.07 -0.04 0.07 -0.03 0.07 -0.04 0.06 -0.02 0.07 -0.03 0.05 -0.02 0.06 -0.02 0.05 -0.02 0.05 -0.01 0.05 0 0.04 0 0.04 0 0.03 -0.05 0.01 0 -0.04 0 -0.04 0 -0.05 0.01 -0.05 0.02 -0.05 0.02 -0.06 0.02 -0.06 0.03 -0.06 0.03 -0.06 0.03 -0.06 0.04 -0.07 0.03 -0.07 0.04 -0.07 0.04 -0.08 0.05 -0.07 0.04 -0.08 0.05 -0.09 0.04 -0.08 0.05 -0.09 0.04 -0.08 0.05 -0.09 0.05 -0.1 0.04 -0.09 0.04 -0.1 0.05 -0.1 0.04 -0.1 0.04 -0.1 0.03 -0.1 0.04 -0.11 0.03 -0.11 0.03 -0.11 0.02 -0.11 0.01 0.02zm0.04 -0.03l0 0.01 0 0.01 0 -0.02zm-0.2 0.08l-0.04 -0.04 0 0 0.01 0 0.01 -0.01 0.01 -0.01 0.01 -0.01 0.01 0 0.01 -0.01 0.01 0 0.01 -0.01 0 0 0.01 -0.01 0.01 0 0.01 0 0 -0.01 0.01 0 0.01 0 0.01 0 0 -0.01 0.01 0 0.01 0 0 0 0.01 0 0.01 0.01 0.01 0 0 0 0.01 0 0 0 0.01 0.01 0.01 0 0 0.01 0.01 0 0 0 0.01 0.01 -0.04 0.03 -0.01 0 0 0 0 0 0 -0.01 -0.01 0 0 0 0 0 -0.01 0 0 0 0 0 0 0 -0.01 0 0 0 0 0 -0.01 0 0 0 -0.01 0 0 0 -0.01 0 0 0 -0.01 0.01 -0.01 0 0 0 -0.01 0.01 -0.01 0 0 0.01 -0.01 0 -0.01 0.01 -0.01 0 -0.01 0.01 0 0.01 -0.01 0 0 0zm-1.7 1.38l-0.02 -0.05 0 0 0.02 0 0.02 -0.02 0.03 -0.01 0.04 -0.03 0.04 -0.03 0.04 -0.03 0.05 -0.04 0.06 -0.05 0.06 -0.04 0.06 -0.05 0.06 -0.05 0.07 -0.06 0.07 -0.05 0.06 -0.06 0.08 -0.06 0.07 -0.06 0.07 -0.06 0.07 -0.06 0.07 -0.05 0.07 -0.06 0.06 -0.06 0.07 -0.06 0.06 -0.05 0.06 -0.05 0.06 -0.05 0.05 -0.04 0.05 -0.04 0.04 -0.04 0.04 -0.04 0.03 -0.02 0.03 -0.03 0.02 -0.02 0.04 0.04 -0.02 0.02 -0.03 0.03 -0.04 0.02 -0.04 0.04 -0.04 0.03 -0.05 0.05 -0.05 0.04 -0.06 0.05 -0.06 0.05 -0.06 0.05 -0.06 0.06 -0.07 0.06 -0.07 0.05 -0.07 0.06 -0.07 0.06 -0.07 0.06 -0.07 0.06 -0.07 0.06 -0.07 0.06 -0.07 0.05 -0.07 0.06 -0.06 0.05 -0.06 0.05 -0.06 0.05 -0.05 0.04 -0.06 0.04 -0.04 0.03 -0.04 0.03 -0.04 0.03 -0.03 0.02 -0.03 0.01 -0.02 0.01 0 0zm-0.81 -0.7l0.05 0.02 0 0 -0.02 0.03 -0.01 0.04 -0.01 0.03 -0.01 0.03 0 0.03 0 0.03 0.01 0.03 0.01 0.03 0.01 0.03 0.02 0.03 0.02 0.03 0.02 0.03 0.02 0.03 0.03 0.03 0.03 0.03 0.03 0.02 0.03 0.03 0.04 0.02 0.03 0.02 0.04 0.02 0.04 0.02 0.04 0.01 0.04 0.02 0.03 0.01 0.04 0.01 0.04 0.01 0.04 0 0.04 0 0.04 0 0.03 0 0.04 -0.01 0.03 -0.01 0.02 0.05 -0.04 0.01 -0.04 0.01 -0.04 0 -0.04 0.01 -0.04 -0.01 -0.05 0 -0.04 -0.01 -0.04 -0.01 -0.04 -0.01 -0.04 -0.02 -0.04 -0.01 -0.04 -0.02 -0.04 -0.02 -0.04 -0.03 -0.04 -0.02 -0.03 -0.03 -0.03 -0.02 -0.03 -0.03 -0.03 -0.03 -0.03 -0.03 -0.02 -0.04 -0.03 -0.03 -0.01 -0.03 -0.02 -0.04 -0.01 -0.04 -0.01 -0.03 0 -0.04 0 -0.04 0.01 -0.03 0.01 -0.04 0.01 -0.04 0.02 -0.03 0 0zm0 0l0 0 0 0 0 0zm2.67 -1.82l0.02 -0.05 0.01 0.04 -0.1 0.12 -0.1 0.12 -0.11 0.11 -0.11 0.1 -0.1 0.1 -0.11 0.09 -0.11 0.09 -0.11 0.09 -0.1 0.07 -0.11 0.08 -0.11 0.07 -0.1 0.06 -0.1 0.07 -0.11 0.05 -0.09 0.06 -0.1 0.05 -0.1 0.05 -0.09 0.04 -0.09 0.05 -0.08 0.04 -0.08 0.04 -0.08 0.03 -0.07 0.03 -0.07 0.04 -0.06 0.03 -0.06 0.03 -0.05 0.02 -0.04 0.03 -0.04 0.03 -0.03 0.02 -0.03 0.02 -0.01 0.02 -0.05 -0.02 0.03 -0.03 0.02 -0.03 0.04 -0.03 0.04 -0.02 0.05 -0.03 0.05 -0.03 0.06 -0.03 0.06 -0.03 0.07 -0.03 0.07 -0.04 0.08 -0.03 0.08 -0.04 0.08 -0.04 0.09 -0.04 0.09 -0.05 0.09 -0.05 0.1 -0.05 0.1 -0.05 0.1 -0.06 0.1 -0.06 0.11 -0.07 0.1 -0.06 0.11 -0.08 0.1 -0.08 0.11 -0.08 0.11 -0.09 0.1 -0.09 0.11 -0.1 0.1 -0.1 0.11 -0.11 0.1 -0.11 0.1 -0.12 0.01 0.04zm0.02 -0.05l0.03 0.02 -0.02 0.02 -0.01 -0.04zm-0.81 -1.2l0.06 0 0 0 0 0.05 0 0.05 0 0.05 0.01 0.04 0.01 0.05 0.01 0.05 0.01 0.05 0.01 0.04 0.02 0.05 0.01 0.04 0.02 0.05 0.02 0.04 0.02 0.04 0.02 0.04 0.02 0.04 0.03 0.04 0.02 0.04 0.03 0.04 0.03 0.04 0.03 0.03 0.03 0.04 0.03 0.03 0.03 0.03 0.04 0.03 0.03 0.03 0.04 0.03 0.03 0.03 0.04 0.02 0.04 0.03 0.04 0.02 0.04 0.02 0.04 0.02 -0.02 0.05 -0.04 -0.02 -0.05 -0.02 -0.04 -0.03 -0.04 -0.02 -0.04 -0.03 -0.03 -0.03 -0.04 -0.03 -0.04 -0.03 -0.03 -0.03 -0.04 -0.03 -0.03 -0.04 -0.03 -0.03 -0.03 -0.04 -0.03 -0.04 -0.03 -0.04 -0.03 -0.04 -0.02 -0.04 -0.03 -0.04 -0.02 -0.04 -0.02 -0.05 -0.02 -0.04 -0.02 -0.05 -0.01 -0.05 -0.02 -0.04 -0.01 -0.05 -0.01 -0.05 -0.01 -0.05 -0.01 -0.05 -0.01 -0.05 0 -0.05 0 -0.05 -0.01 -0.05 0 0zm1.33 -1.38l0 0.06 0 0 -0.07 0 -0.06 0 -0.07 0.01 -0.06 0.01 -0.06 0.02 -0.06 0.02 -0.06 0.02 -0.06 0.02 -0.05 0.03 -0.06 0.02 -0.05 0.04 -0.05 0.03 -0.05 0.04 -0.05 0.04 -0.05 0.04 -0.04 0.04 -0.04 0.05 -0.04 0.05 -0.04 0.05 -0.04 0.05 -0.03 0.05 -0.03 0.06 -0.03 0.05 -0.02 0.06 -0.03 0.06 -0.02 0.06 -0.01 0.07 -0.02 0.06 -0.01 0.06 -0.01 0.07 0 0.07 0 0.07 -0.06 0 0.01 -0.07 0 -0.07 0.01 -0.07 0.01 -0.07 0.02 -0.07 0.01 -0.06 0.02 -0.07 0.03 -0.06 0.02 -0.06 0.03 -0.06 0.04 -0.06 0.03 -0.05 0.04 -0.05 0.04 -0.06 0.04 -0.05 0.04 -0.04 0.05 -0.05 0.04 -0.04 0.06 -0.04 0.05 -0.04 0.05 -0.04 0.06 -0.03 0.05 -0.03 0.06 -0.03 0.06 -0.02 0.06 -0.02 0.07 -0.02 0.06 -0.02 0.06 -0.01 0.07 -0.01 0.07 0 0.07 -0.01 0 0zm1.32 1.38l-0.06 0 0 0 0 -0.07 0 -0.07 -0.01 -0.07 -0.01 -0.06 -0.02 -0.06 -0.01 -0.07 -0.02 -0.06 -0.03 -0.06 -0.02 -0.06 -0.03 -0.05 -0.03 -0.06 -0.03 -0.05 -0.04 -0.05 -0.04 -0.05 -0.04 -0.05 -0.04 -0.05 -0.04 -0.04 -0.05 -0.04 -0.05 -0.04 -0.05 -0.04 -0.05 -0.03 -0.05 -0.04 -0.05 -0.02 -0.06 -0.03 -0.06 -0.02 -0.06 -0.02 -0.06 -0.02 -0.06 -0.02 -0.06 -0.01 -0.06 -0.01 -0.07 0 -0.06 0 0 -0.06 0.06 0.01 0.07 0 0.07 0.01 0.06 0.01 0.07 0.02 0.06 0.02 0.06 0.02 0.06 0.02 0.06 0.03 0.06 0.03 0.05 0.03 0.05 0.04 0.06 0.04 0.05 0.04 0.04 0.04 0.05 0.05 0.04 0.04 0.04 0.05 0.04 0.06 0.04 0.05 0.04 0.05 0.03 0.06 0.03 0.06 0.02 0.06 0.03 0.06 0.02 0.07 0.01 0.06 0.02 0.07 0.01 0.07 0.01 0.07 0 0.07 0.01 0.07 0 0zm-0.67 1.15l-0.03 0.04 0 -0.05 0.04 -0.02 0.03 -0.02 0.04 -0.02 0.03 -0.03 0.03 -0.03 0.03 -0.02 0.03 -0.03 0.03 -0.03 0.03 -0.03 0.03 -0.03 0.03 -0.04 0.02 -0.03 0.03 -0.03 0.02 -0.04 0.02 -0.03 0.03 -0.04 0.02 -0.04 0.02 -0.04 0.01 -0.03 0.02 -0.04 0.02 -0.04 0.01 -0.05 0.02 -0.04 0.01 -0.04 0.01 -0.04 0.01 -0.04 0.01 -0.05 0 -0.04 0.01 -0.05 0 -0.04 0 -0.05 0 -0.04 0.06 0 0 0.04 -0.01 0.05 0 0.05 -0.01 0.04 0 0.05 -0.01 0.05 -0.01 0.04 -0.01 0.04 -0.01 0.05 -0.02 0.04 -0.01 0.04 -0.02 0.05 -0.02 0.04 -0.02 0.04 -0.02 0.04 -0.02 0.04 -0.02 0.03 -0.02 0.04 -0.03 0.04 -0.03 0.03 -0.02 0.04 -0.03 0.03 -0.03 0.03 -0.03 0.03 -0.03 0.04 -0.03 0.02 -0.04 0.03 -0.03 0.03 -0.03 0.03 -0.04 0.02 -0.04 0.03 -0.03 0.02 0 -0.04zm-0.03 0.04l-0.03 -0.03 0.03 -0.02 0 0.05zm2.94 1.14l-0.04 0.03 0 0 -0.02 -0.01 -0.03 -0.02 -0.03 -0.01 -0.04 -0.02 -0.05 -0.01 -0.05 -0.01 -0.06 -0.02 -0.06 -0.01 -0.07 -0.01 -0.07 -0.02 -0.08 -0.01 -0.08 -0.02 -0.08 -0.01 -0.09 -0.02 -0.09 -0.02 -0.1 -0.02 -0.1 -0.03 -0.11 -0.03 -0.1 -0.03 -0.11 -0.04 -0.11 -0.04 -0.12 -0.04 -0.12 -0.05 -0.12 -0.05 -0.12 -0.06 -0.12 -0.06 -0.13 -0.07 -0.12 -0.07 -0.13 -0.08 -0.13 -0.09 -0.13 -0.09 -0.13 -0.1 0.03 -0.04 0.13 0.1 0.13 0.09 0.13 0.08 0.12 0.08 0.13 0.08 0.12 0.06 0.13 0.07 0.12 0.05 0.11 0.06 0.12 0.04 0.11 0.05 0.12 0.03 0.1 0.04 0.11 0.03 0.1 0.03 0.1 0.02 0.1 0.03 0.09 0.02 0.09 0.02 0.08 0.01 0.08 0.02 0.08 0.01 0.07 0.02 0.07 0.01 0.06 0.01 0.06 0.02 0.05 0.01 0.05 0.01 0.05 0.02 0.03 0.02 0.04 0.01 0.03 0.03 0 0zm0 0l-0.01 0 0.01 0 0 0z"/>
  <path fill="#99CFBA" d="M16.06 0.03c0.73,0 1.32,0.61 1.32,1.37 0,0.53 -0.29,0.99 -0.71,1.22 1.16,1.53 2.95,2.16 3.13,2.44 0.13,0.23 -0.78,0.97 -0.96,0.75 -0.3,-0.23 -1.11,-1.18 -1.9,-1.85 -0.06,-0.05 -0.1,-0.06 -0.12,-0.04 0.19,1.21 0.4,2.06 0.45,2.51l0 0c0.3,2.44 1.05,3.08 0.99,3.41 -0.1,0.49 -1.74,0.55 -1.77,0.08 0.02,-0.24 0.13,-1.66 0.01,-2.94 -0.01,-0.01 -0.02,-0.03 -0.02,-0.06 0.01,-0.02 0.01,-0.04 0,-0.06l0 -0.02c-0.03,-0.23 -0.29,-0.37 -0.35,0.02 -0.14,1.21 -0.19,2.79 -0.17,3.04 -0.02,0.47 -1.64,0.51 -1.74,0.02 -0.06,-0.33 0.91,-1.35 1.04,-3.34l0 0c-0.02,-0.51 0.18,-1.5 0.26,-2.62 -0.02,0.01 -0.06,0.04 -0.12,0.09 -0.21,0.17 -1.44,1.73 -1.61,1.78 -0.39,0.13 -0.91,-0.34 -0.77,-0.59 0.18,-0.28 1.43,-1.18 2.54,-2.56l0 -0.01c-0.48,-0.2 -0.83,-0.69 -0.83,-1.27 0,-0.76 0.6,-1.37 1.33,-1.37z"/>
  <path fill="#2B2A29" fill-rule="nonzero" d="M17.4 1.4l-0.05 0 0 0 0 -0.07 -0.01 -0.07 0 -0.07 -0.02 -0.06 -0.01 -0.07 -0.02 -0.06 -0.02 -0.06 -0.02 -0.07 -0.03 -0.05 -0.03 -0.06 -0.03 -0.06 -0.03 -0.05 -0.04 -0.06 -0.04 -0.05 -0.04 -0.05 -0.04 -0.04 -0.04 -0.05 -0.05 -0.04 -0.05 -0.04 -0.05 -0.04 -0.05 -0.03 -0.06 -0.04 -0.05 -0.03 -0.06 -0.02 -0.06 -0.03 -0.06 -0.02 -0.06 -0.02 -0.06 -0.01 -0.07 -0.01 -0.06 -0.01 -0.07 -0.01 -0.06 0 0 -0.05 0.06 0 0.07 0.01 0.07 0.01 0.07 0.01 0.06 0.01 0.07 0.02 0.06 0.03 0.06 0.02 0.06 0.03 0.06 0.03 0.05 0.03 0.06 0.04 0.05 0.04 0.05 0.04 0.05 0.04 0.05 0.05 0.04 0.05 0.05 0.05 0.04 0.05 0.03 0.06 0.04 0.05 0.03 0.06 0.03 0.06 0.03 0.07 0.02 0.06 0.02 0.06 0.02 0.07 0.02 0.07 0.01 0.07 0.01 0.07 0 0.07 0 0.07 0 0zm-0.71 1.2l-0.04 0.03 0.01 -0.04 0.04 -0.02 0.03 -0.02 0.04 -0.03 0.04 -0.02 0.03 -0.03 0.03 -0.03 0.04 -0.02 0.03 -0.03 0.03 -0.04 0.03 -0.03 0.03 -0.03 0.03 -0.04 0.03 -0.03 0.02 -0.04 0.03 -0.04 0.02 -0.03 0.02 -0.04 0.02 -0.04 0.02 -0.04 0.02 -0.04 0.02 -0.05 0.01 -0.04 0.02 -0.04 0.01 -0.05 0.01 -0.04 0.01 -0.05 0.01 -0.04 0.01 -0.05 0 -0.05 0.01 -0.04 0 -0.05 0 -0.05 0.05 0 0 0.05 0 0.05 0 0.05 -0.01 0.05 -0.01 0.05 -0.01 0.04 -0.01 0.05 -0.01 0.05 -0.01 0.04 -0.02 0.05 -0.01 0.04 -0.02 0.05 -0.02 0.04 -0.02 0.04 -0.02 0.04 -0.03 0.04 -0.02 0.04 -0.03 0.04 -0.02 0.04 -0.03 0.04 -0.03 0.03 -0.03 0.04 -0.03 0.03 -0.03 0.03 -0.04 0.03 -0.03 0.03 -0.04 0.03 -0.03 0.03 -0.04 0.03 -0.04 0.02 -0.04 0.03 -0.04 0.02 0.01 -0.04zm-0.04 0.03l-0.02 -0.02 0.03 -0.02 -0.01 0.04zm3.18 2.41l-0.05 0.03 0 0 -0.02 -0.02 -0.03 -0.03 -0.03 -0.03 -0.05 -0.03 -0.05 -0.04 -0.07 -0.04 -0.07 -0.04 -0.07 -0.04 -0.08 -0.05 -0.09 -0.05 -0.1 -0.05 -0.09 -0.06 -0.11 -0.06 -0.1 -0.06 -0.11 -0.07 -0.12 -0.07 -0.12 -0.07 -0.11 -0.08 -0.13 -0.08 -0.12 -0.09 -0.12 -0.09 -0.13 -0.09 -0.13 -0.1 -0.12 -0.1 -0.13 -0.11 -0.12 -0.11 -0.12 -0.12 -0.13 -0.12 -0.12 -0.13 -0.11 -0.13 -0.12 -0.14 -0.11 -0.14 0.04 -0.03 0.11 0.14 0.11 0.14 0.12 0.13 0.12 0.12 0.12 0.12 0.12 0.12 0.13 0.11 0.12 0.11 0.13 0.1 0.12 0.1 0.13 0.09 0.12 0.09 0.12 0.08 0.12 0.08 0.12 0.08 0.12 0.08 0.11 0.07 0.11 0.06 0.11 0.06 0.1 0.06 0.1 0.06 0.09 0.05 0.09 0.05 0.08 0.05 0.08 0.05 0.07 0.04 0.06 0.04 0.06 0.03 0.05 0.04 0.04 0.03 0.03 0.03 0.02 0.03 0.01 0zm-0.01 0l0.01 0 0 0 -0.01 0zm-1 0.8l0.04 -0.05 0 0.01 0.01 0.01 0.02 0.01 0.02 0 0.03 0.01 0.03 -0.01 0.03 0 0.03 -0.01 0.04 -0.02 0.04 -0.01 0.04 -0.02 0.05 -0.03 0.04 -0.02 0.05 -0.03 0.04 -0.03 0.04 -0.03 0.05 -0.04 0.04 -0.03 0.04 -0.04 0.04 -0.04 0.04 -0.03 0.04 -0.04 0.03 -0.04 0.03 -0.04 0.03 -0.03 0.02 -0.04 0.02 -0.03 0.02 -0.03 0.01 -0.03 0.01 -0.03 0 -0.02 0 -0.02 -0.01 -0.02 0.05 -0.03 0.01 0.03 0 0.04 0 0.03 -0.01 0.03 -0.01 0.04 -0.02 0.03 -0.02 0.04 -0.03 0.04 -0.03 0.04 -0.03 0.03 -0.04 0.04 -0.03 0.04 -0.04 0.04 -0.04 0.04 -0.05 0.04 -0.04 0.03 -0.04 0.04 -0.05 0.03 -0.05 0.03 -0.04 0.03 -0.05 0.03 -0.04 0.02 -0.05 0.02 -0.04 0.02 -0.04 0.02 -0.04 0.01 -0.04 0.01 -0.03 0 -0.04 0 -0.03 -0.01 -0.03 -0.02 -0.02 -0.02 0 0.01zm0.04 -0.05l0 0.01 0 0 0 -0.01zm-1.93 -1.81l0.03 -0.04 0 0 0.07 0.06 0.08 0.07 0.07 0.07 0.08 0.06 0.07 0.07 0.07 0.07 0.07 0.07 0.08 0.07 0.07 0.07 0.07 0.07 0.07 0.07 0.07 0.07 0.07 0.07 0.06 0.07 0.07 0.07 0.06 0.06 0.07 0.07 0.06 0.06 0.06 0.06 0.06 0.07 0.05 0.05 0.06 0.06 0.05 0.05 0.05 0.05 0.05 0.05 0.04 0.05 0.04 0.04 0.04 0.04 0.04 0.03 0.04 0.03 0.03 0.03 0.03 0.02 -0.04 0.05 -0.03 -0.03 -0.03 -0.03 -0.03 -0.03 -0.04 -0.03 -0.04 -0.04 -0.05 -0.05 -0.04 -0.04 -0.05 -0.05 -0.05 -0.05 -0.05 -0.05 -0.06 -0.06 -0.05 -0.06 -0.06 -0.06 -0.06 -0.06 -0.06 -0.07 -0.06 -0.06 -0.07 -0.07 -0.06 -0.06 -0.07 -0.07 -0.07 -0.07 -0.07 -0.07 -0.07 -0.07 -0.07 -0.07 -0.07 -0.07 -0.07 -0.07 -0.07 -0.07 -0.08 -0.07 -0.07 -0.07 -0.07 -0.07 -0.08 -0.06 -0.07 -0.07 -0.07 -0.06 0 0zm-0.08 -0.06l-0.05 0.01 0 -0.03 0.01 0 0 0 0 -0.01 0.01 0 0 0 0.01 0 0 0 0.01 -0.01 0 0 0.01 0 0 0 0 0 0.01 0 0 0 0.01 0.01 0 0 0.01 0 0 0 0.01 0 0 0 0.01 0.01 0 0 0.01 0 0 0.01 0.01 0 0.01 0 0 0.01 0.01 0 0 0.01 0.01 0 0 0.01 0.01 0 -0.03 0.04 -0.01 0 0 -0.01 -0.01 0 -0.01 -0.01 0 0 0 0 -0.01 -0.01 0 0 -0.01 0 0 -0.01 -0.01 0 0 0 0 0 0 0 -0.01 0 0 0 0 0 0 0 -0.01 0 0 0 0 0 0 0 0 0 0 0 0 0 0 0 0 0 0 0 -0.01 0 0 0 0 0 0 0 0.01 -0.02zm-0.05 0.01l0 -0.02 0 -0.01 0 0.03zm0.47 2.47l0 0.05 -0.02 -0.02 -0.01 -0.04 0 -0.05 -0.01 -0.04 -0.01 -0.05 -0.01 -0.06 -0.01 -0.05 -0.01 -0.06 -0.01 -0.06 -0.01 -0.06 -0.01 -0.06 -0.01 -0.07 -0.02 -0.07 -0.01 -0.07 -0.02 -0.07 -0.01 -0.08 -0.02 -0.08 -0.01 -0.08 -0.02 -0.08 -0.01 -0.08 -0.02 -0.09 -0.02 -0.09 -0.01 -0.09 -0.02 -0.09 -0.02 -0.1 -0.02 -0.09 -0.01 -0.1 -0.02 -0.11 -0.02 -0.1 -0.02 -0.11 -0.02 -0.1 -0.01 -0.11 -0.02 -0.11 0.05 -0.01 0.02 0.11 0.01 0.11 0.02 0.11 0.02 0.1 0.02 0.11 0.02 0.1 0.01 0.1 0.02 0.09 0.02 0.1 0.02 0.09 0.01 0.09 0.02 0.09 0.02 0.09 0.01 0.08 0.02 0.08 0.02 0.08 0.01 0.08 0.02 0.08 0.01 0.07 0.01 0.07 0.02 0.07 0.01 0.07 0.01 0.06 0.01 0.06 0.01 0.06 0.01 0.06 0.01 0.06 0.01 0.05 0.01 0.05 0.01 0.05 0 0.04 0.01 0.05 -0.03 -0.03zm0 0.05l-0.02 0 0 -0.02 0.02 0.02zm0 0l0 0 0 -0.05 0 0 0.03 0.03 -0.03 0.02zm0 -0.05l0.03 0 0 0.03 -0.03 -0.03zm1.01 3.44l-0.05 -0.01 0 0 0.01 -0.03 0 -0.03 -0.01 -0.03 -0.01 -0.04 -0.01 -0.04 -0.02 -0.04 -0.02 -0.05 -0.02 -0.05 -0.03 -0.06 -0.03 -0.06 -0.03 -0.06 -0.03 -0.07 -0.04 -0.08 -0.03 -0.08 -0.04 -0.08 -0.04 -0.1 -0.05 -0.09 -0.04 -0.11 -0.04 -0.11 -0.04 -0.12 -0.05 -0.12 -0.04 -0.14 -0.04 -0.14 -0.04 -0.15 -0.05 -0.16 -0.04 -0.16 -0.04 -0.18 -0.03 -0.18 -0.04 -0.2 -0.03 -0.2 -0.03 -0.21 -0.03 -0.23 0.05 0 0.03 0.22 0.03 0.21 0.03 0.2 0.04 0.2 0.04 0.18 0.03 0.18 0.04 0.16 0.05 0.16 0.04 0.15 0.04 0.14 0.04 0.13 0.05 0.12 0.04 0.12 0.04 0.11 0.04 0.11 0.04 0.09 0.04 0.1 0.04 0.08 0.04 0.08 0.04 0.08 0.03 0.07 0.03 0.06 0.03 0.06 0.03 0.06 0.02 0.05 0.02 0.05 0.02 0.05 0.01 0.04 0.01 0.04 0.01 0.04 0 0.04 -0.01 0.03 0 0zm0 0l0 0 0 0.01 0 -0.01zm-1.81 0.08l0.05 0 0 0 0 0.04 0.02 0.03 0.02 0.03 0.03 0.03 0.04 0.03 0.04 0.03 0.05 0.02 0.05 0.02 0.06 0.02 0.07 0.01 0.07 0.01 0.07 0.01 0.07 0.01 0.08 0 0.08 0 0.08 0 0.08 0 0.08 -0.01 0.07 -0.01 0.08 -0.01 0.07 -0.02 0.07 -0.02 0.07 -0.02 0.07 -0.02 0.05 -0.03 0.06 -0.03 0.05 -0.03 0.04 -0.03 0.03 -0.03 0.03 -0.04 0.02 -0.04 0.01 -0.04 0.05 0.01 -0.01 0.05 -0.02 0.05 -0.04 0.04 -0.04 0.04 -0.04 0.04 -0.06 0.03 -0.05 0.03 -0.07 0.03 -0.06 0.02 -0.07 0.02 -0.08 0.02 -0.07 0.02 -0.08 0.01 -0.08 0.01 -0.08 0.01 -0.08 0 -0.08 0.01 -0.08 -0.01 -0.08 0 -0.08 -0.01 -0.07 -0.01 -0.07 -0.01 -0.07 -0.01 -0.06 -0.02 -0.06 -0.02 -0.06 -0.03 -0.04 -0.03 -0.05 -0.03 -0.03 -0.04 -0.03 -0.04 -0.02 -0.04 0 -0.05 0 0zm0 0l0 0 0 0 0 0zm0.01 -2.93l0.04 -0.03 0 0.02 0.01 0.12 0.01 0.12 0.01 0.12 0.01 0.12 0 0.12 0.01 0.12 0 0.12 0 0.12 0.01 0.12 0 0.12 0 0.11 0 0.12 0 0.11 0 0.11 0 0.1 -0.01 0.11 0 0.1 0 0.1 -0.01 0.09 0 0.09 0 0.09 -0.01 0.08 0 0.08 0 0.07 -0.01 0.07 0 0.06 -0.01 0.06 0 0.05 0 0.04 -0.01 0.04 0 0.04 0 0.02 -0.05 0 0 -0.03 0 -0.03 0 -0.04 0.01 -0.05 0 -0.05 0.01 -0.05 0 -0.07 0 -0.06 0.01 -0.08 0 -0.07 0.01 -0.09 0 -0.08 0 -0.09 0.01 -0.1 0 -0.09 0 -0.1 0 -0.11 0.01 -0.1 0 -0.11 0 -0.11 0 -0.12 0 -0.11 0 -0.12 -0.01 -0.12 0 -0.12 0 -0.12 -0.01 -0.12 0 -0.12 -0.01 -0.12 -0.01 -0.12 -0.01 -0.12 -0.01 -0.12 0.01 0.01zm0.04 -0.03l0 0.01 0 0.01 0 -0.02zm-0.06 -0.04l0.05 0 0 0 0 0 0 0.01 0 0 0 0 0 0 0 0 0 0.01 0 0 0 0 0 0 0 0 0 0 0 0.01 0 0 0 0 0 0 0 0 0 0 0 0 0 0 0 0 0 0.01 0 0 0 0 0 0 0 0 0 0 0 0 0 0 0 0 0.01 0 0 0 -0.04 0.03 -0.01 0 0 0 0 0 0 0 0 -0.01 0 0 0 0 0 0 -0.01 0 0 -0.01 0 0 0 0 0 0 0 -0.01 0 0 0 0 0 0 0 -0.01 0 0 0 0 0 0 0 -0.01 0 0 0 0 0 0 0 -0.01 0 0 0 0 0 -0.01 0 0 0 0 0 0 0 0zm0 -0.05l0.05 -0.01 0 0 0 0 0 0.01 0 0 0 0 0 0 0 0 0 0.01 0 0 0 0 0 0 0 0 0 0.01 0 0 0 0 0 0 0 0 0 0 0 0.01 0 0 0 0 0 0 0 0 0 0.01 0 0 0 0 0 0 0 0 0 0 0 0.01 0 0 0 0 0 0 -0.05 0 0 0 0 -0.01 0 0 0 0 0 0 0 0 0 0 0 -0.01 0 0 0 0 0 0 0 0 0 0 0 -0.01 0 0 0 0 0 0 0 0 0 0 0 0 0 -0.01 0 0 0 0 0 0 0 0 0 0 0 -0.01 0 0 0 0 0 0 0 0 0 0 0 0zm0.05 -0.01l0 0 0 0.01 0 -0.01zm0 -0.02l0 0.02 -0.05 0.01 0 -0.03 0.05 0 0 0zm0 0l0 0 0 0 0 0zm-0.36 0.03l-0.05 -0.01 0 0 0.01 -0.04 0.01 -0.03 0.01 -0.03 0.01 -0.03 0.01 -0.02 0.01 -0.03 0.01 -0.02 0.02 -0.01 0.01 -0.02 0.02 -0.01 0.01 -0.01 0.02 -0.01 0.02 0 0.02 -0.01 0.02 0 0.01 0.01 0.02 0 0.02 0.01 0.01 0 0.02 0.01 0.01 0.02 0.02 0.01 0.01 0.01 0.01 0.02 0.01 0.02 0.02 0.01 0.01 0.02 0 0.02 0.01 0.02 0.01 0.02 0 0.03 0.01 0.02 -0.05 0 -0.01 -0.01 0 -0.02 -0.01 -0.02 0 -0.02 -0.01 -0.02 -0.01 -0.01 -0.01 -0.02 -0.01 -0.01 -0.01 -0.01 -0.01 -0.01 -0.01 -0.01 -0.01 -0.01 -0.01 -0.01 -0.01 -0.01 -0.02 0 -0.01 0 -0.01 -0.01 -0.01 0 -0.01 0.01 -0.01 0 -0.01 0 -0.01 0.01 -0.01 0.01 -0.01 0.01 -0.01 0.01 -0.01 0.02 -0.01 0.02 -0.01 0.02 -0.01 0.02 -0.01 0.03 -0.01 0.03 -0.01 0.04 0 0zm-0.05 -0.01l0 0 0 0 0 0zm-0.11 3.05l-0.05 -0.01 0 0.01 0 -0.03 -0.01 -0.04 0 -0.04 0 -0.05 0 -0.05 0 -0.07 0 -0.06 0.01 -0.08 0 -0.08 0 -0.08 0 -0.09 0 -0.09 0.01 -0.1 0 -0.1 0.01 -0.1 0 -0.11 0.01 -0.11 0 -0.11 0.01 -0.12 0.01 -0.11 0 -0.12 0.01 -0.12 0.01 -0.12 0.01 -0.12 0.01 -0.12 0.01 -0.12 0.01 -0.12 0.01 -0.12 0.01 -0.12 0.01 -0.12 0.01 -0.12 0.01 -0.11 0.05 0.01 -0.01 0.11 -0.01 0.12 -0.01 0.11 -0.01 0.12 -0.01 0.12 -0.01 0.12 -0.01 0.12 -0.01 0.12 -0.01 0.12 -0.01 0.12 -0.01 0.12 0 0.12 -0.01 0.12 -0.01 0.11 0 0.11 -0.01 0.11 0 0.11 -0.01 0.1 0 0.1 0 0.1 -0.01 0.09 0 0.09 0 0.09 0 0.07 0 0.08 -0.01 0.06 0 0.07 0 0.05 0.01 0.05 0 0.04 0 0.04 0 0.02 0 0.01zm0 -0.01l0 0 0 0.01 0 -0.01zm-1.8 0.03l0.05 -0.01 0 0 0.02 0.04 0.02 0.04 0.02 0.03 0.04 0.03 0.04 0.03 0.05 0.03 0.05 0.03 0.06 0.02 0.06 0.02 0.07 0.02 0.07 0.01 0.07 0.01 0.08 0.01 0.07 0 0.08 0.01 0.08 0 0.08 -0.01 0.07 0 0.08 -0.01 0.07 -0.01 0.07 -0.01 0.07 -0.02 0.06 -0.02 0.06 -0.02 0.06 -0.02 0.05 -0.03 0.04 -0.03 0.04 -0.03 0.03 -0.03 0.02 -0.03 0.01 -0.04 0.01 -0.04 0.05 0.01 -0.01 0.04 -0.02 0.05 -0.02 0.04 -0.04 0.04 -0.04 0.03 -0.05 0.03 -0.05 0.03 -0.06 0.03 -0.06 0.02 -0.07 0.02 -0.07 0.02 -0.07 0.01 -0.07 0.01 -0.08 0.01 -0.08 0.01 -0.08 0 -0.08 0 -0.08 0 -0.08 -0.01 -0.08 -0.01 -0.07 -0.01 -0.07 -0.01 -0.07 -0.02 -0.07 -0.02 -0.06 -0.03 -0.06 -0.02 -0.05 -0.03 -0.04 -0.04 -0.04 -0.03 -0.04 -0.05 -0.02 -0.04 -0.02 -0.05 0 0zm0 0l0 0 0.01 0 -0.01 0zm1.04 -3.35l0.05 0 0 0 -0.01 0.19 -0.02 0.18 -0.02 0.17 -0.03 0.17 -0.03 0.16 -0.03 0.16 -0.04 0.15 -0.04 0.14 -0.04 0.14 -0.05 0.14 -0.04 0.13 -0.05 0.13 -0.04 0.12 -0.05 0.11 -0.05 0.11 -0.05 0.11 -0.04 0.1 -0.05 0.09 -0.05 0.09 -0.04 0.09 -0.04 0.08 -0.04 0.07 -0.04 0.08 -0.03 0.06 -0.03 0.07 -0.02 0.05 -0.03 0.06 -0.01 0.05 -0.02 0.04 0 0.04 -0.01 0.03 0 0.03 -0.05 0.01 0 -0.04 0 -0.04 0.01 -0.04 0.02 -0.05 0.01 -0.05 0.03 -0.06 0.02 -0.06 0.03 -0.06 0.04 -0.07 0.03 -0.07 0.04 -0.08 0.04 -0.08 0.05 -0.08 0.04 -0.09 0.05 -0.1 0.05 -0.1 0.04 -0.1 0.05 -0.11 0.05 -0.11 0.04 -0.12 0.05 -0.13 0.04 -0.13 0.05 -0.13 0.04 -0.14 0.04 -0.15 0.04 -0.15 0.03 -0.15 0.03 -0.16 0.03 -0.17 0.02 -0.17 0.02 -0.18 0.01 -0.18 0 0zm0.05 0l0 0 0 0 0 0zm-0.02 0l0 0 0 0 0 0 -0.03 0 0.03 0zm0.02 0l0 0 0 0 0 0zm0.25 -2.6l-0.02 -0.05 0.04 0.03 -0.01 0.1 -0.01 0.11 -0.01 0.1 -0.01 0.1 -0.01 0.1 -0.01 0.1 -0.01 0.1 -0.01 0.1 -0.01 0.1 -0.01 0.09 -0.02 0.1 -0.01 0.09 -0.01 0.09 -0.01 0.09 -0.01 0.09 -0.01 0.08 -0.01 0.09 -0.01 0.08 -0.01 0.08 -0.01 0.08 -0.01 0.07 -0.01 0.08 -0.01 0.07 0 0.07 -0.01 0.06 -0.01 0.07 0 0.06 0 0.06 -0.01 0.06 0 0.05 0 0.05 0 0.05 -0.05 0 0 -0.05 0 -0.05 0 -0.05 0 -0.06 0.01 -0.06 0 -0.07 0.01 -0.06 0 -0.07 0.01 -0.07 0.01 -0.07 0.01 -0.07 0.01 -0.08 0.01 -0.08 0.01 -0.08 0.01 -0.08 0.01 -0.08 0.01 -0.09 0.01 -0.09 0.01 -0.09 0.01 -0.09 0.01 -0.09 0.01 -0.09 0.02 -0.1 0.01 -0.09 0.01 -0.1 0.01 -0.1 0.01 -0.1 0.01 -0.1 0.01 -0.1 0.01 -0.11 0.01 -0.1 0.01 -0.1 0.03 0.02zm-0.02 -0.05l0.04 -0.01 0 0.04 -0.04 -0.03zm-0.1 0.14l-0.03 -0.04 0 0 0 0 0.01 -0.01 0.01 0 0 -0.01 0.01 0 0 -0.01 0.01 0 0 0 0.01 -0.01 0 0 0.01 -0.01 0 0 0 0 0.01 -0.01 0 0 0.01 0 0 0 0.01 -0.01 0 0 0 0 0.01 -0.01 0 0 0 0 0.01 0 0 0 0 -0.01 0.01 0 0 0 0 0 0.01 0 0 0 0 -0.01 0.02 0.05 0 0 0 0 0 0 0 0.01 -0.01 0 0 0 0 0 0 0 -0.01 0 0 0.01 0 0 -0.01 0 0 0 0 0 -0.01 0.01 0 0 -0.01 0 0 0.01 0 0 -0.01 0 0 0.01 -0.01 0 0 0 -0.01 0.01 0 0 -0.01 0 0 0.01 -0.01 0 0 0.01 -0.01 0 0 0.01 -0.01 0 0 0zm-1.62 1.79l-0.01 -0.05 0 0 0.01 -0.01 0.02 -0.01 0.03 -0.03 0.04 -0.03 0.04 -0.04 0.04 -0.05 0.05 -0.05 0.05 -0.05 0.06 -0.06 0.06 -0.07 0.06 -0.07 0.06 -0.07 0.06 -0.07 0.07 -0.08 0.06 -0.07 0.07 -0.08 0.07 -0.08 0.06 -0.08 0.07 -0.08 0.06 -0.07 0.07 -0.08 0.06 -0.07 0.06 -0.07 0.05 -0.06 0.06 -0.07 0.05 -0.05 0.04 -0.06 0.05 -0.04 0.03 -0.04 0.04 -0.04 0.03 -0.03 0.02 -0.02 0.03 0.04 -0.02 0.02 -0.03 0.03 -0.03 0.03 -0.04 0.04 -0.04 0.05 -0.04 0.05 -0.05 0.06 -0.06 0.06 -0.05 0.07 -0.06 0.07 -0.06 0.07 -0.07 0.07 -0.06 0.08 -0.07 0.08 -0.06 0.07 -0.07 0.08 -0.07 0.08 -0.06 0.08 -0.07 0.07 -0.06 0.08 -0.07 0.07 -0.06 0.07 -0.05 0.06 -0.06 0.06 -0.05 0.06 -0.05 0.05 -0.04 0.05 -0.05 0.04 -0.03 0.03 -0.03 0.03 -0.03 0.02 -0.03 0.01 0 0zm-0.79 -0.64l0.04 0.03 0 0 -0.01 0.02 0 0.02 -0.01 0.03 0 0.02 0 0.02 0.01 0.03 0.01 0.03 0.01 0.02 0.01 0.03 0.02 0.03 0.02 0.03 0.02 0.02 0.02 0.03 0.02 0.03 0.03 0.02 0.03 0.03 0.03 0.02 0.03 0.02 0.03 0.02 0.04 0.02 0.03 0.02 0.04 0.02 0.03 0.01 0.04 0.01 0.04 0.01 0.03 0.01 0.04 0.01 0.04 0 0.03 0 0.04 -0.01 0.03 0 0.04 -0.01 0.01 0.05 -0.03 0.01 -0.04 0.01 -0.04 0 -0.04 0 -0.05 0 -0.04 -0.01 -0.04 -0.01 -0.04 -0.01 -0.03 -0.01 -0.04 -0.01 -0.04 -0.02 -0.04 -0.02 -0.03 -0.02 -0.04 -0.02 -0.03 -0.03 -0.03 -0.02 -0.03 -0.03 -0.03 -0.03 -0.03 -0.02 -0.02 -0.03 -0.03 -0.03 -0.02 -0.03 -0.01 -0.03 -0.02 -0.03 -0.01 -0.04 -0.01 -0.03 -0.01 -0.03 0 -0.03 0 -0.03 0 -0.03 0.01 -0.03 0.02 -0.03 0 0zm0 0l0 0 0 0 0 0zm2.53 -2.54l0.06 0 -0.01 0.01 -0.1 0.13 -0.11 0.13 -0.11 0.12 -0.1 0.12 -0.11 0.12 -0.1 0.11 -0.11 0.11 -0.1 0.11 -0.11 0.11 -0.1 0.1 -0.1 0.1 -0.1 0.09 -0.09 0.09 -0.1 0.09 -0.09 0.09 -0.09 0.08 -0.09 0.08 -0.08 0.08 -0.09 0.07 -0.07 0.07 -0.08 0.07 -0.07 0.06 -0.06 0.06 -0.07 0.05 -0.05 0.06 -0.06 0.05 -0.04 0.04 -0.05 0.04 -0.03 0.04 -0.04 0.03 -0.02 0.03 -0.02 0.03 -0.04 -0.03 0.02 -0.03 0.03 -0.03 0.03 -0.04 0.04 -0.03 0.04 -0.05 0.05 -0.04 0.05 -0.05 0.06 -0.05 0.06 -0.06 0.07 -0.06 0.07 -0.06 0.07 -0.07 0.08 -0.07 0.08 -0.07 0.09 -0.08 0.08 -0.08 0.09 -0.08 0.1 -0.08 0.09 -0.09 0.1 -0.1 0.1 -0.09 0.1 -0.1 0.1 -0.1 0.1 -0.11 0.1 -0.1 0.11 -0.11 0.1 -0.12 0.11 -0.11 0.1 -0.12 0.11 -0.12 0.11 -0.13 0.1 -0.13 -0.01 0.02zm0.06 0l0 0.01 -0.01 0 0.01 -0.01zm0 -0.01l0 0.01 -0.06 0 0 0 0.04 -0.03 0.02 0.02zm-0.02 -0.02l0.01 0.01 0.01 0.01 -0.02 -0.02zm-0.86 -1.25l0.05 0 0 0 0 0.05 0 0.06 0.01 0.05 0 0.05 0.01 0.05 0.01 0.05 0.02 0.05 0.01 0.05 0.01 0.04 0.02 0.05 0.02 0.05 0.02 0.04 0.02 0.05 0.03 0.04 0.02 0.04 0.03 0.04 0.02 0.04 0.03 0.04 0.03 0.04 0.03 0.04 0.04 0.03 0.03 0.04 0.04 0.03 0.03 0.03 0.04 0.03 0.04 0.03 0.04 0.03 0.04 0.02 0.04 0.03 0.04 0.02 0.05 0.02 0.04 0.02 -0.02 0.05 -0.05 -0.02 -0.04 -0.02 -0.05 -0.03 -0.04 -0.02 -0.04 -0.03 -0.04 -0.03 -0.04 -0.03 -0.04 -0.03 -0.04 -0.03 -0.03 -0.04 -0.04 -0.03 -0.03 -0.04 -0.04 -0.04 -0.03 -0.04 -0.03 -0.04 -0.03 -0.04 -0.02 -0.04 -0.03 -0.05 -0.02 -0.04 -0.03 -0.05 -0.02 -0.04 -0.02 -0.05 -0.01 -0.05 -0.02 -0.05 -0.01 -0.05 -0.02 -0.05 -0.01 -0.05 -0.01 -0.05 0 -0.06 -0.01 -0.05 0 -0.06 0 -0.05 0 0zm1.35 -1.4l0 0.05 0 0 -0.07 0 -0.07 0.01 -0.06 0.01 -0.07 0.01 -0.06 0.01 -0.06 0.02 -0.06 0.02 -0.06 0.03 -0.06 0.02 -0.05 0.03 -0.06 0.04 -0.05 0.03 -0.05 0.04 -0.05 0.04 -0.05 0.04 -0.04 0.05 -0.04 0.04 -0.04 0.05 -0.04 0.05 -0.04 0.06 -0.03 0.05 -0.03 0.06 -0.03 0.06 -0.03 0.05 -0.02 0.07 -0.02 0.06 -0.02 0.06 -0.01 0.07 -0.02 0.06 0 0.07 -0.01 0.07 0 0.07 -0.05 0 0 -0.07 0 -0.07 0.01 -0.07 0.01 -0.07 0.02 -0.07 0.02 -0.07 0.02 -0.06 0.02 -0.06 0.03 -0.07 0.03 -0.06 0.03 -0.06 0.04 -0.05 0.04 -0.06 0.03 -0.05 0.05 -0.05 0.04 -0.05 0.05 -0.05 0.05 -0.04 0.05 -0.04 0.05 -0.04 0.06 -0.04 0.05 -0.03 0.06 -0.03 0.06 -0.03 0.06 -0.02 0.06 -0.03 0.07 -0.02 0.06 -0.01 0.07 -0.01 0.07 -0.01 0.07 -0.01 0.07 0 0 0z"/>
  <path fill="#F08BB2" d="M7.98 4.98c0.07,0 0.16,-0.3 0.23,-0.25 0.21,0.16 0.15,0.42 0.23,0.45 0.24,0.11 0.44,0.3 0.57,0.55 0.93,-0.5 2.22,-0.7 2.78,-1.59 0.36,-0.7 0.16,-1.02 -0.59,-0.73 -0.36,0.06 -0.43,-0.76 0,-0.84 1.25,-0.19 1.74,0.79 1.22,1.71 -0.25,0.41 -0.53,0.8 -0.88,1.1 -0.02,2.66 1.24,3.28 1.15,3.6 -0.05,0.29 -1.38,0.22 -1.39,-0.09 -0.1,-0.41 0.19,-0.81 -0.19,-1.72 -0.03,-0.06 -0.06,-0.13 -0.1,-0.2 -0.02,0 -0.04,0 -0.07,0.01 -0.12,0.65 0.09,0.8 0.02,1.09 -0.14,0.24 -0.89,0.34 -1.16,0.2 0.23,1.03 0.66,1.07 0.59,1.3 -0.05,0.29 -1.06,0.32 -1.31,-0.09 -0.08,-0.33 0.25,-1.29 -0.13,-2.2l0 0c-0.05,0.01 -0.04,0 -0.06,0.05 -0.38,0.9 -0.27,1.06 -0.35,1.39 -0.25,0.41 -1.47,0.25 -1.52,-0.03 -0.15,-0.32 1.15,-0.49 1.26,-1.24 -0.1,0.03 -0.19,0.04 -0.3,0.04 -0.64,0 -1.15,-0.54 -1.15,-1.2 0,-0.47 0.25,-0.87 0.62,-1.07 0.08,-0.04 0.02,-0.49 0.22,-0.63 0.12,-0.08 0.21,0.39 0.31,0.39zm2.28 2.1c-0.19,0.03 -0.39,0.06 -0.59,0.09 0.02,0.29 0.04,0.55 0.07,0.76 0.13,-0.17 0.47,-0.34 0.52,-0.85z"/>
  <path fill="#2B2A29" fill-rule="nonzero" d="M8.23 4.71l-0.03 0.04 0 0 0 0 0 0 0 0 0 0 -0.01 0 0 0.01 -0.01 0 0 0.01 -0.01 0.01 -0.01 0 0 0.01 -0.01 0.01 -0.01 0.02 0 0.01 -0.01 0.01 -0.01 0.01 -0.01 0.02 -0.01 0.01 0 0.01 -0.01 0.01 -0.01 0.02 -0.01 0.01 0 0.01 -0.01 0.01 -0.01 0.01 -0.01 0.01 -0.01 0.01 -0.01 0.01 -0.01 0.01 -0.01 0 -0.01 0.01 -0.01 0 0 -0.05 0 0 0 0 0 -0.01 0.01 0 0.01 0 0 -0.01 0.01 -0.01 0.01 -0.01 0 -0.01 0.01 -0.01 0.01 -0.01 0.01 -0.01 0 -0.02 0.01 -0.01 0.01 -0.01 0.01 -0.01 0 -0.02 0.01 -0.01 0.01 -0.01 0.01 -0.01 0 -0.02 0.01 -0.01 0.01 -0.01 0.01 -0.01 0.01 -0.01 0.01 0 0.01 -0.01 0.01 -0.01 0.01 0 0.01 0 0.02 0.01 0.01 0 0 0zm0.22 0.45l-0.02 0.04 0 0 -0.02 0 -0.01 -0.01 0 -0.01 -0.01 -0.01 0 -0.01 -0.01 -0.01 0 -0.01 -0.01 -0.01 0 -0.02 0 -0.01 0 -0.02 -0.01 -0.01 0 -0.01 0 -0.02 -0.01 -0.02 0 -0.01 0 -0.02 -0.01 -0.01 0 -0.02 -0.01 -0.02 -0.01 -0.01 0 -0.02 -0.01 -0.02 -0.01 -0.01 -0.01 -0.02 -0.01 -0.02 -0.01 -0.01 -0.01 -0.02 -0.01 -0.01 -0.02 -0.02 -0.02 -0.01 -0.01 -0.02 0.03 -0.04 0.02 0.02 0.02 0.01 0.01 0.02 0.02 0.02 0.01 0.02 0.02 0.01 0.01 0.02 0.01 0.02 0.01 0.02 0.01 0.02 0 0.02 0.01 0.02 0.01 0.01 0 0.02 0.01 0.02 0 0.02 0 0.01 0.01 0.02 0 0.02 0 0.01 0.01 0.01 0 0.02 0 0.01 0 0.01 0.01 0.01 0 0.01 0 0.01 0.01 0.01 0 0 0 0 0 0.01 0.01 0 0 0zm0.54 0.55l0.03 0.04 -0.04 -0.01 -0.01 -0.02 -0.01 -0.02 -0.01 -0.03 -0.01 -0.02 -0.02 -0.02 -0.01 -0.02 -0.02 -0.02 -0.01 -0.02 -0.02 -0.02 -0.01 -0.02 -0.02 -0.02 -0.01 -0.02 -0.02 -0.02 -0.02 -0.01 -0.01 -0.02 -0.02 -0.02 -0.02 -0.01 -0.02 -0.02 -0.02 -0.02 -0.01 -0.01 -0.02 -0.02 -0.02 -0.01 -0.02 -0.02 -0.02 -0.01 -0.02 -0.01 -0.02 -0.02 -0.03 -0.01 -0.02 -0.01 -0.02 -0.01 -0.02 -0.02 -0.02 -0.01 -0.02 -0.01 0.02 -0.04 0.02 0.01 0.02 0.01 0.03 0.01 0.02 0.01 0.02 0.01 0.02 0.02 0.02 0.01 0.03 0.02 0.02 0.01 0.02 0.02 0.02 0.01 0.02 0.02 0.02 0.01 0.02 0.02 0.02 0.02 0.02 0.01 0.01 0.02 0.02 0.02 0.02 0.02 0.02 0.02 0.01 0.02 0.02 0.02 0.02 0.02 0.01 0.02 0.02 0.02 0.01 0.02 0.02 0.02 0.01 0.03 0.01 0.02 0.02 0.02 0.01 0.02 0.01 0.03 -0.04 -0.01zm0.03 0.04l-0.02 0.01 -0.02 -0.02 0.04 0.01zm2.75 -1.62l0.05 0.02 0 0 -0.06 0.09 -0.06 0.07 -0.06 0.08 -0.07 0.07 -0.07 0.07 -0.07 0.06 -0.08 0.07 -0.08 0.05 -0.08 0.06 -0.09 0.05 -0.09 0.06 -0.09 0.05 -0.09 0.04 -0.09 0.05 -0.09 0.04 -0.1 0.04 -0.1 0.05 -0.09 0.04 -0.1 0.04 -0.1 0.04 -0.1 0.03 -0.1 0.04 -0.09 0.04 -0.1 0.04 -0.1 0.04 -0.1 0.04 -0.09 0.04 -0.1 0.04 -0.09 0.04 -0.09 0.04 -0.09 0.05 -0.09 0.04 -0.03 -0.04 0.09 -0.05 0.09 -0.05 0.1 -0.04 0.09 -0.04 0.1 -0.04 0.09 -0.04 0.1 -0.04 0.1 -0.04 0.1 -0.04 0.09 -0.04 0.1 -0.03 0.1 -0.04 0.1 -0.04 0.1 -0.04 0.09 -0.04 0.1 -0.04 0.09 -0.05 0.1 -0.04 0.09 -0.04 0.09 -0.05 0.09 -0.05 0.08 -0.05 0.09 -0.05 0.08 -0.06 0.08 -0.06 0.07 -0.06 0.07 -0.06 0.07 -0.07 0.07 -0.06 0.06 -0.08 0.06 -0.07 0.05 -0.08 0 0zm0.05 0.02l0 0 0 0 0 0zm-0.62 -0.71l-0.01 -0.05 0 0 0.07 -0.03 0.06 -0.02 0.07 -0.02 0.06 -0.01 0.05 -0.01 0.06 -0.01 0.05 -0.01 0.05 0 0.04 0 0.04 0.01 0.04 0.01 0.04 0.01 0.03 0.01 0.03 0.02 0.03 0.03 0.02 0.02 0.02 0.03 0.02 0.03 0.01 0.04 0.01 0.03 0 0.04 0 0.05 0 0.04 -0.01 0.05 -0.01 0.05 -0.01 0.05 -0.02 0.05 -0.01 0.06 -0.03 0.05 -0.02 0.06 -0.03 0.07 -0.03 0.06 -0.05 -0.02 0.03 -0.07 0.03 -0.06 0.03 -0.06 0.02 -0.05 0.02 -0.06 0.01 -0.05 0.01 -0.05 0.01 -0.04 0.01 -0.05 0 -0.04 0 -0.03 -0.01 -0.04 0 -0.03 -0.01 -0.03 -0.01 -0.02 -0.02 -0.03 -0.02 -0.02 -0.02 -0.01 -0.02 -0.02 -0.03 -0.01 -0.03 -0.01 -0.03 -0.01 -0.04 -0.01 -0.04 0 -0.05 0 -0.05 0.01 -0.05 0.01 -0.05 0.01 -0.06 0.01 -0.06 0.02 -0.07 0.02 -0.06 0.03 -0.01 0zm0.01 0l-0.01 0 0 0 0.01 0zm-0.01 -0.9l0.01 0.05 0 0 -0.04 0.01 -0.03 0.02 -0.03 0.01 -0.03 0.02 -0.02 0.02 -0.03 0.03 -0.02 0.03 -0.02 0.02 -0.01 0.04 -0.02 0.03 -0.01 0.03 -0.01 0.04 0 0.04 -0.01 0.04 0 0.03 0 0.04 0 0.04 0.01 0.03 0.01 0.04 0 0.03 0.02 0.04 0.01 0.03 0.01 0.02 0.02 0.03 0.02 0.02 0.02 0.02 0.02 0.02 0.02 0.01 0.02 0.01 0.03 0.01 0.02 0 0.03 0 0.01 0.05 -0.04 0 -0.03 0 -0.03 -0.01 -0.03 -0.01 -0.03 -0.02 -0.03 -0.02 -0.02 -0.02 -0.02 -0.03 -0.02 -0.03 -0.02 -0.03 -0.01 -0.04 -0.02 -0.03 -0.01 -0.04 0 -0.04 -0.01 -0.04 0 -0.04 0 -0.04 0 -0.04 0.01 -0.04 0 -0.04 0.01 -0.04 0.02 -0.04 0.01 -0.03 0.02 -0.04 0.02 -0.03 0.02 -0.04 0.03 -0.02 0.03 -0.03 0.03 -0.02 0.04 -0.02 0.04 -0.02 0.04 -0.01 0 0zm0 0l0 0 -0.01 0 0.01 0zm1.25 1.75l-0.05 -0.02 0 0 0.05 -0.09 0.04 -0.08 0.03 -0.09 0.03 -0.08 0.02 -0.09 0.01 -0.08 0.02 -0.08 0 -0.08 0 -0.08 0 -0.08 -0.02 -0.07 -0.01 -0.08 -0.02 -0.07 -0.03 -0.07 -0.03 -0.06 -0.04 -0.07 -0.04 -0.06 -0.05 -0.05 -0.05 -0.06 -0.05 -0.04 -0.07 -0.05 -0.06 -0.04 -0.07 -0.04 -0.08 -0.03 -0.08 -0.02 -0.08 -0.03 -0.09 -0.01 -0.1 -0.01 -0.1 -0.01 -0.1 0 -0.11 0.01 -0.11 0.01 -0.01 -0.05 0.11 -0.01 0.12 -0.01 0.1 0 0.11 0 0.09 0.02 0.1 0.01 0.09 0.03 0.08 0.02 0.08 0.04 0.07 0.03 0.07 0.05 0.07 0.05 0.06 0.05 0.05 0.05 0.05 0.06 0.05 0.07 0.03 0.06 0.04 0.07 0.03 0.07 0.02 0.08 0.02 0.08 0.01 0.08 0 0.08 0 0.08 0 0.08 -0.01 0.09 -0.02 0.09 -0.02 0.08 -0.03 0.09 -0.04 0.09 -0.04 0.09 -0.04 0.08 0 0zm0 0l0 0 0 0 0 0zm-0.88 1.09l-0.05 0 0.01 -0.02 0.03 -0.03 0.03 -0.03 0.03 -0.03 0.03 -0.03 0.03 -0.03 0.03 -0.03 0.03 -0.03 0.03 -0.03 0.03 -0.03 0.03 -0.03 0.03 -0.04 0.03 -0.03 0.02 -0.03 0.03 -0.04 0.03 -0.03 0.03 -0.04 0.02 -0.03 0.03 -0.04 0.03 -0.03 0.02 -0.04 0.03 -0.03 0.02 -0.04 0.03 -0.04 0.02 -0.03 0.03 -0.04 0.02 -0.04 0.03 -0.03 0.02 -0.04 0.03 -0.04 0.02 -0.04 0.03 -0.04 0.02 -0.03 0.05 0.02 -0.03 0.04 -0.02 0.04 -0.03 0.04 -0.02 0.04 -0.03 0.03 -0.02 0.04 -0.03 0.04 -0.02 0.04 -0.03 0.03 -0.02 0.04 -0.03 0.04 -0.03 0.03 -0.02 0.04 -0.03 0.04 -0.03 0.03 -0.02 0.04 -0.03 0.03 -0.03 0.04 -0.03 0.03 -0.02 0.03 -0.03 0.04 -0.03 0.03 -0.03 0.03 -0.03 0.03 -0.03 0.04 -0.03 0.03 -0.03 0.03 -0.03 0.03 -0.03 0.03 -0.04 0.03 -0.03 0.03 -0.03 0.03 0.01 -0.02zm-0.05 0l0 -0.01 0.01 -0.01 -0.01 0.02zm1.19 3.61l-0.05 -0.01 0 0 0 -0.03 0 -0.03 -0.01 -0.03 -0.01 -0.03 -0.02 -0.04 -0.03 -0.05 -0.03 -0.04 -0.04 -0.06 -0.04 -0.05 -0.04 -0.06 -0.05 -0.07 -0.05 -0.07 -0.06 -0.08 -0.05 -0.08 -0.06 -0.09 -0.05 -0.1 -0.06 -0.1 -0.06 -0.11 -0.05 -0.12 -0.06 -0.13 -0.05 -0.13 -0.05 -0.14 -0.05 -0.15 -0.04 -0.17 -0.04 -0.16 -0.04 -0.18 -0.03 -0.19 -0.03 -0.2 -0.02 -0.21 -0.01 -0.22 -0.01 -0.24 0 -0.24 0.05 0 0 0.24 0.01 0.23 0.01 0.22 0.02 0.21 0.03 0.2 0.03 0.19 0.04 0.17 0.04 0.17 0.04 0.16 0.05 0.15 0.05 0.14 0.05 0.13 0.06 0.13 0.05 0.11 0.06 0.11 0.05 0.11 0.06 0.09 0.05 0.09 0.06 0.08 0.05 0.08 0.05 0.07 0.05 0.07 0.04 0.06 0.04 0.05 0.04 0.06 0.04 0.05 0.02 0.04 0.03 0.04 0.01 0.05 0.01 0.03 0.01 0.04 -0.01 0.04 0 0zm-0.05 -0.01l0 0 0 0 0 0zm-1.38 -0.09l0.05 -0.01 0 0.01 0 0.02 0.01 0.02 0.02 0.02 0.02 0.02 0.03 0.02 0.03 0.02 0.04 0.02 0.04 0.02 0.05 0.01 0.05 0.02 0.06 0.01 0.05 0.01 0.06 0.01 0.06 0.01 0.07 0.01 0.06 0 0.06 0.01 0.06 0 0.07 0 0.06 -0.01 0.05 0 0.06 -0.01 0.05 0 0.05 -0.01 0.05 -0.01 0.04 -0.02 0.04 -0.01 0.03 -0.02 0.02 -0.02 0.02 -0.01 0.01 -0.02 0.01 -0.02 0.05 0.01 -0.01 0.03 -0.02 0.03 -0.02 0.02 -0.03 0.03 -0.04 0.01 -0.04 0.02 -0.05 0.02 -0.05 0.01 -0.05 0.01 -0.05 0.01 -0.06 0 -0.06 0.01 -0.06 0 -0.07 0 -0.06 0 -0.06 -0.01 -0.07 0 -0.06 -0.01 -0.06 -0.01 -0.07 -0.01 -0.05 -0.01 -0.06 -0.01 -0.05 -0.02 -0.05 -0.01 -0.05 -0.02 -0.04 -0.02 -0.04 -0.02 -0.04 -0.03 -0.02 -0.03 -0.02 -0.03 -0.02 -0.03 0 -0.03 0 0zm0.05 -0.01l0 0 0 0.01 0 -0.01zm-0.25 -1.7l0.05 -0.02 0 0 0.03 0.08 0.03 0.09 0.03 0.07 0.02 0.08 0.02 0.07 0.02 0.07 0.02 0.07 0.01 0.07 0.01 0.06 0 0.07 0.01 0.06 0 0.05 0.01 0.06 0 0.05 0 0.06 -0.01 0.05 0 0.05 0 0.04 0 0.05 -0.01 0.05 0 0.04 -0.01 0.04 0 0.05 0 0.04 0 0.04 -0.01 0.04 0 0.03 0.01 0.04 0 0.04 0 0.04 0.01 0.03 0.01 0.04 -0.05 0.01 -0.01 -0.04 -0.01 -0.04 0 -0.04 -0.01 -0.03 0 -0.04 0 -0.05 0 -0.04 0.01 -0.04 0 -0.04 0 -0.04 0.01 -0.04 0 -0.05 0 -0.04 0.01 -0.05 0 -0.05 0 -0.04 0 -0.05 0 -0.06 0 -0.05 0 -0.05 0 -0.06 -0.01 -0.06 0 -0.06 -0.01 -0.06 -0.01 -0.07 -0.02 -0.06 -0.02 -0.07 -0.02 -0.08 -0.02 -0.07 -0.03 -0.08 -0.02 -0.08 -0.04 -0.08 0 0zm-0.06 -0.19l-0.01 -0.05 0.03 0.02 0 0 0 0.01 0.01 0.01 0 0 0 0.01 0.01 0.01 0 0 0 0.01 0.01 0.01 0 0 0 0.01 0.01 0.01 0 0 0 0.01 0 0.01 0.01 0 0 0.01 0 0.01 0.01 0 0 0.01 0 0 0 0.01 0.01 0.01 0 0 0 0.01 0 0.01 0.01 0 0 0.01 0 0 0 0.01 0.01 0 0 0.01 -0.05 0.02 0 -0.01 0 0 -0.01 -0.01 0 0 0 -0.01 0 0 -0.01 -0.01 0 -0.01 0 0 0 -0.01 -0.01 0 0 -0.01 0 -0.01 0 0 -0.01 -0.01 0 -0.01 0 0 -0.01 -0.01 0 -0.01 0 0 0 -0.01 -0.01 0 0 -0.01 0 -0.01 -0.01 0 0 -0.01 0 -0.01 -0.01 0 0 -0.01 0 -0.01 -0.01 0 0 -0.01 0.03 0.01zm-0.01 -0.05l0.02 0 0.01 0.02 -0.03 -0.02zm-0.04 0.04l-0.05 -0.01 0.02 -0.02 0 0 0.01 0 0 0 0 0 0 0 0 0 0.01 0 0 0 0 0 0 0 0.01 0 0 0 0 0 0 0 0 0 0.01 0 0 0 0 0 0 0 0.01 -0.01 0 0 0 0 0 0 0 0 0.01 0 0 0 0 0 0 0 0.01 0 0 0 0 0 0 0 0.01 0.05 0 0 -0.01 0 0 0 0 0 0 0 -0.01 0 0 0 0 0.01 0 0 0 0 -0.01 0 0 0 0 0 0 0 0 0 -0.01 0 0 0 0 0 0 0 -0.01 0 0 0 0 0 0 0 -0.01 0 0 0 0 0 0 0 0 0 0 0 -0.01 0 0 0 0 0 0.02 -0.02zm-0.05 -0.01l0 -0.02 0.02 0 -0.02 0.02zm0.06 1.11l-0.04 -0.03 -0.01 0.01 0.01 -0.03 0 -0.02 0.01 -0.02 0 -0.03 0 -0.02 0 -0.02 0 -0.02 0 -0.03 -0.01 -0.02 0 -0.02 -0.01 -0.03 0 -0.02 -0.01 -0.03 0 -0.03 -0.01 -0.02 0 -0.03 -0.01 -0.03 0 -0.03 -0.01 -0.04 0 -0.03 -0.01 -0.04 0 -0.03 0 -0.04 0 -0.05 0 -0.04 0 -0.04 0 -0.05 0.01 -0.05 0 -0.05 0.01 -0.06 0.01 -0.06 0.01 -0.06 0.05 0.01 -0.01 0.06 -0.01 0.06 -0.01 0.05 0 0.05 -0.01 0.05 0 0.05 0 0.04 0 0.04 0 0.04 0 0.04 0.01 0.04 0 0.03 0 0.04 0.01 0.03 0 0.03 0.01 0.03 0 0.03 0.01 0.02 0 0.03 0.01 0.03 0 0.02 0.01 0.03 0 0.02 0.01 0.03 0 0.02 0 0.03 0 0.02 0 0.03 0 0.02 0 0.03 -0.01 0.03 -0.01 0.02 0 0.01zm0 -0.01l0 0.01 0 0 0 -0.01zm-1.15 0.19l-0.05 0.01 0.03 -0.03 0.03 0.02 0.03 0.01 0.03 0.01 0.03 0 0.03 0.01 0.04 0.01 0.04 0 0.04 0 0.04 0.01 0.04 0 0.04 0 0.05 -0.01 0.04 0 0.04 0 0.05 -0.01 0.04 -0.01 0.05 0 0.04 -0.01 0.04 -0.01 0.04 -0.01 0.04 -0.01 0.04 -0.02 0.04 -0.01 0.04 -0.01 0.03 -0.02 0.03 -0.02 0.03 -0.01 0.02 -0.02 0.03 -0.02 0.02 -0.02 0.01 -0.02 0.02 -0.02 0.04 0.03 -0.01 0.02 -0.03 0.03 -0.02 0.02 -0.02 0.02 -0.03 0.02 -0.03 0.02 -0.04 0.02 -0.03 0.01 -0.04 0.02 -0.04 0.01 -0.04 0.02 -0.04 0.01 -0.05 0.01 -0.04 0.01 -0.04 0.01 -0.05 0.01 -0.04 0 -0.05 0.01 -0.05 0 -0.04 0.01 -0.05 0 -0.04 0 -0.04 0 -0.05 0 -0.04 -0.01 -0.04 0 -0.04 -0.01 -0.03 0 -0.04 -0.01 -0.03 -0.01 -0.03 -0.02 -0.03 -0.01 0.04 -0.03zm-0.05 0.01l-0.02 -0.05 0.05 0.02 -0.03 0.03zm0.63 1.31l-0.05 -0.01 0 0 0.01 -0.02 0 -0.02 0 -0.02 0 -0.01 -0.01 -0.02 -0.01 -0.02 0 -0.01 -0.01 -0.02 -0.02 -0.02 -0.01 -0.02 -0.02 -0.02 -0.02 -0.02 -0.02 -0.03 -0.02 -0.03 -0.02 -0.02 -0.02 -0.04 -0.03 -0.03 -0.02 -0.03 -0.03 -0.04 -0.03 -0.05 -0.02 -0.04 -0.03 -0.05 -0.03 -0.05 -0.02 -0.06 -0.03 -0.06 -0.03 -0.06 -0.02 -0.07 -0.03 -0.07 -0.02 -0.08 -0.03 -0.08 -0.02 -0.09 -0.02 -0.1 0.05 -0.01 0.02 0.1 0.02 0.08 0.03 0.08 0.02 0.08 0.03 0.07 0.02 0.07 0.03 0.06 0.02 0.06 0.03 0.06 0.03 0.05 0.02 0.04 0.03 0.05 0.02 0.04 0.03 0.04 0.02 0.03 0.03 0.03 0.02 0.03 0.02 0.03 0.02 0.03 0.02 0.02 0.02 0.03 0.02 0.02 0.01 0.02 0.02 0.02 0.01 0.02 0.01 0.02 0.01 0.03 0.01 0.02 0 0.02 0 0.02 0 0.03 -0.01 0.02 0 0zm-0.05 -0.01l0 0 0 0 0 0zm-1.3 -0.09l0.05 -0.01 0 -0.01 0.02 0.04 0.03 0.03 0.03 0.03 0.03 0.03 0.04 0.03 0.04 0.02 0.05 0.02 0.04 0.02 0.05 0.02 0.05 0.01 0.05 0.02 0.06 0.01 0.05 0.01 0.05 0 0.06 0.01 0.05 0 0.05 0 0.06 0 0.05 0 0.04 -0.01 0.05 -0.01 0.05 -0.01 0.04 -0.01 0.04 -0.01 0.03 -0.01 0.04 -0.02 0.03 -0.01 0.02 -0.02 0.02 -0.02 0.02 -0.02 0.01 -0.02 0 -0.02 0.05 0.01 -0.01 0.03 -0.01 0.03 -0.02 0.02 -0.03 0.03 -0.03 0.02 -0.03 0.02 -0.03 0.02 -0.04 0.01 -0.05 0.01 -0.04 0.02 -0.05 0 -0.05 0.01 -0.05 0.01 -0.05 0 -0.06 0 -0.05 0 -0.06 0 -0.05 -0.01 -0.06 0 -0.05 -0.01 -0.06 -0.01 -0.05 -0.02 -0.05 -0.01 -0.05 -0.02 -0.05 -0.02 -0.05 -0.03 -0.04 -0.02 -0.05 -0.03 -0.04 -0.03 -0.03 -0.03 -0.03 -0.04 -0.03 -0.04 0 -0.01zm0 0.01l0 0 0 -0.01 0 0.01zm-0.13 -2.21l0.05 0 0 -0.01 0.03 0.09 0.03 0.09 0.03 0.08 0.02 0.09 0.02 0.08 0.01 0.09 0.02 0.09 0.01 0.08 0 0.08 0.01 0.09 0 0.08 0 0.08 0 0.08 0 0.08 0 0.07 -0.01 0.08 0 0.07 -0.01 0.07 0 0.07 -0.01 0.07 -0.01 0.07 0 0.06 -0.01 0.06 -0.01 0.06 0 0.05 0 0.05 -0.01 0.05 0 0.05 0 0.04 0.01 0.04 0 0.03 0.01 0.03 -0.05 0.01 -0.01 -0.03 0 -0.04 -0.01 -0.04 0 -0.04 0 -0.05 0.01 -0.05 0 -0.05 0 -0.06 0.01 -0.06 0 -0.06 0.01 -0.06 0.01 -0.06 0 -0.07 0.01 -0.07 0.01 -0.07 0 -0.07 0.01 -0.08 0 -0.07 0 -0.08 0 -0.08 0 -0.08 0 -0.08 -0.01 -0.08 -0.01 -0.08 -0.01 -0.09 -0.01 -0.08 -0.01 -0.09 -0.02 -0.08 -0.02 -0.08 -0.03 -0.09 -0.03 -0.08 -0.03 -0.09 0 -0.01zm0 0.01l0 0 0 -0.01 0 0.01zm0.05 -0.01l0 0 -0.05 0 0 0 0.02 -0.02 0.03 0.02zm-0.03 -0.02l0.03 -0.01 0 0.03 -0.03 -0.02zm-0.03 0.08l-0.05 -0.02 0 0 0 0 0 -0.01 0.01 0 0 -0.01 0 0 0 0 0 0 0 -0.01 0 0 0 0 0 0 0 -0.01 0.01 0 0 0 0 -0.01 0 0 0.01 0 0 0 0 0 0.01 -0.01 0 0 0 0 0.01 0 0 0 0 0 0.01 0 0 0 0 0 0.01 0 0 0 0 0 0.01 0 0.01 0.05 -0.01 0 0 0 -0.01 0 0 0 -0.01 0 0 0 0 0 0 0 0 0 -0.01 0 0 0 0 0 0 0 0.01 0 0 0 0 0 0 0 0 0 0 0 0 0 0 0 0 0 0 0 0 0 0 0 0 0.01 0 0 0 0 -0.01 0.01 0 0 0 0 0 0.01 0 0zm-0.36 1.39l-0.05 -0.03 0 0.01 0.01 -0.03 0 -0.03 0.01 -0.02 0 -0.03 0.01 -0.03 0 -0.03 0.01 -0.02 0 -0.03 0 -0.03 0 -0.03 0.01 -0.03 0 -0.03 0.01 -0.03 0 -0.03 0 -0.04 0.01 -0.03 0.01 -0.04 0 -0.04 0.01 -0.04 0.01 -0.05 0.01 -0.04 0.02 -0.05 0.01 -0.05 0.02 -0.06 0.01 -0.05 0.02 -0.06 0.03 -0.07 0.02 -0.06 0.03 -0.07 0.02 -0.08 0.04 -0.08 0.03 -0.08 0.05 0.02 -0.04 0.08 -0.03 0.08 -0.03 0.07 -0.02 0.07 -0.03 0.07 -0.02 0.06 -0.02 0.06 -0.01 0.06 -0.02 0.05 -0.01 0.05 -0.02 0.05 -0.01 0.05 -0.01 0.04 -0.01 0.04 0 0.04 -0.01 0.04 0 0.03 -0.01 0.03 0 0.04 -0.01 0.03 0 0.03 0 0.03 -0.01 0.03 0 0.02 0 0.03 -0.01 0.03 0 0.03 0 0.03 -0.01 0.02 0 0.03 -0.01 0.03 -0.01 0.03 0 0.01zm0 -0.01l0 0.01 0 0 0 -0.01zm-1.57 -0.02l0.05 -0.02 0 0 0.01 0.02 0.01 0.02 0.02 0.03 0.02 0.02 0.03 0.02 0.04 0.02 0.04 0.02 0.04 0.02 0.05 0.01 0.05 0.02 0.05 0.01 0.06 0.01 0.06 0.02 0.06 0 0.06 0.01 0.06 0.01 0.07 0 0.06 0 0.06 0 0.07 0 0.06 -0.01 0.06 -0.01 0.06 -0.01 0.05 -0.01 0.06 -0.01 0.05 -0.02 0.04 -0.02 0.05 -0.03 0.04 -0.02 0.03 -0.03 0.03 -0.03 0.02 -0.04 0.05 0.03 -0.03 0.04 -0.03 0.04 -0.04 0.03 -0.05 0.03 -0.04 0.02 -0.05 0.03 -0.06 0.01 -0.05 0.02 -0.06 0.01 -0.06 0.02 -0.07 0 -0.06 0.01 -0.06 0 -0.07 0 -0.07 0 -0.06 0 -0.07 -0.01 -0.06 0 -0.06 -0.01 -0.06 -0.01 -0.06 -0.02 -0.06 -0.01 -0.05 -0.02 -0.05 -0.02 -0.05 -0.02 -0.04 -0.02 -0.04 -0.02 -0.03 -0.02 -0.03 -0.03 -0.02 -0.03 -0.02 -0.03 -0.01 -0.03 0 0.01zm0.05 -0.02l0 0 0 0 0 0zm1.25 -1.21l-0.02 -0.05 0.04 0.03 -0.02 0.07 -0.02 0.07 -0.03 0.07 -0.03 0.06 -0.04 0.06 -0.04 0.05 -0.05 0.05 -0.05 0.05 -0.05 0.05 -0.06 0.05 -0.05 0.04 -0.06 0.04 -0.06 0.04 -0.06 0.03 -0.07 0.04 -0.06 0.03 -0.06 0.04 -0.05 0.03 -0.06 0.03 -0.05 0.03 -0.06 0.02 -0.04 0.03 -0.05 0.03 -0.04 0.03 -0.03 0.02 -0.03 0.03 -0.03 0.02 -0.01 0.03 -0.01 0.02 -0.01 0.02 0 0.02 0.01 0.03 -0.05 0.02 -0.01 -0.04 0 -0.03 0.01 -0.04 0.01 -0.03 0.02 -0.03 0.03 -0.03 0.04 -0.03 0.03 -0.03 0.04 -0.02 0.05 -0.03 0.05 -0.03 0.05 -0.03 0.06 -0.03 0.05 -0.03 0.06 -0.03 0.06 -0.03 0.06 -0.04 0.06 -0.03 0.06 -0.04 0.06 -0.03 0.06 -0.04 0.05 -0.05 0.06 -0.04 0.05 -0.04 0.04 -0.05 0.05 -0.05 0.04 -0.05 0.03 -0.06 0.04 -0.06 0.02 -0.06 0.02 -0.06 0.01 -0.06 0.04 0.02zm-0.02 -0.05l0.04 -0.01 0 0.04 -0.04 -0.03zm-0.29 0.09l0 -0.05 0 0 0.01 0 0.01 0 0.01 0 0.01 0 0.01 0 0.01 0 0.01 0 0.01 0 0.01 0 0.01 0 0 0 0.01 0 0.01 0 0.01 0 0.01 -0.01 0.01 0 0.01 0 0.01 0 0.01 0 0.01 0 0.01 0 0 -0.01 0.01 0 0.01 0 0.01 0 0.01 0 0.01 0 0.01 -0.01 0.01 0 0.01 0 0 0 0.01 -0.01 0.02 0.05 -0.01 0.01 -0.01 0 -0.01 0 -0.01 0 -0.01 0.01 -0.01 0 -0.01 0 -0.01 0 -0.01 0 -0.01 0.01 -0.01 0 0 0 -0.01 0 -0.01 0 -0.01 0 -0.01 0 -0.01 0.01 -0.01 0 -0.01 0 -0.01 0 -0.01 0 -0.01 0 -0.01 0 -0.01 0 -0.01 0 -0.01 0 -0.01 0 -0.01 0 -0.01 0 -0.01 0 -0.01 0 -0.01 0 0 0zm-1.18 -1.22l0.05 0 0 0 0 0.06 0.01 0.06 0 0.06 0.01 0.05 0.02 0.06 0.01 0.06 0.02 0.05 0.02 0.05 0.02 0.06 0.03 0.05 0.03 0.05 0.03 0.04 0.03 0.05 0.03 0.05 0.04 0.04 0.03 0.04 0.04 0.04 0.04 0.03 0.05 0.04 0.04 0.03 0.05 0.03 0.04 0.03 0.05 0.03 0.05 0.02 0.05 0.02 0.06 0.02 0.05 0.02 0.06 0.01 0.05 0.01 0.06 0.01 0.05 0 0.06 0 0 0.05 -0.06 0 -0.06 0 -0.06 -0.01 -0.06 -0.01 -0.05 -0.01 -0.06 -0.02 -0.05 -0.02 -0.06 -0.02 -0.05 -0.03 -0.05 -0.02 -0.05 -0.03 -0.05 -0.04 -0.05 -0.03 -0.04 -0.04 -0.04 -0.03 -0.04 -0.05 -0.04 -0.04 -0.04 -0.04 -0.04 -0.05 -0.03 -0.05 -0.03 -0.05 -0.03 -0.05 -0.02 -0.05 -0.03 -0.06 -0.02 -0.05 -0.02 -0.06 -0.01 -0.06 -0.02 -0.06 -0.01 -0.06 0 -0.06 -0.01 -0.06 0 -0.06 0 0zm0.64 -1.1l0.03 0.05 0 0 -0.04 0.02 -0.03 0.02 -0.03 0.02 -0.04 0.02 -0.03 0.03 -0.03 0.02 -0.03 0.03 -0.02 0.02 -0.03 0.03 -0.03 0.03 -0.02 0.03 -0.03 0.03 -0.02 0.03 -0.03 0.03 -0.02 0.03 -0.02 0.04 -0.02 0.03 -0.02 0.03 -0.01 0.04 -0.02 0.04 -0.02 0.03 -0.01 0.04 -0.01 0.04 -0.01 0.04 -0.01 0.04 -0.01 0.04 -0.01 0.04 -0.01 0.04 0 0.04 -0.01 0.04 0 0.04 0 0.05 -0.05 0 0 -0.05 0 -0.04 0.01 -0.05 0 -0.04 0.01 -0.04 0.01 -0.04 0.01 -0.04 0.01 -0.05 0.01 -0.04 0.01 -0.04 0.02 -0.04 0.01 -0.03 0.02 -0.04 0.02 -0.04 0.02 -0.04 0.02 -0.03 0.02 -0.04 0.02 -0.03 0.03 -0.03 0.02 -0.04 0.03 -0.03 0.02 -0.03 0.03 -0.03 0.03 -0.03 0.03 -0.02 0.03 -0.03 0.03 -0.03 0.03 -0.02 0.04 -0.02 0.03 -0.03 0.04 -0.02 0.03 -0.02 0 0zm0.21 -0.62l0.03 0.05 0 0 -0.01 0.01 -0.02 0.01 -0.01 0.02 -0.01 0.01 -0.02 0.02 -0.01 0.02 -0.01 0.02 0 0.02 -0.01 0.03 -0.01 0.02 0 0.02 -0.01 0.03 -0.01 0.02 0 0.03 0 0.02 -0.01 0.03 0 0.02 0 0.02 -0.01 0.03 0 0.02 0 0.02 -0.01 0.03 0 0.02 0 0.02 -0.01 0.01 0 0.02 0 0.02 -0.01 0.01 0 0.02 -0.01 0.01 -0.01 0.01 -0.01 0.01 -0.03 -0.05 0 0 0.01 0 0 -0.01 0 -0.01 0.01 -0.01 0 -0.01 0 -0.02 0.01 -0.01 0 -0.02 0 -0.02 0.01 -0.02 0 -0.03 0 -0.02 0 -0.02 0.01 -0.03 0 -0.02 0 -0.03 0.01 -0.02 0 -0.03 0.01 -0.02 0 -0.03 0.01 -0.03 0.01 -0.02 0.01 -0.02 0.01 -0.03 0.01 -0.02 0.01 -0.02 0.01 -0.03 0.02 -0.02 0.01 -0.01 0.02 -0.02 0.02 -0.02 0 0zm0.33 0.39l0 0.05 0 0 -0.02 0 -0.01 -0.01 -0.02 -0.01 -0.01 -0.01 -0.01 -0.01 -0.01 -0.02 -0.01 -0.01 -0.01 -0.02 -0.01 -0.01 -0.01 -0.02 -0.01 -0.02 -0.01 -0.02 0 -0.02 -0.01 -0.02 -0.01 -0.02 -0.01 -0.02 -0.01 -0.02 -0.01 -0.02 -0.01 -0.02 -0.01 -0.02 -0.01 -0.02 -0.01 -0.01 -0.01 -0.01 -0.01 -0.02 0 0 -0.01 -0.01 -0.01 -0.01 -0.01 0 0 0 -0.01 0 0 0 -0.01 0.01 -0.03 -0.05 0.02 -0.01 0.01 0 0.02 0 0.02 0 0.01 0.01 0.02 0.01 0.01 0.01 0.01 0.01 0.01 0.02 0.02 0.01 0.01 0.02 0.01 0.02 0.01 0.01 0.01 0.02 0.01 0.02 0.01 0.02 0 0.03 0.01 0.02 0.01 0.02 0.01 0.02 0.01 0.02 0.01 0.01 0.01 0.02 0.01 0.02 0.01 0.01 0 0.02 0.01 0.01 0.01 0.01 0.01 0 0 0.01 0 0 0.01 0 0 0zm1.72 2.21l-0.05 0 0.02 -0.02 0.02 -0.01 0.02 0 0.01 0 0.02 0 0.02 -0.01 0.02 0 0.02 0 0.02 -0.01 0.02 0 0.01 0 0.02 -0.01 0.02 0 0.02 0 0.02 0 0.02 -0.01 0.01 0 0.02 0 0.02 -0.01 0.02 0 0.02 0 0.02 -0.01 0.01 0 0.02 0 0.02 0 0.02 -0.01 0.02 0 0.02 0 0.02 -0.01 0.01 0 0.02 0 0.02 -0.01 0.02 0 0.01 0.05 -0.02 0.01 -0.02 0 -0.02 0 -0.02 0 -0.02 0.01 -0.01 0 -0.02 0 -0.02 0.01 -0.02 0 -0.02 0 -0.02 0.01 -0.01 0 -0.02 0 -0.02 0 -0.02 0.01 -0.02 0 -0.02 0 -0.01 0.01 -0.02 0 -0.02 0 -0.02 0.01 -0.02 0 -0.02 0 -0.02 0 -0.01 0.01 -0.02 0 -0.02 0 -0.02 0.01 -0.02 0 -0.02 0 -0.01 0.01 -0.02 0 0.02 -0.03zm-0.05 0l0 -0.02 0.02 0 -0.02 0.02zm0.07 0.75l0.04 0.03 -0.04 -0.01 -0.01 -0.02 0 -0.02 0 -0.02 -0.01 -0.03 0 -0.02 0 -0.02 0 -0.02 -0.01 -0.02 0 -0.02 0 -0.03 0 -0.02 -0.01 -0.02 0 -0.03 0 -0.02 0 -0.02 -0.01 -0.03 0 -0.02 0 -0.02 0 -0.03 0 -0.02 -0.01 -0.03 0 -0.02 0 -0.03 0 -0.02 0 -0.03 0 -0.03 -0.01 -0.02 0 -0.03 0 -0.02 0 -0.03 0 -0.03 0 -0.03 0.05 0 0 0.03 0 0.03 0 0.02 0 0.03 0.01 0.03 0 0.02 0 0.03 0 0.02 0 0.03 0 0.02 0.01 0.03 0 0.02 0 0.03 0 0.02 0 0.03 0.01 0.02 0 0.02 0 0.03 0 0.02 0 0.02 0.01 0.02 0 0.03 0 0.02 0 0.02 0.01 0.02 0 0.02 0 0.03 0.01 0.02 0 0.02 0 0.02 0 0.02 0.01 0.02 -0.05 -0.01zm0.04 0.03l-0.04 0.05 0 -0.06 0.04 0.01zm0.51 -0.85l-0.01 -0.05 0.03 0.03 -0.01 0.05 -0.01 0.04 0 0.05 -0.02 0.04 -0.01 0.04 -0.01 0.04 -0.01 0.04 -0.02 0.03 -0.02 0.04 -0.01 0.03 -0.02 0.03 -0.02 0.03 -0.02 0.03 -0.02 0.03 -0.02 0.02 -0.02 0.03 -0.02 0.02 -0.02 0.03 -0.02 0.02 -0.02 0.02 -0.02 0.02 -0.02 0.02 -0.02 0.02 -0.02 0.02 -0.02 0.02 -0.02 0.01 -0.02 0.02 -0.01 0.02 -0.02 0.01 -0.01 0.02 -0.02 0.01 -0.01 0.02 -0.04 -0.03 0.01 -0.02 0.02 -0.02 0.01 -0.01 0.02 -0.02 0.02 -0.02 0.02 -0.01 0.01 -0.02 0.02 -0.02 0.02 -0.02 0.02 -0.02 0.02 -0.02 0.02 -0.02 0.02 -0.02 0.02 -0.02 0.02 -0.02 0.02 -0.02 0.02 -0.03 0.02 -0.02 0.02 -0.03 0.02 -0.03 0.01 -0.02 0.02 -0.03 0.02 -0.04 0.01 -0.03 0.02 -0.03 0.01 -0.04 0.01 -0.03 0.01 -0.04 0.02 -0.04 0 -0.05 0.01 -0.04 0.01 -0.05 0.03 0.03zm-0.01 -0.05l0.03 0 0 0.03 -0.03 -0.03z"/>
</svg>
