<svg xmlns="http://www.w3.org/2000/svg" width="130" height="67" fill-rule="evenodd" clip-rule="evenodd" image-rendering="optimizeQuality" shape-rendering="geometricPrecision" text-rendering="geometricPrecision" viewBox="0 0 19.84 10.3"><path fill="#C5E3D7" d="M6.8 4.03c.34.34-.29 1.03-.68.81-.14-.11-1-.49-1.88-.93-.23-.11-.22.02-.25.22.33 1.28 1.14 2.09 1.17 2.39-.01.24-.39.41-.89.5.09 1.78.7 2.09.64 2.38-.09.47-1.3.45-1.33 0 .02-.2.05-1.25.02-2.32-.14.01-.29.01-.43 0-.04 1.12 0 2.26.01 2.47-.02.45-1.23.48-1.32.01-.06-.3.58-.62.65-2.55-.44-.09-.77-.24-.81-.47-.08-.4.79-1.32 1.04-2.52-.04-.05-.1-.04-.2.04-.19.17-1.53 1.33-1.69 1.38-.38.12-1-.31-.78-.67.18-.27 1.59-.54 2.66-1.85-.45-.21-.77-.69-.77-1.23 0-.75.58-1.35 1.3-1.35.71 0 1.29.6 1.29 1.35 0 .5-.26.94-.66 1.17 1.4 1.1 2.68.96 2.91 1.17z"/><path fill="#2B2A29" fill-rule="nonzero" d="M6.11 4.86l.03-.04.03.01.04.02h.03l.04.01.04-.01h.04l.03-.01.04-.01.04-.02.04-.02.04-.02.03-.02.04-.03.03-.03.04-.03.03-.03.02-.04.03-.03.02-.04.02-.04.02-.04.02-.03.01-.04.01-.04v-.11l-.01-.04-.01-.03-.02-.04-.02-.03-.03-.03.04-.03.03.03.02.04.02.04.02.04.01.04v.13l-.01.04-.01.04-.02.04-.02.05-.02.04-.03.04-.02.04-.03.03-.04.04-.03.03-.04.03-.04.03-.04.03-.04.02-.04.02-.04.02-.04.01-.05.01-.04.01h-.04l-.05-.01h-.04l-.04-.02-.04-.02zm0 0zm-1.89-.93l.03-.04.08.04.08.04.08.04.09.04.08.04.08.04.07.04.08.03.08.04.08.04.07.03.07.04.07.03.07.03.07.03.07.04.06.03.06.02.06.03.06.03.05.03.05.02.05.02.04.03.04.02.04.02.04.02.03.01.03.02.02.01.02.02.02.01-.03.04-.02-.01-.02-.01-.02-.02-.03-.01-.03-.02-.03-.02-.04-.02-.04-.02-.04-.02-.05-.02-.05-.03-.06-.02-.05-.03-.06-.03-.06-.03-.07-.03-.06-.03-.07-.03-.07-.03-.07-.04-.07-.03-.08-.04-.07-.03-.08-.04-.08-.04-.08-.04-.08-.03-.08-.04-.08-.04-.08-.04-.08-.05-.09-.04zm-.2.2l-.06.01v-.01l.01-.02v-.05l.01-.02v-.05l.01-.01v-.03L4 3.93v-.02l.01-.01.01-.01v-.01l.01-.01.01-.01.01-.01h.02l.01-.01h.06l.01.01h.02l.02.01.02.01.02.01.02.01-.03.04-.02-.01h-.01l-.02-.01-.02-.01h-.02l-.01-.01h-.03l-.01.01h-.01v.01h-.01v.01l-.01.01v.02l-.01.01v.03L4.03 4V4.06l-.01.02v.06-.01zm-.06.01v-.01.01zm1.23 2.38h-.05l-.01-.02-.01-.03-.01-.04-.02-.04-.02-.04-.02-.04-.03-.05-.03-.05-.03-.05-.04-.06-.04-.05-.04-.07-.04-.06-.04-.07-.05-.07-.04-.07-.05-.08-.05-.08-.05-.08-.05-.09-.04-.08-.05-.09-.05-.1-.05-.09-.04-.1-.05-.11-.04-.1-.04-.11-.04-.11-.04-.11L4 4.26l-.04-.12.06-.01.03.12.03.11.04.11.04.11.04.11.04.1.04.1.05.1.05.1.04.09.05.09.05.09.05.08.04.09.05.07.05.08.05.07.04.07.04.07.05.07.04.06.03.06.04.05.03.06.04.05.02.04.03.05.02.04.02.04.01.04.01.03.01.04zm0 0zm-.9.5h-.05l.02-.03h.05l.04-.01.05-.01.04-.01.05-.01.04-.01.04-.01.04-.02.04-.01.04-.01.03-.01.04-.02.03-.01.03-.01.03-.02.03-.01.03-.02.03-.02.03-.01.02-.02.02-.02.02-.01.02-.02.02-.02.01-.02.01-.02.02-.01.01-.02v-.02l.01-.02v-.02l.01-.02h.05l-.01.03v.02l-.01.02-.01.03-.01.02-.01.02-.02.02-.01.03-.02.02-.02.02-.03.01-.02.02-.03.02-.02.02-.03.02-.03.01-.03.02-.04.01-.03.02-.03.01-.04.02-.04.01-.04.01-.04.01-.04.02-.04.01L4.5 7l-.05.01-.04.01-.05.01-.04.01-.05.01.02-.03zm-.05 0V7l.02-.01-.02.03zm.7 2.39l-.05-.01v-.08l-.01-.02-.01-.03-.01-.03-.02-.03-.02-.04-.02-.04-.02-.04-.02-.04L4.73 9l-.02-.05-.03-.05-.03-.06-.03-.06-.03-.06-.03-.08-.03-.07-.03-.08-.03-.09-.02-.09-.03-.1-.03-.1L4.36 8l-.02-.12-.02-.12-.02-.14-.02-.13-.02-.15-.01-.16-.01-.16h.05l.01.16.02.15.01.15.02.14.02.13.02.12.03.12.02.11.03.1.02.1.03.09.03.08.03.08.03.08.03.06.03.07.03.06.03.06.02.05.03.05.03.04.02.05.02.04.02.04.02.03.01.04.02.03.01.03.01.03v.1zm0 0zm-1.38-.02l.05.01v.03l.01.04.02.03.02.03.03.03.03.02.04.03.04.02.04.02.05.02.05.01.05.01.06.01.06.01.05.01h.12l.06-.01h.06l.05-.01.06-.01.05-.02.05-.01.05-.02.04-.02.04-.03.04-.02.03-.03.03-.03.02-.04.02-.03.01-.04.05.01-.02.04-.02.05-.02.04-.03.03-.04.04-.04.03-.04.02-.05.03-.05.02-.06.01-.05.02-.06.01-.06.01-.06.01h-.18l-.06-.01h-.06l-.06-.02-.05-.01-.05-.01-.06-.02-.04-.02-.05-.03-.04-.02-.04-.04-.03-.03-.02-.03-.02-.04-.02-.05v-.05zm0 .01v-.01.01zm.04-2.29v-.05l.03.02V7.38l.01.1V8.57l-.01.07V9.05l-.01.05V9.28l-.01.04v.08l-.05-.01V9.28l.01-.04v-.2l.01-.05v-.51l.01-.08V7.68l-.01-.1v-.49l.02.02zm0-.05h.03v.02l-.03-.02zm-.4.02h-.06l.03-.02H3.6v.05H3.17l.03-.03zm-.06 0l.01-.02h.02l-.03.02zm.07 2.47h-.05v.01-.03l-.01-.03V9.29l-.01-.05v-.27l-.01-.07V7.5l.01-.1v-.32h.06l-.01.11V7.5l-.01.11v1.21l.01.08v.27l.01.06V9.47l.01.03v.05zm0 0zm-1.38.01l.05-.01.01.04.02.04.02.03.03.03.03.03.04.03.04.02.04.03.05.01.05.02.05.01.06.02h.05l.06.01H2.66l.06-.01.05-.01.06-.01.05-.02.04-.01.05-.02.04-.03.04-.02.03-.03.02-.03.03-.03.01-.03.01-.03.01-.04h.05l-.01.05-.01.04-.02.04-.03.04-.03.03-.03.03-.04.03-.05.02-.05.02-.05.02-.05.02-.06.01-.05.01-.06.01h-.06l-.06.01h-.06l-.06-.01h-.06l-.06-.01-.06-.01-.06-.02-.05-.02-.05-.02-.05-.02L2 9.79l-.04-.03-.04-.03-.03-.04-.03-.04-.02-.04-.01-.05zm0 0v.01-.01zm.67-2.53l.01-.05.02.03v.18l-.01.16-.02.16-.02.15-.01.14-.03.14-.02.13-.02.11-.03.12-.03.1-.03.1-.03.09-.03.09-.03.08-.03.08-.03.07-.03.06-.03.06-.03.06-.03.05-.02.05-.03.05-.02.04-.02.04-.02.03-.02.04-.01.03-.01.03-.01.03v.07l-.05.01v-.09l.01-.03.01-.04.02-.03.01-.04.02-.04.02-.04.03-.04.02-.04.03-.05.02-.05.03-.06.03-.06.03-.07.03-.06.03-.08.03-.08.03-.08.03-.09.03-.1.03-.11.03-.11.02-.11.02-.13.02-.13.02-.14.02-.15.01-.16.01-.17.01-.17.02.02zm.01-.05l.03.01-.01.02-.02-.03zm-.84-.44l.05-.01.01.02v.02l.01.02.01.02.01.02.01.01.02.02.01.02.02.02.01.01.02.02.02.01.03.02.02.02.02.01.03.01.03.02.02.01.03.02.03.01.03.01.03.01.04.02.03.01.04.01.03.01.04.01.04.01.03.01.04.01h.04l.04.01-.01.05h-.04l-.04-.01-.04-.01L2.34 7l-.03-.01-.04-.01-.04-.01-.03-.01-.04-.02-.03-.01-.04-.01-.03-.01-.03-.02L2 6.88l-.03-.02-.03-.01-.02-.02-.03-.01-.02-.02-.03-.01-.02-.02-.02-.02-.02-.02-.02-.02-.01-.02-.02-.02-.01-.02-.02-.02-.01-.02-.01-.02v-.02l-.01-.03zm0 0v.01-.01zm1.05-2.51L2.76 4v.02l-.02.11-.03.12-.03.1-.04.11-.04.11-.04.1-.04.1-.04.1-.04.1-.05.1-.04.09-.05.09-.05.09-.04.09-.05.08-.04.08-.05.08-.04.08-.04.07-.04.07-.04.07-.03.07-.04.06-.02.07-.03.05-.02.06-.02.05-.02.05-.01.05v.11l-.05.01v-.13l.01-.05.02-.05.02-.06.02-.06.03-.06.03-.06.03-.06.04-.07.03-.07.04-.07.04-.08.05-.07.04-.08.05-.09.04-.08.05-.09.04-.08.05-.09.05-.1.04-.09.04-.1.05-.1.04-.1.04-.1.03-.1.04-.11.03-.11.03-.11.02-.11.01.02zM2.76 4v.02V4zm-.2.08l-.04-.04h.01l.01-.01.01-.01.01-.01h.01L2.58 4h.01l.01-.01.01-.01h.02v-.01h.03v-.01h.03l.01.01h.02l.01.01h.01v.01h.01l.01.01-.04.03h-.01v-.01H2.65l-.01.01h-.01l-.01.01h-.01v.01H2.6l-.01.01h-.01l-.01.01v.01h-.01zM.86 5.46l-.02-.05h.02l.02-.02.03-.01.04-.03.04-.03.04-.03.05-.04.06-.05.06-.04.06-.05.06-.05.07-.06.07-.05.06-.06.08-.06.07-.06.07-.06.07-.06.07-.05.07-.06.06-.06.07-.06.06-.05.06-.05.06-.05.05-.04.05-.04.04-.04.04-.04.03-.02.03-.03.02-.02.04.04-.02.02-.03.03-.04.02-.04.04-.04.03-.05.05-.05.04-.06.05-.06.05-.06.05-.06.06-.07.06-.07.05-.07.06-.07.06-.07.06-.07.06-.07.06-.07.06-.07.05-.07.06-.06.05-.06.05-.06.05-.05.04-.06.04-.04.03-.04.03-.04.03-.03.02-.03.01-.02.01zm-.81-.7l.05.02-.02.03-.01.04-.01.03-.01.03v.06L.06 5l.01.03.01.03.02.03.02.03.02.03.02.03.03.03.03.03.03.02.03.03.04.02.03.02.04.02.04.02.04.01.04.02.03.01.04.01.04.01h.15l.04-.01.03-.01.02.05-.04.01-.04.01H.74l-.04.01-.04-.01H.61l-.04-.01-.04-.01-.04-.01-.04-.02-.04-.01-.04-.02-.04-.02-.04-.03-.04-.02-.03-.03-.03-.02-.03-.03-.03-.03-.03-.03-.02-.04-.03-.03-.01-.03-.02-.04-.01-.04L0 4.98V4.9l.01-.03.01-.04.01-.04.02-.03zm0 0zm2.67-1.82l.02-.05.01.04-.1.12-.1.12-.11.11-.11.1-.1.1-.11.09-.11.09-.11.09-.1.07-.11.08-.11.07-.1.06-.1.07-.11.05-.09.06-.1.05-.1.05-.09.04-.09.05-.08.04-.08.04-.08.03-.07.03-.07.04-.06.03-.06.03-.05.02-.04.03-.04.03-.03.02-.03.02-.01.02-.05-.02.03-.03.02-.03.04-.03.04-.02.05-.03.05-.03.06-.03.06-.03.07-.03.07-.04.08-.03.08-.04.08-.04.09-.04.09-.05.09-.05.1-.05.1-.05.1-.06.1-.06.11-.07.1-.06.11-.08.1-.08.11-.08.11-.09.1-.09.11-.1.1-.1.11-.11.1-.11.1-.12.01.04zm.02-.05l.03.02-.02.02-.01-.04zm-.81-1.2h.06V1.84l.01.04.01.05.01.05.01.05.01.04.02.05.01.04.02.05.02.04.02.04.02.04.02.04.03.04.02.04.03.04.03.04.03.03.03.04.03.03.03.03.04.03.03.03.04.03.03.03.04.02.04.03.04.02.04.02.04.02-.02.05-.04-.02-.05-.02-.04-.03-.04-.02-.04-.03-.03-.03-.04-.03-.04-.03-.03-.03-.04-.03-.03-.04-.03-.03-.03-.04-.03-.04-.03-.04-.03-.04-.02-.04-.03-.04-.02-.04-.02-.05-.02-.04-.02-.05-.01-.05-.02-.04-.01-.05-.01-.05-.01-.05-.01-.05-.01-.05v-.1l-.01-.05zM3.26.31v.06h-.13l-.07.01L3 .39l-.06.02-.06.02-.06.02-.06.02-.05.03-.06.02-.05.04-.05.03-.05.04-.05.04-.05.04-.04.04-.04.05-.04.05-.04.05-.04.05-.03.05-.03.06-.03.05-.02.06-.03.06-.02.06-.01.07-.02.06-.01.06-.01.07v.14h-.06l.01-.07v-.07l.01-.07.01-.07.02-.07.01-.06.02-.07.03-.06.02-.06.03-.06.04-.06.03-.05.04-.05.04-.06.04-.05.04-.04.05-.05.04-.04.06-.04.05-.04.05-.04.06-.03.05-.03.06-.03L2.8.4l.06-.02.07-.02.06-.02.06-.01.07-.01h.07l.07-.01zm1.32 1.38h-.06v-.14l-.01-.07-.01-.06-.02-.06-.01-.07-.02-.06-.03-.06-.02-.06-.03-.05L4.34 1 4.31.95 4.27.9 4.23.85 4.19.8 4.15.75 4.11.71 4.06.67 4.01.63 3.96.59 3.91.56 3.86.52 3.81.5 3.75.47 3.69.45 3.63.43 3.57.41 3.51.39 3.45.38 3.39.37h-.13V.31l.06.01h.07l.07.01.06.01.07.02.06.02.06.02.06.02.06.03.06.03.05.03.05.04.06.04.05.04.04.04.05.05.04.04.04.05.04.06.04.05.04.05.03.06.03.06.02.06.03.06.02.07.01.06.02.07.01.07.01.07v.07l.01.07zm-.67 1.15l-.03.04v-.05l.04-.02.03-.02.04-.02.03-.03.03-.03.03-.02.03-.03.03-.03.03-.03.03-.03.03-.04.02-.03.03-.03.02-.04.02-.03.03-.04.02-.04.02-.04.01-.03.02-.04.02-.04.01-.05.02-.04.01-.04.01-.04.01-.04.01-.05v-.04l.01-.05v-.13h.06v.04l-.01.05v.05l-.01.04v.05l-.01.05-.01.04-.01.04-.01.05-.02.04-.01.04-.02.05-.02.04-.02.04-.02.04-.02.04-.02.03-.02.04-.03.04-.03.03-.02.04-.03.03-.03.03-.03.03-.03.04-.03.02-.04.03-.03.03-.03.03-.04.02-.04.03-.03.02v-.04zm-.03.04l-.03-.03.03-.02v.05zm2.94 1.14l-.04.03-.02-.01-.03-.02-.03-.01-.04-.02-.05-.01-.05-.01-.06-.02-.06-.01-.07-.01-.07-.02-.08-.01-.08-.02-.08-.01-.09-.02-.09-.02-.1-.02-.1-.03-.11-.03-.1-.03-.11-.04-.11-.04-.12-.04-.12-.05-.12-.05-.12-.06-.12-.06-.13-.07-.12-.07-.13-.08-.13-.09-.13-.09-.13-.1.03-.04.13.1.13.09.13.08.12.08.13.08.12.06.13.07.12.05.11.06.12.04.11.05.12.03.1.04.11.03.1.03.1.02.1.03.09.02.09.02.08.01.08.02.08.01.07.02.07.01.06.01.06.02.05.01.05.01.05.02.03.02.04.01.03.03zm0 0h-.01.01z"/><path fill="#99CFBA" d="M16.06.03c.73 0 1.32.61 1.32 1.37 0 .53-.29.99-.71 1.22 1.16 1.53 2.95 2.16 3.13 2.44.13.23-.78.97-.96.75-.3-.23-1.11-1.18-1.9-1.85-.06-.05-.1-.06-.12-.04.19 1.21.4 2.06.45 2.51.3 2.44 1.05 3.08.99 3.41-.1.49-1.74.55-1.77.08.02-.24.13-1.66.01-2.94-.01-.01-.02-.03-.02-.06.01-.02.01-.04 0-.06v-.02c-.03-.23-.29-.37-.35.02-.14 1.21-.19 2.79-.17 3.04-.02.47-1.64.51-1.74.02-.06-.33.91-1.35 1.04-3.34-.02-.51.18-1.5.26-2.62-.02.01-.06.04-.12.09-.21.17-1.44 1.73-1.61 1.78-.39.13-.91-.34-.77-.59.18-.28 1.43-1.18 2.54-2.56v-.01c-.48-.2-.83-.69-.83-1.27 0-.76.6-1.37 1.33-1.37z"/><path fill="#2B2A29" fill-rule="nonzero" d="M17.4 1.4h-.05v-.07l-.01-.07v-.07l-.02-.06-.01-.07-.02-.06-.02-.06-.02-.07-.03-.05-.03-.06-.03-.06-.03-.05-.04-.06-.04-.05-.04-.05-.04-.04-.04-.05-.05-.04-.05-.04-.05-.04-.05-.03-.06-.04-.05-.03-.06-.02-.06-.03-.06-.02-.06-.02-.06-.01-.07-.01-.06-.01-.07-.01h-.06V0h.06l.07.01.07.01.07.01.06.01.07.02.06.03.06.02.06.03.06.03.05.03.06.04.05.04.05.04.05.04.05.05.04.05.05.05.04.05.03.06.04.05.03.06.03.06.03.07.02.06.02.06.02.07.02.07.01.07.01.07v.14zm-.71 1.2l-.04.03.01-.04.04-.02.03-.02.04-.03.04-.02.03-.03.03-.03.04-.02.03-.03.03-.04.03-.03.03-.03.03-.04.03-.03.02-.04.03-.04.02-.03.02-.04.02-.04.02-.04.02-.04.02-.05.01-.04.02-.04.01-.05.01-.04.01-.05.01-.04.01-.05v-.05l.01-.04v-.1h.05V1.55l-.01.05-.01.05-.01.04-.01.05-.01.05-.01.04-.02.05-.01.04-.02.05-.02.04-.02.04-.02.04-.03.04-.02.04-.03.04-.02.04-.03.04-.03.03-.03.04-.03.03-.03.03-.04.03-.03.03-.04.03-.03.03-.04.03-.04.02-.04.03-.04.02.01-.04zm-.04.03l-.02-.02.03-.02-.01.04zm3.18 2.41l-.05.03-.02-.02-.03-.03-.03-.03-.05-.03-.05-.04-.07-.04-.07-.04-.07-.04-.08-.05-.09-.05-.1-.05-.09-.06-.11-.06-.1-.06-.11-.07-.12-.07-.12-.07-.11-.08-.13-.08-.12-.09-.12-.09-.13-.09-.13-.1-.12-.1-.13-.11-.12-.11-.12-.12-.13-.12-.12-.13-.11-.13-.12-.14-.11-.14.04-.03.11.14.11.14.12.13.12.12.12.12.12.12.13.11.12.11.13.1.12.1.13.09.12.09.12.08.12.08.12.08.12.08.11.07.11.06.11.06.1.06.1.06.09.05.09.05.08.05.08.05.07.04.06.04.06.03.05.04.04.03.03.03.02.03h.01zm-.01 0h.01-.01zm-1 .8l.04-.05v.01l.01.01.02.01h.02l.03.01.03-.01H19l.03-.01.04-.02.04-.01.04-.02.05-.03.04-.02.05-.03.04-.03.04-.03.05-.04.04-.03.04-.04.04-.04.04-.03.04-.04.03-.04.03-.04.03-.03.02-.04.02-.03.02-.03.01-.03.01-.03v-.04l-.01-.02.05-.03.01.03v.07l-.01.03-.01.04-.02.03-.02.04-.03.04-.03.04-.03.03-.04.04-.03.04-.04.04-.04.04-.05.04-.04.03-.04.04-.05.03-.05.03-.04.03-.05.03-.04.02-.05.02-.04.02-.04.02-.04.01-.04.01h-.07l-.03-.01-.03-.02-.02-.02v.01zm.04-.05v.01-.01zm-1.93-1.81l.03-.04.07.06.08.07.07.07.08.06.07.07.07.07.07.07.08.07.07.07.07.07.07.07.07.07.07.07.06.07.07.07.06.06.07.07.06.06.06.06.06.07.05.05.06.06.05.05.05.05.05.05.04.05.04.04.04.04.04.03.04.03.03.03.03.02-.04.05-.03-.03-.03-.03-.03-.03-.04-.03-.04-.04-.05-.05-.04-.04-.05-.05-.05-.05-.05-.05-.06-.06-.05-.06-.06-.06-.06-.06-.06-.07-.06-.06-.07-.07-.06-.06-.07-.07-.07-.07-.07-.07-.07-.07-.07-.07-.07-.07-.07-.07-.07-.07-.08-.07-.07-.07-.07-.07-.08-.06-.07-.07-.07-.06zm-.08-.06l-.05.01V3.9h.01v-.01h.02l.01-.01h.02l.01.01h.02l.01.01h.01v.01h.02v.01h.01v.01h.01v.01h.01l-.03.04h-.01v-.01h-.01l-.01-.01-.01-.01h-.01v-.01h-.04l.01-.02zm-.05.01V3.9v.03zm.47 2.47v.05l-.02-.02-.01-.04v-.05l-.01-.04-.01-.05-.01-.06-.01-.05-.01-.06-.01-.06-.01-.06-.01-.06-.01-.07-.02-.07-.01-.07-.02-.07-.01-.08-.02-.08-.01-.08-.02-.08-.01-.08-.02-.09-.02-.09-.01-.09-.02-.09-.02-.1-.02-.09-.01-.1-.02-.11-.02-.1-.02-.11-.02-.1-.01-.11-.02-.11.05-.01.02.11.01.11.02.11.02.1.02.11.02.1.01.1.02.09.02.1.02.09.01.09.02.09.02.09.01.08.02.08.02.08.01.08.02.08.01.07.01.07.02.07.01.07.01.06.01.06.01.06.01.06.01.06.01.05.01.05.01.05v.04l.01.05-.03-.03zm0 .05h-.02v-.02l.02.02zm0 0V6.4l.03.03-.03.02zm0-.05h.03v.03l-.03-.03zm1.01 3.44l-.05-.01.01-.03v-.03l-.01-.03-.01-.04-.01-.04-.02-.04-.02-.05-.02-.05-.03-.06-.03-.06-.03-.06-.03-.07-.04-.08-.03-.08-.04-.08-.04-.1-.05-.09-.04-.11-.04-.11-.04-.12-.05-.12-.04-.14-.04-.14-.04-.15-.05-.16-.04-.16-.04-.18-.03-.18-.04-.2-.03-.2-.03-.21-.03-.23h.05l.03.22.03.21.03.2.04.2.04.18.03.18.04.16.05.16.04.15.04.14.04.13.05.12.04.12.04.11.04.11.04.09.04.1.04.08.04.08.04.08.03.07.03.06.03.06.03.06.02.05.02.05.02.05.01.04.01.04.01.04v.04l-.01.03zm0 0v.01-.01zm-1.81.08h.05v.04l.02.03.02.03.03.03.04.03.04.03.05.02.05.02.06.02.07.01.07.01.07.01.07.01h.32l.08-.01.07-.01.08-.01.07-.02.07-.02.07-.02.07-.02.05-.03.06-.03.05-.03.04-.03.03-.03.03-.04.02-.04.01-.04.05.01-.01.05-.02.05-.04.04-.04.04-.04.04-.06.03-.05.03-.07.03-.06.02-.07.02-.08.02-.07.02-.08.01-.08.01-.08.01h-.08l-.08.01-.08-.01h-.08l-.08-.01-.07-.01-.07-.01-.07-.01-.06-.02-.06-.02-.06-.03-.04-.03-.05-.03-.03-.04-.03-.04-.02-.04v-.05zm0 0zm.01-2.93l.04-.03v.02l.01.12.01.12.01.12.01.12v.12l.01.12v.24l.01.12V8.73l-.01.11v.2l-.01.09v.18l-.01.08V9.54l-.01.07v.06l-.01.06v.09l-.01.04v.06h-.05v-.1l.01-.05v-.05l.01-.05v-.13l.01-.08v-.07l.01-.09V9.13l.01-.1v-.3l.01-.1v-.57l-.01-.12V7.7l-.01-.12v-.12l-.01-.12-.01-.12-.01-.12-.01-.12.01.01zm.04-.03v.02-.02zm-.06-.04h.05v.04h.01l-.04.03h-.01v-.01h-.01V6.92zm0-.05l.05-.01V6.92h-.05v-.05zm.05-.01v.01-.01zm0-.02v.02l-.05.01v-.03h.05zm0 0zm-.36.03l-.05-.01.01-.04.01-.03.01-.03.01-.03.01-.02.01-.03.01-.02.02-.01.01-.02.02-.01.01-.01.02-.01h.02l.02-.01h.02l.01.01h.02l.02.01h.01l.02.01.01.02.02.01.01.01.01.02.01.02.02.01.01.02v.02l.01.02.01.02v.03l.01.02h-.05l-.01-.01v-.02l-.01-.02v-.02l-.01-.02-.01-.01-.01-.02-.01-.01-.01-.01-.01-.01-.01-.01-.01-.01-.01-.01-.01-.01h-.03l-.01-.01h-.01l-.01.01h-.02l-.01.01-.01.01-.01.01-.01.01-.01.02-.01.02-.01.02-.01.02-.01.03-.01.03-.01.04zm-.05-.01zm-.11 3.05l-.05-.01v.01-.03l-.01-.04v-.27l.01-.08V9.15l.01-.1v-.1l.01-.1v-.11l.01-.11v-.11l.01-.12.01-.11v-.12l.01-.12.01-.12.01-.12.01-.12.01-.12.01-.12.01-.12.01-.12.01-.12.01-.12.01-.11.05.01-.01.11-.01.12-.01.11-.01.12-.01.12-.01.12-.01.12-.01.12-.01.12-.01.12-.01.12v.12l-.01.12-.01.11v.11l-.01.11v.11l-.01.1v.2l-.01.09v.33l-.01.06V9.75l.01.05v.11zm0-.01v.01-.01zm-1.8.03l.05-.01.02.04.02.04.02.03.04.03.04.03.05.03.05.03.06.02.06.02.07.02.07.01.07.01.08.01h.07l.08.01h.08l.08-.01h.07l.08-.01.07-.01.07-.01.07-.02.06-.02.06-.02.06-.02.05-.03.04-.03.04-.03.03-.03.02-.03.01-.04.01-.04.05.01-.01.04-.02.05-.02.04-.04.04-.04.03-.05.03-.05.03-.06.03-.06.02-.07.02-.07.02-.07.01-.07.01-.08.01-.08.01h-.24l-.08-.01-.08-.01-.07-.01-.07-.01-.07-.02-.07-.02-.06-.03-.06-.02-.05-.03-.04-.04-.04-.03-.04-.05-.02-.04-.02-.05zm0 0h.01-.01zm1.04-3.35h.05l-.01.19-.02.18-.02.17-.03.17-.03.16-.03.16-.04.15-.04.14-.04.14-.05.14-.04.13-.05.13-.04.12-.05.11-.05.11-.05.11-.04.1-.05.09-.05.09-.04.09-.04.08-.04.07-.04.08-.03.06-.03.07-.02.05-.03.06-.01.05-.02.04v.04l-.01.03v.03l-.05.01v-.08l.01-.04.02-.05.01-.05.03-.06.02-.06.03-.06.04-.07.03-.07.04-.08.04-.08.05-.08.04-.09.05-.1.05-.1.04-.1.05-.11.05-.11.04-.12.05-.13.04-.13.05-.13.04-.14.04-.15.04-.15.03-.15.03-.16.03-.17.02-.17.02-.18.01-.18zm.05 0zm-.02 0h-.03.03zm.02 0zm.25-2.6l-.02-.05.04.03-.01.1-.01.11-.01.1-.01.1-.01.1-.01.1-.01.1-.01.1-.01.1-.01.09-.02.1-.01.09-.01.09-.01.09-.01.09-.01.08-.01.09-.01.08-.01.08-.01.08-.01.07-.01.08-.01.07v.07l-.01.06-.01.07v.12l-.01.06V6.58h-.05V6.37l.01-.06v-.07l.01-.06v-.07l.01-.07.01-.07.01-.07.01-.08.01-.08.01-.08.01-.08.01-.08.01-.09.01-.09.01-.09.01-.09.01-.09.01-.09.02-.1.01-.09.01-.1.01-.1.01-.1.01-.1.01-.1.01-.11.01-.1.01-.1.03.02zm-.02-.05l.04-.01v.04l-.04-.03zm-.1.14l-.03-.04.01-.01h.01v-.01h.01V4h.01l.01-.01.01-.01.01-.01h.01l.01-.01.01-.01h.01v-.01h.02v-.01l.02.05v.01h-.02V4h-.01l-.01.01h-.01v.01h-.01v.01h-.01l-.01.01h-.01v.01h-.01v.01h-.01v.01h-.01zm-1.62 1.79l-.01-.05.01-.01.02-.01.03-.03.04-.03.04-.04.04-.05.05-.05.05-.05.06-.06.06-.07.06-.07.06-.07.06-.07.07-.08.06-.07.07-.08.07-.08.06-.08.07-.08.06-.07.07-.08.06-.07.06-.07.05-.06.06-.07.05-.05.04-.06.05-.04.03-.04.04-.04.03-.03.02-.02.03.04-.02.02-.03.03-.03.03-.04.04-.04.05-.04.05-.05.06-.06.06-.05.07-.06.07-.06.07-.07.07-.06.08-.07.08-.06.07-.07.08-.07.08-.06.08-.07.07-.06.08-.07.07-.06.07-.05.06-.06.06-.05.06-.05.05-.04.05-.05.04-.03.03-.03.03-.03.02-.03.01zM13 5.22l.04.03-.01.02v.02l-.01.03v.04l.01.03.01.03.01.02.01.03.02.03.02.03.02.02.02.03.02.03.03.02.03.03.03.02.03.02.03.02.04.02.03.02.04.02.03.01.04.01.04.01.03.01.04.01h.07l.04-.01h.03l.04-.01.01.05-.03.01-.04.01h-.13l-.04-.01-.04-.01-.04-.01-.03-.01-.04-.01-.04-.02-.04-.02-.03-.02-.04-.02-.03-.03-.03-.02-.03-.03-.03-.03-.03-.02-.02-.03-.03-.03-.02-.03-.01-.03-.02-.03-.01-.04-.01-.03-.01-.03v-.09l.01-.03.02-.03zm0 0zm2.53-2.54h.06l-.01.01-.1.13-.11.13-.11.12-.1.12-.11.12-.1.11-.11.11-.1.11-.11.11-.1.1-.1.1-.1.09-.09.09-.1.09-.09.09-.09.08-.09.08-.08.08-.09.07-.07.07-.08.07-.07.06-.06.06-.07.05-.05.06-.06.05-.04.04-.05.04-.03.04-.04.03-.02.03-.02.03-.04-.03.02-.03.03-.03.03-.04.04-.03.04-.05.05-.04.05-.05.06-.05.06-.06.07-.06.07-.06.07-.07.08-.07.08-.07.09-.08.08-.08.09-.08.1-.08.09-.09.1-.1.1-.09.1-.1.1-.1.1-.11.1-.1.11-.11.1-.12.11-.11.1-.12.11-.12.11-.13.1-.13-.01.02zm.06 0v.01h-.01l.01-.01zm0-.01v.01h-.06l.04-.03.02.02zm-.02-.02l.01.01.01.01-.02-.02zm-.86-1.25h.05v.11l.01.05v.05l.01.05.01.05.02.05.01.05.01.04.02.05.02.05.02.04.02.05.03.04.02.04.03.04.02.04.03.04.03.04.03.04.04.03.03.04.04.03.03.03.04.03.04.03.04.03.04.02.04.03.04.02.05.02.04.02-.02.05-.05-.02-.04-.02-.05-.03-.04-.02-.04-.03-.04-.03-.04-.03-.04-.03-.04-.03-.03-.04-.04-.03-.03-.04-.04-.04-.03-.04-.03-.04-.03-.04-.02-.04-.03-.05-.02-.04-.03-.05-.02-.04-.02-.05-.01-.05-.02-.05-.01-.05-.02-.05-.01-.05-.01-.05v-.06l-.01-.05V1.4zM16.06 0v.05h-.07l-.07.01-.06.01-.07.01-.06.01-.06.02-.06.02-.06.03-.06.02-.05.03-.06.04-.05.03-.05.04-.05.04-.05.04-.04.05-.04.04-.04.05-.04.05-.04.06-.03.05-.03.06-.03.06-.03.05-.02.07-.02.06-.02.06-.01.07-.02.06v.07l-.01.07v.07h-.05v-.14l.01-.07.01-.07.02-.07.02-.07.02-.06.02-.06.03-.07.03-.06.03-.06.04-.05.04-.06.03-.05.05-.05.04-.05.05-.05.05-.04.05-.04.05-.04.06-.04.05-.03.06-.03.06-.03.06-.02.06-.03.07-.02.06-.01.07-.01.07-.01.07-.01h.07z"/><path fill="#F08BB2" d="M7.98 4.98c.07 0 .16-.3.23-.25.21.16.15.42.23.45.24.11.44.3.57.55.93-.5 2.22-.7 2.78-1.59.36-.7.16-1.02-.59-.73-.36.06-.43-.76 0-.84 1.25-.19 1.74.79 1.22 1.71-.25.41-.53.8-.88 1.1-.02 2.66 1.24 3.28 1.15 3.6-.05.29-1.38.22-1.39-.09-.1-.41.19-.81-.19-1.72-.03-.06-.06-.13-.1-.2-.02 0-.04 0-.07.01-.12.65.09.8.02 1.09-.14.24-.89.34-1.16.2.23 1.03.66 1.07.59 1.3-.05.29-1.06.32-1.31-.09-.08-.33.25-1.29-.13-2.2-.05.01-.04 0-.06.05-.38.9-.27 1.06-.35 1.39-.25.41-1.47.25-1.52-.03-.15-.32 1.15-.49 1.26-1.24-.1.03-.19.04-.3.04-.64 0-1.15-.54-1.15-1.2 0-.47.25-.87.62-1.07.08-.04.02-.49.22-.63.12-.08.21.39.31.39zm2.28 2.1c-.19.03-.39.06-.59.09.02.29.04.55.07.76.13-.17.47-.34.52-.85z"/><path fill="#2B2A29" fill-rule="nonzero" d="M8.23 4.71l-.03.04h-.01v.01h-.01v.01l-.01.01h-.01v.01l-.01.01-.01.02v.01l-.01.01-.01.01-.01.02-.01.01v.01l-.01.01-.01.02-.01.01v.01l-.01.01-.01.01-.01.01-.01.01-.01.01-.01.01H8l-.01.01h-.01V4.95H8v-.01l.01-.01.01-.01v-.01l.01-.01.01-.01.01-.01v-.02l.01-.01.01-.01.01-.01v-.02l.01-.01.01-.01.01-.01v-.02l.01-.01.01-.01.01-.01.01-.01h.01l.01-.01.01-.01h.02l.02.01h.01zm.22.45l-.02.04h-.02l-.01-.01v-.01l-.01-.01v-.01l-.01-.01v-.01l-.01-.01v-.05l-.01-.01v-.03l-.01-.02v-.03l-.01-.01v-.02l-.01-.02-.01-.01v-.02l-.01-.02-.01-.01-.01-.02-.01-.02-.01-.01-.01-.02-.01-.01-.02-.02-.02-.01-.01-.02.03-.04.02.02.02.01.01.02.02.02.01.02.02.01.01.02.01.02.01.02.01.02v.02l.01.02.01.01v.02l.01.02v.03l.01.02v.03l.01.01v.04l.01.01v.02l.01.01v.01h.01zm.54.55l.03.04-.04-.01-.01-.02-.01-.02-.01-.03-.01-.02-.02-.02-.01-.02-.02-.02-.01-.02-.02-.02-.01-.02-.02-.02-.01-.02-.02-.02-.02-.01-.01-.02-.02-.02-.02-.01-.02-.02-.02-.02-.01-.01-.02-.02-.02-.01-.02-.02-.02-.01-.02-.01-.02-.02-.03-.01-.02-.01-.02-.01-.02-.02-.02-.01-.02-.01.02-.04.02.01.02.01.03.01.02.01.02.01.02.02.02.01.03.02.02.01.02.02.02.01.02.02.02.01.02.02.02.02.02.01.01.02.02.02.02.02.02.02.01.02.02.02.02.02.01.02.02.02.01.02.02.02.01.03.01.02.02.02.01.02.01.03-.04-.01zm.03.04L9 5.76l-.02-.02.04.01zm2.75-1.62l.05.02-.06.09-.06.07-.06.08-.07.07-.07.07-.07.06-.08.07-.08.05-.08.06-.09.05-.09.06-.09.05-.09.04-.09.05-.09.04-.1.04-.1.05-.09.04-.1.04-.1.04-.1.03-.1.04-.09.04-.1.04-.1.04-.1.04-.09.04-.1.04-.09.04-.09.04-.09.05-.09.04-.03-.04.09-.05.09-.05.1-.04.09-.04.1-.04.09-.04.1-.04.1-.04.1-.04.09-.04.1-.03.1-.04.1-.04.1-.04.09-.04.1-.04.09-.05.1-.04.09-.04.09-.05.09-.05.08-.05.09-.05.08-.06.08-.06.07-.06.07-.06.07-.07.07-.06.06-.08.06-.07.05-.08zm.05.02zm-.62-.71l-.01-.05.07-.03.06-.02.07-.02.06-.01.05-.01.06-.01.05-.01h.09l.04.01.04.01.04.01.03.01.03.02.03.03.02.02.02.03.02.03.01.04.01.03v.13l-.01.05-.01.05-.01.05-.02.05-.01.06-.03.05-.02.06-.03.07-.03.06-.05-.02.03-.07.03-.06.03-.06.02-.05.02-.06.01-.05.01-.05.01-.04.01-.05v-.07l-.01-.04V3.5l-.01-.03-.01-.02-.02-.03-.02-.02-.02-.01-.02-.02-.03-.01-.03-.01-.03-.01-.04-.01h-.09l-.05.01-.05.01-.05.01-.06.01-.06.02-.07.02-.06.03h-.01zm.01 0h-.01.01zm-.01-.9l.01.05-.04.01-.03.02-.03.01-.03.02-.02.02-.03.03-.02.03-.02.02-.01.04-.02.03-.01.03-.01.04v.04l-.01.04V3.08l.01.03.01.04v.03l.02.04.01.03.01.02.02.03.02.02.02.02.02.02.02.01.02.01.03.01h.05l.01.05h-.07l-.03-.01-.03-.01-.03-.02-.03-.02-.02-.02-.02-.03-.02-.03-.02-.03-.01-.04-.02-.03-.01-.04v-.04l-.01-.04v-.12l.01-.04v-.04l.01-.04.02-.04.01-.03.02-.04.02-.03.02-.04.03-.02.03-.03.03-.02.04-.02.04-.02.04-.01zm0 0h-.01.01zm1.25 1.75l-.05-.02.05-.09.04-.08.03-.09.03-.08.02-.09.01-.08.02-.08v-.24l-.02-.07-.01-.08-.02-.07-.03-.07-.03-.06-.04-.07-.04-.06-.05-.05-.05-.06-.05-.04-.07-.05-.06-.04-.07-.04-.08-.03-.08-.02-.08-.03-.09-.01-.1-.01-.1-.01h-.1l-.11.01-.11.01-.01-.05.11-.01.12-.01H11.64l.09.02.1.01.09.03.08.02.08.04.07.03.07.05.07.05.06.05.05.05.05.06.05.07.03.06.04.07.03.07.02.08.02.08.01.08v.24l-.01.09-.02.09-.02.08-.03.09-.04.09-.04.09-.04.08zm0 0zm-.88 1.09h-.05l.01-.02.03-.03.03-.03.03-.03.03-.03.03-.03.03-.03.03-.03.03-.03.03-.03.03-.03.03-.04.03-.03.02-.03.03-.04.03-.03.03-.04.02-.03.03-.04.03-.03.02-.04.03-.03.02-.04.03-.04.02-.03.03-.04.02-.04.03-.03.02-.04.03-.04.02-.04.03-.04.02-.03.05.02-.03.04-.02.04-.03.04-.02.04-.03.03-.02.04-.03.04-.02.04-.03.03-.02.04-.03.04-.03.03-.02.04-.03.04-.03.03-.02.04-.03.03-.03.04-.03.03-.02.03-.03.04-.03.03-.03.03-.03.03-.03.04-.03.03-.03.03-.03.03-.03.03-.04.03-.03.03-.03.03.01-.02zm-.05 0v-.01l.01-.01-.01.02zm1.19 3.61l-.05-.01v-.06l-.01-.03-.01-.03-.02-.04-.03-.05-.03-.04-.04-.06-.04-.05-.04-.06-.05-.07-.05-.07-.06-.08-.05-.08-.06-.09-.05-.1-.06-.1-.06-.11-.05-.12-.06-.13-.05-.13-.05-.14-.05-.15-.04-.17-.04-.16-.04-.18-.03-.19-.03-.2-.02-.21-.01-.22-.01-.24v-.24h.05v.24l.01.23.01.22.02.21.03.2.03.19.04.17.04.17.04.16.05.15.05.14.05.13.06.13.05.11.06.11.05.11.06.09.05.09.06.08.05.08.05.07.05.07.04.06.04.05.04.06.04.05.02.04.03.04.01.05.01.03.01.04-.01.04zm-.05-.01zm-1.38-.09l.05-.01v.03l.01.02.02.02.02.02.03.02.03.02.04.02.04.02.05.01.05.02.06.01.05.01.06.01.06.01.07.01h.06l.06.01h.13l.06-.01h.05l.06-.01h.05l.05-.01.05-.01.04-.02.04-.01.03-.02.02-.02.02-.01.01-.02.01-.02.05.01-.01.03-.02.03-.02.02-.03.03-.04.01-.04.02-.05.02-.05.01-.05.01-.05.01h-.06l-.06.01h-.19l-.06-.01h-.07l-.06-.01-.06-.01-.07-.01-.05-.01-.06-.01-.05-.02-.05-.01-.05-.02-.04-.02-.04-.02-.04-.03-.02-.03-.02-.03-.02-.03v-.03zm.05-.01v.01-.01zm-.25-1.7l.05-.02.03.08.03.09.03.07.02.08.02.07.02.07.02.07.01.07.01.06v.07l.01.06V8l.01.06v.11l-.01.05v.14l-.01.05v.04l-.01.04v.13l-.01.04v.03l.01.04v.08l.01.03.01.04-.05.01-.01-.04-.01-.04v-.04l-.01-.03v-.13l.01-.04v-.08l.01-.04v-.09l.01-.05v-.36l-.01-.06v-.06l-.01-.06-.01-.07-.02-.06-.02-.07-.02-.08-.02-.07-.03-.08-.02-.08-.04-.08zm-.06-.19l-.01-.05.03.02v.01l.01.01v.01l.01.01v.01l.01.01v.01l.01.01v.02h.01v.02h.01v.02l.01.01v.02h.01v.02h.01v.01l-.05.02v-.01l-.01-.01v-.01l-.01-.01v-.02h-.01V7.1l-.01-.01v-.01l-.01-.01v-.02h-.01v-.02h-.01v-.02H11v-.02h-.01v-.01l.03.01zm-.01-.05h.02l.01.02-.03-.02zm-.04.04l-.05-.01.02-.02h.04l.01-.01h.02l.01.05H11V7h-.05l.02-.02zm-.05-.01v-.02h.02l-.02.02zm.06 1.11l-.04-.03-.01.01.01-.03v-.02l.01-.02V7.87l-.01-.02v-.02l-.01-.03v-.02l-.01-.03v-.03l-.01-.02v-.03l-.01-.03v-.03l-.01-.04v-.03l-.01-.04v-.25l.01-.05v-.05l.01-.06.01-.06.01-.06.05.01-.01.06-.01.06-.01.05v.05l-.01.05V7.46l.01.04v.07l.01.03v.03l.01.03v.03l.01.02v.03l.01.03v.02l.01.03v.02l.01.03V8.02l-.01.03-.01.02v.01zm0-.01v.01-.01zm-1.15.19l-.05.01.03-.03.03.02.03.01.03.01h.03l.03.01.04.01h.08l.04.01h.08l.05-.01h.08l.05-.01.04-.01h.05l.04-.01.04-.01.04-.01.04-.01.04-.02.04-.01.04-.01.03-.02.03-.02.03-.01.02-.02.03-.02.02-.02.01-.02.02-.02.04.03-.01.02-.03.03-.02.02-.02.02-.03.02-.03.02-.04.02-.03.01-.04.02-.04.01-.04.02-.04.01-.05.01-.04.01-.04.01-.05.01h-.04l-.05.01h-.05l-.04.01h-.18l-.04-.01h-.04l-.04-.01h-.03l-.04-.01-.03-.01-.03-.02-.03-.01.04-.03zm-.05.01l-.02-.05.05.02-.03.03zm.63 1.31l-.05-.01.01-.02V9.5l-.01-.02-.01-.02v-.01l-.01-.02-.02-.02-.01-.02-.02-.02-.02-.02-.02-.03-.02-.03-.02-.02-.02-.04-.03-.03-.02-.03-.03-.04-.03-.05-.02-.04-.03-.05-.03-.05-.02-.06-.03-.06-.03-.06-.02-.07-.03-.07-.02-.08-.03-.08-.02-.09-.02-.1.05-.01.02.1.02.08.03.08.02.08.03.07.02.07.03.06.02.06.03.06.03.05.02.04.03.05.02.04.03.04.02.03.03.03.02.03.02.03.02.03.02.02.02.03.02.02.01.02.02.02.01.02.01.02.01.03.01.02v.07l-.01.02zm-.05-.01zm-1.3-.09l.05-.01v-.01l.02.04.03.03.03.03.03.03.04.03.04.02.05.02.04.02.05.02.05.01.05.02.06.01.05.01h.05l.06.01H9.97l.04-.01.05-.01.05-.01.04-.01.04-.01.03-.01.04-.02.03-.01.02-.02.02-.02.02-.02.01-.02v-.02l.05.01-.01.03-.01.03-.02.02-.03.03-.03.02-.03.02-.03.02-.04.01-.05.01-.04.02h-.05l-.05.01-.05.01h-.22L9.7 9.8h-.06l-.05-.01-.06-.01-.05-.02-.05-.01-.05-.02-.05-.02-.05-.03-.04-.02-.05-.03-.04-.03-.03-.03-.03-.04-.03-.04v-.01zm0 .01v-.01.01zm-.13-2.21h.05v-.01l.03.09.03.09.03.08.02.09.02.08.01.09.02.09.01.08v.08l.01.09v.39l-.01.08v.07l-.01.07v.07l-.01.07-.01.07v.06l-.01.06-.01.06v.1l-.01.05v.09l.01.04v.03l.01.03-.05.01-.01-.03v-.04l-.01-.04v-.09l.01-.05v-.11l.01-.06V9l.01-.06.01-.06v-.07l.01-.07.01-.07V8.6l.01-.08V8.13l-.01-.08-.01-.08-.01-.09-.01-.08-.01-.09-.02-.08-.02-.08-.03-.09-.03-.08-.03-.09v-.01zm0 .01v-.01.01zm.05-.01h-.05l.02-.02.03.02zm-.03-.02l.03-.01v.03l-.03-.02zm-.03.08l-.05-.02v-.01h.01v-.03h.01v-.01h.01l.01-.01h.04l.01.05h-.04.01v.01l-.01.01v.01zm-.36 1.39l-.05-.03v.01l.01-.03v-.03l.01-.02V8.6l.01-.03v-.03l.01-.02v-.09l.01-.03v-.03l.01-.03v-.07l.01-.03.01-.04v-.04l.01-.04.01-.05.01-.04.02-.05.01-.05.02-.06.01-.05.02-.06.03-.07.02-.06.03-.07.02-.08.04-.08.03-.08.05.02-.04.08-.03.08-.03.07-.02.07-.03.07-.02.06-.02.06-.01.06-.02.05-.01.05-.02.05-.01.05-.01.04-.01.04v.04l-.01.04v.03l-.01.03v.04l-.01.03v.06l-.01.03v.05l-.01.03v.06l-.01.02v.03l-.01.03-.01.03v.01zm0-.01v.01-.01zM6.99 8.7l.05-.02.01.02.01.02.02.03.02.02.03.02.04.02.04.02.04.02.05.01.05.02.05.01.06.01.06.02h.06l.06.01.06.01h.26l.06-.01.06-.01.06-.01.05-.01.06-.01.05-.02.04-.02.05-.03.04-.02.03-.03.03-.03.02-.04.05.03-.03.04-.03.04-.04.03-.05.03-.04.02-.05.03-.06.01-.05.02-.06.01-.06.02h-.07l-.06.01H7.7l-.07-.01h-.06l-.06-.01-.06-.01-.06-.02-.06-.01-.05-.02-.05-.02-.05-.02-.04-.02-.04-.02-.03-.02-.03-.03-.02-.03L7 8.72l-.01-.03v.01zm.05-.02zm1.25-1.21l-.02-.05.04.03-.02.07-.02.07-.03.07-.03.06-.04.06-.04.05-.05.05-.05.05-.05.05-.06.05-.05.04-.06.04-.06.04-.06.03-.07.04-.06.03-.06.04-.05.03-.06.03-.05.03-.06.02-.04.03-.05.03-.04.03-.03.02-.03.03-.03.02-.01.03-.01.02-.01.02v.02l.01.03-.05.02-.01-.04v-.03l.01-.04.01-.03.02-.03.03-.03.04-.03.03-.03.04-.02.05-.03.05-.03.05-.03.06-.03.05-.03.06-.03.06-.03.06-.04.06-.03.06-.04.06-.03.06-.04.05-.05.06-.04L8 7.9l.04-.05.05-.05.04-.05.03-.06.04-.06.02-.06.02-.06.01-.06.04.02zm-.02-.05l.04-.01v.04l-.04-.03zm-.29.09v-.05H8.11l.01-.01H8.18v-.01h.05l.01-.01h.02l.01-.01.02.05-.01.01h-.03l-.01.01H8.2l-.01.01h-.05l-.01.01h-.15zM6.8 6.29h.05v.06l.01.06v.06l.01.05.02.06.01.06.02.05.02.05.02.06.03.05.03.05.03.04.03.05.03.05.04.04.03.04.04.04.04.03.05.04.04.03.05.03.04.03.05.03.05.02.05.02.06.02.05.02.06.01.05.01.06.01h.11v.05h-.12L7.8 7.5l-.06-.01-.05-.01-.06-.02-.05-.02-.06-.02-.05-.03-.05-.02-.05-.03-.05-.04-.05-.03-.04-.04-.04-.03-.04-.05-.04-.04-.04-.04-.04-.05L7 6.97l-.03-.05-.03-.05-.02-.05-.03-.06-.02-.05-.02-.06-.01-.06-.02-.06-.01-.06v-.06l-.01-.06v-.06zm.64-1.1l.03.05-.04.02-.03.02-.03.02-.04.02-.03.03-.03.02-.03.03-.02.02-.03.03-.03.03-.02.03-.03.03-.02.03-.03.03-.02.03-.02.04L7 5.7l-.02.03-.01.04-.02.04-.02.03-.01.04-.01.04-.01.04-.01.04-.01.04-.01.04-.01.04v.04l-.01.04v.09H6.8V6.2l.01-.05v-.04l.01-.04.01-.04.01-.04.01-.05.01-.04.01-.04.02-.04.01-.03.02-.04.02-.04.02-.04.02-.03L7 5.6l.02-.03.03-.03.02-.04.03-.03.02-.03.03-.03.03-.03.03-.02.03-.03.03-.03.03-.02.04-.02.03-.03.04-.02.03-.02zm.21-.62l.03.05-.01.01-.02.01-.01.02-.01.01-.02.02-.01.02-.01.02v.02l-.01.03-.01.02v.02l-.01.03-.01.02v.05l-.01.03v.04l-.01.03v.04l-.01.03v.04l-.01.01v.04l-.01.01v.02l-.01.01-.01.01-.01.01-.03-.05h.01v-.02l.01-.01v-.03l.01-.01v-.04l.01-.02v-.07l.01-.03v-.05l.01-.02v-.03l.01-.02v-.03l.01-.03.01-.02.01-.02.01-.03.01-.02.01-.02.01-.03.02-.02.01-.01.02-.02.02-.02zm.33.39v.05h-.02L7.95 5l-.02-.01-.01-.01-.01-.01-.01-.02-.01-.01-.01-.02-.01-.01-.01-.02-.01-.02-.01-.02v-.02l-.01-.02-.01-.02-.01-.02-.01-.02-.01-.02-.01-.02-.01-.02-.01-.02-.01-.01-.01-.01-.01-.02-.01-.01-.01-.01h-.02l-.01.01-.03-.05.02-.01h.05l.01.01.02.01.01.01.01.01.01.02.02.01.01.02.01.02.01.01.01.02.01.02.01.02v.03l.01.02.01.02.01.02.01.02.01.01.01.02.01.02.01.01v.02l.01.01.01.01h.01v.01h.01zM9.7 7.17h-.05l.02-.02.02-.01h.05l.02-.01h.04l.02-.01h.03l.02-.01h.06l.02-.01h.03l.02-.01h.04l.02-.01h.05l.02-.01h.04l.02-.01h.03l.02-.01h.02l.01.05-.02.01h-.06l-.02.01h-.03l-.02.01h-.04l-.02.01h-.05l-.02.01h-.04l-.01.01H9.9l-.02.01h-.06l-.01.01h-.04l-.02.01h-.04l-.01.01h-.02l.02-.03zm-.05 0v-.02h.02l-.02.02zm.07.75l.04.03-.04-.01-.01-.02v-.04l-.01-.03v-.06l-.01-.02V7.7l-.01-.02v-.07l-.01-.03V7.49l-.01-.03v-.13l-.01-.02v-.14h.05v.11l.01.03V7.43l.01.03v.1l.01.02V7.67l.01.02v.07l.01.02v.05l.01.02v.06l.01.02-.05-.01zm.04.03L9.72 8v-.06l.04.01zm.51-.85l-.01-.05.03.03-.01.05-.01.04v.05l-.02.04-.01.04-.01.04-.01.04-.02.03-.02.04-.01.03-.02.03-.02.03-.02.03-.02.03-.02.02-.02.03-.02.02-.02.03-.02.02-.02.02-.02.02-.02.02-.02.02-.02.02-.02.02-.02.01-.02.02-.01.02-.02.01-.01.02-.02.01-.01.02-.04-.03.01-.02.02-.02.01-.01.02-.02.02-.02.02-.01.01-.02.02-.02.02-.02.02-.02.02-.02.02-.02.02-.02.02-.02.02-.02.02-.02.02-.03.02-.02.02-.03.02-.03.01-.02.02-.03.02-.04.01-.03.02-.03.01-.04.01-.03.01-.04.02-.04v-.05l.01-.04.01-.05.03.03zm-.01-.05h.03v.03l-.03-.03z"/></svg>