<svg xmlns="http://www.w3.org/2000/svg" width="124" height="68" fill-rule="evenodd" clip-rule="evenodd" image-rendering="optimizeQuality" shape-rendering="geometricPrecision" text-rendering="geometricPrecision" viewBox="0 0 17.94 9.81"><defs><style>.fil2{fill:#f5b2b6}.fil0{fill:#f08bb2}.fil4{fill:#99cfba}.fil1,.fil5{fill:#2b2a29;fill-rule:nonzero}</style></defs><g id="Слой_x0020_1"><path d="M13.11 9.68c-.38.15-.65.1-.98-.05-.73-.39-1.45-.77-2.18-1.15-.23-.11-.11-.97-.02-1.23 2.17-.06 4.34-.12 6.51-.19-.01.32.08.13.07.45-.1.14.11.65-.42.88-.76.41-1.98.88-2.98 1.29z" class="fil0"/><path id="1" d="M12.15 9.59l.03.01.03.02.03.01.03.01.03.01.03.01.02.01.03.01.03.01.03.01h.03l.02.01h.03l.03.01h.08l.03.01h.03l.03-.01h.09l.03-.01h.03l.03-.01.03-.01.03-.01.03-.01.04-.01.03-.01.04-.01.03.08-.04.01-.03.01-.04.01-.03.02h-.04l-.03.01-.03.01-.04.01h-.03l-.03.01h-.22l-.03-.01h-.03l-.03-.01h-.03l-.03-.01-.03-.01-.03-.01-.03-.01-.03-.01-.03-.01-.03-.01-.03-.01-.03-.01-.04-.02-.03-.01.04-.08zm-.04.08zM9.96 8.44h.01l.07.03.06.04.07.04.07.03.07.04.07.03.06.04.07.04.07.03.07.04.07.03.07.04.06.04.07.03.07.04.07.03.07.04.07.04.06.03.07.04.07.03.07.04.07.04.07.03.06.04.07.03.07.04.07.04.07.03.06.04.07.03.07.04-.04.08-.07-.04-.07-.03-.06-.04-.07-.04-.07-.03-.07-.04-.07-.03-.07-.04-.06-.04-.07-.03-.07-.04-.07-.03-.07-.04-.06-.04-.07-.03-.07-.04-.07-.04-.07-.03-.07-.04-.06-.03-.07-.04-.07-.04-.07-.03-.07-.04-.07-.03-.06-.04-.07-.04-.07-.03-.07-.04-.07-.03-.06-.04-.07-.04v.01l.03-.08zm0 0h.01-.01zM9.93 7.3l.04-.03-.01.02-.01.03v.03l-.01.04-.01.03-.01.04-.01.04v.05l-.01.04-.01.05v.04l-.01.05-.01.05v.1l-.01.05V8.15l.01.04v.04l.01.04.01.03v.03l.01.03.02.02.01.02.01.02.01.01.01.01-.03.08-.03-.02-.02-.02-.02-.03-.02-.02-.01-.04-.02-.03-.01-.04-.01-.03v-.04l-.01-.05v-.09l-.01-.04v-.05l.01-.05V7.82l.01-.05v-.05l.01-.05.01-.05v-.04l.01-.05.01-.04.01-.05V7.4l.01-.03.01-.04.01-.03.01-.03.01-.03.04-.03v.09zm-.04-.06l.01-.03h.03l-.04.03zm6.51-.18l.04.04-.2.01-.2.01h-.21l-.2.01h-.2l-.21.01-.2.01h-.21l-.2.01h-.2l-.21.01-.2.01h-.2l-.21.01h-.2l-.2.01-.21.01h-.2l-.2.01h-.21l-.2.01-.21.01h-.2l-.2.01h-.21l-.2.01-.2.01h-.21l-.2.01h-.2l-.21.01-.2.01v-.09l.2-.01h.2l.21-.01h.2l.2-.01.21-.01h.2l.21-.01h.2l.2-.01.21-.01h.2l.2-.01h.21l.2-.01.2-.01h.21l.2-.01h.2l.21-.01.2-.01h.2l.21-.01h.2l.21-.01.2-.01h.2l.21-.01h.2l.2-.01.21-.01h.2l.04.04h-.08zm.04-.04h.05l-.01.04-.04-.04zm.03.46v.03-.1l-.01-.02v-.05l-.01-.01v-.01l-.01-.01V7.3l-.01-.01-.01-.01v-.01l-.01-.01v-.03l-.01-.02V7.06h.08v.1l.01.01v.05l.01.01v.02h.01v.01l.01.01v.01l.01.01v.01l.01.01v.03l.01.01v.18l-.08-.05zm.08.03v.02-.02zm-.49.84h.01l.04-.02.04-.02.04-.03.03-.02.03-.03.03-.02.03-.03.02-.03.01-.03.02-.03.01-.03.02-.03.01-.03v-.03l.01-.03.01-.03v-.03l.01-.03V7.65l.01-.03v-.05l.01-.02v-.03l.01-.02.01-.02.08.05-.01.01v.01l-.01.02v.03l-.01.03v.16l-.01.03v.07l-.01.03v.04l-.01.03-.01.04-.01.03-.02.04-.01.03-.02.04-.02.03-.03.03-.03.03-.03.04-.03.03-.04.02-.04.03-.05.03-.05.02h.01l-.05-.08zm0 0h.01-.01zM13.1 9.64l.09-.04.1-.04.09-.04.1-.04.1-.04.1-.04.1-.04.1-.04.1-.04.1-.04.1-.04.1-.04.1-.04.1-.04.1-.04.09-.05.1-.04.1-.04.09-.04.1-.04.09-.04.09-.04.1-.04.08-.04.09-.04.09-.04.08-.04.08-.04.08-.04.08-.04.07-.04.07-.04.05.08-.08.04-.07.04-.08.04-.08.04-.08.04-.09.04-.08.04-.09.04-.09.04-.09.04-.09.04-.1.04-.09.04-.1.04-.09.04-.1.04-.1.05-.1.04-.1.04-.1.04-.1.04-.1.04-.1.04-.1.04-.1.04-.1.04-.1.04-.1.04-.1.04-.09.04-.1.04-.09.04-.03-.08zm.03.08h-.01.01z" class="fil1"/><path d="M9.77 7.62c-.81-1.55-.28-3.41 1.96-3.07.5.01.76-.47.5-1.11-1-2.92.49-3.49 2.72-3.38 4.96.23 2.31 2.67-.81 5.25-1.45.77-2.91 1.54-4.37 2.31z" class="fil2"/><path id="1" d="M11.73 4.59h-.01l-.2-.03-.19-.01h-.18l-.18.01-.16.02-.15.03-.14.05-.14.05-.12.06-.12.06-.1.08-.1.08-.08.09-.08.1-.07.1-.06.11-.06.12-.04.12-.04.12-.02.13-.02.14-.01.13v.14l.01.14.01.15.02.14.03.15.04.15.05.14.06.15.06.15.07.14-.07.04-.08-.15-.06-.15-.06-.15-.05-.15-.04-.15-.03-.15-.03-.15-.01-.15-.01-.15v-.14l.01-.14.02-.14.03-.14.04-.13.04-.12.06-.13.06-.11.08-.11.08-.1.09-.1.1-.09.12-.08.12-.07.13-.06.14-.06.15-.04.16-.03.16-.03.18-.01h.19l.2.02.21.02h-.01v.09zm0 0h-.01.01zm.54-1.16l.02.06.02.06.02.06.01.05.02.06v.06l.01.05V4.04l-.01.04-.01.05-.01.04-.02.05-.02.04-.02.04-.02.03-.02.04-.03.03-.03.03-.03.03-.04.02-.03.03-.04.02-.04.01-.04.02-.04.01-.05.01-.05.01h-.09V4.5h.09l.04-.01h.04l.03-.01.04-.02.03-.01.03-.02.03-.02.03-.02.03-.02.02-.03.03-.02.02-.03.02-.04.02-.03.01-.03.01-.04.02-.04v-.04l.01-.04.01-.05v-.09l-.01-.05v-.05l-.01-.05-.01-.06-.01-.05-.02-.05-.02-.06-.02-.06.08-.03zm-.08.03zM14.95.1l-.21-.01H14.15l-.18.01-.18.02-.17.02-.17.03-.16.04-.15.04-.14.04-.14.06-.12.06-.12.07-.11.08-.1.08-.09.1-.08.1-.08.11-.06.13-.05.13-.04.14-.03.16-.02.16-.01.18.01.18.02.2.03.22.04.22.06.24.07.25.09.27-.08.03-.09-.27-.07-.26-.06-.24-.05-.23-.03-.21-.02-.21v-.38l.02-.17.04-.16.04-.15.05-.14.07-.13.08-.12.08-.11.1-.1.11-.09.11-.08.13-.08.13-.06.14-.06.15-.05.15-.04.17-.03.16-.03.18-.03.18-.01.19-.01.19-.01h.4l.21.01V.1zm0 0zm-.83 5.18l.29-.24.28-.24.28-.24.28-.24.26-.23.26-.23.25-.23.23-.22.22-.23.21-.21.19-.21.17-.21.16-.2.13-.19.12-.19.09-.18.06-.18.05-.16.01-.16-.01-.14-.03-.14-.07-.13-.09-.12-.13-.11-.16-.11-.2-.09-.24-.09-.27-.08-.32-.06-.35-.05-.4-.04-.44-.03V.01l.44.03.41.04.36.05.32.07.28.08.24.09.21.1.17.11.14.12.1.14.08.14.04.15.01.17-.02.17-.04.17-.07.18-.1.19-.12.19-.13.2-.16.2-.18.21-.19.22-.21.22-.22.22-.23.22-.25.23-.26.23-.27.24-.27.24-.28.24-.29.24-.29.24h-.01l-.04-.07zm.05.07h-.01.01zM9.81 7.6l-.06-.02.14-.07.14-.07.13-.07.14-.08.14-.07.13-.07.14-.07.14-.08.13-.07.14-.07.14-.07.13-.07.14-.08.14-.07.13-.07.14-.07.13-.07.14-.08.14-.07.13-.07.14-.07.14-.07.13-.08.14-.07.14-.07.13-.07.14-.07.14-.08.13-.07.14-.07.14-.07.13-.07.04.07-.13.07-.14.08-.14.07-.13.07-.14.07-.14.07-.13.08-.14.07-.14.07-.13.07-.14.08-.14.07-.13.07-.14.07-.13.07-.14.08-.14.07-.13.07-.14.07-.14.07-.13.08-.14.07-.14.07-.13.07-.14.07-.14.08-.13.07-.14.07-.14.07-.13.07-.14.08-.14.07-.05-.02.07-.04zm-.02.06l-.03.02-.02-.04.05.02z" class="fil1"/><path d="M12.48 9.07c-1.59-.61-2.7-1.03-2.81-1.67-.16-.91 1.54-1.78 3.03-2.05.51.01.47-4.43 1.7-4.98.88-.58 3.52.01 3.24.58.62.5-1.96 1.08-1.81 2.91.17 2.1-.15 2.39-.55 2.65-1.45.77-2.5 2.7-2.8 2.56z" class="fil0"/><path id="1" d="M9.71 7.4l.02.05.01.05.03.06.02.05.04.05.04.05.04.05.05.06.06.05.06.05.06.04.07.05.08.05.08.05.08.05.09.05.09.05.1.05.1.05.11.04.11.05.11.05.12.05.12.05.12.05.13.06.13.05.14.05.14.05.14.06.14.05.15.06-.03.08-.15-.06-.14-.05-.14-.06-.14-.05-.14-.05-.13-.05-.13-.06-.12-.05-.13-.05-.11-.05-.12-.05-.11-.05-.11-.05-.1-.05-.1-.04-.09-.05-.09-.05-.09-.05-.08-.05-.08-.05-.07-.06-.07-.05-.06-.05-.06-.05-.05-.06-.05-.05-.04-.06-.04-.06-.03-.05-.03-.06-.02-.07-.01-.06.08-.01zm2.99-2.01h.01l-.14.03-.14.03-.14.03-.14.04-.14.04-.14.04-.14.05-.14.05-.13.05-.14.05-.13.06-.13.06-.12.06-.12.06-.12.06-.11.07-.11.07-.1.07-.1.07-.09.08-.08.07-.08.08-.07.07-.06.08-.05.08-.05.08-.04.08-.02.08-.02.08-.01.08-.01.08.01.08-.08.01-.01-.09v-.09l.01-.09.02-.09.03-.09.05-.08.05-.09.05-.08.07-.08.07-.08.08-.08.09-.08.09-.08.1-.07.1-.07.11-.07.12-.07.12-.07.12-.06.13-.06.13-.06.13-.06.13-.05.14-.06.14-.05.14-.04.14-.05.15-.04.14-.03.14-.04.14-.03.15-.03h.01l-.01.09zm0-.09h.01-.01zM14.42.41l-.11.06-.1.08-.09.1-.09.12-.08.14-.08.15-.08.16-.06.18-.07.19-.06.2-.05.2-.05.21-.05.22-.05.22-.04.22-.04.22-.04.22-.03.21-.04.22-.03.2-.03.2-.04.19-.03.18-.03.16-.03.15-.04.14-.03.12-.04.11-.04.08-.05.07-.05.04-.07.02.01-.09h.02l.03-.03.03-.05.04-.08.04-.09.03-.12.03-.14.04-.15.03-.16.03-.18.03-.18.03-.2.04-.21.03-.21.04-.22.04-.22.04-.22.04-.22.04-.22.05-.22.05-.21.06-.21.06-.2.06-.19.07-.18.08-.17.08-.16.09-.14.09-.12.1-.11.11-.09.12-.07-.01.01.05.07zm0 0zm3.19.57L17.6.93l.01-.04V.85L17.6.8l-.02-.04-.04-.05-.05-.04-.06-.05-.08-.05-.08-.04-.1-.04-.1-.05-.11-.04-.12-.03-.13-.04-.13-.03-.13-.03-.14-.02-.14-.03-.15-.01-.14-.02-.14-.01H15.32l-.14.01-.13.01-.12.02-.12.03-.11.03-.1.04-.09.04-.09.05-.05-.07.1-.06.1-.04.11-.04.11-.03.12-.03.13-.02.14-.02.13-.01H15.6l.14.01.15.01.14.01.15.02.14.02.14.03.14.03.13.03.13.03.12.04.12.04.11.05.1.04.09.05.08.05.07.05.06.06.04.05.03.06.02.07V.9l-.02.07-.02-.06-.05.07zm0 0l-.03-.02.02-.03.01.05zm-1.82 2.88l-.01-.17.01-.16.02-.16.04-.15.05-.15.06-.13.07-.14.07-.12.09-.12.09-.11.09-.11.1-.1.1-.1.11-.09.1-.09.11-.09.1-.08.1-.07.09-.08.09-.07.09-.06.08-.07.07-.06.06-.05.05-.06.03-.05.03-.04.01-.04V1.1l-.01-.04-.03-.04-.04-.04.05-.07.06.06.04.05.02.07v.06l-.02.06-.03.06-.05.06-.05.06-.07.06-.07.06-.08.07-.08.06-.09.07-.1.07-.1.08-.1.08-.1.08-.11.09-.1.09-.1.1-.09.1-.1.1-.08.11-.09.12-.07.12-.06.12-.06.14-.05.13-.03.15-.02.15-.01.15v.17h-.08zm-.53 2.61l.04-.02.03-.03.04-.02.03-.03.03-.03.04-.02.03-.03.03-.04.03-.03.02-.04.03-.04.03-.05.02-.05.02-.05.03-.06.02-.07.02-.07.01-.07.02-.09.01-.08.01-.1.01-.1.01-.11.01-.12v-.55l-.01-.16-.01-.17-.01-.18-.01-.2h.08l.02.19.01.18.01.17v.16l.01.16V5l-.01.12v.12l-.01.12-.01.1-.01.1-.02.09-.01.08-.02.08-.02.08-.02.06-.03.07-.02.06-.03.05-.02.05-.03.05-.04.04-.03.04-.03.04-.03.03-.04.03-.03.03-.04.03-.04.02-.03.03-.04.02v.01l-.05-.08zm.05.07v.01-.01zm-2.82 2.49h.04l.03-.01.04-.02.05-.04.05-.04.05-.05.06-.06.06-.07.07-.08.07-.08.07-.09.08-.09.08-.09.09-.11.09-.1.09-.11.09-.11.1-.11.11-.11.1-.11.11-.11.11-.11.12-.11.11-.11.12-.1.13-.1.12-.1.13-.09.13-.09.14-.09.13-.07.05.08-.14.07-.13.08-.13.09-.13.09-.12.09-.12.1-.12.11-.12.1-.11.11-.11.11-.11.11-.1.11-.1.11-.1.11-.1.11-.09.11-.09.1-.08.1-.08.1-.08.09-.08.09-.07.08-.07.08-.06.07-.06.06-.06.05-.05.05-.05.04-.05.03-.05.01-.04.01-.05-.01.03-.08zm0 0z" class="fil1"/><path d="M9.97 6.63c-.02-.01-.03-.04-.02-.06.01-.02.04-.03.06-.02l-.04.08zm2.83 1.45L9.97 6.63l.04-.08L12.84 8l-.04.08zm.04-.08c.02.01.02.04.01.06-.01.02-.03.03-.05.02l.04-.08zM10.67 6.1c-.02-.01-.03-.04-.02-.06.01-.02.04-.03.06-.02l-.04.08zm3.23 1.54L10.67 6.1l.04-.08 3.23 1.55-.04.07zm.04-.07c.02.01.03.03.02.05-.01.03-.04.03-.06.02l.04-.07zM11.5 5.7c-.02-.01-.03-.04-.02-.06.01-.02.04-.03.06-.02l-.04.08zm3.19 1.45L11.5 5.7l.04-.08 3.19 1.45-.04.08zm.04-.08c.02.01.03.04.02.06-.01.02-.03.03-.06.02l.04-.08zM12.51 5.41c-.02-.01-.03-.04-.02-.06.01-.02.03-.03.05-.02l-.03.08zM15.6 6.7l-3.09-1.29.03-.08 3.09 1.29-.03.08zm.03-.08c.02.01.03.04.02.06-.01.02-.03.03-.05.02l.03-.08zM12.96 4.87c-.02-.01-.03-.04-.02-.06.01-.02.03-.03.05-.03l-.03.09zm3.1 1.15l-3.1-1.15.03-.09 3.1 1.16-.03.08zm.03-.08c.02.01.03.03.02.05-.01.02-.03.04-.05.03l.03-.08zM13.09 4.16c-.02-.01-.03-.03-.03-.06.01-.02.03-.03.06-.03l-.03.09zm3.1.83l-3.1-.83.03-.09 3.09.84-.02.08zm.02-.08c.02.01.04.03.03.05 0 .03-.03.04-.05.03l.02-.08zM13.22 3.43c-.02-.01-.04-.03-.03-.06 0-.02.02-.03.05-.03l-.02.09zm3.28.65l-3.28-.65.02-.09 3.28.65-.02.09zm.02-.09c.02.01.04.03.03.06 0 .02-.02.03-.05.03l.02-.09zM13.35 2.66c-.02-.01-.03-.03-.03-.05.01-.03.03-.04.05-.04l-.02.09zm3.21.64l-3.21-.64.02-.09 3.2.65-.01.08zm.01-.08c.03 0 .04.03.04.05-.01.02-.03.04-.05.03l.01-.08zM13.53 1.78c-.02 0-.03-.03-.03-.05 0-.02.03-.04.05-.03l-.02.08zm3.2.64l-3.2-.64.02-.08 3.2.63-.02.09zm.02-.09c.02.01.03.03.03.05 0 .03-.03.04-.05.04l.02-.09zM13.88.95c-.02-.01-.04-.03-.03-.05 0-.03.02-.04.05-.04l-.02.09zm3.23.46L13.88.95l.02-.09 3.22.46-.01.09zm.01-.09c.02.01.04.03.04.05-.01.03-.03.04-.05.04l.01-.09z" class="fil1"/><path d="M11.98 6.51c-.03.01-.05 0-.06-.03-.01-.02 0-.04.02-.05l.04.08zM17.6.81l-.03.08-.1-.02h-.11l-.11.03-.12.05-.12.08-.13.11-.13.13-.14.14-.15.17-.15.18-.15.2-.16.21-.16.22-.16.23-.17.24-.18.25-.18.25-.18.26-.19.25-.19.26-.19.25-.2.25-.2.24-.21.23-.21.23-.22.21-.22.21-.22.18-.23.18-.24.15-.23.13-.24.12-.04-.08.24-.11.23-.13.23-.15.22-.17.22-.19.22-.2.21-.21.21-.22.21-.24.2-.24.2-.25.19-.25.19-.25.19-.26.18-.25.18-.25.17-.25.17-.24.17-.23.16-.22.16-.21.15-.2.16-.19.14-.17.14-.15.14-.13.14-.11.13-.08.13-.06.13-.04h.13l.12.03zm0 0c.02.01.03.04.02.06 0 .02-.03.03-.05.02l.03-.08z" class="fil1"/><path d="M10.66 8.3c-.01.03-.03.04-.05.04-.03 0-.04-.03-.04-.05l.09.01zm1.28-1.87l.04.08-.07.03-.07.03-.07.03-.06.04-.06.04-.06.04-.06.04-.05.04-.06.04-.05.05-.05.05-.05.05-.05.05-.04.05-.04.05-.05.06-.04.05-.03.06-.04.06-.04.07-.03.06-.03.06-.03.07-.03.07-.02.07-.03.07-.02.07-.02.08-.02.08-.02.07-.02.08-.01.08-.09-.01.02-.08.01-.08.02-.08.02-.08.02-.08.03-.08.02-.07.03-.07.03-.07.03-.07.03-.07.04-.07.03-.06.04-.06.04-.06.04-.06.05-.06.04-.06.05-.05.05-.05.05-.06.05-.04.06-.05.05-.05.06-.04.06-.05.06-.04.07-.03.06-.04.07-.04.07-.03.07-.03zm0 0l.01-.01-.01.01zM14.86.15l.02.08-.08.04-.08.05-.07.09-.07.1-.06.13-.05.15-.05.17-.05.18-.05.2-.04.21-.04.23-.04.24-.04.24-.05.25-.04.26-.05.26-.05.27-.06.26-.07.27-.07.26-.08.26-.09.26-.1.24-.12.24-.12.23-.14.22-.15.2-.16.19-.18.17-.2.16-.22.13-.23.12-.04-.08.23-.11.21-.13.19-.15.18-.17.16-.18.14-.2.14-.21.12-.23.11-.23.1-.24.08-.25.08-.26.08-.26.06-.26.06-.27.05-.26.05-.26.05-.26.04-.25.04-.25.05-.24.04-.22.04-.22.04-.2.05-.19.06-.17.05-.15.07-.14.07-.12.08-.09.1-.07.1-.04zm0 0c.03-.01.05.01.05.03.01.02 0 .05-.03.05l-.02-.08z" class="fil1"/><path fill="#c5e3d7" d="M13.67 5.33l-.56-.25c-.03-.02-.07.02-.1.06l-.29.36c-.03.04 0 .1.03.12l.44.23c.04.02.19.02.23-.02l.28-.38c.03-.05.01-.1-.03-.12z"/><path id="1" d="M13.1 5.12l.03-.08.56.25-.04.08-.55-.25zm-.13-.01h.01V5.1h.01v-.01H13v-.01h.01v-.01h.01v-.01h.01v-.01h.02v-.01h.02l.01-.01h.03l.01.01h.01l-.03.08h-.01.01-.01l-.01.01h-.01v.01h-.01v.01h-.01v.01l-.01.01-.07-.06zm-.21.42l-.07-.06.28-.36.07.06-.28.36zm-.03.12h-.01v-.01h-.01l-.01-.01v-.01h-.01v-.01l-.01-.01v-.01h-.01v-.08l.01-.01v-.01l.01-.01v-.01l.07.06h-.01v.02h.01v.02h.01v.01l-.04.07zm.49.17l-.05.07-.44-.24.04-.07.45.24zm.23.04l-.01.01-.01.01h-.01l-.01.01h-.02v.01h-.03l-.01.01H13.22l-.01-.01h-.03l-.01-.01.05-.07h-.01H13.35l.01-.01h.02V5.8v.01l.07.05zm.21-.44l.07.05-.28.39-.07-.05.28-.39zm.03-.13l.01.01h.01l.01.01v.01h.01v.01h.01v.01l.01.01v.02l.01.01v.05h-.01v.02l-.01.01v.01h-.01l-.07-.05h.01v-.04h-.01v-.01h-.01l.04-.08z" class="fil1"/><path d="M12.48 9.07c-.25-1.46.31-3.95 2.54-3.62.51.02.76-.46.5-1.1-1-2.92.86-3.47 2.24-3.4.63.51-1.19 2.39-1.05 4.22.17 2.1-.15 2.4-.54 2.65-1.46.77-3.39 1.39-3.69 1.25z" class="fil2"/><path id="1" d="M15.02 5.5l-.2-.03h-.38l-.17.03-.16.03-.16.05-.14.06-.14.07-.13.08-.12.09-.11.1-.11.11-.09.12-.09.13-.09.13-.07.14-.07.14-.06.15-.05.15-.05.16-.04.15-.04.16-.03.17-.02.16-.02.16-.01.16V8.63l.01.15.02.14.02.14-.09.02-.02-.14-.01-.15-.01-.15-.01-.16v-.16l.01-.16.01-.16.01-.16.03-.17.03-.16.03-.17.04-.16.05-.16.06-.15.06-.15.07-.15.08-.14.08-.14.1-.13.1-.12.11-.12.12-.1.12-.1.14-.09.14-.07.15-.06.16-.05.18-.04.17-.02.19-.01.2.01.21.02-.01.09zm0 0zm.54-1.16l.03.06.02.06.01.06.02.05.01.06.01.06.01.05v.16l-.01.05v.04l-.01.05-.02.04-.01.05-.02.04-.02.04-.02.03-.03.04-.03.03-.03.03-.03.03-.03.02-.04.03-.03.02-.04.01-.05.02-.04.01-.04.01h-.05l-.05.01h-.05l.01-.09h.08l.04-.01h.04l.04-.01.03-.02.04-.01.03-.02.03-.02.03-.02.03-.02.02-.03.02-.03.02-.03.02-.03.02-.03.02-.04.01-.03.01-.04.01-.04.01-.05v-.18l-.01-.05v-.05l-.02-.06-.01-.05-.02-.06-.02-.05-.02-.06.08-.03zm-.08.03zM17.74.99h.02-.39l-.14.01-.13.01-.13.02-.14.02-.13.03-.13.04-.12.04-.13.05-.12.05-.11.07-.11.07-.1.07-.1.09-.09.09-.08.11-.08.11-.06.12-.06.13-.05.15-.03.15-.03.16-.01.18-.01.19.01.2.03.21.04.22.05.24.07.25.08.27-.08.03-.08-.27-.07-.26-.06-.24-.04-.23-.02-.22-.01-.2v-.2l.01-.18.03-.17.04-.16.05-.15.06-.14.07-.12.08-.12.09-.11.09-.1.1-.09.11-.09.12-.07.12-.06.12-.06.13-.05.13-.04.13-.04.14-.03.13-.03.14-.01.14-.02h.13L17.5.9h.13l.14.01.02.01-.05.07zm.03-.08h.01l.01.01-.02-.01zm-1.1 4.27L16.66 5v-.17l.02-.18.02-.17.03-.17.04-.17.04-.17.05-.17.06-.17.06-.16.06-.16.07-.16.06-.16.07-.15.07-.15.07-.14.07-.14.06-.14.06-.13.06-.13.05-.12.05-.12.04-.11.03-.11.03-.09.01-.09.01-.09v-.07l-.01-.07-.03-.06-.03-.05-.04-.04.05-.07.06.06.04.06.03.08.01.08.01.09-.01.09-.02.1-.03.1-.03.11-.04.11-.05.12-.05.12-.06.13-.06.14-.07.13-.06.14-.07.15-.07.15-.07.15-.06.15-.07.16-.06.16-.06.16-.06.17-.04.16-.05.17-.04.17-.03.16-.02.17-.01.17V5l.01.17-.09.01zm-.52 2.6h-.01l.04-.02.04-.02.03-.03.04-.02.03-.03.03-.03.03-.03.03-.03.03-.04.03-.04.02-.04.03-.05.02-.05.03-.05.02-.06.02-.06.02-.07.02-.08.01-.08.02-.09.01-.1.01-.1v-.11l.01-.12v-.12l.01-.13-.01-.15v-.15l-.01-.16v-.17l-.02-.18-.01-.19.09-.01.01.19.01.18.01.18.01.16v.56l-.01.12-.01.11-.01.1-.01.1-.01.09-.02.09-.02.08-.02.07-.02.07-.02.06-.03.06-.02.05-.03.05-.03.05-.03.04-.03.04-.04.04-.03.03-.04.03-.03.03-.04.03-.03.03-.04.02-.04.03-.04-.08zm.04.08zm-3.67 1.2l-.03-.03.03.01h.04l.04.01.06-.01h.07l.07-.01.08-.01.09-.02.09-.02.1-.03.11-.02.11-.03.12-.04.12-.03.13-.04.13-.05.13-.04.14-.05.13-.05.15-.05.14-.05.14-.06.15-.06.14-.06.15-.06.15-.07.14-.06.15-.07.14-.07.14-.07.14-.07.14-.07.04.08-.14.07-.14.07-.14.07-.15.07-.14.07-.15.06-.15.07-.14.06-.15.06-.15.06-.14.06-.14.05-.15.05-.13.05-.14.05-.14.05-.13.04-.12.04-.13.04-.11.03-.12.03-.1.03-.11.02-.09.02-.09.02-.09.02-.08.01h-.18l-.05-.01-.04-.01-.03-.03.09-.02zm-.06.05l-.02-.01-.01-.02.03.03z" class="fil1"/><g><path d="M13.45 8.07l1.03-.34c.04-.02.07.01.07.06l-.02.21c-.01.05-.05.1-.09.11l-1.03.34c-.04.02-.07-.01-.07-.06l.02-.2c.01-.05.05-.11.09-.12z" class="fil4"/><path id="1" d="M14.49 7.77l-1.02.34-.03-.08 1.02-.34.03.08zm.1.03l-.09-.01v-.02h-.01l-.03-.08h.01l.01-.01h.04v.01h.02l.01.01h.01v.01h.01v.01l.01.01v.01l.01.01v.05zm-.11.19l.02-.2.09.01-.02.2-.09-.01zm-.03.17l-.03-.09h.02v-.01h.01v-.01h.01v-.01h.01v-.02h.01v-.03l.09.01v.02l-.01.01v.02l-.01.01v.01l-.01.01v.01h-.01v.01l-.01.01-.01.01h-.01v.01h-.01v.01h-.01l-.01.01h-.01l-.01.01zm-1.05.25l1.02-.34.03.09-1.02.34-.03-.09zm-.1-.02l.08.01v.01h.01v.01-.01.01-.01h.01l.03.09h-.07l-.01-.01h-.01l-.01-.01h-.01v-.01l-.01-.01v-.01l-.01-.01v-.05zm.11-.2l-.03.21-.08-.01.02-.21.09.01zm.03-.16l.03.08h-.01v.01h-.02v.01h-.01v.01h-.01v.02h-.01v.03l-.09-.01v-.02l.01-.01v-.02l.01-.01v-.01l.01-.01v-.01h.01v-.01h.01v-.01h.01v-.01h.01v-.01h.01l.01-.01h.01l.01-.01h.01z" class="fil1"/></g><g><path d="M15.24 7.34l.95-.35c.04-.01.07.01.06.06l-.01.19c0 .05-.04.1-.08.11l-.95.35c-.04.02-.07-.01-.07-.05l.02-.2c0-.05.04-.1.08-.11z" class="fil4"/><path id="1" d="M16.2 7.03l-.95.35-.03-.08.95-.35.03.08zm.1.02h-.09v-.02h-.01l-.03-.08h.07l.01.01h.01l.01.01.01.01v.01h.01v.02l.01.01v.03zm-.1.19l.01-.19h.09l-.02.2-.08-.01zm-.03.16l-.03-.09h.02V7.3h.01v-.01h.01v-.01l.01-.01v-.02h.01v-.01l.08.01v.03l-.01.01v.02h-.01v.02h-.01v.01h-.01v.01l-.01.01h-.01v.01h-.01v.01h-.01v.01h-.02l-.01.01zm-.98.26l.95-.35.03.09-.95.34-.03-.08zm-.09-.02l.08.01v.01h.01-.01.01l.03.08-.01.01h-.05v-.01h-.02v-.01h-.01l-.01-.01-.01-.01V7.7h-.01V7.64zm.1-.19l-.02.2-.08-.01.01-.19h.09zm.02-.15l.03.08h-.01v.01h-.01v.01h-.01v.01h-.01v.02h-.01v.02h-.09v-.02l.01-.01V7.4l.01-.01v-.01l.01-.01v-.01h.01v-.01l.01-.01h.01v-.01h.01v-.01h.01v-.01h.01l.01-.01h.01z" class="fil1"/></g><g><path d="M4.67 3.21c-.13.57-.7 1.45-3.62 2.48-.73.06-1.11-.67-.95-1.35.27-.93 1.05-1.23 1.52-1.26.89-.07 1.42-.86.59-.85-.63.3-1.15.01-.87-.54C2.5.7 4.48 1.23 4.67 3.21z" class="fil4"/><path id="1" d="M1.05 5.75l-.01-.13h-.01l.26-.09.26-.1.24-.09.22-.09.22-.09.2-.09.19-.09.18-.09.17-.09.16-.09.14-.08.14-.08.13-.09.12-.08.1-.08.11-.07.09-.08.08-.08.08-.07.07-.07.06-.07.06-.07.05-.07.05-.06.03-.07.04-.06.03-.06.03-.06.02-.06.02-.05.01-.05.01-.06.13.03-.01.06-.02.06-.02.06-.02.06-.03.07-.04.06-.03.07-.05.07-.04.07-.06.07-.06.07-.07.08-.07.07-.08.08-.09.08-.09.08-.11.08-.11.08-.12.08-.13.09-.14.08-.15.09-.16.09-.17.08-.18.09-.2.09-.2.1-.22.09-.23.09-.24.1-.25.09-.27.1h-.02zm.02 0h-.02.02zM.04 4.32l.12.04-.01.06-.01.06-.01.06v.18l.01.06v.06l.01.06.02.05.01.06.02.05.02.05.02.05.03.05.03.05.03.04.03.05.04.03.03.04.04.04.04.03.05.03.04.02.05.02.05.02.05.02.05.01.06.01h.18l.01.13h-.2l-.07-.01-.06-.02-.06-.01-.06-.03-.06-.02-.05-.03-.05-.04-.05-.03-.05-.04-.04-.05-.04-.04-.04-.05-.03-.05-.03-.05-.03-.06-.03-.06-.02-.05-.02-.06-.02-.07-.01-.06-.01-.06-.01-.07L0 4.73V4.6l.01-.07v-.07l.01-.06.02-.07v-.01zm0 .01v-.01.01zm1.58-1.31l.01.13h-.09l-.05.01-.05.01-.05.01-.04.01-.06.01-.05.02-.05.02-.05.02-.05.02-.06.02-.05.03-.05.03-.06.03-.05.04-.05.03-.05.04-.05.04-.05.05-.05.04-.04.05-.05.06-.04.05-.04.06-.04.07-.04.06-.04.07-.03.07-.03.08-.03.08-.03.08-.12-.04.03-.08.03-.09.03-.08.03-.08.04-.07.04-.07.05-.07.04-.06.05-.06.05-.06.05-.06.05-.05.05-.05.06-.04.05-.04.06-.04.05-.04.06-.03.06-.03.06-.03.05-.03.06-.02.06-.02.05-.02.06-.02.05-.02.06-.01.05-.01.05-.01h.05l.05-.01h.05zm.01.13h-.01.01zm.6-.86l-.05-.12h.1l.08.01.06.01.06.01.05.02.05.03.03.03.04.03.02.04.01.05.01.04v.05l-.01.04-.02.05-.02.04-.02.05-.04.04-.03.04-.04.04-.05.04-.05.04-.05.04-.06.03-.06.04-.07.03-.07.03-.07.02-.08.03-.07.02-.09.01-.08.02-.08.01-.01-.13.07-.01.08-.01.08-.02.07-.02.07-.02.06-.02.07-.03.06-.03.05-.03.05-.03.05-.03.05-.04.04-.03.03-.04.03-.03.03-.04.02-.03.01-.03.01-.03.01-.03v-.04l-.01-.02-.01-.02-.01-.02-.03-.01-.02-.02-.04-.01-.05-.02-.05-.01h-.13l.02-.01zm-.05-.12h.03-.03zm-.88-.53l.09.1.01-.02-.02.05-.02.05-.01.04-.01.04-.01.04v.1l.01.03.01.03.01.02.02.03.02.02.02.02.02.02.03.02.03.01.03.01.03.02h.04l.04.01.04.01h.08l.05-.01h.05l.05-.01.05-.01.05-.02.06-.02.05-.02.06-.03.05.12-.06.03-.06.02-.06.02-.06.02-.05.02-.06.01h-.06l-.05.01h-.1l-.05-.01-.05-.01-.05-.01-.04-.01-.04-.02-.04-.02-.04-.03-.03-.02-.03-.03-.03-.04-.02-.03-.02-.04-.01-.04-.01-.05-.01-.04v-.1l.01-.05.01-.05.02-.05.02-.05.03-.06.01-.02zm-.01.02v-.01l.01-.01-.01.02zm3.44 1.56l-.13-.03v.02l-.02-.17-.03-.17-.04-.16-.05-.15-.06-.15-.07-.13-.07-.13-.08-.11-.09-.11-.09-.1-.1-.1-.1-.08-.11-.08-.11-.06-.11-.06-.12-.05-.13-.04-.12-.04-.12-.02-.13-.02-.13-.01h-.13l-.13.01-.13.02-.12.02-.13.04-.12.04-.12.05-.12.06-.12.07-.11.08-.1.08-.09-.1.11-.09.12-.08.13-.07.12-.07.13-.05.13-.05.14-.03.13-.03.14-.02.14-.01h.13l.14.01.14.02.13.03.13.03.13.05.13.05.12.06.12.08.12.08.11.09.1.1.1.1.1.12.08.12.08.14.07.14.06.15.05.16.05.17.03.18.02.18v.02zm0-.02v.02-.02z" class="fil5"/></g><g><path fill="#6fa691" d="M3.46 6.87L.56 5.65C.31 3.27 2.95 3.17 4.58 2.67l2.56.96-3.68 3.24z"/><path id="1" d="M.58 5.59l2.9 1.22-.05.12-2.9-1.22-.04-.05.09-.07zm-.05.12L.5 5.69l-.01-.03.04.05zm4.08-3.1l-.05.12h.04l-.16.05-.16.04-.16.05-.17.04-.18.04-.17.04-.18.04-.17.05-.18.04-.18.05-.17.05-.17.05-.17.05-.17.06-.16.07-.16.06-.15.08-.14.08-.14.08-.13.09-.12.1-.11.11-.1.11-.09.13-.08.13-.07.14-.06.15-.04.16-.03.18-.02.18v.2l.01.21-.13.02-.01-.23v-.2l.02-.2.03-.19.05-.17.06-.16.07-.15.09-.15.1-.13.11-.12.11-.11.13-.11.14-.1.14-.09.15-.08.16-.07.16-.07.16-.07.17-.06.18-.06.17-.05.18-.05.18-.05.17-.04.18-.04.18-.05.17-.04.18-.04.16-.04.17-.04.16-.04.15-.05h.05zm-.05 0l.03-.01.02.01h-.05zm2.56 1.08l-2.56-.96.05-.12 2.56.96.02.11-.07.01zm.05-.12l.1.04-.08.07-.02-.11zM3.41 6.82L7.1 3.58l.09.1L3.5 6.92l-.07.01-.02-.11zm.09.1l-.03.02-.04-.01.07-.01z" class="fil5"/></g><g><path d="M8.12 4.48C8 5.05 6.59 5.87 3.67 6.9c-.72.06-1.1-.67-.95-1.35.3-.95 1.43-1.22 2.36-1.2.95.06 1.47-.82.58-.84-.62.29-1.14.01-.86-.54 1.15-1 3.14-.47 3.32 1.51z" class="fil4"/><path id="1" d="M3.68 6.96l-.02-.13h-.01l.27-.09.26-.1.25-.09.24-.09.24-.09.22-.09.22-.09.21-.08.2-.09.19-.08.18-.09.17-.08.17-.08.15-.08.15-.07.14-.08.14-.07.12-.08.12-.07.1-.07.1-.07.09-.06.09-.07.07-.06.07-.07.06-.06.05-.06.04-.05.04-.06.03-.05.02-.05.01-.04.13.02-.02.07-.03.06-.03.06-.04.06-.05.07-.06.06-.06.07-.07.06-.08.07-.09.07-.09.07-.1.07-.11.07-.12.07-.13.08-.13.07-.15.08-.15.08-.15.08-.17.08-.18.08-.18.09-.19.08-.2.09-.21.08-.22.09-.23.09-.23.09-.24.09-.26.1-.26.09-.27.1h-.01zm.01 0h-.01.01zM2.66 5.53l.13.04-.02.06-.01.06v.06l-.01.06v.12l.01.06.01.06.01.06.01.05.02.06.01.05.02.05.03.05.02.05.03.05.03.04.03.05.04.03.04.04.03.04.05.03.04.03.04.02.05.02.05.02.05.02.06.01.05.01h.18l.02.13H3.47l-.07-.01-.06-.02-.06-.01-.06-.03-.05-.02-.06-.03-.05-.04-.05-.03-.04-.04-.05-.05-.04-.04-.03-.05-.04-.05-.03-.05-.03-.06-.02-.05-.03-.06-.02-.06-.02-.06-.01-.07-.01-.06L2.63 6v-.06l-.01-.07v-.06l.01-.07.01-.07.01-.06.01-.07v-.01zm0 .01v-.01.01zm2.42-1.25l-.01.13h-.34l-.09.01-.09.01-.09.01-.09.01-.09.01-.08.02-.09.02-.09.02-.08.03-.09.02-.08.03-.08.04-.08.03-.07.04-.08.04-.07.04-.07.05-.06.05-.07.05-.06.06-.05.06-.06.06-.05.06-.04.07-.04.07-.04.08-.04.08-.02.08-.13-.04.03-.09.04-.08.04-.09.05-.08.05-.07.05-.07.06-.07.06-.07.07-.06.07-.05.07-.06.07-.05.08-.04.08-.05.08-.04.08-.03.09-.04.08-.03.09-.03.09-.02.09-.03.09-.02.09-.01.09-.02.09-.01.1-.01.09-.01.09-.01h.36zm0 0zm.61-.73l-.06-.11.03-.01h.09l.07.01.07.02.06.02.06.02.05.03.04.04.03.04.03.04.01.05.01.04v.05l-.01.05-.01.05-.02.05-.03.04-.03.05-.04.04-.04.05-.05.04-.05.03-.05.04-.07.04-.06.03-.07.03-.07.02-.08.02-.08.02-.08.01-.09.01h-.18l.01-.13H5.25l.07-.01.08-.01.07-.02.07-.01.07-.03.06-.02.05-.03.06-.03.05-.03.04-.04.04-.03.04-.04.03-.03.02-.04.02-.03.02-.04.01-.03v-.08l-.01-.02-.02-.03-.01-.02-.03-.02-.03-.02-.04-.02-.05-.02-.06-.01-.06-.01h-.08l.03-.01zm-.06-.11l.02-.01h.01l-.03.01zm-.87-.53l.08.09.02-.01-.03.04-.01.05-.02.04-.01.04v.04l-.01.04.01.03v.03l.01.03.01.03.01.02.02.03.01.02.02.02.03.02.02.02.03.01.03.02.04.01.03.01h.04l.04.01h.14l.05-.01.05-.01.05-.01.05-.02.05-.02.06-.02.05-.02.06.11-.06.03-.06.03-.06.02-.06.01-.06.02-.05.01h-.06l-.05.01h-.11l-.05-.01-.04-.01-.05-.01-.04-.01-.05-.02-.03-.02-.04-.02-.03-.03-.03-.03-.03-.04-.02-.03-.02-.04-.02-.04-.01-.04v-.05l-.01-.05.01-.04.01-.05.01-.05.01-.06.03-.05.02-.05.02-.02zm-.02.02l.01-.02h.01l-.02.02zm3.45 1.55l-.13-.02v.02l-.02-.18L8 4.14l-.04-.16-.05-.15-.05-.14-.07-.14-.07-.12-.08-.12-.09-.11-.09-.1-.1-.09-.1-.09-.11-.07-.11-.07-.12-.06-.12-.05-.12-.04-.12-.04-.13-.02-.13-.02-.12-.01h-.13l-.13.01-.13.02-.13.03-.12.03-.13.04-.12.05-.12.06-.11.07-.11.08-.11.08-.08-.09.11-.1.12-.08.12-.07.13-.06.13-.06.13-.04.13-.04.14-.03.14-.02.13-.01h.14l.14.01.13.02.14.03.13.03.13.05.13.05.12.07.12.07.11.08.11.09.11.1.1.1.09.12.09.13.07.13.07.14.07.15.05.16.04.17.03.18.03.18v.02zm0-.02v.02-.02z" class="fil5"/></g></g></svg>