<svg xmlns="http://www.w3.org/2000/svg" width="76" height="70" fill-rule="evenodd" clip-rule="evenodd" image-rendering="optimizeQuality" shape-rendering="geometricPrecision" text-rendering="geometricPrecision" viewBox="0 0 6.34 5.84"><defs><style>.fil3{fill:#c4d985}.fil0{fill:#a1b567}.fil1,.fil4{fill:#2b2a29;fill-rule:nonzero}</style></defs><g id="Слой_x0020_1"><path d="M3.08 2.22c.73.29 1.45.58 2.18.87.08-1.18-.06-2.12-.84-2.3-.8-.17-1.28.26-1.34 1.43z" class="fil0"/><path id="1" d="M5.25 3.09l.03.01-.02.01-.07-.03-.07-.03-.07-.02L4.99 3l-.07-.03-.07-.03-.07-.02-.07-.03-.07-.03-.06-.02-.07-.03-.07-.03-.07-.03-.07-.02-.07-.03-.06-.03-.07-.03-.07-.02-.07-.03-.07-.03-.07-.02-.06-.03-.07-.03-.07-.03-.07-.02-.07-.03-.07-.03-.07-.02-.06-.03-.07-.03-.07-.03-.07-.02.01-.03.07.03.07.02.07.03.07.03.06.03.07.02.07.03.07.03.07.03.07.02.06.03.07.03.07.02.07.03.07.03.07.03.06.02.07.03.07.03.07.02.07.03.07.03.06.03.07.02.07.03.07.03.07.03.07.02.06.03.07.03.07.02.07.03-.02.01zm.03.01v.01h-.02l.02-.01zM4.42.8l.01-.02.07.02.07.02.06.03.06.03.06.04.05.04.05.04.05.05.05.05.04.06.04.06.03.06.03.06.03.07.03.08.02.07.03.08.02.08.01.08.02.09.01.09.01.09.01.09.01.1v.62l-.01.1v.12l-.03-.01.01-.11V2.77l.01-.11v-.2l-.01-.1v-.1l-.01-.1-.01-.09-.01-.09-.01-.09-.02-.08-.01-.08-.02-.08-.02-.08-.03-.07-.02-.08-.03-.06-.03-.07L5 1.23l-.04-.06-.04-.05-.04-.05-.05-.05-.04-.04-.06-.04L4.68.9 4.62.87 4.56.85 4.49.82 4.42.8zm.01-.02h-.01.01zM3.08 2.21l-.01.03-.01-.02.01-.11.01-.1.01-.1.02-.09.01-.1.02-.08.02-.09.03-.07.02-.08.03-.07.03-.07.04-.06.03-.06.04-.05.04-.05.04-.05.05-.04.04-.04.05-.03.05-.03.06-.03.05-.02.06-.02.06-.02.06-.01L4 .74H4.21l.07.01.07.01.08.02-.01.02-.07-.01-.08-.01L4.2.77h-.19l-.07.01-.06.01-.05.01-.06.02-.05.02-.05.03-.05.03-.05.03-.04.04-.05.04-.04.05-.04.04-.03.06-.04.05-.03.07-.03.06-.03.07-.02.07-.03.08-.02.08-.02.09-.02.09-.01.09-.01.1-.01.11-.01.1-.01-.01zm-.01.03l-.01-.01v-.01l.01.02z" class="fil1"/><path fill="#c5e3d7" d="M.52 2.99c1.24-.37 2.49-.75 3.73-1.12 1.19-.12 1.75.23 1.88.92L2.44 4.08c-.49.22-.98.41-1.55.13-.25-.18-.44-.31-.68-.48-.31-.2-.25-.48.31-.74z"/><path id="1" d="M4.25 1.86l.01.02-.12.04-.11.03-.12.04-.12.03-.12.04-.11.03-.12.04-.12.03-.11.04-.12.03-.12.04-.11.03-.12.04-.12.03-.11.04-.12.03-.12.04-.11.03-.12.04-.12.03-.11.04-.12.03-.12.04-.11.03-.12.04-.12.03-.11.04-.12.03-.12.04-.11.03-.12.04L.52 3l-.01-.02.12-.04.12-.03.11-.04.12-.03.12-.04.11-.03.12-.04.12-.03.11-.04.12-.03.12-.04.11-.03.12-.04.12-.03.12-.04.11-.03.12-.04.12-.03.11-.04.12-.03.12-.04.11-.03.12-.04.12-.03.11-.04.12-.03.12-.04.11-.03.12-.04.12-.03.11-.04.12-.03zm0 0zm1.88.95l-.01-.03-.01.01-.01-.06-.01-.06-.02-.06-.02-.06-.03-.05L6 2.44l-.03-.05-.03-.04-.04-.05-.03-.05-.04-.04-.05-.04-.04-.03-.05-.04-.05-.03-.06-.03-.06-.03-.06-.03-.06-.02-.07-.02-.07-.02-.08-.02-.07-.01-.08-.01-.09-.01-.09-.01h-.28l-.1.01h-.11l-.1.01-.01-.02.11-.01.11-.01.1-.01h.19l.1.01h.08l.09.01.08.01.08.02.08.01.07.02.07.02.06.03.06.02.06.03.06.03.05.04.05.03.05.04.05.04.04.05.04.04.03.05.03.05.03.05.03.06.02.05.02.06.02.06.02.06.01.07-.01.02zm.01-.02v.01l-.01.01.01-.02zm-3.69 1.3l-.02-.02h.01l.11-.04.12-.04.11-.04.12-.04.11-.04.12-.04.11-.04.12-.04.11-.04.12-.05.11-.04.12-.04.11-.04.12-.04.11-.04.12-.04.11-.04.12-.04.12-.04.11-.04.12-.04.11-.04.12-.04.11-.04.12-.04.11-.04.12-.04.11-.04.12-.04.11-.04.12-.04.11-.04.01.03-.11.04-.12.04-.11.04-.12.04-.11.04-.12.04-.11.04-.12.04-.11.04-.12.04-.11.04-.12.04-.12.04-.11.04-.12.04-.11.04-.12.04-.11.04-.12.04-.11.04-.12.04-.11.04-.12.04-.11.04-.12.04-.11.04-.12.04-.11.04-.12.04-.11.04-.12.04-.11.04zm-.02-.02h.01-.01zm-1.54.15L.9 4.2l.05.02.06.02.05.02.05.02.05.02.05.01.05.01.05.01h.05l.05.01h.14l.05-.01h.05l.05-.01.04-.01.05-.01.05-.01.04-.01.05-.01.05-.02.04-.01.05-.02.04-.02.05-.01.05-.02.04-.02.05-.02.04-.02.05-.02.04-.02.02.02-.05.02-.05.02-.04.03-.05.01-.04.02-.05.02-.05.02-.04.02-.05.01-.05.02-.04.01-.05.02-.05.01-.04.01-.05.01-.05.01-.05.01h-.1l-.05.01h-.04l-.05-.01h-.05l-.06-.01h-.05l-.05-.01-.05-.02-.05-.01-.05-.02-.06-.02-.05-.02-.05-.03zm0 0zM.2 3.74l.02-.02.02.02.02.01.02.02.03.01.02.02.02.01.02.02.02.01.02.02.02.01.02.02.02.01.02.01.03.02.02.01.02.02.02.01.02.02.02.01.02.01.02.02.02.01.02.02.02.01.02.02.03.01.02.02.02.01.02.02.03.02.02.01.02.02-.01.02-.03-.01-.02-.02-.02-.02-.03-.01-.02-.02-.02-.01-.02-.02-.02-.01-.02-.02-.03-.01-.02-.02-.02-.01-.02-.02-.02-.01-.02-.02-.02-.01-.02-.01-.02-.02-.02-.01-.02-.02-.02-.01-.02-.02-.02-.01-.03-.02-.02-.01-.02-.01-.02-.02-.02-.01-.02-.02-.02-.02-.03-.01-.02-.02zm.02-.02zm.29-.74L.52 3l-.05.03-.05.02-.04.03-.04.02-.04.02-.04.03-.03.02-.03.03-.03.02-.03.03-.02.02-.02.02-.01.03-.02.02-.01.02-.01.03-.01.02v.11l.01.02.01.02.01.02.02.02.01.02.02.02.02.02.02.02.03.02.03.02-.02.02-.03-.02-.02-.02-.03-.02-.02-.02-.02-.02-.02-.02-.01-.02-.02-.03-.01-.02v-.03L.01 3.5v-.1l.01-.02.01-.03.02-.02.01-.03.02-.02.02-.03.02-.02.03-.03.03-.02.03-.03.04-.02.03-.03.04-.02.05-.03.04-.02L.46 3l.05-.02zm0 0z" class="fil1"/><path d="M.52 2.99l2.03-.61 1.86 1.01-1.97.69c-.49.22-.98.41-1.55.13-.25-.18-.44-.31-.68-.48-.31-.2-.25-.48.31-.74z" class="fil3"/><path id="1" d="M2.55 2.39L.52 3l-.01-.02 2.04-.61h.01l-.01.02zm0-.02h.01-.01zM4.4 3.4L2.54 2.39l.02-.02 1.86 1.01v.03L4.4 3.4zm.02-.02l.03.02-.03.01v-.03zm-1.98.69l1.97-.69.01.03-1.97.68-.02-.02h.01zm-.01 0h.01-.01zm-1.54.15L.9 4.2l.05.02.06.02.05.02.05.02.05.02.05.01.05.01.05.01h.05l.05.01h.14l.05-.01h.05l.05-.01.04-.01.05-.01.05-.01.04-.01.05-.01.05-.02.04-.01.05-.02.04-.02.05-.01.05-.02.04-.02.05-.02.04-.02.05-.02.04-.02.02.02-.05.02-.05.02-.04.03-.05.01-.04.02-.05.02-.05.02-.04.02-.05.01-.05.02-.04.01-.05.02-.05.01-.04.01-.05.01-.05.01-.05.01h-.1l-.05.01h-.04l-.05-.01h-.05l-.06-.01h-.05l-.05-.01-.05-.02-.05-.01-.05-.02-.06-.02-.05-.02-.05-.03zm0 0zM.2 3.74l.02-.02.02.02.02.01.02.02.03.01.02.02.02.01.02.02.02.01.02.02.02.01.02.02.02.01.02.01.03.02.02.01.02.02.02.01.02.02.02.01.02.01.02.02.02.01.02.02.02.01.02.02.03.01.02.02.02.01.02.02.03.02.02.01.02.02-.01.02-.03-.01-.02-.02-.02-.02-.03-.01-.02-.02-.02-.01-.02-.02-.02-.01-.02-.02-.03-.01-.02-.02-.02-.01-.02-.02-.02-.01-.02-.02-.02-.01-.02-.01-.02-.02-.02-.01-.02-.02-.02-.01-.02-.02-.02-.01-.03-.02-.02-.01-.02-.01-.02-.02-.02-.01-.02-.02-.02-.02-.03-.01-.02-.02zm.02-.02zm.29-.74L.52 3l-.05.03-.05.02-.04.03-.04.02-.04.02-.04.03-.03.02-.03.03-.03.02-.03.03-.02.02-.02.02-.01.03-.02.02-.01.02-.01.03-.01.02v.11l.01.02.01.02.01.02.02.02.01.02.02.02.02.02.02.02.03.02.03.02-.02.02-.03-.02-.02-.02-.03-.02-.02-.02-.02-.02-.02-.02-.01-.02-.02-.03-.01-.02v-.03L.01 3.5v-.1l.01-.02.01-.03.02-.02.01-.03.02-.02.02-.03.02-.02.03-.03.03-.02.03-.03.04-.02.03-.03.04-.02.05-.03.04-.02L.46 3l.05-.02zm0 0z" class="fil1"/><path d="M5.7 2.09c.5.02.6.36.54.87-.04.41-.19 1.07-.26 1.08-1.23.43-2.11 1.09-3.34 1.52-.49.22-.98.41-1.55.13C.84 5.51.64 5.17.4 5 .33 4.93.08 3.93.04 3.54c.02.07.08.13.17.19.24.17.43.3.68.48.57.28 1.06.09 1.55-.13l3.69-1.29c-.06-.3-.19-.54-.43-.7zM.03 3.41c0-.02 0-.03.01-.03-.01.01-.01.02-.01.03z" class="fil0"/><path id="1" d="M6.26 2.96h-.03v-.05l.01-.04v-.26l-.01-.03v-.04l-.01-.04-.01-.03-.01-.03-.01-.03-.01-.03-.01-.03-.02-.03-.01-.02-.02-.03-.02-.02-.03-.02-.02-.02-.03-.02L6 2.18l-.03-.02-.03-.01-.04-.01-.03-.01-.04-.01-.04-.01h-.05L5.7 2.1v-.02h.09l.04.01.04.01.04.01.04.01.03.01.03.02.03.02.03.02.02.02.03.02.02.02.02.03.02.03.01.03.02.03.01.03.01.03.01.03.01.04.01.04v.03l.01.04v.26l-.01.04v.05zm-.28 1.09l-.01-.02h.01v-.01l.01-.01L6 4l.01-.01v-.02l.01-.02.01-.03.01-.03.01-.02.01-.04.01-.03.01-.03.01-.04.01-.04.01-.04.01-.04.01-.04.01-.05.01-.04.01-.05v-.04l.01-.05.01-.04.01-.04.01-.05v-.04l.01-.05.01-.04v-.04L6.23 3v-.04h.03L6.25 3v.04l-.01.04v.05l-.01.04-.01.05v.04l-.01.04-.01.05-.01.05-.01.04-.01.04v.05l-.01.04-.01.04-.01.05-.01.04-.01.04-.01.03-.01.04-.01.03-.01.03-.01.03-.01.03-.01.03-.01.02-.01.02-.01.02-.01.01-.01.01-.01.01-.01.01v-.01zm-.01-.02h.01-.01zM2.64 5.57l-.01-.03.12-.04.11-.04.11-.04.11-.05.11-.04.1-.05.11-.04.1-.05.1-.05.1-.05.11-.05.1-.05.1-.05.09-.05.1-.05.1-.05.1-.05.1-.05.1-.06.1-.05.1-.05.1-.05.1-.05.11-.04.1-.05.1-.05.11-.05.11-.04.11-.05.11-.04.11-.04.11-.04.01.02-.11.05-.11.04-.11.04-.11.05-.11.04-.1.05-.11.04-.1.05-.1.05-.11.05-.1.05-.1.05-.1.05-.1.05-.1.05-.09.05-.1.05-.1.05-.1.05-.1.06-.1.05-.1.04-.1.05-.11.05-.1.05-.11.05-.1.04-.11.05-.11.04-.11.05-.11.04-.12.04zm-.01-.03zm-1.55.16l.02-.02v-.01l.05.03.05.02.05.02.06.02.05.01.05.02.05.01h.05l.05.01h.05l.04.01h.05l.05-.01h.05l.05-.01h.04l.05-.01.05-.01.04-.01.05-.01.05-.02.04-.01.05-.02.05-.01.04-.02.05-.02.04-.02.05-.01.05-.02.04-.02.05-.02.04-.03.01.03-.04.02-.05.02-.04.02-.05.02-.04.02-.05.02-.05.02-.04.01-.05.02-.05.02-.04.01-.05.01-.05.02-.05.01-.04.01-.05.01h-.05l-.05.01h-.25l-.05-.01-.05-.01-.05-.01-.05-.01-.05-.01-.05-.02-.06-.02-.05-.03-.05-.02h-.01zm.01 0h-.01.01zm-.7-.69l.02-.02.02.02.02.01.02.02.03.02.02.02.02.02.02.02.02.02.02.03.03.02.02.02.02.03.02.02.02.02.02.03.02.02.02.03.02.02.03.02.02.03.02.02.02.02.02.03.02.02.02.02.03.02.02.02.02.02.02.02.02.02.03.02.02.02-.02.02-.02-.02-.02-.02-.03-.02-.02-.02-.02-.02-.02-.02-.03-.02-.02-.02-.02-.02-.02-.03-.02-.02-.02-.02-.03-.03-.02-.02-.02-.03-.02-.02-.02-.02-.02-.03-.02-.02-.02-.02-.02-.03-.03-.02-.02-.02-.02-.03-.02-.02-.02-.02L.5 5.1l-.02-.02-.02-.02-.03-.01-.02-.02-.02-.02zm0 0zM.05 3.53l-.03.01h.03v.03l.01.05.01.04.01.05.01.05v.05l.02.05.01.06.01.06.01.05.01.06.02.06.01.06.01.06.02.06.01.06.02.05.01.06.02.05.01.06.01.05.02.04.01.05.01.04.01.04.02.04.01.03.01.03.01.02.01.02v.01l.01.01-.02.02L.38 5l-.01-.02-.01-.02-.01-.02-.01-.03-.01-.03-.01-.04-.01-.04-.02-.04-.01-.05-.01-.05-.02-.05-.01-.05-.02-.05-.01-.06-.01-.06-.02-.05-.01-.06-.02-.06-.01-.06-.01-.06-.02-.06-.01-.06-.01-.05-.01-.06-.01-.05-.01-.06-.01-.05-.01-.04-.01-.05v-.04l-.01-.04.03-.01zm-.03.01l-.01-.13.04.12-.03.01zm.2.18l-.02.02H.19l-.01-.01-.01-.01-.01-.01H.15V3.7H.14l-.01-.01-.01-.01-.01-.01H.1v-.01l-.01-.01-.01-.01-.01-.01v-.01H.06v-.01L.05 3.6l-.01-.01v-.01l-.01-.01v-.01l-.01-.01v-.01l.03-.01v.02h.01v.01l.01.01v.01l.01.01v.01l.01.01.01.01.01.01.01.01v.01h.01l.01.01.01.01.01.01.01.01h.01v.01h.01l.01.01h.01l.01.01zm0 0zm.68.48l-.01.02-.03-.01-.02-.02-.02-.02-.03-.01-.02-.02-.02-.01-.02-.02-.02-.01-.02-.02-.03-.01-.02-.02-.02-.01-.02-.02-.02-.01-.02-.02-.02-.01-.02-.01-.02-.02-.02-.01-.02-.02-.02-.01-.02-.02-.02-.01-.03-.02-.02-.01-.02-.01-.02-.02-.02-.01-.02-.02-.02-.02-.03-.01-.02-.02.02-.02.02.02.02.01.02.02.03.01.02.02.02.01.02.02.02.01.02.02.02.01.02.02.02.01.02.01.03.02.02.01.02.02.02.01.02.02.02.01.02.01.02.02.02.01.02.02.02.01.02.02.03.01.02.02.02.01.02.02.03.02.02.01.02.02zm-.01.02zm1.55-.15l.01.02-.05.02-.05.02-.04.03-.05.01-.04.02-.05.02-.05.02-.04.02-.05.01-.05.02-.04.01-.05.02-.05.01-.04.01-.05.01-.05.01-.05.01h-.1l-.05.01h-.04l-.05-.01h-.05l-.06-.01h-.05l-.05-.01-.05-.02-.05-.01-.05-.02-.06-.02-.05-.02-.05-.03.01-.02.05.02.06.02.05.02.05.02.05.02.05.01.05.01.05.01h.05l.05.01h.14l.05-.01h.05l.05-.01.04-.01.05-.01.05-.01.04-.01.05-.01.05-.02.04-.01.05-.02.04-.02.05-.01.05-.02.04-.02.05-.02.04-.02.05-.02.04-.02h.01zm-.01 0h.01-.01zm3.68-1.28h.03l-.01.02-.11.04-.12.04-.11.04-.12.04-.11.04-.12.04-.11.04-.12.04-.11.04-.12.04-.11.04-.12.04-.12.04-.11.04-.12.04-.11.04-.12.04-.11.04-.12.04-.11.04-.12.04-.11.04-.12.04-.11.04-.12.04-.11.04-.12.04-.11.04-.12.04-.11.04-.12.04-.11.04-.01-.02.11-.04.12-.04.11-.04.12-.04.11-.04.12-.04.11-.04.12-.04.11-.04.12-.05.11-.04.12-.04.11-.04.12-.04.11-.04.12-.04.11-.04.12-.04.12-.04.11-.04.12-.04.11-.04.12-.04.11-.04.12-.04.11-.04.12-.04.11-.04.12-.04.11-.04.12-.04.11-.04-.01.01zm.03 0v.01l-.01.01.01-.02zm-.44-.71v.02l.01-.02.02.01.02.02.02.02.02.01.02.02.02.02.02.02.02.02.02.01.01.02.02.02.02.02.01.03.02.02.01.02.01.02.02.02.01.03.01.02.01.02.01.03.02.02.01.03v.02l.01.03.01.02.01.03.01.03v.03l.01.02.01.03v.03h-.03v-.02l-.01-.03v-.03l-.01-.02-.01-.03v-.03l-.01-.02-.01-.03-.01-.02-.01-.03-.01-.02-.01-.02-.01-.03L6 2.44l-.02-.02-.01-.02-.01-.03-.02-.02-.01-.02-.02-.02-.01-.02-.02-.02-.01-.02-.02-.01-.02-.02-.02-.02-.02-.02-.02-.01-.02-.02-.02-.02-.02-.01-.02-.02.01-.02zm-.01.02l-.04-.03.05.01-.01.02zM.05 3.38l-.03-.01.02.02h.01-.01v.02H.01V3.4l.01-.01v-.02h.01l.02.01zm-.02-.01l.04-.03-.02.04-.02-.01zm.01.01h.01-.01zm-.01-.01l.04-.03-.02.04-.02-.01zm-.02.04h.03-.03V3.4h.01v-.03l.03.01v.02H.04v.01H.01zm.03 0L0 3.6l.01-.19h.03z" class="fil1"/><g><path d="M5.13 3.04c.05.1.11.16.17.17.3.03.77-.17 1-.27.07-1.19.02-1.72-.63-1.97C5.32.89 5.09.69 4.61.71c-.22-.01-.4.01-.55.04.11 0 .23.01.36.04.78.18.92 1.12.84 2.3l-.13-.05z" class="fil3"/><path id="1" d="M5.3 3.2l-.01.03v-.01h-.03v-.01h-.01l-.01-.01h-.01l-.01-.01-.01-.01-.01-.01v-.01h-.01l-.01-.01-.01-.01v-.01l-.01-.01-.01-.01V3.1l-.01-.01v-.01l-.01-.01-.01-.01v-.01l.02-.02.01.01v.01l.01.01v.01l.01.01.01.01v.01l.01.01.01.01v.01h.01v.01l.01.01.01.01.01.01h.01v.01h.01v.01h.02l.01.01h.01zm-.01.03zm.99-.29h.03l-.01.01-.02.01-.02.01-.03.01-.02.01-.03.01-.03.02-.03.01-.03.01-.03.01-.03.02-.03.01-.03.01-.04.01-.03.02-.03.01-.04.01-.03.01-.04.01-.03.01-.04.01-.03.01-.04.01h-.03l-.04.01-.03.01h-.07l-.03.01h-.13l.01-.03h.15l.03-.01h.03l.04-.01h.03l.03-.01.04-.01.03-.01.04-.01.03-.01.04-.01.03-.01.04-.01.03-.01.03-.01.04-.02.03-.01.03-.01.03-.01.03-.02.03-.01.03-.01.03-.01.03-.01.02-.02.03-.01.02-.01.02-.01-.01.02zm.03 0v.01H6.3l.01-.01zM5.67.98l.01-.03v.01l.06.02.05.03.06.02.05.03.04.04.05.03.04.04.03.04.04.04.03.04.03.04.03.05.02.05.02.05.02.06.02.06.01.06.02.06.01.07.01.07v.07l.01.07v.16l.01.09-.01.09v.28l-.01.1v.11l-.01.11h-.03l.01-.11v-.11l.01-.1v-.1l.01-.09v-.27l-.01-.08v-.07l-.01-.08v-.07l-.01-.07-.01-.06-.02-.07-.01-.05-.02-.06-.02-.06-.02-.05-.02-.04-.02-.05-.03-.04-.03-.05-.04-.04-.03-.03-.04-.04-.04-.03-.05-.03-.05-.03-.05-.03-.05-.02-.06-.03zm.01-.03v.01-.01zM4.61.73V.7H4.82l.04.01h.04l.03.01.04.01H5l.03.01.04.01.03.01.03.01.03.01.03.01.03.01.03.01.03.01.03.02.03.01.03.01.03.01.03.01.03.01.03.01.03.01.03.01.03.01.03.01.03.01h.04l-.01.03h-.03L5.61.97 5.57.96 5.54.95 5.51.94 5.48.93 5.45.92 5.42.91 5.39.9 5.36.89 5.33.87 5.3.86 5.27.85 5.24.84 5.21.83 5.18.82 5.15.81 5.12.8 5.09.79 5.06.78 5.03.77 4.99.76 4.96.75h-.03L4.89.74h-.04L4.82.73h-.08L4.7.72h-.04l-.05.01zm0 0zm-.55.01v.03-.03h.01l.02-.01h.03l.01-.01h.05l.01-.01h.07L4.28.7h.14l.02-.01H4.55l.02.01h.04v.03L4.59.72H4.38l-.01.01h-.11l-.01.01h-.07l-.01.01h-.05l-.01.01h-.03l-.02.01V.74zm0 .03h-.14l.14-.03v.03zm.37.01L4.42.8h-.04L4.37.79h-.04L4.31.78h-.07L4.23.77H4.06V.74h.16l.02.01h.07l.01.01h.05l.01.01h.03l.02.01zm0 0h-.01.01zm.83 2.33l.01-.03-.02.01.01-.11V2.77l.01-.11v-.2l-.01-.1v-.1l-.01-.1-.01-.09-.01-.09-.01-.09-.02-.08-.01-.08-.02-.08-.02-.08-.03-.07-.02-.08-.03-.06-.03-.07L5 1.23l-.04-.06-.04-.05-.04-.05-.05-.05-.04-.04-.06-.04L4.68.9 4.62.87 4.56.85 4.49.82 4.42.8l.01-.02.07.02.07.02.06.03.06.03.06.04.05.04.05.04.05.05.05.05.04.06.04.06.03.06.03.06.03.07.03.08.02.07.03.08.02.08.01.08.02.09.01.09.01.09.01.09.01.1v.62l-.01.1v.12l-.02.01zm.02-.01v.01h-.02l.02-.01zm-.15-.07l.14.05-.01.03-.14-.06.01-.02zm-.01.02l-.02-.04.03.02-.01.02z" class="fil1"/></g><path d="M2.36.13c-.01-.06.02-.12.08-.13.06-.01.11.03.12.09l.72 3.71v1.53c0 .06-.05.11-.11.11-.05 0-.1-.05-.1-.11V3.84L2.36.13z" class="fil4"/><path d="M2.46.24c-.04-.05-.03-.11.02-.15.04-.04.11-.03.14.02l2.43 3.02.03.06.11 1.26c.01.05-.03.11-.09.11-.06.01-.11-.04-.12-.09l-.11-1.23-2.41-3z" class="fil4"/><path d="M2.36.06c.03-.05.09-.07.14-.05.06.02.08.09.06.14L1.38 2.81c-.03.05-.09.07-.14.05-.06-.03-.08-.09-.06-.14L2.36.06z" class="fil4"/></g></svg>