<svg xmlns="http://www.w3.org/2000/svg" width="70" height="67" fill-rule="evenodd" clip-rule="evenodd" image-rendering="optimizeQuality" shape-rendering="geometricPrecision" text-rendering="geometricPrecision" viewBox="0 0 42.17 40.17"><defs><style>.fil6{fill:#f5b2b6}.fil7{fill:#c5e3d7}.fil3{fill:#c4d985}.fil0{fill:#a1b567}.fil1,.fil5{fill:#2b2a29;fill-rule:nonzero}</style></defs><g id="Слой_x0020_1"><path d="M20.06 12.72c6.32-1.7 8.57.48 9.7 1.98.4-6.62-4.57-12.41-8.89-13.42-4.5-.97-5.89 2.13-.81 11.44z" class="fil0"/><path id="1" d="M29.65 14.69l.21.02-.18.05-.11-.14-.12-.14-.12-.15-.13-.15-.14-.14-.14-.15-.16-.15-.17-.14-.18-.14-.19-.14-.2-.13-.21-.13-.23-.13-.24-.11-.25-.11-.27-.1-.28-.09-.3-.08-.32-.07-.33-.06-.35-.05-.37-.03-.38-.02-.41-.01-.42.02-.45.02-.46.05-.49.07-.51.08-.53.11-.56.12-.58.15-.05-.2.58-.15.56-.12.54-.11.52-.08.49-.07.47-.05.46-.03.43-.01h.41l.4.02.37.04.36.04.34.07.33.07.31.08.29.1.28.1.26.11.25.12.23.13.22.13.21.14.2.14.18.15.17.15.17.15.15.15.14.16.13.15.13.15.12.14.11.15-.19.05zm.21.02l-.02.27-.16-.22.18-.05zM20.85 1.38l.04-.2.42.11.41.14.42.16.41.19.42.22.41.24.41.26.41.29.4.31.39.33.39.35.38.37.37.39.36.41.34.43.34.45.32.46.3.47.29.5.27.5.25.52.24.54.21.54.19.56.17.57.14.58.12.58.1.6.06.6.04.62.01.61-.02.63-.21-.02.03-.61-.01-.61-.04-.6-.06-.59-.1-.59-.11-.58-.15-.57-.16-.56-.19-.55-.21-.53-.23-.53-.25-.51-.27-.5-.28-.49-.3-.47-.32-.46-.33-.44-.34-.42-.35-.4-.37-.39-.37-.36-.38-.35-.39-.33-.39-.3-.4-.28-.4-.26-.41-.24-.4-.21-.41-.18-.41-.16-.4-.14-.4-.1zm.04-.2l-.01-.01.01.01zm-.86 11.44l.05.2-.11-.05-.46-.86-.42-.82-.38-.78-.35-.75-.32-.72-.27-.68-.25-.65-.21-.61-.17-.58-.15-.55-.11-.52-.08-.48-.06-.46-.02-.42.01-.4.04-.36.07-.34.1-.3.12-.28.15-.25.18-.22.21-.19.23-.16.26-.14.28-.1.3-.07.32-.05.34-.02h.36l.38.03.4.06.42.08-.04.2-.41-.08-.39-.06-.37-.02-.34-.01-.33.02-.3.04-.28.08-.26.09-.23.12-.21.15-.19.17-.16.2-.14.22-.11.26-.09.28-.07.32-.03.35-.01.38.02.41.05.44.08.47.11.51.14.54.18.58.2.61.25.64.27.67.31.71.35.75.38.78.42.82.46.85-.12-.05zm.05.2l-.07.02-.04-.07.11.05z" class="fil1"/><path fill="#99cfba" d="M5.81 13.84l14.25-1.12c10.38-1.6 12.01-.43 9.7 1.98l-16.13 2.19c-2.96.22-6.1.68-8.81-.89-1.74-1.14-.49-1.98.99-2.16z"/><path id="1" d="M20.07 12.82L5.81 13.94l-.01-.2 14.25-1.12.02.2zm0 0h-.01.01zm9.7 1.98l-.03-.2-.06.03.21-.22.17-.21.15-.2.13-.2.1-.18.07-.17.05-.16.01-.14-.01-.14-.03-.12-.07-.11-.09-.11-.13-.11-.16-.09-.2-.09-.24-.08-.28-.06-.31-.06-.36-.04-.4-.03-.44-.02h-.48l-.52.01-.57.02-.61.03-.65.05-.71.07-.75.08-.8.09-.84.11-.9.13-.95.14-.03-.2.95-.14.9-.13.85-.11.8-.09.75-.08L25 12l.66-.05.61-.04.58-.02.52-.01.49.01.44.02.41.03.37.04.32.06.29.07.26.08.22.1.19.11.15.12.12.14.09.15.04.17.02.17-.02.18-.06.19-.08.19-.1.2-.14.2-.16.22-.18.21-.21.23-.06.03zm.06-.03l-.02.03h-.04l.06-.03zm-16.22 2.01l16.13-2.18.03.2-16.13 2.19h-.01l-.02-.21zm.03.21h-.01.01zm-8.88-.9l.11-.17.25.13.25.13.26.12.26.11.26.09.26.09.27.08.27.07.26.06.27.05.28.04.27.04.27.03.28.02.28.02.27.01.28.01H10.25l.28-.01.28-.02.29-.01.28-.02.28-.02.28-.02.28-.02.28-.02.28-.03.28-.02.28-.02.28-.03.01.21-.27.02-.28.02-.28.02-.28.03-.28.02-.28.02-.29.03-.28.02-.28.01-.29.02-.28.01-.28.01-.29.01h-.56l-.28-.01-.29-.01-.28-.02-.28-.03-.28-.03-.27-.04-.28-.04-.28-.06-.27-.06-.28-.07-.27-.08-.27-.09-.26-.09-.27-.11-.26-.12-.27-.14-.26-.14zm0 0h.01-.01zm1.04-2.35l.01.2h.01l-.13.02-.14.02-.13.03-.12.03-.13.03-.12.04-.11.03-.11.05-.11.04-.1.05-.09.05-.08.06-.08.05-.07.06-.06.06-.05.06-.04.07-.03.06-.03.06-.01.07v.14l.02.07.03.08.04.08.05.09.07.09.08.09.1.1.12.09.13.11.15.1-.11.17-.16-.11-.14-.11-.12-.1-.11-.11-.1-.1-.08-.11-.06-.1-.05-.1-.04-.1-.02-.1-.01-.1.01-.1.02-.09.03-.09.04-.09.06-.08.06-.08.07-.07.08-.07.09-.06.1-.06.1-.06.11-.05.11-.05.12-.05.12-.04.13-.04.13-.03.13-.03.14-.03.13-.02.14-.02h.01zm-.01 0h.01-.01z" class="fil1"/><path d="M38.19 15.8c-10.02.73-18.94 4.06-28.61 3.64-1.81-.04-5.69-.89-6.01-2.1-.32.05-1.2-3.07 1.64-3.39-1.17.31-1.88 1.07-.39 2.05 2.71 1.57 5.85 1.11 8.81.89l16.13-2.19c10.44-1.92 7.45-1.16 8.43 1.1z" class="fil0"/><path id="1" d="M9.58 19.54v-.2h.01l.9.02.9.01.89-.01.89-.03.89-.05.88-.06.89-.08.88-.09.88-.11.88-.11.87-.13.88-.14.88-.14.88-.15.87-.16.88-.16.88-.16.88-.17.89-.17.88-.17.89-.16.89-.17.9-.16.89-.16.91-.15.9-.14.91-.13.92-.13.92-.11.92-.11.93-.09.94-.07.02.2-.94.07-.93.09-.92.11-.92.11-.91.13-.91.13-.9.15-.9.15-.9.15-.89.16-.89.17-.89.16-.88.17-.89.17-.88.17-.88.16-.88.16-.88.16-.88.15-.88.14-.88.14-.88.13-.88.11-.88.11-.88.09-.89.08-.89.07-.89.04-.9.03-.89.02-.91-.01-.9-.03zm0-.2h.01-.01zm-5.99-1.9l-.03-.2.11.08.04.09.05.1.07.1.09.09.11.1.12.1.14.09.15.09.17.09.17.09.19.09.2.08.21.08.21.08.23.07.22.07.24.07.23.06.24.06.24.06.24.05.24.05.24.04.23.04.23.04.23.03.22.03.21.03.2.01.2.02.18.01.17.01v.2l-.18-.01-.19-.01-.2-.01-.2-.02-.22-.03-.22-.03-.23-.03-.23-.04-.24-.04-.24-.04-.24-.05-.25-.06-.24-.05-.24-.06-.24-.07-.23-.06-.24-.08-.22-.07-.22-.08-.21-.08-.21-.09-.19-.08-.19-.09-.17-.1-.16-.1-.15-.1-.14-.1-.11-.11-.11-.11-.08-.12-.07-.12-.04-.13.11.07zm-.03-.2l.09-.01.02.09-.11-.08zm1.67-3.19l-.05-.19.04.2-.25.03-.23.05-.2.07-.19.07-.17.09-.15.1-.13.11-.12.11-.1.13-.09.12-.07.14-.07.14-.05.14-.04.15-.03.14-.02.15-.02.14V16.23l.01.14.02.13.02.12.02.12.03.11.03.1.04.09.03.07.03.06.03.04.02.03h.01-.02l.03.2-.08-.01-.07-.04-.05-.05-.04-.06-.04-.08-.04-.09-.04-.09-.03-.11-.03-.12-.03-.13-.02-.13-.02-.14-.01-.15v-.31l.01-.16.03-.15.03-.16.05-.16.05-.16.07-.15.09-.15.1-.15.11-.13.14-.13.14-.12.17-.11.19-.1.2-.08.22-.07.24-.06.26-.04.04.2zm-.04-.2l1.36-.15-1.32.35-.04-.2zm-.32 2.07l-.11.17-.14-.09-.12-.1-.11-.09-.1-.09-.09-.09-.08-.09-.07-.09-.05-.09-.05-.08-.03-.09-.03-.09-.01-.08-.01-.09.01-.08.02-.08.02-.08.04-.07.04-.08.05-.06.05-.07.07-.06.07-.06.07-.06.08-.05.09-.05.08-.05.1-.04.1-.04.1-.04.1-.04.11-.03.11-.03.05.19-.1.03-.11.03-.09.04-.1.04-.09.03-.08.05-.09.04-.07.04-.07.05-.07.05-.06.05-.05.05-.04.05-.04.06-.03.05-.03.05-.02.06-.01.06v.11l.01.07.02.06.03.07.03.07.05.08.06.07.07.08.08.08.09.09.1.08.12.09.13.09zm-.11.17h.01-.01zm8.85.69l.03.21h-.01l-.27.02-.28.02-.28.02-.28.03-.28.02-.28.02-.29.03-.28.02-.28.01-.29.02-.28.01-.28.01-.29.01h-.56l-.28-.01-.29-.01-.28-.02-.28-.03-.28-.03-.27-.04-.28-.04-.28-.06-.27-.06-.28-.07-.27-.08-.27-.09-.26-.09-.27-.11-.26-.12-.27-.14-.26-.14.11-.17.25.13.25.13.26.12.26.11.26.09.26.09.27.08.27.07.26.06.27.05.28.04.27.04.27.03.28.02.28.02.27.01.28.01H10.25l.28-.01.28-.02.29-.01.28-.02.28-.02.28-.02.28-.02.28-.03.28-.02.28-.02.28-.02.28-.03h-.01zm.03.21h-.01.01zm16.13-2.19l-16.13 2.19-.03-.21 16.13-2.18.03.2zm0 0zm8.43 1.1l-.02-.2-.08.14-.09-.22-.06-.2-.04-.2-.04-.18-.02-.18-.01-.16-.01-.15v-.14l-.01-.13-.02-.11-.02-.1-.03-.08-.04-.06-.05-.06-.07-.05-.1-.04-.13-.04-.16-.02-.2-.01h-.24l-.28.01-.33.03-.37.04-.43.05-.47.07-.54.08-.59.1-.66.11-.72.13-.79.14-.87.16-.94.17-.03-.2.94-.17.86-.16.8-.14.72-.13.66-.11.59-.1.54-.08.48-.07.42-.05.38-.04.33-.03.29-.02H37l.22.02.18.02.15.04.13.06.11.07.08.09.07.11.04.11.02.12.02.12.01.14.01.14v.15l.02.15.02.17.03.17.04.18.06.2.07.2-.08.14zm.08-.14l.06.13-.14.01.08-.14z" class="fil1"/><path d="M30.33 16.83c1.71 0 6.62-.45 7.86-1.03C39.97 7.43 32.83 1.6 29.22.21c-1.96-.42-4.66.53-7.29.63-1.22-.06-2.24.03-3.09.24.63-.03 1.31.04 2.03.2 4.32 1.01 9.29 6.8 8.89 13.42-.53.44.39 2.11.57 2.13z" class="fil3"/><path id="1" d="M38.09 15.78l.2.04-.06.07-.13.06-.15.05-.17.05-.19.06-.2.05-.22.05-.23.05-.24.04-.26.05-.26.04-.28.05-.28.04-.28.04-.3.04-.29.03-.3.04-.3.03-.3.04-.3.03-.3.03-.29.02-.29.03-.28.02-.28.02-.26.02-.26.01-.24.02-.24.01-.22.01h-.2l-.19.01h-.17v-.21h.36l.2-.01.22-.01.23-.01.24-.01.25-.02.27-.01.27-.03.28-.02.29-.02.29-.03.3-.03.3-.03.29-.03.3-.03.3-.04.3-.03.29-.04.28-.04.28-.04.27-.05.27-.04.25-.05.24-.04.23-.05.21-.05.2-.05.18-.05.16-.05.15-.05.12-.06-.06.08zm.2.04l-.01.05-.05.02.06-.07zM29.2.31l.05-.2h.01l.35.15.37.17.39.2.4.22.41.24.42.27.43.3.43.32.43.34.44.36.43.39.43.4.42.44.41.45.4.47.39.5.37.51.35.54.34.55.31.58.28.59.26.62.23.63.19.65.17.67.12.68.09.71.05.72v.73l-.05.76-.09.76-.14.79-.2-.04.14-.78.09-.75.04-.74v-.73l-.04-.7-.09-.7-.12-.67-.16-.66-.19-.64-.23-.62-.25-.6-.29-.59-.3-.57-.33-.54-.35-.53-.37-.51-.38-.49-.39-.47-.41-.44-.42-.43-.42-.4-.43-.39-.43-.36-.43-.33-.42-.32-.42-.29-.42-.26-.4-.25-.4-.21-.38-.2-.36-.16-.34-.15.01.01zm.05-.2h.01-.01zm-7.32.83l.01-.2h-.01l.24-.02.25-.01.24-.02.25-.03.25-.02.24-.03.25-.04.24-.03.25-.04.24-.04.24-.04.24-.04.24-.04.24-.04.24-.03.23-.04.24-.04.23-.03.23-.04.23-.02.22-.03.22-.02.22-.02.22-.02.22-.01h.42l.2.01.2.01.2.02.2.03.19.04-.05.2-.18-.04-.18-.02-.2-.02-.19-.02h-.2l-.2-.01-.21.01-.21.01-.21.01-.22.02-.22.02-.22.03-.22.03-.23.03-.23.03-.23.04-.24.04-.24.04-.23.04-.24.03-.25.05-.24.03-.24.04-.25.04-.24.04-.25.03-.25.03-.25.03-.25.02-.25.02-.24.02-.25.01h-.01zm.01 0h-.01.01zm-3.1.03l.01.21-.03-.2.08-.02.08-.02.09-.02.08-.01.09-.02.08-.02.09-.01.09-.01.09-.02.09-.01.09-.01.09-.01.09-.01.1-.01.09-.01.1-.01.1-.01.1-.01h.1l.1-.01h.2l.11-.01h.65l.11.01h.11l.12.01-.01.2-.11-.01H21.48l-.11-.01H21.16l-.1.01H20.75l-.1.01h-.1l-.1.01h-.1l-.09.01-.1.01-.09.01-.09.01-.1.01-.09.01-.09.01-.08.01-.09.02-.09.01-.08.01-.09.02-.08.01-.08.02-.08.02-.08.02-.08.01-.03-.2zm.01.21l-1.03.03 1-.23.03.2zm2.04 0l-.04.2-.07-.02-.07-.01-.06-.01-.07-.02-.06-.01-.07-.01-.07-.01-.06-.01-.07-.01-.06-.01-.06-.01-.07-.01-.06-.01-.07-.01h-.06l-.06-.01-.06-.01h-.07l-.06-.01h-.12l-.06-.01h-.18l-.06-.01h-.24l-.06.01h-.05l-.01-.21h.49l.06.01h.12l.07.01h.06l.06.01h.07l.06.01h.06l.07.01.06.01.07.01.06.01.07.01.07.01.06.01.07.01.07.01.06.01.07.01.07.02.07.01.06.01.07.02zm0 0l-.01-.01.01.01zm8.93 13.6l-.13-.16-.04.07.03-.61-.01-.61-.04-.6-.06-.59-.1-.59-.11-.58-.15-.57-.16-.56-.19-.55-.21-.53-.23-.53-.25-.51-.27-.5-.28-.49-.3-.47-.32-.46-.33-.44-.34-.42-.35-.4-.37-.39-.37-.36-.38-.35-.39-.33-.39-.3-.4-.28-.4-.26-.41-.24-.4-.21-.41-.18-.41-.16-.4-.14-.4-.1.04-.2.42.11.41.14.42.16.41.19.42.22.41.24.41.26.41.29.4.31.39.33.39.35.38.37.37.39.36.41.34.43.34.45.32.46.3.47.29.5.27.5.25.52.24.54.21.54.19.56.17.57.14.58.12.58.1.6.06.6.04.62.01.61-.02.63-.04.07zm.04-.07v.04l-.04.03.04-.07zm.47 2.01v.21h-.01l-.06-.02-.04-.03-.03-.03-.03-.04-.04-.04-.04-.05-.03-.06-.04-.06-.04-.07-.05-.07-.04-.07-.04-.08-.04-.09-.04-.08-.04-.09-.03-.09-.04-.09-.03-.1-.03-.09-.03-.09-.02-.1-.02-.09-.01-.09-.01-.09-.01-.08.01-.09.01-.08.02-.08.02-.08.04-.07.04-.06.06-.06.13.16-.03.03-.03.04-.02.04-.02.05-.01.06-.01.07v.14l.01.08.01.08.02.08.02.09.02.08.03.09.03.09.03.08.04.09.04.08.03.09.04.07.04.08.04.07.04.07.04.06.03.06.04.05.03.04.03.04.03.03.01.01.01.01-.02-.01h-.01zm0 .21h-.01.01z" class="fil1"/><path fill="#a1b567" fill-rule="nonzero" d="M.79 35.54c-.6-.49-.68-1.37-.19-1.96.48-.59 1.36-.68 1.95-.19 3.61 2.98 11.09 4.14 18.54 3.85 7.85-.3 15.56-2.2 18.6-5.26.54-.54 1.42-.55 1.97 0 .54.54.55 1.42 0 1.96-3.54 3.57-11.99 5.75-20.47 6.08-8.05.31-16.24-1.05-20.4-4.48z"/><path id="1" d="M.52 33.52l.15.13-.04.05-.04.05-.03.06-.03.05-.03.06-.02.06-.03.06-.02.06-.01.06-.02.06-.01.06v.06l-.01.06v.13l.01.06v.06l.01.06.02.06.01.06.02.06.03.06.02.06.03.05.03.06.03.05.04.05.04.05.04.05.04.05.05.05.05.04-.13.16-.06-.05-.05-.06-.05-.05-.05-.06-.05-.06-.04-.06-.04-.06-.03-.06-.03-.07-.03-.06-.03-.07-.02-.07-.02-.07-.01-.07-.02-.07-.01-.07V34.32l.01-.07.01-.07.02-.07.02-.07.02-.07.03-.07.03-.07.03-.06.04-.07.04-.06.04-.06.05-.06zm2.1-.21l-.13.16-.06-.04-.05-.04-.05-.03-.06-.04-.06-.02-.06-.03-.05-.02-.07-.02-.06-.02-.06-.01-.06-.01-.06-.01h-.25l-.06.01-.06.01-.06.01-.06.02-.06.02-.06.02-.05.03-.06.02-.05.03-.06.04-.05.03-.05.04-.05.04-.05.05-.04.05-.05.05-.15-.13.05-.06.05-.06.05-.05.06-.05.06-.04.06-.04.06-.04.07-.04.06-.03.07-.03.07-.02.06-.03.07-.01.07-.02.07-.01.07-.01.08-.01h.14l.07.01.07.01.07.01.07.02.07.01.07.03.07.02.07.03.06.03.07.04.06.04.06.04.07.05zm0 0l.26.22-.26-.22zm18.47 3.83l.01.2-.7.03-.7.01-.7.01-.7-.01-.69-.01-.69-.02-.69-.03-.68-.04-.68-.04-.66-.06-.67-.07-.65-.07-.65-.09-.64-.09-.62-.11-.62-.11-.61-.12-.59-.13-.58-.15-.57-.15-.55-.16-.54-.17-.53-.18-.5-.2-.5-.2-.47-.21-.45-.22-.44-.24-.42-.24-.39-.26-.38-.26-.35-.28.13-.16.34.27.37.26.39.25.41.24.43.23.45.23.47.21.48.19.5.2.52.18.54.17.55.16.56.15.58.14.59.13.6.12.61.11.63.11.63.09.64.08.65.08.66.07.67.05.67.05.68.04.68.03.69.02.69.01h1.39l.7-.02.7-.02zm18.53-5.23l.14.14-.3.29-.33.28-.35.27-.38.27-.41.26-.42.25-.45.24-.47.23-.49.23-.51.22-.53.21-.55.21-.56.19-.58.19-.6.18-.61.18-.62.16-.64.15-.65.15-.66.14-.68.13-.68.13-.69.11-.7.11-.71.09-.71.09-.73.08-.72.07-.73.06-.73.05-.74.04-.73.03-.01-.2.73-.03.73-.04.73-.06.73-.06.72-.06.72-.08.71-.09.71-.1.7-.1.69-.11.68-.13.66-.13.66-.14.65-.14.64-.16.62-.16.61-.17.59-.18.57-.19.57-.19.54-.21.52-.21.51-.21.48-.23.47-.23.44-.24.42-.25.39-.25.38-.26.34-.27.33-.27.29-.28zm2.11-.01l-.14.15-.05-.05-.05-.04-.05-.04-.06-.04-.05-.03-.05-.03-.06-.03-.06-.02-.06-.03-.06-.02-.06-.01-.06-.01-.06-.01-.06-.01-.06-.01h-.13l-.06.01-.06.01-.06.01-.06.01-.06.02-.06.02-.06.02-.06.02-.05.03-.06.03-.05.04-.06.03-.05.04-.05.05-.05.04-.14-.14.06-.05.05-.05.06-.05.06-.04.07-.04.06-.04.07-.03.06-.03.07-.03.07-.02.07-.02.07-.01.07-.02h.07l.07-.01H40.75l.07.01h.07l.07.02.07.01.07.02.07.02.07.03.06.03.07.03.06.03.07.04.06.05.06.04.05.05.06.05zm.01 2.11l-.15-.14.05-.05.04-.05.04-.05.04-.05.03-.06.03-.05.03-.06.02-.06.03-.06.02-.05.01-.06.01-.07.01-.06.01-.06.01-.06v-.12l-.01-.07-.01-.06-.01-.06-.01-.06-.02-.06-.02-.06-.02-.06-.02-.05-.03-.06-.03-.06-.04-.05-.03-.05-.04-.05-.05-.05-.04-.05.14-.15.05.06.05.06.05.06.04.06.04.06.04.06.03.07.03.07.03.06.02.07.02.07.01.07.02.07v.07l.01.07V33.03l-.01.07v.07l-.02.07-.01.07-.02.07-.02.07-.03.07-.03.07-.03.06-.03.07-.04.06-.05.06-.04.06-.05.06-.05.05zm-20.55 6.11v-.2l.79-.04.79-.04.79-.06.79-.07.78-.08.78-.09.77-.1.77-.11.76-.12.75-.13.74-.14.74-.15.72-.16.71-.17.7-.17.68-.19.67-.2.65-.21.64-.21.62-.23.6-.23.58-.25.56-.25.55-.26.52-.27.49-.28.48-.29.45-.29.42-.3.4-.31.37-.32.34-.33.15.14-.35.34-.38.32-.41.32-.43.31-.45.3-.48.29-.51.28-.52.27-.55.26-.57.26-.58.24-.61.24-.62.23-.65.22-.65.2-.68.2-.68.19-.7.18-.72.17-.72.16-.74.15-.74.14-.76.13-.76.12-.77.12-.77.09-.79.09-.78.08-.79.07-.8.06-.79.05-.8.03zM.72 35.62l.13-.16.4.31.42.3.45.29.46.28.49.27.5.25.53.24.54.24.56.22.58.21.59.19.61.19.62.18.64.16.65.15.66.14.68.14.68.12.7.11.7.09.71.09.72.08.73.07.73.05.74.05.74.03.75.03.74.02h1.51l.75-.02.76-.02v.2l-.75.03-.76.01-.75.01-.76-.01-.75-.02-.75-.02-.74-.04-.74-.04-.74-.06-.73-.07-.72-.08-.72-.08-.7-.1-.7-.11-.69-.12-.68-.14-.66-.14-.66-.15-.64-.17-.63-.17-.61-.19-.6-.2-.58-.21-.57-.22-.55-.24-.53-.24-.51-.26-.49-.27-.47-.28-.45-.3-.43-.31-.41-.31zm.13-.16l.18.15-.18-.15z" class="fil5"/><path d="M12 29.1c.46 0 .83.38.83.84v7.37c0 .46-.37.84-.83.84-.46 0-.83-.38-.83-.84v-7.37c0-.46.37-.84.83-.84z" class="fil0"/><path id="1" d="M12 29.2V29v.2zm.94.74h-.21v-.08l-.01-.03v-.04l-.01-.04-.01-.03-.01-.03-.02-.04-.01-.03-.02-.03-.01-.03-.02-.03-.02-.03-.03-.03-.02-.02-.02-.03-.03-.02-.03-.03-.02-.02-.03-.02-.03-.02-.03-.02-.03-.01-.04-.02-.03-.01-.03-.01-.04-.01-.03-.01-.04-.01h-.07L12 29.2V29h.05l.04.01h.05l.05.01.04.01.05.01.04.02.04.02.04.01.04.02.04.03.04.02.04.03.03.03.04.02.03.04.03.03.03.03.03.04.02.03.03.04.02.04.02.04.02.04.02.05.01.04.02.04.01.05v.04l.01.05v.05l.01.05zm-.21 7.37v-7.37h.21v7.37h-.21zm-.73.94v-.21H12.11l.04-.01.03-.01.04-.01.03-.01.03-.01.04-.02.03-.02.03-.01.03-.02.03-.02.02-.02.03-.03.03-.02.02-.03.02-.02.03-.03.02-.03.02-.03.01-.03.02-.03.01-.03.02-.04.01-.03.01-.04.01-.03v-.04l.01-.03v-.08h.21l-.01.05v.05l-.01.04v.05l-.01.05-.02.04-.01.04-.02.05-.02.04-.02.04-.02.04-.03.03-.02.04-.03.04-.03.03-.03.03-.03.03-.04.03-.03.03-.04.03-.04.02-.04.02-.04.02-.04.02-.04.02-.04.01-.05.02-.04.01-.05.01h-.05l-.04.01H12zm0-.21v.21-.21zm-.94-.73h.21v.08l.01.03v.04l.01.03.01.04.01.03.01.04.02.03.02.03.01.03.02.03.02.03.02.03.03.02.02.03.03.02.02.03.03.02.03.02.03.02.03.01.03.02.04.02.03.01.03.01.04.01.03.01.04.01H12v.21h-.05l-.05-.01h-.04l-.05-.01-.04-.01-.05-.02-.04-.01-.05-.02-.04-.02-.04-.02-.04-.02-.03-.02-.04-.03-.04-.03-.03-.03-.03-.03-.03-.03-.03-.03-.03-.04-.03-.04-.02-.03-.02-.04-.02-.04-.02-.04-.02-.05-.01-.04-.02-.04-.01-.05-.01-.05v-.04l-.01-.05v-.05zm.21-7.37v7.37h-.21v-7.37h.21zM12 29v.2l-.04.01h-.07l-.04.01-.03.01-.04.01-.03.01-.03.01-.04.02-.03.01-.03.02-.03.02-.03.02-.03.02-.02.03-.03.02-.02.03-.03.02-.02.03-.02.03-.02.03-.01.03-.02.03-.02.03-.01.04-.01.03-.01.03-.01.04v.04l-.01.03v.08h-.21v-.05l.01-.05v-.05l.01-.04.01-.05.02-.04.01-.04.02-.05.02-.04.02-.04.02-.04.02-.04.03-.03.03-.04.03-.03.03-.03.03-.04.03-.02.04-.03.04-.03.03-.02.04-.03.04-.02.04-.01.05-.02.04-.02.05-.01.04-.01.05-.01h.04l.05-.01H12z" class="fil5"/><path d="M28.55 28.36c.46-.05.87.27.93.73l.9 7.32c.06.45-.27.87-.72.93h-.01c-.45.05-.87-.27-.92-.73l-.9-7.32c-.06-.45.27-.87.72-.93z" class="fil0"/><path id="1" d="M28.55 28.46v-.2l.01.2h-.01zm1.03.61l-.2.03-.01-.04v-.03l-.01-.04-.01-.03-.02-.04-.01-.03-.02-.03-.01-.03-.02-.04-.02-.02-.02-.03-.03-.03-.02-.03-.02-.02-.03-.02-.03-.03-.02-.02-.03-.02-.03-.02-.04-.01-.03-.02-.03-.01-.03-.01-.04-.01-.03-.01-.04-.01-.03-.01h-.19l-.02-.2h.05l.04-.01h.05l.05.01h.04l.05.01.04.01.05.01.04.01.04.02.05.02.04.02.04.02.04.02.03.03.04.02.03.03.04.03.03.03.03.04.03.03.02.04.03.03.02.04.03.04.02.04.01.05.02.04.01.05.02.04v.05l.01.04zm.7 7.35l-.9-7.32.2-.03.9 7.32-.2.03zm-.62 1.02v-.21l-.02.01.04-.01.04-.01.03-.01.04-.01.03-.01.03-.01.04-.02.03-.02.03-.02.03-.01.03-.03.02-.02.03-.02.02-.03.03-.02.02-.03.02-.03.02-.03.02-.03.02-.03.01-.03.01-.03.02-.04.01-.03.01-.04v-.03l.01-.04v-.07l.01-.04-.01-.03v-.04l.2-.03.01.05v.14l-.01.05-.01.05-.01.04-.01.05-.01.04-.02.04-.01.04-.02.04-.02.04-.03.04-.02.04-.03.03-.03.04-.03.03-.03.03-.03.03-.04.03-.03.03-.04.03-.04.02-.04.02-.04.02-.04.02-.05.02-.04.01-.05.01-.04.01-.05.01h-.01zm-.01-.21h.01v.21h-.01l-.01-.2.01-.01zm-1.03-.61l.21-.02v.04l.01.03.01.04.01.03.01.04.02.03.01.03.02.03.02.03.02.03.02.03.02.03.02.02.03.03.03.02.02.02.03.03.03.02.03.01.03.02.03.02.04.01.03.01.03.01.04.01.03.01h.04l.03.01h.15l.03.2H29.43l-.04-.01-.05-.01-.04-.01-.05-.02-.04-.01-.04-.02-.04-.02-.04-.02-.04-.02-.04-.03-.03-.02-.04-.03-.03-.03-.03-.04-.03-.03-.03-.03-.03-.04-.02-.04-.03-.03-.02-.04-.02-.05-.02-.04-.01-.04-.02-.05-.01-.04-.01-.05-.01-.05zm-.69-7.34l.9 7.32-.21.02-.9-7.32.21-.02zm.62-1.02v.2h.01l-.03.01-.04.01-.04.01-.03.01-.04.01-.03.01-.03.02-.03.02-.03.01-.03.02-.03.02-.03.03-.02.02-.03.03-.02.02-.02.03-.02.03-.02.03-.02.03-.02.03-.01.03-.02.03-.01.04-.01.03-.01.03-.01.04v.03l-.01.04V29.24l.01.04-.21.02V29.07l.01-.05.01-.04.01-.05.02-.04.01-.04.02-.04.02-.04.02-.04.02-.04.03-.04.03-.04.02-.03.04-.03.03-.04.03-.03.03-.03.04-.02.04-.03.04-.02.04-.02.04-.02.04-.02.04-.02.05-.01.04-.01.05-.01.05-.01h.01z" class="fil5"/><path d="M3.57 17.34C2.51 21.6 1.17 25.82.1 30.08c.1.93 1.84-.21 2.76-.31-.13.52-.25 1.04-.38 1.56-.81 1.62 2.56-.15 4.32.25l-.12 1.38c-.46 1.7 3.61.43 6.2.13 2.12 1.35 3.04.21 4.38-.38 1.28.34 2.11.28 2.19-.44 1.57 1.05 2.56 1 3.07 0 .31-1.43 1.62.72 3.63.19-.04-.44-.08-.88-.12-1.31 1.23.29.99 1.92 3.25 1.5.37-.19.21-.75.32-1.13 1.39.08 1.28 1.17 4.19.25.31-.25.63-.5.94-.75.88-.42 2.95.28 2.63-1.25 1.32-.09 2.42.81 3.94-.25-1.01-3.95-2.09-9.77-3.11-13.72-10.02.73-18.94 4.06-28.61 3.64-1.81-.04-5.69-.89-6.01-2.1z" class="fil3"/><path id="1" d="M.2 30.07l-.2.02v-.03l.1-.4.11-.4.1-.4.11-.4.1-.4.11-.4.11-.4.11-.39.11-.4.11-.4.11-.4.11-.4.11-.39.12-.4.11-.4.11-.4.11-.39.12-.4.11-.4.11-.4.11-.39.11-.4.11-.4.11-.4.11-.4.11-.39.11-.4.11-.4.1-.4.1-.4.11-.39.1-.4.19.05-.1.39-.1.41-.1.39-.11.4-.1.4-.11.4-.11.4-.11.4-.11.39-.11.4-.11.4-.11.4-.11.4-.12.39-.11.4-.11.4-.12.4-.11.39-.11.4-.11.4-.11.4-.12.39-.11.4-.11.4-.11.4-.1.4-.11.39-.11.4-.1.4-.11.4-.1.4-.1.4v-.04zm-.2.02v-.03.03zm2.96-.3l-.2-.05.11.13-.08.01-.09.02-.09.02-.1.03-.1.03-.11.03-.1.04-.11.04-.11.04-.11.04-.11.04-.12.04-.11.04-.11.04-.11.04-.11.04-.1.03-.11.03-.1.03-.1.02-.09.01-.09.01-.09.01-.09-.01-.08-.01-.07-.03-.08-.04-.06-.05-.05-.06-.04-.08-.03-.08-.02-.1.2-.02.02.07.01.05.03.04.02.04.04.02.03.02.05.02.06.01h.13l.08-.01.09-.01.09-.02.09-.03.1-.02.1-.04.11-.03.1-.04.11-.04.11-.04.11-.04.12-.04.11-.04.11-.04.11-.04.11-.04.11-.04.1-.03.1-.03.11-.02.09-.02.1-.01.11.12zm-.11-.12l.14-.02-.03.14-.11-.12zm-.28 1.71l-.18-.09-.01.02.02-.05.01-.05.01-.05.01-.05.01-.05.01-.04.02-.05.01-.05.01-.05.01-.05.01-.05.01-.05.02-.05.01-.05.01-.04.01-.05.01-.05.02-.05.01-.05.01-.05.01-.05.01-.05.01-.04.02-.05.01-.05.01-.05.01-.05.01-.05.01-.05.02-.05.01-.05.01-.05.2.05-.01.05-.02.05-.01.05-.01.05-.01.05-.01.04-.01.05-.02.05-.01.05-.01.05-.01.05-.01.05-.02.05-.01.05-.01.05-.01.04-.01.05-.01.05-.02.05-.01.05-.01.05-.01.05-.01.05-.01.05-.02.04-.01.05-.01.05-.01.05-.01.05-.01.05-.02.05-.01.05-.01.02zm.01-.02v.01l-.01.01.01-.02zm4.32.23l-.2-.02.08.11-.16-.03-.17-.02h-.37l-.19.01-.2.01-.2.03-.2.02-.21.04-.2.03-.21.04-.2.04-.2.05-.19.04-.2.04-.18.04-.18.03-.17.03-.16.02-.15.02-.14.01h-.13l-.12-.01-.11-.02-.1-.04-.08-.06-.06-.09-.04-.1v-.11l.02-.13.04-.13.07-.15.18.09-.06.13-.03.11-.02.09v.07l.02.04.02.03.04.03.06.02.08.02.09.01h.12l.13-.01.14-.02.16-.02.16-.03.18-.03.18-.04.19-.04.2-.04.2-.04.2-.05.21-.04.21-.03.21-.04.21-.03.2-.02.21-.02.2-.01h.19l.19.01.19.02.18.03.07.11zm-.07-.11l.08.02-.01.09-.07-.11zm-.05 1.51l-.2-.05v.01-.08l.01-.05v-.04l.01-.04v-.09l.01-.04v-.05l.01-.04v-.08l.01-.05v-.04l.01-.04v-.09l.01-.04v-.05l.01-.04v-.08l.01-.05v-.08l.01-.05v-.04l.01-.04v-.09l.01-.04v-.05l.2.02v.09l-.01.04v.04l-.01.05v.08l-.01.05v.08l-.01.05v.04l-.01.04v.09l-.01.04v.04l-.01.05v.08l-.01.05v.04l-.01.04v.09l-.01.04v.05l-.01.04v.08l-.01.05v.06zm0-.02v.02-.02zm6.15.03l-.11.17.07.02-.25.03-.25.03-.26.04-.26.05-.27.04-.28.05-.27.05-.28.05-.28.05-.27.05-.27.05-.27.05-.27.04-.26.04-.26.04-.24.02-.24.03-.23.02-.22.01h-.21l-.19-.01-.18-.01-.17-.03-.15-.04-.14-.06-.12-.07-.1-.09-.08-.1-.05-.13-.03-.14.01-.15.03-.16.2.05-.03.13v.12l.01.1.03.08.06.07.07.06.09.05.11.04.13.04.15.02.17.02.19.01.2-.01.21-.01.22-.01.24-.03.24-.03.25-.03.26-.04.26-.04.27-.05.27-.05.28-.05.27-.05.28-.05.28-.05.27-.05.27-.04.27-.05.26-.04.26-.03.25-.03.06.01zm-.06-.01l.03-.01.03.02-.06-.01zm4.42-.38l-.06.2.07-.01-.12.06-.12.06-.12.06-.12.06-.12.06-.11.07-.12.06-.11.07-.12.06-.12.06-.12.06-.12.06-.12.05-.12.05-.13.05-.12.04-.13.03-.14.03-.13.02-.14.01H14.56l-.16-.02-.15-.02-.16-.03-.17-.05-.17-.05-.17-.07-.18-.08-.19-.1-.19-.11-.2-.12.11-.17.19.12.19.1.18.09.17.08.16.06.16.06.16.04.14.03.15.02.14.02h.26l.13-.02.13-.01.12-.03.12-.03.12-.04.12-.04.11-.05.12-.05.11-.05.12-.06.11-.06.12-.06.11-.06.12-.07.12-.06.11-.07.12-.06.13-.06.12-.06.13-.06.07-.01zm-.07.01l.03-.02.04.01-.07.01zm2.29-.43l-.12.17.16-.08-.01.08-.01.07-.03.06-.02.07-.03.05-.04.06-.04.05-.05.05-.05.04-.05.04-.06.03-.06.03-.06.03-.07.02-.07.02-.08.01-.08.01-.07.01h-.36l-.09-.01-.1-.01-.1-.01-.1-.02-.11-.02-.11-.02-.11-.02-.12-.03-.12-.03-.12-.03.06-.2.11.03.12.03.11.03.11.02.11.02.1.02.1.01.09.02.1.01h.09l.08.01h.16l.08-.01h.07l.07-.01.06-.01.06-.02.06-.02.05-.02.05-.02.04-.02.04-.03.03-.03.04-.04.03-.03.02-.04.02-.04.02-.05.02-.05.01-.05.01-.06.16-.07zm-.16.07l.02-.16.14.09-.16.07zm3.07-.01l.2.04-.01.03-.05.09-.06.09-.05.09-.06.08-.07.07-.07.07-.07.06-.08.06-.07.05-.09.04-.08.04-.09.03-.09.02-.1.02-.1.01h-.2l-.1-.01-.11-.01-.11-.02-.12-.03-.12-.03-.12-.04-.12-.05-.12-.05-.13-.06-.13-.07-.14-.07-.13-.07-.14-.09-.15-.09-.15-.09.12-.17.14.09.14.09.14.08.13.07.13.07.13.07.12.05.12.05.11.04.12.04.1.03.11.03.1.02.1.01.09.01h.09l.09-.01h.08l.08-.02.08-.02.07-.02.08-.04.06-.03.07-.04.06-.05.06-.05.06-.06.06-.06.05-.07.05-.08.05-.08.05-.08-.01.02zm.2.04v.02l-.01.01.01-.03zm3.43.18l.2-.02-.07.11-.2.04-.19.03-.18.02h-.18l-.18-.01-.17-.02-.16-.03-.17-.04-.15-.04-.15-.05-.15-.05-.14-.06-.13-.06-.13-.06-.13-.05-.12-.06-.11-.05-.11-.05-.1-.05-.09-.03-.09-.03-.08-.02-.07-.01h-.11l-.05.02-.04.02-.04.04-.04.05-.04.08-.03.09-.03.11-.2-.04.03-.13.05-.12.05-.09.05-.09.08-.06.07-.05.09-.03.09-.01h.09l.1.02.09.02.1.04.1.04.11.04.11.05.11.06.12.05.12.06.13.06.13.05.13.06.14.05.15.04.15.04.15.04.15.03.16.01.16.01h.17l.17-.01.18-.03.18-.04-.08.11zm.2-.02l.01.09-.08.02.07-.11zm-.2-1.4l-.05.19.13-.1v.04l.01.04v.08l.01.04v.04l.01.04v.09l.01.04v.08l.01.04v.04l.01.04v.08l.01.05v.04l.01.04v.08l.01.04v.04l.01.04v.08l.01.05v.08l.01.04v.04l-.2.02v-.04l-.01-.04v-.04l-.01-.04v-.09l-.01-.04v-.08l-.01-.04v-.04l-.01-.04v-.09l-.01-.04v-.04l-.01-.04v-.08l-.01-.04v-.04l-.01-.04v-.09l-.01-.04v-.08l-.01-.04v-.04l-.01-.04v-.08l.12-.11zm-.12.11l-.02-.15.14.04-.12.11zm3.31 1.4l.09.18-.03.01-.21.03-.19.03-.19.01h-.17l-.16-.01-.15-.02-.14-.03-.13-.03-.12-.04-.11-.05-.11-.06-.1-.06-.09-.07-.08-.07-.08-.07-.08-.07-.07-.08-.07-.08-.06-.08-.07-.07-.06-.08-.06-.07-.07-.08-.07-.07-.06-.06-.08-.06-.07-.06-.08-.05-.08-.05-.09-.04-.09-.04-.11-.03.05-.19.12.03.11.04.1.05.1.05.09.06.09.07.07.07.08.07.07.08.07.07.06.08.07.08.06.07.07.08.06.07.07.07.07.07.07.07.08.06.08.06.08.05.1.05.1.05.1.04.12.03.12.02.14.02h.31l.17-.01.18-.02.2-.03-.02.01zm.09.18l-.01.01h-.02l.03-.01zm.27-1.32l-.01.2.1-.07v.03l-.01.03-.01.04v.03l-.01.04V31.83l-.01.04V32.08l-.01.04v.09l-.01.04-.01.04v.04l-.01.04-.01.04-.02.04-.01.04-.02.03-.02.04-.03.04-.03.03-.03.03-.03.03-.04.03-.04.02-.09-.18.02-.02.02-.01.02-.02.02-.02.02-.02.01-.02.02-.02.01-.03.01-.02.01-.03.01-.03.01-.03v-.04l.01-.03v-.04l.01-.03v-.12l.01-.04v-.21l.01-.04v-.04l.01-.04v-.05l.01-.03.01-.04.01-.05.1-.07zm-.1.07l.02-.08.08.01-.1.07zm4.23.2l.12.16-.03.02-.26.08-.25.07-.24.06-.22.05-.2.04-.19.03-.18.02-.17.02h-.3l-.14-.01-.13-.01-.12-.02-.11-.02-.11-.03-.1-.03-.1-.03-.1-.04-.08-.04-.09-.04-.09-.04-.08-.04-.08-.03-.09-.04-.08-.04-.09-.03-.09-.03-.1-.03-.1-.02-.11-.02-.11-.02-.12-.01.01-.2.13.01.13.02.11.02.11.03.11.02.1.04.09.03.09.04.09.04.09.04.08.04.08.04.09.03.08.04.09.03.09.04.09.03.1.02.11.02.11.02.12.01.12.01h.14l.15-.01.16-.01.17-.02.18-.03.2-.04.21-.05.23-.06.25-.07.26-.08-.03.02zm.12.16l-.01.01-.02.01.03-.02zm.84-.92l.08.18.02-.01-.03.02-.03.03-.02.02-.03.02-.03.03-.03.02-.03.02-.03.03-.03.02-.03.02-.03.03-.03.02-.03.02-.03.03-.03.02-.03.03-.03.02-.02.02-.03.03-.03.02-.03.02-.03.03-.03.02-.03.02-.03.03-.03.02-.03.02-.03.03-.03.02-.03.02-.03.03-.03.02-.12-.16.03-.02.03-.02.03-.03.02-.02.03-.03.03-.02.03-.02.03-.03.03-.02.03-.02.03-.03.03-.02.03-.02.03-.03.03-.02.03-.02.03-.03.03-.02.03-.02.02-.03.03-.02.03-.02.03-.03.03-.02.03-.03.03-.02.03-.02.03-.03.03-.02.03-.02.03-.03.03-.02.02-.01zm-.02.01l.01-.01h.01l-.02.01zm2.68-1.27l.02.2.09-.12.02.14.01.14v.12l-.02.12-.03.1-.04.1-.06.08-.06.07-.08.07-.08.05-.09.05-.1.03-.1.03-.11.03-.1.02-.12.01-.11.01-.12.01-.12.01-.12.01H35.8l-.12.01-.12.01h-.11l-.11.01-.11.01-.11.02-.09.02-.09.02-.09.03-.08.03-.08-.18.09-.04.1-.03.1-.03.11-.02.11-.02.12-.01.11-.01.12-.01h.12l.12-.01h.12l.12-.01h.11l.12-.01.11-.01.11-.01.1-.01.1-.02.1-.02.08-.03.08-.03.08-.04.06-.04.05-.04.05-.06.04-.05.03-.07.02-.08.02-.09v-.1l-.01-.11-.02-.13.09-.12zm-.09.12l-.02-.12h.11l-.09.12zm3.95-.25l.19-.05-.04.11-.14.1-.15.08-.14.08-.14.06-.14.06-.13.05-.14.03-.13.03-.13.03-.13.01-.13.01h-.38l-.12-.02-.12-.01-.12-.02-.12-.02-.12-.02-.12-.02-.11-.02-.12-.02-.12-.02-.11-.03-.12-.02-.11-.01-.12-.02-.12-.01-.11-.01-.12-.01h-.12l-.11.01-.02-.2.13-.01h.13l.12.01.12.01.12.01.13.01.12.02.11.02.12.02.12.03.12.02.11.02.12.02.11.02.12.02.12.02.11.01.12.01.11.01h.24l.12-.01.12-.02.12-.02.12-.02.13-.04.12-.04.13-.05.13-.06.13-.07.14-.08.14-.1-.04.11zm.19-.05l.02.07-.06.04.04-.11zM38.2 15.9l-.02-.2.11.07.1.38.09.38.1.4.09.41.1.41.1.42.09.43.1.43.1.44.1.44.1.45.09.45.1.46.1.45.1.46.1.46.1.45.09.46.1.46.1.45.1.45.1.45.09.44.1.44.1.43.1.43.09.42.1.41.1.41.09.39.1.39.09.37-.19.05-.1-.37-.1-.39-.09-.4-.1-.4-.09-.41-.1-.42-.1-.43-.1-.44-.1-.43-.09-.45-.1-.45-.1-.45-.1-.45-.1-.46-.09-.45-.1-.46-.1-.46-.1-.46-.1-.45-.1-.46-.09-.45-.1-.44-.1-.45-.1-.44-.09-.43-.1-.43-.1-.42-.09-.41-.1-.4-.1-.4-.09-.38-.1-.38.11.08zm-.02-.2l.09-.01.02.08-.11-.07zm-28.6 3.84v-.2h.01l.9.02.9.01.89-.01.89-.03.89-.05.88-.06.89-.08.88-.09.88-.11.88-.11.87-.13.88-.14.88-.14.88-.15.87-.16.88-.16.88-.16.88-.17.89-.17.88-.17.89-.16.89-.17.9-.16.89-.16.91-.15.9-.14.91-.13.92-.13.92-.11.92-.11.93-.09.94-.07.02.2-.94.07-.93.09-.92.11-.92.11-.91.13-.91.13-.9.15-.9.15-.9.15-.89.16-.89.17-.89.16-.88.17-.89.17-.88.17-.88.16-.88.16-.88.16-.88.15-.88.14-.88.14-.88.13-.88.11-.88.11-.88.09-.89.08-.89.07-.89.04-.9.03-.89.02-.91-.01-.9-.03zm0-.2h.01-.01zm-5.91-1.97l-.19-.05h.19l.04.09.05.1.07.1.09.09.11.1.12.1.14.09.15.09.17.09.17.09.19.09.2.08.21.08.21.08.23.07.22.07.24.07.23.06.24.06.24.06.24.05.24.05.24.04.23.04.23.04.23.03.22.03.21.03.2.01.2.02.18.01.17.01v.2l-.18-.01-.19-.01-.2-.01-.2-.02-.22-.03-.22-.03-.23-.03-.23-.04-.24-.04-.24-.04-.24-.05-.25-.06-.24-.05-.24-.06-.24-.07-.23-.06-.24-.08-.22-.07-.22-.08-.21-.08-.21-.09-.19-.08-.19-.09-.17-.1-.16-.1-.15-.1-.14-.1-.11-.11-.11-.11-.08-.12-.07-.12-.04-.13h.19zm-.19-.05l.09-.39.1.39h-.19z" class="fil5"/><path d="M21.81 14.2c-.93.03-1.14 1.84-.29 6.25.36 1.35 2.55-.94 4.36-2.48.06-.6.12-1.21.18-1.81-1.04-1.21-2.14-2.32-4.25-1.96z" class="fil6"/><path id="1" d="M21.62 20.42l-.2.05v-.01l-.08-.4-.07-.39-.06-.38-.06-.36-.05-.35-.05-.33-.04-.32-.04-.31-.02-.29-.03-.27-.02-.27-.01-.24-.01-.24v-.23l.01-.21.01-.19.01-.19.02-.17.03-.17.03-.14.03-.14.04-.13.05-.11.06-.11.05-.09.07-.09.07-.07.08-.06.09-.04.09-.04.09-.02.1-.01v.2l-.07.01-.07.02-.06.02-.06.03-.05.05-.06.05-.05.06-.05.08-.04.09-.04.1-.04.11-.03.13-.03.14-.03.15-.02.17-.01.18-.01.19V16.54l.02.24.02.26.02.28.03.28.03.31.04.31.05.33.05.35.06.36.06.37.07.39.08.41v-.01zm-.2.05v-.01.01zm4.35-2.51l.21.03-.04.06-.17.15-.17.15-.17.15-.18.15-.17.16-.18.15-.17.16-.18.15-.17.16-.18.15-.17.14-.17.15-.16.13-.17.13-.16.13-.15.11-.16.11-.15.1-.14.09-.14.08-.14.07-.13.06-.12.04-.12.03-.12.01-.11-.01-.11-.02-.1-.05-.09-.07-.07-.1-.06-.11-.04-.13.2-.05.03.1.04.08.05.06.05.05.06.03.07.01.07.01.09-.01.1-.03.11-.03.12-.05.12-.07.13-.07.14-.09.15-.09.15-.11.15-.11.16-.13.16-.13.16-.13.17-.14.17-.15.17-.15.18-.15.17-.15.18-.16.17-.15.18-.16.17-.15.18-.16.17-.15.17-.14-.04.06zm.21.03l-.01.04-.03.02.04-.06zm0-1.77l.16-.13.02.08v.05l-.01.06-.01.06v.05l-.01.06v.06l-.01.05v.06l-.01.06-.01.05v.06l-.01.06v.05l-.01.06v.06l-.01.06-.01.05v.06l-.01.06v.05l-.01.06-.01.06v.05l-.01.06v.06l-.01.05v.06l-.01.06-.01.06v.05l-.01.06v.06l-.21-.03.01-.05.01-.06v-.06l.01-.05v-.06l.01-.06v-.05l.01-.06.01-.06v-.05l.01-.06v-.06l.01-.05.01-.06v-.06l.01-.06V17l.01-.06v-.06l.01-.05.01-.06v-.06l.01-.05v-.06l.01-.06v-.05l.01-.06.01-.06v-.05l.01-.06v-.06l.01-.06.02.08zm.16-.13l.03.03-.01.05-.02-.08zm-4.33-1.79v-.2h-.02l.2-.03.2-.02.18-.01.19-.01h.17l.17.01.17.02.16.03.16.03.16.03.15.05.14.05.14.05.14.06.14.07.13.07.12.08.13.08.12.08.12.09.11.09.12.1.11.09.11.11.1.1.11.1.1.11.1.11.1.11.1.11.1.12.1.11-.16.13-.09-.11-.1-.11-.1-.11-.1-.11-.1-.11-.1-.1-.1-.11-.1-.1-.11-.09-.11-.1-.11-.09-.11-.09-.11-.08-.11-.08-.12-.08-.12-.07-.13-.07-.12-.06-.13-.06-.14-.05-.14-.05-.14-.04-.14-.03-.15-.03-.15-.03-.16-.01-.17-.01H22.38l-.18.01-.18.02-.19.03h-.02zm.02 0h-.02.02z" class="fil5"/><path d="M32.08 15.13c.91.19.81 2-.77 6.2-.59 1.28-2.36-1.36-3.88-3.17.04-.61.08-1.22.13-1.83 1.22-1.01 2.5-1.91 4.52-1.2z" class="fil6"/><path id="1" d="M31.21 21.29l.14-.38.14-.37.13-.36.11-.35.11-.33.11-.32.09-.3.08-.29.08-.28.07-.27.06-.25.06-.24.04-.23.04-.21.03-.21.03-.19.01-.17.01-.17V16.07l-.01-.13-.02-.12-.02-.1-.03-.1-.04-.08-.04-.08-.04-.06-.05-.05-.05-.04-.06-.04-.07-.02-.07-.02.05-.2.09.03.09.03.08.05.08.06.07.07.05.09.06.09.04.1.03.11.03.13.02.13.01.14.01.15-.01.17-.01.17-.01.19-.03.19-.03.21-.04.22-.04.23-.06.25-.06.25-.07.27-.08.28-.09.3-.09.3-.1.32-.11.34-.12.34-.13.37-.14.37-.14.39-.19-.08zm.19.08zm-3.87-3.2l-.02-.08.14.18.15.17.14.18.15.18.14.19.15.18.15.18.14.19.15.17.14.18.15.17.14.17.14.16.13.16.14.14.13.14.13.13.13.12.12.11.12.1.11.08.11.07.1.05.09.04.09.03.07.01.07-.01.06-.02.06-.03.06-.05.05-.08.05-.09.19.08-.07.12-.07.1-.09.08-.1.06-.1.03-.11.01-.11-.01-.12-.03-.11-.05-.12-.07-.12-.07-.12-.09-.12-.1-.13-.12-.13-.12-.13-.14-.14-.14-.14-.15-.14-.15-.14-.17-.14-.17-.14-.17-.15-.18-.14-.18-.15-.18-.15-.18-.14-.19-.15-.18-.15-.18-.14-.18-.14-.17-.15-.18-.02-.07.2.02zm-.18.05l-.02-.03v-.04l.02.07zm.27-1.81l.04-.07-.01.06v.11l-.01.06v.11l-.01.06v.06l-.01.05v.12l-.01.05v.06l-.01.06v.11l-.01.06v.06l-.01.05v.12l-.01.06v.05l-.01.06v.11l-.01.06v.06l-.01.05v.12l-.01.06-.2-.02v-.06l.01-.05v-.12l.01-.05v-.06l.01-.06v-.11l.01-.06v-.06l.01-.05v-.12l.01-.05v-.06l.01-.06v-.11l.01-.06v-.06l.01-.05v-.12l.01-.05v-.12l.01-.06v-.05l.01-.06v-.11l.04-.07.13.15zm-.17-.08l.01-.05.03-.02-.04.07zm4.6-1.1h-.01l-.18-.07-.18-.05-.17-.04-.18-.03-.16-.03-.16-.02-.16-.01h-.31l-.15.01-.14.02-.15.02-.14.03-.14.03-.13.04-.13.05-.14.05-.13.06-.12.05-.13.07-.12.07-.13.07-.12.07-.12.08-.12.08-.11.09-.12.08-.12.09-.11.09-.12.09-.11.1-.12.09-.13-.15.12-.1.11-.09.12-.1.12-.09.12-.09.12-.09.12-.08.12-.09.12-.08.13-.08.13-.07.13-.07.13-.07.13-.06.14-.06.14-.05.14-.05.14-.04.15-.04.15-.03.15-.03.15-.01.16-.01.16-.01.17.01.16.01.18.02.17.02.18.04.18.05.19.05.19.06h-.01l-.05.2zm0 0h-.01.01z" class="fil5"/><g><path d="M25.93 16.14c-.29.51-.28 1.12-.05 1.83.52.07 1.04.16 1.56.24-.09-.91.07-1.48.32-1.88-.63-.01-1.24-.07-1.83-.19z" class="fil6"/><path id="1" d="M25.89 17.87l-.03.21-.08-.07-.02-.07-.02-.07-.02-.07-.02-.06-.01-.07-.02-.06-.01-.07-.01-.06-.01-.07-.01-.06-.01-.06-.01-.07v-.36l.01-.06.01-.06v-.05l.01-.06.02-.06.01-.05.01-.06.02-.05.02-.06.02-.05.02-.05.03-.06.02-.05.03-.05.18.1-.03.05-.02.04-.02.05-.02.04-.02.05-.01.05-.02.05-.01.05-.02.05-.01.05-.01.05v.05l-.01.05v.06l-.01.05v.22l.01.06v.06l.01.05.01.06.01.06.01.06.01.06.01.07.02.06.02.06.01.06.02.07.02.06-.08-.07zm-.03.21l-.06-.01-.02-.06.08.07zm1.48.14l.2-.02-.11.11h-.05l-.05-.01-.05-.01-.05-.01-.05-.01-.05-.01h-.04l-.05-.01-.05-.01-.05-.01h-.05l-.05-.01-.05-.01-.05-.01-.04-.01h-.05l-.05-.01-.05-.01-.05-.01h-.05l-.05-.01-.05-.01-.05-.01h-.04l-.05-.01-.05-.01h-.05l-.05-.01-.05-.01h-.05l-.05-.01h-.05l.03-.21.05.01.05.01h.05l.05.01.05.01h.05l.05.01.04.01h.05l.05.01.05.01.05.01h.05l.05.01.05.01h.05l.05.01.05.01.05.01.04.01h.05l.05.01.05.01.05.01.05.01h.05l.05.01.05.01.04.01.05.01h.05l.05.01-.12.11zm.2-.02l.02.14-.13-.03.11-.11zm.22-1.77v-.2l.09.15-.02.04-.03.04-.02.03-.02.04-.02.04-.02.05-.01.04-.02.04-.02.05-.02.04-.01.05-.02.05-.01.05-.01.05-.02.05-.01.06-.01.06-.01.05v.06l-.01.06-.01.07v.06l-.01.07V17.88l.01.08v.08l.01.08v.08l-.2.02-.01-.08v-.09l-.01-.08v-.16l-.01-.07v-.08l.01-.07v-.14l.01-.07.01-.07v-.06l.01-.07.01-.06.01-.06.02-.06.01-.06.01-.05.02-.06.01-.05.02-.05.02-.05.02-.05.02-.05.02-.05.02-.04.02-.05.02-.04.03-.04.02-.05.03-.04.08.16zm0-.2h.18l-.09.15-.09-.15zm-1.74-.04l-.18-.1.11-.05.05.01.06.01.05.01.06.01.05.01.06.01.06.01.05.01h.06l.05.01.06.01.06.01h.05l.06.01.06.01h.05l.06.01h.06l.05.01h.06l.06.01h.06l.05.01h.12l.06.01H27.65l.06.01h.05v.2h-.18l-.06-.01H27.35l-.06-.01h-.12l-.06-.01h-.06l-.05-.01h-.06l-.06-.01h-.06l-.06-.01-.05-.01h-.06l-.06-.01-.06-.01-.05-.01h-.06l-.06-.01-.06-.01-.05-.01-.06-.01-.05-.01-.06-.01-.06-.01-.05-.01-.06-.01.11-.05zm-.18-.1l.04-.06.07.01-.11.05z" class="fil5"/></g><g><path d="M25.66 28.99c.4 1.33 1.24.46 2.43-2.49.61-.66 1.43.26 2.27 1.29-.53-3.9-1.49-7.15-2.93-9.68-.51-.05-1.03-.1-1.55-.15-1.81 1.89-1.62 5.85-.22 11.03z" class="fil6"/><path id="1" d="M28.02 26.43l.15.14.02-.03-.11.27-.11.26-.11.25-.1.23-.11.22-.1.21-.1.2-.09.19-.1.17-.09.16-.09.15-.09.14-.09.13-.08.11-.09.1-.08.09-.08.08-.08.06-.08.06-.08.04-.08.03-.09.01-.08-.01-.08-.02-.07-.03-.07-.06-.06-.06-.06-.08-.05-.09-.04-.09-.05-.12-.04-.12.2-.06.04.12.03.1.04.08.05.07.04.06.04.04.04.03.04.02.03.01h.09l.05-.02.06-.03.06-.04.06-.05.08-.07.07-.08.08-.1.08-.1.08-.12.08-.13.09-.15.09-.16.1-.17.09-.18.1-.2.1-.2.1-.22.1-.24.11-.24.11-.26.11-.27.02-.03zm-.02.03l.01-.02.01-.01-.02.03zm2.25 1.34l.21-.02-.18.07-.08-.09-.08-.1-.08-.09-.07-.09-.08-.09-.08-.09-.07-.09-.08-.08-.07-.08-.08-.08-.07-.07-.08-.07-.07-.07-.07-.06-.07-.05-.07-.06-.07-.04-.07-.05-.06-.03-.06-.03-.07-.03-.06-.01-.05-.02H28.47l-.05.02-.05.02-.05.02-.05.04-.05.04-.05.05-.15-.14.06-.06.07-.06.07-.04.07-.04.07-.03.08-.02.07-.01h.08l.08.01.07.02.08.02.08.03.07.04.08.04.07.04.08.06.07.05.08.06.08.07.07.07.08.07.08.08.07.08.08.08.08.09.08.08.07.09.08.1.08.09.08.09.08.1.07.09-.18.08zm.21-.02l.04.35-.22-.28.18-.07zm-3.04-9.57l.02-.2.08.05.14.24.13.25.13.25.12.25.13.26.12.26.11.26.12.27.11.28.11.27.11.29.1.28.1.29.1.3.09.29.1.31.09.3.08.31.09.32.08.31.08.33.08.32.07.33.07.34.07.33.07.35.06.34.06.35.06.35.05.36.06.36.05.37-.21.02-.05-.36-.05-.36-.05-.35-.06-.36-.06-.34-.07-.35-.06-.34-.07-.33-.07-.33-.07-.33-.08-.33-.08-.32-.08-.31-.08-.31-.09-.31-.09-.31-.09-.29-.1-.3-.09-.29-.1-.29-.11-.28-.1-.28-.11-.28-.11-.27-.11-.27-.12-.26-.12-.26-.12-.25-.12-.25-.13-.25-.13-.24-.13-.24.07.05zm.02-.2l.06.01.02.04-.08-.05zm-1.49.02l-.15-.14.09-.04.05.01h.05l.04.01h.05l.05.01h.05l.05.01h.05l.05.01h.04l.05.01h.05l.05.01h.05l.05.01h.05l.05.01h.04l.05.01h.05l.05.01h.05l.05.01h.04l.05.01h.05l.05.01h.05l.05.01h.05l.05.01h.04l-.02.2h-.05l-.04-.01h-.05l-.05-.01h-.05l-.05-.01h-.05l-.05-.01h-.09l-.05-.01h-.05l-.05-.01h-.05l-.05-.01h-.04l-.05-.01h-.05l-.05-.01h-.05l-.05-.01h-.05l-.05-.01h-.04l-.05-.01h-.05l-.05-.01h-.05l-.05-.01h-.05l-.04-.01h-.05l.08-.03zm-.15-.14l.04-.04h.05l-.09.04zm-.04 11.07l-.2.06-.12-.49-.13-.47-.11-.47-.1-.46-.1-.45-.09-.45-.09-.44-.07-.43-.07-.42-.05-.41-.05-.4-.04-.4-.03-.38-.03-.38-.01-.37-.01-.36.01-.35.01-.34.03-.33.03-.32.05-.31.05-.3.07-.29.08-.28.08-.27.1-.25.11-.25.12-.24.13-.22.15-.21.15-.21.17-.18.15.14-.16.17-.15.2-.13.2-.13.21-.12.23-.1.23-.09.25-.09.26-.07.27-.07.28-.05.3-.04.3-.04.31-.02.33-.02.33v.7l.02.36.02.37.03.38.04.4.05.4.06.4.06.42.08.43.08.43.09.45.09.45.11.45.11.47.12.47.13.49v-.01zm-.2.06z" class="fil5"/></g><g><path d="M8.34 24.63c.92 0 1.66.75 1.66 1.67 0 .91-.74 1.66-1.66 1.66-.92 0-1.67-.75-1.67-1.66 0-.92.75-1.67 1.67-1.67z" class="fil7"/><path id="1" d="M10.1 26.3h-.2v-.09l-.01-.07-.01-.08-.01-.08-.02-.08-.02-.07-.03-.07-.02-.07-.03-.07-.04-.07-.04-.06-.04-.07-.04-.06-.05-.06-.05-.06-.05-.05-.05-.05-.06-.05-.06-.05-.06-.04-.06-.04-.07-.04-.07-.03-.06-.03-.08-.03-.07-.03-.07-.02-.08-.02-.08-.01-.07-.01h-.08l-.08-.01v-.2h.09l.09.01.09.01.08.02.09.02.08.02.08.03.08.03.08.03.08.04.07.05.07.04.07.05.07.05.06.06.07.06.05.06.06.06.05.07.05.07.05.07.04.07.04.08.03.08.04.08.02.08.03.08.02.09.01.09.01.08.01.09v.1zm-1.76 1.76v-.2l.08-.01h.08l.07-.01.08-.02.08-.01.07-.02.07-.03.08-.03.06-.03.07-.03.07-.04.06-.04.06-.04.06-.05.06-.05.05-.05.05-.06.05-.05.05-.06.04-.06.04-.07.04-.06.04-.07.03-.07.02-.07.03-.07.02-.07.02-.08.01-.08.01-.08.01-.07v-.08h.2v.09l-.01.09-.01.08-.01.09-.02.09-.03.08-.02.08-.04.08-.03.08-.04.08-.04.07-.05.07-.05.07-.05.07-.06.06-.05.06-.07.06-.06.06-.07.05-.07.05-.07.04-.07.05-.08.04-.08.03-.08.03-.08.03-.08.02-.09.02-.08.02-.09.01-.09.01h-.09zM6.57 26.3h.21V26.45l.01.08.02.08.01.08.03.07.02.07.03.07.03.07.03.07.04.06.04.07.04.06.05.06.05.05.05.06.06.05.05.05.06.05.06.04.07.04.06.04.07.03.07.03.07.03.07.03.08.02.07.01.08.02.08.01h.08l.08.01v.2h-.09l-.09-.01-.09-.01-.09-.02L7.9 28l-.09-.02-.08-.03-.08-.03-.08-.03-.08-.04-.07-.05-.07-.04-.07-.05-.07-.05-.06-.06-.06-.06-.06-.06-.06-.06-.05-.07-.05-.07-.04-.07-.04-.07-.04-.08-.04-.08-.03-.08-.03-.08-.02-.08-.02-.09-.02-.09-.01-.08-.01-.09v-.09zm1.77-1.77v.2l-.08.01h-.08l-.08.01-.08.01-.07.02-.08.02-.07.03-.07.03-.07.03-.07.03-.06.04-.07.04-.06.04-.06.05-.05.05-.06.05-.05.05-.05.06-.05.06-.04.06-.04.07-.04.06-.03.07-.03.07-.03.07-.02.07-.03.07-.01.08-.02.08-.01.08v.16h-.21v-.1l.01-.09.01-.08.02-.09.02-.09.02-.08.03-.08.03-.08.04-.08.04-.08.04-.07.04-.07.05-.07.05-.07.06-.06.06-.06.06-.06.06-.06.07-.05.07-.05.07-.04.07-.05.08-.04.08-.03.08-.03.08-.03.09-.02.08-.02.09-.02.09-.01.09-.01h.09z" class="fil5"/></g><g><path d="M15.04 20.69c.92 0 1.66.74 1.66 1.66 0 .92-.74 1.66-1.66 1.66-.92 0-1.66-.74-1.66-1.66 0-.92.74-1.66 1.66-1.66z" class="fil7"/><path id="1" d="M16.81 22.35h-.21v-.08l-.01-.08-.01-.08-.01-.08-.02-.07-.02-.08-.02-.07-.03-.07-.03-.07-.04-.07-.03-.06-.05-.06-.04-.07-.04-.05-.05-.06-.06-.06-.05-.05-.06-.05-.06-.04-.06-.05-.06-.04-.07-.03-.06-.04-.07-.03-.07-.03-.08-.02-.07-.02-.08-.02-.07-.02-.08-.01h-.16v-.21l.09.01h.09l.09.01.09.02.08.02.08.02.09.03.08.03.07.04.08.04.08.04.07.04.07.05.06.06.07.05.06.06.06.06.05.07.05.06.05.07.05.07.04.08.04.07.04.08.03.08.03.08.02.09.02.08.01.09.02.09v.09l.01.09zm-1.77 1.76v-.2h.08l.08-.01.08-.01.07-.01.08-.02.07-.02.08-.02.07-.03.07-.03.06-.04.07-.03.06-.05.06-.04.06-.05.06-.04.05-.06.06-.05.05-.06.04-.06.04-.06.05-.06.03-.07.04-.06.03-.07.03-.07.02-.08.02-.07.02-.08.01-.07.01-.08.01-.08v-.08h.21l-.01.09v.09l-.02.09-.01.08-.02.09-.02.08-.03.09-.03.08-.04.08-.04.07-.04.07-.05.08-.04.07-.06.06-.05.07-.06.06-.06.06-.07.05-.06.05-.07.05-.07.05-.08.04-.08.04-.07.04-.08.03-.09.03-.08.02-.08.02-.09.01-.09.02h-.18zm-1.77-1.76h.21v.08l.01.08.01.08.01.07.02.08.02.07.02.08.03.07.03.07.04.06.03.07.05.06.04.06.04.06.05.06.06.05.05.06.06.04.06.05.06.04.06.05.07.03.06.04.07.03.07.03.08.02.07.02.07.02.08.01.08.01.08.01h.08v.2h-.18l-.09-.02-.09-.01-.08-.02-.09-.02-.08-.03-.08-.03-.08-.04-.07-.04-.08-.04-.07-.05-.07-.05-.06-.05-.07-.05-.06-.06-.06-.06-.05-.07-.06-.06-.04-.07-.05-.08-.04-.07-.04-.07-.04-.08-.03-.08-.03-.09-.02-.08-.02-.09-.02-.08-.01-.09v-.09l-.01-.09zm1.77-1.77v.21h-.16l-.08.01-.08.02-.07.02-.07.02-.08.02-.07.03-.07.03-.06.04-.07.03-.06.04-.06.05-.06.04-.06.05-.05.05-.06.06-.05.06-.04.05-.04.07-.05.06-.03.06-.04.07-.03.07-.03.07-.02.07-.02.08-.02.07-.01.08-.01.08-.01.08v.08h-.21l.01-.09v-.09l.01-.09.02-.09.02-.08.02-.09.03-.08.03-.08.04-.08.04-.07.04-.08.05-.07.05-.07.05-.06.05-.07.06-.06.06-.06.07-.05.06-.06.07-.04.07-.05.08-.04.07-.04.08-.04.08-.03.08-.03.09-.02.08-.02.09-.02.09-.01h.09l.09-.01z" class="fil5"/></g><g><path d="M14.94 27.82c.92 0 1.67.74 1.67 1.66 0 .92-.75 1.66-1.67 1.66-.91 0-1.66-.74-1.66-1.66 0-.92.75-1.66 1.66-1.66z" class="fil7"/><path id="1" d="M16.71 29.48h-.2l-.01-.08v-.08l-.01-.08-.02-.07-.01-.08-.02-.07-.03-.08-.03-.07-.03-.07-.03-.06-.04-.07-.04-.06-.04-.06-.05-.06-.05-.06-.05-.05-.06-.06-.05-.05-.06-.04-.06-.04-.07-.05-.06-.03-.07-.04-.07-.03-.07-.03-.07-.02-.07-.02-.08-.02-.08-.01-.08-.01-.07-.01h-.09v-.21l.1.01h.09l.08.01.09.02.09.02.08.02.08.03.08.03.08.04.08.04.07.04.07.05.07.04.07.06.06.05.06.06.06.06.06.07.05.06.05.07.04.07.05.08.04.07.03.08.03.08.03.08.02.09.02.08.02.09.01.09.01.09v.09zm-1.77 1.77v-.21h.09l.07-.01.08-.01.08-.01.08-.02.07-.02.07-.02.07-.03.07-.03.07-.04.06-.03.07-.05.06-.04.06-.04.05-.05.06-.06.05-.05.05-.06.05-.06.04-.06.04-.06.04-.07.03-.06.03-.07.03-.07.03-.08.02-.07.01-.08.02-.07.01-.08v-.08l.01-.08h.2v.09l-.01.09-.01.09-.02.09-.02.08-.02.08-.03.09-.03.08-.03.08-.04.07-.05.08-.04.07-.05.07-.05.06-.06.07-.06.06-.06.06-.06.05-.07.06-.07.04-.07.05-.07.04-.08.04-.08.04-.08.03-.08.03-.08.02-.09.02-.09.01-.08.02h-.09l-.1.01zm-1.76-1.77h.2v.08l.01.08.01.08.01.07.02.08.02.07.03.08.03.07.03.07.03.06.04.07.04.06.04.06.05.06.05.06.05.05.05.06.06.05.06.04.06.04.07.05.06.03.07.04.07.03.07.03.07.02.07.02.08.02.08.01.08.01.07.01h.08v.21l-.09-.01h-.09l-.08-.02-.09-.01-.09-.02-.08-.02-.08-.03-.08-.03-.08-.04-.08-.04-.07-.04-.07-.05-.07-.04-.07-.06-.06-.05-.06-.06-.06-.06-.06-.07-.05-.06-.05-.07-.05-.07-.04-.08-.04-.07-.03-.08-.03-.08-.03-.09-.03-.08-.01-.08-.02-.09-.01-.09-.01-.09v-.09zm1.76-1.77v.21h-.08l-.07.01-.08.01-.08.01-.08.02-.07.02-.07.02-.07.03-.07.03-.07.04-.06.03-.07.05-.06.04-.06.04-.06.05-.05.06-.05.05-.05.06-.05.06-.04.06-.04.06-.04.07-.03.06-.03.07-.03.07-.03.08-.02.07-.02.08-.01.07-.01.08-.01.08v.08h-.2v-.09l.01-.09.01-.09.02-.09.01-.08.03-.09.03-.08.03-.08.03-.08.04-.07.04-.08.05-.07.05-.07.05-.06.06-.07.06-.06.06-.06.06-.05.07-.06.07-.04.07-.05.07-.04.08-.04.08-.04.08-.03.08-.03.08-.02.09-.02.09-.02.08-.01h.09l.09-.01z" class="fil5"/></g><g><path d="M21.31 24.2c.92 0 1.67.75 1.67 1.67 0 .92-.75 1.66-1.67 1.66-.91 0-1.66-.74-1.66-1.66 0-.92.75-1.67 1.66-1.67z" class="fil7"/><path id="1" d="M23.08 25.87h-.2l-.01-.08v-.08l-.01-.08-.02-.08-.01-.07-.02-.08-.03-.07-.03-.07-.03-.07-.03-.07-.04-.06-.04-.07-.04-.06-.05-.06-.05-.05-.05-.06-.06-.05-.05-.05-.06-.05-.06-.04-.07-.04-.06-.04-.07-.03-.07-.03-.07-.03-.07-.02-.07-.03-.08-.01-.08-.02-.08-.01h-.16v-.21h.1l.09.01.08.01.09.02.09.02.08.02.08.03.08.03.08.04.08.04.07.04.07.04.07.05.07.05.06.06.06.06.06.06.06.06.05.07.05.07.04.07.05.08.04.07.03.08.03.08.03.08.02.09.02.08.02.09.01.09.01.09v.09zm-1.77 1.76v-.2h.09l.07-.01.08-.01.08-.01.08-.02.07-.02.07-.03.07-.02.07-.04.07-.03.06-.04.07-.04.06-.04.06-.05.05-.05.06-.05.05-.05.05-.06.05-.06.04-.06.04-.06.04-.07.03-.07.03-.07.03-.07.03-.07.02-.07.01-.08.02-.08.01-.07v-.08l.01-.08h.2v.09l-.01.09-.01.09-.02.08-.02.09-.02.08-.03.08-.03.08-.03.08-.04.08-.05.07-.04.07-.05.07-.05.07-.06.06-.06.07-.06.05-.06.06-.07.05-.07.05-.07.05-.07.04-.08.04-.08.03-.08.03-.08.03-.08.03-.09.02-.09.01-.08.01-.09.01h-.1zm-1.76-1.76h.2v.08l.01.08.01.07.01.08.02.08.02.07.03.07.03.07.03.07.03.07.04.07.04.06.04.06.05.06.05.06.05.05.05.05.06.05.06.05.06.04.07.04.06.04.07.03.07.04.07.02.07.03.07.02.08.02.08.01.08.01.07.01h.08v.2h-.09l-.09-.01-.08-.01-.09-.01-.09-.02-.08-.03-.08-.03-.08-.03-.08-.03-.08-.04-.07-.04-.07-.05-.07-.05-.07-.05-.06-.06-.06-.05-.06-.07-.06-.06-.05-.07-.05-.07-.05-.07-.04-.07-.04-.08-.03-.08-.03-.08-.03-.08-.03-.08-.01-.09-.02-.08-.01-.09-.01-.09v-.09zm1.76-1.77v.21H21.16l-.08.01-.08.02-.08.01-.07.03-.07.02-.07.03-.07.03-.07.03-.06.04-.07.04-.06.05-.06.04-.06.05-.05.05-.05.06-.05.05-.05.06-.04.06-.04.07-.04.06-.03.07-.03.07-.03.07-.03.07-.02.08-.02.07-.01.08-.01.08-.01.08v.08h-.2v-.09l.01-.09.01-.09.02-.09.01-.08.03-.09.03-.08.03-.08.03-.08.04-.07.04-.08.05-.07.05-.07.05-.07.06-.06.06-.06.06-.06.06-.06.07-.05.07-.05.07-.04.07-.04.08-.04.08-.04.08-.03.08-.03.08-.02.09-.02.09-.02.08-.01.09-.01h.09z" class="fil5"/></g><g><path d="M33.29 26.48c.92 0 1.67.75 1.67 1.67 0 .92-.75 1.66-1.67 1.66-.91 0-1.66-.74-1.66-1.66 0-.92.75-1.67 1.66-1.67z" class="fil7"/><path id="1" d="M35.06 28.15h-.2l-.01-.08v-.08l-.01-.08-.02-.08-.01-.07-.02-.08-.03-.07-.03-.07-.03-.07-.03-.07-.04-.06-.04-.06-.04-.07-.05-.06-.05-.05-.05-.06-.06-.05-.05-.05-.06-.04-.06-.05-.07-.04-.06-.04-.07-.03-.07-.03-.07-.03-.07-.02-.08-.02-.07-.02-.08-.02-.08-.01h-.16v-.21h.09l.09.01.09.01.09.02.09.02.08.02.08.03.08.03.08.04.08.04.07.04.07.04.07.05.07.06.06.05.06.06.06.06.06.07.05.06.05.07.04.07.05.08.04.07.03.08.03.08.03.08.02.09.02.08.02.09.01.09.01.09v.09zm-1.77 1.76v-.2h.08l.08-.01.08-.01.08-.01.07-.02.08-.02.07-.02.07-.03.07-.03.07-.04.06-.04.07-.04.06-.04.06-.05.05-.04.06-.06.05-.05.05-.06.05-.06.04-.06.04-.06.04-.07.03-.06.03-.07.03-.07.03-.08.02-.07.01-.08.02-.07.01-.08v-.08l.01-.08h.2v.09l-.01.09-.01.09-.02.08-.02.09-.02.08-.03.09-.03.08-.03.07-.04.08-.05.07-.04.08-.05.06-.05.07-.06.07-.06.06-.06.06-.06.05-.07.05-.07.05-.07.05-.07.04-.08.04-.08.04-.08.03-.08.02-.08.03-.09.02-.09.01-.09.02h-.18zm-1.76-1.76h.2v.08l.01.08.01.08.01.07.02.08.02.07.03.08.03.07.03.07.03.06.04.07.04.06.04.06.05.06.05.06.05.05.05.06.06.04.06.05.06.04.06.04.07.04.07.04.07.03.07.03.07.02.07.02.08.02.08.01.07.01.08.01h.08v.2h-.18l-.08-.02-.09-.01-.09-.02-.08-.03-.08-.02-.08-.03-.08-.04-.08-.04-.07-.04-.07-.05-.07-.05-.07-.05-.06-.05-.06-.06-.06-.06-.06-.07-.05-.07-.05-.06-.05-.08-.04-.07-.04-.08-.03-.07-.03-.08-.03-.09-.03-.08-.02-.09-.01-.08-.01-.09-.01-.09v-.09zm1.76-1.77v.21h-.16l-.07.01-.08.02-.08.02-.07.02-.07.02-.07.03-.07.03-.07.03-.07.04-.06.04-.06.05-.06.04-.06.05-.05.05-.05.06-.05.05-.05.06-.04.07-.04.06-.04.06-.03.07-.03.07-.03.07-.03.07-.02.08-.02.07-.01.08-.01.08-.01.08v.08h-.2v-.09l.01-.09.01-.09.01-.09.02-.08.03-.09.03-.08.03-.08.03-.08.04-.07.04-.08.05-.07.05-.07.05-.07.06-.06.06-.06.06-.06.06-.05.07-.06.07-.05.07-.04.07-.04.08-.04.08-.04.08-.03.08-.03.08-.02.09-.02.09-.02.08-.01.09-.01h.09z" class="fil5"/></g><g><path d="M36.53 19.83c.92 0 1.66.74 1.66 1.66 0 .92-.74 1.67-1.66 1.67-.92 0-1.67-.75-1.67-1.67 0-.92.75-1.66 1.67-1.66z" class="fil7"/><path id="1" d="M38.29 21.49h-.2v-.08l-.01-.08-.01-.07-.01-.08-.02-.08-.02-.07-.03-.07-.02-.07-.04-.07-.03-.07-.04-.07-.04-.06-.04-.06-.05-.06-.05-.06-.05-.05-.05-.05-.06-.05-.06-.05-.06-.04-.06-.04-.07-.04-.07-.03-.07-.04-.07-.02-.07-.03-.07-.02-.08-.02-.08-.01-.07-.01-.08-.01h-.08v-.2h.09l.09.01.09.01.08.01.09.02.08.03.08.03.08.03.08.03.08.04.07.04.07.05.07.05.07.05.06.06.07.05.05.07.06.06.05.07.05.07.05.07.04.07.04.08.03.08.03.08.03.08.03.08.02.09.01.08.01.09.01.09v.09zm-1.76 1.77v-.2l.08-.01h.08l.07-.01.08-.02.08-.01.07-.02.07-.03.07-.03.07-.03.07-.03.07-.04.06-.04.06-.05.06-.04.06-.05.05-.05.05-.06.05-.05.05-.06.04-.06.04-.07.04-.06.03-.07.04-.07.02-.07.03-.07.02-.08.02-.07.01-.08.01-.08.01-.08v-.08h.2v.09l-.01.09-.01.09-.01.09-.02.08-.03.09-.03.08-.03.08-.03.08-.04.08-.04.07-.05.07-.05.07-.05.07-.06.06-.05.06-.07.06-.06.06-.07.05-.07.05-.07.04-.07.05-.08.04-.08.03-.08.03-.08.03-.08.02-.09.02-.08.02-.09.01-.09.01h-.09zm-1.77-1.77h.2l.01.08v.08l.01.08.02.08.01.07.02.08.03.07.03.07.03.07.03.07.04.06.04.07.05.06.04.06.05.05.05.06.06.05.05.05.06.05.06.04.07.04.06.04.07.03.07.03.07.03.07.03.08.02.07.01.08.02.08.01h.08l.08.01v.2h-.09l-.09-.01-.09-.01-.09-.02-.08-.02-.09-.02-.08-.03-.08-.03-.08-.03-.08-.04-.07-.05-.07-.04-.07-.05-.07-.05-.06-.06-.06-.06-.06-.06-.06-.06-.05-.07-.05-.07-.04-.07-.05-.07-.04-.08-.03-.08-.03-.08-.03-.08-.02-.09-.02-.08-.02-.09-.01-.09-.01-.09v-.09zm1.77-1.76v.2h-.08l-.08.01-.08.01-.08.01-.07.02-.08.02-.07.03-.07.02-.07.04-.07.03-.06.04-.07.04-.06.04-.06.05-.05.05-.06.05-.05.05-.05.06-.05.06-.04.06-.04.06-.04.07-.03.07-.03.07-.03.07-.03.07-.02.07-.01.08-.02.08-.01.07v.08l-.01.08h-.2v-.09l.01-.09.01-.09.02-.08.02-.09.02-.08.03-.08.03-.08.03-.08.04-.08.05-.07.04-.07.05-.07.05-.07.06-.06.06-.07.06-.05.06-.06.07-.05.07-.05.07-.05.07-.04.08-.04.08-.03.08-.03.08-.03.09-.03.08-.02.09-.01.09-.01.09-.01h.09z" class="fil5"/></g><g><path d="M41.17 29c-.12.03-.25.04-.38.04-.92 0-1.67-.74-1.67-1.66 0-.79.56-1.46 1.3-1.63.25 1.15.5 2.25.75 3.25zm-38.3-8.97c-.19.69-.38 1.37-.57 2.05.26.58.84.98 1.52.98.92 0 1.66-.74 1.66-1.66 0-.92-.74-1.67-1.66-1.67-.35 0-.68.12-.95.3zM1.4 25.25c-.3 1.07-.6 2.14-.88 3.21.14.04.28.06.43.06.92 0 1.67-.74 1.67-1.66 0-.77-.52-1.41-1.22-1.61z" class="fil7"/><path id="1" d="M40.79 29.14v-.2H40.9l.01-.01h.08l.02-.01h.05l.01-.01h.04l.01-.01h.03l.05.2h-.04l-.01.01h-.04l-.01.01h-.05l-.02.01h-.07l-.02.01h-.15zm-1.77-1.76h.2l.01.08v.08l.01.08.02.07.01.08.02.07.03.08.03.07.03.06.03.07.04.07.04.06.04.06.05.06.05.06.05.05.06.05.05.05.06.05.06.04.07.04.06.04.07.04.07.03.07.03.07.02.08.02.07.02.08.01.08.01.08.01h.08v.2h-.09l-.1-.01-.08-.01-.09-.01-.09-.02-.08-.03-.08-.02-.08-.04-.08-.03-.08-.04-.07-.04-.07-.05-.07-.05-.07-.05-.06-.06-.06-.05-.06-.06-.06-.07-.05-.07-.05-.07-.04-.07-.05-.07-.04-.08-.03-.07-.03-.09-.03-.08-.02-.08-.02-.09-.02-.08-.01-.09-.01-.09v-.09zm1.5-1.65l-.2.05.12.07-.06.02-.07.02-.06.02-.06.02-.06.03-.06.03-.06.03-.05.03-.06.04-.05.04-.05.04-.05.04-.05.04-.04.05-.05.05-.04.05-.04.05-.04.05-.03.05-.03.06-.04.06-.02.06-.03.06-.02.06-.03.06-.01.06-.02.07-.01.06-.01.07-.01.07v.07l-.01.07h-.2v-.08l.01-.08v-.07l.02-.08.01-.07.02-.08.02-.07.02-.07.03-.07.03-.07.03-.06.04-.07.04-.06.04-.07.04-.05.04-.06.05-.06.05-.05.05-.05.05-.05.06-.05.06-.05.06-.04.06-.04.06-.04.07-.03.06-.03.07-.03.07-.03.07-.03.07-.02.08-.01.12.07zm-.12-.07l.1-.03.02.1-.12-.07zm.8 3.44l-.05-.2-.08.12-.02-.09-.02-.1-.03-.09-.02-.1-.02-.09-.03-.1-.02-.1-.02-.1-.03-.1-.02-.09-.02-.1-.03-.1-.02-.1-.02-.1-.03-.1-.02-.11-.02-.1-.03-.1-.02-.1-.03-.11-.02-.1-.02-.1-.03-.11-.02-.1-.02-.11-.03-.1-.02-.11-.03-.11-.02-.1-.02-.11-.03-.11-.02-.1.2-.05.02.11.03.11.02.1.02.11.03.11.02.1.02.11.03.1.02.11.03.1.02.1.02.11.03.1.02.1.02.11.03.1.02.1.02.1.03.1.02.1.02.1.03.1.02.1.02.1.03.09.02.1.02.1.03.09.02.1.02.09.03.1.02.09-.07.13zm.07-.13l.03.1-.1.03.07-.13zM2.39 22.04l-.18.08-.01-.07.02-.06.02-.07.02-.06.01-.07.02-.06.02-.06.02-.07.02-.06.01-.06.02-.07.02-.06.02-.07.02-.06.01-.06.02-.07.02-.06.02-.06.01-.07.02-.06.02-.07.02-.06.02-.06.01-.07.02-.06.02-.07.02-.06.01-.06.02-.07.02-.06.02-.06.01-.07.02-.06.2.05-.02.06-.02.07-.02.06-.01.07-.02.06-.02.06-.02.07-.01.06-.02.07-.02.06-.02.06-.01.07-.02.06-.02.06-.02.07-.01.06-.02.07-.02.06-.02.06-.01.07-.02.06-.02.07-.02.06-.02.06-.01.07-.02.06-.02.07-.02.06-.02.06-.01.07-.02.06-.02.06-.01-.06zm-.18.08l-.02-.04.01-.03.01.07zm1.61.84v.2h-.13l-.07-.01-.06-.01-.07-.01-.06-.01-.06-.02-.07-.01-.06-.02-.06-.02-.05-.03-.06-.02-.06-.03-.05-.03-.06-.03-.05-.04-.05-.03-.05-.04-.05-.04-.05-.04-.05-.04-.04-.05-.04-.04-.04-.05-.04-.05-.04-.05-.04-.05-.03-.05-.04-.05-.03-.06-.02-.05-.03-.06.18-.08.03.05.02.05.03.04.03.05.03.05.03.04.04.05.03.04.04.04.04.04.03.04.05.04.04.03.04.04.04.03.05.03.05.03.05.03.04.03.06.02.04.02.06.03.05.01.05.02.06.02.05.01.06.01.06.01.05.01.06.01h.12zm1.56-1.56h.21l-.01.09v.09l-.01.09-.02.08-.02.09-.02.08-.03.08-.03.09-.04.07-.04.08-.04.07-.04.08-.05.06-.06.07-.05.07-.06.06-.06.05-.07.06-.06.05-.07.05-.07.05-.08.04-.07.04-.08.04-.08.03-.08.02-.09.03-.08.02-.09.01-.09.01-.09.01h-.09v-.2h.08l.08-.01.08-.01.08-.01.07-.02.08-.02.07-.02.07-.03.07-.03.07-.04.06-.04.06-.04.07-.04.05-.05.06-.04.06-.06.05-.05.05-.06.04-.06.05-.06.04-.06.03-.07.04-.06.03-.07.03-.07.02-.08.02-.07.02-.08.02-.07v-.08l.01-.08v-.08zm-1.56-1.56v-.21h.09l.09.01.09.01.09.02.08.02.09.02.08.03.08.03.08.04.07.04.08.04.07.04.07.05.06.06.07.05.06.06.06.06.05.06.06.07.05.07.04.07.04.08.04.07.04.08.03.08.03.08.02.09.02.08.02.09.01.09v.09l.01.09h-.21v-.08l-.01-.08v-.08l-.02-.08-.02-.07-.02-.08-.02-.07-.03-.07-.03-.07-.04-.07-.03-.06-.04-.07-.05-.06-.04-.06-.05-.05-.05-.06-.06-.05-.06-.05-.05-.04-.07-.05-.06-.04-.06-.04-.07-.03-.07-.03-.07-.03-.07-.02-.08-.03-.07-.01-.08-.02-.08-.01h-.16zm-.85.22l-.2-.05.04-.06.03-.02.02-.02.03-.01.03-.02.03-.02.03-.01.03-.02.03-.01.03-.02.03-.01.03-.02.03-.01.03-.01.03-.01.03-.01.03-.01.03-.01.04-.01.03-.01.03-.01.04-.01h.03l.03-.01.03-.01h.04l.03-.01H3.72l.03-.01h.07v.21h-.15l-.03.01h-.03l-.03.01h-.03l-.03.01h-.03l-.03.01-.03.01H3.4l-.03.01-.03.01-.02.01-.03.01-.03.01-.03.01-.02.01-.03.01-.03.02-.02.01-.03.01-.02.02-.03.01-.03.01-.02.02-.03.01-.02.02-.02.02.04-.06zm-.2-.05l.01-.04.03-.02-.04.06zM.55 28.36l-.06.2-.07-.12.03-.1.03-.1.02-.1.03-.11.03-.1.02-.1.03-.1.03-.1.02-.1.03-.1.03-.1.03-.1.02-.1.03-.1.03-.1.03-.1.02-.1.03-.1.03-.1.03-.1.02-.1.03-.1.03-.1.03-.1.03-.1.02-.1.03-.1.03-.1.03-.1.03-.1.03-.1.02-.1.2.05-.03.1-.03.1-.02.1-.03.1-.03.1-.03.1-.03.1-.02.1-.03.1-.03.1-.03.1-.03.1-.02.1-.03.1-.03.1-.03.1-.02.1-.03.1-.03.11-.03.1-.02.1-.03.1-.03.1-.03.1-.02.1-.03.1-.03.1-.02.1-.03.1-.03.1-.02.1-.03.1-.07-.13zm-.06.2l-.09-.03.02-.09.07.12zm.46-.14v.2H.81l-.02-.01H.72L.7 28.6H.65l-.02-.01H.6l-.01-.01H.57l-.02-.01H.52l-.01-.01H.49l.06-.2.01.01h.02l.02.01h.03l.02.01h.03l.02.01h.05l.01.01h.08l.01.01H.95zm1.57-1.56h.2v.09l-.01.09-.01.09-.02.08-.02.09-.02.08-.03.08-.03.08-.03.08-.04.08-.05.07-.04.07-.05.07-.05.07-.06.06-.06.07-.06.05-.06.06-.07.05-.07.05-.07.05-.07.04-.08.04-.08.03-.08.03-.08.03-.08.03-.09.02-.09.01-.08.01-.09.01h-.1v-.2h.09l.07-.01.08-.01.08-.01.07-.02.08-.02.07-.03.07-.02.07-.04.07-.03.06-.04.07-.04.06-.04.06-.05.05-.05.06-.05.05-.05.05-.06.05-.06.04-.06.04-.06.04-.07.03-.07.03-.07.03-.07.03-.07.02-.07.01-.08.02-.08.01-.07v-.08l.01-.08zM1.5 25.28l-.2-.05.13-.07.07.02.07.02.06.03.07.02.06.04.07.03.06.04.06.03.05.05.06.04.05.04.06.05.05.05.04.05.05.06.04.05.05.06.04.05.03.07.04.06.03.06.03.06.03.07.02.07.03.07.02.07.01.07.02.07.01.07v.08l.01.07v.08h-.2v-.07l-.01-.07-.01-.06-.01-.07-.01-.06-.01-.06-.02-.07-.02-.06-.02-.05-.03-.06-.02-.06-.03-.06-.03-.05-.04-.05-.03-.06-.04-.05-.04-.04-.04-.05-.04-.05-.04-.04-.05-.04-.05-.04-.05-.04-.05-.04-.05-.03-.06-.03-.05-.03-.06-.03-.05-.03-.06-.02-.06-.02-.07-.02.13-.07zm-.2-.05l.03-.1.1.03-.13.07z" class="fil5"/></g><g><path d="M28.16.72c.92 0 1.66.74 1.66 1.66 0 .92-.74 1.67-1.66 1.67-.92 0-1.66-.75-1.66-1.67 0-.92.74-1.66 1.66-1.66zm10.19 14.16c.16-1.16.15-2.27.01-3.32-.87.06-1.55.78-1.55 1.66 0 .88.68 1.6 1.54 1.66zm-2.17-8.86c-.56-.82-1.18-1.57-1.83-2.24-.79.14-1.39.82-1.39 1.65 0 .91.75 1.66 1.67 1.66.7 0 1.31-.44 1.55-1.07zM32.15 8.8c.92 0 1.67.75 1.67 1.66 0 .92-.75 1.67-1.67 1.67-.92 0-1.66-.75-1.66-1.67 0-.91.74-1.66 1.66-1.66z" class="fil7"/><path id="1" d="M29.93 2.38h-.21V2.3l-.01-.08-.01-.07-.01-.08-.02-.08-.02-.07-.02-.07-.03-.07-.03-.07-.04-.07-.03-.07-.05-.06-.04-.06-.04-.06-.05-.06-.06-.05-.05-.05-.06-.05-.06-.05-.06-.04-.06-.04-.07-.04-.06-.03-.07-.04-.07-.02-.08-.03-.07-.02-.08-.02-.07-.01-.08-.01-.08-.01h-.08v-.2h.09l.09.01.09.01.09.01.08.02.09.03.08.03.08.03.07.03.08.04.08.04.07.05.07.05.06.05.07.06.06.05.06.07.05.06.05.07.05.07.05.07.04.07.04.08.04.08.03.08.03.08.02.08.02.09.02.09.01.08v.09l.01.09zm-1.77 1.77v-.2l.08-.01h.08l.08-.01.07-.02.08-.01.07-.02.08-.03.07-.03.07-.03.06-.03.07-.04.06-.04.06-.04.06-.05.06-.05.05-.05.06-.06.05-.05.04-.06.05-.06.04-.07.03-.06.04-.07.03-.07.03-.07.02-.07.02-.08.02-.07.01-.08.01-.08.01-.08v-.08h.21l-.01.09v.09l-.01.09-.02.09-.02.09-.02.08-.03.08-.03.08-.04.08-.04.08-.04.07-.05.07-.05.07-.05.07-.05.06-.06.06-.06.06-.07.06-.06.05-.07.05-.07.04-.08.05-.08.03-.07.04-.08.03-.08.03-.09.02-.08.02-.09.02-.09.01-.09.01h-.09zm-1.77-1.77h.21v.08l.01.08.01.08.01.08.02.07.02.08.02.07.03.07.03.07.04.07.03.06.05.07.04.06.04.06.05.05.06.06.05.05.06.05.06.05.06.04.06.04.07.04.06.03.07.03.07.03.08.03.07.02.08.01.07.02.08.01h.08l.08.01v.2h-.09l-.09-.01-.09-.01-.09-.02-.08-.02-.08-.02-.09-.03-.08-.03-.08-.04-.07-.03-.08-.05-.07-.04-.07-.05-.06-.05-.07-.06-.06-.06-.06-.06-.05-.06-.05-.07-.05-.07-.05-.07-.04-.07-.04-.08-.04-.08-.03-.08-.03-.08-.02-.08-.02-.09-.01-.09-.02-.09v-.09l-.01-.09zM28.16.62v.2h-.08L28 .83l-.08.01-.07.01-.08.02-.07.02-.08.03-.07.02-.07.04-.06.03-.07.04-.06.04-.06.04-.06.05-.06.05-.05.05-.06.05-.05.06-.04.06-.04.06-.05.06-.03.07-.04.07-.03.07-.03.07-.02.07-.02.07-.02.08-.01.08-.01.07-.01.08v.08h-.21l.01-.09V2.2l.02-.08.01-.09.02-.09.02-.08.03-.08.03-.08.04-.08.04-.08.04-.07.05-.07.05-.07.05-.07.05-.06.06-.07.06-.05.07-.06.06-.05.07-.05.07-.05.08-.04.07-.04.08-.03.08-.03.09-.03.08-.03.08-.02.09-.01.09-.01.09-.01h.09zm10.21 11.04l-.02-.2.11.09.01.1.02.1.01.1.01.1.01.1.01.1.01.1v.1l.01.11v.1l.01.1v.1l.01.11v.63l-.01.1v.11l-.01.1v.11l-.01.11-.01.11-.01.1-.01.11-.01.11-.01.11-.01.11-.01.11-.02.11-.2-.03.01-.11.02-.11.01-.1.01-.11.01-.11.01-.1.01-.11.01-.11v-.1l.01-.11.01-.1V13.49l.01-.1V12.98l-.01-.11v-.2l-.01-.1v-.1l-.01-.1-.01-.1-.01-.1v-.1l-.01-.1-.02-.1-.01-.1-.01-.1-.01-.09.11.08zm-.02-.2l.1-.01.01.1-.11-.09zm-1.44 1.76h-.21l.01-.08v-.09l.01-.09.02-.08.02-.08.02-.08.02-.08.03-.08.03-.07.04-.08.04-.07.04-.07.05-.07.05-.06.05-.07.05-.06.06-.05.06-.06.06-.05.07-.05.06-.05.07-.04.07-.04.08-.04.07-.03.08-.03.08-.03.08-.02.08-.02.08-.02.09-.01.08-.01.02.2-.08.01-.07.01-.08.02-.07.01-.07.02-.07.03-.07.02-.07.03-.06.04-.06.03-.06.04-.06.04-.06.05-.05.04-.06.05-.05.05-.05.06-.04.05-.05.06-.04.06-.03.06-.04.07-.03.06-.03.07-.02.07-.03.07-.02.07-.01.07-.02.07-.01.08V13.22zm1.34 1.65l.2.03-.11.08h-.08l-.09-.02-.08-.01-.08-.02-.08-.03-.08-.02-.08-.03-.07-.04-.07-.04-.07-.04-.07-.04-.07-.05-.06-.05-.06-.05-.06-.05-.06-.06-.05-.06-.06-.07-.04-.06-.05-.07-.04-.07-.04-.07-.04-.07-.03-.08-.03-.07-.02-.08-.02-.08-.02-.09-.02-.08-.01-.08v-.09l-.01-.09h.21v.16l.01.07.02.07.01.08.02.07.02.07.03.07.03.06.03.07.04.06.03.06.04.06.05.06.04.06.05.05.05.05.05.05.06.05.05.04.06.04.06.04.06.04.07.03.07.03.06.03.07.02.07.02.07.02.08.01.07.01.08.01-.11.09zm.2.03l-.01.09-.1-.01.11-.08zM34.37 3.89l-.04-.21.09.03.06.07.07.06.06.06.06.07.06.06.06.07.06.07.06.06.06.07.06.07.06.07.06.06.06.07.05.07.06.07.06.07.06.07.05.07.06.08.06.07.05.07.06.07.06.08.05.07.06.07.05.08.06.07.05.08.05.07.06.08.05.08.05.08-.17.11-.05-.08-.05-.07-.05-.08-.06-.07-.05-.08-.05-.07-.06-.07-.05-.08-.06-.07-.05-.07-.06-.08-.05-.07-.06-.07-.05-.07-.06-.07-.06-.07-.06-.07-.05-.07-.06-.07-.06-.06-.06-.07-.06-.07-.05-.06-.06-.07-.06-.07-.06-.06-.06-.07-.06-.06-.06-.07-.06-.06-.06-.06-.06-.06.09.03zm-.04-.21h.06l.03.03-.09-.03zm-1.27 1.75h-.2v-.09l.01-.08.01-.08.01-.07.01-.08.02-.08.03-.07.02-.08.03-.07.03-.07.04-.07.04-.06.04-.07.04-.06.04-.06.05-.06.05-.06.06-.05.05-.05.06-.05.06-.05.06-.05.06-.04.07-.04.07-.03.07-.04.07-.03.07-.03.07-.02.08-.02.08-.02.07-.02.04.21-.07.01-.07.01-.07.02-.06.03-.07.02-.06.03-.06.03-.06.03-.06.03-.05.04-.06.04-.05.04-.05.05-.05.04-.05.05-.04.05-.05.05-.04.06-.03.05-.04.06-.03.06-.03.06-.03.06-.03.07-.02.06-.02.07-.02.06-.01.07-.01.07-.01.07-.01.07v.08zm1.57 1.56v.2h-.1l-.09-.01-.08-.01-.09-.01-.09-.02-.08-.03-.08-.03-.08-.03-.08-.03-.08-.04-.07-.04-.07-.05-.07-.05-.07-.05-.06-.06-.06-.06-.06-.06-.06-.06-.05-.07-.05-.07-.04-.07-.05-.07-.04-.08-.03-.08-.03-.08-.03-.08-.02-.08-.02-.09-.02-.09-.01-.08-.01-.09v-.09h.2l.01.08v.08l.01.07.01.08.02.08.02.07.03.07.03.07.03.07.03.07.04.07.04.06.04.06.05.06.05.06.05.05.06.05.05.05.06.05.06.04.07.04.06.04.07.03.07.03.07.03.07.03.07.02.08.02.08.01.08.01.07.01h.09zm1.46-.91l.17-.11.01.09-.02.06-.03.06-.03.06-.03.06-.03.05-.04.06-.04.05-.04.06-.04.05-.04.05-.04.04-.05.05-.05.04-.05.04-.05.05-.05.03-.06.04-.05.03-.06.04-.06.03-.06.03-.06.02-.06.03-.07.02-.06.02-.07.01-.06.02-.07.01-.07.01-.07.01h-.13v-.2h.06l.06-.01h.06l.06-.01.06-.01.06-.01.06-.02.05-.02.06-.02.05-.02.06-.02.05-.02.05-.03.05-.03.05-.03.05-.03.05-.04.04-.03.05-.04.04-.04.04-.04.04-.04.04-.05.03-.04.04-.05.03-.04.03-.05.03-.05.03-.05.03-.06.02-.05.02-.05.01.09zm.17-.11l.03.04-.02.05-.01-.09zm-2.34 4.49h-.2l-.01-.08v-.07l-.01-.08-.02-.08-.01-.08-.02-.07-.03-.07-.03-.07-.03-.07-.03-.07-.04-.06-.04-.07-.04-.06-.05-.06-.05-.06-.05-.05-.06-.05-.05-.05-.06-.05-.06-.04-.07-.04-.06-.04-.07-.03-.07-.03-.07-.03-.07-.03-.08-.02-.07-.02-.08-.01-.08-.01h-.08l-.08-.01v-.2h.09l.09.01.09.01.09.02.08.02.09.02.08.03.08.03.08.03.08.04.07.05.07.04.07.05.07.05.06.06.06.06.06.06.06.06.05.07.05.07.04.07.05.07.03.08.04.08.03.08.03.08.02.08.02.09.02.09.01.08.01.09v.09zm-1.77 1.77v-.2l.08-.01h.08l.08-.01.08-.01.07-.02.08-.02.07-.03.07-.03.07-.03.07-.03.06-.04.07-.04.06-.04.06-.05.05-.05.06-.05.05-.05.05-.06.04-.06.05-.06.04-.07.04-.06.03-.07.03-.07.03-.07.03-.07.02-.07.01-.08.02-.08.01-.08v-.07l.01-.09h.2v.1l-.01.09-.01.08-.02.09-.02.09-.02.08-.03.08-.03.08-.04.08-.03.08-.05.07-.04.07-.05.07-.05.07-.06.06-.06.06-.06.06-.06.06-.07.05-.07.05-.07.04-.07.05-.08.04-.08.03-.08.03-.08.03-.09.02-.08.02-.09.02-.09.01-.09.01h-.09zm-1.76-1.77h.2v.09l.01.07.01.08.01.08.02.08.02.07.03.07.02.07.04.07.03.07.04.06.04.07.04.06.05.06.05.06.05.05.05.05.06.05.06.05.06.04.06.04.07.04.07.03.06.03.08.03.07.03.07.02.08.02.08.01.07.01h.08l.08.01v.2h-.09l-.09-.01-.09-.01-.08-.02-.09-.02-.08-.02-.08-.03-.08-.03-.08-.03-.08-.04-.07-.05-.07-.04-.07-.05-.07-.05-.06-.06-.07-.06-.05-.06-.06-.06-.05-.07-.05-.07-.05-.07-.04-.07-.04-.08-.03-.08-.04-.08-.02-.08-.03-.08-.02-.09-.01-.09-.01-.08-.01-.09v-.1zm1.76-1.76v.2l-.08.01h-.08l-.07.01-.08.01-.08.02-.07.02-.07.03-.08.03-.06.03-.07.03-.07.04-.06.04-.06.04-.06.05-.06.05-.05.05-.05.05-.05.06-.05.06-.04.06-.04.07-.04.06-.03.07-.04.07-.02.07-.03.07-.02.07-.02.08-.01.08-.01.08-.01.07v.08h-.2v-.09l.01-.09.01-.08.01-.09.02-.09.03-.08.02-.08.04-.08.03-.08.04-.08.04-.07.05-.07.05-.07.05-.07.06-.06.05-.06.07-.06.06-.06.07-.05.07-.05.07-.04.07-.05.08-.04.08-.03.08-.03.08-.03.08-.02.09-.02.08-.02.09-.01.09-.01h.09z" class="fil5"/></g></g></svg>