<svg xmlns="http://www.w3.org/2000/svg" width="138" height="67" fill-rule="evenodd" clip-rule="evenodd" image-rendering="optimizeQuality" shape-rendering="geometricPrecision" text-rendering="geometricPrecision" viewBox="0 0 427.41 207.58"><defs><style>.str0{stroke:#2b2a29;stroke-width:2.79;stroke-miterlimit:22.9256}.fil1{fill:none;fill-rule:nonzero}.fil5{fill:#f5b2b6}.fil2{fill:#d8ece4}.fil3{fill:#6fa691}</style></defs><g id="Слой_x0020_1"><path fill="#99cfba" d="M339.95.08c48.26 0 87.38 37.96 87.38 84.79 0 46.83-39.12 84.79-87.38 84.79-48.27 0-87.39-37.96-87.39-84.79 28.09 5.18 63.96 6.22 93.09 6.22-.18-28.74 0-65.86-5.7-91.01z"/><path id="1" d="M339.95.08c48.26 0 87.38 37.96 87.38 84.79 0 46.83-39.12 84.79-87.38 84.79-48.27 0-87.39-37.96-87.39-84.79 28.09 5.18 63.96 6.22 93.09 6.22-.18-28.74 0-65.86-5.7-91.01z" class="fil1 str0"/><path d="M358.37 17.24c4.85 22.66 3.26 52.32 3.62 73.07 17.45.26 30.25.18 46.67-1.55 4.06-38.74-24.27-68.22-50.29-71.52z" class="fil2"/><path id="1" d="M358.37 17.24c4.85 22.66 3.26 52.32 3.62 73.07 17.45.26 30.25.18 46.67-1.55 4.06-38.74-24.27-68.22-50.29-71.52z" class="fil1 str0"/><path d="M218.3 30.29c1.08-1.13 2.9-1.18 4.03-.09l131.74 125.62c1.13 1.08 1.17 2.9.09 4.03-1.08 1.14-2.9 1.18-4.03.1L218.4 34.32c-1.14-1.08-1.18-2.89-.1-4.03z" class="fil2"/><path id="1" d="M218.3 30.29c1.08-1.13 2.9-1.18 4.03-.09l131.74 125.62c1.13 1.08 1.17 2.9.09 4.03-1.08 1.14-2.9 1.18-4.03.1L218.4 34.32c-1.14-1.08-1.18-2.89-.1-4.03z" class="fil1 str0"/><path d="M305.98 153.05c15.04 0 27.22 12.18 27.22 27.22s-12.18 27.23-27.22 27.23-27.23-12.19-27.23-27.23c0-15.04 12.19-27.22 27.23-27.22zm0 5.77c11.84 0 21.45 9.61 21.45 21.45 0 11.85-9.61 21.46-21.45 21.46-11.85 0-21.46-9.61-21.46-21.46 0-11.84 9.61-21.45 21.46-21.45z" class="fil3"/><path id="1" d="M305.98 153.05c15.04 0 27.22 12.18 27.22 27.22s-12.18 27.23-27.22 27.23-27.23-12.19-27.23-27.23c0-15.04 12.19-27.22 27.23-27.22zm0 5.77c11.84 0 21.45 9.61 21.45 21.45 0 11.85-9.61 21.46-21.45 21.46-11.85 0-21.46-9.61-21.46-21.46 0-11.84 9.61-21.45 21.46-21.45z" class="fil1 str0"/><path d="M305.98 173.14c3.93 0 7.13 3.2 7.13 7.13 0 3.94-3.2 7.13-7.13 7.13-3.94 0-7.13-3.19-7.13-7.13 0-3.93 3.19-7.13 7.13-7.13z" class="fil2"/><path id="1" d="M305.98 173.14c3.93 0 7.13 3.2 7.13 7.13 0 3.94-3.2 7.13-7.13 7.13-3.94 0-7.13-3.19-7.13-7.13 0-3.93 3.19-7.13 7.13-7.13z" class="fil1 str0"/><path d="M377.03 152.53c15.03 0 27.22 12.19 27.22 27.22 0 15.04-12.19 27.23-27.22 27.23-15.04 0-27.23-12.19-27.23-27.23 0-15.03 12.19-27.22 27.23-27.22zm0 5.77c11.84 0 21.45 9.61 21.45 21.45 0 11.85-9.61 21.46-21.45 21.46-11.85 0-21.46-9.61-21.46-21.46 0-11.84 9.61-21.45 21.46-21.45z" class="fil3"/><path id="1" d="M377.03 152.53c15.03 0 27.22 12.19 27.22 27.22 0 15.04-12.19 27.23-27.22 27.23-15.04 0-27.23-12.19-27.23-27.23 0-15.03 12.19-27.22 27.23-27.22zm0 5.77c11.84 0 21.45 9.61 21.45 21.45 0 11.85-9.61 21.46-21.45 21.46-11.85 0-21.46-9.61-21.46-21.46 0-11.84 9.61-21.45 21.46-21.45z" class="fil1 str0"/><path d="M377.03 172.62c3.93 0 7.13 3.2 7.13 7.13 0 3.94-3.2 7.13-7.13 7.13-3.94 0-7.13-3.19-7.13-7.13 0-3.93 3.19-7.13 7.13-7.13z" class="fil2"/><path id="1" d="M377.03 172.62c3.93 0 7.13 3.2 7.13 7.13 0 3.94-3.2 7.13-7.13 7.13-3.94 0-7.13-3.19-7.13-7.13 0-3.93 3.19-7.13 7.13-7.13z" class="fil1 str0"/><g><path fill="#f08bb2" d="M122.51.08c48.26 0 87.38 37.96 87.38 84.79 0 46.83-39.12 84.79-87.38 84.79-48.27 0-87.39-37.96-87.39-84.79 28.09 5.18 63.96 6.22 93.09 6.22-.18-28.74 0-65.86-5.7-91.01z"/><path id="1" d="M122.51.08c48.26 0 87.38 37.96 87.38 84.79 0 46.83-39.12 84.79-87.38 84.79-48.27 0-87.39-37.96-87.39-84.79 28.09 5.18 63.96 6.22 93.09 6.22-.18-28.74 0-65.86-5.7-91.01z" class="fil1 str0"/></g><g><path d="M140.93 17.24c4.86 22.66 3.26 52.32 3.62 73.07 17.45.26 30.25.18 46.67-1.55 4.06-38.74-24.27-68.22-50.29-71.52z" class="fil2"/><path id="1" d="M140.93 17.24c4.86 22.66 3.26 52.32 3.62 73.07 17.45.26 30.25.18 46.67-1.55 4.06-38.74-24.27-68.22-50.29-71.52z" class="fil1 str0"/></g><g><path d="M.86 30.29c1.08-1.13 2.9-1.18 4.03-.09l131.73 125.62c1.14 1.08 1.18 2.9.1 4.03-1.08 1.14-2.9 1.18-4.03.1L.96 34.32c-1.14-1.08-1.18-2.89-.1-4.03z" class="fil5"/><path id="1" d="M.86 30.29c1.08-1.13 2.9-1.18 4.03-.09l131.73 125.62c1.14 1.08 1.18 2.9.1 4.03-1.08 1.14-2.9 1.18-4.03.1L.96 34.32c-1.14-1.08-1.18-2.89-.1-4.03z" class="fil1 str0"/></g><g><path d="M88.54 153.05c15.03 0 27.22 12.19 27.22 27.22 0 15.04-12.19 27.23-27.22 27.23-15.04 0-27.23-12.19-27.23-27.23 0-15.03 12.19-27.22 27.23-27.22zm0 5.77c11.85 0 21.45 9.61 21.45 21.45 0 11.85-9.6 21.46-21.45 21.46s-21.45-9.61-21.45-21.46c0-11.84 9.6-21.45 21.45-21.45z" class="fil5"/><path id="1" d="M88.54 153.05c15.03 0 27.22 12.19 27.22 27.22 0 15.04-12.19 27.23-27.22 27.23-15.04 0-27.23-12.19-27.23-27.23 0-15.03 12.19-27.22 27.23-27.22zm0 5.77c11.85 0 21.45 9.61 21.45 21.45 0 11.85-9.6 21.46-21.45 21.46s-21.45-9.61-21.45-21.46c0-11.84 9.6-21.45 21.45-21.45z" class="fil1 str0"/></g><g><path d="M88.54 173.14c3.94 0 7.13 3.2 7.13 7.13 0 3.94-3.19 7.13-7.13 7.13s-7.13-3.19-7.13-7.13c0-3.93 3.19-7.13 7.13-7.13z" class="fil2"/><path id="1" d="M88.54 173.14c3.94 0 7.13 3.2 7.13 7.13 0 3.94-3.19 7.13-7.13 7.13s-7.13-3.19-7.13-7.13c0-3.93 3.19-7.13 7.13-7.13z" class="fil1 str0"/></g><g><path d="M159.59 152.53c15.03 0 27.22 12.19 27.22 27.22 0 15.04-12.19 27.23-27.22 27.23-15.04 0-27.23-12.19-27.23-27.23 0-15.03 12.19-27.22 27.23-27.22zm0 5.77c11.84 0 21.45 9.61 21.45 21.45 0 11.85-9.61 21.46-21.45 21.46-11.85 0-21.46-9.61-21.46-21.46 0-11.84 9.61-21.45 21.46-21.45z" class="fil5"/><path id="1" d="M159.59 152.53c15.03 0 27.22 12.19 27.22 27.22 0 15.04-12.19 27.23-27.22 27.23-15.04 0-27.23-12.19-27.23-27.23 0-15.03 12.19-27.22 27.23-27.22zm0 5.77c11.84 0 21.45 9.61 21.45 21.45 0 11.85-9.61 21.46-21.45 21.46-11.85 0-21.46-9.61-21.46-21.46 0-11.84 9.61-21.45 21.46-21.45z" class="fil1 str0"/></g><g><path d="M159.59 172.62c3.94 0 7.13 3.2 7.13 7.13 0 3.94-3.19 7.13-7.13 7.13s-7.14-3.19-7.14-7.13c0-3.93 3.2-7.13 7.14-7.13z" class="fil2"/><path id="1" d="M159.59 172.62c3.94 0 7.13 3.2 7.13 7.13 0 3.94-3.19 7.13-7.13 7.13s-7.14-3.19-7.14-7.13c0-3.93 3.2-7.13 7.14-7.13z" class="fil1 str0"/></g></g></svg>