<svg xmlns="http://www.w3.org/2000/svg" width="136" height="59" fill-rule="evenodd" clip-rule="evenodd" image-rendering="optimizeQuality" shape-rendering="geometricPrecision" text-rendering="geometricPrecision" viewBox="0 0 359.83 156.04"><defs><style>.fil3{fill:#d8ece4}.fil0{fill:#6fa691}.fil2{fill:#99cfba}.fil1{fill:#2b2a29;fill-rule:nonzero}</style></defs><g id="Слой_x0020_1"><g id="_1410046672"><path d="M250.38 114.94c9.71 0 17.58 5.71 17.58 12.75s-7.87 12.75-17.58 12.75c-9.72 0-17.59-5.71-17.59-12.75s7.87-12.75 17.59-12.75z" class="fil0"/><path id="1" d="M268.41 127.69h-.9l-.02-.62-.07-.62-.1-.61-.15-.59-.19-.59-.22-.58-.27-.57-.3-.55-.34-.55-.37-.53-.41-.51-.44-.5-.48-.48-.5-.47-.54-.45-.56-.43-.6-.41-.62-.39-.65-.37-.67-.35-.7-.32-.72-.3-.74-.28-.76-.25-.78-.22-.8-.2-.82-.17-.83-.13-.85-.12-.87-.07-.88-.05-.88-.02v-.89l.92.01.91.05.9.09.88.11.86.14.86.18.83.21.81.23.8.26.77.28.75.32.73.34.71.36.68.39.66.41.62.43.6.46.57.48.54.49.5.52.48.54.44.55.4.57.37.59.32.6.29.62.25.63.2.64.16.66.12.67.07.68.03.68zm-18.03 13.2v-.9l.88-.01.88-.05.87-.08.85-.11.83-.14.82-.17.8-.19.78-.23.76-.25.75-.27.71-.3.7-.33.67-.34.65-.37.62-.39.6-.42.56-.42.54-.45.5-.47.48-.48.44-.5.41-.52.37-.53.34-.54.3-.55.27-.57.22-.58.19-.59.15-.6.1-.61.07-.61.02-.63h.9l-.03.69-.07.68-.12.66-.16.66-.2.65-.25.63-.29.62-.32.6-.37.59-.4.57-.44.55-.48.54-.5.51-.54.5-.57.48-.6.45-.62.43-.66.42-.68.38-.71.37-.73.34-.75.31-.77.29-.8.26-.81.23-.84.21-.85.17-.86.15-.88.11-.9.08-.91.05-.92.02zm-18.03-13.2h.89l.02.63.07.61.1.61.15.6.19.59.23.58.26.57.3.55.34.54.37.53.41.52.44.5.48.48.5.47.54.45.56.42.6.41.62.4.65.37.67.34.7.33.72.3.74.27.76.25.79.23.8.19.81.17.84.14.85.11.86.08.88.05.89.01v.9l-.92-.02-.91-.05-.9-.08-.88-.11-.87-.15-.85-.17-.84-.21-.81-.23-.8-.26-.77-.29-.75-.31-.73-.34-.71-.37-.68-.38-.66-.42-.62-.43-.6-.45-.57-.48-.54-.5-.5-.51-.47-.54-.45-.55-.4-.57-.36-.59-.33-.6-.29-.62-.25-.63-.2-.65-.16-.66-.12-.66-.07-.68-.02-.69zm18.03-13.19v.89l-.89.02-.88.05-.86.07-.85.12-.84.13-.81.17-.8.2-.79.22-.76.25-.74.28-.72.3-.7.32-.67.35-.65.37-.62.39-.6.41-.56.43-.54.45-.5.47-.48.48-.44.5-.41.51-.37.53-.34.55-.3.55-.26.57-.23.58-.19.59-.15.59-.1.61-.07.62-.02.62h-.89l.02-.68.07-.68.12-.67.16-.66.2-.64.25-.63.29-.62.33-.6.36-.59.4-.57.45-.55.47-.54.5-.52.54-.49.57-.48.6-.46.62-.43.66-.41.68-.39.71-.36.73-.34.75-.32.77-.28.8-.26.81-.23.84-.21.85-.18.87-.14.88-.11.9-.09.91-.05.92-.01z" class="fil1"/><path d="M351.43 147.6l-39.21-93.84c-13.87 17.56-20.78-29.68-63.14 4.17.99 27.73.79 40.32 1.78 68.05 51.48-21.66 48.46 17.64 100.57 21.62z" class="fil0"/><path id="1" d="M311.87 53.48l.76.11 1.23 2.93 1.22 2.93 1.23 2.93 1.22 2.94 1.23 2.93 1.22 2.93 1.23 2.94 1.22 2.93 1.23 2.93 1.22 2.93 1.23 2.94 1.22 2.93 1.23 2.93 1.22 2.93 1.23 2.94 1.22 2.93 1.23 2.93 1.22 2.93 1.23 2.94 1.22 2.93 1.23 2.93 1.22 2.94 1.23 2.93 1.23 2.93 1.22 2.93 1.23 2.93 1.22 2.94 1.23 2.93 1.22 2.93 1.23 2.94 1.22 2.93 1.23 2.93-.83.35-1.22-2.94-1.23-2.93-1.22-2.93-1.23-2.94-1.22-2.93-1.23-2.93-1.22-2.93-1.23-2.93-1.23-2.94-1.22-2.93-1.23-2.94-1.22-2.93-1.23-2.93-1.22-2.93-1.23-2.93-1.22-2.94-1.23-2.93-1.22-2.93-1.23-2.94-1.22-2.93-1.23-2.93-1.22-2.93-1.23-2.93-1.22-2.94-1.23-2.93-1.22-2.93-1.23-2.94-1.22-2.93-1.23-2.93-1.22-2.93-1.23-2.94-1.23-2.93.77.11-.7-.56zm0 0l.47-.59.29.7-.76-.11zm-63.24 4.46l.17-.36 3.89-2.96 3.69-2.5 3.5-2.09 3.32-1.69 3.14-1.32 2.98-.97 2.83-.66 2.67-.37 2.53-.1 2.4.13 2.26.35 2.13.54 2.02.68 1.9.82 1.8.92 1.71.99 1.61 1.04 1.54 1.06 1.46 1.05 1.39 1.01 1.34.94 1.29.86 1.24.74 1.2.6 1.16.43 1.12.24 1.11.03 1.11-.19 1.12-.45 1.16-.74 1.2-1.07 1.25-1.42.7.56-1.32 1.49-1.29 1.15-1.29.83-1.28.51-1.29.23-1.28-.04-1.27-.27-1.27-.47-1.27-.63-1.29-.77-1.31-.88-1.36-.95-1.4-1.02-1.45-1.04-1.51-1.04-1.59-1.03-1.67-.96-1.75-.9-1.84-.79-1.96-.67-2.05-.51-2.18-.33-2.3-.14-2.45.1-2.59.36-2.74.64-2.91.95-3.09 1.3-3.26 1.65-3.45 2.06-3.65 2.48-3.85 2.93.17-.37-.9.03zm0 0l-.01-.22.18-.14-.17.36zm2.41 68.45l-.63-.4-.09-2.55-.08-2.48-.08-2.39-.07-2.33-.06-2.26-.06-2.19-.06-2.14-.05-2.09-.05-2.05-.05-2.01-.04-1.97-.04-1.95-.04-1.92-.04-1.91-.04-1.9-.04-1.89-.03-1.89-.04-1.89-.04-1.91-.04-1.93-.04-1.94-.04-1.98-.05-2-.05-2.05-.05-2.09-.06-2.14-.06-2.19-.06-2.26-.08-2.32-.07-2.4-.09-2.47-.09-2.56.9-.03.09 2.56.08 2.47.08 2.4.07 2.32.06 2.26.06 2.2.06 2.14.05 2.09.05 2.05.05 2 .04 1.98.04 1.95.05 1.92.03 1.91.04 1.89.04 1.89.04 1.9.03 1.89.04 1.91.04 1.92.04 1.95.05 1.97.04 2.01.05 2.04.06 2.09.05 2.14.06 2.2.07 2.26.07 2.32.08 2.39.08 2.48.09 2.55-.62-.39.35.82zm0 0l-.6.25-.03-.65.63.4zm100.8 21.04l-.45.62-4.75-.48-4.44-.66-4.17-.84-3.9-1-3.65-1.13-3.43-1.25-3.23-1.36-3.05-1.43-2.88-1.5-2.73-1.55-2.61-1.58-2.51-1.6-2.42-1.58-2.35-1.56-2.31-1.52-2.29-1.45-2.27-1.39-2.3-1.29-2.32-1.16-2.38-1.05-2.46-.91-2.55-.73-2.66-.56-2.8-.36-2.97-.16-3.14.09-3.34.32-3.57.6-3.8.89-4.07 1.18-4.35 1.51-4.65 1.85-.35-.82 4.68-1.87 4.4-1.52 4.11-1.2 3.86-.89 3.62-.61 3.41-.34 3.21-.08 3.03.15 2.87.38 2.73.57 2.62.75 2.51.92 2.42 1.07 2.36 1.2 2.33 1.3 2.3 1.39 2.3 1.47 2.31 1.52 2.35 1.56 2.42 1.58 2.49 1.58 2.59 1.57 2.71 1.54 2.85 1.49 3.01 1.42 3.19 1.34 3.4 1.23 3.61 1.12 3.85.98 4.12.84 4.41.65 4.7.48-.45.62.83-.35zm0 0l.28.68-.73-.06.45-.62z" class="fil1"/><path d="M356.56 133.49l-39.21-93.84c-13.86 17.56-29.45-23.53-71.81 10.32.99 27.73 4.33 48.28 5.32 76.01 51.74-39.27 56.55 16.36 105.7 7.51z" class="fil2"/><path id="1" d="M317 39.37l.76.11 1.23 2.93 1.22 2.93 1.23 2.93 1.22 2.94 1.23 2.93 1.22 2.93 1.23 2.94 1.23 2.93 1.22 2.93 1.23 2.93 1.22 2.94 1.23 2.93 1.22 2.93 1.23 2.93 1.22 2.94 1.23 2.93 1.22 2.93 1.23 2.93 1.22 2.94 1.23 2.93 1.22 2.93 1.23 2.94 1.22 2.93 1.23 2.93 1.23 2.93 1.22 2.93 1.23 2.94 1.22 2.93 1.23 2.93 1.22 2.94 1.23 2.93 1.22 2.93-.82.35-1.23-2.94-1.22-2.93-1.23-2.93-1.22-2.94-1.23-2.93-1.22-2.93-1.23-2.93-1.22-2.93-1.23-2.94-1.23-2.93-1.22-2.94-1.23-2.93-1.22-2.93-1.23-2.93-1.22-2.93-1.23-2.94-1.22-2.93-1.23-2.93-1.22-2.94-1.23-2.93-1.22-2.93-1.23-2.93-1.22-2.93-1.23-2.94-1.23-2.93-1.22-2.93-1.23-2.94-1.22-2.93-1.23-2.93-1.22-2.93-1.23-2.94-1.22-2.93.76.11-.7-.56zm0 0l.47-.59.29.7-.76-.11zm-71.9 10.62l.16-.37 3.91-2.97 3.77-2.56 3.61-2.16 3.48-1.8 3.34-1.46 3.2-1.14 3.08-.85 2.96-.58 2.84-.33 2.72-.1 2.61.08 2.5.27 2.4.4 2.29.53 2.2.63 2.11.7 2.02.74 1.94.77 1.85.77 1.78.73 1.71.68 1.65.61 1.58.51 1.52.38 1.46.24 1.41.06 1.35-.12 1.33-.33 1.29-.56 1.29-.83 1.27-1.12 1.27-1.44.7.56-1.34 1.51-1.36 1.2-1.4.91-1.43.62-1.47.36-1.49.14-1.51-.07-1.55-.25-1.59-.4-1.62-.52-1.68-.62-1.72-.69-1.79-.74-1.85-.76-1.92-.76-1.99-.74-2.08-.68-2.16-.62-2.25-.52-2.34-.4-2.44-.25-2.54-.09-2.66.11-2.77.32-2.89.56-3.02.83-3.14 1.12-3.28 1.43-3.43 1.78-3.57 2.14-3.72 2.53-3.88 2.94.17-.36-.89.03zm0 0l-.01-.23.17-.14-.16.37zm6.03 76.34l-.72-.34-.1-2.57-.11-2.54-.12-2.5-.14-2.47-.14-2.43-.16-2.41-.16-2.38-.17-2.35-.18-2.34-.19-2.32-.19-2.3-.19-2.29-.2-2.27-.2-2.28-.2-2.26-.2-2.27-.21-2.26-.2-2.26-.2-2.28-.2-2.28-.19-2.29-.19-2.3-.19-2.32-.17-2.34-.18-2.36-.16-2.38-.16-2.41-.14-2.44-.14-2.47-.12-2.51-.11-2.54-.1-2.58.89-.03.1 2.57.11 2.54.13 2.5.13 2.47.15 2.43.15 2.4.17 2.39.17 2.35.18 2.34.18 2.32.19 2.3.2 2.29.19 2.27.21 2.27.2 2.27.2 2.26.2 2.27.2 2.26.21 2.28.19 2.28.2 2.28.19 2.31.18 2.32.18 2.34.17 2.36.16 2.38.16 2.41.15 2.44.13 2.47.13 2.51.11 2.54.1 2.58-.72-.34.54.71zm0 0l-.68.53-.04-.87.72.34zm105.84 6.99l-.33.61-4.51.65-4.27.3-4.05-.02-3.84-.32-3.64-.57-3.46-.82-3.3-1.02-3.15-1.19-3.03-1.33-2.91-1.45-2.82-1.54-2.73-1.59-2.67-1.61-2.63-1.61-2.59-1.58-2.58-1.52-2.59-1.42-2.6-1.3-2.63-1.16-2.7-.97-2.75-.77-2.85-.54-2.95-.29-3.07.01-3.22.34-3.37.67-3.56 1.05-3.75 1.47-3.96 1.9-4.19 2.37-4.44 2.87-4.7 3.39-.54-.71 4.73-3.42 4.48-2.89 4.24-2.4 4.02-1.93 3.82-1.49 3.63-1.08 3.45-.69 3.31-.34 3.16-.01 3.03.29 2.93.55 2.83.8 2.75.99 2.68 1.18 2.64 1.32 2.61 1.43 2.6 1.53 2.6 1.58 2.63 1.62 2.66 1.6 2.71 1.58 2.79 1.52 2.88 1.44 2.98 1.31 3.11 1.17 3.24 1.01 3.41.79 3.57.58 3.77.31 3.98.02 4.2-.3 4.45-.64-.33.62.82-.35zm0 0l.22.51-.55.1.33-.61z" class="fil1"/><path d="M359.28 118.52l-39.21-93.84c-9.51 23.44-35.05-18.96-70.65 17.5.99 27.73.82 48.28 1.81 76.02 51.74-39.27 76.65 22.43 108.05.32z" class="fil3"/><path id="1" d="M319.65 24.51l.83-.01 1.23 2.94 1.22 2.93 1.23 2.93 1.22 2.94 1.23 2.93 1.22 2.93 1.23 2.93 1.22 2.93 1.23 2.94 1.22 2.93 1.23 2.94 1.22 2.93 1.23 2.93 1.22 2.93 1.23 2.94 1.22 2.93 1.23 2.93 1.22 2.93 1.23 2.94 1.22 2.93 1.23 2.93 1.22 2.94 1.23 2.93 1.23 2.93 1.22 2.93 1.23 2.93 1.22 2.94 1.23 2.93 1.22 2.94 1.23 2.93 1.22 2.93 1.23 2.93-.83.35-1.22-2.94-1.23-2.93-1.22-2.93-1.23-2.94-1.22-2.93-1.23-2.93-1.22-2.93-1.23-2.94-1.23-2.93-1.22-2.93-1.23-2.93-1.22-2.94-1.23-2.93-1.22-2.93-1.23-2.94-1.22-2.93-1.23-2.93-1.22-2.93-1.23-2.94-1.22-2.93-1.23-2.93-1.22-2.94-1.23-2.93-1.22-2.93-1.23-2.93-1.22-2.93-1.23-2.94-1.22-2.93-1.23-2.93-1.22-2.94-1.23-2.93-1.22-2.93.82-.01-.83-.33zm0 0l.41-1.01.42 1-.83.01zm-70.68 17.68l.13-.33 3.33-3.21 3.27-2.77 3.21-2.37 3.15-1.98 3.1-1.62 3.03-1.3 2.96-.99 2.9-.7 2.83-.46 2.76-.22 2.69-.03 2.62.14 2.54.29 2.46.41 2.39.5 2.3.56 2.22.6 2.15.61 2.05.6 1.98.55 1.89.48 1.79.39 1.71.26 1.6.13 1.52-.05 1.41-.24 1.31-.45 1.24-.69 1.15-.97 1.08-1.26 1-1.6.91-1.96.83.33-.96 2.06-1.06 1.7-1.17 1.37-1.27 1.06-1.38.77-1.46.5-1.55.27-1.62.05-1.69-.13-1.76-.27-1.84-.4-1.91-.49-1.99-.55-2.06-.6-2.13-.61-2.21-.59-2.28-.56-2.35-.49-2.43-.4-2.48-.28-2.56-.15-2.63.03-2.7.22-2.76.45-2.83.69-2.89.96-2.97 1.26-3.03 1.59-3.09 1.95-3.16 2.33-3.23 2.74-3.29 3.17.13-.33-.9.03zm0 0V42l.13-.14-.13.33zm2.54 76.36l-.72-.34-.09-2.58-.09-2.54-.07-2.5-.08-2.47-.06-2.44-.06-2.41-.06-2.38-.06-2.36-.05-2.34-.04-2.32-.05-2.3-.04-2.29L250 87l-.04-2.27-.04-2.27-.04-2.27-.04-2.26-.04-2.26-.04-2.28-.04-2.28-.04-2.28-.05-2.31-.04-2.32-.05-2.33-.06-2.36-.06-2.38-.06-2.41-.06-2.44-.08-2.47-.07-2.5-.09-2.54-.09-2.58.9-.03.09 2.58.08 2.54.08 2.51.07 2.47.07 2.43.06 2.41.06 2.39.05 2.36.05 2.33.05 2.32.04 2.31.04 2.28.05 2.29.04 2.27.04 2.27.03 2.26.04 2.26.04 2.27.04 2.27.04 2.28.04 2.29.05 2.3.05 2.32.05 2.34.05 2.36.06 2.38.06 2.4.07 2.44.07 2.47.08 2.5.08 2.54.09 2.58-.72-.34.55.71zm0 0l-.69.52-.03-.86.72.34zm108.18-.2l-.16.54-2.96 1.86-2.94 1.4-2.93.97-2.9.57-2.89.21-2.87-.12-2.87-.41-2.86-.66-2.87-.89-2.88-1.07-2.89-1.22-2.92-1.34-2.96-1.43-2.98-1.47-3.03-1.49-3.08-1.47-3.14-1.42-3.2-1.33-3.27-1.22-3.34-1.06-3.42-.87-3.5-.66-3.6-.41-3.7-.12-3.8.19-3.92.55-4.04.93-4.17 1.35-4.3 1.81-4.45 2.29-4.6 2.82-4.74 3.37-.55-.71 4.8-3.41 4.65-2.85 4.51-2.32 4.37-1.84 4.24-1.37 4.11-.95 4-.56 3.88-.2 3.77.13 3.67.41 3.57.67 3.47.89 3.39 1.08 3.3 1.23 3.22 1.34 3.16 1.43 3.09 1.47 3.04 1.49 2.99 1.48 2.94 1.41 2.9 1.34 2.86 1.21 2.84 1.05 2.81.88 2.8.64 2.78.4 2.78.12 2.78-.21 2.79-.55 2.82-.93 2.85-1.36 2.88-1.8-.16.54.83-.35zm0 0l.14.33-.3.21.16-.54z" class="fil1"/><g><path d="M149.68 155.49c11-32.07 22-64.13 33-96.2 14.98 16.62 18.8-30.97 63.28.04.82 27.74 4.08 38.91 4.9 66.65-52.78-18.26-49.45 22.14-101.18 29.51z" class="fil0"/><path id="1" d="M183.01 58.99l-.66.6.76-.16-1.04 3.01-1.03 3.01-1.03 3-1.03 3.01-1.03 3.01-1.03 3-1.03 3.01-1.04 3.01-1.03 3-1.03 3.01-1.03 3-1.03 3.01-1.03 3.01-1.03 3-1.03 3.01-1.04 3.01-1.03 3-1.03 3.01-1.03 3.01-1.03 3-1.03 3.01-1.03 3-1.03 3.01-1.04 3.01-1.03 3-1.03 3.01-1.03 3.01-1.03 3-1.03 3.01-1.03 3.01-1.03 3-1.04 3.01-.85-.29 1.04-3.01 1.03-3 1.03-3.01 1.03-3 1.03-3.01 1.03-3.01 1.03-3 1.03-3.01 1.04-3.01 1.03-3 1.03-3.01 1.03-3.01 1.03-3 1.03-3.01 1.03-3 1.03-3.01 1.04-3.01 1.03-3 1.03-3.01 1.03-3.01 1.03-3 1.03-3.01 1.03-3.01 1.03-3 1.04-3.01 1.03-3.01 1.03-3 1.03-3.01 1.03-3 1.03-3.01 1.03-3.01 1.04-3 .75-.16zm-.75.16l.24-.73.51.57-.75.16zm64.15.17l-.9.03.19.35-4.03-2.67-3.8-2.23-3.58-1.83-3.37-1.44-3.16-1.09-2.97-.77-2.78-.46-2.61-.18-2.44.06-2.29.28-2.15.48-2.02.65-1.9.78-1.79.92-1.69 1-1.6 1.08L202 55.4l-1.44 1.14-1.39 1.14-1.33 1.1-1.28 1.04-1.26.96-1.23.85-1.23.71-1.23.56-1.25.35-1.28.12-1.3-.14-1.32-.43-1.34-.74-1.36-1.06-1.41-1.41.66-.6 1.34 1.34 1.27.99 1.2.66 1.15.37 1.12.12 1.1-.1 1.11-.32 1.13-.5 1.15-.68 1.19-.81 1.23-.94 1.27-1.04 1.33-1.1 1.39-1.14 1.47-1.15 1.54-1.14 1.64-1.1 1.74-1.04 1.84-.94 1.97-.82 2.09-.67 2.24-.49 2.38-.29 2.53-.07 2.69.2 2.86.47 3.04.78 3.23 1.11 3.42 1.47 3.63 1.85 3.84 2.26 4.07 2.7.2.35zm-.2-.35l.19.12.01.23-.2-.35zm4.5 67.43l.3-.84-.6.43-.08-2.55-.1-2.46-.11-2.37-.12-2.3-.13-2.22-.14-2.15-.15-2.1-.16-2.04-.17-2-.17-1.95-.18-1.91-.18-1.88-.19-1.86-.18-1.84-.19-1.83-.2-1.83-.19-1.82-.19-1.84-.19-1.84-.18-1.86-.19-1.89-.17-1.92-.18-1.95-.16-2-.16-2.04-.15-2.1-.14-2.16-.14-2.23-.12-2.3-.11-2.38-.09-2.47-.09-2.55.9-.03.08 2.55.1 2.46.11 2.37.12 2.3.13 2.22.14 2.16.15 2.09.16 2.04.17 1.99.17 1.95.18 1.92.18 1.88.19 1.86.18 1.84.19 1.83.2 1.83.19 1.82.19 1.83.19 1.85.18 1.86.19 1.89.17 1.91.18 1.96.16 2 .16 2.04.15 2.1.14 2.16.14 2.23.12 2.3.11 2.38.09 2.47.09 2.56-.6.43zm.6-.43l.02.64-.62-.21.6-.43zm-102.06 29.38l.85.29-.48-.59 4.67-.78 4.36-.96 4.09-1.11 3.82-1.26 3.59-1.38 3.36-1.5 3.17-1.58 2.98-1.66 2.84-1.72 2.69-1.77 2.57-1.79 2.48-1.8 2.41-1.8 2.35-1.77 2.32-1.73 2.3-1.68 2.3-1.61 2.34-1.51 2.38-1.41 2.45-1.28 2.54-1.15 2.65-.98 2.78-.8 2.92-.61 3.09-.4 3.28-.17 3.48.08 3.71.34 3.95.61 4.21.91 4.5 1.23 4.81 1.55-.3.84-4.76-1.54-4.46-1.21-4.17-.89-3.9-.61-3.64-.34-3.42-.07-3.21.16-3.02.39-2.85.6-2.71.78-2.6.96-2.48 1.12-2.41 1.26-2.35 1.39-2.31 1.5-2.29 1.59-2.28 1.67-2.31 1.73-2.35 1.77-2.42 1.8-2.49 1.81-2.59 1.81-2.72 1.77-2.86 1.74-3.01 1.68-3.21 1.6-3.4 1.51-3.63 1.4-3.87 1.27-4.12 1.13-4.42.97-4.71.79-.49-.59zm.49.59l-.72.1.23-.69.49.59z" class="fil1"/></g><g><path d="M143.63 141.75c11.01-32.07 22.01-64.14 33.01-96.21 14.98 16.63 27.85-25.39 72.33 5.62.82 27.74 1.07 47.08 1.89 74.82-54.19-35.82-57.6 21.39-107.23 15.77z" class="fil2"/><path id="1" d="M176.97 45.24l-.66.6.75-.15-1.03 3L175 51.7l-1.03 3.01-1.03 3-1.03 3.01-1.03 3.01-1.04 3-1.03 3.01-1.03 3-1.03 3.01-1.03 3.01-1.03 3-1.04 3.01-1.03 3.01-1.03 3-1.03 3.01-1.03 3.01-1.03 3-1.03 3.01-1.03 3-1.04 3.01-1.03 3.01-1.03 3-1.03 3.01-1.03 3.01-1.03 3-1.03 3.01-1.04 3.01-1.03 3-1.03 3.01-1.03 3-1.03 3.01-.85-.29 1.03-3 1.03-3.01 1.03-3.01 1.03-3 1.04-3.01 1.03-3 1.03-3.01 1.03-3.01 1.03-3 1.03-3.01 1.03-3.01 1.04-3 1.03-3.01 1.03-3.01 1.03-3 1.03-3.01 1.03-3.01 1.03-3 1.03-3.01 1.04-3 1.03-3.01 1.03-3.01 1.03-3 1.03-3.01 1.03-3.01 1.04-3.01 1.03-3 1.03-3.01 1.03-3 1.03-3.01 1.03-3 1.03-3.01.76-.16zm-.76.16l.25-.72.51.56-.76.16zm73.2 5.75l-.89.02.19.36-4.06-2.69-3.87-2.28-3.71-1.9-3.53-1.55-3.37-1.21-3.22-.91-3.06-.64-2.92-.37-2.78-.14-2.66.07-2.53.25-2.42.41-2.31.56-2.21.66-2.12.76-2.02.82-1.95.86-1.86.89-1.8.88-1.73.85-1.68.8-1.63.73-1.59.62-1.56.5-1.52.35-1.51.17-1.5-.03-1.48-.28-1.47-.52-1.46-.81-1.44-1.11-1.43-1.43.66-.6 1.37 1.36 1.34 1.03 1.33.74 1.33.48 1.34.25 1.36.03 1.41-.16 1.44-.33 1.49-.48 1.54-.61 1.6-.71 1.66-.79 1.74-.86 1.8-.88 1.88-.89 1.97-.88 2.05-.83 2.16-.77 2.25-.68 2.37-.56 2.48-.42 2.6-.26 2.72-.07 2.85.14 2.99.38 3.13.65 3.27.93 3.43 1.23 3.59 1.57 3.75 1.93 3.92 2.31 4.09 2.7.19.36zm-.19-.36l.19.13v.23l-.19-.36zm1.39 75.56l.5-.75-.7.39-.07-2.57-.07-2.54-.07-2.48-.07-2.45-.06-2.41-.06-2.38-.06-2.34-.06-2.32-.06-2.3-.05-2.27-.06-2.25-.05-2.24-.05-2.23-.05-2.21-.05-2.21-.05-2.21-.05-2.21-.05-2.21-.06-2.22-.05-2.22-.05-2.24-.05-2.25-.06-2.27-.05-2.3-.06-2.31-.06-2.35-.06-2.38-.06-2.4-.07-2.45-.07-2.49-.07-2.53-.08-2.58.89-.02.08 2.57.07 2.54.07 2.48.07 2.45.06 2.41.06 2.38.06 2.34.06 2.32.06 2.29.05 2.28.06 2.25.05 2.24.05 2.23.05 2.21.05 2.21.05 2.21.05 2.21.05 2.21.05 2.21.05 2.23.06 2.24.05 2.25.06 2.27.05 2.3.06 2.31.06 2.35.06 2.37.06 2.41.07 2.45.07 2.49.07 2.53.08 2.58-.7.38zm.7-.38l.02.86-.72-.48.7-.38zm-108.1 15.63l.85.29-.38-.59 4.49.35 4.24.01 3.99-.3 3.78-.59 3.59-.83 3.4-1.05 3.24-1.26 3.1-1.41 2.97-1.56 2.87-1.68 2.77-1.75 2.71-1.81 2.65-1.85 2.62-1.84 2.59-1.81 2.6-1.76 2.62-1.66 2.65-1.56 2.7-1.41 2.78-1.23 2.87-1.04 2.97-.8 3.1-.54 3.23-.24 3.4.07 3.56.42 3.75.8 3.96 1.21 4.18 1.64 4.42 2.1 4.68 2.58 4.95 3.1-.5.75-4.91-3.08-4.63-2.56-4.37-2.07-4.11-1.62-3.89-1.18-3.68-.78-3.48-.42-3.3-.07-3.15.24-3.02.52-2.89.78-2.81 1.02-2.72 1.21-2.66 1.38-2.62 1.54-2.59 1.66-2.58 1.74-2.59 1.81-2.62 1.84-2.66 1.84-2.72 1.83-2.8 1.77-2.9 1.69-3.01 1.58-3.14 1.44-3.3 1.27-3.46 1.08-3.65.84-3.85.59-4.06.31-4.31-.01-4.55-.35-.37-.59zm.37.59l-.55-.06.18-.53.37.59z" class="fil1"/></g><g><path d="M139.95 126.99l33-96.21c16.83 17.71 28.49-30.71 75.57 11.4.83 27.74 1.28 50.34 2.1 78.08-54.19-35.82-77.9 26.74-110.67 6.73z" class="fil3"/><path id="1" d="M173.28 30.47l-.65.62.75-.16-1.03 3-1.04 3.01-1.03 3.01-1.03 3-1.03 3.01-1.03 3-1.03 3.01-1.03 3.01-1.03 3-1.04 3.01-1.03 3.01-1.03 3-1.03 3.01-1.03 3.01-1.03 3-1.03 3.01-1.04 3.01-1.03 3-1.03 3.01-1.03 3-1.03 3.01-1.03 3.01-1.04 3-1.03 3.01-1.03 3.01-1.03 3-1.03 3.01-1.03 3.01-1.03 3-1.04 3.01-1.03 3-1.03 3.01-.85-.29 1.03-3 1.03-3.01 1.04-3.01 1.03-3 1.03-3.01 1.03-3 1.03-3.01 1.03-3.01 1.03-3 1.04-3.01 1.03-3.01 1.03-3 1.03-3.01 1.03-3.01 1.03-3.01 1.04-3 1.03-3.01 1.03-3 1.03-3.01 1.03-3 1.03-3.01 1.03-3.01 1.04-3 1.03-3.01 1.03-3.01 1.03-3 1.03-3.01 1.03-3.01 1.03-3 1.03-3.01 1.04-3 1.03-3.01.75-.17zm-.75.17l.24-.7.51.53-.75.17zm76.44 11.52l-.89.03.14.32-4.29-3.67-4.09-3.18-3.9-2.69-3.71-2.25-3.53-1.84-3.36-1.45-3.18-1.1-3.03-.77-2.88-.47-2.74-.2-2.61.04-2.48.25-2.37.44-2.25.58-2.17.73-2.06.81-1.99.9-1.91.93-1.84.95-1.78.94-1.72.9-1.68.84-1.65.73-1.62.61-1.6.45-1.6.26-1.59.03-1.59-.21-1.59-.51-1.59-.81-1.59-1.15-1.6-1.51.65-.62 1.52 1.44 1.49 1.08 1.47.75 1.44.45 1.44.2 1.46-.04 1.48-.24 1.52-.42 1.56-.59 1.6-.71 1.66-.83 1.71-.89 1.79-.94 1.85-.96 1.93-.95 2.02-.9 2.11-.84 2.21-.73 2.32-.61 2.44-.45 2.55-.25 2.68-.04 2.82.2 2.96.49 3.1.78 3.26 1.12 3.42 1.48 3.58 1.87 3.76 2.28 3.94 2.73 4.13 3.19 4.32 3.7.15.32zm-.15-.32l.14.13.01.19-.15-.32zm1.55 78.79l.5-.75-.7.39-.07-2.58-.08-2.56-.07-2.53-.07-2.51-.07-2.49-.06-2.46-.07-2.44-.06-2.43-.07-2.41-.06-2.4-.06-2.39-.06-2.38-.06-2.37-.06-2.37-.06-2.36-.06-2.36-.06-2.36-.06-2.36-.06-2.37-.06-2.37-.07-2.38-.06-2.39-.06-2.4-.06-2.41-.07-2.43-.06-2.44-.07-2.46-.07-2.49-.07-2.51-.07-2.53-.08-2.56-.07-2.58.89-.03.08 2.59.07 2.56.07 2.53.07 2.51.07 2.48.07 2.46.06 2.45.07 2.43.06 2.41.07 2.4.06 2.39.06 2.38.06 2.37.06 2.36.06 2.36.06 2.36.06 2.37.06 2.36.06 2.36.06 2.37.06 2.38.06 2.39.07 2.4.06 2.42.06 2.42.07 2.45.07 2.46.07 2.48.07 2.51.07 2.53.07 2.56.08 2.59-.7.38zm.7-.38l.02.86-.72-.48.7-.38zm-111.55 6.59l.85.29-.19-.52 3 1.61 2.95 1.17 2.91.76 2.88.38 2.86.04 2.84-.29 2.84-.55 2.85-.81 2.85-1.03 2.88-1.22 2.9-1.37 2.93-1.49 2.97-1.58 3.02-1.63 3.06-1.65 3.13-1.65 3.19-1.6 3.27-1.52 3.34-1.41 3.44-1.27 3.53-1.09 3.63-.87 3.75-.63 3.85-.34 3.99-.03 4.11.31 4.24.7 4.39 1.11 4.53 1.55 4.69 2.04 4.85 2.55 5.02 3.08-.5.75-4.96-3.06-4.8-2.51-4.62-2.01-4.47-1.54-4.31-1.09-4.17-.68-4.03-.31-3.91.03-3.79.34-3.68.62-3.57.86-3.49 1.07-3.39 1.25-3.31 1.4-3.24 1.51-3.17 1.58-3.12 1.64-3.06 1.66-3.02 1.63-2.97 1.59-2.96 1.5-2.92 1.38-2.92 1.23-2.91 1.05-2.91.83-2.92.57-2.94.29-2.95-.04-2.99-.39-3.02-.79-3.05-1.21-3.09-1.66-.19-.53zm.19.53l-.3-.19.11-.34.19.53z" class="fil1"/></g><g><path d="M148.74 66.42c-1.24-6.95.4-9.39 5.02-10.65-3.16-1.32-6.29-2.21-9.07 2.74-.36-4.49.82-8.95 3.15-13.39-3.78.89-6.58 3.07-7.21 8.13-6.26-12.85-14.42-17.98-22.87-21.94 2.41 4.34 4.64 8.61 4.92 12.25-9.81-18.36-25.18-28.58-48.22-32.3C58.9 5.71 33.32.43 24.35.45c6.51 3.01 7.2 5.38 8.17 7.43-3.99-3.61-6.32-4.43-10.9-6.2C8.39 4.55 3.58 7.75 1.29 11.03c-.85 5.03 7.99 15.74 19.98 21.51 9.52 4.59 29.16-5.68 37.72-5.59-5.23 5.2-28.15 10.9-27.86 12.2 6.12 0 10.05 2.53 15.24 5.02.65.31 14.58-2.88 15.27-2.57.95.41-11.3 4.32-10.23 4.7 5.44 1.95 12.63 3.29 23.84 2.3-2.22.8-4.87 2.91-7.09 3.71 10.72 10.3 24.24 17.45 47.29 13.67-8.32 3.97-14.04 4.85-18.86 4.65 6.42 6 15.54 6.79 29.97-2.67-4.91 4.15-7.21 9.07-5.71 11.69 2.32-6.12 8.2-3.15 14.11-9.56-.03 1.33.03 3.99-1.74 8.13 5.11-2.16 4.17-3.41 6.26-5.85 1.93-2.27 4.83-2.63 6.56-2.29 1.02-1.38 1.69-2.28 2.7-3.66z" class="fil3"/><path id="1" d="M153.94 55.35l-.06.85-.41.12-.4.12-.37.13-.36.14-.33.15-.32.16-.31.17-.28.17-.26.18-.25.2-.23.21-.21.21-.2.23-.18.24-.17.26-.14.27-.14.29-.12.31-.11.32-.08.35-.08.36-.06.39-.04.41-.03.43-.01.45.01.48.02.5.04.53.06.55.07.58.09.6.1.63-.88.16-.11-.65-.09-.62-.07-.6-.06-.57-.04-.56-.03-.52v-.51l.01-.49.02-.46.05-.45.07-.43.08-.41.1-.4.13-.37.13-.36.17-.34.17-.33.2-.31.22-.29.23-.27.26-.26.27-.25.29-.23.31-.21.32-.2.34-.19.36-.17.37-.16.39-.16.4-.14.42-.13.43-.13-.05.85.35-.83zm0 0l1.2.5-1.26.35.06-.85zm-8.8 3.12l-.84-.18.27-.46.27-.43.28-.4.28-.36.28-.34.29-.3.29-.28.3-.26.29-.22.31-.2.3-.18.31-.15.31-.12.31-.11.31-.07.32-.06.31-.04.31-.02h.32l.31.02.32.03.3.04.31.06.31.07.31.08.3.09.31.1.3.1.3.11.31.12.3.12.3.12-.35.83-.29-.12-.29-.12-.29-.11-.29-.11-.29-.09-.28-.1-.28-.08-.28-.07-.28-.06-.28-.05-.27-.05-.27-.02-.26-.02-.26.01-.27.01-.26.03-.25.05-.26.07-.26.08-.25.1-.25.13-.25.14-.26.17-.25.19-.25.22-.26.24-.26.28-.25.3-.26.33-.25.37-.26.4-.25.43-.84-.18.9-.08zm-.06.26l-.72 1.28-.12-1.46.84.18zm2.66-14.05l.5.65-.21.41-.21.41-.2.41-.19.41-.19.42-.17.41-.17.41-.17.41-.16.41-.14.41-.15.41-.13.41-.13.41-.12.41-.11.41-.1.41-.1.41-.09.41-.07.41-.08.41-.06.42-.06.4-.05.41-.03.42-.03.41-.03.41-.01.41-.01.41.01.41.01.41.02.41.03.41-.9.08-.03-.43-.02-.44-.01-.42v-.86l.02-.43.02-.43.03-.43.05-.43.05-.43.05-.43.07-.42.07-.43.09-.43.09-.42.1-.43.11-.42.11-.43.13-.43.12-.42.14-.43.15-.42.15-.43.17-.42.17-.42.17-.42.19-.43.19-.42.19-.42.21-.42.21-.43.22-.42.5.65-.21-.88zm0 0l.96-.22-.46.87-.5-.65zm-6.7 8.38l-.85.14.07-.48.08-.46.09-.45.1-.44.12-.41.13-.41.15-.39.15-.37.17-.36.18-.34.19-.33.2-.32.21-.3.23-.29.23-.28.24-.26.26-.25.26-.24.27-.22.28-.21.29-.2.3-.19.3-.18.32-.17.32-.15.32-.15.34-.13.34-.12.34-.12.35-.11.36-.1.36-.09.21.88-.35.08-.33.09-.33.1-.32.11-.31.12-.31.12-.3.13-.29.14-.28.15-.28.16-.27.17-.25.18-.25.19-.25.2-.23.21-.22.22-.22.23-.21.25-.19.26-.19.27-.19.28-.17.3-.16.31-.15.32-.14.34-.13.36-.12.36-.11.39-.1.4-.08.42-.08.44-.06.45-.85.14.81-.39zm.04.25l-.19 1.5-.66-1.36.85-.14zm-23.71-21.78l.58-.63.8.38.79.38.79.4.79.41.79.41.78.43.78.45.78.46.77.48.77.49.77.51.76.54.75.56.75.58.75.6.74.63.73.65.73.69.71.71.72.74.7.77.7.81.68.84.68.87.67.91.66.95.65.98.64 1.02.63 1.06.62 1.11.61 1.14.6 1.2-.81.39-.59-1.17-.6-1.13-.61-1.09-.61-1.04-.63-1.01-.64-.96-.65-.93-.65-.89-.67-.86-.67-.81-.68-.79-.69-.76-.69-.72-.71-.7-.7-.66-.72-.64-.72-.62-.73-.59-.73-.57-.74-.54-.75-.53-.75-.5-.75-.49-.76-.46-.77-.46-.77-.43-.77-.43-.77-.41-.79-.4-.77-.39-.79-.38-.79-.37.58-.63-.78.44zm0 0l-.67-1.21 1.25.58-.58.63zm5.7 11.81l-.84.25-.03-.33-.04-.33-.05-.34-.07-.34-.07-.34-.08-.35-.09-.36-.1-.35-.11-.36-.12-.37-.12-.37-.14-.36-.14-.38-.15-.38-.15-.37-.16-.38-.17-.39-.18-.38-.18-.39-.18-.39-.19-.39-.2-.4-.2-.39-.2-.4-.21-.4-.21-.4-.21-.4-.22-.4-.22-.4-.22-.41-.22-.41-.23-.4.78-.44.23.41.23.41.22.4.22.41.21.41.22.4.22.4.21.41.2.4.2.4.2.4.2.4.19.4.18.39.18.4.17.39.17.39.16.39.15.39.14.38.14.38.13.39.13.38.11.38.11.37.09.37.09.37.07.37.07.36.06.37.04.35.03.36-.84.25.79-.43zm.05.18l.17 2.13-1.01-1.88.84-.25zM74.61 10.83l-.08-.01 2.15.36 2.1.41 2.06.45 2.01.49 1.98.52 1.93.57 1.88.61 1.85.64 1.8.69 1.76.73 1.72.77 1.68.81 1.65.86 1.6.9 1.56.93 1.52.99 1.48 1.03 1.44 1.06 1.41 1.12 1.37 1.15 1.33 1.21 1.29 1.25 1.26 1.29 1.22 1.33 1.18 1.39 1.15 1.42 1.12 1.48 1.07 1.52 1.05 1.56 1.01 1.62.97 1.66.94 1.7-.79.43-.93-1.69-.96-1.64-.99-1.59-1.04-1.55-1.06-1.49-1.09-1.46-1.14-1.4-1.16-1.36-1.2-1.32-1.24-1.27-1.27-1.23-1.31-1.18-1.35-1.14-1.38-1.1-1.42-1.05-1.46-1.01-1.5-.96-1.53-.93-1.58-.88-1.62-.85-1.65-.8-1.7-.76-1.74-.72-1.78-.67-1.82-.64-1.87-.6-1.9-.56-1.95-.53-2-.48-2.04-.44-2.08-.4-2.13-.37-.08-.02.3-.85zm-.22.87l-.05-.01-.03-.01.08.02zM24.16.85l.19-.85.9.01.99.05 1.08.07 1.16.1 1.24.13 1.31.16L32.4.7l1.44.2 1.5.23 1.55.25 1.59.28 1.64.29 1.69.32 1.71.33 1.74.36 1.77.37 1.78.38 1.8.4 1.81.42 1.82.43 1.81.44 1.81.45 1.8.47 1.78.47 1.77.49 1.74.49 1.71.5 1.68.5 1.64.51 1.6.51 1.54.52 1.49.52-.3.85-1.48-.52-1.54-.52-1.58-.51-1.63-.5-1.67-.51-1.7-.49-1.74-.49-1.76-.49-1.78-.47-1.79-.46-1.8-.45-1.81-.44-1.81-.43-1.81-.42-1.79-.4-1.78-.38-1.76-.37-1.74-.35-1.7-.33-1.68-.32-1.63-.29-1.59-.27-1.54-.25-1.49-.23-1.43-.21-1.37-.18-1.29-.15-1.22-.12-1.15-.11-1.06-.07-.97-.04-.87-.02.19-.85-.38.81zm0 0L22.33.01 24.35 0l-.19.85zm8.66 6.69l-.7.53-.1-.2-.09-.2-.08-.19-.1-.2-.09-.2-.1-.19-.1-.2-.1-.2-.11-.2-.13-.21-.12-.2-.14-.2-.15-.21-.16-.21-.18-.22-.19-.22-.2-.22-.23-.22-.24-.23-.26-.23-.28-.23-.31-.24-.32-.24-.35-.25-.38-.25-.41-.25-.43-.26-.46-.26-.49-.26-.52-.28-.55-.27-.59-.28.38-.81.6.29.57.27.53.28.5.28.48.27.45.26.43.27.39.26.37.26.35.26.32.25.3.25.29.25.26.25.24.24.23.24.21.24.19.24.18.23.17.23.15.23.14.23.13.22.13.22.11.22.1.21.11.21.09.2.1.2.09.2.09.19.08.19-.7.53.6-.67zm.1.14l.96 2.03-1.66-1.5.7-.53zM21.53 1.24l.26.02.42.16.41.16.4.16.38.15.39.15.36.14.36.15.36.15.34.14.34.14.34.15.33.15.32.15.33.16.31.16.32.16.32.17.31.18.32.19.31.19.32.2.32.21.32.21.32.23.32.24.34.25.34.27.34.27.35.29.35.3.37.32.37.33-.6.67-.37-.33-.35-.31-.35-.29-.34-.29-.33-.26-.33-.26-.32-.24-.31-.23-.32-.22-.3-.21-.31-.2-.3-.19-.3-.19-.3-.17-.3-.17-.31-.16-.3-.16-.31-.16-.31-.15-.32-.14-.32-.15-.32-.14-.34-.15-.34-.14-.34-.14-.36-.15-.37-.14-.37-.15-.39-.15-.4-.16-.41-.15-.42-.17.26.02-.19-.87zm0 0l.13-.03.13.05-.26-.02zM.85 10.96l.07-.18.23-.32.25-.32.27-.32.28-.32.3-.32.33-.31.34-.31.37-.31.39-.32.41-.3.44-.31.47-.31.49-.31.53-.3.55-.3.58-.3.62-.3.65-.29.67-.3.72-.29.75-.29.79-.29.83-.29.87-.28.9-.29.95-.29.99-.27 1.04-.29 1.08-.27 1.13-.28 1.17-.27 1.22-.27.19.87-1.21.27-1.17.27-1.11.28-1.07.27-1.03.28-.98.28-.93.27-.9.29-.85.28-.82.28-.77.29-.74.28-.7.29-.66.29-.63.28-.6.29-.56.29-.53.29-.5.29-.48.3-.45.29-.41.29-.4.29-.36.29-.35.3-.32.3-.3.29-.28.29-.27.3-.24.29-.23.29-.21.3.07-.18-.88-.15zm0 0l.02-.1.05-.08-.07.18zm20.22 21.99l-1.12-.57-1.11-.58-1.08-.62-1.06-.63-1.04-.66-1.01-.68-.99-.69-.96-.71-.93-.72-.9-.74-.88-.74-.84-.76-.8-.76-.78-.76-.74-.76-.7-.76-.66-.77-.63-.75-.58-.76-.55-.75-.5-.74-.46-.72-.41-.72-.37-.7-.32-.68-.28-.67-.22-.65-.17-.63-.12-.62-.06-.58-.01-.57.06-.54.88.15-.04.43v.48l.06.5.1.54.16.58.2.59.26.62.3.65.35.67.4.68.44.7.48.71.53.73.57.73.61.74.65.75.68.74.73.75.76.75.79.74.82.74.86.73.89.73.91.7.95.7.96.68 1 .67 1.02.65 1.04.62 1.06.6 1.09.58 1.1.55-.39.81zm37.61-6.32l.31.77-.81.02-.86.08-.94.12-.99.18-1.04.21-1.09.25-1.14.29-1.17.31-1.22.34-1.24.36-1.27.38-1.29.38-1.31.39-1.33.39-1.33.39-1.35.38-1.35.36-1.35.35-1.35.33-1.34.29-1.32.27-1.32.23-1.29.2-1.28.14-1.24.09-1.22.04-1.18-.02-1.15-.09-1.11-.16-1.06-.23-1.01-.32-.97-.4.39-.81.88.37.94.29 1 .22 1.04.15 1.09.08 1.14.03 1.17-.04 1.21-.09 1.24-.14 1.27-.19 1.29-.23 1.31-.26 1.32-.3 1.33-.32 1.34-.35 1.34-.36 1.34-.37 1.33-.39 1.32-.39 1.32-.39 1.29-.38 1.27-.38 1.25-.36 1.22-.34 1.18-.32 1.15-.28 1.11-.26 1.07-.23 1.02-.17.98-.13.91-.08.87-.03.31.77-.63-.64zm.32-.13l1.07.02-.76.75-.31-.77zM31.13 39.6l-.43-.35.11-.49.26-.26.34-.21.43-.22.52-.24.62-.26.71-.27.78-.29.87-.31.92-.33.99-.34 1.04-.36 1.09-.37 1.12-.39 1.16-.41 1.18-.41 1.2-.42 1.2-.44 1.2-.44 1.2-.46 1.18-.45 1.16-.47 1.13-.47 1.1-.48 1.05-.48.99-.48.94-.49.87-.48.79-.48.7-.48.62-.48.51-.46.63.64-.57.51-.66.51-.75.51-.82.5-.9.5-.96.5-1.01.49-1.07.49-1.11.48-1.14.48-1.17.47-1.19.46-1.2.46-1.21.44-1.21.44-1.2.43-1.18.41-1.16.4-1.13.39-1.08.37-1.04.36-.99.34-.92.33-.86.31-.78.29-.69.26-.59.25-.49.22-.38.2-.24.15-.07.06.03-.22-.44-.35v.89zm0 0h-.36l-.07-.35.43.35zm15.05 4.97l-.49-.23-.47-.23-.48-.24-.46-.23-.46-.23-.46-.23-.45-.22-.45-.22-.44-.22-.44-.22-.45-.2-.43-.21-.44-.19-.44-.19-.44-.19-.44-.18-.45-.17-.44-.16-.45-.16-.46-.14-.46-.14-.46-.12-.47-.12-.48-.11-.48-.09-.49-.08-.51-.08-.51-.06-.52-.05-.53-.03-.54-.02-.56-.01v-.89h.58l.57.03.55.03.55.05.53.06.52.08.52.09.5.1.5.11.5.12.48.13.47.14.48.15.47.16.45.17.46.18.46.18.45.19.45.2.45.2.44.2.45.22.45.21.45.22.45.23.45.22.46.23.46.23.46.23.47.23.48.23.48.23-.39.81zm15.28-2.56l.05.01h-.13l-.21.02-.3.04-.36.05-.41.06-.46.07-.51.1-.54.09-.58.11-.61.12-.64.12-.65.13-.67.13-.68.13-.68.14-.69.13-.68.13-.66.13-.66.13-.63.12-.62.12-.58.11-.55.1-.51.08-.46.08-.43.07-.36.05-.32.03-.26.02h-.23l-.26-.06.39-.81-.06-.02h.11l.22-.02.29-.03.35-.05.41-.06.46-.08.51-.09.54-.1.58-.1.61-.12.63-.12.65-.13.68-.13.67-.13.68-.13.69-.14.68-.13.66-.13.66-.13.64-.12.61-.12.58-.11.55-.1.52-.09.47-.07.42-.07.37-.05.32-.04.27-.02h.23l.25.06-.36.82zm.36-.82l.35.15-.35-.15zm-10.56 5.53l-.33-.29.04-.48.18-.19.19-.14.23-.12.27-.14.32-.15.35-.16.39-.17.43-.17.45-.18.48-.19.5-.19.51-.21.52-.2.53-.2.53-.2.52-.2.51-.2.49-.19.48-.19.45-.18.43-.17.38-.17.35-.15.3-.14.25-.13.19-.1.11-.07v.01l-.05.3.2.25.36-.82.3.34-.08.44-.18.18-.19.13-.24.14-.28.14-.32.15-.36.16-.4.16-.43.18-.46.18-.48.19-.5.2-.51.2-.52.2-.53.2-.53.2-.52.2-.51.2-.49.19-.48.19-.45.18-.41.17-.38.16-.35.15-.29.14-.24.12-.18.11-.09.06.02-.03.01-.35-.19-.19-.3.84zm.3-.84zm23.54 2.3l.19.87-1.05.09-1.02.07-.99.06-.98.04-.96.04-.93.02-.91.01h-.89l-.88-.01-.85-.02-.83-.04-.81-.04-.8-.05-.77-.06-.76-.08-.75-.08-.72-.09-.71-.1-.69-.11-.68-.11-.66-.12-.65-.13-.63-.14-.62-.14-.61-.15-.59-.16-.58-.15-.56-.17-.56-.17-.54-.18-.54-.18-.51-.18.3-.84.51.18.52.17.53.17.54.17.56.16.56.16.58.15.6.15.6.14.62.13.64.13.65.12.66.11.68.1.7.1.71.09.73.08.75.07.76.06.78.06.8.04.83.03.83.03.86.01h.88l.9-.01.93-.02.94-.04.97-.05.99-.06 1.01-.07 1.03-.08.19.86-.3-.84zm.11-.02l3.49-.31-3.3 1.17-.19-.86zm-7.36 4.47l.16-.75.2-.07.2-.08.2-.09.21-.09.21-.11.21-.1.22-.12.22-.11.22-.12.22-.12.22-.13.23-.13.22-.14.23-.13.22-.13.24-.14.22-.14.23-.13.23-.14.23-.13.23-.13.22-.14.24-.13.22-.12.23-.12.23-.12.22-.11.23-.11.22-.1.23-.1.22-.09.22-.08.3.84-.2.08-.2.08-.21.09-.2.09-.21.1-.22.11-.21.11-.22.12-.22.12-.22.12-.22.13-.23.13-.23.13-.22.13-.23.14-.23.14-.22.13-.23.14-.24.14-.22.13-.23.13-.23.13-.23.13-.23.13-.22.12-.23.12-.22.11-.23.11-.22.1-.23.1-.22.09-.22.08.16-.75-.62.65zm0 0l-.53-.5.69-.25-.16.75zm47.4 12.95l.27.84-2.14.33-2.09.26-2.04.2-1.99.14-1.93.08-1.89.02-1.84-.03-1.79-.09-1.74-.13-1.7-.2-1.66-.24-1.61-.29-1.57-.34-1.54-.38-1.5-.43-1.45-.47-1.42-.52-1.39-.55-1.35-.59-1.32-.63-1.29-.67-1.26-.7-1.23-.73-1.2-.76-1.17-.8-1.15-.82-1.12-.85-1.1-.88-1.08-.89-1.05-.93-1.04-.94-1.02-.96.62-.65 1.01.95 1.02.93 1.04.91 1.06.89 1.09.86 1.1.84 1.14.81 1.15.78 1.17.75 1.21.72 1.23.69 1.27.65 1.29.61 1.33.59 1.36.54 1.39.5 1.43.46 1.46.42 1.51.38 1.54.33 1.59.29 1.62.24 1.68.18 1.71.14 1.77.09 1.8.03 1.86-.03 1.91-.07 1.96-.14 2.02-.2 2.06-.26 2.12-.32.27.85-.39-.81zm.12-.04l3.1-.5-2.83 1.35-.27-.85zm-19.09 5.42l.33-.77.44.01.46.01h.92l.47-.02.48-.02.49-.03.49-.04.5-.04.51-.06.52-.07.52-.08.54-.08.54-.1.56-.11.56-.13.58-.13.58-.15.59-.16.61-.17.62-.19.63-.2.64-.21.66-.23.67-.24.68-.26.69-.28.71-.29.73-.31.73-.33.76-.34.76-.36.39.81-.78.36-.76.35-.75.33-.73.31-.72.3-.71.28-.69.26-.68.25-.67.24-.65.21-.65.21-.63.19-.62.18-.61.16-.6.15-.59.14-.57.12-.57.12-.56.1-.55.09-.54.08-.53.06-.53.06-.51.05-.51.04-.5.04-.49.02-.49.01-.48.01-.47-.01h-.46l-.47-.02.33-.77-.62.65zm0 0l-.88-.82 1.21.05-.33.77zm29.99-3.34l.54.71-1.35.86-1.31.81-1.29.74-1.26.69-1.23.63-1.2.57-1.17.53-1.14.46-1.12.42-1.1.36-1.07.31-1.04.27-1.02.21-1 .16-.97.12-.95.06-.92.03-.91-.03-.88-.06-.86-.11-.84-.16-.82-.2-.8-.23-.77-.28-.76-.31-.73-.36-.72-.39-.69-.43-.68-.46-.66-.49-.64-.53-.63-.56.62-.65.59.53.61.5.63.47.64.44.66.41.67.36.7.34.71.29.74.27.75.22.77.19.79.14.81.11.84.06.86.02.88-.02.91-.06.93-.11.96-.16.98-.21 1.01-.25 1.03-.3 1.07-.35 1.09-.41 1.12-.46 1.15-.51 1.17-.56 1.21-.62 1.24-.68 1.27-.73 1.3-.8 1.33-.85.53.72-.58-.68zm.05-.04l6.12-4.01-5.59 4.73-.53-.72zm-5.05 12.23l-.81.06-.15-.29-.12-.3-.1-.31-.07-.33-.05-.33-.02-.34v-.35l.02-.36.04-.37.07-.37.09-.37.1-.38.13-.4.15-.39.16-.4.19-.4.2-.4.22-.41.25-.41.26-.41.27-.42.3-.41.31-.42.33-.41.35-.42.36-.42.38-.41.4-.41.41-.41.43-.4.44-.41.46-.39.58.68-.44.38-.44.39-.41.4-.39.39-.39.4-.36.39-.35.4-.34.4-.31.4-.3.4-.28.39-.26.39-.25.4-.22.38-.21.38-.19.38-.18.38-.15.36-.13.36-.12.35-.09.35-.08.33-.06.33-.04.31-.01.3v.3l.02.28.03.26.06.26.07.24.1.23.11.22-.81.06.84.32zm0 0l-.34.88-.47-.82.81-.06zm13.24-9.73l.77.32-.56.58-.57.54-.57.49-.56.44-.57.4-.56.36-.55.32-.55.3-.54.26-.54.24-.53.21-.52.2-.5.18-.5.17-.49.16-.47.15-.46.16-.44.15-.43.16-.42.17-.4.18-.38.18-.36.21-.35.23-.33.25-.31.28-.3.3-.28.35-.27.37-.25.43-.24.47-.21.52-.84-.32.24-.58.26-.52.29-.48.3-.44.33-.39.35-.36.37-.32.37-.29.4-.26.41-.23.42-.22.43-.19.44-.18.46-.16.45-.16.47-.16.47-.15.48-.16.49-.17.5-.18.5-.18.5-.21.51-.22.51-.25.52-.28.52-.3.53-.34.53-.38.54-.41.53-.46.54-.51.54-.56.77.31-.89-.02zm.12-.29l.79-.86-.02 1.17-.77-.31zm-1.23 8.84l-.59-.59.16-.38.15-.37.14-.36.12-.35.12-.34.11-.34.1-.32.1-.32.08-.3.08-.3.07-.3.06-.28.06-.28.05-.26.05-.26.04-.25.04-.24.03-.24.03-.22.02-.22.02-.21.01-.2.02-.2.01-.18v-.18l.01-.17.01-.17v-.31l.01-.14v-.27l.89.02V70.51l-.01.15v.17l-.01.17v.17l-.01.19-.01.2-.01.2-.02.22-.02.22-.03.23-.02.24-.04.24-.03.26-.05.26-.05.28-.05.27-.06.29-.07.3-.07.3-.08.32-.09.32-.1.33-.11.34-.11.35-.12.35-.14.37-.14.37-.15.38-.16.39-.59-.59.35.83zm0 0l-1.02.43.43-1.02.59.59zm6.42-5.97l-.18.21-.16.21-.15.21-.14.19-.12.19-.12.19-.12.19-.1.18-.11.19-.1.17-.1.19-.11.17-.1.18-.12.18-.12.18-.13.18-.14.18-.15.18-.17.18-.17.18-.2.18-.21.17-.23.19-.25.18-.28.18-.29.18-.32.18-.35.19-.37.19-.41.2-.43.2-.47.2-.35-.83.46-.19.41-.19.39-.19.35-.18.33-.18.3-.17.27-.17.25-.16.22-.16.2-.16.19-.16.17-.15.15-.15.14-.15.13-.16.12-.15.11-.15.1-.16.1-.16.1-.17.1-.16.1-.18.11-.18.1-.19.12-.19.11-.19.13-.21.14-.21.15-.22.17-.22.17-.23.2-.23.68.58zm6.58-2.31l-.44.17-.16-.03-.15-.02-.17-.02-.17-.01-.18-.01-.18-.01h-.38l-.19.01-.2.02-.2.02-.2.03-.2.03-.21.05-.21.04-.2.06-.21.06-.21.07-.21.07-.2.09-.21.09-.21.1-.2.11-.2.11-.2.13-.2.14-.19.14-.19.15-.18.17-.18.17-.18.18-.17.2-.68-.58.19-.22.2-.21.21-.2.22-.19.21-.18.22-.16.23-.15.22-.15.23-.13.23-.13.23-.11.24-.11.24-.09.23-.09.24-.08.23-.07.24-.06.23-.05.24-.05.22-.04.23-.03.23-.02.22-.02.22-.01h.64l.2.01.2.02.19.02.18.03.18.04-.45.17.72.53zm0 0l-.17.23-.27-.06.44-.17zm2.78-4.01l-.08.34-.09.13-.09.13-.09.12-.09.12-.09.12-.08.12-.09.11-.08.11-.09.12-.08.11-.08.1-.08.11-.08.11-.07.11-.09.11-.08.11-.07.1-.08.11-.08.11-.08.1-.08.12-.08.11-.08.11-.08.1-.09.12-.09.12-.08.11-.09.12-.09.12-.09.13-.09.12-.1.13-.72-.53.1-.13.09-.12.09-.13.09-.12.09-.12.09-.12.08-.11.08-.11.08-.12.09-.11.08-.1.08-.11.08-.11.08-.11.07-.11.08-.11.09-.1.07-.11.08-.11.08-.11.08-.1.08-.12.08-.11.09-.11.08-.11.09-.12.08-.11.09-.12.08-.12.1-.13.09-.12.09-.13-.08.35.88-.16zm0 0l.04.19-.12.15.08-.34z" class="fil1"/><g><path d="M171.02 83.1C104.72 30.79 49.34 10.42 4.96 9.93c42.25 8.16 83.51 14.61 153.07 69.33 6.38 3.28 10.95 4.8 12.99 3.84z" class="fil2"/><path id="1" d="M4.88 10.37l.09-.89 4.21.11 4.26.22 4.34.35 4.39.47 4.47.59 4.52.72 4.59.85 4.65.99 4.73 1.11 4.78 1.26 4.84 1.39 4.92 1.54 4.97 1.67 5.04 1.83 5.1 1.97 5.17 2.12 5.23 2.27 5.29 2.43 5.36 2.58 5.42 2.74 5.49 2.9 5.55 3.07 5.61 3.23 5.68 3.4 5.74 3.56 5.81 3.74 5.86 3.91 5.94 4.09 6 4.27 6.06 4.44 6.12 4.63 6.19 4.82-.56.7-6.18-4.8-6.11-4.63-6.05-4.44-5.98-4.26-5.93-4.08-5.86-3.9-5.79-3.73-5.73-3.56-5.66-3.39-5.6-3.22-5.54-3.06-5.47-2.89-5.4-2.74-5.35-2.57-5.28-2.42-5.21-2.27-5.15-2.11-5.08-1.96-5.03-1.82-4.95-1.67-4.89-1.53-4.83-1.39-4.76-1.25-4.7-1.11-4.63-.98-4.57-.85-4.51-.72-4.43-.59-4.38-.46-4.31-.34-4.24-.23-4.18-.1.09-.89-.17.88zm0 0L0 9.43l4.97.05-.09.89zm152.95 69.29l-.08-.04-6.43-4.99-6.27-4.71-6.12-4.45-5.97-4.2-5.82-3.94-5.69-3.71-5.55-3.48-5.42-3.27-5.3-3.05-5.18-2.85-5.06-2.66-4.97-2.48-4.86-2.31-4.76-2.14-4.67-1.99-4.59-1.84-4.5-1.71-4.44-1.58-4.36-1.46-4.3-1.35-4.24-1.25-4.19-1.16-4.14-1.09-4.1-1.01-4.07-.94-4.03-.89-4-.85-3.99-.82-3.97-.78-3.96-.77-3.96-.76-3.96-.76.17-.88 3.96.76 3.96.76 3.96.77 3.97.79 4 .81 4.01.85 4.04.9 4.08.95 4.11 1.01 4.15 1.08 4.2 1.17 4.26 1.25 4.32 1.36 4.38 1.47 4.44 1.59 4.53 1.71 4.6 1.85 4.69 1.99 4.78 2.15 4.88 2.31 4.97 2.49 5.09 2.67 5.19 2.86 5.32 3.07 5.43 3.26 5.56 3.49 5.7 3.72 5.84 3.96 5.98 4.2 6.13 4.46 6.28 4.72 6.45 4.99-.07-.04-.41.79zm0 0l-.05-.03-.03-.01.08.04zm13.47 3.09l-.09.76-.23.09-.25.08-.26.06-.27.05-.29.03-.29.01h-.31l-.31-.02-.33-.03-.35-.04-.35-.06-.36-.07-.38-.08-.39-.1-.4-.11-.42-.12-.42-.14-.44-.14-.45-.16-.46-.17-.47-.18-.49-.19-.5-.21-.5-.22-.52-.23-.53-.24-.54-.24-.56-.27-.56-.27-.57-.28-.59-.29-.59-.31.41-.79.59.3.58.29.57.27.55.28.55.25.53.25.53.23.5.23.5.21.49.2.47.2.46.17.45.17.44.15.43.14.41.13.39.12.38.1.38.1.35.08.34.06.32.05.32.04.29.03.28.02h.26l.25-.02.23-.02.21-.03.2-.05.18-.06.16-.07-.09.76.56-.7zm0 0l.57.45-.66.31.09-.76z" class="fil1"/></g></g></g></g></svg>