<svg xmlns="http://www.w3.org/2000/svg" width="86" height="45" fill-rule="evenodd" clip-rule="evenodd" image-rendering="optimizeQuality" shape-rendering="geometricPrecision" text-rendering="geometricPrecision" viewBox="0 0 10.81 5.69"><defs><style>.fil0{fill:#f08bb2}.fil1{fill:#2b2a29;fill-rule:nonzero}</style></defs><g id="Слой_x0020_1"><g id="_726476128"><path d="M.39 4.34h8.08c-.63.21-.66 1.09 0 1.33H.39c-.2 0-.37-.17-.37-.37v-.59c0-.21.17-.37.37-.37z" class="fil0"/><path id="1" d="M8.47 4.36H.39v-.04h8.08l.01.04h-.01zm0-.04h.13l-.12.04-.01-.04zm0 1.37v-.04.04l-.06-.03-.06-.03-.06-.03-.04-.03-.05-.04-.04-.04-.04-.04-.03-.05-.03-.04-.03-.05-.02-.05L8 5.21l-.02-.06-.01-.05v-.16l.01-.05.01-.05.01-.06.02-.05.02-.05.03-.04.03-.05.03-.04.04-.04.04-.04.04-.04.05-.03.05-.03.06-.03.06-.02.01.04-.05.02-.06.02-.05.03-.04.03-.04.04-.04.04-.04.03-.03.05-.03.04-.02.04-.02.05-.02.05-.01.05-.01.05-.01.05v.1l.01.05v.04l.02.05.01.05.02.05.03.04.02.05.03.04.04.04.04.04.04.03.05.04.05.03.05.02.06.03-.01.04zm.01-.04l.12.04h-.13l.01-.04zm-8.09 0h8.08v.04H.39v-.04zM0 5.3h.04v.03l.01.02v.04l.01.01v.02l.01.01.01.02v.01l.01.02.01.01.01.02.01.01.01.01.01.01.02.02.01.01.01.01.02.01.01.01h.01l.02.01.01.01.02.01h.02l.01.01h.05l.02.01h.02v.04H.35l-.02-.01H.29l-.02-.01H.26l-.02-.01-.02-.01-.02-.01-.01-.01-.02-.01-.01-.01-.02-.01-.01-.01-.02-.02-.01-.01-.01-.01-.01-.02-.01-.01-.01-.02-.01-.02-.01-.01-.01-.02-.01-.02v-.02L.01 5.4v-.02L0 5.36V5.3zm.04-.59v.59H0v-.59h.04zm.35-.39v.04H.34l-.02.01H.29l-.02.01-.02.01H.24l-.02.01-.01.01-.01.01-.02.01-.01.01-.01.01-.02.01-.01.01-.01.02-.01.01-.01.01-.01.02-.01.01v.02l-.01.01-.01.02v.01l-.01.02v.03l-.01.02v.04H0v-.06l.01-.02v-.02l.01-.02v-.02l.01-.02.01-.01.01-.02.01-.02.01-.01.01-.02.01-.01.01-.02.01-.01.02-.01.01-.01.02-.02.01-.01.02-.01.01-.01h.02l.02-.01.02-.01.01-.01h.02l.02-.01h.08z" class="fil1"/><path fill="#99cfba" d="M.4 3.17h7.51c-.59.2-.61.8 0 1.02H.4c-.19 0-.34-.16-.34-.34v-.34c0-.19.15-.34.34-.34z"/><path id="1" d="M7.91 3.19H.4v-.04h7.51l.01.04h-.01zm0-.04h.13l-.12.04-.01-.04zm0 1.06v-.04l-.01.04-.05-.02-.06-.03-.05-.02-.04-.03-.04-.03-.04-.03-.04-.04-.03-.03-.02-.04-.03-.04-.02-.03-.01-.04-.02-.04v-.04l-.01-.04v-.08l.01-.04.01-.04.01-.04.02-.04.02-.03.02-.04.03-.03.03-.04.04-.03.03-.03.05-.03.04-.03.05-.02.05-.02.05-.02.02.04-.05.02-.05.02-.05.02-.04.03-.04.02-.04.03-.03.03-.03.03-.02.04-.02.03-.02.03-.02.04-.01.03-.01.04-.01.03v.08l.01.03v.04l.02.03.01.04.02.03.02.04.03.03.02.03.04.03.03.03.04.03.05.03.04.02.05.03.06.02-.01.04zm.01-.04l.11.04h-.12l.01-.04zm-7.52 0h7.51v.04H.4v-.04zm-.37-.32h.05v.06l.01.02v.01l.01.02v.01l.01.01.01.02v.01l.01.02.01.01.01.01.01.01.01.01.01.01.01.01.02.01.01.01.01.01.01.01.02.01h.01l.02.01H.3l.02.01h.03l.01.01H.4v.04H.34L.32 4.2H.31l-.02-.01H.27l-.01-.01-.02-.01H.22l-.01-.01-.02-.01-.01-.01-.01-.01-.02-.02-.01-.01-.01-.01-.01-.01-.01-.02-.01-.01-.01-.02-.01-.01L.07 4l-.01-.01v-.02l-.01-.02v-.01l-.01-.02v-.04l-.01-.02v-.01zm.05-.34v.34H.03v-.34h.05zm.32-.36v.04H.33l-.01.01H.3l-.01.01H.27l-.01.01-.02.01H.23l-.01.01-.01.01-.02.01-.01.01-.01.01-.01.01-.01.01-.01.02-.01.01-.01.01v.02l-.01.01-.01.01v.02l-.01.01v.02l-.01.01v.07H.03v-.02l.01-.02v-.03l.01-.02V3.4l.01-.02v-.01l.01-.02.01-.01.01-.02.01-.01.01-.02.01-.01.01-.02.01-.01.01-.01.02-.01.01-.01.01-.01.02-.01.01-.01.02-.01.02-.01h.01l.02-.01h.02l.01-.01H.4z" class="fil1"/><path d="M.74 1.44h7.2c-.57.19-.59 1.38 0 1.59H.74c-.19 0-.33-.15-.33-.33v-.93c0-.19.14-.33.33-.33z" class="fil0"/><path id="1" d="M7.94 1.46H.74v-.04h7.2v.04zm0-.04h.12l-.12.04v-.04zm0 1.63v-.04l-.01.04-.06-.02L7.82 3l-.05-.03-.04-.04-.04-.05-.04-.04-.03-.06-.03-.05-.03-.06-.02-.06-.02-.06-.01-.06-.01-.06-.01-.07-.01-.07v-.06l.01-.07V2.1l.01-.07.01-.06.02-.07.02-.06.02-.06.03-.05.03-.05.03-.05.04-.05.04-.04.04-.04.05-.03.05-.03.05-.02.01.04-.05.02-.04.02-.04.03-.04.04-.04.04-.04.04-.03.05-.02.05-.03.05-.02.06-.02.06-.02.06-.01.06-.01.06v.26l.01.06.01.06.01.06.02.06.02.06.03.05.03.05.03.05.03.05.04.04.04.03.04.03.05.03.05.02v.04zm0-.04l.12.04h-.12v-.04zm-7.2 0h7.2v.04H.74v-.04zM.39 2.7h.04v.07l.01.01v.02l.01.01v.01l.01.02.01.01v.01l.01.02.01.01.01.01.01.01.01.01.01.01.01.01.01.01.01.01.02.01h.01l.01.01.02.01h.01L.64 3h.02l.01.01h.07v.04H.67l-.02-.01H.63l-.01-.01H.6l-.02-.01-.01-.01L.55 3l-.01-.01-.01-.01-.02-.01-.01-.01-.01-.01-.01-.01-.01-.01-.01-.02-.01-.01-.01-.01-.01-.02-.01-.01-.01-.02v-.02L.4 2.81v-.02l-.01-.02V2.7zm.04-.93v.93H.39v-.93h.04zm.31-.35v.04H.67l-.01.01H.64l-.01.01H.62l-.02.01-.01.01H.58l-.02.01-.01.01-.01.01-.01.01-.01.01-.01.01-.01.01-.01.01-.01.01-.01.02v.01l-.01.01-.01.02v.01l-.01.01v.02l-.01.01v.07H.39V1.7l.01-.02v-.02l.01-.01v-.02l.01-.02.01-.01.01-.02.01-.01.01-.01.01-.02.01-.01.01-.01.01-.01.01-.01.02-.01.01-.01.01-.01.02-.01.01-.01.02-.01h.02l.01-.01h.02l.02-.01h.07z" class="fil1"/><g><path fill="#fefefe" d="M4.79.52c3.3-1.13 4.28-.31 4.88 2.1.17.72.55 1.09 1.09 1.32-.24.15-.64.05-1-.17 0 .21.14.6.44 1.06-1.95-.67-.78-3.13-2.35-4.1C7.3.39 6.19.44 4.79.52z"/><path id="1" d="M9.69 2.62l-.04.01-.06-.22-.06-.21-.06-.21-.07-.19-.07-.18-.07-.17-.08-.17-.08-.15-.09-.14-.09-.14-.1-.12-.1-.12-.11-.1-.12-.09-.12-.08-.14-.08L8.1.2 7.95.15 7.79.11 7.63.07 7.45.05 7.27.04h-.2l-.21.01-.21.03-.23.03-.24.04-.25.06-.26.07-.28.07-.29.09-.3.1L4.79.5l.3-.1.29-.09.28-.08.26-.06.25-.06.24-.04.23-.04.22-.02.21-.01h.2l.18.01.18.02.17.03.16.05.15.05.14.06.14.08.13.08.12.1.11.1.11.12.1.13.09.13.09.15.08.15.08.17.07.17.07.19.07.19.06.2.06.22.06.22zm1.08 1.33l-.02-.03v.04l-.05-.03-.05-.02-.04-.02-.05-.03-.05-.02-.04-.03-.05-.03-.04-.03-.05-.03-.04-.03-.04-.03-.04-.03-.04-.04-.03-.04-.04-.03-.04-.04-.03-.04L10 3.4l-.04-.05-.03-.04-.03-.05-.03-.05-.02-.05-.03-.05-.03-.05L9.77 3l-.03-.06-.02-.06-.02-.06-.02-.06-.02-.07-.01-.06.04-.01.01.06.02.07.02.06.02.06.02.06.03.05.02.06.03.05.02.05.03.05.03.05.03.04.03.05.03.04.03.04.04.04.03.04.04.03.03.04.04.03.04.04.04.03.04.03.04.03.04.03.05.02.04.03.05.02.04.03.05.02.05.02.05.03v.03zm0-.03l.04.01-.04.02v-.03zm-.99-.15h-.04l.03-.02.04.02.03.02.03.02.04.02.03.02.04.01.03.02.03.01.04.02.03.01.03.01.04.01.03.01.03.01.04.01h.03l.03.01h.03l.03.01h.15l.03-.01h.02l.03-.01.03-.01.02-.01.03-.01.02-.01.02-.01.02.03-.02.02-.03.01-.02.01-.03.01-.03.01-.03.01h-.03l-.03.01h-.18l-.04-.01h-.03l-.03-.01-.04-.01-.03-.01-.04-.01-.03-.01-.03-.01-.04-.01-.03-.02-.04-.01-.03-.02-.04-.02-.03-.01-.04-.02-.03-.02-.04-.02-.03-.02.03-.02zm-.04 0v-.04l.03.02-.03.02zm.45 1.08l.02-.04-.03.03-.03-.04-.02-.04-.03-.05-.02-.04-.03-.04-.02-.04-.02-.04-.02-.04-.03-.04-.01-.04-.02-.04-.02-.03-.02-.04-.01-.04-.02-.03-.01-.04-.02-.03-.01-.03-.01-.04-.01-.03-.01-.03-.01-.03-.01-.03v-.03l-.01-.02-.01-.03v-.05l-.01-.02v-.07h.04v.04l.01.02v.05l.01.02v.03l.01.02v.03l.01.03.01.03.01.03.01.03.01.03.01.04.02.03.01.03.01.04.02.03.02.04.01.04.02.03.02.04.02.04.02.04.03.04.02.04.02.04.03.04.02.04.03.05.03.04-.03.03zm.03-.03l.03.05-.06-.02.03-.03zM7.84.75l.02-.04.14.1.13.1.11.12.1.12.09.12.07.13.07.14.06.14.05.14.04.15.04.15.03.15.03.16.03.15.03.15.02.16.03.15.03.15.04.15.03.15.05.14.05.14.05.13.07.13.08.12.08.12.1.11.11.1.12.1.14.09.15.07.18.07-.02.04-.17-.07-.16-.08-.14-.09-.13-.09-.11-.11-.1-.11-.09-.12-.08-.13-.06-.13-.06-.14-.05-.14-.05-.14-.03-.15-.04-.15-.03-.15-.03-.15-.02-.16-.03-.15-.03-.16-.03-.15-.03-.15-.04-.15-.04-.14-.05-.15-.06-.13-.06-.14-.08-.13-.08-.12-.1-.11L8.1.95 7.98.84 7.84.75zM4.79.5l.01.04L4.79.5l.13-.01h.13l.13-.01.12-.01h.12l.13-.01.11-.01h.24l.11-.01h.53l.1.01h.1l.09.01h.09l.09.01.09.01.08.01.08.02.08.01.08.02.07.02.07.02.07.02.06.03.06.02.06.03.05.03-.02.04-.05-.03-.06-.03-.06-.02-.06-.03-.06-.02L7.48.6 7.41.58 7.33.56 7.26.55 7.18.54 7.09.52 7.01.51h-.09L6.83.5l-.1-.01h-.19l-.1-.01h-.32l-.11.01H5.78L5.67.5h-.12l-.12.01H5.3l-.12.01-.13.01-.12.01-.13.01L4.79.5zm.01.05l-.16.01.15-.06.01.05z" class="fil1"/></g><g><path fill="#6fa691" d="M.36.44h7.52c-.59.2-.62.63 0 .85H.36c-.18 0-.34-.16-.34-.34V.78C.02.6.18.44.36.44z"/><path id="1" d="M7.88.46H.36V.42h7.52v.04zm0-.04h.13l-.13.04V.42zm0 .89v-.04l-.01.04-.06-.02-.05-.03-.05-.02-.04-.02-.05-.03-.03-.03-.04-.02-.03-.03-.03-.03-.02-.03-.02-.03-.02-.03-.01-.04-.01-.03V.79l.01-.03.02-.03.02-.03.02-.03.02-.03.03-.03.03-.03.03-.02.04-.03.04-.02.05-.03.05-.02.05-.02.05-.02.01.04-.05.02-.05.02-.04.02-.05.03-.04.02-.03.02-.03.03-.03.02-.03.03-.02.03-.02.02-.01.03-.02.03V.8l-.01.03v.08l.01.03.01.03.02.03.01.02.02.03.03.03.03.02.03.03.04.02.04.03.04.02.05.03.05.02.05.02v.04zm0-.04l.12.04h-.12v-.04zm-7.52 0h7.52v.04H.36v-.04zM0 .95h.04v.03l.01.01v.04l.01.01v.02l.01.01v.02l.01.01.01.01.01.02.01.01.01.01.01.01.01.01.01.01.01.01.01.01.01.01.02.01.01.01.01.01h.02l.01.01h.02l.01.01h.03l.02.01h.03v.04H.31L.29 1.3H.27l-.01-.01H.24l-.02-.01-.01-.01H.19l-.01-.01-.02-.01-.01-.01-.02-.01-.01-.01-.01-.02-.02-.01-.01-.01-.01-.02-.01-.01-.01-.02-.01-.01V1.1l-.01-.01-.01-.02v-.02l-.01-.01v-.02L0 1V.95zM.04.78v.17H0V.78h.04zM.36.42v.04H.33L.31.47H.28L.27.48H.25L.24.49.22.5H.21L.2.51.18.52.17.53.16.54.15.55.14.56.13.57.12.58.11.59.1.61.09.62.08.63.07.65v.01L.06.67v.02L.05.7v.04L.04.75v.03H0V.73L.01.71V.69L.02.68V.66L.03.64.04.63V.61L.05.6.06.58.07.57.08.55.09.54.11.53.12.52.13.5.15.49.16.48.18.47.19.46h.02L.22.45.24.44h.02L.27.43h.02L.31.42h.05z" class="fil1"/></g></g></g></svg>