<svg xmlns="http://www.w3.org/2000/svg" width="104" height="65" fill-rule="evenodd" clip-rule="evenodd" image-rendering="optimizeQuality" shape-rendering="geometricPrecision" text-rendering="geometricPrecision" viewBox="0 0 15.31 9.61"><defs><style>.fil3{fill:#fefefe}.fil5{fill:#2b2a29}.fil2{fill:#d8ece4}.fil0{fill:#99cfba}.fil1,.fil7{fill:#2b2a29;fill-rule:nonzero}</style></defs><g id="Слой_x0020_1"><g id="_726454112"><path d="M6.36.79c.09.15.36.11.4-.05l5.21-.71 3.16 8.36-5.53.84c-.05.32-.53.38-.72.1l-6.95.25L.03.77l6.33.02z" class="fil0"/><path id="1" d="M6.75.72l.01.05.02-.02v.02l-.01.01-.01.02-.01.01-.01.01-.01.02-.01.01-.01.01-.02.01-.01.01h-.02l-.01.01-.02.01H6.6l-.02.01H6.5L6.48.9h-.02L6.45.89 6.43.88h-.02L6.4.87 6.38.86 6.37.84 6.36.83 6.35.82 6.34.8l.04-.03.01.02.01.01.01.01.01.01.01.01h.01l.01.01h.01l.02.01h.01l.01.01h.09L6.6.85h.02l.01-.01h.01l.02-.01h.01l.01-.01.01-.01L6.7.8V.79l.01-.01.01-.01V.76l.01-.01V.74l.02-.02zm-.02.02V.72h.02l-.02.02zm5.24-.69L6.76.77 6.75.72 11.96 0l.03.02-.02.03zM11.96 0h.02l.01.02-.03-.02zm3.14 8.4L11.94.04l.05-.02 3.16 8.36-.02.03-.03-.01zm.05-.02l.01.03h-.03l.02-.03zM9.6 9.2l5.52-.84.01.05-5.52.84-.03-.03.02-.02zm-.02.02v-.01l.02-.01-.02.02zm-.7.13V9.3l.02.01.02.03.02.02.02.02.02.02.02.01.02.02.03.01.02.01.03.01.03.01h.02l.03.01h.11l.03-.01h.02l.03-.01.02-.01.03-.01.02-.01.02-.02.02-.01.02-.02.01-.02.02-.02.01-.02.01-.02.01-.02.01-.03.01-.03.05.01-.01.03-.01.03-.01.03-.01.03-.02.02-.02.03-.02.02-.02.02-.02.01-.03.02-.02.01-.03.02-.03.01-.03.01h-.02l-.03.01h-.13l-.03-.01h-.03l-.03-.01-.02-.01-.03-.01L9 9.47l-.03-.01-.02-.02-.03-.02-.02-.03-.02-.02-.02-.03.02.01zm0-.05h.01l.01.01-.02-.01zm-6.95.26l6.95-.26v.05l-6.95.26-.02-.02.02-.03zm0 .05h-.02v-.02l.02.02zM.06.76l1.9 8.82-.05.01L.01.77.03.74l.03.02zM.01.77L0 .74h.03L.01.77zm6.35.04L.03.79V.74l6.33.02.02.01-.02.04zm0-.05h.01l.01.01-.02-.01z" class="fil1"/><path d="M6.84 1.08l5.63-.77 2.81 7.71-5.92.94z" class="fil2"/><path id="1" d="M12.47.33l-5.62.77-.01-.05 5.62-.76.03.01-.02.03zm-.01-.04l.02-.01.01.02-.03-.01zm2.79 7.74L12.44.32l.05-.02 2.81 7.71-.02.03-.03-.01zm.05-.02l.01.03h-.03l.02-.03zm-5.94.92l5.91-.94.01.05-5.91.94-.03-.01.02-.04zm.01.05l-.03.01v-.02l.03.01zm-2.5-7.91l2.52 7.88-.05.02-2.52-7.88.02-.04.03.02zm-.05.02l-.01-.03.03-.01-.02.04z" class="fil1"/><path d="M8.46 2.49l3.66-.41L13.4 5.6l-3.79.5z" class="fil3"/><path id="1" d="M12.12 2.1l-3.66.42v-.05l3.65-.42.03.02-.02.03zm-.01-.05h.02l.01.02-.03-.02zm1.27 3.56l-1.29-3.53.05-.01 1.28 3.53-.02.03-.02-.02zm.04-.01l.02.03h-.04l.02-.03zm-3.81.48l3.79-.5v.05l-3.78.5-.03-.02.02-.03zm.01.05H9.6l-.01-.02.03.02zM8.49 2.49l1.15 3.6-.05.02L8.44 2.5l.02-.03.03.02zm-.05.01l-.01-.03h.03l-.02.03z" class="fil1"/><path fill="#bdd180" d="M9.01 2.83l2.86-.33 1 2.75-2.96.39z"/><path id="1" d="M11.87 2.52l-2.85.33-.01-.05 2.85-.33.03.02-.02.03zm-.01-.05h.02l.01.02-.03-.02zm.99 2.79l-1.01-2.75.05-.02 1 2.76-.02.03-.02-.02zm.04-.01l.01.02-.03.01.02-.03zm-2.98.37l2.96-.39v.05l-2.95.39-.03-.02.02-.03zm.01.05h-.03v-.02l.03.02zm-.88-2.85l.9 2.81-.05.02-.9-2.82.02-.03.03.02zm-.05.01l-.01-.03h.03l-.02.03z" class="fil1"/><path d="M8.47 2.91c.26-.13.4-.3.39-.54l-.54.08.15.46zm3.82-.54c-.07.01-.35-.13-.48-.33l.37-.06.11.39zm-2.9 3.37c.29-.04.55.18.67.38l-.53.08-.14-.46zm3.99-.53c-.26.13-.4.31-.39.55l.54-.09-.15-.46z" class="fil0"/><path id="1" d="M8.86 2.39l-.01-.05.03.02V2.48l-.01.02v.02l-.01.02v.02l-.01.02-.01.02-.01.02-.01.02-.01.02-.01.02-.02.02-.01.01-.01.02-.02.02-.02.01-.01.02-.02.01-.02.02-.02.02-.02.01-.02.01-.02.02-.02.01-.02.01-.02.02-.03.01-.02.01-.02-.04.02-.01.02-.02.02-.01.02-.01.03-.01.02-.02.01-.01.02-.01.02-.02.02-.01.01-.02.02-.01.01-.02.02-.01.01-.02.01-.01.01-.02.02-.02.01-.01V2.6l.01-.02.01-.02.01-.01v-.02l.01-.02v-.02l.01-.02v-.1l.03.02zm-.01-.05h.03v.02l-.03-.02zm-.53.08l.53-.08.01.05-.54.08-.02-.01.02-.04zm-.02.04l-.01-.03.03-.01-.02.04zm.14.46l-.14-.46.04-.02.15.46-.01.03-.04-.01zm.04.01l-.03.01-.01-.02.04.01zm3.33-.92l.01.05.02-.04.01.02.01.02.01.02.02.01.01.02.02.02.01.01.02.02.02.01.01.02.02.01.02.02.01.01.02.01.02.01.02.01.01.01.02.01.02.01.01.01.02.01.02.01h.01l.01.01h.02l.01.01h.01l.01.01h.03l.01.05h-.04l-.01-.01h-.03l-.01-.01h-.01l-.02-.01-.02-.01-.01-.01h-.02l-.02-.01-.01-.01-.02-.01-.02-.01-.02-.02-.02-.01-.01-.01-.02-.01-.02-.02-.02-.01-.02-.02-.01-.01-.02-.02-.02-.02-.01-.02-.02-.01-.02-.02-.01-.02-.01-.02-.02-.02.02-.04zm-.02.04l-.02-.03.04-.01-.02.04zm.39-.04l-.36.05-.01-.05.37-.05.02.02-.02.03zm0-.05h.02v.02l-.02-.02zm.09.42l-.11-.39.04-.01.12.39-.02.03-.03-.02zm.05-.01l.01.03h-.03l.02-.03zm-2.25 3.78l-.01-.05-.02.04-.01-.02-.01-.02-.01-.02-.02-.02-.01-.02-.02-.02-.02-.01-.01-.02-.02-.02-.02-.02-.02-.01-.01-.02-.02-.02-.02-.01-.02-.02-.03-.01-.02-.01-.02-.02-.02-.01-.02-.01-.03-.01-.02-.01-.02-.01h-.03l-.02-.01-.02-.01H9.4l-.01-.05h.14l.03.01h.02l.03.01.02.01h.03l.02.01.03.01.02.02.03.01.02.01.02.02.02.01.03.02.02.01.02.02.02.02.02.02.02.01.01.02.02.02.02.02.01.02.02.02.02.02.01.02.01.02.02.02-.02.04zm.02-.04l.02.03-.04.01.02-.04zm-.56.07l.53-.08.01.05-.54.08-.03-.02.03-.03zm0 .05h-.02l-.01-.02.03.02zm-.11-.5l.13.46-.05.02-.13-.47.02-.03.03.02zm-.05.01l-.01-.02.03-.01-.02.03zm3.62-.01v.05l-.03-.02v-.05l.01-.02v-.04l.01-.03V5.6l.01-.02v-.02l.01-.02.01-.02.01-.02.01-.02.01-.02.01-.01.01-.02.02-.02.01-.02.02-.01.01-.02.02-.01.02-.02.02-.02.01-.01.02-.02.02-.01.03-.01.02-.02.02-.01.02-.01.03-.02.02-.01.02.05-.02.01-.02.01-.03.01-.02.02-.02.01-.02.01-.02.02-.02.01-.01.01-.02.02-.02.01-.01.02-.02.01-.01.02-.01.01-.02.02-.01.01-.01.02-.01.02-.01.02-.01.01v.02l-.01.02-.01.02v.02l-.01.01v.07l-.01.02v.04l-.02-.03zm0 .05l-.02.01-.01-.03.03.02zm.54-.08l-.54.08v-.05l.53-.08.03.02-.02.03zm.02-.03l.01.02-.03.01.02-.03zm-.14-.46l.14.46-.05.01-.14-.46.01-.03.04.02zm-.04-.02l.03-.01.01.03-.04-.02z" class="fil1"/><path d="M.52 1.08L6.43.99l2.64 8.08-6.76.15z" class="fil2"/><path id="1" d="M6.43 1.02l-5.91.09v-.05L6.43.97l.03.01-.03.04zm0-.05h.02l.01.01-.03-.01zm2.62 8.11L6.41 1l.05-.02 2.63 8.08-.02.03-.02-.01zm.04-.02l.02.03h-.04l.02-.03zm-6.78.13l6.76-.15v.05l-6.76.15-.02-.02.02-.03zm0 .05h-.02v-.02l.02.02zM.55 1.08l1.79 8.13-.05.01L.5 1.09l.02-.03.03.02zm-.05.01l-.01-.03h.03l-.02.03z" class="fil1"/><path d="M11.94 3.98h-.05l-.01-.04v-.05l-.01-.04-.01-.04-.01-.04-.02-.04-.01-.04-.02-.04-.02-.04-.02-.03-.03-.04-.02-.03-.03-.03-.03-.03-.03-.03-.03-.03-.03-.03-.03-.02-.04-.03-.04-.02-.03-.02-.04-.02-.04-.01-.04-.02-.04-.01-.04-.01-.05-.01-.04-.01h-.05l-.04-.01h-.09l-.01-.05h.1l.05.01h.05l.04.01.05.01.04.01.04.01.05.02.04.02.04.02.04.02.04.02.03.03.04.02.03.03.04.03.03.03.03.03.03.04.02.03.03.04.02.04.02.04.02.04.02.04.01.04.02.04.01.05.01.04v.05l.01.05zm-.89.95l-.01-.05h.05l.04-.01h.05l.04-.01.04-.02.05-.01.04-.02.04-.01.04-.02.03-.02.04-.03.03-.02.04-.03.03-.02.03-.03.03-.03.03-.03.02-.04.03-.03.02-.03.02-.04.02-.04.02-.04.01-.03.02-.04.01-.04.01-.05.01-.04v-.04l.01-.04v-.09h.05v.09l-.01.04v.05l-.01.04-.01.05-.01.04-.02.04-.01.04-.02.04-.02.04-.03.04-.02.04-.03.03-.02.04-.03.03-.03.03-.04.03-.03.03-.04.03-.03.03-.04.02-.04.02-.04.02-.04.02-.05.02-.04.01-.05.01-.04.02h-.05l-.05.01h-.04zm-.99-.85h.05v.09l.01.04.01.04.02.04.01.04.02.04.01.04.02.03.03.04.02.03.02.04.03.03.03.03.03.03.03.03.03.02.04.03.03.02.04.03.03.02.04.01.04.02.04.02.04.01.05.01.04.01.04.01h.09l.05.01.04-.01.01.05-.05.01-.05-.01h-.09l-.05-.01-.05-.01-.04-.01-.04-.02-.05-.01-.04-.02-.04-.02-.04-.02-.04-.02-.03-.03-.04-.03-.03-.02-.04-.03-.03-.03-.03-.04-.03-.03-.02-.04-.03-.03-.02-.04-.02-.04-.02-.04-.02-.04-.01-.04-.02-.05-.01-.04v-.05l-.01-.04v-.05zm.88-.96l.01.05-.05.01h-.04l-.05.01-.04.01-.04.01-.05.02-.04.01-.04.02-.03.02-.04.02-.04.02-.03.03-.04.02-.03.03-.03.03-.03.03-.03.03-.02.03-.03.04-.02.03-.02.04-.02.04-.02.03-.01.04-.02.04-.01.04-.01.04-.01.05v.04l-.01.04v.04l.01.05h-.05l-.01-.05v-.04l.01-.05V3.9l.01-.05.01-.04.01-.04.02-.05.02-.04.01-.04.03-.04.02-.03.02-.04.03-.04.03-.03.03-.03.03-.04.03-.03.03-.03.04-.02.04-.03.03-.02.04-.02.04-.02.05-.02.04-.02.04-.01.05-.02.04-.01.05-.01h.05l.04-.01z" class="fil1"/><path d="M10.16 3.74l-.05-.02.02.04h-.01v-.05h.01-.01.01l.03.03zm-.03-.03h.04l-.01.03-.03-.03zm-.02.37h-.05l-.01-.01v-.08l.01-.01V3.9l.01-.02v-.03l.01-.01v-.03l.01-.01v-.02l.01-.02v-.02l.01-.01v-.01l.05.02-.01.01v.02l-.01.01v.02l-.01.01v.03l-.01.01v.04l-.01.01v.08l-.01.01V4.07l.01.01zm-.01.16v-.05l-.03.03v-.05h-.01v-.09h.05v.09h.01v.04l-.02.03zm.02-.03l.01.04-.03-.01.02-.03zm-.27-.22h.05v.02l.01.01v.02l.01.01v.01l.01.01v.02l.01.01h.01v.01l.01.01.01.01.01.01h.01v.01H10l.01.01h.01l.01.01.01.01h.02l.01.01h.03v.05h-.03l-.01-.01h-.02l-.01-.01h-.02L10 4.21h-.01l-.01-.01h-.01l-.01-.01-.01-.01-.01-.01-.01-.01-.01-.01-.01-.01v-.01l-.01-.01-.01-.01V4.1l-.01-.01v-.01l-.01-.01v-.01l-.01-.01v-.04L9.85 4v-.01zm.27-.28v.05h-.05l-.01.01h-.02l-.01.01h-.01l-.01.01H10l-.01.01-.01.01-.01.01-.01.01-.01.01v.01h-.01l-.01.01v.01l-.01.01v.02l-.01.01v.02l-.01.01v.05h-.05v-.04l.01-.01V3.9l.01-.02v-.01l.01-.01.01-.01v-.01l.01-.01.01-.01.01-.01V3.8l.01-.01.01-.01.01-.01.01-.01.01-.01h.02l.01-.01.01-.01h.01l.01-.01h.02l.01-.01h.06zM12.11 3.87h-.05v-.03l-.01-.01v-.02l-.01-.01v-.01l-.01-.01v-.01l-.01-.01v-.01h-.01L12 3.74v-.01l-.01-.01h-.01l-.01-.01-.01-.01h-.01l-.01-.01h-.01l-.01-.01h-.02l-.01-.01H11.82v-.05H11.89l.01.01h.03l.01.01h.01l.02.01.01.01h.01l.01.01.01.01.01.01h.01l.01.01.01.01.01.01v.01l.01.01.01.02v.01l.01.01v.01l.01.01v.02l.01.01v.04zm-.23.25h.05l-.03-.03h.03l.01-.01.01-.01h.01l.01-.01h.01v-.01l.01-.01H12v-.01h.01v-.01l.01-.01.01-.01.01-.01v-.02l.01-.01v-.01l.01-.01v-.07h.05v.07l-.01.01v.02l-.01.01v.01l-.01.01v.01l-.01.01v.01l-.01.01-.01.01v.01l-.01.01h-.01l-.01.01-.01.01v.01H12l-.01.01-.01.01h-.01l-.01.01h-.01l-.01.01h-.03l-.03-.02zm.03.02l-.03.01v-.03l.03.02zm-.02-.16h.05V4.09h-.01v.03h-.05v-.03h.01V3.98zm-.07-.36v.05l.02-.04.01.01v.01l.01.01v.01l.01.01v.01l.01.01v.02l.01.01v.02l.01.01v.03l.01.01v.02l.01.01v.04l.01.01v.07l.01.01v.02h-.05v-.01l-.01-.01v-.08l-.01-.01v-.03l-.01-.01V3.8l-.01-.01v-.02l-.01-.01v-.02l-.01-.01v-.02l-.01-.01v-.01l-.01-.01v-.01l-.01-.01v-.01l.02-.03zm-.02.03l-.02-.03h.04l-.02.03zM11.16 4.02h-.05v-.01h-.01V4h-.01v-.01h-.02v-.01H11.01L11 3.93h.08v.01h.02l.01.01h.01v.01h.01l.01.01v.01h.01v.01l.01.01v.02zm-.15.11v-.05h.03l.01-.01h.02l.01-.01h.01v-.01h.01v-.01h.01v-.02h.05v.03h-.01v.02h-.01v.01h-.01v.01h-.01v.01h-.01l-.01.01h-.01l-.01.01h-.02l-.01.01h-.04zm-.15-.09l.05-.01v.02h.01v.01h.01v.01h.02l.01.01h.05v.05H10.95v-.01h-.03v-.01h-.01l-.01-.01h-.01v-.01h-.01v-.01h-.01v-.01h-.01v-.03zm.14-.11l.01.05h-.05v.01h-.02l-.01.01h-.01v.01h-.01v.02l-.05.01V4h.01v-.01l.01-.01v-.01h.01l.01-.01.01-.01h.01l.01-.01h.02v-.01H11z" class="fil1"/><circle r=".86" class="fil5" transform="matrix(.108 -.00605 .00605 .108 10.7202 3.74298)"/><circle r=".86" class="fil5" transform="matrix(.108 -.00605 .00605 .108 11.2412 3.7072)"/><path d="M11.3 4.26c.01-.01.03-.01.04 0 .02.01.01.03 0 .04-.09.09-.21.15-.33.16-.1 0-.21-.03-.32-.12-.01-.01-.01-.03 0-.04.01-.01.03-.02.04 0 .09.07.19.11.28.1.1-.01.21-.06.29-.14zM10.17 3.05c-.01-.01-.01-.03 0-.04.01-.01.03-.01.04 0l-.04.04zm.26.29l-.26-.29.04-.04.26.29-.04.04zm.04-.04c.01.01.01.03 0 .04-.01.01-.03.01-.04 0l.04-.04zM10.41 2.9c-.01-.01 0-.02.01-.03.01-.01.03 0 .03.01l-.04.02zm.19.35l-.19-.35.04-.02.19.34-.04.03zm.04-.03c.01.02 0 .03-.01.04-.01 0-.03 0-.03-.01l.04-.03zM10.71 2.83c-.01-.01 0-.03.02-.03.01 0 .02.01.02.02l-.04.01zm.07.34l-.07-.34.04-.01.08.34-.05.01zm.05-.01c0 .02-.01.03-.02.03-.01.01-.03 0-.03-.02l.05-.01zM10.99 2.83c0-.01.01-.03.02-.03.02 0 .03.02.03.03h-.05zm0 .3v-.3h.05v.3h-.05zm.05 0c0 .01-.01.03-.02.03-.02 0-.03-.02-.03-.03h.05zM11.24 2.8l-.05-.01c0-.01.01-.02.03-.02.01 0 .02.02.02.03zm-.04.35h-.05l.04-.36.05.01-.04.35zm-.05 0h.05c0 .01-.01.02-.02.02-.02 0-.03-.01-.03-.02zM11.51 2.87l-.04-.02c0-.01.02-.02.03-.01.01 0 .02.02.01.03zm-.14.36l-.05-.02.15-.36.04.02-.14.36zm-.05-.02l.05.02c-.01.01-.02.02-.04.02-.01-.01-.02-.02-.01-.04z" class="fil1"/><path d="M1.65 2.03l4.18-.07 1.92 5.71-4.63.3z" class="fil3"/><path id="1" d="M5.84 1.99l-4.19.06V2l4.18-.06.03.02-.02.03zm-.01-.05h.02l.01.02-.03-.02zm1.9 5.74L5.81 1.97l.05-.01 1.91 5.7-.02.04-.02-.02zm.04-.02l.01.03-.03.01.02-.04zm-4.65.29l4.63-.3v.05L3.12 8l-.02-.02.02-.03zm0 .05H3.1v-.02l.02.02zM1.67 2.02l1.48 5.95-.05.01-1.48-5.95.03-.03.02.02zm-.05.01L1.61 2h.04l-.03.03z" class="fil1"/><path fill="#6fa691" d="M2.39 2.65l3.15-.19 1.51 4.33-3.54.3z"/><path id="1" d="M5.54 2.49l-3.15.18-.01-.05 3.16-.18.02.01-.02.04zm0-.05l.02-.01v.02l-.02-.01zM7.02 6.8l-1.5-4.33.04-.02 1.51 4.33-.02.03-.03-.01zm.05-.02l.01.03h-.03l.02-.03zm-3.57.28l3.54-.3.01.05-3.54.3-.03-.01.02-.04zm.01.05l-.02.01-.01-.02.03.01zm-1.1-4.47l1.12 4.44-.05.02-1.12-4.44.02-.04.03.02zm-.05.02l-.01-.03.03-.01-.02.04z" class="fil1"/><path d="M5.62 4.2h-.05v-.05l-.01-.05-.01-.05L5.54 4l-.02-.05-.01-.05-.02-.04-.02-.05-.03-.04-.02-.04-.03-.04-.03-.04-.03-.04-.04-.04-.03-.03-.04-.04-.04-.03-.04-.03-.04-.02-.04-.03-.04-.02-.05-.03-.05-.02-.04-.01-.05-.02-.05-.01-.05-.01-.06-.01-.05-.01h-.16V3.2H4.63l.05.01.06.01.05.01.05.01.05.02.05.02.05.02.05.02.04.03.05.02.04.03.04.03.04.04.04.03.04.04.04.04.03.04.03.04.03.04.03.04.02.05.02.05.02.05.02.05.02.05.01.05.01.05.01.05v.06zM4.58 5.32l-.01-.05h.06l.05-.01.05-.01.06-.01.05-.02.04-.01.05-.02.05-.02.05-.03.04-.02.04-.03.04-.03.04-.03.04-.03.04-.03.03-.04.03-.04.04-.03.02-.04.03-.04.03-.05.02-.04.02-.05.02-.04.02-.05.01-.05.01-.04.01-.05.01-.05V4.2h.05v.16l-.01.05-.01.06-.01.05-.02.05-.01.05-.02.04-.03.05-.02.05-.03.04-.02.05-.03.04-.04.04-.03.04L5.3 5l-.04.04-.04.03-.04.03-.04.03-.05.03-.04.03-.05.02-.05.02-.05.02-.05.02-.05.02-.06.01-.05.01-.06.01h-.05zm-1.16-1h.05v.05l.01.05.01.05.01.05.01.05.02.05.02.04.02.05.02.04.03.04.03.04.03.04.03.04.03.04.04.03.03.04.04.03.04.03.04.02.05.03.04.02.05.03.04.02.05.01.05.02.05.01.05.01.05.01.05.01h.16l.01.05H4.41l-.06-.01-.05-.01-.05-.01-.05-.01-.06-.02-.05-.02-.04-.02L4 5.2l-.05-.03-.04-.02-.05-.03-.04-.03-.04-.04-.04-.03-.03-.04-.04-.04-.03-.04-.03-.04-.03-.04-.03-.04-.02-.05-.03-.05-.02-.05-.01-.05-.02-.05-.01-.05-.01-.05-.01-.05v-.06zM4.46 3.2v.05h-.05l-.06.01-.05.01-.05.01-.05.02-.05.01-.05.02-.04.02-.05.03-.04.02-.05.03-.04.03-.04.03-.03.03-.04.03-.04.04-.03.04-.03.03-.03.04-.03.04-.02.05-.02.04-.02.05-.02.04-.02.05-.01.05-.01.04-.01.05-.01.05v.06l-.01.05.01.05h-.05l-.01-.05.01-.06v-.05l.01-.05.01-.06.01-.05.01-.05.02-.05.02-.04.02-.05.03-.05.02-.04.03-.04.03-.05.03-.04.04-.04.03-.03.04-.04.04-.03.04-.03.05-.03.04-.03.05-.03.04-.02.05-.02.05-.02.06-.02.05-.02.05-.01.06-.01.05-.01h.06z" class="fil1"/><path d="M3.53 3.92l-.05-.02.02.03h-.01l-.01-.05h.01l-.01.01v-.01h.03l.02.04zm-.02-.04l.03.01-.01.03-.02-.04zm-.04.44h-.05v-.03l-.01-.01v-.03l.01-.01V4.13l.01-.01v-.05l.01-.02v-.02l.01-.02v-.02l.01-.01v-.03l.01-.01v-.01l.01-.02V3.9l.05.02-.01.01v.02l-.01.02v.01l-.01.01v.02l-.01.02v.03l-.01.02v.03l-.01.02v.11l-.01.01v.03l.01.01v.03zm-.01.19l.01-.05-.03.03v-.02h-.01V4.41h-.01v-.09h.05v.08l.01.01v.05l.01.01v.01l-.03.03zm.03-.03l.01.03h-.04l.03-.03zm-.31-.27h.05v.04l.01.01v.02l.01.01v.01l.01.01v.01l.01.01v.01l.01.01.01.01v.01l.01.01h.01l.01.01.01.01.01.01h.01l.01.01h.01l.01.01h.01l.01.01h.01l.01.01h.03l.02.01-.01.05-.01-.01h-.03l-.01-.01h-.03l-.01-.01-.02-.01h-.01l-.01-.01-.01-.01h-.01l-.01-.01-.01-.01-.01-.01-.01-.01-.01-.01-.01-.01-.01-.01-.01-.01-.01-.01v-.01l-.01-.02-.01-.01v-.01l-.01-.01v-.03l-.01-.01v-.05zm.3-.33l.01.05-.02.01h-.04l-.01.01h-.01l-.02.01h-.01l-.01.01h-.01l-.01.01-.01.01-.01.01h-.01l-.01.01-.01.01-.01.01-.01.01-.01.01v.01l-.01.01-.01.02v.01l-.01.01v.02l-.01.02V4.21h-.05V4.14l.01-.02v-.01l.01-.02v-.01l.01-.02.01-.01v-.01l.01-.02.01-.01.01-.01.01-.01.01-.01.01-.01.01-.01.02-.01.01-.01.01-.01.02-.01h.01l.01-.01.02-.01h.01l.02-.01h.05l.01-.01zM5.83 4.07l-.05.01v-.02l-.01-.01v-.03l-.01-.01v-.02l-.01-.01-.01-.01v-.02l-.01-.01-.01-.01-.01-.01v-.01H5.7l-.01-.01-.01-.01-.01-.01-.01-.01h-.01l-.02-.01h-.01l-.01-.01H5.6l-.01-.01h-.03l-.01-.01H5.49v-.05H5.55l.02.01h.03l.01.01h.02l.01.01.02.01h.01l.01.01.02.01.01.01.01.01.01.01.01.01.01.01.01.01.01.02.01.01.01.01v.01l.01.02.01.01V4l.01.01v.05l.01.01zm-.26.29l.05.01-.04-.03h.01l.01-.01h.03l.01-.01h.01v-.01l.01-.01h.01l.01-.01.01-.01.01-.01h.01v-.01l.01-.01.01-.01v-.01l.01-.01v-.01l.01-.01.01-.01v-.01l.01-.02v-.03l.01-.01v-.04l.05-.01v.04l-.01.02v.04l-.01.01v.01l-.01.01v.02l-.01.01v.01l-.01.01-.01.01v.01l-.01.01-.01.01-.01.01-.01.01-.01.01-.01.01-.01.01h-.01l-.01.01-.01.01h-.01l-.01.01-.01.01h-.02l-.01.01H5.6l-.03-.03zm.03.03l-.04.01.01-.04.03.03zm-.03-.19h.05v.17l-.05-.01V4.2zm-.08-.42v.05l.02-.04.01.02v.01l.01.01v.01l.01.01v.01l.01.02v.01l.01.01v.01l.01.02v.02l.01.01v.02l.01.01v.02l.01.02v.04l.01.01v.05l.01.01v.06h-.05v-.05l-.01-.01v-.05l-.01-.02v-.03l-.01-.01V4l-.01-.01v-.02l-.01-.02v-.02l-.01-.01v-.01L5.5 3.9v-.02l-.01-.01v-.01l-.01-.01v-.01l-.01-.01v-.01l.02-.04zm-.02.04l-.02-.04h.04l-.02.04zM4.71 4.25h-.05v-.01h-.01v-.01h-.01v-.01h-.01v-.01h-.02V4.2h-.03l-.01-.01h-.04v-.05h.04l.01.01h.03l.01.01h.02l.01.01h.01v.01h.01v.01h.01v.01h.01v.01h.01v.02l.01.01v.01zm-.17.12v-.05h.05v-.01h.02l.01-.01h.01v-.01h.01v-.01h.01v-.01l.01-.01v-.01h.05v.02l-.01.01v.01l-.01.01v.01l-.01.01-.01.01h-.01v.01h-.01l-.01.01h-.01l-.01.01H4.6v.01H4.54zm-.18-.1h.05v.01h.01v.01h.01v.01h.01v.01h.02v.01h.05l.01.01h.01l.01-.01v.05l-.01.01h-.01l-.01-.01h-.05l-.01-.01h-.02v-.01h-.02v-.01H4.4l-.01-.01-.01-.01-.01-.01v-.02h-.01v-.02zm.17-.13v.05h-.01l-.01.01h-.04v.01h-.02v.01h-.02v.01h-.01v.01l-.01.01v.02h-.05v-.03l.01-.01v-.01l.01-.01V4.2h.01v-.01h.01v-.01h.02v-.01h.02v-.01h.02v-.01h.04l.01-.01h.02z" class="fil1"/><circle r=".86" class="fil5" transform="matrix(.12702 -.00711 .00711 .12702 4.19412 3.92383)"/><circle r=".86" class="fil5" transform="matrix(.12702 -.00711 .00711 .12702 4.80681 3.88175)"/><path d="M4.88 4.53c.01-.01.03-.01.05 0 .01.01.01.04 0 .05-.12.11-.25.18-.39.18-.13.01-.26-.03-.38-.13-.02-.02-.02-.04 0-.05.01-.02.03-.02.04-.01.11.1.23.13.34.13.12-.01.24-.07.34-.17zM3.56 3.89c-.01 0-.03 0-.04-.01-.01-.01 0-.03.01-.03l.03.04zm.88-.64l-.88.64-.03-.04.88-.64.03.04zm-.03-.04c.01-.01.03-.01.04 0 .01.01 0 .03-.01.04l-.03-.04z" class="fil1"/><path d="M3.51 3.92c-.01 0-.02-.01-.02-.02-.01-.01 0-.03.02-.03v.05zm.91-.69l.04.02-.02.04-.02.03-.02.03-.03.03-.02.03-.02.03-.03.03-.02.03-.03.03-.02.03-.03.02-.02.03-.03.02-.03.03-.03.02-.03.02-.03.02-.03.02-.03.02-.03.02-.03.01-.04.02-.03.02-.03.01-.04.01-.03.02-.04.01-.03.01-.04.01-.04.01h-.04l-.04.01v-.05l.03-.01h.04l.04-.01.03-.01.04-.01.03-.01.04-.01.03-.02.03-.01.03-.01.03-.02.04-.02.03-.01.03-.02.02-.02.03-.02.03-.02.03-.02.03-.03.02-.02.03-.02.02-.03.03-.02.02-.03.03-.03.02-.03.02-.03.02-.03.03-.03.02-.03.02-.03.02-.03zm0 0c.01-.02.02-.02.03-.01.01 0 .02.02.01.03l-.04-.02z" class="fil1"/><path d="M3.52 3.9c0 .02-.01.03-.02.03-.01.01-.03 0-.03-.01l.05-.02zm.9-.72l-.01.05-.04-.01h-.04l-.04-.01-.05.01H4.2l-.04.01-.04.01-.04.02-.04.01-.04.02-.04.02-.04.02-.04.03-.04.02-.03.03-.04.03-.03.03-.03.03-.03.03-.03.03-.02.03-.02.03-.02.04-.02.03-.02.03-.01.03-.01.03-.01.03v.02l-.01.03v.02l.01.02-.05.02v-.03l-.01-.03.01-.03V3.8l.01-.04.01-.03.02-.03.01-.04.02-.03.03-.03.02-.04.03-.03.02-.03.03-.04.04-.03.03-.03.04-.03.03-.03.04-.02.04-.03.04-.02.04-.02.05-.02.04-.02.04-.02.05-.01.04-.01h.05l.05-.01.04.01h.05l.04.01zm0 0c.02 0 .02.02.02.03 0 .01-.02.02-.03.02l.01-.05z" class="fil1"/><path d="M5.43 3.68c.02 0 .02.01.02.02 0 .02-.01.03-.02.03v-.05zm-1.01-.43l.04-.02.02.02.01.03.02.03.02.02.02.02.03.03.02.02.02.02.03.02.02.01.03.02.03.02.03.01.03.02.03.01.03.01.03.02.03.01.04.01.03.01.04.01.03.01.04.01.03.01h.04l.04.01.04.01h.03l.04.01.04.01h.04l.04.01v.05l-.04-.01-.04-.01h-.04l-.04-.01h-.04l-.04-.01-.04-.01-.04-.01h-.03l-.04-.01L5 3.65l-.03-.01-.04-.01-.03-.01-.04-.02-.03-.01-.03-.01-.03-.02-.04-.01-.03-.02-.03-.02-.02-.01-.03-.02-.03-.02-.02-.03-.03-.02-.02-.02-.02-.03-.03-.02-.02-.03-.01-.03-.02-.03zm0 0c-.01-.01 0-.03.01-.03.01-.01.02-.01.03.01l-.04.02z" class="fil1"/><g><path d="M5.4 3.69h.05c0 .01-.02.03-.03.03-.01 0-.02-.02-.02-.03zm-.99-.51l.04-.01.04-.02h.04l.04-.01h.04l.05-.01h.04l.04.01h.05l.04.01.04.01.05.01.04.01.04.01.04.02.04.02.04.02.04.02.03.02.04.02.03.03.03.02.03.03.02.03.03.03.02.03.02.03.01.04.01.03.01.04.01.03v.04H5.4v-.03l-.01-.03V3.6l-.02-.03-.01-.03-.01-.03-.02-.03-.02-.03-.03-.02-.02-.03-.03-.02-.03-.03-.03-.02-.04-.02-.03-.02-.04-.02-.04-.01-.04-.02-.04-.01-.04-.01-.04-.01-.04-.01-.04-.01h-.04l-.04-.01h-.04l-.04.01h-.04l-.04.01H4.5l-.04.01-.03.02-.02-.05zm0 0l.02.05c-.02 0-.03 0-.04-.02 0-.01 0-.02.02-.03z" class="fil1"/></g><g><path d="M5.37 3.7l.02-.05c.01.01.02.02.01.04 0 .01-.02.01-.03.01zm-.93-.45l.02-.05.93.45-.02.05-.93-.45zm.02-.05l-.02.05c-.02-.01-.02-.02-.02-.03.01-.02.02-.02.04-.02z" class="fil1"/></g><g><path d="M6.07 2.34c-.07 0-.48-.23-.61-.44l.49-.02.12.46zm-4.42.06c.26-.1.4-.27.39-.51l-.54.04.15.47zm1.21 5.24c.29-.02.55.23.68.44L3 8.11l-.14-.47zm4.9-.35c-.26.1-.41.27-.4.51l.55-.04-.15-.47z" class="fil0"/><path id="1" d="M5.46 1.87v.05l.02-.04.01.02.02.02.01.02.02.02.01.02.02.02.02.02.02.02.03.02.02.01.02.02.02.02.03.02.02.01.03.02.02.02.02.01.03.02.02.01.02.01.02.01.02.02.02.01.02.01h.02l.02.01.01.01h.02l.01.01h.02v.05h-.03l-.02-.01-.01-.01h-.02l-.02-.01-.02-.01-.02-.01-.02-.01-.02-.01-.02-.01-.03-.02-.02-.01-.02-.02-.03-.01-.02-.02-.03-.01-.02-.02-.03-.02-.02-.02-.02-.02-.03-.02-.02-.02-.02-.02-.02-.02-.02-.02-.02-.02-.02-.02-.01-.02-.02-.02-.01-.02.02-.04zm-.02.04l-.02-.04h.04l-.02.04zm.52 0l-.5.01v-.05l.49-.01.03.02-.02.03zm-.01-.05h.02l.01.02-.03-.02zm.1.48l-.12-.45.05-.01.12.45-.03.03-.02-.02zm.05-.01v.03h-.03l.03-.03zm-4.06-.41v-.05l.03.02v.07l-.01.02v.05l-.01.02-.01.02v.02l-.01.02-.01.02-.01.01-.01.02-.01.02-.01.02-.01.01-.02.02-.01.02-.02.01-.01.02-.02.01-.02.01-.02.02-.02.01-.02.01-.02.02-.02.01-.02.01-.02.01-.02.01-.03.01-.02.01-.02-.04.02-.01.02-.01.03-.01.02-.01.02-.02.02-.01.02-.01.02-.01.01-.01.02-.01.02-.02.01-.01.02-.01.01-.02.01-.01.02-.02.01-.01.01-.02.01-.01.01-.02.01-.02v-.01l.01-.02.01-.02v-.02l.01-.01v-.04l.01-.02v-.07l.02.03zm0-.05h.03v.02l-.03-.02zm-.54.03l.54-.03v.05l-.54.03-.02-.01.02-.04zm-.02.04l-.01-.03.03-.01-.02.04zm.14.47l-.14-.47.04-.02.15.47-.01.03-.04-.01zm.04.01l-.03.01-.01-.02.04.01zm1.88 5.69v-.05l-.02.04-.02-.02-.01-.02-.01-.02-.02-.02L3.45 8l-.02-.02-.01-.02-.02-.02-.02-.02-.02-.02-.01-.02-.02-.02-.02-.01-.02-.02-.02-.02-.02-.01-.03-.02-.02-.01-.02-.02-.02-.01-.03-.01-.02-.02-.02-.01h-.03l-.02-.01-.02-.01-.03-.01h-.05l-.02-.01h-.05l-.01-.05h.06l.03.01h.02l.03.01h.03l.02.01.03.01.03.01.02.01.03.01.02.01.03.02.02.01.02.02.03.02.02.01.02.02.02.02.02.02.02.02.02.01.02.03.02.02.02.02.01.02.02.02.01.02.02.02.01.02.02.02.01.02-.02.04zm.02-.04l.02.04h-.04l.02-.04zM3 8.09l.54-.03v.05L3 8.14l-.02-.02.02-.03zm0 .05h-.02v-.02l.02.02zm-.11-.51l.13.48-.04.01-.14-.47.02-.04.03.02zm-.05.02l-.01-.03.03-.01-.02.04zm4.52.12v.05l-.02-.02V7.71l.01-.02v-.05l.01-.02.01-.02v-.02l.01-.02.01-.01.01-.02.01-.02.02-.02.01-.01.01-.02.02-.02.01-.01.02-.02.02-.01.01-.01.02-.02.02-.01.02-.01.02-.02.02-.01.02-.01.03-.01.02-.01.02-.01.03-.01.02.04-.03.01-.02.01-.02.01-.02.01-.02.02-.02.01-.02.01-.02.01-.02.01-.02.02-.01.01-.02.01-.01.01-.02.02-.01.01-.01.02-.01.01-.01.02-.01.01-.01.02-.01.02-.01.01-.01.02v.02l-.01.02v.02l-.01.01v.11l-.03-.03zm0 .05h-.02V7.8l.02.02zm.55-.03l-.55.03v-.05l.54-.03.03.01-.02.04zm.02-.04l.01.03-.03.01.02-.04zm-.15-.47l.15.47-.05.02-.15-.47.02-.03.03.01zm-.03-.01l.02-.01.01.02-.03-.01z" class="fil1"/></g><g><path d="M5.15 5.1c-.01-.01-.01-.03 0-.03.01-.01.03-.01.04 0l-.04.03zm.8 1.16l-.8-1.16.04-.03.8 1.16-.01.04-.03-.01zm.04-.03l.03.03-.04.01.01-.04zm-2.02.2l2-.21.01.05-2.01.21-.02-.03.02-.02zm0 .05l-.03.01.01-.04.02.03zm.33-1.2l-.31 1.19-.04-.02.3-1.19.05.02zm-.05-.02c0-.01.02-.02.03-.02.01.01.02.02.02.04l-.05-.02z" class="fil1"/></g><path d="M10.56 6.89c.07 0 .14 0 .2.01s.11.03.16.07c.05.03.09.07.13.13.03.05.05.11.07.19.01.06.01.13.01.18-.01.06-.03.12-.06.16-.03.05-.07.09-.12.12-.06.04-.12.06-.2.08l.07.3c0 .01 0 .02-.01.02 0 .01-.01.01-.02.01l-.09.02h-.03c0-.01 0-.01-.01-.02l-.06-.31c-.07.01-.14 0-.21-.01-.06-.02-.11-.04-.16-.08s-.08-.08-.11-.13c-.04-.06-.06-.12-.07-.18-.02-.07-.02-.14-.01-.2.02-.06.04-.11.07-.16.03-.05.08-.08.13-.11s.11-.05.17-.06l-.06-.32v-.03h.02l.1-.02h.02c0 .01.01.01.01.02l.06.32zm.41.42c-.02-.1-.06-.17-.12-.23-.07-.05-.15-.07-.26-.06l.14.69c.05-.02.1-.04.14-.06.03-.03.06-.06.08-.1.02-.03.03-.07.03-.11 0-.04 0-.08-.01-.13zm-.78.12c.01.04.03.08.05.12.02.04.05.07.08.1s.07.05.11.06c.04.02.09.02.15.02l-.14-.69c-.1.02-.18.07-.22.14-.04.07-.05.15-.03.25z" class="fil7"/><path id="1" d="M12.08 7.14c.04.15.02.27-.03.37-.05.09-.15.15-.28.17-.13.02-.24-.01-.32-.08-.09-.07-.14-.18-.17-.34-.02-.07-.02-.14-.01-.2 0-.06.02-.12.05-.16.03-.05.07-.09.11-.11.05-.03.1-.05.16-.06.13-.02.24.01.32.08.09.07.14.18.17.33zm-.15.03c0-.05-.02-.09-.03-.13-.02-.04-.04-.08-.06-.11-.03-.03-.06-.05-.1-.06-.03-.02-.08-.02-.13-.01-.04 0-.08.02-.11.04-.02.02-.05.05-.06.09-.01.03-.02.07-.03.11 0 .05.01.09.02.14.01.05.02.1.04.14.01.04.03.07.06.1s.06.05.09.06c.04.01.08.02.13.01s.09-.02.12-.05c.02-.02.05-.05.06-.09.01-.03.02-.07.02-.12 0-.04-.01-.08-.02-.12z" class="fil7"/><path id="2" d="M12.72 7.48c0 .01 0 .02-.01.03 0 0-.01.01-.02.01l-.08.01h-.03c0-.01-.01-.01-.01-.03l-.15-.74-.27.04h-.03c0-.01-.01-.02-.01-.02l-.01-.07v-.03s.01-.01.02-.01l.7-.11c.02 0 .02 0 .03.01 0 0 .01.01.01.02l.01.07v.02c0 .01-.01.01-.02.02l-.28.04.15.74z" class="fil7"/><path id="3" d="M13.8 6.88c.03.15.02.28-.04.37-.05.09-.14.15-.28.17-.13.02-.23-.01-.32-.08-.08-.07-.14-.18-.17-.33-.02-.08-.02-.15-.01-.21s.02-.12.05-.16c.03-.05.07-.08.11-.11.05-.03.1-.05.16-.06.13-.02.24.01.32.08.09.07.15.18.18.33zm-.15.03c-.01-.05-.02-.09-.04-.13-.02-.04-.04-.08-.06-.11-.03-.03-.06-.05-.09-.06-.04-.02-.08-.02-.13-.01-.05 0-.08.02-.11.04-.03.03-.05.05-.07.09-.01.03-.02.07-.02.12-.01.04 0 .08.01.13s.02.1.04.14c.02.04.04.08.06.1.03.03.06.05.09.06.04.02.08.02.13.01s.09-.02.12-.05c.03-.02.05-.05.06-.09.01-.03.02-.07.02-.11 0-.05 0-.09-.01-.13z" class="fil7"/></g></g></svg>