<svg xmlns="http://www.w3.org/2000/svg" width="117" height="68" fill-rule="evenodd" clip-rule="evenodd" image-rendering="optimizeQuality" shape-rendering="geometricPrecision" text-rendering="geometricPrecision" viewBox="0 0 15.7 9.09"><defs><style>.fil0{fill:#2b2a29}.fil1{fill:#6fa691}.fil2{fill:#2b2a29;fill-rule:nonzero}</style></defs><g id="Слой_x0020_1"><g id="_726423296"><path d="M4.4 1.75c.06-.01.12 0 .17.03.04.01.07.04.1.06L5.22.57c.01-.01.01-.02.02-.02.01-.01.03-.01.04 0 .01 0 .02.01.02.02v.01l.62.63c.01-.01.02-.01.03 0 .01 0 .02.01.02.02.01.01.01.02 0 .03L5.39 2.6v.01c0 .05-.03.1-.08.14-.05.04-.12.06-.2.07-.08.01-.16-.01-.21-.03-.06-.03-.1-.08-.1-.13v-.01c-.01-.05.02-.11.07-.15.05-.05.12-.08.2-.09.06-.01.12 0 .17.02.04.02.07.05.1.07l.31-.71-.6-.62-.33.77-.01.01c.01.05-.02.1-.07.14-.05.04-.12.06-.2.07-.08.01-.16-.01-.21-.03-.06-.03-.1-.08-.11-.13 0-.06.03-.12.08-.16.05-.05.12-.08.2-.09zm1.31-.1l.08-.18-.61-.59-.07.17.6.6z" class="fil0"/><path d="M7.84 7.76c.91-2.14 2.22-4.04 3.13-6.17 2.31-.81 2.61 1.86 4.69 1.29-.88 2.05-1.96 4.09-2.83 6.14-3.59.47-2.21-2.52-4.99-1.26z" class="fil1"/><path id="1" d="M10.96 1.57l.02.04.01-.01-.09.2-.08.2-.1.19-.09.2-.09.19-.1.2-.1.19-.09.19-.1.19-.11.19-.1.2-.1.19-.1.19-.11.18-.1.19-.1.19-.11.19-.1.19-.11.19-.1.19-.1.19-.1.19-.1.19-.1.19-.1.19-.1.2-.09.19-.1.2-.09.19-.09.2-.09.2-.09.19-.04-.01.09-.2.09-.2.09-.2.09-.19.09-.2.1-.19.1-.2.1-.19.1-.19.1-.19.1-.19.1-.19.1-.19.11-.19.1-.19.11-.19.1-.19.1-.19.11-.19.1-.19.1-.19.1-.19.11-.19.1-.19.09-.19.1-.19.1-.2.09-.19.09-.2.09-.19.09-.2.09-.2.01-.01zm-.01.01v-.01h.01l-.01.01zm4.73 1.31l-.04-.02.02.04-.19.04-.18.03-.17.01-.17-.01-.15-.02-.15-.03-.15-.05-.13-.05-.14-.07-.13-.07-.12-.08-.12-.08-.12-.09-.12-.09-.11-.09-.12-.1-.12-.09-.12-.09-.12-.09-.12-.08-.13-.08-.13-.07-.13-.06-.14-.05-.15-.04-.15-.03-.16-.02h-.17l-.18.01-.18.03-.2.04-.21.07-.02-.04.21-.07.21-.05.19-.03.18-.01.17.01.17.01.15.03.15.05.15.05.13.06.14.07.12.08.13.09.12.08.12.09.12.1.11.09.12.09.12.09.12.09.12.08.12.08.12.07.13.07.14.05.14.04.14.04.16.02h.16l.16-.01.18-.03.19-.04.03.03zm-.03-.03l.05-.01-.02.04-.03-.03zm-2.82 6.18L12.82 9l-.02.01.09-.19.08-.19.09-.2.08-.19.09-.19.09-.19.08-.19.09-.19.09-.2.09-.19.09-.19.09-.19.1-.19.09-.2.09-.19.09-.19.09-.19.09-.19.1-.19.09-.19.09-.2.09-.19.09-.19.09-.19.09-.19.08-.19.09-.2.09-.19.08-.19.09-.19.08-.19.09-.2.04.02-.09.19-.08.2-.08.19-.09.19-.09.19-.08.19-.09.2-.09.19-.09.19-.09.19-.09.19-.09.19-.09.2-.1.19-.09.19-.09.19-.09.19-.09.19-.09.2-.09.19-.1.19-.09.19-.09.19-.09.19-.08.2-.09.19-.09.19-.09.19-.08.19-.09.19-.08.2-.08.19-.02.01zm.02-.01l-.01.01h-.01l.02-.01zM7.82 7.75l.04.01-.03-.03.25-.1.23-.08.2-.06.19-.04.17-.02.16-.01.14.02.12.03.12.04.11.06.1.07.09.07.09.09.08.09.08.09.09.1.08.1.09.1.1.1.1.1.11.09.12.09.14.09.14.07.17.07.18.06.2.04.22.04.24.01.27.01.29-.02.32-.03.01.04-.32.04-.3.01h-.27l-.25-.02-.22-.03-.2-.05-.19-.06-.16-.06-.16-.08-.13-.09-.13-.09-.11-.1-.1-.1-.1-.1-.09-.1-.09-.1-.08-.1-.08-.09-.09-.09-.08-.08-.09-.08-.1-.06-.1-.06-.11-.04-.12-.03-.14-.01h-.15l-.16.02-.18.04-.21.06-.22.08-.25.11-.03-.03zm.03.03l-.05.02.02-.05.03.03z" class="fil2"/><path d="M10.37.79C10.34.53 9.89.36 9.63.5L6.76 7.13c-.13.29.7.67.84.27.03-.14 2.77-6.61 2.77-6.61z" class="fil1"/><path id="1" d="M9.66.51L9.61.49l.01-.01.03-.01.03-.02.03-.01h.02l.03-.01h.03l.03-.01h.07l.03.01h.03l.03.01h.03l.03.01.03.01.03.01.02.01.03.02.03.01.02.01.03.02.02.02.02.02.02.02.02.02.02.02.02.02.01.02.01.03.01.02.01.03v.02l-.04.01-.01-.02V.75l-.01-.02-.01-.03-.01-.02-.02-.01-.01-.02-.02-.02-.02-.02-.02-.02-.02-.01-.02-.02-.02-.01-.03-.01-.02-.02-.03-.01-.03-.01-.03-.01H10L9.97.48h-.03L9.91.47H9.8l-.03.01h-.03l-.02.01-.03.01-.02.01-.02.01.01-.01zM9.61.49l.01-.01-.01.01zM6.73 7.12L9.61.49l.05.02-2.88 6.63-.05-.02zm.85.27l.04.01-.02.04-.02.04-.02.02-.03.03-.03.02-.03.02-.04.01-.03.01H7.23l-.04-.01-.04-.01-.04-.01-.04-.02-.04-.01-.04-.02-.04-.02-.03-.02-.04-.03-.03-.02-.03-.03-.02-.03-.03-.02-.02-.03-.01-.03-.01-.03-.01-.04v-.06l.01-.03.05.02-.01.02v.07l.01.03.01.02.02.03.02.02.03.03.02.02.03.03.03.02.04.02.03.02.04.02.04.01.03.02.04.01.04.01h.04l.04.01h.07l.04-.01h.03l.03-.01.03-.02.02-.02.03-.02.02-.02.01-.03.02-.03zm.04.01zM10.35.79l.04-.01v.01l-.01.02-.02.06-.04.09-.05.11-.06.15-.07.17-.08.2-.1.22-.1.24-.1.25-.12.27-.12.28-.12.29-.12.3-.13.3-.13.31-.13.31-.13.3-.12.3-.13.29-.12.29-.11.27-.11.26-.1.25-.1.22-.08.2-.08.19-.06.15-.05.13-.04.1-.03.06-.01.03-.04-.01.01-.03.02-.07.04-.1.06-.13.06-.15.08-.18.08-.21.1-.22.1-.25.11-.26.11-.27.12-.28.12-.3.13-.3.13-.3.13-.31.13-.3.12-.31.13-.3.12-.29.12-.28.11-.27.11-.25.1-.24.09-.22.09-.19.07-.18.06-.14.05-.12.04-.09.02-.05.01-.02v.01zm.04-.01v.01-.01z" class="fil2"/><path fill="#99cfba" d="M7.98 7.36L10.71.97c2.31-.81 2.61 1.86 4.68 1.29-.87 2.05-1.75 4.1-2.62 6.15-3.06.3-2.02-2.3-4.79-1.05z"/><path id="1" d="M10.7.95l.01.04.02-.01-.09.2-.08.2-.09.2-.08.2-.09.2-.08.2-.09.2-.08.2-.09.19-.08.2-.09.2-.08.2-.09.2-.08.2-.09.2-.08.2-.09.2-.09.2-.08.2-.09.2-.08.2-.09.2-.08.2-.09.2-.08.2-.09.2-.08.2-.09.2-.08.2-.09.2-.08.2-.09.2-.04-.02.09-.2.08-.2.09-.2.08-.2.09-.2.08-.2.09-.2.08-.2.09-.2.08-.2.09-.2.08-.2.09-.2.08-.2.09-.19.08-.2.09-.2.08-.2.09-.2.08-.2.09-.2.08-.2.09-.2.08-.2.09-.2.09-.2.08-.2.09-.2.08-.2.09-.2.08-.2.09-.2.01-.01zm-.01.01V.95h.01l-.01.01zm4.73 1.31l-.05-.02.03.03-.19.05-.18.03-.18.01-.16-.01-.16-.02-.15-.03-.14-.05-.14-.05-.13-.07-.13-.07-.12-.08-.12-.08-.12-.09-.12-.09-.12-.1-.11-.09-.12-.09-.12-.09-.12-.09-.12-.08-.13-.08-.13-.07-.13-.06-.14-.05-.15-.04-.15-.03-.16-.02h-.17l-.18.01-.19.03-.2.04-.21.07-.01-.04.21-.07.2-.05.2-.03.18-.01h.17l.16.02.16.03.15.05.14.05.14.06.13.07.13.08.13.08.12.09.12.09.11.1.12.09.12.09.11.09.12.09.12.08.13.08.12.07.13.07.14.05.14.04.14.04.15.01.16.01.17-.01.18-.03.19-.04.03.03zm-.03-.03l.04-.01-.01.04-.03-.03zm-2.62 6.19v-.04l-.02.01.08-.19.08-.19.08-.2.09-.19.08-.19.08-.19.08-.19.08-.2.09-.19.08-.19.08-.19.08-.19.08-.2.09-.19.08-.19.08-.19.08-.19.08-.2.09-.19.08-.19.08-.19.08-.2.08-.19.09-.19.08-.19.08-.19.08-.2.09-.19.08-.19.08-.19.08-.19.08-.2.05.02-.09.19-.08.2-.08.19-.08.19-.09.19-.08.19-.08.2-.08.19-.08.19-.09.19-.08.19-.08.2-.08.19-.08.19-.09.19-.08.19-.08.2-.08.19-.08.19-.09.19-.08.2-.08.19-.08.19-.08.19-.09.19-.08.2-.08.19-.08.19-.08.19-.09.19-.08.2-.08.19-.02.01zm.02-.01l-.01.01h-.01l.02-.01zM7.96 7.35l.04.02-.03-.03.25-.11.23-.08.21-.07.19-.04.18-.03.16-.01h.15l.13.02.13.03.11.04.11.05.1.06.1.07.09.08.09.08.08.08.09.09.09.09.1.08.09.09.11.09.11.08.13.07.13.08.15.06.15.05.18.05.19.04.21.02.23.01h.25l.28-.02v.04l-.28.02-.25.01-.23-.01-.22-.03-.19-.03-.18-.05-.16-.06-.15-.06-.14-.08-.12-.07-.12-.09-.1-.08-.1-.09-.1-.09-.09-.09-.09-.09-.09-.08-.08-.08-.09-.07-.1-.07-.09-.06-.11-.05-.11-.04-.12-.03-.13-.02h-.14l-.16.01-.17.03-.19.05-.2.06-.23.08-.25.11-.03-.03zm.03.03l-.05.02.02-.05.03.03z" class="fil2"/><path d="M10.78 3.13c.06-.04.13-.06.2-.06.05 0 .11.02.15.04V1.74c0-.01 0-.02.01-.03.01-.01.02-.01.03-.01h.01c.01 0 .02 0 .03.01.01.01.01.02.01.03.02.17.11.31.19.46.16.25.31.51.14.92-.01.03-.04.04-.06.04-.01 0-.02-.01-.03-.01-.01 0-.01-.01-.02-.02s-.02-.04-.01-.06c.1-.2.09-.37.02-.51-.05-.12-.14-.22-.23-.31V3.19c.03.06.02.13-.02.2-.03.07-.1.13-.18.18-.09.04-.18.07-.26.06-.08 0-.14-.04-.17-.09l-.01-.01c-.02-.06-.02-.13.01-.21.04-.07.1-.14.18-.19h.01zM7.57 1.25c.07-.01.14-.01.2.01s.1.05.14.08l.4-1.31c.01-.01.01-.02.02-.02.01-.01.02-.01.03-.01h.01l.03.03c0 .01.01.02 0 .03-.03.17.01.33.05.49.07.29.14.58-.14.93-.02.02-.05.02-.07.01-.01 0-.02-.01-.02-.01-.01-.01-.02-.02-.02-.03-.01-.02-.01-.04.01-.06.15-.16.19-.33.17-.48-.01-.13-.07-.26-.13-.36l-.27.88-.01.02c.01.06-.02.13-.07.18-.06.05-.14.09-.23.11h-.01c-.09.02-.18.02-.25-.01-.08-.03-.13-.08-.14-.14-.02-.07.01-.15.07-.21.05-.06.13-.11.23-.13zM11.63 4.94c.06-.02.12-.03.17-.02.04 0 .08.01.12.03l.14-1.38c0-.01 0-.02.01-.03.01-.01.02-.01.03-.01.02 0 .02.01.03.02 0 0 .01 0 .01.01l.77.4c.01 0 .02-.01.03-.01.02.01.03.01.03.02.01.01.01.02.01.03l-.15 1.45v.01c.02.05.01.11-.03.16-.03.05-.09.1-.17.13-.07.03-.14.04-.21.03-.06-.01-.11-.04-.13-.09v-.01c-.03-.05-.02-.11.02-.17.03-.06.09-.11.16-.14.06-.03.12-.04.17-.03.04 0 .08.02.12.04l.07-.78-.75-.4-.09.82v.02c.02.05.01.1-.03.15-.03.06-.09.1-.17.13-.07.04-.15.04-.21.04-.06-.01-.11-.05-.13-.1-.03-.05-.02-.11.02-.17.03-.06.09-.12.16-.15zm1.22-.49l.02-.19-.76-.38-.02.18.76.39zM.6 8.01c.07-.02.15-.02.21-.01.05.01.1.04.14.07l.3-1.34c0-.01.01-.02.02-.03h.04c.01 0 .02.01.02.02.01.01.01.02.01.03-.02.17.04.33.09.49.09.28.18.57-.07.93-.02.02-.05.03-.07.02-.01 0-.02 0-.02-.01-.01-.01-.02-.01-.02-.02-.01-.02-.01-.04 0-.06v-.01c.14-.17.17-.34.14-.49-.03-.13-.1-.25-.16-.35l-.2.9-.01.02c.02.06-.01.13-.06.19-.05.05-.13.1-.22.13-.1.03-.19.03-.26.01-.08-.02-.13-.07-.15-.13-.02-.07 0-.15.06-.22.04-.06.12-.12.21-.14zM.24 2.84c.06-.01.12-.01.17 0 .04.01.08.03.11.05l.35-1.34c.01-.01.01-.02.02-.03h.04c.01 0 .02.01.02.02 0 0 0 .01.01.01l.7.52h.03c.01 0 .02.01.02.02.01.01.01.02.01.03l-.37 1.41-.01.01c.01.05-.01.11-.05.15-.05.05-.11.08-.19.1-.08.02-.15.02-.21 0s-.11-.06-.12-.11c-.01-.06 0-.12.05-.17.04-.05.1-.1.18-.12.06-.01.12-.01.17 0 .05.01.08.03.11.05l.2-.74-.68-.53-.22.81v.01c.01.05-.01.11-.06.15-.04.05-.1.08-.18.1-.08.02-.15.02-.21 0-.07-.02-.11-.06-.13-.11-.01-.05.01-.12.05-.17.05-.05.11-.1.19-.12zm1.28-.29l.05-.19-.69-.49-.05.17.69.51zM1.71 3.8c.06-.01.12-.01.17 0 .04.01.08.03.11.06l.35-1.35c.01-.01.01-.02.02-.02.01-.01.02-.01.03-.01h.01c.01.01.02.01.02.02s.01.01.01.01l.7.53c.01-.01.02-.01.03-.01.01.01.02.01.03.02v.03l-.37 1.41v.01c.01.05-.02.11-.06.15-.04.05-.11.08-.19.1-.07.02-.15.02-.21 0s-.11-.06-.12-.11c-.01-.06.01-.12.05-.17.04-.05.11-.1.18-.12h.01c.06-.01.11-.01.17 0 .04.01.07.03.1.06l.2-.75-.68-.53-.22.81v.01c.01.05-.01.11-.05.15-.05.05-.11.08-.19.1-.08.02-.15.02-.21 0s-.11-.06-.12-.11c-.02-.05 0-.12.05-.17.04-.05.1-.1.18-.12zm1.28-.29l.05-.19-.69-.49L2.3 3l.69.51zM4.24 7.03c.08.01.14.03.2.06.05.03.09.07.11.11l.71-1.17c0-.01.01-.02.03-.02.01-.01.02 0 .03 0 .01.01.02.02.02.03.01.01.01.02 0 .03-.07.16-.07.33-.07.5 0 .29-.01.59-.36.86-.03.01-.05.01-.07 0-.01-.01-.02-.01-.02-.02-.01-.01-.01-.02-.01-.03 0-.02 0-.04.02-.06.19-.12.27-.27.28-.42.02-.13-.01-.27-.04-.38l-.47.79-.01.01c-.01.07-.05.12-.12.16-.06.04-.15.06-.25.06-.1-.01-.19-.04-.25-.08s-.1-.1-.1-.17.05-.14.12-.19c.07-.04.16-.07.25-.07z" class="fil0"/></g></g></svg>