<svg xmlns="http://www.w3.org/2000/svg" width="136" height="65" fill-rule="evenodd" clip-rule="evenodd" image-rendering="optimizeQuality" shape-rendering="geometricPrecision" text-rendering="geometricPrecision" viewBox="0 0 21.78 10.34"><defs><style>.fil4{fill:#fefefe}.fil2{fill:#f5b2b6}.fil1{fill:#2b2a29;fill-rule:nonzero}</style></defs><g id="Слой_x0020_1"><g id="_1410077968"><path fill="#99cfba" d="M.12.19c1.68 1.34 3.34-.64 5.79.94.21.7.29 2.29 0 4.02-.47.13-.88-1.14-1.42-1.13C2.75 4.03.84 3.2.12.19zM1.9 1.6c.97 1.32 2.69 1.56 2.94.9.03-1.5-1.88-.42-2.94-.9z"/><path id="1" d="M5.98 1.11l-.14.04.03.04-.22-.14-.22-.11-.22-.1L5 .76 4.8.69 4.59.64 4.39.6 4.2.57 4.01.56 3.82.55h-.19l-.18.01-.19.02-.17.01-.18.03-.18.02-.17.02-.17.03-.17.02-.17.02-.17.02h-.17l-.16.01-.17-.01-.16-.02-.17-.02L.89.67.72.62.56.55.4.46.24.36.07.24.16.13l.16.11.15.1.15.08.15.06.16.05.15.04.15.02.16.02h.32L1.87.6l.16-.01.17-.02.17-.02.17-.03.17-.02.18-.03.18-.02.18-.02.19-.01.19-.01h.19l.19.01.2.01.21.03.2.04.21.05.22.07.22.09.22.1.23.12.23.14.03.04zm-.03-.04l.02.01.01.03-.03-.04zm-.02 4.15l-.04-.14-.05.06.03-.16.02-.16.02-.16.02-.16.02-.15.01-.16.02-.15.01-.15.01-.15.01-.15.01-.14V3.3l.01-.14v-.4l-.01-.13v-.25l-.01-.12L6 2.14l-.01-.11-.01-.11-.01-.1-.01-.1-.02-.1-.01-.09-.02-.08-.01-.09-.02-.07-.02-.07-.02-.07.14-.04.02.07.02.07.02.08.01.09.02.09.02.09.01.1.01.1.01.11.01.11.01.11.01.12.01.12v.13l.01.12v.55l-.01.14v.14l-.01.15-.01.15-.01.15-.01.15-.01.16-.02.15-.02.16-.02.16-.02.16-.02.16-.03.16-.05.06zm.05-.06l-.01.05-.04.01.05-.06zM4.49 4.09v-.14h.06l.06.01.06.02.05.03.06.03.05.04.05.04.05.04.04.05.05.05.05.05.04.05.05.06.04.05.04.06.05.06.04.05.04.06.04.05.04.05.05.05.04.05.04.04.04.03.03.04.04.02.04.03.03.01.04.01.03.01h.03l.03-.01.04.14-.06.01h-.05l-.06-.01-.05-.01-.05-.03-.05-.03-.04-.03-.05-.04-.04-.04-.05-.05-.04-.05-.05-.05-.04-.05-.04-.05-.04-.06-.05-.06-.04-.05-.04-.06-.05-.05L5 4.45l-.04-.05-.05-.05-.04-.04-.04-.05-.05-.04-.04-.03-.04-.03-.04-.03-.05-.02-.04-.01-.04-.01h-.04zM.16.13L.07.24.19.17l.07.27.08.27.08.24.09.24.09.23.1.21.11.2.11.19.12.18.12.17.12.16.13.15.13.14.14.13.14.12.14.11.15.1.15.1.15.08.15.08.16.07.16.06.15.06.16.05.17.04.16.04.16.03.16.02.17.02.16.01.16.01h.16v.14h-.16l-.17-.01-.17-.01-.17-.02-.16-.02L3.49 4l-.17-.04-.16-.04-.17-.05-.16-.06-.17-.07-.16-.07-.16-.08-.16-.09-.15-.1-.15-.11-.15-.11-.14-.13-.15-.13-.13-.15-.14-.15-.13-.16-.12-.18L.8 2.1l-.12-.2-.1-.21-.11-.22-.1-.23L.28 1 .2.75.12.48.05.2.16.13zM.05.2L0 0l.16.13L.05.2zm4.72 2.3l.14.01v.02l-.03.07-.05.06-.05.06-.05.05-.07.04-.07.03-.08.03-.08.03-.09.01-.09.01-.1.01h-.1l-.1-.01-.11-.01-.11-.02-.11-.03-.11-.03-.12-.03-.11-.05-.12-.05-.12-.05-.11-.06-.12-.07-.12-.07-.11-.08-.12-.09-.11-.09-.11-.1-.1-.1-.11-.11-.1-.12-.09-.12.11-.09.1.12.09.11.1.11.1.1.11.09.1.09.11.08.11.08.11.07.11.06.12.06.11.05.11.05.11.04.11.04.11.02.1.03.1.02.1.01h.1l.09.01.09-.01.08-.01.08-.01.07-.02.06-.03.06-.03.05-.03.04-.04.04-.04.03-.04.03-.05-.01.02zm.14.01v.02-.02zm-2.96-.96l-.11.09.09-.11.09.04.1.03.11.02.11.02.11.01.12.01h.24l.12-.01h.12l.13-.01.12-.01.12-.01.12-.01.12-.01h.12l.11-.01.11.01h.11l.11.01.1.02.09.03.09.03.08.05.08.05.07.07.06.07.04.09.04.11.03.11.01.13v.14l-.14-.01v-.12l-.01-.12-.03-.09-.03-.09-.03-.07-.05-.06-.05-.05-.06-.04-.07-.04-.07-.03-.09-.02-.08-.01-.1-.02h-.32l-.11.01h-.12l-.12.01-.12.01-.12.01-.13.01-.12.01h-.5l-.12-.02-.12-.02-.11-.02-.11-.04-.11-.04.08-.11zm-.11.09l-.16-.22.25.11-.09.11z" class="fil1"/><path d="M11.74.19c-1.68 1.34-3.34-.64-5.79.94-.08 1.01-.01 3.01-.09 4.02.4.1.82-1.16 1.28-1.14 1.8.09 3.85-.68 4.6-3.82zm-1 .85c.11 0 .2.09.2.21s-.09.22-.2.22c-.12 0-.21-.1-.21-.22s.09-.21.21-.21zm-1.09.54c-.98 1.33-2.69 1.57-2.95.91-.03-1.5 1.88-.42 2.95-.91z" class="fil2"/><path id="1" d="M6.02 1.13l-.14-.01.03-.05.23-.14.23-.12.22-.1.22-.09.21-.07.21-.05.21-.04.21-.03.19-.01.2-.01h.19l.19.01.19.01.18.02.18.02.18.03.17.02.17.03.17.02.17.02.16.01.16.01h.32l.15-.02.16-.02.15-.04.16-.05.15-.06.15-.08.15-.1.16-.11.09.11-.17.12-.16.1-.16.09-.16.07-.17.05-.16.04-.17.02-.16.02-.17.01-.16-.01h-.17L9.81.73 9.64.71 9.47.69 9.3.66 9.13.64 8.95.62 8.77.59 8.59.58 8.41.56 8.23.55h-.19l-.19.01-.19.01-.19.03-.2.04-.21.05-.2.07-.21.08-.22.1-.22.11-.22.14.03-.06zm-.14-.01v-.03l.03-.02-.03.05zm0 3.96l-.04.14-.05-.08v-.1l.01-.1v-.1l.01-.12v-.11l.01-.12V4.1l.01-.13V2.44l.01-.14v-.52l.01-.12v-.11l.01-.12v-.11l.01-.1.01-.1.14.01-.01.1v.1L6 1.44v.11l-.01.12v.24l-.01.13v.68l-.01.14v1.25l-.01.13v.37l-.01.12v.11l-.01.11v.1l-.01.1-.05-.07zm-.04.14l-.06-.02.01-.06.05.08zm1.3-1.28l-.01.14H7.1l-.03.01-.03.01-.04.02-.03.02-.04.03-.04.04-.04.04-.04.04-.04.04-.04.05-.04.05-.04.06-.04.05-.04.06-.04.05-.04.06-.04.05-.04.06-.04.05-.04.05-.04.05-.04.05-.04.04-.04.04-.04.04-.05.03-.04.02-.05.02-.05.01h-.1l.04-.14h.04l.03-.01.03-.01.03-.01.03-.03.04-.03.03-.03.04-.04.03-.04.04-.05.04-.04.04-.06.04-.05.04-.05.04-.06.04-.06.04-.05.04-.06.04-.05.04-.06.04-.05.05-.05.04-.04.04-.05.05-.04.04-.03.05-.03.05-.03.05-.02.06-.01h.05zm4.65-3.7L11.7.13l.11.07-.07.29-.09.28-.09.26-.09.26-.11.23-.11.23-.11.21-.12.2-.13.19-.13.18-.14.17-.14.15-.15.15-.15.13-.15.13-.16.11-.16.11-.16.09-.17.09-.16.07-.17.07-.18.06-.17.06-.17.04-.18.04-.17.03-.18.03-.17.01-.18.01-.17.01h-.17l-.18-.01.01-.14.17.01h.17l.17-.01.17-.01.17-.02.17-.02.17-.03.16-.04.17-.04.17-.05.17-.06.16-.07.16-.07.16-.08.16-.1.15-.1.15-.11.15-.12.15-.13.14-.14.13-.15.14-.16.12-.17.13-.18.12-.2.11-.21.1-.22.1-.23.1-.24.09-.26.08-.27.07-.29.12.07zM11.7.13l.16-.13-.05.2-.11-.07zm-.68 1.12h-.15v-.04l-.01-.01v-.01l-.01-.01v-.01h-.01v-.01l-.01-.01-.01-.01-.01-.01h-.01l-.01-.01h-.01l-.01-.01h-.03V.97h.05l.02.01h.02l.02.01.01.01h.01l.01.01.01.01h.01l.02.01v.01l.01.01.01.01.01.01.01.01.01.01.01.02v.01l.01.01v.01l.01.02v.01l.01.01v.05l.01.01v.01zm-.28.29V1.4h.03l.01-.01h.01l.01-.01h.01l.01-.01.01-.01.01-.01v-.01h.01v-.01l.01-.01v-.01l.01-.01v-.05h.15v.02l-.01.01v.05l-.01.01v.01l-.01.02v.01l-.01.01v.01l-.01.02-.01.01-.01.01-.01.01-.01.01-.01.01-.01.01h-.01l-.01.01-.01.01-.01.01h-.01l-.01.01-.02.01h-.02l-.02.01h-.05zm-.28-.29h.14v.04l.01.01v.02l.01.01v.01h.01v.01h.01v.01h.01v.01h.01v.01h.01l.01.01h.02v.01h.04v.14H10.68l-.02-.01h-.02l-.01-.01-.02-.01h-.01l-.01-.01-.01-.01-.01-.01h-.01l-.01-.01-.01-.01-.01-.01-.01-.01-.01-.01-.01-.01V1.4l-.01-.01-.01-.01v-.01l-.01-.02v-.01l-.01-.01v-.08zm.28-.28v.14h-.04v.01h-.02l-.01.01h-.01v.01h-.01v.01h-.01v.01h-.01v.01h-.01v.01l-.01.01v.02l-.01.01v.03h-.14v-.07l.01-.01v-.01l.01-.02v-.01l.01-.01.01-.01v-.02l.01-.01.01-.01.01-.01.01-.01.01-.01.01-.01.01-.01h.01l.01-.01.01-.01h.01l.02-.01.01-.01h.02l.02-.01h.06zM6.63 2.49h.14v-.02l.02.05.03.04.04.04.04.04.06.03.05.03.07.03.07.02.08.01.08.01h.27l.1-.02.1-.01.11-.03.1-.03.11-.03.11-.04.12-.05.11-.05.11-.06.11-.06.11-.07.11-.08.11-.08.11-.09.1-.09.1-.1.1-.11.1-.11.09-.12.12.09-.1.12-.1.12-.1.11-.11.1-.11.1-.11.09-.11.09-.12.08-.12.07-.11.07-.12.06-.12.05-.11.05-.12.04-.11.04-.12.03-.11.03-.11.02-.1.01-.11.01h-.1l-.09-.01-.1-.01-.08-.02-.09-.02-.07-.03-.08-.03-.06-.05-.06-.04-.05-.06-.04-.06-.04-.07v-.03zm0 .03v-.03.03zm3.08-.89l-.12-.09.09.11-.11.04-.11.04-.12.02-.12.02-.12.01-.12.01h-.37l-.13-.01-.12-.01-.13-.01-.12-.01-.12-.01-.12-.01H7.44l-.09.01-.09.02-.08.02-.08.03-.06.04-.06.04-.06.05-.04.06-.04.07-.03.08-.02.1-.01.11-.01.13h-.14v-.14l.02-.12.02-.12.04-.1.05-.09.06-.08.06-.06.08-.06.08-.04.09-.04.1-.02.1-.02.1-.01.11-.01h.22l.12.01.12.01.12.01.12.01.13.01.12.01h.12l.12.01h.24l.12-.01.11-.01.11-.02.11-.02.1-.03.1-.04.09.11zm-.09-.11l.25-.12-.16.23-.09-.11z" class="fil1"/><path d="M.83 1.09l.16-.03 1.79 9.19-.16.03z" class="fil2"/><path id="1" d="M1 1.11l-.16.03-.02-.09.16-.03.06.03-.04.06zm-.02-.09l.05-.01.01.04-.06-.03zm1.75 9.24L.94 1.07l.1-.02 1.78 9.19-.04.06-.05-.04zm.09-.02l.01.05-.05.01.04-.06zm-.21-.01l.16-.03.01.1-.16.03-.05-.04.04-.06zm.01.1l-.04.01-.01-.05.05.04zM.88 1.08l1.78 9.19-.09.02L.78 1.1l.04-.05.06.03zm-.1.02l-.01-.04.05-.01-.04.05z" class="fil1"/><path fill="#f08bb2" d="M2.19 8.1l.16-.04c.12-.02.23.06.26.18L2.95 10c.02.11-.06.23-.17.25l-.16.03c-.12.02-.24-.05-.26-.17l-.34-1.76c-.02-.12.05-.23.17-.25z"/><path id="1" d="M2.36 8.11l-.16.03-.02-.09.16-.03.02.09zm.29.12l-.09.01-.01-.01V8.2h-.01v-.01l-.01-.01-.01-.01v-.01h-.01v-.01H2.5l-.01-.01-.01-.01h-.01v-.01h-.03l-.01-.01h-.07l-.02-.09.01-.01H2.42l.01.01h.04l.01.01h.02l.01.01h.01l.01.01.01.01.01.01h.01l.01.01.01.01.01.01.01.01v.01l.01.01.01.01.01.01v.01l.01.02v.01l.01.01v.03zM2.9 10l-.34-1.76.09-.01.34 1.76-.09.01zm-.12.3l-.01-.1h.02l.01-.01h.01l.01-.01h.01v-.01h.01l.01-.01.01-.01v-.01h.01v-.01l.01-.01.01-.01v-.01l.01-.01V10l.09-.01L3 10v.08l-.01.01v.03l-.01.01v.01l-.01.01v.01l-.01.01-.01.01v.01l-.01.01-.01.01-.01.01-.01.01-.01.01-.01.01-.01.01h-.01l-.01.01-.01.01h-.01l-.02.01H2.8l-.02.01zm-.17-.07l.16-.03.01.1-.16.03-.01-.1zm-.3-.11l.1-.02v.02l.01.01v.02h.01v.01l.01.01v.01h.01v.01h.01l.01.01.01.01h.01v.01h.02l.01.01h.02l.01.01h.05l.01-.01.01.1H2.52l-.01-.01h-.03l-.01-.01h-.01l-.01-.01-.01-.01h-.01l-.01-.01-.01-.01-.01-.01-.01-.01h-.01l-.01-.01-.01-.01-.01-.01v-.02l-.01-.01-.01-.01v-.01l-.01-.01v-.03l-.01-.01zm-.24-1.78l.34 1.76-.1.02-.34-1.76.1-.02zm.11-.29l.02.09h-.01l-.01.01h-.01l-.01.01h-.02v.01h-.01l-.01.01-.01.01-.01.01v.01h-.01v.01l-.01.01v.01l-.01.01v.02l-.01.01v.05l.01.01-.1.02v-.11l.01-.01v-.02l.01-.02v-.01L2 8.18l.01-.01v-.01l.01-.01.01-.01.01-.01.01-.01v-.01l.01-.01h.01l.01-.01.02-.01h.01l.01-.01.01-.01h.01l.02-.01h.02z" class="fil1"/><g><path d="M18.95 7.3c.49-.2.01-.93-.49-1.13-.24-.1-.31-.33-.68-.25-1.6.04-3.58.18-5.73 1.24-.67.26-1.28 1.12-1.47 1.86-.26 1.02.26 1.9 1.49.21 1.06-.65 2.66-1.47 4.26-1.65 1.43-.15 2.02.46 2.62-.28z" class="fil4"/><path id="1" d="M18.49 6.1l.05.02.05.03.05.03.04.03.05.03.05.03.04.04.05.04.04.04.04.04.03.04.04.05.03.04.03.05.03.04.03.05.02.05.02.04.02.05.01.05.01.05.01.04v.05l-.01.05-.01.04-.02.04-.02.05-.03.03-.03.04-.04.03-.04.03-.05.02-.06-.13.04-.02.03-.02.02-.02.02-.02.02-.02.01-.02.01-.03.01-.03v-.09l-.01-.04-.01-.04-.01-.04-.02-.03-.02-.04-.02-.04-.03-.05-.02-.04-.03-.04-.03-.03-.04-.04-.03-.04-.04-.04-.04-.03-.04-.03-.04-.03-.04-.03-.05-.03-.04-.02-.04-.03-.05-.01.06-.14zm-.71-.25h-.02l.04-.01.04-.01H18l.02.01.03.01h.03l.02.01.02.01.03.01.02.01.02.02.02.01.02.01.02.01.02.02.01.01.02.01.02.02.01.01.02.01.02.01.01.01.02.02.02.01.01.01.02.01h.02l.02.01-.06.14-.02-.01-.02-.02-.03-.01-.02-.01-.02-.01-.02-.02-.02-.01-.02-.01-.01-.02-.02-.01-.02-.01-.01-.02-.02-.01-.02-.01-.01-.01-.02-.01-.01-.01-.02-.01-.02-.01-.01-.01h-.02l-.02-.01-.02-.01h-.03l-.03-.01h-.07l-.03.01h-.03l-.03.01h-.01v-.14zm.01.14h-.01.01zM12.03 7.1h-.01l.2-.1.2-.09.2-.09.2-.08.2-.08.2-.07.19-.07.2-.06.19-.06.19-.06.19-.05.19-.04.19-.05.18-.04.19-.04.18-.03.18-.03.18-.03.18-.03.17-.02.18-.02.17-.02.17-.02.17-.01.16-.01.17-.01.16-.01.16-.01.16-.01.15-.01h.31v.14h-.15l-.15.01h-.16l-.15.01-.16.01-.16.01-.17.01-.16.01-.17.02-.17.01-.17.02-.17.02-.17.02-.18.03-.18.03-.17.03-.19.03-.18.04-.18.04-.19.04-.18.05-.19.05-.19.06-.19.06-.19.06-.19.07-.2.07-.19.07-.2.09-.2.08-.2.09-.2.1-.05-.13zm.05.13zm-1.57 1.78l.02-.08.02-.07.03-.07.03-.07.02-.08.04-.07.03-.07.03-.08.04-.07.04-.07.04-.07.04-.07.05-.07.04-.07.05-.07.05-.06.05-.07.05-.06.05-.06.06-.06.06-.06.05-.05.06-.06.06-.05.06-.05.06-.04.06-.05.07-.04.06-.03.07-.04.06-.03.07-.02.05.13-.06.03-.06.02-.06.03-.06.04-.06.03-.06.04-.05.05-.06.04-.05.05-.06.05-.05.05-.06.06-.05.05-.05.06-.05.06-.05.06-.04.07-.05.06-.04.07-.05.06-.04.07-.04.07-.03.07-.04.07-.03.07-.03.07-.03.07-.03.07-.03.07-.02.06-.02.07-.02.07-.14-.03zm1.6.28l.02-.01-.11.15-.11.14-.11.12-.1.11-.1.1-.1.08-.09.07-.09.06-.08.05-.08.04-.08.03-.08.02h-.14l-.07-.02-.06-.03-.05-.03-.05-.05-.04-.05-.04-.05-.03-.07-.02-.07-.02-.07-.02-.08-.01-.08v-.26l.01-.1.01-.09.02-.1.02-.09.14.03-.02.09-.02.09-.01.09-.01.09v.24l.01.07.02.07.01.06.02.06.03.05.02.04.03.04.04.02.03.03.04.01.04.01.05.01.05-.01.06-.01.06-.02.07-.03.08-.05.08-.05.08-.07.09-.08.09-.09.1-.11.1-.12.11-.13.11-.15.02-.02.08.12zm-.1-.1l.01-.01.01-.01-.02.02zm4.33-1.53l-.15.01-.15.03-.14.02-.15.03-.15.03-.15.04-.14.03-.15.04-.14.05-.15.04-.14.05-.15.05-.14.05-.14.05-.14.06-.13.05-.14.06-.13.06-.13.06-.13.06-.13.07-.13.06-.12.06-.13.07-.12.06-.11.07-.12.06-.11.06-.11.07-.11.06-.1.06-.1.06-.08-.12.11-.06.1-.06.11-.07.11-.06.11-.07.12-.06.12-.07.12-.06.12-.06.13-.07.12-.06.13-.07.14-.06.13-.06.13-.06.14-.06.14-.05.14-.06.14-.05.15-.06.14-.05.15-.05.14-.04.15-.04.15-.05.15-.03.15-.04.15-.03.15-.03.15-.03.15-.02.16-.02.01.15zm-.01-.15h-.01.01zm2.65-.15l.03-.02-.06.07-.06.06-.06.05-.06.05-.07.04-.06.04-.06.03-.07.02-.07.02-.06.01-.07.01-.07.01h-.07l-.08-.01h-.07l-.08-.01h-.07l-.08-.01-.09-.02-.08-.01-.09-.01-.09-.01-.09-.01-.1-.01-.1-.01h-.1l-.11-.01H16.71l-.12.01h-.12l-.13.02-.01-.15.13-.01.13-.01h.47l.1.01.1.01.1.01.1.01.09.01.09.01.08.01.08.01.08.01.08.01.07.01h.26l.06-.01.06-.01.06-.02.05-.02.06-.02.05-.03.05-.03.06-.04.05-.05.05-.06.05-.06.03-.02.06.13zm-.09-.11l.02-.01.01-.01-.03.02z" class="fil1"/></g><g><path fill="#6fa691" d="M17.67 5.91c-1.13-1.26-2.43-1.99-3.98-1.99-.22 0-.8.03-.58-.03 1.25-.36 2.67.33 2.89.44 1.72-.41 4.7.99 4.93-1.47.03-.32-.59-.47-.79-.79.13 1.89-2.24.97-4.04.37 0 0-2.57-1.35-4.49 1.07-.08.46-.17 1.09-.03 1.29-.44.47-.6 2.28-.51 3.26.87-1.34 4.79-2.1 6.6-2.15z"/><path id="1" d="M13.69 3.85h.14l.15.01.14.01.15.02.14.01.14.03.14.02.13.04.14.03.13.04.14.04.13.05.13.05.13.06.13.06.12.06.13.07.12.07.12.07.12.08.12.08.12.08.12.09.11.09.12.1.11.1.12.1.11.1.11.11.11.11.1.11.11.12-.11.1-.1-.12-.11-.11-.11-.11-.1-.11-.11-.1-.11-.1-.11-.09-.12-.1-.11-.09-.11-.08-.12-.08-.11-.08-.12-.08-.12-.07-.12-.07-.12-.06-.13-.06-.12-.06-.12-.05-.13-.05-.13-.05-.13-.04-.13-.04-.13-.03-.13-.03-.14-.03-.13-.02-.14-.02-.14-.02-.14-.01h-.14l-.14-.01v-.14zm-.56.11h-.02l-.01.01.02-.02.01-.05-.02-.04-.02-.01h.02l.02.01H13.47l.03-.01H13.69v.14h-.02l-.03.01H13.1l-.02-.01h-.03l-.03-.02-.03-.04.02-.06.02-.03h.02l.02-.01.02-.01.04.14zm2.89.44l-.05-.01-.03-.01-.03-.01-.03-.02-.05-.02-.04-.02-.06-.03-.06-.02-.07-.03-.07-.03-.07-.03-.08-.03-.08-.03-.09-.03-.09-.02-.1-.03-.1-.03-.1-.02-.1-.03-.11-.02-.11-.02-.11-.02-.11-.01-.11-.01-.12-.01H13.71l-.12.01-.12.02-.11.02-.12.02-.11.03-.04-.14.12-.03.12-.03.12-.02.12-.01.13-.01.12-.01h.12l.12.01.12.01.12.01.11.01.12.02.11.02.11.02.11.03.1.02.1.03.1.03.09.03.09.03.09.03.08.03.08.03.07.03.07.02.06.03.05.02.05.03.05.02.04.02.03.01.02.01h-.05l.04.14zm0 0h-.03l-.02-.01.05.01zM21 2.87l-.03.23-.05.2-.06.18-.08.17-.09.15-.1.12-.12.12-.13.09-.14.08-.15.07-.15.05-.17.04-.17.03-.17.02-.18.01-.19.01-.19-.01h-.19l-.2-.01-.19-.01-.2-.02-.2-.02-.2-.01-.19-.02-.2-.01-.19-.01h-.37l-.18.01-.18.01-.16.03-.16.03-.04-.14.17-.04.18-.02.18-.01.18-.01h.38l.2.01.2.01.19.02.2.01.2.02.2.01.19.02.2.01h.55l.18-.01.16-.02.16-.03.16-.04.14-.05.14-.06.12-.07.12-.08.1-.1.1-.12.08-.13.07-.15.06-.17.04-.19.03-.21.14.01zm-.94-.8l.14-.04.01.03.02.02.03.03.02.02.03.02.02.03.03.02.03.02.03.03.04.02.03.02.03.03.04.02.03.02.04.02.03.02.03.03.04.02.03.02.03.03.03.02.03.03.03.02.02.03.02.03.03.03.01.03.02.03.01.04.01.03v.08l-.14-.01v-.04l-.01-.02v-.02l-.01-.02-.02-.02-.01-.03-.02-.02-.02-.02-.02-.02-.02-.02-.03-.02-.03-.02-.03-.02-.03-.02-.03-.03-.03-.02-.04-.02-.03-.02-.04-.03-.03-.02-.03-.02-.04-.03-.03-.02-.04-.03-.03-.02-.03-.03-.03-.03-.03-.03-.03-.03-.02-.03-.02-.03.13-.05-.15.01zm0 0l-.02-.28.16.24-.14.04zm-3.93.31h-.01l.17.05.17.06.18.06.18.06.17.06.18.05.18.06.18.05.17.05.18.05.17.05.17.03.16.04.16.03.16.02.15.02.14.01h.14l.13-.01.12-.02.11-.02.1-.03.1-.05.08-.05.08-.06.06-.08.05-.08.05-.1.03-.12.02-.13.01-.14-.01-.17.15-.01v.18l-.01.16-.02.14-.04.14-.05.11-.07.11-.07.09-.09.08-.1.06-.11.05-.12.04-.13.03-.13.01-.14.01h-.14l-.15-.01-.16-.02-.16-.02-.17-.03-.16-.04-.18-.04-.17-.04-.18-.05-.17-.05-.18-.05-.18-.06-.18-.06-.18-.06-.18-.06-.17-.05-.17-.06-.17-.06h-.01l.06-.13zm-.05.13h-.01.01zm-4.54.98l.01-.03.19-.22.18-.2.19-.17.2-.16.19-.14.2-.12.2-.11.19-.09.2-.07.19-.06.19-.05.19-.03.19-.03.18-.01.17-.01.18.01.16.01.16.01.15.03.15.02.13.03.13.03.12.04.11.03.1.04.08.03.08.03.06.02.05.03.04.01.02.02h.01l-.06.13-.01-.01-.02-.01-.04-.01-.04-.02-.06-.03-.08-.03-.08-.03-.1-.03-.1-.04-.11-.03-.13-.03-.13-.03-.14-.02-.15-.02-.15-.02-.16-.01h-.33l-.18.02-.18.02-.18.03-.18.05-.19.06-.18.07-.19.08-.19.1-.19.12-.18.13-.19.16-.19.17-.18.19-.18.21.02-.03-.14-.03zm0 0v-.01l.01-.02-.01.03zm-.01 1.26l-.01.09-.02-.02-.01-.03-.01-.03-.01-.03-.01-.04-.01-.03v-.04l-.01-.03V4.25l.01-.05v-.09l.01-.05v-.05l.01-.05.01-.05v-.04l.01-.05v-.05l.01-.05.01-.05.01-.04v-.05l.01-.04.01-.05.14.03-.01.04-.01.04v.05l-.01.05-.01.04v.05l-.01.05-.01.04v.05l-.01.05v.05l-.01.04v.05l-.01.05v.09l-.01.04V4.54l.01.03v.06l.01.03.01.03v.02l.01.02.01.02.01.01-.01.09-.1-.1zm.11.01l.03.05-.04.04.01-.09zm-.51 3.33L11 8.06l-.01-.09v-.1l-.01-.11v-.68l.01-.12.01-.12.01-.13.01-.12.01-.12.01-.12.02-.12.01-.12.02-.12.02-.11.02-.12.02-.11.03-.1.02-.1.03-.1.03-.1.03-.08.04-.09.03-.08.04-.07.04-.07.04-.06.05-.05.1.1-.03.04-.04.05-.04.06-.03.07-.03.07-.03.08-.03.08-.03.09-.03.09-.02.1-.03.11-.02.1-.02.11-.02.11-.02.12-.01.12-.02.12-.01.11-.01.13-.01.12-.01.12-.01.12v.12l-.01.11V7.65l.01.11v.1l.01.1.01.09-.14-.03.12.07zm0 0l-.11.18-.02-.21.13.03zm6.59-2.23l-.05.12-.18.01-.18.01-.2.01-.2.02-.22.03-.22.02-.23.03-.24.04-.24.04-.24.04-.24.05-.25.05-.25.05-.25.06-.25.06-.25.07-.24.07-.24.07-.23.08-.23.08-.23.08-.21.09-.21.09-.19.1-.19.09-.17.11-.17.1-.15.11-.13.11-.12.11-.1.12-.09.11-.12-.07.1-.13.11-.13.13-.12.14-.12.15-.11.17-.11.18-.1.19-.1.2-.1.21-.09.22-.09.23-.09.23-.08.24-.08.24-.07.25-.07.24-.07.25-.06.26-.06.25-.05.25-.05.25-.05.24-.04.24-.04.24-.04.23-.03.22-.03.22-.02.21-.02.2-.01.19-.01.17-.01-.05.12.11-.1zm0 0l.1.12h-.15l.05-.12z" class="fil1"/></g><g><path d="M20.89.92c-.58-.15-1.18.22-1.33.82-.15.61.2 1.21.78 1.36.59.15 1.18-.22 1.33-.82.15-.61-.2-1.21-.78-1.36z" class="fil4"/><path id="1" fill="#2b2a29" fill-rule="nonzero" d="M19.49 1.73l.02-.06.01-.06.03-.06.02-.05.03-.05.03-.05.03-.05.03-.05.04-.05.03-.04.04-.04.04-.04.05-.04.04-.04.05-.03.04-.03.05-.03.05-.02.05-.03.06-.02.05-.02.05-.01.06-.02.05-.01.06-.01H20.73l.06.01.06.01.06.01-.04.14-.05-.01-.05-.01-.05-.01H20.57l-.05.01h-.05l-.05.01-.05.01-.05.02-.04.02-.05.01-.04.02-.05.03-.04.02-.04.03-.04.03-.04.03-.04.03-.04.04-.03.03-.03.04-.03.04-.03.05-.03.04-.03.04-.02.05-.02.05-.02.05-.02.05-.01.05-.14-.03zm.83 1.44l-.05-.02-.06-.02-.05-.02-.06-.02-.05-.03-.05-.03-.05-.03-.04-.03-.05-.04-.04-.04-.04-.04-.04-.04-.03-.04-.04-.05-.03-.04-.03-.05-.02-.05-.03-.05-.02-.05-.02-.06-.02-.05-.01-.06-.02-.05-.01-.06v-.06l-.01-.06v-.11l.01-.06.01-.06.01-.06.01-.06.14.03-.01.05-.01.06-.01.05V2.13l.01.05v.05l.02.05.01.05.01.04.02.05.02.05.02.04.03.05.02.04.03.04.03.04.03.04.04.03.03.04.04.03.04.03.04.03.04.03.04.03.05.02.04.02.05.02.05.01.05.02-.04.14zm1.42-.88l-.02.06-.01.06-.03.06-.02.05-.03.05-.03.05-.03.05-.03.05-.04.05-.03.04-.04.04-.04.04-.05.04-.04.03-.05.04-.04.03-.05.03-.05.02-.05.03-.06.02-.05.02-.05.01-.06.02-.05.01h-.06l-.06.01H20.5l-.06-.01-.06-.01-.06-.01.04-.14.05.01.05.01.05.01H20.66l.05-.01h.05l.05-.01.05-.02.05-.01.04-.02.05-.01.04-.03.05-.02.04-.02.04-.03.04-.03.04-.03.04-.03.04-.04.03-.04.03-.03.03-.04.03-.05.03-.04.03-.05.02-.04.02-.05.02-.05.02-.05.01-.05.14.03zM20.91.85l.05.02.06.02.05.02.06.02.05.03.05.03.05.03.04.03.05.04.04.04.04.04.04.04.03.04.04.05.03.04.03.05.02.05.03.05.02.05.02.06.02.05.01.06.02.05.01.06v.06l.01.06v.11l-.01.06v.06l-.02.06-.01.06-.14-.03.01-.06.01-.05.01-.05v-.05l.01-.06-.01-.05v-.05l-.01-.05v-.05l-.01-.05-.02-.05-.01-.05-.02-.04-.02-.05-.02-.04-.03-.05-.02-.04-.03-.04-.03-.04-.03-.04-.03-.03-.04-.04-.04-.03-.04-.03-.04-.03-.04-.03-.04-.03-.05-.02-.04-.02-.05-.02-.05-.02-.05-.01.04-.14z"/></g></g></g></svg>