<svg xmlns="http://www.w3.org/2000/svg" width="137" height="64" fill-rule="evenodd" clip-rule="evenodd" image-rendering="optimizeQuality" shape-rendering="geometricPrecision" text-rendering="geometricPrecision" viewBox="0 0 25.39 11.86"><defs><style>.fil3{fill:#f5b2b6}.fil2{fill:#f08bb2}.fil4{fill:#99cfba}.fil0{fill:#2b2a29;fill-rule:nonzero}</style></defs><g id="Слой_x0020_1"><g id="_1411549424"><path d="M2.12 1.3l.02-.06v.06L2 1.33l-.11.03-.11.03-.09.04-.08.04-.07.03-.06.04-.06.04-.04.04-.04.04-.04.05-.03.04-.03.04-.02.05-.03.04-.02.04-.02.05-.03.04-.03.04-.03.05-.04.04-.04.04-.05.04-.05.03-.07.04-.07.03-.08.03-.09.03-.11.02-.11.02-.13.02-.15.02v-.07l.14-.01.13-.02.11-.02.1-.02.09-.03.08-.03.07-.03.06-.03.05-.03.04-.04.04-.03.03-.04.03-.04.03-.04.02-.04.03-.05.02-.04.02-.05.03-.04.03-.05.03-.04.04-.05.04-.04.05-.05.06-.04.07-.04.07-.04.09-.04.09-.03.11-.04.12-.03.13-.03v.06zm.02-.06l.09.04-.09.02v-.06zm-1.67.27l-.01-.06.04-.01.04-.01.04-.01.05-.01.05-.01.04-.01.06-.01.05-.02.05-.01.06-.02.05-.01.06-.01.06-.02.06-.01.06-.02.06-.01.05-.01.06-.01.06-.01.06-.01.06-.01.06-.01h.05l.06-.01h.11l.05.01h.05l.05.01.04.01.05.01.04.02-.02.06-.04-.02-.04-.01-.05-.01-.04-.01h-.1l-.05-.01-.05.01h-.11l-.05.01-.06.01-.06.01-.06.01-.05.01-.06.01-.06.01-.06.02-.06.01-.05.02-.06.01-.06.02-.05.01-.06.01-.05.02-.05.01-.05.01-.05.01-.05.02H.55l-.04.01-.04.01zM.21.8l.05.03-.01.01-.03.01-.03.02-.02.02-.02.02-.02.02-.02.02L.1.98.09 1l-.01.03-.01.03v.02l-.01.03v.06l.01.02v.03l.01.03.01.02.02.03.01.02.02.02.02.02.02.02.02.02.03.01.02.02.03.01h.03l.04.01H.46l.01.06H.3L.26 1.5l-.03-.02-.03-.01-.03-.02-.03-.02-.03-.02-.02-.03-.02-.02-.02-.03-.01-.03-.02-.03-.01-.03V1.2L0 1.17v-.1l.01-.03.01-.03.01-.03.01-.03.02-.03.02-.03L.1.87.13.84.16.82.19.8.22.78.21.8zm.05.03v.01H.25L.26.83zm1.84.44h.06l-.06.02-.05-.06L2 1.17l-.06-.06-.06-.05-.06-.05-.07-.04-.06-.05-.07-.03-.07-.04-.07-.03L1.4.79 1.33.76 1.26.74 1.18.72 1.11.71 1.04.69.97.68H.9L.83.67H.65L.59.68.53.69.48.7.44.71.4.73.36.74.33.76.3.78.28.8.26.83.21.8.23.76.26.74.29.71.33.69.37.67.42.65.47.64.52.63.58.62.64.61h.27l.07.01.07.01.07.02.08.01.07.02.08.03.08.02.07.03.07.03.08.04.07.04.07.04.07.05.06.05.06.06.06.05.06.07.05.06-.05.02zm.06 0l.01.1-.07-.08.06-.02zm.92-.75l-.06.02.01.01L3 .51 2.98.47 2.95.44 2.92.41 2.89.39 2.86.37 2.82.35 2.79.34 2.75.33H2.64l-.03.01-.04.01-.04.01-.03.02-.04.03-.04.02-.03.03-.03.04-.03.04-.03.04-.03.05-.02.05-.03.06-.01.06-.02.07-.01.07-.01.08-.01.08V1.27H2.1v-.26l.01-.08.02-.07.01-.07.03-.07.02-.06.03-.06.02-.05.04-.05.03-.04.04-.04.03-.04.04-.03.04-.02.05-.02.04-.02.04-.01.04-.01.05-.01.04.01h.04l.05.01.04.01.04.02.04.03.03.02L3 .4l.03.03.03.04.02.05zm0 0zm-.94.72l-.02.06v-.06l.06-.02.06-.02.05-.01.05-.02.06-.01.05-.02.05-.01.04-.02.05-.01.04-.02.04-.01.04-.02.04-.01.04-.02.03-.01.03-.02.03-.02.03-.02.02-.01.02-.02.02-.03.02-.02L3 .85l.01-.03.01-.03.01-.02.01-.04V.62L3.03.58 3.02.54l.06-.02.01.05.01.05v.12l-.01.04-.01.03-.01.04-.01.03-.02.03-.02.02L3 .96l-.03.02-.03.03-.03.02-.03.02-.03.01-.04.02-.03.02-.04.01-.04.02-.05.01-.04.02-.05.01-.05.02-.04.01-.06.02-.05.01-.05.02-.06.01-.05.02-.06.02v-.06zm-.02.06l-.08-.04.08-.02v.06zm21.16.5l.02-.05v.05l-.63.27-.64.24-.65.21-.66.2-.68.18-.67.16-.69.14-.69.13-.69.1-.7.08-.71.07-.7.05-.71.03-.7.01h-.71l-.7-.02-.7-.04-.69-.05-.7-.07-.68-.08-.68-.1-.68-.11-.66-.13-.66-.14-.64-.16-.64-.17-.62-.19-.61-.19-.6-.21-.58-.23-.56-.23-.55-.25.02-.06.55.25.56.23.58.23.6.21.61.19.62.19.63.17.65.15.65.15.66.12.68.12.67.1.69.08.69.07.7.05.69.04.71.02h.7l.7-.01.71-.03.7-.05.7-.07.7-.08.69-.11.69-.12.68-.14.68-.16.67-.18.66-.2.65-.21.64-.24.63-.26v.05zm.02-.05l.07.03-.07.02v-.05zM23 .11l-.03.06-.09-.04-.09-.03-.08-.02-.08-.01-.08-.01-.07.01-.07.01-.07.02-.05.02-.06.03-.05.04-.04.04-.03.04-.03.06-.02.05-.02.06v.13l.01.08.02.07.04.08.04.08.06.08.06.09.08.08.1.09.1.09.12.09.14.09.15.08.16.09.18.09-.02.05-.18-.08-.17-.09-.15-.09-.14-.09-.13-.09-.11-.09-.09-.09-.08-.09-.07-.09-.06-.09-.05-.08-.03-.09-.03-.08-.01-.08-.01-.07.01-.08.02-.07.02-.06.03-.06.04-.05.05-.05.06-.04.06-.04.06-.02.08-.02.07-.02H22.64l.08.02.09.02.09.03.09.04H23zm-.01 0H23h-.01zm.3 1.56l.05.04-.05-.03v-.12l.01-.06v-.06l.01-.06v-.06l.01-.06v-.05l.01-.06v-.06l.01-.05V.78l-.01-.05V.69l-.01-.05-.01-.04-.02-.05-.01-.04-.02-.04-.02-.04-.02-.04-.03-.03-.03-.04-.03-.03-.03-.04-.04-.03-.05-.03-.04-.02.03-.06.05.03.04.03.05.04.04.03.03.04.03.04.03.04.03.04.02.04.02.05.01.04.02.05.01.05.01.05v.05l.01.05v.32l-.01.05v.06l-.01.06v.06l-.01.06v.06l-.01.06v.06l-.01.06v.06l-.06-.02zm.05.04l-.06.06.01-.09.05.03zm1.98-.88l-.06.02-.01-.04-.02-.03-.02-.02-.03-.03-.03-.01-.03-.02-.04-.01-.04-.01h-.14l-.06.01-.05.01-.06.02-.07.02-.06.02-.07.03-.07.03-.07.04-.08.04-.07.05-.08.04-.08.06-.08.05-.08.07-.08.06-.08.07-.09.07-.08.08-.08.08-.09.09-.08.09-.05-.04.09-.1.08-.08.09-.08.08-.08.09-.08.08-.07.08-.06.09-.07.08-.05.08-.06.07-.05.08-.04.08-.05.07-.03.07-.04.07-.03.07-.02.07-.02.06-.02.06-.01.06-.01.06-.01H25l.05.01.05.01.04.01.04.02.04.02.03.03.03.04.02.04.02.04zm-2.02.92l-.02.05-.02-.03.03-.03h.02l.04-.01h.04l.05-.01h.06l.07-.01.08-.01.08-.01.09-.01.09-.01.09-.01.1-.02.1-.01.1-.02.1-.03.1-.02.1-.02.09-.03.09-.04.09-.03.08-.04.07-.04.07-.04.05-.05.05-.05.04-.05.03-.06.02-.06V.92l-.02-.07.06-.02.02.08.01.08-.01.08-.02.07-.04.06-.04.06-.05.06-.07.05-.07.05-.08.04-.08.04-.09.03-.09.04-.1.03-.1.02-.1.03-.1.02-.1.02-.1.01-.1.02-.09.01-.1.01-.08.01-.09.01-.07.01-.07.01h-.06l-.05.01h-.04l-.04.01h-.01l.01-.01-.02-.04zm-.02.05l-.03-.01.01-.02.02.03zm2.11 1.84l-.03.05-.16-.07-.15-.07-.12-.07-.11-.07-.1-.06-.08-.06-.07-.07-.06-.06-.05-.05-.04-.06-.03-.06-.03-.05-.02-.06-.01-.05-.01-.05-.02-.05-.01-.05-.01-.05-.01-.05-.02-.05-.03-.05-.02-.05-.04-.06-.05-.05-.05-.06-.07-.05-.08-.06-.09-.07-.11-.06-.13-.07-.14-.07-.16-.08.02-.05.17.07.14.07.13.07.11.07.1.06.08.07.07.06.06.06.05.06.04.05.03.06.03.05.01.06.02.05.01.05.01.05.02.05.01.05.01.05.02.05.02.05.03.06.04.05.04.05.06.06.07.06.08.06.09.06.11.06.12.07.15.07.16.08z" class="fil0"/><path fill="#6fa691" d="M10.95 3.13l1.88 6.65 1.91-6.49c-1.25.24-2.52.18-3.79-.16z"/><path id="1" d="M12.8 9.79l-1.88-6.65.06-.01 1.88 6.64v.02h-.06zm.06 0l-.03.1-.03-.1h.06zm1.91-6.49l-1.91 6.49-.06-.02 1.91-6.49.02-.02.04.04zm-.04-.04l.05-.01-.01.05-.04-.04zm-3.75-.13l-.06.01.04-.04.12.03.11.03.12.03.12.03.12.02.12.02.12.02.12.02.12.02.11.01.12.02.12.01.12.01.12.01.12.01h.11l.12.01h.59l.12-.01.12-.01.11-.01.12-.01.12-.01.11-.01.12-.02.12-.02.12-.02.11-.02.01.06-.11.03-.12.01-.12.02-.12.02-.12.01-.11.01-.12.02h-.12l-.12.01-.12.01h-.71l-.12-.01-.12-.01-.12-.01-.11-.01-.12-.01-.12-.01-.12-.02-.12-.02-.12-.02-.12-.02-.12-.02-.12-.02-.12-.03-.12-.03-.12-.02-.12-.04.04-.03zm-.06.01l-.02-.05.06.01-.04.04z" class="fil0"/><path d="M6.94 2.37l1.03 8.85 2.58-8.3c-1.26.2-2.39-.03-3.61-.55z" class="fil2"/><path id="1" d="M7.94 11.23L6.91 2.37h.07L8 11.22v.01h-.06zm.06 0l-.05.14-.01-.14H8zm2.58-8.3L8 11.23l-.06-.02 2.58-8.3.02-.02.04.04zm-.04-.04l.05-.01-.01.05-.04-.04zm-3.56-.52h-.07l.05-.03.11.05.11.04.12.05.11.04.11.04.11.04.11.04.11.03.11.03.11.04.11.02.11.03.11.03.11.02.11.02.11.02.11.02.11.01.11.02.12.01h.11l.11.01.11.01H9.74l.11-.01h.11l.12-.01.11-.01.12-.01.11-.01.12-.02.01.06-.12.02-.12.01-.11.01-.12.01-.11.01-.12.01H9.51l-.11-.01h-.12L9.17 3l-.11-.01-.11-.02-.12-.01-.11-.02-.11-.02-.11-.02-.11-.02-.11-.03-.11-.02-.11-.03-.12-.04-.11-.03-.11-.03-.11-.04-.11-.04-.11-.04-.12-.04-.11-.05-.11-.04-.12-.05.05-.03zm-.07 0v-.05l.05.02-.05.03z" class="fil0"/><path d="M15.05 3.19l2.56 8.51.98-8.77c-1.22.38-2.23.44-3.54.26z" class="fil2"/><path id="1" d="M17.58 11.71L15.02 3.2l.06-.02 2.56 8.51v.01l-.06.01zm.06-.01l-.01.16-.05-.15.06-.01zm.98-8.76l-.98 8.76h-.06l.98-8.77.02-.03.04.04zm-.04-.04l.04-.01v.05l-.04-.04zm-3.5.28l-.06.02.04-.04.12.01.12.02.12.01.11.01.12.01.11.01.12.01h.11l.11.01h.54l.11-.01h.1l.11-.01.1-.01.11-.01.1-.02.11-.01.11-.02.1-.01.11-.02.11-.03.1-.02.11-.03.11-.02.11-.03.11-.03.11-.03.12-.04.02.06-.12.04-.11.03-.11.03-.11.03-.11.03-.11.02-.11.02-.11.03-.11.02-.1.02-.11.01-.11.02-.1.01-.11.01-.11.01-.1.01-.11.01h-.22l-.1.01h-.11l-.11-.01H15.98l-.11-.01-.11-.01-.12-.01-.11-.01-.12-.01-.12-.01-.12-.02-.12-.01.03-.04zm-.06.02l-.01-.05.05.01-.04.04z" class="fil0"/><path d="M18.88 2.75l3.57 5.37.02-6.26c-1.14.55-2.22.76-3.59.89z" class="fil3"/><path id="1" d="M22.42 8.14l-3.57-5.37.05-.04 3.57 5.38.01.01-.06.02zm.06-.02v.11l-.06-.09.06-.02zm.03-6.26l-.03 6.26h-.07l.03-6.26.02-.03.05.03zm-.05-.03l.05-.02v.05l-.05-.03zm-3.56.9l-.05.04.03-.05.12-.01.13-.01.12-.02.13-.01.12-.02.12-.01.11-.02.12-.02.12-.02.11-.01.12-.02.11-.02.11-.03.11-.02.11-.02.11-.03.11-.02.11-.03.11-.03.1-.03.11-.03.11-.04.1-.03.11-.04.11-.03.1-.04.11-.04.1-.05.11-.04.11-.05.1-.05.11-.05.03.06-.11.05-.11.05-.1.05-.11.04-.11.04-.11.04-.1.04-.11.04-.11.04-.1.03-.11.04-.11.03-.11.03-.1.03-.11.03-.11.02-.11.03-.11.02-.12.03-.11.02-.11.02-.12.02-.11.02-.12.02-.12.01-.12.02-.12.01-.12.02-.12.01-.12.02-.13.01-.13.01.02-.05zm-.05.04l-.03-.04.06-.01-.03.05z" class="fil0"/><path d="M3.25.94l-1.2 7 4.66-5.46c-1.25-.24-2.4-.76-3.46-1.54z" class="fil4"/><path id="1" d="M2.02 7.93L3.21.94l.07.01-1.2 6.99v.02l-.06-.03zm.06.03L2 8.05l.02-.12.06.03zM6.74 2.5L2.08 7.96l-.05-.04 4.66-5.46.03-.01.02.05zm-.02-.05l.05.01-.03.04-.02-.05zM3.28.95L3.21.94l.05-.02.1.07.1.07.1.07.11.07.1.06.1.07.1.06.11.06.1.06.1.06.11.05.1.06.11.05.11.05.1.05.11.05.11.05.11.05.11.04.11.04.11.04.11.04.11.04.11.04.11.03.12.04.11.03.12.03.11.03.12.02.11.03.12.02-.01.06-.12-.02-.12-.03-.11-.02-.12-.03-.11-.03-.12-.03-.11-.04-.12-.03-.11-.04-.11-.04-.11-.04-.11-.04-.12-.04-.11-.05-.1-.04-.11-.05-.11-.05-.11-.05-.11-.05-.1-.06-.11-.05-.11-.06-.1-.06-.11-.06-.1-.06-.1-.06-.11-.07-.1-.06-.1-.07-.1-.07-.1-.07-.1-.07.05-.02zM3.21.94l.01-.05.04.03-.05.02z" class="fil0"/><g><path d="M4.53 2.83c.27 0 .48.21.48.48 0 .26-.21.47-.48.47-.26 0-.47-.21-.47-.47 0-.27.21-.48.47-.48zm-1.64.18l-.15.89c.07.03.14.05.22.05.27 0 .48-.21.48-.47S3.23 3 2.96 3c-.02 0-.04 0-.07.01zm-.05 4.01l.62-.73c-.09-.07-.19-.11-.31-.11-.26 0-.48.21-.48.48 0 .14.07.27.17.36zm1.54-1.8l.6-.71c-.08-.11-.22-.18-.37-.18-.26 0-.48.21-.48.47 0 .18.1.34.25.42zm1.15-1.36l.6-.69c-.06-.03-.13-.04-.2-.04-.26 0-.48.21-.48.47 0 .1.03.19.08.26zm.8-1.46c-.31-.08-.61-.17-.91-.28-.01.05-.02.1-.02.15 0 .27.21.48.47.48.22 0 .41-.15.46-.35zM3.31 4.46c.27 0 .48.22.48.48s-.21.48-.48.48c-.26 0-.47-.22-.47-.48s.21-.48.47-.48zm.46-2.98c.27 0 .48.21.48.48 0 .26-.21.47-.48.47-.26 0-.47-.21-.47-.47 0-.27.21-.48.47-.48z" class="fil3"/><path id="1" d="M5.04 3.31h-.06v-.03l-.01-.02v-.04l-.01-.02v-.03l-.01-.02-.01-.02-.01-.02-.01-.01-.01-.02-.01-.02-.01-.02-.01-.02-.02-.01-.01-.02-.02-.01-.01-.02-.02-.01-.02-.01-.02-.01-.02-.01-.01-.01-.02-.01-.02-.01-.03-.01h-.02l-.02-.01H4.6l-.02-.01h-.05V2.8h.05l.03.01h.02l.03.01h.02l.03.01.02.01.02.01.02.01.03.01.02.02.02.01.01.02.02.01.02.02.02.02.01.01.02.02.01.02.02.02.01.02.01.03.01.02.01.02.01.03v.02l.01.03v.02l.01.03v.05zm-.51.5v-.06h.07l.02-.01h.02l.02-.01.03-.01h.02l.02-.01.01-.01.02-.01.02-.01.02-.02.02-.01.01-.01.02-.02.01-.01.02-.02.01-.02.01-.01.01-.02.01-.02.01-.02.01-.02.01-.02.01-.02v-.02l.01-.02v-.05l.01-.02v-.02h.06v.05l-.01.02v.03l-.01.02v.03l-.01.02L5 3.5l-.01.03-.01.02-.01.02-.02.02-.01.02-.02.02-.01.02-.02.02-.02.01-.02.02-.01.01-.02.02-.02.01-.03.01-.02.01-.02.01-.02.01-.03.01-.02.01h-.03l-.02.01h-.08zm-.51-.5h.07v.06l.01.03v.02l.01.02v.02l.01.02.01.02.01.02.01.02.01.02.02.01.01.02.01.02.02.01.01.02.02.01.02.01.01.02.02.01.02.01.02.01.02.01h.02l.02.01.02.01h.02l.02.01h.07v.06h-.08l-.02-.01h-.02l-.03-.01-.02-.01-.03-.01-.02-.01-.02-.01-.02-.01-.02-.01-.02-.02-.02-.01-.02-.02-.02-.01-.01-.02-.02-.02-.01-.02-.02-.02-.01-.02-.01-.02-.02-.02-.01-.03v-.02l-.01-.02-.01-.03-.01-.02v-.08l-.01-.02zm.51-.51v.06h-.04l-.03.01h-.02l-.02.01H4.4l-.02.01-.02.01-.02.01-.02.01-.02.01-.02.01-.01.01-.02.01-.02.02-.01.01-.02.02-.01.01-.01.02-.02.02-.01.02-.01.02-.01.01-.01.02-.01.02v.02l-.01.03v.02l-.01.02v.07h-.07l.01-.03v-.07l.01-.03.01-.02.01-.03v-.02l.01-.02.02-.03.01-.02.01-.02.02-.02.01-.02.02-.01.01-.02.02-.02.02-.01.02-.02.02-.01.02-.02.02-.01.02-.01.02-.01.03-.01.02-.01h.03l.02-.01h.02l.03-.01h.05zM2.71 3.89L2.86 3l.06.01-.15.89-.04.03-.02-.04zm.02.04l-.02-.01v-.03l.02.04zm.23-.01v.07h-.03l-.01-.01H2.86v-.01h-.03l-.01-.01H2.8l-.01-.01h-.02l-.01-.01h-.01l-.01-.01h-.01l.03-.06.01.01h.01l.01.01h.01l.01.01h.03v.01h.04v.01h.08zm.45-.44h.06v.08l-.01.02v.03l-.01.02-.01.02-.01.03-.01.02-.01.02-.01.02-.01.02-.02.02-.01.02-.02.02-.02.02-.01.01-.02.02-.02.02-.02.01-.02.01-.02.01-.03.02-.02.01-.02.01h-.02l-.03.01-.02.01h-.05l-.03.01h-.03v-.07h.07l.02-.01h.03l.02-.01h.02l.02-.01.02-.01.02-.01.02-.01.01-.01.02-.01.02-.02.01-.01.02-.02.01-.01.02-.02.01-.02.01-.01.01-.02.02-.02.01-.02v-.02l.01-.02.01-.02.01-.02v-.04l.01-.03v-.04zm-.45-.45v-.06h.06l.02.01h.03l.02.01h.03l.02.01.02.01.02.01.03.01.02.01.02.02.02.01.02.02.02.01.01.02.02.02.02.02.01.01.02.02.01.03.01.02.01.02.01.02.01.02.01.03.01.02v.03l.01.02v.08h-.06v-.05l-.01-.02v-.04l-.01-.02-.01-.02-.01-.02v-.02l-.01-.02-.02-.02-.01-.02-.01-.02-.01-.01-.02-.02-.01-.02-.02-.01-.01-.01-.02-.02-.02-.01-.01-.01-.02-.01-.02-.01-.02-.01-.02-.01-.02-.01h-.02l-.03-.01h-.04l-.02-.01h-.03zm-.04-.02L2.86 3l.03-.02h.01v-.01H2.96v.06h-.03v.01H2.9l.02-.03zM2.86 3l.01-.02h.02L2.86 3zm.62 3.31l-.62.73L2.82 7l.61-.73h.05v.04zm0-.04l.02.02-.02.02v-.04zm-.33-.06v-.06h.08l.01.01h.03l.01.01h.03l.01.01h.02l.01.01h.01l.01.01h.01l.01.01h.01l.01.01h.01l.01.01v.01h.01l.01.01.01.01h.01l.01.01-.04.05-.01-.01h-.01l-.01-.01v-.01H3.4l-.01-.01h-.01v-.01h-.01l-.01-.01h-.01l-.01-.01h-.02l-.01-.01H3.3l-.01-.01h-.02l-.01-.01h-.04l-.01-.01H3.15zm-.45.45h-.06V6.6l.01-.02v-.03l.01-.02V6.5l.01-.02.01-.02.01-.02.01-.03.01-.02.02-.02.01-.02.02-.02.01-.02.02-.01.02-.02.02-.02.01-.01.02-.02.03-.01.02-.01.02-.01.02-.01.02-.01.03-.01.02-.01h.03l.02-.01h.08v.06H3.1l-.02.01h-.04l-.02.01-.02.01-.02.01h-.02l-.02.01-.02.02-.02.01-.02.01-.01.01-.02.02-.02.01-.01.02-.01.01-.02.02-.01.02-.01.02-.01.01-.01.02-.01.02-.01.02-.01.02v.02l-.01.03v.04l-.01.02v.03zm.12.34l.04.04h-.04l-.01-.01-.01-.01-.01-.01L2.78 7l-.01-.01-.01-.01-.01-.01v-.01l-.01-.01-.01-.01-.01-.01-.01-.01v-.01L2.7 6.9v-.02l-.01-.01-.01-.01v-.01l-.01-.02v-.01l-.01-.01v-.03l-.01-.01v-.04l-.01-.02v-.05h.06v.02l.01.01V6.75l.01.02v.02l.01.01v.01l.01.01v.01l.01.01v.02l.01.01v.01l.01.01v.01l.01.01.01.01.01.01v.01h.01l.01.01.01.01v.01l.01.01.01.01h.01L2.82 7zm.04.04l-.02.02-.02-.02h.04zm2.15-2.51l-.61.71-.05-.04.61-.71h.05v.04zm0-.04l.01.02-.01.02v-.04zm-.4-.13V4.3H4.7l.01.01h.03l.02.01h.02l.02.01.01.01h.01l.02.01h.01l.01.01.01.01h.01l.02.01.01.01.01.01.01.01.01.01.01.01.01.01h.01l.01.01.01.02.01.01.01.01-.05.04-.01-.01-.01-.01-.01-.01v-.01l-.01-.01-.01-.01-.01-.01h-.01l-.01-.01-.01-.01-.01-.01h-.01l-.01-.01-.01-.01h-.01l-.01-.01H4.8l-.02-.01h-.01l-.01-.01h-.02l-.01-.01H4.7l-.01-.01h-.08zm-.44.44H4.1v-.02l.01-.03V4.7l.01-.02.01-.03v-.02l.01-.02.01-.03.01-.02.02-.02.01-.02.01-.02.02-.02.02-.02.01-.02.02-.01.02-.02.02-.01.02-.02.02-.01.02-.01.02-.01.02-.02h.03l.02-.01.02-.01h.03l.02-.01h.08v.06h-.07l-.02.01H4.5l-.02.01h-.02l-.02.01-.02.01-.02.01-.02.01-.02.01-.02.02-.01.01-.02.01-.01.02-.02.01-.01.02-.02.02-.01.01-.01.02-.01.02-.01.02-.01.02-.01.02v.02l-.01.02-.01.02V4.8zm.18.4l.05.04h-.05l-.02-.01-.01-.01-.01-.01-.02-.01-.01-.01-.01-.01-.01-.01-.02-.02-.01-.01-.01-.01-.01-.01-.01-.02-.01-.01-.01-.01-.01-.02v-.01l-.01-.02-.01-.01L4.14 5v-.01l-.01-.02v-.01l-.01-.02v-.02l-.01-.01v-.06l-.01-.01V4.8h.07v.08l.01.01v.03l.01.02v.01l.01.01v.02l.01.01V5l.01.02.01.01.01.01v.01l.01.02.01.01.01.01.01.01.01.01.01.01.01.01.01.01.01.01.01.01.02.01h.01l.01.01.01.01-.04.01zm.05.04l-.02.02-.02-.02h.04zm1.75-2.05l-.59.69-.05-.04.59-.69.04-.01.01.05zm-.01-.05l.04.02-.03.03-.01-.05zm-.21.02v-.07h.01l.01.01h.07l.01.01h.04l.01.01h.02l.01.01h.02v.01h.01l-.03.06v-.01h-.02l-.01-.01h-.02l-.01-.01h-.04v-.01h-.08zm-.45.44h-.06v-.05l.01-.03V3.5l.01-.02v-.03l.01-.02.01-.03.01-.02.01-.02.02-.02.01-.02.01-.02.02-.02.01-.02.02-.02.02-.01.02-.02.02-.01.02-.02.02-.01.02-.01.02-.02.02-.01h.02l.03-.01.02-.01h.03l.02-.01h.05l.03-.01v.07h-.07l-.02.01h-.02l-.02.01h-.02l-.02.01-.02.01-.02.01-.02.01-.02.01-.02.02-.01.01-.02.01-.02.02-.01.01-.01.02-.02.02-.01.01-.01.02-.01.02-.01.02-.01.02-.01.02-.01.02v.02l-.01.02v.07l-.01.02zm.03.24l.05.04h-.05l-.01-.01-.01-.01v-.01l-.01-.01v-.01h-.01v-.02l-.01-.01v-.02h-.01v-.02l-.01-.01v-.03l-.01-.01v-.05l-.01-.01V3.6h.06v.02l.01.01V3.69l.01.01v.03l.01.01v.02l.01.01v.01l.01.01v.02h.01v.01l.01.01v.01l.01.01-.05-.01zm.05.04l-.03.04-.02-.04h.05zm-.11-1.75l-.06-.02.04-.02.03.01.03.01.03.01.02.01.03.01.03.01.03.01.03.01.02.01.03.01.03.01.03.01.03.01.03.01h.02l.03.01.03.01.03.01.03.01.03.01h.02l.03.01.03.01.03.01.03.01h.03l.03.01.03.01.02.01h.03l.03.01.03.01-.01.06-.03-.01-.03-.01h-.03l-.03-.01-.03-.01-.03-.01h-.03l-.03-.01-.03-.01-.02-.01h-.03l-.03-.01-.03-.01-.03-.01-.03-.01-.03-.01-.02-.01h-.03l-.03-.01-.03-.01-.03-.01-.03-.01-.03-.01-.02-.01-.03-.01-.03-.01-.03-.01-.03-.01-.02-.01-.03-.01-.03-.01-.03-.01.04-.02zm-.06-.02l.01-.03.03.01-.04.02zm.04.16h-.06v-.09l.01-.01v-.03l.01-.01v-.02l.06.02v.02l-.01.01v.04h-.01v.07zm.44.45v.06h-.05l-.02-.01h-.03l-.02-.01h-.03l-.02-.01-.02-.01-.03-.01-.02-.01-.02-.01-.02-.02-.02-.01-.02-.02-.02-.01-.02-.02-.01-.02-.02-.01-.01-.02-.02-.02-.01-.02-.01-.03-.01-.02-.01-.02-.01-.02-.01-.03-.01-.02v-.02l-.01-.03v-.08h.06v.07l.01.02v.02l.01.03.01.02v.02l.01.02.01.01.01.02.01.02.02.02.01.02.01.01.02.02.01.01.02.02.02.01.01.01.02.01.02.01.02.01.02.01.02.01.02.01h.02l.02.01h.03l.02.01h.04zm.46-.29l.01-.06.02.04v.02l-.01.02-.01.02-.01.01v.02l-.01.02-.01.02-.02.02-.01.01-.01.02-.01.01-.02.02-.01.01-.01.02-.02.01-.02.01-.01.02-.02.01-.02.01-.01.01-.02.01-.02.01-.02.01h-.02l-.02.01H6l-.02.01h-.02l-.02.01h-.07v-.06h.04l.02-.01h.04l.01-.01H6l.02-.01h.02l.01-.01.02-.01.02-.01.01-.01h.02l.01-.01.02-.02.01-.01.01-.01.02-.01.01-.01.01-.02.01-.01.01-.01.01-.02.01-.01.01-.02.01-.02.01-.01.01-.02v-.01l.01-.02v-.02l.03.04zm.01-.06l.03.01-.01.03-.02-.04zM3.82 4.94h-.06v-.02l-.01-.03v-.04l-.01-.02v-.02l-.01-.02-.01-.02-.01-.02-.01-.02-.01-.02-.01-.02-.01-.02-.01-.01-.02-.02-.01-.01-.02-.02-.01-.01-.02-.02-.02-.01-.02-.01-.02-.01-.01-.01-.02-.01-.02-.01h-.03l-.02-.01-.02-.01h-.09v-.07h.03l.02.01h.05l.03.01.02.01h.03l.02.01.02.01.02.01.03.02.02.01.02.01.01.02.02.01.02.02.02.02.01.02.02.02.01.02.02.02.01.02.01.02.01.02.01.03.01.02v.02l.01.03v.02l.01.03v.05zm-.51.51v-.06l.03-.01h.06l.02-.01h.02l.03-.01.02-.01.02-.01.01-.01.02-.01.02-.01.02-.01.02-.02.01-.01.02-.02.01-.01.02-.02.01-.01.01-.02.01-.02.01-.02.01-.02.01-.02.01-.02.01-.02v-.02l.01-.02v-.04l.01-.03v-.02h.06v.05l-.01.03v.02l-.01.03v.02l-.01.02-.01.03-.01.02-.01.02-.01.02-.02.02-.01.02-.02.02-.01.02-.02.02-.02.02-.02.01-.01.02-.02.01-.02.01-.03.02-.02.01-.02.01-.02.01-.03.01h-.02l-.03.01h-.02l-.03.01h-.05zm-.51-.51h.07v.07l.01.02v.02l.01.02v.02l.01.02.01.02.01.02.01.02.01.02.02.02.01.01.01.02.02.01.01.02.02.01.02.02.01.01.02.01.02.01.02.01.02.01.02.01.02.01h.02l.02.01h.07l.02.01v.06h-.05l-.03-.01h-.02l-.02-.01h-.03l-.02-.01-.03-.01-.02-.01-.02-.01-.02-.02-.02-.01-.02-.01-.02-.02-.02-.01-.02-.02-.01-.02-.02-.02-.01-.02-.02-.02-.01-.02-.01-.02-.02-.02-.01-.02v-.03l-.01-.02-.01-.02-.01-.03v-.07l-.01-.03zm.51-.51v.07H3.22l-.02.01-.02.01h-.02l-.02.01-.02.01-.02.01-.02.01-.02.01-.01.01-.02.02-.02.01-.01.02-.02.01-.01.02-.01.01-.02.02-.01.02-.01.02-.01.02-.01.02-.01.02v.02l-.01.02v.02l-.01.02v.07H2.8l.01-.03v-.07l.01-.03.01-.02.01-.02v-.03l.01-.02.02-.02.01-.02.01-.02.02-.02.01-.02.02-.02.01-.02.02-.02.02-.01.02-.02.02-.01.02-.01.02-.02.02-.01.02-.01.03-.01h.02l.03-.01.02-.01h.05l.03-.01h.02zm.97-2.47h-.06v-.05l-.01-.02v-.04l-.01-.02-.01-.03-.01-.02v-.02l-.01-.01-.02-.02-.01-.02-.01-.02-.01-.02-.02-.01-.01-.02-.02-.01-.01-.02-.02-.01-.02-.01L4 1.58l-.01-.01-.02-.01-.02-.01-.02-.01-.02-.01h-.02l-.03-.01h-.02l-.02-.01h-.05v-.06h.06l.02.01h.03l.02.01h.03l.02.01.02.01.02.01.03.01.02.01.02.02.02.01.02.02.02.01.01.02.02.02.02.01.01.02.02.02.01.02.01.03.01.02.01.02.01.02.01.03.01.02v.03l.01.02v.08zm-.51.5V2.4h.07l.02-.01h.03l.02-.01h.02l.02-.01.02-.01.02-.01.01-.01.02-.01.02-.02.02-.01.01-.01.02-.02.01-.01.02-.02.01-.02.01-.01.01-.02.02-.02.01-.02v-.02l.01-.02.01-.02.01-.02v-.05L4.22 2v-.04h.06v.07l-.01.03v.02l-.01.03-.01.02-.01.02-.01.03-.01.02-.01.02-.01.02-.02.02-.01.02-.02.02-.02.02-.01.01-.02.02-.02.01-.02.02-.02.01-.02.01-.03.01-.02.01-.02.01-.02.01-.03.01h-.02l-.03.01h-.08zm-.5-.5h.06v.06l.01.03v.02l.01.02.01.02v.02l.01.02.01.02.01.02.02.02.01.01.01.02.01.02.02.01.02.02.01.01.02.01.02.02.01.01.02.01.02.01.02.01.02.01h.02l.02.01h.02l.03.01h.06v.06H3.7l-.03-.01h-.02l-.03-.01-.02-.01-.02-.01-.03-.01-.02-.01-.02-.01-.02-.01-.02-.02-.02-.01-.02-.02-.01-.01-.02-.02-.02-.02-.01-.02-.02-.02-.01-.02-.01-.02-.01-.02-.01-.03-.01-.02-.01-.02-.01-.03v-.02l-.01-.03v-.07zm.5-.51v.06h-.04l-.02.01h-.03l-.02.01h-.02l-.02.01-.02.01-.02.01-.02.01-.02.01-.01.01-.02.01-.02.01-.01.02-.02.01-.02.02-.01.01-.01.02-.01.02-.02.02-.01.02-.01.01-.01.02v.02l-.01.03-.01.02v.02l-.01.02v.07h-.06v-.08l.01-.02v-.03l.01-.02.01-.03.01-.02.01-.02.01-.02.01-.03.01-.02.02-.02.01-.02.02-.01.02-.02.01-.02.02-.01.02-.02.02-.01.02-.02.02-.01.02-.01.03-.01.02-.01.02-.01h.03l.02-.01h.03l.02-.01h.05z" class="fil0"/></g><g><path d="M18.02 3.09V8l-.33 3V3.16c.11-.02.22-.05.33-.07zm-2.38 2.06l.34 1.11V3.28c-.11-.01-.22-.02-.34-.03v1.9zm1.08 3.6l.34 1.11V3.25c-.11.01-.22.02-.34.03v5.47z" class="fil4"/><path id="1" d="M17.99 8V3.09h.06V8h-.06zm.06 0zm-.39 3l.33-3.01.06.01-.33 3.01-.06-.01zm.06.01l-.06.56V11l.06.01zm0-7.85V11h-.06V3.16l.02-.03.04.03zm-.06 0v-.03h.02l-.02.03zm.39-.07h-.06l.04.03h-.02l-.01.01h-.03l-.01.01h-.05l-.01.01h-.03l-.01.01h-.04l-.01.01h-.03l-.01.01h-.04l-.01.01h-.03l-.01-.06h.01l.01-.01h.04l.02-.01h.04l.01-.01h.03l.01-.01h.04l.01-.01h.03l.01-.01h.03l.01-.01h.04l.03.03zm-.03-.03l.03-.01v.04l-.03-.03zm-2.07 3.21l-.34-1.11.06-.02.34 1.11v.01l-.06.01zm.06-.01v.22l-.06-.21.06-.01zm0-2.98v2.98h-.06V3.28l.03-.04.03.04zm-.03-.04l.03.01v.03l-.03-.04zm-.31.01h-.06l.04-.03h.03l.01.01H15.81l.01.01h.16v.07h-.05l-.01-.01H15.78l-.01-.01H15.65l-.01-.01.03-.03zm-.06 0v-.03h.04l-.04.03zm0 1.9v-1.9h.06v1.9l-.06.01v-.01zm0 .01v-.01.01zm1.42 4.71l-.34-1.11.06-.02.34 1.11v.01l-.06.01zm.06-.01v.21l-.06-.2.06-.01zm0-6.61v6.61h-.06V3.25l.03-.03.03.03zm-.03-.03h.03v.03l-.03-.03zm-.3.06h-.07l.03-.04h.16l.01-.01H16.99l.01-.01h.06v.06h-.02l-.01.01H16.93l-.01.01H16.78l-.01.01h-.04l.03-.03zm-.07 0v-.03l.03-.01-.03.04zm0 5.47V3.28h.07v5.47l-.07.01v-.01zm0 .01v-.01.01z" class="fil0"/></g><g><path d="M8.63 3.02c.12 0 .22.09.22.21s-.1.22-.22.22-.22-.1-.22-.22.1-.21.22-.21zm-.21 6.75l.13-.41c-.02-.01-.05-.01-.07-.01-.12 0-.21.1-.21.22 0 .09.06.18.15.2zm-.5-1.64c.12 0 .21.1.21.21 0 .12-.09.22-.21.22s-.22-.1-.22-.22c0-.11.1-.21.22-.21zm.43-1.36c.12 0 .22.1.22.22s-.1.21-.22.21-.22-.09-.22-.21.1-.22.22-.22zm.81-.96c.12 0 .21.09.21.21s-.09.22-.21.22-.22-.1-.22-.22.1-.21.22-.21zm-1.34-.44c.12 0 .21.1.21.22s-.09.22-.21.22-.22-.1-.22-.22.1-.22.22-.22zm.9-.92c.12 0 .22.1.22.22 0 .11-.1.21-.22.21s-.21-.1-.21-.21c0-.12.09-.22.21-.22zm-1.08-.87c.12 0 .22.1.22.22s-.1.22-.22.22-.22-.1-.22-.22.1-.22.22-.22zm2.09.06c.12 0 .21.1.21.22s-.09.21-.21.21-.22-.09-.22-.21.1-.22.22-.22z" class="fil3"/><path id="1" d="M8.88 3.23h-.06v-.02l-.01-.01v-.03l-.01-.01v-.01l-.01-.01-.01-.01v-.01l-.01-.01-.01-.01-.01-.01-.01-.01h-.01v-.01h-.02l-.01-.01h-.01l-.01-.01h-.05v-.07h.01l.02.01h.03L8.7 3h.03l.01.01h.01l.01.01.01.01h.01l.01.01.01.01.01.01v.01h.01l.01.01.01.01v.01l.01.01v.01l.01.02v.01l.01.01v.02l.01.01v.04zm-.25.25v-.06h.03l.01-.01h.02l.01-.01h.02l.01-.01.01-.01h.01l.01-.01v-.01h.01v-.01l.01-.01.01-.01v-.01l.01-.01V3.3h.01v-.04l.01-.01v-.02h.06v.04l-.01.01v.03l-.01.01v.01l-.01.01v.01l-.01.01v.01l-.01.01-.01.01-.01.01v.01l-.01.01h-.01l-.01.01-.01.01h-.01l-.01.01-.01.01h-.02l-.02.01h-.01l-.01.01h-.05zm-.25-.25h.07V3.29l.01.01v.01l.01.01v.01l.01.01.01.01v.01h.01l.01.01v.01h.01l.01.01h.01v.01h.02l.01.01h.02l.01.01h.03v.06h-.05l-.01-.01h-.01l-.01-.01h-.03l-.01-.01-.01-.01h-.01l-.01-.01-.01-.01h-.01v-.01l-.01-.01-.01-.01-.01-.01v-.01l-.01-.01-.01-.01v-.01l-.01-.01v-.01l-.01-.01v-.04l-.01-.01v-.03zm.25-.25v.07h-.05v.01h-.02l-.01.01h-.01l-.01.01h-.01l-.01.01v.01H8.5l-.01.01-.01.01v.01l-.01.01-.01.01v.02l-.01.01v.05h-.07v-.02l.01-.02v-.03l.01-.01v-.01l.01-.02v-.01l.01-.01.01-.01v-.01l.01-.01h.01l.01-.01v-.01l.01-.01.01-.01h.01l.01-.01.01-.01h.01L8.53 3h.03l.01-.01h.04l.01-.01h.01zm-.05 6.39l-.13.41-.06-.01.13-.42.04-.02.02.04zm-.02-.04l.03.01-.01.03-.02-.04zm-.08.05v-.06h.05v.01h.03l-.02.06h-.03v-.01h-.03zm-.18.19h-.07v-.01l.01-.02v-.05l.01-.01v-.01l.01-.01v-.01l.01-.01.01-.01v-.01l.01-.01.01-.01.01-.01.01-.01.01-.01.01-.01h.01l.01-.01.01-.01h.03l.01-.01h.02l.01-.01h.04v.06h-.03l-.01.01h-.02l-.01.01h-.02v.01h-.01l-.01.01-.01.01-.01.01h-.01v.01l-.01.01-.01.01v.02l-.01.01-.01.01V9.57zm.09.2l.06.01-.04.02h-.02l-.01-.01h-.02l-.01-.01-.01-.01-.01-.01h-.01v-.01h-.01l-.01-.01v-.01l-.01-.01h-.01v-.01l-.01-.01v-.01l-.01-.01-.01-.01v-.02l-.01-.01V9.6l-.01-.01v-.02h.07v.05l.01.01v.02h.01v.01l.01.01v.01h.01v.01l.01.01.01.01h.01v.01h.01l.01.01h.01l.01.01h.02l-.04.03zm.06.01l-.01.03-.03-.01.04-.02zm-.29-1.44H8.1V8.3l-.01-.01v-.02l-.01-.01v-.01l-.01-.01v-.01h-.01l-.01-.01v-.01h-.01l-.01-.01-.01-.01h-.01L8 8.18l-.01-.01h-.03l-.01-.01h-.03V8.1H7.98l.01.01H8l.01.01h.01l.02.01h.01l.01.01.01.01.01.01.01.01.01.01.01.01.01.01v.01l.01.01v.01l.01.01.01.01v.02l.01.01V8.34zm-.24.25v-.06h.03l.01-.01h.03L8 8.51l.01-.01h.01l.01-.01.01-.01h.01v-.01l.01-.01h.01v-.01l.01-.01v-.01l.01-.01V8.4l.01-.01v-.05h.06v.07l-.01.01v.02l-.01.01-.01.01v.01l-.01.01v.01l-.01.01-.01.01-.01.01-.01.01-.01.01-.01.01-.01.01h-.01l-.02.01h-.01L8 8.58h-.02l-.01.01h-.05zm-.25-.25h.06v.03l.01.01v.03l.01.01v.01l.01.01v.01l.01.01.01.01.01.01.01.01h.01v.01h.01l.01.01h.01v.01h.03l.01.01h.04v.06h-.05l-.01-.01h-.03l-.01-.01h-.01l-.01-.01h-.01l-.01-.01-.01-.01h-.01l-.01-.01-.01-.01-.01-.01V8.5l-.01-.01-.01-.01v-.01l-.01-.01-.01-.01v-.01l-.01-.01v-.02l-.01-.02v-.05zm.25-.24v.06h-.04l-.01.01h-.03v.01h-.01l-.01.01h-.01v.01H7.8l-.01.01-.01.01-.01.01-.01.01v.01l-.01.01v.01l-.01.01v.03l-.01.01v.02h-.06v-.05l.01-.01v-.02l.01-.01v-.01l.01-.01.01-.01v-.01l.01-.01.01-.01v-.01l.01-.01.01-.01.01-.01h.01l.01-.01.01-.01h.01l.01-.01h.01l.01-.01h.01l.02-.01h.06zm.68-1.11h-.07V6.93l-.01-.01v-.01l-.01-.01v-.01l-.01-.01-.01-.01v-.01h-.01l-.01-.01v-.01h-.01l-.01-.01-.01-.01h-.02l-.01-.01h-.02l-.01-.01h-.03v-.06h.05l.01.01h.03l.01.01h.01l.01.01.01.01h.01l.01.01.01.01h.01v.01l.01.01.01.01.01.01.01.01v.01l.01.01v.01l.01.01v.01l.01.01v.04l.01.01v.03zm-.25.24v-.06h.05v-.01h.02l.01-.01h.02v-.01h.01l.01-.01v-.01h.01l.01-.01V7.1h.01v-.01l.01-.01.01-.01v-.02l.01-.01v-.05h.07v.02l-.01.01v.04l-.01.01v.01l-.01.01v.02l-.01.01v.01l-.01.01h-.01l-.01.01-.01.01v.01l-.01.01-.01.01h-.01l-.01.01h-.01l-.01.01-.01.01h-.03l-.01.01H8.35zm-.25-.24h.06V7l.01.01v.03l.01.01v.02l.01.01.01.01v.01h.01v.01l.01.01h.01v.01l.01.01h.01v.01h.02l.01.01h.01l.01.01h.05v.06H8.29l-.01-.01h-.03l-.01-.01-.01-.01h-.01l-.01-.01H8.2l-.01-.01-.01-.01-.01-.01v-.01l-.01-.01h-.01l-.01-.01v-.01l-.01-.01v-.02l-.01-.01v-.01l-.01-.01v-.02l-.01-.02v-.03zm.25-.25v.06h-.03l-.01.01h-.02l-.01.01h-.02l-.01.01-.01.01h-.01v.01l-.01.01h-.01v.01l-.01.01-.01.01v.01l-.01.01v.01l-.01.01v.04l-.01.01v.01H8.1v-.04l.01-.01v-.03l.01-.01v-.01l.01-.01v-.01l.01-.01v-.01l.01-.01.01-.01.01-.01v-.01l.01-.01h.01l.01-.01.01-.01h.01l.01-.01.01-.01h.01l.01-.01h.03l.01-.01h.05zm1.05-.72h-.06v-.04l-.01-.01v-.02l-.01-.01v-.01h-.01v-.01l-.01-.01-.01-.01v-.01h-.01l-.01-.01v-.01h-.01l-.01-.01h-.01l-.01-.01h-.02l-.01-.01h-.04v-.07l.01.01h.05l.01.01h.02l.01.01h.01l.02.01.01.01.01.01.01.01.01.01.01.01h.01l.01.01v.01l.01.01v.01l.01.02v.01l.01.01v.01l.01.01V6.02zm-.24.25v-.06h.02l.01-.01h.03l.01-.01h.01l.01-.01h.01l.01-.01.01-.01.01-.01.01-.01v-.01h.01v-.01l.01-.01V6.1l.01-.01v-.01l.01-.01v-.05h.06V6.08l-.01.02v.01l-.01.01v.01l-.01.01v.01l-.01.01v.01l-.01.01-.01.01-.01.01-.01.01h-.01l-.01.01v.01h-.01l-.02.01-.01.01h-.01l-.01.01h-.02l-.01.01h-.05zm-.25-.25h.06v.03l.01.01v.03h.01v.02l.01.01v.01h.01v.01l.01.01h.01v.01l.01.01h.01v.01h.01l.01.01h.01l.01.01h.03l.01.01h.03v.06h-.05l-.02-.01h-.02l-.01-.01h-.01l-.01-.01-.01-.01h-.01l-.01-.01L9 6.21h-.01l-.01-.01-.01-.01v-.01l-.01-.01-.01-.01-.01-.01v-.01l-.01-.01v-.01l-.01-.01v-.03l-.01-.01v-.05zm.25-.25v.07h-.05l-.01.01h-.02v.01h-.02l-.01.01-.01.01-.01.01-.01.01-.01.01-.01.01v.01h-.01v.02l-.01.01v.03h-.01v.03h-.06v-.05l.01-.01v-.02l.01-.01v-.01l.01-.02v-.01l.01-.01.01-.01.01-.01.01-.01.01-.01.01-.01.01-.01h.01l.01-.01.01-.01h.01l.01-.01h.02l.01-.01h.05l.02-.01zm-1.09-.18H8V5.53h-.01v-.02l-.01-.01v-.01h-.01v-.01l-.01-.01-.01-.01-.01-.01-.01-.01h-.01l-.01-.01-.01-.01h-.02l-.01-.01h-.03l-.01-.01h-.01v-.06h.04l.01.01h.02l.01.01h.02l.01.01h.01l.01.01h.01l.01.01.01.01v.01h.01l.01.01.01.01.01.01v.01l.01.01.01.01v.01l.01.01v.01l.01.02v.03l.01.01v.03zm-.25.25v-.07h.05l.01-.01h.02l.01-.01.01-.01h.01l.01-.01.01-.01.01-.01.01-.01v-.01h.01v-.01l.01-.01v-.02L8 5.64v-.05h.07v.03l-.01.01v.03l-.01.02v.01l-.01.01v.01l-.01.01-.01.01v.01l-.01.01-.01.01-.01.01h-.01v.01l-.01.01-.01.01h-.01l-.01.01h-.01l-.01.01H7.9l-.01.01h-.03l-.02.01h-.02zm-.25-.25h.06v.02l.01.01v.03l.01.01v.01l.01.01v.01l.01.01.01.01.01.01v.01h.01l.01.01.01.01h.01l.01.01h.01l.01.01H7.82v.07h-.03l-.01-.01h-.04l-.01-.01h-.01l-.01-.01H7.7l-.01-.01h-.01l-.01-.01-.01-.01-.01-.01h-.01l-.01-.01v-.01l-.01-.01-.01-.01v-.01l-.01-.01V5.7l-.01-.01v-.01l-.01-.02v-.02l-.01-.01v-.04zm.25-.25v.06h-.01l-.01.01h-.04l-.01.01h-.01l-.01.01h-.01l-.01.01-.01.01h-.01v.01l-.01.01-.01.01-.01.01v.01l-.01.01v.01l-.01.01v.03l-.01.01v.02h-.06v-.04l.01-.01v-.02l.01-.02v-.01l.01-.01v-.01l.01-.01v-.01l.01-.01.01-.01v-.01l.01-.01h.01l.01-.01.01-.01.01-.01h.01l.01-.01h.01l.01-.01h.01l.01-.01h.03l.01-.01h.04zm1.15-.67h-.06v-.04l-.01-.01V4.6l-.01-.01v-.01l-.01-.01v-.01l-.01-.01-.01-.01-.01-.01-.01-.01h-.01v-.01h-.01l-.01-.01H8.8v-.01h-.03l-.01-.01h-.04v-.06h.07l.01.01h.01l.01.01h.01l.01.01h.01l.01.01.01.01h.01l.01.01.01.01.01.01.01.01v.01l.01.01.01.01v.01l.01.01v.01l.01.01v.02l.01.02v.05zm-.25.24v-.06h.04l.01-.01h.03v-.01h.01l.01-.01h.01v-.01h.01l.01-.01.01-.01.01-.01.01-.01v-.01l.01-.01v-.01l.01-.01v-.02l.01-.01v-.03h.06v.04l-.01.02v.02l-.01.01v.01l-.01.01v.01l-.01.01-.01.01v.01l-.01.01-.01.01-.01.01-.01.01h-.01l-.01.01-.01.01h-.01l-.01.01h-.01l-.01.01H8.8l-.01.01h-.07zm-.24-.24h.06v.04l.01.01v.02l.01.01.01.01v.01l.01.01.01.01v.01h.01l.01.01.01.01h.01l.01.01.01.01h.03l.01.01h.03v.06H8.66l-.01-.01h-.01l-.01-.01h-.01l-.01-.01h-.02l-.01-.01v-.01h-.01l-.01-.01-.01-.01-.01-.01-.01-.01-.01-.01V4.8l-.01-.01v-.01l-.01-.01v-.01l-.01-.01v-.01l-.01-.01V4.67zm.24-.25v.06h-.03l-.01.01h-.03l-.01.01-.01.01h-.01l-.01.01-.01.01h-.01v.01l-.01.01-.01.01v.01l-.01.01-.01.01v.02l-.01.01v.05h-.06V4.6l.01-.01v-.01l.01-.01v-.01l.01-.01v-.01l.01-.01v-.01l.01-.01.01-.01.01-.01.01-.01.01-.01h.01v-.01l.01-.01h.02l.01-.01h.01l.01-.01h.01l.01-.01H8.72zm-.83-.62h-.06v-.02l-.01-.01v-.03l-.01-.01v-.01l-.01-.01V3.7h-.01v-.01l-.01-.01v-.01h-.01v-.01h-.01l-.01-.01h-.01v-.01h-.01l-.01-.01H7.7v-.01h-.03l-.01-.01h-.02v-.06h.04l.01.01h.03l.01.01h.01l.01.01h.01l.01.01h.01l.01.01.01.01.01.01h.01v.01l.01.01.01.01.01.01v.01l.01.01v.01l.01.01v.01l.01.02v.02l.01.01v.04zm-.25.25v-.07H7.7v-.01h.02l.01-.01h.01v-.01h.01l.01-.01h.01v-.01l.01-.01.01-.01V3.9l.01-.01.01-.01v-.01l.01-.01v-.03l.01-.01V3.8h.06v.04l-.01.01v.02l-.01.01v.02l-.01.01v.01l-.01.01v.01l-.01.01-.01.01-.01.01-.01.01-.01.01-.01.01h-.01l-.01.01-.01.01h-.01l-.01.01h-.01l-.01.01h-.04l-.01.01h-.03zm-.25-.25h.07v.05l.01.01v.02l.01.01.01.01v.01l.01.01.01.01.01.01.01.01h.01l.01.01.01.01h.02l.01.01h.05v.07h-.02l-.02-.01h-.03l-.01-.01h-.02l-.01-.01h-.01l-.01-.01L7.5 4h-.01l-.01-.01-.01-.01v-.01h-.01l-.01-.01-.01-.01v-.01l-.01-.01-.01-.01v-.01l-.01-.01v-.02l-.01-.01v-.03l-.01-.02V3.8zm.25-.25v.06h-.02l-.01.01h-.02l-.01.01h-.02l-.01.01-.01.01h-.01l-.01.01-.01.01H7.5v.01l-.01.01v.01h-.01v.01l-.01.01v.02h-.01V3.8h-.07v-.03l.01-.01v-.03l.01-.02V3.7l.01-.01v-.01l.01-.01.01-.01v-.01l.01-.01.01-.01.01-.01.01-.01.01-.01.01-.01h.01l.01-.01h.01l.01-.01h.02l.01-.01h.02l.01-.01h.04zm2.34.31h-.07v-.05L9.9 3.8v-.01l-.01-.01v-.02l-.01-.01-.01-.01-.01-.01-.01-.01h-.01v-.01l-.01-.01h-.01l-.01-.01H9.8l-.01-.01h-.03l-.01-.01h-.02v-.06h.04l.01.01h.02l.01.01h.02l.02.01.01.01h.01l.01.01.01.01.01.01.01.01.01.01.01.01v.01l.01.01.01.01v.01l.01.01v.02l.01.02v.05l.01.01zm-.25.25v-.07h.04l.01-.01h.03l.01-.01.01-.01h.01V4h.01l.01-.01v-.01h.01l.01-.01v-.01l.01-.01v-.01l.01-.01v-.02l.01-.01v-.04h.07l-.01.01v.05l-.01.01v.02l-.01.02v.01l-.01.01-.01.01v.01l-.01.01h-.01l-.01.01-.01.01v.01l-.01.01h-.01l-.01.01-.01.01h-.02l-.01.01H9.8l-.01.01h-.04l-.01.01h-.01zm-.25-.25h.06v.03l.01.01v.02l.01.01v.02h.01v.01l.01.01v.01h.01l.01.01V4h.01l.01.01.01.01h.01l.01.01h.02l.01.01h.05v.07h-.02L9.7 4.1h-.03l-.02-.01h-.02l-.01-.01h-.01l-.01-.01-.01-.01h-.01l-.01-.01-.01-.01-.01-.01-.01-.01-.01-.01L9.52 4v-.01l-.01-.01-.01-.01v-.02l-.01-.01v-.02l-.01-.01v-.05zm.25-.25v.06h-.02l-.01.01h-.04v.01h-.01l-.01.01h-.02v.01l-.01.01H9.6v.01h-.01l-.01.01v.01h-.01v.01l-.01.01v.02h-.01v.03l-.01.01v.03h-.06v-.05l.01-.01v-.03l.01-.01v-.01l.01-.01.01-.01v-.01l.01-.01.01-.01v-.01l.01-.01.01-.01h.01l.01-.01.01-.01h.01l.01-.01.01-.01h.02l.01-.01h.03l.01-.01h.04z" class="fil0"/></g><g><path fill="#fefefe" d="M19.42 3.56l3.05-.52v.16l-2.96.51-.09-.15zm.88 1.33l.09.14 2.07-.36v-.16l-2.16.38zm.94 1.42l.1.14 1.11-.19.01-.16-1.22.21z"/><path id="1" d="M22.47 3.07l-3.05.53-.01-.07 3.05-.52.04.03-.03.03zm-.01-.06L22.5 3v.04l-.04-.03zm-.02.19v-.16h.06v.16l-.03.03-.03-.03zm.06 0v.02l-.03.01.03-.03zm-2.99.48l2.95-.51.01.06-2.95.51-.03-.01.02-.05zm.01.06h-.02l-.01-.01.03.01zm-.08-.19l.1.14-.05.04-.1-.15.02-.05.03.02zm-.05.03l-.02-.04.04-.01-.02.05zm.98 1.47l-.1-.14.05-.04.1.14-.02.05-.03-.01zm.03.01l-.02.01-.01-.02.03.01zm2.07-.36l-2.07.36-.01-.06 2.07-.36.03.03-.02.03zm.02-.03v.03h-.02l.02-.03zm0-.16v.16h-.06v-.16l.03-.03.03.03zm-.03-.03h.03v.03l-.03-.03zm-2.17.38l2.17-.38.01.06-2.17.38-.03-.01.02-.05zm-.02.05l-.03-.04.05-.01-.02.05zm1.04 1.56l-.1-.15.06-.03.09.14-.02.05-.03-.01zm.03.01h-.02l-.01-.01.03.01zm1.12-.19l-1.12.19-.01-.06 1.12-.19.04.03-.03.03zm.03-.03v.02l-.03.01.03-.03zm0-.16v.16h-.07V6.1l.03-.03.04.03zm-.04-.03l.04-.01v.04l-.04-.03zm-1.22.21l1.22-.21.01.06-1.21.21-.04-.02.02-.04zm-.02.04l-.02-.04h.04l-.02.04z" class="fil0"/></g></g></g></svg>