<svg xmlns="http://www.w3.org/2000/svg" width="137" height="57" fill-rule="evenodd" clip-rule="evenodd" image-rendering="optimizeQuality" shape-rendering="geometricPrecision" text-rendering="geometricPrecision" viewBox="0 0 366.99 152.55"><defs><radialGradient id="id0" cx="137.31" cy="105.69" r="46.41" fx="137.31" fy="105.69" gradientTransform="matrix(1.32752 .04407 -.04408 1.32756 -40 -41)" gradientUnits="userSpaceOnUse"><stop offset="0" stop-color="#fefefe"/><stop offset=".74902" stop-color="#ebecec"/><stop offset="1" stop-color="#d9dada"/></radialGradient><style>.fil0,.fil1,.fil2{fill:#fefefe;fill-rule:nonzero}.fil0,.fil1{fill:#2b2a29}.fil0{fill:#f08bb2}</style></defs><g id="Слой_x0020_1"><g id="_610987648"><path d="M1.48 96.2C4.06 80.44 21.4 69.9 35.02 68.68c.02-5.81.29-11.13.3-12.79 0-2.69 10.18-1.15 12.39.64 1.44 1.18.54 5.24.3 11.86.56.17 4.88.73 7.53 1.9 14.09 6.25 31.54 19.03 28.84 47.54-2.15 22.17-31.02 39.99-54.18 32.54C6.96 142.91-2.94 122.6 1.48 96.2z" class="fil0"/><path id="1" d="M34.56 68.68h.91l-.41.46-1.27.13-1.29.19-1.3.25-1.32.3-1.32.35-1.34.4-1.33.44-1.33.5-1.32.55-1.32.59-1.31.64-1.29.68-1.27.73-1.25.78-1.22.82-1.2.86-1.16.9-1.13.94-1.09.99-1.04 1.02-1 1.07-.95 1.1-.9 1.13-.84 1.18-.79 1.2-.71 1.25-.66 1.27-.59 1.31-.51 1.35-.44 1.37-.36 1.4-.29 1.44-.89-.15.29-1.48.37-1.46.46-1.43.54-1.38.6-1.36.68-1.32.74-1.28.81-1.25.87-1.2.92-1.17.98-1.13 1.02-1.09 1.07-1.05 1.12-1.01 1.15-.97 1.19-.92 1.22-.88 1.25-.83 1.28-.79 1.3-.75 1.31-.7 1.33-.65 1.35-.61 1.35-.55 1.36-.51 1.36-.46 1.36-.4 1.36-.36 1.34-.3 1.34-.26 1.32-.19 1.31-.15-.42.45zm.91 0v.42l-.41.04.41-.46zm-.61-12.79h.91v.36l-.01.21v.23l-.01.24-.01.27-.01.28-.01.3-.01.32-.01.33-.01.36-.01.36-.02.37-.01.4-.01.4-.02.42-.01.43-.01.44-.01.46-.02.46-.01.47-.02.48-.01.49-.01.5-.01.51-.01.51-.01.52v.53l-.01.53-.01.53v1.08h-.91l.01-.54v-.54l.01-.54v-.54l.01-.52.01-.52.01-.52.01-.51.01-.49.01-.5.01-.48.02-.48.01-.46.01-.45.02-.44.01-.44.02-.42.01-.4.01-.4.01-.37.02-.37.01-.35.01-.33.01-.32.01-.3.01-.28.01-.26v-.25l.01-.22v-.55zm13.13.29l-.57.7-.2-.14-.24-.14-.29-.15-.33-.15-.36-.15-.4-.14-.43-.14-.45-.13-.48-.13-.49-.12-.5-.11-.52-.1-.52-.09-.52-.08-.53-.07-.52-.06-.51-.04-.51-.03-.48-.02h-.48l-.45.02-.42.03-.39.05-.36.06-.32.08-.28.09-.23.1-.18.12-.12.1-.08.11-.05.11-.01.13h-.91l.05-.36.13-.32.2-.27.25-.23.29-.18.33-.15.35-.13.39-.09.41-.07.44-.05.47-.04.48-.01h.5l.52.01.52.04.54.04.54.06.54.07.55.08.54.1.53.1.52.11.52.13.49.13.48.14.45.15.43.15.4.16.37.17.33.17.3.19.27.19zm0 0l.29.23-.29-.23zm.16 11.78l-.27.87-.32-.45.02-.62.03-.6.03-.58.03-.57.04-.56.03-.54.04-.52.04-.51.03-.49.03-.47.04-.47.03-.43.02-.43.03-.41.02-.39.01-.38.02-.36v-.97l-.02-.29-.02-.28-.03-.25-.03-.23-.05-.21-.04-.19-.06-.17-.07-.15-.07-.14-.08-.11-.07-.1-.09-.08.57-.7.17.16.15.18.13.19.11.2.09.23.08.23.07.25.05.25.04.28.03.28.02.3.02.31.01.33v.34l-.01.36-.01.37-.02.38-.02.41-.02.41-.03.43-.03.45-.03.46-.04.47-.03.5-.04.5-.03.52-.04.54-.03.55-.03.56-.03.58-.03.6-.02.61-.32-.45zm-.27.87l-.33-.11.01-.34.32.45zm7.84 1.04l-.36.83-.24-.1-.26-.1-.26-.1-.27-.1-.28-.09-.27-.09-.29-.08-.28-.08-.3-.08-.29-.08-.29-.07-.29-.07-.29-.07-.29-.06-.28-.06-.28-.06-.27-.06-.26-.05-.26-.05-.25-.05-.24-.04-.23-.04-.21-.04-.2-.04-.19-.03-.18-.03-.16-.03-.14-.03-.13-.02-.11-.03-.1-.02-.09-.02.27-.87.04.01.07.02.09.01.13.03.14.02.16.04.16.03.19.03.21.04.22.04.23.04.23.04.26.05.26.05.27.06.28.05.28.06.29.06.29.07.3.07.3.07.3.07.3.09.3.07.3.09.29.09.3.09.29.1.28.1.28.1.27.11.26.11zm29.11 48.01l-.9-.09.19-2.61.08-2.52-.02-2.42-.14-2.35-.23-2.25-.33-2.17-.42-2.09-.5-2-.59-1.93-.67-1.85-.74-1.78-.81-1.71-.87-1.63-.94-1.56-.99-1.5-1.05-1.43-1.1-1.37-1.14-1.3-1.18-1.24-1.22-1.19-1.25-1.12-1.28-1.07-1.3-1.02-1.32-.96-1.34-.92-1.34-.86-1.35-.81-1.36-.78-1.36-.72-1.34-.68-1.34-.64-1.32-.61.36-.83 1.34.61 1.36.65 1.36.69 1.38.74 1.37.78 1.38.83 1.36.88 1.37.93 1.34.98 1.32 1.03 1.3 1.09 1.28 1.15 1.24 1.21 1.21 1.27 1.17 1.33 1.12 1.4 1.07 1.46 1.02 1.53.96 1.6.89 1.68.83 1.74.76 1.82.68 1.89.6 1.98.52 2.05.42 2.12.34 2.22.24 2.29.13 2.38.03 2.47-.08 2.56-.2 2.65zm0 0zM30.06 150.8l.28-.86 2.15.62 2.19.47 2.21.34 2.23.2 2.23.07 2.24-.06 2.24-.18 2.23-.3 2.22-.42 2.19-.53 2.18-.64 2.14-.74 2.11-.84 2.06-.95 2.01-1.03 1.96-1.13 1.9-1.21 1.83-1.29 1.76-1.38 1.67-1.44 1.6-1.52 1.5-1.58 1.4-1.64 1.31-1.71 1.19-1.75 1.08-1.82.96-1.85.83-1.9.7-1.93.57-1.98.42-2 .28-2.03.9.09-.29 2.09-.43 2.08-.59 2.02-.72 2-.86 1.95-.98 1.91-1.11 1.85-1.22 1.8-1.33 1.75-1.44 1.68-1.54 1.61-1.62 1.55-1.71 1.48-1.79 1.39-1.87 1.32-1.93 1.23-1.99 1.15-2.05 1.06-2.11.96-2.14.86-2.18.75-2.22.66-2.24.54-2.27.42-2.28.31-2.28.19-2.29.06-2.29-.08-2.28-.2-2.26-.34-2.25-.49-2.21-.64zM1.03 96.12l.89.15-.37 2.44-.28 2.41-.2 2.37-.13 2.32-.04 2.29.05 2.25.12 2.19.21 2.16.29 2.11.37 2.06.46 2.01.53 1.96.61 1.92.7 1.86.77 1.81.86 1.75.93 1.7 1.02 1.64 1.09 1.58 1.17 1.53 1.26 1.46 1.33 1.41 1.41 1.34 1.49 1.28 1.57 1.22 1.65 1.15 1.73 1.08 1.8 1.02 1.89.94 1.96.88 2.05.8 2.12.73-.28.86-2.16-.74-2.08-.82-2-.89-1.92-.96-1.84-1.04-1.77-1.11-1.69-1.17-1.6-1.25-1.52-1.31-1.45-1.37-1.36-1.44-1.29-1.5-1.2-1.57-1.12-1.62-1.04-1.68-.95-1.73-.88-1.79-.79-1.86-.71-1.9-.63-1.95-.54-2-.46-2.05-.38-2.1-.29-2.14-.22-2.2-.13-2.23L0 108.1l.04-2.32.12-2.36.21-2.39.29-2.44.37-2.47zm.89.15l-.02.15.02-.15z" class="fil1"/><path d="M76.89 103.93c1.27-3.44-4.29-18.12-13.18-23.81-5.87-3.74-12.85 3.87-10.31 5.82 2.6 1.95 14.73 18.82 14.72 24.66-.01 5.83 6.92-1.48 8.77-6.67z" class="fil2"/><path d="M35.74 4.35c-4.66 6.48.72 29.89 4.33 42.63 2.73-9.91 8.37-33.35 3.25-41.58-.94-1.47-2.09-2.29-3.7-2.52l-.82-.06c-1.34 0-2.28.47-3.06 1.53zm4.39 48.95c-.62 0-1.17-.4-1.33-.98-1.32-4.05-12.43-39.78-5.26-49.63 1.49-2.07 3.72-3 6.53-2.6 2.38.37 4.25 1.65 5.63 3.82 7.18 11.56-3.81 46.91-4.26 48.41-.16.58-.72.98-1.31.98z" class="fil1"/><path fill="url(#id0)" fill-rule="nonzero" d="M98.27 98.97c2.46-14.98 18.94-24.99 31.88-26.14.01-5.53.28-10.59.28-12.16.01-2.56 9.67-1.1 11.78.61 1.36 1.12.51 4.98.29 11.27.53.16 4.64.69 7.15 1.8 13.39 5.94 29.98 18.09 27.41 45.18-2.05 21.07-29.49 38-51.5 30.93-22.08-7.09-31.49-26.4-27.29-51.49z"/><path id="1" d="M129.69 72.83h.91l-.41.45-1.21.13-1.22.18-1.24.24-1.25.28-1.26.33-1.26.38-1.27.42-1.26.47-1.26.52-1.25.57-1.24.6-1.23.65-1.2.7-1.19.73-1.16.78-1.14.82-1.1.85-1.08.9-1.03.93-.99.98-.95 1.01-.9 1.04-.86 1.08-.8 1.12-.74 1.14-.69 1.18-.62 1.21-.56 1.25-.48 1.27-.42 1.31-.34 1.33-.27 1.36-.89-.14.27-1.42.36-1.38.43-1.36.51-1.32.58-1.29.64-1.25.71-1.22.77-1.19.82-1.14.88-1.12.93-1.07.97-1.03 1.02-1 1.06-.96 1.1-.92 1.13-.88 1.16-.84 1.19-.79 1.21-.75 1.24-.71 1.25-.67 1.26-.62 1.28-.57 1.29-.53 1.29-.48 1.3-.44 1.28-.38 1.29-.34 1.29-.29 1.27-.24 1.26-.19 1.23-.14-.41.46zm.91 0v.41l-.41.04.41-.45zm-.62-12.16h.9v.54l-.01.22v.23l-.01.25-.01.27-.01.29-.01.3-.01.32-.01.33-.01.34-.02.36-.01.38-.01.38-.01.4-.02.4-.01.42-.01.44-.01.44-.02.45-.01.45-.01.47-.01.48-.01.48-.01.48-.01.5v.5l-.01.5-.01.51v1.03h-.91l.01-.52v-.52l.01-.51v-.5l.01-.5.01-.5v-.49l.02-.48.01-.48.01-.47.01-.45.01-.46.01-.44.02-.43.01-.42.01-.41.01-.4.02-.39.01-.37.01-.36.02-.34.01-.34.01-.31.01-.3.01-.29.01-.26v-.25l.01-.24v-.21l.01-.2v-.32zm12.51.25l-.57.71-.18-.14-.23-.14-.28-.14-.31-.14-.35-.14-.38-.13-.4-.13-.43-.13-.45-.12-.47-.11-.48-.11-.48-.09-.5-.09-.5-.07-.49-.07-.5-.06-.49-.04-.48-.02-.46-.02h-.45l-.42.01-.4.03-.38.05-.34.05-.3.08-.26.09-.22.1-.17.1-.11.1-.07.1-.04.1-.02.12h-.9l.04-.34.13-.32.19-.26.24-.23.29-.17.31-.14.34-.12.36-.09.4-.07.42-.05.44-.03.46-.01h.47l.5.01.5.03.51.04.51.06.52.07.52.08.51.08.51.11.5.1.48.12.47.13.45.13.43.14.41.15.38.15.35.16.33.16.29.18.25.18zm0 0l.22.18-.22-.18zm.14 11.2l-.26.86-.32-.45.02-.58.02-.57.03-.56.03-.54.04-.53.03-.51.03-.5.03-.48.04-.46.03-.46.03-.44.03-.41.03-.41.02-.39.02-.38.02-.35.01-.34V63.69l-.02-.27-.02-.25-.02-.24-.04-.23-.03-.19-.05-.19-.06-.16-.06-.14-.06-.12-.08-.11-.07-.09-.08-.07.57-.71.17.16.14.17.12.18.11.2.09.21.07.23.06.23.05.25.04.26.03.27.03.28.01.3.01.32v.32l-.01.34-.01.35-.02.37-.02.38-.02.4-.03.4-.02.43-.04.44-.03.45-.03.46-.03.48-.04.5-.03.51-.03.52-.03.54-.03.55-.03.57-.02.57-.32-.44zm-.26.86l-.34-.1.02-.35.32.45zm7.46.96l-.36.82-.23-.09-.24-.1-.25-.09-.26-.09-.26-.09-.26-.08-.27-.08-.28-.08-.27-.08-.28-.07-.28-.07-.27-.07-.28-.06-.27-.06-.27-.06-.26-.06-.26-.05-.25-.05-.25-.04-.23-.05-.23-.04-.22-.04-.2-.04-.19-.03-.18-.03-.17-.04-.15-.02-.14-.03-.12-.03-.11-.01-.09-.03-.08-.02.26-.86h.04l.06.02.1.02.11.02.13.03.15.02.17.03.18.04.19.03.21.04.22.04.22.04.24.04.25.05.26.06.26.05.27.06.28.05.27.07.29.06.28.07.28.07.29.08.29.08.28.08.28.08.29.09.27.09.27.1.27.09.25.11.25.11zm0 0zm27.68 45.64l-.9-.09.18-2.48.08-2.39-.03-2.31-.12-2.22-.23-2.14-.31-2.06-.39-1.98-.48-1.91-.56-1.83-.64-1.76-.7-1.69-.77-1.62-.83-1.55-.89-1.49-.94-1.42-1-1.35-1.04-1.3-1.08-1.24-1.13-1.18-1.15-1.12-1.19-1.08-1.21-1.01-1.24-.97-1.26-.91-1.27-.87-1.28-.82-1.28-.77-1.29-.74-1.28-.69-1.28-.65-1.28-.6-1.25-.58.36-.82 1.28.57 1.28.62 1.3.66 1.31.7 1.3.74 1.31.79 1.3.84 1.3.88 1.27.93 1.26.99 1.24 1.03 1.22 1.09 1.18 1.15 1.15 1.21 1.1 1.27 1.07 1.33 1.02 1.39.96 1.45.92 1.52.85 1.59.79 1.66.72 1.73.65 1.8.57 1.88.49 1.95.41 2.02.31 2.11.23 2.18.13 2.26.02 2.35-.07 2.43-.19 2.52zm0 0zm-52.09 31.31l.28-.86 2.05.58 2.08.45 2.09.32 2.12.2 2.12.06 2.13-.06 2.13-.17 2.11-.28 2.11-.4 2.09-.5 2.06-.61 2.04-.71 2-.8 1.96-.9 1.91-.98 1.86-1.07 1.8-1.15 1.75-1.23 1.66-1.3 1.6-1.37 1.51-1.44 1.43-1.51 1.33-1.56 1.24-1.62 1.13-1.67 1.03-1.71.91-1.77.79-1.8.67-1.84.53-1.87.41-1.9.26-1.93.9.09-.27 1.99-.42 1.97-.55 1.93-.69 1.9-.82 1.86-.93 1.81-1.06 1.76-1.16 1.71-1.27 1.66-1.36 1.6-1.46 1.54-1.55 1.47-1.62 1.4-1.71 1.33-1.77 1.25-1.84 1.18-1.9 1.09-1.94 1-2 .92-2.04.81-2.08.72-2.11.62-2.13.52-2.15.4-2.17.29-2.17.18-2.18.06-2.18-.07-2.16-.2-2.16-.33-2.13-.46-2.11-.6zM97.83 98.9l.89.14v.01l-.35 2.32-.28 2.29-.19 2.24-.11 2.21-.04 2.18.04 2.13.12 2.08.2 2.05.27 2.01.35 1.96.44 1.9.5 1.87.58 1.82.67 1.77.73 1.71.81 1.67.89 1.61.97 1.56 1.04 1.51 1.11 1.45 1.19 1.39 1.26 1.33 1.34 1.28 1.42 1.21 1.49 1.16 1.57 1.09 1.64 1.03 1.71.96 1.79.9 1.87.83 1.94.76 2.01.7-.28.86-2.04-.71-1.98-.77-1.91-.85-1.82-.92-1.76-.99-1.67-1.05-1.61-1.12-1.52-1.18-1.45-1.24-1.37-1.31-1.3-1.37-1.22-1.43-1.15-1.48-1.06-1.54-.99-1.6-.91-1.66-.83-1.7-.76-1.76-.67-1.8-.59-1.86-.52-1.9-.44-1.96-.36-1.99-.28-2.04-.2-2.09-.12-2.12-.05-2.16.04-2.21.12-2.24.2-2.28.27-2.31.36-2.35zm.89.14v.01l-.02.13.02-.14z" class="fil1"/><path d="M169.94 106.32c1.21-3.27-4.08-17.22-12.52-22.62-5.58-3.56-12.22 3.67-9.8 5.52 2.47 1.86 14 17.89 13.99 23.44-.02 5.54 6.57-1.41 8.33-6.34z" class="fil2"/><path d="M130.83 11.68c-4.42 6.17.69 28.42 4.12 40.52 2.6-9.42 7.95-31.7 3.09-39.51-.9-1.4-1.99-2.18-3.52-2.4l-.78-.06c-1.27 0-2.17.45-2.91 1.45zM135 58.21c-.59 0-1.11-.38-1.26-.94-1.26-3.84-11.81-37.8-5-47.16 1.42-1.97 3.54-2.85 6.21-2.47 2.26.35 4.04 1.56 5.35 3.63 6.83 10.98-3.62 44.58-4.05 46-.15.56-.68.93-1.25.94z" class="fil1"/><path d="M192.04 96.2c2.58-15.76 19.93-26.3 33.54-27.51.02-5.82.3-11.14.3-12.8.01-2.69 10.18-1.15 12.39.64 1.44 1.18.54 5.24.31 11.86.56.17 4.88.73 7.52 1.9 14.1 6.25 31.54 19.03 28.84 47.54-2.15 22.17-31.02 39.99-54.18 32.54-23.23-7.46-33.14-27.77-28.72-54.17z" class="fil0"/><path id="1" d="M225.13 68.69h.9l-.41.45-1.27.14-1.29.19-1.3.24-1.32.3-1.32.35-1.33.4-1.33.45-1.34.49-1.32.55-1.32.59-1.3.64-1.3.68-1.27.74-1.25.77-1.22.82-1.19.86-1.17.9-1.12.94-1.09.99-1.05 1.02-1 1.07-.95 1.1-.9 1.13-.84 1.18-.78 1.2-.72 1.25-.66 1.27-.59 1.31-.51 1.35-.44 1.37-.36 1.4-.28 1.44-.89-.15.29-1.48.37-1.46.46-1.43.53-1.38.6-1.36.68-1.32.75-1.28.81-1.25.86-1.2.92-1.17.98-1.13 1.03-1.09 1.07-1.05 1.11-1.01 1.16-.97 1.18-.92 1.22-.88 1.25-.83 1.28-.79 1.3-.75 1.32-.7 1.33-.65 1.34-.61 1.35-.55 1.36-.51 1.37-.45 1.35-.41 1.36-.36 1.35-.3 1.33-.25 1.32-.2 1.31-.15-.41.46zm.9 0v.41l-.41.04.41-.45zm-.6-12.8h.9v.57l-.01.23-.01.24-.01.27v.28l-.01.3-.01.32-.02.33-.01.35-.01.37-.01.38-.02.39-.01.4-.01.42-.02.43-.01.45-.01.45-.02.46-.01.47-.01.49-.01.49-.02.49-.01.51-.01.52-.01.51v.53l-.01.53v.54l-.01.54v.54h-.9V67.6l.01-.54v-.53l.01-.53.01-.52.01-.52.01-.51.01-.5.01-.49.02-.48.01-.48.01-.46.02-.45.01-.45.01-.43.02-.41.01-.41.01-.39.02-.38.01-.36.01-.36.01-.33.01-.32.01-.3.01-.28.01-.26.01-.25v-.22l.01-.21V55.89zm13.13.29l-.58.7-.19-.14-.24-.14-.3-.15-.32-.15-.37-.15-.4-.14-.43-.14-.45-.13-.48-.13-.48-.12-.51-.11-.51-.1-.52-.09-.53-.08-.53-.07-.52-.06-.51-.04-.5-.03-.49-.02h-.47l-.45.02-.42.03-.4.05-.36.06-.32.08-.28.09-.23.1-.17.12-.13.1-.08.11-.04.11-.02.13h-.9l.04-.36.13-.32.2-.27.25-.23.3-.18.32-.15.36-.13.39-.09.41-.07.44-.05.46-.04.49-.01h.49l.52.01.52.04.54.04.54.06.55.07.54.08.54.1.53.1.53.11.51.13.49.13.48.14.45.15.43.15.4.16.37.17.33.17.31.19.26.19h.01zm-.01 0h.01l.25.21-.26-.21zm.16 11.78l-.26.87-.32-.45.02-.62.03-.6.03-.58.03-.57.03-.56.04-.54.03-.52.04-.51.03-.49.04-.47.03-.47.03-.43.03-.43.02-.41.02-.39.02-.38.01-.36.01-.35v-.32l-.01-.3-.02-.29-.02-.28-.02-.25-.04-.23-.04-.21-.05-.19-.06-.17-.06-.15-.07-.14-.08-.11-.08-.1-.09-.08.58-.7.17.16.15.18.12.19.11.2.1.23.08.23.06.25.05.25.05.28.03.28.02.3.01.31.01.33v.34l-.01.36-.01.37-.01.38-.02.41-.03.41-.03.43-.03.45-.03.46-.03.47-.04.5-.03.5-.04.52-.03.54-.04.55-.03.56-.03.58-.03.6-.02.61-.32-.45zm-.26.87l-.34-.11.02-.34.32.45zm7.84 1.04l-.37.83-.24-.1-.26-.1-.25-.1-.27-.1-.28-.09-.28-.09-.28-.08-.29-.08-.29-.08-.3-.08-.28-.07-.3-.07-.29-.07-.28-.06-.29-.06-.28-.06-.26-.06-.27-.05-.26-.05-.25-.05-.24-.04-.22-.04-.22-.04-.2-.04-.19-.03-.18-.03-.16-.03-.14-.03-.12-.02-.12-.03-.1-.02-.08-.02.26-.87.04.01.07.02.1.01.12.03.14.02.16.04.17.03.19.03.2.04.22.04.23.04.24.04.25.05.26.05.27.05.28.06.28.06.29.06.3.07.29.07.3.07.3.07.3.09.3.07.3.09.3.09.29.09.29.1.28.1.28.1.27.11.27.11zm29.1 48.01l-.9-.09.2-2.61.07-2.51-.02-2.43-.14-2.35-.23-2.25-.33-2.17-.41-2.09-.51-2-.59-1.93-.66-1.85-.74-1.78-.81-1.71-.88-1.63-.94-1.56-.99-1.5-1.05-1.43-1.1-1.37-1.14-1.3-1.18-1.24-1.22-1.19-1.25-1.12-1.27-1.07-1.3-1.02-1.33-.96-1.33-.92-1.35-.86-1.35-.81-1.36-.78-1.35-.72-1.35-.68-1.34-.64-1.32-.61.37-.83 1.34.61 1.35.65 1.36.69 1.38.74 1.37.78 1.38.83 1.37.88 1.36.93 1.34.98 1.32 1.03 1.31 1.09 1.27 1.15 1.25 1.21 1.2 1.27 1.17 1.33 1.12 1.4 1.07 1.46 1.02 1.54.96 1.59.89 1.67.84 1.75.75 1.82.68 1.89.6 1.98.52 2.05.43 2.12.33 2.22.24 2.29.13 2.38.03 2.47-.08 2.56-.2 2.65zm0 0zm-54.77 32.92l.28-.86 2.16.62 2.18.47 2.21.34 2.23.2 2.23.07 2.24-.06 2.24-.18 2.23-.3 2.22-.42 2.2-.53 2.17-.64 2.15-.74 2.1-.84 2.06-.95 2.01-1.03 1.97-1.13 1.89-1.21 1.83-1.29 1.76-1.38 1.67-1.44 1.6-1.52 1.5-1.58 1.4-1.64 1.31-1.71 1.19-1.75 1.08-1.82.96-1.85.83-1.9.71-1.93.56-1.98.43-2 .27-2.03.9.09-.28 2.09-.44 2.08-.58 2.02-.73 2-.85 1.95-.99 1.91-1.1 1.85-1.23 1.8-1.33 1.75-1.44 1.68-1.53 1.61-1.63 1.55-1.71 1.48-1.79 1.39-1.87 1.32-1.93 1.23-1.99 1.15-2.05 1.06-2.11.96-2.14.86-2.18.75-2.22.66-2.24.54-2.26.42-2.28.31-2.29.19-2.29.06-2.29-.08-2.28-.2-2.26-.34-2.25-.49-2.21-.64zM191.6 96.12l.89.15-.37 2.44-.29 2.41-.2 2.37-.12 2.32-.04 2.29.04 2.25.13 2.19.2 2.16.29 2.11.37 2.06.46 2.01.53 1.96.62 1.92.69 1.86.78 1.81.85 1.75.94 1.7 1.01 1.64 1.1 1.58 1.17 1.53 1.25 1.46 1.33 1.41 1.41 1.34 1.5 1.28 1.56 1.22 1.65 1.15 1.73 1.08 1.81 1.02 1.88.94 1.96.88 2.05.8 2.12.73-.28.86-2.16-.74-2.08-.82-2-.89-1.92-.96-1.84-1.04-1.77-1.11-1.68-1.17-1.61-1.25-1.52-1.31-1.45-1.37-1.36-1.44-1.28-1.5-1.21-1.57-1.12-1.62-1.04-1.68-.95-1.73-.88-1.79-.79-1.86-.71-1.9-.63-1.95-.54-2-.46-2.05-.38-2.1-.29-2.14-.22-2.2-.12-2.23-.05-2.28.04-2.32.13-2.36.2-2.39.29-2.44.38-2.47zm.89.15l-.02.13.02-.13z" class="fil1"/><path d="M267.45 103.93c1.28-3.44-4.28-18.12-13.18-23.81-5.86-3.74-12.85 3.87-10.3 5.82 2.6 1.95 14.72 18.82 14.72 24.66-.02 5.83 6.91-1.48 8.76-6.67z" class="fil2"/><path d="M226.3 4.35c-4.65 6.48.72 29.89 4.34 42.63 2.73-9.91 8.37-33.35 3.25-41.58-.95-1.47-2.1-2.29-3.71-2.52l-.82-.06c-1.33 0-2.28.47-3.06 1.53zm4.39 48.95c-.62 0-1.17-.4-1.33-.98-1.32-4.05-12.42-39.78-5.26-49.63 1.5-2.07 3.72-3 6.53-2.6 2.38.37 4.26 1.65 5.63 3.82 7.19 11.56-3.8 46.91-4.25 48.41-.16.58-.72.98-1.32.98z" class="fil1"/><g><path fill="#6fa691" fill-rule="nonzero" d="M287.49 98.97c2.46-14.98 18.94-24.99 31.88-26.14.02-5.53.28-10.59.28-12.16.01-2.56 9.67-1.1 11.78.61 1.36 1.12.51 4.98.29 11.27.53.16 4.64.69 7.15 1.8 13.4 5.94 29.98 18.09 27.41 45.18-2.05 21.07-29.48 38-51.49 30.93-22.08-7.09-31.5-26.4-27.3-51.49z"/><path id="1" d="M318.91 72.83h.91l-.41.45-1.21.13-1.22.18-1.24.24-1.25.28-1.26.33-1.26.38-1.27.42-1.26.47-1.26.52-1.25.57-1.24.6-1.23.65-1.2.7-1.19.73-1.16.78-1.14.82-1.1.85-1.08.9-1.03.93-.99.98-.95 1.01-.9 1.04-.86 1.08-.8 1.12-.74 1.14-.68 1.18-.63 1.21-.56 1.25-.48 1.27-.42 1.31-.34 1.33-.27 1.36-.89-.14.27-1.42.36-1.38.43-1.36.51-1.32.58-1.29.64-1.25.71-1.22.77-1.19.82-1.14.88-1.12.93-1.07.97-1.03 1.02-1 1.06-.96 1.1-.92 1.13-.88 1.16-.84 1.19-.79 1.21-.75 1.24-.71 1.25-.67 1.27-.62 1.27-.57 1.29-.53 1.29-.48 1.3-.44 1.29-.38 1.29-.34 1.28-.29 1.27-.24 1.26-.19 1.24-.14-.42.46zm.91 0v.41l-.41.04.41-.45zm-.62-12.16h.91v.16l-.01.18v.2l-.01.22v.23l-.01.25-.01.27-.01.29-.01.3-.01.32-.01.33-.01.34-.02.36v.38l-.02.38-.01.4-.02.4-.01.42-.01.44-.01.44-.02.45-.01.45-.01.47-.01.48-.01.48-.01.48-.01.5v.5l-.01.5-.01.51v1.03h-.91l.01-.52v-.52l.01-.51v-.5l.01-.5.01-.5.01-.49.01-.48.01-.48.01-.47.01-.45.01-.46.02-.44.01-.43.01-.42.01-.41.02-.4.01-.39.01-.37.01-.36.02-.34.01-.34.01-.31.01-.3.01-.29.01-.26v-.25l.01-.24.01-.21v-.52zm12.51.25l-.57.71-.18-.14-.23-.14-.28-.14-.31-.14-.35-.14-.38-.13-.4-.13-.43-.13-.45-.12-.46-.11-.48-.11-.49-.09-.5-.09-.5-.07-.49-.07-.5-.06-.49-.04-.48-.02-.46-.02h-.45l-.42.01-.4.03-.37.05-.35.05-.3.08-.26.09-.22.1-.16.1-.11.1-.08.1-.04.1-.01.12h-.91l.04-.34.13-.32.19-.26.24-.23.29-.17.31-.14.34-.12.36-.09.4-.07.42-.05.44-.03.46-.01h.47l.5.01.5.03.51.04.51.06.52.07.52.08.51.08.51.11.5.1.48.12.48.13.44.13.43.14.41.15.38.15.35.16.33.16.29.18.25.18zm0 0l.23.18-.23-.18zm.14 11.2l-.26.86-.32-.45.02-.58.03-.57.02-.56.04-.54.03-.53.03-.51.03-.5.04-.48.03-.46.03-.46.03-.44.03-.41.03-.41.02-.39.02-.38.02-.35.01-.34V63.69l-.02-.27-.02-.25-.02-.24-.04-.23-.03-.19-.05-.19-.06-.16-.06-.14-.06-.12-.08-.11-.07-.09-.08-.07.57-.71.17.16.14.17.12.18.11.2.09.21.07.23.07.23.05.25.03.26.04.27.02.28.01.3.01.32v.32l-.01.34-.01.35-.01.37-.02.38-.03.4-.02.4-.03.43-.03.44-.04.45-.03.46-.03.48-.04.5-.03.51-.03.52-.03.54-.03.55-.03.57-.02.57-.32-.44zm-.26.86l-.33-.1.01-.35.32.45zm7.47.96l-.37.82-.23-.09-.24-.1-.25-.09-.25-.09-.26-.09-.27-.08-.27-.08-.27-.08-.28-.08-.27-.07-.28-.07-.28-.07-.27-.06-.28-.06-.26-.06-.27-.06-.26-.05-.25-.05-.25-.04-.23-.05-.23-.04-.21-.04-.21-.04-.19-.03-.18-.03-.17-.04-.15-.02-.14-.03-.12-.03-.11-.01-.09-.03-.08-.02.26-.86h.04l.06.02.1.02.12.02.12.03.15.02.17.03.18.04.19.03.21.04.22.04.23.04.24.04.24.05.26.06.26.05.28.06.27.05.28.07.28.06.28.07.29.07.29.08.28.08.28.08.29.08.28.09.27.09.27.1.27.09.26.11.25.11zm27.67 45.64l-.9-.09.18-2.48.08-2.39-.03-2.31-.12-2.22-.22-2.14-.31-2.06-.4-1.98-.48-1.91-.56-1.83-.63-1.76-.71-1.69-.77-1.62-.83-1.55-.89-1.49-.94-1.42-1-1.35-1.04-1.3-1.08-1.24-1.13-1.18-1.15-1.12-1.19-1.08-1.21-1.01-1.24-.97-1.26-.91-1.26-.87-1.28-.82-1.29-.77-1.29-.74-1.28-.69-1.28-.65-1.28-.6-1.25-.58.37-.82 1.27.57 1.29.62 1.29.66 1.31.7 1.3.74 1.32.79 1.29.84 1.3.88 1.27.93 1.27.99 1.23 1.03 1.22 1.09 1.18 1.15 1.15 1.21 1.11 1.27 1.06 1.33 1.02 1.39.97 1.45.91 1.52.85 1.59.79 1.66.72 1.73.65 1.8.57 1.88.49 1.95.41 2.02.31 2.11.23 2.18.13 2.26.02 2.35-.07 2.43-.19 2.52zm0 0zm-52.08 31.31l.28-.86 2.05.58 2.07.45 2.1.32 2.11.2 2.12.06 2.13-.06 2.13-.17 2.12-.28 2.11-.4 2.08-.5 2.07-.61 2.03-.71 2-.8 1.96-.9 1.92-.98 1.85-1.07 1.81-1.15 1.74-1.23 1.66-1.3 1.6-1.37 1.51-1.44 1.43-1.51 1.33-1.56 1.24-1.62 1.13-1.67 1.03-1.71.91-1.77.79-1.8.67-1.84.54-1.87.4-1.9.26-1.93.9.09-.27 1.99-.42 1.97-.55 1.93-.69 1.9-.82 1.86-.93 1.81-1.05 1.76-1.17 1.71-1.27 1.66-1.36 1.6-1.46 1.54-1.54 1.47-1.63 1.4-1.71 1.33-1.77 1.25-1.84 1.18-1.89 1.09-1.95 1-2 .92-2.04.81-2.08.72-2.1.62-2.13.52-2.16.4-2.16.29-2.18.18-2.18.06-2.17-.07-2.17-.2-2.15-.33-2.13-.46-2.11-.6zm-27.6-51.99l.89.14v.01l-.35 2.32-.28 2.29-.19 2.24-.11 2.21-.04 2.18.04 2.13.12 2.08.2 2.05.28 2.01.35 1.96.43 1.9.5 1.87.59 1.82.66 1.77.73 1.71.82 1.67.89 1.61.96 1.56 1.04 1.51 1.11 1.45 1.19 1.39 1.26 1.33 1.35 1.28 1.41 1.21 1.49 1.16 1.57 1.09 1.64 1.03 1.71.96 1.79.9 1.87.83 1.94.76 2.02.7-.28.86-2.05-.71-1.98-.77-1.9-.85-1.83-.92-1.75-.99-1.68-1.05-1.6-1.12-1.53-1.18-1.45-1.24-1.37-1.31-1.3-1.37-1.22-1.43-1.15-1.48-1.06-1.54-.99-1.6-.91-1.66-.83-1.7-.75-1.76-.68-1.8-.59-1.86-.52-1.9-.44-1.96-.36-1.99-.28-2.04-.2-2.09-.12-2.12-.04-2.16.03-2.21.12-2.24.2-2.28.27-2.31.36-2.35zm.89.14v.01l-.02.13.02-.14z" class="fil1"/></g><path d="M359.16 106.32c1.21-3.27-4.07-17.22-12.52-22.62-5.58-3.56-12.22 3.67-9.8 5.52 2.47 1.86 14 17.89 13.99 23.44-.02 5.54 6.57-1.41 8.33-6.34z" class="fil2"/><path d="M320.06 11.68c-4.43 6.17.68 28.42 4.11 40.52 2.6-9.42 7.96-31.7 3.09-39.51-.89-1.4-1.99-2.18-3.52-2.4l-.78-.06c-1.27 0-2.17.45-2.9 1.45zm4.16 46.53c-.58 0-1.11-.38-1.26-.94-1.25-3.84-11.81-37.8-5-47.16 1.42-1.97 3.54-2.85 6.21-2.47 2.26.35 4.04 1.56 5.35 3.63 6.83 10.98-3.61 44.58-4.04 46-.16.56-.69.93-1.26.94z" class="fil1"/></g></g></svg>