<svg xmlns="http://www.w3.org/2000/svg" width="111" height="67" fill-rule="evenodd" clip-rule="evenodd" image-rendering="optimizeQuality" shape-rendering="geometricPrecision" text-rendering="geometricPrecision" viewBox="0 0 17.25 10.39"><defs><style>.fil4{fill:#f5b2b6}.fil0{fill:#99cfba}.fil1{fill:#2b2a29;fill-rule:nonzero}</style></defs><g id="Слой_x0020_1"><g id="_1411520816"><path d="M4.4 5.2c2.41 0 4.37 1.16 4.37 2.58 0 1.43-1.96 2.58-4.37 2.58-2.42 0-4.37-1.15-4.37-2.58C.03 6.36 1.98 5.2 4.4 5.2z" class="fil0"/><path id="1" d="M8.8 7.78h-.06v-.13l-.02-.13-.03-.12-.03-.13-.05-.12-.06-.12-.07-.12-.07-.12-.09-.11-.1-.11-.1-.11-.11-.1-.12-.1-.13-.1-.14-.09-.14-.09-.15-.08-.16-.08L7 5.74l-.17-.07-.17-.07-.19-.06-.18-.06-.2-.05-.19-.04-.21-.04-.2-.04-.21-.03-.22-.02-.22-.02-.22-.01H4.4v-.05h.22l.23.01.22.02.21.02.22.03.2.03.21.05.2.04.19.05.19.06.18.06.18.07.17.07.17.08.16.08.15.09.15.09.14.09.13.1.12.1.12.11.1.11.1.11.09.11.08.12.07.12.06.13.05.12.04.13.02.13.02.14.01.13zm-4.4 2.61v-.06h.22l.22-.01.22-.02.22-.02.21-.03.2-.03.21-.04.19-.05.2-.05.18-.06.19-.06.17-.06.17-.08.17-.07.16-.08.15-.09.14-.09.14-.09.13-.1.12-.1.11-.1.1-.11.1-.11.09-.11.07-.12.07-.11.06-.12.05-.13.03-.12.03-.13.02-.13v-.13h.06l-.01.14-.02.13-.02.13-.04.13-.05.13-.06.12-.07.12-.08.12-.09.12-.1.11-.1.11-.12.1-.12.1-.13.1-.14.1-.15.09-.15.08-.16.08-.17.08-.17.07-.18.07-.18.06-.19.06-.19.05-.2.05-.21.04-.2.03-.22.03-.21.03-.22.01-.23.01-.22.01zM0 7.78h.05l.01.13.01.13.03.13.04.12.05.13.06.12.06.11.08.12.09.11.09.11.11.11.11.1.12.1.13.1.14.09.14.09.15.09.16.08.16.07.17.08.18.06.18.06.19.06.19.05.2.05.2.04.21.03.21.03.22.02.21.02.22.01h.23v.06l-.23-.01-.22-.01-.22-.01-.22-.03-.21-.03-.21-.03-.2-.04-.2-.05-.19-.05-.19-.06-.19-.06-.18-.07-.17-.07-.16-.08-.16-.08-.16-.08-.14-.09-.14-.1-.13-.1-.12-.1-.12-.1-.11-.11-.09-.11-.09-.12-.08-.12-.07-.12-.06-.12-.05-.13-.04-.13-.03-.13-.01-.13L0 7.78zm4.4-2.6v.05h-.23l-.22.01-.21.02-.22.02-.21.03-.21.04-.2.04-.2.04-.19.05-.19.06-.18.06-.18.07-.17.07-.16.08-.16.08-.15.08-.14.09-.14.09-.13.1-.12.1-.11.1-.11.11-.09.11-.09.11-.08.12-.06.12-.06.12-.05.12-.04.13-.03.12-.01.13-.01.13H0l.01-.13.01-.14.03-.13.04-.13.05-.12L.2 7l.07-.12.08-.12.09-.11.09-.11.11-.11.12-.11.12-.1.13-.1.14-.09.14-.09.16-.09.16-.08.16-.08.17-.07.18-.07.19-.06.19-.06.19-.05.2-.04.2-.05.21-.03.21-.03.22-.02.22-.02.22-.01h.23z" class="fil1"/><path fill="#c5e3d7" d="M15.34 2.77c1.04 0 1.88 1.65 1.88 3.68 0 2.04-.84 3.69-1.88 3.69-1.05 0-1.89-1.65-1.89-3.69 0-2.03.84-3.68 1.89-3.68z"/><path id="1" d="M17.25 6.45h-.05l-.01-.18v-.19l-.02-.18-.01-.18-.02-.18-.03-.18-.03-.17-.03-.16-.04-.17-.04-.15-.05-.16-.04-.15-.06-.14-.05-.14-.06-.13-.06-.13-.07-.12-.07-.11-.07-.11-.07-.1-.08-.1-.07-.08-.08-.09-.09-.07-.08-.06-.09-.06-.08-.05-.09-.04-.09-.03-.1-.02-.09-.02h-.09v-.05h.09l.1.02.1.02.1.03.09.05.09.05.09.05.09.07.08.08.08.08.08.09.08.1.08.1.07.11.07.12.06.12.07.13.06.13.05.14.05.15.05.15.05.15.04.16.04.17.03.16.03.18.03.17.02.18.02.18.01.19.01.18v.19zm-1.91 3.71v-.05h.09l.09-.02.1-.02.09-.03.09-.04.08-.05.09-.06.08-.06.09-.08.08-.08.07-.08.08-.1.07-.1.07-.11.07-.11.07-.12.06-.13.06-.13.05-.14.06-.15.04-.14.05-.16.04-.16.04-.16.03-.16.03-.17.03-.18.02-.18.01-.18.02-.18v-.19l.01-.19h.05v.19l-.01.19-.01.19-.02.18-.02.18-.03.17-.03.18-.03.16-.04.17-.04.16-.05.15-.05.15-.05.15-.05.14-.06.13-.07.13-.06.12-.07.12-.07.11-.08.1-.08.1-.08.09-.08.08-.08.08-.09.06-.09.06-.09.05-.09.05-.1.03-.1.02-.1.02h-.09zm-1.92-3.71h.05l.01.19v.19l.02.18.01.18.02.18.03.18.03.17.03.16.04.16.04.16.05.16.05.14.05.15.05.14.06.13.06.13.07.12.07.11.07.11.07.1.08.1.07.08.09.08.08.08.08.06.09.06.09.05.08.04.1.03.09.02.09.02h.1v.05h-.1l-.1-.02-.1-.02-.09-.03-.1-.05-.09-.05-.09-.06-.09-.06-.08-.08-.08-.08-.08-.09-.08-.1-.08-.1-.07-.11-.07-.12-.06-.12-.07-.13-.06-.13-.05-.14-.05-.15-.05-.15-.05-.15-.04-.16-.04-.17-.03-.16-.03-.18-.03-.17-.02-.18-.02-.18-.01-.19-.01-.19v-.19zm1.92-3.7v.05h-.1l-.09.02-.09.02-.1.03-.08.04-.09.05-.09.06-.08.06-.08.07-.09.09-.07.08-.08.1-.07.1-.07.11-.07.11-.07.12-.06.13-.06.13-.05.14-.05.14-.05.15-.05.16-.04.15-.04.17-.03.16-.03.17-.03.18-.02.18-.01.18-.02.18v.19l-.01.18h-.05v-.19l.01-.18.01-.19.02-.18.02-.18.03-.17.03-.18.03-.16.04-.17.04-.16.05-.15.05-.15.05-.15.05-.14.06-.13.07-.13.06-.12.07-.12.07-.11.08-.1.08-.1.08-.09.08-.08.08-.08.09-.07.09-.05.09-.05.1-.05.09-.03.1-.02.1-.02h.1z" class="fil1"/><path fill="#f08bb2" d="M12.19.1c.36 0 .65.47.65 1.05 0 .59-.29 1.06-.65 1.06-.35 0-.64-.47-.64-1.06 0-.58.29-1.05.64-1.05z"/><path id="1" d="M12.86 1.15h-.05v-.1L12.8 1V.94l-.01-.05-.01-.05-.01-.04-.01-.05-.01-.05-.02-.04-.01-.05-.02-.04-.02-.04-.01-.04-.02-.03-.02-.04-.03-.03-.02-.04-.02-.03-.03-.03-.02-.02-.03-.03-.02-.02-.03-.02-.03-.02-.03-.01-.03-.02-.03-.01-.03-.01h-.03l-.03-.01h-.03V.07h.04l.03.01h.04l.03.01.03.01.04.02.03.02.03.02.03.02.03.02.02.03.03.03.03.03.02.03.03.04.02.03.02.04.02.04.02.04.02.04.02.05.01.04.02.05.01.05.01.04.01.05.01.06.01.05v.05l.01.05v.11zm-.67 1.09v-.05h.03l.03-.01h.03l.03-.01.03-.01.03-.02.03-.01.03-.02.03-.02.02-.02.03-.03.02-.03.03-.02.02-.03.02-.04.03-.03.02-.04.02-.03.01-.04.02-.04.02-.05.01-.04.02-.04.01-.05.01-.05.01-.05.01-.05.01-.05v-.05l.01-.05v-.11h.05v.11l-.01.06v.05l-.01.05-.01.05-.01.05-.01.05-.01.05-.02.05-.01.04-.02.05-.02.04-.02.04-.02.04-.02.04-.02.03-.03.04-.02.03-.03.03-.03.03-.02.02-.03.03-.03.02-.03.02-.03.02-.04.01-.03.02-.03.01h-.04l-.03.01h-.04zm-.67-1.09h.05v.06l.01.05v.05l.01.05v.05l.01.05.01.05.01.05.02.05.01.04.02.04.01.05.02.04.02.04.02.03.02.04.02.03.02.04.03.03.02.02.03.03.02.03.03.02.03.02.02.02.03.01.03.02.03.01.03.01h.03l.03.01h.03v.05h-.03l-.04-.01h-.03l-.04-.01-.03-.02-.03-.01-.03-.02-.03-.02-.03-.02-.03-.03-.03-.02-.03-.03-.02-.03-.03-.03-.02-.04-.03-.03-.02-.04-.02-.04-.02-.04-.02-.04-.01-.05-.02-.04-.01-.05-.02-.05-.01-.05-.01-.05-.01-.05-.01-.05v-.05l-.01-.06v-.11zm.67-1.08v.05h-.03l-.03.01h-.03l-.03.01-.03.01-.03.02-.03.01-.02.02-.03.02-.03.02-.02.03-.03.02-.02.03-.03.03-.02.04-.02.03-.02.04-.02.03-.02.04-.02.04-.01.04-.02.05-.01.04-.02.05-.01.05-.01.04-.01.05v.05l-.01.06v.05l-.01.05v.05h-.05v-.11l.01-.05V.94l.01-.05.01-.06.01-.05.01-.04.02-.05.01-.05.02-.04.01-.05.02-.04.02-.04.02-.04.02-.04.03-.03.02-.04.03-.03.02-.03.03-.03.03-.03.03-.02.03-.02.03-.02.03-.02.03-.02.03-.01.04-.01h.03l.04-.01h.03z" class="fil1"/><path d="M4.42 3.44c.81 0 1.48.35 1.48.77 0 .43-.67.78-1.48.78-.82 0-1.49-.35-1.49-.78 0-.42.67-.77 1.49-.77z" class="fil0"/><path id="1" d="M5.92 4.21h-.05v-.03l-.01-.04V4.1l-.02-.03-.01-.04L5.81 4l-.02-.04-.03-.03-.03-.03-.03-.04-.03-.03-.04-.03-.04-.03-.04-.03-.05-.02-.05-.03-.05-.02-.05-.03-.06-.02-.05-.02-.06-.02-.06-.02-.07-.02-.06-.01-.07-.02-.07-.01-.07-.01-.07-.01h-.07l-.07-.01H4.42v-.05H4.64l.08.01.07.01.07.01.07.01.07.02.06.01.07.02.06.02.06.02.06.02.06.02.05.03.06.02.05.03.04.03.05.03.04.03.04.03.04.04.03.03.03.04.03.03.02.04.02.04.02.04.02.04.01.04v.08zm-1.5.8v-.05H4.57l.07-.01.07-.01h.07l.07-.01.07-.02.07-.01.06-.02.07-.01.06-.02.06-.02.05-.02.06-.02.05-.03.05-.02.05-.03.05-.03.04-.03.04-.02.04-.04.03-.03.03-.03.03-.03.03-.04.02-.03.02-.03.01-.04.02-.04v-.03l.01-.04v-.04h.05v.09l-.01.04-.02.04-.02.04-.02.04-.02.03-.03.04-.03.04-.03.03-.04.03-.04.04-.04.03-.05.03-.04.03-.05.02-.06.03-.05.02-.06.03-.06.02-.06.02-.06.02-.07.02-.06.01-.07.02-.07.01-.07.01-.07.01h-.08l-.07.01H4.42zm-1.51-.8h.05v.04l.01.04.01.03.01.04.01.04.02.03.03.03.02.04.03.03.03.03.04.03.03.04.04.02.05.03.04.03.05.03.05.02.05.03.06.02.06.02.06.02.06.02.06.01.07.02.06.01.07.02.07.01h.07l.07.01.08.01H4.42v.05h-.16L4.19 5h-.08l-.07-.01-.07-.01-.07-.01-.07-.02-.06-.01-.07-.02-.06-.02-.06-.02-.06-.02-.06-.03-.05-.02-.05-.03-.05-.02-.05-.03-.05-.03-.04-.03-.04-.04-.03-.03-.04-.03-.03-.04L3 4.49l-.02-.03-.02-.04-.02-.04-.01-.04-.01-.04-.01-.04v-.05zm1.51-.79v.05H4.27l-.08.01h-.07l-.07.01-.07.01-.07.01-.06.02-.07.01-.06.02-.06.02-.06.02-.06.02-.06.02-.05.03-.05.02-.05.03-.04.02-.05.03-.04.03-.03.03-.04.03-.03.04-.03.03-.02.03-.03.04-.02.03-.01.04-.01.03-.01.04-.01.04v.03h-.05v-.04l.01-.04.01-.04.01-.04.02-.04.02-.04.02-.04.03-.03.03-.04.04-.03.03-.04.04-.03.04-.03.05-.03.05-.03.05-.03.05-.02.05-.03.06-.02.06-.02.06-.02.06-.02.07-.02.06-.01.07-.02.07-.01.07-.01.07-.01.08-.01H4.42z" class="fil1"/><path d="M12.15 2.64h.1c.38 0 .69.32.69.7.09 5.56 2.23 5.57 2.04 6.49-.08.38-.6.41-.98.41h-3.6c-.38 0-1.01-.15-.97-.53.12-1.15 2.07-1.44 2.03-6.37 0-.38.31-.7.69-.7z" class="fil4"/><path id="1" d="M12.25 2.67h-.1v-.05h.1v.05zm.72.67h-.05V3.3l-.01-.03v-.03l-.01-.04-.01-.03-.01-.03-.01-.03-.01-.03-.01-.03-.02-.03-.01-.03-.02-.03-.02-.02-.02-.03-.02-.02-.02-.02-.02-.03-.03-.02-.02-.02-.03-.02-.03-.01-.02-.02-.03-.01-.03-.02-.03-.01-.03-.01-.03-.01-.04-.01h-.03l-.03-.01h-.07v-.05h.07l.04.01h.03l.04.01.03.01.04.01.03.01.03.02.03.01.03.02.03.02.03.02.02.02.03.02.03.03.02.02.02.03.02.03.02.02.02.03.02.03.02.04.01.03.01.03.01.03.01.04.01.03.01.04v.03l.01.04v.04zM15 9.84l-.05-.01.01-.08v-.08l-.01-.07-.03-.07-.03-.08-.05-.07-.05-.07-.06-.08-.07-.09-.07-.09-.08-.09-.09-.11-.09-.11-.09-.12-.1-.14-.1-.14-.1-.16-.1-.18-.09-.19-.1-.21-.09-.22-.09-.25-.09-.27-.08-.29-.08-.31-.07-.33-.06-.36-.05-.39-.05-.42-.03-.44-.03-.48-.01-.5h.05l.01.5.03.47.03.45.05.41.05.39.06.36.07.33.08.31.08.29.09.26.09.25.09.22.09.21.1.19.1.17.1.16.09.14.1.14.09.12.09.11.09.1.08.1.07.09.07.08.06.08.06.08.04.08.04.08.03.07.01.09v.08l-.01.09zm-1 .43v-.05h.07l.04-.01h.15l.04-.01h.08l.03-.01h.04l.04-.01.03-.01.04-.01.03-.01.04-.01.03-.01.03-.01.03-.02.03-.01.03-.02.02-.02.03-.02.02-.02.02-.02.02-.02.02-.03.01-.02.01-.03.01-.03.01-.03.05.01-.01.03-.01.04-.01.03-.02.03-.02.03-.02.03-.02.02-.03.02-.02.03-.03.01-.03.02-.03.02-.04.01-.03.02-.03.01-.04.01-.04.01-.03.01-.04.01-.04.01h-.04l-.04.01h-.04l-.04.01H14.19l-.04.01H14zm-1.75-.05H14v.05h-1.75v-.05zm-.1 0h.1v.05h-.1v-.05zm-1.75 0h1.75v.05H10.4v-.05zm-1-.52l.05.01v.06l.01.03.01.03.01.03.01.02.02.03.02.02.02.03.03.02.02.02.03.02.03.02.04.02.03.02.04.01.04.02.03.01.04.02.04.01.05.01.04.01.04.01.04.01h.04l.04.01h.04l.04.01h.08l.04.01h.03v.05h-.07l-.04-.01h-.08l-.04-.01-.05-.01h-.04l-.04-.01-.05-.01-.04-.01-.04-.01-.04-.01-.04-.02-.04-.01-.04-.02-.04-.02-.04-.02-.03-.01-.04-.03-.03-.02-.03-.02-.03-.03-.02-.02-.02-.03-.02-.03-.02-.03-.01-.03-.01-.04-.01-.03V9.7zm2.03-6.36h.06v.45l-.02.42-.02.4-.03.37-.05.35-.05.33-.05.31-.07.29-.07.27-.07.25-.08.23-.09.22-.09.2-.09.19-.09.17-.09.16-.09.16-.1.14-.09.13-.09.12-.09.12-.09.11-.08.11-.08.1-.07.09-.06.1-.06.09-.05.1-.05.09-.03.1-.03.1-.02.1-.05-.01.02-.1.03-.11.03-.1.05-.1.05-.09.06-.1.07-.1.07-.09.08-.11.08-.1.09-.11.09-.12.09-.12.09-.13.09-.14.09-.15.1-.16.09-.18.09-.18.08-.2.09-.22.08-.23.07-.25.07-.26.07-.29.05-.31.05-.32.04-.35.04-.38.02-.39.01-.42v-.45zm.72-.72v.05h-.06l-.04.01h-.03l-.03.01-.03.01-.03.01-.03.01-.03.02-.03.01-.03.02-.03.01-.02.02-.03.02-.02.02-.03.03-.02.02-.02.02-.02.03-.02.02-.02.03-.01.03-.02.03-.01.03-.01.03-.01.03-.01.03-.01.03-.01.04v.1h-.06l.01-.04v-.07l.01-.04.01-.03.01-.04.01-.03.01-.03.01-.03.02-.04.02-.03.02-.03.02-.02.02-.03.02-.03.03-.02.02-.03.03-.02.02-.02.03-.02.03-.02.03-.02.03-.01.03-.02.04-.01.03-.01.04-.01.03-.01h.04l.03-.01h.07z" class="fil1"/><g><path fill="#6fa691" d="M3.55 4.85h1.63c.07 0 .13.06.13.13v.08c0 .08-.06.14-.13.14H3.55c-.07 0-.13-.06-.13-.14v-.08c0-.07.06-.13.13-.13z"/><path id="1" d="M5.18 4.87H3.55v-.05h1.63v.05zm.16.11h-.05v-.02h-.01v-.02l-.01-.01v-.01l-.01-.01V4.9h-.01l-.01-.01h-.01l-.01-.01H5.2v-.01h-.02v-.05h.04l.01.01h.01l.01.01h.01l.01.01.01.01h.01v.01h.01v.01l.01.01.01.01v.01l.01.01v.01l.01.01v.04zm-.05.08v-.08h.05v.08h-.05zm-.11.17v-.05l.01-.01h.03v-.01h.02v-.01h.01l.01-.01v-.01h.01v-.01l.01-.01v-.02h.01v-.03h.05v.04l-.01.01v.02h-.01v.02l-.01.01-.01.01-.01.01-.01.01h-.01v.01h-.01l-.01.01h-.01l-.01.01h-.02l-.01.01h-.02zm-1.63-.05h1.63v.05H3.55v-.05zm-.16-.12h.05v.03h.01v.02l.01.01v.01h.01v.01h.01v.01h.01v.01h.02v.01h.03l.01.01v.05h-.02l-.01-.01H3.5l-.01-.01h-.01l-.01-.01h-.01v-.01h-.01l-.01-.01-.01-.01-.01-.01-.01-.01v-.02H3.4V5.1h-.01v-.04zm.05-.08v.08h-.05v-.08h.05zm.11-.16v.05h-.02v.01h-.02l-.01.01h-.01l-.01.01-.01.01-.01.01v.01l-.01.01v.02h-.01v.02h-.05v-.03l.01-.01v-.02l.01-.01V4.9l.01-.01.01-.01v-.01h.01v-.01h.01l.01-.01.01-.01h.01l.01-.01h.02v-.01h.04z" class="fil1"/></g><g><path d="M11.62 2.13h1.23c.08 0 .14.07.14.14v.08c0 .08-.06.14-.14.14h-1.23c-.07 0-.14-.06-.14-.14v-.08c0-.07.07-.14.14-.14z" class="fil0"/><path id="1" d="M12.85 2.16h-1.23v-.05h1.23v.05zm.16.11h-.05v-.03l-.01-.01v-.02h-.01V2.2h-.01v-.01h-.01v-.01h-.01l-.01-.01h-.01l-.01-.01h-.03v-.05h.05l.01.01h.01l.01.01.01.01h.01l.01.01.01.01.01.01.01.01v.01l.01.01v.02h.01v.05zm-.05.08v-.08h.05v.08h-.05zm-.11.17v-.06h.04v-.01h.02v-.01h.01v-.01h.01l.01-.01v-.01h.01v-.02l.01-.01v-.03h.05v.05l-.01.01v.01l-.01.01v.01l-.01.01v.01h-.01v.01h-.01l-.01.01-.01.01h-.01v.01h-.02v.01h-.04l-.01.01h-.01zm-1.23-.06h1.23v.06h-1.23v-.06zm-.16-.11h.05v.03l.01.01v.01l.01.01v.01h.01v.01h.01v.01h.01v.01h.02v.01h.04v.06h-.01l-.01-.01h-.03l-.01-.01h-.02v-.01h-.01l-.01-.01-.01-.01-.01-.01h-.01v-.02h-.01v-.01l-.01-.01v-.01l-.01-.01v-.05zm.05-.08v.08h-.05v-.08h.05zm.11-.16v.05h-.03l-.01.01h-.01l-.01.01h-.01v.01h-.01v.01h-.01v.01l-.01.01v.01l-.01.01v.03h-.05v-.05h.01V2.2l.01-.01.01-.01v-.01l.01-.01h.01v-.01l.01-.01h.01l.01-.01.01-.01h.02v-.01h.05z" class="fil1"/></g><g><path d="M15.29.03c.35 0 .64.6.64 1.35 0 .74-.29 1.34-.64 1.34-.36 0-.65-.6-.65-1.34 0-.75.29-1.35.65-1.35z" class="fil0"/><path id="1" d="M15.96 1.38h-.05v-.07l-.01-.07v-.07l-.01-.06v-.07l-.01-.06-.01-.06-.01-.06-.02-.06-.01-.06-.02-.06-.01-.05-.02-.05-.02-.05-.02-.05-.02-.05-.02-.04-.02-.04-.03-.04-.02-.04-.03-.03-.02-.03-.03-.03-.03-.03-.03-.02-.02-.02-.03-.02-.03-.01-.03-.01-.03-.01-.03-.01h-.03V0h.03l.04.01.03.01.04.01.03.02.03.01.04.03.03.02.03.03.03.03.02.04.03.03.03.04.02.04.02.04.03.05.02.05.02.05.02.05.02.05.01.06.02.06.01.05.02.06.01.07.01.06.01.06.01.07v.07l.01.07v.14zm-.67 1.37V2.7h.03l.03-.01.03-.01.03-.01.03-.01.03-.02.02-.02.03-.02.03-.03.03-.03.02-.03.03-.03.02-.04.03-.04.02-.04.02-.04.02-.05.02-.05.02-.05.02-.05.01-.05.02-.06.01-.06.02-.05.01-.07.01-.06.01-.06v-.07l.01-.06v-.07l.01-.07v-.06h.05v.13l-.01.07v.07l-.01.07-.01.06-.01.06-.01.07-.02.06-.01.05-.02.06-.01.06-.02.05-.02.05-.02.05-.02.05-.03.05-.02.04-.02.04-.03.04-.03.03-.02.04-.03.03-.03.03-.03.02-.04.03-.03.01-.03.02-.04.01-.03.01-.04.01h-.03zm-.67-1.37h.05v.13l.01.07v.06l.01.07.01.06.01.06.01.07.01.05.02.06.01.06.02.05.02.05.02.05.02.05.02.05.02.04.02.04.03.04.02.04.03.03.02.03.03.03.03.03.02.02.03.02.03.02.03.01.03.01.03.01.03.01h.03v.05h-.04l-.03-.01-.04-.01-.03-.01-.03-.02-.04-.01-.03-.03-.03-.02-.03-.03-.03-.03-.03-.04-.02-.03-.03-.04-.02-.04-.03-.04-.02-.05-.02-.05-.02-.05-.02-.05-.02-.05-.02-.06-.01-.06-.02-.05-.01-.06-.01-.07-.01-.06-.01-.06-.01-.07v-.07l-.01-.07v-.13zM15.29 0v.05h-.03l-.03.01-.03.01-.03.01-.03.01-.03.02-.03.02-.02.02-.03.03-.03.03-.02.03-.03.03-.02.04-.03.04-.02.04-.02.04-.02.05-.02.05-.02.05-.02.05-.02.05-.01.06-.02.06-.01.06-.01.06-.01.06-.01.06-.01.07v.06l-.01.07v.14h-.05v-.14l.01-.07V1.1l.01-.07.01-.06.01-.06.01-.07.01-.06.02-.05.01-.06.02-.06.02-.05.02-.05.02-.05.02-.05.02-.05.03-.04.02-.04.03-.04.02-.03.03-.04.03-.03.03-.03.03-.02.03-.03.04-.01.03-.02.03-.01.04-.01.03-.01h.04z" class="fil1"/></g><g><path d="M14.72 2.64h1.23c.07 0 .13.07.13.14v.08c0 .08-.06.14-.13.14h-1.23c-.08 0-.14-.06-.14-.14v-.08c0-.07.06-.14.14-.14z" class="fil0"/><path id="1" d="M15.95 2.67h-1.23v-.05h1.23v.05zm.16.11h-.05v-.02h-.01v-.03h-.01v-.01l-.01-.01V2.7h-.01l-.01-.01H16v-.01h-.02l-.01-.01h-.02v-.05h.04v.01h.03v.01h.01l.01.01.01.01h.01v.01h.01v.01h.01v.01l.01.01v.01l.01.01v.01l.01.01v.04zm-.05.08v-.08h.05v.08h-.05zm-.11.17v-.06h.04v-.01h.02v-.01h.01l.01-.01v-.01h.01v-.01l.01-.01v-.02h.01v-.03h.05v.04l-.01.01v.02h-.01v.02h-.01v.01l-.01.01-.01.01-.01.01h-.01V3h-.01l-.01.01h-.01l-.01.01h-.02l-.01.01h-.02zm-1.23-.06h1.23v.06h-1.23v-.06zm-.17-.11h.06v.05h.01v.01l.01.01.01.01v.01h.01l.01.01h.01v.01h.05v.06h-.03v-.01h-.03l-.01-.01h-.01L14.63 3l-.01-.01h-.01v-.01h-.01v-.01h-.01v-.01l-.01-.01-.01-.01v-.01l-.01-.01v-.03l-.01-.01v-.02zm.06-.08v.08h-.06v-.08h.06zm.11-.16v.05h-.03l-.01.01h-.02v.01h-.01v.01h-.01v.01h-.01v.01l-.01.01-.01.01v.04h-.06v-.01l.01-.01v-.03l.01-.01V2.7h.01v-.01l.01-.01.01-.01.01-.01.01-.01h.01v-.01h.01l.01-.01h.02l.01-.01h.04z" class="fil1"/></g><g><path d="M2.44 7.18h3.92v1.2H2.44z" class="fil4"/><path id="1" d="M6.36 7.21H2.44v-.05h3.92l.03.02-.03.03zm0-.05h.03v.02l-.03-.02zm-.03 1.22v-1.2h.06v1.2l-.03.03-.03-.03zm.06 0v.03h-.03l.03-.03zm-3.95-.02h3.92v.05H2.44l-.03-.03.03-.02zm0 .05h-.03v-.03l.03.03zm.02-1.23v1.2h-.05v-1.2l.03-.02.02.02zm-.05 0v-.02h.03l-.03.02z" class="fil1"/></g></g></g></svg>