<svg xmlns="http://www.w3.org/2000/svg" width="132" height="70" fill-rule="evenodd" clip-rule="evenodd" image-rendering="optimizeQuality" shape-rendering="geometricPrecision" text-rendering="geometricPrecision" viewBox="0 0 330.4 174.26"><defs><style>.fil3{fill:#f5b2b6}.fil4{fill:#c5e3d7}.fil0{fill:#6fa691}.fil1{fill:#2b2a29;fill-rule:nonzero}</style></defs><g id="Слой_x0020_1"><g id="_1424913264"><path d="M104.96 15.53c32.63 0 59.08 26.38 59.08 58.93s-26.45 58.94-59.08 58.94c-32.62 0-59.07-26.39-59.07-58.94s26.45-58.93 59.07-58.93z" class="fil0"/><path id="1" d="M164.46 74.46h-.85l-.07-3.01-.23-2.97-.37-2.93-.52-2.88-.66-2.83-.79-2.78-.92-2.72-1.05-2.65-1.17-2.6-1.3-2.52-1.41-2.45-1.52-2.37-1.64-2.3-1.74-2.21-1.84-2.12-1.94-2.03-2.04-1.94-2.13-1.84-2.22-1.74-2.29-1.63-2.38-1.52-2.46-1.41-2.53-1.29-2.6-1.17-2.66-1.05-2.72-.92-2.79-.79-2.84-.65-2.89-.52-2.93-.37-2.98-.22-3.02-.08v-.85l3.06.08 3.02.23 2.98.37 2.93.53 2.88.66 2.83.8 2.76.93 2.7 1.07 2.64 1.19 2.56 1.31 2.49 1.42 2.42 1.55 2.33 1.65 2.25 1.76 2.16 1.87 2.06 1.97 1.98 2.06 1.86 2.15 1.77 2.24 1.66 2.33 1.55 2.41 1.43 2.49 1.31 2.56 1.19 2.63 1.07 2.69.94 2.76.8 2.82.66 2.87.53 2.92.38 2.97.22 3.02.08 3.05zm-59.5 59.36v-.84l3.02-.08 2.98-.23 2.93-.37 2.89-.51 2.84-.66 2.79-.79 2.72-.92 2.66-1.04 2.6-1.17 2.53-1.3 2.46-1.41 2.38-1.52 2.29-1.63 2.22-1.74 2.13-1.83 2.04-1.94 1.94-2.03 1.84-2.13 1.74-2.21 1.64-2.29 1.52-2.38 1.41-2.45 1.3-2.52 1.17-2.59 1.05-2.66.92-2.72.79-2.77.66-2.84.52-2.88.37-2.92.23-2.98.07-3.01h.85l-.08 3.06-.22 3.01-.38 2.97-.53 2.93-.66 2.87-.8 2.82-.94 2.75-1.07 2.7-1.19 2.63-1.31 2.56-1.43 2.48-1.55 2.41-1.66 2.33-1.77 2.24-1.86 2.15-1.98 2.07-2.06 1.96-2.16 1.87-2.25 1.76-2.33 1.66-2.42 1.54-2.49 1.43-2.56 1.31-2.64 1.19-2.7 1.06-2.76.93-2.83.81-2.88.66-2.93.52-2.98.38-3.02.23-3.06.07zM45.47 74.46h.84l.08 3.01.23 2.98.37 2.92.52 2.88.65 2.84.79 2.77.92 2.72 1.05 2.66 1.18 2.59 1.29 2.52 1.41 2.45 1.53 2.38 1.64 2.29 1.74 2.21 1.84 2.13 1.94 2.03 2.04 1.94 2.13 1.83 2.21 1.74 2.3 1.63 2.38 1.52 2.46 1.41 2.53 1.3 2.6 1.17 2.66 1.04 2.72.92 2.79.79 2.84.66 2.88.51 2.94.37 2.98.23 3.01.08v.84l-3.06-.07-3.02-.23-2.98-.38-2.93-.52-2.88-.66-2.82-.81-2.76-.93-2.71-1.06-2.63-1.19-2.57-1.31-2.49-1.43-2.41-1.54-2.34-1.66-2.24-1.76-2.16-1.87-2.07-1.96-1.97-2.07-1.86-2.15-1.77-2.24-1.66-2.33-1.55-2.41-1.43-2.48-1.31-2.56-1.2-2.63-1.07-2.7-.93-2.75-.8-2.82-.66-2.87-.53-2.93-.38-2.97-.23-3.01-.07-3.06zm59.49-59.36v.85l-3.01.08-2.98.22-2.94.37-2.88.52-2.84.65-2.79.79-2.72.92-2.66 1.05-2.6 1.17-2.53 1.29-2.46 1.41-2.38 1.52-2.3 1.63-2.21 1.74-2.13 1.84-2.04 1.94-1.94 2.03-1.84 2.12-1.74 2.21-1.64 2.3-1.53 2.37-1.41 2.45-1.29 2.52-1.18 2.6-1.05 2.65-.92 2.72-.79 2.78-.65 2.83-.52 2.88-.37 2.93-.23 2.97-.08 3.01h-.84l.07-3.05.23-3.02.38-2.97.53-2.92.66-2.87.8-2.82.93-2.76 1.07-2.69 1.2-2.63 1.31-2.56 1.43-2.49 1.55-2.41 1.66-2.33 1.77-2.24 1.86-2.15 1.97-2.06 2.07-1.97 2.16-1.87 2.24-1.76 2.34-1.65 2.41-1.55 2.49-1.42 2.57-1.31 2.63-1.19 2.71-1.07 2.76-.93 2.82-.8 2.88-.66 2.93-.53 2.98-.37 3.02-.23 3.06-.08z" class="fil1"/><path d="M105.39 124.56c24.09 0 44.22 12.89 49.25 32.61-1.15 8.53-22.53 16.31-49.25 16.5-26.72.2-49.46-9.15-49.25-16.5 5.02-19.72 25.16-32.61 49.25-32.61z" class="fil0"/><path id="1" d="M155.07 157.22l-.85-.11.01.16-.51-1.81-.59-1.76-.68-1.73-.76-1.68-.84-1.64-.92-1.59-1-1.55-1.06-1.5-1.14-1.45-1.2-1.4-1.28-1.36-1.34-1.3-1.41-1.25-1.46-1.2-1.53-1.14-1.58-1.08-1.64-1.03-1.69-.97-1.75-.91-1.79-.85-1.84-.79-1.89-.72-1.93-.67-1.98-.59-2.01-.54-2.05-.46-2.08-.4-2.12-.32-2.15-.26-2.18-.18-2.21-.11-2.23-.04v-.85l2.26.04 2.24.11 2.2.19 2.19.26 2.14.33 2.12.4 2.07.47 2.05.54 2 .61 1.96.67 1.92.73 1.87.81 1.82.86 1.78.93 1.72.98 1.67 1.05 1.61 1.11 1.55 1.16 1.5 1.21 1.43 1.28 1.37 1.33 1.3 1.38 1.23 1.43 1.17 1.48 1.08 1.54 1.02 1.58.94 1.63.86 1.67.77 1.72.7 1.77.61 1.8.52 1.85.01.16zm-.01-.16l.02.08-.01.08-.01-.16zm-49.67 17.04v-.85l2.48-.04 2.45-.08 2.41-.13 2.37-.16 2.32-.21 2.29-.24 2.24-.28 2.18-.32 2.13-.34 2.08-.39 2.01-.41 1.96-.45 1.89-.47 1.83-.5 1.75-.53 1.69-.55 1.6-.58 1.53-.6 1.45-.62 1.36-.64 1.28-.66 1.18-.68 1.1-.69.99-.7.9-.72.8-.72.69-.73.6-.74.48-.74.37-.74.27-.74.15-.74.85.11-.18.86-.31.84-.41.83-.53.82-.64.79-.74.79-.85.76-.93.75-1.04.73-1.13.71-1.22.69-1.3.68-1.39.65-1.48.63-1.55.61-1.63.59-1.7.56-1.78.53-1.84.51-1.91.48-1.97.45-2.04.42-2.09.38-2.15.35-2.2.32-2.25.28-2.3.25-2.35.2-2.38.17-2.43.12-2.46.09-2.5.04zm-49.67-17.04l.83.21.01-.09.05.61.16.64.28.65.4.68.53.68.64.7.75.7.87.7.99.69 1.08.7 1.19.69 1.28.67 1.38.67 1.46.65 1.55.63 1.64.61 1.71.59 1.8.57 1.86.54 1.94.51 1.99.49 2.06.45 2.12.41 2.17.39 2.22.33 2.28.3 2.31.26 2.36.21 2.39.16 2.43.12 2.45.06 2.49.01v.85l-2.5-.01-2.47-.06-2.45-.12-2.41-.16-2.37-.21-2.33-.27-2.29-.3-2.24-.34-2.19-.38-2.14-.42-2.08-.45-2.02-.49-1.95-.52-1.88-.55-1.81-.57-1.74-.6-1.66-.62-1.58-.64-1.48-.66-1.41-.68-1.31-.69-1.21-.71-1.12-.71-1.02-.73-.91-.73-.81-.75-.69-.74-.57-.76-.46-.76-.33-.77-.2-.77-.05-.78.01-.09zm-.01.09v-.05l.01-.04-.01.09zm49.68-33.01v.85l-2.23.04-2.21.11-2.18.18-2.15.26-2.12.32-2.08.4-2.05.46-2.01.54-1.98.59-1.93.67-1.89.72-1.84.79-1.79.85-1.75.91-1.69.97-1.64 1.03-1.58 1.08-1.53 1.14-1.46 1.2-1.41 1.25-1.34 1.3-1.28 1.36-1.2 1.4-1.14 1.45-1.07 1.5-.99 1.55-.92 1.59-.84 1.64-.76 1.68-.68 1.73-.59 1.76-.51 1.81-.83-.21.52-1.85.61-1.8.7-1.77.77-1.72.86-1.67.94-1.63 1.01-1.58 1.09-1.54 1.16-1.48 1.24-1.43 1.3-1.38 1.37-1.33 1.43-1.28 1.49-1.21 1.56-1.16 1.61-1.11 1.67-1.05 1.72-.98 1.78-.93 1.82-.86 1.87-.81 1.92-.73 1.96-.67 2-.61 2.05-.54 2.07-.47 2.12-.4 2.14-.33 2.18-.26 2.21-.19 2.24-.11 2.26-.04z" class="fil1"/><path fill="#f08bb2" d="M164.67 71.84c2.17-.1 2.87 6.02 2.87 9.22 0 34.48-28.02 62.43-62.58 62.43-34.55 0-62.16-27.95-62.16-62.43.41-3.11 1.48-8.3 2.55-8.86 12.6 6.64 33.33 10.54 59.61 10.54 26.29 0 47.11-4.26 59.71-10.9z"/><path id="1" d="M167.96 81.06h-.84l-.01-.3v-.32l-.01-.33-.02-.35-.02-.35-.02-.36-.03-.38-.03-.37-.04-.38-.05-.39-.05-.37-.05-.38-.06-.38-.07-.37-.07-.37-.08-.35-.09-.34-.09-.34-.09-.31-.11-.3-.1-.29-.12-.26-.12-.24-.12-.22-.12-.19-.13-.16-.13-.13-.12-.11-.12-.07-.12-.05-.12-.03-.13-.01-.03-.84.27.01.27.06.24.1.23.14.21.18.19.19.18.23.16.24.15.26.13.28.13.3.12.32.11.33.11.34.09.35.09.37.09.37.07.38.07.39.07.39.05.39.05.39.05.39.04.39.03.39.03.38.03.37.02.37.02.35v.35l.01.32v.32zm-63 62.85v-.84l3.2-.08 3.16-.25 3.11-.39 3.06-.54 3.01-.7 2.95-.83 2.89-.98 2.82-1.11 2.75-1.24 2.68-1.37 2.6-1.49 2.52-1.62 2.44-1.72 2.35-1.85 2.26-1.94 2.15-2.06 2.06-2.15 1.96-2.25 1.84-2.34 1.73-2.43 1.62-2.52 1.5-2.6 1.37-2.67 1.24-2.75 1.11-2.81.98-2.88.84-2.95.69-3 .55-3.05.39-3.1.24-3.15.09-3.19h.84l-.08 3.23-.24 3.19-.4 3.15-.56 3.1-.7 3.04-.85 2.98-.99 2.92-1.13 2.85-1.26 2.79-1.39 2.71-1.52 2.63-1.64 2.55-1.75 2.47-1.87 2.37-1.98 2.28-2.09 2.18-2.19 2.09-2.28 1.97-2.38 1.87-2.47 1.75-2.56 1.63-2.64 1.52-2.71 1.38-2.79 1.26-2.86 1.13-2.93.99-2.99.85-3.05.69-3.1.56-3.16.4-3.2.24-3.24.08zM42.38 81l.84.11v-.05l.08 3.19.24 3.15.39 3.1.54 3.06.68 3 .83 2.94.96 2.88 1.1 2.81 1.23 2.75 1.36 2.68 1.48 2.59 1.6 2.52 1.71 2.43 1.83 2.34 1.93 2.25 2.04 2.15 2.14 2.06 2.24 1.95 2.33 1.84 2.41 1.72 2.51 1.62 2.59 1.49 2.66 1.37 2.74 1.24 2.8 1.11 2.88.98 2.94.83 3 .7 3.05.54 3.1.39 3.16.25 3.19.08v.84l-3.24-.08-3.19-.24-3.15-.4-3.1-.56-3.03-.69-2.98-.85-2.92-.99-2.85-1.13-2.77-1.26-2.7-1.38-2.62-1.52-2.54-1.63-2.45-1.75-2.36-1.87-2.27-1.97-2.17-2.09-2.06-2.18-1.97-2.28-1.85-2.38L53 116.2l-1.62-2.55-1.5-2.63-1.37-2.71-1.25-2.79-1.11-2.85-.98-2.92-.84-2.99-.69-3.04-.55-3.09-.39-3.15-.24-3.19-.08-3.23V81zm0 .06V81v.06zm3.17-9.23l-.4.75h.4l-.04.02-.05.05-.08.09-.08.11-.08.14-.09.17-.09.18-.09.21-.09.23-.09.24-.09.27-.09.27-.09.29-.09.3-.09.31-.08.32-.08.33-.09.33-.07.34-.08.35-.07.34-.08.35-.06.35-.07.35-.07.34-.06.34-.05.34-.06.33-.05.33-.05.31-.04.31-.04.29-.84-.11.04-.3.04-.31.05-.32.05-.33.06-.34.06-.34.06-.35.06-.35.07-.35.07-.35.08-.36.07-.35.08-.36.08-.34.08-.34.09-.34.09-.33.08-.32.1-.32.09-.3.09-.29.1-.28.1-.26.1-.25.1-.23.11-.22.1-.2.11-.19.13-.16.13-.15.14-.14.17-.1h.39zm-.39 0l.2-.11.19.11h-.39zm59.8 10.48v.85l-2.45-.01-2.42-.04-2.38-.05-2.35-.08-2.32-.1-2.28-.12-2.25-.15-2.21-.16-2.18-.19-2.14-.21-2.1-.23-2.06-.25-2.03-.27-1.98-.29-1.95-.31-1.91-.33-1.87-.34-1.83-.37-1.78-.39-1.75-.41-1.71-.42-1.66-.45-1.62-.46-1.57-.48-1.54-.5-1.49-.51-1.44-.54-1.4-.55-1.35-.57-1.31-.58-1.26-.6-1.22-.62.4-.75 1.19.6 1.25.6 1.29.58 1.33.56 1.38.54 1.43.53 1.47.51 1.52.49 1.57.48 1.6.46 1.65.44 1.69.42 1.73.4 1.78.39 1.81.36 1.86.35 1.89.33 1.95.3 1.97.29 2.02.27 2.05.25 2.09.23 2.13.2 2.17.19 2.2.17 2.24.14 2.27.12 2.31.1 2.34.08 2.38.06 2.41.03 2.44.01zm59.69-10.89l.03.84.19-.04-1.22.62-1.26.6-1.31.59-1.35.57-1.4.57-1.45.54-1.5.53-1.53.5-1.58.5-1.62.47-1.67.46-1.7.44-1.75.43-1.8.4-1.83.38-1.87.37-1.91.35-1.96.33-1.99.3-2.03.29-2.07.26-2.1.25-2.15.22-2.17.2-2.22.18-2.25.15-2.28.13-2.32.11-2.36.09-2.38.06-2.43.04-2.45.01v-.85l2.45-.01 2.41-.04 2.38-.06 2.34-.08 2.31-.11 2.28-.14 2.24-.15 2.21-.18 2.16-.2 2.14-.21 2.09-.25 2.06-.26 2.02-.29 1.98-.3 1.94-.33 1.9-.34 1.87-.36 1.81-.39 1.78-.4 1.74-.42 1.7-.43 1.65-.46 1.61-.47 1.56-.49 1.52-.51 1.48-.52 1.43-.54 1.38-.55 1.34-.56 1.29-.59 1.24-.59 1.2-.61.18-.05zm-.18.05l.08-.05h.1l-.18.05z" class="fil1"/><path d="M166.84 90.45c-12.44 6.84-34.88 10.95-61.64 10.95-26.76 0-49.28-4.15-61.71-10.99-.02-.63-.87-.44-.87-2.36s.25-6.33.71-9.4c12.59 6.64 35.59 11.08 61.87 11.08 26.28 0 49.28-4.44 61.87-11.08.46 3.07.7 7.48.7 9.4s-.92 1.76-.93 2.4z" class="fil3"/><path id="1" d="M105.2 101.83v-.85l2.49-.01 2.47-.04 2.44-.06 2.4-.08 2.38-.1 2.35-.14 2.32-.15 2.28-.17 2.26-.2 2.21-.21 2.19-.24 2.14-.26 2.1-.28 2.07-.3 2.03-.32 1.98-.35 1.95-.36 1.9-.38 1.85-.4 1.81-.42 1.77-.44 1.72-.46 1.66-.47 1.62-.5 1.57-.51 1.52-.53 1.46-.55 1.41-.56 1.36-.58 1.3-.59 1.24-.61 1.18-.63.41.75-1.21.63-1.26.62-1.32.61-1.37.59-1.43.57-1.48.55-1.54.54-1.58.51-1.63.5-1.69.48-1.73.46-1.78.44-1.82.43-1.87.4-1.91.39-1.96.36-1.99.34-2.04.33-2.08.3-2.12.28-2.15.26-2.19.24-2.23.22-2.26.2-2.29.17-2.32.15-2.37.13-2.38.11-2.42.08-2.45.06-2.47.04-2.5.01zm-62.14-11.4l.85-.03-.22-.36 1.19.63 1.24.61 1.3.6 1.36.58 1.4.56 1.47.55 1.52.53 1.57.51 1.63.5 1.66.47 1.73.46 1.77.44 1.81.42 1.86.41 1.9.38 1.95.36 1.99.35 2.03.32 2.07.31 2.11.28 2.15.26 2.18.24 2.22.22 2.25.19 2.29.18 2.32.15 2.35.13 2.38.11 2.41.08 2.44.06 2.47.04 2.49.01v.85l-2.5-.01-2.47-.04-2.45-.06-2.42-.09-2.39-.1-2.36-.13-2.33-.15-2.3-.18-2.26-.2-2.23-.22-2.19-.24-2.16-.26-2.12-.28-2.08-.31-2.04-.33-2-.34-1.96-.36-1.92-.39-1.87-.41-1.83-.42-1.78-.45-1.73-.46-1.69-.48-1.63-.5-1.59-.52-1.54-.54-1.48-.55-1.43-.57-1.38-.59-1.31-.61-1.27-.61-1.21-.64-.22-.36zm.22.36l-.21-.12-.01-.24.22.36zm-1.08-2.74h.85v.16l.01.15.01.14.01.12.02.11.02.11.02.09.02.09.03.07.02.07.03.06.03.06.02.04.04.05.03.05.02.03.03.04.03.03.03.04.05.04.03.04.04.04.05.05.04.06.04.05.04.06.04.06.04.09.02.07.03.09.02.1v.09l-.85.03v-.04l-.01-.03v.01l-.01-.02-.01-.02-.02-.03-.02-.02-.02-.03-.04-.03-.03-.04-.04-.04-.05-.05-.05-.06-.04-.05-.06-.08-.04-.07-.06-.07-.04-.09-.05-.09-.04-.1-.04-.11-.04-.11-.03-.11-.03-.14-.03-.13-.02-.15-.02-.16-.01-.16-.01-.17v-.19zm1.33-9.77l-.4.75.62-.32-.04.29-.04.3-.05.3-.03.31-.04.31-.04.32-.03.32-.03.33-.04.32-.03.33-.03.33-.02.33-.03.33-.03.33-.02.33-.02.32-.03.32-.02.32-.01.31-.02.3-.02.3-.01.3-.02.29-.01.27-.01.27-.01.26-.01.24v.24l-.01.23V88.05h-.85v-.39l.01-.22v-.23l.01-.24.01-.25.01-.26.01-.27.01-.28.01-.29.02-.3.01-.3.02-.31.02-.31.02-.33.02-.32.02-.32.03-.33.02-.33.03-.34.03-.33.03-.33.03-.34.03-.33.04-.33.03-.32.04-.33.04-.31.03-.32.05-.3.04-.31.04-.29.62-.31zm-.62.31L43 78l.53.28-.62.31zM105.2 89.3v.85l-2.46-.01-2.44-.04-2.41-.06-2.39-.09-2.38-.12-2.34-.13-2.32-.16-2.28-.19-2.26-.2-2.23-.24-2.19-.24-2.16-.28-2.13-.29-2.09-.31-2.05-.34-2.02-.36-1.97-.37-1.93-.39-1.89-.41-1.85-.44-1.8-.44-1.76-.47-1.7-.48-1.66-.5-1.61-.52-1.56-.53-1.5-.55-1.45-.56-1.4-.58-1.34-.59-1.28-.61-1.22-.62.4-.75 1.19.61 1.27.6 1.32.58 1.37.57 1.43.56 1.49.54 1.54.53 1.6.51 1.64.49 1.7.48 1.74.47 1.79.44 1.83.43 1.88.41 1.93.39 1.96.37 2 .36 2.04.33 2.08.31 2.12.29 2.15.28 2.18.24 2.22.23 2.25.21 2.28.18 2.3.16 2.34.14 2.36.11 2.39.09 2.4.06 2.43.04 2.45.01zm62.29-10.71l-.84.12.62.32-1.22.62-1.29.61-1.34.59-1.39.58-1.45.56-1.5.55-1.56.53-1.61.52-1.66.5-1.7.48-1.76.47-1.8.44-1.85.44-1.89.41-1.93.39-1.98.37-2.01.36-2.05.34-2.09.31-2.13.29-2.16.28-2.2.24-2.22.24-2.26.2-2.29.19-2.31.16-2.34.13-2.37.12-2.39.09-2.42.06-2.44.04-2.46.01v-.85l2.45-.01 2.43-.04 2.41-.06 2.38-.09 2.36-.11 2.33-.14 2.31-.16 2.28-.18 2.25-.21 2.21-.23 2.19-.24 2.15-.28 2.12-.29 2.08-.31 2.04-.33 2-.36 1.97-.37 1.92-.39 1.88-.41 1.83-.43 1.79-.44 1.74-.47 1.69-.48 1.65-.49 1.59-.51 1.54-.53 1.49-.54 1.44-.56 1.37-.57 1.32-.58 1.26-.6 1.2-.61.62.31zm-.62-.31l.53-.28.09.59-.62-.31zm1.33 9.77h-.85v-.38l-.01-.21v-.23l-.01-.24-.01-.24v-.26l-.01-.27-.02-.27-.01-.29-.01-.3-.02-.3-.02-.3-.02-.31-.02-.32-.02-.32-.02-.32-.02-.33-.03-.33-.03-.33-.02-.33-.03-.33-.04-.33-.03-.32-.03-.33-.03-.32-.04-.32-.04-.31-.04-.31-.03-.3-.05-.3-.04-.29.84-.12.04.29.05.31.03.3.04.32.04.31.04.33.03.32.04.33.03.33.03.34.03.33.03.33.03.34.02.33.03.33.02.32.02.33.02.32.02.31.02.31.01.3.02.3.01.29.01.28.01.27.01.26.01.25.01.24v.45l.01.2v.19zm-1.16 2.78l-.41-.75-.22.36.01-.1.02-.09.02-.08.03-.1.04-.07.04-.07.05-.07.05-.06.04-.04.04-.05.05-.05.04-.04.03-.03.04-.05.04-.04.04-.04.03-.04.03-.04.03-.05.03-.05.03-.06.03-.06.03-.07.03-.08.02-.08.02-.1.03-.1.02-.11.01-.13.01-.13.01-.15v-.16h.85l-.01.19v.17l-.02.17-.01.15-.03.16-.03.13-.03.13-.04.13-.04.11-.04.11-.05.1-.05.1-.05.08-.05.08-.06.08-.05.06-.06.07-.04.04-.05.06-.05.05-.04.04-.03.02-.03.04-.03.03-.02.03-.01.02-.01.02v.02l-.01.01v.01l-.22.37zm.22-.37l-.01.25-.21.12.22-.37z" class="fil1"/><path d="M70.92 145.89c2.5 0 4.53 2.2 4.53 4.91s-2.03 4.91-4.53 4.91c-2.49 0-4.52-2.2-4.52-4.91s2.03-4.91 4.52-4.91z" class="fil4"/><path id="1" d="M75.87 150.8h-.85v-.23l-.02-.23-.03-.23-.03-.23-.05-.21-.05-.21-.07-.22-.07-.2-.09-.2-.09-.19-.1-.19-.1-.18-.12-.18-.12-.17-.13-.16-.14-.16-.14-.15-.15-.14-.16-.13-.16-.13-.16-.11-.17-.1-.18-.1-.18-.09-.18-.08-.2-.07-.19-.06-.2-.05-.19-.04-.21-.03-.21-.01-.21-.01v-.85l.26.01.25.02.25.04.25.04.24.06.24.08.22.08.23.1.22.11.21.11.21.13.21.14.19.15.18.16.18.17.17.18.17.18.15.2.15.2.13.21.13.21.12.23.11.23.1.23.09.24.07.25.07.25.05.26.04.26.04.26.02.28v.27zm-4.95 5.33v-.84l.21-.01.21-.02.21-.02.19-.04.2-.05.19-.06.2-.07.18-.08.18-.09.18-.1.17-.1.16-.12.16-.12.16-.14.15-.14.14-.14.14-.16.13-.16.12-.17.12-.18.1-.18.1-.19.09-.19.09-.2.07-.21.07-.21.05-.21.05-.22.03-.22.03-.23.02-.23v-.23h.85v.27l-.02.27-.04.27-.04.26-.05.25-.07.26-.07.24-.09.24-.1.24-.11.23-.12.22-.13.22-.13.21-.15.2-.15.19-.17.19-.17.18-.18.17-.18.15-.19.15-.21.15-.21.13-.21.11-.22.11-.23.09-.22.09-.24.07-.24.06-.25.05-.25.03-.25.03h-.26zm-4.94-5.33h.84l.01.23.02.23.02.23.04.22.04.22.06.21.07.21.07.21.08.19.1.2.09.19.11.18.12.18.12.17.13.16.14.16.14.14.15.14.16.14.16.12.16.12.17.1.18.1.18.09.18.08.19.07.2.06.19.05.2.04.21.02.2.02.21.01v.84h-.25l-.26-.03-.24-.03-.25-.05-.24-.06-.24-.07-.23-.09-.22-.09-.22-.11-.22-.11-.21-.13-.2-.15-.19-.15-.18-.15-.18-.17-.18-.18-.16-.19-.16-.19-.14-.2-.14-.21-.13-.22-.11-.22-.11-.23-.1-.24-.09-.24-.07-.24-.07-.26-.06-.25-.04-.26-.03-.27-.02-.27v-.27zm4.94-5.34v.85l-.21.01-.2.01-.21.03-.2.04-.19.05-.2.06-.19.07-.18.08-.18.09-.18.1-.17.1-.16.11-.16.13-.16.13-.15.14-.14.15-.14.16-.13.16-.12.17-.12.18-.11.17-.09.2-.1.19-.08.2-.07.2-.07.22-.06.21-.04.21-.04.23-.02.23-.02.23-.01.23h-.84v-.27l.02-.28.03-.26.04-.26.06-.26.07-.25.07-.25.09-.24.1-.24.11-.22.11-.22.13-.22.14-.21.14-.2.16-.2.16-.18.18-.18.18-.17.18-.16.19-.15.2-.14.21-.13.22-.11.22-.11.22-.1.23-.08.24-.08.24-.06.25-.04.24-.04.26-.02.25-.01z" class="fil1"/><path d="M85.14 151.74c2.5 0 4.52 2.2 4.52 4.91 0 2.72-2.02 4.92-4.52 4.92-2.5 0-4.53-2.2-4.53-4.92 0-2.71 2.03-4.91 4.53-4.91z" class="fil4"/><path id="1" d="M90.09 156.65h-.85l-.01-.23-.01-.23-.03-.23-.04-.22-.04-.22-.06-.21-.06-.21-.08-.2-.08-.2-.09-.2-.1-.18-.11-.19-.12-.17-.12-.18-.12-.15-.14-.16-.15-.15-.15-.14-.15-.13-.16-.12-.17-.12-.17-.11-.17-.1-.19-.09-.18-.08-.19-.06-.19-.07-.2-.04-.2-.04-.21-.03-.2-.02h-.21v-.85l.26.01.25.02.25.03.24.05.24.06.24.07.23.09.23.1.22.1.21.12.21.13.2.14.19.15.19.16.18.17.17.18.16.18.16.2.14.2.14.2.13.22.12.22.1.24.1.23.09.24.08.25.06.25.06.26.04.26.03.26.02.27.01.27zm-4.95 5.34v-.85h.21l.2-.02.21-.03.2-.04.2-.05.19-.06.19-.07.18-.07.19-.09.17-.1.17-.11.17-.11.16-.13.16-.13.14-.14.15-.15.13-.16.13-.16.12-.17.12-.17.11-.19.1-.18.09-.2.08-.2.08-.2.06-.21.06-.22.04-.21.04-.23.03-.22.01-.23.01-.24h.85l-.01.28-.02.27-.03.26-.04.26-.06.26-.06.25-.08.25-.09.24-.1.24-.1.22-.12.23-.13.22-.14.2-.14.2-.16.2-.16.19-.17.17-.18.17-.19.16-.19.15-.2.14-.21.13-.21.12-.22.11-.23.09-.23.09-.24.07-.24.06-.24.05-.25.03-.25.02-.26.01zm-4.95-5.34h.85v.24l.02.23.03.22.03.23.05.21.06.22.06.21.08.2.08.2.09.2.1.19.1.18.12.17.12.17.13.16.14.16.14.15.15.14.16.13.16.13.17.11.16.11.18.1.19.09.18.07.19.07.19.06.2.05.2.04.2.03.21.02h.21v.85l-.26-.01-.25-.02-.25-.03-.24-.05-.24-.06-.24-.07-.23-.09-.23-.09-.22-.11-.21-.12-.21-.13-.2-.14-.2-.15-.18-.16-.18-.17-.17-.17-.17-.19-.15-.2-.15-.2-.13-.2-.13-.22-.12-.23-.11-.22-.1-.24-.08-.24-.08-.25-.06-.25-.06-.26-.04-.26-.04-.26-.01-.27-.01-.28zm4.95-5.33v.85h-.21l-.21.02-.2.03-.2.04-.2.04-.19.07-.19.06-.18.08-.19.09-.17.1-.17.11-.17.12-.16.12-.15.13-.15.14-.15.15-.14.16-.13.15-.12.18-.11.17-.11.18-.1.19-.09.2-.08.2-.08.2-.06.21-.06.21-.05.22-.03.22-.03.23-.02.23v.23h-.85l.01-.27.01-.27.04-.26.04-.26.06-.26.06-.25.08-.25.08-.24.1-.24.11-.23.12-.21.13-.23.13-.2.15-.2.16-.2.16-.18.17-.18.18-.17.18-.16.2-.15.2-.14.21-.13.21-.12.22-.1.23-.1.23-.09.24-.07.24-.06.24-.05.25-.03.25-.02.26-.01z" class="fil1"/><path d="M87.51 44.99l3.9 10.2 12.7-.02-10.29 6.29 3.95 10.19-10.26-6.32-10.25 6.32 3.94-10.19-10.28-6.29 12.69.02z" class="fil4"/><path id="1" d="M91.02 55.34l-3.9-10.2.79-.3 3.9 10.2-.4.58-.39-.28zm.39.28h-.29l-.1-.28.39.28zm12.7-.02l-12.7.02v-.85l12.7-.02.22.78-.22.07zm0-.85h1.51l-1.29.78-.22-.78zM93.6 61.1l10.29-6.29.44.72-10.28 6.29-.62-.21.17-.51zm-.17.51l-.13-.33.3-.18-.17.51zm3.94 10.19l-3.94-10.19.79-.31 3.95 10.19-.62.52-.18-.21zm.8-.31l.45 1.18-1.07-.66.62-.52zm-10.43-6.52l10.25 6.32-.44.72-10.26-6.32v-.72h.45zm-.45 0l.22-.14.23.14h-.45zm-10.26 6.32l10.26-6.32.45.72-10.26 6.32-.62-.52.17-.2zm.45.72l-1.08.66.46-1.18.62.52zm4.12-10.4L77.65 71.8l-.79-.31 3.95-10.19.62-.2.17.51zm-.17-.51l.3.18-.13.33-.17-.51zm-10.29-6.29l10.29 6.29-.45.72-10.28-6.29.22-.78.22.06zm-.44.72l-1.29-.78h1.51l-.22.78zm12.91.09l-12.69-.02v-.85l12.69.02.4.57-.4.28zm.4-.28l-.1.28h-.3l.4-.28zm3.9-10.2l-3.9 10.2-.79-.3 3.9-10.2h.79v.3zm-.79-.3l.39-1.04.4 1.04h-.79z" class="fil1"/><path d="M133.25 59.47l2.77 7.25 9.02-.02-7.31 4.47 2.81 7.24-7.29-4.49-7.29 4.49 2.81-7.24-7.31-4.47 9.02.02z" class="fil4"/><path id="1" d="M135.62 66.87l-2.76-7.25.79-.3 2.77 7.25-.4.57-.4-.27zm.4.27h-.29l-.11-.27.4.27zm9.02-.02l-9.02.02v-.85l9.02-.01.23.78-.23.06zm0-.84h1.51l-1.28.78-.23-.78zm-7.53 4.53l7.31-4.47.45.72-7.31 4.47-.62-.21.17-.51zm-.17.51l-.13-.33.3-.18-.17.51zm2.8 7.24l-2.8-7.24.79-.31 2.81 7.24-.62.52-.18-.21zm.8-.31l.45 1.18-1.07-.66.62-.52zm-7.47-4.69l7.29 4.49-.44.72-7.29-4.49v-.72h.44zm-.44 0l.22-.14.22.14h-.44zm-7.29 4.49l7.29-4.49.44.72-7.28 4.49-.62-.52.17-.2zm.45.72l-1.08.66.46-1.18.62.52zm2.97-7.45l-2.8 7.24-.79-.31 2.8-7.24.62-.2.17.51zm-.17-.51l.3.18-.13.33-.17-.51zm-7.31-4.47l7.31 4.47-.45.72-7.3-4.47.22-.78.22.06zm-.44.72l-1.29-.78h1.51l-.22.78zm9.24.08l-9.02-.02v-.84l9.02.01.4.58-.4.27zm.4-.27l-.11.27h-.29l.4-.27zm2.77-7.25l-2.77 7.25-.8-.3 2.78-7.25h.79v.3zm-.79-.3l.39-1.04.4 1.04h-.79z" class="fil1"/><path d="M117.63 21.59l2.77 7.25 9.02-.01-7.3 4.46 2.8 7.24-7.29-4.49-7.29 4.49 2.81-7.24-7.31-4.46 9.02.01z" class="fil4"/><path id="1" d="M120.01 28.99l-2.78-7.24.8-.31 2.77 7.25-.4.57-.39-.27zm.39.27h-.29l-.1-.27.39.27zm9.02-.01l-9.02.01v-.84l9.02-.02.22.79-.22.06zm0-.85h1.51l-1.29.79-.22-.79zm-7.52 4.53l7.3-4.46.44.72-7.3 4.47-.62-.21.18-.52zm-.18.52l-.13-.33.31-.19-.18.52zm2.8 7.24l-2.8-7.24.79-.31 2.81 7.24-.62.51-.18-.2zm.8-.31l.45 1.18-1.07-.67.62-.51zm-7.47-4.7l7.29 4.49-.44.72-7.29-4.49v-.72h.44zm-.44 0l.22-.13.22.13h-.44zm-7.29 4.49l7.29-4.49.44.72-7.28 4.49-.62-.51.17-.21zm.45.72l-1.08.67.46-1.18.62.51zm2.97-7.44l-2.8 7.24-.79-.31 2.8-7.24.62-.21.17.52zm-.17-.52l.3.19-.13.33-.17-.52zm-7.31-4.46l7.31 4.46-.44.73-7.31-4.47.22-.79.22.07zm-.44.72l-1.29-.79h1.51l-.22.79zm9.24.07l-9.02-.01v-.85l9.02.02.4.57-.4.27zm.4-.27l-.11.27h-.29l.4-.27zm2.77-7.24l-2.77 7.24-.79-.3 2.76-7.25h.8v.31zm-.8-.31l.4-1.03.4 1.03h-.8z" class="fil1"/><path d="M26.6 24.9l4.02 10.51 13.09-.02-10.6 6.48 4.06 10.5-10.57-6.51-10.57 6.51 4.07-10.5-10.6-6.48 13.09.02zM182.52 27l3.9 10.21 12.69-.02-10.28 6.28 3.94 10.19-10.25-6.32-10.26 6.32 3.95-10.19-10.29-6.28 12.7.02zM10.56 75.31l2.49 6.49 8.08-.01-6.55 4 2.51 6.49-6.53-4.03-6.53 4.03 2.52-6.49-6.55-4 8.08.01zM63.07 0l2.41 6.3 7.84-.01-6.35 3.88 2.44 6.3-6.34-3.9-6.33 3.9 2.43-6.3-6.35-3.88 7.84.01z" class="fil4"/><g><path d="M275.78 10.09h5.79v157.35h-5.79z" class="fil0"/><path id="1" d="M281.57 10.51h-5.79v-.85h5.79l.42.43-.42.42zm0-.85h.42v.43l-.42-.43zm-.43 157.78V10.09h.85v157.35l-.42.43-.43-.43zm.85 0v.43h-.42l.42-.43zm-6.21-.42h5.79v.85h-5.79l-.42-.43.42-.42zm0 .85h-.42v-.43l.42.43zm.42-157.78v157.35h-.84V10.09l.42-.43.42.43zm-.84 0v-.43h.42l-.42.43z" class="fil1"/></g><g><path fill="#c4d985" d="M308.02 10.1v28.25c.89 15.97 11.92 28.24 21.91 37.56 1.16 5.42-19.63 8.24-42.78 8.66-1.53.03-1.18-11.05-3.86-15.15l-8.84-.01c-2.71-.01-1.19 15.15-3.87 15.06-22.59-.68-43.02-3.6-43.16-8.56 10.7-8.71 20.65-21.44 21.9-37.56V10.09c0-2.94 13.14-5.33 29.35-5.33s29.35 2.39 29.35 5.33v.01z"/><path id="1" d="M307.59 38.35V10.1h.86v28.25l-.85.02-.01-.02zm.01.02l-.01-.02v-.03l.01.05zm22.74 37.45l-.83.18.13.22-.94-.88-.95-.91-.95-.92-.95-.94-.94-.95-.94-.98-.94-.99-.93-1.01-.92-1.03-.91-1.05-.89-1.07-.87-1.09-.86-1.11-.84-1.12-.81-1.15-.79-1.17-.77-1.18-.73-1.21-.71-1.22-.67-1.25-.63-1.27-.6-1.29-.56-1.31-.52-1.33-.48-1.35-.43-1.38-.38-1.39-.34-1.42-.28-1.44-.23-1.46-.17-1.48-.11-1.5.84-.05.12 1.47.16 1.45.23 1.43.27 1.4.33 1.39.38 1.37.42 1.34.46 1.32.51 1.31.55 1.29.59 1.26.63 1.25.66 1.22.69 1.21.73 1.19.75 1.17.78 1.15.8 1.13.83 1.11.85 1.1.86 1.07.88 1.06.9 1.04.91 1.02.92 1 .93.99.94.96.94.95.94.94.94.91.94.9.94.88.12.22zm-.12-.22l.09.09.03.13-.12-.22zM287.16 85l-.02-.85 2.16-.05 2.14-.06 2.12-.07 2.1-.09 2.07-.1 2.04-.12 2-.13 1.96-.15 1.92-.16 1.87-.17 1.82-.19 1.77-.2 1.72-.22 1.64-.23 1.59-.25 1.52-.26 1.45-.27 1.37-.29 1.29-.31 1.2-.32 1.12-.33 1.03-.34.93-.36.84-.37.72-.38.62-.39.51-.39.39-.4.27-.39.17-.38.06-.39-.04-.39.83-.18.06.6-.1.59-.24.56-.36.52-.48.49-.58.45-.68.43-.79.41-.87.39-.97.38-1.06.35-1.15.34-1.23.32-1.31.31-1.39.29-1.46.28-1.53.27-1.6.25-1.66.23-1.73.22-1.77.2-1.84.19-1.88.18-1.92.16-1.97.15-2.01.13-2.04.11-2.08.11-2.1.09-2.13.07-2.15.06-2.16.05zm-3.87-15.16v-.85l.35.2.26.43.24.46.22.5.2.52.19.55.17.58.15.59.15.6.14.63.12.63.11.63.11.64.1.64.1.64.09.64.08.62.08.61.08.59.08.57.07.55.08.53.08.49.07.46.09.42.08.38.08.33.1.28.08.23.08.14.06.08.01.01-.05-.01.02.85-.33-.07-.24-.17-.18-.22-.14-.27-.12-.29-.1-.32-.1-.38-.09-.4-.08-.44-.08-.48-.08-.5-.08-.53-.07-.56-.08-.57-.08-.59-.08-.61-.08-.62-.09-.62-.1-.64-.1-.63-.1-.63-.12-.62-.12-.62-.13-.61-.14-.59-.15-.56-.17-.55-.17-.52-.19-.49-.2-.46-.21-.41-.23-.38.36.19zm0-.85h.23l.12.2-.35-.2zm-8.84 0h8.84v.85l-8.84-.01h-.01l.01-.84zm0 .84h-.01.01zm-3.88 15.07l.02-.85.09-.01.1-.06.12-.12.13-.21.14-.3.13-.36.11-.43.11-.49.09-.54.09-.57.07-.62.07-.65.07-.66.06-.69.05-.7.06-.7.05-.71.06-.71.06-.69.07-.68.07-.66.08-.63.09-.6.1-.57.11-.53.14-.48.15-.44.18-.38.21-.34.27-.27.34-.2.39-.06-.01.84-.09.02-.1.06-.13.13-.14.22-.13.3-.13.37-.12.43-.11.49-.09.54-.09.58-.08.62-.07.65-.06.67-.06.68-.06.7-.05.71-.06.71-.06.7-.05.7-.07.67-.07.66-.08.63-.09.6-.1.57-.11.52-.13.48-.16.43-.17.38-.21.33-.27.27-.34.19-.39.06zm-43.42-9.32l.54.66.15-.34.06.35.15.36.26.37.36.38.48.38.58.38.69.37.79.37.89.35.97.35 1.07.33 1.15.32 1.23.31 1.31.3 1.38.29 1.45.27 1.51.26 1.58.25 1.64.24 1.7.22 1.75.21 1.79.21 1.85.18 1.89.17 1.92.16 1.96.15 2 .14 2.02.12 2.05.11 2.07.1 2.1.08 2.1.07-.02.85-2.11-.07-2.1-.09-2.08-.1-2.06-.1-2.03-.13-2-.13-1.97-.15-1.93-.16-1.9-.17-1.84-.19-1.81-.21-1.76-.21-1.7-.22-1.66-.24-1.58-.25-1.54-.26-1.46-.28-1.4-.29-1.32-.3-1.25-.32-1.17-.33-1.09-.34-1.01-.36-.92-.36-.84-.39-.74-.4-.65-.42-.55-.44-.45-.47-.34-.5-.23-.54-.09-.56.16-.34zm-.16.34v-.21l.16-.13-.16.34zm21.91-37.57h.85v.03l-.15 1.52-.19 1.49-.24 1.48-.29 1.45-.34 1.44-.38 1.41-.42 1.4-.46 1.37-.5 1.35-.55 1.33-.57 1.3-.62 1.29-.64 1.27-.68 1.24-.71 1.22-.74 1.2-.76 1.17-.79 1.16-.82 1.13-.84 1.11-.86 1.09-.88 1.06-.91 1.04-.92 1.02-.93 1-.95.97-.96.95-.98.93-.98.9-1 .88-1 .86-1 .83-.54-.66.99-.82 1-.85.98-.87.97-.89.96-.92.95-.94.94-.96.93-.98.9-1.01.89-1.03.87-1.05.86-1.07.83-1.09.8-1.12.78-1.13.76-1.17.72-1.18.7-1.2.67-1.22.63-1.24.6-1.27.57-1.28.53-1.31.5-1.33.45-1.34.41-1.37.38-1.39.33-1.41.28-1.42.24-1.45.19-1.47.14-1.49v.04zm.85 0v.03-.04.01zm0-28.25v28.25h-.85V10.1h.85zm0-.01v.01h-.85v-.01h.85zm28.92-5.76v.85l-1.5.01-1.49.02-1.47.03-1.44.05-1.41.06-1.39.07-1.36.08-1.33.1-1.29.11-1.27.12-1.22.12-1.18.14-1.15.15-1.1.15-1.06.17-1.01.18-.97.18-.91.19-.86.2-.81.21-.76.21-.69.22-.63.22-.57.23-.51.23-.43.24-.37.23-.28.23-.22.22-.14.2-.08.17-.02.17h-.85l.05-.39.15-.36.24-.34.3-.3.36-.29.43-.27.49-.26.54-.26.61-.24.66-.23.72-.23.78-.22.83-.21.87-.21.94-.19.97-.19 1.03-.17 1.07-.18 1.12-.15 1.15-.15 1.2-.14 1.23-.13 1.27-.12 1.31-.1 1.33-.1 1.37-.09 1.4-.07 1.42-.06 1.45-.04 1.47-.04 1.5-.02 1.51-.01zm29.78 5.76h-.86l-.02-.17-.07-.17-.14-.2-.22-.22-.29-.23-.36-.23-.44-.24-.5-.23-.57-.23-.64-.22-.69-.22-.75-.21-.81-.21-.86-.2-.91-.19-.97-.18-1.01-.18-1.06-.17-1.1-.15-1.15-.15-1.19-.14-1.22-.12-1.26-.12-1.29-.11-1.34-.1-1.35-.08-1.39-.07-1.42-.06-1.44-.05-1.46-.03-1.49-.02-1.51-.01v-.85l1.52.01 1.49.02 1.48.04 1.44.04 1.43.06 1.39.07 1.37.09 1.34.1 1.31.1 1.27.12 1.23.13 1.19.14 1.16.15 1.11.15 1.08.18 1.02.17.98.19.93.19.88.21.83.21.77.22.72.23.67.23.6.24.55.26.48.26.43.27.37.29.3.3.23.34.15.36.06.39zm-.86.01v-.01h.86v.01h-.86z" class="fil1"/></g><g><path fill="#a1b567" d="M281.57 69.4c26.96.23 48.36 3.69 48.36 7.93s-21.4 7.7-48.36 7.93V69.4zm-5.79 15.86c-26.96-.23-48.36-3.69-48.36-7.93s21.4-7.7 48.36-7.93v15.86z"/><path id="1" d="M330.35 77.33h-.84l-.05-.27-.13-.29-.26-.32-.38-.33-.49-.35-.62-.35-.73-.34-.84-.35-.94-.34-1.05-.32-1.15-.33-1.23-.31-1.33-.3-1.43-.29-1.5-.29-1.59-.27-1.67-.26-1.74-.25-1.82-.23-1.89-.23-1.96-.2-2.02-.2-2.08-.18-2.14-.17-2.2-.15-2.25-.13-2.3-.12-2.35-.11-2.39-.08-2.44-.07-2.47-.05-2.51-.03.01-.85 2.51.04 2.48.04 2.45.07 2.39.09 2.36.1 2.31.12 2.25.14 2.21.15 2.15.16 2.09.18 2.03.2 1.96.21 1.9.23 1.83.23 1.76.25 1.68.26 1.6.28 1.52.28 1.43.3 1.35.31 1.26.32 1.17.33 1.08.33.97.35.88.36.78.37.68.38.57.4.47.42.35.45.23.49.08.52zm-49.21 7.93h.85l-.43-.42 2.51-.03 2.47-.05 2.44-.07 2.39-.08 2.35-.1 2.3-.13 2.25-.13 2.2-.15 2.14-.17 2.08-.18 2.02-.19 1.96-.21 1.89-.22 1.82-.24 1.74-.25 1.67-.26 1.59-.27 1.5-.29 1.43-.29 1.33-.3 1.23-.31 1.15-.32 1.05-.33.94-.34.84-.34.73-.35.62-.35.49-.35.38-.33.26-.32.13-.29.05-.27h.84l-.08.52-.23.49-.35.45-.47.42-.57.4-.68.38-.78.37-.88.36-.97.35-1.08.34-1.17.33-1.26.31-1.35.31-1.43.3-1.52.28-1.6.28-1.68.26-1.76.25-1.83.24-1.9.22-1.96.21-2.03.2-2.09.18-2.15.17-2.21.15-2.25.13-2.31.12-2.36.1-2.39.09-2.45.07-2.48.05-2.51.03-.43-.43zm.43.43h-.43v-.43l.43.43zm.42-16.29v15.86h-.85V69.4l.43-.43.42.43zm-.85 0v-.43h.43l-.43.43zM227 77.33h.84l.05.27.13.29.26.32.38.33.49.35.61.35.74.35.83.34.95.34 1.04.33 1.15.32 1.24.31 1.33.3 1.42.29 1.51.29 1.59.27 1.67.26 1.74.25 1.82.24 1.89.22 1.95.21 2.03.19 2.08.18 2.14.17 2.2.15 2.25.13 2.3.13 2.35.1 2.39.08 2.43.07 2.47.05 2.51.03v.85l-2.52-.03-2.48-.05-2.44-.07-2.4-.09-2.35-.1-2.31-.12-2.26-.13-2.2-.15-2.15-.17-2.09-.18-2.03-.2-1.97-.21-1.9-.22-1.82-.24-1.76-.25-1.68-.26-1.6-.28-1.52-.28-1.44-.3-1.35-.31-1.26-.31-1.17-.33-1.07-.34-.98-.35-.88-.36-.78-.37-.67-.38-.57-.4-.47-.42-.35-.45-.24-.49-.07-.52zm49.2-7.93h-.84l.42.42-2.51.03-2.47.05-2.43.07-2.39.08-2.35.11-2.3.12-2.25.13-2.2.15-2.14.17-2.08.18-2.03.2-1.95.2-1.89.23-1.82.23-1.74.25-1.67.26-1.59.27-1.51.29-1.42.29-1.33.3-1.24.31-1.15.33-1.04.32-.95.34-.83.35-.74.34-.61.35-.49.35-.38.33-.26.32-.13.29-.05.27H227l.07-.52.24-.49.35-.45.47-.42.57-.4.67-.38.78-.37.88-.36.98-.35 1.07-.33 1.17-.33 1.26-.32 1.35-.31 1.44-.3 1.52-.28 1.6-.28 1.68-.26 1.76-.25 1.82-.23 1.9-.23 1.97-.21 2.03-.2 2.09-.18 2.15-.16 2.2-.15 2.26-.14 2.31-.12 2.35-.1 2.4-.09 2.44-.07 2.48-.04 2.52-.04.42.43zm-.42-.43h.42v.43l-.42-.43zm-.42 16.29V69.4h.84v15.86l-.42.43-.42-.43zm.84 0v.43h-.42l.42-.43z" class="fil1"/></g><g><path d="M278.67 104.27c13.24 0 23.98 10.84 23.98 24.22 0 8.88-4.73 16.64-11.78 20.86v18.09h-24.39v-18.09c-7.05-4.22-11.78-11.98-11.78-20.86 0-13.38 10.73-24.22 23.97-24.22z" class="fil3"/><path id="1" d="M303.07 128.49h-.85l-.03-1.22-.09-1.21-.15-1.2-.21-1.17-.26-1.15-.32-1.13-.37-1.1-.42-1.08-.47-1.06-.52-1.02-.57-1-.61-.97-.66-.93-.7-.9-.74-.86-.78-.83-.82-.79-.85-.75-.89-.7-.92-.67-.96-.61-.98-.58-1.02-.52-1.04-.48-1.07-.42-1.1-.38-1.11-.32-1.14-.27-1.16-.2-1.18-.15-1.19-.1-1.22-.03v-.84l1.26.03 1.24.09 1.22.16 1.2.22 1.18.27 1.16.33 1.13.39 1.11.44 1.08.49 1.06.55 1.02.59.99.65.95.68.92.73.89.78.85.82.81.85.76.89.73.94.67.96.64 1 .59 1.03.54 1.07.49 1.09.43 1.12.39 1.14.32 1.17.28 1.2.21 1.21.16 1.23.09 1.25.03 1.27zm-11.78 20.86h-.85l.21-.36.64-.4.63-.42.62-.44.59-.45.59-.48.57-.5.55-.51.54-.52.52-.55.5-.57.49-.57.47-.6.44-.61.43-.62.41-.64.39-.65.37-.67.35-.68.33-.69.31-.7.28-.72.26-.72.24-.74.22-.75.19-.75.17-.77.14-.78.12-.78.09-.8.07-.79.04-.82.01-.81h.85l-.01.84-.05.84-.06.83-.1.82-.12.81-.15.81-.17.79-.2.78-.23.78-.24.76-.27.76-.3.73-.32.73-.34.72-.36.7-.38.69-.4.67-.43.67-.44.64-.47.64-.48.61-.5.6-.52.58-.54.57-.56.55-.57.53-.59.51-.61.49-.62.47-.64.46-.65.43-.66.42.2-.37zm-.85 0v-.24l.21-.12-.21.36zm0 18.09v-18.09h.85v18.09l-.42.43-.43-.43zm.85 0v.43h-.42l.42-.43zm-24.81-.42h24.39v.85h-24.39l-.43-.43.43-.42zm0 .85h-.43v-.43l.43.43zm.43-18.52v18.09h-.86v-18.09l.65-.36.21.36zm-.21-.36l.21.12v.24l-.21-.36zm-12.43-20.5h.85l.02.81.04.82.06.79.09.8.12.78.15.78.17.77.19.75.21.75.24.74.26.72.29.72.31.7.32.69.35.68.37.67.39.65.41.64.43.62.45.61.47.6.48.58.51.56.52.55.53.52.56.51.57.5.58.48.6.45.62.44.63.42.64.4-.44.73-.67-.42-.65-.43-.63-.46-.62-.47-.61-.49-.59-.51-.57-.53-.56-.55-.54-.57-.52-.58-.5-.6-.48-.61-.47-.63-.45-.65-.42-.66-.4-.68-.39-.69-.36-.7-.34-.72-.32-.72-.29-.74-.27-.76-.25-.76-.23-.78-.19-.78-.18-.79-.15-.81-.12-.81-.09-.82-.07-.83-.04-.84-.02-.84zm24.4-24.64v.84l-1.21.03-1.19.1-1.18.15-1.16.2-1.14.27-1.12.32-1.09.38-1.07.42-1.04.48-1.02.52-.99.58-.95.61-.92.67-.89.7-.86.75-.82.79-.78.83-.74.86-.7.9-.66.93-.61.97-.56 1-.52 1.02-.47 1.06-.43 1.08-.37 1.1-.32 1.13-.26 1.15-.21 1.17-.15 1.2-.09 1.21-.03 1.22h-.85l.04-1.27.09-1.25.15-1.23.22-1.21.27-1.2.33-1.17.38-1.14.44-1.12.49-1.09.54-1.07.58-1.03.64-1 .68-.96.72-.94.77-.89.81-.85.85-.82.88-.78.92-.73.96-.68.99-.65 1.02-.59 1.05-.55 1.09-.49 1.1-.44 1.14-.39 1.16-.33 1.18-.27 1.2-.22 1.22-.16 1.24-.09 1.25-.03z" class="fil1"/></g><g><path d="M267.6 104.85h22.14c3.52 0 6.4-2.88 6.4-6.4 0-3.51-2.88-6.39-6.4-6.39H267.6c-3.51 0-6.39 2.88-6.39 6.39 0 3.52 2.88 6.4 6.39 6.4z" class="fil0"/><path id="1" d="M289.74 105.27H267.6v-.84h22.14v.84zm5.97-6.82h.85l-.01.35-.02.35-.05.34-.06.33-.07.34-.1.32-.1.31-.12.31-.14.31-.15.29-.17.28-.18.28-.19.27-.2.26-.21.24-.23.24-.24.23-.24.21-.26.2-.27.19-.28.18-.28.17-.29.15-.31.14-.31.12-.31.1-.33.1-.33.07-.33.06-.34.05-.35.02-.35.01v-.84l.31-.01.3-.03.3-.04.29-.05.29-.06.28-.09.28-.09.27-.11.26-.12.26-.13.26-.14.23-.16.24-.17.23-.17.21-.19.21-.2.2-.21.18-.21.18-.23.17-.24.16-.23.14-.26.13-.26.12-.26.11-.27.09-.28.08-.28.07-.29.05-.29.04-.3.03-.3v-.31zm.43 0h-.43.43zm-6.4-5.97v-.84l.35.01.35.02.34.04.33.07.33.07.33.09.31.11.31.12.31.14.29.15.28.17.28.18.27.18.26.21.24.21.24.23.23.23.21.25.2.26.19.27.18.27.17.29.15.29.14.31.12.31.1.31.1.32.07.33.06.34.05.34.02.34.01.35h-.85v-.3l-.03-.31-.04-.29-.05-.29-.07-.29-.08-.29-.09-.27-.11-.27-.12-.27-.13-.26-.14-.25-.16-.23-.17-.24-.18-.23-.18-.21-.2-.21-.21-.2-.21-.19-.23-.17-.24-.18-.23-.15-.26-.14-.26-.14-.26-.12-.27-.1-.28-.09-.28-.09-.29-.07-.29-.05-.3-.03-.3-.03-.31-.01zm-22.14-.84h22.14v.84H267.6v-.84zm-5.97 6.81h-.84l.01-.35.02-.34.04-.34.07-.34.07-.33.09-.32.11-.31.12-.31.14-.31.15-.29.17-.29.18-.27.18-.27.21-.26.21-.25.23-.23.23-.23.25-.21.26-.21.27-.18.27-.18.29-.17.29-.15.31-.14.31-.12.31-.11.32-.09.33-.07.34-.07.34-.04.34-.02.35-.01v.84l-.3.01-.31.03-.29.03-.29.05-.29.07-.29.09-.27.09-.27.1-.27.12-.26.14-.25.14-.23.15-.24.18-.23.17-.21.19-.21.2-.2.21-.19.21-.17.23-.18.24-.15.23-.14.25-.14.26-.12.27-.1.27-.09.27-.09.29-.07.29-.05.29-.03.29-.03.31-.01.3zm-.42 0h.42-.42zm6.39 5.98v.84l-.35-.01-.34-.02-.34-.05-.34-.06-.33-.07-.32-.1-.31-.1-.31-.12-.31-.14-.29-.15-.29-.17-.27-.18-.27-.19-.26-.2-.25-.21-.23-.23-.23-.24-.21-.24-.21-.26-.18-.27-.18-.28-.17-.28-.15-.29-.14-.31-.12-.31-.11-.31-.09-.32-.07-.34-.07-.33-.04-.34-.02-.35-.01-.35h.84l.01.31.03.3.03.3.05.29.07.29.09.28.09.28.1.27.12.26.14.26.14.26.15.23.18.24.17.23.19.21.2.21.21.2.21.19.23.17.24.17.23.16.25.14.26.13.27.12.27.11.27.09.29.09.29.06.29.05.29.04.31.03.3.01z" class="fil1"/></g><g><path d="M256.34 173.84H301c3.52 0 6.4-2.88 6.4-6.4 0-3.52-2.88-6.39-6.4-6.39h-44.66c-3.52 0-6.4 2.87-6.4 6.39 0 3.52 2.88 6.4 6.4 6.4z" class="fil0"/><path id="1" d="M301 174.26h-44.66v-.85H301v.85zm5.98-6.82h.84l-.01.35-.02.35-.04.34-.07.33-.07.33-.1.33-.1.31-.12.31-.14.31-.15.29-.17.28-.18.28-.19.27-.2.25-.21.25-.23.24-.23.22-.25.22-.26.2-.27.19-.27.18-.29.16-.29.16-.31.13-.31.13-.31.1-.32.1-.34.07-.33.06-.34.05-.35.02-.35.01v-.85l.31-.01.3-.02.3-.04.29-.05.29-.07.28-.08.28-.09.27-.11.27-.12.26-.13.25-.14.23-.16.24-.17.23-.18.21-.18.21-.2.2-.21.19-.21.17-.23.18-.24.15-.24.14-.25.13-.26.13-.26.1-.27.09-.28.09-.28.06-.29.06-.29.03-.3.03-.3.01-.31zm.42 0h-.42.42zm-6.4-5.97v-.84h.35l.35.03.34.04.33.06.34.08.32.09.31.11.31.12.31.14.29.15.29.17.27.17.27.19.26.2.25.22.23.23.23.23.21.25.2.26.19.26.18.28.17.29.15.29.14.3.12.32.1.31.1.32.07.33.07.34.04.34.02.34.01.35h-.84l-.01-.31-.03-.3-.03-.29-.06-.3-.06-.29-.09-.28-.09-.27-.1-.27-.13-.27-.13-.26-.14-.25-.15-.24-.18-.23-.17-.23-.19-.21-.2-.21-.21-.2-.21-.19-.23-.18-.24-.17-.23-.15-.25-.14-.26-.14-.27-.12-.27-.1-.28-.1-.28-.08-.29-.07-.29-.05-.3-.04-.3-.02-.31-.01zm-44.66-.84H301v.84h-44.66v-.84zm-5.97 6.81h-.85l.01-.35.02-.34.05-.34.06-.34.07-.33.1-.32.11-.31.12-.32.14-.3.15-.29.16-.29.18-.28.19-.26.2-.26.22-.25.22-.23.24-.23.25-.22.25-.2.27-.19.28-.17.29-.17.29-.15.3-.14.31-.12.32-.11.32-.09.33-.08.33-.06.35-.04.34-.03h.35v.84l-.31.01-.3.02-.3.04-.29.05-.29.07-.28.08-.28.1-.27.1-.26.12-.26.14-.25.14-.24.15-.24.17-.22.18-.22.19-.21.2-.2.21-.18.21-.18.23-.17.23-.16.24-.14.25-.13.26-.12.27-.11.27-.09.27-.08.28-.07.29-.05.3-.04.29-.02.3-.01.31zm-.43 0h.43-.43zm6.4 5.97v.85l-.35-.01-.34-.02-.35-.05-.33-.06-.33-.07-.32-.1-.32-.1-.31-.13-.3-.13-.29-.16-.29-.16-.28-.18-.27-.19-.25-.2-.25-.22-.24-.22-.22-.24-.22-.25-.2-.25-.19-.27-.18-.28-.16-.28-.15-.29-.14-.31-.12-.31-.11-.31-.1-.33-.07-.33-.06-.33-.05-.34-.02-.35-.01-.35h.85l.01.31.02.3.04.3.05.29.07.29.08.28.09.28.11.27.12.26.13.26.14.25.16.24.17.24.18.23.18.21.2.21.21.2.22.18.22.18.24.17.24.16.25.14.26.13.26.12.27.11.28.09.28.08.29.07.29.05.3.04.3.02.31.01z" class="fil1"/></g><path d="M198.01 121.87l2.48 6.49 8.09-.01-6.55 4 2.51 6.49-6.53-4.03-6.53 4.03 2.52-6.49-6.55-4 8.08.01z" class="fil4"/></g></g></svg>