<svg xmlns="http://www.w3.org/2000/svg" width="97" height="62" fill-rule="evenodd" clip-rule="evenodd" image-rendering="optimizeQuality" shape-rendering="geometricPrecision" text-rendering="geometricPrecision" viewBox="0 0 102.86 65.73"><defs><style>.fil0{fill:#99cfba}.fil1{fill:#2b2a29;fill-rule:nonzero}</style></defs><g id="Слой_x0020_1"><g id="_1424898032"><path d="M56.36 17.28c.71.39 1.42.8 1.36 1.67l-2.68 44.99c-.05.87-.76 1.22-1.51 1.49v.01c-.75.28-1.34-.8-1.36-1.67l-1.24-47.38c-.02-.87 4.73.5 5.43.89z" class="fil0"/><path id="1" d="M56.36 17.28l.12-.22-.12.22zm1.61 1.68l-.49-.03v-.13l-.01-.06-.01-.06-.01-.05-.01-.06-.02-.05-.02-.05-.02-.05-.02-.05-.03-.04-.03-.05-.03-.04-.04-.05-.04-.04-.03-.04-.05-.04-.04-.05-.05-.03-.05-.05-.05-.03-.06-.04-.05-.04-.06-.04-.06-.04-.06-.03-.06-.04-.06-.04-.07-.03-.06-.04-.07-.03-.06-.04.23-.44.07.03.07.04.07.04.06.04.07.04.07.04.06.04.07.04.06.04.07.05.06.04.06.05.06.05.06.05.06.05.06.05.05.06.05.06.05.06.05.06.04.07.04.07.04.07.03.08.03.07.03.08.02.09.02.08.01.09.01.08v.1l-.01.09zM54.8 63.92l2.68-44.99.49.03-2.68 44.99-.49-.03zm-1.02 1.51h-.5l.17-.23.06-.03.07-.02.07-.03.06-.02.07-.03.06-.03.07-.03.06-.03.05-.03.07-.03.05-.03.06-.04.05-.03.05-.03.04-.04.05-.04.04-.03.04-.04.04-.04.04-.05.03-.04.03-.04.03-.04.03-.05.03-.05.02-.05.02-.05.01-.06.02-.06.01-.06.01-.06.01-.07.49.03v.09l-.02.09-.01.09-.02.09-.03.08-.03.08-.03.07-.04.08-.04.07-.04.06-.05.07-.05.06-.05.06-.05.05-.06.06-.06.05-.06.05-.06.04-.07.05-.06.04-.07.04-.06.04-.07.03-.07.04-.07.03-.07.04-.07.03-.07.03-.07.03-.08.02-.07.03-.07.03.16-.24zm-.5.01v-.01h.5v.01l-.16.23-.34-.23zm-1.36-1.66l.5-.02.01.07v.08l.01.08.01.07.02.07.02.08.02.08.02.07.02.08.03.07.03.06.03.07.03.07.04.06.04.06.03.06.04.05.04.05.05.04.04.05.04.03.04.03.04.03.04.02.04.02.04.01.04.01h.13l.04-.01.05-.02.17.47-.09.03-.1.02-.09.01h-.09l-.09-.01-.09-.02-.09-.02-.08-.04-.08-.04-.07-.04-.07-.06-.07-.05-.06-.06-.06-.07-.06-.07-.05-.07-.05-.08-.05-.07-.05-.08-.04-.09-.04-.08-.03-.09-.04-.09-.03-.09-.03-.09-.02-.09-.02-.09-.02-.09-.01-.1-.01-.09-.01-.09-.01-.09zm-.74-47.4l1.24 47.38-.5.02-1.24-47.39.5-.01zm5.3.68l-.23.44-.07-.03-.09-.04-.12-.05-.13-.05-.15-.05-.17-.06-.18-.06-.2-.07-.21-.06-.21-.06-.23-.07-.23-.06-.23-.06-.24-.06-.23-.06-.24-.05-.23-.05-.23-.05-.23-.04-.21-.04-.21-.03-.2-.02-.18-.02h-.44l-.1.02-.08.02-.04.01v.01l.01-.02v-.02l-.5.01.03-.16.09-.15.11-.09.14-.07.14-.03.15-.03.16-.01h.18l.19.01.2.02.2.03.22.03.23.04.23.04.24.04.24.06.24.05.24.06.24.06.24.07.24.06.22.06.23.07.21.07.2.06.19.06.17.06.16.06.15.05.12.05.11.05.09.05z" class="fil1"/><path d="M85.11 17.28c-.71.39-1.41.8-1.36 1.67l2.68 44.99c.05.87.77 1.22 1.51 1.49v.01c.75.28 1.34-.8 1.36-1.67l1.25-47.38c.02-.87-4.73.5-5.44.89z" class="fil0"/><path id="1" d="M85.11 17.28l.12.22-.12-.22zm-1.61 1.68v-.19l.01-.08.01-.09.02-.08.02-.09.02-.08.03-.07.04-.08.03-.07.04-.07.05-.07.04-.06.05-.06.05-.06.06-.06.06-.05.05-.05.06-.05.06-.05.06-.05.07-.04.06-.05.07-.04.06-.04.07-.04.07-.04.06-.04.07-.04.07-.04.07-.04.06-.03.24.44-.06.04-.07.03-.06.04-.07.03-.06.04-.06.04-.06.03-.06.04-.06.04-.05.04-.06.04-.05.03-.05.05-.05.03-.04.05-.05.04-.04.04-.03.04-.04.05-.03.04-.03.05-.03.04-.02.05-.03.05-.02.05-.01.05-.02.06-.01.05v.06l-.01.06v.13l-.5.03zm3.18 44.96l-.5.03-2.68-44.99.5-.03 2.68 44.99zm1.02 1.51l.16.24-.07-.03-.08-.03-.07-.02-.07-.03-.07-.03-.07-.03-.07-.04-.07-.03-.07-.04-.07-.03-.07-.04-.06-.04-.07-.04-.06-.05-.06-.04-.06-.05-.06-.05-.06-.06-.05-.05-.05-.06-.05-.06-.05-.07-.04-.06-.04-.07-.04-.08-.03-.07-.03-.08-.03-.08-.02-.09-.02-.09-.01-.09-.01-.09.5-.03.01.07.01.06.01.06.01.06.02.06.02.05.02.05.03.05.02.05.03.04.03.04.04.04.03.05.04.04.04.04.05.03.04.04.05.04.05.03.05.03.06.04.05.03.06.03.06.03.06.03.06.03.07.03.06.02.07.03.07.03.06.02.07.03.16.23h-.49zm.49.01l-.33.23-.16-.23v-.01h.49v.01zm1.36-1.66v.09l-.01.09-.01.09-.01.1-.02.09-.02.09-.03.09-.02.09-.03.09-.04.09-.04.09-.03.08-.05.09-.04.08-.05.07-.05.08-.05.07-.06.07-.06.07-.07.06-.06.05-.07.06-.08.04-.08.04-.08.04-.08.02-.09.02-.09.01h-.09l-.1-.01-.09-.02-.09-.03.17-.47.05.02.04.01h.13l.03-.01.04-.01.04-.02.04-.02.05-.03.04-.03.04-.03.04-.05.04-.04.04-.05.04-.05.04-.06.04-.06.03-.06.04-.07.03-.07.03-.06.02-.07.03-.08.02-.07.02-.08.02-.08.02-.07.01-.07.01-.08v-.08l.01-.07.49.02zm.75-47.4l.49.01-1.24 47.39-.49-.02 1.24-47.38zm-5.31.68l.1-.05.1-.05.13-.05.14-.05.16-.06.18-.06.19-.06.2-.06.21-.07.22-.07.23-.06.23-.06.24-.07.24-.06.25-.06.24-.05.24-.06.24-.04.23-.04.22-.04.22-.03.21-.03.2-.02.19-.01h.18l.16.01.15.03.14.03.13.07.12.09.09.15.02.16-.49-.01v.02l.01.02-.01-.01-.04-.01-.07-.02-.1-.02H89.65l-.19.02-.19.02-.21.03-.22.04-.22.04-.23.05-.23.05-.24.05-.24.06-.23.06-.24.06-.23.06-.22.07-.22.06-.2.06-.2.07-.18.06-.17.06-.15.05-.14.05-.11.05-.09.04-.07.03-.24-.44z" class="fil1"/><g><path fill="#a1b567" d="M70.26 6.38c17.87 0 32.35 4.46 32.35 9.97 0 5.5-14.48 9.96-32.35 9.96-17.86 0-32.35-4.46-32.35-9.96 0-5.51 14.49-9.97 32.35-9.97z"/><path id="1" d="M102.86 16.35h-.5l-.03-.48-.12-.47-.19-.46-.27-.46-.35-.46-.42-.46-.49-.45-.57-.44-.63-.43-.7-.43-.77-.41-.83-.4-.9-.39-.95-.37-1.01-.36-1.07-.34-1.11-.33-1.17-.31-1.22-.29-1.26-.28-1.31-.26-1.35-.24-1.39-.22-1.43-.2-1.46-.17-1.5-.16-1.53-.14-1.56-.11-1.59-.08-1.62-.07-1.64-.04-1.66-.01v-.5l1.67.02 1.65.03 1.62.07 1.6.09 1.57.11 1.54.13 1.5.16 1.48.18 1.43.2 1.4.22 1.36.24 1.32.26 1.28.28 1.22.3 1.18.31 1.13.33 1.08.35 1.02.36.97.38.91.4.85.41.79.42.73.44.66.45.59.46.52.48.46.49.37.5.3.52.22.53.14.54.04.56zm-32.6 10.21v-.5l1.66-.01 1.64-.04 1.62-.07 1.59-.08 1.56-.12 1.53-.13 1.5-.16 1.46-.17 1.43-.2 1.39-.22 1.35-.24 1.31-.26 1.26-.28 1.22-.29 1.17-.31 1.11-.33 1.07-.34 1.01-.36.95-.38.9-.38.83-.4.77-.41.7-.43.63-.43.57-.44.49-.45.42-.45.35-.47.27-.46.19-.46.12-.47.03-.47h.5l-.04.55-.14.54-.22.53-.3.52-.37.5-.46.49-.52.48-.59.46-.66.45-.73.44-.79.42-.85.41-.91.4-.97.37-1.02.37-1.08.35-1.13.33-1.18.31-1.22.3-1.28.28-1.32.26-1.36.24-1.4.22-1.43.2-1.48.18-1.5.16-1.54.13-1.57.11-1.6.09-1.62.07-1.65.03-1.67.02zm-32.6-10.21h.5l.04.47.12.47.19.46.27.46.34.47.42.45.5.45.56.44.64.43.7.43.77.41.83.4.89.38.96.38 1.01.36 1.06.34 1.12.33 1.17.31 1.21.29 1.27.28 1.3.26 1.35.24 1.39.22 1.43.2 1.47.17 1.5.16 1.53.13 1.56.12 1.59.08 1.61.07 1.64.04 1.66.01v.5l-1.66-.02-1.65-.03-1.62-.07-1.6-.09-1.57-.11-1.54-.13-1.51-.16-1.47-.18-1.44-.2-1.4-.22-1.36-.24-1.32-.26-1.27-.28-1.23-.3-1.18-.31-1.13-.33-1.07-.35-1.03-.37-.97-.37-.91-.4-.85-.41-.79-.42-.72-.44-.66-.45-.6-.46-.52-.48-.45-.49-.38-.5-.3-.52-.22-.53-.13-.54-.05-.55zm32.6-10.22v.5l-1.66.01-1.64.04-1.61.07-1.59.08-1.56.11-1.53.14-1.5.16-1.47.17-1.43.2-1.39.22-1.35.24-1.3.26-1.27.28-1.21.29-1.17.31-1.12.33-1.06.34-1.01.36-.96.37-.89.39-.83.4-.77.41-.7.43-.64.43-.56.44-.5.45-.42.46-.34.46-.27.46-.19.46-.12.47-.04.48h-.5l.05-.56.13-.54.22-.53.3-.52.38-.5.45-.49.52-.48.6-.46.66-.45.72-.44.79-.42.85-.41.91-.4.97-.38 1.03-.36 1.07-.35 1.13-.33 1.18-.31 1.23-.3 1.27-.28 1.32-.26 1.36-.24 1.4-.22 1.44-.2 1.47-.18 1.51-.16 1.54-.13 1.57-.11 1.6-.09 1.62-.07 1.65-.03 1.66-.02z" class="fil1"/></g><g><path fill="#c4d985" d="M70.26 3.61c17.87 0 32.35 4.46 32.35 9.96 0 5.5-14.48 9.96-32.35 9.96-17.86 0-32.35-4.46-32.35-9.96 0-5.5 14.49-9.96 32.35-9.96z"/><path id="1" d="M102.86 13.57h-.5l-.03-.47-.12-.47-.19-.46-.27-.47-.35-.46-.42-.45-.49-.45-.57-.44-.63-.44-.7-.42-.77-.41-.83-.4-.9-.39-.95-.37-1.01-.36-1.07-.34-1.11-.33-1.17-.31-1.22-.3-1.26-.27-1.31-.26-1.35-.24-1.39-.22-1.43-.2-1.46-.18-1.5-.15-1.53-.14-1.56-.11-1.59-.09-1.62-.06-1.64-.04-1.66-.01v-.5l1.67.01 1.65.04 1.62.07 1.6.08 1.57.12 1.54.13 1.5.16 1.48.18 1.43.2 1.4.22 1.36.24 1.32.26 1.28.28 1.22.29 1.18.32 1.13.33 1.08.35 1.02.36.97.38.91.4.85.41.79.42.73.43.66.45.59.47.52.47.46.49.37.51.3.51.22.54.14.54.04.55zm-32.6 10.21v-.49l1.66-.02 1.64-.04 1.62-.06 1.59-.09 1.56-.11 1.53-.13 1.5-.16 1.46-.18 1.43-.19 1.39-.22 1.35-.24 1.31-.26 1.26-.28 1.22-.29 1.17-.31 1.11-.33 1.07-.34 1.01-.36.95-.38.9-.39.83-.39.77-.42.7-.42.63-.43.57-.44.49-.45.42-.46.35-.46.27-.46.19-.47.12-.47.03-.47h.5l-.04.55-.14.55-.22.53-.3.52-.37.5-.46.49-.52.48-.59.46-.66.45-.73.44-.79.42-.85.41-.91.39-.97.38-1.02.37-1.08.34-1.13.34-1.18.31-1.22.3-1.28.28-1.32.26-1.36.24-1.4.22-1.43.2-1.48.18-1.5.15-1.54.14-1.57.11-1.6.09-1.62.06-1.65.04-1.67.01zm-32.6-10.21h.5l.04.47.12.47.19.47.27.46.34.46.42.46.5.45.56.44.64.43.7.42.77.42.83.39.89.39.96.38 1.01.36 1.06.34 1.12.33 1.17.31 1.21.29 1.27.28 1.3.26 1.35.24 1.39.22 1.43.19 1.47.18 1.5.16 1.53.13 1.56.11 1.59.09 1.61.06 1.64.04 1.66.02v.49l-1.66-.01-1.65-.04-1.62-.06-1.6-.09-1.57-.11-1.54-.14-1.51-.15-1.47-.18-1.44-.2-1.4-.22-1.36-.24-1.32-.26-1.27-.28-1.23-.3-1.18-.31-1.13-.34-1.07-.34-1.03-.37-.97-.38-.91-.39-.85-.41-.79-.42-.72-.44-.66-.45-.6-.46-.52-.48-.45-.49-.38-.5-.3-.52-.22-.53-.13-.55-.05-.55zm32.6-10.21v.5l-1.66.01-1.64.04-1.61.06-1.59.09-1.56.11-1.53.14-1.5.15-1.47.18-1.43.2-1.39.22-1.35.24-1.3.26-1.27.27-1.21.3-1.17.31-1.12.33-1.06.34-1.01.36-.96.37-.89.39-.83.4-.77.41-.7.42-.64.44-.56.44-.5.45-.42.45-.34.46-.27.47-.19.46-.12.47-.04.47h-.5l.05-.55.13-.54.22-.54.3-.51.38-.51.45-.49.52-.47.6-.47.66-.45.72-.43.79-.42.85-.41.91-.4.97-.38 1.03-.36 1.07-.35 1.13-.33 1.18-.32 1.23-.29 1.27-.28 1.32-.26 1.36-.24 1.4-.22 1.44-.2 1.47-.18 1.51-.16 1.54-.13 1.57-.12 1.6-.08 1.62-.07 1.65-.04 1.66-.01z" class="fil1"/></g><g><path d="M4.78 37.72L.25 3.58C.04 1.94 1.25.44 2.89.25c1.65-.19 3.12 1 3.34 2.64l4.53 34.14c.22 1.64-1 3.15-2.64 3.34-1.65.19-3.12-1.01-3.34-2.65z" class="fil0"/><path id="1" d="M.48 3.55l4.53 34.14-.45.06L.03 3.61l.45-.06zM2.87.02l.05.46-.14.02-.14.02-.13.04-.14.04-.13.04-.13.06-.12.05-.12.07-.12.07-.11.07-.11.08-.1.09-.1.09-.1.09-.09.1-.08.1-.09.11-.07.11-.07.12-.07.11-.06.12-.05.13-.05.12-.04.13-.03.13-.03.13-.02.14-.01.13-.01.14v.14l.01.14.01.14-.45.06-.02-.16L0 3.28v-.16l.01-.16.01-.16.03-.16.03-.15.04-.16.05-.15.06-.15.06-.14.07-.14.07-.14.08-.13.09-.13.1-.12.1-.12.1-.12.11-.1.12-.11.12-.1.13-.09.13-.09.14-.08.14-.07.14-.07.15-.06.15-.06.15-.05.16-.03.16-.04.17-.02zm.02.23L2.87.02l.02.23zm3.56 2.61L6 2.92l-.02-.14-.03-.14-.04-.13-.04-.14-.04-.13-.06-.12-.06-.13-.06-.12-.07-.11-.08-.11-.08-.11-.08-.11-.09-.09-.1-.1-.1-.09-.1-.09-.1-.08-.11-.07-.12-.07-.11-.07-.12-.06-.12-.05-.13-.05-.13-.04-.13-.03-.13-.03-.13-.03-.14-.01-.14-.01h-.28l-.14.02-.05-.46.16-.01L3.2 0h.16l.16.01.16.02.16.03.15.03.15.04.15.05.15.05.14.07.14.07.14.07.13.08.12.09.13.09.12.1.11.11.11.11.11.11.09.13.1.12.08.13.09.14.07.13.07.15.06.14.06.16.05.15.04.16.03.16.02.16zm4.08 34.2L6 2.92l.45-.06L10.98 37l-.45.06zm-2.39 3.53l-.05-.45.14-.02.14-.03.13-.03.14-.04.13-.05.13-.05.12-.06.12-.06.12-.07.11-.08.11-.08.1-.08.1-.09.1-.1.09-.1.08-.1.09-.11.07-.11.07-.11.07-.12.06-.12.05-.12.05-.13.04-.12.03-.14.03-.13.02-.13.01-.14.01-.14v-.13l-.01-.14-.01-.15.45-.06.02.17.01.16v.17l-.01.16-.01.16-.03.16-.03.15-.04.15-.05.15-.06.15-.06.14-.07.15-.07.13-.08.13-.09.13-.1.13-.1.12-.1.11-.11.11-.12.1-.12.1-.13.1-.13.09-.14.08-.14.07-.14.07-.15.06-.15.05-.15.05-.16.04-.16.03-.17.02zm-.02-.22l.02.22-.02-.22zm-3.56-2.62l.45-.06.02.15.03.13.04.14.04.13.05.13.05.13.06.12.06.12.07.12.08.11.08.11.08.1.09.1.1.1.1.09.1.08.1.08.11.08.12.07.11.06.12.06.13.05.12.05.13.04.13.04.13.03.13.02.14.02h.14l.14.01.14-.01.14-.01.05.45-.16.02-.17.01-.16-.01-.16-.01-.16-.02-.16-.02-.15-.03-.15-.05-.15-.04-.15-.06-.14-.06-.14-.07-.14-.08-.13-.08L5.9 40l-.13-.09-.12-.1-.11-.1-.11-.11-.1-.12-.1-.12-.1-.13-.08-.13-.08-.13-.08-.14-.07-.14-.06-.15-.06-.15-.04-.15-.05-.16-.03-.16-.02-.17z" class="fil1"/><path d="M9.38 35.17c.83 0 1.5.67 1.5 1.5v27.17c0 .82-.67 1.5-1.5 1.5-.82 0-1.5-.68-1.5-1.5V36.67c0-.83.68-1.5 1.5-1.5z" class="fil0"/><path id="1" d="M9.38 35.17v-.23.23zm1.73 1.5h-.46v-.13l-.01-.07-.01-.06-.02-.06-.02-.06-.02-.06-.02-.06-.02-.05-.03-.06-.03-.05-.03-.05-.04-.05-.04-.05-.04-.05-.04-.04-.05-.04-.04-.04-.05-.04-.05-.04-.05-.03-.06-.03-.05-.03-.06-.02-.05-.03-.06-.02-.06-.01-.06-.02-.07-.01-.06-.01h-.13v-.46h.09l.09.01.09.01.08.01.08.02.08.02.09.03.07.03.08.04.08.04.07.04.07.04.07.05.06.05.06.06.06.05.06.06.06.07.05.06.04.07.05.07.04.07.04.08.03.07.04.08.02.08.03.09.01.08.02.08.01.09.01.09v.09zm-.46 27.17V36.67h.46v27.17h-.46zm-1.27 1.73v-.46h.07l.06-.01.06-.01.07-.01.06-.01.06-.02.06-.02.05-.02.06-.03.05-.02.06-.04.05-.03.05-.03.05-.04.04-.04.05-.04.04-.05.04-.04.04-.05.04-.05.03-.05.03-.06.03-.05.02-.06.02-.06.02-.05.02-.06.02-.07.01-.06.01-.06v-.13h.46v.09l-.01.09-.01.08-.02.09-.01.08-.03.08-.02.08-.04.08-.03.08-.04.07-.04.07-.05.08-.04.06-.05.07-.06.06-.06.06-.06.06-.06.05-.06.05-.07.05-.07.05-.07.04-.08.04-.08.03-.07.03-.09.03-.08.02-.08.02-.08.02-.09.01-.09.01h-.09zm0-.23v.23-.23zm-1.73-1.5h.46v.07l.01.06.01.06.01.06.01.07.02.06.02.05.02.06.03.06.02.05.04.06.03.05.03.05.04.04.04.05.05.05.04.04.04.04.05.04.05.03.05.04.06.03.05.02.06.03.06.02.06.02.05.02.07.01.06.01.06.01.07.01h.06v.46h-.09l-.08-.01-.09-.01-.08-.02-.09-.02-.08-.02-.08-.03-.08-.03-.08-.03-.07-.04-.07-.04-.07-.05-.07-.05-.07-.05-.06-.05-.06-.06L8.1 65l-.05-.06-.05-.07-.05-.06-.05-.08-.04-.07-.04-.07-.03-.08-.03-.08-.03-.08-.02-.08-.02-.08-.02-.09-.01-.08v-.09l-.01-.09zm.46-27.17v27.17h-.46V36.67h.46zm1.27-1.73v.46h-.13l-.06.01-.06.01-.07.02-.05.01-.06.02-.06.03-.06.02-.05.03-.06.03-.05.03-.05.04-.05.04-.04.04-.04.04-.05.04-.04.05-.04.05-.03.05-.03.05-.04.05-.02.06-.03.05-.02.06-.02.06-.02.06-.01.06-.01.06-.01.07-.01.06v.07h-.46l.01-.09v-.09l.01-.09.02-.08.02-.08.02-.09.03-.08.03-.08.03-.07.04-.08.04-.07.05-.07.05-.07.05-.06.05-.07.06-.05.06-.06.06-.06.07-.05.07-.05.07-.04.07-.04.07-.04.08-.04.08-.03.08-.03.08-.02.09-.02.08-.01.09-.01.08-.01h.09z" class="fil1"/><g><path d="M36.8 35.17c.83 0 1.5.67 1.5 1.5v27.17c0 .82-.67 1.5-1.5 1.5-.82 0-1.5-.68-1.5-1.5V36.67c0-.83.68-1.5 1.5-1.5z" class="fil0"/><path id="1" d="M36.8 35.17v-.23.23zm1.73 1.5h-.46v-.13l-.01-.07-.01-.06-.02-.06-.02-.06-.02-.06-.02-.06-.02-.05-.03-.06-.03-.05-.03-.05-.04-.05-.04-.05-.04-.05-.04-.04-.05-.04-.04-.04-.05-.04-.05-.04-.05-.03-.06-.03-.05-.03-.06-.02-.05-.03-.06-.02-.06-.01-.06-.02-.07-.01-.06-.01h-.13v-.46h.09l.09.01.09.01.08.01.08.02.08.02.09.03.07.03.08.04.08.04.07.04.07.04.07.05.06.05.06.06.06.05.06.06.06.07.05.06.04.07.05.07.04.07.04.08.03.07.04.08.02.08.03.09.01.08.02.08.01.09.01.09v.09zm-.46 27.17V36.67h.46v27.17h-.46zm-1.27 1.73v-.46h.07l.06-.01.06-.01.07-.01.06-.01.06-.02.06-.02.05-.02.06-.03.05-.02.06-.04.05-.03.05-.03.05-.04.04-.04.05-.04.04-.05.04-.04.04-.05.04-.05.03-.05.03-.06.03-.05.02-.06.02-.06.02-.05.02-.06.02-.07.01-.06.01-.06v-.13h.46v.09l-.01.09-.01.08-.02.09-.01.08-.03.08-.02.08-.04.08-.03.08-.04.07-.04.07-.05.08-.04.06-.05.07-.06.06-.06.06-.06.06-.06.05-.06.05-.07.05-.07.05-.07.04-.08.04-.08.03-.07.03-.09.03-.08.02-.08.02-.08.02-.09.01-.09.01h-.09zm0-.23v.23-.23zm-1.73-1.5h.46v.07l.01.06.01.06.01.06.01.07.02.06.02.05.02.06.03.06.03.05.03.06.03.05.03.05.04.05.04.04.04.05.05.04.05.04.04.04.05.03.05.03.06.04.05.02.06.03.06.02.05.02.06.02.07.01.06.01.06.01.07.01h.06v.46h-.09l-.08-.01-.09-.01-.09-.02-.08-.02-.08-.02-.08-.03-.08-.03-.08-.03-.07-.04-.07-.04-.07-.05-.07-.05-.07-.05-.06-.05-.06-.06-.06-.06-.05-.06-.05-.07-.05-.06-.05-.08-.04-.07-.04-.07-.03-.08-.03-.08-.03-.08-.02-.08-.02-.08-.02-.09-.01-.08v-.09l-.01-.09zm.46-27.17v27.17h-.46V36.67h.46zm1.27-1.73v.46h-.13l-.06.01-.06.01-.07.02-.06.01-.05.02-.06.03-.06.02-.05.03-.06.03-.05.03-.05.04-.04.04-.05.04-.05.04-.04.04-.04.05-.04.05-.03.05-.03.05-.03.05-.03.06-.03.05-.02.06-.02.06-.02.06-.01.06-.01.06-.01.07-.01.06v.07h-.46l.01-.09v-.09l.01-.09.02-.08.02-.08.02-.09.03-.08.03-.08.03-.07.04-.08.04-.07.05-.07.05-.07.05-.06.05-.07.06-.06.06-.05.06-.06.07-.05.07-.05.07-.04.07-.04.07-.04.08-.04.08-.03.08-.03.08-.02.08-.02.09-.01.09-.01.08-.01h.09z" class="fil1"/></g><g><path fill="#f08bb2" d="M7.98 32.45h29.29c1.66 0 3.01 1.81 3.01 4.03 0 2.21-1.35 4.03-3.01 4.03H7.98c-1.65 0-3.01-1.82-3.01-4.03 0-2.22 1.36-4.03 3.01-4.03z"/><path id="1" d="M37.27 32.68H7.98v-.46h29.29v.46zm3.24 3.8h-.46v-.2l-.02-.19-.01-.2-.03-.19-.03-.18-.04-.18-.05-.18-.05-.18-.05-.17-.07-.16-.07-.16-.07-.16-.08-.14-.08-.15-.09-.14-.1-.13-.1-.12-.1-.12-.1-.11-.11-.11-.12-.09-.11-.1-.12-.08-.12-.07-.13-.07-.12-.05-.13-.05-.13-.04-.14-.04-.13-.02-.14-.01-.14-.01v-.46h.17l.17.02.17.03.16.04.16.05.15.06.16.07.14.08.15.08.14.1.13.11.14.11.12.12.12.13.12.13.11.14.11.15.1.16.09.16.09.17.08.17.08.18.07.18.06.18.06.2.05.19.04.2.04.21.02.2.02.21.02.21v.22zm-.23 0h.23-.23zm-3.01 4.26v-.46l.14-.01.14-.01.13-.02.14-.04.13-.04.13-.05.12-.06.13-.06.12-.08.12-.08.11-.09.12-.09.11-.11.1-.11.1-.12.1-.12.1-.14.09-.13.08-.15.08-.15.07-.15.07-.16.07-.17.05-.17.05-.17.05-.18.04-.18.03-.19.03-.19.01-.19.02-.19v-.2h.46v.21l-.02.22-.02.21-.02.2-.04.21-.04.2-.05.19-.06.19-.06.19-.07.18-.08.18-.08.17-.09.17-.09.16-.1.16-.11.14-.11.15-.12.13-.12.13-.12.12-.14.11-.13.11-.14.09-.15.09-.14.08-.16.07-.15.06-.16.05-.16.04-.17.03-.17.01-.17.01zm-29.29-.46h29.29v.46H7.98v-.46zm-3.24-3.8h.46l.01.2.01.19.02.19.02.19.03.19.04.18.05.18.05.17.06.17.06.17.07.16.07.15.08.15.09.15.09.13.09.14.1.12.1.12.11.11.11.11.11.09.12.09.11.08.13.08.12.06.13.06.13.05.13.04.13.04.13.02.14.01.14.01v.46l-.17-.01-.17-.01-.16-.03-.16-.04-.16-.05-.16-.06-.15-.07-.15-.08-.15-.09-.14-.09-.13-.11-.13-.11-.13-.12-.12-.13-.12-.13-.11-.15-.1-.14-.1-.16-.1-.16-.09-.17-.08-.17-.08-.18-.07-.18-.06-.19-.06-.19-.05-.19-.04-.2-.03-.21-.03-.2-.02-.21-.01-.22-.01-.21zm.23 0h-.23.23zm3.01-4.26v.46l-.14.01-.14.01-.13.02-.13.04-.13.04-.13.05-.13.05-.12.07-.13.07-.11.08-.12.1-.11.09-.11.11-.11.11-.1.12-.1.12-.09.13-.09.14-.09.15-.08.14-.07.16-.07.16-.06.16-.06.17-.05.18-.05.18-.04.18-.03.18-.02.19-.02.2-.01.19-.01.2h-.46l.01-.22.01-.21.02-.21.03-.2.03-.21.04-.2.05-.19.06-.2.06-.18.07-.18.08-.18.08-.17.09-.17.1-.16.1-.16.1-.15.11-.14.12-.13.12-.13.13-.12.13-.11.13-.11.14-.1.15-.08.15-.08.15-.07.16-.06.16-.05.16-.04.16-.03.17-.02h.17z" class="fil1"/></g></g></g></g></svg>