<svg xmlns="http://www.w3.org/2000/svg" width="100" height="55" fill-rule="evenodd" clip-rule="evenodd" image-rendering="optimizeQuality" shape-rendering="geometricPrecision" text-rendering="geometricPrecision" viewBox="0 0 14.3 7.9"><defs><style>.fil0{fill:#c5e3d7}.fil1{fill:#2b2a29;fill-rule:nonzero}</style></defs><g id="Слой_x0020_1"><g id="_839253472"><path d="M13.9.96c-1.03.1-2.86-.24-3.19.18.13.38-.27 1.23-.29 2.5-.02.96.27 2.28.5 2.74.4.27 2 0 3.1 0 .3-.1.41-3.64-.12-5.42z" class="fil0"/><path id="1" d="M10.73 1.13l-.04.02v-.03l.04-.04.05-.03.05-.03.06-.03.07-.02.08-.02.08-.01.08-.01.09-.01.1-.01h.1l.1-.01h.22l.12.01H12.16l.12.01h.13l.12.01h.12l.12.01.12.01h.25l.11.01H13.59l.11-.01h.1l.1-.01v.05h-.1l-.1.01H13.01l-.12-.01h-.12l-.12-.01-.12-.01h-.13l-.12-.01h-.12l-.12-.01H11.49l-.1.01h-.09l-.09.01-.09.01-.07.02-.08.02-.06.02-.06.02-.05.03-.04.03-.03.03v-.02zm-.04.02v-.03.03zm-.25 2.49h-.04V3.41l.01-.12.01-.11.01-.11.01-.1.02-.11.01-.1.02-.09.01-.1.02-.09.01-.09.02-.09.02-.09.01-.08.02-.08.02-.08.01-.07.02-.07.01-.07.01-.07.01-.06.01-.06.01-.06.01-.06V1.22l-.01-.04-.01-.03.04-.02.01.04.01.04.01.05v.14l-.01.06v.05l-.01.06-.01.06-.01.07-.01.07-.02.06-.01.08-.02.07-.01.08-.02.08-.02.08-.01.09-.02.08-.02.09-.01.1-.02.09-.01.1-.02.1-.01.1-.01.11-.01.11-.01.11-.01.11-.01.11v.12zm.5 2.72l-.03.04-.01-.01-.02-.04-.02-.05-.02-.06-.03-.06-.02-.06-.02-.07-.03-.07-.02-.08-.02-.08-.02-.08-.02-.08-.03-.09-.02-.09-.02-.09-.02-.09-.02-.1-.01-.09-.02-.1-.02-.1-.01-.1-.02-.1-.01-.1-.02-.1-.01-.1-.01-.1-.01-.1v-.1l-.01-.09v-.2l-.01-.09.01-.09h.04v.28l.01.09v.1l.01.1.01.1.01.1.01.1.01.1.02.1.01.09.02.1.01.1.02.1.02.09.02.1.02.09.02.09.02.09.02.09.02.08.02.08.02.08.03.07.02.07.02.07.02.06.03.06.02.06.02.05.02.04v-.01zm-.03.04h-.01v-.01l.01.01zm3.1-.04l.02.04-.01.01h-.32l-.11.01h-.11l-.12.01-.12.01h-.11l-.12.01-.12.01-.11.01-.12.01h-.11l-.12.01-.11.01-.11.01h-.11l-.11.01h-.2l-.1.01h-.1l-.09-.01h-.08l-.09-.01h-.07l-.07-.01-.07-.02-.06-.01-.06-.02-.05-.02-.04-.03.03-.04.03.03.05.02.05.01.06.02.06.01.07.01.08.01h.08l.08.01h.39l.1-.01h.11l.1-.01.12-.01h.11l.11-.01.12-.01.11-.01.12-.01h.12l.12-.01.11-.01.12-.01h.11l.12-.01h.11l.11-.01H14.02h-.01zm.02.04v.01h-.01l.01-.01zM13.9.99V.94l.02.02.05.17.04.18.05.19.03.2.04.2.03.21.02.22.03.21.02.22.02.23.01.22.01.22.01.22.01.22v.22l.01.21-.01.21v.39l-.01.19-.01.18-.01.17-.02.16-.01.14-.02.14-.02.12-.02.11-.02.09-.03.07-.02.06-.03.05-.04.02-.02-.04.02-.01.03-.04.02-.05.02-.07.02-.09.03-.11.01-.12.02-.13.02-.15.01-.15.01-.17.01-.18.01-.19.01-.19v-.62l-.01-.22v-.22l-.01-.22-.01-.22-.02-.22-.02-.22-.02-.22-.02-.22-.03-.21-.03-.21-.03-.2-.04-.2-.04-.19-.04-.18-.05-.17.02.02zm0-.05h.02v.02L13.9.94z" class="fil1"/><path d="M9.42.12C8.3.25.7-.28.34.3.49.83.05 2.04.02 3.83 0 5.17.32 7.04.57 7.69c.43.38 7.78.06 8.98.06.33-.15.45-5.12-.13-7.63z" class="fil0"/><path id="1" d="M.36.3L.32.31V.29L.39.23.48.18.62.14.79.11l.2-.03.23-.02.25-.02.28-.02.31-.01h.32L2.72 0h.73l.37.01h.39l.39.01.39.01.39.01.39.01.38.01.38.01.36.01.35.01.34.01.32.01h.3l.27.01h.48l.19-.01h.16L9.42.1v.04L9.3.15l-.16.01H8.2L7.9.15 7.58.14h-.34L6.89.13 6.53.12 6.15.1 5.77.09 5.38.08 4.99.07 4.6.06h-.39L3.82.05H2.38l-.32.01-.3.01-.28.01-.26.02-.23.03-.2.02-.16.04L.5.23.41.27.36.31V.3zM.32.31V.29v.02zM.04 3.83H0v-.17l.01-.16.01-.16.01-.16.01-.15.01-.15.02-.15.01-.14.02-.14.02-.13.01-.13.02-.13.02-.12.02-.12.02-.12.02-.11.01-.11.02-.11.02-.1.01-.1.01-.09.02-.09L.33.9.34.82V.74L.35.67v-.2L.34.41.33.36.32.31.36.3l.01.05.01.06.01.06v.2L.38.75v.08L.37.91.36 1l-.02.09-.01.09-.01.1-.02.1-.02.11-.01.11-.02.11-.02.12-.02.11-.02.13-.01.13-.02.13-.02.13-.02.14-.01.14-.02.14-.01.15-.01.15-.01.16-.01.16v.16l-.01.17zm.55 3.84l-.03.04-.01-.01-.02-.07-.02-.07-.03-.08-.02-.08-.03-.09-.02-.1-.03-.1-.02-.1-.03-.11-.02-.12-.03-.12-.02-.12-.02-.12-.02-.13-.02-.13-.03-.14-.02-.13-.01-.14-.02-.14-.02-.14-.02-.14-.01-.14-.01-.14-.02-.14-.01-.14-.01-.14-.01-.14v-.14L0 4.22v-.39h.04v.39l.01.13.01.14v.14l.01.14.01.14.02.14.01.14.01.14.02.14.02.14.02.14.01.13.02.14.03.13.02.13.02.13.02.12.03.13.02.11.02.12L.4 7l.02.1.03.1.02.1.03.09.02.08.02.08.03.07.02.06v-.01zm-.03.04V7.7H.55l.01.01zm8.98.02l.02.04h-.14l-.16.01h-.2l-.22.01h-.25l-.28.01-.29.01-.32.01-.33.01-.35.01-.36.01H6.3l-.38.01-.38.01-.38.01-.39.01h-.76l-.37.01h-.7l-.34-.01h-.31l-.3-.01-.28-.01-.25-.01-.23-.02-.2-.02-.17-.02-.13-.03-.1-.03-.07-.03.03-.04.05.03.1.03.13.02.16.03.2.02.23.01.25.02.28.01h.3l.31.01h1.79l.38-.01.38-.01h.39l.38-.01.37-.01.37-.01.36-.01.35-.01.33-.01.32-.01h.29l.28-.01.25-.01h.22l.2-.01H9.55h-.01zm.02.04h-.01.01zM9.42.14V.1l.02.01.05.25.05.25.05.27.04.28.03.28.04.3.03.3.02.31.02.31.02.31.02.31.01.31.01.32.01.31.01.3v.59l-.01.28v.28l-.01.26-.01.25-.02.24-.01.22-.02.21-.02.19-.02.17-.02.15-.02.13-.03.11-.03.08-.03.06-.04.03-.02-.04.03-.02.02-.05.03-.08.03-.1.02-.13.02-.15.02-.17.02-.18.02-.21.01-.22.02-.24.01-.25.01-.26v-.28l.01-.28v-.29l-.01-.3v-.3l-.01-.31-.01-.31-.01-.32-.02-.31-.02-.31-.02-.31-.03-.31-.03-.3-.03-.29-.03-.29-.05-.27L9.5.62 9.45.37 9.4.12l.02.02zm0-.04l.02-.01v.02L9.42.1z" class="fil1"/><g><path fill="#f08bb2" d="M1.88 3.87L5.01.78l3.13 3.09-3.13 3.08z"/><path id="1" d="M5.02.8L1.9 3.88l-.03-.03L5 .77h.02V.8zM5 .77l.01-.02.01.02H5zm3.12 3.11L5 .8l.02-.03 3.13 3.08v.03h-.03zm.03-.03l.02.02-.02.01v-.03zM5 6.94l3.12-3.09.03.03-3.13 3.09H5v-.03zm.02.03l-.01.01L5 6.97h.02zM1.9 3.85l3.12 3.09-.02.03-3.13-3.09v-.03h.03zm-.03.03l-.02-.01.02-.02v.03z" class="fil1"/></g></g></g></svg>