<svg xmlns="http://www.w3.org/2000/svg" width="91" height="59" fill-rule="evenodd" clip-rule="evenodd" image-rendering="optimizeQuality" shape-rendering="geometricPrecision" text-rendering="geometricPrecision" viewBox="0 0 11.89 7.74"><defs><style>.fil2{fill:#f08bb2}.fil0{fill:#6fa691}.fil1{fill:#2b2a29;fill-rule:nonzero}</style></defs><g id="Слой_x0020_1"><g id="_1424926672"><path d="M.1.78h.61v6.86H.1z" class="fil0"/><path id="1" d="M.71.81H.1V.76h.61l.03.02-.03.03zm0-.05h.03v.02L.71.76zM.68 7.64V.78h.06v6.86l-.03.03-.03-.03zm.06 0v.03H.71l.03-.03zM.1 7.61h.61v.06H.1l-.03-.03.03-.03zm0 .06H.07v-.03l.03.03zM.13.78v6.86H.07V.78L.1.76l.03.02zm-.06 0V.76H.1L.07.78z" class="fil1"/><path d="M.4.03C.61.03.78.2.78.4.78.61.61.78.4.78.2.78.03.61.03.4.03.2.2.03.4.03z" class="fil2"/><path id="1" d="M.81.4H.75V.37L.74.35V.32L.73.3V.28L.72.27.71.25V.24L.7.22.69.21.68.2.67.18.66.17.65.16.63.15.62.14.61.13.6.12.58.11.57.1.55.09H.54L.52.08.51.07H.47L.46.06H.4V0h.06l.02.01H.5l.02.01h.02l.02.01.02.01.02.01.01.01.02.01.01.01.02.01.01.01.02.02.01.01.01.02.02.01.01.02.01.01.01.02.01.02v.02l.01.01.01.02V.3L.8.32v.04l.01.02V.4zM.4.81V.75h.04L.46.74h.03L.51.73h.01L.54.72.55.71h.02L.58.7.6.69.61.68.62.67.63.66.65.65.66.64.67.62.68.61.69.6.7.58.71.57V.55L.72.54.73.52V.51L.74.49V.46L.75.44V.4h.06v.02L.8.44v.04L.79.5v.02L.78.54.77.56v.02L.76.6.75.61.74.63.73.64.71.66.7.67.69.69.67.7.66.71.64.73.63.74.61.75.6.76.58.77H.56L.54.78.52.79H.5L.48.8H.44L.42.81H.4zM0 .4h.06v.06l.01.01v.04l.01.01.01.02v.01L.1.57l.01.01.01.02.01.01.01.01.01.02.01.01.01.01.01.01.02.01.01.01.01.01.02.01h.01l.02.01.01.01H.3l.02.01h.03l.02.01H.4v.06H.38L.36.8H.32L.3.79H.28L.26.78.25.77H.23L.21.76.19.75.18.74.16.73.15.71.13.7.12.69.1.67.09.66.08.64.07.63.06.61.05.6.04.58.03.56.02.54V.52L.01.5V.48L0 .46V.4zM.4 0v.06H.35L.33.07H.3L.28.08.27.09H.25L.24.1.22.11.21.12.2.13.18.14.17.15.16.16.15.17.14.18.13.2.12.21.11.22.1.24.09.25v.02L.08.28.07.3v.03L.06.35V.4H0V.34L.01.32V.3L.02.28V.26L.03.25.04.23.05.21.06.19.07.18.08.16.09.15.1.13.12.12.13.1.15.09.16.08.18.07.19.06.21.05.23.04.25.03.26.02h.02L.3.01h.02L.34 0H.4z" class="fil1"/><path d="M4.26.78h.61v6.86h-.61z" class="fil0"/><path id="1" d="M4.87.81h-.61V.76h.61l.03.02-.03.03zm0-.05h.03v.02L4.87.76zm-.02 6.88V.78h.05v6.86l-.03.03-.02-.03zm.05 0v.03h-.03l.03-.03zm-.64-.03h.61v.06h-.61l-.03-.03.03-.03zm0 .06h-.03v-.03l.03.03zM4.29.78v6.86h-.06V.78l.03-.02.03.02zm-.06 0V.76h.03l-.03.02z" class="fil1"/><path d="M4.57.03c.21 0 .37.17.37.37 0 .21-.16.38-.37.38S4.19.61 4.19.4c0-.2.17-.37.38-.37z" class="fil2"/><path id="1" d="M4.97.4h-.06V.33L4.9.32V.3L4.89.28V.27L4.88.25 4.87.24 4.86.22 4.85.21V.2L4.83.18 4.82.17 4.81.16 4.8.15 4.79.14 4.78.13 4.76.12 4.75.11 4.73.1 4.72.09H4.7L4.69.08 4.67.07h-.03L4.62.06h-.05V0h.06l.02.01h.02l.02.01h.02l.02.01.01.01.02.01.02.01.01.01.02.01.02.01.01.01.01.02.02.01.01.02.01.01.01.02.01.01.01.02.01.02.01.02.01.01v.02l.01.02v.02l.01.02V.4zm-.4.41V.75h.03l.02-.01h.03l.02-.01h.02L4.7.72l.02-.01h.01L4.75.7l.01-.01.02-.01.01-.01.01-.01.01-.01.01-.01.01-.02.02-.01V.6l.01-.02.01-.01.01-.02.01-.01V.52L4.9.51V.49l.01-.02V.4h.06v.06l-.01.02V.5l-.01.02v.02l-.01.02-.01.02-.01.02-.01.01-.01.02-.01.01-.01.02-.01.01-.02.02-.01.01-.01.01-.02.02-.02.01-.01.01-.02.01-.02.01h-.01l-.02.01-.02.01h-.02L4.65.8h-.04l-.02.01h-.02zM4.17.4h.05v.02l.01.02v.05l.01.02v.01l.01.02.01.01.01.02v.01l.01.02.01.01.01.01.01.02.01.01.02.01.01.01.01.01.02.01.01.01.01.01h.02l.01.01.02.01h.02l.01.01h.04l.01.01h.04v.06h-.02L4.53.8h-.04L4.47.79h-.02L4.43.78 4.41.77h-.02L4.38.76 4.36.75 4.34.74 4.33.73 4.31.71 4.3.7 4.28.69 4.27.67 4.26.66 4.25.64 4.23.63 4.22.61 4.21.6V.58L4.2.56 4.19.54 4.18.52V.5L4.17.48V.4zm.4-.4v.06h-.05L4.5.07h-.03l-.02.01-.02.01h-.01L4.4.1l-.01.01-.01.01-.02.01-.01.01-.01.01-.02.01-.01.01-.01.01-.01.02-.01.01-.01.01v.02l-.01.01-.01.02-.01.01V.3l-.01.02v.05l-.01.02V.4h-.05V.32L4.18.3V.28l.01-.02.01-.01.01-.02V.21l.01-.02.01-.01.02-.02.01-.01.01-.02.01-.01L4.3.1l.01-.01.02-.01.01-.01.02-.01.02-.01.01-.01.02-.01.02-.01h.02l.02-.01h.02L4.51 0h.06z" class="fil1"/><path d="M.4 5.59h9.47v.64H.4z" class="fil0"/><path id="1" d="M9.87 5.62H.4v-.06h9.47l.03.03-.03.03zm0-.06h.03v.03l-.03-.03zm-.02.67v-.64h.05v.64l-.03.03-.02-.03zm.05 0v.03h-.03l.03-.03zM.4 6.2h9.47v.06H.4l-.03-.03.03-.03zm0 .06H.37v-.03l.03.03zm.03-.67v.64H.37v-.64l.03-.03.03.03zm-.06 0v-.03H.4l-.03.03z" class="fil1"/><path d="M1.31 1.58h.41V5h-.41z" class="fil2"/><path id="1" d="M1.72 1.61h-.41v-.06h.41l.03.03-.03.03zm0-.06h.03v.03l-.03-.03zM1.69 5V1.58h.06V5l-.03.03L1.69 5zm.06 0v.03h-.03L1.75 5zm-.44-.03h.41v.06h-.41L1.28 5l.03-.03zm0 .06h-.03V5l.03.03zm.03-3.45V5h-.06V1.58l.03-.03.03.03zm-.06 0v-.03h.03l-.03.03z" class="fil1"/><path d="M2.24 1.57h.41v3.42h-.41z" class="fil2"/><path id="1" d="M2.65 1.6h-.41v-.06h.41l.03.03-.03.03zm0-.06h.03v.03l-.03-.03zm-.02 3.45V1.57h.05v3.42l-.03.03-.02-.03zm.05 0v.03h-.03l.03-.03zm-.44-.03h.41v.06h-.41l-.03-.03.03-.03zm0 .06h-.03v-.03l.03.03zm.03-3.45v3.42h-.06V1.57l.03-.03.03.03zm-.06 0v-.03h.03l-.03.03z" class="fil1"/><g><path d="M3.22 1.56h.41v3.42h-.41z" class="fil2"/><path id="1" d="M3.63 1.59h-.41v-.06h.41l.03.03-.03.03zm0-.06h.03v.03l-.03-.03zM3.6 4.98V1.56h.06v3.42l-.03.03-.03-.03zm.06 0v.03h-.03l.03-.03zm-.44-.03h.41v.06h-.41l-.03-.03.03-.03zm0 .06h-.03v-.03l.03.03zm.03-3.45v3.42h-.06V1.56l.03-.03.03.03zm-.06 0v-.03h.03l-.03.03z" class="fil1"/></g><g><path fill="#c5e3d7" d="M.85 4.35H9.2c.16 0 .3.14.3.3v.63c0 .17-.14.31-.3.31H.85c-.17 0-.3-.14-.3-.31v-.63c0-.16.13-.3.3-.3z"/><path id="1" d="M9.2 4.38H.85v-.06H9.2v.06zm.33.27h-.06V4.6l-.01-.01v-.02l-.01-.01v-.01l-.01-.01v-.02l-.01-.01-.01-.01v-.01l-.01-.01-.01-.01-.01-.01-.01-.01-.01-.01h-.01l-.01-.01-.01-.01-.01-.01h-.01L9.3 4.4h-.01l-.01-.01h-.03l-.01-.01H9.2v-.06h.03l.02.01h.03l.02.01h.01l.02.01.01.01h.02l.01.01.01.01.02.01.01.01.01.01.01.01.01.01.01.01.01.02.01.01.01.01.01.02.01.01v.02l.01.01v.02l.01.01v.02l.01.01v.05zm-.06.63v-.63h.06v.63h-.06zm-.27.34v-.06h.03l.01-.01h.03l.01-.01h.02l.02-.01.01-.01h.01l.01-.01.01-.01.01-.01h.01l.01-.01.01-.01.01-.01.01-.01v-.01l.01-.02.01-.01V5.4l.01-.01v-.01l.01-.02v-.01l.01-.01v-.06h.06v.05l-.01.02v.02l-.01.01v.02l-.01.01v.02l-.01.01-.01.02-.01.01-.01.01-.01.01-.01.02-.01.01-.01.01-.01.01-.01.01-.02.01-.01.01h-.01l-.02.01-.01.01h-.02l-.01.01h-.02l-.02.01h-.04l-.02.01zM.85 5.56H9.2v.06H.85v-.06zm-.33-.28h.06V5.35l.01.01v.02l.01.01v.01l.01.01v.01l.01.02.01.01.01.01.01.01.01.01v.01h.01l.01.01.02.01.01.01h.01l.01.01.01.01h.03l.01.01h.03l.01.01h.03v.06l-.02-.01H.78L.77 5.6H.75l-.02-.01H.72L.7 5.58l-.01-.01H.68l-.02-.01-.01-.01-.01-.01-.01-.01-.02-.01-.01-.01-.01-.02-.01-.01-.01-.01-.01-.01v-.02l-.01-.01-.01-.02V5.4l-.01-.02v-.01l-.01-.02v-.07zm.06-.63v.63H.52v-.63h.06zm.27-.33v.06H.81l-.02.01H.77l-.02.01H.74l-.01.01H.72l-.01.01-.01.01-.02.01H.67l-.01.01v.01l-.01.01-.01.01-.01.01-.01.01-.01.01v.01l-.01.02v.01l-.01.01v.01l-.01.02V4.65H.52V4.59l.01-.02v-.01l.01-.02v-.01l.01-.02.01-.01v-.02l.01-.01.01-.01.01-.02.01-.01.01-.01.02-.01.01-.01.01-.01.01-.01.02-.01.01-.01H.7l.02-.01.01-.01h.02l.02-.01H.8l.01-.01h.04z" class="fil1"/></g><g><path d="M.42 1.15h4.34v.51H.42z" class="fil0"/><path id="1" d="M4.76 1.18H.42v-.06h4.34l.03.03-.03.03zm0-.06h.03v.03l-.03-.03zm-.03.54v-.51h.06v.51l-.03.03-.03-.03zm.06 0v.03h-.03l.03-.03zM.42 1.63h4.34v.06H.42l-.03-.03.03-.03zm0 .06H.39v-.03l.03.03zm.03-.54v.51H.39v-.51l.03-.03.03.03zm-.06 0v-.03h.03l-.03.03z" class="fil1"/></g><g><path d="M7.55 2.42h.61v5.3h-.61z" class="fil0"/><path id="1" d="M8.16 2.45h-.61v-.06h.61l.03.03-.03.03zm0-.06h.03v.03l-.03-.03zm-.03 5.33v-5.3h.06v5.3l-.03.02-.03-.02zm.06 0v.02h-.03l.03-.02zm-.64-.03h.61v.05h-.61l-.03-.02.03-.03zm0 .05h-.03v-.02l.03.02zm.03-5.32v5.3h-.06v-5.3l.03-.03.03.03zm-.06 0v-.03h.03l-.03.03z" class="fil1"/></g><g><path d="M7.85 1.68c.21 0 .38.16.38.37s-.17.37-.38.37c-.2 0-.37-.16-.37-.37s.17-.37.37-.37z" class="fil2"/><path id="1" d="M8.26 2.05H8.2v-.04L8.19 2v-.04l-.01-.01v-.02l-.01-.01-.01-.02v-.01l-.01-.02-.01-.01-.01-.02-.01-.01-.01-.01-.01-.01-.01-.02-.02-.01-.01-.01-.01-.01-.02-.01h-.01L8 1.74l-.01-.01h-.02l-.01-.01h-.02l-.02-.01h-.03l-.02-.01h-.02v-.05h.08l.02.01h.02l.02.01.02.01.02.01h.02l.01.01.02.02.01.01.02.01.01.01.02.01.01.02.01.01.02.02.01.01.01.02.01.02.01.01.01.02v.02l.01.02v.02l.01.02v.04l.01.02v.02zm-.41.4v-.06H7.92l.02-.01h.02l.01-.01h.02L8 2.36l.02-.01.01-.01h.02l.01-.01.01-.01.02-.02.01-.01.01-.01.01-.01.01-.01.01-.02.01-.01.01-.02V2.2l.01-.02.01-.01v-.02l.01-.01V2.1l.01-.02v-.03h.06v.02l-.01.02v.04l-.01.02v.02l-.01.02v.02l-.01.01-.01.02-.01.02-.01.01-.01.02-.02.02-.01.01-.01.01-.02.02-.01.01-.02.01-.01.01-.02.01-.01.01-.02.01-.02.01-.02.01h-.02l-.02.01h-.02l-.01.01h-.07zm-.4-.4h.06v.05l.01.02v.03l.01.02.01.01v.02l.01.01.01.02.01.01.01.02.01.01.01.01.01.01.01.01.01.02.02.01.01.01h.01l.02.01.01.01.02.01h.02l.01.01h.02l.01.01H7.85v.06h-.06l-.02-.01h-.02l-.02-.01h-.01l-.02-.01-.02-.01-.02-.01-.02-.01-.01-.01-.02-.01-.01-.01-.02-.01-.01-.02-.01-.01-.02-.01-.01-.02-.01-.02-.01-.01-.01-.02-.01-.02-.01-.01v-.02l-.01-.02-.01-.02v-.04l-.01-.02v-.04zm.4-.4v.05h-.01l-.02.01h-.04l-.01.01h-.02l-.01.01h-.02l-.02.01-.01.01h-.02l-.01.01-.01.01-.02.01-.01.01-.01.02-.01.01-.01.01-.01.01-.01.02-.01.01-.01.02-.01.01v.02l-.01.01-.01.02v.03L7.51 2v.05h-.06v-.04l.01-.02v-.04l.01-.02.01-.02v-.02l.01-.02.01-.01.01-.02.01-.02.01-.01.01-.02.02-.01.01-.02.01-.01.02-.01.01-.01.02-.01.01-.02.02-.01h.02l.02-.01.02-.01.01-.01h.02l.02-.01h.08z" class="fil1"/></g><g><path d="M11.18 2.37h.61v5.3h-.61z" class="fil0"/><path id="1" d="M11.79 2.4h-.61v-.06h.61l.03.03-.03.03zm0-.06h.03v.03l-.03-.03zm-.03 5.33v-5.3h.06v5.3l-.03.03-.03-.03zm.06 0v.03h-.03l.03-.03zm-.64-.03h.61v.06h-.61l-.03-.03.03-.03zm0 .06h-.03v-.03l.03.03zm.03-5.33v5.3h-.06v-5.3l.03-.03.03.03zm-.06 0v-.03h.03l-.03.03z" class="fil1"/></g><g><path d="M11.49 1.62c.2 0 .37.17.37.37 0 .21-.17.38-.37.38-.21 0-.38-.17-.38-.38 0-.2.17-.37.38-.37z" class="fil2"/><path id="1" d="M11.89 1.99h-.06v-.05l-.01-.02v-.01l-.01-.02v-.02l-.01-.01v-.02l-.01-.01-.01-.02-.01-.01-.01-.01-.01-.02-.01-.01-.01-.01-.01-.01-.02-.01-.01-.01-.01-.01-.02-.01-.01-.01-.02-.01-.01-.01h-.02l-.01-.01h-.02l-.01-.01H11.49v-.06h.06l.02.01h.02l.02.01h.01l.02.01.02.01.02.01.01.01.02.01.02.01.01.01.02.01.01.02.01.01.02.02.01.01.01.02.01.01.01.02.01.02.01.02v.01l.01.02.01.02v.04l.01.02v.04zm-.4.41v-.06h.03l.02-.01h.03l.02-.01h.01l.02-.01.01-.01h.02l.01-.01.02-.01.01-.01.01-.01.02-.01.01-.01.01-.02.01-.01.01-.01.01-.01.01-.02.01-.01.01-.02v-.01l.01-.02V2.1l.01-.02v-.02l.01-.01v-.06h.06v.04l-.01.02v.04l-.01.02-.01.02v.02l-.01.02-.01.01-.01.02-.01.02-.01.01-.01.02-.02.01-.01.02-.01.01-.02.01-.01.02-.02.01-.02.01-.01.01-.02.01h-.02l-.02.01-.01.01h-.02l-.02.01h-.04l-.02.01h-.02zm-.41-.41h.06v.06l.01.01v.02l.01.02v.01l.01.02v.01l.01.02.01.01.01.02.01.01.01.01.01.01.01.02.01.01.02.01.01.01.01.01.02.01.01.01h.02l.01.01.02.01h.01l.02.01h.03l.02.01h.04v.06h-.03l-.02-.01h-.04l-.02-.01h-.01l-.02-.01-.02-.01h-.02l-.02-.01-.01-.01-.02-.01-.02-.01-.01-.02-.02-.01-.01-.01-.01-.02-.02-.01-.01-.02-.01-.01-.01-.02-.01-.02-.01-.01-.01-.02v-.02l-.01-.02-.01-.02v-.04l-.01-.02v-.04zm.41-.4v.06H11.42l-.02.01h-.02l-.01.01h-.02l-.01.01-.02.01-.01.01-.02.01-.01.01-.01.01-.02.01-.01.01-.01.01-.01.01-.01.02-.01.01-.01.01-.01.02-.01.01v.02l-.01.01v.02l-.01.02v.01l-.01.02v.05h-.06v-.04l.01-.02v-.04l.01-.02.01-.02v-.01l.01-.02.01-.02.01-.02.01-.01.01-.02.01-.01.02-.02.01-.01.01-.02.02-.01.01-.01.02-.01.02-.01.01-.01.02-.01.02-.01.02-.01h.02l.01-.01h.02l.02-.01h.07z" class="fil1"/></g><g><path d="M7.87 2.74h3.65v.51H7.87z" class="fil0"/><path id="1" d="M11.52 2.77H7.87v-.06h3.65l.03.03-.03.03zm0-.06h.03v.03l-.03-.03zm-.03.54v-.51h.06v.51l-.03.03-.03-.03zm.06 0v.03h-.03l.03-.03zm-3.68-.03h3.65v.06H7.87l-.03-.03.03-.03zm0 .06h-.03v-.03l.03.03zm.03-.54v.51h-.06v-.51l.03-.03.03.03zm-.06 0v-.03h.03l-.03.03z" class="fil1"/></g><g><path d="M7.87 6.22h3.61V3.25H7.87z" class="fil0"/><path id="1" d="M11.48 6.25H7.87v-.06h3.61l.03.03-.03.03zm.03-.03v.03h-.03l.03-.03zm0-2.97v2.97h-.06V3.25l.03-.03.03.03zm-.03-.03h.03v.03l-.03-.03zm-3.61 0h3.61v.06H7.87l-.03-.03.03-.03zm-.03.03v-.03h.03l-.03.03zm0 2.97V3.25h.06v2.97l-.03.03-.03-.03zm.03.03h-.03v-.03l.03.03z" class="fil1"/></g></g></g></svg>