<svg xmlns="http://www.w3.org/2000/svg" width="79" height="52" fill-rule="evenodd" clip-rule="evenodd" image-rendering="optimizeQuality" shape-rendering="geometricPrecision" text-rendering="geometricPrecision" viewBox="0 0 9.14 6.04"><path fill="#C4D985" fill-rule="nonzero" d="M2.3 4.09c-.08.53-.17 1.06-.28 1.59.8.23 1.59.34 2.39.34s1.61-.1 2.41-.28c-.14-.62-.22-1.33-.3-2.04-.04-.39-.09-.78-.14-1.16-.01-.05 0-.1.01-.13l.03-.03c.01-.01.03-.01.04-.02.04 0 .08.01.13.04.6.33 1.09.73 1.58 1.12.14.12.28.23.43.35.08-.07.17-.13.25-.2.09-.07.18-.15.27-.22-.25-.31-.54-.63-.8-.92-.26-.29-.5-.56-.66-.76-.32-.44-.65-.85-1.04-1.16C6.23.3 5.78.09 5.23.04c-.02.3-.24.49-.52.57-.12.03-.25.04-.37.03C4.22.63 4.1.6 4 .54 3.81.45 3.68.27 3.7.03c-.12.04-.24.07-.36.1-.13.04-.25.07-.38.11h-.01c-.1.02-.19.05-.27.1-.08.04-.15.09-.21.14C1.8 1.04.97 2.04.12 3.07c-.03.04-.06.08-.09.11.09.08.18.17.27.25.08.08.16.16.23.24.2-.22.45-.44.73-.66.29-.22.61-.45.95-.67v-.01c.08-.03.14-.04.18-.01.04.02.06.08.07.16-.03.53-.08 1.07-.16 1.61z"/><path fill="#2B2A29" fill-rule="nonzero" d="M2.02 5.67l-.01.03L2 5.68l.01-.05.01-.05.01-.05.01-.05.01-.05.01-.05.01-.05.01-.05.01-.05.01-.05.01-.05v-.05l.01-.05.01-.05.01-.05.01-.05.01-.05.01-.05.01-.05v-.05l.01-.05.01-.05.01-.05.01-.05.01-.05v-.05l.01-.05.01-.05.01-.05v-.05l.01-.05.01-.05.04.01-.01.05-.01.05v.05l-.01.05-.01.05-.01.05-.01.05v.05l-.01.05-.01.05-.01.05-.01.05-.01.05v.05l-.01.05-.01.05-.01.05-.01.05-.01.05-.01.05-.01.05-.01.05v.05l-.01.05-.01.05-.01.05-.01.05-.01.05-.01.05-.01.05-.01.05-.01.05-.02-.02zm-.01.03H2v-.02l.01.02zm2.4.3v.04H4.26l-.07-.01H3.96l-.07-.01h-.08l-.07-.01L3.66 6h-.07l-.08-.01-.07-.01-.08-.01-.07-.01-.08-.01-.07-.01-.08-.01-.07-.01-.08-.01-.07-.02-.08-.01-.07-.01-.08-.02-.07-.02-.08-.01-.07-.02-.08-.02-.07-.02-.08-.02-.07-.02-.08-.02.01-.03.08.02.07.02.08.02.07.01.08.02.07.02.08.02.07.01.08.02.07.01.08.02.07.01.07.01.08.01.07.02.08.01.07.01.08.01h.07l.08.01.07.01.08.01h.07l.08.01h.07l.08.01h.14l.08.01H4.41zm2.39-.26l.04-.01-.02.03-.07.02-.08.01-.07.02-.08.01-.07.02-.08.01-.08.02-.07.01-.08.01-.07.02-.08.01-.07.01-.08.01-.07.01-.08.01-.07.01-.08.01-.07.01h-.08L5.32 6l-.08.01h-.07l-.08.01h-.07l-.08.01H4.71l-.07.01H4.41V6H4.71l.08-.01H4.94l.07-.01h.08l.07-.01h.08l.07-.01.08-.01h.07l.08-.01.07-.01.08-.01.07-.01.08-.01.07-.01.08-.01.07-.01.08-.02.07-.01.08-.01.07-.02.08-.01.07-.02.08-.01.07-.02.08-.01.07-.02-.01.02zm.04-.01v.02l-.02.01.02-.03zM6.5 3.7h.04l.01.07.01.06v.07l.01.07.01.06.01.07v.07l.01.06.01.07.01.06v.07l.01.06.01.07.01.06.01.07.01.06.01.07.01.06v.06l.01.07.01.06.01.06.01.06.01.07.01.06.02.06.01.06.01.06.01.06.01.06.01.06.02.05-.04.01-.01-.06-.02-.05-.01-.06-.01-.06-.01-.06-.01-.06-.01-.07-.01-.06-.02-.06-.01-.06-.01-.06-.01-.07v-.06l-.01-.06-.01-.07-.01-.06-.01-.07-.01-.06-.01-.07-.01-.06v-.07l-.01-.06-.01-.07-.01-.06-.01-.07V4.1l-.01-.06-.01-.07-.01-.07v-.06l-.01-.07-.01-.07zm-.14-1.16h.04v.04l.01.03v.04l.01.03v.04l.01.04v.03l.01.04v.03l.01.04v.04l.01.03v.07l.01.04v.04l.01.03v.04l.01.04v.07l.01.04v.03l.01.04v.03l.01.04v.07l.01.04v.04l.01.03v.04H6.5v-.03l-.01-.04V3.6l-.01-.04v-.07l-.01-.04v-.04l-.01-.03V3.3l-.01-.03v-.04l-.01-.04v-.03l-.01-.04v-.07l-.01-.04v-.03l-.01-.04V2.9l-.01-.03v-.04l-.01-.03v-.04l-.01-.03v-.04l-.01-.04v-.07l-.01-.03v-.01zm0 .01v-.01.01zm.04-.01h-.04.04zm0 0zm-.03-.14l.04.02v.01H6.4V2.54l-.04.01V2.42h.01V2.4zm0 0l.01-.01-.01.01zm.04-.04l.02.03v.01h-.01v.01h-.01v.01l-.04-.02h.01v-.02h.01v-.01h.01v-.01h.01zm.02.03h.01-.01zm.03-.05v.04h-.01v.01h-.02l-.02-.03h.01v-.01h.03l.01-.01zm0 0l-.01.01.01-.01zm.14.04l-.01.04h-.01l-.01-.01h-.02V2.4h-.02v-.01h-.04v-.01h-.03v-.04h.02l.01.01h.04v.01h.03v.01h.02l.01.01h.01zm-.01.04h-.01.01zm0 0l.01-.04-.01.04zm.01-.04zM8.18 3.5l-.03.03-.04-.03-.05-.04-.04-.04-.05-.03-.05-.04-.04-.04-.05-.03-.04-.04-.05-.04-.05-.03-.04-.04-.05-.03-.05-.04-.05-.04-.04-.03-.05-.04-.05-.03-.05-.04-.05-.03-.05-.04-.05-.03-.05-.03-.05-.04-.05-.03-.05-.04-.05-.03-.06-.03-.05-.03-.05-.04-.06-.03-.05-.03-.06-.03.02-.04.06.04.05.03.06.03.05.03.06.04.05.03.05.03.05.03.05.04.06.03.05.04.05.03.05.04.04.03.05.04.05.03.05.04.05.03.05.04.04.04.05.03.05.04.04.03.05.04.05.04.04.03.05.04.04.04.05.03.05.04.04.04.05.03zm.41.35l.02.03h-.02l-.02-.01-.01-.01-.01-.01-.02-.01-.01-.01-.01-.01-.02-.01-.01-.01-.02-.02-.01-.01-.01-.01-.02-.01-.01-.01-.01-.01-.02-.01-.01-.01-.01-.01-.02-.01-.01-.01-.01-.01-.02-.02-.01-.01-.01-.01-.02-.01-.01-.01-.02-.01-.01-.01-.01-.01-.02-.01-.01-.01-.01-.01-.02-.02.03-.03.01.02.01.01.02.01.01.01.02.01.01.01.01.01.02.01.01.01.01.01.02.01.01.01.01.02.02.01.01.01.01.01.02.01.01.01.01.01.02.01.01.01.02.01.01.01.01.01.02.02.01.01.01.01.02.01.01.01.01.01.02.01.01.01h-.02zm.02.03l-.01.01-.01-.01h.02zm.23-.23l.02.03v.01h-.01l-.01.01-.01.01h-.01v.01l-.01.01H8.8l-.01.01-.01.01-.01.01h-.01l-.01.01-.01.01-.01.01-.01.01h-.01l-.01.01-.01.01-.01.01h-.01v.01h-.01l-.01.01-.01.01h-.01v.01h-.01l-.01.01-.02-.03v-.01h.01l.01-.01h.01l.01-.01v-.01h.01l.01-.01h.01v-.01l.01-.01h.01l.01-.01.01-.01.01-.01h.01l.01-.01.01-.01.01-.01.01-.01h.01l.01-.01.01-.01.01-.01h.01l.01-.01v-.01h.01l.01-.01zm.02.03l.05-.03-.05.03zm.24-.22l.03-.02v.02l-.01.01-.01.01-.01.01-.01.01-.01.01h-.01l-.01.01-.01.01-.01.01-.01.01h-.01l-.01.01-.01.01v.01h-.01l-.01.01-.01.01h-.01l-.01.01v.01h-.01l-.01.01-.01.01h-.01v.01l-.01.01h-.01l-.01.01h-.01l-.01.01-.02-.03.01-.01h.01v-.01l.01-.01h.01l.01-.01.01-.01h.01v-.01h.01l.01-.01.01-.01h.01v-.01l.01-.01.01-.01h.01l.01-.01.01-.01.01-.01.01-.01h.01l.01-.01.01-.01.01-.01.01-.01h.01l.01-.01.01-.01.01-.01-.01.03zm.03-.02l.01.01-.01.01v-.02zm-.83-.9l.03-.03.03.03.02.03.03.03.02.03.03.02.02.03.03.03.02.03.03.03.02.03.03.03.03.02.02.03.03.03.02.03.03.03.02.03.03.03.02.03.03.03.03.03.02.03.03.03.02.02.03.03.02.03.02.03.03.03.02.03.03.03.02.03.02.03-.03.02-.02-.03-.02-.03-.03-.02-.02-.03-.03-.03-.02-.03-.02-.03-.03-.03-.02-.03-.03-.03-.02-.03-.03-.03-.02-.03-.03-.03-.03-.02L8.71 3l-.03-.03-.02-.03-.03-.03-.02-.03-.03-.03-.02-.03-.03-.03-.03-.02-.02-.03-.03-.03-.02-.03-.03-.03-.02-.03-.03-.02-.02-.03-.03-.03zm-.65-.76l.02-.03.02.02.02.02.01.02.02.02.01.03.02.02.02.02.02.02.02.02.01.02.02.03.02.02.02.02.02.03.02.02.02.02.02.03.03.02.02.03.02.02.02.03.02.02.03.03.02.02.02.03.03.02.02.03.02.03.03.02.02.03.03.03.02.02-.03.03-.02-.03-.03-.02-.02-.03-.03-.03-.02-.02-.02-.03-.03-.03-.02-.02-.02-.03-.02-.02-.03-.03-.02-.02L8 2.2l-.02-.02-.02-.03-.03-.02-.02-.03-.02-.02-.02-.02-.02-.03-.02-.02-.02-.02-.02-.02-.01-.03-.02-.02-.02-.02-.02-.02-.01-.02-.02-.02-.02-.02-.01-.02-.02-.02h.01zm.02-.03zm0 0l-.02.03h-.01l.03-.03zm-.03.03zM6.6.62l.03-.03.04.03.03.03.04.03.03.03.04.03.04.04.03.03.04.03.03.04.03.03.04.04.03.03.03.04.04.03.03.04.03.04.03.03.04.04.03.04.03.04.03.04.03.03.03.04.03.04.03.04.03.04.03.04.04.04.03.04.03.04.02.04.03.04-.03.03-.03-.04-.03-.04-.03-.04-.03-.04-.03-.04-.03-.04-.03-.04-.03-.04-.03-.04-.03-.04-.03-.04-.03-.04-.03-.04-.03-.03-.04-.04-.03-.04-.03-.03-.03-.04-.03-.04-.04-.03-.03-.04-.03-.03-.04-.03-.03-.04-.04-.03-.03-.03-.04-.04-.03-.03-.04-.03-.03-.03-.04-.03L6.6.62zM5.25.05L5.21.04l.02-.01h.05l.05.01h.05l.05.01.05.01.05.01.05.01.05.01.05.01.04.01.05.02.04.01.05.02.04.01.05.02.04.02.05.02.04.02.04.02.04.02.04.02.04.02.04.02.04.03.04.02.04.03.04.02.04.03.04.03.04.02.03.03.04.03-.03.03-.03-.03-.04-.02-.04-.03-.03-.03-.04-.02-.04-.03-.04-.02L6.3.41 6.26.39 6.22.37 6.18.34 6.14.32 6.1.3 6.06.28 6.02.26 5.98.24 5.93.23 5.89.21 5.85.19 5.8.18 5.76.16 5.71.15 5.67.14 5.62.13 5.57.12 5.52.11 5.48.1 5.43.09 5.38.08 5.33.07h-.05L5.22.06l.03-.01zM5.21.04V.02l.02.01-.02.01zm-.5.58L4.7.59l.03-.01.02-.01.03-.01.02-.01.03-.01.02-.01.02-.01.03-.01.02-.01.02-.01.02-.02.02-.01L5 .44l.02-.01.02-.02.01-.01.02-.02.02-.02.01-.02.01-.02.02-.02.01-.02.01-.02.01-.02.01-.02.01-.03.01-.02V.15L5.2.12V.1l.01-.03V.04l.04.01-.01.02v.06l-.01.03-.01.02v.03l-.01.02-.01.03-.01.02-.02.02-.01.02-.01.03-.02.02-.01.02L5.1.4l-.02.02-.02.02-.02.02-.02.01L5 .49l-.02.02-.02.01-.02.01-.03.02-.02.01-.02.01-.03.01-.02.01-.03.01-.02.01-.03.01h-.03zm0 0zm-.37.04V.62H4.55l.01-.01h.06L4.63.6h.03l.01-.01h.03l.01.03-.01.01h-.02l-.01.01h-.05l-.01.01H4.55l-.01.01H4.34zm-.35-.1l.02-.03h.01l.01.01h.01l.01.01h.02l.01.01h.01l.01.01h.02l.01.01h.02l.01.01h.03L4.2.6h.03l.01.01H4.3l.01.01h.03v.04h-.02L4.31.65H4.25L4.24.64H4.2L4.19.63h-.03L4.15.62h-.02L4.12.61h-.03L4.08.6h-.01L4.06.59h-.02L4.03.58h-.01L4.01.57H4L3.99.56zM3.71.05L3.69.01l.03.02v.13l.01.01v.02l.01.02v.02l.01.02.01.02v.01l.01.02.01.02.01.01.01.02.01.01.01.02.01.01.01.01.02.02.01.01.01.01.02.01.01.02.02.01.01.01.02.01.02.01.01.01.02.01-.02.03-.02-.01-.01-.01-.02-.01-.02-.01-.01-.01L3.89.5 3.87.48 3.86.47 3.84.46 3.83.44 3.82.43 3.8.42 3.79.4 3.78.38 3.77.37 3.76.35 3.75.34 3.74.32 3.73.3 3.72.28 3.71.26V.24L3.7.22 3.69.2V.16L3.68.14V.03l.03.02zM3.69.01L3.72 0v.03L3.69.01zm-.34.14L3.34.11h.01L3.36.1h.03l.02-.01h.02l.01-.01h.02l.01-.01h.02l.02-.01h.03l.01-.01h.02l.01-.01h.03l.01-.01h.02l.01-.01h.02l.01-.01h.01l.02.04h-.03l-.01.01h-.02l-.01.01h-.02l-.01.01h-.03l-.01.01h-.02L3.54.1h-.02L3.5.11h-.02l-.01.01h-.03l-.01.01H3.4l-.01.01h-.02l-.01.01h-.01zM3.34.11zm-.38.15L2.95.22h.03l.01-.01H3L3.01.2h.03l.01-.01h.02l.01-.01h.03l.01-.01h.01l.01-.01h.03l.01-.01h.03l.01-.01h.02l.01-.01h.03l.01-.01h.02l.02-.01h.01l.01.04h-.01l-.02.01H3.3l-.01.01h-.03l-.01.01h-.02l-.01.01h-.03L3.18.2h-.02l-.02.01h-.02l-.01.01h-.03l-.01.01h-.02l-.01.01h-.02l-.01.01h-.02l-.01.01h-.02zm0 0zM2.95.22l.01.04-.01-.04zm.01.04zM2.95.22l.01.04-.01-.04zm.01.04zm-.27.09L2.67.32l.01-.01h.02V.3h.01l.01-.01h.02V.28h.02l.01-.01h.02L2.8.26h.01l.01-.01h.03l.01-.01h.02l.01-.01h.05l.01-.01.01.04h-.01l-.01.01h-.05l-.01.01h-.02l-.01.01h-.02L2.82.3H2.8l-.01.01h-.01l-.01.01h-.02l-.01.01h-.01l-.01.01h-.01v.01h-.02zm-.21.14L2.45.46h.01l.01-.01h.01V.44h.01L2.5.43l.01-.01h.01V.41h.01L2.54.4l.01-.01h.01V.38h.02V.37h.01L2.6.36h.01V.35h.01l.01-.01h.01l.01-.01h.01l.01-.01.02.03-.01.01-.01.01h-.02v.01h-.01l-.01.01-.01.01h-.01L2.6.41h-.01v.01h-.01l-.01.01-.01.01h-.01l-.01.01h-.01v.01h-.01l-.01.01-.01.01-.01.01h-.01V.5.49zM2.45.46zM.14 3.08l-.03-.02.08-.1.08-.1.08-.09.07-.1.08-.09.08-.1.08-.09.08-.1.08-.09.07-.09.08-.09.08-.09.07-.09.08-.09.07-.08.08-.09.07-.08.08-.08.07-.08.07-.08.07-.08.07-.07.07-.08.07-.07.07-.07.07-.07.07-.06.06-.07.07-.06.07-.06.06-.05.06-.06.03.03-.06.06-.07.05-.06.06-.07.06-.07.07-.06.06-.07.07-.07.07-.07.07-.07.07-.07.08-.07.07-.07.08-.08.08-.07.09-.07.08-.08.08-.07.09-.08.09-.07.09-.08.09-.08.09-.07.09-.08.09-.08.09-.08.1-.08.09-.08.1-.07.09-.08.1-.08.09-.08.1zm-.03-.02zm-.07.11l-.03.03v-.03h.01v-.01l.01-.01.01-.01v-.01h.01v-.01h.01v-.01h.01V3.1l.01-.01.01-.01v-.01H.1v-.01h.01l.03.02H.13v.02H.12v.01H.11v.01H.1v.01l-.01.01-.01.01-.01.01v.01H.06v.01H.05v.01l-.01.01v-.03zm-.03.03L0 3.19l.01-.02v.03zm.3.21l-.03.03-.01-.01-.01-.01-.01-.01-.01-.01H.23v-.01l-.01-.01-.01-.01H.2l-.01-.01-.01-.01v-.01H.17l-.01-.01-.01-.01-.01-.01-.01-.01-.01-.01-.01-.01-.01-.01H.09l-.01-.01v-.01l-.01-.01H.06l-.01-.01-.01-.01-.01-.01H.02L.01 3.2l.03-.03.01.01h.01l.01.01v.01l.01.01h.01l.01.01.01.01.01.01.01.01h.01v.01l.01.01.01.01h.01l.01.01.01.01v.01H.2l.01.01.01.01.01.01h.01v.01l.01.01.01.01.01.01h.01v.01l.01.01.01.01h.01zm0 0zm.2.25l.03.03H.51v-.01L.5 3.67l-.01-.01v-.01H.48l-.01-.01v-.01l-.01-.01H.45v-.01L.44 3.6l-.01-.01H.42v-.01l-.01-.01-.01-.01H.39v-.01l-.01-.01-.01-.01-.01-.01-.01-.01-.01-.01-.01-.01-.01-.01-.01-.01v-.01H.3l-.01-.01-.01-.01.03-.03.01.01v.01l.01.01h.01l.01.01.01.01v.01h.01l.01.01.01.01v.01l.01.01h.01l.01.01v.01l.01.01h.01l.01.01v.01l.01.01h.01v.01l.01.01.01.01.01.01.01.01.01.01v.01h.01l.01.01v.01H.51zm.03.03l-.01.01-.02-.01h.03zM1.25 3l.02.03-.02.02-.03.02-.02.02-.03.02-.03.02-.02.02-.03.02-.02.02-.02.02-.03.03-.02.02-.03.02-.02.02-.02.02-.03.02-.02.02-.02.02-.03.02-.02.02-.02.02-.02.02-.02.02-.03.02-.02.02-.02.02-.02.02-.02.02-.02.02-.02.02-.02.02-.02.03-.02.02-.03-.03.02-.02.02-.02.02-.02.02-.02.02-.02.02-.02.03-.03.02-.02.02-.02.02-.02.02-.02.02-.02.03-.02.02-.02.02-.02.02-.02.03-.02.02-.02.02-.02.03-.02.02-.02.03-.02.02-.03.03-.02.02-.02.02-.02.03-.02.03-.02.02-.02.03-.02.02-.02.03-.02zm.95-.68l.02.03-.03.02-.03.02-.03.03-.04.02-.03.02-.03.02L2 2.5l-.03.02-.03.02-.03.02-.03.03-.03.02-.03.02-.03.02-.03.02-.03.02-.03.02-.03.02-.03.02-.03.03-.03.02-.03.02-.03.02-.03.02-.02.02-.03.02-.03.02-.03.03-.03.02-.02.02-.03.02-.03.02L1.25 3l.03-.02.02-.02.03-.02.03-.03.03-.02.02-.02.03-.02.03-.02.03-.02.03-.02.03-.02.03-.03.03-.02.02-.02.03-.02.03-.02.03-.02.03-.02.03-.02.03-.03.03-.02.04-.02.03-.02.03-.02.03-.02.03-.02.03-.02.03-.03.03-.02.04-.02.03-.02.03-.02zm.02.03zm0 0l-.02-.03.02.03zm-.02-.03zm.02.03l-.02-.03h.01l.01.03zm0 0zm.18-.05l-.02.03h-.02l-.01-.01h-.04l-.01.01h-.03l-.01.01h-.02l-.01.01h-.01l-.02-.03.01-.01h.02V2.3h.02l.01-.01h.04l.01-.01h.04l.01.01h.03v.01h.01zm-.02.03l-.03-.01.03.01zm.1.15h-.04v-.02h-.01V2.4h-.01v-.02h-.01v-.02H2.4v-.01h-.01v-.01h-.01v-.01l.02-.03.01.01h.01v.01l.01.01h.01v.02h.01v.01l.01.01v.03l.01.01V2.47l.01.01zm0 0zm-.04 0h.04-.04zm.04 0zm-.16 1.61l-.04-.01.01-.05v-.05l.01-.05.01-.05v-.05l.01-.05.01-.05v-.05l.01-.05v-.05l.01-.05.01-.05v-.05l.01-.05v-.05l.01-.05v-.05l.01-.05v-.05l.01-.05v-.1l.01-.05v-.05l.01-.05v-.1l.01-.05V2.53l.01-.05h.04l-.01.05v.1l-.01.05v.1l-.01.05v.1l-.01.05v.05l-.01.05v.1l-.01.05v.05l-.01.05v.05l-.01.05-.01.05v.05l-.01.05v.05l-.01.05-.01.05v.06l-.01.05v.05l-.01.05-.01.05-.01.05v.05z"/><path fill="#FEFEFE" fill-rule="nonzero" d="M4.03 3.85c.15 0 .27.12.27.28 0 .15-.12.27-.27.27-.16 0-.28-.12-.28-.27 0-.16.12-.28.28-.28zM2.09 5.7c.18.05.36.1.54.13v-.06c0-.15-.12-.27-.27-.27-.13 0-.24.08-.27.2zm2.56.32c.18-.01.37-.02.55-.03-.01-.15-.13-.26-.28-.26-.15 0-.27.12-.27.28v.01zm2.12-.51c-.03-.15-.05-.3-.08-.46-.03-.01-.07-.02-.11-.02-.15 0-.27.12-.27.28 0 .15.12.27.27.27.08 0 .14-.02.19-.07zm.68-2.55c.15.11.3.23.44.34.04-.05.06-.11.06-.17 0-.15-.12-.28-.28-.28-.09 0-.17.05-.22.11zm1.28.03c-.12-.14-.25-.28-.37-.41-.06.05-.09.12-.09.2 0 .15.12.28.27.28.07 0 .14-.03.19-.07zM5.86.18c-.17-.06-.35-.1-.54-.13V.1c0 .15.12.28.28.28.12 0 .23-.09.26-.2zM3.94.51c-.09-.06-.16-.13-.2-.23-.02-.01-.05-.01-.07-.01-.15 0-.28.12-.28.28 0 .15.13.27.28.27.15 0 .28-.12.28-.27 0-.02 0-.03-.01-.04zM1.43 1.52c-.12.14-.24.27-.37.42.05.04.12.07.19.07.15 0 .27-.13.27-.28 0-.08-.03-.16-.09-.21zM.92 3.3c.1-.09.22-.19.34-.29.03-.02.06-.04.08-.06-.05-.06-.13-.1-.21-.1-.16 0-.28.12-.28.27 0 .07.03.13.07.18zm1.06-.81c.08-.05.15-.1.23-.15v-.01c.08-.03.14-.04.18-.01.04.02.06.07.06.15.03-.04.04-.09.04-.13 0-.16-.13-.28-.28-.28-.15 0-.28.12-.28.28 0 .05.02.11.05.15zm4.25 1.14c.16 0 .28.12.28.27 0 .16-.12.28-.28.28-.15 0-.27-.12-.27-.28 0-.15.12-.27.27-.27zM3.7 5.15c.15 0 .27.13.27.28 0 .15-.12.27-.27.27-.16 0-.28-.12-.28-.27 0-.15.12-.28.28-.28zm-.85-.82c.15 0 .27.12.27.28 0 .15-.12.27-.27.27-.16 0-.28-.12-.28-.27 0-.16.12-.28.28-.28zM2.44.61c.16 0 .28.12.28.27 0 .16-.12.28-.28.28-.15 0-.27-.12-.27-.28 0-.15.12-.27.27-.27zm4.9 1.2c.15 0 .28.12.28.27 0 .16-.13.28-.28.28-.15 0-.28-.12-.28-.28 0-.15.13-.27.28-.27zM6.35.78c.16 0 .28.13.28.28 0 .15-.12.27-.28.27-.15 0-.27-.12-.27-.27 0-.15.12-.28.27-.28zm-.51 1.27c.15 0 .28.12.28.28 0 .15-.13.27-.28.27-.15 0-.27-.12-.27-.27 0-.16.12-.28.27-.28zm-.58 2.67c.15 0 .28.12.28.28 0 .15-.13.27-.28.27-.15 0-.27-.12-.27-.27 0-.16.12-.28.27-.28zm-.15-1.61c.16 0 .28.13.28.28 0 .15-.12.28-.28.28-.15 0-.27-.13-.27-.28 0-.15.12-.28.27-.28zM5.06.94c.15 0 .28.13.28.28 0 .15-.13.28-.28.28-.15 0-.28-.13-.28-.28 0-.15.13-.28.28-.28zm-1.89.46c.15 0 .28.13.28.28 0 .15-.13.27-.28.27-.15 0-.28-.12-.28-.27 0-.15.13-.28.28-.28zm1.05.73c.16 0 .28.12.28.28 0 .15-.12.27-.28.27-.15 0-.27-.12-.27-.27 0-.16.12-.28.27-.28zm-1.17.84c.15 0 .28.12.28.27 0 .16-.13.28-.28.28-.15 0-.28-.12-.28-.28 0-.15.13-.27.28-.27z"/><path fill="#2B2A29" fill-rule="nonzero" d="M4.32 4.13h-.04V4.06l-.01-.01v-.01l-.01-.01v-.01L4.25 4v-.01l-.01-.01-.01-.01v-.01l-.01-.01-.01-.01H4.2l-.01-.01-.01-.01-.01-.01h-.01l-.01-.01-.01-.01h-.02l-.02-.01h-.01l-.01-.01h-.05v-.04h.04l.02.01h.03l.01.01h.01l.02.01.01.01h.01l.01.01.01.01.02.01.01.01.01.01.01.01.01.01v.01l.01.01.01.01.01.02V4l.01.01.01.01v.03l.01.02v.06zm-.29.29v-.04H4.09l.01-.01h.02l.01-.01h.01l.01-.01h.01l.01-.01.01-.01.01-.01h.01l.01-.01.01-.01.01-.01v-.01l.01-.01.01-.01v-.01l.01-.01v-.01l.01-.02V4.2l.01-.01V4.13h.04v.06l-.01.01v.03l-.01.01-.01.01v.02l-.01.01-.01.01-.01.01v.01l-.01.02-.01.01-.01.01h-.01l-.02.01-.01.01-.01.01-.01.01h-.01l-.02.01h-.01l-.01.01H4.1l-.01.01H4.03zm-.3-.29h.04v.04l.01.01v.02l.01.01v.02l.01.01v.01l.01.01v.01l.01.01.01.01.01.01.01.01v.01h.01l.01.01.01.01.01.01h.01l.02.01h.01l.01.01h.01l.01.01h.07v.04H3.97l-.02-.01h-.01l-.01-.01h-.02l-.01-.01h-.01l-.02-.01-.01-.01-.01-.01-.01-.01h-.01l-.01-.01-.01-.01-.01-.02-.01-.01-.01-.01-.01-.01v-.01l-.01-.02-.01-.01v-.01l-.01-.02v-.02l-.01-.02v-.04zm.3-.3v.04h-.05l-.02.01h-.01l-.01.01h-.02l-.02.01-.01.01h-.01l-.01.01-.01.01-.01.01-.01.01-.01.01-.01.01-.01.01v.01L3.8 4v.02l-.01.01v.01l-.01.01v.02l-.01.02v.04h-.04v-.05l.01-.01v-.03l.01-.02v-.01L3.76 4l.01-.01v-.02l.01-.01.01-.01.01-.01.01-.01.01-.01.01-.01.01-.01.01-.01.01-.01.01-.01h.02l.01-.01.01-.01h.02l.01-.01h.03l.01-.01h.05zm-1.42 2l.04.01-.03.01h-.03l-.02-.01h-.02l-.01-.01H2.5l-.01-.01h-.04l-.01-.01h-.02L2.4 5.8h-.03l-.02-.01h-.01l-.02-.01h-.03l-.02-.01h-.02l-.01-.01h-.02l-.02-.01h-.03l-.02-.01h-.02l-.01-.01H2.1l-.02-.01.01-.04.02.01h.02l.01.01h.02l.02.01h.01l.02.01h.03l.02.01h.02l.01.01h.02l.02.01h.03l.02.01h.02l.01.01h.04l.01.01h.04l.01.01h.02l.02.01h.03l.02.01h.03l-.02.02zm.04.01l-.01.02-.02-.01.03-.01zm-.04-.07h.04v.07l-.04-.01V5.77zm-.25-.25v-.04h.06l.01.01h.03l.01.01.01.01h.02l.01.01.01.01.01.01h.01l.02.01.01.01.01.01v.01l.01.02.01.01.01.01.01.01v.01l.01.02v.01l.01.01v.02l.01.01V5.77h-.04V5.71L2.6 5.7v-.02l-.01-.01v-.01l-.01-.01v-.01l-.01-.01-.01-.01-.01-.01V5.6l-.01-.01-.01-.01-.01-.01h-.01l-.01-.01-.01-.01h-.01l-.01-.01h-.01l-.02-.01h-.01l-.01-.01H2.36zm-.27.16l-.01.04-.01-.02v-.01l.01-.02v-.01l.01-.01v-.01l.01-.01v-.01l.01-.01.01-.01v-.01l.01-.01.01-.01.01-.01h.01v-.01l.01-.01.01-.01h.01l.01-.01.01-.01h.01l.02-.01h.01l.01-.01h.02l.01-.01h.07v.04h-.07l-.01.01h-.02l-.01.01h-.01l-.01.01h-.01l-.01.01-.01.01-.01.01h-.01l-.01.01v.01l-.01.01h-.01v.01l-.01.01v.01l-.01.01v.01l-.01.01v.01l-.01.01v.02l-.02-.03zm-.01.04h-.01V5.7l.01.02zm3.1.27h.04l-.02.02h-.07l-.01.01h-.16l-.02.01h-.22l-.02.01h-.05V6h.08l.02-.01h.21l.01-.01h.16l.02-.01h.05l-.02.02zm.04 0v.02H5.2l.02-.02zm-.3-.24v-.04h.05l.01.01h.03l.01.01h.02l.01.01h.01l.01.01.01.01.02.01h.01l.01.01.01.01.01.01.01.01.01.01v.01l.01.01.01.02.01.01v.01l.01.01v.02l.01.01v.03l.01.01v.03h-.04v-.04l-.01-.01v-.02l-.01-.01V5.9l-.01-.01-.01-.01v-.01l-.01-.01-.01-.01v-.01l-.01-.01-.01-.01-.01-.01-.01-.01h-.01l-.01-.01-.01-.01h-.01l-.01-.01h-.01l-.01-.01h-.02l-.02-.01h-.05zm-.25.26h-.04V5.95l.01-.02v-.01l.01-.01v-.02l.01-.01v-.01l.01-.02.01-.01.01-.01.01-.01.01-.01.01-.01.01-.01.01-.01.01-.01.01-.01.01-.01h.01l.02-.01.01-.01h.01l.02-.01h.02l.02-.01h.04v.04h-.03l-.02.01h-.02l-.01.01h-.02l-.01.01H4.8l-.01.01h-.01l-.01.01-.01.01-.01.01-.01.01h-.01v.01l-.01.01-.01.01-.01.01v.01l-.01.02v.01l-.01.01v.02l-.01.02v.05zM4.65 6v.04l-.02-.02v-.01.01-.01h.04v.01L4.65 6zm0 .04h-.02v-.02l.02.02zm2.03-.97l.02-.04.01.02v.03l.01.01v.05l.01.01v.04l.01.02v.04l.01.02v.04l.01.01v.05l.01.01v.04l.01.02v.04l.01.01v.02h-.04v-.02l-.01-.02v-.04l-.01-.01v-.03l-.01-.02v-.04l-.01-.01v-.05l-.01-.01v-.04l-.01-.02v-.06l-.01-.01v-.05l-.01-.01v-.02l.01.02zm.02-.04l.01.01v.01l-.01-.02zm-.12.02v-.04h.05l.01.01h.03v.01h.03l-.02.04h-.01v-.01h-.03l-.01-.01h-.05zm-.25.26h-.04V5.25l.01-.02v-.01l.01-.02v-.01l.01-.01v-.01l.01-.02.01-.01.01-.01v-.01l.01-.01.01-.01.01-.01.02-.01.01-.01.01-.01.01-.01h.01l.02-.01.01-.01h.01l.02-.01h.02l.02-.01h.04v.04h-.04l-.01.01h-.02l-.01.01h-.02l-.01.01h-.01l-.01.01h-.01l-.01.01-.01.01-.01.01H6.4l-.01.01v.01l-.01.01-.01.01-.01.01v.01l-.01.02v.01l-.01.01v.01l-.01.01v.07zm.25.25v.04h-.06l-.01-.01H6.5l-.02-.01h-.01l-.01-.01h-.02l-.01-.01-.01-.01-.01-.01H6.4l-.02-.01-.01-.01-.01-.01-.01-.01v-.02l-.01-.01-.01-.01-.01-.01v-.01l-.01-.02v-.01l-.01-.02v-.01l-.01-.01V5.31h.04V5.37l.01.01v.02l.01.01v.01l.01.01v.01l.01.01.01.01.01.01v.01l.01.01.01.01h.01l.01.01.01.01.01.01h.01l.01.01h.01l.02.01h.01l.01.01H6.58zm.17-.05h.04l-.01.02h-.01v.01h-.01v.01h-.01l-.01.01h-.01l-.01.01h-.01v.01h-.02l-.01.01h-.03v.01h-.07v-.04H6.64l.01-.01h.03v-.01h.02v-.01h.01l.01-.01h.01v-.01h.01l.01-.01h.01l-.01.01zm.04 0v.01l-.01.01.01-.02zm1.09-2.22l.03.02-.03.01-.01-.02-.02-.01-.01-.01-.01-.01-.02-.01-.01-.01-.01-.01-.02-.01-.01-.01-.02-.01-.01-.01-.01-.01-.02-.01-.01-.01-.01-.01-.02-.01-.01-.02-.01-.01-.02-.01-.01-.01-.02-.01-.01-.01-.01-.01-.02-.01-.01-.01-.01-.01-.02-.01-.01-.01-.02-.01L7.47 3l-.01-.01-.02-.01.03-.03.01.01.01.01.02.01.01.01.02.01.01.01.01.01.02.01.01.01.01.01.02.01.01.01.02.01.01.01.01.01.02.01.01.01.01.02.02.01.01.01.02.01.01.01.01.01.02.01.01.01.01.01.02.01.01.01.01.01.02.01.01.01.01.01-.02.01zm.03.02l-.01.02-.02-.01.03-.01zm.02-.18h.04V3.19h-.01v.03l-.01.01v.01l-.01.01v.02h-.01v.01l-.01.01v.01h-.01v.01l-.03-.02v-.01h.01v-.02h.01v-.02h.01v-.02l.01-.01v-.02l.01-.01v-.05zm-.26-.26v-.04h.03l.02.01h.03l.01.01h.02l.01.01h.01l.02.01.01.01h.01l.01.01.01.01.01.01.01.01.01.01.01.01.01.01.01.01.01.02v.01l.01.01.01.01v.02l.01.01v.03l.01.01v.05h-.04v-.05l-.01-.01v-.03l-.01-.01v-.01l-.01-.01L7.89 3v-.01l-.01-.01-.01-.01-.01-.01v-.01l-.01-.01-.01-.01-.01-.01h-.01l-.01-.01-.01-.01h-.01l-.02-.01h-.01l-.01-.01h-.04l-.01-.01h-.03zm-.2.08l-.03.03v-.04h.01v-.01l.01-.01h.01v-.01h.01V2.9h.01l.01-.01.01-.01h.01l.01-.01.01-.01h.02v-.01h.03l.01-.01h.04l.01-.01h.02v.04h-.03v.01H7.6l-.01.01h-.02l-.01.01h-.01v.01h-.02v.01h-.01v.01h-.01l-.01.01-.01.01-.01.01-.01.01v-.02zm-.03.03l-.01-.01.01-.02v.03zm.93-.39l-.02-.03h.02l.02.01.01.02.01.01.01.01.01.02.01.01.01.01.02.01.01.02.01.01.01.01.01.01.01.02.01.01.02.01.01.02.01.01.01.01.01.02.01.01.02.01.01.01.01.02.01.01.01.01.01.02.02.01.01.01.01.02.01.01.01.01.01.02-.03.02-.01-.01-.01-.02-.01-.01-.01-.01-.01-.01-.02-.02-.01-.01-.01-.01-.01-.02-.01-.01-.01-.01-.02-.02-.01-.01-.01-.01-.01-.01-.01-.02-.01-.01-.01-.01-.02-.02-.01-.01-.01-.01-.01-.01-.01-.02-.01-.01-.02-.01-.01-.02-.01-.01-.01-.01-.01-.01-.01-.02-.01-.01-.01-.01h.02zm-.02-.03l.01-.01.01.01h-.02zm-.06.22h-.04v-.05l.01-.01v-.03l.01-.01v-.02l.01-.01v-.01h.01v-.02h.01v-.01h.01V2.6l.01-.01.01-.01.01-.01.01-.01.02.03-.01.01-.01.01v.01h-.01v.01h-.01v.02h-.01v.01l-.01.01v.02H8.3v.03l-.01.01v.05zm.25.26v.04h-.03l-.01-.01h-.03l-.01-.01h-.02l-.01-.01h-.01l-.02-.01-.01-.01h-.01l-.01-.01-.01-.01L8.35 3l-.01-.01-.01-.01-.01-.01-.01-.01-.01-.01-.01-.02-.01-.01v-.01l-.01-.01v-.02l-.01-.01v-.01l-.01-.02v-.06h.04v.05l.01.02v.02l.01.01v.01l.01.01v.01l.01.01.01.01.01.01v.01l.01.01.01.01.01.01.01.01h.01l.01.01.01.01h.01l.01.01h.02l.01.01h.04l.01.01h.02zM8.71 3l.03-.02v.03h-.01v.01h-.01l-.01.01H8.7l-.01.01h-.01v.01h-.02l-.01.01h-.02v.01h-.04l-.01.01h-.04v-.04h.04l.01-.01h.03l.01-.01h.02v-.01h.02V3h.01l.01-.01h.01v-.01h.01l.01-.01-.01.03zm.03-.02l.02.01-.02.01v-.02zM5.34.06L5.3.05l.03-.02.01.01h.06l.01.01h.04l.02.01h.05l.02.01h.01l.02.01h.04l.01.01h.02l.02.01h.03l.02.01h.01l.02.01h.01l.02.01h.02l.01.01h.02l.02.01h.01l.02.01-.02.04-.01-.01h-.02L5.81.18h-.02L5.78.17h-.02L5.74.16h-.01L5.71.15H5.7L5.68.14h-.02L5.65.13h-.04L5.6.12h-.02L5.56.11h-.03L5.51.1h-.03L5.46.09h-.05L5.39.08h-.05L5.32.07l.02-.01zM5.3.05l.01-.02h.02L5.3.05zm.04.05H5.3V.05l.04.01V.1zm.26.26V.4h-.03L5.55.39h-.03L5.51.38h-.02L5.48.37h-.01L5.45.36 5.44.35h-.01L5.42.34 5.41.33 5.4.32 5.39.31 5.38.3 5.37.29 5.36.28 5.35.27 5.34.25V.24L5.33.23 5.32.22V.2L5.31.19V.16L5.3.15V.1h.04v.05l.01.02v.02l.01.01v.01l.01.01.01.01v.01l.01.01.01.01.01.01v.01l.01.01.01.01.01.01h.01l.01.01.01.01h.01l.02.01h.01l.01.01h.04l.01.01h.03zM5.85.2l.02-.04.01.02V.2l-.01.01v.01l-.01.01v.01l-.01.01v.01l-.01.01-.01.01-.01.01V.3l-.01.01H5.8l-.01.01-.01.01-.01.01-.01.01-.01.01h-.01l-.02.01h-.01L5.7.38h-.02l-.01.01h-.04L5.62.4H5.6V.36h.03l.01-.01h.03l.01-.01h.02l.01-.01h.01l.01-.01.01-.01h.01L5.76.3l.01-.01.01-.01.01-.01V.26h.01l.01-.01V.24l.01-.01V.22l.01-.01V.2l.01-.01V.17l.01.03zm.02-.04l.01.01v.01L5.87.16zM3.73.3l.01-.04.02.01v.02l.01.01.01.01v.01l.01.01v.01h.01v.01l.01.01v.01h.01l.01.01v.01l.01.01.01.01.01.01.01.01.01.01h.01v.01l.01.01h.01l.01.01.01.01h.01l.01.01.01.01-.03.03V.52h-.01L3.91.51H3.9L3.89.5 3.88.49 3.87.48 3.86.47h-.01L3.84.46V.45L3.83.44h-.01V.43L3.81.42 3.8.41 3.79.4 3.78.39V.38L3.77.37 3.76.36 3.75.35V.34L3.74.33V.32L3.73.31V.29h-.01l.01.01zm.01-.04h.01l.01.01-.02-.01zm-.07.03V.25H3.73v.01h.01L3.73.3V.29H3.67zm-.26.26h-.04V.53l.01-.01V.47l.01-.01V.44L3.4.43V.42L3.41.4l.01-.01V.38l.01-.01.01-.01.01-.01.01-.01.01-.01.01-.01.01-.01L3.5.3l.02-.01.01-.01h.01l.01-.01h.02l.01-.01h.03l.01-.01h.05v.04h-.05L3.61.3h-.03l-.01.01h-.01l-.01.01-.01.01h-.01l-.01.01-.01.01-.01.01h-.01l-.01.01-.01.01-.01.01V.4l-.01.01-.01.01v.01l-.01.02v.01l-.01.01v.04l-.01.01v.03zm.26.25v.04H3.61L3.6.83h-.02L3.57.82h-.02L3.54.81h-.01L3.52.8 3.5.79 3.49.78 3.48.77 3.47.76 3.46.75 3.45.74 3.44.73 3.43.72 3.42.71V.7L3.41.69 3.4.67V.66L3.39.65V.63L3.38.62V.58L3.37.56V.55h.04v.02l.01.01v.04l.01.01v.02l.01.01v.01l.01.01.01.01V.7l.01.01.01.01.01.01.01.01h.01l.01.01.01.01h.01l.01.01.01.01h.01l.01.01h.03l.01.01h.05zm.26-.25h.04v.01l-.01.02v.04l-.01.01v.02l-.01.01v.01l-.01.02-.01.01v.01l-.01.01-.01.01-.01.01-.01.01-.01.01-.01.01-.01.01-.01.01-.02.01-.01.01H3.8l-.02.01h-.01l-.01.01h-.02l-.01.01h-.06V.8h.05l.01-.01h.03l.01-.01h.01l.01-.01.01-.01h.01l.01-.01.01-.01h.01l.01-.01.01-.01.01-.01.01-.01V.69l.01-.01.01-.01V.66l.01-.01V.63l.01-.01V.58l.01-.01V.55zm0-.02L3.96.5v.02h.01v.03h-.04V.52L3.92.51l.01.02zM3.96.5v.01V.5zM1.08 1.92l-.03.03v-.02l.01-.02.01-.01.01-.01.02-.02.01-.01.01-.01.01-.02.01-.01.01-.01.01-.02.02-.01.01-.01.01-.02.01-.01.01-.01.01-.02.01-.01.02-.01.01-.02.01-.01.01-.01.01-.01.01-.02.01-.01.02-.01.01-.02.01-.01.01-.01.01-.01.01-.02.01-.01.01-.01.03.02-.01.02-.01.01-.01.01-.01.02-.01.01-.01.01-.02.01-.01.02-.01.01-.01.01-.01.01-.01.02-.01.01-.01.01-.02.02-.01.01-.01.01-.01.02-.01.01-.01.01-.01.01-.02.02-.01.01-.01.01-.01.02-.01.01-.01.01-.01.02-.02.01-.01.01-.01.02-.01.01v-.03zm-.03.03l-.01-.01.01-.01v.02zm.2.04v.04h-.02l-.01-.01h-.05v-.01h-.03L1.13 2h-.01l-.01-.01H1.1l-.01-.01h-.01v-.01h-.01l-.01-.01-.01-.01.03-.03v.01h.01l.01.01.01.01h.01v.01h.02v.01h.03v.01h.05v.01h.03zm.25-.26h.04v.06l-.01.01v.02l-.01.01v.01l-.01.02v.01l-.01.01-.01.01-.01.02-.01.01-.01.01-.01.01-.01.01-.01.01-.01.01h-.01l-.01.01-.01.01-.02.01h-.01l-.01.01h-.02l-.01.01h-.06l-.01.01v-.04h.01l.01-.01h.04l.01-.01h.03l.01-.01h.01l.01-.01.01-.01h.01l.01-.01.01-.01.01-.01.01-.01v-.01l.01-.01.01-.01.01-.01v-.01l.01-.01v-.01l.01-.01v-.03l.01-.01v-.05zm-.06-.2l-.03-.02h.04v.01h.01v.01h.01v.01l.01.01.01.01.01.01v.01l.01.01v.02h.01v.02h.01v.03l.01.01V1.73H1.5V1.67h-.01v-.03l-.01-.01v-.01l-.01-.01V1.6l-.01-.01v-.01h-.01v-.01h-.01v-.01h-.01v-.01h-.01v-.01l.02-.01zm-.03-.02l.02-.02.01.02h-.03zM1.25 3l.02.03-.01.01-.01.01-.01.01-.01.01h-.01l-.01.01-.02.01-.01.01-.01.01-.01.01-.01.01-.01.01-.01.01h-.01l-.01.01-.01.01-.01.01-.02.01-.01.01-.01.01-.01.01-.01.01h-.01l-.01.01-.01.01-.01.01-.01.01-.01.01-.01.01-.01.01-.01.01-.01.01-.03-.03.01-.01.01-.01.01-.01.01-.01.01-.01.01-.01.02-.01.01-.01H1l.01-.01.01-.01.01-.01.01-.01.01-.01.01-.01.01-.01.01-.01.01-.01h.01l.01-.01.02-.01.01-.01.01-.01.01-.01.01-.01.01-.01.01-.01.01-.01h.02l.01-.01.01-.01.01-.01zm.08-.04l.03-.02v.03h-.01l-.01.01h-.01v.01h-.01V3h-.01l-.01.01h-.01v.01h-.01v.01h-.01L1.25 3v-.01h.01l.01-.01h.01v-.01h.01v-.01h.01l.01-.01h.01v-.01h.01v-.01.03zm.03-.02l.01.01-.01.02v-.03zm-.23-.07v-.04h.07v.01h.03l.01.01h.01l.01.01h.01l.01.01h.01v.01h.01l.01.01.01.01h.01v.01h.01v.01l.01.01.01.01-.03.02h-.01v-.01h-.01v-.01H1.3v-.01h-.01v-.01h-.01v-.01h-.01l-.01-.01h-.01v-.01h-.02l-.01-.01H1.2l-.01-.01H1.13zm-.26.25H.83v-.04l.01-.02v-.03l.01-.01v-.01l.01-.02.01-.01v-.01l.01-.01.01-.02.01-.01.01-.01.01-.01.01-.01.01-.01.01-.01h.01l.01-.01.02-.01H1l.01-.01.02-.01h.02l.02-.01h.06v.04h-.07l-.01.01h-.01l-.01.01h-.01L1 2.9H.99l-.01.01-.01.01H.96l-.01.01v.01l-.01.01-.01.01-.01.01-.01.01v.01L.9 3v.01l-.01.01v.01l-.01.02v.02l-.01.01v.04zm.03.17l.03.03-.03-.01-.01-.01v-.01H.88v-.01H.87v-.02l-.01-.01v-.01H.85v-.03H.84v-.03l-.01-.01v-.05h.04v.05h.01v.04h.01v.02l.01.01v.01h.01v.02h.01v.01h.01v.01H.9zm.03.03l-.02.01-.01-.02.03.01zm1.27-1l.02.03-.01.01-.01.01h-.01l-.01.01-.01.01h-.01v.01h-.01l-.01.01h-.01l-.01.01h-.01v.01H2.1l-.01.01h-.01v.01h-.01l-.01.01-.01.01h-.01v.01h-.01l-.01.01h-.01v.01H2l-.01.01-.02-.04h.01v-.01h.01L2 2.45h.01v-.01h.01l.01-.01h.01l.01-.01h.01v-.01h.01l.01-.01.01-.01h.01l.01-.01.01-.01h.01v-.01h.01l.01-.01h.01v-.01h.01l.01-.01.01-.01h.01zm.02.03zm0 0l-.02-.03.02.03zm-.02-.03zm.02.03l-.02-.03h.01l.01.03zm0 0zm.18-.05l-.02.03h-.02l-.01-.01h-.04l-.01.01h-.03l-.01.01h-.02l-.01.01h-.01l-.02-.03.01-.01h.02V2.3h.02l.01-.01h.04l.01-.01h.04l.01.01h.03v.01h.01zm-.02.03l-.02-.01.02.01zm.06.13l.03.01h-.03l-.01-.01V2.4h-.01v-.02l-.01-.01v-.01H2.4v-.01h-.01v-.01h-.01v-.01l.02-.03.01.01h.01v.01h.01v.01l.01.01.01.01v.02h.01v.03h.01V2.46h-.03zm.03.01l-.03.07v-.07h.03zm0-.13h.04v.03H2.5v.05h-.01v.03h-.01v.02h-.01l-.03-.01v-.02h.01v-.02l.01-.01v-.03l.01-.01v-.03zm-.26-.26v-.04h.05l.01.01h.03l.01.01h.02l.01.01h.01l.01.01.02.01.01.01.01.01.01.01.01.01.01.01.01.01.01.01.01.01v.01l.01.01.01.02v.01l.01.01v.02l.01.01v.03l.01.01v.04h-.04V2.3l-.01-.02v-.02l-.01-.01v-.01l-.01-.02v-.01l-.01-.01-.01-.01v-.01l-.01-.01-.01-.01-.01-.01-.01-.01h-.01l-.01-.01-.01-.01h-.01l-.01-.01-.01-.01h-.01l-.01-.01h-.02l-.02-.01h-.05zm-.26.26h-.03v-.08l.01-.01v-.02l.01-.01v-.01l.01-.02.01-.01.01-.01v-.01l.01-.01.01-.01.01-.01.01-.01.01-.01.01-.01.02-.01.01-.01.01-.01h.01l.02-.01h.01l.01-.01h.03l.02-.01h.04v.04h-.05l-.01.01h-.03l-.01.01H2.1l-.01.01-.01.01h-.01l-.01.01-.01.01h-.01l-.01.01-.01.01-.01.01v.01L2 2.19l-.01.01v.01l-.01.01-.01.01v.03l-.01.01v.04l-.01.01v.02zm.02.13l.02.04-.02-.01h-.01v-.01l-.01-.01v-.01l-.01-.01v-.02h-.01v-.03h-.01v-.07h.03v.01l.01.01v.05h.01v.02l.01.01v.01l.01.01v.01H2v.01l-.03-.01zm.02.04l-.01.01-.01-.02.02.01zM6.53 3.9h-.04v-.04l-.01-.01v-.02l-.01-.01V3.8l-.01-.01v-.01l-.01-.01v-.01l-.01-.01-.01-.01-.01-.01-.01-.01v-.01H6.4l-.01-.01-.01-.01-.01-.01h-.01l-.02-.01h-.01l-.01-.01H6.3l-.02-.01h-.05v-.04H6.29l.02.01h.01l.01.01h.02l.01.01h.01l.02.01.01.01.01.01.01.01h.01l.01.01.01.01.01.02.01.01.01.01.01.01v.01l.01.02.01.01v.01l.01.02v.02l.01.02v.04zm-.3.3v-.04h.05l.02-.01h.02l.01-.01h.01l.02-.01.01-.01h.01l.01-.01.01-.01.01-.01.01-.01.01-.01.01-.01.01-.01v-.01l.01-.01v-.01L6.47 4v-.01l.01-.01v-.02l.01-.02V3.9h.04v.05l-.01.01v.03l-.01.02v.01l-.01.01-.01.02v.01l-.01.01-.01.01-.01.01-.01.01-.01.01-.01.01-.01.01-.01.01-.01.01-.01.01h-.02l-.01.01-.01.01h-.02l-.01.01h-.03l-.01.01h-.05zm-.29-.3h.04V3.97l.01.01v.01L6 4v.02l.01.01v.01l.01.01.01.01v.01l.01.01.01.01h.01l.01.01.01.01.01.01h.01l.01.01.01.01h.01l.01.01h.03l.01.01h.05v.04h-.04l-.02-.01h-.03l-.01-.01h-.01l-.02-.01-.01-.01h-.01l-.01-.01-.01-.01-.02-.01-.01-.01-.01-.01-.01-.01L6 4.09v-.01l-.01-.01-.01-.01-.01-.02v-.01l-.01-.01-.01-.01v-.03l-.01-.02V3.9zm.29-.29v.04h-.05l-.01.01h-.03l-.01.01h-.01l-.01.01H6.1l-.01.01-.01.01-.01.01h-.01l-.01.01-.01.01-.01.01v.01l-.01.01-.01.01v.01L6 3.79v.01l-.01.02v.01l-.01.01V3.9h-.04v-.06l.01-.01V3.8l.01-.01.01-.01v-.02l.01-.01.01-.01.01-.01v-.01l.01-.02.01-.01.01-.01h.01l.02-.01.01-.01.01-.01.01-.01h.01l.02-.01h.01l.01-.01h.02l.01-.01H6.23zM3.99 5.43h-.04v-.07l-.01-.01v-.01l-.01-.01v-.01l-.01-.01v-.02l-.01-.01-.01-.01v-.01h-.01l-.01-.01-.01-.01-.01-.01-.01-.01h-.01l-.01-.01-.01-.01h-.01l-.01-.01h-.01l-.02-.01h-.02l-.01-.01H3.7v-.04h.03l.01.01h.03l.01.01h.02l.01.01h.02l.01.01h.01l.01.01.01.01.02.01.01.01.01.01.01.01.01.01v.01l.01.01.01.01.01.02v.01l.01.01v.02l.01.01v.01l.01.02v.06zm-.29.29v-.03l.01-.01h.05l.01-.01h.02l.01-.01h.01l.01-.01h.01l.01-.01.01-.01h.01l.01-.01.01-.01.01-.01.01-.01v-.01l.01-.01.01-.01v-.01l.01-.01v-.01l.01-.01V5.5l.01-.01V5.43h.04v.06l-.01.01v.02l-.01.01v.01l-.01.02v.01l-.01.01-.01.01-.01.02v.01l-.01.01-.01.01-.01.01-.01.01-.02.01h-.01l-.01.01-.01.01-.01.01h-.02l-.01.01h-.03l-.01.01H3.7zm-.3-.29h.04v.04l.01.01v.02l.01.02v.01l.01.01v.01l.01.01v.01l.01.01.01.01.01.01.01.01v.01l.01.01h.01l.01.01.01.01h.01l.02.01h.01l.01.01h.01l.01.01h.05l.02.01v.03H3.64l-.02-.01H3.6l-.02-.01h-.01l-.01-.01-.02-.01-.01-.01h-.01l-.01-.01-.01-.01-.01-.01-.01-.01-.01-.01-.01-.01-.01-.02-.01-.01v-.01l-.01-.01-.01-.02v-.01l-.01-.01v-.03l-.01-.02v-.04zm.3-.3v.04h-.04l-.01.01h-.03l-.01.01H3.6l-.01.01h-.02l-.01.01-.01.01h-.01l-.01.01-.01.01v.01l-.01.01H3.5l-.01.01-.01.01v.02l-.01.01v.01l-.01.01v.01l-.01.01v.03l-.01.01v.04H3.4v-.05l.01-.01v-.03l.01-.01v-.02l.01-.01.01-.01v-.02l.01-.01.01-.01.01-.01.01-.01.01-.01.01-.01.01-.01.01-.01.01-.01.01-.01h.02l.01-.01h.01l.02-.01h.01l.01-.01h.03l.02-.01h.03zm-.56-.52H3.1V4.54l-.01-.01v-.01l-.01-.01v-.02l-.01-.01v-.01l-.01-.01-.01-.01v-.01l-.01-.01-.01-.01h-.01l-.01-.01L3 4.4l-.01-.01h-.01l-.01-.01-.01-.01h-.01l-.01-.01h-.03l-.01-.01h-.05v-.04h.04l.02.01h.03l.01.01h.01l.02.01h.01l.01.01.01.01.01.01.02.01.01.01.01.01.01.01.01.01v.01l.01.01.01.01.01.01v.02l.01.01.01.01v.03l.01.02v.06zm-.29.29v-.04h.05l.01-.01h.03l.01-.01h.01l.01-.01h.01l.01-.01.01-.01.01-.01h.01l.01-.01.01-.01.01-.01v-.01l.01-.01.01-.01v-.01l.01-.01v-.01l.01-.02v-.01l.01-.01V4.61h.04v.06l-.01.01v.03l-.01.01-.01.01v.02l-.01.01-.01.01-.01.01v.01l-.01.01-.01.01-.01.01-.01.01-.02.01-.01.01-.01.01-.01.01h-.01l-.02.01h-.01l-.01.01h-.02l-.01.01H2.85zm-.3-.29h.04v.03l.01.02v.02l.01.01v.02l.01.01v.01l.01.01v.01l.01.01.01.01.01.01.01.01v.01h.01l.01.01.01.01.01.01h.01l.02.01h.01l.01.01h.02l.02.01h.05v.04H2.79l-.02-.01h-.01l-.01-.01h-.02l-.01-.01h-.01l-.02-.01-.01-.01-.01-.01-.01-.01-.01-.01-.01-.01-.01-.01-.01-.01-.01-.01-.01-.01-.01-.01v-.01l-.01-.02-.01-.01v-.01l-.01-.02v-.02l-.01-.02v-.04zm.3-.3v.04H2.8l-.02.01h-.02l-.01.01h-.01l-.02.01-.01.01H2.7l-.01.01-.01.01-.01.01-.01.01-.01.01-.01.01-.01.01v.01l-.01.01v.01l-.01.02v.01l-.01.01v.02l-.01.02v.04h-.04v-.05l.01-.01v-.03l.01-.02v-.01l.01-.01.01-.02v-.01l.01-.01.01-.01.01-.01.01-.01.01-.01.01-.01.01-.01.01-.01.01-.01.01-.01.02-.01h.01l.01-.01h.02l.01-.01h.03l.01-.01h.05zM2.74.88H2.7V.84L2.69.83V.81L2.68.79V.78L2.67.77V.76L2.66.75V.74L2.65.73 2.64.72 2.63.71 2.62.7V.69L2.61.68H2.6L2.59.67 2.58.66h-.02L2.55.65h-.01L2.53.64h-.01L2.51.63h-.07V.59H2.5l.02.01h.02l.02.01.01.01h.01l.02.01.01.01.01.01h.01l.01.01.01.01.01.01.01.01.01.02.01.01.01.01v.01l.01.01.01.02v.01l.01.01v.03l.01.02v.04zm-.3.3v-.04h.04l.01-.01h.03l.01-.01h.01l.01-.01h.01l.02-.01h.01l.01-.01.01-.01.01-.01v-.01h.01l.01-.01.01-.01.01-.01v-.01L2.67 1V.99l.01-.01V.97l.01-.01V.93L2.7.92V.88h.04v.05l-.01.01v.03l-.01.01V1l-.01.01-.01.01v.02l-.01.01-.01.01-.01.01-.01.01-.01.01-.01.01-.01.01-.01.01-.01.01-.01.01h-.02l-.01.01-.01.01h-.02l-.01.01H2.5l-.01.01h-.05zm-.29-.3h.04v.07l.01.01v.01l.01.01v.01l.01.01v.02l.01.01.01.01v.01l.01.01h.01l.01.01.01.01.01.01.01.01h.01l.01.01h.01l.01.01h.01l.02.01h.02l.01.01h.04v.04H2.4l-.02-.01h-.03l-.01-.01h-.01l-.02-.01-.01-.01h-.01l-.01-.01-.01-.01-.02-.01-.01-.01-.01-.01-.01-.01-.01-.01v-.01l-.01-.01-.01-.01-.01-.02v-.01L2.17 1 2.16.98V.96L2.15.94V.88zm.29-.29v.04H2.38l-.01.01h-.02l-.01.01h-.01l-.01.01h-.01L2.3.67l-.01.01h-.01l-.01.01-.01.01-.01.01-.01.01v.01l-.01.01-.01.01v.01l-.01.01v.01L2.2.79v.02l-.01.01V.88h-.04V.82l.01-.01V.78l.01-.01.01-.02V.74l.01-.01.01-.01.01-.01V.69l.01-.01.01-.01.01-.01.01-.01h.02l.01-.01.01-.01.01-.01h.01l.02-.01.01-.01h.03l.01-.01H2.44zm5.19 1.49H7.6v-.01l-.01-.01v-.04l-.01-.01v-.03l-.01-.01-.01-.01v-.01l-.01-.01-.01-.01v-.01l-.01-.01-.01-.01-.01-.01-.01-.01h-.01l-.01-.01-.01-.01h-.01l-.01-.01h-.01l-.01-.01h-.01l-.02-.01H7.34v-.04h.06l.01.01h.03l.01.01.02.01h.01l.01.01.01.01.02.01h.01l.01.01.01.01.01.01.01.01.01.02v.01l.01.01.01.01.01.01v.02l.01.01V2l.01.01V2.08zm-.29.3v-.04h.04l.01-.01h.03l.01-.01h.01l.01-.01h.01l.01-.01h.01l.01-.01.01-.01.01-.01.01-.01h.01l.01-.01v-.01l.01-.01.01-.01v-.01l.01-.02.01-.01v-.02l.01-.01v-.04l.01-.01v-.02h.03v.08l-.01.01v.01l-.01.02v.01l-.01.01-.01.02-.01.01v.01l-.01.01-.01.01-.01.01-.01.01-.01.01-.01.01-.02.01-.01.01h-.01l-.01.01-.02.01h-.01l-.01.01H7.4l-.02.01h-.04zm-.3-.3h.04v.04l.01.01v.03l.01.01v.01l.01.01v.02l.01.01.01.01v.01l.01.01.01.01h.01l.01.01.01.01.01.01.01.01h.01l.01.01h.01l.01.01h.01l.01.01h.03l.01.01h.04v.04h-.05l-.01-.01h-.03l-.01-.01h-.02l-.01-.01-.01-.01h-.01l-.02-.01-.01-.01-.01-.01-.01-.01-.01-.01-.01-.01-.01-.01-.01-.01-.01-.01v-.01l-.01-.02-.01-.01V2.2l-.01-.02v-.01l-.01-.01v-.03l-.01-.02v-.03zm.3-.29v.04h-.07l-.01.01h-.01l-.01.01h-.01l-.01.01h-.01l-.01.01-.01.01h-.01l-.01.01-.01.01-.01.01-.01.01-.01.01v.01l-.01.01-.01.01v.01l-.01.01v.01l-.01.02v.02l-.01.01v.04h-.04v-.03l.01-.01v-.03L7.06 2v-.02l.01-.01v-.02l.01-.01.01-.01v-.01l.01-.01.01-.02.01-.01.01-.01.01-.01.01-.01h.01l.01-.01.02-.01.01-.01h.01l.01-.01.02-.01h.02l.02-.01h.06zm-.69-.73h-.04v-.05L6.6.99V.97L6.59.96V.95L6.58.94 6.57.92V.91L6.56.9 6.55.89h-.01V.88L6.53.87 6.52.86 6.51.85 6.5.84h-.01L6.48.83h-.01L6.45.82h-.01L6.43.81h-.02L6.39.8h-.04V.76h.03l.02.01h.03l.01.01h.02l.01.01h.01L6.5.8h.01l.01.01.01.01.01.01.01.01.01.01.01.01.01.01.01.01.01.01.01.01v.02l.01.01.01.01v.02l.01.01V1l.01.01v.05zm-.3.29v-.04H6.42l.01-.01h.01l.01-.01h.02l.01-.01h.01l.01-.01.01-.01h.01l.01-.01.01-.01v-.01l.01-.01.01-.01.01-.01v-.01l.01-.01.01-.01v-.01l.01-.01v-.03l.01-.01v-.05h.04v.04l-.01.02v.03l-.01.01v.01l-.01.02-.01.01v.01l-.01.01-.01.02-.01.01-.01.01-.01.01-.01.01-.01.01-.01.01h-.01l-.01.01-.01.01h-.02l-.01.01-.01.01h-.03l-.02.01h-.06zm-.29-.29h.04v.05l.01.01v.03l.01.01v.01l.01.01v.01l.01.01.01.01.01.01v.01l.01.01.01.01.01.01h.01l.01.01.01.01h.01l.01.01h.01l.02.01h.01l.01.01H6.35v.04h-.06l-.01-.01h-.03l-.01-.01-.01-.01h-.02l-.01-.01-.01-.01h-.01l-.01-.01-.02-.01-.01-.01v-.01l-.01-.01-.01-.02-.01-.01-.01-.01-.01-.01v-.01l-.01-.02v-.01l-.01-.01v-.02l-.01-.01V1.06zm.29-.3V.8h-.03L6.3.81h-.02l-.01.01h-.02l-.01.01h-.01l-.01.01h-.01L6.2.85l-.01.01-.01.01-.01.01-.01.01-.01.01-.01.01-.01.01v.02l-.01.01v.01l-.01.01v.02l-.01.02v.05h-.04V1l.01-.02V.97l.01-.01V.94l.01-.01V.92L6.1.9l.01-.01.01-.01.01-.01.01-.01V.85l.02-.01.01-.01.01-.01.01-.01L6.2.8h.01l.02-.01h.01l.01-.01h.02l.01-.01h.03l.01-.01h.03zm-.21 1.57H6.1v-.04l-.01-.02v-.02l-.01-.01v-.01l-.01-.02V2.2l-.01-.01-.01-.01v-.01l-.01-.01-.01-.01-.01-.01h-.01v-.01L6 2.12l-.01-.01h-.02l-.01-.01-.01-.01h-.01l-.01-.01h-.02l-.02-.01h-.05v-.04h.05l.01.01h.03l.01.01h.02l.01.01.01.01H6l.01.01.01.01.01.01.01.01.01.01.01.01.01.01.01.01.01.01v.01l.01.01.01.02v.01l.01.01v.02l.01.01v.03l.01.02v.03zm-.3.29v-.04h.05l.02-.01h.02l.01-.01h.01l.01-.01h.01l.02-.01.01-.01.01-.01.01-.01.01-.01.01-.01.01-.01v-.01l.01-.01.01-.01v-.01l.01-.01v-.02l.01-.01v-.02l.01-.02v-.03h.04v.03l-.01.01v.03l-.01.01v.02l-.01.01v.01l-.01.02-.01.01v.01l-.01.01-.01.01-.01.01-.01.02-.01.01h-.01l-.01.01-.01.01-.01.01-.02.01h-.01l-.01.01h-.02l-.01.01h-.01l-.02.01h-.06zm-.29-.29h.03l.01.01v.05l.01.01v.03l.01.01.01.01v.01l.01.01.01.01v.01l.01.01.01.01.01.01h.01l.01.01.01.01.01.01h.01l.01.01h.01l.01.01h.03l.01.01h.05v.04h-.06l-.01-.01h-.02l-.01-.01h-.01l-.02-.01H5.7l-.01-.01-.01-.01-.02-.01-.01-.01h-.01l-.01-.01-.01-.02-.01-.01-.01-.01v-.01l-.01-.01-.01-.01-.01-.02v-.01l-.01-.01v-.02l-.01-.01V2.33zm.29-.3v.04h-.05l-.01.01h-.03l-.01.01h-.01l-.01.01-.01.01H5.7l-.01.01-.01.01-.01.01h-.01l-.01.01-.01.01v.01l-.01.01-.01.01v.01l-.01.01-.01.02v.02l-.01.01v.05l-.01.02h-.03v-.08l.01-.01v-.02l.01-.01V2.2l.01-.02.01-.01.01-.01v-.01l.01-.01.01-.01.01-.01.01-.01.01-.01.01-.01.02-.01.01-.01h.01l.01-.01.02-.01h.01l.01-.01h.03l.02-.01h.04zM5.56 5h-.04v-.04l-.01-.02v-.02l-.01-.01V4.9l-.01-.01v-.02l-.01-.01-.01-.01v-.01l-.01-.01-.01-.01-.01-.01h-.01l-.01-.01v-.01l-.01-.01h-.02l-.01-.01-.01-.01h-.02l-.01-.01h-.01l-.02-.01h-.05V4.7h.05l.01.01h.03l.01.01h.02l.01.01.01.01h.02l.01.01.01.01.01.01.01.01.01.01.01.01.01.01.01.01.01.01v.01l.01.02.01.01v.01l.01.01v.02l.01.01v.03l.01.02V5zm-.3.29v-.04h.07l.01-.01h.01l.01-.01h.01l.01-.01h.01l.02-.01.01-.01v-.01h.01l.01-.01.01-.01.01-.01.01-.01v-.01l.01-.01.01-.01v-.01l.01-.01v-.02l.01-.01v-.02l.01-.01V5h.04v.03l-.01.01v.03l-.01.01v.02l-.01.01v.01l-.01.02-.01.01v.01l-.01.01-.01.01-.01.02-.01.01-.01.01h-.01l-.01.01-.01.01-.01.01-.02.01h-.01l-.01.01h-.02l-.01.01h-.01l-.02.01h-.06zM4.97 5H5v.01l.01.01v.04l.01.01v.03l.01.01.01.01v.01l.01.01.01.01v.01l.01.01.01.01.01.01h.01l.01.01.01.01.01.01h.01l.01.01h.01l.01.01h.02l.01.01H5.26v.04H5.2l-.01-.01h-.02l-.01-.01h-.01l-.02-.01h-.01l-.01-.01-.01-.01-.02-.01-.01-.01h-.01l-.01-.01-.01-.01-.01-.02-.01-.01v-.01l-.01-.01L5 5.14l-.01-.02v-.01l-.01-.01v-.02l-.01-.01V5zm.29-.3v.04h-.05l-.01.01h-.01l-.02.01h-.02l-.01.01-.01.01h-.01l-.01.01-.01.01-.01.01h-.01l-.01.01-.01.01v.01l-.01.01-.01.01v.01l-.01.02-.01.01v.02l-.01.01v.04L5 4.98V5h-.03v-.08l.01-.01v-.02l.01-.01v-.01L5 4.86l.01-.02.01-.01v-.01l.01-.01.01-.01.01-.01.01-.01.01-.01.01-.01.02-.01.01-.01h.01l.01-.01.02-.01h.01l.01-.01h.03l.02-.01h.04zm.15-1.31h-.04v-.04l-.01-.01v-.03l-.01-.01v-.01l-.01-.01v-.01l-.01-.01v-.01l-.01-.01-.01-.01-.01-.01-.01-.01V3.2l-.01-.01h-.01l-.01-.01-.01-.01h-.01l-.02-.01-.01-.01h-.02l-.01-.01h-.04l-.01-.01h-.02V3.1h.08l.01.01h.01l.02.01h.01l.01.01.02.01.01.01h.01l.01.01.01.01.01.01.01.01.01.01.01.01.01.02.01.01v.01l.01.01.01.02v.01l.01.01v.03l.01.02v.04zm-.3.3v-.04h.04l.02-.01h.02l.01-.01h.01l.01-.01h.02l.01-.01.01-.01h.01l.01-.01.01-.01v-.01l.01-.01.01-.01h.01l.01-.01v-.02l.01-.01V3.5l.01-.01v-.01l.01-.01v-.03l.01-.01v-.04h.04v.05l-.01.01v.03l-.01.01v.02l-.01.01-.01.01v.01l-.01.02-.01.01-.01.01-.01.01-.01.01-.01.01-.01.01-.01.01-.01.01h-.01l-.02.01-.01.01h-.01l-.02.01H5.2l-.01.01h-.03l-.02.01h-.03zm-.29-.3h.04v.07l.01.01v.01l.01.01v.01l.01.01v.01l.01.02.01.01.01.01.01.01.01.01.01.01.01.01h.01l.01.01.01.01H5l.01.01h.01l.02.01h.02l.01.01h.04v.04h-.03l-.01-.01h-.03l-.01-.01h-.02L5 3.66h-.02l-.01-.01-.01-.01h-.01l-.01-.01-.02-.01-.01-.01-.01-.01-.01-.01-.01-.01v-.01l-.01-.01-.01-.01-.01-.02v-.01l-.01-.01v-.02l-.01-.01v-.01l-.01-.02v-.06zm.29-.29v.03H5.1l-.01.01h-.04l-.01.01h-.03L5 3.16l-.01.01h-.01l-.01.01-.01.01h-.01l-.01.01-.01.01-.01.01-.01.01v.01l-.01.01-.01.01v.01l-.01.01v.01l-.01.01v.01l-.01.02V3.39h-.04v-.06l.01-.01V3.3l.01-.01v-.01l.01-.02v-.01l.01-.01.01-.01.01-.02V3.2l.01-.01.01-.01.01-.01.01-.01.02-.01h.01l.01-.01.01-.01.01-.01H5l.01-.01h.02l.01-.01H5.11zm.25-1.88h-.04v-.01l-.01-.02v-.03l-.01-.02v-.02l-.01-.01V1.1l-.01-.01-.01-.01-.01-.01v-.01l-.01-.01-.01-.01-.01-.01-.01-.01-.01-.01H5.2L5.19 1 5.18.99h-.01L5.16.98h-.01L5.14.97H5.1L5.09.96h-.03V.92h.03l.01.01h.03l.02.01h.01l.01.01h.02l.01.01.01.01h.01l.02.01.01.01.01.01.01.01.01.01.01.01.01.01v.01l.01.02.01.01.01.01v.01l.01.02v.01l.01.02v.05l.01.02zm-.3.3v-.04h.03l.01-.01h.04l.01-.01h.01l.01-.01h.01l.01-.01.01-.01h.01l.01-.01.01-.01.01-.01.01-.01.01-.01v-.01l.01-.01.01-.01.01-.01v-.01l.01-.01V1.3l.01-.02v-.03l.01-.02v-.01h.04l-.01.01V1.29l-.01.02v.01l-.01.01v.02l-.01.01-.01.01-.01.02v.01l-.01.01-.01.01-.01.01-.01.01-.01.01-.01.01-.02.01h-.01l-.01.01-.01.01h-.02l-.01.01h-.01l-.02.01h-.04l-.02.01h-.01zm-.3-.3h.04v.03l.01.01v.04l.01.01v.01l.01.01v.01l.01.01.01.01v.01l.01.01.01.01.01.01.01.01.01.01.01.01h.01l.01.01.01.01h.01l.01.01h.01l.01.01h.04l.01.01h.03v.04h-.02l-.01-.01h-.04l-.02-.01h-.01l-.02-.01h-.01l-.01-.01-.01-.01h-.02l-.01-.01-.01-.01-.01-.01-.01-.01-.01-.01-.01-.01-.01-.01-.01-.01v-.02l-.01-.01-.01-.01v-.02l-.01-.01v-.01l-.01-.02v-.03l-.01-.01v-.03zm.3-.3v.04h-.03l-.01.01h-.04l-.01.01h-.01l-.01.01h-.01L4.93 1l-.01.01h-.01l-.01.01-.01.01-.01.01-.01.01-.01.01-.01.01v.01l-.01.01-.01.01v.01l-.01.01v.01l-.01.01v.04l-.01.01v.03h-.04v-.03l.01-.02v-.02l.01-.02v-.01l.01-.02v-.01l.01-.01.01-.01v-.02l.01-.01.01-.01.01-.01.01-.01.01-.01.01-.01.01-.01.01-.01h.02l.01-.01.01-.01h.01l.02-.01h.01l.02-.01h.02l.02-.01h.03zm-1.59.76h-.04v-.03l-.01-.01V1.6l-.01-.01v-.01l-.01-.01v-.01l-.01-.01-.01-.02v-.01l-.01-.01h-.01l-.01-.01-.01-.01-.01-.01-.01-.01h-.01l-.01-.01-.01-.01h-.01l-.01-.01h-.01l-.01-.01h-.03l-.01-.01h-.04v-.04h.03l.02.01h.02l.02.01h.01l.02.01h.01l.01.01.01.01h.02l.01.01.01.01.01.01.01.01.01.01.01.01.01.01.01.01v.01l.01.02.01.01v.01l.01.02v.01l.01.01v.03l.01.02v.03zm-.3.29v-.03l.01-.01h.05l.02-.01h.02l.01-.01.01-.01h.01l.01-.01.01-.01h.01l.01-.01.01-.01.01-.01.01-.01.01-.01v-.01l.01-.01.01-.01v-.01l.01-.01v-.01l.01-.02v-.03l.01-.02v-.02h.04v.03l-.01.01v.03l-.01.02v.01l-.01.01v.02l-.01.01-.01.01v.01l-.01.02-.01.01-.01.01-.01.01-.01.01-.01.01-.01.01h-.01l-.02.01-.01.01-.01.01h-.01l-.02.01h-.01l-.02.01h-.07zm-.3-.29h.04v.01l.01.01v.04l.01.01v.03l.01.01v.01l.01.01.01.01v.01l.01.01.01.01.01.01.01.01.01.01h.01l.01.01.01.01h.01l.01.01.01.01h.02l.02.01h.05l.01.01v.03H3.1l-.02-.01h-.01l-.01-.01h-.02l-.01-.01-.01-.01-.01-.01h-.02l-.01-.01-.01-.01-.01-.01-.01-.01-.01-.01-.01-.01v-.02l-.01-.01-.01-.01-.01-.01v-.02l-.01-.01v-.01l-.01-.02v-.06l-.01-.01zm.3-.3v.04h-.04l-.01.01h-.03l-.01.01h-.01l-.01.01h-.01l-.01.01-.01.01h-.01l-.01.01-.01.01-.01.01-.01.01h-.01l-.01.01v.01l-.01.02-.01.01v.01l-.01.01v.02l-.01.01v.04l-.01.02v.01h-.04l.01-.02V1.6l.01-.01v-.01l.01-.02v-.01l.01-.01.01-.02.01-.01V1.5l.01-.01.01-.01.01-.01.01-.01.01-.01.01-.01.02-.01h.01l.01-.01.01-.01h.02l.01-.01h.01l.02-.01h.03l.01-.01h.03zm1.35 1.03h-.04v-.04l-.01-.02v-.02l-.01-.01v-.01l-.01-.01v-.02l-.01-.01v-.01l-.01-.01-.01-.01-.01-.01H4.4v-.01l-.01-.01-.01-.01-.01-.01h-.01l-.01-.01h-.02l-.01-.01h-.01l-.01-.01h-.01l-.02-.01h-.05v-.04h.05l.01.01h.03l.01.01h.02l.01.01.01.01h.02l.01.01.01.01.01.01.01.01.01.01.01.01.01.01.01.01.01.01.01.01v.02l.01.01.01.01v.02l.01.01v.03l.01.01v.05zm-.3.29v-.04h.07l.01-.01h.01l.01-.01h.01l.02-.01h.01l.01-.01.01-.01.01-.01h.01v-.01l.01-.01.01-.01.01-.01.01-.01v-.01l.01-.01v-.01l.01-.01V2.5l.01-.02v-.02l.01-.01v-.04h.04v.04l-.01.02v.02l-.01.02v.01l-.01.02-.01.01v.01l-.01.01-.01.01-.01.02-.01.01-.01.01-.01.01-.01.01H4.4l-.01.01-.01.01-.02.01h-.01l-.01.01h-.02l-.01.01H4.3l-.02.01h-.06zm-.29-.29h.04V2.47l.01.01v.02l.01.01v.01l.01.01v.01l.01.01.01.01v.01l.01.01.01.01.01.01h.01l.01.01.01.01.01.01h.01l.01.01h.01l.01.01h.02l.01.01H4.22v.04h-.06l-.01-.01h-.01l-.02-.01h-.01l-.02-.01h-.01l-.01-.01-.01-.01-.01-.01h-.02l-.01-.01-.01-.01L4 2.61l-.01-.01v-.02l-.01-.01-.01-.01-.01-.01v-.01l-.01-.02-.01-.01v-.03l-.01-.01V2.41zm.29-.3v.04h-.05l-.01.01h-.01l-.02.01h-.01l-.01.01H4.1l-.01.01h-.01l-.01.01-.01.01-.01.01-.01.01h-.01l-.01.01v.01l-.01.01-.01.01v.01l-.01.02v.01l-.01.01v.01l-.01.01v.07h-.04V2.35l.01-.02v-.02l.01-.02.01-.01v-.01l.01-.02.01-.01.01-.01v-.01L4 2.21l.01-.01.01-.01.01-.01.02-.01.01-.01.01-.01h.01l.01-.01.02-.01h.01l.02-.01h.02l.02-.01h.04zm-.87 1.13h-.04v-.01l-.01-.01v-.04l-.01-.01v-.03l-.01-.01v-.01l-.01-.01-.01-.01v-.01l-.01-.01-.01-.01-.01-.01-.01-.01-.01-.01H3.2l-.01-.01-.01-.01h-.01l-.01-.01h-.01L3.14 3h-.01l-.02-.01H3.05v-.04h.06l.01.01h.03l.01.01.02.01h.01l.01.01.02.01.01.01h.01l.01.01.01.01.01.01.01.01.01.02v.01l.01.01.01.01.01.01v.02l.01.01v.02l.01.01v.04l.01.02v.01zm-.3.3V3.5h.04l.01-.01h.03l.01-.01h.01l.01-.01h.01l.01-.01h.01l.01-.01.01-.01.01-.01.01-.01h.01l.01-.01.01-.01v-.01l.01-.01.01-.01v-.02l.01-.01v-.02l.01-.01v-.04l.01-.01v-.02h.04v.02l-.01.01v.05l-.01.01v.01l-.01.02v.01l-.01.01-.01.02-.01.01v.01l-.01.01-.01.01-.01.01-.01.01-.01.01-.01.01-.01.01-.02.01h-.01l-.01.01-.02.01h-.01l-.01.01h-.03l-.02.01h-.04zm-.3-.3h.04v.03l.01.01v.04l.01.01v.01l.01.01v.02l.01.01.01.01v.01l.01.01.01.01h.01l.01.01.01.01.01.01.01.01h.01l.01.01h.01l.01.01h.01l.01.01H3l.01.01h.04v.04H3l-.01-.01h-.03l-.01-.01h-.02l-.01-.01-.01-.01H2.9l-.02-.01-.01-.01-.01-.01-.01-.01-.01-.01-.01-.01-.01-.01-.01-.01-.01-.01V3.4l-.01-.02-.01-.01v-.01l-.01-.02v-.01l-.01-.01v-.03l-.01-.02v-.03zm.3-.29v.04H2.99L2.97 3h-.01l-.01.01h-.01l-.01.01h-.01l-.01.01-.01.01h-.01l-.01.01-.01.01-.01.01-.01.01-.01.01v.01l-.01.01-.01.01v.01l-.01.01v.01l-.01.02v.03l-.01.02v.02h-.04v-.03l.01-.01v-.03l.01-.01v-.02l.01-.01v-.02l.01-.01.01-.01v-.01l.01-.01.01-.02.01-.01.01-.01.01-.01.01-.01h.01L2.88 3l.02-.01.01-.01h.01l.01-.01.02-.01h.03l.01-.01h.06z"/></svg>