<svg xmlns="http://www.w3.org/2000/svg" width="65" height="67" fill-rule="evenodd" clip-rule="evenodd" image-rendering="optimizeQuality" shape-rendering="geometricPrecision" text-rendering="geometricPrecision" viewBox="0 0 22.51 23.11"><path fill="#C5E3D7" d="M.09 9.84l3.48 1.97.83-2.03 13.68-.03.96 2.06 3.39-1.34-3.79-6.77-7.42 1.89-5.96-2.63c-1.27.04-1.96.5-2.85 2.25L.09 9.84z"/><path fill="#2B2A29" fill-rule="nonzero" d="M3.54 11.86L.06 9.89l.06-.1 3.48 1.97.03.07-.09.03zm.09-.03l-.03.06-.06-.03.09-.03zm.83-2.03l-.83 2.03-.11-.04.83-2.03.05-.04.06.08zm-.11-.04l.01-.04h.04l-.05.04zm13.73.04L4.4 9.84v-.12l13.68-.03.05.03-.05.08zm0-.11h.03l.02.03-.05-.03zm.91 2.14l-.97-2.06.11-.05.96 2.06-.03.08-.07-.03zm.07.03l-.05.02-.02-.05.07.03zm3.39-1.34l-3.39 1.34-.04-.11 3.39-1.34.07.03-.03.08zm.03-.08l.03.06-.06.02.03-.08zm-3.79-6.77l3.79 6.77-.1.05-3.79-6.76.04-.09.06.03zm-.06-.03l.04-.01.02.04-.06-.03zm-7.42 1.89l7.42-1.89.02.12-7.41 1.88h-.04l.01-.11zm.03.11l-.02.01-.02-.01h.04zM5.28 2.9l5.97 2.63-.05.11-5.97-2.63.03-.11h.02zm-.02 0h.02-.02zm-2.8 2.33l-.1-.05.08-.16.08-.15.08-.15.08-.14.08-.13.08-.13.08-.12.08-.11.08-.11.08-.1.08-.09.08-.09.09-.09.08-.07.08-.08.09-.06.08-.07.09-.05.09-.06.09-.05.09-.04.09-.04.1-.03.1-.04.1-.02.1-.03.1-.02.11-.01.11-.02.11-.01.12-.01h.12v.11l-.12.01-.11.01-.11.01-.1.01-.11.02-.1.02-.1.02-.09.03-.09.03-.09.03-.09.04-.09.04-.08.05-.09.04-.08.06-.08.06-.08.06-.08.07-.08.08-.08.08-.08.08-.08.1-.07.09-.08.11-.08.11-.08.12-.08.12-.07.13-.08.14-.08.14-.09.16-.08.15zm-.1-.05l.01-.02-.01.02zM.04 9.81l2.32-4.63.1.05L.14 9.87l-.08.02-.02-.08zm.02.08l-.05-.03.03-.05.02.08z"/><path fill="#C5E3D7" d="M4.07 23.05h14.44l-.18-13.11.43-6.03c-.22-.67-.64-.72-1.21-.87l-3.3-.59c-.26-.7-.55-1.16-.66-1.73-1.11-1.06-4.49-.68-5 0-.06 1.07-.55 1.18-.4 1.76l-3.51.54c-.71.18-1.18.42-1.26.72l.65 5.97v13.34z"/><path fill="#2B2A29" fill-rule="nonzero" d="M18.51 23.11H4.07v-.12h14.44l.06.06-.06.06zm.06-.06v.06h-.06l.06-.06zm-.18-13.11l.18 13.11h-.12l-.17-13.11v-.01l.11.01zm-.11 0v-.01.01zm.54-6.03l-.43 6.03-.11-.01.42-6.02.11-.02.01.02zm-.01-.02l.01.01v.01l-.01-.02zm-1.27-.79l.02-.11h.01l.05.01.05.01.05.02.05.01.05.01.05.01.05.02.05.01.04.01.05.02.04.01.05.02.04.02.04.02.05.02.04.02.04.02.03.03.04.03.04.03.04.03.03.03.03.04.03.04.04.04.03.04.02.05.03.05.03.05.02.06.02.06.02.06-.11.04-.02-.06-.02-.06-.02-.05-.02-.05-.03-.04-.02-.04-.03-.04-.03-.04-.03-.03-.03-.04-.03-.03-.03-.02-.03-.03-.03-.02-.04-.03-.03-.02-.04-.02-.04-.02-.04-.01-.04-.02-.04-.02-.04-.01-.04-.01-.05-.02-.04-.01-.05-.01-.05-.02-.05-.01-.05-.01-.05-.01-.05-.02-.05-.01zm.02-.11h.01-.01zm-3.3-.6l3.3.6-.02.11-3.3-.59-.04-.04.06-.08zm-.02.12l-.03-.01-.01-.03.04.04zM13.55.76l.08-.08.02.03.01.05.01.05.01.05.02.05.01.05.02.05.01.05.02.05.02.05.01.05.02.05.02.05.02.05.02.05.03.05.02.05.02.05.02.06.03.05.02.05.02.06.03.05.02.06.03.05.02.06.03.06.02.06.03.06.02.06.03.06.02.06.03.07-.11.04-.03-.06-.02-.07-.03-.06-.02-.06-.03-.06-.02-.06-.03-.05-.02-.06-.03-.06-.02-.05-.02-.06-.03-.05-.02-.05-.02-.06-.03-.05-.02-.05-.02-.05-.02-.05-.03-.05-.02-.05-.02-.06-.02-.05-.01-.05-.02-.05-.02-.05-.02-.05L13.6 1l-.02-.05-.01-.06-.01-.05-.01-.05-.02-.06.02.03zm.08-.08l.02.01v.02l-.02-.03zM8.65.72L8.53.71l.02-.03.06-.07.08-.06.09-.07.1-.05L9 .37l.13-.05.14-.05.15-.05.16-.04.16-.03.18-.04.18-.03.18-.02.19-.03.2-.01.2-.01.19-.01h.4l.2.01.2.02.19.02.19.03.19.04.18.04.17.05.17.06.15.06.15.08.14.08.13.09.11.1-.08.08-.1-.09-.12-.08-.13-.08-.14-.07-.15-.06-.16-.06-.17-.04-.18-.05-.18-.03-.18-.03-.19-.02-.2-.02-.19-.01H10.87l-.19.02-.19.01-.19.02-.18.03-.18.03-.17.03L9.6.3l-.15.04-.15.04-.13.05-.12.05-.11.05-.1.05-.08.06-.07.06-.05.05.01-.03zM8.53.71l.01-.02.01-.01-.02.03zM8.2 2.54l-.01-.11-.05.07-.01-.06-.01-.05-.01-.05V2.19l.01-.05.01-.04.01-.04.01-.05.02-.04.01-.04.02-.04.02-.04.02-.05.02-.04.02-.04.02-.05.02-.05.02-.05.03-.05.02-.05.02-.06.02-.06.01-.07.02-.07.02-.07.01-.07.02-.08.01-.09.01-.09v-.1l.12.01-.01.1-.01.09-.01.09-.01.09-.02.08-.01.07-.02.07-.02.07-.02.07-.02.06-.02.05-.03.06-.02.05-.02.05-.02.04-.02.05-.02.04-.02.04-.02.05-.02.03-.01.04-.02.04-.01.04-.01.04-.01.03v.08l-.01.04.01.05v.04l.01.05.01.05-.05.07zm.05-.07l.02.06-.07.01.05-.07zm-3.58.49l3.52-.53.01.11-3.52.53-.02-.11h.01zm-.01 0h.01-.01zm-1.18.77l-.11.02v-.02l.01-.04.01-.03.01-.03.02-.03.02-.03.02-.03.03-.03.02-.03.03-.02.03-.03.03-.03.03-.02.04-.02.04-.03.04-.02.04-.03.04-.02.04-.02.05-.02.05-.03.05-.02.05-.02.05-.02.05-.02.06-.02.06-.02.05-.02.07-.02.06-.02.06-.02.06-.01.07-.02.03.11-.06.02-.07.02-.06.02-.06.01-.06.02-.06.02-.05.02-.06.02-.05.02-.05.02-.05.02-.05.02-.04.02-.05.02-.04.02-.04.03-.03.02-.04.02-.03.02-.04.03-.03.02-.03.02-.02.02-.02.03-.03.02-.02.02-.01.03-.02.02-.01.02-.01.03-.01.02-.01.03v-.03zm-.11.02l-.01-.01.01-.01v.02zm.64 5.97l-.64-5.97.11-.02.65 5.98-.12.01zm.12-.01zm-.12 13.34V9.71h.12v13.34l-.06.06-.06-.06zm.06.06h-.06v-.06l.06.06z"/><path fill="#2B2A29" fill-rule="nonzero" d="M3.54 11.86L.05 9.9l.06-.11 3.49 1.97.03.07-.09.03zm.09-.03l-.03.06-.06-.03.09-.03zm.41-1.01l-.41 1.01-.11-.04.41-1.02.09-.03.02.08zm-.02-.08l.04.03-.02.05-.02-.08zM.59 8.83l3.43 1.91-.06.11L.53 8.93l-.02-.08.08-.02zm-.08.02l.03-.05.05.03-.08.02zm-.48.97l.48-.97.1.05-.48.97-.08.03-.02-.08zm.02.08L0 9.87l.03-.05.02.08zM18.99 11.83l-.41-.86.11-.05.4.86-.03.08-.07-.03zm.07.03l-.05.02-.02-.05.07.03zm3.39-1.34l-3.39 1.34-.04-.11 3.39-1.34.07.03-.03.08zm.03-.08l.03.06-.06.02.03-.08zm-.53-1.01l.53 1.01-.1.05-.54-1.01.03-.08.08.03zm-.08-.03l.05-.02.03.05-.08-.03zm-3.26 1.49l3.26-1.49.05.11L18.66 11l-.08-.03.03-.08zm-.03.08l-.02-.05.05-.03-.03.08zM17.4 8.15h-.12v-.19l-.01-.02v-.05l-.01-.02v-.05l-.01-.02v-.03l-.01-.02v-.03l-.01-.02v-.02l-.01-.01v-.02l-.01-.02V7.6l.11-.03v.01l.01.02v.02l.01.02v.01l.01.02v.04l.01.02v.01l.01.02v.06l.01.01v.04l.01.02v.07l.01.02V8.15zm-.12 1.13V8.15h.12v1.13h-.12zm-1.93 2.06v-.12h.1l.09-.01.1-.01.1-.02.09-.02.09-.03.09-.03.09-.04.09-.03.08-.05.08-.04.08-.05.07-.06.08-.06.07-.06.07-.06.06-.07.06-.07.06-.07.05-.08.05-.08.05-.08.04-.08.04-.09.04-.09.03-.09.02-.09.03-.09.01-.1.01-.09.01-.1v-.1h.12v.11l-.01.1-.01.1-.02.1-.02.1-.03.1-.03.1-.04.09-.04.09-.05.09-.05.08-.05.09-.06.08-.06.08-.06.07-.07.07-.07.07-.08.06-.07.07-.09.05-.08.06-.08.05-.09.04-.09.04-.1.04-.09.03-.1.03-.1.02-.1.02-.1.02h-.11l-.1.01zm-.47-.12h.47v.12h-.47v-.12zm-2.05-1.94h.11l.01.1v.1l.02.09.01.1.03.09.02.09.03.09.04.09.04.09.04.08.05.08.05.08.05.08.06.07.06.07.06.07.07.06.07.06.07.06.08.06.08.05.08.04.08.05.09.03.09.04.09.03.09.03.09.02.1.02.09.01.1.01h.1v.12l-.1-.01h-.11l-.1-.02-.1-.02-.1-.02-.1-.03-.09-.03-.1-.04-.09-.04-.09-.04-.08-.05-.09-.06-.08-.05-.07-.07-.08-.06-.07-.07-.07-.07-.06-.07-.06-.08-.06-.08-.05-.09-.05-.08-.05-.09-.04-.09-.04-.09-.03-.1-.03-.1-.02-.1-.02-.1-.01-.1-.01-.1v-.11zm.11-1.13v1.13h-.11V8.15h.11zm.03-.62v.11l.05-.04v.02l-.01.01v.04l-.01.01v.02l-.01.02v.03l-.01.02v.03l-.01.02v.05l-.01.02v.05l-.01.02v.14l-.01.01v.04h-.11V7.98l.01-.02v-.07l.01-.02v-.06l.01-.01v-.04l.01-.02v-.01l.01-.02v-.04l.01-.02v-.01l.01-.02V7.6l.01-.02v-.01l.06-.04zm-.06.04l.01-.04h.05l-.06.04zm4.35.07h-4.29v-.11h4.29l.06.04-.06.07zm0-.11h.05l.01.04-.06-.04z"/><path fill="#C5E3D7" d="M12.8 7.34h4.65v1.37H12.8z"/><path fill="#2B2A29" fill-rule="nonzero" d="M17.45 7.4H12.8v-.12h4.65l.05.06-.05.06zm0-.12h.05v.06l-.05-.06zm-.06 1.43V7.34h.11v1.37l-.05.06-.06-.06zm.11 0v.06h-.05l.05-.06zm-4.7-.06h4.65v.12H12.8l-.06-.06.06-.06zm0 .12h-.06v-.06l.06.06zm.06-1.43v1.37h-.12V7.34l.06-.06.06.06zm-.12 0v-.06h.06l-.06.06zM11.82 3.18H9.99v-.11h1.83l.06.06-.06.05zm0-.11h.06v.06l-.06-.06zm-.06 19.98V3.13h.12v19.92l-.06.06-.06-.06zm.12 0v.06h-.06l.06-.06zm-1.89-.06h1.83v.12H9.99l-.06-.06.06-.06zm0 .12h-.06v-.06l.06.06zm.06-19.98v19.92h-.12V3.13l.06-.06.06.06zm-.12 0v-.06h.06l-.06.06z"/><path fill="#C5E3D7" d="M7.6 2.33c.34 1.21.87 2.32 1.69 3.29.61-1.01 1.17-1.68 1.81-2.42C9.63 2.93 8.92 1.86 8.59.72L7.6 2.33z"/><path fill="#2B2A29" fill-rule="nonzero" d="M9.24 5.59l.1.06-.09.01-.08-.09-.07-.1-.08-.09-.07-.09-.07-.1-.07-.09-.06-.1-.07-.1-.06-.1-.06-.1-.07-.1-.05-.1-.06-.1-.06-.1-.05-.1-.06-.11-.05-.1-.05-.11-.05-.1-.04-.11-.05-.1-.04-.11-.05-.11-.04-.11-.04-.11-.04-.11-.04-.11-.03-.11-.04-.11-.04-.12-.03-.11-.03-.11.11-.03.03.11.04.11.03.11.04.11.03.11.04.11.04.11.04.11.04.11.05.1.04.11.04.11.05.1.05.1.05.11.05.1.05.1.06.1.05.1.06.1.06.1.06.1.06.1.06.1.06.09.07.1.07.09.07.1.07.09.07.09.07.09.08.09-.1.01zm.1.06l-.04.07-.05-.06.09-.01zm1.75-2.39l.02-.11.03.09-.06.07-.06.07-.06.07-.05.07-.06.06-.06.07-.06.07-.05.07-.06.06-.06.07-.05.07-.06.07-.06.07-.05.07-.06.07-.05.07-.06.08-.05.07-.06.07-.05.08-.06.08-.05.07-.06.08-.05.08-.06.08-.05.09-.06.08-.05.09-.06.09-.05.09-.06.09-.06.09-.1-.06.06-.09.06-.1.05-.09.06-.09.05-.08.06-.09.06-.08.05-.08.06-.08.05-.08.06-.08.05-.08.06-.08.05-.07.06-.08.06-.07.05-.07.06-.07.05-.07.06-.07.06-.07.05-.07.06-.07.06-.07.05-.07.06-.07.06-.06.06-.07.06-.07.05-.07.06-.07.06-.06.04.09zm.02-.11l.1.02-.07.07-.03-.09zM8.64.75l-.1-.07.11.02.03.11.03.1.04.1.04.11.04.1.04.1.05.1.05.1.05.1.05.09.06.1.06.09.06.09.07.09.07.08.07.08.07.09.08.07.09.08.08.07.09.07.09.07.1.06.1.06.11.05.1.06.12.04.11.05.12.04.13.04.13.03.13.03-.02.11-.14-.03-.13-.03-.13-.04-.13-.04-.12-.05-.12-.05-.11-.05-.11-.06-.1-.06-.1-.07-.1-.07-.09-.07-.09-.07-.09-.08-.08-.08-.08-.09-.07-.08-.08-.09-.06-.09-.07-.1-.06-.09-.06-.1-.06-.1-.05-.1-.05-.1-.05-.1-.04-.11-.04-.1-.04-.11-.04-.1-.03-.11-.03-.11.1.02zm-.1-.07l.07-.11.04.13-.11-.02zM7.55 2.3L8.54.68l.1.07-.99 1.61-.1-.01V2.3zm0 .05l-.01-.03.01-.02v.05z"/><path fill="#C5E3D7" d="M14.58 2.34c-.34 1.21-.87 2.32-1.69 3.29-.6-1.02-1.16-1.69-1.8-2.42 1.47-.28 2.18-1.35 2.5-2.49l.99 1.62z"/><path fill="#2B2A29" fill-rule="nonzero" d="M12.94 5.6l-.09-.01.07-.09.08-.09.07-.09.07-.1.07-.09.07-.1.06-.09.07-.1.06-.09.06-.1.06-.1.06-.1.05-.1.06-.1.05-.1.06-.1.05-.11.05-.1.04-.1.05-.11.05-.1.04-.11.04-.11.05-.1.04-.11.03-.11.04-.11.04-.11.03-.11.04-.11.03-.11.03-.12.12.03-.03.12-.04.11-.03.11-.04.12-.04.11-.03.11-.04.11-.04.11-.05.11-.04.1-.05.11-.04.11-.05.11-.05.1-.05.11-.05.1-.05.1-.06.11-.05.1-.06.1-.06.1-.06.1-.06.1-.07.1-.06.1-.07.09-.07.1-.07.09-.07.1-.07.09-.08.09-.07.1-.1-.01.1-.06zm0 .07l-.06.06-.04-.07.1.01zm-1.84-2.4l.03-.1.06.07.06.07.06.07.06.07.06.06.06.07.05.07.06.07.06.07.05.06.06.07.06.07.05.07.06.07.05.08.06.07.06.07.05.08.06.07.05.08.06.07.05.08.06.08.05.08.06.08.06.09.05.08.06.09.05.09.06.09.06.09.05.1-.1.06-.05-.1-.06-.09-.06-.09-.05-.09-.06-.08-.05-.09-.06-.08-.05-.08-.06-.08-.05-.08-.06-.08-.05-.07-.06-.08-.05-.07-.06-.08-.05-.07-.06-.07-.05-.07-.06-.07-.05-.07-.06-.07-.06-.07-.05-.07-.06-.07-.06-.06-.05-.07-.06-.07-.06-.07-.06-.07-.06-.06-.06-.07-.06-.07.04-.1.02.12zm-.06-.02l-.07-.08.11-.02-.04.1zm2.5-2.5l.11-.01-.03.11-.04.1-.03.11-.04.11-.04.1-.05.11-.05.1-.05.1-.05.1-.05.1-.06.1-.07.09-.06.09-.07.09-.07.09-.08.09-.07.08-.09.08-.08.08-.09.08-.1.07-.09.07-.1.06-.11.07-.11.06-.11.05-.12.05-.12.05-.12.04-.13.04-.13.03-.14.03-.02-.12.13-.02.13-.04.12-.03.12-.04.12-.05.11-.05.11-.05.1-.06.11-.06.09-.06.1-.06.08-.07.09-.08.08-.07.08-.08.08-.08.07-.08.07-.09.06-.09.07-.09.06-.09.05-.09.06-.1.05-.09.05-.1.04-.1.05-.1.04-.11.04-.1.03-.1.04-.11.03-.1.1-.02-.1.06zm0-.04l.03-.13.07.11-.1.02zm1.09 1.6l.01.04-.11.02-.99-1.62.1-.06.99 1.62zm0 0l.02.02-.01.02-.01-.04zM11.37 4.99h-.12V4.92l-.01-.02v-.02l-.01-.02v-.01l-.01-.02-.01-.01-.01-.02-.01-.01-.01-.02-.01-.01-.01-.02-.01-.01-.02-.01-.01-.01-.01-.01-.02-.01-.01-.01-.02-.01-.01-.01-.02-.01h-.02L11 4.64h-.02l-.02-.01h-.07v-.12h.07l.03.01h.02l.02.01.03.01.02.01.02.01.02.01.02.01.02.01.02.01.02.02.01.01.02.02.02.01.01.02.02.02.01.02.01.02.01.02.01.02.01.02.01.02.01.03.01.02v.02l.01.03v.07zm-.48.48v-.12H10.96l.02-.01H11l.01-.01.02-.01h.02l.01-.01.02-.01.01-.01.02-.01.01-.01.01-.01.02-.01.01-.02.01-.01.01-.01.01-.02.01-.01.01-.02.01-.01v-.02l.01-.02.01-.01v-.02l.01-.02v-.07h.12v.07l-.01.03v.02l-.01.02-.01.02-.01.03-.01.02-.01.02-.01.02-.01.02-.01.02-.02.01-.01.02-.02.02-.02.01-.01.02-.02.01-.02.02-.02.01-.02.01-.02.01-.02.01-.02.01-.03.01-.02.01h-.05l-.02.01h-.05zm-.48-.48h.12v.07l.01.02v.02l.01.01v.02l.01.02.01.01.01.02.01.01.01.02.01.01.01.01.01.02.02.01.01.01.01.01.02.01.01.01.02.01.01.01h.02l.01.01.02.01h.02l.02.01h.07v.12h-.05l-.02-.01h-.05l-.02-.01-.03-.01-.02-.01-.02-.01-.02-.01-.02-.01-.02-.01-.02-.02-.02-.01-.01-.02-.02-.01-.02-.02-.01-.02-.02-.01-.01-.02-.01-.02-.01-.02-.01-.02-.01-.02-.01-.03-.01-.02-.01-.02v-.02l-.01-.03v-.07zm.48-.48v.12H10.82l-.02.01h-.02l-.02.01h-.01l-.02.01-.01.01-.02.01-.01.01-.02.01-.01.01-.01.01-.02.01-.01.01-.01.02-.01.01-.01.02-.01.01-.01.02-.01.01-.01.02v.01l-.01.02v.02l-.01.02v.07h-.12v-.07l.01-.03v-.02l.01-.02.01-.03.01-.02.01-.02.01-.02.01-.02.01-.02.01-.02.02-.02.01-.01.02-.02.02-.02.01-.01.02-.02.02-.01.02-.01.02-.01.02-.01.02-.01.02-.01.03-.01.02-.01h.02l.03-.01h.07zM11.4 8.88h-.11v-.02l-.01-.02v-.05l-.01-.02-.01-.01v-.02l-.01-.02-.01-.01-.01-.02-.01-.01-.01-.02-.01-.01-.01-.01-.01-.02-.01-.01-.02-.01-.01-.01-.01-.01-.02-.01-.01-.01-.02-.01h-.02l-.01-.01-.02-.01h-.02L11 8.52h-.08V8.4h.05l.03.01h.04l.03.01.02.01.02.01.02.01.02.01.02.01.02.01.02.02.02.01.02.01.01.02.02.02.01.02.02.01.01.02.01.02.02.02.01.02.01.02v.03l.01.02.01.02v.02l.01.03v.07zm-.48.48v-.11l.02-.01H11l.01-.01h.02l.02-.01h.01l.02-.01.02-.01.01-.01.02-.01.01-.01.01-.01.02-.01.01-.01.01-.01.01-.02.01-.01.01-.02.01-.01.01-.02.01-.01.01-.02v-.01l.01-.02.01-.02v-.05l.01-.02v-.02h.11v.07l-.01.03V9l-.01.02-.01.03v.02l-.01.02-.01.02-.02.02-.01.02-.01.02-.02.02-.01.01-.02.02-.01.02-.02.01-.02.02-.02.01-.02.01-.02.01-.02.01-.02.01-.02.01-.02.01-.03.01h-.02l-.02.01h-.08zm-.48-.48h.12v.06l.01.01v.02l.01.02v.02l.01.01.01.02v.01l.01.02.01.01.01.02.01.01.01.02.02.01.01.01.01.01.02.01.01.01.01.01.02.01.02.01.01.01h.02l.01.01h.02l.02.01h.05l.02.01v.11h-.07l-.02-.01h-.03l-.02-.01-.02-.01-.03-.01-.02-.01-.02-.01-.02-.01-.02-.01-.02-.01-.01-.02-.02-.01-.02-.02-.01-.02-.02-.01-.01-.02-.02-.02-.01-.02-.01-.02-.01-.02-.01-.02-.01-.02-.01-.03V9l-.01-.02v-.03l-.01-.02v-.05zm.48-.48v.12h-.07l-.02.01h-.02l-.01.01-.02.01h-.01l-.02.01-.02.01-.01.01-.01.01-.02.01-.01.01-.01.01-.02.02-.01.01-.01.01-.01.02-.01.01-.01.02v.01l-.01.02-.01.02v.01l-.01.02v.02l-.01.02v.05h-.12v-.05l.01-.02v-.03l.01-.02v-.02l.01-.02.01-.03.01-.02.01-.02.01-.02.01-.02.02-.02.01-.01.02-.02.01-.02.02-.02.02-.01.01-.01.02-.02.02-.01.02-.01.02-.01.02-.01.03-.01.02-.01.02-.01h.05l.02-.01h.05zM11.44 12.47h-.12v-.05l-.01-.02v-.02l-.01-.01v-.02l-.01-.02-.01-.01v-.02l-.01-.01-.01-.02-.01-.01-.01-.02-.01-.01-.02-.01-.01-.01-.01-.02-.02-.01-.01-.01-.02-.01-.01-.01h-.02l-.01-.01-.02-.01h-.02l-.01-.01h-.02l-.02-.01h-.05v-.12h.02l.03.01h.04l.03.01h.02l.02.01.02.01.02.01.03.01.02.01.02.02.01.01.02.01.02.02.02.01.01.02.02.02.01.02.02.02.01.01.01.02.01.03.01.02.01.02.01.02v.02l.01.03v.05l.01.02v.02zm-.48.49v-.12h.03l.02-.01h.04l.01-.01h.02l.02-.01.01-.01.02-.01h.01l.02-.01.01-.01.02-.02.01-.01.01-.01.02-.01.01-.01.01-.02.01-.01.01-.02.01-.01v-.02l.01-.01.01-.02v-.02l.01-.01v-.02l.01-.02v-.06h.12v.03l-.01.02v.05l-.01.02v.03l-.01.02-.01.02-.01.02-.01.02-.01.02-.01.02-.02.02-.01.02-.02.02-.01.01-.02.02-.02.02-.02.01-.01.01-.02.02-.02.01-.03.01-.02.01-.02.01h-.02l-.02.01-.03.01h-.07l-.02.01zm-.48-.49h.11v.04l.01.02v.04l.01.01v.02l.01.02.01.01.01.02.01.01v.02l.02.01.01.02.01.01.01.01.01.01.02.01.01.02.01.01.02.01h.01l.02.01.02.01.01.01h.02l.02.01h.03l.02.01h.04v.12l-.03-.01h-.07l-.02-.01-.03-.01h-.02l-.02-.01-.02-.01-.02-.01-.02-.01-.02-.02-.02-.01-.02-.01-.02-.02-.01-.02-.02-.01-.02-.02-.01-.02-.01-.02-.02-.02-.01-.02-.01-.02-.01-.02-.01-.02v-.02l-.01-.03v-.02l-.01-.02v-.08zm.48-.48v.12h-.06l-.02.01h-.01l-.02.01h-.02l-.01.01-.02.01h-.02l-.01.01-.02.01-.01.01-.01.01-.02.02-.01.01-.01.01-.01.01-.01.02-.02.01v.02l-.01.01-.01.02-.01.01-.01.02v.02l-.01.01v.04l-.01.02v.03h-.11v-.07l.01-.02v-.03l.01-.02v-.02l.01-.02.01-.02.01-.03.01-.02.02-.02.01-.01.01-.02.02-.02.02-.02.01-.01.02-.02.02-.01.02-.02.02-.01.02-.01.02-.01.02-.01.02-.01.02-.01h.03l.02-.01h.05l.02-.01h.03zM11.4 15.7h-.11v-.02l-.01-.02v-.05l-.01-.02-.01-.01v-.02l-.01-.02-.01-.01-.01-.02-.01-.01-.01-.02-.01-.01-.01-.01-.01-.02-.01-.01-.02-.01-.01-.01-.01-.01-.02-.01-.01-.01-.02-.01h-.02l-.01-.01-.02-.01h-.02l-.01-.01h-.08v-.12h.05l.03.01h.04l.03.01.02.01.02.01.02.01.02.01.02.01.02.01.02.02.02.01.02.01.01.02.02.02.01.02.02.01.01.02.01.02.02.02.01.02.01.02v.03l.01.02.01.02v.02l.01.03v.07zm-.48.48v-.11l.02-.01H11l.01-.01h.02l.02-.01h.01l.02-.01.02-.01.01-.01.02-.01.01-.01.01-.01.02-.01.01-.01.01-.01.01-.02.01-.01.01-.02.01-.01.01-.02.01-.01.01-.02v-.01l.01-.02.01-.02v-.05l.01-.02v-.02h.11v.07l-.01.03v.02l-.01.02-.01.03v.02l-.01.02-.01.02-.02.02-.01.02-.01.02-.02.02-.01.01-.02.02-.01.02-.02.01-.02.02-.02.01-.02.01-.02.01-.02.01-.02.01-.02.01-.02.01-.03.01h-.02l-.02.01h-.08zm-.48-.48h.12v.06l.01.01v.02l.01.02v.02l.01.01.01.02v.01l.01.02.01.01.01.02.01.01.01.02.02.01.01.01.01.01.02.01.01.01.01.01.02.01.02.01.01.01h.02l.01.01h.02l.02.01h.05l.02.01v.11h-.07l-.02-.01h-.03l-.02-.01-.02-.01-.03-.01-.02-.01-.02-.01-.02-.01-.02-.01-.02-.01-.01-.02-.02-.01-.02-.02-.01-.02-.02-.01-.01-.02-.02-.02-.01-.02-.01-.02-.01-.02-.01-.02-.01-.02-.01-.03v-.02l-.01-.02v-.03l-.01-.02v-.05zm.48-.48v.12h-.07l-.02.01h-.02l-.01.01-.02.01h-.01l-.02.01-.02.01-.01.01-.01.01-.02.01-.01.01-.01.01-.02.02-.01.01-.01.01-.01.02-.01.01-.01.02v.01l-.01.02-.01.02v.01l-.01.02v.02l-.01.02v.05h-.12v-.05l.01-.02v-.03l.01-.02v-.02l.01-.02.01-.03.01-.02.01-.02.01-.02.01-.02.02-.02.01-.01.02-.02.01-.02.02-.02.02-.01.01-.01.02-.02.02-.01.02-.01.02-.01.02-.01.03-.01.02-.01.02-.01h.05l.02-.01h.05zM11.37 19.13h-.12v-.08l-.01-.01v-.02l-.01-.02v-.01l-.01-.02-.01-.02-.01-.01-.01-.02-.01-.01-.01-.01-.01-.02-.01-.01-.02-.01-.01-.01-.01-.01-.02-.01-.01-.01-.02-.01-.01-.01-.02-.01h-.02l-.01-.01h-.02l-.02-.01h-.03l-.02-.01h-.02v-.11h.07l.03.01h.02l.02.01.03.01h.02l.02.01.02.01.02.02.02.01.02.01.02.02.01.01.02.02.02.01.01.02.02.02.01.02.01.02.01.02.01.02.01.02.01.02.01.02.01.03v.02l.01.02v.08zm-.48.48v-.12h.06l.01-.01H11l.01-.01.02-.01h.02l.01-.01.02-.01.01-.01.02-.01.01-.01.01-.01.02-.02.01-.01.01-.01.01-.01.01-.02.01-.01.01-.02.01-.01v-.02l.01-.02.01-.01v-.02l.01-.02v-.07h.12v.07l-.01.02v.03l-.01.02-.01.02-.01.03-.01.02-.01.02-.01.02-.01.02-.01.02-.02.01-.01.02-.02.02-.02.01-.01.02-.02.01-.02.02-.02.01-.02.01-.02.01-.02.01-.02.01-.03.01h-.02l-.02.01h-.03l-.02.01h-.05zm-.48-.48h.12v.07l.01.02v.02l.01.01v.02l.01.02.01.01.01.02.01.01.01.02.01.01.01.01.01.01.02.02.01.01.01.01.02.01.01.01.02.01.01.01h.02l.01.01.02.01h.04l.01.01h.06v.12h-.05l-.02-.01h-.03l-.02-.01h-.02l-.03-.01-.02-.01-.02-.01-.02-.01-.02-.01-.02-.01-.02-.02-.02-.01-.01-.02-.02-.01-.02-.02-.01-.02-.02-.01-.01-.02-.01-.02-.01-.02-.01-.02-.01-.03-.01-.02-.01-.02-.01-.02v-.03l-.01-.02v-.07zm.48-.48v.11h-.02l-.02.01h-.03l-.02.01h-.02l-.02.01h-.01l-.02.01-.01.01-.02.01-.01.01-.02.01-.01.01-.01.01-.02.01-.01.01-.01.02-.01.01-.01.01-.01.02-.01.01-.01.02-.01.02V19l-.01.02v.02l-.01.01v.08h-.12v-.08l.01-.02v-.02l.01-.03.01-.02.01-.02.01-.02.01-.02.01-.02.01-.02.01-.02.02-.02.01-.02.02-.01.02-.02.01-.01.02-.02.02-.01.02-.01.02-.02.02-.01.02-.01h.02l.03-.01.02-.01h.02l.03-.01h.07z"/></svg>