<svg xmlns="http://www.w3.org/2000/svg" width="114" height="69" fill-rule="evenodd" clip-rule="evenodd" image-rendering="optimizeQuality" shape-rendering="geometricPrecision" text-rendering="geometricPrecision" viewBox="0 0 14.91 9.09"><path fill="#99CFBA" d="M10.29 9.06h2L12.08.09c-.17.35-1.28.35-1.51.02l-.28 8.95z"/><path fill="#2B2A29" fill-rule="nonzero" d="M12.29 9.08h-2v-.04h2l.03.02-.03.02zm.03-.02v.02h-.03l.03-.02zM12.1.09l.22 8.97h-.05L12.05.09l.01-.01.04.01zm-.04-.01L12.1 0v.09l-.04-.01zm-1.47.03h-.04l.04-.02.02.03.03.03.03.02.03.03.04.02.05.02.04.02.05.01.06.02.05.01.06.01.06.01h.05l.06.01h.25l.06-.01h.05l.06-.01.05-.01.06-.02.05-.01.04-.02.05-.02.03-.02.04-.02.03-.02.03-.03.02-.03.02-.03.04.02-.02.04-.03.03-.03.03-.03.03-.04.02-.05.02-.04.02-.05.02-.05.02-.06.01-.05.01-.06.01-.06.01h-.06l-.06.01h-.13l-.06-.01h-.06L11.1.36l-.06-.01-.06-.01-.05-.01-.06-.02-.05-.01-.05-.02-.05-.02-.04-.03-.04-.02-.03-.03-.03-.03-.03-.03.04-.01zm-.04 0V.04l.04.05-.04.02zm-.28 8.95l.28-8.95h.04l-.28 8.95-.02.02-.02-.02zm.02.02h-.02v-.02l.02.02z"/><path fill="#A1B567" d="M7.76 8.63l1-.03c.15-2.42.36-4.51.83-5.09L8.45 1.28c-.49 2.27-.67 4.75-.69 7.35z"/><path fill="#2B2A29" fill-rule="nonzero" d="M8.76 8.62l-1 .03V8.6l1-.02.02.02-.02.02zm.02-.02v.02h-.02l.02-.02zm.79-5.08l.04-.02-.01.02-.04.06-.04.07-.04.07-.04.09-.03.09-.04.1-.03.1-.04.12-.03.12-.03.13-.03.13-.03.14-.03.15-.02.15-.03.16-.02.17-.03.17-.02.18-.02.18-.02.18-.02.19-.02.2-.02.19-.02.21-.02.2-.01.21-.02.22-.02.21-.01.22-.02.22-.01.22-.02.23h-.04l.01-.23.02-.22.01-.22.02-.22.02-.22.01-.21.02-.21.02-.21.02-.2.01-.2.02-.19.02-.19.03-.19.02-.18.02-.18.02-.17.03-.16.02-.16.03-.16.03-.15.03-.14.03-.13.03-.13.03-.12.03-.12.04-.11.04-.1.03-.09.04-.09.04-.07.04-.07.05-.06v.02zm.04-.02v.01l-.01.01.01-.02zM8.47 1.26L9.61 3.5l-.04.02-1.14-2.23v-.02l.04-.01zm-.04.01l.01-.06.03.05-.04.01zM7.76 8.6v.05l-.02-.02v-.49l.01-.24v-.24l.01-.24.01-.24.01-.24.01-.24.01-.24.01-.23.01-.24.02-.23.01-.24.02-.23.02-.23.02-.23.02-.23.02-.23.03-.23.02-.23.03-.22.03-.23.03-.22.03-.23.03-.22.04-.22.03-.22.04-.22.04-.21.04-.22.05-.22.04-.21.04.01-.04.21-.04.22-.05.21-.04.22-.03.22-.04.22-.03.22-.04.22-.03.22-.03.23-.03.22-.02.23-.03.22-.02.23-.03.23-.02.23-.02.23-.02.23-.01.24-.02.23-.01.23-.02.24-.01.24-.01.23-.01.24-.01.24-.01.24v.24l-.01.24v.48l-.01.25-.02-.03zm0 .05h-.02v-.02l.02.02z"/><path fill="#A1B567" d="M9.16 9.03l.22-3.74c-.15-1.61-.46-2.94-.93-4.01l2.06-.92c-.31 1.45.05 2.93.84 4.42l-.03 2.46-.63 1.83-1.53-.04z"/><path fill="#2B2A29" fill-rule="nonzero" d="M9.4 5.29l-.22 3.74h-.04l.22-3.74.04-.01v.01zm0-.01v.01-.01zm-.96-4.03l.02.05.01-.03.05.1.04.1.04.1.04.11.04.11.04.11.04.11.03.11.04.11.03.12.04.12.03.11.03.12.04.13.03.12.03.12.02.13.03.13.03.13.02.13.03.13.02.14.03.13.02.14.02.14.02.14.02.14.02.14.02.15.01.15.02.14.01.15-.04.01-.02-.15-.01-.15-.02-.15-.02-.14-.01-.14-.02-.15-.02-.14-.03-.13L9.19 4l-.02-.14-.02-.13-.03-.13-.02-.13-.03-.13-.03-.13-.03-.13-.03-.12-.03-.12-.03-.12-.03-.12-.03-.12-.04-.12-.03-.11-.04-.12-.04-.11-.03-.11-.04-.11-.04-.1-.04-.11-.04-.1-.04-.11-.05-.1.01-.03zm-.01.03l-.01-.02.02-.01-.01.03zm2.09-.9l-2.06.92-.02-.05L10.5.34l.03.02-.01.02zM10.5.34l.04-.02-.01.04-.03-.02zm.87 4.44h-.04v.01l-.07-.14-.07-.14-.07-.14-.06-.14-.07-.14-.05-.14-.06-.14-.06-.14-.05-.13-.04-.14-.05-.14-.04-.14-.04-.14-.04-.14-.03-.14-.03-.14-.03-.14-.02-.14-.02-.13-.02-.14-.01-.14-.01-.14-.01-.14v-.27l.01-.14v-.14l.02-.14.01-.13.02-.14.02-.14.03-.14.04.01-.02.14-.03.14-.01.13-.02.14-.01.13-.01.14v.14l-.01.13.01.14v.14l.01.14.02.13.01.14.02.14.03.14.02.13.03.14.03.14.04.14.04.13.04.14.05.14.04.14.06.14.05.14.06.14.06.14.06.13.06.14.07.14.07.14.07.14v.01zm0-.01v.01-.01zm-.07 2.47l.03-2.46h.04l-.03 2.46v.01l-.04-.01zm.04 0v.01-.01zm-.67 1.82l.63-1.83.04.02-.63 1.83-.02.01-.02-.03zm.04.02v.01h-.02l.02-.01zm-1.55-.07l1.53.04v.04l-1.53-.04-.02-.02.02-.02zm0 .04h-.02v-.02l.02.02z"/><path fill="#2B2A29" fill-rule="nonzero" d="M9.36 5.99l-.04.75h-.05l.05-.75.02-.02.02.02zm-.04 0v-.03l.02.01-.02.02zm.91.13l-.89-.11v-.04l.9.1.02.03-.03.02zm.01-.05l.02.01v.02l-.02-.03zm-.07.71l.04-.69.05.01-.05.68-.02.02-.02-.02zm.04 0v.02h-.02l.02-.02zm-.91-.06l.89.04v.04l-.9-.04-.02-.02.03-.02zm-.01.04h-.02v-.02l.02.02zm0-.02h-.02.02zm0 .02h-.02v-.02l.02.02z"/><path fill="#A1B567" d="M9.57 1.63c.11-.13.22-.26.33-.38-.14-.08-.27-.16-.4-.24l1.07-.9c-.15 1.44.14 3.05.78 4.81-.73-1.05-1.36-2.14-1.78-3.29z"/><path fill="#2B2A29" fill-rule="nonzero" d="M9.88 1.27l.03-.04v.03l-.01.01-.01.02-.01.01-.01.01-.01.01-.01.01-.01.01-.01.02-.01.01-.01.01-.01.01-.01.01-.01.02-.01.01-.01.01-.01.01-.01.01-.01.01-.01.02-.01.01-.01.01-.01.01-.01.01-.01.02-.01.01-.01.01-.01.01-.01.01-.01.01-.01.02-.01.01-.01.01-.04-.03.01-.01.01-.01.01-.01.02-.02.01-.01.01-.01.01-.01.01-.01.01-.02.01-.01.01-.01.01-.01.01-.01.01-.01.01-.02.01-.01.01-.01.01-.01.01-.01.01-.02.01-.01.01-.01.01-.01.01-.01.01-.01.01-.02.01-.01.01-.01.01-.01.01-.01.01-.01.01-.02v.04zm.03-.04l.02.01-.02.02v-.03zM9.48.99l.03.03V.99h.01l.01.01.02.01.01.01h.01l.01.01.02.01.01.01.01.01h.01l.02.01.01.01.01.01h.01l.02.01.01.01.01.01h.01l.02.01.01.01.01.01h.01l.01.01.02.01.01.01h.01l.01.01.02.01.01.01h.01l.01.01.02.01-.03.04-.01-.01-.01-.01-.01-.01h-.02l-.01-.01-.01-.01-.01-.01h-.02l-.01-.01-.01-.01-.01-.01h-.02l-.01-.01-.01-.01-.01-.01h-.02l-.01-.01-.01-.01-.01-.01h-.01l-.02-.01-.01-.01-.01-.01h-.01l-.02-.01-.01-.01-.01-.01h-.01l-.02-.01-.01-.01-.01-.01-.01-.01-.01-.03zm.01.03l-.03-.01.02-.02.01.03zm1.09-.9l-1.07.9-.03-.03 1.08-.9.03.02-.01.01zm-.02-.03l.04-.03-.01.05-.03-.02zm.77 4.85l.04-.03-.04.02-.06-.16-.06-.17-.05-.16-.05-.16-.05-.17-.05-.16-.05-.16-.04-.15-.04-.16-.04-.16-.04-.16-.04-.15-.03-.16-.03-.15-.03-.15-.03-.15-.02-.15-.02-.15-.02-.15-.02-.15-.01-.15-.01-.14-.01-.15-.01-.14-.01-.14V.65l.01-.13.01-.14.01-.14.01-.14.04.01-.01.13-.01.14-.01.14V1.22l.01.14.01.15.01.14.02.15.01.14.02.15.02.15.03.15.02.15.03.15.03.16.04.15.03.15.04.16.04.16.04.15.04.16.05.16.05.16.05.16.05.16.06.17.05.16.06.17-.04.02zm.04-.02l.06.15-.1-.13.04-.02zM9.55 1.61l.04.03v-.02l.04.11.04.1.04.11.05.11.04.1.05.11.04.11.05.1.05.11.05.1.05.11.05.1.06.1.05.11.06.1.05.1.06.11.06.1.06.1.06.1.06.1.06.1.06.1.06.11.06.1.07.1.06.1.07.09.07.1.06.1.07.1.07.1-.04.03-.07-.1-.06-.1-.07-.1-.07-.1-.06-.1-.07-.1-.06-.1-.07-.1-.06-.1-.06-.1-.06-.1-.06-.11-.06-.1-.06-.1-.06-.1-.06-.1-.05-.11-.06-.1-.05-.11-.05-.1-.06-.1L10 2.7l-.05-.1-.05-.11-.05-.11-.04-.1-.05-.11-.04-.1-.05-.11-.04-.11-.04-.11-.04-.11v-.02zm0 .02v-.02.02zM11.14 5.08h-.05v-.03l-.01-.01v-.01h-.01l-.01-.01-.01-.01h-.01L11.03 5H11v-.04h.05v.01h.02l.01.01h.01v.01h.01V5h.01v.01l.01.01v.01h.01v.02l.01.01v.02zm-.14.13v-.04h.03l.01-.01h.01l.01-.01.01-.01h.01v-.01l.01-.01v-.04h.05v.03l-.01.01v.02h-.01v.01l-.01.01v.01h-.01v.01h-.01v.01h-.01l-.01.01h-.02v.01H11zm-.14-.13h.04v.02h.01v.03h.01v.01h.01v.01h.01v.01h.02l.01.01H11v.04h-.05V5.2h-.02l-.01-.01h-.01v-.01h-.01v-.01h-.01v-.01h-.01v-.01l-.01-.01v-.02h-.01v-.04zm.14-.12V5h-.03l-.01.01h-.02v.01h-.01v.01h-.01v.01h-.01v.03h-.01v.01h-.04v-.03h.01v-.02l.01-.01v-.01h.01V5h.01v-.01h.01v-.01h.01l.01-.01h.02v-.01H11zM11.15 5.97h-.04v-.02l-.01-.01v-.01h-.01v-.01l-.01-.01h-.01V5.9h-.01l-.01-.01h-.04v-.05h.02v.01h.04v.01h.02v.01h.01l.01.01.01.01.01.01v.01h.01v.02h.01v.04zm-.14.13v-.04h.03l.01-.01h.01l.01-.01h.01v-.01h.01v-.01h.01V6h.01v-.03h.04v.04l-.01.01v.02h-.01v.01h-.01v.01l-.01.01h-.01v.01h-.01l-.01.01h-.01l-.01.01h-.05zm-.14-.13h.05V6l.01.01v.01h.01v.01h.01v.01h.01v.01h.02v.01h.03v.04h-.04l-.01-.01h-.01l-.01-.01h-.01v-.01h-.01l-.01-.01-.01-.01-.01-.01v-.02h-.01v-.03h-.01v-.02zm.14-.13v.05h-.03l-.01.01h-.01v.01h-.01l-.01.01-.01.01v.01h-.01v.03h-.05v-.01l.01-.01v-.02l.01-.01v-.01l.01-.01v-.01h.01l.01-.01.01-.01h.01v-.01h.01l.01-.01h.03l.01-.01h.01zM11.11 6.88h-.04v-.01h-.01v-.03h-.01v-.01l-.01-.01-.01-.01h-.01V6.8H11v-.01h-.03v-.04h.05v.01h.02l.01.01h.01v.01h.01v.01h.01v.01l.01.01.01.01v.02l.01.01v.03zm-.14.13v-.05H11l.01-.01h.01l.01-.01h.01v-.01h.01v-.01l.01-.01v-.03h.05v.02l-.01.01v.02l-.01.01v.01h-.01v.01h-.01v.01h-.01v.01h-.01l-.01.01h-.01l-.01.01h-.04v.01h-.01zm-.14-.13h.04v.01h.01v.03h.01v.01h.01v.01h.01l.01.01h.01l.01.01h.03v.05h-.01V7h-.04l-.01-.01h-.01l-.01-.01h-.01v-.01h-.01v-.01h-.01v-.01h-.01v-.01l-.01-.01v-.02h-.01v-.03zm.14-.13v.04h-.03v.01h-.02v.01h-.02v.01l-.01.01-.01.01v.02h-.01v.02h-.04v-.04h.01v-.02l.01-.01V6.8h.01v-.01h.01v-.01h.01v-.01h.01l.01-.01h.02v-.01h.05z"/><path fill="#A1B567" d="M14.89 8.61l-1.01-.02c-.15-2.42-.35-4.51-.82-5.09l1.13-2.24c.49 2.27.68 4.76.7 7.35z"/><path fill="#2B2A29" fill-rule="nonzero" d="M13.88 8.61l-.02-.02.02-.03 1.01.03-.01.04-1-.02zm0 0h-.02v-.02l.02.02zm-.8-5.1v-.03l.04.06.04.07.04.08.04.08.04.1.04.1.03.11.04.11.03.12.03.13.03.14.03.14.02.15.03.15.03.16.02.17.03.17.02.18.02.18.02.18.02.19.02.2.02.2.02.2.02.21.01.21.02.21.02.21.01.22.02.22.01.23.02.22-.05.01-.01-.23-.02-.22-.01-.22-.02-.22-.01-.22-.02-.21-.02-.21-.01-.21-.02-.2-.02-.2-.02-.19-.02-.19-.02-.19-.03-.18-.02-.17-.02-.17-.03-.17-.02-.16-.03-.15-.03-.15-.02-.14-.03-.14-.04-.12-.03-.13-.03-.11-.04-.11-.03-.1-.04-.09-.04-.08-.04-.08-.04-.06-.04-.06v-.02l.04.02zm-.04 0l-.01-.01.01-.01v.02zm1.13-2.26l.04.01v.01l-1.13 2.24-.04-.02 1.13-2.24zm0 0l.03-.05.01.06-.04-.01zm.72 7.34l-.03.02v-.48l-.01-.24v-.25l-.01-.24-.01-.23v-.24l-.01-.24-.02-.24-.01-.23-.01-.24-.01-.23-.02-.24-.02-.23-.02-.23-.02-.23-.02-.23-.02-.23-.02-.23-.03-.23-.03-.22-.02-.23-.03-.22-.04-.22-.03-.22-.03-.23-.04-.21-.04-.22-.04-.22-.04-.22-.04-.21-.05-.21.04-.01.05.21.04.22.04.21.04.22.04.22.04.22.03.22.04.22.03.22.03.23.03.22.02.23.03.23.02.22.03.23.02.23.02.23.02.24.01.23.02.23.01.24.02.23.01.24.01.24.01.24.01.23.01.24v.24l.01.24v.49l.01.24-.03.02.01-.04zm.02.02v.02h-.03l.03-.02z"/><path fill="#A1B567" d="M13.49 9.02l-.22-3.75c.15-1.61.46-2.94.92-4.01L12.13.35c.31 1.45-.05 2.93-.84 4.42l.03 2.46.64 1.83 1.53-.04z"/><path fill="#2B2A29" fill-rule="nonzero" d="M13.24 5.27h.05l.22 3.74-.05.01-.22-3.75zm0 0zm.96-4.03l.01.03-.04.1-.04.1-.04.11-.04.1-.04.11-.04.11-.04.11-.04.11-.03.11-.04.12-.03.12-.03.11-.04.12-.03.12-.03.13-.03.12-.03.13-.02.12-.03.13-.03.13-.02.14-.02.13-.03.13-.02.14-.02.14-.02.14-.02.14-.02.15-.02.14-.01.15-.02.15-.01.15-.05-.01.02-.15.01-.15.02-.14.02-.15.02-.14.02-.15.02-.14.02-.14.02-.13.02-.14.03-.13.02-.13.03-.14.02-.13.03-.12.03-.13.03-.12.03-.13.03-.12.03-.12.04-.12.03-.11.04-.12.03-.11.04-.12.04-.11.04-.11.04-.1.04-.11.04-.1.04-.11.04-.1.01.03.02-.04zm0 0l.02.01-.01.02-.01-.03zM12.12.37l-.01-.02.03-.02 2.06.91-.02.04-2.06-.91zm-.01-.02L12.1.31l.04.02-.03.02zm-.84 4.42v-.01l.08-.14.07-.14.06-.14.07-.14.06-.14.06-.14.06-.14.05-.13.05-.14.05-.14.04-.14.05-.14.04-.14.03-.13.03-.14.03-.14.03-.14.02-.14.02-.13.02-.14.01-.14.01-.13.01-.14V1.17l-.01-.14-.01-.14-.02-.13-.02-.14-.02-.13-.03-.14.04-.01.03.14.02.14.02.13.02.14.01.14.01.14v.13l.01.14-.01.14v.14l-.01.14-.02.13-.01.14-.02.14-.03.14-.02.14-.03.14-.04.14-.03.14-.04.13-.04.14-.05.14-.05.14-.05.14-.05.14-.06.14-.06.14-.06.14-.07.14-.06.14-.07.14-.08.14.01-.01h-.05zm0 0v-.01.01zm.08 2.46h-.05l-.03-2.46h.05l.03 2.46zm-.05 0zm.68 1.82l-.02.03-.02-.02-.64-1.83.04-.01.64 1.83zm-.02.03h-.02v-.02l.02.02zm1.53-.09l.02.02-.02.03-1.53.04v-.05l1.53-.04zm.02.02v.03h-.02l.02-.03z"/><path fill="#2B2A29" fill-rule="nonzero" d="M13.29 5.98l.01-.03.03.02.04.75h-.04l-.04-.74zm.01-.03h.03v.02l-.03-.02zm-.89.15l-.02-.02.02-.02.89-.11.01.05-.9.1zm-.02-.02v-.02h.02l-.02.02zm.09.69l-.02.02-.03-.02-.04-.69h.04l.05.69zm-.02.02h-.02l-.01-.02.03.02zm.89-.09l.02.02-.02.03-.89.04v-.04l.89-.05zm.02.02v.02l-.02.01.02-.03zm-.02 0h-.02.02zm.02 0v.02l-.02.01.02-.03z"/><path fill="#A1B567" d="M13.07 1.61c-.1-.12-.21-.25-.32-.38.13-.08.27-.16.4-.24l-1.07-.9c.14 1.44-.15 3.06-.78 4.82.73-1.05 1.36-2.14 1.77-3.3z"/><path fill="#2B2A29" fill-rule="nonzero" d="M12.76 1.25l.01-.03.01.01.01.01.01.02.01.01.01.01.01.01.01.01.01.01.01.02.01.01.01.01.01.01.01.01.01.01.01.02.01.01.01.01.01.01.01.01.01.02.01.01.01.01.01.01.01.01.01.01.01.02.01.01.01.01.01.01.01.01.01.02.01.01-.03.03-.01-.02-.01-.01-.01-.01-.01-.01-.01-.01-.01-.01-.01-.02-.01-.01-.01-.01-.01-.01-.01-.01-.01-.02-.01-.01-.01-.01-.01-.01-.01-.01-.01-.01-.01-.02-.01-.01-.01-.01-.01-.01-.01-.01-.01-.02-.01-.01-.02-.01-.01-.01-.01-.01-.01-.01-.01-.02-.01-.01-.01-.01-.01-.01.01-.03.02.03zm-.03 0l-.01-.02.02-.01-.01.03zm.43-.27v.03l-.01.01-.02.01h-.01l-.01.01-.01.01-.01.01h-.02l-.01.01-.01.01-.01.01h-.02l-.01.01-.01.01-.01.01h-.02l-.01.01-.01.01-.01.01-.02.01h-.01l-.01.01-.01.01-.02.01h-.01l-.01.01-.01.01-.02.01h-.01l-.01.01-.01.01-.02.01h-.01l-.02-.03.01-.01.01-.01.02-.01h.01l.01-.01.01-.01.02-.01h.01l.01-.01.01-.01.02-.01.01-.01h.01l.01-.01.02-.01.01-.01h.01l.01-.01.02-.01.01-.01H13l.01-.01.01-.01.02-.01h.01l.01-.01.01-.01.02-.01h.01l.01-.01.01-.01.02-.01-.01.04.03-.03zm0 0l.03.02-.03.01V.98zm-1.1-.87L12.05.1l.04-.02 1.07.9-.03.03-1.07-.9zM12.05.1V.04l.04.04-.04.02zm-.74 4.82l-.04-.02.06-.16.06-.17.05-.16.06-.16.05-.16.05-.16.04-.16.05-.16.04-.16.04-.15.03-.16.04-.15.03-.16.03-.15.03-.15.03-.15.02-.15.02-.15.02-.15.02-.15.01-.14.02-.15.01-.14V1.2l.01-.14V.64L12.08.5V.37l-.01-.14-.02-.13.05-.01.01.14.01.13.01.14V1.21l-.01.14-.01.15-.01.14-.02.15-.01.15-.02.14-.02.15-.03.15-.02.16-.03.15-.03.15-.04.16-.03.15-.04.16-.04.15-.04.16-.05.16-.04.16-.05.16-.05.16-.05.17-.06.16-.06.16-.05.17-.04-.02.03.02zm0 0l-.09.14.05-.16.04.02zm1.78-3.32l.01.02-.04.11-.05.11-.04.1-.04.11-.05.11-.04.11-.05.1-.05.11-.05.1-.05.11-.05.1-.05.11-.05.1-.06.11-.05.1-.06.1-.06.1-.05.11-.06.1-.06.1-.06.1-.06.1-.07.1-.06.11-.06.1-.07.1-.06.1-.07.1-.06.1-.07.09-.07.1-.07.1-.03-.02.07-.1.06-.1.07-.1.07-.1.06-.1.07-.1.06-.1.06-.1.07-.1.06-.1.06-.1.06-.1.06-.1.06-.11.06-.1.05-.1.06-.1.05-.11.06-.1.05-.1.05-.11.05-.1.05-.11.05-.1.05-.11.05-.1.04-.11.05-.11.04-.1.04-.11.04-.11.04-.11.01.03.03-.03zm0 0l.01.01v.01l-.01-.02z"/><path fill="#F08BB2" d="M1.16 8.3l1.54-.89 1.37.88c.05-2.7.06-5.35-.5-7.36-.18.3-1.64.24-1.88-.04-.6 1.41-.35 4.94-.53 7.41z"/><path fill="#2B2A29" fill-rule="nonzero" d="M2.71 7.43l-1.54.89-.02-.04 1.54-.89h.02v.04zm-.02-.04h.02-.02zm1.37.92l-1.37-.88.02-.04 1.37.88.01.02-.03.02zm.03-.02v.04l-.03-.02.03-.02zM3.59.95L3.55.92l.04.01.05.19.05.19.04.2.04.2.04.21.04.2.03.21.03.22.03.21.03.22.02.23.02.22.02.23.01.23.02.23.01.23.01.24.01.23.01.24v.25l.01.24v1.73l-.01.25v.51l-.01.25h-.04v-.26l.01-.25v-.5l.01-.25V5.79l-.01-.24v-.24l-.01-.24v-.24l-.01-.24-.01-.24-.02-.23L4 3.89l-.02-.23-.02-.23-.02-.22-.02-.22-.02-.22-.03-.22-.03-.21-.03-.21-.04-.21-.04-.2-.04-.2-.04-.2-.05-.19-.05-.19.04.01zM3.55.92l.03-.04.01.05-.04-.01zM1.71.9L1.67.88h.03l.03.02.03.02.04.02.04.03.05.01.05.02.06.02.06.02.07.01.07.01.07.01.08.01.07.01.08.01h.08l.07.01h.23l.08-.01h.07l.07-.01.07-.01.06-.01.06-.01.05-.02.05-.01.05-.02.04-.02.03-.02.02-.02.02-.03.04.03-.03.03-.03.02-.03.03-.04.02-.05.02-.05.02-.06.01-.06.01-.07.02-.06.01h-.08l-.07.01H2.57l-.08-.01h-.07l-.08-.01-.07-.01-.08-.01-.07-.02-.07-.01-.06-.02-.06-.01-.06-.02-.05-.02-.04-.03-.05-.02L1.7.93 1.67.91 1.71.9zM1.67.88l.01-.03.02.03h-.03zm-.52 7.4l.02.04-.03-.02.01-.23.02-.24.01-.25.01-.25.01-.25v-.26l.01-.26V6.3l.01-.26v-.53l.01-.27v-.52l.01-.26V4.2l.01-.26.01-.25.01-.25.01-.24.02-.24.01-.23.02-.22.03-.22.02-.21.03-.2.03-.19.04-.18.04-.18.04-.16.05-.15.06-.14.04.02-.06.14-.04.15-.05.16-.04.17-.03.18-.04.19-.02.2-.03.21-.02.21-.02.23-.02.23-.01.23-.01.25-.02.24v.25l-.01.26-.01.26v.26l-.01.26v.53l-.01.26v.53l-.01.26v.26l-.01.26-.01.25-.01.25-.01.25-.01.24-.02.23-.03-.02zm.02.04l-.03.02V8.3l.03.02z"/><path fill="#F5B2B6" d="M.02 7.18L.2 4.75c1.11-.15.72-2.5.22-3.41L1.69.89c-.07 1.39.46 2.29.98 2.76l.02 3.12L1.16 8.3.02 7.18z"/><path fill="#2B2A29" fill-rule="nonzero" d="M.22 4.75L.04 7.18H0l.18-2.43.01-.02.03.02zm-.04 0v-.02h.01l-.01.02zm.23-3.44l.02.05.01-.04.05.1.04.09.05.11.04.11.04.12.04.12.04.13.03.13.04.13.03.14.02.13.02.14.02.14.02.14.01.14.01.14v.13l-.01.13-.01.13-.01.13-.02.12-.03.11-.03.11-.04.1-.04.09-.06.09-.06.08-.07.06-.08.06-.08.05-.1.03-.1.02-.01-.04.1-.02.09-.03.08-.05.07-.05.07-.06.06-.08.05-.08.04-.09.04-.1.03-.1.03-.11.02-.12.01-.12.01-.13v-.26l-.01-.14-.01-.13-.01-.14-.02-.14-.02-.14-.03-.13-.03-.14-.03-.13-.03-.13-.04-.13-.04-.12-.04-.11-.04-.11-.05-.11-.04-.09-.05-.09.01-.04zm-.01.04l-.01-.03.02-.01-.01.04zM1.69.91l-1.26.45-.02-.05L1.68.87l.03.02-.02.02zM1.68.87l.03-.01v.03L1.68.87zM2.7 3.65h-.05l.01.02-.05-.05-.05-.05-.05-.05-.05-.05-.05-.06-.05-.06-.04-.06-.05-.06-.05-.07-.04-.07-.04-.07-.05-.07-.04-.08-.04-.08-.04-.08-.03-.09-.04-.08-.03-.09-.03-.1-.03-.09-.03-.1-.02-.1-.02-.11-.02-.1-.02-.11-.01-.12-.01-.11-.01-.12-.01-.12v-.25l.01-.13h.04l-.01.13v.13l.01.12v.12l.01.11.01.12.01.11.02.11.02.1.02.11.03.1.02.09.03.1.03.09.03.09.04.09.03.08.04.08.04.08.04.08.04.07.05.07.04.07.05.06.04.07.05.06.05.05.04.06.05.05.05.05.05.05.05.04.01.02zm-.01-.02l.01.01v.01l-.01-.02zm-.02 3.14l-.02-3.12h.05l.02 3.12-.01.02-.04-.02zm.05 0v.01l-.01.01.01-.02zM1.15 8.29l1.53-1.53.03.03-1.53 1.53h-.03v-.03zm.03.03l-.02.01-.01-.01h.03zM.04 7.16l1.14 1.13-.03.03L.01 7.19 0 7.18l.04-.02zm-.03.03H0v-.01l.01.01z"/><path fill="#F08BB2" d="M.42 6.01l1.2.05-.03.32-1.21-.05z"/><path fill="#2B2A29" fill-rule="nonzero" d="M1.62 6.09L.41 6.03l.01-.04 1.2.05.02.03-.02.02zm0-.05h.02v.03l-.02-.03zm-.05.34l.02-.32.05.01-.03.31-.02.02-.02-.02zm.04 0v.02h-.02l.02-.02zM.38 6.31l1.21.05v.04L.38 6.35l-.02-.03.02-.01zm0 .04H.35l.01-.03.02.03zm.06-.34l-.04.32-.04-.01.03-.31.03-.02.02.02zm-.05 0l.01-.02h.02l-.03.02z"/><path fill="#F5B2B6" d="M5.23 7.19l-.17-2.42c-1.11-.16-.73-2.51-.23-3.42L3.57.91c.05 1.28-.28 2.17-.9 2.74l.02 3.12 1.4 1.55 1.14-1.13z"/><path fill="#2B2A29" fill-rule="nonzero" d="M5.03 4.77l.03-.03.02.02.17 2.43h-.04l-.18-2.42zm.03-.03l.02.01v.01l-.02-.02zm-.22-3.41l.01.03-.04.09-.05.1-.04.1-.04.11-.05.12L4.6 2l-.04.12-.04.13-.03.14-.03.13-.02.14-.03.14-.01.13-.02.14-.01.14-.01.13v.14l.01.13v.12l.02.13.02.11.02.11.04.11.03.1.05.09.05.08.06.07.06.07.07.05.08.04.09.03.1.02-.01.05-.1-.02-.09-.04-.09-.04-.08-.06-.07-.07-.06-.08-.05-.08-.05-.1-.04-.1-.03-.1-.03-.12-.02-.12-.01-.12-.01-.13v-.27l.01-.13.01-.14.01-.14.02-.14.02-.14.03-.14.03-.13.03-.14.04-.13.03-.12.04-.13.04-.11.05-.12.04-.1.05-.1.05-.09.01.03.01-.04zm0 0l.03.01-.02.02-.01-.03zM3.56.93L3.54.91l.03-.02 1.27.44-.01.04L3.56.93zM3.54.91V.87l.03.02-.03.02zm-.89 2.74l.01-.02.06-.05.05-.06.05-.05.06-.06.04-.07.05-.06.05-.06.04-.07.05-.07.04-.07.03-.07.04-.08.04-.08.03-.08.03-.08.03-.08.03-.09.02-.08.03-.09.02-.1.02-.09.01-.1.02-.09.01-.11.01-.1.01-.1.01-.11.01-.11V1.03L3.54.91h.05v.57l-.01.11-.01.11-.01.1-.02.1-.01.1-.02.1-.02.09-.02.1-.02.09-.03.09-.03.08-.03.09-.03.08-.03.08-.04.08-.04.08-.04.07-.04.07-.04.07-.04.07-.05.07-.05.06-.05.06-.05.06-.06.06-.05.06-.06.05.01-.01h-.05zm0 0v-.01l.01-.01-.01.02zm.07 3.12l-.04.02-.01-.02-.02-3.12h.05l.02 3.12zm-.04.02l-.01-.01v-.01l.01.02zM4.11 8.3v.03h-.03l-1.4-1.54.03-.03 1.4 1.54zm0 .03l-.02.02-.01-.02h.03zm1.11-1.15l.03.01v.02L4.11 8.33l-.03-.03 1.14-1.12zm.03.01v.02-.02z"/><path fill="#F08BB2" d="M2.35 3.87c.07 0 .12.05.12.12 0 .07-.05.12-.12.12-.07 0-.12-.05-.12-.12 0-.07.05-.12.12-.12zm-.01 1.6c.06 0 .12.06.12.12 0 .07-.06.13-.12.13-.07 0-.12-.06-.12-.13 0-.06.05-.12.12-.12zm.02.93c.07 0 .12.06.12.13 0 .06-.05.12-.12.12-.07 0-.12-.06-.12-.12 0-.07.05-.13.12-.13zm-.01-1.72c.06 0 .12.06.12.12 0 .07-.06.13-.12.13-.07 0-.12-.06-.12-.13 0-.06.05-.12.12-.12z"/><path fill="#2B2A29" fill-rule="nonzero" d="M2.49 3.99h-.04v-.02h-.01v-.02l-.01-.01v-.01l-.01-.01-.01-.01H2.4V3.9h-.01l-.01-.01h-.03v-.05h.01l.01.01h.03v.01h.02v.01h.01l.01.01.01.01.01.01.01.01v.01l.01.01v.02h.01v.04zm-.14.14v-.04h.03v-.01h.02v-.01h.01v-.01h.01v-.01h.01v-.01l.01-.01v-.02L2.45 4v-.01h.04v.04h-.01v.02l-.01.01v.01l-.01.01-.01.01-.01.01-.01.01h-.01v.01H2.4v.01h-.05zm-.14-.14h.04v.02l.01.01v.02l.01.01.01.01.01.01.01.01h.01l.01.01h.03v.04H2.3l-.01-.01h-.01l-.01-.01h-.01V4.1h-.01v-.01h-.01v-.01h-.01v-.02h-.01v-.01l-.01-.01v-.05zm.14-.15v.05h-.04v.01H2.3l-.01.01h-.01v.01h-.01v.01l-.01.01v.02h-.01v.03h-.04v-.05l.01-.01v-.01l.01-.01V3.9h.01v-.01h.01v-.01h.01v-.01h.01l.01-.01h.01l.01-.01h.03v-.01h.02zm.13 1.75h-.04l-.01-.01v-.03l-.01-.01v-.01h-.01v-.01H2.4v-.01h-.01l-.01-.01h-.02v-.01h-.02v-.04h.04l.01.01h.01l.01.01h.01v.01h.01v.01h.01v.01h.01v.01h.01v.01l.01.01v.02l.01.01v.03zm-.14.15v-.05h.04v-.01h.01l.01-.01.01-.01.01-.01v-.01h.01V5.6h.01v-.01h.04v.04l-.01.01v.02h-.01v.01l-.01.01v.01h-.01v.01h-.01l-.01.01-.01.01H2.4l-.01.01h-.02l-.01.01h-.02zm-.15-.15h.05v.03l.01.01v.02h.01v.01h.01v.01h.01v.01h.01l.01.01h.04v.05h-.02l-.01-.01h-.03v-.01h-.02v-.01h-.01V5.7h-.01l-.01-.01-.01-.01v-.01l-.01-.01v-.01l-.01-.01v-.03l-.01-.01v-.01zm.15-.14v.04h-.02l-.01.01h-.02v.01h-.01l-.01.01h-.01v.02h-.01v.02h-.01v.03h-.05l.01-.01v-.04h.01v-.02h.01v-.01l.01-.01.01-.01.01-.01.01-.01h.01l.01-.01h.01v-.01h.05zm.16 1.08h-.04V6.5h-.01v-.02l-.01-.01v-.01h-.01v-.01h-.01v-.01h-.01l-.01-.01h-.03v-.01h-.01v-.04h.04v.01h.02l.01.01.01.01h.01l.01.01.01.01.01.01v.01l.01.01v.02h.01v.05zm-.14.14v-.04h.01l.01-.01h.02l.01-.01h.01V6.6h.01v-.01h.01v-.01l.01-.01v-.01l.01-.01v-.02h.04v.04h-.01v.02l-.01.01v.01l-.01.01-.01.01-.01.01-.01.01h-.01l-.01.01H2.4v.01h-.04zm-.14-.14h.04v.02h.01v.02l.01.01v.01h.01v.01h.01v.01h.01l.01.01h.03v.01h.01v.04h-.03l-.01-.01H2.3l-.01-.01h-.01v-.01h-.01l-.01-.01v-.01h-.01v-.01h-.01v-.02h-.01v-.02h-.01v-.04zm.14-.15v.04l-.01.01h-.03l-.01.01H2.3v.01h-.01v.01h-.01v.01l-.01.01v.02h-.01v.03h-.04v-.05h.01v-.02h.01v-.02h.01v-.01h.01v-.01l.01-.01h.01l.01-.01.01-.01h.02l.01-.01h.03zm.13-1.58h-.04v-.01l-.01-.01v-.02h-.01v-.02h-.01v-.01h-.01v-.01H2.4l-.01-.01h-.03V4.7h-.01v-.04h.03l.01.01h.02l.01.01h.01v.01h.01v.01h.01v.01h.01v.01h.01v.02h.01v.02l.01.01v.03zm-.14.15v-.04l.01-.01h.03l.01-.01h.01v-.01h.01v-.01h.01v-.02h.01v-.02l.01-.01V4.8h.04v.04l-.01.01v.02h-.01v.02h-.01v.01h-.01v.01h-.01v.01h-.01l-.01.01-.01.01h-.02l-.01.01h-.03zm-.14-.15h.04v.03l.01.01v.02h.01v.01h.01v.01h.01v.01h.01l.01.01h.03v.01h.01v.04h-.04v-.01h-.02l-.01-.01h-.01v-.01h-.01l-.01-.01-.01-.01-.01-.01v-.01l-.01-.01v-.01l-.01-.01V4.8zm.14-.14v.04h-.01l-.01.01h-.02l-.01.01h-.01v.01h-.01v.01h-.01v.01h-.01v.02h-.01v.03h-.04v-.04l.01-.01v-.01l.01-.01v-.01l.01-.01.01-.01.01-.01.01-.01h.01l.01-.01h.02v-.01h.04z"/><path fill="#F08BB2" d="M4.83 5.91l-1.2.08.03.32 1.21-.08z"/><path fill="#2B2A29" fill-rule="nonzero" d="M3.63 6.01l-.02-.02.02-.02 1.2-.08v.05l-1.2.07zm-.02-.02v-.02h.02l-.02.02zm.07.32l-.02.02-.03-.02-.02-.32h.04l.03.32zm-.02.02h-.02l-.01-.02.03.02zm1.21-.12l.02.02-.02.02-1.21.08v-.04l1.21-.08zm.02.02v.02h-.02l.02-.02zm-.08-.31l.02-.03.02.02.04.32h-.04l-.04-.31zm.02-.03h.02v.02l-.02-.02z"/></svg>