<svg xmlns="http://www.w3.org/2000/svg" width="63" height="57" fill-rule="evenodd" clip-rule="evenodd" image-rendering="optimizeQuality" shape-rendering="geometricPrecision" text-rendering="geometricPrecision" viewBox="0 0 6.81 6.1"><path fill="#F6C0C3" d="M.03 1.32l.69.9.76-.08 3.87-.02.74.09.7-.89L5.34.38c-1.2.67-2.48.69-3.86-.03l-1.45.97z"/><path fill="#2B2A29" fill-rule="nonzero" d="M.7 2.23l-.69-.89.03-.03.69.9-.01.03-.02-.01zm.02.01H.71L.7 2.23l.02.01zm.76-.08l-.76.08V2.2l.75-.07h.01v.03zm-.01-.03h.01-.01zm3.88.01l-3.87.02v-.03l3.87-.03v.04zm0-.04zm.74.13l-.75-.09.01-.04.74.09.01.03-.01.01zm.01-.01v.01h-.01l.01-.01zm.7-.89l-.7.89-.02-.02.69-.9h.03v.03zm0-.03l.01.01-.01.02V1.3zM5.35.36l1.45.94-.02.03L5.33.39V.36h.02zm-.02 0l.01-.01.01.01h-.02zM1.49.37L1.47.34h.01l.13.06.13.06.13.06.13.05.12.05.13.04.12.04.13.04.12.03.13.02.12.03.12.02.12.01.13.01.12.01h.24l.12-.01.12-.01.11-.01.12-.02.12-.02.12-.03.11-.03.12-.03.11-.04.12-.04.11-.05L5 .53l.11-.05.11-.06.11-.06.02.03-.11.06-.11.06-.12.06-.11.05-.12.04-.12.04-.11.04-.12.04-.12.03-.11.02-.12.02-.12.02-.12.02-.12.01H3.6l-.12.01L3.36.9h-.13L3.11.89 2.99.87 2.86.85 2.74.83 2.61.8 2.49.77 2.36.74 2.24.7 2.11.65 1.98.6 1.85.55 1.73.5 1.6.43 1.47.37h.02zM1.47.34V.33l.01.01h-.01zm-1.45.97L1.47.34l.02.03-1.45.97H.01l.01-.03zm-.01.03L0 1.32l.02-.01-.01.03z"/><path fill="#F6C0C3" d="M1.56 5.23c.2.48.7.85 1.3.85h1.08c.59 0 1.1-.35 1.3-.83.09-.21.1-.25.1-.46v-.36l.01-2.31c-.26-.65-.24-1.23 0-1.76L4.06.02c-.42.1-.83.12-1.26.01L1.48.35c.34.63.3 1.23 0 1.79v.15h-.01v2.5c0 .17.02.27.09.44z"/><path fill="#2B2A29" fill-rule="nonzero" d="M2.86 6.06v.04H2.8l-.05-.01h-.06l-.05-.01-.06-.01-.05-.01-.05-.01-.05-.02-.05-.01L2.33 6l-.05-.02-.05-.02-.05-.03-.04-.02-.05-.03-.04-.03-.04-.03-.04-.03-.04-.03-.04-.03-.04-.04-.04-.04-.03-.03-.03-.04-.03-.04-.03-.04-.03-.04-.03-.05-.03-.04-.02-.04-.02-.05-.02-.04.03-.02.02.05.02.04.03.04.02.05.03.04.03.04.02.04.04.04.03.03.03.04.04.03.03.04.04.03.04.03.04.03.04.03.04.03.05.02.04.03.05.02.04.02.05.02.05.02.05.02.05.01.05.02.05.01.05.01h.06l.05.01h.11zm1.08.04H2.86v-.04h1.08v.04zm1.29-.86l.03.02-.02.04-.02.05-.03.04-.02.05-.03.04-.03.04-.03.04-.03.04-.03.03-.04.04-.03.04-.04.03-.04.03-.04.03-.04.03-.04.03-.04.03-.05.02-.05.03-.04.02-.05.02-.05.02-.05.02-.05.02-.05.01-.05.01-.05.01-.06.01-.05.01h-.05L4 6.1h-.06v-.04h.11l.06-.01h.05l.05-.01.05-.01.05-.02.05-.01.05-.01.05-.02.05-.02.04-.02.05-.02.04-.03.05-.02.04-.03.04-.03.04-.03.04-.03.04-.03.03-.03.04-.04.03-.03.03-.04.03-.03.03-.04.03-.04.03-.04.02-.05.02-.04.03-.04.02-.05zm.09-.45h.03v.2L5.34 5v.04l-.01.01v.02l-.01.02v.02l-.01.02v.01l-.01.02-.01.01v.02l-.01.01-.01.02v.02l-.01.02-.03-.02v-.01l.01-.02.01-.02v-.02l.01-.01.01-.02v-.01l.01-.02V5.1l.01-.01v-.03l.01-.01v-.03l.01-.01v-.08l.01-.01v-.13zm.03-.36v.36h-.03v-.36h.03zm-.03 0zm.04-2.31l-.01 2.32-.03-.01.01-2.31.03-.01v.01zm0-.01v.01-.01zM5.35.38l.01-.04.01.03-.02.04-.02.05-.02.05-.02.05-.02.06-.01.05-.02.05-.01.05-.01.05-.01.05-.01.06-.01.05v.05l-.01.06v.27l.01.05.01.06v.06l.01.05.01.06.01.06.02.06.01.06.02.05.02.06.02.06.02.06.02.06-.03.02-.02-.07L5.28 2l-.02-.06-.01-.06-.02-.06-.02-.05-.01-.06-.01-.06-.01-.06-.01-.06-.01-.05-.01-.06v-.11l-.01-.06v-.11l.01-.06v-.05l.01-.06V.92l.01-.05.01-.06.01-.05.02-.05.01-.05.02-.06.01-.05.02-.05.02-.05.02-.05.03-.05.01.03zm.01-.04l.02.01-.01.02-.01-.03zM4.06 0l1.3.34-.01.04-1.3-.34V0h.01zm-.01 0h.01-.01zM2.8.05V.01l.04.01.04.01.04.01.04.01H3l.04.01.04.01h.08l.04.01H3.59l.04-.01h.08l.03-.01h.04l.04-.01.04-.01h.04l.04-.01.04-.01.03-.01.04-.01.01.04-.04.01h-.04l-.04.01-.03.01-.04.01-.04.01h-.04L3.75.1h-.04l-.04.01h-.08l-.04.01h-.31L3.2.11h-.08L3.08.1h-.04L3 .09 2.96.08h-.04L2.88.07 2.84.06 2.8.05zm0-.04zM1.47.34L2.8.01v.04L1.48.37 1.46.36l.01-.02zm-.01.02L1.45.34h.02l-.01.02zm.03 1.78h-.03v-.01l.03-.05.02-.05.03-.05.02-.06.02-.05.02-.05.02-.06.02-.05.01-.06.01-.05.01-.05.01-.06.01-.05.01-.06v-.27l-.01-.06-.01-.06-.01-.05-.01-.06-.01-.06-.02-.05-.02-.06-.02-.06L1.57.6 1.55.54 1.52.48 1.49.42 1.46.36l.03-.02.03.06.03.06.03.06.02.06.03.06.02.06.02.06.01.06.02.05.01.06.01.06.01.06v.05l.01.06V1.33l-.01.06v.05l-.01.06-.01.05-.01.06-.01.05-.02.06-.01.05-.02.06-.02.05-.02.06-.03.05-.02.05-.03.06-.03.05v-.01zm-.03 0v-.01.01zm0 .15v-.15h.03v.15l-.01.01-.02-.01zm.03 0v.01h-.01l.01-.01zm-.02-.02h.01v.03h-.01l-.02-.01.02-.02zm-.02.02v-.02h.02l-.02.02zm0 2.5v-2.5h.04v2.5h-.04zm.12.43l-.03.02-.01-.02v-.01l-.01-.02v-.01l-.01-.02-.01-.01v-.03l-.01-.01v-.02l-.01-.01v-.03l-.01-.01V5l-.01-.01v-.06l-.01-.01v-.13h.04v.15l.01.02v.05l.01.01v.04l.01.01v.01l.01.01v.03l.01.01v.02l.01.01v.02l.01.01.01.02v.01z"/><path fill="#F6C0C3" d="M2.32 5.98c.17.06.35.1.54.1h1.08c.2 0 .39-.04.57-.11v-.94H2.32v.95z"/><path fill="#2B2A29" fill-rule="nonzero" d="M2.86 6.06v.04H2.77l-.02-.01H2.66l-.01-.01h-.04l-.02-.01h-.03l-.02-.01h-.03l-.02-.01h-.01l-.02-.01h-.02l-.01-.01h-.02l-.02-.01h-.01l-.02-.01h-.01L2.33 6h-.01l.01-.04.01.01h.02l.01.01h.02l.02.01h.01l.02.01h.01l.02.01h.02l.01.01h.02l.02.01h.03l.01.01h.05l.02.01h.07l.02.01H2.86zm1.08.04H2.86v-.04h1.08v.04zm.55-.13h.03l-.01.02H4.5L4.48 6l-.02.01h-.01l-.02.01h-.02l-.01.01h-.02l-.02.01h-.02l-.01.01h-.02l-.02.01h-.02l-.01.01h-.04l-.02.01h-.05l-.02.01H4.04l-.02.01h-.08v-.04h.13l.02-.01h.07l.02-.01h.03l.02-.01h.04l.01-.01h.02l.02-.01h.02L4.35 6h.02l.02-.01h.01l.02-.01h.01l.02-.01.02-.01h.01l.02-.01-.01.02zm.03 0v.01l-.01.01.01-.02zm0-.94v.94h-.03v-.94l.02-.02.01.02zm-.01-.02h.01v.02l-.01-.02zm-2.19 0h2.19v.04H2.32l-.02-.02.02-.02zm-.02.02v-.02h.02l-.02.02zm0 .95v-.95h.04v.95L2.32 6l-.02-.02zm.02.02l-.02-.01v-.01l.02.02z"/><path fill="#99CFBA" d="M4.11.03L4.06.02c-.42.1-.83.12-1.26.01h-.01v.05c0 .32.3.58.66.58.37 0 .66-.26.66-.58V.03z"/><path fill="#2B2A29" fill-rule="nonzero" d="M4.06 0l.05.01-.01.04-.05-.01V0h.01zm-.01 0h.01-.01zM2.8.05V.01l.04.01.04.01.04.01.04.01H3l.04.01.04.01h.08l.04.01H3.59l.04-.01h.08l.03-.01h.04l.04-.01.04-.01h.04l.04-.01.04-.01.03-.01.04-.01.01.04-.04.01h-.04l-.04.01-.03.01-.04.01-.04.01h-.04L3.75.1h-.04l-.04.01h-.08l-.04.01h-.31L3.2.11h-.08L3.08.1h-.04L3 .09 2.96.08h-.04L2.88.07 2.84.06 2.8.05zm0-.04zm-.01.01L2.8.01v.04L2.78.03l.01-.01zm-.01.01V.02h.01l-.01.01zm.03.05h-.04V.04h.01V.03l.03.01v.04zm.64.57v.03h-.07L3.35.67h-.04L3.28.66 3.25.65h-.03L3.19.63 3.16.62 3.13.61 3.1.6 3.07.58 3.05.56 3.02.55 3 .53 2.97.51 2.95.49 2.93.46 2.91.44 2.89.42 2.87.39 2.86.37 2.84.34 2.83.32 2.81.29 2.8.26 2.79.23V.2L2.78.18V.14L2.77.11V.08h.04v.06l.01.03V.2l.01.02.01.03.01.03.01.02.01.03.02.02.01.02.02.03.02.02.02.02.02.02.02.02.02.02.02.02.03.01.02.02.03.01.02.02.03.01.03.01.03.01.03.01.03.01h.03l.03.01h.07l.03.01zm.64-.57h.04v.06l-.01.04V.2l-.01.03-.01.03-.01.03-.01.03-.02.02-.01.03-.02.02-.02.03-.02.02-.02.02-.02.03-.02.02-.02.02-.03.02-.02.01-.03.02L3.8.6l-.03.01-.03.01-.03.01-.03.02h-.03l-.03.01-.03.01h-.04l-.03.01h-.07V.65l.03-.01h.07l.03-.01h.03l.03-.01.03-.01L3.7.6l.03-.01.03-.01.02-.02.03-.01.03-.02.02-.01.02-.02.03-.02.02-.02.02-.02.02-.02.01-.02L4 .37l.02-.02.01-.02.01-.03.01-.02.01-.03.01-.03.01-.02.01-.03V.08zM4.1.05l.01-.04.02.02v.05h-.04V.03l.01.02zm.01-.04l.02.01v.01L4.11.01z"/><path fill="#F6C0C3" d="M5.34 4.4v.39c0 .59-.44 1.1-1.03 1.25-.04-.12-.06-.24-.06-.37 0-.64.47-1.16 1.09-1.27z"/><path fill="#2B2A29" fill-rule="nonzero" d="M5.32 4.79V4.4h.03v.39h-.03zM4.29 6.04l.03-.01-.02-.01.06-.02.05-.01.05-.02.05-.02.05-.03.05-.02.05-.03.05-.02.04-.03.05-.04.04-.03.04-.03.04-.04.04-.04.03-.03.04-.04.03-.04.03-.05.03-.04.03-.05.03-.04.02-.05.02-.05.02-.05.02-.04.01-.06.02-.05L5.3 5l.01-.05v-.06l.01-.05v-.05h.03v.11l-.01.05-.01.06-.01.05-.01.05-.02.06-.01.05-.02.05-.03.05-.02.05-.03.04-.03.05-.03.04-.03.05-.03.04-.04.04-.04.04-.04.04-.04.04-.04.03-.04.03-.05.04-.04.03-.05.02-.05.03-.05.03-.05.02-.06.02-.05.02-.05.02-.06.01-.02-.01zm.02.01l-.02.01v-.02l.02.01zm-.08-.38h.04V5.77l.01.02V5.85l.01.01v.05l.01.01v.03l.01.01V6l.01.01v.02l-.03.01v-.01l-.01-.01V6l-.01-.02v-.02l-.01-.01v-.04l-.01-.02v-.04l-.01-.01v-.11l-.01-.01v-.05zM5.35 4.4h-.03l.02.02-.06.01-.05.01-.06.02-.05.02-.05.02-.06.02-.05.02-.04.03-.05.03-.05.03-.04.03-.05.03-.04.04-.04.04-.04.04-.03.04-.04.04-.03.04-.03.05-.03.05-.03.04-.02.05-.03.05-.02.05-.02.06-.01.05-.02.05-.01.06-.01.06v.05l-.01.06v.06h-.04l.01-.06v-.06l.01-.06.01-.06.01-.05.01-.06.02-.05.02-.06.02-.05.02-.05.03-.05.03-.05.03-.05.03-.05.03-.04.04-.05.04-.04.04-.04.04-.04.04-.03.05-.04.04-.03.05-.03.05-.03.05-.03.05-.03.05-.02.06-.02.05-.02.06-.01.05-.02.06-.01.02.02zm-.02-.02h.02v.02l-.02-.02z"/><path fill="#F6C0C3" d="M2.69 6.07C2 5.99 1.47 5.44 1.47 4.79v-.44c.72.25 1.23.85 1.23 1.55 0 .06 0 .11-.01.17z"/><path fill="#2B2A29" fill-rule="nonzero" d="M1.45 4.79h.04v.12l.01.06.01.05.01.06.02.06.02.05.02.06.02.05.03.05.03.05.03.05.03.05.04.05.04.04.03.04.05.04.04.04.05.04.04.04.05.03.05.04.05.03.06.02.05.03.06.02.06.02.06.02.06.02.06.01.06.01.06.01v.04l-.07-.01-.06-.01-.06-.02-.06-.01-.06-.02L2.32 6l-.06-.03-.06-.02-.05-.03-.06-.03-.05-.04-.05-.03-.05-.04-.04-.04-.05-.04-.04-.04-.04-.05-.04-.04-.04-.05-.03-.05-.03-.05-.03-.05-.03-.05-.02-.06-.03-.06-.02-.05-.01-.06-.02-.06-.01-.06v-.06l-.01-.06v-.06zm.04-.44v.44h-.04v-.44l.02-.01.02.01zm-.04 0v-.02l.02.01-.02.01zM2.72 5.9h-.04v-.13l-.01-.06-.01-.06-.01-.07-.02-.06-.02-.06-.02-.06-.02-.06-.03-.05-.02-.06-.03-.05-.04-.06-.03-.05-.04-.05-.04-.05-.04-.05-.04-.05-.05-.05-.05-.04-.05-.05-.05-.04-.05-.04-.06-.04-.05-.03-.06-.04-.06-.03-.06-.03-.06-.03-.07-.03-.06-.03-.07-.02.01-.03.07.02.07.03.06.02.07.03.06.04.06.03.06.04.05.03.06.04.05.04.06.05.05.04.05.05.04.04.05.05.04.05.04.05.04.06.03.05.04.06.03.05.03.06.02.06.03.06.02.06.02.06.01.07.02.06.01.06v.07l.01.07v.06zm-.03.19v-.04l-.02.02v-.02h.01V5.9h.04V6.01h-.01V6.07l-.02.02zm.02-.02v.02h-.02l.02-.02zM1.61 4.27v.04h-.02V4.3h-.02v-.01h-.01l-.01-.01h-.01v-.01h-.01v-.01h-.01v-.01h-.01v-.01h-.02v-.01h-.02l-.01-.01.01-.03h.02l.01.01h.01l.01.01h.01v.01h.01v.01h.01l.01.01.01.01h.01v.01h.01v.01h.02zm.18 0l-.01.03h-.07v.01H1.61v-.04l.01.01h.04l.01-.01h.07v-.01h.03v.01h.02zm.11.12l-.01.04-.01-.01h-.01v-.01h-.01V4.4h-.01v-.01l-.01-.01-.01-.01v-.01l-.01-.01v-.01h-.01v-.02H1.8l-.01-.01h-.01V4.3l.01-.03h.01l.01.01.01.01h.01v.01h.01v.01l.01.01v.01l.01.01v.01h.01v.02h.01v.01h.01v.01h.01zm.18-.01l-.02.04v-.01h-.04l-.01.01h-.04l-.01.01h-.07l.01-.04h.08l.01-.01h.09zm.1.14l-.02.03-.01-.01-.01-.01-.01-.01v-.01h-.01v-.02h-.01v-.02H2.1v-.02h-.01v-.02h-.01l-.01-.01h-.01l.02-.04.01.01h.01v.01h.01v.01l.01.01v.01h.01v.02h.01v.02h.01v.02h.01v.01h.01v.01h.01v.01zm.18.03l-.03.03v-.01h-.05l-.01-.01h-.09l-.01-.01h-.01l.02-.03h.02l.01.01H2.32l.01.01h.02l.01.01zm.08.17l-.03.03v-.01H2.4v-.01l-.01-.01v-.01l-.01-.01v-.03h-.01v-.04h-.01v-.02l-.01-.01v-.01h-.01v-.01h-.01l.03-.03.01.01.01.01v.01l.01.01v.01l.01.01v.03h.01v.04h.01v.02l.01.01v.01h.01zm.17.09l-.03.02v-.01h-.01v-.01h-.02V4.8h-.02l-.01-.01h-.03v-.01h-.03v-.01h-.02l-.01-.01-.01-.01h-.01l.03-.03v.01h.01l.01.01h.02l.01.01h.02l.01.01h.02l.01.01h.02l.01.01h.01v.01h.01l.01.01v.01zm.02.16l-.04.02v-.02l-.01-.01v-.04l.01-.01v-.08h-.01l.03-.02h.01v.02l.01.01v.05h-.01v.08h.01zm.13.1l-.03.02h-.01v-.01l-.01-.01H2.7v-.01h-.01v-.01h-.02l-.01-.01h-.01l-.01-.01h-.01l-.01-.01-.01-.01H2.6V5l-.01-.01.04-.02v.01l.01.01h.01V5h.02v.01h.02v.01h.01l.01.01h.01l.01.01.01.01h.01v.01l.01.01zm-.02.18l-.03.01v-.08l.01-.01v-.02l.01-.01v-.05l.03-.02v.02l.01.01v.02l-.01.01v.04h-.01v.04h-.01v.04zm.11.14l-.04.01v-.02H2.8v-.01l-.01-.01-.01-.01-.01-.01h-.01v-.01h-.01v-.01l-.01-.01h-.01V5.3l-.01-.01v-.01l-.01-.01v-.01l.03-.01v.01h.01v.01l.01.01v.01h.01l.01.01v.01h.01l.01.01.01.01.01.01.01.01.01.01v.02h.01v.01zm-.05.16l-.04.01v-.03l.01-.01V5.5l.01-.01v-.01h.01v-.02h.01v-.02h.01v-.03h.01V5.4h-.01l.04-.01v.05h-.01v.02h-.01v.02l-.01.01v.01h-.01v.01l-.01.01v.03zm.08.14h-.03v-.01h-.01v-.01l-.01-.01v-.01h-.01v-.01h-.01v-.01H2.8v-.01h-.01v-.01h-.01V5.6l-.01-.01v-.01l-.01-.01v-.01l.04-.01v.02l.01.01v.01h.01v.01h.01v.01h.01v.01h.01v.01h.01v.01h.01v.01l.01.01v.03zm-.06.13h-.04V5.8h.01v-.02l.01-.01.01-.01v-.01h.01v-.01h.01v-.02h.01V5.7h.01v-.01h.03v.03l-.01.01v.01h-.01v.01l-.01.01v.01h-.01v.01l-.01.01v.01h-.01v.02zm.07.11h-.04v-.01l-.01-.01V5.9h-.01v-.01h-.01v-.01h-.01v-.01H2.8v-.01l-.01-.01v-.01h-.01v-.02h.04v.01l.01.01v.01h.01v.01h.01v.01h.01v.01h.01v.02h.01v.02h.01v.01zm-.05.15H2.8v-.01l.01-.01v-.03l.01-.01v-.01L2.83 6v-.02h.01v-.02l.01-.01v-.02h.04l-.01.01v.04h-.01V6l-.01.01v.01l-.01.01v.02l-.01.01v.02zM5.2 4.25v-.01h.02v-.01h.01v-.01h.01l.01-.01.01-.01.01-.01.01-.01h.01v-.01h.01l.01-.01h.02l.01-.01v.04h-.01l-.01.01h-.01v.01H5.3v.01h-.01v.01h-.01l-.01.01-.01.01h-.01v.01h-.01v.01h-.02v.01h-.01l-.01-.03zm-.18 0h.01v-.01h.08l.01.01h.08l.01.03h-.03l-.01.01-.01-.01H5.03l-.01-.03zm-.1.12h.01v-.01h.01v-.01l.01-.01v-.01l.01-.01v-.01l.01-.01v-.01l.01-.01.01-.01v-.01H5l.01-.01h.01l.01.03-.01.01-.01.01v.01H5v.02h-.01v.01l-.01.01v.01l-.01.01v.01h-.01v.01h-.01v.01h-.01l-.01.01-.01-.04zm-.17.01h.01l.01-.01h.07v.01h.07l.01-.01.01.04H4.9v.01h-.02l-.01-.01H4.77l-.02-.03zm-.09.14l.01-.01.01-.01v-.01l.01-.01v-.02h.01v-.02h.01v-.02h.01v-.01l.01-.01.01-.01.01-.01.02.03v.01h-.01l-.01.01v.01h-.01v.02h-.01v.02l-.01.01v.01l-.01.01v.01l-.01.01-.01.01-.01.01-.02-.03zm-.17.04v-.01h.02v-.01h.05l.01-.01h.08v-.01h.01l.02.03h-.01v.01h-.03l-.01.01h-.09v.01h-.03v.01l-.02-.03zm-.04.16h.01V4.59l.01-.01v-.01l.01-.01h.01l.02.03H4.5v.02h-.01v.02l.01.01v.07l-.01.01v.01l-.01.01v.01l-.03-.03zm-.17.09h.01V4.8h.01v-.01h.01l.01-.01h.01l.01-.01h.01l.01-.01h.02l.01-.01h.02l.01-.01h.01l.01-.01h.01v-.01l.03.03h-.01v.01h-.01l-.01.01h-.01l-.01.01h-.02l-.01.01h-.01l-.01.01h-.02l-.01.01h-.01l-.01.01h-.01v.01h-.01l-.03-.02zm0 .17V4.9h-.01v-.07l.01-.01v-.01l.03.02v.08l.01.01v.07h-.01V5l-.03-.02zm-.13.11v-.01h.01v-.01l.01-.01.01-.01h.01v-.01h.01l.01-.01h.01l.01-.01h.01v-.01h.01L4.26 5h.01v-.01h.01v-.01l.03.02v.01H4.3v.01h-.01v.01h-.01l-.01.01h-.01v.01h-.02v.01h-.01l-.01.01h-.01v.01H4.2l-.01.01v.01l-.04-.01zm.03.18v-.04l-.01-.01V5.2l-.01-.01v-.02l-.01-.01v-.07l.04.01h-.01v.03l.01.01v.03h.01v.03h.01v.07h-.03zm-.1.14v-.02h.01v-.01l.01-.01v-.01h.01v-.01l.01-.01.01-.01.01-.01.01-.01V5.3h.01v-.01h.01v-.01l.01-.01h.03v.02l-.01.01v.01h-.01v.01l-.01.01-.01.01-.01.01-.01.01v.01h-.01l-.01.01v.01h-.01v.02l-.01.01-.03-.01zm.06.16v-.03h-.01v-.01l-.01-.01v-.01h-.01v-.02H4.1v-.01l-.01-.01v-.02h-.01v-.04l.03.01v.01h.01v.02h.01v.02h.01v.01l.01.01v.01l.01.01v.01h.01v.02l.01.01v.02h-.04zm-.08.14v-.02h.01v-.02l.01-.01v-.01h.01v-.01l.01-.01h.01v-.01l.01-.01.01-.01v-.01h.01v-.02h.04v.01l-.01.01v.01l-.01.01v.01h-.01v.01l-.01.01v.01h-.01v.01h-.01v.01h-.01v.01l-.01.01v.02h-.04zm.08.13v-.01h-.01v-.02h-.01V5.8l-.01-.01-.01-.01v-.01h-.01v-.01h-.01v-.01l-.01-.01v-.02h-.01v-.01h.04v.01l.01.01v.01h.01v.01h.01v.01l.01.01v.01h.01v.01h.01v.02h.01v.02l-.03.01zm-.06.11l-.01-.01h.01v-.03h.01V5.9l.01-.01.01-.01v-.01h.01v-.01h.01v-.02h.01l.03-.01v.03l-.01.01v.01h-.01v.01l-.01.01-.01.01v.01h-.01v.01h-.01v.01l-.03.01zm.05.15v-.02h-.01v-.03h-.01v-.02H4.1v-.02h-.01v-.02l-.01-.01v-.03l.03-.01v.02h.01v.03h.01v.02h.01v.02h.01v.02h.01v.04h.01l-.04.01zM3.62 5.03V.64h.04v4.39l-.02.02-.02-.02zm.04 0v.02h-.02l.02-.02zm-.45-.02h.43v.04h-.43l-.02-.02.02-.02zm0 .04h-.02v-.02l.02.02zM3.23.62v4.41h-.04V.62l.03-.01.01.01zm-.04 0V.6l.03.01-.03.01zm.26.03v.03H3.35V.67H3.3L3.29.66h-.04V.65h-.02L3.22.64H3.2l.02-.03h.02l.01.01h.03l.01.01h.04l.01.01H3.44v.01h.01zm.21-.01h-.04l.03.02h-.04v.01H3.55v.01H3.45V.65h.01V.64H3.57l.01-.01h.04l.01-.01h.01l.02.02zM3.64.62l.02-.01v.03L3.64.62zM3.58.98h-.03V.95h-.01V.93h-.01V.92L3.52.91h-.01V.9H3.5V.89h-.02V.88h-.05V.84h.04v.01h.03v.01h.02v.01h.01l.01.01.01.01.01.01.01.01v.01l.01.01v.05zm-.15.13v-.04h.05v-.01h.02v-.01h.01v-.01h.01l.01-.01v-.01h.01V1h.01V.98h.03v.04l-.01.01v.01l-.01.01-.01.01-.01.01-.01.01h-.01v.01H3.5v.01h-.03v.01h-.04zM3.27.98h.04V1h.01v.02l.01.01.01.01.01.01h.01v.01h.02v.01h.05v.04h-.04l-.01-.01h-.02v-.01h-.02v-.01h-.01l-.01-.01-.01-.01-.01-.01-.01-.01v-.01l-.01-.01V1L3.27.99V.98zm.16-.14v.04h-.05v.01h-.02V.9h-.01l-.01.01-.01.01v.01h-.01v.02h-.01v.03h-.04V.96l.01-.01V.93l.01-.01V.91L3.3.9l.01-.01.01-.01.01-.01h.01V.86h.02V.85h.02l.01-.01h.04zM3.58 1.99h-.03v-.03h-.01v-.01l-.01-.01v-.01h-.01v-.01h-.01v-.01H3.5l-.01-.01h-.01l-.01-.01h-.04v-.04h.03l.01.01h.02l.01.01h.02v.01h.01v.01h.01v.01h.01v.01h.01v.01h.01v.01l.01.01v.05zm-.15.13v-.03h.01v-.01h.04l.01-.01h.01l.01-.01.01-.01.01-.01v-.01h.01v-.01l.01-.01v-.02h.03v.04l-.01.01v.01l-.01.01-.01.01-.01.01-.01.01-.01.01h-.01l-.01.01h-.02l-.01.01h-.04zm-.16-.13h.04v.02l.01.01v.01l.01.01.01.01v.01h.01l.01.01h.01l.01.01h.04v.01h.01v.03h-.05v-.01h-.02l-.01-.01h-.01l-.01-.01-.01-.01-.01-.01-.01-.01-.01-.01v-.01l-.01-.01v-.02L3.27 2v-.01zm.16-.14v.04h-.04l-.01.01h-.01l-.01.01h-.01v.01h-.01v.01h-.01v.01h-.01v.02h-.01v.03h-.04v-.02h.01v-.03l.01-.01v-.01h.01v-.01h.01V1.9h.01v-.01h.01v-.01h.01v-.01h.02l.01-.01h.02l.01-.01h.03zM3.58 2.98h-.03v-.02l-.01-.01v-.01h-.01v-.02h-.01l-.01-.01-.01-.01h-.01l-.01-.01h-.03v-.01h-.02v-.03h.04l.01.01h.02l.01.01h.01l.01.01.01.01.01.01.01.01.01.01v.01h.01v.05zm-.15.14v-.04h.04v-.01h.02l.01-.01h.01v-.01h.01v-.01h.01v-.01l.01-.01v-.01h.01v-.03h.03v.05l-.01.01v.01h-.01v.01h-.01v.01h-.01v.01h-.01v.01h-.01l-.01.01H3.5l-.01.01h-.03l-.01.01h-.02zm-.16-.14h.04v.03h.01v.02h.01v.01h.01v.01h.01v.01h.01l.01.01h.02v.01h.04v.04h-.02l-.01-.01h-.03l-.01-.01h-.01l-.01-.01h-.01v-.01h-.01v-.01h-.01v-.01H3.3v-.01h-.01v-.01l-.01-.01V3h-.01v-.02zm.16-.13v.03h-.02l-.01.01h-.02l-.01.01h-.01l-.01.01h-.01v.01h-.01v.01l-.01.01v.01l-.01.01v.02h-.04v-.01l.01-.01v-.03h.01v-.01l.01-.01.01-.01.01-.01.01-.01.01-.01h.01l.01-.01h.02v-.01h.05zM3.59 4.07h-.04v-.03h-.01v-.02h-.01v-.01h-.01V4h-.01l-.01-.01h-.01l-.01-.01h-.05v-.04h.04l.01.01h.02l.01.01h.01l.01.01h.01v.01h.01v.01h.01V4h.01v.01l.01.01v.02l.01.01v.02zm-.16.14v-.04h.05v-.01h.02l.01-.01h.01v-.01h.01v-.01l.01-.01v-.01h.01v-.04h.04v.03l-.01.01v.02h-.01v.02h-.01v.01h-.01v.01h-.01v.01h-.01l-.01.01h-.01l-.01.01h-.02l-.01.01h-.04zm-.15-.14h.04v.04l.01.01v.01h.01v.01h.01v.01h.01l.01.01h.02v.01h.04v.04H3.4l-.01-.01h-.02l-.01-.01h-.01l-.01-.01h-.01v-.01h-.01v-.01h-.01v-.01H3.3v-.01l-.01-.01v-.01l-.01-.01v-.04zm.15-.13v.04h-.04l-.01.01h-.01L3.36 4h-.01v.01h-.01v.01h-.01v.01l-.01.01v.03h-.04v-.03l.01-.01v-.02h.01V4h.01v-.01h.01v-.01h.01v-.01h.01l.01-.01h.01l.01-.01h.02l.01-.01h.03z"/><path fill="#C4D985" d="M4.43 2.57c.13 0 .24.11.24.24 0 .14-.11.24-.24.24s-.24-.1-.24-.24c0-.13.11-.24.24-.24z"/><path fill="#2B2A29" fill-rule="nonzero" d="M4.69 2.81h-.04v-.04l-.01-.01v-.02l-.01-.01v-.01l-.01-.01V2.7l-.01-.01v-.01l-.01-.01-.01-.01-.01-.01-.01-.01h-.01l-.01-.01-.01-.01-.01-.01h-.01l-.01-.01h-.04l-.01-.01h-.03v-.04h.01l.02.01h.03l.02.01h.01l.01.01h.01l.01.01h.01l.01.01.01.01h.01l.01.01.01.01.01.01.01.01.01.01v.01l.01.01.01.01v.01l.01.01v.01l.01.02v.02l.01.01v.04zm-.26.26v-.04h.06l.01-.01h.02l.01-.01h.01V3h.01l.01-.01.01-.01h.01l.01-.01v-.01l.01-.01h.01v-.01l.01-.01v-.01l.01-.01V2.9l.01-.01v-.02l.01-.01v-.05h.04v.04l-.01.01v.03l-.01.01v.01l-.01.01v.02l-.01.01-.01.01v.01l-.01.01-.01.01-.01.01H4.6l-.01.01-.01.01-.01.01h-.01l-.01.01-.01.01h-.01l-.01.01h-.03l-.01.01h-.05zm-.26-.26h.04v.05l.01.01v.02l.01.01v.02l.01.01.01.01v.01h.01l.01.01v.01l.01.01h.01l.01.01.01.01.01.01h.01l.01.01h.02l.01.01H4.43v.04h-.05l-.01-.01h-.03l-.01-.01h-.01l-.01-.01-.01-.01h-.01l-.01-.01-.01-.01L4.26 3h-.01l-.01-.01-.01-.01-.01-.01v-.01l-.01-.01-.01-.01v-.02l-.01-.01V2.9l-.01-.01v-.03l-.01-.01v-.04zm.26-.26v.04H4.4l-.01.01h-.04l-.01.01h-.01l-.01.01h-.01v.01l-.01.01h-.01l-.01.01-.01.01-.01.01-.01.01v.01l-.01.01-.01.01v.02l-.01.01v.02l-.01.01v.04h-.04v-.04l.01-.01v-.02l.01-.02v-.01l.01-.01v-.01l.01-.01.01-.01v-.01l.01-.01.01-.01.01-.01.01-.01.01-.01h.01l.01-.01.01-.01h.01l.01-.01h.01l.01-.01h.01l.02-.01h.03l.02-.01h.01z"/><path fill="#C4D985" d="M1.55 2.94c.13 0 .24.1.24.24 0 .13-.11.24-.24.24-.03 0-.06-.01-.08-.02v-.45c.02-.01.05-.01.08-.01z"/><path fill="#2B2A29" fill-rule="nonzero" d="M1.81 3.18h-.04v-.04l-.01-.01V3.1l-.01-.01v-.01l-.01-.01v-.01l-.01-.01-.01-.01-.01-.01-.01-.01v-.01h-.01L1.68 3l-.01-.01h-.01l-.01-.01h-.01l-.01-.01h-.01l-.01-.01h-.04l-.01-.01h-.01v-.03h.05l.01.01h.03l.01.01h.01l.01.01.01.01h.01l.01.01.01.01.01.01h.01l.01.01.01.01v.01l.01.01.01.01v.01l.01.01v.02l.01.01v.01l.01.01v.05l.01.02zm-.26.25V3.4h.03l.01-.01h.02l.01-.01h.02l.01-.01h.01l.01-.01.01-.01h.01l.01-.01v-.01h.01l.01-.01v-.01l.01-.01.01-.01v-.01l.01-.01v-.01l.01-.01v-.03l.01-.01v-.03h.04l-.01.01v.05l-.01.01v.02l-.01.01v.01l-.01.01v.01l-.01.01-.01.01v.01l-.01.01-.01.01-.01.01-.01.01H1.7l-.01.01-.01.01h-.01l-.01.01h-.01l-.01.01h-.02l-.01.01H1.55zm-.1-.03h.04l-.02-.01h.04v.01h.04v.03h-.07v-.01h-.02l-.01-.02zm.01.02h-.01V3.4l.01.02zm.03-.47v.45h-.04v-.45l.01-.02.03.02zm-.04 0v-.01l.01-.01-.01.02zm.1-.03v.03h-.01l-.01.01h-.05v.01h-.01l-.01-.04h.03v-.01H1.55z"/><path fill="#C4D985" d="M2.88 1.25c.13 0 .24.11.24.24s-.11.24-.24.24-.24-.11-.24-.24.11-.24.24-.24z"/><path fill="#2B2A29" fill-rule="nonzero" d="M3.14 1.49H3.1v-.05l-.01-.01v-.02l-.01-.01v-.01l-.01-.01v-.01l-.01-.01-.01-.01-.01-.01v-.01l-.01-.01h-.01l-.01-.01L3 1.3h-.01l-.01-.01-.01-.01h-.03l-.01-.01h-.05v-.04h.04l.01.01h.03l.01.01h.01l.01.01H3l.01.01h.01l.01.01.01.01.01.01.01.01h.01l.01.01.01.01v.01l.01.01.01.01v.02l.01.01v.01l.01.01v.04l.01.01v.03zm-.26.26v-.04h.04l.01-.01h.03l.01-.01h.01v-.01h.01L3 1.67h.01l.01-.01.01-.01.01-.01.01-.01.01-.01v-.01l.01-.01v-.01l.01-.01v-.01l.01-.01v-.02l.01-.01v-.04h.04v.02l-.01.02v.03l-.01.02v.01l-.01.01v.01l-.01.01-.01.01v.01l-.01.01-.01.01-.01.01-.01.01-.01.01h-.01l-.01.01-.01.01-.01.01h-.01l-.01.01h-.02l-.02.01h-.03l-.02.01h-.01zm-.26-.26h.04v.05l.01.01v.02l.01.01v.01l.01.01.01.01v.01l.01.01v.01h.01l.01.01.01.01.01.01.01.01h.01l.01.01h.01l.01.01h.02l.01.01h.05v.04h-.01l-.02-.01h-.04l-.01-.01h-.02l-.01-.01h-.01l-.01-.01-.02-.01-.01-.01h-.01v-.01l-.01-.01-.01-.01-.01-.01-.01-.01-.01-.01v-.01l-.01-.01V1.6l-.01-.01v-.01l-.01-.02v-.02l-.01-.01v-.04zm.26-.26v.04H2.82l-.01.01h-.02l-.01.01h-.01l-.01.01h-.01v.01l-.01.01h-.01l-.01.01-.01.01v.01l-.01.01-.01.01-.01.01v.01l-.01.01v.02l-.01.01V1.49h-.04v-.04l.01-.01v-.03l.01-.01v-.01l.01-.01v-.02l.01-.01v-.01l.01-.01.01-.01.01-.01h.01l.01-.01v-.01l.01-.01.01-.01h.02l.01-.01h.01l.01-.01h.01l.01-.01h.03l.01-.01h.04z"/><path fill="#C4D985" d="M2.91 3.11c.13 0 .24.1.24.24 0 .13-.11.24-.24.24s-.24-.11-.24-.24c0-.14.11-.24.24-.24z"/><path fill="#2B2A29" fill-rule="nonzero" d="M3.17 3.35h-.04V3.3l-.01-.01v-.02l-.01-.01v-.01l-.01-.01v-.01l-.01-.01v-.01h-.01l-.01-.01v-.01l-.01-.01h-.01l-.01-.01-.01-.01h-.01l-.01-.01H3v-.01h-.03l-.01-.01h-.05v-.04h.05l.01.01H3l.01.01h.01l.01.01.01.01h.01l.01.01.01.01.01.01h.01l.01.01.01.01.01.01v.01l.01.01.01.01v.02l.01.01v.01l.01.01v.04l.01.01v.03zm-.26.26v-.04h.03l.01-.01h.03l.01-.01H3l.01-.01h.01l.01-.01.01-.01h.01l.01-.01.01-.01.01-.01.01-.01v-.01l.01-.01v-.01l.01-.01v-.01l.01-.01V3.4l.01-.01v-.04h.04v.02l-.01.02v.03l-.01.02v.01l-.01.01v.01l-.01.01-.01.01v.01l-.01.01-.01.01-.01.01-.01.01-.01.01h-.01l-.01.01-.01.01h-.01l-.01.01h-.01L3 3.59h-.01l-.02.01h-.05l-.01.01zm-.26-.26h.04v.05l.01.01v.02l.01.01v.01l.01.01v.01l.01.01.01.01v.01h.01l.01.01.01.01h.01v.01l.01.01h.01l.01.01h.01l.01.01h.03l.01.01h.04v.04L2.9 3.6h-.06l-.01-.01h-.01l-.01-.01H2.8l-.01-.01h-.02l-.01-.01-.01-.01h-.01v-.01l-.01-.01-.01-.01-.01-.01-.01-.01-.01-.01v-.01l-.01-.01v-.01l-.01-.01v-.01l-.01-.02V3.4l-.01-.01v-.04zm.26-.26v.04H2.85l-.01.01h-.02l-.01.01H2.8l-.01.01h-.01v.01l-.01.01h-.01l-.01.01-.01.01v.01h-.01l-.01.01v.01l-.01.01v.01l-.01.01v.02l-.01.01V3.35h-.04v-.04l.01-.01v-.03l.01-.01v-.01l.01-.01v-.02l.01-.01V3.2l.01-.01.01-.01.01-.01.01-.01h.01v-.01l.01-.01.01-.01h.01l.02-.01.01-.01h.01l.01-.01h.02l.02-.01h.05z"/><path fill="#C4D985" d="M2.78 4.25c.13 0 .24.11.24.24 0 .14-.11.24-.24.24s-.24-.1-.24-.24c0-.13.11-.24.24-.24z"/><path fill="#2B2A29" fill-rule="nonzero" d="M3.04 4.49H3v-.04l-.01-.01v-.02l-.01-.01V4.4l-.01-.01v-.01l-.01-.01v-.01l-.01-.01-.01-.01h-.01v-.01l-.01-.01h-.01l-.01-.01-.01-.01h-.01l-.01-.01h-.02l-.01-.01h-.02l-.01-.01h-.03v-.03H2.84l.01.01h.02l.01.01h.01l.01.01h.01l.01.01.01.01h.01l.01.01.01.01.01.01.01.01v.01l.01.01.01.01v.01l.01.01.01.01v.03l.01.01v.04l.01.01v.01zm-.26.26v-.03h.01l.01-.01h.04l.01-.01h.01l.01-.01h.01l.01-.01h.01l.01-.01.01-.01h.01v-.01l.01-.01.01-.01h.01v-.01l.01-.01V4.6l.01-.01v-.01l.01-.01v-.02L3 4.54v-.05h.04v.02l-.01.01v.04l-.01.01v.02l-.01.02-.01.01v.01l-.01.01-.01.01v.01l-.01.01-.01.01h-.01l-.01.01-.01.01-.01.01h-.01l-.01.01-.01.01h-.01l-.01.01h-.03l-.01.01h-.05zm-.26-.26h.04V4.55l.01.01v.02l.01.01v.01l.01.01v.01l.01.01h.01v.01l.01.01.01.01h.01v.01l.01.01h.01l.01.01h.01l.01.01h.01l.01.01h.05l.01.01h.01v.03h-.05l-.02-.01h-.02l-.01-.01h-.01l-.02-.01-.01-.01h-.01l-.01-.01-.01-.01-.01-.01-.01-.01-.01-.01-.01-.01-.01-.01v-.01l-.01-.01-.01-.01v-.03l-.01-.01v-.01l-.01-.01v-.06zm.26-.25v.03h-.04l-.01.01h-.02l-.01.01h-.02l-.01.01h-.01l-.01.01-.01.01-.01.01-.01.01h-.01v.01l-.01.01-.01.01v.01l-.01.01v.01l-.01.01v.02l-.01.01v.05h-.04v-.05l.01-.01v-.01l.01-.02v-.02l.01-.01.01-.01v-.01l.01-.01.01-.01.01-.01.01-.01V4.3l.01-.01h.01l.01-.01.01-.01h.01l.02-.01h.01l.01-.01h.01l.01-.01h.07z"/><path fill="#C4D985" d="M4.2 3.81c.13 0 .24.11.24.24 0 .14-.11.24-.24.24-.14 0-.24-.1-.24-.24 0-.13.1-.24.24-.24z"/><path fill="#2B2A29" fill-rule="nonzero" d="M4.45 4.05h-.03v-.03l-.01-.01v-.02l-.01-.01v-.02l-.01-.01v-.01l-.01-.01-.01-.01v-.01h-.01l-.01-.01v-.01l-.01-.01h-.01l-.01-.01-.01-.01H4.3l-.01-.01h-.02l-.01-.01h-.03l-.01-.01H4.2V3.8H4.26l.01.01h.01l.02.01h.01l.01.01h.01l.01.01.01.01.01.01h.01l.01.01.01.01.01.01v.01l.01.01.01.01v.01l.01.01v.01l.01.02v.01l.01.01V4.05zm-.25.26v-.03h.02l.01-.01h.03l.01-.01h.01l.01-.01h.01l.01-.01h.01l.01-.01h.01l.01-.01v-.01l.01-.01h.01v-.01l.01-.01.01-.01v-.01l.01-.01v-.02l.01-.01V4.1l.01-.01v-.04h.03V4.12l-.01.01v.01l-.01.01v.02l-.01.01v.01l-.01.01-.01.01v.01l-.01.01-.01.01-.01.01h-.01l-.01.01-.01.01-.01.01h-.01l-.01.01H4.3l-.02.01h-.02l-.01.01H4.2zm-.26-.26h.03v.02l.01.01v.04l.01.01v.01l.01.01v.01l.01.01v.01l.01.01v.01h.01l.01.01.01.01v.01h.01l.01.01h.01l.01.01h.01l.01.01h.01l.01.01h.03l.01.01h.03v.03h-.06l-.01-.01h-.02l-.01-.01h-.02l-.01-.01h-.01l-.01-.01-.01-.01-.01-.01h-.01l-.01-.01L4 4.23v-.01l-.01-.01-.01-.01v-.01l-.01-.01-.01-.01v-.02l-.01-.01v-.02l-.01-.01v-.06zm.26-.25v.03h-.03l-.01.01h-.03l-.01.01H4.1l-.01.01h-.01l-.01.01-.01.01h-.01v.01l-.01.01-.01.01h-.01v.01l-.01.01v.01L4 3.95v.01l-.01.01v.01l-.01.01v.04l-.01.01v.01h-.03V4l.01-.01v-.02l.01-.02v-.01l.01-.01.01-.01v-.01l.01-.01.01-.01v-.01l.01-.01.01-.01h.01l.01-.01.01-.01.01-.01h.01l.01-.01h.02l.01-.01h.01l.01-.01h.07z"/><path fill="#C4D985" d="M5.21 3.26c.05 0 .09.02.13.04v.4c-.04.03-.08.04-.13.04-.13 0-.24-.1-.24-.24 0-.13.11-.24.24-.24z"/><path fill="#2B2A29" fill-rule="nonzero" d="M5.36 3.3h-.04l.01.02-.01-.01h-.01V3.3h-.02l-.01-.01h-.03v-.01h-.04v-.04h.01v.01H5.28v.01h.03v.01h.02v.01h.02v.01l.01.01zm-.01-.01h.01v.01l-.01-.01zm-.03.41v-.4h.04v.4l-.01.02-.03-.02zm.04 0v.01l-.01.01.01-.02zm-.15.06v-.04H5.27l.01-.01h.02V3.7h.02v-.01h.01l.02.03h-.01v.01h-.01l-.01.01H5.3v.01h-.03l-.01.01h-.05zm-.26-.26h.04V3.56l.01.01v.02l.01.01v.01l.01.01.01.01v.01h.01v.01l.01.01.01.01h.01l.01.01.01.01.01.01h.01l.01.01h.02l.01.01H5.21v.04h-.05l-.02-.01h-.02l-.01-.01H5.1l-.01-.01-.01-.01h-.02l-.01-.01-.01-.01v-.01h-.01l-.01-.01-.01-.01L5 3.66l-.01-.01v-.01l-.01-.01v-.02l-.01-.01v-.01l-.01-.01v-.03l-.01-.01V3.5zm.26-.26v.04h-.03l-.02.01h-.03l-.01.01h-.01l-.01.01h-.01v.01l-.01.01h-.01l-.01.01-.01.01h-.01v.01l-.01.01v.01l-.01.01-.01.01v.01L5 3.42v.02l-.01.01v.05h-.04v-.04l.01-.01v-.02l.01-.02V3.4l.01-.01v-.01l.01-.01v-.01L5 3.35l.01-.01.01-.01.01-.01.01-.01V3.3h.01l.01-.01.02-.01h.01l.01-.01h.01l.01-.01h.01l.01-.01h.06l.01-.01z"/><path fill="#C4D985" d="M4.81 1.59c.14 0 .25.1.25.24 0 .13-.11.24-.25.24-.13 0-.23-.11-.23-.24 0-.14.1-.24.23-.24z"/><path fill="#2B2A29" fill-rule="nonzero" d="M5.07 1.83h-.03V1.8l-.01-.01v-.03l-.01-.01v-.01l-.01-.01v-.01L5 1.71V1.7l-.01-.01v-.01h-.01l-.01-.01-.01-.01v-.01h-.01l-.01-.01h-.01l-.01-.01h-.01l-.01-.01h-.01l-.01-.01h-.03l-.01-.01h-.03v-.03h.06l.01.01h.02l.02.01h.01l.01.01h.01l.01.01.01.01.01.01h.01l.01.01.01.01v.01l.01.01.01.01.01.01v.01l.01.01v.02l.01.01v.01l.01.01v.07zm-.26.25v-.03h.03l.01-.01h.03l.01-.01h.02l.01-.01h.01l.01-.01.01-.01h.01v-.01l.01-.01.01-.01h.01v-.01L5 1.95v-.01l.01-.01v-.01l.01-.01V1.9l.01-.01v-.03l.01-.01v-.02h.03V1.89l-.01.01v.01l-.01.02v.01l-.01.01v.01l-.01.01-.01.01-.01.01V2L5 2.01l-.01.01-.01.01h-.01l-.01.01-.01.01h-.01l-.01.01h-.01l-.02.01h-.01l-.01.01h-.07zm-.25-.25h.03v.02l.01.01v.03l.01.01v.01l.01.01v.01l.01.01v.01l.01.01v.01h.01l.01.01.01.01V2h.01l.01.01.01.01h.01l.01.01h.02l.01.01h.03l.01.01h.02v.03H4.75l-.01-.01h-.01l-.02-.01H4.7l-.01-.01h-.01l-.01-.01-.01-.01h-.01l-.01-.01-.01-.01L4.62 2v-.01l-.01-.01-.01-.01-.01-.01v-.01l-.01-.01v-.01l-.01-.02V1.9l-.01-.01V1.83zm.25-.26v.03h-.02l-.01.01h-.03l-.01.01h-.01l-.01.01h-.01l-.01.01h-.01l-.01.01h-.01v.01l-.01.01-.01.01h-.01v.01l-.01.01v.01l-.01.01v.01l-.01.01v.01l-.01.01v.03l-.01.01v.03h-.03V1.76l.01-.01v-.01l.01-.01v-.02l.01-.01v-.01l.01-.01.01-.01.01-.01v-.01l.01-.01.01-.01h.01l.01-.01.01-.01.01-.01h.01l.01-.01h.01l.02-.01h.02l.01-.01h.05z"/><path fill="#C4D985" d="M4.07.99c.13 0 .24.11.24.24s-.11.24-.24.24-.24-.11-.24-.24.11-.24.24-.24z"/><path fill="#2B2A29" fill-rule="nonzero" d="M4.33 1.23h-.04V1.17l-.01-.01v-.02l-.01-.01v-.01l-.01-.01-.01-.01-.01-.01v-.01l-.01-.01-.01-.01h-.01l-.01-.01-.01-.01-.01-.01h-.01l-.01-.01h-.02l-.01-.01H4.07V.97h.04l.01.01h.03l.01.01h.01l.01.01h.02l.01.01h.01l.01.01.01.01.01.01v.01l.01.01h.01l.01.01.01.01v.02l.01.01v.01l.01.01v.01l.01.01v.01l.01.02v.05zm-.26.26v-.04h.05l.01-.01h.02l.01-.01h.01l.01-.01h.01l.01-.01.01-.01.01-.01h.01l.01-.01v-.01l.01-.01.01-.01v-.01l.01-.01.01-.01V1.3l.01-.02v-.05h.04v.05l-.01.01v.02l-.01.01v.01l-.01.01v.01l-.01.01v.01l-.01.01-.01.01-.01.01-.01.01v.01l-.01.01-.01.01h-.01l-.01.01-.01.01h-.02l-.01.01h-.01l-.01.01h-.04l-.01.01h-.03zm-.26-.26h.04v.04l.01.01v.03l.01.01v.01h.01v.01l.01.01v.01l.01.01.01.01.01.01.01.01.01.01h.01l.01.01h.01l.01.01h.01l.01.01h.02l.01.01h.04v.04h-.02l-.02-.01H4l-.02-.01h-.01l-.01-.01h-.01l-.01-.01-.01-.01h-.01l-.01-.01-.01-.01-.01-.01-.01-.01-.01-.01v-.01l-.01-.01-.01-.01v-.01l-.01-.01-.01-.01v-.02l-.01-.02v-.03l-.01-.02v-.01zm.26-.26v.04h-.05l-.01.01h-.02l-.01.01h-.01l-.01.01-.01.01h-.01l-.01.01h-.01v.01l-.01.01-.01.01-.01.01v.01h-.01v.01l-.01.01v.01l-.01.01v.02l-.01.01v.05h-.04v-.01l.01-.02v-.04l.01-.01v-.02l.01-.01.01-.01V1.1l.01-.02.01-.01v-.01h.01l.01-.01.01-.01.01-.01.01-.01.01-.01h.01L3.95 1h.01l.01-.01h.01L4 .98h.02l.01-.01h.04z"/><path fill="#C4D985" d="M4.76.29c.13 0 .24.11.24.24s-.11.24-.24.24-.24-.11-.24-.24.11-.24.24-.24z"/><path fill="#2B2A29" fill-rule="nonzero" d="M5.02.53h-.04V.49L4.97.48V.46L4.96.44 4.95.43V.42L4.94.41V.4L4.93.39 4.92.38V.37h-.01L4.9.36 4.89.35h-.01L4.87.34h-.01L4.85.33 4.84.32h-.03L4.8.31h-.04V.27h.03l.01.01h.04l.01.01h.01l.01.01h.01l.01.01.01.01h.01l.01.01.01.01.01.01.01.01.01.01.01.01v.01l.01.01.01.01v.01L5 .43v.01l.01.01v.04l.01.01v.03zm-.26.26V.75h.05l.01-.01h.03V.73h.01l.01-.01h.01l.01-.01L4.9.7h.01l.01-.01V.68l.01-.01.01-.01.01-.01V.64l.01-.01V.62l.01-.01V.59l.01-.01V.53h.04v.03l-.01.01v.04L5 .62v.01l-.01.01v.01l-.01.01-.01.02v.01L4.96.7h-.01l-.01.01-.01.01-.01.01-.01.01-.01.01h-.01l-.01.01h-.01l-.01.01h-.01l-.01.01h-.03L4.8.79h-.04zM4.5.53h.04V.59l.01.01v.02l.01.01v.01l.01.01v.01h.01l.01.01v.01l.01.01.01.01h.01l.01.01v.01h.01l.01.01h.01l.01.01h.02l.01.01H4.76v.04h-.04L4.71.78h-.03L4.67.77h-.01L4.65.76h-.01L4.63.75h-.02L4.6.74 4.59.73V.72L4.58.71 4.57.7h-.01L4.55.69 4.54.68V.66L4.53.65V.64L4.52.63V.62L4.51.61V.58L4.5.57V.53zm.26-.26v.04h-.05L4.7.32h-.02l-.01.01h-.01l-.01.01h-.01l-.01.01-.01.01-.01.01H4.6l-.01.01v.01L4.58.4l-.01.01v.01l-.01.01v.01h-.01v.03l-.01.01v.05H4.5V.49l.01-.01V.45l.01-.01V.43l.01-.01V.41L4.54.4V.39l.01-.01.01-.01.01-.01.01-.01.01-.01V.33L4.6.32h.01l.02-.01.01-.01h.01l.01-.01h.01l.01-.01h.04l.01-.01h.03z"/><path fill="#C4D985" d="M5.49 1.08c.13 0 .24.11.24.24s-.11.24-.24.24-.24-.11-.24-.24.11-.24.24-.24z"/><path fill="#2B2A29" fill-rule="nonzero" d="M5.75 1.32h-.04V1.26l-.01-.01v-.01l-.01-.01v-.02l-.01-.01h-.01v-.01l-.01-.01-.01-.01v-.01l-.01-.01h-.01l-.01-.01h-.01v-.01l-.01-.01h-.01l-.01-.01h-.02l-.01-.01H5.49v-.04h.04l.01.01h.03l.01.01h.01l.01.01h.01l.01.01.01.01h.01l.01.01.01.01.01.01.01.01h.01l.01.01v.01l.01.02.01.01v.01l.01.01v.01l.01.01v.03l.01.01v.04zm-.26.26v-.04h.05l.01-.01h.02l.01-.01h.01l.01-.01h.01V1.5h.01l.01-.01.01-.01h.01v-.01l.01-.01.01-.01v-.01l.01-.01.01-.01v-.01l.01-.01v-.01l.01-.02v-.05h.04v.04l-.01.01v.03l-.01.01v.01l-.01.01v.01l-.01.01-.01.01v.01l-.01.01-.01.01-.01.01-.01.01-.01.01-.01.01h-.01l-.01.01-.01.01H5.6l-.01.01h-.01l-.01.01h-.04l-.01.01h-.03zm-.26-.26h.04v.04l.01.01v.03l.01.01v.01h.01v.01l.01.01v.01l.01.01.01.01v.01h.01l.01.01.01.01h.01l.01.01.01.01h.01l.01.01h.03l.01.01h.04v.04h-.03l-.01-.01h-.04l-.01-.01h-.01l-.01-.01h-.01l-.01-.01-.01-.01h-.01l-.01-.01-.01-.01-.01-.01-.01-.01-.01-.01-.01-.01v-.01l-.01-.01-.01-.01v-.01l-.01-.01v-.01l-.01-.01v-.04l-.01-.01v-.03zm.26-.26v.04h-.05l-.02.01H5.4l-.01.01h-.01v.01l-.01.01h-.01l-.01.01h-.01l-.01.01v.01l-.01.01-.01.01v.01H5.3v.01l-.01.01v.01l-.01.01v.02l-.01.01v.05h-.04v-.03l.01-.01v-.04l.01-.01v-.01l.01-.01V1.2l.01-.01.01-.02v-.01l.01-.01h.01l.01-.01.01-.01.01-.01.01-.01h.01l.01-.01.01-.01h.01l.01-.01h.01l.01-.01h.03l.01-.01h.04z"/><path fill="#C4D985" d="M6.61 1.2c-.02.11-.12.19-.23.19-.13 0-.24-.11-.24-.24 0-.08.04-.15.1-.19l.37.24z"/><path fill="#2B2A29" fill-rule="nonzero" d="M6.38 1.41v-.04h.05l.01-.01h.02l.01-.01h.01l.01-.01h.01v-.01h.01l.01-.01h.01v-.01l.01-.01h.01v-.01l.01-.01.01-.01v-.01l.01-.01v-.01l.01-.01v-.02l.01-.01.03.01v.02l-.01.01v.01l-.01.01v.01l-.01.01v.01l-.01.01v.01h-.01l-.01.01v.01l-.01.01h-.01l-.01.01-.01.01h-.01v.01l-.01.01H6.5l-.01.01h-.02l-.01.01h-.04l-.01.01h-.03zm-.26-.26h.04V1.21l.01.01v.01l.01.01v.02l.01.01h.01v.01l.01.01.01.01v.01h.01l.01.01.01.01h.01v.01l.01.01h.02l.01.01h.01l.01.01H6.38v.04h-.04l-.01-.01H6.3l-.01-.01h-.01l-.01-.01h-.01l-.01-.01-.01-.01h-.01l-.01-.01-.01-.01-.01-.01-.01-.01-.01-.01-.01-.01v-.01l-.01-.01-.01-.01v-.01l-.01-.01v-.01l-.01-.01V1.2l-.01-.01v-.04zm.13-.21l-.02.03h.02l-.01.01h-.01v.01h-.01V1h-.01v.01l-.01.01v.01h-.01v.01l-.01.01v.01l-.01.01v.02l-.01.01v.05h-.04v-.04l.01-.01v-.03h.01v-.02l.01-.01v-.01l.01-.01v-.01L6.17 1l.01-.01V.98h.01V.97h.01V.96h.01V.95h.01l.01-.01h.02zm-.02 0h.02-.02zm.37.28L6.23.97l.02-.03.37.25.01.02-.03.01zm.02-.03l.01.01v.01l-.01-.02z"/><path fill="#C4D985" d="M6.01 1.79c.12 0 .23.1.24.22l-.16.2-.27-.03c-.03-.04-.05-.09-.05-.15 0-.13.11-.24.24-.24z"/><path fill="#2B2A29" fill-rule="nonzero" d="M6.26 2.02L6.23 2v.01-.02l-.01-.01v-.03l-.01-.01v-.01l-.01-.01v-.01l-.01-.01-.01-.01-.01-.01v-.01h-.01l-.01-.01-.01-.01-.01-.01h-.01l-.01-.01H6.1l-.01-.01h-.02l-.01-.01h-.05v-.04h.05l.01.01h.02l.01.01h.02l.01.01h.01l.01.01.01.01h.01l.01.01v.01l.01.01.01.01h.01l.01.01v.01l.01.01v.01l.01.01.01.02v.02l.01.01V2l.01.01-.01.01zm.01-.01l-.01.01.01-.01zm-.19.19l.15-.2.03.02-.16.2-.01.01-.01-.03zm.02.02v.01h-.01l.01-.01zm-.28-.06l.27.03v.04l-.27-.03-.01-.01.01-.03zm0 .04h-.01v-.01l.01.01zm-.07-.17h.04V2.09h.01v.03h.01v.02h.01v.01l.01.01.01.01-.03.02H5.8v-.01l-.01-.01v-.01h-.01v-.02h-.01v-.02l-.01-.01v-.03h-.01v-.05zm.26-.26v.04H5.95l-.01.01h-.02l-.01.01H5.9l-.01.01h-.01v.01l-.01.01h-.01l-.01.01-.01.01v.01l-.01.01h-.01v.01l-.01.01v.01l-.01.01v.02l-.01.01V2.03h-.04v-.04l.01-.01v-.03l.01-.01v-.01l.01-.01v-.01l.01-.02v-.01l.01-.01.01-.01.01-.01h.01v-.01l.01-.01.01-.01.01-.01h.01l.02-.01h.01l.01-.01h.01l.01-.01h.03l.01-.01h.04z"/><path fill="#C4D985" d="M.85 1.6c.14 0 .24.1.24.24 0 .13-.1.24-.24.24-.13 0-.24-.11-.24-.24 0-.14.11-.24.24-.24z"/><path fill="#2B2A29" fill-rule="nonzero" d="M1.11 1.84h-.04V1.78l-.01-.01v-.02l-.01-.01v-.01l-.01-.01v-.01l-.01-.01h-.01v-.01l-.01-.01L1 1.67H.99v-.01l-.01-.01H.97l-.01-.01H.95l-.01-.01H.92l-.01-.01H.85v-.04H.9l.02.01h.02l.01.01h.01l.02.01.01.01H1l.01.01.01.01.01.01h.01v.01l.01.01.01.01.01.01v.01l.01.01.01.02v.01l.01.01v.02l.01.01v.06zm-.26.26v-.04h.04l.01-.01h.03l.01-.01h.01l.01-.01h.01l.01-.01.01-.01L1 2l.01-.01h.01v-.01l.01-.01.01-.01v-.01l.01-.01v-.01l.01-.01V1.9l.01-.01v-.05h.04v.05l-.01.01v.03l-.01.01v.01l-.01.01-.01.01v.01l-.01.01-.01.01-.01.01v.01l-.01.01-.01.01h-.01L1 2.05l-.01.01H.98l-.02.01H.95l-.01.01H.93l-.01.01H.87l-.02.01zm-.26-.26h.04v.03l.01.01v.03l.01.01v.01l.01.01v.01l.01.01v.01l.01.01.01.01H.7V2l.01.01h.01l.01.01.01.01h.01l.01.01h.01l.01.01h.03l.01.01h.03v.04l-.01-.01H.79l-.01-.01H.76l-.01-.01H.74l-.01-.01H.72l-.01-.01-.01-.01H.69l-.01-.01-.01-.01-.01-.01L.65 2v-.01l-.01-.01-.01-.01v-.01l-.01-.01-.01-.01v-.03L.6 1.9v-.04l-.01-.01v-.01zm.26-.26v.04H.8l-.01.01H.77l-.01.01H.75l-.01.01H.73l-.01.01-.01.01H.7v.01l-.01.01-.01.01-.01.01-.01.01v.01l-.01.01v.01l-.01.01v.03l-.01.01v.04H.59v-.02l.01-.01v-.04l.01-.01v-.02l.01-.01.01-.02V1.7l.01-.01.01-.01v-.01l.01-.01.01-.01h.01l.01-.01.01-.01.01-.01h.01l.01-.01.01-.01h.01l.01-.01h.03l.01-.01h.05z"/><path fill="#C4D985" d="M.99.68c.09.03.16.12.16.22 0 .14-.11.24-.24.24S.67 1.04.67.9V.89L.99.68z"/><path fill="#2B2A29" fill-rule="nonzero" d="M1.17.9h-.04V.86L1.12.85V.83L1.11.82V.8H1.1V.79L1.09.78V.77L1.08.76 1.07.75 1.06.74 1.05.73h-.01V.72h-.01L1.02.71 1.01.7H.99V.69L1 .66h.01l.01.01h.01v.01h.01l.01.01h.01l.01.01.01.01.01.01h.01v.01l.01.01v.01h.01l.01.01v.01l.01.01V.8h.01v.02l.01.01v.03l.01.01V.9zm-.26.26v-.04h.05l.02-.01H1l.01-.01.01-.01h.01l.01-.01.01-.01h.01l.01-.01v-.01l.01-.01h.01v-.01l.01-.01v-.01L1.11 1V.99l.01-.01V.96l.01-.01V.9h.04v.03l-.01.01v.04l-.01.01V1l-.01.01v.02l-.01.01-.01.01v.01l-.01.01-.01.01-.01.01h-.01l-.01.01-.01.01-.01.01h-.01l-.01.01-.01.01h-.01L1 1.15H.97l-.01.01H.91zM.65.9h.04V.96L.7.97v.02L.71 1v.01l.01.01.01.01v.01h.01v.01l.01.01.01.01h.01l.01.01.01.01.01.01h.01l.01.01h.02l.01.01H.91v.04H.86l-.02-.01H.82l-.01-.01H.8l-.01-.01-.01-.01H.76l-.01-.01-.01-.01v-.01H.73l-.01-.01-.01-.01-.01-.01-.01-.01v-.01l-.01-.01v-.02L.67 1V.99L.66.98V.95L.65.94V.9zM.66.88l.02.03.01-.02V.9H.65V.89.9.89L.66.88zM.65.89V.88h.01L.65.89zM1 .69L.68.91.66.88.98.66H1v.03zM.98.66H1 .98z"/><path fill="#C4D985" d="M2.34 2.1c.13 0 .24.11.24.24 0 .14-.11.24-.24.24s-.24-.1-.24-.24c0-.13.11-.24.24-.24z"/><path fill="#2B2A29" fill-rule="nonzero" d="M2.6 2.34h-.04V2.3l-.01-.01v-.02l-.01-.01v-.01l-.01-.01v-.01l-.01-.01v-.01l-.01-.01-.01-.01-.01-.01-.01-.01h-.01l-.01-.01-.01-.01h-.01l-.01-.01h-.02l-.01-.01h-.02l-.01-.01h-.03v-.03H2.4l.02.01h.01l.01.01h.01l.01.01h.01l.01.01.01.01h.01l.01.01.01.01.01.01.01.01.01.01v.01l.01.01.01.01v.01l.01.01v.01l.01.02v.03l.01.02v.02zm-.26.26v-.03h.01l.01-.01h.04l.01-.01h.01l.01-.01h.01l.01-.01h.01l.01-.01.01-.01h.01l.01-.01v-.01l.01-.01h.01v-.01l.01-.01v-.01l.01-.01v-.01l.01-.01V2.4l.01-.01v-.05h.04v.03l-.01.01v.04l-.01.01v.01l-.01.02v.01l-.01.01-.01.01v.01l-.01.01-.01.01-.01.01h-.01l-.01.01-.01.01-.01.01h-.01l-.01.01-.01.01h-.01l-.01.01H2.4l-.01.01h-.05zm-.26-.26h.04V2.4l.01.01v.02l.01.01v.01l.01.01v.01l.01.01h.01v.01l.01.01.01.01h.01l.01.01v.01h.01l.01.01h.01l.01.01h.01l.01.01h.05l.01.01h.01v.03h-.05l-.02-.01h-.02l-.01-.01h-.01l-.01-.01-.02-.01h-.01l-.01-.01-.01-.01v-.01h-.01l-.01-.01-.01-.01-.01-.01-.01-.01v-.01l-.01-.01v-.01l-.01-.02v-.01l-.01-.01V2.4l-.01-.02v-.04zm.26-.25v.03H2.3l-.01.01h-.02l-.01.01h-.02l-.01.01h-.01l-.01.01v.01H2.2l-.01.01-.01.01h-.01v.01l-.01.01-.01.01v.01l-.01.01v.01l-.01.01v.02l-.01.01v.05h-.04V2.3l.01-.01v-.02l.01-.02v-.01l.01-.01v-.01l.01-.01V2.2l.01-.01.01-.01.01-.01.01-.01.01-.01v-.01h.01l.01-.01.01-.01h.02l.01-.01h.01l.01-.01h.01l.01-.01H2.34z"/><path fill="#C4D985" d="M2.26.21c.13 0 .24.11.24.24s-.11.24-.24.24-.24-.11-.24-.24.11-.24.24-.24z"/><path fill="#2B2A29" fill-rule="nonzero" d="M2.52.45h-.04V.41L2.47.4V.38L2.46.37V.36L2.45.35V.34L2.44.33V.32L2.43.31 2.42.3 2.41.29 2.4.28 2.39.27h-.01L2.37.26 2.36.25h-.01L2.34.24H2.3L2.29.23h-.03V.19h.01l.02.01h.03l.02.01h.02l.01.01.01.01h.01l.01.01.01.01h.01l.01.01.01.01.01.01.01.01.01.01v.01l.01.01.01.01v.01l.01.01v.01l.01.02v.03l.01.02v.02zm-.26.26V.67h.06l.01-.01h.02l.01-.01h.01V.64h.01l.01-.01.01-.01h.01l.01-.01V.6l.01-.01h.01V.58l.01-.01V.56l.01-.01V.54l.01-.01V.51L2.48.5V.45h.04v.03l-.01.01v.04L2.5.54v.01l-.01.01v.02l-.01.01-.01.01v.01l-.01.01-.01.01h-.01l-.01.01-.01.01-.01.01-.01.01h-.01l-.01.01-.01.01h-.02L2.34.7h-.02l-.01.01h-.05zM2 .45h.04V.5l.01.01v.02l.01.01v.02l.01.01.01.01v.01h.01L2.1.6v.01l.01.01h.01l.01.01.01.01.01.01h.01l.01.01h.02l.01.01H2.26v.04h-.05L2.2.7h-.02L2.17.69h-.02L2.14.68 2.13.67h-.01L2.11.66 2.1.65 2.09.64 2.08.63h-.01L2.06.62 2.05.61V.6L2.04.59 2.03.58V.56L2.02.55V.54L2.01.53V.5L2 .49V.45zm.26-.26v.04h-.03l-.02.01h-.03l-.01.01h-.01l-.01.01h-.01v.01h-.01l-.01.01-.01.01L2.1.3l-.01.01-.01.01v.01l-.01.01-.01.01v.02l-.01.01V.4l-.01.01v.04H2V.41L2.01.4V.38l.01-.02V.35l.01-.01V.33l.01-.01.01-.01V.3l.01-.01.01-.01.01-.01.01-.01.01-.01h.01l.01-.01.01-.01h.01l.01-.01.01-.01h.02L2.2.2h.03l.02-.01h.01z"/><path fill="#C4D985" d="M1.7 1.3c.13 0 .24.11.24.24 0 .14-.11.24-.24.24-.14 0-.24-.1-.24-.24 0-.13.1-.24.24-.24z"/><path fill="#2B2A29" fill-rule="nonzero" d="M1.96 1.54h-.04v-.03l-.01-.01v-.03l-.01-.01v-.01l-.01-.01v-.01l-.01-.01-.01-.01V1.4h-.01l-.01-.01v-.01l-.01-.01h-.01l-.01-.01-.01-.01H1.8l-.01-.01h-.02l-.01-.01h-.03l-.01-.01H1.7v-.03H1.76l.01.01h.02l.01.01h.01l.01.01h.01l.01.01.01.01.01.01h.01l.01.01.01.01.01.01v.01l.01.01.01.01v.01l.01.01v.01l.01.02v.01l.01.01v.05l.01.01zm-.26.26v-.03h.01l.01-.01h.04l.01-.01h.01l.01-.01h.01l.01-.01h.01l.01-.01h.01l.01-.01V1.7l.01-.01h.01v-.01l.01-.01.01-.01v-.01l.01-.01v-.01l.01-.01v-.03l.01-.01v-.04h.04l-.01.02v.05l-.01.01v.01l-.01.01v.02l-.01.01v.01l-.01.01-.01.01v.01l-.01.01-.01.01-.01.01h-.01l-.01.01-.01.01h-.01l-.01.01-.01.01H1.8l-.01.01h-.03l-.01.01H1.7zm-.26-.26h.04V1.6l.01.01v.02l.01.01v.01l.01.01v.01l.01.01.01.01.01.01.01.01.01.01.01.01h.01l.01.01h.01l.01.01h.01l.01.01h.04l.02.01h.01v.03h-.06l-.01-.01h-.02l-.01-.01h-.01l-.02-.01-.01-.01h-.01l-.01-.01-.01-.01h-.01l-.01-.01v-.01l-.01-.01-.01-.01-.01-.01v-.01l-.01-.01-.01-.01v-.02l-.01-.01v-.02l-.01-.01v-.06zm.26-.25v.03h-.03l-.01.01h-.03l-.01.01H1.6l-.01.01h-.01l-.01.01-.01.01-.01.01-.01.01-.01.01-.01.01-.01.01v.01l-.01.01v.01l-.01.01v.02l-.01.01v.05h-.04v-.05l.01-.01v-.02l.01-.02v-.01l.01-.01.01-.01V1.4l.01-.01.01-.01.01-.01v-.01l.01-.01h.01l.01-.01.01-.01.01-.01h.01l.02-.01h.01l.01-.01h.01l.01-.01h.07z"/><path fill="#C4D985" d="M2.15 3.57c.13 0 .24.1.24.24 0 .13-.11.24-.24.24-.14 0-.24-.11-.24-.24 0-.14.1-.24.24-.24z"/><path fill="#2B2A29" fill-rule="nonzero" d="M2.41 3.81h-.04v-.04l-.01-.01v-.03l-.01-.01v-.01l-.01-.01v-.01l-.01-.01v-.01h-.01l-.01-.01-.01-.01v-.01h-.01l-.01-.01-.01-.01h-.01l-.01-.01h-.01l-.01-.01h-.02l-.01-.01h-.05v-.04h.05l.01.01h.03l.01.01h.01l.01.01.01.01h.01l.01.01.01.01.01.01h.01l.01.01.01.01v.01l.01.01.01.01v.01l.01.01.01.02v.02l.01.01v.04l.01.01v.02zm-.26.25v-.03h.03l.01-.01h.03l.01-.01h.01L2.25 4h.01l.01-.01.01-.01h.01l.01-.01v-.01h.01l.01-.01.01-.01v-.01l.01-.01v-.01l.01-.01v-.01l.01-.01v-.03l.01-.01v-.03h.04v.01l-.01.01v.04l-.01.01v.03l-.01.01-.01.01v.01l-.01.01-.01.01v.01l-.01.01-.01.01-.01.01-.01.01H2.3l-.01.01-.01.01h-.01l-.01.01h-.01l-.01.01h-.02l-.01.01H2.15zm-.26-.25h.04v.05l.01.01v.02l.01.01v.01l.01.01v.01l.01.01.01.01v.01h.01l.01.01.01.01.01.01.01.01h.01l.01.01h.01l.01.01h.03l.01.01h.04v.03h-.07l-.01-.01h-.01l-.01-.01h-.01l-.02-.01h-.01L2 4.02l-.01-.01h-.01L1.97 4l-.01-.01v-.01l-.01-.01-.01-.01-.01-.01v-.01l-.01-.01-.01-.01v-.01L1.9 3.9v-.03l-.01-.01v-.05zm.26-.26v.04H2.09l-.01.01h-.02l-.01.01h-.01l-.01.01h-.01l-.01.01v.01H2l-.01.01-.01.01v.01h-.01l-.01.01v.01l-.01.01v.01l-.01.01v.02l-.01.01V3.81h-.04v-.06l.01-.01v-.02l.01-.01v-.02l.01-.01.01-.01v-.01l.01-.01.01-.01.01-.01v-.01h.01l.01-.01.01-.01.01-.01h.01l.01-.01.02-.01h.01l.01-.01h.02l.02-.01h.05z"/><path fill="#C4D985" d="M4.14 5.03c.01.04.02.07.02.12 0 .13-.1.24-.24.24-.13 0-.24-.11-.24-.24 0-.05.01-.08.03-.12h.43z"/><path fill="#2B2A29" fill-rule="nonzero" d="M4.18 5.15h-.03v-.03h-.01v-.04l-.01-.01v-.02h-.01v-.01l.03-.02v.01h.01v.02h.01v.03l.01.01V5.15zm-.26.25v-.03h.03l.01-.01h.03L4 5.35h.02l.01-.01h.01l.01-.01.01-.01h.01v-.01l.01-.01.01-.01h.01v-.01l.01-.01v-.01l.01-.01v-.01l.01-.01v-.01l.01-.01v-.03l.01-.01v-.02h.03v.05l-.01.01v.02l-.01.02v.01l-.01.01v.01l-.01.01-.01.01-.01.01v.01l-.01.01-.01.01h-.01l-.01.01-.01.01-.01.01h-.01l-.01.01h-.01l-.02.01H4l-.01.01h-.07zm-.25-.25h.03v.02l.01.01v.03l.01.01v.02l.01.01v.01l.01.01.01.01v.01h.01l.01.01.01.01v.01h.01l.01.01.01.01h.01l.01.01h.02l.01.01h.03l.01.01h.02v.03H3.86l-.01-.01h-.01l-.02-.01h-.01l-.01-.01h-.01l-.01-.01-.01-.01-.01-.01h-.01l-.01-.01-.01-.01v-.01l-.01-.01-.01-.01-.01-.01v-.01l-.01-.01v-.01l-.01-.02v-.01l-.01-.01V5.15zm.04-.14v.04l.02-.01v.01h-.01v.02h-.01v.04l-.01.01v.03h-.03v-.07h.01v-.03h.01v-.02h.01v-.01l.01-.01zm-.01.01v-.01h.01l-.01.01zm.44.03h-.43v-.04h.43l.01.01-.01.03zm0-.04h.01v.01l-.01-.01z"/><path fill="#C4D985" d="M3.23 5.69c.13 0 .24.11.24.24 0 .06-.02.11-.06.15h-.37c-.04-.04-.05-.09-.05-.15 0-.13.1-.24.24-.24z"/><path fill="#2B2A29" fill-rule="nonzero" d="M3.48 5.93h-.03V5.9l-.01-.01v-.02l-.01-.01v-.02l-.01-.01v-.01l-.01-.01-.01-.01v-.01l-.01-.01-.01-.01-.01-.01-.01-.01h-.01l-.01-.01h-.01l-.01-.01h-.01l-.01-.01h-.02l-.01-.01h-.04v-.04h.02l.01.01h.04l.01.01h.02l.01.01h.01l.01.01.01.01h.01l.01.01.01.01.01.01.01.01.01.01v.01l.01.01.01.01v.01l.01.01v.01l.01.01v.01l.01.02V5.93zm-.07.17v-.04l-.01.01v-.01h.01v-.01h.01v-.02h.01v-.02h.01v-.04l.01-.01v-.03h.03V6h-.01v.03h-.01v.02h-.01v.02h-.01v.01l-.01.01-.02.01zm.02-.01l-.01.01h-.01l.02-.01zm-.39-.03h.37v.04h-.37l-.02-.01.02-.03zm0 .04h-.01l-.01-.01.02.01zm-.07-.17H3v.02l.01.01V6l.01.01v.01l.01.01v.01l.01.01v.01h.01v.01l-.03.02v-.01h-.01v-.01H3v-.02h-.01v-.02l-.01-.01V6l-.01-.01V5.93zm.26-.26v.04h-.05l-.01.01h-.02l-.01.01h-.01l-.01.01h-.01l-.01.01h-.01l-.01.01v.01h-.01l-.01.01-.01.01v.01l-.01.01v.01l-.01.01v.01l-.01.01v.01l-.01.01v.04L3 5.92v.01h-.03v-.05l.01-.01v-.03l.01-.01v-.01L3 5.81l.01-.01v-.01l.01-.01.01-.01v-.01l.01-.01.01-.01.01-.01.01-.01h.01l.01-.01.01-.01h.01l.02-.01h.01l.01-.01h.04l.01-.01h.03z"/></svg>