<svg xmlns="http://www.w3.org/2000/svg" width="128" height="67" fill-rule="evenodd" clip-rule="evenodd" image-rendering="optimizeQuality" shape-rendering="geometricPrecision" text-rendering="geometricPrecision" viewBox="0 0 19.03 9.92"><path fill="#F5B2B6" d="M.86.31C.82 2.12.49 2.93.05 2.97c.3.4.49.77.61 1.11 1.43.14 1.7-.26 2.16-.27.3-.01.67.3 1.9.32.11-.35.28-.74.54-1.19-.58-.25-.77-1.27-.78-2.6C4.23.31 3.99.2 3.75.17c.01 1.17-.1 2.21-.99 2.27-.91-.03-1.09-.89-1.12-2.28-.29 0-.48.15-.78.15z"/><path fill="none" fill-rule="nonzero" stroke="#2B2A29" stroke-miterlimit="22.9256" stroke-width=".13" d="M.86.31C.82 2.12.49 2.93.05 2.97c.3.4.49.77.61 1.11 1.43.14 1.7-.26 2.16-.27.3-.01.67.3 1.9.32.11-.35.28-.74.54-1.19-.58-.25-.77-1.27-.78-2.6C4.23.31 3.99.2 3.75.17c.01 1.17-.1 2.21-.99 2.27-.91-.03-1.09-.89-1.12-2.28-.29 0-.48.15-.78.15z"/><path fill="#F08BB2" d="M.32 3.37c.15.25.26.48.34.71 1.43.14 1.7-.26 2.16-.27.3-.01.67.3 1.9.32.07-.24.18-.49.32-.78-.61.12-1.53.28-2.26-.08-.57.22-1.69.29-2.46.1z"/><path fill="none" fill-rule="nonzero" stroke="#2B2A29" stroke-miterlimit="22.9256" stroke-width=".13" d="M.32 3.37c.15.25.26.48.34.71 1.43.14 1.7-.26 2.16-.27.3-.01.67.3 1.9.32.07-.24.18-.49.32-.78-.61.12-1.53.28-2.26-.08-.57.22-1.69.29-2.46.1z"/><path fill="#F5B2B6" d="M.46 5.91C.29 6.31.1 6.7 0 7.08c1.3.72 1.86 1.65 2.19 2.63.39.02.77.01 1.16.02.25-1.21.92-2.06 1.88-2.7-.15-.39-.35-.74-.5-1.12-1.4.37-2.82.35-4.27 0z"/><path fill="none" fill-rule="nonzero" stroke="#2B2A29" stroke-miterlimit="22.9256" stroke-width=".13" d="M.46 5.91C.29 6.31.1 6.7 0 7.08c1.3.72 1.86 1.65 2.19 2.63.39.02.77.01 1.16.02.25-1.21.92-2.06 1.88-2.7-.15-.39-.35-.74-.5-1.12-1.4.37-2.82.35-4.27 0z"/><path fill="#F08BB2" d="M.22 6.47c1.24.46 3.23.4 4.79.06-.09-.21-.19-.41-.28-.62-1.4.37-2.82.35-4.27 0-.08.19-.16.38-.24.56z"/><path fill="none" fill-rule="nonzero" stroke="#2B2A29" stroke-miterlimit="22.9256" stroke-width=".13" d="M.22 6.47c1.24.46 3.23.4 4.79.06-.09-.21-.19-.41-.28-.62-1.4.37-2.82.35-4.27 0-.08.19-.16.38-.24.56z"/><path fill="#99CFBA" d="M12.15 3.31c-1.75.4-3.55.39-5.41-.02l-.41 1.56c1.35.7 2.38 1.49 2.38 3.14h1.31c.23-1.93 1.05-2.38 2.45-3.02l-.32-1.66z"/><path fill="none" fill-rule="nonzero" stroke="#2B2A29" stroke-miterlimit="22.9256" stroke-width=".13" d="M12.15 3.31c-1.75.4-3.55.39-5.41-.02l-.41 1.56c1.35.7 2.38 1.49 2.38 3.14h1.31c.23-1.93 1.05-2.38 2.45-3.02l-.32-1.66z"/><path fill="#D8ECE4" d="M11.31 3.47l-.45.06.47 2.03c.12-.08.25-.15.39-.23l-.41-1.86z"/><path fill="none" fill-rule="nonzero" stroke="#2B2A29" stroke-miterlimit="22.9256" stroke-width=".13" d="M11.31 3.47l-.45.06.47 2.03c.12-.08.25-.15.39-.23l-.41-1.86z"/><path fill="#F5B2B6" d="M11.56 3.43c-.14.03-.29.05-.44.07l.44 1.92c.13-.07.26-.14.4-.21l-.4-1.78z"/><path fill="none" fill-rule="nonzero" stroke="#2B2A29" stroke-miterlimit="22.9256" stroke-width=".13" d="M11.56 3.43c-.14.03-.29.05-.44.07l.44 1.92c.13-.07.26-.14.4-.21l-.4-1.78z"/><path fill="#C4D985" d="M14.63.15c-.04 1.81-.37 2.63-.82 2.67 1.56 2.04.28 3.23-.02 4.44 1.3.73 1.85 1.65 2.19 2.63.38.02.77.01 1.15.03.25-1.21.92-2.06 1.88-2.71-.44-1.18-1.36-1.97.01-4.43-.57-.25-.76-1.26-.78-2.6-.24-.02-.48-.14-.73-.16.02 1.16-.09 2.21-.99 2.27-.91-.04-1.08-.89-1.11-2.29-.3 0-.49.15-.78.15z"/><path fill="none" fill-rule="nonzero" stroke="#2B2A29" stroke-miterlimit="22.9256" stroke-width=".13" d="M14.63.15c-.04 1.81-.37 2.63-.82 2.67 1.56 2.04.28 3.23-.02 4.44 1.3.73 1.85 1.65 2.19 2.63.38.02.77.01 1.15.03.25-1.21.92-2.06 1.88-2.71-.44-1.18-1.36-1.97.01-4.43-.57-.25-.76-1.26-.78-2.6-.24-.02-.48-.14-.73-.16.02 1.16-.09 2.21-.99 2.27-.91-.04-1.08-.89-1.11-2.29-.3 0-.49.15-.78.15z"/><path fill="#D8ECE4" d="M14.97 8.16c.21.22.38.45.53.69V1.17c-.06-.32-.08-.72-.09-1.17-.17 0-.31.05-.44.09v8.07z"/><path fill="none" fill-rule="nonzero" stroke="#2B2A29" stroke-miterlimit="22.9256" stroke-width=".13" d="M14.97 8.16c.21.22.38.45.53.69V1.17c-.06-.32-.08-.72-.09-1.17-.17 0-.31.05-.44.09v8.07z"/></svg>