<svg xmlns="http://www.w3.org/2000/svg" width="85" height="64" fill-rule="evenodd" clip-rule="evenodd" image-rendering="optimizeQuality" shape-rendering="geometricPrecision" text-rendering="geometricPrecision" viewBox="0 0 12.31 9.32"><path fill="#BDD180" fill-rule="nonzero" d="M9.16 5.71c.1.71.23 1.43.37 2.14-1.07.31-2.14.45-3.22.45-1.07.01-2.15-.13-3.22-.37.18-.84.29-1.78.39-2.74.06-.52.12-1.05.19-1.55.01-.08.01-.14-.01-.18-.01-.02-.02-.04-.04-.05-.02-.01-.03-.01-.06-.02-.04 0-.1.02-.17.05C2.4 4 1.85 4.81.97 5.5c-.5-.38-.6-.56-.87-.78.34-.41.62-.71.97-1.11.35-.39.67-.74.89-1.02.42-.58.87-1.14 1.4-1.56C3.88.62 4.48.34 5.22.28c.02.4.33.65.7.75.16.04.33.06.49.05.16-.02.32-.06.46-.13.25-.13.43-.36.4-.69.16.05.32.09.48.13.17.05.35.1.52.15v.01c.26.03.46.16.66.31.9.75 2 2.09 3.15 3.48.04.05.08.1.13.16-.13.1-.25.21-.36.32-.12.11-.42.4-.51.51-1.09-.86-.9-.87-2.07-1.97v-.01c-.1-.04-.18-.05-.24-.02-.05.04-.08.11-.09.22.04.71.11 1.43.22 2.16z"/><path fill="#2B2A29" fill-rule="nonzero" d="M9.52 7.83l-.01.03-.02-.07-.01-.07-.01-.06-.02-.07-.01-.07-.01-.07-.02-.06-.01-.07-.01-.07-.01-.06-.02-.07-.01-.07-.01-.07-.01-.06-.01-.07-.02-.07-.01-.06-.01-.07-.01-.07-.01-.07-.01-.06-.01-.07-.02-.07-.01-.06-.01-.07-.01-.07-.01-.07-.01-.06-.01-.07-.01-.07-.01-.06-.01-.07.05-.01.01.07.01.07.01.06.01.07.01.07.01.06.01.07.01.07.01.07.01.06.01.07.02.07.01.06.01.07.01.07.01.06.01.07.02.07.01.07.01.06.01.07.01.07.02.06.01.07.01.07.02.07.01.06.01.07.01.07.02.06.01.07.01.07-.01.03-.02-.05zm.03.02l.01.02-.02.01.01-.03zm-3.24.43h.2l.11-.01h.2l.1-.01h.1l.1-.01.1-.01.1-.01.1-.01.1-.01.1-.01.1-.01.1-.01.1-.01.1-.02.1-.01.1-.02.1-.02.1-.01.1-.02.1-.02.1-.02.1-.02.1-.03.1-.02.1-.02.1-.03.1-.03.1-.02.1-.03.02.05-.1.02-.1.03-.1.03-.11.02-.1.03-.1.02-.1.02-.1.02-.1.03-.1.02-.1.01-.1.02-.1.02-.1.01-.1.02-.1.01-.1.02-.1.01-.11.01-.1.01-.1.01-.1.01-.1.01-.1.01h-.1l-.1.01h-.1l-.1.01h-.2l-.11.01h-.1v-.05zm-3.2-.35l-.02-.03.1.03.1.02.1.02.1.02.11.02.1.02.1.02.1.02.1.01.1.02.1.02.1.01.1.02.1.01.1.01.1.01.1.02.11.01.1.01.1.01h.1l.1.01.1.01.1.01h.1l.1.01h.2l.1.01H6.31v.05h-.2l-.1-.01h-.2l-.1-.01h-.1l-.1-.01h-.1l-.11-.01-.1-.01-.1-.01H5l-.1-.01-.1-.02-.1-.01-.1-.01-.1-.01-.11-.02-.1-.01-.1-.02-.1-.01-.1-.02-.1-.02-.1-.01-.1-.02-.1-.02-.11-.02-.1-.02-.1-.02-.1-.03-.1-.02-.02-.03.05.01zm-.03.02h-.02v-.03l.02.03zm.43-2.76l-.01.09-.01.09-.01.09-.01.09-.01.09-.01.09-.01.09-.01.09-.01.09-.01.08-.01.09-.02.09-.01.09-.01.08-.01.09-.01.09-.01.08-.02.09-.01.09-.01.08-.01.09-.02.08-.01.08-.01.09-.02.08-.01.08-.02.08-.01.08-.02.08-.02.08-.01.08-.02.08-.05-.01.02-.08.02-.08.01-.07.02-.08.01-.09.02-.08.01-.08.02-.08.01-.08.01-.09.02-.08.01-.09.01-.08.02-.09.01-.08.01-.09.01-.08.01-.09.01-.09.02-.09.01-.08.01-.09.01-.09.01-.09.01-.09.01-.09.01-.08.01-.09.01-.09.01-.09.01-.09.01-.09h.05zm.19-1.55l-.01.05v.05l-.01.04-.01.05v.05l-.01.05-.01.04v.05l-.01.05-.01.05v.05l-.01.05v.05l-.01.04-.01.05v.05l-.01.05v.05l-.01.05v.05l-.01.05-.01.04v.05l-.01.05v.05l-.01.05v.05L3.53 5v.05l-.01.05-.01.05v.04h-.05l.01-.05v-.05l.01-.05v-.05l.01-.05v-.05l.01-.04V4.8l.01-.05.01-.05v-.05l.01-.05v-.05l.01-.05v-.05l.01-.04.01-.05v-.05l.01-.05v-.05l.01-.05.01-.05v-.04l.01-.05v-.05l.01-.05.01-.05v-.05l.01-.04.01-.05v-.05l.01-.05v.01h.05zm0 0zm-.05 0v-.01l.05.01h-.05zm0 0v-.01.01zm.03-.19l.01.01v.02l.01.01v.15l-.05-.01V3.49h-.01v-.02l.04-.02zm0 0l-.01-.02.01.02zm-.05-.06h.01v.01h.01v.01h.01v.01h.01v.01l.01.01v.01l-.04.02v-.01h-.01v-.01h-.01v-.01h-.01v-.01l.02-.04zm0 0h.01v.01l-.01-.01zm-.06-.02h.03v.01h.02v.01h.01l-.02.04h-.02v-.01h-.03l.01-.05zm-.01.05zm-.18 0h.01l.01-.01h.01l.01-.01h.02v-.01h.02l.01-.01h.03v-.01h.07l-.01.05h-.05l-.01.01h-.03v.01h-.02l-.01.01h-.01l-.01.01h-.01l-.01.01-.02-.05zm.02.05zm0 0l-.02-.05.02.05zm-.02-.05zM.98 5.48H.95l.08-.06.08-.07.08-.06.08-.07.07-.07.08-.07.07-.06.07-.07.07-.07.07-.07.07-.07.07-.07.07-.06.07-.07.07-.07.07-.07.07-.06.07-.07.07-.07.07-.06.08-.07.07-.06.07-.07.08-.06.08-.06.08-.06.08-.06.08-.06.09-.05.09-.06.09-.05.09-.06.02.05-.09.05-.09.05-.09.06-.08.05-.08.06-.08.06-.08.06-.08.06-.07.06-.08.07-.07.06-.07.06-.08.07-.07.06-.07.07-.07.07-.06.07-.07.06-.07.07-.07.07-.07.07-.07.07-.07.07-.07.06-.08.07-.07.07-.07.07-.08.07-.08.06-.08.07-.08.07-.08.06H.95l.03-.04zm0 .04l-.01.01-.02-.01h.03zm-.86-.78V4.7l.02.02.03.02.02.02.02.02.03.02.02.02.02.02.02.02.02.02.02.02.02.02.02.02.02.03.02.02.02.02.02.02.03.02.02.03.03.02.02.02.03.03.02.02.03.03.03.03.04.03.03.03.04.03.03.03.04.03.04.03.05.04.04.03-.03.04-.04-.03-.05-.04-.04-.03-.04-.04-.04-.03-.03-.03-.04-.03-.03-.02-.03-.03-.03-.03-.03-.02-.02-.03-.03-.02-.02-.03-.03-.02-.02-.02-.02-.03-.02-.02L.36 5l-.02-.02-.02-.02-.02-.02-.02-.02-.02-.02-.02-.02-.02-.02-.02-.02-.02-.02-.02-.02-.02-.02-.03-.02-.02-.02V4.7l.03.04zm-.03 0l-.02-.02.02-.02v.04zm1-1.11l-.03.04-.03.03-.04.04-.03.03-.03.04-.03.03-.03.04-.03.03-.03.03-.03.04-.03.03-.03.03-.03.04-.03.03-.03.03-.03.04-.03.03-.03.03-.03.03-.03.04-.03.03-.03.04-.03.03-.03.03-.02.04-.03.03-.03.04-.03.04-.03.03-.03.04-.04.04-.03.04-.03-.04.03-.03.03-.04.03-.04.03-.04.03-.03.03-.04.03-.03.03-.04.03-.03.03-.04.03-.03.02-.03.03-.04.03-.03.03-.03.03-.04.03-.03.03-.03.03-.04.03-.03.03-.03.03-.03.03-.04.03-.03.03-.04.03-.03.03-.03.04-.04.03-.04.03-.03.03-.04.04-.03.03.03zm.88-1.02h.01l-.03.02-.02.03-.02.03-.02.03-.02.02-.03.03-.02.03-.02.03-.03.03-.02.03-.03.03-.03.03-.02.03-.03.03-.03.03-.02.04-.03.03-.03.03-.03.04-.03.03-.03.03-.03.04-.03.03-.03.03-.03.04-.03.03-.04.04-.03.04-.03.03-.03.04-.04.03-.03.04-.03-.03.03-.04.03-.04.03-.03.04-.04.03-.03.03-.04.03-.03.03-.04.03-.03.03-.04.03-.03.03-.03.03-.04.03-.03.03-.03.03-.04.03-.03.02-.03.03-.03.03-.03.02-.03.03-.03.02-.03.03-.03.02-.03.03-.03.02-.03.02-.03.02-.02.03-.03.02-.03.02-.02v-.01l.03.04zm-.03-.03v-.01.01zm0-.01l.04.04h-.01l-.03-.04zm.04.04h-.01.01zm1.39-1.56l-.05.04-.05.04-.05.04-.04.04-.05.05-.05.04-.04.04-.05.05-.05.04-.04.05-.05.05-.04.04-.04.05-.05.05-.04.05-.04.05-.05.05-.04.05-.04.05-.05.05-.04.05-.04.05-.04.05-.04.05-.04.06-.04.05-.04.05-.04.06-.04.05-.04.06-.04.05-.04.06-.04-.03.04-.06.04-.05.04-.06.04-.05.04-.06.04-.05.04-.05.04-.06.04-.05.04-.05.04-.05.05-.05.04-.06.04-.05.04-.05.05-.05.04-.05.05-.04.04-.05.04-.05.05-.05.04-.04.05-.05.05-.05.04-.04.05-.05.05-.04.04-.04.05-.04.05-.05.05-.04.05-.04.03.04zM5.2.28l.02.02-.06.01-.07.01-.07.01-.07.01-.06.01-.07.01-.06.01-.06.02-.07.01-.06.02-.06.02-.06.02-.06.02-.06.02-.06.02-.06.03-.05.02L4.1.6l-.06.02-.05.03-.05.03-.06.03-.05.03-.06.03-.05.03-.05.04-.05.03-.05.04-.05.03-.05.04-.05.03-.05.04-.03-.04.05-.03.05-.04.05-.04.05-.04.05-.03.05-.03.06-.04.05-.03L3.8.7l.06-.03.05-.03.06-.03.05-.03.06-.03.06-.02L4.2.5l.05-.02.06-.03.06-.02.06-.02.07-.02.06-.02.06-.01.06-.02.07-.02.06-.01.07-.01.07-.01.06-.01.07-.01.07-.01.07-.01.03.03H5.2zm.02-.03h.03v.03L5.22.25zm.69.81l-.03-.01-.04-.01-.03-.02-.04-.01L5.74 1 5.71.98 5.67.97 5.64.95 5.61.93 5.58.92 5.55.9 5.52.88 5.5.85 5.47.83 5.44.81 5.42.79 5.4.76 5.37.74 5.35.71 5.33.68 5.31.65 5.3.62 5.28.59 5.26.56 5.25.53 5.24.5 5.23.46 5.22.43 5.21.39 5.2.36V.28h.05v.07l.01.03.01.04v.03l.01.03.02.03.01.03.01.03.02.03.01.03.02.02.02.03.02.02.02.03.02.02.03.02.02.03.03.02.02.02.03.02.03.01.03.02.03.02.03.01.03.02.03.01.03.02.03.01.04.01.03.01.03.01-.01.05zm.5.04h-.08l-.01.01h-.05l-.02-.01h-.12l-.02-.01h-.06l-.02-.01H6l-.01-.01h-.03l-.02-.01h-.03l.01-.05h.02l.01.01h.03l.02.01h.04l.02.01h.04l.02.01H6.22l.02.01h.11l.01-.01h.05v.05zm.47-.13l-.01.01-.02.01h-.01L6.83 1h-.02l-.01.01-.01.01h-.02l-.01.01h-.02l-.01.01h-.02l-.01.01h-.03l-.01.01h-.02l-.01.01H6.6l-.02.01h-.03l-.01.01h-.07l-.01.01h-.05v-.05h.06l.01-.01h.05l.01-.01h.05l.01-.01h.01l.02-.01h.03L6.67 1h.02L6.7.99h.03l.01-.01h.01l.02-.01.01-.01h.01l.02-.01h.01l.01-.01h.01l.02-.01.02.04zm.39-.69L7.3.25v.13l-.01.03v.05l-.01.03-.01.03-.01.03v.02L7.25.6l-.02.02-.01.03-.01.02-.01.02-.02.02-.01.03-.02.02-.02.02-.01.02-.02.02-.02.01-.02.02-.02.02-.02.02L7 .9l-.03.02-.02.01-.02.02-.03.01-.02.01-.02-.04.02-.01L6.9.9l.02-.01.03-.01.02-.02.02-.01.02-.02.02-.02.01-.01.02-.02.02-.02.02-.02.01-.01.02-.02.01-.02.01-.02.02-.03.01-.02.01-.02.01-.02.01-.03.01-.02.01-.02V.48l.01-.03V.43L7.25.4V.26l.03-.03-.01.05zM7.25.26V.22l.03.01-.03.03zm.49.16L7.73.41H7.7L7.69.4h-.02L7.66.39h-.02L7.63.38H7.6L7.58.37h-.01L7.55.36h-.03L7.51.35h-.02L7.48.34h-.02L7.45.33h-.03L7.4.32h-.01L7.37.31h-.01L7.34.3h-.01L7.31.29H7.3L7.28.28h-.01l.01-.05.02.01h.01l.02.01h.01l.02.01h.03l.01.01h.01l.02.01h.01l.02.01h.01l.02.01h.03l.01.01h.02l.01.01h.03l.02.01h.01l.02.01h.01l.02.01h.03l.01.01h.02l.01.01h.02l-.02.05zm.52.15L8.25.56h-.02L8.21.55H8.2L8.18.54h-.01L8.15.53h-.02L8.12.52H8.1L8.09.51h-.02L8.05.5h-.01L8.02.49H8L7.99.48h-.03L7.94.47h-.02L7.91.46h-.02L7.87.45h-.01L7.84.44h-.03L7.79.43h-.01L7.76.42h-.02l.02-.05h.01l.02.01h.02l.01.01h.02l.02.01h.01l.02.01h.03l.02.01h.01l.02.01h.02L8 .44h.02l.01.01h.02l.02.01h.01l.02.01h.02l.01.01h.02l.01.01h.02L8.2.5h.01l.02.01h.02l.01.01h.02l-.02.05zm.02-.05zm0 0l-.01.05h-.01l.02-.05zm-.01.05h-.01.01zm.01-.05l-.01.05.01-.05zm-.01.05zm.64.31h.01L8.9.87 8.88.85 8.86.84 8.84.83 8.82.81 8.8.8 8.78.79 8.77.78 8.75.76 8.73.75 8.71.74 8.69.73 8.67.72 8.65.7 8.63.69 8.61.68 8.59.67 8.57.66 8.55.65 8.53.64h-.02L8.49.63 8.47.62 8.45.61h-.02L8.41.6 8.38.59h-.02L8.34.58h-.02L8.29.57h-.02l.01-.05.02.01h.05l.02.01.03.01h.02l.02.01.02.01h.03l.02.01.02.01.02.01.02.01.02.01.02.01.02.01.02.01.02.01.02.01.02.01.02.02.02.01.02.01.02.01.02.02.02.01.02.01.02.02.02.01.02.02.02.01.02.01-.04.04zm.04-.04zm3.11 3.52l-.11-.13-.11-.13-.1-.13-.11-.13-.1-.13-.11-.13-.1-.12-.11-.13-.1-.12-.11-.12-.1-.13-.1-.12-.1-.11-.11-.12-.1-.12-.1-.11-.1-.11-.09-.11-.1-.11-.1-.11-.09-.1-.1-.1-.09-.1-.1-.1-.09-.09-.09-.09-.09-.09-.09-.08-.09-.08-.08-.08L9 .95 8.91.88l.04-.04.08.08.09.07.09.08.08.08.09.09.09.09.1.09.09.09.09.1.1.1.09.1.1.1.1.11.09.1.1.11.1.12.1.11.1.12.1.11.11.12.1.12.1.12.1.13.11.12.1.13.11.12.1.13.11.13.11.13.1.13.11.13.11.13-.04.03zm.13.12v.03h-.01V4.5h-.01v-.01l-.01-.01-.01-.01v-.01h-.01v-.01h-.01v-.01l-.01-.01-.01-.01v-.01h-.01V4.4h-.01v-.01h-.01v-.01h-.01v-.01l-.01-.01.04-.03.01.01.01.01v.01h.01v.01h.01v.01l.01.01.01.01v.01h.01v.01h.01v.01l.01.01.01.01v.01h.01v.01h.01v.04l-.03-.03zm.03 0l.02.02-.02.01v-.03zm-.39.33l.01-.01.01-.02.01-.01.01-.01.01-.01.01-.01.01-.01.02-.01.01-.01.01-.01.01-.01.01-.01.01-.01.01-.01.01-.01.01-.01.02-.01.01-.01.01-.01.01-.01.01-.01.01-.01.01-.01.02-.01.01-.01.01-.01.01-.01.01-.01.01-.01.02-.01.01-.01.01-.01.03.03-.01.01-.01.01-.01.01-.02.01-.01.01-.01.01-.01.02-.01.01-.01.01-.01.01-.02.01-.01.01-.01.01-.01.01-.01.01-.01.01-.01.01-.01.01-.02.01-.01.01-.01.01-.01.01-.01.01-.01.01-.01.01-.01.01-.01.01-.01.01-.02.01-.01.01-.01.01-.01.01-.03-.03zm-.48.5l-.03.01.01-.01.01-.02.01-.01.01-.01.02-.02.01-.01.02-.02.01-.01.02-.02.02-.02.01-.02.02-.02.02-.01.02-.02.02-.02.02-.02.02-.02.02-.02.01-.02.02-.01.02-.02.02-.02.02-.02.01-.01.02-.02.02-.02.01-.01.02-.02.01-.01.02-.01.01-.01.01-.01.03.03-.01.01-.01.01-.01.02-.02.01-.01.01-.02.02-.01.01-.02.02-.02.02-.02.02-.01.01-.02.02-.02.02-.02.02-.02.02-.02.02-.02.01-.02.02-.02.02-.01.02-.02.02-.02.02-.02.01-.01.02-.02.02-.01.01-.02.02-.01.01-.01.01-.02.02-.01.01-.01.01h-.03l.03-.04zm0 .04l-.01.02-.02-.02h.03zM9.29 3.34l.11.1.1.09.09.09.08.09.08.07.07.08.07.07.06.06.06.07.06.05.05.06.05.05.05.06.04.04.05.05.04.05.05.05.04.04.04.05.05.04.05.05.05.05.05.05.05.05.06.05.07.06.06.06.08.06.08.06.08.07.09.08.1.07-.03.04-.1-.08-.09-.07-.08-.07-.08-.06-.08-.07-.07-.06-.06-.05-.06-.06-.05-.05-.06-.05-.05-.04-.04-.05-.05-.05-.05-.04-.04-.05-.04-.05-.05-.04-.04-.05-.05-.05-.04-.05-.05-.06-.06-.05-.05-.06-.06-.06-.06-.07-.07-.07-.07-.07-.08-.08-.09-.08-.09-.09-.1-.1-.1-.1v.01l.03-.04zm0 0zm-.03.04l.02-.05h.01v.01l-.03.04zm.02-.05h.01-.01zm-.02.05l.02-.05-.02.05zm.02-.05zm-.26-.02h.01V3.3h.02l.01-.01H9.17l.01.01h.02l.01.01h.02l.01.01h.02l.01.01h.01l-.02.05-.01-.01h-.01l-.01-.01h-.01l-.01-.01h-.04v-.01H9.06v.01h-.01l-.03-.04zm-.1.24V3.49l.01-.01v-.04l.01-.01v-.02l.01-.01v-.01l.01-.01v-.01l.01-.01.01-.01v-.01h.01v-.01H9v-.01h.01l.01-.01.03.04-.01.01h-.01v.01h-.01v.01h-.01v.01L9 3.4v.01h-.01v.03l-.01.01v.03h-.01v.07h-.05zm.05 0zm0 0h-.05.05zm-.05 0zm.21 2.16l-.01-.07-.01-.07-.01-.06-.01-.07-.01-.07V5.3l-.01-.06-.01-.07-.01-.07-.01-.07v-.07l-.01-.06-.01-.07-.01-.07v-.07L9 4.63l-.01-.07v-.07l-.01-.07-.01-.06v-.07l-.01-.07v-.07l-.01-.06v-.07l-.01-.07v-.06l-.01-.07v-.14l-.01-.06v-.07h.05v.07l.01.06v.14l.01.06v.07l.01.07v.06l.01.07v.07l.01.07v.06l.01.07v.07l.01.06.01.07v.07l.01.07.01.06.01.07v.07l.01.07.01.06.01.07.01.07v.07l.01.06.01.07.01.07.01.07.01.06.01.07-.05.01z"/><path fill="#FEFEFE" d="M6.74 8.08l-1.17.06c0-3.05.04-5.37.24-7.05l.78-.06c0 2.53.15 4.52.15 7.05z"/><path fill="#2B2A29" fill-rule="nonzero" d="M5.57 8.16l-.03-.02.03-.03 1.17-.06v.05l-1.17.06zm0 0l-.03.01v-.03l.03.02zm.24-7.04l.03-.02-.02.15-.02.17-.02.16-.01.17-.02.18-.01.18-.01.18-.02.18-.01.19-.01.2-.01.19-.01.2-.01.21-.01.21v.21l-.01.22-.01.22v.23l-.01.23v.23l-.01.24v.49l-.01.25v1.04l-.01.27V8.14h-.05v-.56l.01-.28V5.99l.01-.25v-.49l.01-.24v-.23l.01-.23v-.23l.01-.22.01-.22v-.21l.01-.21.01-.21.01-.2.01-.2.01-.19.01-.19.02-.19.01-.18.01-.18.02-.17.01-.17.02-.17.02-.16.02-.16.02-.02v.05zm-.02-.03v-.02h.02l-.02.02zm.8-.08l.03.02-.03.03-.78.06v-.05l.78-.06zm0 0h.03v.02l-.03-.02zm.15 7.04l-.02.03v-.47l-.01-.23v-.45l-.01-.22v-.22l-.01-.22v-.22l-.01-.22v-.21l-.01-.21-.01-.22v-.21l-.01-.21-.01-.21v-.22l-.01-.21-.01-.21-.01-.21v-.22l-.01-.21v-.22l-.01-.22v-.21l-.01-.23v-.22l-.01-.22v-.93h.05V1.96l.01.22v.44l.01.22.01.22v.22l.01.21v.22l.01.21.01.21v.21l.01.21.01.22.01.21v.21l.01.21.01.22v.21l.01.22v.22l.01.22v.22l.01.22v.45l.01.23v.47l-.03.02v-.05zm.03.03v.02h-.03l.03-.02z"/><path fill="#FEFEFE" d="M9.48 7.64c-1.99.43-4.22.46-6.26-.01-.19-.07-.29.25-.38.66-.07.32-.06.64.27.7 2.29.42 5.12.41 6.59-.08.33-.01.07-1.25-.22-1.27z"/><path fill="#2B2A29" fill-rule="nonzero" d="M3.23 7.61l.19.04.19.04.19.04.2.03.19.03.2.03.19.02.2.02.2.02.2.02.19.02.2.01.2.01h.4l.2.01.2-.01h.19l.2-.01.2-.01.2-.01.19-.01.2-.02.2-.02.19-.02.19-.03.2-.02.19-.03.19-.03.19-.04.19-.03.19-.04.01.05-.19.03-.19.04-.19.03-.19.04-.2.03-.19.02-.19.03-.2.02-.2.02-.19.02-.2.01-.2.01-.2.01-.2.01h-.79l-.2-.01h-.2l-.2-.02-.2-.01-.2-.02-.2-.02-.19-.02-.2-.02-.2-.03-.19-.03-.2-.04-.19-.03-.19-.04-.19-.04-.01-.01.02-.04zm-.01.05h-.01v-.01l.01.01zm-.41.62l.01-.04.01-.03.01-.04.01-.04.01-.03.01-.04.01-.03.01-.03.01-.04.01-.03.01-.03.01-.03.01-.02.01-.03.01-.03.01-.02.01-.02.02-.03.01-.02.01-.01.02-.02.01-.02.01-.01.02-.01.02-.01.01-.01.02-.01h.08l.02.01-.02.04h-.08l-.01.01-.01.01-.01.01-.02.01-.01.01-.01.02-.01.01-.01.02-.01.02-.01.02-.02.02-.01.03-.01.02-.01.03-.01.03-.01.03-.01.03-.01.03v.03l-.01.04-.01.03-.01.03-.01.04-.01.04-.01.03-.01.04-.05-.01zm.3.73h-.03L3.05 9l-.03-.01-.03-.01-.02-.02-.03-.01-.02-.02-.02-.01-.02-.02-.01-.02-.02-.02-.01-.02-.01-.03-.01-.02-.01-.02-.01-.03-.01-.02v-.03l-.01-.03v-.2l.01-.03V8.4l.01-.03v-.03l.01-.03v-.03l.05.01v.03l-.01.03v.03l-.01.03v.03l-.01.03v.19l.01.02v.03l.01.02v.02l.01.02.01.02.01.02.01.02.02.02.01.01.02.02.01.01.02.02.02.01.02.01.03.01.02.01.03.01h.03l-.01.05zm6.59-.07l-.14.04-.15.04-.16.04-.16.04-.17.03-.18.03-.18.03-.19.02-.19.03-.2.02-.2.01-.21.02-.21.01-.21.01h-.22l-.22.01h-.22l-.22-.01h-.23l-.23-.01-.23-.01-.22-.01-.23-.01-.23-.02-.23-.02-.23-.03-.23-.02-.22-.03-.23-.03-.22-.03-.22-.04-.21-.04.01-.05.21.04.22.04.22.03.22.03.23.03.23.03.22.02.23.02.23.02.23.01.23.01.22.01.23.01.23.01h.44l.22-.01h.22l.21-.01.21-.01.21-.02.2-.01.19-.02.2-.02.18-.03.19-.03.17-.03.17-.03.16-.04.16-.03.15-.04.14-.05.01.05zm-.01-.05zm-.21-1.27h.04l.03.02.03.02.03.02.02.04.03.03.02.04.03.05.02.04.02.05.02.06.02.05.02.06.01.06.01.06.02.06.01.06.01.05v.06l.01.06v.11l-.01.05v.05l-.01.04-.01.04-.02.04-.02.03-.02.03-.03.02-.03.01-.03.01-.01-.05h.03l.02-.01.02-.02.01-.02.02-.02.01-.03.01-.04.01-.04v-.05l.01-.04v-.11l-.01-.05V8.4l-.01-.06-.01-.05-.01-.06-.02-.06-.01-.06-.02-.05L9.72 8l-.02-.05-.02-.05-.02-.04-.02-.04-.02-.04-.03-.03-.02-.03-.02-.02-.03-.02-.02-.01h-.02.01l-.01-.05zm0 0z"/><path fill="#FEFEFE" d="M11.86 3.72c-.36.18-.75.59-1.23 1.22.47.57.62.5.76.43.3-.3.54-.57.83-.87.08-.16.11-.2-.02-.38-.09-.12-.17-.27-.34-.4z"/><path fill="#2B2A29" fill-rule="nonzero" d="M10.61 4.95v-.03l.04-.06.05-.05.04-.06.04-.05.05-.06.04-.05.04-.05.04-.05.04-.04.04-.05.04-.05.04-.04.04-.04.04-.05.04-.04.04-.03.04-.04.04-.04.03-.03.04-.04.04-.03.03-.03.04-.03.04-.03.03-.03.04-.02.03-.03.04-.02.03-.02.04-.02.03-.02.04-.02.02.05-.03.01-.04.02-.03.02-.04.02-.03.02-.03.03-.04.02-.03.03-.04.03-.03.03-.04.03-.04.03-.03.03-.04.04-.04.03-.03.04-.04.04-.04.04-.04.04-.04.04-.04.05-.04.04-.04.05-.04.05-.04.04-.04.05-.04.06-.05.05-.04.05-.04.06-.05.05-.04.06v-.03l-.04.03zm0 0l-.01-.01.01-.02v.03zm.8.43v.01l-.02.01h-.01l-.02.01-.01.01h-.02l-.01.01h-.02l-.02.01H11.19l-.02-.01h-.02l-.03-.01-.02-.01-.02-.01-.03-.02-.02-.01-.03-.02-.03-.02-.03-.03-.03-.02-.03-.03-.04-.04-.03-.03-.04-.04-.04-.04-.04-.05-.04-.04-.04-.06.04-.03.04.05.04.05.04.05.04.04.03.04.04.03.03.03.03.03.03.02.03.03.03.02.02.02.03.01.02.01.02.01.02.01.02.01h.02l.02.01h.08l.01-.01h.03l.01-.01.01-.01h.02l.01-.01h.01l.03.03zm0 0v.01-.01zm.83-.87v.01l-.03.02-.02.03-.03.03-.03.03-.02.02-.03.03-.03.03-.02.02-.03.03-.02.03-.03.03-.02.02-.03.03-.02.03-.03.02-.02.03-.03.03-.02.02-.03.03-.02.03-.03.02-.02.03-.03.03-.03.02-.02.03-.03.03-.02.03-.03.02-.03.03-.02.03-.03.03-.03.02-.03-.03.02-.03.03-.03.03-.02.02-.03.03-.03.03-.03.02-.02.03-.03.02-.03.03-.02.03-.03.02-.03.03-.02.02-.03.03-.03.02-.02.03-.03.02-.03.03-.02.02-.03.03-.03.02-.02.03-.03.02-.03.03-.03.02-.02.03-.03.03-.03.02-.03.03-.02.03-.03.02-.03v.01l.04.02zm0 0v.01-.01zm-.02-.4l.01.02.01.01.01.02.01.01.01.01.01.02v.01l.01.01.01.02v.02l.01.01V4.37l-.01.01v.01l-.01.02v.01l-.01.01v.01l-.01.01v.02l-.01.01-.01.01-.01.02-.04-.02.01-.02v-.01l.01-.02.01-.01v-.01l.01-.01V4.4l.01-.01v-.01l.01-.01V4.27l-.01-.01v-.02l-.01-.01-.01-.01v-.01l-.01-.01-.01-.02-.01-.01-.01-.02-.01-.01.04-.03zm-.37-.41h.02l.02.02.01.01.02.01.01.01.02.02.01.01.02.01.01.02.01.01.01.01.02.01.01.02.01.01.01.01.01.02.01.01.01.01.01.02.01.01.01.01.01.02.01.01.01.01.01.01v.02l.01.01.01.01.01.01.01.01v.02l.01.01.01.01-.04.03-.01-.01-.01-.02V4.1l-.01-.01-.01-.01-.01-.01-.01-.02-.01-.01v-.01l-.01-.01-.01-.02-.01-.01-.01-.01-.01-.01-.01-.02-.01-.01-.01-.01-.01-.01-.01-.02-.01-.01-.01-.01-.01-.02-.01-.01-.01-.01-.02-.01-.01-.01-.01-.02-.02-.01-.01-.01-.02-.01-.01-.02-.02-.01.03.01-.02-.05zm0 0l.01-.01.01.01h-.02z"/><path fill="#FEFEFE" d="M.46 3.97c.35.18.75.59 1.23 1.21-.47.58-.63.5-.77.43-.29-.29-.54-.57-.83-.87-.08-.16-.1-.19.02-.37.09-.12.17-.27.35-.4z"/><path fill="#2B2A29" fill-rule="nonzero" d="M1.7 5.2l-.03-.03v.03l-.05-.06-.04-.06-.05-.05-.04-.06-.04-.05-.04-.05-.05-.05-.04-.05-.04-.05-.04-.04-.04-.05-.04-.04-.04-.04-.04-.04-.03-.04-.04-.04-.04-.04-.04-.04-.03-.03-.04-.03-.04-.04-.03-.03-.04-.03-.03-.02-.04-.03-.03-.03-.04-.02-.03-.02-.04-.02-.03-.02-.03-.02-.03-.02.02-.04.03.02.04.01.03.03.04.02.03.02.04.02.03.03.04.03.03.03.04.03.04.03.03.03.04.03.04.04.03.03.04.04.04.04.04.04.04.04.04.05.04.04.04.05.04.04.04.05.04.05.04.05.05.05.04.05.04.06.05.05.04.06.05.06-.01.03zm.01-.03l.01.01-.02.02.01-.03zm-.81.46l.04-.03-.01-.01.01.01h.02l.01.01.01.01H1l.01.01h.03l.01.01h.05l.02-.01h.03l.02-.01.02-.01.02-.01.03-.01.02-.02.03-.02.02-.02.03-.02.03-.02.03-.03.04-.03.03-.04.04-.04.03-.04.04-.04.04-.05.05-.05.03.03-.04.05-.04.05-.04.05-.04.04-.03.04-.04.03-.03.03-.04.03-.03.03-.03.02-.02.02-.03.02-.03.02-.02.01-.03.01-.02.01-.02.01-.03.01h-.02l-.02.01h-.04l-.01-.01h-.04L1 5.67H.98l-.02-.01H.95l-.01-.01-.02-.01H.91L.9 5.63zm.01.01L.9 5.63l.01.01zm-.84-.88l.04-.03.03.03.02.02.03.03.03.03.02.03.03.02.03.03.02.03.03.02.02.03.03.03.02.03.03.02.02.03.03.03.02.02.03.03.02.03.03.02.02.03.03.03.02.02.03.03.02.03.03.02.03.03.02.03.03.03.03.02.02.03.03.03.03.03-.04.03-.03-.03-.02-.02-.03-.03-.03-.03-.02-.03-.03-.02-.03-.03-.02-.03-.03-.03-.02-.02-.03-.03-.02-.03-.03-.02-.02-.03-.03-.03-.02-.02-.03-.03-.02-.03-.03-.02-.02-.03-.03-.03-.02-.02-.03-.03-.02-.03-.03-.03-.03-.02-.02-.03-.03-.03-.03-.03-.02-.02-.03-.03-.03-.03zm0 0zm.02-.4l.04.02-.01.02-.01.02-.01.01-.01.01v.02l-.01.01-.01.01v.01l-.01.01v.02l-.01.01v.07h.01v.02l.01.01v.02l.01.02.01.01v.01l.01.01.01.02v.01l-.04.03-.01-.02-.01-.01v-.02L.04 4.7v-.01l-.01-.01-.01-.02v-.02l-.01-.01v-.02L0 4.6v-.07l.01-.01v-.03l.01-.01v-.01l.01-.01.01-.02v-.01l.01-.01.01-.02.01-.01.01-.02.01-.01zm.38-.41l-.02.04h.02L.46 4l-.02.01-.01.02-.02.01-.01.01-.02.01-.01.01-.01.02-.01.01-.02.01-.01.01-.01.02-.01.01-.01.01-.01.01-.01.02-.01.01-.01.01-.01.02-.01.01-.01.01v.01l-.01.02-.01.01-.01.01-.01.01-.01.01v.02l-.01.01-.01.01-.01.01-.01.01-.04-.02.01-.02.01-.01.01-.01v-.01l.01-.01.01-.01.01-.02.01-.01.01-.01.01-.02v-.01l.01-.01.01-.01.01-.02.01-.01.01-.01.01-.02.01-.01.01-.01.01-.02.02-.01.01-.01.01-.02.01-.01.02-.01.01-.01.01-.02L.38 4l.01-.01.02-.02.02-.01.01-.01h.03zm-.03 0l.01-.01.02.01H.44z"/><path fill="#FEFEFE" d="M6.97.08c.2-.16.97.05 1.05.3.03.75-.06 1.42-.93 1.59-.67.11-.97-.37-1.05-.89.89-.1.83-.44.93-1z"/><path fill="#2B2A29" fill-rule="nonzero" d="M8 .38v.01L7.99.37 7.98.35 7.96.33 7.94.31 7.92.29 7.89.27 7.87.25 7.84.23 7.8.21 7.77.19 7.73.17 7.69.16 7.66.14 7.61.13 7.57.11 7.53.1 7.49.09 7.45.08 7.41.07 7.36.06h-.04L7.28.05h-.17l-.03.01-.03.01h-.02l-.02.01-.02.02-.03-.04.02-.02.03-.01.03-.01.03-.01h.03L7.13 0h.16l.04.01.04.01h.05l.04.01.04.01.05.01.04.02.04.01.04.02.04.01.04.02.04.02.04.02.03.02.03.02.03.02.03.02.03.02L8 .3l.02.02.01.03.01.02.01.01H8zm.04-.01l.01.01-.01-.01zm-.95 1.58l.08-.02.07-.02.07-.02.06-.03.07-.03.05-.03.05-.03.05-.03.05-.04.04-.04.04-.04.04-.05.03-.04.03-.05.03-.05.02-.05.02-.05.02-.06.02-.05.01-.06.02-.06.01-.06.01-.06.01-.06V.85L8 .79V.38h.05v.34l-.01.07v.07l-.01.06v.07l-.01.06-.01.06-.02.06-.01.06-.02.06-.02.05-.02.06-.03.05-.03.06-.03.05-.03.04-.04.05-.04.04-.05.04-.05.04-.05.04-.05.04-.06.03-.07.03-.06.02-.07.03-.08.02L7.1 2l-.01-.05zM7.1 2zm-1.06-.89l.02-.03.01.05.01.05.01.04.01.05.02.04.01.05.02.04.01.05.02.04.02.04.03.04.02.04.03.04.02.03.03.04.03.03.03.03.04.03.03.02.04.03.04.02.04.02.04.02.04.01.05.01.05.01.05.01h.22l.06-.01.01.05-.06.01H6.8L6.75 2l-.05-.01-.05-.01-.05-.02-.04-.02-.05-.02-.04-.02-.04-.03-.03-.03-.04-.03-.03-.03-.04-.03-.03-.04-.02-.04-.03-.03-.03-.04-.02-.05-.02-.04-.02-.04-.02-.05-.02-.04-.01-.05-.02-.05-.01-.05-.01-.04-.01-.05-.01-.05.02-.03.01.05zm-.03-.02v-.03h.02l-.02.03zM6.99.1L7 .08l-.01.05-.01.05-.01.05-.01.05v.05l-.01.05-.01.04-.01.04-.01.05-.01.04-.01.04-.01.03-.02.04-.01.04-.02.03-.02.04L6.8.8l-.03.03-.03.03-.03.03-.03.02-.04.03-.04.02-.05.02-.04.02-.06.02-.05.02-.07.02-.06.01-.07.02-.08.01-.08.01-.01-.05.08-.01.08-.01.07-.02.06-.01.06-.02.06-.01.05-.02.04-.02.05-.02.03-.02.04-.03.03-.02.03-.03.02-.02.03-.03.02-.03.02-.03.01-.03.02-.04.01-.03.01-.04.01-.04.01-.04.01-.04.01-.04.01-.04.01-.05V.27l.01-.04.01-.05.01-.06.01-.05.01-.01.03.04zM6.95.07V.06h.01l-.01.01z"/><path fill="#FEFEFE" d="M5.52.14c-.24-.19-.54.02-.95.27-.03.75.06 1.42.93 1.6.67.11.97-.37 1.05-.89-.89-.11-.93-.41-1.03-.98z"/><path fill="#2B2A29" fill-rule="nonzero" d="M4.59.42L4.55.41l.01-.02.03-.02.04-.02.04-.03L4.7.3l.04-.02.03-.02.04-.02.03-.02.04-.02.03-.02.03-.02.03-.02L5 .13l.04-.02.03-.01.03-.01.03-.02h.03l.02-.01.03-.01h.03l.03-.01h.08l.03.01h.03l.02.01.03.01.02.02.03.01.02.02-.03.04-.02-.02-.02-.01-.02-.01-.03-.01L5.39.1h-.02L5.35.09h-.1L5.22.1H5.2l-.03.01-.03.01-.03.01-.02.01-.03.02-.03.01L5 .19 4.96.2l-.03.02-.03.02-.03.02-.04.02L4.8.3l-.03.02-.04.02-.04.02-.03.03-.04.02-.04.03.01-.02zM4.55.41V.4l.01-.01-.01.02zm.95 1.57l-.01.05-.08-.02-.07-.02-.08-.02-.06-.03-.07-.03-.06-.03-.05-.03-.05-.04-.05-.04-.05-.04-.04-.05-.03-.04-.04-.05-.03-.05-.03-.05-.02-.06-.03-.05-.02-.06-.02-.06-.01-.05-.01-.07-.02-.06-.01-.06V.96L4.55.89V.82L4.54.76V.48l.01-.07.04.01v.34l.01.06v.07l.01.06v.06l.01.06.01.06.02.06.01.06.02.06.02.05.02.05.02.06.03.04.03.05.03.05.04.04.04.04.04.04.05.04.05.03.05.04.06.03.06.03.06.02.07.03.07.02.08.01zm-.01.05zm1.06-.89l.01-.05.02.03-.01.05-.01.05-.01.05-.01.05-.02.04-.01.05-.02.05-.02.04-.02.05-.02.04-.02.04-.03.04-.03.04-.02.04-.03.03-.04.04-.03.03-.04.03-.03.03-.04.02-.04.03-.05.02-.04.02-.05.01-.05.02-.05.01h-.05l-.06.01h-.11l-.06-.01-.07-.01.01-.05.06.01.06.01h.11l.05-.01h.05l.05-.01.05-.02.04-.01.04-.02.04-.02.04-.02.04-.02.03-.03.04-.03.03-.03.03-.03.03-.03.02-.04.03-.04.02-.04.03-.03.02-.05.02-.04.01-.04.02-.05.02-.04.01-.05.01-.04.01-.05.01-.05.01-.05.02.03zm.01-.05l.02.01v.02l-.02-.03zM5.5.16l.03-.04.01.02.01.05.01.05.01.05.01.05.01.04.01.05.01.04.01.04.02.04.01.04.01.03.02.04.02.03.02.04.02.03.02.03.03.02.02.03.03.03.04.02.03.02.04.03.04.02.05.02.05.02.05.01.06.02.06.01.07.02.07.01.08.01.08.01-.01.05-.08-.01-.08-.01-.07-.01-.07-.02-.06-.01-.06-.02-.06-.02-.05-.02L5.97 1 5.93.98 5.89.96 5.85.93 5.81.9 5.78.88 5.75.85 5.72.82 5.7.79 5.67.75 5.65.72 5.64.68 5.62.64 5.6.61 5.59.57 5.58.52 5.56.48 5.55.44 5.54.39 5.53.35 5.52.3 5.51.25 5.5.2 5.49.14l.01.02zm.03-.04l.01.01v.01L5.53.12z"/><path fill="#BDD180" d="M6.32 1.02c-.24 0-.44.2-.44.44s.2.44.44.44c.25 0 .45-.2.45-.44s-.2-.44-.45-.44z"/><path fill="#2B2A29" fill-rule="nonzero" d="M5.9 1.46h-.05v-.05l.01-.02v-.02l.01-.03v-.02l.01-.02.01-.02.01-.02.01-.02.01-.02.01-.02.01-.02.02-.02.01-.01.02-.02.02-.01.01-.02.02-.01.02-.02.02-.01.02-.01.02-.01.02-.01.02-.01h.02l.03-.01.02-.01H6.32v.04H6.3l-.02.01h-.04l-.02.01H6.2l-.02.01-.02.01-.02.01h-.02l-.02.01-.01.02-.02.01-.02.01-.01.01-.02.02-.01.01L6 1.2l-.02.01-.01.02-.01.01-.01.02-.01.02-.01.02v.02l-.01.02-.01.02v.02l-.01.02v.06zm.42.41v.05h-.07l-.02-.01h-.02l-.03-.01h-.02l-.02-.01-.02-.01-.02-.01-.02-.01-.02-.02-.02-.01-.02-.01-.01-.02-.02-.01-.02-.02-.01-.01-.02-.02-.01-.02-.01-.02-.01-.02-.01-.02-.01-.02-.01-.02-.01-.02v-.02l-.01-.03v-.02l-.01-.02v-.05h.05v.06l.01.02v.02l.01.02.01.02v.02l.01.02.01.02.01.01.01.02.01.02.02.01.01.02.01.01.02.02.01.01.02.01.02.01.01.01.02.01.02.01.02.01.02.01.02.01h.02l.02.01h.08zm.43-.41h.05v.02l-.01.03v.04l-.01.03-.01.02v.02l-.01.02-.01.02-.01.02-.01.02-.02.02-.01.02-.01.02-.02.01-.01.02-.02.01-.02.02-.01.01-.02.01-.02.02-.02.01-.02.01-.02.01-.02.01h-.03l-.02.01h-.02l-.02.01h-.08v-.05H6.41l.02-.01h.02l.02-.01.02-.01.02-.01.02-.01.01-.01.02-.01.02-.01.01-.01.02-.01.01-.02.02-.01.01-.02.01-.01.01-.02.02-.02.01-.01v-.02l.01-.02.01-.02.01-.02v-.02l.01-.02V1.5l.01-.02v-.02zm-.43-.42V1h.1l.02.01.02.01h.03l.02.01.02.01.02.01.02.01.02.01.02.02.01.01.02.02.02.01.01.02.02.01.01.02.01.02.02.02.01.02.01.02.01.02.01.02v.02l.01.02.01.03v.04l.01.03v.02h-.05v-.02l-.01-.02v-.04l-.01-.02v-.02l-.01-.02-.01-.02-.01-.02v-.02l-.01-.02-.02-.01-.01-.02-.01-.01-.01-.02-.02-.01-.01-.02-.02-.01-.01-.01-.02-.01-.02-.02-.01-.01h-.02l-.02-.01-.02-.01-.02-.01h-.02l-.02-.01h-.04l-.03-.01h-.02z"/><path fill="#BDD180" d="M9.35 5.85c-.47-.04-.87-.14-1.53-.48.08 1.48-.15 2.04.67 2.1 1.36.17 1.07-.65.86-1.62z"/><path fill="#2B2A29" fill-rule="nonzero" d="M7.8 5.37l.03-.02.06.03.06.03.06.03.06.02.05.03.06.02.05.03.05.02.05.02.05.02.05.02.05.02.05.01.04.02.05.01.04.02.05.01.04.01.05.01.04.02h.04l.04.01.05.01.04.01.04.01.04.01h.05l.04.01h.04l.05.01h.04l.04.01v.05l-.05-.01h-.04l-.04-.01h-.05l-.04-.01-.04-.01h-.05L9 5.83l-.04-.01-.05-.01-.04-.01-.04-.01-.05-.01-.04-.01-.05-.01-.04-.02-.05-.01-.04-.01-.05-.02-.05-.02-.05-.02-.05-.01-.05-.02-.05-.03-.05-.02-.05-.02-.06-.03-.05-.02-.06-.03-.06-.03-.06-.03-.06-.03.03-.02H7.8zm0 0l-.01-.04.04.02-.03.02zm.69 2.12l-.08-.01h-.07l-.06-.02-.06-.01-.05-.02-.05-.03-.05-.03-.04-.03L8 7.31l-.03-.04-.03-.04-.02-.05-.02-.05-.02-.05-.02-.06-.01-.06-.01-.07v-.07l-.01-.07v-.08l-.01-.08v-.48L7.81 6v-.36L7.8 5.5v-.13h.04l.01.13.01.13v.48l.01.1v.46l.01.07v.08l.01.06.01.07.01.06.02.05.01.05.02.05.02.04.03.04.03.04.03.03.03.02.04.03.05.02.05.02.05.01.06.02.07.01h.07v.05zm0-.05zm.86-1.61l.03.02.02.09.02.09.02.09.02.08.01.09.02.08.02.08.01.08.01.08.01.08.01.07v.07l.01.07-.01.07v.06l-.02.06-.01.06-.02.05-.03.06-.04.04-.04.04-.04.04-.05.04-.06.03-.07.02-.07.02-.08.01-.09.01H8.72l-.11-.01-.12-.01v-.05l.12.02h.31l.09-.01.08-.01.07-.02.06-.02.05-.03.05-.03.04-.03.04-.04.03-.04.02-.05.02-.05.02-.05.01-.05v-.06l.01-.07v-.06l-.01-.07-.01-.08v-.07l-.02-.08-.01-.08-.02-.08-.01-.08-.02-.09-.02-.08-.02-.09-.02-.09-.02-.09.02.02v-.05zm0 0h.02l.01.02-.03-.02z"/><path fill="#BDD180" d="M3.21 5.88c.48-.05.87-.14 1.53-.48-.08 1.48.15 2.04-.67 2.1-1.36.17-1.07-.65-.86-1.62z"/><path fill="#2B2A29" fill-rule="nonzero" d="M4.77 5.4h-.05l.03.02-.06.03-.06.03-.06.03-.05.03-.06.02-.06.03-.05.02-.05.02-.05.02-.05.02-.05.02-.05.02-.05.02-.05.01-.04.02-.05.01-.04.02-.05.01-.04.01-.05.01-.04.01-.04.01-.05.01-.04.01-.04.01h-.05l-.04.01-.04.01h-.05l-.04.01h-.04l-.05.01v-.05l.04-.01h.05l.04-.01h.04l.04-.01.05-.01h.04l.04-.01.04-.01.05-.01.04-.01.04-.01.05-.01.04-.01.04-.01.05-.01.04-.02.05-.01.05-.02.04-.01.05-.02.05-.02.05-.02.05-.02.05-.02.05-.03.06-.02.05-.03.06-.03.06-.02.06-.03.06-.04.04.03zm-.04-.03l.04-.01v.04l-.04-.03zm-.65 2.15l-.01-.05h.07l.07-.01.06-.02.06-.01.04-.02.05-.02.04-.03.03-.02.04-.04.02-.03.03-.04.02-.04.02-.05.02-.05.01-.05.01-.06.01-.07.01-.06v-.08l.01-.07v-.36l.01-.1v-.45l.01-.13v-.13l.01-.13h.05l-.01.13-.01.13v.48l-.01.1v.46l-.01.08v.07l-.01.07-.01.07-.01.06-.02.05-.01.06-.02.05-.03.05-.03.04-.03.04-.03.03-.04.03-.05.03-.05.02-.05.02-.06.02-.06.01-.07.01-.08.01h.01zm-.01-.05zm-.86-1.61v.05l.02-.02-.02.09-.02.09-.02.09-.02.08-.01.09-.02.08-.02.08-.01.08-.01.08-.01.07-.01.08v.25l.02.06.01.05.02.05.03.05.03.04.03.04.04.03.05.03.05.03.07.02.07.02.07.01.09.01h.2l.11-.01.12-.01.01.05-.13.01-.11.01h-.2l-.09-.01-.09-.01-.07-.02-.07-.03-.05-.02-.06-.04-.04-.04-.04-.04-.04-.05-.02-.05-.03-.05-.01-.06-.01-.06L3.01 7V6.79l.01-.07.01-.08.01-.08.01-.08.02-.08.02-.08.02-.09.02-.09.02-.08.02-.09.02-.09.02-.02zm-.02.02v-.02h.02l-.02.02z"/></svg>