<svg xmlns="http://www.w3.org/2000/svg" width="100" height="68" fill-rule="evenodd" clip-rule="evenodd" image-rendering="optimizeQuality" shape-rendering="geometricPrecision" text-rendering="geometricPrecision" viewBox="0 0 110.52 74.83"><path fill="#C4D985" d="M6.55 1.31c-.3 13.6-2.77 19.71-6.13 20.01 11.66 15.36 2.06 24.25-.2 33.39 9.76 5.44 13.95 12.37 16.43 19.76 2.9.13 5.79.04 8.68.17 1.89-9.08 6.9-15.46 14.15-20.31-3.35-8.91-10.29-14.79.05-33.26-4.33-1.91-5.73-9.51-5.85-19.54-1.82-.19-3.65-1.06-5.47-1.25.1 8.73-.74 16.6-7.43 17.05-6.83-.28-8.18-6.68-8.41-17.14-2.2 0-3.62 1.12-5.82 1.12z"/><path fill="#2B2A29" fill-rule="nonzero" d="M.57 21.21l-.31.23.14-.31.29-.04.29-.07.28-.11.28-.14.27-.18.27-.21.27-.24.25-.28.26-.32.25-.36.24-.39.23-.43.23-.47.22-.51.21-.55.21-.58.19-.63.19-.66.18-.71.16-.75.16-.78.15-.83.14-.87.12-.91.12-.95.11-1 .09-1.03.08-1.08.07-1.12.06-1.17.05-1.2.04-1.25h.38L6.7 2.57l-.04 1.21-.06 1.17-.07 1.13-.09 1.08-.09 1.04-.11 1-.12.96-.13.91-.13.88-.15.84-.16.79-.17.76-.18.71-.19.68-.2.64-.21.59-.22.56-.22.53-.24.48-.24.45-.25.41-.26.38-.28.34-.28.3-.28.27-.3.23-.3.19-.32.16-.32.12-.32.08-.34.05.14-.3zm-.31.23l-.2-.28.34-.03-.14.31zm.05 33.11l-.18.33-.09-.21.23-.87.27-.86.31-.86.33-.87.35-.86.37-.87.38-.88.39-.88.39-.89.38-.89.38-.91.35-.92.34-.93.32-.94.28-.96.25-.97.2-1 .16-1.01.11-1.03.06-1.05-.01-1.07-.07-1.1-.15-1.12-.22-1.16-.3-1.17-.39-1.21-.49-1.24-.58-1.28-.69-1.3-.79-1.34-.91-1.38-1.03-1.41.31-.23 1.03 1.42.92 1.4.81 1.35.69 1.33.59 1.29.49 1.26.4 1.23.31 1.2.23 1.18.15 1.14.07 1.12.01 1.1-.06 1.07-.11 1.05-.16 1.03-.21 1.01-.25.99-.29.97-.32.96-.34.94-.36.92-.37.91-.39.91-.39.88-.39.88-.38.88-.36.86-.35.86-.33.86-.3.85-.27.85-.23.85-.1-.21zm-.18.33L0 54.81l.04-.14.09.21zm16.53 19.4l-.01.38-.18-.13-.23-.69-.25-.68-.26-.68-.27-.68-.28-.68-.3-.67-.31-.67-.33-.66-.34-.66-.36-.66-.37-.65-.4-.64-.41-.64-.43-.64-.45-.63-.47-.62-.49-.62-.51-.61-.54-.61-.55-.6-.59-.6-.61-.58-.63-.58-.66-.58-.68-.57-.72-.56-.74-.55-.77-.54-.8-.54-.83-.53-.87-.52-.89-.51.18-.33.91.51.87.53.84.53.81.54.77.55.75.56.73.57.69.57.67.58.64.59.61.59.59.6.57.61.54.62.52.62.5.62.47.64.46.63.43.65.42.65.4.65.37.66.37.66.34.67.33.67.32.67.3.68.28.68.28.69.26.69.25.69.23.69-.17-.13zm-.01.38h-.13l-.05-.13.18.13zm8.49-.06l.37.07-.19.16-.27-.02-.27-.01h-.27l-.27-.01-.27-.01-.27-.01h-.27l-.27-.01h-.54l-.27-.01h-1.09l-.27-.01h-1.36l-.27-.01h-.27l-.27-.01h-.27l-.27-.01H18l-.27-.01-.27-.01-.27-.01-.27-.01-.27-.01.01-.38.27.01.27.01.27.01.27.01.27.01h.27l.27.01h.28l.27.01h.54l.27.01h1.35l.27.01H22.35l.27.01h.54l.28.01h.27l.27.01.27.01h.27l.27.01.27.01.28.01-.2.16zm.37.07l-.03.16h-.16l.19-.16zM39.3 54.39l.36-.13-.08.22-.67.46-.65.47-.64.47-.63.49-.62.49-.6.51-.59.51-.57.53-.56.54-.54.54-.54.56-.51.57-.5.58-.49.59-.47.6-.45.62-.44.63-.42.64-.41.65-.39.67-.37.68-.36.69-.34.7-.33.72-.31.74-.29.74-.27.77-.26.78-.24.79-.22.8-.2.83-.19.83-.37-.07.19-.85.2-.83.23-.82.24-.8.26-.79.28-.77.29-.76.31-.74.33-.73.35-.71.36-.71.38-.68.4-.68.41-.66.43-.65.44-.63.46-.63.48-.61.49-.6.5-.58.52-.58.54-.56.55-.56.57-.54.58-.53.59-.52.61-.51.62-.5.64-.49.64-.48.67-.47.67-.46-.07.22zm.36-.13l.05.14-.13.08.08-.22zm-.2-33.02l.15-.35.09.27-.92 1.69-.82 1.62-.72 1.55-.64 1.49-.55 1.42-.47 1.36-.39 1.31-.31 1.25-.25 1.2-.18 1.15-.11 1.11-.06 1.06v1.02l.05.99.09.95.14.92.18.9.21.87.25.85.28.83.3.81.32.81.34.79.35.78.37.78.37.78.37.78.37.79.36.79.36.8.34.82.33.83-.36.13-.32-.82-.34-.81-.36-.79-.36-.79-.37-.78-.37-.79-.37-.78-.36-.78-.36-.79-.34-.8-.33-.81-.3-.83-.28-.84-.25-.86-.22-.89-.19-.91-.14-.94-.1-.97-.05-1.01.01-1.04.06-1.09.11-1.12.19-1.17.25-1.22.31-1.26.4-1.32.47-1.38.56-1.44.64-1.49.73-1.57.82-1.63.93-1.7.09.27zm.15-.35l.19.09-.1.18-.09-.27zM33.66 1.72l.04-.38.17.19.02.93.02.92.03.9.04.88.05.87.06.85.06.83.08.82.08.79.1.78.11.75.11.74.13.71.14.69.15.66.16.64.18.62.18.6.21.57.21.54.22.52.24.48.25.47.27.43.28.4.29.37.31.35.32.31.34.28.35.25.37.23.38.18-.15.35-.42-.2-.39-.24-.38-.27-.35-.3-.35-.33-.32-.36-.31-.39-.29-.43-.28-.44-.26-.48-.24-.5-.24-.53-.21-.56-.21-.58-.19-.61-.18-.63-.16-.65-.15-.67-.14-.7-.13-.72-.12-.74-.11-.76-.09-.78-.09-.8-.08-.82-.06-.84-.06-.86-.05-.87-.04-.89-.03-.9-.02-.92-.02-.93.17.18zm.04-.38l.17.02v.17l-.17-.19zM28.4.28h-.39l.21-.19.18.02.18.03.17.02.18.03.17.04.17.04.18.03.17.04.17.05.18.04.17.05.17.05.17.05.17.04.18.05.17.05.17.05.17.05.17.05.17.05.17.05.17.04.17.05.17.04.17.04.17.04.17.03.16.03.17.03.17.03.17.02.16.02-.04.38-.17-.02-.18-.02-.17-.03-.18-.03-.17-.03-.17-.04-.18-.04-.17-.04-.17-.05-.18-.04-.17-.05-.17-.04-.17-.05-.18-.05-.17-.05-.17-.05-.17-.05-.17-.05-.17-.05-.17-.05-.17-.04-.17-.05-.17-.04-.17-.04-.17-.05-.17-.03-.17-.04-.16-.03-.17-.03-.17-.03-.17-.02-.16-.02.21-.19zm-.39 0V.07l.21.02-.21.19zm-7.24 17.24l.02-.38h-.02l.59-.07.57-.1.52-.14.5-.18.47-.22.44-.25.41-.29.38-.33.36-.36.33-.38.31-.43.28-.45.27-.48.24-.51.22-.54.2-.56.18-.59.16-.61.15-.64.13-.65.11-.68.1-.69.08-.71.07-.73.06-.75.04-.75.04-.77.02-.79.02-.79V1.1l-.01-.82h.39V2.71l-.02.8-.02.78-.04.78-.04.76-.06.75-.07.74-.08.72-.1.7-.11.69-.13.66-.15.65-.17.63-.19.6-.2.58-.23.55-.25.53-.28.51-.3.47-.32.44-.35.41-.38.38-.41.35-.44.3-.46.28-.5.23-.53.19-.56.15-.59.11-.63.07h-.02zm.02 0h-.02.02zM12.37.38V0l.2.19.02.96.03.95.04.91.05.9.06.87.07.84.08.81.09.79.11.76.12.73.13.71.15.67.16.65.18.62.2.59.22.56.23.52.25.5.28.47.29.43.32.4.33.37.37.34.38.31.41.28.43.24.46.21.5.18.51.14.55.12.59.07.61.05-.02.38-.63-.05-.61-.08-.57-.12-.55-.15-.52-.19-.49-.22-.46-.26-.44-.29-.41-.33-.38-.36-.35-.39-.34-.43-.3-.45-.29-.49-.26-.51-.25-.55-.22-.57-.2-.61-.19-.63-.16-.66-.15-.69-.14-.71-.12-.74-.11-.77-.09-.8-.08-.82-.07-.85-.06-.87-.05-.9-.04-.92-.03-.94-.03-.98.19.19zm0-.38h.19l.01.19-.2-.19zM6.74 1.31h-.38l.19-.19h.19l.2-.01.19-.02.19-.02.18-.02.18-.03.18-.04.18-.03.17-.04.17-.04.17-.05.18-.05.17-.05.17-.05.16-.05.17-.05.18-.05.17-.06.17-.05.17-.05.17-.05.18-.04.18-.05.18-.04.19-.04.18-.03.2-.03.19-.03.2-.02.2-.02.2-.01h.21v.38h-.19l-.2.01-.19.02-.19.02-.18.02-.18.03-.18.04-.18.03-.17.04-.17.04-.17.05-.17.05-.18.05-.16.05-.17.05-.17.05-.17.05-.17.06-.18.05-.17.05-.17.05-.18.04-.18.05-.18.04-.19.04-.18.03-.19.03-.2.03-.19.02-.21.02-.2.01h-.21l.19-.19zm-.38 0v-.19h.19l-.19.19z"/><path fill="#D8ECE4" d="M9.08 61.43c1.59 1.67 2.91 3.42 4.01 5.23V8.97c-.45-2.46-.64-5.41-.72-8.78-1.25 0-2.26.36-3.29.68v60.56z"/><path fill="#2B2A29" fill-rule="nonzero" d="M12.9 66.66h.38l-.35.1-.11-.17-.1-.17-.11-.17-.1-.16-.11-.17-.11-.17-.11-.16-.12-.17-.11-.16-.11-.17-.12-.16-.12-.17-.12-.16-.12-.16-.12-.17-.12-.16-.13-.16-.13-.16-.12-.17-.13-.16-.13-.16-.14-.16-.13-.16-.13-.16-.14-.16-.14-.16-.14-.15-.14-.16-.14-.16-.15-.16-.14-.15-.15-.16.27-.26.15.16.15.15.15.16.14.16.15.16.14.16.14.17.14.15.13.17.14.16.13.16.13.16.14.17.12.16.13.16.13.17.12.16.13.17.12.16.12.17.12.17.12.16.11.17.12.17.11.17.11.16.12.17.11.17.1.17.11.17.11.17.1.17-.35.1zm.38 0v.67l-.35-.57.35-.1zm0-57.69v57.69h-.38V8.97l.38-.03v.03zm0-.03v.03-.03zM12.37.38V0l.19.19.01.31.01.31.01.31.01.31.01.3.01.31.01.29.01.3.02.29.01.3.02.29.01.28.02.29.02.28.02.27.02.28.02.27.02.27.03.27.02.26.03.26.03.26.03.26.03.25.03.25.03.25.03.24.04.25.04.24.04.23.04.24.04.23-.38.07-.04-.24-.04-.23-.04-.24-.04-.24-.03-.25-.04-.25-.03-.25-.03-.25-.03-.26-.03-.25-.03-.27-.02-.26-.03-.27-.02-.26-.03-.28-.02-.27-.02-.28-.02-.28-.02-.28-.01-.29-.02-.28-.02-.29-.01-.3-.02-.29-.01-.3-.01-.3-.01-.3-.01-.31-.01-.31-.01-.31-.01-.31V.19l.18.19zm0-.38h.19v.19L12.37 0zm-3.1.87h-.38l.13-.18.1-.03.1-.03.09-.03.1-.03.1-.03.09-.03.1-.03.1-.03.1-.03.1-.03.09-.03.1-.03.1-.02.1-.03.11-.03.1-.02.1-.03.1-.02.11-.02.11-.02.1-.02.11-.02.11-.02.11-.02.11-.01.11-.01.11-.01.12-.01.12-.01h.12l.11-.01h.12v.38h-.22l-.11.01-.11.01-.11.01-.11.01-.11.01-.1.01-.1.02-.11.01-.1.02-.1.02-.1.02-.1.02-.1.02-.1.03-.1.02-.1.03-.1.02-.09.03-.1.03-.1.02-.1.03-.09.03-.1.03-.1.03-.09.03-.1.03-.1.03-.09.03-.1.03-.1.03.14-.18zm-.38 0V.73l.13-.04-.13.18zm0 60.56V.87h.38v60.56l-.33.13-.05-.13zm.05.13l-.05-.06v-.07l.05.13z"/><path fill="#6FA691" d="M96.67 70.54l10.66-.68c.66-.04 1.3.47 1.23 1.07l-.16 1.4c-.07.6-.51 1.04-1.15 1.14-3.36.51-6.76.67-10.47.32-.65-.06-1.21-.46-1.23-1.07l-.03-1.04c-.02-.61.5-1.1 1.15-1.14z"/><path fill="#2B2A29" fill-rule="nonzero" d="M107.34 70.05l-10.65.67-.03-.37 10.66-.67.02.37zm1.41.91l-.37-.05h-.01l.01-.04v-.08l-.01-.05-.01-.04-.01-.04-.01-.04-.02-.04-.02-.03-.02-.04-.03-.04-.02-.04-.03-.03-.03-.04-.04-.03-.03-.03-.04-.03-.04-.03-.04-.03-.04-.02-.05-.03-.04-.02-.05-.02-.05-.02-.05-.01-.05-.01-.05-.01-.05-.01-.05-.01h-.16l-.02-.37.07-.01h.07l.07.01.07.01.07.01.07.01.06.02.07.02.07.02.06.03.06.03.06.03.06.03.05.04.06.04.05.04.05.05.05.04.04.05.04.05.04.06.04.05.03.06.03.06.03.06.02.06.02.07.01.06.01.07V70.96zm-.53 1.35l.16-1.4.37.05-.16 1.39-.37-.04zm-.95 1.35l-.05-.37.05-.01.05-.01.05-.02.05-.01.05-.02.05-.01.05-.02.04-.02.04-.02.04-.03.05-.02.03-.02.04-.03.03-.03.04-.03.03-.03.03-.04.03-.03.03-.03.03-.04.02-.04.02-.03.02-.04.02-.04.02-.04.02-.05.01-.04.02-.05.01-.04.01-.05.01-.04.01-.05.37.04-.01.06-.01.06-.01.07-.02.06-.02.06-.02.06-.02.05-.03.06-.02.05-.03.06-.04.05-.03.05-.03.05-.04.04-.04.05-.05.04-.04.04-.05.05-.04.03-.05.04-.06.04-.05.03-.05.03-.06.03-.06.02-.06.03-.05.02-.07.02-.06.02-.06.01-.07.02-.07.01zm-10.51.32l.04-.38.34.04.35.02.34.03.34.02.34.02.34.02.33.01.33.01.34.01.33.01h.98l.33-.01h.33l.32-.02.32-.01.32-.01.33-.02.32-.02.32-.02.32-.03.31-.02.32-.03.32-.03.31-.04.32-.03.31-.04.32-.04.31-.04.31-.05.32-.04.05.37-.31.04-.32.05-.31.04-.32.04-.32.04-.32.04-.31.03-.33.03-.31.03-.33.03-.32.02-.32.02-.32.02-.33.02-.32.02-.33.01-.32.01-.33.01h-1.33l-.33-.01h-.34l-.33-.02-.34-.01-.34-.02-.34-.02-.35-.02-.34-.02-.35-.03-.35-.03zm-1.4-1.26l.38-.01v.05l.01.04.01.05v.04l.02.04.01.04.02.04.02.04.02.03.02.04.02.04.03.03.03.03.03.04.03.03.04.03.03.02.04.03.04.03.04.02.05.03.04.02.05.02.04.02.05.02.05.01.05.02.05.01.06.01.05.01.05.01h.06l-.04.38-.06-.01-.07-.01-.07-.01-.06-.02-.06-.01-.07-.02-.06-.02-.06-.02-.06-.03-.06-.02-.06-.03-.05-.03-.06-.04-.05-.03-.05-.04-.05-.04-.05-.04-.04-.04-.05-.04-.04-.05-.04-.05-.03-.05-.04-.05-.03-.06-.02-.05-.03-.06-.02-.06-.02-.06-.01-.07-.01-.06-.01-.07-.01-.07zm.34-1.04l.04 1.03-.38.01-.03-1.03.37-.01zm.96-1.33l.03.37-.06.01-.05.01h-.05l-.05.02-.05.01-.05.01-.04.02-.05.02-.05.02-.04.02-.04.03-.04.02-.04.03-.04.03-.03.03-.03.03-.04.03-.03.04-.03.03-.02.04-.03.04-.02.04-.02.04-.02.04-.02.04-.01.04-.01.04-.01.05-.01.04v.04l-.01.05v.05l-.37.01v-.13l.01-.07.01-.07.01-.06.02-.06.02-.06.02-.06.03-.06.03-.06.03-.05.04-.05.04-.06.04-.04.04-.05.04-.05.05-.04.05-.04.05-.04.05-.04.05-.03.06-.03.06-.04.06-.02.06-.03.06-.02.07-.02.06-.02.07-.01.06-.01.07-.01.07-.01z"/><path fill="#6FA691" d="M67.56 70.88h10.89c.68 0 1.24.5 1.24 1.11v1.03c0 .61-.57 1-1.24 1.11-3.63.59-7.26.75-10.89 0-.66-.14-1.24-.5-1.24-1.11v-1.03c0-.61.56-1.11 1.24-1.11z"/><path fill="#2B2A29" fill-rule="nonzero" d="M78.45 71.07H67.56v-.38h10.89v.38zm1.43.92h-.37l-.01-.05v-.04l-.01-.05v-.04l-.02-.05-.01-.04-.02-.04-.01-.04-.02-.04-.03-.04-.02-.04-.03-.04-.03-.03-.03-.04-.03-.03-.04-.03-.03-.04-.04-.03-.04-.02-.04-.03-.04-.02-.05-.03-.05-.02-.04-.02-.05-.01-.05-.02-.05-.01-.05-.01-.06-.01-.05-.01h-.11v-.38h.07l.07.01.07.01.07.01.07.01.07.02.07.02.06.02.06.03.06.03.06.02.06.04.06.03.05.04.05.04.05.04.05.05.05.05.04.04.04.06.04.05.03.05.03.06.03.06.03.05.02.07.02.06.02.06.01.07.01.06.01.07v.07zm-.37 1.03v-1.03h.37v1.03h-.37zm-1.03 1.3l-.06-.37.06-.01.05-.01.06-.02.06-.01.05-.02.05-.02.06-.01.05-.02.05-.02.05-.03.04-.02.04-.03.05-.02.04-.03.04-.03.03-.03.04-.03.03-.03.03-.03.03-.03.03-.04.02-.04.03-.03.02-.04.01-.03.02-.04.01-.04.02-.04v-.04l.01-.05v-.04l.01-.05h.37v.07l-.01.07-.01.06-.01.07-.02.06-.02.06-.02.06-.03.05-.03.06-.04.05-.03.05-.04.05-.04.05-.04.05-.05.04-.05.04-.05.04-.05.04-.05.03-.06.04-.05.03-.06.03-.06.03-.06.02-.06.03-.07.02-.06.02-.06.02-.07.02-.06.01-.07.02-.07.01zm-10.96 0l.08-.37.34.07.33.06.34.05.34.06.34.04.33.04.34.04.34.03.34.03.34.03.33.01.34.02.34.01.34.01H73l.34-.01.34-.01.34-.01.34-.02.34-.02.33-.02.34-.03.34-.03.34-.04.34-.03.34-.04.34-.04.34-.05.33-.05.34-.05.34-.05.06.37-.34.05-.34.05-.34.05-.35.05-.34.04-.34.04-.34.04-.34.03-.35.03-.34.03-.34.02-.34.02-.34.02-.35.01-.34.01-.34.01h-.69l-.34-.01-.34-.01-.34-.01-.35-.02-.34-.02-.34-.03-.35-.04-.34-.03-.34-.05-.34-.04-.35-.06-.34-.05-.34-.07-.35-.06zm-1.39-1.3h.38v.09l.01.05.01.04.01.04.01.03.02.04.02.04.01.03.03.04.02.03.03.03.03.04.03.03.03.03.04.03.03.03.04.03.05.02.04.03.04.02.05.03.05.02.05.02.05.03.05.01.06.02.05.02.05.02.06.01.06.02.06.01-.08.37-.06-.02-.07-.01-.06-.02-.07-.02-.06-.02-.06-.02-.07-.03-.06-.02-.06-.03-.05-.02-.06-.03-.06-.04-.05-.03-.05-.03-.06-.04-.05-.04-.05-.04-.04-.04-.04-.04-.04-.05-.04-.05-.04-.05-.03-.05-.03-.06-.03-.05-.03-.06-.02-.06-.01-.06-.02-.07-.01-.06-.01-.07v-.07zm.38-1.03v1.03h-.38v-1.03h.38zm1.05-1.3v.38h-.11l-.05.01-.05.01-.06.01-.05.01-.05.02-.05.01-.04.02-.05.02-.04.03-.05.02-.04.03-.04.02-.03.03-.04.04-.04.03-.03.03-.03.04-.03.03-.03.04-.02.04-.02.04-.02.04-.02.04-.02.04-.01.04-.01.05-.01.04-.01.05v.09h-.38v-.07l.01-.07.01-.06.01-.07.02-.06.02-.06.02-.07.03-.05.03-.06.03-.06.04-.05.03-.05.04-.06.05-.04.04-.05.05-.05.05-.04.05-.04.06-.04.05-.03.06-.04.06-.02.06-.03.06-.03.07-.02.06-.02.07-.02.07-.01.07-.01.07-.01.07-.01h.07z"/><path fill="#99CFBA" fill-rule="nonzero" d="M108.43 70.41c3.96-4.42 1.15-62.49-4.75-67.58-3.86.61-29.7.52-36.85.18-7.87 25.48-2.71 64.39-.13 68.22 5.88.73 8.74.42 12.77.36l5.75-34.39 2.03-1.02 8.28 35.05c3.46-.17 7.29-.03 12.9-.82z"/><path fill="#2B2A29" fill-rule="nonzero" d="M103.63 2.6l.22.06.59.68.54.94.51 1.21.49 1.46.47 1.69.45 1.89.42 2.09.4 2.26.38 2.41.35 2.55.32 2.66.3 2.76.28 2.84.24 2.89.22 2.92.2 2.95.16 2.94.13 2.92.1 2.88.08 2.82.04 2.74v2.64l-.02 2.53-.06 2.38-.09 2.23-.13 2.05-.16 1.85-.21 1.64-.24 1.41-.27 1.15-.33.9-.39.63-.39-.31.32-.51.3-.83.27-1.12.23-1.38.2-1.62.16-1.85.13-2.04.09-2.21.06-2.38.02-2.52v-2.63l-.04-2.74-.08-2.81-.1-2.88-.13-2.92-.16-2.94-.19-2.94-.22-2.92-.25-2.89-.27-2.82-.3-2.76-.33-2.65-.35-2.54-.37-2.41-.4-2.25-.42-2.07-.44-1.88-.47-1.67-.48-1.43-.49-1.17-.51-.89-.51-.58.22.06-.09-.47zm0 0l.13-.02.09.08-.22-.06zm-37.04.34l.25-.17.72.03.83.03.92.03 1.01.03 1.08.02 1.16.02 1.22.02 1.29.02 1.33.02 1.37.01 1.41.02 1.44.01h1.45l1.47.01h4.41l1.45-.01 1.42-.01 1.39-.01L93.56 3l1.3-.02 1.25-.03 1.18-.02 1.12-.03 1.04-.03.95-.04.87-.03.76-.05.65-.05.54-.05.41-.05.09.47-.44.05-.55.05-.67.05-.77.05-.86.04-.96.03-1.04.03-1.12.03-1.19.03-1.25.02-1.31.02-1.35.01-1.39.01-1.42.01-1.45.01h-5.88l-1.46-.01-1.43-.01-1.41-.01-1.38-.02-1.33-.01-1.28-.02-1.23-.02-1.16-.02-1.09-.03-1.01-.03-.92-.02-.83-.03-.72-.04.25-.17-.48-.13zm0 0l.05-.18.2.01-.25.17zm.07 68.52l-.18-.1-.27-.5-.26-.67-.28-.86-.28-1.03-.28-1.2-.28-1.36-.28-1.51-.28-1.66-.26-1.79-.26-1.91-.24-2.03-.23-2.14-.21-2.24-.18-2.32-.16-2.41-.14-2.48-.1-2.55-.07-2.6-.03-2.64.01-2.68.05-2.71.09-2.73.14-2.74.19-2.74.25-2.73.3-2.72.36-2.69.43-2.66.49-2.61.55-2.57.63-2.5.71-2.44.48.13-.69 2.42-.63 2.49-.55 2.55-.49 2.61-.42 2.64-.36 2.68-.3 2.71-.25 2.72-.19 2.74-.14 2.73-.09 2.72-.05 2.7-.01 2.68.03 2.64.07 2.59.1 2.54.13 2.47.16 2.4.19 2.33.21 2.23.22 2.13.24 2.02.26 1.91.27 1.78.27 1.65.28 1.5.28 1.35.28 1.19.27 1.02.27.83.25.64.23.42-.18-.1-.07.46zm0 0l-.12-.01-.06-.09.18.1zm13.06.16l-.25.2-.37.01-.37.01-.36.01-.36.01-.35.01-.35.01-.35.01-.35.01-.35.01-.35.01h-.34l-.35.01-.36.01H73.41l-.38-.01h-.38l-.4-.01-.4-.02-.41-.02-.42-.02-.43-.02-.44-.03-.46-.04-.46-.04-.49-.04-.49-.05-.51-.05-.53-.06-.55-.07.07-.46.54.06.53.06.5.05.5.05.47.04.47.04.45.04.44.03.42.02.42.02.4.02.4.01.39.01.38.01.37.01H74.5l.35-.01h.35l.36-.01.34-.01.35-.01.35-.01.34-.01.35-.01.35-.01.36-.01.36-.01.36-.01h.37l.38-.01-.25.2.5.07zm0 0l-.03.2h-.22l.25-.2zm5.25-34.46l.13-.17.37.25-5.75 34.38-.5-.07 5.75-34.39zm0 0l.02-.11.11-.06-.13.17zm2.16-1.19l.37.16-.13.26-2.03 1.02-.24-.42 2.03-1.02zm0 0l.3-.14.07.3-.37-.16zm8.65 35.21l-.24.28-.26-.18L87 36.23l.5-.1 8.28 35.05zm-.24.28l-.22.01-.04-.19.26.18zm13.08-.89l-.15.08-.53.07-.51.07-.5.06-.49.05-.49.06-.47.04-.47.05-.45.04-.45.03-.44.03-.44.03-.42.03-.42.02-.41.02-.4.02-.4.02-.39.02-.38.01-.38.01-.37.01-.37.01-.36.01-.36.01-.35.01-.35.01-.34.01-.34.01h-.34l-.33.01-.33.02-.33.01-.32.01-.03-.47.33-.01.33-.02.33-.01.34-.01.33-.01.34-.01.35-.01h.35l.35-.01.36-.01.36-.01.36-.01.37-.01.38-.01.38-.02.39-.01.4-.02.4-.02.4-.02.42-.02.42-.03.43-.03.44-.03.44-.03.45-.04.47-.05.47-.04.48-.06.48-.05.5-.06.51-.07.52-.07-.16.08.39.31zm0 0l-.06.07-.09.01.15-.08z"/><path fill="#D8ECE4" fill-rule="nonzero" d="M108.43 70.41c3.96-4.42 1.15-62.49-4.75-67.58-.69.11-2.08.2-3.93.26 5.63 20.5 8.06 43.57 5.86 67.66.89-.09 1.82-.2 2.82-.34z"/><path fill="#2B2A29" fill-rule="nonzero" d="M103.72 3.07l-.09-.47.22.06.59.68.54.94.51 1.21.49 1.46.47 1.69.45 1.89.42 2.09.4 2.26.38 2.41.35 2.55.32 2.66.3 2.76.28 2.84.24 2.89.22 2.92.2 2.95.16 2.94.13 2.92.1 2.88.08 2.82.04 2.74v2.64l-.02 2.53-.06 2.38-.09 2.23-.13 2.05-.16 1.85-.21 1.64-.24 1.41-.27 1.15-.33.9-.39.63-.39-.31.32-.51.3-.83.27-1.12.23-1.38.2-1.62.16-1.85.13-2.04.09-2.21.06-2.38.02-2.52v-2.63l-.04-2.74-.07-2.81-.11-2.88-.13-2.92-.16-2.94-.19-2.94-.22-2.92-.25-2.89-.27-2.82-.3-2.76-.33-2.65-.35-2.54-.37-2.41-.4-2.25-.42-2.07-.44-1.88-.47-1.67-.48-1.43-.49-1.17-.51-.89-.51-.58.22.06zm-.09-.47l.13-.02.09.08-.22-.06zm-3.63.44l-.5.11.24-.29.17-.01h.17l.17-.01.16-.01h.16l.16-.01.15-.01h.15l.15-.01.15-.01.14-.01h.14l.14-.01.13-.01.13-.01.12-.01h.12l.12-.01.12-.01.11-.01.11-.01.1-.01.1-.01.1-.01h.09l.09-.01.08-.01.08-.01.08-.01.07-.01.07-.01.06-.01.09.47-.07.01-.07.01-.08.01-.08.01-.08.01-.09.01-.1.01-.09.01h-.1l-.1.01-.11.01-.11.01-.11.01-.12.01-.12.01-.12.01h-.13l-.13.01-.13.01-.14.01h-.14l-.14.01-.15.01-.15.01h-.15l-.16.01-.16.01h-.16l-.16.01-.17.01h-.17l-.17.01.24-.29zm-.5.11l-.08-.28.32-.01-.24.29zm6.08 67.37l.05.47-.28-.26.2-2.25.16-2.25.14-2.24.11-2.23.09-2.23.06-2.22.04-2.21.01-2.2-.02-2.2-.04-2.18-.06-2.18-.09-2.17-.11-2.16-.14-2.14-.16-2.15-.18-2.12-.21-2.12-.22-2.11-.25-2.1-.28-2.08-.29-2.08-.32-2.06-.33-2.05-.36-2.03-.38-2.03-.4-2.01-.42-2-.44-1.98-.46-1.97-.48-1.96-.5-1.94-.52-1.93.5-.11.51 1.93.5 1.94.49 1.97.46 1.97.44 1.99.42 2 .4 2.02.38 2.03.36 2.04.34 2.05.31 2.07.3 2.08.27 2.09.25 2.1.23 2.11.21 2.13.18 2.13.16 2.14.14 2.16.11 2.16.09 2.18.06 2.18.04 2.19.02 2.2-.01 2.21-.04 2.21-.06 2.23-.09 2.23-.11 2.24-.14 2.24-.17 2.25-.19 2.26-.28-.25zm.05.47l-.3.03.02-.29.28.26zm2.6-.73l.39.31-.15.08-.1.01-.09.02-.09.01-.1.01-.09.01-.09.01-.09.02-.09.01-.09.01-.09.01-.09.01-.09.01-.1.01-.08.02-.09.01-.09.01-.09.01-.09.01-.08.01-.09.01-.09.01-.08.01-.09.01-.09.01-.08.01h-.09l-.08.01-.09.01-.09.01-.08.01-.08.01-.09.01-.05-.47.08-.01.09-.01.08-.01.08-.01h.09l.08-.01.09-.01.08-.01.09-.01.08-.01.09-.01.09-.01.08-.01.09-.01.09-.01.09-.01.08-.01.09-.01.09-.01.09-.01.09-.02.09-.01.09-.01.09-.01.09-.01.09-.01.09-.02.09-.01.09-.01.09-.01.1-.01.09-.02-.16.08zm.39.31l-.06.07-.09.01.15-.08z"/><path fill="#F5B2B6" fill-rule="nonzero" d="M71.47 3.15c-1.9-.04-3.51-.09-4.64-.14-7.87 25.48-2.71 64.39-.13 68.22 1.15.14 2.18.24 3.13.32-3.77-24.14-2.76-47.5 1.64-68.4z"/><path fill="#2B2A29" fill-rule="nonzero" d="M67.07 3.07l-.48-.13.25-.17.11.01h.11l.11.01h.12l.12.01h.12l.12.01h.13l.12.01h.13l.14.01h.13l.14.01h.28l.15.01h.15l.15.01h.15l.15.01h.32l.16.01h.16l.16.01h.17l.17.01h.34l.18.01h.17l.18.01-.01.47-.18-.01h-.18l-.17-.01h-.34l-.17-.01h-.17l-.16-.01h-.33l-.16-.01h-.15l-.16-.01h-.15L69 3.32H68.71l-.15-.01h-.14l-.14-.01h-.13l-.14-.01h-.13l-.13-.01h-.12l-.13-.01h-.12l-.11-.01h-.12l-.11-.01h-.12l-.1-.01.25-.17zm-.48-.13l.05-.18.2.01-.25.17zM66.73 71l-.07.46-.18-.11-.27-.49-.26-.67-.28-.86-.28-1.03-.28-1.2-.28-1.36-.28-1.51-.28-1.66-.26-1.79-.26-1.91-.24-2.03-.23-2.14-.21-2.24-.18-2.32-.16-2.41-.14-2.48-.1-2.55-.07-2.6-.03-2.64.01-2.68.05-2.71.09-2.73.14-2.74.19-2.74.25-2.73.3-2.72.36-2.69.43-2.66.49-2.61.55-2.57.63-2.5.71-2.44.48.13-.69 2.42-.63 2.49-.55 2.55-.49 2.61-.42 2.64-.36 2.68-.3 2.71-.25 2.72-.19 2.74-.14 2.73-.09 2.72-.05 2.7-.01 2.68.03 2.64.07 2.59.1 2.54.14 2.47.15 2.4.19 2.33.21 2.23.22 2.13.25 2.02.25 1.91.27 1.78.27 1.65.28 1.5.28 1.35.28 1.19.27 1.02.27.83.25.64.23.43-.18-.11zm-.07.46l-.12-.01-.06-.1.18.11zm2.92.12l.5-.07-.27.27h-.09l-.09-.01-.09-.01-.09-.01h-.09l-.1-.01-.09-.01-.09-.01-.1-.01-.09-.01h-.1l-.09-.01-.1-.01-.09-.01-.1-.01-.1-.01-.1-.01-.1-.01-.1-.01-.1-.01-.1-.01-.1-.01-.1-.01-.1-.02-.11-.01-.1-.01-.11-.01-.1-.02-.1-.01-.11-.01-.11-.01-.11-.02.07-.46.11.01.1.01.11.01.11.02.1.01.1.01.11.01.1.02.1.01.1.01.1.01.1.01.1.01.1.01.1.01.1.01.09.01.1.01.09.01.1.01.09.01h.1l.09.01.1.01.09.01.09.01.09.01h.09l.09.01.09.01h.09l.09.01-.27.27zm.5-.07l.05.3-.32-.03.27-.27zm1.39-68.12l.01-.47.24.28-.4 1.96-.38 1.98-.36 1.99-.35 2.01-.31 2.01-.31 2.04-.27 2.04-.26 2.06-.23 2.06-.22 2.08-.19 2.1-.16 2.1-.15 2.11-.12 2.12-.1 2.14-.07 2.14-.05 2.15-.03 2.16v2.17l.02 2.18.05 2.19.07 2.2.1 2.2.13 2.21.15 2.22.18 2.22.2 2.23.23 2.24.25 2.24.29 2.25.31 2.25.34 2.26-.5.07-.34-2.26-.31-2.26-.29-2.26-.26-2.24-.23-2.24-.2-2.24-.18-2.23-.15-2.22-.12-2.22-.1-2.21-.08-2.2-.05-2.19-.02-2.18v-2.18l.03-2.17.05-2.15.07-2.15.1-2.14.12-2.13.15-2.11.17-2.11.19-2.1.21-2.08.23-2.08.26-2.06.28-2.05.3-2.03.32-2.02.34-2.01.37-2 .38-1.99.4-1.96.25.28zm.01-.47h.3l-.06.28-.24-.28z"/></svg>