<svg xmlns="http://www.w3.org/2000/svg" width="61" height="53" fill-rule="evenodd" clip-rule="evenodd" image-rendering="optimizeQuality" shape-rendering="geometricPrecision" text-rendering="geometricPrecision" viewBox="0 0 3.83 3.34"><path fill="#99CFBA" d="M.01.88l.39.59.43-.05 2.18-.02.42.06.39-.59-.81-.62C2.33.7 1.61.71.83.23L.01.88z"/><path fill="#2B2A29" fill-rule="nonzero" d="M.39 1.47L.01.88.02.87l.39.59-.01.02-.01-.01zm.01.01l-.01-.01.01.01zm.43-.05l-.43.05v-.02l.43-.05v.02zm0-.02zm2.18 0l-2.18.02v-.02l2.18-.02v.02zm0-.02zm.41.08l-.41-.06v-.02l.42.06.01.02h-.02zm.02 0l-.01.01-.01-.01h.02zm.39-.59l-.39.59-.02-.01.39-.6h.01l.01.02zM3.82.86l.01.01v.01L3.82.86zM3.01.24l.81.62-.01.02L3 .26V.24h.01zM3 .24l.01-.01v.01H3zM.84.24L.82.22h.02l.07.05.07.04.07.03.07.04.07.03.08.03.07.02.07.03.07.02.07.02.06.01.07.01.07.01.07.01h.07l.07.01.06-.01h.07l.07-.01.06-.01.07-.01.07-.01.06-.02.07-.02.06-.02.07-.03.06-.02.07-.03.06-.04.06-.03.07-.04L3 .24l.01.02-.06.04-.07.04-.06.03-.06.03-.07.04-.06.02-.07.03-.07.02-.06.02-.07.02-.07.01-.06.02h-.07l-.07.01-.07.01h-.13L1.82.59 1.75.58 1.68.57 1.61.56 1.54.55 1.47.53 1.4.51 1.33.48 1.26.46 1.19.43 1.11.4 1.04.36.97.33.9.28.82.24h.02zM.82.22h.02-.02zM.01.87L.82.22l.02.02-.82.64H.01V.87zm0 .01L0 .87h.01v.01z"/><path fill="#C5E3D7" d="M.83 3.33H3l.01-1.93c-.15-.43-.14-.81 0-1.16L2.28.01c-.23.07-.47.08-.7.01L.83.23c.19.42.17.81 0 1.19v1.91z"/><path fill="#2B2A29" fill-rule="nonzero" d="M3 3.34H.83v-.02H3l.01.01-.01.01zm.01-.01v.01H3l.01-.01zm.01-1.93l-.01 1.93h-.02L3 1.4h.02zm0 0zM3.01.25V.23l.01.01-.01.03L3 .31l-.01.03-.01.03-.01.04-.01.03-.01.03-.01.04v.03l-.01.04v.03l-.01.04v.1l-.01.04v.04l.01.03v.11l.01.04v.04l.01.04.01.03v.04l.01.04.01.04.01.04.01.04.01.04.02.04-.02.01-.02-.04-.01-.04-.01-.04-.01-.04-.01-.04-.01-.04-.01-.04v-.04l-.01-.04v-.04L2.9.98V.9L2.89.86V.75L2.9.72V.64l.01-.03V.57l.01-.03V.5l.01-.03.01-.04.01-.03.01-.03.01-.04.01-.03.01-.03L3 .23l.01.02zm0-.02h.02l-.01.01-.01-.01zM2.29 0l.72.23v.02L2.28.02V0h.01zm-.01 0h.01-.01zm-.7.03L1.57.01h.01l.02.01h.02l.02.01h.03l.02.01h.04l.03.01h.08l.03.01h.08l.03-.01h.08l.02-.01h.05l.02-.01h.02l.02-.01h.02l.03-.01h.02L2.28 0l.01.02-.03.01h-.02l-.02.01H2.2l-.02.01h-.03l-.02.01h-.04l-.02.01H2l-.02.01h-.14L1.82.07h-.07L1.73.06h-.04L1.66.05h-.02L1.62.04h-.03L1.57.03h.01zM1.57.01h.01-.01zM.83.22l.74-.21.01.02-.75.21H.82L.83.22zM.82.24V.23L.83.22.82.24zm.02 1.18H.82v-.01l.02-.03.01-.04.01-.03.02-.04.01-.03.01-.04.01-.03.01-.04.01-.03.01-.04v-.04L.95.99V.91L.96.88V.77L.95.73V.66L.94.62.93.58V.54L.92.51.91.47.9.43.88.39.87.35.85.31.84.28.82.24.84.23l.02.04.01.04.02.04.01.04.02.03.01.04.01.04.01.04v.04l.01.04.01.03v.08l.01.04V.92L.97.95v.04l-.01.04v.03l-.01.04-.01.04-.01.03-.01.04-.01.03-.01.04-.02.04-.01.03-.01.04-.02.03zm-.02 0v-.01.01zm.01 1.9v.02l-.01-.01V1.42h.02V3.33l-.01-.01zm0 .02H.82v-.01l.01.01z"/><path fill="#99CFBA" d="M2.31.02L2.28.01c-.23.07-.47.08-.7.01h-.01v.03c0 .22.17.39.37.39.21 0 .37-.17.37-.39V.02z"/><path fill="#2B2A29" fill-rule="nonzero" d="M2.29 0l.02.01v.02L2.28.02V0h.01zm-.01 0h.01-.01zm-.7.03L1.57.01h.01l.02.01h.02l.02.01h.03l.02.01h.04l.03.01h.08l.03.01h.08l.03-.01h.08l.02-.01h.05l.02-.01h.02l.02-.01h.02l.03-.01h.02L2.28 0l.01.02-.03.01h-.02l-.02.01H2.2l-.02.01h-.03l-.02.01h-.04l-.02.01H2l-.02.01h-.14L1.82.07h-.07L1.73.06h-.04L1.66.05h-.02L1.62.04h-.03L1.57.03h.01zM1.57.01h.01-.01zm0 0l.01.02h-.01L1.56.02l.01-.01zm-.01.01V.01h.01l-.01.01zm.02.03h-.02V.02h.02v.03zm.36.38v.02H1.9L1.88.44h-.03L1.83.43 1.81.42h-.02L1.78.41 1.76.4 1.74.39 1.73.38 1.71.37 1.7.36 1.68.35 1.67.33 1.66.32 1.65.3 1.64.29 1.62.27 1.61.26V.24L1.6.22 1.59.21 1.58.19V.17L1.57.15V.13L1.56.11V.05h.02v.04l.01.02v.04l.01.02v.01l.01.02.01.02v.01l.01.02.01.01.01.02.01.01.01.02.02.01.01.01.01.01.02.01.01.01.01.01.02.01.02.01.01.01h.02l.01.01.02.01h.04l.01.01h.04zM2.3.05h.02v.08l-.01.02v.02L2.3.19l-.01.02v.01l-.01.02-.01.02-.01.01-.01.02-.01.01-.02.02-.01.01-.01.02-.02.01-.01.01-.01.01-.02.01-.02.01-.01.01-.02.01h-.02l-.01.01-.02.01H2l-.02.01h-.04V.43h.04L2 .42h.03l.02-.01.02-.01h.01L2.1.39l.01-.01.02-.01.01-.01.02-.01.01-.01.01-.01.02-.01.01-.01.01-.02.01-.01.01-.02.01-.01.01-.02.01-.01V.2l.01-.02.01-.01V.13L2.3.11V.05zm.01-.02V.01l.01.01v.03H2.3V.02l.01.01zm0-.02h.01v.01L2.31.01zM2.67 1.25V.71h.02v.54h-.02zm-.1.11v-.02h.04v-.01h.02v-.01h.01v-.01h.01V1.3h.01v-.02h.01v-.03h.02v.03l-.01.01v.02h-.01v.01h-.01v.01h-.01v.01h-.01v.01h-.02v.01h-.05zm-.32-.02h.32v.02h-.32v-.02zm-.12-.09h.02v.02h.01v.03h.01v.01h.01v.01h.01v.01h.02v.01h.04v.02h-.04l-.01-.01h-.01l-.01-.01h-.01v-.01h-.01v-.01h-.01v-.01l-.01-.01v-.01l-.01-.01v-.03zm.02-.54v.54h-.02V.71L2.14.7l.01.01zm-.02 0V.7h.01l-.01.01zm.55.01h-.54V.7h.54l.01.01-.01.01zm0-.02h.01v.01L2.68.7z"/></svg>