<svg xmlns="http://www.w3.org/2000/svg" width="117" height="61" fill-rule="evenodd" clip-rule="evenodd" image-rendering="optimizeQuality" shape-rendering="geometricPrecision" text-rendering="geometricPrecision" viewBox="0 0 180.14 94.45"><path fill="#F08BB2" d="M39.95 17.39c28.76.19 37.24 32.82 36.27 50.68-.97 17.87-21.34 13.06-37.32 12.2-15.98-.86-35.46 6.69-34.49-11.18.97-17.86 6.78-51.88 35.54-51.7z"/><path fill="#2B2A29" fill-rule="nonzero" d="M76.48 68.09l-.52-.03.06-1.71.01-1.78-.06-1.86-.11-1.92-.18-1.96-.24-2.02-.31-2.04-.38-2.08-.45-2.09-.52-2.09-.6-2.1-.67-2.09-.76-2.07-.83-2.05-.92-2.01-1-1.96-1.09-1.92-1.17-1.85-1.27-1.79-1.35-1.7-1.45-1.62-1.55-1.53-1.64-1.42-1.75-1.31-1.84-1.19-1.95-1.06-2.05-.92-2.17-.78-2.27-.62-2.39-.46-2.49-.29-2.62-.11v-.53l2.66.12 2.53.29 2.43.47 2.31.63 2.2.79 2.09.95 1.99 1.07 1.87 1.21 1.78 1.33 1.66 1.45 1.58 1.55 1.46 1.64 1.38 1.73 1.28 1.81 1.19 1.87 1.1 1.94 1.01 1.99.93 2.03.84 2.06.76 2.09.68 2.11.6 2.11.53 2.12.45 2.1.38 2.09.31 2.06.25 2.03.18 1.98.11 1.94.06 1.87-.01 1.8-.06 1.73zm-37.6 12.44l.03-.52 1.52.09 1.53.11 1.55.13 1.56.13 1.57.13 1.58.14 1.57.12 1.56.12 1.56.1 1.54.08 1.53.06 1.5.02 1.47-.01 1.44-.05 1.4-.1 1.37-.14 1.31-.2 1.27-.26 1.21-.32 1.16-.39 1.09-.46 1.02-.54.96-.62.88-.71.8-.79.72-.89.63-1 .55-1.1.45-1.21.35-1.34.25-1.46.15-1.59.52.03-.15 1.63-.26 1.5-.36 1.38-.47 1.27-.58 1.15-.66 1.04-.76.94-.84.83-.92.74-.99.65-1.07.56-1.13.48-1.19.4-1.24.33-1.3.26-1.34.2-1.38.15-1.42.1-1.46.05-1.49.01-1.51-.02-1.53-.06-1.55-.08-1.56-.1-1.57-.11-1.58-.13-1.57-.14-1.57-.13-1.56-.13-1.55-.13-1.53-.11-1.51-.09zM4.15 69.08l.52.03-.03 1.58.08 1.44.2 1.29.29 1.17.39 1.04.49.92.57.81.66.71.75.61.82.52.9.44.98.37 1.04.29 1.11.22 1.17.17 1.23.11 1.28.06 1.32.02 1.37-.02 1.41-.06 1.44-.07 1.47-.1 1.49-.1 1.51-.12 1.53-.11 1.54-.11 1.55-.1 1.55-.08 1.55-.05 1.54-.02 1.53.01 1.51.06-.03.52-1.49-.06-1.52-.01-1.53.02-1.54.06-1.54.07-1.54.1-1.54.11-1.53.11-1.51.12-1.5.1-1.47.1-1.45.08-1.41.05-1.39.02-1.34-.02-1.3-.06-1.25-.11-1.2-.17-1.14-.24-1.08-.3-1.02-.38-.95-.46-.88-.56-.79-.65-.71-.76-.62-.87-.52-.98-.41-1.09-.31-1.22-.2-1.35-.08-1.48.03-1.62zm35.8-51.95v.53l-2.61.08-2.48.27-2.35.45-2.23.62-2.1.78-1.99.94-1.87 1.08-1.77 1.21-1.65 1.34-1.56 1.46-1.45 1.56-1.36 1.67-1.27 1.76-1.17 1.83L13 34.62l-1.01 1.97-.92 2.02-.85 2.07-.77 2.1-.7 2.13-.64 2.15-.57 2.15-.51 2.15-.45 2.14-.39 2.12-.35 2.09-.29 2.05-.26 2.01-.2 1.94-.18 1.88-.13 1.8-.11 1.72-.52-.03.11-1.73.13-1.8.18-1.89.21-1.96.25-2.01.3-2.06.34-2.1.4-2.13.45-2.15.52-2.17.57-2.16.64-2.16.71-2.15.77-2.12.86-2.08.93-2.05 1.02-1.99 1.1-1.93 1.19-1.86 1.28-1.78 1.38-1.69 1.48-1.59 1.58-1.48 1.69-1.37 1.8-1.23 1.91-1.1 2.03-.96 2.14-.8 2.27-.63 2.39-.46 2.52-.27 2.65-.09z"/><path fill="#F5B2B6" d="M38.81.28C44.7.6 49.23 5.32 48.93 10.82c-.3 5.51-5.31 9.71-11.19 9.39-5.89-.31-10.42-5.03-10.12-10.54.3-5.5 5.31-9.71 11.19-9.39z"/><path fill="#2B2A29" fill-rule="nonzero" d="M49.19 10.84l-.52-.03.01-.5-.01-.5-.04-.49-.07-.48-.09-.47-.11-.47-.14-.46-.16-.45-.19-.44-.2-.43-.23-.42-.25-.41-.27-.4-.29-.38-.3-.37-.33-.36-.34-.34-.36-.32-.38-.31-.39-.3-.41-.27-.42-.26-.44-.24-.45-.22-.47-.2-.47-.18-.49-.16-.5-.13-.5-.11-.52-.09-.53-.07-.53-.04.03-.52.56.04.55.07.54.09.53.12.52.15.51.16.5.19.49.21.47.23.46.25.44.27.43.29.41.31.4.32.38.34.36.36.34.38.32.39.31.4.28.42.26.43.24.44.22.46.2.46.16.48.15.48.12.5.1.5.07.51.04.52.01.52-.01.53zm-11.47 9.64l.03-.53.54.02.53-.01.52-.03.52-.06.51-.08.5-.11.49-.12.48-.15.47-.17.46-.19.45-.21.44-.23.42-.25.41-.27.39-.29.38-.3.36-.32.35-.33.33-.35.3-.37.3-.38.27-.39.25-.4.23-.42.21-.43.19-.45.16-.45.14-.46.12-.47.09-.48.07-.49.04-.5.52.03-.05.52-.06.52-.1.51-.13.5-.14.49-.18.48-.2.46-.22.46-.24.44-.27.43-.28.41-.31.4-.33.39-.34.37-.37.35-.38.33-.39.32-.42.3-.43.28-.44.26-.46.24-.47.22-.48.21-.49.17-.51.16-.51.13-.53.11-.53.09-.54.06-.55.03-.56.01-.56-.01zM27.36 9.66l.52.03-.01.49.01.5.04.49.06.48.1.47.11.47.14.46.16.45.19.44.2.43.23.42.25.41.27.4.29.38.3.37.33.36.34.34.36.32.38.31.39.3.41.28.42.25.44.24.45.22.46.2.48.18.48.16.5.13.51.12.52.09.52.06.54.04-.03.53-.56-.05-.55-.07-.54-.09-.53-.12-.52-.14-.51-.17-.5-.19-.49-.21-.47-.23-.46-.25-.44-.27-.43-.29-.41-.3-.4-.33-.38-.34-.36-.36-.34-.38-.33-.39-.3-.4-.28-.42-.26-.43-.24-.44-.22-.46-.2-.46-.16-.47-.15-.49-.12-.5-.1-.5-.07-.51-.04-.51-.01-.53.01-.52zM38.83.02l-.03.52-.54-.02-.53.01-.52.03-.52.06-.51.08-.5.11-.49.12-.48.15-.47.17-.46.19-.45.21-.44.23-.42.26-.41.26-.39.29-.38.3-.36.32-.35.33-.33.35-.31.37-.29.38-.27.39-.25.41-.23.41-.21.43-.19.45-.16.45-.14.46-.12.48-.09.48-.07.49-.04.5-.52-.03.04-.53.08-.52.09-.51.13-.5.14-.49.18-.47.2-.47.22-.46.24-.44.27-.42.28-.42.31-.4.33-.38.34-.37.36-.35.39-.34.39-.32.42-.3.42-.28.45-.26.45-.24.47-.22.49-.2.49-.18.51-.16.51-.13.53-.11.53-.09.54-.06.55-.03.56-.01.56.02z"/><path fill="#F5B2B6" d="M3.45 63.88c26.65 2.54 47.71 2.38 73.16-1.94 1.81-.3 3.39 1.36 3.47 3.19l.57 13.69c.07 1.83-1.4 3.09-3.19 3.46-25.5 5.31-46.57 5.59-73.16 1.94-1.81-.25-3.39-1.35-3.46-3.18L.26 67.35c-.07-1.83 1.37-3.64 3.19-3.47z"/><path fill="#2B2A29" fill-rule="nonzero" d="M76.57 61.69l.09.51-2.38.39-2.35.37-2.33.35-2.31.32-2.29.3-2.27.27-2.27.25-2.24.24-2.24.2-2.23.19-2.22.16-2.21.15-2.21.12-2.21.1-2.21.08-2.2.06-2.22.04-2.21.01h-2.23l-2.24-.02-2.24-.03-2.26-.06-2.27-.08-2.29-.09-2.3-.11-2.33-.13-2.35-.15-2.37-.16-2.4-.19-2.42-.19-2.45-.22-2.49-.23.06-.52 2.47.23 2.46.22 2.41.19 2.4.19 2.37.16 2.34.15 2.32.13 2.31.11 2.28.09 2.27.08 2.25.05 2.24.04 2.23.02h2.22l2.22-.02 2.21-.04 2.2-.05 2.2-.08 2.21-.1 2.2-.13 2.21-.14 2.21-.16 2.22-.19 2.24-.2 2.24-.23 2.25-.25 2.27-.28 2.29-.3 2.3-.32 2.33-.34 2.35-.37 2.37-.39zm3.77 3.43l-.52.02-.01-.16-.02-.15-.03-.16-.03-.15-.04-.15-.05-.15-.06-.15-.06-.14-.07-.15-.07-.13-.08-.13-.09-.13-.09-.13-.1-.11-.1-.12-.11-.1-.11-.11-.12-.09-.12-.09-.12-.08-.12-.08-.14-.07-.13-.06-.13-.05-.14-.04-.14-.04-.14-.02-.15-.02-.14-.01h-.15l-.15.01-.15.02-.09-.51.18-.03.19-.01h.18l.18.01.18.02.17.03.17.05.17.05.16.06.16.07.16.09.15.09.15.09.14.11.13.11.13.12.13.12.12.14.11.13.11.15.09.15.1.15.08.16.08.16.08.16.06.18.05.17.05.17.04.18.03.18.03.19.01.18zm.05 13.71l-.57-13.69.52-.02.57 13.69-.52.02zm-2.87 3.71l-.11-.51.16-.04.15-.04.16-.04.15-.05.15-.06.15-.06.14-.06.14-.07.13-.07.13-.08.13-.08.12-.08.12-.09.12-.1.11-.09.1-.1.1-.11.09-.11.09-.11.08-.11.07-.12.07-.12.07-.13.05-.13.05-.13.04-.13.04-.14.03-.14.02-.15.01-.15.01-.15v-.16l.52-.02V79l-.01.18-.01.17-.03.17-.03.18-.04.16-.05.16-.06.16-.07.16-.08.14-.08.15-.09.14-.09.13-.11.14-.1.12-.12.12-.12.12-.12.11-.13.11-.14.1-.14.1-.14.09L79 82l-.16.08-.15.07-.16.07-.16.07-.17.06-.16.06-.18.05-.17.04-.17.04zM4.26 84.48l.08-.51h-.01l2.48.32 2.44.31 2.42.29 2.39.26 2.36.23 2.34.21 2.32.19 2.3.16 2.28.14 2.26.12 2.26.09 2.23.06 2.23.04 2.22.01 2.21-.01 2.21-.04 2.21-.07 2.2-.09 2.2-.11 2.21-.15 2.21-.17 2.21-.2 2.23-.23 2.23-.25 2.24-.28 2.26-.31 2.27-.34 2.29-.37 2.31-.39 2.33-.43 2.35-.45 2.38-.48.11.51-2.38.48-2.36.46-2.34.42-2.31.4-2.3.37-2.27.33-2.27.31-2.25.29-2.24.25-2.23.23-2.22.2-2.22.17-2.21.15-2.21.11-2.21.1-2.21.06-2.21.04-2.22.01-2.22-.01-2.24-.04-2.24-.06-2.26-.09-2.27-.12-2.28-.14-2.31-.16-2.32-.19-2.35-.21-2.37-.24-2.39-.26-2.42-.28-2.45-.31-2.47-.33h-.01zM.58 81.05l.52-.02.01.15.02.15.02.15.04.14.03.14.05.14.06.13.06.12.06.13.08.11.08.12.08.11.09.11.1.1.1.1.11.09.11.1.11.08.13.08.12.09.13.07.14.07.13.07.14.06.15.05.15.06.15.05.15.04.16.04.15.03.16.03.17.03-.08.51-.17-.03-.18-.03-.17-.03-.17-.05-.17-.05-.17-.05-.16-.06-.17-.06-.15-.07-.16-.07-.15-.08-.15-.09-.14-.09-.14-.09-.13-.1-.13-.11-.13-.11-.12-.12-.11-.12-.11-.12-.1-.14-.09-.13-.09-.14-.08-.15-.07-.15-.07-.16-.05-.16-.05-.16-.04-.17-.03-.18-.02-.18-.01-.18zM.52 67.33l.58 13.7-.52.02L0 67.36l.52-.03zm2.96-3.71l-.06.52-.15-.01h-.15l-.14.01-.15.02-.14.03-.14.04-.14.05-.13.05-.13.06-.13.07-.12.08-.12.09-.12.09-.11.1-.11.1-.1.11-.1.12-.09.12-.09.13-.08.13-.07.14-.07.14-.06.14-.06.15-.05.14-.04.16-.04.15-.03.16-.02.15-.01.16-.01.16v.15l-.52.03v-.19l.01-.18.01-.18.03-.19.03-.18.04-.17.05-.18.06-.17.06-.17.08-.16.08-.16.08-.16.1-.15.1-.15.11-.14.11-.14.12-.13.12-.12.14-.12.14-.11.14-.1.15-.09.15-.09.16-.08.16-.06.17-.06.17-.04.17-.04.18-.02.18-.02h.19l.19.01z"/><path fill="#2B2A29" fill-rule="nonzero" d="M11.96 64.61l-.52-.03.24.27-.18-.01-.19-.02-.18-.01-.19-.01-.18-.02-.19-.01-.18-.02-.19-.01-.19-.02-.18-.01-.19-.02-.19-.01-.18-.02-.19-.01-.19-.02-.18-.01-.19-.02-.19-.02-.19-.01-.19-.02-.18-.02-.19-.01-.19-.02-.19-.01-.19-.02-.19-.02-.19-.01-.19-.02-.19-.02-.19-.01-.19-.02-.19-.02.05-.52.19.02.19.02.19.01.19.02.19.02.19.01.18.02.19.02.19.01.19.02.19.01.19.02.18.02.19.01.19.02.19.01.19.02.18.02.19.01.19.02.18.01.19.02.18.01.19.02.19.01.18.02.19.01.18.01.19.02.18.01.19.02.18.01.24.28zm-.24-.28l.26.02-.02.26-.24-.28zm1.16 21.21l.05-.52-.28.31-.1-.53-.1-.55-.1-.57-.09-.6-.09-.6-.08-.63-.08-.64-.08-.65-.07-.67-.07-.67-.06-.68-.06-.7-.06-.69-.04-.71-.05-.7-.04-.71-.04-.71-.03-.7-.03-.71-.03-.7-.02-.7-.01-.69-.01-.68V68.15l.01-.64.01-.62.02-.6.03-.6.03-.56.03-.55.52.03-.03.55-.03.56-.03.58-.01.61-.02.61-.01.64V70.13l.01.68.02.69.01.69.03.7.03.7.03.71.04.7.04.71.05.7.05.7.05.69.06.69.06.68.07.67.07.66.08.65.08.63.08.62.09.61.09.58.09.57.1.55.1.52-.28.31zm.28-.31l.07.35-.35-.04.28-.31zm-6.65-.63l.52-.09-.23-.22.2.03.19.02.2.03.19.02.19.03.2.02.19.03.19.02.2.02.19.03.19.02.19.03.2.02.19.02.19.03.19.02.19.02.19.02.19.03.2.02.19.02.19.02.19.02.19.03.19.02.19.02.19.02.19.02.19.02.19.02.19.02.18.02-.05.52-.19-.02-.19-.02-.19-.02-.19-.02-.19-.02-.19-.02-.19-.03-.19-.02-.19-.02-.19-.02-.19-.02-.19-.02-.19-.03-.2-.02-.19-.02-.19-.02-.19-.03-.19-.02-.2-.02-.19-.03-.19-.02-.19-.02-.2-.03-.19-.02-.19-.03-.2-.02-.19-.02-.19-.03-.2-.02-.19-.03-.2-.02-.19-.03-.23-.21zm.23.21l-.19-.02-.04-.19.23.21zM5.73 63.83l-.05.52.29-.24-.03.51-.03.55-.01.56-.02.59-.01.6v1.9l.01.66.01.68.02.68.02.69.02.69.03.71.03.7.03.7.04.71.04.7.05.7.05.69.05.69.05.68.06.67.06.66.06.65.07.63.07.61.07.6.08.58.08.56.08.54.08.51-.52.09-.08-.52-.08-.55-.08-.56-.07-.58-.08-.6-.07-.62-.06-.64-.07-.65-.06-.66-.06-.68-.05-.68-.05-.69-.05-.7-.05-.7-.04-.7-.04-.71-.03-.71-.03-.7-.03-.71-.02-.69-.02-.7-.02-.68-.01-.68-.01-.66v-1.92l.01-.61.02-.58.01-.57.03-.55.03-.52.28-.25zm-.28.25l.01-.27.27.02-.28.25zM23.97 65.33l-.52-.04.25.28-.19-.01-.18-.01h-.19l-.19-.01-.18-.01-.19-.01-.19-.01-.18-.01-.19-.01h-.18l-.19-.01-.19-.01-.19-.01-.19-.01-.19-.01-.18-.01-.19-.01-.19-.01-.19-.01-.19-.01-.18-.01-.19-.01-.19-.01-.19-.01-.19-.01-.19-.01-.19-.01-.19-.01-.19-.01-.19-.01-.19-.02-.19-.01.04-.52.18.01.2.01.19.02.18.01.19.01.19.01.19.01.19.01.19.01.19.01.18.01.19.01.19.01.19.01.19.01.18.01.19.01.19.01.19.01.18.01.19.01.19.01h.18l.19.01.19.01.18.01.19.01.19.01h.18l.19.01.19.01.18.01.25.28zm-.25-.28l.27.01-.02.27-.25-.28zm1.21 21.51l.03-.52-.27.31-.11-.53-.1-.55-.1-.58-.09-.6-.1-.61-.08-.64-.08-.64-.08-.67-.07-.67-.08-.69-.06-.69-.06-.7-.06-.71-.05-.72-.05-.71-.04-.73-.04-.72-.03-.72-.03-.72-.03-.71-.02-.71-.01-.7-.01-.69-.01-.69v-.68l.01-.66.01-.64.02-.63.02-.62.02-.6.03-.58.04-.55.52.04-.04.55-.03.57-.02.59-.02.61-.02.63-.01.64-.01.66v.67l.01.68.01.69.01.7.02.71.03.71.03.71.03.72.04.72.04.71.05.72.05.71.06.7.06.7.07.69.06.68.08.68.07.65.09.64.08.63.09.61.09.59.1.57.1.55.11.53-.27.31zm.27-.31l.07.33-.34-.02.27-.31zm-6.6-.34l.51-.09-.23-.22.19.02.19.01.19.02.2.02.19.01.19.02.19.01.19.02.19.01.19.02.19.01.19.02.19.01.19.01.19.02.19.01.19.02.19.01.19.01.19.02.19.01.19.01.19.01.19.02.19.01.19.01.19.01.19.02.18.01.19.01.19.01.19.01-.03.52-.19-.01-.19-.01-.19-.01-.19-.01-.19-.02-.19-.01-.18-.01-.19-.01-.19-.01-.19-.02-.19-.01-.19-.01-.19-.02-.19-.01-.19-.01-.19-.02-.2-.01-.19-.01-.18-.02-.2-.01-.19-.02-.19-.01-.19-.02-.19-.01-.19-.02-.19-.01-.2-.02-.19-.01-.19-.02-.19-.01-.19-.02-.2-.02-.23-.21zm.23.21l-.2-.01-.03-.2.23.21zm-1.11-21.38l-.04.52.28-.24-.03.53-.02.57-.02.58-.01.6-.01.62V69.89l.01.69.02.69.01.7.03.71.02.72.03.72.04.72.03.72.04.73.05.71.05.72.05.71.06.69.06.7.06.68.06.66.07.65.07.64.07.61.08.6.08.58.08.55.08.53.09.5-.51.09-.09-.51-.08-.53-.09-.56-.08-.58-.07-.6-.08-.62-.07-.64-.07-.66-.06-.67-.07-.68-.05-.69-.06-.7-.05-.72-.05-.71-.05-.72-.04-.73-.03-.72-.04-.73-.03-.72-.03-.72-.02-.71-.02-.71-.01-.7-.01-.68v-1.98l.01-.63.01-.61.02-.58.02-.57.03-.54.28-.25zm-.28.25l.01-.26.27.01-.28.25zM35.67 65.57l-.52-.05.26.29h-1.13l-.19-.01H32.77l-.19-.01h-.94l-.19-.01h-.38l-.19-.01h-.38l-.19-.01h-.38l-.19-.01h-.38l.01-.53.19.01h.19l.19.01h.38l.19.01h.38l.19.01h.56l.19.01h.76l.19.01H34.09l.19.01h1.13l.26.28zm-.26-.28h.29l-.03.28-.26-.28zm.98 21.63v-.52l-.25.31-.1-.58-.1-.59-.09-.61-.09-.64-.09-.64-.08-.67-.07-.67-.07-.69-.07-.7-.07-.7-.05-.72-.06-.72-.05-.72-.04-.73-.04-.72-.04-.73-.03-.73-.03-.72-.02-.71-.01-.72-.01-.7-.01-.69V70.25l.01-.65.02-.64.02-.63.02-.6.03-.59.04-.56.04-.54.05-.52.52.05-.05.51-.04.53-.04.56-.03.58-.02.6-.02.62-.02.64-.01.65v1.34l.01.69.01.7.01.71.02.71.03.72.03.73.04.72.04.72.04.73.05.72.06.71.05.71.07.71.06.69.08.68.07.67.08.66.09.64.08.63.09.61.1.59.1.56-.26.31zm.26-.31l.06.31h-.32l.26-.31zm-6.52-.02l.51-.08-.25-.22.19.01h.19l.19.01.19.01h.18l.19.01h.19l.19.01h.37l.19.01h.19l.19.01h.38l.18.01h.19l.19.01h.75l.18.01h.75l.19.01h.74v.52h-.75l-.18-.01h-.94l-.19-.01h-.56l-.19-.01h-.38l-.18-.01h-.19l-.19-.01h-.38l-.18-.01h-.19l-.19-.01h-.19l-.19-.01h-.19l-.19-.01h-.19l-.19-.01-.19-.01-.24-.22zm.24.22h-.21l-.03-.22.24.22zm-1-21.59l-.01.53.26-.24-.03.5-.03.53-.03.56-.02.58-.01.61-.01.62-.01.65v.66l.01.67.01.69.01.7.01.71.03.71.02.73.03.73.04.73.03.73.04.73.05.73.05.72.05.72.05.71.06.7.07.69.06.68.07.66.07.64.07.63.08.6.08.59.09.56.08.53-.51.08-.09-.53-.09-.57-.08-.59-.07-.61-.08-.63-.07-.65-.07-.66-.06-.68-.07-.69-.06-.71-.05-.71-.05-.72-.05-.73-.05-.73-.04-.73-.03-.74-.04-.73-.03-.73-.02-.73L29 73l-.01-.71-.01-.7-.01-.7-.01-.67v-.67l.01-.64.01-.63.01-.61.02-.59.03-.56.03-.54.03-.51.27-.25zm-.27.25l.02-.25h.25l-.27.25zM73.5 62.45l-.52.09.3.21-.19.03-.19.03-.18.03-.19.03-.19.03-.18.03-.19.03-.18.03-.19.02-.19.03-.18.03-.19.03-.18.03-.19.02-.18.03-.19.03-.19.03-.18.02-.18.03-.19.03-.18.02-.19.03-.18.02-.19.03-.18.02-.18.03-.19.03-.18.02-.18.03-.19.02-.18.03-.19.02-.06-.52.18-.02.18-.03.18-.02.19-.03.18-.02.18-.03.19-.02.18-.03.19-.02.18-.03.18-.03.19-.02.18-.03.19-.03.18-.02.18-.03.19-.03.18-.02.19-.03.18-.03.19-.03.19-.02.18-.03.19-.03.18-.03.19-.03.18-.03.19-.03.19-.03.18-.02.19-.03.19-.03.3.21zm-.3-.21l.25-.04.05.25-.3-.21zm1.27 20.92l-.1-.52-.21.25.02-.54.02-.56.02-.59.01-.6V78.71l-.01-.66-.01-.67-.02-.68-.02-.69-.02-.69-.03-.7-.03-.7-.04-.71-.04-.7-.04-.7-.04-.7-.05-.69-.06-.69-.05-.68-.06-.67-.06-.66-.06-.65-.07-.63-.07-.61-.07-.6-.08-.59-.07-.56-.08-.53-.08-.52-.09-.49.52-.09.08.5.08.52.08.54.08.57.07.58.08.6.07.62.06.64.07.65.06.66.06.68.06.68.05.69.05.7.04.7.04.7.04.71.04.7.03.71.03.7.02.69.02.69.02.69.01.67.01.66V80.61l-.01.6-.02.59-.02.56-.02.55-.21.25zm.21-.25l-.01.21-.2.04.21-.25zm-6.57 1.06l.52.04-.3-.27.19-.04.18-.03.19-.03.19-.03.18-.03.19-.04.19-.03.19-.03.18-.03.19-.04.19-.03.19-.03.19-.04.19-.03.19-.03.18-.04.19-.03.19-.04.19-.03.19-.04.19-.03.19-.04.19-.03.19-.04.19-.03.19-.04.19-.03.19-.04.19-.04.19-.03.19-.04.19-.04.1.52-.19.03-.19.04-.19.04-.2.03-.18.04-.2.04-.19.03-.19.04-.19.03-.19.04-.19.03-.19.04-.19.03-.19.04-.19.03-.19.04-.18.03-.19.03-.19.04-.19.03-.19.03-.19.04-.18.03-.2.03-.18.04-.19.03-.19.03-.19.03-.18.03-.19.04-.19.03-.18.03-.31-.28zm.31.28l-.34.06.03-.34.31.28zM67.29 63.1l.06.52.23-.3.09.53.09.55.09.57.09.59.08.61.08.63.07.63.07.65.07.67.06.67.06.68.06.69.05.7.05.7.04.7.04.7.04.71.02.7.03.71.02.7.02.69.01.69v.68l.01.67-.01.66-.01.65-.01.64-.02.61-.03.61-.03.59-.04.57-.04.54-.52-.04.04-.54.04-.56.03-.59.03-.59.02-.62.01-.63.01-.64.01-.66-.01-.67v-.67l-.01-.69-.02-.69-.02-.69-.03-.7-.02-.71-.04-.7-.04-.7-.04-.7-.05-.7-.05-.69-.06-.68-.06-.68-.06-.67-.07-.66-.07-.65-.07-.63-.08-.62-.08-.61-.09-.58-.08-.57-.09-.55-.1-.52.23-.31zm-.23.31l-.05-.27.28-.04-.23.31zM61.12 64.1l-.51.1.28.21-.19.02-.18.02-.19.02-.19.02-.19.02-.18.02-.19.02-.18.02-.19.02-.19.02-.19.02-.18.01-.19.02-.18.02-.19.02-.19.02-.18.02-.19.01-.19.02-.18.02-.19.02-.18.01-.19.02-.18.02-.19.01-.18.02-.19.02-.19.01-.18.02-.18.01-.19.02-.19.01-.04-.52.19-.01.18-.02.19-.01.18-.02.18-.01.19-.02.18-.02.19-.01.18-.02.19-.02.19-.01.18-.02.19-.02.18-.02.19-.02.18-.01.19-.02.19-.02.18-.02.19-.02.18-.01.19-.02.18-.02.19-.02.19-.02.18-.02.19-.02.19-.02.18-.02.19-.02.19-.02.19-.02.28.21zm-.28-.21l.23-.02.05.23-.28-.21zm1.15 21.33l-.07-.52-.22.25.03-.57.02-.59.02-.61.01-.63.01-.65.01-.67v-.67l-.01-.69-.01-.7-.01-.71-.02-.71-.02-.72-.02-.72-.03-.73-.03-.72-.04-.73-.04-.71-.04-.72-.04-.7-.05-.71-.06-.68-.05-.68-.06-.66-.06-.65-.07-.63-.07-.61-.07-.59-.07-.57-.08-.55-.08-.52-.08-.49-.08-.46.51-.1.08.47.09.5.08.53.07.55.08.57.07.6.07.61.07.64.06.65.06.67.05.68.06.69.05.7.04.71.05.72.03.72.04.72.03.73.03.73.02.72.02.73.02.71.01.71.01.71.01.69v.68l-.01.66-.01.65-.01.64-.02.61-.02.6-.03.58-.23.24zm.23-.24l-.01.21-.22.03.23-.24zm-6.56.68l.52.04-.29-.28.19-.02.19-.02.19-.02.18-.02.19-.02.19-.02.19-.02.18-.02.19-.02.19-.02.19-.02.19-.02.18-.03.19-.02.19-.02.19-.02.19-.03.19-.02.18-.02.19-.02.19-.03.19-.02.19-.02.19-.03.19-.02.19-.03.19-.02.19-.03.18-.02.19-.03.2-.02.18-.03.07.52-.19.02-.19.03-.19.03-.19.02-.19.03-.19.02-.19.02-.19.03-.19.02-.19.03-.18.02-.19.02-.19.03-.19.02-.19.02-.19.03-.19.02-.19.02-.19.02-.18.02-.19.02-.19.03-.19.02-.19.02-.19.02-.18.02-.19.02-.19.02-.19.02-.19.02-.18.02-.19.02-.29-.28zm.29.28l-.31.03.02-.31.29.28zm-1.06-21.48l.04.52.24-.31.09.51.09.53.1.56.08.58.08.59.08.62.07.63.07.65.07.66.06.67.06.68.06.7.05.7.04.71.05.72.03.72.04.72.03.72.02.72.02.72.01.71.01.71v2.09l-.01.67-.02.67-.02.65-.03.63-.03.61-.04.6-.05.58-.52-.04.05-.57.04-.6.03-.61.03-.62.02-.65.02-.66.01-.67V79.21l-.01-.71-.01-.71-.02-.72-.03-.71-.02-.72-.04-.72-.04-.71-.04-.71-.04-.71-.05-.7-.06-.69-.06-.68-.06-.67-.06-.66-.07-.64-.08-.63-.08-.61-.08-.59-.08-.57-.09-.55-.09-.53-.09-.49.23-.32zm-.23.32l-.06-.29.29-.03-.23.32zM49.06 65.15h-.52l.28.26-.2.02-.2.01-.2.01-.2.01-.2.01-.2.01-.2.01-.2.01-.2.01-.2.01-.2.01-.2.01-.19.01-.2.01-.2.01-.2.01h-.2l-.2.01-.2.01-.2.01-.2.01-.2.01h-.2l-.2.01-.2.01h-.19l-.2.01-.2.01h-.2l-.2.01-.2.01h-.2l-.02-.52h.2l.2-.01.2-.01h.2l.2-.01.2-.01h.2l.19-.01.2-.01.2-.01h.2l.2-.01.2-.01.19-.01.21-.01h.2l.19-.01.2-.01.2-.01.2-.01.2-.01.2-.01.2-.01.2-.01.19-.01.2-.01.2-.01.2-.01.2-.01.2-.01.2-.02.2-.01.27.26zm-.27-.26l.27-.01v.27l-.27-.26zm-.25 21.39V65.15h.52v21.13l-.24.26-.28-.26zm.52 0v.24l-.24.02.24-.26zm-6.89.3h.52l-.27-.26.2-.01h.2l.2-.01.2-.01h.2l.2-.01.2-.01.19-.01h.2l.2-.01.2-.01.2-.01.2-.01h.2l.19-.01.2-.01.2-.01.2-.01.2-.01.2-.01.2-.01.2-.01.2-.01.19-.01.2-.02.2-.01.2-.01.2-.01.2-.01.2-.02.2-.01.2-.01.03.52-.2.01-.2.01-.2.02-.2.01-.2.01-.2.01-.2.01-.2.02-.2.01-.2.01-.2.01-.19.01-.2.01-.2.01-.2.01-.2.01-.2.01-.2.01h-.2l-.2.01-.2.01-.2.01-.2.01-.2.01h-.2l-.19.01-.2.01h-.2l-.2.01-.2.01h-.2l-.2.01-.27-.26zm.27.26l-.27.01v-.27l.27.26zm.25-21.41v21.15h-.52V65.43l.25-.26.27.26zm-.52 0v-.25l.25-.01-.25.26z"/><path fill="#BDD180" d="M146.63 9.7c2.48.94 3.75 3.75 2.81 6.23l-9.35 24.72 15.19-23.25c1.45-2.22 4.46-2.86 6.69-1.4 2.23 1.45 2.86 4.46 1.4 6.69l-13.32 20.4 17.09-18.07c1.83-1.93 4.9-2.02 6.84-.19 1.93 1.83 2.01 4.9.19 6.84l-17.72 18.71 16.36-12.48c1.93-1.47 4.7-1.1 6.17.82 1.47 1.93 1.1 4.7-.83 6.17l-21.37 16.32c-10.07 7.69-18.25 20.81-24.2 23.11-3.55 1.23-15.91-3.68-19.85-10.39-4.41-7.49 7.63-24.95 3.83-33.98-2.86-7.06-8.96-11.48-6.17-14.65 11.98-8.53 17.72 19.68 19.55 14.85l10.45-27.64c.94-2.48 3.75-3.75 6.24-2.81z"/><path fill="#2B2A29" fill-rule="nonzero" d="M146.63 9.7l.09-.24-.09.24zm3.05 6.33l-.49-.19.08-.22.07-.22.05-.23.04-.22.03-.23.02-.22.01-.22v-.23l-.02-.22-.03-.22-.03-.22-.05-.21-.05-.21-.07-.22-.07-.2-.09-.2-.1-.2-.1-.2-.11-.18-.13-.19-.13-.17-.14-.18-.15-.16-.15-.16-.17-.15-.17-.14-.18-.14-.19-.12-.19-.12-.21-.11-.21-.1-.22-.08.19-.49.24.1.23.11.23.12.22.13.21.14.2.15.19.16.19.17.17.17.17.18.15.2.15.19.14.21.12.2.12.22.11.22.09.23.09.23.07.23.06.24.05.24.04.24.03.25.02.24v.25l-.01.25-.02.25-.03.25-.05.25-.06.25-.07.25-.09.25zm-9.84 24.53l9.35-24.72.49.19-9.35 24.71-.02.05-.47-.23zm.47.23L139 42.8l.84-2.24.47.23zm15.19-23.25l-15.19 23.25-.44-.28 15.19-23.25.44.28zm6.61-1.76l-.28.44-.2-.13-.21-.11-.2-.1-.21-.09-.22-.08-.21-.06-.22-.06-.22-.04-.22-.04-.22-.02-.22-.01h-.22l-.22.01-.22.02-.22.02-.21.04-.22.06-.21.06-.21.07-.2.08-.2.09-.2.1-.19.11-.19.12-.18.12-.18.14-.17.15-.16.16-.16.16-.15.18-.14.18-.13.19-.44-.28.15-.22.16-.2.16-.2.18-.18.18-.18.19-.16.2-.15.2-.15.21-.13.21-.12.22-.11.23-.1.23-.1.23-.07.23-.07.24-.06.24-.04.24-.03.25-.02.24-.01h.25l.25.01.24.03.25.03.24.05.24.07.24.07.24.09.23.1.23.11.23.12.22.14zm-.14.22l.14-.22-.14.22zm1.62 6.83l-.43-.28.12-.2.11-.21.1-.2.09-.21.08-.22.06-.21.06-.22.05-.22.03-.22.02-.22.01-.22.01-.22-.01-.22-.02-.22-.03-.22-.04-.21-.05-.22-.06-.21-.07-.21-.08-.2-.09-.2-.1-.2-.11-.19-.12-.19-.13-.18-.14-.18-.15-.17-.15-.16-.17-.16-.18-.15-.18-.14-.19-.13.28-.44.22.15.2.16.2.16.18.18.18.18.16.19.16.2.14.2.13.21.13.21.11.22.1.23.09.23.08.23.06.23.06.24.04.24.03.24.03.25.01.24-.01.25-.01.25-.03.24-.03.25-.05.24-.06.24-.08.24-.09.24-.09.23-.12.23-.12.23-.14.22zm-13.76 20.11l13.33-20.39.43.28-13.32 20.4-.03.03-.41-.32zm.41.32l-2 2.11 1.59-2.43.41.32zm17.09-18.06l-17.09 18.06-.38-.35 17.09-18.07.38.36zm6.82-.56l-.35.38-.18-.16-.18-.14-.18-.14-.2-.12-.19-.12-.2-.1-.2-.09-.21-.09-.21-.07-.21-.06-.22-.05-.21-.04-.22-.04-.22-.01-.22-.01h-.22l-.22.01-.22.02-.22.03-.22.04-.21.06-.21.06-.21.07-.2.09-.21.09-.2.11-.19.11-.19.13-.18.13-.18.15-.17.16-.17.16-.38-.36.19-.18.19-.18.2-.16.2-.15.21-.14.22-.13.22-.11.22-.11.23-.09.24-.08.23-.07.24-.06.24-.05.25-.04.24-.02.24-.01h.25l.24.01.25.02.24.03.24.05.24.05.24.07.23.08.23.1.23.1.22.12.22.12.21.14.21.15.2.17.19.17zm-.17.19l.17-.19-.17.19zm.37 7.01l-.37-.35.15-.18.15-.18.13-.18.13-.2.12-.19.1-.2.09-.21.09-.2.07-.21.06-.21.05-.22.04-.21.03-.22.02-.22.01-.22v-.22l-.01-.22-.02-.22-.03-.22-.05-.22-.05-.21-.06-.21-.08-.21-.08-.21-.1-.2-.1-.2-.11-.19-.13-.19-.13-.18-.15-.18-.16-.17-.16-.17.35-.38.19.19.17.19.17.2.15.2.14.21.13.22.11.22.11.22.09.23.08.24.07.23.06.24.05.24.03.25.03.24.01.24v.25l-.01.24-.02.25-.04.24-.04.24-.06.24-.06.24-.09.23-.09.23-.1.23-.12.22-.13.22-.14.21-.15.21-.16.2-.18.19zm-18.09 18.37l17.72-18.72.37.35-17.71 18.72-.03.03-.35-.38zm.35.38l-2.56 1.96 2.21-2.34.35.38zm16.36-12.49l-16.36 12.49-.31-.41 16.36-12.49.31.41zm6.22.46l-.42.32-.13-.17-.14-.15-.15-.15-.15-.14-.16-.13-.16-.12-.17-.11-.17-.11-.18-.09-.18-.09-.18-.08-.19-.06-.19-.06-.19-.05-.2-.04-.2-.04-.19-.02-.2-.01h-.2l-.2.01-.2.01-.2.03-.2.03-.19.05-.2.05-.19.07-.19.07-.19.08-.18.1-.18.1-.18.12-.17.12-.31-.41.19-.14.2-.13.2-.12.21-.11.21-.09.21-.08.22-.08.22-.06.22-.05.22-.04.22-.03.23-.01.22-.01h.23l.22.01.22.03.22.03.22.05.22.05.21.07.22.08.21.08.2.1.2.11.19.12.19.12.19.14.17.15.18.16.16.16.16.18.15.18zm-.21.16l.21-.16-.21.16zm-.67 6.38l-.31-.42.16-.13.16-.14.15-.15.14-.15.13-.16.12-.16.11-.17.1-.17.1-.18.09-.18.07-.18.07-.19.06-.19.05-.2.04-.19.03-.2.02-.2.02-.2v-.19l-.01-.2-.01-.2-.03-.2-.04-.2-.04-.19-.06-.2-.06-.19-.07-.19-.09-.19-.09-.18-.11-.18-.11-.18-.13-.17.42-.32.14.2.13.2.11.2.11.2.1.22.08.21.07.22.06.22.05.22.05.22.02.22.02.23.01.22v.23l-.02.22-.02.22-.04.22-.04.22-.06.22-.07.21-.07.21-.09.21-.1.21-.1.2-.12.19-.13.19-.13.18-.15.18-.16.17-.17.17-.17.16-.19.15zM156.62 61L178 44.68l.31.42-21.37 16.31-.32-.41zm-23.95 23.56l-.17-.49h-.01l.54-.23.56-.3.58-.36.59-.41.61-.46.62-.52.64-.56.64-.6.67-.64.67-.69.69-.71.7-.75.72-.77.73-.8.74-.82.75-.84.76-.86.78-.87.79-.88.8-.88.82-.9.82-.89.84-.89.85-.88.86-.88.87-.87.89-.85.9-.84.91-.82.92-.79.93-.77.94-.74.32.41-.93.73-.93.77-.91.78-.9.81-.89.84-.88.84-.87.87-.86.87-.84.88-.84.89-.82.89-.81.89-.8.88-.79.88-.78.87-.76.86-.75.84-.75.82-.72.8-.72.78-.71.75-.69.72-.68.69-.67.65-.66.61-.65.57-.64.52-.62.48-.61.43-.61.37-.59.32-.58.25h-.01zm.01 0h-.01l.04-.01-.03.01zm-20.18-10.5l.45-.26.39.61.43.6.47.59.52.57.55.57.58.55.62.54.64.52.67.51.69.48.71.48.72.45.74.43.74.41.74.39.75.37.75.34.74.32.74.3.73.27.71.24.69.22.67.18.65.16.63.13.59.1.55.07.52.04.48.01.43-.03.38-.06.33-.09.17.49-.39.11-.44.07-.47.03-.51-.01-.55-.04-.58-.07-.61-.1-.64-.14-.67-.16-.69-.19-.71-.22-.72-.25-.74-.28-.75-.3-.75-.32-.76-.35-.76-.38-.76-.39-.75-.42-.75-.44-.73-.46-.72-.48-.71-.49-.68-.52-.65-.53-.63-.55-.61-.57-.57-.58-.52-.6-.5-.61-.45-.62-.4-.64zm3.82-34.01l.48-.2.32.9.23.94.14.98.07 1.02v1.05l-.06 1.08-.13 1.11-.17 1.13-.22 1.15-.26 1.18-.3 1.18-.32 1.2-.34 1.2-.36 1.21-.36 1.21-.38 1.21-.37 1.2-.36 1.19-.35 1.18-.33 1.17-.3 1.14-.27 1.13-.23 1.1-.19 1.06-.15 1.03-.08 1-.03.96.04.91.11.86.19.81.26.76.35.7-.45.26-.38-.76-.29-.81-.19-.87-.12-.91-.04-.95.03-.99.09-1.02.14-1.06.2-1.09.23-1.11.28-1.13.3-1.16.33-1.17.35-1.19.36-1.19.37-1.21.38-1.2.36-1.21.36-1.21.34-1.19.32-1.19.29-1.17.26-1.16.22-1.14.17-1.11.12-1.08.06-1.06v-1.01l-.06-.98-.14-.94-.22-.89-.3-.85zm0 0l-.01-.02.01.02zm-6.08-14.96l.3.43.04-.05-.21.28-.17.28-.13.29-.08.29-.04.3-.01.31.03.32.06.34.1.35.12.36.16.37.19.39.21.4.23.41.26.43.28.44.29.44.31.47.32.47.33.49.34.5.35.52.35.53.35.54.35.56.34.57.34.58.34.6.32.61.31.63.3.65.28.66-.48.2-.28-.65-.29-.63-.3-.62-.32-.6-.33-.59-.34-.58-.34-.56-.34-.55-.35-.54-.35-.52-.34-.52-.34-.5-.33-.48-.33-.48-.31-.47-.29-.45-.28-.45-.27-.43-.24-.43-.22-.41-.2-.41-.16-.41-.14-.39-.11-.38-.07-.39-.03-.37v-.38l.06-.36.1-.36.15-.35.21-.33.25-.33.05-.04zm-.05.04l.02-.02.03-.02-.05.04zm19.51 14.93l.48.18-.21.42-.32.26-.4.02-.35-.19-.31-.33-.32-.44-.34-.54-.36-.65-.38-.74-.41-.81-.44-.87-.46-.93-.49-.97-.52-.99-.55-1-.57-1.01-.61-1-.63-.97-.66-.93-.69-.88-.72-.82-.75-.74-.78-.65-.81-.56-.83-.43-.86-.32-.89-.18-.92-.04-.95.12-1 .29-1.03.48-1.08.68-.3-.43 1.13-.71 1.1-.51 1.07-.31 1.04-.13 1.01.04.96.2.93.34.89.47.85.58.82.68.77.77.75.84.7.91.68.95.64.99.61 1 .59 1.02.55 1.02.52.99.49.98.47.92.43.88.41.81.38.72.35.63.32.53.29.39.24.25.16.1h.06l.1-.08.15-.3zm10.94-27.45l-10.46 27.63-.48-.18 10.45-27.64.49.19zm6.08-3.15l-.19.49-.22-.08-.22-.07-.22-.05-.23-.04-.22-.03-.23-.02-.22-.01-.22.01-.22.01-.22.03-.22.03-.22.05-.21.05-.21.07-.21.07-.2.09-.2.1-.19.1-.19.12-.19.12-.17.13-.17.14-.17.15-.16.15-.15.17-.14.17-.13.18-.13.19-.12.2-.11.2-.1.21-.08.22-.49-.19.1-.24.11-.23.12-.23.13-.22.14-.21.15-.2.16-.19.17-.19.17-.17.18-.17.2-.15.19-.15.21-.14.21-.12.21-.12.22-.11.23-.09.23-.09.23-.07.24-.06.24-.05.24-.04.25-.03.24-.01.25-.01.25.01.25.02.26.04.25.04.24.06.25.07.25.09z"/><path fill="#99CFBA" d="M146.63 9.7c2.48.94 3.75 3.75 2.81 6.23l-2.71 7.17-9.29-2.79 2.95-7.8c.94-2.48 3.75-3.75 6.24-2.81zm4.04 14.75l4.61-7.05c1.45-2.22 4.46-2.86 6.69-1.4 2.23 1.45 2.86 4.46 1.4 6.69l-4.79 7.34-7.91-5.58zm9.96 7.45l6.51-6.88c1.83-1.93 4.9-2.02 6.84-.19 1.93 1.83 2.01 4.9.19 6.84l-6.52 6.88-7.02-6.65zm8.29 8.97l3.89-2.97c1.93-1.47 4.7-1.1 6.17.82 1.47 1.93 1.1 4.7-.83 6.17l-6.46 4.93-2.77-8.95zm-52.97-2.29c-3.02-6.27-8.16-10.32-5.56-13.28 6.64-4.73 11.37 1.84 14.57 7.8l-9.01 5.48z"/><path fill="#2B2A29" fill-rule="nonzero" d="M146.63 9.7l.09-.24-.09.24zm3.05 6.33l-.49-.19.08-.22.07-.22.05-.23.04-.22.03-.23.02-.22.01-.22v-.23l-.02-.22-.03-.22-.03-.22-.05-.21-.05-.21-.07-.22-.07-.2-.09-.2-.1-.2-.1-.2-.11-.18-.13-.19-.13-.17-.14-.18-.15-.16-.15-.16-.17-.15-.17-.14-.18-.14-.19-.12-.19-.12-.21-.11-.21-.1-.22-.08.19-.49.24.1.23.11.23.12.22.13.21.14.2.15.19.16.19.17.17.17.17.18.15.2.15.19.14.21.12.2.12.22.11.22.09.23.09.23.07.23.06.24.05.24.04.24.03.25.02.24v.25l-.01.25-.02.25-.03.25-.05.25-.06.25-.07.25-.09.25zm-3.2 6.97l2.71-7.16.49.19-2.71 7.16-.32.16-.17-.35zm.49.19l-.08.23-.24-.07.32-.16zm-9.45-3.12l9.28 2.78-.15.5-9.28-2.79-.17-.34.32-.15zm-.15.49l-.27-.08.1-.26.17.34zm3.27-7.95l-2.95 7.8-.49-.19 2.95-7.8.49.19zm6.08-3.15l-.19.49-.22-.08-.22-.07-.22-.05-.23-.04-.22-.03-.23-.02-.22-.01-.22.01-.22.01-.22.03-.22.03-.22.05-.21.05-.21.07-.21.07-.2.09-.2.1-.19.1-.19.12-.19.12-.17.13-.17.14-.17.15-.16.15-.15.17-.14.17-.13.18-.13.19-.12.2-.11.2-.1.21-.08.22-.49-.19.1-.24.11-.23.12-.23.13-.22.14-.21.15-.2.16-.19.17-.19.17-.17.18-.17.2-.15.19-.15.21-.14.21-.12.21-.12.22-.11.23-.09.23-.09.23-.07.24-.06.24-.05.24-.04.25-.03.24-.01.25-.01.25.01.25.02.26.04.25.04.24.06.25.07.25.09zm8.78 8.08l-4.61 7.05-.43-.28 4.6-7.05.44.28zm6.61-1.76l-.28.44-.2-.13-.21-.11-.2-.1-.21-.09-.22-.08-.21-.06-.22-.06-.22-.04-.22-.04-.22-.02-.22-.01h-.22l-.22.01-.22.02-.22.02-.21.04-.22.06-.21.06-.21.07-.2.08-.2.09-.2.1-.19.11-.19.12-.18.12-.18.14-.17.15-.16.16-.16.16-.15.18-.14.18-.13.19-.44-.28.15-.22.16-.2.16-.2.18-.18.18-.18.19-.16.2-.15.2-.15.21-.13.21-.12.22-.11.23-.1.23-.1.23-.07.23-.07.24-.06.24-.04.24-.03.25-.02.24-.01h.25l.25.01.24.03.25.03.24.05.24.07.24.07.24.09.23.1.23.11.23.12.22.14zm-.14.22l.14-.22-.14.22zm1.62 6.83l-.43-.28.12-.2.11-.21.1-.2.09-.21.08-.22.06-.21.06-.22.05-.22.03-.22.02-.22.01-.22.01-.22-.01-.22-.02-.22-.03-.22-.04-.21-.05-.22-.06-.21-.07-.21-.08-.2-.09-.2-.1-.2-.11-.19-.12-.19-.13-.18-.14-.18-.15-.17-.15-.16-.17-.16-.18-.15-.18-.14-.19-.13.28-.44.22.15.2.16.2.16.18.18.18.18.16.19.16.2.14.2.13.21.13.21.11.22.1.23.09.23.08.23.06.23.06.24.04.24.03.24.03.25.01.24-.01.25-.01.25-.03.24-.03.25-.05.24-.06.24-.08.24-.09.24-.09.23-.12.23-.12.23-.14.22zm-5.23 7.06l4.8-7.34.43.28-4.79 7.34-.37.07-.07-.35zm.44.28l-.15.23-.22-.16.37-.07zm-7.98-5.94l7.91 5.59-.3.42-7.91-5.58-.06-.35.36-.08zm-.3.43l-.2-.14.14-.21.06.35zm16.81.54l-6.51 6.88-.38-.36 6.51-6.88.38.36zm6.82-.56l-.35.38-.18-.16-.18-.14-.18-.14-.2-.12-.19-.12-.2-.1-.2-.09-.21-.09-.21-.07-.21-.06-.22-.05-.21-.04-.22-.04-.22-.01-.22-.01h-.22l-.22.01-.22.02-.22.03-.22.04-.21.06-.21.06-.21.07-.2.09-.21.09-.2.11-.19.11-.19.13-.18.13-.18.15-.17.16-.17.16-.38-.36.19-.18.19-.18.2-.16.2-.15.21-.14.22-.13.22-.11.22-.11.23-.09.24-.08.23-.07.24-.06.24-.05.25-.04.24-.02.24-.01h.25l.24.01.25.02.24.03.24.05.24.05.24.07.23.08.23.1.23.1.22.12.22.12.21.14.21.15.2.17.19.17zm-.17.19l.17-.19-.17.19zm.37 7.01l-.37-.35.15-.18.15-.18.13-.18.13-.2.12-.19.1-.2.09-.21.09-.2.07-.21.06-.21.05-.22.04-.21.03-.22.02-.22.01-.22v-.22l-.01-.22-.02-.22-.03-.22-.05-.22-.05-.21-.06-.21-.08-.21-.08-.21-.1-.2-.1-.2-.11-.19-.13-.19-.13-.18-.15-.18-.16-.17-.16-.17.35-.38.19.19.17.19.17.2.15.2.14.21.13.22.11.22.11.22.09.23.08.24.07.23.06.24.05.24.03.25.03.24.01.24v.25l-.01.24-.02.25-.04.24-.04.24-.06.24-.06.24-.09.23-.09.23-.1.23-.12.22-.13.22-.14.21-.15.21-.16.2-.18.19zm-6.89 6.53l6.52-6.88.37.35-6.51 6.89-.36.01-.02-.37zm.38.36l-.18.19-.18-.18.36-.01zm-7.03-7.02l7.02 6.65-.35.38-7.03-6.65-.01-.37.37-.01zm-.36.38l-.19-.18.18-.19.01.37zm12.52 6.01l-3.89 2.98-.32-.42 3.9-2.97.31.41zm6.22.46l-.42.32-.13-.17-.14-.15-.15-.15-.15-.14-.16-.13-.16-.12-.17-.11-.17-.11-.18-.09-.18-.09-.18-.08-.19-.06-.19-.06-.19-.05-.2-.04-.2-.04-.19-.02-.2-.01h-.2l-.2.01-.2.01-.2.03-.2.03-.19.05-.2.05-.19.07-.19.07-.19.08-.18.1-.18.1-.18.12-.17.12-.31-.41.19-.14.2-.13.2-.12.21-.11.21-.09.21-.08.22-.08.22-.06.22-.05.22-.04.22-.03.23-.01.22-.01h.23l.22.01.22.03.22.03.22.05.22.05.21.07.22.08.21.08.2.1.2.11.19.12.19.12.19.14.17.15.18.16.16.16.16.18.15.18zm-.21.16l.21-.16-.21.16zm-.67 6.38l-.31-.42.16-.13.16-.14.15-.15.14-.15.13-.16.12-.16.11-.17.1-.17.1-.18.09-.18.07-.18.07-.19.06-.19.05-.2.04-.19.03-.2.02-.2.02-.2v-.19l-.01-.2-.02-.2-.02-.2-.04-.2-.04-.19-.06-.2-.06-.19-.07-.19-.09-.19-.09-.18-.11-.18-.11-.18-.13-.17.42-.32.14.2.13.2.11.2.11.2.1.22.08.21.07.22.06.22.05.22.05.22.02.22.02.23.01.22v.23l-.02.22-.02.22-.04.22-.04.22-.06.22-.07.21-.07.21-.09.21-.1.21-.1.2-.12.19-.13.19-.13.18-.15.18-.16.17-.17.17-.17.16-.19.15zm-6.78 4.52l6.47-4.94.31.42-6.46 4.93-.41-.13.09-.28zm.32.41l-.3.23-.11-.36.41.13zm-2.68-9.24l2.77 8.96-.5.15-2.77-8.96.09-.28.41.13zm-.5.15l-.06-.17.15-.11-.09.28zm-58.43-15.85l.3.43.04-.04-.2.25-.16.26-.13.27-.08.27-.05.28-.02.28.01.3.04.31.07.32.1.33.13.34.15.35.18.36.2.38.22.38.24.4.26.41.27.42.28.43.3.44.31.45.31.46.32.47.33.49.32.5.33.51.33.52.32.54.32.55.31.56.3.57.29.59-.47.22-.28-.57-.3-.57-.31-.55-.31-.54-.32-.53-.32-.51-.33-.51-.32-.49-.32-.48-.32-.48-.32-.46-.3-.45-.3-.44-.29-.44-.27-.42-.26-.41-.25-.41-.22-.4-.21-.39-.19-.38-.16-.38-.14-.37-.11-.36-.08-.36-.05-.35-.01-.35.02-.35.06-.34.11-.33.15-.32.19-.32.24-.3.05-.04zm-.05.04l.02-.02.03-.02-.05.04zm14.9 8.19l-.27-.44-.09.35-.3-.56-.32-.56-.32-.56-.33-.56-.34-.54-.35-.54-.35-.54-.37-.52-.37-.5-.39-.49-.39-.47-.4-.45-.41-.42-.42-.4-.43-.38-.43-.34-.45-.31-.45-.28-.46-.24-.47-.21-.48-.17-.49-.12-.5-.08-.5-.04h-.52l-.53.06-.54.11-.55.16-.56.22-.58.28-.59.33-.6.41-.3-.43.63-.42.62-.36.61-.29.6-.23.6-.18.58-.11.58-.07h.56l.56.04.54.09.53.14.52.18.5.22.5.25.48.3.47.33.46.36.44.39.44.42.42.44.42.46.4.48.39.5.39.52.37.53.36.54.35.55.35.55.33.57.33.56.31.57.31.56-.1.34zm.1-.34l.12.22-.22.12.1-.34zm-9.38 5.38l9.01-5.48.27.44-9.01 5.48-.37-.11.1-.33zm.27.44l-.24.15-.13-.26.37.11z"/><path fill="#99CFBA" d="M112.5 73.5c-3.33-5.89-9.03 2.23-6.51 7.82 7.48 9.2 15.78 11.64 22.56 12.87 3.4.18 6.41-7 4.03-9.87-3.55 1.23-15.91-3.68-19.85-10.39-.09-.14-.16-.28-.23-.43z"/><path fill="#2B2A29" fill-rule="nonzero" d="M106.19 81.16l-.4.33-.04-.06-.22-.55-.17-.57-.13-.57-.08-.57-.04-.58v-.58l.03-.57.08-.57.1-.55.14-.55.17-.53.19-.5.22-.49.25-.46.27-.44.28-.4.31-.38.33-.33.34-.3.35-.25.37-.2.39-.16.39-.1.4-.04.4.03.41.09.39.16.39.24.38.3.36.38.35.46.33.53-.46.25-.3-.49-.32-.41-.32-.34-.32-.26-.32-.19-.32-.13-.32-.08-.32-.02-.32.04-.32.08-.32.13-.32.17-.31.23-.31.26-.29.3-.28.34-.27.38-.25.41-.23.43-.21.46-.18.48-.16.49-.13.52-.1.52-.07.54-.03.54v.54l.04.54.08.54.11.53.16.52.21.51-.04-.05zm-.4.33l-.03-.04-.01-.02.04.06zm22.78 12.44l-.03.52h-.04l-.64-.12-.65-.13-.66-.14-.67-.15-.67-.15-.68-.18-.69-.18-.7-.2-.7-.21-.7-.23-.71-.25-.72-.27-.72-.28-.72-.31-.73-.32-.72-.36-.73-.37-.74-.4-.73-.42-.73-.45-.74-.48-.73-.5-.74-.54-.73-.57-.73-.6-.73-.63-.72-.66-.73-.7-.72-.74-.71-.77-.72-.81-.7-.84.4-.33.7.84.7.79.71.76.71.73.72.69.71.65.72.62.72.59.72.56.72.53.72.5.73.47.72.44.72.42.72.39.72.37.72.34.71.33.71.29.71.29.7.26.7.24.7.23.69.21.69.2.68.18.67.17.67.15.66.15.65.14.65.12.64.12h-.03zm-.03.52h-.04.04zm4.13-9.89l-.17-.49.28.08.23.3.19.34.16.34.12.37.1.38.06.4.04.4.01.42-.01.42-.04.42-.06.43-.08.44-.1.43-.12.42-.14.42-.17.42-.17.4-.2.4-.21.38-.23.36-.23.35-.26.33-.26.31-.28.29-.29.25-.3.23-.31.21-.32.16-.34.13-.33.09-.35.06h-.35l.03-.52h.28l.28-.04.28-.08.28-.11.28-.15.27-.17.27-.21.26-.23.25-.26.25-.29.23-.3.23-.33.21-.34.2-.36.18-.38.17-.38.15-.39.14-.41.12-.4.09-.4.08-.41.06-.4.03-.4.01-.39-.01-.39-.03-.37-.06-.35-.09-.34-.11-.32-.14-.31-.16-.28-.19-.26.29.08zm-.17-.49l.17-.06.11.14-.28-.08zm-20-10.01l.45-.27v.01l.39.61.43.6.47.59.52.57.55.57.58.55.62.54.64.52.67.51.69.48.71.48.72.45.74.43.74.41.74.39.75.37.75.34.74.32.74.3.73.27.71.24.69.22.67.18.65.16.63.13.59.1.55.07.52.04.48.01.43-.03.38-.06.33-.09.17.49-.39.11-.44.07-.47.03-.51-.01-.55-.04-.58-.07-.61-.1-.64-.14-.67-.16-.69-.19-.71-.22-.72-.25-.74-.28-.75-.3-.75-.32-.76-.35-.76-.38-.76-.39-.75-.42-.75-.44-.73-.46-.72-.48-.71-.49-.68-.52-.65-.53-.63-.55-.61-.57-.57-.58-.52-.6-.5-.61-.45-.62-.4-.64zm.45-.27v.01l-.06-.1.06.09zm-.68-.16l.46-.25v.01l.01.02.01.01.01.03.01.01.01.02.01.02v.01l.01.01v.01l.01.02.01.02.01.01.01.02.01.02v.01l.02.02v.01l.01.01v.01l.01.02.01.02.01.01v.01l.01.01.01.01.01.03h.01l-.45.27-.01-.01v-.01l-.01-.01-.01-.02-.01-.02-.01-.02-.01-.01v-.01l-.01-.01v-.01l-.02-.02v-.02h-.01l-.01-.03-.01-.01v-.01l-.01-.02-.02-.03v-.01h-.01v-.02l-.01-.02-.01-.02-.01-.01-.01-.03-.01-.01-.01-.03-.01-.01-.01-.01.01.01zm.46-.25v.01-.01z"/></svg>