<svg xmlns="http://www.w3.org/2000/svg" width="52" height="56" fill-rule="evenodd" clip-rule="evenodd" image-rendering="optimizeQuality" shape-rendering="geometricPrecision" text-rendering="geometricPrecision" viewBox="0 0 2.89 3.14"><path fill="#6FA691" fill-rule="nonzero" d="M2.5 3.07c.17-.02.22-.03.37-.07l.01-.01v-.01c-.12-.53-.08-1.15-.12-1.66-.01-.02-.01-.05-.01-.07V1.2l-.03.05L2.56.13l.01-.01V.11C2.56.09 2.54.07 2.53.05 2.52.04 2.52.03 2.51.02c-.02-.02-.02 0-.05.01C2.14.16.58.05.42.04.36.1.34.16.29.26L.28.27C.65.33.1 1.51.25 1.36c-.03-.01-.06-.02-.08-.04L.15 1.3v.03c-.01.03-.01.06-.01.08v.08c-.01.29-.04.6-.07.9-.02.21-.04.41-.06.59v.01h.01c.19.04.33.04.46.04.09 0 .38.01.47.03h.01l.01-.01.4-1.49.08.01.53 1.55.01.01H2c.18-.01.34-.03.5-.06z"/><path fill="#2B2A29" fill-rule="nonzero" d="M2.87 3.01h-.03l-.01.01h-.02l-.01.01h-.02l-.02.01h-.03l-.01.01h-.04l-.01.01h-.04l-.01.01h-.04l-.02.01h-.04l-.01.01-.01-.03h.05l.01-.01h.05l.01-.01h.04l.01-.01h.04l.01-.01h.03l.01-.01h.03L2.8 3h.03l.01-.01h.01l.01-.01.01.03zm.01-.03l.01.01-.01.01-.01.01-.01-.03h.02zm.01.01V3h-.01l.01-.01zm-.02-.01h.02v.01h-.02v-.01zm.02 0zm-.12-1.66v.1l.01.05v.1l.01.05v.26l.01.05v.27l.01.05v.16l.01.05v.05l.01.06v.05l.01.05v.05l.01.05.01.05.01.06.01.05.01.05h-.02l-.01-.05-.01-.05-.01-.05-.01-.05-.01-.06v-.05l-.01-.05v-.05l-.01-.06v-.05l-.01-.05V2.3l-.01-.05v-.27l-.01-.05v-.26l-.01-.05V1.47l-.01-.05v-.09l.02-.01zm0 0zm-.01-.07v.05h.01v.02l-.02.01v-.01h-.01v-.07h.02zm0 0zm-.03-.04l.01-.01h.02v.05h-.02l-.01-.04zm.01-.01l.01-.03.01.03h-.02zm-.01.05l-.02-.01.03-.04.01.01-.02.04zm-.02 0v-.01.01-.01.01-.01h.01-.01l.02.01v.01-.01.01-.01.01l-.02-.01zm0 0zm.02 0h-.02v-.01.01-.01.01-.01.01-.01.01-.01.01l.02.01v-.01.01-.01.01-.01.01l-.02-.01h.02zm0 .01l-.01.03-.01-.04.02.01zM2.55.13V.12l.02.01.16 1.12h-.02L2.55.13zm0 0V.12v.01zm.02-.02l.01.01v.01l-.02.01-.01-.02.02-.01zm.01.01l.01.01h-.01V.12zM2.56.11L2.58.1v.02l-.02.01V.11zM2.58.1zM2.54.04v.01h.01v.01l.01.01v.01h.01V.1h.01l-.02.01h-.01V.09h-.01V.07h-.01V.06h-.01l.02-.02zm0 0l.01.02-.01-.02zM2.52.01v.01h.01v.01l.01.01-.02.02V.05L2.51.04V.03H2.5l.02-.02zM2.5.03zM2.46.02h.01V.01h.01V0h.03v.01h.01L2.5.03V.02h-.01v.01h-.01l-.01.01h-.01V.02zM.41.03H.5l.04.01H.7l.06.01h.07L.9.06H1.05l.08.01h.25l.08.01H2.03L2.1.07h.07l.06-.01h.06l.05-.01.04-.01.04-.01.04-.01v.02l-.03.01-.04.01-.05.01-.05.01-.06.01H2.1L2.03.1h-.65L1.3.09H1.13L1.05.08H.9L.83.07H.7L.64.06h-.1L.5.05H.42h.01L.41.03zm0 0h.01-.01zM.28.25L.29.24V.23L.3.22V.2h.01V.18L.32.17.33.16V.14h.01V.12h.01V.1h.01V.09L.37.08V.07h.01V.06L.39.05.4.04.41.03l.02.02H.42v.01H.41v.01H.4v.01L.39.09.38.1v.01H.37v.02H.36v.02H.35v.01L.34.17v.01L.33.19V.2L.32.21v.02L.31.24v.01H.3v.01L.28.25zm0 0L.29.23.28.25zm.01.03L.28.29.27.27.28.25.3.26.29.28zM.28.29L.26.28.27.27l.01.02zM.25 1.35l.01.02-.02.01H.23l-.02-.01v-.03l.01-.02v-.03l.01-.03.01-.04.01-.04.02-.04.01-.05.01-.04L.31 1 .32.94.34.89.35.84.36.79.37.73.38.68.39.63.4.58V.45L.39.41.38.38.37.35.35.32.33.31.31.29H.28V.26l.04.01.03.02.02.02.02.03.01.03.01.04.01.04v.13L.41.63.4.68.39.74.38.79.37.84.36.9.34.95.33 1l-.02.05-.01.05-.01.05-.02.04-.01.04-.01.03-.01.04v.02l-.01.02v.02l.01-.01.01.02v-.02zm0 0h.02l-.01.02-.01-.02zm-.08-.04h.01v.01h.01l.01.01h.01l.01.01h.02v.01h.01v.02H.23v-.01H.21L.2 1.35H.19v-.01H.17v-.01H.16l.01-.02zm-.03 0V1.3l.01-.01.02.02-.01.02-.02-.02zm0-.01v-.02l.01.01-.01.01zm.02.03H.13l.01-.03h.02v.03zm-.03 0zm0 .08v-.08h.03v.04l-.01.01v.03H.13zm.02 0zm-.02.08v-.08h.02v.09l-.02-.01zm-.07.9v-.08l.01-.03v-.06l.01-.03v-.08l.01-.03v-.06l.01-.03v-.08l.01-.03v-.11l.01-.03V1.6l.01-.03v-.08l.02.01v.1l-.01.03v.14l-.01.03v.08l-.01.03V2l-.01.02v.09l-.01.03v.08l-.01.03v.06l-.01.03v.06l-.02-.01zM0 2.98v-.03l.01-.02V2.82l.01-.02V2.71l.01-.02V2.6l.01-.02v-.07l.01-.02v-.08l.01-.02.02.01v.01l-.01.02v.08l-.01.02V2.6l-.01.02v.09l-.01.02v.09l-.01.02V2.95l-.01.01v.02H0zm.02.01L.01 3 0 2.99v-.01h.02v.01zM.01 3H0v-.01L.01 3zm.01-.02V3H.01v-.02h.01zm.46.06H.26l-.02-.01H.15l-.01-.01H.09l-.02-.01H.04L.02 3v-.02l.02.01h.05L.11 3h.05l.01.01H.27l.02.01h.19v.02zm.47.03H.92l-.01-.01H.8l-.02-.01H.64l-.01-.01H.48v-.02h.18l.02.01h.14l.01.01h.09l.01.01h.02v.02zm.01-.02l.01.02H.95v-.02h.01zm.01.02H.96h.01zm-.01-.02h.02l-.01.02-.02-.01.01-.01zm.02 0zm.38-1.5h.01l.01.01-.4 1.49H.96l.4-1.5zm0 0v-.01l.01.01h-.01zm.09.01l.01.01-.02.01-.07-.01v-.02l.08.01zm0 0l.01.01-.01-.01zm.54 1.56l-.02.01-.54-1.55.03-.01.53 1.55zm-.02.01zm.03 0l-.01.01h-.01l-.01-.01.02-.01.01.01zm-.01.01h-.01.01zM2 3.12v.02h-.01v-.02H2zm.51-.03h-.05l-.01.01h-.07l-.01.01H2.31l-.02.01H2.23l-.02.01h-.1l-.01.01H2v-.02h.08l.01-.01h.1l.02-.01h.08l.01-.01h.07l.01-.01h.05l.01-.01h.05l.01-.01.01.03z"/><path fill="#99CFBA" fill-rule="nonzero" d="M2.62.12c-.09.05-.19.08-.3.1-.11.02-.22.03-.33.04h-.02v.01l.22 1.04c.06.05.13.1.22.11.09.02.19 0 .33-.08h.01c.05-.07.08-.2.06-.39-.01-.2-.06-.47-.16-.82V.11l-.03.01z"/><path fill="#2B2A29" fill-rule="nonzero" d="M2.32.21L2.33.2h.04l.01-.01h.03l.01-.01h.02l.01-.01h.03l.01-.01h.02l.01-.01h.02l.01-.01h.01l.01-.01h.01l.01-.01h.02l.01-.01.01.02-.01.01H2.6l-.01.01h-.01l-.01.01h-.02l-.01.01h-.01l-.01.01H2.5l-.01.01h-.03L2.45.2h-.02l-.01.01h-.03l-.01.01h-.04l-.01.01h-.01V.21zm-.33.04H2l.01-.01h.12l.01-.01h.07l.01-.01h.05l.01-.01h.04v.02h-.03l-.01.01h-.05l-.01.01h-.07l-.01.01h-.1l-.01.01h-.04V.25zm-.02.02L1.96.26l.01-.01h.02v.02h-.02zM1.96.26L1.95.25h.02l-.01.01zm.02.01l-.02.01V.26h.02v.01zm-.02.01zM2.2 1.3l-.03.01L1.96.28l.02-.01.22 1.03zm-.03.01h.01-.01zm.03 0l-.02.01v-.01h-.01l.03-.01v.01zm-.02.01v-.01.01zm.02-.02l-.02.02.01-.02h.01zm-.02.02h.01-.01zm.22.11h-.04v-.01h-.02l-.01-.01h-.02L2.3 1.4l-.01-.01h-.01l-.01-.01h-.01l-.01-.01h-.01v-.01h-.01l-.01-.01-.01-.01-.01-.01h-.01v-.01h-.01l.02-.02v.01h.01v.01h.01l.01.01.01.01h.01l.01.01.01.01h.01l.01.01.01.01h.01l.01.01h.02l.01.01h.02l.01.01h.03l-.01.02zm.34-.08l-.01.01-.01.01h-.01l-.02.01h-.01l-.01.01-.01.01h-.03l-.01.01h-.01l-.01.01h-.02l-.01.01h-.05l-.01.01H2.41l-.01-.01.01-.02h.01l.01.01H2.49l.01-.01h.05l.01-.01h.03l.01-.01h.02l.01-.01h.02l.01-.01.01-.01h.01l.02-.01h.01l.01-.01.01-.01.01.02zm0-.02l.01.02h-.01l-.01-.02h.01zm.01.02zm-.01-.02l.01.02-.02-.02h.01zm.01.02zm.08-.4v.18l-.01.01v.07l-.01.01v.02l-.01.01v.02l-.01.01v.01l-.01.01v.01l-.01.01-.01.01v.01l-.01.01-.01-.02.01-.01v-.01h.01v-.02l.01-.01v-.01l.01-.01v-.02l.01-.01V1.2l.01-.01V1.13l.01-.02V.98L2.8.97V.95h.03zM2.66.13l.01.03.01.03.01.03.01.04v.03l.01.03.01.03.01.03V.4l.01.03.01.03v.03l.01.03v.02l.01.03v.02l.01.03v.02l.01.03v.02l.01.03v.04l.01.02v.05l.01.02v.08l.01.02H2.8V.87L2.79.85V.79L2.78.77V.72L2.77.7V.67L2.76.65V.62L2.75.6V.57L2.74.55V.52L2.73.49V.47L2.72.44 2.71.41V.38L2.7.35 2.69.32 2.68.29V.26L2.67.23 2.66.2 2.65.16 2.64.13h.02zm-.02 0zm0-.01V.1l.02.01v.02h-.02V.12zm0-.02h.01l.01.01L2.64.1zm-.01.03L2.62.11 2.64.1l.01.02-.02.01zM2.62.11L2.6.12l.02-.01z"/><path fill="#99CFBA" fill-rule="nonzero" d="M.27.15c.09.04.19.07.3.09.11.02.22.03.33.04h.03L.92.3.71 1.33H.7c-.06.06-.13.1-.22.12-.08.01-.19-.01-.33-.08v-.01C.09 1.29.06 1.17.08.97.09.77.14.5.24.15V.13l.03.02z"/><path fill="#2B2A29" fill-rule="nonzero" d="M.57.23v.02H.55L.54.24H.5L.49.23H.46L.45.22H.43L.42.21H.39L.38.2H.36V.19H.34L.33.18H.32L.31.17H.29L.28.16H.26L.27.14h.02L.3.15h.02l.01.01h.01v.01h.02l.01.01H.4l.01.01h.02L.44.2h.03l.01.01H.5l.01.01h.03l.01.01h.02zM.9.27v.02H.83L.82.28H.73L.72.27H.66L.65.26H.6L.59.25H.57V.23H.6l.01.01h.05l.01.01H.73l.01.01H.85l.01.01H.9zm.02.02H.9V.27h.03l.01.01-.02.01zM.93.27h.01v.01L.93.27zM.91.29V.28h.03L.93.3.91.29zm0 0zM.7 1.33L.91.29.93.3.72 1.33H.7zm.02 0zm-.03 0h.03l-.01.01-.02-.01zm.03 0l-.01.01.01-.01zM.7 1.32l.01.02-.01-.02zm0 0zm-.21.14l-.01-.03h.04l.01-.01h.02l.01-.01h.01l.01-.01h.01l.01-.01h.01l.01-.01h.01l.01-.01.01-.01.01-.01h.01v-.01h.01v-.01h.01l.01-.01.01.02-.01.01-.01.01-.01.01H.67v.01H.65v.01H.64l-.01.01-.01.01H.61l-.01.01H.59l-.01.01H.57l-.01.01H.54v.01H.49v.01zm-.34-.08l.01-.02h.01l.01.01.01.01h.02l.01.01h.01l.01.01h.01l.01.01h.03l.01.01h.02l.01.01h.04l.01.01h.09l.01-.01.01.03H.37l-.02-.01H.32l-.01-.01H.29l-.01-.01H.26l-.01-.01H.23l-.01-.01H.21L.2 1.4H.18l-.01-.01-.01-.01H.15zm.01-.02zm-.01-.01l.01.01-.01.02-.01-.01.01-.02zm-.01.02zm.01-.02l.01.01-.02.01.01-.02zm0 0zM.07.97h.02v.04l-.01.01v.1l.01.01V1.21l.01.01v.03l.01.01v.03h.01v.01l.01.01v.02h.01v.01l.01.01-.01.02-.01-.01v-.01H.12v-.01l-.01-.01v-.01L.1 1.31V1.3l-.01-.01v-.02l-.01-.01v-.03l-.01-.01V1.15l-.01-.02V.99L.07.97zM.23.15h.02L.24.19.23.22.22.25v.03L.21.31.2.34.19.37V.4L.18.43.17.46v.03L.16.52.15.54v.03L.14.6v.02L.13.65v.02L.12.7v.04L.11.77v.02L.1.81v.06L.09.89v.08H.07V.89L.08.87V.81L.09.78V.74L.1.72V.69L.11.67V.64L.12.62V.59L.13.57V.54L.14.51V.48L.15.46.16.43V.4L.17.37.18.34.19.31V.28L.2.25.21.21.22.18.23.15zm0 0L.22.18.23.15zM.25.14v.01H.23V.13L.25.12v.02zM.23.13L.24.12h.01L.23.13zm.03.03L.24.14.25.12l.02.02-.01.02zm0 0z"/></svg>