<svg xmlns="http://www.w3.org/2000/svg" width="123" height="60" fill-rule="evenodd" clip-rule="evenodd" image-rendering="optimizeQuality" shape-rendering="geometricPrecision" text-rendering="geometricPrecision" viewBox="0 0 21 10.24"><defs><style>.fil3{fill:#fefefe}.fil6{fill:#c4d985}.fil5{fill:#a1b567}.fil1{fill:#2b2a29;fill-rule:nonzero}</style></defs><g id="Слой_x0020_1"><g id="_761766048"><path fill="#6fa691" d="M15.31 1.1l-3.74 2.02 1.16 4.8 4.27.94 2.71-7.74z"/><path id="1" d="M11.58 3.15l-.04-.02.02-.03 3.73-2.03.03.05-3.74 2.03zm-.04-.02v-.02l.02-.01-.02.03zm1.21 4.78l-.03.04-.02-.02-1.16-4.8.06-.01 1.15 4.79zm-.03.04l-.02-.01v-.01l.02.02zm4.28.88l.02.04-.03.02-4.27-.94.01-.06 4.27.94zm.02.04l-.01.03-.02-.01.03-.02zm2.66-7.76l.03-.02.02.04-2.71 7.74-.05-.02 2.71-7.74zm.03-.02h.04l-.02.04-.02-.04zm-4.4.04l-.02-.06h.02l4.4.02v.06l-4.4-.02zm-.02-.06h.02-.02z" class="fil1"/><path fill="#9ad0bb" d="M19.71 1.12L15.67 3.3 17 8.86l3.96-2.6z"/><path id="1" d="M15.68 3.33l-.04-.02.01-.03 4.04-2.18.03.05-4.04 2.18zm-.04-.02l-.01-.02.02-.01-.01.03zm1.38 5.55l-.01.03-.04-.02-1.33-5.56.05-.01 1.33 5.56zm-.01.03l-.03.02-.01-.04.04.02zm3.94-2.65l.04.02-.01.03-3.97 2.6-.03-.05 3.97-2.6zm.04.02l.01.02-.02.01.01-.03zm-1.31-5.13l.01-.03.04.02 1.26 5.14-.05.01-1.26-5.14zm.01-.03l.04-.02v.04l-.04-.02z" class="fil1"/><path d="M18.4 4.29c-.26.04-.43.31-.38.6.05.29.3.49.56.45.26-.05.43-.32.38-.61-.05-.29-.3-.48-.56-.44z" class="fil3"/><path id="1" d="M17.99 4.9l-.01-.03v-.14l.01-.03v-.02l.01-.03v-.02l.01-.03.01-.02.01-.03.01-.02.02-.02.01-.03.01-.02.02-.02.01-.02.02-.02.02-.01.02-.02.02-.02.02-.01.02-.01.02-.02.02-.01.03-.01.02-.01.02-.01h.03l.03-.01.01.06h-.03l-.02.01-.02.01h-.02l-.02.01-.02.01-.02.01-.02.02-.02.01-.02.01-.01.02-.02.01-.01.02-.02.02-.01.02-.01.02-.01.02-.02.02-.01.02v.02l-.01.02-.01.02-.01.03v.02l-.01.02v.15l.01.03-.06.01zm.59.46l-.02.01h-.11l-.02-.01h-.03l-.02-.01h-.03l-.02-.01-.02-.01-.03-.01-.02-.02-.02-.01-.02-.01-.02-.02-.02-.01-.02-.02-.02-.02-.01-.02-.02-.02-.02-.02-.01-.02-.02-.03-.01-.02-.01-.02-.01-.03-.01-.02-.01-.03-.01-.03-.01-.02V4.9l.06-.01v.02l.01.03v.02l.01.03.01.02.01.02.01.02.01.03.02.02.01.02.01.01.02.02.01.02.02.02.02.01.02.02.01.01.02.01.02.01.02.02.02.01h.02l.02.01.02.01h.03l.02.01h.13l.01.05zm.41-.63v.03l.01.02v.09l-.01.03v.05l-.01.02-.01.03-.01.03v.02l-.01.02-.02.03-.01.02-.01.02-.02.02-.01.02-.02.02-.01.02-.02.02-.02.02-.02.01-.02.02-.02.01-.02.01-.03.01-.02.02h-.02l-.03.01-.02.01h-.03l-.01-.05.02-.01h.03l.02-.01.02-.01.02-.01.02-.01.02-.01.02-.01.02-.01.01-.02.02-.01.01-.02.02-.01.01-.02.02-.02.01-.02.01-.02.01-.02.01-.02.01-.02.01-.02.01-.03v-.02l.01-.02v-.03l.01-.02v-.13l-.01-.02.06-.01zm-.59-.47H18.55l.02.01h.03l.02.01.03.01.02.01.02.01.02.01.03.01.02.02.02.01.02.02.02.02.01.02.02.02.02.02.01.02.02.02.01.02.02.03.01.02.01.02.01.03.01.03.01.02v.03l.01.03-.06.01v-.03l-.01-.02-.01-.03v-.02l-.01-.02-.01-.03-.01-.02-.02-.02-.01-.02-.01-.02-.02-.02-.01-.02-.02-.01-.01-.02-.02-.02-.02-.01-.02-.01-.01-.02-.02-.01-.02-.01-.02-.01-.02-.01-.03-.01h-.02l-.02-.01h-.04l-.02-.01h-.05l-.02.01h-.02l-.01-.06z" class="fil1"/><path d="M19.69 5.19c-.26.05-.43.31-.38.6.05.29.3.49.56.45.26-.05.43-.32.38-.61-.05-.28-.3-.48-.56-.44z" class="fil3"/><path id="1" d="M19.28 5.8v-.03l-.01-.03v-.11l.01-.03v-.02l.01-.03.01-.02V5.5l.01-.02.01-.03.01-.02.02-.02.01-.03.01-.02.02-.02.01-.02.02-.02.02-.01.02-.02.02-.02.02-.01.02-.01.02-.02.02-.01.03-.01.02-.01.03-.01h.02l.03-.01.01.06h-.03l-.02.01-.02.01h-.02l-.02.01-.02.01-.02.01-.02.02-.02.01-.01.01-.02.02-.02.01-.01.02-.02.02-.01.02-.01.02-.01.02-.01.02-.01.02-.01.02-.01.02-.01.02-.01.03v.04l-.01.03V5.76l.01.03-.06.01zm.59.46l-.02.01h-.11l-.02-.01h-.03l-.02-.01h-.02l-.03-.01-.02-.01-.02-.01-.03-.02-.02-.01-.02-.01-.02-.02-.02-.01-.02-.02-.02-.02-.01-.02-.02-.02-.02-.02-.01-.02-.02-.02-.01-.03-.01-.02-.01-.03-.01-.02-.01-.03-.01-.03v-.02l-.01-.03.06-.01v.02l.01.03v.02l.01.03.01.02.01.02.01.02.01.03.02.02.01.02.01.01.02.02.02.02.01.02.02.01.02.02.01.01.02.01.02.01.02.02.02.01h.02l.02.01.03.01h.02l.02.01h.13l.01.05zm.41-.63v.03l.01.03v.08l-.01.03v.05l-.01.02-.01.03v.03l-.01.02-.01.02-.01.03-.02.02-.01.02-.01.02-.02.02-.02.02-.01.02-.02.02-.02.02-.02.01-.02.02-.02.01-.02.01-.02.02-.03.01h-.02l-.03.01-.02.01h-.03l-.01-.05.03-.01h.02l.02-.01.02-.01.02-.01.02-.01.02-.01.02-.01.02-.01.01-.02.02-.01.02-.02.01-.01.02-.02.01-.02.01-.02.01-.02.01-.02.01-.02.01-.02.01-.02.01-.03.01-.02v-.05l.01-.02v-.13l-.01-.02.06-.01zm-.59-.47h.15l.03.01h.02l.02.01.03.01.02.01.02.01.03.01.02.02.02.01.02.02.02.01.02.02.02.02.01.02.02.02.02.02.01.02.01.02.02.03.01.02.01.02.01.03.01.03.01.02v.03l.01.03-.06.01v-.03l-.01-.02-.01-.03v-.02l-.01-.02-.01-.03-.01-.02-.02-.02-.01-.02-.01-.02-.02-.02-.01-.02-.02-.01-.01-.02-.02-.02-.02-.01-.02-.01-.01-.02-.02-.01-.02-.01-.02-.01-.02-.01h-.02l-.03-.01-.02-.01h-.04l-.02-.01h-.05l-.02.01h-.02l-.01-.06z" class="fil1"/><path d="M18.97 2.46c-.27.05-.44.32-.39.61.05.28.3.48.56.44.26-.05.43-.32.39-.6-.05-.29-.3-.49-.56-.45z" class="fil3"/><path id="1" d="M18.55 3.07v-.19l.01-.03v-.03l.01-.02.01-.03.01-.02.01-.02.01-.03.01-.02.01-.02.02-.02.01-.02.02-.02.02-.02.01-.02.02-.02.02-.01.02-.02.02-.01.03-.01.02-.02.02-.01.03-.01h.02l.02-.01.03-.01.01.06-.02.01h-.02l-.03.01-.02.01-.02.01-.02.01-.02.01-.01.01-.02.01-.02.02-.02.01-.01.02-.02.01-.01.02-.02.02-.01.02-.01.02-.01.02-.01.02-.01.02-.01.02-.01.02v.03l-.01.02v.05l-.01.02v.08l.01.02v.03l-.06.01zm.6.47h-.16l-.02-.01h-.03l-.02-.01-.02-.01-.03-.01-.02-.01-.02-.01-.02-.02-.02-.01-.03-.02-.01-.01-.02-.02-.02-.02-.02-.02-.02-.02-.01-.02-.02-.02-.01-.02-.01-.03-.02-.02-.01-.03-.01-.02-.01-.03v-.02l-.01-.03-.01-.03.06-.01.01.03v.02l.01.03.01.02.01.02.01.02.01.03.01.02.01.02.01.02.02.02.01.01.02.02.02.02.01.01.02.02.02.01.02.02.02.01.02.01.02.01.02.01h.02l.02.01.02.01h.07l.02.01.02-.01h.05l.01.06zm.4-.64l.01.03v.16l-.01.03v.03l-.01.02-.01.03-.01.02-.01.03-.01.02-.01.02-.02.02-.01.03-.02.02-.01.02-.02.01-.02.02-.02.02-.01.01-.02.02-.03.01-.02.02-.02.01-.02.01-.03.01h-.02l-.03.01-.02.01-.01-.06.02-.01h.02l.02-.01.02-.01h.02l.02-.01.02-.02.02-.01.02-.01.02-.01.01-.02.02-.02.01-.01.02-.02.01-.02.02-.02.01-.02.01-.02.01-.02.01-.02.01-.02v-.02l.01-.03v-.02l.01-.02v-.18l.05-.01zm-.59-.47h.15l.03.01.02.01h.03l.02.01.02.01.03.01.02.01.02.02.02.01.02.02.02.01.02.02.02.02.02.02.01.02.02.02.01.02.02.02.01.03.01.02.01.03.01.02.01.03.01.03.01.02v.03l-.05.01-.01-.02v-.03l-.01-.02-.01-.03-.01-.02-.01-.02-.01-.03-.01-.02-.01-.02-.02-.02-.01-.02-.02-.01-.01-.02-.02-.02-.02-.01-.01-.02-.02-.01-.02-.01-.02-.02-.02-.01-.02-.01-.02-.01h-.02l-.02-.01h-.02l-.02-.01h-.14l-.01-.06z" class="fil1"/><g><path d="M17.04 3.52c-.26.04-.44.31-.39.6.05.29.3.49.56.45.26-.05.43-.32.39-.61-.05-.29-.3-.48-.56-.44z" class="fil3"/><path id="1" d="M16.62 4.13v-.2l.01-.02v-.03l.01-.02.01-.03.01-.02.01-.03.01-.02.01-.02.01-.03.02-.02.01-.02.02-.02.02-.02.01-.01.02-.02.02-.02.02-.01.02-.02.03-.01.02-.01.02-.01.03-.01.02-.01h.03l.02-.01.01.06h-.02l-.02.01-.03.01h-.02l-.02.01-.02.01-.02.01-.01.02-.02.01-.02.01-.02.02-.01.01-.02.02-.01.02-.01.02-.02.02-.01.01-.01.03-.01.02-.01.02-.01.02-.01.02v.02l-.01.03v.05l-.01.02v.08l.01.02v.03l-.06.01zm.6.46l-.03.01h-.1l-.03-.01h-.02l-.03-.01h-.02l-.02-.01-.03-.01-.02-.01-.02-.02-.02-.01-.02-.01-.03-.02-.01-.02-.02-.01-.02-.02-.02-.02-.02-.02-.01-.02-.02-.02-.01-.03-.01-.02-.02-.02-.01-.03-.01-.02-.01-.03v-.03l-.01-.02-.01-.03.06-.01.01.02v.03l.01.02.01.03.01.02.01.02.01.02.01.03.01.02.01.02.02.01.01.02.02.02.02.02.01.01.02.02.02.01.02.01.02.01.02.01.02.01.02.01.02.01.02.01h.02l.02.01h.14l.01.05zm.4-.63l.01.03v.16l-.01.03v.02l-.01.03-.01.02-.01.03-.01.02-.01.03-.01.02-.02.02-.01.02-.02.02-.01.02-.02.02-.02.02-.01.02-.02.01-.02.02-.03.01-.02.01-.02.01-.02.01-.03.01-.02.01-.03.01h-.02l-.01-.05.02-.01h.02l.02-.01.02-.01.02-.01.02-.01.02-.01.02-.01.02-.01.02-.02.01-.01.02-.02.02-.02.01-.01.01-.02.02-.02.01-.02.01-.02.01-.02.01-.02.01-.02v-.03l.01-.02v-.02l.01-.03v-.05l.01-.02-.01-.03v-.07l.05-.01zm-.59-.47h.15l.03.01h.02l.03.01.02.01.02.01.03.01.02.01.02.01.02.02.02.01.02.02.02.02.02.02.02.02.01.02.02.02.01.02.02.02.01.02.01.03.02.02.01.03v.03l.01.02.01.03v.03l-.05.01-.01-.03v-.02l-.01-.03-.01-.02-.01-.02-.01-.03-.01-.02-.01-.02-.01-.02-.02-.02-.01-.02-.02-.02-.01-.01-.02-.02-.02-.02-.01-.01-.02-.01-.02-.02-.02-.01-.02-.01-.02-.01-.02-.01-.02-.01h-.02l-.02-.01h-.05l-.02-.01h-.04l-.03.01h-.02l-.01-.06z" class="fil1"/></g><g><path d="M17.73 6.3c-.26.04-.43.31-.38.6.04.29.3.49.56.44.26-.04.43-.31.38-.6-.05-.29-.3-.49-.56-.44z" class="fil3"/><path id="1" d="M17.32 6.91l-.01-.03v-.14l.01-.03v-.02l.01-.03v-.03l.01-.02.01-.03.01-.02.01-.02.01-.03.02-.02.01-.02.02-.02.01-.02.02-.02.02-.01.02-.02.02-.02.02-.01.02-.02.02-.01.02-.01.02-.01.03-.01.02-.01h.03l.02-.01.01.06h-.02l-.02.01h-.02l-.02.01-.02.01-.02.01-.02.01-.02.01-.02.02-.02.01-.01.02-.02.01-.01.02-.02.02-.01.01-.01.02-.02.02-.01.02-.01.02-.01.03v.02l-.01.02-.01.02v.03l-.01.02V6.9l-.05.01zm.59.46l-.03.01h-.1l-.02-.01h-.03l-.02-.01-.03-.01h-.02l-.02-.01-.03-.02-.02-.01-.02-.01-.02-.01-.02-.02-.02-.02-.02-.01-.02-.02-.02-.02-.01-.02-.02-.02-.01-.02-.02-.03-.01-.02-.01-.02-.01-.03-.01-.03-.01-.02-.01-.03-.01-.03v-.02l.05-.01.01.02.01.03v.02l.01.02.01.03.01.02.01.02.01.02.01.02.02.02.01.02.02.02.01.02.02.01.02.02.01.01.02.02.02.01.02.01.02.01.02.01.02.01.02.01.02.01h.02l.03.01h.13l.01.05zm.41-.63v.05l.01.03v.06l-.01.02v.03l-.01.03v.02l-.01.03-.01.02-.01.03-.01.02-.01.03-.01.02-.01.02-.02.02-.01.02-.02.02-.01.02-.02.02-.02.01-.02.02-.02.02-.02.01-.02.01-.03.01-.02.01-.02.01-.03.01-.02.01h-.03l-.01-.05.02-.01h.03l.02-.01.02-.01.02-.01.02-.01.02-.01.02-.01.01-.02.02-.01.02-.01.01-.02.02-.02.01-.01.02-.02.01-.02.01-.02.01-.02.01-.02.01-.02.01-.03.01-.02v-.02l.01-.02v-.03l.01-.02v-.1l-.01-.03v-.02l.06-.01zm-.6-.47h.03l.03-.01h.05l.02.01h.05l.03.01.02.01.03.01.02.01.02.01.02.01.02.01.03.02.02.01.02.02.02.02.01.01.02.02.02.02.01.03.02.02.01.02.02.02.01.03.01.02.01.03.01.02.01.03v.03l.01.03-.06.01v-.03l-.01-.02-.01-.03-.01-.02v-.03l-.01-.02-.02-.02-.01-.02-.01-.02-.01-.02-.02-.02-.01-.02-.02-.02-.01-.01-.02-.02-.02-.01-.02-.02-.02-.01-.02-.01-.02-.01-.02-.01-.02-.01-.02-.01h-.02l-.02-.01h-.02l-.02-.01H17.76l-.03.01-.01-.06z" class="fil1"/></g><g><path d="M13.96 5.06c-.22.03-.35.33-.3.65.06.32.28.56.5.52.22-.04.35-.33.29-.65-.05-.33-.27-.56-.49-.52z" class="fil3"/><path id="1" d="M13.64 5.71l-.01-.03v-.03l-.01-.03V5.5l.01-.03v-.03l.01-.02v-.03l.01-.03.01-.02v-.03l.01-.02.01-.03.01-.02.02-.02.01-.02.01-.02.02-.02.01-.02.02-.02.01-.01.02-.02.02-.01.02-.01.02-.02h.02l.02-.01.02-.01h.02l.01.05-.01.01h-.02l-.02.01-.02.01-.01.01-.02.01-.01.01-.02.01-.01.01-.02.02-.01.01-.01.02-.01.02-.01.02-.01.02-.01.02-.01.02-.01.02-.01.02-.01.03v.02l-.01.03v.02l-.01.03v.17l.01.03v.03h-.05zm.52.55h-.11l-.02-.01h-.02l-.02-.01-.03-.01-.02-.01-.02-.02-.02-.01-.02-.01-.01-.02-.02-.02-.02-.01-.02-.02-.02-.02-.01-.02-.02-.03-.01-.02-.02-.02-.01-.03-.01-.02-.01-.03-.02-.03-.01-.03-.01-.02v-.03l-.01-.03-.01-.03v-.04h.05l.01.02v.03l.01.03.01.03.01.02.01.03.01.03.01.02.01.02.01.03.02.02.01.02.01.02.02.02.01.02.02.02.02.01.01.02.02.01.02.01.01.02.02.01.02.01h.02l.02.01.01.01h.04l.02.01h.02l.02-.01h.01l.01.06zm.32-.69l.01.03v.06l.01.04v.03l-.01.03v.08l-.01.03v.03l-.01.02-.01.03-.01.03V6l-.01.02-.02.03-.01.02-.01.02-.01.02-.02.02-.01.02-.02.01-.02.02-.01.02-.02.01-.02.01-.02.01-.02.01-.02.01h-.02l-.03.01-.01-.06h.02l.02-.01h.02l.01-.01.02-.01.02-.01.01-.01.02-.01.01-.02.01-.01.02-.02.01-.01.01-.02.01-.02.01-.02.01-.02.01-.02.01-.02.01-.03v-.02l.01-.03.01-.02v-.05l.01-.03v-.11l-.01-.03v-.06l.05-.01zm-.53-.54l.03-.01h.07l.02.01h.02l.02.01.02.01.02.01.02.01.02.01.02.01.02.02.02.02.02.01.02.02.02.02.01.02.02.02.02.02.01.03.01.02.02.02.01.03.01.03.01.02.01.03.01.03.01.03.01.03.01.03v.03l-.05.01-.01-.03-.01-.03V5.5l-.01-.03-.01-.03-.01-.02-.01-.03-.01-.02-.01-.03-.02-.02-.01-.02-.01-.02-.02-.03-.01-.01-.02-.02-.01-.02-.02-.02-.01-.01-.02-.02-.02-.01-.02-.01-.01-.01-.02-.01-.02-.01h-.02l-.02-.01h-.01l-.02-.01h-.08l-.01-.05z" class="fil1"/></g><g><path d="M16.19 2.63c-.02-.15-.31-.23-.63-.18-.33.06-.57.23-.54.38.02.16.31.24.63.18.33-.05.57-.22.54-.38z" class="fil3"/><path id="1" d="M15.55 2.42h.03l.03-.01H15.9l.02.01h.03l.02.01.02.01h.03l.02.01.02.01.02.01.02.01.01.01.02.01.02.01.01.01.01.01.01.02.01.01.01.02.01.01.01.02v.02l-.06.01v-.03l-.01-.01v-.01l-.01-.01-.01-.01-.01-.01-.01-.01-.01-.01-.02-.01h-.01l-.02-.01-.01-.01-.02-.01H16l-.02-.01h-.02l-.02-.01h-.03l-.02-.01h-.05l-.03-.01h-.1l-.03.01h-.09l-.03.01-.01-.06zm-.56.42V2.77l.01-.02v-.02l.01-.02.01-.01.01-.02.01-.01.01-.02.02-.01.01-.02.02-.01.02-.02.02-.01.02-.01.02-.02.02-.01.02-.01.03-.01.02-.01.03-.01.02-.02.03-.01h.02l.03-.01.03-.01.03-.01.03-.01h.03l.03-.01.01.06h-.03l-.03.01-.03.01h-.02l-.03.01-.03.01-.02.01-.03.01-.02.01-.03.01-.02.01-.02.01-.02.01-.02.01-.02.01-.02.02-.02.01-.01.01-.02.01-.01.02-.01.01-.01.01-.01.02-.01.01-.01.01-.01.01v.03l-.01.01v.04l-.05.01zm.67.2l-.04.01h-.09l-.03.01h-.11l-.03-.01h-.05l-.03-.01h-.02l-.02-.01h-.03l-.02-.01-.02-.01h-.02L15.13 3l-.02-.01-.02-.01-.01-.01-.02-.02-.01-.01-.01-.01-.02-.01-.01-.02-.01-.01v-.02l-.01-.02v-.01l.05-.01.01.01v.01l.01.01v.01l.01.01.01.01.01.01.01.01.01.01.01.01.02.01h.02l.01.01.02.01.02.01h.02l.02.01h.02l.03.01h.04l.03.01h.16l.03-.01h.06l.03-.01.01.06zm.56-.41v.07l-.01.01v.02l-.01.02-.01.01-.01.02-.01.02-.02.01-.01.02-.02.01-.01.02-.02.01-.02.01-.02.02-.02.01-.02.01-.03.01-.02.02-.02.01-.03.01-.02.01-.03.01-.03.01-.03.01h-.02l-.03.01-.03.01h-.03l-.03.01-.01-.06h.03l.02-.01h.03l.03-.01.03-.01.02-.01.03-.01.03-.01.02-.01.02-.01.03-.01.02-.01.02-.01.02-.01.02-.01.02-.01.01-.02.02-.01.01-.01.02-.01.01-.02.01-.01.01-.01.01-.02.01-.01v-.01l.01-.01V2.64l.06-.01z" class="fil1"/></g><g><path d="M16.03 1.7c-.03-.16-.32-.24-.64-.18-.32.05-.57.22-.54.38.03.15.31.23.63.18.33-.06.57-.23.55-.38z" class="fil3"/><path id="1" d="M15.39 1.49l.03-.01h.06l.03-.01h.17l.03.01h.05l.02.01.02.01h.03l.02.01.02.01h.02l.02.01.02.01.02.01.01.01.02.01.01.02.02.01.01.01.01.02.01.01v.02l.01.02v.01L16 1.7l-.01-.01v-.02l-.01-.01-.01-.01-.01-.01-.01-.01-.01-.01-.01-.01-.01-.01-.02-.01-.01-.01h-.02l-.02-.01-.02-.01h-.02l-.02-.01h-.02l-.02-.01h-.03l-.02-.01h-.22l-.03.01h-.03l-.02.01-.01-.06zm-.57.41v-.07l.01-.02.01-.01v-.02l.01-.02.01-.01.02-.02.01-.01.01-.02.02-.01.02-.02.01-.01.02-.01.02-.02.02-.01.02-.01.03-.02.02-.01.02-.01.03-.01.02-.01.03-.01.03-.01.03-.01.03-.01h.02l.03-.01.03-.01h.04l.01.06h-.03l-.03.01h-.03l-.03.01-.03.01-.02.01-.03.01h-.02l-.03.01-.02.01-.03.02-.02.01-.02.01-.02.01-.02.01-.01.01-.02.02-.02.01-.01.01-.02.01-.01.02-.01.01-.01.01-.01.02-.01.01v.01l-.01.01V1.89l-.06.01zm.67.21h-.06l-.03.01H15.17l-.03-.01h-.05l-.02-.01-.02-.01h-.02L15 2.08l-.02-.01-.02-.01-.01-.01-.02-.01-.02-.01-.01-.01-.02-.01-.01-.01-.01-.02-.01-.01-.01-.02-.01-.01v-.02l-.01-.02.06-.01v.02l.01.02.01.01v.01l.01.01.01.01.01.01h.02l.01.01.01.01.02.01.02.01.01.01h.02l.02.01h.02l.03.01h.02l.02.01h.08l.02.01h.06l.03-.01h.08l.03-.01h.03l.01.06zm.56-.42l.01.02v.02l-.01.02v.03l-.01.02-.01.01-.01.02-.01.02-.01.01-.01.02-.02.01-.01.02-.02.01-.02.02-.02.01-.02.01-.02.02-.02.01-.02.01-.02.01-.03.01-.02.01-.03.01-.03.01-.02.01-.03.01-.03.01-.03.01h-.03l-.03.01-.03.01-.01-.06.03-.01h.03l.03-.01.03-.01h.02l.03-.01.02-.01.03-.01.02-.01.03-.01.02-.01.02-.01.02-.01.02-.01.02-.02.02-.01.02-.01.01-.01.02-.02.01-.01.01-.01.01-.01.01-.02.01-.01.01-.01.01-.02v-.02l.01-.01V1.7l.05-.01z" class="fil1"/></g><g><path fill="#f08bb2" d="M3.42 4.57c0 .31-.76.62-1.69.62-.94 0-1.7-.31-1.7-.62 0-1.02 1.16-.94 1.22-2.24v-.72C1.03 1.45.89 1.29.89.9c0-.39.38-.87.84-.87.46 0 .83.48.83.87s-.14.55-.36.71v.7c-.05 1.46 1.22 1.24 1.22 2.26z"/><path id="1" d="M1.73 5.21v-.05h.08l.09-.01h.08l.09-.01h.08l.08-.01.08-.01.07-.01.08-.02.07-.01.07-.02.07-.01.06-.02.07-.02.06-.02.06-.02.05-.02.05-.03.05-.02.05-.02.04-.03.04-.02.04-.03.03-.02.03-.03.02-.02.03-.03.01-.03.02-.02.01-.03v-.05h.06v.04l-.01.03-.01.03-.02.03-.02.03-.02.03-.03.03-.03.03-.04.03-.04.03-.04.02-.04.03-.05.02-.05.03-.06.02-.05.02-.06.02-.07.02-.06.02-.07.02-.07.02-.07.01-.07.02-.08.01-.08.01-.08.01-.08.01-.08.01-.08.01h-.26zM0 4.57h.06v.03l.01.02v.03l.02.02.02.03.02.03.02.02.03.03.03.02.04.03.04.02.04.03.05.02.05.02.05.03.06.02.05.02.06.02.07.02.06.02.07.01.07.02.08.01.07.02.08.01.07.01.08.01h.09l.08.01h.08l.09.01h.09v.05h-.26l-.09-.01-.08-.01-.08-.01-.08-.01-.08-.01-.08-.01-.07-.02-.07-.01-.07-.02-.07-.02-.06-.02-.06-.02-.06-.02L.46 5 .4 4.98l-.05-.03-.05-.02-.04-.03-.04-.02-.04-.03-.04-.03-.03-.03-.03-.03-.02-.03-.02-.03-.02-.03-.01-.03L0 4.61v-.04zm1.22-2.24h.06l-.01.12-.02.11-.02.11-.02.09-.04.1-.03.08-.04.08-.04.08-.05.07-.05.07-.05.06-.05.06-.06.06-.05.05-.06.06-.05.05-.06.05-.06.05-.05.05-.05.05-.05.05-.05.05-.04.05-.05.06-.03.06-.04.06-.03.07-.02.07-.02.07-.02.08-.01.08v.09H0v-.09l.01-.09.02-.08.02-.08.03-.08.03-.06.04-.07.04-.06.04-.06.05-.06.05-.05.05-.05.05-.05.06-.06.05-.05.06-.05.05-.05.06-.05.05-.05.05-.06.06-.06.05-.06.04-.06.05-.07.04-.07.04-.08.03-.08.03-.09.03-.1.02-.1.01-.11.01-.11zm.06 0zm0-.72v.72h-.06v-.72l.05-.03.01.03zm-.01-.03l.01.01v.02l-.01-.03zM.87.9h.05v.07L.93 1v.06l.01.03v.03l.01.03v.02l.01.03.01.02.01.02.01.03v.02l.01.02.02.02.01.02.01.01.01.02.01.02.02.02.01.01.02.02.01.02.02.01.01.02.02.01.02.02.02.01.02.02.02.01.02.01-.04.05-.02-.01-.02-.02-.02-.01-.02-.02-.02-.02-.01-.01-.02-.02-.02-.01-.01-.02-.02-.02-.02-.02-.01-.02L1 1.42.99 1.4l-.01-.02-.01-.03-.02-.02-.01-.02-.01-.02-.01-.03-.01-.02v-.03L.9 1.19l-.01-.03v-.03L.88 1.1v-.03l-.01-.03V.9zm.86-.9v.06h-.09L1.6.07l-.03.01-.04.01-.04.01-.04.02-.03.02-.04.02-.04.02-.03.02-.03.02-.03.03-.03.03-.03.03-.03.03-.03.03-.02.03-.03.04-.02.03-.02.03-.02.04L1 .58.99.61.97.65.96.68.95.72.94.76.93.79v.04L.92.87V.9H.87V.82L.88.78V.75L.89.71.9.67.92.63.93.59.95.55.97.51.99.48l.02-.04.03-.04.02-.03.03-.04.03-.03.03-.03.03-.03.03-.03.03-.03.04-.03.03-.02.04-.02.04-.03.04-.01.04-.02.04-.02.04-.01.04-.01h.05L1.68 0h.05zm.86.9h-.06V.87L2.52.83V.79L2.51.76 2.5.72 2.49.68 2.48.65 2.47.61 2.45.58 2.43.54 2.41.5 2.39.47 2.37.44 2.34.4 2.32.37 2.29.34 2.26.31 2.23.28 2.2.25 2.17.22 2.14.2 2.11.18 2.07.16 2.04.14 2 .12 1.96.1 1.92.09 1.89.08 1.85.07 1.81.06h-.08V0h.04l.04.01h.05l.04.01.04.01.04.02.04.02.04.01.04.03.04.02.03.02.04.03.03.03.03.03.04.03.03.03.02.03.03.04.03.03.02.04.02.04.02.03.02.04.02.04.01.04.02.04.01.04.01.04.01.03v.04l.01.04V.9zm-.36.71h-.05l.01-.03.02-.01.02-.01.01-.02.02-.01.02-.02.02-.01.01-.02.02-.01.01-.02.02-.02.01-.01.02-.02.01-.02.01-.02.02-.01.01-.02.01-.02.01-.02.01-.02.01-.03v-.02l.01-.02.01-.03v-.02l.01-.03v-.03l.01-.03V1l.01-.03V.9h.06v.04l-.01.03v.1l-.01.03v.03l-.01.03-.01.03v.02l-.01.03-.01.02-.01.03-.01.02-.01.02-.01.02-.02.03-.01.02-.01.02-.02.01-.01.02-.02.02-.01.02-.02.02-.02.01-.01.02-.02.01-.02.02-.02.02-.02.01-.02.02-.02.01.01-.02zm-.05 0v-.02l.01-.01-.01.03zm0 .7v-.7h.05v.7h-.05zm.05 0zm1.22 2.26h-.06v-.09l-.01-.08-.02-.08-.02-.07-.03-.06-.03-.07-.04-.05-.04-.06-.04-.05-.05-.05-.05-.05L3 3.81l-.05-.04-.06-.05-.06-.04-.05-.05-.06-.05-.06-.05-.06-.06-.05-.05-.06-.06-.05-.07-.05-.07-.04-.07-.04-.08-.04-.09-.03-.09-.03-.1-.02-.11-.01-.11-.01-.13.01-.13h.05v.13l.01.12.01.11.02.11.02.09.03.09.04.09.04.07.04.07.05.07.05.06.05.06.05.05.06.06.05.04.06.05.06.05.06.05.06.04.05.05.06.05.05.05.05.05.05.06.04.05.04.07.04.06.03.07.02.08.02.08.01.09v.09z" class="fil1"/></g><g><path d="M.98 6.35l2.34 3.85 10.2-4.94-2.82-3.38z" class="fil5"/><path id="1" d="M3.3 10.21L.95 6.37 1 6.34l2.35 3.84-.02.04-.03-.01zm.03.01l-.02.02-.01-.03.03.01zm10.2-4.94l-10.2 4.94-.02-.05 10.2-4.94.03.01-.01.04zm.01-.04l.03.03-.04.01.01-.04zm-2.82-3.38l2.82 3.38-.04.04-2.83-3.38.01-.04h.04zm-.04 0l.02-.01.02.01h-.04zM.97 6.33l9.71-4.47.03.05L.99 6.38l-.04-.01.02-.04zm-.02.04l-.01-.03.03-.01-.02.04z" class="fil1"/><path d="M1.2 5.55L3.54 9.4l10.2-4.94-2.82-3.38z" class="fil5"/><path id="1" d="M3.52 9.41L1.17 5.57l.05-.03 2.34 3.84-.01.04-.03-.01zm.03.01l-.02.01-.01-.02.03.01zm10.2-4.94L3.55 9.42l-.02-.05 10.2-4.94.03.01-.01.04zm.01-.04l.03.03-.04.01.01-.04zm-2.82-3.38l2.82 3.38-.04.03-2.83-3.37.01-.04h.04zm-.04 0l.02-.01.02.01h-.04zM1.19 5.52l9.71-4.46.03.05-9.72 4.47-.04-.01.02-.05zm-.02.05l-.01-.03.03-.02-.02.05z" class="fil1"/><path d="M1.45 4.85l2.34 3.84 10.2-4.94L11.16.38z" class="fil6"/><path id="1" d="M3.76 8.71L1.42 4.86l.05-.03 2.34 3.85-.01.04-.04-.01zm.04.01l-.02.01-.02-.02.04.01zM14 3.78L3.8 8.72l-.02-.05 10.2-4.94h.03l-.01.05zm.01-.05l.02.03-.03.02.01-.05zM11.19.36l2.82 3.37-.04.04L11.14.4l.01-.05.04.01zm-.04-.01l.02-.01.02.02-.04-.01zM1.43 4.82L11.15.35l.03.06-9.72 4.46-.04-.01.01-.04zm-.01.04l-.02-.02.03-.02-.01.04z" class="fil1"/><path d="M2.36 4.89l1.82 3.1 9.03-4.37L10.97.93z" class="fil6"/><path id="1" d="M4.16 8.01L2.34 4.9l.05-.03 1.82 3.11-.01.04-.04-.01zm.04.01l-.03.01-.01-.02.04.01zm9.02-4.38L4.2 8.02l-.03-.06 9.03-4.37.03.01-.01.04zm.01-.04l.03.03-.04.01.01-.04zM10.99.91l2.24 2.69-.04.04L10.94.95l.01-.04h.04zm-.04 0l.02-.01.02.01h-.04zm-8.6 3.95l8.6-3.95.03.05-8.6 3.95-.04-.01.01-.04zm-.01.04l-.02-.02.03-.02-.01.04z" class="fil1"/><path d="M7.68 5.87l-.3-.4-.43.21-.19-.26.43-.21L7.03 5l-.45.22-.19-.26.44-.22-.74-1.01.88-.42s.02 0 .03-.01c.35-.18.7-.24.98-.22.8.05.98 1.03-.04 1.47l-.01.01-.51.25.15.21.94-.45.2.25-.94.46.29.4-.38.19zM6.67 3.8l.55.76.49-.25c.25-.14.45-.24.53-.37.08-.15.08-.28.01-.38 0 0-.01 0-.01-.01-.17-.2-.58-.23-1.04 0-.01.01-.02.01-.03.02h-.01l-.49.23z" class="fil1"/><g><path d="M10.07 2.6l-.42-.5.04-.03.42.5-.01.04-.03-.01zm.03.01l-.02.01-.01-.02.03.01zm1.17-.52l-1.17.52-.02-.05 1.16-.52h.03v.05zm0-.05l.03.03-.03.02v-.05zm-.43-.49l.43.49-.04.04-.43-.49.01-.05.03.01zm-.03-.01l.02-.01.01.02-.03-.01zm-1.15.52l1.15-.52.02.05-1.15.52-.03-.01.01-.04zm-.01.04l-.03-.03.04-.01-.01.04z" class="fil1"/></g><g><path d="M11.14 3.95l-.45-.54.04-.04.46.55-.01.04-.04-.01zm.04.01l-.02.01-.02-.02.04.01zm1.26-.57l-1.26.57-.03-.05 1.27-.57.03.01-.01.04zm.01-.04l.02.03-.03.01.01-.04zm-.47-.54l.47.54-.04.04-.48-.54.01-.05.04.01zm-.04-.01l.02-.01.02.02-.04-.01zm-1.24.57l1.24-.57.03.06-1.25.56-.03-.01.01-.04zm-.01.04l-.03-.03.04-.01-.01.04z" class="fil1"/></g><g><path d="M4.42 7.22l-.35-.64.05-.03.35.64-.01.04-.04-.01zm.04.01l-.03.01-.01-.02.04.01zm1.26-.6l-1.26.6-.03-.05 1.26-.6.04.01-.01.04zm.01-.04l.02.02-.03.02.01-.04zM5.3 6l.43.59-.05.03-.42-.59.01-.04.03.01zm-.03-.01l.02-.01.01.02-.03-.01zm-1.19.55l1.19-.55.02.05-1.19.55-.03-.01.01-.04zm-.01.04l-.02-.03.03-.01-.01.04z" class="fil1"/></g><g><path d="M3.48 5.81l-.35-.64.05-.03.35.64-.01.04-.04-.01zm.04.01l-.03.01-.01-.02.04.01zm1.25-.6l-1.25.6-.03-.05 1.25-.6.04.01-.01.04zm.01-.04l.02.03-.03.01.01-.04zm-.42-.58l.42.58-.05.03-.42-.58.01-.04.04.01zm-.04-.01l.03-.01.01.02-.04-.01zm-1.18.54l1.18-.54.03.05-1.19.55-.03-.02.01-.04zm-.01.04l-.02-.02.03-.02-.01.04z" class="fil1"/></g></g></g></g></svg>