<svg xmlns="http://www.w3.org/2000/svg" width="123" height="65" fill-rule="evenodd" clip-rule="evenodd" image-rendering="optimizeQuality" shape-rendering="geometricPrecision" text-rendering="geometricPrecision" viewBox="0 0 259.47 136.33"><defs><style>.fil2{fill:#f5b2b6}.fil3{fill:#f08bb2}.fil4{fill:#99cfba}.fil1{fill:#2b2a29;fill-rule:nonzero}</style></defs><g id="Слой_x0020_1"><g id="_763244432"><path fill="#fefefe" d="M.85 104.57L125.35.37l133.72 8.3-16.6 127.26z"/><path id="1" d="M125.58.64L1.08 104.85l-.46-.55L125.12.09l.25-.08.21.63zm-.46-.55l.11-.09.14.01-.25.08zm133.93 8.93L125.33.72l.04-.71 133.72 8.3.33.4-.37.31zm.04-.71l.38.02-.05.38-.33-.4zm-16.97 127.57l16.6-127.26.7.09-16.6 127.27-.4.3-.3-.4zm.7.1l-.04.35-.36-.05.4-.3zM.9 104.22l241.61 31.36-.09.7L.81 104.93l-.19-.63.28-.08zm-.09.71l-.81-.11.62-.52.19.63z" class="fil1"/><path d="M77.03 69.55c15.05 0 27.25 7.38 27.25 16.48 0 9.1-12.2 16.49-27.25 16.49s-27.24-7.39-27.24-16.49c0-9.1 12.19-16.48 27.24-16.48z" class="fil2"/><path id="1" d="M104.64 86.03h-.71l-.04-.82-.1-.81-.16-.79-.24-.79-.29-.77-.36-.76-.42-.74-.47-.74-.53-.71-.59-.69-.64-.68-.7-.65-.74-.64-.8-.61-.84-.59-.89-.56-.94-.54-.97-.52-1.02-.48-1.05-.45-1.1-.42-1.13-.4-1.16-.36-1.2-.33-1.22-.29-1.26-.26-1.28-.21-1.31-.19-1.33-.14-1.35-.11-1.37-.06-1.4-.02v-.71l1.42.02 1.39.07 1.38.1 1.35.15 1.33.19 1.31.22 1.27.26 1.25.3 1.22.33 1.19.37 1.15.4 1.12.43 1.08.47 1.04.49 1 .53.96.55.91.58.87.61.82.63.78.66.72.68.67.71.61.72.57.75.5.77.44.79.38.8.31.83.25.83.17.86.11.86.04.88zm-27.61 16.84v-.71l1.4-.02 1.37-.06 1.35-.11 1.33-.14 1.31-.18 1.28-.22 1.26-.26 1.22-.29 1.2-.33 1.16-.36 1.13-.39 1.1-.43 1.05-.45 1.02-.49.97-.51.94-.54.89-.56.84-.59.8-.61.74-.64.7-.65.64-.68.59-.69.53-.71.47-.74.42-.74.36-.76.29-.77.24-.79.16-.79.1-.81.04-.82h.71l-.04.88-.11.86-.17.86-.25.83-.31.83-.38.8-.44.79-.5.77-.57.75-.61.72-.67.71-.72.68-.78.66-.82.63-.87.61-.91.58-.96.55-1 .53-1.04.49-1.08.47-1.12.43-1.15.4-1.19.37-1.22.33-1.25.3-1.27.26-1.31.23-1.33.18-1.35.15-1.38.1-1.39.07-1.42.02zm-27.6-16.84h.71l.04.82.1.81.16.79.24.79.29.77.35.76.42.74.48.74.53.71.59.69.64.68.7.65.74.64.8.61.84.59.89.56.93.54.98.51 1.02.49 1.05.45 1.1.43 1.13.39 1.16.36 1.2.33 1.22.29 1.26.26 1.28.22 1.31.18 1.33.14 1.35.11 1.37.06 1.39.02v.71l-1.41-.02-1.39-.07-1.38-.1-1.35-.15-1.33-.18-1.31-.23-1.27-.26-1.25-.3-1.22-.33-1.19-.37-1.15-.4-1.12-.43-1.08-.47-1.04-.49-1-.53-.96-.55-.92-.58-.86-.61-.82-.63-.78-.66-.72-.68-.67-.71-.62-.72-.56-.75-.5-.77-.44-.79-.38-.8-.31-.83-.25-.83-.17-.86-.12-.86-.03-.88zm27.6-16.84v.71l-1.39.02-1.37.06-1.35.11-1.33.14-1.31.19-1.28.21-1.26.26-1.22.29-1.2.33-1.16.36-1.13.4-1.1.42-1.05.45-1.02.48-.98.52-.93.54-.89.56-.84.59-.8.61-.74.64-.7.65-.64.68-.59.69-.53.71-.48.74-.42.74-.35.76-.29.77-.24.79-.16.79-.1.81-.04.82h-.71l.03-.88.12-.86.17-.86.25-.83.31-.83.38-.8.44-.79.5-.77.56-.75.62-.72.67-.71.72-.68.78-.66.82-.63.86-.61.92-.58.96-.55 1-.53 1.04-.49 1.08-.47 1.12-.43 1.15-.4 1.19-.37 1.22-.33 1.25-.3 1.27-.26 1.31-.22 1.33-.19 1.35-.15 1.38-.1 1.39-.07 1.41-.02z" class="fil1"/><path d="M139.07 77.44c15.05 0 27.25 7.38 27.25 16.49 0 9.1-12.2 16.48-27.25 16.48s-27.25-7.38-27.25-16.48c0-9.11 12.2-16.49 27.25-16.49z" class="fil3"/><path id="1" d="M166.67 93.93h-.71l-.03-.82-.11-.81-.16-.8-.24-.79-.29-.77-.35-.76-.42-.74-.48-.73-.53-.71-.59-.7-.64-.67-.7-.66-.74-.63-.8-.61-.84-.59-.89-.57-.93-.54-.98-.51-1.02-.48-1.05-.46-1.1-.42-1.13-.4-1.16-.35-1.2-.33-1.22-.29-1.26-.26-1.28-.22-1.31-.18-1.33-.15-1.35-.1-1.37-.06-1.39-.03v-.71l1.41.03 1.39.06 1.38.11 1.35.14 1.33.19 1.31.22 1.27.27 1.25.29 1.22.34 1.19.36 1.15.4 1.12.44 1.08.46 1.04.5 1 .52.96.55.92.59.87.6.81.63.78.67.72.68.67.7.62.73.56.75.5.76.44.79.38.81.31.82.25.84.17.85.12.87.03.88zm-27.6 16.83v-.71l1.39-.02 1.37-.06 1.35-.1 1.33-.15 1.31-.18 1.28-.22 1.26-.26 1.22-.29 1.2-.33 1.16-.36 1.13-.39 1.1-.42 1.05-.46 1.02-.48.98-.51.93-.54.89-.57.84-.58.8-.62.74-.63.7-.66.64-.67.59-.7.53-.71.48-.73.42-.74.35-.76.29-.77.24-.79.16-.8.11-.81.03-.81h.71l-.03.87-.12.87-.17.85-.25.84-.31.82-.38.81-.44.79-.5.76-.56.75-.62.73-.67.7-.72.68-.78.66-.81.64-.87.6-.92.58-.96.56-1 .52-1.04.5-1.08.46-1.12.43-1.15.4-1.19.37-1.22.33-1.25.3-1.27.27-1.31.22-1.33.19-1.35.14-1.38.11-1.39.06-1.41.02zm-27.61-16.83h.71l.04.81.1.81.16.8.24.79.29.77.36.76.42.74.47.73.53.71.59.7.64.67.7.66.74.63.8.62.85.58.88.57.94.54.97.51 1.02.48 1.06.46 1.09.42 1.13.39 1.16.36 1.2.33 1.23.29 1.25.26 1.28.22 1.31.18 1.33.15 1.35.1 1.37.06 1.4.02v.71l-1.42-.02-1.39-.06-1.38-.11-1.35-.14-1.33-.19-1.3-.22-1.28-.27-1.25-.3-1.22-.33-1.18-.37-1.16-.4-1.11-.43-1.08-.46-1.05-.5-1-.52-.96-.56-.91-.58-.87-.6-.82-.64-.78-.66-.72-.68-.67-.7-.61-.73-.57-.75-.49-.76-.44-.79-.38-.81-.32-.82-.25-.84-.17-.85-.11-.87-.04-.87zm27.61-16.85v.71l-1.4.03-1.37.06-1.35.1-1.33.15-1.31.18-1.28.22-1.25.26-1.23.29-1.2.33-1.16.35-1.13.4-1.09.42-1.06.46-1.02.48-.97.51-.94.54-.88.57-.85.59-.8.61-.74.63-.7.66-.64.67-.59.7-.53.71-.47.73-.42.74-.36.76-.29.77-.24.79-.16.8-.1.81-.04.82h-.71l.04-.88.11-.87.17-.85.25-.84.32-.82.38-.81.44-.79.49-.76.57-.75.61-.73.67-.7.72-.68.78-.67.82-.63.87-.6.91-.59.96-.55 1-.52 1.05-.5 1.08-.46 1.11-.44 1.16-.4 1.18-.36 1.22-.34 1.25-.29 1.28-.27 1.3-.22 1.33-.19 1.35-.14 1.38-.11 1.39-.06 1.42-.03z" class="fil1"/><path d="M200.32 83.67c15.05 0 27.25 7.38 27.25 16.49 0 9.1-12.2 16.48-27.25 16.48s-27.25-7.38-27.25-16.48c0-9.11 12.2-16.49 27.25-16.49z" class="fil4"/><path id="1" d="M227.93 100.16h-.71l-.04-.82-.1-.81-.17-.8-.23-.78-.29-.77-.36-.76-.42-.74-.47-.74-.53-.71-.59-.69-.64-.68-.7-.65-.75-.64-.79-.61-.84-.59-.89-.57-.94-.53-.97-.51-1.02-.49-1.05-.45-1.1-.43-1.13-.39-1.16-.36-1.2-.33-1.22-.29-1.26-.26-1.28-.22-1.31-.18-1.33-.15-1.35-.1-1.37-.06-1.4-.02v-.71l1.42.02 1.39.06 1.37.11 1.36.15 1.33.18 1.3.23 1.28.26 1.25.3 1.22.33 1.18.37 1.16.4 1.11.43 1.08.47 1.04.49 1.01.52.96.56.91.58.87.61.82.63.78.66.72.68.67.7.61.73.56.75.5.77.44.78.38.81.32.82.24.84.18.86.11.86.04.88zM200.32 117v-.71l1.4-.03 1.37-.05 1.35-.11 1.33-.15 1.31-.18 1.28-.22 1.26-.25 1.22-.3 1.2-.32 1.16-.36 1.13-.4 1.1-.42 1.05-.46 1.02-.48.97-.51.94-.54.89-.57.84-.58.79-.61.75-.64.7-.66.64-.67.59-.7.53-.71.47-.73.42-.74.36-.76.29-.77.23-.79.17-.79.1-.81.04-.82h.71l-.04.88-.11.86-.18.86-.24.83-.32.83-.38.8-.44.79-.5.77-.56.75-.61.72-.67.71-.72.68-.78.66-.82.63-.87.61-.91.58-.96.55-1.01.52-1.04.5-1.08.46-1.11.44-1.16.4-1.18.37-1.22.33-1.25.3-1.28.26-1.3.22-1.33.19-1.36.15-1.37.1-1.39.06-1.42.03zm-27.6-16.84h.71l.03.82.1.81.17.79.23.79.3.77.35.76.42.74.48.73.53.71.59.7.64.67.7.66.74.64.8.61.84.58.89.57.93.54.98.51 1.01.48 1.06.46 1.1.42 1.13.4 1.16.36 1.19.32 1.23.3 1.26.25 1.28.22 1.31.18 1.32.15 1.36.11 1.37.05 1.39.03v.71l-1.41-.03-1.4-.06-1.37-.1-1.35-.15-1.33-.19-1.31-.22-1.27-.26-1.25-.3-1.22-.33-1.19-.37-1.15-.4-1.12-.44-1.08-.46-1.04-.5-1-.52-.96-.55-.92-.58-.87-.61-.82-.63-.77-.66-.72-.68-.67-.71-.62-.72-.56-.75-.5-.77-.44-.79-.38-.8-.31-.83-.25-.83-.18-.86-.11-.86-.03-.88zm27.6-16.84v.71l-1.39.02-1.37.06-1.36.1-1.32.15-1.31.18-1.28.22-1.26.26-1.23.29-1.19.33-1.16.36-1.13.39-1.1.43-1.06.45-1.01.49-.98.51-.93.53-.89.57-.84.59-.8.61-.74.64-.7.65-.64.68-.59.69-.53.71-.48.74-.42.74-.35.76-.3.77-.23.78-.17.8-.1.81-.03.82h-.71l.03-.88.11-.86.18-.86.25-.84.31-.82.38-.81.44-.78.5-.77.56-.75.62-.73.67-.7.72-.68.77-.66.82-.63.87-.61.92-.58.96-.56 1-.52 1.04-.49 1.08-.47 1.12-.43 1.15-.4 1.19-.37 1.22-.33 1.25-.3 1.27-.26 1.31-.23 1.33-.18 1.35-.15 1.37-.11 1.4-.06 1.41-.02z" class="fil1"/><path d="M108.24 39.38c13 0 23.53 6.08 23.53 13.59 0 7.5-10.53 13.58-23.53 13.58-13 0-23.53-6.08-23.53-13.58 0-7.51 10.53-13.59 23.53-13.59z" class="fil2"/><path id="1" d="M132.13 52.97h-.71l-.03-.67-.09-.66-.14-.65-.2-.64-.25-.63-.31-.63-.36-.6-.41-.6-.45-.58-.51-.57-.55-.56-.6-.54-.64-.52-.69-.5-.72-.49-.77-.46-.8-.44-.85-.43-.87-.39-.91-.38-.94-.35-.98-.32-1-.3-1.03-.27-1.06-.24-1.08-.21-1.11-.18-1.13-.15-1.15-.12-1.16-.08-1.19-.06-1.2-.01v-.71l1.22.01 1.21.06 1.19.08 1.17.12 1.14.16 1.13.18 1.11.22 1.07.24 1.06.28 1.02.3 1 .33.97.36.93.38.9.41.87.44.83.45.79.48.75.51.71.52.67.54.63.56.58.59.54.6.48.62.43.63.39.66.33.67.27.68.22.7.15.71.1.72.03.73zM108.24 66.9v-.71l1.2-.01 1.19-.06 1.16-.08 1.15-.12 1.13-.15 1.11-.18 1.08-.21 1.06-.24 1.03-.27 1-.3.98-.32.94-.35.91-.38.87-.39.85-.43.8-.44.77-.46.72-.48.69-.51.64-.52.6-.54.55-.55.51-.57.45-.59.41-.6.36-.6.31-.62.25-.64.2-.63.14-.66.09-.66.03-.66h.71l-.03.73-.1.72-.15.7-.22.7-.27.69-.33.66-.39.66-.43.64-.48.61-.54.6-.58.59-.63.56-.67.54-.71.53-.75.5-.79.48-.83.46-.87.43-.9.41-.93.38-.97.36-1 .33-1.02.3-1.06.28-1.07.24-1.11.22-1.13.18-1.14.16-1.17.12-1.19.08-1.21.06-1.22.01zM84.35 52.97h.71l.03.66.09.66.14.66.2.63.25.64.31.62.36.6.41.6.45.59.51.57.55.55.6.54.64.52.69.51.72.48.77.46.8.44.85.43.87.39.91.38.95.35.97.32 1 .3 1.04.27 1.05.24 1.08.21 1.11.18 1.13.15 1.15.12 1.16.08 1.19.06 1.2.01v.71l-1.22-.01-1.21-.06-1.19-.08-1.17-.12-1.14-.16-1.13-.18-1.11-.22-1.07-.24-1.06-.28-1.02-.3-1-.33-.97-.36-.93-.38-.9-.41-.87-.43-.83-.46-.79-.48-.75-.5-.71-.53-.67-.54-.63-.56-.58-.59-.53-.6-.49-.61-.43-.64-.39-.66-.33-.66-.27-.69-.22-.7-.15-.7-.1-.72-.03-.73zm23.89-13.94v.71l-1.2.01-1.19.06-1.16.08-1.15.12-1.13.15-1.11.18-1.08.21-1.05.24-1.04.27-1 .3-.97.32-.95.35-.91.38-.87.39-.85.43-.8.44-.77.46-.72.49-.69.5-.64.52-.6.54-.55.56-.51.57-.45.58-.41.6-.36.6-.31.63-.25.63-.2.64-.14.65-.09.66-.03.67h-.71l.03-.73.1-.72.15-.71.22-.7.27-.68.33-.67.39-.66.43-.63.49-.62.53-.6.58-.59.63-.56.67-.54.71-.52.75-.51.79-.48.83-.45.87-.44.9-.41.93-.38.97-.36 1-.33 1.02-.3L99 40.1l1.07-.24 1.11-.22 1.13-.18 1.14-.16 1.17-.12 1.19-.08 1.21-.06 1.22-.01z" class="fil1"/><g><path d="M161.81 45.89c12.99 0 23.53 6.08 23.53 13.58s-10.54 13.58-23.53 13.58c-13 0-23.53-6.08-23.53-13.58s10.53-13.58 23.53-13.58z" class="fil4"/><path id="1" d="M185.69 59.47h-.71l-.03-.66-.08-.67-.15-.65-.2-.64-.25-.63-.3-.62-.36-.61-.41-.6-.46-.58-.5-.57-.56-.55-.59-.54-.64-.53-.69-.5-.73-.48-.76-.47-.81-.44-.84-.42-.88-.4-.91-.37-.94-.35-.97-.32-1.01-.3-1.03-.27-1.06-.24-1.08-.21-1.1-.18-1.13-.16-1.15-.11-1.17-.09-1.18-.05-1.2-.02v-.71l1.22.02 1.2.05 1.19.09 1.17.12 1.15.15 1.13.19 1.1.21 1.08.25 1.05.27 1.03.3.99.34.97.36.94.38.9.41.86.43.83.46.8.48.75.5.71.52.67.55.63.56.57.58.54.6.48.62.44.64.38.65.33.67.28.68.21.7.16.71.09.72.03.73zm-23.88 13.94v-.71l1.2-.02 1.18-.05 1.17-.09 1.15-.11 1.13-.16 1.1-.18 1.08-.21 1.06-.24 1.03-.27 1.01-.3.97-.32.94-.35.91-.37.88-.4.84-.42.81-.44.76-.47.73-.48.69-.5.64-.53.59-.53.56-.56.5-.57.46-.58.41-.6.36-.61.3-.62.25-.63.2-.64.15-.65.08-.66.03-.67h.71l-.03.73-.09.72-.16.71-.21.7-.28.68-.33.67-.38.65-.44.64-.48.62-.54.6-.57.58-.63.57-.67.54-.71.52-.75.5-.8.48-.83.46-.86.43-.9.41-.94.38-.97.36-.99.33-1.03.31-1.05.27-1.08.25-1.1.21-1.13.19-1.15.15-1.17.12-1.19.09-1.2.05-1.22.02zm-23.89-13.94h.71l.03.67.09.66.14.65.2.64.25.63.31.62.35.61.41.6.46.58.51.57.55.56.6.53.64.53.68.5.73.48.77.47.8.44.84.42.88.4.91.37.94.35.98.32 1 .3 1.03.27 1.06.24 1.08.21 1.11.18 1.13.16 1.15.11 1.16.09 1.19.05 1.2.02v.71l-1.22-.02-1.21-.05-1.19-.09-1.17-.12-1.15-.15-1.12-.19-1.11-.21-1.08-.25-1.05-.27-1.02-.31-1-.33-.97-.36-.93-.38-.9-.41-.87-.43-.83-.46-.79-.48-.75-.5-.72-.52-.67-.54-.62-.57-.58-.58-.54-.6-.48-.62-.44-.64-.38-.65-.33-.67-.27-.68-.22-.7-.15-.71-.1-.72-.03-.73zm23.89-13.94v.71l-1.2.02-1.19.05-1.16.09-1.15.11-1.13.16-1.11.18-1.08.21-1.06.24-1.03.27-1 .3-.98.32-.94.35-.91.37-.88.4-.84.42-.8.44-.77.47-.73.48-.68.5-.64.53-.6.54-.55.55-.51.57-.46.58-.41.6-.35.61-.31.62-.25.63-.2.64-.14.65-.09.67-.03.66h-.71l.03-.73.1-.72.15-.71.22-.7.27-.68.33-.67.38-.65.44-.64.48-.62.54-.6.58-.58.62-.56.67-.55.72-.52.75-.5.79-.48.83-.46.87-.43.9-.41.93-.38.97-.36 1-.34 1.02-.3 1.05-.27 1.08-.25 1.11-.21 1.12-.19 1.15-.15 1.17-.12 1.19-.09 1.21-.05 1.22-.02z" class="fil1"/></g><g><path d="M214.84 50.73c13 0 23.53 6.08 23.53 13.58 0 7.51-10.53 13.59-23.53 13.59-13 0-23.53-6.08-23.53-13.59 0-7.5 10.53-13.58 23.53-13.58z" class="fil3"/><path id="1" d="M238.73 64.31h-.71l-.03-.66-.09-.66-.15-.66-.19-.63-.25-.64-.31-.62-.36-.61-.41-.59-.45-.59-.51-.57-.55-.55-.6-.54-.64-.52-.69-.51-.72-.48-.77-.46-.8-.44-.85-.43-.87-.39-.91-.38-.95-.35-.97-.32-1-.3-1.04-.27-1.05-.24-1.08-.21-1.11-.18-1.13-.15-1.15-.12-1.16-.08-1.19-.06-1.2-.01v-.71l1.22.01 1.21.06 1.19.08 1.16.12 1.15.16 1.13.18 1.1.22 1.08.24 1.06.28 1.02.3 1 .33.97.36.93.38.9.41.87.44.83.45.79.48.75.5.71.53.67.54.63.56.58.59.53.6.49.62.43.63.39.65.33.67.27.69.22.7.15.7.1.72.03.73zm-23.89 13.94v-.71l1.2-.02 1.19-.05 1.16-.09 1.15-.11 1.13-.15 1.11-.18 1.08-.22 1.05-.24 1.04-.27 1-.29.97-.33.95-.35.91-.37.87-.4.85-.42.8-.44.77-.46.72-.49.69-.5.64-.52.6-.54.55-.55.51-.58.45-.58.41-.6.36-.6.31-.63.25-.63.19-.64.15-.65.09-.66.03-.67h.71l-.03.73-.1.72-.15.71-.22.7-.27.68-.33.67-.39.66-.43.63-.49.62-.53.6-.58.59-.63.56-.67.54-.71.52-.75.51-.79.48-.83.45-.87.43-.9.42-.93.38-.97.35-1 .34-1.02.3-1.06.27-1.08.25-1.1.22-1.13.18-1.15.15-1.16.13-1.19.08-1.21.05-1.22.02zm-23.89-13.94h.71l.03.67.09.66.14.65.2.64.25.63.31.63.36.6.41.6.45.58.51.58.55.55.6.54.64.52.69.5.72.49.77.46.8.44.84.42.88.4.91.37.94.35.98.33 1 .29 1.03.27 1.06.24 1.08.22 1.11.18 1.13.15 1.15.11 1.16.09 1.19.05 1.2.02v.71l-1.22-.02-1.21-.05-1.19-.08-1.17-.13-1.14-.15-1.13-.18-1.11-.22-1.07-.25-1.06-.27-1.02-.3-1-.34-.97-.35-.93-.38-.9-.42-.87-.43-.83-.45-.79-.48-.75-.51-.71-.52-.68-.54-.62-.56-.58-.59-.54-.6-.48-.62-.44-.63-.38-.66-.33-.67-.27-.68-.22-.7-.15-.71-.1-.72-.03-.73zm23.89-13.93v.71l-1.2.01-1.19.06-1.16.08-1.15.12-1.13.15-1.11.18-1.08.21-1.06.24-1.03.27-1 .3-.98.32-.94.35-.91.38-.88.39-.84.43-.8.44-.77.46-.72.48-.69.51-.64.52-.6.54-.55.55-.51.57-.45.59-.41.59-.36.61-.31.62-.25.64-.2.63-.14.66-.09.66-.03.66h-.71l.03-.73.1-.72.15-.7.22-.7.27-.69.33-.67.38-.65.44-.63.48-.62.54-.6.58-.59.62-.56.68-.54.71-.53.75-.5.79-.48.83-.45.87-.44.9-.41.93-.38.97-.36 1-.33 1.02-.3 1.06-.28 1.07-.24 1.11-.22 1.13-.18 1.14-.16 1.17-.12 1.19-.08 1.21-.06 1.22-.01z" class="fil1"/></g><g><path d="M138.33 10.79c10.68 0 19.34 5 19.34 11.16s-8.66 11.16-19.34 11.16c-10.67 0-19.33-5-19.33-11.16s8.66-11.16 19.33-11.16z" class="fil3"/><path id="1" d="M158.02 21.95h-.71l-.02-.54-.07-.54-.12-.53-.16-.52-.21-.52-.24-.5-.29-.5-.34-.48-.37-.48-.42-.46-.45-.46-.49-.44-.52-.43-.56-.41-.6-.39-.62-.38-.66-.37-.69-.34-.72-.32-.75-.31-.77-.29-.8-.26-.82-.25-.85-.22-.86-.19-.89-.18-.91-.15-.92-.12-.95-.09-.95-.08-.97-.04-.99-.01v-.71l1.01.01.99.04.98.07.96.1.95.13.92.15.92.18.88.2.87.23.85.25.82.27.79.3.77.31.75.34.71.35.68.38.65.4.63.41.58.43.56.45.51.46.48.49.44.49.4.51.37.53.31.54.27.56.23.56.18.58.13.59.08.6.02.6zm-19.69 11.52v-.71l.99-.02.97-.04.95-.07.95-.1.92-.12.91-.15.89-.18.86-.19.85-.22.82-.25.8-.26.77-.28.75-.32.72-.32.69-.34.66-.37.62-.38.6-.39.56-.41.52-.43.49-.44.45-.45.42-.47.37-.48.34-.48.29-.5.24-.51.21-.51.16-.52.12-.53.07-.54.02-.54h.71l-.02.6-.08.6-.13.59-.18.58-.23.56-.27.56-.31.54-.37.52-.4.52-.44.49-.48.48-.51.47-.56.45-.58.43-.63.42-.65.39-.68.38-.71.35-.75.34-.77.32-.79.29-.82.27-.85.25-.87.23-.88.2-.92.18-.92.15-.95.13-.96.1-.98.07-.99.04-1.01.02zm-19.69-11.52h.71l.03.54.07.54.12.53.16.52.2.51.25.51.29.5.33.48.38.48.41.47.45.45.49.44.53.43.56.41.59.39.63.38.66.37.69.34.72.32.74.32.77.28.8.26.83.25.84.22.87.19.89.18.91.15.92.12.94.1.96.07.97.04.98.02v.71l-1-.02-.99-.04-.98-.07-.97-.1-.94-.13-.93-.15-.91-.18-.89-.2-.86-.23-.85-.25-.82-.27-.79-.29-.78-.32-.74-.34-.71-.35-.69-.38-.65-.39-.62-.42-.59-.43-.55-.45-.52-.47-.47-.48-.45-.49-.4-.52-.36-.52-.31-.54-.28-.56-.22-.56-.18-.58-.13-.59-.08-.6-.03-.6zm19.69-11.51v.71l-.98.01-.97.04-.96.08-.94.09-.92.12-.91.15-.89.18-.87.19-.84.22-.83.25-.8.26-.77.29-.74.31-.72.32-.69.34-.66.37-.63.38-.59.39-.56.41-.53.43-.49.44-.45.46-.41.46-.38.48-.33.48-.29.5-.25.5-.2.52-.16.52-.12.53-.07.54-.03.54h-.71l.03-.6.08-.6.13-.59.18-.58.22-.56.28-.56.31-.54.36-.53.4-.51.45-.49.47-.49.52-.46.55-.45.59-.43.62-.41.65-.4.69-.38.71-.35.74-.34.78-.31.79-.3.82-.27.85-.25.86-.23.89-.2.91-.18.93-.15.94-.13.97-.1.98-.07.99-.04 1-.01z" class="fil1"/></g><g><path d="M182.34 16.14c10.68 0 19.34 4.99 19.34 11.15 0 6.17-8.66 11.17-19.34 11.17-10.67 0-19.33-5-19.33-11.17 0-6.16 8.66-11.15 19.33-11.15z" class="fil4"/><path id="1" d="M202.03 27.29h-.71l-.02-.54-.07-.53-.12-.53-.16-.52-.21-.52-.24-.5-.29-.5-.34-.49-.37-.48-.41-.46-.46-.45-.49-.44-.52-.43-.56-.41-.6-.4-.62-.38-.66-.36-.69-.35-.72-.32-.75-.31-.77-.28-.8-.27-.82-.24-.85-.22-.86-.2-.89-.17-.91-.15-.92-.13-.95-.09-.95-.07-.97-.04-.99-.02v-.71l1.01.02.99.04.98.07.96.1.95.12.93.16.91.18.88.2.87.22.85.25.82.28.79.29.77.32.75.33.71.36.69.38.65.39.62.42.59.43.55.44.52.47.47.48.44.5.4.51.37.53.31.54.28.55.22.57.18.57.13.59.08.6.02.6zm-19.69 11.52v-.71l.99-.01.97-.05.95-.07.95-.09.92-.13.91-.15.89-.17.86-.2.85-.22.82-.24.8-.27.77-.28.75-.31.72-.32.69-.35.66-.36.62-.38.6-.4.56-.41.52-.43.49-.44.46-.45.41-.47.37-.47.34-.49.29-.5.24-.5.21-.51.16-.53.12-.53.07-.53.02-.55h.71l-.02.61-.08.6-.13.58-.18.58-.22.57-.28.55-.31.54-.37.53-.4.51-.44.5-.47.48-.52.47-.55.44-.59.44-.62.41-.65.39-.69.38-.71.36-.75.34-.77.31-.79.29-.82.28-.85.25-.87.22-.88.2-.91.18-.93.16-.95.12-.96.1-.98.07-.99.05-1.01.01zm-19.69-11.52h.72l.02.55.07.53.12.53.16.53.2.51.25.5.29.5.34.49.37.47.41.47.45.45.49.44.53.43.56.41.6.4.62.38.66.36.69.35.72.32.75.31.76.28.8.27.83.24.84.22.87.2.89.17.91.15.92.13.94.09.96.07.97.05.98.01v.71l-1-.01-.99-.05-.98-.07-.96-.1-.95-.12-.93-.16-.91-.18-.89-.2-.86-.22-.85-.25-.82-.28-.79-.29-.78-.31-.74-.34-.71-.36-.69-.38-.65-.39-.62-.41-.59-.44-.55-.44-.52-.47-.47-.48-.45-.5-.4-.51-.36-.53-.31-.54-.28-.55-.22-.57-.18-.58-.13-.58-.08-.6-.03-.61zm19.69-11.51v.71l-.98.02-.97.04-.96.07-.94.09-.92.13-.91.15-.89.17-.87.2-.84.22-.83.24-.8.27-.76.28-.75.31-.72.32-.69.35-.66.36-.62.38-.6.4-.56.41-.53.43-.49.44-.45.45-.41.46-.37.48-.34.49-.29.5-.25.5-.2.52-.16.52-.12.53-.07.53-.02.54h-.72l.03-.6.08-.6.13-.59.18-.57.22-.57.28-.55.31-.54.36-.53.4-.51.45-.5.47-.48.52-.47.55-.44.59-.43.62-.42.65-.39.69-.38.71-.36.74-.33.78-.32.79-.29.82-.28.85-.25.86-.22.89-.2.91-.18.93-.16.95-.12.96-.1.98-.07.99-.04 1-.02z" class="fil1"/></g><g><path d="M226.09 19.82c10.68 0 19.34 5 19.34 11.16s-8.66 11.16-19.34 11.16c-10.67 0-19.33-5-19.33-11.16s8.66-11.16 19.33-11.16z" class="fil3"/><path id="1" d="M245.78 30.98h-.71l-.02-.54-.07-.54-.12-.53-.16-.52-.21-.52-.24-.5-.29-.5-.34-.48-.37-.48-.41-.47-.46-.45-.49-.44-.52-.43-.56-.41-.6-.4-.62-.38-.66-.36-.69-.34-.72-.33-.75-.31-.77-.28-.8-.26-.82-.25-.84-.22-.87-.2-.89-.17-.91-.15-.92-.12-.94-.1-.96-.07-.97-.04-.99-.02v-.71l1.01.02.99.04.98.07.96.1.95.13.93.15.91.18.88.2.87.23.85.24.82.28.79.29.77.32.75.34.71.35.69.38.65.39.62.42.59.43.55.45.52.46.47.49.44.49.4.51.37.53.31.54.28.56.22.56.18.58.13.59.08.6.02.6zm-19.69 11.51v-.71l.99-.01.97-.04.96-.08.94-.09.92-.12.91-.15.89-.18.87-.19.84-.22.82-.25.8-.26.77-.29.75-.31.72-.32.69-.35.66-.36.62-.38.6-.39.56-.42.52-.42.49-.44.46-.46.41-.46.37-.48.34-.48.29-.5.24-.51.21-.51.16-.52.12-.53.07-.54.02-.54h.71l-.02.6-.08.6-.13.59-.18.58-.22.56-.28.56-.31.54-.37.52-.4.52-.44.49-.47.48-.52.47-.55.45-.59.43-.62.41-.65.4-.69.38-.71.35-.75.34-.77.31-.79.3-.82.27-.85.25-.87.23-.88.2-.91.18-.93.15-.95.12-.96.1-.98.08-.99.04-1.01.01zM206.4 30.98h.72l.02.54.07.54.12.53.16.52.2.51.25.51.29.5.34.48.37.48.41.46.45.46.49.44.53.42.56.42.6.39.62.38.66.36.69.35.72.32.75.31.77.29.79.26.83.25.84.22.87.19.89.18.91.15.92.12.94.09.96.08.97.04.98.01v.71l-1-.01-.99-.04-.98-.08-.96-.1-.95-.12-.93-.15-.91-.18-.89-.2-.86-.23-.85-.25-.82-.27-.79-.3-.78-.31-.74-.34-.71-.35-.69-.38-.65-.4-.62-.41-.59-.43-.55-.45-.52-.47-.47-.48-.45-.49-.4-.52-.36-.52-.31-.54-.28-.56-.22-.56-.18-.58-.13-.59-.08-.6-.03-.6zm19.69-11.52v.71l-.98.02-.97.04-.96.07-.94.1-.92.12-.91.15-.89.17-.87.2-.84.22-.83.25-.79.26-.77.28-.75.31-.72.33-.69.34-.66.36-.62.38-.6.4-.56.41-.53.43-.49.44-.45.45-.41.47-.37.48-.34.48-.29.5-.25.5-.2.52-.16.52-.12.53-.07.54-.02.54h-.72l.03-.6.08-.6.13-.59.18-.58.22-.56.28-.56.31-.54.36-.53.4-.51.45-.49.47-.49.52-.46.55-.45.59-.43.62-.42.65-.39.69-.38.71-.35.74-.34.78-.32.79-.29.82-.28.85-.24.86-.23.89-.2.91-.18.93-.15.95-.13.96-.1.98-.07.99-.04 1-.02z" class="fil1"/></g></g></g></svg>