<svg xmlns="http://www.w3.org/2000/svg" width="129" height="54" fill-rule="evenodd" clip-rule="evenodd" image-rendering="optimizeQuality" shape-rendering="geometricPrecision" text-rendering="geometricPrecision" viewBox="0 0 22.97 9.66"><defs><style>.fil3{fill:#fefefe}.fil4{fill:#2b2a29}.fil5{fill:#f5b2b6}.fil2{fill:#99cfba}.fil1{fill:#2b2a29;fill-rule:nonzero}</style></defs><g id="Слой_x0020_1"><g id="_763274992"><path fill="#6fa691" d="M1.36.22h14.68c.63 0 1.15.52 1.15 1.15V8.3c0 .63-.52 1.14-1.15 1.14H1.36C.73 9.44.21 8.93.21 8.3V1.37C.21.74.73.22 1.36.22z"/><path id="1" d="M16.04.44H1.36V.01h14.68v.43zm1.36.93h-.42l-.01-.05v-.09l-.01-.04-.01-.05-.02-.04-.01-.05-.02-.04-.02-.04-.02-.04-.02-.04-.02-.04-.03-.04-.03-.03-.03-.04-.03-.03-.03-.03-.04-.03-.03-.03-.04-.02-.04-.03-.03-.02-.05-.02-.04-.02-.04-.02-.04-.01-.05-.01-.04-.01-.05-.01-.04-.01h-.1V.01h.07l.07.01.07.01.06.01.07.02.06.01.07.03.06.02.06.03.06.03.05.03.06.04.05.03.05.04.05.05.05.04.05.05.04.05.04.05.04.05.03.06.04.06.03.05.02.06.03.07.02.06.02.06.01.07.01.07.01.06.01.07v.07zm-.42 6.93V1.37h.42V8.3h-.42zm-.94 1.36v-.43h.1l.04-.01.05-.01.04-.01.05-.01.04-.02.04-.01.04-.02.05-.02.03-.02.04-.03.04-.03.03-.02.04-.03.03-.03.03-.04.03-.03.03-.04.03-.03.02-.04.02-.04.02-.04.02-.04.02-.04.01-.05.02-.04.01-.05.01-.04v-.1l.01-.04h.42v.07l-.01.06-.01.07-.01.07-.01.06-.02.07-.02.06-.03.06-.02.06-.03.06-.04.06-.03.05-.04.06-.04.05-.04.05-.05.05-.05.04-.05.04-.05.04-.05.04-.06.04-.05.03-.06.03-.06.03-.06.02-.07.02-.06.02-.07.02-.06.01-.07.01h-.07l-.07.01zM1.36 9.23h14.68v.43H1.36v-.43zM0 8.3h.42l.01.04v.1l.01.04.01.05.02.04.01.05.02.04.02.04.02.04.02.04.02.04.03.03.03.04.03.03.03.04.03.03.04.03.03.02.04.03.04.03.04.02.04.02.04.02.04.01.04.02.05.01.04.01.05.01.04.01h.1v.43l-.07-.01h-.07l-.07-.01-.06-.01-.07-.02-.06-.02-.07-.02-.06-.02-.06-.03-.06-.03-.05-.03-.06-.04-.05-.04-.05-.04-.05-.04-.05-.04-.05-.05-.04-.05-.04-.05-.04-.06L.2 9l-.04-.06-.03-.06-.02-.06-.03-.06-.02-.06-.02-.07-.01-.06-.01-.07-.01-.07L0 8.37V8.3zm.42-6.93V8.3H0V1.37h.42zM1.36.01v.43h-.1l-.04.01-.05.01-.04.01-.05.01-.04.01L1 .51.96.53.92.55.88.57.84.6.8.62.77.65.73.68.7.71.67.74.64.78.61.81.58.85.56.89.54.93.52.97l-.02.04-.02.04-.01.05-.02.04-.01.05-.01.04v.09l-.01.05H0V1.3l.01-.07.01-.06.01-.07.01-.07.02-.06.02-.06.03-.07.02-.06.03-.05L.2.67.23.61.27.56.31.51.35.46.4.41.45.37.5.32.55.28.6.25.66.21.71.18.77.15.83.12.89.1.96.07l.06-.01.07-.02.06-.01.07-.01.07-.01h.07z" class="fil1"/><path d="M.87.27c.3 0 .55.25.55.56 0 .31-.25.56-.55.56-.31 0-.55-.25-.55-.56C.32.52.56.27.87.27zM8.54.03c.31 0 .55.25.55.56 0 .31-.24.56-.55.56-.3 0-.55-.25-.55-.56 0-.31.25-.56.55-.56zm7.97.21c.3 0 .55.25.55.56 0 .31-.25.56-.55.56-.3 0-.55-.25-.55-.56 0-.31.25-.56.55-.56z" class="fil2"/><path id="1" d="M1.45.83h-.06V.8L1.38.78V.72L1.37.7 1.36.67V.65L1.35.62 1.34.6 1.32.58 1.31.56 1.3.53 1.28.51 1.27.49 1.25.47 1.23.46 1.22.44 1.2.42 1.18.41 1.16.39 1.14.38 1.11.36 1.09.35 1.07.34 1.05.33 1.02.32H1L.97.31H.95L.92.3H.87V.24h.06l.03.01h.02l.03.01.03.01.03.01.02.01.03.01.02.01.03.02.02.01.02.02.03.02.02.01.02.02.02.02.01.03.02.02.02.02.01.03.02.02.01.03.01.02.01.03.01.03.01.02.01.03v.06l.01.03v.03zm-.58.59v-.06h.08l.02-.01H1l.02-.01.03-.01.02-.01.02-.01.02-.01.03-.01.02-.02.02-.01.02-.02.02-.01.01-.02.02-.02.02-.02.01-.02.02-.02.01-.02.01-.02.02-.03.01-.02.01-.03V.99l.01-.03.01-.02V.89l.01-.03V.83h.06v.03l-.01.03v.06l-.01.03-.01.03-.01.02-.01.03-.01.03-.01.02-.02.03-.01.02-.02.03-.02.02-.01.02-.02.02-.02.02-.02.02-.03.02-.02.01-.02.02-.03.01-.02.01-.03.02-.02.01-.03.01h-.03l-.03.01-.02.01H.87zM.29.83h.06v.08l.01.03v.02l.01.03.01.02.01.03.01.02.01.03.01.02.02.02.01.02.02.02.01.02.02.02.02.02.02.01.02.02.02.01.02.02.02.01.02.01.03.01.02.01.02.01.03.01h.02l.03.01h.08v.06H.78l-.03-.01-.03-.01H.69l-.02-.01-.03-.01-.02-.02-.03-.01-.02-.01-.03-.02-.02-.01-.02-.02-.02-.02-.02-.02-.02-.02-.02-.02-.02-.02-.01-.03-.02-.02-.01-.03-.02-.02-.01-.03-.01-.03-.01-.02V.98L.3.95.29.92V.83zM.87.24V.3H.81L.79.31H.76L.74.32H.71L.69.33.67.34.64.35.62.36.6.38.58.39.56.41.54.42.52.44.5.46.48.47.47.49.45.51.44.53.42.56.41.58.4.6.39.62.38.65.37.67.36.7v.02L.35.75v.08H.29V.74L.3.71.31.68V.66L.32.63.33.6.34.58.36.55.37.53.39.5.4.48.42.46.44.43.46.41.48.39.5.38.52.36.54.34.57.33.59.31.62.3.64.29.67.28.69.27.72.26.75.25h.03L.81.24h.06zm8.25.35h-.06V.51L9.05.48V.46L9.04.43 9.03.41 9.02.38 9.01.36 9 .34 8.99.32 8.97.29 8.96.27 8.94.25 8.93.23 8.91.22 8.89.2 8.87.18 8.85.17 8.83.15 8.81.14 8.79.12 8.77.11 8.75.1 8.72.09 8.7.08h-.03L8.65.07h-.03L8.6.06h-.06V0h.06l.03.01h.03l.03.01.03.01.02.01.03.01.02.01.03.01.02.02.03.01.02.02.02.02.02.01.02.02.02.02.02.03.02.02.01.02.02.02.01.03.02.03.01.02.01.03.01.03v.02l.01.03.01.03v.09zm-.58.59v-.06h.08l.03-.01h.02l.03-.01.02-.01.03-.01.02-.01.02-.01.02-.01.02-.02.02-.01.02-.02.02-.02.02-.01.02-.02.01-.02.02-.02.01-.02.02-.02L9 .84l.01-.02.01-.02.01-.03.01-.02.01-.03V.7l.01-.03V.59h.06v.09l-.01.03-.01.03v.03l-.01.02-.01.03-.01.03-.02.02-.01.03-.02.02-.01.03-.02.02-.02.02-.02.02-.02.02-.02.02-.02.02-.02.01-.03.02-.02.01-.03.01-.02.02-.03.01-.02.01h-.03l-.03.01-.03.01h-.09zM7.96.59h.06v.03l.01.03V.7l.01.02.01.03.01.02.01.03.01.02.01.02.01.03.01.02.02.02.01.02.02.02.02.02.01.01.02.02.02.02.02.01.02.02.03.01.02.01.02.01.03.01.02.01.02.01h.03l.02.01h.08v.06h-.08l-.03-.01-.03-.01h-.03l-.03-.01-.02-.01-.03-.02-.02-.01-.03-.01-.02-.02-.02-.01-.03-.02-.02-.02-.02-.02-.02-.02L8.1.97 8.08.95 8.06.92 8.05.9 8.03.87 8.02.85 8.01.82 8 .79 7.99.77 7.98.74V.71L7.97.68V.65L7.96.62V.59zM8.54 0v.06h-.05l-.03.01h-.02l-.03.01h-.02l-.02.01-.03.01-.02.01-.02.01-.03.02-.02.01-.02.02-.02.01-.02.02-.01.02-.02.01-.02.02-.01.02-.02.02-.01.03-.01.02-.01.02-.01.02-.01.03-.01.02-.01.03-.01.02v.06l-.01.02v.03h-.06V.56l.01-.03V.5l.01-.03V.44l.01-.02L8 .39l.01-.03.01-.02.01-.03.02-.03.01-.02.02-.02.02-.02.01-.03.02-.02.02-.02.02-.01.03-.02.02-.02.02-.01.03-.02.02-.01.03-.01.02-.01.03-.01.03-.01.03-.01h.03L8.48 0h.06zm8.55.8h-.06V.75l-.01-.03V.69l-.01-.02L17 .64V.62l-.01-.03-.01-.02-.01-.02-.02-.02-.01-.03-.02-.02-.01-.02-.02-.02-.01-.01-.02-.02-.02-.02-.02-.01-.02-.02-.02-.01-.02-.02-.03-.01-.02-.01-.02-.01-.03-.01h-.02l-.03-.01h-.02l-.03-.01h-.05V.21h.06l.03.01h.03l.02.01.03.01.03.01.02.01.03.01.03.01.02.02.02.01.03.02.02.02.02.01.02.02.02.02.02.03.01.02.02.02.01.03.02.02.01.03.01.02.01.03.01.03.01.02.01.03v.03l.01.03V.8zm-.58.59v-.06h.08l.02-.01h.03l.02-.01.03-.01.02-.01.02-.01.03-.01.02-.01.02-.02.02-.01.02-.02.02-.01.02-.02.01-.02.02-.02.01-.02.02-.02.01-.02.02-.02.01-.03.01-.02.01-.03V.96l.01-.03.01-.02V.88l.01-.02V.8h.06v.06l-.01.03v.03l-.01.03-.01.03-.01.02-.01.03-.01.03-.01.02-.02.03-.01.02-.02.03-.01.02-.02.02-.02.02-.02.02-.02.02-.02.02-.03.01-.02.02-.02.01-.03.01-.03.02-.02.01-.03.01h-.03l-.02.01-.03.01h-.09zM15.93.8h.06v.06l.01.02v.03l.01.02v.03l.01.02.01.03.01.02.01.03.01.02.02.02.01.02.02.02.01.02.02.02.02.02.02.01.02.02.02.01.02.02.02.01.02.01.03.01.02.01.02.01.03.01h.02l.03.01h.08v.06h-.09l-.03-.01-.03-.01h-.02l-.03-.01-.03-.01-.02-.02-.03-.01-.02-.01-.03-.02-.02-.01-.02-.02-.02-.02-.02-.02-.02-.02-.02-.02-.02-.02-.01-.03-.02-.02-.01-.03-.01-.02-.02-.03-.01-.03V.98l-.01-.03-.01-.03V.89l-.01-.03V.8zm.58-.59v.06h-.05l-.03.01h-.03l-.02.01h-.03l-.02.01-.02.01-.03.01-.02.01-.02.02-.02.01-.02.02-.02.01-.02.02-.02.02-.02.01-.01.02-.02.02-.01.02-.02.03-.01.02-.01.02-.01.02-.01.03-.01.02v.03L16 .69v.03l-.01.03V.8h-.06V.74l.01-.03V.68l.01-.03.01-.02V.6l.01-.03.02-.02.01-.03.01-.02.02-.03.01-.02.02-.02.02-.03.02-.02.02-.02.02-.01.02-.02.02-.02.03-.01.02-.02.03-.01.02-.01.03-.01.03-.01.02-.01.03-.01h.03l.03-.01h.06z" class="fil1"/><path d="M3.75 6.25c.26-.15.59-.06.74.2.14.25.05.58-.2.73-.26.15-.59.06-.74-.2-.14-.25-.05-.58.2-.73z" class="fil3"/><path id="1" d="M4.51 6.43l-.05.03-.01-.02-.02-.02-.01-.02-.02-.02-.02-.02-.02-.02-.01-.01-.02-.02-.02-.01-.02-.02-.03-.01-.02-.01-.02-.01-.02-.01-.02-.01h-.03l-.02-.01H4.1l-.02-.01H3.96l-.03.01h-.02l-.03.01h-.02l-.02.01-.03.01-.02.01-.02.02-.03-.06.02-.01.03-.01.03-.01.02-.01.03-.01.03-.01h.02l.03-.01h.14l.02.01h.03l.03.01.02.01h.03l.02.01.03.02.02.01.03.01.02.02.02.01.02.02.03.02.02.02.01.02.02.02.02.02.02.03.01.02zm-.21.78l-.03-.06.02-.01.03-.01.02-.02.02-.02.01-.01.02-.02.02-.02.01-.02.02-.02.01-.02.01-.02.01-.02.02-.02v-.03l.01-.02.01-.02.01-.03v-.04l.01-.03v-.07l-.01-.03v-.02l-.01-.03v-.02l-.01-.02-.01-.03-.01-.02-.01-.02-.01-.03.05-.03.02.03.01.02.01.03.01.03.01.02v.03l.01.03v.03l.01.02v.09l-.01.02v.03l-.01.03v.02l-.01.03-.01.02-.01.03-.01.02-.01.03-.02.02-.01.03-.02.02-.02.02-.01.02-.02.02-.02.02-.03.02-.02.02-.02.01-.03.02zM3.53 7l.05-.03.01.02.02.02.01.02.02.02.02.02.02.02.01.01.02.02.02.01.02.02.03.01.02.01.02.01.02.01.02.01h.03l.02.01.03.01h.14l.03-.01h.02l.02-.01h.03l.02-.01.03-.01.02-.01.02-.02.03.06-.02.01-.03.01-.03.01-.02.01-.03.01-.03.01h-.02l-.03.01h-.14l-.02-.01H3.9l-.03-.01-.02-.01h-.03l-.02-.01-.03-.02-.02-.01-.03-.01-.02-.02-.02-.01-.02-.02-.03-.02-.02-.02-.01-.02-.02-.02-.02-.02-.02-.03L3.53 7zm.21-.78l.03.06-.03.01-.02.01-.02.02-.02.02-.01.01-.02.02-.02.02-.01.02-.02.02-.01.02-.01.02-.02.02-.01.02v.03l-.01.02-.01.02-.01.03v.04l-.01.03v.07l.01.03v.02l.01.03v.02l.01.02.01.03.01.02.01.02.01.03-.05.03-.02-.03-.01-.02-.01-.03-.01-.03-.01-.02v-.03l-.01-.03v-.03l-.01-.02v-.09l.01-.02v-.03l.01-.03v-.02l.01-.03.01-.02.01-.03.01-.02.01-.03.02-.02.01-.03.02-.02.02-.02.01-.02.02-.02.02-.02.03-.02.02-.02.02-.01.03-.02z" class="fil1"/><path d="M4.68 5.72c.26-.15.59-.06.73.19.15.26.06.59-.19.74-.26.14-.59.06-.74-.2-.14-.26-.06-.59.2-.73z" class="fil3"/><path id="1" d="M5.44 5.9l-.05.03-.01-.02-.02-.03-.01-.02-.02-.02-.02-.01-.02-.02-.01-.02-.02-.01-.02-.02-.02-.01-.03-.01-.02-.01-.02-.02h-.02L5.1 5.7l-.02-.01h-.02l-.03-.01h-.02l-.02-.01h-.08l-.02.01h-.03l-.02.01h-.03l-.02.01-.02.01-.03.01-.02.01-.02.01-.03-.05.02-.01.03-.02.02-.01.03-.01.03-.01h.03l.02-.01h.03l.03-.01h.08l.03.01h.02l.03.01h.03l.02.01.03.01.02.01.03.01.02.01.03.02.02.01.02.02.02.02.02.01.02.02.02.02.02.03.02.02.02.02.01.03zm-.21.77l-.03-.05.02-.01.03-.02.02-.01.02-.02.01-.02.02-.01.02-.02.01-.02.02-.02.01-.02.01-.02.01-.03.01-.02.01-.02.01-.02.01-.03v-.02l.01-.03v-.02l.01-.02v-.08l-.01-.02v-.03l-.01-.02v-.02l-.01-.03L5.42 6l-.01-.03-.01-.02-.01-.02.05-.03.01.02.02.03.01.03.01.02.01.03v.03l.01.02v.03l.01.03v.08l-.01.03v.03l-.01.02v.03l-.01.02-.01.03-.01.03-.01.02-.01.02-.02.03-.01.02-.02.02-.02.03-.01.02-.02.02-.02.02-.03.01-.02.02-.02.02-.03.01zm-.77-.21l.05-.03.01.03.02.02.01.02.02.02.02.02.01.01.02.02.02.01.02.02.02.01.02.01.03.02.02.01.02.01h.02l.03.01.02.01h.05l.02.01h.08l.02-.01h.05l.02-.01.03-.01.02-.01.03-.01.02-.01.02-.01.03.05-.02.02-.03.01-.03.01-.02.01-.03.01h-.03l-.02.01h-.03l-.03.01h-.08l-.03-.01h-.03l-.02-.01H4.8l-.02-.01-.03-.01-.03-.01-.02-.01-.02-.01-.03-.02-.02-.01-.02-.02-.03-.01-.02-.02-.02-.02-.02-.02-.01-.03-.02-.02-.02-.02-.01-.03zm.21-.77l.03.05-.03.01-.02.02-.02.01-.02.02-.02.02-.01.02-.02.01-.01.02-.02.02-.01.02-.01.03-.02.02-.01.02-.01.02v.03l-.01.02-.01.02v.05l-.01.02v.08l.01.02v.05l.01.03.01.02.01.02.01.03.01.02.01.02-.05.03-.02-.02-.01-.03-.01-.02-.01-.03-.01-.03V6.3l-.01-.02v-.03l-.01-.03v-.08l.01-.03v-.02l.01-.03v-.03l.01-.02.01-.03.01-.02.01-.03.01-.02.02-.03.01-.02.02-.02.01-.02.02-.02.02-.02.02-.02.03-.02.02-.02.02-.02.03-.01z" class="fil1"/><path d="M5.62 5.18c.25-.15.58-.06.73.2.15.25.06.58-.2.73-.26.15-.58.06-.73-.2-.15-.26-.06-.58.2-.73z" class="fil3"/><path id="1" d="M6.38 5.36l-.06.03-.01-.02-.02-.02-.01-.02-.02-.02-.01-.02-.02-.02-.02-.02-.02-.01-.02-.02-.02-.01-.02-.01-.02-.01-.03-.01-.02-.01-.02-.01-.02-.01h-.03l-.02-.01H5.8l-.03.01h-.02l-.03.01-.02.01-.02.01-.03.01-.02.01-.03-.05.03-.01.02-.01.03-.02.03-.01h.02l.03-.01.03-.01h.19l.02.01.03.01h.03l.02.01.03.01.02.01.03.02.02.01.02.02.03.01.02.02.02.02.02.02.02.02.02.02.01.02.02.03.02.02zm-.21.77l-.03-.05.02-.01.02-.02.02-.01.02-.02.02-.01.02-.02.01-.02.02-.02.01-.02.02-.02.01-.02.01-.02.01-.03.01-.02.01-.02v-.02l.01-.03v-.02l.01-.03V5.58l-.01-.02v-.03l-.01-.02v-.03l-.01-.02-.01-.02-.01-.03-.02-.02.06-.03.01.03.01.02.01.03.01.03.01.02.01.03v.03l.01.02v.14l-.01.03v.02l-.01.03-.01.03-.01.02-.01.03-.01.02-.01.03-.01.02-.02.02-.01.03-.02.02-.02.02-.02.02-.02.02-.02.02-.02.01-.03.02-.02.01zm-.78-.2l.05-.03.02.02.01.02.02.02.01.02.02.02.02.02.02.01.02.02.02.01.02.01.02.02.02.01.02.01.03.01.02.01h.02l.03.01h.02l.02.01h.13l.02-.01h.02l.03-.01.02-.01h.03l.02-.01.02-.02.03-.01.03.05-.03.02-.03.01-.02.01-.03.01-.03.01-.02.01h-.03l-.03.01h-.13l-.03-.01h-.03l-.02-.01-.03-.01-.03-.01-.02-.01-.03-.01-.02-.01-.02-.01-.03-.02-.02-.02-.02-.01-.02-.02-.02-.02-.02-.02L5.44 6l-.02-.03-.01-.02-.02-.02zm.21-.78l.03.05-.02.02-.02.01-.02.02-.02.01-.02.02-.02.02-.01.02-.02.02-.01.02-.02.02-.01.02-.01.02-.01.02-.01.02-.01.03-.01.02v.02l-.01.03v.17l.01.02.01.03v.02l.01.03.01.02.01.02.01.03-.05.03-.01-.03-.01-.03-.02-.02v-.03l-.01-.03-.01-.02-.01-.03v-.19l.01-.03.01-.02v-.03l.01-.03.01-.02.01-.03.02-.02.01-.02.02-.03.01-.02.02-.02.02-.02.02-.02.02-.02.02-.02.02-.02.03-.01.02-.02z" class="fil1"/><path d="M6.55 4.64c.26-.15.59-.06.73.2.15.26.06.58-.19.73-.26.15-.59.06-.74-.2-.15-.25-.06-.58.2-.73z" class="fil3"/><path id="1" d="M7.31 4.82l-.05.03-.02-.02-.01-.02-.02-.02-.01-.02-.02-.02-.02-.02-.02-.01-.02-.02-.02-.01-.02-.02-.02-.01-.02-.01-.02-.01L7 4.63l-.03-.01h-.02l-.02-.01H6.9l-.02-.01H6.76l-.03.01h-.02l-.03.01h-.02l-.02.01-.03.01-.02.01-.02.02-.03-.06.02-.01.03-.01.02-.01.03-.01.03-.01.02-.01h.03l.03-.01h.14l.02.01h.03l.03.01.02.01h.03l.02.02.03.01.02.01.03.01.02.02.02.01.02.02.02.02.02.02.02.02.02.02.02.02.01.03.02.02zm-.21.78l-.03-.05.02-.02.02-.01.03-.02.01-.01.02-.02.02-.02.02-.02.01-.02.02-.02.01-.02.01-.02.01-.02.01-.02.01-.03.01-.02.01-.02v-.03l.01-.02v-.05l.01-.02v-.03l-.01-.02v-.05l-.01-.03v-.02l-.01-.02-.01-.03-.01-.02-.01-.02-.01-.03.05-.03.01.03.02.02.01.03.01.03v.02l.01.03.01.03v.05l.01.03v.03l-.01.03v.05l-.01.03v.02l-.01.03-.01.03-.01.02-.01.03-.02.02-.01.02-.01.03-.02.02-.02.02-.02.02-.02.02-.02.02-.02.02-.02.02-.02.01-.03.02zm-.77-.21l.05-.03.01.02.02.02.01.02.02.02.02.02.01.02.02.01.02.02.02.01.02.02.02.01.03.01.02.01.02.01.02.01.03.01h.02l.02.01H6.9l.03-.01.02-.01h.03L7 5.58l.02-.01.03-.01.02-.01.03.05-.02.01-.03.01-.03.01-.02.01-.03.01-.03.01h-.03l-.02.01h-.14l-.03-.01H6.7l-.03-.01h-.03l-.02-.01-.03-.01-.02-.02-.03-.01-.02-.01-.02-.02-.02-.01-.03-.02-.02-.02-.02-.02-.02-.02-.01-.02-.02-.02-.02-.03-.01-.02zm.21-.78l.03.06-.03.01-.02.01-.02.02-.02.02-.02.01-.01.02-.02.02-.02.02-.01.02-.01.02-.02.02-.01.02-.01.02-.01.03v.02l-.01.02-.01.03v.02l-.01.03V5.17l.01.02v.03l.01.02.01.02.01.03.01.02.01.03.01.02-.05.03-.02-.03-.01-.02-.01-.03-.01-.03-.01-.02-.01-.03v-.06l-.01-.02v-.08l.01-.03v-.06l.01-.02.01-.03.01-.02.01-.03.01-.02.01-.03.02-.02.01-.02.02-.03.01-.02.02-.02.02-.02.02-.02.02-.02.03-.01.02-.02.03-.02z" class="fil1"/><path d="M3.74 5.17c.26-.15.59-.06.74.2.15.26.06.58-.2.73-.26.15-.59.06-.73-.2-.15-.25-.06-.58.19-.73z" class="fil3"/><path id="1" d="M4.5 5.35l-.05.03-.01-.02-.02-.02-.01-.02-.02-.02-.02-.02-.01-.02-.02-.01-.02-.02-.02-.01-.02-.02-.02-.01-.03-.01-.02-.01-.02-.01-.02-.01h-.03l-.02-.01H4.1l-.03-.01H3.95l-.02.01H3.9l-.02.01h-.03l-.02.01-.02.01-.03.01-.02.02-.03-.06.02-.01.03-.01.03-.01.02-.01.03-.01.03-.01h.03l.02-.01h.14l.03.01h.02l.03.01.03.01h.02l.03.02.02.01.03.01.02.01.02.02.02.01.03.02.02.02.02.02.02.02.01.02.02.02.02.03.01.02zm-.21.78l-.03-.05.03-.02.02-.01.02-.02.02-.01.02-.02.01-.02.02-.02.02-.02.01-.02.01-.02.02-.02.01-.02.01-.02.01-.03v-.02l.01-.02.01-.03v-.02l.01-.02v-.13l-.01-.02v-.03L4.5 5.5l-.01-.02-.01-.03-.01-.02-.01-.02-.01-.03.05-.03.02.03.01.02.01.03.01.03.01.02.01.03v.06l.01.02v.09l-.01.02v.06l-.01.02-.01.03-.01.03-.01.02-.01.03-.01.02-.02.02-.01.03-.02.02-.01.02-.02.02-.02.02-.02.02-.02.02-.03.02-.02.01-.03.02zm-.77-.21l.05-.03.02.02.01.02.02.02.01.02.02.02.02.02.02.01.02.02.02.01.02.02.02.01.02.01.02.01.02.01.03.01.02.01h.02l.03.01h.17l.02-.01.03-.01h.02l.02-.01.03-.01.02-.01.02-.01.03.05-.02.01-.03.01-.02.01-.03.01-.03.01-.02.01h-.03l-.03.01h-.14l-.02-.01h-.03l-.03-.01h-.02l-.03-.01-.02-.01-.03-.02-.02-.01-.03-.01-.02-.02-.02-.01-.02-.02-.02-.02-.02-.02-.02-.02-.02-.02-.02-.02-.01-.03-.02-.02zm.21-.78l.03.06-.02.01-.02.01-.03.02-.01.02-.02.01-.02.02-.02.02-.01.02-.02.02-.01.02-.01.02-.01.02-.01.02-.01.03-.01.02-.01.02v.03l-.01.02v.05l-.01.02v.03l.01.02v.05l.01.03v.02l.01.02.01.03.01.02.01.03.01.02-.05.03-.01-.03-.02-.02-.01-.03-.01-.03v-.02l-.01-.03-.01-.03v-.05l-.01-.03v-.03l.01-.02v-.06l.01-.03v-.02l.01-.03.01-.02.01-.03.01-.02.02-.03.01-.02.01-.02.02-.03.02-.02.02-.02.02-.02.02-.02.02-.02.02-.01.02-.02.03-.02z" class="fil1"/><g><path d="M4.68 4.63c.26-.14.58-.06.73.2.15.26.06.59-.2.73-.25.15-.58.06-.73-.19-.15-.26-.06-.59.2-.74z" class="fil3"/><path id="1" d="M5.44 4.82l-.05.03-.02-.03-.01-.02-.02-.02-.01-.02-.02-.02-.02-.01-.02-.02-.02-.02-.02-.01-.02-.01-.02-.02-.02-.01-.02-.01-.03-.01H5.1l-.02-.01-.03-.01h-.02l-.02-.01h-.13l-.02.01h-.02l-.03.01-.02.01-.03.01-.02.01-.02.01-.03.01-.03-.05.03-.02.03-.01.02-.01.03-.01.03-.01.02-.01h.06l.02-.01h.09l.02.01h.06l.02.01.03.01.03.01.02.01.03.01.02.01.02.02.03.01.02.02.02.01.02.02.02.02.02.02.02.02.02.03.01.02.02.03zm-.21.77l-.03-.05.02-.02.02-.01.02-.02.02-.01.02-.02.02-.02.01-.02.02-.02.01-.02.02-.02.01-.02.01-.02.01-.02.01-.02.01-.03.01-.02v-.02l.01-.03v-.17l-.01-.02v-.03l-.01-.02-.01-.02-.01-.03-.01-.02-.01-.02.05-.03.01.02.01.03.02.02v.03l.01.03.01.02.01.03v.19l-.01.03-.01.03v.02l-.01.03-.01.02-.01.03-.02.02-.01.03-.02.02-.01.02-.02.02-.02.02-.02.02-.02.02-.02.02-.02.02-.03.01-.02.02zm-.78-.21l.06-.03.01.02.02.02.01.03.02.01.01.02.02.02.02.02.02.01.02.02.02.01.02.01.02.01.03.01.02.01.02.01.02.01h.03l.02.01h.05l.02.01h.03l.02-.01h.05l.03-.01h.02l.03-.01.02-.01.02-.01.03-.01.02-.01.03.05-.03.01-.02.02-.03.01-.03.01H5.1l-.03.01-.03.01h-.05l-.03.01h-.03l-.02-.01h-.06l-.02-.01H4.8l-.03-.01-.02-.01-.03-.01-.02-.01-.03-.02-.02-.01-.02-.01-.03-.02-.02-.02-.02-.02-.02-.02-.02-.02-.02-.02-.01-.02-.02-.02-.02-.03zm.21-.77l.03.05-.02.01-.02.02-.02.01-.02.02-.02.02-.02.01-.01.02-.02.02-.01.02-.02.02-.01.02-.01.03-.01.02-.01.02-.01.02v.03l-.01.02v.02l-.01.03V5.16l.01.02v.03l.01.02v.03l.01.02.01.02.01.03.02.02-.06.03-.01-.02-.01-.03-.01-.03-.01-.02-.01-.03-.01-.03v-.03l-.01-.02v-.14L4.39 5v-.02l.01-.03.01-.03.01-.02.01-.03.01-.02.01-.03.01-.02.02-.02.01-.02.02-.03.02-.02.02-.02.02-.02.02-.01.02-.02.03-.02.02-.01z" class="fil1"/></g><g><path d="M5.61 4.1c.26-.15.59-.06.74.19.14.26.06.59-.2.74-.26.14-.59.06-.73-.2-.15-.26-.06-.59.19-.73z" class="fil3"/><path id="1" d="M6.37 4.28l-.05.03-.01-.02-.02-.03-.01-.02-.02-.02-.02-.01-.01-.02-.02-.02-.02-.01-.02-.02-.02-.01-.02-.01-.03-.01-.02-.01-.02-.01-.02-.01-.03-.01h-.02l-.02-.01h-.05l-.03-.01h-.02l-.03.01h-.05l-.02.01h-.02l-.03.01-.02.01-.03.01-.02.01-.02.01-.03-.05.02-.01.03-.02.03-.01.02-.01.03-.01h.03L5.78 4h.06l.03-.01h.02l.03.01h.06l.02.01h.03l.02.01.03.01.03.01.02.01.02.01.03.02.02.01.02.02.03.02.02.01.02.02.02.02.01.03.02.02.02.02.01.03zm-.21.77L6.13 5l.03-.01.02-.02.02-.01.02-.02.02-.02.01-.01.02-.02.01-.02.02-.02.01-.02.01-.02.02-.03.01-.02.01-.02v-.02l.01-.03.01-.02v-.05l.01-.02v-.08l-.01-.02v-.05l-.01-.02-.01-.03-.01-.02-.01-.03-.01-.02-.01-.02.05-.03.02.02.01.03.01.03.01.02.01.03v.03l.01.02v.03l.01.03v.08l-.01.03v.03l-.01.02v.03l-.01.02-.01.03-.01.03-.01.02-.01.02-.02.03-.01.02-.02.02-.01.03-.02.02-.02.02-.02.02-.03.01-.02.02-.02.02-.03.01zm-.77-.21l.05-.03.01.03.02.02.02.02.01.02.02.02.02.01.01.02.02.01.02.02.02.01.03.01.02.02.02.01.02.01h.03l.02.01.02.01h.05l.02.01h.08l.02-.01h.05l.03-.01.02-.01.02-.01.03-.01.02-.01.02-.01.03.05-.02.02-.03.01-.02.01-.03.01-.03.01H6l-.02.01h-.03l-.03.01h-.08l-.03-.01h-.02l-.03-.01h-.03l-.02-.01-.03-.01-.02-.01-.03-.01-.02-.01-.03-.02-.02-.01-.02-.02L5.52 5l-.02-.02-.02-.02-.02-.02-.02-.02-.02-.03-.02-.02-.01-.03zm.21-.77l.03.05-.02.01-.03.02-.02.02-.02.01-.01.02-.02.02-.02.01-.01.02-.02.02-.01.02-.01.03-.01.02-.01.02-.01.02-.01.03-.01.02v.02l-.01.03v.04l-.01.03v.02l.01.03v.05l.01.02v.03l.01.02.01.02.01.03.01.02.01.02-.05.03-.01-.02-.02-.03-.01-.02-.01-.03-.01-.03v-.03l-.01-.02V4.6l-.01-.02v-.03l.01-.03v-.05l.01-.03v-.03l.01-.02.01-.03.01-.02.01-.03.01-.02.02-.03.01-.02.02-.02.02-.02.01-.02.02-.02.02-.02.03-.02.02-.02.02-.02.03-.01z" class="fil1"/></g><g><path d="M3.74 4.08c.26-.14.58-.05.73.2.15.26.06.59-.2.74-.25.14-.58.05-.73-.2-.15-.26-.06-.59.2-.74z" class="fil3"/><path id="1" d="M4.5 4.27l-.05.03-.02-.02-.01-.03-.02-.02-.01-.02-.02-.01-.02-.02-.02-.02-.02-.01-.02-.02-.02-.01-.02-.01-.02-.02-.02-.01h-.02l-.03-.01-.02-.01-.02-.01h-.05l-.03-.01h-.07l-.02.01h-.03l-.02.01h-.03l-.02.01-.03.01-.02.01-.02.01-.03.01-.03-.05.03-.02.03-.01.02-.01.03-.01.03-.01h.02l.03-.01h.03l.02-.01h.09l.02.01h.03l.03.01h.02l.03.01.03.01.02.01.03.01.02.01.02.02.03.01.02.02.02.02.02.01.02.02.02.02.02.03.02.02.01.02.02.03zm-.21.77l-.03-.05.02-.01.02-.02.02-.01.02-.02.02-.02.02-.02.02-.01.01-.02.02-.02.01-.02.01-.03.01-.02.01-.02.01-.02.01-.02.01-.03v-.02l.01-.03v-.17l-.01-.02v-.02l-.01-.03-.01-.02-.01-.03-.01-.02-.01-.02.05-.03.01.02.01.03.02.03.01.02v.03l.01.03.01.02v.19l-.01.03-.01.03v.02l-.01.03-.01.02-.01.03-.02.02-.01.03-.02.02-.01.02-.02.02-.02.03-.02.02-.02.01-.02.02-.02.02-.03.02-.02.01zm-.77-.21l.05-.03.01.02.02.03.01.02.02.02.01.01.02.02.02.02.02.01.02.02.02.01.02.01.02.02.03.01h.02l.02.01.02.01.03.01h.05l.02.01h.07l.03-.01h.02l.03-.01h.02l.03-.01.02-.01.02-.01.03-.01.02-.01.03.05-.03.02-.02.01-.03.01-.03.01-.02.01h-.03l-.03.01h-.02l-.03.01h-.08l-.03-.01h-.03l-.02-.01h-.03l-.03-.01-.02-.01-.03-.01-.02-.01-.03-.01-.02-.02-.02-.01L3.66 5l-.02-.02-.02-.01-.02-.02-.02-.02-.02-.03-.01-.02-.02-.02-.01-.03zm.2-.77l.03.05-.02.01-.02.02-.02.01-.02.02-.02.02-.02.02-.01.01-.02.02-.01.02-.01.02-.02.03-.01.02-.01.02-.01.02-.01.02v.03l-.01.02v.03l-.01.02V4.61l.01.03v.02l.01.02.01.03v.02l.01.03.01.02.02.02-.05.03-.02-.02-.01-.03-.01-.03-.01-.02-.01-.03-.01-.03v-.02l-.01-.03v-.14l.01-.02v-.03l.01-.03.01-.02.01-.03.01-.02.01-.03.01-.02.01-.03.02-.02.02-.02.01-.02.02-.03.02-.02.02-.01.02-.02.03-.02.02-.02.02-.01z" class="fil1"/></g><g><path d="M4.67 3.55c.26-.15.59-.06.74.19.14.26.06.59-.2.74-.26.15-.59.06-.73-.2-.15-.26-.06-.59.19-.73z" class="fil3"/><path id="1" d="M5.43 3.73l-.05.03-.01-.02-.02-.02-.01-.02-.02-.02-.02-.02-.01-.02-.02-.02-.02-.01-.02-.02-.02-.01-.02-.01-.03-.01-.02-.01-.02-.01-.02-.01-.03-.01h-.02l-.02-.01H4.86l-.03.01h-.02l-.03.01-.02.01-.03.01-.02.01-.02.01-.03-.05.02-.01.03-.02.03-.01.02-.01h.03l.03-.01.02-.01h.2l.02.01.03.01h.02l.03.01.03.01.02.01.03.02.02.01.02.01.02.02.03.02.02.02.02.02.02.02.01.02.02.02.02.02.01.03zm-.21.77l-.03-.05.03-.01.02-.02.02-.01.02-.02.02-.01.01-.02.02-.02.02-.02.01-.02.01-.02.02-.02.01-.02.01-.03.01-.02v-.02l.01-.03.01-.02v-.05l.01-.02v-.07l-.01-.03V3.9l-.01-.02-.01-.03-.01-.02-.01-.02-.01-.03-.01-.02.05-.03.02.03.01.02.01.03.01.02.01.03v.03l.01.03v.02l.01.03v.08l-.01.03v.05l-.01.03-.01.03-.01.02-.01.03-.01.02-.01.03-.02.02-.01.02-.02.03-.01.02-.02.02-.02.02-.02.02-.02.02-.03.01-.02.02-.03.01zm-.77-.2l.05-.03.02.02.01.02.02.02.01.02.02.02.02.01.02.02.01.02.02.01.03.01.02.02.02.01.02.01.02.01.03.01h.02l.02.01h.03l.02.01H5l.03-.01h.02l.03-.01.02-.01h.02l.03-.01.02-.02.02-.01.03.05-.02.02-.03.01-.02.01-.03.01-.03.01-.02.01h-.03l-.03.01h-.14l-.02-.01h-.03l-.03-.01-.02-.01-.03-.01-.02-.01-.03-.01-.02-.01-.03-.01-.02-.02-.02-.02-.02-.01-.02-.02-.02-.02-.02-.02-.02-.02-.02-.03-.01-.02-.02-.02zm.21-.78l.03.05-.02.02-.03.01-.02.02-.01.01-.02.02-.02.02-.02.02-.01.02-.02.02-.01.02-.01.02-.01.02-.01.02-.01.02-.01.03-.01.02v.02l-.01.03v.05L4.43 4v.03l.01.02v.05l.01.02v.03l.01.02.01.03.01.02.01.02.01.03-.05.03-.01-.03-.02-.03-.01-.02-.01-.03-.01-.03v-.02l-.01-.03v-.06l-.01-.02V4l.01-.03v-.05l.01-.03v-.03l.01-.02.01-.03.01-.02.01-.03.01-.02.02-.02.01-.03.02-.02.02-.02.02-.02.01-.02.03-.02.02-.02.02-.02.02-.01.03-.02z" class="fil1"/></g><g><path d="M3.74 3.01c.26-.15.59-.06.73.2.15.25.06.58-.19.73-.26.15-.59.06-.74-.2-.15-.25-.06-.58.2-.73z" class="fil3"/><path id="1" d="M4.5 3.19l-.05.03-.02-.02-.01-.02-.02-.02-.01-.02-.02-.02-.02-.02-.02-.01-.02-.02-.02-.01-.02-.02-.02-.01-.02-.01-.02-.01L4.19 3l-.03-.01h-.02l-.02-.01h-.03l-.02-.01H3.95l-.03.01H3.9l-.03.01h-.02L3.83 3l-.03.01-.02.01-.03.02-.02-.06.02-.01.03-.01.02-.01.03-.01.03-.01.02-.01h.03l.03-.01h.14l.02.01h.03l.03.01.02.01h.03l.02.01.03.02.02.01.03.01.02.02.02.01.02.02.02.02.02.02.02.02.02.02.02.02.01.03.02.02zm-.21.78l-.03-.06.02-.01.02-.01.02-.02.02-.02.02-.01.02-.02.02-.02.01-.02.02-.02.01-.02.01-.02.01-.02.01-.02.01-.03.01-.02.01-.02v-.03l.01-.02v-.17l-.01-.03v-.02l-.01-.02-.01-.03-.01-.02-.01-.02-.01-.03.05-.03.01.03.02.02.01.03.01.03v.02l.01.03.01.03v.19l-.01.03v.02l-.01.03-.01.02-.01.03-.01.02-.02.03-.01.02-.01.03-.02.02-.02.02-.02.02-.02.02-.02.02-.02.02-.02.01-.02.02-.03.02zm-.77-.21l.05-.03.01.02.02.02.01.02.02.02.02.02.01.02.02.01.02.02.02.01.02.02.02.01.02.01.03.01.02.01.02.01h.03l.02.01h.02l.03.01H4.07l.02-.01h.03l.02-.01h.03l.02-.01.02-.01.03-.01.02-.02.03.06-.03.01-.02.01-.03.01-.02.01-.03.01-.03.01H4.1l-.02.01h-.14l-.03-.01h-.02l-.03-.01-.03-.01h-.02L3.78 4l-.02-.02-.03-.01-.02-.01-.02-.02-.03-.01-.02-.02-.02-.02-.02-.02-.02-.02-.02-.02-.01-.02-.02-.03-.01-.02zm.21-.78l.02.06-.02.01-.02.01-.02.02-.02.02-.02.01-.01.02-.02.02-.02.02-.01.02-.01.02-.02.02-.01.02-.01.02-.01.03v.02l-.01.02-.01.03v.02l-.01.02v.13l.01.02v.03l.01.02.01.02v.03l.01.02.02.02.01.03-.05.03-.02-.03-.01-.02-.01-.03-.01-.03-.01-.02-.01-.03v-.03l-.01-.03v-.13l.01-.03v-.03l.01-.02.01-.03.01-.02.01-.03.01-.02.01-.03.01-.02.02-.03.02-.02.01-.02.02-.02.02-.02.02-.02.02-.02.03-.02L3.7 3l.03-.02z" class="fil1"/></g><path d="M4.53 8.23L22.69.9c.1-.05.23.01.27.11.04.11-.01.23-.12.27L4.68 8.62c-.1.04-.23-.01-.27-.12-.04-.11.01-.23.12-.27z" class="fil4"/><path d="M4.53 8.23l1.35-.55.16.39-1.36.55c-.1.04-.23-.01-.27-.12-.04-.11.01-.23.12-.27z" class="fil5"/><path d="M2.46 1.53l18.95 4.96c.11.03.23-.04.26-.15.02-.11-.04-.23-.15-.25L2.57 1.13c-.11-.03-.23.04-.26.15-.02.11.04.22.15.25z" class="fil4"/><path d="M2.46 1.53l1.42.37.1-.4-1.41-.37c-.11-.03-.23.04-.26.15-.02.11.04.22.15.25z" class="fil5"/><g><path d="M.85 9.32c.31 0 .55-.25.55-.56 0-.31-.24-.56-.55-.56-.3 0-.54.25-.54.56 0 .31.24.56.54.56zm7.68.24c.3 0 .55-.25.55-.56 0-.31-.25-.56-.55-.56-.3 0-.55.25-.55.56 0 .31.25.56.55.56zm7.97-.21c.3 0 .55-.25.55-.56 0-.31-.25-.56-.55-.56-.31 0-.55.25-.55.56 0 .31.24.56.55.56z" class="fil2"/><path id="1" d="M1.43 8.76v.09l-.01.03v.03l-.01.03-.01.03-.01.02-.01.03-.02.02-.01.03-.01.02-.02.03-.02.02-.02.02-.02.02-.02.02-.02.02-.02.02-.02.01-.02.02-.03.01-.02.02-.03.01-.03.01-.02.01-.03.01H.97l-.03.01H.85v-.06h.08l.03-.01h.02l.03-.01.02-.01.03-.01.02-.01.02-.01.02-.01.02-.02.03-.01.02-.02.01-.01.02-.02.02-.02.02-.02.01-.02.02-.02.01-.02.01-.02.01-.03.01-.02.01-.02.01-.03.01-.02v-.03l.01-.03v-.08h.06zm-.58-.59h.06l.03.01h.03l.03.01.03.01.02.01.03.01.03.01.02.01.03.02.02.01.02.02.02.02.02.02.02.01.02.03.02.02.02.02.02.02.01.03.01.02.02.03.01.02.01.03.01.03.01.02v.03l.01.03v.09h-.06v-.08l-.01-.02v-.03l-.01-.03-.01-.02-.01-.02-.01-.03-.01-.02-.01-.02-.01-.02-.02-.03-.01-.02-.02-.01-.02-.02-.02-.02-.01-.02-.02-.01-.02-.02-.03-.01-.02-.01-.02-.02-.02-.01-.03-.01h-.02l-.03-.01-.02-.01H.93l-.02-.01H.85v-.06zm-.57.59v-.09l.01-.03v-.03l.01-.02.01-.03.01-.03.01-.02.02-.03.01-.02.01-.03.02-.02.02-.02.02-.02.02-.03.02-.01.02-.02.02-.02.02-.02.02-.01.03-.02.02-.01.03-.01.03-.01.02-.01.03-.01.03-.01h.03l.03-.01h.05v.06H.8l-.02.01H.75l-.02.01-.03.01H.68l-.03.01-.02.01-.02.02-.02.01-.03.01-.02.02-.02.01-.01.02-.02.02-.02.02-.02.01-.01.02-.02.03-.01.02-.01.02-.01.02-.01.03-.01.02-.01.02-.01.03v.03l-.01.02v.08H.28zm.57.59H.77l-.03-.01H.71l-.03-.01-.02-.01-.03-.01L.6 9.3l-.02-.02-.03-.01-.02-.02-.02-.01-.02-.02-.02-.02-.02-.02-.02-.02-.02-.02-.02-.02-.02-.03-.01-.02-.01-.03-.02-.02-.01-.03-.01-.02-.01-.03-.01-.03v-.03l-.01-.03v-.09h.06v.08l.01.03v.03l.01.02.01.03.01.02.01.02.01.03.01.02.01.02.02.02.01.02.02.02.02.02.02.02.01.01.02.02.02.01.03.02.02.01.02.01.02.01.03.01.02.01.03.01h.02l.03.01h.07v.06zM9.11 9v.06l-.01.03v.03l-.01.03-.01.03v.03l-.02.02-.01.03-.01.02-.01.03-.02.02-.01.03-.02.02-.02.02-.02.02-.02.02-.02.02-.02.02-.02.01-.03.02-.02.01-.03.02-.02.01-.03.01-.03.01-.02.01h-.03l-.03.01h-.09v-.06h.08l.03-.01h.02l.03-.01.02-.01.02-.01.03-.01.02-.01.02-.01.02-.02.02-.01.02-.02.02-.01.02-.02.02-.02.01-.02.02-.02.01-.02.02-.02.01-.02.01-.03.01-.02.01-.02.01-.03v-.02l.01-.03v-.03l.01-.02V9h.06zm-.58-.59h.06l.03.01h.03l.03.01.02.01.03.01.03.01.02.01.03.01.02.02.03.01.02.02.02.02.02.02.02.02.02.02.02.02.02.02.01.02.02.03.01.02.01.03.01.02.02.03v.03l.01.03.01.02v.03l.01.03V9h-.06v-.05l-.01-.03V8.9l-.01-.03v-.03l-.01-.02-.01-.02L9 8.77l-.01-.02-.01-.02-.02-.02-.01-.02-.02-.02-.01-.02-.02-.02-.02-.02-.02-.02-.02-.01-.02-.02-.02-.01-.02-.01-.02-.02-.03-.01-.02-.01h-.02l-.03-.01-.02-.01h-.03l-.03-.01h-.05v-.06zM7.95 9v-.06l.01-.03v-.03l.01-.02.01-.03.01-.03.01-.03.01-.02.01-.03.02-.02.01-.03.02-.02.01-.02.02-.02.02-.02.02-.02.02-.02.02-.02.03-.02.02-.01.02-.02.03-.01.03-.01.02-.01.03-.01.03-.01.02-.01h.03l.03-.01h.06v.06h-.05l-.03.01h-.02l-.03.01-.02.01h-.03l-.02.01-.02.01-.03.02-.02.01-.02.01-.02.02-.02.01-.02.02-.02.02-.01.02-.02.02-.01.02-.02.02-.01.02-.02.02-.01.02-.01.03-.01.02v.02l-.01.03-.01.03v.02l-.01.03V9h-.06zm.58.59h-.09l-.03-.01h-.02l-.03-.01-.03-.01-.02-.01-.03-.01-.03-.02-.02-.01-.02-.02-.03-.01-.02-.02-.02-.02-.02-.02-.02-.02-.02-.02-.01-.02-.02-.03-.01-.02-.02-.03-.01-.02L8 9.23l-.01-.02-.01-.03-.01-.03-.01-.03v-.03l-.01-.03V9h.06v.06l.01.02v.03l.01.03.01.02v.03l.01.02.01.02.01.03.02.02.01.02.02.02.01.02.02.02.01.02.02.02.02.01.02.02.02.01.02.02.02.01.03.01.02.01.02.01.03.01.02.01h.03l.02.01h.08v.06zm8.55-.8l-.01.03v.06l-.01.03v.03l-.01.03-.01.03-.01.02-.01.03-.01.02-.02.03-.01.02-.02.03-.02.02-.01.02-.02.02-.02.02-.03.02-.02.02-.02.01-.02.02-.03.01-.02.02-.03.01-.02.01-.03.01-.03.01h-.03l-.03.01h-.08v-.06h.08l.02-.01h.03l.02-.01.02-.01.03-.01.02-.01.02-.01.03-.01.02-.02.02-.01.02-.02.02-.01.01-.02.02-.02.02-.02.01-.02.02-.02.01-.02.01-.02.01-.03.01-.02.01-.02.01-.03.01-.02V8.9l.01-.03v-.05l.01-.03h.06zm-.58-.59h.06l.02.01h.03l.03.01.03.01.03.01.02.01.03.01.02.01.03.02.02.01.02.02.02.02.03.02.02.01.02.03.01.02.02.02.02.02.01.03.02.02.01.03.01.02.01.03.01.03.01.03v.02l.01.03v.06l.01.03h-.06l-.01-.02v-.06L17 8.69v-.03l-.01-.03-.01-.02-.01-.02-.01-.03-.01-.02-.01-.02-.01-.02-.02-.03-.01-.02-.02-.01-.02-.02-.01-.02-.02-.02-.02-.01-.02-.02-.02-.01-.03-.01-.02-.02-.02-.01-.03-.01h-.02l-.02-.01-.03-.01h-.02l-.03-.01h-.05V8.2zm-.58.59V8.7l.01-.03v-.02l.01-.03.01-.03.01-.03.01-.02.02-.03.01-.02.02-.03.01-.02.02-.02.02-.02.02-.03.02-.01.02-.02.02-.02.02-.02.03-.01.02-.02.02-.01.03-.01.03-.01.02-.01.03-.01.03-.01h.03l.03-.01h.06v.06h-.06l-.02.01h-.03l-.02.01-.03.01h-.02l-.03.01-.02.01-.02.02-.02.01-.02.01-.02.02-.02.01-.02.02-.02.02-.02.02-.01.01-.02.02-.01.03-.02.02-.01.02-.01.02-.01.03-.01.02-.01.02-.01.03v.03l-.01.02v.08h-.06zm.58.59h-.09l-.03-.01h-.03l-.03-.01-.02-.01-.03-.01-.03-.01-.02-.02-.02-.01-.03-.02-.02-.01-.02-.02-.02-.02-.02-.02-.02-.02-.02-.02-.02-.02-.01-.03L16 9.1l-.01-.03-.02-.02-.01-.03-.01-.02-.01-.03-.01-.03v-.03l-.01-.03v-.09h.06v.08l.01.03v.03l.01.02.01.03.01.02.01.02.01.03.01.02.02.02.01.02.02.02.01.02.02.02.02.02.02.01.02.02.02.01.02.02.02.01.02.01.02.01.03.01.02.01.03.01h.02l.03.01h.08v.06z" class="fil1"/></g></g></g></svg>