<svg xmlns="http://www.w3.org/2000/svg" width="65" height="62" fill-rule="evenodd" clip-rule="evenodd" image-rendering="optimizeQuality" shape-rendering="geometricPrecision" text-rendering="geometricPrecision" viewBox="0 0 4.62 4.4"><defs><style>.fil7{fill:#f5b2b6}.fil4{fill:#f08bb2}.fil5{fill:#c5e3d7}.fil0{fill:#c4d985}.fil6{fill:#a1b567}.fil2{fill:#99cfba}.fil1{fill:#2b2a29;fill-rule:nonzero}</style></defs><g id="Слой_x0020_1"><g id="_613700432"><path d="M.35 2.92l1.94.52 2.16-1.09-2.59-.58z" class="fil0"/><path id="1" d="M2.28 3.45L.34 2.93l.01-.02 1.94.52v.02h-.01zm.01 0h-.01.01zm2.16-1.09L2.29 3.45l-.01-.02 2.16-1.09h.01v.02zm0-.02l.03.01-.03.01v-.02zm-2.58-.58l2.58.58-.01.02-2.58-.58v-.02h.01zm-.01 0h.01-.01zM.34 2.91l1.52-1.15.01.02L.35 2.93H.34v-.02zm0 .02H.32l.02-.02v.02z" class="fil1"/><path d="M.28 2.32l2.95-.19.81-.94L1.35.92z" class="fil2"/><path id="1" fill="#f08bb2" fill-rule="nonzero" d="M3.24 2.15l-2.96.18v-.02l2.95-.19.01.02v.01zm0-.01v.01-.01zm.81-.95l-.81.95-.01-.01.81-.95.01-.01v.02zm0-.02l.02.01-.02.01v-.02zM1.35.91l2.7.26-.01.03L1.35.93 1.34.91h.01zm-.01 0h.01-.01zM.27 2.32L1.34.91l.02.02-1.07 1.4H.28l-.01-.01zm.01.01H.25l.02-.01.01.01z"/><path d="M.03.81l1.31.64 2.74-.9L2.64.01z" class="fil4"/><path id="1" d="M1.34 1.46L.03.82.04.8l1.31.64v.02h-.01zm.01 0h-.01.01zm2.73-.9l-2.73.9-.01-.02 2.73-.9h.01v.02zm0-.02l.03.01-.03.01V.54zM2.64 0l1.44.54-.01.02L2.63.02V0h.01zm-.01 0h.01-.01zM.03.8l2.6-.8.01.02-2.61.8V.8zm0 .02L0 .81.03.8v.02z" class="fil1"/><path d="M.03.81l1.31.64.96-.31L.98.52z" class="fil5"/><path id="1" d="M1.34 1.46L.03.82.04.8l1.31.64v.02h-.01zm.01 0h-.01.01zm.95-.31l-.95.31-.01-.02.95-.32.01.01v.02zm0-.02l.03.01-.03.01v-.02zM.98.51l1.32.62-.01.02L.97.53.98.51zm0 0zM.03.8L.98.51v.02L.03.82V.8zm0 .02L0 .81.03.8v.02z" class="fil1"/><path d="M.88 1.22l.46.23.96-.31-.49-.23z" class="fil5"/><path id="1" d="M1.34 1.46l-.47-.23.01-.02.47.23v.02h-.01zm.01 0h-.01.01zm.95-.31l-.95.31-.01-.02.95-.32.01.01v.02zm0-.02l.03.01-.03.01v-.02zM1.82.9l.48.23-.01.02-.48-.23V.9h.01zm-.01 0h.01-.01zm-.93.31L1.81.9l.01.02-.94.31H.87l.01-.02zm-.01.02l-.02-.01.03-.01-.01.02z" class="fil1"/><path d="M2.3 3.45l.16.93 2.15-1.16-.16-.87z" class="fil2"/><path id="1" d="M2.45 4.39l-.16-.94h.02l.16.93-.01.01h-.01zm.01 0l-.01.01v-.01h.01zm2.15-1.16L2.46 4.39l-.01-.02L4.6 3.21l.02.01-.01.01zm.01-.01l-.01.01.01-.01zm-.16-.87l.16.87H4.6l-.17-.87.01-.01.02.01zm-.02-.01h.01l.01.01-.02-.01zM2.3 3.44l2.14-1.1.01.02-2.14 1.1-.02-.01.01-.01zm-.01.01v-.01h.01l-.01.01z" class="fil1"/><path d="M3.94 3.58l.67-.36-.16-.87-.67.34z" class="fil6"/><path id="1" d="M4.61 3.23l-.67.36-.01-.02.67-.36.02.01-.01.01zm.01-.01l-.01.01.01-.01zm-.16-.87l.16.87H4.6l-.17-.87.01-.01.02.01zm-.02-.01h.01l.01.01-.02-.01zm-.67.34l.67-.34.01.02-.67.34h-.01v-.02zm0 .02l-.01-.01.01-.01v.02zm.15.89l-.15-.89.02-.01.16.89-.01.01h-.02zm.02 0l-.01.01-.01-.01h.02z" class="fil1"/><path d="M2.3 3.45l.16.93.75-.41-.16-.91z" class="fil6"/><path id="1" d="M2.45 4.39l-.16-.94h.02l.16.93-.01.01h-.01zm.01 0l-.01.01v-.01h.01zm.76-.41l-.76.41-.01-.02.76-.41.01.01v.01zm0-.01l.01.01h-.01v-.01zm-.16-.91l.16.91-.02.01-.16-.91.01-.02.01.01zm-.01-.01h.01v.01l-.01-.01zm-.75.39l.75-.39.01.02-.75.39-.02-.01.01-.01zm-.01.01v-.01h.01l-.01.01z" class="fil1"/><path d="M2.3 3.45l.16.93-1.99-.54-.12-.92z" class="fil6"/><path id="1" d="M2.47 4.38l-.02.01-.16-.94h.02l.16.93zm0 0v.02l-.02-.01.02-.01zm-2-.53l-.01-.01.02-.01 1.98.54-.01.02-1.98-.54zm0 0H.46v-.01l.01.01zm-.13-.93l.01-.01.01.01.12.92H.46l-.12-.92zm0 0l-.01-.01h.02l-.01.01zm1.96.52l.01.01-.01.01-1.96-.53.01-.02 1.95.53zm0 0h.01v.01l-.01-.01z" class="fil1"/><path d="M1.08 4l-.61-.16-.12-.92.59.16z" class="fil2"/><path id="1" d="M.48 3.83l.61.16-.01.03-.61-.17-.01-.01.02-.01zm-.01.02H.46v-.01l.01.01zm-.11-.93l.12.92H.46l-.12-.92.01-.01.01.01zm-.02 0l-.01-.01h.02l-.01.01zm.6.17l-.6-.16.01-.02.6.16.01.01-.02.01zm.01-.02l.01.01-.01-.01zm.12.94l-.14-.93h.03l.13.92-.01.02-.01-.01zM1.09 4l.01.02h-.02L1.09 4z" class="fil1"/><path d="M2.3 3.45l.16.93-.71-.19-.14-.93z" class="fil2"/><path id="1" d="M2.45 4.39l-.16-.94h.02l.16.93-.02.01zm.02-.01v.02l-.02-.01.02-.01zm-.71-.2l.7.19-.01.02-.7-.19-.01-.01.02-.01zm-.01.02h-.01v-.01l.01.01zm-.13-.94l.14.93h-.02l-.14-.93.02-.01v.01zm-.02 0v-.01h.02l-.02.01zm.7.2l-.69-.19.01-.02.68.19.01.01-.01.01zm0-.02h.01v.01l-.01-.01z" class="fil1"/><path d="M1.44 2.4l-.11-.95h.03l.11.95-.01.01-.02-.01zm.02.01l-.02.01V2.4l.02.01zm2.72-.92l-2.72.92-.01-.02 2.72-.92.02.01-.01.01zm.01-.01v.01h-.01l.01-.01zm-.1-.93l.1.93h-.03L4.07.55V.54l.02.01zM4.07.54h.02v.01L4.07.54zm-2.73.9l2.73-.9.01.02-2.73.9-.02-.01.01-.01zm-.01.01v-.01h.01l-.01.01z" class="fil1"/><path d="M1.34 1.45l.07.57.32.29 2.45-.83-.1-.93z" class="fil4"/><path id="1" d="M1.4 2.02l-.07-.57h.03l.06.57-.02.01v-.01zm0 .01v-.01.01zm.32.29l-.32-.29.02-.02.32.29-.01.02h-.01zm.01 0h-.01.01zm2.45-.83l-2.45.83V2.3l2.44-.83.02.01-.01.01zm.01-.01v.01h-.01l.01-.01zm-.1-.93l.1.93h-.03L4.07.55V.54l.02.01zM4.07.54h.02v.01L4.07.54zm-2.73.9l2.73-.9.01.02-2.73.9-.02-.01.01-.01zm-.01.01v-.01h.01l-.01.01z" class="fil1"/><path d="M1.34 1.45l.11.95L.2 1.74.03.81z" class="fil5"/><path id="1" d="M1.47 2.4l-.02.01-.01-.01-.11-.95h.03l.11.95zm0 0v.02l-.02-.01.02-.01zM.19 1.75H.18l.02-.02 1.26.66-.01.02-1.26-.66zm0 0H.18h.01zM.02.82L.04.8v.01l.17.93-.03.01L.02.82zm0 0V.79L.04.8.02.82zm1.33.62l.01.01-.02.01L.03.82.04.8l1.31.64zm0 0h.01v.01l-.01-.01z" class="fil1"/><path d="M.61 1.96L.2 1.74.03.81l.44.21z" class="fil2"/><path id="1" d="M.2 1.73l.41.22-.01.02-.41-.22H.18l.02-.02zm-.01.02H.18h.01zM.04.81l.17.93-.03.01L.02.82.04.8v.01zM.02.82V.79L.04.8.02.82zm.44.21L.03.82.04.8l.43.21.01.01-.02.01zm.01-.02l.01.01-.01-.01zm.13.95l-.14-.93.02-.01.14.94-.02.01v-.01zm.02 0v.02L.6 1.97l.02-.01z" class="fil1"/><path d="M.28 2.32l.96-.06.19.96-.92.05z" class="fil0"/><path id="1" d="M1.24 2.27l-.96.06v-.02l.96-.06.01.01-.01.01zm0-.02h.01v.01l-.01-.01zm.18.97l-.19-.96h.02l.19.96-.01.01-.01-.01zm.02 0v.01h-.01l.01-.01zm-.93.04l.92-.05v.02l-.92.05-.01-.01.01-.01zm0 .02H.5v-.01l.01.01zm-.22-.96l.23.95H.5l-.23-.95.01-.01.01.01zm-.02 0l-.01-.01h.02l-.01.01z" class="fil1"/><g><path d="M3.23 2.13l.81-.94.14.81-.75 1.11z" class="fil4"/><path id="1" d="M4.05 1.19l-.81.95-.01-.01.81-.95h.02l-.01.01zm-.01-.01l.01-.02.01.02h-.02zm.13.82l-.14-.81.03-.01.13.81V2h-.02zm.02-.01L4.2 2h-.01v-.01zM3.42 3.1l.75-1.11.02.01-.75 1.11h-.02V3.1zm.02.01l-.02.03v-.03h.02zm-.19-.98l.19.98h-.02l-.2-.97.01-.01h.02zm-.03.01v-.01h.01l-.01.01z" class="fil1"/></g><g><path d="M3.23 2.13l.32-.36.18.89-.3.45z" class="fil7"/><path id="1" d="M3.56 1.77l-.32.37-.01-.01.31-.37h.02v.01zm-.02-.01l.02-.02v.02h-.02zm.18.9l-.18-.89.02-.01.18.9v.01l-.02-.01zm.02 0v.01-.01zm-.32.44l.3-.45.02.02-.3.44h-.02V3.1zm.02.01l-.02.03v-.03h.02zm-.19-.98l.19.98h-.02l-.2-.97.01-.01h.02zm-.03.01v-.01h.01l-.01.01z" class="fil1"/></g><g><path d="M3.84 1.42l.2-.23.14.81-.17.25z" class="fil6"/><path id="1" d="M4.05 1.19l-.2.24-.02-.01.21-.24h.02l-.01.01zm-.01-.01l.01-.02.01.02h-.02zm.13.82l-.14-.81.03-.01.13.81V2h-.02zm.02-.01L4.2 2h-.01v-.01zM4 2.24l.17-.25.02.01-.17.25H4v-.01zm.02.01l-.01.03L4 2.25h.02zm-.17-.83l.17.83H4l-.17-.83h.02zm-.02 0z" class="fil1"/></g><g><path d="M3.24 2.15l-2.96.18v-.02l2.95-.19.02.01-.01.02zm-.01-.03h.01l.01.01-.02-.01zm.19.99l-.2-.97.03-.01.19.98-.01.01-.01-.01zm.02 0v.01h-.01l.01-.01zm-2.93.15l2.92-.16v.02l-2.92.16-.01-.01.01-.01zm0 .02H.5v-.01l.01.01zm-.22-.96l.23.95H.5l-.23-.95.01-.01.01.01zm-.02 0l-.01-.01h.02l-.01.01z" class="fil1"/></g><g><path d="M1.34 1.45l.11.95.93-.31-.09-.95z" class="fil7"/><path id="1" d="M1.44 2.4l-.11-.95h.03l.11.95-.01.01-.02-.01zm.02.01l-.02.01V2.4l.02.01zm.93-.31l-.93.31-.01-.02.93-.31.01.01v.01zm0-.01h.01l-.01.01v-.01zm-.09-.95l.09.95h-.02l-.09-.95.01-.01.01.01zm-.01-.01l.01-.01v.02l-.01-.01zm-.95.31l.95-.31v.02l-.94.31-.02-.01.01-.01zm-.01.01v-.01h.01l-.01.01z" class="fil1"/></g><g><path d="M1.34 1.45l.11.95-.43-.22-.14-.96z" class="fil5"/><path id="1" d="M1.44 2.4l-.11-.95h.03l.11.95-.02.01-.01-.01zm.03 0v.02l-.02-.01.02-.01zm-.44-.23l.43.22-.01.02-.43-.22-.01-.01.02-.01zm-.01.02l-.01-.01.01.01zm-.13-.97l.14.96h-.02l-.14-.96.01-.01.01.01zm-.02 0V1.2l.01.01-.01.01zm.47.24l-.47-.23.01-.02.47.23.01.01-.02.01zm.01-.02h.01v.01l-.01-.01z" class="fil1"/></g><g><path d="M2.3 1.14L1.81.91 2.75.6l.53.21z" class="fil4"/><path id="1" d="M1.82.9l.48.23-.01.02-.48-.23V.9h.01zm-.01.02L1.78.91 1.81.9v.02zm.94-.31l-.93.31L1.81.9l.93-.32h.01v.03zM2.74.58h.01-.01zm.54.24L2.74.61l.01-.03.53.22v.02zm0-.02l.03.01-.03.01V.8zm-.99.32L3.28.8v.02l-.98.33h-.01v-.03zm.01.03h-.01.01z" class="fil1"/></g><g><path d="M.03.81l.45.22L3.09.18 2.64.01z" class="fil7"/><path id="1" d="M.47 1.04L.03.82.04.8l.44.22v.02H.47zm.01 0H.47h.01zM3.09.19l-2.61.85v-.02L3.09.17v.02zm0-.02l.03.01-.03.01V.17zM2.64 0l.45.17-.01.02-.45-.17V0h.01zm-.01 0h.01-.01zM.03.8l2.6-.8.01.02-2.61.8V.8zm0 .02L0 .81.03.8v.02z" class="fil1"/></g><g><path d="M.03.81l.45.22.94-.3L.98.52z" class="fil7"/><path id="1" d="M.47 1.04L.03.82.04.8l.44.22v.02H.47zm.01 0H.47h.01zm.94-.3l-.94.3v-.02l.93-.31.01.01v.02zm0-.02l.03.01-.03.01V.72zM.98.51l.44.21-.01.02L.97.53.98.51zm0 0zM.03.8L.98.51v.02L.03.82V.8zm0 .02L0 .81.03.8v.02z" class="fil1"/></g><g><path d="M3.27.82l.81-.27L2.64.01 1.9.24z" class="fil7"/><path id="1" d="M4.08.56l-.81.27V.81l.8-.27h.01v.02zm0-.02l.03.01-.03.01V.54zM2.64 0l1.44.54-.01.02L2.63.02V0h.01zm-.01 0h.01-.01zm-.74.23L2.63 0l.01.02-.74.23h-.01V.23zm0 .02L1.86.24l.03-.01v.02zm1.38.58L1.89.25 1.9.23l1.37.58v.02zm0 0z" class="fil1"/></g><g><path d="M3.27.82l.81-.27-.57-.21-.76.26z" class="fil7"/><path id="1" d="M4.08.56l-.81.27V.81l.8-.27h.01v.02zm0-.02l.03.01-.03.01V.54zM3.51.33l.57.21-.01.02-.56-.21V.33zm0 0zm-.77.26l.77-.26v.02l-.76.26h-.01V.59zm0 .02L2.71.59h.03v.02zm.53.22L2.74.61l.01-.02.52.22v.02zm0 0z" class="fil1"/></g><g><path d="M2.34.43l.75-.25-.45-.17-.74.23z" class="fil7"/><path id="1" d="M3.09.19l-.75.25V.41l.75-.24v.02zm0-.02l.03.01-.03.01V.17zM2.64 0l.45.17-.01.02-.45-.17V0h.01zm-.01 0h.01-.01zm-.74.23L2.63 0l.01.02-.74.23h-.01V.23zm0 .02L1.86.24l.03-.01v.02zm.44.19L1.89.25 1.9.23l.44.19v.02h-.01zm.01 0h-.01.01z" class="fil1"/></g><g><path d="M3.37 1.75l.81-.27-.1-.93-.8.26z" class="fil4"/><path id="1" d="M4.18 1.49l-.81.27v-.02l.8-.27.02.01-.01.01zm.01-.01v.01h-.01l.01-.01zm-.1-.93l.1.93h-.03L4.07.55V.54l.02.01zM4.07.54h.02v.01L4.07.54zM3.28.8l.79-.26.01.02-.8.26-.01-.01.01-.01zm-.01.01V.8h.01l-.01.01zm.09.94L3.27.81h.02l.09.94-.01.01-.01-.01zm.01.01l-.01.01v-.02l.01.01z" class="fil1"/></g><g><path d="M2.29 2.19l.94-.06.2.98-.95.05z" class="fil6"/><path id="1" d="M3.24 2.15l-.95.06v-.03l.94-.06.02.01-.01.02zm-.01-.03h.01l.01.01-.02-.01zm.19.99l-.2-.97.03-.01.19.98-.01.01-.01-.01zm.02 0v.01h-.01l.01-.01zm-.96.04l.95-.05v.02l-.95.05-.01-.01.01-.01zm0 .02h-.01v-.01l.01.01zm-.18-.98l.19.97h-.02l-.19-.96.01-.02.01.01zm-.02.01v-.02h.01l-.01.02z" class="fil1"/></g></g></g></svg>