<svg xmlns="http://www.w3.org/2000/svg" width="111" height="65" fill-rule="evenodd" clip-rule="evenodd" image-rendering="optimizeQuality" shape-rendering="geometricPrecision" text-rendering="geometricPrecision" viewBox="0 0 14.23 8.35"><defs><style>.fil4{fill:#f5b2b6}.fil7{fill:#f08bb2}.fil5{fill:#c5e3d7}.fil0{fill:#c4d985}.fil2{fill:#a1b567}.fil6{fill:#99cfba}.fil1,.fil3{fill:#fefefe;fill-rule:nonzero}.fil1{fill:#2b2a29}</style></defs><g id="Слой_x0020_1"><g id="_761750912"><path d="M6.27 5.56h2.4c.14 0 .26.12.26.26v2.25c0 .14-.12.26-.26.26h-2.4c-.14 0-.25-.12-.25-.26V5.82c0-.14.11-.26.25-.26z" class="fil0"/><path id="1" d="M8.67 5.58h-2.4v-.04h2.4v.04zm.28.24h-.04V5.8l-.01-.02v-.03l-.01-.01v-.01l-.01-.01v-.01l-.01-.01v-.01l-.01-.01-.01-.01v-.01l-.01-.01h-.01l-.01-.01-.01-.01-.01-.01h-.01l-.01-.01h-.01l-.01-.01h-.01l-.01-.01h-.03l-.01-.01h-.03v-.04h.04l.02.01h.02l.02.01h.01l.01.01h.01l.02.01.01.01.01.01h.01l.01.01.01.01.01.01.01.01v.01l.01.01.01.01.01.02v.01l.01.01v.01l.01.02v.02l.01.02v.04zm-.04 2.25V5.82h.04v2.25h-.04zm-.24.28V8.3H8.73l.01-.01h.02l.01-.01h.01l.01-.01.01-.01h.01l.01-.01.01-.01.01-.01h.01v-.01l.01-.01.01-.01v-.01l.01-.01v-.01l.01-.01v-.01l.01-.01V8.1l.01-.01v-.02h.04v.04l-.01.01v.03l-.01.01v.02l-.01.01v.01l-.01.01-.01.01-.01.01v.02l-.01.01-.01.01h-.01l-.01.01-.01.01-.01.01-.01.01H8.8l-.01.01-.01.01h-.03l-.01.01h-.03l-.01.01h-.03zm-2.4-.05h2.4v.05h-2.4V8.3zm-.28-.23h.05V8.13l.01.01v.01l.01.01v.01l.01.01v.01l.01.01v.01l.01.01.01.01h.01v.01l.01.01.01.01h.01l.01.01.01.01h.01l.01.01h.02l.01.01H6.27v.05h-.03l-.01-.01H6.2l-.01-.01h-.03l-.01-.01-.01-.01h-.01l-.01-.01-.01-.01-.01-.01-.01-.01h-.01l-.01-.01-.01-.01-.01-.02-.01-.01-.01-.01V8.2l-.01-.01v-.01l-.01-.02v-.01L6 8.14v-.03l-.01-.01v-.03zm.05-2.25v2.25h-.05V5.82h.05zm.23-.28v.04h-.02l-.01.01H6.2l-.01.01h-.01l-.01.01h-.01l-.01.01h-.01l-.01.01-.01.01-.01.01-.01.01-.01.01-.01.01v.01l-.01.01v.01l-.01.01v.01l-.01.01v.01l-.01.01V5.82h-.05V5.8L6 5.79v-.04l.01-.01v-.02l.01-.01V5.7l.01-.01v-.02l.01-.01.01-.01.01-.01.01-.01.01-.01.01-.01.01-.01h.01l.01-.01.01-.01.01-.01h.01l.01-.01h.02l.01-.01h.03l.01-.01h.04z" class="fil1"/><path d="M5.91 5.56h-.89c-.05 0-.1.05-.1.1v2.56c0 .06.05.11.1.11h.89c.06 0 .11-.05.11-.11V5.66c0-.05-.05-.1-.11-.1z" class="fil2"/><path id="1" d="M5.02 5.54h.89v.04h-.89v-.04zm-.08.12H4.9v-.03h.01v-.02l.01-.01.01-.01v-.01h.01v-.01h.01v-.01h.02v-.01h.02v-.01h.03v.04h-.01v.01h-.02l-.01.01h-.01v.01h-.01v.01l-.01.01v.02l-.01.01zM4.9 8.22V5.66h.04v2.56H4.9zm.12.08v.05h-.01L5 8.34h-.02l-.01-.01h-.01l-.01-.01-.01-.01h-.01V8.3l-.01-.01v-.01h-.01v-.02l-.01-.01v-.03h.04v.01l.01.01v.02l.01.01.01.01v.01h.02v.01h.03zm.89.05h-.89V8.3h.89v.05zm.08-.13h.05v.02l-.01.01v.02l-.01.01v.01l-.01.01-.01.01-.01.01-.01.01h-.01l-.01.01h-.02l-.01.01h-.02V8.3h.04v-.01h.01l.01-.01.01-.01v-.01h.01v-.04zm.05-2.56v2.56h-.05V5.66h.05zm-.13-.08v-.04h.03l.01.01h.02v.01h.02v.01H6v.01l.01.01.01.01v.01l.01.01v.02h.01v.02h-.05v-.03h-.01v-.02h-.01V5.6h-.01l-.01-.01h-.02v-.01h-.02z" class="fil1"/><path d="M7.72 7.49h-.51l-.08.3c-.01.02-.02.03-.02.04-.01.01-.03.01-.06.01h-.38c-.02 0-.03 0-.03-.01-.01-.01-.01-.02 0-.03l.5-1.6c.02-.06.05-.11.08-.13.04-.02.08-.03.14-.03h.21c.03 0 .06 0 .08.01.02 0 .04.01.06.02.02.01.04.02.05.04.02.02.03.05.04.09l.51 1.6v.03c0 .01-.02.01-.04.01h-.44c-.01-.01-.02-.02-.02-.04l-.09-.31zm-.4-.38h.3l-.05-.2-.09-.37h-.02l-.08.38-.06.19z" class="fil3"/><path d="M5.39 2.82h2.4c.14 0 .26.12.26.26v2.25c0 .14-.12.25-.26.25h-2.4c-.14 0-.25-.11-.25-.25V3.08c0-.14.11-.26.25-.26z" class="fil4"/><path id="1" d="M7.79 2.84h-2.4V2.8h2.4v.04zm.28.24h-.04v-.04l-.01-.01v-.02L8.01 3v-.02L8 2.97l-.01-.01v-.01l-.01-.01-.01-.01v-.01l-.01-.01-.01-.01h-.01l-.01-.01-.01-.01h-.01v-.01h-.02l-.01-.01h-.01l-.01-.01h-.02l-.01-.01h-.04V2.8H7.85l.01.01h.02l.01.01h.01l.01.01h.02l.01.01.01.01h.01l.01.01.01.01.01.01.01.01.01.01.01.01v.01l.01.01.01.01v.02l.01.01.01.01v.03l.01.01v.06zm-.04 2.25V3.08h.04v2.25h-.04zm-.24.28v-.05h.05l.01-.01h.02l.01-.01h.01l.02-.01.01-.01.01-.01h.01l.01-.01.01-.01.01-.01.01-.01.01-.01v-.01L8 5.44l.01-.01v-.02l.01-.01v-.03l.01-.01v-.03h.04v.05l-.01.02v.02l-.01.01-.01.02v.01l-.01.01-.01.01v.01l-.01.01-.01.01-.01.01-.01.01-.01.01-.01.01-.01.01h-.01l-.01.01-.02.01H7.9l-.01.01h-.01l-.02.01h-.05l-.02.01zm-2.4-.05h2.4v.05h-2.4v-.05zm-.27-.23h.04v.04l.01.01v.03l.01.01v.01l.01.01v.01l.01.01.01.01v.01h.01l.01.01.01.01v.01h.01l.01.01.01.01h.01l.01.01h.01l.01.01h.03l.01.01h.04v.05l-.01-.01h-.06l-.01-.01H5.3l-.01-.01h-.02l-.01-.01-.01-.01h-.01l-.01-.01-.01-.01-.01-.01-.01-.01-.01-.01-.01-.01-.01-.01-.01-.01v-.01l-.01-.01-.01-.01v-.02l-.01-.01v-.01l-.01-.01v-.07zm.04-2.25v2.25h-.04V3.08h.04zm.23-.28v.04h-.03l-.01.01h-.03l-.01.01H5.3l-.01.01h-.01l-.01.01h-.01l-.01.01-.01.01-.01.01-.01.01-.01.01v.01l-.01.01-.01.01v.01l-.01.01v.01L5.17 3v.02l-.01.01v.05h-.04v-.07l.01-.02v-.01l.01-.01v-.01l.01-.02.01-.01v-.01l.01-.01.01-.01.01-.01.01-.01.01-.01.01-.01.01-.01h.01l.01-.01.01-.01h.01l.02-.01h.01l.01-.01h.01l.02-.01h.05z" class="fil1"/><path d="M11.56 5.5h2.4c.14 0 .25.11.25.26V8c0 .15-.11.26-.25.26h-2.4c-.14 0-.26-.11-.26-.26V5.76c0-.15.12-.26.26-.26z" class="fil5"/><path id="1" d="M13.96 5.52h-2.4v-.04h2.4v.04zm.27.24h-.04v-.05l-.01-.01v-.03l-.01-.01v-.01l-.01-.01v-.01l-.01-.01-.01-.01-.01-.01-.01-.01-.01-.01v-.01h-.01l-.01-.01-.01-.01h-.01l-.01-.01h-.01l-.01-.01h-.03L14 5.52h-.04v-.04h.05l.02.01h.02l.01.01h.02l.01.01.01.01h.01l.01.01.01.01.01.01.01.01.01.01.01.01.01.01.01.01v.01l.01.01.01.01v.02l.01.01v.01l.01.02v.07zM14.19 8V5.76h.04V8h-.04zm-.23.28v-.04H14l.01-.01h.03l.01-.01h.01l.01-.01h.01l.01-.01.01-.01h.01v-.01l.01-.01.01-.01.01-.01v-.01h.01l.01-.01v-.01l.01-.01V8.1l.01-.01v-.03l.01-.01V8h.04v.07l-.01.02v.01l-.01.01v.02l-.01.01-.01.01v.01l-.01.01-.01.01-.01.01-.01.01-.01.01-.01.01-.01.01-.01.01h-.01l-.01.01-.01.01h-.02l-.01.01h-.02l-.02.01h-.05zm-2.4-.04h2.4v.04h-2.4v-.04zM11.28 8h.04v.04l.01.01v.02l.01.02v.02l.01.01.01.01v.01h.01l.01.01v.01l.01.01.01.01.01.01h.01l.01.01.01.01.01.01h.02l.01.01h.02l.01.01h.05v.04H11.5l-.01-.01h-.03l-.01-.01h-.01l-.02-.01-.01-.01h-.01l-.01-.01-.01-.01-.01-.01-.01-.01-.01-.01-.01-.01-.01-.01v-.01l-.01-.01-.01-.01v-.01l-.01-.02V8.1l-.01-.01v-.02l-.01-.01V8zm.04-2.24V8h-.04V5.76h.04zm.24-.28v.04h-.05l-.01.01h-.02l-.01.01h-.02l-.01.01-.01.01-.01.01h-.01l-.01.01-.01.01-.01.01v.01h-.01l-.01.01v.01l-.01.01-.01.01v.02l-.01.02v.02l-.01.01v.04h-.04V5.7l.01-.01v-.02l.01-.01v-.01l.01-.02v-.01l.01-.01.01-.01v-.01l.01-.01.01-.01.01-.01.01-.01.01-.01.01-.01.01-.01h.01l.01-.01.02-.01h.01l.01-.01h.03l.01-.01h.06z" class="fil1"/><path d="M11.2 5.5h-.89c-.06 0-.1.04-.1.1v2.56c0 .06.04.1.1.1h.89c.05 0 .1-.04.1-.1V5.6c0-.06-.05-.1-.1-.1z" class="fil6"/><path id="1" d="M10.31 5.48h.89v.04h-.89v-.04zm-.08.12h-.04v-.04l.01-.01v-.01l.01-.01v-.01h.01v-.01h.01V5.5h.01l.01-.01h.01l.01-.01h.04v.04h-.03v.01h-.02v.01h-.01v.01h-.01v.02h-.01v.03zm-.04 2.56V5.6h.04v2.56h-.04zm.12.08v.04h-.04l-.01-.01h-.01l-.01-.01h-.01v-.01h-.01v-.01h-.01v-.01l-.01-.01v-.01l-.01-.01v-.04h.04v.03h.01v.02h.01v.01h.01v.01h.02v.01h.03zm.89.04h-.89v-.04h.89v.04zm.08-.12h.04v.04h-.01v.02h-.01v.01l-.01.01v.01h-.01v.01h-.01l-.01.01h-.01l-.01.01h-.04v-.04h.03v-.01h.01l.01-.01.01-.01V8.2h.01v-.02h.01v-.02zm.04-2.56v2.56h-.04V5.6h.04zm-.12-.08v-.04h.04l.01.01h.01l.01.01h.01v.01l.01.01.01.01v.01h.01v.02h.01v.04h-.04v-.02h-.01v-.02h-.01v-.01l-.01-.01-.01-.01h-.01v-.01h-.03z" class="fil1"/><path d="M9.88 2.78h2.39c.15 0 .26.11.26.26v2.24c0 .15-.11.26-.26.26H9.88c-.15 0-.26-.11-.26-.26V3.04c0-.15.11-.26.26-.26z" class="fil0"/><path id="1" d="M12.27 2.8H9.88v-.04h2.39v.04zm.28.24h-.04v-.05l-.01-.01v-.03l-.01-.01v-.01l-.01-.01v-.01l-.01-.01h-.01v-.01l-.01-.01-.01-.01-.01-.01-.01-.01-.01-.01-.01-.01h-.01l-.01-.01h-.01l-.01-.01h-.03l-.01-.01h-.05v-.04H12.33l.01.01h.03l.01.01h.02l.01.01.01.01h.01l.01.01.01.01.01.01.01.01.01.01.01.01.01.01.01.01v.01l.01.01.01.02v.01l.01.01v.03l.01.01v.06zm-.04 2.24V3.04h.04v2.24h-.04zm-.24.28v-.04h.05l.01-.01h.03l.01-.01h.01l.01-.01h.01l.01-.01.01-.01.01-.01.01-.01.01-.01.01-.01.01-.01.01-.01V5.4l.01-.01v-.01l.01-.01v-.03l.01-.01v-.05h.04V5.34l-.01.01v.03l-.01.01v.02l-.01.01-.01.01v.01l-.01.01-.01.01-.01.01-.01.01-.01.01-.01.01-.01.01-.01.01h-.01l-.01.01-.01.01h-.02l-.01.01h-.03l-.01.01h-.06zm-2.39-.04h2.39v.04H9.88v-.04zm-.28-.24h.04v.05l.01.01v.03l.01.01v.01l.01.01v.01l.01.01.01.01.01.01.01.01.01.01.01.01.01.01.01.01h.01l.01.01h.01l.01.01h.03l.01.01h.05v.04H9.82l-.01-.01h-.03l-.01-.01h-.02l-.01-.01-.01-.01h-.01l-.01-.01-.01-.01-.01-.01-.01-.01-.01-.01-.01-.01-.01-.01-.01-.01v-.01l-.01-.01-.01-.01v-.02l-.01-.01v-.03l-.01-.01v-.06zm.04-2.24v2.24H9.6V3.04h.04zm.24-.28v.04h-.05l-.01.01h-.03l-.01.01h-.01l-.01.01h-.01l-.01.01-.01.01-.01.01-.01.01-.01.01-.01.01v.01h-.01l-.01.01v.01l-.01.01v.01l-.01.01v.03l-.01.01v.05H9.6V2.98l.01-.01v-.03l.01-.01v-.01l.01-.02.01-.01v-.01l.01-.01.01-.01.01-.01.01-.01.01-.01.01-.01.01-.01.01-.01h.01l.01-.01.01-.01h.02l.01-.01h.03l.01-.01h.06z" class="fil1"/><path d="M9.52 2.78h-.89c-.06 0-.1.04-.1.1v2.56c0 .06.04.1.1.1h.89c.05 0 .1-.04.1-.1V2.88c0-.06-.05-.1-.1-.1z" class="fil2"/><path id="1" d="M8.63 2.76h.89v.04h-.89v-.04zm-.08.12H8.5v-.01l.01-.01v-.03h.01v-.01l.01-.01V2.8h.01v-.01h.01v-.01h.01v-.01h.02l.01-.01h.04v.04H8.6v.01h-.02v.01h-.01v.01h-.01v.02h-.01v.03zM8.5 5.44V2.88h.05v2.56H8.5zm.13.08v.04h-.04l-.01-.01h-.02v-.01h-.01l-.01-.01v-.01h-.01v-.01l-.01-.01v-.01h-.01v-.03l-.01-.01v-.01h.05v.03l.01.01v.01h.01v.01h.01v.01h.02v.01h.03zm.89.04h-.89v-.04h.89v.04zm.08-.12h.04v.03l-.01.01v.01l-.01.01v.01l-.01.01-.01.01v.01h-.01l-.01.01h-.02v.01h-.04v-.04h.02l.01-.01h.01V5.5h.01l.01-.01.01-.01v-.02l.01-.01v-.01zm.04-2.56v2.56H9.6V2.88h.04zm-.12-.08v-.04h.04v.01h.02l.01.01.01.01.01.01.01.01v.01l.01.01v.01l.01.01v.03H9.6v-.01l-.01-.01v-.02h-.01v-.01l-.01-.01h-.01v-.01h-.01l-.01-.01h-.02z" class="fil1"/><path d="M8.53.02h2.39c.15 0 .26.12.26.26v2.25c0 .14-.11.25-.26.25H8.53c-.15 0-.26-.11-.26-.25V.28c0-.14.11-.26.26-.26z" class="fil5"/><path id="1" d="M10.92.04H8.53V0h2.39v.04zm.28.24h-.04V.23l-.01-.01V.2l-.01-.01V.18l-.01-.01V.16l-.01-.01-.01-.01V.13L11.1.12l-.01-.01-.01-.01h-.01V.09l-.01-.01h-.01l-.01-.01h-.01l-.01-.01h-.01l-.02-.01h-.03l-.01-.01h-.03V0h.05l.01.01h.03l.01.01h.01l.02.01h.01l.01.01.01.01.01.01h.01l.01.01.01.01.01.01.01.01.01.01.01.01v.01l.01.02.01.01v.01l.01.01v.03l.01.01v.06zm-.04 2.25V.28h.04v2.25h-.04zm-.24.28v-.05H10.98l.01-.01h.02l.01-.01h.01l.01-.01h.01l.01-.01h.01v-.01l.01-.01.01-.01h.01l.01-.01v-.01l.01-.01.01-.01v-.01l.01-.01v-.01l.01-.01v-.02l.01-.01v-.05h.04v.05l-.01.02v.02l-.01.02v.01l-.01.01-.01.01v.01l-.01.01-.01.01-.01.02h-.01l-.01.01-.01.01-.01.01-.01.01-.01.01h-.01l-.01.01h-.02l-.01.01h-.01l-.02.01h-.02l-.02.01h-.03zm-2.39-.05h2.39v.05H8.53v-.05zm-.28-.23h.04v.03l.01.02v.03l.01.01v.01l.01.01v.01l.01.01.01.01v.01l.01.01h.01l.01.01.01.01.01.01.01.01h.01l.01.01h.01l.01.01h.02l.01.01h.06v.05H8.5l-.02-.01h-.02l-.02-.01h-.01l-.01-.01h-.01l-.02-.01h-.01l-.01-.01-.01-.01-.01-.01-.01-.01-.01-.01h-.01l-.01-.02-.01-.01-.01-.01v-.01l-.01-.01-.01-.01v-.01l-.01-.02V2.6l-.01-.02v-.05zM8.29.28v2.25h-.04V.28h.04zM8.53 0v.04H8.5l-.01.01h-.03l-.02.01h-.01l-.01.01h-.01L8.4.08h-.01v.01L8.38.1h-.01l-.01.01-.01.01-.01.01v.01l-.01.01-.01.01v.01l-.01.01v.01L8.3.2v.03l-.01.01v.04h-.04V.22l.01-.01V.18l.01-.01V.16l.01-.01.01-.02V.12L8.3.11 8.31.1l.01-.01.01-.01.01-.01.01-.01h.01l.01-.01.01-.01.01-.01h.02l.01-.01h.01l.01-.01h.03L8.48 0h.05z" class="fil1"/><g><path d="M8.17.02h-.89c-.06 0-.1.05-.1.1v2.56c0 .06.04.1.1.1h.89c.05 0 .1-.04.1-.1V.12c0-.05-.05-.1-.1-.1z" class="fil6"/><path id="1" d="M7.28 0h.89v.04h-.89V0zM7.2.12h-.05V.11L7.16.1V.08l.01-.01V.06l.01-.01V.04h.01V.03h.01V.02h.01l.01-.01h.02L7.25 0h.03v.04h-.02v.01h-.02l-.01.01h-.01v.01l-.01.01v.01H7.2v.03zm-.05 2.56V.12h.05v2.56h-.05zm.13.08v.05h-.02l-.01-.01h-.02l-.01-.01h-.01l-.01-.01-.01-.01-.01-.01v-.01h-.01v-.01l-.01-.01V2.7h-.01v-.02h.05v.03l.01.01v.01h.01v.01h.01v.01h.01v.01h.04zm.89.05h-.89v-.05h.89v.05zm.08-.13h.04v.03l-.01.01v.02l-.01.01v.01h-.01v.01h-.01v.01h-.01v.01h-.02v.01h-.03v.01h-.02v-.05h.03l.01-.01.01-.01h.01v-.01l.01-.01V2.7h.01v-.02zM8.29.12v2.56h-.04V.12h.04zM8.17.04V0h.03v.01h.03v.01h.01l.01.01v.01h.01l.01.01v.01h.01v.03h.01v.03h-.04V.11L8.24.1V.08h-.01V.07h-.01V.06h-.01V.05h-.02L8.18.04h-.01z" class="fil1"/></g><path d="M9.97 1.95h-.5l-.09.3c0 .02-.01.03-.02.04-.01.01-.03.01-.06.01h-.38c-.01 0-.02 0-.03-.01v-.03L9.4.66c.02-.06.05-.11.08-.13.03-.02.08-.03.13-.03h.21c.03 0 .06 0 .08.01.03 0 .05.01.07.02.01.01.03.02.04.04.02.02.03.05.04.09l.51 1.6v.03c0 .01-.01.01-.03.01h-.44c-.02-.01-.03-.02-.03-.04l-.09-.31zm-.39-.38h.29l-.05-.2L9.74 1h-.02l-.09.38-.05.19z" class="fil3"/><g><path d="M1.37 5.56h2.4c.14 0 .26.12.26.26v2.25c0 .14-.12.26-.26.26h-2.4c-.14 0-.26-.12-.26-.26V5.82c0-.14.12-.26.26-.26z" class="fil4"/><path id="1" d="M3.77 5.58h-2.4v-.04h2.4v.04zm.28.24h-.04v-.01L4 5.8v-.04l-.01-.01v-.02l-.01-.01v-.01l-.01-.01v-.01l-.01-.01-.01-.01-.01-.01v-.01h-.01l-.01-.01-.01-.01H3.9l-.01-.01-.01-.01h-.01l-.01-.01h-.02l-.01-.01h-.05l-.01-.01v-.04h.04l.02.01h.02l.02.01h.01l.01.01.01.01h.01l.02.01.01.01.01.01h.01l.01.01.01.01.01.01v.01l.01.01.01.02.01.01v.01l.01.01v.01l.01.02v.02l.01.02v.04zm-.04 2.25V5.82h.04v2.25h-.04zm-.24.28v-.04l.01-.01h.05l.01-.01h.02l.01-.01h.01l.01-.01.01-.01h.01l.01-.01.01-.01h.01v-.01l.01-.01.01-.01.01-.01v-.01l.01-.01v-.01l.01-.01v-.02L4 8.13v-.04l.01-.01v-.01h.04v.04l-.01.02v.02l-.01.02v.01l-.01.01v.01l-.01.01-.01.02-.01.01v.01l-.01.01-.01.01-.01.01h-.01l-.01.01-.01.01-.02.01H3.9l-.01.01-.01.01h-.01l-.02.01h-.02l-.02.01h-.04zm-2.4-.04h2.4v.04h-2.4v-.04zm-.28-.24h.05V8.13l.01.01v.02l.01.01v.01l.01.01.01.01v.01l.01.01.01.01v.01h.01l.01.01.01.01h.01l.01.01.01.01h.01l.01.01h.02l.01.01h.05l.01.01v.04h-.04l-.01-.01h-.03l-.01-.01h-.02l-.01-.01-.01-.01h-.01l-.01-.01-.02-.01-.01-.01h-.01l-.01-.01v-.01l-.01-.01-.01-.01-.01-.01-.01-.02V8.2l-.01-.01-.01-.01v-.03l-.01-.01v-.03l-.01-.01v-.03zm.05-2.25v2.25h-.05V5.82h.05zm.23-.28v.04l-.01.01h-.05l-.01.01h-.02l-.01.01h-.01l-.01.01-.01.01h-.01l-.01.01-.01.01H1.2v.01l-.01.01-.01.01v.01l-.01.01-.01.01v.01l-.01.01v.02l-.01.01V5.82h-.05v-.03l.01-.01v-.03l.01-.01v-.03l.01-.01.01-.01v-.01l.01-.02.01-.01.01-.01.01-.01v-.01l.01-.01h.01l.01-.01.02-.01.01-.01h.01l.01-.01.01-.01h.02l.01-.01h.03l.01-.01h.04z" class="fil1"/></g><g><path d="M1.01 5.56H.12c-.05 0-.1.05-.1.1v2.57c0 .05.05.1.1.1h.89c.06 0 .1-.05.1-.1V5.66c0-.05-.04-.1-.1-.1z" class="fil7"/><path id="1" d="M.12 5.54h.89v.04H.12v-.04zm-.08.12H0v-.03h.01v-.02l.01-.01v-.01h.01v-.01h.01v-.01h.01v-.01h.01l.01-.01h.02l.01-.01h.02v.05H.09l-.01.01H.07v.01H.06v.01H.05v.02l-.01.01v.01zM0 8.23V5.66h.04v2.57H0zm.12.08v.04H.1l-.01-.01H.07l-.01-.01H.05v-.01H.04v-.01H.03V8.3H.02v-.01l-.01-.01v-.02H0v-.03h.04v.01l.01.01v.02h.01v.01h.01v.01h.01l.01.01h.03v.01zm.89.04H.12v-.04h.89v.04zm.08-.12h.05v.01h-.01v.03l-.01.01v.01h-.01v.01l-.01.01v.01h-.01l-.01.01h-.01v.01h-.03v.01h-.03v-.04h.01V8.3h.03v-.01h.01l.01-.01.01-.01v-.01h.01v-.03zm.05-2.57v2.57h-.05V5.66h.05zm-.13-.08v-.04h.03v.01h.03v.01h.01l.01.01h.01v.01l.01.01v.01h.01v.01l.01.01v.03h.01v.01h-.05v-.03h-.01v-.01l-.01-.01-.01-.01h-.01v-.01h-.03l-.01-.01z" class="fil1"/></g><path fill="#a1b567" fill-rule="nonzero" d="M12.89 7.39c.09 0 .17-.01.24-.03.06-.02.12-.04.18-.07.02-.01.04-.01.05-.01.02.01.03.02.04.05l.12.25c.01.02.01.04.01.06 0 .01-.01.02-.03.03-.11.07-.21.11-.32.14-.11.02-.22.03-.33.03-.16 0-.3-.02-.41-.07-.11-.05-.19-.12-.26-.2-.07-.09-.12-.19-.15-.31-.03-.11-.05-.24-.05-.38 0-.15.02-.28.07-.39.04-.12.1-.22.18-.31.07-.08.17-.15.27-.19.11-.05.23-.07.36-.07.11 0 .2.01.29.02.09.02.18.05.26.1.01 0 .02.01.03.02.01 0 .01.01.01.02v.03c0 .01-.01.02-.01.04l-.1.22c-.01.03-.02.05-.03.06-.02.01-.04 0-.07-.01-.03-.01-.07-.02-.1-.03-.02 0-.05-.01-.08-.02-.03 0-.05 0-.08-.01h-.09c-.11 0-.2.04-.27.13s-.11.22-.11.39.03.29.09.38c.06.09.16.13.29.13z"/><path fill="#99cfba" fill-rule="nonzero" d="M7.04 4.12c.05.02.09.05.12.08s.06.06.08.1c.02.04.04.08.04.12.01.04.02.08.02.12 0 .08-.02.15-.05.21-.03.07-.07.12-.12.17-.06.05-.12.09-.2.11-.07.03-.15.04-.24.04h-.64c-.07 0-.11-.01-.13-.04-.02-.02-.03-.07-.03-.12V3.5c0-.06.01-.1.03-.12.02-.03.06-.05.13-.05h.64c.08 0 .15.01.21.03.07.02.12.04.17.08.05.03.09.08.11.14.03.05.05.12.05.2 0 .06-.02.13-.06.19-.03.06-.07.1-.13.14v.01zm-.22.38c0-.04-.02-.08-.05-.11-.03-.03-.07-.05-.12-.05h-.29v.33h.29c.03 0 .06-.01.08-.02.02-.01.04-.02.05-.04.01-.02.02-.03.03-.05 0-.02.01-.04.01-.06zm-.46-.53h.26c.03 0 .06 0 .09-.02.02-.02.04-.05.04-.1 0-.04-.01-.06-.03-.08-.03-.02-.06-.03-.09-.03h-.27v.23z"/><g><path d="M5.04 2.82h-.89c-.06 0-.11.05-.11.1v2.56c0 .06.05.1.11.1h.89c.05 0 .1-.04.1-.1V2.92c0-.05-.05-.1-.1-.1z" class="fil7"/><path id="1" d="M4.15 2.8h.89v.04h-.89V2.8zm-.08.12h-.05V2.9h.01v-.03h.01v-.02h.01v-.01l.01-.01h.01v-.01h.01l.01-.01h.01l.01-.01h.04v.04h-.02l-.01.01H4.1v.01h-.01v.01h-.01v.01l-.01.01v.03zm-.05 2.56V2.92h.05v2.56h-.05zm.13.08v.05l-.01-.01H4.1l-.01-.01h-.01v-.01h-.01l-.01-.01-.01-.01-.01-.01v-.01l-.01-.01v-.02l-.01-.01v-.02h.05v.04h.01v.01l.01.01h.01v.01h.01l.01.01h.03zm.89.05h-.89v-.05h.89v.05zm.08-.13h.04v.03h-.01v.03h-.01v.01l-.01.01-.01.01-.01.01H5.1v.01h-.01l-.01.01h-.04v.01-.05h.03v-.01h.01l.01-.01.01-.01v-.01h.01v-.03h.01v-.01zm.04-2.56v2.56h-.04V2.92h.04zm-.12-.08V2.8h.03l.01.01h.01l.01.01h.01v.01h.01l.01.01v.01h.01v.01l.01.01v.02l.01.01v.02h-.04l-.01-.01v-.03H5.1v-.01h-.01v-.01h-.01v-.01h-.02v-.01h-.02z" class="fil1"/></g></g></g></svg>