<svg xmlns="http://www.w3.org/2000/svg" width="116" height="64" fill-rule="evenodd" clip-rule="evenodd" image-rendering="optimizeQuality" shape-rendering="geometricPrecision" text-rendering="geometricPrecision" viewBox="0 0 183.74 101.56"><defs><style>.fil0{fill:#6fa691}.fil3{fill:#2b2a29;fill-rule:nonzero}</style></defs><g id="Слой_x0020_1"><g id="_763283056"><path d="M161.86 72.27h21.61v21.61h-21.61V72.27zM96.92 7.01h21.61v21.61H96.92V7.01zm43.31 0h21.61v21.61h-21.61V7.01zM118.6 28.7h21.61v21.61H118.6V28.7zm43.26 0h21.61v21.61h-21.61V28.7zm-21.63 21.8h21.61v21.61h-21.61V50.5zm-43.31 0h21.61v21.61H96.92V50.5zm21.68 21.77h21.61v21.61H118.6V72.27z" class="fil0"/><path id="1" fill="#6fa691" fill-rule="nonzero" d="M183.47 72.54h-21.61v-.53h21.61l.27.26-.27.27zm0-.53h.27v.26l-.27-.26zm-.27 21.87V72.27h.54v21.61l-.27.27-.27-.27zm.54 0v.27h-.27l.27-.27zm-21.88-.26h21.61v.53h-21.61l-.27-.27.27-.26zm0 .53h-.27v-.27l.27.27zm.27-21.88v21.61h-.54V72.27l.27-.26.27.26zm-.54 0v-.26h.27l-.27.26zm-43.06-65H96.92v-.53h21.61l.26.27-.26.26zm0-.53h.26v.27l-.26-.27zm-.27 21.88V7.01h.53v21.61l-.26.26-.27-.26zm.53 0v.26h-.26l.26-.26zm-21.87-.27h21.61v.53H96.92l-.27-.26.27-.27zm0 .53h-.27v-.26l.27.26zm.26-21.87v21.61h-.53V7.01l.27-.27.26.27zm-.53 0v-.27h.27l-.27.27zm65.19.26h-21.61v-.53h21.61l.27.27-.27.26zm0-.53h.27v.27l-.27-.27zm-.27 21.88V7.01h.54v21.61l-.27.26-.27-.26zm.54 0v.26h-.27l.27-.26zm-21.88-.27h21.61v.53h-21.61l-.27-.26.27-.27zm0 .53h-.27v-.26l.27.26zm.27-21.87v21.61h-.54V7.01l.27-.27.27.27zm-.54 0v-.27h.27l-.27.27zm.25 21.95H118.6v-.53h21.61l.27.27-.27.26zm0-.53h.27v.27l-.27-.27zm-.27 21.88V28.7h.54v21.61l-.27.27-.27-.27zm.54 0v.27h-.27l.27-.27zm-21.88-.27h21.61v.54H118.6l-.27-.27.27-.27zm0 .54h-.27v-.27l.27.27zm.27-21.88v21.61h-.54V28.7l.27-.27.27.27zm-.54 0v-.27h.27l-.27.27zm65.14.26h-21.61v-.53h21.61l.27.27-.27.26zm0-.53h.27v.27l-.27-.27zm-.27 21.88V28.7h.54v21.61l-.27.27-.27-.27zm.54 0v.27h-.27l.27-.27zm-21.88-.27h21.61v.54h-21.61l-.27-.27.27-.27zm0 .54h-.27v-.27l.27.27zm.27-21.88v21.61h-.54V28.7l.27-.27.27.27zm-.54 0v-.27h.27l-.27.27zm.25 22.07h-21.61v-.54h21.61l.27.27-.27.27zm0-.54h.27v.27l-.27-.27zm-.27 21.88V50.5h.54v21.61l-.27.27-.27-.27zm.54 0v.27h-.27l.27-.27zm-21.88-.27h21.61v.54h-21.61l-.27-.27.27-.27zm0 .54h-.27v-.27l.27.27zm.27-21.88v21.61h-.54V50.5l.27-.27.27.27zm-.54 0v-.27h.27l-.27.27zm-21.43.27H96.92v-.54h21.61l.26.27-.26.27zm0-.54h.26v.27l-.26-.27zm-.27 21.88V50.5h.53v21.61l-.26.27-.27-.27zm.53 0v.27h-.26l.26-.27zm-21.87-.27h21.61v.54H96.92l-.27-.27.27-.27zm0 .54h-.27v-.27l.27.27zm.26-21.88v21.61h-.53V50.5l.27-.27.26.27zm-.53 0v-.27h.27l-.27.27zm43.56 22.04H118.6v-.53h21.61l.27.26-.27.27zm0-.53h.27v.26l-.27-.26zm-.27 21.87V72.27h.54v21.61l-.27.27-.27-.27zm.54 0v.27h-.27l.27-.27zm-21.88-.26h21.61v.53H118.6l-.27-.27.27-.26zm0 .53h-.27v-.27l.27.27zm.27-21.88v21.61h-.54V72.27l.27-.26.27.26zm-.54 0v-.26h.27l-.27.26z"/><path fill="#9ad0bb" d="M161.86 50.5h21.61v21.61h-21.61V50.5zM96.92 72.27h21.61v21.61H96.92V72.27zm0-43.57h21.61v21.61H96.92V28.7zM118.6 7.01h21.61v21.61H118.6V7.01zm0 43.49h21.61v21.61H118.6V50.5zm21.63 21.77h21.61v21.61h-21.61V72.27zm0-43.57h21.61v21.61h-21.61V28.7zm21.63-21.69h21.61v21.61h-21.61V7.01z"/><path d="M183.47 7.27H96.92v-.53h86.55l.27.27-.27.26zm0-.53h.27v.27l-.27-.27zm-.27 87.14V7.01h.54v86.87l-.27.27-.27-.27zm.54 0v.27h-.27l.27-.27zm-86.82-.26h86.55v.53H96.92l-.27-.27.27-.26zm0 .53h-.27v-.27l.27.27zm.26-87.14v86.87h-.53V7.01l.27-.27.26.27zm-.53 0v-.27h.27l-.27.27z" class="fil3"/><path fill="#f08bb2" d="M97.24 96.42h-34.1c-1.84 0-3.34 1.5-3.34 3.34v1.54h40.77v-1.54c0-1.84-1.5-3.34-3.33-3.34zm-1.62-27.19H64.44L62.83 56.1c8.46-6.79 13.95-15.52 14.57-27.44-.23-1.32-1.58-.99-1.89.36-.32 5.77-4.2 6.66-10.46 4.3-4.11.01-6.48 1.76-8.77 3.6-1.74-1.79-2.97-3.87-4.05-6.04-1.92-4.12 3.85-5.81 6.14-8.72 3.83-4.02 5.86-10.18 8.72-12.37.75-.48-1.75-2.7 1.03-5.21.58-.52 2.53 2.94 3.19 2.52 25.24-5.21 37.36 29.87 24.31 62.13zm.21 1.07H64.41c-.99 0-1.8.81-1.8 1.8v.36c0 .98.81 1.79 1.8 1.79h31.42c.99 0 1.8-.81 1.8-1.79v-.36c0-.99-.81-1.8-1.8-1.8zm.54 4.99H63.84c-4.43 7.26-5.79 14.03-1.69 19.95H98.6c3.56-6.05 3.1-12.66-2.23-19.95z"/><path id="1" d="M63.14 96.69v-.54h34.1v.54h-34.1zm-3.6 3.07v-.19l.02-.18.02-.18.03-.18.04-.17.05-.17.06-.17.06-.16.07-.16.08-.16.09-.15.09-.14.1-.15.11-.13.11-.13.13-.13.12-.12.13-.11.14-.11.14-.1.14-.09.16-.09.15-.08.16-.07.16-.07.17-.06.17-.04.17-.04.18-.03.18-.03.19-.01.18-.01v.54h-.16l-.15.01-.16.02-.15.03-.14.03-.15.05-.14.04-.14.06-.14.06-.13.07-.13.07-.12.08-.12.09-.12.09-.11.1-.11.1-.1.11-.1.11-.09.11-.08.12-.08.13-.08.13-.07.13-.06.14-.05.13-.05.15-.04.14-.04.15-.02.15-.02.16-.02.15v.16h-.53zm.53 1.54l-.27.26-.26-.26v-1.54h.53v1.54zm-.27.26h-.26v-.26l.26.26zm40.77-.53l.27.27-.27.26H59.8v-.53h40.77zm.27.27v.26h-.27l.27-.26zm-.54-1.54h.54v1.54h-.54v-1.54zm-3.06-3.61l.18.01.18.01.18.03.18.03.17.04.17.04.17.06.16.07.16.07.16.08.15.09.15.09.14.1.13.11.14.11.12.12.12.12.11.14.11.13.1.14.09.15.09.15.08.16.07.16.07.16.06.17.04.17.04.17.03.18.03.18.01.18.01.19h-.54v-.16l-.01-.15-.02-.16-.03-.15-.03-.15-.05-.14-.04-.15-.06-.13-.06-.14-.07-.13-.07-.13-.08-.13-.09-.12-.09-.11-.1-.11-.1-.11-.11-.1-.11-.1-.11-.09-.12-.09-.13-.08-.13-.07-.13-.07-.13-.06-.14-.06-.14-.04-.15-.05-.15-.03-.15-.03-.15-.02-.16-.01h-.15v-.54zm-32.8-26.66l-.26-.23.26-.3h31.18v.53H64.44zm0 0h-.23l-.03-.23.26.23zm-1.87-13.36l.09-.24.44.18 1.61 13.12-.53.07-1.61-13.13zm0 0l-.02-.15.11-.09-.09.24zm15.1-27.51v.06l-.07 1.11-.1 1.1-.13 1.08-.16 1.06-.19 1.04-.21 1.03-.24 1-.26 1-.29.97-.32.96-.34.94-.37.92-.39.91-.41.89-.44.88-.46.86-.49.85-.51.83-.53.82-.55.8-.57.79-.6.77-.61.76-.64.75-.66.73-.68.72-.69.71-.72.69-.73.68-.75.67-.77.66-.79.65-.34-.42.78-.64.77-.65.74-.66.72-.68.71-.68.69-.7.67-.71.65-.72.63-.74.6-.75.59-.76.57-.78.54-.79.52-.8.5-.82.48-.83.46-.85.43-.87.41-.87.38-.9.36-.91.34-.93.31-.94.29-.96.26-.98.23-.99.21-1.01.18-1.03.16-1.04.13-1.07.09-1.08.08-1.1v.06l.53-.09zm0 0v.06-.06zm-2.43.38l.01-.04.03-.14.05-.13.04-.13.06-.12.06-.11.07-.11.07-.09.07-.1.08-.08.08-.08.09-.07.09-.06.1-.06.1-.04.09-.03.1-.03.1-.01.1-.01h.11l.11.02.09.03.1.04.1.05.09.07.08.07.07.09.07.09.06.1.05.11.04.12.04.13.03.14-.53.09-.02-.1-.03-.09-.03-.08-.03-.07-.03-.06-.04-.06-.03-.04-.04-.03-.04-.03-.04-.02-.04-.02-.05-.01-.04-.01h-.09l-.05.01-.05.02-.06.02-.05.02-.05.03-.06.04-.06.05-.05.05-.06.06-.05.06-.05.07-.05.08-.04.08-.04.09-.04.1-.04.1-.02.11v-.05l-.53-.03zm0 0v-.02l.01-.02-.01.04zm-10.19 4.05l.1.02.57.21.56.19.54.17.53.15.52.13.5.11.48.09.46.07.45.04.43.03.42.01.4-.02.38-.04.36-.06.34-.08.33-.1.3-.13.29-.15.28-.17.25-.19.24-.21.22-.24.2-.27.19-.29.17-.31.15-.35.14-.37.11-.4.11-.43.07-.46.06-.48.04-.52.53.03-.04.54-.06.51-.08.49-.11.45-.12.43-.15.41-.17.38-.19.35-.21.33-.23.3-.26.28-.27.24-.29.22-.31.2-.34.17-.34.14-.37.12-.38.08-.39.07-.42.04-.42.02h-.44l-.46-.03-.47-.05-.49-.08-.5-.09-.52-.11-.53-.14-.54-.15-.56-.18-.57-.19-.58-.21.09.01v-.53zm0 0h.05l.05.02-.1-.02zm-8.58 3.68l-.36-.02.22-.17.22-.17.21-.17.22-.18.23-.16.22-.17.23-.17.23-.16.23-.16.24-.15.24-.16.24-.14.25-.15.25-.14.26-.14.27-.13.27-.12.27-.12.28-.12.29-.1.3-.1.3-.1.31-.08.32-.08.32-.07.34-.07.34-.05.35-.04.36-.04.36-.03.38-.01.39-.01v.53l-.37.01-.37.02-.35.02-.34.03-.34.05-.32.05-.32.06-.31.06-.3.08-.3.08-.29.09-.28.1-.27.1-.27.11-.26.12-.26.11-.26.13-.24.13-.25.14-.24.13-.23.15-.23.14-.23.16-.23.15-.22.16-.22.16-.22.16-.22.17-.22.17-.21.16-.22.18-.21.17-.36-.03.38-.37zm-.02.4l-.19.15-.17-.18.36.03zm-3.98-6.37l.1.2.1.2.1.2.11.2.1.2.11.2.11.2.11.2.11.19.11.19.11.2.11.19.12.19.12.2.12.19.12.19.12.18.13.19.12.18.13.19.14.18.13.18.14.18.13.18.14.18.15.17.14.18.15.17.15.17.16.17.15.17.16.16-.38.37-.16-.17-.16-.17-.16-.17-.16-.18-.15-.18-.16-.18-.14-.18-.15-.18-.14-.18-.14-.19-.14-.18-.13-.19-.13-.19-.14-.19-.12-.19-.13-.19-.12-.2-.13-.19-.11-.2-.12-.19-.12-.2-.11-.2-.12-.2-.11-.2-.11-.2-.11-.2-.11-.2-.1-.2-.11-.2-.11-.21-.1-.2-.1-.2v-.01l.48-.23zm-.48.24v-.01l-.02-.03.02.04zm6.57-8.65l.02-.02-.24.28-.25.27-.26.26-.28.26-.3.26-.3.24-.3.25-.31.24-.32.23-.32.24-.31.23-.32.23-.3.24-.3.23-.3.24-.28.24-.26.24-.25.24-.24.25-.21.25-.19.25-.17.26-.15.26-.12.26-.09.28-.06.28-.03.29-.01.3.04.31.06.32.11.35.15.35-.48.23-.17-.4-.12-.39-.08-.38-.04-.37v-.35l.04-.35.08-.34.11-.32.14-.31.16-.3.19-.29.21-.28.24-.27.25-.27.26-.25.28-.25.29-.25.3-.24.31-.24.31-.24.32-.24.32-.23.31-.24.31-.23.31-.24.3-.23.29-.24.28-.25.27-.24.25-.25.24-.25.21-.26.02-.02.38.37zm-.4-.35v-.01l.02-.01-.02.02zm9.07-11.99l.02-.01-.25.21-.25.22-.25.26-.25.27-.24.29-.25.31-.24.33-.24.34-.24.36-.24.37-.24.39-.25.39-.24.41-.25.41-.24.43-.26.43-.25.44-.26.44-.26.44-.26.45-.28.45-.27.45-.28.45-.29.44-.3.45-.3.44-.31.43-.32.43-.33.42-.34.41-.35.4-.36.39-.38-.37.34-.38.34-.39.33-.4.32-.41.32-.42.3-.42.3-.43.29-.44.29-.44.28-.44.27-.45.27-.44.26-.45.26-.44.26-.44.25-.44.25-.43.25-.43.25-.42.25-.41.24-.4.25-.39.24-.38.25-.36.25-.36.25-.33.25-.33.26-.3.26-.29.27-.27.27-.25.28-.22.02-.02.28.45zm-.3-.43l.01-.01.01-.01-.02.02zm1.37-4.8l-.24.23-.2.22-.18.21-.15.21-.13.21-.1.21-.09.2-.07.19-.04.2-.04.19-.02.18-.01.18.01.18.01.17.02.17.03.17.04.16.04.15.04.16.05.14.04.15.05.14.03.13.04.13.03.12.03.13.01.12v.12l-.02.13-.05.12-.08.12-.12.09-.28-.45.01-.01v-.01l.01-.03v-.05l-.01-.07-.02-.09-.02-.1-.04-.12-.04-.12-.04-.14-.04-.15-.05-.15-.05-.17-.04-.17-.04-.18-.04-.19-.02-.2-.01-.2-.01-.21.01-.21.02-.22.04-.23.06-.23.08-.23.1-.24.13-.24.14-.24.17-.24.2-.24.23-.25.26-.24.36.39zm3.07 2.58l.09-.04-.14.06-.15.02-.14-.02-.13-.05-.12-.06-.11-.08-.11-.09-.12-.09-.12-.11-.11-.12-.12-.12-.12-.13-.12-.14-.12-.14-.13-.13-.12-.15-.12-.13-.12-.14-.11-.14-.12-.12-.11-.12-.11-.11-.1-.11-.1-.09-.09-.07-.08-.07-.07-.04-.05-.02-.03-.01h-.01l.02-.01.02-.01-.36-.39.13-.09.15-.04.14.01.13.04.12.05.12.08.11.08.11.09.11.11.11.11.12.12.12.13.12.13.12.14.12.14.12.14.12.14.12.13.12.14.11.13.12.12.11.12.11.1.1.1.09.08.09.07.08.05.06.04.04.01.03.01h-.02l.09-.03.11.52zm-.2-.49l.04-.02.05-.01-.09.03zm24.45 62.09l-.25.17 1.15-3.03 1-3.02.86-3.03.71-3.02.58-3.01.45-2.99.31-2.95.18-2.91.05-2.87-.08-2.82-.2-2.74-.33-2.68-.44-2.61-.57-2.51-.68-2.42-.79-2.32-.9-2.2-1.01-2.09-1.12-1.97-1.22-1.83-1.33-1.68-1.42-1.54-1.52-1.38-1.61-1.22-1.7-1.04-1.8-.87-1.88-.68-1.97-.49-2.06-.28-2.14-.08-2.22.14-2.3.37-.11-.52 2.35-.38 2.28-.15 2.19.08 2.11.29 2.02.51 1.94.7 1.84.89 1.75 1.07 1.66 1.25 1.55 1.41 1.45 1.57 1.35 1.72 1.24 1.86 1.14 2 1.03 2.12.91 2.24.81 2.34.68 2.45.57 2.54.45 2.63.33 2.7.2 2.78.08 2.84-.05 2.89-.18 2.93-.31 2.98-.45 3.01-.58 3.03-.73 3.04-.86 3.05-1.01 3.05-1.15 3.05-.25.16v-.53zm.25.37l-.07.16h-.18l.25-.16zm-31.46 1.24v-.53h31.42v.53H64.41zm-2.06 1.53v-.11l.01-.1.01-.1.02-.1.02-.1.03-.1.03-.1.04-.09.04-.09.05-.09.05-.09.05-.08.06-.08.06-.08.06-.08.07-.07.07-.07.08-.06.08-.06.08-.06.08-.05.09-.05.09-.05.09-.04.09-.04.09-.03.1-.03.11-.02.09-.02.11-.01.1-.01h.11v.53h-.08l-.08.01-.07.01-.08.01-.07.02-.07.02-.08.03-.07.02-.06.03-.07.04-.06.03-.06.04-.06.04-.06.05-.06.05-.05.05-.05.06-.05.05-.04.06-.05.06-.04.06-.03.06-.04.07-.03.06-.03.08-.02.07-.02.07-.02.07-.01.08-.01.07-.01.08v.08h-.53zm.53.36h-.53v-.36h.53v.36zm1.53 2.06h-.11l-.1-.01-.11-.02-.09-.02-.11-.02-.1-.03-.09-.03-.09-.03-.09-.05-.09-.04-.09-.05-.08-.05-.08-.06-.08-.06-.08-.07-.07-.07-.06-.07-.07-.07-.06-.08-.06-.08-.05-.09-.05-.08-.05-.09-.04-.09-.04-.1-.03-.09-.03-.1-.02-.1-.02-.1-.01-.1-.01-.11v-.1h.53v.07l.01.08.01.08.01.08.02.07.02.07.02.07.03.07.03.07.04.06.03.07.04.06.05.06.04.06.05.05.05.06.05.05.06.05.05.04.07.04.06.04.06.04.07.03.06.03.08.03.07.03.07.02.07.01.08.02.07.01h.16v.54zm31.42-.54v.54H64.41v-.54h31.42zm2.06-1.52v.1l-.01.11-.01.1-.02.1-.02.1-.03.1-.03.09-.04.1-.04.09-.05.09-.05.08-.05.09-.06.08-.06.08-.07.07-.06.07-.07.07-.08.07-.08.06-.08.06-.08.05-.08.05-.1.04-.09.05-.09.03-.09.03-.1.03-.1.02-.1.02-.11.02-.1.01h-.11v-.54h.16l.07-.01.08-.02.08-.01.06-.02.08-.03.07-.03.06-.03.07-.03.06-.04.07-.04.06-.04.05-.04.06-.05.05-.05.05-.06.05-.05.04-.06.05-.06.04-.06.03-.07.04-.06.03-.07.03-.07.02-.07.02-.07.02-.07.01-.08.01-.08.01-.08v-.07h.53zm-.53-.36h.53v.36h-.53v-.36zm-1.53-2.06h.11l.1.01.11.01.1.02.1.02.1.03.09.03.09.04.09.04.1.05.08.05.08.05.09.06.07.06.08.06.07.07.07.07.06.08.06.08.06.08.05.08.05.09.05.09.04.09.04.09.03.1.03.1.02.1.02.1.01.1.01.1v.11h-.53v-.08l-.01-.08-.01-.07-.01-.08-.02-.07-.02-.07-.02-.07-.03-.08-.03-.06-.04-.07-.03-.06-.04-.06-.05-.06-.04-.06-.05-.05-.05-.06-.05-.05-.06-.05-.06-.05-.05-.04-.07-.04-.06-.03-.07-.04-.06-.03-.07-.02-.08-.03-.07-.02-.07-.02-.08-.01-.07-.01-.08-.01h-.08v-.53zm-31.99 5.52l-.23-.41.23-.13h32.53v.54H63.84zm-.23-.41l.07-.13h.16l-.23.13zM62.15 95.5l-.22-.11-.37-.57-.35-.57-.31-.58-.28-.58-.25-.59-.22-.59-.19-.6-.16-.6-.13-.61-.1-.61-.07-.62-.05-.62-.02-.62.01-.63.03-.63.06-.63.09-.64.11-.65.13-.64.16-.65.18-.65.21-.65.22-.66.25-.66.27-.66.29-.67.32-.67.33-.67.35-.68.37-.67.39-.69.41-.68.45.28-.4.67-.38.68-.37.67-.35.66-.32.66-.31.66-.28.65-.27.65-.24.65-.23.64-.2.64-.17.64-.16.63-.13.62-.1.63-.09.62-.05.61-.04.61-.01.6.02.6.05.6.07.59.1.59.12.58.16.58.18.57.21.57.24.57.27.56.3.55.33.56.36.54-.22-.11v.53zm0 0h-.14l-.08-.11.22.11zm36.45-.53l.22.4-.22.13H62.15v-.53H98.6zm.22.4l-.07.13h-.15l.22-.13zm-2.45-20.35l.22.11.49.69.46.68.43.68.41.68.37.67.35.67.32.67.3.66.26.66.24.65.21.65.19.65.15.65.13.64.11.64.08.63.05.63.02.63v.63l-.03.62-.05.62-.08.61-.11.61-.13.6-.15.61-.19.6-.2.59-.23.59-.26.59-.28.58-.3.58-.33.58-.45-.27.31-.56.3-.56.27-.57.25-.57.22-.57.2-.58.17-.58.15-.58.13-.58.1-.59.08-.59.05-.6.03-.6v-.6l-.03-.61-.05-.6-.07-.62-.1-.61-.13-.63-.15-.62-.18-.63-.2-.63-.24-.64-.26-.64-.28-.65-.32-.65-.34-.65-.37-.66-.39-.67-.43-.66-.45-.67-.48-.68.21.11v-.54zm0 0h.14l.08.11-.22-.11z" class="fil3"/><g><path d="M4.91 48.61h31.15c.83 0 1.51.68 1.51 1.5v.31c0 .82-.68 1.5-1.51 1.5H4.91c-.83 0-1.51-.68-1.51-1.5v-.31c0-.82.68-1.5 1.51-1.5zM1.89.27h9.26l-.76 6.89h6.67L16.34.27h8.2l-.59 6.89h6.62L29.84.27h9.24c-.64 5.97-2.31 11.18-6.65 14.38H8.38C4.35 11.43 2.62 6.26 1.89.27zm4.81 47h27.57L31.14 21H9.42L6.7 47.27zm-1.9 5.99h31.74c4.31 7.08 5.64 13.69 1.65 19.46H2.63C-.85 66.82-.4 60.37 4.8 53.26zM3.07 74.07H37.9c1.54 0 2.8 1.26 2.8 2.8v1.29H.27v-1.29c0-1.54 1.26-2.8 2.8-2.8zm4.59-57.92H33.3c.83 0 1.51.67 1.51 1.5v.3c0 .83-.68 1.51-1.51 1.51H7.66c-.83 0-1.5-.68-1.5-1.51v-.3c0-.83.67-1.5 1.5-1.5z" class="fil0"/><path id="1" d="M36.06 48.88H4.91v-.54h31.15v.54zm1.77 1.23h-.53v-.06l-.01-.06-.01-.07-.01-.05-.01-.06-.02-.06-.02-.06-.02-.06-.02-.05-.03-.05-.03-.06-.03-.05-.04-.04-.04-.05-.04-.05-.03-.04-.05-.04-.04-.04-.05-.03-.05-.04-.05-.04-.05-.02-.05-.03-.06-.03-.05-.02-.06-.02-.06-.01-.06-.02-.06-.01-.06-.01h-.13v-.54h.09l.09.01.09.01.09.02.08.02.08.02.09.03.08.03.08.04.07.04.08.04.07.05.07.04.07.06.06.05.06.06.06.06.06.07.05.06.05.08.05.07.04.07.04.08.03.08.03.07.03.09.03.08.02.09.01.09.01.08.01.09v.09zm-.53.31v-.31h.53v.31h-.53zm-1.24 1.77v-.54h.13l.06-.01.06-.01.06-.02.06-.02.06-.01.05-.03.06-.02.05-.03.05-.03.05-.03.05-.04.05-.03.04-.04.05-.04.03-.04.04-.05.04-.05.04-.05.03-.04.03-.06.03-.05.02-.06.02-.06.02-.05.02-.06.01-.06.01-.06.01-.06.01-.06v-.06h.53v.08l-.01.09-.01.09-.01.09-.02.09-.03.08-.03.08-.03.08-.03.08-.04.08-.04.07-.05.07-.05.08-.05.06-.06.06-.06.07-.06.05-.06.06-.07.06-.07.04-.07.05-.08.04-.07.04-.08.04-.08.03-.09.03-.08.02-.08.02-.09.01-.09.02h-.09l-.09.01zm-31.15-.54h31.15v.54H4.91v-.54zm-1.78-1.23h.54v.12l.01.06.01.06.02.06.01.06.02.06.02.05.03.06.03.05.02.05.04.05.04.06.03.04.04.04.04.05.05.04.04.04.05.04.05.03.04.03.06.03.05.03.06.02.05.03.06.02.06.01.06.02.05.01.07.01h.13v.54l-.09-.01h-.09l-.09-.01-.09-.02-.09-.02-.08-.02-.08-.03-.09-.03-.07-.04-.08-.04-.07-.04-.08-.05-.07-.05-.06-.05-.07-.05-.06-.06-.05-.06-.06-.07-.06-.07-.04-.07-.05-.06-.04-.08-.04-.08-.04-.08-.03-.08-.03-.08-.02-.08-.02-.09-.02-.08-.01-.1-.01-.09v-.08zm.54-.31v.31h-.54v-.31h.54zm1.24-1.77v.54h-.13l-.07.01-.05.01-.06.02-.06.01-.06.02-.05.02-.06.03-.05.03-.06.03-.04.03-.05.03-.05.04-.04.04-.05.04-.04.05-.04.04-.03.04-.04.06-.04.05-.02.04-.03.06-.03.06-.02.05-.02.05-.01.07-.02.06-.01.06-.01.06v.12h-.54v-.09l.01-.09.01-.09.02-.09.02-.08.02-.08.03-.08.03-.09.04-.07.04-.08.04-.08.05-.07.04-.06.06-.07.06-.07.05-.06.06-.06.07-.05.06-.05.07-.05.08-.05.07-.04.08-.04.07-.04.09-.03.08-.03.08-.02.09-.02.09-.02.09-.01.09-.01h.09zM11.15.53H1.89V0h9.26l.27.3-.27.23zm0-.53h.3l-.03.3-.27-.3zm-1.02 7.13l.76-6.89.53.06-.76 6.89-.27.23-.26-.29zm.26.29h-.3l.04-.29.26.29zm6.67 0h-6.67v-.53h6.67l.27.24-.27.29zm.27-.29l.03.29h-.3l.27-.29zM16.61.24l.72 6.89-.53.06-.72-6.9.26-.29.27.24zm-.53.05L16.05 0h.29l-.26.29zm8.46.24h-8.2V0h8.2l.26.29-.26.24zm0-.53h.29l-.03.29-.26-.29zm-.85 7.14l.58-6.9.53.05-.58 6.89-.27.24-.26-.28zm.26.28h-.29l.03-.28.26.28zm6.62 0h-6.62v-.53h6.62l.27.24-.27.29zm.27-.29l.03.29h-.3l.27-.29zM30.11.24l.73 6.89-.53.06-.73-6.9.26-.29.27.24zm-.53.05L29.54 0h.3l-.26.29zm9.5.24h-9.24V0h9.24l.26.29-.26.24zm0-.53h.29l-.03.29-.26-.29zm-6.65 14.91v-.53l-.16.05.4-.3.37-.31.36-.32.35-.33.33-.35.32-.35.31-.37.29-.37.28-.38.27-.4.25-.4.24-.42.23-.42.22-.43.21-.44.2-.45.18-.45.18-.47.17-.47.15-.48.15-.49.14-.49.13-.5.12-.52.11-.51.11-.52.09-.53.09-.53.09-.54.07-.55.07-.55.06-.55.53.05-.06.57-.07.55-.08.56-.08.54-.09.54-.1.54-.11.53-.11.52-.12.52-.13.51-.14.51-.16.5-.16.49-.17.49-.18.47-.19.47-.2.46-.22.46-.22.44-.24.44-.25.43-.27.42-.28.4-.29.4-.3.39-.31.38-.34.37-.34.35-.36.35-.38.34-.39.32-.41.31-.16.05zm.16-.05l-.07.05h-.09l.16-.05zm-24.21-.48h24.05v.53H8.38l-.16-.05.16-.48zm0 .53h-.09l-.07-.05.16.05zM1.89 0v.53l.26-.3.08.56.07.55.09.55.09.54.09.53.11.53.11.52.12.52.12.51.13.5.15.49.15.49.16.48.16.47.18.47.18.45.2.45.2.44.22.43.22.42.24.42.24.4.26.39.27.39.28.37.28.37.3.35.32.35.33.33.33.32.36.32.36.3-.33.42-.38-.32-.37-.32-.35-.34-.34-.35-.32-.35-.32-.37-.3-.38-.29-.39-.27-.4-.27-.41-.25-.41-.24-.43-.24-.43-.22-.45-.21-.45-.2-.46-.19-.47-.18-.47-.17-.49-.16-.49-.15-.49-.15-.51-.14-.51-.12-.52-.12-.52-.12-.53-.1-.54-.1-.54-.09-.55-.09-.55L1.7.86 1.63.3l.26-.3zm-.26.3L1.59 0h.3l-.26.3zm32.64 47.24H6.7V47h27.57l.26.24-.26.3zm.26-.3l.04.3h-.3l.26-.3zm-3.12-26.27l3.12 26.27-.52.06-3.13-26.27.26-.3.27.24zm-.27-.24h.24l.03.24-.27-.24zm-21.72 0h21.72v.53H9.42l-.27-.29.27-.24zm-.27.24l.02-.24h.25l-.27.24zM6.43 47.24l2.72-26.27.53.06L6.96 47.3l-.26.24-.27-.3zm.27.3h-.3l.03-.3.27.3zm29.84 5.99H4.8v-.54h31.74l.23.13-.23.41zm0-.54h.15l.08.13-.23-.13zm1.65 20v-.54l-.22.12.35-.54.32-.54.3-.54.26-.54.23-.56.21-.55.17-.56.15-.56.12-.57.1-.57.07-.58.04-.58.02-.59-.01-.59-.03-.59-.05-.6-.08-.6-.11-.61-.13-.61-.15-.62-.17-.62-.19-.62-.22-.63-.24-.63-.26-.63-.28-.64-.29-.64-.32-.65-.34-.65-.36-.65-.37-.66-.39-.65.45-.28.4.67.38.66.36.66.34.66.33.66.3.65.29.65.26.65.24.64.22.64.2.64.18.64.16.63.13.63.1.62.09.63.05.62.04.61.01.62-.02.61-.05.6-.07.6-.1.6-.13.59-.15.59-.19.58-.21.58-.25.58-.27.56-.3.57-.34.56-.36.55-.22.12zm.22-.12l-.08.12h-.14l.22-.12zm-35.78-.42h35.56v.54H2.63l-.23-.13.23-.41zm0 .54h-.15l-.08-.13.23.13zm2.17-20v.54l.22-.11-.47.66-.45.65-.41.65-.39.65-.36.64-.33.64-.31.63-.28.64-.25.62-.23.62-.2.62-.17.62-.15.6-.12.61-.1.6-.07.6-.05.6-.02.59v.58l.02.59.05.58.08.57.1.58.12.57.15.57.17.56.19.56.22.56.24.56.26.55.29.55.31.54-.46.28-.32-.57-.29-.56-.27-.57-.25-.58-.23-.58-.2-.58-.18-.58-.15-.59-.13-.59-.1-.6-.08-.59-.05-.61-.03-.6v-.61l.03-.62.05-.61.07-.62.1-.63.13-.62.15-.63.18-.64.21-.63.23-.64.26-.64.29-.65.31-.65.34-.65.37-.66.4-.66.42-.66.45-.67.47-.67.22-.11zm-.22.11l.08-.11h.14l-.22.11zM37.9 74.33H3.07v-.53H37.9v.53zm3.06 2.54h-.53v-.13l-.01-.13-.02-.13-.02-.12-.03-.12-.03-.12-.04-.12-.05-.12-.05-.11-.06-.11-.06-.1-.06-.11-.07-.1-.08-.09-.08-.09-.08-.09-.09-.09-.09-.08-.1-.07-.1-.07-.1-.07-.11-.06-.11-.06-.11-.05-.11-.04-.12-.04-.12-.04-.12-.02-.13-.03-.12-.01-.13-.01-.13-.01v-.53h.16l.15.01.15.02.16.03.14.04.15.04.14.05.14.05.14.06.13.07.13.08.12.08.12.08.12.09.11.1.1.1.11.11.09.11.1.11.08.12.08.13.07.13.07.13.06.13.06.14.05.15.04.14.03.15.03.15.02.15.01.16v.16zm-.53 1.29v-1.29h.53v1.29l-.26.26-.27-.26zm.53 0v.26h-.26l.26-.26zM.27 77.89H40.7v.53H.27L0 78.16l.27-.27zm0 .53H0v-.26l.27.26zm.26-1.55v1.29H0v-1.29h.53zm2.54-3.07v.53l-.13.01-.13.01-.13.01-.12.03-.12.02-.12.04-.12.04-.12.04-.11.05-.11.06-.1.06-.11.07-.1.07-.09.07-.1.08-.08.09-.09.08-.08.1-.07.09-.07.1-.07.11-.06.1-.06.11-.05.11-.04.12-.04.12-.04.12-.02.12-.03.12-.01.13-.01.13-.01.13H0v-.16l.01-.16.02-.15.03-.15.04-.15.04-.14.05-.15.05-.14.06-.13.07-.13.07-.13.08-.13.09-.12.09-.11.1-.11.1-.11.11-.1.11-.1.11-.09.12-.09.13-.08.13-.07.13-.07.13-.06.14-.05.15-.05.14-.04.15-.04.15-.03.15-.02.16-.01h.16zM33.3 16.41H7.66v-.53H33.3v.53zm1.78 1.24h-.54v-.06l-.01-.07v-.06l-.01-.06-.02-.06-.01-.06-.02-.05-.03-.06-.02-.05-.03-.06-.03-.05-.03-.05-.03-.05-.04-.04-.04-.05-.04-.04-.05-.04-.04-.04-.04-.04-.06-.03-.05-.04-.05-.03-.05-.02-.06-.03-.05-.02-.06-.02-.06-.02-.06-.01-.06-.01-.06-.01-.06-.01h-.07v-.53h.09l.09.01.1.01.08.02.09.02.08.02.08.03.08.03.08.04.08.03.08.05.06.05.07.04.07.06.07.05.05.06.07.06.05.07.05.06.05.07.05.08.04.07.04.07.04.08.03.08.03.09.02.08.02.08.02.09.01.09v.09l.01.09zm-.54.3v-.3h.54v.3h-.54zm-1.24 1.77v-.53h.07l.06-.01.06-.01h.06l.06-.02.06-.02.05-.01.06-.03.06-.02.05-.03.06-.03.04-.03.05-.04.05-.04.05-.03.04-.04.04-.05.04-.04.03-.05.04-.05.03-.05.03-.05.03-.05.02-.06.03-.05.01-.06.02-.06.02-.06.01-.06v-.06l.01-.06v-.07h.54l-.01.09v.09l-.02.09-.01.09-.02.08-.02.08-.03.09-.03.08-.04.08-.04.07-.04.08-.05.07-.04.07-.06.07-.06.06-.05.06-.07.06-.06.06-.06.05-.08.05-.07.05-.07.04-.08.04-.08.03-.08.03-.08.03-.08.03-.09.02-.09.01-.09.02h-.18zm-25.64-.53H33.3v.53H7.66v-.53zm-1.77-1.24h.53l.01.07v.06l.01.06.01.06.01.06.02.06.02.05.02.06.03.06.02.05.03.05.03.05.04.05.04.05.04.04.04.05.04.04.04.03.05.04.05.04.05.03.05.03.06.03.05.02.06.03.05.01.06.02.07.02h.05l.06.01.07.01h.06v.53h-.18l-.09-.02-.09-.01-.08-.02-.08-.03-.09-.03-.08-.03-.07-.03-.08-.04-.08-.04-.07-.05-.07-.05-.06-.05-.07-.06-.06-.06-.06-.06-.05-.06-.06-.07-.05-.07-.04-.07-.04-.08-.04-.07-.04-.08-.03-.08-.03-.09-.02-.08-.02-.08-.02-.09-.01-.09-.01-.09v-.09zm.53-.3v.3h-.53v-.3h.53zm1.24-1.77v.53H7.6l-.07.01-.06.01-.05.01-.07.01-.06.02-.05.02-.06.02-.05.03-.06.02-.05.03-.05.03-.05.04-.05.04-.04.04-.04.04-.04.04-.04.04-.04.05-.04.05-.03.05-.03.05-.02.06-.03.05-.02.06-.02.05-.02.06-.01.07-.01.05-.01.06v.07l-.01.06h-.53v-.09l.01-.09.01-.09.02-.09.02-.08.02-.08.03-.09.03-.08.04-.08.04-.07.04-.08.04-.07.05-.07.06-.07.05-.06.06-.06.06-.06.07-.06.06-.05.07-.05.07-.04.08-.05.08-.03.07-.04.08-.03.09-.03.08-.02.08-.02.09-.02.09-.01.09-.01h.09z" class="fil3"/></g></g></g></svg>