<svg xmlns="http://www.w3.org/2000/svg" width="121" height="69" fill-rule="evenodd" clip-rule="evenodd" image-rendering="optimizeQuality" shape-rendering="geometricPrecision" text-rendering="geometricPrecision" viewBox="0 0 16.82 9.59"><defs><style>.fil0{fill:#bdd180}.fil2{fill:#a1b567}.fil4{fill:#6fa691}.fil3{fill:#99cfba}.fil1,.fil6{fill:#fefefe;fill-rule:nonzero}.fil1{fill:#2b2a29}</style></defs><g id="Слой_x0020_1"><g id="_838561504"><path d="M3.25 7.75h-.97v1.2h1.21v-.39c.9-.31 1.63-.87 1.81-2.25-.01-.98-.49-1.77-1.49-2.37-.26.37-.51.75-.77 1.13 1.21.48 1.14 1.85.06 2.16l.15.52z" class="fil0"/><path id="1" d="M2.28 7.77l-.03-.02.03-.02h.97v.04h-.97zm-.03-.02v-.02h.03l-.03.02zm.05 1.2l-.02.02-.03-.02v-1.2h.05v1.2zm-.02.02h-.03v-.02l.03.02zm1.21-.04l.02.02-.02.02H2.28v-.04h1.21zm.02.02v.02h-.02l.02-.02zm-.04-.39l.01-.02.03.02v.39h-.04v-.39zm0 0v-.01l.01-.01-.01.02zm1.85-2.25l-.02.13-.02.12-.02.12-.03.11-.03.11-.03.11-.04.1-.04.1-.04.09-.05.09-.04.09-.05.08-.06.08-.05.07-.06.07-.06.07-.06.07-.06.06-.07.06-.06.06-.07.05-.07.05-.08.05-.07.04-.08.05-.07.04-.08.04-.08.03-.08.04-.09.03-.08.03-.08.03-.02-.04.08-.03.09-.03.08-.03.08-.04.08-.03.08-.04.07-.04.08-.05.07-.04.07-.05.07-.05.07-.05.06-.06.07-.05.06-.06.06-.07.06-.07.05-.07.06-.07.05-.08.05-.08.04-.08.05-.09.04-.09.04-.1.03-.1.03-.1.03-.11.03-.11.03-.12.02-.12.02-.13v.01h.04zm0 0zM3.79 3.93l.03-.01.09.06.09.05.09.06.08.06.08.07.08.06.08.06.07.07.07.06.06.07.07.07.06.07.05.07.06.07.05.07.05.08.04.07.04.08.04.08.04.08.03.08.03.08.03.08.03.08.02.09.02.08.01.09.02.09.01.08.01.09v.19h-.04l-.01-.09v-.09l-.01-.09-.01-.09-.01-.08-.02-.09-.02-.08-.02-.08-.02-.09-.03-.08-.03-.08-.03-.07-.04-.08-.04-.08-.04-.07-.04-.08-.05-.07-.05-.07-.05-.07-.06-.07-.06-.07-.06-.07-.07-.06-.06-.07-.07-.06-.08-.07-.07-.06-.08-.06-.09-.06-.08-.06-.09-.05-.09-.06.03-.01-.04-.02zm0 0l.01-.02.02.01-.03.01zm-.76 1.16l-.01-.04.03-.03.02-.04.03-.03.02-.04.02-.03.03-.04.02-.03.03-.04.02-.03.02-.04.03-.03.02-.04.02-.03.03-.04.02-.03.03-.04.02-.04.02-.03.03-.04.02-.03.03-.04.02-.03.02-.04.03-.03.02-.04.03-.03.02-.04.02-.03.03-.04.02-.03.03-.04.02-.03.04.02-.03.04-.02.03-.02.04-.03.03-.02.04-.02.03-.03.04-.02.03-.03.04-.02.03-.02.04-.03.04-.02.03-.03.04-.02.03-.02.04-.03.03-.02.04-.03.03-.02.04-.02.03-.03.04-.02.03-.03.04-.02.03-.02.04-.03.03-.02.04-.03.03-.02.04-.02.04-.03.03-.01-.03-.02.04zm0 0l-.02-.01.01-.03.01.04zm.05 2.15l.02-.03.09-.03.09-.04.09-.04.08-.05.07-.05.06-.06.06-.06.06-.07.05-.06.04-.07.03-.08.03-.07.02-.08.02-.08.01-.08v-.16l-.01-.08-.02-.08-.02-.08-.03-.08-.03-.08-.05-.08-.05-.07-.05-.08-.07-.07-.07-.06-.08-.07-.08-.06-.1-.05-.1-.05-.11-.05.02-.04.11.04.11.06.09.05.09.07.08.06.07.07.07.07.06.08.05.08.05.08.04.08.03.08.02.09.02.08.01.09V6.3l-.01.08-.02.08-.02.08-.04.08-.03.08-.05.07-.05.07-.05.07-.06.06-.07.06-.08.06-.08.05-.09.04-.09.04-.1.04.02-.03-.05.01zm0 0l-.01-.02.03-.01-.02.03zm.2.5l-.03.03-.02-.01-.15-.52.05-.01.15.51zm0 0l.01.03h-.04l.03-.03z" class="fil1"/><path d="M5.34.75L4.59.3l-.66 1.11.76.44z" class="fil2"/><path id="1" d="M4.6.28l.75.45-.02.04-.76-.45V.29L4.6.28zm-.03.01l.01-.02.02.01-.03.01zm-.66 1.1l.66-1.1.04.02-.66 1.11-.03.01-.01-.04zm.01.04l-.02-.02.01-.02.01.04zm.76.44l-.76-.44.03-.04.75.44.01.03-.03.01zm.03-.01l-.01.02-.02-.01.03-.01zm.65-1.1l-.65 1.1-.04-.02.65-1.11h.03l.01.03zM5.35.73l.02.01-.01.02-.01-.03z" class="fil1"/><path d="M2.91 5.67l-1.46-.85L3.59 1.2l1.45.86z" class="fil0"/><path id="1" d="M1.47 4.79l1.45.86-.02.04-1.46-.85-.01-.04.04-.01zm-.03.05l-.02-.02.01-.02.01.04zm2.17-3.63L1.47 4.83l-.04-.03 2.14-3.61.03-.01.01.03zm-.04-.02l.01-.02.02.01-.03.01zm1.46.89l-1.46-.86.03-.04 1.45.86.01.03-.03.01zm.02-.04l.02.01-.01.02-.01-.03zM2.89 5.66l2.13-3.61.04.02-2.13 3.61-.03.01-.01-.03zm.04.02l-.01.02-.02-.01.03-.01z" class="fil1"/><path d="M2.52 5.44l-.68-.4-.34.59.68.4z" class="fil2"/><path id="1" d="M1.85 5.02l.68.4-.02.04-.68-.4-.01-.03.03-.01zm-.03.01l.01-.02.02.01-.03.01zm-.34.58l.34-.58.04.03-.34.58-.03.01-.01-.04zm.01.04l-.02-.02.01-.02.01.04zm.68.4l-.68-.4.02-.05.68.4.01.04-.03.01zm.03-.01l-.01.02-.02-.01.03-.01zm.34-.58l-.34.58-.04-.03.34-.58.03-.01.01.04zm-.01-.04l.02.02-.01.02-.01-.04z" class="fil1"/><path d="M1.95 6.9l-1.1-.65.16-.28 1.1.66z" class="fil0"/><path id="1" d="M.86 6.23l1.1.65-.02.04-1.11-.65v-.04h.03zm-.03.04l-.02-.02.02-.02v.04zm.2-.28l-.16.27-.04-.03.16-.27.03-.01.01.04zm-.04-.03L1 5.94l.02.01-.03.01zm1.11.69L.99 5.99l.03-.04 1.1.66.01.03-.03.01zm.02-.04l.02.01-.01.02-.01-.03zm-.19.27l.16-.27.04.03-.16.27-.03.01-.01-.04zm.04.03l-.01.02-.02-.01.03-.01z" class="fil1"/><path d="M2.64 7.3L.37 5.97c-.02.11-.01.23.1.33L2.3 7.83l.34-.53z" class="fil2"/><path id="1" d="M.36 5.99l-.01-.03.03-.01 2.27 1.33-.02.04L.36 5.99zm-.01-.03v-.03l.03.02-.03.01zm.11.36l-.01-.01-.01-.01-.01-.01-.01-.01-.01-.01-.01-.01-.01-.02-.01-.01v-.01l-.01-.01V6.2l-.01-.01v-.01l-.01-.01v-.03l-.01-.01V5.98l.01-.01v-.01l.04.01v.05l-.01.01v.05l.01.01v.05l.01.01v.01l.01.01v.02l.01.01v.01l.01.01.01.01v.01l.01.01.01.01h.01l.01.01.01.01-.03.04zm0 0zm1.85 1.5l.01.03h-.04L.46 6.32l.03-.04 1.82 1.54zm.01.03l-.02.02-.02-.02h.04zm.3-.56l.03-.01.01.04-.34.53-.04-.03.34-.53zm.03-.01l.02.01-.01.03-.01-.04z" class="fil1"/><path d="M4.96 8.95H.5c-.26 0-.48.22-.48.48v.14h5.41v-.14c0-.26-.21-.48-.47-.48z" class="fil2"/><path id="1" d="M.5 8.98v-.05h4.46v.05H.5zm-.5.45v-.05l.01-.03v-.02l.01-.03v-.02l.01-.02.01-.03.01-.02.01-.02.01-.02.02-.02.01-.02.01-.02.02-.02.02-.01.01-.02.02-.02.02-.01.02-.02L.24 9l.02-.01.02-.01.02-.01.03-.01.02-.01h.02l.03-.01h.02l.03-.01H.5v.05H.43l-.02.01H.38L.36 9H.34l-.02.01-.02.01-.02.01-.02.01-.01.01-.02.02-.02.01-.02.01-.01.02-.02.01-.01.02-.01.02-.02.02-.01.01-.01.02-.01.02-.01.02-.01.02v.02l-.01.02v.03l-.01.02v.07H0zm.05.14l-.03.02L0 9.57v-.14h.05v.14zm-.03.02H0v-.02l.02.02zm5.41-.04l.03.02-.03.02H.02v-.04h5.41zm.03.02v.02h-.03l.03-.02zm-.05-.14h.05v.14h-.05v-.14zm-.45-.5h.05l.02.01h.03l.02.01h.03l.02.01.02.01.02.01.03.01.02.01.02.01.02.02.01.01.02.02.02.02.02.01.01.02.02.02.01.02.01.02.02.02.01.02.01.02.01.03v.02l.01.02.01.03v.07l.01.03h-.05v-.05l-.01-.02v-.02l-.01-.03v-.02l-.01-.02-.01-.02-.01-.02-.01-.02-.01-.02-.01-.01-.01-.02-.01-.02-.02-.02-.01-.01-.02-.02-.02-.01-.01-.01-.02-.02-.02-.01-.02-.01-.02-.01-.02-.01L5.11 9h-.02l-.02-.01h-.02l-.02-.01h-.07v-.05z" class="fil1"/><g><path d="M3.43 4.05c.26 0 .47.21.47.47S3.69 5 3.43 5c-.27 0-.48-.22-.48-.48s.21-.47.48-.47z" class="fil3"/><path id="1" d="M3.92 4.52h-.04V4.5l-.01-.02v-.05l-.01-.02v-.02l-.01-.02-.01-.02-.01-.02-.01-.02-.01-.02-.01-.02-.01-.02-.02-.01-.01-.02-.02-.01-.01-.02-.02-.01-.01-.02-.02-.01-.02-.01-.02-.01-.02-.01-.02-.01-.02-.01-.02-.01h-.02l-.02-.01h-.05l-.02-.01h-.02v-.04h.07l.03.01h.02l.02.01.03.01.02.01.02.01.02.01.02.01.02.01.02.01.02.02.02.02.02.01.01.02.02.02.01.02.02.02.01.02.01.02.01.02.01.02.01.02.01.03.01.02v.02l.01.03v.07zm-.49.5v-.05h.06l.03-.01h.02l.02-.01h.02l.02-.01.02-.01.02-.01.02-.01.02-.01.02-.02.01-.01.02-.01.01-.02.02-.01.01-.02.02-.02.01-.02.01-.01.01-.02.01-.02.01-.02.01-.02.01-.02v-.02l.01-.03v-.04l.01-.02v-.03h.04v.08l-.01.02v.03l-.01.02-.01.02-.01.03-.01.02-.01.02-.01.02-.01.02-.02.02-.01.02-.02.02-.01.01-.02.02-.02.02-.02.01-.02.02-.02.01-.02.01-.02.01-.02.01-.02.01-.03.01h-.02l-.02.01H3.5l-.02.01h-.05zm-.5-.5h.05v.07l.01.02v.03l.01.02v.02l.01.02.01.02.01.02.01.02.01.01.02.02.01.02.01.02.02.01.01.02.02.01.02.01.01.02.02.01.02.01.02.01.02.01.02.01h.02l.02.01h.03l.02.01h.07v.05h-.05l-.03-.01h-.02L3.3 5h-.02l-.02-.01-.03-.01-.02-.01-.02-.01-.02-.01-.02-.01-.02-.02-.02-.01-.02-.02-.02-.02-.01-.01-.02-.02-.01-.02-.02-.02L3 4.78l-.01-.02-.01-.02-.01-.02-.01-.03-.01-.02-.01-.02v-.03l-.01-.02v-.08zm.5-.49v.04H3.4l-.02.01h-.04l-.03.01h-.02l-.02.01-.02.01-.02.01-.02.01-.02.01-.02.01-.01.01-.02.02-.02.01-.01.02-.02.01-.01.02-.01.01-.02.02-.01.02-.01.02-.01.02-.01.02-.01.02v.02l-.01.02v.02l-.01.02v.07h-.05v-.07l.01-.03V4.4l.01-.02.01-.03.01-.02.01-.02.01-.02.01-.02.01-.02.02-.02.01-.02.02-.02.01-.02.02-.01.02-.02.02-.02.02-.01.02-.01.02-.01.02-.01.02-.01.03-.01.02-.01.02-.01h.03l.02-.01h.08z" class="fil1"/></g><g><path d="M2.88 7.1c.41 0 .75.33.75.75 0 .41-.34.74-.75.74s-.74-.33-.74-.74c0-.42.33-.75.74-.75z" class="fil4"/><path id="1" d="M3.65 7.85H3.6v-.11l-.01-.04-.01-.04-.01-.03-.01-.03-.01-.04-.02-.03-.01-.03-.02-.03-.02-.03-.02-.03-.02-.02-.02-.03-.03-.03-.02-.02-.03-.02-.03-.02-.02-.02-.03-.02-.03-.02-.03-.02-.04-.01-.03-.01-.03-.01-.04-.01-.03-.01-.04-.01h-.03l-.04-.01h-.04v-.04h.08l.04.01h.04l.03.01.04.01.04.01.03.02.04.01.03.02.03.02.03.02.03.02.03.02.03.03.03.02.02.03.03.03.02.03.02.03.02.03.02.03.02.03.01.04.01.03.02.04.01.03.01.04v.04l.01.04v.08zm-.77.76v-.04h.04l.04-.01h.03l.04-.01.03-.01.04-.01.03-.01.03-.01.04-.01.03-.02.03-.02.03-.02.02-.02.03-.02.03-.02.02-.02.03-.03.02-.03.02-.02.02-.03.02-.03.02-.03.01-.03.02-.03.01-.04.01-.03.01-.03.01-.04.01-.03v-.11h.05v.07l-.01.04V8l-.01.04-.01.03-.02.04-.01.03-.01.04-.02.03-.02.03-.02.04-.02.03-.02.02-.03.03-.02.03-.03.02-.03.03-.03.02-.03.02-.03.02-.03.02-.03.02-.04.01-.03.02-.04.01-.04.01-.03.01-.04.01h-.12zm-.77-.76h.05v.07l.01.04.01.03v.04l.01.03.01.03.02.04.01.03.02.03.01.03.02.03.02.03.03.02.02.03.02.03.03.02.02.02.03.02.03.02.03.02.03.02.03.02.03.01.03.01.04.01.03.01.04.01.03.01h.04l.03.01h.04v.04h-.12l-.03-.01-.04-.01-.04-.01-.03-.01-.04-.02-.03-.01-.03-.02-.04-.02-.03-.02-.03-.02-.03-.02-.02-.03-.03-.02-.03-.03-.02-.03-.02-.02-.03-.03-.02-.04-.01-.03-.02-.03-.02-.04-.01-.03-.01-.04-.01-.03L2.13 8l-.01-.04v-.04l-.01-.04v-.03zm.77-.77v.04h-.04l-.03.01h-.04l-.03.01-.04.01-.03.01-.04.01-.03.01-.03.01-.03.02-.03.02-.03.02-.03.02-.03.02-.02.02-.03.02-.02.03-.02.03-.03.02-.02.03-.02.03-.01.03-.02.03-.01.03-.02.04-.01.03-.01.03v.04l-.01.04-.01.03v.08h-.05v-.04l.01-.04v-.04l.01-.04.01-.04.01-.03.01-.04.01-.03.02-.04.02-.03.01-.03.02-.03.03-.03.02-.03.02-.03.03-.03.03-.02.02-.03.03-.02.03-.02.03-.02.04-.02.03-.02.03-.01.04-.02.03-.01.04-.01.04-.01h.03l.04-.01h.08z" class="fil1"/></g><g><path d="M2.88 7.53c.18 0 .32.14.32.32 0 .17-.14.31-.32.31-.17 0-.31-.14-.31-.31 0-.18.14-.32.31-.32z" class="fil3"/><path id="1" d="M3.22 7.85h-.05V7.79l-.01-.02v-.01l-.01-.01v-.02l-.01-.01v-.01l-.01-.02-.01-.01-.01-.01v-.01l-.01-.01-.01-.01-.01-.01-.01-.01-.01-.01-.02-.01h-.01l-.01-.01-.01-.01h-.02l-.01-.01h-.01l-.02-.01h-.07v-.05h.05l.02.01h.03l.02.01h.01l.02.01.01.01.02.01.01.01.01.01.02.01.01.01.01.01.01.01.01.01.01.01.01.02.01.01.01.01.01.02v.01l.01.02v.01l.01.02v.02l.01.01v.06zm-.34.33v-.04l.02-.01h.05l.02-.01h.01l.01-.01h.02l.01-.01.01-.01h.01l.02-.01.01-.01.01-.01.01-.01.01-.01.01-.01v-.01l.01-.01.01-.01.01-.02v-.01l.01-.01v-.02l.01-.01v-.01l.01-.02v-.05h.05v.05l-.01.01v.02l-.01.02v.01l-.01.02v.01l-.01.02-.01.01-.01.01-.01.02-.01.01-.01.01-.01.01-.01.01-.01.02-.02.01h-.01l-.01.01-.02.01-.01.01-.02.01H3l-.02.01h-.01l-.02.01h-.07zm-.33-.33h.04v.02l.01.02v.03l.01.01v.01l.01.02v.01l.01.01V8l.01.01.01.01.01.01.01.01.01.01.01.01.01.01.01.01.01.01h.01l.01.01.02.01h.01l.01.01h.02l.01.01h.06l.01.01v.04h-.07l-.01-.01h-.02l-.01-.01h-.02l-.01-.01-.02-.01-.01-.01-.02-.01h-.01l-.01-.01-.01-.02-.02-.01-.01-.01-.01-.01-.01-.01-.01-.02-.01-.01v-.01l-.01-.02-.01-.01v-.02l-.01-.01v-.02l-.01-.02V7.85zm.33-.34v.05H2.81l-.01.01h-.02l-.01.01h-.01l-.02.01-.01.01h-.01l-.01.01-.01.01-.01.01-.01.01-.01.01-.01.01-.01.01-.01.01-.01.01v.02l-.01.01v.01l-.01.02v.01l-.01.01v.03l-.01.02v.03h-.04V7.78l.01-.02v-.02l.01-.01v-.02l.01-.01.01-.02v-.01l.01-.01.01-.02.01-.01.01-.01.01-.01.02-.01.01-.01.01-.01.01-.01.02-.01.01-.01.02-.01.01-.01h.02l.01-.01h.03l.02-.01h.05z" class="fil1"/></g><g><path d="M14.59 4.6l-1.19-.79-2.12 3.17c-.46.53-.9.63-1.31.38-.5-.38-.38-.84-.12-1.32l2.11-3.16-1.18-.8-2.24 3.35c-.55.72-.54 1.89.18 2.78.31.38.61.53 1.06.67 1 .31 1.85 0 2.57-.94l2.24-3.34z" class="fil4"/><path id="1" d="M13.39 3.82l-.01-.03h.04l1.18.79-.03.04-1.18-.8zm-.01-.03l.02-.02.02.02h-.04zm-2.08 3.2l-.04-.03 2.12-3.17.04.03-2.12 3.17zm0 0zm-1.32.35l.04.02.04.02.04.02.03.02.04.01.04.01.04.01.04.01.03.01h.12l.04-.01h.04l.04-.01.04-.01.04-.01.04-.02.04-.01.04-.02.04-.02.04-.03.04-.02.04-.03.04-.03.05-.04.04-.03.04-.04.04-.04.05-.05.04-.04.04-.05.04.03-.05.05-.04.05-.04.04-.05.04-.04.04-.04.04-.05.03-.04.04-.04.03-.04.02-.05.03-.04.02-.04.02-.04.02-.05.01-.04.02-.04.01-.04.01h-.09l-.04.01h-.04l-.04-.01h-.04l-.04-.01-.04-.01-.04-.01-.04-.02-.04-.01-.04-.02-.04-.02-.04-.03.02-.04zm-.02.04zm-.09-1.33l-.03.05-.02.04-.02.04-.02.05-.02.04-.02.04-.01.05-.02.04-.01.04-.02.05-.01.04-.01.04v.04l-.01.04v.17l.01.04v.04l.02.03.01.04.01.04.02.04.02.04.03.04.03.03.03.04.03.04.04.03.04.04.04.03-.02.04-.05-.04-.04-.03-.04-.04-.04-.04-.03-.04-.03-.04-.03-.04-.02-.04-.02-.04-.02-.04-.01-.04-.01-.04-.01-.05-.01-.04v-.17l.01-.04.01-.05.01-.04.01-.05.01-.04.02-.04.01-.05.02-.04.02-.05.02-.04.02-.05.02-.04.02-.05.02-.04h.01l.04.02zm-.05-.02h.01-.01zm2.13-3.17h.03v.03L9.87 6.05l-.04-.02 2.12-3.17zm.03 0l.02.01-.02.02v-.03zm-1.21-.76l-.01-.03h.04l1.18.79-.03.04-1.18-.8zm-.01-.03l.02-.02.02.02h-.04zm-2.2 3.37l-.04-.03 2.24-3.34.04.03-2.24 3.34zm0 0zm.14 2.79l-.06-.09-.07-.09-.05-.08-.06-.09-.05-.09-.04-.1-.04-.09-.04-.09-.04-.09-.03-.1-.02-.09-.02-.1-.02-.09-.01-.09-.01-.1-.01-.09v-.28l.01-.09.01-.09.02-.09.02-.09.02-.08.03-.09.03-.08.03-.08.04-.08.04-.08.05-.07.04-.08.05-.07.04.03-.05.07-.04.07-.05.07-.04.08-.03.08-.04.08-.03.08-.02.08-.02.08-.02.09-.02.09-.01.08-.01.09v.09l-.01.09.01.1v.09l.01.09.02.09.01.09.02.1.03.09.03.09.03.09.04.09.04.09.04.09.05.09.06.09.05.09.07.08.06.09-.04.03zm1.08.68l-.05-.02-.04-.01-.04-.02-.04-.01-.04-.01-.04-.02-.03-.01-.04-.02-.04-.01-.03-.02-.04-.01-.03-.02-.04-.02-.03-.02-.03-.01-.03-.02-.04-.02-.03-.02-.03-.03-.03-.02-.03-.02L9 8.52l-.03-.02-.03-.03-.03-.02-.03-.03-.03-.03-.03-.03-.03-.03-.03-.04-.03-.03-.03-.03.04-.03.03.03.03.03.03.04.02.03.03.03.03.02.03.03.03.03.03.02.03.03.03.02.03.02.03.03.03.02.03.02.03.02.03.01.03.02.04.02.03.02.03.01.04.02.03.01.04.02.03.01.04.02.04.01.04.02.04.01.04.01.04.02.04.01-.01.05zm2.59-.96l-.07.09-.07.08-.07.08-.07.08-.07.07-.07.07-.08.06-.07.06-.07.06-.08.06-.08.05-.07.04-.08.05-.08.03-.08.04-.08.03-.08.03-.08.02-.09.02-.08.02-.09.01-.08.01-.09.01h-.26l-.09-.01-.09-.02-.1-.01-.09-.02-.09-.03-.09-.02.01-.05.09.03.09.02.09.02.09.02.09.01.09.01h.09l.08.01.09-.01h.08l.09-.01.08-.01.08-.02.08-.02.08-.03.08-.02.08-.03.08-.04.08-.04.07-.04.08-.04.07-.05.08-.06.07-.05.07-.06.07-.07.08-.06.07-.07.06-.08.07-.08.07-.08.07-.08.04.02zm0 0zm2.2-3.37h.03l.01.03-2.24 3.34-.04-.02 2.24-3.35zm.03 0l.02.01-.01.02-.01-.03z" class="fil1"/><g><path fill="#f08bb2" d="M14.59 4.6l-1.19-.79-2.12 3.17c-.46.53-.9.63-1.31.38l-.01-.01-.83 1.24c.19.13.39.21.65.29 1 .31 1.85 0 2.57-.94l2.24-3.34z"/><path id="1" d="M13.39 3.82l-.01-.03h.04l1.18.79-.03.04-1.18-.8zm-.01-.03l.02-.02.02.02h-.04zm-2.08 3.2l-.04-.03 2.12-3.17.04.03-2.12 3.17zm0 0zm-1.32.35l.04.02.04.02.04.02.03.02.04.01.04.01.04.01.04.01.03.01h.12l.04-.01h.04l.04-.01.04-.01.04-.01.04-.02.04-.01.04-.02.04-.02.04-.03.04-.02.04-.03.04-.03.05-.04.04-.03.04-.04.04-.04.05-.04.04-.05.04-.05.04.03-.05.05-.04.05-.04.04-.05.04-.04.04-.04.04-.05.03-.04.04-.04.03-.04.02-.05.03-.04.02-.04.02-.04.02-.05.01-.04.02-.04.01-.04.01h-.09l-.04.01h-.04l-.04-.01h-.04l-.04-.01-.04-.01-.04-.01-.04-.02-.04-.01-.04-.02-.04-.02-.04-.03h-.01l.03-.04zm-.02.04h-.01.01zm-.02-.01v-.03l.03-.01.01.01-.03.04-.01-.01zm0-.03l.01-.02.02.01-.03.01zM9.15 8.6l-.04.01v-.03l.83-1.24.04.03-.83 1.23zm-.04.01l-.02-.01.02-.02v.03zm.67.3l-.03-.01-.02-.01-.03-.01-.02-.01h-.02l-.03-.01-.02-.01-.02-.01-.02-.01h-.02l-.03-.01-.02-.01-.02-.01-.02-.01-.02-.01h-.02l-.02-.01-.02-.01-.02-.01-.02-.01-.02-.01-.02-.01-.02-.01-.02-.01-.02-.01-.02-.01-.01-.01-.02-.01-.02-.01-.02-.02-.02-.01-.02-.01.03-.04.02.01.02.01.01.02.02.01.02.01.02.01.02.01.01.01.02.01.02.01.02.01.02.01.02.01h.02l.02.01.02.01.02.01.02.01.02.01.02.01h.02l.02.01.02.01.03.01.02.01h.02l.02.01.02.01.03.01.02.01h.03l.02.01-.01.05zm2.59-.96l-.07.09-.07.08-.07.08-.07.08-.07.07-.07.07-.08.06-.07.06-.07.06-.08.06-.08.05-.07.04-.08.05-.08.03-.08.04-.08.03-.08.03-.08.02-.09.02-.08.02-.09.01-.08.01-.09.01h-.26l-.09-.01-.09-.02-.1-.01-.09-.02-.09-.03-.09-.02.01-.05.09.03.09.02.09.02.09.02.09.01.09.01h.09l.08.01.09-.01h.08l.09-.01.08-.01.08-.02.08-.02.08-.03.08-.02.08-.03.08-.04.08-.04.07-.04.08-.04.07-.05.08-.06.07-.05.07-.06.07-.07.08-.06.07-.07.06-.08.07-.08.07-.08.07-.08.04.02zm0 0zm2.2-3.37h.03l.01.03-2.24 3.34-.04-.02 2.24-3.35zm.03 0l.02.01-.01.02-.01-.03z" class="fil1"/></g></g><g><path d="M11.86 2c-.03.04-.08.05-.12.02-.04-.03-.04-.08-.02-.11l.14.09zm.83-1.13L11.86 2l-.14-.09.84-1.13.15.03-.02.06zm-.13-.09l.12-.17.03.2-.15-.03zm.1.86l-.12-.8.17-.03.12.8-.02.07-.15-.04zm.15.04l-.12.15-.03-.19.15.04zM14.03.13l-1.22 1.55-.13-.11L13.9.03l.13.1zm-.13-.1c.02-.03.08-.04.11-.01.04.03.05.08.02.11l-.13-.1z" class="fil6"/></g><g><path d="M15.75 1.27l-.13-.11c.04-.03.09-.04.12 0 .04.03.04.08.01.11zm-.95 1.04l-.06.02-.07-.14.95-1.03.13.11-.95 1.04zm-.06.02l-.2.01.13-.15.07.14zm.8-.19l.07.13-.06.03-.81.03-.01-.16.81-.03zm0 0l.19-.01-.12.14-.07-.13zm-1.22 1.62l-.12-.11 1.28-1.49.13.11-1.29 1.49zm-.12-.11l.12.11c-.03.03-.08.04-.11.01-.04-.03-.04-.09-.01-.12z" class="fil6"/></g><g><path d="M16.79.85l-.12-.11c.03-.04.09-.04.12-.01s.03.09 0 .12zm-.95 1.03l-.05.03-.07-.14.95-1.03.12.11-.95 1.03zm-.05.03l-.2.01.13-.15.07.14zm.8-.2l.06.14-.06.03-.8.03-.01-.17.81-.03zm0 0l.19-.01-.13.15-.06-.14zm-1.22 1.63l-.12-.11 1.28-1.49.12.11-1.28 1.49zm-.12-.11l.12.11c-.03.03-.08.03-.12 0-.03-.03-.03-.08 0-.11z" class="fil6"/></g></g></g></svg>