<svg xmlns="http://www.w3.org/2000/svg" width="96" height="66" fill-rule="evenodd" clip-rule="evenodd" image-rendering="optimizeQuality" shape-rendering="geometricPrecision" text-rendering="geometricPrecision" viewBox="0 0 62.79 43.35"><defs><style>.fil4{fill:#f08bb2}.fil1{fill:#2b2a29;fill-rule:nonzero}</style></defs><g id="Слой_x0020_1"><g id="_838559168"><path fill="#99cfba" d="M57.85 4.99h-7.76v.63c1.73 1.71.72 4.47-1.5 4.47-2.23 0-3.24-2.76-1.5-4.47v-.63h-7.77v5.56h-.6c-.45-.5-1.11-.81-1.84-.81-1.35 0-2.44 1.06-2.44 2.38 0 1.31 1.09 2.37 2.44 2.37.73 0 1.39-.31 1.84-.81h.6v5.56h6.28c-.52-1.37.44-3.87 2.88-3.87 2.51 0 3.63 2.48 2.98 3.87h6.39V4.99z"/><path id="1" d="M50.09 5.1l-.11-.11.11-.11h7.76v.22h-7.76zm-.11-.11v-.11h.11l-.11.11zm.22.63l-.19.08-.03-.08v-.63h.22v.63zm-.19.08l-.03-.03v-.05l.03.08zm-1.42 4.28l.19-.01.19-.02.19-.04.17-.05.16-.06.16-.07.15-.09.14-.1.13-.1.12-.12.12-.12.1-.14.09-.14.09-.15.07-.15.06-.16.05-.16.04-.17.03-.17.01-.18.01-.18-.01-.17-.02-.18-.04-.19-.04-.17-.07-.18-.07-.18-.09-.17-.11-.17-.11-.17-.14-.16-.15-.16.15-.15.16.16.15.18.13.18.11.18.09.19.09.19.06.19.05.2.04.19.03.2.01.19-.01.19-.02.19-.03.19-.04.18-.05.18-.07.18-.08.16-.09.16-.1.16-.12.14-.12.14-.14.13-.14.12-.15.1-.17.1-.17.08-.18.07-.19.05-.2.04-.21.03-.21.01v-.22zM47.2 5.62l-.04.08-.15.16-.13.16-.12.17-.1.17-.09.17-.08.18-.06.18-.05.18-.03.18-.02.18-.01.17v.18l.02.18.02.17.04.17.05.16.07.16.07.15.08.15.09.14.11.14.11.12.12.12.13.1.14.1.15.09.16.07.17.06.17.05.18.04.19.02.2.01v.22l-.22-.01-.2-.03-.2-.04-.19-.05-.18-.07-.18-.08-.16-.1-.16-.1-.14-.12-.13-.13-.13-.14-.11-.14-.1-.16-.09-.16-.08-.16-.07-.18-.06-.18-.04-.18-.03-.19-.02-.19V7.6l.01-.19.02-.2.04-.19.05-.2.07-.19.08-.19.1-.19.11-.18.13-.18.14-.18.16-.16-.03.07h.22zm0 0v.05l-.04.03.04-.08zm-.22-.63l.11-.11.11.11v.63h-.22v-.63zm.11-.11h.11v.11l-.11-.11zm-7.77.22l-.11-.11.11-.11h7.77v.22h-7.77zm-.11-.11v-.11h.11l-.11.11zm.22 5.56l-.11.11-.11-.11V4.99h.22v5.56zm0 0v.11h-.11l.11-.11zm-.71.11l-.09-.04.09-.18h.6v.22h-.6zm0 0h-.05l-.04-.04.09.04zm-1.84-1.03h.07l.07.01h.07l.07.01.07.01.07.01.07.01.07.01.06.02.07.01.06.02.07.02.06.03.06.02.07.02.06.03.06.03.06.03.06.03.06.03.05.04.06.03.05.04.06.04.05.04.05.04.05.04.05.04.05.05.05.04.04.05.05.05-.17.14-.04-.04-.04-.04-.04-.05-.04-.04-.05-.04-.05-.04-.04-.03-.05-.04-.05-.03-.05-.04-.05-.03-.05-.03-.06-.03-.05-.03-.05-.03-.06-.02-.06-.03-.05-.02-.06-.02-.06-.02-.06-.02-.06-.02-.06-.01-.06-.02-.06-.01-.06-.01-.07-.01-.06-.01h-.06l-.07-.01h-.13v-.22zm-2.55 2.49v-.13l.01-.13.02-.12.02-.12.03-.12.04-.12.04-.12.04-.11.05-.11.06-.11.06-.1.07-.1.07-.1.07-.1.08-.08.09-.09.09-.08.09-.08.1-.08.1-.06.1-.07.11-.06.11-.05.11-.05.12-.05.11-.04.12-.03.13-.03.12-.02.13-.02h.13l.13-.01v.22h-.12l-.12.01-.12.02-.11.02-.11.02-.11.03-.11.04-.11.04-.1.04-.1.05-.1.06-.09.06-.1.06-.08.07-.09.07-.08.07-.08.08-.07.09-.07.08-.06.09-.06.09-.06.1-.05.09-.05.1-.04.11-.04.1-.03.11-.03.11-.02.11-.01.11-.01.12v.12h-.22zm2.55 2.48h-.13l-.13-.01-.13-.02-.12-.02-.13-.03-.12-.03-.11-.04-.12-.04-.11-.05-.11-.06-.11-.06-.1-.06-.1-.07-.1-.08-.09-.07-.09-.09-.09-.08-.08-.09-.07-.1-.07-.09-.07-.1-.06-.11-.06-.11-.05-.11-.04-.11-.04-.11-.04-.12-.03-.12-.02-.12-.02-.13-.01-.13v-.12h.22v.11l.01.12.01.11.02.11.03.11.03.11.04.11.04.1.05.1.05.1.06.09.06.09.06.09.07.09.07.08.08.08.08.07.09.07.08.07.1.07.09.06.1.05.1.05.1.04.11.05.11.03.11.03.11.03.11.02.12.01.12.01h.12v.22zm1.84-.81l.08-.03-.05.04-.04.05-.05.05-.05.04-.05.04-.05.05-.05.04-.05.04-.06.03-.05.04-.06.04-.05.03-.06.03-.06.03-.06.03-.06.03-.06.03-.07.02-.06.03-.06.02-.07.02-.06.02-.07.02-.06.01-.07.02-.07.01-.07.01-.07.01h-.07l-.07.01h-.14v-.22h.2l.06-.01.06-.01.07-.01.06-.01.06-.01.06-.01.06-.02.06-.02.06-.02.06-.02.06-.02.05-.02.06-.03.06-.02.05-.03.05-.03.06-.03.05-.03.05-.03.05-.03.05-.04.05-.04.04-.03.05-.04.05-.04.04-.04.04-.04.04-.05.04-.04.09-.03v.21zm-.09-.18l.04-.03h.05l-.09.03zm.69-.03l.11.1-.11.11h-.6v-.21h.6zm0 0h.11v.1l-.11-.1zm.11 5.66l-.11.11-.11-.11v-5.56h.22v5.56zm-.11.11h-.11v-.11l.11.11zm6.28-.21l.1.06-.1.15h-6.28v-.21h6.28zm.1.06l.06.15h-.16l.1-.15zm2.78-3.72h-.22l-.21.02-.2.04-.19.04-.18.06-.18.07-.16.07-.16.09-.15.1-.14.11-.13.11-.13.12-.11.12-.11.14-.1.14-.09.14-.08.14-.08.15-.06.16-.06.15-.05.16-.04.15-.03.16-.03.15-.01.16-.01.15v.15l.01.14.02.14.02.14.04.13.04.12-.2.08-.05-.14-.04-.14-.03-.15-.01-.16-.02-.15v-.17l.01-.16.02-.16.02-.17.04-.17.04-.16.05-.17.07-.17.07-.16.08-.16.08-.15.1-.16.11-.15.11-.14.13-.13.13-.13.15-.12.15-.12.16-.1.17-.1.18-.08.19-.08.19-.06.21-.05.21-.03.22-.02.24-.01v.22zm2.98 3.87l-.1-.15.06-.13.04-.13.03-.14.03-.14.01-.14v-.3l-.01-.16-.03-.15-.03-.16-.04-.15-.06-.16-.06-.15-.07-.15-.08-.15-.08-.15-.1-.14-.11-.14-.11-.13-.13-.13-.13-.12-.14-.11-.15-.1-.16-.1-.16-.09-.18-.07-.18-.07-.19-.06-.2-.04-.21-.04-.22-.02h-.22v-.22l.23.01.24.02.22.03.21.05.21.06.19.07.19.09.18.09.17.1.16.12.15.12.14.13.14.13.12.14.11.15.11.15.09.16.09.16.07.16.07.17.05.16.05.17.03.17.03.16.02.17v.33l-.02.16-.03.16-.03.15-.05.15-.06.14-.1-.15v.21zm0 0h-.17l.07-.15.1.15zm6.39-.21l.11.1-.11.11h-6.39v-.21h6.39zm.11.1v.11h-.11l.11-.11zm-.21-14.25l.1-.11.11.11v14.25h-.21V4.99zm.1-.11h.11v.11l-.11-.11z" class="fil1"/><path fill="#f9d5d7" d="M29.14.11c-2.22-.03-3.05 2.94-1.5 4.46v.25h-7.79v5.56h-.6c-.45-.5-1.11-.81-1.84-.81-1.35 0-2.44 1.06-2.44 2.37s1.09 2.38 2.44 2.38c.73 0 1.39-.32 1.84-.81h.6v5.56h7.77v.86c-1.58 1.56-.6 4.34 1.5 4.35 2.22.02 3.13-2.74 1.5-4.35v-.86h7.76v-4.45c-1.15.85-3.15.41-4.02-.76-.37-.48-.6-1.08-.6-1.74 0-.84.38-1.6.98-2.13.89-.85 2.67-1.08 3.64-.36V4.82h-7.74v-.25c1.54-1.52.72-4.44-1.5-4.46z"/><path id="1" d="M27.53 4.57l.03.08-.14-.15-.13-.16-.12-.17-.1-.18-.09-.17-.07-.19-.06-.19-.05-.19-.03-.19-.02-.19-.01-.2v-.19l.02-.19.02-.19.04-.19.05-.18.07-.18.07-.17.09-.17.09-.16.11-.15.12-.15.12-.13.14-.12.15-.11.16-.1.17-.09.18-.07.18-.06.2-.04.21-.02.21-.01v.22h-.2l-.18.02-.18.04-.17.05-.16.07-.15.08-.15.09-.13.1-.13.11-.11.12-.11.13-.1.14-.09.15-.07.15-.07.16-.06.16-.05.17-.03.18-.03.17-.01.18-.01.18.01.18.02.18.03.18.05.17.05.18.07.17.08.16.1.16.1.16.12.15.13.14.03.07h-.21zm.18-.07l.03.03v.04l-.03-.07zm.03.32l-.1.1-.11-.1v-.25h.21v.25zm0 0v.1h-.1l.1-.1zm-7.89.1l-.1-.1.1-.11h7.79v.21h-7.79zm-.1-.1v-.11h.1l-.1.11zm.21 5.56l-.11.1-.1-.1V4.82h.21v5.56zm0 0v.1h-.11l.11-.1zm-.71.1l-.08-.03.08-.18h.6v.21h-.6zm0 0h-.05l-.03-.03.08.03zm-1.84-1.02h.14l.07.01h.07l.07.01.07.01.07.01.07.02.06.01.07.02.07.02.06.02.06.02.07.02.06.03.06.03.06.03.06.02.06.04.06.03.05.03.06.04.05.03.06.04.05.04.05.04.05.04.05.05.05.04.05.05.04.05.05.04-.16.15-.04-.04-.05-.05-.04-.04-.04-.04-.05-.04-.04-.04-.05-.04-.05-.03-.05-.04-.05-.03-.05-.03-.05-.03-.05-.03-.06-.03-.05-.03-.06-.03-.05-.02-.06-.02-.06-.03-.06-.01-.06-.02-.06-.02-.06-.02-.06-.01-.06-.01-.06-.01-.07-.01-.06-.01-.06-.01h-.13l-.07-.01v-.21zm-2.55 2.48l.01-.12.01-.13.01-.13.02-.12.03-.12.04-.12.04-.11.04-.12.05-.11.06-.1.06-.11.07-.1.07-.1.08-.09.08-.09.08-.09.09-.08.09-.08.1-.07.1-.07.1-.06.11-.06.11-.06.11-.05.12-.04.11-.04.13-.03.12-.03.13-.02.12-.02.13-.01h.13v.21l-.12.01-.12.01-.11.01-.12.02-.11.03-.11.03-.11.03-.11.04-.1.05-.1.05-.1.05-.09.06-.09.07-.09.06-.09.08-.08.07-.08.08-.07.08-.07.09-.06.09-.06.09-.06.09-.05.1-.05.1-.04.1-.04.11-.03.11-.02.11-.02.11-.02.11-.01.12v.11h-.22zm2.55 2.49l-.13-.01-.13-.01-.12-.01-.13-.02-.12-.03-.13-.03-.11-.04-.12-.05-.11-.05-.11-.05-.11-.06-.1-.07-.1-.07-.1-.07-.09-.08-.09-.08-.08-.09-.08-.09-.08-.09-.07-.1-.07-.1-.06-.1-.05-.11-.06-.11-.04-.11-.04-.12-.04-.12-.03-.12-.02-.12-.01-.12-.01-.13-.01-.13h.22v.12l.01.11.02.12.02.11.02.11.03.11.04.1.04.1.05.1.05.1.06.1.06.09.06.09.07.08.07.09.08.07.08.08.09.07.09.07.09.06.09.06.1.06.1.05.1.04.11.04.11.04.11.03.11.02.12.02.11.02.12.01h.12v.22zm1.84-.81l.08-.04-.05.05-.04.05-.05.04-.05.05-.05.04-.05.04-.05.04-.05.04-.06.04-.05.04-.06.03-.05.04-.06.03-.06.03-.06.03-.06.03-.06.02-.06.03-.07.02-.06.03-.06.02-.07.01-.07.02-.06.02-.07.01-.07.01-.07.01-.07.01-.07.01h-.07l-.07.01h-.07v-.22h.13l.07-.01.06-.01h.06l.07-.01.06-.01.06-.01.06-.02.06-.01.06-.02.06-.02.06-.02.06-.02.06-.03.05-.02.06-.03.05-.02.06-.03.05-.03.05-.03.05-.03.05-.04.05-.03.05-.04.05-.04.04-.03.05-.04.04-.04.04-.05.05-.04.04-.04.08-.04v.22zm-.08-.18l.03-.04h.05l-.08.04zm.68-.04l.11.11-.11.11h-.6v-.22h.6zm0 0h.11v.11l-.11-.11zm.11 5.67l-.11.11-.1-.11v-5.56h.21v5.56zm-.11.11h-.1v-.11l.1.11zm7.77-.22l.11.11-.11.11h-7.77v-.22h7.77zm0 0h.11v.11l-.11-.11zm.11.97l-.04.08-.18-.08v-.86h.22v.86zm0 0v.05l-.04.03.04-.08zm1.39 4.46l-.2-.01-.2-.02-.19-.05-.18-.05-.17-.07-.17-.08-.15-.1-.15-.11-.14-.12-.13-.12-.12-.14-.1-.15-.1-.15-.09-.16-.08-.17-.06-.17-.06-.17-.04-.18-.03-.19-.02-.18-.01-.19.01-.19.01-.19.04-.18.04-.19.06-.18.07-.19.09-.17.1-.18.12-.17.13-.16.14-.15.15.15-.13.14-.12.15-.11.16-.09.16-.08.16-.07.17-.05.17-.04.17-.03.17-.02.18v.34l.02.17.03.17.04.17.05.16.06.16.07.15.08.15.09.14.1.13.11.13.12.11.12.11.14.1.14.09.15.07.15.06.17.05.17.04.17.03.19.01v.21zm1.61-4.46l-.03-.07.15.16.13.16.12.17.11.18.09.18.08.18.06.19.05.19.03.19.03.19.01.19-.01.18-.01.19-.03.18-.04.18-.06.18-.06.17-.08.17-.09.16-.09.15-.11.14-.12.14-.14.13-.14.11-.15.11-.16.09-.17.08-.18.07-.19.05-.19.04-.21.02-.21.01v-.21l.2-.01.18-.02.18-.04.17-.05.17-.06.15-.07.15-.09.13-.09.13-.11.12-.11.11-.12.1-.14.09-.14.08-.14.07-.15.06-.16.05-.16.03-.17.03-.17.02-.17v-.17l-.01-.18-.02-.17-.03-.17-.05-.18-.06-.17-.07-.17-.08-.17-.1-.16-.11-.16-.13-.15-.14-.15-.03-.08h.22zm-.19.08l-.03-.03v-.05l.03.08zm-.03-.94l.11-.11.11.11v.86h-.22v-.86zm0 0v-.11h.11l-.11.11zm7.87-.11l.11.11-.11.11h-7.76v-.22h7.76zm.11.11v.11h-.11l.11-.11zm-.21-4.45l.04-.09.17.09v4.45h-.21v-4.45zm.04-.09l.17-.12v.21l-.17-.09zm-3.87-.74v.01l.08.1.09.1.09.09.1.09.1.09.11.08.11.08.12.07.12.07.12.06.13.06.13.05.13.05.13.04.14.03.14.03.13.03.14.02.14.01h.14l.13.01.14-.01.13-.01.13-.02.13-.03.13-.03.12-.04.13-.04.11-.05.12-.06.11-.07.1-.07.13.18-.12.08-.12.07-.12.06-.13.06-.14.05-.13.04-.14.04-.14.02-.14.02-.15.02H36.83l-.15-.01-.14-.01-.15-.02-.15-.02-.14-.04-.14-.03-.15-.05-.14-.05-.13-.05-.14-.06-.13-.07-.13-.07-.13-.08-.12-.08-.11-.09-.11-.09-.11-.1-.1-.11-.09-.1-.09-.12v.01l.17-.14zm0 0v.01-.01zm-.58-1.67v.06l.01.06v.12l.01.05.01.06v.06l.01.06.01.05.01.06.02.05.01.06.02.05.01.05.02.06.02.05.01.05.03.05.02.06.02.05.02.05.03.05.02.05.03.05.02.04.03.05.03.05.03.04.03.05.03.05.04.04.03.04-.17.14-.04-.05-.03-.05-.04-.05-.03-.04-.03-.06-.03-.05-.03-.05-.03-.05-.03-.05-.03-.05-.02-.06-.03-.05-.02-.06-.03-.05-.02-.06-.02-.06-.02-.05-.02-.06-.01-.06-.02-.06-.01-.06-.02-.06-.01-.06-.01-.06-.01-.06-.01-.06-.01-.06v-.06l-.01-.07v-.19h.21zm.94-2.05v.01l-.06.04-.05.05-.05.05-.05.06-.05.05-.04.05-.05.06-.04.05-.04.06-.04.06-.04.06-.04.06-.04.06-.03.06-.03.07-.03.06-.03.07-.03.07-.03.06-.02.07-.02.07-.03.07-.01.07-.02.07-.02.07-.01.08-.01.07-.01.07-.01.08v.07l-.01.08v.07h-.21v-.16l.01-.08v-.08l.01-.08.02-.08.01-.08.02-.08.02-.07.02-.08.02-.08.02-.07.03-.07.03-.08.03-.07.03-.07.03-.07.04-.07.04-.06.03-.07.04-.07.05-.06.04-.06.05-.07.04-.06.05-.06.05-.06.05-.05.06-.06.05-.05.06-.06.06-.05-.01.01.15.15zm0 0v.01h-.01l.01-.01zm3.68-.44l-.17.09-.09-.07-.09-.05-.1-.05-.1-.05-.1-.04-.11-.03-.11-.04-.11-.02-.12-.02-.12-.02-.12-.01-.12-.01h-.24l-.12.01-.13.01-.12.02-.12.02-.13.02-.12.03-.11.03-.12.04-.12.04-.11.05-.11.05-.11.05-.1.06-.1.06-.1.06-.09.07-.09.07-.08.07-.15-.15.09-.09.1-.07.1-.08.1-.07.11-.06.11-.06.12-.06.11-.05.13-.05.12-.05.12-.04.13-.03.13-.03.13-.03.13-.02.13-.02.13-.01.13-.01h.26l.13.01.13.01.13.02.12.02.12.03.12.04.12.04.12.04.11.05.1.06.11.06.1.07-.17.09h.21zm0 0v.21l-.17-.12.17-.09zm-.21-4.81l.1-.11.11.11v4.81h-.21V4.82zm.1-.11h.11v.11l-.11-.11zm-7.74.21l-.11-.1.11-.11h7.74v.21h-7.74zm0 0h-.11v-.1l.11.1zm-.11-.35l.03-.07.19.07v.25h-.22v-.25zm0 0v-.04l.03-.03-.03.07zM29.14 0l.21.01.21.03.19.04.19.06.18.08.17.08.16.1.14.12.14.12.13.14.12.14.11.15.09.16.09.17.07.17.06.18.05.18.04.18.03.19.02.19v.19l-.01.2-.02.19-.04.19-.04.19-.06.19-.08.18-.09.18-.1.17-.11.17-.13.16-.15.15-.15-.15.13-.15.12-.14.11-.16.09-.16.08-.16.07-.17.06-.17.04-.18.03-.17.02-.18.01-.18V2.5l-.01-.17-.03-.18-.04-.17-.04-.17-.06-.16-.07-.16-.08-.15-.09-.15-.09-.14-.11-.13-.12-.12-.12-.11-.14-.11-.14-.09-.15-.08-.16-.06-.17-.06-.18-.04-.19-.02-.19-.01V0z" class="fil1"/><path fill="#d8ece4" d="M19.85 21.04h6.49c-.82 1.85.83 4.05 2.8 4 2.13-.05 3.52-2.08 2.8-4h6.44v5.56h.61c.45-.5 1.1-.81 1.84-.81 1.34 0 2.44 1.06 2.44 2.37 0 1.32-1.1 2.38-2.44 2.38-.74 0-1.39-.31-1.84-.81h-.61v5.56h-7.76v-.63c.47-.47.77-1.16.77-1.92 0-1.41-1.01-2.55-2.27-2.55s-2.28 1.14-2.28 2.55c0 .76.3 1.45.78 1.92v.63h-7.77V21.04z"/><path id="1" d="M26.34 20.93l.1.15-.1.07h-6.49v-.22h6.49zm0 0h.16l-.06.15-.1-.15zm2.8 4.22h-.19l-.19-.02-.19-.03-.18-.04-.18-.05-.17-.06-.17-.08-.16-.08-.16-.09-.16-.11-.15-.11-.14-.12-.13-.12-.13-.14-.12-.14-.11-.15-.11-.15-.09-.16-.09-.16-.07-.17-.07-.17-.05-.17-.05-.18-.03-.18-.02-.19-.01-.18v-.18l.02-.19.03-.19.04-.18.06-.18.07-.19.2.09-.07.17-.05.17-.04.17-.03.17-.01.17-.01.17.01.17.02.16.03.17.05.17.05.16.06.16.07.15.08.16.09.14.09.15.11.14.11.13.12.12.13.12.13.11.14.11.14.09.15.09.15.08.16.07.16.05.17.05.16.04.18.03.17.01h.17l.01.22zm2.8-4l.1-.15.06.19.05.18.04.19.03.19.01.18.01.19-.01.18-.02.18-.03.18-.04.17-.05.18-.06.16-.07.17-.08.16-.09.15-.09.15-.11.14-.11.14-.13.13-.13.13-.14.11-.14.11-.15.1-.16.1-.17.08-.17.08-.18.06-.18.06-.19.04-.2.03-.2.03-.2.01-.01-.22.2-.01.18-.02.18-.03.18-.04.17-.05.17-.07.16-.07.15-.07.15-.09.14-.09.14-.11.13-.1.12-.12.11-.12.11-.13.1-.13.09-.14.08-.14.08-.15.06-.16.06-.15.04-.16.04-.16.03-.17.01-.17.01-.17v-.17l-.02-.17-.02-.17-.04-.18-.04-.17-.06-.17.1-.15v.22zm-.1-.07l-.06-.15h.16l-.1.15zm6.54-.15l.11.11-.11.11h-6.44v-.22h6.44zm0 0h.11v.11l-.11-.11zm.11 5.67l-.11.11-.1-.11v-5.56h.21v5.56zm-.11.11h-.1v-.11l.1.11zm.61-.22l.08.18-.08.04h-.61v-.22h.61zm.08.18l-.03.04h-.05l.08-.04zm1.76-.77h-.2l-.06.01-.07.01-.06.01-.06.01-.06.01-.06.01-.07.02-.06.02-.05.02-.06.02-.06.02-.06.02-.05.03-.06.02-.05.03-.06.03-.05.03-.05.03-.05.03-.05.03-.05.04-.05.04-.05.03-.04.04-.05.04-.04.04-.05.04-.04.05-.04.04-.16-.15.05-.04.04-.05.05-.05.05-.04.05-.04.05-.05.05-.04.05-.04.05-.03.06-.04.05-.04.06-.03.06-.03.06-.03.06-.03.06-.03.06-.03.06-.02.06-.03.07-.02.06-.02.07-.02.06-.02.07-.01.07-.02.07-.01.06-.01.07-.01h.07l.07-.01H40.83v.22zm2.33 2.26v-.11l-.01-.12-.02-.11-.02-.11-.02-.11-.03-.11-.04-.1-.04-.11-.05-.1-.05-.1-.06-.09-.06-.09-.06-.09-.07-.09-.08-.08-.07-.08-.08-.07-.09-.07-.09-.07-.09-.06-.09-.06-.1-.06-.1-.05-.1-.04-.11-.05-.11-.03-.11-.03-.11-.03-.12-.02-.12-.01-.11-.01h-.12v-.22h.13l.13.01.12.02.13.02.12.03.12.03.12.04.12.04.11.05.11.06.11.06.1.06.1.07.1.08.09.07.09.09.08.08.08.09.08.1.07.09.07.1.06.11.05.11.05.11.05.11.04.11.04.12.02.12.03.13.01.12.01.13.01.12h-.22zm-2.33 2.27h.12l.11-.01.12-.02.12-.02.11-.02.11-.03.11-.04.11-.04.1-.04.1-.05.1-.06.09-.06.09-.06.09-.07.09-.07.08-.07.07-.08.08-.09.07-.08.06-.09.06-.09.06-.1.05-.09.05-.1.04-.11.04-.1.03-.11.02-.11.02-.11.02-.11.01-.12v-.12h.22l-.01.13-.01.13-.01.12-.03.13-.02.12-.04.11-.04.12-.05.11-.05.11-.05.11-.06.1-.07.1-.07.1-.08.09-.08.1-.08.08-.09.08-.09.08-.1.08-.1.06-.1.07-.11.06-.11.05-.11.05-.12.05-.12.04-.12.03-.12.03-.13.02-.12.02h-.13l-.13.01v-.22zm-1.84-.81l.08.04.04.04.04.04.05.05.04.04.05.04.04.04.05.03.05.04.05.03.05.04.05.03.05.03.05.03.06.03.05.03.06.02.05.03.06.02.06.02.06.02.06.02.05.02.07.01.06.02.06.01.06.01.06.01.07.01h.06l.07.01h.13v.22h-.08l-.07-.01h-.07l-.07-.01-.07-.01-.06-.01-.07-.01-.07-.01-.07-.02-.06-.01-.07-.02-.06-.02-.07-.02-.06-.03-.06-.02-.06-.03-.06-.03-.06-.03-.06-.03-.06-.03-.06-.04-.05-.03-.06-.04-.05-.04-.05-.03-.05-.05-.05-.04-.05-.04-.05-.05-.05-.04-.04-.05-.05-.05.08.04v-.22zm0 0h.05l.03.04-.08-.04zm-.61.22l-.1-.11.1-.11h.61v.22h-.61zm-.1-.11v-.11h.1l-.1.11zm.21 5.56l-.11.11-.1-.11v-5.56h.21v5.56zm0 0v.11h-.11l.11-.11zm-7.87.11l-.11-.11.11-.11h7.76v.22h-7.76zm0 0h-.11v-.11l.11.11zm-.11-.74l.03-.08.19.08v.63h-.22v-.63zm0 0v-.05l.03-.03-.03.08zm.99-1.92V32.89l-.01.07v.07l-.01.08-.01.07-.01.07-.01.07-.02.07-.02.07-.01.06-.02.07-.02.07-.03.06-.02.07-.03.06-.02.06-.03.07-.03.06-.03.06-.03.06-.04.06-.03.05-.04.06-.04.05-.04.06-.04.05-.04.05-.04.05-.04.05-.05.05-.04.04-.16-.15.05-.04.04-.05.04-.04.04-.05.03-.04.04-.05.04-.05.03-.05.03-.05.04-.06.03-.05.03-.05.03-.06.02-.06.03-.05.02-.06.03-.06.02-.06.02-.06.02-.06.02-.06.01-.07.02-.06.01-.06.02-.07.01-.06v-.07l.01-.07.01-.06v-.14l.01-.07h.21zm-2.38-2.66l.12.01.12.01.12.02.12.02.12.03.11.03.11.05.11.04.11.06.1.06.1.06.1.07.09.07.09.08.09.09.08.09.08.09.07.1.07.1.07.1.06.11.06.11.05.11.05.12.04.12.04.12.03.13.02.13.02.13.02.13.01.14v.13h-.21l-.01-.13-.01-.12-.01-.12-.02-.12-.02-.12-.03-.12-.04-.11-.04-.11-.04-.11-.05-.11-.05-.1-.06-.1-.06-.09-.06-.09-.07-.09-.07-.09-.08-.08-.08-.08-.08-.07-.08-.07-.09-.06-.09-.06-.1-.05-.09-.05-.1-.04-.1-.04-.1-.03-.11-.03-.1-.02-.11-.02-.11-.01h-.11v-.22zm-2.38 2.66v-.13l.01-.14.01-.13.02-.13.03-.13.03-.13.04-.12.04-.12.05-.12.05-.11.06-.11.06-.11.07-.1.07-.1.07-.1.08-.09.08-.09.09-.09.09-.08.09-.07.1-.07.1-.06.1-.06.11-.06.11-.04.11-.05.11-.03.12-.03.11-.02.12-.02.13-.01.12-.01v.22h-.11l-.11.01-.11.02-.11.02-.1.03-.1.03-.1.04-.1.04-.1.05-.09.05-.09.06-.09.06-.08.07-.08.07-.08.08-.08.08-.07.09-.07.09-.06.09-.06.09-.06.1-.05.1-.05.11-.05.11-.03.11-.04.11-.03.12-.02.12-.02.12-.02.12v.12l-.01.13h-.21zm.77 1.92l.03.07-.04-.04-.05-.05-.04-.05-.04-.05-.05-.05-.04-.05-.03-.06-.04-.05-.04-.06-.03-.05-.04-.06-.03-.06-.03-.06-.03-.06-.03-.07-.03-.06-.02-.06-.03-.07-.02-.06-.02-.07-.02-.07-.02-.06-.01-.07-.02-.07-.01-.07-.01-.07-.01-.07-.01-.08-.01-.07V32.74h.21v.07l.01.07v.07l.01.06v.07l.01.07.01.06.01.07.02.06.01.06.02.07.02.06.02.06.02.06.02.06.02.06.03.06.02.05.03.06.03.06.03.05.03.05.03.06.04.05.03.05.04.05.03.05.04.04.04.05.04.04.04.05.04.04.04.08h-.22zm.18-.08l.04.03v.05l-.04-.08zm.04.71l-.11.11-.11-.11v-.63h.22v.63zm0 0v.11h-.11l.11-.11zm-7.88.11l-.1-.11.1-.11h7.77v.22h-7.77zm0 0h-.1v-.11l.1.11zm-.1-14.36l.1-.11.11.11v14.25h-.21V21.04zm0 0v-.11h.1l-.1.11z" class="fil1"/><g><path d="M48.51 16.23c1.26 0 2.28 1.24 2.28 2.32 0 1.09-.3 1.68-.78 2.15v.24h7.78v5.56h.61c.45-.49 1.1-.81 1.84-.81 1.34 0 2.44 1.07 2.44 2.38 0 1.31-1.1 2.37-2.44 2.37-.74 0-1.39-.31-1.84-.8h-.61v5.56h-7.76v.86c.47.47.77.83.77 1.92 0 1.08-1.02 2.43-2.27 2.43-1.26 0-2.28-1.35-2.28-2.43 0-1.09.3-1.45.78-1.92v-.86h-7.77v-4.45c1.58 1.16 4.62.17 4.62-2.5.01-2.7-3.05-3.65-4.62-2.5v-4.81h7.75v-.24c-.47-.47-.77-1.06-.77-2.15 0-1.08 1.01-2.32 2.27-2.32z" class="fil4"/><path id="1" d="M50.89 18.55h-.21l-.01-.09v-.1l-.02-.1-.02-.1-.02-.09-.03-.1-.03-.1-.04-.1-.05-.09-.04-.1-.06-.09-.05-.09-.06-.09-.07-.09-.07-.08-.07-.08-.08-.08-.07-.07-.09-.08-.08-.06-.09-.07-.09-.05-.1-.06-.09-.05-.1-.04-.1-.04-.1-.04-.11-.03-.1-.02-.11-.01-.11-.01-.11-.01v-.21h.12l.13.01.12.02.11.02.12.03.11.04.12.05.1.05.11.05.1.06.1.07.1.06.09.08.09.07.09.09.08.08.08.09.07.09.07.09.07.1.06.1.06.1.05.1.05.11.04.1.04.11.03.11.02.11.03.11.01.1.01.11v.11zm-.77 2.15h-.22l.04-.08.04-.04.04-.04.04-.05.04-.04.04-.05.03-.04.04-.05.03-.05.04-.05.03-.05.03-.06.03-.05.03-.06.03-.05.02-.06.03-.06.02-.06.02-.07.02-.07.02-.06.02-.07.02-.08.01-.07.01-.08.02-.08.01-.08.01-.08v-.09l.01-.09v-.09l.01-.1v-.1h.21V18.85l-.01.1-.01.09-.01.09-.01.08-.01.09-.02.08-.01.08-.02.08-.02.07-.02.08-.02.07-.03.07-.02.07-.03.06-.03.07-.03.06-.03.06-.03.06-.04.06-.03.06-.04.05-.04.05-.04.06-.04.05-.04.05-.04.05-.04.05-.05.04-.04.05.03-.08zm-.22 0v-.05l.04-.03-.04.08zm0 .24v-.24h.22v.24l-.11.11-.11-.11zm.11.11h-.11v-.11l.11.11zm7.78 0h-7.78v-.22h7.78l.11.11-.11.11zm0-.22h.11v.11l-.11-.11zm-.1 5.67v-5.56h.21v5.56l-.11.11-.1-.11zm.1.11h-.1v-.11l.1.11zm.61 0h-.61v-.22h.61l.08.18-.08.04zm.08-.04l-.03.04h-.05l.08-.04zm1.76-.98v.21h-.07l-.06.01h-.07l-.06.01h-.07l-.06.01-.06.01-.06.02-.06.01-.07.01-.05.02-.06.02-.06.02-.06.02-.06.03-.05.02-.06.03-.05.02-.06.03-.05.03-.05.03-.05.03-.05.04-.05.03-.05.04-.05.04-.04.04-.05.03-.04.05-.05.04-.04.04-.04.04-.16-.14.05-.05.04-.05.05-.04.05-.05.05-.04.05-.04.05-.04.05-.04.05-.04.06-.04.05-.03.06-.04.06-.03.06-.03.06-.03.06-.03.06-.02.06-.03.06-.02.07-.03.06-.01.07-.02.06-.02.07-.02.07-.01.07-.01.06-.01.07-.01.07-.01H60.24zm2.55 2.48h-.22v-.12l-.01-.11-.02-.12-.02-.11-.02-.11-.04-.1-.03-.11-.04-.1-.05-.1-.05-.1-.06-.1-.06-.09-.06-.09-.07-.08-.08-.08-.07-.08-.08-.08-.09-.07-.09-.07-.09-.06-.09-.06-.1-.05-.1-.05-.11-.05-.1-.04-.11-.04-.11-.03-.11-.02-.12-.02-.12-.02-.11-.01h-.12v-.21h.13l.13.01.12.01.13.02.12.03.12.04.12.03.12.05.11.05.11.05.11.06.1.07.1.07.1.07.09.08.09.08.08.09.08.09.08.09.07.1.07.1.06.1.05.11.05.11.05.11.04.12.03.12.03.12.03.12.01.12.01.13.01.13zm-2.55 2.48v-.21l.12-.01.11-.01.12-.01.12-.02.11-.03.11-.03.11-.03.1-.04.11-.05.1-.05.1-.05.09-.06.09-.07.09-.06.09-.07.08-.08.07-.08.08-.08.07-.09.06-.09.06-.09.06-.09.05-.1.05-.1.04-.1.03-.11.04-.11.02-.11.02-.11.02-.11.01-.12v-.11h.22l-.01.13-.01.12-.01.13-.03.12-.03.12-.03.12-.04.11-.05.12-.05.11-.05.1-.06.11-.07.1-.07.1-.08.09-.08.09-.08.09-.09.08-.09.08-.1.07-.1.07-.1.06-.11.06-.11.06-.11.05-.12.04-.12.04-.12.03-.12.03-.13.02-.12.02-.13.01h-.13zm-1.84-.81v-.21l.08.03.04.05.04.04.05.04.04.04.05.04.04.04.05.04.05.03.05.04.05.03.05.03.05.04.05.03.06.02.05.03.06.03.05.02.06.02.06.03.06.02.05.01.06.02.07.02.06.01.06.01.06.01.06.01.07.01.06.01h.07l.06.01h.07v.21H60.09l-.07-.01h-.07l-.07-.01-.06-.01-.07-.01-.07-.02-.07-.01-.06-.02-.07-.02-.06-.02-.07-.02-.06-.02-.06-.03-.06-.03-.06-.02-.06-.03-.06-.03-.06-.04-.06-.03-.05-.04-.06-.03-.05-.04-.05-.04-.05-.04-.05-.04-.05-.05-.05-.04-.05-.05-.04-.04-.05-.05.08.03zm0-.21h.05l.03.03-.08-.03zm-.61 0h.61v.21h-.61l-.1-.1.1-.11zm-.1.11v-.11h.1l-.1.11zm0 5.56v-5.56h.21v5.56l-.11.1-.1-.1zm.21 0v.1h-.11l.11-.1zm-7.87-.11h7.76v.21h-7.76l-.11-.1.11-.11zm-.11.11v-.11h.11l-.11.11zm0 .86v-.86h.22v.86l-.19.08-.03-.08zm.03.08l-.03-.03v-.05l.03.08zm.96 1.84h-.21l-.01-.1v-.18l-.01-.09-.01-.08v-.08l-.01-.08-.02-.07-.01-.06-.02-.07-.01-.06-.02-.06-.02-.06-.02-.05-.02-.06-.02-.05-.03-.05-.02-.04-.03-.05-.03-.05-.03-.04-.03-.04-.03-.05-.03-.04-.04-.04-.03-.04-.04-.04-.04-.04-.04-.05-.04-.04-.04-.04-.05-.04.15-.16.05.05.04.04.05.04.04.05.04.04.04.05.04.04.03.04.04.05.04.05.03.05.03.05.04.05.03.05.02.05.03.06.03.06.02.06.03.06.02.06.02.07.01.07.02.07.02.07.01.08.01.08.01.09.01.08v.09l.01.1v.2zm-2.38 2.54v-.22h.11l.11-.01.1-.02.11-.03.1-.03.11-.03.1-.05.09-.04.1-.06.09-.06.09-.06.09-.07.09-.07.08-.08.08-.08.08-.08.07-.09.07-.09.06-.09.06-.09.06-.1.05-.1.05-.1.04-.1.04-.1.04-.1.03-.1.02-.1.02-.1.01-.1.01-.1.01-.09h.21v.1l-.01.11-.02.11-.02.12-.02.11-.03.11-.04.11-.04.11-.05.1-.06.11-.05.11-.06.1-.07.1-.07.1-.07.1-.08.09-.08.09-.09.09-.09.08-.09.08-.1.07-.1.07-.1.07-.11.06-.1.05-.12.05-.11.04-.12.03-.11.03-.13.02-.12.01-.12.01zm-2.38-2.54h.21l.01.09v.1l.02.1.02.1.02.1.03.1.03.1.04.1.05.1.04.1.06.1.05.1.07.09.06.09.07.09.07.09.08.08.08.08.08.08.08.07.09.07.09.06.1.06.09.06.1.04.1.05.1.03.11.03.1.03.11.02.11.01h.11v.22l-.13-.01-.12-.01-.12-.02-.12-.03-.11-.03-.12-.04-.11-.05-.11-.05-.1-.06-.11-.07-.1-.07-.09-.07-.09-.08-.09-.08-.09-.09-.08-.09-.08-.09-.07-.1-.07-.1-.07-.1-.06-.1-.06-.11-.05-.11-.05-.1-.04-.11-.04-.11-.03-.11-.03-.11-.02-.12-.01-.11-.01-.11v-.1zm.77-1.92h.22l-.04.08-.04.04-.04.04-.04.04-.04.05-.04.04-.04.04-.03.04-.04.04-.03.04-.03.05-.03.04-.03.04-.03.05-.03.05-.03.04-.02.05-.02.05-.02.06-.02.05-.02.06-.02.06-.02.06-.01.07-.02.06-.01.07-.01.08-.01.08v.08l-.01.09v.08l-.01.1v.1h-.21V37.68l.01-.09.01-.08.01-.09.01-.08.01-.08.02-.07.01-.07.02-.07.02-.07.02-.06.02-.06.03-.06.03-.06.02-.06.03-.05.03-.05.03-.05.04-.05.03-.05.04-.05.03-.05.04-.04.04-.04.04-.05.04-.04.04-.05.04-.04.05-.04.04-.05-.03.08zm.22 0v.05l-.04.03.04-.08zm0-.86v.86h-.22v-.86l.11-.11.11.11zm-.11-.11h.11v.11l-.11-.11zm-7.77 0h7.77v.21h-7.77l-.11-.1.11-.11zm0 .21h-.11v-.1l.11.1zm.11-4.55v4.45h-.22v-4.45l.18-.09.04.09zm-.22 0v-.22l.18.13-.18.09zm4.62-2.5h.22l-.01.25-.03.25-.04.23-.06.22-.07.22-.09.2-.11.19-.11.18-.13.17-.13.16-.15.15-.16.13-.16.13-.17.11-.18.1-.18.09-.19.08-.19.07-.2.05-.19.05-.2.03-.2.02-.2.01-.2-.01-.19-.02-.2-.03-.18-.04-.19-.05-.18-.07-.18-.08-.16-.1-.16-.11.13-.17.14.1.15.08.16.08.17.06.17.05.17.04.18.03.19.01.18.01.19-.01.18-.02.19-.03.18-.04.18-.05.18-.06.18-.07.17-.09.16-.09.16-.11.16-.12.14-.12.14-.14.12-.15.12-.15.11-.17.09-.18.08-.18.07-.2.06-.21.04-.22.03-.22v-.24zm-4.62-2.5h.22l-.17-.08.16-.11.16-.09.18-.09.18-.06.18-.06.19-.04.2-.03.19-.02.2-.01.2.01.2.02.19.03.2.04.2.05.19.07.19.08.18.08.18.11.17.11.17.12.15.14.15.15.14.15.12.17.12.19.1.19.09.2.07.22.06.22.05.24.02.24.01.26h-.22v-.24l-.03-.23-.04-.22-.05-.21-.07-.2-.08-.19-.1-.17-.1-.17-.12-.16-.13-.15-.14-.13-.14-.13-.15-.11-.16-.11-.17-.09-.17-.09-.18-.07-.18-.06-.18-.05-.18-.04-.19-.03-.19-.02h-.37l-.18.02-.18.03-.17.04-.17.05-.17.06-.16.08-.15.08-.14.1-.18-.09zm.18.09l-.18.13v-.22l.18.09zm.04-4.9v4.81h-.22v-4.81l.11-.11.11.11zm-.22 0v-.11h.11l-.11.11zm7.86.11h-7.75v-.22h7.75l.11.11-.11.11zm.11-.11v.11h-.11l.11-.11zm0-.24v.24h-.22v-.24l.19-.08.03.08zm-.03-.08l.03.03v.05l-.03-.08zm-.96-2.07h.21l.01.1v.19l.01.09.01.09v.08l.02.08.01.08.01.08.02.07.01.08.02.07.02.06.02.07.02.07.03.06.02.06.03.06.02.05.03.06.03.05.03.06.04.05.03.05.03.05.04.05.04.04.03.05.04.04.04.05.04.04.05.04-.16.16-.04-.05-.05-.04-.04-.05-.04-.05-.04-.05-.04-.05-.04-.06-.04-.05-.04-.05-.03-.06-.04-.06-.03-.06-.03-.06-.03-.06-.03-.07-.02-.06-.03-.07-.03-.07-.02-.07-.02-.08-.02-.07-.02-.08-.01-.08-.02-.08-.01-.09-.01-.08-.01-.09-.01-.09v-.1l-.01-.1v-.2zm2.38-2.42v.21l-.11.01-.11.01-.11.01-.1.02-.11.03-.1.04-.1.04-.1.04-.09.05-.1.06-.09.05-.09.07-.08.06-.08.08-.08.07-.08.08-.07.08-.07.08-.06.09-.06.09-.06.09-.05.09-.05.1-.05.09-.03.1-.04.1-.03.1-.02.09-.02.1-.01.1-.01.1-.01.09h-.21v-.11l.01-.11.02-.1.02-.11.02-.11.04-.11.03-.11.04-.1.05-.11.06-.1.05-.1.06-.1.07-.1.07-.09.07-.09.08-.09.09-.08.08-.09.09-.07.09-.08.1-.06.1-.07.1-.06.11-.05.11-.05.11-.05.11-.04.12-.03.12-.02.12-.02.12-.01h.12z" class="fil1"/></g><g><path d="M7.09 21.85l6.79 3.95-.31.53c-.64.15-1.24.57-1.61 1.21-.69 1.18-.35 2.65.74 3.29 1.1.64 2.55.2 3.23-.98.38-.64.45-1.36.26-1.99l.31-.53 6.79 3.94-2.71 4.66.53.31c.63-.19 1.36-.12 1.99.25 1.18.69 1.62 2.13.98 3.23-.64 1.1-2.11 1.43-3.29.75-.64-.37-1.06-.97-1.21-1.61l-.53-.31-2.71 4.65-6.78-3.95.31-.53c.64-.15 1.23-.57 1.61-1.21.68-1.17.35-2.65-.75-3.29-1.1-.64-2.55-.2-3.23.98-.37.64-.45 1.36-.26 2l-.31.53-6.78-3.95 6.94-11.93z" class="fil4"/><path id="1" d="M13.82 25.89l-6.78-3.95.1-.18 6.79 3.94.04.15-.15.04zm.11-.19l.09.06-.05.09-.04-.15zm-.46.57l.31-.53.19.11-.31.53-.07.05-.12-.16zm.19.11l-.02.04-.05.01.07-.05zm-1.61 1.21l-.19-.11.04-.06.04-.06.04-.06.04-.05.04-.06.04-.06.05-.05.05-.05.04-.05.05-.05.05-.05.05-.05.05-.04.05-.04.05-.05.06-.04.05-.04.06-.03.05-.04.06-.03.06-.04.05-.03.06-.03.06-.03.06-.02.06-.03.06-.02.06-.02.07-.02.06-.02.06-.02.06-.02.05.21-.06.02-.05.01-.06.02-.06.02-.05.02-.06.02-.05.02-.06.03-.05.02-.05.03-.06.03-.05.03-.05.03-.05.04-.05.03-.05.04-.05.03-.05.04-.05.04-.05.04-.04.05-.05.04-.04.05-.04.04-.05.05-.04.05-.04.05-.04.05-.03.06-.04.05-.04.06-.03.05zm.71 3.15l-.11.18-.11-.06-.1-.07-.09-.08-.09-.08-.09-.08-.08-.09-.08-.09-.07-.1-.07-.1-.06-.1-.05-.1-.05-.11-.05-.11-.04-.11-.03-.11-.03-.12-.03-.12-.02-.12-.01-.12-.01-.12v-.12l.01-.12.01-.12.01-.13.03-.12.02-.12.04-.12.04-.12.04-.12.05-.12.06-.12.06-.12.19.11-.06.11-.05.11-.05.11-.04.11-.04.11-.03.11-.02.11-.02.12-.02.11-.01.11V28.93l.01.11.01.11.02.11.02.1.02.11.04.1.03.1.04.1.05.1.05.1.06.09.06.09.06.08.07.09.07.08.08.07.08.07.09.07.09.07.1.06zm3.08-.94l.19.11-.07.11-.08.11-.07.1-.09.1-.08.09-.09.09-.09.09-.1.08-.1.07-.1.07-.1.06-.11.06-.11.06-.11.05-.11.04-.12.04-.11.03-.12.02-.11.02-.12.02-.12.01h-.24l-.11-.01-.12-.02-.12-.02-.12-.03-.11-.03-.12-.04-.11-.04-.11-.06-.11-.06.11-.18.1.05.1.05.1.04.1.04.11.03.1.02.11.02.11.01.1.01h.22l.11-.01.1-.01.11-.02.11-.02.1-.03.11-.04.1-.03.1-.05.1-.05.1-.05.09-.06.1-.07.09-.06.09-.08.08-.07.08-.09.08-.08.08-.09.07-.1.07-.1.06-.1zm.26-2l.18.11.01-.09.02.07.02.06.01.06.01.07.02.06.01.07v.06l.01.06v.07l.01.07v.19l-.01.07v.07l-.01.06-.01.07-.01.07-.01.06-.02.07-.01.07-.02.06-.02.07-.02.06-.02.07-.03.06-.02.07-.03.06-.03.07-.03.06-.04.06-.03.07-.19-.11.03-.06.03-.06.03-.06.03-.06.03-.05.02-.07.02-.05.02-.06.02-.06.02-.07.02-.06.01-.06.02-.06.01-.06.01-.06v-.06l.01-.06.01-.06v-.31l-.01-.06v-.06l-.01-.06-.01-.06-.01-.05-.01-.06-.01-.06-.02-.06-.01-.05.01-.09zm-.01.09l-.02-.05.03-.04-.01.09zm.5-.51l-.31.53-.18-.11.31-.53.14-.04.04.15zm-.18-.11l.05-.09.09.05-.14.04zm6.82 4.1l-6.79-3.95.11-.19 6.79 3.95.04.15-.15.04zm.11-.19l.09.06-.05.09-.04-.15zm-2.86 4.69l2.71-4.65.19.11-2.71 4.65-.15.04-.04-.15zm.04.15l-.09-.05.05-.1.04.15zm.53.31l-.53-.31.11-.19.53.31-.02.2-.09-.01zm.09.01l-.05.01-.04-.02.09.01zm2.02.06l-.11.19-.06-.04-.06-.03-.05-.03-.06-.02-.06-.03-.06-.02-.06-.03-.06-.02-.06-.02-.06-.02-.06-.01-.07-.02-.06-.01-.06-.01-.06-.01-.06-.01h-.06l-.06-.01h-.12l-.06-.01-.07.01h-.11l-.06.01-.06.01h-.06l-.06.01-.06.02-.06.01-.06.01-.05.02-.06-.21.06-.02.06-.01.06-.02.07-.01.06-.01.07-.01.06-.01h.07l.06-.01h.33l.07.01.07.01.06.01.07.01.07.01.06.01.07.02.07.02.06.02.07.02.06.02.07.02.06.03.07.03.06.03.06.03.07.03.06.04zm1.02 3.38l-.19-.11.05-.1.05-.1.04-.1.04-.11.03-.1.02-.11.02-.1.02-.11v-.11l.01-.11-.01-.1v-.11l-.02-.11-.02-.11-.02-.1-.03-.11-.03-.1-.04-.1-.05-.1-.05-.1-.05-.1-.06-.1-.06-.09-.07-.09-.07-.09-.08-.08-.08-.09-.09-.08-.09-.07-.1-.07-.1-.07-.1-.06.11-.19.11.07.11.07.1.08.1.08.1.09.09.09.08.09.08.1.07.09.07.1.07.11.06.11.05.1.05.12.04.11.04.11.03.12.03.11.02.12.01.12.01.12V38.74l-.01.12-.01.12-.02.12-.03.11-.04.12-.04.11-.04.12-.06.11-.05.11zm-3.44.78l.1-.19.11.06.11.06.11.04.11.05.11.03.11.03.12.03.11.02.11.01.11.01.12.01.11-.01h.11l.11-.01.11-.02.1-.02.11-.03.1-.03.11-.04.1-.04.09-.04.1-.05.09-.06.09-.06.09-.06.08-.07.08-.08.08-.08.07-.08.07-.09.06-.09.06-.09.19.11-.07.1-.07.1-.08.1-.08.09-.08.09-.09.08-.09.08-.09.07-.1.06-.1.06-.11.06-.11.05-.11.05-.11.04-.11.03-.12.03-.12.02-.11.02-.12.01-.12.01h-.25l-.12-.01-.12-.02-.13-.02-.12-.03-.12-.03-.12-.04-.12-.05-.12-.05-.12-.05-.11-.07zm-1.21-1.61l.11-.18.05.06.01.06.02.06.01.05.02.06.02.06.02.05.03.06.02.05.03.06.03.05.02.05.03.06.04.05.03.05.03.05.04.05.04.05.04.05.04.05.04.04.04.05.04.04.05.05.05.04.04.04.05.04.05.04.05.04.06.04.05.04.06.03.05.03-.1.19-.07-.04-.06-.03-.05-.04-.06-.04-.06-.05-.05-.04-.06-.04-.05-.05-.05-.05-.05-.04-.05-.05-.04-.05-.05-.05-.04-.06-.04-.05-.04-.05-.04-.06-.04-.05-.04-.06-.03-.05-.03-.06-.04-.06-.03-.06-.02-.06-.03-.06-.03-.06-.02-.06-.02-.06-.02-.06-.02-.06-.02-.06-.01-.07.05.07zm.11-.18l.04.02.01.04-.05-.06zm-.53-.31l.53.31-.11.18-.53-.31-.04-.14.15-.04zm-.15.04l.05-.1.1.06-.15.04zm-2.71 4.65l2.71-4.65.19.1-2.71 4.66-.15.04-.04-.15zm.19.11l-.06.09-.09-.05.15-.04zm-6.83-4.1l6.79 3.95-.11.19-6.79-3.95-.04-.15.15-.04zm-.11.19l-.09-.06.05-.09.04.15zm.46-.57l-.31.53-.19-.11.31-.53.07-.05.12.16zm-.19-.11l.02-.04.05-.01-.07.05zm1.61-1.21l.19.11-.04.06-.04.06-.04.06-.04.06-.04.05-.04.06-.05.05-.04.05-.05.05-.05.05-.05.05-.05.05-.05.04-.05.05-.05.04-.05.04-.06.04-.05.04-.06.03-.06.04-.05.03-.06.03-.06.03-.06.03-.06.03-.06.02-.06.03-.06.02-.06.02-.07.02-.06.01-.06.02-.05-.21.06-.02.05-.01.06-.02.06-.02.05-.02.06-.02.06-.02.05-.03.05-.02.06-.03.05-.03.05-.03.06-.03.05-.03.05-.04.05-.03.05-.04.05-.04.04-.04.05-.04.04-.04.05-.05.04-.04.05-.05.04-.05.04-.05.04-.05.04-.05.04-.05.03-.06.04-.05.03-.06zm-.71-3.14l.11-.19.11.07.1.07.1.07.09.08.08.08.09.09.07.09.07.1.07.1.06.1.06.1.05.11.04.11.04.11.04.12.03.11.02.12.02.12.01.12.01.12v.12l-.01.12-.01.13-.01.12-.02.12-.03.12-.03.13-.04.12-.05.12-.05.12-.06.11-.06.12-.19-.11.06-.11.05-.11.05-.1.04-.12.04-.11.03-.11.03-.11.02-.11.01-.12.01-.11v-.33l-.02-.11-.01-.11-.02-.11-.03-.11-.03-.1-.04-.1-.04-.1-.05-.1-.05-.09-.05-.1-.06-.09-.07-.08-.07-.09-.07-.07-.08-.08-.08-.07-.09-.07-.09-.06-.1-.06zm-3.08.93l-.18-.1.07-.12.07-.11.08-.1.08-.1.08-.09.09-.09.1-.09.09-.07.1-.08.1-.07.11-.06.1-.06.11-.06.11-.04.11-.05.12-.03.11-.03.12-.03.12-.02.11-.02.12-.01h.24l.12.01.12.02.11.02.12.03.12.03.11.04.11.05.11.05.11.06-.11.19-.09-.06-.1-.05-.11-.04-.1-.03-.1-.03-.11-.03-.11-.02-.1-.01-.11-.01h-.22l-.1.01-.11.01-.11.02-.1.02-.11.03-.1.04-.11.04-.1.04-.1.05-.09.05-.1.06-.09.07-.09.07-.09.07-.09.08-.08.08-.08.08-.07.1-.08.09-.06.1-.07.1zm-.25 2l-.19-.11-.01.09-.02-.06-.01-.07-.02-.06-.01-.06-.01-.07-.01-.06-.01-.07-.01-.06v-.13l-.01-.07v-.07l.01-.06v-.07l.01-.06v-.07l.01-.07.01-.06.02-.07.01-.07.02-.06.01-.07.02-.07.02-.06.03-.07.02-.06.03-.07.03-.06.03-.07.03-.06.03-.06.04-.06.18.1-.03.06-.03.06-.03.06-.03.06-.02.06-.03.06-.02.06-.02.06-.02.06-.02.06-.01.06-.02.06-.01.06-.01.06-.01.06-.01.06-.01.07v.06l-.01.06v.24l.01.06v.06l.01.06.01.06.01.06.01.06.02.05.01.06.02.06-.01.08zm.01-.08l.01.04-.02.04.01-.08zm-.51.5l.31-.53.19.11-.31.53-.15.04-.04-.15zm.19.11l-.06.1-.09-.06.15-.04zM.2 33.68l6.79 3.95-.11.19-6.79-3.95-.04-.15.15-.04zm-.11.19L0 33.82l.05-.1.04.15zM7.18 21.9L.24 33.83l-.19-.11L7 21.8l.14-.04.04.14zM7 21.8l.05-.1.09.06-.14.04z" class="fil1"/></g></g></g></svg>