<svg xmlns="http://www.w3.org/2000/svg" width="73" height="69" fill-rule="evenodd" clip-rule="evenodd" image-rendering="optimizeQuality" shape-rendering="geometricPrecision" text-rendering="geometricPrecision" viewBox="0 0 43.19 40.69"><defs><style>.fil6{fill:#f5b2b6}.fil4{fill:#c5e3d7}.fil2{fill:#c4d985}.fil3{fill:#6fa691}.fil0{fill:#99cfba}.fil1{fill:#2b2a29;fill-rule:nonzero}</style></defs><g id="Слой_x0020_1"><g id="_838537696"><path d="M15.88 24.92h11.64c1.3 0 2.03 1.1 2.36 2.36l1.33 5.11c.32 1.26-2.39 2.08-3.69 2.08H15.88c-1.3 0-4-1.14-3.66-2.4l1.29-4.79c.34-1.25 1.07-2.36 2.37-2.36z" class="fil0"/><path id="1" d="M27.52 25.02H15.88v-.2h11.64v.2zm2.46 2.24l-.2.05-.03-.12-.03-.11-.04-.12-.04-.11-.04-.11-.04-.11-.05-.1-.04-.11-.05-.1-.06-.1-.05-.09-.06-.1-.06-.09-.07-.08-.06-.09-.07-.08-.07-.07-.08-.08-.07-.06-.08-.07-.08-.06-.09-.05-.08-.05-.1-.05-.09-.04-.09-.04-.1-.03-.1-.03-.11-.02-.11-.01-.11-.01h-.11v-.2h.12l.12.01.12.02.12.02.11.03.11.03.11.04.1.05.1.05.1.06.09.06.09.06.09.07.08.08.08.08.08.08.07.09.07.09.07.09.07.1.06.09.06.11.05.1.06.11.05.11.04.11.05.11.04.12.04.11.04.12.04.12.03.12zm1.13 5.15l-1.33-5.1.2-.05 1.32 5.1-.19.05zm-3.59 2.16v-.2h.12l.13-.01.14-.01.14-.02.15-.02.15-.02.16-.03.15-.03.17-.04.16-.04.16-.05.16-.05.16-.05.16-.06.15-.06.15-.07.14-.07.14-.07.13-.07.13-.08.12-.08.1-.09.1-.08.09-.09.07-.09.06-.09.05-.1.04-.09.02-.09.01-.1v-.1l-.02-.11.19-.05.03.13v.13l-.01.13-.03.12-.05.12-.06.11-.07.11-.09.1-.09.1-.11.1-.12.09-.12.09-.13.08-.14.08-.15.07-.15.07-.15.07-.16.06-.16.06-.17.06-.16.05-.17.05-.17.04-.16.04-.16.04-.17.02-.15.03-.16.02-.14.02-.15.01-.13.01h-.13zm-11.64-.2h11.64v.2H15.88v-.2zm-3.75-2.32l.19.05-.02.1-.01.11.01.1.02.1.04.1.05.1.06.11.08.1.08.1.1.09.1.1.12.1.12.09.13.09.14.08.14.09.15.08.16.07.15.07.16.07.16.06.16.06.16.06.16.05.16.04.15.04.15.03.15.03.14.02.14.02.13.01h.12v.2h-.13l-.14-.01-.14-.02-.15-.02-.16-.03-.15-.04-.16-.03-.17-.05-.16-.05-.17-.06-.16-.06-.17-.06-.16-.07-.16-.08-.16-.08-.15-.08-.15-.09-.15-.09-.13-.09-.13-.1-.13-.1-.11-.1-.11-.11-.09-.11-.08-.11-.08-.12-.05-.12-.05-.12-.03-.13-.01-.13.01-.13.03-.13zm1.48-4.74l-1.29 4.79-.19-.05 1.29-4.79.19.05zm2.27-2.49v.2h-.12l-.11.01-.1.01-.11.02-.1.03-.1.03-.09.04-.1.04-.09.05-.08.05-.09.05-.08.06-.08.07-.07.07-.08.07-.07.07-.07.08-.06.09-.07.08-.06.1-.06.09-.05.1-.06.09-.05.11-.04.1-.05.11-.05.1-.04.11-.03.12-.04.11-.04.11-.03.12-.19-.05.03-.12.04-.12.04-.12.04-.11.04-.12.05-.11.04-.11.05-.11.06-.11.05-.1.06-.1.06-.1.07-.1.07-.09.07-.09.07-.09.08-.08.08-.08.08-.07.09-.08.09-.06.09-.06.1-.06.1-.05.1-.05.1-.04.11-.03.12-.03.11-.02.12-.02.12-.01h.13z" class="fil1"/><path d="M2.48 32.61L12.47 31h24.41c.71 0 1.29.58 1.29 1.3v4.35c0 .71-.58 1.29-1.29 1.29H2.48c-.71 0-1.3-.58-1.3-1.29V33.9c0-.71.6-1.18 1.3-1.29z" class="fil2"/><path id="1" d="M12.49 31.1l-10 1.61-.03-.2 10-1.61h.01l.02.2zm-.03-.2h.01-.01zm24.42.2H12.47v-.2h24.41v.2zm1.39 1.2h-.19l-.01-.07v-.06l-.01-.06-.01-.05-.01-.06-.02-.06-.02-.05-.02-.06-.02-.05-.03-.05-.03-.05-.03-.05-.03-.05-.04-.04-.04-.05-.04-.04-.04-.04-.04-.03-.05-.04-.04-.03-.05-.03-.05-.03-.05-.03-.06-.02-.05-.02-.05-.02-.06-.02-.06-.01-.06-.01-.06-.01-.06-.01h-.06v-.2h.07l.07.01.07.01.07.01.07.02.06.02.07.02.06.02.06.03.06.03.06.04.06.03.05.04.06.04.05.04.05.05.04.05.05.05.04.05.04.06.03.05.04.06.03.06.03.06.02.07.02.06.02.07.02.07.01.06.01.07V32.3zm-.19 4.35V32.3h.19v4.35h-.19zm-1.2 1.39v-.2h.06l.06-.01h.06l.06-.01.06-.02.06-.01.05-.02.05-.02.06-.03.05-.02.05-.03.05-.03.04-.04.05-.03.04-.04.04-.04.04-.04.04-.04.04-.05.03-.05.03-.05.03-.05.03-.05.02-.05.02-.05.02-.06.02-.06.01-.05.01-.06.01-.06v-.06l.01-.06h.19v.14l-.01.07-.01.07-.02.06-.02.07-.02.06-.02.07-.03.06-.03.06-.04.06-.03.05-.04.06-.04.05-.05.05-.04.05-.05.05-.05.04-.06.04-.05.04-.06.04-.06.03-.06.03-.06.03-.06.03-.07.02-.06.02-.07.01-.07.01-.07.01-.07.01h-.07zm-34.4-.2h34.4v.2H2.48v-.2zm-1.4-1.19h.2l.01.06v.06l.01.06.01.06.01.05.02.06.02.06.02.05.02.05.03.05.03.05.03.05.03.05.04.05.03.04.04.04.05.04.04.04.04.03.05.04.05.03.05.03.05.02.05.03.06.02.05.02.06.01.06.02.06.01h.06l.06.01h.06v.2h-.07l-.07-.01-.07-.01-.07-.01-.07-.01-.07-.02-.06-.02-.06-.03-.07-.03-.06-.03-.05-.03-.06-.04-.06-.04-.05-.04-.05-.04-.05-.05-.04-.05-.05-.05-.04-.05-.04-.06-.03-.05-.04-.06-.03-.06-.03-.06-.02-.07-.02-.06-.02-.07-.02-.06-.01-.07-.01-.07v-.07l-.01-.07zm.2-2.75v2.75h-.2V33.9h.2zm1.18-1.39l.03.2-.06.01-.06.01-.06.02-.06.01-.06.02-.06.02-.05.03-.06.02-.05.03-.06.02-.05.03-.05.03-.04.04-.05.03-.04.04-.04.04-.04.03-.04.05-.04.04-.03.04-.03.05-.03.04-.03.05-.02.05-.02.05-.02.05-.02.05-.01.06-.01.05-.01.06v.06l-.01.06h-.2l.01-.07v-.07l.01-.07.01-.06.02-.07.02-.06.02-.06.03-.06.03-.06.03-.06.03-.05.04-.06.04-.05.04-.05.04-.04.05-.05.05-.04.05-.05.05-.03.05-.04.06-.04.06-.03.06-.03.06-.03.06-.03.06-.02.07-.03.06-.02.07-.02.06-.01.07-.02.07-.01z" class="fil1"/><path d="M8.5 34.19c1.78 0 3.22 1.43 3.22 3.2 0 1.77-1.44 3.2-3.22 3.2-1.78 0-3.22-1.43-3.22-3.2 0-1.77 1.44-3.2 3.22-3.2z" class="fil3"/><path id="1" d="M11.82 37.39h-.2l-.01-.16-.01-.16-.02-.15-.03-.16-.03-.15-.04-.14-.05-.15-.06-.14-.06-.14-.07-.13-.07-.13-.09-.13-.08-.12-.09-.11-.1-.12-.11-.1-.1-.11-.12-.09-.12-.1-.12-.08-.12-.08-.13-.08-.14-.07-.14-.06-.14-.05-.14-.05-.15-.04-.15-.04-.15-.03-.16-.02-.16-.01H8.5v-.2h.17l.17.01.17.03.16.02.16.04.16.05.15.05.15.06.15.06.14.08.14.08.13.08.13.09.13.1.12.11.12.1.11.12.1.12.1.12.09.13.09.14.08.13.07.15.07.14.05.15.06.16.04.15.04.16.03.17.02.16.01.17.01.17zm-3.32 3.3v-.2l.16-.01.16-.01.16-.02.15-.02.15-.04.15-.04.14-.05.14-.06.14-.06.14-.07.13-.07.12-.08.13-.09.11-.09.12-.1.1-.1.11-.11.1-.11.09-.12.08-.12.09-.12.07-.13.07-.14.06-.13.06-.15.05-.14.04-.15.03-.15.03-.15.02-.15.01-.16.01-.16h.2l-.01.17-.01.17-.02.16-.03.16-.04.16-.04.16-.06.15-.05.15-.07.15-.07.14-.08.14-.09.13-.09.13-.1.13-.1.12-.11.11-.12.11-.12.11-.13.09-.13.1-.13.08-.14.08-.14.07-.15.07-.15.06-.15.05-.16.04-.16.04-.16.03-.17.02-.17.01-.17.01zm-3.32-3.3h.2l.01.16.01.16.02.15.03.15.03.15.04.15.05.14.06.15.06.13.07.14.07.13.09.12.08.12.09.12.1.11.11.11.1.1.12.1.12.09.12.09.12.08.13.07.14.07.14.06.14.06.14.05.15.04.15.04.15.02.16.02.16.01.16.01v.2l-.17-.01-.17-.01-.16-.02-.17-.03-.16-.04-.16-.04-.15-.05-.15-.06-.15-.07-.14-.07-.14-.08-.13-.08-.13-.1-.13-.09-.12-.11-.11-.11-.11-.11-.11-.12-.1-.13-.09-.13-.09-.13-.08-.14-.07-.14-.07-.15-.05-.15-.06-.15-.04-.16-.04-.16-.03-.16-.02-.16-.01-.17-.01-.17zm3.32-3.3v.2h-.16l-.16.01-.16.02-.15.03-.15.04-.15.04-.14.05-.14.05-.14.06-.14.07-.13.08-.12.08-.12.08-.12.1-.12.09-.1.11-.11.1-.1.12-.09.11-.08.12-.09.13-.07.13-.07.13-.06.14-.06.14-.05.15-.04.14-.03.15-.03.16-.02.15-.01.16-.01.16h-.2l.01-.17.01-.17.02-.16.03-.17.04-.16.04-.15.06-.16.05-.15.07-.14.07-.15.08-.13.09-.14.09-.13.1-.12.11-.12.11-.12.11-.1.12-.11.13-.1.13-.09.13-.08.14-.08.14-.08.15-.06.15-.06.15-.05.16-.05.16-.04.17-.02.16-.03.17-.01h.17z" class="fil1"/><path d="M32.21 34.05c1.78 0 3.22 1.43 3.22 3.2 0 1.76-1.44 3.2-3.22 3.2-1.77 0-3.21-1.44-3.21-3.2 0-1.77 1.44-3.2 3.21-3.2z" class="fil3"/><path id="1" d="M35.53 37.25h-.2v-.16l-.02-.16-.01-.16-.03-.15-.04-.15-.04-.15-.05-.14-.05-.14-.07-.14-.07-.13-.07-.13-.08-.13-.09-.12-.09-.12-.1-.11-.1-.11-.11-.1-.11-.1-.12-.09-.12-.08-.13-.08-.13-.08-.13-.07-.14-.06-.14-.06-.15-.05-.15-.04-.15-.03-.15-.03-.16-.02-.15-.01h-.17v-.2h.17l.17.01.17.02.16.03.16.04.16.04.15.06.16.06.14.06.15.07.13.08.14.09.13.09.12.1.12.1.12.11.11.12.1.12.1.12.09.13.09.13.08.14.07.14.07.15.06.15.05.15.05.16.03.16.03.16.02.17.02.17v.17zm-3.32 3.3v-.2l.17-.01.15-.01.16-.02.15-.03.15-.03.15-.04.15-.05.14-.06.14-.06.13-.07.13-.07.13-.08.12-.09.12-.09.11-.1.11-.1.1-.11.1-.11.09-.12.09-.12.08-.13.07-.13.07-.13.07-.14.05-.14.05-.14.04-.15.04-.15.03-.15.01-.16.02-.15v-.16h.2v.17l-.02.16-.02.17-.03.16-.03.16-.05.16-.05.15-.06.15-.07.15-.07.14-.08.14-.09.13-.09.13-.1.13-.1.12-.11.11-.12.11-.12.1-.12.1-.13.09-.14.09-.13.08-.15.07-.14.07-.16.06-.15.05-.16.04-.16.04-.16.03-.17.02-.17.01-.17.01zm-3.31-3.3h.2v.16l.01.15.02.16.03.15.04.15.04.15.05.14.05.14.07.14.06.13.08.13.08.13.09.12.09.12.1.11.1.11.11.1.11.1.12.09.12.09.13.08.13.07.13.07.14.06.14.06.15.05.15.04.15.03.15.03.16.02.15.01.16.01v.2l-.17-.01-.16-.01-.17-.02-.16-.03-.16-.04-.16-.04-.16-.05-.15-.06-.14-.07-.15-.07-.13-.08-.14-.09-.13-.09-.12-.1-.13-.1-.11-.11-.11-.11-.1-.12-.1-.13-.1-.13-.08-.13-.08-.14-.07-.14-.07-.15-.06-.15-.05-.15-.05-.16-.03-.16-.03-.16-.02-.17-.02-.16v-.17zm3.31-3.3v.2h-.16l-.15.01-.16.02-.15.03-.15.03-.15.04-.15.05-.14.06-.14.06-.13.07-.13.08-.13.08-.12.08-.12.09-.11.1-.11.1-.1.11-.1.11-.09.12-.09.12-.08.13-.08.13-.06.13-.07.14-.05.14-.05.14-.04.15-.04.15-.03.15-.02.16-.01.16v.16h-.2v-.17l.02-.17.02-.17.03-.16.03-.16.05-.16.05-.15.06-.15.07-.15.07-.14.08-.14.08-.13.1-.13.1-.12.1-.12.11-.12.11-.11.13-.1.12-.1.13-.09.14-.09.13-.08.15-.07.14-.06.15-.06.16-.06.16-.04.16-.04.16-.03.17-.02.16-.01h.17z" class="fil1"/><path d="M19.97 26.4h-4.2c-.37 0-.58.28-.67.6l-1.03 3.4c-.1.32.3.6.67.6h5.23c.37 0 .67-.27.67-.6V27c0-.33-.3-.6-.67-.6z" class="fil4"/><path id="1" d="M15.77 26.3h4.2v.2h-4.2v-.2zm-.58.73l-.19-.06.01-.03.01-.03.01-.04.01-.03.02-.03.01-.03.02-.03.01-.03.02-.03.02-.03.01-.02.02-.03.02-.03.02-.02.03-.03.02-.02.02-.02.03-.03.03-.02.02-.02.03-.02.03-.01.03-.02.03-.02.04-.01.03-.01.04-.01.03-.01h.04l.03-.01h.08v.2h-.08l-.03.01h-.03l-.02.01-.02.01-.03.01-.02.01-.02.01-.02.01-.02.02-.02.01-.02.01-.02.02-.02.02-.02.02-.01.02-.02.02-.01.02-.02.02-.01.02-.02.02-.01.03-.01.02-.02.03-.01.02-.01.03-.01.02-.01.03-.01.03-.01.03zm-1.22 3.34l1.03-3.4.19.06-1.03 3.4-.19-.06zm.77.53v.2h-.08l-.04-.01h-.04l-.04-.01-.03-.01-.04-.01-.04-.01-.04-.02-.03-.01-.04-.02-.03-.02-.03-.02-.04-.02-.03-.02-.03-.02-.02-.02-.03-.03-.03-.03-.02-.02-.02-.03-.02-.04-.02-.03-.02-.03-.01-.04-.01-.03v-.04l-.01-.03v-.08l.01-.04.01-.04.19.06v.02l-.01.02v.06l.01.02v.02l.01.02.01.02.01.02.01.02.02.02.01.02.02.02.02.02.02.01.02.02.03.02.02.01.03.02.02.01.03.02.03.01.03.01.03.01.03.01h.03l.03.01.03.01h.09zm5.23.2h-5.23v-.2h5.23v.2zm.57-.7h.2v.08l-.01.03v.04l-.01.03-.01.03-.02.04-.01.03-.02.03-.01.03-.02.03-.02.03-.02.03-.03.02-.02.03-.03.02-.03.02-.02.02-.03.03-.03.02-.04.01-.03.02-.03.01-.03.02-.04.01-.04.01-.03.01-.04.01h-.04l-.03.01h-.08v-.2h.09l.03-.01h.02l.03-.01.03-.01.02-.01.03-.01.02-.01.03-.01.02-.02.02-.01.03-.02.02-.01.02-.02.02-.02.01-.01.02-.02.02-.02.01-.02.02-.02.01-.03.01-.02.01-.02.01-.02.01-.03v-.02l.01-.02v-.08zm.2-3.4v3.4h-.2V27h.2zm-.77-.5v-.2h.08l.03.01h.04l.04.01.03.01.04.01.04.01.03.02.03.01.03.02.04.01.03.02.03.03.02.02.03.02.03.02.02.03.03.02.02.03.02.03.02.03.01.03.02.03.01.03.02.04.01.03.01.03v.04l.01.04V27h-.2v-.08l-.01-.02v-.02l-.01-.03-.01-.02-.01-.02-.01-.02-.01-.03-.02-.02-.01-.02-.02-.02-.02-.01-.01-.02-.02-.02-.02-.02-.02-.01-.03-.02-.02-.01-.02-.02-.03-.01-.02-.01-.03-.01-.02-.01-.03-.01-.03-.01h-.02l-.03-.01h-.09z" class="fil1"/><path d="M22.8 26.4h4.35c.37 0 .59.28.67.6l.88 3.4c.08.32-.3.6-.68.6H22.8c-.37 0-.68-.27-.68-.6V27c0-.33.31-.6.68-.6z" class="fil4"/><path id="1" d="M27.15 26.3v.2H22.8v-.2h4.35zm.58.72l-.01-.03-.01-.02-.01-.03-.01-.02-.01-.03-.01-.03-.01-.02-.01-.02-.02-.03-.01-.02-.01-.02-.02-.02-.02-.02-.01-.02-.02-.02-.02-.02-.02-.02-.01-.01-.02-.02-.02-.01-.02-.02-.03-.01-.02-.01-.02-.01-.02-.01-.03-.01-.02-.01h-.03l-.03-.01h-.08v-.2h.07l.04.01h.04l.03.01.04.01.03.01.04.01.03.02.03.01.03.02.03.02.03.02.02.02.03.02.02.03.03.02.02.03.02.02.02.03.02.03.02.02.02.03.01.03.02.03.01.03.02.03.01.03.01.03.01.04.01.03.01.03-.19.05zm1.07 3.36l-.2.05-.87-3.41.19-.05.88 3.41zm-.78.52h.1l.03-.01.03-.01h.03l.03-.01.02-.01.03-.01.03-.01.03-.02.02-.01.03-.01.02-.02.03-.02.02-.01.02-.02.02-.02.02-.02.01-.02.02-.02.01-.02.01-.02.01-.02.01-.02v-.02l.01-.02v-.08l-.01-.02.2-.05.01.04V30.57l-.01.03-.01.04-.02.03-.01.03-.02.04-.02.03-.02.03-.02.02-.03.03-.03.03-.02.02-.03.02-.03.02-.04.03-.03.01-.03.02-.04.02-.03.01-.04.02-.04.01-.03.01-.04.01-.04.01h-.04l-.04.01h-.08v-.2zm-5.22.2v-.2h5.22v.2H22.8zm-.58-.7v.03l.01.02v.05l.01.02.01.03.01.02.01.02.01.02.01.03.01.02.02.02.01.02.02.02.02.01.02.02.02.02.02.01.02.02.02.01.02.02.03.01.02.01.03.01.03.01.02.01.03.01h.03l.03.01h.09v.2h-.08l-.04-.01h-.04l-.03-.01-.04-.01-.04-.01-.03-.01-.03-.02-.04-.01-.03-.02-.03-.01-.03-.02-.03-.03-.03-.02-.03-.02-.02-.02-.03-.03-.02-.02-.02-.03-.02-.03-.02-.03-.02-.03-.02-.03-.01-.03-.01-.04-.01-.03-.01-.03-.01-.04v-.03l-.01-.04v-.04h.2zm-.2-3.4h.2v3.4h-.2V27zm.78-.5h-.09l-.03.01h-.03l-.03.01-.02.01-.03.01-.03.01-.02.01-.03.01-.02.02-.02.01-.02.02-.02.01-.02.02-.02.02-.02.02-.02.01-.01.02-.02.02-.01.02-.01.03-.01.02-.01.02-.01.02-.01.03-.01.02v.05l-.01.02V27h-.2v-.04l.01-.03v-.04l.01-.04.01-.03.01-.03.01-.04.01-.03.02-.03.02-.03.02-.03.02-.03.02-.03.02-.02.03-.03.02-.02.03-.02.03-.02.03-.03.03-.02.03-.01.03-.02.04-.01.03-.02.03-.01.04-.01.04-.01.03-.01h.04l.04-.01h.08v.2z" class="fil1"/><path d="M38.13 31.97l4.96.51v3.71l-4.96.9z" class="fil4"/><path id="1" d="M43.08 32.58l-4.96-.51.02-.2 4.96.51.09.1-.11.1zm.02-.2l.09.01v.09l-.09-.1zm-.11 3.81v-3.71h.2v3.71l-.08.1-.12-.1zm.2 0v.08l-.08.02.08-.1zm-5.08.8l4.97-.9.03.2-4.96.9-.12-.1.08-.1zm.04.2l-.12.02v-.12l.12.1zm.08-5.22v5.12h-.2v-5.12l.11-.1.09.1zm-.2 0v-.11l.11.01-.11.1z" class="fil1"/><path d="M30.26 23.72l3.41-.66v-4.69l-3.41-1.15z" class="fil4"/><path id="1" d="M33.65 22.97l.12.09-.08.1-3.41.65-.04-.19 3.41-.65zm.12.09v.09l-.08.01.08-.1zm-.2-4.69l.13-.1.07.1v4.69h-.2v-4.69zm.13-.1l.07.02v.08l-.07-.1zm-3.47-.95l-.07-.1.13-.09 3.41 1.14-.07.19-3.4-1.14zm-.07-.1v-.13l.13.04-.13.09zm.2 6.5l-.08.09-.12-.09v-6.5h.2v6.5zm-.08.09l-.12.03v-.12l.12.09z" class="fil1"/><path fill="#a1b567" d="M15.38 15.78h12.9c1.05 0 1.91.86 1.91 1.91v5.3c0 1.05-.86 1.91-1.91 1.91h-12.9c-1.06 0-1.92-.86-1.92-1.91v-5.3c0-1.05.86-1.91 1.92-1.91z"/><path id="1" d="M28.28 15.88h-12.9v-.2h12.9v.2zm2.01 1.81h-.2v-.09l-.01-.09-.01-.09-.02-.09-.02-.09-.02-.09-.03-.08-.03-.08-.04-.08-.04-.08-.04-.08-.05-.07-.05-.07-.06-.07-.05-.07-.06-.06-.07-.06-.06-.06-.07-.05-.07-.05-.08-.05-.07-.04-.08-.04-.08-.04-.08-.03-.09-.03-.08-.03-.09-.02-.09-.01-.09-.01-.09-.01h-.09v-.2h.1l.1.01.1.01.1.02.1.02.09.03.1.03.09.04.09.04.08.04.09.05.08.05.08.06.07.06.08.06.07.07.06.07.07.07.06.08.05.08.06.08.04.08.05.09.04.09.04.09.03.09.02.1.03.1.02.09.01.11.01.1v.1zm-.2 5.3v-5.3h.2v5.3h-.2zM28.28 25v-.2h.09l.09-.01.09-.01.09-.01.09-.02.08-.03.09-.03.08-.03.08-.04.08-.04.07-.04.08-.05.07-.05.07-.05.06-.06.07-.06.06-.06.05-.07.06-.07.05-.07.05-.07.04-.08.04-.08.04-.08.03-.08.03-.08.02-.09.02-.09.02-.09.01-.09.01-.09v-.09h.2v.1l-.01.1-.01.11-.02.09-.03.1-.02.1-.03.09-.04.09-.04.09-.05.09-.04.08-.06.08-.05.08-.06.08-.07.07-.06.07-.07.07-.08.06-.07.06-.08.06-.08.05-.09.05-.08.04-.09.04-.09.04-.1.03-.09.03-.1.02-.1.02-.1.01-.1.01h-.1zm-12.9-.2h12.9v.2h-12.9v-.2zm-2.02-1.81h.2v.09l.01.09.01.09.02.09.02.09.02.09.03.08.04.08.03.08.04.08.05.08.04.07.05.07.06.07.05.07.06.06.07.06.06.06.07.05.07.05.08.05.07.04.08.04.08.04.08.03.09.03.08.03.09.02.09.01.09.01.09.01h.1v.2h-.11l-.1-.01-.1-.01-.1-.02-.1-.02-.09-.03-.1-.03-.09-.04-.09-.04-.08-.04-.09-.05-.08-.05-.08-.06-.07-.06-.08-.06-.07-.07-.06-.07-.07-.07-.06-.08-.05-.08-.05-.08-.05-.08-.05-.09-.04-.09-.04-.09-.03-.09-.02-.1-.03-.1-.01-.09-.02-.11v-.1l-.01-.1zm.2-5.3v5.3h-.2v-5.3h.2zm1.82-2.01v.2h-.1l-.09.01-.09.01-.09.01-.09.02-.08.03-.09.03-.08.03-.08.04-.08.04-.07.04-.08.05-.07.05-.07.05-.06.06-.07.06-.06.06-.05.07-.06.07-.05.07-.04.07-.05.08-.04.08-.03.08-.04.08-.03.08-.02.09-.02.09-.02.08-.01.09-.01.1v.09h-.2l.01-.1v-.1l.02-.11.01-.09.03-.1.02-.1.03-.09.04-.09.04-.09.05-.09.05-.08.05-.08.05-.08.06-.08.07-.07.06-.07.07-.07.08-.06.07-.06.08-.06.08-.05.09-.05.08-.04.09-.04.09-.04.1-.03.09-.03.1-.02.1-.02.1-.01.1-.01h.11z" class="fil1"/><path d="M15.58 15.77h11.64c1.3 0 2.04-1.1 2.36-2.36l1.33-5.11c.33-1.26-2.39-2.08-3.69-2.08H15.58c-1.3 0-3.99 1.14-3.65 2.39l1.29 4.8c.34 1.25 1.06 2.36 2.36 2.36z" class="fil0"/><path id="1" d="M27.22 15.67v.2H15.58v-.2h11.64zm2.46-2.24l-.03.12-.04.12-.03.12-.04.11-.05.12-.04.11-.05.11-.05.11-.05.11-.06.1-.06.1-.06.1-.07.1-.06.09-.07.09-.08.09-.07.08-.09.08-.08.07-.08.08-.09.06-.1.06-.09.06-.1.05-.11.05-.1.04-.11.03-.12.03-.11.02-.12.02-.12.01h-.13v-.2h.11l.12-.01.1-.01.11-.03.1-.02.1-.03.1-.04.09-.04.09-.05.09-.05.08-.05.08-.06.08-.07.08-.07.07-.07.07-.07.07-.08.07-.09.06-.08.06-.1.06-.09.06-.09.05-.1.05-.1.05-.11.04-.1.05-.11.04-.11.04-.11.03-.12.04-.11.03-.12.19.05zm1.13-5.16l.2.05-1.33 5.11-.19-.05 1.32-5.11zm-3.59-2.15h.13l.14.01.14.01.15.02.15.02.16.02.16.03.16.04.17.04.16.04.17.05.17.05.16.05.16.06.16.07.16.07.15.07.14.07.14.08.13.08.13.09.11.09.11.1.1.1.08.1.08.11.06.11.04.12.03.12.01.13v.12l-.02.13-.2-.05.02-.1.01-.1-.01-.1-.03-.09-.03-.1-.05-.09-.07-.09-.07-.09-.09-.09-.09-.09-.11-.08-.12-.08-.12-.08-.13-.07-.14-.08-.15-.06-.15-.07-.15-.06-.16-.06-.16-.05-.16-.05-.16-.05-.16-.04-.16-.04-.16-.03-.16-.03-.15-.02-.15-.03-.14-.01-.14-.01-.13-.01h-.12v-.2zm-11.64.2v-.2h11.64v.2H15.58zm-3.75 2.32l-.03-.13v-.13l.01-.13.03-.13.04-.12.06-.12.07-.12.08-.11.1-.11.1-.11.12-.1.12-.11.13-.09.14-.1.14-.09.15-.08.15-.08.16-.08.16-.08.17-.07.16-.06.17-.06.16-.06.17-.05.16-.05.16-.04.16-.03.15-.03.15-.02.14-.02.14-.01h.13v.2h-.12l-.13.01-.13.02-.14.02-.15.02-.15.04-.16.04-.16.04-.16.05-.16.05-.16.06-.16.07-.16.06-.15.08-.15.07-.15.08-.15.09-.13.08-.13.09-.13.09-.11.1-.11.09-.1.1-.08.1-.08.1-.06.1-.05.11-.03.1-.02.1-.01.1v.1l.02.11-.19.05zm1.48 4.74l-.19.05-1.29-4.79.19-.05 1.29 4.79zm2.27 2.49h-.12l-.13-.01-.11-.02-.12-.02-.11-.03-.11-.03-.11-.04-.1-.05-.1-.05-.1-.06-.09-.06-.09-.07-.08-.07-.09-.07-.08-.08-.07-.08-.08-.09-.07-.09-.07-.09-.06-.1-.06-.1-.06-.1-.06-.1-.05-.11-.05-.11-.05-.11-.05-.11-.04-.12-.04-.11-.04-.12-.04-.12-.03-.12.19-.05.04.12.03.11.04.11.04.12.04.11.04.1.05.11.05.1.05.1.05.1.06.1.06.09.06.09.06.09.07.08.06.08.07.08.08.07.07.07.08.07.08.06.09.05.09.05.09.05.09.04.09.04.1.03.1.02.11.03.11.01.11.01h.11v.2z" class="fil1"/><path d="M2.18 8.08l10 1.61h24.41c.71 0 1.29-.59 1.29-1.3V4.04c0-.71-.58-1.29-1.29-1.29H2.18c-.71 0-1.29.58-1.29 1.29v2.75c0 .71.59 1.18 1.29 1.29z" class="fil2"/><path id="1" d="M12.19 9.59l-.01.2-.02-.01-10-1.6.04-.2 9.99 1.61zm-.01.2h-.01l-.01-.01.02.01zm24.41-.2v.2H12.18v-.2h24.41zm1.39-1.2v.08l-.01.07-.01.06-.01.07-.02.07-.01.07-.03.06-.02.06-.03.07-.03.06-.03.05-.04.06-.04.06-.04.05-.04.05-.05.05-.05.04-.05.05-.05.04-.06.04-.05.03-.06.04-.06.03-.06.03-.07.02-.06.02-.07.02-.06.02-.07.01-.07.01h-.07l-.07.01v-.2h.06l.06-.01.06-.01.05-.01.06-.01.06-.02.05-.02.06-.02.05-.02.05-.03.05-.03.05-.03.05-.03.04-.04.05-.03.04-.04.04-.05.03-.04.04-.04.03-.05.04-.05.02-.05.03-.05.02-.05.03-.06.01-.05.02-.06.01-.06.01-.06.01-.06.01-.06v-.06h.2zm-.2-4.35h.2v4.35h-.2V4.04zm-1.19-1.39h.07l.07.01h.07l.07.02.06.01.07.02.06.02.07.03.06.03.06.03.06.03.05.04.06.04.05.04.05.04.05.05.05.05.04.05.04.05.04.05.04.06.03.06.03.06.03.06.02.06.03.07.01.06.02.07.01.07.01.07.01.07v.07h-.2v-.06l-.01-.06-.01-.06-.01-.06-.01-.06-.02-.05-.01-.06-.03-.05-.02-.05-.03-.06-.02-.05-.04-.04-.03-.05-.04-.05-.03-.04-.04-.04-.04-.04-.05-.04-.04-.03-.05-.04-.05-.03-.05-.03-.05-.02-.05-.03-.06-.02-.05-.02-.06-.01-.06-.02-.05-.01h-.06l-.06-.01h-.06v-.2zm-34.41.2v-.2h34.41v.2H2.18zM.79 4.04V3.9l.01-.07.02-.07.01-.07.02-.06.02-.07.03-.06.03-.06.03-.06.03-.06.04-.06.04-.05.04-.05.04-.05.05-.05.05-.05.05-.04.05-.04.05-.04.06-.04.06-.03.06-.03.06-.03.06-.03.07-.02.06-.02.07-.01.07-.02h.07l.07-.01h.07v.2h-.06l-.06.01H2l-.06.01-.06.02-.05.01-.06.02-.05.02-.05.03-.06.02-.05.03-.04.03-.05.04-.05.03-.04.04-.04.04-.04.04-.04.04-.03.05-.04.05-.03.04-.03.05-.02.06-.03.05-.02.05-.02.06-.01.05-.02.06-.01.06-.01.06v.12h-.2zm.2 2.75h-.2V4.04h.2v2.75zm1.17 1.39l-.06-.02-.07-.01-.07-.02-.06-.01-.07-.03-.06-.02-.07-.02-.06-.03-.06-.03-.06-.03-.06-.03-.05-.04-.06-.04-.05-.04-.05-.04-.05-.04-.04-.05-.05-.04-.04-.05-.04-.05-.04-.06-.03-.05-.03-.06-.03-.06-.02-.06-.03-.06-.02-.06-.01-.07-.02-.07v-.06l-.01-.07v-.07h.2v.11l.01.06.01.06.01.05.02.06.02.05.02.05.03.05.02.05.03.04.03.05.04.04.03.04.04.04.04.04.04.04.05.04.04.03.05.03.05.03.05.03.05.03.05.03.06.02.06.02.05.02.06.02.06.02.06.02.06.01.07.01-.04.2z" class="fil1"/><g><path d="M8.2 6.5c1.78 0 3.22-1.43 3.22-3.2C11.42 1.53 9.98.1 8.2.1 6.43.1 4.99 1.53 4.99 3.3c0 1.77 1.44 3.2 3.21 3.2z" class="fil3"/><path id="1" d="M11.52 3.3v.17l-.02.17-.02.16-.03.17-.03.16-.05.15-.05.16-.06.15-.07.14-.07.14-.08.14-.09.14-.09.13-.1.12-.1.12-.11.11-.12.11-.12.11-.12.1-.13.09-.14.08-.14.08-.14.08-.14.06-.16.06-.15.05-.16.05-.16.03-.16.03-.17.02-.17.02H8.2v-.2h.16l.16-.02.16-.01.15-.03.15-.04.15-.04.15-.05.14-.05.14-.06.13-.07.13-.08.13-.08.12-.08.12-.1.11-.09.11-.11.1-.11.1-.11.09-.11.09-.13.08-.12.07-.13.07-.14.07-.13.05-.14.05-.15.04-.14.04-.15.02-.16.02-.15.02-.16V3.3h.2zM8.2 0h.17l.17.02.17.02.16.03.16.03.16.05.15.05.16.06.14.07.14.07.14.08.14.08.13.1.12.09.12.11.12.11.11.11.1.12.1.13.09.13.09.13.08.14.07.14.07.15.06.15.05.15.05.16.03.16.03.16.02.16.02.17v.17h-.2v-.16l-.02-.16-.02-.15-.02-.15-.04-.15-.04-.15-.05-.15-.05-.14-.07-.13-.07-.14-.07-.13-.08-.12-.09-.12-.09-.12-.1-.11-.1-.11L10.3 1l-.11-.09-.12-.09-.12-.09-.13-.08-.13-.08-.13-.06-.14-.07-.14-.05-.15-.05L8.98.3 8.83.26 8.68.24 8.52.22 8.36.2H8.2V0zM4.89 3.3v-.17l.01-.17.03-.16.03-.16.03-.16.05-.16.05-.15.06-.15.06-.15.08-.14.08-.14.08-.13.1-.13.09-.13.11-.12.11-.11.11-.11.12-.11.13-.09.13-.1.13-.08.14-.08.15-.07.14-.07.15-.06.16-.05.16-.05.16-.03.16-.03.17-.02.16-.02h.17v.2h-.16l-.16.02-.15.02-.15.02-.16.04-.14.04-.15.05-.14.05-.14.07-.13.06-.13.08-.13.08-.12.09-.12.09-.11.09-.11.11-.1.11-.1.11-.09.12-.09.12-.08.12-.08.13-.07.14-.06.13-.05.14-.05.15-.04.15-.04.15-.03.15-.02.15-.01.16v.16h-.2zM8.2 6.6h-.17l-.16-.02-.17-.02-.16-.03-.16-.03-.16-.05-.16-.05-.15-.06-.14-.06-.15-.08-.14-.08-.13-.08-.13-.09-.13-.1-.12-.11-.11-.11-.11-.11-.11-.12-.09-.12-.1-.13-.08-.14-.08-.14-.08-.14-.06-.14-.06-.15-.05-.16-.05-.15-.03-.16-.03-.17-.03-.16-.01-.17V3.3h.2v.16l.01.16.02.15.03.16.04.15.04.14.05.15.05.14.06.13.07.14.08.13.08.12.09.13.09.11.1.11.1.11.11.11.11.09.12.1.12.08.13.08.13.08.13.07.14.06.14.05.15.05.14.04.16.04.15.03.15.01.16.02h.16v.2z" class="fil1"/></g><g><path d="M31.92 6.64c1.77 0 3.21-1.43 3.21-3.2 0-1.77-1.44-3.2-3.21-3.2-1.78 0-3.22 1.43-3.22 3.2 0 1.77 1.44 3.2 3.22 3.2z" class="fil3"/><path id="1" d="M35.23 3.44v.17l-.01.17-.02.17-.03.16-.04.16-.04.15-.06.16-.06.15-.06.14-.08.15-.08.13-.08.14-.1.13-.09.12-.11.12-.11.12-.11.11-.12.1-.13.1-.13.09-.13.09-.14.08-.14.07-.15.06-.15.06-.16.06-.15.04-.16.04-.17.03-.16.02-.17.01h-.17v-.2h.16l.16-.01.15-.02.16-.03.15-.03.15-.05.14-.05.14-.05.14-.06.13-.07.13-.08.13-.08.12-.08.12-.1.11-.09.11-.11.1-.1.1-.12.1-.11.08-.12.08-.13.08-.13.07-.13.06-.14.06-.14.04-.15.05-.14.03-.15.03-.16.02-.15.01-.16.01-.16h.19zM31.92.14l.17.01.17.01.16.02.17.03.16.04.15.04.16.05.15.06.15.07.14.07.14.08.13.09.13.09.13.1.12.1.11.11.11.11.11.12.1.13.09.13.08.13.08.14.08.14.06.15.06.15.06.15.04.16.04.16.03.16.02.17.01.16v.17h-.19l-.01-.16-.01-.15-.02-.16-.03-.15-.03-.15-.05-.15-.04-.14-.06-.14-.06-.14-.07-.14-.08-.12-.08-.13-.08-.12-.1-.12-.1-.11-.1-.11-.11-.1-.11-.1-.12-.09-.12-.09-.13-.08-.13-.07-.13-.07-.14-.06-.14-.06-.14-.05-.15-.04-.15-.04-.16-.02-.15-.02-.16-.01-.16-.01v-.2zm-3.32 3.3l.01-.17.01-.16.02-.17.03-.16.04-.16.04-.16.05-.15.06-.15.07-.15.07-.14.08-.14.09-.13.09-.13.1-.13.1-.12.11-.11.12-.11.12-.1.12-.1.13-.09.14-.09.14-.08.14-.07.15-.07.15-.06.15-.05.16-.04.16-.04.16-.03.17-.02.17-.01.17-.01v.2l-.16.01-.16.01-.16.02-.15.02-.15.04-.15.04-.14.05-.14.06-.14.06-.14.07-.13.07-.12.08-.13.09-.11.09-.12.1-.11.1-.1.11-.1.11-.09.12-.09.12-.08.13-.07.12-.07.14-.06.14-.06.14-.05.14-.04.15-.03.15-.03.15-.02.16-.01.15-.01.16h-.2zm3.32 3.3h-.17l-.17-.01-.17-.02-.16-.03-.16-.04-.16-.04-.15-.06-.15-.06-.15-.06-.14-.07-.14-.08-.14-.09-.13-.09-.12-.1-.12-.1-.12-.11-.11-.12-.1-.12-.1-.12-.09-.13-.09-.14-.08-.13-.07-.15-.07-.14-.06-.15-.05-.16-.04-.15-.04-.16-.03-.16-.02-.17-.01-.17-.01-.17h.2l.01.16.01.16.02.15.03.16.03.15.04.14.05.15.06.14.06.14.07.13.07.13.08.13.09.12.09.11.1.12.1.1.11.11.12.09.11.1.13.08.12.08.13.08.14.07.14.06.14.05.14.05.15.05.15.03.15.03.16.02.16.01h.16v.2z" class="fil1"/></g><g><path d="M19.67 14.29h-4.19c-.38 0-.58-.28-.68-.6l-1.03-3.4c-.1-.32.3-.6.67-.6h5.23c.37 0 .68.27.68.6v3.4c0 .33-.31.6-.68.6z" class="fil4"/><path id="1" d="M15.48 14.39v-.2h4.19v.2h-4.19zm-.58-.73v.03l.01.03.01.03.01.02.02.03.01.02.01.03.01.02.02.02.01.03.01.02.02.02.02.02.01.02.02.02.01.02.02.02.02.01.02.02.02.01.02.02.02.01.02.01.03.01.02.01.02.01h.03l.02.01h.03l.03.01h.06v.2h-.08l-.04-.01h-.04l-.03-.01-.04-.01-.03-.01-.03-.02-.03-.01-.04-.02-.03-.02-.02-.01-.03-.02-.03-.02-.02-.03-.03-.02-.02-.02-.02-.03-.02-.02-.02-.03-.02-.03-.02-.03-.02-.02-.01-.03-.02-.03-.01-.03-.02-.03-.01-.03-.01-.04-.01-.03-.02-.03-.01-.03.2-.06zm-1.23-3.35l.19-.05 1.04 3.4-.2.06-1.03-3.41zm.77-.52h-.09l-.03.01h-.03l-.03.01-.03.01-.03.01-.03.01-.03.01-.02.01-.03.02-.03.01-.02.02-.02.02-.03.01-.02.02-.02.02-.01.02-.02.02-.01.02-.02.02-.01.02-.01.02v.02l-.01.01v.03l-.01.02v.01l.01.02v.05l-.19.05-.01-.03v-.04l-.01-.04.01-.04v-.04l.01-.03.01-.04.01-.03.01-.03.02-.04.02-.03.02-.03.03-.02.02-.03.03-.03.03-.02.03-.02.03-.03.03-.02.03-.01.04-.02.03-.02.04-.02.03-.01.04-.01.04-.01.04-.01.04-.01.04-.01H14.44v.2zm5.23-.2v.2h-5.23v-.2h5.23zm.58.7v-.03l-.01-.02v-.05l-.01-.03-.01-.02-.01-.02-.01-.02-.01-.03-.01-.02-.01-.02-.02-.02-.01-.02-.02-.02-.02-.02-.02-.01-.02-.02-.02-.02-.02-.01-.02-.02-.03-.01-.02-.01-.03-.01-.02-.01-.03-.01-.03-.01-.02-.01h-.03l-.03-.01h-.09v-.2h.12l.04.01.03.01.04.01.03.01.04.01.03.01.04.02.03.02.03.01.03.02.03.02.03.02.02.03.03.02.03.03.02.02.02.03.02.03.02.03.02.03.01.03.02.03.01.03.01.04.01.03.01.04v.03l.01.04v.04h-.2zm.2 3.4h-.2v-3.4h.2v3.4zm-.78.5h.06l.03-.01h.03l.03-.01h.02l.03-.01.03-.01.02-.01.03-.01.02-.01.03-.02.02-.01.02-.02.02-.01.02-.02.02-.02.02-.02.02-.02.01-.01.02-.02.01-.03.01-.02.01-.02.01-.02.01-.02.01-.03.01-.02v-.05l.01-.02v-.03h.2v.04l-.01.03v.04l-.01.03-.01.04-.01.03-.01.03-.02.04-.01.03-.02.03-.02.03-.02.03-.02.02-.02.03-.03.03-.03.02-.02.02-.03.02-.03.02-.03.02-.03.02-.03.02-.04.01-.03.02-.04.01-.03.01-.04.01-.03.01h-.04l-.04.01h-.08v-.2z" class="fil1"/></g><g><path d="M22.5 14.29h4.35c.37 0 .59-.28.68-.6l.87-3.4c.09-.33-.3-.6-.67-.6H22.5c-.37 0-.67.27-.67.6v3.4c0 .33.3.6.67.6z" class="fil4"/><path id="1" d="M26.85 14.39H22.5v-.2h4.35v.2zm.58-.72l.19.05-.01.03v.03l-.02.03-.01.03-.01.04-.01.03-.02.03-.01.03-.02.03-.02.03-.02.02-.01.03-.03.03-.02.02-.02.03-.02.02-.03.03-.02.02-.03.02-.03.02-.03.02-.03.01-.03.02-.03.01-.03.02-.04.01-.03.01-.04.01h-.03l-.04.01h-.08v-.2h.06l.03-.01h.02l.03-.01h.02l.03-.01.02-.01.03-.01.02-.01.02-.01.02-.02.02-.01.02-.02.02-.01.02-.02.01-.02.02-.02.02-.02.01-.02.02-.02.01-.02.02-.02.01-.03.01-.02.01-.03.01-.02.02-.03.01-.02v-.03l.01-.03.01-.02zm1.07-3.36l-.88 3.41-.19-.05.88-3.41.19.05zm-.77-.52v-.2h.12l.04.01.03.01.04.01.04.01.04.01.03.01.04.02.03.02.04.01.03.02.03.02.03.03.03.02.03.02.02.03.03.02.02.03.02.03.02.03.02.03.02.04.01.03.01.04.01.03v.04l.01.04-.01.03v.04l-.01.04-.19-.05V10.14l-.01-.02-.01-.03-.01-.01-.01-.02-.01-.02-.01-.02-.02-.02-.02-.02-.02-.02-.02-.02-.02-.01-.02-.02-.03-.02-.02-.01-.03-.02-.03-.01-.02-.01-.03-.01-.03-.01-.03-.01-.03-.01h-.03l-.03-.01h-.09zm-5.23-.2h5.23v.2H22.5v-.2zm-.57.7h-.2v-.11l.01-.04.01-.03.01-.04.01-.03.02-.03.01-.03.02-.03.02-.03.02-.03.02-.03.03-.02.02-.03.03-.02.02-.03.03-.02.03-.02.03-.02.03-.01.04-.02.03-.02.03-.01.04-.01.03-.01.04-.01.04-.01.03-.01h.12v.2h-.09l-.03.01h-.02l-.03.01-.03.01-.03.01-.02.01-.03.01-.02.01-.02.01-.03.02-.02.01-.02.02-.02.02-.02.01-.02.02-.01.02-.02.02-.01.02-.02.02-.01.02-.01.03-.01.02-.01.02-.01.02v.03l-.01.02v.08zm-.2 3.4v-3.4h.2v3.4h-.2zm.77.5v.2h-.08l-.04-.01h-.03l-.04-.01-.04-.01-.03-.01-.04-.01-.03-.02-.03-.01-.04-.02-.03-.02-.03-.02-.03-.02-.03-.02-.02-.02-.03-.02-.02-.03-.03-.03-.02-.02-.02-.03-.02-.03-.02-.03-.01-.03-.02-.04-.01-.03-.01-.03-.01-.04-.01-.03V13.69h.2v.07l.01.03v.02l.01.03.01.02.01.02.01.02.01.02.02.03.01.02.02.01.01.02.02.02.02.02.02.02.02.01.02.02.03.01.02.02.02.01.03.01.02.01.03.01.03.01h.03l.02.01h.03l.03.01h.06z" class="fil1"/></g><g><path d="M37.84 8.72l4.96-.51V4.5l-4.96-.9z" class="fil4"/><path id="1" d="M42.79 8.11l.11.1-.09.1-4.96.51-.02-.2 4.96-.51zm.11.1v.09l-.09.01.09-.1zm-.2-3.71l.12-.1.08.1v3.71h-.2V4.5zm.12-.1l.08.02v.08l-.08-.1zm-5-.7l-.08-.1.11-.1 4.97.9-.04.2-4.96-.9zm-.08-.1v-.12l.11.02-.11.1zm.2 5.12l-.09.1-.11-.1V3.6h.2v5.12zm-.09.1l-.11.01v-.11l.11.1z" class="fil1"/></g><g><path d="M1.18 34.16c.44 0 .79.5.79 1.12 0 .61-.35 1.12-.79 1.12-.43 0-.78-.51-.78-1.12 0-.62.35-1.12.78-1.12z" class="fil6"/><path id="1" d="M2.07 35.28h-.2v-.11l-.01-.05v-.06l-.01-.05-.01-.05-.01-.04-.02-.05-.01-.05-.02-.04-.01-.05-.02-.04-.02-.04-.02-.04-.03-.03-.02-.04-.02-.03-.03-.03-.03-.03-.02-.03-.03-.03-.03-.02-.03-.02-.03-.02-.03-.02-.03-.01-.03-.02-.03-.01h-.04l-.03-.01h-.03l-.04-.01v-.19h.1l.05.01.04.01.05.02.04.01.04.02.04.03.04.02.04.03.04.03.03.03.04.04.03.04.03.04.03.04.03.04.03.04.02.05.03.05.02.05.02.05.02.05.02.05.01.05.01.06.02.06.01.06v.05l.01.06v.13zm-.89 1.22v-.2l.04-.01h.03l.03-.01h.04l.03-.01.03-.02.03-.01.03-.02.03-.02.03-.02.03-.02.03-.03.02-.03.03-.03.03-.03.02-.03.02-.04.03-.03.02-.04.02-.04.02-.04.01-.05.02-.04.01-.05.02-.04.01-.05.01-.05.01-.05v-.05l.01-.06v-.1h.2v.12l-.01.06v.06l-.01.05-.02.06-.01.06-.01.05-.02.05-.02.06-.02.05-.02.04-.03.05-.02.05-.03.04-.03.04-.03.05-.03.03-.03.04-.03.04-.04.03-.04.03-.04.03-.04.02-.04.03-.04.02-.04.01-.05.02-.04.01-.05.01h-.05l-.05.01zM.3 35.28h.2v.16l.01.05.01.05.01.05.01.05.01.04.02.05.01.04.02.05.02.04.02.04.02.04.03.03.02.04.02.03.03.03.03.03.02.03.03.03.03.02.03.02.03.02.03.02.03.01.03.02.03.01h.04l.03.01h.03l.03.01v.2l-.04-.01h-.05l-.05-.01-.04-.01-.05-.02-.04-.01-.04-.02-.04-.03-.04-.02-.04-.03-.04-.03-.04-.03-.03-.04-.03-.04-.03-.03-.04-.05-.02-.04-.03-.04-.03-.05-.02-.05-.02-.04-.02-.05-.02-.06-.02-.05-.01-.05-.02-.06-.01-.06-.01-.05v-.06L.3 35.4v-.12zm.88-1.22v.19l-.03.01h-.03l-.03.01h-.04l-.03.01-.03.02-.03.01-.03.02-.03.02-.03.02-.03.02-.03.03-.02.03-.03.03-.03.03-.02.03-.02.04-.03.03-.02.04-.02.04-.02.04-.02.05-.01.04-.02.05-.01.05-.01.04-.01.05-.01.05-.01.06v.16H.3v-.13l.01-.06v-.05l.01-.06.01-.06.02-.06.01-.05.02-.05.02-.05.02-.05.02-.05.02-.05.03-.05.03-.04.02-.04.03-.04.04-.04.03-.04.03-.04.04-.03.04-.03.04-.03.04-.02.04-.03.04-.02.04-.01.05-.02.04-.01.05-.01h.09z" class="fil1"/></g><g><path d="M.89 4.29c.43 0 .79.5.79 1.12 0 .62-.36 1.12-.79 1.12-.44 0-.79-.5-.79-1.12 0-.62.35-1.12.79-1.12z" class="fil6"/><path id="1" d="M1.78 5.41h-.2v-.05l-.01-.05v-.06l-.01-.05-.01-.05-.01-.05-.01-.05L1.52 5l-.02-.04-.01-.04-.02-.05-.02-.04-.02-.04-.02-.04-.02-.04-.03-.03-.02-.03-.03-.04-.02-.03-.03-.02-.03-.03-.03-.02-.03-.02-.03-.02-.03-.02-.03-.02-.03-.01-.03-.01-.03-.01H.95l-.03-.01H.89v-.2h.05l.04.01.05.01.04.01.05.01.04.02.04.02.05.03.04.02.03.03.04.03.04.03.03.04.04.03.03.04.03.04.03.05.02.04.03.05.02.04.02.05.02.05.02.06.02.05.02.05.01.06.01.06.01.05.01.06v.06l.01.06v.06zM.89 6.63v-.2h.06l.04-.01.03-.01.03-.01.03-.01.03-.01.03-.02.03-.02.03-.02.03-.02.03-.03.03-.03.02-.03.03-.03.02-.03.03-.04.02-.03.02-.04.02-.04.02-.05.02-.04.01-.04.02-.05.01-.05.01-.04.01-.06.01-.05.01-.05v-.05l.01-.05v-.06h.2v.06l-.01.07v.05l-.01.06-.01.06-.01.06-.01.05-.02.06-.02.05-.02.05-.02.05-.02.05-.02.05-.03.05-.02.04-.03.04-.03.04-.03.04-.04.04-.03.03-.04.04-.04.03-.03.03-.04.02-.05.02-.04.02-.04.02-.05.02-.04.01-.05.01H.89zM0 5.41h.2v.11l.01.05v.05l.01.05.01.06.01.04.02.05.01.05.02.04.02.04.01.05.03.04.02.04.02.03.02.04.03.03.02.03.03.03.03.03.02.03.03.02.03.02.03.02.03.02.03.01.04.01.03.01.03.01.03.01h.07v.2h-.1l-.04-.01-.05-.01-.04-.02-.05-.02-.04-.02-.04-.02-.04-.02-.04-.03-.04-.03-.03-.04-.04-.03-.03-.04-.03-.04-.03-.04-.03-.04-.03-.04-.02-.05-.03-.05-.02-.05-.02-.05-.02-.05-.01-.05-.02-.06-.01-.05-.01-.06-.01-.06-.01-.06L0 5.54v-.13zm.89-1.22v.2H.85l-.03.01H.79l-.03.01-.03.01-.04.01-.03.02-.03.02-.03.02-.03.02-.03.02-.02.03-.03.02-.03.03-.02.04-.03.03-.02.03-.02.04-.02.04-.03.04-.01.04-.02.05-.02.04L.26 5l-.02.05-.01.05-.01.05-.01.05v.05l-.01.06v.1H0v-.12l.01-.06.01-.06.01-.05.01-.06L.05 5l.02-.05.01-.05.02-.06.02-.05.02-.05.03-.04.02-.05.03-.04.03-.05.03-.04.03-.04.03-.03.04-.04.03-.03.04-.03.04-.03.04-.02.04-.03.04-.02.05-.02.04-.01.05-.01.04-.01.05-.01h.05z" class="fil1"/></g><g><path d="M8.2 4.56c.7 0 1.27-.57 1.27-1.26 0-.69-.57-1.26-1.27-1.26-.69 0-1.26.57-1.26 1.26 0 .69.57 1.26 1.26 1.26z" class="fil0"/><path id="1" d="M9.57 3.3l-.01.07v.07l-.01.07-.01.06-.02.07-.01.06-.03.07-.02.06-.03.06-.03.06-.03.05-.04.06-.03.05-.05.05-.04.05-.04.05-.05.04-.05.05-.05.04-.05.03-.06.04-.06.03-.06.03-.06.03-.06.02-.06.03-.07.01-.06.02-.07.01-.07.01h-.07l-.07.01v-.2h.06l.06-.01.06-.01.06-.01.05-.01.06-.02.05-.01.06-.02.05-.03.05-.02.05-.03.04-.03.05-.03.04-.04.05-.03.04-.04.03-.04.04-.04.04-.05.03-.04.03-.05.03-.05.02-.05.02-.05.03-.05.01-.06.02-.05.01-.06.01-.05.01-.06v-.06l.01-.06h.2zM8.2 1.94l.07.01h.07l.07.01.07.01.06.02.07.02.06.02.06.02.06.03.06.03.06.03.06.04.05.03.05.04.05.05.05.04.04.05.04.05.05.05.03.05.04.06.03.05.03.06.03.06.02.06.03.07.01.06.02.07.01.06.01.07v.07l.01.07h-.2l-.01-.06v-.06l-.01-.05-.01-.06-.01-.06-.02-.05-.01-.06-.03-.05-.02-.05-.02-.05-.03-.05-.03-.05-.03-.04-.04-.04-.04-.05-.03-.04-.04-.03-.05-.04-.04-.04-.05-.03-.04-.03-.05-.03-.05-.02-.05-.02-.06-.03-.05-.01-.06-.02-.05-.01-.06-.01-.06-.01h-.06l-.06-.01v-.2zM6.84 3.3v-.07l.01-.07.01-.07.01-.06.01-.07.02-.06.03-.07.02-.06.03-.06.03-.06.03-.05.03-.06.04-.05.04-.05.05-.05.04-.05.05-.04.05-.05.05-.04.05-.03.06-.04.05-.03.06-.03.06-.03.07-.02.06-.02.06-.02.07-.02.07-.01.06-.01h.07l.07-.01v.2l-.06.01h-.05l-.06.01-.06.01-.06.01-.05.02-.06.01-.05.03-.05.02-.05.02-.05.03-.05.03-.04.03-.05.04-.04.04-.04.03-.04.04-.03.05-.04.04-.03.04-.03.05-.03.05-.02.05-.03.05-.02.05-.02.06-.01.05-.01.06-.01.06-.01.05-.01.06v.06h-.2zM8.2 4.66l-.07-.01h-.07L8 4.64l-.07-.01-.07-.02-.06-.01-.06-.03-.07-.02-.06-.03-.06-.03-.05-.03-.06-.04-.05-.03-.05-.04-.05-.05-.05-.04-.04-.05-.05-.05-.04-.05-.04-.05L7.04 4l-.03-.05-.03-.06-.03-.06-.02-.06-.03-.07-.02-.06-.01-.07-.01-.06-.01-.07-.01-.07V3.3h.2v.06l.01.06.01.06.01.05.01.06.01.05.02.06.02.05.03.05.02.05.03.05.03.05.03.04.04.05.03.04.04.04.04.04.04.03.05.04.04.03.05.03.05.03.05.02.05.03.05.02.06.01.05.02.06.01.06.01.06.01.05.01h.06v.2z" class="fil1"/></g><g><path d="M31.92 4.7c.7 0 1.26-.56 1.26-1.26 0-.69-.56-1.25-1.26-1.25s-1.26.56-1.26 1.25c0 .7.56 1.26 1.26 1.26z" class="fil0"/><path id="1" d="M33.28 3.44v.07l-.01.07-.01.07-.01.07-.01.06-.02.07-.02.06-.03.06-.02.06-.03.06-.04.06-.03.05-.04.05-.04.06-.04.04-.05.05-.05.05-.05.04-.05.04-.05.04-.06.03-.05.03-.06.03-.06.03-.06.03-.07.02-.06.02-.07.01-.06.01-.07.01-.07.01h-.07v-.2h.06l.06-.01.06-.01.05-.01.06-.01.05-.01.06-.02.05-.02.05-.03.05-.02.05-.03.05-.03.04-.03.05-.04.04-.03.04-.04.04-.04.04-.04.03-.05.03-.04.03-.05.03-.05.03-.05.02-.05.02-.05.02-.05.01-.06.02-.05.01-.06.01-.06v-.12h.2zm-1.36-1.35h.14l.07.01.06.01.07.02.06.02.07.02.06.02.06.03.06.03.05.03.06.04.05.04.05.04.05.04.05.04.05.05.04.05.04.05.04.05.03.06.04.06.03.05.02.07.03.06.02.06.02.06.01.07.01.07.01.06.01.07v.07h-.2v-.12l-.01-.05-.01-.06-.02-.06-.01-.05-.02-.05-.02-.06-.02-.05-.03-.05-.03-.05-.03-.04-.03-.05-.03-.04-.04-.04-.04-.04-.04-.04-.04-.04-.05-.03-.04-.04-.05-.03-.05-.02-.05-.03-.05-.02-.05-.02-.06-.02-.05-.02-.06-.01-.05-.01-.06-.01h-.12v-.2zm-1.36 1.35V3.3l.01-.06.01-.07.02-.07.02-.06.02-.06.02-.06.03-.07.03-.05.03-.06.04-.06.04-.05.04-.05.04-.05.05-.05.04-.04.05-.04.05-.04.06-.04.05-.04.06-.03.06-.03.06-.03.06-.02.06-.02.07-.02.06-.02.07-.01.07-.01h.14v.2h-.12l-.06.01-.06.01-.05.01-.06.02-.05.02-.05.02-.06.02-.05.03-.04.02-.05.03-.05.04-.04.03-.04.04-.04.04-.04.04-.04.04-.03.04-.04.05-.03.04-.02.05-.03.05-.02.05-.02.06-.02.05-.02.05-.01.06-.01.06-.01.05v.12h-.2zm1.36 1.36h-.07l-.07-.01-.07-.01-.07-.01-.06-.01-.07-.02-.06-.02-.06-.03-.06-.03-.06-.03-.06-.03-.05-.03-.06-.04-.05-.04-.05-.04-.04-.05-.05-.05-.04-.04-.04-.06-.04-.05-.04-.05-.03-.06-.03-.06-.03-.06-.02-.06-.02-.06-.02-.07-.02-.06-.01-.07-.01-.07v-.14h.2v.12l.01.06.01.06.01.05.02.06.02.05.02.05.02.05.03.05.02.05.03.05.04.04.03.05.04.04.04.04.04.04.04.03.04.04.05.03.05.03.04.03.05.02.06.03.05.02.05.02.06.01.05.01.06.01.06.01.06.01h.06v.2z" class="fil1"/></g><g><path d="M32.21 38.5c.7 0 1.27-.56 1.27-1.25 0-.7-.57-1.26-1.27-1.26-.69 0-1.26.56-1.26 1.26 0 .69.57 1.25 1.26 1.25z" class="fil0"/><path id="1" d="M33.58 37.25v.07l-.01.06-.01.07-.01.07-.02.06-.01.07-.03.06-.02.06-.03.06-.03.06-.03.06-.04.05-.03.06-.04.05-.05.05-.04.05-.05.04-.05.04-.05.04-.05.04-.06.04-.06.03-.05.03-.06.03-.07.02-.06.02-.07.02-.06.01-.07.02h-.07l-.07.01h-.07v-.2h.12l.06-.01.06-.01.06-.01.05-.02.05-.02.06-.02.05-.02.05-.03.05-.03.04-.03.05-.03.04-.03.05-.04.04-.04.04-.04.03-.04.04-.04.03-.05.03-.04.03-.05.02-.05.03-.05.02-.06.01-.05.02-.05.01-.06.01-.06.01-.06.01-.05v-.06h.2zm-1.37-1.36h.07l.07.01.07.01.07.01.06.01.07.02.06.02.07.03.06.02.05.03.06.04.06.03.05.04.05.04.05.04.05.05.04.04.05.05.04.05.03.06.04.05.03.06.03.06.03.06.02.06.03.06.01.07.02.06.01.07.01.07.01.07v.07h-.2v-.06l-.01-.06-.01-.06-.01-.06-.01-.05-.02-.06-.01-.05-.02-.05-.03-.06-.02-.04-.03-.05-.03-.05-.03-.05-.04-.04-.03-.04-.04-.04-.04-.04-.05-.04-.04-.03-.05-.03-.04-.03-.05-.03-.05-.03-.05-.02-.06-.02-.05-.02-.05-.01-.06-.02-.06-.01h-.06l-.06-.01h-.06v-.2zm-1.36 1.36v-.07l.01-.07.01-.07.01-.07.02-.06.01-.07.03-.06.02-.06.03-.06.03-.06.03-.06.04-.05.03-.06.04-.05.05-.05.04-.04.05-.05.05-.04.05-.04.05-.04.06-.03.06-.04.05-.03.06-.02.07-.03.06-.02.07-.02.06-.01.07-.01.07-.01.06-.01h.07v.2h-.06l-.05.01h-.06l-.06.01-.06.02-.05.01-.06.02-.05.02-.05.02-.05.03-.05.03-.05.03-.04.03-.04.03-.05.04-.04.04-.04.04-.03.04-.04.04-.03.05-.03.05-.03.05-.02.04-.03.06-.02.05-.02.05-.01.06-.01.05-.01.06-.01.06-.01.06v.06h-.2zm1.36 1.35h-.07l-.06-.01h-.07l-.07-.02-.06-.01-.07-.02-.06-.02-.07-.02-.06-.03-.05-.03-.06-.03-.06-.04-.05-.04-.05-.04-.05-.04-.05-.04-.04-.05-.05-.05-.04-.05-.03-.06-.04-.05-.03-.06-.03-.06-.03-.06-.02-.06-.03-.06-.01-.07-.02-.06-.01-.07-.01-.07-.01-.06v-.07h.2v.06l.01.05.01.06.01.06.01.06.01.05.02.05.02.06.03.05.02.05.03.05.03.04.03.05.04.04.03.04.04.04.04.04.05.04.04.03.04.03.05.03.05.03.05.03.05.02.05.02.06.02.05.02.06.01.06.01.06.01h.11v.2z" class="fil1"/></g><g><path d="M8.5 38.64c.7 0 1.26-.56 1.26-1.25 0-.7-.56-1.26-1.26-1.26s-1.26.56-1.26 1.26c0 .69.56 1.25 1.26 1.25z" class="fil0"/><path id="1" d="M9.86 37.39v.14l-.01.06-.02.07-.01.07-.02.06-.02.06-.02.07-.03.06-.03.06-.04.05-.03.06-.04.05-.04.05-.04.05-.05.05-.04.04-.05.04-.05.04-.06.04-.05.04-.06.03-.06.03-.06.03-.06.02-.07.02-.06.02-.07.02-.06.01-.07.01H8.5v-.2h.12l.06-.01.05-.01.06-.01.06-.02.05-.02.05-.02.05-.02.05-.03.05-.02.05-.03.05-.04.04-.03.04-.04.04-.03.04-.04.04-.05.03-.04.03-.05.03-.04.03-.05.03-.05.02-.05.02-.05.02-.06.02-.05.01-.06.01-.06.01-.05v-.12h.2zM8.5 36.03h.07l.07.01.07.01.06.01.07.02.06.01.07.02.06.03.06.03.06.03.06.03.05.03.06.04.05.04.05.04.04.05.05.05.04.05.04.05.04.05.03.05.04.06.03.06.03.06.02.06.02.06.02.07.01.06.02.07.01.07v.14h-.2v-.12l-.01-.06-.01-.05-.01-.06-.02-.06-.02-.05-.02-.05-.02-.05-.03-.05-.03-.05-.03-.05-.03-.04-.03-.05-.04-.04-.04-.04-.04-.04-.04-.03-.04-.04-.05-.03-.05-.03-.05-.03-.05-.02-.05-.03-.05-.02-.05-.02-.06-.01-.06-.01-.05-.01-.06-.01-.06-.01H8.5v-.2zm-1.36 1.36v-.07l.01-.07v-.07l.02-.07.01-.06.02-.07.02-.06.03-.06.02-.06.03-.06.04-.06.03-.05.04-.05.04-.05.04-.05.05-.05.04-.05.05-.04.06-.04.05-.04.05-.03.06-.03.06-.03.06-.03.06-.03.07-.02.06-.01.07-.02.06-.01.07-.01.07-.01h.07v.2h-.06l-.06.01-.06.01-.05.01-.06.01-.06.01-.05.02-.05.02-.05.03-.05.02-.05.03-.05.03-.04.03-.05.04-.04.03-.04.04-.04.04-.04.04-.03.05-.03.04-.03.05-.03.05-.03.05-.02.05-.02.05-.02.05-.02.06-.01.06-.01.05-.01.06v.12h-.2zm1.36 1.35h-.14l-.07-.01-.06-.01-.07-.02-.06-.02-.07-.02-.06-.02-.06-.03-.06-.03-.06-.03-.05-.04-.05-.04-.06-.04-.05-.04-.04-.04-.05-.05-.04-.05-.04-.05-.04-.05-.03-.06-.04-.05-.03-.06-.02-.06-.03-.07-.02-.06-.02-.06-.01-.07-.02-.07v-.06l-.01-.07v-.07h.2v.12l.01.05.01.06.01.06.02.05.02.06.02.05.02.05.03.05.03.05.03.04.03.05.03.04.04.05.04.04.04.03.04.04.05.03.04.04.05.03.05.02.05.03.05.02.05.02.05.02.06.02.06.01.05.01.06.01h.12v.2z" class="fil1"/></g></g></g></svg>