<svg xmlns="http://www.w3.org/2000/svg" width="93" height="68" fill-rule="evenodd" clip-rule="evenodd" image-rendering="optimizeQuality" shape-rendering="geometricPrecision" text-rendering="geometricPrecision" viewBox="0 0 12.4 9.09"><defs><style>.fil3{fill:#c5e3d7}.fil0{fill:#6fa691}.fil2{fill:#99cfba}.fil1{fill:#2b2a29;fill-rule:nonzero}</style></defs><g id="Слой_x0020_1"><g id="_838540192"><path d="M.42 6.8c1.59.24 2 .16 2.12-.09-.06-1.04-.07-2.18-.39-2.79l-.19.01.04.29h-.18l-.05-.29h-.41l-.02.28H.98l-.01-.3-.27.02C.49 4.9.39 6.32.42 6.8z" class="fil0"/><path id="1" d="M2.52 6.71h.04v.01l-.01.03-.02.02-.01.02-.02.02-.03.02-.02.02-.03.02-.03.01-.03.02-.04.01-.04.01-.04.01-.04.01-.05.01-.06.01h-.12l-.06.01h-.07l-.08-.01H1.59l-.09-.01-.09-.01H1.3l-.1-.01-.12-.02-.12-.01-.12-.02-.14-.01-.14-.02-.14-.03v-.04l.15.02.14.02.13.02.13.01.12.02.11.01.11.01.1.01.1.01h.09l.08.01H2.03l.06-.01.05-.01h.05l.04-.01.04-.01.04-.01.03-.01.03-.02.03-.01.02-.02.03-.01.02-.02.01-.02.02-.02.01-.02.01-.02v.01zm.04 0v.01-.01zm-.41-2.76V3.9l.02.01.03.06.03.07.02.06.03.07.02.07.02.07.02.08.02.07.02.08.01.09.02.08.01.08.01.09.01.09.01.09.01.09.01.09.01.1.01.09.01.1v.1l.01.09.01.1v.1l.01.1v.1l.01.1v.1l.01.09v.1l.01.1v.1h-.04l-.01-.1v-.09l-.01-.1v-.1l-.01-.1v-.1l-.01-.1v-.1l-.01-.1-.01-.09v-.1l-.01-.1-.01-.09v-.1l-.01-.09-.01-.09-.01-.09-.01-.09-.01-.09-.01-.09-.02-.08-.01-.09-.02-.08-.01-.08-.02-.07-.02-.08-.02-.07-.02-.07-.03-.06-.02-.07-.03-.06-.03-.06.02.02zm0-.05h.01l.01.01-.02-.01zm-.2.01l.2-.01v.05l-.19.01-.03-.02.02-.03zm-.02.03v-.03h.02l-.02.03zm.05.28l-.05-.28.05-.01.04.29-.02.02-.02-.02zm.04 0l.01.02H2l.02-.02zm-.2-.02H2v.04l-.18.01-.03-.02.03-.03zm0 .05H1.8l-.01-.02.03.02zm-.02-.32l.04.29-.05.01-.04-.3.02-.02.03.02zm-.03-.02h.02l.01.02-.03-.02zm-.41-.01l.41.01v.04h-.41l-.02-.03.02-.02zm-.02.02V3.9h.02l-.02.02zm-.02.29l.02-.29.05.01-.02.29-.03.02-.02-.03zm.05.01v.02h-.03l.03-.02zm-.39-.03h.37l-.01.05-.36-.01-.03-.02.03-.02zm0 .04H.95v-.02l.03.02zM1 3.91v.3H.95v-.3l.02-.02.03.02zm-.03-.02H1v.02l-.03-.02zm-.27.02l.27-.02.01.04-.28.03-.02-.03.02-.02zm-.02.02v-.02H.7l-.02.02zM.42 6.78v.04L.4 6.8v-.05L.39 6.7v-.19l.01-.07V6.2l.01-.09v-.08l.01-.1v-.09l.01-.1.01-.1.01-.1.01-.1.01-.1.01-.1.01-.11.01-.1.01-.11.01-.1.02-.1.01-.11.02-.1.02-.1.01-.1.02-.1.02-.1.02-.09.02-.09.04.01-.02.09-.02.09-.02.1-.01.1-.02.1-.02.1-.01.1-.02.1-.01.11-.01.1-.02.1-.01.11-.01.1-.01.11-.01.1-.01.1-.01.1v.1l-.01.09-.01.1v.09l-.01.09v.08l-.01.09v.51l-.02-.02zm0 .04H.4V6.8l.02.02z" class="fil1"/><path d="M.44 5.49c.21 0 .38.47.38 1.06L.81 8.04c0 .21-.79-.08-.79-.27l.04-1.22c.02-.58.17-1.06.38-1.06z" class="fil2"/><path id="1" d="M.84 6.55H.8v-.11l-.01-.05v-.1l-.01-.05v-.05l-.01-.05-.01-.05-.01-.04v-.04l-.01-.05-.01-.04-.02-.04-.01-.04-.01-.03-.01-.04-.02-.03-.01-.03-.02-.03-.01-.02-.02-.03-.01-.02-.02-.02-.01-.02-.02-.02-.02-.01-.01-.01-.02-.01H.47l-.01-.01H.44v-.04h.05l.02.01.02.01.02.01.02.02.02.02.02.02.01.02.02.03.02.02.01.03.02.03.01.03.02.04.01.03.01.04.02.04.01.04.01.04.01.05.01.04.01.05v.04l.01.05.01.05v.05l.01.05V6.55zM.79 8.04L.8 6.55h.04L.83 8.04H.79zM0 7.77h.04l.01.01v.02l.01.02.01.01.02.02.02.02.02.02.03.01.02.02.03.02.03.02.04.02.03.01.04.02.03.01.04.01.04.02.03.01.04.01.03.01H.6l.03.01h.1l.02-.01h.01l.01-.01.01-.01.01-.02h.04v.03l-.01.02-.02.02-.02.01-.02.01H.74l-.03.01H.65l-.03-.01H.59l-.04-.01-.03-.01-.04-.01-.04-.01-.03-.01-.04-.02-.04-.01-.04-.02-.03-.01L.22 8l-.03-.02-.03-.02-.03-.02-.03-.02-.02-.02-.02-.02-.02-.02-.02-.02-.01-.02L0 7.79v-.02zm.08-1.22L.04 7.77H0l.04-1.22h.04zm.36-1.08v.04H.42l-.01.01H.39l-.01.01-.02.01-.02.01-.01.02-.02.02-.01.02-.02.02-.01.02-.02.03-.01.03-.01.03-.02.03-.01.04-.01.03-.01.04-.01.04-.01.04-.01.05-.01.04-.01.04-.01.05-.01.05v.05l-.01.05v.05l-.01.05v.11l-.01.05H.04v-.11l.01-.05v-.06l.01-.05v-.05l.01-.05.01-.05v-.04l.01-.05L.1 6l.01-.05.01-.04.01-.04.02-.04.01-.04.01-.03.01-.04.02-.03.01-.03.02-.03.01-.02.02-.03.02-.02.02-.02.01-.02.02-.01.02-.02.02-.01.03-.01h.04z" class="fil1"/><path d="M3 2.22h1.9c.11 0 .86.03 1.69-.1 1.29-.19 2.84-.16 2.86 0l.27 1.82-1.48 3.85c-.09.26.51 1 .24 1l-3.81-.04c-.28 0-2.29-3.16-2.28-3.43l.1-2.8c.01-.27.23-.3.51-.3z" class="fil0"/><path id="1" d="M4.9 2.24H3V2.2h1.9v.04zm1.69-.14l.01.04-.08.01-.08.01-.08.01-.07.01-.08.01-.07.01h-.07l-.08.01-.07.01h-.07l-.06.01h-.13l-.07.01H5.26l-.04.01H5l-.03-.01H4.9V2.2H5.47l.06-.01h.12l.07-.01h.13l.07-.01h.07l.07-.01.07-.01h.08l.07-.01.08-.01.08-.01.07-.01.08-.01zm2.88.02l-.04.01v-.01l-.01-.01-.03-.01-.02-.01-.04-.01-.05-.01-.05-.01-.06-.01-.07-.01-.07-.01h-.07l-.09-.01h-.09l-.09-.01h-.63l-.12.01h-.12l-.12.01-.12.01-.12.01-.13.01-.12.01-.12.01-.13.01-.12.02-.12.01-.12.02-.01-.04.12-.02.13-.02.12-.01.12-.02.13-.01.12-.01.12-.01.13-.01h.12l.12-.01.12-.01H8.17l.11-.01H8.49l.11.01h.19l.09.01h.08l.08.01.07.01h.07l.06.01.05.01.05.01.04.02.03.01.03.02.02.01.01.03zm.23 1.83l-.27-1.82.04-.01.28 1.82-.01.01H9.7zm.05-.01v.01h-.01l.01-.01zM8.22 7.78L9.7 3.93l.04.02L8.26 7.8l-.04-.02zm.26 1.03v-.05h.03l.01-.01v-.01l.01-.01V8.7l-.01-.03-.01-.03-.01-.03-.01-.03-.01-.03-.02-.04-.02-.04-.01-.04-.02-.04-.02-.04-.02-.04-.02-.04-.02-.04-.02-.04-.02-.05-.02-.04-.01-.04-.02-.04-.01-.04-.01-.03-.01-.04v-.1l.01-.03.04.02v.1l.01.04v.03l.02.04.01.04.01.04.02.04.02.04.02.04.02.04.02.04.02.04.02.04.02.05.02.03.01.04.02.04.01.04.02.03.01.03.01.03v.08l-.01.02-.01.02-.02.02-.02.01h-.03zm-3.81-.08l3.81.03v.05l-3.81-.04v-.04zM2.36 5.32h.05v.02l.02.05.03.06.03.08.05.09.05.1.06.12.07.12.08.13.08.13.08.14.09.15.09.15.1.15.1.16.1.15.1.16.1.15.1.15.1.14.1.14.09.13.09.13.09.12.08.1.08.1.07.09.07.07.05.05.05.05.04.02.02.01v.04l-.05-.01-.04-.03-.05-.04-.06-.06-.06-.07-.07-.09-.08-.1-.09-.11-.08-.11L4 8.02l-.1-.13-.1-.14-.1-.15-.1-.15-.1-.15-.1-.15-.1-.16-.1-.15-.09-.16-.1-.15-.09-.14-.08-.15-.08-.13-.08-.13-.07-.12-.06-.11-.05-.11-.05-.09-.04-.08-.02-.06-.02-.05-.01-.04zm.15-2.79l-.1 2.79h-.05l.11-2.8.04.01zM3 2.2v.04h-.08l-.02.01h-.1l-.02.01h-.04l-.02.01H2.7l-.01.01h-.02l-.02.01-.01.01-.02.01-.01.01-.02.01-.01.01-.01.01-.01.01-.01.01-.01.02v.01l-.01.02-.01.02v.02l-.01.02v.05l-.04-.01v-.07l.01-.02.01-.02v-.02l.01-.02.01-.02.02-.02.01-.01.01-.02.02-.01.01-.01.02-.01.02-.01.01-.01.02-.01.02-.01h.02l.02-.01h.02l.02-.01h.07l.03-.01H3z" class="fil1"/><path d="M4.25.18c.21.7.44 1.39.74 2.02.05.1 0 .17-.1.22-.75.15-1.4.05-2.07.03.23-.74.53-1.46.9-2.15.11-.21.41-.44.53-.12z" class="fil2"/><path id="1" d="M4.97 2.21l-.03-.06-.03-.06-.02-.06-.03-.06-.03-.06-.02-.06-.03-.06-.02-.06-.03-.07-.02-.06-.03-.06-.02-.06-.03-.07-.02-.06-.02-.06-.03-.07-.02-.06-.02-.06-.02-.07-.03-.06L4.45.9 4.43.84 4.41.78 4.39.71 4.37.65 4.35.58 4.33.51 4.31.45 4.29.38 4.27.32 4.25.25 4.23.19l.04-.02.02.07.02.06.02.07.02.07.02.06.02.07.02.06.02.07.02.06.02.07.03.06.02.06.02.07.02.06.02.07.03.06.02.06.02.07.03.06.02.06.02.06.03.07.02.06.03.06.02.06.03.06.03.06.02.06.03.06.03.06.02.06.03.06-.04.02zm0 0zm-.08.19l-.01.01.01-.01.01-.01h.01v-.01h.01l.01-.01.01-.01h.01v-.01h.01v-.01l.01-.01v-.01h.01V2.3l.01-.01v-.04l-.01-.01v-.02l-.01-.01.04-.02.01.01v.02l.01.01v.08l-.01.01v.02h-.01v.01L5 2.36v.01h-.01v.01l-.01.01-.01.01h-.01v.01h-.01l-.01.01-.01.01h-.01l-.01.01H4.9v.01l-.01-.05zm.01.04v.01-.01zm-2.06.01l-.02-.03.06.01h.13l.06.01h.13l.06.01h.06l.06.01h.13l.06.01h.19l.07.01h.38l.07-.01h.06l.07-.01h.07l.06-.01.07-.01h.07l.07-.01.07-.01.07-.02.01.05-.07.01-.07.01-.07.01-.07.01-.07.01h-.07l-.07.01h-.06l-.07.01H3.7l-.07-.01h-.12l-.07-.01h-.12l-.06-.01h-.13l-.06-.01h-.13l-.06-.01h-.07l-.02-.03.05.01zm-.03.02h-.02v-.03l.02.03zM3.74.31l-.03.07-.04.06-.03.07-.03.06-.04.07-.03.06-.03.07-.03.06-.03.07-.03.07-.03.06-.03.07-.03.06-.03.07-.03.07-.03.06-.03.07-.03.07-.02.07-.03.06-.03.07-.02.07-.03.07-.02.06-.03.07-.02.07-.03.07-.02.07-.03.07-.02.07-.02.06-.02.07-.05-.01.03-.07.02-.07.02-.07.03-.07.02-.07.02-.06.03-.07.02-.07.03-.07.02-.07.03-.07.03-.06.02-.07.03-.07.03-.07.03-.06.03-.07.03-.07.02-.06.03-.07.03-.07.03-.06.04-.07.03-.07.03-.06.03-.07.03-.06.04-.07.03-.06.03-.07.04-.06.03-.07.04.02zM3.7.29V.3.29zm.53-.1L4.22.16 4.21.14 4.19.12 4.18.1 4.17.08 4.15.07 4.14.06h-.02L4.11.05h-.02L4.08.04l-.02.01h-.03l-.02.01h-.02l-.02.01-.01.01-.02.01-.02.01-.02.02-.02.01-.01.02-.02.01-.02.02-.01.02-.02.02-.01.02-.02.02-.01.01-.01.02-.01.02L3.7.29l.01-.02.01-.02.02-.02.01-.02.02-.02.01-.02.02-.02.02-.02.02-.01.01-.02.02-.02.02-.01.02-.02.02-.01.02-.01.02-.01L4 .01h.02L4.04 0h.06l.02.01h.02l.02.01.02.02.02.01.02.02.01.02.02.02.01.03.01.03-.04.02zm.04-.02z" class="fil1"/><path d="M1.52 2.15C1.06 3.84.92 6.08.74 8.23c1.59.54 2.98.92 3.11.36-.07-2.36-.08-4.93-.39-6.31l-.2.02.04.65-.18.01-.04-.67-.41-.01-.02.66-.37-.02v-.67l-.4-.02-.11.7-.15-.02.06-.74-.16-.02z" class="fil2"/><path id="1" d="M.75 8.21l-.02.04-.01-.02.02-.2.01-.2.02-.21.01-.2.02-.2.02-.21.01-.2.02-.2.02-.2.02-.21L.9 6l.02-.2.02-.2.02-.19.02-.2.02-.2.02-.19.03-.19.02-.2.03-.18.02-.19.03-.19.03-.18.03-.18.03-.18.03-.18.03-.17.04-.18.04-.16.04-.17.04-.16.04-.16.04.01-.04.16-.04.16-.04.17-.04.16-.03.18-.04.17-.03.18-.03.17-.03.19-.03.18-.02.18-.03.19-.02.19-.03.19-.02.19-.02.2-.02.19-.02.2-.02.2-.02.2-.02.2-.02.2-.02.2-.01.2-.02.2-.02.21-.01.2-.02.2-.02.21-.01.2-.02.2-.02.2-.01-.02zm-.02.04H.72v-.02l.01.02zm3.09.34h.05v.01l-.02.05-.02.05-.03.04-.04.04-.05.03-.05.02-.06.02-.06.02-.07.01-.08.01h-.16l-.09-.01-.1-.01-.1-.01-.1-.01-.11-.02-.11-.03-.11-.02-.12-.03-.13-.03-.12-.03-.13-.04-.14-.03-.13-.04-.14-.05-.14-.04-.14-.04-.14-.05-.15-.05-.15-.05-.15-.05.02-.04.15.05.14.05.15.05.14.04.15.05.14.04.13.04.14.04.13.04.13.03.12.04.13.03.12.02.11.03.11.02.11.02.1.02.1.01.09.01h.32l.07-.01.06-.02.05-.02.05-.02.04-.03.03-.03.03-.03.02-.05.01-.04zm.05 0v.01-.01zM3.46 2.3l-.01-.04.03.01.03.14.02.14.03.14.02.16.03.16.02.16.02.17.01.17.02.18.02.19.01.19.01.19.02.2.01.2.01.2.01.21.01.21.01.21v.21l.01.22.01.22v.22l.01.22.01.22v.23l.01.22v.22l.01.23v.22l.01.23v.22l.01.22h-.05v-.22l-.01-.22v-.23L3.8 7.7v-.22l-.01-.23v-.22l-.01-.23-.01-.22v-.22l-.01-.22v-.22l-.01-.22-.01-.21-.01-.21-.01-.21-.01-.21-.01-.2-.01-.2-.01-.2-.01-.19-.02-.19-.01-.18-.02-.18-.02-.18-.02-.16-.02-.17-.02-.16-.03-.15-.02-.14-.03-.14-.03-.14.03.02zm-.01-.04h.02l.01.01-.03-.01zm-.19.02l.19-.02.01.04-.2.02-.02-.02.02-.02zm-.02.02v-.02h.02l-.02.02zm.04.65l-.04-.65h.04l.05.65-.03.03-.02-.03zm.05 0v.02l-.03.01.03-.03zm-.21-.02h.18v.05h-.18l-.02-.02.02-.03zm0 .05H3.1v-.02l.02.02zm-.02-.69l.04.67H3.1l-.05-.67.03-.02.02.02zm-.02-.02h.02v.02l-.02-.02zm-.41-.01l.41.01v.04h-.41l-.02-.03.02-.02zm-.02.02v-.02h.02l-.02.02zm-.02.66l.02-.66.04.01-.02.65-.02.02-.02-.02zm.04 0v.02h-.02l.02-.02zm-.39-.04l.37.02v.04l-.37-.01-.02-.03.02-.02zm0 .05h-.02v-.03l.02.03zm.02-.7v.67h-.04v-.67l.02-.02.02.02zm-.02-.02h.02v.02l-.02-.02zm-.4-.02l.4.02v.05l-.4-.03-.02-.02.02-.02zm-.02.02v-.02h.02l-.02.02zm-.11.69l.11-.69h.04l-.1.7-.03.02-.02-.03zm.05.01l-.01.02h-.02l.03-.02zm-.18-.04l.16.01-.01.05-.15-.02-.02-.02.02-.02zm0 .04h-.03l.01-.02.02.02zm.09-.76l-.07.74H1.6l.06-.74.03-.02.02.02zm-.02-.02h.02v.02l-.02-.02zm-.17-.02l.17.02-.01.04-.16-.01-.02-.03.02-.02zm-.02.02v-.02h.02l-.02.02z" class="fil1"/><path d="M8.15.44c-.14.59-.3 1.15-.51 1.68-.03.08 0 .13.07.18.51.12.96.04 1.42.02-.16-.61-.37-1.21-.62-1.78-.08-.17-.28-.36-.36-.1z" class="fil2"/><path id="1" d="M7.66 2.13l-.04-.02.02-.05.02-.05.02-.05.02-.05.01-.05.02-.05.02-.05.02-.05.01-.05.02-.05.02-.05.01-.06.02-.05.02-.05.01-.05.02-.06.01-.05.02-.05.01-.05.02-.06.01-.05.02-.05L8 .92l.02-.05.01-.05.01-.06.02-.05.01-.06.02-.05.01-.06.01-.05.02-.05.04.01-.01.05-.02.06-.01.05-.01.05-.02.06-.01.05-.02.06-.01.05-.01.05-.02.06-.01.05L8 1.1l-.01.05-.02.05-.01.05-.02.06-.01.05-.02.05-.02.05-.01.06-.02.05-.02.05-.01.05-.02.05-.02.05-.02.06-.01.05-.02.05-.02.05-.02.05-.02.05-.02.05zm0 0zm.05.15l-.01.04h-.01l-.01-.01-.01-.01-.01-.01-.01-.01-.01-.01v-.01h-.01v-.01l-.01-.01v-.01l-.01-.01V2.12h.01v-.01l.04.02v.01l-.01.01v.05h.01v.02l.01.01v.01h.01v.01h.01v.01h.01v.01h.01v.01h.01-.01zm-.01.04zm1.41.01l.04-.01-.02.02-.04.01h-.13l-.05.01h-.08l-.05.01h-.12l-.05.01h-.13l-.04.01h-.27l-.04-.01h-.09l-.05-.01h-.05l-.04-.01-.05-.01-.05-.01-.05-.01-.05-.01.01-.04.05.01.05.01.05.01.04.01h.05l.04.01h.05l.04.01H8.57l.04-.01h.09l.04-.01h.08l.05-.01H9l.04-.01h.09l-.02.03zm.04-.01l.01.02h-.03l.02-.02zM8.49.55l.04-.02.02.06.03.05.02.06.02.05.03.05.02.06.02.05.02.06.02.05.02.06.02.05.02.06.02.05.02.06.02.05.02.06.02.05.02.06.02.06.02.05.02.06.02.05.01.06.02.06.02.05.01.06.02.06.02.06.01.05.02.06.01.06.02.06-.04.01-.02-.06-.01-.06-.02-.06-.02-.05-.01-.06-.02-.06-.02-.05-.01-.06-.02-.06-.02-.05-.02-.06-.01-.05-.02-.06-.02-.06-.02-.05-.02-.06-.02-.05-.02-.06-.02-.05-.02-.06-.02-.05-.02-.06-.02-.05-.02-.06-.02-.05-.02-.06L8.6.82 8.58.77 8.56.71 8.54.66 8.51.61 8.49.55zm.04-.02zM8.17.45L8.13.44V.41l.01-.02.01-.02.01-.02.02-.02.01-.01.01-.01.02-.01.01-.01h.08l.02.01.01.01.02.01h.01l.01.02.02.01.01.01.01.01.02.02.01.01.01.02.01.01.01.02.02.02.01.01V.5l.01.02.01.01-.04.02-.01-.01-.01-.02V.5L8.46.49 8.45.47 8.44.46 8.43.44 8.41.43 8.4.42 8.39.4 8.38.39 8.37.38 8.36.37 8.34.36 8.33.35h-.01L8.31.34H8.3L8.29.33h-.03l-.01.01h-.01l-.01.01h-.01l-.01.01-.01.02-.01.01-.01.02v.02l-.01.02zM8.13.44V.43v.01z" class="fil1"/><path d="M9.73 8.38c1.59.24 2.14-.41 2.27-.66-.07-1.04-.26-3.18-.57-3.79l-.2.01.04.29h-.18l-.04-.29h-.41l-.02.28h-.37v-.3l-.28.02c-.21.97-.27 3.96-.24 4.44z" class="fil0"/><path id="1" d="M11.97 7.72h.05v.01l-.02.03-.01.02-.02.03-.02.03-.03.04-.02.03-.03.03-.04.04-.04.03-.04.04-.04.03-.05.04-.05.03-.06.04-.06.03-.06.03-.07.03-.08.03-.08.03-.08.03-.09.02-.09.02-.09.01-.11.02-.1.01h-.12l-.12.01h-.12l-.13-.01-.13-.01-.15-.01-.14-.02v-.05l.15.02.14.02.13.01h.37l.11-.01.11-.01.1-.01.09-.02.09-.02.09-.02.08-.02.08-.03.07-.03.07-.03.06-.03.06-.03.05-.03.05-.04.05-.03.04-.04.04-.03.04-.03.03-.04.03-.03.03-.03.02-.03.02-.03.02-.03.01-.03.02-.02-.01.01zm.05 0v.01-.01zm-.59-3.76l-.01-.05.03.01.02.07.03.07.03.08.03.08.03.09.02.1.03.11.02.11.02.12.03.12.02.12.02.13.02.13.02.14.02.13.02.14.02.14.01.14.02.14.01.14.02.14.01.14.02.14.01.13.01.13.01.13.01.13.01.12.01.12.01.11v.11l.01.1h-.05v-.1l-.01-.11-.01-.11v-.11l-.01-.13-.01-.12-.01-.13-.02-.13-.01-.14-.01-.14-.02-.13-.01-.14-.02-.14-.01-.14-.02-.14-.02-.14-.01-.14-.02-.14-.02-.13-.02-.13-.02-.13-.03-.12-.02-.12-.02-.12-.03-.11-.02-.1-.03-.1-.02-.1-.03-.08-.03-.08-.03-.07-.02-.06.02.02zm-.01-.05h.02l.01.01-.03-.01zm-.19.01l.19-.01.01.05-.2.01-.02-.02.02-.03zm-.02.03l-.01-.03h.03l-.02.03zm.04.28l-.04-.28.04-.01.04.29-.02.02-.02-.02zm.04 0l.01.02h-.03l.02-.02zm-.2-.02h.18v.04h-.18l-.02-.01.02-.03zm0 .04h-.02v-.01l.02.01zm-.02-.31l.04.29-.04.01-.05-.3.03-.02.02.02zm-.02-.02h.02v.02l-.02-.02zm-.41-.01l.41.01v.04h-.41l-.02-.03.02-.02zm-.02.02v-.02h.02l-.02.02zm-.02.29l.02-.29.04.01-.02.29-.02.02-.02-.03zm.04.01v.02h-.02l.02-.02zm-.39-.03h.37v.05l-.37-.01-.02-.02.02-.02zm0 .04h-.02v-.02l.02.02zm.02-.32v.3h-.04v-.3l.02-.02.02.02zm-.02-.02h.02v.02l-.02-.02zm-.28.02l.28-.02v.04l-.28.03-.02-.03.02-.02zm-.02.02v-.02h.02l-.02.02zm-.22 4.42v.05l-.02-.02v-.06l-.01-.06v-.65l.01-.14v-.3l.01-.16v-.17l.01-.16v-.17l.01-.18.01-.17v-.18l.01-.17.01-.18.01-.17.01-.17.02-.17.01-.16.01-.15.02-.15.01-.15.02-.13.01-.13.02-.12.02-.11.02-.09.04.01-.02.09-.01.11-.02.12-.02.12-.01.14-.02.14-.01.15-.02.16-.01.16-.01.16-.01.17-.01.17-.01.18-.01.17-.01.18-.01.17v.18l-.01.17v.17l-.01.16v.16l-.01.15v1.05l-.02-.02zm0 .05l-.02-.01v-.01l.02.02z" class="fil1"/><path d="M10.71 2.32c.47 1.69.6 3.93.78 6.08-1.14.35-2.16.45-3.1.36.06-2.36.07-4.93.39-6.31l.2.02-.05.65.19.01.04-.67h.41l.02.65.36-.02.01-.67.4-.02.1.7.16-.02-.07-.74.16-.02z" class="fil2"/><path id="1" d="M11.49 8.38l-.02.02-.01-.2-.02-.2-.02-.2-.01-.21-.02-.2-.02-.2-.01-.21-.02-.2-.02-.2-.02-.2-.01-.2-.02-.2-.02-.2-.02-.2-.02-.2-.02-.19-.02-.2-.03-.19-.02-.19-.02-.19-.03-.19-.03-.18-.03-.18-.03-.19-.03-.17-.03-.18-.03-.17-.04-.18-.04-.16-.03-.17-.05-.16-.04-.16.05-.01.04.16.04.16.04.17.04.16.03.18.04.17.03.18.03.18.03.18.03.18.02.19.03.19.02.18.03.2.02.19.02.19.02.2.02.2.02.19.02.2.02.2.02.2.02.21.01.2.02.2.02.2.01.21.02.2.02.2.01.21.02.2.02.2-.02.02-.01-.04zm.03.02v.02h-.02l.02-.02zm-3.11.36l-.02-.02.09.01h.09l.09.01h.09l.09.01h.36l.1-.01h.18l.1-.01.09-.01.1-.01.1-.01.09-.01.1-.01.1-.01.1-.02.1-.02.1-.01.1-.02.1-.02.1-.03.1-.02.1-.02.11-.03.1-.03.11-.03.1-.03.11-.03.01.04-.11.04-.1.03-.11.03-.1.02-.11.03-.1.03-.1.02-.1.02-.11.02-.1.02-.1.02-.1.02-.1.01-.09.01-.1.02-.1.01-.1.01-.09.01h-.1l-.09.01-.1.01H8.75l-.09-.01h-.09l-.09-.01h-.09l-.02-.03h.04zm-.02.03l-.02-.01v-.02l.02.03zm.39-6.32l.02-.02-.03.14-.02.14-.03.14-.02.15-.03.16-.02.17-.02.16-.01.18-.02.18-.02.18-.01.19-.01.19-.02.2-.01.2-.01.2-.01.21-.01.21-.01.21v.21l-.01.22-.01.22v.22l-.01.22v.22l-.01.23-.01.22v.23l-.01.22v.22l-.01.23v.22l-.01.22h-.04v-.22l.01-.22v-.23l.01-.22v-.23l.01-.22V7.2l.01-.23.01-.22v-.22l.01-.22v-.22l.01-.22.01-.21.01-.21.01-.21.01-.21.01-.2.01-.2.01-.2.01-.19.02-.19.01-.19.02-.18.02-.17.02-.17.02-.16.02-.16.03-.16.02-.14.03-.14.03-.14.02-.01v.04zm-.02-.03v-.01h.02l-.02.01zm.22.01l.02.02-.03.02-.19-.02v-.04l.2.02zm0 0H9v.02l-.02-.02zm-.03.67l-.02.03-.02-.03.04-.65H9l-.05.65zm-.02.03l-.02-.01v-.02l.02.03zm.19-.05l.02.03-.02.02h-.19V3.1h.19zm.02.03v.02h-.02l.02-.02zm0-.67l.02-.02.02.02-.04.67h-.05l.05-.67zm0 0v-.02h.02l-.02.02zm.43-.03l.02.02-.02.03h-.41v-.04l.41-.01zm0 0h.02v.02l-.02-.02zm.04.68l-.02.02-.03-.02-.02-.65.05-.01.02.66zm-.02.02h-.02l-.01-.02.03.02zm.36-.06l.03.02-.02.03-.37.01v-.04l.36-.02zm.03.02v.03h-.02l.02-.03zm-.04-.67l.02-.02.02.02v.67h-.05l.01-.67zm0 0V2.4h.02l-.02.02zm.42-.04l.02.02-.02.02-.4.03V2.4l.4-.02zm0 0h.02v.02l-.02-.02zm.12.71l-.02.03-.02-.02-.1-.7h.04l.1.69zm-.02.03h-.02V3.1l.02.02zm.15-.06l.03.02-.02.02-.16.02v-.05l.15-.01zm.03.02v.02h-.02l.02-.02zm-.11-.74l.02-.02.02.02.07.74h-.05l-.06-.74zm0 0v-.02h.02l-.02.02zm.18-.04l.03.02-.02.03-.17.01v-.04l.16-.02zm0 0h.02l.01.02-.03-.02z" class="fil1"/><path d="M5.26 2.2h1.91c.27 0 .49.22.5.5l.06 2.58c.01.28-.22.5-.5.5h-1.9c-.28 0-.64-.35-.64-.62l.06-2.66c.01-.27.24-.3.51-.3z" class="fil2"/><path id="1" d="M7.17 2.22H5.26v-.04h1.91v.04zm.52.48h-.05v-.07l-.01-.03v-.02l-.01-.02-.01-.02-.01-.03-.01-.02-.01-.02-.01-.02-.01-.02-.01-.02-.02-.01-.01-.02-.02-.02-.02-.01-.01-.02-.02-.01-.02-.02-.02-.01-.02-.01-.02-.01-.02-.01-.02-.01-.02-.01h-.02l-.03-.01h-.02l-.02-.01h-.05v-.04h.08l.02.01h.03l.02.01.03.01.02.01.02.01.02.01.03.01.02.02.02.01.02.02.01.01.02.02.02.02.02.02.01.02.02.02.01.02.01.02.01.02.01.03.01.02.01.02.01.03.01.02v.06l.01.02v.03zm.02 2.58L7.64 2.7h.05l.07 2.58h-.05zm-.48.52v-.04h.05l.03-.01h.02l.02-.01h.03l.02-.01.02-.01.02-.01.02-.01.02-.01.02-.01.02-.02.02-.01.02-.02.01-.01.02-.02.01-.01.02-.02.01-.02.01-.02.02-.02.01-.02.01-.02v-.02l.01-.03.01-.02v-.02l.01-.02v-.08h.05v.03l-.01.03v.05l-.01.02-.01.03v.02l-.01.02-.01.03-.01.02-.02.02-.01.02-.02.02-.01.02-.02.02-.02.02-.01.02-.02.01-.02.02-.02.01-.02.02-.03.01-.02.01-.02.01-.03.01-.02.01-.03.01h-.02l-.03.01h-.08zm-1.9-.04h1.9v.04h-1.9v-.04zm-.66-.61l.05.01v.07l.01.02.01.03.01.03.01.02.01.03.02.02.01.03.02.03.02.02.02.02.02.03.02.02.02.03.03.02.02.02.02.02.03.02.02.02.03.01.03.02.02.01.03.02.03.01.02.01h.03l.02.01.03.01h.05v.04h-.06l-.03-.01h-.02l-.03-.01-.03-.01-.03-.01-.03-.02-.03-.01-.02-.02-.03-.02-.03-.02-.02-.02-.03-.02-.02-.02-.03-.02-.02-.03-.03-.02-.02-.03-.02-.02-.02-.03-.02-.03-.01-.02-.02-.03-.01-.03-.01-.03-.01-.02-.01-.03-.01-.03-.01-.03v-.06zm.11-2.65l-.06 2.66-.05-.01.06-2.65h.05zm.48-.32v.04h-.1l-.02.01H5.05l-.02.01h-.02l-.02.01h-.02l-.02.01h-.02l-.01.01-.02.01-.01.01h-.02l-.01.01-.01.01-.01.02-.01.01-.01.01-.01.02-.01.01-.01.02v.02l-.01.02v.06h-.05v-.02l.01-.03v-.02l.01-.02v-.03l.01-.02.01-.01.01-.02.01-.02.01-.01.02-.02.01-.01.02-.01.01-.01.02-.01.02-.01.02-.01.02-.01h.02l.02-.01H5l.02-.01h.05l.02-.01h.17z" class="fil1"/><g><path d="M3.14 8.87l.34-4.91.92.05.06.78.57-.01.05-.85h.76l-.03.77.68-.03v-.78l.78-.03.08.82.65-.04-.07-.78.72-.04 1.06 4.91c-.42.22-.89.37-1.54.31L8 7.43c-.46-1.77-2.83-1.51-3.04-.31l-.02 1.95c-.99 0-1.56-.01-1.8-.2z" class="fil3"/><path id="1" d="M3.51 3.96l-.35 4.91h-.05l.35-4.91.03-.02.02.02zm-.05 0v-.02h.03l-.03.02zm.94.08l-.92-.06.01-.04.92.05.02.02-.03.03zm.01-.05h.02v.02l-.02-.02zm.02.81l-.05-.79h.05l.05.78-.02.03-.03-.02zm.03.02h-.03V4.8l.03.02zm.57-.02l-.57.02v-.05l.57-.02.02.03-.02.02zm.02-.02v.02h-.02l.02-.02zm.05-.85l-.05.85h-.04l.05-.86.02-.02.02.03zm-.04-.01V3.9h.02l-.02.02zm.78.03h-.76V3.9h.76l.03.03-.03.02zm0-.05h.03v.03l-.03-.03zm-.05.8l.03-.77h.05l-.04.77-.02.02-.02-.02zm.02.02h-.02V4.7l.02.02zm.68-.03l-.68.03v-.04l.68-.03.02.02-.02.02zm.02-.02v.02h-.02l.02-.02zm0-.78v.78h-.05v-.78l.03-.02.02.02zm-.05 0v-.02h.03l-.03.02zm.81-.01l-.78.03v-.04l.78-.04.02.02-.02.03zm0-.05h.02v.02l-.02-.02zm.05.85l-.08-.82.05-.01.08.83-.02.02-.03-.02zm.03.02h-.03v-.02l.03.02zM8 4.66l-.65.04-.01-.04.65-.04.03.02-.02.02zm.02-.02v.02H8l.02-.02zm-.07-.79l.07.79h-.05l-.07-.78.03-.03.02.02zm-.05.01v-.02l.03-.01-.03.03zm.76-.02l-.73.04v-.05l.72-.03.03.02-.02.02zm-.01-.04h.02l.01.02-.03-.02zm1.04 4.94L8.63 3.83l.05-.01 1.06 4.91-.02.02-.03-.01zm.05-.01v.01l-.02.01.02-.02zm-1.59.32l.04-.01-.02-.02.06.01h.18l.05.01.06-.01h.11l.05-.01h.05l.05-.01h.05L8.88 9l.05-.01.05-.01.04-.01.05-.01.04-.01.05-.02.04-.01.05-.02.04-.01.04-.02.05-.01.04-.02.04-.02.04-.01.04-.02.04-.02.04-.02.04-.02.04-.02.02.04-.04.02-.04.02-.04.02-.04.02-.04.02-.04.02-.04.01-.05.02-.04.02-.04.01-.05.02-.04.01-.05.02-.04.01-.05.01-.05.01-.05.01-.04.01-.05.01-.05.01-.05.01h-.06l-.05.01h-.05l-.06.01h-.28l-.06-.01h-.06l-.02-.02zm.02.02h-.02v-.02l.02.02zm-.15-1.64l.17 1.61-.04.01-.18-1.62h.05zm0 0zm-3.04-.31h-.04v-.01L4.96 7 5 6.9l.05-.1.06-.1.07-.08.08-.08.09-.08.1-.06.1-.06.1-.06.12-.04.12-.04.12-.02.12-.02.13-.02h.12l.13.01.13.01.13.03.12.03.13.04.12.05.12.07.11.07.11.08.1.1.09.1.09.12.08.13.07.13.06.15.05.17-.05.01-.04-.16-.06-.15L7.8 7l-.08-.13-.08-.11-.09-.1-.1-.09-.11-.08-.11-.07-.11-.07L7 6.3l-.12-.04-.12-.03-.13-.02-.12-.02h-.25l-.12.01-.13.02-.11.03-.12.03-.11.05-.1.05-.1.05-.09.07-.09.07-.07.08-.07.08-.06.09-.05.09-.03.11-.03.1zm-.04 0v-.01.01zm-.02 1.95l.02-1.95h.04l-.01 1.95-.03.02-.02-.02zm.05 0v.02h-.03l.03-.02zm-1.86-.2h.05l-.01-.02.02.02.03.01.02.02.03.01.03.02.04.01.03.01.04.01.04.01.04.01.04.01.05.01h.04l.05.01h.06l.05.01h.06l.05.01h.07l.06.01h.27l.08.01h.59v.04h-.81l-.07-.01h-.13l-.06-.01h-.06l-.05-.01H3.7l-.05-.01H3.6l-.05-.01-.05-.01-.04-.01-.04-.01L3.38 9l-.04-.01-.04-.01-.03-.01-.04-.02-.03-.01-.02-.02-.03-.01-.03-.02-.01-.02zm.01.02l-.01-.01v-.01l.01.02z" class="fil1"/></g><g><path d="M1.53 6.07c.39 0 .73.47.72 1.06l-.03 1.49c0 .2-1.5-.08-1.49-.27l.08-1.22c.03-.59.32-1.06.72-1.06z" class="fil3"/><path id="1" d="M2.27 7.13l-.05-.01V6.97l-.01-.06v-.05l-.01-.05-.02-.04-.01-.05-.01-.05-.02-.04-.01-.05-.02-.04-.02-.04-.02-.04-.03-.04-.02-.03L2 6.35l-.03-.03-.03-.03-.02-.03-.03-.02-.03-.03-.03-.02-.03-.02-.04-.02-.03-.02-.03-.01-.03-.01-.04-.01-.03-.01h-.07v-.05h.04l.03.01.04.01.04.01.04.01.03.01.04.02.03.02.03.02.04.03.03.02.03.03.03.03.03.03.02.04.03.03.02.04.03.04.02.04.02.04.02.05.01.04.02.05.02.05.01.05.01.05.01.05.01.05v.05l.01.06v.11zM2.2 8.62l.02-1.5.05.01-.02 1.49H2.2zM.71 8.35h.05v.01l.01.01.01.02.03.01.03.02.04.02.04.02.05.02.05.02.06.01.06.02.07.02.06.02.07.01.07.02.07.01.07.01.07.01.06.01.07.01.07.01h.06l.05.01h.11l.04-.01h.04l.03-.01.03-.01.01-.01h.01v-.01h.05l-.01.03-.02.02-.02.01-.03.02h-.04l-.04.01h-.22l-.06-.01h-.06l-.07-.01-.07-.01-.07-.01-.07-.02-.07-.01-.07-.02-.07-.01-.07-.02-.06-.01-.06-.02-.06-.02-.06-.02L.9 8.5l-.04-.02-.04-.02-.04-.02-.03-.02-.02-.02-.01-.03-.01-.02zm.12-1.22L.76 8.35H.71l.07-1.23.05.01zm.7-1.09v.05h-.07l-.04.01-.03.01-.03.01-.03.01-.04.02-.03.02-.03.02-.02.02-.03.03-.03.02-.03.03-.02.03-.03.03-.02.04-.02.03-.02.04-.02.04-.02.04-.02.04-.02.05-.02.04-.01.05-.01.05-.02.05-.01.05-.01.05v.05l-.01.05-.01.05v.06l-.05-.01.01-.05v-.06l.01-.05.01-.05.01-.05.01-.05.01-.05.02-.05.01-.05.02-.05.02-.04.01-.05.02-.04.03-.04.02-.04.02-.04.03-.03.02-.04.03-.03.03-.03.03-.03.03-.02.03-.03.03-.02.03-.02.04-.02.03-.01.04-.01.03-.01.04-.01.04-.01h.04z" class="fil1"/></g><g><path d="M6.12.31c-.26.71-.56 1.41-.92 2.05-.05.09-.01.16.08.22.74.15 1.4.05 2.08.03-.17-.76-.41-1.48-.72-2.18-.09-.22-.37-.45-.52-.12z" class="fil3"/><path id="1" d="M5.22 2.37l-.04-.02.04-.06.03-.06.03-.07.04-.06.03-.06.03-.06.03-.06.03-.06.03-.07.03-.06.03-.06.03-.07.03-.06.03-.06.03-.07.03-.06.03-.06.02-.07.03-.06.03-.07.03-.06.02-.07.03-.07.03-.06.02-.07.03-.06.02-.07L6 .56 6.03.5l.02-.07.03-.07L6.1.3l.04.01-.02.07-.03.07-.02.06-.03.07-.02.07-.03.06-.03.07-.02.07-.03.06-.02.07-.03.06-.03.07-.03.06-.02.07-.03.06-.03.07-.03.06-.03.07-.03.06-.03.06-.03.07-.03.06-.03.06-.03.07-.03.06-.03.06-.03.06-.03.06-.04.07-.03.06-.03.06-.04.06zm0 0zm.07.19l-.01.05-.01-.01h-.01l-.01-.01v-.01h-.01l-.01-.01h-.01v-.01l-.01-.01H5.2v-.01l-.01-.01-.01-.01-.01-.01v-.02l-.01-.01v-.09l.01-.01v-.01l.01-.01v-.01l.04.02v.01h-.01v.03H5.2v.05l.01.01v.02h.01v.01h.01v.01l.01.01.01.01.01.01h.01v.01h.01l.01.01.01.01-.01-.01zm-.01.05l-.01-.01.01.01zm2.06 0l.04-.01-.02.03h-.13l-.06.01h-.06l-.07.01h-.12l-.07.01h-.12l-.07.01h-.12l-.07.01H5.89l-.07-.01h-.06l-.07-.01h-.07l-.07-.01-.06-.01-.07-.01-.07-.01-.07-.01.01-.05.07.01.06.02.07.01h.07l.07.01.06.01h.07l.07.01h.06l.07.01h.38l.07-.01h.19l.06-.01h.13l.06-.01h.06l.07-.01h.12l.07-.01h.12l.07-.01-.02.03zm.04-.01l.01.03h-.03l.02-.03zM6.62.44l.04-.02.03.07.03.06.03.07.03.06.02.07.03.07.03.06.02.07.03.07.02.07.03.06.02.07.02.07.03.07.02.06.02.07.03.07.02.07.02.07.02.07.02.06.02.07.02.07.02.07.02.07.02.07.02.07.01.07.02.07.02.07.01.07.02.07-.04.01-.02-.07-.02-.07-.01-.07-.02-.07-.02-.07-.02-.07-.01-.07-.02-.07-.02-.07-.02-.06-.02-.07-.02-.07-.02-.07-.03-.07-.02-.07-.02-.06-.02-.07-.02-.07-.03-.07-.02-.06-.03-.07-.02-.07-.03-.07-.02-.06L6.81.9 6.79.83 6.76.77 6.73.7 6.71.64 6.68.57 6.65.5 6.62.44zm.04-.02V.41v.01zM6.14.31L6.1.3l.02-.03.01-.03.02-.02.02-.03.02-.01.01-.02.02-.01.02-.01.03-.01h.02l.02-.01h.02l.02.01h.02l.02.01.02.01.02.01.02.01.02.01.02.01.02.02.02.01.01.02.02.02.02.02.01.02.02.02.01.02.01.02.01.02.01.02.01.02-.04.02-.01-.02L6.6.4 6.59.38 6.58.36 6.57.34 6.56.32 6.54.31 6.53.29 6.51.27 6.49.26 6.48.24 6.46.23 6.45.22 6.43.2h-.02L6.39.19 6.38.18 6.36.17h-.08l-.02.01-.01.01-.02.01-.01.01-.02.01-.01.02-.02.02-.01.03-.02.02zM6.1.3z" class="fil1"/></g><g><path d="M3.53 5.66c-.02 0-.04-.02-.04-.04-.01-.02.01-.04.03-.04 1.13-.05 2.05-.09 2.79-.13 1.45-.06 2.25-.1 2.68-.1.02 0 .04.02.04.04s-.02.04-.04.04c-.43 0-1.23.04-2.67.1-.75.04-1.67.08-2.79.13zM3.43 6.34c-.02 0-.04-.02-.04-.04s.02-.04.04-.04c1.62-.12 2.83-.19 3.73-.23.9-.04 1.47-.05 1.82-.02.02 0 .04.02.04.04s-.02.04-.04.04c-.35-.03-.92-.02-1.82.02-.89.04-2.1.11-3.73.23zM3.61 4.9c-.02 0-.04-.01-.04-.03 0-.03.01-.05.03-.05 1.23-.07 2.18-.12 2.91-.16 1.22-.06 1.86-.09 2.24-.14.02 0 .04.01.04.03 0 .02-.01.04-.03.05-.39.05-1.02.08-2.25.14-.73.04-1.67.09-2.9.16zM3.46 7.15c-.03 0-.05-.01-.05-.03 0-.03.01-.05.04-.05.15-.02.35-.04.61-.05.24-.02.51-.03.83-.04.02 0 .04.02.04.04s-.02.04-.04.04c-.31.01-.59.02-.82.03-.26.02-.46.04-.61.06zM3.45 7.85c-.02 0-.04-.01-.04-.03-.01-.02 0-.04.03-.05.21-.05.55-.08 1.04-.14.13-.01.26-.03.41-.05.03 0 .05.02.05.04s-.01.04-.04.04c-.14.02-.28.03-.41.05-.49.05-.83.09-1.04.14zM3.46 8.4c-.02 0-.05-.01-.05-.03-.01-.02.01-.05.03-.05.21-.05.55-.09 1.04-.14.13-.01.26-.03.42-.05.02 0 .04.02.04.04s-.01.04-.03.04l-.42.05c-.49.05-.82.09-1.03.14zM9.46 8.14c.02 0 .04.02.03.05 0 .02-.02.03-.04.03-.11-.02-.4-.03-.68-.05-.28-.01-.55-.02-.67-.01-.02 0-.04-.02-.04-.04s.02-.04.04-.04c.12-.01.4 0 .67.01.29.02.58.04.69.05zM9.39 7.49c.02.01.03.03.03.05 0 .02-.02.03-.04.03-.11-.01-.4-.03-.69-.05-.27-.01-.54-.02-.66-.01-.02 0-.04-.02-.04-.04s.01-.04.04-.04c.12-.01.39 0 .67.02.29.01.58.03.69.04zM9.19 6.76c.02 0 .04.02.04.04s-.02.04-.04.04c-.13-.01-.35-.01-.58 0-.35 0-.73.02-.88.02-.02 0-.04-.01-.04-.04 0-.02.01-.04.04-.04.14 0 .52-.02.88-.02.23-.01.45-.01.58 0z" class="fil1"/><path d="M4.98 5.52c0 .02-.02.04-.04.04s-.04-.02-.04-.04v-.36c0-.12-.01-.25-.01-.37 0-.02.01-.04.04-.04.02 0 .04.01.04.04 0 .12.01.24.01.37v.36zM4.16 6.25c0 .03-.02.04-.04.04s-.04-.02-.04-.04v-.32c0-.11-.01-.22-.01-.34 0-.02.01-.04.04-.04.02 0 .04.02.04.04 0 .11.01.23.01.34v.32zM6.57 5.42c0 .03-.02.04-.04.04s-.04-.02-.04-.04V5.1c-.01-.11-.01-.22-.02-.34 0-.02.02-.04.04-.04s.04.02.04.04c.01.11.01.23.02.34v.32zM8.04 5.36c0 .03-.02.04-.04.04s-.04-.02-.04-.04v-.32c0-.11-.01-.22-.01-.33 0-.03.01-.05.04-.05.02 0 .04.02.04.04 0 .11.01.23.01.34v.32zM8.11 6.77c0 .02-.02.04-.04.04s-.04-.02-.04-.04c.01-.1 0-.21 0-.32 0-.11-.01-.23-.01-.34 0-.02.02-.04.04-.04s.04.02.04.04c0 .11.01.22.01.33v.33zM7.43 6.02c0 .02-.02.04-.04.03-.02 0-.04-.01-.04-.04 0-.17-.01-.31-.02-.5v-.03c0-.02.02-.04.04-.04s.04.02.04.04v.03c.01.19.02.33.02.51zM5.68 6.15c0 .02-.02.04-.04.04-.03 0-.04-.02-.04-.04v-.3c-.01-.1-.01-.2-.02-.31 0-.02.02-.04.04-.04s.04.02.04.04c.01.1.01.21.01.31.01.1.01.21.01.3zM4.77 6.96c0 .02-.02.03-.04.03-.03 0-.04-.01-.04-.04 0-.12-.01-.28-.03-.44 0-.09-.01-.17-.01-.25 0-.02.01-.04.04-.04.02 0 .04.01.04.04 0 .07.01.15.01.24.02.16.03.33.03.46zM8.49 7.44c0 .03-.02.04-.04.04s-.04-.02-.04-.04c.01-.09.01-.18.02-.27 0-.11.01-.22.01-.32 0-.02.02-.04.04-.04s.04.02.04.04c0 .1-.01.21-.02.33 0 .09-.01.18-.01.26zM8.79 8.78c0 .02-.02.04-.05.03-.02 0-.03-.02-.03-.04.01-.08.02-.18.04-.27.01-.11.03-.22.04-.32 0-.02.02-.04.04-.04.03.01.04.03.04.05-.01.1-.03.21-.04.32-.02.09-.03.18-.04.27zM4.81 8.18c0 .02-.02.03-.04.03s-.04-.02-.04-.04l.01-.09c.02-.14.04-.27.03-.4-.01-.02.01-.04.03-.04.02 0 .04.01.04.03.02.14 0 .27-.02.42l-.01.09z" class="fil1"/></g><g><path d="M2.78 4.79c0 .02-.02.04-.04.03-.03 0-.04-.02-.04-.04.01-.09.02-.32.02-.54.01-.24 0-.48 0-.56-.01-.02.01-.04.03-.04.02-.01.04.01.05.03 0 .08.01.32 0 .57 0 .23-.01.46-.02.55zM2.78 7.13c0 .02-.02.04-.04.03-.02 0-.04-.02-.03-.04.01-.09.01-.32.02-.54 0-.24 0-.48-.01-.56 0-.02.02-.04.04-.05.02 0 .04.02.04.04.01.08.01.32.01.57-.01.23-.01.46-.03.55zM1.71 5.91c0 .02-.01.04-.04.04-.02 0-.04-.01-.04-.04 0-.09 0-.32.02-.55.01-.24.02-.48.04-.56 0-.02.02-.04.04-.04.02.01.04.03.03.05-.01.08-.02.32-.04.56-.01.22-.01.45-.01.54z" class="fil1"/><path d="M1.29 3.55c-.02-.01-.03-.03-.02-.05.01-.02.03-.03.05-.02.14.07.47.1.83.12.62.02 1.36-.02 1.45-.03.02-.01.04 0 .05.03 0 .02-.01.04-.03.04-.1.02-.84.06-1.47.04-.38-.02-.71-.05-.86-.13zM1.69 4.76c-.02 0-.04-.02-.03-.04 0-.03.02-.04.05-.04.17.04.39.06.61.07.32.02.63.02.77.01.02 0 .04.02.04.04s-.02.04-.04.04c-.14.01-.45.01-.78-.01-.22-.01-.45-.03-.62-.07zM1.44 5.94c-.02 0-.03-.03-.03-.05.01-.02.03-.03.05-.03.17.04.39.06.61.07.32.02.64.01.77.01.02 0 .04.01.04.03 0 .03-.01.04-.04.05-.13 0-.45 0-.77-.01-.22-.02-.45-.04-.63-.07zM2.29 7.14c-.02-.01-.04-.03-.04-.05.01-.02.03-.04.05-.03.06 0 .16.01.26.01.11.01.22.01.34.01.02 0 .04.01.04.03 0 .03-.02.04-.04.05-.12 0-.24 0-.34-.01-.11 0-.2-.01-.27-.01z" class="fil1"/></g><g><path d="M11.96 5.54c-.21 0-.39.47-.38 1.06l.01 1.49c0 .2.79-.08.79-.27l-.04-1.22c-.02-.59-.17-1.06-.38-1.06z" class="fil2"/><path id="1" d="M11.56 6.6V6.38l.01-.05v-.05l.01-.05v-.05l.01-.05.01-.04.01-.05.01-.04.01-.04.01-.05.01-.03.02-.04.01-.04.02-.03.01-.03.02-.03.01-.03.02-.03.02-.02.01-.03.02-.02.02-.01.02-.02.02-.01.02-.01.02-.01.03-.01h.02v.05h-.03l-.02.01-.02.01-.01.01-.02.01-.02.02-.01.01-.02.02-.01.03-.02.02-.01.03-.02.03-.01.03-.02.03-.01.03-.01.04-.01.04-.02.04-.01.04-.01.04v.04l-.01.05-.01.05-.01.04v.05l-.01.05v.11l-.01.05v.11h-.04zm.05 1.49h-.04l-.01-1.49h.04l.01 1.49zm.79-.27v.02l-.01.02-.01.02-.02.03-.02.02-.02.02-.02.02-.03.02-.03.02-.03.02-.03.01-.04.02-.03.02-.04.01-.04.02-.04.01-.03.02-.04.01-.04.01-.03.01h-.04l-.03.01h-.12l-.02-.01-.02-.01-.02-.01-.02-.02-.01-.02v-.02h.04l.01.01v.01l.01.01h.01l.01.01h.02l.02.01h.05l.03-.01h.03l.04-.01.03-.01.04-.01.03-.01.04-.01.04-.01.03-.02.04-.01.03-.02.03-.02.04-.01.03-.02.02-.02.03-.02.02-.02.02-.01.02-.02.01-.02.01-.02v-.02h.05zm-.08-1.22l.04-.01.04 1.23h-.05l-.03-1.22zm-.36-1.09h.02l.02.01.03.01.02.01.02.01.02.02.01.01.02.02.02.03.02.02.01.03.02.03.01.03.02.03.01.03.01.04.01.04.02.04.01.04.01.04.01.04.01.05.01.04v.05l.01.05.01.05v.05l.01.05v.05l.01.06v.1l-.04.01-.01-.06v-.1l-.01-.06v-.05l-.01-.05v-.05l-.01-.04-.01-.05-.01-.05-.01-.04-.01-.04-.01-.04-.01-.04-.01-.04-.01-.04-.01-.03-.02-.03-.01-.03-.01-.03-.02-.03-.01-.02-.02-.03-.01-.02-.02-.01-.01-.02-.02-.01-.02-.01-.01-.01-.02-.01h-.03v-.05z" class="fil1"/></g><g><path d="M10.73 6.09c-.37 0-.67.48-.66 1.06l.02 1.49c0 .21 1.37-.08 1.36-.27l-.07-1.22c-.03-.58-.29-1.06-.65-1.06z" class="fil3"/><path id="1" d="M10.05 7.15v-.16l.01-.06.01-.05v-.05l.01-.05.02-.05.01-.04.01-.05.02-.05.02-.04.02-.04.02-.04.02-.04.02-.04.02-.04.03-.03.02-.03.03-.03.03-.03.03-.03.03-.02.03-.02.03-.02.03-.02.03-.02.04-.01.03-.01.04-.01h.07v.04h-.04l-.03.01h-.03l-.03.01-.03.01-.03.02-.03.01-.03.02-.03.02-.02.03-.03.02-.03.03-.02.03-.03.03-.02.03-.02.03-.02.04-.02.04-.02.04-.02.04-.02.04-.01.04-.02.05-.01.04-.01.05-.01.05-.01.05-.01.05v.05l-.01.05v.11h-.04zm.06 1.49l-.04.01-.02-1.5h.04l.02 1.49zm1.36-.27v.03l-.02.02-.02.02-.02.03-.03.02-.04.02-.04.02-.05.02-.05.01-.05.02-.06.02-.06.02-.06.01-.06.02-.07.02-.06.01-.06.01-.07.01-.06.01-.06.01-.06.01h-.06l-.05.01h-.1l-.04-.01h-.04l-.04-.01-.03-.01-.02-.02-.02-.02v-.02l.04-.01.01.01v.01l.02.01.02.01h.03l.03.01h.19l.05-.01h.06l.06-.01.06-.01.07-.01.06-.02.06-.01.07-.01.06-.02.06-.02.06-.01.05-.02.06-.02.04-.02.05-.02.04-.01.03-.02.03-.02.02-.02.02-.01.01-.02v-.01h.04zm-.11-1.22h.05l.06 1.22h-.04l-.07-1.22zm-.63-1.08h.07l.03.01.04.01.03.01.03.02.03.02.03.02.03.02.03.02.03.03.02.03.03.03.02.03.03.03.02.04.02.04.02.04.02.04.02.04.02.04.01.05.02.05.01.04.01.05.01.05.01.05.01.05.01.06.01.05v.05l.01.06h-.05V7.1l-.01-.05v-.06l-.01-.05-.01-.05-.01-.05-.01-.05-.01-.05-.02-.04-.01-.05-.02-.04-.01-.04-.02-.04-.02-.04-.02-.04-.02-.04-.02-.03-.02-.03-.03-.03-.02-.03-.03-.03-.02-.02-.03-.03-.02-.02-.03-.02-.03-.01-.03-.02-.03-.01-.03-.01h-.03l-.03-.01h-.03v-.04z" class="fil1"/></g><g><path d="M9.57 4.87c0 .02-.02.04-.05.03-.02 0-.03-.02-.03-.04.01-.09.02-.32.02-.54v-.56c-.01-.02.01-.04.03-.05.02 0 .04.02.04.04.01.08.01.32.01.57 0 .23-.01.46-.02.55zM10.65 5.96c0 .02-.02.04-.04.04-.02-.01-.04-.02-.03-.05 0-.09 0-.31-.01-.54-.01-.24-.03-.48-.04-.56 0-.02.01-.04.03-.04.03-.01.05.01.05.03.01.08.03.32.04.57.01.23.01.46 0 .55z" class="fil1"/><path d="M10.86 3.61c.02-.01.04.01.05.03 0 .02-.01.04-.03.04-.18.04-.41.06-.63.07-.32.02-.64.02-.77.01-.03 0-.04-.02-.04-.04s.02-.04.04-.04c.13.01.45.01.77-.01.22-.01.44-.03.61-.06zM10.82 4.75c.02-.01.04.01.05.03 0 .02-.01.04-.03.04-.18.04-.41.06-.63.07-.32.02-.64.02-.77.01-.03 0-.04-.02-.04-.04s.02-.04.04-.04c.13.01.45.01.77-.01.22-.01.44-.03.61-.06zM10.91 5.89c.02-.01.05.01.05.03 0 .02-.01.04-.03.04-.18.04-.4.06-.63.07-.32.02-.64.02-.77.01-.02 0-.04-.02-.04-.04s.02-.04.04-.04c.14.01.45.01.77-.01.22-.01.44-.03.61-.06z" class="fil1"/></g></g></g></svg>