<svg xmlns="http://www.w3.org/2000/svg" width="129" height="67" fill-rule="evenodd" clip-rule="evenodd" image-rendering="optimizeQuality" shape-rendering="geometricPrecision" text-rendering="geometricPrecision" viewBox="0 0 19.53 10.17"><defs><style>.fil2{fill:#f08bb2}.fil3{fill:#d8ece4}.fil0{fill:#99cfba}.fil1{fill:#2b2a29;fill-rule:nonzero}</style></defs><g id="Слой_x0020_1"><g id="_1410326640"><path d="M11.28 8.38c1.09-2.43 2.25-5.05 3.34-7.48 2.61-.31 1.53 1.5 4.87 1.88-1.05 2.45-2.09 4.9-3.14 7.36-3.27.14-2.69-1.77-5.07-1.76z" class="fil0"/><path id="1" d="M14.62.87l.01.05.02-.01-.11.23-.1.23-.1.23-.11.23-.1.23-.1.23-.11.24-.1.23-.11.24-.1.23-.11.24-.1.23-.11.24-.1.24-.11.23-.11.24-.1.24-.11.23-.1.24-.11.23-.1.24-.11.24-.1.23-.11.24-.1.23-.11.23-.1.24-.11.23-.1.23-.1.23-.1.23-.11.23-.04-.02.1-.23.1-.23.1-.23.11-.23.1-.23.11-.24.1-.23.1-.23.11-.24.1-.23.11-.24.11-.24.1-.23.11-.24.1-.24.11-.23.1-.24.11-.24.1-.23.11-.24.11-.23.1-.24.11-.24.1-.23.11-.23.1-.24.1-.23.11-.23.1-.23.1-.23.11-.23.1-.23.02-.02zm-.02.02l.01-.02h.01l-.02.02zm4.91 1.9l-.04-.02.02.03-.3-.03-.28-.05-.26-.06-.23-.06-.21-.07-.2-.07-.17-.08-.17-.08-.14-.08-.14-.09-.12-.08-.12-.09-.11-.09-.09-.09-.1-.09-.09-.09-.09-.09-.08-.08-.09-.08-.09-.07-.09-.07-.1-.07-.11-.05-.11-.06-.12-.04-.13-.04-.15-.03-.16-.02-.18-.01h-.19l-.21.01-.23.02-.01-.05.23-.02.22-.01h.2l.17.01.17.02.15.03.14.04.12.05.12.05.1.06.11.07.09.07.09.07.09.08.09.09.09.08.09.09.09.09.1.09.1.09.12.08.12.09.13.09.15.08.16.08.17.07.19.08.22.06.23.06.25.06.27.04.3.04.02.04zm-.02-.04l.04.01-.02.03-.02-.04zm-3.14 7.41v-.05l-.02.02.09-.23.1-.23.1-.23.1-.23.1-.23.09-.23.1-.23.1-.23.1-.23.1-.23.1-.23.09-.23.1-.23.1-.23.1-.23.1-.23.09-.23.1-.23.1-.23.1-.23.1-.23.1-.23.09-.23.1-.23.1-.23.1-.23.1-.23.09-.23.1-.23.1-.23.1-.23.1-.23.04.02-.09.23-.1.23-.1.23-.1.23-.1.23-.1.23-.09.23-.1.23-.1.23-.1.23-.1.23-.09.23-.1.23-.1.23-.1.23-.1.23-.09.23-.1.23-.1.23-.1.23-.1.23-.1.23-.09.23-.1.23-.1.23-.1.23-.1.23-.09.23-.1.23-.1.23-.1.23-.1.23-.02.01zm.02-.01v.01h-.02l.02-.01zm-5.11-1.78l.04.02-.02-.04.22.01.2.01.18.03.17.03.16.05.15.05.14.05.13.07.12.07.12.07.11.08.1.08.11.08.1.09.1.08.11.09.1.08.11.09.12.08.12.08.13.08.14.07.14.06.16.07.17.05.19.05.2.04.21.04.24.02.25.01.27.01.3-.01v.05l-.3.01h-.27l-.26-.02-.23-.02-.22-.04-.2-.04-.19-.05-.17-.05-.17-.07-.15-.07-.14-.07-.13-.08-.12-.08-.12-.08-.11-.09-.1-.08-.11-.09-.1-.08-.1-.09-.11-.08-.1-.08-.11-.08-.12-.07-.12-.07-.12-.06-.14-.06-.14-.05-.16-.04-.17-.03-.18-.03-.2-.01-.21-.01-.02-.03zm.02.03h-.04l.02-.03.02.03z" class="fil1"/><path d="M15.49 4.89c-.04 0 .05.01-.11.01s-.49.35-.64-.04c-.09-.27.23-.5.39-.55.3-.52-.06-.66-.31-.92-.24-.22-.32-.32-.32-.55 0-.27.2-.48.45-.48.24 0 .44.21.44.48 0 .13-.05.25-.13.33-.19.17-.03.38.19.59.73.27.73-.25 1.14-.31.57-.1.43.37.71.56.21.01.38.1.38.21 0 .12-.19.21-.42.21-.08 0-.14-.01-.2-.02-.07.03-.14.05-.22.05-.13 0-.24-.05-.33-.12-.15.05-.3.1-.46.16-.51.28.22.33.42.33.32 0 .58.11.58.25 0 .13-.26.24-.58.24-.04 0-.09-.01-.14-.01-.38.32.17.45.37.75.04.08-.04.36-.04.49 0 .25-.09.45-.2.45-.11 0-.2-.2-.2-.45V6.5c-.07.1-.16.17-.26.17-.21 0-.38-.25-.38-.57 0-.21.08-.39.19-.49-.33-.2-.15-.25-.02-.32 0-.41-.16-.39-.3-.4z" class="fil2"/><path d="M15.46 4.91c-.01-.02-.04-.04.03-.05l.04.01c.14.01.28.02.28.42v.02l-.04.02c-.05.02-.1.04-.12.07-.02.04.01.09.17.19l.03.02-.02.02c-.06.05-.1.11-.13.2-.03.08-.05.17-.05.27 0 .15.04.29.1.39.07.09.15.15.25.15.04 0 .09-.01.13-.04.04-.02.08-.06.11-.11l.05-.08V6.55c0 .12.02.23.05.31.03.07.08.11.12.11.05 0 .09-.04.12-.11.04-.08.06-.19.06-.31 0-.05.01-.12.02-.2.02-.11.04-.23.01-.28-.06-.09-.16-.17-.25-.24-.07-.05-.14-.11-.18-.16-.09-.11-.11-.23.08-.38l.01-.01h.01c.02.01.04.01.06.01h.07c.16 0 .3-.03.4-.07.1-.04.16-.09.16-.14 0-.06-.06-.11-.16-.15-.1-.04-.24-.07-.4-.07-.1 0-.33-.01-.48-.06-.05-.02-.09-.04-.12-.07-.02-.03-.03-.07-.01-.11.03-.04.08-.09.18-.14.08-.05.37-.13.48-.17l.01.01c.04.04.09.06.14.09.05.01.11.03.17.03.03 0 .07-.01.1-.02.04-.01.08-.02.11-.04h.02c.02.01.05.01.09.02h.1c.11 0 .21-.02.28-.05.07-.04.11-.08.11-.13 0-.04-.04-.08-.09-.12-.07-.03-.16-.06-.26-.06h-.01v-.01c-.11-.07-.16-.18-.2-.28-.08-.17-.15-.33-.49-.27-.14.02-.24.1-.33.18-.17.15-.35.3-.83.13v-.01h-.01c-.11-.11-.21-.21-.25-.32-.05-.11-.04-.21.06-.31.04-.04.07-.09.09-.14.02-.05.03-.11.03-.17 0-.13-.04-.24-.12-.32-.07-.08-.18-.13-.29-.13-.12 0-.22.05-.3.13-.07.08-.12.19-.12.32 0 .11.02.18.06.26.05.08.13.16.25.27.04.05.09.09.14.13.22.2.43.38.17.82v.01l-.01.01c-.09.03-.23.11-.32.23-.06.08-.09.18-.06.28.08.19.2.18.33.13.03-.01.07-.03.1-.04.07-.04.13-.07.19-.07.04 0 .11.07.08.04zm.04.01h-.12c-.04 0-.1.03-.17.06-.03.02-.07.04-.11.05-.14.06-.29.07-.39-.16v-.01c-.04-.12 0-.23.07-.32.09-.12.24-.21.34-.25.22-.4.03-.57-.17-.75-.05-.04-.1-.08-.15-.13-.12-.12-.2-.2-.25-.28-.05-.09-.07-.17-.07-.29 0-.14.05-.27.13-.36.09-.09.21-.14.34-.14.13 0 .24.05.33.14.08.09.13.22.13.36 0 .06-.01.13-.03.19-.02.06-.06.11-.1.16-.09.08-.09.16-.06.25.05.1.14.2.24.3.45.16.61.02.78-.12.1-.08.19-.17.35-.19.38-.07.46.11.54.3.05.09.09.19.18.26.11 0 .2.03.27.07.08.04.12.1.12.16 0 .07-.05.13-.14.17-.08.04-.19.07-.3.07-.04 0-.08-.01-.11-.01s-.06-.01-.09-.02c-.03.02-.07.03-.1.04-.04.01-.08.02-.12.02-.07 0-.13-.02-.19-.04-.05-.02-.1-.05-.14-.08l-.45.15c-.08.05-.13.09-.15.12-.01.02-.01.04 0 .06.02.02.05.03.1.05.14.05.36.06.46.06.17 0 .32.03.42.07.12.05.19.12.19.2 0 .07-.07.14-.19.19-.1.04-.25.07-.42.07h-.13c-.14.12-.13.21-.06.29.04.06.1.11.17.16.1.08.2.16.27.26.03.06.01.19-.01.31-.01.07-.02.14-.02.19 0 .13-.02.24-.06.33-.04.09-.1.14-.17.14-.06 0-.12-.05-.16-.14-.04-.08-.06-.19-.07-.3-.02.03-.05.05-.08.07-.05.03-.1.04-.15.04-.12 0-.22-.06-.29-.17-.07-.11-.11-.26-.11-.42 0-.11.02-.21.05-.29.03-.08.07-.15.12-.2-.17-.11-.2-.18-.16-.24.02-.04.08-.06.13-.09h.02c0-.35-.12-.36-.24-.36h-.02z" class="fil1"/><path d="M15.89 2.55c.13-.03.25.06.28.18.02.13-.09.42-.22.44-.13.03-.22-.22-.24-.35-.03-.12.05-.24.18-.27z" class="fil3"/><path d="M15.9 2.57h-.01c-.05.02-.1.05-.13.09-.03.05-.04.1-.03.16.02.07.05.18.11.26.03.04.06.07.1.07.06-.01.11-.09.15-.17.04-.09.06-.18.05-.24-.01-.06-.04-.11-.09-.13-.04-.03-.1-.05-.15-.04zm-.01-.05c.07-.01.14.01.19.04.06.04.1.1.11.17.01.07-.01.18-.05.27-.05.1-.11.18-.19.2-.06.01-.11-.03-.16-.09-.05-.08-.09-.2-.11-.28-.01-.07.01-.14.04-.19.04-.06.1-.1.17-.12z" class="fil1"/><path d="M12.22 2.08c.49.68.84.6 1.07-.21L12.48.35l-.14.03-.12 1.7z" class="fil3"/><path d="M12.24 2.08c.03.17.05.31.16.38.09.05.37.06.45.05.07-.01.34-.08.4-.16.08-.11.07-.28.01-.48L12.47.38l-.1.02-.13 1.68zm.34.41c-.12-.07-.25-.2-.38-.39l-.01-.01c.05-.58.09-1.16.13-1.73l.18-.04c.27.51.54 1.03.81 1.55v.01c-.06.23-.14.4-.22.51-.07.1-.15.15-.23.17-.09.02-.18-.01-.28-.07z" class="fil1"/><path fill="#6fa691" d="M12.56 2.01h.02v.02c.01.06.1.1.2.08.08-.02.15-.07.16-.12.02.05.1.08.2.06.09-.02.16-.08.15-.14l1.32 6.53-1.06.21-1.32-6.5c.03.04.11.06.19.04.1-.02.17-.08.16-.15-.01-.01-.01-.02-.02-.03zm.37-.07zm.35-.07h.01v.02c0-.01-.01-.01-.01-.02z"/><path d="M12.6 2.03c.01.02.03.04.06.05.03.01.07.01.11 0h.01c.03 0 .07-.02.09-.04.02-.02.04-.04.04-.06l.01-.01c-.01-.07.02-.05.03-.01l.01.02c.01.02.03.03.06.04.03.01.07.02.11.01.04-.01.08-.03.11-.05.06-.06 0-.14.07-.13l.11.53 1.22 6.08c-.37.07-.74.15-1.11.22-.45-2.21-.89-4.38-1.34-6.59l.06.04c.01.02.04.03.07.04.02.01.06.01.09 0 .05-.01.09-.03.11-.05.02-.03.04-.05.03-.07-.01-.06.04-.07.05-.02zm.04.09c-.02 0-.03-.01-.05-.02 0 .02-.02.04-.03.05-.03.03-.08.06-.14.07-.04.01-.08.01-.12 0-.01 0-.02-.01-.03-.01l1.3 6.41 1.01-.2L13.29 2c-.01 0-.01.01-.02.02-.03.02-.08.05-.13.06-.05.01-.1 0-.14-.01l-.06-.03c-.01.01-.02.03-.04.04-.03.03-.07.04-.11.05-.06.01-.11.01-.15-.01z" class="fil1"/><path d="M12.57 2.01h.01v.02c.01.06.1.1.2.08.08-.02.15-.07.16-.12l1.31 6.52-.35.07-1.33-6.57z" class="fil0"/><path d="M12.56 1.99s.03-.01.04.04c.01.02.03.04.06.05.03.01.07.01.11 0h.01c.03 0 .07-.02.09-.04.02-.02.04-.04.04-.06-.01-.07.04-.07.04-.05.43 2.17.89 4.4 1.33 6.6l-.4.08c-.44-2.17-.88-4.35-1.32-6.52-.01-.05-.03-.09 0-.1zm.08.13c-.01 0-.02 0-.02-.01l1.3 6.44.3-.06-1.29-6.43c-.01.01-.02.02-.03.02-.03.03-.07.04-.11.05-.06.01-.11.01-.15-.01z" class="fil1"/><path d="M12.35.03c.05-.01.1.02.11.08l.1.47c.01.05-.02.11-.08.12-.05.01-.11-.03-.12-.08l-.09-.47c-.01-.06.02-.11.08-.12z" class="fil2"/><path d="M12.35.05c-.02.01-.04.02-.05.03-.01.02-.01.04-.01.06l.1.47c0 .02.01.04.03.05.02.01.03.02.05.01h.01c.02 0 .03-.01.04-.03.01-.02.02-.04.02-.06l-.1-.47c0-.02-.02-.04-.03-.05-.02-.01-.04-.01-.06-.01zM12.34 0c.04 0 .07 0 .1.02.02.02.04.05.05.08l.1.47c0 .04-.01.07-.02.1-.02.02-.05.04-.08.05-.04.01-.07 0-.1-.02-.03-.01-.05-.04-.05-.08l-.1-.47c-.01-.03 0-.07.02-.09.02-.03.05-.05.08-.06z" class="fil1"/><path d="M12.71 9.84c.14.19.24.19.29-.08-.32-1.57-.69-3.17-1.18-4.85-.29.07-.58.13-.88.2.47 1.58 1.08 3.15 1.77 4.73z" class="fil2"/><path d="M12.73 9.82c.06.09.11.14.15.13.04-.01.07-.07.1-.19-.16-.78-.34-1.57-.53-2.38-.19-.8-.41-1.61-.65-2.44l-.83.19c.24.78.5 1.56.8 2.33.29.79.62 1.58.96 2.36zm.16.18c-.06.01-.13-.04-.2-.15h-.01c-.34-.79-.66-1.58-.96-2.37-.3-.79-.57-1.57-.8-2.36l-.01-.03.93-.21v.02c.25.84.46 1.66.66 2.47.19.81.37 1.6.53 2.38v.01c-.03.15-.08.23-.14.24z" class="fil1"/><path d="M10.97 5.26c.26.17.92-.11.85-.35l-.78-1.7c-.12.04-.24.07-.36.1l.29 1.95z" class="fil3"/><path d="M10.99 5.25c.1.05.25.04.4 0 .09-.02.17-.06.24-.1.06-.04.12-.09.15-.13.02-.04.02-.07.02-.1l-.77-1.68-.32.09.28 1.92zm.42.05c-.17.05-.35.06-.46-.01l-.01-.01c-.09-.66-.19-1.32-.29-1.99l.41-.11c.2.44.66 1.31.78 1.72.02.05.01.1-.02.14-.03.06-.09.11-.17.15-.07.05-.15.09-.24.11z" class="fil1"/><path fill="#2b2a29" d="M9.71.81c1.02.88-.63 2 1.25 2.7.87-.8-.25-2.52-1.25-2.7z"/><path d="M9.79.86c.38.37.33.77.27 1.17-.07.54-.14 1.06.89 1.45.16-.15.25-.33.28-.52.04-.25 0-.52-.11-.79-.1-.26-.27-.52-.47-.74-.25-.28-.56-.49-.86-.57zm.22 1.17c.06-.41.11-.83-.32-1.2L9.62.77l.09.02c.34.06.69.29.98.6.2.23.37.49.48.76.11.28.16.56.11.82-.03.21-.13.4-.3.56l-.01.01-.02-.01c-1.09-.4-1.01-.95-.94-1.5z" class="fil1"/><g id="_1410283504"><path fill="#c5e3d7" d="M8.63 3.37c-.38-.36-.76-.28-1.06-.07-.44.29-.83.85-1.38.44-.67-.5.04-1.28-.6-1.84-.76-.66-2.23.02-2.98.49C.45 3.77-.56 6.13.37 7.65c.93 1.53 3.44 1.65 5.61.27 2.17-1.37 3.67-3.34 2.65-4.55zM4.88 2.9c-.19-.31-.69-.34-1.11-.07-.42.28-.61.75-.42 1.06.19.31.69.34 1.11.07.42-.27.61-.75.42-1.06z"/><path id="1" d="M7.55 3.27l.03-.01.03-.02.03-.02.03-.02.03-.01.03-.02.04-.01.03-.01.03-.01.03-.01.04-.01.03-.01.03-.01H8.18l.03.01.04.01.03.01.04.01.04.01.03.02.04.02.04.02.03.02.04.03.04.03.03.03.04.03-.03.04-.04-.03-.03-.03-.04-.03-.03-.02-.04-.03-.03-.01-.04-.02-.03-.02-.04-.01-.03-.01-.04-.01-.03-.01-.03-.01h-.2l-.03.01-.03.01h-.03l-.03.01-.03.01-.04.02-.03.01-.03.01-.02.02-.03.01-.03.02-.03.02-.03.02-.03-.05zm-1.35.45l.05.03.05.03.05.03.05.02.04.01.05.01.04.01h.09l.04-.01h.04l.04-.02.05-.01.04-.02.04-.02.04-.02.04-.02.04-.03.04-.03.04-.02.04-.03.04-.04.04-.03.04-.03.04-.03.04-.04.04-.03.04-.03.04-.03.04-.04.04-.03.04-.03.03.05-.04.02-.04.03-.04.04-.04.03-.04.03-.04.03-.04.04-.04.03-.04.03-.04.03-.04.04-.04.03-.04.03-.04.02-.04.03-.05.03-.04.02-.04.02-.05.02-.04.01-.05.02h-.04l-.05.01h-.09l-.05-.01-.05-.01-.05-.01-.05-.03-.05-.02-.06-.03-.05-.04.03-.04zm-.59-1.84l.06.06.05.05.04.06.04.06.03.06.02.06.02.06.02.06.01.06v.06l.01.06v.25l-.01.06v.3l.01.06v.06l.02.05.01.06.02.05.03.05.03.06.03.05.04.05.05.04.06.05-.03.04-.06-.05-.05-.05-.05-.05-.04-.06-.03-.05-.03-.06-.02-.06-.01-.05-.02-.06v-.06l-.01-.06v-.31l.01-.06v-.24l-.01-.06v-.06l-.01-.06-.02-.06-.02-.06-.02-.05-.03-.06-.03-.05-.04-.05-.05-.06-.06-.05.04-.04zm-3.01.49l.07-.04.08-.05.08-.05.08-.04.09-.05.09-.05.09-.04.09-.05.1-.04.1-.05.1-.04.1-.04.1-.04.11-.03.1-.03.11-.03.1-.03.11-.02.1-.02.11-.01.1-.01.1-.01h.1l.1.01.1.01.09.02.09.02.09.03.09.04.08.04.08.05.08.06-.04.04-.07-.05-.07-.05-.08-.05-.09-.03-.08-.03-.09-.02L5 1.67l-.09-.01-.1-.01h-.1l-.1.01-.1.01-.1.01-.1.02-.11.02-.1.03-.1.03-.11.03-.1.03-.1.04-.1.04-.1.04-.1.04-.1.05-.09.04-.09.05-.09.05-.08.04-.09.05-.08.04-.07.05-.07.04-.03-.04zM.35 7.67l-.08-.15-.07-.15-.06-.16-.05-.16-.04-.16-.03-.17-.01-.17L0 6.38v-.17l.02-.18.02-.18.04-.17.04-.18.05-.18.07-.18.07-.18.08-.18.09-.18.1-.18.11-.17.11-.18.13-.17.13-.17.14-.17.15-.16.15-.16.17-.16.17-.15.18-.15.19-.14.19-.14.2-.13.03.04-.2.14-.19.13-.19.14-.18.15-.17.15-.16.16-.16.16-.14.16-.14.16-.13.17-.13.17-.11.17-.11.18-.1.17-.08.18-.09.18-.07.17-.06.18-.05.18-.04.18-.04.17-.02.18-.02.17v.17l.01.17.01.17.03.16.04.16.05.15.05.16.07.15.08.14-.04.03zm5.64.28l-.2.12-.21.12-.21.1-.21.1-.2.09-.21.09-.21.07-.21.06-.21.06-.21.04-.21.04-.2.03-.2.02-.2.01-.2.01-.19-.01-.19-.01-.19-.02-.18-.03-.17-.04-.17-.05-.17-.06-.16-.06-.16-.07-.14-.09-.15-.09-.13-.09-.13-.11-.11-.12-.12-.12-.1-.13-.09-.14.04-.03.09.14.1.13.11.12.12.11.12.11.13.09.14.09.15.08.15.07.16.07.16.05.17.05.17.04.18.03.19.02.18.01.19.01.2-.01.19-.01.2-.02.21-.03.2-.04.21-.04.2-.06.21-.06.21-.07.21-.08.2-.09.21-.1.21-.11.2-.11.21-.13.02.05zm2.66-4.6l.09.12.08.12.06.13.04.13.04.13.02.14v.28l-.02.14-.03.15-.04.15-.06.15-.06.15-.07.15-.09.15-.09.16-.1.15-.11.16-.12.15-.13.15-.14.16-.14.15-.15.15-.16.15-.17.15-.17.15-.18.14-.18.14-.19.14-.19.14-.2.13-.2.14-.02-.05.2-.13.19-.13.19-.14.19-.14.18-.14.18-.14.17-.15.16-.15.16-.15.15-.15.14-.15.14-.15.13-.15.11-.16.12-.15.1-.15.09-.15.08-.15.07-.15.07-.15.05-.15.04-.14.03-.14.01-.15.01-.13-.01-.14-.01-.13-.04-.13-.04-.12-.06-.12-.07-.12-.09-.12.01.01.03-.04zm0 0zm-4.89-.54l.04-.02.04-.03.04-.02.04-.02.04-.02.05-.01.04-.02.04-.01.04-.01.04-.01.04-.01h.04l.04-.01h.16l.04.01.04.01.03.01.04.01.03.01.03.01.04.02.03.01.03.02.02.03.03.02.03.02.02.03.02.03.02.03-.04.02-.02-.02-.02-.03-.02-.02-.02-.02-.03-.02-.02-.02-.03-.02-.03-.02-.03-.01-.03-.01-.03-.02-.03-.01h-.03l-.04-.01h-.03l-.04-.01H4.3l-.04.01h-.04l-.04.01-.04.01-.04.01-.04.01-.04.01-.04.02-.04.02-.04.02-.04.02-.03.02-.04.02-.03-.04zm-.43 1.1l-.02-.03-.01-.04-.01-.03-.01-.03-.01-.04-.01-.03v-.04l-.01-.03V3.6l.01-.04v-.03l.01-.04v-.04l.01-.04.02-.03.01-.04.02-.04.01-.03.02-.04.02-.04.03-.03.02-.04.03-.03.02-.04.03-.03.03-.03.04-.03.03-.03.03-.03.04-.03.04-.03.04-.03.03.04-.04.03-.04.03-.03.02-.04.03-.03.03-.03.03-.03.03-.03.04-.02.03-.03.03-.02.04-.02.03-.02.03-.02.04-.02.03-.01.04-.01.03-.02.04-.01.03v.04l-.01.03v.17l.01.03v.03l.01.03.02.03.01.03.02.03-.05.03zm1.14.07l-.04.03-.04.02-.04.02-.04.02-.04.02-.04.02-.05.01-.04.01-.04.01-.04.01-.04.01-.04.01h-.2l-.04-.01H3.7l-.03-.01-.04-.01-.03-.01-.03-.02-.03-.01-.04-.02-.02-.02-.03-.02-.03-.02-.02-.03-.03-.03-.02-.02-.02-.03.05-.03.01.03.02.02.02.03.03.02.02.02.02.02.03.01.03.02.03.02.03.01.03.01.03.01.04.01h.03l.04.01H3.97l.04-.01.04-.01h.04l.04-.02.04-.01.04-.01.04-.02.04-.01.04-.02.04-.02.04-.03.03-.02.03.04zm.43-1.09l.02.03.01.03.02.03.01.04v.03l.01.04v.03l.01.04v.03l-.01.04v.04l-.01.04v.03l-.01.04-.02.04-.01.03-.01.04-.02.04-.02.03-.02.04-.02.04-.03.03-.02.04-.03.03-.03.03-.03.04-.03.03-.04.03-.03.03-.04.03-.04.03-.04.02-.03-.04.04-.03.04-.02.03-.03.04-.03.03-.03.03-.03.03-.03.03-.03.03-.04.02-.03.02-.03.02-.04.02-.03.02-.04.02-.03.01-.03.02-.04.01-.03.01-.04V3.3l.01-.04v-.03l.01-.04v-.03l-.01-.03v-.04l-.01-.03v-.03L4.9 3l-.01-.03-.02-.03-.01-.03.04-.02z" class="fil1"/><path d="M7.71 4.51c-.19-.31-.66-.36-1.04-.11-.39.26-.55.71-.36 1.03.19.31.66.35 1.04.1.39-.25.55-.71.36-1.02z" class="fil2"/><path id="1" d="M6.65 4.38l.04-.02.04-.02.04-.02.03-.02.04-.02.04-.01.04-.01.04-.01.04-.01.04-.01.04-.01H7.27l.03.01h.04l.03.01.04.01.03.01.03.02.03.01.04.02.02.01.03.02.03.03.03.02.02.02.02.03.02.03.02.03-.04.03-.02-.03-.02-.03-.02-.02-.02-.02-.02-.02-.03-.02-.02-.02-.03-.02-.03-.01-.03-.02-.03-.01-.03-.01-.03-.01-.03-.01h-.04l-.03-.01H7.08l-.03.01-.04.01-.04.01-.03.01-.04.01-.04.01-.03.02-.04.01-.04.02-.03.02-.04.03-.03-.05zm-.36 1.06l-.02-.03-.02-.03-.01-.04-.01-.03-.01-.03-.01-.04v-.07l-.01-.03V5.1l.01-.04v-.03l.01-.04.01-.03.01-.04.01-.04.01-.03.02-.04.01-.03.02-.04.02-.03.02-.03.03-.04.02-.03.03-.03.03-.03.02-.03.04-.03.03-.03.03-.03.04-.02.03-.03.03.05-.03.02-.04.02-.03.03-.03.03-.03.02-.03.03-.02.03-.03.03-.02.03-.02.03-.02.04-.02.03-.02.03-.02.03-.01.04-.01.03-.01.03-.01.04-.01.03-.01.04v.19l.01.03.01.03.01.03.01.03.02.03.01.03-.04.03zm1.08.11l-.04.03-.04.02-.04.02-.03.02-.04.01-.04.02-.04.01-.04.01-.04.01-.04.01h-.04l-.04.01H6.75l-.03-.01-.04-.01h-.03l-.04-.01-.03-.01-.03-.02-.03-.01-.03-.02-.03-.02-.03-.02-.03-.02-.02-.02-.03-.03-.02-.02-.02-.03-.02-.03.04-.03.02.03.02.02.02.03.02.02.02.02.03.02.02.02.03.02.03.01.03.02.03.01.03.01.03.01h.03l.04.01h.03l.03.01h.11l.04-.01h.03l.04-.01.04-.01.03-.01.04-.01.04-.01.03-.02.04-.02.04-.02.03-.02.04-.02.03.04zm.36-1.05l.02.03.02.03.01.03.01.04.01.03.01.04v.03l.01.04v.07l-.01.03v.04l-.01.04-.01.03-.01.04-.01.03-.01.04-.02.03-.01.04-.02.03-.02.04-.02.03-.03.03-.02.04-.03.03-.03.03-.02.03-.04.03-.03.03-.03.02-.04.03-.03.02-.03-.04.03-.02.04-.03.03-.02.03-.03.03-.03.03-.03.02-.03.03-.03.02-.03.02-.03.03-.03.01-.03.02-.03.02-.04.01-.03.01-.03.02-.04v-.03l.01-.03.01-.04v-.06l.01-.04-.01-.03V4.7l-.01-.03-.01-.03-.01-.03-.01-.03-.01-.03-.02-.02.04-.03z" class="fil1"/><path fill="#c4d985" d="M6.12 6.17c-.19-.31-.66-.36-1.05-.11-.39.26-.55.71-.36 1.02.19.32.66.36 1.05.11s.55-.71.36-1.02z"/><path id="1" d="M5.06 6.04l.04-.02.03-.02.04-.02.04-.02.04-.02.04-.01.04-.01.04-.01.03-.01.04-.01.04-.01h.19l.04.01h.03l.04.01.03.01.04.01.03.01.03.02.03.02.03.01L6 6l.02.02.03.03.02.02.03.03.02.03.02.03-.05.02-.01-.02-.02-.03-.02-.02-.03-.03-.02-.02-.02-.02-.03-.01-.03-.02-.02-.02-.03-.01-.03-.01-.03-.01-.04-.01-.03-.01H5.7l-.03-.01H5.49l-.04.01-.04.01h-.03l-.04.02-.04.01-.03.01-.04.02-.04.01-.03.02-.04.02-.03.02-.03-.04zM4.69 7.1l-.02-.03-.01-.04L4.65 7l-.02-.03v-.04l-.01-.03-.01-.03v-.15l.01-.03v-.04l.01-.04.01-.03.01-.04.02-.03.01-.04.02-.03.02-.04.02-.03.02-.04.02-.03.03-.03.02-.03.03-.03.03-.03.03-.03.03-.03.04-.03.03-.02.04-.03.03.04-.04.03-.03.02-.03.03-.04.03-.02.02-.03.03-.03.03-.02.03-.03.03-.02.03-.02.03-.02.04-.02.03-.01.03-.02.04-.01.03-.01.03-.01.04-.01.03v.03l-.01.04v.13l.01.03.01.03v.03l.01.03.02.03.01.03.02.03-.05.03zm1.08.11l-.04.03-.03.02-.04.02-.04.02-.04.01-.04.02-.04.01-.04.01-.03.01-.04.01h-.04l-.04.01H5.2l-.04-.01h-.04l-.03-.01h-.04l-.03-.01-.04-.02-.03-.01-.03-.01-.03-.02-.03-.02-.03-.02-.02-.02-.03-.02-.02-.03-.03-.02-.02-.03-.02-.03.05-.03.01.03.02.02.02.03.03.02.02.02.02.02.03.02.03.02.02.01.03.01.03.02.03.01.03.01h.04l.03.01h.03l.04.01h.07l.04-.01h.07l.03-.01.04-.01.04-.01.04-.01.03-.02.04-.01.04-.02.03-.02.04-.02.03-.02.03.04zm.37-1.05l.02.03.01.03.01.03.01.04.01.03.01.03.01.04v.14l-.01.04v.03l-.01.04-.01.04-.01.03-.02.04-.01.03-.02.04-.02.03-.02.04-.02.03-.02.03-.03.04-.02.03-.03.03-.03.03-.03.03-.03.02-.04.03-.03.03-.04.02-.03-.04.04-.02.03-.03.03-.02.04-.03.02-.03.03-.03.03-.03.02-.03.03-.03.02-.03.02-.03.02-.03.02-.04.01-.03.02-.03.01-.03.01-.04.01-.03.01-.04v-.03l.01-.03V6.4l-.01-.04-.01-.03V6.3l-.01-.03-.02-.03-.01-.03-.02-.03.05-.02z" class="fil1"/><g><path d="M3.81 6.87c-.19-.31-.65-.36-1.04-.11s-.55.71-.36 1.02c.19.31.66.36 1.05.11.38-.25.54-.71.35-1.02z" class="fil0"/><path id="1" d="M2.76 6.74l.03-.02.04-.02.04-.02.04-.02.04-.02.04-.01.03-.02.04-.01.04-.01h.04l.04-.01h.04l.04-.01h.03l.04.01h.08l.03.01.04.01.03.01.03.01.04.01.03.02.03.01.03.02.03.02.02.02.03.03.02.02.03.03.02.03.02.03-.05.02-.02-.02-.01-.03-.02-.02-.03-.03-.02-.02-.02-.02-.03-.02-.03-.01-.03-.02-.02-.01-.03-.01-.04-.01-.03-.01-.03-.01-.03-.01H3.19l-.04.01h-.04l-.03.01-.04.01-.04.02-.03.01-.04.01-.04.02-.03.02-.04.02-.04.02-.02-.04zM2.39 7.8l-.02-.04-.01-.03-.02-.03-.01-.03-.01-.04V7.6l-.01-.04v-.14l.01-.04v-.03l.01-.04.01-.03.01-.04.01-.03.02-.04.02-.03.01-.04.02-.03.03-.04.02-.03.02-.03.03-.03.03-.03.03-.04.03-.02.03-.03.03-.03.04-.03.04-.02.02.04-.03.03-.03.02-.04.03-.03.02-.03.03-.02.03-.03.03-.03.03-.02.03-.02.03-.02.03-.02.04-.02.03-.01.03-.02.03-.01.04-.01.03-.01.03-.01.04v.03l-.01.04v.13l.01.03v.03l.01.03.01.03.01.03.02.03.01.03-.04.03zm1.08.11l-.04.02-.03.03-.04.02-.04.01-.04.02-.04.01-.04.02-.04.01-.04.01h-.03l-.04.01h-.04l-.04.01h-.08l-.03-.01h-.04l-.03-.01-.04-.01-.03-.01-.04-.01-.03-.01L2.62 8l-.03-.01-.03-.02-.03-.02-.03-.02-.02-.03-.03-.02-.02-.03-.02-.03-.02-.02.04-.03.02.03.02.02.02.02.02.03.03.02.02.02.03.02.02.01.03.02.03.01.03.01.03.01.03.01.04.01.03.01h.07l.03.01.04-.01h.07l.04-.01h.03L3.15 8l.04-.01.03-.01.04-.02.04-.01.03-.02.04-.02.04-.02.03-.02.03.04zm.37-1.05l.01.03.02.03.01.03.01.03.01.04.01.03.01.04v.14l-.01.04v.03l-.01.04-.01.03-.01.04-.02.04-.01.03-.02.04-.02.03-.02.03-.02.04-.02.03-.03.03-.02.04-.03.03-.03.03-.03.02-.03.03-.04.03-.03.03-.04.02-.03-.04.04-.03.03-.02.03-.03.03-.02.03-.03.03-.03.03-.03.02-.03.03-.03.02-.03.02-.03.02-.03.01-.04.02-.03.01-.03.02-.04.01-.03.01-.03.01-.04v-.03l.01-.03v-.1l-.01-.04v-.03l-.01-.03L3.84 7l-.01-.03-.01-.03-.01-.03-.02-.03.05-.02z" class="fil1"/></g><g><path fill="#a1b567" d="M2.37 5.67c-.19-.31-.66-.36-1.04-.11-.39.25-.55.71-.36 1.02.19.31.65.36 1.04.11s.55-.71.36-1.02z"/><path id="1" d="M1.31 5.54l.04-.02.04-.02.03-.02.04-.02.04-.02.04-.01.04-.02.04-.01.04-.01h.04l.04-.01H1.96l.04.01.03.01.04.01.03.01.03.01.03.02.03.01.03.02.03.02.03.02.02.03.03.02.02.03.02.03.02.03-.04.02-.02-.02-.02-.03-.02-.02-.02-.03-.03-.02-.02-.02-.03-.02-.02-.01-.03-.02-.03-.01-.03-.01-.03-.01-.03-.01-.03-.01-.04-.01H1.74l-.04.01h-.03l-.04.01-.04.01-.03.02-.04.01-.04.01-.03.02-.04.02-.04.02-.03.02-.03-.04zM.95 6.6l-.02-.04-.02-.03L.9 6.5l-.01-.03-.01-.04-.01-.03v-.04l-.01-.03v-.07l.01-.04v-.03l.01-.04v-.04l.01-.03.02-.04.01-.03.01-.04.02-.03.02-.04.02-.03.02-.04.02-.03.03-.03.03-.03.02-.03.03-.03.03-.03.04-.03.03-.03.03-.02.04-.03.03.04-.04.03-.03.02-.03.03-.03.02-.03.03-.03.03-.03.03-.02.03-.02.03-.03.03-.02.03-.02.04-.01.03-.02.03-.01.03-.02.04-.01.03-.01.04v.03l-.01.03v.04l-.01.03v.07l.01.03v.03l.01.03.01.03.01.03.01.03.01.03.02.03-.04.03zm1.08.11l-.04.02-.04.03-.04.02-.04.01-.04.02-.03.01-.04.02-.04.01-.04.01h-.04l-.04.01h-.04l-.03.01h-.08l-.04-.01h-.03l-.04-.01-.03-.01-.04-.01-.03-.01-.03-.01-.04-.02-.03-.01-.03-.02-.02-.02-.03-.02-.03-.03-.02-.02-.02-.03-.02-.02-.02-.03.04-.03.02.03.02.02.02.03.02.02.02.02.03.02.02.02.03.01.03.02.03.01.03.01.03.02h.03l.03.01.03.01h.07l.04.01h.03l.04-.01h.04l.03-.01h.04l.04-.01.03-.01.04-.01.04-.02.03-.01.04-.02.04-.02.03-.02.04-.02.03.04zm.36-1.05l.02.03.01.03.02.03.01.03.01.04v.03l.01.04V6.07l-.01.03-.01.04-.01.03-.01.04-.01.04-.02.03-.01.04-.02.03-.02.03-.02.04-.03.03-.02.03-.03.04-.03.03-.03.03-.03.03-.03.02-.03.03-.04.03-.03.02L2 6.67l.03-.03.04-.02.03-.03.03-.02.03-.03.03-.03.02-.03.03-.03.02-.03.02-.03.02-.03.02-.03.02-.04.02-.03.01-.03.01-.04.01-.03.01-.03.01-.04.01-.03v-.17l-.01-.03v-.03L2.4 5.8l-.01-.03-.01-.03-.02-.03-.01-.03.04-.02z" class="fil1"/></g></g></g></g></svg>