<svg xmlns="http://www.w3.org/2000/svg" width="52" height="67" fill-rule="evenodd" clip-rule="evenodd" image-rendering="optimizeQuality" shape-rendering="geometricPrecision" text-rendering="geometricPrecision" viewBox="0 0 4.65 6.05"><defs><style>.fil2{fill:#f9d5d7}.fil4{fill:#f08bb2}.fil3{fill:#c4d985}.fil1{fill:#99cfba}.fil0{fill:#2b2a29;fill-rule:nonzero}</style></defs><g id="Слой_x0020_1"><g id="_1410294544"><path d="M2.17 2.31l-.02-.01.02-.09.02-.1.02-.1.03-.1.02-.09.03-.1.02-.09.03-.1.03-.09.02-.09.03-.09.04-.09.03-.09.03-.08.04-.08.04-.08.04-.08.05-.08.04-.07.05-.07.06-.07.05-.06.06-.06.06-.05.07-.06.07-.04.07-.05.08-.04.08-.03.09-.03.09-.03.1-.02v.03l-.09.02-.09.03-.08.03-.08.03-.08.04-.07.04-.07.05-.07.05-.06.05-.06.06-.05.06-.05.07-.05.07-.05.07-.04.07-.04.08-.04.08-.04.08-.03.09-.04.08-.03.09-.03.09-.03.09-.02.09-.03.1-.02.09-.03.1-.02.09-.03.1-.02.1-.02.09-.02.1h-.01zm.01 0h-.01.01zM.57 5.08l-.03.02-.09-.15-.08-.14-.06-.14-.04-.13-.02-.12-.02-.12.01-.11.01-.1.03-.1.04-.09.05-.09.06-.08.06-.08.08-.08.08-.07.08-.08.1-.06.09-.07.1-.07.1-.06.1-.07.1-.06.1-.06.1-.07.1-.07.09-.07.09-.07.08-.07.08-.07.07-.08.06-.08.06-.09.02.01-.05.09-.07.09-.07.08-.08.07-.08.08-.09.07-.1.07-.09.06-.1.07-.1.07-.1.06-.11.06-.1.07-.09.06-.1.07-.09.07-.08.07-.08.07-.07.08-.07.07-.06.09-.04.08L.31 4l-.03.1-.01.1-.01.1.02.11.02.12.04.13.06.13.07.14.1.15zm2.74.23l.02.02-.11.07-.12.06-.11.06-.11.05-.11.04-.11.04-.11.04-.11.02-.1.03-.11.02-.1.01-.1.01h-.19l-.1-.01-.09-.01-.09-.01-.09-.02-.09-.02-.08-.03-.08-.03-.08-.03-.07-.04L1 5.54l-.07-.05-.07-.05-.06-.05-.06-.05-.05-.06-.06-.05-.05-.07-.04-.06.03-.02.04.07.05.06.05.05.05.06.06.05.06.05.07.05.06.04.07.04.08.04.07.03.08.03.08.03.09.02.08.02.09.01.09.01.1.01h.19l.1-.01.1-.01.1-.02.11-.02.1-.03.11-.04.11-.04.11-.04.11-.05.11-.06.11-.06.12-.07-.01.01zm.02.02zm.9-2.81l.03-.01v.01l-.01.12v.12l-.01.12v.11l-.01.1v.11l-.01.1v.09l-.01.1-.01.09v.09l-.01.08-.02.09-.01.08-.01.08-.02.08-.02.07-.03.08-.02.08-.03.07-.04.08-.03.07-.04.08-.05.07-.05.08-.05.07-.06.08-.06.08-.07.08-.08.09-.08.08-.09.09-.02-.02.09-.09.08-.09.07-.08.07-.08.07-.08.05-.07.06-.08.05-.08.04-.07.04-.07.04-.08.03-.07.03-.08.02-.07.03-.08.02-.07.02-.08.01-.08.01-.08.02-.08.01-.09v-.08l.01-.09.01-.1V3.3l.01-.1v-.11l.01-.1v-.12l.01-.11v-.12l.01-.13v.01zm.03-.01v.01-.01zM3.66.03V0l.15.01.14.02.12.02.1.03.09.04.08.04.06.05.05.06.04.06.03.07.02.07.01.08v.16L4.53.8l-.01.09-.02.09-.03.1-.02.1-.03.09-.03.11-.03.1-.03.1-.03.11-.02.1-.02.11-.02.1-.01.1V2.31l.01.1.02.1-.03.01-.02-.1-.01-.11V2.1l.01-.1.02-.11.02-.11.02-.1.03-.11.03-.1.03-.1.03-.1.03-.1.02-.1.03-.09.02-.1.01-.09.02-.08V.55L4.51.48 4.49.41 4.47.35 4.43.29 4.38.24 4.32.19 4.25.15 4.16.11l-.1-.03-.11-.02-.14-.02-.15-.01zm0-.03z" class="fil0"/><path d="M.64 3.27c.14 0 .25.11.25.25s-.11.25-.25.25c-.13 0-.25-.11-.25-.25s.12-.25.25-.25z" class="fil1"/><path id="1" d="M.91 3.52H.88v-.04l-.01-.01v-.03l-.01-.01v-.01l-.01-.01V3.4l-.01-.01-.01-.01v-.01l-.01-.01-.01-.01H.8l-.01-.01v-.01l-.01-.01H.77l-.01-.01H.75L.74 3.3H.73l-.02-.01H.67l-.01-.01H.64v-.03h.02l.01.01h.04l.01.01h.03l.01.01.01.01h.01l.01.01.01.01h.01l.01.01.01.01.01.01.01.01.01.01v.01l.01.01.01.01v.01l.01.02v.01l.01.01v.03l.01.01v.04zm-.27.26v-.03H.7l.01-.01h.03l.01-.01h.01l.01-.01.01-.01h.01V3.7l.01-.01.01-.01h.01l.01-.01v-.01l.01-.01.01-.01v-.01l.01-.01v-.01l.01-.01v-.03l.01-.02v-.03h.03v.04l-.01.01v.03l-.01.01v.01l-.01.01v.02l-.01.01-.01.01v.01l-.01.01-.01.01-.01.01-.01.01H.81l-.01.01-.01.01-.01.01H.77l-.01.01H.75l-.01.01H.72l-.01.01H.64zm-.26-.26h.03v.03l.01.02v.03l.01.01v.01l.01.01v.01l.01.01.01.01v.01l.01.01h.01l.01.01.01.01v.01h.01l.01.01.01.01h.01l.01.01h.03l.01.01h.05v.03H.58l-.01-.01H.55l-.01-.01H.53l-.01-.01H.51L.5 3.74l-.01-.01-.01-.01H.47l-.01-.01-.01-.01-.01-.01-.01-.01v-.01l-.01-.01-.01-.01v-.02L.4 3.62v-.01L.39 3.6v-.03l-.01-.01v-.04zm.26-.27v.03H.63l-.01.01H.58l-.02.01H.55l-.01.01H.53l-.01.01H.51l-.01.01v.01l-.01.01H.48l-.01.01-.01.01v.01l-.01.01-.01.01v.01l-.01.01v.01l-.01.01v.03l-.01.01v.04H.38v-.04l.01-.01v-.03l.01-.01v-.01l.01-.02v-.01l.01-.01.01-.01v-.01l.01-.01.01-.01.01-.01.01-.01.01-.01h.01L.5 3.3l.01-.01h.01l.01-.01.01-.01h.03l.01-.01h.04l.01-.01h.01z" class="fil0"/><path d="M1.17 2.89c.14 0 .25.11.25.25s-.11.25-.25.25-.25-.11-.25-.25.11-.25.25-.25z" class="fil2"/><path id="1" d="M1.44 3.14h-.03v-.02l-.01-.01v-.04l-.01-.01v-.01l-.01-.01v-.01l-.01-.01v-.01L1.36 3l-.01-.01v-.01h-.01l-.01-.01-.01-.01-.01-.01H1.3l-.01-.01h-.01l-.01-.01h-.01l-.01-.01h-.01l-.01-.01H1.17v-.03H1.24l.01.01h.01l.02.01h.01l.01.01h.01l.01.01.01.01.01.01.01.01h.01l.01.01.01.01.01.01v.01L1.4 3l.01.02v.01l.01.01v.01l.01.01v.04l.01.01v.03zm-.27.27v-.03h.01l.02-.01h.04l.01-.01h.01l.01-.01h.01l.01-.01h.01l.01-.01.01-.01h.01l.01-.01.01-.01v-.01l.01-.01.01-.01v-.01l.01-.01v-.01l.01-.01v-.01l.01-.01v-.03l.01-.01v-.03h.03v.03l-.01.01v.04l-.01.01v.01l-.01.02v.01l-.01.01-.01.01v.01l-.01.01-.01.01-.01.01-.01.01-.01.01h-.01l-.01.01-.01.01H1.3l-.01.01-.01.01h-.03l-.01.01h-.03l-.01.01h-.03zm-.26-.27h.03v.05l.01.01v.02l.01.01v.01l.01.01v.01l.01.01v.01l.01.01.01.01.01.01v.01h.01l.01.01.01.01h.01l.01.01h.01l.01.01h.01l.01.01h.05l.01.01h.01v.03h-.02l-.02-.01h-.02l-.02-.01h-.02l-.01-.01-.01-.01h-.01l-.02-.01-.01-.01H1l-.01-.01v-.01l-.01-.01-.01-.01-.01-.01-.01-.01v-.01l-.01-.01-.01-.01v-.02l-.01-.01v-.02L.91 3.2v-.06zm.26-.26v.03h-.06l-.01.01h-.01l-.01.01h-.01l-.01.01h-.01l-.01.01h-.01l-.01.01-.01.01v.01H1l-.01.01L.98 3v.01l-.01.01v.01l-.01.01v.01l-.01.01v.02l-.01.01v.05H.91v-.05l.01-.01v-.03l.01-.01v-.01l.01-.01L.95 3v-.01l.01-.01.01-.01.01-.01.01-.01.01-.01.01-.01.01-.01.02-.01h.01l.01-.01h.01l.01-.01h.01l.02-.01H1.17z" class="fil0"/><path d="M2.25 1.69c.14 0 .25.11.25.25 0 .13-.11.25-.25.25S2 2.07 2 1.94c0-.14.11-.25.25-.25z" class="fil1"/><path id="1" d="M2.51 1.94h-.03V1.88l-.01-.01v-.01l-.01-.01v-.02l-.01-.01-.01-.01V1.8l-.01-.01-.01-.01-.01-.01v-.01H2.4l-.01-.01-.01-.01h-.01l-.01-.01h-.01l-.01-.01h-.01l-.01-.01H2.3l-.02-.01h-.03v-.03h.04l.01.01h.03l.01.01h.01l.01.01h.01l.02.01.01.01h.01l.01.01.01.01.01.01v.01l.01.01.01.01.01.01.01.01v.01l.01.01v.01l.01.02v.01l.01.01v.07zm-.26.26v-.03h.05l.01-.01h.02l.01-.01h.01l.01-.01h.01l.01-.01.01-.01h.01l.01-.01V2.1l.01-.01h.01l.01-.01v-.01l.01-.01v-.01l.01-.01v-.01l.01-.01v-.01L2.48 2V1.94h.03V2l-.01.02v.01l-.01.01v.01l-.01.01v.01l-.01.01-.01.02-.01.01-.01.01-.01.01-.01.01-.01.01-.01.01h-.01l-.02.01-.01.01h-.01l-.01.01h-.03l-.01.01h-.05zm-.27-.26h.03v.02l.01.01v.04l.01.01v.01l.01.01v.01l.01.01v.01l.01.01.01.01.01.01.01.01.01.01h.01l.01.01.01.01h.01l.01.01h.01l.01.01h.02l.01.01h.05v.03h-.06l-.01-.01h-.02l-.01-.01h-.02l-.01-.01-.01-.01H2.1l-.01-.01-.01-.01-.01-.01-.01-.01h-.01l-.01-.01V2.1l-.01-.02-.01-.01v-.01l-.01-.01L2 2.04v-.01l-.01-.01v-.04l-.01-.02v-.02zm.27-.27v.03h-.04l-.01.01h-.02l-.01.01h-.01l-.01.01h-.01l-.01.01h-.01l-.01.01-.01.01h-.01l-.01.01-.01.01v.01l-.01.01-.01.01v.01h-.01v.01l-.01.02v.01l-.01.01v.03l-.01.01v.03h-.03v-.03l.01-.01v-.04L2 1.85v-.02l.01-.01.01-.01V1.8l.01-.01.01-.01v-.01l.01-.01.01-.01.01-.01.01-.01.01-.01h.01l.01-.01.01-.01h.01l.02-.01h.01l.01-.01h.02l.02-.01h.04z" class="fil0"/><path d="M2.42 1.07c.14 0 .25.11.25.25 0 .13-.11.25-.25.25s-.25-.12-.25-.25c0-.14.11-.25.25-.25z" class="fil3"/><path id="1" d="M2.69 1.32h-.03V1.3l-.01-.01v-.03l-.01-.01v-.02l-.01-.02V1.2l-.01-.01-.01-.01-.01-.01-.01-.01v-.01l-.01-.01h-.01l-.01-.01-.01-.01h-.01l-.01-.01-.01-.01H2.5l-.01-.01h-.02l-.01-.01h-.04v-.03h.04l.01.01h.03l.01.01h.01l.02.01h.01l.01.01.01.01h.01l.01.01.01.01.01.01.01.01.01.01v.01l.01.01.01.01v.01l.01.01.01.01v.03l.01.01v.04l.01.01v.02zm-.27.26v-.03h.05l.01-.01h.02l.01-.01h.01l.01-.01h.01l.01-.01.01-.01h.01l.01-.01.01-.01v-.01h.01l.01-.01.01-.01v-.01l.01-.01v-.01l.01-.01v-.02l.01-.01v-.04l.01-.01v-.01h.03v.01l-.01.01v.04l-.01.02v.02l-.01.01-.01.01v.01l-.01.01-.01.02v.01h-.01l-.01.01-.01.01-.01.01-.01.01-.01.01h-.01l-.01.01-.01.01h-.02l-.01.01h-.02l-.02.01h-.05zm-.26-.26h.03v.06l.01.01v.02l.01.01v.01l.01.01.01.01v.01l.01.01h.01v.01l.01.01.01.01h.01l.01.01.01.01h.01l.01.01h.01l.01.01h.02l.01.01h.05v.03h-.05l-.02-.01h-.02l-.01-.01h-.01l-.02-.01-.01-.01h-.01l-.01-.01-.01-.01-.01-.01-.01-.01-.01-.01-.01-.01-.01-.02-.01-.01v-.01l-.01-.01v-.01l-.01-.01V1.4l-.01-.02V1.32zm.26-.27v.03h-.03l-.02.01h-.02l-.01.01h-.02l-.01.01-.01.01h-.01l-.01.01-.01.01h-.01l-.01.01v.01l-.01.01-.01.01v.01h-.01l-.01.01v.01l-.01.02v.02l-.01.01v.06h-.03V1.25l.01-.01v-.01l.01-.02V1.2l.01-.01v-.01l.01-.01.01-.01.01-.01v-.01l.01-.01.01-.01.01-.01.01-.01h.01l.01-.01.01-.01h.02l.01-.01h.01l.01-.01h.03l.01-.01h.04z" class="fil0"/><path d="M2.7.4c.14 0 .25.11.25.25S2.84.9 2.7.9 2.45.79 2.45.65 2.56.4 2.7.4z" class="fil1"/><path id="1" d="M2.96.65h-.03V.59L2.92.58V.56L2.91.55V.54L2.9.53 2.89.52V.51L2.88.5 2.87.49 2.86.48V.47h-.01L2.84.46 2.83.45h-.01L2.81.44H2.8L2.79.43h-.01L2.77.42h-.04L2.72.41H2.7V.38h.04l.01.01h.03l.01.01h.01l.01.01h.02l.01.01.01.01h.01l.01.01.01.01.01.01.01.01v.01l.01.01.01.01.01.01v.01l.01.01v.01l.01.02v.01l.01.01v.07zM2.7.91V.88h.05l.01-.01h.02l.01-.01h.01l.01-.01h.01l.01-.01h.01l.01-.01.01-.01V.81L2.87.8h.01l.01-.01V.78L2.9.77l.01-.01V.75l.01-.01V.72l.01-.01V.65h.03V.71l-.01.02v.01l-.01.01v.01l-.01.01v.01L2.92.8l-.01.01-.01.01v.01h-.01l-.01.01-.01.01-.01.01-.01.01h-.01l-.01.01-.02.01H2.8L2.79.9h-.02l-.02.01H2.7zM2.43.65h.03v.01l.01.01v.05l.01.01v.01l.01.01v.01l.01.01v.01l.01.01.01.01h.01v.01l.01.01.01.01.01.01h.01l.01.01h.01l.01.01h.01l.01.01h.02l.01.01h.05v.03h-.05L2.63.9h-.02L2.6.89h-.02L2.57.88 2.56.87h-.01L2.54.86 2.53.85 2.52.84 2.51.83H2.5L2.49.82V.81L2.48.8 2.47.78V.77L2.46.76 2.45.75V.73L2.44.71V.67L2.43.66V.65zM2.7.38v.03h-.03l-.01.01h-.03l-.01.01h-.01L2.6.44h-.01l-.01.01h-.01l-.01.01-.01.01h-.01l-.01.01v.01L2.52.5l-.01.01-.01.01v.01l-.01.01v.01l-.01.01v.01l-.01.01v.04l-.01.02v.01h-.03V.63l.01-.01V.58l.01-.01V.54l.01-.01.01-.01V.51L2.48.5l.01-.01V.48L2.5.47l.01-.01.01-.01.01-.01.01-.01h.01l.01-.01.01-.01h.01L2.6.4h.01l.01-.01h.03l.01-.01h.04z" class="fil0"/><path d="M4.39.87c.14 0 .25.11.25.25s-.11.25-.25.25-.25-.11-.25-.25.11-.25.25-.25z" class="fil2"/><path id="1" d="M4.65 1.12h-.03V1.06l-.01-.01v-.02l-.01-.01v-.01L4.59 1 4.58.99V.98L4.57.97 4.56.96V.95L4.55.94h-.01L4.53.93 4.52.92h-.01L4.5.91h-.01L4.48.9h-.01L4.46.89h-.03L4.41.88h-.02V.85h.03l.01.01h.04l.01.01h.01l.01.01h.02l.01.01.01.01.01.01h.01l.01.01.01.01.01.01v.01l.01.01.01.01.01.01v.01l.01.01v.01l.01.02v.01l.01.01v.07zm-.26.26v-.03h.05l.01-.01h.02l.01-.01h.01l.01-.01h.01l.01-.01h.01l.01-.01.01-.01.01-.01.01-.01.01-.01v-.01l.01-.01.01-.01v-.01l.01-.01v-.02l.01-.01V1.12h.03V1.18l-.01.02v.01l-.01.01v.01l-.01.01v.02l-.01.01-.01.01-.01.01v.01l-.01.01h-.01l-.01.01-.01.01-.01.01h-.01l-.01.01-.02.01h-.01l-.01.01h-.02l-.02.01h-.05zm-.27-.26h.03v.01l.01.01v.04l.01.01v.02l.01.01v.01l.01.01v.01l.01.01.01.01.01.01.01.01.01.01.01.01h.01l.01.01h.01l.01.01h.01l.01.01h.02l.01.01h.05v.03h-.05l-.02-.01H4.3l-.01-.01h-.02l-.01-.01-.01-.01h-.01l-.01-.01-.01-.01-.01-.01H4.2l-.01-.01-.01-.01v-.01l-.01-.01-.01-.01v-.02l-.01-.01-.01-.01V1.2l-.01-.02v-.04l-.01-.01v-.01zm.27-.27v.03h-.02l-.02.01h-.03L4.31.9H4.3l-.01.01h-.01l-.01.01h-.01l-.01.01-.01.01h-.01l-.01.01v.01l-.01.01-.01.01-.01.01V1l-.01.01v.01l-.01.01v.02l-.01.01v.03l-.01.02v.01h-.03V1.1l.01-.01v-.04l.01-.01v-.03L4.15 1l.01-.01V.98l.01-.01.01-.01V.95l.01-.01.01-.01.01-.01.01-.01h.01L4.24.9l.01-.01.01-.01h.01l.02-.01h.01l.01-.01h.04l.01-.01h.03z" class="fil0"/><path d="M4.26 1.56c.14 0 .25.11.25.25 0 .13-.11.25-.25.25s-.25-.12-.25-.25c0-.14.11-.25.25-.25z" class="fil4"/><path id="1" d="M4.53 1.81h-.04V1.75l-.01-.01v-.02l-.01-.02v-.01h-.01l-.01-.01v-.01l-.01-.01-.01-.01v-.01l-.01-.01h-.01l-.01-.01-.01-.01h-.01l-.01-.01h-.01l-.01-.01h-.01l-.01-.01h-.02l-.01-.01h-.04v-.03h.04l.01.01h.03l.01.01h.01l.01.01h.02l.01.01.01.01h.01l.01.01.01.01.01.01.01.01v.01l.01.01.01.01.01.01v.01l.01.01v.01l.01.02v.01l.01.01v.05l.01.02zm-.27.26v-.03h.05l.01-.01h.02l.01-.01h.01l.01-.01h.01L4.39 2l.01-.01h.01l.01-.01.01-.01v-.01h.01l.01-.01v-.01l.01-.01.01-.01v-.01l.01-.01v-.02l.01-.01V1.81h.04l-.01.01v.05l-.01.02v.01l-.01.01v.01l-.01.01v.01l-.01.02-.01.01-.01.01v.01h-.01L4.44 2l-.01.01-.01.01-.01.01H4.4l-.01.01-.02.01h-.01l-.01.01h-.02l-.02.01h-.05zm-.27-.26h.04v.06l.01.01v.02l.01.01v.01l.01.01.01.01v.01l.01.01h.01v.01l.01.01.01.01h.01l.01.01.01.01h.01l.01.01h.01l.01.01h.02l.01.01h.05v.03h-.05l-.02-.01h-.02l-.01-.01h-.01l-.02-.01-.01-.01h-.01l-.01-.01-.01-.01L4.08 2l-.01-.01h-.01v-.01l-.01-.01-.01-.01-.01-.02v-.01l-.01-.01v-.01l-.01-.01v-.01L4 1.87v-.05l-.01-.01zm.27-.27v.03h-.04l-.01.01h-.02l-.01.01h-.01l-.01.01h-.01l-.01.01h-.01l-.01.01-.01.01H4.1l-.01.01v.01l-.01.01-.01.01v.01l-.01.01h-.01v.01l-.01.02v.02l-.01.01v.06h-.04L4 1.79v-.05l.01-.01v-.01l.01-.02v-.01l.01-.01v-.01l.01-.01.01-.01.01-.01v-.01l.01-.01.01-.01.01-.01.01-.01h.01l.01-.01.01-.01h.02l.01-.01h.01l.01-.01h.03l.01-.01h.04z" class="fil0"/><path d="M4.24 2.26c.14 0 .25.12.25.25 0 .14-.11.25-.25.25-.13 0-.25-.11-.25-.25 0-.13.12-.25.25-.25z" class="fil4"/><path id="1" d="M4.51 2.51h-.03v-.03l-.01-.01v-.03l-.01-.01v-.02l-.01-.01-.01-.01v-.01l-.01-.01h-.01v-.01l-.01-.01-.01-.01-.01-.01h-.01l-.01-.01-.01-.01-.01-.01h-.02l-.01-.01H4.3l-.01-.01h-.05v-.03h.06l.01.01h.01l.01.01h.02l.01.01h.01l.01.01h.01l.01.01.01.01.01.01.01.01.01.01.01.01.01.01v.01l.01.01.01.01v.01l.01.01v.01l.01.02v.02l.01.01v.04zm-.27.27v-.03h.04l.01-.01h.03l.01-.01h.02l.01-.01.01-.01.01-.01h.01l.01-.01.01-.01.01-.01v-.01h.01l.01-.01v-.01l.01-.01.01-.01V2.6l.01-.02v-.02l.01-.01v-.04h.03v.05l-.01.01v.02l-.01.02v.01l-.01.01v.01l-.01.01-.01.01v.01l-.01.01-.01.01-.01.01-.01.01-.01.01-.01.01h-.01l-.01.01-.01.01h-.01l-.01.01h-.02l-.01.01H4.3l-.02.01h-.04zm-.26-.27h.03v.05l.01.01v.03l.01.01v.01l.01.01v.01l.01.01.01.01.01.01.01.01.01.01v.01h.01l.01.01.01.01h.01l.01.01h.01l.01.01h.04l.01.01h.03v.03H4.2l-.01-.01h-.03l-.01-.01h-.01l-.01-.01h-.01l-.01-.01-.01-.01h-.02l-.01-.01v-.01l-.01-.01-.01-.01-.01-.01-.01-.01-.01-.01v-.01l-.01-.01L4 2.63v-.01l-.01-.01v-.03l-.01-.01v-.06zm.26-.26v.03H4.2l-.02.01h-.02l-.01.01h-.01l-.01.01h-.01l-.01.01-.01.01h-.01v.01l-.01.01-.01.01-.01.01-.01.01-.01.01v.01l-.01.01v.01l-.01.01v.03l-.01.01v.04h-.03v-.05l.01-.01v-.03L4 2.41V2.4l.01-.01.01-.01v-.01l.01-.01.01-.01.01-.01.01-.01.01-.01v-.01l.01-.01.02-.01h.01l.01-.01h.01l.01-.01h.01l.01-.01h.02l.01-.01h.05z" class="fil0"/><g><path d="M4.16 2.95c.22 0 .41.18.41.41 0 .22-.19.4-.41.4-.23 0-.41-.18-.41-.4 0-.23.18-.41.41-.41z" class="fil1"/><path id="1" d="M4.58 3.36h-.03V3.3l-.01-.02v-.02l-.01-.02v-.02l-.01-.02-.01-.01-.01-.02-.01-.02-.01-.01-.01-.02-.01-.01-.01-.02-.01-.01-.02-.01-.01-.02-.02-.01-.01-.01-.02-.01-.02-.01L4.33 3l-.02-.01h-.02l-.02-.01h-.01l-.02-.01H4.2l-.02-.01h-.02v-.03h.04l.02.01h.02l.02.01h.02l.02.01.02.01h.02l.02.01.02.01.01.01.02.02.02.01.01.01.02.02.01.01.01.02.02.01.01.02.01.02.01.01.01.02.01.02.01.02v.02l.01.02v.02l.01.02v.07zm-.42.42v-.03h.04l.02-.01h.04l.01-.01h.02l.02-.01.02-.01.01-.01.02-.01.02-.01.01-.01.02-.01.01-.01.02-.02.01-.01.01-.01.01-.02.01-.01.01-.02.01-.02.01-.01.01-.02.01-.02v-.02l.01-.02v-.01l.01-.02v-.06h.03v.06l-.01.02v.02l-.01.02v.02l-.01.02-.01.02-.01.02-.01.02-.01.01-.01.02-.02.02-.01.01-.01.02-.02.01-.01.01-.02.02-.02.01-.01.01-.02.01-.02.01-.02.01H4.3l-.02.01-.02.01h-.04l-.02.01h-.04zm-.43-.42h.03l.01.02v.06l.01.01v.02l.01.02.01.02v.02l.01.01.01.02.01.02.01.01.01.02.02.01.01.01.01.02.02.01.01.01.02.01.01.01.02.01.02.01.01.01.02.01h.02l.02.01h.04l.02.01h.04v.03h-.05l-.02-.01h-.04l-.02-.01-.02-.01h-.02l-.02-.01-.01-.01-.02-.01-.02-.01-.02-.01-.01-.02-.02-.01-.01-.01-.02-.02-.01-.01-.01-.02-.01-.02-.01-.01-.01-.02-.01-.02-.01-.02-.01-.02-.01-.02v-.02l-.01-.02V3.4l-.01-.02v-.02zm.43-.43v.03h-.02l-.02.01h-.04l-.02.01h-.02l-.02.01H4L3.99 3l-.02.01-.02.01-.01.01-.02.01-.01.01-.02.02-.01.01-.01.01-.02.02-.01.01-.01.02-.01.01-.01.02-.01.02v.01l-.01.02-.01.02v.02l-.01.02v.06l-.01.02h-.03v-.03l.01-.02v-.04l.01-.02v-.02l.01-.02.01-.02.01-.02.01-.02.01-.01.01-.02.01-.02.01-.01.01-.02.02-.01.01-.02.02-.01.01-.01.02-.02.02-.01.02-.01.01-.01h.02l.02-.01.02-.01h.02l.02-.01h.02l.02-.01h.05z" class="fil0"/></g><g><path d="M4.06 4.01c.14 0 .25.11.25.25 0 .13-.11.24-.25.24s-.25-.11-.25-.24c0-.14.11-.25.25-.25z" class="fil3"/><path id="1" d="M4.32 4.26h-.03V4.2l-.01-.01v-.02l-.01-.01v-.02l-.01-.01-.01-.01v-.01h-.01l-.01-.01-.01-.01v-.01l-.01-.01H4.2l-.01-.01-.01-.01h-.01l-.01-.01h-.01l-.01-.01h-.03l-.02-.01h-.03v-.03h.04l.01.01h.03l.01.01h.01l.01.01h.02l.01.01.01.01h.01l.01.01.01.01.01.01.01.01v.01l.01.01.01.01.01.01v.01l.01.01v.01l.01.01v.02l.01.01v.07zm-.26.26v-.03h.03l.02-.01h.03l.01-.01h.01l.01-.01h.01l.01-.01.01-.01h.01l.01-.01v-.01l.01-.01.01-.01h.01v-.01l.01-.01.01-.01v-.02l.01-.01v-.02l.01-.01v-.05h.03V4.32l-.01.01v.02l-.01.01v.01l-.01.01v.01l-.01.01-.01.01-.01.01v.01l-.01.01-.01.01-.01.01-.01.01h-.01l-.01.01-.01.01h-.02l-.01.01h-.01l-.01.01h-.03l-.01.01h-.04zm-.27-.26h.03v.01l.01.01v.04l.01.02v.01l.01.01v.01l.01.01v.01l.01.01h.01v.01l.01.01.01.01.01.01h.01l.01.01.01.01h.01l.01.01h.01l.01.01h.03l.01.01h.04v.03h-.04l-.01-.01h-.03l-.01-.01h-.01l-.02-.01h-.01l-.01-.01-.01-.01H3.9l-.01-.01-.01-.01-.01-.01-.01-.01-.01-.01v-.01l-.01-.01-.01-.01v-.01l-.01-.01-.01-.01v-.03l-.01-.01V4.3l-.01-.02v-.02zm.27-.27v.03h-.04l-.01.01h-.03l-.01.01h-.01l-.01.01h-.01l-.01.01-.01.01h-.01l-.01.01-.01.01-.01.01v.01h-.01l-.01.01v.01l-.01.01v.01l-.01.01v.01l-.01.02v.04l-.01.01v.02h-.03v-.03l.01-.02v-.02l.01-.01v-.03l.01-.01.01-.01v-.01l.01-.01.01-.01v-.01l.01-.01.01-.01.01-.01.01-.01.01-.01h.01l.01-.01.01-.01h.01l.02-.01h.01L3.98 4h.03l.01-.01h.04z" class="fil0"/></g><g><path d="M2.24 5.13c.25 0 .45.2.45.45 0 .26-.2.46-.45.46s-.46-.2-.46-.46c0-.25.21-.45.46-.45z" class="fil4"/><path id="1" d="M2.71 5.58h-.03v-.04l-.01-.02V5.5l-.01-.03v-.02l-.01-.02-.01-.02-.01-.02v-.02l-.02-.01-.01-.02-.01-.02-.01-.02-.02-.01-.01-.02-.02-.01-.01-.02-.02-.01-.02-.01-.01-.01-.02-.01-.02-.01-.02-.01-.02-.01-.02-.01h-.02l-.02-.01h-.05l-.02-.01h-.02v-.03h.02l.03.01h.04l.03.01h.02l.02.01.02.01.02.01.02.01.02.01.02.01.02.02.02.01.01.02.02.01.02.02.01.01.02.02.01.02.01.02.01.02.01.02.01.02.01.02.01.02v.03l.01.02v.02l.01.03v.04zm-.47.47v-.03H2.33l.02-.01.02-.01h.02l.02-.01.02-.01.02-.01.02-.01.01-.01.02-.01.02-.02.01-.01.02-.01.01-.02.02-.02.01-.01.01-.02.01-.02.02-.02v-.02l.01-.01.01-.02.01-.03v-.02l.01-.02v-.02l.01-.02v-.05h.03v.05l-.01.03v.02l-.01.02v.02l-.01.03-.01.02-.01.02-.01.02-.01.02-.01.02-.01.02-.02.01-.01.02-.02.02-.02.01-.01.02-.02.01-.02.01-.02.02-.02.01-.02.01-.02.01-.02.01h-.02l-.02.01-.03.01H2.24zm-.47-.47h.03v.07l.01.02v.02l.01.02v.03l.01.02.01.01.01.02.01.02.01.02.02.02.01.01.01.02.02.02.01.01.02.01.01.02.02.01.02.01.02.01.02.01.02.01.02.01h.02l.02.01.02.01H2.24v.03h-.1l-.02-.01-.02-.01h-.02l-.03-.01-.02-.01L2.01 6l-.02-.01-.02-.02-.01-.01-.02-.01-.02-.02-.01-.01-.02-.02-.02-.02-.01-.01-.01-.02-.01-.02-.02-.02-.01-.02-.01-.02v-.02l-.01-.03-.01-.02v-.02l-.01-.02v-.08zm.47-.47v.03h-.02l-.03.01h-.04l-.02.01h-.02l-.02.01-.02.01-.02.01-.02.01-.02.01-.02.01-.02.01-.01.01-.02.02-.01.01-.02.02-.01.01-.01.02-.02.02-.01.02-.01.01-.01.02-.01.02-.01.02v.02l-.01.02v.03l-.01.02v.06h-.03v-.07l.01-.02v-.02l.01-.03.01-.02V5.4l.01-.02.01-.02.02-.02.01-.02.01-.02.01-.02.02-.01.02-.02.01-.01.02-.02.02-.01.01-.02.02-.01.02-.01.02-.01.02-.01.03-.01.02-.01h.02l.02-.01h.05l.02-.01h.03z" class="fil0"/></g><g><path fill="#d8ece4" d="M1.4 5.44c.14 0 .25.12.25.25 0 .14-.11.25-.25.25s-.25-.11-.25-.25c0-.13.11-.25.25-.25z"/><path id="1" d="M1.66 5.69h-.03v-.05l-.01-.02V5.6l-.01-.01v-.01l-.01-.01-.01-.01v-.01h-.01l-.01-.01v-.01l-.01-.01-.01-.01h-.01l-.01-.01-.01-.01h-.01l-.01-.01h-.01l-.01-.01h-.02l-.01-.01H1.4v-.03h.04l.01.01h.03l.01.01h.01l.01.01h.02l.01.01h.01l.01.01.01.01.01.01.01.01.01.01v.01l.01.01.01.01.01.01v.01l.01.01v.01l.01.01v.02l.01.01V5.69zm-.26.27v-.03h.04l.01-.01h.03l.01-.01h.01l.01-.01h.01l.01-.01.01-.01h.01l.01-.01.01-.01v-.01l.01-.01h.01v-.01l.01-.01.01-.01V5.8l.01-.01v-.03l.01-.01v-.06h.03v.07l-.01.01v.02l-.01.01v.01l-.01.01v.01l-.01.01-.01.01-.01.01v.01l-.01.01-.01.01-.01.01-.01.01h-.01l-.01.01-.01.01h-.02l-.01.01h-.01l-.01.01h-.03l-.01.01H1.4zm-.27-.27h.03l.01.02v.04l.01.01v.03l.01.01v.01l.01.01v.01l.01.01h.01l.01.01v.01l.01.01.01.01h.01l.01.01.01.01h.01l.01.01h.01l.01.01h.03l.01.01h.04v.03h-.04l-.01-.01h-.03l-.01-.01H1.3l-.02-.01h-.01l-.01-.01-.01-.01h-.01l-.01-.01-.01-.01-.01-.01-.01-.01-.01-.01v-.01l-.01-.01-.01-.01v-.01l-.01-.01V5.8l-.01-.01v-.02l-.01-.01v-.04l-.01-.01v-.02zm.27-.26v.03h-.05l-.01.01h-.02l-.01.01H1.3l-.01.01h-.01l-.01.01-.01.01h-.01l-.01.01-.01.01v.01l-.01.01h-.01l-.01.01v.01l-.01.01v.01l-.01.01v.02l-.01.02v.04l-.01.01h-.03v-.01l.01-.01v-.04l.01-.01V5.6l.01-.01v-.01l.01-.01v-.01l.01-.01.01-.01v-.01l.01-.01.01-.01.01-.01.01-.01.01-.01.01-.01h.01l.01-.01h.01l.02-.01h.01l.01-.01h.03l.01-.01h.04z" class="fil0"/></g><g><path d="M3.06 5.22c.14 0 .25.11.25.25s-.11.25-.25.25-.25-.11-.25-.25.11-.25.25-.25z" class="fil3"/><path id="1" d="M3.32 5.47h-.03V5.41l-.01-.01v-.01l-.01-.01v-.02l-.01-.01-.01-.01v-.01l-.01-.01-.01-.01-.01-.01v-.01h-.01l-.01-.01-.01-.01h-.01l-.01-.01h-.01l-.01-.01h-.01l-.01-.01h-.04l-.01-.01h-.02V5.2h.03l.01.01h.04l.01.01h.01l.01.01h.02l.01.01.01.01h.01l.01.01.01.01.01.01.01.01v.01l.01.01.01.01.01.01v.01l.01.01v.01l.01.02v.01l.01.01v.07zm-.26.26V5.7h.05l.01-.01h.02l.01-.01h.01l.01-.01h.01l.01-.01h.01l.01-.01.01-.01v-.01h.01l.01-.01.01-.01V5.6l.01-.01.01-.01v-.02l.01-.01v-.01l.01-.01V5.47h.03V5.53l-.01.02v.01l-.01.01v.01l-.01.01v.01l-.01.02-.01.01-.01.01v.01h-.01l-.01.01-.01.01-.01.01-.01.01H3.2l-.01.01-.02.01h-.01l-.01.01h-.03l-.01.01h-.05zm-.27-.26h.03v.01l.01.01v.05l.01.01v.01l.01.01v.01l.01.01v.01l.01.01.01.01v.01h.01l.01.01.01.01.01.01h.01l.01.01h.01l.01.01h.01l.01.01H3l.01.01h.05v.03h-.05l-.02-.01h-.02l-.01-.01h-.02l-.01-.01-.01-.01h-.01l-.01-.01-.01-.01-.01-.01-.01-.01h-.01l-.01-.01v-.01l-.01-.01-.01-.02v-.01l-.01-.01-.01-.01v-.02l-.01-.02v-.02l-.01-.02v-.02zm.27-.27v.03h-.03l-.01.01h-.03l-.01.01h-.01l-.01.01h-.01l-.01.01h-.01l-.01.01-.01.01H2.9l-.01.01-.01.01v.01l-.01.01-.01.01v.01l-.01.01v.01l-.01.01v.01l-.01.01v.04l-.01.02v.01h-.03v-.03l.01-.01V5.4l.01-.01v-.03l.01-.01.01-.01v-.01l.01-.01.01-.01V5.3l.01-.01.01-.01.01-.01.01-.01.01-.01h.01l.01-.01.01-.01h.01l.02-.01h.01l.01-.01h.04l.01-.01h.03z" class="fil0"/></g><g><path d="M.82 5.14c.14 0 .25.11.25.25s-.11.25-.25.25-.25-.11-.25-.25.11-.25.25-.25z" class="fil2"/><path id="1" d="M1.09 5.39h-.03v-.02l-.01-.01v-.04l-.01-.01V5.3l-.01-.01v-.01l-.01-.01v-.01l-.01-.01L1 5.24v-.01H.99l-.01-.01-.01-.01-.01-.01H.95l-.01-.01H.93l-.01-.01H.91L.9 5.17H.88l-.01-.01H.82v-.03h.06l.01.01h.02l.02.01h.01l.01.01.01.01h.01l.01.01.01.01.01.01.01.01h.01l.01.01v.01l.01.01.01.02.01.01v.01l.01.01v.01l.01.01v.04l.01.02v.02zm-.27.27v-.03h.03l.01-.01h.03l.01-.01h.01l.01-.01h.01l.01-.01h.01l.01-.01.01-.01h.01l.01-.01.01-.01v-.01l.01-.01.01-.01v-.01l.01-.01v-.01l.01-.01v-.01l.01-.01v-.03l.01-.01v-.03h.03v.03l-.01.01v.04l-.01.01v.02l-.01.01v.01l-.01.01-.01.01-.01.01v.01l-.01.01-.01.01-.01.01-.01.01-.01.01H.97l-.01.01-.01.01H.94l-.01.01H.91l-.01.01H.86l-.01.01H.82zm-.26-.27h.03V5.45l.01.01v.01l.01.01v.01l.01.01v.01l.01.01v.01l.01.01.01.01.01.01v.01h.01l.01.01.01.01H.7l.01.01h.01l.01.01h.01l.01.01h.04l.01.01h.02v.03H.8l-.02-.01H.74l-.01-.01H.72l-.01-.01H.7l-.02-.01-.01-.01H.66L.65 5.6l-.01-.01-.01-.01v-.01l-.01-.01-.01-.01-.01-.01v-.01l-.01-.01-.01-.01V5.5l-.01-.02v-.02l-.01-.01v-.06zm.26-.26v.03H.77l-.01.01H.74l-.01.01H.72l-.01.01H.7l-.01.01H.68l-.01.01-.01.01v.01H.65l-.01.01-.01.01v.01l-.01.01v.01l-.01.01v.01l-.01.01v.01l-.01.01V5.39H.56v-.05l.01-.01V5.3l.01-.01v-.01l.01-.01.01-.01v-.02l.01-.01.01-.01.01-.01.01-.01.01-.01.01-.01.01-.01h.01l.02-.01.01-.01h.01l.01-.01h.03l.01-.01h.05z" class="fil0"/></g><g><path d="M.27 3.83c.13 0 .25.11.25.25 0 .13-.12.25-.25.25-.14 0-.25-.12-.25-.25 0-.14.11-.25.25-.25z" class="fil4"/><path id="1" d="M.53 4.08H.5v-.05l-.01-.01V4l-.01-.01v-.01l-.01-.02-.01-.01-.01-.01v-.01l-.01-.01-.01-.01-.01-.01H.41v-.01L.4 3.88H.39l-.01-.01H.37l-.01-.01H.35l-.01-.01H.31L.3 3.84H.27v-.03h.04l.01.01h.02l.02.01h.01l.01.01h.01l.01.01.01.01h.01l.01.01.01.01.01.01.01.01.01.01.01.01.01.01v.01l.01.01v.01l.01.01v.02L.52 4v.02l.01.02v.04zm-.26.26v-.03h.04l.01-.01h.03l.01-.01h.01l.01-.01h.01l.01-.01.01-.01.01-.01.01-.01.01-.01h.01v-.01l.01-.01.01-.01v-.01l.01-.01v-.01l.01-.01v-.02l.01-.02v-.04h.03v.04l-.01.01v.03l-.01.01v.01l-.01.01v.01l-.01.01v.02l-.01.01-.01.01-.01.01H.45l-.01.01-.01.01-.01.01-.01.01H.4l-.01.01-.01.01H.37l-.01.01H.33l-.01.01H.27zM0 4.08h.03v.03l.01.01v.04l.01.01v.01l.01.01v.01l.01.01.01.01v.01h.01l.01.01.01.01.01.01.01.01.01.01h.01l.01.01h.01l.01.01h.03l.01.01h.05v.03H.21L.2 4.33H.17l-.01-.01H.15l-.01-.01-.01-.01H.12l-.01-.01-.01-.01-.01-.01-.01-.01H.07l-.01-.01-.01-.01v-.01l-.01-.02-.01-.01v-.01l-.01-.01v-.01l-.01-.01v-.03L0 4.12v-.04zm.27-.27v.03H.23l-.01.01H.2l-.02.01H.17l-.01.01H.15l-.01.01H.13l-.01.01v.01H.11l-.01.01-.01.01-.01.01v.01l-.01.01-.01.01-.01.02v.01L.04 4v.03l-.01.01v.04H0v-.04l.01-.02V4l.01-.01v-.02l.01-.01v-.01l.01-.01.01-.01v-.01l.01-.01.01-.01.01-.01.01-.01.01-.01.01-.01h.01l.01-.01.01-.01h.01l.01-.01h.01l.02-.01h.02l.01-.01h.05z" class="fil0"/></g></g></g></svg>