<svg xmlns="http://www.w3.org/2000/svg" width="121" height="64" fill-rule="evenodd" clip-rule="evenodd" image-rendering="optimizeQuality" shape-rendering="geometricPrecision" text-rendering="geometricPrecision" viewBox="0 0 20.32 10.69"><defs><style>.fil6{fill:#c5e3d7}.fil2{fill:#99cfba}.fil1{fill:#2b2a29;fill-rule:nonzero}</style></defs><g id="Слой_x0020_1"><g id="_829059328"><path fill="#c4d985" d="M12.27 8.26c.24.25.64.26.89.02l5.96-5.72c.25-.24.26-.65.02-.9-.24-.25-.64-.26-.89-.02l-5.96 5.73c-.25.24-.26.64-.02.89z"/><path id="1" d="M12.27 8.26l.02-.02-.02.02zm.87 0l.04.04-.02.02-.03.02-.03.02-.02.02-.03.02-.03.01-.03.02-.03.01-.03.01-.03.01-.03.01h-.03l-.04.01h-.18l-.04-.01-.03-.01-.03-.01-.03-.01-.03-.01-.03-.01-.03-.02-.02-.01-.03-.02-.03-.02-.02-.02-.03-.02-.02-.03.04-.04.02.02.02.02.03.02.02.02.03.02.02.01.03.02.02.01.03.01.03.01.03.01h.03l.02.01h.03l.03.01h.09l.03-.01h.03l.03-.01h.02l.03-.01.03-.01.03-.01.02-.02.03-.01.03-.02.02-.01.02-.02.03-.02.02-.02zm6-5.68L13.18 8.3l-.04-.04 5.96-5.72.04.04zm-.02-.9l.04-.04.02.03.03.02.02.03.01.03.02.03.02.03.01.02.01.03.01.03.01.04.01.03v.03l.01.03v.19l-.01.03-.01.03-.01.03-.01.03-.01.03-.01.03-.02.03-.01.03-.02.03-.02.02-.02.03-.02.02-.03.03-.04-.04.02-.03.03-.02.01-.02.02-.03.02-.02.01-.03.02-.02.01-.03.01-.03.01-.03.01-.02v-.03l.01-.03v-.03l.01-.03v-.09l-.01-.02V2l-.01-.03v-.03l-.01-.03-.01-.03-.01-.02-.02-.03-.01-.03-.01-.02-.02-.03-.02-.02-.02-.02-.02-.03zm.04-.04l-.04.04.04-.04zm-.89.03l-.04-.05.02-.02.03-.02.03-.02.02-.02.03-.01.03-.02.03-.01.03-.02.03-.01.03-.01h.03l.03-.01h.03l.04-.01h.09l.03.01h.03l.03.01h.04l.03.01.03.01.03.01.03.02.02.01.03.02.03.02.03.02.02.02.03.02.02.02-.04.04-.02-.02-.02-.02-.03-.02-.02-.02-.03-.01-.02-.02-.03-.01-.03-.01-.02-.01-.03-.01-.03-.01-.03-.01h-.03l-.02-.01h-.15l-.03.01h-.03l-.02.01-.03.01-.03.01-.03.01-.02.01-.03.02-.03.01-.02.02-.03.02-.02.01-.02.03zm-6 5.68l5.96-5.73.04.05-5.96 5.72-.04-.04zm.02.89l-.04.04-.03-.02-.02-.03-.02-.03-.01-.02-.02-.03-.02-.03-.01-.03-.01-.03-.01-.03-.01-.03-.01-.03-.01-.03v-.07l-.01-.03v-.03l.01-.03v-.06l.01-.03.01-.04.01-.03.01-.03.01-.03.01-.03.02-.02.01-.03.02-.03.02-.03.02-.02.02-.03.03-.02.04.04-.03.02-.02.02-.02.03-.01.02-.02.03-.01.02-.02.03-.01.03-.01.02-.01.03-.01.03-.01.03v.03l-.01.02v.12l.01.03v.03l.01.03v.02l.01.03.01.03.01.03.01.02.02.03.01.03.02.02.02.03.02.02.02.02z" class="fil1"/><path d="M11.28 9.42c-.01.11-.07.22-.16.32-.18.17-.43.2-.56.06-.13-.13-.09-.38.09-.55.1-.09.22-.14.33-.15l1.95-1.87.3.31-1.95 1.88zm-.19-.12c.07.08.04.23-.08.34-.11.11-.27.14-.34.06-.08-.08-.04-.23.07-.34.12-.11.28-.14.35-.06z" class="fil2"/><path id="1" d="M11.14 9.76l-.04-.04.01-.01V9.7l.01-.01.01-.01.01-.01.01-.01.01-.01.01-.01v-.01l.01-.01v-.01l.01-.01v-.01l.01-.01.01-.01v-.02l.01-.01v-.01l.01-.01V9.5l.01-.01v-.04h.01v-.03h.06v.01l-.01.01v.05l-.01.01v.02l-.01.01v.02l-.01.01v.02l-.01.01v.01l-.01.01-.01.01v.01l-.01.01v.01l-.01.01-.01.01-.01.01v.01l-.01.01-.01.01-.01.01-.01.01-.01.01v.01l-.01.01zm-.6.06l.04-.04.01.01.02.01.01.01.01.01.01.01.02.01h.01l.02.01h.03l.01.01H10.82l.02-.01h.03l.02-.01h.02l.01-.01.02-.01.02-.01.02-.01.02-.01.01-.01.02-.01.02-.01.01-.01.02-.02.02-.01.04.04-.02.01-.02.02-.02.01-.02.02-.02.01-.02.01-.01.01-.02.01-.02.01-.02.01-.02.01-.02.01h-.03l-.02.01h-.04l-.02.01h-.05l-.02-.01h-.04l-.02-.01h-.02l-.02-.01-.01-.01-.02-.01-.01-.01-.02-.01-.01-.01-.02-.02zm.09-.59l.04.04-.02.02-.01.01-.01.02-.02.02-.01.01-.01.02-.01.02-.01.02-.01.01-.01.02-.01.02v.02l-.01.01v.02l-.01.02v.15l.01.01v.02l.01.01.01.01v.02l.01.01.01.01.01.01-.04.04-.01-.01-.01-.02-.01-.01-.01-.02-.01-.01-.01-.02v-.02l-.01-.02v-.02l-.01-.01V9.54l.01-.02V9.5l.01-.02v-.02l.01-.02.01-.02.01-.02.01-.02.01-.02.01-.02.01-.02.02-.02.01-.01.02-.02.01-.02.02-.02zm.33-.15l.04.04-.02.01h-.03l-.01.01h-.04l-.01.01h-.02l-.01.01h-.02l-.01.01h-.01l-.01.01h-.01l-.01.01h-.01l-.01.01h-.01l-.01.01h-.01l-.01.01-.01.01v.01h-.01l-.01.01-.01.01-.01.01h-.01l-.04-.04.01-.01h.01l.01-.01.01-.01.01-.01.01-.01h.01l.01-.01.01-.01.01-.01h.01l.01-.01h.01l.02-.01.01-.01h.01l.01-.01h.02l.01-.01h.01l.01-.01h.04l.01-.01h.07-.02zm.04.04l-.01.01h-.01l.02-.01zm1.95-1.87L11 9.12l-.04-.04 1.95-1.87h.04v.04zm-.04-.04l.02-.02.02.02h-.04zm.3.35l-.3-.31.04-.04.3.31v.04h-.04zm.04-.04l.02.02-.02.02v-.04zM11.26 9.4l1.95-1.88.04.04-1.95 1.88-.05-.02.01-.02zm-.01.02v-.01l.01-.01-.01.02zm-.22.24l-.04-.04.01-.01.01-.01.01-.01.01-.01.01-.01.01-.01v-.01l.01-.01.01-.01v-.02l.01-.01v-.01l.01-.01v-.02l.01-.01v-.08l-.01-.01v-.02h-.01v-.01l-.01-.01.04-.04.01.01.01.01v.01l.01.01v.01l.01.01v.02l.01.01v.07l-.01.01v.03l-.01.01v.02l-.01.02-.01.01v.01l-.01.02-.01.01-.01.01v.01l-.01.01-.01.02-.01.01-.01.01-.02.01zm-.38.06l.04-.04v.01h.01l.01.01.01.01h.02l.01.01H10.81l.01-.01h.03l.01-.01h.01l.02-.01h.01l.01-.01h.01l.01-.01.01-.01h.01l.01-.01.01-.01.01-.01.01-.01.04.04-.01.01-.01.01-.01.01-.01.01-.02.01-.01.01-.01.01h-.01l-.02.01-.01.01h-.01l-.02.01h-.02l-.02.01h-.12l-.01-.01h-.01l-.01-.01h-.01l-.01-.01-.01-.01-.01-.01zm.07-.38l.04.04-.01.01-.01.01-.01.01v.01l-.01.01-.01.01-.01.01v.01l-.01.01v.02l-.01.01v.01l-.01.01v.01l-.01.01V9.64l.01.01v.01l.01.01v.01h.01l-.04.04-.01-.01-.01-.01v-.01l-.01-.01-.01-.01v-.02l-.01-.01v-.09l.01-.01v-.03l.01-.01v-.01l.01-.02v-.01l.01-.01.01-.02.01-.01v-.01l.01-.01.01-.01.01-.02.01-.01.01-.01.01-.01zm.39-.06l-.04.04-.01-.01-.01-.01h-.01v-.01h-.03v-.01H10.95l-.01.01h-.03l-.02.01h-.01l-.01.01h-.01l-.01.01h-.01l-.01.01-.01.01h-.01l-.02.01-.01.01-.01.01-.01.01-.04-.04.02-.01.01-.01.01-.01.01-.01.01-.01.02-.01.01-.01h.01l.02-.01.01-.01h.01l.02-.01h.02l.01-.01H11.04l.01.01h.01l.01.01h.01l.01.01.01.01.01.01z" class="fil1"/><path d="M19.08 1.59c.25-.22.59-.32.85-.26.17.03.31.14.37.33.05.17.03.41-.11.73-.42 1.02-2.03 2.96-6.27 6.26-.07.12-.06.2.01.24.18.1.59.09 1.13-.01.21-.04.43-.09.67-.15.44-.32.89-.68 1.33-1.03.81-.65 1.57-1.25 2.13-1.53.43-.21.76-.23.9.07l.01.01c.26.74-1.38 1.68-3.06 2.29-.42.15-.84.28-1.23.38-.88.64-1.71 1.13-2.28 1.07-.56-.06-.86-.6-.71-1.95l.2.02c-.13 1.2.1 1.69.53 1.73.43.05 1.06-.28 1.75-.75-.07.01-.14.03-.2.04-.59.1-1.05.11-1.27-.02-.18-.11-.22-.28-.07-.53l.01-.02.01-.01C18 5.22 19.6 3.31 20.01 2.32c.11-.28.13-.47.1-.6-.04-.11-.12-.18-.22-.2-.2-.04-.48.05-.69.22l-.12-.15zm-2.83 7c.24-.07.48-.15.72-.24 1.59-.57 3.15-1.42 2.94-2.02-.08-.17-.31-.14-.63.02-.54.26-1.29.87-2.1 1.5-.3.25-.61.5-.93.74z" class="fil1"/><g><path fill="#a1b567" d="M15.45 4.88l.51.53c.19.2-.03.28-.2.48l-2.45 2.76c-.18.2-.5.18-.68-.02l-.72-.74c-.18-.19-.19-.51.01-.68l2.85-2.34c.2-.17.5-.18.68.01z"/><path id="1" d="M15.94 5.43l-.51-.53.04-.04.51.53-.04.04zm-.16.48l-.05-.04.02-.02.02-.01.02-.02.01-.02.02-.01.02-.02.01-.01.02-.02.01-.01.02-.02.01-.01.02-.02.01-.01.01-.01.01-.01.01-.02.01-.01.01-.01V5.6l.01-.01v-.02l.01-.02v-.01L16 5.53v-.02l-.01-.02-.01-.01-.01-.01-.01-.02-.02-.02.04-.04.02.02.02.02.01.02.01.02.01.02.01.01v.09l-.01.02v.01l-.01.02-.01.01-.01.02-.01.01-.02.02-.01.01-.01.01-.02.02-.01.01-.02.02-.01.01-.02.02-.01.01-.02.02-.02.01-.01.02-.02.02-.02.01-.01.02zm-2.49 2.72l2.44-2.76.05.04-2.45 2.76-.04-.04zm-.68.02l.04-.03.01.01.02.02.02.01.02.02.02.01.02.01.02.01.02.01.02.01.02.01h.02l.02.01h.02l.03.01h.11l.02-.01h.02l.02-.01h.02l.02-.01.02-.01.02-.01.02-.01.02-.01.02-.01.01-.02.02-.01.02-.02.04.04-.02.02-.02.01-.02.02-.02.02-.02.01-.02.01-.02.01-.03.01-.02.01-.02.01-.03.01h-.05l-.02.01h-.05l-.03-.01h-.05l-.02-.01h-.03l-.02-.01-.02-.01-.03-.01-.02-.01-.02-.01-.02-.01-.03-.02-.02-.01-.02-.02-.02-.02-.01-.02zm-.68-.78l.72.75-.04.03-.72-.74.04-.04zm-.02-.68l.03.04-.02.01-.01.02-.02.02-.01.01-.01.02-.01.02-.02.02v.02l-.01.02-.01.02-.01.02v.02l-.01.02v.14l.01.02v.02l.01.02v.02l.01.03.01.02.01.02.01.02.01.02.02.02.01.01.01.02.02.02-.04.04-.02-.02-.01-.02-.02-.02-.01-.02-.02-.02-.01-.03-.01-.02-.01-.02-.01-.03-.01-.02v-.03l-.01-.02v-.03l-.01-.02v-.08l.01-.02v-.05l.01-.02.01-.03v-.02l.01-.02.01-.03.02-.02.01-.02.01-.02.02-.02.02-.02.02-.02.02-.01zm2.88-2.3l-2.85 2.34-.03-.04 2.84-2.35.04.05zm.68-.03l-.04.04-.02-.02-.01-.01-.02-.02-.02-.01-.02-.01-.02-.01-.02-.01-.01-.01-.02-.01-.03-.01h-.02l-.02-.01h-.17l-.02.01h-.02l-.02.01-.02.01h-.02l-.03.01-.02.01-.02.01-.02.02-.01.01-.02.01-.02.02-.04-.05.02-.01.02-.02.02-.01.03-.01.02-.02.02-.01.02-.01.03-.01.02-.01h.02l.03-.01h.02l.03-.01h.14l.02.01h.03l.02.01.02.01.03.01.02.01.02.01.02.01.02.01.02.02.02.01.02.02.02.02z" class="fil1"/></g><g><path fill="#f08bb2" d="M8.33.03h-.22c-.32 0-.59.26-.58.58l.14 4.13c0 .04.01.07.02.09h1.05c0-.03.01-.06.01-.09L8.92.61c.01-.32-.27-.58-.59-.58z"/><path id="1" d="M8.11.06V0h.22v.06h-.22zM7.5.62v-.1l.01-.03V.46l.01-.03.01-.03.01-.02.01-.03.02-.03.01-.02.02-.03.02-.02.01-.03.02-.02.02-.02.03-.02.02-.02.02-.02.03-.01.02-.02.03-.02.03-.01.02-.01.03-.01.03-.01.03-.01.03-.01h.03L8.05 0h.06v.06h-.08L8 .07h-.03l-.02.01-.03.01-.03.01-.02.01-.02.01-.03.02-.02.01-.02.02-.02.01-.03.02-.02.02-.01.02-.02.02-.02.02-.01.02-.02.03-.01.02-.01.02-.02.03-.01.02v.03l-.01.03-.01.02v.06l-.01.03.01.02-.06.01zm.2 4.12h-.06L7.5.62l.06-.01.14 4.13zm-.01.12l-.03-.02v-.02h-.01v-.04l-.01-.01v-.03h.06v.05h.01v.03l-.02-.02v.06zm0 0h-.02l-.01-.02.03.02zm1.05-.06l.03.04-.03.02H7.69V4.8h1.05zm.03.04l-.01.02h-.02l.03-.02zm.01-.1v.04h-.01V4.84l-.06-.02V4.8h.01V4.74h.06zM8.89.61l.05.01-.16 4.12h-.06L8.89.61zM8.33 0h.06l.03.01h.03l.03.01.03.01.03.01.03.01.03.01.02.01.03.02.03.02.02.01.02.02.03.02.02.02.02.02.02.02.02.03.01.02.02.03.02.02.01.03.01.03.01.02.01.03.01.03.01.03v.13L8.89.61V.56L8.88.53V.5L8.87.48V.45L8.86.42 8.85.4 8.84.37 8.83.35 8.81.33 8.8.3 8.78.28 8.76.26 8.75.24 8.73.22 8.71.2 8.69.18 8.67.17 8.64.15 8.62.14 8.6.12 8.57.11 8.55.1 8.52.09 8.5.08 8.47.07h-.03L8.41.06h-.08V0z" class="fil1"/><path fill="#6fa691" fill-rule="nonzero" d="M8.2 6.33l-5.71.22h-.01c-.7 0-1.2.38-1.45.87-.12.22-.18.46-.2.71-.01.24.02.49.11.71.19.46.62.83 1.34.92l5.82.11-.01.79-5.89-.11h-.01C1.14 10.43.49 9.85.2 9.13.06 8.8.01 8.44.03 8.08c.03-.36.12-.71.29-1.03.38-.73 1.12-1.29 2.14-1.3l5.71-.22.03.8z"/><path id="1" d="M2.49 6.52L8.2 6.3v.06l-5.71.21v-.05zm0 .05zm-.01-.05h.01v.05h-.01v-.05zm0 0zm-1.43.91L1 7.4l.03-.04.03-.05.02-.04.03-.05.03-.04.04-.04.03-.04.03-.04.04-.04.04-.04.04-.04.04-.03.04-.04.04-.03.05-.03.04-.03.05-.03.05-.03.05-.03.05-.02.05-.02.06-.02.05-.02.06-.02.05-.02.06-.01.06-.01.06-.01.07-.01.06-.01h.13v.05l-.06.01h-.07l-.06.01h-.06l-.06.01-.06.02-.05.01-.06.01-.05.02-.05.02-.06.02-.05.02-.05.03-.04.02-.05.03-.05.02-.04.03-.04.03-.05.04-.04.03-.03.03-.04.04-.04.04-.03.03-.04.04-.03.04-.03.04-.03.04-.03.05-.03.04-.02.04-.03.05zm-.19.7H.8V8.1l.01-.02v-.07l.01-.02v-.05l.01-.03v-.02l.01-.02v-.02l.01-.03V7.8l.01-.02.01-.03v-.02l.01-.02.01-.02v-.03l.01-.02.01-.02.01-.02.01-.03v-.02l.01-.02.01-.02.01-.02.01-.02.01-.03.01-.02L1 7.4l.05.03-.01.02-.01.02-.01.02-.01.02-.01.02v.02l-.01.02-.01.02-.01.03-.01.02-.01.02v.02l-.01.02-.01.02v.03l-.01.02-.01.02v.02l-.01.03v.02l-.01.02v.02l-.01.03v.04l-.01.02v.07l-.01.02v.05zm.11.7l-.06.02v-.02L.9 8.81l-.01-.03-.01-.02v-.02l-.01-.02-.01-.02v-.03l-.01-.02v-.02l-.01-.02v-.02l-.01-.03v-.02l-.01-.02v-.05l-.01-.02v-.07L.8 8.36V8.13h.06V8.4l.01.02v.04l.01.03v.04l.01.02v.02l.01.03v.02l.01.02v.02l.01.02v.02l.01.02.01.02v.03l.01.02.01.02.01.02zm1.31.9v.05H2.21l-.07-.01-.06-.02-.07-.01-.06-.02-.06-.01-.05-.02-.06-.02-.05-.02-.06-.03-.05-.02-.05-.03-.04-.02-.05-.03-.04-.03-.05-.03-.04-.03-.04-.03-.04-.04-.03-.03-.04-.04-.03-.03-.03-.04-.04-.04-.02-.04-.03-.04-.03-.04L1 9.02l-.03-.04-.02-.05-.02-.04-.02-.04.06-.02.01.04.02.04.02.04.03.04.02.04.03.04.02.04.03.04.03.03.03.04.03.03.04.04.03.03.04.03.04.03.04.03.04.03.04.03.04.03.05.02.05.03.05.02.05.02.05.03.06.01.05.02.06.02.06.01.06.02.06.01.06.01.07.01zm0 .05h-.01.01zm5.82.11l-5.82-.11v-.05l5.82.11.03.03-.03.02zm0-.05h.03v.03l-.03-.03zm-.04.82l.02-.79h.05l-.01.79-.03.03-.03-.03zm.06 0v.03h-.03l.03-.03zm-5.92-.13l5.89.11v.05l-5.89-.11v-.05zm0 .05zm0-.06V10.58h-.01l.01-.06zm-.01.06h.01-.01zM.17 9.15l.06-.03.02.07.03.07.03.06.04.06.04.07.03.06.04.06.05.05.04.06.05.06.05.05.05.06.05.05.06.05.06.05.06.04.06.05.06.04.07.04.07.04.07.04.07.04.08.03.08.03.08.03.08.03.09.03.08.02.09.02.09.02.1.01.1.01-.01.06-.1-.01-.09-.02-.1-.02-.09-.02-.09-.02-.09-.02-.08-.03-.08-.03-.08-.04-.08-.03-.08-.04-.07-.04-.07-.04-.07-.04-.06-.04-.07-.05-.06-.05-.06-.05-.06-.05-.05-.05-.05-.06-.05-.05-.05-.06-.05-.06-.04-.06-.04-.06-.04-.07-.04-.06-.04-.06-.03-.07-.03-.07-.03-.06zM0 8.08h.06V8.41l.01.04v.06l.01.04v.03l.01.03v.03l.01.04v.03l.01.03.01.03v.04l.01.03.01.03.01.03.01.04.01.03.01.03.01.03.01.03.01.03.02.03-.06.03-.01-.04-.01-.03-.01-.03-.01-.03-.02-.04-.01-.03-.01-.03v-.03l-.01-.04-.01-.03-.01-.03-.01-.04v-.03l-.01-.03-.01-.04v-.03l-.01-.03v-.07l-.01-.04v-.06L0 8.38V8.08zm.3-1.05l.05.03-.02.03-.01.03-.02.03-.01.03-.02.03-.01.03-.01.03-.01.03-.02.03-.01.04-.01.03-.01.03-.01.03-.01.03-.01.03-.01.04-.01.03-.01.03v.03l-.01.04-.01.03-.01.03v.03l-.01.04v.03l-.01.03v.04l-.01.03v.06l-.01.04v.03H0l.01-.04v-.06l.01-.04v-.03l.01-.04v-.03l.01-.03v-.04l.01-.03.01-.03v-.04l.01-.03.01-.03.01-.04.01-.03v-.03l.01-.03.01-.04.02-.03.01-.03.01-.03.01-.04.01-.03.02-.03.01-.03.01-.03.02-.03.01-.03.02-.04.01-.03.02-.03zm2.16-1.31v.06h-.09l-.09.01h-.09l-.09.02-.09.01-.09.02-.08.02-.08.02-.08.03-.08.03-.08.03-.07.03-.08.03-.07.04-.07.04-.07.04-.06.05-.06.04-.07.05-.06.05-.05.05-.06.06-.05.05-.06.06-.05.06-.05.05-.04.07-.05.06-.04.06-.04.07-.04.06-.03.07-.05-.03.03-.07.04-.06.04-.07.05-.06.04-.07.05-.06.05-.06.05-.06.05-.06.06-.05.06-.06.06-.05.06-.05L1 6.2l.07-.05.06-.04.07-.05.07-.04.08-.04.07-.03.08-.04.08-.03.08-.03.08-.02.08-.03.09-.02.09-.01.09-.02.09-.01.09-.01.1-.01h.09zm0 .06zm5.71-.22l-5.71.22v-.06l5.71-.22.03.03-.03.03zm0-.06h.03v.03l-.03-.03zm0 .83l-.03-.8h.06l.03.8-.03.03-.03-.03zm.06 0v.02l-.03.01.03-.03z" class="fil1"/><path d="M8.32 5.2H8l-.27.43c-.03.05-.48-.02-.48.04v.48c0 .07.05.12.12.12h.95c.07 0 .12-.05.12-.12v-.83c0-.07-.05-.12-.12-.12z" class="fil2"/><path id="1" d="M8 5.23l-.02-.05.02-.01h.32v.06H8zm-.02-.05l.01-.01H8l-.02.01zm-.22.46l-.05-.03.27-.43.05.03-.27.43zm-.54.03v-.02l.01-.01.02-.01h.01l.01-.01H7.69l.01-.01h.01l.05.03-.01.01-.01.01-.02.01h-.04l-.02.01h-.14l-.02-.01h-.19l-.02.01h-.02.01v-.01h-.06zm.06.48h-.06v-.48h.06v.48zm.09.15h-.03l-.01-.01h-.02l-.01-.01h-.01v-.01h-.01l-.01-.01-.01-.01-.01-.01v-.01h-.01v-.01l-.01-.01v-.02h-.01v-.04h.06v.04h.01v.01h.01v.01l.01.01.01.01h.01l.01.01h.03v.06zm.95-.06v.06h-.95v-.06h.95zm.15-.09v.04h-.01v.02l-.01.01v.01h-.01v.01l-.01.01-.01.01-.01.01H8.4v.01h-.01l-.01.01h-.02l-.01.01h-.03v-.06h.03l.01-.01h.01l.01-.01.01-.01V6.2h.01v-.01h.01v-.04h.06zm-.06-.83h.06v.83h-.06v-.83zm-.09-.15h.04l.01.01h.02v.01h.01v.01h.02v.01h.01v.01h.01v.02h.01v.01h.01v.02l.01.01v.04h-.06v-.04H8.4v-.01l-.01-.01v-.01h-.01v-.01h-.02v-.01h-.04v-.06z" class="fil1"/><path d="M8.32 9.94H7.2c-.05 0-.1.04-.1.09v.45c0 .06.05.1.1.1h1.12c.05 0 .09-.04.09-.1v-.45c0-.05-.04-.09-.09-.09z" class="fil2"/><path id="1" d="M7.2 9.97v-.06h1.12v.06H7.2zm-.13.06l.01-.01v-.03l.01-.01v-.01l.01-.01v-.01h.01v-.01h.01v-.01h.01l.01-.01h.02l.01-.01h.03v.06h-.03l-.01.01h-.01v.01h-.01v.02h-.01v.02h-.06zm.06.45h-.06v-.45h.06v.45zm.07.13h-.02l-.01-.01h-.02l-.01-.01h-.01l-.01-.01-.01-.01-.01-.01v-.01h-.01v-.01l-.01-.01v-.03l-.01-.01v-.01h.06v.02l.01.01v.01l.01.01h.01v.01h.01v.01h.03v.06zm1.12-.06v.06H7.2v-.06h1.12zm.12-.07v.03l-.01.01v.02h-.01v.01l-.01.01v.01H8.4l-.01.01-.01.01h-.01l-.01.01h-.02l-.01.01h-.01v-.06h.02v-.01h.02v-.01h.01v-.01l.01-.01v-.03h.06zm-.06-.45h.06v.45h-.06v-.45zm-.06-.12h.03v.01h.02l.01.01h.01v.01h.01v.01h.01v.01h.01v.01l.01.01V10h.01v.03h-.06V10h-.01v-.01h-.01v-.01h-.01v-.01h-.03v-.06z" class="fil1"/><g><path d="M7.93 5.88h-.18v4.38h.18z" class="fil2"/><path id="1" d="M7.75 5.91l-.03-.03.03-.03h.18v.06h-.18zm-.03-.03v-.03h.03l-.03.03zm.05 4.38l-.02.03-.03-.03V5.88h.05v4.38zm-.02.03h-.03v-.03l.03.03zm.18-.06l.03.03-.03.03h-.18v-.06h.18zm.03.03v.03h-.03l.03-.03zM7.9 5.88l.03-.03.03.03v4.38H7.9V5.88zm.03-.03h.03v.03l-.03-.03z" class="fil1"/></g><g><path d="M7.84 5.82c-.15 0-.44-.2-.45.13 0 .32.29.08.45.08.15 0 .44.25.44-.09 0-.33-.28-.12-.44-.12z" class="fil6"/><path id="1" d="M7.42 5.95h-.05v-.06l.01-.03v-.02l.01-.02.01-.02.01-.02.02-.01.01-.02h.02l.01-.01.02-.01h.08l.01.01h.04l.02.01h.02l.02.01h.02l.01.01.02.01h.04l.01.01h.03l.02.01h.01v.05h-.05l-.02-.01h-.03l-.02-.01-.02-.01h-.02l-.02-.01h-.02l-.01-.01h-.04l-.02-.01h-.08l-.01.01h-.01l-.01.01v.01l-.01.01-.01.01v.02l-.01.01v.02l-.01.03v.03zm.42.05v.05h-.01l-.02.01h-.03l-.02.01h-.01l-.02.01-.02.01h-.02l-.02.01-.01.01h-.02l-.02.01-.02.01h-.02l-.02.01H7.45l-.01-.01-.02-.01-.01-.01-.01-.02-.01-.02-.01-.02-.01-.02v-.08h.05V6l.01.02v.02l.01.01v.01l.01.01h.01v.01h.01l.01.01h.04l.01-.01h.03l.02-.01h.02l.02-.01.02-.01h.01l.02-.01.02-.01h.02l.02-.01.02-.01h.02L7.78 6h.06zm.42-.06h.05v.09l-.01.02-.01.02-.01.02-.01.02-.02.01-.01.01-.02.01H8.11l-.02-.01h-.01l-.02-.01-.02-.01h-.02L8 6.1l-.02-.01h-.02l-.01-.01-.02-.01h-.02l-.02-.01h-.03l-.01-.01h-.01V6h.05l.02.01h.02l.02.01.01.01h.02l.02.01.02.01h.02l.02.01.02.01h.01l.02.01h.02l.01.01h.05l.01-.01h.01l.01-.01h.01v-.01l.01-.01v-.02l.01-.01v-.03l.01-.02v-.03zm-.42-.09V5.8h.01l.02-.01h.03l.02-.01h.01l.02-.01h.02l.02-.01h.02l.01-.01h.02l.02-.01h.02l.02-.01h.11l.02.01.01.01.02.01.01.02.01.01.01.02.01.02.01.03v.08h-.05v-.03l-.01-.02v-.02l-.01-.02v-.02l-.01-.01v-.01l-.01-.01h-.01l-.01-.01h-.02l-.01-.01h-.03l-.01.01h-.04l-.01.01h-.02l-.02.01h-.02L8 5.82h-.01l-.02.01h-.02l-.02.01h-.02l-.02.01h-.05z" class="fil1"/></g><g><path d="M7.84 10.15c-.15 0-.44-.21-.45.12 0 .33.29.08.45.08.15 0 .44.25.44-.09 0-.33-.28-.11-.44-.11z" class="fil6"/><path id="1" d="M7.42 10.27h-.05v-.06l.01-.03v-.02l.01-.02.01-.02.01-.02.02-.01.01-.01.02-.01.01-.01h.02l.02-.01h.04l.02.01h.03l.02.01h.02l.02.01h.02l.02.01h.01l.02.01h.02l.02.01h.03l.01.01h.03v.06l-.02-.01h-.05l-.02-.01h-.01l-.02-.01H7.7l-.02-.01h-.02l-.02-.01h-.01l-.02-.01h-.02l-.02-.01H7.5l-.01.01h-.02l-.01.01v.01l-.01.01-.01.01v.02l-.01.02v.02l-.01.02v.03zm.42.05v.06H7.8l-.02.01h-.02l-.01.01h-.02l-.02.01-.02.01h-.02l-.01.01-.02.01h-.02l-.02.01h-.02l-.02.01h-.02l-.02.01h-.03l-.02-.01h-.02l-.01-.01-.02-.01-.01-.01-.01-.02-.01-.02-.01-.02-.01-.02v-.08h.05v.05l.01.02v.02l.01.01v.01l.01.01.01.01.01.01H7.53l.02-.01h.01l.02-.01h.02l.02-.01h.02l.01-.01.02-.01.02-.01h.02l.02-.01h.02l.02-.01h.01l.02-.01h.04zm.42-.06h.05v.09l-.01.02-.01.02-.01.02-.01.02-.02.01-.01.01-.02.01H8.2l-.01.01h-.04l-.02-.01h-.04l-.01-.01-.02-.01h-.02l-.02-.01-.02-.01h-.02l-.02-.01-.01-.01h-.02l-.02-.01h-.02l-.01-.01h-.04v-.06h.03l.02.01h.02l.02.01h.02l.02.01.01.01H8l.02.01.02.01h.02l.02.01.01.01h.04l.01.01H8.2l.01-.01h.01l.01-.01v-.01l.01-.01v-.01l.01-.02v-.02l.01-.03v-.03zm-.42-.08v-.06h.03l.01-.01h.04l.01-.01h.02l.02-.01h.02l.02-.01.01-.01h.02l.02-.01h.04l.02-.01h.07l.02.01h.02l.01.01.02.01.01.02.01.01.01.02.01.02.01.03v.08h-.05v-.02l-.01-.03v-.02l-.01-.02v-.01l-.01-.02v-.01h-.01l-.01-.01-.01-.01h-.11l-.01.01h-.02l-.02.01h-.02l-.02.01-.01.01h-.02l-.02.01h-.02l-.02.01h-.05l-.02.01z" class="fil1"/></g><g><path fill="#6fa691" d="M7.67 4.74v.34c0 .09.07.16.16.16h.76c.09 0 .16-.07.16-.16v-.34H7.67z"/><path id="1" d="M7.7 5.08h-.06v-.34h.06v.34zm.13.19h-.02l-.01-.01h-.03l-.01-.01h-.01l-.01-.01h-.01l-.01-.01-.01-.01H7.7v-.01l-.01-.01h-.01v-.01l-.01-.01-.01-.01v-.02l-.01-.01v-.02l-.01-.01v-.03h.06v.04h.01v.02l.01.01v.01h.01v.01h.01v.01h.01l.01.01h.01v.01h.02l.01.01h.03v.06zm.76-.06v.06h-.76v-.06h.76zm.19-.13v.04l-.01.01v.01l-.01.01v.02l-.01.01-.01.01v.01h-.01l-.01.01v.01h-.01l-.01.01-.01.01h-.01l-.01.01h-.01v.01h-.04l-.01.01h-.02v-.06h.03l.01-.01h.02v-.01h.01l.01-.01h.01v-.01h.01v-.01h.01v-.01l.01-.01v-.02h.01v-.04h.06zm-.06-.34l.03-.03.03.03v.34h-.06v-.34zm.03-.03h.03v.03l-.03-.03zm-1.08.05l-.03-.02.03-.03h1.08v.05H7.67zm-.03-.02v-.03h.03l-.03.03z" class="fil1"/></g></g></g></g></svg>