<svg xmlns="http://www.w3.org/2000/svg" width="63" height="61" fill-rule="evenodd" clip-rule="evenodd" image-rendering="optimizeQuality" shape-rendering="geometricPrecision" text-rendering="geometricPrecision" viewBox="0 0 21.51 20.82"><defs><style>.fil1{fill:#2b2a29;fill-rule:nonzero}</style></defs><g id="Слой_x0020_1"><g id="_1410045328"><path fill="#99cfba" d="M8.68 3.89h12.76v16.87H8.68z"/><path id="1" d="M21.44 3.96H8.68v-.13h12.76l.07.06-.07.07zm0-.13h.07v.06l-.07-.06zm-.06 16.93V3.89h.13v16.87l-.07.06-.06-.06zm.13 0v.06h-.07l.07-.06zm-12.83-.07h12.76v.13H8.68l-.06-.06.06-.07zm0 .13h-.06v-.06l.06.06zm.07-16.93v16.87h-.13V3.89l.06-.06.07.06zm-.13 0v-.06h.06l-.06.06z" class="fil1"/><path fill="#f08bb2" d="M.07.07h13.71v.4c-.64 0-1.16.51-1.16 1.13 0 .61.52 1.12 1.16 1.12v.6c-.64 0-1.16.5-1.16 1.12 0 .62.52 1.12 1.16 1.12v.69c-.64 0-1.16.51-1.16 1.12 0 .62.52 1.13 1.16 1.13v.73c-.64 0-1.16.5-1.16 1.12 0 .62.52 1.12 1.16 1.12v.73c-.64 0-1.16.51-1.16 1.13 0 .62.52 1.12 1.16 1.12v.73c-.64 0-1.16.5-1.16 1.12 0 .62.52 1.12 1.16 1.12v.48H.07v-.48h.01c.64 0 1.16-.5 1.16-1.12 0-.62-.52-1.12-1.16-1.12H.07v-.73h.01c.64 0 1.16-.5 1.16-1.12 0-.62-.52-1.13-1.16-1.13H.07v-.73h.01c.64 0 1.16-.5 1.16-1.12 0-.62-.52-1.12-1.16-1.12H.07V8.5h.01c.64 0 1.16-.51 1.16-1.13 0-.61-.52-1.12-1.16-1.12H.07v-.69h.01c.64 0 1.16-.5 1.16-1.12 0-.62-.52-1.12-1.16-1.12H.07v-.6h.01c.64 0 1.16-.51 1.16-1.12C1.24.98.72.47.08.47H.07v-.4z"/><path id="1" d="M13.78.13H.07V0h13.71l.07.07-.07.06zm0-.13h.07v.07L13.78 0zm-.06.47v-.4h.13v.4l-.07.07-.06-.07zm.13 0v.07h-.07l.07-.07zM12.68 1.6h-.13v-.07l.01-.06.01-.06.01-.05.01-.06.02-.06.02-.05.02-.06.02-.05.03-.05.03-.05.03-.05.04-.05.03-.04.04-.04.04-.04.05-.04.04-.04.05-.04.05-.03.05-.03.05-.03.05-.02.05-.03.06-.02.06-.02.06-.01.05-.02.07-.01.06-.01h.12v.13h-.05l-.06.01h-.06l-.05.01-.05.01-.06.02-.05.01-.05.02-.05.02-.04.03-.05.02-.04.03-.05.03-.04.03-.04.03-.04.04-.03.04-.04.03-.03.04-.03.05-.03.04-.02.04-.03.05-.02.05-.02.04-.02.05-.01.05-.01.05-.01.06-.01.05-.01.05v.06zm1.17 1.12h-.13l.06.06h-.12l-.06-.01-.07-.01-.05-.01-.06-.02-.06-.02-.06-.02-.05-.02-.05-.03-.05-.03-.05-.03-.05-.03-.05-.04-.04-.04-.05-.03-.04-.05-.04-.04-.03-.04-.04-.05-.03-.05-.03-.05-.03-.05-.02-.05-.02-.06-.02-.05-.02-.06-.01-.05-.01-.06-.01-.06-.01-.06V1.6h.13v.05l.01.05.01.06.01.05.01.05.01.05.02.05.02.05.02.04.03.05.02.04.03.04.03.05.03.04.04.03.03.04.04.04.04.03.04.03.05.03.04.03.05.02.04.03.05.02.05.02.05.01.06.02.05.01.05.01.06.01h.11l.07.07zm-.07-.07h.07v.07l-.07-.07zm-.06.67v-.6h.13v.6l-.07.07-.06-.07zm.13 0v.07h-.07l.07-.07zm-1.17 1.12h-.13v-.06l.01-.06.01-.06.01-.06.01-.06.02-.05.02-.06.02-.05.02-.05.03-.05.03-.05.03-.05.04-.05.03-.04.04-.05.04-.04.05-.04.04-.03.05-.04.05-.03.05-.03.05-.03.05-.03.05-.02.06-.02.06-.02.06-.02.05-.01.07-.01.06-.01h.12v.13h-.11l-.06.01-.05.01-.05.01-.06.01-.05.02-.05.02-.05.02-.04.02-.05.03-.04.03-.05.03-.04.03-.04.03-.04.04-.03.03-.04.04-.03.04-.03.04-.03.05-.02.04-.03.05-.02.04-.02.05-.02.05-.01.05-.01.05-.01.05-.01.05-.01.06v.05zm1.17 1.12h-.13l.06.07h-.06l-.06-.01h-.06l-.07-.02-.05-.01-.06-.01-.06-.02-.06-.02-.05-.03-.05-.02-.05-.03-.05-.03-.05-.04-.05-.03-.04-.04-.05-.04-.04-.04-.04-.04-.03-.05-.04-.04-.03-.05-.03-.05-.03-.05-.02-.06-.02-.05-.02-.05-.02-.06-.01-.06-.01-.06-.01-.06-.01-.06v-.06h.13v.06l.01.05.01.05.01.05.01.06.01.05.02.04.02.05.02.05.03.04.02.05.03.04.03.04.03.04.04.04.03.04.04.03.04.04.04.03.05.03.04.02.05.03.04.02.05.02.05.02.05.02.06.01.05.02.05.01h.06l.06.01h.05l.07.06zm-.07-.06h.07v.06l-.07-.06zm-.06.75v-.69h.13v.69l-.07.07-.06-.07zm.13 0v.07h-.07l.07-.07zm-1.17 1.12h-.13v-.06l.01-.06.01-.06.01-.06.01-.05.02-.06.02-.05.02-.06.02-.05.03-.05.03-.05.03-.05.04-.05.03-.04.04-.04.04-.05.05-.03.04-.04.05-.04.05-.03.05-.03.05-.03.05-.03.05-.02.06-.02.06-.02.06-.02.05-.01.07-.01.06-.01h.12v.13h-.11l-.06.01-.05.01-.05.01-.06.02-.05.01-.05.02-.05.02-.04.03-.05.02-.04.03-.05.03-.04.03-.04.03-.04.04-.03.04-.04.03-.03.04-.03.05-.03.04-.02.04-.03.05-.02.04-.02.05-.02.05-.01.05-.01.05-.01.05-.01.06-.01.05v.05zm1.17 1.13h-.13l.06.06h-.12l-.06-.01-.07-.01-.05-.02-.06-.01-.06-.02-.06-.02-.05-.03-.05-.02-.05-.03-.05-.03-.05-.03-.05-.04-.04-.04-.05-.04-.04-.04-.04-.04-.03-.04-.04-.05-.03-.05-.03-.05-.03-.05-.02-.05-.02-.06-.02-.05-.02-.06-.01-.06-.01-.05-.01-.06-.01-.06v-.07h.13v.06l.01.05.01.05.01.06.01.05.01.05.02.05.02.04.02.05.03.05.02.04.03.04.03.05.03.04.04.03.03.04.04.03.04.04.04.03.05.03.04.03.05.02.04.03.05.02.05.02.05.01.06.02.05.01.05.01h.06l.06.01h.05l.07.07zm-.07-.07h.07v.07l-.07-.07zm-.06.8V8.5h.13v.73l-.07.06-.06-.06zm.13 0v.06h-.07l.07-.06zm-1.17 1.12h-.13v-.06l.01-.06.01-.06.01-.06.01-.06.02-.05.02-.06.02-.05.02-.06.03-.05.03-.05.03-.04.04-.05.03-.05.04-.04.04-.04.05-.04.04-.04.05-.03.05-.03.05-.04.05-.02.05-.03.05-.02.06-.02.06-.02.06-.02.05-.01.07-.01.06-.01h.06l.06-.01v.13l-.05.01h-.06l-.06.01-.05.01-.05.01-.06.01-.05.02-.05.02-.05.02-.04.02-.05.03-.04.03-.05.02-.04.04-.04.03-.04.03-.03.04-.04.04-.03.04-.03.04-.03.04-.02.05-.03.04-.02.05-.02.05-.02.05-.01.05-.01.05-.01.05-.01.05-.01.06v.05zm1.17 1.12h-.13l.06.07h-.06l-.06-.01-.06-.01-.07-.01-.05-.01-.06-.02-.06-.01-.06-.03-.05-.02-.05-.03-.05-.02-.05-.03-.05-.04-.05-.03-.04-.04-.05-.04-.04-.04-.04-.04-.03-.05-.04-.05-.03-.04-.03-.05-.03-.05-.02-.06-.02-.05-.02-.06-.02-.05-.01-.06-.01-.06-.01-.06-.01-.06v-.06h.13v.05l.01.06.01.05.01.05.01.05.01.05.02.05.02.05.02.05.03.04.02.05.03.04.03.04.03.04.04.04.03.04.04.03.04.03.04.04.05.03.04.02.05.03.04.02.05.02.05.02.05.02.06.01.05.01.05.01.06.01h.06l.05.01.07.06zm-.07-.06h.07v.06l-.07-.06zm-.06.79v-.73h.13v.73l-.07.07-.06-.07zm.13 0v.07h-.07l.07-.07zm-1.17 1.13h-.13v-.07l.01-.06.01-.06.01-.05.01-.06.02-.06.02-.05.02-.06.02-.05.03-.05.03-.05.03-.05.04-.05.03-.04.04-.04.04-.04.05-.04.04-.04.05-.04.05-.03.05-.03.05-.03.05-.02.05-.03.06-.02.06-.02.06-.01.05-.02.07-.01h.06l.06-.01h.06v.13h-.05l-.06.01h-.06l-.05.01-.05.01-.06.02-.05.01-.05.02-.05.02-.04.03-.05.02-.04.03-.05.03-.04.03-.04.04-.04.03-.03.04-.04.04-.03.04-.03.04-.03.04-.02.04-.03.05-.02.05-.02.04-.02.05-.01.05-.01.05-.01.06-.01.05-.01.05v.06zm1.17 1.12h-.13l.06.06h-.12l-.06-.01-.07-.01-.05-.01-.06-.02-.06-.02-.06-.02-.05-.02-.05-.03-.05-.03-.05-.03-.05-.03-.05-.04-.04-.03-.05-.04-.04-.04-.04-.05-.03-.04-.04-.05-.03-.05-.03-.05-.03-.05-.02-.05-.02-.05-.02-.06-.02-.06-.01-.05-.01-.06-.01-.06-.01-.06v-.06h.13v.05l.01.05.01.06.01.05.01.05.01.05.02.05.02.05.02.04.03.05.02.04.03.05.03.04.03.04.04.04.03.03.04.04.04.03.04.03.05.03.04.03.05.02.04.03.05.02.05.02.05.01.06.02.05.01.05.01.06.01h.11l.07.07zm-.07-.07h.07v.07l-.07-.07zm-.06.8v-.73h.13v.73l-.07.07-.06-.07zm.13 0v.07h-.07l.07-.07zm-1.17 1.12h-.13v-.06l.01-.06.01-.06.01-.06.01-.06.02-.05.02-.06.02-.05.02-.05.03-.05.03-.05.03-.05.04-.05.03-.04.04-.05.04-.04.05-.04.04-.03.05-.04.05-.03.05-.03.05-.03.05-.03.05-.02.06-.02.06-.02.06-.02.05-.01.07-.01.06-.01h.12v.13h-.11l-.06.01-.05.01-.05.01-.06.01-.05.02-.05.02-.05.02-.04.02-.05.03-.04.03-.05.03-.04.03-.04.03-.04.04-.03.03-.04.04-.03.04-.03.04-.03.05-.02.04-.03.04-.02.05-.02.05-.02.05-.01.05-.01.05-.01.05-.01.05-.01.06v.05zm1.17 1.12h-.13l.06.07h-.06l-.06-.01h-.06l-.07-.02-.05-.01-.06-.01-.06-.02-.06-.02-.05-.03-.05-.02-.05-.03-.05-.03-.05-.04-.05-.03-.04-.04-.05-.04-.04-.04-.04-.04-.03-.05-.04-.04-.03-.05-.03-.05-.03-.05-.02-.06-.02-.05-.02-.05-.02-.06-.01-.06-.01-.06-.01-.06-.01-.06v-.06h.13v.06l.01.05.01.05.01.05.01.06.01.05.02.04.02.05.02.05.03.04.02.05.03.04.03.04.03.04.04.04.03.04.04.03.04.04.04.03.05.03.04.02.05.03.04.02.05.02.05.02.05.02.06.01.05.02.05.01h.06l.06.01h.05l.07.06zm-.07-.06h.07v.06l-.07-.06zm-.06.54v-.48h.13v.48l-.07.06-.06-.06zm.13 0v.06h-.07l.07-.06zM.07 17.83h13.71v.13H.07L0 17.9l.07-.07zm0 .13H0v-.06l.07.06zm.06-.54v.48H0v-.48l.07-.06.06.06zm-.13 0v-.06h.07l-.07.06zm.08.07H.07v-.13h.01v.13zm1.1-1.19h.13v.06l-.01.06-.01.06-.01.06-.01.06-.02.06-.02.05-.02.05-.02.06-.03.05-.03.05-.03.05-.04.04-.03.05-.04.04-.04.04-.05.04-.04.04-.05.03-.05.04-.05.03-.05.03-.05.02-.05.03-.06.02-.06.02-.06.01-.05.01-.07.02H.2l-.06.01H.08v-.13h.05l.06-.01h.06l.05-.01.05-.02.06-.01.05-.02.05-.02.05-.02.04-.02.05-.03.04-.02.05-.03.04-.03.04-.04.04-.03.03-.04.04-.04.03-.04.03-.04.03-.04.03-.05.02-.04.02-.05.02-.05.02-.04.01-.05.01-.06.01-.05.01-.05.01-.05v-.06zm-1.1-1.05v-.13H.2l.06.01.07.01.05.01.06.02.06.02.06.02.05.02.05.03.05.03.05.03.05.03.05.04.04.03.05.04.04.04.04.05.03.04.04.05.03.05.03.05.03.05.02.05.02.05.02.06.02.05.01.06.01.06.01.06.01.06v.06h-.13v-.05l-.01-.06-.01-.05-.01-.05-.01-.05-.01-.05-.02-.05-.02-.05-.02-.05-.02-.04-.03-.04-.03-.05-.03-.04-.03-.04-.04-.04-.03-.03-.04-.04-.04-.03-.04-.03-.05-.03-.04-.03-.05-.03-.04-.02-.05-.02-.05-.02-.05-.02-.06-.01-.05-.01-.05-.01-.06-.01H.08zm-.01-.13h.01v.13H.07L0 15.18l.07-.06zm0 .13H0v-.07l.07.07zm.06-.8v.73H0v-.73l.07-.07.06.07zm-.13 0v-.07h.07l-.07.07zm.08.06H.07v-.13h.01v.13zm1.1-1.18h.13v.06l-.01.06-.01.06-.01.06-.01.05-.02.06-.02.06-.02.05-.02.05-.03.05-.03.05-.03.05-.04.05-.03.04-.04.05-.04.04-.05.04-.04.03-.05.04-.05.03-.05.03-.05.03-.05.03-.05.02-.06.02-.06.02-.06.02-.05.01-.07.01-.06.01H.08v-.13h.11l.06-.01.05-.01.05-.01.06-.02.05-.01.05-.02.05-.02.04-.03.05-.02.04-.03.05-.03.04-.03.04-.03.04-.04.03-.03.04-.04.03-.04.03-.04.03-.05.03-.04.02-.05.02-.04.02-.05.02-.05.01-.05.01-.05.01-.05.01-.06.01-.05v-.05zm-1.1-1.06v-.13h.06l.06.01h.06l.07.01.05.02.06.01.06.02.06.02.05.03.05.02.05.03.05.03.05.03.05.04.04.04.05.04.04.04.04.04.03.04.04.05.03.05.03.05.03.05.02.05.02.06.02.05.02.06.01.06.01.05.01.06.01.06v.07h-.13v-.06l-.01-.05-.01-.05-.01-.06-.01-.05-.01-.05-.02-.05-.02-.04-.02-.05-.02-.05-.03-.04-.03-.04-.03-.04-.03-.04-.04-.04-.03-.04-.04-.03-.04-.04-.04-.03-.05-.03-.04-.03-.05-.02-.04-.03-.05-.02-.05-.02-.05-.01-.06-.02-.05-.01-.05-.01H.19l-.06-.01H.08zm-.01-.13h.01v.13H.07L0 12.2l.07-.06zm0 .13H0v-.07l.07.07zm.06-.8v.73H0v-.73l.07-.06.06.06zm-.13 0v-.07l.07.01-.07.06zm.08.07H.06l.01-.13h.01v.13zm0 0zm1.1-1.19h.13v.06l-.01.06-.01.06-.01.06-.01.06-.02.05-.02.06-.02.05-.02.06-.03.05-.03.05-.03.04-.04.05-.03.05-.04.04-.04.04-.05.04-.04.04-.05.03-.05.04-.05.03-.05.02-.05.03-.05.02-.06.03-.06.01-.06.02-.05.01-.07.01-.06.01-.06.01H.08v-.13l.05-.01h.06l.06-.01.05-.01.05-.01.06-.01.05-.02.05-.02.05-.02.04-.02.05-.03.04-.02.05-.03.04-.04.04-.03.04-.03.03-.04.04-.04.03-.04.03-.04.03-.04.03-.05.02-.04.02-.05.02-.05.02-.05.01-.05.01-.05.01-.05.01-.05.01-.06v-.05zM.08 9.29v-.13l.06.01H.2l.06.01.07.01.05.01.06.02.06.02.06.02.05.02.05.03.05.02.05.04.05.03.05.03.04.04.05.04.04.04.04.04.03.05.04.05.03.04.03.05.03.05.02.06.02.05.02.06.02.05.01.06.01.06.01.06.01.06v.06h-.13v-.05l-.01-.06-.01-.05-.01-.05-.01-.05-.01-.05-.02-.05-.02-.05-.02-.05-.02-.04-.03-.05-.03-.04-.03-.04-.03-.04-.04-.04-.03-.04-.04-.03-.04-.03-.04-.04-.05-.02-.04-.03-.05-.03-.04-.02-.05-.02-.05-.02-.05-.02-.06-.01-.05-.01-.05-.01-.06-.01H.13l-.05-.01zm0-.13zm-.02 0h.02v.13H.07L0 9.23l.06-.07zm.01.13L0 9.3v-.07l.07.06zm.06-.79v.73H0V8.5l.07-.07.06.07zM0 8.5v-.07h.07L0 8.5zm.08.06H.07v-.13h.01v.13zm1.1-1.19h.13v.07l-.01.06-.01.06-.01.05-.01.06-.02.06-.02.05-.02.06-.02.05-.03.05-.03.05-.03.05-.04.05-.03.04-.04.04-.04.04-.05.04-.04.04-.05.04-.05.03-.05.03-.05.03-.05.02-.05.03-.06.02-.06.02-.06.01-.05.02-.07.01-.06.01H.08v-.13h.05l.06-.01h.06l.05-.01.05-.01.06-.02.05-.01.05-.02.05-.02.04-.03.05-.02.04-.03.05-.03.04-.03.04-.04.04-.03.03-.04.04-.03.03-.04.03-.05.03-.04.03-.04.02-.05.02-.05.02-.04.02-.05.01-.05.01-.05.01-.06.01-.05.01-.05v-.06zM.08 6.32v-.13H.2l.06.01.07.01.05.01.06.02.06.02.06.02.05.02.05.03.05.03.05.03.05.03.05.04.04.04.05.03.04.05.04.04.03.04.04.05.03.05.03.05.03.05.02.05.02.06.02.05.02.06.01.05.01.06.01.06.01.06v.06h-.13v-.05l-.01-.05-.01-.06-.01-.05-.01-.05-.01-.05-.02-.05-.02-.05-.02-.04-.02-.05-.03-.04-.03-.04-.03-.05-.03-.04-.04-.03-.03-.04-.04-.04-.04-.03-.04-.03-.05-.03-.04-.03-.05-.02-.04-.03-.05-.02-.05-.02-.05-.01-.06-.02-.05-.01-.05-.01-.06-.01H.08zm-.01-.13h.01v.13H.07L0 6.25l.07-.06zm0 .13H0v-.07l.07.07zm.06-.76v.69H0v-.69l.07-.06.06.06zm-.13 0V5.5h.07L0 5.56zm.08.07H.06l.01-.13h.01v.13zm0 0zm1.1-1.19h.13v.06l-.01.06-.01.06-.01.06-.01.06-.02.06-.02.05-.02.05-.02.06-.03.05-.03.05-.03.05-.04.04-.03.05-.04.04-.04.04-.05.04-.04.04-.05.03-.05.04-.05.03-.05.03-.05.02-.05.03-.06.02-.06.02-.06.01-.05.01-.07.02H.2l-.06.01H.08V5.5h.05l.06-.01h.06l.05-.01.05-.02.06-.01.05-.02.05-.02.05-.02.04-.02.05-.03.04-.02.05-.03.04-.03.04-.04.04-.03.03-.04.04-.04.03-.04.03-.04.03-.04.03-.05.02-.04.02-.05.02-.05.02-.04.01-.05.01-.06.01-.05.01-.05.01-.05v-.06zM.08 3.39v-.13H.2l.06.01.07.01.05.01.06.02.06.02.06.02.05.02.05.03.05.03.05.03.05.03.05.04.04.03.05.04.04.04.04.05.03.04.04.05.03.05.03.05.03.05.02.05.02.05.02.06.02.05.01.06.01.06.01.06.01.06v.06h-.13v-.05l-.01-.06-.01-.05-.01-.05-.01-.05-.01-.05-.02-.05-.02-.05-.02-.04-.02-.05-.03-.04-.03-.05-.03-.04-.03-.04-.04-.04-.03-.03-.04-.04-.04-.03-.04-.03-.05-.03-.04-.03-.05-.03-.04-.02-.05-.02-.05-.02-.05-.02-.06-.01-.05-.01-.05-.01-.06-.01H.08zm0-.13zm-.02 0h.02v.13H.07L0 3.32l.06-.06zm.01.13H0v-.07l.07.07zm.06-.67v.6H0v-.6l.07-.07.06.07zm-.13 0v-.07h.07L0 2.72zm.08.06H.07v-.13h.01v.13zm1.1-1.18h.13v.06l-.01.06-.01.06-.01.06-.01.05-.02.06-.02.05-.02.06-.02.05-.03.05-.03.05-.03.05-.04.05-.03.04-.04.04-.04.05-.05.03-.04.04-.05.04-.05.03-.05.03-.05.03-.05.03-.05.02-.06.02-.06.02-.06.02-.05.01-.07.01-.06.01H.08v-.13h.11l.06-.01.05-.01.05-.01.06-.02.05-.01.05-.02.05-.02.04-.03.05-.02.04-.03.05-.03.04-.03.04-.03.04-.04.03-.04.04-.03.03-.04.03-.05.03-.04.03-.04.02-.05.02-.04.02-.05.02-.05.01-.05.01-.05.01-.05.01-.06.01-.05V1.6zM.08.54V.41H.2l.06.01.07.01.05.02.06.01.06.02.06.02.05.03.05.02.05.03.05.03.05.03.05.04.04.04.05.04.04.04.04.04.03.04.04.05.03.05.03.05.03.05.02.05.02.06.02.05.02.06.01.06.01.05.01.06.01.06v.07h-.13v-.06l-.01-.05-.01-.05-.01-.06-.01-.05-.01-.05-.02-.05-.02-.04-.02-.05-.02-.05-.03-.04-.03-.04L.96.96.93.92.89.89.86.85.82.81.78.78.74.75.69.72.65.69.6.67.56.64.51.62.46.6.41.59.35.57.3.56.25.55H.19L.13.54H.08zM.07.41h.01v.13H.07L0 .47.07.41zm0 .13H0V.47l.07.07zM.13.07v.4H0v-.4L.07 0l.06.07zM0 .07V0h.07L0 .07z" class="fil1"/><g><path fill="#f9d5d7" d="M7.2 8.02c.62 0 1.11.48 1.11 1.08 0 .6-.49 1.09-1.11 1.09-.62 0-1.12-.49-1.12-1.09 0-.6.5-1.08 1.12-1.08zM2.71 4.17c-.3.26.17 1.33 1.06 2.38.89 1.06 1.86 1.7 2.17 1.45.3-.26-.17-1.33-1.06-2.38-.89-1.06-1.86-1.7-2.17-1.45zm5.71 6.18c-.31.26.17 1.33 1.06 2.38.89 1.06 1.86 1.7 2.17 1.45.3-.26-.17-1.33-1.06-2.38-.9-1.06-1.87-1.7-2.17-1.45zm3.07-6.55c.31.26-.17 1.32-1.06 2.38-.89 1.05-1.86 1.7-2.17 1.44-.3-.26.17-1.32 1.06-2.38.89-1.05 1.86-1.7 2.17-1.44zM6 10.42c.31.25-.17 1.32-1.06 2.37-.89 1.06-1.86 1.71-2.17 1.45-.3-.26.17-1.32 1.06-2.38.9-1.06 1.87-1.7 2.17-1.44zm1.24.41c.4 0 .72 1.12.72 2.5s-.32 2.5-.72 2.5c-.4 0-.72-1.12-.72-2.5s.32-2.5.72-2.5zm-.19-8.42c.4 0 .72 1.12.72 2.5 0 1.39-.32 2.5-.72 2.5-.4 0-.72-1.11-.72-2.5 0-1.38.32-2.5.72-2.5z"/><path id="1" d="M8.38 9.1h-.13v-.05L8.24 9v-.05l-.01-.05-.01-.05-.02-.05-.01-.05-.02-.04-.02-.05-.03-.04-.02-.05-.03-.04-.03-.04-.03-.03-.03-.04-.04-.04-.03-.03-.04-.03-.04-.03-.04-.03-.05-.03-.04-.02-.04-.03-.05-.02-.05-.01-.05-.02-.05-.01-.05-.02h-.05l-.05-.01-.06-.01H7.2v-.13h.06l.06.01.06.01.06.01.05.01.06.01.06.02.05.02.05.03.05.02.05.03.05.03.05.03.04.03.04.04.04.04.04.04.04.04.04.04.03.05.03.05.03.04.02.05.03.05.02.06.02.05.01.05.02.06.01.06v.05l.01.06v.06zM7.2 10.25v-.13h.11l.05-.01.05-.01.05-.01.05-.01.05-.02.05-.02.05-.02.04-.02.04-.03.05-.02.04-.03.04-.03.04-.03.03-.04.04-.03.03-.04.03-.04.03-.04.03-.04.02-.04.03-.05.02-.04.02-.05.01-.04.02-.05.01-.05.01-.05v-.05l.01-.05V9.1h.13v.06l-.01.06v.06l-.01.06-.02.05-.01.06-.02.05-.02.05-.03.05-.02.05-.03.05-.03.05-.03.04-.04.05-.04.04-.04.04-.04.03-.04.04-.04.03-.05.04-.05.03-.05.02-.05.03-.05.02-.05.02-.06.02-.06.02-.05.01-.06.01-.06.01H7.2zM6.02 9.1h.13v.06l.01.05v.05l.01.05.01.05.02.05.01.04.02.05.02.04.03.05.02.04.03.04.03.04.03.04.03.04.04.03.03.04.04.03.04.03.04.03.05.02.04.03.04.02.05.02.05.02.05.02.05.01.05.01.05.01.05.01h.11v.13h-.12l-.06-.01-.06-.01-.05-.01-.06-.02-.06-.02-.05-.02-.05-.02-.05-.03-.05-.02-.05-.03-.05-.04-.04-.03-.04-.04-.04-.03-.04-.04-.04-.04-.04-.05-.03-.04-.03-.05-.03-.05-.02-.05-.03-.05-.02-.05-.02-.05-.01-.06-.02-.05-.01-.06v-.06l-.01-.06V9.1zM7.2 7.95v.13h-.05l-.06.01-.05.01h-.05l-.05.02-.05.01-.05.02-.05.01-.05.02-.04.03-.04.02-.05.03-.04.03-.04.03-.04.03-.03.03-.04.04-.03.04-.03.03-.03.04-.03.04-.02.05-.03.04-.02.05-.02.04-.01.05-.02.05-.01.05-.01.05V9l-.01.05v.05h-.13v-.06l.01-.06v-.05l.01-.06.02-.05.01-.06.02-.05.02-.06.03-.05.02-.05.03-.04.03-.05.03-.05.04-.04.04-.04.04-.04.04-.04.04-.04.04-.03.05-.03.05-.03.05-.03.05-.02.05-.03.05-.02.06-.02.06-.01.05-.01.06-.01.06-.01.06-.01h.06zM3.82 6.51l-.1.08-.08-.1-.08-.09-.08-.1-.08-.1-.07-.1-.07-.1-.06-.1-.07-.09-.06-.1-.06-.09-.05-.09-.05-.09-.05-.09-.05-.09-.04-.09-.04-.08-.03-.08-.03-.08-.03-.08-.03-.07-.02-.07-.01-.07-.01-.06-.01-.07-.01-.06V4.4l.01-.06.01-.05.01-.05.03-.04.02-.04.04-.04.08.1-.02.02-.01.02-.01.03-.01.03-.01.04-.01.04v.05l.01.05v.05l.02.06.01.07.02.06.02.07.03.07.03.08.03.08.04.08.04.08.04.09.05.08.05.09.06.09.05.09.06.1.06.09.07.09.07.1.07.1.07.1.08.09.08.1.08.1zM5.9 7.95l.08.1-.04.02-.04.02-.05.02-.05.01h-.05l-.06-.01-.05-.01-.06-.01-.06-.02-.06-.02-.07-.03-.07-.03-.06-.04-.08-.04-.07-.04-.07-.05-.08-.05-.07-.06-.08-.06-.08-.06-.08-.06-.09-.07-.08-.08-.08-.07-.09-.08-.08-.08-.08-.09-.09-.09-.08-.09-.09-.09-.08-.1-.09-.1.1-.08.08.1.09.09.08.09.09.09.08.09.08.08.09.08.08.08.08.08.08.07.08.06.08.07.08.06.07.06.08.05.07.05.07.05.07.04.07.04.06.03.07.03.05.03.06.02.05.01.05.02h.05l.04.01h.04l.03-.01.03-.01.02-.01.03-.01zM4.83 5.66l.1-.08.08.1.08.09.08.1.07.1.08.1.07.1.06.1.07.09.06.1.06.09.05.09.05.09.05.09.05.09.04.09.04.08.03.08.03.08.03.08.02.07.02.07.02.07.01.06.01.07.01.06v.05l-.01.06-.01.05-.02.05-.02.04-.03.04-.03.04-.08-.1.01-.02.02-.02.01-.03.01-.03.01-.04v-.14l-.01-.05-.01-.06-.01-.07-.02-.06-.02-.07-.03-.07-.03-.08-.03-.08-.04-.08-.04-.08-.05-.09-.04-.08-.05-.09-.06-.09-.05-.09-.06-.1-.07-.09-.06-.09-.07-.1-.07-.1-.08-.1-.07-.09-.08-.1-.08-.1zM2.75 4.22l-.08-.1.04-.02.04-.02.05-.02.05-.01h.05l.06.01.05.01.06.01.06.02.06.02.07.03.06.03.07.04.07.04.08.04.07.05.08.05.07.06.08.06.08.06.08.06.08.07.09.08.08.07.08.08.09.08.08.09.09.09.08.09.09.09.08.1.09.1-.1.08-.09-.1-.08-.09-.08-.09-.09-.09-.08-.09-.08-.08-.09-.08-.08-.08-.08-.07L4 4.81l-.08-.06-.08-.07-.08-.06-.07-.06-.08-.05-.07-.05-.07-.05-.07-.04-.07-.04-.06-.03-.07-.03-.06-.03-.05-.02-.06-.01-.04-.02h-.05l-.04-.01h-.04l-.03.01-.03.01-.03.01-.02.01zm6.78 8.47l-.1.08-.08-.1-.08-.1-.08-.1-.08-.09-.07-.1-.07-.1-.07-.1-.06-.09-.06-.1-.06-.09-.05-.09-.05-.1-.05-.08-.05-.09-.04-.09-.04-.08-.03-.08-.04-.08-.02-.08-.03-.07-.02-.07-.01-.07-.02-.07v-.06l-.01-.06v-.06l.01-.05.01-.05.01-.05.02-.04.03-.04.04-.04.08.1-.02.02-.01.02-.02.03-.01.03v.04l-.01.04v.05l.01.05v.05l.01.06.02.07.02.06.02.07.03.07.03.08.03.08.04.08.04.08.04.08.05.09.05.09.05.09.06.09.06.09.06.1.07.09.07.1.07.1.07.09.08.1.08.1.08.1zm2.07 1.44l.09.1-.04.02-.05.02-.04.02-.05.01h-.05l-.06-.01-.05-.01-.06-.01-.06-.02-.07-.02-.06-.03-.07-.03-.07-.04-.07-.04-.07-.04-.07-.05-.08-.05-.08-.06-.07-.06-.08-.06-.09-.07-.08-.07-.08-.07-.08-.07-.09-.08-.08-.09-.09-.08-.08-.09-.09-.09-.08-.09-.09-.1-.08-.1.1-.08.08.1.09.09.08.09.08.09.09.09.08.08.08.08.09.08.08.07.08.08.08.06.08.07.08.06.07.06.08.05.07.05.07.05.07.04.07.04.06.03.06.03.06.03.06.02.05.01.05.02h.05l.04.01h.04l.03-.01.03-.01.02-.01.02-.01zm-1.06-2.29l.1-.08.08.09.08.1.08.1.07.1.07.1.07.1.07.1.07.09.06.1.05.09.06.09.05.09.05.09.04.09.05.09.03.08.04.08.03.08.03.07.02.08.02.07.02.07.01.06.01.07V14.01l-.01.05-.02.05-.02.04-.03.04-.03.04-.09-.1.02-.02.02-.03.01-.02.01-.03.01-.04v-.14l-.01-.06-.01-.05-.01-.07-.02-.06-.02-.07-.03-.07-.03-.08-.04-.08-.03-.08-.04-.08-.05-.09-.04-.08-.05-.09-.06-.09-.05-.09-.06-.1-.07-.09-.06-.1-.07-.09-.07-.1-.08-.1-.07-.09-.08-.1-.08-.1zM8.46 10.4l-.08-.1.04-.02.04-.03.05-.01.05-.01h.05l.05.01h.06l.06.02.06.02.06.02.07.03.06.03.07.04.07.04.07.04.08.05.07.05.08.06.08.06.08.06.08.06.08.07.09.08.08.07.08.08.09.08.08.09.09.09.08.09.09.09.08.1.09.1-.1.08-.09-.1-.08-.09-.08-.09-.09-.09-.08-.09-.09-.08-.08-.08-.08-.08-.08-.08-.08-.07-.08-.07-.08-.06-.08-.06-.08-.06-.07-.05-.07-.05-.07-.05-.07-.04-.07-.04-.07-.03-.06-.03-.06-.03-.05-.02-.06-.02-.05-.01h-.04l-.04-.01h-.04l-.03.01-.03.01-.03.01-.02.01zm2.02-4.18l-.1-.09.08-.1.08-.09.08-.1.07-.1.07-.1.07-.09.07-.1.06-.09.06-.09.06-.1.05-.09.05-.08.05-.09.04-.09.04-.08.04-.08.03-.08.03-.07.03-.07.02-.07.02-.07.01-.06.02-.06v-.06l.01-.05v-.04l-.01-.05-.01-.03-.01-.03-.01-.03-.01-.02-.02-.02.08-.1.04.03.02.04.03.05.01.04.01.06.01.05v.06l-.01.06-.01.06-.01.06-.01.07-.02.07-.03.08-.03.07-.03.08-.03.08-.04.09-.04.08-.05.09-.05.09-.05.09-.05.09-.06.1-.06.09-.07.1-.06.09-.07.1-.07.1-.08.1-.08.1-.08.1-.08.1zM8.22 7.67l.08-.1.03.01.02.02h.03l.03.01h.08l.05-.01.05-.01.05-.02.06-.02.06-.02.06-.03.06-.04.07-.04.07-.04.07-.04.07-.05.08-.06.07-.06.08-.06.08-.06.08-.07.08-.07.08-.08.08-.07.09-.08.08-.09.09-.08.08-.09.08-.1.09-.09.08-.1.1.09-.09.1-.08.09-.09.1-.08.09-.08.08-.09.09-.08.08-.09.08-.08.08-.08.07-.09.07-.08.06-.08.07-.07.06-.08.05-.08.05-.07.05-.07.05-.08.04-.06.03-.07.03-.07.03-.06.03-.06.01-.06.02-.05.01H8.4l-.05-.01-.05-.01-.04-.02-.04-.03zM9.27 5.2l.1.08-.08.1-.08.1-.07.1-.08.1-.07.09-.07.1-.06.09-.07.1-.06.09-.05.09-.06.09-.05.09-.04.09-.05.08-.04.09-.04.08-.03.07-.03.08-.03.07-.02.07-.02.07-.01.06-.01.06-.01.05v.14l.01.04.01.03.01.03.02.02.01.02-.08.1-.03-.04-.03-.04-.02-.04-.02-.05-.01-.05V7.4l-.01-.06.01-.06.01-.06.01-.07.02-.07.02-.07.02-.07.03-.08.03-.08.03-.08.04-.08.04-.09.05-.08.05-.09.05-.09.06-.09.05-.1.06-.09.07-.1.06-.1.07-.09.08-.1.07-.1.08-.1.08-.1.08-.1zm2.26-1.45l-.08.1-.02-.02-.03-.01-.03-.01H11.26l-.05.01-.04.01-.06.02-.05.02-.06.02-.07.03-.06.04-.07.03-.07.05-.07.04-.07.05-.07.06-.08.05-.08.06-.08.07-.08.07-.08.07-.08.07-.08.08-.09.08-.08.08-.08.09-.09.09-.08.09-.08.1-.09.09-.1-.08.09-.1.08-.09.09-.1.08-.09.09-.09.08-.08.09-.08.08-.08.08-.08.09-.07.08-.07.08-.07.08-.06.08-.06.07-.06.08-.05.07-.05.08-.04.07-.04.07-.04.06-.03.07-.03.06-.02.06-.02.06-.01.05-.01h.11l.05.01.05.01.04.02.04.03zm-6.54 9.09l-.1-.09.08-.1.08-.09.08-.1.07-.1.07-.1.07-.09.07-.1.06-.09.06-.1.06-.09.05-.09.05-.09.05-.08.04-.09.04-.08.04-.08.03-.08.03-.07.03-.08.02-.07.02-.06.02-.07.01-.05v-.06l.01-.05v-.05l-.01-.04v-.03l-.01-.04-.02-.02-.01-.03-.02-.01.08-.1.04.03.03.04.02.04.01.05.01.05.01.06v.05l-.01.06v.07l-.02.06-.01.07-.02.07-.03.08-.02.07-.04.08-.03.08-.04.09-.04.08-.05.09-.04.09-.06.09-.05.09-.06.09-.06.1-.06.1-.07.09-.07.1-.07.1-.08.1-.08.1-.08.1-.08.1zm-2.26 1.45l.09-.1.02.01.02.01.03.01.03.01H3l.05-.01.05-.01.05-.02.06-.02.06-.03.06-.03.06-.03.07-.04.07-.04.07-.05.07-.05.08-.05.07-.06.08-.06.08-.06.08-.07.08-.07.08-.08.09-.07.08-.09.08-.08.09-.09.08-.09.08-.09.09-.09.08-.1.1.09-.08.09-.09.1-.08.09-.09.09-.08.09-.09.09-.08.08-.09.08-.08.07-.08.08-.09.07-.08.06-.08.07-.07.06-.08.05-.08.05-.07.05-.07.04-.07.04-.07.04-.07.03-.06.03-.07.02-.06.02-.06.02-.05.01h-.11l-.05-.01-.05-.01-.04-.02-.04-.03zm1.05-2.47l.1.08-.08.1-.08.1-.07.1-.08.09-.07.1-.07.1-.06.09-.07.1-.06.09-.05.09-.06.09-.05.09-.04.09-.05.08-.04.08-.04.08-.03.08-.03.08-.03.07-.02.07-.02.07-.01.06-.01.06-.01.05v.14l.01.04.01.03.01.03.02.02.02.02-.09.1-.03-.04-.03-.04-.02-.04-.02-.05-.01-.05V13.9l.01-.06.01-.07.02-.07.02-.07.02-.07.03-.08.03-.08.04-.08.03-.08.05-.09.04-.08.05-.09.05-.09.06-.1.05-.09.06-.1.07-.09.07-.1.07-.1.07-.09.07-.1.08-.1.08-.1.08-.1zm2.26-1.45l-.08.1-.02-.02-.03-.01-.03-.01h-.03l-.04-.01-.04.01-.04.01-.05.01-.06.01-.05.02-.06.03-.06.03-.07.03-.07.04-.07.04-.07.05-.07.05-.07.05-.08.06-.08.06-.08.07-.08.06-.08.08-.08.07-.08.08-.08.08-.09.08-.08.09-.09.09-.08.09-.08.1-.09.09-.1-.08.09-.1.08-.1.09-.09.08-.09.09-.09.08-.08.09-.09.08-.08.09-.07.08-.07.08-.07.08-.07.08-.06.08-.06.08-.06.07-.05.08-.05.07-.04.07-.04.07-.04.06-.03.07-.03.06-.02.06-.02.06-.01.06-.01.05-.01.05.01h.05l.05.02.04.02.04.03zm1.99 2.96H7.9v-.25l-.01-.13-.01-.12v-.12l-.01-.12-.01-.11-.02-.12-.01-.1-.02-.11-.01-.11-.02-.1-.02-.09-.02-.1-.03-.08-.02-.09-.02-.08-.03-.08-.03-.07-.02-.07-.03-.06-.03-.06-.03-.05-.03-.05-.03-.04-.03-.03-.03-.03-.03-.03-.03-.01-.03-.02h-.02l-.03-.01v-.13l.05.01.05.01.04.02.04.03.05.03.03.04.04.04.04.05.03.05.03.06.04.06.03.07.03.07.02.08.03.08.03.08.02.09.02.09.03.1.02.1.01.1.02.11.02.11.01.11.02.11.01.12.01.12.01.12v.13l.01.12v.26zm-.79 2.57v-.13l.03-.01h.02l.03-.01.03-.02.03-.03.03-.03.03-.03.03-.04.03-.05.03-.05.03-.06.03-.06.02-.07.03-.07.03-.08.02-.08.02-.08.03-.09.02-.1.02-.09.02-.1.01-.11.02-.1.01-.11.02-.12.01-.11.01-.12v-.12l.01-.12.01-.13v-.25h.13v.26l-.01.12v.13l-.01.12-.01.12-.01.12-.02.11-.01.11-.02.11-.02.11-.01.1-.02.1-.03.1-.02.09-.02.09-.03.08-.03.08-.02.08-.03.07-.03.07-.04.06-.03.06-.03.05-.04.05-.04.04-.03.04-.05.03-.04.03-.04.02-.05.01-.05.01zm-.79-2.57h.13v.13l.01.12v.13l.01.12.01.12.01.12.01.11.01.12.01.11.02.1.02.11.02.1.02.09.02.1.02.09.02.08.03.08.02.08.03.07.03.07.03.06.02.06.03.05.03.05.03.04.03.03.03.03.03.03.03.02.03.01h.03l.02.01v.13l-.05-.01-.04-.01-.05-.02-.04-.03-.04-.03-.04-.04-.04-.04-.03-.05-.04-.05-.03-.06-.03-.06-.03-.07-.03-.07-.03-.08-.03-.08-.02-.08-.03-.09-.02-.09-.02-.1-.02-.1-.02-.1-.02-.11-.02-.11-.01-.11-.01-.11-.01-.12-.01-.12-.01-.12-.01-.13v-.12l-.01-.13v-.13zm.79-2.57v.13l-.02.01h-.03l-.03.02-.03.01-.03.03-.03.03-.03.03-.03.04-.03.05-.03.05-.02.06-.03.06-.03.07-.03.07-.02.08-.03.08-.02.09-.02.08-.02.1-.02.09-.02.1-.02.11-.02.11-.01.1-.01.12-.01.11-.01.12-.01.12-.01.12v.13l-.01.12v.13h-.13v-.13l.01-.13v-.12l.01-.13.01-.12.01-.12.01-.12.01-.11.01-.11.02-.11.02-.11.02-.1.02-.1.02-.1.02-.09.03-.09.02-.08.03-.08.03-.08.03-.07.03-.07.03-.06.03-.06.04-.05.03-.05.04-.04.04-.04.04-.03.04-.03.05-.02.04-.01.05-.01zm.6-5.85h-.13v-.12l-.01-.13v-.12l-.01-.13-.01-.12-.01-.11-.01-.12-.01-.11-.01-.11-.02-.11-.02-.1-.02-.1-.02-.1-.02-.09-.02-.09-.02-.09-.03-.08-.02-.07-.03-.08-.03-.06-.03-.07-.02-.05-.03-.06-.03-.04-.03-.04-.03-.04-.03-.03-.03-.02-.03-.02-.03-.01-.02-.01h-.03v-.13h.05l.04.01.05.02.04.03.04.03.04.04.04.04.03.05.04.06.03.05.03.07.03.06.03.08.03.07.03.08.02.09.03.08.02.1.02.09.02.1.02.11.02.1.02.11.01.11.01.12.02.11v.12l.01.13.01.12v.13l.01.12v.13zm-.79 2.57v-.13h.03l.02-.01.03-.01.03-.02.03-.02.03-.03.03-.04.03-.04.03-.05.03-.05.02-.06.03-.06.03-.07.03-.07.02-.07.03-.09.02-.08.02-.09.02-.09.02-.1.02-.1.02-.1.02-.11.01-.11.01-.11.01-.12.01-.12.01-.12.01-.12v-.12l.01-.13v-.13h.13v.13l-.01.13v.13l-.01.12-.01.12v.12l-.02.12-.01.12-.01.11-.02.11-.02.1-.02.1-.02.1-.02.1-.02.09-.03.09-.02.09-.03.08-.03.07-.03.07-.03.07-.03.06-.03.06-.04.06-.03.04-.04.05-.04.04-.04.03-.04.02-.05.02-.04.02h-.05zm-.79-2.57h.13v.13l.01.13v.12l.01.12v.12l.01.12.01.12.02.11.01.11.02.11.02.1.01.1.02.1.03.09.02.09.02.08.03.09.02.07.03.07.02.07.03.06.03.06.03.05.03.05.03.04.03.04.03.03.03.02.03.02.03.01.02.01h.03v.13H7l-.05-.02-.04-.02-.04-.02-.04-.03-.04-.04-.04-.05-.04-.04-.03-.06-.03-.06-.03-.06-.04-.07-.02-.07-.03-.07-.03-.08-.03-.09-.02-.09-.02-.09-.02-.1-.02-.1-.02-.1-.02-.1-.02-.11-.01-.11-.02-.12-.01-.12-.01-.12v-.12l-.01-.12-.01-.13v-.26zm.79-2.56v.13h-.03L7 2.49l-.03.01-.03.02-.03.02-.03.03-.03.03-.03.05-.03.04-.03.06-.03.05-.03.07-.02.06-.03.08-.02.07-.03.08-.02.09-.02.09-.03.09-.02.1-.01.1-.02.1-.02.11-.01.11-.02.11-.01.12-.01.11v.12l-.01.13v.12l-.01.13v.12h-.13v-.25l.01-.13.01-.12v-.13l.01-.12.01-.11.02-.12.01-.11.02-.11.02-.1.02-.11.02-.1.02-.09.02-.09.02-.09.03-.09.03-.08.03-.07.02-.08.04-.06.03-.07.03-.05.03-.06.04-.05.04-.04.03-.04.05-.03.04-.03.04-.02.05-.01h.05z" class="fil1"/></g></g></g></svg>