<svg xmlns="http://www.w3.org/2000/svg" width="68" height="68" fill-rule="evenodd" clip-rule="evenodd" image-rendering="optimizeQuality" shape-rendering="geometricPrecision" text-rendering="geometricPrecision" viewBox="0 0 4.71 4.74"><defs><style>.fil1{fill:#2b2a29;fill-rule:nonzero}</style></defs><g id="Слой_x0020_1"><g id="_1410060464"><path fill="#a1b567" fill-rule="nonzero" d="M3.76 1.11c.11 0 .2.04.26.12.07.08.11.18.11.28 0 .01-.01.02-.01.03.09.01.16.05.22.1.07.07.11.17.11.27 0 .03-.01.05-.01.08.06.02.11.06.15.11.07.08.11.18.11.29 0 .12-.05.23-.12.31-.02.02-.04.04-.06.05.05.06.08.13.08.21 0 .08-.03.16-.08.21 0 0-.01 0-.01.01-.05.04-.12.07-.2.07H3.29c-.08 0-.16-.03-.21-.08-.05-.05-.09-.13-.09-.21 0-.08.04-.15.09-.21h.01v-.01c-.02-.01-.03-.02-.05-.04-.08-.08-.12-.19-.12-.31 0-.09.03-.18.08-.26.03-.04.07-.08.12-.11-.02-.03-.02-.07-.02-.12 0-.1.04-.19.11-.26.05-.06.12-.09.19-.11v-.02c0-.1.04-.2.1-.28.07-.08.16-.12.26-.12zm.11.26c-.03-.04-.07-.06-.11-.06-.04 0-.07.02-.1.06-.03.03-.05.09-.05.14v.05c0 .01.01.02.01.03.01.02.01.04.01.07-.02.05-.07.09-.13.07h-.03c-.05 0-.09.02-.12.05-.03.03-.05.08-.05.12 0 .02.01.04.01.06.01.02.02.03.03.05 0 .01.01.02.01.03.02.06-.01.11-.07.13-.04.01-.08.04-.11.08s-.05.09-.05.14c0 .07.03.13.07.17.04.04.1.07.16.07.05-.01.09.02.11.07v.02c.01.01.02.03.02.05 0 .06-.05.1-.11.1h-.08c-.03 0-.05.01-.06.03-.02.02-.03.04-.03.06 0 .03.01.05.03.06.01.02.03.03.06.03h1.02c.02 0 .04-.01.06-.02v-.01c.02-.01.03-.03.03-.06 0-.02-.01-.04-.03-.06-.01-.02-.03-.03-.06-.03h-.12c-.02 0-.03 0-.05-.01-.05-.02-.07-.09-.04-.14v-.01-.01h.01c.01-.05.06-.09.12-.08h.02c0 .01.01.01.02.01.06 0 .12-.03.16-.07.04-.04.06-.1.06-.17 0-.06-.02-.11-.05-.15-.04-.04-.09-.07-.14-.08-.02 0-.04 0-.05-.01-.05-.03-.06-.1-.03-.14 0-.02.01-.03.01-.05.01-.01.01-.03.01-.05 0-.05-.02-.09-.05-.12-.03-.03-.07-.05-.11-.05h-.05c-.02.01-.05.01-.07 0-.06-.02-.08-.08-.06-.13.01-.01.01-.03.01-.05.01-.01.01-.03.01-.05 0-.05-.02-.11-.05-.14z"/><path id="1" d="M4.03 1.22l-.01.02-.01-.01H4v-.01l-.01-.01h-.01V1.2l-.01-.01h-.01v-.01h-.01l-.01-.01h-.01v-.01h-.01l-.01-.01h-.02v-.01h-.02l-.01-.01h-.02l-.01-.01h-.07v-.03h.01l.01.01H3.84l.01.01h.03l.01.01h.01v.01h.02l.01.01h.01l.01.01.01.01h.01l.01.01.01.01.01.01.01.01.01.01.01.01zm.11.29h-.03v-.07l-.01-.01v-.04l-.01-.01v-.02h-.01v-.02l-.01-.01v-.02h-.01V1.3l-.01-.01v-.01h-.01v-.01l-.01-.01v-.01h-.01v-.01l.01-.02.01.01.01.01v.01h.01v.01l.01.01v.01l.01.01.01.01v.02l.01.01v.01l.01.01v.02h.01v.03l.01.01v.05l.01.01v.04zm-.01.01l-.01.03-.01-.01v-.03h.03v.03l-.01-.02zm-.01.03h-.01v-.01l.01.01zm.23.09l-.02.01-.01-.01-.01-.01H4.3v-.01h-.01v-.01h-.02V1.6h-.01v-.01h-.02v-.01h-.02v-.01H4.2l-.01-.01h-.02l-.01-.01h-.04l.01-.03v.01h.04l.01.01h.02l.01.01h.02v.01h.02v.01h.02v.01h.01l.01.01.01.01h.01l.01.01h.01v.01l.01.01.01.01zm.11.27h-.02v-.02l-.01-.01v-.05l-.01-.01v-.03h-.01v-.02l-.01-.01v-.01l-.01-.01v-.01l-.01-.01v-.01h-.01V1.7l-.01-.01-.01-.01v-.01h-.01v-.01l-.01-.01.02-.01.01.01.01.01.01.01v.01l.01.01.01.01v.01l.01.01v.01h.01v.01l.01.01v.02l.01.01v.03h.01v.04l.01.01v.05zm-.02.07L4.43 2V1.94h.01v-.03h.02V1.97h-.01v.02l-.01-.01zM4.43 2v-.01V2zm.17.09l-.02.02V2.1h-.01v-.01h-.01v-.01h-.01v-.01h-.01v-.01h-.01l-.01-.01h-.01v-.01H4.5v-.01h-.01l-.01-.01h-.01l-.01-.01h-.01L4.44 2h-.01l.01-.02h.02v.01h.02V2h.01l.01.01h.01v.01h.01l.01.01h.01v.01h.01v.01h.01l.01.01v.01h.01l.01.01v.01h.01zm.11.3h-.02v-.05l-.01-.01v-.05l-.01-.01v-.01l-.01-.01v-.02l-.01-.01v-.01l-.01-.01v-.01l-.01-.01v-.01l-.01-.01v-.01l-.01-.01-.01-.01-.01-.01v-.01h-.01l.02-.02.01.01v.01l.01.01.01.01.01.01v.01l.01.01v.01h.01v.01l.01.01v.02l.01.01v.01l.01.01v.02l.01.01v.04l.01.01v.07zm-.13.32l-.01-.02.01-.01.01-.01v-.01h.01l.01-.01v-.01l.01-.01v-.01l.01-.01V2.6h.01v-.01l.01-.01v-.01l.01-.01v-.02l.01-.01v-.02l.01-.01v-.04l.01-.01V2.39h.02v.08l-.01.01v.04l-.01.01v.02l-.01.01v.01l-.01.01v.01l-.01.01v.01l-.01.01v.01h-.01v.01l-.01.01v.01l-.01.01-.01.01v.01H4.6l-.01.01-.01.01zm-.05.03l-.02.02v-.02h.01v-.01h.01v-.01h.02v-.01h.01V2.7h.01v-.01l.01.02v.01h-.01v.01h-.01v.01h-.01v.01h-.01l-.01.01h-.01l.01-.02zm-.02.02l-.01-.01.01-.01v.02zm0 0l.02-.02v.02h-.02zm.02 0l-.01.01-.01-.01h.02zm0 0l-.02-.02.02.01v.01zm-.02-.02h.01l.01.01-.02-.01zm.11.22h-.03V2.9l-.01-.01v-.03h-.01v-.02l-.01-.01v-.01h-.01v-.01l-.01-.01v-.01h-.01v-.01h-.01v-.01l-.01-.01.02-.01.01.01.01.01.01.01v.01l.01.01.01.01v.01l.01.01v.01l.01.01v.03l.01.01v.04l.01.01v.02zm-.09.22l-.02-.02h.01v-.01l.01-.01.01-.01v-.01l.01-.01.01-.01v-.01l.01-.01v-.02h.01v-.03l.01-.01V2.96h.03v.02l-.01.01v.05H4.6v.03l-.01.01v.01l-.01.01v.01l-.01.01v.01h-.01v.01l-.01.01v.01h-.01v.01h-.01v.01zm-.01 0l-.02-.01h.01v-.01l.02.02h-.01.01-.01zm-.02-.01zm-.19.1v-.03H4.37l.01-.01h.03l.01-.01h.01v-.01h.02l.01-.01.01-.01h.01v-.01h.01l.01-.01.02.01-.01.01-.01.01-.01.01h-.01v.01h-.01l-.01.01h-.01l-.01.01h-.01l-.01.01H4.4l-.01.01h-.04l-.01.01h-.03zm-1.02-.03h1.02v.03H3.29v-.03zm-.2-.06l-.02-.02h.02l.01.01.01.01.01.01h.01l.01.01.01.01h.01l.01.01h.01l.01.01h.03v.01h.07v.03h-.03v-.01h-.05l-.01-.01h-.02l-.01-.01h-.01l-.01-.01h-.01l-.01-.01h-.01v-.01h-.01L3.1 3.2h-.01v-.01h-.01v-.01h-.01.02zm-.02-.02l.01-.01.01.01h-.02zm0 0l.02.02h-.02v-.02zm.02.02l-.01.01-.01-.01h.02zm-.11-.22h.03v.07l.01.01v.02h.01v.02l.01.01v.01l.01.01v.01h.01v.01l.01.01v.01h.01v.01h.01l-.02.02v-.01h-.01v-.01h-.01v-.01l-.01-.01-.01-.01v-.01l-.01-.01V3.1l-.01-.01v-.01L3 3.07v-.02l-.01-.01v-.03L2.98 3v-.04zm.09-.21l.02.01-.01.01-.01.01v.01h-.01v.01h-.01v.02h-.01v.01l-.01.01v.02h-.01v.02l-.01.01v.07h-.03v-.04h.01v-.04L3 2.87v-.02l.01-.01v-.01l.01-.01v-.01l.01-.01v-.01h.01v-.01l.01-.01.01-.01.01-.01zm.02.01zm-.01-.02l.02.02h-.01l-.02-.01v-.01h.01zm.02.02h-.01.01zm0-.01v.01l-.02-.02h.02v.01zm0-.01h.01l-.01.01v-.01zm-.07-.03l.02-.02v.01h.01v.01h.01v.01h.01v.01h.02v.01l-.02.01h-.01v-.01h-.01v-.01h-.01v-.01h-.01v-.01h-.01zm.02-.02zm-.14-.3h.02v.07l.01.01v.04l.01.01v.02l.01.01v.01l.01.01v.02l.01.01.01.01v.01l.01.01.01.01v.01l.01.01.01.01.01.01v.01h.01l-.02.02V2.7l-.01-.01h-.01v-.01L3 2.67l-.01-.01v-.01l-.01-.01-.01-.01-.01-.01v-.01l-.01-.01v-.01l-.01-.01v-.02l-.01-.01v-.02l-.01-.01v-.03l-.01-.01v-.09zm.08-.27l.02.02v.01H3v.01l-.01.01-.01.01v.02h-.01v.02l-.01.01v.01l-.01.01v.02l-.01.01v.03l-.01.01v.07h-.02V2.3l.01-.01v-.02l.01-.01v-.03l.01-.01v-.01l.01-.01v-.01l.01-.01v-.01l.01-.01v-.01h.01v-.01l.01-.01v-.01zm.12-.09l.02-.01-.01.01v.01h-.01l-.01.01-.01.01h-.01v.01h-.01v.01h-.01v.01h-.01v.01h-.01v.01h-.01v.01h-.01v.01h-.01v.01l-.02-.02H3v-.01h.01V2.1l.01-.01h.01v-.01l.01-.01.01-.01.01-.01h.01v-.01h.01v-.01h.01v-.01h.02v-.01.02zm.02-.01v.01h-.01l.01-.01zm-.04-.12h.02v.07h.01v.04h.01v.01l-.02.01-.01-.01v-.03h-.01V1.9zm.11-.27l.01.02-.01.01-.01.01v.01l-.01.01-.01.01v.01h-.01v.01l-.01.01v.01l-.01.01v.01l-.01.01v.03h-.01v.03l-.01.01V1.9h-.02v-.07l.01-.01v-.03l.01-.01v-.02l.01-.01v-.01l.01-.01v-.01l.01-.01V1.7l.01-.01.01-.01v-.01l.01-.01.01-.01v-.01h.01l.01-.01zm.19-.1h.02l-.01.01-.01.01h-.03l-.01.01h-.02l-.01.01h-.01v.01h-.02v.01h-.01l-.01.01-.01.01h-.01l-.01.01-.01.01-.01.01-.01.01-.01-.02v-.01h.01v-.01h.01V1.6h.01l.01-.01h.01v-.01h.01v-.01h.02v-.01h.02v-.01h.01l.01-.01h.02l.01-.01h.02l.01-.01h.02l-.01.01zm.02 0v.01H3.4l.01-.01zm0-.02v.02h-.02v-.02h.02zm-.02 0zm.1-.29l.02.02-.01.01-.01.01v.01l-.01.01-.01.01v.01l-.01.01v.01l-.01.01v.02l-.01.01v.01l-.01.01v.02l-.01.01v.05l-.01.01v.04h-.02v-.07l.01-.01v-.04l.01-.01v-.01l.01-.01v-.02l.01-.01v-.01l.01-.01v-.02h.01v-.01l.01-.01v-.01l.01-.01.01-.01.01-.01v-.01zm.27-.13v.03H3.7l-.01.01h-.03v.01h-.02l-.01.01h-.01l-.01.01H3.6l-.01.01h-.01v.01h-.01l-.01.01-.01.01-.01.01-.01.01-.01.01-.01.01-.02-.02h.01l.01-.01V1.2h.01l.01-.01v-.01h.01l.01-.01.01-.01.01-.01h.01l.01-.01h.01v-.01h.02l.01-.01h.01l.01-.01h.03l.01-.01h.05l.01-.01h.01zm0 .23V1.3h.03l.01.01h.02l.01.01h.01v.01h.01l.01.01v.01h.01l.01.01-.02.01h-.01v-.01h-.01v-.01h-.01v-.01h-.02v-.01h-.03l-.01-.01h-.01zm-.09.05l-.02-.01v-.01h.01v-.01h.01v-.01h.01l.01-.01h.01v-.01h.03V1.3h.03v.02h-.01v.01h-.03l-.01.01H3.7v.01h-.01l-.01.01h-.01v.01zm-.05.14H3.6v-.07h.01v-.02l.01-.01v-.02h.01v-.01l.01-.01.01-.01.02.01-.01.01v.01h-.01v.01l-.01.01v.02h-.01v.03h-.01v.05zm0 .05H3.6v-.05h.02v.05zm-.02 0zm.03.03l-.02.01v-.01H3.6v-.03h.02v.01h.01v.02zm-.02.01zm.03.06l-.03-.01.01-.01v-.02h-.01V1.6l.02-.01v.01h.01V1.66zm-.03-.01zm-.11.1l.01-.03h.01v.01l.01-.01h.03l.01-.01h.01V1.7h.01v-.01h.01v-.01l.01-.01v-.02l.03.01-.01.01v.01l-.01.01v.01l-.01.01-.01.01-.01.01h-.01v.01h-.02l-.01.01H3.5zm-.02-.01l.01-.02h.02l-.01.03-.01-.01h-.01zm.01-.02h-.02.02zm-.02.02v-.02h.02l-.01.02h-.01zm-.11.05l-.02-.02h.01v-.01h.01l.01-.01h.01v-.01h.02v-.01h.03v-.01h.04v.02h-.02l-.01.01h-.03v.01h-.02v.01h-.01v.01h-.01l-.01.01zm-.04.11h-.03v-.03h.01v-.03l.01-.01v-.01l.01-.01V1.8h.01v-.01l.01-.01v-.01l.02.02-.01.01v.01h-.01v.01l-.01.01v.02h-.01v.05zm0 .06H3.3v-.02h-.01V1.9h.03V1.96zm-.02 0zm.04.04l-.01.01h-.01V2l-.01-.01v-.01l-.01-.01v-.01h.03v.02h.01V2h.01-.01zm-.01.01zm.04.03h-.03v-.01h-.01v-.02L3.34 2h.01v.01l.01.01v.02h.01zm0 0zm-.08.14l-.01-.02h.01v-.01h.02v-.01h.01v-.01h.01v-.01l.01-.01v-.02h.01v-.03l-.01-.01v-.01h.03V2.1l-.01.01v.02h-.01v.01h-.01v.01l-.01.01h-.01v.01H3.3v.01h-.01zm-.01-.02zm-.1.1l-.02-.01v-.01l.01-.01.01-.01.01-.01.01-.01h.01v-.01h.01v-.01h.02v-.01h.02v-.01h.02l.01.02h-.01v.01h-.02l-.01.01h-.01l-.01.01h-.01v.01h-.01v.01H3.2v.01h-.01v.01h-.01v.01zm-.04.13h-.03v-.04h.01v-.04h.01v-.02h.01v-.02h.01v-.02h.01l.02.01-.01.01v.01h-.01v.02h-.01v.03h-.01V2.39zm.06.16l-.02.02v-.01h-.01v-.01l-.01-.01-.01-.01v-.01h-.01V2.5l-.01-.01v-.01l-.01-.01v-.03l-.01-.01v-.04h.03v.07h.01v.03h.01v.01l.01.01v.01l.01.01.01.01v.01h.01zm0 0zm.16.08h-.03l.02.01h-.03l-.01-.01h-.03l-.01-.01h-.02v-.01h-.02V2.6h-.01l-.01-.01H3.2v-.01h-.01v-.01h-.01l.02-.02.01.01.01.01.01.01h.01v.01h.02v.01h.02l.01.01H3.35l.01.02zm-.01-.02h.01v.02l-.01-.02zm-.02.02h.03l-.01.01-.02-.01zm.02.01h-.02v-.01l.02.01zm.12.06l-.03.01v-.03h-.01v-.01h-.01v-.01h-.01v-.01h-.02v-.01h-.04v-.03h.02l.01.01h.02l.01.01h.01l.01.01.01.01.01.01v.01h.01v.02l.01.01zm0 0zm0 .01l-.02.01v-.01.01-.01h-.01l.03-.01v.01-.01.01zm-.02.01zm0 0l.02-.01-.02.01zm0 0zm.04.05h-.03v-.04h-.01v-.01l.02-.01v.01h.01v.03h.01v.02zm-.12.12v-.03h.04v-.01h.01l.01-.01h.01v-.01h.01v-.01l.01-.01v-.04h.03v.02l-.01.01v.02l-.01.01v.01h-.01v.01h-.01v.01h-.01v.01h-.01l-.01.01H3.4l-.01.01h-.02zm-.08-.03h.08v.03h-.08v-.03zm-.05.04l-.02-.01.01-.01h.01v-.01h.03v-.01h.02v.03h-.04v.01h-.01v.01-.01zm-.02-.01zm0 0l.02.01-.01.01-.01-.02zm.01.02h.01-.01zm-.02.05h-.02v-.03h.01v-.02h.01V2.9l.01-.01.01.02v.01h-.01v.02h-.01v.02zm.02.07l-.01-.02v.02h-.01v-.01l-.01-.01V3h-.01v-.04h.02v.02h.01V3h.01v.03zm0-.02l.01.01-.01.01v-.02zm-.01 0l.01.02h-.01v-.02zm0 .02l-.01-.01.01-.01v.02zm0 0l.01-.02-.01.02zm.01-.02zm.06.03v.02h-.03v-.01h-.02l-.01-.01h-.01v-.01l.01-.02.01.01h.01v.01h.02v.01h.02zm1.02.02H3.29v-.02h1.02v.02zm.05-.04l.02.01v.01h-.02v.01h-.02v.01h-.03v-.02h.02v-.01h.02v-.01h.01zm.02.01v.01-.01zm0 0l-.02-.01v-.01l.02.02zm-.02-.02v.01-.01zm.03-.05h.02v.03H4.4v.02h-.01v.02h-.01l-.02-.02h.01V3h.01v-.02h.01v-.02zm-.03-.07l.02.02v-.02.01h.01v.01h.01v.02h.01v.03h-.02v-.01l-.01-.01v-.02h-.01v-.01h-.01v-.02zm0 .02v-.02.02zm.02 0l-.02-.02h.02v.02zm0-.02l.01.01-.01.01v-.02zm0 0l-.01.02h-.01l.02-.02zm-.01.02h-.01.01zm-.06-.02v-.03h.02v.01h.03v.01h.01v.01h.01l-.02.02V2.9h-.01v-.01h-.04zm-.12-.03h.12v.03h-.12l-.01-.02.01-.01zm0 .03h-.01v-.02l.01.02zm.01-.02h-.02l.01-.01.01.01zm-.01-.01h.01v.01l-.01-.01zm-.06.01l.02-.02v.01h.04v.03h-.02v-.01h-.03v-.01h-.01zm-.04-.15l.02.01H4.1v.08h.01v.02h.01v.01h.01l.01.01h.01l-.02.02h-.01v-.01h-.01v-.01H4.1v-.01h-.01v-.01l-.01-.01V2.8l-.01-.01v-.04h.01v-.03h.01zm.02.01zm-.02-.02l.02.01v.01l-.02-.01v-.01zm.02.01l.01-.01-.01.01zm0-.03l-.01.02.02-.01v.01h-.01v.01l-.02-.01V2.7l.02-.01zm-.02.01l.01-.02.01.01-.02.01zm.01.01l.01-.02.01.01-.02.01zm.02-.01l-.01.02-.01-.01.02-.01zm.11-.09l-.01.02h-.04v.01h-.02v.01h-.01l-.01.01-.01.01v.01h-.01v.02h-.03l.01-.01v-.02h.01v-.01l.01-.01v-.01h.01v-.01h.01l.01-.01h.01l.01-.01H4.23zm0 0zm.02 0v.03h-.01v-.01h-.02l.01-.02h.02zm0 0zm.02 0v.03h-.02v-.03h.02zm.15-.06l.02.02h-.01l-.01.01v.01h-.01l-.01.01h-.01v.01h-.02v.01h-.02l-.01.01h-.03l-.01.01h-.03v-.03H4.33V2.6h.02l.01-.01h.02v-.01h.01v-.01h.01v-.01h.01l.01-.01zm0 0zm.06-.16h.03v.02l-.01.01v.05h-.01v.02l-.01.01v.01l-.01.01v.01l-.01.01-.01.01-.01.01v.01l-.02-.02.01-.01v-.01h.01v-.01h.01V2.5h.01v-.01l.01-.01v-.03h.01V2.39zm-.05-.15l.01-.01h.01v.01h.01v.01l.01.01v.01h.01v.02h.01v.02l.01.01v.04l.01.01v.02h-.03v-.05l-.01-.01v-.02l-.01-.01v-.02h-.01v-.01l-.01-.01-.01-.01v-.01zm-.14-.07l.01-.02h.02v.01h.03l.01.01h.01l.01.01h.01l.01.01h.01v.01h.01v.01h.01v.01h.01v.01l-.01.01h-.01v-.01h-.01v-.01H4.4v-.01h-.02V2.2h-.01l-.01-.01h-.01l-.01-.01h-.03l-.01-.01h-.01zm.01-.02zm-.06.01l.02-.02h.01v.01h.03l-.01.02h-.03v-.01h-.02zm0 0h.01-.01zM4.21 2l.01.01v.02l-.01.01v.04l.01.01v.02h.01v.01h.01v.01h.01l.01.01-.02.02v-.01h-.01l-.01-.01-.01-.01v-.01H4.2V2.1h-.01v-.08h.01V2h.01zm0 0zm.01-.04h.03v.01h-.01v.02h-.01v.02h-.01L4.21 2v-.02h.01v-.02zm0 0zm.01-.05h.02v.05h-.03v-.01h.01v-.04zm-.05-.11l.02-.02.01.01v.01h.01v.01l.01.01v.01h.01v.03h.01v.05h-.02v-.04h-.01v-.03h-.01v-.01l-.01-.01v-.01h-.01V1.8h-.01zm.02-.02zm-.12-.03v-.02h.04l.01.01h.02v.01h.02v.01h.01v.01h.01l.01.01-.02.02v-.01h-.01v-.01h-.01l-.01-.01h-.01v-.01h-.03v-.01h-.03zm-.03 0v-.02h.03v.02h-.03zm0 0zm-.02.01v-.03h.02v.02h-.01v.01h-.01zm0-.03zm-.08.02l.01-.02h.01v.01h.05v-.01h.01v.03h-.07v-.01h-.01zm0 0zm-.06-.15l.02.01v.03H3.9v.01l.01.01v.03h.01v.01l.01.01v.01h.02v.01h.01l-.01.02h-.01l-.01-.01h-.01v-.01h-.01v-.01H3.9V1.7h-.01v-.02l-.01-.01v-.05h.01V1.6zm0 0l-.01.03.01-.03zm.01-.04l.03.01h-.01v.03l-.01.01-.02-.01v-.01h.01v-.03zm0 0v.01-.01zm.01-.05h.02V1.57l-.03-.01v-.01h.01v-.04zm-.05-.14l.02-.01v.01h.01v.01l.01.01v.01h.01v.02l.01.01v.03h.01v.05h-.02v-.03H3.9v-.04h-.01v-.02l-.01-.01V1.4l-.01-.01v-.01h-.01v-.01z" class="fil1"/><path fill="#f08bb2" fill-rule="nonzero" d="M1.74 4.47c-.03.06-.08.12-.14.16-.08.06-.18.09-.28.09-.1 0-.2-.03-.28-.09-.06-.04-.11-.1-.14-.16H.78c-.1 0-.19-.04-.26-.11S.41 4.2.41 4.1v-.3c0-.1.04-.19.11-.26s.16-.11.26-.11h.14c0-.12.06-.23.14-.31.08-.08.2-.14.32-.14h.46c.1 0 .25.08.37.18.09.07.17.16.21.25h.23c.08 0 .18.03.26.08.06.03.12.07.16.12.05.05.08.11.09.17.03.03.07.06.09.1.04.06.06.13.06.2 0 .11-.05.21-.13.28-.08.06-.18.1-.29.11-.03.06-.08.12-.14.16-.08.06-.18.1-.28.1-.11 0-.2-.04-.28-.09-.06-.05-.11-.11-.15-.17h-.3zm-.26-.01c.04-.03.08-.08.1-.13l.02-.07h.58l.03.07c.02.06.05.1.1.14.04.03.1.05.16.05s.11-.02.16-.05c.04-.04.08-.08.1-.14l.02-.08.09.01h.03c.07 0 .13-.02.17-.06.04-.03.07-.07.07-.12 0-.03-.01-.06-.03-.09-.09-.14-.11-.08-.13-.2 0-.01-.01-.02-.03-.04-.03-.03-.07-.06-.11-.09-.05-.03-.11-.05-.16-.05h-.37l-.02-.07c-.02-.07-.1-.15-.18-.23-.09-.07-.19-.12-.24-.12h-.46c-.07 0-.13.03-.18.07-.04.05-.07.11-.07.18v.2H.78c-.04 0-.08.02-.11.05-.03.03-.05.07-.05.11v.3c0 .04.02.08.05.11.03.03.07.05.11.05h.26l.02.07c.02.05.06.1.1.13.05.03.1.05.16.05s.11-.02.16-.05z"/><path id="1" d="M1.6 4.64l-.01-.02.01-.01h.01l.01-.01.01-.01.01-.01.01-.01v-.01h.01l.01-.01v-.01h.01v-.01h.01v-.01l.01-.01.01-.01v-.01h.01v-.02h.01v-.01l.02.01v.01l-.01.01v.01h-.01v.02h-.01v.01h-.01v.01H1.7v.01l-.01.01v.01h-.01v.01h-.01v.01h-.01v.01h-.01v.01h-.01l-.01.01h-.01v.01h-.01v.01H1.6zm-.28.09v-.02h.05V4.7h.05l.01-.01h.02l.01-.01h.03l.01-.01h.01l.01-.01h.01l.01-.01h.01l.01-.01h.01v-.01h.01l.01-.01.01.02-.01.01-.01.01h-.01l-.01.01h-.01l-.01.01h-.01l-.01.01h-.01l-.01.01h-.02l-.01.01h-.02l-.01.01H1.4l-.01.01h-.07zm-.28-.09l.01-.02.01.01.01.01h.01l.01.01h.01l.01.01h.01l.01.01h.01l.01.01h.03v.01h.03l.01.01h.04l.01.01h.05v.02h-.07l-.01-.01H1.2l-.01-.01h-.02l-.01-.01h-.02l-.01-.01h-.01l-.01-.01H1.1l-.01-.01h-.01l-.01-.01h-.01l-.01-.01h-.01v-.01zM.9 4.48v-.02h.01v.01h.01v.02h.01v.01l.01.01.01.01v.01h.01v.01l.01.01.01.01.01.01.01.01.01.01.01.01.01.01h.01v.01h.01l-.01.02h-.01v-.01h-.01l-.01-.01L1 4.61H.99V4.6H.98v-.01H.97v-.01H.96v-.01H.95v-.01l-.01-.01v-.01H.93v-.01H.92v-.01H.91V4.5H.9v-.01l-.01-.01v-.01l.01.01zm0-.02h.01H.9zm-.12 0H.9v.02H.78v-.02zm-.27-.11l.02.02v-.02l.01.01.01.01h.01v.01h.01l.01.01.01.01H.6l.01.01.01.01h.02v.01h.02l.01.01h.02l.01.01H.76l.01.01h.01v.02H.74l-.01-.01H.69l-.01-.01H.65l-.01-.01H.63l-.01-.01H.61L.6 4.43H.59v-.01H.58l-.01-.01H.56L.55 4.4l-.01-.01H.53v-.01l-.01-.01H.51v-.02zm0 .02L.5 4.36l.01-.01v.02zm.02 0l-.02-.02h.02v.02zm0-.02l.01.01-.01.01v-.02zM.4 4.1h.02v.02l.01.01v.05l.01.01v.02l.01.01v.02h.01v.02l.01.01.01.01v.01l.01.01.01.01v.01h.01v.01l.01.01.01.01-.02.02v-.01L.5 4.35H.49v-.01l-.01-.01v-.01H.47v-.01L.46 4.3v-.01H.45v-.01l-.01-.01v-.01l-.01-.01v-.01l-.01-.01V4.2l-.01-.01v-.03L.4 4.15V4.1zm.02-.3v.3H.4v-.3h.02zm.1-.27v.02h.01l-.01.01-.01.01v.01H.5v.01l-.01.01-.01.01v.01l-.01.01-.01.01v.02l-.01.01v.01l-.01.01v.03H.43v.05l-.01.01v.02H.4v-.05l.01-.01v-.03l.01-.01v-.03l.01-.01v-.01l.01-.01v-.01l.01-.01v-.01h.01V3.6l.01-.01v-.01h.01v-.01l.01-.01v-.01H.5l.01-.01v-.01h.01zm-.01 0h.01-.01zm.01.02v-.02l.01.02H.52zm.01 0H.52h.01zm.25-.13v.02l-.01.01H.7l-.01.01H.67l-.01.01H.64v.01H.62l-.01.01-.01.01H.59l-.01.01-.01.01H.56v.01H.55l-.01.01-.01.01-.02-.02h.01l.01-.01v-.01h.01l.01-.01h.01v-.01h.01l.01-.01h.01v-.01H.6l.01-.01h.02l.01-.01.01-.01h.03l.01-.01h.04l.01-.01h.04zm.14.02H.78v-.02h.14l.01.01-.01.01zm.01-.01v.01H.92l.01-.01zm.12-.32l.02.02h-.01l-.01.01-.01.01v.01l-.01.01h-.01v.01l-.01.01v.01L1 3.21v.01l-.01.01-.01.01v.02H.97v.01l-.01.01v.02l-.01.01v.03l-.01.01v.05l-.01.01v.02H.91v-.04l.01-.02v-.04l.01-.01V3.3l.01-.01v-.01l.01-.01v-.02l.01-.01v-.01l.01-.01v-.01l.01-.01.01-.01v-.01L1 3.17l.01-.01v-.01l.01-.01.01-.01.01-.01.01-.01zm.33-.14V3h-.09l-.01.01h-.02l-.01.01h-.02l-.01.01H1.2l-.01.01h-.01l-.01.01h-.01l-.01.01-.01.01h-.01l-.01.01h-.01v.01l-.01.01h-.01l-.01.01-.01.01v.01l-.02-.02.01-.01.01-.01.01-.01.01-.01h.01l.01-.01.01-.01h.01l.01-.01.01-.01h.01l.01-.01h.01l.01-.01h.01L1.21 3h.02l.01-.01h.02l.02-.01h.04l.01-.01h.05zm.46.03h-.46v-.03h.46V3zm.38.15l-.02.01h-.01l-.01-.01-.01-.01-.01-.01-.02-.01-.01-.01-.01-.01h-.01l-.01-.01-.02-.01-.01-.01h-.01l-.01-.01-.01-.01h-.02l-.01-.01H2l-.01-.01h-.01l-.02-.01h-.01l-.01-.01h-.02L1.91 3h-.07v-.03h.03l.01.01h.03l.02.01h.02l.01.01h.01l.02.01H2l.01.01h.01l.01.01h.02l.01.01.01.01h.01l.02.01.01.01.01.01h.01l.01.01.02.01.01.01.01.01.01.01.01.01.02.01zm.2.25v.02l-.01-.01V3.4l-.01-.01v-.01l-.01-.01v-.01h-.01l-.01-.01v-.01l-.01-.01v-.01h-.01l-.01-.01V3.3l-.01-.01-.01-.01-.01-.01-.01-.01v-.01l-.01-.01h-.01l-.01-.01v-.01l-.01-.01h-.01l-.01-.01-.01-.01-.01-.01-.01-.01-.01-.01.02-.01.01.01.01.01h.01l.01.01.01.01v.01h.01l.01.01.01.01.01.01v.01h.01l.01.01v.01l.01.01.01.01h.01v.01l.01.01.01.01v.01l.01.01.01.01v.01l.01.01.01.01v.01l.01.01v.01h-.01zm0 .02l-.01-.01.01.01zm.23 0h-.23V3.4h.23v.02zm.27.05l-.02.03v-.01h-.01l-.01-.01h-.01l-.01-.01h-.01l-.01-.01h-.01l-.01-.01h-.03l-.01-.01h-.02l-.01-.01h-.03l-.01-.01H2.65V3.4h.08l.01.01h.03v.01h.03l.01.01h.02v.01h.02l.01.01h.02v.01h.01l.01.01h.02zm-.02.03zm.18.1l-.02.02v-.01h-.01V3.6h-.01v-.01h-.01v-.01h-.01v-.01h-.01v-.01H3l-.01-.01-.01-.01h-.01v-.01h-.02v-.01h-.01l-.01-.01h-.01V3.5H2.9l.02-.03v.01h.01l.01.01.01.01h.01l.01.01h.01v.01h.01l.01.01h.01v.01h.01v.01h.01l.01.01.01.01.01.01.01.01.01.01zm0 0zm.08.17l-.01.02v-.01l-.01-.01v-.04h-.01v-.02l-.01-.01v-.01l-.01-.01v-.01H3.1v-.01l-.01-.01-.01-.01v-.01h-.01v-.01h-.01l.02-.02.01.01v.01h.01v.01h.01v.01h.01v.01l.01.01v.01l.01.01v.01l.01.01v.02h.01v.03l.01.01v.02l-.01-.01zm-.01.02v-.01.01zm.11.09h-.02v.01-.01h-.01v-.01l-.01-.01v-.01h-.01v-.01H3.2v-.01h-.01v-.01h-.01v-.01h-.01V3.8h-.01l-.01-.01.01-.02h.01v.01h.01v.01h.01l.01.01.01.01v.01h.01l.01.01.01.01v.01h.01v.01l.01.01v.01zm0-.01v.01-.01zm-.02.01h.02l-.02.01v-.01zm0 .01v-.01.01zm.08.19H3.3V4.02l-.01-.01v-.03l-.01-.01v-.02h-.01v-.02l-.01-.01v-.01l-.01-.01v-.01h-.01l.02-.02v.01h.01v.01l.01.01v.01l.01.01v.01l.01.01v.02h.01V4h.01v.08zm-.13.29l-.02-.02.01-.01h.01v-.01l.01-.01h.01v-.01l.01-.01.01-.01.01-.01v-.01l.01-.01v-.01h.01v-.01l.01-.01v-.02l.01-.01v-.02l.01-.01v-.02l.01-.01V4.08h.02v.07l-.01.01v.03l-.01.01v.02l-.01.01v.01l-.01.01v.01l-.01.01-.01.01v.01l-.01.01-.01.01v.01h-.01l-.01.01v.01l-.01.01H3.2l-.01.01v.01zm-.29.1l-.02-.01h.03l.01-.01h.05l.01-.01h.03l.01-.01h.02l.01-.01h.01l.01-.01h.02l.01-.01.01-.01h.01l.01-.01.01-.01h.01l.01-.01.01-.01.02.02h-.01l-.01.01-.01.01-.01.01h-.01l-.01.01h-.01l-.01.01-.01.01h-.01l-.01.01h-.02l-.01.01h-.02l-.01.01H3v.01h-.05l-.01.01h-.05l.01-.01zm-.02-.01h.01-.01zm-.13.18l-.01-.02h.01l.01-.01.01-.01h.01v-.01h.01v-.01h.01v-.01h.01v-.01h.01v-.01l.01-.01.01-.01.01-.01v-.01l.01-.01v-.01h.01v-.02h.01v-.01l.02.01v.02h-.01v.01h-.01v.02h-.01v.01h-.01v.02h-.01v.01h-.01v.01h-.01v.01h-.01v.01h-.01v.01H2.8v.01h-.01v.01h-.01v.01h-.01v.01h-.02zm-.28.1v-.03h.09l.01-.01h.03v-.01h.02l.01-.01h.02l.01-.01h.01l.01-.01h.01l.01-.01.01-.01h.02v-.01l.01-.01.01.02v.01h-.01l-.01.01h-.01v.01h-.01l-.01.01h-.01l-.01.01h-.01l-.01.01h-.01l-.01.01h-.02l-.01.01h-.03l-.01.01h-.04l-.01.01h-.05zm-.29-.1l.01-.01h.01l.01.01h.01v.01h.02l.01.01.01.01h.02l.01.01h.01v.01h.03l.01.01h.02l.01.01H2.47v.03h-.05l-.01-.01h-.05l-.01-.01h-.03l-.01-.01H2.3l-.01-.01h-.02l-.01-.01h-.01l-.01-.01h-.01l-.01-.01h-.01l-.01-.01-.01-.01-.01-.01zm-.14-.16v-.02h.01l.01.01v.01l.01.01v.01h.01v.01l.01.01v.01h.01v.01l.01.01.01.01.01.01.01.01.01.01.01.01.01.01h.01v.01h.01v.01l-.01.01h-.01l-.01-.01-.01-.01-.01-.01-.01-.01-.01-.01-.01-.01-.01-.01-.01-.01-.01-.01-.01-.01v-.01l-.01-.01-.01-.01V4.5l-.01-.01-.01-.01v-.01l.01.01zm0-.02h.01-.01zm-.3 0h.3v.02h-.3l-.01-.02h.01zm-.01 0h.01-.01zm-.16-.13h.02v.01h-.01v.02l-.01.01v.01l-.01.01v.01h-.01v.01l-.01.01-.01.01-.01.01-.01.01-.01.01-.01.01h-.01l-.01-.02h.01v-.01h.01v-.01h.01v-.01h.01v-.01h.01V4.4h.01v-.01h.01v-.02h.01v-.02h.01v-.01l.01-.01zm0 0v-.02.02zm.04-.06l-.02.06h-.02l.02-.07.01-.01.01.02zm-.02-.01v-.01h.01l-.01.01zm.59.01H1.6v-.02h.58l.01.01-.01.01zm0-.02h.01v.01l-.01-.01zm.02.09l-.03-.08h.02l.03.07-.02.01zm.02-.01zm.09.13l-.01.02v-.01h-.01l-.01-.01h-.01v-.01h-.01v-.01l-.01-.01-.01-.01-.01-.01V4.4h-.01v-.02h-.01v-.02H2.2v-.02l.02-.01v.01l.01.01v.02h.01v.01l.01.01v.01h.01v.01h.01v.01h.01v.01l.01.01.01.01h.01v.01zm-.01.02zm.17.03v.02H2.41l-.01-.01h-.03v-.01h-.02l-.01-.01h-.01l-.01-.01h-.01v-.01H2.3l.01-.02h.01l.01.01h.01v.01h.02v.01h.02l.01.01h.03l.01.01h.04zm.15-.05l.01.02h-.01v.01h-.01v.01h-.02v.01h-.02l-.01.01h-.03l-.01.01h-.05v-.02h.03l.01-.01h.04v-.01h.02l.01-.01h.01v-.01h.02v-.01h.01zm.1-.13h.02v.01h-.01v.03h-.01v.02h-.01v.01l-.01.01-.01.01v.01h-.01v.01h-.01v.01h-.01v.01h-.01v.01h-.01l-.01.01-.01-.02.01-.01h.01v-.01h.01v-.01l.01-.01.01-.01V4.4h.01v-.01h.01v-.02h.01v-.01l.01-.01v-.02h.01zm.04-.08l-.02.08h-.02l.02-.08.02-.01v.01zm-.02 0l.01-.01h.01l-.02.01zm.1.02l-.09-.01.01-.02.08.01v.02zm0 0zm.02-.02v.02h-.02v-.02h.02zm0 .02h-.01.01zm.01-.02v.02h-.01v-.02h.01zm.17-.06l.01.02v.01h-.01l-.01.01h-.01v.01h-.01L3 4.25h-.02l-.01.01h-.02l-.01.01h-.07v-.02H2.93v-.01h.03v-.01h.02l.01-.01H3l.01-.01h.01l.01-.01.01-.01zm.01.02zm.04-.13h.03v.03h-.01v.03H3.1v.02h-.01v.02h-.01v.01h-.01v.01h-.01v.01h-.01l-.01-.02h.01v-.01h.01v-.01l.01-.01v-.01h.01v-.02h.01v-.05zm0-.08l-.02-.02.02.01.01.01v.01l.01.01v.03h.01v.03h-.03v-.05h-.01v-.02h-.01V4h.02zm-.02-.02h.01l.01.01-.02-.01zm0 0l.02.02h-.02v-.02zm.01.02v.01L3.07 4h.01zm-.14-.21h.02v.01l.01.01v.03h.01v.02h.01v.01l.01.01.01.01.01.01.01.01.01.01v.01h.01l.01.01v.01l.01.01.01.01.01.02-.02.01-.01-.01-.01-.01v-.01l-.01-.01-.01-.01v-.01l-.01-.01h-.01v-.01H3v-.01l-.01-.01h-.01v-.01h-.01v-.01l-.01-.01v-.01l-.01-.01v-.03l-.01-.01v-.02zm.02 0zm-.05-.03l.02-.02v.01h.01v.01h.01v.01h.01v.02h-.02l-.01-.01v-.01h-.01v-.01h-.01zm-.11-.08l.02-.03v.01h.01l.01.01h.01v.01h.01l.01.01.01.01h.01v.01h.01v.01h.01v.01h.01v.01h.01l-.02.02v-.01H2.9v-.01h-.01v-.01h-.01v-.01h-.01l-.01-.01h-.01V3.7h-.01v-.01h-.02v-.01H2.8zm-.15-.05V3.6h.03l.01.01h.03l.01.01h.02l.01.01h.01l.01.01h.01l.01.01h.02l-.02.03v-.01h-.01l-.01-.01h-.01l-.01-.01h-.02v-.01h-.03v-.01H2.65zm-.37-.03h.37v.03h-.37l-.02-.01.02-.02zm0 .03h-.01l-.01-.01.02.01zm-.01-.1l.02.08-.03.01-.02-.08.03-.01zm-.2-.21l.02-.01.01.01.01.01h.01l.01.01v.01h.01l.01.01.01.01v.01h.01l.01.01v.01l.01.01h.01v.01l.01.01.01.01v.01l.01.01.01.01v.01l.01.01v.01l.01.01v.02h.01l-.03.01v-.02l-.01-.01V3.5l-.01-.01v-.01h-.01v-.01l-.01-.01-.01-.01v-.01l-.01-.01-.01-.01v-.01h-.01l-.01-.01v-.01h-.01l-.01-.01-.01-.01v-.01h-.01l-.01-.01-.01-.01-.01-.01-.01-.01zm-.23-.12v-.02h.04v.01h.02l.01.01h.02l.01.01h.01l.01.01h.01l.01.01.01.01H2l.01.01.01.01h.01v.01h.01l.01.01.01.01h.01l.01.01.01.01-.02.01h-.01l-.01-.01V3.3h-.01l-.01-.01h-.01l-.01-.01L2 3.27l-.01-.01h-.01l-.01-.01h-.01v-.01h-.02l-.01-.01-.01-.01H1.9l-.01-.01h-.03V3.2h-.02zm-.46-.02h.46v.02h-.46v-.02zm-.17.09l-.02-.01.01-.01.01-.01.01-.01h.01v-.01h.01l.01-.01h.01l.01-.01h.02v-.01h.03l.01-.01h.05v.02h-.03l-.01.01H1.3v.01h-.02v.01h-.02v.01h-.01l-.01.01h-.01v.01h-.01v.01h-.01zm-.07.17h-.02V3.38h.01v-.03h.01v-.02l.01-.01v-.01h.01V3.3l.01-.01v-.01h.01v-.01h.01v-.01l.02.01v.01H1.2v.01h-.01v.01l-.01.01v.01h-.01v.01l-.01.01v.02h-.01v.03l-.01.01v.04zm-.02.2v-.2h.02v.2l-.01.01-.01-.01zm.02 0v.01h-.01l.01-.01zm-.36-.01h.35v.02H.78v-.02zm-.1.05l-.02.01v-.01l.01-.01.01-.01h.01v-.01h.02v-.01h.02l.01-.01h.04v.02H.75v.01H.72v.01H.7v.01H.69v.01H.68v.01-.02zm-.02.01H.65l.01-.01v.01zm0 0l.02-.01v.02l-.02-.01zm.02-.01v.02-.02zm-.05.12H.61v-.04l.01-.01v-.02l.01-.01v-.01h.01V3.7l.01-.01.01-.01.02.02H.67v.01H.66v.01H.65v.02H.64v.03H.63v.03zm-.02.3v-.3h.02v.3H.61zm.06.1v.02H.66l-.01-.01-.01-.01v-.01H.63v-.01l-.01-.01v-.02H.61V4.1h.02v.03h.01v.03h.01v.02h.01v.01h.01v.01h.01-.01zm0 .02H.66h.01zm0 0V4.2h.01l-.01.02zm0-.02h.01-.01zm.11.05v.02H.74l-.01-.01H.71L.7 4.25H.69v-.01H.68l-.01-.01-.01-.01.02-.02v.01h.01v.01H.7v.01h.02v.01h.03v.01h.03zm.26.02H.78v-.02h.26l.01.01-.01.01zm0-.02l.01.01-.01-.01zm.01.08l-.02-.06.02-.01.02.07h-.02zm.12.12l-.01.02h-.01l-.01-.01h-.01v-.01l-.01-.01h-.01v-.01l-.01-.01-.01-.01V4.4h-.01v-.01l-.01-.01v-.01l-.01-.01v-.01l-.01-.01v-.01h.02l.01.01v.01l.01.01v.01l.01.01v.01h.01v.01l.01.01.01.01.01.01h.01v.01h.01v.01h.01zm.15.05v.02h-.07l-.01-.01h-.02l-.01-.01H1.2l-.01-.01h-.01l-.01-.01h-.01v-.01l.01-.02v.01h.02v.01h.01l.01.01h.02v.01h.03v.01H1.32zm.15-.05l.01.02v.01h-.01l-.01.01h-.01l-.01.01h-.01l-.01.01H1.4l-.01.01h-.07V4.5H1.38v-.01h.03v-.01h.02l.01-.01h.01v-.01h.02v-.01zm.01.02z" class="fil1"/><path fill="#c5e3d7" fill-rule="nonzero" d="M1.34 1.17c-.07.15.12.27.26.22.09-.03.19-.17.13-.31-.07-.18-.34-.21-.48-.1-.12.09-.17.24-.12.38.04.12.12.2.29.22.08.01.17.01.26-.03.15-.07.27-.18.28-.34.03-.27-.16-.5-.49-.51-.12.01-.24.06-.34.14-.1.08-.18.2-.21.33-.02.09-.01.18.02.28.04.08.1.16.18.22.09.07.18.12.27.13.27.02.52-.07.65-.32.07-.13.08-.32.05-.56 0-.05.03-.1.08-.1.05-.01.1.03.1.08.03.28 0 .49-.09.66-.09.17-.23.27-.42.34-.27.09-.5.09-.74-.08-.12-.09-.2-.19-.24-.31-.12-.29 0-.61.24-.81.13-.11.29-.17.45-.17h.01c.04 0 .08.01.11.02.2.04.32.14.4.26.07.13.09.27.08.4 0 .03-.01.05-.01.08-.1.3-.34.46-.66.44-.04-.01-.09-.03-.13-.04-.16-.07-.23-.18-.27-.27-.02-.05-.08-.33.16-.51.23-.19.55-.13.64.09.12.3-.04.55-.37.52h-.02c-.1-.03-.13-.06-.17-.12-.13-.2.05-.44.23-.43.07.01.15.01.18.12.02.08-.01.16-.1.21-.08.02-.17-.01-.21-.13zm.76.66c.04-.05.1-.18.14-.16.14.08.19.23.43.37 0 .06-.05.14-.1.18-.26-.12-.26-.24-.47-.39zM.59.2C.64.18.76.09.79.12c.14.23.03.12.2.32l.07.11C1.03.61.95.65.88.67.71.45.71.44.59.2zm2.25.95c-.02-.05-.03-.19-.08-.19-.26.05-.02.03-.28.06l-.14.03c-.01.06.01.15.05.21.28-.04.2-.03.45-.11zM2.06.05C2 .04 1.87-.03 1.85.01c-.1.25-.01.12-.13.35l-.06.13c.05.05.13.08.2.08.13-.25.13-.27.2-.52zm-.47 1.98c-.06.01-.23-.03-.24.02.01.26.04.15.02.41v.14c.06.02.15.02.22-.01.01-.28.04-.3 0-.56zm-1.26.14c-.02-.05-.08-.16-.04-.19.22-.14.16-.12.36-.28l.01-.01.07-.06.12.16c-.21.21-.28.27-.52.38zM.08 1.1L0 1.07C.02 1.02.02.9.06.91l.09.03c.21.08.23.06.43.05h.1l-.02.2-.12.01H.52c-.22.01-.19 0-.44-.1z"/></g></g></svg>