<svg xmlns="http://www.w3.org/2000/svg" width="64" height="70" fill-rule="evenodd" clip-rule="evenodd" image-rendering="optimizeQuality" shape-rendering="geometricPrecision" text-rendering="geometricPrecision" viewBox="0 0 35.06 38.45"><defs><style>.fil0{fill:#6fa691}.fil1,.fil4{fill:#2b2a29;fill-rule:nonzero}.fil4{fill:#6fa691}</style></defs><g id="Слой_x0020_1"><g id="_1410052592"><path d="M17.71 10.04l-2.63-.27s.42.18-1.45-.38c-1.6-.48-4.17-.33-6.54 4.86C4 21.04 3.52 22.87 3.6 24.16c.11 1.89 1.43 5.18 4.19 4.8.18-.03 1.22 3.36 1.22 3.36s-4.74-.3-7.29-3.57c-3.17-4.06-.96-11.34.35-14.33 1.43-3.25 2.09-5.6 4.88-7.65 4-2.94 8.63-1.67 9.52-1.25 2.1.99 1.98 2.8 1.24 4.52z" class="fil0"/><path id="1" d="M15.07 9.86l-.03-.01.05-.17 2.63.27-.02.18-2.63-.27zm-.03-.01l-.56-.23.61.06-.05.17zm-1.38-.55l.17.05.15.05.15.04.13.04.12.03.11.04.09.02.09.03.08.02.07.02.06.01.05.02.05.01.04.01h.03l.03.01h.03v.01h-.03l-.05.07.02.07.01.01h-.01l-.01-.01.08-.16h.01v.01h.02l.01.01.01.01.02.01.02.08-.05.07-.04.01h-.04l-.02-.01h-.02l-.03-.01h-.03l-.04-.01-.05-.02-.06-.01-.06-.02-.07-.02-.08-.02-.09-.02-.1-.03-.1-.03-.13-.04-.13-.03-.14-.05-.16-.04-.17-.05.06-.18zm-6.65 4.92l.22-.48.23-.44.22-.42.23-.39.23-.37.22-.34.23-.31.23-.29.22-.27.23-.24.23-.23.22-.2.22-.19.23-.16.22-.15.21-.12.22-.12.22-.09.21-.08.21-.07.2-.05.21-.04.2-.03.19-.01.19-.01.19.01.18.01.18.02.17.03.17.03.16.04.16.04-.06.18-.15-.04-.15-.04-.16-.03-.17-.03-.16-.02-.18-.01-.18-.01-.18.01-.18.01-.19.03-.19.04-.2.05-.2.06-.2.08-.21.09-.2.1-.21.13-.22.14-.21.16-.22.18-.22.19-.22.22-.22.24-.22.26-.22.29-.22.31-.23.33-.22.36-.22.39-.23.41-.22.44-.22.47-.17-.07zm-3.5 9.94l-.01-.12v-.26l.01-.14.01-.15.02-.15.02-.16.03-.17.03-.18.04-.19.05-.2.06-.21.06-.23.07-.24.08-.25.09-.27.1-.28.1-.31.12-.31.13-.34.14-.36.15-.38.16-.39.17-.42.19-.44.2-.47.21-.49.23-.51.23-.54.26-.57.27-.59.28-.62.17.07-.28.62-.27.6-.25.56-.24.54-.23.51-.21.49-.2.47-.18.44-.18.42-.16.39-.15.38-.14.35-.12.34-.12.32-.11.29-.1.29-.08.26-.08.25-.07.24-.06.22-.06.21-.05.2-.04.18-.03.18-.03.16-.02.16-.01.15-.02.14v.5l-.18.01zm4.29 4.89l-.26.02-.26.01-.24-.02-.24-.03-.23-.05-.22-.07-.21-.09-.2-.1-.2-.12-.18-.13-.18-.14-.17-.16-.16-.16-.15-.18-.14-.18-.14-.19-.13-.19-.11-.21-.12-.2-.1-.21-.1-.22-.08-.21L3.9 26l-.08-.21-.06-.22-.06-.21-.05-.21-.04-.21-.04-.2-.03-.2-.02-.19-.01-.19.18-.01.02.18.02.19.02.19.04.2.04.2.05.2.06.21.06.21.07.21.08.21.09.21.09.21.1.2.11.21.11.19.13.19.13.18.13.18.15.17.15.15.16.15.17.13.18.13.18.11.19.09.2.08.2.07.22.05.22.03.23.02.24-.01.24-.02.03.18zm0 0zm1.22 3.18l-.09.11-.01-.01-.01-.03-.01-.04-.02-.06-.02-.08-.03-.09-.04-.1-.03-.11-.04-.13-.04-.13-.05-.14-.05-.14-.04-.16-.05-.15-.06-.16-.05-.15-.05-.16-.06-.16-.05-.15-.05-.15-.06-.14-.05-.14-.04-.13-.05-.12-.05-.12-.04-.1-.04-.08-.03-.07-.03-.06-.02-.03-.01-.01.05.01-.03-.18.09.02.05.05.03.05.03.06.04.08.04.09.05.11.04.11.05.12.05.14.05.13.05.15.06.15.05.15.05.16.06.16.05.16.05.15.05.16.05.15.05.15.04.14.05.13.04.12.03.11.04.11.02.09.03.07.02.07.01.04.01.03v.01l-.09.12.01-.18zm.08.06l.04.13-.13-.01.09-.12zM1.8 28.7l.24.29.25.28.27.26.27.25.28.23.29.21.29.2.3.19.3.18.3.16.3.15.3.13.3.13.29.11.29.11.28.09.28.09.27.07.25.07.25.06.23.05.22.05.21.04.19.03.17.03.15.02.13.01.12.02.08.01h.07l.04.01h.01l-.01.18h-.02l-.04-.01h-.06l-.1-.01-.11-.01-.13-.02-.16-.02-.17-.03-.19-.03-.21-.04-.22-.05-.24-.05-.25-.06-.26-.07-.28-.08-.27-.08-.29-.1-.3-.11-.3-.11-.3-.13-.3-.14-.31-.15-.31-.17-.3-.17-.3-.2-.3-.2-.3-.22-.28-.24-.28-.25-.27-.27-.26-.28-.25-.3.15-.11zm.36-14.24l-.13.29-.13.31-.13.34-.13.36-.14.38-.13.39-.13.42-.13.43-.13.44-.12.45-.11.47-.11.48-.1.48-.09.49-.08.5-.06.5-.06.51-.03.51-.03.5v.51l.01.5.03.5.05.5.07.48.09.48.11.47.14.46.17.45.19.43.22.42.25.4.28.39-.15.11-.29-.4-.25-.41-.23-.43-.19-.44-.17-.46-.15-.47-.11-.48-.1-.49-.07-.49-.05-.5-.03-.51-.01-.51.01-.51.02-.51.04-.52.05-.51.07-.5.08-.51.09-.49.1-.49.1-.48.12-.47.12-.46.13-.45.13-.43.13-.41.14-.4.13-.38.14-.36.13-.34.13-.32.13-.29.17.07zm4.85-7.62l-.26.19-.24.2-.23.19-.22.2-.21.2-.19.2-.19.2-.19.21-.17.21-.16.21-.16.22-.15.21-.15.23-.14.22-.13.23-.14.23-.12.23-.13.24-.12.24-.12.25-.11.25-.12.26-.11.25-.12.27-.11.27-.12.27-.12.28-.12.28-.12.29-.12.29-.13.3-.13.3-.17-.07.13-.31.13-.29.12-.29.12-.29.12-.28.12-.28.11-.27.12-.27.12-.27.11-.26.12-.25.12-.26.11-.25.13-.24.12-.24.13-.24.13-.23.14-.23.14-.23.15-.23.16-.22.16-.22.17-.21.17-.22.19-.21.19-.2.2-.21.22-.2.22-.2.23-.2.25-.2.25-.19.12.14zm9.42-1.24l-.09-.04-.12-.04-.13-.05-.15-.05-.17-.05-.19-.05-.21-.06-.22-.05-.24-.04-.25-.05-.27-.04-.28-.03-.29-.03-.3-.02-.32-.02h-.65L12.2 5l-.34.02-.36.04-.36.05-.37.07-.37.08-.37.1-.38.12-.38.13-.38.15-.38.18-.38.19-.37.21-.38.24-.37.26-.12-.14.39-.27.38-.24.38-.22.39-.2.39-.17.39-.16.38-.14.39-.11.38-.1.37-.09.38-.07.37-.05.36-.04.35-.03.35-.01.34-.01.33.01.32.01.31.03.29.03.29.03.27.04.26.05.24.05.23.05.21.05.19.05.18.06.15.05.14.05.12.04.1.05-.08.16zm1.29 4.35l-.09.05.06-.16.07-.16.06-.16.05-.16.05-.16.04-.15.04-.16.04-.16.02-.16.02-.15.02-.16.01-.15v-.15l-.01-.15-.01-.14-.02-.15-.03-.14-.04-.14-.05-.14-.05-.13-.07-.13-.07-.13-.08-.13-.1-.12-.1-.12-.12-.12-.12-.11L17.1 6l-.15-.11-.16-.1-.18-.1-.18-.09.08-.16.19.09.18.11.17.1.16.11.15.12.13.12.13.12.11.13.1.14.09.13.08.14.07.14.06.15.05.15.04.15.03.15.02.15.02.16v.32l-.01.16-.01.16-.02.16-.03.16-.04.17-.04.16-.04.17-.05.16-.06.16-.06.17-.06.16-.07.16-.1.06.02-.18zm.08.12l-.03.06h-.07l.1-.06z" class="fil1"/><path fill="#f08bb2" fill-rule="nonzero" d="M8.82 11.03c.04-.2-.1-.39-.31-.43-.2-.03-.4.1-.44.3L5.43 25.6c-.01.03-1.41 7.5 2.55 9.88.28.17.49.3.7.44 1.8 1.14 3.67 2.33 9 2.43 5.84.12 12.41-3.15 12.79-3.35.35-.13 4.91-1.97 4.47-7.01-.43-4.98-2.67-12.36-2.67-12.38-.06-.2-.27-.31-.47-.25-11.99-1.15-8.49-1.82-22.98-4.33z"/><path id="1" d="M8.53 10.51l.02.01h.03l.02.01.02.01.02.01.02.01.02.01.02.01.02.01.02.02.02.01.02.01.01.02.02.02.01.02.02.01.01.02.01.02.01.02.01.02.01.02.01.02v.02l.01.03v.02l.01.02V11.02l-.01.03-.18-.03v-.03l.01-.02-.01-.01v-.06l-.01-.01v-.02l-.01-.02-.01-.01v-.01l-.01-.01-.01-.01-.01-.01v-.01l-.01-.01-.01-.01-.01-.01-.01-.01-.02-.01-.01-.01h-.01l-.01-.01-.01-.01h-.02l-.01-.01h-.03l-.01-.01.03-.18zm-.03.18h-.03.03zm-.52.2l.01-.02v-.03l.01-.02.01-.02.01-.02.01-.02.01-.02.01-.02.01-.02.02-.02.01-.02.02-.01.01-.02.02-.01.02-.02.02-.01.02-.01.01-.01.02-.01.03-.01.02-.01.02-.01.02-.01h.02l.02-.01h.05l.02-.01h.03l.02.01h.05l-.03.18h-.1l-.02.01h-.02l-.02.01h-.01l-.01.01h-.01l-.02.01-.01.01-.01.01-.01.01h-.01l-.01.01-.01.01-.01.01v.02l-.01.01-.01.01-.01.01v.01l-.01.02v.01l-.01.01v.03l-.19-.03zm.19.03zm-2.65 14.7l-.19-.03 2.65-14.7.19.03-2.65 14.7zm0 0l-.02.07.02-.07zm2.41 9.94l-.36-.24-.33-.27-.3-.3-.28-.32-.24-.34-.22-.36-.2-.37-.17-.39-.15-.4-.13-.41-.12-.41-.09-.42-.07-.42-.06-.42-.05-.42-.03-.41-.03-.4-.01-.4v-.38l.01-.37.01-.36.02-.33.02-.32.02-.29.03-.26.03-.24.03-.21.02-.18.02-.14.02-.1.01-.07v-.02l.19.03-.01.02-.01.07-.01.1-.03.14-.02.17-.03.21-.02.24-.03.26-.03.29-.02.31-.01.33-.02.35v.75l.01.39.02.4.03.41.05.41.06.41.07.42.1.41.1.4.13.4.15.39.17.38.19.36.21.35.24.33.26.31.29.28.32.26.35.24-.1.15zm.7.43l-.02-.01-.02-.01-.02-.01-.02-.02-.02-.01-.02-.01-.02-.01-.02-.02-.02-.01-.02-.01-.02-.02-.02-.01-.02-.01-.02-.01-.02-.02-.03-.01-.02-.01-.02-.02-.02-.01-.02-.01-.02-.02-.03-.01-.02-.02-.02-.01-.02-.01-.03-.02-.02-.01-.03-.02-.02-.01-.03-.02-.02-.01-.03-.02.1-.15.03.01.02.02.03.01.02.02.03.01.02.02.02.01.03.01.02.02.02.01.03.02.02.01.02.02.02.01.02.01.02.01.03.02.02.01.02.01.02.02.02.01.02.01.02.02.02.01.02.01.02.01.02.02.02.01.02.01.02.02.02.01.02.01-.1.15zm9.05 2.46l-.49-.02-.47-.02-.46-.02-.43-.03-.42-.04-.4-.04-.38-.05-.37-.05-.35-.06-.33-.06-.33-.06-.31-.07-.29-.08-.29-.07-.27-.08-.26-.09-.25-.09-.25-.09-.23-.09-.22-.09-.22-.1-.21-.1-.2-.1-.2-.1-.19-.11-.18-.1-.18-.11-.18-.11-.18-.1-.17-.11-.17-.11-.17-.11.1-.15.17.11.17.11.17.1.17.11.18.1.18.11.18.1.19.11.2.1.19.1.21.09.21.1.22.09.23.09.24.09.25.09.26.08.26.08.29.08.29.07.3.07.32.06.34.06.34.06.37.05.38.05.39.04.41.03.44.04.44.02.47.02.49.01v.19zm12.82-3.36l.01-.01-.05.03-.09.05-.13.05-.15.08-.19.09-.21.1-.25.11-.27.12-.3.13-.32.13-.35.15-.37.14-.39.16-.41.15-.43.16-.45.15-.46.16-.48.15-.49.15-.5.14-.52.14-.52.14-.53.12-.54.12-.55.1-.55.1-.55.08-.56.06-.56.05-.55.04-.56.02h-.55v-.19h.55l.55-.01.55-.04.55-.05.55-.06.55-.08.55-.1.54-.1.54-.12.52-.12.53-.13.51-.14.5-.15.49-.14.47-.16.46-.15.45-.16.42-.15.41-.15.39-.16.37-.14.34-.14.33-.14.29-.13.27-.12.25-.11.21-.1.19-.09.15-.07.12-.06.09-.04.06-.03.07.17zm-.07-.17zm4.6-6.94l.03.47v.45l-.03.43-.05.42-.07.39-.1.38-.11.36-.14.35-.15.33-.16.31-.18.29-.18.28-.2.26-.2.25-.21.23-.21.22-.22.2-.22.19-.21.18-.21.16-.21.14-.2.14-.19.12-.19.11-.17.09-.16.09-.14.07-.13.06-.11.05-.09.04-.07.03-.05.02-.07-.17.05-.02.06-.03.09-.03.11-.05.12-.06.14-.07.16-.09.17-.09.18-.1.19-.12.19-.13.21-.15.2-.16.21-.17.21-.18.21-.2.21-.21.21-.23.19-.24.19-.25.18-.27.18-.29.16-.3.14-.32.13-.34.11-.35.09-.36.08-.39.05-.4.02-.42v-.44l-.02-.46.18-.02zm-2.67-12.39v.02l.02.06.03.11.04.14.06.18.06.21.07.24.08.28.08.3.09.33.1.36.1.38.11.4.11.42.11.44.11.46.12.47.12.48.11.5.12.5.11.51.11.52.11.52.1.52.1.52.09.52.09.52.08.52.08.5.06.5.06.49.04.47-.18.02-.05-.47-.05-.49-.07-.49-.07-.51-.08-.51-.09-.51-.09-.52-.1-.53-.1-.52-.11-.52-.11-.51-.12-.51-.11-.5-.12-.5-.11-.48-.12-.47-.11-.45-.11-.44-.11-.42-.11-.4-.1-.38-.1-.36-.09-.33-.08-.3-.08-.28-.07-.24-.06-.21-.05-.18-.05-.14-.03-.11-.02-.06v-.02l.18-.05zm-.18.05zm-.38-.37h-.03.02l.03-.01h.04l.03-.01h.02l.02.01H32l.02.01.02.01h.03l.02.01.02.01.02.01.02.01.02.01.02.02.01.01.02.01.02.02.01.02.02.01.01.02.02.02.01.02.01.02.01.02.01.02.01.02.01.03-.18.05-.01-.02v-.01l-.01-.01-.01-.02v-.01l-.01-.01-.01-.01-.01-.01-.01-.01v-.01l-.01-.01-.01-.01-.02-.01-.01-.01h-.01l-.01-.01h-.01l-.02-.01-.01-.01h-.02l-.02-.01h-.12l-.02.01h-.03l.01-.18zm.02.18h-.03.03zm-22.91-4.4l-.07-.11 1.31.23 1.2.22 1.12.21 1.03.2.94.19.88.19.8.17.74.17.69.15.63.16.59.14.55.14.52.14.5.12.47.13.46.12.46.11.45.11.45.11.47.11.49.1.5.1.54.1.57.1.62.1.66.1.72.1.77.1.85.1.91.1 1 .1 1.07.11-.01.18-1.08-.11-1-.1-.91-.1-.85-.1-.78-.1-.72-.1-.66-.1-.62-.1-.57-.1-.54-.1-.51-.1-.49-.11-.47-.1-.46-.11-.45-.11-.45-.12-.47-.12-.47-.12-.49-.13-.52-.13-.56-.14-.59-.15-.63-.15-.68-.16-.74-.16-.8-.18-.87-.18-.95-.19-1.03-.2-1.11-.21-1.21-.22-1.3-.23-.08-.1.18.03zm-.1.07l-.09-.01.01-.09.08.1z" class="fil1"/><path d="M10.51 6.69L25.2 4.97s4.13-.67 5.63 2.63c2.68 5.91 1.39 7.51 1.39 7.51s-.74 2.54-5.92 3.17c-5.17.64-9.33-.9-11.82-2.35-2.49-1.45-4.63-3.22-5.85-4.93-.64-.9-1.6-3.56 1.88-4.31z" class="fil0"/><path id="1" d="M25.18 4.88l.03.18-14.69 1.72-.02-.18 14.68-1.72zm.03.18zm5.54 2.58l-.15-.3-.16-.27-.17-.25-.18-.22-.2-.21-.2-.19-.21-.17-.21-.16-.23-.14-.22-.12-.23-.11-.24-.1-.23-.08-.23-.07-.23-.06-.23-.05-.22-.04-.22-.04-.21-.02-.2-.02-.2-.01h-.51l-.15.01h-.13l-.11.01-.09.01-.08.01-.05.01h-.05l-.03-.18h.05l.06-.01.08-.01.09-.01.12-.01.13-.01h.15l.17-.01.17.01h.19l.2.01.21.02.22.02.22.04.23.04.23.05.24.06.24.08.24.08.24.1.24.12.24.12.23.15.23.16.22.18.21.2.2.22.19.24.18.26.17.28.15.3-.17.08zm1.38 7.45l.01-.03.01-.01.02-.03.01-.03.03-.04.02-.06.03-.07.03-.08.03-.09.02-.11.03-.12.02-.14.02-.15.02-.17.01-.18v-.2l-.01-.22-.01-.24-.03-.26-.03-.27-.05-.29-.06-.32-.07-.33-.09-.36-.1-.38-.12-.39-.14-.43-.16-.44-.17-.47-.2-.49-.21-.51-.24-.54.17-.08.24.55.22.51.19.5.18.47.16.45.13.42.12.41.11.38.09.36.07.33.06.32.05.3.04.28.02.27.02.24v.43l-.01.19-.01.18-.02.16-.03.14-.02.13-.03.12-.03.1-.04.09-.03.07-.02.07-.03.05-.02.04-.02.02-.01.02-.01.01.02-.03-.18-.05zm0 0v-.02l.01-.01-.01.03zm-5.84 3.1l.47-.06.45-.08.41-.08.4-.09.37-.1.35-.11.33-.11.3-.12.29-.13.27-.12.24-.13.23-.14.21-.13.19-.13.18-.14.16-.13.14-.13.14-.12.11-.13.11-.12.09-.11.08-.11.07-.1.06-.1.05-.08.04-.08.03-.06.03-.06.02-.05.01-.03.01-.02.18.05-.01.01-.01.02-.01.04-.02.05-.03.06-.03.07-.05.09-.05.09-.06.1-.08.1-.08.12-.1.12-.11.12-.12.13-.14.14-.15.13-.17.14-.18.14-.2.13-.21.14-.24.14-.25.13-.27.13-.29.13-.32.12-.33.11-.36.11-.37.1-.4.1-.43.08-.45.08-.47.07-.03-.19zm-11.76-2.34l.23.14.25.13.26.14.26.13.28.13.28.14.3.13.3.12.31.13.32.12.33.12.33.11.35.11.35.11.36.1.37.09.38.09.38.08.39.07.4.07.41.06.41.05.42.04.43.04.44.02.44.01.45.01.45-.01.46-.01.47-.03.47-.04.48-.06.03.19-.49.05-.48.04-.47.03-.46.02h-.92l-.44-.02-.44-.02-.43-.04-.43-.04-.42-.05-.41-.06-.4-.07-.4-.07-.39-.09-.38-.08-.37-.1-.36-.1-.36-.1-.35-.12-.34-.11-.33-.12-.32-.12-.31-.13-.31-.13-.3-.13-.28-.13-.28-.14-.27-.13-.26-.14-.25-.13-.24-.14.1-.16zm-5.82-4.9l.11.16.13.16.12.16.13.15.14.16.14.17.15.15.15.17.15.15.16.17.16.15.17.16.18.16.17.16.18.16.19.15.18.16.2.15.19.16.2.15.2.15.21.16.21.15.21.14.21.15.22.15.22.14.22.15.23.14.23.14.22.14.24.13-.1.16-.23-.14-.23-.14-.23-.14-.23-.14-.22-.15-.22-.14-.22-.15-.22-.15-.21-.15-.21-.15-.21-.15-.2-.15-.2-.16-.2-.15-.19-.16-.19-.16-.19-.16-.18-.16-.18-.15-.18-.16-.17-.16-.16-.17-.16-.16-.16-.16-.15-.16-.15-.16-.14-.17-.14-.16-.13-.16-.13-.16-.13-.17-.11-.16.15-.1zm1.81-4.17h.01l-.31.08-.28.08-.26.09-.24.11-.21.11-.19.11-.17.13-.15.13-.13.13-.11.14-.1.15-.08.14-.06.15-.06.16-.03.15-.03.16-.02.15v.16l.01.16.01.16.02.15.04.15.03.15.05.14.04.14.06.14.05.12.06.13.06.11.06.1.06.1.06.09-.15.1-.07-.09-.06-.1-.06-.12-.07-.11-.06-.13-.06-.14-.05-.14-.05-.14-.05-.15-.04-.16-.03-.16-.02-.16-.02-.17-.01-.17.01-.17.01-.17.03-.16.05-.17.05-.17.07-.17.09-.16.11-.15.12-.16.14-.14.17-.14.18-.14.2-.12.22-.12.25-.1.27-.1.29-.09.32-.08h.01l.02.18zm-.03-.18h.01-.01z" class="fil1"/><path fill="#e3e3e3" d="M28.32 16.44s-.13-.91-1.27-.83c-1.16.08-2.33.2-2.33.2s-.99.21-.91 1.18c.07.84.27 2.83.27 2.83s.1 1.31 1.92 1.06c1.52-.22 2.14-.3 2.14-.3s.99-.18.79-1.49c-.14-.89-.61-2.65-.61-2.65z"/><path id="1" d="M27.05 15.52l.1-.01h.11l.1.01.09.01.08.02.09.02.07.02.08.03.06.03.07.04.06.03.05.04.05.04.05.05.04.04.03.05.04.04.03.04.03.05.02.04.02.04.02.04.01.04.02.03.01.04.01.03.01.02v.03l.01.02v.02l-.18.03-.01-.01v-.02l-.01-.02v-.02l-.01-.03-.01-.02-.01-.03-.01-.04-.02-.03-.02-.04-.02-.03-.02-.04-.02-.03-.03-.04-.03-.04-.04-.03-.03-.04-.05-.03-.04-.04-.05-.03-.05-.03-.06-.02-.06-.03-.06-.02-.08-.02-.07-.01-.08-.01-.09-.01h-.09l-.1.01-.01-.18zm-2.35.2h.06l.03-.01h.03l.04-.01h.1l.05-.01.07-.01h.06l.07-.01.07-.01h.08l.08-.01.08-.01.09-.01h.09l.09-.01.1-.01.1-.01.1-.01.1-.01.1-.01h.11l.1-.01.11-.01.11-.01.11-.01.11-.01h.11l.01.18-.11.01h-.11l-.11.01-.11.01-.1.01-.11.01-.1.01h-.11l-.1.01-.1.01-.1.01-.09.01-.09.01-.09.01h-.09l-.08.01-.08.01-.08.01h-.07l-.07.01-.07.01h-.06l-.05.01h-.05l-.05.01h-.07l-.03.01h-.05.01l-.04-.18zm0 0h.01-.01zm-.98 1.27l-.01-.09.01-.09v-.09l.02-.08.01-.08.03-.07.02-.07.04-.07.03-.06.04-.06.04-.05.04-.05.05-.05.04-.04.05-.04.05-.04.05-.03.04-.03.05-.03.05-.02.04-.03.04-.01.04-.02.04-.02.04-.01.03-.01.02-.01.03-.01h.04v-.01h.01l.04.18h-.01l-.01.01h-.02l-.02.01h-.02l-.03.01-.03.01-.04.02-.03.01-.04.02-.04.02-.04.02-.04.02-.04.03-.04.03-.04.03-.04.03-.04.04-.04.04-.03.04-.04.05-.03.04-.03.05-.02.06-.03.06-.02.06-.01.06-.01.07-.01.08v.16l-.18.01zm.27 2.84v-.05l-.01-.03v-.05l-.01-.06-.01-.06v-.07l-.01-.08-.01-.09-.01-.09-.01-.09-.01-.1-.01-.11-.01-.11-.01-.11-.01-.11-.01-.12-.01-.12-.01-.12-.01-.12-.02-.11-.01-.12-.01-.12-.01-.11-.01-.11-.01-.11-.01-.1-.01-.1-.01-.1v-.08l-.01-.09.18-.01.01.08.01.09.01.09.01.1.01.11.01.1.01.11.01.12.01.11.01.12.01.12.01.12.01.11.02.12.01.12.01.11.01.11.01.11.01.11.01.1.01.1.01.09.01.08v.08l.01.07.01.07v.05l.01.05v.06l.01.02v.01l-.19.01zm.19-.01v-.01.01zm1.83 1.15l-.17.02-.16.01H25.39l-.13-.01-.13-.03-.12-.02-.11-.03-.1-.04-.09-.04-.09-.05-.08-.05-.07-.05-.07-.06-.06-.05-.05-.06-.05-.06-.04-.06-.04-.06-.03-.06-.03-.06-.02-.06-.02-.05-.02-.05-.02-.04-.01-.05v-.03L24 19.9l-.01-.03v-.04l.19-.01v.04l.01.03.01.03v.04l.02.04.01.04.02.05.02.04.02.05.03.05.03.06.04.05.04.05.05.05.05.05.06.05.06.04.07.04.07.05.08.03.09.03.1.03.1.03.12.01.12.02h.27l.15-.01.16-.02.03.18zm2.15-.3h-.02l-.01.01h-.07l-.02.01H28l-.03.01h-.04l-.05.01-.05.01h-.05l-.06.01-.06.01-.07.01-.07.01-.08.01-.08.01-.09.01-.09.01-.09.02-.1.01-.11.01-.11.02-.11.02-.12.01-.12.02-.13.02-.14.02-.14.02-.03-.18.14-.02.14-.02.13-.02.12-.02.12-.01.12-.02.11-.02.1-.01.1-.01.1-.02.09-.01.08-.01.09-.01.07-.01.07-.01.07-.01.06-.01.06-.01.05-.01h.05l.05-.01h.04l.04-.01h.03l.03-.01H28.1l.01-.01h.02l.03.18zm0 0zm.86-1.6l.02.13.01.12V19.53l-.01.1-.01.1-.02.09-.03.08-.02.08-.04.07-.03.07-.04.06-.04.06-.04.06-.05.05-.04.04-.05.04-.04.04-.05.03-.04.03-.05.03-.04.02-.04.02-.04.02-.03.01-.03.01-.03.01-.03.01h-.02l-.01.01h-.02l-.03-.18h.02l.01-.01h.02l.02-.01.03-.01.03-.01.03-.02.03-.01.04-.02.04-.02.03-.03.04-.03.04-.03.04-.03.04-.04.03-.04.04-.04.03-.05.03-.06.03-.05.03-.07.03-.06.02-.08.01-.07.02-.09v-.09l.01-.09-.01-.11-.01-.1-.01-.12.18-.03zm-.61-2.65v-.01.02l.01.03.01.03.01.04.01.05.02.06.01.06.02.07.02.08.02.08.03.09.02.09.02.1.03.09.02.11.03.1.03.11.02.11.03.11.02.11.03.11.02.11.03.11.02.11.03.11.02.1.02.1.02.1.01.1.02.09.01.08-.18.03-.01-.08-.02-.09-.02-.1-.02-.09-.02-.1-.02-.11-.02-.1-.02-.11-.03-.11-.02-.11-.03-.11-.02-.11-.03-.11-.03-.11-.02-.1-.03-.11-.02-.1-.03-.1-.02-.1-.02-.09-.03-.08-.02-.09-.02-.07-.02-.07-.01-.07-.02-.05-.01-.05-.01-.04-.01-.04-.01-.02v-.03l.18-.03zm-.18.04v-.01.01z" class="fil1"/><path d="M28.81 19.1c.16-.02.28-.17.27-.33-.02-.17-.17-.28-.34-.26l-4.64.51c-.17.02-.29.17-.27.33.02.16.17.28.34.26l4.64-.51z" class="fil4"/><path id="1" d="M29.17 18.76v.1l-.01.02v.01l-.01.02v.02l-.01.02-.01.01v.02l-.01.02-.01.01-.01.02-.02.01-.01.02-.01.01-.01.01-.02.02-.02.01-.01.01-.02.01-.01.01-.02.01-.02.01h-.02l-.01.01-.02.01h-.04l-.02.01-.02-.18.01-.01h.03l.01-.01h.02l.01-.01h.01v-.01l.01-.01h.01l.01-.01.01-.01.01-.01v-.01l.01-.01.01-.01v-.01l.01-.01v-.01l.01-.01v-.08l.19-.02zm-.44-.35h.08l.02.01h.04l.02.01h.02l.01.01.02.01.02.01.02.01.01.01.02.01.01.01.02.01.01.01.01.02.02.01.01.01.01.02.01.01.01.02.01.02.01.02.01.01v.02l.01.02v.02l.01.02v.02l-.19.02v-.03l-.01-.01v-.02l-.01-.01v-.01l-.01-.01v-.01h-.01l-.01-.01v-.01l-.01-.01h-.01v-.01l-.01-.01h-.01l-.01-.01h-.01l-.01-.01h-.02l-.01-.01h-.08l-.02-.19zm0 0zm-4.62.7l-.02-.18 4.64-.52.02.19-4.64.51zm0 0zm-.37.25V19.24l.01-.02v-.01l.01-.02.01-.02v-.02l.01-.01.01-.02.01-.01.01-.02.01-.02.02-.01.01-.01.01-.02.02-.01.01-.01.02-.01.02-.01.01-.01.02-.01.02-.01.01-.01h.02l.02-.01h.02l.02-.01h.02l.02.18h-.02l-.01.01h-.02l-.01.01h-.01l-.01.01h-.01l-.01.01-.01.01-.01.01h-.01v.01l-.01.01h-.01v.01l-.01.01v.01l-.01.01v.02l-.01.01v.03l-.01.01v.03l.01.01-.19.02zm.44.34h-.02l-.02.01-.02-.01h-.06l-.02-.01h-.02l-.02-.01h-.02l-.01-.01-.02-.01-.02-.01-.01-.01-.02-.01-.01-.01-.02-.01-.01-.02-.02-.01-.01-.01-.01-.02-.01-.01-.01-.02-.01-.01-.01-.02-.01-.02-.01-.02v-.01l-.01-.02v-.02l-.01-.02v-.02l.19-.02v.04l.01.01v.01l.01.01v.01l.01.01.01.01v.01l.01.01h.01v.01l.01.01h.01l.01.01h.01l.01.01h.01l.01.01h.01l.01.01h.08l.02.18zm0 0zm4.62-.69l.02.18-4.64.51-.02-.18 4.64-.51zm0 0h-.01.01z" class="fil1"/><g><path d="M22.51 5.22l-1.72.24s1.8-2.93-.13-3.3c-1.93-.36-3.16 3.71-3.16 3.71l-2.46.32S15.82.51 19.97.11c4.14-.4 2.54 5.11 2.54 5.11z" class="fil0"/><path id="1" d="M20.8 5.55l-.09-.13.06-.05 1.73-.24.02.18-1.72.24zm0 0l-.19.03.1-.16.09.13zm-.12-3.47l.18.04.16.06.14.07.12.09.11.1.08.11.07.13.05.13.03.13.02.14.01.15-.01.14-.01.15-.02.15-.03.15-.04.15-.04.15-.05.15-.05.14-.06.14-.05.13-.06.13-.05.12-.06.11-.05.1-.05.09-.04.08-.04.07-.03.06-.02.04-.02.02v.01l-.16-.09v-.01l.02-.02.02-.04.03-.06.04-.06.04-.08.04-.09.06-.1.05-.11.05-.11.06-.13.05-.13.05-.13.05-.14.05-.14.04-.14.03-.15.03-.14.02-.14.02-.14v-.13l-.01-.13-.01-.12-.03-.12-.04-.11-.06-.1-.07-.09-.08-.08-.1-.07-.12-.07-.13-.05-.16-.04.03-.17zm-3.19 3.7l-.08.06.01-.01.01-.04.01-.05.03-.08.03-.09.04-.11.05-.12.05-.13.06-.15.06-.16.07-.16.08-.18.08-.17.09-.19.1-.18.1-.18.1-.19.12-.18.12-.18.12-.17.13-.16.14-.16.14-.14.14-.14.16-.12.16-.11.16-.08.17-.08.18-.05.18-.02.19-.01.19.03-.03.17-.17-.02-.16.01-.16.02-.16.05-.15.06-.15.08-.14.1-.14.11-.14.13-.14.13-.13.15-.12.16-.12.17-.12.17-.1.17-.11.18-.1.19-.09.17-.09.18-.08.18-.08.17-.07.16-.06.16-.06.14-.05.13-.04.13-.04.1-.03.09-.03.08-.02.05-.01.03v.01l-.08.07-.02-.18zm.1.11l-.02.06-.06.01.08-.07zm-2.54.39l-.1-.1.08-.08 2.46-.32.02.18-2.46.32zm0 0l-.12.02.02-.12.1.1zM19.97.2l-.37.05-.35.08-.33.11-.32.13-.3.15-.28.18-.26.19-.25.21-.24.22-.21.24-.21.25-.19.25-.18.27-.16.27-.15.27-.14.27-.13.27-.11.27-.11.27-.09.25-.08.25-.07.24-.07.22-.05.21-.05.19-.04.17-.03.15-.03.13-.02.1-.01.08-.01.05v.01l-.18-.02v-.02l.01-.05.01-.08.02-.1.02-.13.04-.16.04-.17.04-.2.06-.21.07-.22.07-.24.09-.26.09-.26.11-.27.11-.27.13-.28.14-.28.16-.27.17-.28.18-.27.19-.26.21-.26.23-.24.24-.24.26-.21.28-.2.29-.18.31-.16.33-.14.35-.11.37-.08.39-.06.01.18zm2.53 4.93l-.08.07.01-.02.01-.04.02-.08.02-.09.03-.13.03-.14.03-.16.03-.19.04-.19.02-.21.03-.23.02-.23.01-.23v-.49l-.02-.25-.03-.24-.04-.24-.05-.23-.07-.23-.09-.21-.11-.21-.12-.18-.15-.18-.16-.15-.19-.14-.21-.11-.24-.1-.27-.07-.3-.04-.33-.01-.37.02-.01-.18.38-.02.35.01.31.05.29.07.27.1.23.13.21.15.18.17.16.19.13.2.12.22.09.23.08.24.05.25.05.25.03.25.01.25.01.25-.01.25-.01.25-.02.23-.02.23-.03.21-.03.2-.03.19-.04.17-.03.14-.03.13-.02.1-.02.07-.01.05-.01.02-.08.06-.02-.18zm.1.12l-.02.05-.06.01.08-.06z" class="fil1"/></g><g><path fill="#9ad0bb" fill-rule="nonzero" d="M34.62 25.99c0-.01-.09-2.96-2.85-3.57-1.17-.26-3.3-.04-5.48.38-2.66.5-5.41 1.31-6.53 1.9-1.03.54-1.79 1.01-2.4 1.76-.6.75-1.03 1.76-1.37 3.36-.08.32-.16.67-.25 1.04-.24 1-.5 2.1-.61 3.14-.24 2.17.14 4.05 2.55 4.31 14.43-1.41 18.33-6.2 16.94-12.32z"/><path id="1" d="M31.79 22.33l.25.07.25.08.22.09.22.1.19.11.19.12.17.13.16.14.15.14.13.15.13.15.11.15.1.16.09.16.09.16.07.15.07.16.06.15.05.15.04.14.04.14.03.13.03.12.02.12.02.1.01.1.01.08.01.07.01.06v.08h-.19V25.87l-.01-.07-.01-.08-.02-.09-.01-.1-.02-.11-.03-.12-.03-.13-.04-.13-.04-.14-.05-.14-.05-.14-.07-.15-.07-.15-.08-.15-.09-.15-.1-.15-.1-.15-.12-.14-.13-.14-.14-.14-.15-.13-.16-.12-.17-.11-.19-.11-.2-.1-.22-.08-.23-.08-.24-.06.04-.18zm-5.52.38l.2-.04.21-.04.2-.03.21-.04.2-.03.2-.03.2-.04.2-.02.19-.03.2-.03.19-.02.19-.02.19-.02.19-.02.18-.02.18-.01.18-.02.17-.01.17-.01h.17l.17-.01h.47l.15.01h.14l.14.01.14.02.13.01.12.02.12.02.12.02-.04.18-.11-.02-.12-.02-.12-.02-.12-.01-.13-.01-.14-.01-.14-.01-.15-.01H30.26l-.16.01-.17.01h-.17l-.17.01-.18.02-.17.01-.19.02-.18.02-.19.02-.19.02-.19.02-.19.03-.2.03-.19.03-.2.03-.2.03-.2.03-.21.03-.2.04-.2.04-.21.04-.03-.18zm-6.55 1.9l.11-.05.12-.06.13-.06.14-.06.14-.06.16-.06.16-.06.17-.06.17-.07.19-.06.18-.06.2-.07.2-.06.2-.07.22-.06.21-.06.22-.07.23-.06.22-.06.24-.06.23-.07.24-.06.24-.06.24-.06.25-.05.24-.06.25-.06.25-.05.25-.05.25-.06.25-.05.25-.04.03.18-.24.04-.25.05-.25.06-.25.05-.25.05-.24.06-.25.05-.24.06-.24.06-.24.06-.24.06-.24.06-.23.06-.22.07-.23.06-.21.06-.22.07-.21.06-.2.06-.2.07-.2.06-.18.06-.18.06-.18.07-.17.06-.15.06-.16.06-.14.06-.13.06-.13.05-.12.06-.1.06-.09-.17zm-2.43 1.8l.06-.07.06-.07.06-.07.06-.07.06-.06.06-.07.07-.06.06-.06.07-.06.07-.06.07-.06.07-.06.07-.05.07-.06.07-.05.08-.05.07-.06.08-.05.08-.05.08-.05.08-.05.08-.05.08-.05.09-.05.08-.05.09-.05.09-.05.09-.05.09-.05.1-.05.09-.05.1-.06.09.17-.1.05-.09.05-.1.05-.09.05-.09.04-.08.05-.09.05-.09.05-.08.05-.08.05-.08.05-.08.05-.08.05-.08.05-.07.05-.07.05-.08.06-.07.05-.07.05-.07.06-.06.05-.07.06-.06.05-.07.06-.06.06-.06.06-.07.06-.06.07-.05.06-.06.06-.06.07-.06.07-.14-.11zm-1.4 3.39l.04-.15.03-.15.03-.14.04-.14.03-.13.04-.14.04-.13.03-.12.04-.13.04-.12.04-.11.04-.12.04-.11.04-.11.04-.11.04-.1.04-.11.05-.09.04-.1.05-.1.05-.09.04-.09.05-.09.05-.09.05-.08.05-.08.05-.08.06-.08.05-.08.05-.08.06-.07.06-.07.14.11-.05.07-.05.07-.06.07-.05.08-.05.07-.05.08-.05.08-.05.08-.05.09-.04.08-.05.09-.04.09-.05.09-.04.1-.04.1-.05.1-.04.1-.04.1-.04.11-.04.11-.04.11-.03.12-.04.12-.04.12-.03.12-.04.13-.04.13-.03.14-.03.13-.04.14-.03.15-.03.15-.19-.04zm.19.04l-.02.08.02-.08zm-.43 1l.01-.04.01-.03.01-.04v-.03l.01-.03.01-.04.01-.03.01-.03v-.04l.01-.03.01-.04.01-.03.01-.03v-.04l.01-.03.01-.03.01-.03v-.04l.01-.03.01-.03.01-.03v-.03l.01-.04.01-.03.01-.03v-.03l.01-.03.01-.03v-.03l.01-.03.01-.03v-.03l.19.04-.01.03-.01.03v.03l-.01.03-.01.03v.03l-.01.03-.01.03-.01.03v.04l-.01.03-.01.03-.01.03v.04l-.01.03-.01.03-.01.03v.04l-.01.03-.01.03-.01.03-.01.04v.03l-.01.04-.01.03-.01.03-.01.04v.03l-.01.04-.01.03-.01.03-.01.04-.18-.04zm-.61 3.15l.01-.1.01-.1.01-.09.02-.1.01-.1.01-.1.02-.1.02-.1.01-.1.02-.1.02-.1.02-.1.02-.1.02-.1.02-.1.02-.1.02-.1.02-.1.02-.1.02-.1.02-.1.03-.1.02-.1.02-.09.02-.1.03-.1.02-.1.02-.09.02-.1.03-.09.02-.1.02-.09.18.04-.02.09-.02.1-.02.09-.03.1-.02.1-.02.09-.02.1-.03.1-.02.09-.02.1-.02.1-.02.1-.03.1-.02.1-.02.09-.02.1-.02.1-.02.1-.02.1-.02.1-.02.1-.01.1-.02.1-.02.1-.02.1-.01.09-.02.1-.01.1-.01.1-.02.1-.01.09-.01.1-.18-.02zm2.64 4.41h-.01l-.23-.03-.21-.04-.2-.05-.19-.05-.19-.07-.16-.07-.16-.09-.15-.09-.14-.1-.13-.11-.12-.11-.11-.12-.11-.13-.09-.14-.08-.14-.08-.15-.06-.15-.06-.16-.05-.16-.05-.17-.03-.17-.04-.17-.02-.18-.02-.19-.01-.18-.01-.19v-.2l.01-.19v-.2l.02-.2.01-.2.03-.21.18.02-.02.2-.02.2-.01.2-.01.19v.38l.01.19.01.18.02.18.02.17.03.17.03.16.05.16.04.15.06.15.06.15.07.13.08.14.09.12.09.12.1.11.11.11.12.1.13.09.14.08.15.08.16.07.16.06.19.06.19.05.2.03.22.03h-.02l.01.18zm0 0h-.01.01zm17.03-12.41v-.02l.11.57.09.57.05.56.02.55-.02.54-.06.53-.09.52-.13.51-.17.51-.21.48-.25.48-.3.47-.33.45-.38.44-.43.42-.47.42-.51.39-.57.39-.61.36-.66.36-.71.33-.76.32-.82.31-.86.29-.92.27-.98.25-1.03.24-1.09.22-1.14.2-1.21.18-1.26.16-1.33.14-.01-.18 1.32-.14 1.26-.16 1.2-.18 1.14-.2 1.08-.22 1.03-.23.97-.26.91-.27.86-.28.81-.3.75-.32.71-.34.65-.34.6-.37.56-.37.5-.39.46-.41.42-.41.37-.43.33-.45.29-.45.24-.46.2-.48.17-.49.13-.49.09-.51.05-.52.02-.53-.02-.54-.05-.55-.08-.56-.11-.56-.01-.02h.19zm-.18.02l-.01-.01v-.01l.01.02z" class="fil1"/></g><path fill="none" d="M34.39 27.04s-.35-2.43-3.06-1.89c-2.71.55-9.16 1.66-11.41 3.4-1.18.91-1.58 2.65-1.72 5.26-.13 2.61.35 3.98.76 4.05"/><g><path d="M34.76 26.99c0-.01-.4-2.82-3.5-2.2-.15.03-.53.11-.96.19-3.08.6-8.53 1.66-10.62 3.27-.65.51-1.09 1.23-1.38 2.18-.27.91-.41 2.03-.48 3.36-.06 1.19.01 2.14.14 2.83.18.99.56 1.54.92 1.61l.15-.73c-.08-.02-.21-.35-.33-1.02-.12-.63-.18-1.52-.12-2.65.07-1.28.2-2.34.45-3.19.24-.8.6-1.4 1.12-1.8 1.95-1.5 7.28-2.54 10.3-3.13.28-.06.54-.11.96-.19 2.31-.47 2.6 1.57 2.6 1.58l.75-.11z" class="fil4"/><path id="1" d="M31.24 24.7l.29-.05.27-.03.26-.01h.24l.23.03.22.03.21.05.19.06.17.08.17.08.15.1.15.1.13.11.12.11.11.12.1.12.09.12.08.12.07.12.07.13.05.11.05.12.04.1.04.11.03.09.03.09.02.07.01.07.01.05.01.04v.02l.01.01-.19.03v-.03l-.01-.03-.01-.05-.01-.06-.02-.08-.03-.08-.03-.09-.03-.09-.04-.11-.05-.1-.05-.11-.06-.12-.07-.11-.08-.12-.08-.11-.09-.11-.11-.11-.11-.11-.12-.1-.13-.09-.14-.09-.15-.08-.17-.07-.18-.05-.19-.05-.2-.03-.22-.02-.23-.01-.24.01-.27.03-.27.05-.04-.18zm-.96.19l.04-.01.04-.01h.04l.04-.01.04-.01.04-.01h.03l.04-.01.04-.01.03-.01h.04l.03-.01.04-.01h.03l.04-.01.03-.01h.03l.03-.01h.03l.02-.01h.03l.03-.01h.02l.03-.01h.02l.02-.01h.02l.02-.01h.04l.01-.01h.02l.04.18h-.02l-.01.01h-.04l-.02.01h-.02l-.02.01h-.05l-.03.01h-.02l-.03.01-.03.01h-.03l-.03.01h-.03l-.03.01-.03.01h-.03l-.04.01-.03.01h-.04l-.04.01-.03.01h-.04l-.04.01-.03.01-.04.01h-.04l-.04.01-.04.01-.04.01-.04-.18zm-10.66 3.29l.21-.15.23-.15.25-.14.26-.15.27-.13.29-.14.31-.13.31-.13.33-.12.34-.12.35-.12.35-.12.36-.11.37-.11.37-.11.38-.1.37-.1.39-.1.38-.09.38-.09.38-.09.37-.09.38-.08.37-.08.36-.08.36-.07.35-.08.34-.06.33-.07.32-.06.31-.06.29-.06.04.18-.29.06-.31.06-.32.06-.33.06-.34.07-.35.07-.36.08-.36.08-.37.08-.37.08-.38.08-.38.09-.38.09-.38.1-.38.1-.37.1-.38.1-.37.1-.36.11-.36.11-.35.12-.35.12-.33.12-.33.12-.31.13-.3.13-.28.13-.27.14-.26.13-.24.15-.22.14-.2.15-.12-.15zm-1.41 2.23l.03-.09.03-.09.03-.09.03-.08.03-.09.03-.08.04-.08.03-.08.04-.08.03-.08.04-.08.04-.07.04-.08.04-.07.04-.07.05-.07.04-.07.04-.07.05-.06.05-.07.05-.06.05-.06.05-.07.05-.06.05-.05.06-.06.06-.06.05-.05.06-.06.06-.05.06-.05.06-.05.12.15-.06.04-.06.05-.05.05-.06.05-.05.05-.06.05-.05.06-.05.05-.05.06-.05.06-.05.06-.04.06-.05.06-.04.06-.04.07-.05.06-.04.07-.04.07-.04.07-.03.07-.04.07-.04.08-.03.07-.04.08-.03.08-.03.08-.03.08-.03.08-.03.08-.03.09-.03.08-.03.09-.18-.05zm-.48 3.38l.01-.13v-.12l.01-.12.01-.13.01-.12.01-.11.01-.12.01-.12.01-.11.01-.11.01-.12.01-.11.01-.11.02-.11.01-.1.01-.11.02-.11.01-.1.02-.1.02-.1.02-.1.01-.1.02-.1.02-.1.02-.09.02-.09.02-.1.03-.09.02-.09.02-.09.03-.08.02-.09.18.05-.02.08-.03.09-.02.09-.02.09-.02.08-.03.1-.02.09-.02.09-.01.1-.02.09-.02.1-.02.1-.01.1-.02.1-.02.1-.01.1-.02.11-.01.11-.01.1-.01.11-.02.11-.01.11-.01.11-.01.12-.01.11-.01.12-.01.12v.12l-.01.12-.01.12-.01.12v.13l-.19-.01zm.13 2.84l-.01-.06-.01-.07-.01-.07-.01-.07-.01-.07-.01-.08-.01-.07-.01-.08-.01-.07-.01-.08v-.09l-.01-.08-.01-.08v-.09l-.01-.08v-.09l-.01-.09v-.09l-.01-.1V34.22l.01-.1v-.11l.01-.11v-.11l.19.01-.01.11v.11l-.01.1V34.33l-.01.11v.49l.01.1v.18l.01.09v.09l.01.09v.08l.01.09v.08l.01.08.01.08.01.08v.07l.01.08.01.07.01.07.01.07.01.07.01.07.02.07.01.06-.19.03zm1.12 1.62l-.11.07-.05-.01-.04-.02-.04-.01-.04-.02-.04-.02-.04-.03-.03-.02-.04-.03-.04-.04-.03-.03-.04-.04-.04-.04-.03-.05-.03-.04-.04-.05-.03-.05-.03-.06-.03-.05-.03-.06-.03-.07-.03-.06-.03-.07-.02-.07-.03-.07-.03-.08-.02-.07-.02-.08-.03-.09-.02-.08-.02-.09-.02-.09-.02-.1.19-.03.02.09.01.09.02.09.02.08.03.08.02.08.02.07.03.07.02.07.03.07.02.06.03.06.03.06.03.05.02.05.03.05.03.05.03.04.03.04.03.04.03.04.03.03.03.03.03.03.03.02.03.02.03.02.03.02.03.01.03.01.03.01.02.01-.11.07.19.04zm0 0l-.02.08-.09-.01.11-.07zm-.04-.77l.11-.07.07.11-.14.73-.19-.04.15-.73zm.11-.07l.09.02-.02.09-.07-.11zm-.26-.94l.01.06.02.06.01.05.01.06.01.05.01.05.01.05.01.05.01.04.01.05.02.04.01.04.01.03.01.04.01.03.01.04.01.02.01.03.01.03.01.02.01.02.01.02v.02l.01.01.01.01.01.01v.01l.01.01-.01-.01h-.01l-.04.18-.02-.01-.03-.01-.02-.02-.01-.01-.01-.02-.02-.01-.01-.02-.01-.02-.01-.02-.01-.02-.01-.03-.01-.02-.02-.03-.01-.03-.01-.03-.01-.03-.01-.03-.01-.04-.01-.03-.01-.04-.01-.04-.02-.05-.01-.04-.01-.05-.01-.05-.01-.05-.01-.05-.01-.05-.02-.06-.01-.06-.01-.06-.01-.06.18-.03zm-.12-2.64v.11l-.01.1v.2l-.01.1V34.99l.01.09V35.25l.01.09v.08l.01.08v.08l.01.07v.08l.01.07.01.08.01.07v.07l.01.07.01.06.01.07.01.06.01.07.01.06.01.06-.18.03-.01-.06-.01-.06-.01-.07-.01-.06-.01-.07-.01-.07-.01-.07-.01-.07-.01-.07v-.08l-.01-.07-.01-.08v-.08l-.01-.08v-.08l-.01-.08v-.09l-.01-.09v-.35l-.01-.1v-.09l.01-.1v-.4l.01-.1v-.1l.01-.11.18.01zm.45-3.16l-.02.08-.03.08-.02.08-.02.08-.02.09-.02.08-.02.09-.02.09-.01.09-.02.09-.02.09-.01.09-.02.09-.02.1-.01.1-.01.1-.02.09-.01.11-.01.1-.01.1-.01.11-.01.1-.02.11v.11l-.01.11-.01.11-.01.11-.01.11-.01.12v.11l-.01.12-.01.12-.18-.01v-.12l.01-.12.01-.11.01-.12v-.11l.01-.12.01-.11.01-.11.01-.11.01-.11.01-.1.01-.11.01-.1.02-.11.01-.1.01-.1.02-.1.01-.1.02-.09.01-.1.02-.09.01-.1.02-.09.02-.09.02-.09.02-.09.02-.08.02-.09.02-.09.02-.08.03-.08.02-.08.18.05zm1.09-1.76l-.05.04-.04.03-.05.04-.04.04-.05.05-.04.04-.04.04-.04.05-.04.04-.04.05-.04.05-.03.05-.04.05-.04.05-.03.05-.04.06-.03.05-.03.06-.03.06-.03.06-.03.06-.03.06-.03.06-.03.07-.03.06-.02.07-.03.06-.03.07-.02.07-.02.07-.03.08-.02.07-.18-.05.02-.08.03-.07.02-.08.03-.07.02-.07.03-.07.03-.07.03-.07.03-.06.03-.07.03-.06.03-.06.03-.07.04-.06.03-.06.03-.05.04-.06.04-.06.04-.05.03-.06.04-.05.04-.05.04-.05.05-.05.04-.05.05-.05.04-.04.05-.05.04-.04.05-.04.05-.04.05-.04.12.14zm10.26-3.11l-.29.05-.3.06-.32.06-.32.07-.33.07-.35.07-.34.07-.36.07-.36.08-.36.08-.37.08-.37.09-.37.09-.37.09-.37.09-.37.1-.36.1-.36.1-.35.1-.35.11-.34.11-.33.11-.33.12-.31.11-.3.12-.29.13-.27.12-.26.13-.24.13-.23.13-.2.13-.19.14-.12-.14.2-.15.21-.14.24-.13.25-.13.26-.13.28-.13.29-.13.3-.12.32-.11.32-.12.34-.11.34-.11.35-.11.36-.11.36-.1.36-.1.37-.09.37-.1.38-.09.37-.09.37-.08.37-.09.36-.08.36-.07.36-.08.35-.07.34-.07.33-.07.33-.06.31-.07.3-.06.29-.05.04.18zm0 0zm.96-.19l-.04.01h-.04l-.04.01-.03.01h-.04l-.03.01-.04.01-.03.01h-.03l-.03.01h-.03l-.04.01-.03.01h-.03l-.02.01h-.03l-.03.01h-.03l-.03.01-.02.01h-.03l-.03.01h-.03l-.02.01h-.03l-.03.01h-.02l-.03.01h-.02l-.03.01h-.03l-.02.01-.04-.18.03-.01h.02l.03-.01h.03l.02-.01h.03l.03-.01h.02l.03-.01h.02l.03-.01h.03l.03-.01h.02l.03-.01.03-.01h.03l.03-.01h.03l.03-.01.03-.01h.03l.03-.01h.03l.04-.01.03-.01h.03l.04-.01.04-.01.03-.01h.04l.04-.01.04.18zm2.6 1.58l-.11-.07v-.03l-.01-.02v-.04l-.01-.04-.02-.05-.02-.06-.02-.07-.02-.06-.03-.08-.04-.08-.03-.07-.05-.09-.05-.08-.05-.08-.07-.08-.06-.08-.08-.08-.08-.07-.09-.08-.09-.06-.11-.06-.11-.06-.12-.05-.13-.04-.14-.03-.15-.02-.16-.02h-.17l-.18.01-.2.02-.2.04-.04-.18.22-.04.2-.02.19-.01h.19l.17.02.17.02.15.04.14.04.14.06.12.06.12.07.1.07.1.08.09.08.09.09.07.09.07.08.06.1.05.08.05.09.04.09.04.08.03.08.03.08.02.07.02.06.02.05.01.05.01.04v.03l.01.02-.11-.07.03.18zm0 0l-.09.01-.02-.08.11.07zm.72-.29l.11.07-.08.11-.75.11-.03-.18.75-.11zm.11.07l.01.1-.09.01.08-.11z" class="fil1"/></g></g></g></svg>