<svg xmlns="http://www.w3.org/2000/svg" width="71" height="65" fill-rule="evenodd" clip-rule="evenodd" image-rendering="optimizeQuality" shape-rendering="geometricPrecision" text-rendering="geometricPrecision" viewBox="0 0 7.48 6.84"><defs><style>.fil3{fill:#f08bb2}.fil0{fill:#9ad0bb}.fil1{fill:#2b2a29;fill-rule:nonzero}</style></defs><g id="Слой_x0020_1"><g id="_726446048"><path d="M.03 6.28c.3.02.74.04 1.05.06.16-1.26.23-2.51.79-3.61l.64-.99L2.21.5C.93.47.68 1.74.37 3.16.15 4.18.13 5.5.03 6.28z" class="fil0"/><path id="1" d="M1.06 6.34h.03l-.02.02-.02-.01H.89l-.03-.01H.72l-.03-.01H.52l-.04-.01H.34l-.03-.01H.15L.12 6.3H.03v-.04h.03l.03.01h.15l.04.01h.13l.04.01h.14l.03.01h.17l.04.01h.13l.03.01h.09l-.02.02zm.03 0v.02h-.02l.02-.02zm.77-3.62l.03.02-.05.1-.05.1-.05.11-.04.1-.04.11-.04.11-.04.11-.03.1-.03.11-.03.11-.03.11-.03.12-.02.11-.03.11-.02.11-.02.12-.02.11-.02.11-.02.12-.01.11-.02.12-.01.12-.02.11-.01.12-.02.12-.01.11-.02.12-.01.12-.01.12-.02.11-.01.12-.02.12h-.03l.01-.12.02-.12.01-.12.02-.12.01-.11.01-.12.02-.12.01-.11.02-.12.01-.12.02-.11.01-.12.02-.12.02-.11.02-.12.02-.11.02-.11.02-.12.02-.11.03-.11.02-.11.03-.12.03-.11.04-.11.03-.11.04-.1.04-.11.04-.11.04-.11.05-.1.05-.11.05-.1zm0 0zm.66-.97l-.63.99-.03-.02.63-.99.03.01v.01zm0-.01v.01-.01zM2.23.5l.29 1.24-.03.01-.3-1.24.02-.03.02.02zM2.21.48h.01l.01.02-.02-.02zM.39 3.16H.35l.03-.14.03-.13.03-.13.03-.13.03-.12.03-.13.03-.12.03-.12.03-.12.04-.12.03-.11.04-.11.04-.11.05-.1.04-.1.05-.09.05-.09.05-.09.06-.08.06-.08.07-.07.06-.06.08-.07.07-.05.09-.05.08-.04.09-.04.1-.03.1-.02.11-.02.11-.01h.12v.04h-.12l-.11.01-.1.01-.1.03-.09.02-.09.04-.09.04-.08.05-.07.05-.07.06-.07.07-.06.07-.06.07-.06.08-.05.09-.05.09-.05.09-.04.1-.04.1-.04.1-.04.11-.04.11-.03.12-.04.12-.03.12-.03.12-.03.12-.03.13-.03.13-.02.13-.03.13-.03.13zm-.36 3.1v.04l-.02-.02.01-.08.01-.07.01-.08v-.09l.01-.08.01-.09.01-.09.01-.09v-.1l.01-.1.01-.09.01-.1v-.1l.01-.11.01-.1.01-.1.01-.11.01-.1.01-.11.01-.1.01-.11.01-.1.01-.11.01-.1.02-.11.01-.1.01-.11.02-.1.02-.1.01-.1.02-.1.02-.09h.04l-.02.1-.02.1-.02.1-.01.1-.02.1-.02.1-.01.11-.01.1-.02.1-.01.11-.01.11-.01.1-.01.11-.01.1-.01.11-.01.1-.01.1v.11l-.01.1-.01.1-.01.1v.1l-.01.09-.01.1-.01.09v.09l-.01.09-.01.09-.01.08-.01.08-.01.08-.01.07-.01-.02zm0 .04H.01v-.02l.02.02z" class="fil1"/><path d="M7.45 6.26c-.3.02-.74.04-1.05.06-.16-1.26-.23-2.51-.8-3.61l-.63-.99.3-1.24C6.55.45 6.8 1.72 7.11 3.14c.22 1.02.24 2.34.34 3.12z" class="fil0"/><path id="1" d="M6.42 6.32L6.4 6.3h.09l.03-.01h.16l.04-.01h.14l.03-.01h.14l.03-.01h.17l.04-.01h.15l.03-.01v.04h-.09l-.03.01h-.16l-.04.01H7l-.04.01h-.14l-.03.01h-.17l-.03.01h-.13l-.03.01H6.4l-.02-.02h.04zm-.02.02h-.01l-.01-.02.02.02zM5.62 2.7l.05.1.05.11.05.11.04.1.04.11.04.11.04.11.03.1.03.11.03.12.03.11.03.11.02.11.03.11.02.12.02.11.02.12.02.11.02.11.01.12.02.12.02.11.01.12.02.12.01.11.01.12.02.12.01.12.02.11.01.12.01.12.02.12h-.04l-.01-.12-.02-.12-.01-.11-.01-.12-.02-.12-.01-.12-.02-.11-.01-.12-.01-.12-.02-.11-.01-.12-.02-.11-.02-.12-.02-.11-.01-.12-.02-.11-.02-.12-.03-.11-.02-.11-.03-.11-.02-.11-.03-.12-.03-.11-.03-.1-.04-.11-.03-.11-.04-.11-.04-.11-.05-.1-.04-.11-.05-.1-.05-.1.03-.02zm0 0zm-.66-.97l-.01-.01h.04l.63.98-.03.02-.63-.99zm0 0h-.01v-.01l.01.01zM5.25.48l.02-.02.01.03-.29 1.24-.04-.01.3-1.24zm0 0V.46h.02l-.02.02zm1.84 2.67l-.03-.14-.03-.13L7 2.75l-.03-.13-.03-.12-.02-.13-.04-.12-.03-.12-.03-.12-.03-.12-.04-.11-.04-.11-.04-.1-.04-.1-.05-.1-.04-.09-.05-.09-.06-.09-.05-.08-.06-.07-.06-.07-.07-.07-.07-.06L6.04.7 5.96.65 5.88.61 5.79.58 5.7.55 5.6.52 5.49.51 5.38.5h-.11V.46h.12l.11.01.11.02.1.02.09.03.09.04.09.04.08.05.08.06.07.06.07.06.07.07.06.08.05.08.06.09.05.09.05.09.04.1.04.11.04.1.04.11.04.11.03.12.04.12.03.12.03.12.03.13.03.12.03.13.03.13.02.14.03.13-.03.01zm.36 3.09l-.02.02-.01-.07-.01-.08v-.08l-.01-.08-.01-.09-.01-.09-.01-.09v-.09l-.01-.1-.01-.09-.01-.1v-.1l-.01-.1-.01-.1-.01-.1-.01-.11v-.1l-.01-.11-.01-.1-.01-.11-.01-.1-.02-.11-.01-.11-.01-.1-.01-.1-.02-.11-.01-.1-.02-.1-.01-.1-.02-.1-.02-.1-.02-.09.03-.01.02.09.02.1.02.1.02.1.01.1.02.11.01.1.02.11.01.1.01.11.01.1.01.11.01.1.01.11.01.1.01.11.01.1.01.11v.1l.01.1.01.1.01.1v.09l.01.1.01.09.01.09v.09l.01.08.01.09.01.08.01.07.01.08-.02.02v-.04zm.02.02v.02h-.02l.02-.02z" class="fil1"/><path d="M7.43 6.26l-1.03.06.03.48 1.03-.06z" class="fil0"/><path id="1" d="M6.4 6.34l-.02-.02.02-.02 1.03-.06v.04l-1.03.06zm-.02-.02V6.3h.02l-.02.02zm.07.48l-.02.02-.02-.02-.03-.48h.04l.03.48zm-.02.02h-.02V6.8l.02.02zm1.03-.1l.02.02-.02.02-1.03.06v-.04l1.03-.06zm.02.02v.02h-.02l.02-.02zm-.07-.48l.02-.02.02.02.03.48h-.04l-.03-.48zm.02-.02h.02v.02l-.02-.02z" class="fil1"/><path fill="#6fa691" d="M2.78.32c0 .5.44.9.99.9s1-.4 1-.9l.54.17c-.02.52.03 1.15.12 1.6.05.27.14.5.24.69-.16 1.15-.14 2.38 0 3.65h-3.8c.11-1.18.18-2.39 0-3.7.1-.18.17-.39.22-.64.09-.45.14-1.07.12-1.59l.57-.18z"/><path id="1" d="M3.77 1.2v.04h-.1l-.05-.01-.05-.01-.05-.01-.05-.01-.05-.02-.04-.01-.05-.02-.04-.02-.04-.02-.04-.03-.04-.02-.04-.03L3.09 1 3.06.97 3.02.94 2.99.91 2.96.87 2.93.84 2.91.8 2.88.76 2.86.72 2.84.68 2.82.64 2.8.6 2.79.55 2.78.51 2.77.46 2.76.42v-.1h.03l.01.05v.09l.01.04.01.04.02.05.01.04.02.04.02.04.02.03.03.04.02.04.03.03.03.03.03.04.03.03.03.02.04.03.04.03.03.02.04.03.05.02.04.02.04.01.05.02.04.01.05.02.04.01h.05l.05.01h.1zm1-.89l-.01.03.03-.02-.01.05v.05l-.01.04v.05l-.02.04-.01.05-.02.04-.01.04-.02.04-.03.04-.02.04-.03.04-.03.03-.03.04-.03.03-.03.03-.04.03-.03.03-.04.03-.04.02-.04.03-.05.02-.04.02-.04.02-.05.01-.05.02-.05.01-.04.01-.05.01-.05.01h-.11V1.2h.1l.05-.01h.05l.05-.01.04-.02.05-.01.04-.02.05-.01.04-.02.04-.02.04-.03.04-.02L4.4 1l.03-.03.03-.02.04-.03.03-.04.03-.03.02-.03.03-.04.02-.04.02-.03.02-.04.02-.04.02-.04.01-.05.01-.04.01-.04.01-.05V.32l.02-.01zm-.02.01V.3l.02.01-.02.01zm.55.19L4.76.34l.01-.03.54.16.02.02-.03.02zm.01-.04l.02.01v.01L5.31.47zm.13 1.62h-.03l-.01-.04-.01-.04v-.05l-.01-.05-.01-.04-.01-.05v-.05l-.01-.05v-.04l-.01-.05-.01-.05v-.06l-.01-.05v-.05l-.01-.05v-.1l-.01-.06v-.1l-.01-.05V.49h.04l-.01.05V.9l.01.05v.16l.01.05v.1l.01.05v.11l.01.05v.05l.01.05v.05l.01.05.01.05v.05l.01.05.01.04v.05l.01.04.01.05.01.04v.05zm.25.69l-.04-.01.01.02-.01-.02-.01-.02-.01-.02-.01-.02-.01-.02-.01-.01-.01-.02-.01-.02-.01-.02-.01-.02-.01-.02v-.02l-.01-.03-.01-.02-.01-.02-.01-.02v-.02l-.01-.02-.01-.03-.01-.02v-.02l-.01-.02-.01-.03v-.02l-.01-.02-.01-.03v-.02l-.01-.03v-.02l-.01-.03v-.02l-.01-.03h.03l.01.02.01.03v.02l.01.02v.03l.01.02v.03l.01.02.01.02v.03l.01.02.01.02v.02l.01.03.01.02.01.02v.02l.01.02.01.02.01.02.01.02v.02l.01.02.01.02.01.02.01.02.01.02.01.02.01.01.01.02.01.02.01.02v.01zm0-.01v.01-.01zm-.02 3.68v-.03l-.02.02-.01-.12-.01-.12-.01-.12-.01-.12-.01-.12-.01-.12-.01-.11-.01-.12-.01-.12v-.12l-.01-.11v-.12l-.01-.12V4.1l.01-.11v-.11l.01-.11v-.12l.01-.11.01-.11.01-.11.01-.11.01-.11.01-.11.02-.11.01-.11.04.01-.02.11-.01.11-.01.1-.01.11-.02.11v.11l-.01.11-.01.12-.01.11v.11l-.01.11V4.22l-.01.11V4.67l.01.12V5.02l.01.12v.11l.01.12.01.12v.11l.01.12.01.12.01.12.01.11.01.12.02.12.01.12-.02.02zm.02-.02v.02h-.02l.02-.02zm-3.82-.01h3.8v.03h-3.8l-.02-.02.02-.01zm0 .03h-.02v-.02l.02.02zm-.01-3.73l.03.02v-.01l.02.12.01.12.01.12.01.12.01.12.01.12.01.12.01.12v.12l.01.12V4.16l.01.12V4.51l-.01.12V4.97l-.01.12v.11l-.01.11v.12l-.01.11-.01.11-.01.11v.12l-.01.11-.01.11-.01.11-.01.11-.01.12-.04-.01.01-.11.01-.11.01-.11.01-.11.01-.12.01-.11.01-.11v-.11l.01-.12.01-.11V5.2l.01-.12v-.22l.01-.12v-.69l-.01-.12v-.12l-.01-.12v-.11l-.01-.12-.01-.12-.01-.12-.01-.12-.02-.12-.01-.13-.02-.12.01-.01zm-.01.01l.01-.01-.01.01zm.22-.64h.04l-.01.03v.02l-.01.02v.02l-.01.03v.02l-.01.02v.02l-.01.03-.01.02v.02l-.01.02v.02l-.01.02-.01.02v.02l-.01.02-.01.02-.01.02v.02l-.01.02-.01.02-.01.02v.02l-.01.01-.01.02-.01.02-.01.02-.01.02v.01l-.01.02-.01.02-.03-.02.01-.02v-.01l.01-.02.01-.02.01-.01.01-.02.01-.02v-.02l.01-.02.01-.01.01-.02v-.02l.01-.02.01-.02v-.02l.01-.02.01-.02v-.02L2 2.37l.01-.02v-.02l.01-.02.01-.02v-.03l.01-.02v-.02l.01-.02v-.02l.01-.03v-.02l.01-.02v-.02zM2.2.48l.02.04.01-.02v.51l-.01.05v.11l-.01.05v.1l-.01.05v.06l-.01.05v.05l-.01.05v.05l-.01.05v.05l-.01.05-.01.04v.05l-.01.05-.01.04-.01.05v.04l-.01.04h-.04l.01-.05.01-.04.01-.04v-.05l.01-.05.01-.04v-.05l.01-.05.01-.05v-.05l.01-.05v-.05l.01-.05v-.05l.01-.05v-.05l.01-.05v-.16l.01-.05V.8L2.2.75v-.1L2.19.6V.5L2.2.48zM2.19.5V.49L2.2.48 2.19.5zm.59-.16l-.56.18L2.2.48l.57-.17.02.01-.01.02zM2.77.31L2.79.3v.02L2.77.31z" class="fil1"/><g><path d="M.05 6.28l1.03.06-.03.48-1.03-.06z" class="fil0"/><path id="1" d="M1.07 6.36L.04 6.3l.01-.04 1.03.06.01.02-.02.02zm.01-.04h.01v.02l-.01-.02zm-.05.5l.03-.48h.03l-.02.48-.02.02-.02-.02zm.04 0v.02h-.02l.02-.02zM.02 6.74l1.03.06v.04L.02 6.78 0 6.76l.02-.02zm0 .04H0v-.02l.02.02zm.04-.5l-.02.48H0l.03-.48.02-.02.01.02zm-.03 0v-.02h.02l-.02.02z" class="fil1"/></g><g><path d="M3.54.99l.43.01.38 4.47-.49.7-.6-.74z" class="fil3"/><path id="1" d="M3.97 1.02l-.43-.01V.97l.43.01.02.02-.02.02zm0-.04h.02V1L3.97.98zm.36 4.49L3.95 1h.04l.38 4.47v.01l-.04-.01zm.04 0v.01-.01zm-.52.69l.49-.7.03.02-.49.7h-.03v-.02zm.03.02l-.01.02-.02-.02h.03zm-.61-.76l.61.74-.03.02-.61-.73v-.02l.03-.01zm-.03.03v-.02.02zM3.56.99l-.29 4.45-.03-.01.28-4.44.02-.02.02.02zm-.04 0V.97h.02l-.02.02z" class="fil1"/></g><g><path d="M3.43.71h.75c.07.09-.01.75-.07.73-.2.04-.41.04-.62 0-.07-.03-.13-.75-.06-.73z" class="fil3"/><path id="1" d="M4.18.72h-.75V.69h.75L4.2.7l-.02.02zm0-.03h.01L4.2.7 4.18.69zm-.07.76l-.01-.03h.01l.01-.01V1.4l.01-.02v-.02l.01-.02v-.02l.01-.03v-.02l.01-.03v-.03l.01-.03v-.03l.01-.04v-.06l.01-.03V.79L4.18.77V.74L4.17.72 4.2.7v.01l.01.01.01.02v.07l.01.02v.09l-.01.03v.13l-.01.04v.03l-.01.03v.03l-.01.03v.03l-.01.03v.03l-.01.02v.02l-.01.02-.01.02v.01l-.01.02-.01.01H4.1h.01zm-.01-.03h.01-.01zm-.62.03l.01-.03h.02l.02.01h.04l.02.01h.04l.02.01H3.93l.02-.01h.06l.02-.01h.03l.02-.01h.02l.01.03-.02.01h-.04l-.02.01h-.04l-.01.01H3.9l-.02.01H3.7l-.02-.01H3.6l-.02-.01h-.04l-.02-.01H3.5l-.02-.01zm0 0zM3.43.69v.05l-.01.01v.27l.01.03v.07l.01.03v.07l.01.03v.03l.01.02v.03l.01.02v.02l.01.02.01.01v.02l-.01.03-.01-.01-.01-.01-.01-.01V1.4l-.01-.02-.01-.02v-.02l-.01-.03v-.03l-.01-.03v-.03l-.01-.03v-.07l-.01-.03v-.1L3.38.96V.79l.01-.03V.73L3.4.71V.7l.02-.01h.01zm0 .03z" class="fil1"/></g><g><path d="M2.97 1.7L3.69.64 3.15.02l-.37.3.19 1.38zm1.64.01L3.89.65l.54-.62.37.3-.19 1.38z" class="fil0"/><path id="1" d="M3.7.65l-.72 1.06-.03-.02.72-1.06h.03v.02zm0-.02l.01.01-.01.01V.63zM3.16.01l.54.62-.03.02-.54-.61.01-.03h.02zm-.02 0L3.15 0l.01.01h-.02zm-.38.3l.38-.3.02.03-.37.3-.03-.01V.31zm0 .02V.31v.02zm.19 1.38L2.76.33l.03-.01.2 1.38-.01.01h-.03zm.03 0l-.02.04-.01-.04h.03zM3.91.64l.72 1.06-.03.02L3.88.66V.64h.03zm-.03.02L3.87.65l.01-.01v.02zm.56-.62L3.9.66 3.88.64l.54-.62h.02v.02zM4.42.02l.01-.01.01.01h-.02zm.37.33l-.37-.3.02-.03.37.3.01.02-.03.01zm.02-.03l.01.01v.01L4.81.32zm-.22 1.39l.2-1.38.03.01-.19 1.37-.03.01-.01-.01zm.04 0l-.01.05-.02-.04.03-.01z" class="fil1"/></g></g></g></svg>