<svg xmlns="http://www.w3.org/2000/svg" width="121" height="68" fill-rule="evenodd" clip-rule="evenodd" image-rendering="optimizeQuality" shape-rendering="geometricPrecision" text-rendering="geometricPrecision" viewBox="0 0 16.95 9.56"><defs><style>.fil6{fill:#fefefe}.fil3{fill:#f08bb2}.fil0{fill:#99cfba}.fil1,.fil7,.fil8{fill:#fefefe;fill-rule:nonzero}.fil1,.fil8{fill:#2b2a29}.fil8{fill:#99cfba}</style></defs><g id="Слой_x0020_1"><g id="_93612544"><path d="M3.88.83L8.43.82c-2.07 1.27 1.42 5.51-.31 8.02-1.91.01-3.82.01-5.74.02 1.67-1.55.67-3.48.4-5.7-.12-1 .05-2.33 1.1-2.33zm-.27.3c.18 0 .33.14.33.32s-.15.32-.33.32c-.17 0-.32-.14-.32-.32s.15-.32.32-.32zm3.26 0c.18 0 .32.14.32.32s-.14.32-.32.32-.32-.14-.32-.32.14-.32.32-.32zm-1.06 0c.18 0 .32.14.32.32s-.14.32-.32.32-.33-.14-.33-.32.15-.32.33-.32zm-1.09 0c.18 0 .32.14.32.32s-.14.32-.32.32-.32-.14-.32-.32.14-.32.32-.32z" class="fil0"/><path id="1" d="M8.43.84L3.88.86V.81L8.43.8l.01.04h-.01zm0-.04h.08l-.07.04L8.43.8zm-.31 8.07v-.05l-.02.01.14-.24.12-.25.09-.25.07-.27.04-.27.03-.27v-.29l-.01-.28-.02-.29-.04-.29-.05-.3-.06-.29-.07-.29-.07-.3-.07-.29-.08-.29-.07-.28-.07-.29-.07-.27-.06-.27L7.8 3l-.04-.26-.02-.25-.02-.23.01-.23.02-.22.05-.2.07-.19.09-.18.12-.16.15-.15.18-.13.03.04-.18.13-.14.14-.12.15-.09.18-.07.18-.04.2-.02.21-.01.23.01.23.03.24.04.26.05.26.06.27.06.27.07.28.08.29.07.29.08.29.07.29.06.3.06.3.05.29.04.29.03.3.01.28v.29l-.03.28-.04.27-.07.27-.09.26-.12.25-.15.25-.02.01zm.02-.01l-.01.01h-.01l.02-.01zm-5.77-.02l.03.03-.02-.04H5.97l.18-.01H8.12v.05H4.89l-.18.01H2.38l-.01-.04zm.01.04h-.06l.05-.04.01.04zm.38-5.72h.05l.02.2.03.21.04.2.03.21.04.2.04.19.04.2.04.2.04.19.04.19.03.19.04.19.03.18.02.19.03.18.01.18.01.18.01.18v.17l-.01.17-.02.17-.03.17-.03.17-.05.16-.06.17-.07.16-.08.16-.09.15-.11.16-.12.15-.13.15-.15.14-.03-.03.15-.15.13-.14.12-.15.1-.15.09-.16.08-.15.07-.16.06-.16.04-.16.04-.17.02-.16.02-.17.01-.17v-.35l-.02-.18-.01-.17-.02-.19-.03-.18-.03-.18-.03-.19-.04-.19-.04-.19-.04-.19-.04-.2-.04-.2-.04-.19-.03-.21-.04-.2-.03-.2-.03-.21-.03-.21zM3.88.81v.05h-.09L3.7.87l-.09.02-.07.02-.08.04-.07.03-.06.05-.07.05-.05.05-.06.06-.05.06-.04.07-.04.07-.04.08-.04.08-.03.08-.02.09-.03.09-.02.09-.02.09-.01.1-.01.09-.01.1-.01.1-.01.1v.2l.01.09v.1l.01.1.01.09.01.1h-.05l-.01-.09-.01-.1-.01-.1v-.19l-.01-.1.01-.1v-.1l.01-.1.01-.1.01-.1.02-.1.01-.09.03-.1.02-.09.03-.08.03-.09.04-.08.04-.08.04-.08.05-.07.05-.06.05-.06.06-.06.07-.05.07-.05.07-.04.08-.03.08-.03.09-.01.09-.02h.1zm0 .05zm.08.59h-.05V1.39l-.01-.02v-.02l-.01-.02-.01-.01v-.01l-.01-.02-.01-.01-.01-.01v-.01l-.01-.01-.01-.01-.01-.01-.02-.01-.01-.01-.01-.01-.01-.01h-.01l-.02-.01-.01-.01h-.01l-.02-.01h-.02l-.02-.01h-.05V1.1h.02l.02.01h.05l.02.01h.01l.02.01.01.01.02.01h.01l.02.01.01.01.01.01.02.01.01.01.01.02.01.01.01.01.01.02.01.01.01.01.01.02v.01l.01.02.01.02v.03l.01.02v.05zm-.35.35v-.05h.04l.01-.01h.03l.01-.01h.02l.01-.01h.01l.02-.01h.01l.01-.01.01-.01.01-.01.02-.01.01-.01.01-.01.01-.01v-.01l.01-.01.01-.02.01-.01v-.01l.01-.01.01-.02v-.03l.01-.01V1.45h.05v.05l-.01.02v.03l-.01.02-.01.01v.02l-.01.01-.01.02-.01.01-.01.02-.01.01-.01.01-.01.01-.01.02-.02.01-.01.01-.01.01-.02.01h-.01l-.02.01-.01.01h-.02l-.01.01H3.7l-.02.01h-.03l-.02.01h-.02zm-.34-.35h.05V1.51l.01.01v.03l.01.02.01.01v.01l.01.01.01.02.01.01v.01l.01.01.01.01.01.01.01.01.02.01.01.01.01.01h.01l.02.01h.01l.01.01h.02l.01.01h.03l.01.01h.03v.05H3.6l-.02-.01h-.03l-.02-.01h-.02l-.01-.01h-.02l-.02-.01-.01-.01h-.01l-.02-.01-.01-.01-.02-.01-.01-.01-.01-.02-.01-.01-.01-.01-.01-.01-.01-.02-.01-.01-.01-.02-.01-.01v-.02l-.01-.01-.01-.02v-.03l-.01-.02v-.05zm.34-.35v.05h-.04l-.02.01h-.02l-.02.01H3.5l-.01.01-.02.01h-.01l-.01.01-.01.01-.02.01-.01.01-.01.01-.01.01-.01.01v.01l-.01.01-.01.01-.01.02v.01l-.01.01-.01.02v.02l-.01.02v.06h-.05V1.4l.01-.02v-.03l.01-.02.01-.02V1.3l.01-.02.01-.01.01-.01.01-.02.01-.01.01-.01.01-.02.01-.01.01-.01.02-.01.01-.01.02-.01h.01l.01-.01.02-.01.02-.01h.01l.02-.01h.05l.02-.01h.01zm3.6.35h-.04v-.02l-.01-.01v-.05l-.01-.01v-.01l-.01-.02v-.01l-.01-.01-.01-.02v-.01l-.01-.01-.01-.01-.01-.01-.01-.01-.01-.01-.01-.01-.01-.01-.02-.01-.01-.01h-.01L7 1.18l-.02-.01h-.01l-.01-.01h-.03l-.02-.01h-.04V1.1h.02l.01.01h.05l.02.01h.02l.01.01.02.01.01.01h.02l.01.01.01.01.02.01.01.01.01.01.01.02.01.01.01.01.01.02.01.01.01.01.01.02.01.01v.02l.01.02v.01l.01.02v.07zm-.34.35v-.05h.03l.01-.01h.03l.02-.01h.01l.01-.01H7l.01-.01h.01l.01-.01.02-.01.01-.01.01-.01.01-.01.01-.01.01-.01.01-.01.01-.01V1.6l.01-.01.01-.01v-.01l.01-.02v-.01l.01-.02v-.04l.01-.02v-.01h.04v.07l-.01.02v.01l-.01.02v.01l-.01.02-.01.01-.01.02-.01.01-.01.02-.01.01-.01.01-.01.01-.01.02-.01.01-.02.01-.01.01-.01.01h-.02l-.01.01-.02.01h-.01l-.02.01h-.02l-.01.01H6.9l-.01.01h-.02zm-.35-.35h.05v.05l.01.01v.03l.01.01v.02l.01.01.01.01v.01l.01.02.01.01.01.01.01.01.01.01.01.01.01.01.01.01.01.01.01.01h.02l.01.01h.01l.01.01h.02l.01.01h.03l.02.01h.03v.05h-.02l-.02-.01H6.8l-.02-.01h-.02l-.01-.01h-.02l-.01-.01-.02-.01h-.01l-.02-.01-.01-.01-.01-.01-.02-.01-.01-.02-.01-.01-.01-.01-.01-.01-.01-.02-.01-.01-.01-.02V1.6l-.01-.02-.01-.01v-.02l-.01-.01V1.5l-.01-.02v-.03zm.35-.35v.05h-.05l-.01.01h-.03l-.02.01h-.01l-.01.01-.01.01h-.02l-.01.01-.01.01-.01.01-.01.01-.01.01-.01.01-.01.01-.01.01-.01.01-.01.01v.02l-.01.01-.01.01v.02l-.01.01v.03l-.01.01v.05h-.05v-.04l.01-.01v-.04l.01-.01v-.02l.01-.02.01-.01v-.02l.01-.01.01-.01.01-.02.01-.01.01-.01.01-.02.01-.01.02-.01.01-.01.01-.01.02-.01h.01l.02-.01.01-.01.02-.01h.01l.02-.01h.05l.02-.01h.02zm-.72.35h-.04v-.02l-.01-.01v-.05l-.01-.01v-.01l-.01-.02v-.01l-.01-.01-.01-.02-.01-.01v-.01l-.01-.01-.01-.01-.01-.01-.01-.01L6 1.22l-.01-.01-.02-.01-.01-.01h-.01l-.01-.01-.02-.01h-.01l-.01-.01h-.03l-.02-.01h-.04V1.1h.02l.01.01h.05l.02.01h.02l.01.01.02.01.01.01h.02l.01.01.01.01.02.01.01.01.01.01.01.02.01.01.01.01.01.02.01.01.01.01.01.02.01.01v.02l.01.02v.01l.01.02v.07zm-.34.35v-.05h.03l.01-.01h.03l.02-.01h.01l.01-.01h.02l.01-.01h.01l.01-.01.02-.01.01-.01.01-.01.01-.01.01-.01.01-.01.01-.01v-.01l.01-.02.01-.01.01-.01v-.01l.01-.02v-.01l.01-.02v-.04l.01-.02v-.01h.04v.07l-.01.02v.01l-.01.02v.01l-.01.02-.01.01-.01.02-.01.01-.01.02-.01.01-.01.01-.01.01-.01.02-.01.01-.02.01-.01.01-.01.01h-.02l-.01.01-.02.01h-.01l-.02.01h-.02l-.01.01h-.04l-.01.01h-.02zm-.35-.35h.05V1.51l.01.01v.02l.01.01v.02l.01.01v.01l.01.01.01.02.01.01.01.01.01.01.01.01.01.01.01.01.01.01.01.01.01.01h.01l.02.01h.01l.01.01h.02l.01.01h.03l.02.01h.03v.05h-.02l-.02-.01h-.03l-.02-.01H5.7l-.01-.01h-.02l-.01-.01-.02-.01h-.01l-.02-.01-.01-.01-.01-.01-.02-.01-.01-.02-.01-.01-.01-.01-.01-.01-.01-.02-.01-.01-.01-.02V1.6l-.01-.02-.01-.01v-.02l-.01-.01v-.02l-.01-.02v-.05zm.35-.35v.05h-.05l-.01.01h-.03l-.02.01h-.01l-.01.01-.02.01h-.01l-.01.01-.01.01-.01.01-.01.01-.01.01-.01.01-.01.01-.01.01-.01.01-.01.01-.01.02v.01l-.01.01v.02l-.01.01v.01l-.01.02v.06h-.05V1.4l.01-.02v-.02l.01-.01v-.02l.01-.02.01-.01v-.02l.01-.01.01-.01.01-.02.01-.01.01-.01.01-.02.01-.01.02-.01.01-.01.01-.01.02-.01h.01l.02-.01.01-.01.02-.01h.01l.02-.01h.05l.02-.01h.02zm-.75.35h-.04v-.03l-.01-.02v-.03L5 1.36v-.01l-.01-.02v-.01l-.01-.01-.01-.02v-.01l-.01-.01-.01-.01-.01-.01-.01-.01-.01-.01-.01-.01-.01-.01-.01-.01-.02-.01h-.01l-.01-.01-.02-.01h-.01l-.01-.01h-.03l-.02-.01h-.04V1.1h.02l.01.01h.05l.02.01h.02l.01.01.02.01.01.01h.02l.01.01.02.01.01.01.01.01.01.01.01.02.02.01.01.01.01.02v.01l.01.01.01.02.01.01v.02l.01.02v.01l.01.02v.07zm-.34.35v-.05h.03l.01-.01h.03l.02-.01h.01l.01-.01h.02l.01-.01h.01l.02-.01.01-.01.01-.01.01-.01.01-.01.01-.01.01-.01.01-.01.01-.01V1.6l.01-.01.01-.01v-.01L5 1.55v-.01l.01-.02V1.5l.01-.02v-.03h.04v.07l-.01.02v.01l-.01.02v.01l-.01.02-.01.01-.01.02v.01L5 1.66l-.01.01-.02.01-.01.01-.01.02-.01.01-.01.01-.02.01-.01.01h-.02l-.01.01-.02.01h-.01l-.02.01H4.8l-.01.01h-.04l-.01.01h-.02zm-.35-.35h.05v.05l.01.01v.03l.01.01v.02l.01.01.01.01v.01l.01.02.01.01.01.01.01.01.01.01.01.01.01.01.01.01.01.01.01.01h.02l.01.01h.01l.02.01h.01l.01.01h.03l.02.01h.03v.05H4.7l-.02-.01h-.03l-.02-.01h-.01l-.02-.01h-.02l-.01-.01-.02-.01h-.01l-.02-.01-.01-.01-.01-.01-.01-.01-.02-.02-.01-.01-.01-.01-.01-.01-.01-.02-.01-.01-.01-.02V1.6l-.01-.02-.01-.01v-.02l-.01-.01V1.5l-.01-.02v-.03zm.35-.35v.05h-.05l-.01.01h-.03l-.01.01H4.6l-.01.01-.01.01h-.02l-.01.01-.01.01-.01.01-.01.01-.01.01-.01.01-.01.01-.01.01-.01.01-.01.01v.02l-.01.01-.01.01v.02l-.01.01v.03l-.01.01v.05h-.05v-.04l.01-.01v-.04l.01-.01v-.02l.01-.02.01-.01v-.02l.01-.01.01-.01.01-.02.01-.01.01-.01.01-.02.02-.01.01-.01.01-.01.01-.01.02-.01h.01l.02-.01.01-.01.02-.01h.02l.01-.01h.05l.02-.01h.02z" class="fil1"/><path fill="#d8ece4" d="M3.63.89L8.17.88c-2.07 1.27 1.38 6.44-.82 8.4-1.91 0-3.82.01-5.74.01 1.67-1.55 1.18-3.85.92-6.07-.12-1 .04-2.33 1.1-2.33zm-.02.24c.18 0 .33.14.33.32s-.15.32-.33.32c-.17 0-.32-.14-.32-.32s.15-.32.32-.32zm3.26 0c.18 0 .32.14.32.32s-.14.32-.32.32-.32-.14-.32-.32.14-.32.32-.32zm-1.06 0c.18 0 .32.14.32.32s-.14.32-.32.32-.33-.14-.33-.32.15-.32.33-.32zm-1.09 0c.18 0 .32.14.32.32s-.14.32-.32.32-.32-.14-.32-.32.14-.32.32-.32z"/><path id="1" d="M8.17.9L3.63.92V.87L8.17.86l.01.04h-.01zm0-.04h.09L8.18.9 8.17.86zM7.35 9.3v-.05l-.02.01.19-.19.16-.21.13-.22.1-.24.08-.26.05-.26.04-.28.01-.28v-.3l-.02-.3-.02-.31-.04-.31-.05-.32-.05-.32-.06-.32-.06-.31-.06-.32-.06-.31-.06-.31-.05-.31-.04-.29L7.48 3l-.02-.28V2.2l.03-.24.05-.23.07-.21.09-.2.13-.17.15-.16.18-.13.02.04-.17.13-.15.15-.11.17-.1.18-.06.21-.05.22-.03.24-.01.25.01.27.02.27.03.29.05.3.05.3.05.31.06.31.06.32.06.32.06.31.06.32.04.32.04.32.03.31.02.3v.3l-.02.29-.03.28-.06.27-.08.25-.1.25-.13.23-.16.21-.2.19-.01.01zm.01-.01v.01h-.01l.01-.01zM1.6 9.27l.03.04-.02-.04h.36l.18-.01H6.09l.18-.01H7.35v.05H5.2l-.18.01H1.61l-.01-.04zm.01.04h-.06l.05-.04.01.04zm.89-6.09h.05l.03.21.02.2.03.21.03.21.02.21.03.21.02.21.02.21.03.2.01.21.02.2.01.21.01.2v.4l-.01.2-.01.2-.02.19-.03.19-.03.19-.04.19-.05.18-.06.18-.06.18-.07.18-.09.17-.09.16-.11.17-.11.16-.13.16-.14.15-.15.15-.03-.04.15-.14.13-.15.13-.16.11-.16.11-.16.09-.17.08-.16.08-.18.06-.17.06-.18.04-.18.04-.19.03-.19.03-.19.02-.19.01-.19.01-.2v-.4l-.01-.2-.01-.2-.01-.21-.02-.2-.02-.21-.03-.21-.02-.2-.02-.21-.03-.21-.03-.21-.02-.21-.03-.21-.03-.21zM3.63.87v.05h-.1l-.09.01-.08.02-.08.02-.07.04-.07.03-.07.05-.06.04-.06.06-.05.06-.05.06-.05.07-.04.07-.04.08-.03.08-.03.08-.03.09-.02.09-.02.09-.02.09-.02.1-.01.09-.01.1-.01.1v.39l.01.1v.1l.01.09.01.1H2.5l-.01-.09-.01-.1v-.1l-.01-.09V2.54l.01-.1v-.1l.01-.1.02-.1.01-.1.02-.09.02-.1.03-.09.02-.08.04-.09.03-.08.04-.08.04-.08.05-.07.05-.06.06-.06.06-.06.06-.05.07-.05.08-.04.07-.03.09-.03.09-.02.09-.01h.1zm0 .05zm.33.53h-.05V1.39l-.01-.02v-.02l-.01-.02-.01-.01v-.01l-.01-.02-.01-.01-.01-.01v-.01l-.01-.01-.01-.01-.01-.01-.02-.01-.01-.01-.01-.01-.01-.01h-.01l-.02-.01-.01-.01h-.01l-.02-.01h-.02l-.02-.01h-.05V1.1h.02l.02.01h.05l.02.01h.01l.02.01.01.01.02.01h.01l.02.01.01.01.01.01.02.01.01.01.01.02.01.01.01.01.01.02.01.01.01.01.01.02v.01l.01.02.01.02v.03l.01.02v.05zm-.35.35v-.05h.04l.01-.01h.03l.01-.01h.02l.01-.01h.01l.02-.01h.01l.01-.01.01-.01.01-.01.02-.01.01-.01.01-.01.01-.01v-.01l.01-.01.01-.02.01-.01v-.01l.01-.01.01-.02v-.03l.01-.01V1.45h.05v.05l-.01.02v.03l-.01.02-.01.01v.02l-.01.01-.01.02-.01.01-.01.02-.01.01-.01.01-.01.01-.01.02-.02.01-.01.01-.01.01-.02.01h-.01l-.02.01-.01.01h-.02l-.01.01H3.7l-.02.01h-.03l-.02.01h-.02zm-.34-.35h.05V1.51l.01.01v.03l.01.02.01.01v.01l.01.01.01.02.01.01v.01l.01.01.01.01.01.01.01.01.02.01.01.01.01.01h.01l.02.01h.01l.01.01h.02l.01.01h.03l.01.01h.03v.05H3.6l-.02-.01h-.03l-.02-.01h-.02l-.01-.01h-.02l-.02-.01-.01-.01h-.01l-.02-.01-.01-.01-.02-.01-.01-.01-.01-.02-.01-.01-.01-.01-.01-.01-.01-.02-.01-.01-.01-.02-.01-.01v-.02l-.01-.01-.01-.02v-.03l-.01-.02v-.05zm.34-.35v.05h-.04l-.02.01h-.02l-.02.01H3.5l-.01.01-.02.01h-.01l-.01.01-.01.01-.02.01-.01.01-.01.01-.01.01-.01.01v.01l-.01.01-.01.01-.01.02v.01l-.01.01-.01.02v.02l-.01.02v.06h-.05V1.4l.01-.02v-.03l.01-.02.01-.02V1.3l.01-.02.01-.01.01-.01.01-.02.01-.01.01-.01.01-.02.01-.01.01-.01.02-.01.01-.01.02-.01h.01l.01-.01.02-.01.02-.01h.01l.02-.01h.05l.02-.01h.01zm3.6.35h-.04v-.02l-.01-.01v-.05l-.01-.01v-.01l-.01-.02v-.01l-.01-.01-.01-.02v-.01l-.01-.01-.01-.01-.01-.01-.01-.01-.01-.01-.01-.01-.01-.01-.02-.01-.01-.01h-.01L7 1.18l-.02-.01h-.01l-.01-.01h-.03l-.02-.01h-.04V1.1h.02l.01.01h.05l.02.01h.02l.01.01.02.01.01.01h.02l.01.01.01.01.02.01.01.01.01.01.01.02.01.01.01.01.01.02.01.01.01.01.01.02.01.01v.02l.01.02v.01l.01.02v.07zm-.34.35v-.05h.03l.01-.01h.03l.02-.01h.01l.01-.01H7l.01-.01h.01l.01-.01.02-.01.01-.01.01-.01.01-.01.01-.01.01-.01.01-.01.01-.01V1.6l.01-.01.01-.01v-.01l.01-.02v-.01l.01-.02v-.04l.01-.02v-.01h.04v.07l-.01.02v.01l-.01.02v.01l-.01.02-.01.01-.01.02-.01.01-.01.02-.01.01-.01.01-.01.01-.01.02-.01.01-.02.01-.01.01-.01.01h-.02l-.01.01-.02.01h-.01l-.02.01h-.02l-.01.01H6.9l-.01.01h-.02zm-.35-.35h.05v.05l.01.01v.03l.01.01v.02l.01.01.01.01v.01l.01.02.01.01.01.01.01.01.01.01.01.01.01.01.01.01.01.01.01.01h.02l.01.01h.01l.01.01h.02l.01.01h.03l.02.01h.03v.05h-.02l-.02-.01H6.8l-.02-.01h-.02l-.01-.01h-.02l-.01-.01-.02-.01h-.01l-.02-.01-.01-.01-.01-.01-.02-.01-.01-.02-.01-.01-.01-.01-.01-.01-.01-.02-.01-.01-.01-.02V1.6l-.01-.02-.01-.01v-.02l-.01-.01V1.5l-.01-.02v-.03zm.35-.35v.05h-.05l-.01.01h-.03l-.02.01h-.01l-.01.01-.01.01h-.02l-.01.01-.01.01-.01.01-.01.01-.01.01-.01.01-.01.01-.01.01-.01.01-.01.01v.02l-.01.01-.01.01v.02l-.01.01v.03l-.01.01v.05h-.05v-.04l.01-.01v-.04l.01-.01v-.02l.01-.02.01-.01v-.02l.01-.01.01-.01.01-.02.01-.01.01-.01.01-.02.01-.01.02-.01.01-.01.01-.01.02-.01h.01l.02-.01.01-.01.02-.01h.01l.02-.01h.05l.02-.01h.02zm-.72.35h-.04v-.02l-.01-.01v-.05l-.01-.01v-.01l-.01-.02v-.01l-.01-.01-.01-.02-.01-.01v-.01l-.01-.01-.01-.01-.01-.01-.01-.01L6 1.22l-.01-.01-.02-.01-.01-.01h-.01l-.01-.01-.02-.01h-.01l-.01-.01h-.03l-.02-.01h-.04V1.1h.02l.01.01h.05l.02.01h.02l.01.01.02.01.01.01h.02l.01.01.01.01.02.01.01.01.01.01.01.02.01.01.01.01.01.02.01.01.01.01.01.02.01.01v.02l.01.02v.01l.01.02v.07zm-.34.35v-.05h.03l.01-.01h.03l.02-.01h.01l.01-.01h.02l.01-.01h.01l.01-.01.02-.01.01-.01.01-.01.01-.01.01-.01.01-.01.01-.01v-.01l.01-.02.01-.01.01-.01v-.01l.01-.02v-.01l.01-.02v-.04l.01-.02v-.01h.04v.07l-.01.02v.01l-.01.02v.01l-.01.02-.01.01-.01.02-.01.01-.01.02-.01.01-.01.01-.01.01-.01.02-.01.01-.02.01-.01.01-.01.01h-.02l-.01.01-.02.01h-.01l-.02.01h-.02l-.01.01h-.04l-.01.01h-.02zm-.35-.35h.05V1.51l.01.01v.02l.01.01v.02l.01.01v.01l.01.01.01.02.01.01.01.01.01.01.01.01.01.01.01.01.01.01.01.01.01.01h.01l.02.01h.01l.01.01h.02l.01.01h.03l.02.01h.03v.05h-.02l-.02-.01h-.03l-.02-.01H5.7l-.01-.01h-.02l-.01-.01-.02-.01h-.01l-.02-.01-.01-.01-.01-.01-.02-.01-.01-.02-.01-.01-.01-.01-.01-.01-.01-.02-.01-.01-.01-.02V1.6l-.01-.02-.01-.01v-.02l-.01-.01v-.02l-.01-.02v-.05zm.35-.35v.05h-.05l-.01.01h-.03l-.02.01h-.01l-.01.01-.02.01h-.01l-.01.01-.01.01-.01.01-.01.01-.01.01-.01.01-.01.01-.01.01-.01.01-.01.01-.01.02v.01l-.01.01v.02l-.01.01v.01l-.01.02v.06h-.05V1.4l.01-.02v-.02l.01-.01v-.02l.01-.02.01-.01v-.02l.01-.01.01-.01.01-.02.01-.01.01-.01.01-.02.01-.01.02-.01.01-.01.01-.01.02-.01h.01l.02-.01.01-.01.02-.01h.01l.02-.01h.05l.02-.01h.02zm-.75.35h-.04v-.03l-.01-.02v-.03L5 1.36v-.01l-.01-.02v-.01l-.01-.01-.01-.02v-.01l-.01-.01-.01-.01-.01-.01-.01-.01-.01-.01-.01-.01-.01-.01-.01-.01-.02-.01h-.01l-.01-.01-.02-.01h-.01l-.01-.01h-.03l-.02-.01h-.04V1.1h.02l.01.01h.05l.02.01h.02l.01.01.02.01.01.01h.02l.01.01.02.01.01.01.01.01.01.01.01.02.02.01.01.01.01.02v.01l.01.01.01.02.01.01v.02l.01.02v.01l.01.02v.07zm-.34.35v-.05h.03l.01-.01h.03l.02-.01h.01l.01-.01h.02l.01-.01h.01l.02-.01.01-.01.01-.01.01-.01.01-.01.01-.01.01-.01.01-.01.01-.01V1.6l.01-.01.01-.01v-.01L5 1.55v-.01l.01-.02V1.5l.01-.02v-.03h.04v.07l-.01.02v.01l-.01.02v.01l-.01.02-.01.01-.01.02v.01L5 1.66l-.01.01-.02.01-.01.01-.01.02-.01.01-.01.01-.02.01-.01.01h-.02l-.01.01-.02.01h-.01l-.02.01H4.8l-.01.01h-.04l-.01.01h-.02zm-.35-.35h.05v.05l.01.01v.03l.01.01v.02l.01.01.01.01v.01l.01.02.01.01.01.01.01.01.01.01.01.01.01.01.01.01.01.01.01.01h.02l.01.01h.01l.02.01h.01l.01.01h.03l.02.01h.03v.05H4.7l-.02-.01h-.03l-.02-.01h-.01l-.02-.01h-.02l-.01-.01-.02-.01h-.01l-.02-.01-.01-.01-.01-.01-.01-.01-.02-.02-.01-.01-.01-.01-.01-.01-.01-.02-.01-.01-.01-.02V1.6l-.01-.02-.01-.01v-.02l-.01-.01V1.5l-.01-.02v-.03zm.35-.35v.05h-.05l-.01.01h-.03l-.01.01H4.6l-.01.01-.01.01h-.02l-.01.01-.01.01-.01.01-.01.01-.01.01-.01.01-.01.01-.01.01-.01.01-.01.01v.02l-.01.01-.01.01v.02l-.01.01v.03l-.01.01v.05h-.05v-.04l.01-.01v-.04l.01-.01v-.02l.01-.02.01-.01v-.02l.01-.01.01-.01.01-.02.01-.01.01-.01.01-.02.02-.01.01-.01.01-.01.01-.01.02-.01h.01l.02-.01.01-.01.02-.01h.02l.01-.01h.05l.02-.01h.02z" class="fil1"/><path d="M3.57.23h.07c.07 0 .12.05.12.11V1.4c0 .06-.05.11-.12.11h-.07c-.06 0-.11-.05-.11-.11V.34c0-.06.05-.11.11-.11z" class="fil0"/><path id="1" d="M3.64.25h-.07V.2h.07v.05zm.14.09h-.05V.3h-.01V.29L3.71.28 3.7.27 3.69.26h-.01L3.67.25h-.03V.2h.03l.01.01h.02v.01h.01l.01.01h.01l.01.01.01.01v.01h.01v.01l.01.01V.3l.01.01v.03zM3.73 1.4V.34h.05V1.4h-.05zm-.09.14v-.05h.03l.01-.01h.01v-.01h.01l.01-.01.01-.01v-.01l.01-.01V1.4h.05v.03l-.01.01v.02l-.01.01v.01h-.01v.01h-.01v.01l-.01.01h-.01l-.01.01H3.7v.01h-.02l-.01.01h-.03zm-.07-.05h.07v.05h-.07v-.05zm-.14-.09h.05v.03h.01v.02h.01v.01h.01v.01h.01v.01h.02v.01h.03v.05h-.03v-.01h-.02l-.01-.01H3.5l-.01-.01h-.01V1.5h-.01v-.01h-.01v-.01l-.01-.01v-.01l-.01-.01v-.02l-.01-.01V1.4zM3.48.34V1.4h-.05V.34h.05zM3.57.2v.05h-.03v.01h-.02v.01h-.01v.01H3.5v.01h-.01v.02h-.01v.03h-.05V.32l.01-.01V.29l.01-.01V.27l.01-.01V.25h.01V.24h.01V.23h.01L3.5.22h.01V.21h.03V.2h.03z" class="fil1"/><path d="M4.68.23h.07c.06 0 .11.05.11.11V1.4c0 .06-.05.11-.11.11h-.07c-.06 0-.12-.05-.12-.11V.34c0-.06.05-.11.12-.11z" class="fil0"/><path id="1" d="M4.75.25h-.07V.2h.07v.05zm.14.09h-.05V.31L4.83.3V.29h-.01V.28h-.01V.27H4.8V.26h-.02V.25h-.03V.2h.03v.01h.02l.01.01h.01l.01.01h.01v.01h.01v.01h.01v.01l.01.01v.01l.01.01v.02h.01v.03zM4.84 1.4V.34h.05V1.4h-.05zm-.09.14v-.05h.03v-.01h.02v-.01h.01v-.01h.01v-.01h.01v-.02h.01V1.4h.05v.03h-.01v.02l-.01.01v.01l-.01.01v.01h-.01v.01h-.01v.01h-.01l-.01.01h-.01l-.01.01h-.02v.01h-.03zm-.07-.05h.07v.05h-.07v-.05zm-.14-.09h.05v.03l.01.01v.01h.01v.01l.01.01h.01v.01h.01l.01.01h.03v.05h-.03l-.01-.01h-.02v-.01h-.01l-.01-.01h-.01V1.5h-.01v-.01h-.01v-.01h-.01v-.01l-.01-.01v-.02l-.01-.01V1.4zM4.59.34V1.4h-.05V.34h.05zM4.68.2v.05h-.03l-.01.01h-.01l-.01.01-.01.01v.01H4.6V.3h-.01v.04h-.05V.31L4.55.3V.28l.01-.01V.26h.01V.25h.01V.24l.01-.01h.01V.22h.02V.21h.02L4.65.2h.03z" class="fil1"/><path d="M5.78.23h.07c.06 0 .11.05.11.11V1.4c0 .06-.05.11-.11.11h-.07c-.07 0-.12-.05-.12-.11V.34c0-.06.05-.11.12-.11z" class="fil0"/><path id="1" d="M5.85.25h-.07V.2h.07v.05zm.14.09h-.05V.31h-.01V.29h-.01V.28h-.01V.27H5.9V.26h-.02V.25h-.03V.2h.03v.01h.02l.01.01h.02v.01h.01v.01h.01v.01h.01v.01l.01.01v.01l.01.01v.02l.01.01v.02zM5.94 1.4V.34h.05V1.4h-.05zm-.09.14v-.05h.03v-.01h.02v-.01h.01v-.01h.01v-.01h.01v-.02h.01V1.4h.05v.02l-.01.01v.02l-.01.01v.01l-.01.01v.01h-.01v.01h-.01v.01h-.01l-.01.01h-.01l-.01.01h-.02v.01h-.03zm-.07-.05h.07v.05h-.07v-.05zm-.14-.09h.05v.03l.01.01v.01l.01.01.01.01h.01v.01h.01l.01.01h.03v.05h-.03l-.01-.01h-.02v-.01h-.01l-.01-.01h-.01l-.01-.01v-.01h-.01v-.01h-.01v-.01l-.01-.01v-.02l-.01-.01V1.4zM5.69.34V1.4h-.05V.34h.05zM5.78.2v.05h-.03l-.01.01h-.01l-.01.01-.01.01-.01.01V.3h-.01v.04h-.05V.31L5.65.3V.28l.01-.01V.26h.01V.25h.01V.24l.01-.01h.01V.22h.02V.21h.02L5.75.2h.03z" class="fil1"/><path d="M6.82.23h.07c.07 0 .12.05.12.11V1.4c0 .06-.06.11-.12.11h-.07c-.06 0-.11-.05-.11-.11V.34c0-.06.05-.11.11-.11z" class="fil0"/><path id="1" d="M6.89.25h-.07V.2h.07v.05zm.14.09h-.05V.3h-.01V.29h-.01V.28L6.95.27 6.94.26h-.01L6.92.25h-.03V.2h.03l.01.01h.02v.01h.02v.01h.01v.01h.01v.01H7v.01h.01v.01l.01.01V.3l.01.01v.03zM6.98 1.4V.34h.05V1.4h-.05zm-.09.14v-.05h.03l.01-.01h.01v-.01h.01l.01-.01v-.01h.01v-.01l.01-.01V1.4h.05v.03l-.01.01v.02l-.01.01v.01H7v.01h-.01v.01h-.01v.01h-.01l-.01.01h-.01v.01h-.02l-.01.01h-.03zm-.07-.05h.07v.05h-.07v-.05zm-.14-.09h.05v.03h.01v.02h.01v.01h.01v.01h.01v.01h.02v.01h.03v.05h-.03v-.01h-.02l-.01-.01h-.01l-.01-.01h-.01V1.5h-.01v-.01h-.01v-.01l-.01-.01v-.01l-.01-.01v-.02h-.01V1.4zM6.73.34V1.4h-.05V.34h.05zM6.82.2v.05h-.03v.01h-.02v.01h-.01v.01h-.01v.01h-.01V.3l-.01.01v.03h-.05V.31h.01V.29L6.7.28V.27l.01-.01V.25h.01V.24h.01V.23h.01V.22h.02l.01-.01h.02V.2h.03z" class="fil1"/><path d="M.85.72h.03C.93.72.97.67.97.62v-.5C.97.07.93.02.88.02H.85c-.05 0-.1.05-.1.1v.5c0 .05.05.1.1.1z" class="fil3"/><path id="1" d="M.88.74H.85V.69h.03v.05zM.95.62H1v.01H.99v.04H.98v.02H.97V.7H.96v.01H.95v.01H.94L.93.73H.91v.01H.88V.69h.03V.68h.01V.67h.01V.66h.01V.64h.01V.62zM1 .12v.5H.95v-.5H1zM.88.05V0h.03v.01h.02l.01.01h.01v.01h.01v.01h.01v.01h.01v.02h.01v.04H1v.01H.95V.1H.94V.08H.93V.07H.92V.06H.91V.05H.88zM.85 0h.03v.05H.85V0zM.78.12H.73V.09L.74.08V.06h.01V.05L.76.04V.03h.01L.78.02h.01V.01h.02L.82 0h.03v.05H.82L.81.06H.8v.01H.79v.01L.78.09v.03zm-.05.5v-.5h.05v.5H.73zm.12.07v.05H.82L.81.73H.79V.72H.78L.77.71H.76V.7L.75.69V.68H.74V.66L.73.65V.62h.05v.03l.01.01v.01H.8v.01h.01l.01.01h.03z" class="fil1"/><path fill="#2b2a29" d="M.86 9.54c.04 0 .08-.03.08-.07v-.43c0-.04-.04-.07-.08-.07s-.07.03-.07.07v.43c0 .04.03.07.07.07z"/><path id="1" d="M.86 9.56v-.05.05zm.05-.09h.05v.02l-.01.01v.02H.94v.01H.93v.01H.92v.01H.9v.01H.86v-.05h.03V9.5H.9v-.01h.01v-.02zm.05-.43v.43H.91v-.43h.05zm-.1-.05v-.05h.02v.01h.03v.01h.01v.01h.01l.01.01v.01h.01v.02h.01v.03H.91v-.02L.9 9.01V9H.88v-.01H.86zm0-.05v.05-.05zm-.05.1H.77V9h.01v-.02h.01v-.01H.8v-.01h.01l.01-.01h.02l.01-.01h.01v.05H.84V9H.83v.01H.82v.02H.81v.01zm-.04.43v-.43h.04v.43H.77zm.09.04v.05H.83l-.01-.01H.81L.8 9.54l-.01-.01-.01-.01v-.01L.77 9.5v-.03h.04v.01h.01v.02h.01l.01.01h.02z" class="fil1"/><path d="M.13 6.05c.05 0 .1-.05.1-.1V2.17c0-.18.23-.23.32-.37.05-.07.01-.31 0-.3-.26.11-.53.32-.53.67v3.78c0 .05.05.1.11.1z" class="fil3"/><path id="1" d="M.13 6.05v-.02.02zm.08-.1h.04v.04H.24v.02H.23v.01l-.01.01v.01H.21v.01H.2l-.01.01H.18l-.01.01H.13v-.04h.01v-.01h.03v-.01h.01V6h.01v-.01l.01-.01v-.03h.01zm.04-3.78v3.78H.21V2.17h.04zm.28-.38l.04.03-.01.01-.01.01-.01.02-.01.01-.02.01-.01.01-.01.01-.02.01-.01.01-.01.01-.02.01-.01.01-.01.01-.02.01-.01.01-.01.01L.36 2l-.02.01-.01.01-.01.01-.01.01-.01.01-.01.01v.01l-.01.01-.01.01v.02l-.01.01v.01l-.01.01v.03H.21v-.05l.01-.02v-.01l.01-.02.01-.01.01-.02.01-.01.01-.01.01-.01L.29 2l.01-.02.01-.01.02-.01.01-.01.01-.01.02-.01.01-.01.01-.01.02-.01h.01l.01-.01.02-.01.01-.01.01-.01.01-.01.01-.01.01-.02.01-.01.01-.01.01-.01zm.03-.27l-.02-.04h.02l.01.01.01.01v.02l.01.01v.07l.01.01v.12l-.01.01v.04l-.01.01v.02l-.01.01-.04-.03.01-.01v-.03l.01-.01V1.59l-.01-.01v-.05l-.01-.01h.03zm-.51.65H0V2.1l.01-.03v-.03l.01-.03.01-.03.01-.03.01-.03.01-.02.01-.03.02-.03.01-.02.02-.03.01-.02.02-.02.02-.02.02-.02.02-.02.02-.02.02-.02.02-.02.03-.02.02-.01.02-.02.03-.01.02-.02.02-.01.03-.02.02-.01.03-.01.02-.01.03-.01.02.04-.03.01-.02.01-.03.01-.02.02-.02.01-.03.01-.02.02-.02.01-.02.01-.02.02-.03.02-.02.01-.02.02-.02.02-.02.02-.01.02-.02.02-.02.02-.01.02-.02.02-.01.03-.02.02-.01.03-.01.02-.01.03-.01.02v.03l-.01.03-.01.03v.09zM0 5.95V2.17h.05v3.78H0zm.13.08v.04H.08v-.01H.06v-.01H.05l-.01-.01-.01-.01v-.01H.02v-.01L.01 6v-.01L0 5.98v-.03h.05v.03h.01v.01L.07 6v.01h.01l.01.01h.02v.01h.02z" class="fil1"/><g><path d="M1.31 4.01V1.38c0-.25-.2-.45-.45-.45-.24 0-.44.2-.44.45v2.63h.89z" class="fil3"/><path id="1" d="M1.33 1.38v2.63h-.05V1.38h.05zM.86.96V.91h.05l.02.01h.03l.02.01H1l.02.01.02.01.03.01.02.01.01.01.02.01.02.01.02.02.02.01.01.02.02.01.01.02.02.02.01.02.01.02.01.02.01.02.01.02.01.02.01.02.01.02v.02l.01.03v.07h-.05v-.07l-.01-.02v-.02l-.01-.02v-.02l-.01-.01-.01-.02-.01-.02-.01-.02-.01-.02-.01-.01-.01-.02-.02-.01-.01-.02-.01-.01-.02-.02-.02-.01-.01-.01-.02-.01-.02-.01L1.04 1 1.03.99 1.01.98H.99L.97.97H.95L.93.96H.86zm0-.03v.03-.03zm-.42.45H.39l.01-.03v-.07l.01-.02.01-.02v-.02l.01-.02.01-.02.01-.02.01-.02.01-.02.02-.02.01-.02.02-.02.01-.01.02-.02.02-.01L.58 1 .6.99.62.98.64.97.66.96.68.95.7.94.72.93h.03L.77.92h.02L.82.91h.04v.05H.8L.78.97H.76L.74.98H.72L.7.99.68 1l-.02.01-.01.01-.02.01-.02.01-.01.01-.02.02-.01.01-.02.02-.01.01-.01.02-.02.01-.01.02-.01.02-.01.02v.02l-.01.01-.01.02v.02l-.01.02v.02l-.01.03v.04zM.39 4.01V1.38h.05v2.63l-.02.02-.03-.02zm.03.02H.39v-.02l.03.02zm.89 0H.42v-.04h.89l.02.02-.02.02zm.02-.02v.02h-.02l.02-.02z" class="fil1"/></g><g><path fill="#f9d5d7" d="M.86 9.19c.18 0 .33-.93.33-1.13V4.03H.54v4.03c0 .2.14 1.13.32 1.13z"/><path id="1" d="M.86 9.22v-.05.05zm.31-1.16h.04v.11l-.01.04v.03l-.01.04v.05l-.01.04-.01.05-.01.04v.05l-.01.05-.01.05-.01.05-.01.05-.02.05-.01.04-.01.05-.01.04-.02.05-.01.04-.01.04-.02.03-.01.04-.02.03-.02.02-.01.03-.02.02-.02.01-.02.01-.03.01v-.05h.01l.01-.01.02-.01.01-.01.01-.02.02-.03.01-.02.02-.04L.98 9 1 8.96l.01-.04.01-.04.01-.04.02-.05.01-.05.01-.04.01-.05.01-.05.01-.05.01-.05.01-.04.01-.05v-.05l.01-.04.01-.04V8.2l.01-.03v-.09l.01-.02zm.04-4.03v4.03h-.04V4.03L1.19 4l.02.03zM1.19 4h.02v.03L1.19 4zM.54 4h.65v.05H.54l-.03-.02L.54 4zm-.03.03V4h.03l-.03.03zm0 4.03V4.03h.05v4.03H.51zm.35 1.11v.05l-.02-.01-.02-.01-.02-.01-.02-.02-.02-.03-.01-.02-.02-.03-.02-.04-.01-.03-.01-.04-.02-.04-.01-.05-.02-.04-.01-.05-.01-.04-.01-.05-.01-.05-.01-.05-.01-.05-.01-.05-.01-.05-.01-.04v-.05l-.01-.04-.01-.05v-.04l-.01-.03v-.07l-.01-.03v-.05h.05v.07l.01.04v.07l.01.04.01.04v.04l.01.05.01.05.01.04v.05l.01.05.01.05.02.05.01.04.01.05.01.05.01.04.02.04.01.04.01.04.02.03.01.04.02.02.01.03.02.02.01.01.01.01.01.01h.01z" class="fil1"/></g><g><path d="M3.22 2.9c-.02 0-.04-.01-.04-.04 0-.02.02-.04.04-.04v.08zm3.27 0H3.22v-.08h3.27v.08zm0-.08c.03 0 .05.02.05.04 0 .03-.02.04-.05.04v-.08z" class="fil1"/></g><g><path d="M3.27 3.35c-.02 0-.04-.02-.04-.04s.02-.04.04-.04v.08zm3.27 0H3.27v-.08h3.27v.08zm0-.08c.02 0 .04.02.04.04s-.02.04-.04.04v-.08z" class="fil1"/></g><g><path d="M3.36 3.78c-.02 0-.04-.02-.04-.04 0-.03.02-.05.04-.05v.09zm3.27 0H3.36v-.09h3.27v.09zm0-.09c.02 0 .04.02.04.05 0 .02-.02.04-.04.04v-.09z" class="fil1"/></g><g><path d="M3.58 7.18c-.02 0-.04-.02-.04-.04s.02-.04.04-.04v.08zm3.27 0H3.58V7.1h3.27v.08zm0-.08c.03 0 .04.02.04.04s-.01.04-.04.04V7.1z" class="fil1"/></g><g><path d="M3.36 7.81c-.02 0-.04-.02-.04-.04 0-.03.02-.04.04-.04v.08zm3.27 0H3.36v-.08h3.27v.08zm0-.08c.02 0 .04.01.04.04 0 .02-.02.04-.04.04v-.08z" class="fil1"/></g><g><path d="M3.14 8.3c-.03 0-.05-.02-.05-.04s.02-.04.05-.04v.08zm3.26 0H3.14v-.08H6.4v.08zm0-.08c.03 0 .05.02.05.04s-.02.04-.05.04v-.08z" class="fil1"/></g><g><path d="M12.57 2.3L16.95.26l-1.24 8.76-3.14-6.72zm1.28.55l1.4 3 .56-3.92-1.96.92z" class="fil6"/><path d="M12.44 2.24L16.82.19l-1.25 8.77-3.13-6.72zm1.28.54l1.4 3.01.56-3.92-1.96.91z" class="fil0"/><path d="M13.16 2.03l.03.08-.67.31-.03-.07zM13.82 3.46l.03.07-.66.31-.04-.07zM14.48 4.88l.04.07-.67.32-.03-.08zM15.15 6.31l.03.07-.67.31-.03-.07zM15.72 7.77l.03.07-.57.27-.03-.07zM13.05 2.43l.04.07-.44.2-.03-.07zM13.19 2.71l.03.08-.43.2-.04-.07zM13.32 3l.03.07-.43.2-.03-.07zM13.45 3.28l.04.07-.44.21-.03-.07zM13.72 3.85l.03.07-.43.21-.04-.08zM13.85 4.14l.04.07-.44.2-.03-.07zM13.99 4.42l.03.07-.44.21-.03-.08zM14.12 4.71l.03.07-.43.2-.04-.07zM14.38 5.28l.04.07-.44.2-.03-.07zM14.52 5.56l.03.07-.43.21-.04-.08zM14.65 5.84l.03.08-.43.2-.03-.07zM14.78 6.13l.04.07-.44.2-.03-.07zM15.05 6.7l.03.07-.43.2-.04-.07zM15.18 6.98l.04.08-.44.2-.03-.07zM15.31 7.27l.04.07-.44.2-.03-.07zM15.45 7.55l.03.08-.43.2-.04-.07zM15.67 8.14l.03.08-.39.18-.03-.07zM15.62 8.51l.03.08-.2.09-.04-.07zM15.56 8.89l.04.07-.02.01-.04-.08z" class="fil7"/><path d="M12.54 5.66c.6 1.26.08 2.76-1.16 3.39L9.17 4.44c1.27-.58 2.76-.04 3.37 1.22zm-.93 2.14c.5-.25.62-1.06.26-1.82-.37-.75-1.07-1.17-1.59-.94l1.33 2.76z" class="fil0"/><path d="M12.65 5.71l.01.01-.01-.02v.01zm.03.06c.08.17.13.34.17.52l-.41.07.02.11.41-.07c.03.18.04.36.03.54l-.42-.03-.01.11.42.03c-.01.18-.05.36-.11.54l-.4-.14-.04.1.41.14c-.06.18-.15.34-.24.5l-.37-.25-.06.09.36.25c-.1.15-.22.29-.36.41l-.29-.34-.09.07.3.35c-.15.12-.32.24-.5.33L9.29 4.49c.83-.38 1.77-.28 2.48.2l-.24.35.09.07.24-.35c.15.1.29.23.41.36l-.32.28.07.08.32-.27c.11.14.21.29.29.46l-.37.18.04.1.38-.18zm.18.57c0 .01.01.03.01.04l-.01-.04zm.04.65v.02-.02zm-.86 1.74c-.01.01-.03.02-.04.04l.04-.04zm-.31-.88c.5-.25.61-1.06.25-1.82-.36-.75-1.06-1.17-1.58-.94l1.33 2.76z" class="fil6"/><path d="M12.68 5.77l-.38.18-.04-.1.37-.18.05.1zm-.68 3l-.3-.35.09-.07.29.35-.08.07zm.44-.49l-.36-.25.06-.09.37.25-.07.09zm.31-.59l-.41-.14.04-.1.41.14-.04.1zm.14-.64l-.42-.03.01-.11.42.03-.01.11zm-.02-.65l-.41.07-.02-.11.41-.07.02.11zM10.07 4.73l-.11.02-.08-.45.11-.02zM10.61 4.71h-.11l.04-.44h.11zM11.15 4.84l-.11-.03.14-.41.11.04zM11.86 4.75l-.24.36-.09-.07.24-.35zM12.34 5.21l-.32.27-.07-.08.32-.28z" class="fil8"/></g></g></g></svg>