<svg xmlns="http://www.w3.org/2000/svg" width="68" height="63" fill-rule="evenodd" clip-rule="evenodd" image-rendering="optimizeQuality" shape-rendering="geometricPrecision" text-rendering="geometricPrecision" viewBox="0 0 5.09 4.71"><path fill="#BDD180" d="M.01 2.8h.02c.01 0 .01.01.01.01v.03H0v-.03s0-.01.01-.01zm.1 0h.03v.04H.11.1v-.03l.01-.01zm0-.1h.03v.04H.11s-.01 0-.01-.01v-.02c0-.01.01-.01.01-.01zm-.01.08v-.02c0-.01.01-.01.01-.01h.03v.04H.11s-.01 0-.01-.01zm-.1 0v-.02c0-.01 0-.01.01-.01h.02c.01 0 .01 0 .01.01v.02c0 .01 0 .01-.01.01H.01c-.01 0-.01 0-.01-.01zm.01-.08h.02c.01 0 .01 0 .01.01v.02c0 .01 0 .01-.01.01H.01c-.01 0-.01 0-.01-.01v-.02c0-.01 0-.01.01-.01zm.05.1h.02c.01 0 .01.01.01.01v.03H.05v-.03s0-.01.01-.01zm0-.1h.02c.01 0 .01 0 .01.01v.02c0 .01 0 .01-.01.01H.06c-.01 0-.01 0-.01-.01v-.02c0-.01 0-.01.01-.01zm0 .05h.02c.01 0 .01 0 .01.01v.02c0 .01 0 .01-.01.01H.06c-.01 0-.01 0-.01-.01v-.02c0-.01 0-.01.01-.01zM.3 2.8h.02c.01 0 .01.01.01.01v.03H.29v-.03s0-.01.01-.01zm.13-.1v.04H.35c-.01 0-.01 0-.01-.01v-.02c0-.01 0-.01.01-.01h.08zm0 .05v.04H.35c-.01 0-.01 0-.01-.01v-.02c0-.01 0-.01.01-.01h.08zm0 .05v.04H.34v-.03s0-.01.01-.01h.08zm-.14-.02v-.02c0-.01 0-.01.01-.01h.02c.01 0 .01 0 .01.01v.02c0 .01 0 .01-.01.01H.3c-.01 0-.01 0-.01-.01zM.3 2.7h.02c.01 0 .01 0 .01.01v.02c0 .01 0 .01-.01.01H.3c-.01 0-.01 0-.01-.01v-.02c0-.01 0-.01.01-.01zM.58 2.72h.14v.01H.58v-.01zm0-.02h.14v.01H.58V2.7zm0 .04h.14v.02H.58v-.01-.01zm0 .03h.14v.01H.58v-.01zm0 .02h.14v.01H.58v-.01zm0 .02h.14v.01H.58v-.01zm0 .02h.14v.01H.58v-.01z"/><path fill="#99CFBA" d="M4.43.39H2.38c-.2 0-.41.17-.36.36l.3 1.05c.19.67-1.18.62-1.84 1.23-.46.42.01.94.2.94h4.03c.55 0 .37-1.26.15-1.55-.45-1.12-.08-1.2-.07-1.67 0-.2-.16-.36-.36-.36zM2.64 1.63c-.09 0-.17.08-.17.17 0 .1.08.18.17.18.1 0 .17-.08.17-.18 0-.09-.07-.17-.17-.17zm-.11-.62c-.1 0-.17.08-.17.18 0 .09.07.17.17.17.09 0 .17-.08.17-.17 0-.1-.08-.18-.17-.18z"/><path fill="#2B2A29" fill-rule="nonzero" d="M2.38.4V.38h2.05V.4H2.38zm-.37.35L2 .73V.64l.01-.02V.61l.01-.02.01-.02.01-.01.01-.02.01-.01.01-.02.01-.01.02-.01.01-.02.01-.01.02-.01.02-.01.01-.01.02-.01.02-.01h.02L2.24.4l.02-.01h.02L2.3.38h.08V.4h-.04l-.02.01h-.03l-.02.01h-.02l-.02.01-.01.01H2.2l-.01.01-.02.01-.02.01-.01.01-.01.01-.02.02-.01.01-.01.01-.01.01-.01.02-.01.01-.01.02-.01.01v.01l-.01.02v.02l-.01.01v.05l.01.02v.01l-.02.01zm.32 1.05l-.02.01-.3-1.06.02-.01.3 1.06zM.47 3.02l.06-.06.07-.05.07-.05.08-.04.07-.05.08-.04.08-.03.09-.04.08-.03.08-.03.08-.04.09-.02.08-.03.08-.03.08-.03.07-.03.08-.02.07-.03.06-.03.07-.03.06-.03.05-.03.05-.04.04-.03.04-.04.03-.04.03-.04.02-.04.01-.05v-.1l-.01-.06.02-.01.01.06.01.06-.01.05-.01.06-.02.04-.02.05-.04.04-.04.04-.04.04-.06.03-.05.03-.06.03-.07.03-.06.03-.08.03-.07.03-.08.03-.07.02-.08.03-.09.03-.08.03-.08.03-.08.03-.09.03-.08.04-.08.04-.07.04-.08.04-.07.04-.07.05-.07.05-.06.06-.02-.02zm.21.97H.66l-.02-.01-.02-.01-.03-.01-.02-.01-.02-.02-.03-.01L.5 3.9l-.03-.03-.02-.02-.03-.03-.02-.03-.02-.03-.02-.03-.02-.03-.02-.04-.01-.03-.02-.04-.01-.04v-.04l-.01-.04v-.12l.01-.04.02-.04.01-.05.02-.04.03-.04.03-.04.04-.04.04-.04.02.02-.04.03-.04.04-.03.04-.02.04-.02.04-.02.04-.01.04-.01.04-.01.04v.04l.01.04v.04l.01.04.01.03.01.04.02.03.01.04.02.03.02.03.02.03.02.03.03.02.02.02.02.03.03.02.02.01.02.02.03.01.02.01.02.01h.03v.03zm4.03-.03v.03H.68v-.03h4.03zm.16-1.55l.02.03.02.04.02.04.02.04.02.05.02.05.02.06.01.06.02.06.01.06.01.07.01.07.01.06v.07l.01.07v.13l-.01.06v.07l-.01.06-.01.06-.01.05-.02.06-.02.05-.02.04-.03.04-.03.04-.04.03-.04.02-.04.02-.05.01-.05.01v-.03h.05l.04-.01.04-.02.04-.02.03-.03.03-.03.02-.04.03-.04.02-.05.01-.05.02-.06.01-.05V3.5l.01-.07v-.26l-.01-.07-.01-.06-.01-.07-.01-.06-.01-.06L5 2.79l-.02-.06-.01-.06-.02-.05-.02-.05-.02-.04-.02-.04-.02-.04-.02-.02v-.01l.02-.01zm-.02.02v-.01.01zM4.8.75v.08l-.01.04-.01.04v.04l-.01.04-.01.03-.01.04-.01.03-.01.03-.02.04-.01.03-.01.04-.01.04v.04l-.01.04-.01.04v.04l-.01.05v.1l.01.05v.06l.01.06.02.07.01.07.02.07.02.08.03.09.03.09.04.09.03.1-.02.01-.04-.1-.03-.09-.03-.09-.03-.09-.02-.08-.02-.08-.02-.07-.01-.06-.01-.07-.01-.06v-.2l.01-.05v-.04l.01-.04.01-.04.01-.04.01-.03.01-.04.01-.03.01-.04.01-.03.01-.04.01-.03.01-.04.01-.03.01-.04V.79l.01-.04h.02zM4.43.38h.08l.01.01h.02l.02.01.02.01h.01l.02.01.01.01.02.01.01.01.02.01.01.01.01.01.02.02.01.01.01.02.01.01.01.01.01.02.01.02V.6l.01.02.01.02v.03l.01.02v.06h-.02V.73L4.77.71V.66L4.76.64V.63L4.75.61 4.74.6V.58L4.73.57 4.72.55 4.71.54 4.7.53 4.69.51 4.68.5 4.66.49 4.65.48 4.64.47 4.62.46 4.61.45 4.6.44h-.02L4.57.43 4.55.42h-.02L4.52.41h-.04L4.47.4h-.04V.38zM2.46 1.8v-.03l.01-.01v-.02l.01-.01v-.01l.01-.01V1.7l.01-.01.01-.01v-.01h.01l.01-.01.01-.01h.01l.01-.01.01-.01h.02l.01-.01h.04v.02l-.01.01h-.04l-.01.01h-.01l-.01.01-.01.01h-.01v.01h-.01v.01h-.01v.01h-.01v.02H2.5v.02l-.01.01v.04h-.03zm.18.19h-.03l-.01-.01h-.03l-.01-.01-.01-.01h-.01l-.01-.01-.01-.01h-.01v-.01l-.01-.01-.01-.01V1.9l-.01-.01v-.01l-.01-.01v-.02l-.01-.01V1.8h.03v.05l.01.01v.01l.01.01v.01l.01.01v.01h.01v.01h.01v.01h.01l.01.01.01.01h.02l.01.01h.04v.03zm.19-.19v.02l-.01.01v.04l-.01.01-.01.01v.02l-.01.01h-.01v.01l-.01.01-.01.01h-.01v.01h-.01l-.01.01h-.01l-.01.01h-.02l-.01.01h-.04v-.03h.05l.01-.01h.02l.01-.01.01-.01.01-.01h.01v-.01h.01v-.02h.01v-.01l.01-.01v-.02l.01-.01V1.8h.03zm-.19-.18h.05l.01.01h.01l.01.01h.01l.01.01h.01v.01h.01l.01.01.01.01v.01h.01l.01.01v.02h.01v.01l.01.01v.04l.01.01v.01H2.8v-.04h-.01v-.03h-.01v-.01l-.01-.01V1.7h-.01v-.01h-.01l-.01-.01-.01-.01-.01-.01H2.7v-.01h-.04l-.01-.01h-.01v-.02zm-.3-.43v-.03l.01-.01v-.03h.01V1.1l.01-.01v-.01h.01v-.01l.01-.01h.01v-.01l.01-.01h.01v-.01h.01l.01-.01h.01l.01-.01h.03L2.5 1h.03v.03h-.05l-.01.01h-.01l-.01.01h-.01l-.01.01-.01.01h-.01v.01l-.01.01-.01.01v.01l-.01.01v.02l-.01.01v.04h-.03zm.19.18h-.05l-.01-.01h-.02v-.01h-.02l-.01-.01-.01-.01-.01-.01-.01-.01h-.01V1.3l-.01-.01v-.01h-.01v-.02l-.01-.01v-.03h-.01v-.03h.03v.04h.01v.03h.01v.02h.01v.01l.01.01.01.01h.01v.01h.01l.01.01h.01l.01.01h.02l.01.01h.03v.02zm.18-.18v.03H2.7v.03l-.01.01v.02h-.01v.01l-.01.01v.01h-.01l-.01.01-.01.01-.01.01-.01.01H2.6v.01h-.02l-.01.01h-.04v-.02h.02l.01-.01h.02l.01-.01h.01l.01-.01h.01l.01-.01.01-.01.01-.01v-.01h.01v-.02h.01v-.02l.01-.01v-.04h.03zM2.53 1h.02l.01.01h.03l.01.01h.01l.01.01h.01v.01h.01l.01.01v.01h.01l.01.01v.01h.01v.01l.01.01v.02h.01v.03l.01.01v.03h-.03v-.05l-.01-.01v-.01l-.01-.01V1.1l-.01-.01-.01-.01v-.01h-.01v-.01h-.01l-.01-.01H2.6l-.01-.01h-.01l-.01-.01h-.04V1z"/><path fill="#6FA691" d="M1 2.7c-.19.09-.38.19-.52.33-.46.42.01.94.2.94h.72c.01-.06.01-.12.01-.18 0-.44-.16-.83-.41-1.09z"/><path fill="#2B2A29" fill-rule="nonzero" d="M.47 3.02L.48 3l.02-.01.01-.01.02-.01.01-.02.02-.01.01-.01.02-.01.01-.01.02-.01.01-.01.02-.01.02-.01.01-.02.02-.01.01-.01.02-.01.02-.01.02-.01h.01l.02-.01.02-.01.01-.01.02-.01.02-.01.02-.01.01-.01.02-.01h.02l.02-.01.02-.01.01-.01.01.02-.01.01-.02.01-.02.01-.02.01-.01.01H.9l-.02.01-.02.01-.01.01-.02.01-.02.01-.02.01-.01.01-.02.01-.02.01-.01.01-.02.01-.02.01-.01.01-.02.01-.01.01-.02.01-.01.01-.02.01-.01.01-.02.01-.01.01-.02.02L.53 3l-.02.01-.01.01-.01.02-.02-.02zm.21.97H.66l-.02-.01-.02-.01-.03-.01-.02-.01-.02-.02-.03-.01L.5 3.9l-.03-.03-.02-.02-.03-.03-.02-.03-.02-.03-.02-.03-.02-.03-.02-.04-.01-.03-.02-.04-.01-.04v-.04l-.01-.04v-.12l.01-.04.02-.04.01-.05.02-.04.03-.04.03-.04.04-.04.04-.04.02.02-.04.03-.04.04-.03.04-.02.04-.02.04-.02.04-.01.04-.01.04-.01.04v.04l.01.04v.04l.01.04.01.03.01.04.02.03.01.04.02.03.02.03.02.03.02.03.03.02.02.02.02.03.03.02.02.01.02.02.03.01.02.01.02.01h.03v.03zm.72-.03l.01.02-.01.01H.68v-.03h.72zm.01.02v.01H1.4l.01-.01zm.01-.19V3.97l-.01.01-.02-.01V3.91h.01V3.79h.02zm-.43-1.1h.02l.02.03.02.02.03.03.02.03.02.03.02.02.02.03.02.03.02.03.02.04.01.03.02.03.02.03.01.04.02.03.01.04.01.03.02.04.01.03.01.04.01.04.01.03.01.04.01.04v.04l.01.04v.04l.01.04v.16H1.4v-.08l-.01-.04v-.08l-.01-.04v-.04l-.01-.04-.01-.03-.01-.04v-.04l-.01-.03-.02-.04-.01-.04-.01-.03-.01-.04-.02-.03-.01-.03-.02-.04-.01-.03-.02-.03-.01-.03-.02-.03-.02-.03-.02-.03-.02-.03-.02-.03-.02-.03-.02-.02-.02-.03-.03-.02-.02-.03H1l-.01-.02zm0 0h.02-.02z"/><path fill="#6FA691" d="M3.95 3.97h.76c.55 0 .37-1.26.15-1.55-.01-.02-.01-.04-.02-.06-.52.13-.91.7-.91 1.38 0 .08.01.16.02.23z"/><path fill="#2B2A29" fill-rule="nonzero" d="M4.71 3.96v.03h-.76v-.03h.76zm.16-1.55l.02.03.02.04.02.04.02.04.02.05.02.05.02.06.01.06.02.06.01.06.01.07.01.07.01.06v.07l.01.07v.13l-.01.06v.07l-.01.06-.01.06-.01.05-.02.06-.02.05-.02.04-.03.04-.03.04-.04.03-.04.02-.04.02-.05.01-.05.01v-.03h.05l.04-.01.04-.02.04-.02.03-.03.03-.03.02-.04.03-.04.02-.05.01-.05.02-.06.01-.05V3.5l.01-.07v-.26l-.01-.07-.01-.06-.01-.07-.01-.06-.01-.06L5 2.79l-.02-.06-.01-.06-.02-.05-.02-.05-.02-.04-.02-.04-.02-.04-.02-.02v-.01l.02-.01zm-.02.02v-.01.01zm-.01-.08h.01v.01h.01v.03h.01v.02l-.02.01v-.01h-.01v-.03h-.01v-.02l.01.01v-.02zm0 0l.01-.01v.01h-.01zm-.92 1.39v-.12l.01-.07.01-.06.01-.06.01-.06.01-.06.02-.06.02-.05.02-.06.02-.05.02-.06.03-.05.02-.05.03-.05.03-.04.03-.05.03-.04.04-.04.03-.04.04-.04.04-.04.04-.03.04-.04.04-.03.05-.02.04-.03.05-.02.04-.02.05-.02.05-.02.05-.01v.02l-.05.01-.04.02-.05.02-.04.02-.05.02-.04.03-.04.03-.04.02-.04.04-.04.03-.04.04-.04.03-.03.04-.04.04-.03.05-.03.04-.03.05-.03.05-.02.04-.03.06-.02.05-.02.05-.02.06-.02.05-.01.06-.02.06-.01.06-.01.05-.01.07v.06l-.01.06v.06h-.02zm.03.25l-.02-.01V3.9l-.01-.01v-.15h.02v.07l.01.01V3.94h.01v.03l-.01-.01v.03zm0 0h-.01l-.01-.01.02.01z"/><path fill="#6FA691" fill-rule="nonzero" d="M2.05.8C2 .55 1.92.35 1.83.21 1.78.14 1.72.08 1.66.05 1.6.02 1.53 0 1.46.02c-.05.01-.1.03-.15.06L1.3.09v.02c-.07.22.14.36.37.51.11.07.22.14.3.23l.11.11L2.05.8zm-.3-.54c.07.1.13.25.18.42-.07-.05-.14-.1-.21-.14C1.53.41 1.35.3 1.38.15c.03-.02.07-.03.1-.04.04-.01.09 0 .14.02.04.03.09.07.13.13z"/><path fill="#2B2A29" fill-rule="nonzero" d="M1.84.2l.01.02v.01l.01.01.01.02.01.01.01.02.01.01.01.02v.01l.01.02.01.02.01.02V.4l.01.02.01.02.01.02v.02l.01.02.01.02v.02L2 .56l.01.02V.6l.01.02v.02l.01.02.01.03v.02l.01.02v.02l.01.03V.8l-.02.01-.01-.03V.76L2.02.74V.71L2.01.69V.67L2 .65 1.99.63V.61L1.98.58V.56L1.97.54 1.96.52V.5L1.95.49 1.94.47V.45L1.93.43 1.92.41 1.91.4V.38L1.9.36 1.89.35 1.88.33 1.87.31V.3L1.86.28 1.85.27 1.84.26 1.83.24 1.82.23V.22L1.84.2zM1.67.04l.01.01h.01v.01h.02v.01h.01v.01h.01v.01h.01V.1h.01l.01.01.01.01.01.01.01.01.01.01v.01h.01v.01l.01.01.01.01V.2h.01l-.02.02-.01-.01V.2H1.8V.19h-.01V.18L1.78.17 1.77.16 1.76.15 1.75.14V.13h-.01V.12h-.01L1.72.11 1.71.1 1.7.09h-.01V.08h-.01V.07h-.02V.06h-.01l.02-.02zM1.45.01h.01L1.47 0H1.57l.01.01h.03l.01.01h.01l.01.01h.01l.01.01h.01l-.02.02h-.01V.05h-.02L1.61.04h-.02L1.58.03H1.46L1.45.01zm-.14.06h.01V.06h.01V.05h.02V.04h.02V.03h.02V.02h.03V.01h.03l.01.02h-.01l-.01.01h-.03v.01h-.02v.01h-.02v.01h-.02v.01h-.02v.01h-.01L1.31.07zm0 .03L1.29.09V.08l.02-.01.01.02-.01.01zM1.29.09V.08v.01zm.02.02L1.28.1l.01-.01.02.01v.01zm.35.52L1.64.61 1.62.6 1.6.58 1.58.57 1.56.56 1.54.54 1.52.53 1.5.52 1.48.5 1.46.49 1.44.47 1.42.46 1.41.44 1.39.43 1.38.41 1.36.4 1.35.38 1.34.37 1.32.35 1.31.33 1.3.32V.3L1.29.28 1.28.26V.25L1.27.23V.15l.01-.02V.1l.03.01-.01.02v.11l.01.02v.01l.01.02.01.02.01.01.01.02.01.01.01.02.01.01.02.02.01.01.01.02.02.01.02.01.01.02.02.01.02.02.02.01.02.01.02.02.02.01.02.01.02.02.02.01.02.01-.01.03zm.3.22h-.01V.84L1.94.83 1.93.82h-.01L1.91.81V.8L1.9.79h-.01L1.88.78 1.87.77 1.86.76h-.01L1.84.75 1.83.74h-.01L1.81.73 1.8.72 1.79.71h-.01L1.77.7 1.76.69h-.01L1.74.68 1.73.67h-.01L1.71.66 1.7.65h-.01L1.68.64 1.67.63h-.01L1.67.6l.01.01.01.01h.01l.01.01.01.01.02.01h.01l.01.01.01.01h.01l.01.01.01.01h.01l.01.01.01.01.01.01h.01l.01.01.01.01h.01v.01l.01.01.01.01h.01l.01.01.01.01.01.01.01.01h.01v.01l.01.01.01.01-.02.01zm.13.1v.01l-.02.01-.11-.12.02-.01.11.11zm0 .01L2.1 1 2.07.97l.02-.01zM2.04.81L2.06.8l.03.16h-.02L2.04.81zM1.93.67l-.02.02V.65L1.9.64V.62L1.89.61V.59L1.88.58V.56L1.87.55V.53L1.86.52V.5L1.85.49V.48L1.84.46V.45L1.83.44 1.82.42V.41L1.81.4V.39L1.8.37V.36L1.79.35 1.78.34V.33L1.77.32V.31L1.76.3 1.75.29V.28L1.74.27l.02-.01.01.01v.01l.01.01.01.01v.01l.01.01.01.01v.01l.01.01v.01l.01.02.01.01V.4l.01.01v.02l.01.01v.01l.01.02v.01l.01.01.01.02v.01l.01.02v.01l.01.02v.01l.01.02v.01l.01.02v.03l.01.02-.02.01.01-.02zm.01.01l.01.04-.03-.03.02-.01zM1.72.53h.01l.01.01h.01l.01.01.01.01h.01v.01h.02v.01h.01l.01.01.01.01h.01v.01h.01l.01.01h.01l.01.01.01.01h.01v.01h.01l.01.01.01.01-.01.02h-.01V.68H1.9L1.89.67 1.88.66h-.01V.65h-.01L1.85.64h-.01V.63h-.01L1.82.62 1.81.61H1.8V.6h-.02V.59h-.01L1.76.58 1.75.57h-.01L1.73.56h-.01V.55h-.01l.01-.02zM1.39.16V.15.21l.01.02v.01l.01.01v.01l.01.01.01.02V.3l.01.01.01.01.01.01.02.01.01.02.01.01.01.01.02.01.01.01.02.01.01.01.02.02.01.01.02.01.02.01.01.01.02.01.02.01.02.02.01.01-.01.02-.02-.01-.02-.02-.01-.01L1.64.5 1.62.49 1.61.48 1.59.47 1.57.46 1.56.44 1.54.43 1.53.42 1.51.41 1.5.4 1.48.39 1.47.37 1.46.36 1.45.35 1.44.34 1.42.33 1.41.31V.3L1.4.29 1.39.27 1.38.26V.25L1.37.23V.15l.01-.01.01.02zM1.37.15V.14h.01l-.01.01zm.11-.03h-.01v.01h-.03l-.01.01h-.01l-.01.01H1.4l-.01.01-.01-.02V.13h.02V.12h.02V.11h.02L1.45.1h.02l.01.02zm0 0zm.13.02h-.02V.13h-.02L1.56.12h-.08L1.47.1h.01l.01-.01h.05l.01.01h.03l.01.01h.02v.01h.01l-.01.02zm.13.13V.26h-.01V.25h-.01V.24L1.71.23 1.7.22V.21h-.01L1.68.2V.19h-.01L1.66.18 1.65.17h-.01V.16h-.01V.15h-.02V.14l.01-.02h.01v.01h.01l.01.01h.01v.01h.01v.01h.01v.01h.01v.01h.01l.01.01V.2h.01v.01h.01v.01h.01v.01l.01.01.01.01v.01l-.02.01z"/><path fill="#99CFBA" d="M4.83 4.12H.59c-.11 0-.2.09-.2.2v.18c0 .11.09.2.2.2h4.24c.11 0 .2-.09.2-.2v-.18c0-.11-.09-.2-.2-.2z"/><path fill="#2B2A29" fill-rule="nonzero" d="M.59 4.11h4.24v.03H.59v-.03zm-.19.21H.38v-.04l.01-.01v-.02l.01-.01v-.01l.01-.01v-.01l.01-.01.01-.01v-.01l.01-.01h.01l.01-.01.01-.01.01-.01h.01l.01-.01h.01l.01-.01h.03l.01-.01h.03v.03H.54l-.01.01H.51l-.01.01-.01.01H.48l-.01.01v.01H.46l-.01.01-.01.01v.01l-.01.01-.01.01v.02l-.01.01v.04l-.01.01zm-.02.18v-.18H.4v.18H.38zm.21.19v.02H.55L.54 4.7H.52l-.01-.01H.5l-.01-.01H.48l-.01-.01-.01-.01H.45l-.01-.01-.01-.01v-.01H.42v-.01l-.01-.01V4.6L.4 4.59v-.01l-.01-.01v-.02l-.01-.01V4.5H.4l.01.01v.04l.01.01v.02l.01.01v.01h.01v.01l.01.01.01.01.01.01.01.01h.01l.01.01.01.01h.02l.01.01h.04l.01.01zm4.24.02H.59v-.02h4.24v.02zm.18-.21h.03v.03l-.01.01v.03l-.01.01v.01l-.01.01v.01L5 4.62v.01h-.01l-.01.01v.01l-.01.01h-.01l-.01.01h-.01v.01h-.01l-.01.01h-.01l-.01.01h-.02l-.01.01h-.04v-.02l.01-.01h.04l.01-.01h.02l.01-.01.01-.01h.01v-.01h.01l.01-.01v-.01h.01l.01-.01V4.6h.01v-.02L5 4.57v-.02l.01-.01V4.5zm.03-.18v.18h-.03v-.18h.03zm-.21-.18v-.03h.03l.01.01h.03l.01.01h.01l.01.01h.01v.01h.01l.01.01.01.01h.01v.01l.01.01.01.01.01.01v.01l.01.01v.01l.01.01v.03l.01.01v.03h-.03v-.04L5 4.27v-.02l-.01-.01v-.01l-.01-.01v-.01l-.01-.01h-.01v-.01h-.01l-.01-.01v-.01h-.01l-.01-.01-.01-.01h-.02l-.01-.01h-.05z"/><path fill="#6FA691" d="M4.76 4.12h-.34c-.01.19-.02.4-.04.58h.35c.01-.18.03-.39.03-.58z"/><path fill="#2B2A29" fill-rule="nonzero" d="M4.42 4.14l-.02-.02.02-.01h.34v.03h-.34zm-.02-.02v-.01h.02l-.02.01zm-.02.59l-.01-.01v-.07l.01-.02V4.52l.01-.02V4.38l.01-.02V4.12h.03v.13l-.01.02v.16l-.01.02v.11l-.01.02V4.67l-.01.01v.02l-.01-.01v.02zm0 0h-.01V4.7l.01.01zm.35-.02l.01.01-.01.01h-.35v-.02h.35zm.01.01v.01h-.01l.01-.01zm.02-.59l.01.01V4.34l-.01.02v.15l-.01.02v.08l-.01.02v.07h-.03v-.02l.01-.02v-.08l.01-.02v-.13l.01-.01V4.25l.01-.02V4.12l.01.02v-.03zm0 0h.01v.01l-.01-.01z"/><path fill="#6FA691" d="M4.06 4.12h-.34c0 .19-.01.39-.03.58h.34c.02-.18.03-.39.03-.58z"/><path fill="#2B2A29" fill-rule="nonzero" d="M3.72 4.14l-.01-.02.01-.01h.34v.03h-.34zm-.01-.02v-.01h.01l-.01.01zm-.02.59l-.02-.01.01-.02V4.59l.01-.02V4.45l.01-.02V4.19l.01-.01v-.06h.02V4.34l-.01.02v.14l-.01.02v.11l-.01.02v.05l-.01-.01v.02zm0 0h-.02V4.7l.02.01zm.34-.02l.01.01-.01.01h-.34v-.02h.34zm.01.01v.01h-.01l.01-.01zm.02-.59l.02.01v.08l-.01.01V4.43l-.01.02v.13l-.01.01v.09l-.01.02h-.02v-.05l.01-.02v-.11l.01-.02v-.16l.01-.02V4.12l.01.02v-.03zm0 0h.02v.01l-.02-.01z"/><path fill="#6FA691" d="M3.39 4.12h-.35c0 .18-.01.39-.02.58h.34c.02-.19.03-.39.03-.58z"/><path fill="#2B2A29" fill-rule="nonzero" d="M3.04 4.14l-.01-.02.01-.01h.35v.03h-.35zm-.01-.02v-.01h.01l-.01.01zm-.01.59L3 4.7l.01-.02V4.57l.01-.02v-.14l.01-.02V4.12h.03v.09l-.01.02V4.48l-.01.02v.13l-.01.02v.05l-.01-.01v.02zm0 0H3V4.7l.02.01zm.34-.02l.02.01-.02.01h-.34v-.02h.34zm.02.01l-.01.01h-.01l.02-.01zm.01-.59l.01.01V4.37l-.01.02V4.56l-.01.01v.13h-.03v-.06l.01-.01v-.15l.01-.02v-.21l.01-.02V4.12l.01.02v-.03zm0 0h.01v.01l-.01-.01z"/><path fill="#6FA691" d="M1.12 4.12H.77c-.01.2-.02.41-.01.58h.34c0-.18 0-.38.02-.58z"/><path fill="#2B2A29" fill-rule="nonzero" d="M.77 4.14l-.01-.02.01-.01h.35v.03H.77zm-.01-.02v-.01h.01l-.01.01zm0 .59L.74 4.7V4.47l.01-.01V4.23l.01-.01v-.1h.03v.02l-.01.02V4.33l-.01.02V4.7l-.01-.01v.02zm0 0H.74V4.7l.02.01zm.34-.02l.01.01-.01.01H.76v-.02h.34zm.01.01v.01H1.1l.01-.01zm.01-.59l.01.01v.1l-.01.01V4.45l-.01.02V4.7h-.02V4.32l.01-.01v-.15l.01-.02v-.02l.01.02v-.03zm0 0h.01v.01l-.01-.01z"/><path fill="#6FA691" d="M1.85 4.12H1.5c-.01.19-.02.39-.02.58h.34c0-.19.01-.39.03-.58z"/><path fill="#2B2A29" fill-rule="nonzero" d="M1.5 4.14l-.01-.02.01-.01h.35v.03H1.5zm-.01-.02v-.01h.01l-.01.01zm-.01.59l-.01-.01v-.34l.01-.02v-.15l.01-.01v-.06h.02v.13l-.01.02v.21l-.01.02V4.7l-.01-.01v.02zm0 0h-.01V4.7l.01.01zm.34-.02l.02.01-.02.01h-.34v-.02h.34zm.02.01v.01h-.02l.02-.01zm.01-.59l.01.01v.06l-.01.01v.15l-.01.02v.34h-.03V4.46l.01-.01V4.26l.01-.01v-.11l.01-.02.01.02v-.03zm0 0h.01v.01l-.01-.01z"/><path fill="#6FA691" d="M2.62 4.12h-.37v.58h.37z"/><path fill="#2B2A29" fill-rule="nonzero" d="M2.25 4.14l-.01-.02.01-.01h.37v.03h-.37zm-.01-.02v-.01h.01l-.01.01zm.02.58l-.01.01-.01-.01v-.58h.02v.58zm-.01.01h-.01V4.7l.01.01zm.37-.02l.01.01-.01.01h-.37v-.02h.37zm.01.01v.01h-.01l.01-.01zm-.02-.58l.01-.01.01.01v.58h-.02v-.58zm.01-.01h.01v.01l-.01-.01z"/><path fill="#6FA691" fill-rule="nonzero" d="M1.92.92C1.67.85 1.46.81 1.3.83c-.09.01-.17.03-.23.07-.06.04-.1.09-.12.16-.02.05-.02.1-.01.16v.02l.01.01c.16.16.38.05.62-.08.12-.06.24-.13.35-.16l.16-.04-.16-.05zm-.62 0c.13-.01.28.01.46.05-.08.04-.16.08-.23.12-.2.1-.39.2-.5.1 0-.04 0-.07.01-.1.01-.05.04-.08.08-.11.05-.03.11-.05.18-.06z"/><path fill="#2B2A29" fill-rule="nonzero" d="M1.29.82h.07l.02-.01h.01l.02.01h.13l.02.01h.04l.02.01h.04l.02.01h.02l.02.01h.03l.02.01h.02l.02.01h.02l.03.01.02.01h.02l.03.01-.01.03L1.9.93 1.87.92 1.85.91h-.02L1.81.9h-.03L1.76.89h-.02L1.72.88H1.7L1.68.87h-.02L1.64.86H1.6L1.58.85H1.5L1.48.84H1.3L1.29.82zm-.22.07l.01-.01h.01L1.1.87h.01l.01-.01h.02V.85h.02l.01-.01h.03l.01-.01h.04l.01-.01h.03l.01.02-.01.01H1.23v.01h-.04l-.01.01h-.02v.01h-.02l-.01.01h-.02V.9H1.1l-.01.01h-.01L1.07.89zm-.13.17v-.02l.01-.01v-.02h.01V1L.97.99.98.98V.97L.99.96 1 .95V.94h.01V.93h.01V.92h.01l.01-.01.01-.01h.01V.89h.01l.01.02v.01h-.01l-.01.01h-.01v.01h-.01v.01h-.01v.01h-.01l-.01.01v.01H1v.01L.99 1v.01H.98v.02H.97v.02l-.01.01v.01l-.02-.01zm-.02.16V1.12l.01-.01v-.04l.01-.01.02.01v.02H.95V1.22H.92zm.03 0zm0 .01l-.02.01-.01-.02h.03v.01zm-.02.01zm.03 0l-.02.02-.01-.02.02-.01.01.01zm0 0zm.62-.06l-.02.01-.03.01-.02.01-.02.02-.02.01-.02.01-.03.01-.02.01-.02.01-.02.01-.02.01h-.02l-.02.01-.02.01h-.02l-.02.01h-.02l-.02.01h-.1l-.02-.01h-.02l-.02-.01h-.01l-.02-.01-.02-.01-.02-.01-.01-.02-.02-.01.02-.02.01.01.02.01.01.02.02.01h.02l.01.01.02.01h.03l.02.01h.04l.01-.01h.06l.02-.01.02-.01h.02l.02-.01.02-.01.02-.01h.02l.02-.01.02-.01.03-.01.02-.02.02-.01.02-.01.02-.01.02-.01.03-.01.01.02zm.34-.16l-.01.01h-.02l-.01.01h-.02l-.01.01h-.01l-.01.01h-.01l-.01.01H1.8l-.01.01h-.03l-.01.01-.01.01h-.01l-.01.01h-.01l-.01.01h-.01l-.01.01h-.01l-.02.01h-.01l-.01.01-.01.01h-.01l-.01.01h-.01l-.01.01-.01-.02.01-.01h.01l.01-.01.01-.01h.01l.01-.01h.01l.01-.01h.02l.01-.01.01-.01h.01l.01-.01h.01l.01-.01h.01l.01-.01h.01l.02-.01h.01l.01-.01h.01l.01-.01h.01l.01-.01h.02l.01-.01h.03L1.91 1h.01v.02zm.15-.06h.01v.02l-.16.04V1l.15-.04zm.01 0l.04.01-.04.01V.96zM1.92.94l.01-.03.15.05-.01.02-.15-.04zm-.17.02v.02h-.03L1.7.97h-.03L1.66.96h-.03L1.61.95h-.06L1.54.94H1.45L1.44.93H1.34l-.01.01h-.02L1.3.91h.21l.02.01h.05l.02.01h.03l.02.01h.04l.02.01h.02l.01.01h.02v.02L1.75.96zm.01 0l.04.01-.04.01V.96zm-.24.11h.02v-.01h.02v-.01h.02l.01-.01.01-.01h.01l.01-.01h.02v-.01h.01L1.66 1h.01l.01-.01h.01L1.7.98h.02V.97h.02V.96h.01l.01.02-.01.01h-.01L1.73 1h-.01l-.01.01H1.7l-.01.01h-.01l-.01.01h-.02v.01h-.01l-.01.01h-.01l-.01.01H1.6l-.01.01h-.01l-.01.01h-.01v.01h-.02l-.01.01-.01-.03zm-.48.12v-.01l.01.01.01.01h.01l.01.01h.01l.01.01h.1l.01-.01h.02l.01-.01h.02l.02-.01h.01l.02-.01.02-.01h.01l.02-.01.02-.01.02-.01.01-.01.02-.01.02-.01.02-.01.02-.01.01-.01.02-.01.01.03-.01.01-.02.01-.02.01-.02.01-.02.01-.02.01h-.01l-.02.01-.02.01-.02.01-.01.01h-.02l-.02.01-.02.01h-.01l-.02.01h-.02l-.01.01h-.05l-.01.01h-.03l-.02-.01h-.03l-.01-.01h-.01l-.02-.01-.01-.01-.01-.01v-.01h.02zm-.02.01v-.01.01zm.03-.11v.02l-.01.01v.07h-.03v-.04h.01V1.09h.03zm-.02 0v-.02.02zm.1-.1L1.12 1h-.01v.01H1.1v.01h-.01v.01h-.01v.01l-.01.01v.01h-.01v.02h-.01v.01h-.02v-.03h.01v-.01l.01-.01v-.01h.01v-.01l.01-.01.01-.01.01-.01.01-.01h.01V.97h.01l.01.02zM1.12.97zm.19-.03h-.05l-.01.01h-.04v.01h-.02l-.01.01h-.02v.01h-.02v.01h-.01L1.12.97l.01-.01h.01l.01-.01h.01l.01-.01h.02V.93h.03l.01-.01h.05V.91h.02l.01.03z"/></svg>