<svg xmlns="http://www.w3.org/2000/svg" width="71" height="52" fill-rule="evenodd" clip-rule="evenodd" image-rendering="optimizeQuality" shape-rendering="geometricPrecision" text-rendering="geometricPrecision" viewBox="0 0 43.52 32.13"><path fill="#99CFBA" d="M28.22 29.93l-.83-1.99-3.48-1.03-2.09 1.03-19.65-6.27C.41 19.68-.42 17.4.5 15.01c12.07 3.61 23.93 8.42 36 12.02-.47 1.99-.64 3.69-1.63 4.96l-6.65-2.06z"/><path fill="#2B2A29" fill-rule="nonzero" d="M27.28 27.98l.14-.16.08.07.83 1.99-.22.1-.83-2zm.14-.16l.06.02.02.05-.08-.07zm-3.54-.79l-.02-.22.09-.01 3.47 1.02-.06.23-3.48-1.02zm-.02-.22l.04-.02.05.01-.09.01zm-1.99 1.24h-.08l-.02-.21 2.09-1.03.11.21-2.1 1.03zm0 0l-.04.02-.04-.02h.08zM2.13 21.79l-.05-.04.12-.19 19.66 6.27-.07.22-19.66-6.26zm0 0l-.03-.01-.02-.03.05.04zM.46 15.12l.15-.07-.08.22-.07.22-.06.22-.05.22-.04.21-.03.22-.03.21-.01.22v.42l.01.21.02.21.03.21.04.21.05.21.05.2.06.21.07.2.08.2.08.21.09.2.1.2.1.19.12.2.11.2.13.19.13.19.14.19.14.19.15.19.16.19.16.19-.18.15-.17-.19-.15-.19-.16-.19-.14-.19-.14-.2-.14-.2-.13-.2-.12-.2-.11-.2-.11-.21-.1-.2-.1-.21-.08-.21-.08-.21-.07-.21-.07-.21-.05-.22-.05-.21-.04-.22-.03-.22-.02-.22-.02-.22V17l.01-.22.01-.23.02-.22.03-.23.05-.22.05-.23.06-.23.08-.22.08-.23.14-.07-.07.22zm-.07-.15l.04-.1.1.03-.14.07zm35.99 12.04l.08.14-1.13-.34-1.13-.35-1.13-.36-1.12-.36-1.13-.36-1.13-.37-1.12-.38-1.13-.38-1.12-.38-1.13-.39-1.12-.38-1.12-.39-1.12-.4-1.13-.39-1.12-.39-1.12-.4-1.12-.39-1.12-.4-1.13-.39-1.12-.39-1.12-.39-1.12-.39-1.13-.38-1.12-.39-1.12-.37-1.13-.38-1.13-.37-1.12-.36-1.13-.36-1.13-.36-1.13-.35-1.13-.34.07-.22 1.13.34 1.13.35 1.13.35 1.13.36 1.13.37 1.12.37 1.13.37 1.13.38 1.12.38 1.12.39 1.13.39 1.12.39 1.12.39 1.12.39 1.13.4 1.12.39 1.12.39 1.12.4 1.12.39 1.13.39 1.12.39 1.12.39 1.12.39 1.13.38 1.12.38 1.13.37 1.12.37 1.13.37 1.12.36 1.13.35 1.13.35 1.13.34.08.14-.23-.05zm.15-.09l.11.03-.03.11-.08-.14zm-1.63 4.96l-.13.04.09-.12.08-.12.08-.12.08-.12.07-.13.07-.13.07-.13.06-.14.05-.13.06-.14.05-.15.05-.14.05-.15.05-.15.04-.15.05-.15.04-.16.04-.15.03-.17.04-.16.04-.16.04-.17.03-.17.04-.17.04-.17.03-.18.04-.17.04-.18.04-.18.04-.18.04-.19.04-.18.23.05-.04.19-.04.18-.04.18-.04.18-.04.18-.04.17-.03.18-.04.17-.04.17-.03.17-.04.17-.04.17-.03.16-.04.16-.04.16-.05.16-.04.16-.05.15-.04.16-.05.15-.05.14-.06.15-.06.15-.06.14-.06.14-.07.14-.07.13-.08.14-.08.13-.08.13-.09.12-.09.13-.13.04.07-.23zm.06.19l-.05.06-.08-.02.13-.04zm-6.78-2.03l-.07-.06.14-.16 6.65 2.06-.07.23-6.65-2.07zm0 0l-.05-.01-.02-.05.07.06z"/><path fill="#F08BB2" d="M42.73 7.22c-8.77 4.11-14.05 1.96-19.13-4.87C14.29 16.49 5.78 2.06.61 14.75c-.02 3.21 16.62 6.69 25.85 9.88 5.14 1.79 9.15 3.12 10.04 2.4 3.26-5.37 4.15-13.21 6.23-19.81z"/><path fill="#2B2A29" fill-rule="nonzero" d="M23.5 2.29l.19-.01.48.62.48.6.47.57.49.54.48.51.49.48.49.46.5.42.51.39.51.37.51.33.53.3.53.28.54.24.55.21.56.18.57.14.58.12.6.08.61.05.62.02.63-.02.65-.05.66-.08.69-.12.69-.15.72-.19.73-.22.75-.26.77-.3.79-.33.81-.36.1.21-.82.37-.79.33-.78.3-.76.26-.74.23-.72.19-.71.15-.69.12-.68.08-.66.06-.64.01-.64-.01-.62-.06-.6-.08-.6-.12-.58-.15-.58-.18-.56-.21-.55-.25-.55-.28-.53-.31-.53-.34-.52-.37-.51-.4-.5-.43-.5-.45-.5-.49-.49-.52-.48-.54-.49-.58-.48-.6-.48-.63h.2l-.2-.13zm0 0l.09-.15.1.14-.19.01zM.49 14.75l.01-.04.5-1.12.52-.97.53-.84.56-.7.58-.59.6-.48.61-.38.63-.29.65-.21.66-.15.67-.08.69-.04h.7l.71.03.72.04.73.05.74.04.76.03h.76l.77-.03.78-.07.79-.13.8-.19.8-.27.82-.36.82-.44.83-.56.84-.67.85-.79.85-.94.86-1.08.87-1.23.2.13-.88 1.24-.87 1.1-.86.94-.86.81-.86.68-.84.57-.85.46-.83.36-.83.27-.81.2-.81.13-.79.08-.79.03-.77-.01-.76-.02-.75-.05-.73-.05-.72-.04-.7-.02H7.7l-.67.03-.65.09-.64.13-.62.21-.61.28-.59.36-.57.46-.56.57-.54.69-.53.82-.51.95-.49 1.11.01-.05H.49zm0 0v-.02l.01-.02-.01.04zm25.93 10l-.89-.3-.92-.31-.96-.3-.99-.3-1.01-.31-1.04-.31-1.05-.31-1.07-.3-1.07-.31-1.08-.32-1.08-.31-1.07-.31-1.07-.31-1.05-.31-1.03-.32-1.01-.31-.98-.31-.95-.32-.92-.31-.87-.31-.83-.32-.79-.31-.72-.31-.68-.31-.61-.32-.54-.31-.48-.31-.4-.31-.32-.32-.24-.32-.16-.33-.05-.34h.24l.04.27.13.27.21.29.31.3.38.3.46.3.54.31.6.3.66.31.72.31.78.31.83.31.87.32.91.31.95.31.98.31 1.01.32 1.03.31 1.05.31 1.06.31 1.07.32 1.08.31 1.08.31 1.08.31 1.06.31 1.06.31 1.03.3 1.02.31.99.3.96.31.93.3.88.3-.07.23zM36.6 27.1l-.03.03-.11.07-.12.06-.15.04-.15.03-.17.01-.19.01-.2-.01-.21-.01-.23-.03-.25-.03-.26-.04-.27-.05-.28-.07-.3-.06-.31-.08-.33-.08-.33-.1-.35-.09-.36-.11-.37-.11-.39-.12-.39-.12-.4-.13-.42-.14-.42-.14-.43-.14-.44-.15-.45-.15-.46-.16-.46-.16-.47-.16-.48-.16.07-.23.48.17.48.16.46.16.46.16.44.15.45.15.43.14.42.14.41.13.4.13.39.12.38.12.37.11.36.11.35.1.33.09.32.08.31.08.3.06.28.06.27.05.25.05.24.03.22.02.2.02h.36l.16-.02.13-.02.11-.04.1-.04.07-.05-.02.03.2.13zm0 0l-.01.01-.02.02.03-.03zm6.08-19.99l.16.14-.19.62-.19.63-.18.63-.17.64-.17.65-.17.65-.16.65-.16.65-.16.66-.16.65-.16.66-.15.66-.16.66-.16.65-.17.66-.16.65-.17.64-.17.65-.18.63-.18.64-.19.62-.2.62-.2.62-.22.6-.22.59-.23.59-.24.58-.25.56-.26.55-.27.54-.29.53-.3.52-.2-.13.29-.5.29-.53.27-.53.26-.55.25-.56.24-.57.22-.58.22-.59.21-.6.21-.61.19-.62.19-.62.18-.63.18-.64.17-.64.17-.64.17-.65.16-.65.16-.66.16-.66.15-.65.16-.66.16-.66.16-.66.16-.65.16-.65.17-.65.17-.65.18-.64.18-.63.18-.64.19-.62.17.14-.1-.21zm0 0l.24-.12-.08.26-.16-.14z"/><path fill="#F5B2B6" d="M7.2 9c-2.54.18-4.77 1.28-6.59 5.75 0 .05 0 .1.01.15v.01c.01.05.02.09.03.14l.01.01c.01.05.03.09.05.14l.01.01c.02.05.05.1.08.15.03.05.06.09.1.14l.01.02c.03.04.07.09.11.13l.01.02.13.13.02.02c.05.05.1.09.15.14l.02.02c.05.04.11.09.16.13l.03.02c.06.05.11.09.17.13l.04.02c.06.05.12.09.19.13l.03.02c.07.05.14.1.22.14l.03.03c.07.04.14.08.22.12l.05.03c.07.04.14.08.22.13l.05.02c.08.04.16.09.25.13l.04.02c.09.05.18.09.27.14l.07.03.24.12.09.04c.08.03.15.07.23.1l.1.05c.09.03.17.07.26.11l.11.05c.1.04.19.08.28.12l.1.03c.08.04.17.07.26.11l.13.05.24.1.17.06.21.08.24.1.16.06.26.09.23.08.16.06.28.1.15.05.26.09.26.09.17.06.3.1c.46-3.05.48-6.98-1.08-10.12zm-2.78 8.69c.1.04.19.08.28.12z"/><path fill="#2B2A29" fill-rule="nonzero" d="M.49 14.75l.01-.04.17-.41.18-.4.18-.37.18-.36.18-.33.19-.32.18-.31.19-.28.2-.27.19-.26.2-.24.2-.22.2-.21.21-.2.2-.18.21-.18.22-.15.21-.15.22-.13.22-.12.22-.11.22-.1.22-.09.23-.09.23-.07.23-.06.23-.05.23-.05.24-.04.23-.03.24-.02.24-.03.02.24-.24.02-.23.02-.23.04-.23.03-.22.05-.22.05-.23.06-.22.07-.21.08-.22.08-.21.1-.21.11-.21.11-.21.13-.21.14-.2.15-.2.17-.2.17-.2.19-.2.21-.19.22-.19.23-.19.25-.19.26-.19.28-.18.3-.18.31-.18.34-.18.34-.18.37-.17.39-.17.41.01-.05H.49zm0 0v-.02l.01-.02-.01.04zm.02.17l-.01-.01v-.03.01-.04.01-.02l-.01-.01v-.03.01-.03.01-.04h.24v.04-.01V14.84v-.01.02l.01.02v-.01.02l-.23.04zm0 0v.01-.01zm.23-.03l-.23.04v-.01l.23-.04v.01zm0 0v-.01.01zm-.2.2v-.03.01l-.01-.01v-.04H.52v-.03.01-.02l-.01-.02v-.03l.23-.04v.03h.01-.01.01v.02-.01.03-.01.01l.01.01v.02l.01.01v.01V15v.01l-.23.08zm0 0v-.01.01zm.23-.07v.01l-.22.07-.01-.01.23-.08v.01zm0 0v.01-.01zm-.17.22v-.01H.59v-.03l-.01-.01v.01-.02l-.01-.01v-.01.01-.02H.56v-.03H.55v-.02l.22-.07h.01v.03h.01v.03H.8.79.8v.01l.01.02-.01-.01.01.01v.01l.01.01v.01l-.22.09zm.23-.08l-.22.1-.01-.02.22-.09.01.01zm-.22.1l.01.01-.01-.01zm.09.16l-.01-.01v-.01H.68v-.02H.67v-.01.01l-.01-.01v-.02H.65v-.01l-.01-.01h.01-.01v-.02.01l-.01-.01v-.02H.62v-.02l-.01-.01.22-.1v.02h.01v.02l.01.01v.01-.01l.01.02.01.01v.01-.01l.01.02v.01l.01.01v.01H.9.89l-.19.13zm0 0v.01-.01zm.2-.13v.01l-.2.12.19-.13H.9zm0 0v.01-.01zm-.1.28l-.01-.01-.01-.01v-.01l-.01-.01-.01-.01-.01-.01h.01-.01l-.01-.02-.01-.01v-.01l-.01-.01v-.01H.71v-.01l-.01-.01v-.01.01-.01l.2-.12.01.01v.01-.01.01l.01.01v.01h.01v.01l.01.01v.01-.01l.01.01v.01l.01.01.01.01v.01h.01v.01l.01.01-.19.14zm0 0l.01.01-.01-.01zm.2-.12l-.19.14-.01-.02.19-.14.01.02zm0 0l-.01-.02.01.02zm-.07.28l-.01-.01v-.01H.91L.9 15.7v-.01.01-.01l-.01-.01H.88v-.01l-.01-.01-.01-.01v-.01H.85l-.01-.01h.01-.01v-.01l-.01-.01-.01-.01-.01-.01.19-.14h.01l.01.01v.01l.01.01h-.01.01v.01h.01v.01l.01.01.01.01.01.01.01.01.01.01v.01h.01v.01h.01-.01l-.17.16zm0 0l-.01-.01.01.01zm.19-.14l-.17.16H.94l-.01-.02.17-.16.02.02zm-.17.16l-.01-.01v.01h.01zm.13.14l-.01-.01-.01-.01-.01-.01-.01-.01-.01-.01v-.01h-.01v-.01h-.01L1 15.81l-.01-.01-.01-.01-.01-.01v-.01l-.01-.01-.01-.01.17-.16.01.01.01.01v.01h.01l.01.01v.01h.01l.01.01v.01h.01v.01h.01v.01l.01.01.01.01.01.01.01.01h.01l-.17.17zm.16-.17h.01-.01zm.02.02l-.17.16-.01-.01.17-.17.01.02zm-.17.16l.03.03-.03-.03zm.17.15h-.01l-.01-.01v-.01h-.01l-.01-.01-.01-.01L1.2 16l-.02-.01v-.01l-.01-.01h-.01v-.01h-.01v-.01h-.01l-.01-.01v-.01h-.01v-.01h-.01l-.01-.01-.01-.01.17-.17v.01h.01v.01h.01l.01.01v.01h.01l.01.01v.01h.01l.01.01.02.02.01.01h.01v.01l.01.01h.01l.01.01v.01h.01l-.15.18zm0 0l-.01-.01.01.01zm.17-.16l-.15.18-.02-.02.15-.18.02.02zm0 0l.02.01-.02-.01zm.01.31h-.01l-.01-.01v-.01h-.01l-.01-.01h-.01v-.01l-.01-.01-.01-.01h-.01l-.01-.01-.01-.01-.01-.01h-.01l-.01-.01-.01-.01-.01-.01h-.01v-.01h-.01l.16-.18h.01v.01h.01v.01h.01v.01h.01v.01h.01l.01.01.01.01h.01v.01l.01.01h.01v.01h.01l.01.01h.01l.01.01v.01h.01l.01.01-.15.18zm0 0l-.08-.06.08.06zm.17-.16l-.14.19-.03-.03.15-.18.02.02zm.03.32h.01l-.01-.01h-.01l-.01-.01-.01-.01-.01-.01h-.01l-.01-.01-.01-.01h-.01v-.01l-.01-.01h-.01l-.01-.01h-.01v-.01h-.01l-.01-.01h-.01v-.01l-.01-.01h-.01l.14-.19h.01l.01.01.01.01h.01v.01l.01.01h.01l.01.01h.01v.01h.01l.01.01.01.01.01.01h.01v.01h.02v.01l.01.01h.01v.01l-.14.19zm.14-.19l.07.04-.07-.04zm.04.02l-.14.19-.04-.02.14-.19.04.02zm-.14.19l-.02-.01.02.01zm.19.13l-.01-.01h-.01l-.01-.01-.01-.01h-.01l-.01-.01H1.8v-.01h-.01l-.01-.01h-.01v-.01h-.01l-.01-.01-.01-.01h-.01l-.01-.01h-.01l-.01-.01v-.01h-.01l-.01-.01.13-.19h.01l.01.01h.01l.01.01v.01h.01l.01.01h.01l.01.01.01.01h.01l.01.01.01.01h.01l.01.01.01.01.01.01h.01l.01.01.01.01-.13.19zm.13-.19l.03.01-.03-.01zm.03.02l-.13.19-.03-.02.13-.19.03.02zm-.13.19zm.23.15l-.01-.01h-.01v-.01H2.1l-.01-.01h-.01v-.01h-.01l-.01-.01h-.01l-.01-.01h-.01v-.01h-.01l-.01-.01H2l-.01-.01h-.01v-.01h-.01l-.01-.01-.01-.01h-.01l-.01-.01h-.01v-.01h-.01l-.01-.01.13-.2.01.01.01.01h.01v.01h.02v.01h.01l.01.01.01.01h.01l.01.01h.01v.01h.01l.01.01h.01l.01.01h.01v.01h.01l.01.01h.01v.01h.01l.01.01h.01l-.12.21zm0 0l.03.01-.03-.01zm.15-.19l-.12.21-.03-.02.12-.21.03.02zm.1.34l-.01-.01h-.01v-.01h-.01l-.01-.01h-.01l-.01-.01-.01-.01H2.3l-.01-.01h-.01l-.01-.01h-.01v-.01h-.01l-.01-.01h-.01l-.01-.01h-.01l-.01-.01h-.01v-.01h-.01l-.01-.01h-.01l.12-.21.01.01h.01v.01h.02v.01h.01l.01.01h.01l.01.01h.01l.01.01.01.01.01.01h.02v.01h.02v.01h.01l.01.01h.01l.01.01.01.01h.01l-.12.21zm.12-.21zm.05.03l-.12.2-.05-.02.12-.21.05.03zm-.12.2zm.23.13h-.01l-.01-.01h-.01l-.01-.01-.01-.01H2.6l-.01-.01h-.01l-.01-.01h-.01l-.01-.01-.01-.01h-.01l-.01-.01H2.5v-.01h-.01l-.01-.01h-.01l-.01-.01h-.01l-.01-.01h-.01v-.01l.12-.2.01.01h.01l.01.01.01.01h.01l.02.01h.01l.01.01.01.01h.01l.01.01h.01l.01.01h.01l.01.01.02.01h.01v.01h.01l.01.01h.01l-.11.21zm0 0h-.01l.04.02-.03-.02zm.16-.18l-.11.21-.05-.03.11-.21.05.03zm.13.34v-.01h-.01l-.01-.01h-.01l-.01-.01H2.9l-.01-.01h-.01l-.01-.01h-.01l-.01-.01h-.01l-.01-.01h-.01l-.01-.01H2.8v-.01h-.02l-.01-.01h-.01l-.01-.01h-.01v-.01h-.01l-.01-.01h-.01l.11-.21h.01l.01.01h.01v.01h.01l.01.01h.01l.01.01h.02l.01.01.01.01h.02v.01h.01l.01.01h.01l.01.01H3v.01h.01l.02.01h.01l.01.01.01.01-.11.21zm0 0zm.15-.19l-.1.21-.05-.02.11-.21.04.02zm0 0l-.03-.02.03.02zm.17.35l-.01-.01-.01-.01h-.01l-.01-.01h-.01l-.01-.01H3.2l-.02-.01-.01-.01h-.02l-.01-.01h-.01l-.01-.01h-.01l-.01-.01h-.01l-.01-.01h-.01l-.01-.01-.01-.01h-.02l-.01-.01h-.01v-.01H3l.1-.21h.01l.01.01h.02v.01h.02v.01h.01l.01.01h.01l.01.01h.01l.01.01h.01l.01.01h.01l.01.01h.01l.01.01h.02l.01.01h.01v.01h.01l.01.01h.02l.01.01-.1.22zm0 0zm.17-.19l-.1.22-.07-.03.1-.22.07.03zm0 0zm.14.33h-.01l-.01-.01h-.02v-.01h-.01l-.01-.01h-.01l-.01-.01h-.02l-.01-.01-.01-.01h-.02l-.01-.01h-.01l-.01-.01H3.4l-.01-.01h-.01l-.01-.01h-.01l-.01-.01h-.01l.1-.22v.01h.02l.01.01h.01l.01.01h.01l.01.01h.01l.01.01h.01l.01.01h.01l.01.01h.01l.01.01h.01l.01.01h.02v.01h.02l.01.01h.01l.01.01-.1.21zm.1-.21l.03.01-.03-.01zm.09.04l-.1.22-.09-.05.1-.21.09.04zm-.1.22zm.23.1h-.01v-.01h-.02v-.01h-.02l-.01-.01h-.01l-.01-.01h-.01l-.01-.01h-.01l-.01-.01h-.02v-.01h-.02l-.01-.01h-.01l-.01-.01H3.7l-.01-.01h-.02l.1-.22h.01l.01.01h.01l.01.01h.01l.01.01h.01l.01.01h.01l.01.01h.01l.01.01h.02v.01h.02l.01.01h.01l.01.01h.02v.01H4l-.1.22zm.2-.17l-.1.21-.1-.04.1-.22.1.05zm0 0zm.16.33l-.01-.01h-.02l-.01-.01h-.01v-.01h-.02l-.01-.01h-.01l-.02-.01-.01-.01h-.02l-.01-.01H4.1l-.01-.01h-.02v-.01h-.02v-.01h-.02l-.01-.01h-.01L4 17.63l.1-.21h.01l.01.01h.02l.01.01h.01v.01h.02l.01.01h.01l.01.01h.01l.01.01h.02v.01h.01l.02.01h.01l.01.01h.02v.01h.02l.01.01h.01l-.1.22zm0 0zm.21-.17l-.09.22-.12-.05.1-.22.11.05zm-.09.22l-.06-.03.06.03zm.28.11h-.02l-.01-.01h-.02l-.01-.01h-.01l-.01-.01h-.01l-.01-.01h-.02l-.01-.01-.02-.01h-.02l-.01-.01h-.01l-.01-.01h-.01l-.01-.01h-.02l-.01-.01H4.4l-.01-.01h-.01l.09-.22h.01l.01.01h.01l.01.01h.01l.01.01h.02l.01.01h.01l.01.01h.01l.01.01h.02l.01.01h.01l.01.01h.02l.01.01h.02v.01h.01l.01.01h.02l.01.01-.09.21zm.18-.17l-.09.21-.09-.04.09-.21.09.04zm-.09.21l-.08-.03.08.03zm.26.11L5 18.05h-.02l-.01-.01h-.02v-.01h-.02v-.01h-.02l-.01-.01h-.02L4.87 18h-.01l-.01-.01h-.02v-.01H4.8v-.01h-.01l-.01-.01h-.02l-.01-.01.09-.21h.02l.01.01h.02l.01.01h.01l.01.01h.02l.01.01h.01l.01.01h.02l.01.01h.01l.01.01h.01l.02.01h.01l.01.01h.01l.01.01h.01l-.09.22zm0 0zm.23-.16l-.09.21-.14-.05.09-.22.14.06zm-.09.21l.06.03-.06-.03zm.33-.12l-.09.22-.24-.1.09-.22.24.1zm-.09.22l-.06-.02.06.02zm.25-.16l-.08.22h-.01l-.16-.06.09-.22.16.06zm-.08.22h-.01l-.05-.02.06.02zm.29-.14l-.08.23v-.01l-.21-.08.08-.22.21.08zm-.08.23v-.01l.07.03-.07-.02zm.32-.14l-.08.23-.24-.09.08-.23.24.09zm-.08.23zm.24-.17l-.08.23-.16-.06.08-.23.16.06zm-.08.23l-.08-.03.08.03zm.34-.13l-.08.22-.26-.09.08-.23.26.1zm-.08.22l-.04-.01.04.01zm.31-.14l-.08.22-.23-.08.08-.22.23.08zm-.08.22l.2.08-.2-.08zm.24-.16l-.08.22-.16-.06.08-.22.16.06zm-.08.22l-.05-.02.05.02zm.36-.12l-.08.22-.28-.1.08-.22.28.1zm.15.05l-.08.22-.15-.05.08-.22.15.05zm-.08.22l-.03-.01.03.01zm.34-.13l-.08.22-.26-.09.08-.22.26.09zm.26.09l-.08.22-.26-.09.08-.22.26.09zm-.08.22l.1.04-.1-.04zm.25-.16l-.07.22-.18-.06.08-.22.17.06zm-.07.22zm.36-.12l.08.12-.15.1-.29-.1.07-.22.29.1zm.08.12l-.02.14-.13-.04.15-.1zM7.19 8.88l.12.07.14.3.13.3.13.31.12.31.1.32.1.32.09.32.09.32.07.33.07.32.06.33.06.33.04.33.04.33.04.33.03.33.02.34.01.33.02.33v.98l-.01.32-.02.32-.02.32-.02.31-.03.31-.02.31-.04.3-.03.3-.04.3-.05.28-.23-.03.04-.29.04-.29.04-.3.03-.3.03-.3.03-.31.02-.31.02-.31.01-.32.01-.32v-.97l-.01-.32-.02-.33-.02-.33-.03-.33-.03-.32-.04-.33-.05-.32-.05-.33-.06-.32-.07-.32-.07-.32-.08-.32-.09-.32-.1-.31-.11-.31-.11-.3-.12-.3-.13-.3-.15-.29.12.06-.02-.24zm0 0h.08l.04.07-.12-.07zM4.75 17.7l-.09.21h-.02l-.01-.01h-.02l-.01-.01h-.01l-.01-.01h-.01l-.01-.01h-.02l-.01-.01-.02-.01h-.02l-.01-.01h-.01l-.01-.01h-.01l-.01-.01h-.02l-.01-.01H4.4l-.01-.01h-.01l.09-.22h.01l.01.01h.01l.01.01h.01l.01.01h.02l.01.01h.01l.01.01h.01l.01.01h.02l.01.01h.01l.01.01h.02l.01.01h.02v.01h.01l.01.01h.02l.01.01-.09.21.09-.21z"/><path fill="#F5B2B6" d="M42.12 11.95c-3.26 2.28-10.37-.51-18.79-3.57-.76-.27-3.4-4.31-3-4.89 2.33-3.35 5.03-4.57 8.16-1.97 1.68 2.84-.61 3.76.71 4.33 8.86 3.89 10.38-1.01 13.13.57 2 1.15.78 4.04-.21 5.53z"/><path fill="#2B2A29" fill-rule="nonzero" d="M23.37 8.27l.78.29.78.28.77.28.76.28.75.27.74.26.73.26.72.25.71.24.69.23.68.22.67.21.66.2.64.19.63.17.61.15.6.14.58.13.56.1.55.09.53.07.51.05.5.03h.47l.46-.01.43-.04.41-.06.4-.09.37-.11.35-.14.33-.17.31-.19.13.19-.32.21-.35.17-.37.15-.39.12-.41.09-.43.06-.45.04-.47.02-.48-.01-.51-.03-.52-.05-.54-.07-.55-.08-.57-.11-.59-.13-.6-.14-.61-.16-.64-.17-.64-.18-.66-.2-.67-.21-.68-.22-.7-.24-.71-.24-.72-.25-.73-.26-.74-.26-.75-.27-.76-.28-.77-.28-.78-.28-.78-.29.08-.22zm-2.95-4.71l-.01.03v.14l.02.1.03.13.04.14.06.15.07.16.08.18.09.18.1.2.1.19.12.21.12.2.12.21.13.21.14.2.13.21.14.2.14.2.13.19.14.18.13.17.13.17.13.15.12.14.12.12.11.11.1.09.09.07.07.05.06.03-.08.22-.1-.04-.1-.07-.1-.08-.11-.1-.11-.11-.12-.13-.13-.15-.13-.15-.13-.17-.14-.18-.14-.18-.14-.2-.14-.19-.13-.21-.14-.21-.14-.21-.13-.21-.12-.21-.13-.21-.11-.2-.11-.2-.1-.2-.1-.19-.08-.18-.07-.17-.06-.17-.05-.15-.04-.14-.02-.13v-.11l.01-.11.05-.1.19.13zm7.97-1.98l.03.03-.29-.23-.29-.21-.28-.18-.28-.16L27 .68l-.27-.12-.27-.1-.27-.09-.26-.06-.27-.04-.26-.03h-.25l-.26.01-.25.03-.25.04-.25.07-.24.08-.25.1-.24.11-.24.13-.24.15-.24.16-.23.18-.24.19-.23.21-.23.23-.23.24-.22.25-.23.26-.22.28-.22.3-.22.3-.19-.13.22-.31.23-.3.22-.29.23-.27.23-.26.23-.24.24-.23.24-.21.24-.2.24-.19.25-.17.25-.15.25-.14.26-.12.25-.1.26-.09.27-.07.26-.05.27-.03.27-.01.28.01.27.02.28.05.28.07.28.08.29.11.29.13.28.15.29.17.3.19.29.21.3.24.02.03-.2.12zm.18-.15l.01.01.01.02-.02-.03zm.58 4.53l-.12-.06-.1-.06-.09-.07-.07-.08-.06-.08-.03-.09-.02-.09-.01-.1.01-.09.02-.1.02-.1.03-.1.03-.1.04-.11.03-.11.04-.12.03-.12.04-.13.03-.14.02-.14.02-.15.01-.16V3.5l-.01-.18-.02-.18-.04-.19-.05-.2-.06-.21-.08-.23-.1-.23-.13-.24-.14-.26.2-.12.15.27.13.25.11.25.08.23.07.23.05.21.04.21.02.19.01.19v.18l-.01.17-.02.16-.02.16-.03.14-.04.14-.03.13-.04.12-.04.12-.04.1-.03.1-.02.09-.02.09-.02.08v.12l.01.06.02.05.03.05.05.04.06.05.09.06.1.05-.1.21zm13.12.56l-.24-.13-.24-.09-.23-.05-.23-.03-.23-.01-.23.02-.24.04-.24.05-.24.08-.26.08-.27.1-.28.1-.29.11-.3.11-.32.11-.34.1-.36.1-.37.09-.4.08-.42.06-.45.05-.47.02h-.5l-.53-.03-.56-.06-.58-.09-.63-.12-.66-.17-.69-.2-.73-.24-.77-.3-.82-.34.1-.21.81.33.76.29.72.25.69.2.64.16.62.12.58.09.54.05.52.03h.48l.46-.02.44-.04.41-.06.39-.08.36-.09.35-.09.33-.11.32-.1.3-.11.29-.11.28-.11.27-.09.26-.09.26-.08.26-.06.25-.04.25-.02.26.01.25.03.26.07.26.1.27.13-.12.21zm-.22 5.33l-.03.03.09-.14.09-.15.1-.16.09-.16.09-.17.09-.17.09-.18.08-.18.08-.19.08-.19.07-.19.06-.19.06-.19.06-.2.04-.19.04-.2.03-.19.01-.19.01-.18v-.19l-.01-.18-.02-.17-.04-.17-.05-.17-.06-.16-.07-.15-.09-.14-.1-.14-.12-.13-.13-.13-.15-.11-.17-.11.12-.21.18.12.17.13.15.14.13.15.12.15.1.17.08.17.07.18.05.18.04.19.03.19.01.19v.2l-.01.2-.02.2-.03.2-.04.21-.05.2-.05.2-.06.2-.07.2-.07.2-.08.19-.08.19-.09.19-.09.18-.09.18-.09.17-.1.17-.1.16-.09.16-.1.14-.03.03-.13-.19zm.16.16l-.01.02-.02.01.03-.03z"/><path fill="#99CFBA" d="M20.62 2.64c-.54.36-1.9 1.41-1.52 2l3.29 5.15c.45.7 1.99-.14 2.59-.54.45-.3.58-.9.28-1.35l-3.29-4.99c-.3-.44-.9-.57-1.35-.27z"/><path fill="#2B2A29" fill-rule="nonzero" d="M19 4.7l-.04-.07-.03-.08-.01-.08-.01-.08.01-.08.02-.07.02-.08.03-.08.04-.08.04-.08.05-.07.05-.08.06-.08.06-.07.07-.08.07-.07.07-.07.07-.08.08-.07.07-.06.08-.07.07-.07.08-.06.08-.06.07-.06.07-.06.08-.05.06-.05.07-.05.06-.04.06-.04.05-.04.13.2-.05.03-.05.04-.06.04-.07.05-.06.05-.07.05-.07.05-.08.06-.07.06-.07.06-.08.07-.07.06-.07.07-.07.06-.07.07-.07.07-.06.07-.07.07-.05.07-.06.07-.04.07-.05.07-.03.06-.03.06-.03.07-.02.05-.01.06v.1l.01.04.01.04.03.04-.2.13zm3.49 5.02l-.2.13L19 4.7l.2-.13 3.29 5.15zm2.56-.37l-.06.04-.07.04-.07.04-.07.05-.08.04-.08.05-.09.05-.09.04-.09.05-.09.05-.1.04-.1.05-.1.04-.09.04-.1.04-.1.03-.11.03-.1.03-.09.03-.1.02-.1.01-.09.01h-.19l-.09-.01-.08-.02-.09-.02-.08-.03-.07-.05-.07-.05-.06-.07-.06-.07.2-.13.04.05.04.04.04.04.05.02.05.03.06.02.07.01h.07l.07.01.08-.01h.08l.09-.02.08-.02.1-.02.09-.02.09-.03.09-.04.1-.03.09-.04.1-.04.09-.04.09-.05.09-.04.09-.05.09-.04.08-.05.08-.04.08-.05.07-.04.07-.04.06-.04.06-.04.13.2zm.31-1.52l.03.05.03.05.02.05.02.05.02.05.02.05.01.05.01.06.01.05.01.05v.16l-.01.05v.05l-.01.05-.02.06-.01.05-.02.05-.01.05-.03.04-.02.05-.03.05-.02.04-.03.04-.04.05-.03.04-.04.04-.04.04-.04.03-.04.03-.05.04-.13-.2.04-.03.03-.02.03-.03.03-.03.03-.03.03-.03.03-.04.02-.03.02-.04.02-.03.02-.04.02-.04.01-.03.01-.04.02-.04v-.04l.01-.04.01-.05v-.16l-.01-.04v-.04l-.01-.04-.01-.04-.01-.04-.02-.04-.01-.04-.02-.04-.02-.04-.03-.04.2-.13zm-3.49-4.85l.2-.13 3.29 4.98-.2.13-3.29-4.98zm-1.32-.44l.05-.03.05-.03.05-.02.05-.02.05-.02.05-.02.05-.01.06-.01.05-.01.05-.01h.16l.05.01h.05l.06.01.05.01.05.02.05.02.05.01.04.02.05.03.05.02.04.03.05.03.04.04.04.03.04.04.04.04.03.04.04.04.03.05-.2.13-.02-.04-.03-.03-.03-.03-.03-.03-.03-.03-.03-.03-.03-.03-.04-.02-.03-.02-.04-.02-.04-.02-.03-.02-.04-.01-.04-.02-.04-.01-.04-.01h-.04l-.04-.01H21.04l-.04.01-.04.01-.04.01-.04.01-.04.02-.04.01-.04.02-.04.02-.04.03-.13-.2z"/><path fill="#99CFBA" d="M16.76 4.4c-.55.36-1.91 1.41-1.53 2l3.3 5.15c.44.7 1.98-.14 2.59-.54.45-.3.57-.9.28-1.35l-3.3-4.98c-.29-.45-.9-.57-1.34-.28z"/><path fill="#2B2A29" fill-rule="nonzero" d="M15.13 6.46l-.04-.07-.02-.08-.02-.07v-.08l.01-.08.01-.08.02-.08.04-.08.03-.08.05-.07.05-.08.05-.08.06-.07.06-.08.06-.07.07-.08.07-.07.08-.07.07-.07.08-.07.07-.07.08-.07.08-.06.07-.06.08-.06.07-.06.07-.05.07-.05.07-.05.06-.04.06-.04.05-.04.13.2-.05.03-.06.04-.06.04-.06.05-.07.05-.07.05-.07.06-.07.05-.07.06-.08.06-.07.07-.07.06-.08.07-.07.07-.07.06-.06.07-.07.07-.06.07-.06.07-.05.07-.05.07-.04.07-.04.06-.03.07-.02.06-.02.06-.01.05-.01.05.01.05v.04l.02.05.02.04-.2.12zm3.49 5.02l-.19.13-3.3-5.15.2-.12 3.29 5.14zm2.56-.37l-.06.04-.06.04-.07.04-.08.05-.08.04-.08.05-.09.05-.08.05-.1.04-.09.05-.1.04-.09.05-.1.04-.1.04-.1.04-.1.03-.1.03-.1.03-.1.03-.1.02-.09.01-.1.01-.09.01-.09-.01-.09-.01-.09-.01-.08-.03-.08-.03-.08-.05-.07-.05-.06-.07-.05-.07.19-.13.04.05.04.04.04.04.05.03.06.02.06.02.06.01.07.01h.16l.08-.01.08-.02.09-.01.09-.03.09-.02.1-.03.09-.03.09-.04.1-.04.09-.04.1-.04.09-.04.09-.05.09-.04.08-.05.09-.04.08-.05.07-.04.07-.05.07-.04.07-.04.05-.04.13.2zm.31-1.51l.03.04.03.05.03.05.02.05.02.05.01.05.02.05.01.06.01.05v.26l-.01.05-.01.06-.01.05-.01.05-.02.05-.02.05-.02.04-.02.05-.03.05-.03.04-.03.05-.03.04-.04.04-.04.04-.03.04-.05.03-.04.04-.05.03-.13-.2.04-.02.03-.03.04-.03.03-.03.03-.03.02-.03.03-.03.02-.04.03-.03.02-.04.01-.04.02-.03.02-.04.01-.04.01-.04.01-.04.01-.04v-.04l.01-.04v-.09l-.01-.04v-.04l-.01-.04V10l-.02-.04-.01-.04-.01-.04-.02-.04-.02-.04-.02-.04-.02-.03.19-.13zm-3.48-4.86l.19-.13 3.29 4.99-.19.13-3.29-4.99zm-1.32-.44l.05-.03.05-.03.05-.02.05-.02.05-.02.05-.02.05-.01.05-.01.05-.01h.06l.05-.01h.1l.06.01h.05l.05.01.05.02.05.01.05.02.05.02.05.02.05.02.04.03.05.02.04.04.04.03.04.03.04.04.04.04.04.04.03.04.03.05-.19.13-.03-.03-.03-.04-.02-.03-.03-.03-.03-.03-.04-.03-.03-.02-.03-.03-.04-.02-.03-.02-.04-.02-.04-.02-.04-.01-.04-.01-.04-.02h-.04l-.04-.01-.04-.01h-.16l-.04.01h-.05l-.04.01-.04.01-.04.01-.04.02-.04.02-.03.01-.04.03-.04.02-.13-.2z"/></svg>