<svg xmlns="http://www.w3.org/2000/svg" width="105" height="53" fill-rule="evenodd" clip-rule="evenodd" image-rendering="optimizeQuality" shape-rendering="geometricPrecision" text-rendering="geometricPrecision" viewBox="0 0 15.68 7.83"><path fill="#F5B2B6" fill-rule="nonzero" d="M2.53 6.82c.95-.4 2.01-1.15 2.98-2.11.9-.9 1.47-1.78 1.73-2.54.28-.82.2-1.5-.19-1.89-.36-.37-1.06-.33-1.89.03-.85.37-1.85 1.08-2.79 2.02-.41.4-.77.8-1.09 1.19C.71 4.21.3 4.87.12 5.44c-.17.55-.13 1.03.21 1.37.03.02.06.05.09.08.46.36 1.23.3 2.11-.07z"/><path fill="#2B2A29" fill-rule="nonzero" d="M5.5 4.69l.03.03-.09.09-.09.09-.1.09-.09.09-.09.08-.1.08-.09.09-.09.08-.1.07-.09.08-.1.08-.09.07-.1.08-.09.07-.1.07-.09.06-.1.07-.09.06-.1.07-.09.06-.1.06-.09.06-.1.05-.09.06-.09.05-.09.05-.1.05-.09.04-.09.05-.09.04-.09.04-.09.04-.01-.04.08-.04.09-.04.09-.04.09-.05.09-.04.1-.05.09-.05.09-.05.09-.06.1-.05.09-.06.09-.06.1-.06.09-.06.1-.07.09-.06.1-.07.09-.07.09-.07.1-.07.09-.08.1-.07.09-.08.1-.08.09-.08.09-.08.1-.08.09-.09.09-.08.1-.09.09-.09.09-.09zm1.72-2.53l.04.01-.03.08-.02.07-.03.07-.03.08-.04.07-.03.08-.04.07-.03.08-.04.08-.05.07-.04.08-.04.08-.05.08-.05.08-.05.08-.06.08-.05.08-.06.08-.06.08-.06.08-.06.09-.06.08-.07.08-.07.08-.07.09-.07.08-.07.08-.08.09-.08.08-.08.09-.08.08-.08.08-.03-.03.08-.08.08-.08.08-.09.08-.08.07-.09.08-.08.07-.08.07-.08.07-.09.06-.08.07-.08.06-.08.06-.08.06-.08.05-.08.06-.09.05-.08.05-.07.05-.08.05-.08.04-.08.05-.08.04-.07.04-.08.03-.08.04-.07.03-.08.04-.07.03-.07.03-.08.02-.07.03-.07zM7.04.3l.03-.03.04.03.03.04.03.04.03.05.03.04.03.05.02.05.03.05.02.05.02.05.01.05.02.06.01.05.01.06.01.06.01.06v.06l.01.06v.2l-.01.07-.01.06-.01.07-.01.07-.01.08-.01.07-.02.07-.02.08-.02.07-.03.08-.02.07-.04-.01.02-.08.03-.07.02-.08.02-.07.01-.07.02-.07.01-.07.01-.07.01-.07.01-.07v-.13l.01-.06-.01-.06V1.07l-.01-.06-.01-.06-.01-.06-.01-.05-.02-.05-.01-.06-.02-.05-.02-.05-.03-.04-.02-.05L7.19.5 7.17.45 7.14.41 7.11.37 7.07.33 7.04.3zM5.17.33L5.15.29l.08-.03.08-.03.07-.03.08-.03.07-.02.08-.03.07-.02.07-.02.07-.01.07-.02.07-.01.06-.01.07-.01.06-.01.07-.01h.18l.06.01h.06l.05.01.05.01.06.01.05.02.05.02.04.02.05.02.04.02.04.03.04.03.04.03.04.04-.03.03L7 .26 6.97.23 6.93.2 6.89.18 6.85.16 6.8.13 6.76.12 6.71.1 6.66.08 6.61.07 6.56.06 6.51.05H6.4L6.34.04h-.06l-.06.01h-.06L6.1.06l-.07.01-.07.01-.06.01-.07.02-.07.02-.07.01-.07.03-.07.02-.08.02-.07.03-.08.03-.08.03-.07.03zM2.38 2.35l-.03-.03.09-.09.09-.09.09-.08.09-.09.09-.08.09-.08.09-.08.09-.08.09-.07.09-.08.09-.07.09-.07.09-.07.09-.07.09-.06.08-.07.09-.06.09-.06.09-.06.09-.06.09-.06.08-.05.09-.05.08-.06.09-.04.08-.05.09-.05.08-.04.09-.04.08-.04.08-.04.08-.04.02.04-.08.04-.08.04-.09.04-.08.04-.08.04-.08.05-.09.04-.08.05-.09.05-.08.05-.09.06-.09.06-.09.05-.08.06-.09.06-.09.07-.09.06-.09.07-.09.06-.09.07-.09.07-.08.08-.09.07-.09.08-.09.07-.09.08-.09.08-.09.09-.09.08-.09.08-.09.09-.09.09zM1.3 3.53l-.04-.03.03-.03.03-.04.03-.04.04-.03.03-.04.03-.04.03-.03.03-.04.03-.04.04-.03.03-.04.03-.04.03-.04.04-.03.03-.04.04-.04.03-.03.03-.04.04-.04.03-.04.04-.03.03-.04.04-.04.04-.03.03-.04.04-.04.03-.04.04-.03.04-.04.04-.04.03-.04.04-.03.03.03-.04.03-.03.04-.04.04-.04.04-.03.03-.04.04-.04.04-.03.04-.04.03-.03.04-.04.04-.03.03-.04.04-.03.04-.04.04-.03.03-.04.04-.03.04-.03.03-.04.04-.03.04-.03.04-.03.03-.04.04-.03.04-.03.03-.03.04-.03.04-.03.03-.03.04-.03.04-.03.03zM.14 5.44L.1 5.43l.02-.05.02-.06.02-.05.02-.06.02-.05.03-.06.02-.06.03-.06.03-.05.03-.06.03-.06.03-.06.03-.06.04-.06.03-.06.04-.06.04-.06.03-.06.04-.06.05-.06.04-.07.04-.06.04-.06.05-.06.04-.07.05-.06.05-.06.05-.07.05-.06.05-.07.05-.06.05-.07.04.03-.06.07-.05.06-.05.06-.05.07-.05.06-.04.07-.05.06-.05.06-.04.06-.04.07-.05.06-.04.06-.04.06-.04.06-.04.06-.03.06-.04.06-.04.06-.03.06-.03.06-.03.06-.03.06-.03.06L.32 5l-.03.06-.02.06-.03.05-.02.06-.02.05-.02.06-.02.05-.02.05zm.2 1.35l-.03.03-.03-.03-.03-.04-.03-.03-.02-.04-.03-.03-.02-.04-.02-.03-.02-.04-.02-.04-.01-.04-.02-.04-.01-.04-.01-.04-.01-.05-.01-.04-.01-.04v-.05L0 6.12v-.19l.01-.05v-.04l.01-.05.01-.05.01-.05.01-.05.01-.05.01-.05.02-.06.01-.05.04.01-.01.06-.02.05-.01.05-.01.05-.01.05-.01.05-.01.04v.05l-.01.05v.04l-.01.05v.09l.01.04v.09l.01.04.01.04.01.04.01.04.01.04.02.04.01.04.02.04.02.03.02.04.02.04.02.03.03.03.02.04.03.03.03.03zm.1.11L.4 6.87l.01.04L.4 6.9l-.01-.01H.38v-.01H.37v-.01H.36v-.01H.35v-.01H.34v-.01H.33v-.01H.32v-.01H.31l.03-.03h.01v.01h.01v.01h.01v.01h.01v.01h.01v.01H.4v.01h.01l.01.01.01.01.01.03zm-.01-.03l.02.02-.01.01-.01-.03zm-.03 0l.04.03-.03.01-.01-.04zm.01.04l-.02-.02.01-.02.01.04zm2.12-.11l.01.04-.08.03-.08.04-.09.03-.08.02-.08.03-.08.03-.07.02-.08.02-.08.02-.07.02-.08.01-.07.01-.07.01-.07.01-.07.01h-.34l-.06-.01-.06-.01-.06-.01-.06-.01-.05-.02-.06-.02-.05-.02-.05-.02L.55 7 .5 6.97l-.05-.03-.04-.03.02-.04.05.03.04.03.05.03.05.03.05.02.05.02.05.02.05.01.06.02.06.01.06.01h.06l.06.01h.26l.07-.01.07-.01.07-.01.07-.01.08-.02.07-.01.08-.02.07-.02.08-.03.08-.02.08-.03.08-.02.08-.04.08-.03.09-.03z"/><path fill="#F08BB2" fill-rule="nonzero" d="M5.42 2.34c.02.05.06.13.1.21.17.37.32.69.45.72l.56-1.17c-.37-.05-.71.02-1.06.1-.02.01-.04.01-.06.02l-.08.01v-.07c-.01-.24-.05-.47-.12-.69-.05-.19-.13-.38-.21-.56-.54.26-.82.63-1.1 1.01.22.06.46.12.69.18.27.07.53.13.79.21l.02.01.02.02z"/><path fill="#2B2A29" fill-rule="nonzero" d="M5.54 2.54l-.04.02-.01-.01v-.01l-.01-.01v-.01l-.01-.01V2.5l-.01-.01v-.01l-.01-.01v-.01l-.01-.01v-.02l-.01-.01v-.01h-.01v-.02h-.01v-.02H5.4v-.02l.04-.02v.02h.01v.02h.01v.02h.01v.02l.01.01v.01l.01.01v.01l.01.01v.01l.01.01v.02h.01v.01l.01.01v.01l.01.01zm-.04.02zm.45.7l.04.02-.03.01h-.01l-.01-.01-.02-.01-.01-.01-.01-.01-.02-.01-.01-.01-.02-.02-.01-.02-.01-.01-.02-.02-.01-.02-.01-.02-.02-.03-.01-.02-.02-.02-.01-.03L5.72 3l-.02-.03-.01-.03-.02-.03-.01-.03-.02-.02-.01-.04-.02-.03-.02-.03-.01-.03-.02-.03-.01-.04-.02-.03-.02-.04-.01-.03.04-.02.01.04.02.03.02.03.01.04.02.03.01.03.02.03.01.03.02.04.01.03.02.02.01.03.02.03.01.03.02.02.01.03.02.02.01.02.01.02.02.02.01.02.01.02.02.02.01.01.01.02.01.01.01.01.02.01.01.01h.01l.01.01h.01l-.03.01zm.04.02l-.01.02-.02-.01.03-.01zm.56-1.17l-.56 1.17-.04-.02.56-1.17.03-.01.01.03zm-.01-.03l.02.01-.01.02-.01-.03zm-1.07.14v-.04l.03-.01h.03l.04-.01.03-.01.03-.01h.03l.03-.01.04-.01h.03l.03-.01h.03l.04-.01.03-.01h.03l.04-.01h.06l.04-.01h.06l.04-.01h.2l.04.01h.06l.04.01h.04l-.01.04h-.07l-.03-.01H6.32l-.03-.01h-.03l-.04.01h-.13l-.03.01h-.07l-.03.01h-.03l-.03.01h-.04l-.03.01H5.8l-.03.01-.03.01H5.7l-.03.01-.03.01h-.03l-.04.01-.03.01-.03.01h-.04zm.01 0h-.01.01zm-.01-.04v.04-.04zm0 0zm-.06.06L5.4 2.2l.01-.01h.04v-.01h.02l.01.04h-.01v.01h-.04l-.01.01h-.01zm0 0h.01-.01zm-.08-.03l.07-.01.01.04-.07.02-.03-.03.02-.02zm.01.05h-.03v-.03l.03.03zm.01-.1v.07h-.04v-.07h.04zm0 0v-.01.01zm-.16-.68l.05-.01v.02l.01.02v.02l.01.02v.02l.01.02v.02l.01.02v.02l.01.02v.02l.01.03v.02l.01.02v.04l.01.02v.05l.01.02v.06l.01.03v.06l.01.03v.09h-.04v-.02l-.01-.03V2l-.01-.02v-.06l-.01-.03v-.04l-.01-.02v-.04l-.01-.02v-.02l-.01-.03v-.04l-.01-.02v-.02l-.01-.02V1.6l-.01-.02v-.02l-.01-.02v-.02L5.2 1.5l-.01-.02zm0 0zM5.01.93L4.99.89l.03.01v.01l.01.02.01.02.01.02.01.01V1l.01.02.01.02.01.01v.02l.01.02.01.02.01.01v.02l.01.02.01.02v.01l.01.02.01.02v.02l.01.02.01.01v.02l.01.02.01.02v.02l.01.01v.02l.01.02v.02l.01.02.01.02-.05.01v-.02l-.01-.02v-.02l-.01-.01v-.02l-.01-.02-.01-.02v-.02l-.01-.01V1.3l-.01-.02-.01-.02v-.01l-.01-.02-.01-.02v-.02l-.01-.02-.01-.01v-.02l-.01-.02-.01-.02-.01-.01v-.02l-.01-.02-.01-.01-.01-.02V1L5.01.98 5 .97 4.99.95 4.98.93V.92l.03.01zM4.99.89l.02-.01.01.02-.03-.01zM3.91 1.9l-.02.04-.01-.03.03-.04.02-.03.03-.04.03-.04.02-.03.03-.04.03-.03.03-.03.02-.04.03-.03.03-.04.03-.03.03-.04.03-.03.03-.03.03-.04.04-.03.03-.03.04-.03.03-.03.04-.04.03-.03.04-.03.04-.03.04-.03.05-.02.04-.03.04-.03.05-.03.05-.02.05-.03.05-.02.02.04-.05.02-.05.03-.05.02-.04.03-.05.03-.04.02-.04.03-.04.03-.04.03-.04.03-.03.03-.04.03-.04.03-.03.03-.03.03-.03.03-.04.04-.03.03-.03.03-.03.04-.03.03-.03.03-.02.04-.03.03-.03.04-.03.03-.02.04-.03.03-.02.04-.03.03-.03.04-.02.03-.01-.03zm-.02.04l-.03-.01.02-.02.01.03zm.71.14l-.01.04h-.03l-.02-.01h-.02L4.5 2.1l-.02-.01h-.03l-.02-.01h-.02l-.02-.01h-.02l-.02-.01h-.03l-.02-.01-.02-.01h-.02l-.02-.01h-.03l-.02-.01h-.02l-.02-.01L4.13 2h-.02l-.03-.01h-.02l-.02-.01h-.02L4 1.97l-.02-.01h-.02l-.02-.01h-.03l-.02-.01.02-.04h.02l.02.01.02.01h.02l.02.01h.02l.02.01.02.01h.03l.02.01h.02l.02.01h.02l.02.01.03.01h.02l.02.01h.02l.02.01h.02l.03.01h.02l.02.01.02.01h.02l.03.01h.02l.02.01h.02l.02.01h.03l.02.01zm.78.21l-.01.04-.02-.01h-.03l-.02-.01-.02-.01h-.03l-.02-.01-.03-.01h-.02l-.03-.01-.02-.01h-.02l-.03-.01-.02-.01h-.03l-.02-.01-.03-.01h-.02l-.03-.01-.02-.01h-.03l-.02-.01-.03-.01h-.02l-.02-.01h-.03l-.02-.01-.03-.01h-.02l-.03-.01-.02-.01h-.03l-.02-.01.01-.04.02.01h.03l.02.01h.03l.02.01.03.01h.02l.03.01.02.01h.03l.02.01.03.01h.02l.02.01h.03l.02.01.03.01h.02l.03.01.02.01h.03l.02.01.03.01h.02l.02.01.03.01h.02l.03.01.02.01h.03l.02.01.02.01zm.02.05l-.03-.01.01-.04.03.01.01.01-.02.03zm.01-.04h.01v.01l-.01-.01zm-.01.05l-.01-.02.03-.02.02.02-.04.02z"/><path fill="#99CFBA" fill-rule="nonzero" d="M2.33 6.55c.85-.41 1.8-1.15 2.45-1.8 1.08-1.07.6-1.55.15-1.99-.01-.02-.03-.04-.05-.05-.34-.23-.86-.25-1.44-.06-.56.17-1.16.54-1.71 1.09-.34.33-.64.68-.87 1.02-.25.38-.43.75-.49 1.07-.05.32 0 .6.21.8.04.04.08.08.14.12.36.24.95.11 1.61-.2z"/><path fill="#2B2A29" fill-rule="nonzero" d="M4.76 4.74l.03.03-.06.06-.06.06-.07.06-.06.06-.07.07-.07.06-.07.06-.07.06-.08.07-.07.06-.08.06-.07.06-.08.06-.08.07-.08.06-.08.06-.08.06-.08.05-.08.06-.08.06-.08.05-.09.06-.08.05-.08.05-.08.05-.08.05-.09.05-.08.05-.08.04-.08.05-.08.04-.08.04-.02-.04.08-.04.08-.04.08-.04.08-.05.08-.05.08-.04.08-.05.09-.05.08-.06.08-.05.08-.05.08-.06.09-.05.08-.06.08-.06.08-.06.07-.06.08-.06.08-.06.08-.06.07-.06.08-.06.07-.07.08-.06.07-.06.07-.06.07-.07.07-.06.06-.06.07-.06.06-.06.06-.06zm.16-1.97l.03-.03.04.04.04.05.04.04.04.04.04.05.04.04.04.05.04.04.03.05.03.05.03.05.02.05.03.05.01.06.02.06.01.06v.18l-.01.07-.02.07-.02.07-.03.07-.03.08-.04.08-.05.08-.06.08-.06.09-.07.09-.08.09-.09.1-.1.1-.03-.03.1-.1.09-.1.08-.09.07-.09.06-.08.05-.08.05-.08.04-.08.03-.07.03-.07.02-.07.02-.07.01-.06v-.12l-.01-.06v-.05l-.02-.06-.02-.05-.02-.05-.02-.05-.03-.05-.03-.05-.03-.04-.03-.05-.04-.04-.04-.05-.04-.04-.04-.04L5 2.86l-.04-.05-.04-.04zm0 0l-.08-.07.08.07zm-.05-.04l.03-.04v.01h.01v.01h.01v.01h.01v.01h.01v.01h.01l-.03.03h-.01v-.01H4.9v-.01h-.01v-.01h-.01v-.01h-.01v-.01.01zm.03-.04zm-1.46-.02l-.01-.04.06-.02.05-.02.05-.01.06-.01.05-.02.05-.01.06-.01h.05l.05-.01.05-.01h.05l.05-.01h.24l.04.01h.05l.04.01.05.01.04.01.04.01.04.01.04.01.04.01.04.02.04.01.03.02.04.02.03.02.04.02-.03.04-.03-.02-.03-.02-.04-.02-.03-.02-.04-.01-.03-.02-.04-.01-.04-.01-.04-.01-.04-.01-.04-.01-.04-.01h-.05l-.04-.01h-.09l-.05-.01h-.09l-.05.01h-.05l-.05.01h-.05l-.05.01-.05.01-.05.01-.05.01-.05.01-.06.01-.05.02-.05.01-.06.02zm-1.7 1.08l-.03-.03.05-.05.06-.05.05-.05.05-.05.05-.04.06-.05.05-.04.06-.05.05-.04.05-.04.06-.04.05-.04.06-.04.05-.04.06-.03.05-.04.06-.03.05-.03.05-.03.06-.03.05-.03.06-.03.05-.03.06-.03.05-.02.05-.02.06-.03.05-.02.05-.02.06-.02.05-.02.05-.01.01.04-.05.01-.05.02-.05.02-.05.02-.06.02-.05.03-.05.02-.06.02-.05.03-.05.03-.06.02-.05.03-.05.03-.06.04-.05.03-.06.03-.05.04-.05.03-.06.04-.05.04-.06.03-.05.04-.05.05-.06.04-.05.04-.05.05-.06.04-.05.05-.05.04-.06.05-.05.05-.05.05zM.88 4.77l-.03-.02.02-.04.02-.03.02-.03.03-.03.02-.03.02-.04.03-.03.02-.03.03-.03.02-.03.03-.04.02-.03.03-.03.03-.03.02-.04.03-.03.03-.03.02-.03.03-.03.03-.04.03-.03.03-.03.03-.03.03-.03.03-.04.03-.03.03-.03.03-.03.03-.03.03-.03.03-.03.03-.04.03.03-.03.04-.03.03-.03.03-.03.03-.03.03-.03.03-.03.03-.03.04-.03.03-.03.03-.03.03-.03.03-.03.03-.02.04-.03.03-.03.03-.02.03-.03.03-.03.04-.02.03-.03.03-.02.03-.03.03-.02.04-.03.03-.02.03-.03.03-.02.03-.02.04-.02.03-.03.03-.02.03zM.39 5.84l-.04-.01.01-.03v-.03l.01-.03.01-.04.01-.03.01-.03.01-.03.01-.04.01-.03.01-.03.01-.03.02-.04.01-.03.01-.03.02-.04.01-.03.02-.04.02-.03.01-.04.02-.03.02-.04.02-.03.02-.03.02-.04.02-.04.02-.03.02-.04.02-.03.03-.04.02-.03.02-.04.03-.03.03.02-.02.04-.03.03-.02.04-.02.03-.02.04-.02.03-.02.04-.02.03-.02.04-.02.03-.02.04-.02.03-.02.03-.01.04-.02.03-.02.04-.01.03-.02.03-.01.04-.01.03-.02.03-.01.03-.01.04-.01.03-.01.03-.01.03-.01.03-.01.04-.01.03v.03l-.01.03-.01.03zm.2.78l-.03.03-.02-.02-.01-.02-.02-.02-.02-.02-.01-.03-.02-.02-.01-.02-.02-.02-.01-.03-.01-.02-.01-.02-.01-.03-.01-.02-.01-.03-.01-.02v-.03l-.01-.03v-.02L.34 6.2v-.03l-.01-.02v-.17l.01-.03v-.06l.01-.03v-.03l.04.01v.03l-.01.03v.08l-.01.03v.08l.01.03v.08l.01.02v.03l.01.02.01.02v.03l.01.02.01.03.01.02.01.02.01.02.01.03.01.02.02.02.01.02.02.02.01.02.02.02.02.02.01.02zm-.03.03l.04.03-.04-.03zm.17.08l-.03.03H.69v-.01H.68l-.01-.01-.01-.01H.65v-.01H.64l-.01-.01-.01-.01-.01-.01H.6v-.01H.59v-.01H.58v-.01H.57v-.01H.56l.03-.03H.6v.01h.01v.01h.01v.01h.01l.01.01.01.01.01.01h.01v.01h.01v.01h.01l.01.01.01.01h.01l.01.01zm1.59-.2l.02.04-.07.03-.06.03-.06.02-.06.03-.06.02-.06.03-.05.02-.06.02-.06.02-.06.02-.05.01-.06.02-.05.01-.06.01-.05.01-.06.01-.05.01h-.05l-.05.01h-.1l-.04-.01h-.05l-.05-.01H.98l-.04-.01-.04-.01-.05-.02-.04-.01-.03-.02-.04-.02-.04-.03.03-.03.03.02.04.02.03.02.04.01.04.01.04.02h.04l.04.01.04.01h.24l.05-.01h.05l.05-.01.05-.01.06-.01.05-.02.05-.01.06-.02.06-.01.05-.02.06-.02.06-.02.06-.03.06-.02.06-.03.06-.02.06-.03.06-.03z"/><path fill="#99CFBA" fill-rule="nonzero" d="M6.75 7.41c.44.12.88.22 1.34.29.46.07.95.11 1.48.11.02-.05.04-.11.06-.17.03-.08.06-.16.09-.22l.02-.04h.04c1.51.16 2.65.19 3.48.15.83-.03 1.36-.13 1.65-.25l-.21.01c-2.53.07-5.12.15-8.39-.68.06.11.12.23.19.35.09.15.18.3.25.45z"/><path fill="#2B2A29" fill-rule="nonzero" d="M8.09 7.68v.04l-.05-.01H8l-.04-.01-.05-.01-.04-.01h-.04l-.05-.01-.04-.01-.04-.01h-.04l-.05-.01-.04-.01-.04-.01-.04-.01-.04-.01-.05-.01-.04-.01h-.04l-.04-.01-.04-.01-.04-.01-.04-.01-.04-.01-.05-.01-.04-.01-.04-.01-.04-.01-.04-.01-.04-.02-.04-.01-.04-.01-.04-.01.01-.04.04.01.04.01.04.01.04.01.04.01.04.01.04.01.04.01.05.01.04.01.04.01.04.01.04.01.04.01.04.01.04.01.05.01.04.01.04.01.04.01h.04l.05.01.04.01.04.01.04.01h.04l.05.01.04.01.04.01h.05l.04.01.04.01zm1.46.12l.04.02-.02.01H9.23l-.05-.01H9.03l-.04-.01h-.1l-.04-.01h-.09l-.05-.01h-.05l-.04-.01h-.05l-.04-.01h-.05l-.04-.01h-.05l-.04-.01h-.04l-.05-.01h-.04l-.05-.01-.04-.01h-.04v-.04h.05l.04.01h.04l.05.01.04.01h.05l.04.01h.04l.05.01h.04l.05.01h.09l.04.01h.05l.05.01h.09l.04.01h.14l.05.01h.19l.05.01h.2l-.02.01zm.04.02l-.01.01h-.01l.02-.01zm.02-.19l.04.02v.01l-.01.01v.02l-.01.01v.02l-.01.01v.02h-.01v.02l-.01.01v.02l-.01.01v.01l-.04-.02v-.02h.01v-.02l.01-.01v-.02h.01v-.02l.01-.01v-.02l.01-.01v-.02l.01-.01v-.01zm.09-.22l.04.02-.01.01v.01l-.01.01v.02h-.01v.02H9.7v.02l-.01.01v.02l-.01.01v.02l-.01.01v.02l-.01.01v.01l-.01.01v.01l-.04-.02.01-.01V7.6l.01-.01v-.02l.01-.01v-.02h.01v-.02l.01-.01v-.02l.01-.01v-.01l.01-.01v-.02h.01v-.02l.01-.01zm.06-.02l-.02.04-.04-.02.02-.04.02-.01.02.03zm-.04-.02v-.01h.02l-.02.01zm.06.04l-.05-.01.01-.04h.04v.05zm3.48.1v.05h-.24l-.09.01H12.19l-.1-.01H11.88l-.11-.01h-.1l-.12-.01h-.11l-.11-.01-.12-.01h-.12l-.12-.01-.13-.01-.12-.01-.13-.01-.13-.01-.13-.01-.13-.01-.14-.02-.14-.01-.14-.01v-.05l.14.02.14.01.14.01.13.02.13.01.13.01.13.01.13.01.12.01h.12l.12.01.12.01h.11l.12.01h.11l.11.01h.1l.11.01H12.29l.1.01h.37l.09-.01h.33l.08-.01zm1.65-.2v-.05l.01.04-.03.02-.03.01-.03.01-.03.01-.04.01-.03.01-.04.01-.04.01-.04.01-.04.01-.04.01h-.05l-.04.01-.05.01-.05.01-.05.01-.05.01-.06.01h-.05l-.06.01-.06.01-.06.01h-.06l-.06.01h-.07l-.06.01-.07.01h-.14l-.08.01h-.07l-.08.01v-.05H13.41l.07-.01h.08l.07-.01h.06l.07-.01.06-.01h.07l.06-.01.06-.01h.06l.05-.01.06-.01.05-.01h.05l.05-.01.05-.01.05-.01.04-.01.05-.01.04-.01.04-.01.04-.01h.04l.04-.01.03-.01.03-.01.04-.02.03-.01.03-.01.03-.01v.05zm0-.05h.13l-.12.04-.01-.04zm-.21.01l.21-.01v.05h-.2l-.01-.04zM6.33 6.6l-.04.02.02-.03.31.07.3.07.29.07.3.06.29.05.28.05.29.05.28.04.27.04.28.04.27.03.26.03.27.02.26.02.26.02.26.02.26.01.25.01.26.01h.25l.24.01h.99l.24-.01h.24l.24-.01h.24l.24-.01h.24l.23-.01.01.04-.24.01-.24.01h-.24l-.24.01h-.24l-.24.01h-1.48l-.25-.01-.25-.01-.25-.01-.26-.01-.26-.02-.26-.02-.26-.02-.27-.02-.27-.03-.27-.03-.27-.04-.28-.03-.28-.05-.28-.04-.29-.06-.29-.05-.3-.06-.29-.07-.3-.07-.31-.07.03-.03zm-.04.02l-.03-.05.05.02-.02.03zm.23.32l-.04.03v-.01l-.01-.02-.01-.01v-.01l-.01-.01V6.9l-.01-.01-.01-.01v-.01l-.01-.01-.01-.01v-.01l-.01-.02v-.01l-.01-.01-.01-.01v-.01l-.01-.01-.01-.01v-.01l-.01-.01v-.01l-.01-.01-.01-.02v-.01l-.01-.01v-.01l-.01-.01-.01-.01v-.01l-.01-.01v-.01l.04-.02v.01l.01.01v.01l.01.01v.01l.01.01.01.01v.01l.01.01v.02l.01.01.01.01v.01l.01.01.01.01v.01l.01.01v.01l.01.01.01.01v.02l.01.01v.01l.01.01.01.01v.01l.01.01.01.01v.01l.01.01v.01l.01.01zm0 0zm.24.45l-.01.04-.02-.01v-.01l-.01-.02-.01-.01-.01-.02v-.01l-.01-.02-.01-.01-.01-.01v-.02l-.01-.01-.01-.02-.01-.01v-.02l-.01-.01-.01-.01-.01-.02-.01-.01v-.02l-.01-.01-.01-.01-.01-.02-.01-.01v-.02l-.01-.01-.01-.02-.01-.01-.01-.01v-.02l-.01-.01-.01-.02-.01-.01-.01-.01.04-.03.01.02.01.01v.02l.01.01.01.01.01.02.01.01.01.02v.01l.01.02.01.01.01.01.01.02v.01l.01.02.01.01.01.02.01.01v.01l.01.02.01.01.01.02v.01l.01.02.01.01.01.01.01.02v.01l.01.02.01.01.01.02v.01l-.01-.01zm-.01.04h-.01l-.01-.01.02.01z"/><path fill="#F5B2B6" fill-rule="nonzero" d="M8.79 5.4c-.83-.2-1.61-.41-2.4-.65-.12.26-.2.52-.23.8-.04.28-.01.59.1.91 3.29.85 5.89.78 8.44.7.15 0 .3-.01.45-.01.24-.14.39-.3.46-.46.04-.08.05-.16.05-.23-.01-.08-.03-.15-.07-.22-.08-.14-.23-.26-.44-.36-.62-.29-1.2-.54-1.74-.75-.52-.2-1-.37-1.47-.51-.02.1-.03.2-.05.31-.05.4-.12.83-.35.98l-.02.02-.02-.01c-.99-.15-1.87-.32-2.71-.52z"/><path fill="#2B2A29" fill-rule="nonzero" d="M6.41 4.76l-.04-.02.03-.01.07.02.08.03.07.02.07.02.08.02.07.02.08.02.07.03.07.02.08.02.07.02.08.02.07.02.07.02.08.02.07.02.08.02.07.02.08.02.07.02.07.02.08.02.08.02.07.02.08.02.07.02.08.01.07.02.08.02.08.02.07.02.08.02-.01.04-.08-.02-.07-.02-.08-.02-.08-.01-.07-.02-.08-.02-.07-.02-.08-.02-.08-.02-.07-.02-.08-.02-.07-.02-.08-.02-.07-.02-.07-.02-.08-.02-.07-.02-.08-.02-.07-.02-.08-.02-.07-.02-.07-.02-.08-.02-.07-.02-.08-.02-.07-.03-.07-.02-.08-.02-.07-.02-.08-.02-.07-.02-.07-.03.02-.01zm-.04-.02l.01-.01h.02l-.03.01zm-.19.81h-.05l.01-.03v-.05l.01-.03v-.02l.01-.03v-.03l.01-.02v-.03l.01-.02v-.03l.01-.02.01-.03v-.02l.01-.03.01-.02.01-.03v-.02l.01-.03.01-.02.01-.03.01-.02.01-.03.01-.02.01-.03.01-.02.01-.03.01-.02.01-.02.01-.03.01-.02.01-.03.04.02-.01.03-.01.02-.01.02-.01.03-.01.02-.01.03-.01.02-.01.02-.01.03-.01.02-.01.03-.01.02-.01.02v.03l-.01.02-.01.03-.01.02v.03l-.01.02-.01.03v.02l-.01.03-.01.02v.03l-.01.02v.03l-.01.02v.05l-.01.03v.05zm.08.89l-.01.04-.01-.01-.01-.03-.01-.03-.01-.03-.01-.03-.01-.03v-.03l-.01-.03-.01-.03V6.2l-.01-.03-.01-.03v-.06l-.01-.03v-.03l-.01-.03v-.08l-.01-.03v-.22l.01-.03v-.08h.05l-.01.03V5.96l.01.03v.06l.01.02v.03l.01.03v.03l.01.03v.03l.01.03.01.03.01.03v.03l.01.03.01.03.01.03.01.03-.02-.02zm-.01.04h-.01v-.01l.01.01zm8.45.66v.04l-.24.01-.24.01h-.24l-.24.01-.24.01h-.49l-.24.01h-.49l-.25-.01h-.25l-.25-.01-.26-.01-.25-.01-.26-.01-.26-.02-.26-.02-.27-.02-.27-.02-.27-.03-.27-.03L8.88 7l-.27-.04-.29-.04-.28-.05-.29-.05-.29-.06-.3-.06-.3-.07-.3-.07-.31-.08.01-.04.31.08.3.07.3.07.3.06.29.05.29.06.28.04.28.05.28.04.28.03.27.04.27.02.26.03.27.02.26.02.26.02.26.01.25.01.26.01h.25l.25.01h1.23l.24-.01h.24l.24-.01.24-.01h.24l.24-.01zm.44-.01l.02.04h-.11l-.01.01H14.7v-.04h.19l.02-.01H15.15h-.01zm.02.04h-.01.01zm.43-.49l.04.02-.01.01-.01.02v.01l-.01.02-.01.02-.01.01-.01.02-.01.01-.01.02-.01.01-.02.02-.01.01-.01.02-.01.01-.02.02-.01.01-.02.02-.01.01-.02.01-.02.02-.01.01-.02.02-.02.01-.02.02-.01.01-.02.02-.02.01-.02.01-.02.02-.02.01-.03.01-.02.02-.02-.04.02-.01.02-.02.02-.01.02-.01.02-.02.02-.01.02-.01.02-.02.02-.01.01-.02.02-.01.02-.01.01-.02.02-.01.01-.02.02-.01.01-.01.01-.02.02-.01.01-.02.01-.01.01-.02.01-.01.01-.01.01-.02.01-.01.01-.02.01-.01.01-.02.01-.01V6.7l.01-.02zm0 0zm.05-.22h.04v.09h-.01v.04l-.01.01v.03l-.01.01v.02l-.01.01v.01l-.01.01v.01l-.04-.02v-.01h.01v-.02l.01-.01v-.02l.01-.01v-.03h.01v-.07h.01v-.05zm-.07-.21l.04-.02v.01l.01.01.01.01v.01l.01.01v.02l.01.01v.01l.01.01v.03l.01.01v.04l.01.01v.04h-.04v-.01h-.01V6.39l-.01-.01v-.03h-.01v-.02l-.01-.01V6.3l-.01-.01v-.01l-.01-.01v-.01l-.01-.01zm-.44-.35l.03-.03h.02l.02.01.01.01.02.01.02.01.02.01.02.01.02.01.01.01.02.01.02.02.01.01.02.01.01.01.02.01.01.01.01.01.02.01.01.01.01.02.02.01.01.01.01.01.01.01.01.02.01.01.01.01.01.01.01.02.01.01.01.01.01.02-.04.02-.01-.01-.01-.02v-.01l-.01-.01-.01-.01-.01-.01-.01-.01-.01-.02-.01-.01-.01-.01-.01-.01-.02-.01-.01-.01-.01-.01-.01-.01-.02-.02-.01-.01-.01-.01-.02-.01-.01-.01-.02-.01-.01-.01-.02-.01-.02-.01-.01-.01-.02-.01-.02-.01-.02-.01-.02-.01-.01-.01-.02-.01-.02-.01h-.01zm.01 0h-.01.01zm.02-.03l-.03.03.03-.04v.01zm0-.01v.01-.01zm-1.76-.71l.02-.04.05.02.05.02.05.02.05.02.05.02.06.02.05.02.05.03.05.02.06.02.05.02.05.02.05.03.06.02.05.02.06.03.05.02.06.03.05.02.06.02.05.03.06.02.05.03.06.02.05.03.06.03.06.02.05.03.06.02.06.03.06.03.06.02-.02.04-.06-.02-.06-.03-.06-.03-.05-.02-.06-.03-.06-.03-.05-.02-.06-.03-.06-.02-.05-.03-.06-.02-.05-.03-.06-.02-.05-.03-.06-.02-.05-.02-.05-.03-.06-.02-.05-.02-.06-.03-.05-.02-.05-.02-.05-.02-.06-.02-.05-.03-.05-.02-.05-.02-.05-.02-.06-.02-.05-.02-.05-.02-.05-.02zm-1.44-.52l-.04-.01.03-.02.04.02.04.01.05.01.04.01.05.02.04.01.05.02.04.01.05.01.04.02.05.01.04.02.05.01.04.02.05.01.04.02.05.02.05.01.04.02.05.01.04.02.05.02.05.01.04.02.05.02.05.02.05.02.04.01.05.02.05.02.05.02.05.02-.02.04-.05-.02-.05-.02-.04-.02-.05-.02-.05-.01-.05-.02-.04-.02-.05-.02-.05-.01-.04-.02-.05-.02-.05-.01-.04-.02-.05-.02-.05-.01-.04-.02-.05-.02-.04-.01-.05-.02-.04-.01-.05-.02-.04-.01-.05-.01-.04-.02-.05-.01-.04-.02-.05-.01-.04-.01-.04-.02-.05-.01-.04-.01-.05-.01.03-.02zm-.04-.01V4.6h.03l-.03.02zm-.01.31h-.04v-.02l.01-.01V4.84l.01-.01V4.77l.01-.01V4.7l.01-.01v-.04l.01-.01v-.02l.04.01v.03l-.01.01v.05l-.01.01V4.79l-.01.01v.05l-.01.01V4.92l-.01.01zm-.35 1l-.03-.04.02-.01.02-.02.02-.01.02-.02.01-.02.02-.02.01-.03.02-.02.01-.03.02-.02.01-.03.01-.03.01-.03.01-.03.01-.03.01-.03.01-.04.01-.03.01-.03.01-.04v-.03l.01-.04.01-.04v-.03l.01-.04.01-.04v-.03l.01-.04v-.04l.01-.04.01-.04v-.03h.04v.04l-.01.04v.04l-.01.03v.04l-.01.04-.01.04v.04l-.01.03-.01.04v.04l-.01.03-.01.04-.01.03-.01.04-.01.03-.01.03-.01.03-.01.04-.01.03-.01.03-.02.03-.01.02-.01.03-.02.03-.02.02-.01.02-.02.03-.02.02-.02.02-.02.01-.02.02zm-.05-.02l.02-.02.03.04-.03.02h-.01l-.01-.04zm.02.04h-.01.01zm-.03-.05l.03.01-.01.04-.03-.01.01-.04zm-.01.04zm-2.71-.52l.01-.04.08.01.08.02.08.02.08.02.08.02.08.02.08.01.08.02.08.02.08.02.09.01.08.02.08.02.08.01.09.02.08.02.09.01.08.02.09.02.08.01.09.02.09.01.08.02.09.01.09.02.09.01.09.02.09.01.09.02.09.01.09.02.09.01-.01.04-.09-.01-.09-.01-.09-.02-.09-.01-.09-.02-.09-.01-.09-.02-.09-.01-.08-.02-.09-.01-.09-.02-.08-.02-.09-.01-.09-.02-.08-.01-.09-.02-.08-.02-.08-.01-.09-.02-.08-.02-.08-.01-.09-.02-.08-.02-.08-.02-.08-.01-.08-.02-.08-.02-.08-.02-.08-.02-.08-.01-.08-.02-.08-.02z"/><path fill="#F08BB2" fill-rule="nonzero" d="M12.63 5.04c.04.04.08.09.12.13.26.3.52.6.88.79.08-.04.18-.32.3-.64.03-.07.05-.14.07-.18.05-.13.11-.27.16-.39s.09-.22.12-.28c-.21.03-.44.09-.68.17-.31.1-.64.24-.95.39l-.02.01z"/><path fill="#2B2A29" fill-rule="nonzero" d="M12.76 5.16l-.03.03v-.01h-.01v-.01h-.01v-.01l-.01-.01h-.01v-.01l-.01-.01v-.01h-.01l-.01-.01V5.1h-.01v-.01h-.01v-.01h-.01v-.01h-.01v-.01l-.01-.01.03-.03.01.01.01.01v.01h.01v.01h.01v.01h.01v.01h.01v.01l.01.01h.01v.01l.01.01v.01h.01l.01.01v.01h.01v.01zm0 0zm.86.79l.02.03h-.02l-.03-.01-.04-.02-.03-.02-.03-.02-.03-.02-.03-.03-.04-.02-.03-.02-.03-.02-.02-.03-.03-.02-.03-.03-.03-.02-.03-.03-.03-.02-.02-.03-.03-.02-.03-.03-.02-.02-.03-.03-.02-.03-.03-.03-.03-.02-.02-.03-.03-.03-.02-.03-.03-.02-.02-.03-.03-.03-.02-.03-.02-.02-.03-.03.03-.03.03.03.02.03.03.02.02.03.03.03.02.03.03.02.02.03.03.03.02.02.03.03.02.03.03.02.02.03.03.03.03.02.02.03.03.02.03.03.03.02.02.03.03.02.03.02.03.02.03.03.03.02.03.02.03.02.03.02.03.02.04.02.03.02h-.02zm.02.03l-.01.01-.01-.01h.02zm.27-.67l.04.02-.01.03-.01.03-.01.03-.01.03-.01.02-.01.03-.01.03-.01.03-.01.02-.02.03-.01.03-.01.02-.01.03-.01.02-.01.02-.01.03v.02l-.01.02-.01.02-.01.02-.01.01-.01.02-.01.02-.01.01-.01.02-.01.01-.01.01v.01l-.01.01-.01.01-.01.01h-.01l-.02-.03v-.01h.01l.01-.01v-.01h.01l.01-.02.01-.01v-.01l.01-.01.01-.02.01-.02.01-.01.01-.02.01-.02.01-.02v-.02l.01-.02.01-.03.01-.02.01-.02.01-.03.01-.03.01-.02.01-.03.02-.02.01-.03.01-.03.01-.03.01-.03.01-.03.01-.03.01-.03zm0 0l.02-.04-.02.04zm.07-.18l.04.02v.01l-.01.01v.01l-.01.01v.02l-.01.01v.02l-.01.01v.01l-.01.01v.02l-.01.01v.02h-.01v.01l-.04-.02.01-.01v-.02h.01v-.02l.01-.01v-.03h.01V5.2h.01v-.03h.01v-.02l.01-.01v-.01zm.16-.39l.04.02v.01l-.01.01v.01l-.01.01v.02l-.01.01v.01l-.01.01v.01l-.01.02v.01l-.01.01v.01l-.01.01v.02l-.01.01-.01.01v.01l-.01.02V5l-.01.01v.01l-.01.02v.01l-.01.01v.01l-.01.02v.01l-.01.01v.01l-.01.02v.01l-.04-.02v-.01l.01-.01V5.1l.01-.02v-.01l.01-.01v-.01l.01-.02v-.01l.01-.01V5l.01-.02v-.01l.01-.01v-.02l.01-.01v-.01l.01-.01.01-.01v-.02l.01-.01v-.01l.01-.01v-.02l.01-.01v-.01l.01-.01v-.01l.01-.02v-.01l.01-.01v-.01zm.14-.25l-.01-.04.03.03h-.01v.02l-.01.01v.01l-.01.01v.02l-.01.01v.02l-.01.01v.01l-.01.01v.01l-.01.01v.01l-.01.01v.02l-.01.01v.01l-.01.01v.01l-.01.01v.03l-.01.01-.04-.02v-.01l.01-.01v-.01l.01-.01v-.01l.01-.01v-.01l.01-.01v-.02l.01-.01v-.01l.01-.01v-.02l.01-.01v-.01l.01-.01v-.01l.01-.01v-.03h.01v-.02h.01v-.02l.01-.01.02.03zm-.01-.04l.04-.01-.01.04-.03-.03zm-.66.21l-.02-.04.03-.01.02-.01h.02l.02-.01.02-.01h.03l.02-.01.02-.01h.02l.02-.01.02-.01h.03l.02-.01h.02l.02-.01h.02l.02-.01.02-.01h.03l.02-.01h.04l.02-.01h.02l.02-.01h.02l.02-.01h.04l.02-.01h.04l.01.04h-.02l-.02.01h-.04l-.02.01h-.02l-.02.01h-.04l-.02.01h-.02l-.02.01h-.02l-.03.01h-.02l-.02.01h-.02l-.02.01h-.02l-.02.01-.02.01h-.02l-.03.01h-.02l-.02.01-.02.01h-.02l-.03.01-.02.01-.02.01h-.02l-.02.01zm-.95.39l-.02-.04.03-.01.03-.02.03-.01.03-.02.03-.01.03-.01.03-.02.03-.01.03-.01.02-.02.04-.01.02-.01.03-.01.03-.02.03-.01.03-.01.03-.01.04-.02.02-.01.03-.01.04-.01.02-.01.04-.02.03-.01.03-.01.02-.01.03-.01.03-.01.03-.01.03-.01.03-.01.03-.01.02.04-.03.01-.03.01-.03.01-.03.01-.03.01-.03.01-.03.01-.03.01-.03.01-.03.02-.03.01-.03.01-.03.01-.03.01-.03.02-.03.01-.03.01-.03.01-.03.02-.03.01-.03.01-.03.01-.03.02-.03.01-.03.01-.03.02-.03.01-.02.01-.03.02-.03.01-.03.01-.03.02zm-.02-.04zm-.02.01l.02-.01.02.04-.02.01-.03-.01.01-.03zm-.01.03l-.02-.02.03-.01-.01.03z"/><path fill="#F08BB2" fill-rule="nonzero" d="M12.54 4.94l.01.01.03-.02c.16-.17.35-.34.54-.5.28-.25.56-.49.74-.75-.09-.14-.23-.25-.43-.34-.19-.08-.43-.12-.73-.13-.06.25-.11.88-.14 1.44-.01.1-.01.2-.02.29z"/><path fill="#2B2A29" fill-rule="nonzero" d="M12.53 4.97l-.01-.01.04-.03.01.01v.03h-.04zm.04 0l-.02.02-.02-.02h.04zm.02-.03l-.02.03-.04-.03.03-.03.03.03zm-.03-.03v.01-.01zm.55-.5l.02.03-.01.02-.02.01-.02.02-.02.01-.02.02-.01.02-.02.01-.02.02-.02.01-.02.02-.01.01-.02.02-.02.01-.02.02-.01.02-.02.01-.02.02-.01.01-.02.02-.02.01-.01.02-.02.01-.02.02-.01.02-.02.01-.02.02-.01.01-.02.02-.01.01-.02.02-.01.02-.02.01-.03-.03.01-.01.02-.02.02-.02.01-.01.02-.02.01-.01.02-.02.02-.02.01-.01.02-.02.02-.01.01-.02.02-.01.02-.02.01-.02.02-.01.02-.02.02-.01.01-.02.02-.01.02-.02.02-.02.01-.01.02-.02.02-.01.02-.02.01-.01.02-.02.02-.01.02-.02.02-.02.02-.01zm.74-.72l.03-.02v.02l-.02.03-.01.02-.02.03-.02.02-.02.03-.02.02-.02.02-.02.03-.02.02-.03.02-.02.03-.02.02-.02.03-.03.02-.02.02-.02.03-.03.02-.02.02-.03.03-.02.02-.03.02-.02.02-.03.03-.03.02-.02.02-.03.03-.02.02-.03.02-.03.02-.02.03-.03.02-.03.02-.02-.03.02-.02.03-.03.02-.02.03-.02.03-.02.02-.03.03-.02.02-.02.03-.03.03-.02.02-.02.03-.02.02-.03.03-.02.02-.02.02-.03.03-.02.02-.02.03-.03.02-.02.02-.02.02-.03.02-.02.03-.02.02-.03.02-.02.02-.02.01-.03.02-.02.02-.02.02-.03.02-.02v.02zm.03-.02l.01.01-.01.01v-.02zm-.46-.31l.02-.04.02.01.02.01.01.01.02.01.02.01h.02l.01.01.02.01.02.01.01.01.02.01.01.01.02.01.01.01.01.01.02.01.01.01.02.02.01.01.01.01.01.01.02.01.01.01.01.02.01.01.01.01.01.01.01.02.01.01.01.01.01.02.01.01-.03.02-.01-.01-.01-.01-.01-.01-.01-.02-.01-.01-.01-.01-.01-.01-.01-.01-.01-.02-.01-.01-.02-.01-.01-.01-.01-.01-.01-.01-.02-.01-.01-.01-.01-.01-.02-.01-.01-.01-.01-.01-.02-.01-.01-.01-.02-.01-.01-.01-.02-.01-.01-.01-.02-.01h-.02l-.01-.01-.02-.01-.02-.01-.02-.01zm.02-.04zm-.71-.11l-.05-.01.02-.01h.14l.03.01h.07l.03.01h.05l.02.01h.05l.02.01h.03l.02.01h.02l.02.01h.02l.02.01h.03l.02.01.02.01h.02l.02.01.02.01h.01l.02.01.02.01h.02l-.02.04h-.01l-.02-.01-.02-.01h-.02l-.02-.01-.02-.01h-.02l-.02-.01h-.02l-.02-.01h-.02l-.02-.01h-.02l-.02-.01h-.02l-.03-.01h-.02l-.02-.01h-.05l-.02-.01h-.05l-.03-.01h-.1l-.02-.01h-.09l.03-.02zm-.05-.01l.01-.01h.01l-.02.01zm-.1 1.45h-.04v-.11l.01-.05v-.11l.01-.05v-.05l.01-.06v-.1l.01-.05v-.06l.01-.05v-.1l.01-.05v-.04l.01-.05v-.05l.01-.04v-.05l.01-.04V3.5l.01-.04v-.04l.01-.03v-.04l.01-.03v-.03l.01-.03.01-.03V3.2l.05.01-.01.03-.01.03v.02l-.01.04v.03l-.01.03-.01.04v.04l-.01.04v.04l-.01.04v.04l-.01.05v.09l-.01.05v.05l-.01.05v.05l-.01.05v.1l-.01.05v.11l-.01.05v.06l-.01.05v.11l-.01.05v.05zm-.02.28l-.04.03V4.83h.01V4.69l.01-.01v-.03h.04v.09l-.01.01V4.88l-.01.01v.05-.01zm-.04.03v-.02.02z"/></svg>