<svg xmlns="http://www.w3.org/2000/svg" width="98" height="57" fill-rule="evenodd" clip-rule="evenodd" image-rendering="optimizeQuality" shape-rendering="geometricPrecision" text-rendering="geometricPrecision" viewBox="0 0 10.87 6.38"><path fill="#F08BB2" d="M1.69 3.15c.94-.09 1.43 1.07 2.73 1.2.63.06 1.4.23 2 .4.58.19.53.85-.12 1.18-1.02.48-2.92.54-4.71.28C.47 5.94.28 5.36.18 4.81c-.14-.76.58-1.54 1.51-1.66z"/><path fill="#2B2A29" fill-rule="nonzero" d="M4.42 4.37l-.12-.02-.12-.02-.11-.03-.11-.03-.1-.03-.1-.04-.1-.05-.09-.04-.09-.05-.09-.05-.08-.05-.08-.06-.09-.05-.07-.06-.08-.05-.08-.06-.07-.06-.08-.05-.07-.05-.07-.05-.08-.05-.07-.04-.07-.05-.08-.03-.07-.04-.07-.03-.08-.02-.08-.02-.08-.02h-.08l-.08-.01-.09.01v-.04H1.86l.09.01.08.01.08.02.08.03.07.03.08.04.07.03.08.05.07.04.08.05.07.05.07.05.08.06.07.05.08.06.08.05.07.06.08.05.09.06.08.05.09.05.09.05.09.04.09.05.1.03.1.04.11.03.11.03.11.02.12.01v.04zm1.99.4l-.05-.02-.06-.02-.06-.01-.06-.02-.06-.01-.06-.02L6 4.66l-.06-.02-.06-.02-.07-.01-.06-.02-.06-.01-.07-.01-.06-.02-.07-.01-.06-.01-.07-.02-.06-.01-.07-.01-.06-.01-.07-.02-.06-.01-.06-.01-.07-.01-.06-.01-.07-.01-.06-.01-.06-.01H4.6l-.06-.01-.06-.01h-.06v-.04l.06.01.06.01h.06l.06.01.07.01.06.01.06.01.07.01.06.01.07.01.06.01.07.01.06.01.07.02.06.01.07.01.06.02.07.01.06.01.06.02.07.01.06.02.06.01.07.02.06.01.06.02.06.01.06.02.06.02.06.01.06.02.05.01-.01.04zm.01-.04zM6.3 5.91h-.01l.06-.03.06-.03.05-.04.05-.03.04-.04.04-.04.04-.04.03-.04.03-.04.03-.04.02-.04.02-.05.02-.04.01-.04.01-.04v-.17l-.01-.04-.01-.03-.02-.04-.02-.04-.02-.03-.02-.04-.03-.03-.04-.03-.03-.02-.04-.03-.05-.02-.05-.02-.05-.02.01-.04.06.02.05.03.04.02.05.03.03.03.04.03.03.03.03.04.02.03.02.04.02.04.01.04.01.05.01.04v.09l-.01.04-.01.05-.01.04-.02.05-.02.04-.02.05-.03.04-.03.04-.04.04-.04.04-.04.04-.04.04-.05.04-.05.04-.06.03-.06.03-.01-.03zm.01.03zm-4.71.25h-.01l.17.03.17.02.17.02.17.01.17.02.16.01.17.02h.17l.17.01.16.01h.81l.15-.01.16-.01.15-.01.15-.01.14-.02.14-.02.14-.02.14-.02.13-.02.13-.03.13-.03.12-.03.11-.04.12-.03.1-.04.11-.04.1-.05.01.03-.1.05-.1.04-.11.04-.12.04-.11.03-.13.03-.12.03-.13.03-.13.02-.14.03-.14.02-.14.01-.15.02-.15.01-.15.01-.15.01-.16.01h-.16l-.16.01h-.32l-.17-.01H3.1l-.16-.01-.17-.01-.17-.01-.17-.02-.17-.01-.16-.02-.17-.02-.17-.02-.17-.02.01-.04zm-.01.04zM.2 4.8l.01.05.01.06.01.05.01.05.01.05.02.05.02.05.01.06.02.05.02.05.03.05.02.05.03.04.03.05.03.05.04.04.04.05.04.05.04.04.05.04.05.04.06.04.06.04.06.04.07.04.07.03.08.04.08.03.09.03.09.03.09.03.11.02-.01.04-.1-.03-.1-.03-.09-.03-.09-.03-.08-.03-.08-.04-.08-.03-.06-.04-.07-.04-.06-.04-.06-.04-.05-.04-.05-.05-.05-.04-.04-.05-.04-.04-.04-.05-.03-.05-.03-.05-.03-.05-.02-.05-.03-.05-.02-.05-.02-.05-.02-.05-.01-.06-.02-.05-.01-.05-.01-.05-.02-.06-.01-.05-.01-.05.04-.01zm1.49-1.63l-.08.01-.09.02-.08.02-.08.02-.08.03-.08.03-.08.03-.07.04-.07.04-.07.04-.07.04-.06.05-.06.05-.06.05-.06.05-.05.06-.05.06-.05.06-.04.06-.04.06-.04.06-.03.07-.03.06-.03.07-.02.07-.01.07-.02.07-.01.06v.14l.01.07.01.07-.04.01-.01-.07V4.52l.01-.07.01-.07.02-.07.02-.07.03-.07.03-.07.03-.06.04-.07.04-.06.04-.06.05-.06.05-.06.06-.06.05-.05.06-.06.07-.05.06-.04.07-.05.07-.04.08-.04.07-.04.08-.03.08-.03.08-.03.08-.03.08-.02.09-.01.09-.02v.04zm0-.04z"/><path fill="#6FA691" d="M1.36 3.01c.95-.09 1.66.9 2.95 1.04.64.06 1.4.22 2 .4.58.19.53.84-.11 1.17-1.03.49-2.98.67-4.77.42-1.58-.48-2.15-2.71-.07-3.03z"/><path fill="#2B2A29" fill-rule="nonzero" d="M4.31 4.06l-.12-.01-.12-.02L3.96 4l-.11-.02-.11-.04-.11-.03-.1-.04-.1-.04-.1-.04-.09-.05-.1-.04-.09-.05-.09-.05-.09-.04-.09-.05-.08-.05-.09-.05-.08-.04-.08-.05-.09-.04-.08-.04-.08-.04-.08-.03-.09-.04-.08-.02-.08-.03-.08-.02-.08-.02-.09-.01h-.25L1.36 3l.09-.01h.09l.09.01.08.01.09.02.08.02.08.02.09.03.08.03.08.04.08.04.09.04.08.04.08.05.09.04.08.05.09.05.09.05.09.04.09.05.09.05.09.04.1.05.09.04.1.04.11.04.1.03.11.03.11.03.11.02.11.02.12.02v.03zm2 .4l-.06-.01-.06-.02-.06-.02-.05-.01-.06-.02-.07-.01-.06-.02-.06-.01-.06-.02-.06-.01-.07-.02-.06-.01-.06-.02-.07-.01-.06-.02-.07-.01-.06-.01-.07-.01-.06-.02-.07-.01L5 4.16l-.07-.01-.06-.01-.06-.01-.07-.01-.06-.01-.06-.01-.07-.01-.06-.01h-.06l-.06-.01-.06-.01v-.03h.06l.06.01.07.01.06.01.06.01h.06l.07.01.06.01.06.01.07.02.06.01.07.01.06.01.07.01.06.01.07.02.06.01.07.01.06.02.07.01.06.02.06.01.07.02.06.01.06.02.06.01.06.02.06.02.06.01.06.02.06.01.06.02-.01.03zm.01-.03zm-.13 1.18l.06-.03.05-.04.05-.03.05-.04.04-.03.04-.04.04-.04.03-.04.03-.04.03-.05.02-.04.02-.04.02-.04.01-.05.01-.04.01-.04V4.9l-.01-.04-.01-.04-.01-.04-.01-.04-.02-.03-.03-.04-.02-.03-.03-.03-.03-.03-.04-.03-.04-.02-.04-.03-.05-.02-.05-.02.01-.03.05.02.05.02.05.03.04.02.04.03.03.03.03.04.03.03.03.04.02.04.01.04.02.04.01.04v.13l-.01.05-.01.04-.01.05-.02.04-.02.05-.02.04-.03.04-.03.05-.03.04-.04.04-.04.04-.05.04-.05.04-.05.03-.06.04-.06.03-.01-.03zm.01.03h.01-.01zm-4.76.38l.16.02.17.02.17.02.17.01.17.02.17.01h.17l.17.01h.67l.16-.01.16-.01.16-.01.16-.01.16-.01.15-.02.15-.02.15-.02.14-.03.14-.02.14-.03.14-.03.13-.03.12-.03.13-.04.12-.04.11-.03.11-.05.1-.04.1-.04.01.03-.1.04-.1.05-.11.04-.11.04-.12.03-.13.04-.12.03-.14.03-.13.03L5 6l-.14.03-.15.02-.15.02-.15.02-.15.02-.16.01-.16.02-.16.01-.16.01h-.16l-.17.01h-.33l-.17-.01h-.17l-.17-.01-.17-.01-.17-.01-.17-.02-.17-.01-.17-.02-.17-.03.01-.03zm-.01.03zm-.06-3.02l-.19.04-.17.04-.16.06-.14.06-.12.07-.12.08-.1.09-.08.09-.07.1-.06.11-.05.1-.04.12-.02.11-.01.12-.01.12.01.12.02.12.03.12.04.13.05.12.06.11.07.12.08.11.09.1.09.11.1.09.11.09.12.09.13.07.13.07.13.06.15.05-.01.03L1.28 6l-.14-.06-.13-.07-.13-.07-.12-.09-.11-.09-.1-.1-.1-.1-.09-.11-.08-.11-.07-.12-.06-.12-.05-.12-.04-.13-.03-.12-.02-.12L0 4.34v-.12l.01-.12.03-.12.04-.12.05-.11.06-.11.07-.1.09-.09.1-.09.12-.09.13-.07.14-.06.16-.06.17-.05.19-.03.01.03zM1.36 3z"/><path fill="#BDD180" fill-rule="nonzero" d="M3.32 3.29c.18-.09.41-.02.51.16.1.19.03.42-.16.52-.57.3-.78.71-.92 1-.13.42-.01.91.18 1.18.1.19-.62.21-.86-.09-.11-.35-.24-.93-.01-1.43.22-.44.54-.96 1.26-1.34z"/><path fill="#2B2A29" fill-rule="nonzero" d="M3.85 3.45l-.03.01-.01-.01-.01-.02-.01-.02-.02-.01-.01-.01-.01-.02-.01-.01-.02-.01-.01-.01-.01-.01-.02-.01-.01-.01-.02-.01-.02-.01h-.01l-.02-.01h-.02l-.01-.01h-.14l-.02.01h-.02l-.02.01h-.01l-.02.01-.02.01-.01-.03.02-.01.01-.01.02-.01h.02l.02-.01h.04l.02-.01h.08l.02.01h.01l.02.01h.02l.02.01h.02l.01.01.02.01.02.01.01.01.02.01.02.01.01.02.01.01.02.01.01.02.01.01.01.02.02.02.01.02zm-.17.53l-.02-.03.02-.01h.01l.02-.02.01-.01.02-.01.01-.01.01-.01.01-.02.01-.01.01-.02.01-.01.01-.02.01-.01.01-.02v-.01l.01-.02.01-.02v-.05l.01-.02V3.6l-.01-.02v-.03l-.01-.02v-.02l-.01-.01-.01-.02v-.02l.03-.01v.01l.01.02.01.02.01.02v.04l.01.02v.11l-.01.02v.02l-.01.02v.02l-.01.02-.01.01-.01.02-.01.02-.01.01-.01.02-.01.01-.01.02-.02.01-.01.02-.02.01-.01.01-.02.01-.01.01-.02.01zm-.92.99l-.03-.01.02-.03.01-.03.01-.02.02-.03.02-.03.01-.03.02-.04.02-.03.02-.03.02-.03.02-.03.02-.04.02-.03.02-.03.03-.04.02-.03.03-.03.03-.04.03-.03.03-.03.03-.03.04-.04.03-.03.04-.03.04-.03.04-.04.05-.03.04-.03.05-.03.05-.03.05-.03.05-.03.02.03-.06.03-.05.03-.04.03-.05.03-.04.03-.05.03-.04.03-.04.03-.03.04-.04.03-.03.03-.03.03-.04.03-.02.04-.03.03-.03.03-.02.04-.03.03-.02.03-.02.03-.03.03-.02.04-.02.03-.01.03-.02.03-.02.03-.01.03-.02.03-.02.03-.01.03-.01.03-.02.03v-.01zm-.03-.01zm.22 1.18l-.03.02-.02-.03-.02-.02-.01-.03-.02-.03-.02-.03-.01-.03-.02-.04-.01-.03-.01-.04-.02-.03-.01-.04-.01-.04-.01-.03-.01-.04-.01-.04v-.04l-.01-.04-.01-.04V5.5l-.01-.04V5.25l.01-.04v-.04l.01-.04v-.05l.01-.04.01-.04.01-.04.03.01-.01.04-.01.04v.04l-.01.04-.01.04v.08l-.01.04v.08l.01.04v.09l.01.03v.04l.01.04.01.04.01.04v.04l.01.04.01.03.02.04.01.03.01.04.01.03.02.03.01.03.02.03.01.03.02.03.02.03.01.02h.01zm-.01 0h.01-.01zm-.89-.07l.04-.02h-.01l.03.03.02.02.03.02.03.02.03.02.04.02.03.02.04.01.04.02.03.01.04.01h.04l.04.01.04.01H2.77l.02-.01h.03l.03-.01.02-.01.02-.01.01-.01.01-.01.01-.01v-.04l.03-.02v.02l.01.02v.02l-.01.02-.01.02-.02.01-.02.01-.02.01-.02.01-.03.01-.03.01h-.06l-.04.01h-.07l-.04-.01h-.08l-.04-.01-.04-.01-.04-.01-.04-.01-.03-.02-.04-.01-.04-.02-.03-.02-.04-.02-.03-.02-.03-.02-.03-.03-.02-.03h-.01zm.01 0h-.01.01zm-.01-1.45l.03.02v-.01l-.02.05-.02.05-.02.05-.01.05-.01.04-.01.05-.01.05-.01.05-.01.05v.05l-.01.04V5.4l.01.05v.05l.01.04v.05l.01.04.01.04.01.05v.04l.01.04.01.04.01.04.01.04.01.03.01.04.02.03.01.03-.04.02-.01-.04L2.03 6l-.01-.04-.01-.04L2 5.89l-.01-.04-.01-.04-.01-.05-.01-.04-.01-.04v-.04l-.01-.05-.01-.04V5.5l-.01-.05V5.11l.01-.05v-.05l.01-.05.01-.05.01-.04.02-.05.01-.05.02-.05.02-.05.02-.05zm0 0zm1.26-1.34l.01.03-.06.03-.07.04-.06.04-.06.03-.05.04-.06.04-.05.04-.05.04-.05.04-.05.04-.04.05-.05.04-.04.04-.04.04-.04.04-.03.05-.04.04-.03.04-.04.05-.03.04-.03.05-.03.04-.03.04-.02.05-.03.04-.03.04-.02.05-.02.04-.03.04-.02.04-.02.04-.02.05-.03-.02.02-.04.02-.04.02-.05.03-.04.02-.04.02-.04.03-.05.03-.04.02-.05.03-.04.03-.04.03-.05.04-.04.03-.05.03-.04.04-.04.04-.05.04-.04.04-.04.04-.05.04-.04.05-.04.05-.04.05-.04.05-.05.05-.04.06-.04.05-.03.06-.04.07-.04.06-.04.07-.03z"/><path fill="#2B2A29" fill-rule="nonzero" d="M2.75 4.64l-.46-.44c-.03-.03-.05-.07-.05-.12.01-.04.03-.08.07-.12.1-.08.44-.39.52-.44.04-.03.09-.05.14-.05.05 0 .1.01.13.05l.46.44c.04.03.05.07.05.12 0 .04-.02.08-.07.12l-.51.44c-.04.03-.09.05-.14.05-.05 0-.1-.01-.14-.05zm-.37-.51l.46.44c.01.01.03.02.05.02.03 0 .05-.01.06-.02l.52-.44c.01-.01.02-.03.02-.05 0-.02 0-.04-.02-.05l-.18-.18-.29.22c-.09.05-.15-.03-.09-.09l.28-.21-.17-.18c-.02-.01-.04-.02-.06-.02-.02 0-.04.01-.06.02l-.51.44c-.02.02-.03.03-.03.05 0 .02.01.04.02.05z"/><path fill="#F5B2B6" fill-rule="nonzero" d="M1.77 4c.19-.22.57-.45.9-.58.2-.1-.66-.44-1.05-.31-.29.12-.38.27-.69.62l.84.27z"/><path fill="#2B2A29" fill-rule="nonzero" d="M2.67 3.44l-.03.01-.03.01-.03.02-.03.01-.03.02-.03.01-.03.02-.03.01-.04.02-.03.01-.03.02-.03.02-.03.02-.03.01-.03.02-.03.02-.03.02-.03.02-.03.02-.03.02-.02.02-.03.02-.03.02-.02.02-.03.02-.02.02-.02.02-.02.02-.02.02-.03.02-.01.02-.02.02-.03-.02.02-.02.02-.02.02-.02.02-.02.03-.03.02-.02.02-.02.03-.02.02-.02.03-.02.03-.02.03-.02.02-.02.03-.02.03-.02.03-.02.03-.02.03-.02.03-.01.03-.02.04-.02.03-.02.03-.01.03-.02.03-.02.03-.01.03-.02.04-.01.03-.01.03-.02.03-.01.03-.01.01.03zm0 0zM1.61 3.1l.04-.02h.04l.05-.01h.04l.05-.01.05.01h.1l.05.01.05.01.05.01.05.01.05.01.05.01.04.02.05.01.04.02.05.01.04.02.03.02.04.01.03.02.03.02.02.02.02.01.02.02.01.02.01.02v.04l-.02.02-.02.01-.01-.03.01-.01.01-.01v-.01l-.01-.01-.01-.02-.01-.01-.02-.02-.02-.01-.03-.02-.03-.01-.03-.02-.04-.02-.04-.01-.04-.02-.04-.02-.05-.01-.04-.01-.05-.02-.05-.01-.05-.01-.05-.01-.05-.01h-.05l-.04-.01h-.19l-.04.01-.04.01-.04.01h.01l-.02-.03zm0 0zm-.68.65l-.01-.03.03-.03.02-.03.03-.03.02-.03.03-.03.02-.02.02-.03.02-.03.03-.02.02-.02.02-.03.01-.02.02-.02.02-.02.02-.02.02-.02.02-.01.02-.02.01-.02.02-.01.02-.02.02-.01.02-.02.02-.01.02-.02.02-.01.03-.01.02-.02.02-.01.03-.01.03-.01.02-.01.02.03-.03.01-.03.01-.02.01-.02.01-.03.02-.02.01-.02.01-.02.02-.02.01-.02.01-.02.02-.02.01-.01.02-.02.01-.02.02-.02.02-.02.02-.01.02-.02.02-.02.02-.02.02-.02.02-.02.02-.02.03-.02.02-.02.03-.03.02-.02.03-.02.03-.03.03-.03.03-.03.03v-.02l-.01.03zm0 0L.9 3.74l.02-.02.01.03zm.85.24l.01.02-.02.01-.84-.27.01-.03.84.27zm.01.02l-.01.01h-.01l.02-.01z"/><path fill="#F08BB2" fill-rule="nonzero" d="M1.78 2.87c.17-.13.41-.09.53.08.13.16.09.4-.07.53-.52.38-.66.82-.76 1.13-.08.24-.14 1.16.08 1.39.13.17-.47-.02-.76-.28-.17-.33-.16-.98-.05-1.34.15-.47.38-1.03 1.03-1.51z"/><path fill="#2B2A29" fill-rule="nonzero" d="M2.33 2.94l-.03.02-.01-.02-.01-.01-.02-.02-.01-.01-.01-.01-.02-.01-.01-.01-.02-.01-.01-.01-.02-.01-.01-.01h-.02l-.02-.01H2.1l-.02-.01h-.14l-.02.01h-.01l-.02.01h-.02l-.02.01-.01.01-.02.01-.01.01-.02.01-.02-.03.02-.01.01-.01.02-.01.02-.01.02-.01h.02l.02-.01.01-.01h.06l.02-.01h.04l.02.01h.04l.01.01h.02l.02.01h.02l.02.01.01.01.02.01.02.01.01.01.02.01.01.02.02.01.01.01.02.02.01.02zm-.08.55l-.02-.02.01-.02.01-.01.02-.01.01-.01.01-.02.01-.01.01-.02.01-.01.01-.02.01-.01.01-.02v-.02l.01-.01v-.02l.01-.02V3.1l-.01-.01v-.02l-.01-.02v-.01l-.01-.02L2.33 3l-.01-.01-.01-.02-.01-.01.03-.02.01.01.01.02.01.02.01.01.01.02v.02l.01.02.01.02v.04l.01.02v.05l-.01.02v.06l-.01.02-.01.02v.01l-.01.02-.01.02-.01.02-.01.01-.01.02-.01.01-.01.02-.02.01-.01.02-.02.01-.01.01zM1.5 4.61l-.04-.01.01-.03.01-.03.01-.03.01-.03.01-.03.01-.03.02-.04.01-.03.01-.03.02-.04.01-.03.02-.04.02-.04.01-.03.02-.04.02-.04.03-.03.02-.04.02-.04.03-.04.03-.03.03-.04.03-.04.03-.04.03-.03.04-.04.04-.04.04-.04.04-.03.04-.04.05-.04.05-.03.02.02-.05.04-.05.03-.04.04-.04.04-.04.03-.04.04-.03.04-.04.04-.03.03-.03.04-.03.04-.02.03-.03.04-.02.04-.02.03-.03.04-.02.04-.02.03-.01.04-.02.03-.02.04-.01.03-.02.04-.01.03-.01.04-.01.03-.01.03-.02.03-.01.03-.01.03-.01.03v.03zm.08 1.38l-.03.02v.01l-.02-.03-.02-.03-.02-.03-.01-.04-.02-.03-.01-.05-.01-.04-.01-.04-.01-.05-.01-.05v-.05l-.01-.05v-.06l-.01-.05v-.27l.01-.06v-.1l.01-.05v-.05l.01-.04V4.8l.01-.04v-.03l.01-.04.01-.03.01-.03V4.6l.04.01-.01.03-.01.03-.01.03v.03l-.01.04v.04l-.01.04-.01.05v.09l-.01.05v.16l-.01.06v.05l.01.05v.16l.01.05.01.05v.05l.01.05.01.04.01.05.01.03.02.04.01.03.02.03.02.03.02.02zm0 0zm-.8-.27l.03-.01V5.7l.03.03.03.02.03.02.03.03.03.02.04.02.03.02.04.02.03.02.04.02.03.02.04.01.03.02.04.01.03.01.03.02.04.01.03.01h.02l.03.01.02.01H1.56l.01-.01h-.01v-.01l-.01-.02.03-.02.01.02.01.02v.03l-.01.01-.02.01H1.48l-.03-.01h-.03l-.02-.01-.03-.01-.04-.01-.03-.01-.03-.02L1.23 6l-.03-.02-.04-.01-.04-.02-.03-.02-.04-.02-.03-.02-.04-.02-.04-.02-.03-.02-.03-.03-.03-.02-.03-.03-.03-.02-.01-.01zm.01.01l-.01-.01.01.01zM.74 4.37l.03.01-.01.04-.01.03-.01.04-.01.04-.01.04v.04l-.01.04-.01.05v.09l-.01.04v.37l.01.04v.05l.01.04v.05l.01.04.01.04.01.04.01.04.01.04.01.03.02.04.01.03.01.03-.03.01-.01-.03-.02-.03-.01-.04-.01-.03-.01-.04-.01-.04-.01-.04-.01-.05-.01-.04-.01-.04v-.05l-.01-.04v-.09l-.01-.05v-.19l.01-.05v-.09l.01-.04v-.05l.01-.04v-.04l.01-.05.01-.04.01-.04.01-.04.01-.03.01-.04zm1.03-1.52l.02.03-.06.04-.06.05-.05.05-.05.04-.05.05-.05.05-.05.04-.04.05-.04.05-.04.05-.04.05-.04.04-.03.05-.04.05-.03.05-.03.05-.03.04-.02.05-.03.05-.02.05-.03.05-.02.04-.02.05-.02.05-.02.05-.02.04-.02.05-.01.04-.02.05-.01.04-.02.05-.01.04-.03-.01.01-.04.01-.05.02-.04.02-.05.01-.04.02-.05.02-.05.02-.04.02-.05.02-.05.02-.05.03-.05.02-.04.03-.05.02-.05.03-.05.03-.05.04-.05.03-.05.03-.05.04-.05.04-.04.04-.05.04-.05.05-.05.04-.05.05-.04.05-.05.06-.05.05-.05.06-.04.06-.05z"/><path fill="#2B2A29" fill-rule="nonzero" d="M1.43 4.29l-.52-.37C.87 3.9.85 3.86.85 3.81c-.01-.04.01-.09.04-.13.08-.09.38-.46.45-.51.03-.04.08-.07.12-.07.05-.01.1-.01.14.02l.53.36c.04.03.06.07.06.11.01.05-.01.1-.04.14l-.44.51c-.04.04-.09.06-.13.07-.05.01-.1 0-.15-.02zm-.44-.45l.52.36c.02.01.04.01.06.01.02 0 .04-.01.05-.03l.44-.51c.01-.02.02-.04.02-.05 0-.02-.01-.04-.03-.05l-.21-.15-.25.27c-.09.05-.15-.01-.1-.08l.24-.26-.2-.14c-.02-.01-.04-.02-.06-.01-.02 0-.04.01-.05.03l-.44.51c-.01.02-.02.03-.02.05 0 .02.01.04.03.05z"/><path fill="#F5B2B6" d="M4.78 6.02c.87-.49 1.77-1.51.91-1.74 1.21-.37 1.3.93.67 1.3-.38.2-.89.33-1.58.44z"/><path fill="#2B2A29" fill-rule="nonzero" d="M5.69 4.27l.01.03v-.03l.07.02.07.03.06.03.04.04.04.04.03.05.03.05.01.05v.11l-.01.06-.02.06-.02.06-.03.06-.03.07-.04.06-.05.07-.05.07-.05.06-.06.07-.06.06-.07.07-.07.07-.07.06-.07.06-.08.06-.08.06-.08.06-.08.06-.08.05-.08.05-.08.05-.02-.03.08-.05.09-.05.08-.05.07-.06.08-.05.08-.06.08-.06.07-.07.07-.06.07-.06.06-.07.06-.06.06-.07.05-.07.05-.06.05-.06.04-.07.03-.06.03-.06.02-.06.02-.06.01-.05v-.06l-.01-.04L6 4.54l-.02-.05-.02-.04-.04-.03-.04-.04-.06-.03-.06-.03-.07-.02v-.03zm0 .03l-.06-.01.06-.02v.03zm.68 1.29l-.02-.03.06-.04.05-.04.04-.04.05-.05.04-.05.03-.06.03-.06.03-.06.02-.06.01-.06.01-.07.01-.06v-.06l-.01-.07-.01-.06-.01-.06-.02-.06-.03-.05-.03-.06-.03-.04-.05-.05-.04-.04-.06-.04-.05-.03-.07-.02-.07-.02-.08-.01H6l-.09.01-.1.02-.11.03-.01-.03.11-.03.1-.02.1-.02h.09l.09.01.08.01.07.02.07.02.06.04.06.03.05.05.04.04.04.06.03.05.03.06.02.06.02.06.01.07v.2l-.02.06-.01.07-.02.07-.03.06-.03.06-.04.06-.04.05-.04.05-.05.05-.06.04-.05.04zm0 0h-.01.01zm-1.6.42l.02.03-.01-.03.06-.01.07-.02.06-.01.06-.01.06-.01.06-.01.05-.01.06-.01.06-.01.05-.02.05-.01.06-.01.05-.01.05-.02.05-.01.05-.01.05-.02.05-.01.04-.02.05-.01.04-.02.05-.01.04-.02.04-.01.04-.02.04-.01.04-.02.04-.02.04-.02.04-.01.03-.02.04-.02.02.03-.04.02-.04.02-.04.02-.03.01-.04.02-.04.02-.04.01-.05.02-.04.02-.04.01-.05.02-.04.01-.05.02-.04.01-.05.02-.05.01-.05.01-.05.02-.05.01-.05.01-.06.01-.05.02-.06.01-.05.01-.06.01-.06.01-.06.02-.06.01-.06.01-.06.01-.06.01-.07.01-.01-.03zm.01.03l-.09.02.08-.05.01.03z"/><path fill="#2B2A29" d="M1.12 4.33c.04 0 .07.03.07.06 0 .04-.03.07-.07.07-.03 0-.06-.03-.06-.07 0-.03.03-.06.06-.06zM1.06 4.64c.03 0 .06.03.06.07 0 .04-.03.07-.06.07-.04 0-.06-.03-.06-.07 0-.04.02-.07.06-.07zM2.42 4.59c.03 0 .06.03.06.07 0 .04-.03.06-.06.06-.04 0-.07-.02-.07-.06 0-.04.03-.07.07-.07zM2.32 4.89c.04 0 .06.03.06.06 0 .04-.02.07-.06.07-.03 0-.06-.03-.06-.07 0-.03.03-.06.06-.06z"/><path fill="#F08BB2" d="M5.99 2.82c.85.12 1.63-.33 2.54-.43.41-.05 2.44.2 2.17-.75-.04-.17-.19-.35-.42-.48C8.85.34 7.45.15 5.84.32c-1.83.35-1.28 2.27.15 2.5z"/><path fill="#2B2A29" fill-rule="nonzero" d="M8.53 2.37v.03l-.08.01-.09.02-.08.01-.08.02-.08.01-.08.02-.09.02-.08.02-.08.02-.08.02-.08.03-.07.02-.08.02-.08.02-.08.02-.08.02-.08.02-.07.02-.08.02-.08.02-.08.02-.08.01-.07.01-.08.02h-.08l-.08.01-.08.01H6.15l-.08-.01-.08-.01v-.03l.08.01h.16l.08.01.07-.01h.08l.08-.01.07-.01.08-.01.08-.01.08-.02.07-.01.08-.02.08-.02.07-.02.08-.02.08-.02.08-.02.08-.02.08-.03.08-.02.07-.02.08-.02.09-.02.08-.02.08-.02.08-.02.08-.02.09-.01.08-.02.08-.01.09-.01zm2.16-.73h.03l.02.08.01.08-.01.08-.02.07-.03.06-.04.06-.05.05-.06.05-.06.04-.07.03-.08.03-.08.03-.09.02-.09.02-.1.02-.1.01-.1.01-.1.01h-.1l-.1.01h-.94v-.03h.04l.05-.01H8.91l.08.01h.38l.1-.01h.1l.1-.01h.1l.1-.01.1-.02.09-.01.09-.02.09-.02.08-.03.07-.03.07-.03.07-.04.05-.05.05-.04.03-.06.03-.05.02-.07v-.14l-.02-.09zm-.42-.47l.02-.03.02.02.02.01.02.01.02.02.02.01.02.01.02.02.02.01.02.02.01.01.02.02.02.01.01.02.02.01.01.02.02.01.01.02.01.01.01.02.01.02.02.01.01.02.01.02.01.01v.02l.01.02.01.01.01.02v.02l.01.01.01.02v.02h-.03l-.01-.01v-.02l-.01-.01v-.02l-.01-.01-.01-.02-.01-.02v-.01l-.01-.02-.01-.01-.01-.02-.01-.01-.01-.02-.02-.02-.01-.01-.01-.02-.01-.01-.02-.02-.01-.01-.02-.01-.01-.02-.02-.01-.01-.02-.02-.01-.02-.02-.02-.01-.02-.01-.01-.02-.02-.01-.02-.01-.03-.01-.02-.02zm0 0zM5.84.33L5.83.3l.16-.01.14-.02.15-.01.15-.01h.15l.14-.01h.15l.14.01h.14l.14.01h.14l.15.02.13.01.14.02.14.02.14.02.14.03.13.02.14.04.13.03.14.04.14.04.13.04.13.05.14.05.13.06.14.05.13.07.14.06.13.07.14.07.13.07-.02.03-.13-.07-.13-.07-.14-.07L9.74.9 9.6.84 9.47.78 9.34.72 9.2.67 9.07.63 8.93.58 8.8.54 8.67.5 8.53.47 8.4.44 8.26.41 8.12.38 7.99.36 7.85.34 7.71.32 7.57.31 7.43.3 7.29.29 7.15.28H6.58l-.15.01-.14.01-.15.01-.15.01-.15.01zM5.83.3zm.16 2.51v.03l-.13-.03-.13-.03-.12-.05-.12-.05-.11-.06-.1-.07-.1-.08-.09-.08-.08-.08-.07-.09-.07-.09-.06-.1-.05-.1-.04-.1-.03-.11-.02-.1-.01-.11v-.1l.01-.11.02-.1.03-.1.04-.1.05-.1.06-.09.08-.08.09-.08.1-.08.11-.07.13-.06.13-.06.16-.04.16-.04.01.03-.16.04-.15.05-.14.05-.12.06-.11.07-.1.07-.09.08-.07.08-.06.09-.05.09-.04.1-.03.1-.02.1-.01.1v.1l.02.1.02.1.03.1.04.1.04.1.06.1.06.09.08.09.08.08.08.08.1.07.1.07.11.06.11.05.12.04.12.04.13.03zm0 .03z"/><path fill="#6FA691" d="M5.8 2.72c.84.12 1.52-.3 2.48-.53.55-.14 1.49.04 2.03-.1.52-.15.77-.81.21-1.2C9.07.18 7.24.16 5.64.22c-1.83.35-1.28 2.27.16 2.5z"/><path fill="#2B2A29" fill-rule="nonzero" d="M8.27 2.17l.01.03-.09.03-.09.02-.08.02-.08.03-.09.02-.08.03-.08.03-.08.02-.08.03-.08.03-.07.02-.08.03-.08.02-.07.03-.08.02L7 2.6l-.07.03-.08.02-.07.02-.07.01-.08.02-.07.02-.08.01-.07.01-.08.01-.07.01H5.95l-.08-.01-.07-.01v-.03l.08.01h.08l.07.01H6.18l.08-.01.07-.01h.07l.08-.01.07-.02.07-.01.08-.02.07-.02.07-.02.08-.02.07-.02.07-.02.08-.02.07-.03.08-.02.08-.03.07-.03.08-.02.08-.03.08-.03.08-.02.08-.03.09-.02.08-.03.09-.02.08-.03.09-.02zm2.03-.1l.01.04-.05.01-.06.01-.05.01h-.06l-.06.01h-.06l-.07.01h-.53l-.07-.01H8.62l-.06.01H8.5l-.06.01-.05.01-.06.01-.05.01-.01-.03.06-.01.05-.01.06-.01.06-.01.06-.01h.13l.06-.01h.34l.07.01h.28l.07.01h.33l.06-.01h.13l.06-.01.05-.01.06-.01.05-.01.05-.01zm.01.04zm.21-1.2l.01-.03.05.04.05.03.04.05.04.04.03.04.03.05.02.04.03.05.01.04.01.05.01.05.01.04v.05l-.01.04v.05l-.01.05-.01.04-.02.04-.02.05-.02.04-.03.04-.02.03-.03.04-.04.04-.03.03-.04.03-.04.03-.04.03-.04.02-.05.02-.05.02-.05.02-.01-.04.05-.01.05-.02.04-.02.04-.02.04-.03.04-.03.04-.03.03-.03.03-.03.03-.04.03-.03.02-.04.02-.04.02-.04.01-.04.02-.04.01-.05v-.17l-.01-.04-.01-.05-.02-.04-.02-.04-.02-.05-.03-.04-.03-.04-.03-.04-.04-.04-.05-.04-.05-.03h.01zm.01-.03zM5.65.24L5.64.2h.15l.15-.01h.16l.15-.01h.78l.16.01h.16l.16.01.15.01.16.01.16.01.16.02.16.02.15.02.16.02.15.02.16.03.15.03.15.04.16.03.15.04.14.04.15.05.15.05.14.05.14.06.14.06.14.07-.01.03-.14-.07-.14-.06-.14-.05-.14-.06-.15-.05-.14-.04-.15-.05L9.37.5 9.22.46 9.07.43 8.91.4 8.76.37 8.6.34 8.45.32 8.29.3 8.14.28 7.98.27 7.82.25 7.66.24 7.5.23h-.15L7.19.22h-.16L6.87.21h-.31l-.15.01H6.1l-.16.01h-.15l-.15.01h.01zM5.64.2zm.16 2.51v.03h-.01l-.13-.03-.13-.03-.12-.05-.11-.05-.11-.06-.11-.07-.09-.07-.09-.08-.08-.09-.08-.09-.06-.09-.06-.1-.05-.1-.04-.1-.03-.11-.02-.1-.01-.11-.01-.1.01-.11.02-.1.03-.1.04-.1.06-.09.06-.1.07-.08.09-.08.1-.08.12-.07.12-.06.14-.05.15-.05.17-.04.01.04-.17.03-.15.05-.13.05-.13.06-.11.07-.1.07-.08.08-.07.09-.07.08-.05.1-.04.09-.02.1-.02.1-.01.1v.1l.01.1.02.1.03.11.04.1.05.09.06.1.06.09.07.09.08.08.09.08.09.07.1.07.11.06.11.05.12.05.13.03.13.03zm0 .03h-.01.01z"/><path fill="#F5B2B6" fill-rule="nonzero" d="M6.74 1.73c.18.21.51.53.81.65.19.1-.59.31-.95.18-.28-.11-.36-.25-.65-.58l.79-.25z"/><path fill="#2B2A29" fill-rule="nonzero" d="M7.56 2.37l-.02.03-.02-.02-.03-.01-.03-.01-.03-.02-.03-.01-.03-.02-.03-.02-.03-.02-.03-.02-.02-.02-.03-.02-.03-.02-.03-.02-.03-.02-.02-.02-.03-.03-.03-.02-.02-.02-.03-.03-.03-.02-.02-.02-.02-.03-.03-.02-.02-.02-.02-.03-.03-.02-.02-.02-.02-.02-.02-.03-.02-.02-.01-.02-.02-.02.02-.02.02.02.02.02.02.02.02.02.02.02.02.03.02.02.02.02.03.02.02.03.02.02.03.02.02.03.03.02.02.02.03.03.03.02.02.02.03.02.03.02.03.02.03.02.02.02.03.02.03.02.03.02.03.02.03.01.02.02.03.01.03.01.03.01v.01zm0-.01v.01-.01zm-.97.22l.01-.03.04.01.03.01h.04l.04.01h.27l.04-.01h.05l.04-.01h.04l.05-.01.04-.01.04-.01.03-.01.04-.01.03-.01.03-.01.03-.01.02-.01.02-.02.02-.01.01-.01.01-.01V2.4h-.02l.02-.03.02.01.01.01.01.02v.02l-.01.01-.01.02-.02.01-.02.01-.02.02-.03.01-.02.01-.04.01-.03.01-.04.01-.03.01-.04.01-.05.01-.04.01-.04.01h-.05l-.05.01h-.04l-.05.01h-.18l-.04-.01h-.04l-.04-.01-.04-.01-.04-.01zm0 0zm-.64-.61l.01.03v-.03l.03.03.03.03.02.03.02.03.03.02.02.03.02.02.02.02.02.03.02.02.01.02.02.02.02.02.02.02.01.01.02.02.02.02.01.01.02.02.02.01.02.02.01.01.02.01.02.02.02.01.02.01.02.01.02.01.02.02.02.01.03.01.02.01-.01.03-.03-.01-.02-.01-.02-.01-.03-.01-.02-.02-.02-.01-.02-.01-.02-.01-.02-.02-.02-.01-.02-.02-.01-.01-.02-.02-.02-.01-.02-.02-.01-.01-.02-.02-.02-.02-.02-.02-.01-.02-.02-.02-.02-.02-.02-.02-.02-.02-.02-.03-.02-.02-.02-.03-.02-.02-.03-.03-.02-.03-.02-.03-.03-.03.01-.02zm-.01.02l-.02-.02h.03l-.01.02zm.81-.24L5.96 2l-.01-.03.79-.26.01.01v.03zm-.01-.04h.01v.01l-.01-.01z"/><path fill="#BDD180" fill-rule="nonzero" d="M8.37 1.49c.17.21.51.53.81.65.19.1-.59.31-.96.19-.27-.12-.35-.26-.64-.58l.79-.26z"/><path fill="#2B2A29" fill-rule="nonzero" d="M9.18 2.13l-.01.03-.03-.01-.03-.02-.03-.01-.03-.02-.02-.01L9 2.07l-.03-.02-.03-.02-.03-.01L8.88 2l-.03-.02-.03-.03-.02-.02-.03-.02-.03-.02-.03-.02-.02-.03-.03-.02-.03-.02-.02-.03-.03-.02-.02-.02-.02-.03-.03-.02-.02-.02-.02-.03-.02-.02-.02-.02-.02-.02-.02-.03-.02-.02-.02-.02.03-.02.02.02.01.02.02.02.02.02.02.03.02.02.03.02.02.02.02.03.02.02.03.02.02.03.03.02.02.02.03.03.03.02.02.02.03.02.03.03.03.02.02.02.03.02.03.02.03.02.03.01.02.02.03.02.03.01.03.02.03.01.02.02.03.01zm0 0zm-.97.21l.02-.03.03.01.04.01.04.01h.08l.04.01h.09l.05-.01h.09l.04-.01h.05l.04-.01.04-.01.04-.01.04-.01.04-.01.03-.01.04-.01.03-.01.03-.01.02-.01.02-.01.02-.01.01-.01v-.01l.01-.01v-.01h-.01l-.01-.01.01-.03.02.01.02.01v.04l-.01.02-.01.01-.01.01-.02.02-.03.01-.02.01-.03.01-.03.01-.03.02-.04.01-.04.01-.04.01h-.04l-.04.01-.05.01-.04.01h-.05l-.05.01h-.27l-.04-.01-.04-.01-.04-.01-.03-.01h-.01zm.01 0h-.01.01zm-.65-.61l.01.03.01-.03.03.03.02.03.03.03.02.03.02.02.02.03.02.02.02.03.02.02.02.02.02.02.02.02.01.02.02.02.02.02.02.01.01.02.02.02.02.01.01.02.02.01.02.01.02.02.01.01.02.01.02.01.02.02.02.01.03.01.02.01.02.01.03.01-.02.03-.02-.01-.03-.01-.02-.01-.02-.01-.02-.01-.03-.02-.02-.01-.02-.01-.01-.02L8 2.22l-.02-.01-.02-.02-.02-.01-.01-.02-.02-.02-.02-.01-.02-.02-.01-.02-.02-.02-.02-.02-.02-.02-.01-.02-.02-.02-.02-.02-.02-.02-.02-.03-.02-.02-.03-.03-.02-.03-.02-.02-.03-.03-.03-.03.01-.03zm-.01.03l-.01-.02.02-.01-.01.03zm.81-.25l-.79.25-.01-.03.79-.25h.02l-.01.03zm-.01-.03l.01-.01.01.01h-.02z"/><path fill="#BDD180" fill-rule="nonzero" d="M8.2 2.2c.16.12.38.09.5-.07s.09-.38-.07-.5c-.49-.36-.68-.69-.77-.98-.05-.17-.07-.36.02-.47.06-.05-.42-.25-.69-.01-.06.13-.12.36-.01.7.14.44.41.88 1.02 1.33z"/><path fill="#2B2A29" fill-rule="nonzero" d="M8.72 2.14l-.02.01-.01.02-.01.01-.02.02-.01.01-.01.01-.02.01-.02.01-.01.01-.02.01h-.01l-.02.01h-.02l-.02.01h-.01l-.02.01H8.36l-.02-.01h-.03l-.02-.01-.02-.01h-.01l-.02-.01-.02-.01-.01-.01-.02-.01.02-.03.02.01.01.01.02.01h.01l.02.01.01.01h.02l.01.01h.04l.01.01h.05l.02-.01h.05l.01-.01h.02l.01-.01.02-.01h.01l.02-.01.01-.01.02-.01.01-.01.01-.01.01-.01.02-.01.01-.02.01-.01.03.02zm-.08-.52l.01.01.02.01.01.01.01.02.02.01.01.02.01.01.01.02.01.01v.02l.01.01.01.02v.02l.01.02v.03l.01.02V1.97l-.01.02V2l-.01.02v.02l-.01.02-.01.01v.02l-.01.02-.01.01-.01.02-.03-.02.01-.02.01-.01.01-.02v-.01l.01-.02.01-.01v-.02L8.75 2v-.15l-.01-.02V1.8l-.01-.01-.01-.02v-.01l-.01-.02-.01-.01-.01-.01-.01-.02-.01-.01-.01-.01-.02-.02-.01-.01-.01-.01.02-.02zM7.88.65l.01.03.01.02.01.03.01.03.01.03.01.02.01.03.02.03.01.03.02.03.01.03.02.03.02.03.02.02.02.03.02.03.02.03.03.04.02.03.03.03.03.03.02.03.04.03.03.03.03.04.04.03.03.03.04.03.04.04.04.03.04.03.05.04-.02.02-.05-.03-.04-.03-.04-.04-.04-.03-.04-.03-.04-.04-.03-.03-.04-.03-.03-.03-.03-.04-.03-.03-.03-.03-.02-.03-.03-.03-.02-.03-.03-.04-.02-.03-.02-.03-.02-.03L8 1 7.98.97 7.97.94 7.95.91 7.94.89 7.92.86 7.91.83 7.9.8 7.89.77 7.87.74 7.86.71 7.85.69V.66l.03-.01zm0 0v.01-.01zm.01-.46V.2l-.01.01-.01.01v.01l-.01.01v.01l-.01.02v.02l-.01.02v.07l-.01.01v.02l.01.01V.5l.01.02v.03l.01.02V.6l.01.02v.01l.01.02-.03.01-.01-.02V.63L7.83.61V.59L7.82.58V.54L7.81.53V.49L7.8.48V.35l.01-.02V.29l.01-.02V.26l.01-.02V.23l.01-.01V.2l.01-.01.01-.01.01-.01.02.02zM7.87.17zM7.18.16l.03-.02.03-.02.03-.02.02-.02.04-.01.03-.01.03-.01.03-.01h.09l.03-.01.03.01h.06l.03.01h.03l.02.01h.03l.02.01.03.01.02.01.01.01.02.01h.02l.01.01.01.01.01.01.01.01v.03l-.01.01-.02-.02-.01-.01-.01-.01-.01-.01h-.01L7.81.13 7.79.12 7.77.11 7.75.1h-.02L7.71.09h-.03L7.66.08h-.03L7.6.07h-.15l-.03.01H7.4l-.03.01-.03.01-.03.01-.03.02-.03.02-.02.01-.03.02h.01L7.18.16zm0 0zm-.02.71V.84L7.15.81 7.14.78 7.13.75V.72L7.12.69V.66L7.11.64V.56L7.1.53V.49l.01-.03V.38l.01-.02V.32L7.13.3V.28l.01-.01V.25l.01-.02V.22L7.16.2l.01-.01V.18l.01-.02.03.02-.01.01V.2l-.01.02v.01l-.01.02v.01l-.01.02v.01l-.01.02v.02l-.01.01v.04L7.14.4v.21l.01.02v.06l.01.03v.02l.01.03.01.03.01.03.01.03-.04.01zm1.03 1.35l-.05-.05-.06-.04-.05-.04-.05-.04L7.93 2l-.05-.04-.04-.04-.05-.04-.04-.04-.04-.05-.04-.04-.04-.04-.03-.04-.04-.05-.03-.04-.03-.04-.03-.04-.03-.04-.02-.05-.03-.04-.02-.04-.03-.04-.02-.04-.02-.04-.02-.05-.02-.04-.02-.04-.02-.04L7.21 1 7.19.96 7.18.92 7.16.87 7.2.86l.01.05.01.04.02.04.02.04.01.04.02.04.02.04.02.04.02.04.02.04.02.04.03.05.02.04.03.04.03.04.03.04.03.04.03.04.04.04.03.05.04.04.04.04.04.04.04.04.04.05.04.04.05.04.05.04.05.04.05.04.06.05.05.04-.02.03zm.02-.03z"/><path fill="#2B2A29" fill-rule="nonzero" d="M7.77.7l-.53.37c-.04.03-.07.07-.08.12-.01.04 0 .09.02.13.07.1.29.48.35.53.03.04.07.07.11.08.05.01.1 0 .14-.03l.53-.38c.05-.02.07-.06.08-.11.01-.04 0-.09-.02-.13L8.02.75C8 .71 7.95.68 7.91.67c-.05-.01-.09 0-.14.03zm-.47.46l.53-.37c.02-.02.04-.02.06-.01.02 0 .03.01.04.03l.35.52c.01.02.01.04.01.06-.01.02-.02.03-.03.04l-.22.16-.2-.27c-.07-.06-.14 0-.11.07l.2.27-.21.15c-.02.01-.04.02-.06.01-.01 0-.03-.01-.04-.03l-.35-.53c-.01-.01-.01-.03-.01-.05.01-.02.02-.04.04-.05z"/><path fill="#F08BB2" fill-rule="nonzero" d="M6.58 2.44c.16.12.38.08.5-.07.11-.16.08-.39-.08-.5-.48-.36-.67-.69-.76-.98-.08-.23 0-.45.21-.67.12-.15-.55-.33-.82-.08-.16.31-.18.63-.07.97.14.43.41.88 1.02 1.33z"/><path fill="#2B2A29" fill-rule="nonzero" d="M7.09 2.38l-.01.01-.01.02-.02.01-.01.01-.01.01-.02.02-.01.01-.02.01h-.02l-.01.01-.02.01-.02.01H6.9l-.02.01h-.04l-.01.01h-.08l-.01-.01H6.7l-.02-.01h-.01l-.02-.01-.02-.01-.01-.01H6.6l-.02-.01-.01-.02.02-.02.01.01.02.01h.01l.02.01.01.01h.02l.01.01h.02l.02.01h.13l.01-.01h.02l.01-.01h.02l.01-.01.02-.01h.01l.02-.01.01-.01.01-.01.02-.01.01-.01.01-.02.01-.01.01-.01.03.02zm-.08-.53l.02.01.01.02.02.01.01.01.01.02.01.01.01.02.01.01.01.02.01.02.01.01v.02l.01.02v.01l.01.02v.14l-.01.02v.02l-.01.02v.01l-.01.02-.01.02-.01.01-.01.02-.01.02-.03-.02.01-.02.01-.01.01-.02.01-.01.01-.02v-.01l.01-.02v-.03l.01-.02v-.1l-.01-.01v-.03l-.01-.02-.01-.02v-.01l-.01-.02-.01-.01-.01-.01-.01-.02-.01-.01-.01-.01-.01-.02-.01-.01-.01-.01-.02-.01.02-.03zM6.25.89l.01.02.01.03.01.03.01.03.01.02.02.03.01.03.01.03.02.03.01.02.02.03.02.03.01.03.02.03.02.03.03.03.02.03.02.03.03.03.02.03.03.04.03.03.03.03.03.03.04.03.03.03.04.04.03.03.04.03.05.04.04.03.04.03-.02.03-.04-.03-.05-.04-.04-.03-.04-.03-.04-.04-.03-.03-.04-.03-.03-.04-.03-.03-.03-.03-.03-.03-.03-.03-.03-.03-.02-.04-.03-.03-.02-.03-.02-.03-.03-.03-.02-.03-.01-.03-.02-.03-.02-.03-.01-.03-.02-.03-.01-.03-.02-.03-.01-.02-.01-.03-.01-.03-.01-.03-.01-.03L6.22.9l.03-.01zm.21-.66l-.02.02-.02.03L6.4.3l-.01.02-.02.02-.01.02-.02.02-.01.02-.01.02-.01.02-.02.02-.01.02-.01.02v.02l-.01.02-.01.02v.02L6.24.6v.02l-.01.02V.8l.01.02v.02l.01.03v.02L6.22.9 6.21.87V.85L6.2.83V.79L6.19.77V.68L6.2.66V.61l.01-.02V.57l.01-.02.01-.02V.51l.01-.03.01-.02.01-.02.02-.02.01-.02.01-.02.01-.02.02-.02.02-.02.01-.03.02-.02.02-.02.02-.02.02-.02h-.01l.03.02zm0 0zm-.85-.1h.01l.03-.02.02-.02.04-.02.03-.02.03-.01.04-.01.04-.01.04-.01h.03L5.96 0h.16l.03.01h.04l.03.01.04.01.03.01.03.01.03.01.02.01.03.01.02.01.02.02.01.01.02.02v.02l.01.02V.2l-.01.02-.01.01-.03-.02.01-.01.01-.01V.18L6.44.17V.16L6.43.15 6.42.14 6.4.12 6.38.11 6.36.1 6.33.09 6.31.08 6.28.07 6.25.06 6.22.05h-.04L6.15.04h-.07L6.04.03H6l-.04.01h-.07l-.04.01-.03.01-.03.01-.04.01-.03.02-.03.01-.02.02-.03.02-.03-.02zm0 0h.01-.01zm-.07.98l-.01-.03-.01-.03-.01-.03V.98L5.5.95 5.49.92V.89L5.48.86V.79L5.47.76V.64l.01-.03V.55l.01-.03V.49L5.5.46V.43L5.51.4l.01-.03.01-.03.01-.03.01-.03.01-.03.01-.03.02-.03.01-.03.01-.03.03.02-.01.03-.01.03-.02.02-.01.03-.01.03-.01.03-.01.03-.01.03-.01.03v.03l-.01.02v.03l-.01.03v.03l-.01.03v.24l.01.03v.03l.01.03v.04l.01.03.01.03v.03l.01.03.01.03-.03.01zm1.03 1.34l-.06-.04-.05-.04-.06-.04-.05-.05-.05-.04-.04-.04-.05-.04-.04-.05-.04-.04-.04-.04-.04-.04-.04-.04-.04-.05-.03-.04-.03-.04-.03-.04-.03-.04-.03-.05-.03-.04-.03-.04-.02-.04-.02-.04-.03-.04-.02-.05-.02-.04-.02-.04-.01-.04-.02-.04-.02-.04-.01-.05-.02-.04-.01-.04.03-.01.02.04.01.04.01.04.02.04.02.05.02.04.01.04.02.04.02.04.03.04.02.04.02.04.03.04.03.05.02.04.03.04.03.04.04.04.03.04.04.04.03.05.04.04.04.04.04.04.04.04.05.04.05.05.04.04.05.04.06.04.05.04.06.05-.02.02z"/><path fill="#2B2A29" fill-rule="nonzero" d="M6.15.93l-.54.38c-.04.03-.07.07-.08.11-.01.05 0 .1.03.14.06.1.29.47.35.53.02.04.06.06.11.07.04.01.09.01.13-.02l.54-.38c.04-.02.07-.07.08-.11.01-.05 0-.09-.03-.14L6.4.99C6.37.94 6.33.92 6.28.91c-.04-.01-.09 0-.13.02zm-.48.47l.54-.38c.01-.01.03-.01.05-.01.02.01.04.02.05.03l.34.53c.01.02.02.04.01.06 0 .01-.01.03-.03.04l-.22.15-.2-.27c-.07-.05-.14.01-.1.08l.19.27-.21.15c-.01.01-.03.01-.05.01-.02-.01-.04-.02-.05-.03l-.34-.53c-.01-.02-.01-.04-.01-.06 0-.01.01-.03.03-.04z"/><path fill="#F5B2B6" d="M9.72 2.14c.89-.59.91-1.32.06-1.55.83.02 1.18.58 1.05 1.01-.15.49-.69.53-1.11.54z"/><path fill="#2B2A29" fill-rule="nonzero" d="M9.78.58v.03-.03l.08.02.07.03.07.03.07.03.05.03.06.04.04.04.05.04.03.04.04.04.02.05.02.05.02.05.01.05.01.06v.05l-.01.06-.01.05-.01.06-.02.06-.03.06-.03.06-.03.05-.04.06-.05.06-.05.06-.05.06-.07.06-.06.06-.07.05-.08.06-.08.06-.02-.03.08-.06.08-.05.07-.06.06-.06.06-.05.06-.06.05-.06.04-.06.04-.05.03-.06.03-.06.03-.05.02-.06.01-.05.01-.06.01-.05-.01-.05v-.05l-.01-.05-.02-.05-.02-.04-.02-.05-.03-.04-.04-.04-.04-.04-.04-.04-.06-.03-.05-.03-.06-.03-.07-.03-.07-.03-.08-.02.01-.03zm-.01.03L9.63.57l.15.01-.01.03zm1.07.99l-.03-.01.01-.04.01-.04v-.04l.01-.04v-.04l-.01-.04v-.04l-.01-.04-.01-.05-.02-.04-.01-.04-.02-.04-.03-.04-.02-.03-.03-.04-.03-.04-.03-.03-.04-.04-.04-.03-.04-.03-.04-.03-.05-.03-.05-.02-.06-.03-.05-.02-.06-.02-.06-.01-.07-.02L10 .63 9.93.62 9.85.61h-.07V.58h.08l.07.01.07.01.07.01.07.01.06.02.06.02.06.02.05.03.05.02.05.03.05.03.04.03.04.04.04.03.04.04.03.04.03.04.02.04.03.04.02.04.02.04.01.04.01.05.01.04.01.05v.13l-.01.04-.01.04-.01.04zm-1.13.53l.02.03-.01-.03h.04l.04-.01h.12l.04-.01h.09l.04-.01.04-.01h.04l.04-.01.04-.01.04-.01.04-.01.04-.02.04-.01.03-.02.04-.01.03-.02.04-.02.03-.02.03-.03.03-.02.03-.03.02-.03.03-.03.02-.04.02-.03.02-.04.02-.04.01-.05.03.01-.01.05-.02.04-.02.04-.02.04-.02.04-.03.03-.03.03-.03.03-.03.03-.03.02-.03.03-.04.02-.03.02-.04.01-.04.02-.04.02-.04.01-.04.01-.04.01-.04.01-.04.01-.04.01h-.05l-.04.01h-.04l-.04.01h-.09l-.04.01h-.12l-.01-.03zm.01.03h-.06l.05-.03.01.03z"/><path fill="#2B2A29" d="M5.83.83c.03 0 .06.03.06.06 0 .04-.03.07-.06.07S5.77.93 5.77.89c0-.03.03-.06.06-.06zM5.82.53c.04 0 .07.03.07.07 0 .03-.03.06-.07.06-.03 0-.06-.03-.06-.06 0-.04.03-.07.06-.07zM7.46.58c.03 0 .06.03.06.07 0 .04-.03.07-.06.07S7.4.69 7.4.65c0-.04.03-.07.06-.07zM7.43.32c.04 0 .06.03.06.07 0 .03-.02.06-.06.06-.03 0-.06-.03-.06-.06 0-.04.03-.07.06-.07z"/></svg>