<svg xmlns="http://www.w3.org/2000/svg" width="78" height="64" fill-rule="evenodd" clip-rule="evenodd" image-rendering="optimizeQuality" shape-rendering="geometricPrecision" text-rendering="geometricPrecision" viewBox="0 0 9 7.31"><path fill="#99CFBA" d="M2.09 2.46C3.41.85 4.36-.27 5.15.24c.76.81-.68 2.14-1.06 3.45-.43.99-.82 2.21-2.67 2.19-.8-1.28-.34-2.28.67-3.42z"/><path fill="#2B2A29" fill-rule="nonzero" d="M5.17.23l-.04.03h.01L5.07.22 4.99.18 4.92.16 4.84.14H4.69l-.08.01-.08.01-.08.03-.09.03-.08.04-.09.05-.09.05-.08.07-.1.06-.09.08-.09.08-.1.09-.1.09-.1.1-.1.1-.1.11-.1.12-.11.12-.11.12-.11.13-.11.13-.12.14-.11.14-.12.14-.12.15-.12.15-.04-.03.13-.15.12-.15.11-.14.12-.14.12-.14.11-.13.11-.13.11-.12.1-.12.11-.12.1-.11.1-.1.1-.1.1-.09.1-.09.09-.08.1-.08.09-.07.09-.06.09-.06.09-.05.09-.04.08-.03.09-.03.08-.01.09-.01.08-.01.08.01.08.02.08.02.08.04.07.04.01.01zM5.16.22v.01h.01L5.16.22zM4.11 3.7l-.04-.02.04-.12.04-.13.05-.12.05-.12.06-.12.06-.13.07-.12.06-.12.07-.12.07-.12.07-.12.06-.12.07-.11.06-.12.07-.11.06-.11.05-.11.06-.11.04-.11.05-.11.03-.1.04-.1.02-.1.02-.1V.66L5.32.57 5.29.49 5.25.41 5.2.33 5.13.26l.04-.03.06.08.06.08.04.08.03.09.02.09.01.1v.09l-.01.1-.02.1-.02.1-.03.1-.04.11-.05.11-.04.1-.06.11-.05.12L5 1.9l-.06.11-.06.12-.07.12-.07.11-.07.12-.06.12-.07.12-.06.12-.07.12-.06.12-.06.13-.05.12-.05.12-.04.12-.04.12v.01zm0-.01v.01-.01zm-2.7 2.2l.03-.02-.02-.01.17-.01h.16l.15-.02.15-.02.13-.03.13-.03.13-.04.11-.05.11-.04.1-.06.1-.06.09-.06.09-.07.08-.07.08-.07.07-.08.07-.08.07-.08.06-.09.06-.09.05-.09.05-.09.05-.09.05-.1.05-.09.04-.1.05-.09.04-.1.04-.1.04-.09.04-.1.04-.09.04.02-.04.09-.04.09-.04.1-.04.1-.05.09-.04.1-.04.1-.05.09-.05.1-.05.09-.05.09-.06.1-.06.08-.06.09-.07.09-.07.08-.07.08-.08.07-.08.08-.09.06-.1.07-.1.06-.1.05-.11.05-.12.05-.13.04-.13.03-.14.03-.14.02-.15.02-.17.01h-.17l-.01-.01zm.01.01h-.01v-.01l.01.01zm.65-3.45l.04.03-.1.1-.09.11-.08.1-.08.11-.08.1-.08.1-.07.11-.06.1-.07.1-.05.1-.06.1-.05.11-.04.1-.04.1-.03.1-.03.1-.02.11-.02.1-.02.1v.32l.01.1.02.11.02.11.03.11.04.11.04.11.05.12.06.11.06.12.07.12-.03.02-.08-.12-.06-.12-.06-.12-.05-.11-.04-.12-.04-.11-.03-.11-.02-.11-.02-.11L1 4.75l-.01-.11v-.11l.01-.1.01-.11.02-.1.03-.11.03-.1.03-.11.04-.1.05-.1.04-.11.06-.1.06-.1.06-.1.07-.11.07-.1.07-.1.08-.11.08-.1.09-.11.09-.1.09-.11zm.04.03z"/><path fill="#A1B567" d="M1.75 2.25C3.07.63 4.06-.03 4.81.02c.96.35-.55 2.11-.99 3.45-.35 1.07-.74 2.36-2.74 2.37-.8-1.28-.34-2.46.67-3.59z"/><path fill="#2B2A29" fill-rule="nonzero" d="M4.82 0L4.8.04l.01.01-.07-.01h-.07l-.08.01-.07.01-.08.01-.07.02-.08.03-.08.02-.09.03-.08.04-.08.04-.09.05-.09.05-.09.05-.09.06-.1.07-.09.07-.1.07-.1.08-.1.09-.1.09-.1.09-.11.1-.11.11-.11.11-.11.11-.11.12-.12.13-.11.13-.12.14-.12.14-.12.15-.04-.03.12-.15.13-.14.11-.14.12-.13.12-.13.11-.12.11-.11.11-.12.11-.1.11-.1.1-.1.1-.09.11-.08.1-.08.09-.08.1-.07.09-.06.1-.06.09-.06.09-.05.09-.05.08-.04.09-.04.08-.03.08-.03.09-.02.07-.02.08-.01.08-.01.07-.01H4.82zm-.01 0h.01-.01zm-.97 3.48l-.04-.02.05-.12.05-.13.05-.14.06-.13.07-.13.06-.14.07-.13.07-.13.07-.14.07-.13.07-.14.07-.13.07-.13.07-.13.06-.12.06-.12.06-.12.05-.12.05-.11.04-.11.03-.11.02-.1.02-.09.01-.09V.44L5.09.36 5.07.29 5.04.23 5 .17 4.95.12 4.88.08 4.8.04 4.82 0l.08.04.07.05.06.05.05.07.03.07.02.07.01.08v.09l-.01.09-.01.1-.03.1-.03.11-.04.11-.05.12-.05.11-.06.12-.06.13-.06.12-.07.13-.07.13-.07.13-.07.14-.07.13-.07.14-.07.13-.07.13-.07.14-.06.13-.06.13-.05.13-.05.13-.05.13zM1.07 5.85l.03-.02-.02-.01.18-.01.18-.01.16-.02.15-.02.15-.03.14-.04.13-.04.12-.05.12-.06.11-.06.1-.06.1-.07.09-.07.09-.08.08-.08.07-.08.07-.09.07-.09.06-.09.06-.09.05-.1.06-.1.04-.1.05-.1.04-.1.04-.1.04-.11.04-.1.03-.1.04-.11.03-.1.03-.1.04.02-.03.1-.03.1-.04.1-.03.1-.04.11-.04.1-.04.1-.04.11-.05.1-.05.1-.05.1-.05.1-.06.09-.07.1-.06.09-.07.09-.08.08-.08.08-.09.08-.09.08-.1.06-.11.07-.11.06-.12.06-.12.05-.14.04-.14.04-.15.03-.15.03-.17.01-.17.02h-.19l-.01-.01zm.01.01h-.01v-.01l.01.01zm.65-3.63l.04.03h-.01l-.09.11-.09.1-.08.11-.08.11-.08.1-.08.11-.07.11-.06.11-.07.11-.05.11-.06.1-.05.11-.04.11-.04.11-.03.11-.03.11-.03.12-.01.11-.02.11V4.67l.01.11.02.11.02.12.03.11.04.12.04.12.05.11.06.12.06.12.07.12-.03.02-.08-.12-.06-.12-.06-.12-.05-.12-.04-.12-.04-.11-.03-.12-.02-.12-.02-.11-.01-.12-.01-.12v-.11l.01-.12.01-.11.02-.11.03-.12.03-.11.03-.11.04-.11.04-.11.05-.11.06-.11.06-.11.06-.11.07-.11.07-.11.07-.11.08-.11.08-.11.09-.1.09-.11.09-.11zm.04.03h-.01.01z"/><path fill="#F5B2B6" d="M.38 2.69c1.25-.92 2.99.09 3.59 1.13C3.4 4.99 2.66 6.38.88 5.85c-.66-.43-1.27-.94-.5-3.16z"/><path fill="#2B2A29" fill-rule="nonzero" d="M3.99 3.83l-.04-.02v.02l-.06-.1-.06-.09-.07-.1-.08-.09-.08-.09-.09-.09-.09-.09-.1-.09-.1-.08-.11-.08L3 2.85l-.11-.07-.11-.07-.12-.06-.12-.06-.13-.05-.12-.05-.13-.04-.13-.03-.13-.03-.12-.02-.13-.01-.13-.01h-.13l-.13.01-.13.02-.13.03-.12.04-.13.05-.12.06-.12.06-.12.08-.02-.03.12-.08.12-.07.12-.06.13-.05.13-.04.13-.03.13-.02.13-.01h.27l.13.02.13.02.13.03.13.03.13.04.13.05.12.05.13.06.12.07.11.07.12.07.11.07.1.08.11.09.1.09.09.08.09.1.08.09.08.09.07.1.07.1.06.1v.02zm0-.02v.02-.02zM.87 5.87l.03-.04H.89l.16.05.16.03.15.02.14.01h.28l.12-.02.13-.02.12-.03.11-.04.11-.05.11-.05.1-.06.1-.07.09-.07.09-.07.09-.09.09-.08.08-.09.07-.1.08-.1.07-.1.07-.1.07-.11.06-.11.07-.11.06-.11.06-.11.06-.11.05-.11.06-.11.05-.11.04.02-.05.11-.06.11-.06.11-.05.11-.06.11-.06.12-.07.11-.06.11-.07.1-.07.11-.08.1-.07.1-.08.09-.08.1-.09.08-.09.09-.09.08-.1.07-.1.07-.1.06-.11.05-.11.05-.12.04-.12.03-.13.03-.13.01-.14.01-.14-.01-.15-.01-.15-.02-.16-.03-.16-.05H.87zm.01 0H.87h.01zm-.51-3.2l.02.03.01-.01-.07.21-.06.19-.05.18-.05.18-.03.16-.03.16-.03.15-.02.14-.01.13-.01.13v.12l.01.11.01.1.01.1.02.1.02.08.03.09.03.07.04.08.04.07.04.06.04.06.05.06.05.05.05.05.06.05.05.05.06.05.06.04.06.04.06.04.07.04-.03.04-.06-.04-.06-.04-.06-.04-.06-.05-.06-.05-.06-.04-.06-.05L.4 5.5l-.05-.05-.05-.06-.05-.07-.04-.06-.04-.07-.04-.08-.03-.08-.03-.08-.02-.09-.02-.1-.02-.1L0 4.55V4.32l.01-.13.01-.14.02-.14.02-.15.03-.16.04-.16.05-.18.05-.18.06-.2.07-.2.01-.01zm-.01.01v-.01h.01l-.01.01z"/><path fill="#F08BB2" d="M3.26 5.05c-.52.68-1.23 1.14-2.38.8C.27 5.46-.29 4.99.22 3.2c1.24-.77 2.89.17 3.47 1.17-.11.23-.3.45-.43.68z"/><path fill="#2B2A29" fill-rule="nonzero" d="M.87 5.87l.03-.04H.89l.1.03.11.03.1.02.1.01.09.01.09.01h.27l.08-.01.09-.01.08-.01.08-.02.07-.02.08-.03.07-.03.07-.03.07-.03.07-.04.06-.03.06-.05.07-.04.06-.05.06-.04.06-.05.05-.06.06-.05.05-.06.05-.06.05-.06.05-.06.05-.06.04.03-.05.06-.05.06-.06.06-.05.06-.05.06-.06.05-.06.06-.06.05-.06.05-.06.05-.06.04-.07.04-.06.04-.07.04-.07.03-.08.03-.07.03-.08.03-.07.02-.08.02-.09.01-.08.01-.09.01-.09.01h-.09l-.09-.01h-.09l-.1-.02-.1-.01-.1-.02-.11-.03-.1-.03H.87zm.01 0H.87h.01zM.21 3.18l.02.04.01-.02-.05.17-.03.15-.04.15-.02.14-.02.14-.02.13-.01.12-.01.11v.11l.01.11v.09l.02.1.01.09.02.08.03.08.02.07.03.07.03.07.04.06.04.06.04.05.04.06.05.05.05.05.04.04.06.05.05.04.05.04.06.04.05.04.06.04.06.03-.03.04-.06-.04-.05-.04-.06-.03-.05-.04-.06-.05-.05-.04-.05-.04-.06-.05-.04-.05-.05-.05-.04-.06-.05-.06-.04-.06-.03-.06-.04-.07-.03-.07-.03-.08-.02-.08-.02-.09-.02-.09-.01-.09-.01-.1v-.22l.01-.12.01-.12.01-.13.03-.13.02-.15.03-.15.04-.15.05-.17.01-.01zm-.01.01v-.01h.01l-.01.01zm3.51 1.19l-.04-.02v.02l-.05-.09-.07-.1-.06-.09-.08-.09-.08-.09-.08-.08-.09-.09-.09-.08-.1-.08-.1-.07-.11-.08-.11-.07-.11-.06-.11-.06-.12-.06-.12-.05-.12-.05-.12-.04-.12-.03-.13-.03-.12-.02-.13-.02-.12-.01h-.25l-.13.02-.12.02-.13.03-.12.04-.12.04-.12.06-.11.07-.02-.04.11-.07.13-.06.12-.04.12-.04.13-.03.13-.03.12-.01h.26l.13.01.13.01.12.03.13.03.13.03.12.04.12.05.12.05.12.06.11.06.12.07.11.07.1.07.1.08.1.08.1.08.09.09.08.09.08.09.08.09.07.09.06.09.06.1v.02zm0-.02l.01.01-.01.01v-.02zm-.43.71l-.04-.03.01-.02.02-.02.01-.02.01-.03.02-.02.01-.02.02-.02.01-.02.01-.02.02-.03.01-.02.02-.02.01-.02.02-.02.01-.02.02-.02.01-.02.01-.02.02-.03.01-.02.02-.02.01-.02.01-.02.02-.02.01-.02.01-.02.02-.02.01-.03.01-.02.01-.02.01-.02.01-.02.04.02-.01.02-.01.02-.01.02-.02.03-.01.02-.01.02-.01.02-.02.02-.01.02-.01.03-.02.02-.01.02-.02.02-.01.02-.01.02-.02.02-.01.02-.02.02-.01.03-.02.02-.01.02-.02.02-.01.02-.01.02-.02.02-.01.02-.02.03-.01.02-.01.02-.02.02-.01.02-.01.02v.01zm0-.01v.01-.01z"/><path fill="#F5B2B6" d="M1.59 3.19c.21 0 .38.14.38.31 0 .18-.17.32-.38.32s-.39-.14-.39-.32c0-.17.18-.31.39-.31z"/><path fill="#2B2A29" fill-rule="nonzero" d="M2 3.5h-.05v-.05l-.01-.02v-.01l-.01-.01v-.02l-.01-.01-.01-.01-.01-.02-.01-.01-.01-.01-.01-.01-.01-.01-.01-.01-.01-.01-.02-.01-.01-.01-.02-.01h-.01l-.02-.01-.01-.01h-.02l-.01-.01H1.7l-.02-.01h-.04l-.01-.01h-.04v-.04h.06l.02.01h.04l.02.01.02.01h.01l.02.01.02.01.01.01h.02l.02.01.01.02.02.01.01.01.01.01.01.01.02.02.01.01.01.01.01.02v.01l.01.02.01.01v.02l.01.02v.03l.01.02v.01zm-.41.34V3.8l.02-.01h.07l.02-.01h.02l.01-.01h.02l.01-.01.02-.01.01-.01h.02l.01-.01.02-.01.01-.01.01-.01.01-.01.01-.01.01-.01.01-.02.01-.01.01-.01.01-.01V3.6l.01-.01v-.01l.01-.02V3.5H2v.02l-.01.02v.03l-.01.02v.01l-.01.02-.01.02v.01l-.01.02-.01.01-.01.01-.02.02-.01.01-.01.01-.01.01-.02.01-.01.01-.02.01-.02.01-.01.01-.02.01-.02.01h-.01l-.02.01h-.02l-.02.01h-.04l-.02.01h-.04zm-.41-.34h.04l.01.02v.04l.01.02v.01l.01.01v.02l.01.01.01.01.01.01.01.02.01.01.01.01.01.01.01.01.01.01.02.01.01.01h.01l.02.01.01.01.02.01h.02l.01.01h.02l.02.01h.07l.02.01v.04h-.04l-.02-.01h-.04l-.02-.01h-.02l-.02-.01h-.02L1.4 3.8l-.02-.01-.02-.01-.01-.01-.02-.01-.01-.01-.02-.01-.01-.01-.01-.01-.02-.01-.01-.02-.01-.01-.01-.01-.01-.02-.01-.01v-.02L1.2 3.6l-.01-.01v-.03l-.01-.02V3.5zm.41-.33v.04h-.04l-.02.01H1.5l-.02.01h-.02l-.01.01h-.02l-.02.01-.01.01h-.02l-.01.01-.01.01-.02.01-.01.01-.01.01-.01.01-.01.01-.01.01-.01.01-.01.02-.01.01-.01.01v.02l-.01.01v.01l-.01.02v.04l-.01.01h-.04v-.03l.01-.02v-.03l.01-.02.01-.01v-.02l.01-.01.01-.02.01-.01.01-.01.01-.02.02-.01.01-.01.01-.01.02-.01.01-.02.02-.01h.01l.02-.01.02-.01.01-.01h.02l.02-.01.02-.01h.04l.02-.01h.06z"/><path fill="#99CFBA" d="M8.59 5.05C8.83 2.42 8.5.57 7.8.54 6.58.7 7.12 2.98 5.84 4.31c-.79.8-.94 1.26.63 2.49 1.42-.51 2.21-.23 2.12-1.75z"/><path fill="#2B2A29" fill-rule="nonzero" d="M7.8.52l.07.01.06.02.07.03.06.04.06.05.05.06.05.07.05.08.05.08.04.1.04.11.04.11.04.12.03.13.03.14.03.15.03.15.02.16.02.17.01.17.02.19.01.18.01.2v.62l-.01.22v.22l-.01.23-.02.24-.02.24-.02.24h-.04l.02-.24.02-.24.01-.24.01-.23.01-.22.01-.22v-.42l-.01-.2v-.19l-.02-.19-.01-.18-.02-.18-.01-.16-.03-.16-.02-.16-.03-.14-.03-.14-.03-.13-.04-.12-.04-.11-.04-.1-.04-.1L8.23.9 8.19.82 8.14.76 8.09.7 8.03.65 7.98.61 7.92.59 7.86.57 7.8.56V.52zm0 0zM5.82 4.29l.11-.12.11-.13.09-.14.09-.14.08-.14.07-.15.07-.14.05-.15.06-.15.05-.16.04-.15.04-.15.04-.15.04-.15.03-.14.03-.15.04-.14.03-.13.04-.13.03-.13.04-.12.04-.12.05-.11.05-.1.06-.09.06-.09.07-.08.08-.06.08-.06.09-.05.1-.03.12-.02v.04l-.1.02-.1.03-.09.05-.08.05-.07.06-.07.08-.06.08-.05.09-.05.1-.05.11-.04.11-.04.12-.03.13-.04.13-.03.13-.03.14-.04.15-.03.14-.04.15-.04.15-.04.15-.04.16-.05.15-.06.15-.05.15-.07.15-.07.15-.08.14-.09.15-.1.13-.1.14-.12.12-.03-.03zm.66 2.53h-.02l-.15-.12-.13-.11-.12-.1-.11-.1-.11-.1-.09-.09-.09-.09-.08-.09-.07-.09-.06-.08-.05-.08-.04-.08-.04-.07-.03-.08-.02-.07-.02-.07-.01-.07v-.07l.01-.07.01-.07.02-.07.02-.06.03-.07.04-.07.04-.06.04-.07.05-.07.06-.07.06-.07.06-.07.07-.07.07-.08.03.03-.07.08-.07.07-.06.07-.06.07-.05.07-.05.06-.05.07-.04.06-.03.07-.03.06-.02.07-.02.06-.01.06-.01.07.01.06v.07l.02.07.02.07.03.07.03.07.05.08.05.08.06.08.07.08.07.09.09.09.09.09.11.1.11.1.12.1.13.11.14.11h-.02l.02.04zm0 0h-.02.02zm2.13-1.77l.01.14v.13l-.01.11v.11l-.02.1-.02.1-.02.08-.03.08-.04.07-.04.07-.04.06-.05.05-.05.05-.06.04-.06.04-.07.04-.07.03-.08.04-.08.02-.08.03-.09.03-.09.02-.1.03-.1.02-.1.03-.11.03-.12.03-.11.03-.12.03-.12.04-.13.04-.13.05-.02-.04.13-.05.13-.04.13-.04.12-.03.11-.03.12-.03.1-.03.11-.03.1-.02.09-.03.1-.02.08-.03.09-.03.08-.03.07-.03.07-.03.06-.03.06-.04.06-.04.05-.05.05-.05.04-.06.04-.06.03-.07.03-.07.02-.08.02-.09.01-.1.01-.11.01-.11-.01-.13v-.14h.04zm-.04 0z"/><path fill="#A1B567" d="M8.51 3.81C8.47 1.73 8.49.56 7.55.48c-1.07.14-1.02 2.35-2.27 4-.28 1.05.19 1.31 1.66 2.43 1.42-.51 1.67-1.58 1.57-3.1z"/><path fill="#2B2A29" fill-rule="nonzero" d="M7.55.46l.09.01.08.02.08.02.07.03.06.04.07.04.05.05.06.06.04.06.05.07.04.07.04.08.03.09.03.09.02.1.03.1.02.11.02.11.01.13.02.12.01.13.01.14.01.14.01.15v.16l.01.16v.16l.01.17v.18l.01.18v.38h-.04v-.19l-.01-.19v-.36l-.01-.17v-.16l-.01-.16-.01-.16v-.14l-.01-.15L8.43 2l-.01-.13-.02-.13-.01-.12-.02-.11-.02-.11-.03-.1-.02-.1-.03-.09-.03-.08L8.2.95 8.16.88 8.12.82 8.07.76 8.02.7 7.97.66 7.91.62 7.85.58 7.78.55 7.71.53 7.63.51 7.55.5V.46zm0 0zM5.26 4.47v-.01l.12-.15.1-.16.1-.16.09-.16.09-.17.08-.16.08-.17.07-.16.07-.17.07-.16.06-.16.06-.16.05-.16.06-.15.05-.16.05-.14.05-.15.06-.13.05-.14.05-.12.06-.13.05-.11.06-.11.06-.1.07-.09.06-.08.08-.08.07-.06.09-.05.08-.05.1-.03.1-.02V.5l-.09.02-.09.03-.08.04-.08.05-.07.07-.07.07L7 .86l-.06.09-.06.09-.06.11-.05.11-.06.12-.05.13-.05.13-.05.14-.06.14-.05.15-.05.15-.06.15-.05.16-.06.16-.06.17-.07.16-.07.17-.07.16-.08.17-.08.16-.09.17-.09.16-.1.16-.11.16-.11.16v-.01l-.04-.01zm0 0v-.01.01zm1.68 2.46h-.02l-.13-.1-.13-.1-.12-.09-.12-.09-.11-.09-.11-.08-.1-.08-.09-.08-.09-.07-.09-.07-.08-.07-.07-.07-.07-.06-.06-.07-.06-.06-.05-.07-.05-.06-.04-.07-.04-.06-.03-.07-.03-.06-.02-.07-.02-.07-.02-.07v-.08L5.18 5v-.08l.01-.09.01-.08.02-.09.02-.09.02-.1.04.01-.02.1-.02.09-.02.09-.01.08v.23l.01.07.01.07.02.07.02.06.02.06.04.07.03.06.04.06.05.06.05.07.06.06.06.07.07.06.07.07.08.07.08.07.09.07.1.08.1.07.1.09.12.08.11.09.13.09.12.1.14.1h-.02l.01.04zm0 0l-.01.01-.01-.01h.02zm1.59-3.12l.01.14.01.14v.53l-.01.12-.01.13-.02.12-.01.11-.02.12-.03.11-.03.11-.03.1-.04.11-.04.1-.04.09-.05.1-.06.09-.06.09-.06.08-.07.09-.08.07-.08.08-.09.07-.09.07-.1.07-.1.06-.11.06-.12.06-.13.05-.13.05-.01-.04.13-.05.12-.05.12-.06.11-.05.1-.07.1-.06.09-.07.08-.07.08-.08.07-.07.07-.08.07-.09.06-.08.05-.09.05-.1.04-.09.04-.1.04-.1.03-.1.03-.11.02-.11.02-.11.02-.12.01-.12.01-.12.01-.12.01-.13v-.26l-.01-.14v-.14l-.01-.14h.04zm-.04 0z"/><path fill="#F5B2B6" d="M8.98 5.25c-.43-1.49-2.9-1.37-3.8-.65-.22.4-.54 1.18-.13 1.83.23.35.71.64 1.46.85.79.07 1.97-.42 2.47-2.03z"/><path fill="#2B2A29" fill-rule="nonzero" d="M5.16 4.59l.01-.01.09-.07.09-.06.11-.06.11-.05.12-.05.13-.05.13-.04.14-.03.14-.03.14-.03.14-.02.15-.01.15-.01.15-.01.15.01.15.01.15.01.14.03.14.02.14.04.14.05.13.05.12.06.12.06.12.08.1.08.1.09.09.1.08.11.07.12.05.13.05.14-.04.01-.05-.13L8.86 5l-.07-.11-.08-.11-.08-.1-.1-.09-.1-.08-.11-.07-.12-.07-.12-.05-.13-.05-.13-.05-.14-.03-.14-.03-.14-.02-.15-.02-.14-.01h-.3l-.14.01-.15.01-.14.02-.15.03-.13.03-.14.04-.13.04-.12.04-.12.05-.11.05-.1.06-.1.06-.09.06h.01l-.04-.02zm0 0v-.01h.01l-.01.01zm-.13 1.85L5 6.38l-.04-.07-.03-.06-.02-.06-.02-.07-.02-.06-.01-.07-.01-.06-.01-.07-.01-.06v-.19l.01-.07.01-.06.01-.06.01-.06.01-.06.02-.06.01-.06.02-.06.02-.06.02-.05.02-.05.02-.06.02-.05.02-.05.03-.04.02-.05.02-.04.02-.04.02-.04.04.02-.02.04-.02.04-.02.04-.03.04-.02.05-.02.05-.02.05-.02.05-.02.05-.02.06-.02.05-.02.06-.01.06-.02.06-.01.06-.01.06-.01.06-.01.06v.06l-.01.06v.06l.01.07v.06l.01.06.01.07.01.06.02.06.02.06.02.06.03.06.03.07.04.05-.04.03zm1.48.86l-.07-.02-.07-.02-.07-.02-.06-.02-.07-.02-.06-.03-.06-.02-.06-.02-.06-.03-.05-.02-.06-.03-.05-.02L5.72 7l-.05-.02-.05-.03-.05-.02-.04-.03-.05-.03-.04-.03-.04-.03-.04-.03-.03-.03-.04-.02-.03-.04-.04-.03-.03-.03-.03-.03-.03-.03-.02-.03-.03-.04-.02-.03-.03-.03.04-.03.02.04.02.03.03.03.03.03.02.03.03.03.03.03.03.03.04.03.03.03.04.03.04.03.04.03.04.02.04.03.05.03.04.02.05.03.05.03.05.02.05.03.05.02.06.02.06.03.05.02.06.02.07.02.06.03.06.02.07.02.07.02.07.02h-.01v.04zm0 0zM9 5.25v.01l-.05.15-.05.14-.06.14-.06.12-.06.13-.07.11-.06.12-.08.1-.07.1-.08.09-.08.09-.08.08-.08.08-.08.07-.09.07-.08.06-.09.06-.09.05-.08.05-.09.04-.09.04-.09.03-.08.03-.09.03-.09.02-.08.02-.09.01-.08.01h-.08l-.08.01-.08-.01h-.08v-.04h.31l.09-.01.08-.02.08-.01.09-.02.08-.03.09-.03.08-.03.09-.04.09-.04.08-.05.09-.05.08-.05.09-.06.08-.07.08-.07.08-.08.08-.08.08-.08.08-.1.07-.09.07-.11.07-.11.06-.11.06-.12.06-.13.06-.14.05-.14.05-.14v.01L9 5.25zm0 0v.01-.01z"/><path fill="#F08BB2" d="M5 4.99c-.16.41-.25.96.05 1.44.23.35.43.72 1.46.85.75.06 2.08-.47 2.35-1.7C8.07 4.64 6 4.63 5 4.99z"/><path fill="#2B2A29" fill-rule="nonzero" d="M5.07 6.41l-.04.03-.02-.05-.03-.04-.02-.05-.02-.05-.02-.04-.02-.05-.01-.05-.02-.04-.01-.05-.01-.05-.01-.05v-.05l-.01-.04V5.64l.01-.05v-.05l.01-.04v-.05l.01-.04.01-.05.01-.04.01-.05.01-.04.01-.05.01-.04.02-.04.01-.04.02-.04.01-.04.04.01-.01.04-.02.04-.01.04-.01.04-.02.05-.01.04-.01.04-.01.05-.01.04-.01.04-.01.05v.04l-.01.05v.09l-.01.05v.04l.01.05v.09l.01.05v.04l.01.05.01.04.02.05.01.05.02.04.02.05.02.04.02.05.02.04.03.04zm1.44.85v.04l-.09-.01-.09-.02-.09-.01-.08-.02-.08-.02-.07-.02-.07-.02-.07-.02-.06-.02-.06-.03-.05-.02-.05-.03-.05-.02-.05-.03-.04-.03-.04-.03-.04-.03-.04-.03-.03-.03-.03-.03-.03-.03-.03-.03-.03-.03-.03-.04-.02-.03-.03-.03-.02-.04-.02-.03-.02-.03-.02-.04-.02-.03-.03-.03.04-.03.02.04.02.03.02.03.03.04.02.03.02.03.02.03.03.04.02.03.03.03.03.03.03.03.03.03.03.03.04.03.03.03.04.03.04.02.05.03.05.03.05.02.05.03.06.02.06.02.06.02.07.02.07.02.08.02.08.01.08.02.09.01.1.02h-.01zm0 .04zm2.33-1.7l.04-.03v.02l-.03.11-.03.11-.04.11-.05.1-.05.1-.06.09-.06.09-.06.09-.07.08-.07.08-.07.07-.08.07-.08.07-.08.06-.09.06-.08.05-.09.05-.09.05-.09.04-.09.04-.09.04-.09.03-.09.03-.09.02-.08.03-.09.01-.09.02-.08.01h-.08l-.08.01-.08-.01h-.07v-.04H6.74l.08-.01.08-.01.08-.01.09-.02.08-.02.09-.02.09-.03.09-.03.08-.04.09-.03.09-.05.09-.04.08-.05.09-.06.08-.05.08-.07.08-.06.08-.07.07-.07.07-.08.07-.08.06-.08.06-.09.05-.09.05-.1.05-.1.04-.1.03-.11.03-.11v.02zm.04-.03v.02-.02zm-3.86-.58l-.04-.01.01-.01.1-.04.1-.03.11-.02.12-.03.11-.02.13-.02.12-.02.13-.01.13-.02h.14l.13-.01h.28l.14.01h.14l.14.02.14.01.14.02.14.03.13.02.13.04.13.03.13.04.12.05.12.05.12.06.11.06.1.06.1.07.09.08.09.08.08.09-.04.03-.07-.09-.09-.08-.09-.07-.09-.07-.11-.07-.1-.05-.12-.06-.11-.05-.12-.04-.13-.05-.13-.03-.13-.03-.13-.03-.14-.03-.13-.02-.14-.01-.14-.01-.14-.01-.14-.01h-.27l-.14.01-.13.01-.13.01-.13.01-.13.02-.12.02-.12.02-.11.03-.1.03-.11.02-.09.04.01-.02zm-.04-.01v-.01h.01l-.01.01z"/><path fill="#F5B2B6" d="M7.46 5.03c-.2-.07-.41.02-.46.18-.05.17.07.35.28.41.2.07.41-.02.46-.18.05-.17-.08-.35-.28-.41z"/><path fill="#2B2A29" fill-rule="nonzero" d="M7.02 5.22l-.04-.01v-.02l.01-.02.01-.01.01-.02.01-.01.01-.01.01-.02.01-.01.01-.01.01-.01.02-.01.01-.01.02-.01.01-.01.02-.01.01-.01h.02L7.2 5h.02l.01-.01h.06l.02-.01h.02l.02.01h.06l.02.01h.02l.02.01-.02.04-.01-.01h-.02l-.02-.01h-.14l-.02.01h-.03l-.01.01h-.02l-.01.01-.02.01h-.01l-.01.01-.02.01-.01.01-.01.01-.01.01-.01.01-.01.01-.01.01-.01.02v.01l-.01.01-.01.01v.02zm.26.38l-.01.05-.02-.01-.02-.01-.02-.01h-.02l-.01-.01-.02-.01-.02-.01-.01-.02-.02-.01-.01-.01-.02-.01-.01-.01-.01-.02-.01-.01-.02-.02-.01-.01-.01-.02v-.01L7 5.42l-.01-.01-.01-.02v-.03l-.01-.02V5.22l.01-.01.04.01v.01l-.01.02v.08l.01.02v.01l.01.02v.01l.01.01v.02l.01.01.01.02.01.01.01.01.01.01.01.02.01.01.02.01.01.01.01.01.02.01.01.01.02.01.01.01h.02l.02.01.01.01h.02zm.44-.17l.04.02-.01.01v.02l-.01.01-.01.02-.01.01-.01.02-.01.01-.01.01-.01.01-.02.01-.01.02-.02.01h-.01l-.02.01-.01.01-.02.01h-.01l-.02.01h-.02l-.02.01h-.03l-.02.01h-.08l-.02-.01h-.04l-.02-.01h-.02l.01-.05.02.01h.02l.02.01H7.49l.02-.01h.02l.01-.01h.02l.01-.01.01-.01h.02l.01-.01.01-.01.02-.01.01-.01.01-.01.01-.01.01-.01V5.5l.01-.01.01-.02.01-.01v-.01l.01-.02zm-.27-.38l.02-.04h.02l.02.01.01.01.02.01.02.01.02.01.01.01.02.01.01.01.02.01.01.01.02.02.01.01.01.01.01.02.01.01.01.02.01.01.01.02.01.01v.02l.01.02v.01l.01.02v.1l-.01.02v.02l-.04-.02V5.4l.01-.01v-.04l-.01-.02v-.04l-.01-.01v-.02l-.01-.01-.01-.02-.01-.01v-.01l-.01-.02-.01-.01-.01-.01-.01-.01-.02-.02-.01-.01-.01-.01-.02-.01-.01-.01-.02-.01-.01-.01h-.02l-.01-.01-.02-.01-.02-.01h-.02z"/></svg>