<svg xmlns="http://www.w3.org/2000/svg" width="85" height="55" fill-rule="evenodd" clip-rule="evenodd" image-rendering="optimizeQuality" shape-rendering="geometricPrecision" text-rendering="geometricPrecision" viewBox="0 0 81.33 51.99"><path fill="#F5B2B6" d="M20.45 33.48c7.24-2.86 11.49-9.96 18.26-14.85 4.24-3.06 10.16-3.95 13.69-9.46 3.53-3.55.67-8.16-5.24-8.14C32.07.92 20.08 5.66 8 14.23c-13 10.98-.02 23.81 12.45 19.25z"/><path fill="#2B2A29" fill-rule="nonzero" d="M38.61 18.49l.2.28-.62.46-.61.48-.6.48-.59.5-.57.5-.57.51-.56.52-.55.52-.54.52-.54.53-.54.53-.53.53-.53.53-.53.52-.52.52-.53.52-.53.51-.53.51-.54.5-.54.48-.54.48-.56.47-.56.45-.57.44-.58.42-.59.41-.6.39-.61.37-.63.35-.65.33-.66.31-.67.28-.13-.32.67-.28.64-.3.64-.33.61-.34.61-.36.59-.39.58-.4.58-.42.56-.43.55-.45.55-.46.54-.47.54-.49.53-.49.53-.51.53-.51.52-.51.53-.52.53-.53.53-.53.53-.53.53-.53.54-.53.55-.52.55-.53.57-.52.57-.51.58-.51.59-.49.6-.49.62-.48.63-.47zm13.67-9.44l.24.24.03-.03-.35.51-.35.48-.37.46-.38.44-.39.41-.4.39-.41.37-.42.35-.43.34-.44.32-.44.3-.44.29-.45.28-.46.27-.46.25-.46.25-.46.24-.46.23-.47.23-.46.23-.46.22-.46.22-.46.23-.45.22-.45.23-.45.22-.43.24-.43.24-.43.25-.41.26-.41.26-.4.28-.2-.28.4-.28.42-.28.42-.26.43-.25.44-.24.44-.24.45-.23.45-.23.46-.22.46-.23.46-.22.46-.22.46-.23.46-.22.46-.24.46-.24.46-.24.45-.25.45-.27.44-.27.44-.29.43-.29.43-.32.42-.32.41-.35.4-.36.39-.38.38-.41.37-.42.36-.45.35-.47.34-.5.02-.02zm-.02.02l.01-.01.01-.01-.02.02zM47.15 1.2l.01-.35.55.02.54.04.51.06.5.09.48.11.45.13.44.16.41.18.39.19.37.22.34.23.32.25.29.26.27.28.23.29.22.31.18.32.15.32.13.34.09.34.06.35.03.36v.36l-.04.36-.07.37-.1.36-.14.37-.18.36-.21.36-.24.35-.29.36-.32.34-.24-.24.3-.33.27-.33.23-.34.2-.33.16-.34.13-.34.1-.33.06-.34.03-.33.01-.33-.03-.32-.06-.32-.08-.32-.12-.3-.14-.31-.17-.29-.19-.28-.22-.27-.25-.26-.28-.25-.29-.23-.33-.22-.34-.2-.38-.19-.39-.17-.41-.15-.44-.13-.46-.1-.48-.09-.5-.06-.52-.04-.53-.01h-.01zm.01 0h-.01.01zM8.11 14.36l-.22-.27h.01l1.14-.8 1.13-.77 1.14-.75 1.13-.72 1.14-.7 1.14-.68 1.15-.66 1.14-.63 1.16-.61 1.15-.58 1.16-.56 1.17-.53 1.18-.51 1.18-.49 1.19-.45 1.19-.44 1.21-.41 1.22-.38 1.22-.36 1.24-.33 1.25-.31 1.26-.27 1.27-.25 1.28-.23 1.3-.2 1.31-.17 1.33-.14 1.34-.12 1.36-.09 1.38-.06 1.39-.03 1.41-.01-.01.35-1.4.01-1.38.03L43 1.3l-1.35.09-1.34.11-1.32.14-1.3.17-1.29.2-1.28.22-1.26.25-1.25.28-1.25.3-1.23.33-1.21.36-1.21.38-1.2.41-1.19.43-1.19.46-1.17.48-1.17.5-1.16.54-1.16.55-1.15.58-1.14.61-1.15.62-1.13.66-1.14.67-1.13.7-1.14.72-1.13.75-1.13.77-1.13.79.01-.01zm-.22-.27h.01-.01zm12.5 19.23l.13.32h-.01l-1.18.38-1.18.28-1.18.19-1.16.09-1.15.01-1.12-.08-1.1-.17-1.07-.24-1.03-.31-.99-.39-.94-.45-.9-.52-.84-.58-.78-.63-.71-.69-.64-.74-.57-.79-.48-.83-.41-.87-.31-.91-.21-.94-.11-.96-.01-.99.1-1.02.22-1.03.33-1.04.47-1.05.59-1.06.72-1.06.86-1.05 1.01-1.05 1.15-1.05.22.27-1.13 1.02-.99 1.04-.84 1.03-.71 1.03-.58 1.03-.44 1.02-.33 1.01-.21 1-.1.97.01.95.11.94.21.9.3.87.38.84.47.8.55.76.62.72.69.67.76.62.82.56.87.5.92.45.96.37 1.01.31 1.04.23 1.08.16 1.1.08h1.12l1.13-.09 1.15-.19 1.16-.27 1.16-.37h-.01zm.13.32h-.01.01z"/><path fill="#99CFBA" d="M18.47 33.56c7.24-2.86 10.79-9.21 17.32-15.39 3.8-3.59 12.03-6.34 15.73-9.86 3.53-3.54.67-8.15-5.24-8.14C31.19.07 18.1 5.74 6.02 14.31c-13 10.98-.03 23.81 12.45 19.25z"/><path fill="#2B2A29" fill-rule="nonzero" d="M35.67 18.05l.24.25-.61.58-.58.58-.57.57-.56.58-.54.58-.54.57-.52.57-.52.57-.51.56-.5.56-.49.55-.49.55-.49.54-.49.53-.49.52-.49.52-.49.51-.5.49-.5.49-.5.47-.52.46-.52.45-.53.43-.54.43-.56.4-.57.39-.58.37-.6.36-.61.34-.64.32-.65.3-.68.28-.12-.32.66-.28.64-.29.62-.32.61-.33.59-.35.57-.37.56-.38.55-.4.53-.42.53-.42.51-.45.51-.45.5-.47.5-.48.49-.5.49-.5.49-.51.48-.52.49-.54.49-.53.49-.55.5-.55.5-.56.51-.57.51-.56.53-.57.53-.58.55-.58.56-.58.57-.58.59-.58.61-.58zM51.4 8.19l.24.24v.01l-.36.33-.39.33-.42.32-.43.32-.45.31-.47.32-.49.31-.5.3-.52.3-.53.3-.53.3-.55.3-.55.3-.56.3-.56.29-.56.3-.56.29-.56.3-.55.3-.56.3-.54.29-.54.3-.53.31-.51.3-.51.31-.48.31-.47.31-.46.32-.43.31-.41.33-.39.32-.36.33-.24-.25.37-.34.4-.33.42-.33.44-.33.46-.32.48-.31.49-.32.51-.3.52-.31.53-.31.54-.3.55-.3.55-.3.56-.29.56-.3.56-.3.56-.29.56-.3.56-.29.55-.3.54-.3.53-.3.53-.3.51-.3.5-.3.48-.3.46-.31.45-.31.42-.32.41-.31.38-.32.35-.32zm.24.24v.01-.01zM46.28.35V0l.55.01.54.04.51.06.5.09.48.11.45.14.44.16.41.17.39.2.37.21.34.24.32.24.29.27.27.28.24.29.21.3.18.32.15.33.13.33.09.35.06.35.03.35v.36l-.04.37-.07.36-.1.37-.14.36-.18.36-.21.36-.24.36-.29.35-.32.34-.24-.24.3-.33.27-.33.23-.33.2-.34.16-.34.13-.33.1-.34.06-.33.04-.33v-.33l-.03-.33-.06-.32-.08-.31-.12-.31-.14-.3L52.3 3l-.2-.28-.22-.27-.25-.26-.27-.25-.3-.24-.33-.21-.34-.21-.37-.18-.4-.17-.41-.15-.44-.13-.46-.11-.48-.08-.5-.07-.52-.03-.53-.01zm0 0zM6.13 14.44l-.22-.26.01-.01 1.14-.8 1.14-.78 1.15-.76 1.16-.74 1.16-.72 1.17-.71 1.18-.68 1.18-.66 1.19-.64 1.2-.62 1.21-.6 1.22-.58 1.22-.55 1.23-.53 1.24-.5 1.25-.48 1.26-.45 1.26-.42 1.28-.4 1.29-.38 1.29-.34 1.31-.32 1.31-.29 1.33-.26 1.33-.23 1.35-.2 1.36-.17 1.36-.13 1.38-.11 1.39-.07 1.4-.04L46.28 0v.35h-1.41l-1.39.04-1.38.08-1.37.1-1.36.14-1.35.16-1.34.2-1.33.23-1.32.26-1.3.29-1.3.31-1.29.34-1.28.38-1.27.39-1.26.43-1.25.45-1.24.47-1.24.5-1.22.53-1.22.55-1.21.57-1.2.59-1.2.62-1.18.64-1.18.66-1.18.68-1.16.7-1.16.72-1.15.74-1.15.76-1.14.77-1.13.8.01-.01zm-.22-.26v-.01h.01l-.01.01zm12.5 19.22l.12.32-1.18.38-1.18.28-1.18.19-1.16.09-1.15.01-1.12-.08-1.1-.16-1.07-.24-1.03-.32-.99-.39-.95-.45-.89-.52-.84-.58-.78-.63-.71-.69-.64-.74-.57-.79-.49-.83-.4-.87-.31-.91-.22-.94-.11-.96-.01-.99.1-1.02.22-1.03.34-1.04.46-1.05.59-1.06.73-1.06.86-1.05 1-1.05 1.16-1.04.22.26-1.14 1.03-.98 1.03-.85 1.03-.7 1.04-.58 1.02-.45 1.02-.33 1.01-.2 1-.1.97.01.96.1.93.21.9.3.87.39.84.47.8.55.76.62.72.69.67.76.62.81.56.87.5.92.45.97.37 1.01.31 1.04.24 1.07.15 1.1.08h1.12l1.14-.09 1.15-.19 1.15-.27 1.16-.37zm.12.32h.01-.01z"/><path fill="#F5B2B6" d="M1.47 21.6c7-4.78 22.06-5.75 32.54.28.88-1.05 2.32-2.32 2.84-3.51-15.6-4.4-30.64-4.8-36.65-1.53.43 1.59.85 3.17 1.27 4.76z"/><path fill="#2B2A29" fill-rule="nonzero" d="M33.88 21.77l.26.22-.22.04-.98-.54-1.02-.5-1.03-.46-1.06-.42-1.07-.39-1.09-.35-1.1-.31-1.12-.27-1.12-.23-1.13-.21-1.13-.16-1.13-.13-1.13-.1-1.13-.07-1.12-.03h-1.12l-1.11.03-1.09.06-1.08.1-1.06.12-1.04.15-1.02.18-.99.21-.97.24-.94.26-.91.29-.87.31-.84.34-.8.36-.76.39-.72.41-.67.43-.2-.29.69-.44.73-.42.78-.39.81-.37.85-.34.89-.32.92-.29.95-.27.98-.24 1.01-.21 1.03-.18 1.05-.15 1.07-.13 1.09-.09 1.1-.06 1.11-.04h1.13l1.13.04 1.14.06 1.14.1 1.15.13 1.14.17 1.14.21 1.13.23 1.12.28 1.12.31 1.1.35 1.08.39 1.07.43 1.05.47 1.03.51 1 .54-.22.04zm.26.22l-.09.12-.13-.08.22-.04zm2.66-3.46l.09-.33.12.23-.06.12-.06.12-.06.12-.07.11-.07.12-.08.12-.08.12-.08.11-.09.12-.08.12-.1.11-.09.12-.1.11-.09.12-.1.11-.1.11-.11.12-.1.11-.1.11-.1.11-.11.11-.1.11-.1.11-.1.11-.1.1-.1.11-.09.1-.1.11-.09.1-.09.1-.08.1-.09.09-.26-.22.08-.1.09-.1.09-.1.1-.11.09-.1.1-.11.1-.1.1-.11.1-.11.1-.11.1-.11.1-.1.11-.11.1-.12.1-.11.1-.11.1-.11.09-.11.1-.11.09-.11.09-.12.09-.11.09-.11.08-.11.08-.11.08-.11.07-.11.07-.11.06-.11.06-.11.05-.11.05-.1.11.23zm.09-.33l.19.05-.07.18-.12-.23zM.37 16.8l-.34.09.09-.2.6-.3.65-.28.7-.26.74-.23.79-.21.84-.19.88-.17.92-.14.97-.12 1-.1 1.03-.08 1.08-.06 1.1-.03 1.14-.01 1.17.01 1.2.03 1.23.06 1.26.08 1.27.1 1.31.13 1.32.14 1.35.17 1.36.2 1.38.21 1.4.24 1.41.26 1.42.29 1.44.3 1.44.33 1.45.36 1.46.38 1.46.4-.09.33-1.46-.4-1.45-.37-1.45-.36-1.44-.33-1.43-.31-1.42-.28-1.4-.26-1.39-.24-1.38-.21-1.36-.19-1.34-.17-1.32-.15-1.29-.12-1.28-.11-1.25-.07-1.22-.06-1.19-.03-1.17-.01-1.13.01-1.1.03-1.06.05-1.03.08-1 .1-.95.12-.91.14-.87.17-.82.19-.78.2-.73.23-.68.25-.64.27-.58.29.09-.19zm-.34.09L0 16.75l.12-.06-.09.2zm1.34 4.56l.2.29-.27-.1-.03-.15-.05-.15-.04-.15-.03-.14-.04-.15-.04-.15-.04-.15-.04-.15-.04-.15-.04-.14-.04-.15-.04-.15-.04-.15-.04-.15-.04-.15-.04-.15-.04-.14-.04-.15-.04-.15-.04-.15-.04-.15-.04-.15-.04-.15-.04-.15-.04-.14-.04-.15-.04-.15-.04-.15-.04-.15-.04-.15-.04-.15-.04-.14.34-.09.04.14.04.15.04.15.04.15.04.15.04.15.04.15.04.14.04.15.04.15.03.15.04.15.05.15.03.15.04.15.04.14.04.15.04.15.04.15.04.15.04.15.04.15.04.14.04.15.04.15.04.15.04.15.04.15.04.15.04.14.04.15.04.15-.27-.1zm.2.29l-.2.14-.07-.24.27.1z"/><path fill="#BDD180" d="M12.32 6.64c5.78 2.8 6.89 11.87 2.89 29.03 1.84-.42 3.68-.85 5.52-1.27 2.56-16 .11-23.98-3.83-29.57-1.53.6-3.05 1.21-4.58 1.81z"/><path fill="#2B2A29" fill-rule="nonzero" d="M15.17 35.5l.08.34-.21-.21.36-1.58.33-1.54.3-1.48.27-1.45.24-1.39.21-1.35.19-1.31.15-1.26.12-1.21.09-1.17.07-1.13.03-1.08.01-1.04-.02-.99-.05-.95-.08-.91-.11-.86-.13-.83-.17-.78-.19-.74-.22-.7-.24-.65-.28-.62-.3-.58-.33-.54-.35-.49-.38-.46-.41-.43-.44-.38-.46-.35-.49-.31-.51-.28.15-.31.53.29.52.33.48.36.46.4.42.44.4.48.37.52.34.56.31.6.28.63.26.68.22.72.2.75.17.8.13.84.11.87.08.92.06.97.02 1-.01 1.05-.04 1.09-.06 1.13-.1 1.18-.12 1.22-.15 1.27-.18 1.31-.22 1.35-.24 1.4-.27 1.45-.3 1.49-.33 1.55-.36 1.58-.21-.21zm.08.34l-.27.06.06-.27.21.21zm5.3-1.47l.35.06-.13.14-.18.04-.17.04-.17.04-.17.04-.18.04-.17.04-.17.04-.17.04-.18.04-.17.04-.17.04-.17.04-.17.04-.18.04-.17.04-.17.03-.17.05-.17.03-.18.05-.17.03-.17.04-.17.04-.18.04-.17.04-.17.04-.17.04-.18.04-.17.04-.17.04-.17.04-.18.04-.17.04-.08-.34.18-.04.17-.04.17-.04.17-.03.18-.05.17-.03.17-.04.17-.04.18-.04.17-.04.17-.04.17-.04.17-.04.18-.04.17-.04.17-.04.17-.04.18-.04.17-.04.17-.04.17-.04.17-.04.18-.04.17-.04.17-.04.17-.04.17-.04.18-.04.17-.04.17-.04.17-.04.18-.04-.14.14zm.35.06l-.02.11-.11.03.13-.14zM16.96 4.99l-.13-.32.21.06.37.53.35.55.35.57.34.58.33.61.31.62.3.64.29.66.27.69.26.7.25.74.22.76.22.78.19.81.18.84.15.87.14.9.12.93.1.97.07.99.06 1.04.03 1.06.01 1.11-.01 1.14L21.9 25l-.06 1.22-.09 1.26-.12 1.3-.14 1.35-.17 1.38-.2 1.44-.22 1.48-.35-.06.23-1.47.2-1.43.17-1.38.14-1.34.11-1.3.09-1.25.06-1.22.04-1.17.02-1.13-.01-1.1-.04-1.06-.05-1.02-.08-.99-.09-.96-.12-.92-.14-.89-.15-.86-.18-.83-.19-.8-.21-.78-.22-.75-.24-.72-.26-.7-.27-.68-.28-.65-.3-.63-.31-.61-.32-.6-.34-.57-.34-.56-.35-.54-.37-.53.21.06zm-.13-.32l.13-.05.08.11-.21-.06zM12.4 6.48l-.15.31.01-.31.14-.06.14-.06.15-.05.14-.06.14-.05.14-.06.15-.06.14-.05.14-.06.15-.06.14-.05.14-.06.15-.06.14-.05.14-.06.15-.06.14-.05.14-.06.14-.06.15-.05.14-.06.14-.06.15-.05.14-.06.14-.06.14-.05.15-.06.14-.06.14-.05.15-.06.14-.05.14-.06.13.32-.14.06-.15.05-.14.06-.14.06-.15.05-.14.06-.14.06-.14.05-.15.06-.14.06-.14.05-.15.06-.14.06-.14.05-.14.06-.15.06-.14.05-.14.06-.15.06-.14.05-.14.06-.15.05-.14.06-.14.06-.15.05-.14.06-.14.06-.14.05-.15.06-.14.06-.14.05-.15.06.02-.32zm-.15.31l-.36-.17.37-.14-.01.31z"/><path fill="#F5B2B6" d="M45.28 36.04c2.36-7.41 12.68-7.32 17.87-16.64 2.55-4.56 6.26-9.81 9.52-13.74 3.3-3.76 8.09-1.21 8.47 4.69.32 9.29-5.43 23.73-13.17 36.36-10.28 7.7-26.4 2.09-22.69-10.67z"/><path fill="#2B2A29" fill-rule="nonzero" d="M63.3 19.49l-.5.85-.54.8-.56.76-.58.7-.6.67-.63.62-.63.58-.65.56-.66.52-.67.49-.67.47-.68.44-.68.43-.67.42-.68.4-.66.39-.66.38-.64.38-.63.39-.62.38-.59.39-.57.41-.55.41-.53.43-.5.44-.46.47-.44.49-.4.52-.36.55-.32.58-.29.62-.24.67-.32-.11.24-.69.3-.64.33-.61.38-.57.42-.54.44-.51.48-.48.52-.46.53-.43.56-.42.59-.41.6-.4.62-.39.63-.38.65-.39.65-.38.67-.39.67-.4.67-.41.67-.43.67-.44.67-.46.66-.49.65-.51.64-.54.63-.58.61-.61.59-.65.57-.7.55-.73.52-.79.5-.84.3.17zm9.5-13.71v-.01l-.31.37-.3.38-.31.39-.32.39-.31.4-.32.4-.31.41-.32.42-.32.42-.31.42-.32.43-.32.43-.31.44-.31.44-.32.44-.31.44-.3.45-.31.45-.3.44-.3.45-.3.45-.29.45-.29.45-.29.45-.28.44-.28.45-.27.44-.26.44-.26.44-.26.44-.24.43-.25.43-.3-.17.24-.43.25-.44.26-.43.26-.44.27-.45.27-.44.28-.45.28-.45.29-.45.29-.45.29-.45.3-.45.3-.45.3-.45.31-.45.31-.44.31-.45.32-.44.31-.44.32-.44.31-.43.32-.43.32-.43.32-.42.31-.42.32-.41.32-.4.31-.4.32-.4.31-.38.31-.38.31-.38.26.23zm-.26-.23l-.01.01.01-.01zm8.43 4.81l-.05-.53-.07-.52-.1-.49-.11-.47-.14-.46-.16-.42-.18-.41-.19-.38-.21-.36-.23-.33-.24-.31-.25-.28-.27-.26-.27-.23-.29-.2-.29-.18-.31-.14-.3-.13-.32-.09-.32-.06-.32-.04h-.33l-.32.02-.33.06-.33.09-.33.11-.33.16-.32.18-.33.22-.31.25-.32.29-.3.33-.26-.23.32-.34.33-.31.34-.27.34-.23.35-.2.36-.17.35-.12.36-.1.36-.06.36-.03.36.01.36.04.34.07.35.1.33.13.33.16.32.19.31.22.3.25.28.27.27.3.25.33.24.35.22.37.21.4.18.43.17.44.14.47.12.49.1.51.07.54.05.55-.34.02zm.34-.02l.01.03-.01-.03zM67.87 46.57l-.05.05.72-1.19.71-1.19.69-1.21.68-1.21.67-1.22.64-1.22.64-1.22.61-1.23.6-1.23.58-1.22.56-1.23.55-1.22.52-1.21.5-1.21.47-1.2.46-1.2.43-1.18.4-1.17.39-1.16.35-1.14.33-1.14.3-1.11.27-1.1.25-1.07.21-1.06.19-1.04.15-1.01.12-.99.09-.96.06-.94.02-.91-.01-.87.34-.02.02.9-.03.92-.05.95-.09.97-.13 1-.15 1.02-.19 1.04-.21 1.07-.25 1.08-.28 1.11-.3 1.12-.33 1.13-.36 1.16-.38 1.16-.41 1.18-.43 1.19-.46 1.19-.47 1.21-.51 1.21-.52 1.22-.54 1.23-.56 1.22-.59 1.23-.6 1.23-.61 1.23-.64 1.23-.65 1.23-.67 1.21-.68 1.22-.69 1.21-.71 1.2-.72 1.19-.05.05-.2-.28zm.25.23l-.02.03-.03.02.05-.05zM45.44 36.1l.01-.01-.29 1.16-.18 1.12-.07 1.07.03 1.03.12.97.22.94.3.88.39.83.46.79.53.73.6.68.67.63.73.58.78.52.83.46.88.41.91.34.96.29.98.23 1.02.16 1.03.1 1.06.03 1.06-.03 1.08-.1 1.07-.16 1.08-.24 1.07-.31 1.06-.38 1.04-.45 1.03-.52 1-.6.97-.68.2.28-.98.69-1.02.61-1.05.54-1.06.46-1.09.38-1.08.32-1.1.24-1.1.17-1.1.1-1.08.03-1.08-.04-1.06-.1-1.03-.16-1.01-.23-.98-.3-.94-.35-.9-.42-.85-.48-.81-.53-.75-.6-.68-.65-.63-.7-.55-.76-.48-.82-.4-.86-.31-.92-.23-.96-.13-1.02-.03-1.06.08-1.1.18-1.15.29-1.19h.01l.32.11zm-.33-.11h.01l-.02.03.01-.03z"/><path fill="#99CFBA" d="M42.65 35.86c2.36-7.41 12.67-7.32 17.87-16.64 2.55-4.56 6.25-9.81 9.51-13.74 3.31-3.76 8.1-1.22 8.48 4.69.32 9.28-4.63 24.54-12.37 37.17-8.73 10.32-27.21 1.27-23.49-11.48z"/><path fill="#2B2A29" fill-rule="nonzero" d="M60.67 19.3l-.51.86-.53.8-.56.75-.58.71-.61.66-.62.63-.64.58-.65.55-.66.52-.66.5-.68.46-.67.45-.68.43-.68.41-.67.4-.66.39-.66.39-.64.38-.63.38-.62.39-.59.39-.58.4-.55.41-.52.43-.5.45-.47.47-.43.49-.4.52-.36.55-.33.58-.28.62-.24.66-.33-.1.25-.69.29-.65.34-.6.38-.57.41-.54.45-.51.48-.48.51-.46.54-.44.56-.42.58-.41.6-.39.62-.39.64-.39.64-.38.66-.39.67-.39.66-.4.68-.41.67-.42.67-.44.66-.47.67-.48.65-.52.64-.54.62-.57.61-.62.6-.65.57-.69.55-.74.52-.79.5-.83.3.16zm9.49-13.71h.01l-.31.37-.31.38-.31.38-.31.4-.32.4-.31.4-.32.41-.31.42-.32.42-.32.42-.31.43-.32.43-.31.44-.32.44-.31.44-.31.44-.31.44-.3.45-.31.45-.3.45-.29.45-.3.45-.29.44-.28.45-.28.45-.28.44-.27.45-.27.44-.26.44-.25.43-.25.44-.24.42-.3-.16.24-.44.25-.43.26-.44.26-.44.26-.44.28-.45.27-.44.28-.45.29-.45.29-.45.3-.45.29-.45.31-.45.3-.45.31-.45.31-.45.31-.44.31-.45.31-.44.32-.43.32-.44.32-.43.31-.42.32-.42.32-.42.32-.41.31-.41.32-.4.31-.39.31-.39.31-.38.31-.37.26.22zm-.26-.22l-.01.01.01-.01zm8.43 4.8v.01l-.04-.54-.08-.51-.09-.5-.12-.47-.14-.45-.16-.43-.17-.4-.2-.38-.21-.36-.22-.33-.24-.31-.26-.28-.26-.26-.28-.23-.28-.2-.3-.18-.3-.15-.31-.12-.31-.09-.32-.07-.32-.03-.33-.01-.33.03-.33.05-.33.09-.32.12-.33.15-.33.19-.32.22-.32.25-.31.29-.31.32-.26-.22.33-.35.33-.3.33-.27.35-.24.35-.2.35-.16.36-.13.36-.09.36-.06.36-.03.36.01.35.03.35.07.34.1.34.13.33.17.32.19.3.22.3.24.28.28.27.3.26.32.24.35.22.38.2.4.19.42.16.45.14.47.13.49.1.51.07.53.05.55v.01l-.35.01zm.35-.02v.03-.03zM66.01 47.23l-.01.02.71-1.19.7-1.2.68-1.22.67-1.23.64-1.23.63-1.24.61-1.25.59-1.25.57-1.26.55-1.26.52-1.25.51-1.26.48-1.25.47-1.24.44-1.24.41-1.24.4-1.22.37-1.21.34-1.19.32-1.19.29-1.16.27-1.15.24-1.13.22-1.11.19-1.08.16-1.06.13-1.04.1-1 .08-.98.04-.95.02-.92-.02-.88.35-.01.01.89-.01.93-.05.96-.07.99-.11 1.01-.13 1.05-.16 1.06-.19 1.1-.22 1.11-.24 1.14-.27 1.15-.3 1.17-.32 1.19-.34 1.2-.37 1.22-.4 1.22-.42 1.24-.44 1.24-.46 1.25-.49 1.26-.51 1.26-.53 1.26-.55 1.26-.57 1.26-.59 1.26-.61 1.25-.63 1.25-.65 1.24-.66 1.23-.69 1.22-.7 1.21-.72 1.19-.01.02-.27-.22zm.28.2v.01l-.01.01.01-.02zM42.81 35.91l-.28 1.17-.16 1.14-.04 1.11.07 1.09.18 1.05.27 1.02.37.97.45.94.54.9.62.85.68.79.75.75.81.69.87.64.91.57.95.51.99.44 1.02.37 1.05.3 1.06.23 1.08.14 1.08.07 1.08-.02 1.08-.11 1.07-.19 1.05-.29 1.03-.38 1-.48.97-.58.93-.68.89-.79.83-.9.27.22-.86.92-.91.81-.96.71-.99.59-1.03.5-1.06.39-1.09.29-1.09.2-1.11.11-1.11.02-1.11-.06-1.1-.15-1.09-.23-1.07-.31-1.04-.38-1.01-.45-.98-.52-.93-.59-.88-.65-.83-.71-.77-.76-.71-.82-.63-.87-.55-.92-.47-.97-.38-1.01-.28-1.05-.18-1.08-.07-1.12.04-1.15.16-1.18.29-1.2.33.1zm-.33-.1l-.01.03.01-.03z"/><path fill="#F5B2B6" d="M50.13 25.05c6.39-.64 14.82 9.27 17.51 24.13 1.34-1.33 1.64-3.98 2.98-5.3-6.2-14.98-10.2-19.56-16.49-22.26-.99 1.32-3.01 2.11-4 3.43z"/><path fill="#2B2A29" fill-rule="nonzero" d="M67.52 49.06l.24.24-.29-.09-.27-1.38-.3-1.34-.33-1.31-.36-1.28-.39-1.25-.41-1.21-.44-1.18-.46-1.14-.49-1.11-.5-1.07-.53-1.02-.54-.99-.56-.95-.57-.9-.59-.86-.59-.82-.61-.77-.62-.72-.63-.67-.63-.63-.64-.58-.64-.53-.64-.47-.64-.42-.64-.37-.63-.32-.63-.26-.63-.2-.62-.15-.6-.09-.6-.03-.59.03-.03-.35.62-.03.63.04.64.09.65.15.65.22.65.27.66.32.66.38.65.44.66.48.65.54.65.59.64.64.64.68.62.73.62.79.6.82.6.87.58.91.56.96.55.99.53 1.04.51 1.08.49 1.11.46 1.15.44 1.19.42 1.22.39 1.26.36 1.29.34 1.32.3 1.35.27 1.39-.29-.09zm.24.24l-.23.23-.06-.32.29.09zm2.7-5.35l.32-.14-.03.19-.12.12-.11.13-.11.14-.1.14-.1.15-.1.15-.09.16-.09.17-.08.17-.09.17-.08.18-.08.18-.08.18-.08.18-.07.19-.08.18-.08.19-.07.19-.08.18-.08.19-.09.18-.08.18-.09.18-.09.18-.09.17-.1.17-.1.16-.1.16-.11.16-.12.14-.12.15-.13.13-.24-.24.11-.13.11-.13.11-.13.1-.14.1-.15.1-.16.09-.16.09-.16.08-.17.09-.18.08-.17.08-.18.08-.18.08-.19.07-.18.08-.19.08-.18.08-.19.08-.19.07-.18.09-.19.08-.18.09-.17.09-.18.09-.17.1-.17.1-.17.1-.16.11-.15.12-.15.12-.14.13-.13-.04.19zm.32-.14l.05.11-.08.08.03-.19zM54.27 21.73l-.28-.21.21-.05.58.26.58.27.56.29.55.3.55.32.53.34.52.36.52.39.51.4.51.43.5.46.49.49.49.52.49.55.48.58.49.61.48.65.48.69.49.73.49.77.48.81.5.85.5.9.5.94.51 1 .51 1.04.53 1.09.53 1.15.54 1.2.55 1.26.57 1.32.57 1.37-.32.14-.57-1.38-.56-1.31-.55-1.26-.54-1.19-.53-1.15-.53-1.09-.51-1.04-.51-.99-.5-.94-.49-.89-.49-.85-.49-.8-.48-.76-.48-.72-.48-.69-.48-.64-.47-.61-.48-.57-.48-.54-.49-.51-.48-.48-.49-.45-.5-.42-.5-.4-.51-.38-.51-.35-.53-.33-.53-.32-.54-.3-.55-.28-.57-.27-.58-.26.21-.05zm-.28-.21l.08-.11.13.06-.21.05zm-3.87 3.35l.03.35-.16-.28.1-.12.11-.13.11-.12.12-.12.11-.11.13-.11.13-.11.12-.11.14-.11.13-.1.14-.11.14-.1.14-.1.14-.1.14-.1.14-.1.14-.1.14-.09.14-.1.14-.1.14-.1.13-.1.13-.1.13-.1.12-.11.12-.1.12-.11.11-.11.11-.11.1-.11.1-.11.09-.12.28.21-.1.13-.11.12-.11.12-.11.12-.12.11-.13.11-.12.11-.13.11-.14.11-.13.1-.14.11-.14.1-.14.1-.14.1-.14.1-.14.1-.14.1-.14.09-.14.1-.14.1-.14.1-.13.1-.13.1-.13.11-.12.1-.12.1-.12.11-.11.11-.11.11-.1.11-.1.11-.09.12-.15-.28zm.03.35l-.39.04.23-.32.16.28z"/><path fill="#BDD180" d="M42.15 38.44c5.9-6.08 23.68-11.03 31.9-4.08.65-1.21.93-1.77 1.19-3.05-8.77-5.79-26.34-2.68-32.86.98 0 0-1.12 3.85-.23 6.15z"/><path fill="#2B2A29" fill-rule="nonzero" d="M73.9 34.27l.3.17-.26.05-.79-.61-.84-.54-.88-.48-.93-.41-.98-.36-1-.29-1.05-.24-1.07-.18-1.09-.13-1.12-.08-1.14-.02-1.14.02-1.16.06-1.16.11-1.17.15-1.16.19-1.15.23-1.15.27-1.13.3-1.11.33-1.09.36-1.06.39-1.03.42-1 .44-.96.46-.92.48-.87.51-.82.51-.76.53-.71.54-.65.56-.58.55-.24-.24.59-.57.66-.57.72-.55.78-.54.83-.52.89-.51.93-.49.97-.47 1-.44 1.05-.42 1.07-.39 1.1-.37 1.12-.33 1.14-.31 1.15-.26 1.17-.24 1.17-.19 1.18-.15 1.17-.11 1.17-.07 1.17-.02 1.15.03 1.13.08 1.11.13 1.09.18 1.06.25 1.03.3 1 .36.95.42.91.49.86.56.81.62-.26.05zm.3.17l-.1.18-.16-.13.26-.05zm.94-2.98l.2-.29.07.18-.03.12-.02.11-.03.11-.02.11-.03.11-.02.1-.03.1-.03.1-.03.09-.03.09-.03.1-.03.09-.03.08-.03.09-.04.09-.03.08-.04.09-.03.09-.04.08-.04.09-.04.09-.04.09-.05.09-.04.09-.05.09-.05.09-.05.1-.05.1-.06.1-.05.11-.06.11-.06.11-.3-.17.05-.11.06-.11.06-.1.05-.1.05-.1.05-.09.05-.1.05-.09.04-.09.04-.08.05-.09.03-.08.04-.09.04-.08.03-.08.04-.09.03-.08.03-.08.04-.09.03-.08.02-.09.03-.08.03-.09.03-.09.03-.09.02-.1.03-.1.02-.1.03-.1.02-.11.03-.11.02-.12.07.18zm.2-.29l.09.06-.02.12-.07-.18zm-32.79 1.17l-.34-.1.09-.1.65-.35.71-.34.76-.33.82-.32.87-.32.92-.3.96-.29 1-.28 1.03-.26 1.07-.24 1.09-.23 1.12-.21 1.14-.18 1.16-.16 1.17-.14 1.18-.11 1.19-.08 1.19-.05 1.2-.02 1.18.01 1.18.04 1.17.08 1.16.12 1.13.15 1.11.2 1.09.24 1.06.28 1.03.33.98.37.95.42.91.48.86.52-.2.29-.83-.51-.89-.47-.93-.41-.97-.37-1.01-.32-1.04-.27-1.07-.24-1.1-.19-1.13-.16-1.14-.11-1.16-.08-1.16-.05-1.18-.01-1.18.02-1.19.05-1.18.09-1.17.11-1.17.13-1.15.16-1.13.18-1.11.21-1.09.22-1.06.24-1.02.27-.99.27-.95.29-.91.3-.87.31-.81.32-.75.33-.7.33-.63.34.08-.1zm-.34-.1l.02-.07.07-.03-.09.1zm-.18 6.08l.24.24-.28-.05-.08-.23-.07-.24-.06-.24-.05-.25-.03-.26-.03-.25-.02-.26-.01-.26-.01-.27.01-.26v-.26l.02-.26.02-.25.02-.25.03-.25.03-.24.03-.23.04-.23.04-.22.03-.2.04-.2.04-.18.04-.17.03-.16.03-.15.04-.12.02-.11.03-.09.02-.08.01-.05.01-.04v-.01l.34.1-.01.01-.01.03-.01.05-.02.07-.02.09-.03.11-.03.13-.03.14-.04.15-.03.17-.04.18-.04.19-.03.2-.04.22-.04.22-.03.23-.03.23-.02.24-.03.25-.02.25-.01.25-.01.25v.51l.01.25.02.24.03.25.03.24.05.23.05.23.07.22.07.21-.28-.06zm.24.24l-.18.2-.1-.25.28.05z"/></svg>