<svg xmlns="http://www.w3.org/2000/svg" width="60" height="64" fill-rule="evenodd" clip-rule="evenodd" image-rendering="optimizeQuality" shape-rendering="geometricPrecision" text-rendering="geometricPrecision" viewBox="0 0 3.73 3.93"><defs><style>.fil6{fill:#c4d985}.fil0{fill:#96c11a}.fil1,.fil3{fill:#2b2a29;fill-rule:nonzero}.fil3{fill:#d8ece4}.fil2,.fil4,.fil5{fill:#6fa691;fill-rule:nonzero}.fil4,.fil5{fill:#96c11a}.fil4{fill:#99cfba}</style></defs><g id="Слой_x0020_1"><g id="_93604640"><path d="M.14 2.81c-.07.09-.05.17.05.15.29-.07.42-.08.58-.02l.03-.3c-.06-.04-.41-.11-.66.17z" class="fil0"/><path id="1" d="M.19 2.95v.02H.13l-.01-.01H.11L.1 2.95v-.01H.09V2.88l.01-.01v-.01l.01-.01v-.01l.01-.01v-.01l.01-.01V2.8l.02.02H.14v.01l-.01.01v.01l-.01.01v.01l-.01.01v.05h.01v.01l.01.01H.19zm0 .02zm.57-.03h.02l-.01.01-.02-.01H.74l-.02-.01H.71L.7 2.92H.65l-.01-.01H.48l-.02.01H.4l-.02.01H.36l-.02.01H.32l-.02.01H.27l-.02.01H.22l-.03.01v-.02l.03-.01h.02l.03-.01h.02l.02-.01h.03l.02-.01H.4l.02-.01h.06l.01-.01h.15l.02.01h.03l.01.01h.03l.01.01h.02l.02.01-.02.01zm.02 0v.01H.77l.01-.01zm.01-.29l.01-.02V2.76l-.01.01V2.89l-.01.01v.04H.76v-.03l.01-.01V2.78l.01-.01V2.66l.01-.01v-.01.01zm.01-.02h.01l-.01.01v-.01zm-.65.19L.13 2.8l.03-.02.02-.03.03-.02.02-.02.03-.02.02-.01.03-.02.03-.01.02-.01.03-.01.03-.01.02-.01h.03l.02-.01h.03l.02-.01h.13l.02.01h.03l.02.01h.03l.01.01h.01v.01H.8l-.01.02-.01-.01-.01-.01H.75l-.02-.01H.7l-.01-.01H.54l-.02.01H.47l-.02.01-.03.01-.02.01-.03.01-.02.01-.03.01-.03.01-.02.02-.03.02-.02.02-.02.02-.03.02-.02.03zM.13 2.8z" class="fil1"/><path d="M.56 2.86c.14 0 .28.06.38.15.1.1.16.23.16.38s-.06.28-.16.38c-.1.09-.24.15-.38.15-.15 0-.29-.06-.39-.15-.1-.1-.16-.23-.16-.38s.06-.28.16-.38c.1-.09.24-.15.39-.15zm.2.34c-.05-.05-.12-.08-.2-.08-.08 0-.16.03-.21.08-.05.05-.08.12-.08.19s.03.14.08.19c.05.05.13.08.21.08.08 0 .15-.03.2-.08.05-.05.08-.12.08-.19S.81 3.25.76 3.2z" class="fil2"/><path id="1" d="M.95 3.01l-.02.01-.01-.01L.91 3 .9 2.99H.89l-.01-.01-.01-.01-.01-.01H.85l-.01-.01-.01-.01H.82l-.01-.01H.8l-.01-.01-.02-.01H.76L.75 2.9H.73l-.02-.01H.7l-.01-.01H.65l-.01-.01H.56v-.02h.07l.01.01h.04l.01.01h.03l.01.01h.01l.02.01h.01l.01.01h.01l.02.01h.01l.01.01.01.01h.01l.01.01.01.01.02.01H.9l.01.01.01.01.01.01.01.01.01.01zm.16.38h-.02v-.08l-.01-.01v-.03l-.01-.01v-.03l-.01-.01v-.01l-.01-.01v-.01l-.01-.02v-.01l-.01-.01v-.01l-.01-.01-.01-.01v-.01L1 3.1l-.01-.01-.01-.01v-.01l-.01-.01-.01-.01-.01-.01-.01-.01-.01-.01.02-.01.01.01.01.01.01.01.01.01.01.01.01.02v.01l.01.01.01.01.01.01v.01l.01.01.01.01v.02l.01.01v.01l.01.01v.02l.01.01v.02l.01.02v.04l.01.01V3.39zm-.16.38l-.02-.01.01-.01.01-.01.01-.01.01-.01.01-.01V3.7l.01-.01.01-.01.01-.01v-.01l.01-.01.01-.01v-.01l.01-.01V3.6l.01-.01v-.01l.01-.01v-.01l.01-.02v-.02l.01-.01v-.03l.01-.01v-.08h.02v.07l-.01.01v.04l-.01.01v.03l-.01.01v.02l-.01.01v.01l-.01.01v.01l-.01.02-.01.01v.01l-.01.01-.01.01-.01.01v.01L1 3.71l-.01.01-.01.01-.01.01-.01.01v.01l-.01.01zm-.39.16v-.02H.62l.02-.01h.04l.01-.01h.02l.02-.01h.01l.01-.01h.01l.01-.01h.02l.01-.01h.01l.01-.01h.01l.01-.01.01-.01.01-.01h.01l.01-.01.01-.01.01-.01h.01l.01-.01.01-.01.02.01-.01.01-.01.01-.01.01-.01.01-.01.01H.89l-.02.01-.01.01H.85l-.01.01-.01.01H.82l-.01.01-.02.01H.78l-.01.01H.76l-.02.01H.72l-.01.01H.69l-.01.01H.63l-.02.01H.56zm-.4-.16l.02-.01.01.01.01.01h.01l.01.01.01.01.01.01h.01l.01.01.01.01.01.01h.01l.01.01h.01l.01.01h.02l.01.01h.01l.01.01h.01l.02.01h.02l.02.01h.03l.02.01h.07v.02H.5l-.01-.01H.43l-.01-.01H.4L.39 3.9H.37l-.02-.01H.34l-.01-.01H.32L.3 3.87l-.01-.01H.28l-.01-.01-.01-.01H.25l-.01-.01-.01-.01H.21L.2 3.81.19 3.8l-.01-.01-.01-.01-.01-.01zM0 3.39h.02v.07l.01.01v.04l.01.01v.02l.01.02v.01l.01.01v.01l.01.01v.02l.01.01v.01l.01.01.01.01v.01l.01.01.01.01.01.01v.01l.01.01.01.01.01.01.01.01.01.01-.02.01v-.01l-.01-.01-.01-.01-.01-.01-.01-.01-.01-.01L.1 3.7v-.01l-.01-.01-.01-.01-.01-.01v-.01l-.01-.01v-.02l-.01-.01-.01-.01v-.01l-.01-.01v-.03l-.01-.01v-.02l-.01-.01v-.04L0 3.46V3.39zm.16-.38l.02.01-.01.01-.01.01-.01.01-.01.01-.01.01v.01l-.01.01-.01.01-.01.01v.01l-.01.01-.01.01v.01l-.01.01v.01l-.01.02v.01l-.01.01v.01l-.01.01v.03l-.01.01v.04l-.01.01V3.39H0V3.32l.01-.01v-.04l.01-.02v-.01l.01-.01V3.2l.01-.01v-.01l.01-.01.01-.02v-.01l.01-.01v-.01l.01-.01.01-.01.01-.01v-.01l.01-.02.01-.01.01-.01.01-.01.01-.01h.01v-.01zm.4-.16v.02H.47l-.01.01H.42l-.01.01H.4l-.02.01H.36l-.01.01H.34l-.02.01-.01.01H.3l-.01.01H.28l-.01.01-.01.01H.25l-.01.01-.01.01-.01.01H.21L.2 3l-.01.01-.01.01-.02-.01L.17 3l.01-.01.01-.01.01-.01.01-.01h.02l.01-.01.01-.01.01-.01h.01l.01-.01.01-.01H.3l.02-.01h.01l.01-.01h.01l.02-.01h.01l.01-.01h.03l.01-.01h.04l.02-.01h.07zm0 .28v-.02h.05l.01.01h.03l.01.01h.02v.01H.7v.01h.02v.01h.01v.01h.02v.01h.01v.01h.01l-.02.02V3.2H.74v-.01H.73l-.01-.01-.01-.01H.7l-.01-.01H.68v-.01H.66l-.01-.01H.62l-.01-.01H.56zm-.2.08l-.02-.02h.01v-.01h.01l.01-.01h.01v-.01h.01v-.01h.02v-.01h.02v-.01h.02l.01-.01H.5v-.01H.56v.02H.5l-.01.01H.46l-.01.01H.43v.01H.42l-.01.01H.4l-.01.01-.01.01H.37v.01H.36v.01zm-.08.18H.26v-.05l.01-.01v-.02l.01-.01v-.02l.01-.01v-.01l.01-.01.01-.01v-.01l.01-.01.01-.01V3.2h.01v-.01l.02.02H.35v.01H.34v.01H.33v.01H.32v.02H.31v.02H.3v.02l-.01.01v.02l-.01.01v.05zm.08.18l-.02.02v-.01H.33v-.01l-.01-.01-.01-.01v-.01L.3 3.53l-.01-.01V3.5H.28v-.02l-.01-.01v-.02l-.01-.01v-.05h.02v.05l.01.01v.02l.01.01v.02h.01v.02h.01v.01l.01.01.01.01v.01h.01v.01h.01zm.2.08v.02H.51L.5 3.66H.47l-.01-.01H.44l-.01-.01H.42l-.01-.01H.4l-.01-.01H.38v-.01H.37V3.6H.35v-.01H.34l.02-.02v.01h.01v.01h.01l.01.01H.4v.01h.02v.01h.01l.01.01h.02l.01.01H.5l.01.01h.05zm.19-.08l.02.02H.76v.01H.75l-.01.01H.73v.01H.72l-.01.01H.7l-.01.01H.68l-.01.01H.65l-.01.01H.61l-.01.01H.56v-.02h.05v-.01h.04v-.01h.02l.01-.01h.01v-.01h.02V3.6h.01l.01-.01h.01v-.01h.01v-.01zm.08-.18h.02V3.45H.84v.03H.83v.02l-.01.01v.01l-.01.01v.01H.8v.01l-.01.01-.01.01v.01H.77v.01l-.02-.02h.01v-.01h.01v-.01l.01-.01.01-.01v-.01H.8v-.01l.01-.01v-.02h.01v-.03h.01V3.39zm-.08-.18l.02-.02v.01h.01v.01l.01.01.01.01.01.01v.01l.01.01v.01h.01v.02l.01.01v.03h.01V3.39H.83V3.33l-.01-.01V3.3l-.01-.01v-.01L.8 3.27v-.01H.79v-.02H.78v-.01H.77v-.01H.76v-.01H.75z" class="fil1"/><path d="M.6 3.05c.11 0 .21.04.28.11.08.07.12.17.12.28 0 .1-.04.2-.12.27-.07.07-.17.12-.28.12-.11 0-.21-.05-.28-.12C.24 3.64.2 3.54.2 3.44c0-.11.04-.21.12-.28.07-.07.17-.11.28-.11zm.26.14c-.07-.06-.16-.1-.26-.1s-.19.04-.26.1c-.06.06-.1.15-.1.25 0 .09.04.18.1.24.07.07.16.11.26.11s.19-.04.26-.11c.06-.06.1-.15.1-.24 0-.1-.04-.19-.1-.25z" class="fil3"/><path d="M1.18.22c.02-.07.07-.11.14-.1.07.02.08.08.07.15l-.08.4c-.07.06-.09.14-.02.24v.01L.95 2.64c.02.15.01.32-.04.47-.04.16-.11.31-.21.42-.05.06-.13.06-.18.01-.06-.04-.06-.13-.01-.18.07-.08.12-.19.15-.31.04-.13.05-.27.03-.39v-.04L1.03.87c.09-.03.1-.21.08-.23l.07-.42z" class="fil3"/><path id="1" d="M1.32.11l-.01.02h-.05l-.01.01h-.01v.01h-.01l-.01.01-.01.01v.01L1.2.19v.02l-.01.01h-.02l.01-.01V.19l.01-.01V.17L1.2.16V.15h.01V.14h.01V.13h.01l.01-.01h.02V.11H1.32zm.08.17L1.38.27V.18h-.01V.16h-.01V.15h-.01V.14h-.02V.13h-.02l.01-.02h.01v.01h.02l.01.01.01.01.01.01.01.01v.01l.01.01V.28zM1.38.27zm-.08.4l.08-.4.02.01-.08.39v.01L1.3.67zm.02 0v.01-.01zM1.3.91h-.02v.01L1.27.91V.9L1.26.89V.88L1.25.87V.85L1.24.84V.74h.01V.72l.01-.01.01-.01V.69h.01l.01-.01.01-.01.01-.01.01.02h-.01L1.3.69V.7h-.01v.01h-.01v.01l-.01.01v.01l-.01.01v.09l.01.01v.01l.01.01v.02l.01.01.01.01zm0 0zm-.02.01V.91h.02v.01h-.02zm.02 0zM.94 2.64L1.28.92h.02L.96 2.65H.94v-.01zm0 .01v-.01.01zm-.02.47l-.01-.01v-.03l.01-.01v-.03l.01-.02v-.06l.01-.01V2.88l.01-.02v-.14L.94 2.7v-.05l.02-.01v.07l.01.02v.12l-.01.01v.09l-.01.02v.04l-.01.02v.03l-.01.01v.03l-.01.02zm-.21.42l-.02-.01.01-.01.01-.01.01-.01.01-.01.01-.02.01-.01v-.01l.01-.01.01-.01.01-.01V3.4l.01-.01.01-.01.01-.02v-.01l.01-.01.01-.01v-.02l.01-.01.01-.02v-.01l.01-.01v-.02l.01-.01v-.02l.01-.01v-.01l.01-.02v-.01l.01-.02v-.01l.01-.02.01.01v.03l-.01.01v.02l-.01.01v.02l-.01.01v.02l-.01.01-.01.01v.02l-.01.01v.02l-.01.01-.01.01v.02l-.01.01-.01.01v.02l-.01.01-.01.01-.01.02v.01l-.01.01-.01.01-.01.01-.01.02-.01.01-.01.01v.01l-.01.01-.01.01zm-.2.01l.01-.01h.01l.01.01h.01v.01h.03v.01h.05v-.01h.02l.01-.01h.01v-.01h.01l.01-.01.02.01-.01.01-.01.01H.68l-.01.01H.66v.01H.63l-.01.01H.58v-.01H.55v-.01H.53v-.01H.52l-.01-.01zm-.01-.2l.01.02v.01H.5v.01l-.01.01v.03l-.01.01v.02l.01.01v.02l.01.01v.01l.01.01v.01h.01v.01l-.01.01-.01-.01-.01-.01v-.01H.48V3.5l-.01-.01v-.04H.46v-.01l.01-.01V3.4l.01-.01v-.01l.01-.01.01-.01v-.01zm.15-.3h.02v.02l-.01.02v.02l-.01.01v.01l-.01.01v.02l-.01.01v.01l-.01.01v.02l-.01.01v.01l-.01.01v.01l-.01.01-.01.01v.01l-.01.01v.01l-.01.01-.01.01v.01l-.01.01H.53v.01l-.01.01-.01.01-.01-.02h.01v-.01l.01-.01.01-.01.01-.01V3.3l.01-.01.01-.01v-.01l.01-.01.01-.01v-.01l.01-.01v-.01l.01-.01V3.2l.01-.01v-.02l.01-.01v-.01l.01-.02v-.02l.01-.01v-.02l.01-.01v-.02zm.03-.39H.7v.04l.01.02V2.85l-.01.01v.08l-.01.01v.04L.68 3v.04l-.01.01H.65l.01-.02v-.02L.67 3v-.04l.01-.01v-.08l.01-.01V2.71L.68 2.7v-.04zm.01-.02l.01.02H.68v-.03l.01.01zm-.01 0v-.01.01zm.02-.02l-.01.02-.01-.01v-.02l.02.01zm-.02-.01zM1.04.87L.7 2.62l-.02-.01.34-1.74.01-.01.01.01zm-.02 0l.01-.01-.01.01zm.01.01V.86l.01.02h-.01zm.01 0h-.01.01zM1.1.64l.02.01-.01-.01h.01v.03h.01v.04l-.01.01v.05l-.01.01V.8L1.1.81v.01l-.01.01v.01h-.01v.01l-.01.01h-.01l-.01.01h-.01v.01L1.03.86h.01V.85h.01l.01-.01.01-.01.01-.01V.81L1.09.8V.79L1.1.78V.74l.01-.01V.67L1.1.66V.64zm0 .01V.64v.01zm.09-.43l-.07.43L1.1.64l.07-.42h.02zm-.02 0z" class="fil1"/><path d="M.72 2.67C.65 2.66.59 2.6.6 2.53c0-.07.06-.13.13-.12.45.04.47.25.62.53.04.07-.02-.05.03.05V3c.05.14.09.22.13.27.05.04.11.05.2.06l1.48-.05c.07 0 .13.05.13.12 0 .07-.05.13-.12.14l-1.49.05H1.7c-.16-.01-.27-.05-.36-.13-.08-.08-.14-.19-.2-.37l-.02-.04c0 .01.01.01 0 0-.13-.21-.13-.36-.4-.38zm.4.38c-.01-.03-.01-.01 0 0z" class="fil4"/><path id="1" d="M.59 2.53h.02v.05h.01v.02h.01v.01l.01.01.01.01h.01v.01h.01l.01.01H.7v.01h.02v.02H.71L.7 2.67H.67v-.01H.66l-.01-.01H.64l-.01-.01-.01-.01v-.01H.61v-.01L.6 2.6v-.01l-.01-.01v-.05zm.14-.13v.02H.69v.01H.67l-.01.01-.01.01H.64v.01H.63v.01l-.01.01v.01l-.01.01v.03H.59V2.5l.01-.01v-.02h.01v-.01l.01-.01v-.01h.01v-.01h.01l.01-.01h.01l.01-.01h.02V2.4h.04zm0 0zm.63.54h-.01l-.02-.02-.01-.03-.01-.02-.02-.03-.01-.02-.01-.03-.01-.02-.01-.02-.01-.02-.02-.02-.01-.03-.01-.02-.01-.01-.02-.02-.01-.02-.01-.02-.02-.02-.02-.01-.01-.02-.02-.01-.02-.01-.02-.02-.02-.01-.03-.01-.02-.01-.03-.01-.03-.01-.03-.01-.03-.01H.81l-.04-.01H.73V2.4h.04l.04.01.04.01h.03l.04.01.03.01.02.01.03.01.03.01.02.02.02.01.02.01.02.02.02.01.01.02.02.02.02.02.01.02.01.01.02.02.01.02.01.03.01.02.01.02.02.02.01.03.01.02.01.02.01.03.02.02.01.03.01.03zm0 0zm.02.04l-.01.01-.01-.01v-.01l-.01-.01v-.01l.02-.01v.02h-.01v.01-.01h-.01v-.02h.02v.02l-.01.01v-.01h-.01v-.01l.02-.01v.02l.01.01v.01zm-.01.01zm0 .01v-.01l.01-.01.01.01-.02.01zm.02-.01zM1.37 3l.02-.01V3h-.02zm.15.26l-.01.01H1.5l-.01-.01-.01-.01v-.01l-.01-.01-.01-.01v-.01h-.01v-.02l-.01-.01v-.01h-.01v-.02l-.01-.01v-.01l-.01-.01V3.1l-.01-.01v-.01l-.01-.01v-.03l-.01-.01v-.01L1.37 3h.02v.01l.01.01v.02l.01.01v.01l.01.01v.02l.01.01v.01l.01.01v.02l.01.01v.02h.01v.01l.01.01v.01l.01.01v.01h.01v.01h.01v.01l.01.01.01.01zm-.01.01l.03.03-.03-.03zm.2.05v.02h-.02l-.01-.01H1.62v-.01h-.04v-.01h-.02l-.01-.01h-.01l-.01-.01h-.01v-.01h-.01v-.01l.01-.01.01.01h.01v.01h.01l.01.01h.02v.01h.03l.01.01h.05l.01.01h.03zm0 .02zm1.48-.05l-1.48.05v-.02l1.48-.05v.02zm0-.02zm.14.13h-.02v-.03l-.01-.01v-.01l-.01-.01v-.01h-.01v-.01h-.01v-.01h-.01l-.01-.01h-.01v-.01h-.05v-.02h.05v.01h.02v.01h.01l.01.01.01.01.01.01.01.01v.01h.01v.02l.01.01v.03zm-.13.15v-.02h.01l.01-.01h.02l.01-.01h.01V3.5h.01l.01-.01v-.01h.01v-.01h.01v-.01l.01-.01V3.4h.02v.05l-.01.01v.01l-.01.01v.01H3.3v.01h-.01v.01h-.01v.01h-.01l-.01.01h-.01l-.01.01H3.2v.01zm0-.02zm-1.49.05l1.49-.05v.02l-1.49.05v-.02zm0 .02zm-.01-.02h.01v.02H1.7v-.02zm0 .02zm0-.02v.02-.02zm0 0zm-.37-.11l.02-.02.01.01v.01h.01l.01.01.01.01h.01l.01.01.01.01h.01l.01.01h.01l.01.01h.02l.01.01h.01l.01.01h.03l.02.01h.03l.01.01H1.67l.01.01h.02v.02h-.02l-.01-.01H1.6l-.01-.01h-.04l-.01-.01h-.02l-.02-.01h-.02l-.01-.01h-.01l-.01-.01h-.01l-.01-.01h-.01l-.01-.01H1.4l-.01-.01-.01-.01h-.01l-.01-.01-.01-.01-.01-.01h-.01zm-.2-.38l.02-.01v.02l.01.02v.01l.01.02v.01l.01.02.01.01v.02l.01.01v.01l.01.02v.01l.01.01.01.01v.02l.01.01v.01l.01.01.01.01v.01l.01.01.01.01v.01l.01.01.01.01v.01h.01l.01.01v.01l.01.01.01.01h.01l-.02.02v-.01l-.01-.01-.01-.01H1.3v-.01l-.01-.01-.01-.01-.01-.01v-.01l-.01-.01-.01-.01v-.01l-.01-.01-.01-.01v-.01l-.01-.01-.01-.01v-.02l-.01-.01v-.01l-.01-.01-.01-.02v-.01l-.01-.02V3.2l-.01-.01v-.02l-.01-.01v-.02l-.01-.02-.01-.01v-.02zm.02-.01v.01-.01zm-.02-.03l.02.03-.02.01-.02-.04.01-.01.01.01zm-.01-.01l.01.01-.01-.01zm0 0v.02l-.01-.01.01-.01zm-.01.01v-.01h.01l-.01.01zm0 0l.02-.01v.01l-.01.01h-.01v-.01h.02l-.02.01v-.01zm.02-.01v.01-.01zm-.41-.36v-.02h.05l.02.01h.02l.02.01.02.01h.02l.02.01.01.01.01.01.02.01.01.01.01.01.01.01.01.01.01.01.01.02.01.01.01.01.01.02.01.01v.02l.01.01.01.02.01.02.01.01.01.02.01.02.01.02.01.02.01.02.01.01-.02.01-.01-.02-.01-.01L1.08 3l-.01-.02-.01-.02-.01-.02-.01-.01-.01-.02v-.02l-.01-.01-.01-.02L1 2.85l-.01-.02-.01-.01v-.01L.97 2.8l-.01-.02-.01-.01-.01-.01-.01-.01-.01-.01-.02-.01-.01-.01H.88l-.02-.01-.01-.01H.83l-.02-.01H.79l-.02-.01H.72zm0-.02zm.4.38v.02l-.01-.01v-.01H1.1l.02-.01v.01h.01v.01h-.02v-.01H1.1l.02-.01v.01h.01v.01l-.01-.01zm0 .02h-.01v-.01l.01.01zm0 0v-.02l.01.01-.01.01zm.01-.01v.01h-.01l.01-.01z" class="fil1"/><path d="M.65.24C.6.24.55.19.56.13c0-.05.05-.1.11-.09l.2.03c.06 0 .1.05.1.11 0 .05-.05.1-.11.09L.65.24z" class="fil5"/><path id="1" d="M.55.13h.02v.05h.01v.01L.59.2.6.21l.01.01h.01v.01h.03v.02H.62V.24H.6V.23H.59L.58.22V.21H.57V.2H.56V.18H.55V.13zm.12-.1L.66.04l.01.01L.66.04.65.05H.62v.01H.6v.01H.59v.01L.58.09V.1H.57v.03H.55V.1L.56.09V.08L.57.07.58.06V.05h.01L.6.04h.01L.62.03h.05zm0 0zm.2.05L.66.04.67.03l.2.03v.02zm0 0zm.11.1L.96.17V.14L.95.13V.12L.94.11.93.1.92.09H.91V.08H.87V.06h.04v.01h.02v.01h.01v.01h.01V.1h.01v.01l.01.01v.01l.01.01v.04zm-.12.1V.26H.9L.91.25h.01L.93.24.94.23V.22h.01V.2h.01V.17l.02.01V.2H.97v.02L.96.23v.01H.95v.01H.94v.01H.93L.92.27H.91L.9.28H.86zm0 0zM.66.23l.2.03v.02L.65.25V.23h.01zm-.01 0h.01-.01z" class="fil1"/><path d="M.88.01c.08 0 .14.08.14.18 0 .09-.06.17-.14.17C.81.36.75.28.75.19c0-.1.06-.18.13-.18z" class="fil6"/><path id="1" d="M1.03.19h-.02V.15L1 .14V.11H.99V.09L.98.08V.07H.97V.06H.96V.05H.95V.04H.94V.03H.92L.91.02H.88V0h.03l.01.01h.01l.01.01h.01l.01.01.01.01h.01v.01l.01.01.01.01v.01l.01.01v.02h.01v.04l.01.01v.03zM.88.37V.35h.04L.93.34h.01V.33h.01V.32h.01L.97.31V.3h.01V.29L.99.28V.27L1 .26V.23l.01-.01V.19h.02v.02l-.01.01v.04l-.01.01v.01L1 .29V.3L.99.31v.01H.98v.01H.97L.96.34.95.35.94.36H.93L.92.37H.88zM.74.19h.02v.05h.01v.03h.01v.02h.01V.3H.8v.01l.01.01.01.01h.01v.01h.01l.01.01h.03v.02H.85L.84.36H.83L.82.35H.81V.34H.8V.33H.79V.32H.78V.31L.77.3.76.29V.27H.75V.24L.74.23V.19zM.88 0v.02H.85v.01H.83v.01H.82L.81.05v.01H.8v.01H.79v.01H.78V.1L.77.11v.02L.76.14v.05H.74V.14L.75.13V.11L.76.1V.08h.01V.07L.78.06.79.05V.04H.8V.03h.01V.02h.02V.01h.02V0h.03z" class="fil1"/><path d="M1.08.64l.24.03c.03.01.05.03.05.06l-.02.14c-.01.03-.03.05-.06.05L1.04.88C1.01.88.99.85 1 .82l.01-.13c.01-.03.03-.05.07-.05z" class="fil0"/><path id="1" d="M1.32.68L1.07.65l.01-.02.24.03v.02zm.05.06L1.36.73V.72L1.35.71V.7h-.01V.69h-.01V.68h-.01V.66h.01v.01h.02v.01h.01v.01h.01v.03h.01v.01l-.01.01zm-.03.13l.02-.14.01.01-.01.13h-.02zm-.06.05l.01-.01h.01V.9h.02V.89h.01V.88h.01V.87h.02v.01h-.01V.9h-.01v.01h-.01v.01H1.3l-.01.01V.92h-.01zM1.04.87l.25.04-.01.01-.24-.03V.87zM.99.82H1v.02h.01v.02h.01v.01h.02v.02h-.02V.88h-.01L1 .87V.86H.99V.82zm.03-.13L1 .82H.99L1 .69h.02zm.06-.06l-.01.02h-.02l-.01.01h-.01v.02h-.01v.01H1V.68h.01V.66h.01V.65l.01-.01h.01V.63h.04z" class="fil1"/><path d="M.93.31C.87.3.83.26.83.2.84.14.89.1.94.1l.72.04c.05.01.1.06.09.11 0 .06-.05.1-.11.1L.93.31z" class="fil4"/><path id="1" d="M.82.2h.02v.02h.01v.03h.01v.01l.01.01.01.01h.01v.01h.02V.3h.02v.02H.92L.91.31H.89L.88.3H.87V.29H.86V.28H.85V.27H.84V.25H.83V.21H.82V.2zM.94.09v.02H.91v.01H.89v.01H.88L.87.14.86.15v.01H.85v.02L.84.19V.2H.82L.83.19V.16L.84.15V.14h.01V.13h.01V.12h.01V.11h.01L.89.1h.02V.09h.03zm0 0zm.72.06L.94.11V.09l.72.04v.02zm0 0zm.1.1h-.02V.21L1.73.2V.19h-.01V.18h-.01V.17H1.7L1.69.16h-.02V.15h-.01V.13l.01.01h.03v.01h.01l.01.01h.01v.01l.01.01v.01h.01V.2l.01.01v.04zm-.12.11V.34h.04l.01-.01h.01l.01-.01.01-.01V.3h.01V.29l.01-.01V.25h.02v.04h-.01v.02h-.01v.01h-.01v.01l-.01.01h-.01L1.7.35h-.01l-.01.01h-.04zm0 0zM.93.3l.71.04v.02L.93.32V.3zm0 0z" class="fil1"/><g><path d="M1.79.07c.08 0 .15.09.15.19 0 .11-.07.19-.15.19-.08 0-.14-.08-.14-.19 0-.1.06-.19.14-.19z" class="fil6"/><path id="1" d="M1.95.26h-.02V.21h-.01V.18L1.91.17V.16L1.9.15V.14h-.01V.13h-.01V.12L1.87.11 1.86.1h-.01V.09h-.02V.08h-.04V.06h.04v.01h.02v.01h.01l.01.01.01.01h.01v.01h.01v.01l.01.01.01.01v.01l.01.01v.01l.01.01v.03l.01.01v.04zm-.16.2V.44h.04V.43h.02V.42h.01l.01-.01.01-.01.01-.01V.38h.01V.37l.01-.01V.35l.01-.01V.32l.01-.01V.26h.02V.3l-.01.01v.03l-.01.01v.01l-.01.01v.01l-.01.01L1.9.4v.01h-.01v.01l-.01.01h-.01v.01h-.01l-.01.01h-.02v.01h-.04zm-.15-.2h.02V.32h.01v.03l.01.01.01.01v.01l.01.01V.4h.01v.01h.01v.01h.02v.01h.01l.01.01h.03v.02h-.03L1.75.45h-.02V.44h-.01L1.71.43 1.7.42 1.69.41 1.68.4V.39h-.01V.38L1.66.37V.36L1.65.35V.32L1.64.31V.26zm.15-.2v.02h-.03l-.01.01h-.01V.1h-.02v.01h-.01v.01L1.7.13l-.01.01v.01l-.01.01v.01h-.01V.2l-.01.01v.05h-.02V.21L1.65.2V.17h.01V.15l.01-.01V.13h.01V.12l.01-.01L1.7.1h.01V.09h.01l.01-.01.01-.01h.01l.01-.01h.03z" class="fil1"/></g><g><path d="M1.85.38c-.06-.01-.1-.06-.1-.11 0-.06.05-.1.11-.1l.32.01c.06 0 .1.05.1.11-.01.06-.06.1-.11.1L1.85.38z" class="fil5"/><path id="1" d="M1.74.27h.02V.3l.01.01v.01l.01.01.01.01.01.01h.01v.01h.02l.01.01h.01v.02L1.84.38h-.03L1.8.37h-.01L1.78.36 1.77.35 1.76.34V.33h-.01V.31L1.74.3V.27zm.12-.11v.02h-.04l-.01.01H1.8V.2h-.01l-.01.01-.01.01v.01l-.01.01v.03h-.02V.24l.01-.01V.22l.01-.01V.2h.01V.19h.01V.18h.01V.17h.02l.01-.01h.04zm0 .02zm.32.01L1.86.18V.16l.32.01v.02zm0-.02zm.11.12h-.02V.27L2.26.26V.24L2.25.23V.22h-.01V.21h-.01V.2h-.02V.19h-.03V.17h.03v.01h.02v.01h.01V.2h.01l.01.01v.01h.01v.01l.01.01v.03l.01.01v.01zM2.17.4V.38h.02V.37h.03V.36h.01V.35h.01V.34h.01V.33l.01-.01V.3h.01V.29h.02-.01v.04h-.01v.02h-.01v.01h-.01v.01h-.01l-.01.01h-.01v.01h-.04V.4h-.01zm0-.02zM1.85.37l.32.01V.4L1.85.39V.37zm0 .02z" class="fil1"/></g><g><path d="M2.18.18c.06 0 .1.05.1.1 0 .06-.04.1-.1.1-.05 0-.1-.04-.1-.1 0-.05.05-.1.1-.1z" class="fil6"/><path id="1" d="M2.29.28h-.02V.25h-.01V.23h-.01V.22h-.01V.21h-.01V.2h-.02V.19h-.03V.17h.03v.01h.02l.01.01h.01V.2h.01v.01l.01.01.01.01v.02h.01v.03zm-.11.11V.37h.04V.36h.01l.01-.01.01-.01V.33h.01V.31h.01V.28h.02v.03h-.01v.02l-.01.01v.01h-.01v.01h-.01v.01h-.01v.01h-.02v.01h-.04zM2.07.28h.02V.3l.01.01v.02h.01v.01h.01v.01h.01v.01h.01v.01h.04v.02h-.04V.38h-.01L2.12.37h-.01V.36H2.1V.35L2.09.34V.33h-.01V.3L2.07.29V.28zm.11-.11v.02h-.02L2.15.2h-.01l-.01.01h-.01v.01h-.01v.01L2.1.24v.02h-.01v.02h-.02V.27h.01V.23h.01V.22h.01V.21L2.11.2l.01-.01h.01V.18h.02V.17h.03z" class="fil1"/></g><g><path d="M3.22 2.9c.13 0 .26.05.35.14.09.08.15.2.15.33s-.06.25-.15.34c-.09.08-.22.13-.35.13-.14 0-.27-.05-.36-.13-.09-.09-.15-.21-.15-.34 0-.13.06-.25.15-.33.09-.09.22-.14.36-.14zm.19.3c-.05-.04-.12-.07-.19-.07-.08 0-.15.03-.19.07-.05.05-.08.11-.08.17 0 .07.03.13.08.17.04.04.11.07.19.07.07 0 .14-.03.19-.07.04-.04.07-.1.07-.17 0-.06-.03-.12-.07-.17z" class="fil2"/><path id="1" d="M3.58 3.03l-.02.02v-.01l-.01-.01-.01-.01h-.01l-.01-.01L3.51 3H3.5l-.01-.01-.01-.01h-.01l-.01-.01h-.01l-.01-.01h-.01l-.01-.01h-.01l-.01-.01h-.03l-.01-.01h-.02l-.01-.01h-.05l-.01-.01h-.05v-.02h.04l.01.01h.05l.01.01h.04l.01.01h.01l.01.01h.03l.01.01h.01l.01.01.01.01h.01l.01.01h.01l.01.01.01.01h.01l.01.01.01.01.01.01h.01l.01.01zm-.02.02zm.17.32h-.02V3.3l-.01-.01v-.03l-.01-.01v-.03l-.01-.01V3.2l-.01-.01v-.01l-.01-.01v-.01l-.01-.01v-.01l-.01-.01-.01-.01v-.01h-.01l-.01-.01-.01-.01v-.01l-.01-.01-.01-.01-.01-.01h-.01l.02-.02.01.01.01.01v.01l.01.01h.01l.01.01v.01l.01.01.01.01.01.01v.01l.01.01v.01l.01.01v.01l.01.01v.02l.01.01v.01l.01.01v.02l.01.01v.04l.01.01V3.37zm-.15.34l-.02-.01.01-.01.01-.01.01-.01h.01v-.01l.01-.01.01-.01.01-.01v-.01l.01-.01.01-.01v-.01l.01-.01v-.01l.01-.01v-.01l.01-.01v-.01l.01-.01V3.5l.01-.01v-.04l.01-.01V3.37h.02V3.43l-.01.02v.03l-.01.01v.03l-.01.01v.01l-.01.01v.01l-.01.01v.01l-.01.01v.01l-.01.01v.01l-.01.01-.01.01-.01.01v.01l-.01.01-.01.01-.01.01v.01h-.01l-.01.01zm-.36.14v-.02h.08l.02-.01h.03l.01-.01h.01l.02-.01h.02l.01-.01h.01l.01-.01h.01l.01-.01h.01l.01-.01.01-.01h.01l.01-.01.01-.01h.01l.01-.01.01-.01h.01V3.7l.02.01-.01.01-.01.01-.01.01h-.01l-.01.01-.01.01h-.01l-.01.01-.01.01h-.01l-.01.01h-.01l-.01.01h-.01l-.01.01h-.02l-.01.01h-.01l-.01.01h-.02l-.02.01h-.03l-.02.01h-.07zm-.37-.14l.02-.01.01.01.01.01.01.01h.01l.01.01.01.01h.01l.01.01.01.01h.01l.01.01h.01l.01.01h.01l.01.01h.03l.01.01h.01l.01.01h.04l.01.01H3.22v.02H3.14l-.01-.01h-.04l-.01-.01h-.03l-.01-.01h-.01l-.01-.01h-.01l-.02-.01h-.01l-.01-.01h-.01l-.01-.01h-.01l-.01-.01-.01-.01h-.01l-.01-.01-.01-.01h-.01l-.01-.01-.01-.01-.01-.01zm-.15-.34h.02V3.43l.01.01v.04l.01.01v.02l.01.01v.01l.01.01v.02l.01.01.01.01v.01l.01.01v.01l.01.01.01.01v.01l.01.01.01.01v.01h.01l.01.01.01.01.01.01-.02.01V3.7h-.01l-.01-.01-.01-.01-.01-.01-.01-.01v-.01l-.01-.01-.01-.01v-.01l-.01-.01-.01-.01v-.01l-.01-.01v-.01l-.01-.01v-.01l-.01-.01v-.01l-.01-.01v-.03l-.01-.01v-.05l-.01-.01v-.05zm.15-.34l.02.02h-.01l-.01.01-.01.01-.01.01v.01l-.01.01h-.01v.01l-.01.01-.01.01v.01l-.01.01v.01l-.01.01-.01.01v.02l-.01.01v.01l-.01.02v.02l-.01.01v.03l-.01.01V3.37H2.7v-.05l.01-.01v-.05l.01-.01v-.02l.01-.01v-.01l.01-.01v-.02l.01-.01v-.01l.01-.01v-.01l.01-.01.01-.01v-.01l.01-.01.01-.01v-.01l.01-.01h.01l.01-.01.01-.01.01-.01v-.01zm.37-.14v.02h-.05l-.02.01H3.1l-.01.01h-.02l-.01.01h-.02l-.02.01h-.01L3 2.96h-.01l-.01.01h-.01l-.01.01h-.01l-.01.01-.01.01h-.01l-.01.01-.01.01h-.01l-.01.01v.01l-.01.01-.02-.02.01-.01h.01l.01-.01.01-.01.01-.01h.01l.01-.01.01-.01h.01l.01-.01h.01l.01-.01.01-.01h.01l.02-.01h.02l.01-.01h.01l.01-.01h.04l.01-.01h.05l.02-.01h.04zm0 .25v-.02h.02l.01.01h.05v.01h.02l.01.01h.02v.01h.02v.01h.01l.01.01h.01v.01h.01v.01l-.01.01h-.01V3.2h-.01v-.01h-.01l-.01-.01h-.01v-.01h-.02l-.01-.01h-.01l-.01-.01h-.04v-.01h-.04zm-.19.07l-.01-.01.01-.01v-.01h.02v-.01h.01l.01-.01h.01v-.01h.02l.01-.01h.02v-.01h.05l.01-.01h.03v.02h-.04l-.01.01h-.04v.01h-.02l-.01.01h-.01l-.01.01h-.01v.01h-.01l-.01.01h-.01v.01h-.01zm-.07.16h-.02v-.04h.01V3.3l.01-.01v-.01l.01-.01v-.02h.01v-.01l.01-.01.01-.01v-.01h.01l.01-.01.01.01v.01h-.01v.01h-.01v.01L3 3.25l-.01.01v.01l-.01.01v.01l-.01.01v.03h-.01v.04zm.07.16l-.01.02v-.01h-.01v-.01H3v-.01h-.01v-.01h-.01V3.5l-.01-.01v-.02h-.01v-.02h-.01v-.03l-.01-.01v-.04h.02v.04l.01.01v.03h.01v.02h.01v.02H3v.01h.01v.01l.01.01.01.01zm0 0zm.19.07v.02H3.16l-.01-.01h-.03l-.01-.01H3.1l-.01-.01h-.01l-.01-.01h-.01v-.01h-.01l-.01-.01h-.01v-.01h-.01l.01-.02.01.01h.01v.01h.01v.01h.01l.01.01h.01l.01.01h.02v.01h.03l.01.01H3.22zm.18-.07l.01.02-.01.01h-.01v.01h-.01l-.01.01h-.01l-.01.01h-.01v.01h-.02l-.01.01h-.03l-.01.01h-.05V3.6h.05l.01-.01h.03l.01-.01h.01l.01-.01h.02v-.01h.01l.01-.01.01-.01.01-.01zm0 0zm.07-.16h.02v.05h-.01v.03l-.01.01v.01l-.01.01v.01l-.01.01v.01h-.01v.01l-.01.01h-.01v.01l-.01.01-.01-.02h.01v-.01l.01-.01.01-.01v-.01h.01v-.01l.01-.01v-.01l.01-.01v-.03h.01v-.05zm-.07-.16l.01-.01h.01v.01h.01v.01h.01v.01l.01.01v.01h.01v.01l.01.01v.02h.01v.03l.01.01v.04h-.02v-.04l-.01-.01v-.03h-.01v-.02h-.01v-.02h-.01v-.01h-.01v-.01h-.01v-.01H3.4v-.01z" class="fil1"/></g><g><path fill="#99cfba" d="M3.67 2.91c.03.07-.21-.05-.43 0-.18.05-.35.24-.41.42l-.19.02-.2-.14c.11-.56.93-.71 1.23-.3z"/><path id="1" d="M3.24 2.92l-.01-.02h.05l.02-.01h.16l.02.01h.05l.02.01h.06l.01.01h.04v-.01l.02-.01v.03h-.01v.01h-.05l-.02-.01h-.04l-.01-.01H3.5l-.02-.01H3.28l-.02.01h-.02zm-.4.42l-.01-.01v-.02l.01-.01v-.02l.01-.02.01-.02.01-.01.01-.02.01-.02.01-.02.01-.01.01-.02.01-.02.01-.01.01-.02.02-.01.01-.02.01-.01.02-.01.01-.02.02-.01.01-.01.02-.02.01-.01.02-.01.02-.01.01-.01.02-.01h.02l.01-.01.02-.01h.02l.01-.01.01.02-.02.01h-.01l-.02.01h-.02l-.01.01-.02.01-.01.01-.02.01-.01.01-.02.01-.01.01-.02.01-.01.02-.02.01-.01.01-.02.02-.01.01-.01.02-.01.01-.02.02-.01.01-.01.02-.01.01-.01.02-.01.02-.01.01v.02l-.01.02-.01.02-.01.01v.02l-.01.02zm0 0zm-.2 0l.19-.01.01.01-.2.02v-.02zm0 .02zm-.2-.16l.21.14-.01.02-.21-.14v-.01l.01-.01zm-.01.02v-.01.01zm1.25-.32l-.02.01-.03-.03-.03-.04-.03-.03-.04-.02-.04-.03-.04-.02-.04-.01-.04-.02-.05-.01-.05-.01h-.04l-.05-.01h-.05l-.05.01h-.05l-.04.01-.05.01-.05.02-.04.02-.05.02-.04.02-.04.02-.04.03-.04.03-.03.04-.04.03-.02.04-.03.04-.02.05-.02.04-.02.05-.01.05h-.02l.01-.06.02-.05.02-.04.02-.05.03-.04.03-.04.03-.04.04-.03.04-.03.04-.03.04-.03.04-.02.05-.02.05-.02.04-.01.05-.02h.05l.05-.01h.2l.04.01.05.01.05.02.04.02.04.02.04.02.04.03.04.03.03.03.03.04zm0 0z" class="fil1"/></g><g><path d="M2.48 3.12l.31.23-1.2.04-.17-.25z" class="fil0"/><path id="1" d="M2.78 3.36l-.31-.23.01-.02.31.24v.01h-.01zm.01-.01l.02.01h-.02v-.01zm-1.2.03l1.19-.04.01.02-1.2.03h-.01l.01-.01zm0 .01l-.01.01v-.01h.01zm-.16-.26l.16.25-.01.01-.17-.25.01-.01h.01zm-.02.01l-.01-.01h.02l-.01.01zm1.07-.01l-1.06.02v-.02l1.06-.02v.02zm0-.02z" class="fil1"/></g><g><path d="M2.79 3.42l.01-.07-1.21.04.15.07z" class="fil6"/><path id="1" d="M2.79 3.35l.01-.01.01.01-.01.07h-.02l.01-.07zm.01-.01h.01v.01l-.01-.01zm-1.21.05h-.01l.01-.01 1.21-.04v.02l-1.21.03zm-.01 0l-.04-.01h.05l-.01.01zm.17.06v.02l-.01-.01-.16-.07.01-.01.16.07zm0 .02h-.01v-.01l.01.01zm1.04-.06l.01.01-.01.01-1.04.04-.01-.02 1.05-.04zm.01.01v.01h-.01l.01-.01z" class="fil1"/></g><path d="M3.25 3.09c.09 0 .18.04.24.1.06.06.1.14.1.23s-.04.18-.1.24c-.06.05-.15.09-.24.09-.1 0-.18-.04-.24-.09-.06-.06-.1-.15-.1-.24s.04-.17.1-.23c.06-.06.14-.1.24-.1zm.21.12c-.05-.05-.13-.08-.21-.08-.09 0-.16.03-.22.08-.05.06-.09.13-.09.21 0 .08.04.16.09.21.06.06.13.09.22.09.08 0 .16-.03.21-.09.06-.05.09-.13.09-.21 0-.08-.03-.15-.09-.21z" class="fil3"/></g></g></svg>