<svg xmlns="http://www.w3.org/2000/svg" width="100" height="67" fill-rule="evenodd" clip-rule="evenodd" image-rendering="optimizeQuality" shape-rendering="geometricPrecision" text-rendering="geometricPrecision" viewBox="0 0 14.19 9.43"><defs><style>.fil5{fill:#f5b2b6}.fil0{fill:#f08bb2}.fil4{fill:#c5e3d7}.fil2{fill:#6fa691}.fil3{fill:#99cfba}.fil1{fill:#2b2a29;fill-rule:nonzero}</style></defs><g id="Слой_x0020_1"><g id="_612716432"><path d="M11.07 2.94c1.27 0 2.3.98 2.3 2.2 0 1.21-1-.25-2.27-.25-.46 0-.9.2-1.26.38-.57.91-1.54 2.38-1.54 2.38H6.34L4.91 5.08l.14-.35c-.37-.19-.77-.36-1.15-.36-1.17 0-1.67.9-1.98.93-.66.65-1.11 1.41-1.11.64 0-.97.68-2.31 1.78-2.8.41-.36.96-.58 1.55-.58.95 0 1.76.55 2.11 1.33l.92.31 2.98-.53s.01.11.02.26c.36-.2.7-.47.9-.99z" class="fil0"/><path id="1" d="M13.39 5.14h-.05v-.11l-.01-.11-.01-.11-.02-.11-.03-.1-.03-.11-.03-.1-.04-.1-.05-.09-.05-.1-.05-.09-.06-.09-.07-.08-.06-.08-.08-.08-.07-.08-.08-.07-.08-.07-.09-.06-.09-.06-.09-.06-.09-.05-.1-.05-.1-.04-.11-.04-.1-.04-.11-.03-.11-.02-.11-.02-.12-.01-.11-.01-.12-.01v-.04h.12l.12.01.12.01.11.02.11.03.11.03.11.03.1.04.11.05.1.04.09.06.1.06.09.06.09.06.08.07.08.08.08.07.07.08.07.09.07.09.06.09.05.09.05.1.05.09.04.1.04.11.03.1.02.11.02.11.02.11.01.12v.11zm-2.29-.22v-.05h.12l.12.02.11.01.12.03.11.03.11.04.1.04.11.04.1.05.1.04.09.05.09.05.09.05.09.04.08.05.08.04.07.04.07.03.07.03.06.02.06.02.05.01h.04l.04-.01.04-.01.03-.03.03-.03.02-.05.02-.06.01-.08.01-.09v-.1h.05v.11l-.01.09-.02.08-.02.07-.02.05-.04.04-.04.04-.04.02-.05.01-.06-.01h-.05l-.06-.02-.07-.03-.07-.02-.07-.04-.07-.04-.08-.04-.08-.04-.09-.05-.09-.05-.09-.05-.09-.04-.1-.05-.1-.05-.11-.04-.1-.04-.11-.03-.11-.03-.11-.03-.11-.02-.12-.01h-.11zm-1.24.37l-.04-.03.01-.01.03-.01.04-.02.03-.02.04-.02.03-.01.04-.02.04-.02.03-.02.04-.01.04-.02.04-.01.04-.02.04-.02.03-.01.04-.02.04-.01.04-.01.04-.02.05-.01.04-.01.04-.01.04-.01.04-.01.04-.01h.05l.04-.01.04-.01h.04l.05-.01h.13v.05h-.13l-.04.01h-.04l-.05.01h-.04l-.04.01-.04.01-.04.01-.04.01-.04.01-.04.01-.04.01-.04.01-.04.02-.04.01-.04.01-.04.02-.04.01-.03.02-.04.02-.04.01-.04.02-.03.01-.04.02-.04.02-.03.02-.04.01-.03.02-.04.02-.03.02.01-.01zm-.04-.03l.01-.01-.01.01zM8.3 7.67v-.05l-.02.01h.01v-.01l.02-.02.02-.03.02-.04.03-.04.03-.04.03-.06.04-.06.04-.06.05-.07.05-.08.05-.07.05-.09.06-.08.06-.09.06-.09.06-.1.06-.09.06-.1.07-.1.06-.09.07-.1.06-.1.06-.1.07-.1.06-.1.06-.09.06-.1.06-.09.05-.09.06-.09.04.03-.06.08-.05.09-.06.1-.06.09-.06.1-.06.09-.07.1-.06.1-.06.1-.07.1-.06.1-.07.1-.06.1-.06.09-.06.09-.06.1-.06.08-.06.09-.05.08-.05.08-.05.07-.05.07-.04.07-.04.06-.03.05-.03.05-.03.04-.02.04-.02.02-.02.02v.02h-.01l-.02.01zm-1.96-.05H8.3v.05H6.34l-.02-.01.02-.04zm0 .05h-.01l-.01-.01.02.01zm-1.41-2.6l1.43 2.57-.04.02-1.43-2.57v-.02h.04zm-.04.02v-.02.02zm.19-.35l-.14.35-.05-.02.14-.35.03-.01.02.03zm-.02-.03l.02.01v.02l-.02-.03zM3.9 4.39v-.04H4.05l.03.01h.04l.04.01.04.01h.03l.04.01.04.01.03.01.04.01.04.01.03.01.04.02.04.01.03.01.04.02.04.01.03.01.04.02.03.01.04.02.04.02.03.01.04.02.03.02.04.01.03.02.04.02.03.02-.02.04-.03-.02-.04-.02-.03-.01-.04-.02-.03-.02-.04-.01-.03-.02-.04-.02-.03-.01-.04-.02-.04-.01-.03-.02-.04-.01-.03-.01-.04-.02-.04-.01-.03-.01-.04-.01-.03-.01-.04-.01-.04-.01-.03-.01-.04-.01-.03-.01h-.04l-.04-.01h-.03l-.04-.01h-.07l-.03-.01H3.9zm-1.96.93l-.04-.04.02-.01h.02l.03-.01.03-.01.03-.02.04-.02.03-.03.04-.03.04-.03.04-.03.05-.04.04-.04.05-.04.05-.04.05-.04.06-.04.06-.05.06-.04.06-.04.06-.04.07-.04.07-.04.08-.04.07-.04.08-.03.09-.03.08-.03.1-.02.09-.02.1-.02.1-.01.1-.01h.11v.04l-.1.01h-.11l-.1.02-.09.01-.09.02-.09.03-.09.02-.08.03-.08.04L3 4.6l-.08.04-.06.04-.07.04-.07.04-.06.04-.06.04-.05.05-.06.04-.05.04-.05.04-.05.04-.04.04-.05.04-.04.03-.04.03-.04.03-.03.03-.04.02-.04.02-.03.02-.04.01h-.03.02zm-.04-.04l.01-.01h.01l-.02.01zm-1.12.66h.05V6l.01.06v.05l.01.04.01.03.01.03.02.01.01.01.01.01h.04l.02-.01.03-.02.03-.02.03-.03.04-.03.04-.03.04-.04.04-.04.04-.05.04-.04.05-.06.05-.05.05-.05.05-.06.05-.06.06-.06.05-.06.06-.06.06-.07.06-.06.06-.06.04.04-.07.06-.06.06-.05.06-.06.06-.06.06-.05.06-.05.06-.05.06-.05.05-.05.06-.05.05-.04.05-.05.04-.04.05-.04.03-.04.04-.03.03-.04.03-.03.02-.03.02-.04.01-.03.01H.9l-.02-.01-.03-.02-.02-.03-.01-.03-.02-.04v-.04l-.01-.05L.78 6v-.06zm1.8-2.82l.03.04H2.6l-.1.05-.1.05-.09.06-.1.06-.09.06-.09.07-.08.08-.08.07-.08.08-.08.09-.08.08-.07.09-.07.09-.06.09-.06.09-.06.1-.06.1-.05.09-.05.1-.05.1-.04.1-.04.1-.03.1-.04.11-.02.09-.03.1-.02.1-.02.1-.01.1-.01.09-.01.09v.1H.78l.01-.1v-.09l.01-.1.02-.1.01-.1.02-.1.03-.1.03-.1.03-.1.04-.1.04-.1.04-.11.05-.1.05-.1.05-.1.06-.1.06-.09.06-.1.07-.09.07-.09.07-.09.07-.09.08-.08.08-.08.09-.08.08-.07.09-.07.1-.07.09-.06.1-.06.1-.06.1-.04zm.03.04H2.6h.01zm1.53-.63v.05h-.11l-.05.01h-.06l-.05.01h-.05l-.06.01-.05.01-.05.01-.05.01-.06.02-.05.01-.05.01-.05.02-.05.02-.05.01-.04.02-.05.02-.05.03-.05.02-.04.02-.05.02-.04.03-.05.03-.04.02-.04.03-.04.03-.05.03-.04.03-.04.03-.03.03-.04.04-.03-.04.03-.03.04-.04.05-.03.04-.03.04-.03.04-.03.05-.03.04-.03.04-.02.05-.03.05-.02.04-.03.05-.02.05-.02.05-.02.05-.02.05-.02.05-.02.05-.01.05-.02.05-.01.06-.01.05-.02.05-.01.06-.01h.05l.05-.01.06-.01h.11l.06-.01h.05zm2.12 1.34l-.01.04-.02-.01-.03-.07-.04-.07-.04-.07-.04-.07-.04-.07-.05-.06-.05-.06-.05-.06-.05-.06-.06-.06-.06-.06-.05-.05-.07-.05-.06-.05-.06-.05-.07-.04-.07-.04-.07-.04-.07-.04-.08-.04-.07-.03-.08-.03-.07-.03-.08-.02-.08-.02-.09-.02-.08-.02-.08-.01-.09-.01-.08-.01-.09-.01h-.09v-.05l.09.01h.09l.09.01.09.01.08.01.09.02.08.02.08.02.08.03.08.03.08.03.07.03.08.04.07.04.07.04.07.04.07.05.07.04.06.05.07.06.06.05.06.06.05.05.06.06.05.07.05.06.05.07.04.06.04.07.04.07.04.08.04.07-.02-.01zm-.01.04h-.01l-.01-.01.02.01zm.91.31l-.91-.31.01-.04.92.31-.01.04h-.01zm.01 0v.01l-.01-.01h.01zm2.98-.53l-2.98.53-.01-.04 2.99-.54.02.02-.02.03zm0-.05h.02v.02l-.02-.02zm.01.26l.02.05-.03-.02V3.9l-.01-.01V3.78l-.01-.01V3.67l.04-.01v.02h.01V3.8l.01.01v.1l.01.01-.04-.02zm.02.05l-.03.01v-.03l.03.02zm.89-1.03v.04l.02-.01-.02.05-.02.04-.02.05-.02.04-.02.05-.03.04-.02.04-.02.04-.03.04-.03.03-.02.04-.03.03-.03.04-.03.03-.02.03-.03.03-.03.03-.03.03-.03.03-.04.02-.03.03-.03.03-.03.02-.03.02-.03.03-.04.02-.03.02-.03.02-.04.02-.03.02-.03.02-.04.02-.02-.05.03-.01.04-.02.03-.02.03-.02.03-.02.04-.02.03-.02.03-.03.03-.02.03-.02.03-.03.03-.02.03-.03.03-.03.03-.02.03-.03.03-.03.03-.03.03-.03.02-.04.03-.03.03-.03.02-.04.03-.04.02-.04.02-.04.03-.04.02-.04.02-.04.02-.05.02-.04.02-.05.02-.01zm-.02.01l.01-.01h.01l-.02.01z" class="fil1"/><path d="M3.62 1.87h.79v1.55h-.79z" class="fil2"/><path id="1" d="M4.41 1.89h-.79v-.04h.79l.03.02-.03.02zm0-.04h.03v.02l-.03-.02zm-.02 1.57V1.87h.05v1.55l-.03.02-.02-.02zm.05 0v.02h-.03l.03-.02zm-.82-.03h.79v.05h-.79l-.02-.02.02-.03zm0 .05H3.6v-.02l.02.02zm.03-1.57v1.55H3.6V1.87l.02-.02.03.02zm-.05 0v-.02h.02l-.02.02z" class="fil1"/><path d="M4.67 1.69v.01c0 .28-.24.51-.52.51h-.27c-.28 0-.51-.23-.52-.51V.98h1.31v.71z" class="fil3"/><path id="1" d="M4.67 1.69h.03-.03zm-.02.01v-.01h.05v.01l-.03.03-.02-.03zm.05 0v.03h-.03l.03-.03zm-.03-.02v.05l-.02-.03.02-.02zm-.02.02v-.02h.02l-.02.02zm-.5.53v-.04h.03l.02-.01h.05l.02-.01h.03l.02-.01.02-.01.02-.01.02-.01.03-.01.02-.02.01-.01.02-.01.02-.02.02-.01.02-.02.01-.02.02-.02.01-.02.01-.02.02-.02.01-.02.01-.02.01-.02v-.02l.01-.03.01-.02v-.02l.01-.03V1.7h.05v.03l-.01.03v.02l-.01.03v.03l-.01.02-.01.03-.01.02-.01.02-.01.03-.02.02L4.6 2l-.02.02-.01.02-.02.02-.02.02-.02.02-.02.01-.02.02-.02.01-.02.02-.02.01-.03.01-.02.01-.02.01-.03.01-.03.01h-.02l-.03.01h-.08zm-.27-.04h.27v.04h-.27v-.04zm-.52-.46v-.05l.02.02.01.03v.05l.01.02v.02l.01.03.01.02.01.02.01.02.01.02.01.02.01.02.02.02.01.02.02.02.02.02.01.01.02.02.02.01.02.01.02.02.02.01.02.01.02.01.03.01.02.01h.02l.03.01h.04l.03.01h.02v.04H3.8l-.02-.01h-.03l-.03-.01-.02-.01-.03-.01-.02-.01-.02-.01-.03-.01-.02-.02-.02-.01-.02-.02-.02-.01-.02-.02-.02-.02-.01-.02-.02-.02L3.44 2l-.02-.02-.01-.02-.01-.03-.02-.02-.01-.02-.01-.03v-.02l-.01-.03v-.03l-.01-.02V1.7l.02.03zm0-.05h.02v.02l-.02-.02zm0 0v.05l-.02-.03.02-.02zm0 .05h-.02V1.7l.02.03zm.02-.04v.01h-.04v-.01h.04zm-.02 0h-.02.02zm.02-.71v.71h-.04V.98l.02-.02.02.02zm-.04 0V.96h.02l-.02.02zM4.67 1H3.36V.96h1.31l.03.02-.03.02zm0-.04h.03v.02L4.67.96zm-.02.73V.98h.05v.71h-.05z" class="fil1"/><path d="M2.53.64h2.98c.17 0 .32.14.32.32v.27H2.21V.96c0-.18.14-.32.32-.32z" class="fil2"/><path id="1" d="M5.51.66H2.53V.62h2.98v.04zm.34.3H5.8V.9L5.79.89V.87L5.78.86V.84L5.77.83V.82L5.76.81 5.75.79 5.74.78 5.73.77V.76L5.72.75 5.71.74 5.69.73 5.68.72 5.67.71h-.01L5.65.7 5.63.69h-.01L5.61.68h-.02L5.58.67h-.04L5.52.66h-.01V.62h.07l.01.01h.02l.01.01h.02l.02.01.01.01.01.01h.02l.01.01.02.01.01.02.01.01.01.01.01.01.01.01.01.02.01.01.01.02.01.01v.02l.01.01v.02l.01.01v.02l.01.02v.05zm-.05.27V.96h.05v.27l-.02.03-.03-.03zm.05 0v.03h-.02l.02-.03zm-3.64-.02h3.62v.05H2.21l-.03-.03.03-.02zm0 .05h-.03v-.03l.03.03zm.02-.3v.27h-.05V.96h.05zm.3-.34v.04h-.02L2.5.67h-.05l-.01.01h-.01l-.02.01H2.4L2.39.7l-.02.01h-.01l-.01.01-.01.01-.01.01-.01.01-.01.01-.01.01-.01.01-.01.01v.02l-.01.01-.01.01v.01l-.01.02v.01l-.01.02v.02l-.01.02v.03h-.05V.94l.01-.02V.89L2.2.87V.86l.01-.02V.83l.01-.02.01-.01V.78l.01-.01.01-.02.01-.01.01-.01.02-.01.01-.01.01-.02.01-.01.02-.01h.01l.01-.01.02-.01.01-.01h.02l.02-.01h.01l.02-.01h.07z" class="fil1"/><path d="M4.01.25c.2 0 .38.11.5.28h-1c.11-.17.29-.28.5-.28z" class="fil0"/><path id="1" d="M4.51.55V.5l-.02.04-.02-.02-.01-.01-.01-.02-.01-.01-.01-.01-.01-.02L4.4.44 4.39.43 4.38.42 4.36.4 4.35.39 4.34.38 4.32.37 4.31.36 4.29.35 4.28.34 4.26.33h-.01L4.23.32 4.21.31H4.2L4.18.3 4.16.29h-.01L4.13.28h-.04L4.08.27H4.01V.22h.03l.02.01h.06l.02.01h.02l.02.01h.02l.01.01.02.01.02.01h.02l.01.01.02.01.02.01.01.01.02.01.01.01.02.02.01.01.02.01.01.01.02.02.01.01.01.01.02.02.01.01.01.02.01.02.02.01-.02.04zm.02-.04l.02.04h-.04l.02-.04zM3.51.5h1v.05h-1L3.49.51 3.51.5zm0 .05h-.05l.03-.04.02.04zm.5-.33v.05h-.08l-.01.01h-.04l-.02.01h-.01L3.83.3l-.02.01H3.8l-.02.01-.02.01h-.01l-.02.01-.01.01-.02.01-.01.01-.02.01-.01.01-.01.01-.02.02-.01.01-.01.01-.02.01-.01.02-.01.01-.01.01-.01.02-.01.01-.01.02-.04-.03L3.5.5l.01-.02.01-.02.01-.01.02-.02.01-.01.01-.01.02-.02.01-.01.02-.01.01-.01.02-.02.01-.01.02-.01.01-.01.02-.01.02-.01.01-.01h.02l.02-.01.02-.01.01-.01h.02l.02-.01h.02l.02-.01h.06l.02-.01h.04z" class="fil1"/><path d="M3.48 5.41c1.1 0 1.99.89 1.99 1.99s-.89 2-1.99 2c-1.11 0-2-.9-2-2s.89-1.99 2-1.99z" class="fil2"/><path id="1" d="M5.5 7.4h-.05v-.1l-.01-.1-.01-.1-.02-.1-.02-.09-.03-.09-.03-.1-.03-.09-.04-.08-.05-.09-.05-.08-.05-.08-.05-.08L5 6.15l-.06-.07-.07-.07-.07-.07-.07-.06-.07-.06-.08-.05-.08-.06-.08-.04-.09-.05-.08-.04-.09-.03-.1-.03-.09-.03-.1-.02-.09-.02-.1-.01-.1-.01h-.1v-.05h.1l.1.01.11.01.09.02.1.02.1.03.09.03.09.04.09.04.09.05.09.04.08.06.08.05.07.06.08.07.07.06.06.07.07.08.06.07.05.08.06.08.04.09.05.09.04.09.04.09.03.09.02.1.03.09.01.1.02.11.01.1v.1zM3.48 9.42v-.04l.1-.01.1-.01.1-.01.09-.01.1-.03.09-.02.1-.03.09-.04.08-.04.09-.04.08-.05.08-.05.08-.06.07-.06.07-.06.07-.06.07-.07.06-.07.06-.08.05-.07.05-.08.05-.09.05-.08.04-.09.03-.09.03-.09.03-.09.02-.1.02-.1.01-.1.01-.1v-.1h.05v.11l-.01.1-.02.1-.01.1-.03.1-.02.09-.03.1-.04.09-.04.09-.05.09-.04.08-.06.08-.05.08-.06.08-.07.07-.06.07-.07.07-.08.06-.07.06-.08.06-.08.05-.09.05-.09.04-.09.04-.09.04-.09.03-.1.03-.1.02-.09.02-.11.01-.1.01h-.1zM1.46 7.4h.04l.01.1v.1l.02.1.01.1.03.1.02.09.03.09.04.09.04.09.04.08.05.09.05.08.06.07.05.08.07.07.06.07.07.06.07.06.08.06.07.06.08.05.09.05.08.04.09.04.09.04.09.03.09.02.1.03.1.01.1.01.1.01.1.01v.04h-.11l-.1-.01-.1-.01-.1-.02-.1-.02-.09-.03-.1-.03-.09-.04-.09-.04-.09-.04-.08-.05-.08-.05-.08-.06-.08-.06-.07-.06-.07-.07-.07-.07-.06-.07-.06-.08-.06-.08-.05-.08-.05-.08-.04-.09-.04-.09-.04-.09-.03-.1-.03-.09-.02-.1-.02-.1-.01-.1-.01-.1V7.4zm2.02-2.02v.05h-.1l-.1.01-.1.01-.1.02-.1.02-.09.03-.09.03-.09.03-.09.04-.08.05-.09.04-.08.06-.07.05-.08.06-.07.06-.07.07-.06.07-.07.07-.05.07-.06.08-.05.08-.05.08-.04.09-.04.08-.04.09-.03.1-.02.09-.03.09-.01.1-.02.1v.1l-.01.1h-.04v-.1l.01-.1.01-.11.02-.1.02-.09.03-.1.03-.09.04-.09.04-.09.04-.09.05-.09.05-.08.06-.08.06-.07.06-.08.07-.07.07-.06.07-.07.08-.06.08-.05.08-.06.08-.04.09-.05.09-.04.09-.04.1-.03.09-.03.1-.02.1-.02.1-.01.1-.01h.11z" class="fil1"/><path d="M3.33 6.22c.71 0 1.28.57 1.28 1.27 0 .7-.57 1.27-1.28 1.27-.7 0-1.27-.57-1.27-1.27 0-.7.57-1.27 1.27-1.27z" class="fil3"/><path id="1" d="M4.63 7.49h-.05v-.13l-.01-.06-.01-.06-.02-.06-.01-.06-.02-.06L4.48 7l-.02-.05-.03-.06-.03-.05-.03-.05-.04-.05-.03-.05-.04-.04-.04-.04-.05-.05-.04-.04-.05-.03-.05-.04-.05-.03-.05-.03-.05-.03-.06-.02-.06-.02-.05-.02-.06-.02-.06-.02-.07-.01h-.06l-.06-.01h-.07v-.05h.07l.07.01.06.01.07.01.06.01.06.02.06.02.06.02.06.03.05.03.06.03.05.03.05.04.05.04.05.04.04.04.04.05.04.04.04.05.04.05.03.06.03.05.03.06.03.05.02.06.02.06.02.06.01.07.02.06v.07l.01.06v.07zm-1.3 1.29v-.04l.07-.01h.06l.06-.01.07-.01.06-.01.06-.02.05-.02.06-.02.06-.03.05-.02.05-.03.05-.04.05-.03.05-.04.04-.04.05-.04.04-.04.04-.05.03-.05.04-.04.03-.05.03-.06.03-.05.02-.06.03-.05.02-.06.01-.06.02-.06.01-.06.01-.06v-.13h.05v.06l-.01.07v.07l-.02.06-.01.06-.02.06-.02.06-.02.06-.03.06-.03.06-.03.05-.03.05-.04.05-.04.05-.04.05-.04.04-.04.05-.05.04-.05.04-.05.03-.05.04-.06.03-.05.03-.06.02-.06.03-.06.02-.06.01-.06.02-.07.01-.06.01h-.14zM2.04 7.49h.05v.13l.01.06.01.06.01.06.02.06.02.06.02.05.03.06.03.05.03.06.03.05.03.04.04.05.04.05.04.04.04.04.05.04.05.04.05.03.05.04.05.03.05.02.06.03.05.02.06.02.06.02.06.01.06.01.07.01h.06l.06.01v.04H3.2l-.06-.01-.07-.01-.06-.02-.06-.01-.06-.02-.06-.03-.06-.02-.05-.03-.06-.03-.05-.04-.05-.03-.05-.04-.05-.04-.04-.05-.05-.04-.04-.05-.03-.05-.04-.05-.03-.05-.04-.05-.02-.06-.03-.06-.02-.06-.02-.06-.02-.06-.02-.06-.01-.06-.01-.07v-.13zm1.29-1.3v.05h-.06l-.06.01h-.07l-.06.01-.06.02-.06.02-.06.02-.05.02-.06.02-.05.03-.05.03-.05.03-.05.04-.05.03-.05.04-.04.05-.04.04-.04.04-.04.05-.03.05-.03.05-.03.05-.03.06-.03.05-.02.06-.02.06-.02.06-.01.06-.01.06-.01.06v.13h-.05v-.13l.01-.07.01-.06.02-.07.02-.06.02-.06.02-.06.03-.05.02-.06.04-.05.03-.06.04-.05.03-.05.04-.04.05-.05.04-.04.05-.04.05-.04.05-.04.05-.03.06-.03.05-.03.06-.03.06-.02.06-.02.06-.02.06-.01.07-.01.06-.01.07-.01h.06z" class="fil1"/><path d="M3.17 7.11c.21 0 .39.18.39.39 0 .21-.18.39-.39.39-.22 0-.39-.18-.39-.39 0-.21.17-.39.39-.39z" class="fil4"/><path id="1" d="M3.58 7.5h-.05v-.05l-.01-.02v-.04l-.01-.01-.01-.02v-.02l-.01-.01-.01-.02-.01-.01-.01-.02-.01-.01-.01-.01-.01-.02-.02-.01-.01-.01-.01-.01-.02-.01-.01-.01-.02-.01-.01-.01h-.02l-.02-.01-.01-.01h-.02l-.02-.01h-.07v-.05h.06l.02.01h.02l.02.01h.02l.02.01.02.01.01.01.02.01.02.01.01.01.02.01.01.02.02.01.01.01.02.02.01.01.01.02.01.02.01.01.01.02.01.02v.02l.01.02.01.02v.02l.01.02v.06zm-.41.41v-.05h.07l.02-.01h.02l.01-.01h.02l.02-.01.01-.01.02-.01.01-.01.02-.01.01-.01.01-.01.02-.01.01-.01.01-.02.01-.01.01-.02.01-.01.01-.02.01-.01v-.02l.01-.01.01-.02v-.04l.01-.01V7.5h.05v.06l-.01.02v.02l-.01.02-.01.02v.02l-.01.02-.01.02-.01.01-.01.02-.01.02-.01.01-.02.02-.01.01-.02.02-.01.01-.02.01-.01.01-.02.01-.02.01-.01.01-.02.01-.02.01h-.02l-.02.01h-.02l-.02.01h-.06zm-.41-.41h.04v.02l.01.02v.03l.01.02v.02l.01.02v.01l.01.02.01.01.01.02.01.01.01.02.01.01.01.02.01.01.01.01.02.01.01.01.01.01.02.01.01.01.02.01.02.01h.01l.02.01h.02l.01.01h.08v.05h-.06l-.02-.01h-.02l-.02-.01h-.02l-.02-.01-.02-.01-.02-.01-.02-.01-.01-.01-.02-.01-.01-.01-.02-.01-.01-.02-.02-.01-.01-.02-.01-.01-.01-.02-.01-.02-.01-.01-.01-.02-.01-.02-.01-.02-.01-.02V7.6l-.01-.02V7.5zm.41-.41v.05h-.08l-.01.01h-.02l-.02.01-.01.01h-.02l-.02.01-.01.01-.02.01-.01.01-.01.01-.02.01-.01.01-.01.02-.01.01-.01.01-.01.02-.01.01-.01.02-.01.01-.01.02v.02l-.01.01v.02l-.01.02v.03l-.01.02v.02h-.04v-.08l.01-.02v-.02l.01-.02.01-.02.01-.02.01-.02.01-.01.01-.02.01-.02.01-.01.01-.02.02-.01.01-.01.02-.02.01-.01.02-.01.01-.01.02-.01.02-.01.02-.01.02-.01h.02l.02-.01h.02l.02-.01h.06z" class="fil1"/><g><path d="M5.85 3.28c1.47.73 2.32.57 3.69.22.66-.26.91-1.17.99-1.41.07-.15.32-.12.42-.01.5.42.68 1.25.75 1.67-.48-.04-1.23.1-1.81.31-1.51.55-3.09.66-4.55-.17-.11-.26.3-.68.51-.61z" class="fil2"/><path id="1" d="M9.53 3.48l.02.04-.01.01-.12.03-.13.03-.12.03-.12.02-.11.03-.12.02-.11.03-.11.02-.11.02-.11.01-.11.02-.11.01-.11.01h-.1l-.11.01h-.11l-.1-.01h-.11l-.11-.01-.11-.01-.11-.02-.11-.02-.12-.03-.11-.03-.12-.03-.12-.04-.12-.04-.13-.04-.12-.05-.13-.06-.14-.06-.13-.07.02-.04.13.07.14.06.13.05.12.05.13.05.12.04.11.04.12.03.11.03.12.02.11.02.11.02.1.01.11.01.11.01H7.94l.11-.01.11-.01.1-.01.11-.01.11-.02.11-.02.11-.02.11-.02.12-.03.11-.02.12-.03.12-.03.13-.03.12-.03zm.02.04l-.01.01.01-.01zm.96-1.44l.04.02v-.01l-.01.03-.01.03-.01.03-.01.04-.01.03-.01.04-.02.05-.01.04-.02.05-.02.05-.02.05-.02.05-.03.06-.02.05-.03.06-.03.05-.03.06-.03.05-.04.06-.03.05-.04.05-.04.05-.04.05-.04.05-.05.05-.05.04-.05.05-.05.04-.05.03-.06.04-.06.03-.06.02-.02-.04.06-.03.06-.02.05-.04.05-.03.05-.04.05-.04.05-.04.04-.05.04-.05.04-.05.04-.05.04-.05.03-.05.04-.05.03-.06.03-.05.03-.06.02-.05.03-.05.02-.05.02-.06.02-.05.02-.05.02-.04.02-.05.01-.04.02-.04.01-.04.01-.03.01-.04.01-.03.01-.02zm0 0zm.46-.02l-.03.04h-.01l-.01-.01-.01-.01-.01-.01-.01-.01-.01-.01h-.01l-.01-.01-.02-.01h-.01l-.02-.01h-.02l-.02-.01H10.67l-.01.01h-.03l-.01.01h-.01l-.01.01-.01.01-.01.01-.01.01h-.01v.02l-.01.01-.04-.02.01-.02v-.01l.01-.02.02-.01.01-.01.01-.01.01-.01h.02l.01-.01.02-.01h.03l.02-.01h.08l.02.01h.03l.02.01h.02l.01.01.02.01h.01l.02.01.01.01.01.01.02.01.01.01.01.01zm-.03.04h-.01.01zm.76 1.67v-.04l-.02.02-.01-.04-.01-.04-.01-.04v-.05l-.01-.05-.01-.05-.02-.05-.01-.05-.01-.06-.02-.05-.01-.06-.02-.06-.02-.05-.01-.06-.02-.06-.03-.06-.02-.05-.02-.06-.03-.06-.02-.06-.03-.05-.03-.06-.03-.05-.03-.06-.04-.05-.03-.05-.04-.05-.04-.05-.04-.04-.04-.05-.04-.04-.04-.04.03-.04.04.04.05.05.04.04.04.05.04.05.04.05.03.05.04.06.03.05.03.06.03.06.03.05.03.06.02.06.03.06.02.06.02.06.02.05.02.06.02.06.01.06.02.05.01.06.02.05.01.06.01.05.01.05.01.05.01.05.01.04.01.05v.04l-.02.02zm.02-.02l.01.03-.03-.01.02-.02zm-1.82.33l-.02-.04.06-.02L10 4l.05-.02.06-.02.06-.01.06-.02.06-.02.06-.01.06-.02.06-.02.06-.01.06-.01.06-.02.06-.01.06-.01.06-.01.06-.01.06-.01.06-.01.06-.01h.05l.06-.01.06-.01h.11l.05-.01h.26l.04.01v.04h-.35l-.05.01h-.06l-.05.01h-.06l-.06.01-.06.01-.05.01-.06.01-.06.01-.06.01-.06.01-.06.01-.06.01-.06.02-.06.01-.06.02-.06.01-.06.02-.06.01-.06.02-.06.02-.05.02-.06.02-.05.01-.06.02zM5.32 3.9l.04-.02-.01-.01.14.08.14.07.13.06.14.06.14.05.14.05.14.04.14.04.14.04.14.02.14.03.15.02.14.02.14.01.14.01H7.74l.14-.01h.15l.14-.02.14-.01.15-.02.14-.02.14-.03.15-.03.14-.03.14-.04.15-.04.14-.04.14-.04.14-.05.14-.05.02.04-.14.05-.14.05-.15.05-.14.04-.15.04-.14.03-.14.04-.15.03-.14.02-.15.03-.14.01-.15.02-.14.01-.15.01-.14.01H7.6l-.15-.01h-.14l-.15-.02-.14-.01-.14-.02-.15-.03-.14-.03-.14-.03-.14-.04-.14-.05-.15-.04-.14-.06-.14-.06-.14-.06-.13-.07-.14-.08-.01-.01zm.01.01h-.01V3.9l.01.01zm.53-.65l-.02.04h-.1l-.02.01-.02.01-.02.01-.03.01-.02.02-.02.01-.03.02-.02.02-.02.02-.02.03-.03.02-.02.02-.02.03-.01.02-.02.03-.02.03-.01.02-.01.03-.01.03-.01.02-.01.03V3.86l.01.02-.04.02-.01-.03-.01-.02v-.09l.01-.03V3.7l.01-.03.01-.03.02-.03.01-.03.02-.03.02-.02.02-.03.02-.03.02-.02.02-.03.02-.02.03-.02.02-.02.03-.02.02-.02.03-.02.02-.01.03-.01.03-.01.02-.01.03-.01h.07l.02.01h.01zm-.01 0h.01-.01z" class="fil1"/></g><g><path d="M3.59 4.03c1.69 0 3.06 1.46 3.06 3.26 0 .12 0 .24-.02.36h-.99c0-.06.01-.12.01-.18 0-1.25-.99-2.26-2.21-2.26-1.06 0-1.95.76-2.16 1.78H.54C.69 5.33 2 4.03 3.59 4.03z" class="fil5"/><path id="1" d="M6.68 7.29h-.05l-.01-.17-.01-.16-.02-.17-.02-.15-.04-.16-.04-.15-.05-.15-.05-.15-.06-.14-.07-.14-.07-.14-.08-.13-.09-.13-.09-.12-.09-.11-.1-.12-.11-.1-.11-.1-.11-.1-.12-.09-.12-.08-.13-.08-.13-.07-.14-.07-.14-.06-.14-.05-.14-.04-.15-.04-.15-.02-.15-.02-.15-.02h-.16v-.05h.16l.16.02.15.02.15.03.15.03.15.05.14.05.14.06.14.06.13.08.13.08.13.08.12.09.11.1.12.1.1.11.1.11.1.12.09.13.09.13.08.13.07.14.07.14.06.14.06.15.05.15.04.16.03.16.03.16.02.16.01.17.01.17zm-.05.38v-.05l-.02.03V7.59l.01-.01v-.15l.01-.01V7.29h.05v.05l-.01.02v.19l-.01.01v.09l-.03.02zm.03-.02l-.01.02h-.02l.03-.02zm-1.02-.03h.99v.05h-.99l-.02-.02.02-.03zm0 .05h-.03l.01-.02.02.02zm-.02-.2h.05v.15h-.01v.03h-.04V7.47zM3.44 5.24v-.05h.11l.12.01.11.02.11.02.1.02.11.03.1.04.11.04.1.04.09.05.1.06.09.06.08.06.09.07.08.07.08.08.07.08.07.08.07.08.06.09.06.1.05.09.05.1.04.1.04.1.04.11.03.11.02.11.02.11.02.11.01.12v.12h-.05v-.12l-.01-.11-.01-.11-.02-.11-.03-.11-.03-.11-.03-.1-.04-.1-.04-.1-.05-.1-.05-.09-.06-.09-.06-.09-.07-.08-.07-.08-.07-.08-.07-.07-.08-.07-.09-.07-.08-.06-.09-.06-.09-.05-.1-.05-.09-.05-.1-.04-.1-.03-.11-.03-.1-.03-.11-.02-.11-.01-.11-.01h-.11zM1.28 7.01v-.05l-.03.02.03-.09.02-.1.03-.09.04-.09.03-.09.04-.08.05-.09.05-.08.05-.08.05-.08.06-.07.06-.07.06-.07.07-.07.06-.07.07-.06.08-.06.07-.05.08-.05.08-.05.08-.05.09-.04.09-.04.08-.03.09-.04.1-.02.09-.03.09-.02.1-.01.1-.01.1-.01h.1v.05h-.1l-.1.01-.09.01-.1.01-.09.02-.09.02-.09.03-.09.03-.09.03-.08.04-.08.04-.08.05-.08.05-.08.05-.07.05-.07.06-.07.06-.07.06-.07.07-.06.07-.06.07-.05.07-.05.08-.05.08-.05.08-.04.08-.04.08-.04.09-.03.09-.03.09-.03.09-.02.09-.02.02zm.02-.02v.02h-.02l.02-.02zm-.76-.03h.74v.05H.54l-.02-.02.02-.03zm0 .05H.52v-.02l.02.02zm3.05-3v.05h-.15l-.14.01-.15.02-.14.03-.14.03-.13.04-.14.04-.13.06-.13.05-.12.07-.12.07-.12.07-.12.08-.11.09-.11.09-.1.1-.1.1-.09.1-.1.12-.08.11-.08.12-.08.12-.07.13-.06.13-.06.13-.06.14-.04.14-.05.14-.03.15-.03.15-.03.15-.01.15H.52l.02-.16.02-.15.03-.15.04-.15.04-.15.05-.14.05-.14.06-.13.07-.13.07-.13.08-.13.08-.12.09-.11.09-.12.09-.1.11-.11.1-.09.11-.1.11-.08.12-.09.12-.07.12-.07.13-.07.13-.06.14-.05.13-.05.14-.04.14-.03.15-.03.14-.01.15-.02h.15z" class="fil1"/></g><g><path d="M11.02 4.16c1.74 0 3.15 1.46 3.15 3.25v.02h-.72c-.08-1.17-1.04-2.1-2.22-2.1-1.23 0-2.22 1.01-2.22 2.25v.07H7.87c0-.08-.01-.16-.01-.24 0-1.79 1.41-3.25 3.16-3.25z" class="fil5"/><path id="1" d="M14.19 7.41h-.05v-.16l-.01-.17-.02-.16-.03-.16-.04-.15-.04-.16-.05-.15-.05-.14-.07-.15-.06-.14-.08-.13-.08-.13-.09-.13-.09-.12-.1-.12-.1-.11-.11-.11-.12-.1-.11-.09-.13-.09-.12-.09-.13-.07-.14-.08-.14-.06-.14-.06-.14-.05-.15-.04-.15-.04-.16-.03-.15-.02-.16-.01h-.16v-.05h.16l.16.02.16.02.16.02.15.04.15.05.15.05.14.06.14.06.14.07.13.08.13.09.13.09.12.1.11.1.11.11.11.11.1.12.09.12.09.13.08.14.08.13.07.14.06.15.06.15.05.15.04.16.04.15.02.17.02.16.02.17v.16zm-.02.05v-.05l-.03.02v-.02h.05v.02-.01.02l-.02.02zm.02-.02v.02h-.02l.02-.02zm-.74-.03h.72v.05h-.72l-.03-.02.03-.03zm0 .05h-.03v-.02l.03.02zm-2.22-2.1v-.05h.11l.11.01.11.01.11.02.1.02.1.03.1.04.1.03.1.05.09.04.09.05.09.06.09.06.08.06.08.07.08.07.07.07.07.08.07.08.06.08.06.09.06.08.05.1.05.09.04.1.04.1.03.1.03.1.03.11.02.1.01.11.01.11-.05.01-.01-.11-.01-.11-.02-.1-.03-.11-.02-.1-.04-.1-.04-.09-.04-.1-.04-.09-.05-.09-.06-.09-.06-.08-.06-.08-.06-.08-.07-.08-.08-.07-.07-.07-.08-.06-.08-.06-.08-.06-.09-.06-.09-.05-.09-.04-.1-.04-.09-.04-.1-.03-.1-.03-.1-.02-.11-.02-.1-.01-.11-.01h-.11zM9.04 7.58h-.05v-.11L9 7.35l.01-.11.02-.11.03-.11.03-.11.03-.11.04-.1.05-.1.05-.1.05-.1.06-.09.06-.09.07-.08.07-.09.07-.08.08-.07.08-.07.09-.07.09-.06.09-.06.09-.06.1-.05.1-.04.1-.04.1-.04.11-.03.11-.03.11-.02.11-.01.12-.01h.11v.05h-.11l-.11.01-.11.01-.11.02-.11.03-.1.03-.1.03-.1.04-.1.05-.1.04-.09.06-.09.06-.08.06-.09.06-.08.07-.07.08-.07.08-.07.08-.07.08-.06.09-.06.09-.05.09-.05.1-.04.1-.04.1-.04.1-.03.11-.02.1-.02.11-.01.12-.01.11v.11zm-.03.09v-.05l-.02.03v-.07h.05v.07l-.03.02zm.03-.02v.02h-.03l.03-.02zm-1.17-.03h1.14v.05H7.87l-.02-.02.02-.03zm0 .05h-.02v-.02l.02.02zm-.03-.26h.05V7.64l.01.01h-.05v-.04h-.01V7.41zm3.18-3.27v.05h-.17l-.15.01-.16.02-.15.03-.16.04-.14.04-.15.05-.14.06-.14.06-.14.08-.13.07-.12.09-.13.09-.11.09-.12.1-.11.11-.1.11-.1.12-.09.12-.09.13-.08.13-.08.13-.06.14-.07.15-.05.14-.05.15-.04.16-.04.15-.03.16-.02.16-.01.17v.16h-.05v-.16l.02-.17.02-.16.02-.17.04-.15.04-.16.05-.15.06-.15.06-.15.07-.14.08-.13.08-.14.09-.13.09-.12.1-.12.11-.11.11-.11.11-.1.12-.1.13-.09.13-.09.13-.08.14-.07.14-.06.14-.06.15-.05.15-.05.16-.04.15-.02.16-.02.16-.02h.17z" class="fil1"/></g><g><path d="M.71 4.4c.16.05.16.48 0 .95-.16.46-.41.8-.57.75-.16-.05-.15-.48 0-.94.16-.47.42-.81.57-.76z" class="fil5"/><path id="1" d="M.73 5.35l-.04-.01.01-.05.01-.04.02-.04.01-.04.01-.05.01-.04.01-.04V5l.01-.04.01-.04v-.03l.01-.04V4.6l-.01-.02v-.03l-.01-.02v-.02l-.01-.02-.01-.01-.01-.02-.01-.01-.01-.01-.01-.01H.71L.7 4.42l.02-.04h.02l.01.01.02.02.01.01.01.02.01.02.01.01.01.03.01.02.01.02v.06l.01.02v.2l-.01.04v.03l-.01.04v.04l-.01.04-.01.04-.01.04-.01.05-.01.04-.01.04-.01.04-.01.05-.02.04zm-.6.77l.02-.04H.2l.01-.01h.02l.01-.01.02-.01.02-.01.01-.02.02-.01.02-.02.02-.02.02-.02.02-.02.02-.03.01-.02.02-.03.02-.03.02-.03.02-.03.02-.03.02-.04.01-.03.02-.04.02-.04.02-.03.01-.04.02-.05.02-.04.01-.04.02-.04.04.01-.01.05-.02.04-.02.04-.01.04-.02.04-.02.04-.01.04-.02.04-.02.04-.02.03-.02.03-.02.04-.02.03-.02.03-.02.03-.02.02-.02.03-.02.02L.38 6l-.02.03-.02.01-.01.02-.02.02-.02.01-.02.01-.02.01-.02.01-.02.01H.15l-.02-.01zm-.01-.97l.05.01-.02.05-.01.04-.01.04-.02.04-.01.05-.01.04v.04l-.01.04-.01.04-.01.04v.07l-.01.03v.22l.01.02v.03l.01.02.01.02v.02l.01.01.01.02.01.01.01.01.01.01h.01l.01.01-.02.04H.12L.1 6.11l-.02-.02-.01-.01-.01-.02-.01-.01-.01-.02L.03 6l-.01-.02v-.02l-.01-.03v-.02L0 5.88v-.2l.01-.04v-.03l.01-.04v-.04l.01-.04.01-.04.01-.04.01-.05.01-.04.01-.04.01-.04.02-.05.01-.04zm.6-.77l-.02.04H.65l-.01.01H.62l-.01.01-.02.01-.02.01-.01.02-.02.01-.02.02-.02.02-.02.02-.01.02-.02.03-.02.02-.02.03-.02.03-.02.03-.02.03-.02.03-.01.04-.02.03-.02.04-.02.04-.01.04-.02.03-.02.05-.01.04-.02.04-.01.04-.05-.01.02-.05.01-.04.02-.04.01-.04.02-.04.02-.04.02-.04.01-.04.02-.04.02-.03.02-.03.02-.04.02-.03.02-.03.02-.03.02-.02.02-.03.02-.02.02-.02.02-.02.02-.02.02-.02.02-.02.02-.01.02-.01.01-.01.02-.01.02-.01H.7l.02.01z" class="fil1"/></g><path d="M11.89 3.8c0 .18-.17.33-.38.33s-.38-.15-.38-.33l.03-2.29.7-1.32c.08-.16.31-.24.5-.16.19.07.28.27.19.43l-.63 1.2-.03 2.14z" class="fil1"/><g><path d="M11.22 5.41c1.11 0 2 .89 2 2 0 1.1-.89 1.99-2 1.99-1.1 0-1.99-.89-1.99-1.99 0-1.11.89-2 1.99-2z" class="fil2"/><path id="1" d="M13.24 7.41h-.04l-.01-.1v-.1l-.02-.1-.01-.1-.03-.1-.02-.09-.03-.09-.04-.09-.04-.09-.04-.08-.05-.09-.05-.08-.06-.07-.05-.08-.07-.07-.06-.07-.07-.06-.07-.07-.08-.05-.07-.06-.08-.05-.09-.05-.08-.04-.09-.04-.09-.04-.09-.03-.09-.02-.1-.03-.1-.01-.09-.02h-.11l-.1-.01v-.04h.11l.1.01.1.01.1.02.1.02.09.03.1.03.09.04.09.04.09.04.08.05.08.05.08.06.08.06.07.06.07.07.07.07.06.07.06.08.06.08.05.08.05.08.04.09.05.09.03.09.03.1.03.09.02.1.02.1.01.1.01.1v.11zm-2.02 2.02v-.05h.1l.11-.01.09-.01.1-.02.1-.02.09-.03.09-.03.09-.03.09-.04.08-.05.09-.05.08-.05.07-.05.08-.06.07-.06.07-.07.06-.07.07-.07.05-.07.06-.08.05-.08.05-.08.04-.09.04-.08.04-.09.03-.1.02-.09.03-.1.01-.09.02-.1v-.1l.01-.1h.04v.1l-.01.1-.01.11-.02.09-.02.1-.03.1-.03.09-.03.09-.05.09-.04.09-.05.09-.05.08-.06.08-.06.07-.06.08-.07.07-.07.06-.07.07-.08.06-.08.05-.08.06-.08.04-.09.05-.09.04-.09.04-.1.03-.09.02-.1.03-.1.01-.1.02-.1.01h-.11zM9.2 7.41h.05v.1l.01.1.01.1.02.09.02.1.03.09.03.1.04.09.03.08.05.09.05.08.05.08.05.08.06.07.06.07.07.07.07.07.07.06.07.06.08.05.08.05.08.05.09.05.09.04.08.03.1.03.09.03.1.02.09.02.1.01.1.01h.1v.05h-.1l-.1-.01-.1-.02-.1-.01-.1-.03-.1-.02-.09-.03-.09-.04-.09-.04-.09-.05-.08-.04-.09-.06-.08-.05-.07-.06-.08-.07-.07-.06-.06-.07-.07-.08-.06-.07-.05-.08-.05-.08-.05-.09-.05-.09-.04-.09-.04-.09-.03-.09-.02-.1-.03-.1-.01-.09-.02-.11v-.1l-.01-.1zm2.02-2.02v.04l-.1.01h-.1l-.1.02-.09.01-.1.03-.09.02-.1.03-.08.04-.09.04-.09.04-.08.05-.08.05-.08.06-.07.05-.07.07-.07.06-.07.07-.06.07-.06.08-.05.07-.05.08-.05.09-.05.08-.03.09-.04.09-.03.09-.03.09-.02.1-.02.1-.01.1-.01.1v.1H9.2l.01-.11v-.1l.02-.1.01-.1.03-.1.02-.09.03-.1.04-.09.04-.09.05-.09.05-.08.05-.08.05-.08.06-.08.07-.07.06-.07.07-.07.08-.06.07-.06.08-.06.09-.05.08-.05.09-.04.09-.04.09-.04.09-.03.1-.03.1-.02.1-.02.1-.01.1-.01h.1z" class="fil1"/></g><g><path d="M11.22 6.22c-.7 0-1.27.57-1.27 1.27 0 .71.57 1.28 1.27 1.28.7 0 1.27-.57 1.27-1.28 0-.7-.57-1.27-1.27-1.27z" class="fil3"/><path id="1" d="M9.92 7.49v-.06l.01-.07.01-.06.01-.07.01-.06.02-.06.02-.06.02-.06.03-.06.03-.05.03-.06.03-.05.04-.05.04-.05.04-.05.04-.04.05-.05.04-.04.05-.04.05-.03.06-.04.05-.03.06-.03.05-.02.06-.02.06-.02.06-.02.07-.02.06-.01.07-.01h.13v.04l-.07.01h-.06l-.06.01-.06.01-.06.01-.06.02-.06.02-.06.02-.05.03-.06.03-.05.03-.05.03-.05.03-.05.04-.04.04-.04.04-.05.04-.04.05-.03.05-.04.05-.03.05-.03.05-.03.05-.02.06-.02.05-.02.06-.02.06-.01.06-.02.06v.07l-.01.06v.06h-.05zm1.3 1.3h-.07l-.06-.01-.07-.01-.06-.01-.07-.01-.06-.02-.06-.02-.06-.02-.05-.03-.06-.03-.05-.03-.06-.03-.05-.04-.05-.04-.04-.04-.05-.04-.04-.05-.04-.04-.04-.05-.04-.05-.03-.05-.03-.06-.03-.05-.03-.06-.02-.06-.02-.06-.02-.06-.01-.07-.01-.06-.01-.06-.01-.07v-.07h.05v.07l.01.06v.06l.02.06.01.07.02.05.02.06.02.06.02.05.03.06.03.05.03.05.04.05.03.05.04.04.05.05.04.04.04.04.05.03.05.04.05.03.05.03.06.03.05.02.06.03.06.02.06.01.06.02.06.01.06.01h.13v.05zm1.29-1.3v.14l-.01.06-.01.06-.02.07-.01.06-.02.06-.03.06-.02.06-.03.05-.03.06-.04.05-.03.05-.04.05-.04.04-.05.05-.04.04-.05.04-.05.04-.05.04-.05.03-.05.03-.06.03-.06.03-.06.02-.06.02-.06.02-.06.01-.06.01-.07.01-.06.01h-.07v-.05h.13l.06-.01.06-.01.06-.02.06-.01.06-.02.05-.03.06-.02.05-.03.06-.03.05-.03.05-.04.04-.03.05-.04.04-.04.04-.05.04-.04.04-.05.03-.05.04-.05.03-.05.02-.06.03-.05.02-.06.02-.06.02-.05.01-.07.01-.06.01-.06.01-.06v-.07h.04zM11.22 6.2h.13l.07.01.06.01.06.02.06.02.06.02.06.02.06.02.06.03.05.03.05.04.05.03.05.04.05.04.04.05.05.04.04.05.04.05.03.05.04.05.03.06.03.05.02.06.03.06.02.06.01.06.02.06.01.07.01.06v.13h-.04v-.06l-.01-.06-.01-.07-.01-.06-.01-.06-.02-.06-.02-.06-.02-.05-.03-.06-.02-.05-.03-.05-.04-.05-.03-.05-.04-.05-.04-.05-.04-.04-.04-.04-.05-.04-.04-.04-.05-.03-.05-.03-.06-.03-.05-.03-.06-.03-.05-.02-.06-.02-.06-.02-.06-.01-.06-.01-.06-.01h-.07l-.06-.01V6.2z" class="fil1"/></g><g><path d="M11.38 7.12c-.21 0-.38.17-.38.39 0 .21.17.38.38.38.22 0 .39-.17.39-.38 0-.22-.17-.39-.39-.39z" class="fil4"/><path id="1" d="M10.97 7.51v-.05l.01-.02v-.02l.01-.02v-.02l.01-.02v-.01l.01-.02.01-.02.01-.02.01-.01.01-.02.02-.02.01-.01.01-.02.02-.01.01-.01.02-.01.01-.02.02-.01.02-.01.02-.01h.01l.02-.01.02-.01h.02l.02-.01h.04l.02-.01h.02v.05h-.03l-.02.01h-.04l-.01.01h-.02l-.02.01-.01.01-.02.01h-.01l-.02.01-.01.01-.02.02-.01.01-.01.01-.02.01-.01.01-.01.02-.01.01-.01.02-.01.01v.02l-.01.01-.01.02v.02l-.01.01v.02l-.01.02v.06h-.05zm.41.41h-.04l-.02-.01h-.02l-.02-.01h-.02l-.02-.01h-.02l-.01-.01-.02-.01-.02-.01-.02-.01-.01-.01-.02-.02-.01-.01-.02-.01-.01-.02-.01-.01-.02-.02-.01-.01-.01-.02-.01-.02-.01-.02-.01-.01v-.02l-.01-.02v-.02l-.01-.02v-.02l-.01-.02v-.04h.05v.05l.01.02v.02l.01.01v.02l.01.02.01.01v.02l.01.01.01.02.01.01.01.02.01.01.02.01.01.02.01.01.02.01.01.01.02.01.01.01h.02l.01.01.02.01h.02l.01.01h.02l.02.01h.05v.05zm.42-.41v.02l-.01.02v.04l-.01.02v.02l-.01.02-.01.02v.01l-.01.02-.01.02-.01.02-.02.01-.01.02-.01.01-.01.02-.02.01-.01.01-.02.02-.02.01-.01.01-.02.01-.02.01-.02.01h-.01l-.02.01h-.02l-.02.01h-.02l-.02.01h-.05v-.05h.06l.02-.01h.01l.02-.01h.02l.02-.01.01-.01h.02l.01-.01.02-.01.01-.01.02-.01.01-.01.01-.02.01-.01.01-.01.02-.02.01-.01.01-.02v-.01l.01-.02.01-.01.01-.02v-.02l.01-.01v-.04l.01-.02v-.03h.05zm-.42-.42h.02l.03.01h.04l.02.01h.02l.02.01.01.01h.02l.02.01.02.01.01.01.02.02.02.01.01.01.02.01.01.02.01.01.01.02.02.02.01.01.01.02.01.02v.02l.01.01.01.02v.02l.01.02v.04l.01.02v.03h-.05v-.04l-.01-.02v-.04l-.01-.01v-.02l-.01-.02-.01-.01-.01-.02v-.01l-.01-.02-.01-.01-.02-.02-.01-.01-.01-.01-.01-.01-.01-.01-.02-.02-.01-.01-.02-.01h-.01l-.02-.01-.01-.01-.02-.01h-.02l-.02-.01h-.03l-.02-.01h-.04v-.05z" class="fil1"/></g></g></g></svg>