<svg xmlns="http://www.w3.org/2000/svg" width="62" height="52" fill-rule="evenodd" clip-rule="evenodd" image-rendering="optimizeQuality" shape-rendering="geometricPrecision" text-rendering="geometricPrecision" viewBox="0 0 20.97 17.41"><defs><style>.fil3{fill:#f08bb2}.fil2{fill:#6fa691}.fil1{fill:#2b2a29;fill-rule:nonzero}</style></defs><g id="Слой_x0020_1"><g id="_838306928"><path fill="#c4d985" d="M12.8 5.14C11.44 1.45 14.37-.73 17.3.31c1.3.61 1.54 1.86 2.01 2.59-.06 1.06-.11 2.07-.17 3.13 1.95 1.29 2.21 5.67.27 8.29-2.37 3.22-9.87 3.6-13.34 2.43C.26 14.79-1.84 8.54 1.99 2.84c.6-.9 1.51-.38 1.94-.11.84 1.28 10.88 5.03 8.87 2.41z"/><path id="1" d="M17.33.26l-.05.09.01.01-.27-.09-.28-.07-.27-.05-.26-.03-.27-.02h-.26l-.25.02-.25.04-.24.05-.24.07-.23.08-.22.1-.21.11-.2.12-.18.14-.18.16-.17.17-.15.18-.14.19-.12.21-.11.22-.09.23-.07.25-.06.25-.04.27-.02.28v.28l.03.3.04.31.07.32.09.33.11.34-.1.03-.11-.34-.09-.33-.07-.33-.05-.32-.02-.3v-.3l.02-.28.04-.28.06-.26.07-.25.1-.24.11-.23.13-.21.14-.2.16-.19.17-.18.18-.16.2-.14.2-.13.22-.12.22-.1.24-.08.24-.07.25-.05.26-.04.26-.02h.27l.27.02.27.03.28.05.27.07.28.09h.01zm-.01 0h.01-.01zm2.04 2.64h-.11l.01.03-.04-.07-.04-.08-.05-.07-.04-.08-.04-.08-.04-.08-.04-.09-.04-.08-.04-.09-.04-.09-.04-.09-.05-.09-.04-.08-.05-.09-.05-.09-.05-.09-.05-.09-.06-.09-.06-.09-.06-.08-.06-.09-.07-.08-.07-.08-.08-.08-.08-.08-.08-.08-.09-.07-.1-.07-.1-.07-.1-.07-.11-.06-.12-.06.05-.09.12.06.11.07.11.06.1.07.1.08.09.07.09.08.08.08.08.09.08.08.07.09.07.08.06.09.06.09.06.09.05.09.05.1.05.09.05.09.05.09.04.09.04.09.04.09.05.08.04.09.04.08.04.08.04.08.04.08.04.07.04.08.04.06.01.03zm-.01-.03l.01.02v.01l-.01-.03zm-.18 3.11l-.06.09-.02-.05.01-.1v-.09l.01-.1v-.1l.01-.1v-.1l.01-.1v-.09l.01-.1v-.1l.01-.09v-.1l.01-.1v-.09l.01-.1v-.1l.01-.1v-.09l.01-.1v-.1l.01-.09v-.1l.01-.1v-.1l.01-.09v-.1l.01-.1v-.1l.01-.09v-.1l.01-.1v-.1h.11l-.01.1v.1l-.01.1v.1l-.01.1v.1l-.01.09v.1l-.01.1v.09l-.01.1-.01.1v.1l-.01.09v.2l-.01.09v.1l-.01.1v.09l-.01.1v.1l-.01.1v.09l-.01.1v.1l-.01.1-.01.09v.1l-.01.1v.1l-.01.1-.02-.05zm-.06.09l-.02-.02v-.03l.02.05zm.34 8.28l-.08-.06.17-.24.16-.26.15-.27.14-.27.12-.29.11-.28.1-.29.09-.3.07-.3.07-.3.05-.3.04-.31.03-.3.01-.3.01-.3-.01-.3-.02-.29-.03-.29-.04-.28-.05-.28-.06-.27-.07-.26-.09-.25-.09-.24-.1-.23-.12-.22-.12-.2-.14-.19-.14-.18-.16-.16-.16-.14-.18-.13.06-.09.18.14.17.15.16.16.15.19.14.19.13.21.12.23.1.23.1.25.09.25.07.27.06.27.05.28.05.29.03.29.01.3.01.3-.01.3-.01.31-.03.3-.04.31-.05.31-.07.3-.07.31-.09.3-.1.29-.11.29-.13.29-.14.28-.15.27-.16.26-.18.25zM6.05 16.8l.04-.1.33.11.36.09.38.09.39.08.42.06.42.06.45.04.45.04.46.02.48.01h.48l.48-.01.49-.02.49-.03.49-.05.49-.06.48-.07.48-.09.47-.1.47-.11.45-.12.45-.14.43-.16.41-.16.4-.19.38-.19.36-.22.34-.22.31-.25.29-.25.26-.28.24-.29.08.06-.24.3-.27.28-.29.26-.32.25-.35.23-.36.22-.38.2-.41.18-.42.17-.43.15-.45.15-.45.12-.47.11-.48.1-.48.09-.49.07-.49.06-.49.05-.5.03-.49.03-.48.01h-.49l-.47-.02-.47-.02-.45-.03-.45-.05-.43-.06-.42-.06-.4-.08-.38-.09-.36-.09-.34-.11zM1.94 2.81l.09.06-.34.53-.31.54-.27.53-.24.54-.2.54-.18.53-.14.54-.11.53-.07.53-.05.52-.02.52.02.51.04.5.07.49.1.49.13.47.16.47.19.45.21.44.24.43.27.41.29.39.32.38.34.37.37.34.39.33.42.31.44.28.46.27.49.24.51.22.53.19-.04.1-.53-.2-.52-.22-.49-.24-.47-.27-.44-.29-.42-.31-.4-.33-.37-.35-.35-.37-.32-.38-.3-.4-.27-.42-.24-.43-.22-.45-.18-.46-.16-.47-.14-.48-.1-.49-.07-.5-.05-.51L0 8.72l.02-.53.04-.52.08-.54.11-.53.15-.54.17-.55.21-.54.24-.54.27-.54.31-.54.34-.54zm2.03-.11l-.08.06.01.01-.04-.02-.04-.03-.05-.03-.05-.03-.05-.02-.05-.03-.06-.03-.05-.03-.06-.02-.06-.03-.06-.02-.06-.02-.06-.02-.07-.02-.06-.01-.06-.01-.07-.01h-.19l-.07.01-.06.01-.06.02-.07.02-.06.03-.06.03-.06.05-.06.04-.06.06-.06.06-.05.07-.06.08-.09-.06.06-.08.07-.08.06-.07.06-.06.07-.05.07-.04.07-.04.07-.03.07-.03.07-.02.07-.01.07-.01.07-.01h.07l.07.01.07.01.07.01.07.01.07.02.06.02.07.02.06.03.06.02.06.03.06.03.06.03.05.03.05.02.05.03.05.03.04.03.05.02.01.02zm-.01-.02l.01.01v.01l-.01-.02zm8.79 2.47l.1-.03-.01-.01.16.23.09.2.03.18-.04.14-.11.12-.15.07-.2.04-.24.01-.28-.01-.3-.04-.35-.06-.36-.07-.39-.1-.42-.11-.42-.12-.44-.14-.45-.15-.45-.16-.45-.17-.45-.18-.45-.18-.43-.18-.41-.18-.4-.19-.37-.18-.35-.18-.32-.18-.28-.17-.25-.16-.2-.16L4 2.89l-.11-.13.08-.06.1.12.15.14.2.14.24.16.28.17.32.18.34.18.38.18.39.18.41.19.43.18.44.18.45.17.45.17.45.16.45.15.44.14.42.12.41.11.39.1.36.07.34.06.3.03.27.02.23-.01.17-.04.13-.06.08-.08.02-.1-.02-.14-.08-.18-.15-.22-.01-.02zm.01.02v-.01l-.01-.01.01.02z" class="fil1"/><path d="M15.66 2.71c.39 0 .7.32.7.71 0 .39-.31.71-.7.71-.27 0-.51-.16-.62-.4l.61-.28-.62-.34c.12-.24.36-.4.63-.4z" class="fil2"/><path id="1" d="M16.41 3.42h-.1l-.01-.04v-.06l-.01-.03v-.04l-.01-.03-.01-.03-.02-.03-.01-.03-.01-.03-.02-.02-.01-.03-.02-.03-.02-.02-.02-.02-.02-.03-.03-.02-.02-.02-.02-.02-.03-.02-.03-.02-.02-.01-.03-.02-.03-.01-.03-.01-.03-.01-.03-.01-.03-.01h-.03l-.03-.01h-.07v-.1h.08l.03.01h.04l.04.01.03.01.04.01.03.02.04.01.03.02.03.02.03.02.03.02.03.02.02.02.03.03.02.03.03.02.02.03.02.03.02.03.02.04.02.03.01.03.01.04.01.03.02.04v.04l.01.03v.04l.01.04v.04zm-.75.76v-.1h.07l.03-.01h.03l.03-.01.03-.01.03-.01.03-.01.03-.02.03-.01.02-.02.03-.01.03-.02.02-.02.02-.02.03-.02.02-.03.02-.02.02-.03.02-.02.01-.03.02-.03.01-.02.01-.03.02-.03.01-.03.01-.04v-.03l.01-.03v-.07l.01-.03h.1v.04l-.01.04v.03l-.01.04v.04l-.02.04-.01.03-.01.03-.01.04-.02.03-.02.03-.02.03-.02.03-.02.03-.03.03-.02.03-.03.02-.02.03-.03.02-.03.02-.03.02-.03.02-.03.02-.04.01-.03.01-.04.02-.03.01-.04.01h-.04l-.03.01h-.08zm-.64-.49l.04.09.02-.07.01.02.01.02.02.02.01.02.01.02.01.02.02.01.01.02.02.02.01.01.02.02.02.01.01.02.02.01.02.01.02.02.02.01.02.01.02.01.01.01.03.01.02.01h.02l.02.01.02.01h.02l.03.01h.04l.02.01h.05v.1h-.08l-.03-.01h-.02l-.03-.01h-.03l-.02-.01-.03-.01-.02-.01-.02-.01-.03-.01-.02-.01-.02-.01-.03-.01-.02-.02-.02-.01-.02-.02-.02-.01-.02-.02-.02-.02-.02-.01-.02-.02-.01-.02-.02-.02-.02-.02-.01-.02-.02-.02-.01-.02-.01-.03-.02-.02-.01-.02.03-.07zm-.03.07l-.02-.05.05-.02-.03.07zm.68-.27l-.61.29-.04-.09.6-.29h.05v.09zm0-.09l.09.05-.09.04V3.4zm-.61-.33l.61.33-.05.09-.61-.34-.02-.06.07-.02zm-.05.08l-.04-.02.02-.04.02.06zm.65-.49v.1h-.07l-.02.01h-.05l-.02.01-.02.01h-.02l-.03.01-.02.01-.02.01-.02.01-.02.01-.02.01-.02.01-.01.02-.02.01-.02.01-.02.02-.01.01-.02.02-.02.01-.01.02-.01.02-.02.02-.01.01-.02.02-.01.02-.01.02-.01.02-.01.02-.09-.04.01-.03.01-.02.01-.02.02-.02.01-.03.02-.02.01-.02.02-.02.02-.02.02-.02.02-.01.02-.02.02-.02.02-.01.02-.02.02-.01.02-.02.02-.01.03-.01.02-.01.02-.01.03-.01.02-.01.03-.01.02-.01.03-.01h.02l.03-.01h.11z" class="fil1"/><path d="M2.56 8.36c-.06-.27-.37-.29-.57.22-1.57 3.18 2.7 7.99 6.21 4.6.53-.48.34-.91-.22-.76-2.92-.85-4.68-2.57-5.42-4.06z" class="fil3"/><path id="1" d="M2.03 8.6l-.09-.04.02-.05.02-.04.02-.04.02-.04.03-.04.02-.03.02-.03.03-.03.02-.03.02-.02.03-.02.02-.02.03-.02.02-.01.03-.01h.03l.02-.01h.08l.02.01.02.01.03.01.02.02.01.01.02.02.02.02.01.02.01.03.01.02.01.03.01.03-.11.02v-.02l-.01-.02v-.02l-.01-.02-.01-.01-.01-.01-.01-.01-.01-.01-.01-.01-.01-.01h-.01l-.01-.01h-.05l-.01.01h-.02l-.01.01-.02.01-.02.01-.02.01-.02.02-.02.01-.02.03-.02.02-.02.03-.02.03-.02.03-.02.03-.02.04-.02.04-.02.05zm0 0zm6.14 4.54l.07.08-.34.3-.33.25-.35.2-.34.17-.34.12-.34.08-.34.04-.33.01-.33-.02-.32-.06-.32-.09-.3-.12-.3-.14-.28-.17-.27-.19-.26-.22-.24-.23-.22-.25-.21-.27-.19-.28-.16-.29-.15-.3-.13-.31-.1-.32-.07-.32-.06-.33-.02-.33.01-.32.03-.33.07-.32.1-.31.13-.31.09.04-.13.3-.09.31-.07.31-.03.31-.01.32.03.32.05.32.07.31.1.31.12.31.15.3.16.28.19.27.2.26.22.25.23.23.25.2.27.19.27.17.29.14.3.11.3.09.31.05.32.03.32-.01.33-.04.33-.08.33-.12.34-.16.33-.2.33-.24.33-.29v-.01zm0 .01v-.01.01zm-.2-.68l.02-.1h-.02l.05-.02.05-.01H8.26l.04.01.04.01.04.01.03.02.03.02.03.02.02.03.03.03.01.03.02.03.01.03v.16l-.01.04-.02.04-.02.04-.02.04-.02.05-.03.04-.03.05-.04.04-.04.05-.04.04-.05.05-.07-.08.04-.04.05-.04.03-.04.04-.05.03-.04.02-.04.02-.03.02-.04.01-.04.02-.03v-.03l.01-.03v-.08l-.01-.03-.01-.02-.01-.02-.01-.02-.02-.01-.02-.02-.02-.01-.02-.01-.03-.01-.03-.01-.03-.01h-.12l-.04.01h-.05l-.05.02h-.02zm.02 0h-.02.02zM2.5 8.37l.11-.02-.01-.01.07.14.08.14.09.14.09.14.09.14.11.15.1.14.12.14.12.14.13.15.13.14.14.14.14.14.16.14.15.13.17.14.17.13.17.13.19.13.19.13.19.12.21.13.21.11.21.12.22.11.23.11.24.1.24.1.25.1.25.09.27.08.26.09-.02.1-.27-.09-.27-.08-.26-.1-.25-.09-.24-.1-.24-.11-.23-.11-.23-.11-.21-.12-.22-.12-.2-.12-.2-.12-.19-.13-.19-.13-.17-.14-.18-.13-.16-.14-.16-.14-.16-.14-.14-.14-.15-.14-.13-.14-.13-.15-.12-.14-.12-.15-.11-.14-.1-.15-.1-.14-.09-.15-.09-.14-.08-.15-.07-.14-.01-.01zm.01.01v-.01H2.5l.01.01z" class="fil1"/><g><path d="M18.87 3.04c-1.98 1.55-2.59 2.53-2.01 3.07.5.42 2.69-.02 3.85-1.02.3-.33.2-.64-.22-.79-.13-.02.14-.16.3-.44.17-.31.22-.78-.16-.92-.13-.09-.53-.11-.87-.03-.38.08-.58-.09-.89.13z" class="fil3"/><path id="1" d="M16.89 6.07l-.06.08-.06-.05-.05-.06-.04-.06-.03-.07-.02-.07-.02-.07-.01-.07v-.08l.01-.08.01-.08.02-.08.03-.09.04-.08.04-.1.05-.09.06-.09.07-.1.07-.1.08-.11.09-.1.1-.11.1-.12.11-.11.12-.12.13-.12.13-.13.15-.13.15-.13.16-.13.16-.14.18-.14.18-.14.06.08-.18.14-.17.14-.17.14-.15.13-.15.13-.15.13-.13.12-.12.12-.12.12-.11.11-.11.11-.09.11-.09.11-.08.1-.07.1-.06.09-.06.09-.05.09-.04.09-.03.08-.03.08-.02.07-.01.08-.01.06v.07l.01.06.02.06.02.06.02.05.04.06.04.05.05.05-.01-.01zm-.06.08zm3.84-1.1l.08.07-.01.01-.11.09-.12.09-.12.09-.13.08-.13.08-.14.08-.14.07-.14.07-.14.06-.15.06-.14.06-.15.05-.15.05-.14.05-.15.04-.14.03-.14.04-.14.02-.14.03-.13.02-.13.01-.12.01-.12.01H17.4l-.1-.01-.1-.01-.09-.02-.08-.02-.08-.03-.06-.04-.06-.04.06-.08.05.04.05.02.07.03.07.02.09.02.09.01.1.01H17.62l.12-.01.12-.01.13-.01.13-.02.13-.03.14-.02.14-.04.14-.03.14-.04.14-.05.15-.04.14-.06.14-.05.15-.06.14-.07.14-.06.13-.07.13-.08.13-.08.13-.08.12-.08.11-.09.11-.09zm.08.07l-.01.01.01-.01zm-.27-.77l.02-.1.01.01.04.01.04.02.03.01.04.02.03.02.03.02.03.02.03.02.02.03.03.02.02.03.02.02.01.03.02.03.01.03.01.02.01.04v.03l.01.03v.03l-.01.03v.03l-.01.03-.01.04-.01.03-.02.03-.01.03-.02.03-.02.04-.03.03-.03.03-.02.03-.08-.07.03-.03.02-.02.02-.03.02-.03.02-.03.01-.03.01-.02.01-.03.01-.02.01-.03V4.67l-.01-.03-.01-.02V4.6l-.02-.02-.01-.02-.01-.02-.02-.02-.02-.02-.02-.02-.02-.02-.03-.01-.02-.02-.03-.02-.03-.01-.03-.02-.04-.01-.04-.02h.01zm.02-.1l.01.01-.01-.01zm.24-.41l.09.05-.02.02-.01.03-.02.02-.02.03-.01.02-.02.03-.02.02-.02.02-.01.02-.02.02-.02.02-.02.01-.01.02-.02.02-.01.01-.01.01-.02.02-.01.01-.01.01-.01.01v.01l-.01.01-.01-.01v-.01l-.01-.01h.01l-.02.1h-.01l-.02-.01h-.02l-.01-.02-.01-.02-.01-.02.01-.02v-.02l.01-.01.01-.01v-.01l.01-.02.02-.01.01-.01.01-.01.01-.02.02-.01.01-.02.01-.01.02-.02.02-.01.01-.02.02-.02.01-.02.02-.02.02-.02.01-.02.02-.02.02-.02.01-.03.02-.02.01-.02zm-.13-.86l.05-.09h-.01l.04.02.03.01.04.02.03.03.03.02.02.03.02.02.03.03.01.03.02.03.01.03.01.04.01.03.01.03.01.04V3.48l-.01.03-.01.04v.03l-.01.04-.01.03-.01.04-.01.03-.02.04-.01.03-.02.03-.01.03-.02.04-.09-.05.02-.03.01-.03.01-.03.02-.03.01-.03.01-.03.01-.04.01-.03.01-.03v-.03l.01-.03v-.04l.01-.03v-.09l-.01-.03v-.03l-.01-.03v-.02l-.01-.03-.01-.02-.02-.03-.01-.02-.02-.02-.01-.02-.02-.02-.03-.02-.02-.02-.03-.02-.02-.01-.04-.01v-.01zm0 .01v-.01.01zm-.84-.03l-.02-.1.03-.01.03-.01h.04l.03-.01h.04l.03-.01h.07l.03-.01h.25l.03.01h.09l.03.01h.02l.03.01h.02l.02.01h.03l.02.01.02.01.02.01.01.01h.02l-.05.09h-.01l-.02-.01-.01-.01h-.02l-.01-.01h-.02l-.02-.01h-.02l-.03-.01h-.04l-.03-.01h-.08l-.03-.01h-.15l-.03.01h-.1l-.03.01h-.06l-.04.01h-.03l-.03.01-.03.01zm-.87.12L18.84 3l.03-.02.03-.02.03-.02.03-.01.03-.02.03-.01.03-.01h.03l.02-.01h.03l.03-.01h.24l.02.01h.17l.03-.01h.06l.04-.01h.03l.02.1h-.04l-.03.01h-.04l-.03.01h-.27l-.02-.01H19.19l-.02.01h-.05l-.02.01h-.02l-.03.01-.02.01-.03.01-.02.01-.03.02-.02.01-.03.02zM18.84 3v-.01V3z" class="fil1"/></g><g><path fill="#99cfba" d="M9.02 6.05c3.6.98 4.27 1.34 3.87 2.73-.41 1.39-2.6 2.92-5.44 2.08-2.84-.83-4.19-3.22-3.78-4.61.41-1.39 1.57-1.68 5.35-.2z"/><path id="1" d="M12.94 8.79l-.1-.03.03-.12.03-.12.02-.12.01-.1.01-.11V8.1l-.01-.1-.02-.08-.03-.09-.03-.08-.05-.08-.05-.08-.06-.07-.08-.07-.09-.08-.09-.07-.11-.07-.13-.07-.13-.07-.15-.06-.16-.07-.18-.07-.19-.07-.2-.08-.22-.07-.23-.07-.25-.08-.26-.08-.28-.08-.3-.08-.31-.09L9 6.1l.03-.1.33.09.31.09.3.08.28.08.26.08.25.08.23.07.22.08.21.07.19.07.18.07.16.07.15.07.14.07.13.08.11.07.11.07.09.08.08.08.07.08.06.09.05.08.04.1.03.09.02.1.01.1v.22l-.02.11-.02.12-.03.12-.03.13zm-5.51 2.12l.03-.1.27.08.25.05.26.05.25.03.24.02.24.01h.24l.23-.02.22-.02.22-.03.21-.04.21-.05.2-.06.19-.07.19-.07.18-.08.17-.09.17-.09.15-.1.16-.1.14-.11.13-.11.13-.12.12-.12.11-.12.1-.12.09-.13.08-.12.07-.13.06-.13.05-.13.05-.13.1.03-.05.14-.05.13-.07.13-.07.14-.09.13-.09.13-.11.13-.11.12-.12.13-.13.12-.14.11-.14.11-.16.11-.16.1-.17.09-.18.09-.18.08-.19.08-.2.07-.21.06-.21.05-.21.04-.23.03-.23.03-.23.01h-.24l-.24-.01-.25-.02-.26-.03-.26-.05-.26-.06-.27-.07zM3.62 6.24l.1.02-.03.13-.03.14-.01.14v.14l.01.15.01.15.03.16.04.16.04.16.06.16.07.16.07.17.09.16.09.17.11.16.11.17.12.16.14.16.14.15.15.16.16.15.17.14.18.15.19.13.2.14.2.12.22.12.23.12.23.1.24.1.25.09.26.08-.03.1-.26-.08-.26-.09-.24-.1-.24-.11-.23-.12-.22-.12-.21-.13-.2-.13-.19-.14-.18-.15-.18-.15-.16-.15-.15-.16-.15-.16-.14-.16-.12-.16-.12-.17-.11-.17-.09-.17-.09-.17-.08-.16-.07-.17-.05-.17-.05-.17-.04-.16-.03-.16-.02-.16v-.31l.01-.14.03-.15.03-.13zM9.03 6L9 6.1l-.35-.14-.33-.12-.31-.11-.31-.1-.28-.1-.28-.08-.26-.07-.25-.07-.23-.05-.22-.05-.21-.04-.2-.02-.19-.02-.18-.01h-.32l-.14.02-.14.02-.12.03-.12.04-.1.05-.1.05-.1.06-.08.07-.08.08-.07.08-.06.09-.06.1-.06.1-.05.11-.04.12-.04.12-.1-.02.04-.13.05-.13.05-.11.06-.11.06-.11.07-.09.08-.09.08-.08.09-.08.1-.06.11-.06.12-.05.12-.04.13-.04.15-.02.15-.02.16-.01.17.01.18.01.19.02.2.02.22.04.22.05.24.05.25.07.26.07.28.08.29.1.3.1.32.11.33.13.35.13h-.01zM9 6.1z" class="fil1"/></g><g><path d="M12.24 9.83c-.93.97-2.68 1.66-4.79 1.03-2.52-.73-3.86-2.69-3.85-4.09 1.5-.22 3.38-.1 5.26.59 1.73.63 2.81 1.55 3.38 2.47z" class="fil2"/><path id="1" d="M7.43 10.91l.03-.1.2.06.19.05.19.03.19.04.19.02.18.02.18.01.18.01h.18l.17-.01.17-.01.16-.02.17-.02.16-.03.15-.03.16-.04.15-.04.14-.04.15-.06.14-.05.13-.06.13-.06.13-.07.12-.07.12-.07.12-.07.11-.08.1-.08.11-.08.09-.09.1-.09.08-.08.08.07-.09.09-.1.09-.1.08-.1.09-.11.08-.12.08-.11.08-.13.07-.12.07-.13.07-.14.06-.14.06-.14.06-.14.05-.15.05-.16.04-.15.04-.16.03-.17.03-.16.03-.17.01-.18.02h-.53l-.19-.02-.18-.02-.19-.02-.2-.03-.19-.04-.2-.05-.2-.06zM3.59 6.72l.02.1.04-.05v.13l.01.13.02.14.03.14.03.14.04.14.05.14.06.15.07.14.07.15.08.14.08.15.1.15.1.14.11.14.12.14.12.14.13.14.14.13.15.14.15.12.16.13.17.12.17.12.19.11.18.11.2.1.2.1.21.09.22.08.22.08.23.07-.03.1-.23-.07-.23-.08-.22-.09-.21-.09-.21-.1-.2-.1-.19-.11-.18-.12-.18-.12-.17-.12-.16-.13-.16-.13-.15-.13-.14-.14-.13-.14-.13-.14-.12-.14-.11-.15-.11-.15-.09-.15-.09-.14-.08-.15-.08-.15-.06-.15-.06-.15-.05-.15-.05-.15-.03-.14-.03-.14-.02-.15-.01-.13v-.14l.04-.05zm-.04.05v-.05h.04l-.04.05zm5.33.54l-.04.1-.17-.06-.18-.06-.17-.06-.18-.05-.17-.05-.18-.05-.17-.04L7.44 7l-.17-.04-.17-.03-.17-.04-.17-.02-.17-.03-.17-.02-.17-.03-.17-.01-.16-.02-.17-.01-.16-.01-.16-.01h-.17l-.15-.01h-.32l-.15.01h-.16l-.15.01-.15.01-.14.02-.15.01-.14.02-.14.02-.02-.1.14-.02.15-.02.15-.01.14-.02.16-.01.15-.01h.15l.16-.01h.48l.16.01.16.01.17.01.16.01.17.01.17.02.17.02.17.03.17.02.17.03.18.04.17.03.18.04.17.04.18.04.17.05.18.05.18.05.17.06.18.06.18.06zm3.4 2.56l-.08-.07v.06l-.06-.09-.05-.08-.06-.09-.07-.08-.06-.09-.07-.08-.07-.09-.08-.08-.08-.08-.08-.09-.09-.08-.09-.08-.09-.08-.09-.08-.1-.08-.1-.08-.11-.08-.11-.08-.11-.07-.12-.08-.12-.07-.12-.08-.13-.07-.13-.07-.13-.07-.14-.07-.14-.07-.14-.06-.15-.07-.15-.06L9 7.47l-.16-.06.04-.1.16.06.16.07.15.06.15.06.15.07.14.07.14.07.13.07.13.07.13.07.13.08.12.07.12.08.11.08.11.08.11.08.1.08.1.08.1.08.09.08.09.09.09.08.08.09.08.08.08.09.08.08.07.09.06.09.07.08.06.09.06.09.05.09v.06zm0-.06l.03.03-.03.03v-.06z" class="fil1"/></g></g></g></svg>