<svg xmlns="http://www.w3.org/2000/svg" width="54" height="62" fill-rule="evenodd" clip-rule="evenodd" image-rendering="optimizeQuality" shape-rendering="geometricPrecision" text-rendering="geometricPrecision" viewBox="0 0 12.91 14.97"><defs><style>.fil3{fill:#c5e3d7}.fil4{fill:#a1b567}.fil0{fill:#99cfba}.fil1{fill:#2b2a29;fill-rule:nonzero}</style></defs><g id="Слой_x0020_1"><g id="_612709552"><path d="M.69.91h3.46v4.71H.69z" class="fil0"/><path id="1" d="M4.15.95H.69V.87h3.46l.04.04-.04.04zm0-.08h.04v.04L4.15.87zm-.04 4.75V.91h.08v4.71l-.04.04-.04-.04zm.08 0v.04h-.04l.04-.04zm-3.5-.04h3.46v.08H.69l-.04-.04.04-.04zm0 .08H.65v-.04l.04.04zM.73.91v4.71H.65V.91L.69.87l.04.04zm-.08 0V.87h.04L.65.91z" class="fil1"/><path fill="#c4d985" d="M.53 1.4h3.78c.04 0 .07.03.07.07v.21c0 .04-.03.08-.07.08H.53c-.04 0-.07-.04-.07-.08v-.21c0-.04.03-.07.07-.07z"/><path id="1" d="M4.31 1.44H.53v-.09h3.78v.09zm.11.03h-.08v-.02h-.01v-.01h-.02v-.09h.01l.01.01h.03v.01h.01l.01.01.01.01h.01v.02h.01v.02h.01v.04zm-.08.21v-.21h.08v.21h-.08zm-.03.12v-.08h.01v-.01h.01V1.7h.01v-.02h.08v.04l-.01.01v.01l-.01.01v.01h-.01v.01h-.01l-.01.01-.01.01h-.02l-.01.01h-.02zM.53 1.72h3.78v.08H.53v-.08zm-.11-.04H.5v.01l.01.01v.01h.02v.09H.51L.5 1.79H.48v-.01H.47l-.01-.01-.01-.01v-.01H.44v-.01l-.01-.01v-.02H.42v-.03zm.08-.21v.21H.42v-.21H.5zm.03-.12v.09H.51v.01l-.01.01v.01H.42v-.03h.01v-.02l.01-.01V1.4h.01v-.01h.01v-.01l.01-.01h.01l.01-.01h.03v-.01h.01z" class="fil1"/><path d="M.53 2.1h3.78c.04 0 .07.03.07.07v.21c0 .04-.03.08-.07.08H.53c-.04 0-.07-.04-.07-.08v-.21c0-.04.03-.07.07-.07z" class="fil3"/><path id="1" d="M4.31 2.14H.53v-.08h3.78v.08zm.11.03h-.08v-.02h-.01v-.01h-.02v-.08h.05v.01h.01v.01h.01l.01.01h.01v.02h.01v.02h.01v.04zm-.08.21v-.21h.08v.21h-.08zm-.03.12v-.08h.01v-.01h.01V2.4h.01v-.02h.08v.04l-.01.01v.01l-.01.01v.01h-.01v.01h-.01l-.01.01-.01.01h-.02l-.01.01h-.02zM.53 2.42h3.78v.08H.53v-.08zm-.11-.04H.5v.02h.01v.01h.01v.01h.01v.08H.51L.5 2.49H.48v-.01H.47l-.01-.01-.01-.01-.01-.01v-.01H.43v-.02l-.01-.01v-.03zm.08-.21v.21H.42v-.21H.5zm.03-.11v.08H.51v.02H.5v.01H.42v-.03h.01v-.02l.01-.01V2.1h.01v-.01h.01v-.01h.01v-.01h.01l.01-.01h.04z" class="fil1"/><rect width="4.76" height="11.97" x=".04" y="2.96" class="fil0" rx=".51" ry=".51"/><path d="M4.8 13.76c-.39 0-.7-.32-.7-.72 0-.4.31-.72.7-.72v1.44z" class="fil3"/><ellipse cx="1.21" cy="4.42" class="fil3" rx=".71" ry=".72"/><ellipse cx="2.61" cy="6.67" class="fil3" rx=".71" ry=".72"/><ellipse cx="3.86" cy="4.12" class="fil3" rx=".71" ry=".72"/><path d="M.53 7.31c.39 0 .7.32.7.72 0 .4-.31.73-.7.73-.19 0-.36-.08-.49-.2V7.51c.13-.12.3-.2.49-.2z" class="fil3"/><ellipse cx="2.06" cy="10.06" class="fil3" rx=".71" ry=".72"/><path d="M4.3 7.83c.2 0 .38.08.5.21v1.02c-.12.13-.3.22-.5.22-.39 0-.71-.33-.71-.73 0-.4.32-.72.71-.72zM.55 11.31c.39 0 .71.32.71.72 0 .4-.32.72-.71.72-.2 0-.38-.09-.51-.22v-1c.13-.14.31-.22.51-.22z" class="fil3"/><ellipse cx="2.17" cy="13.92" class="fil3" rx=".71" ry=".72"/><path d="M.55 2.92H4.3c.15 0 .28.06.38.16.1.1.16.23.16.38v10.97c0 .15-.06.28-.16.38-.1.1-.23.16-.38.16H.55c-.15 0-.29-.06-.39-.16-.1-.1-.16-.23-.16-.38V3.46c0-.15.06-.28.16-.38.1-.1.24-.16.39-.16zM4.3 3H.55c-.13 0-.25.05-.33.14-.09.08-.14.2-.14.32v10.97c0 .12.05.24.14.32.08.09.2.14.33.14H4.3c.13 0 .24-.05.33-.14.08-.08.13-.2.13-.32V3.46c0-.12-.05-.24-.13-.32-.09-.09-.2-.14-.33-.14z" class="fil1"/><g><path d="M9.56 3.74l.39.23-.78 1.37c-.05-.05-.12-.1-.18-.14l-.21-.09.78-1.37zM8.12 7.19l-2.9 5.1-.39-.23 2.89-5.09c.06.05.12.09.19.13.06.04.13.07.21.09z" class="fil4"/><path id="1" d="M9.93 4l-.39-.22.04-.07.39.22.02.06-.06.01zm.04-.07l.04.02-.02.04-.02-.06zm-.83 1.39l.77-1.37.08.04-.78 1.37-.07.01v-.05zm.07.04l-.03.04-.04-.03.07-.01zm-.24-.12l.04-.07.01.01h.01l.01.01h.01v.01h.01l.01.01h.01v.01h.01l.01.01h.01v.01h.01v.01h.02v.01h.01v.01h.01l.01.01.01.01.01.01.01.01-.06.06v-.01h-.01v-.01h-.01v-.01h-.01l-.01-.01-.01-.01-.01-.01h-.01V5.3h-.01l-.01-.01h-.01v-.01h-.01l-.01-.01h-.01v-.01H9l-.01-.01h-.01l-.01-.01zm-.23-.15l.07.04-.02-.06.01.01h.02v.01h.03v.01h.02l.01.01h.02l.01.01h.01l.01.01h.01l.01.01h.01l.01.01h.01l.01.01H9l.01.01-.04.07h-.01l-.01-.01h-.01l-.01-.01h-.01v-.01H8.9V5.2h-.01l-.01-.01h-.02l-.01-.01h-.01l-.01-.01h-.02l-.01-.01h-.02l-.01-.01h-.01l-.02-.06zm.02.06l-.04-.01.02-.05.02.06zm.83-1.39l-.78 1.37-.07-.04.78-1.37.06-.01.01.05zm-.07-.04l.02-.03.04.02-.06.01zm-4.34 8.55l2.9-5.1.07.05-2.89 5.09-.06.01-.02-.05zm.08.04l-.02.03-.04-.02.06-.01zm-.41-.28l.39.22-.04.07-.39-.22-.02-.06.06-.01zm-.04.07l-.04-.02.02-.04.02.06zm2.95-5.11l-2.9 5.09-.07-.04 2.9-5.09.06-.01.01.05zm-.07-.04l.02-.04.04.03-.06.01zm.24.12l-.04.07h-.01l-.01-.01-.01-.01h-.01l-.01-.01h-.01V7.1h-.01l-.01-.01H7.8v-.01h-.01v-.01h-.02v-.01h-.01v-.01h-.01l-.01-.01-.01-.01-.01-.01h-.01v-.01H7.7L7.69 7l.06-.06.01.01.01.01.01.01.01.01h.01l.01.01.01.01h.01v.01h.01v.01h.02v.01h.01v.01h.01l.01.01h.01l.01.01h.01l.01.01zm.22.15l-.07-.05.02.06h-.02v-.01h-.03v-.01h-.02l-.01-.01H8l-.01-.01h-.01l-.01-.01h-.01l-.01-.01h-.01l-.01-.01h-.01l-.01-.01H7.9l-.01-.01.04-.07h.01l.01.01h.01v.01h.02v.01h.01l.01.01h.02l.01.01h.01l.01.01h.01l.01.01h.02l.01.01h.02l.01.01.02.06zm-.02-.06l.05.01-.03.05-.02-.06z" class="fil1"/><path fill="#c4d985" fill-rule="nonzero" d="M11.76.33c.52.3.88.78 1.03 1.32.14.54.09 1.13-.21 1.66-.3.52-.78.88-1.32 1.03-.54.14-1.14.09-1.66-.21-.53-.3-.88-.78-1.03-1.32-.15-.54-.09-1.14.21-1.66.29-.53.78-.88 1.32-1.03.54-.15 1.13-.09 1.66.21zm.59 1.44c-.12-.43-.4-.81-.82-1.05-.41-.23-.88-.28-1.31-.16-.43.12-.81.4-1.05.81-.23.42-.28.89-.16 1.32.12.42.4.81.81 1.04.42.24.89.28 1.32.17.42-.12.81-.4 1.04-.82.24-.41.28-.88.17-1.31z"/><path id="1" d="M12.83 1.64l-.08.02-.02-.05-.01-.05-.02-.05-.02-.05-.02-.05-.02-.04-.02-.05-.02-.05-.02-.04-.03-.05-.02-.04-.03-.05-.03-.04-.03-.04-.03-.05-.03-.04-.03-.04-.03-.04-.04-.04-.04-.04-.03-.04-.04-.03-.04-.04-.04-.04-.04-.03-.04-.04-.04-.03-.05-.03-.04-.03-.05-.03-.04-.03-.05-.03.04-.07.05.03.05.03.04.03.05.03.05.04.04.03.04.04.05.03.04.04.04.04.04.04.03.04.04.04.04.04.03.04.04.04.03.05.03.04.03.04.03.05.03.05.02.04.03.05.02.05.03.05.02.04.02.05.02.05.02.05.01.05.02.06.02.05zm-.22 1.69l-.07-.04.03-.05.03-.05.02-.05.02-.05.02-.05.02-.05.02-.05.02-.05.01-.05.02-.05.01-.05.01-.05.01-.06.01-.05.01-.05.01-.05v-.05l.01-.06v-.31l-.01-.05v-.05l-.01-.05-.01-.05-.01-.05-.01-.05-.01-.05-.01-.05.08-.02.01.05.01.05.01.05.01.06.01.05.01.05V2l.01.06v.1l.01.06-.01.05v.16l-.01.06-.01.05-.01.06v.05l-.02.05-.01.06-.01.05-.02.05-.01.06-.02.05-.02.05-.02.05-.02.05-.03.06-.02.05-.03.05-.03.05zm-1.34 1.05l-.02-.08.05-.02.05-.01.04-.02.05-.02.05-.02.05-.02.04-.02.05-.02.05-.02.04-.03.05-.02.04-.03.05-.03.04-.03.04-.03.04-.03.04-.03.05-.03.03-.04.04-.04.04-.03.04-.04.04-.04.03-.04.04-.04.03-.04.03-.04.03-.05.04-.04.03-.05.02-.04.03-.05.07.04-.03.05-.03.05-.03.04-.03.05-.03.05-.04.04-.03.04-.04.05-.03.04-.04.04-.04.04-.04.03-.04.04-.04.04-.04.03-.05.04-.04.03-.04.03-.05.03-.04.03-.05.03-.05.02-.04.03-.05.02-.05.03-.05.02-.05.02-.05.02-.05.02-.05.01-.05.02-.05.02zm-1.69-.22l.04-.07.05.03.04.03.05.02.05.02.05.02.05.02.05.02.05.02.06.01.05.02.05.01.05.01.05.01.05.01.05.01.06.01h.05l.05.01h.31l.05-.01h.05l.06-.01.05-.01.05-.01.05-.01.05-.01.05-.01.02.08-.05.01-.06.01-.05.01-.05.01-.05.01-.06.01h-.05l-.05.01h-.11l-.05.01-.06-.01h-.16l-.05-.01-.06-.01-.05-.01h-.05l-.06-.02-.05-.01-.05-.01-.06-.02-.05-.01-.05-.02-.06-.02-.05-.02-.05-.02-.05-.03-.05-.02-.05-.03-.05-.03zM8.53 2.82l.08-.02.01.05.02.05.01.04.02.05.02.05.02.05.02.05.03.04.02.05.02.04.03.05.03.04.02.05.03.04.03.04.03.04.04.04.03.05.03.03.04.04.04.04.03.04.04.04.04.03.04.04.05.03.04.03.04.03.05.04.04.03.05.02.05.03-.04.07-.05-.02-.05-.04-.05-.03-.05-.03-.04-.03-.05-.04-.04-.03-.04-.04-.04-.03-.04-.04-.04-.04-.04-.04-.04-.04-.03-.04-.04-.04-.03-.05-.03-.04-.03-.04-.03-.05-.03-.04-.03-.05-.03-.05-.02-.04-.03-.05-.02-.05-.02-.05-.02-.05-.02-.05-.02-.05-.02-.05-.02-.05-.01-.05zm.21-1.69l.07.04-.02.05-.03.04-.02.05-.03.05-.02.05-.02.05-.02.05-.01.05-.02.06-.01.05-.02.05-.01.05-.01.05-.01.05-.01.05v.06l-.01.05v.05l-.01.05V2.34l.01.05v.05l.01.05.01.06v.05l.01.05.01.05.02.05.01.05-.08.02-.01-.05-.02-.06-.01-.05-.01-.05-.01-.05V2.5l-.01-.05V2.4l-.01-.06v-.27l.01-.05.01-.05v-.06l.01-.05.01-.05.01-.06.01-.05.02-.05.01-.06.02-.05.02-.05.02-.06.02-.05.02-.05.02-.05.03-.05.02-.05.03-.05zM10.09.08l.02.08-.05.01-.05.02-.05.02-.05.01-.05.02-.04.02-.05.02-.05.03-.04.02-.05.02-.04.03-.05.03-.04.02-.04.03-.05.03-.04.03-.04.04-.04.03-.04.03-.04.04-.04.04-.03.03-.04.04-.04.04-.03.04-.04.05-.03.04-.03.04-.03.05-.03.04-.03.05-.03.05-.07-.04.03-.05.03-.05.03-.05.03-.05.04-.04.03-.05.04-.04L9 .76l.04-.04.04-.04.04-.04.04-.04.04-.04.04-.03.04-.04.04-.03.05-.03.04-.03.04-.03.05-.03.05-.03.04-.03.05-.02.05-.03.05-.02.04-.02.05-.02.05-.02.05-.02.05-.02.06-.02.05-.01zm1.69.21l-.04.07-.05-.02-.05-.03-.05-.02-.05-.03-.05-.02-.05-.02-.05-.02-.05-.01-.05-.02-.05-.01-.05-.02-.05-.01-.06-.01-.05-.01-.05-.01h-.05l-.05-.01h-.06l-.05-.01h-.2l-.06.01h-.05l-.05.01-.05.01h-.05l-.05.01-.05.01-.05.02-.05.01-.02-.08.05-.01.05-.02.05-.01.05-.01.06-.01h.05l.05-.01h.06l.05-.01h.27l.05.01.06.01h.05l.06.01.05.01.05.01.06.01.05.02.05.01.06.02.05.02.05.02.05.02.05.02.06.02.05.03.05.02.05.03zm-.27.47l.04-.07.04.02.04.02.04.03.04.03.03.02.04.03.03.03.04.03.03.02.03.04.03.03.03.03.03.03.03.03.03.04.02.03.03.03.02.04.03.03.02.04.02.04.02.03.02.04.02.04.02.04.02.04.02.04.01.04.02.04.01.04.01.04.02.04-.08.02-.01-.04-.02-.04-.01-.04-.01-.03-.02-.04-.01-.04-.02-.04-.02-.03-.02-.04-.02-.04-.02-.03-.02-.04-.02-.03-.02-.03-.03-.04-.02-.03-.03-.03-.02-.04-.03-.03-.03-.03-.03-.03-.03-.03-.03-.03-.03-.02-.03-.03-.03-.03-.04-.02-.03-.03-.04-.02-.03-.03-.04-.02-.04-.02zM10.23.6l-.02-.08.04-.01.04-.01.04-.01.04-.01h.05l.04-.01h.04l.04-.01h.3l.04.01h.05l.04.01.04.01.05.01.04.01.04.01.04.01.04.01.05.02.04.01.04.02.04.02.04.01.04.02.04.03.04.02-.04.07-.04-.02-.03-.02L11.4.7l-.04-.02-.04-.02-.04-.01-.04-.02-.04-.01-.04-.01-.04-.01-.04-.01-.04-.01L11 .57l-.04-.01-.04-.01h-.04l-.05-.01h-.28l-.04.01h-.04l-.04.01h-.04l-.04.01-.04.01-.04.01-.04.01zm-1.02.79l-.07-.04.02-.04.02-.04.03-.03.03-.04.02-.04.03-.03.03-.04.03-.03.02-.03L9.4 1l.04-.04.03-.03L9.5.9l.03-.02.04-.03.03-.03.03-.02.04-.03.03-.02.04-.03.04-.02.03-.02.04-.02.04-.02.04-.02.04-.01.04-.02.04-.02.04-.01.04-.02.04-.01.04-.01.02.08-.04.01-.04.01-.04.01-.03.02-.04.01-.04.02-.04.02-.03.01-.04.02-.04.02-.03.02-.04.02-.03.03-.03.02-.04.02-.03.03-.03.02-.04.03-.03.03-.03.02-.03.03-.03.03-.03.03-.02.03-.03.04-.03.03-.02.03-.03.04-.02.03-.03.04-.02.04-.02.03zm-.16 1.29l-.08.02-.01-.04-.01-.04-.01-.05-.01-.04v-.04l-.01-.04v-.04l-.01-.05v-.3l.01-.04v-.04l.01-.05.01-.04.01-.04.01-.04.01-.05.01-.04.01-.04.02-.04.01-.04.02-.04.02-.05.01-.04.02-.04.03-.04.02-.04.07.04-.02.04-.02.04-.02.04-.02.04-.02.04-.01.04-.02.04-.01.04-.01.04-.01.04-.01.04-.01.04-.01.04-.01.04-.01.04v.04l-.01.04v.29L9 2.4v.04l.01.04v.04l.01.04.01.04.01.04.01.04zm.79 1.02l-.04.07-.04-.03-.04-.02-.03-.02-.04-.03-.04-.03-.03-.02-.04-.03-.03-.03-.03-.03-.04-.03-.03-.03-.03-.03-.03-.03-.02-.04-.03-.03-.03-.03-.02-.04-.03-.03-.02-.04-.03-.04-.02-.03-.02-.04-.02-.04-.02-.04-.02-.03-.01-.04-.02-.04-.02-.04-.01-.04-.02-.04-.01-.04-.01-.04.08-.02.01.04.01.03.01.04.02.04.01.04.02.04.02.03.01.04.02.04.02.03.02.04.02.03.03.04.02.03.02.03.03.04.02.03.03.03.03.03.02.03.03.03.03.03.03.03.03.03.04.03.03.02.03.03.04.02.03.03.04.02.04.02.03.03zm1.29.16l.02.08-.04.01-.05.01h-.04l-.04.01-.04.01h-.04l-.04.01h-.05l-.04.01h-.17l-.04-.01h-.09l-.04-.01-.05-.01h-.04l-.04-.01-.04-.01-.05-.01-.04-.01-.04-.02-.04-.01-.04-.02-.04-.01-.05-.02-.04-.02-.04-.02-.04-.02-.04-.02.04-.07.04.02.04.02.04.02.04.01.04.02.04.02.04.01.04.01.04.02.04.01.04.01.04.01.04.01h.04l.04.01.04.01h.08l.04.01h.13l.04-.01h.08l.04-.01h.04l.04-.01.04-.01h.04l.04-.01.04-.01zm1.02-.8l.07.04-.03.04-.02.04-.02.04-.03.04-.03.03-.02.04-.03.03-.03.04-.03.03-.03.03-.03.03-.03.03-.03.03-.04.03-.03.03-.03.02-.04.03-.03.02-.04.03-.04.02-.03.02-.04.02-.04.02-.03.02-.04.02-.04.02-.04.02-.04.01-.04.02-.04.01-.04.01-.04.02-.02-.08.03-.01.04-.02.04-.01.04-.01.04-.02.04-.01.03-.02.04-.02.03-.02.04-.02.04-.02.03-.02.04-.02.03-.02.03-.03.04-.02.03-.03.03-.02.03-.03.03-.03.03-.03.03-.03.03-.03.03-.03.03-.03.02-.03.03-.04.02-.03.03-.04.02-.03.02-.04.03-.04zm.16-1.28l.08-.02.01.04.01.04v.04l.01.04.01.05v.04l.01.04v.04l.01.04v.18l-.01.04v.08l-.01.05-.01.04v.04l-.01.05-.01.04-.01.04-.01.04-.02.04-.01.05-.02.04-.01.04-.02.04-.02.04-.02.04-.02.04-.02.04-.07-.04.02-.04.02-.03.02-.04.01-.04.02-.04.02-.04.01-.04.01-.04.02-.04.01-.04.01-.04.01-.04.01-.04v-.04l.01-.04.01-.04v-.09l.01-.04v-.12l-.01-.04v-.08l-.01-.04v-.04l-.01-.04-.01-.04v-.04l-.01-.04-.01-.04z" class="fil1"/><path fill="#c5e3d7" fill-rule="nonzero" d="M9.1 5.01c.32.18.53.47.62.79.09.33.05.69-.13 1.01-.18.31-.47.53-.79.62-.33.09-.69.05-1.01-.13-.31-.18-.53-.47-.62-.8-.09-.32-.05-.68.13-1 .18-.32.47-.53.8-.62.32-.09.68-.05 1 .13zm.18.91c-.06-.21-.2-.4-.41-.52-.2-.12-.44-.14-.65-.08-.22.06-.41.2-.53.41-.11.2-.14.44-.08.65.06.22.2.41.41.52.21.12.44.15.66.09.21-.06.4-.2.52-.41.12-.21.14-.44.08-.66z"/><path id="1" d="M9.76 5.79l-.08.02-.01-.03-.01-.02-.01-.03-.01-.03-.01-.03-.01-.03-.01-.03-.02-.03-.01-.02-.02-.03-.01-.03-.02-.02-.01-.03-.02-.03-.02-.02-.02-.03-.02-.02-.02-.02-.02-.03-.02-.02-.02-.02-.02-.03-.03-.02-.02-.02-.02-.02-.03-.02-.02-.02-.03-.02-.03-.02-.02-.02-.03-.01-.03-.02.04-.07.03.02.03.02.03.01.03.02.02.02.03.03.03.02.02.02.03.02.02.03.03.02.02.02.02.03.03.02.02.03.02.02.02.03.02.03.01.03.02.02.02.03.02.03.01.03.02.03.01.03.01.03.02.03.01.03.01.03.01.03.01.03.01.03zm-.13 1.04l-.07-.04.01-.03.02-.03.01-.03.02-.03.01-.03.01-.03.01-.03.01-.03.01-.03.01-.03.01-.03.01-.03V6.4l.01-.03v-.04l.01-.03v-.06l.01-.03v-.09l-.01-.03v-.1l-.01-.03v-.03L9.7 5.9l-.01-.03v-.03l-.01-.03.08-.02.01.03v.04l.01.03.01.03v.03l.01.03v.07l.01.03v.13l-.01.04v.06l-.01.04v.03l-.01.03v.03l-.01.04-.01.03-.01.03-.01.03-.01.04-.01.03-.01.03-.02.03-.01.03-.02.03-.01.04-.02.03zm-.82.64l-.02-.08.03-.01.02-.01.03-.01.03-.01.03-.01.03-.01.03-.02.03-.01.02-.01.03-.02.03-.01.02-.02.03-.02.03-.01.02-.02.03-.02.02-.02.02-.02.03-.02.02-.02.02-.02.03-.03.02-.02.02-.02.02-.03.02-.02.02-.03.02-.02.02-.03.01-.03.02-.03.02-.02.07.04-.02.03-.02.03-.02.03-.01.02-.03.03-.02.03-.02.03-.02.02-.02.03-.03.02-.02.02-.02.03-.03.02-.02.02-.03.02-.03.02-.02.02-.03.02-.03.02-.02.02-.03.02-.03.01-.03.02-.03.01-.03.02-.03.01-.03.01-.03.02-.03.01-.03.01-.03.01-.03.01zm-1.04-.13l.04-.07.03.01.03.02.03.01.03.02.03.01.03.01.03.01.03.01.03.01.03.01.03.01h.03l.03.01.03.01h.07l.03.01h.24l.04-.01h.03l.03-.01h.03l.03-.01h.03l.03-.01.02.08h-.03l-.04.01-.03.01h-.03l-.03.01h-.03l-.04.01H8.29l-.04-.01h-.03l-.03-.01-.03-.01h-.04l-.03-.01-.03-.01-.03-.01-.04-.01-.03-.01-.03-.02-.03-.01-.03-.01-.04-.02-.03-.02-.03-.01zm-.64-.83l.08-.02.01.03.01.03.01.03.01.03.01.03.01.03.02.02.01.03.01.03.02.03.01.02.02.03.02.03.01.02.02.03.02.02.02.03.02.02.02.02.02.03.02.02.03.02.02.02.02.03.03.02.02.02.03.02.02.02.03.01.03.02.03.02.02.02-.04.07-.03-.02-.03-.02-.03-.02-.02-.02-.03-.02-.03-.02-.03-.02-.02-.02-.03-.03-.02-.02-.02-.02-.03-.03-.02-.02-.02-.03-.02-.02-.02-.03-.02-.02-.02-.03-.02-.03-.02-.03-.02-.02-.01-.03-.02-.03-.01-.03-.02-.03-.01-.03-.01-.03-.02-.03-.01-.03-.01-.03-.01-.03-.01-.04zm.13-1.03l.07.04-.01.03-.02.03-.01.03-.02.03-.01.03-.01.03-.01.03-.01.03-.01.03-.01.03-.01.03v.03l-.01.03-.01.03v.03L7.17 6v.28l.01.03v.03l.01.03v.03l.01.03v.03l.01.03-.08.02v-.03l-.01-.03-.01-.03v-.03l-.01-.03v-.04l-.01-.03v-.1l-.01-.03v-.03l.01-.04v-.1l.01-.03v-.03l.01-.03.01-.04v-.03l.01-.03.01-.03.01-.04.01-.03.01-.03.02-.03.01-.03.01-.04.02-.03.02-.03.01-.03zm.82-.64l.03.08-.03.01-.03.01-.03.01-.03.01-.03.01-.03.01-.03.01-.02.02-.03.01-.03.02-.02.01-.03.02-.03.01-.02.02-.03.02-.02.02-.03.02-.02.02-.03.02-.02.02-.02.02-.02.02-.03.03-.02.02-.02.02-.02.03-.02.02-.02.03-.01.03-.02.02-.02.03-.02.03-.07-.04.02-.03.02-.03.02-.03.02-.03.02-.02.02-.03.02-.03.02-.02.02-.03.03-.02.02-.03.03-.02.02-.02.03-.03.02-.02.03-.02.02-.02.03-.02.03-.01.03-.02.02-.02.03-.02.03-.01.03-.02.03-.01.03-.01.03-.02.03-.01.03-.01.03-.01.03-.01.03-.01zm1.04.13l-.04.07-.03-.02-.03-.01L8.99 5l-.03-.02-.03-.01-.03-.01-.03-.01-.03-.01-.03-.01-.03-.01-.03-.01-.03-.01h-.03l-.03-.01h-.03l-.03-.01h-.07l-.03-.01h-.09l-.03.01h-.09l-.03.01h-.03l-.03.01h-.03l-.03.01-.03.01-.03-.08.04-.01.03-.01h.03l.03-.01h.03l.04-.01h.06l.03-.01h.14l.03.01h.07l.03.01h.03l.03.01h.04l.03.01.03.01.03.01.04.01.03.01.03.01.03.01.03.02.04.01.03.02.03.01.03.02zm-.27.47l.04-.07.02.01.02.01.02.01.02.02.02.01.02.01.02.02.01.01.02.02.02.01.01.02.02.01.01.02.02.02.01.02.01.01.02.02.01.02.01.02.01.01.02.02.01.02.01.02.01.02.01.02.01.02v.02l.01.02.01.02.01.02v.02l.01.02-.08.02-.01-.01V5.9l-.01-.02v-.02l-.01-.02-.01-.02-.01-.01-.01-.02-.01-.02v-.02l-.01-.02-.01-.01-.02-.02-.01-.02-.01-.01-.01-.02-.01-.01-.02-.02-.01-.01-.01-.02-.02-.01-.01-.02L9 5.55l-.01-.02-.02-.01-.01-.01-.02-.02-.02-.01-.01-.01-.02-.01-.02-.01-.02-.01zm-.62-.08l-.02-.08h.02l.02-.01h.02l.02-.01h.04l.03-.01H8.55l.02.01h.05l.02.01h.02l.02.01.02.01h.03l.02.01.02.01.02.01h.02l.02.01.02.01.02.02.02.01-.04.07-.02-.01-.01-.01-.02-.01-.02-.01-.02-.01-.02-.01h-.02l-.02-.01-.02-.01h-.02l-.02-.01h-.02l-.02-.01h-.06l-.02-.01h-.16l-.02.01H8.3l-.01.01h-.04l-.02.01zm-.5.39l-.07-.04.01-.02.01-.02.02-.02.01-.02.01-.02.02-.02.01-.02.02-.01.01-.02.02-.02.01-.01.02-.02.01-.01.02-.02.02-.01.02-.02.01-.01.02-.01.02-.01.02-.01.02-.02.02-.01.01-.01.02-.01.02-.01.02-.01h.02l.02-.01.02-.01.02-.01h.03l.02-.01.02.08h-.02l-.02.01-.02.01h-.02l-.02.01-.01.01-.02.01-.02.01h-.02l-.02.01-.01.01-.02.01-.02.02-.01.01-.02.01-.02.01-.01.01-.02.02-.01.01-.02.01-.01.02-.02.01-.01.02-.01.01-.02.02-.01.01-.01.02-.01.02-.02.01-.01.02-.01.02-.01.02zm0 0l.08-.14-.08.14zm-.08.62l-.08.02v-.02l-.01-.02v-.02l-.01-.02v-.07l-.01-.02v-.15l.01-.02V6l.01-.02v-.02l.01-.02v-.02l.01-.02.01-.03v-.02l.01-.02.01-.02.01-.02.01-.02.01-.02.01-.02.01-.02.07.04-.01.02-.01.01-.01.02-.01.02-.01.02v.02l-.01.02-.01.02v.02l-.01.02v.02l-.01.02V6l-.01.02v.06l-.01.02v.1l.01.02V6.29l.01.02v.02l.01.02v.02zm.39.5L8 6.94l-.02-.01-.02-.01-.02-.02-.02-.01-.02-.01-.02-.02-.01-.01-.02-.02-.02-.01-.01-.02-.02-.01-.02-.02-.01-.01-.01-.02-.02-.02-.01-.02-.02-.01-.01-.02-.01-.02-.01-.02-.01-.02-.01-.02-.01-.02-.01-.01-.01-.02-.01-.02-.01-.02-.01-.02-.01-.02v-.03l-.01-.02-.01-.02.08-.02.01.02v.02l.01.02.01.02v.02l.01.01.01.02.01.02.01.02.01.02.01.01.01.02.01.02.01.01.01.02.01.01.01.02.02.02.01.01.01.02.02.01.01.02.02.01.01.01.02.02.01.01.02.01.02.01.02.02.01.01.02.01.02.01zm.62.08l.03.08h-.02l-.03.01h-.02l-.02.01h-.06l-.02.01h-.16l-.02-.01H8.3l-.03-.01h-.02l-.02-.01h-.02l-.02-.01-.02-.01h-.02L8.12 7l-.02-.01-.02-.01-.02-.01-.02-.01-.02-.01L8 6.94l.04-.07.02.01.02.01.02.01.01.01.02.01h.02l.02.01.02.01h.02l.02.01h.02l.02.01h.02l.02.01h.06l.02.01h.1l.02-.01h.08l.02-.01h.02l.02-.01h.01zm.03.08zm.47-.47l.07.04-.01.02-.01.02-.01.02-.02.02-.01.02-.01.02-.02.01-.01.02-.02.02-.01.01-.02.02-.02.01-.01.02-.02.01-.02.02-.01.01-.02.02-.02.01-.02.01-.02.01-.01.01-.02.01-.02.01-.02.01-.02.01-.02.01-.02.01-.02.01-.02.01h-.02l-.02.01-.02.01-.03-.08.02-.01h.02l.02-.01.02-.01h.02l.02-.01.01-.01.02-.01.02-.01.02-.01.01-.01.02-.01.02-.01.01-.01.02-.01.02-.01.01-.02.02-.01.01-.01.02-.02.01-.01.02-.01.01-.02.02-.01.01-.02.01-.02.01-.01.02-.02.01-.02.01-.01.01-.02.01-.02zm.07.04l.08-.13-.08.13zm.01-.67l.08-.02v.02l.01.03v.02l.01.02v.04l.01.02V6.26l-.01.02v.04l-.01.03v.02l-.01.02-.01.02v.02l-.01.02-.01.03-.01.02-.01.02v.02l-.01.02-.02.02-.01.02-.07-.04.01-.02.01-.02.01-.02.01-.02.01-.01.01-.02v-.02l.01-.02.01-.02v-.02l.01-.02v-.04l.01-.02v-.04l.01-.02v-.16l-.01-.02v-.04l-.01-.02v-.04l-.01-.02zm0 0z" class="fil1"/><path d="M7.5 13.39c-.01.03-.02.07-.04.1l-.62 1.09c-.13.24-.43.32-.66.19l-3.97-2.26c-.23-.13-.32-.43-.18-.66l.62-1.1.06-.09 4.79 2.73z" class="fil4"/><path id="1" d="M7.5 13.51l-.07-.04v-.02h.01v-.02h.01v-.02l.01-.01v-.02h.01l.07.02v.02l-.01.01v.02h-.01v.02h-.01v.02H7.5v.02zm-.7 1.05l.63-1.09.07.04-.63 1.09-.07-.04zm-.64.24l.04-.07.02.01.02.01.02.01.02.01h.02l.02.01h.02l.02.01H6.47l.02-.01h.02l.02-.01h.02l.02-.01.02-.01.02-.01.02-.01.02-.01.02-.01.02-.01.01-.02.02-.01.01-.02.02-.01.01-.02.02-.02.01-.02.01-.02.07.04-.01.03-.02.02-.01.02-.02.02-.02.02-.01.02-.02.02-.02.01-.02.02-.03.01-.02.01-.02.02-.02.01-.03.01h-.02l-.02.01-.03.01h-.02l-.03.01h-.13l-.02-.01H6.3l-.02-.01h-.03l-.02-.01-.03-.01-.02-.01-.02-.02zm-3.93-2.32l3.97 2.25-.04.07-3.97-2.25.04-.07zm-.24-.65l.07.04-.01.02-.01.02-.01.02-.01.02v.02l-.01.02v.05l-.01.02v.06l.01.02v.05l.01.02.01.02v.02l.01.02.01.02.01.02.01.01.01.02.01.02.02.02.01.01.02.02.01.01.02.02.02.01.02.01.02.02-.04.07-.03-.02-.02-.01-.02-.02-.02-.01-.02-.02-.02-.02-.01-.02-.02-.02-.02-.02-.01-.02-.01-.02-.01-.03-.01-.02-.01-.02-.01-.03-.01-.02-.01-.03v-.05l-.01-.02v-.1l.01-.03v-.02l.01-.03.01-.02.01-.03.01-.02.01-.03.01-.02zm.69-1.06l-.62 1.1-.07-.04.62-1.1.07.04zm.05-.14l-.04.07.05-.01v.01h-.01v.01h-.01v.01l-.01.01v.01H2.7v.01l-.01.01v.01h-.01l-.07-.04h.01v-.02h.01v-.01h.01v-.01l.01-.01v-.01h.01v-.01h.01v-.01l.01-.01.05-.01zm-.05.01l.02-.03.03.02-.05.01zm4.8 2.78L2.69 10.7l.04-.07 4.79 2.72.02.05-.06.02zm.04-.07l.03.02-.01.03-.02-.05z" class="fil1"/><path d="M2.92 10.18l4.9 2.78-.27.47-4.9-2.78z" class="fil3"/><path id="1" d="M7.8 13l-4.9-2.79.04-.07 4.9 2.79.01.05-.05.02zm.04-.07l.03.02-.02.03-.01-.05zm-.33.48l.27-.47.07.04-.27.47-.05.02-.02-.06zm.07.04l-.02.04-.03-.02.05-.02zm-4.91-2.84l4.9 2.79-.04.07-4.9-2.78-.02-.06.06-.02zm-.04.08l-.04-.03.02-.03.02.06zm.32-.49l-.26.47-.08-.04.27-.47.06-.02.01.06zm-.07-.04l.02-.04.04.02-.06.02z" class="fil1"/><path d="M2.1 12.44l.93-1.57.07.04-.93 1.57z" class="fil1"/><g><path d="M2.54 12.69l.94-1.57.07.04-.94 1.58z" class="fil1"/></g><g><path d="M2.99 12.97l.94-1.58.07.05-.94 1.57z" class="fil1"/></g><g><path d="M3.46 13.21l.93-1.57.07.04-.93 1.57z" class="fil1"/></g><g><path d="M3.9 13.49l.93-1.57.07.04-.93 1.57z" class="fil1"/></g><g><path d="M4.34 13.69l.94-1.57.07.04-.94 1.57z" class="fil1"/></g><g><path d="M4.79 13.97l.94-1.57.07.04-.94 1.57z" class="fil1"/></g><g><path d="M5.23 14.2l.93-1.57.07.04-.93 1.58z" class="fil1"/></g><g><path d="M5.64 14.47l.94-1.58.07.05-.94 1.57z" class="fil1"/></g><g><path d="M6.09 14.71l.94-1.57.07.04-.94 1.57z" class="fil1"/></g></g></g></g></svg>