<svg xmlns="http://www.w3.org/2000/svg" width="135" height="57" fill-rule="evenodd" clip-rule="evenodd" image-rendering="optimizeQuality" shape-rendering="geometricPrecision" text-rendering="geometricPrecision" viewBox="0 0 307.94 129.81"><defs><style>.fil9{fill:#fefefe}.fil0,.fil7{fill:#2b2a29}.fil4{fill:#f9d5d7}.fil2{fill:#6fa691}.fil8{fill:#a9a9ab}.fil1{fill:#2b2a29;fill-rule:nonzero}</style></defs><g id="Слой_x0020_1"><g id="_839255008"><path d="M280.43 106.7c-6.2 0-11.22 5.03-11.22 11.22 0 6.2 5.02 11.22 11.22 11.22 6.19 0 11.22-5.02 11.22-11.22 0-6.19-5.03-11.22-11.22-11.22z" class="fil0"/><path id="1" d="M269.59 117.92h-.77l.02-.59.04-.59.08-.59.1-.57.13-.56.15-.55.19-.54.21-.53.23-.51.25-.5.29-.49.29-.46.33-.46.34-.44.37-.42.38-.4.41-.39.42-.36.43-.35.46-.32.47-.3.48-.28.51-.26.51-.23.53-.21.54-.18.55-.16.56-.13.57-.1.58-.07.59-.05.6-.01v.77l-.56.01-.55.05-.54.06-.53.1-.53.12-.51.14-.51.17-.49.2-.48.22-.46.23-.46.27-.44.28-.42.3-.41.32-.4.34-.37.36-.36.38-.34.39-.32.41-.31.43-.28.44-.26.45-.24.46-.21.49-.2.49-.17.5-.14.51-.13.53-.09.53-.07.55-.04.54-.02.56zm10.84 10.84v.76l-.6-.01-.59-.04-.58-.08-.57-.1-.56-.13-.55-.15-.54-.19-.53-.21-.51-.23-.5-.25-.49-.28-.47-.31-.46-.32-.43-.35-.42-.36-.41-.38-.38-.41-.37-.42-.34-.43-.33-.46-.29-.47-.29-.49-.25-.5-.23-.51-.21-.53-.19-.54-.15-.55-.13-.56-.1-.57-.08-.58-.04-.59-.02-.6h.77l.02.56.04.55.07.54.09.53.13.53.14.51.17.51.2.49.21.48.24.46.26.46.28.44.31.42.32.41.34.4.36.37.37.36.4.34.41.32.42.3.44.29.45.26.47.24.48.21.49.2.51.17.51.14.53.12.53.1.54.07.55.04.56.02zm10.83-10.84h.77l-.01.6-.05.59-.07.58-.11.57-.12.56-.16.55-.18.54-.21.53-.23.51-.26.5-.28.49-.3.47-.32.46-.35.43-.36.42-.39.41-.4.38-.42.36-.44.35-.45.32-.47.31-.49.28-.5.25-.51.23-.53.21-.54.19-.55.15-.56.13-.57.1-.58.08-.6.04-.59.01v-.76l.56-.02.54-.04.55-.07.53-.1.53-.12.51-.14.5-.17.5-.2.47-.21.47-.24.46-.26.44-.29.42-.3.41-.32.39-.34.38-.36.36-.37.34-.4.32-.41.3-.42.28-.44.26-.46.24-.46.22-.48.19-.49.17-.51.15-.51.12-.53.09-.53.07-.54.05-.55.01-.56zm-10.83-10.83v-.77l.59.01.6.05.58.07.57.1.56.13.55.16.54.18.53.21.51.23.5.26.49.28.47.3.45.32.44.35.42.36.4.39.39.4.36.42.35.44.32.46.3.46.28.49.26.5.23.51.21.53.18.54.16.55.12.56.11.57.07.59.05.59.01.59h-.77l-.01-.56-.05-.54-.07-.55-.09-.53-.12-.53-.15-.51-.17-.5-.19-.49-.22-.49-.24-.46-.26-.45-.28-.44-.3-.43-.32-.41-.34-.39-.36-.38-.38-.36-.39-.34-.41-.32-.42-.3-.44-.28-.46-.27-.47-.23-.47-.22-.5-.2-.5-.17-.51-.14-.53-.12-.53-.1-.55-.06-.54-.05-.56-.01z" class="fil1"/><path d="M251.26 106.7c-6.19 0-11.22 5.03-11.22 11.22 0 6.2 5.03 11.22 11.22 11.22 6.2 0 11.22-5.02 11.22-11.22 0-6.19-5.02-11.22-11.22-11.22z" class="fil0"/><path id="1" d="M240.43 117.92h-.77l.01-.59.05-.59.07-.59.1-.57.13-.56.16-.55.18-.54.21-.53.23-.51.26-.5.28-.49.3-.46.32-.46.35-.44.36-.42.39-.4.4-.39.42-.36.44-.35.45-.32.47-.3.49-.28.5-.26.51-.23.53-.21.54-.18.55-.16.56-.13.57-.1.58-.07.6-.05.59-.01v.77l-.56.01-.55.05-.54.06-.53.1-.53.12-.51.14-.5.17-.5.2-.48.22-.46.23-.46.27-.44.28-.42.3-.41.32-.39.34-.38.36-.36.38-.34.39-.32.41-.3.43-.28.44-.27.45-.23.46-.22.49-.2.49-.17.5-.14.51-.12.53-.1.53-.06.55-.05.54-.01.56zm10.83 10.84v.76l-.59-.01-.6-.04-.58-.08-.57-.1-.56-.13-.55-.15-.54-.19-.53-.21-.51-.23-.5-.25-.49-.28-.47-.31-.45-.32-.44-.35-.42-.36-.4-.38-.39-.41-.36-.42-.35-.43-.32-.46-.3-.47-.28-.49-.26-.5-.23-.51-.21-.53-.18-.54-.16-.55-.13-.56-.1-.57-.07-.58-.05-.59-.01-.6h.77l.01.56.05.55.06.54.1.53.12.53.14.51.17.51.2.49.22.48.23.46.27.46.28.44.3.42.32.41.34.4.36.37.38.36.39.34.41.32.42.3.44.29.46.26.46.24.48.21.5.2.5.17.51.14.53.12.53.1.54.07.55.04.56.02zm10.83-10.84h.77l-.01.6-.04.59-.08.58-.1.57-.13.56-.15.55-.19.54-.21.53-.23.51-.25.5-.29.49-.3.47-.32.46-.35.43-.36.42-.38.41-.41.38-.42.36-.44.35-.45.32-.47.31-.49.28-.5.25-.51.23-.53.21-.54.19-.55.15-.56.13-.57.1-.58.08-.59.04-.6.01v-.76l.56-.02.55-.04.54-.07.53-.1.53-.12.51-.14.51-.17.49-.2.48-.21.47-.24.45-.26.44-.29.42-.3.41-.32.4-.34.37-.36.36-.37.34-.4.32-.41.3-.42.29-.44.26-.46.24-.46.21-.48.2-.49.17-.51.14-.51.12-.53.1-.53.07-.54.04-.55.01-.56zm-10.83-10.83v-.77l.6.01.59.05.58.07.57.1.56.13.55.16.54.18.53.21.51.23.5.26.49.28.47.3.45.32.44.35.42.36.41.39.38.4.36.42.35.44.32.46.3.46.29.49.25.5.23.51.21.53.19.54.15.55.13.56.1.57.08.59.04.59.01.59h-.77l-.01-.56-.04-.54-.07-.55-.1-.53-.12-.53-.14-.51-.17-.5-.2-.49-.21-.49-.24-.46-.26-.45-.29-.44-.3-.43-.32-.41-.34-.39-.36-.38-.37-.36-.4-.34-.41-.32-.42-.3-.44-.28-.46-.27-.46-.23-.48-.22-.49-.2-.51-.17-.51-.14-.53-.12-.53-.1-.54-.06-.55-.05-.56-.01z" class="fil1"/><path d="M204.8 106.7c-6.19 0-11.21 5.03-11.21 11.22 0 6.2 5.02 11.22 11.21 11.22 6.2 0 11.22-5.02 11.22-11.22 0-6.19-5.02-11.22-11.22-11.22z" class="fil0"/><path id="1" d="M193.97 117.92h-.77l.01-.59.05-.59.07-.59.11-.57.12-.56.16-.55.19-.54.2-.53.23-.51.26-.5.28-.49.3-.46.32-.46.35-.44.36-.42.39-.4.4-.39.42-.36.44-.35.46-.32.47-.3.48-.28.5-.26.52-.23.52-.21.54-.18.56-.16.56-.13.57-.1.58-.07.59-.05.59-.01v.77l-.56.01-.54.05-.55.06-.53.1-.53.12-.51.14-.5.17-.49.2-.48.22-.47.23-.45.27-.44.28-.43.3-.41.32-.39.34-.38.36-.35.38-.35.39-.32.41-.3.43-.28.44-.26.45-.24.46-.22.49-.19.49-.17.5-.15.51-.12.53-.09.53-.07.55-.05.54-.01.56zm10.83 10.84v.76l-.59-.01-.59-.04-.58-.08-.57-.1-.56-.13-.56-.15-.54-.19-.52-.21-.52-.23-.5-.25-.48-.28-.47-.31-.46-.32-.44-.35-.42-.36-.4-.38-.39-.41-.36-.42-.35-.43-.32-.46-.3-.47-.28-.49-.26-.5-.23-.51-.2-.53-.19-.54-.16-.55-.12-.56-.11-.57-.07-.58-.05-.59-.01-.6h.77l.01.56.05.55.07.54.09.53.12.53.15.51.17.51.19.49.22.48.24.47.26.45.28.44.3.42.32.41.35.4.35.37.38.36.39.34.41.32.43.3.44.29.45.26.47.24.48.21.49.2.5.17.51.14.53.12.53.1.55.07.54.04.56.02zm10.84-10.84h.77l-.02.6-.04.59-.07.58-.11.57-.13.56-.15.55-.19.54-.2.53-.24.51-.25.5-.28.49-.3.47-.33.46-.34.43-.37.42-.38.41-.4.38-.43.36-.43.35-.46.32-.47.31-.48.28-.51.25-.51.23-.53.21-.53.19-.56.15-.56.13-.57.1-.58.08-.59.04-.6.01v-.76l.56-.02.55-.04.54-.07.54-.1.52-.12.51-.14.51-.17.49-.2.48-.21.47-.24.45-.26.44-.29.42-.3.41-.32.4-.34.38-.36.35-.37.35-.4.32-.41.3-.42.28-.44.26-.46.24-.46.22-.48.19-.49.17-.51.15-.51.12-.53.09-.53.07-.54.04-.55.02-.56zm-10.84-10.83v-.77l.6.01.59.05.58.07.57.1.56.13.56.16.53.18.53.21.51.23.51.26.48.28.47.3.46.32.43.35.43.36.4.39.38.4.37.42.34.44.33.46.3.46.28.49.25.5.24.51.2.53.19.54.15.55.13.56.11.57.07.59.04.59.02.59h-.77l-.02-.56-.04-.54-.07-.55-.09-.53-.12-.53-.15-.51-.17-.5-.19-.49-.22-.49-.24-.46-.26-.45-.28-.44-.3-.43-.32-.41-.35-.39-.35-.38-.38-.36-.4-.34-.41-.32-.42-.3-.44-.28-.45-.27-.47-.23-.48-.22-.49-.2-.51-.17-.51-.14-.52-.12-.54-.1-.54-.06-.55-.05-.56-.01z" class="fil1"/><path d="M177.09 106.7c-6.2 0-11.22 5.03-11.22 11.22 0 6.2 5.02 11.22 11.22 11.22 6.19 0 11.22-5.02 11.22-11.22 0-6.19-5.03-11.22-11.22-11.22z" class="fil0"/><path id="1" d="M166.25 117.92h-.77l.02-.59.04-.59.08-.59.1-.57.13-.56.15-.55.19-.54.21-.53.23-.51.25-.5.29-.49.3-.46.32-.46.35-.44.36-.42.38-.4.41-.39.42-.36.44-.35.45-.32.47-.3.49-.28.5-.26.51-.23.53-.21.53-.18.56-.16.56-.13.57-.1.58-.07.59-.05.6-.01v.77l-.56.01-.55.05-.54.06-.54.1-.52.12-.51.14-.51.17-.49.2-.48.22-.47.23-.45.27-.44.28-.42.3-.41.32-.4.34-.37.36-.36.38-.34.39-.32.41-.3.43-.29.44-.26.45-.24.46-.21.49-.2.49-.17.5-.14.51-.12.53-.1.53-.07.55-.04.54-.02.56zm10.84 10.84v.76l-.6-.01-.59-.04-.58-.08-.57-.1-.56-.13-.56-.15-.53-.19-.53-.21-.51-.23-.5-.25-.49-.28-.47-.31-.45-.32-.44-.35-.42-.36-.41-.38-.38-.41-.36-.42-.35-.43-.32-.46-.3-.47-.29-.49-.25-.5-.23-.51-.21-.53-.19-.54-.15-.55-.13-.56-.1-.57-.08-.58-.04-.59-.02-.6h.77l.02.56.04.55.07.54.1.53.12.53.14.51.17.51.2.49.21.48.24.46.26.46.29.44.3.42.32.41.34.4.36.37.37.36.4.34.41.32.42.3.44.29.45.26.47.24.48.21.49.2.51.17.51.14.52.12.54.1.54.07.55.04.56.02zm10.83-10.84h.77l-.01.6-.05.59-.07.58-.11.57-.12.56-.16.55-.18.54-.21.53-.23.51-.26.5-.28.49-.3.47-.32.46-.35.43-.36.42-.39.41-.4.38-.42.36-.44.35-.46.32-.46.31-.49.28-.5.25-.52.23-.52.21-.54.19-.56.15-.55.13-.58.1-.58.08-.59.04-.59.01v-.76l.56-.02.54-.04.55-.07.53-.1.53-.12.51-.14.5-.17.49-.2.48-.21.47-.24.45-.26.44-.29.43-.3.41-.32.39-.34.38-.36.36-.37.34-.4.32-.41.3-.42.28-.44.26-.46.24-.46.22-.48.2-.49.17-.51.14-.51.12-.53.1-.53.06-.54.05-.55.01-.56zm-10.83-10.83v-.77l.59.01.59.05.58.07.58.1.55.13.56.16.54.18.52.21.52.23.5.26.49.28.46.3.46.32.44.35.42.36.4.39.39.4.36.42.35.44.32.46.3.46.28.49.26.5.23.51.21.53.18.54.16.55.12.56.11.57.07.59.05.59.01.59h-.77l-.01-.56-.05-.54-.06-.55-.1-.53-.12-.53-.14-.51-.17-.5-.2-.49-.22-.49-.24-.46-.26-.45-.28-.44-.3-.43-.32-.41-.34-.39-.36-.38-.38-.36-.39-.34-.41-.32-.43-.3-.44-.28-.45-.27-.47-.23-.48-.22-.49-.2-.5-.17-.51-.14-.53-.12-.53-.1-.55-.06-.54-.05-.56-.01z" class="fil1"/><path d="M303.43 102.45H173.97c-1.43 0-2.08 1.27-2.6 2.6l-3.49 9.04c-.51 1.34 1.18 2.6 2.6 2.6h34.33v-2.28c0-2.2 1.8-4 4-4h38.12c2.2 0 4 1.8 4 4v2.28h54c1.43 0 2.84-1.19 2.6-2.6l-1.49-9.04c-.24-1.41-1.17-2.6-2.61-2.6z" class="fil2"/><path id="1" d="M173.97 102.84v-.77h129.46v.77H173.97zm-2.96 2.07l.05-.12.06-.13.05-.13.05-.12.06-.13.05-.13.06-.12.06-.12.06-.12.07-.12.07-.12.07-.11.07-.12.08-.1.08-.11.09-.11.09-.1.08-.09.1-.09.1-.09.11-.09.11-.08.11-.07.12-.06.13-.06.12-.05.13-.05.14-.04.14-.03.15-.02.15-.01h.15v.77h-.11l-.1.01-.1.01-.1.02-.09.03-.09.03-.09.04-.08.03-.08.05-.07.05-.08.05-.07.06-.08.06-.07.07-.07.08-.07.07-.06.08-.07.09-.06.09-.06.09-.06.1-.06.1-.06.1-.05.11-.05.11-.06.11-.05.12-.05.11-.05.12-.05.12-.05.12-.05.12-.72-.28zm-2.77 9.32l-.72-.28 3.49-9.04.72.28-3.49 9.04zm2.24 2.85l-.15-.01-.16-.01-.15-.02-.16-.03-.15-.03-.15-.04-.15-.05-.15-.06-.15-.06-.14-.07-.14-.07-.13-.08-.13-.08-.14-.09-.12-.1-.11-.1-.12-.11-.1-.11-.1-.11-.09-.13-.09-.12-.07-.13-.07-.14-.05-.14-.05-.15-.03-.14-.02-.16-.01-.15.01-.17.02-.15.04-.16.05-.16.72.28-.03.09-.02.09-.01.09-.01.09.01.08.01.09.02.08.02.09.04.09.04.09.05.08.06.09.06.08.07.09.08.08.08.07.1.08.09.08.1.07.1.06.11.07.11.05.11.06.12.05.11.04.12.04.12.03.12.03.12.02.12.02.11.01h.11v.77zm34.33-.77l.38.38-.38.39h-34.33v-.77h34.33zm.38.38v.39h-.38l.38-.39zm-.77-2.28h.77v2.28h-.77v-2.28zm4.39-3.61h-.19l-.18.02-.18.02-.18.03-.17.04-.17.05-.17.06-.16.06-.17.07-.15.08-.15.09-.15.1-.14.1-.14.1-.13.12-.13.12-.12.12-.11.14-.11.13-.1.14-.09.15-.09.15-.08.16-.07.16-.07.16-.06.17-.04.17-.05.18-.03.17-.02.18-.01.19-.01.18h-.77l.01-.22.01-.22.03-.22.04-.22.05-.21.06-.21.07-.2.08-.2.08-.2.1-.19.11-.18.11-.18.13-.17.13-.16.13-.16.15-.16.15-.14.16-.14.17-.13.17-.12.17-.12.19-.1.19-.1.19-.09.2-.08.2-.07.21-.06.21-.05.22-.04.22-.02.22-.02h.23v.77zm38.12-.77v.77h-38.12v-.77h38.12zm3.62 4.38l-.01-.18-.01-.19-.03-.18-.03-.17-.04-.18-.05-.17-.06-.17-.06-.16-.07-.16-.08-.16-.09-.15-.09-.14-.1-.15-.11-.13-.12-.14-.12-.12-.12-.12-.13-.11-.14-.11-.14-.11-.15-.09-.15-.09-.16-.08-.16-.07-.16-.06-.17-.06-.17-.05-.17-.04-.18-.03-.18-.02-.19-.02h-.18v-.77h.23l.22.02.22.02.21.04.22.05.2.06.2.07.2.08.2.09.19.1.18.1.18.12.17.12.17.13.16.14.15.14.15.16.13.16.13.16.13.18.11.17.11.19.09.19.09.19.08.2.07.2.06.21.05.21.04.22.02.22.02.22.01.22h-.77zm.77 2.28l-.39.39-.38-.39v-2.28h.77v2.28zm-.39.39h-.38v-.39l.38.39zm54-.77v.77h-54v-.77h54zm2.98-2.28l.02.16.01.15v.16l-.01.15-.02.15-.03.15-.05.14-.05.15-.05.13-.07.13-.07.13-.09.13-.08.11-.1.12-.1.11-.1.1-.11.1-.12.09-.12.09-.12.09-.13.07-.13.07-.13.07-.15.06-.13.05-.15.05-.14.04-.15.04-.15.03-.16.01-.15.01-.15.01v-.77h.12l.11-.02.11-.01.11-.02.12-.02.11-.03.11-.04.11-.04.1-.05.11-.05.1-.05.09-.06.1-.07.09-.06.08-.07.09-.08.08-.07.07-.09.07-.08.06-.08.06-.09.05-.09.05-.09.04-.1.03-.09.03-.1.02-.09.01-.11.01-.09v-.11l-.01-.1-.01-.11.76-.12zm-2.25-8.91l.76-.13 1.49 9.04-.76.12-1.49-9.03zm-2.23-3.05h.15l.16.01.15.02.14.03.14.03.14.04.13.05.13.06.13.06.12.07.12.07.11.08.11.09.11.08.1.1.09.1.1.1.09.11.08.11.08.12.08.12.06.12.07.12.06.13.06.13.05.13.05.14.04.13.04.14.04.15.03.14.03.14-.76.13-.03-.12-.02-.12-.03-.11-.03-.12-.04-.12-.04-.1-.04-.11-.05-.11-.05-.1-.05-.1-.06-.09-.06-.1-.06-.09-.06-.08-.07-.09-.07-.07-.07-.08-.08-.07-.07-.07-.08-.06-.08-.05-.09-.05-.09-.06-.09-.04-.09-.04-.1-.03-.09-.03-.11-.03-.1-.02-.1-.01-.11-.01h-.12v-.77z" class="fil1"/><path fill="#f08bb2" d="M286.55 103.15h-64.63v-.04l-52.04.04c-10.73-1.9-11.47-18.01-2.5-22.21 8.82-4.15 35.66-9.72 47.62-17.13 7.42-4.6 7.07-13.83 9.85-21.93l3.03-27.07c-11.34-29.84 55.04-3.77 56.39 1.11l2.58 39.79v.01c10.21 30.98 8.29 44.12-.3 47.43z"/><path id="1" d="M221.92 103.54l-.39-.39.39-.38h64.63v.77h-64.63zm0 0h-.39v-.39l.39.39zm-.39-.43l.39-.39.38.39v.04h-.77v-.04zm.39-.39h.38v.39l-.38-.39zm-52.04.82l-.06-.01.06-.76 52.04-.05v.77l-52.04.05zm0 0h-.03l-.03-.01.06.01zm-2.33-22.25l-.79.41-.72.47-.67.53-.62.59-.56.63-.51.68-.46.73-.39.75-.35.79-.29.82-.23.83-.18.86-.12.87-.07.87-.01.88.05.88.1.87.15.85.22.84.27.82.32.8.39.76.43.72.5.69.54.64.6.6.66.54.72.49.77.42.82.35.89.29.94.21-.13.76-1.01-.23-.96-.31-.89-.38-.84-.46-.77-.52-.71-.59-.65-.64-.59-.69-.53-.74-.47-.78-.4-.82-.35-.84-.29-.87-.23-.89-.17-.91-.1-.92-.05-.92.01-.93.07-.92.13-.92.19-.91.25-.88.3-.87.37-.84.43-.81.48-.77.55-.73.61-.69.66-.63.73-.57.79-.52.84-.44.33.7zm0 0zm47.65-17.15l-1.18.69-1.25.69-1.33.67-1.4.66-1.46.65-1.52.65-1.56.62-1.61.62-1.65.61-1.68.59-1.71.59-1.73.58-1.74.56-1.75.56-1.76.55-1.74.54-1.75.52-1.72.52-1.7.51-1.68.5-1.64.49-1.6.48-1.56.47-1.51.46-1.44.46-1.38.44-1.32.43-1.23.43-1.16.41-1.06.41-.97.4-.86.39-.33-.7.89-.4.99-.4 1.07-.42 1.17-.42 1.25-.43 1.32-.44 1.39-.44 1.45-.46 1.5-.46 1.57-.47 1.6-.48 1.64-.49 1.68-.5 1.7-.51 1.72-.51 1.74-.53 1.75-.54 1.75-.54 1.74-.56 1.74-.56 1.72-.58 1.7-.58 1.68-.6 1.64-.6 1.6-.62 1.55-.62 1.5-.63 1.45-.65 1.38-.65 1.31-.66 1.23-.68 1.15-.68.41.66zm10.03-22.21l-.02.08-.24.75-.24.76-.22.77-.2.77-.2.77-.19.78-.18.77-.18.79-.18.77-.18.78-.18.77-.18.77-.19.76-.2.76-.2.75-.22.74-.23.73-.25.73-.27.71-.28.7-.32.68-.33.67-.36.66-.39.64-.42.62-.46.6-.49.58-.52.56-.57.54-.6.5-.65.49-.69.46-.41-.66.66-.43.61-.46.57-.48.53-.5.5-.53.46-.55.43-.57.4-.59.37-.61.35-.62.32-.65.3-.66.27-.67.26-.69.25-.71.22-.72.22-.72.2-.74.19-.75.19-.75.18-.77.18-.76.18-.78.17-.78.18-.78.19-.78.19-.78.2-.79.21-.78.23-.78.23-.77.26-.77-.02.08.76.09zm0 0v.04l-.02.04.02-.08zm2.27-27.16l.74-.1.02.18-3.03 27.08-.76-.09 3.03-27.07zm.74-.1l.03.09-.01.09-.02-.18zm55.64 1.28l.02.08-.24-.37-.61-.58-.97-.7-1.28-.79-1.56-.87-1.82-.92-2.04-.96-2.23-.99-2.42-1-2.56-1-2.67-.98-2.78-.95-2.83-.9-2.88-.84-2.9-.77-2.88-.69-2.84-.58-2.78-.46-2.68-.34-2.57-.19-2.41-.04-2.25.14-2.04.31-1.81.51-1.56.71-1.27.92-.99 1.14-.67 1.38-.35 1.64v1.95l.41 2.27.82 2.59-.72.28-.85-2.68-.43-2.38v-2.1l.39-1.82.76-1.56 1.11-1.28 1.41-1.02 1.68-.76 1.91-.54 2.12-.33 2.31-.14 2.47.04 2.61.19 2.72.34 2.8.47 2.87.59 2.9.69 2.92.78 2.89.84 2.86.91 2.78.96 2.7.98 2.57 1 2.43 1.01 2.25 1 2.06.96 1.84.94 1.59.88 1.32.82 1.02.74.72.68.39.66.01.08-.77.05zm.76-.13l.01.04v.04l-.01-.08zm2.59 39.87v.02l-.77.03-2.58-39.79.77-.05 2.58 39.79zm0 0v.02-.02zm0 .03l-.75.12-.02-.12v-.01h.77v.01zm-.75.12l-.02-.06v-.06l.02.12zm.07 46.93l-.14.02.76-.33.72-.38.68-.44.63-.5.59-.56.56-.62.51-.69.46-.76.43-.82.38-.91.33-.97.28-1.04.23-1.13.19-1.2.13-1.28.08-1.36.02-1.45-.03-1.53-.09-1.61-.15-1.7-.2-1.79-.27-1.88-.32-1.97-.39-2.06-.45-2.16-.52-2.25-.58-2.34-.64-2.45-.72-2.54-.78-2.64-.85-2.75-.92-2.84.73-.25.93 2.86.85 2.76.79 2.65.71 2.55.65 2.46.58 2.36.52 2.26.46 2.17.39 2.08.33 1.98.26 1.9.21 1.81.15 1.72.09 1.64.03 1.56-.02 1.47-.08 1.4-.14 1.32-.19 1.24-.24 1.17-.3 1.09-.34 1.02-.4.95-.45.88-.5.81-.56.74-.59.68-.65.6-.69.55-.73.47-.77.42-.82.35-.14.03v-.77zm.14.74l-.06.03h-.08l.14-.03z" class="fil1"/><path d="M178.94 76.92c2.08-.63 4.29-1.29 6.57-1.97 1.76 4.39 3.12 8.67 3.98 12.83.18.88-.13 1.79-.97 2.1l-2.92 1.07c-.84.31-1.86-.11-2.09-.98-1.17-4.41-2.72-8.71-4.57-13.05z" class="fil4"/><path id="1" d="M185.15 75.09l.47.23-.21.06-.22.07-.21.06-.21.06-.21.07-.21.06-.21.06-.21.06-.21.07-.21.06-.21.06-.21.07-.21.06-.2.06-.21.06-.21.06-.2.06-.21.06-.2.07-.21.06-.2.06-.2.06-.21.06-.2.06-.2.06-.2.06-.19.06-.21.06-.19.06-.2.06-.2.06-.19.06-.22-.74.19-.06.2-.06.2-.06.19-.06.2-.06.2-.06.2-.06.2-.06.2-.06.21-.06.2-.06.2-.06.21-.06.2-.06.21-.07.2-.05.21-.07.2-.06.21-.06.21-.06.21-.06.21-.07.21-.06.21-.06.21-.06.21-.07.21-.06.21-.07.21-.06.21-.06.22-.06.21-.07.47.23-.72.28zm.25-.51l.34-.1.13.33-.47-.23zm3.71 13.28l-.08-.39-.08-.38-.09-.39-.09-.4-.09-.39-.1-.39-.1-.39-.1-.39-.11-.4-.1-.39-.11-.39-.12-.4-.11-.4-.12-.4-.12-.39-.12-.4-.13-.4-.13-.4-.12-.41-.14-.39-.14-.41-.13-.4-.15-.41-.14-.4-.15-.4-.14-.41-.16-.4-.15-.41-.15-.41-.16-.41-.16-.41-.17-.41.72-.28.16.41.16.41.17.42.15.4.16.42.15.4.15.41.15.41.14.41.14.41.15.4.13.41.14.41.13.4.13.41.12.4.13.4.12.4.12.41.12.39.11.41.11.4.11.39.1.4.11.4.1.4.09.39.1.4.09.39.09.4.08.39.09.39-.76.16zm-.72 1.65l.06-.02.05-.02.05-.03.05-.03.05-.03.04-.04.06-.04.03-.03.04-.04.04-.05.03-.04.04-.05.03-.04.02-.05.03-.06.03-.05.02-.06.01-.04.02-.07.02-.07.01-.05.01-.06.01-.07.01-.07v-.33l-.01-.07-.01-.07-.02-.07.76-.16.02.1.01.1.01.09.01.1v.38l-.01.09-.01.09-.02.1-.02.09-.02.09-.03.08-.03.1-.04.09-.04.08-.04.08-.04.08-.06.09-.05.07-.06.08-.06.06-.07.07-.07.08-.07.05-.08.06-.08.06-.09.05-.09.05-.09.04-.1.04-.26-.73zm-2.66 1.8l-.26-.72 2.92-1.08.26.73-2.92 1.07zm-1.85-1.43l.02.06.02.05.02.05.03.06.02.04.04.05.03.05.04.04.04.04.04.04.04.03.05.04.05.04.05.02.06.03.05.03.05.02.07.02.06.02.06.02.06.01.06.01.07.01h.25l.06-.01.06-.01.07-.02.06-.02.06-.01.26.72-.09.03-.1.03-.1.02-.1.02-.1.02H184.83l-.09-.02-.1-.01-.1-.02-.09-.02-.1-.03-.08-.04-.1-.03-.09-.05-.09-.04-.08-.06-.08-.05-.08-.06-.08-.06-.07-.07-.07-.07-.07-.08-.06-.08-.06-.08-.05-.1-.04-.09-.05-.09-.03-.11-.03-.1.74-.19zm-4.83-12.59l.24-.52.18.4.17.41.16.41.18.41.16.4.16.41.17.41.16.41.16.4.15.41.16.41.15.41.15.41.15.4.15.41.14.41.14.41.15.41.13.41.14.41.14.41.13.41.13.41.13.41.12.41.13.41.12.42.12.41.12.41.11.42.12.41.11.42-.74.19-.11-.41-.12-.41-.11-.41-.12-.41-.12-.41-.12-.41-.12-.4-.13-.41-.13-.41-.12-.41-.14-.4-.13-.41-.14-.4-.14-.41-.13-.41-.15-.4-.14-.41-.15-.4-.14-.41-.15-.4-.16-.41-.15-.4-.15-.41-.16-.4-.16-.41-.16-.4-.16-.41-.17-.4-.17-.41-.16-.4-.17-.41-.18-.4.25-.52.22.74zm-.47-.22l-.17-.4.42-.12-.25.52z" class="fil1"/><g><path d="M190.65 73.4c2.17-.66 4.36-1.35 6.52-2.06 1.71 4.3 3.04 8.5 3.88 12.59.19.88-.12 1.78-.97 2.09l-2.91 1.07c-.85.31-1.87-.1-2.1-.97-1.14-4.3-2.64-8.49-4.42-12.72z" class="fil4"/><path id="1" d="M196.81 71.48l.48.22-.2.07-.21.06-.19.07-.21.07-.2.06-.21.07-.2.07-.2.06-.21.07-.2.06-.2.07-.21.06-.21.07-.2.07-.2.06-.21.06-.2.07-.21.06-.2.07-.21.06-.2.06-.2.07-.21.06-.21.07-.2.06-.21.07-.2.06-.2.06-.21.06-.2.07-.2.06-.21.06-.23-.74.21-.06.2-.06.21-.06.2-.07.2-.06.21-.06.2-.07.21-.06.2-.06.2-.07.21-.06.21-.06.2-.07.2-.06.21-.07.2-.06.21-.07.2-.06.2-.07.2-.06.21-.07.21-.06.2-.06.2-.07.21-.07.2-.06.2-.07.2-.06.2-.07.21-.07.2-.06.2-.07.48.22-.72.29zm.24-.51l.35-.11.13.33-.48-.22zM200.68 84l-.08-.38-.09-.38-.08-.38-.09-.38-.09-.39-.1-.38-.09-.39-.1-.38-.1-.39-.11-.38-.11-.39-.11-.39-.11-.39-.11-.39-.12-.39-.12-.39-.12-.39-.13-.39-.12-.4-.14-.39-.13-.4-.14-.39-.13-.4-.14-.39-.15-.4-.14-.4-.15-.4-.14-.4-.16-.4-.15-.4-.16-.4-.16-.4.72-.29.16.41.16.4.15.41.16.4.15.4.14.41.15.39.14.41.15.4.14.4.13.39.14.4.13.4.12.4.13.4.13.39.12.4.12.39.11.39.11.4.12.39.11.39.1.4.11.39.09.39.1.39.1.39.09.38.09.39.08.39.09.38.08.39-.75.15zm-.73 1.66l.06-.02.05-.03.06-.03.05-.03.04-.03.05-.03.05-.04.03-.03.04-.05.04-.04.03-.04.03-.05.04-.05.03-.05.02-.05.03-.05.02-.06.02-.06.02-.05.02-.07.01-.06.01-.06.01-.06v-.07l.01-.07v-.13l-.01-.07v-.07l-.01-.07-.01-.06-.01-.08.75-.15.02.09.01.1.01.1.01.09.01.09v.2l-.01.09-.01.09-.01.1-.01.09-.03.1-.02.09-.03.09-.03.09-.03.08-.04.09-.05.08-.04.08-.05.08-.05.08-.07.07-.06.07-.06.07-.08.07-.07.06-.08.06-.08.06-.08.05-.09.04-.1.05-.09.03v.01l-.27-.73zm-2.65 1.79l-.26-.72 2.91-1.07.27.73-2.92 1.06zm-1.86-1.43l.02.06.02.05.03.06.02.05.03.05.03.04.04.05.03.04.04.04.05.04.04.04.05.04.04.03.06.03.05.03.06.03.05.02.06.02.07.02.05.02.06.01h.07l.06.01.06.01h.13l.06-.01.06-.01.06-.01.07-.02.07-.01.06-.02.26.72-.1.04-.1.02-.09.02-.1.02-.11.02h-.1l-.1.01h-.1l-.1-.01-.1-.01-.09-.01-.11-.03-.1-.02-.08-.03-.09-.03-.1-.04-.09-.04-.08-.05-.08-.05-.09-.05-.08-.07-.07-.06-.08-.06-.07-.08-.06-.07-.06-.08-.06-.09-.06-.09-.04-.09-.05-.1-.03-.1-.03-.1.74-.2zm-4.68-12.25l.24-.52.17.4.16.4.17.39.16.4.16.4.16.39.16.4.15.4.16.4.15.39.14.4.15.4.15.39.14.4.14.4.14.4.14.4.14.39.13.4.14.4.13.4.13.4.12.4.13.4.12.4.12.4.12.41.12.4.11.4.11.41.11.4.11.4-.74.2-.11-.4-.11-.4-.11-.4-.11-.4-.12-.4-.12-.4-.12-.39-.12-.4-.12-.4-.13-.4-.12-.39-.14-.4-.13-.39-.13-.4-.14-.4-.13-.39-.14-.39-.14-.4-.15-.39-.14-.4-.15-.39-.15-.39-.15-.4-.15-.39-.15-.4-.16-.39-.15-.4-.16-.39-.16-.39-.17-.4-.16-.39-.17-.4.24-.52.23.74zm-.47-.22l-.16-.39.4-.13-.24.52z" class="fil1"/></g><g><path d="M202.49 69.5c2.23-.82 4.37-1.66 6.34-2.53 1.86 4.57 3.29 9.02 4.19 13.34.18.88-.13 1.79-.97 2.1l-2.92 1.07c-.84.31-1.86-.11-2.09-.97-1.17-4.4-2.71-8.69-4.55-13.01z" class="fil4"/><path id="1" d="M208.48 67.12l.51.21-.19.08-.18.08-.19.08-.19.08-.19.08-.2.08-.19.09-.19.07-.19.08-.2.08-.19.09-.2.08-.19.08-.21.08-.19.08-.2.07-.2.08-.2.08-.2.08-.21.08-.2.08-.2.08-.21.08-.2.07-.21.08-.2.08-.21.07-.2.08-.22.08-.2.07-.21.08-.21.08-.27-.73.21-.07.21-.08.21-.07.21-.08.2-.08.21-.07.2-.08.21-.08.2-.08.2-.07.2-.08.2-.08.21-.08.19-.08.21-.07.2-.08.19-.08.2-.08.2-.08.19-.08.2-.08.19-.08.19-.08.19-.08.19-.07.19-.09.19-.08.2-.08.18-.07.19-.09.18-.08.19-.08.51.21-.71.29zm.2-.5l.36-.16.15.37-.51-.21zm3.96 13.77l-.09-.4-.08-.41-.1-.4-.09-.4-.09-.41-.11-.41-.1-.41-.11-.4-.1-.41-.12-.41-.11-.41-.12-.42-.12-.41-.13-.41-.12-.42-.13-.41-.13-.41-.14-.42-.14-.42-.14-.42-.14-.41-.15-.42-.15-.42-.15-.42-.15-.42-.16-.43-.16-.42-.16-.42-.16-.43-.17-.42-.17-.43-.17-.42.71-.29.17.43.18.43.16.42.17.43.16.43.17.42.15.43.16.42.15.43.15.42.15.42.14.43.14.42.14.42.14.42.14.42.13.42.12.42.13.41.12.42.12.42.12.41.11.42.11.41.11.42.1.41.1.41.1.41.1.41.09.41.09.41.08.4-.75.16zm-.72 1.66l.06-.03.05-.02.05-.03.05-.03.05-.03.04-.04.06-.04.03-.03.04-.04.04-.05.03-.04.03-.04.03-.05.03-.05.03-.05.02-.06.02-.05.03-.06.01-.06.02-.06.01-.06.01-.06.01-.06.01-.07v-.27l-.01-.07v-.07l-.02-.07-.01-.07.75-.16.02.1.02.1.01.09.01.1V80.99l-.01.1-.01.09-.02.1-.02.09-.03.09-.02.09-.03.09-.04.09-.04.08-.04.09-.05.08-.04.07-.06.08-.06.08-.06.07-.07.07-.07.07-.07.06-.08.06-.08.05-.09.05-.09.05-.09.04-.1.04-.26-.72zm-2.66 1.79l-.26-.72v-.01l2.92-1.06.26.72-2.92 1.07zm-1.85-1.43l.02.06.02.05.02.06.02.04.03.05.04.05.03.05.03.03.05.05.04.04.05.04.04.04.04.02.06.03.06.03.05.03.05.02.06.02.07.03.06.01.05.01.07.01.07.01h.25l.05-.01.07-.01.07-.02.06-.01.06-.02.26.72-.1.03-.09.03-.1.02-.1.02-.11.02h-.4l-.09-.01-.1-.02-.1-.02-.1-.03-.09-.02-.09-.04-.09-.03-.09-.05-.09-.04-.08-.05-.09-.06-.08-.06-.07-.06-.07-.07-.07-.07-.07-.08-.06-.08-.06-.08-.05-.09-.05-.1-.04-.1-.04-.09-.03-.1h.01l.74-.2zm-4.79-12.55l.22-.51.17.4.17.41.17.4.17.41.17.41.16.4.16.41.16.41.16.4.15.41.16.4.15.41.15.41.15.4.14.41.15.41.14.41.14.4.14.41.14.41.13.41.13.4.13.41.13.42.13.4.12.41.12.41.12.42.12.41.11.41.12.41.11.42-.74.2-.12-.41-.11-.41-.11-.41-.12-.41-.12-.41-.12-.41-.12-.4-.13-.41-.12-.4-.13-.41-.13-.41-.14-.4-.13-.4-.14-.41-.14-.4-.14-.41-.14-.4-.15-.4-.15-.41-.14-.4-.15-.4-.16-.41-.15-.4-.16-.4-.16-.41-.16-.4-.16-.4-.16-.41-.17-.4-.17-.41-.17-.4-.17-.4.22-.52.27.73zm-.49-.21l-.16-.38.38-.14-.22.52z" class="fil1"/></g><g><path fill="#99cfba" d="M225.33 37.61l2.04-18.21c11.88-3.88 37.16-2.94 57.18.87l2.3 35.43c-4.49 6.48-8.53 13.24-13.94 19.12-5.5 6.19-15.67 4.51-17.9-2.13-6.68-13.11-2.64-28.81-30.16-30.81.18-1.48.33-2.9.48-4.27z"/><path id="1" d="M226.98 19.36l.27-.33.5.41-2.04 18.21-.76-.09 2.03-18.2zm0 0l.03-.25.24-.08-.27.33zm57.19.94l.31.35-1.89-.35-1.91-.33-1.94-.31-1.96-.3-1.98-.27-1.99-.26-2-.24-2.01-.22-2.01-.2-2.01-.18-2.01-.16-2-.14-2-.12-1.97-.1-1.96-.08-1.94-.05-1.92-.03-1.89-.01-1.85.01-1.83.04-1.78.07-1.75.08-1.69.11-1.66.14-1.6.16-1.54.19-1.48.21-1.43.24-1.35.26-1.29.29-1.22.32-1.13.35-.24-.74 1.16-.35 1.25-.32 1.31-.3 1.37-.27 1.45-.24 1.5-.22 1.56-.19 1.61-.16 1.67-.14 1.71-.11 1.76-.08 1.79-.07 1.84-.04 1.86-.01 1.9.01 1.92.03 1.96.05 1.96.08 1.99.1 2 .12 2.01.14 2.01.16 2.02.18 2.02.2 2.02.22 2.01.24 1.99.26 1.99.28 1.96.3 1.96.31 1.92.33 1.89.35.32.36-.77.05zm.45-.41l.3.06.02.3-.32-.36zm2.61 35.78l-.07.25-.7-.2-2.29-35.42.77-.05 2.29 35.42zm0 0l.01.14-.08.11.07-.25zm-14.61 18.9l.01-.01.5-.55.49-.56.49-.55.47-.57.48-.57.46-.57.46-.58.46-.58.45-.59.44-.59.44-.59.43-.59.44-.6.42-.6.43-.6.42-.61.42-.6.42-.61.41-.61.41-.61.41-.61.42-.62.41-.61.41-.61.41-.62.41-.61.41-.62.41-.61.41-.61.42-.61.42-.61.42-.61.63.44-.42.6-.41.61-.41.61-.42.61-.41.62-.41.61-.41.61-.41.62-.41.61-.41.61-.42.62-.41.61-.41.61-.42.61-.42.61-.42.61-.42.61-.43.61-.43.6-.43.6-.44.6-.44.6-.45.59-.46.59-.45.59-.47.58-.47.58-.47.57-.49.58-.49.57-.5.56-.51.55h.01l-.58-.51zm0 0l-.01.01.02-.02-.01.01zm-17.27-2.05l.02.05.22.58.27.55.3.52.34.49.38.47.41.43.44.4.47.38.5.34.53.31.55.27.56.25.59.21.61.17.61.14.64.1.64.07.65.04.65-.01.65-.05.66-.08.65-.12.65-.16.64-.2.64-.24.62-.28.61-.32.59-.37.58-.41.56-.45.53-.49.51-.54.58.51-.54.58-.58.52-.6.49-.61.43-.64.39-.65.35-.67.3-.68.26-.68.21-.69.17-.7.14-.7.08-.7.05-.7.01-.69-.04-.69-.07-.67-.11-.67-.15-.64-.19-.64-.23-.61-.26-.59-.3-.57-.33-.54-.37-.52-.41-.48-.44-.45-.48-.42-.51-.37-.54-.34-.57-.29-.61-.24-.63.02.05.69-.35zm0 0l.02.02v.03l-.02-.05zm-30.12-30.59l-.35-.43 2.5.23 2.33.3 2.16.39 2 .45 1.85.52 1.7.59 1.57.66 1.43.72 1.31.77 1.2.83 1.08.88.99.94.89.98.81 1.02.73 1.06.65 1.09.59 1.12.54 1.15.49 1.18.45 1.19.42 1.22.39 1.23.38 1.24.38 1.25.37 1.26.38 1.27.4 1.26.42 1.26.45 1.26.48 1.24.54 1.23.59 1.23-.69.35-.6-1.25-.55-1.27-.49-1.27-.46-1.27-.43-1.27-.4-1.28-.38-1.27-.37-1.26-.37-1.24-.38-1.24-.39-1.22-.42-1.19-.44-1.18-.48-1.14-.52-1.12-.57-1.09-.64-1.06-.69-1.01-.77-.98-.86-.94-.94-.89-1.05-.85-1.14-.8-1.27-.75-1.39-.69-1.52-.64-1.66-.57-1.8-.51-1.96-.45-2.13-.38-2.29-.3-2.48-.22-.35-.43.76.09zm-.41.34l-.4-.03.05-.4.35.43zm.89-4.62l-.01.13-.01.13-.02.12-.01.14-.02.13-.01.12-.01.14-.02.13-.01.13-.02.13-.01.13-.02.14-.01.13-.02.13-.01.13-.01.14-.02.13-.02.14-.01.13-.02.14-.01.13-.02.13-.01.14-.02.14-.01.13-.02.14-.02.14-.01.13-.02.14-.01.14-.02.14-.02.14-.76-.09.02-.14.01-.14.02-.14.01-.14.02-.13.02-.14.01-.14.02-.13.01-.14.02-.13.01-.14.02-.13.02-.14.01-.13.02-.14.01-.13.01-.13.02-.13.02-.14.01-.13.01-.13.02-.13.01-.14.02-.13.01-.12.01-.14.02-.13.01-.13.02-.13.01-.13.01-.12.02-.13v-.01l.76.09zm-.76-.08v-.05.05z" class="fil1"/></g><g><path d="M247.28 71.78c-7.36-5.6-16.37-10.38-26.51-14.59-1.09-.45-2.39-.21-2.92.85l-2.15 4.28c-.53 1.06-.24 2.47.85 2.92 9.78 4.09 18.6 8.42 26.68 13.9.98.66 2.36.19 2.93-.85l1.97-3.59c.57-1.04.09-2.2-.85-2.92z" class="fil2"/><path id="1" d="M220.92 56.84l.95.39.94.4.94.41.92.41.93.4.91.42.91.42.9.42.89.43.89.43.88.43.87.44.86.44.86.44.84.45.84.46.83.46.82.46.82.46.81.47.79.48.79.47.78.49.77.49.77.49.75.5.75.49.73.51.73.51.72.52.71.52.69.52-.46.62-.7-.52-.69-.52-.72-.51-.72-.51-.73-.5-.73-.49-.75-.5-.76-.48-.77-.49-.77-.48-.78-.47-.8-.48-.79-.46-.81-.46-.82-.46-.83-.46-.83-.45-.84-.44-.85-.45-.86-.43-.87-.44-.87-.43-.88-.43-.89-.42-.89-.42-.91-.42-.91-.41-.92-.41-.92-.41-.93-.4-.94-.4-.95-.39.3-.71zm-3.42 1.03l.06-.12.07-.11.08-.11.08-.1.08-.09.09-.09.08-.08.1-.08.1-.07.1-.06.1-.07.11-.05.11-.05.11-.04.12-.04.11-.03.12-.03.12-.02.11-.02.13-.01.11-.01h.25l.12.01.12.01.12.02.12.02.12.03.12.03.12.04.12.04.12.05-.3.71-.09-.04-.09-.03-.09-.03-.09-.02-.09-.02-.09-.02-.1-.01-.09-.01-.09-.01H219.63l-.1.01-.08.01-.09.01-.08.01-.08.02-.09.03-.08.02-.07.03-.08.03-.07.04-.07.04-.07.04-.06.05-.06.05-.06.06-.06.05-.05.07-.05.06-.05.07-.05.07-.04.08-.69-.34zm-1.46 4.63l-.68-.35 2.14-4.28.69.34-2.15 4.29zm.36 3.1l-.12-.06-.12-.06-.11-.07-.11-.07-.09-.08-.1-.09-.09-.09-.08-.1-.07-.09-.08-.1-.06-.12-.06-.1-.05-.11-.04-.12-.04-.11-.04-.13-.03-.11-.02-.12-.02-.13-.01-.13v-.36l.01-.13.02-.12.02-.13.03-.12.03-.12.04-.12.04-.12.05-.13.06-.11.68.35-.04.08-.03.08-.03.09-.03.09-.02.09-.03.09-.01.09-.01.1-.01.08v.28l.01.09.01.08.02.08.02.09.02.08.03.08.03.08.04.08.03.07.05.07.04.06.05.07.06.06.05.06.06.05.06.05.07.05.06.04.08.04.08.04-.3.71zm26.62 13.86l-.76-.51-.76-.5-.77-.5-.77-.49-.77-.48-.78-.48-.79-.47-.78-.47-.8-.46-.8-.45-.8-.45-.81-.45-.81-.44-.82-.44-.82-.43-.83-.43-.83-.42-.84-.42-.84-.42-.85-.41-.86-.41-.85-.41-.86-.4-.87-.4-.88-.4-.88-.39-.88-.4-.89-.39-.9-.39-.9-.38-.91-.39-.91-.38.3-.71.91.38.91.39.91.38.9.4.89.39.89.39.88.4.88.4.87.4.87.4.86.42.85.4.86.42.84.42.85.42.83.43.83.43.83.43.82.44.82.44.81.45.81.46.8.46.8.46.8.47.78.47.79.48.78.49.78.49.77.5.76.51.77.51-.43.64zm3.47-.98l-.06.11-.07.11-.08.1-.08.1-.08.09-.09.1-.1.08-.09.09-.1.07-.11.07-.1.07-.11.06-.11.05-.12.06-.11.04-.12.04-.12.03-.12.03-.12.02-.13.02-.12.01h-.25l-.12-.02-.12-.01-.13-.03-.13-.03-.12-.05-.12-.04-.11-.06-.12-.06-.11-.07.43-.64.07.04.08.04.07.04.08.03.08.03.08.02.07.02.09.01.08.01H244.32l.08-.01.08-.01.08-.01.09-.02.08-.03.09-.03.08-.03.08-.03.08-.04.08-.04.07-.05.07-.05.08-.06.06-.05.07-.06.06-.07.06-.07.06-.07.05-.07.05-.08.05-.08.67.38zm1.3-3.96l.68.37-1.98 3.59-.67-.38 1.97-3.58zm-.28-3.05l.1.08.1.08.09.08.08.09.09.09.08.08.08.1.07.1.07.09.06.1.07.1.05.11.05.1.06.11.04.11.04.11.03.12.03.11.02.11.02.12.01.12.01.12v.12l-.01.12-.01.11-.02.13-.02.12-.04.12-.03.12-.05.11-.05.12-.06.12-.68-.37.04-.08.04-.08.03-.08.03-.08.02-.08.01-.08.02-.08v-.08l.01-.08v-.16l-.01-.08-.02-.08-.01-.08-.02-.08-.03-.08-.02-.08-.03-.08-.04-.07-.04-.09-.04-.07-.05-.08-.05-.07-.05-.08-.05-.07-.06-.07-.07-.07-.06-.07-.07-.06-.07-.07-.08-.06-.07-.06.46-.62z" class="fil1"/></g><g><path d="M265.35 53.3c-3.95 0-7.14 3.34-7.14 7.46s3.19 7.46 7.14 7.46c3.94 0 7.13-3.34 7.13-7.46s-3.19-7.46-7.13-7.46z" class="fil2"/><path id="1" d="M258.59 60.76h-.77l.01-.4.03-.4.05-.39.06-.39.09-.38.1-.37.12-.36.13-.36.15-.35.17-.33.18-.33.19-.32.21-.31.23-.29.23-.29.25-.27.26-.26.27-.25.29-.23.29-.22.31-.21.31-.18.32-.18.34-.15.34-.15.35-.12.36-.11.36-.08.38-.07.38-.05.38-.03.39-.01v.77l-.35.01-.34.02-.34.05-.33.06-.33.08-.32.09-.31.11-.31.13-.3.14-.29.16-.28.17-.27.18-.27.2-.25.21-.25.22-.24.23-.22.25-.21.26-.2.26-.19.28-.18.29-.16.29-.15.31-.14.31-.12.32-.1.33-.1.34-.07.34-.06.35-.04.36-.03.35-.01.37zm6.76 7.07v.77l-.39-.01-.38-.03-.38-.05-.38-.07-.36-.08-.36-.11-.35-.12-.34-.15-.34-.15-.32-.18-.31-.18-.31-.21-.29-.22-.29-.23-.27-.25-.26-.26-.25-.27-.23-.29-.23-.29-.21-.31-.19-.32-.18-.33-.17-.33-.15-.35-.13-.36-.12-.36-.1-.37-.09-.38-.06-.39-.05-.39-.03-.4-.01-.4h.77l.01.37.03.35.04.36.06.35.07.34.1.34.1.33.12.32.14.31.15.31.16.29.18.29.19.28.2.26.21.26.22.25.24.23.25.22.25.21.27.2.27.18.28.17.29.16.3.14.31.13.31.11.32.09.33.08.33.06.34.05.34.02.35.01zm6.75-7.07h.77l-.01.4-.03.4-.05.39-.06.39-.09.38-.1.37-.12.36-.13.36-.15.35-.17.33-.18.33-.19.32-.21.31-.23.29-.23.29-.25.27-.26.26-.28.25-.28.23-.29.22-.31.21-.31.18-.33.18-.33.15-.34.15-.35.12-.36.11-.36.08-.38.07-.38.05-.38.03-.38.01v-.77l.34-.01.34-.02.34-.05.33-.06.33-.08.32-.09.31-.11.31-.13.29-.14.3-.16.28-.17.27-.18.27-.2.25-.21.25-.22.24-.23.22-.25.21-.26.2-.26.19-.28.18-.29.16-.29.15-.31.13-.31.13-.33.1-.32.09-.34.08-.34.06-.35.04-.36.03-.35.01-.37zm-6.75-7.07v-.77l.38.01.38.03.38.05.38.07.36.08.36.11.35.12.34.15.33.15.33.18.31.18.31.21.29.22.28.23.28.25.26.26.25.27.23.29.23.29.21.31.19.32.18.33.17.33.15.35.13.36.12.36.1.37.09.38.06.39.05.39.03.4.01.4h-.77l-.01-.37-.03-.35-.04-.36-.06-.35-.08-.34-.09-.34-.1-.33-.13-.32-.13-.31-.15-.31-.16-.29-.18-.29-.19-.28-.2-.26-.21-.26-.22-.25-.24-.23-.25-.22-.25-.21-.27-.2-.27-.18-.28-.17-.3-.16-.29-.14-.31-.13-.31-.11-.32-.09-.33-.08-.33-.06-.34-.05-.34-.02-.34-.01z" class="fil1"/></g><g><path d="M267.09 28.24c-11.81-3.45-25.28-5.09-39.87-5.5-1.58-.04-3.07.88-3.23 2.44l-.63 6.34c-.15 1.57.87 3.18 2.45 3.23 14.09.42 27.1 1.6 39.75 4.56 1.53.36 3.01-.89 3.23-2.45l.74-5.39c.21-1.56-.93-2.79-2.44-3.23z" class="fil2"/><path id="1" d="M227.23 22.36l1.37.04 1.36.05 1.35.05 1.35.07 1.34.07 1.33.08 1.32.09 1.32.09 1.32.1 1.3.12 1.3.12 1.28.13 1.29.14 1.27.14 1.26.15 1.26.17 1.25.17 1.24.18 1.23.19 1.23.2 1.21.21 1.21.22 1.2.22 1.19.25 1.18.24 1.17.26 1.16.27 1.15.28 1.15.28 1.13.3 1.13.31 1.11.32-.21.74-1.11-.32-1.12-.3-1.12-.3-1.14-.29-1.15-.27-1.15-.27-1.17-.25-1.17-.25-1.18-.24-1.19-.22-1.2-.22-1.21-.21-1.22-.2-1.23-.19-1.23-.18-1.24-.17-1.25-.16-1.26-.16-1.27-.14-1.28-.13-1.28-.13-1.29-.12-1.3-.12-1.31-.1-1.31-.09-1.32-.09-1.33-.08-1.33-.07-1.34-.07-1.35-.05-1.36-.05-1.36-.04.02-.77zm-.02.77zm-3.6 2.02l.02-.17.03-.16.04-.16.05-.16.05-.15.06-.14.08-.14.07-.13.09-.14.09-.12.09-.12.11-.12.11-.1.11-.11.12-.09.12-.09.13-.09.13-.08.13-.08.14-.07.14-.06.15-.06.15-.05.15-.05.15-.04.15-.03.16-.03.16-.02.16-.02.15-.01.17-.01.16.01-.02.77-.14-.01-.12.01-.14.01-.13.01-.12.02-.13.02-.13.03-.12.04-.12.03-.12.04-.11.05-.12.05-.11.05-.1.06-.1.06-.1.07-.1.07-.09.08-.08.07-.08.09-.08.08-.07.09-.07.09-.06.09-.06.11-.05.1-.04.1-.04.11-.04.11-.02.12-.03.12-.01.12-.77-.07zm.14 6.41l-.77-.07.63-6.34.77.07-.63 6.34zm2.05 3.57h-.17l-.17-.03-.17-.03-.15-.04-.15-.05-.16-.06-.15-.07-.14-.07-.13-.08-.13-.1-.12-.09-.12-.11-.11-.11-.11-.11-.1-.12-.1-.13-.08-.13-.09-.13-.08-.15-.07-.14-.06-.14-.06-.15-.05-.15-.04-.16-.04-.16-.03-.16-.03-.15-.02-.17-.01-.16v-.17l.01-.16.01-.16.77.07-.01.13-.01.13v.13l.01.13.02.12.01.13.03.13.03.12.04.12.04.12.04.12.05.11.06.12.05.11.07.1.07.1.07.1.08.09.08.08.08.09.09.08.09.07.09.06.1.06.1.06.1.04.11.04.11.04.11.03.12.02.12.02h.12l-.02.77zm39.67 4.55l-1.18-.27-1.19-.26-1.19-.25-1.19-.24-1.19-.23-1.2-.23-1.19-.21-1.21-.2-1.2-.2-1.21-.18-1.21-.18-1.22-.17-1.22-.16-1.23-.15-1.22-.15-1.23-.14-1.24-.13-1.24-.12-1.25-.12-1.25-.11-1.25-.1-1.26-.09-1.27-.1-1.27-.08-1.27-.08-1.29-.07-1.28-.07-1.3-.06-1.29-.06-1.31-.05-1.31-.04-1.31-.05.02-.77 1.32.05 1.31.04 1.31.05 1.3.06 1.3.06 1.29.07 1.28.07 1.28.08 1.28.08 1.26.1 1.27.09 1.26.11 1.25.1 1.25.12 1.25.12 1.24.14 1.23.13 1.24.15 1.23.16 1.22.16 1.22.17 1.22.17 1.22.19 1.21.2 1.21.2 1.2.22 1.21.22 1.19.23 1.2.25 1.2.25 1.19.26 1.19.27-.18.75zm3.7-2.76l-.03.16-.03.16-.05.16-.04.16-.07.15-.06.15-.07.15-.08.14-.09.14-.09.13-.09.12-.1.13-.11.12-.11.11-.12.11-.13.1-.12.09-.13.09-.14.08-.14.08-.14.06-.15.06-.15.06-.16.04-.15.04-.16.02-.16.02h-.33l-.16-.01-.17-.02-.17-.04.18-.75.12.03.12.01.12.01H266.24l.12-.01.12-.02.11-.03.11-.03.11-.04.11-.04.1-.05.11-.06.1-.06.1-.07.1-.07.09-.08.09-.08.09-.08.09-.1.07-.09.08-.1.07-.1.06-.11.07-.11.05-.11.05-.12.04-.11.04-.13.04-.12.02-.12.02-.13.77.11zm-.02-5.51l.76.11-.74 5.4-.77-.11.75-5.4zm-1.96-3.54l.16.05.15.05.15.06.14.06.15.07.13.07.14.08.13.08.13.08.13.09.12.1.11.09.12.11.11.11.1.11.1.11.09.12.08.13.09.13.07.12.07.14.06.14.05.14.05.15.04.14.04.16.02.15.02.16v.32l-.01.16-.02.17-.76-.1.01-.13.01-.12v-.24l-.02-.12-.01-.11-.03-.11-.03-.11-.03-.11-.04-.11-.05-.1-.05-.1-.06-.1-.06-.1-.06-.09-.08-.09-.07-.09-.08-.09-.08-.08-.09-.08-.1-.08-.09-.08-.1-.07-.11-.07-.11-.07-.11-.06-.12-.06-.11-.05-.12-.06-.13-.05-.13-.04-.12-.04.21-.74z" class="fil1"/></g><path fill="#b2b3b3" d="M34.11 114.92c2.98 4.36 8.92 5.48 13.28 2.5 4.36-2.97 5.48-8.91 2.51-13.27-2.98-4.36-8.92-5.48-13.28-2.51-4.36 2.97-5.48 8.92-2.51 13.28z"/><path d="M36.3 115.22c2.98 4.36 8.92 5.48 13.28 2.51 4.36-2.98 5.48-8.93 2.51-13.28-2.98-4.36-8.92-5.48-13.28-2.51-4.36 2.98-5.48 8.92-2.51 13.28z" class="fil7"/><g><path d="M48.1 111.91l7.68 5.03 3.04-6.79-4-3.51z" class="fil8"/><path id="1" d="M55.99 116.61l.14.49-.56.17-7.69-5.04.43-.65 7.68 5.03zm.14.49l-.18.41-.38-.24.56-.17zm2.33-7.11l.61-.14.1.46-3.04 6.79-.7-.32 3.03-6.79zm.61-.14l.22.19-.12.27-.1-.46zm-4.5-2.92l.01-.59.49.01 4 3.5-.51.59-3.99-3.51zm.01-.59l.26-.2.23.21-.49-.01zm-6.25 5.87l-.45.02-.02-.63 6.72-5.26.48.6-6.73 5.27zm-.45.02l-.45-.29.43-.34.02.63z" class="fil1"/></g><path d="M56.36 120.87c1.97 2.31 4.3 5.33 6.19 6.91 5.07 3.32 10.3 2.44 13.76-1.8 2.3-2.82 3.49-7.97-.55-12.56-.74-.84-5.17-4.44-6.26-5.16-3.15-2.08-7.36-2.18-10.66.08-4.36 2.97-5.46 8.17-2.48 12.53zM105.02 55.89c2.98 4.35 8.92 5.48 13.28 2.5 4.36-2.97 5.48-8.92 2.51-13.28-2.98-4.35-8.92-5.48-13.28-2.5-4.36 2.97-5.48 8.92-2.51 13.28z" class="fil7"/><g><path d="M115.28 49.81l8.31 5.44 3.28-7.34-4.32-3.79z" class="fil8"/><path id="1" d="M123.8 54.92l.14.49-.57.16-8.3-5.43.43-.65 8.3 5.43zm.14.49l-.19.41-.38-.25.57-.16zm2.57-7.66l.61-.14.1.46-3.28 7.34-.71-.32 3.28-7.34zm.61-.14l.22.19-.12.27-.1-.46zm-4.83-3.2l.02-.6.49.02 4.32 3.78-.51.59-4.32-3.79zm.02-.6l.25-.19.24.21-.49-.02zm-6.79 6.31l-.45.02-.02-.63 7.26-5.7.47.61-7.26 5.7zm-.45.02l-.45-.3.43-.33.02.63z" class="fil1"/><path d="M124.21 59.49c2.13 2.5 4.64 5.76 6.69 7.47 5.47 3.59 11.12 2.64 14.87-1.95 2.48-3.04 3.76-8.61-.6-13.56-.8-.91-5.58-4.8-6.77-5.58-3.39-2.24-7.94-2.35-11.51.08-4.71 3.22-5.89 8.83-2.68 13.54z" class="fil7"/><path id="1" d="M130.69 67.28l-.03-.02-.2-.17-.2-.18-.21-.19-.2-.19-.21-.2-.21-.21-.21-.21-.21-.22-.21-.23-.21-.23-.21-.23-.22-.24-.21-.24-.22-.25-.22-.25-.22-.25-.21-.25-.22-.26-.22-.26-.21-.25-.22-.26-.21-.26-.22-.26-.21-.25-.21-.26-.21-.25-.21-.26-.21-.24-.21-.25-.2-.25-.2-.23-.21-.24.59-.5.2.24.2.24.21.24.21.25.21.25.21.25.21.26.21.26.22.25.21.26.21.25.22.26.21.26.22.25.22.26.21.25.21.25.22.25.21.24.22.23.21.24.21.23.21.23.2.22.21.21.2.21.2.2.2.19.2.19.19.18.19.17.19.16-.03-.03-.43.64zm0 0h-.01l-.02-.02.03.02zm15.38-2.03l-.37.43-.38.41-.39.39-.4.37-.41.34-.42.32-.43.3-.44.27-.45.26-.45.23-.47.2-.47.18-.48.16-.49.13-.49.11-.49.08-.51.06-.5.03-.51.01-.52-.01-.52-.05-.52-.07-.52-.09-.53-.12-.52-.15-.53-.17-.53-.2-.53-.22-.53-.25-.52-.28-.53-.3-.53-.34.43-.64.5.31.5.29.5.27.5.23.5.22.49.18.5.16.49.14.49.11.49.09.48.07.49.04.47.01.47-.01.47-.03.47-.05.46-.08.45-.1.45-.12.44-.15.44-.16.43-.19.42-.21.42-.24.41-.26.4-.27.39-.3.38-.33.38-.34.37-.36.35-.39.35-.41.6.49zm-.61-14.06l.4.48.38.49.34.48.3.49.28.49.24.49.22.5.2.49.16.49.13.49.11.49.09.49.06.48.04.48.01.47v.47l-.03.46-.04.46-.07.45-.09.44-.09.43-.13.42-.13.42-.15.4-.16.4-.17.38-.19.37-.2.36-.21.35-.23.33-.22.32-.24.3-.6-.49.22-.28.21-.29.2-.31.2-.32.18-.33.18-.35.17-.35.14-.37.14-.37.13-.39.11-.39.09-.4.08-.41.06-.42.04-.42.03-.43v-.43l-.01-.44-.03-.44-.06-.45-.08-.45-.1-.45-.13-.45-.15-.46-.18-.46-.2-.45-.23-.46-.26-.47-.29-.45-.32-.46-.35-.45-.38-.46.58-.51zm-6.84-5.65v.01l.13.09.14.1.16.11.18.14.19.14.21.16.22.17.24.18.24.19.24.19.26.21.27.21.26.21.28.22.26.22.28.22.26.22.27.23.27.21.26.22.25.21.25.21.23.21.23.19.21.19.2.17.18.17.17.15.15.15.14.13.11.12.1.1-.58.51-.08-.08-.09-.11-.13-.12-.14-.13-.17-.15-.18-.16-.19-.17-.21-.19-.22-.19-.23-.2-.25-.21-.25-.21-.25-.21-.27-.22-.26-.22-.27-.22-.28-.22-.26-.22-.27-.22-.27-.21-.26-.21-.25-.2-.25-.2-.24-.19-.23-.17-.21-.17-.21-.15-.19-.15-.17-.12-.16-.11-.14-.1-.11-.08.43-.65zm-11.95.1l.35-.23.36-.22.36-.2.36-.18.37-.17.37-.15.38-.14.38-.12.39-.11.38-.09.39-.08.39-.07.39-.04.39-.04.39-.02.39-.01.39.01.39.02.39.04.39.04.38.07.38.08.38.09.37.1.37.12.37.13.37.15.35.16.35.17.35.19.34.19.34.21-.43.65-.31-.2-.31-.18-.33-.17-.32-.16-.34-.15-.33-.14-.34-.12-.35-.11-.34-.09-.36-.09-.35-.07-.36-.06-.36-.05-.36-.03-.36-.02-.36-.01-.36.01-.37.02-.36.03-.36.05-.36.06-.36.07-.36.09-.35.1-.36.11-.35.13-.34.14-.35.16-.34.17-.33.18-.33.2-.32.21-.44-.63zm-2.76 14.1l-.02-.03-.3-.46-.27-.46-.24-.48-.23-.47-.19-.47-.17-.48-.14-.49-.12-.48-.09-.48-.07-.49-.04-.48-.01-.48.01-.48.03-.48.06-.47.08-.47.11-.47.12-.46.16-.46.18-.44.2-.45.23-.43.24-.42.27-.42.3-.4.31-.39.34-.39.36-.37.38-.36.4-.35.43-.33.44-.31.44.63-.42.3-.4.31-.37.32-.36.34-.34.34-.31.36-.29.37-.27.37-.25.38-.23.39-.21.4-.18.41-.17.41-.14.42-.12.42-.1.43-.07.43-.05.44-.03.43-.01.44.01.45.04.44.06.44.09.45.1.44.14.45.15.44.18.44.2.45.23.43.26.43.28.43-.03-.03-.59.5zm0 0l-.01-.01-.01-.02.02.03z" class="fil1"/><g><path d="M129.14 64.13c3.1 4.55 9.32 5.73 13.87 2.62 4.56-3.11 5.73-9.32 2.62-13.88-3.11-4.55-9.32-5.73-13.87-2.62-4.56 3.11-5.73 9.32-2.62 13.88z" class="fil9"/><path id="1" d="M142.79 66.43l.44.63-.45.29-.46.27-.46.24-.47.21-.48.19-.49.16-.49.14-.5.11-.49.09-.5.06-.5.04-.5.01-.5-.01-.5-.03-.49-.06-.49-.08-.48-.1-.49-.13-.47-.15-.47-.17-.46-.2-.45-.22-.44-.24-.43-.26-.42-.28-.41-.31-.39-.33-.38-.35-.36-.37-.35-.39-.33-.41-.31-.43.63-.44.3.4.3.39.32.36.34.34.35.32.36.31.38.28.39.26.39.25.41.22.42.2.42.18.44.16.44.14.44.12.46.09.45.08.45.05.46.03.47.01.46-.01.46-.04.47-.06.45-.08.46-.1.45-.13.45-.15.45-.17.43-.2.44-.22.42-.24.41-.27zm2.53-13.34l.63-.44.29.45.27.46.23.47.21.47.19.48.16.48.14.49.11.5.09.49.07.5.03.5.02.5-.01.5-.04.5-.05.49-.08.49-.11.49-.13.48-.14.48-.18.46-.19.46-.22.46-.24.44-.27.43-.28.41-.3.41-.33.4-.35.37-.37.37-.39.34-.42.33-.43.31-.44-.63.41-.29.38-.31.36-.32.34-.33.33-.35.3-.37.28-.37.27-.39.24-.4.22-.41.21-.41.18-.43.15-.43.14-.44.12-.45.1-.45.07-.45.05-.46.04-.46.01-.47-.02-.46-.03-.46-.06-.46-.08-.46-.11-.46-.12-.45-.15-.45-.18-.45-.19-.43-.22-.43-.25-.43-.26-.41zm-13.35-2.52l-.43-.64.44-.29.46-.26.47-.24.47-.21.48-.19.49-.16.49-.14.49-.11.5-.09.5-.06.49-.04.51-.01.5.01.49.03.5.06.49.08.48.1.49.13.47.15.47.17.46.2.45.22.44.24.43.26.42.28.41.31.39.33.38.35.36.37.35.39.33.41.31.43-.63.44-.29-.4-.31-.39-.32-.36-.34-.34-.35-.32-.36-.31-.38-.28-.39-.26-.4-.25-.4-.22-.42-.2-.43-.18-.43-.16-.44-.14-.44-.12-.46-.09-.45-.08-.46-.05-.46-.03-.46-.01-.46.01-.46.04-.47.06-.46.08-.45.1-.46.13-.44.15-.45.17-.44.2-.43.22-.42.24-.42.27zm-2.52 13.34l-.63.44-.29-.45-.26-.46-.24-.47-.22-.47-.19-.48-.16-.49-.13-.48-.11-.5-.09-.49-.07-.51-.03-.49-.02-.5.01-.5.03-.5.06-.49.08-.49.11-.49.12-.48.15-.48.18-.46.19-.46.22-.46.24-.44.26-.43.29-.42.3-.4.33-.4.35-.38.37-.36.39-.35.41-.33.44-.31.43.64-.4.29-.38.31-.36.32-.34.33-.33.35-.3.36-.28.38-.27.39-.24.4-.23.41-.2.41-.18.43-.16.43-.13.44-.13.45-.09.45-.07.45-.06.46-.03.46-.01.46.02.47.03.46.06.46.08.46.1.46.13.45.15.45.17.44.2.44.22.43.25.43.26.41z" class="fil1"/></g><g><path d="M134.69 60.37c1.15 1.68 3.44 2.12 5.12.97 1.68-1.15 2.12-3.44.97-5.12-1.15-1.69-3.44-2.12-5.12-.97-1.69 1.15-2.12 3.44-.97 5.12z" class="fil7"/><path id="1" d="M139.59 61.02l.44.64-.18.11-.18.11-.18.09-.18.08-.19.07-.19.07-.2.06-.19.04-.2.03-.19.03-.2.01-.19.01-.2-.01-.19-.01-.2-.02-.19-.03-.19-.05-.19-.04-.19-.06-.18-.07-.18-.08-.18-.09-.17-.09-.17-.1-.17-.11-.16-.12-.15-.13-.15-.14-.14-.15-.14-.15-.13-.16-.12-.17.64-.44.09.14.11.13.11.13.12.12.12.11.12.1.13.1.13.09.14.08.14.08.15.07.14.06.15.06.15.04.15.05.16.03.16.02.16.02.16.01.15.01.16-.01.16-.01.16-.02.16-.03.16-.03.15-.05.15-.05.15-.06.16-.07.15-.07.14-.08.14-.1zm.87-4.59l.64-.43.11.18.1.18.1.18.08.18.07.19.07.19.05.2.05.19.03.19.03.2.01.19v.4l-.01.19-.02.2-.04.19-.04.19-.04.19-.07.19-.06.18-.08.18-.09.18-.09.17-.1.17-.11.17-.13.15-.12.16-.14.15-.15.14-.15.14-.16.13-.17.12-.44-.64.14-.1.13-.1.13-.11.12-.12.11-.12.1-.12.1-.13.09-.14.08-.13.08-.15.07-.14.06-.14.06-.15.04-.15.04-.16.04-.15.02-.16.02-.16.01-.16.01-.15-.01-.16-.01-.16-.02-.16-.03-.16-.03-.16-.05-.15-.05-.15-.06-.16-.07-.15-.07-.15-.09-.15-.09-.14zm-4.59-.86l-.43-.64.18-.11.17-.11.19-.09.18-.08.19-.08.19-.06.2-.05.19-.05.2-.04.19-.02.2-.01.19-.01h.2l.19.02.2.02.19.03.19.04.19.05.18.06.19.07.18.08.18.08.17.1.17.1.16.11.16.12.16.13.15.14.14.14.13.15.14.17.12.17-.64.43-.1-.13-.1-.14-.11-.12-.12-.12-.12-.11-.13-.11-.12-.09-.14-.09-.13-.08-.15-.08-.14-.07-.14-.06-.15-.06-.15-.04-.16-.05-.16-.03-.15-.03-.16-.01-.16-.02h-.15l-.16.01-.16.01-.16.02-.16.03-.16.03-.15.05-.16.05-.15.06-.15.06-.14.08-.16.09-.14.09zm-.86 4.58l-.64.44-.11-.18-.11-.18-.09-.18-.09-.18-.07-.19-.06-.19-.06-.2-.04-.19-.03-.2-.03-.19-.01-.2-.01-.19.01-.19.01-.2.02-.2.03-.19.04-.19.05-.19.06-.19.07-.18.08-.18.08-.18.1-.17.1-.17.11-.17.12-.15.13-.16.14-.15.14-.14.16-.14.16-.13.17-.12.43.64-.13.1-.14.1-.12.11-.12.12-.11.12-.1.13-.1.12-.09.14-.09.14-.07.13-.07.15-.06.14-.06.15-.05.16-.04.15-.03.15-.03.16-.01.16-.02.15v.16l.01.16.01.16.02.16.03.16.03.16.04.15.06.15.06.16.07.15.07.15.08.14.1.14z" class="fil1"/></g></g><g><path fill="#96c11a" d="M25.42 91.52l1.08-1.11c.93.75 2.49-.09 1.49-1.12-.07-.07-.15-.12-.24-.17l76.17-78.6c14.66-21.07 42.33-6.29 28.7 24.11-22.6 25.33-43.98 48.54-69.32 70.86-27.21 19.96-58.7 13.8-62.85.79-.76-2.41 4.99-3.9 12.35-7.24.19-.09.37-.17.55-.25.19.19.44.37.75.49 1.06.43 2.46-.84 1.82-1.74.36-.17.38-.19.74-.38 2.9-1.51 5.9-3.34 8.76-5.64zm91.84-65.13c.64.31 1.35-.41.8-.98-.29-.3-.91-.26-1.24-.07-.34.2-.12.77.44 1.05zm-10.14-6.62c.64.31 1.36-.41.81-.97-.29-.3-.92-.27-1.25-.08-.33.2-.12.78.44 1.05zm-6.55 5.21c.81.4 1.72-.51 1.02-1.24-.37-.38-1.16-.34-1.58-.09-.43.25-.16.98.56 1.33zm11.03 7.03c.81.39 1.72-.52 1.02-1.25-.37-.38-1.16-.33-1.58-.08-.43.24-.16.98.56 1.33zm-73.61 67.2c.81.39 1.73-.52 1.02-1.24-.36-.39-1.16-.34-1.58-.09-.42.24-.15.98.56 1.33zm-11.68 10.05c1.21.49 2.44-.93 1.35-1.9-.57-.52-1.72-.38-2.3.02-.59.4-.13 1.44.95 1.88z"/><path id="1" d="M26.22 90.14l.52-.03.04.57-1.08 1.11-.55-.53 1.07-1.12zm0 0l.25-.25.27.22-.52.03zm2.05-1.11v-.01l.1.12.1.12.07.13.06.12.06.14.02.13.02.13-.01.13-.02.13-.03.12-.05.12-.07.1-.07.1-.09.09-.08.07-.1.07-.1.06-.11.06-.12.04-.11.03-.12.03-.12.02h-.25l-.12-.01-.13-.01-.13-.04-.13-.03-.13-.06-.12-.06-.12-.07-.11-.09.48-.6.06.05.07.04.07.03.06.03.07.02.07.02.07.01H27.42l.06-.01.07-.02.06-.01.06-.02.04-.02.05-.03.04-.03.03-.04.03-.02.02-.03.02-.02.01-.03.01-.03v-.03l.01-.03-.01-.04-.01-.04-.01-.04-.03-.06-.04-.06-.05-.06-.07-.08.56-.53zm-.24.36l-.13-.62.03.01.01.01-.02-.01.01.01.03.01.05.03-.03-.02h.01l.05.03v.01l-.03-.02h.01l.05.03.01.01.03.02.01.01-.02-.02.01.01.04.03-.01-.01.03.02.04.04.01.01-.03-.03.01.01.04.03V89l.01.01h.01l.01.02-.56.53v-.01l-.01-.01h-.01l.03.02h-.01l-.04-.04v-.01l.02.03.02.01-.03-.02-.01-.01.02.01h-.01l-.01-.01-.03-.02-.01-.01.02.02-.01-.01.04.02h-.01l-.05-.03-.01-.01.03.02-.05-.03.03.02.01.01-.01-.01-.03-.01-.01-.01.01.01-.12-.62.56.53zm-.44.09l-.5-.23.38-.39.12.62zm76.06-79.23l.59.49-.04.04-76.17 78.61-.56-.53 76.18-78.61zm.59.49l-.02.02-.02.02.04-.04zm28.09 23.63l-.06.1 1.15-2.79.92-2.68.69-2.58.49-2.48.29-2.37.09-2.26-.08-2.14-.25-2.03-.41-1.9-.57-1.78-.7-1.66-.82-1.51-.95-1.39-1.06-1.24-1.15-1.1-1.25-.97-1.33-.81-1.39-.67-1.46-.5-1.51-.36-1.55-.19-1.59-.02-1.61.14-1.62.32-1.63.49-1.62.67-1.62.86-1.58 1.05-1.55 1.24-1.51 1.44-1.46 1.64-1.39 1.85-.63-.45 1.42-1.89 1.5-1.68 1.56-1.49 1.61-1.29 1.64-1.08 1.68-.89 1.69-.71 1.7-.51 1.7-.33 1.69-.15 1.67.02 1.63.21 1.59.36 1.54.54 1.47.7 1.4.86 1.31 1.01 1.21 1.16 1.11 1.31.99 1.45.87 1.58.72 1.72.59 1.85.43 1.97.26 2.09.08 2.21-.09 2.32-.3 2.43-.49 2.53-.71 2.64-.94 2.73-1.17 2.82-.06.1-.58-.51zm.64.41l-.02.05-.04.05.06-.1zm-69.9 70.4l-.03.03 2.37-2.1 2.34-2.1 2.32-2.1 2.3-2.11 2.27-2.12 2.27-2.12 2.24-2.14 2.23-2.13 2.21-2.15 2.2-2.15 2.18-2.16 2.17-2.16 2.16-2.18 2.14-2.18 2.14-2.19 2.13-2.2 2.12-2.21 2.12-2.22 2.11-2.22 2.09-2.24 2.11-2.25 2.09-2.25 2.1-2.27 2.08-2.27 2.1-2.29 2.09-2.3 2.09-2.31 2.1-2.32 2.1-2.33 2.1-2.35 2.11-2.35 2.11-2.37.58.51-2.12 2.37-2.1 2.36-2.11 2.35-2.1 2.33-2.1 2.32-2.09 2.31-2.09 2.3-2.1 2.29-2.09 2.27-2.09 2.27-2.1 2.26-2.1 2.25-2.1 2.24-2.11 2.23-2.12 2.22-2.12 2.21-2.14 2.2-2.14 2.19-2.14 2.19-2.17 2.17-2.17 2.17-2.19 2.16-2.19 2.16-2.22 2.14-2.23 2.14-2.25 2.13-2.26 2.13-2.28 2.12-2.3 2.12-2.33 2.1-2.34 2.11-2.36 2.09-.03.03-.46-.63zm.49.6l-.03.03.03-.03zm-62.74.38l.45 1.16.6 1.11.75 1.08.89 1.02 1.02.98 1.16.93 1.28.86 1.41.81 1.52.74 1.62.67 1.73.59 1.83.52 1.92.44 2 .35 2.09.27 2.16.17 2.23.08 2.28-.02 2.35-.13 2.4-.23 2.44-.34 2.47-.46 2.52-.57 2.53-.69 2.56-.83 2.58-.94 2.59-1.07 2.59-1.21 2.59-1.35 2.58-1.49 2.56-1.64 2.55-1.79.46.63-2.58 1.8-2.6 1.65-2.6 1.51-2.62 1.36-2.62 1.23-2.62 1.09-2.6.96-2.59.82-2.57.71-2.55.58-2.51.46-2.47.34-2.43.24-2.38.13-2.32.02-2.26-.08-2.2-.17-2.12-.27-2.04-.36-1.96-.45-1.87-.53-1.77-.61-1.67-.69-1.56-.76-1.46-.83-1.33-.9-1.2-.97-1.08-1.02-.94-1.09-.8-1.14-.64-1.2-.48-1.24.73-.24zm12.15-6.77h-.01l-.69.31-.67.29-.67.3-.65.28-.64.26-.63.27-.61.25-.59.25-.58.24-.56.23-.54.23-.52.22-.5.21-.48.22-.45.2-.43.21-.41.2-.38.19-.35.2-.33.19-.29.19-.27.19-.23.18-.2.18-.17.18-.13.17-.1.16-.07.16-.04.14-.01.15.01.16.04.16-.73.24-.07-.28-.02-.29.02-.27.08-.27.11-.26.15-.25.18-.23.21-.22.25-.22.26-.21.3-.21.32-.21.35-.2.37-.2.39-.21.42-.21.44-.21.47-.21.48-.21.51-.22.52-.22.54-.23.56-.24.58-.23.6-.25.61-.26.62-.26.64-.27.65-.27.66-.29.67-.3.69-.3h-.01l.33.7zm.1-.34l.44.09h-.01l-.02.01-.01.01-.02.01-.05.02h-.01l-.03.02h-.02l-.01.01-.02.01-.02.01-.02.01-.04.02h-.01l-.02.01-.03.01-.02.01-.03.02h-.02v.01l-.06.02-.01.01.01-.01-.01.01-.03.01-.02.01-.01.01-.33-.7.02-.01.02-.01.02-.01.05-.02.02-.01-.02.01.03-.01.02-.01v-.01l.03-.01.02-.01.03-.01.02-.01.03-.01.03-.02-.01.01.02-.01.02-.01.03-.02h.02v-.01l.03-.01.04-.02h.02-.01.01l.02-.02h.02l.02-.01.44.08-.56.53zm.12-.61l.25-.12.19.2-.44-.08zm.77 1.2l-.04-.01-.03-.01-.03-.02-.04-.02-.03-.01-.03-.02-.02-.01-.03-.01-.05-.03-.02-.01-.03-.02-.03-.02-.03-.01-.03-.03h-.02l-.02-.02-.05-.03-.02-.01-.03-.03-.03-.02-.01-.01-.02-.02-.04-.02-.02-.02-.03-.03-.03-.02-.01-.01-.03-.03-.02-.02-.03-.02-.02-.03-.02-.02.56-.53.02.02.01.01.01.01.02.02.01.01.02.02.02.01.01.01.02.02h.01l.02.02.03.03.02.01.01.01.02.01v.01l.03.01.03.02.02.01.02.01.02.02.02.01.03.02.03.01.03.01.02.02.03.01h.01l.03.02.02.01.03.01-.29.71zm2.14-1.75l.14-.57.07.12.07.13.04.13.03.13.02.13v.13l-.01.13-.03.13-.03.11-.05.13-.06.11-.06.1-.07.11-.08.1-.08.09-.09.09-.09.08-.1.08-.11.08-.11.06-.11.06-.12.06-.12.05-.13.03-.12.03-.14.02-.13.01-.13.01-.14-.02-.14-.02-.13-.03-.13-.05.29-.71.06.02.07.02.07.01.07.01.07-.01h.08l.07-.02.08-.01.08-.03.07-.02.08-.04.07-.04.07-.04.07-.04.06-.05.06-.06.06-.06.05-.06.05-.05.04-.06.03-.07.03-.05.02-.06.02-.06.01-.05.01-.05v-.05l-.01-.05-.01-.05-.02-.05-.02-.04-.03-.05.14-.57.35.69zm-.49-.12l-.26-.37.4-.2-.14.57zm1.23-.26l-.04.01-.02.02-.03.01-.02.02-.03.01-.03.01-.02.02-.04.02h-.01l-.01.01-.03.01-.04.03h-.01l-.02.01-.05.02h.02l-.02.01-.03.01-.02.01-.02.01h-.01l-.03.02-.02.01-.03.02h-.02v.01l-.04.02-.04.01-.02.02-.03.01-.03.02-.35-.69.03-.02.04-.01.03-.02.02-.01.01-.01.04-.02.03-.01.02-.01.02-.01H16l.03-.02.02-.01.02-.01.02-.01.05-.03-.01.01.01-.01.03-.01.03-.02.02-.01.02-.01.04-.02.01-.01.02-.01.02-.01.03-.01.03-.02.03-.02.04-.01.03-.02.35.69zm8.86-5.72l-.03.04-.28.21-.27.21-.27.21-.27.21-.28.21-.27.2-.27.2-.28.2-.27.19-.28.19-.28.19-.27.19-.28.19-.28.18-.28.18-.28.17-.27.18-.28.17-.28.17-.28.17-.27.17-.28.16-.28.16-.28.16-.27.16-.28.16-.27.15-.28.15-.28.15-.27.15-.27.14-.28.15-.35-.69.26-.14.28-.14.27-.15.27-.15.27-.14.27-.16.28-.15.27-.16.27-.16.28-.15.27-.17.27-.16.28-.16.27-.17.28-.17.27-.18.27-.17.28-.18.27-.18.27-.18.28-.18.27-.19.27-.19.27-.19.27-.2.27-.19.27-.2.27-.2.27-.21.27-.2.27-.21.26-.22-.03.04.55.53zm0 0l-.02.02-.01.02.03-.04zm92.64-66.64v-.01l.07.08.06.08.05.09.05.09.03.09.02.09.02.1v.18l-.02.09-.02.09-.02.07-.04.09-.04.07-.06.08-.05.06-.05.06-.06.05-.07.06-.08.04-.07.04-.08.03-.08.03-.09.03-.08.01-.1.01h-.09l-.09-.01-.09-.01-.09-.02-.09-.03-.09-.04.34-.7.02.02h.04l.03.01.02.01h.08l.03-.01h.02l.02-.01.03-.01.03-.02.01-.01.02-.01.02-.02.02-.02.02-.02v-.01l.02-.02v-.01l.01-.02V25.82l-.01-.02v-.02l-.01-.02-.01-.02-.03-.03-.02-.03.55-.53zm-1.72-.14l.05-.03.04-.02.06-.03.05-.02.04-.01.06-.02.05-.01.05-.02.06-.01.04-.01.06-.01.06-.01h.1l.06-.01h.07l.05.01h.06l.05.01.06.01.06.01.06.01.05.01.06.02.06.03.04.02.07.03.05.03.05.03.05.04.05.04.05.05-.55.53-.01-.01-.01-.01h-.01l-.02-.02-.02-.01h-.01l-.03-.01-.02-.01h-.01l-.03-.01-.03-.01h-.03l-.02-.01h-.07l-.03-.01h-.02l-.03.01h-.08l-.01.01h-.04l-.04.01h-.02l-.03.01-.03.01-.02.01-.04.01-.02.01h-.01l-.02.01-.02.01-.39-.66zm.47 1.73l-.07-.04-.07-.04-.05-.03-.06-.04-.06-.05-.05-.04-.05-.05-.05-.05-.04-.04-.05-.05-.04-.06-.04-.05-.03-.05-.03-.05-.03-.07-.03-.05-.02-.06-.01-.05-.02-.07-.01-.07-.01-.06v-.07l.01-.07.01-.06.02-.07.02-.06.03-.07.04-.06.05-.06.05-.06.06-.05.06-.03.39.66h.01v-.01l.01-.01.01-.02v.01l.01.02v.02l.01.02.01.01v.01l.02.02.02.04.02.02.01.02.01.02.03.03.02.02.03.03.03.02.02.02.04.02.04.03.03.02.04.01-.34.7zm-8.89-8.21l.07.08.07.08.05.09.04.08.03.09.03.09.01.09.01.1v.1l-.02.09-.02.08-.03.09-.04.08-.04.07-.05.07-.05.06-.06.06-.07.06-.06.05-.07.04-.08.04-.08.04-.08.03-.09.02-.08.01-.08.01h-.19l-.1-.02-.08-.02-.1-.03-.09-.04.34-.69.03.01.03.01.03.01h.1l.03-.01h.03l.02-.01.03-.01.02-.01.02-.02.02-.01.02-.02.01-.01.01-.02.02-.02.01-.01.01-.02v-.01l.01-.02v-.03l-.01-.02v-.03l-.01-.01-.01-.03-.01-.02-.02-.02-.03-.03v-.01l.55-.53zm-1.72-.14h.01l.04-.02.05-.03.06-.02.05-.02.04-.02.05-.02.05-.01.06-.02.05-.01h.05l.05-.02h.07l.05-.01h.28l.06.01.05.01.07.01.05.01.05.02.06.02.06.02.05.02.06.03.05.03.05.03.05.04.06.04.04.05-.55.53h-.01l-.01-.01v-.01l-.03-.01-.01-.01-.01-.01-.03-.01-.02-.01h-.01l-.04-.01-.03-.01h-.05l-.03-.01h-.16l-.03.01h-.05l-.04.01-.03.01h-.03l-.02.01-.02.01-.04.01-.02.01-.02.01h-.01l-.03.02h.01l-.4-.67zm.47 1.73l-.06-.04-.07-.03-.06-.04-.05-.03-.07-.05-.05-.05-.05-.04-.05-.05-.04-.05-.05-.05-.04-.06-.03-.04-.03-.05-.03-.05-.04-.07-.02-.06-.02-.06-.02-.05-.02-.06-.01-.08v-.19l.01-.07.02-.06.02-.07.04-.07.04-.06.04-.06.06-.05.06-.05.05-.04.4.67h-.01l.01-.01.01-.01.01-.01.01-.02v.03l.01.02v.02l.01.02.02.03.02.03.02.03.01.02.02.01.03.03.02.02.03.03.03.02.02.02.03.02.04.03.04.02.03.02-.34.69zm-5.08 3.35l.08.09.08.1.06.1.05.11.04.11.02.1.02.1.01.12-.01.1-.01.1-.03.11-.04.1-.03.08-.05.09-.07.09-.06.07-.06.07-.08.07-.08.06-.08.05-.09.05-.09.04-.1.03-.1.02-.1.02-.1.01h-.22l-.11-.02-.11-.03-.1-.03-.11-.05.34-.69.05.01.04.02.05.01.04.01h.13l.04-.01.04-.01.03-.01.04-.02.04-.02.04-.02.03-.02.02-.03.03-.02.03-.03.01-.03.02-.02.01-.04.02-.03v-.05l.01-.03v-.03l-.01-.03-.01-.04-.01-.03-.02-.03-.02-.05-.03-.04-.04-.04.55-.54zm0 0zm-2.06-.15l.06-.03.05-.03.06-.03.07-.02.06-.02.05-.02.07-.03.06-.01.07-.01.06-.01.06-.02h.08l.06-.01h.07l.07-.01h.07l.06.01h.08l.07.01.06.01.07.01.07.02.07.01.07.03.06.02.07.03.06.03.06.04.07.04.05.04.06.05.06.05-.55.54-.02-.01-.02-.02-.02-.02-.02-.01-.03-.01-.03-.02-.02-.01-.04-.01-.03-.01-.04-.01-.03-.01-.04-.01h-.05l-.04-.01h-.03l-.05-.01h-.04l-.04.01h-.05l-.04.01h-.04l-.05.01h-.04l-.04.01-.04.01-.03.01-.05.02-.03.01-.03.01-.03.01-.04.02-.02.01-.39-.66zm.59 2.01l-.08-.04-.07-.04-.08-.05-.07-.05-.07-.05-.07-.06-.05-.05-.06-.06-.06-.06-.06-.07-.04-.05-.04-.06-.05-.07-.04-.07-.03-.06-.02-.06-.03-.08-.03-.07-.01-.07-.01-.07-.01-.07v-.08l.01-.08.01-.07.02-.08.02-.07.04-.08.05-.07.05-.07.05-.05.07-.06.07-.04.39.66v.01h-.01v.07l.01.03.01.02.01.02.01.03.02.03.01.04.02.02.03.04.03.04.02.03.03.03.04.03.04.04.03.03.05.03.04.03.05.03.05.03.05.03-.34.69zm12.5 5.17l.08.09.08.1.05.09.06.11.04.1.03.11.01.11.01.11-.01.1-.01.11-.03.1-.03.09-.04.1-.06.09-.05.08-.07.08-.07.06-.07.07-.08.06-.07.05-.1.05-.09.04-.1.03-.1.03-.1.02-.1.01h-.11l-.1-.01-.11-.01-.12-.03-.11-.04-.1-.05.34-.69.04.02.05.02.04.01h.05l.05.01h.04l.04-.01h.04l.04-.01.04-.02.03-.01.04-.02.04-.03.02-.02.04-.03.03-.02.01-.03.02-.03.02-.03.01-.02.01-.03.01-.03v-.03l.01-.03-.01-.03v-.03l-.01-.03-.01-.03-.02-.04-.03-.04-.02-.04-.05-.05.56-.53zm-.56.53l.46.48-.46-.48zm-1.5-.69l.06-.03.05-.02.06-.03.07-.03.06-.02.05-.02.06-.02.08-.02.06-.01.06-.01.07-.01.07-.01h.06l.07-.01H111.93l.07.01h.06l.08.01.06.02.06.01.07.02.07.02.07.02.07.03.06.04.06.03.06.04.07.05.06.05.05.05-.56.53-.01-.02-.02-.01-.02-.01-.02-.02-.03-.01-.03-.02-.02-.01-.04-.01-.03-.01-.03-.01-.04-.01-.05-.01h-.08l-.03-.01h-.13l-.04.01h-.1l-.03.01-.05.01-.04.01-.03.01-.04.01-.05.01-.03.01-.03.01-.03.02-.03.02-.03.01-.39-.67zm.59 2.01l-.08-.04-.08-.04-.07-.05-.07-.05-.07-.05-.06-.05-.07-.06-.06-.05-.05-.06-.05-.06-.05-.07-.04-.06-.05-.07-.03-.06-.04-.06-.02-.07-.03-.07-.02-.07-.02-.07-.01-.08-.01-.07v-.07l.01-.09.01-.08.02-.06.03-.08.03-.07.05-.08.05-.06.06-.06.06-.05.07-.05.39.67-.01.01v-.01h.01l-.01.02v-.01.05l.01.01v.03l.01.02.01.02.01.04.02.03.02.03.02.04.02.03.03.03.03.04.03.03.03.03.03.03.04.04.05.03.04.03.05.02.05.03.05.03-.34.69zM39.29 97.7l.08.09.08.1.06.09.05.11.04.1.03.11.02.12V98.63l-.02.1-.03.1-.03.09-.04.1-.05.09-.06.08-.07.08-.06.07-.07.06-.08.06-.08.05-.09.05-.1.04-.1.03-.1.03-.1.02-.1.01h-.11l-.1-.01-.11-.01-.12-.03-.1-.04-.11-.04.34-.7.05.02.05.02.03.01.05.01h.09l.04-.01h.04l.04-.01.04-.02.04-.01.03-.02.04-.03.03-.02.03-.02.03-.03.01-.03.03-.03.01-.02.02-.03.01-.03v-.03l.01-.03v-.06l-.01-.03v-.03l-.02-.03-.02-.04-.02-.04-.03-.04-.04-.04v-.01l.55-.53zm-.55.54v-.01l.46.48-.46-.47zm-1.5-.7l.05-.03.05-.02.06-.03.07-.03.06-.02.05-.01.06-.03.08-.01.06-.02.06-.01.08-.01.06-.01h.06l.07-.01H38.32l.07.01h.06l.08.02.06.01.07.01.07.02.06.02.07.02.07.03.06.04.06.03.07.04.06.05.06.05.05.05-.55.53-.02-.02-.02-.01-.01-.01-.02-.01-.04-.02-.03-.02h-.02l-.03-.02-.04-.01-.03-.01-.04-.01-.04-.01h-.09l-.03-.01h-.13l-.04.01h-.1l-.03.01-.05.01-.04.01-.03.01-.04.01-.05.01-.03.01-.03.02-.03.01-.03.02-.03.01-.38-.67zm.58 2.02l-.08-.05-.07-.04-.08-.05-.07-.04-.07-.06-.06-.05-.07-.06-.05-.05-.06-.06-.05-.06-.05-.06-.04-.07-.04-.06-.04-.07-.03-.06-.03-.07-.03-.07-.02-.07-.02-.07-.01-.08v-.07l-.01-.07.01-.09.01-.08.02-.06.03-.08.04-.07.04-.08.05-.06.06-.06.06-.05.08-.05.38.67v.01-.01.02h-.01v-.01l.01.03v.04l.01.02v.02l.01.03.02.03.01.03.02.03.02.04.02.03.03.03.03.04.03.03.03.03.03.03.05.04.04.03.05.03.04.03.05.03.05.02-.34.7zm-9.9 7.51l.12.11.1.13.09.12.08.13.06.13.05.14.03.14.02.14v.13l-.01.14-.03.13-.03.12-.05.13-.05.11-.07.12-.08.11-.08.09-.09.1-.11.08-.09.08-.12.07-.12.06-.12.05-.13.05-.13.03-.14.02-.14.01h-.14l-.14-.01-.15-.02-.14-.04-.15-.05.29-.72.08.03.09.02.08.02h.23l.07-.02.08-.01.07-.03.07-.03.06-.03.06-.04.06-.04.06-.05.04-.04.05-.06.03-.05.03-.06.04-.06.02-.05.01-.06.01-.06.01-.06v-.06l-.01-.06-.01-.06-.03-.06-.03-.06-.03-.07-.05-.07-.06-.07-.08-.07.52-.57zm-2.78 0l.07-.05.07-.05.08-.04.08-.03.08-.04.08-.03.08-.03.09-.03.09-.03.08-.02.09-.02.1-.02.09-.01.09-.01.09-.01.09-.01h.28l.1.01.1.01.09.01.09.02.1.02.08.03.09.03.09.04.09.04.08.05.09.05.08.06.07.06-.52.57-.03-.03-.04-.03-.04-.02-.04-.02-.05-.03-.05-.02-.05-.02-.06-.01-.05-.02-.06-.01-.07-.01h-.06l-.06-.01H26.53l-.06.01h-.07l-.08.01-.06.01-.06.01-.07.02-.07.02-.06.01-.06.02-.06.02-.06.03-.06.03-.05.02-.05.03-.04.02-.05.03-.43-.63zm1.02 2.55l-.11-.05-.11-.06-.1-.05-.11-.06-.1-.07-.09-.06-.09-.07-.09-.08-.07-.07-.08-.07-.07-.08-.07-.08-.06-.09-.05-.08-.05-.09-.05-.08-.04-.09-.03-.09-.03-.09-.02-.09-.02-.1-.01-.1.01-.1v-.09l.02-.09.03-.09.04-.1.05-.1.06-.07.06-.08.08-.07.08-.06.43.63-.02.02-.02.02-.01.01-.01.02-.01.01v.01l-.01.02v.06l-.01.03.01.02v.04l.01.04.02.05.01.04.03.05.02.05.03.05.04.06.03.04.05.05.04.06.05.05.06.05.06.05.06.05.07.05.07.04.07.05.08.04.08.04.08.03-.29.72z" class="fil1"/></g><g><path fill="#c4d985" d="M22.26 87.79l80.89-76.2C117.8-9.47 142.77.69 131.02 29.15c-22.6 25.33-45.54 50.29-70.88 72.61-27.21 19.96-55.47 13.25-59.55 3.1-1.48-3.68 9.84-7.56 21.67-17.07zm95.27-61.21c.8.49 1.76.69 2.14.46.39-.24.05-.83-.75-1.31-.8-.49-1.76-.7-2.14-.46-.39.23-.05.82.75 1.31zM107.43 20c.81.49 1.76.7 2.15.46.38-.23.04-.82-.76-1.31-.8-.49-1.76-.7-2.14-.46-.38.24-.04.82.75 1.31zM112 32.37c1.08.66 2.37.93 2.89.62.52-.32.06-1.11-1.02-1.78-1.08-.66-2.37-.93-2.88-.61-.52.31-.06 1.11 1.01 1.77zm-10.99-7.05c1.08.66 2.38.94 2.89.62.52-.32.06-1.12-1.02-1.78-1.07-.66-2.37-.93-2.88-.62-.52.32-.06 1.12 1.01 1.78zm-86.18 74.77c1.62.99 3.57 1.41 4.35.93.77-.48.09-1.68-1.54-2.67-.94-.58-2.61-1.38-3.77-1.12-.23.03-.42.09-.58.18-.12.09-.21.18-.26.3-.12.22-.07.53.11.82.27.49.86 1.05 1.69 1.56zm12.23 9.89c1.62 1 3.57 1.42 4.35.93.78-.48.09-1.67-1.54-2.67-.75-.46-1.58-.8-2.33-.98-.6-.4-1.63-.25-2.18.12-.48.33-.26 1.08.42 1.58.31.34.74.69 1.28 1.02zm11.62-10.14c1.22.75 2.68 1.06 3.26.7.59-.36.07-1.26-1.14-2-1.23-.75-2.69-1.06-3.27-.7-.58.36-.07 1.25 1.15 2zm-11.09-8.65c1.22.75 2.68 1.06 3.27.7.58-.36.07-1.26-1.15-2.01-1.22-.74-2.69-1.06-3.27-.7-.58.36-.07 1.26 1.15 2.01z"/><path id="1" d="M102.88 11.31l.59.5-.06.06-80.88 76.2-.53-.56 80.88-76.2zm.59.5l-.02.02-.04.04.06-.06zm27.26 17.08l-.07.11.99-2.59.78-2.48.59-2.37.39-2.25.22-2.14.05-2.01-.11-1.88-.27-1.77-.4-1.63-.54-1.51L131.7 7l-.78-1.24-.89-1.11-.98-.97-1.08-.84-1.16-.7-1.24-.56-1.3-.41-1.36-.28-1.42-.12-1.46.03-1.49.18-1.52.33-1.55.5-1.55.65-1.56.82-1.55.99-1.53 1.16-1.51 1.33-1.48 1.5-1.44 1.68-1.38 1.87-.64-.44 1.42-1.9 1.47-1.73 1.52-1.54 1.55-1.37 1.58-1.19 1.61-1.02 1.61-.85 1.61-.69 1.62-.51 1.59-.35 1.57-.19 1.54-.03 1.5.13 1.44.29 1.39.44 1.32.6 1.23.74 1.15.89 1.05 1.04.95 1.18.82 1.31.7 1.45.57 1.59.42 1.7.28 1.83.11 1.96-.05 2.07-.22 2.19-.41 2.31-.6 2.42-.8 2.52-1 2.64-.07.11-.57-.52zm.64.41l-.02.06-.05.05.07-.11zm-71.46 72.15l-.03.02 2.37-2.1 2.35-2.11 2.34-2.13 2.33-2.14 2.31-2.16 2.31-2.17 2.29-2.18 2.28-2.2 2.27-2.2 2.25-2.22 2.25-2.23 2.24-2.25 2.23-2.25 2.22-2.26 2.21-2.27 2.2-2.28 2.19-2.29 2.19-2.3 2.18-2.31 2.17-2.31 2.16-2.32 2.17-2.33 2.15-2.34 2.15-2.34 2.14-2.34 2.14-2.35 2.13-2.36 2.14-2.36 2.12-2.36 2.13-2.37 2.12-2.37 2.12-2.38.57.52-2.12 2.37-2.12 2.37-2.12 2.37-2.13 2.37-2.13 2.36-2.14 2.35-2.14 2.36-2.14 2.34-2.15 2.35-2.16 2.33-2.16 2.33-2.17 2.33-2.17 2.31-2.18 2.31-2.19 2.3-2.2 2.29-2.2 2.29-2.21 2.27-2.22 2.27-2.23 2.25-2.25 2.24-2.24 2.23-2.26 2.23-2.28 2.21-2.28 2.19-2.29 2.19-2.31 2.18-2.32 2.15-2.32 2.15-2.35 2.13-2.36 2.12-2.37 2.1-.02.02-.46-.62zm.48.6l-.01.01-.01.01.02-.02zM.95 104.72l.43.9.56.88.7.85.82.83.95.8 1.07.75 1.18.72 1.29.67 1.4.62 1.5.56 1.6.49 1.68.44 1.78.36 1.86.29 1.93.21 2.01.13 2.07.04 2.14-.06 2.19-.15 2.25-.24 2.3-.36 2.35-.46 2.38-.58 2.43-.69 2.45-.81 2.48-.94 2.49-1.07 2.52-1.2 2.53-1.35 2.54-1.48 2.54-1.64 2.54-1.78.46.62-2.57 1.8-2.57 1.65-2.56 1.51-2.56 1.35-2.55 1.22-2.52 1.08-2.51.95-2.49.83-2.45.7-2.41.58-2.38.47-2.33.36-2.29.25-2.23.15-2.17.06-2.1-.04-2.05-.13-1.97-.21-1.88-.3-1.82-.37-1.72-.44-1.64-.51-1.54-.58-1.44-.64-1.33-.69-1.23-.74-1.12-.8-1-.83-.87-.88-.75-.92-.62-.96-.47-.98.72-.29zm21.58-16.65l-.03.02-1.11.88-1.11.84-1.09.82-1.09.79-1.08.75-1.06.73-1.05.7-1.02.67-1.01.65-.98.63-.95.6-.93.58-.89.56-.87.53-.83.52-.79.5-.75.48-.71.46-.66.45-.62.43-.56.42-.52.41-.46.39-.4.37-.34.37-.28.35-.22.32-.15.32-.09.29-.04.28.03.27.08.27-.72.29-.12-.42-.03-.43.04-.42.13-.42.2-.41.26-.4.33-.4.38-.4.43-.41.48-.41.54-.42.58-.43.63-.45.68-.45.71-.47.76-.49.79-.49.83-.53.87-.53.89-.56.93-.57.95-.6.98-.63 1-.64 1.02-.67 1.04-.7 1.05-.72 1.07-.75 1.08-.78 1.09-.81 1.1-.84 1.1-.87-.02.02.53.56zm0 0l-.03.03v-.01l.03-.02zm97.34-60.7l-.06.03-.08.04-.07.02-.06.02-.07.01-.07.02-.09.01H119.08l-.08-.01-.08-.01-.08-.01-.08-.01-.08-.02-.08-.02-.09-.02-.08-.02-.08-.03-.09-.03-.09-.03-.08-.03-.08-.03-.09-.03-.09-.04-.09-.04-.08-.05-.08-.04-.08-.04-.09-.05-.08-.05.4-.66.07.05.07.03.07.04.07.04.07.03.07.04.07.03.07.03.08.02.07.03.06.02.07.02.07.02.07.02.06.02.07.01.06.02.06.01.06.01h.05l.06.01h.19l.02-.01h.03l.04-.01.03-.01h.02l.01-.01.4.66zm-.75-1.97l.08.05.08.05.07.05.08.05.06.06.07.05.07.06.06.05.06.06.05.05.05.06.06.06.05.06.03.05.04.06.04.07.04.06.02.06.03.06.03.08.01.07.01.07v.16l-.01.06-.02.08-.04.09-.04.07-.05.06-.05.06-.06.05-.07.05-.4-.66.01-.01-.01.01-.01.01v.01l-.01.02v.02h-.01v-.02l-.01-.03-.01-.03-.01-.02-.02-.03-.03-.03-.02-.04-.03-.03-.03-.03-.03-.04-.04-.04-.04-.04-.05-.04-.05-.05-.05-.04-.06-.04-.05-.04-.06-.04-.07-.05-.06-.04.4-.65zm-2.55-.46l.07-.04.07-.04.08-.02.06-.02.07-.01.07-.01.07-.01.09-.01h.14l.08.01h.08l.08.01.08.02.08.01.08.02.08.01.09.03.09.02.08.02.08.03.09.03.08.03.08.04.09.03.09.04.08.04.08.04.09.04.08.05.09.05.08.05-.4.65-.07-.04-.07-.03-.07-.04-.07-.04-.07-.03-.08-.04-.07-.03-.06-.03-.08-.03-.07-.03-.06-.02-.08-.02-.07-.02-.06-.02-.07-.02-.06-.01-.06-.01-.07-.02h-.05l-.06-.01h-.05l-.05-.01h-.1l-.03.01h-.04l-.04.01h-.02l-.03.01-.02.01h-.01l-.41-.65zm.76 1.97l-.08-.05-.08-.05-.07-.05-.08-.06-.07-.05-.06-.06-.07-.05-.07-.06-.05-.06-.05-.05-.06-.06-.05-.05-.04-.06-.05-.06-.04-.07-.03-.05-.03-.06-.04-.06-.02-.07-.02-.07-.02-.07-.01-.07-.01-.08.01-.08.01-.08.02-.08.03-.07.04-.07.05-.06.06-.07.06-.05.06-.04.41.65-.01.01.01-.01.01-.01.01-.01v-.03h.01-.01l.01.01v.02l.01.01.01.02.02.04.02.03.01.03.02.03.04.04.03.03.03.04.04.04.05.04.04.04.04.04.06.04.06.04.05.05.06.04.07.04.06.04-.4.66zm-7.55-6.12l-.06.04-.08.03-.08.02-.06.02-.06.02-.08.01-.08.01h-.07l-.08.01-.08-.01H108.9l-.08-.01-.07-.02-.09-.01-.08-.02-.08-.02-.09-.02-.07-.02-.09-.02-.09-.04-.08-.02-.09-.03-.08-.04-.09-.03-.08-.04-.09-.04-.08-.04-.08-.04-.09-.05-.09-.05-.08-.05.41-.66.07.05.06.03.07.04.07.04.08.03.07.03.07.04.07.03.07.03.07.02.07.03.07.02.07.02.07.02.06.02.07.01.06.01.06.01.06.01.05.01h.11l.04.01.05-.01h.07l.03-.01h.03l.04-.01.01-.01.01-.01h.01l.4.66zm-.76-1.97l.09.05.07.05.08.05.07.06.07.05.07.06.06.05.06.06.06.05.06.05.05.06.05.06.05.07.04.05.04.06.04.06.03.06.03.07.03.05.02.08.02.08.01.06v.08l-.01.08-.01.07-.02.08-.03.08-.05.08-.04.06-.05.05-.07.06-.06.04-.4-.66h-.01v.01l-.01.02-.01.01v.02-.02h-.01l-.01-.03-.01-.02-.01-.03-.02-.02-.02-.04-.03-.04-.02-.03-.03-.03-.04-.04-.04-.04-.04-.04-.05-.04-.05-.04-.04-.04-.06-.04-.06-.05-.06-.04-.06-.04-.07-.04.4-.66zm-2.54-.46l.06-.03.08-.04.07-.02.07-.02.06-.02.08-.01.08-.01h.07l.08-.01.07.01h.07l.08.01.08.01.08.01.09.01.08.02.08.02.08.02.08.02.09.03.09.03.07.02.09.03.09.04.09.03.08.04.08.04.09.05.08.04.09.04.08.05.08.05-.4.66-.07-.05-.07-.03-.06-.04-.08-.04-.07-.03-.07-.03-.07-.04-.07-.03-.07-.02-.07-.03-.07-.03-.07-.02-.07-.02-.07-.02-.06-.01-.07-.02-.06-.01-.06-.01-.06-.01h-.05l-.06-.01h-.05l-.04-.01-.05.01h-.07l-.03.01-.04.01h-.03l-.01.01-.02.01-.4-.66zm.75 1.97l-.08-.05-.08-.05-.07-.05-.07-.06-.07-.05-.07-.05-.07-.06-.05-.05-.06-.06-.07-.06-.04-.05-.05-.06-.05-.07-.04-.05-.04-.05-.04-.07-.03-.06-.03-.06-.03-.07-.02-.06-.02-.07-.01-.08v-.16l.01-.08.03-.08.03-.06.04-.07.04-.07.06-.06.06-.06.07-.04.4.66.01-.01.01-.01v-.01l.01-.01v-.02.01l.01.02v.02l.02.03.01.02.01.02.03.04.03.04.02.03.03.03.04.05.03.03.04.03.06.05.04.04.05.04.06.04.06.05.05.04.07.04.07.04-.41.66zm7.86 12.99l-.08.04-.08.04-.09.03-.09.02-.08.02-.09.02-.1.01h-.38l-.11-.01-.1-.01-.11-.02-.1-.02-.1-.02-.11-.02-.11-.03-.11-.03-.11-.03-.11-.04-.11-.04-.12-.04-.11-.04-.11-.05-.11-.05-.11-.05-.12-.06-.11-.06-.11-.05-.11-.07-.11-.06.4-.66.1.06.09.05.1.05.1.05.09.05.1.05.11.04.09.04.1.04.1.04.1.03.09.03.09.03.1.02.09.03.09.02.09.01.08.02.08.01.08.01.08.01h.27l.05-.01.05-.01.05-.01.04-.01.03-.01.02-.01.03-.01.4.66zm-1.02-2.43l.11.06.1.07.1.07.1.07.09.07.09.07.08.07.08.07.08.08.07.07.07.08.06.07.06.07.06.08.04.07.05.07.05.09.03.07.04.09.02.08.02.08.01.09.01.09-.01.09-.01.09-.02.08-.04.1-.05.08-.05.07-.07.08-.07.05-.08.06-.4-.66.01-.01.02-.01h-.01l.01-.01v.01-.05l-.01-.03-.01-.02-.01-.04-.02-.04-.02-.04-.03-.04-.04-.05-.03-.05-.04-.05-.05-.06-.05-.05-.05-.06-.06-.05-.07-.06-.06-.06-.08-.05-.07-.06-.08-.06-.09-.06-.09-.06-.09-.06.4-.65zm-3.29-.62l.08-.04.09-.05.09-.03.08-.02.09-.02.09-.02.1-.01h.38l.1.01.1.02.11.01.11.02.1.02.11.03.11.03.1.02.12.04.11.03.11.04.11.04.11.05.12.04.11.06.11.05.12.05.1.06.11.06.11.06.11.07-.4.65-.09-.05-.1-.06-.1-.05-.09-.05-.1-.05-.1-.04-.1-.05-.09-.04-.1-.04-.1-.03-.1-.04-.09-.03-.09-.02-.1-.03-.09-.03-.09-.01-.09-.02-.09-.02-.08-.01-.08-.01-.07-.01h-.28l-.04.01-.05.01-.05.01-.05.01-.02.01-.03.01-.02.01-.41-.65zm1.02 2.43l-.11-.07-.1-.07-.09-.07-.1-.07-.09-.07-.09-.07-.08-.07-.08-.07-.08-.07-.07-.08-.07-.07-.06-.08-.06-.07-.06-.07-.05-.08-.05-.07-.04-.08-.03-.08-.04-.08-.02-.09-.02-.08-.02-.08v-.19l.02-.08.02-.09.04-.1.05-.08.05-.07.07-.07.07-.06.07-.05.41.65-.02.02h-.01v.01-.01.05l.01.03.01.03.01.03.02.04.02.04.03.05.03.04.04.05.04.05.05.06.04.05.06.06.06.05.06.06.07.06.08.06.07.06.08.06.09.05.08.06.09.06-.4.66zm-7.7-6.43l-.07.04-.09.04-.09.03-.09.02-.08.02-.09.02-.1.01h-.38l-.1-.01-.11-.01-.1-.02-.11-.02-.1-.02-.11-.02-.11-.03-.11-.03-.11-.03-.11-.04-.11-.04-.11-.04-.12-.05-.1-.04-.12-.05-.12-.05-.11-.06-.11-.06-.11-.06-.11-.06-.11-.07.41-.65.09.05.09.06.1.05.1.05.1.05.09.04.1.05.1.04.1.04.1.03.1.04.09.03.1.03.09.02.09.03.09.02.09.01.08.02.09.01.08.01.07.01h.27l.05-.01.05-.01h.05l.04-.02.03-.01.03-.01.02-.01.4.66zm-1.01-2.43l.1.06.11.07.09.07.1.07.09.07.09.07.08.07.08.07.07.07.08.07.07.08.06.08.06.07.06.07.05.08.04.08.05.08.03.07.04.08.02.09.02.08.02.09v.09l-.01.09-.01.08-.02.09-.04.1-.04.08-.06.07-.07.08-.07.05-.08.06-.4-.66.02-.01.01-.01h-.01l.01-.01v.01-.05l-.01-.03-.01-.03-.01-.03-.02-.04-.02-.04-.03-.05-.04-.04-.03-.05-.04-.05-.05-.06-.04-.05-.06-.05-.06-.06-.06-.06-.07-.06-.08-.05-.07-.06-.08-.06-.09-.06-.08-.06-.1-.06.41-.65zm-3.29-.63l.07-.04.09-.04.09-.03.08-.02.09-.02.09-.02.1-.01h.38l.1.01.11.01.1.02.11.02.1.02.11.02.11.03.11.03.11.04.11.03.11.04.11.04.12.05.1.04.12.05.12.05.11.06.11.06.11.06.11.06.11.07-.41.65-.09-.05-.1-.05-.1-.06-.09-.05-.1-.05-.09-.04-.1-.05-.1-.04-.1-.04-.1-.03-.1-.04-.09-.03-.1-.03-.09-.02-.09-.03-.09-.02-.09-.01-.09-.02-.08-.01-.08-.01-.07-.01h-.27l-.05.01-.05.01-.05.01-.05.01-.02.01-.03.01-.02.01-.4-.66zm1.01 2.43l-.1-.06-.1-.07-.11-.07-.09-.07-.09-.07-.09-.07-.08-.07-.09-.08-.07-.06-.07-.07-.07-.08-.06-.08-.06-.07-.06-.07-.05-.08-.05-.08-.04-.07-.04-.08-.03-.08-.02-.09-.02-.09-.02-.08V23.83l.02-.09.02-.1.04-.09.04-.07.06-.08.07-.07.07-.06.08-.06.4.66-.02.01-.01.01h.01l-.01.01v-.01.03l.01.03v.02l.01.03.01.03.02.04.03.04.02.05.03.04.04.05.04.05.05.06.04.05.06.05.06.07.06.05.07.06.08.05.07.07.08.06.09.05.08.06.1.06-.41.65zm-81.43 75.71l-.1.06-.12.05-.12.04-.12.03-.12.03-.12.02-.13.01-.14.01h-.28l-.14-.01-.14-.01-.15-.02-.15-.02-.16-.02-.15-.04-.16-.03-.16-.04-.16-.05-.16-.05-.17-.05-.16-.06-.17-.06-.16-.06-.17-.07-.17-.08-.16-.07-.17-.08-.16-.09-.16-.09-.16-.09-.17-.1.41-.65.14.08.15.09.15.08.15.08.15.07.16.07.14.07.16.06.15.06.15.06.15.05.15.05.14.04.15.04.14.04.14.03.13.03.14.02.13.02.13.01.12.01.12.01H18.38l.1-.01h.09l.09-.02.08-.02.08-.02.06-.02.05-.02.04-.03.41.66zm-1.54-3.33l.16.1.15.1.15.1.14.1.13.1.13.11.12.1.12.11.11.1.1.11.1.1.09.11.09.1.08.11.07.11.06.1.07.12.04.1.05.11.03.11.03.11.02.12V100.58l-.02.12-.04.11-.04.11-.06.1-.06.09-.09.09-.09.08-.1.07-.41-.66.04-.03.03-.01.02-.03.02-.02.01-.02.01-.03.01-.03v-.09l-.01-.05-.01-.05-.02-.06-.03-.06-.03-.07-.03-.07-.05-.07-.05-.09-.06-.07-.07-.09-.07-.09-.08-.08-.09-.09-.09-.09-.1-.09-.11-.09-.11-.09-.12-.09-.13-.09-.13-.09-.13-.09-.15-.09.4-.66zm-4.02-1.17l-.04.01.14-.03.13-.02.13-.01H14.59l.14.01.14.02.14.02.14.03.13.03.14.03.14.04.14.04.13.04.13.05.14.05.13.05.13.05.13.05.13.06.12.06.13.06.12.06.11.06.12.05.11.07.11.06.11.06.1.05.1.06.09.06-.4.66-.09-.05-.09-.06-.09-.06-.1-.05-.1-.06-.11-.05-.1-.06-.12-.05-.11-.06-.11-.05-.12-.06-.11-.04-.12-.05-.12-.05-.12-.05-.12-.04-.12-.04-.12-.04-.12-.04-.12-.03-.12-.03-.12-.03-.11-.02-.12-.02-.11-.01-.1-.01h-.31l-.1.01-.09.01-.09.02-.04.01-.1-.77zm.14.76l-.04.01.03-.01h.01zm-.87-.52h.01l.02-.02.02-.01.01-.01.02-.01h.01l.03-.02.04-.02h.02l.01-.01.03-.01.02-.01.03-.01.04-.02h.02l.03-.01.02-.01h.02l.01-.01h.02l.05-.01h.02l.04-.02h.04l.05-.01h-.01.02l.05-.01.02-.01h.02l.1.77h-.06l-.05.01h.01l-.01.01h-.03l-.03.01h-.02l-.02.01h-.01l-.02.01h-.02l-.01.01h-.02.01-.01l-.03.01-.01.01h-.01l-.02.01h-.01.01-.01l-.01.01-.02.01-.01.01-.02.01v-.01h.01l-.41-.65zm-.41.44l-.01.02.02-.03v-.01l.01-.01v-.01l.02-.03v-.01l.02-.02.01-.01.01-.03.03-.03-.01.01v-.01l.02-.02.02-.03.03-.02-.01.01.03-.03.03-.03-.04.03.03-.03.04-.03v-.01l.03-.02.01-.01.02-.01.01-.01h.01l.01-.01.01-.01.03-.02.01-.01.02-.01.41.65-.02.01h.01l-.01.01h-.01l-.01.01-.01.01-.01.01-.01.01v-.01.01l.01-.02.01-.01-.05.05.01-.01.01-.01-.03.03.02-.01.01-.01h-.01v.01l-.03.04.01-.02.01-.01-.01.01v.01l-.01.01v.01-.01l-.01.03-.69-.36zm.7.33l-.01.03.01-.03zm-.58.85l.02.02-.03-.03-.01-.03-.03-.05-.01-.03-.02-.03-.02-.04-.01-.03-.02-.04-.02-.05v-.02l-.01-.03-.02-.06-.01-.04-.01-.03v-.02l-.01-.05-.01-.05v-.21l.01-.07.01-.04v-.03l.01-.02.01-.04.02-.05.01-.04.02-.04.01-.03.69.36-.01.01v.01-.01l-.01.03v.02-.02.11l.01.03v.03l.01.02.01.04.01.01v.01l.01.02.01.02.01.02.01.03h.01l.02.03.01.02.01.02-.68.37zm.67-.39l.01.02-.02-.03.01.01zm1.15 2.09l-.08-.05-.08-.05-.07-.05-.08-.05-.08-.05-.07-.05-.07-.05-.07-.06-.07-.05-.07-.05-.06-.05-.07-.05-.06-.06-.06-.05-.06-.06-.06-.05-.06-.05-.05-.06-.05-.05-.05-.05-.06-.06-.05-.05-.04-.06-.05-.05-.04-.06-.04-.05-.04-.05-.04-.05-.04-.06-.04-.06-.03-.06-.03-.05.68-.37.02.04.03.04.02.03.02.04.03.04.04.05.03.04.03.04.04.05.04.04.03.04.04.04.05.05.04.05.05.04.05.05.05.04.05.05.05.05.05.04.06.05.07.05.05.04.06.05.06.05.07.04.06.05.07.04.07.05.07.05.07.04.08.05-.41.65zm16.99 10.83l-.1.06-.12.05-.11.04-.13.04-.12.02-.12.02-.13.02h-.14l-.13.01-.14-.01h-.15l-.14-.02-.15-.01-.15-.02-.16-.03-.15-.03-.16-.04-.16-.04-.16-.04-.16-.05-.17-.05-.16-.06-.16-.06-.17-.07-.17-.07-.17-.07-.16-.08-.17-.08-.16-.08-.16-.09-.16-.1-.16-.09.4-.66.14.09.15.08.15.08.15.08.15.08.16.07.15.06.15.06.15.07.15.05.15.05.15.05.14.05.15.04.14.03.14.03.14.03.13.03.13.01.13.02.12.01.12.01H30.61l.1-.01.1-.01.08-.01.08-.02.07-.02.06-.02.06-.03.05-.02.4.65zm-1.53-3.32l.15.09.16.11.14.1.14.1.13.1.13.1.12.11.12.1.11.1.1.11.1.11.09.1.09.11.08.11.07.1.07.11.06.11.05.11.04.1.03.12.03.12.02.1v.24l-.02.11-.03.11-.05.11-.06.1-.06.09-.08.09-.1.09-.1.06-.4-.65.04-.03.02-.02.02-.02.02-.03.01-.02.01-.02.01-.03v-.1l-.01-.05-.01-.05-.02-.05-.02-.07-.03-.07-.04-.06-.05-.08-.05-.08-.06-.08-.07-.08-.07-.09-.08-.09-.09-.08-.09-.09-.1-.09-.11-.09-.11-.09-.12-.09-.13-.1-.13-.09-.13-.09-.15-.09.41-.65zm-2.33-.98l-.12-.05.07.01.08.02.07.02.08.03.07.02.08.02.07.02.08.03.08.02.08.03.08.03.07.03.08.02.08.04.07.03.08.03.08.03.08.04.07.03.08.04.08.03.07.04.08.03.08.04.08.05.07.04.08.04.08.04.07.04.08.04.07.05.08.05-.41.65-.07-.04-.06-.04-.07-.04-.07-.04-.07-.04-.07-.03-.07-.04-.07-.04-.07-.03-.07-.03-.07-.04-.07-.03-.07-.04-.07-.03-.08-.03-.06-.03-.07-.03-.08-.03-.07-.02-.07-.03-.07-.03-.07-.02-.07-.03-.07-.02-.07-.02-.06-.02-.08-.02-.07-.03-.06-.02-.07-.01-.07-.02-.06-.02-.12-.05.42-.64zm-.3.69l-.06-.01-.06-.04.12.05zm-2.31-.56l.07-.05.06-.04.08-.04.06-.03.08-.04.08-.03.07-.03.08-.03.09-.02.07-.03.08-.01.09-.02.08-.02.09-.02h.09l.08-.01.09-.01h.36l.08.01.09.01.08.02.09.01.09.03.08.03.08.02.08.04.09.04.08.04.07.05-.42.64-.04-.02-.05-.03-.04-.02-.04-.02-.05-.01-.06-.02-.04-.01-.06-.01-.06-.01-.06-.01-.06-.01h-.25l-.06.01h-.07l-.06.01-.06.01-.07.01-.05.01-.07.02-.06.02-.06.02-.05.02-.06.02-.05.02-.05.02-.05.03-.04.02-.05.02-.04.03-.43-.63zm.35 2.15l.06.05-.08-.05-.06-.06-.07-.06-.07-.06-.06-.06-.06-.07-.05-.07-.05-.05-.05-.07-.05-.08-.04-.07-.04-.06-.03-.08-.03-.07-.03-.07-.02-.08-.02-.08-.01-.07-.01-.07-.01-.1.01-.07v-.07l.02-.09.01-.07.03-.08.04-.07.03-.07.05-.07.05-.07.06-.06.06-.05.07-.05.43.63-.01.01-.02.02-.01.01-.01.01v.01l-.02.02v.02l-.01.03v.03l-.01.03.01.02v.07l.01.02.02.04.01.04.01.04.02.04.03.04.02.04.02.04.03.03.04.06.04.04.03.04.04.04.04.04.05.04.05.04.06.04.05.05-.57.52zm.52-.57l.02.02.03.03-.05-.05zm.85 1.66l-.06-.03-.06-.04-.04-.03-.05-.03-.05-.03-.05-.03-.05-.04-.05-.04-.04-.03-.05-.03-.05-.04-.04-.03-.04-.03-.05-.04-.05-.03-.03-.03-.05-.03-.04-.04-.04-.03-.04-.04-.05-.04-.03-.03-.04-.03-.04-.04-.04-.04-.03-.03-.04-.04-.03-.02-.03-.03-.04-.05-.04-.03-.03-.04.57-.52.03.03.02.03.02.02.04.03.03.04.03.03.04.03.03.03.02.02.04.03.04.04.03.02.03.03.04.04.03.02.04.03.04.03.04.03.04.03.04.03.04.04.04.03.04.02.05.03.04.04.04.02.05.03.04.03.05.03.05.04.04.02.05.03-.4.66zm15.29-9.44l-.09.05-.09.04-.09.03-.1.03-.1.02-.1.02-.1.01-.1.01h-.22l-.11-.01-.11-.01-.12-.01-.11-.02-.12-.02-.12-.03-.12-.02-.12-.03-.13-.04-.12-.03-.12-.04-.13-.05-.13-.05-.12-.04-.13-.06-.12-.05-.13-.06-.13-.06-.13-.07-.12-.07-.12-.06-.12-.08.4-.66.11.07.11.06.11.06.11.06.11.05.11.05.12.05.11.05.11.04.11.05.11.03.11.04.11.03.11.03.1.03.1.02.1.02.1.02.1.01.09.02h.08l.09.01H41.34l.07-.01.07-.01h.06l.05-.02.05-.01.04-.01.04-.02.02-.01.41.65zM41 98.21l.12.07.11.08.11.07.11.08.1.08.1.09.09.07.09.08.08.08.09.08.08.09.07.08.06.08.06.08.06.09.05.08.05.09.04.09.03.08.03.09.03.09.01.11v.18l-.02.1-.02.09-.04.09-.06.1-.06.08-.07.07-.07.07-.08.05-.41-.65.02-.02.02-.01.01-.01v-.01.01-.02l.01-.01v-.07l-.01-.03-.01-.03-.02-.05-.02-.05-.03-.04-.03-.05-.04-.06-.04-.06-.05-.06-.05-.06-.06-.06-.06-.07-.07-.06-.07-.07-.09-.07-.07-.06-.09-.07-.1-.07-.09-.06-.1-.07-.11-.07.41-.65zm-3.67-.7l.08-.05.09-.04.09-.03.1-.03.1-.02.1-.02.11-.01.09-.01h.22l.11.01.12.01.11.01.11.02.12.02.12.02.13.03.12.03.12.03.12.04.13.05.13.04.12.04.13.05.12.06.13.05.13.06.12.06.12.07.13.07.12.06.13.08-.41.65-.1-.06-.11-.06-.11-.06-.11-.06-.12-.05-.11-.06-.11-.04-.11-.05-.11-.04-.12-.05-.11-.04-.1-.03-.11-.03-.11-.03-.11-.03-.1-.02-.1-.02-.09-.02-.1-.01-.09-.02h-.09l-.09-.01H38.13l-.07.01h-.07l-.05.02-.06.01-.04.01-.05.02-.03.01-.03.02-.4-.66zm1.15 2.66l-.12-.08-.12-.07-.11-.07-.11-.08-.1-.09-.1-.08-.09-.07-.09-.08-.08-.09-.08-.08-.08-.08-.07-.08-.06-.08-.07-.08-.06-.09-.05-.09-.04-.08-.04-.09-.04-.08-.03-.1-.02-.09-.01-.09-.01-.09v-.1l.02-.1.03-.09.04-.09.05-.1.06-.07.06-.08.09-.07.08-.05.4.66-.02.01-.01.01-.01.01-.01.01h.01l-.01.01v.01l-.01.01v.01l.01.03v.02l.01.03.01.04.01.04.03.04.02.05.04.06.03.05.04.05.05.06.06.07.05.06.07.07.07.06.07.07.08.06.08.07.09.07.09.06.1.07.1.07.1.06-.4.66zm-7.42-7.95l-.09.05-.09.04-.1.03-.09.03-.09.02-.11.01-.1.02h-.43l-.11-.01-.11-.02-.12-.02-.12-.01-.12-.03-.12-.03-.12-.02-.12-.04-.13-.04-.12-.04-.13-.04-.13-.05-.12-.05-.13-.05-.12-.06-.13-.06-.12-.06-.13-.06-.12-.07-.13-.07-.12-.07.4-.66.11.06.11.07.11.06.11.05.12.06.1.05.11.05.12.05.11.04.11.04.11.04.11.04.11.03.1.03.11.02.1.03.1.02.1.02.09.01.09.01.1.01h.31l.06-.01.06-.01.06-.01.05-.01.04-.02.03-.01.02-.02.41.66zm-1.15-2.66l.12.07.12.08.1.07.11.08.11.08.1.08.08.08.09.08.09.08.08.08.08.08.06.08.07.09.07.08.05.08.05.09.05.09.04.09.03.08.03.09.02.1.02.08V91.58l-.02.09-.02.09-.04.09-.05.09-.07.08-.06.08-.08.07-.08.05-.41-.66.03-.01v-.01l.02-.01.01-.01h-.01l.01-.01v-.09l-.01-.02-.01-.04-.02-.04-.02-.05-.03-.05-.03-.05-.04-.05-.04-.06-.04-.06-.06-.06-.06-.07-.06-.06-.07-.06-.07-.07-.08-.07-.08-.07-.09-.06-.09-.07-.1-.07-.1-.06-.1-.07.4-.65zm-3.67-.71l.09-.05.09-.04.09-.03.1-.03.09-.02.1-.01.11-.01.1-.01h.22l.1.01h.11l.12.02.12.02.11.02.13.02.12.03.12.03.12.03.13.04.12.04.13.04.12.05.13.05.12.05.13.06.13.06.12.06.13.06.12.07.13.07.12.08-.4.65-.11-.06-.11-.06-.11-.06-.11-.06-.12-.06-.11-.05-.11-.05-.11-.04-.12-.05-.11-.04-.1-.04-.11-.03-.11-.04-.11-.03-.1-.02-.11-.03-.1-.02-.1-.01-.09-.02-.09-.01h-.09l-.09-.01H27.04l-.07.01h-.06l-.06.01-.06.01-.05.02-.04.01-.03.01-.03.02-.4-.66zm1.15 2.67l-.12-.08-.12-.08-.11-.07-.1-.08-.11-.08-.1-.08-.09-.08-.09-.07-.08-.09-.08-.08-.08-.08-.07-.08-.07-.08-.06-.09-.05-.08-.06-.09-.04-.09-.04-.08-.04-.09-.03-.09-.02-.1-.01-.08-.01-.09.01-.11.02-.1.02-.09.04-.09.05-.09.06-.08.06-.07.09-.07.08-.06.4.66-.02.02h-.01l-.01.01-.01.01h.01l-.01.01v.01l-.01.02.01.02v.04l.01.02.01.04.02.04.02.05.02.05.03.05.04.06.04.05.05.06.06.07.06.06.06.06.07.06.07.07.08.07.08.07.09.06.09.07.1.07.1.07.1.06-.4.66z" class="fil1"/></g><path d="M60.92 125.16c2.87 4.22 8.63 5.3 12.84 2.42 4.22-2.87 5.3-8.62 2.43-12.84-2.88-4.22-8.63-5.3-12.85-2.42-4.21 2.87-5.3 8.63-2.42 12.84z" class="fil9"/><path d="M66.06 121.68c1.06 1.56 3.18 1.96 4.74.9s1.96-3.19.89-4.74c-1.06-1.56-3.18-1.96-4.74-.9-1.55 1.07-1.95 3.19-.89 4.74z" class="fil7"/><path d="M40.57 93.25c-.42.41-.43 1.07-.02 1.49.4.41 1.06.43 1.48.02l64.11-62.57c.42-.4.43-1.07.02-1.48-.4-.42-1.07-.43-1.48-.02L40.57 93.25z" class="fil1"/></g></g></svg>