<svg xmlns="http://www.w3.org/2000/svg" width="80" height="63" fill-rule="evenodd" clip-rule="evenodd" image-rendering="optimizeQuality" shape-rendering="geometricPrecision" text-rendering="geometricPrecision" viewBox="0 0 7.06 5.56"><defs><style>.fil3{fill:#fefefe}.fil0{fill:#6fa691}.fil1{fill:#2b2a29;fill-rule:nonzero}</style></defs><g id="Слой_x0020_1"><g id="_839231648"><path d="M5.38 5c.15.11.6.04.71.1.11.05.09.25.09.25s-1.6.13-2.38.17c-.78.05-2.43.03-2.81-.01-.38-.04-.76-.1-.76-.1l-.21-.3s.1-.13.17-.23c.07-.09.15-.18.15-.18l.27.04s-.12.13-.09.23.32.2.62.21c.26.01.59-.05.68-.14.12-.13.09-.26.09-.26l.32.03s.06.27.17.31c.11.04.75.06 1.21.04.46-.02 1.03-.01 1.18-.15.14-.14.12-.31.12-.34 0-.04.44-.12.44-.12s-.13.33.03.45z" class="fil0"/><path id="1" d="M6.08 5.11h-.01l-.01-.01h-.05L6 5.09h-.28l-.02-.01h-.11l-.03-.01h-.02l-.03-.01h-.02l-.02-.01h-.03l-.02-.01-.02-.01-.01-.01-.02-.01.02-.03.01.01.02.01.02.01.01.01h.02l.03.01h.02l.02.01h.05l.03.01h.13l.03.01H6l.02.01h.05l.01.01h.02l-.02.03zm0 0l.02.01-.02-.01zm.1.22l-.02.02V5.23l-.01-.01V5.2l-.01-.01v-.02l-.01-.01v-.01l-.01-.01h-.01v-.01l-.01-.01h-.01l-.01-.01.02-.03.01.01.01.01.01.01h.01v.01l.01.01.01.01v.01l.01.01v.01l.01.02v.02l.01.01v.05l.01.01V5.34h-.01v.01l-.01.01v-.03zm.01.02v.01h-.01l.01-.01zm-2.39.16l.08-.01h.08l.08-.01h.09l.09-.01h.09l.09-.01.1-.01h.1l.1-.01.1-.01.1-.01h.09l.1-.01.1-.01.09-.01h.09l.09-.01.09-.01h.08l.08-.01.07-.01h.07l.07-.01h.1l.05-.01h.07l.02-.01h.02v.03l-.02.01h-.09l-.04.01h-.05l-.06.01h-.07l-.06.01h-.08l-.08.01-.08.01h-.09l-.08.01-.1.01h-.09l-.1.01-.09.01-.1.01h-.1l-.1.01-.1.01h-.1l-.09.01-.1.01h-.09l-.09.01h-.09l-.08.01h-.08l-.08.01v-.03zM.99 5.49h.04l.05.01h.05l.06.01H1.4l.08.01h.27l.09.01H3.19l.1-.01h.27l.09-.01H3.8v.03h-.07l-.08.01h-.27l-.09.01H1.75l-.1-.01H1.4l-.08-.01h-.13l-.06-.01h-.1l-.04-.01v-.03zm-.75-.08L.23 5.4h.04l.01.01h.07l.02.01h.05l.02.01H.5l.02.01h.06l.04.01h.03l.03.01h.07l.03.01h.04l.03.01h.07l.04.01h.03v.03H.92l-.04-.01H.85L.81 5.5H.74l-.03-.01H.68l-.04-.01H.58l-.03-.01H.49l-.02-.01H.44l-.03-.01H.35l-.02-.01H.26l-.01-.01H.23l-.01-.01.02-.01zm-.01.02H.22v-.01l.01.01zm-.22-.31V5.1h.02l.21.31-.02.01-.21-.3zm0 0L0 5.11l.01-.01v.02zm.19-.23v.01l-.01.01-.01.01v.01l-.01.01-.01.01v.01l-.01.01-.01.01-.01.01V5l-.01.01-.01.01-.01.01-.01.01v.01l-.01.01-.01.01-.01.01v.01H.05v.01l-.01.01-.01.01-.02-.02v-.01h.01v-.01l.01-.01.01-.01v-.01h.01v-.01l.01-.01.01-.01v-.01h.01L.09 5v-.01l.01-.01.01-.01.01-.01v-.01l.01-.01.01-.01v-.01l.01-.01.01-.01v-.01l.01-.01.01-.01.02.02zm.14-.17h.02-.01l-.01.01-.01.01-.01.01-.01.01-.01.01-.01.01v.01H.28l-.01.01v.01l-.01.01H.25v.01l-.01.01-.01.01v.01l-.01.01H.21v.01l-.01.01-.02-.02v-.01h.01l.01-.01v-.01l.01-.01.01-.01v-.01l.01-.01h.01v-.01l.01-.01.01-.01.01-.01v-.01h.01l.01-.01v-.01H.3v-.01h.01v-.01h.01V4.7h.01v-.01h.02l-.01.03zm-.01-.03h.02-.02zm.29.03l.01.03-.02.01-.27-.04.01-.03.27.03zm0 0l.03.01-.02.02-.01-.03zm-.12.25v-.08l.01-.01v-.01l.01-.01v-.01l.01-.01v-.01l.01-.01v-.01l.01-.01v-.01l.01-.01.01-.01v-.01h.01v-.01h.01v-.01l.01-.01.03.02H.62v.01H.61v.01l-.01.01-.01.01v.01H.58v.01l-.01.01v.01H.56v.01l-.01.01v.02l-.01.01v.02l-.01.01v.05l-.03.01zm0 0L.51 5 .5 4.97zm.64.23l-.03-.01h-.08L1 5.18H.95l-.03-.01H.89l-.02-.01H.84l-.02-.01-.03-.01H.77l-.02-.01-.02-.01H.7l-.02-.01-.02-.01-.01-.01-.02-.01-.02-.01H.59l-.01-.01-.01-.01-.02-.01-.01-.01-.01-.01-.01-.01L.51 5v-.01L.5 4.97l.03-.01.01.01v.01l.01.01V5h.01l.01.01.01.01.02.01.01.01.02.01h.01l.02.01.02.01.02.01.02.01h.02l.02.01.02.01H.8l.03.01.02.01h.02l.03.01h.03l.02.01H1l.03.01h.11v.04zm.7-.15l-.01.01-.02.01H1.8l-.01.01-.02.01-.01.01-.02.01h-.02l-.02.01-.02.01h-.02l-.02.01-.02.01H1.6l-.03.01h-.02l-.03.01H1.5l-.03.01h-.05l-.02.01h-.11l-.02.01h-.13v-.04l.02.01h.05l.03-.01h.13l.02-.01h.05l.03-.01h.05l.02-.01h.03l.02-.01h.02l.02-.01.02-.01h.02l.02-.01.02-.01h.02l.01-.01.02-.01h.01l.01-.01.01-.01.01-.01.01-.01.03.03zm.07-.25l.01-.02h.01v.09l-.01.01v.03l-.01.02v.01l-.01.01v.01l-.01.01-.01.01V5l-.01.01-.01.01-.01.01-.01.02-.03-.03.01-.01.01-.01.01-.01.01-.01.01-.01v-.01l.01-.01v-.01l.01-.02v-.01l.01-.01v-.03l.01-.01v-.07h-.01v-.01l.02-.02v.04zm-.02-.02v-.02h.02l-.02.02zm.34.01l.01.01-.01.02-.32-.02v-.04l.32.03zm0 0h.01v.01l-.01-.01zm.16.35l-.01-.01-.01-.01h-.01l-.01-.01-.01-.01-.01-.01-.01-.02-.01-.01v-.01l-.01-.01-.01-.02-.01-.01V5l-.01-.02-.01-.01v-.02l-.01-.01v-.01l-.01-.02V4.9l-.01-.01v-.03l-.01-.01v-.03h-.01v-.01l.03-.01.01.01v.03l.01.01v.02l.01.01v.02l.01.01v.02l.01.01v.01l.01.02.01.01V5l.01.01.01.01v.01l.01.01.01.02.01.01v.01h.01l.01.01.01.01h.01l.01.01-.02.03zm1.22.03l-.04.01H2.83l-.04-.01h-.15l-.04-.01h-.09l-.02-.01h-.05l-.02-.01h-.03l.02-.03h.02l.02.01h.04l.02.01h.09l.04.01H2.83l.04.01H3.47l.05-.01h.09v.03zm1.19-.15l-.02.01-.02.02-.02.01-.02.01-.02.01-.03.01-.03.01h-.03l-.03.01-.04.01h-.03l-.04.01h-.03l-.04.01h-.04l-.04.01h-.13l-.05.01h-.27l-.04.01h-.22v-.03h.17l.05-.01h.27l.04-.01h.13l.04-.01h.08l.04-.01h.04l.04-.01h.03l.03-.01.03-.01h.03l.03-.01.02-.01.03-.01.02-.01.02-.01.01-.01.01-.01.03.02zm0 0zm.13-.35v.07l-.01.01v.05l-.01.01v.03l-.01.01v.02l-.01.01v.01l-.01.02-.01.01-.01.02-.01.01-.01.01-.01.02-.01.01-.01.02-.01.01L4.77 5l.02-.02.01-.01.01-.01.01-.02.01-.01.01-.01v-.01l.01-.02.01-.01v-.01l.01-.02v-.01l.01-.01v-.02l.01-.02v-.08l.01-.01v-.01l-.01-.01v-.01h.04zm0 0zm.4-.13l.02.03h-.04l-.01.01h-.03l-.02.01h-.04l-.02.01h-.02l-.02.01h-.02l-.02.01h-.04l-.02.01h-.02l-.01.01H5l-.02.01h-.01l-.01.01h-.01l-.01.01H4.9v-.02h.01v-.01h.01l.01-.01h.02l.01-.01h.02l.01-.01h.02l.02-.01h.02l.02-.01h.02l.02-.01h.02l.02-.01h.04l.02-.01h.02l.01-.01h.04l.01-.01h.05v-.01l.02.03-.03-.02zm.01-.01h.03l-.01.03-.02-.03zm.03.48L5.35 5l-.01-.02-.01-.01-.01-.02-.01-.02-.01-.01V4.9l-.01-.02v-.06l-.01-.02v-.02l.01-.02v-.07l.01-.02v-.03l.01-.01v-.02l.01-.01v-.03l.01-.01v-.02l.03.02v.02l-.01.01v.02l-.01.01v.03l-.01.01v.04l-.01.01v.16l.01.02v.01l.01.02.01.01.01.02v.01l.02.01.01.01-.02.03z" class="fil1"/><path d="M5.53 4.55s-.27.13-.6.16c-.32.02-.66-.04-.66-.04l-.02-.49s-.37.15-.7.3c-.43.19-.88.38-1.24.41-.36.04-1.92-.09-2.02-.13-.09-.04-.14-.25-.06-.23.21.05.94.17 2.08.15.49 0 1.59-.63 2.05-.76.46-.13 1.27-.25 1.27-.25l-.1.88z" class="fil0"/><path id="1" d="M4.93 4.69h.03l.03-.01h.06l.03-.01h.03l.02-.01.03-.01h.03l.02-.01h.03l.02-.01.02-.01h.03l.02-.01.02-.01.02-.01h.02l.02-.01.01-.01h.02l.01-.01h.02l.01-.01h.01l.01-.01h.01l.01-.01h.01l.01.03h-.01v.01h-.02l-.01.01h-.01l-.01.01h-.02l-.01.01h-.02l-.01.01-.02.01h-.02l-.02.01-.02.01-.02.01h-.03l-.02.01-.03.01h-.02l-.03.01-.02.01h-.03l-.03.01h-.03l-.03.01h-.02L5 4.72h-.06l-.01-.03zm-.64-.02l-.02-.02h.03l.01.01h.05l.02.01h.06l.02.01h.07l.03.01h.19l.03.01.03-.01h.12l.01.03h-.07l-.03.01h-.15l-.03-.01h-.13l-.03-.01h-.07l-.02-.01h-.05l-.02-.01h-.05l-.01-.01h-.01l-.02-.01h.04zm-.02.01h-.02v-.01l.02.01zm-.03-.5l.01-.01.02.01.02.49h-.04l-.01-.49zm.01-.01l.02-.01v.02l-.02-.01zm-.71.29l.03-.01.03-.02.04-.01.03-.01.03-.02.03-.01.03-.01.03-.02.03-.01.03-.01.03-.01.03-.02.03-.01.03-.01.02-.01.03-.01.02-.01.03-.01.02-.01.02-.01.02-.01h.02l.02-.01.01-.01h.02l.01-.01h.02l.01-.01h.01l.01.03h-.01l-.01.01h-.02l-.01.01h-.02l-.01.01-.02.01h-.02l-.02.01-.02.01-.02.01-.03.01-.02.01L4 4.3l-.02.01-.03.01-.03.01-.03.02-.03.01-.03.01-.03.01-.03.02-.03.01-.03.01-.03.02-.03.01-.03.01-.03.02-.03.01-.02-.03zm-1.23.42h.03l.04-.01h.03l.04-.01.03-.01.04-.01h.03l.04-.01.04-.01.04-.01.03-.02.04-.01.04-.01.04-.01.04-.02.04-.01.04-.01.04-.02.04-.01.04-.02.04-.02.04-.01.04-.02.04-.02.04-.01.04-.02.04-.02.04-.02.04-.01.04-.02.04-.02.04-.02.02.03-.04.02-.04.02-.05.01-.04.02-.04.02-.04.02-.04.02-.04.01-.04.02-.04.02-.04.01-.04.02-.04.01-.04.02-.04.02-.04.01-.04.01-.04.02-.04.01-.04.01-.04.02-.03.01-.04.01-.04.01-.04.01-.03.01h-.04l-.04.01-.03.01h-.04l-.03.01h-.04v-.03zM.3 4.75h.01l.02.01h.03l.03.01h.05l.05.01h.05l.06.01.06.01h.07l.08.01.07.01h.08l.08.01.08.01h.08l.09.01h.08l.09.01h.08l.08.01h.08l.08.01h.53v.03h-.04l-.04.01h-.17L2 4.91H1.78L1.7 4.9h-.16l-.08-.01-.09-.01h-.08l-.09-.01h-.08l-.08-.01-.08-.01H.88L.8 4.84l-.07-.01H.66L.6 4.82H.54l-.06-.01-.05-.01H.39l-.04-.01H.32L.3 4.78H.29l.01-.03zm0 0zm-.08-.21H.21v.09l.01.01v.02l.01.01v.01l.01.01v.01l.01.01h.01v.01l.01.01.01.01h.01l.01.01-.01.03-.01-.01H.27l-.01-.01-.01-.01-.01-.01-.01-.01-.01-.01v-.01L.21 4.7v-.01L.2 4.68v-.01l-.01-.01v-.01l-.01-.01v-.05l-.01-.01v-.02l.01-.01v-.02l.01-.01H.2l.01-.01h.02l-.01.03zm2.09.16h-.6l-.09-.01H1.45l-.09-.01h-.08l-.08-.01h-.07l-.07-.01H.99l-.07-.01-.07-.01H.79l-.06-.01-.05-.01-.06-.01H.57L.52 4.6l-.04-.01H.44L.4 4.58l-.04-.01H.33L.3 4.56l-.03-.01H.25l-.03-.01.01-.03.02.01h.03l.02.01h.03l.04.01.03.01h.04l.04.01.05.01.05.01h.05l.05.01.06.01H.8l.06.01.06.01h.07l.07.01.07.01h.08l.07.01h.08l.09.01H1.62l.09.01h.6v.03zm2.06-.77l-.05.02-.05.01-.05.02-.05.02-.06.03-.06.02-.06.03-.07.03-.07.03-.06.03-.07.03-.08.03-.07.03-.07.04-.08.03-.07.03-.07.03-.08.04-.07.03-.07.03-.08.03-.07.02-.07.03-.07.03-.06.02-.07.02-.06.02-.06.01-.06.01-.05.01-.05.01h-.05v-.03h.04l.05-.01.06-.01.05-.01.06-.01.06-.02.07-.02.06-.02.07-.03.07-.02.07-.03.07-.03.08-.03.07-.03.07-.03.08-.04.07-.03.08-.03.07-.04.07-.03.07-.03.07-.03.07-.03.07-.03.06-.03.07-.03L4.1 4l.06-.03.05-.02.05-.02.05-.01.05-.02.01.03zm1.24-.26l.02.02H5.6l-.02.01h-.05l-.03.01h-.03l-.04.01-.04.01h-.04l-.04.01-.04.01h-.05l-.05.01-.05.01-.05.01-.05.01-.05.01-.05.01-.06.01-.05.01-.05.01-.05.01-.06.01-.05.01-.05.02-.05.01-.04.01-.05.01-.04.01-.01-.03.04-.01.05-.01.05-.01.05-.02.05-.01.05-.01.05-.01.05-.01.05-.01.06-.01.05-.01.05-.01.06-.01.05-.01.05-.01.05-.01.04-.01h.05l.05-.01.04-.01.04-.01h.04l.03-.01h.03l.03-.01h.05l.02-.01h.04l.02.01h-.04zm.02-.01l.02-.01v.02l-.02-.01zm-.08.89l-.01.01-.02-.02.09-.87h.04l-.1.88zm0 0v.01h-.01l.01-.01z" class="fil1"/><path fill="#99cfba" d="M5.37.89c-.03.01-.11 1.05.03 1.38.15.33.32.78.32 1.06s-.12.38-.12.38-1.12.1-1.7.41c-.58.31-1.35.56-1.82.62-.47.05-1.77-.15-1.85-.21-.09-.07-.14-.62.07-.75.28-.19 1.02-.3 1.35-.54.33-.25 1.02-.83 1.16-1.2.14-.36.52-1.47.57-1.69.06-.22.12-.3.12-.3s.13.07.24.14c.1.07.16.18.16.18s.14.03.26.07c.12.04.81.43.91.45.09.01.3 0 .3 0z"/><path id="1" d="M5.39 2.28l-.01-.04-.02-.04-.01-.04-.01-.04-.01-.05v-.05l-.01-.05v-.05l-.01-.06v-.11l-.01-.06V1.4l.01-.05v-.16l.01-.04V1.1l.01-.04V.99l.01-.03V.93l.01-.02V.9l.01-.02.01-.01.01.03v.02l-.01.02v.05l-.01.04v.03l-.01.04v.09l-.01.05v.22l-.01.06v.11l.01.06V1.86l.01.06v.05l.01.05.01.05v.04l.01.05.01.04.02.03.01.03-.03.02zm.31 1.05v-.08l-.01-.03v-.06l-.01-.03-.01-.04v-.03l-.01-.03L5.65 3l-.01-.04-.01-.03-.01-.04-.01-.03-.01-.04-.01-.03-.01-.04-.02-.03-.01-.04-.01-.04-.01-.03-.02-.04-.01-.03-.01-.04-.02-.03-.01-.03-.02-.04-.01-.03-.01-.03-.02-.03-.01-.03.03-.02.01.03.02.04.01.03.01.03.02.03.01.04.02.03.01.04.01.03.02.04.01.03.01.04.01.03.02.04.01.04.01.03.01.04.01.03.01.04.01.03.01.04.01.03.01.04v.03l.01.03.01.03v.03l.01.04v.11H5.7zm-.1.36l-.01.01.01-.01.01-.01v-.01h.01v-.01h.01v-.01l.01-.01v-.01l.01-.01v-.01l.01-.01v-.02l.01-.01v-.01l.01-.02v-.03l.01-.02v-.04l.01-.02v-.1h.03V3.45l-.01.02v.04l-.01.02v.02l-.01.02v.01l-.01.02v.01l-.01.01v.01l-.01.01-.01.01v.01l-.01.01v.01l-.01.01-.01.01v.01h-.01v.01H5.6v-.03zm.01.03H5.6h.01zm-1.72.39l.06-.03.06-.03.06-.03.06-.02.07-.02.06-.03.07-.02.07-.02.07-.02.08-.02.07-.01.07-.02.07-.02.07-.01.07-.01.07-.02.06-.01.06-.01.07-.01.05-.01.06-.01h.05l.05-.01.05-.01h.04l.03-.01h.08l.02-.01h.01v.04h-.07l-.03.01h-.04l-.04.01h-.04l-.05.01-.06.01h-.05l-.06.01-.06.01-.06.01-.07.01-.07.02-.06.01-.07.01-.07.02-.08.02-.07.01-.07.02-.07.02-.07.02-.07.02-.06.03-.07.02-.06.02-.06.03-.06.03-.06.02-.01-.02zm-1.81.61h.05l.04-.01.05-.01.05-.01.05-.01.05-.01.06-.01.05-.01.05-.02.06-.01.06-.02.06-.02.05-.01.06-.02.06-.02.06-.02.06-.02.06-.02.07-.02.06-.03.06-.02.06-.02.06-.03.06-.02.06-.03.06-.03.06-.02.05-.03.06-.03.06-.03.05-.02.06-.03.01.02-.05.03-.06.03-.05.03-.06.03-.06.03-.06.02-.06.03-.06.02-.06.03-.06.02-.06.03-.06.02-.06.03-.06.02-.07.02-.06.02-.06.02-.06.02-.06.02-.05.01-.06.02-.06.02-.06.01-.05.02-.06.01-.05.01-.05.01-.05.01-.05.01-.05.01-.05.01h-.05v-.03zM.24 4.51l.01.01h.01l.03.01.03.01.03.01.04.01.05.01.05.01.06.01.05.01.07.01.06.01.07.01.07.01.07.01.07.01.08.01.07.01.08.01.07.01h.08l.07.01.08.01h.07l.07.01h.36l.04-.01v.03l-.04.01h-.36l-.07-.01h-.08l-.07-.01h-.08l-.07-.01-.08-.01-.07-.01-.08-.01-.07-.01-.08-.01-.07-.01-.07-.01-.06-.01-.07-.01-.06-.01-.06-.01-.06-.01-.05-.01-.04-.01-.04-.01-.04-.01-.03-.01H.25l-.02-.01-.01-.01.02-.03zm.07-.72l-.02.01-.02.02-.01.01-.02.02-.01.02-.01.03-.01.02-.01.03v.02L.19 4l-.01.03v.06l-.01.03v.15l.01.02v.06l.01.02v.03l.01.02v.02l.01.02v.01l.01.02.01.01v.01h.01l-.02.03-.01-.01-.01-.01-.01-.02-.01-.01v-.02l-.01-.02v-.02L.16 4.4l-.01-.02v-.05L.14 4.3v-.22l.01-.03v-.03l.01-.03v-.02l.01-.03.01-.03.01-.03.01-.02.02-.02.01-.02.02-.02.02-.02.02-.02.02.03zm1.35-.54l-.03.03-.04.02-.04.02-.03.02-.04.02-.05.02-.04.02-.05.02-.04.01-.05.02-.05.02-.04.01-.05.02-.05.01-.05.02-.05.02-.05.01-.05.02-.05.01-.05.01-.04.02-.05.01-.04.02-.05.01-.04.02-.04.01-.04.02-.03.01-.04.02-.03.02-.03.01-.02.02-.02-.03.03-.01.03-.02.03-.02.03-.01.04-.02.04-.02.04-.01.04-.02.05-.01.04-.02.05-.01.05-.02.04-.01.05-.02.05-.01.05-.02L1 3.5l.05-.02.05-.01.05-.02.04-.01.05-.02.05-.02.04-.01.05-.02.04-.02.04-.02.04-.02.04-.02.04-.02.03-.02.03-.02.02.02zm1.16-1.2l-.01.03-.02.04-.02.04-.02.04-.03.03-.03.04-.03.05-.03.04-.04.04-.03.04-.04.04-.04.05-.04.04-.04.04-.04.04-.05.05-.04.04-.04.04-.05.04-.04.04-.05.04-.04.04-.05.04-.04.03-.04.04-.04.03-.04.03-.04.03-.04.03-.03.03-.04.03-.03.02-.02-.02.03-.03.04-.02.03-.03.04-.03.04-.03.04-.03.04-.04.04-.03.04-.04.05-.04.04-.03.05-.04.04-.04.04-.04.05-.05.04-.04.04-.04.05-.04.04-.04.04-.05.04-.04.03-.04.04-.04.03-.04.04-.04.03-.04.02-.04.03-.04.02-.04.02-.04.02-.03.01-.04.03.02zM3.4.35l-.01.03v.03l-.01.03-.02.03-.01.05-.01.04-.02.05-.02.05-.01.05-.02.06-.02.06-.02.06-.02.06-.02.07-.03.06-.02.07-.02.06-.02.07-.03.06-.02.07-.02.06-.02.07-.02.06-.03.06-.02.06-.02.05-.02.06-.01.05-.02.05-.02.04-.01.04-.02.04-.03-.02.02-.03.01-.04.02-.05.02-.04.01-.05.02-.06.02-.05.02-.06.03-.06.02-.06.02-.07.02-.06.02-.07.03-.06.02-.07.02-.06.02-.07.03-.06.02-.07.02-.06.02-.06.02-.06.02-.06.01-.05.02-.05.02-.05.01-.04.01-.04.01-.04.01-.03.01-.03.01-.02h.03zm.09-.29l.02-.01v.01H3.5v.02h-.01V.1h-.01v.02l-.01.01v.01l-.01.01v.02l-.01.02V.2l-.01.01v.02l-.01.01v.02l-.01.02V.3l-.01.01v.02L3.4.35h-.03V.32l.01-.01.01-.02V.27L3.4.25V.23l.01-.01V.2l.01-.01V.18l.01-.02V.14l.01-.01V.12l.01-.01V.09l.01-.01V.07l.01-.01V.05h.01V.04L3.5.03l-.01.03zM3.48.04l.01-.02.01.01-.02.01zm.25.16h-.01L3.71.19H3.7L3.69.18 3.68.17h-.01L3.66.16 3.64.15h-.01L3.62.14h-.01L3.6.13 3.59.12 3.58.11h-.01L3.56.1h-.01L3.54.09h-.01V.08h-.01L3.51.07H3.5V.06h-.01L3.5.03h.01v.01h.01l.01.01h.01v.01h.02l.01.01.01.01h.01l.01.01.01.01h.01l.01.01h.01l.01.01.01.01h.01l.01.01.01.01h.01l.01.01h.01l.01.01.01.01-.01.02zm.17.15l-.01.03-.01-.01V.36h-.01V.35L3.86.34V.33L3.85.32V.31h-.01V.3L3.83.29h-.01V.28L3.81.27H3.8V.26L3.79.25 3.78.24h-.01L3.76.23V.22h-.01L3.74.21 3.73.2l.01-.02h.02l.01.01V.2h.01l.01.01.01.01.01.01.01.01h.01v.01l.01.01.01.01.01.01.01.01V.3h.01v.01l.01.01v.01h.01v.01l.01.01v.01h.01L3.9.39V.35zm.02.01l.01.03H3.9l.02-.03zm.23.1L4.14.45h-.02L4.11.44h-.03L4.07.43h-.02L4.04.42h-.02L4.01.41h-.03L3.97.4h-.03L3.93.39H3.9V.35v.04l.01-.04v.01h.04v.01h.03l.01.01h.03l.01.01h.03l.01.01h.02l.02.01h.01l.01.01h.02l.01.01-.01.03zm0 0zm.91.44h-.01L5.03.89h-.01L5 .88 4.97.87 4.95.86 4.92.84 4.89.83 4.86.82 4.83.8 4.79.78 4.76.76 4.72.75 4.69.73 4.65.71 4.61.69 4.58.67 4.54.65 4.5.63 4.47.61 4.43.59 4.39.57 4.36.56 4.33.54 4.3.53 4.27.51 4.24.5 4.22.49 4.2.48 4.18.47 4.16.46h-.01l.01-.03h.02l.01.01.02.01.02.01.03.01.03.01.02.02.03.01.04.02.03.02.03.01.04.02.04.02.03.02.04.02.04.02.03.02.04.02.04.02.03.02.04.01.03.02.04.02.03.01.03.02.02.01.03.01.02.01.02.01h.02l.01.01h.01L5.06.9zm0 0zm.31-.03V.9h-.03l-.01.01h-.25L5.07.9h-.01l.01-.03h.03l.01.01h.19l.01-.01H5.37l.01.03-.01-.03zm0 0l.16-.01-.15.04-.01-.03z" class="fil1"/><path d="M6.24.86c-.04.01-.12 1.06.03 1.39.15.32.31.77.31 1.06 0 .28-.11.38-.11.38s-1.13.1-1.71.41c-.58.31-1.34.56-1.81.61-.47.06-1.77-.14-1.86-.21-.08-.06-.13-.61.07-.75.28-.18 1.03-.29 1.36-.53.33-.25 1.02-.84 1.16-1.2.13-.37.51-1.48.57-1.69.06-.22.11-.31.11-.31s.13.08.24.15c.11.06.17.18.17.18s.13.03.25.07c.13.04.81.43.91.44.1.02.31 0 .31 0z" class="fil3"/><path id="1" d="M6.25 2.25l-.01-.03-.01-.04-.01-.04-.01-.04-.01-.05L6.19 2v-.05l-.01-.06v-.05l-.01-.06v-.51l.01-.05v-.1l.01-.04v-.04L6.2 1V.93l.01-.02V.89l.01-.02V.86l.01-.01.01.03.01-.01v.01L6.24.9v.04l-.01.03V1l-.01.04v.08l-.01.05v.1l-.01.06v.39l.01.06v.11l.01.05V2l.01.04.01.05.01.04.01.04.01.04.01.03-.03.01zm.32 1.06v-.06l-.01-.03v-.05l-.01-.04V3.1l-.01-.03-.01-.03L6.52 3v-.03l-.01-.03-.01-.04-.01-.03-.01-.04-.01-.03-.02-.04-.01-.03-.01-.04-.01-.03-.01-.04-.02-.03-.01-.04-.01-.03-.02-.04-.01-.03-.02-.04-.01-.03-.01-.03-.02-.04-.01-.03-.02-.03.03-.01.02.03.01.03.02.03.01.04.01.03.02.03.01.04.02.03.01.04.01.03.02.04.01.04.01.03.01.04.01.03.02.04.01.03.01.04.01.03.01.04.01.03.01.04v.03l.01.03.01.04v.03l.01.03v.03l.01.03v.09h-.03zm-.12.38l.01-.02h.01v-.01h.01v-.01l.01-.01v-.01l.01-.01.01-.01V3.6l.01-.02v-.01l.01-.01v-.01l.01-.02v-.01l.01-.02v-.04l.01-.01V3.4l.01-.02v-.07h.03v.07l-.01.03v.06l-.01.02v.02l-.01.01v.02l-.01.02v.01l-.01.01v.02l-.01.01v.01l-.01.01-.01.01v.01l-.01.01-.01.01v.01l-.01.01h-.01v.01l.01-.01h-.04zm0 0v-.01l.01-.01-.01.02zm-1.69.39l.05-.03.06-.02.06-.03.07-.02.06-.03.07-.02.07-.02.07-.02.07-.02.07-.02.07-.02.07-.02.07-.01.07-.01.07-.02.07-.01.07-.01.06-.01.06-.01.06-.01.06-.01.05-.01h.05l.04-.01h.04l.04-.01h.03l.03-.01h.04l-.01.02h.04l-.02.01h-.03l-.02.01h-.06l-.03.01h-.04l-.05.01h-.05l-.05.01-.06.01-.05.01-.06.01-.07.01-.06.01-.07.01-.07.02-.07.01-.07.02-.07.01-.07.02-.07.02-.07.02-.07.02-.07.02-.07.02-.06.03-.07.02-.06.03-.05.02-.06.03-.01-.03zm-1.81.62l.04-.01h.05l.05-.01.05-.01.05-.01.05-.01.05-.01.06-.02.05-.01.06-.02.05-.01.06-.02.06-.02.06-.02.06-.01.06-.02.06-.03.06-.02.06-.02.06-.02.06-.02.06-.03.06-.02.06-.03.06-.02.06-.03.06-.03.06-.02.06-.03.05-.03.06-.03.06-.03.01.03-.06.03-.05.03-.06.03-.06.02-.05.03-.06.03-.06.02-.06.03-.06.03-.06.02-.07.02-.06.03-.06.02-.06.02-.06.02-.06.03-.06.02-.06.02-.06.01-.06.02-.06.02-.05.01-.06.02-.06.01-.05.02-.06.01-.05.01-.05.01-.05.01-.05.01H3l-.05.01V4.7zM1.1 4.49h.01l.02.01.02.01.03.01.04.01.04.01h.05l.05.01.05.02.06.01.06.01.07.01.06.01.07.01.08.01.07.01.07.01.08.01h.07l.08.01.07.01.08.01h.07l.07.01h.14l.07.01H2.85l.05-.01h.05v.03H2.9l-.05.01h-.24l-.07-.01h-.07l-.07-.01h-.07l-.08-.01-.07-.01H2.1l-.08-.01-.07-.01-.08-.01-.07-.01-.07-.01-.07-.01-.07-.01-.06-.01-.07-.01-.05-.01-.06-.01-.05-.01-.05-.01-.04-.01-.04-.01-.03-.01-.02-.01-.02-.01-.02-.01.02-.02zm0 0l.02.01-.02-.01zm.07-.72l-.02.01-.01.01-.02.02-.01.02-.01.02-.01.02-.01.03-.01.02-.01.03-.01.03v.03l-.01.02v.27l.01.02v.03l.01.02v.03l.01.02v.01l.01.02.01.01v.02h.01v.01l-.02.02h-.01v-.02l-.01-.01-.01-.02-.01-.01v-.02l-.01-.03v-.02l-.01-.02v-.03l-.01-.03v-.09L1 4.18v-.03l.01-.03v-.09L1.02 4v-.03l.01-.03.01-.03.01-.02.01-.03.01-.02.01-.03.02-.02.02-.02.01-.02.02-.01.02.03zm1.36-.54l-.04.02-.03.02-.04.03-.04.02-.04.02-.04.01-.05.02-.04.02-.05.02-.04.02-.05.01-.05.02-.05.02-.05.01-.05.02-.05.01-.04.02-.05.01-.05.02-.05.01-.05.02-.04.01-.05.01-.04.02-.04.01-.04.02-.04.02-.04.01-.03.02-.03.01-.03.02-.03.02-.02-.03.03-.02.03-.02.04-.01.03-.02.04-.01.04-.02.04-.02.04-.01.04-.02.05-.01.04-.01.05-.02.05-.01.05-.02.05-.01.04-.02.05-.01.05-.02.05-.01.05-.02.05-.02.05-.01.04-.02.05-.02.04-.02.05-.01.04-.02.04-.02.04-.02.03-.02.04-.03.03-.02.02.03zm1.16-1.21l-.01.04-.02.03-.02.04-.03.04-.02.04-.03.04-.03.04-.04.04-.03.05-.04.04-.03.04-.04.04-.04.05-.05.04-.04.04-.04.04-.04.04-.05.05-.04.04-.05.04-.04.04-.05.03-.04.04-.04.04-.04.03-.05.04-.04.03-.03.03-.04.03-.04.03-.03.02-.03.03-.02-.03.03-.02.03-.03.04-.02.04-.03.03-.03.04-.04.05-.03.04-.04.04-.03.04-.04.05-.04.04-.04.05-.04.04-.04.04-.04.05-.04.04-.04.04-.04.04-.05.04-.04.04-.04.04-.04.04-.05.03-.04.03-.04.03-.04.03-.04.03-.04.02-.03.02-.04.02-.04.01-.03.03.01zM4.27.33l-.01.02-.01.03-.01.03-.01.04-.01.04-.02.05-.01.04-.02.06-.02.05-.02.06-.02.06-.02.06-.02.06-.02.06-.02.07-.02.06-.02.07-.03.06-.02.07-.02.06-.02.07-.03.06-.02.06-.02.06-.02.06-.02.06-.02.05-.02.05-.02.05-.01.05-.02.04-.01.03-.03-.01.01-.04.02-.04.02-.04.01-.05.02-.05.02-.05.02-.06.02-.06.02-.06.02-.06.03-.06.02-.07.02-.06.02-.07.03-.06.02-.07.02-.06.02-.07.02-.06.02-.06.02-.06.02-.06.02-.06.02-.05.02-.06.01-.04.02-.05.01-.04.01-.04.01-.03.01-.03V.32l.04.01zm.08-.29l.02-.01v.02h-.01v.02h-.01v.02L4.34.1v.01l-.01.01v.02l-.01.01v.01l-.01.02v.01L4.3.21v.01l-.01.02v.01l-.01.02v.02l-.01.02v.02L4.23.32 4.24.3l.01-.02V.26l.01-.02V.23l.01-.02V.2l.01-.02V.17l.01-.02V.14L4.3.13V.1l.01-.01V.08h.01V.06l.01-.01V.04h.01V.02h.01V.01h.02l-.02.03zm0-.03L4.36 0l.01.01h-.02zm.24.17L4.58.17h-.01L4.56.16h-.01L4.54.15 4.53.14h-.01L4.51.13 4.5.12h-.01L4.48.11h-.01L4.46.1 4.45.09h-.01L4.43.08h-.01V.07h-.01L4.4.06h-.01L4.38.05h-.01V.04h-.02l.02-.03h.01v.01h.02v.01h.01l.01.01.01.01h.01l.01.01h.01l.01.01h.01l.01.01h.01l.01.01.01.01h.01l.01.01.01.01h.01l.01.01h.01l.01.01.01.01h.01l-.02.03zm.02-.03l.03.02-.03-.02zm.16.18l-.02.02V.34h-.01V.33L4.73.32V.31L4.72.3 4.71.29V.28H4.7V.27L4.69.26h-.01V.25L4.67.24 4.66.23h-.01V.22L4.64.21h-.01L4.62.2 4.61.19H4.6L4.59.18l.02-.03.01.01.01.01h.01l.01.01.01.01.01.01h.01v.01l.01.01.01.01h.01v.01l.01.01.01.01.01.01v.01l.01.01.01.01v.01h.01v.01l.01.01v.01l-.01.02V.33zm.01.01l.01.02h-.02l.01-.02zm.24.09H5L4.98.42h-.02L4.95.41h-.01L4.93.4H4.9L4.88.39h-.02V.38h-.04L4.81.37h-.03L4.77.36h-.01l.01-.03v.03-.03h.01l.01.01h.04l.01.01h.02l.01.01h.03l.01.01h.03l.01.01h.02l.01.01h.01l.02.01h.02l-.01.03zm.91.45h-.01L5.9.87 5.88.86h-.02L5.84.85 5.81.83 5.79.82 5.76.81 5.73.79 5.69.78 5.66.76 5.63.74 5.59.72 5.55.7 5.52.68 5.48.66 5.44.64 5.4.63 5.37.61 5.33.59 5.3.57 5.26.55 5.23.53 5.2.52 5.17.5 5.14.49 5.11.48 5.09.46 5.07.45 5.05.44h-.02L5.02.43 5.03.4l.01.01.02.01h.02l.02.01.02.02.03.01.03.01.03.02.03.02.04.01.03.02.04.02.03.02.04.02.04.02.03.02.04.02.04.01.03.02.04.02.03.02.04.02.03.01.03.02.03.01.03.01.02.02.02.01h.02l.02.01h.01l.01.01v.03zm0 0zm.3-.03l.01.03h-.12l-.01.01H6.01L5.99.88H5.93V.85H6.24l.01.02-.01.01-.01-.03zm.02.02v.01h-.01l.01-.01z" class="fil1"/><g><path d="M6.24 4.97c.16.12.61.05.72.1.1.06.08.25.08.25s-1.59.14-2.37.18c-.78.04-2.43.02-2.81-.02-.38-.04-.76-.09-.76-.09l-.21-.3s.1-.14.17-.23c.06-.1.15-.18.15-.18l.27.04s-.13.13-.1.23c.04.1.33.19.63.21.25.01.59-.05.68-.15.12-.12.08-.25.08-.25l.32.02s.07.28.18.32c.11.04.75.05 1.2.03.46-.01 1.04 0 1.18-.15.14-.14.13-.3.13-.34 0-.03.43-.11.43-.11s-.12.32.03.44z" class="fil3"/><path id="1" d="M6.95 5.09l-.01-.01H6.9l-.02-.01h-.13l-.03-.01h-.21l-.03-.01h-.05l-.03-.01h-.05l-.02-.01-.02-.01-.02-.01h-.02L6.25 5l-.02-.02.02-.02.02.01.01.01h.02l.02.01.02.01h.02l.02.01h.03l.02.01h.05l.03.01h.26l.03.01h.1l.02.01h.03l.01.01-.01.03zm.09.22l-.01.01V5.22l-.01-.01v-.03l-.01-.01v-.02L7 5.14v-.01h-.01v-.01l-.01-.01-.01-.01-.01-.01h-.01l.01-.03.01.01h.01l.01.01.01.01.01.01.01.01v.01l.01.01v.01l.01.01v.01l.01.01v.04l.01.01V5.33l-.01.01-.01-.03zm.02.02v.01h-.01l.01-.01zm-2.39.15h.07l.08-.01h.09l.08-.01h.09l.1-.01h.09l.1-.01.09-.01.1-.01h.1l.1-.01.1-.01.1-.01h.09l.1-.01.09-.01h.09l.08-.01.09-.01h.08l.07-.01h.07l.06-.01h.06l.05-.01h.05l.03-.01h.07l.01.03h-.04l-.03.01h-.09l-.05.01h-.06l-.06.01h-.07l-.07.01H6.5l-.08.01-.09.01h-.09l-.09.01-.09.01-.1.01h-.1l-.1.01-.1.01-.09.01h-.1l-.1.01-.1.01h-.09l-.09.01L5 5.5h-.09l-.09.01h-.08l-.07.01v-.04zm-2.81-.01h.08l.06.01h.12l.07.01h.16l.08.01h.48l.1.01h.84l.1-.01h.39l.09-.01h.16l.08-.01v.04h-.16l-.08.01h-.38l-.1.01H2.91l-.1-.01h-.38l-.08-.01h-.23l-.07-.01h-.11l-.05-.01h-.04l.01-.03zm-.75-.09l-.01-.01v.01H1.16l.02.01h.06l.02.01h.05l.02.01h.06l.03.01h.06l.03.01h.04l.03.01h.07l.03.01h.04l.03.01h.07l.04.01-.01.03h-.03l-.04-.01h-.03l-.04-.01h-.07l-.03-.01h-.04l-.03-.01h-.06l-.03-.01h-.03l-.03-.01h-.06l-.03-.01h-.07l-.02-.01h-.05l-.02-.01h-.05l-.01-.01.03-.02zm-.02.03l-.01-.01.01.01zM.87 5.1v-.02H.9l.21.3-.03.02-.21-.3zm0 0v-.02.02zm.2-.23l-.01.01v.01l-.01.01-.01.01-.01.01-.01.01-.01.01v.01L1 4.96l-.01.01v.01l-.01.01L.97 5l-.01.01v.01l-.01.01-.01.01-.01.01v.01H.92v.01l-.01.01v.01H.9v.01l-.03-.02v-.01h.01v-.01h.01v-.01l.01-.01.01-.01v-.01l.01-.01h.01V5l.01-.01.01-.01v-.01l.01-.01.01-.01v-.01l.01-.01h.01L1 4.92v-.01l.01-.01.01-.01v-.01l.01-.01.01-.01v-.01l.03.02zm.14-.17l.01-.01v.01h-.01v.01H1.2l-.01.01v.01h-.01l-.01.01-.01.01v.01h-.01v.01l-.01.01h-.01v.01l-.01.01-.01.01v.01H1.1l-.01.01v.01l-.01.01-.01.01v.01l-.03-.02.01-.01v-.01l.01-.01.01-.01.01-.01.01-.01v-.01l.01-.01.01-.01.01-.01.01-.01.01-.01.01-.01.01-.01.01-.01.01-.01v-.01h.01v-.01h.01l.01-.01v.04zm-.01-.03l.01-.01-.01.01zm.28.03l.01.03h-.01l-.27-.03v-.04l.27.04zm0 0h.03l-.02.03-.01-.03zm-.11.25v-.01l-.01-.01V4.9l.01-.02v-.03l.01-.01v-.01l.01-.01v-.01l.01-.01v-.01l.01-.01.01-.01v-.01l.01-.01.01-.01v-.01h.01v-.01h.01v-.01h.01V4.7l.02.03-.01.01-.01.01-.01.01-.01.01v.01l-.01.01-.01.01v.01l-.01.01v.01l-.01.01v.01l-.01.01v.08l-.03.01zm.03-.01zm.6.23h-.08l-.03-.01h-.05l-.03-.01h-.02l-.03-.01h-.03l-.02-.01h-.03l-.02-.01-.02-.01h-.03l-.02-.01-.02-.01-.02-.01h-.02l-.02-.01-.02-.01-.01-.01-.02-.01-.01-.01-.02-.01-.01-.01L1.41 5l-.01-.01-.01-.01-.01-.01-.01-.01v-.01l.03-.01v.01l.01.01.01.01.01.01.01.01.01.01.01.01h.02l.01.01.02.01.01.01.02.01h.02l.02.01.02.01.02.01h.03l.02.01.02.01h.03l.02.01h.03l.02.01h.03l.02.01h.08l.03.01h.06L2 5.17zm.7-.15l-.01.01-.01.01-.01.01-.02.01-.01.01-.02.01H2.6l-.01.01-.02.01h-.02l-.02.01-.02.01h-.03l-.02.01h-.02l-.03.01h-.02l-.03.01h-.02l-.03.01h-.05l-.02.01H2l.01-.03h.2l.02-.01h.05l.03-.01h.05l.02-.01h.03l.02-.01h.02l.03-.01h.02l.02-.01.02-.01h.02l.02-.01.01-.01h.02l.01-.01.02-.01.01-.01h.01l.01-.01.01-.01.02.02zm0 0l.03-.03-.03.03zm.07-.25l.02-.02V4.87l-.01.01v.02l-.01.01v.01l-.01.02v.01l-.01.01-.01.01-.01.02-.01.01-.01.01-.01.01L2.68 5l.01-.01.01-.01.01-.01v-.01l.01-.02.01-.01v-.01l.01-.01V4.9l.01-.01v-.02l.01-.01V4.76l.02-.02-.01.03zm-.01-.01l-.01-.02h.03l-.02.02zm.34.01l.01.01-.02.02-.32-.03.01-.03.32.03zm0 0h.01v.01l-.01-.01zm.16.34h-.01l-.01-.01-.01-.01-.01-.01-.01-.01-.01-.01-.01-.01-.01-.01-.01-.01-.01-.02V5l-.01-.01-.01-.02v-.01l-.01-.02-.01-.01v-.01l-.01-.02v-.01l-.01-.01v-.03l-.01-.01v-.03l-.01-.01v-.02h.03v.02h.01v.03l.01.01v.03l.01.01v.01l.01.01v.02l.01.01.01.01v.02l.01.01v.01l.01.02.01.01.01.01v.01l.01.01.01.01.01.01.01.01.01.01h.01l-.01.03zm1.21.04H4.3l-.05.01H3.83l-.05-.01H3.54l-.04-.01h-.09l-.03-.01h-.05l-.02-.01h-.04l-.01-.01.01-.03.01.01h.03l.02.01h.08l.03.01h.1l.04.01h.29l.05.01h.23l.05-.01h.27v.03zM5.66 5l-.01.01-.02.01-.02.01-.02.02-.03.01h-.03l-.02.01-.03.01-.04.01h-.03l-.03.01h-.04l-.04.01h-.04l-.04.01h-.08l-.04.01h-.13l-.05.01h-.31l-.05.01h-.09v-.03h.05l.04-.01h.32l.04-.01h.18l.04-.01h.08l.04-.01h.04l.04-.01h.03l.04-.01h.03l.03-.01.03-.01.02-.01h.03l.02-.01.02-.01.02-.01.02-.02.01-.01.02.03zm.13-.36V4.75l-.01.02v.03l-.01.02v.01l-.01.01v.02l-.01.01-.01.01v.02l-.01.01-.01.02-.01.01-.01.01-.01.02-.01.01-.02.02-.02-.03.01-.01.01-.01.01-.02.01-.01.01-.01.01-.02.01-.01.01-.01v-.01l.01-.02v-.01l.01-.01v-.01l.01-.02v-.03l.01-.01V4.64h.03zm0 0zm.41-.12l.02.02h-.01l-.01.01h-.05l-.02.01h-.01l-.02.01h-.04l-.02.01h-.02L6 4.59h-.02l-.02.01h-.02l-.02.01H5.9l-.02.01h-.01l-.02.01h-.03l-.01.01H5.8v.01h-.01v-.01h-.03v-.01l.01-.01h.01l.01-.01h.01l.01-.01h.02l.01-.01h.02l.01-.01h.02l.02-.01h.04l.02-.01h.02l.02-.01h.02l.02-.01h.02l.02-.01h.04l.01-.01h.04l.01-.01h.02l.02.02-.03-.01zm.01-.01l.03-.01-.01.03-.02-.02zm.02.47l-.01-.01-.01-.01-.02-.02-.01-.01v-.02l-.01-.02-.01-.02v-.01l-.01-.02V4.7l.01-.02v-.03l.01-.02V4.6l.01-.01v-.03l.01-.01v-.01l.01-.01v-.01l.03.01v.01l-.01.01v.01l-.01.01v.03l-.01.01v.03l-.01.02v.05l-.01.01v.09l.01.02v.04l.01.01v.02l.01.01.01.01.01.02.01.01.01.01-.02.02z" class="fil1"/></g><g><path d="M6.4 4.52s-.28.14-.6.16c-.32.03-.66-.04-.66-.04l-.02-.48s-.38.15-.7.29c-.43.19-.88.39-1.24.42-.36.04-1.92-.09-2.02-.13-.1-.04-.14-.26-.07-.24.21.06.95.18 2.08.16.49-.01 1.6-.64 2.06-.77.46-.13 1.27-.24 1.27-.24l-.1.87z" class="fil0"/><path id="1" d="M5.8 4.67l.03-.01h.06l.03-.01h.02l.03-.01H6l.03-.01.02-.01h.03l.02-.01h.03l.02-.01.02-.01.02-.01h.02l.02-.01.02-.01h.02l.02-.01.01-.01h.02l.01-.01h.01l.01-.01h.02l.01-.01h.01l.02.03h-.02l-.01.01h-.01l-.01.01h-.02l-.01.01h-.01l-.02.01-.02.01h-.02l-.01.01-.03.01H6.2l-.02.01-.02.01-.03.01h-.02l-.02.01-.03.01h-.03l-.02.01h-.03l-.03.01h-.03l-.03.01h-.03l-.03.01H5.8v-.03zm-.65-.03l-.01-.01h.04l.02.01h.04l.02.01h.07l.02.01h.1l.03.01H5.8v.03H5.45l-.03-.01h-.07l-.03-.01h-.06l-.02-.01H5.18l-.01-.01h-.04l-.01-.02h.03zm-.02.02h-.01v-.02l.01.02zm-.03-.5l.01-.01.02.01.02.48h-.03l-.02-.48zm.01-.01l.02-.01v.02l-.02-.01zm-.7.29l.03-.02.03-.01.03-.01.03-.02.03-.01.04-.01.03-.02.03-.01.03-.01.03-.02.03-.01.03-.01.02-.01.03-.01.03-.01.02-.01.03-.01.02-.01.02-.01.03-.01.02-.01.01-.01h.02l.02-.01.01-.01h.03l.01-.01h.01l.01.03h-.01l-.01.01h-.03l-.01.01-.02.01h-.01l-.02.01-.02.01-.02.01-.03.01-.02.01-.02.01-.03.01-.03.01-.02.01-.03.01-.03.01-.03.01-.03.02-.03.01-.03.01-.03.02-.03.01-.03.01-.04.02-.03.01-.03.01-.03.02-.01-.03zm-1.23.42l.03-.01h.03l.04-.01h.03l.04-.01.03-.01.04-.01.04-.01.03-.01.04-.01.04-.01.04-.01.04-.01.04-.02.04-.01.03-.01.04-.02.04-.01.04-.02.04-.01.04-.02.04-.02.05-.01.04-.02.04-.02.04-.01.04-.02.04-.02.04-.02.04-.02.04-.01.04-.02.01.03-.04.02-.04.01-.04.02-.04.02-.04.02-.04.01-.04.02-.04.02-.04.02-.04.01-.04.02-.04.02-.04.01-.04.02-.04.01-.04.02-.04.01-.04.01-.04.02-.04.01-.04.01-.04.01-.04.01-.03.01-.04.01-.04.01-.04.01-.03.01h-.04l-.03.01h-.04l-.03.01v-.03zm-2.02-.14l.02.01h.02l.02.01h.04l.04.01h.05l.06.01.06.01h.06l.07.01.07.01h.08l.07.01.08.01h.09l.08.01h.08l.09.01h.08l.09.01h.08l.08.01H2.72l.08.01H3.18v.03h-.46l-.07-.01h-.16l-.09-.01h-.08l-.08-.01h-.09l-.08-.01-.09-.01H1.9l-.08-.01-.08-.01h-.07l-.07-.01-.07-.01h-.07l-.06-.01h-.05l-.05-.01-.04-.01h-.04l-.03-.01h-.02l-.02-.01.01-.03zm-.01.03zm-.06-.23h-.01l-.01.01v.04l.01.01v.03l.01.01v.02l.01.01v.01l.01.01.01.01v.01l.01.01.01.01.01.01h.01l-.01.03h-.01l-.01-.01h-.01l-.01-.01v-.01l-.01-.01-.01-.01-.01-.01v-.01l-.01-.01v-.01l-.01-.01v-.01l-.01-.02V4.6l-.01-.01v-.07l.01-.01V4.5h.01v-.01h.04l-.01.03zm.01-.03zm2.07.19h-.5l-.09-.01H2.4l-.09-.01h-.08l-.08-.01h-.08l-.08-.01h-.07l-.07-.01h-.07l-.06-.01-.06-.01-.06-.01h-.06l-.05-.01-.05-.01h-.05l-.05-.01-.04-.01h-.04l-.03-.01-.04-.01h-.03l-.02-.01-.03-.01h-.02l.01-.03h.02l.02.01h.03l.03.01.03.01h.04l.04.01.04.01h.04l.05.01.05.01.06.01h.05l.06.01.06.01h.07l.06.01.07.01H2l.07.01h.08l.08.01h.08l.09.01h.27l.1.01h.4v.03zm2.06-.77l-.04.01-.05.02-.05.02-.06.02-.06.02-.06.03-.06.02-.06.03-.07.03-.07.03-.07.03-.07.04-.07.03-.08.03-.07.03-.07.04-.08.03-.07.03-.08.03-.07.03-.07.03-.07.03-.07.03-.07.02-.07.02-.06.02-.06.02-.06.02-.06.01-.06.01h-.05l-.05.01v-.03l.05-.01h.05l.05-.01.06-.01.06-.02.06-.02.06-.02.07-.02.07-.02.07-.03.07-.03.07-.03.07-.03.08-.03.07-.03.07-.03.08-.03.07-.04.07-.03.08-.03.07-.04.07-.03.07-.03.06-.03.07-.03L4.9 4l.06-.03.06-.02.06-.02.05-.02.05-.02.04-.01.01.03zm1.25-.26l.02.02h-.06l-.02.01h-.03l-.03.01h-.03l-.03.01h-.04l-.04.01-.04.01h-.05l-.04.01-.05.01-.05.01-.05.01-.05.01-.06.01h-.05l-.05.02-.05.01-.06.01-.05.01-.05.01-.05.01-.05.01-.05.01-.05.01-.04.02-.05.01-.01-.03.05-.01.04-.02.05-.01.05-.01.05-.01.05-.01.05-.01.06-.01.05-.02.05-.01.06-.01.05-.01.05-.01.05-.01h.05l.05-.01.05-.01.05-.01.04-.01h.04l.04-.01.04-.01h.04l.03-.01h.06l.02-.01h.03l.01-.01h.01l.02.02h-.03zm.01-.02h.02v.02l-.02-.02zm-.08.89v.02l-.03-.02.1-.87h.03l-.1.87zm0 0v.02-.02z" class="fil1"/></g><g><path d="M3.1 1.23l.48.12c.04.01.06.05.05.09-.01.04-.05.06-.09.05l-.49-.12c.01-.04.03-.09.05-.14zM2.02 3.48l.06.19c.01.03-.01.08-.05.09-.04.01-.08-.01-.09-.05l-.07-.22.09-.03c-.01 0-.01 0-.01-.01l-.21-.28.12-.09.21.29c.02.03.02.08-.02.1-.01.01-.02.01-.03.01zm.39-.2l.13.26c.01.04 0 .08-.04.1-.03.02-.08 0-.1-.03l-.13-.26c.05-.02.1-.04.14-.07zm.31-.23l.22.29c.02.04.01.08-.02.11-.03.02-.08.01-.1-.02l-.21-.28c.04-.03.07-.06.11-.1zm.31-.26l.26.29c.03.03.03.08 0 .11s-.08.02-.11-.01l-.26-.29c.03-.03.07-.07.11-.1zm.28-.27l.31.28c.03.03.03.08 0 .11s-.07.03-.1 0l-.32-.28.11-.11zm.24-.29l.36.25c.03.02.04.07.02.1-.03.03-.08.04-.11.02l-.36-.25.09-.12zm.16-.3l.42.18c.04.02.06.06.04.1-.02.04-.06.05-.1.04l-.41-.19c0-.01.01-.03.02-.04l.03-.09zm.13-.37l.49.16c.04.01.06.05.05.09-.01.04-.06.06-.09.05l-.5-.16c.01-.04.03-.09.05-.14zM4.23.39l.44.11c.04.01.06.05.05.09-.01.04-.05.06-.09.05L4.19.53c.01-.05.03-.1.04-.14zM4.1.81l.45.11c.04.01.06.05.05.09-.01.04-.05.06-.09.05L4.05.95c.02-.05.03-.1.05-.14zm-.14.4l.48.12c.04.01.07.05.06.09-.01.03-.05.06-.09.05l-.5-.12c.02-.05.04-.1.05-.14zM1.14 3.47l.07.22c.02.04 0 .08-.04.09-.04.02-.08 0-.1-.04L1 3.52c.05-.02.09-.03.14-.05zm.4-.16l.13.26c.02.03 0 .08-.03.09-.04.02-.08.01-.1-.03l-.13-.26c.05-.02.09-.04.13-.06zm.62-.49l.27.29c.02.03.02.08-.01.1-.03.03-.08.03-.1 0l-.27-.3c.04-.03.08-.06.11-.09zm.28-.27l.31.28c.03.02.03.07.01.1-.03.03-.08.03-.11 0l-.31-.28.1-.1zm.25-.29l.35.24c.04.02.04.07.02.1-.02.04-.07.04-.1.02l-.36-.25c.03-.04.06-.08.09-.11zm.15-.31l.43.19c.04.01.05.06.04.09-.02.04-.07.06-.1.04l-.42-.18c.01-.02.01-.03.02-.05l.03-.09zm.13-.36l.49.15c.04.02.07.06.05.1-.01.04-.05.06-.09.04l-.5-.15c.02-.05.04-.09.05-.14zm.4-1.17l.43.1c.04.01.07.05.06.09-.01.04-.05.07-.09.06L3.32.56c.02-.06.03-.11.05-.14zm-.14.41l.45.11c.04.01.07.05.06.09-.01.04-.05.07-.09.06L3.18.97c.02-.05.04-.09.05-.14z" class="fil0"/><path id="1" d="M3.58 1.33l-.01.03-.48-.11.01-.03.48.11zm0 0h.01-.01zm.04.11v-.03l-.01-.01v-.01l-.01-.01-.01-.01h-.01l-.01-.01.01-.03.01.01h.02v.01h.01v.01h.01v.01l.01.01v.01h.01v.05h-.03zm0 0l-.01.01.01-.01zm-.08.04h.04v-.01h.02v-.01h.01v-.02h.04l-.01.01v.02h-.01v.01l-.01.01h-.01v.01h-.02v.01h-.05v-.03zm0 0h.01-.01zm-.5-.09l-.01-.02.02-.01.49.12v.03l-.5-.12zm0 0l-.01-.01v-.01l.01.02zm.05-.14l.02-.01v.01H3.1v.03l-.01.01v.02l-.01.01v.02h-.01v.03h-.01v.01l-.03-.01v-.01h.01v-.03h.01v-.02l.01-.01v-.02l.01-.01v-.03h.01v-.01l.02-.01-.01.03zm-.01-.02l.01-.02.01.01-.02.01zm-.99 2.43l-.03.01L2 3.49l.03-.01.06.18zm-.06.08h.01l.01-.01v-.01h.01V3.7h.01v-.02l-.01-.01.03-.01.01.01v.04l-.01.01v.02h-.01v.01h-.01v.01h-.01l-.01.01h-.01l-.01-.03zm-.08-.03h.01v.02h.01v.01h.02v.01h.03l.01-.01.01.03-.01.01h-.05v-.01h-.02v-.01h-.01v-.01h-.01v-.01h-.01v-.02h-.01l.03-.01zm-.03.01l-.01-.03.01.03zm-.07-.22l.01-.02.02.01.07.22-.03.01-.07-.22zm0 0l-.01-.02h.02l-.01.02zm.12-.05l-.01.03h-.01l-.01.01h-.03v.01h-.03v.01h-.01l-.01-.03h.01v-.01h.03v-.01h.03v-.01h.02v.02l.02-.02zm0 0l.02.02-.03.01.01-.03zm-.01 0v-.01.01h.01-.01.01l-.02.02h-.01.01-.01v-.01l.02-.01zm0 0zm-.23-.27v-.02h.03l.2.29-.02.01-.21-.28zm0 0l-.01-.01.01-.01v.02zm.12-.09h.02l-.01.01h-.01v.01h-.01l-.01.01-.01.01h-.01v.01H1.8v.01h-.01l-.01.01-.01.01h-.01v.01h-.01l-.02-.02.01-.01h.01v-.01h.01v-.01h.01v-.01h.02v-.01h.01V3.1h.01v-.01h.01l.01-.01.01-.01.01-.01.02.01-.02.02zm0-.03l.01-.01.01.02-.02-.01zm.23.3l-.02.02-.21-.29.02-.02.21.29zm-.02.02l.02.03-.02-.03zm-.02.08h.01v-.01h.01v-.02h.01V3.4l-.01-.01v-.01l.02-.02h.01v.02h.01V3.44h-.01v.02h-.01v.01h-.01v.01h-.01l-.02-.02zm0 0l.03-.02-.03.02zM2 3.49l.02-.02h.01v-.01h.01l.02.02v.01h-.02v.01h-.02l.01-.02-.03.01zm0 0v-.02h.02L2 3.49zm.55.04l-.03.02-.13-.26.03-.01.13.25zm-.05.1v-.01h.01v-.01h.01v-.02h.01v-.03l-.01-.01.03-.02v.01l.01.01v.05l-.01.01v.01l-.01.01v.01h-.01v.01h-.02v.01l-.01-.03zm.01.02v.01H2.5l.01-.01zm-.09-.05v.01h.01v.01h.01v.01H2.5l.01.03h-.08v-.01h-.02v-.01H2.4v-.01l-.01-.01v-.01l.03-.01zm0 0l.01.03-.01-.03zm-.16-.24l.01-.03.02.01.13.26-.03.01-.13-.25zm0 0l-.01-.02.02-.01-.01.03zm.13-.07l.03.01H2.4v.01h-.02v.01h-.01l-.01.01h-.01l-.01.01h-.02v.01H2.3v.01h-.02l-.01-.03h.02v-.01h.02v-.01h.02V3.3h.02v-.01h.02v-.01h.02v-.01h.01l.02.01-.03.01zm.01-.02l.01-.01.01.02-.02-.01zm.55.06l-.03.02-.21-.29.03-.02.21.29zm-.04.1h.01v-.01h.01V3.36h-.01v-.01l.03-.02v.01l.01.01v.03h.01v.01l-.01.01v.03h-.01v.01h-.01v.01l-.01.01-.02-.03zm0 0l.03-.02-.03.02zm-.08-.01v.01h.01v.01h.03v.01h.01v-.01h.03v-.01l.02.03h-.01v.01H2.9l-.01.01h-.03l-.01-.01h-.02v-.01h-.01l-.01-.01v-.01H2.8l.03-.02zm-.23-.27v-.02l.02.01.21.28-.03.02-.2-.29zm0 0l-.01-.01.01-.01v.02zm.11-.09l.02.01h-.01v.01h-.01v.01H2.7v.01h-.01l-.01.01h-.01v.01h-.01v.01h-.01v.01h-.01l-.01.01-.01.01-.02-.03h.01v-.01h.01v-.01h.01l.01-.01.01-.01h.01v-.01h.01v-.01h.01v-.01h.02v-.01h.01v-.01h.03l-.03.02zm0-.02l.02-.01.01.01h-.03zm.59.03l-.02.03-.26-.3.02-.02.26.29zm0 0l.03.03-.03-.03zm-.02.11v-.01h.01V3.1h-.01l.02-.03.01.01v.01h.01v.02l.01.01v.03h-.01v.03h-.01v.01H3.3v.01l-.02-.02zm0 0l.03-.04-.03.04zm-.09-.01h.01v.01h.01v.01h.05l.01-.01h.01l.02.02h-.01v.01h-.01l-.01.01H3.2l-.01-.01h-.01V3.2h-.01v-.01l.02-.02zm0 0l.04.04-.04-.04zm-.28-.27v-.02h.02l.26.29-.02.02-.26-.29zm0 0l-.01-.01.01-.01v.02zm.11-.1h.02v.01h-.01v.01h-.01l-.01.01H3v.01h-.01v.01h-.01v.01h-.01v.01h-.01v.01h-.01v.01h-.01v.01h-.01l-.02-.02v-.01h.01v-.01h.01l.01-.01.01-.01h.01v-.01h.01v-.01h.01v-.01h.01V2.8H3v-.01h.01v-.01h.03l-.02.02zm0-.02l.01-.01.01.01h-.02zm.61.01l-.02.02-.31-.28.02-.02.31.28zm0 0zm-.02.1h.01v-.07h-.01v-.01l.02-.02v.01h.01v.01h.01v.02l.01.01v.03l-.01.01v.02h-.01v.01l-.01.01-.02-.03zm.02.03l-.01.01.01-.01zm-.1-.02h.01v.01H3.6V2.9h.01v-.01l.02.03-.01.01h-.01v.01h-.04v.01h-.01v-.01h-.03l-.01-.01h-.01v-.01l.02-.02zm0 0zm-.34-.26v-.02h.02l.32.28-.02.02-.32-.28zm0 0l-.01-.01.01-.01v.02zm.11-.11h.02l-.01.01v.01H3.3v.01h-.01v.01h-.01v.01h-.01v.01h-.01v.01h-.01v.01h-.01v.01h-.01v.01h-.01v.01h-.01l-.02-.02v-.01h.01V2.6h.01v-.01h.01v-.01h.01v-.01h.01v-.01h.01v-.01h.01v-.01h.01v-.01h.01v-.01h.01v-.01h.03l-.02.02zm-.01-.02l.02-.01.01.01h-.03zm.63-.05l-.02.03-.36-.24.02-.03.36.24zm0 0zm-.01.11h.01V2.51h-.01V2.5l-.01-.01.02-.03v.01h.01v.01h.01v.01l.01.01v.08h-.01v.01l-.03-.02zm.03.02l.01-.01-.01.01zm-.11-.01v.01h.02l.01.01h.01v-.01h.03v-.01h.01v-.01l.03.02-.01.01-.01.01h-.01v.01h-.02l-.01.01h-.04v-.01h-.02v-.01h-.01l.02-.03zm0 0zm-.38-.22v-.02h.02l.36.24-.02.03-.36-.25zm0 0l-.01-.01.01-.01v.02zm.09-.11l.02-.01v.01l-.01.01v.01h-.01v.01l-.01.01-.01.01v.01h-.01v.01H3.5v.01h-.01v.01l-.01.01v.01h-.01l-.02-.02v-.01h.01v-.01h.01v-.01h.01V2.3l.01-.01v-.01h.01v-.01h.01v-.01h.01v-.02h.01v-.01h.01v-.01h.02l-.02.03zm0-.03l.01-.01.01.01h-.02zm.6-.12l-.01.03-.43-.19.02-.03.42.19zm0 0zm.02.1v-.05h-.01v-.01h-.01v-.01h-.01l.01-.03h.01l.01.01.01.01v.01h.01v.01h.01v.08l-.03-.02zm.03.02zm-.11.01v.01h.04v-.01h.02v-.01h.01v-.01h.01V2.2l.03.02h-.01v.01l-.01.01-.01.01h-.01v.01h-.01l-.01.01h-.05l-.01-.01.01-.03zm0 0zm-.43-.15l-.01-.02.02-.01.42.18-.01.03-.42-.18zm0 0l-.02-.01.01-.01.01.02zm.04-.06v.02h-.01v.02h-.01v.01l-.03-.01v-.01h.01v-.02l.01-.01v-.01l.03.01zm.01-.08l.02-.01v.03h-.01v.02l-.01.01v.02h-.01v.01l-.03-.01V2h.01v-.03h.01v-.02l.01-.01v-.02l.03-.01-.02.03zm-.01-.02l.01-.02.02.01-.03.01zm.64-.22v.03l-.5-.15.01-.03.49.15zm0 .03H4.3h.03zm.03.08V1.8h.01v-.02h-.01v-.02l-.01-.01-.01-.01h-.01V1.7l.01.01h.02v.01h.01v.01h.01v.01h.01v.02l.01.01v.04l-.01.01-.03-.01zm0 0zm-.07.04h.03l.01-.01h.01l.01-.01.01-.01v-.01l.03.01v.01l-.01.01v.01h-.01v.01h-.01v.01h-.02l-.01.01h-.05l.01-.03zm-.01.03l-.01-.01.01.01zm-.5-.16l-.01-.02.02-.01.5.16-.01.03-.5-.16zm0 0l-.01-.01V1.7l.01.02zm.05-.14l.02-.01v.02l-.01.01v.02h-.01v.03h-.01v.03h-.01v.03H3.8l-.03-.01h.01v-.03h.01v-.03h.01v-.03h.01v-.02l.01-.01v-.02l.02-.01-.01.03zm-.01-.02l.01-.02.01.01-.02.01zM4.67.48v.03l-.44-.1V.38l.44.1zm0 0zm.04.1V.55H4.7V.53h-.01V.52h-.02V.48h.01v.01h.02V.5h.01l.01.01v.01h.01v.02h.01v.05L4.71.58zm.03.01V.6.59zm-.1.04h.03V.62h.02V.61h.01V.59h.01V.58l.03.01V.6l-.01.01v.01h-.01v.01h-.01v.01H4.7v.01h-.02v.01h-.05l.01-.03zm0 0h-.01.01zM4.18.55L4.17.53l.02-.01.45.11-.01.03-.45-.11zm0 0L4.17.54V.53l.01.02zm.05-.14L4.25.4h-.01v.03h-.01v.04h-.01v.02L4.21.5v.03H4.2v.01L4.17.53V.52l.01-.01V.49l.01-.01V.46L4.2.45V.43l.01-.01V.39h.01l.01-.01v.03zM4.22.39V.37l.01.01-.01.01zm.33.51v.03L4.09.82 4.1.79l.45.11zm0 0h.01-.01zm.04.1V.97h-.01V.95h-.01V.94h-.02V.9h.01v.01h.02v.01h.01l.01.01v.01h.01v.02h.01v.05L4.59 1zm0 0l-.01.03.01-.03zm-.07.05h.03v-.01h.02v-.01h.01v-.02h.01V1l.03.01v.01l-.01.01v.01H4.6v.01h-.01v.01h-.01v.01h-.02v.01h-.05l.01-.03zm0 0zM4.05.96L4.03.94l.02-.01.47.12-.01.03-.46-.12zm0 0h-.02V.94l.02.02zm.04-.14l.02-.01v.02H4.1v.03h-.01v.03L4.08.9v.02l-.01.01v.02h-.01L4.03.94h.01V.92l.01-.01V.89l.01-.01V.85h.01V.82h.01V.8L4.1.79l-.01.03zM4.08.8l.01-.01h.01L4.08.8zm.37.51l-.01.03-.48-.12.01-.03.48.12zm0 0zm.03.1v-.04h-.01v-.01l-.01-.01h-.01v-.01h-.01l.01-.03h.01v.01h.02v.01h.01v.01h.01v.01l.01.01V1.42l-.03-.01zm.03.01l.02-.08-.02.08zm-.1.03h.01v.01h.01v-.01h.03v-.01h.01v-.01h.01v-.02l.03.01v.02H4.5v.01h-.01v.01h-.01v.01h-.01v.01h-.02l-.01.01h-.03l-.01-.01.01-.03zm0 0zm-.5-.09l-.01-.02.02-.01.49.12-.01.03-.49-.12zm0 0h-.02l.01-.02.01.02zm.05-.14l.02-.01v.01h-.01v.02l-.01.01v.02l-.01.01v.02l-.01.01v.02l-.01.01v.01l-.03-.01v-.01l.01-.01v-.03h.01v-.02l.01-.01v-.02l.01-.01v-.02h.01V1.2l.02-.01-.01.03zm-.01-.02v-.01h.02l-.02.01zM1.23 3.68l-.03.01-.07-.21.03-.01.07.21zm0 0zm-.07.09h.01v-.01h.01v-.01h.01v-.01h.01v-.05l.03-.01v.07h-.01v.01l-.01.01v.01H1.2v.01h-.02v.01h-.01l-.01-.03zm-.07-.04v.01l.01.01v.01h.01l.01.01h.04l.01.03H1.11l-.01-.01h-.01v-.01h-.01v-.01h-.01v-.01l-.01-.01v-.01l.03-.01zm0 0zm-.11-.21l.01-.02.02.01.08.22-.03.01-.08-.22zm0 0v-.01l.01-.01-.01.02zm.15-.04l.02.01h-.03v.01h-.03l-.01.01h-.02l-.01.01h-.02l-.01.01H1L.99 3.5h.02l.01-.01h.02l.01-.01h.02l.01-.01h.02l.01-.01h.03l.02.01-.03.01zm.01-.02l.01-.01.01.02-.02-.01zm.54.1l-.02.01-.13-.26.03-.01.12.26zm-.05.09h.01v-.01h.01v-.01l.01-.01v-.05l.02-.01h.01v.08h-.01v.01h-.01v.01l-.01.01h-.01v.01h-.01l-.01-.03zm0 0zm-.08-.03v.01h.01v.01h.01v.01h.02v.01h.03v-.01h.01l.01.03h-.01v.01h-.05v-.01h-.02v-.01h-.01l-.01-.01-.01-.01v-.01h-.01l.03-.02zm0 0zm-.16-.24l.01-.02h.02l.13.26-.03.02-.13-.26zm0 0v-.02h.01l-.01.02zm.14-.07l.02.01-.01.01h-.01l-.01.01h-.01l-.01.01h-.01l-.01.01h-.01l-.01.01h-.02v.01h-.02v.01l-.02-.03h.01v-.01h.02v-.01h.02v-.01h.02v-.01h.02l.01-.01h.01V3.3h.02v-.01l.03.01-.03.01zm0-.02h.02l.01.01-.03-.01zm.91-.19l-.03.02-.26-.29.02-.03.27.3zm0 0zm-.03.1l.01-.01v-.01h.01v-.04l-.01-.01v-.01h-.01l.03-.02v.01h.01v.01l.01.01V3.19h-.01v.02h-.01v.01h-.01l-.02-.02zm-.08 0h.01v.01h.02v.01h.02v-.01h.02l.01-.01.02.02v.01h-.01v.01H2.4l-.01.01h-.04v-.01h-.02l-.01-.01h-.01v-.01H2.3l.03-.02zm0 0zm-.29-.28V2.9h.02l.27.3-.03.02-.26-.3zm0 0l-.01-.01.01-.01v.02zm.11-.09h.02l-.01.01-.01.01-.01.01h-.01v.01h-.01v.01h-.01v.01H2.1v.01h-.01l-.01.01-.01.01-.01.01-.02-.03h.01v-.01h.01v-.01h.01v-.01h.01l.01-.01.01-.01.01-.01.01-.01h.01v-.01h.01v-.01h.01V2.8h.02l-.02.03zm0-.03l.01-.01.01.01h-.02zm.61.01l-.02.03-.31-.28.02-.03.31.28zm0 0zm-.02.11h.01V2.9h.01v-.04h-.01v-.02h-.01l.02-.03.01.01v.01h.01v.02h.01V2.91h-.01v.02h-.01v.01l-.03-.02zm.03.02zm-.11-.02l.01.01h.01l.01.01h.03v-.01h.01l.01-.01.03.02h-.01v.01h-.01v.01h-.02v.01H2.67v-.01h-.02v-.01h-.01l.02-.03zm0 0zm-.33-.26v-.02h.02l.31.28-.02.03-.31-.29zm0 0l-.02-.01.02-.01v.02zm.1-.1h.02l-.01.01-.01.01-.01.01-.01.01-.01.01-.01.01-.01.01-.01.01-.01.01-.01.01-.02-.02v-.01h.01v-.01h.01v-.01h.01V2.6h.01v-.01h.01v-.01h.01v-.01h.01v-.01h.01v-.01h.01v-.01h.01v-.01h.02l-.02.03zm0-.03l.01-.01.01.01h-.02zm.62-.04l-.02.02-.35-.24.02-.03.35.25zm0 0zm0 .11v-.02l.01-.01v-.02l-.01-.01v-.01l-.01-.01-.01-.01.02-.02h.01v.01h.01v.01h.01v.02l.01.01v.05h-.01v.02h-.01l-.02-.01zm-.08.01h.01v.01h.04v-.01h.02V2.6h.01l.02.01v.01h-.01v.01h-.01v.01h-.02v.01H2.97v-.01h-.02v-.01l.02-.02zm0 0h-.01.01zm-.38-.22l-.01-.03h.02l.37.25-.02.02-.36-.24zm0 0l-.02-.01.01-.02.01.03zm.09-.12h.02-.01v.01l-.01.01v.01h-.01v.01h-.01v.01l-.01.01v.01h-.01v.01h-.01v.01h-.01v.01l-.01.01-.03-.02h.01v-.01h.01v-.01l.01-.01.01-.01v-.01h.01V2.3h.01v-.01l.01-.01v-.01h.01v-.01h.01v-.01l.03-.01-.02.03zm-.01-.02l.01-.02.02.01-.03.01zm.6-.13l-.01.03-.42-.19.01-.03.42.19zm0 0h.01-.01zm.02.11v-.02h.01V2.2l-.01-.01v-.02h-.01v-.01h-.01v-.01h-.01l.01-.03h.01v.01h.01l.01.01.01.01v.01h.01v.02h.01v.04l-.01.01v.01l-.03-.01zm.03.01zm-.11.02h.05l.01-.01h.01v-.01h.01v-.01l.03.01v.01h-.01v.01H3.3v.01l-.01.01h-.01l-.01.01H3.2l.01-.03zm0 0zm-.43-.16v-.02l.02-.01.41.19-.01.03-.42-.19zm0 0h-.01l.01-.02v.02zm.04-.05v.02h-.01v.02H2.8l-.02-.01v-.02h.01v-.03l.03.02zm-.03-.02v.02-.02zm.05-.07l.02-.01v.01l-.01.01v.02h-.01v.03h-.01v.02l-.01.01-.03-.02h.01v-.02h.01v-.03h.01v-.02l.01-.01v-.01l.02-.01-.01.03zm-.01-.02v-.01h.02l-.02.01zm.64-.21l-.01.03-.49-.16.01-.03.49.16zm0 0zm.03.1v-.04h-.01v-.01l-.01-.01-.01-.01h-.01l.01-.03h.01l.01.01h.01v.01h.01v.01h.01v.02h.01V1.84l-.03-.01zm.03.01v.01-.01zm-.11.03h.05v-.01h.01v-.01h.01v-.01h.01v-.01l.03.01v.01h-.01v.02h-.01v.01H3.5l-.01.01h-.01v.01H3.42v-.03zm0 .03h.01-.01zm-.5-.16l-.01-.02.02-.01.49.16v.03l-.5-.16zm0 0H2.9l.01-.02.01.02zm.05-.14l.02-.01v.01h-.01v.03h-.01v.03h-.01v.02l-.01.01v.02l-.01.01v.01l-.03-.01v-.01l.01-.01v-.02l.01-.01v-.02h.01v-.03l.01-.01v-.02h.01v-.01l.02-.01-.01.03zm-.01-.02v-.01h.02l-.02.01zM3.81.51L3.8.54 3.36.43 3.37.4l.44.11zm0 0zm.03.1V.56h-.01V.55h-.01V.54H3.8l.01-.03h.02v.01h.01v.01h.01l.01.01v.01h.01v.03l.01.01V.6l-.01.01v.01L3.84.61zm.03.01v.01-.01zm-.1.03h.04l.01-.01h.01V.63l.01-.01V.61l.03.01v.01l-.01.01v.01h-.01v.01h-.01v.01h-.01l-.01.01H3.76l.01-.03zm0 0h.01-.01zM3.32.57L3.31.55l.01-.01.45.11-.01.03-.44-.11zm0 0H3.3l.01-.02.01.02zm.04-.14l.02-.01v.01l-.01.01v.03h-.01V.5l-.01.01v.02l-.01.01v.02L3.31.55V.53l.01-.01V.49h.01V.46h.01V.43h.01V.41L3.37.4l-.01.03zM3.35.41V.4h.02l-.02.01zm.34.52l-.01.03-.45-.11V.82l.46.11zm0 0zm.03.1V.98h-.01V.97H3.7V.96h-.02l.01-.03h.02v.01h.01v.01h.01l.01.01v.01h.01V1h.01v.02l-.01.01v.01l-.03-.01zm0 0zm-.07.04h.04l.01-.01h.01v-.01l.01-.01v-.01l.03.01v.01l-.01.01v.01h-.01v.01h-.01v.01h-.01l-.01.01H3.64l.01-.03zm0 0zM3.18.99L3.17.97l.02-.01.46.11-.01.03-.46-.11zm0 0L3.16.98l.01-.01.01.02zm.05-.14l.02-.01h-.01v.03h-.01V.9h-.01v.03h-.01v.03H3.2v.02L3.17.97V.95h.01V.92h.01V.89h.01V.86h.01V.83h.01l.01-.01v.03zM3.22.83V.81l.01.01-.01.01z" class="fil1"/></g></g></g></svg>