<svg xmlns="http://www.w3.org/2000/svg" width="68" height="66" fill-rule="evenodd" clip-rule="evenodd" image-rendering="optimizeQuality" shape-rendering="geometricPrecision" text-rendering="geometricPrecision" viewBox="0 0 40.25 39.54"><defs><style>.fil2{fill:#f08bb2}.fil5{fill:#c4d985}.fil4{fill:#6fa691}.fil1{fill:#2b2a29;fill-rule:nonzero}</style></defs><g id="Слой_x0020_1"><g id="_838291792"><path fill="#99cfba" d="M20.05.37c2.26 7.4-.29 19.9-.29 31.91.33 5.03 1.85 8.2 6.38 6.68 3.7-1.27 6.78-2.34 10.48-3.62 8.95-8.86-.01-34.16-16.57-34.97z"/><path id="1" d="M19.86 32.28l-.2.01V31.16l.02-1.13.04-1.14.04-1.13.05-1.13.07-1.12.06-1.13.08-1.12.08-1.11.08-1.11.08-1.1.08-1.09.09-1.08.07-1.07.08-1.06.07-1.05.06-1.03.06-1.02.04-1.01.04-.98.02-.97.01-.95V7.7l-.02-.91-.04-.89-.06-.86-.08-.84-.09-.81-.12-.79-.15-.76-.17-.74-.2-.7.2-.06.2.71.17.74.14.77.13.8.09.82.08.84.06.87.04.89.02.92v.93l-.01.95-.02.97-.03.99-.05 1.01-.06 1.02-.06 1.03-.07 1.05-.07 1.06-.08 1.07-.08 1.09-.09 1.09-.08 1.1-.08 1.1-.08 1.12-.07 1.12-.07 1.12-.06 1.12-.06 1.13-.04 1.13-.04 1.13-.02 1.13v1.12zm-.2.01v-.01.01zm6.45 6.58l.06.19-.42.13-.4.1-.39.08-.37.05-.36.02h-.34l-.32-.02-.31-.05-.3-.08-.28-.1-.26-.12-.25-.14-.24-.17-.23-.18-.21-.21-.19-.23-.19-.24-.17-.27-.16-.28-.14-.3-.14-.32-.12-.33-.12-.35-.1-.36-.09-.38-.09-.39-.07-.41-.07-.42-.06-.43-.05-.44-.04-.46-.03-.47.2-.01.03.46.04.45.05.45.06.42.07.42.07.4.08.39.09.37.11.35.11.34.12.33.13.31.14.29.16.27.16.25.17.24.19.21.2.2.21.17.22.16.24.13.25.12.26.09.28.07.29.05.31.02h.33l.34-.02.36-.05.37-.08.4-.1.41-.12zm.06.19l-.05.01.05-.01zm10.38-3.79l.14.15-.04.02-.34.12-.34.12-.34.11-.34.12-.33.11-.33.12-.33.11-.32.11-.33.12-.32.11-.32.11-.32.11-.32.11-.32.11-.32.11-.32.11-.31.11-.32.11-.32.11-.32.11-.32.11-.32.11-.33.11-.32.11-.33.12-.32.11-.33.11-.34.12-.33.11-.34.12-.34.12-.35.12-.06-.19.34-.12.34-.12.34-.12.34-.11.33-.12.33-.11.33-.11.32-.12.33-.11.32-.11.32-.11.32-.11.32-.11.32-.11.32-.11.32-.11.31-.11.32-.11.32-.11.32-.11.32-.11.32-.11.33-.11.32-.12.33-.11.32-.11.33-.12.34-.11.33-.12.34-.11.34-.12.35-.12-.04.02zm.14.15l-.01.01-.03.01.04-.02zM20.15.34l-.2.06.11-.13 1.53.15 1.5.28 1.44.41 1.4.54 1.34.65 1.28.75 1.23.86 1.17.95 1.11 1.02 1.05 1.11.99 1.17.91 1.24.86 1.29.78 1.33.71 1.37.64 1.41.56 1.43.48 1.44.41 1.45.33 1.46.24 1.45.16 1.43.07 1.41-.01 1.39-.11 1.35-.2 1.3-.29 1.26-.39 1.19-.48 1.14-.59 1.05-.69.98-.8.89-.14-.15.78-.87.68-.95.57-1.04.48-1.12.39-1.18.29-1.23.19-1.29.11-1.34.01-1.37-.07-1.4-.16-1.43-.24-1.43-.32-1.45-.41-1.44-.48-1.43-.56-1.42-.63-1.4-.71-1.36-.78-1.33-.84-1.28-.91-1.22-.98-1.17-1.04-1.09-1.1-1.02-1.16-.94-1.22-.84-1.27-.75-1.33-.64-1.37-.53L23.04.9 21.57.62 20.05.47l.1-.13zm-.2.06l-.04-.14.15.01-.11.13z" class="fil1"/><path d="M20.01 34.51c.63 3.68 2.32 5.73 6.13 4.45 3.7-1.27 6.78-2.34 10.48-3.62 1.6-1.58 2.63-3.7 3.14-6.11-6.82 1.17-13.34 3.09-19.75 5.28z" class="fil2"/><path id="1" d="M26.11 38.87l.06.19-.35.11-.35.09-.33.08-.32.05-.31.04-.3.01h-.28l-.28-.01-.26-.04-.26-.05-.24-.07-.24-.09-.22-.1-.22-.12-.2-.14-.19-.15-.19-.16-.17-.18-.17-.19-.15-.21-.15-.22-.14-.23-.12-.24-.13-.26-.11-.27-.1-.28-.1-.29-.09-.3-.08-.32-.08-.32-.07-.33-.06-.35.2-.03.06.34.07.33.07.31.08.31.09.3.1.28.1.28.11.26.12.25.12.23.13.23.14.21.15.19.16.19.16.16.18.16.18.14.19.13.2.11.21.09.22.09.23.06.24.05.25.03.26.02h.28l.28-.02.3-.03.31-.05.32-.07.34-.09.35-.11zm.06.19l-.05.01.05-.01zm10.38-3.79l.14.15-.04.02-.34.12-.34.12-.34.11-.34.12-.33.11-.33.12-.33.11-.32.11-.33.12-.32.11-.32.11-.32.11-.32.11-.32.11-.32.11-.32.11-.31.11-.32.11-.32.11-.32.11-.32.11-.32.11-.33.11-.32.11-.33.12-.32.11-.33.11-.34.12-.33.11-.34.12-.34.12-.35.12-.06-.19.34-.12.34-.12.34-.12.34-.11.33-.12.33-.11.33-.11.32-.12.33-.11.32-.11.32-.11.32-.11.32-.11.32-.11.32-.11.32-.11.31-.11.32-.11.32-.11.32-.11.32-.11.32-.11.33-.11.32-.12.33-.11.32-.11.33-.12.34-.11.33-.12.34-.11.34-.12.35-.12-.04.02zm.14.15l-.01.01-.03.01.04-.02zm3.09-6.09l-.03-.19.11.12-.05.22-.05.23-.06.22-.06.22-.06.22-.06.22-.07.21-.07.21-.08.22-.08.2-.08.21-.08.21-.09.2-.09.2-.09.2-.1.19-.1.2-.1.19-.11.18-.11.19-.11.18-.12.18-.12.18-.12.18-.13.17-.13.17-.13.17-.14.16-.14.16-.14.16-.15.15-.15.16-.14-.15.15-.15.14-.15.14-.15.14-.16.13-.16.13-.16.13-.17.12-.17.13-.17.11-.18.12-.17.11-.18.11-.19.1-.18.1-.19.1-.19.1-.19.09-.2.09-.19.08-.2.09-.2.08-.21.07-.2.08-.21.07-.21.06-.21.07-.22.06-.21.06-.22.05-.22.06-.22.04-.23.12.12zm-.03-.19l.14-.03-.03.15-.11-.12zm-19.64 5.35l-.2.03.07-.11.6-.2.6-.21.6-.2.61-.2.6-.19.61-.2.6-.19.61-.19.61-.19.61-.19.61-.18.61-.18.61-.18.62-.18.61-.17.62-.17.61-.17.62-.16.62-.16.62-.16.62-.15.63-.16.62-.14.63-.15.63-.14.63-.13.63-.14.63-.12.63-.13.64-.12.64-.11.64-.11.03.19-.64.11-.63.12-.64.12-.63.12-.63.13-.63.13-.63.14-.63.14-.62.14-.63.15-.62.15-.62.16-.62.15-.62.16-.62.17-.61.16-.62.17-.61.18-.61.17-.61.18-.61.18-.61.19-.61.18-.61.19-.61.19-.6.19-.61.2-.6.2-.6.19-.61.21-.6.2-.6.2.07-.11zm-.2.03l-.02-.08.09-.03-.07.11z" class="fil1"/><path fill="#f5b2b6" d="M20.72.1c.14.12.28.24.41.36-.35-.04-.71-.07-1.08-.09 2.26 7.4-.29 19.9-.29 31.91.23 3.5 1.04 6.1 3.03 6.85-3.88-1.27-13.87-2.8-17.5-4.05C-6.96 27.17 4.16.92 20.72.1zm5.79 38.73c-1 .62-2.17.81-3.48.37h-.01c.83.24 1.86.19 3.12-.24l.37-.13z"/><path id="1" d="M21.12.56l.02-.2-.08.18-.01-.01-.01-.02-.01-.01-.01-.01L21 .48l-.01-.01-.01-.01-.02-.01-.01-.01-.01-.02-.02-.01-.01-.01-.01-.01-.01-.01-.02-.01-.01-.01-.01-.01-.02-.02-.01-.01-.01-.01L20.8.3l-.02-.01-.01-.01-.01-.01-.02-.01-.01-.01-.01-.01-.01-.02-.02-.01-.01-.01-.01-.01-.02-.01.13-.15.02.01.01.01.02.01.01.01.01.01.01.01.02.01.01.01.01.01.02.02.01.01.01.01.02.01.01.01.01.01.01.02.02.01.01.01.01.01.02.01.01.01.01.01.01.01.02.02.01.01.01.01.01.01.02.01.01.01.02.02.01.01.01.01-.08.17zm.08-.17l.24.21-.32-.04.08-.17zM20.15.34l-.2.06.11-.13h.1l.03.01H20.3l.03.01h.1l.04.01h.1l.03.01h.07l.03.01h.07l.04.01h.06l.04.01h.07l.03.01h.07l.03.01h.03l-.02.2h-.03l-.04-.01h-.06l-.04-.01h-.06l-.04-.01h-.06l-.04-.01h-.06l-.04-.01h-.1L20.52.5h-.07l-.03-.01h-.1l-.04-.01h-.13l-.04-.01h-.06l.1-.13zm-.2.06l-.04-.14.15.01-.11.13zm-.09 31.88l-.2.01V31.16l.02-1.13.04-1.14.04-1.13.05-1.13.07-1.12.06-1.13.08-1.12.08-1.11.08-1.11.08-1.1.08-1.09.09-1.08.07-1.07.08-1.06.07-1.05.06-1.03.06-1.02.04-1.01.04-.98.02-.97.01-.95V7.7l-.02-.91-.04-.89-.06-.86-.08-.84-.09-.81-.12-.79-.15-.76-.17-.74-.2-.7.2-.06.2.71.17.74.14.77.13.8.09.82.08.84.06.87.04.89.02.92v.93l-.01.95-.02.97-.03.99-.05 1.01-.06 1.02-.06 1.03-.07 1.05-.07 1.06-.08 1.07-.08 1.09-.09 1.09-.08 1.1-.08 1.1-.08 1.12-.07 1.12-.07 1.12-.06 1.12-.06 1.13-.04 1.13-.04 1.13-.02 1.13v1.12zm-.2.01v-.01.01zm3.1 6.93l.06-.19-.06.19-.19-.08-.19-.09-.17-.1-.17-.1-.16-.13-.16-.13-.14-.14-.15-.15-.13-.16-.13-.17-.12-.17-.12-.19-.11-.2-.11-.2-.1-.21-.09-.22-.09-.23-.08-.24-.08-.24-.07-.25-.07-.26-.07-.26-.06-.28-.05-.28-.05-.28-.05-.29-.04-.3-.04-.31-.03-.31-.03-.31-.03-.32-.02-.33.2-.01.02.32.03.32.03.31.03.31.04.3.04.3.05.28.05.29.05.27.06.27.06.26.07.25.07.25.08.24.08.23.09.22.09.21.09.21.11.2.1.19.12.17.11.18.13.16.12.15.14.14.14.13.14.13.16.11.16.1.16.1.17.08.18.07-.07.19zM5.24 35.16l.11-.17-.02-.01.35.12.39.12.43.12.45.12.48.12.51.13.54.12.55.13.58.13.59.13.6.13.62.13.63.13.63.13.64.13.65.13.64.13.64.13.64.13.64.13.62.13.61.13.61.13.58.13.57.13.55.12.53.13.5.12.48.13.44.12.42.12.38.12-.06.19-.38-.12-.41-.12-.45-.12-.47-.12-.5-.13-.53-.12-.54-.13-.57-.12-.59-.13-.6-.13-.61-.13-.63-.13-.63-.13-.64-.13-.64-.13-.64-.13-.65-.13-.64-.14-.63-.13-.63-.13-.62-.13-.61-.13-.59-.12-.57-.13-.56-.13-.53-.13-.51-.12-.49-.12-.46-.13-.42-.12-.4-.12-.36-.12-.02-.01zm.02.01h-.01l-.01-.01.02.01zM20.78.03l-.13.15.07.02-1.52.15-1.49.29-1.46.42-1.41.55-1.37.66-1.32.77-1.27.87-1.22.97-1.15 1.04-1.1 1.13-1.03 1.2-.97 1.25-.89 1.31-.82 1.35-.75 1.39-.66 1.42-.58 1.44-.49 1.45-.39 1.46-.31 1.45-.21 1.44-.11 1.42v1.39l.1 1.36.22 1.31.32 1.26.44 1.2.57 1.14.68 1.06.81.97.94.89 1.07.78-.11.17-1.09-.8-.96-.9-.82-1-.7-1.07-.57-1.16-.45-1.22-.33-1.28L.1 26.4 0 25.03v-1.41l.11-1.44.21-1.45.31-1.46.4-1.47.5-1.46.58-1.45.66-1.43.75-1.4.83-1.36.9-1.32.97-1.26 1.04-1.21 1.11-1.13 1.16-1.06 1.23-.97 1.28-.88 1.34-.78 1.38-.67 1.43-.55 1.47-.42 1.51-.3L20.71 0l.07.03zM20.71 0h.04l.03.03-.07-.03zm2.28 39.3l.07-.19.12.04.12.03.12.03.11.03.12.03.11.02.12.01.11.02.12.01.11.01h.33l.11-.01h.1l.11-.02.11-.01.1-.02.11-.02.1-.02.1-.03.1-.03.1-.03.1-.03.1-.04.1-.04.1-.04.09-.05.1-.04.09-.05.1-.06.09-.05.11.17-.1.06-.1.05-.1.05-.1.05-.1.05-.1.05-.1.04-.11.04-.1.03-.11.04-.11.03-.1.03-.11.02-.11.02-.11.02-.12.01-.11.02-.11.01H24.21l-.12-.01-.12-.01-.12-.02-.12-.01-.12-.03-.12-.02-.12-.03-.13-.03-.12-.04-.13-.04zm0 0H23h-.01zm.06-.19h.01l-.07.19h-.01l.06-.2.01.01zm-.07.19l-3.24-1.16 3.3.96-.06.2zm3.13-.43l.06.19-.12.04-.12.03-.11.04-.12.03-.11.03-.11.03-.11.03-.11.02-.11.02-.11.02-.1.02-.11.02-.1.01-.1.01-.11.01-.1.01-.09.01h-.48l-.09-.01h-.09l-.09-.01-.09-.01-.09-.02-.08-.01-.09-.02-.08-.02-.08-.02-.08-.02.05-.2.08.03.08.02.08.01.08.02.08.01.08.02.08.01.09.01h.08l.09.01H24.32l.09-.01.1-.01.09-.01.1-.01.1-.01.1-.02.11-.01.1-.03.11-.02.1-.02.11-.03.11-.02.11-.03.11-.04.12-.03.11-.03.12-.04zm.06.19l-.05.01.05-.01zm.38-.13l-.38.13-.06-.19.37-.13.09.18-.02.01zm-.07-.19l.87-.3-.78.48-.09-.18z" class="fil1"/><path d="M19.76 31.35v.93c.23 3.5 1.04 6.1 3.03 6.85-3.88-1.27-13.87-2.8-17.5-4.05-2.6-1.68-4.14-4.19-4.81-7.11 7.14 2.1 13.59 3.26 19.28 3.38zm6.72 7.51l-.01-.01-.33.11c-1.26.43-2.29.48-3.12.24h.01c1.29.44 2.45.26 3.45-.34z" class="fil4"/><path id="1" d="M19.86 32.28l-.2.01V31.35h.2V32.28zm-.2.01v-.01.01zm3.1 6.93l.06-.19-.06.19-.19-.08-.19-.09-.17-.1-.17-.1-.16-.13-.16-.13-.14-.14-.15-.15-.13-.16-.13-.17-.12-.17-.12-.19-.11-.2-.11-.2-.1-.21-.09-.22-.09-.23-.08-.24-.08-.24-.07-.25-.07-.26-.07-.26-.06-.28-.05-.28-.05-.28-.05-.29-.04-.3-.04-.31-.03-.31-.03-.31-.03-.32-.02-.33.2-.01.02.32.03.32.03.31.03.31.04.3.04.3.05.28.05.29.05.27.06.27.06.26.07.25.07.25.08.24.08.23.09.22.09.21.09.21.11.2.1.19.12.17.11.18.13.16.12.15.14.14.14.13.14.13.16.11.16.1.16.1.17.08.18.07-.07.19zM5.24 35.16l.11-.17-.02-.01.35.12.39.12.43.12.45.12.48.12.51.13.54.12.55.13.58.13.59.13.6.13.62.13.63.13.63.13.64.13.65.13.64.13.64.13.64.13.64.13.62.13.61.13.61.13.58.13.57.13.55.12.53.13.5.12.48.13.44.12.42.12.38.12-.06.19-.38-.12-.41-.12-.45-.12-.47-.12-.5-.13-.53-.12-.54-.13-.57-.12-.59-.13-.6-.13-.61-.13-.63-.13-.63-.13-.64-.13-.64-.13-.64-.13-.65-.14-.64-.13-.63-.13-.63-.13-.62-.13-.61-.13-.59-.12-.57-.13-.56-.13-.53-.13-.51-.12-.49-.12-.46-.13-.42-.12-.4-.12-.36-.12-.02-.01zm.02.01h-.01l-.01-.01.02.01zM.51 27.88l-.06.19.13-.12.06.27.07.27.08.26.08.27.08.26.09.25.1.26.1.25.11.25.11.24.11.24.13.24.13.24.13.23.14.23.14.22.15.22.16.22.16.22.17.21.17.2.18.2.19.2.19.2.19.19.21.18.2.18.22.18.22.17.23.17.23.16.24.16-.11.17-.25-.16-.23-.17-.23-.17-.23-.17-.22-.18-.21-.19-.2-.19-.21-.19-.19-.2-.19-.2-.18-.21-.18-.21-.17-.21-.16-.22-.16-.22-.16-.23-.14-.23-.14-.23-.14-.23-.13-.24-.13-.25-.12-.24-.11-.25-.11-.25-.1-.26-.1-.26-.09-.26-.09-.26-.08-.27-.07-.27-.07-.27L.38 28l.13-.12zM.38 28l-.04-.17.17.05-.13.12zm19.48 3.35h-.2l.1.1-.54-.01-.54-.03-.55-.02-.54-.03-.56-.04-.56-.05-.56-.05-.57-.05-.57-.07-.58-.06-.58-.08-.58-.08-.59-.08-.59-.1-.6-.09-.6-.11-.61-.11-.61-.11-.62-.12-.61-.13-.63-.13-.62-.14-.63-.14-.64-.15-.64-.16-.64-.16-.65-.16-.65-.18-.66-.17-.66-.19-.66-.19-.67-.19.06-.19.66.19.67.19.66.18.65.18.65.17.65.17.64.16.64.15.63.15.63.14.63.14.62.13.61.13.62.12.61.12.6.1.6.11.6.1.59.09.59.08.58.08.58.08.57.06.57.07.57.05.56.05.56.05.55.03.55.04.54.02.54.02.53.02.1.1zm-.1-.1h.1v.1l-.1-.1zm6.81 7.57v.01l-.19.06v-.01l.06-.13.13.07zm-.13-.07l.1-.03.03.1-.13-.07zm-.33.12l.33-.12.07.19-.34.12-.06-.19zm.06.19l-.05.01.05-.01zm-3.12.05l-.07.19.06-.2.08.03.08.02.08.01.08.02.08.01.08.02.08.01.09.01h.08l.09.01H24.32l.09-.01.1-.01.09-.01.1-.01.1-.01.1-.02.11-.01.1-.03.11-.02.1-.02.11-.03.11-.02.11-.03.11-.04.12-.03.11-.03.12-.04.06.19-.12.04-.12.03-.11.04-.12.03-.11.03-.11.03-.11.03-.11.02-.11.02-.11.02-.1.02-.11.02-.1.01-.1.01-.11.01-.1.01-.09.01h-.48l-.09-.01h-.09l-.09-.01-.09-.01-.09-.02-.08-.01-.09-.02-.08-.02-.08-.02-.08-.02.06-.19zm-.07.19l-3.24-1.16 3.3.96-.06.2zm.01 0h-.01l.07-.19h.01l-.07.19zm0 0H23h-.01zm3.39-.41l.19-.06-.04.11-.1.06-.1.05-.09.05-.1.05-.1.05-.1.04-.11.04-.1.04-.1.03-.11.04-.1.03-.11.02-.11.02-.11.03-.11.01-.11.02-.11.01-.11.01H24.19l-.11-.01-.12-.01-.12-.02-.12-.02-.12-.02-.12-.02-.12-.03-.12-.03-.12-.04-.13-.04.07-.19.12.04.11.03.12.03.12.03.11.02.12.03.11.01.11.02.11.01.11.01h.44l.1-.01.11-.01.1-.02.11-.01.1-.02.1-.02.1-.03.11-.03.09-.03.1-.03.1-.04.1-.04.09-.04.1-.04.1-.05.09-.05.09-.05.09-.05-.04.12zm.19-.06l.03.07-.07.04.04-.11z" class="fil1"/><path d="M25.07 20.79c2.45-.42 3 2.05 3.88 6.38.31 1.49.65 2.98.9 4.29-2.39.65-4.76 1.37-7.1 2.13-.22-2.04-.25-4.55-.25-6.1 0-3.75.13-6.28 2.57-6.7z" class="fil5"/><path id="1" d="M29.05 27.15l-.2.04-.08-.4-.08-.39-.08-.38-.08-.36-.07-.36-.08-.34-.08-.33-.08-.32-.08-.3-.08-.29-.09-.28-.08-.27-.09-.25-.1-.24-.09-.23-.1-.21-.11-.19-.1-.18-.12-.17-.12-.15-.12-.14-.13-.12-.13-.11-.14-.09-.15-.08-.16-.06-.16-.05-.18-.04-.18-.01-.2-.01-.2.02-.22.03-.03-.2.23-.03.22-.02h.21l.2.02.19.04.19.06.17.07.17.08.16.11.14.11.15.14.13.15.13.16.12.18.11.19.11.2.1.22.1.23.1.25.09.26.08.27.09.28.08.29.08.31.08.32.08.33.08.35.08.35.08.37.08.38.08.39.08.4zm.82 4.4l-.05-.19-.07.11-.03-.12-.02-.12-.03-.13-.02-.12-.02-.13-.03-.13-.03-.13-.02-.13-.03-.13-.03-.13-.03-.13-.02-.13-.03-.13-.03-.14-.03-.13-.03-.14-.03-.13-.03-.14-.02-.14-.03-.13-.03-.14-.03-.14-.03-.14-.03-.13-.03-.14-.03-.14-.03-.14-.03-.14-.03-.14-.03-.14-.03-.14-.03-.14.2-.04.03.14.03.14.03.14.03.14.03.14.03.14.03.14.03.13.02.14.03.14.03.14.03.13.03.14.03.14.03.13.03.14.03.13.03.14.03.13.02.14.03.13.03.13.03.13.02.13.03.13.03.13.02.13.03.13.02.12.03.13.02.12.02.13-.07.11zm.07-.11l.02.09-.09.02.07-.11zm-7.29 2.16l.2-.02-.13-.08.22-.08.22-.07.22-.07.22-.07.22-.07.22-.07.22-.07.22-.07.22-.07.22-.07.22-.07.22-.06.23-.07.22-.07.22-.07.22-.06.22-.07.22-.07.23-.06.22-.07.22-.06.23-.07.22-.07.22-.06.22-.06.23-.07.22-.06.22-.06.23-.07.22-.06.22-.06.23-.06.05.19-.22.06-.23.07-.22.06-.22.06-.23.06-.22.07-.22.06-.22.06-.23.07-.22.06-.22.07-.22.06-.22.07-.23.07-.22.06-.22.07-.22.07-.22.06-.22.07-.23.07-.22.07-.22.07-.22.06-.22.07-.22.07-.22.07-.22.07-.22.07-.22.07-.22.08-.22.07-.22.07-.13-.09zm.13.09l-.12.04-.01-.13.13.09zm-.38-6.2h.2v.97l.01.17v.55l.01.19v.19l.01.2v.2l.01.19v.21l.01.2.01.2v.2l.01.21.01.2.01.21.01.21.02.2.01.2.01.21.02.2.01.2.02.2.02.2.02.19.02.19-.2.02-.02-.19-.02-.2-.02-.19-.02-.2-.01-.21-.02-.2-.01-.2-.01-.21-.02-.2-.01-.21-.01-.21-.01-.2-.01-.21-.01-.2v-.21l-.01-.2-.01-.2v-.2l-.01-.2v-.38l-.01-.19v-.55l-.01-.18V27.49zm2.66-6.8l.03.2-.21.04-.21.06-.19.07-.17.07-.17.09-.15.1-.14.11-.14.13-.12.13-.11.14-.11.16-.1.16-.08.18-.08.19-.08.19-.06.21-.06.22-.05.22-.05.24-.04.25-.04.25-.02.27-.03.27-.02.29-.02.29-.01.3-.01.31-.01.32v.32l-.01.34v.68h-.2v-1.02l.01-.33.01-.32.01-.31.01-.3.02-.29.02-.29.02-.28.03-.27.04-.26.04-.25.05-.25.05-.23.06-.23.07-.21.08-.21.08-.2.1-.18.1-.18.11-.17.13-.15.13-.15.14-.13.16-.12.17-.11.18-.1.19-.08.2-.07.22-.06.23-.05z" class="fil1"/><g><path d="M33.52 17.53c2.44-.42 3.7 1.34 4.59 5.67.46 2.27.28 4.64-.24 6.38-2.11.4-4.19.88-6.25 1.41-.43-2.42-.65-5.78-.65-7.53 0-3.75.1-5.51 2.55-5.93z" class="fil5"/><path id="1" d="M38.2 23.18l-.19.05-.09-.4-.08-.38-.09-.37-.09-.35-.1-.34-.09-.32-.1-.31-.11-.29-.1-.28-.11-.26-.11-.25-.12-.24-.12-.22-.13-.2-.12-.19-.14-.18-.13-.16-.14-.15-.14-.14-.15-.12-.16-.11-.15-.09-.17-.08-.17-.07-.17-.06-.18-.04-.19-.03-.19-.02-.2-.01-.2.01-.22.02-.22.03-.03-.2.23-.03.22-.02.22-.01.21.01.21.02.2.03.2.05.18.06.19.07.17.09.17.1.17.12.16.13.15.15.15.15.14.17.14.19.14.2.12.21.13.23.12.24.11.26.11.26.11.29.11.29.1.32.1.32.09.34.09.36.09.37.09.38.08.4zm-.31 6.5l-.04-.2-.07.07.04-.16.05-.17.04-.17.04-.18.04-.17.04-.18.03-.18.03-.19.03-.19.03-.19.02-.19.03-.2.01-.19.02-.2.02-.2.01-.21v-.2l.01-.21v-.62l-.01-.21-.01-.21-.01-.21-.02-.21-.02-.21-.02-.22-.03-.21-.03-.21-.03-.21-.04-.21-.04-.21.19-.05.05.22.03.21.04.22.03.21.03.22.02.21.02.22.02.21.01.22.01.21.01.21v.85l-.01.2-.01.21-.02.2-.01.2-.02.2-.03.2-.02.2-.03.19-.03.19-.03.19-.03.19-.04.18-.04.18-.04.18-.05.17-.04.17-.05.17-.08.07zm.08-.07l-.02.06-.06.01.08-.07zM31.53 31l.19-.03-.12-.08.19-.05.2-.05.19-.05.19-.05.2-.05.19-.04.19-.05.2-.05.19-.05.2-.04.19-.05.2-.04.19-.05.2-.05.19-.04.2-.04.19-.05.2-.04.19-.04.2-.05.2-.04.19-.04.2-.04.2-.05.19-.04.2-.04.2-.04.19-.04.2-.04.2-.04.2-.03.19-.04.04.2-.2.03-.19.04-.2.04-.2.04-.2.04-.19.04-.2.04-.19.04-.2.04-.2.05-.19.04-.2.04-.19.04-.2.05-.19.04-.2.04-.19.05-.2.04-.19.05-.2.04-.19.05-.2.04-.19.05-.19.05-.2.04-.19.05-.2.05-.19.05-.19.05-.19.04-.2.05-.19.05-.12-.08zm.12.08l-.1.03-.02-.11.12.08zm-.78-7.62h.2l.01.17v.56l.01.2.01.21.01.21v.22l.02.23.01.23.01.24.02.24.01.25.02.24.02.25.02.26.02.25.02.26.02.26.03.26.02.26.03.25.03.26.03.26.03.25.03.25.04.25.03.25.04.24.04.24.03.23.04.23-.19.03-.04-.23-.04-.23-.04-.24-.04-.24-.03-.25-.04-.25-.03-.25-.03-.26-.03-.26-.03-.25-.03-.26-.02-.26-.03-.26-.02-.26-.02-.26-.02-.26-.02-.25-.02-.25-.02-.25-.02-.25-.01-.24-.01-.24-.02-.23-.01-.23-.01-.22v-.22l-.01-.21-.01-.2v-.38l-.01-.18v-.17zm2.63-6.03l.03.2-.22.05-.2.04-.19.06-.18.07-.16.07-.16.08-.14.09-.13.1-.12.1-.11.12-.11.12-.09.13-.08.14-.08.15-.07.16-.07.17-.05.18-.05.19-.05.2-.04.21-.03.23-.03.23-.02.24-.02.26-.02.26-.01.28-.01.29-.01.3v.97l-.01.34h-.2v-.68l.01-.32v-.31l.01-.31.01-.29.01-.28.02-.26.02-.26.02-.25.03-.24.03-.23.04-.22.05-.21.05-.2.06-.18.07-.19.08-.17.08-.16.09-.15.11-.15.11-.13.12-.12.13-.12.15-.11.15-.09.17-.09.18-.08.19-.07.2-.06.21-.05.23-.05z" class="fil1"/></g><g><path d="M4.74 14.87c.02.11.03.21.03.32 0 .94-.89 1.71-1.98 1.71-.46 0-.89-.14-1.23-.37C4.57 8.25 11.86.54 20.72.1c.14.12.28.24.41.36-.35-.04-.71-.07-1.08-.09 1.37 4.48.97 10.82.45 17.8-.07.01-.13.01-.2.01-.83 0-1.5-.76-1.5-1.71 0-.07.01-.15.01-.22l-.75-.08c-.09.83-.62 1.47-1.28 1.47-.71 0-1.28-.76-1.28-1.71v-.01l-.73-.07c-.05.89-.61 1.59-1.29 1.59-.71 0-1.29-.76-1.29-1.71v-.13l-.64-.06v.05c0 .94-.58 1.71-1.29 1.71-.71 0-1.29-.77-1.29-1.71 0-.1.01-.21.02-.3l-.7-.07c.01.06.01.13.01.2 0 .94-.58 1.71-1.29 1.71-.71 0-1.29-.77-1.29-1.71 0-.16.01-.31.04-.45l-1.02-.1z" class="fil5"/><path id="1" d="M4.87 15.19h-.2V15.07l-.01-.01v-.07l-.01-.01v-.05l-.01-.01v-.03l.2-.04v.04l.01.01v.04l.01.01v.09l.01.01V15.19zM2.79 17v-.2h.1l.09-.01.1-.01.09-.01.09-.02.09-.02.09-.03.09-.03.08-.03.08-.04.08-.04.08-.04.07-.04.07-.05.07-.05.07-.06.06-.05.06-.06.05-.06.05-.07.05-.06.05-.07.04-.07.04-.07.03-.07.03-.07.02-.08.02-.08.02-.08.01-.08.01-.08v-.08h.2v.09l-.01.1-.01.09-.02.09-.02.09-.03.08-.04.09-.03.08-.05.08-.04.08-.05.07-.06.08-.06.07-.06.07-.06.06-.07.07-.08.06-.07.05-.08.06-.08.05-.09.04-.08.05-.09.03-.09.04-.1.03-.09.03-.1.03-.1.02-.11.01-.1.01-.1.01h-.11zm-1.32-.5l.19.07-.04-.12.03.02.03.02.03.02.03.02.04.02.03.01.03.02.04.02.03.01.03.02.04.01.03.02.04.01.04.01.03.01.04.02.04.01.03.01.04.01.04.01h.04l.04.01.04.01h.04l.04.01.04.01h.08l.04.01h.12v.2h-.13l-.05-.01h-.09l-.04-.01-.04-.01h-.05l-.04-.01-.04-.01-.04-.01-.05-.01-.04-.01-.04-.01-.04-.01-.04-.01-.04-.02-.04-.01-.04-.02-.04-.01-.04-.02-.03-.01-.04-.02-.04-.02-.04-.02-.03-.02-.04-.02-.03-.02-.04-.02-.03-.02-.03-.02-.04-.12zm.04.12l-.07-.05.03-.07.04.12zM20.78.03l-.13.15.07.02-.82.07-.81.1-.8.14-.79.18-.78.22-.77.26-.75.29-.75.32-.73.36-.71.39-.71.41-.68.45-.68.48-.66.5-.64.53-.63.55-.6.57-.6.6-.57.62-.55.63-.54.66-.52.67-.49.68-.48.71-.45.71-.44.73-.41.73-.38.75-.37.76-.34.76-.32.76-.29.78-.19-.07.29-.78.32-.77.35-.77.37-.76.39-.75.41-.74.44-.74.45-.72.48-.7.5-.69.52-.68.54-.66.56-.64.58-.62.59-.6.62-.58.63-.56.65-.53.66-.51.68-.48.7-.45.71-.42.72-.39.74-.36.75-.33.77-.29.77-.26.79-.22.8-.19.81-.14.82-.11.83-.06.07.03zM20.71 0h.04l.03.03-.07-.03zm.41.56l.02-.2-.08.18-.01-.01-.01-.02-.01-.01-.01-.01L21 .48l-.01-.01-.01-.01-.02-.01-.01-.01-.01-.02-.02-.01-.01-.01-.01-.01-.01-.01-.02-.01-.01-.01-.01-.01-.02-.02-.01-.01-.01-.01L20.8.3l-.02-.01-.01-.01-.01-.01-.02-.01-.01-.01-.01-.01-.01-.02-.02-.01-.01-.01-.01-.01-.02-.01.13-.15.02.01.01.01.02.01.01.01.01.01.01.01.02.01.01.01.01.01.02.02.01.01.01.01.02.01.01.01.01.01.01.02.02.01.01.01.01.01.02.01.01.01.01.01.01.01.02.02.01.01.01.01.01.01.02.01.01.01.02.02.01.01.01.01-.08.17zm.08-.17l.24.21-.32-.04.08-.17zM20.15.34l-.2.06.11-.13h.1l.03.01H20.3l.03.01h.1l.04.01h.1l.03.01h.07l.03.01h.07l.04.01h.06l.04.01h.07l.03.01h.07l.03.01h.03l-.02.2h-.03l-.04-.01h-.06l-.04-.01h-.06l-.04-.01h-.06l-.04-.01h-.06l-.04-.01h-.1L20.52.5h-.07l-.03-.01h-.1l-.04-.01h-.13l-.04-.01h-.06l.1-.13zm-.2.06l-.04-.14.15.01-.11.13zm.56 17.87l-.03-.2-.08.09.04-.65.05-.65.05-.64.04-.64.05-.64.04-.63.04-.62.03-.62.03-.62.03-.6.03-.61.02-.59.01-.59.01-.58.01-.58V7.77l-.01-.55-.02-.55-.02-.54-.03-.52-.04-.53-.04-.51-.05-.5-.06-.49-.07-.49-.07-.47-.09-.47-.09-.45-.1-.45-.11-.43-.13-.42.2-.06.12.43.11.44.11.44.09.46.09.47.07.48.07.49.06.5.05.5.05.52.03.52.03.53.02.54.02.55.01.56v1.71l-.02.58-.01.59-.02.6-.03.61-.03.6-.03.62-.03.62-.04.63-.04.63-.04.63-.05.64-.05.65-.04.64-.05.66-.09.09zm.09-.09l-.01.08-.08.01.09-.09zm-.3.1v-.2H20.44v-.01h.04l.03.2h-.04l-.01.01H20.3zm-1.6-1.81h.2v.09l.01.08.01.08.01.08.02.08.02.07.02.08.02.07.03.08.03.06.04.07.03.07.04.06.05.06.04.06.05.06.05.05.05.05.05.05.05.04.06.04.06.04.06.04.06.03.06.03.07.02.06.02.07.02.07.01.07.01.07.01h.07v.2h-.08l-.08-.01-.08-.01-.08-.01-.08-.02-.08-.03-.07-.03-.08-.03-.07-.04-.07-.04-.06-.04-.07-.05-.06-.05-.06-.05-.06-.06-.05-.06-.06-.06-.05-.07-.05-.07-.04-.07-.04-.07-.04-.08-.03-.08-.04-.08-.02-.08-.03-.08-.02-.09-.02-.09-.01-.08-.01-.09-.01-.09v-.1zm.1-.12l.02-.21.09.12v.11h-.01V16.47h-.2V16.34l.01-.01V16.23l.09.12zm.02-.21l.11.01-.02.11-.09-.12zm-.75-.07l.75.07-.02.21-.75-.08-.09-.11.11-.09zm-.11.09l.01-.1.1.01-.11.09zm-1.18 1.58v-.2h.06l.05-.01h.06l.05-.02.05-.01.05-.02.05-.02.05-.02.05-.03.05-.03.04-.03.05-.03.04-.04.05-.04.04-.04.04-.05.04-.05.03-.04.04-.06.03-.05.04-.06.03-.06.03-.06.02-.06.03-.06.02-.07.02-.06.02-.07.02-.07.01-.07.01-.08.01-.07.2.02-.01.08-.01.08-.02.08-.01.08-.02.07-.03.08-.02.07-.03.07-.03.07-.03.07-.04.06-.03.06-.04.06-.04.06-.05.06-.04.05-.05.05-.04.05-.05.05-.05.04-.06.04-.05.04-.06.04-.06.03-.06.03-.06.02-.06.02-.06.02-.07.01-.06.01-.07.01h-.07zm-1.39-1.81h.21V16.1l.01.08.01.08.02.08.01.08.02.07.02.08.03.07.02.07.03.07.04.06.03.07.04.06.03.05.04.06.05.05.04.05.04.05.05.04.05.05.05.03.05.04.05.03.06.03.05.02.05.02.06.02.06.01.06.01.06.01h.05v.2h-.07l-.07-.01-.07-.01-.07-.02-.07-.02-.07-.02-.06-.03-.07-.04-.06-.03-.06-.04-.06-.05-.05-.05-.06-.05-.05-.05-.05-.06-.05-.06-.04-.06-.05-.07-.04-.07-.03-.07-.04-.07-.03-.08-.03-.07-.03-.08-.02-.08-.03-.09-.01-.08-.02-.09-.01-.09-.01-.09v-.09l-.01-.09zm.21-.01v.01h-.21v-.01l.12-.1.09.1zm-.09-.1l.09.01v.09l-.09-.1zm-.74-.07l.74.07-.02.2-.73-.07-.1-.1.11-.1zm-.11.1l.01-.11.1.01-.11.1zm-1.18 1.69v-.2h.05l.06-.01.06-.01.05-.01.06-.01.05-.02.05-.02.05-.03.05-.03.05-.03.05-.04.05-.03.04-.05.05-.04.04-.04.04-.05.04-.06.04-.05.04-.06.03-.05.03-.07.03-.06.03-.06.03-.07.02-.07.02-.07.02-.07.02-.08.01-.07.01-.08.01-.08v-.07l.21.01-.01.08-.01.09-.01.08-.02.08-.01.09-.03.07-.02.08-.02.08-.03.07-.03.08-.04.07-.03.06-.04.07-.04.06-.05.06-.04.06-.05.06-.05.05-.05.05-.05.05-.06.04-.05.04-.06.04-.06.04-.06.03-.07.03-.06.02-.07.02-.06.01-.07.01-.07.01h-.07zm-1.39-1.81h.2v.09l.01.08v.08l.02.08.01.08.02.08.01.07.03.08.02.07.03.07.03.07.03.06.03.07.04.06.04.05.04.06.04.05.04.05.05.05.04.04.05.05.05.03.05.04.06.03.05.03.05.02.06.02.05.02.06.01.06.01.06.01h.06v.2h-.07l-.08-.01-.07-.01-.07-.02-.07-.02-.06-.02-.07-.03-.06-.03-.06-.04-.07-.04-.05-.05-.06-.04-.05-.06-.06-.05-.05-.06-.04-.06-.05-.06-.04-.07-.04-.07-.04-.07-.04-.07-.03-.08-.03-.07-.03-.08-.02-.08-.02-.09-.02-.08-.01-.09-.02-.09-.01-.09v-.18zm.09-.03l.02-.2.09.1v.02-.01V15.73h-.2v-.05.01-.04.01-.03.01-.03.01-.03l.09.11zm.02-.2l.1.01-.01.09-.09-.1zm-.64-.06l.64.06-.02.2-.64-.06-.09-.1.11-.1zm-.11.1l-.01-.12.12.02-.11.1zm.2.05h-.2v-.04.02-.03l.2-.01v.01l-.01-.02.01.01V15.59zm-1.39 1.81v-.2h.06l.06-.01.05-.01.06-.01.06-.02.05-.02.06-.02.05-.03.05-.03.05-.04.05-.04.05-.04.05-.04.04-.05.05-.05.04-.05.04-.06.04-.06.03-.06.04-.06.03-.07.03-.06.03-.07.02-.08.02-.07.02-.08.02-.07.01-.08.01-.08.01-.08.01-.09v-.08h.2v.09l-.01.09-.01.09-.01.09-.01.09-.02.08-.02.08-.03.09-.02.08-.03.07-.04.08-.03.07-.04.07-.04.07-.04.07-.05.06-.05.06-.05.06-.05.05-.05.05-.06.05-.06.05-.06.04-.06.03-.06.04-.07.03-.07.02-.07.02-.07.02-.07.01-.07.01h-.07zm-1.39-1.81h.2v.08l.01.09v.08l.01.08.02.08.01.07.02.08.03.07.02.08.03.07.03.06.03.07.03.06.04.06.04.06.04.06.04.05.04.05.05.05.04.04.05.04.05.04.05.04.06.03.05.03.05.02.06.02.05.02.06.01.06.01.06.01h.06v.2h-.08l-.07-.01-.07-.01-.07-.02-.07-.02-.06-.02-.07-.03-.06-.04-.07-.03-.06-.04-.05-.05-.06-.05-.05-.05-.06-.05-.05-.06-.05-.06-.04-.06-.04-.07-.04-.07-.04-.07-.04-.07-.03-.08-.03-.07-.03-.08-.02-.09-.02-.08-.02-.08-.02-.09-.01-.09-.01-.09v-.18zm.11-.2l.02-.2.09.11v.02l-.01.01v.09l-.01.01v.16h-.2V15.4l.01-.01v-.09l.01-.01v-.02l.09.12zm.02-.2l.1.01-.01.1-.09-.11zm-.7-.07l.7.07-.02.2-.7-.07-.09-.09.11-.11zm-.11.11l-.01-.12.12.01-.11.11zm.21.19h-.2v-.11l-.01-.01v-.07l.2-.02v.05l.01.01v.15zm-1.39 1.81v-.2h.06l.06-.01.06-.01.05-.01.06-.02.05-.02.06-.03.05-.02.05-.04.05-.03.05-.04.05-.04.05-.04.05-.05.04-.05.04-.05.04-.06.04-.06.03-.06.04-.06.03-.07.03-.06.03-.07.02-.08.02-.07.02-.08.02-.07.01-.08.01-.08.01-.08.01-.09v-.08h.2v.09l-.01.09-.01.09-.01.09-.01.09-.02.08-.02.08-.03.09-.02.07-.03.08-.04.08-.03.07-.04.07-.04.07-.04.07-.05.06-.05.06-.05.06-.05.05-.05.05-.06.05-.06.04-.06.05-.06.03-.06.04-.07.02-.07.03-.06.02-.07.02-.08.01-.07.01h-.07zm-1.39-1.81h.2v.08l.01.09v.08l.02.08.01.08.02.07.01.08.03.07.02.08.03.07.03.06.03.07.03.06.04.06.04.06.04.06.04.05.04.05.05.05.05.04.04.04.05.04.05.03.06.04.05.02.05.03.06.02.06.02.05.01.06.01.06.01h.06v.2h-.07l-.08-.01-.07-.01-.07-.02-.07-.02-.06-.03-.07-.02-.06-.04-.06-.03-.06-.05-.06-.04-.06-.05-.05-.05-.06-.05-.05-.06-.04-.06-.05-.06-.04-.07-.04-.07-.04-.07-.04-.07-.03-.08-.03-.08-.03-.07-.02-.09-.02-.08-.02-.08-.01-.09-.02-.09-.01-.09v-.18zm.13-.35l.02-.2.09.12v.04l-.01.01v.04l-.01.02V15.16l-.01.02V15.27l-.01.01V15.42h-.2v-.18l.01-.02v-.07l.01-.01v-.08l.01-.01v-.04l.01-.02v-.04l.09.12zm.02-.2l.11.01-.02.11-.09-.12zm-1.02-.1l1.02.1-.02.2-1.02-.1-.09-.08.11-.12zm-.11.12l-.03-.13.14.01-.11.12z" class="fil1"/></g><g><path d="M22.21 16.35l.93-.08c.04.89.6 1.6 1.28 1.6.72 0 1.29-.77 1.29-1.71v-.1l1.07-.07c.03.9.53 1.62 1.13 1.62.62 0 1.13-.76 1.13-1.71v-.05l.73-.04c.04.88.53 1.57 1.12 1.57.62 0 1.12-.74 1.13-1.67l1.01-.05c.08.81.55 1.44 1.11 1.44.6 0 1.09-.71 1.13-1.61l1.24-.12c.39.86 1.3 1.41 2.08 1.26C35.7 8.37 28.98.81 20.05.37c1.37 4.47.97 10.8.45 17.77.06.01.12.01.18.01.77 0 1.41-.78 1.53-1.8z" class="fil4"/><path id="1" d="M23.14 16.37l-.92.08-.02-.2.93-.08.11.09-.1.11zm-.01-.2l.1-.01.01.1-.11-.09zm1.29 1.6v.2h-.07l-.07-.01-.06-.01-.07-.02-.07-.01-.06-.03-.07-.03-.06-.03-.06-.03-.06-.04-.05-.04-.06-.04-.05-.05-.05-.05-.05-.06-.05-.05-.05-.06-.04-.06-.04-.07-.04-.06-.03-.07-.04-.07-.03-.08-.03-.07-.02-.08-.03-.08-.02-.08-.01-.08-.02-.08-.01-.08-.01-.09-.01-.09.21-.01v.08l.01.08.01.08.01.07.02.08.02.07.02.07.02.07.03.07.03.06.03.07.03.06.03.06.04.05.04.06.04.05.04.05.04.05.05.04.04.04.05.04.05.03.05.04.05.03.05.02.05.02.05.02.06.02.05.01.06.01.06.01h.05zm1.19-1.61h.2v.18l-.01.09-.01.09-.02.09-.02.08-.02.08-.02.09-.03.08-.03.07-.03.08-.04.07-.04.07-.04.07-.04.07-.04.06-.05.06-.05.06-.05.05-.06.05-.06.05-.05.04-.06.05-.07.03-.06.04-.07.03-.06.02-.07.02-.07.02-.07.01-.07.01h-.08v-.2h.06l.06-.01.06-.01.06-.01.05-.02.06-.02.05-.02.06-.03.05-.03.05-.04.05-.04.05-.04.04-.04.05-.05.04-.05.04-.05.04-.06.04-.06.04-.06.03-.06.03-.07.03-.06.03-.07.03-.08.02-.07.02-.07.01-.08.02-.08.01-.08.01-.08V16.16zm.09-.2l.02.21.09-.11v.01-.01.03-.01.04-.01.05h-.2v-.04.01-.03.01-.04l.09-.11zm-.09.11v-.1l.09-.01-.09.11zm1.18.02l-1.07.08-.02-.21 1.08-.08.1.1-.09.11zm-.01-.21h.1v.1l-.1-.1zm1.13 1.63v.2h-.06l-.07-.01-.06-.01-.06-.01-.06-.02-.06-.03-.05-.03-.06-.03-.05-.03-.06-.04-.05-.05-.05-.04-.04-.05-.05-.05-.04-.06-.04-.05-.04-.06-.04-.07-.03-.06-.04-.07-.03-.07-.03-.07-.03-.07-.02-.08-.02-.08-.02-.07-.02-.09-.01-.08-.02-.08-.01-.09v-.08l-.01-.09.2-.01.01.08v.08l.01.08.01.08.02.07.01.08.02.07.02.07.02.07.03.07.03.06.02.07.03.06.03.05.04.06.03.05.04.05.04.05.04.04.04.05.04.03.04.04.04.03.05.03.04.03.05.02.04.02.05.01.05.02h.04l.05.01h.05zm1.03-1.61h.2v.18l-.01.09-.01.09-.02.09-.01.08-.02.09-.02.08-.03.08-.02.07-.03.08-.03.07-.03.07-.04.07-.04.07-.04.06-.04.06-.04.06-.05.05-.05.05-.05.05-.05.04-.05.05-.06.03-.05.04-.06.03-.06.02-.06.03-.07.01-.06.01-.06.01h-.07v-.2h.05l.05-.01.05-.01.05-.01.05-.01.04-.03.05-.02.04-.03.05-.03.05-.03.04-.04.04-.04.04-.04.04-.05.04-.05.03-.05.04-.06.03-.06.04-.06.02-.06.03-.07.03-.07.02-.07.02-.07.02-.07.02-.08.02-.08.01-.08.01-.08v-.08l.01-.08v-.09zm.09-.15l.01.2.1-.11v.02-.02V15.9h-.2v-.04.02-.03l.09-.1zm-.09.1l-.01-.1h.1l-.09.1zm.83.06l-.73.04-.01-.2.73-.04.11.1-.1.1zm-.01-.2h.1l.01.1-.11-.1zm1.13 1.57v.21l-.06-.01h-.06l-.06-.01-.06-.02-.06-.02-.06-.02-.05-.03-.06-.03-.05-.03-.05-.04-.05-.04-.05-.05-.05-.04-.04-.05-.05-.06-.04-.05-.04-.06-.03-.06-.04-.06-.03-.07-.04-.07-.02-.06-.03-.07-.03-.08-.02-.07-.02-.08-.02-.08-.02-.08-.01-.08-.01-.08-.01-.09v-.08l.2-.01v.08l.01.07.01.08.01.08.02.07.02.07.01.07.02.07.03.07.02.06.03.06.03.06.03.06.03.06.03.05.04.05.03.05.04.04.04.05.04.04.04.03.04.04.04.03.05.03.04.02.04.02.05.02.04.02.05.01.05.01h.09zm1.13-1.68l.01.21.09-.1v.09l-.01.08v.09l-.01.09-.02.08-.01.09-.02.08-.03.08-.02.08-.03.07-.02.08-.04.07-.03.07-.03.06-.04.07-.04.06-.04.06-.05.06-.04.05-.05.05-.05.05-.05.04-.05.04-.06.04-.05.03-.06.03-.06.03-.06.02-.06.01-.07.02h-.06l-.07.01v-.21h.1l.05-.01.05-.02.05-.01.04-.02.05-.03.04-.02.05-.03.04-.04.05-.03.04-.04.04-.05.04-.04.03-.05.04-.05.04-.06.03-.05.03-.06.03-.07.03-.06.03-.07.02-.07.02-.07.02-.07.02-.08.01-.07.02-.08.01-.08v-.08l.01-.08v-.09l.1-.1zm-.1.1v-.09l.1-.01-.1.1zm1.11.06l-1 .05-.01-.21 1-.04.11.09-.1.11zm-.01-.2l.1-.01.01.1-.11-.09zM34.14 17v.2h-.06l-.06-.01-.05-.01-.06-.01-.06-.02-.05-.02-.06-.03-.05-.02-.05-.03-.05-.04-.05-.04-.04-.04-.05-.04-.04-.05-.05-.04-.04-.05-.03-.06-.04-.05-.04-.06-.03-.06-.03-.06-.03-.06-.03-.07-.03-.07-.02-.07-.02-.07-.02-.07-.02-.07-.02-.08-.01-.08-.01-.07-.01-.08.2-.02.01.07.01.07.01.07.01.07.02.07.02.07.02.06.02.06.03.06.02.06.03.06.03.05.03.06.03.05.03.05.03.04.04.05.04.04.03.04.04.03.04.04.04.03.04.03.04.02.04.02.05.02.04.02.04.01.05.01.04.01.05.01h.04zm1.12-1.61l.02.2.09-.09-.01.08v.09l-.01.08-.02.09-.01.08-.02.08-.02.08-.02.07-.03.08-.02.07-.03.07-.03.07-.04.07-.03.06-.04.06-.04.06-.04.06-.04.05-.05.05-.05.05-.05.05-.05.04-.05.04-.05.03-.06.03-.05.03-.06.02-.06.02-.06.02-.06.01-.07.01h-.06V17h.05l.05-.01.05-.01.04-.01.05-.01.04-.02.05-.03.04-.02.05-.03.04-.03.04-.04.04-.03.04-.04.04-.05.04-.05.03-.05.04-.05.03-.05.03-.06.03-.06.03-.06.03-.06.02-.07.03-.07.02-.07.01-.07.02-.07.02-.08.01-.07.01-.08v-.08l.01-.08.09-.1zm-.09.1v-.09l.09-.01-.09.1zm1.35-.02l-1.24.12-.02-.2 1.24-.12.1.06-.08.14zm-.02-.2l.07-.01.03.07-.1-.06zm2 1.39l.19-.06-.08.13-.08.01-.07.01-.09.01h-.08l-.08-.01-.08-.01-.08-.01-.08-.01-.08-.02-.08-.02-.08-.03-.07-.03-.08-.03-.08-.04-.07-.04-.08-.04-.07-.05-.07-.05-.07-.05-.07-.06-.07-.05-.06-.06-.06-.07-.06-.06-.06-.07-.06-.07-.05-.07-.05-.08-.05-.07-.05-.08-.04-.09-.04-.08.18-.08.04.07.04.08.04.07.05.07.04.07.05.07.05.06.06.06.05.06.06.06.06.06.06.05.06.05.07.05.06.04.07.04.07.04.06.04.07.03.07.03.07.03.07.02.08.02.07.02.07.01.07.01.07.01.07.01h.07l.07-.01.07-.01.06-.01-.07.13zm.19-.06l.04.11-.12.02.08-.13zM20.15.34l-.2.06.11-.13.83.06.82.1.81.15.8.18.78.22.76.25.76.29.73.32.72.36.71.38.69.42.67.45.65.47.64.5.62.52.61.55.58.57.57.6.55.61.53.64.51.65.49.67.47.68.46.7.43.72.41.72.39.74.37.74.35.76.33.76.31.77.28.78-.19.06-.28-.77-.31-.76-.32-.76-.35-.75-.37-.74-.39-.73-.4-.72-.43-.71-.45-.69-.47-.68-.49-.67-.51-.65-.52-.62-.55-.61-.56-.59-.58-.57-.6-.54-.62-.52-.63-.5-.65-.47-.66-.44-.68-.41-.7-.38-.71-.35-.73-.32-.74-.29-.76-.25-.77-.22-.79-.18-.8-.14-.81-.1-.82-.06.1-.13zm-.2.06l-.04-.14.15.01-.11.13zm.57 17.64l-.04.2-.08-.11.05-.65.04-.65.05-.64.05-.64.04-.63.04-.63.04-.62.03-.62.03-.62.03-.6.03-.6.02-.6.01-.59.01-.58.01-.57V7.76l-.01-.55-.02-.55-.02-.54-.03-.52-.04-.52-.04-.51-.05-.51-.06-.49-.07-.48-.07-.48-.09-.46-.09-.45-.1-.45-.11-.43-.13-.42.2-.06.12.43.11.44.11.44.09.46.09.47.07.48.07.49.06.49.05.51.05.51.03.52.03.53.02.54.02.55.01.56V9.46l-.02.59-.01.59-.02.59-.03.61-.03.6-.03.62-.03.62-.04.62-.04.63-.04.64-.05.63-.04.65-.05.64-.05.66-.08-.11zm-.04.2l-.09-.02.01-.09.08.11zm.2-.19v.2H20.54l-.01-.01h-.05l.04-.2h.04l.01.01h.11zm1.52-1.8l.02.2.09-.09-.01.1-.02.09-.02.1-.02.09-.03.09-.02.09-.03.09-.04.09-.03.08-.04.08-.04.08-.05.08-.04.07-.05.07-.05.07-.05.07-.06.06-.06.06-.05.06-.07.05-.06.05-.06.04-.07.05-.07.03-.07.04-.07.03-.07.02-.07.02-.08.02-.08.01-.07.01h-.08v-.2h.06l.07-.01.06-.01.07-.01L21 18l.06-.02.06-.03.06-.02.06-.04.06-.03.05-.04.06-.05.05-.04.05-.05.05-.06.05-.05.05-.06.04-.06.05-.07.04-.06.04-.07.04-.08.03-.07.04-.08.03-.08.02-.08.03-.08.02-.09.02-.08.02-.09.02-.09.01-.1.09-.08zm-.09.08l.01-.08h.08l-.09.08z" class="fil1"/></g><g><path d="M22.21 16.35l.93-.08c.04.89.6 1.6 1.28 1.6.72 0 1.29-.77 1.29-1.71v-.1l1.07-.07c.03.9.53 1.62 1.13 1.62.62 0 1.13-.76 1.13-1.71v-.05l.73-.04c.04.88.53 1.57 1.12 1.57.62 0 1.12-.74 1.13-1.67l1.01-.05c.08.81.55 1.44 1.11 1.44.6 0 1.09-.71 1.13-1.61l1.24-.12c.39.86 1.3 1.41 2.08 1.26-.35-1-.75-1.99-1.21-2.95-5.16.55-10.68.76-16.61.55-.08 1.27-.17 2.58-.27 3.91.06.01.12.01.18.01.77 0 1.41-.78 1.53-1.8z" class="fil2"/><path id="1" d="M23.14 16.37l-.92.08-.02-.2.93-.08.11.09-.1.11zm-.01-.2l.1-.01.01.1-.11-.09zm1.29 1.6v.2h-.07l-.07-.01-.06-.01-.07-.02-.07-.01-.06-.03-.07-.03-.06-.03-.06-.03-.06-.04-.05-.04-.06-.04-.05-.05-.05-.05-.05-.06-.05-.05-.05-.06-.04-.06-.04-.07-.04-.06-.03-.07-.04-.07-.03-.08-.03-.07-.02-.08-.03-.08-.02-.08-.01-.08-.02-.08-.01-.08-.01-.09-.01-.09.21-.01v.08l.01.08.01.08.01.07.02.08.02.07.02.07.02.07.03.07.03.06.03.07.03.06.03.06.04.05.04.06.04.05.04.05.04.05.05.04.04.04.05.04.05.03.05.04.05.03.05.02.05.02.05.02.06.02.05.01.06.01.06.01h.05zm1.19-1.61h.2v.18l-.01.09-.01.09-.02.09-.02.08-.02.08-.02.09-.03.08-.03.07-.03.08-.04.07-.04.07-.04.07-.04.07-.04.06-.05.06-.05.06-.05.05-.06.05-.06.05-.05.04-.06.05-.07.03-.06.04-.07.03-.06.02-.07.02-.07.02-.07.01-.07.01h-.08v-.2h.06l.06-.01.06-.01.06-.01.05-.02.06-.02.05-.02.06-.03.05-.03.05-.04.05-.04.05-.04.04-.04.05-.05.04-.05.04-.05.04-.06.04-.06.04-.06.03-.06.03-.07.03-.06.03-.07.03-.08.02-.07.02-.07.01-.08.02-.08.01-.08.01-.08V16.16zm.09-.2l.02.21.09-.11v.01-.01.03-.01.04-.01.05h-.2v-.04.01-.03.01-.04l.09-.11zm-.09.11v-.1l.09-.01-.09.11zm1.18.02l-1.07.08-.02-.21 1.08-.08.1.1-.09.11zm-.01-.21h.1v.1l-.1-.1zm1.13 1.63v.2h-.06l-.07-.01-.06-.01-.06-.01-.06-.02-.06-.03-.05-.03-.06-.03-.05-.03-.06-.04-.05-.05-.05-.04-.04-.05-.05-.05-.04-.06-.04-.05-.04-.06-.04-.07-.03-.06-.04-.07-.03-.07-.03-.07-.03-.07-.02-.08-.02-.08-.02-.07-.02-.09-.01-.08-.02-.08-.01-.09v-.08l-.01-.09.2-.01.01.08v.08l.01.08.01.08.02.07.01.08.02.07.02.07.02.07.03.07.03.06.02.07.03.06.03.05.04.06.03.05.04.05.04.05.04.04.04.05.04.03.04.04.04.03.05.03.04.03.05.02.04.02.05.01.05.02h.04l.05.01h.05zm1.03-1.61h.2v.18l-.01.09-.01.09-.02.09-.01.08-.02.09-.02.08-.03.08-.02.07-.03.08-.03.07-.03.07-.04.07-.04.07-.04.06-.04.06-.04.06-.05.05-.05.05-.05.05-.05.04-.05.05-.06.03-.05.04-.06.03-.06.02-.06.03-.07.01-.06.01-.06.01h-.07v-.2h.05l.05-.01.05-.01.05-.01.05-.01.04-.03.05-.02.04-.03.05-.03.05-.03.04-.04.04-.04.04-.04.04-.05.04-.05.03-.05.04-.06.03-.06.04-.06.02-.06.03-.07.03-.07.02-.07.02-.07.02-.07.02-.08.02-.08.01-.08.01-.08v-.08l.01-.08v-.09zm.09-.15l.01.2.1-.11v.02-.02V15.9h-.2v-.04.02-.03l.09-.1zm-.09.1l-.01-.1h.1l-.09.1zm.83.06l-.73.04-.01-.2.73-.04.11.1-.1.1zm-.01-.2h.1l.01.1-.11-.1zm1.13 1.57v.21l-.06-.01h-.06l-.06-.01-.06-.02-.06-.02-.06-.02-.05-.03-.06-.03-.05-.03-.05-.04-.05-.04-.05-.05-.05-.04-.04-.05-.05-.06-.04-.05-.04-.06-.03-.06-.04-.06-.03-.07-.04-.07-.02-.06-.03-.07-.03-.08-.02-.07-.02-.08-.02-.08-.02-.08-.01-.08-.01-.08-.01-.09v-.08l.2-.01v.08l.01.07.01.08.01.08.02.07.02.07.01.07.02.07.03.07.02.06.03.06.03.06.03.06.03.06.03.05.04.05.03.05.04.04.04.05.04.04.04.03.04.04.04.03.05.03.04.02.04.02.05.02.04.02.05.01.05.01h.09zm1.13-1.68l.01.21.09-.1v.09l-.01.08v.09l-.01.09-.02.08-.01.09-.02.08-.03.08-.02.08-.03.07-.02.08-.04.07-.03.07-.03.06-.04.07-.04.06-.04.06-.05.06-.04.05-.05.05-.05.05-.05.04-.05.04-.06.04-.05.03-.06.03-.06.03-.06.02-.06.01-.07.02h-.06l-.07.01v-.21h.1l.05-.01.05-.02.05-.01.04-.02.05-.03.04-.02.05-.03.04-.04.05-.03.04-.04.04-.05.04-.04.03-.05.04-.05.04-.06.03-.05.03-.06.03-.07.03-.06.03-.07.02-.07.02-.07.02-.07.02-.08.01-.07.02-.08.01-.08v-.08l.01-.08v-.09l.1-.1zm-.1.1v-.09l.1-.01-.1.1zm1.11.06l-1 .05-.01-.21 1-.04.11.09-.1.11zm-.01-.2l.1-.01.01.1-.11-.09zM34.14 17v.2h-.06l-.06-.01-.05-.01-.06-.01-.06-.02-.05-.02-.06-.03-.05-.02-.05-.03-.05-.04-.05-.04-.04-.04-.05-.04-.04-.05-.05-.04-.04-.05-.03-.06-.04-.05-.04-.06-.03-.06-.03-.06-.03-.06-.03-.07-.03-.07-.02-.07-.02-.07-.02-.07-.02-.07-.02-.08-.01-.08-.01-.07-.01-.08.2-.02.01.07.01.07.01.07.01.07.02.07.02.07.02.06.02.06.03.06.02.06.03.06.03.05.03.06.03.05.03.05.03.04.04.05.04.04.03.04.04.03.04.04.04.03.04.03.04.02.04.02.05.02.04.02.04.01.05.01.04.01.05.01h.04zm1.12-1.61l.02.2.09-.09-.01.08v.09l-.01.08-.02.09-.01.08-.02.08-.02.08-.02.07-.03.08-.02.07-.03.07-.03.07-.04.07-.03.06-.04.06-.04.06-.04.06-.04.05-.05.05-.05.05-.05.05-.05.04-.05.04-.05.03-.06.03-.05.03-.06.02-.06.02-.06.02-.06.01-.07.01h-.06V17h.05l.05-.01.05-.01.04-.01.05-.01.04-.02.05-.03.04-.02.05-.03.04-.03.04-.04.04-.03.04-.04.04-.05.04-.05.03-.05.04-.05.03-.05.03-.06.03-.06.03-.06.03-.06.02-.07.03-.07.02-.07.01-.07.02-.07.02-.08.01-.07.01-.08v-.08l.01-.08.09-.1zm-.09.1v-.09l.09-.01-.09.1zm1.35-.02l-1.24.12-.02-.2 1.24-.12.1.06-.08.14zm-.02-.2l.07-.01.03.07-.1-.06zm2 1.39l.19-.06-.08.13-.08.01-.07.01-.09.01h-.08l-.08-.01-.08-.01-.08-.01-.08-.01-.08-.02-.08-.02-.08-.03-.07-.03-.08-.03-.08-.04-.07-.04-.08-.04-.07-.05-.07-.05-.07-.05-.07-.06-.07-.05-.06-.06-.06-.07-.06-.06-.06-.07-.06-.07-.05-.07-.05-.08-.05-.07-.05-.08-.04-.09-.04-.08.18-.08.04.07.04.08.04.07.05.07.04.07.05.07.05.06.06.06.05.06.06.06.06.06.06.05.06.05.07.05.06.04.07.04.07.04.06.04.07.03.07.03.07.03.07.02.08.02.07.02.07.01.07.01.07.01.07.01h.07l.07-.01.07-.01.06-.01-.07.13zm.19-.06l.04.11-.12.02.08-.13zm-1.3-2.82l-.02-.2.1.05.04.1.05.09.04.09.04.09.04.09.04.09.04.09.05.1.04.09.04.09.04.09.04.09.04.1.03.09.04.09.04.09.04.1.04.09.03.09.04.1.04.09.03.09.04.09.04.1.03.09.04.1.03.09.04.09.03.1.03.09.04.09.03.1-.19.06-.03-.09-.04-.09-.03-.09-.04-.1-.03-.09-.03-.09-.04-.1-.03-.09-.04-.09-.03-.1-.04-.09-.04-.09-.03-.09-.04-.09-.04-.1-.04-.09-.03-.09-.04-.09-.04-.1-.04-.09-.04-.09-.04-.09-.04-.09-.04-.09-.04-.09-.04-.1-.04-.09-.04-.09-.04-.09-.05-.09-.04-.09-.04-.09.1.06zm-.02-.2l.07-.01.03.06-.1-.05zm-16.5.65l-.2-.01.11-.1.55.02.55.02.55.01.55.01.54.01.55.01h.54l.53.01h.54l.53-.01h.53l.53-.01.53-.01.52-.01.52-.01.52-.02.52-.02.51-.02.51-.02.51-.03.51-.03.51-.03.5-.03.5-.03.5-.04.5-.04.5-.04.49-.04.49-.05.49-.04.48-.05.49-.05.02.2-.48.05-.49.05-.49.05-.49.04-.5.04-.49.04-.5.04-.5.04-.5.03-.51.03-.51.03-.5.03-.52.03-.51.02-.51.02-.52.02-.52.02-.52.01-.53.01-.53.01-.53.01h-.53l-.53.01H24.6l-.54-.01h-.54l-.54-.01-.55-.02-.55-.01-.55-.02-.56-.01.1-.1zm-.2-.01l.01-.1h.1l-.11.1zm-.15 3.82l-.04.2-.08-.11.01-.12.01-.13.01-.12.01-.13v-.12l.01-.13.01-.12.01-.12.01-.13.01-.12.01-.12.01-.13.01-.12.01-.12v-.12l.01-.13.01-.12.01-.12.01-.12.01-.12.01-.13v-.12l.01-.12.01-.12.01-.12.01-.12v-.12l.01-.12.01-.12.01-.12.01-.12v-.12l.2.01v.12l-.01.12-.01.12-.01.12v.12l-.01.12-.01.12-.01.12-.01.13v.12l-.01.12-.01.12-.01.12-.01.12-.01.13-.01.12v.12l-.01.12-.01.13-.01.12-.01.12-.01.13-.01.12-.01.12-.01.13v.12l-.01.12-.01.13-.01.12-.01.13-.01.12-.01.13-.08-.11zm-.04.2l-.09-.02.01-.09.08.11zm.2-.19v.2H20.54l-.01-.01h-.05l.04-.2h.04l.01.01h.11zm1.52-1.8l.02.2.09-.09-.01.1-.02.09-.02.1-.02.09-.03.09-.02.09-.03.09-.04.09-.03.08-.04.08-.04.08-.05.08-.04.07-.05.07-.05.07-.05.07-.06.06-.06.06-.05.06-.07.05-.06.05-.06.04-.07.05-.07.03-.07.04-.07.03-.07.02-.07.02-.08.02-.08.01-.07.01h-.08v-.2h.06l.07-.01.06-.01.07-.01L21 18l.06-.02.06-.03.06-.02.06-.04.06-.03.05-.04.06-.05.05-.04.05-.05.05-.06.05-.05.05-.06.04-.06.05-.07.04-.06.04-.07.04-.08.03-.07.04-.08.03-.08.02-.08.03-.08.02-.09.02-.08.02-.09.02-.09.01-.1.09-.08zm-.09.08l.01-.08h.08l-.09.08z" class="fil1"/></g></g></g></svg>