<svg xmlns="http://www.w3.org/2000/svg" width="64" height="63" fill-rule="evenodd" clip-rule="evenodd" image-rendering="optimizeQuality" shape-rendering="geometricPrecision" text-rendering="geometricPrecision" viewBox="0 0 6.99 6.79"><defs><style>.fil3{fill:#6fa691}.fil1{fill:#2b2a29;fill-rule:nonzero}</style></defs><g id="Слой_x0020_1"><g id="_612701296"><path fill="#99cfba" d="M5.22 3.18l.47-1.89.46.11c-.22.87-.25.94-.47 1.8-.06.38.24.67.51.97.34.36.27.63.11 1.09-.16.44-.45 1.08-.68 1.51-.62-.14-1.16-.26-1.76-.41-.25-.6-.21-1.21-.03-1.94.1-.37.29-.57.56-.67.5-.12.76-.31.83-.57z"/><path id="1" d="M5.71 1.29l-.47 1.9-.04-.01.47-1.9.02-.01.02.02zm-.04-.01l.01-.01h.01l-.02.01zm.48.14l-.46-.11v-.04l.47.12.01.02-.02.01zm.01-.03h.02l-.01.02-.01-.02zM5.7 3.2h-.04l.02-.08.02-.08.02-.07.02-.06.01-.07.02-.06.01-.05.02-.06.01-.05.02-.05.01-.05.01-.04.01-.05.01-.04.02-.05.01-.04.01-.05.01-.04.01-.04.02-.05.01-.05.01-.04.02-.05.01-.06.01-.05.02-.06.01-.06.02-.06.02-.07.02-.07.02-.07.02-.08.03.01-.02.08-.02.07-.02.07-.01.07-.02.06-.02.06-.01.06-.02.05-.01.06-.01.05-.02.04-.01.05-.01.05-.01.04-.01.04-.02.05-.01.04-.01.04-.01.05-.01.04-.02.05-.01.05-.01.05-.02.05-.01.06-.02.05-.01.06-.02.07-.02.06-.01.07-.02.08-.02.08V3.2zm-.04 0zm.54.96l-.02.03-.03-.03-.02-.03-.03-.03-.03-.03-.02-.03-.03-.02L6 3.99l-.03-.03-.02-.03-.02-.03-.03-.03-.02-.03-.02-.02-.02-.03-.02-.03-.02-.03-.02-.03-.02-.03-.02-.04-.01-.03-.02-.03-.01-.03-.01-.03-.01-.04-.01-.03-.01-.03v-.04l-.01-.03v-.07l.01-.04V3.2h.04l-.01.04v.13l.01.03.01.03v.03l.01.04.01.03.02.03.01.03.02.03.01.03.02.03.02.03.02.03.02.02.02.03.02.03.02.03.02.03.03.03.02.03.03.02.02.03.03.03.02.03.03.03.02.02.03.03.02.03zm-.02.03zm.14 1.08l-.04-.01.02-.05.01-.04.02-.04.01-.04.01-.04.01-.03.01-.04.01-.04.01-.03.01-.04v-.03l.01-.03v-.07l.01-.03v-.03l-.01-.03v-.06l-.01-.03-.01-.03-.01-.03-.01-.03-.01-.03-.02-.03-.02-.03-.02-.03-.02-.04-.02-.03-.03-.03-.02-.03-.03-.03.02-.03.03.03.03.04.03.03.02.03.03.04.02.03.01.03.02.03.01.03.02.03.01.04v.03l.01.03.01.03v.17l-.01.03v.04l-.01.03v.04l-.01.03-.01.04-.01.04-.01.03-.02.04-.01.04-.01.04-.02.05-.01.04zm-.7 1.52l.01-.04-.02.01.02-.04.02-.04.02-.04.03-.05.02-.04.02-.05.02-.05.03-.04.02-.05.02-.05.03-.05.02-.05.02-.05.03-.05.02-.05.02-.05.02-.05.03-.05.02-.05.02-.05.02-.05.02-.05.02-.04.02-.05.02-.05.02-.05.02-.04.02-.05.01-.04.02-.05.02-.04.01-.04.04.01-.02.04-.01.04-.02.05-.02.04-.02.05-.01.05-.02.04-.02.05-.02.05-.02.05-.02.05-.03.05-.02.05-.02.05-.02.05-.02.05-.03.05-.02.05-.02.05-.03.05-.02.05-.02.05-.03.05-.02.04-.02.05-.03.05-.02.04-.02.05-.02.04-.03.05-.02.04-.02.04-.02.01zm.02-.01l-.01.01h-.01l.02-.01zm-1.8-.42l.03-.01-.01-.01.06.01.05.02.06.01.05.01.06.02.05.01.06.02.05.01.06.01.05.01.06.02.05.01.05.01.06.02.05.01.06.01.05.01.05.02.06.01.05.01.06.01.05.02.06.01.05.01.06.01.05.02.06.01.06.01.05.01.06.02.06.01.06.01-.01.04-.06-.02-.06-.01-.05-.01-.06-.01-.06-.02-.05-.01-.06-.01-.05-.01-.06-.01-.06-.02L5 6.65l-.06-.01-.05-.01-.05-.02-.06-.01-.05-.01-.06-.01-.05-.02-.05-.01-.06-.01-.05-.02-.06-.01-.05-.01-.06-.02-.05-.01-.05-.01-.06-.02-.06-.01-.05-.01-.06-.02-.05-.01-.06-.02-.01-.01zm.01.01h-.01v-.01l.01.01zm-.04-1.95l.04.01v-.01l-.02.07-.02.07-.01.07-.02.06-.01.07-.01.06-.01.06-.01.07-.01.06-.01.06v.07l-.01.06v.06l-.01.06v.29l.01.06v.06l.01.06.01.05.01.06.01.06.01.05.02.06.01.06.02.05.02.06.02.05.02.06-.03.01-.02-.05-.02-.06-.02-.06-.02-.05-.02-.06-.01-.06-.01-.05-.02-.06-.01-.06v-.06l-.01-.06-.01-.05v-.06l-.01-.06v-.18l.01-.06v-.13l.01-.06.01-.06v-.06l.01-.07.01-.06.01-.07.02-.06.01-.07.01-.06.02-.07.01-.07.02-.06zm0 0zm.57-.69l.01.04h.01l-.03.01-.02.01-.03.01-.02.01-.02.01-.02.01-.03.02-.02.01-.02.01-.02.02-.02.01-.02.02-.02.02-.01.02-.02.01-.02.02-.02.02-.01.03-.02.02-.01.02-.02.02-.01.03-.02.02-.01.03-.02.03-.01.03-.01.02-.01.04-.01.03-.01.03-.01.03-.01.04-.04-.01.01-.04.01-.03.01-.04.01-.03.02-.03.01-.03.01-.03.01-.03.02-.02.01-.03.02-.03.01-.02.02-.02.02-.03.01-.02.02-.02.02-.02.02-.02.02-.02.02-.02.02-.01.02-.02.02-.02.02-.01.03-.02.02-.01.02-.01.02-.01.03-.01.02-.02.03-.01h.02v-.01zm0 .01v-.01.01zm.82-.56l.04.01-.01.02-.01.02-.01.03-.01.02-.01.03-.02.02-.01.02-.01.02-.02.02-.02.03-.02.02-.02.02-.02.02-.02.02-.03.01-.02.02-.03.02-.03.02-.03.02-.03.01-.03.02-.03.02-.04.01-.03.02-.04.01-.04.01-.04.02-.04.01-.04.01-.05.02-.04.01-.05.01-.01-.04.05-.01.05-.01.04-.01.04-.01.04-.02.04-.01.04-.01.03-.02.04-.01.03-.02.03-.01.03-.02.03-.02.03-.01.03-.02.03-.02.02-.01.02-.02.02-.02.03-.02.01-.02.02-.02.02-.02.02-.02.01-.02.01-.02.02-.02.01-.02.01-.03.01-.02V3.2l.01-.02zm.04.01h-.01.01z" class="fil1"/><path fill="#f5b2b6" d="M6.61 1.25c.2-.11.31-.28.35-.52C7 .47 6.97.3 6.7.21 6.38.12 6.12.04 5.68.02c-.17.02-.3.09-.35.31-.04.23-.07.47.07.63.19.15.29.31.27.49.15.04.3.08.45.11.08-.24.32-.2.49-.31zM5.8.26c-.18 0-.25.12-.26.29 0 .2.05.32.17.38.2.1.44.12.69.12.11.01.18-.02.23-.11.09-.18.09-.27.08-.35C6.68.35 6.04.28 5.8.26z"/><path id="1" d="M6.94.72l.03.01v.04L6.96.8v.02l-.01.02-.01.02v.02L6.93.9l-.01.02v.02l-.01.02-.01.02-.01.02-.01.01-.01.02-.01.02-.01.01-.01.02-.02.02-.01.01-.01.02-.02.01-.01.02-.01.01-.02.01-.02.02-.01.01-.02.01-.02.01-.01.02-.02.01-.02.01-.02-.03.02-.01.02-.02.01-.01.02-.01.02-.01.01-.01.02-.01.01-.02.01-.01.02-.01.01-.02.01-.01.01-.02.02-.01.01-.02.01-.01.01-.02.01-.02.01-.01.01-.02V.94l.01-.01.01-.02.01-.02V.87l.01-.02V.83l.01-.02V.79l.01-.02V.74l.01-.02zm0 0zM6.69.23L6.71.2h.02l.02.01.03.01.02.01.02.01.02.02.01.01.02.01.02.01.01.02.01.01.01.02.01.01.01.02.01.01.01.02.01.02v.01l.01.02v.04l.01.02v.13l-.01.02V.7l-.01.03-.03-.01V.68l.01-.03V.48L6.94.46V.44L6.93.43V.41L6.92.4 6.91.38 6.9.37 6.89.36 6.88.34 6.87.33 6.86.32 6.85.31 6.83.3 6.82.29 6.8.28 6.78.27 6.76.26 6.74.25 6.72.24 6.69.23zM6.71.2zM5.69.04L5.68 0h.09l.03.01h.08l.03.01h.07l.04.01h.03l.03.01h.04l.03.01.03.01h.03l.03.01h.03l.03.01.03.01.03.01h.03l.03.01.03.01.02.01h.03l.03.01.03.01.03.01.03.01.03.01.03.01.03.01-.02.03-.02-.01-.03-.01L6.61.2 6.58.19h-.03L6.52.18 6.49.17 6.46.16 6.44.15h-.03L6.38.14 6.35.13 6.32.12h-.03L6.26.11 6.23.1H6.2L6.17.09h-.03L6.11.08 6.08.07h-.07L5.98.06h-.03L5.91.05h-.07L5.8.04h-.12.01zM5.68 0h.01-.01zm-.33.33L5.31.32 5.32.3V.28l.01-.02V.25l.01-.02.01-.02.01-.01.01-.02.01-.01V.15l.01-.01.01-.01.02-.01.01-.01.01-.02.01-.01h.01l.02-.01.01-.01.01-.01.02-.01h.01l.01-.01h.02l.01-.01h.02L5.6.01h.03L5.65 0h.03l.01.04h-.05l-.01.01H5.6l-.02.01h-.01l-.01.01h-.02l-.01.01h-.01l-.01.01L5.5.1l-.02.01h-.01l-.01.01-.01.01-.01.01-.01.01-.01.01-.01.02v.01L5.4.2l-.01.01-.01.02v.01l-.01.02-.01.02v.01l-.01.02v.02zM5.31.32zm.11.63l-.03.03V.97L5.38.96 5.36.94 5.35.92 5.34.9 5.33.89 5.32.87V.85L5.31.83 5.3.81V.79L5.29.77V.73L5.28.71V.52L5.29.5V.43L5.3.41V.37l.01-.02V.32l.04.01-.01.02V.4l-.01.02v.06L5.32.5V.73l.01.02v.03l.01.02.01.02v.02l.01.01.01.02v.02l.01.01.01.02.02.01.01.02zm-.03.03V.97v.01zm.28.45l-.01.04-.01-.02v-.13l-.01-.01v-.02l-.01-.01v-.02l-.01-.01v-.02l-.01-.01-.01-.02-.01-.01-.01-.02-.01-.01-.01-.01-.01-.02-.01-.01-.01-.02-.02-.01-.01-.02-.01-.01-.02-.01-.01-.02-.02-.01L5.43 1 5.41.99 5.39.98l.03-.03.01.01.02.02.02.01.01.01.02.02.01.01.02.02.01.01.01.02.02.01.01.02.01.01.01.02.01.01.01.02.01.02.01.01.01.02.01.01v.02l.01.02v.01l.01.02v.03l.01.02v.1l-.02-.02zm-.01.04l-.01-.01v-.01l.01.02zm.44.09l.03.01-.02.01h-.03l-.01-.01h-.01l-.02-.01h-.03L6 1.55h-.03l-.01-.01h-.03l-.01-.01H5.9l-.01-.01h-.03l-.01-.01h-.03L5.8 1.5h-.01l-.01-.01h-.03l-.02-.01h-.02l-.02-.01h-.03l.01-.04h.02l.01.01h.03l.01.01h.02l.01.01h.03l.01.01h.03l.01.01h.03l.02.01h.01l.01.01h.03l.02.01h.02l.02.01h.01l.02.01h.02l.02.01h.03l.01.01-.02.01zm.03.01v.02l-.02-.01.02-.01zm.47-.33l.02.03-.02.01-.02.01-.01.01h-.02l-.02.01-.02.01h-.02l-.01.01h-.02l-.02.01h-.02l-.01.01h-.02l-.02.01-.02.01h-.01l-.02.01H6.3l-.01.01-.02.01-.01.01-.02.01-.01.01-.01.01-.02.01-.01.01-.01.02-.01.01-.01.02-.01.02-.01.02-.01.02-.03-.01.01-.02.01-.03.01-.02.01-.02.01-.01.01-.02.02-.01.01-.02.02-.01.01-.01.02-.01.02-.01.01-.01.02-.01.02-.01h.01l.02-.01.02-.01h.02l.01-.01h.02l.02-.01h.02l.02-.01h.01l.02-.01h.02l.02-.01.01-.01.02-.01h.02l.01-.01zm0 0zM5.56.55h-.04V.5l.01-.01V.46l.01-.02V.41L5.55.4V.39l.01-.02.01-.01V.35l.01-.01.01-.01.01-.01.01-.01.01-.01.01-.01.01-.01h.01l.01-.01.01-.01h.02L5.7.25h.03l.02-.01h.04l.01.04h-.08l-.01.01H5.7L5.69.3h-.01l-.01.01h-.01l-.01.01-.01.01h-.01v.01l-.01.01-.01.01v.01L5.6.38l-.01.01V.4l-.01.01v.01l-.01.02v.02l-.01.02V.55zm-.04 0zm.19.36L5.7.95 5.69.94 5.68.93h-.02L5.65.92 5.64.91V.9L5.63.89h-.01L5.61.88 5.6.87 5.59.86V.85L5.58.83 5.57.82V.81L5.56.8V.79L5.55.77V.76L5.54.75V.73L5.53.72V.67L5.52.66V.55h.04V.67l.01.01v.04l.01.02v.01l.01.01v.01l.01.01v.01l.01.02v.01l.01.01.01.01.01.01v.01l.01.01.01.01h.01l.01.01.01.01.01.01h.01zM5.7.95V.94v.01zm.7.09v.03h-.19l-.02-.01h-.07l-.02-.01h-.07l-.02-.01h-.02l-.02-.01h-.03l-.02-.01H5.9l-.02-.01h-.02L5.84 1 5.82.99H5.8L5.78.98 5.76.97 5.74.96 5.72.95H5.7l.01-.04.02.01.02.01.02.01.02.01h.02l.02.01.02.01h.02l.02.01h.02l.02.01h.02l.02.01h.02l.03.01h.04l.02.01h.07l.02.01h.18l.03.01h.02zm0 0zm.22-.11l.03.02-.01.01-.01.01v.01l-.01.01h-.01V1l-.01.01-.01.01-.01.01-.01.01h-.01l-.01.01h-.01l-.01.01H6.5v.01H6.4v-.03H6.46v-.01h.04l.01-.01h.02l.01-.01h.01V1h.01l.01-.01.01-.01.01-.01V.96h.01V.95l.01-.01.01-.01zm.03.02V.94v.01zm.04-.36l.04-.01v.16l-.01.01v.02l-.01.02v.02L6.7.82v.02l-.01.01v.02l-.01.01-.01.02v.01l-.01.02-.01.02-.03-.02V.91L6.63.9l.01-.02.01-.01V.85l.01-.01V.83l.01-.02V.79l.01-.01V.75l.01-.01V.7L6.7.69V.6h-.01V.59zm.04-.01zM5.8.28L5.79.24h.06l.03.01h.06l.03.01H6l.04.01h.04l.03.01h.04l.04.01.04.01h.03l.04.01.04.01.03.01.04.01.03.01.04.01.03.02.03.01.03.02.03.01.02.02.03.01.02.02.02.02.01.02.02.02v.03l.01.02-.04.01V.57L6.68.55 6.67.53 6.66.52 6.64.5 6.62.48 6.6.47 6.58.45 6.55.44 6.53.42 6.5.41 6.47.4 6.43.39 6.4.38 6.36.37 6.33.36 6.29.35 6.26.34 6.22.33h-.04L6.14.32 6.11.31h-.04L6.03.3H6L5.97.29H5.9L5.87.28h-.08.01zM5.79.24h.01-.01z" class="fil1"/><g><path d="M4.03 6.37c-.06-.79.03-1.38.29-1.77.38-.61 1.6-.27 1.57.41-.02.45-.25 1.06-.53 1.7.03.01.06.02.1.02.31-.55.64-1.48.66-1.83.01-.24-.11-.55-.39-.73-.39-.24-1-.28-1.28-.08-.65.46-.59 1.74-.48 2.27.02 0 .04 0 .06.01z" class="fil3"/><path id="1" d="M4.3 4.59l.03.02-.02.03-.02.04-.02.04-.02.04-.02.04-.02.05-.02.04-.02.04-.01.05-.02.05-.01.05-.01.05-.02.05-.01.05-.01.05-.01.06v.05l-.01.06-.01.06v.05l-.01.07v.06l-.01.06v.33l.01.07v.07l.01.07v.08h-.04v-.08L4 6.22V6.01l-.01-.07v-.06L4 5.81v-.19l.01-.06V5.5l.01-.06.01-.05.01-.06.01-.06.01-.05.01-.05.01-.05.01-.05.02-.05.01-.05.02-.05.02-.04.01-.05.02-.04.02-.05.02-.04.02-.04.03-.04.02-.03zm.03.02V4.6v.01zm1.58.4h-.04v-.06l-.01-.06-.01-.06-.02-.05-.03-.05-.03-.05-.03-.05-.04-.04-.05-.04-.05-.04-.05-.04-.05-.03-.06-.03-.06-.03-.07-.02-.06-.02-.06-.02-.07-.01-.07-.01h-.19l-.07.01-.06.02-.06.02-.06.02-.05.03-.06.03-.04.03-.05.05-.04.04-.04.06-.03-.02.04-.06.04-.05.05-.04.05-.04.06-.04.06-.03.06-.02.06-.02.07-.01.06-.01.07-.01h.07l.07.01.07.01.06.01.07.01.07.02.06.03.06.02.06.04.06.03.05.04.06.04.04.04.05.05.03.05.04.05.02.06.03.05.01.06.01.07v.06zm0 0zm-.55 1.68v.04l-.02-.03.03-.06.02-.06.03-.06.03-.05.02-.06.02-.06.03-.06.02-.06.02-.06.03-.05.02-.06.02-.06.02-.05.02-.06.02-.05.02-.06.01-.05.02-.05.02-.06.01-.05.02-.05.01-.05.01-.05.01-.05.01-.05.01-.04.01-.05.01-.05v-.04l.01-.05v-.08h.04v.04l-.01.05v.04l-.01.05v.05l-.01.04-.01.05-.01.05-.01.05-.01.05-.02.05-.01.05-.02.05-.01.06-.02.05-.02.05-.02.06-.02.05-.02.06-.02.06-.02.05-.02.06-.02.06-.02.05-.03.06-.02.06-.03.06-.02.06-.03.06-.02.06-.03.06-.02.06-.02-.03zm0 .04l-.03-.01.01-.02.02.03zm.08-.01l.03.02-.02.01h-.02l-.01-.01h-.04v-.01h-.02v-.04h.01v.01h.04v.01h.05l-.02.01zm.03.02l-.01.01h-.01l.02-.01zM6.1 4.9h.04v.04l-.01.03v.04l-.01.05-.01.05-.01.04-.01.06-.02.05-.01.06-.02.05-.02.06-.02.06-.02.06-.02.07-.02.06-.02.07-.03.06-.02.07-.03.06-.02.07-.03.06-.03.07-.02.06-.03.07-.03.06-.03.07-.03.06-.03.06-.03.06-.03.05-.03.06-.03.05-.03-.02.03-.05.03-.05.03-.06.03-.06.03-.06.03-.06.03-.06.02-.07.03-.06.03-.07.03-.06.02-.07.03-.06.03-.07.02-.06.02-.07.03-.06.02-.07.02-.06.02-.06.02-.06.01-.06.02-.05.02-.06.01-.05.01-.05.01-.05.01-.05.01-.04.01-.04V4.9zm.04 0zm-.42-.71l.02-.04.03.02.02.02.03.02.02.02.02.02.02.02.02.02.02.02.02.03.02.02.02.02.01.03.02.02.01.02.02.03.01.02.01.03.01.02.01.03.01.02.01.03.01.03v.02l.01.03.01.02v.05l.01.03V4.9H6.1V4.79l-.01-.03v-.02l-.01-.03v-.02l-.01-.02-.01-.03v-.02l-.01-.03-.01-.02-.01-.03-.01-.02L6 4.5l-.01-.03-.01-.02-.02-.02-.01-.03-.02-.02-.02-.02-.01-.02-.02-.02-.02-.02-.02-.02-.03-.02-.02-.02-.02-.02-.03-.02-.02-.01zm-1.26-.08l-.02-.03.03-.02.03-.02.03-.02.03-.01L4.6 4l.04-.02.03-.01h.04l.04-.01.04-.01h.04l.05-.01h.17l.05.01h.04l.05.01.04.01.05.01.04.01.05.01.04.01.05.01.04.02.04.01.04.02.04.02.04.02.04.02.04.02-.02.04-.04-.03-.03-.02-.04-.02-.04-.01-.04-.02-.04-.02-.05-.01-.04-.02-.04-.01-.05-.01-.04-.01L5.23 4h-.05l-.04-.01-.05-.01h-.25l-.04.01h-.04L4.72 4l-.04.01-.03.01-.04.01-.03.01-.03.02-.03.01-.03.02-.03.02zm0 0zm-.49 2.23l-.01.03-.01-.01-.01-.05-.01-.06-.01-.06-.01-.06-.01-.07v-.07l-.01-.07-.01-.07v-.4l.01-.09v-.08l.01-.08.01-.09.02-.08.01-.08.02-.08.02-.08.03-.08.03-.08.03-.07.03-.08.04-.06.04-.07.04-.06.05-.06.05-.06.06-.05.06-.04.02.03-.06.04-.05.05-.05.05-.05.06-.04.06-.04.06-.04.07-.03.07-.03.07-.03.08-.02.08-.02.07-.02.08-.02.09-.01.08-.01.08-.01.08-.01.09V5.84l.01.08v.07l.01.07.01.06.01.07v.06l.01.05.01.05-.01-.01zm-.01.03h-.01v-.01l.01.01zm.05 0h.04l-.02.02v-.01H3.97v-.01h-.01l.01-.03h.04v.01h.03l-.03.02zm.04 0v.02h-.02l.02-.02z" class="fil1"/></g><g><path fill="#c4d985" d="M3.74 1.38L3.3 4.97c-.14.65-2.48.83-2.77-.01L.02 1.5l3.72-.12z"/><path id="1" d="M3.28 4.97l.44-3.59.03.01-.44 3.58v.01l-.03-.01zm.03 0v.01-.01zM.52 4.96l.03-.01.03.07.05.07.05.06.06.06.07.05.08.05.09.04.09.04.1.03.11.03.11.02.11.01.12.02h.11l.12.01.12-.01h.12l.12-.01.11-.02.12-.01.1-.03.11-.02.1-.03.09-.04.09-.03.08-.04.07-.05.06-.04.05-.05.04-.05.03-.06.02-.05.03.01-.02.06-.03.06-.04.05-.06.06-.06.04-.07.05-.09.04-.08.04-.1.03-.1.03-.11.03-.11.02-.11.02-.12.01-.12.01-.12.01h-.24l-.12-.01-.11-.01-.12-.02-.11-.02-.11-.03-.1-.03-.09-.03-.09-.05-.09-.05-.07-.05-.07-.06-.05-.07-.05-.07-.03-.08zm0 0zM.04 1.49l.51 3.46-.03.01L0 1.5l.02-.02.02.01zM0 1.5v-.02h.02L0 1.5zm3.74-.1l-3.72.11v-.03l3.71-.11.02.02-.01.01zm-.01-.03h.03l-.01.02-.02-.02z" class="fil1"/><path fill="#a1b567" d="M1.85.8c1.03 0 1.88.26 1.88.61s-.85.64-1.88.64C.83 2.05.02 1.78.02 1.43.02 1.07.83.8 1.85.8z"/><path id="1" d="M3.75 1.41h-.04v-.06l-.02-.03-.01-.03-.02-.02-.03-.03-.03-.03-.03-.03-.04-.02-.04-.03-.04-.02-.05-.03-.05-.02-.06-.02-.06-.03-.06-.02-.06-.02-.07-.02-.07-.01-.08-.02-.07-.01-.08-.02-.08-.01-.08-.01-.09-.01-.08-.01-.09-.01-.09-.01h-.09l-.1-.01h-.19V.78l.1.01h.19l.09.01h.09l.09.01.09.01.08.01.08.01.09.02.08.01.07.01.08.02.07.02.07.02.06.02.07.02.06.02.05.02.06.03.05.02.04.03.05.03.03.02.04.03.03.03.03.03.02.03.02.04.01.03.01.04v.03zm-1.9.66v-.04h.19l.1-.01h.09l.09-.01.09-.01.08-.01.09-.01.08-.01.08-.02.08-.01.07-.02.08-.02.07-.02.07-.02.06-.02.06-.02.06-.02.06-.03.05-.02.05-.03.04-.02.04-.03.04-.03.03-.02.03-.03.03-.03.02-.03.01-.03.02-.03v-.06h.04v.04l-.01.03-.01.04-.02.03-.02.03-.03.03-.03.03-.04.03-.03.03-.05.03-.04.03-.05.02-.06.03-.05.02-.06.03-.07.02-.06.02-.07.02-.07.02-.08.02-.07.01-.08.02-.08.01-.09.01-.08.02-.09.01-.09.01h-.09l-.09.01h-.19l-.1.01zM0 1.43h.04v.03l.01.02.01.03.01.03.02.03.02.03.03.03.03.03.04.02.04.03.04.02.05.03.05.02.05.03.06.02.06.02.06.02.07.02.07.02.07.01.07.02.08.02.08.01.08.01.08.01.09.01.09.01.08.01h.09l.1.01h.18v.04l-.09-.01h-.19l-.09-.01h-.09l-.09-.01-.08-.01-.09-.01L1.05 2l-.08-.01-.07-.01-.08-.02-.07-.02-.07-.01-.07-.02-.06-.02-.06-.03-.06-.02-.06-.02-.05-.03-.05-.02-.04-.03-.04-.03-.04-.03-.03-.02-.03-.03-.03-.04-.02-.03-.02-.03-.01-.04L0 1.46v-.03zM1.85.78v.04h-.18l-.1.01h-.09L1.4.84l-.09.01-.09.01-.08.01-.08.01-.08.01L.9.91.83.93.76.94.69.96.62.98.56 1l-.06.02-.06.02-.05.03-.05.02-.05.03-.04.02-.04.03-.04.02-.03.03-.03.03-.02.03-.02.03-.01.03-.01.03-.01.02v.04H0v-.04l.01-.03.01-.04.02-.03.02-.03.03-.04.03-.03.03-.02.04-.03.04-.03.04-.03.05-.02.05-.03.06-.02.06-.02.06-.02.06-.03.07-.01.07-.02.07-.02L.9.87.97.86l.08-.01.08-.02.09-.01.08-.01.09-.01h.09l.09-.01h.19l.09-.01z" class="fil1"/><g><path fill="#f08bb2" fill-rule="nonzero" d="M.65 2.56c-.07-.11-.04-.26.07-.33.11-.07.26-.04.33.07.32.49.74.86 1.15 1.08.42.24.81.32 1.06.22.13-.06.23-.23.26-.42v-.03l.15-1.21c.02.03.03.06.05.11.13.49.21.91.16 1.24-.06.36-.25.61-.55.73-.38.16-.82.08-1.36-.22-.47-.26-.95-.68-1.32-1.24z"/><path id="1" d="M.71 2.22l.02.03H.72l-.01.01-.01.01v.01H.69l-.01.01-.01.01v.01l-.01.01v.01l-.01.01v.01l-.01.01v.03l-.01.01V2.46l.01.01v.03l.01.01v.01l.01.01v.01l.01.01-.03.02-.01-.01-.01-.01v-.01l-.01-.01v-.02L.6 2.5v-.05l-.01-.01v-.01l.01-.01v-.05l.01-.01v-.03l.01-.01v-.01l.01-.01.01-.01v-.01l.01-.01.01-.01.01-.01.01-.01.01-.01.01-.01h.01zm.35.07l-.03.02V2.3l-.01-.01-.01-.01v-.01H1l-.01-.01-.01-.01H.97l-.01-.01H.95l-.01-.01H.93v-.01H.89l-.01-.01H.81l-.01.01H.78l-.01.01H.76l-.01.01H.74l-.01.01-.02-.03.01-.01.01-.01h.01l.02-.01h.01l.01-.01h.05l.01-.01h.03l.01.01h.03l.02.01h.02l.01.01h.01l.01.01.01.01H1l.01.01.01.01.01.01.01.01.01.01.01.01v.01zm1.15 1.08l-.02.03-.04-.02-.04-.02-.03-.03-.04-.02L2 3.28l-.04-.02-.04-.03-.04-.03-.04-.03-.03-.03-.04-.03-.04-.03-.04-.03-.03-.03-.04-.03-.04-.04-.04-.03-.03-.04-.04-.03-.04-.04-.03-.04-.04-.04-.03-.04-.04-.04-.03-.04-.03-.04-.04-.04-.03-.04-.03-.05-.03-.04-.04-.04-.03-.05.03-.02.03.04.04.05.03.04.03.05.03.04.03.04.04.04.03.04.04.04.03.04.04.04.03.03.04.04.03.04.04.03.04.04.03.03.04.03.04.03.03.04.04.03.04.03.04.02.03.03.04.03.04.03.04.02.04.03.04.02.03.02.04.03.04.02zm1.04.21l.02.03-.03.01-.02.01-.03.01h-.03l-.02.01h-.03l-.03.01h-.12l-.03-.01h-.07l-.03-.01-.04-.01h-.03l-.04-.01-.03-.01-.04-.01-.04-.01-.03-.02-.04-.01-.04-.01-.04-.02-.03-.01-.04-.02-.04-.02-.04-.02-.04-.02-.04-.02-.04-.02.02-.03.04.02.04.02.04.02.03.02.04.02.04.01.04.02.04.01.03.02.04.01.04.01.03.01.04.01.03.01.04.01.03.01h.03l.04.01h.03l.03.01H3.1l.03-.01h.03l.02-.01h.03l.02-.01.02-.01zm.25-.4h.03v.04l-.01.02v.03l-.01.02-.01.02v.01l-.01.02v.02l-.01.01-.01.02v.01l-.01.02-.01.01-.01.02-.01.01-.01.02-.01.01-.01.01-.01.01-.01.02-.01.01-.01.01-.01.01-.01.01-.01.01-.01.01H3.3l-.01.01-.01.01h-.01l-.02-.03h.01l.01-.01.01-.01h.02l.01-.01.01-.01.01-.01.01-.01.01-.01.01-.01.01-.01.01-.01v-.01l.01-.01.01-.02.01-.01.01-.01.01-.02v-.01l.01-.02.01-.01v-.02l.01-.01v-.02l.01-.02.01-.01v-.04l.01-.01v-.02l.01-.02v-.01zm0 0v-.01.01zm0-.03h.04v.03H3.5v-.03zm0 0zm.02 0H3.5h.02zm-.02 0zm.19-1.21l-.15 1.21H3.5l.15-1.21.03-.01.01.01zm-.04 0l.01-.06.02.05-.03.01zm.09.1l-.03.01H3.7v-.02h-.01v-.02h-.01v-.02h-.01v-.02h-.01v-.02h-.01l.03-.02h.01v.02h.01v.02h.01v.02h.01V2l.01.01v.02h.01v.01zm0 0zm.16 1.25h-.04v-.03l.01-.03V2.89l-.01-.04v-.04l-.01-.04v-.04l-.01-.04v-.04l-.01-.04-.01-.04v-.04l-.01-.04-.01-.04-.01-.04-.01-.05-.01-.04-.01-.04-.01-.05-.01-.04-.01-.05-.01-.04-.01-.05.03-.01.01.05.01.04.02.05.01.04.01.05.01.04.01.05.01.04v.04l.01.04.01.05.01.04.01.04v.04l.01.04v.04l.01.04v.04l.01.03v.04l.01.04v.28l-.01.03v.06zm-.57.75l-.01-.03.03-.02.02-.01.03-.01.03-.02.02-.01.03-.02.02-.01.02-.02.02-.02.03-.01.02-.02.02-.02.02-.02.02-.02.01-.02.02-.02.02-.03.01-.02.02-.02.01-.03.02-.02.01-.03.01-.03.01-.03.02-.02.01-.03.01-.03v-.03l.01-.03.01-.04v-.03l.01-.03h.04l-.01.04-.01.03v.04l-.01.03-.01.03-.01.03-.01.03-.01.03-.01.03-.02.02-.01.03-.01.03-.02.02-.02.03-.01.02-.02.03-.02.02-.02.02-.02.02-.02.03-.02.02-.02.01-.02.02-.03.02-.02.02-.02.02-.03.01-.03.02-.02.01-.03.01-.03.02-.03.01zm-1.37-.22l.02-.04.05.03.05.03.05.02.05.03.05.02.04.02.05.02.05.02.04.01.05.02.04.01.04.02.05.01.04.01.04.01h.04l.05.01.04.01h.23l.04-.01h.04l.03-.01.04-.01.03-.01.04-.01.04-.01.03-.01.01.03-.03.01-.04.02-.04.01-.03.01-.04.01h-.04l-.04.01h-.04L3 4.12H2.83l-.04-.01h-.04l-.04-.01-.04-.01-.05-.01-.04-.01-.05-.01-.04-.01-.05-.02-.04-.01L2.35 4l-.04-.02-.05-.02-.05-.02-.05-.02-.05-.03-.05-.02-.05-.03-.05-.02zM.64 2.57l.03-.02.03.05.04.05.03.05.04.05.04.05.03.05.04.05.04.04.04.05.04.04.04.04.04.05.04.04.04.04.04.04.05.04.04.04.04.03.04.04.05.04.04.03.04.03.04.04.05.03.04.03.05.03.04.03.04.03.05.03.04.02.04.03.05.02-.02.04-.04-.03-.05-.03-.04-.02-.05-.03-.04-.03-.05-.03-.04-.03-.04-.03-.05-.03-.04-.04-.04-.03-.05-.04-.04-.03-.04-.04-.05-.04-.04-.04-.04-.04-.04-.04-.04-.04-.05-.04-.04-.04-.04-.05-.04-.04-.04-.05-.04-.04-.03-.05-.04-.05-.04-.05-.04-.04-.03-.06-.04-.05-.03-.05z" class="fil1"/></g><g><path d="M.89 2.33c.07 0 .14.07.14.15 0 .07-.07.14-.14.14-.08 0-.15-.07-.15-.14 0-.08.07-.15.15-.15z" class="fil3"/><path id="1" d="M1.05 2.48h-.04v-.04H1v-.02H.99v-.01L.98 2.4v-.01H.97v-.01H.96l-.01-.01H.94v-.01H.92l-.01-.01H.89v-.04.01h.05l.01.01h.01l.01.01h.01v.01h.01v.01H1v.01h.01v.01l.01.01.01.01v.01l.01.01v.03l.01.01v.02zm-.16.16V2.6h.03v-.01h.02v-.01h.01l.01-.01h.01v-.01h.01v-.01l.01-.01v-.01H1v-.02h.01v-.03h.04v.01l-.01.01v.03l-.01.01v.01l-.01.01v.01h-.01v.01H1v.01H.99v.01H.98v.01H.97l-.01.01H.95l-.01.01H.91l-.01.01H.89zm-.17-.16h.04v.02l.01.01v.02h.01v.01l.01.01v.01H.8v.01h.01l.01.01h.01v.01h.02v.01h.04v.04H.87l-.01-.01H.83l-.01-.01H.81L.8 2.61.79 2.6H.78v-.01H.77v-.01H.76v-.01H.75v-.01l-.01-.01v-.01l-.01-.01v-.04l-.01-.01zm.17-.17v.04H.86l-.01.01H.83v.01H.82l-.01.01H.8v.01H.79v.01l-.01.01v.01H.77v.02l-.01.01v.03H.72v-.01l.01-.01v-.04l.01-.01V2.4l.01-.01.01-.01v-.01h.01v-.01h.01v-.01h.01l.01-.01.01-.01h.01l.01-.01h.05l.01-.01z" class="fil1"/></g></g></g></g></svg>