<svg xmlns="http://www.w3.org/2000/svg" width="140" height="63" fill-rule="evenodd" clip-rule="evenodd" image-rendering="optimizeQuality" shape-rendering="geometricPrecision" text-rendering="geometricPrecision" viewBox="0 0 23.3 10.52"><defs><style>.fil2{fill:#2b2a29}.fil7{fill:#f08bb2}.fil4{fill:#6fa691}.fil8{fill:#99cfba}.fil3,.fil5{fill:#2b2a29;fill-rule:nonzero}</style></defs><g id="Слой_x0020_1"><g id="_1410073776"><path fill="#fefefe" d="M3.86 1.31c2.13 0 3.86 1.72 3.86 3.85S5.99 9.02 3.86 9.02.01 7.29.01 5.16s1.72-3.85 3.85-3.85z"/><path fill="#fefefe" d="M3.86 1.31c2.13 0 3.86 1.72 3.86 3.85 0 .78-.23 1.5-.62 2.1-.56.3-1.19.48-1.87.48-2.14 0-3.88-1.74-3.88-3.88 0-.75.21-1.44.58-2.04.57-.33 1.23-.51 1.93-.51z"/><path d="M3.19 5.49c-.18.63-.29 1.09-.42 1.46-.39.07-.77.16-1.44-.06C1 6.36.8 5.81.83 5.22c.24-.38.65-.63 1.12-.81.41.37.83.75 1.24 1.08zM4.8 4.91c.49.44.88.73 1.19.97.37-.15.52-.3.95-.85 0-.62-.1-1.11-.45-1.59-.41-.19-.77-.13-1.27-.03-.14.54-.25 1.01-.42 1.5zM4.01 7.97c-.07.39-.18.53-.23.75.21.13.86.22 1.36.12.51-.35.56-.32.94-.83-.34-.28-.37-.32-.54-.57-.43.25-.96.44-1.53.53zM2.31 2.84c-.23-.18-.48-.36-.68-.53.13-.22.6-.67 1.2-.87.32-.1 1.14-.04 1.34.1-.1.18-.13.29-.23.79-.58.08-1.19.26-1.63.51zM7.46 6.54c.05-.26.01-.66.09-.97.13-.22.17-.35.17-.32 0 .33-.13 1.03-.26 1.29zM.02 5.21c.05-.25.25-.48.25-.48.02-.28.08-1.18.08-1.15-.1.09-.43 1.19-.33 1.63zM2.74 8.85c-.43-.06-1.44-.87-1.59-1.26-.12-.04-.46-.23-.43-.22.36.48.67.96 2.02 1.48zM5.88 1.87c.21.25.44.53.75.82.13.12.28.2.43.35-.44-.78-1.09-1.08-1.18-1.17z" class="fil2"/><path d="M2.52 2.53c-.19.32-.35.66-.44 1.03-.09.37-.12.75-.08 1.17l.88.82c.31-.15.72-.31 1.19-.47.48-.16 1.02-.32 1.61-.48-.18-.64-.45-1.15-.8-1.54-.35-.4-.78-.69-1.27-.89l-1.09.36zm-.51 1.01c.1-.37.25-.73.46-1.06l.03.02-.01-.03L3.6 2.1l.01-.01.01.01c.51.21.95.5 1.32.91.36.41.64.94.81 1.61l.01.03-.03.01c-.6.16-1.15.32-1.63.48-.49.17-.9.33-1.21.49l-.03.01-.01-.02-.91-.85h-.01v-.02c-.05-.43-.01-.83.08-1.21zM6.08 5.4c-.02.1-.03.19-.05.29-.08.53-.18 1.16-.48 1.93l.42.39c.47-.1.82-.37 1.08-.72.33-.45.51-1.02.58-1.52-.14-.2-.55-.79-1-.81-.17.06-.21.13-.26.21-.06.08-.11.17-.29.23zm-.12.28c.02-.11.04-.21.05-.31l.01-.02.02-.01c.17-.05.22-.13.27-.21.05-.09.11-.17.31-.24h.01c.49.01.92.64 1.06.84v.01l.01.01v.01c-.07.52-.25 1.11-.59 1.57-.27.37-.65.65-1.14.76h-.02l-.01-.01-.46-.43-.01-.01.01-.03c.3-.77.4-1.39.48-1.93zM2.63 6.74c.2.27.48.56.79.82.26.21.55.39.86.52l.03.01-.01.03-.21.59-.01.02h-.02c-.38.06-.61.11-.76.14-.11.02-.17.03-.23.04-.09 0-.14-.01-.28-.04-.03-.01-.06-.01-.09-.02-.34-.07-.66-.19-.94-.36-.27-.16-.5-.36-.68-.62l-.01-.01v-.05c.04-.28.14-1.13.45-1.35l.01-.01c.21-.03.38.06.56.15.16.08.32.16.51.13h.02l.01.01zm.75.87c-.32-.25-.59-.54-.79-.81-.2.03-.37-.06-.54-.14-.16-.08-.32-.16-.5-.14-.28.21-.37 1.02-.41 1.3v.02c.18.25.4.44.65.59.28.17.59.28.92.35.05.01.07.02.1.02.13.03.18.04.25.04.05-.01.12-.02.22-.04.15-.03.37-.07.75-.13l.19-.54c-.3-.12-.58-.31-.84-.52z" class="fil3"/><path d="M1.14 5.36c-.25-.1-.46-.21-.63-.34-.16-.13-.29-.27-.37-.42l-.01-.01v-.01l.12-.92v-.02c.21-.36.44-.67.71-.92.27-.25.57-.45.89-.6v-.01l1.99-.62h.01c.71.01 1.2.1 1.56.2.36.11.58.24.76.34h.01c.1.09.17.18.25.27.07.08.15.17.24.25l.02.02-.01.02c-.02.14-.03.28-.04.42-.03.26-.05.51-.15.78l-.06-.02c.09-.26.11-.51.14-.77.01-.13.02-.26.04-.41-.09-.08-.16-.16-.24-.25-.07-.08-.14-.17-.24-.25-.17-.1-.39-.22-.74-.33-.35-.1-.84-.18-1.53-.2l-1.99.62c-.31.15-.6.34-.86.59-.26.25-.49.55-.69.9l-.12.9c.08.14.2.27.36.39.16.13.36.24.6.34l-.02.06z" class="fil3"/><g><path d="M16.53 1.86c.21 0 .41.03.6.09-.02-.23-.02-.44-.02-.62 0-.4 0-.61-.54-.61-.64 0-.63.16-.62.5 0 .21.01.45-.02.73.19-.06.39-.09.6-.09zm1.37.51c.49.42.8 1.06.8 1.77 0 1.27-.99 1.84-2.19 1.84s-2.15-.57-2.15-1.84c0-.74.34-1.4.86-1.82l-.05-.01c.11-.43.1-.79.09-1.07-.03-.83-.04-1.2 1.31-1.21 1.23-.01 1.23.45 1.23 1.3 0 .29 0 .64.1 1.04z" class="fil4"/><path id="1" d="M17.1 1.95h.06l-.04.02h-.01l-.02-.01h-.02l-.02-.01h-.03L17 1.94h-.02l-.02-.01h-.03l-.02-.01h-.04l-.02-.01h-.03l-.02-.01h-.08l-.02-.01H16.53v-.06H16.65l.02.01h.1l.02.01h.05l.02.01h.04l.02.01h.04l.01.01h.02l.02.01h.02l.02.01h.02l.02.01h.01l.02.01h.02l-.04.03zm.06 0v.04l-.04-.02.04-.02zm-.08-.62h.06V1.72l.01.02v.14l.01.02v.05h-.06v-.11l-.01-.02V1.62l-.01-.02V1.33zm-.51-.58V.69h.1l.04.01h.04l.04.01h.04l.03.01.03.01.03.01.03.01.02.02.02.01.02.02.02.02.02.02.02.02.01.02.01.02.01.03.01.02v.03l.01.02.01.03v.09l.01.03V1.33h-.06V1.1l-.01-.03v-.05l-.01-.03-.01-.02V.95l-.01-.02-.01-.02-.01-.02-.01-.02-.02-.01-.01-.02-.02-.01-.02-.01-.02-.02-.02-.01-.03-.01-.03-.01h-.03l-.03-.01h-.04L16.7.75h-.13zm-.59.47h-.06V1l.01-.03V.95l.01-.03.01-.02V.88l.02-.02.01-.02.01-.02.02-.01.02-.02.02-.01.03-.02.02-.01.03-.01.03-.01.04-.01h.03l.04-.01.04-.01h.09l.06-.01h.11v.06h-.16l-.05.01h-.08l-.04.01-.03.01-.03.01h-.03l-.03.01-.02.01-.02.01-.02.02-.01.01-.01.01-.02.02-.01.01v.02L16 .92l-.01.02v.02l-.01.02v.05l-.01.02v.14l.01.03zm-.06.7l.02.06-.04-.03.01-.03v-.1l.01-.03V1.22h.06V1.75l-.01.02v.1l-.01.03v.05l-.04-.03zm.02.06l-.04.01v-.04l.04.03zm.59-.15v.06H16.36l-.02.01h-.07l-.02.01h-.04l-.02.01h-.03l-.02.01h-.04l-.02.01h-.01l-.02.01h-.04l-.02.01h-.01l-.02.01-.02.01-.02-.06h.02l.02-.01h.02L16 1.9h.02l.01-.01h.02l.02-.01h.02l.02-.01h.04l.01-.01h.04l.02-.01h.06l.02-.01h.09l.02-.01H16.53zm2.2 2.31h-.06v-.19l-.01-.07-.01-.06-.01-.07-.01-.06-.01-.06-.02-.06-.01-.06-.02-.06-.02-.06-.02-.06-.02-.06-.03-.06-.02-.05-.03-.06-.03-.05-.02-.06-.04-.05-.03-.05-.03-.05-.03-.05-.04-.05-.04-.05-.04-.04-.04-.05-.04-.04-.04-.05-.04-.04-.04-.04-.05-.04.04-.04.04.04.05.04.04.04.04.05.05.04.04.05.04.05.03.05.04.05.04.05.03.05.03.05.03.06.03.05.03.06.03.05.03.06.02.06.02.06.02.06.02.06.02.06.02.06.01.07.02.06.01.07.01.06.01.07v.06l.01.07v.13zm-2.22 1.87v-.06h.22l.11-.01.1-.02.11-.01.1-.02.1-.02.1-.03.09-.03.1-.03.09-.03.09-.04.08-.05.08-.04.08-.05.08-.06.07-.05.07-.07.06-.06.06-.07.06-.07.05-.08.05-.08.04-.08.04-.09.04-.09.03-.09.02-.1.02-.1.01-.11.01-.11v-.12h.06v.12l-.01.12-.02.1-.02.11-.02.1-.03.1-.04.1-.04.09-.04.08-.05.08-.06.08-.05.08-.07.07-.06.06-.07.07-.08.06-.08.05-.08.05-.08.05-.09.05-.09.04-.09.03-.1.04-.1.03-.1.02-.1.03-.1.02-.11.01-.11.01-.11.01-.11.01h-.11zm-2.18-1.87h.06v.12l.01.11.01.11.02.1.03.1.02.09.04.09.03.09.05.08.04.08.05.08.06.07.05.07.07.06.06.07.07.05.08.06.07.05.08.04.08.05.09.04.09.03.09.03.09.03.1.03.1.02.1.02.1.01.11.02.11.01h.22v.06h-.12L16.28 6l-.11-.01-.1-.01-.11-.01-.1-.02-.1-.03-.1-.02-.1-.03-.09-.04-.09-.03-.09-.04-.09-.05-.08-.05-.08-.05-.07-.05-.07-.06-.07-.07-.07-.06-.06-.07-.05-.08-.06-.08-.04-.08-.05-.09-.04-.09-.03-.09-.03-.1-.02-.1-.02-.11-.02-.1v-.12l-.01-.12zm.89-1.79l.01-.06.01.05-.05.04-.04.04-.05.05-.04.04-.05.04-.04.05-.04.05-.04.04-.04.05-.04.06-.03.05-.04.05-.03.05-.03.06-.03.05-.03.06-.03.06-.02.06-.02.06-.03.06-.02.06-.02.06-.01.07-.02.06-.01.06-.02.07-.01.07v.06l-.01.07-.01.07v.13h-.06v-.07l.01-.07v-.07l.01-.06.01-.07.01-.07.01-.07.02-.06.01-.07.02-.06.02-.07.02-.06.02-.06.03-.06.02-.06.03-.06.03-.06.03-.06.03-.05.04-.06.03-.05.04-.06.04-.05.04-.05.04-.05.04-.05.04-.05.05-.04.04-.05.05-.04.05-.04.05-.04.01.05zm.01-.06l.06.02-.05.03-.01-.05zm-.06-.01l.06.01-.01.06-.06-.02-.02-.03.03-.02zm-.01.05h-.03l.01-.03.02.03zm.07-1.09h.06v.45l-.01.03v.1l-.01.04v.07l-.01.03V2l-.01.04-.01.04v.04l-.01.03-.01.04-.01.04v.04l-.01.04-.06-.01.01-.04.01-.04.01-.04.01-.04v-.03l.01-.04.01-.04v-.04l.01-.03v-.07l.01-.04v-.07l.01-.03V1.24zM16.57 0v.06h-.24l-.11.01-.1.01-.09.01-.08.01-.08.01-.07.02-.07.02-.06.02-.05.03-.05.02-.05.03-.04.03-.03.03-.03.03-.03.04-.02.04-.02.04-.02.04-.01.05-.01.05-.01.05-.01.06-.01.05v.4l.01.08h-.06v-.07l-.01-.08v-.2l.01-.07V.7l.01-.06.01-.05.01-.05.02-.05.02-.05.02-.05.03-.04.03-.04.03-.04.04-.03.04-.04.05-.03.05-.03.06-.02.06-.02.07-.02.08-.02.08-.02.09-.01.09-.01.1-.01h.11l.11-.01h.13zm1.26 1.33h-.06V.96l-.01-.07V.83l-.01-.06-.01-.06-.01-.05-.01-.06-.01-.05-.02-.05-.02-.04-.02-.05-.03-.04-.03-.03-.03-.04-.04-.03-.04-.03-.04-.03-.05-.03-.06-.02-.06-.02-.07-.02-.07-.02-.08-.01-.08-.01-.09-.01-.1-.01H16.57V0H16.78l.1.01.1.01.08.01.08.02.08.01.07.02.06.02.06.03.05.03.05.03.05.03.04.04.04.04.03.04.03.05.02.04.02.05.02.05.02.06.01.05.01.06.01.06v.07l.01.06v.07l.01.07V1.33zm.09 1.02l-.04.04-.01-.01-.01-.04-.01-.04v-.04l-.01-.03-.01-.04v-.04l-.01-.03-.01-.04v-.07l-.01-.03v-.04l-.01-.03v-.1l-.01-.04v-.18l-.01-.03V1.33h.06v.35l.01.03v.13l.01.03v.07l.01.03V2l.01.04v.03l.01.04v.03l.01.04v.04l.01.03.01.04.01.04.01.03-.01-.01zm-.04.04h-.01v-.01l.01.01z" class="fil5"/></g><path fill="#fefefe" fill-rule="nonzero" d="M16.45 3.61c.02.01.03.02.05.03.01 0 .02.01.03.03.01.01.01.02.02.03 0 .02.01.03.01.05l.07.26v.02s0 .01-.01.01h-.14l-.01-.01s-.01 0-.01-.01l-.07-.24c0-.02-.01-.04-.02-.05l-.03-.03c-.01-.01-.02-.01-.04-.02h-.14v.34c0 .01 0 .01-.01.01 0 .01-.01.01-.01.01H16s-.01 0-.01-.01c0 0-.01 0-.01-.01v-.76c0-.01.01-.01.01-.02H16.15c.01.01.01.01.01.02v.29h.12c.02-.01.03-.01.04-.02.01 0 .02-.01.03-.03.01-.01.02-.03.03-.05l.05-.2s0-.01.01-.01h.14c.01 0 .01 0 .02.01 0 0 0 .01-.01.01l-.05.2c-.01.07-.04.12-.09.15zm.47.4v.02c0 .01-.01.01-.02.01h-.12c-.01 0-.02 0-.02-.01-.01 0-.01-.01-.01-.02v-.56c0-.03 0-.05.01-.08.01-.02.02-.05.04-.07.01-.02.03-.03.06-.04.03-.01.06-.02.1-.02h.33c.01 0 .01 0 .02.01v.13c-.01.01-.01.01-.02.01H17c-.03 0-.05.01-.06.02-.01.01-.02.03-.02.05v.55z"/><g id="_1410043408"><path d="M9.42 6.83H23c.15 0 .27.12.27.27 0 .15-.12.27-.27.27H9.42c-.15 0-.27-.12-.27-.27 0-.15.12-.27.27-.27z" class="fil4"/><path id="1" d="M23 6.86H9.42V6.8H23v.06zm.3.24h-.06v-.04l-.01-.01v-.02l-.01-.01V7l-.01-.01v-.01l-.01-.01v-.01l-.01-.01-.01-.01-.01-.01-.01-.01-.01-.01-.01-.01h-.01l-.01-.01h-.01l-.01-.01h-.01l-.01-.01h-.01l-.01-.01H23V6.8h.04l.02.01h.03l.01.01h.01l.02.01.01.01h.01l.01.01.02.01.01.01.01.01.01.01.01.01.01.01.01.01v.01l.01.01.01.02.01.01v.01l.01.02v.01l.01.01V7.08l.01.02zm-.03 0h.03-.03zm-.27.3v-.06h.05l.01-.01h.02l.01-.01h.01l.01-.01.01-.01h.01l.01-.01.01-.01h.01l.01-.01.01-.01v-.01l.01-.01.01-.01v-.01l.01-.01V7.2l.01-.01v-.01l.01-.01v-.02l.01-.01V7.1h.06l-.01.01V7.17l-.01.02v.01l-.01.01v.02l-.01.01-.01.01-.01.01v.02l-.01.01-.01.01-.01.01-.01.01-.01.01-.01.01-.02.01h-.01l-.01.01-.01.01h-.02l-.01.01h-.01l-.02.01h-.03l-.01.01H23zM9.42 7.34H23v.06H9.42v-.06zm-.3-.24h.06v.05l.01.01v.02l.01.01v.01l.01.01v.01l.01.01.01.01.01.01v.01l.01.01.01.01h.01l.01.01.01.01h.01l.01.01.01.01h.01l.01.01h.02l.01.01h.05v.06h-.03l-.01-.01h-.03l-.02-.01h-.01l-.01-.01h-.02l-.01-.01-.01-.01h-.02l-.01-.01-.01-.01-.01-.01-.01-.01-.01-.01-.01-.01-.01-.01-.01-.02v-.01l-.01-.01-.01-.01v-.02l-.01-.01v-.01l-.01-.02v-.03l-.01-.01V7.1zm.03 0h-.03.03zm.27-.3v.06H9.36l-.01.01h-.01l-.01.01h-.01l-.01.01H9.3l-.01.01h-.01l-.01.01-.01.01-.01.01-.01.01-.01.01-.01.01-.01.01v.01l-.01.01V7l-.01.02v.02l-.01.01v.05h-.06v-.03l.01-.02v-.03l.01-.01V7l.01-.02v-.01l.01-.01.01-.02v-.01l.01-.01.01-.01.01-.01.01-.01.01-.01.01-.01.01-.01.01-.01.02-.01h.01l.01-.01.02-.01h.01l.01-.01h.03l.02-.01h.04z" class="fil5"/><path d="M10.47 4.44h.34c.2 0 .37.16.37.37v4.58c0 .2-.17.37-.37.37h-.34c-.21 0-.37-.17-.37-.37V4.81c0-.21.16-.37.37-.37z" class="fil7"/><path id="1" d="M10.81 4.47h-.34v-.06h.34v.06zm.39.34h-.05v-.04l-.01-.02v-.03l-.01-.01v-.02l-.01-.02-.01-.01v-.02l-.01-.01-.01-.01-.01-.02-.01-.01-.01-.01-.01-.01-.01-.02-.02-.01-.01-.01-.01-.01h-.02l-.01-.01-.02-.01-.01-.01h-.02l-.01-.01h-.02l-.01-.01H10.81v-.06h.06l.02.01h.02l.01.01h.02l.02.01.02.01.02.01.01.01.02.01.01.01.02.01.01.01.02.02.01.01.01.01.02.02.01.01.01.02.01.02.01.01v.02l.01.02.01.02v.02l.01.02v.08zm-.05 4.58V4.81h.05v4.58h-.05zm-.34.4v-.06h.05l.02-.01h.03l.01-.01.02-.01h.01l.02-.01.01-.01.02-.01.01-.01.01-.01.02-.01.01-.01.01-.01.01-.01.01-.02.01-.01.01-.01.01-.02v-.01l.01-.02.01-.01v-.02l.01-.02v-.03l.01-.02v-.03h.05v.08l-.01.02v.02l-.01.02-.01.01v.02l-.01.02-.01.02-.01.01-.01.02-.02.01-.01.02-.01.01-.02.01-.01.02-.02.01-.01.01-.02.01-.01.01-.02.01-.02.01h-.02l-.02.01-.01.01h-.04l-.02.01h-.04zm-.34-.06h.34v.06h-.34v-.06zm-.4-.34h.06v.07l.01.01v.02l.01.02v.01l.01.02.01.01.01.02v.01l.01.01.01.02.02.01.01.01.01.01.01.01.01.01.02.01.01.01.02.01.01.01h.02l.01.01.02.01h.03l.02.01h.05v.06h-.04l-.02-.01h-.04l-.02-.01-.02-.01h-.02l-.01-.01-.02-.01-.02-.01-.01-.01-.02-.01-.01-.01-.02-.02-.01-.01-.02-.01-.01-.02-.01-.01-.01-.02-.01-.01-.01-.02-.01-.02-.01-.02-.01-.01v-.02l-.01-.02v-.02l-.01-.02v-.06zm.06-4.58v4.58h-.06V4.81h.06zm.34-.4v.06h-.07l-.02.01h-.01l-.02.01h-.01l-.02.01-.01.01-.02.01h-.01l-.02.01-.01.01-.01.01-.01.02-.01.01-.02.01-.01.01-.01.02v.01l-.01.01-.01.02-.01.01v.02l-.01.02v.01l-.01.02v.07h-.06v-.06l.01-.02v-.02l.01-.02v-.02l.01-.02.01-.02.01-.01.01-.02.01-.02.01-.01.01-.02.01-.01.02-.01.01-.02.02-.01.01-.01.02-.01.01-.01.02-.01.02-.01.01-.01.02-.01h.02l.02-.01h.02l.02-.01h.06z" class="fil5"/><path d="M20.57 3.7h-.43c-.26 0-.48.22-.48.48v5.84c0 .26.22.47.48.47h.43c.26 0 .47-.21.47-.47V4.18c0-.26-.21-.48-.47-.48z" class="fil8"/><path id="1" d="M20.14 3.68h.43v.05h-.43v-.05zm-.45.5h-.05V4.1l.01-.02v-.03l.01-.02.01-.03.01-.02.01-.02.01-.02.01-.02.01-.02.02-.02.01-.02.02-.02.01-.02.02-.01.02-.02.02-.01.02-.02.02-.01.02-.01.02-.01.02-.01.02-.01.03-.01.02-.01h.03l.02-.01h.08v.05h-.05l-.02.01h-.02l-.02.01H20l-.02.01-.02.01-.02.01-.01.01-.02.01-.02.01-.02.01-.02.01-.01.02-.02.01-.01.02-.02.01-.01.02-.01.02-.01.02-.01.02-.01.01-.01.02-.01.02-.01.02v.03l-.01.02v.04l-.01.02v.03zm-.05 5.84V4.18h.05v5.84h-.05zm.5.44v.06h-.05l-.03-.01h-.02l-.03-.01h-.02l-.03-.01-.02-.01-.02-.01-.02-.01-.02-.01-.02-.02-.02-.01-.02-.01-.02-.02-.02-.02-.01-.01-.02-.02-.01-.02-.02-.02-.01-.02-.01-.02-.01-.02-.01-.03-.01-.02-.01-.02-.01-.02v-.03l-.01-.02v-.08h.05v.02l.01.03v.04l.01.02v.02l.01.02.01.02.01.02.01.02.01.02.01.02.01.02.01.01.02.02.01.01.02.02.01.01.02.02.02.01.02.01.02.01.01.01.02.01.02.01H20l.03.01.02.01h.09zm.43.06h-.43v-.06h.43v.06zm.44-.5h.06v.05l-.01.03v.02l-.01.03v.02l-.01.02-.01.02-.01.03-.01.02-.01.02-.02.02-.01.02-.02.02-.01.02-.02.01-.02.02-.01.02-.02.01-.02.01-.02.02-.02.01-.03.01-.02.01-.02.01-.02.01h-.03l-.02.01h-.03l-.02.01h-.05v-.06H20.66l.02-.01.02-.01h.02l.02-.01.02-.01.02-.01.02-.01.02-.01.01-.01.02-.02.02-.01.01-.02.02-.01.01-.02.01-.01.02-.02.01-.02.01-.02.01-.02.01-.02v-.02l.01-.02.01-.02v-.02l.01-.02v-.07zm.06-5.84v5.84h-.06V4.18h.06zm-.5-.45v-.05h.07l.03.01h.02l.03.01.02.01.02.01.02.01.03.01.02.01.02.01.02.02.02.01.01.02.02.01.02.02.01.02.02.02.01.02.02.02.01.02.01.02.01.02.01.02.01.03v.02l.01.03v.02l.01.02v.06h-.06v-.07L21 4.09v-.02l-.01-.03-.01-.02V4l-.01-.02-.01-.01-.01-.02-.01-.02-.02-.02-.01-.02-.01-.01-.02-.02-.01-.01-.02-.02-.02-.01-.01-.01-.02-.01-.02-.01-.02-.01-.02-.01-.02-.01-.02-.01h-.02l-.02-.01h-.02l-.03-.01h-.04z" class="fil5"/><g><path d="M22.02 4.44h-.33c-.21 0-.37.16-.37.37v4.58c0 .2.16.37.37.37h.33c.21 0 .37-.17.37-.37V4.81c0-.21-.16-.37-.37-.37z" class="fil7"/><path id="1" d="M21.69 4.41h.33v.06h-.33v-.06zm-.35.4h-.05v-.06l.01-.02v-.02l.01-.02v-.02l.01-.02.01-.02.01-.01.01-.02.01-.02.01-.01.01-.02.01-.01.01-.01.02-.02.01-.01.02-.01.01-.01.02-.01.02-.01.01-.01.02-.01.02-.01h.02l.02-.01h.02l.02-.01h.06v.06H21.62l-.02.01h-.02l-.01.01h-.02l-.01.01-.02.01-.01.01h-.02l-.01.01-.01.01-.01.01-.02.02-.01.01-.01.01-.01.01-.01.02-.01.01v.01l-.01.02-.01.01-.01.02v.02l-.01.01v.05l-.01.02v.02zm-.05 4.58V4.81h.05v4.58h-.05zm.4.34v.06h-.05l-.01-.01h-.04l-.02-.01-.02-.01h-.02l-.02-.01-.01-.01-.02-.01-.02-.01-.01-.01-.02-.01-.01-.02-.02-.01-.01-.01-.01-.02-.01-.01-.01-.02-.01-.01-.01-.02-.01-.02-.01-.02-.01-.01v-.02l-.01-.02v-.02l-.01-.02v-.06h.05v.02l.01.01v.05l.01.02v.02l.01.01.01.02.01.01v.02l.01.01.01.01.01.02.01.01.01.01.02.01.01.01.01.01.02.01.01.01.01.01.02.01h.01l.02.01.01.01h.04l.01.01h.06zm.33.06h-.33v-.06h.33v.06zm.35-.4h.05v.06l-.01.02v.02l-.01.02v.02l-.01.01-.01.02-.01.02-.01.02-.01.01-.01.02-.01.01-.01.02-.01.01-.02.01-.01.02-.02.01-.01.01-.02.01-.02.01-.01.01-.02.01h-.02l-.02.01-.02.01h-.04l-.01.01h-.05v-.06h.06l.01-.01h.04l.01-.01.02-.01h.01l.02-.01.01-.01.01-.01.02-.01.01-.01.01-.01.02-.01.01-.01.01-.01.01-.02.01-.01.01-.01v-.02l.01-.01.01-.02.01-.01v-.02l.01-.02v-.05l.01-.01v-.02zm.05-4.58v4.58h-.05V4.81h.05zm-.4-.34v-.06H22.08l.02.01h.02l.02.01h.02l.02.01.02.01.01.01.02.01.02.01.01.01.02.01.01.01.02.02.01.01.01.01.01.02.01.01.01.02.01.02.01.01.01.02.01.02v.02l.01.02v.02l.01.02v.06h-.05v-.02l-.01-.02v-.05l-.01-.01v-.02l-.01-.02-.01-.01-.01-.02v-.01l-.01-.01-.01-.02-.01-.01-.01-.01-.01-.01-.02-.02-.01-.01-.01-.01-.01-.01h-.02l-.01-.01-.02-.01-.01-.01h-.02l-.01-.01h-.02l-.02-.01h-.07z" class="fil5"/></g><g><path d="M11.92 3.7h.44c.26 0 .47.22.47.48v5.84c0 .26-.21.47-.47.47h-.44c-.26 0-.47-.21-.47-.47V4.18c0-.26.21-.48.47-.48z" class="fil8"/><path id="1" d="M12.36 3.73h-.44v-.05h.44v.05zm.5.45h-.06v-.05l-.01-.02v-.04l-.01-.03-.01-.02-.01-.02v-.02l-.01-.01-.01-.02-.02-.02-.01-.02-.01-.02-.02-.01-.01-.02-.02-.01-.01-.02-.02-.01-.02-.01-.01-.01-.02-.01-.02-.01-.02-.01-.02-.01-.02-.01h-.02l-.02-.01h-.03l-.02-.01h-.04v-.05h.07l.03.01h.02l.02.01.03.01.02.01.02.01.02.01.02.01.03.01.01.02.02.01.02.02.02.01.02.02.01.02.02.02.01.02.01.02.02.02.01.02.01.02.01.02v.03l.01.02.01.03v.04l.01.03v.03zm-.06 5.84V4.18h.06v5.84h-.06zm-.44.5v-.06h.09l.02-.01.02-.01h.02l.02-.01.02-.01.02-.01.02-.01.01-.01.02-.01.02-.02.01-.01.02-.02.01-.01.02-.02.01-.01.01-.02.02-.02.01-.02.01-.02v-.02l.01-.02.01-.02.01-.02v-.04l.01-.02v-.05h.06v.03l-.01.02v.05l-.01.03-.01.02v.02l-.01.02-.01.03-.01.02-.02.02-.01.02-.01.02-.02.02-.01.02-.02.01-.02.02-.02.02-.02.01-.01.01-.03.02-.02.01-.02.01-.02.01-.02.01-.03.01h-.02l-.02.01h-.03l-.02.01h-.05zm-.44-.06h.44v.06h-.44v-.06zm-.5-.44h.06v.05l.01.02v.04l.01.02.01.02.01.02v.02l.01.02.02.02.01.02.01.02.01.01.02.02.01.01.02.02.01.01.02.02.02.01.01.01.02.01.02.01.02.01.02.01h.02l.02.01.02.01H11.92v.06h-.05l-.02-.01h-.03l-.02-.01h-.02l-.03-.01-.02-.01-.02-.01-.02-.01-.02-.01-.02-.02-.02-.01-.02-.01-.02-.02-.02-.02-.02-.01-.01-.02-.02-.02-.01-.02-.01-.02-.02-.02-.01-.02-.01-.03-.01-.02v-.02l-.01-.02-.01-.03v-.05l-.01-.02v-.03zm.06-5.84v5.84h-.06V4.18h.06zm.44-.5v.05h-.04l-.02.01h-.03l-.02.01h-.02l-.02.01-.02.01-.02.01-.02.01-.02.01-.01.01-.02.01-.02.01-.01.02-.02.01-.01.02-.02.01-.01.02-.01.02-.01.02-.02.02-.01.01V4l-.01.02-.01.02-.01.03v.04l-.01.02v.05h-.06v-.03l.01-.03v-.04l.01-.03.01-.02V4l.01-.02.01-.02.01-.02.02-.02.01-.02.01-.02.02-.02.01-.02.02-.02.02-.01.02-.02.02-.01.01-.02.03-.01.02-.01.02-.01.02-.01.02-.01.03-.01.02-.01h.02l.03-.01h.07z" class="fil5"/></g></g></g></g></svg>