<svg xmlns="http://www.w3.org/2000/svg" width="79" height="69" fill-rule="evenodd" clip-rule="evenodd" image-rendering="optimizeQuality" shape-rendering="geometricPrecision" text-rendering="geometricPrecision" viewBox="0 0 9.07 7.96"><defs><style>.fil5{fill:#a1b567}.fil2{fill:#6fa691}.fil0,.fil1{fill:#2b2a29;fill-rule:nonzero}.fil0{fill:#6fa691}</style></defs><g id="Слой_x0020_1"><g id="_836362640"><path d="M1.88 6.52c-.19.02-.35-.05-.37-.24-.01-.19.13-.31.32-.32l1.4-.11h.03c.5-.01 1.01-.13 1.34-.29.3-.14.59-.44.75-.71l.76-1.89c.07-.18.22-.26.39-.19.18.07.19.27.12.45l-.8 1.94-.01.02c-.24.4-.57.71-1.01.92-.41.19-.92.3-1.51.31l-1.41.11z" class="fil0"/><path id="1" d="M1.49 6.28h.05v.04l.01.02v.01l.01.01v.01l.01.02.01.01v.01l.01.01h.01l.01.01.01.01.01.01h.01l.01.01.02.01h.01l.01.01h.02l.01.01h.04l.02.01h.1v.04l-.02.01h-.07l-.01-.01h-.06l-.01-.01h-.02l-.01-.01h-.02l-.01-.01-.02-.01h-.01l-.01-.01-.02-.01-.01-.01-.01-.01-.01-.01-.01-.01-.01-.02-.01-.01-.01-.01-.01-.02v-.01l-.01-.02v-.02l-.01-.01v-.04zm.33-.34l.01.04-.02.01h-.05L1.75 6h-.02l-.01.01h-.01l-.02.01h-.01l-.01.01-.02.01-.01.01h-.01l-.01.01-.01.01-.01.01-.01.01-.01.01v.01l-.01.01-.01.02v.01l-.01.01v.01l-.01.02V6.28h-.05V6.19l.01-.02v-.01l.01-.02v-.01l.01-.02.01-.01.01-.01v-.02l.01-.01.02-.01.01-.01.01-.01.01-.01.01-.01.02-.01.01-.01.02-.01.01-.01h.02l.01-.01h.02l.02-.01h.01l.02-.01h.05zm.01.04zm1.41-.11l-1.41.11-.01-.04 1.41-.12.01.05zm-.01-.05zm.03.05h-.03v-.05h.03v.05zm0 0zm1.32-.33l.03.04-.04.02-.03.01-.03.02-.04.01-.03.02-.04.01-.04.01-.03.02-.04.01-.04.01-.04.01-.04.01-.04.01-.05.02-.04.01-.04.01-.05.01h-.04l-.04.01-.05.01-.04.01h-.05l-.05.01-.04.01h-.05l-.05.01h-.09l-.05.01h-.14v-.05h.19l.04-.01h.05l.05-.01h.04l.05-.01h.04l.05-.01.04-.01.05-.01h.04l.04-.01.05-.01.04-.01.04-.01.04-.01.04-.01.04-.01.04-.02.04-.01.04-.01.04-.01.03-.02.04-.01.04-.01.03-.02.03-.01.03-.02.03-.01zm.75-.7l.05.02h-.01l-.01.03-.02.02-.02.03-.01.03-.02.02-.02.03-.02.03-.02.02-.02.03-.03.02-.02.03-.02.02-.02.03-.03.02-.02.03-.03.02-.02.03-.03.02-.02.02-.03.02-.03.03-.02.02-.03.02-.03.02-.03.02-.02.02-.03.01-.03.02-.03.02-.03.01-.03.02-.02.01-.03-.04.03-.01.03-.02.03-.01.03-.02.02-.02.03-.01.03-.02.02-.02.03-.02.03-.02.02-.02.03-.02.02-.02.03-.03.02-.02.03-.02.02-.03.03-.02.02-.02.02-.03.02-.02.03-.03.02-.02.02-.03.02-.02.02-.03.02-.03.02-.02.01-.03.02-.02.02-.03.01-.02zm.05.02h-.01.01zm.75-1.9l-.75 1.9-.05-.02.75-1.89.05.01zm-.05-.01l.01-.01-.01.01zm.43-.2l-.02.04h-.01l-.02-.01h-.01l-.02-.01H6.33l-.02.01H6.3l-.01.01h-.01l-.01.01-.02.01h-.01l-.01.01-.01.01-.01.01-.01.01-.01.01-.01.01-.01.01v.01l-.01.02-.01.01-.01.02v.01l-.01.02-.05-.02.01-.02.01-.02.01-.01.01-.02.01-.01.01-.02.01-.01.01-.01.01-.02.01-.01.01-.01.01-.01.02-.01.01-.01h.01l.02-.01.01-.01h.01l.02-.01h.01l.02-.01h.1l.01.01h.02l.02.01h.02l.01.01zm.13.47l-.05-.01.01-.02.01-.02v-.01l.01-.02v-.03l.01-.02v-.15l-.01-.01v-.01l-.01-.01v-.02l-.01-.01-.01-.01v-.01l-.01-.01-.01-.01-.01-.01-.01-.01-.01-.01h-.02l-.01-.01-.02-.01.02-.04.02.01h.02l.01.01.02.01.01.01.01.02.01.01.01.01.01.01.01.02.01.01.01.02v.01l.01.02v.01l.01.02V3.1l-.01.02v.02l-.01.02v.01l-.01.02v.02l-.01.01zm-.05-.01l-.03.08.03-.08zM5.8 5.15l.79-1.94.05.01-.8 1.95-.04-.02zm.04.02zm-.05 0l.01-.02.04.02-.01.02-.04-.02zm.04.02l-.01.01.01-.01zm-1.02.93l-.02-.04.04-.02.04-.02.04-.03.04-.02.03-.02.04-.02.04-.02.03-.03.04-.02.03-.03.04-.02.03-.03.04-.02.03-.03.03-.03.03-.03.03-.03.03-.03.03-.03.03-.03.03-.03.03-.03.03-.03.02-.03.03-.04.02-.03.03-.03.02-.04.03-.03.02-.04.02-.04.03-.03.04.02-.02.04-.03.04-.02.03-.03.04-.02.04-.03.03-.02.03-.03.04-.03.03-.03.03-.02.04-.03.03-.03.03-.03.03-.03.03-.04.03-.03.03-.03.03-.03.02-.04.03-.03.03-.04.02-.03.03-.04.02-.04.03-.03.02-.04.02-.04.03-.04.02-.04.02-.04.02-.04.02zm-1.5.29h-.05l.03-.03h.22l.05-.01h.05l.05-.01h.05l.06-.01h.05l.05-.01.05-.01h.04l.05-.01.05-.01.05-.01.04-.01.05-.01.05-.01.04-.01.04-.02.05-.01.04-.01.04-.02.05-.01.04-.01.04-.02.04-.02.04-.01.04-.02.04-.02.04-.01.02.04-.04.02-.04.02-.04.01-.04.02-.04.02-.04.01-.05.02-.04.01-.04.02-.05.01-.04.01-.05.01-.04.02-.05.01-.05.01-.04.01-.05.01-.05.01h-.05l-.05.01-.05.01-.05.01h-.05l-.05.01h-.05l-.06.01h-.1l-.06.01h-.16l.02-.02zm-.05 0v-.03h.03l-.03.03zm0 0h.05l-.02.02-.03-.02zm.05 0v.02h-.02l.02-.02zm-1.43.09l1.41-.12v.05l-1.41.11V6.5z" class="fil1"/><path d="M1.62 4.72c.44 0 .85.19 1.14.48.29.29.47.69.47 1.14 0 .45-.18.85-.47 1.14-.29.3-.7.48-1.14.48-.45 0-.85-.18-1.15-.48C.18 7.19 0 6.79 0 6.34c0-.45.18-.85.47-1.14.3-.29.7-.48 1.15-.48zm.78.84c-.2-.2-.48-.32-.78-.32-.31 0-.58.12-.78.32-.2.2-.33.48-.33.78 0 .31.13.58.33.78.2.2.47.32.78.32.3 0 .58-.12.78-.32.2-.2.32-.47.32-.78 0-.3-.12-.58-.32-.78zM7.46 4.73c.44 0 .85.18 1.14.47.29.29.47.7.47 1.14 0 .45-.18.86-.47 1.15-.29.29-.7.47-1.14.47-.45 0-.85-.18-1.15-.47-.29-.29-.47-.7-.47-1.15 0-.44.18-.85.47-1.14.3-.29.7-.47 1.15-.47zm.78.83c-.2-.19-.48-.32-.78-.32-.31 0-.58.13-.78.32-.2.2-.33.48-.33.78 0 .31.13.59.33.78.2.2.47.33.78.33.3 0 .58-.13.78-.33.2-.19.32-.47.32-.78 0-.3-.12-.58-.32-.78z" class="fil1"/><path d="M7.52 5.86c.23 0 .42.19.42.43s-.19.43-.42.43c-.24 0-.43-.19-.43-.43s.19-.43.43-.43z" class="fil2"/><path id="1" d="M7.97 6.29h-.05v-.04l-.01-.02v-.04l-.01-.02-.01-.02v-.02l-.01-.01-.01-.02-.01-.02-.01-.01-.01-.02-.01-.02-.02-.01-.01-.01-.01-.02-.02-.01-.01-.01-.02-.01-.02-.01-.01-.01-.02-.01-.02-.01-.02-.01h-.01l-.02-.01H7.6l-.02-.01h-.06v-.05h.06l.03.01h.02l.02.01.02.01h.02l.02.01.02.01.02.01.02.02.02.01.01.01.02.02.02.01.01.02.01.01.02.02.01.02.01.02.01.02.01.01.01.02.01.03.01.02v.02l.01.02v.02l.01.02v.05zm-.45.45V6.7l.02-.01h.06l.02-.01h.02l.01-.01.02-.01h.02l.02-.01.01-.01.02-.01.02-.01.01-.02.02-.01.01-.01.01-.02.02-.01.01-.02.01-.01.01-.02.01-.02.01-.01.01-.02v-.02l.01-.02.01-.02v-.04l.01-.02v-.04h.05v.05l-.01.02v.02l-.01.02v.03l-.01.02-.01.02-.01.02-.01.02-.01.02-.01.01-.01.02-.02.02-.01.02-.01.01-.02.02-.02.01-.01.01-.02.02-.02.01-.02.01-.02.01-.02.01-.02.01h-.02l-.02.01h-.02l-.03.01h-.06zm-.46-.45h.05v.04l.01.02v.04l.01.02.01.02v.02l.01.02.01.01.01.02.01.02.01.01.01.02.02.01.01.02.01.01.02.01.01.02.02.01.02.01.01.01.02.01h.02l.02.01.01.01h.02l.02.01h.06l.03.01v.04h-.07l-.03-.01H7.4l-.02-.01h-.02l-.02-.01-.02-.01-.02-.01-.02-.01-.02-.01-.02-.02-.01-.01-.02-.01-.01-.02-.02-.01-.01-.02-.02-.02-.01-.02-.01-.01-.01-.02-.01-.02-.01-.02-.01-.02-.01-.02V6.4l-.01-.02v-.02l-.01-.02v-.05zm.46-.45v.05h-.07l-.02.01h-.02l-.02.01h-.01l-.02.01-.02.01-.02.01-.01.01-.02.01-.02.01-.01.01-.02.01-.01.02-.01.01-.02.01-.01.02-.01.02-.01.01-.01.02-.01.02-.01.01v.02l-.01.02-.01.02v.04l-.01.02v.04h-.05v-.05l.01-.02V6.2l.01-.02v-.02l.01-.02.01-.03.01-.02.01-.01.01-.02.01-.02.01-.02.02-.02.01-.01.02-.02.01-.01.02-.02.01-.01.02-.01.02-.02.02-.01.02-.01.02-.01h.02l.02-.01.02-.01h.02l.03-.01h.07z" class="fil1"/><path fill="#a1b567" fill-rule="nonzero" d="M6.09 1.92c-.04-.13.08-.18.21-.22.12-.04.22-.04.26.09l.1.62.6 2.17c.15.51.1 1 .47 1.54.04.13 0 .27-.13.31-.13.03-.26-.04-.3-.17.05-.74-.29-1.04-.44-1.56l-.77-2.78z"/><path id="1" d="M6.29 1.68l.01.04-.01.01h-.02l-.01.01h-.03l-.01.01h-.01l-.01.01h-.01l-.01.01-.01.01h-.01l-.01.01-.01.01-.01.01-.01.01v.01l-.01.01v.08l-.04.01-.01-.01v-.09l.01-.01v-.01l.01-.01v-.01l.01-.01.01-.01h.01v-.01l.01-.01.01-.01h.01l.01-.01h.01l.01-.01.01-.01h.01l.01-.01h.02l.01-.01h.02l.01-.01h.03zm.29.1l-.05.01v-.02h-.01v-.01l-.01-.01v-.01H6.5v-.01l-.01-.01h-.01v-.01h-.02l-.01-.01h-.07l-.01.01h-.03l-.01.01H6.3l-.01-.04.01-.01h.03l.01-.01h.03l.01-.01h.07l.01.01h.03v.01h.01l.01.01h.01l.01.01.01.01v.01h.01l.01.01v.01l.01.02v.01l.01.01v.01zm0 0zm.06.63l-.11-.62.05-.01.1.63-.04.01v-.01zm0 .01v-.01.01zm.6 2.16l-.6-2.16.04-.02.61 2.17-.05.01zm.52 1.54l-.05.01v.01l-.03-.06-.03-.05-.03-.05-.03-.05-.02-.05-.03-.05-.02-.05-.02-.05-.02-.05-.01-.05-.02-.05-.01-.04-.02-.05-.01-.05-.01-.05-.01-.05-.01-.04-.01-.05-.01-.05-.01-.05v-.04l-.01-.05-.01-.05-.01-.05-.01-.04v-.05l-.01-.05-.01-.05-.01-.04-.01-.05-.02-.05-.01-.05.05-.01.01.05.01.05.01.05.01.04.01.05.01.05.01.05.01.05.01.04.01.05v.05l.01.05.01.04.01.05.01.05.01.04.01.05.01.05.01.05.01.04.02.05.01.05.02.05.02.04.02.05.02.05.02.05.02.05.03.05.03.05.03.05.03.05.01.01zm-.01-.01l.01.01-.01-.01zm-.14.34l-.02-.05h.02l.01-.01h.01l.01-.01h.01l.01-.01v-.01h.01l.01-.01v-.01l.01-.01.01-.01v-.01l.01-.01v-.03l.01-.01V6.16l-.01-.01v-.02l.05-.01v.03l.01.02V6.26l-.01.01v.04l-.01.01v.01l-.01.01v.01l-.01.01-.01.01-.01.01v.01l-.01.01-.01.01-.01.01h-.01l-.01.01-.02.01h-.01l-.01.01h-.01zm-.34-.19h.05v-.01l.01.01v.03l.01.01.01.01.01.01v.01l.01.01.01.01.01.01.01.01h.01l.01.01h.01l.01.01h.01l.01.01h.02l.01.01h.09l.01-.01.02.05h-.02l-.01.01h-.09l-.01-.01h-.03l-.01-.01h-.01l-.02-.01H7.4l-.01-.01-.01-.01h-.01l-.01-.01-.01-.01-.01-.01-.01-.01-.01-.01v-.01l-.01-.01-.01-.01v-.01l-.01-.01-.01-.02v-.02l-.01-.01zm.01.01l-.01-.01.01.01zm-.44-1.56l.05-.01.01.04.02.05.01.04.02.05.02.04.01.05.02.04.02.04.02.04.02.04.02.05.02.04.02.04.02.04.02.05.02.04.02.04.01.05.02.04.02.05.01.05.01.05.02.05.01.05.01.06.01.05v.06l.01.06v.19l-.01.07h-.05l.01-.07V6l-.01-.05v-.06l-.01-.06-.01-.05-.01-.05-.01-.05-.02-.05-.01-.04-.02-.05-.01-.04-.02-.05-.02-.04-.01-.05-.02-.04-.02-.04-.02-.04-.02-.04-.02-.05L7 5.11l-.02-.04-.02-.04-.02-.05-.02-.04-.02-.04-.01-.05-.02-.05-.02-.04-.01-.05zm-.73-2.79l.78 2.78-.05.01-.77-2.78.04-.01zm0 0v-.01.01z" class="fil1"/><path d="M5.88 1.34c-.05-.16.09-.23.25-.27.15-.05.27-.05.31.11l.18.63-.57.15-.17-.62z" class="fil0"/><path id="1" d="M6.12 1.05l.01.04-.01.01h-.01l-.02.01h-.01l-.01.01h-.02l-.01.01h-.01l-.02.01H6l-.01.01h-.01l-.01.01-.01.01h-.01l-.01.01v.01l-.01.01h-.01v.01l-.01.01v.01l-.01.01v.02l-.01.01v.01l.01.02v.03l-.04.02-.01-.02V1.23l.01-.01v-.01l.01-.02.01-.01v-.01l.01-.01.01-.01.01-.01h.01l.01-.01.01-.01.02-.01h.01l.01-.01.01-.01h.02l.01-.01h.01l.02-.01.01-.01h.03l.02-.01h.01zm.35.12l-.05.01-.01-.01v-.02l-.01-.01-.01-.01v-.01l-.01-.01-.01-.01v-.01h-.01l-.01-.01h-.01l-.01-.01h-.12l-.01.01h-.02l-.02.01h-.03l-.01-.04.02-.01h.01l.01-.01h.05l.01-.01H6.33l.01.01h.01l.02.01h.01l.01.01.01.01.01.01.01.01.01.01.01.01v.01l.01.02v.01l.01.02.01.01zm0 0h-.01.01zm.12.65l-.17-.64.05-.01.17.63-.02.03-.03-.01zm.05-.02l.01.03h-.03l.02-.03zm-.59.13l.56-.14.01.04-.56.15-.03-.02.02-.03zm.01.05l-.03.01v-.03l.03.02zm-.16-.65l.17.62-.04.01-.17-.61.04-.02zm0 0z" class="fil1"/><path d="M6.51 3.45l.43-.1c.03-.01.06.01.06.04l.02.07c.01.03-.01.05-.04.06l-.43.1c-.03.01-.05-.01-.06-.03l-.02-.07c0-.03.01-.06.04-.07z" class="fil2"/><path id="1" d="M6.95 3.37l-.43.11-.02-.05.43-.11.02.05zm.08.01l-.05.01v-.01h-.01v-.01h-.02l-.02-.05h.04v.01h.02l.01.01.01.01.01.01v.01l.01.01zM7 3.46l-.02-.07.05-.01.01.07-.04.01zm-.01.08l-.01-.04v-.01h.01v-.01H7v-.02l.04-.01v.01h.01v.02h-.01v.03h-.01v.01h-.01v.01h-.01v.01h-.02zm-.44.06l.43-.1.01.04-.43.11-.01-.05zm-.08-.01l.04-.01v.01h.01v.01h.03l.01.05h-.05v-.01h-.02v-.01l-.01-.01-.01-.01v-.02zm.03-.08l.01.07-.04.01-.02-.07.05-.01zm0-.08l.02.05H6.5v.02h-.01v.01h.01l-.05.01v-.05h.01v-.02h.01v-.01h.02v-.01h.01z" class="fil1"/><g><path fill="#99cfba" d="M3.09 3.09l.32-.12.52 1.45-.32.11z"/><path id="1" d="M3.42 3l-.32.11-.02-.04.32-.12.03.01-.01.04zm-.02-.05l.03-.01v.02l-.03-.01zm.51 1.48l-.52-1.45.04-.02.52 1.45-.01.03-.03-.01zm.04-.02l.01.02-.02.01.01-.03zm-.35.1l.32-.11.02.04-.32.12-.03-.02.01-.03zm.02.05l-.03.01v-.03l.03.02zm-.51-1.48l.52 1.45-.04.01-.52-1.44.01-.03.03.01zm-.04.02l-.01-.03h.02l-.01.03z" class="fil1"/></g><g><path d="M4.1 6.11l.46-.17-.59-1.64-.47.17z" class="fil5"/><path id="1" d="M4.57 5.97l-.47.17-.01-.05.46-.17.04.02-.02.03zm.02-.03v.02l-.02.01.02-.03zm-.6-1.65l.6 1.65-.05.01-.59-1.64.01-.03.03.01zm-.03-.01l.02-.01.01.02-.03-.01zm-.46.16l.46-.16.02.04-.47.17-.03-.01.02-.04zm-.02.04l-.01-.03.03-.01-.02.04zm.59 1.64l-.59-1.64.05-.02.59 1.64-.02.04-.03-.02zm.03.02h-.02l-.01-.02.03.02z" class="fil1"/></g><g><path fill="#2b2a29" d="M3.33 4.67l.74-.26-.05-.13-.74.27z"/><path id="1" d="M4.07 4.43l-.73.27-.02-.05.74-.26.03.01-.02.03zm.02-.03l.01.02-.03.01.02-.03zm-.05-.13l.05.13-.05.02L4 4.29l.01-.03.03.01zm-.03-.01l.02-.01.01.02-.03-.01zm-.74.26l.74-.26.02.04-.74.27-.03-.01.01-.04zm-.01.04l-.01-.03.02-.01-.01.04zm.04.12l-.04-.12.04-.02.05.13-.01.03-.04-.02zm.04.02l-.03.01-.01-.03.04.02z" class="fil1"/></g><g><path fill="#f08bb2" d="M2.83 3.4c.56-.21 1.11-.37 1.67-.46.05-.01.06-.06.05-.14-.06-.21-.35-.29-.91-.2-.31.06-.68.07-1.07.07-.29-.01-.54-.06-.77-.13-.22-.07-.28.07-.24.19.41.64.96.76 1.27.67z"/><path id="1" d="M4.5 2.92l.01.04v.01h-.06l-.05.01-.05.01L4.3 3l-.06.01-.05.01-.05.01-.05.02-.05.01-.06.01-.05.01-.05.01-.05.02-.05.01-.06.01-.05.02-.05.01-.05.02-.05.01-.06.02-.05.02-.05.01-.05.02-.05.01-.06.02-.05.02-.05.02-.05.02-.05.01-.06.02-.05.02-.05.02-.02-.04.05-.02.06-.02.05-.02.05-.02.05-.02.06-.02.05-.01.05-.02.05-.02.06-.01.05-.02.05-.02.05-.01.05-.02.06-.01.05-.02.05-.01.05-.02.06-.01.05-.01.05-.02.05-.01.05-.01.06-.01.05-.01.05-.01.05-.02.06-.01.05-.01.05-.01h.06l.05-.01zm.01.04v.01-.01zm.01-.15l.05-.02v.04l.01.01v.03h-.01v.04l-.01.01v.01l-.01.01-.01.01-.01.01h-.02l-.01-.04v-.01h.02v-.03h.01V2.82l-.01-.01V2.8v.01zm.05-.02v.01-.01zm-.93-.16l-.01-.05.05-.01.06-.01h.04l.05-.01h.09l.04-.01h.16l.04.01h.06l.04.01h.03l.02.01.03.01.03.01.02.01.02.01.03.01.02.01.01.02.02.01.02.02.01.02.01.01.02.02.01.02v.02l.01.02-.05.02v-.02l-.01-.02-.01-.01-.01-.02-.01-.01-.01-.02-.01-.01-.02-.01-.01-.02-.02-.01-.02-.01-.02-.01-.02-.01h-.02l-.03-.01-.03-.01h-.02l-.03-.01h-.03l-.04-.01H3.93l-.05.01h-.04l-.05.01h-.05l-.05.01-.05.01zm-.01-.05zm-1.06.11v-.05H3.1l.04-.01h.13l.03-.01h.06l.03-.01h.07l.03-.01h.03l.03-.01h.02l.03-.01h.03l.01.05h-.03l-.03.01h-.03l-.03.01h-.03l-.03.01H3.4l-.03.01h-.1l-.03.01h-.1l-.04.01h-.53zm0-.05zm-.78-.08l.02-.04h.02l.02.01.02.01h.02l.02.01h.03l.02.01.02.01H2l.03.01h.02l.02.01h.03l.02.01h.05l.02.01h.02l.03.01h.07l.03.01h.07l.03.01h.13v.05h-.11l-.03-.01h-.1l-.02-.01h-.05l-.03-.01h-.05l-.02-.01h-.03l-.02-.01h-.02l-.03-.01h-.02l-.02-.01h-.03l-.02-.01h-.02l-.03-.01H1.9l-.02-.01-.02-.01h-.02l-.03-.01-.02-.01zm0 0zm-.21.16l-.04.03v-.02l-.01-.01V2.6l.01-.01v-.01l.01-.01.01-.01v-.01l.01-.01.01-.01.01-.01h.01l.02-.01.01-.01H1.75l.01.01h.02l.03.01-.02.04h-.02l-.02-.01h-.04l-.02-.01-.01.01h-.05v.01h-.01l-.01.01-.01.01-.01.01v.01l-.01.01v.02l-.01.01v.03l.01.01v.04l.01.01-.01-.01zm-.04.03v-.01.01zm1.28.63l.02.04-.04.01-.03.01h-.03l-.04.01H2.55l-.04-.01h-.04l-.04-.01-.04-.01-.04-.01-.04-.01-.04-.02-.05-.02-.04-.02-.04-.02-.05-.02-.04-.03L2 3.24l-.04-.03-.04-.03-.05-.04-.04-.04-.04-.04-.04-.05-.05-.04-.04-.05-.04-.06-.04-.05-.04-.06.04-.03.04.06.04.05.04.06.04.04.04.05.04.04.04.04.05.04.04.04.04.03.04.03.04.03.05.02.04.03.04.02.04.02.04.01.04.02.04.01.04.01.04.01.04.01h.04l.04.01h.14l.03-.01h.03l.03-.01.03-.01v.01zm.02.04z" class="fil1"/></g><g><path d="M6.09.02c.06 0 .11.02.15.04.04-.02.08-.02.12-.02.19 0 .34.15.34.34 0 .03 0 .06-.01.09l.2.45c.07.06.12.15.12.24 0 .17-.14.31-.31.31-.17 0-.31-.14-.31-.31 0-.09.04-.17.11-.23L6.41.71c-.02.01-.04.01-.05.01-.03 0-.05-.01-.08-.01-.05.03-.12.05-.19.05-.2 0-.37-.16-.37-.37 0-.2.17-.37.37-.37z" class="fil5"/><path id="1" d="M6.24.03l.01.05h-.02V.07H6.2V.06h-.04V.05h-.07V0h.07v.01h.04l.01.01h.02v.01h.02-.01zm.01.05h-.02.02zm.11-.07v.05h-.05v.01h-.05v.01h-.01L6.24.03h.02V.02H6.32V.01h.04zm.36.37h-.04V.36L6.67.35V.3L6.66.28V.27L6.65.25 6.64.24V.23L6.63.21 6.62.2 6.61.19 6.6.18 6.59.17 6.58.15 6.57.14 6.56.13 6.55.12h-.02L6.52.11 6.51.1 6.49.09h-.01L6.47.08h-.02L6.44.07H6.4L6.39.06h-.03V.01h.03l.02.01h.04l.02.01.01.01h.02l.02.01.01.01.02.01.01.01.02.01.01.01.01.01.02.01.01.01.01.02.01.01.01.01.01.02.01.01.01.02.01.02v.01l.01.02v.02l.01.01v.08zm-.01.08l-.04.02-.01-.02h.01V.4h.01V.38h.04v.08h-.01v.01-.01zm-.04.02L6.66.47V.46l.01.02zm.2.45l-.2-.45.04-.02.2.45-.03.03-.01-.01zm.01.01h-.01V.93l.01.01zm.16.22h-.05v-.03l-.01-.01v-.04l-.01-.01v-.01l-.01-.01v-.01l-.01-.01v-.01l-.01-.01V1h-.01V.99L6.92.98 6.91.97 6.9.96 6.89.95h-.01V.94L6.91.9v.01h.01l.01.01v.01h.01l.01.01v.01h.01l.01.01v.01l.01.01.01.01V1l.01.01v.01l.01.01v.01l.01.01v.03l.01.01v.04l.01.01v.02zm-.34.34v-.05h.02l.01-.01h.04l.02-.01h.01l.01-.01h.02l.01-.01h.01l.01-.01.01-.01.01-.01.01-.01.01-.01.01-.01.01-.01.01-.01.01-.01.01-.01V1.3l.01-.01v-.02l.01-.01v-.01l.01-.02v-.02l.01-.02v-.03h.05v.02l-.01.02v.05l-.01.01v.02l-.01.01-.01.02v.01l-.01.02-.01.01-.01.01-.01.01-.01.02-.01.01-.01.01-.02.01-.01.01-.01.01-.02.01-.01.01h-.01l-.02.01h-.01l-.02.01h-.02l-.01.01h-.05l-.02.01zm-.33-.34h.04v.02l.01.01v.04l.01.02v.01l.01.01v.02l.01.01.01.01v.01l.01.01.01.01.01.01.01.01.01.01.01.01.01.01.01.01.01.01h.01l.02.01h.01l.01.01h.02l.01.01h.04l.02.01h.01v.05l-.02-.01h-.05l-.01-.01H6.6l-.01-.01h-.02l-.01-.01h-.02l-.01-.01-.02-.01-.01-.01-.01-.01-.01-.01-.02-.01-.01-.01-.01-.02-.01-.01-.01-.01-.01-.01v-.02l-.01-.01-.01-.02v-.01l-.01-.02v-.01l-.01-.02v-.07zm.11-.22l.04-.02-.01.03-.01.01-.01.01v.01h-.01v.01h-.01V1h-.01v.02h-.01v.01l-.01.01v.02h-.01v.03h-.01V1.15l-.01.01h-.04v-.07l.01-.01v-.02l.01-.01v-.02l.01-.01v-.01h.01V.99l.01-.01.01-.01V.96h.01l.01-.01V.94h.01V.93l.01-.01h.01V.91v.03zm.04-.02l.01.02-.02.01.01-.03zM6.43.7l.09.22-.04.02-.1-.22.02-.03.03.01zM6.4.69h.02l.01.01L6.4.69zm-.04.05V.69h.04l.01.05h-.05zM6.29.73L6.27.69h.09v.05h-.07L6.28.73h.01zM6.27.69l.01-.01.01.01h-.02zm-.18.09V.74h.03V.73H6.18l.01-.01h.02V.71h.02L6.24.7h.01l.01-.01h.01l.02.04-.01.01h-.01v.01h-.02l-.01.01h-.02l-.01.01h-.02l-.01.01h-.09zM5.7.39h.04l.01.02v.05l.01.02v.01l.01.02v.02l.01.01.01.02v.01l.01.01.01.02.01.01.01.01.02.02.01.01.01.01.01.01.02.01.01.01h.02l.01.01.02.01.01.01h.02l.02.01h.05l.01.01h.02v.04h-.08L5.99.77h-.02L5.96.76 5.94.75h-.02L5.9.74 5.89.73 5.87.72 5.86.71 5.84.7 5.83.68 5.81.67 5.8.66 5.79.64 5.77.63 5.76.61 5.75.6 5.74.58V.56L5.73.55 5.72.53 5.71.51V.49L5.7.47V.39zM6.09 0v.05h-.05l-.02.01h-.03l-.02.01-.01.01h-.02l-.01.01-.02.01-.01.01-.02.01-.01.01-.01.01-.01.01-.02.01-.01.01-.01.02L5.8.2l-.01.01v.02l-.01.01-.01.02v.01l-.01.02v.02l-.01.01v.05l-.01.02H5.7V.31l.01-.02V.28l.01-.02.01-.02.01-.02V.21l.01-.02.01-.02.01-.01.02-.02.01-.01.01-.02.02-.01.01-.01.02-.01.01-.01.02-.01.01-.01.02-.01.02-.01.02-.01h.01l.02-.01h.02L6.03 0h.06z" class="fil1"/></g></g></g></svg>