<svg xmlns="http://www.w3.org/2000/svg" width="105" height="58" fill-rule="evenodd" clip-rule="evenodd" image-rendering="optimizeQuality" shape-rendering="geometricPrecision" text-rendering="geometricPrecision" viewBox="0 0 123.1 67.38"><path fill="#F08BB2" d="M32.17 10.37h33.04c2.53 0 4.6 5.21 4.6 7.75v44.46c0 2.53-2.07 4.6-4.6 4.6H32.17c-2.53 0-4.6-2.07-4.6-4.6V18.12c0-2.54 2.07-7.75 4.6-7.75z"/><path fill="#2B2A29" fill-rule="nonzero" d="M65.21 10.56H32.17v-.39h33.04v.39zm4.8 7.56h-.39l-.01-.24-.02-.25-.03-.26-.03-.28-.06-.29-.06-.3-.07-.3-.08-.31-.09-.31-.1-.32-.11-.32-.12-.32-.13-.31-.13-.32-.14-.3-.15-.31-.16-.29-.17-.29-.17-.27-.17-.26-.19-.25-.18-.24-.19-.22-.2-.19-.2-.18-.2-.16-.21-.14-.2-.12-.21-.09-.21-.06-.21-.04-.21-.02v-.39l.26.02.25.05.26.07.24.11.24.13.23.16.22.17.22.2.22.21.2.24.2.25.19.26.18.27.18.29.17.3.17.3.15.31.15.32.14.33.13.32.12.33.11.33.11.32.09.33.08.31.08.32.06.31.05.3.05.29.03.28.02.26v.26zm-.39 44.46V18.12h.39v44.46h-.39zm-4.41 4.8v-.39l.22-.01.23-.02.22-.03.21-.03.22-.05.2-.06.21-.07.2-.08.19-.09.2-.1.18-.1.18-.12.17-.12.17-.13.16-.14.15-.15.15-.15.14-.16.13-.17.12-.17.12-.18.1-.19.1-.19.09-.19.08-.2.07-.21.06-.21.05-.21.03-.21.03-.23.02-.22.01-.22h.39v.24l-.02.25-.03.24-.05.23-.05.23-.07.23-.07.22-.09.22-.09.22-.11.2-.12.2-.12.2-.14.19-.14.18-.15.17-.16.17-.17.16-.17.15-.18.14-.19.14-.2.12-.2.12-.2.11-.22.09-.22.09-.22.07-.23.07-.23.05-.23.05-.24.03-.25.02h-.24zm-33.04-.39h33.04v.39H32.17v-.39zm-4.8-4.41h.4v.22l.02.22.03.23.04.21.05.21.06.21.06.21.08.2.09.19.1.19.11.19.11.18.12.17.14.17.14.16.14.15.16.15.15.14.17.13.17.12.18.12.19.1.19.1.19.09.2.08.21.07.21.06.21.05.22.03.22.03.22.02.22.01v.39h-.24l-.25-.02-.24-.03-.23-.05-.23-.05-.23-.07-.22-.07-.22-.09-.21-.09-.21-.11-.2-.12-.2-.12-.19-.14-.18-.14-.17-.15-.17-.16-.16-.17-.15-.17-.14-.18-.14-.19-.12-.2-.12-.2-.1-.2-.1-.22-.09-.22-.07-.22-.07-.23-.05-.23-.04-.23-.04-.24-.01-.25-.01-.24zm.4-44.46v44.46h-.4V18.12h.4zm4.4-7.95v.39l-.21.02-.21.04-.21.06-.2.09-.21.12-.21.14-.2.16-.2.18-.19.19-.19.22-.19.24-.19.25-.17.26-.17.27-.17.29-.15.29-.15.31-.15.31-.13.31-.13.31-.12.32-.11.32-.1.32-.09.31-.08.31-.07.3-.06.3-.05.29-.04.28-.03.26-.02.25v.24h-.4l.01-.26.01-.26.04-.28.04-.29.05-.3.06-.31.08-.31.08-.32.09-.33.11-.32.11-.33.12-.33.13-.32.14-.33.15-.32.16-.31.16-.3.17-.3.18-.29.18-.27.19-.26.2-.25.21-.24.21-.21.22-.2.22-.17.23-.16.24-.13.25-.11.25-.07.25-.05.26-.02z"/><path fill="#99CFBA" d="M27.57 54.94V21.9h34.27v33.04z"/><path fill="#2B2A29" fill-rule="nonzero" d="M27.77 21.9v33.04h-.4V21.9l.2-.19.2.19zm-.4 0v-.19h.2l-.2.19zm34.47.2H27.57v-.39h34.27l.19.19-.19.2zm0-.39h.19v.19l-.19-.19zm-.2 33.23V21.9h.39v33.04l-.19.19-.2-.19zm.39 0v.19h-.19l.19-.19zm-34.46-.2h34.27v.39H27.57l-.2-.19.2-.2zm0 .39h-.2v-.19l.2.19z"/><path fill="#F5B2B6" d="M33.7.2h29.98c1.74 0 3.16 1.42 3.16 3.16v4.19c0 1.74-1.42 3.17-3.16 3.17H33.7c-1.74 0-3.16-1.43-3.16-3.17V3.36C30.54 1.62 31.96.2 33.7.2z"/><path fill="#2B2A29" fill-rule="nonzero" d="M63.68.39H33.7V0h29.98v.39zm3.36 2.97h-.39l-.01-.15-.01-.15-.02-.15-.02-.14-.04-.14-.04-.15-.05-.13-.05-.14-.06-.13-.06-.13-.08-.12-.07-.12-.09-.12-.09-.11-.09-.11-.1-.1-.1-.1-.11-.09-.11-.09-.12-.09-.12-.07-.12-.08-.13-.06-.13-.06-.14-.05-.13-.05-.14-.04-.15-.03-.14-.03-.15-.02-.15-.01-.15-.01V0h.17l.17.02.17.02.16.03.16.04.16.04.16.05.15.06.15.07.15.08.14.08.13.09.14.09.12.1.13.11.11.11.11.11.11.13.1.12.1.14.08.13.08.14.08.15.07.15.06.15.05.16.04.16.04.16.03.16.02.17.02.17v.17zm-.39 4.19V3.36h.39v4.19h-.39zm-2.97 3.36v-.39l.15-.01.15-.01.15-.02.14-.02.15-.04.14-.04.13-.04.14-.06.13-.06.13-.06.12-.07.12-.08.12-.09.11-.08.11-.1.1-.09.1-.11.09-.11.09-.11.09-.12.07-.12.08-.12.06-.13.06-.13.05-.13.05-.14.04-.14.04-.15.02-.14.02-.15.01-.15.01-.15h.39v.17l-.02.17-.02.17-.03.16-.04.17-.04.16-.05.15-.06.16-.07.14-.08.15-.08.14-.08.14-.1.13-.1.12-.11.13-.11.11-.11.12-.13.1-.12.1-.14.1-.13.08-.14.09-.15.07-.15.07-.15.06-.16.05-.16.05-.16.03-.16.03-.17.02-.17.02h-.17zm-29.98-.39h29.98v.39H33.7v-.39zm-3.36-2.97h.39l.01.15.01.15.02.15.03.14.03.15.04.14.05.14.05.13.06.13.06.13.08.12.07.12.09.12.09.11.09.11.1.11.1.09.11.1.11.08.12.09.12.08.12.07.13.06.13.06.14.06.13.04.14.04.15.04.14.02.15.02.15.01.15.01v.39h-.17l-.17-.02-.17-.02-.16-.03-.16-.03-.16-.05-.16-.05-.15-.06-.15-.07-.15-.07-.14-.09-.13-.08-.14-.1-.12-.1-.13-.1-.11-.12-.11-.11-.11-.13-.1-.12-.09-.13-.09-.14-.08-.14-.08-.15-.07-.14-.06-.16-.05-.15-.04-.16-.04-.17-.03-.16-.02-.17-.02-.17v-.17zm.39-4.19v4.19h-.39V3.36h.39zM33.7 0v.39l-.15.01-.15.01-.15.02-.14.03-.15.03-.14.04-.13.05-.14.05-.13.06-.13.06-.12.08-.12.07-.12.09-.11.09-.11.09-.1.1-.1.1-.09.11-.09.11-.09.12-.07.12-.08.12-.06.13-.06.13-.05.14-.05.13-.04.15-.03.14-.03.14-.02.15-.01.15-.01.15h-.39v-.17l.02-.17.02-.17.03-.16.04-.16.04-.16.05-.16.06-.15.07-.15.08-.15.08-.14.09-.13.09-.14.1-.12.11-.13.11-.11.11-.11.13-.11.12-.1.14-.09.13-.09.14-.08.15-.08.15-.07.15-.06.16-.05.16-.04.16-.04.16-.03.17-.02.17-.02h.17z"/><path fill="#C4D985" d="M7.92 1.46c4.27 0 7.72 6.18 7.73 12.28 0 5.69-.38 10.31-4.77 11.8-1.05.41-1 1.96-1 3.87v25.47H5.97v-25.4c0-2.24-.01-3.47-1.2-3.86C.58 24.23.2 19.35.2 13.74.2 6.95 3.66 1.46 7.92 1.46z"/><path fill="#2B2A29" fill-rule="nonzero" d="M15.84 13.74h-.39l-.01-.57-.03-.56-.05-.56-.07-.56-.08-.56-.11-.55-.12-.54-.13-.54-.16-.53-.16-.52-.19-.51-.2-.49-.21-.48-.23-.47-.23-.45-.26-.44-.26-.42-.28-.39-.28-.38-.3-.36-.31-.33-.31-.31-.33-.28-.33-.26-.34-.24-.35-.2-.35-.18-.36-.14-.36-.12-.37-.08-.38-.05-.38-.02v-.39l.42.02.41.05.4.09.4.13.38.15.38.19.37.22.36.25.36.27.34.3.33.32.32.35.31.37.29.39.29.42.27.43.26.45.25.46.23.48.22.49.2.51.19.52.17.53.16.55.14.54.12.56.11.56.09.57.06.58.05.57.03.58.01.58zm-4.88 11.99l-.15-.37h.01l.39-.15.36-.16.35-.18.32-.2.3-.2.28-.23.27-.25.24-.25.23-.27.21-.29.19-.3.18-.32.17-.33.15-.34.14-.36.12-.37.11-.39.1-.39.09-.41.08-.42.07-.43.06-.45.05-.45.04-.46.04-.47.03-.48.02-.5.01-.5.02-.5v-.52l.01-.52v-.53h.39v1.06l-.01.52-.01.51-.02.5-.02.49-.03.49-.03.48-.05.47-.05.46-.06.46-.07.44-.08.43-.09.42-.11.41-.11.4-.13.38-.14.37-.16.37-.18.35-.19.33-.21.32-.22.31-.24.29-.27.28-.28.26-.3.24-.32.23-.35.21-.36.19-.39.17-.41.15h.01zm-.15-.37l.01-.01v.01h-.01zm-.74 4.05h-.39v-1.2l.01-.16v-.16l.01-.15.01-.16.01-.15.01-.14.02-.14.02-.14.02-.13.03-.13.02-.13.04-.12.04-.12.04-.12.04-.11.06-.1.05-.1.07-.1.07-.09.08-.09.08-.07.09-.07.1-.07.1-.05.11-.05.15.37-.08.03-.08.04-.07.05-.06.05-.06.05-.06.06-.05.07-.05.07-.04.08-.05.09-.04.09-.03.1-.03.1-.03.1-.03.12-.02.12-.02.12-.02.13-.01.13-.02.14-.01.14-.01.14v.16l-.01.15v.32l-.01.16V29.41zm-.39 25.47V29.41h.39v25.47l-.19.19-.2-.19zm.39 0v.19h-.19l.19-.19zm-4.1-.2h3.91v.39H5.97l-.2-.19.2-.2zm0 .39h-.2v-.19l.2.19zm.19-25.59v25.4h-.39v-25.4h.39zm-1.45-3.67l.13-.38.11.04.12.06.11.05.1.06.09.07.09.07.08.08.08.09.06.09.07.1.05.1.06.1.04.11.04.12.04.12.03.12.03.13.02.14.02.13.02.15.01.15.02.15.01.16.01.16v.17l.01.17v1.16h-.39v-.97l-.01-.18v-.17L5.75 28l-.01-.16-.01-.15-.01-.15-.01-.14-.02-.13-.02-.13-.02-.12-.03-.12-.02-.11-.03-.1-.04-.1-.04-.09-.04-.08-.04-.08-.05-.07-.05-.07-.06-.06-.06-.06-.06-.06-.07-.05-.08-.05-.08-.04-.09-.04-.1-.03zM0 13.74h.39l.01.52v.52l.01.51.01.51.02.5.02.49.03.49.03.47.04.47.05.46.06.45.07.44.07.43.09.41.09.41.11.39.12.38.14.36.14.36.16.33.17.33.19.3.2.3.22.27.24.26.25.24.27.23.28.21.31.19.33.17.35.16.37.13-.13.38-.39-.15-.37-.16-.36-.19-.33-.2-.31-.23-.29-.24-.27-.26-.25-.28-.23-.3-.22-.31-.2-.33-.18-.34-.17-.35-.15-.37-.14-.38-.13-.4-.11-.4-.1-.42-.09-.43-.07-.44-.07-.45-.06-.45-.05-.47-.04-.48-.04-.48-.03-.49-.02-.49-.02-.51-.01-.51v-.51L0 14.27v-.53zM7.92 1.26v.39l-.38.02-.38.04-.37.08-.36.1-.36.13-.36.16-.35.19-.33.21-.34.24-.32.27-.32.29-.3.31-.3.33-.28.36-.28.38-.26.4-.25.42-.24.44-.23.45-.21.48-.2.49-.18.51-.17.52-.16.54-.13.55-.12.56-.11.58-.08.59-.07.6-.05.61-.03.62-.01.62H0l.01-.64.03-.63.05-.62.07-.61.09-.6.1-.59.12-.58.14-.56.16-.55.17-.54.19-.52.2-.51.22-.48.24-.48.24-.45.26-.43.28-.42.28-.39.3-.37.31-.35.32-.33.33-.3.34-.28.35-.25.37-.23.37-.2.38-.17.38-.14.4-.11.4-.09.41-.05.41-.01z"/><path fill="#A1B567" d="M6.34 38.4h3.17c1.84 0 3.34 1.51 3.34 3.35v14.06c0 1.84-1.5 3.35-3.34 3.35H6.34c-1.84 0-3.35-1.51-3.35-3.35V41.75c0-1.84 1.51-3.35 3.35-3.35z"/><path fill="#2B2A29" fill-rule="nonzero" d="M9.51 38.6H6.34v-.39h3.17v.39zm3.54 3.15h-.39l-.01-.16-.01-.16-.02-.16-.03-.15-.03-.15-.05-.15-.05-.15-.05-.14-.06-.14-.07-.13-.08-.14-.08-.13-.09-.12-.1-.12-.09-.11-.11-.11-.11-.11-.11-.1-.12-.09-.13-.09-.12-.08-.14-.08-.13-.07-.14-.06-.14-.06-.15-.05-.15-.04-.15-.03-.16-.03-.15-.02-.16-.01-.16-.01v-.39h.18l.18.01.17.03.18.03.17.04.17.05.16.05.16.07.16.07.15.08.15.08.14.09.15.1.13.11.13.11.12.12.12.12.11.13.11.13.09.14.1.15.08.14.08.16.07.16.07.16.05.16.05.17.04.17.03.17.02.18.02.18v.18zm-.39 14.06V41.75h.39v14.06h-.39zm-3.15 3.55v-.4h.16l.16-.02.15-.02.16-.02.15-.04.15-.04.15-.05.14-.06.14-.06.13-.07.14-.08.12-.08.13-.09.12-.09.11-.1.11-.1.11-.11.09-.12.1-.12.09-.12.08-.13.08-.13.07-.14.06-.14.05-.14.05-.15.05-.15.03-.15.03-.15.02-.16.01-.16.01-.16h.39v.18l-.02.18-.02.18-.03.17-.04.17-.05.17-.05.17-.07.16-.07.15-.08.16-.08.15-.1.14-.09.14-.11.13-.11.13-.12.12-.12.12-.13.11-.13.11-.15.1-.14.09-.15.09-.15.08-.16.07-.16.06-.16.06-.17.04-.17.04-.18.04-.17.02-.18.01-.18.01zm-3.17-.4h3.17v.4H6.34v-.4zm-3.55-3.15h.4v.16l.01.16.02.16.03.15.04.15.04.15.05.15.06.14.06.14.07.14.07.13.09.13.09.12.09.12.1.12.1.11.11.1.12.1.12.09.12.09.13.08.13.08.14.07.13.06.15.06.14.05.15.04.16.04.15.02.16.02.16.02h.16v.4l-.19-.01-.17-.01-.18-.02-.17-.04-.18-.04-.16-.04-.17-.06-.16-.06-.16-.07-.15-.08-.15-.09-.14-.09-.14-.1-.13-.11-.13-.11-.13-.12-.12-.12-.11-.13-.1-.13-.1-.14-.09-.14-.09-.15-.08-.16-.07-.15-.06-.16-.06-.17-.05-.17-.03-.17-.04-.17-.02-.18-.01-.18-.01-.18zm.4-14.06v14.06h-.4V41.75h.4zm3.15-3.54v.39l-.16.01-.16.01-.16.02-.15.03-.16.03-.15.04-.14.05-.15.06-.13.06-.14.07-.13.08-.13.08-.12.09-.12.09-.12.1-.11.11-.1.11-.1.11-.09.12-.09.12-.09.13-.07.14-.07.13-.06.14-.06.14-.05.15-.04.15-.04.15-.03.15-.02.16-.01.16v.16h-.4l.01-.18.01-.18.02-.18.04-.17.03-.17.05-.17.06-.16.06-.16.07-.16.08-.16.09-.14.09-.15.1-.14.1-.13.11-.13.12-.12.13-.12.13-.11.13-.11.14-.1.14-.09.15-.08.15-.08.16-.07.16-.07.17-.05.16-.05.18-.04.17-.03.18-.03.17-.01h.19z"/><path fill="#C4D985" d="M85.27 28.96h33.03c2.53 0 4.61 3.03 4.61 4.5v25.81c0 1.47-2.08 2.67-4.61 2.67H85.27c-2.54 0-4.61-1.2-4.61-2.67V33.46c0-1.47 2.07-4.5 4.61-4.5z"/><path fill="#2B2A29" fill-rule="nonzero" d="M118.3 29.16H85.27v-.39h33.03v.39zm4.8 4.3h-.39l-.01-.12-.01-.14-.03-.15-.04-.15-.05-.16-.06-.17-.07-.17-.08-.17-.09-.18-.1-.18-.1-.19-.12-.18-.12-.18-.14-.18-.14-.17-.14-.18-.16-.16-.16-.17-.17-.16-.18-.15-.18-.14-.18-.13-.19-.13-.2-.12-.2-.1-.2-.09-.21-.08-.21-.07-.21-.06-.22-.03-.22-.03-.22-.01v-.39l.25.01.25.02.24.05.24.06.23.07.23.09.23.1.21.12.22.12.2.14.2.14.2.16.18.16.18.17.17.17.17.18.16.19.15.18.14.19.13.19.13.2.11.19.1.19.1.19.09.19.07.19.07.18.05.19.05.17.03.17.02.17v.15zm-.39 25.81V33.46h.39v25.81h-.39zm-4.41 2.87v-.4h.23l.23-.01.22-.02.22-.02.22-.03.21-.03.21-.04.2-.05.2-.05.19-.06.19-.06.18-.07.17-.07.17-.08.16-.08.15-.08.15-.09.14-.09.13-.1.12-.1.11-.1.1-.1.1-.11.08-.11.08-.11.06-.11.06-.12.05-.11.03-.12.03-.11.01-.12.01-.12h.39v.15l-.02.15-.04.16-.04.14-.06.14-.07.15-.08.13-.09.13-.1.13-.11.13-.12.11-.12.12-.14.11-.15.11-.15.1-.16.1-.16.09-.18.09-.18.08-.19.08-.19.07-.2.07-.2.06-.22.05-.21.05-.22.05-.22.03-.23.03-.23.03-.24.02-.24.01h-.24zm-33.03-.4h33.03v.4H85.27v-.4zm-4.81-2.47h.4v.12l.02.12.02.11.04.12.05.11.05.12.07.11.07.11.09.11.09.11.11.1.11.1.12.1.13.09.14.1.14.09.16.08.16.08.16.08.18.07.18.07.19.06.19.06.19.05.21.05.21.04.21.03.21.03.22.02.23.02.23.01h.23v.4h-.25l-.23-.01-.24-.02-.23-.03-.23-.03-.23-.03-.21-.05-.22-.05-.21-.05-.2-.06-.2-.07-.2-.07-.18-.08-.18-.08-.18-.09-.17-.09-.16-.1-.15-.1-.14-.11-.14-.11-.13-.11-.12-.12-.11-.13-.1-.13-.09-.13-.08-.14-.06-.14-.06-.14-.05-.14-.03-.16-.02-.15-.01-.15zm.4-25.81v25.81h-.4V33.46h.4zm4.41-4.69v.39l-.23.01-.21.03-.22.03-.22.06-.21.07-.2.08-.21.09-.2.1-.19.12-.19.13-.19.13-.18.14-.17.15-.17.16-.16.17-.16.16-.15.18-.14.17-.13.18-.13.18-.11.18-.11.19-.1.18-.09.18-.08.17-.07.17-.06.17-.05.16-.03.15-.03.15-.02.14v.12h-.4l.01-.15.02-.17.03-.17.04-.17.06-.19.06-.18.08-.19.09-.19.09-.19.11-.19.11-.19.13-.2.13-.19.14-.19.15-.18.16-.19.16-.18.17-.17.18-.17.19-.16.19-.16.2-.14.21-.14.21-.12.22-.12.22-.1.23-.09.24-.07.24-.06.24-.05.25-.02.25-.01z"/><path fill="#99CFBA" d="M80.66 54.83V35.66h34.27v19.17z"/><path fill="#2B2A29" fill-rule="nonzero" d="M80.86 35.66v19.17h-.4V35.66l.2-.2.2.2zm-.4 0v-.2h.2l-.2.2zm34.47.2H80.66v-.4h34.27l.19.2-.19.2zm0-.4h.19v.2l-.19-.2zm-.2 19.37V35.66h.39v19.17l-.19.2-.2-.2zm.39 0v.2h-.19l.19-.2zm-34.46-.19h34.27v.39H80.66l-.2-.2.2-.19zm0 .39h-.2v-.2l.2.2z"/><path fill="#A1B567" d="M86.8 18.76h29.97c1.74 0 3.16 1.42 3.16 3.16v4.19c0 1.74-1.42 3.16-3.16 3.16H86.8c-1.75 0-3.17-1.42-3.17-3.16v-4.19c0-1.74 1.42-3.16 3.17-3.16z"/><path fill="#2B2A29" fill-rule="nonzero" d="M116.77 18.95H86.8v-.39h29.97v.39zm3.36 2.97h-.39l-.01-.15-.01-.15-.02-.15-.02-.14-.04-.15-.04-.14-.04-.14-.06-.13-.06-.13-.06-.13-.07-.12-.08-.12-.09-.12-.08-.11-.1-.11-.09-.11-.11-.09-.11-.1-.11-.08-.12-.09-.12-.08-.12-.07-.13-.06-.13-.06-.13-.05-.14-.05-.14-.04-.15-.04-.14-.02-.15-.02-.15-.01-.15-.01v-.39h.17l.17.02.17.02.16.03.17.03.16.05.15.05.16.06.14.07.15.08.14.08.14.08.13.1.12.1.13.1.11.12.12.11.1.13.1.12.1.14.08.13.09.14.07.15.07.15.06.15.05.15.05.16.03.17.03.16.02.17.02.17v.17zm-.39 4.19v-4.19h.39v4.19h-.39zm-2.97 3.36v-.39l.15-.01.15-.01.15-.02.14-.02.15-.04.14-.04.14-.05.13-.05.13-.06.13-.06.12-.08.12-.07.12-.09.11-.09.11-.09.11-.1.09-.1.1-.11.08-.11.09-.12.08-.12.07-.12.06-.13.06-.13.06-.14.04-.13.04-.14.04-.15.02-.14.02-.15.01-.15.01-.15h.39v.17l-.02.17-.02.17-.03.16-.03.17-.05.16-.05.15-.06.15-.07.15-.07.15-.09.14-.08.13-.1.14-.1.12-.1.13-.12.11-.11.11-.13.11-.12.1-.13.1-.14.08-.14.08-.15.08-.14.07-.16.06-.15.05-.16.04-.17.04-.16.03-.17.02-.17.02h-.17zm-29.97-.39h29.97v.39H86.8v-.39zm-3.37-2.97h.4v.15l.01.15.02.15.03.14.03.15.04.14.05.13.05.14.06.13.07.13.07.12.08.12.08.12.09.11.09.11.1.1.1.1.11.09.11.09.12.09.12.07.12.08.13.06.13.06.14.05.14.05.14.04.14.04.15.02.14.02.15.01.16.01v.39h-.18l-.17-.02-.16-.02-.17-.03-.16-.04-.16-.04-.16-.05-.15-.06-.15-.07-.15-.08-.13-.08-.14-.08-.14-.1-.12-.1-.12-.11-.12-.11-.11-.11-.11-.13-.1-.12-.09-.14-.09-.13-.08-.14-.08-.15-.06-.15-.06-.15-.06-.15-.04-.16-.04-.17-.03-.16-.02-.17-.01-.17-.01-.17zm.4-4.19v4.19h-.4v-4.19h.4zm2.97-3.36v.39l-.16.01-.15.01-.14.02-.15.02-.14.04-.14.04-.14.05-.14.05-.13.06-.13.06-.12.07-.12.08-.12.09-.11.08-.11.1-.1.09-.1.11-.09.11-.09.11-.08.12-.08.12-.07.12-.07.13-.06.13-.05.13-.05.14-.04.14-.03.15-.03.14-.02.15-.01.15v.15h-.4l.01-.17.01-.17.02-.17.03-.16.04-.17.04-.16.06-.15.06-.15.06-.15.08-.15.08-.14.09-.13.09-.14.1-.12.11-.13.11-.11.12-.12.12-.1.12-.1.14-.1.14-.08.13-.08.15-.08.15-.07.15-.06.16-.05.16-.05.16-.03.17-.03.16-.02.17-.02h.18z"/></svg>