<svg xmlns="http://www.w3.org/2000/svg" width="106" height="70" fill-rule="evenodd" clip-rule="evenodd" image-rendering="optimizeQuality" shape-rendering="geometricPrecision" text-rendering="geometricPrecision" viewBox="0 0 16.05 10.6"><path fill="#C5E3D7" d="M1.84 8.66c-.08-.49-.85-2.22.06-2.27 1.09.04 5.69.85 6.05 1.74.21 1.16-1.31 2.44-2.3 2.44-1.59.06-3.4-.36-3.81-1.91z"/><path fill="#2B2A29" fill-rule="nonzero" d="M1.91 6.36l-.01.05h.01l-.08.01-.07.02-.06.03-.05.03-.04.04-.03.05-.03.05-.03.06-.01.07-.01.07-.01.08V7.09l.01.09.01.09.02.09.01.09.02.1.03.09.02.1.03.09.02.09.03.09.02.09.03.08.02.09.03.07.02.08.02.06.01.07.02.05.01.05-.05.01-.01-.05-.02-.05-.01-.06-.02-.07-.02-.07-.02-.08-.03-.08-.02-.09-.03-.08-.03-.09-.02-.1-.03-.09-.02-.1-.03-.09-.02-.1-.01-.09-.02-.1-.01-.09-.01-.09v-.25l.02-.08.01-.07.03-.07.03-.06.04-.05.05-.05.06-.04.06-.03.08-.02.08-.01h.01zm-.01 0h.01-.01zm6.08 1.77l-.05.01-.04-.08-.07-.08-.09-.08-.11-.08-.13-.08-.15-.07-.16-.08L7 7.51l-.19-.07-.21-.08-.21-.07-.23-.07-.23-.06-.24-.07-.25-.06-.25-.06-.25-.06-.25-.06-.25-.05-.25-.05-.24-.05-.24-.04-.23-.04-.23-.04-.21-.04-.21-.03-.19-.02-.18-.03-.17-.02-.15-.01-.13-.01-.11-.01.01-.05.11.01.13.01.15.01.16.02.18.03.2.02.2.03.22.04.23.04.23.04.24.04.24.05.25.05.25.05.26.06.25.06.24.06.25.06.24.07.23.06.23.07.22.08.2.07.2.07.18.08.17.08.15.08.13.08.11.08.1.09.07.08.05.09v.01zm0-.01v.01-.01zM5.65 10.6v-.05l.09-.01.1-.01.09-.02.1-.02.11-.03.1-.04.1-.04.11-.05.1-.05.1-.06.1-.07.1-.07.1-.07.1-.08.09-.08.09-.08.09-.09.08-.09.08-.1.07-.09.07-.1.07-.1.05-.11.06-.1.04-.11.04-.1.03-.11.02-.11.01-.1.01-.11-.01-.11-.01-.1.05-.01.01.11.01.11-.01.11-.01.11-.02.11-.03.11-.04.11-.05.11-.05.11-.06.1-.06.11-.07.1-.08.09-.08.1-.08.09-.09.09-.09.09-.1.08-.1.08-.1.08-.1.07-.1.06-.11.06-.1.06-.11.05-.1.04-.11.04-.1.03-.11.02-.1.02-.1.01-.09.01zm0-.05zM1.82 8.66l.05-.01.04.14.05.14.06.12.06.12.07.12.08.11.09.1.09.1.09.09.1.09.11.08.11.08.12.07.12.07.13.06.13.05.13.06.13.04.14.05.14.04.15.03.14.03.15.03.15.02.15.02.15.01.15.02h.15l.15.01H5.65v.05h-.6l-.16-.01-.15-.02-.15-.01-.15-.02-.15-.02-.15-.03-.15-.03-.14-.04-.14-.03-.14-.05-.14-.05-.13-.05-.13-.06-.13-.06-.12-.07-.12-.07-.12-.08-.11-.08-.1-.09-.1-.09-.09-.1-.09-.11-.08-.11-.07-.12-.07-.12-.06-.14-.05-.13-.04-.15zm0 0z"/><path fill="#C5E3D7" d="M2.47.03c1.25.03 1.92.85 1.92 2.5 0 .68-.29 1.73-.75 2.33-.43.28-1.02.57-1.47.8-.32.16-.53.31-.7.32C.64 5.98.03 4.39.03 2.75.03 1.1 1.22-.01 2.47.03z"/><path fill="#2B2A29" fill-rule="nonzero" d="M4.41 2.53h-.05v-.16l-.01-.14-.01-.14-.01-.14-.02-.13-.02-.13-.02-.12-.03-.12-.03-.11-.04-.11-.04-.1-.04-.1-.05-.09-.05-.09-.05-.08-.06-.08-.06-.08-.07-.07-.07-.06-.07-.06-.07-.06-.08-.05-.09-.05-.08-.04L3.2.18 3.11.15l-.1-.03-.1-.02L2.8.08 2.7.07 2.59.06 2.47.05V0l.12.01.11.01.11.01.11.02.1.02.1.03.1.04.09.04.09.04.08.05.08.05.08.06.08.06.07.07.06.07.07.08.06.08.05.08.05.09.05.1.05.1.04.11.03.11.04.11.03.12.02.12.02.13.02.14.01.13.01.15.01.14v.16zm-.76 2.35l-.03-.05v.01l.04-.06.04-.06.04-.06.04-.06.04-.07.04-.07.03-.06.04-.08.03-.07.03-.07.04-.08.03-.07.02-.08.03-.08.03-.08.02-.07.03-.08.02-.08.02-.08.02-.08.01-.08.02-.08.02-.07.01-.08.01-.07.01-.08.01-.07.01-.07v-.07l.01-.07v-.13h.05v.13l-.01.07v.07l-.01.07-.01.08-.01.07-.01.08-.01.08-.02.07-.02.08-.01.08-.02.08-.02.08-.03.08-.02.08-.02.08-.03.08-.03.08-.03.07-.03.08-.03.08-.03.07-.04.08-.03.07-.04.07-.04.07-.03.06-.04.07-.05.06-.04.06-.04.06-.01.01zm.01-.01l-.01.01.01-.01zm-1.48.81l-.02-.04.04-.03.04-.02.05-.02.04-.02.05-.03.04-.02.05-.02.05-.03.04-.02.05-.02.05-.03.05-.02.05-.03.04-.02.05-.03.05-.02.05-.03L3 5.2l.05-.02.04-.03.05-.02.05-.03.04-.03.05-.02.05-.03.04-.03.05-.02.04-.03.04-.03.04-.02.04-.03.04-.03.03.05-.04.02-.04.03-.04.03-.04.02-.05.03-.04.03-.05.03-.04.02-.05.03-.05.03-.04.02-.05.03-.05.02-.05.03-.05.03-.04.02-.05.03-.05.02-.05.03-.05.02-.05.03-.05.02-.04.03-.05.02-.05.02-.04.03-.05.02-.05.02-.04.02-.05.03-.04.02-.04.02zm-.71.33v-.05h.01l.02-.01h.03l.01-.01h.02l.02-.01h.02l.01-.01.02-.01.02-.01.02-.01.02-.01.02-.01.02-.01.02-.01.02-.01.03-.01.02-.01.02-.01.02-.02.03-.01.02-.01.03-.02.02-.01.03-.02.02-.01.03-.02.03-.01.03-.01.03-.02.03-.01.02.04-.03.02-.03.01-.03.02-.02.01-.03.01-.03.02-.02.01-.03.02-.02.01-.03.01-.02.02-.02.01-.03.01-.02.02-.02.01-.02.01-.03.01-.02.01-.02.01-.02.01-.02.01-.02.01-.02.01h-.02l-.01.01-.02.01h-.02L1.54 6H1.5l-.01.01h-.02zm0 0zM0 2.75h.05v.15l.01.15.01.15.01.15.01.15.02.15.02.15.03.14.03.14.03.14.03.13.04.13.04.13.04.13.04.11.05.12.05.11.05.1.05.1.06.1.06.09.06.08.06.07.06.07.07.06.06.05.07.05.07.04.07.03.07.02.07.01.08.01v.05L1.39 6l-.08-.01-.08-.02-.07-.04-.08-.04-.07-.05-.07-.05-.06-.06-.07-.07-.06-.08-.06-.09-.06-.09-.06-.09-.05-.1-.06-.11-.05-.11-.04-.12-.05-.12-.04-.12-.04-.13-.04-.13-.03-.14-.03-.14-.03-.14-.03-.15-.02-.14-.02-.15-.01-.15-.01-.15-.01-.16L0 2.9v-.15zM2.47 0v.05h-.11l-.12.01-.11.01-.12.02-.11.03-.11.03-.11.04-.11.04-.1.05-.11.05-.1.06-.1.07-.09.07-.09.08-.09.08L.8.78.72.87.64.96l-.08.1-.07.11-.06.11-.07.11-.05.12-.05.12-.05.13-.04.13-.04.13-.03.14-.02.14-.02.15-.01.14v.16H0v-.16l.01-.15.02-.15.02-.14.03-.14.04-.14.04-.13.05-.13.05-.12.06-.12.06-.12.07-.11.07-.11.08-.1.08-.1.08-.09.09-.09.09-.08.1-.08.09-.07.11-.07.1-.06.11-.06.1-.05.11-.04.12-.04.11-.03L2 .04l.12-.02.12-.01.12-.01h.11z"/><path fill="#C5E3D7" d="M1.66 6.34c.79-.39 1.57-.79 2.35-1.18.31-.15.7-.13 1.13-.03 1.75.4 2.91 1.03 3.05 2.09.14.98-1.06 1.99-2.51 2.07-2.69.13-4.82-1.77-4.02-2.95z"/><path fill="#2B2A29" fill-rule="nonzero" d="M4 5.14l.02.04-.07.04-.07.04-.08.03-.07.04-.07.04-.08.03-.07.04-.07.04-.08.04-.07.03-.07.04-.08.04-.07.03L3 5.7l-.08.04-.07.03-.07.04-.08.04-.07.04-.07.03-.08.04-.07.04-.08.03-.07.04-.07.04-.08.04-.07.03-.07.04-.08.04-.07.03-.07.04-.08.04-.02-.05.07-.03.08-.04.07-.04.07-.04.08-.03.07-.04.08-.04.07-.03.07-.04.08-.04.07-.04.07-.03.08-.04.07-.04.07-.03.08-.04.07-.04.07-.03.08-.04.07-.04.07-.04.08-.03.07-.04.07-.04.08-.03.07-.04.07-.04.08-.04.07-.03.07-.04.08-.04.07-.03zm0 0zm1.15-.04l-.01.05-.04-.01h-.04l-.04-.01-.04-.01-.04-.01H4.9l-.04-.01h-.04l-.03-.01h-.04l-.04-.01h-.32l-.03.01h-.03l-.04.01h-.03l-.03.01-.03.01-.03.01-.03.01-.03.01-.03.01-.03.01-.03.01L4 5.14l.03-.02.03-.01.03-.01.03-.01.03-.01.04-.01.03-.01.03-.01h.04l.03-.01h.03l.04-.01H4.72l.03.01h.08l.04.01.04.01h.04l.04.01.04.01.04.01h.04l.04.01zm-.01.05zm3.07 2.07h-.05l-.01-.09-.02-.1-.03-.09-.03-.09-.04-.08-.05-.09-.04-.08-.06-.08-.06-.08-.06-.08-.08-.07-.07-.07-.08-.07-.09-.07-.09-.07-.09-.06-.1-.06-.11-.07-.11-.05-.11-.06-.12-.06-.12-.05-.13-.05-.13-.05-.14-.05-.14-.05-.14-.04-.15-.05-.15-.04-.15-.04-.16-.04-.16-.04.01-.05.16.04.16.04.15.04.16.04.14.05.15.04.14.05.13.05.14.05.13.05.12.06.12.05.11.06.12.06.1.06.1.07.1.06.09.07.09.07.08.07.08.07.07.08.07.08.06.08.06.08.05.09.04.08.04.09.04.1.03.09.02.1.01.1zm-.05 0v.01-.01zm-2.48 2.1v-.06l.13-.01.13-.01.13-.02.13-.03.13-.03.12-.03.12-.04.12-.04.12-.05.11-.05.11-.06.1-.05.11-.06.09-.07.1-.07.08-.07.09-.07.08-.07.07-.08.07-.08.06-.08.06-.08.05-.09.05-.08.04-.09.03-.09.03-.09.02-.09.01-.09v-.18l-.01-.09h.05l.01.09v.19l-.01.09-.02.1-.03.09-.04.09-.04.09-.04.09-.06.08-.06.09-.06.08-.07.08-.08.08-.08.08-.08.07-.09.07-.1.07-.1.07-.1.06-.11.06-.11.05-.11.06-.12.04-.12.05-.12.04-.13.03-.13.03-.13.03-.13.02-.14.01-.13.02zm0 0zm-4.03-3l.02.05.01-.01-.06.11-.05.11-.03.12-.02.11v.13l.01.12.03.12.04.13.05.12.07.13.08.12.09.13.11.12.11.12.13.12.14.11.15.12.15.1.17.1.18.1.18.09.19.09.2.07.21.07.22.07.22.05.22.05.23.03.24.03.24.02h.25l.25-.01v.06h-.5l-.24-.02-.24-.03-.24-.03-.22-.05-.23-.05-.21-.07L3.59 9l-.21-.08-.19-.08L3 8.75l-.17-.1-.17-.1-.16-.11-.15-.12-.14-.11-.13-.12-.12-.12-.11-.13-.09-.13-.09-.12-.06-.13-.06-.13-.04-.13-.03-.13-.01-.13v-.13l.02-.12.03-.13.05-.12.07-.11.01-.01zm-.01.01h.01v-.01l-.01.01z"/><path fill="#BCDBCF" d="M2.85 7.01c.07-.49.85-.97 1.76-1.02 1.08.04 1.92.38 2.28 1.27.14.38-.64 1.04-1.64 1.04-1.2-.23-2.32-.5-2.4-1.29z"/><path fill="#2B2A29" fill-rule="nonzero" d="M4.61 5.96v.05l-.08.01-.09.01-.08.01-.08.01-.08.02-.08.02-.08.02-.07.02-.08.02-.07.03-.07.02-.07.03-.07.03-.06.03-.06.04-.06.03-.06.03-.05.04-.06.04-.05.04-.04.04-.05.04-.04.04-.03.04-.04.04-.03.04-.03.05-.02.04-.02.04-.02.05-.01.04-.01.05-.05-.01.01-.05.02-.05.01-.05.03-.04.02-.05.03-.04.03-.05.04-.04.04-.05.04-.04.04-.04.05-.04.05-.04.06-.04.05-.04.06-.03.06-.04.07-.03.06-.04.07-.03.07-.02.07-.03.08-.03.07-.02.08-.02.08-.02.08-.02.08-.02.08-.01.09-.01.08-.01.09-.01zm0 0zm2.3 1.29l-.05.02-.03-.08-.04-.08-.04-.07-.04-.08-.05-.06-.05-.07-.05-.06-.05-.06-.05-.06-.06-.05-.06-.05-.06-.05-.07-.05-.06-.04-.07-.04-.07-.04-.08-.04-.07-.03-.08-.03-.08-.03-.08-.03-.08-.02-.09-.02-.09-.02-.08-.02-.09-.02-.1-.01L5 6.04l-.1-.01h-.09l-.1-.01-.1-.01v-.05l.1.01.1.01h.1l.09.01.1.02.09.01.1.02.09.02.08.02.09.02.09.02.08.03.08.03.08.03.08.04.07.03.07.04.07.04.07.05.07.05.06.05.06.05.06.05.06.06.05.06.06.07.04.07.05.07.04.07.05.08.03.08.04.08zm0 0zM5.25 8.32l.01-.05h-.01.18l.09-.01.09-.02.08-.01.09-.02.08-.02.08-.02.08-.03.07-.03.07-.03.07-.03.07-.04.06-.03.06-.04.06-.04.05-.04.05-.04.05-.04.04-.04.04-.04.04-.05.03-.04.03-.04.02-.04.02-.04.01-.04.01-.04.01-.04v-.03l-.01-.04-.01-.03.05-.02.01.04.01.04v.04l-.01.05-.01.04-.01.05-.02.04-.03.04-.03.05-.03.04-.04.05-.04.04-.04.05-.05.04-.05.04-.06.04-.06.04-.06.04-.07.04-.07.03-.07.04-.07.03-.08.03-.08.02-.08.03-.08.02-.09.02-.08.01-.09.02-.09.01h-.19zm0 0zM2.82 7.01l.05.01v-.01l.01.07.02.07.02.06.03.06.03.06.04.06.04.05.05.06.05.05.05.04.07.05.06.04.07.05.07.04.08.04.08.03.08.04.09.03.09.03.09.03.1.03.09.03.1.03.11.03.1.02.11.03.1.02.11.02.11.03.11.02.11.02.12.02-.01.05-.12-.02-.11-.02-.11-.02-.11-.03-.11-.02-.11-.02-.1-.03-.11-.02-.1-.03-.1-.03-.1-.03-.09-.03-.1-.03-.09-.03-.09-.04-.08-.03-.08-.04-.08-.04-.08-.04-.07-.04-.06-.05-.07-.05-.06-.05-.05-.05-.05-.05-.04-.06-.04-.06-.04-.06-.03-.07-.02-.07-.02-.07-.01-.08zm0 0z"/><path fill="#99CFBA" d="M6.18 8.1c-.27.12-.58.2-.93.2-.81-.16-1.58-.33-2.02-.66.29-.14.64-.23 1.01-.26.82.04 1.5.24 1.94.72z"/><path fill="#2B2A29" fill-rule="nonzero" d="M5.25 8.32l.01-.05h-.01.16l.03-.01h.09l.03-.01h.03l.03-.01h.03l.03-.01h.03l.03-.01.03-.01h.03l.02-.01.03-.01.03-.01h.03l.02-.01.03-.01.03-.01.02-.01.03-.01.03-.01.02-.01.03-.01.02-.01.03-.01.02.05-.03.01-.02.01-.03.01-.03.01-.02.01-.03.01L6 8.2l-.02.01-.03.01h-.03l-.03.01-.02.01-.03.01-.03.01h-.03l-.03.01-.03.01h-.03l-.03.01h-.03l-.03.01h-.03l-.03.01h-.06l-.04.01h-.19zm0 0zm-2.03-.71l.02.05v-.04l.04.03.05.03.04.02.05.03.05.03.05.03.05.02.06.03.05.02.06.02.06.03.06.02.06.02.06.02.06.02.07.02.06.02.07.02.07.02.07.02.07.01.07.02.07.02.07.01.07.02.08.01.07.02.07.01.08.02.07.01.08.02.08.01-.01.05-.08-.01-.08-.02-.07-.01-.08-.02-.07-.01-.07-.02-.08-.01-.07-.02-.07-.01-.07-.02-.07-.02-.07-.02-.07-.01-.07-.02-.07-.02-.07-.02-.06-.02-.06-.02L3.9 8l-.06-.02-.06-.03-.06-.02-.06-.02-.05-.03-.06-.02-.05-.03-.05-.03-.05-.02-.05-.03-.05-.03-.04-.03-.05-.03.01-.05zm-.01.05l-.03-.03.04-.02-.01.05zm1.03-.3v.05h-.07l-.03.01h-.07l-.03.01H4l-.03.01h-.03l-.04.01-.03.01h-.03l-.04.01-.03.01h-.03l-.03.01-.03.01-.03.01-.04.01-.03.01-.03.01-.03.01-.03.01-.03.01-.03.01-.02.01-.03.01-.03.01-.03.01-.03.01-.02.02-.03.01-.02-.05.02-.01.03-.01.03-.01.03-.02.03-.01.03-.01.03-.01.03-.01.03-.01.03-.01.03-.01.03-.01.03-.01.03-.01.03-.01.04-.01.03-.01h.03l.03-.01.04-.01h.03l.03-.01.04-.01h.03l.03-.01h.04l.03-.01h.07l.04-.01h.07zm0 0zm1.95.77l-.02-.05-.01.04-.04-.04-.05-.05-.04-.04-.04-.04-.05-.03-.05-.04-.05-.04-.05-.03-.05-.03-.05-.03-.06-.03-.05-.03-.06-.02-.06-.03-.06-.02-.06-.02-.06-.02-.06-.02-.06-.02-.07-.02-.06-.01-.07-.02-.07-.01-.07-.01-.07-.01-.07-.01-.07-.01-.07-.01-.08-.01h-.07l-.08-.01h-.07v-.05h.08l.07.01h.08l.07.01.08.01.07.01.07.01.07.01.07.01.07.01.07.02.06.01.07.02.06.02.07.02.06.02.06.02.06.03.06.02.06.03.06.03.05.03.06.03.05.03.05.03.05.04.05.04.05.03.04.04.05.05.04.04.05.04-.01.05zm.01-.05l.02.03-.03.02.01-.05z"/><path fill="#C5E3D7" d="M1.61 5.5l.46-.2c-.02.38.06.68.33.83l-.28.15-.54-.65.03-.13z"/><path fill="#2B2A29" fill-rule="nonzero" d="M2.08 5.32l-.46.21-.02-.05.46-.2.03.02-.01.02zm-.02-.04l.04-.02-.01.04-.03-.02zm.35.87l-.02-.05-.01.05-.02-.02-.02-.01-.03-.02-.02-.02-.02-.02-.02-.02-.02-.02L2.21 6l-.01-.02-.02-.02-.01-.03-.02-.02-.01-.02-.01-.03-.01-.03-.02-.02v-.03l-.01-.03-.01-.03-.01-.03v-.03l-.01-.03V5.6l-.01-.03V5.5l-.01-.03V5.3h.05v.17l.01.03v.06l.01.03v.03l.01.03v.03l.01.03.01.03v.02l.01.03.01.02.01.03.01.02.02.03.01.02.01.02.02.02.01.02.02.02.02.02.01.02.02.01.02.02.02.02.03.01.02.01v.05zm0-.05l.04.03-.04.02V6.1zm-.31.16l.29-.16.02.05-.28.15-.03-.01v-.03zm.03.04l-.02.01-.01-.02.03.01zm-.54-.69l.55.65-.04.03-.54-.64-.01-.03.04-.01zm-.03.04l-.01-.01v-.02l.01.03zm.07-.14l-.03.13-.05-.02.03-.12.02-.02.03.03zm-.05-.01l.01-.02h.01l-.02.02z"/><path fill="#C5E3D7" d="M3.05 4.87l.43-.19c-.02.35.06.63.3.76l-.26.15-.5-.6.03-.12z"/><path fill="#2B2A29" fill-rule="nonzero" d="M3.49 4.7l-.43.19-.02-.05.43-.18.03.02-.01.02zm-.02-.04l.03-.02v.04l-.03-.02zm.32.81l-.02-.05v.05l-.02-.02-.03-.01-.02-.02-.02-.01-.02-.02-.02-.02-.01-.02-.02-.02-.02-.02-.01-.02-.02-.02-.01-.02-.01-.03-.01-.02-.01-.03-.01-.02-.01-.03-.01-.02-.01-.03v-.03l-.01-.02v-.03l-.01-.03V4.9l-.01-.03v-.19h.05v.19l.01.02v.06l.01.03v.03l.01.02v.03l.01.02.01.03.01.02.01.03v.02l.02.02.01.02.01.02.01.02.01.02.02.02.01.02.02.01.02.02.01.02.02.01.02.02.02.01.02.01v.05zm0-.05l.04.03-.04.02v-.05zm-.28.14l.26-.14.02.05-.26.14-.03-.01.01-.04zm.02.05l-.01.01-.02-.02.03.01zm-.49-.64l.5.6-.04.03L3 5l-.01-.02.05-.01zM3 5l-.01-.01v-.01L3 5zm.08-.13l-.04.12-.05-.01.04-.12.01-.02.04.03zm-.05-.01v-.01l.01-.01-.01.02z"/><path fill="#C5E3D7" d="M16.03 2v4.18c0 1.19-.89 2.16-1.98 2.16h-1.54c-1.08 0-1.97-.97-1.97-2.16V2h5.49z"/><path fill="#2B2A29" fill-rule="nonzero" d="M16 6.18V2h.05v4.18H16zm-1.95 2.19v-.05l.1-.01h.1l.1-.02.1-.02.09-.02.09-.03.09-.03.09-.04.09-.04.08-.05.08-.05.08-.06.08-.06.07-.06.07-.07.07-.07.07-.07.06-.08.05-.08.06-.09.05-.08.05-.09.04-.09.04-.1.03-.1.04-.09.02-.11.02-.1.02-.1.01-.11.01-.11v-.11h.05v.11l-.01.11-.01.11-.02.11-.02.11-.03.1-.03.1-.03.1-.04.1-.05.09-.05.09-.05.09-.05.09-.06.08-.07.08-.06.07-.07.08-.07.07-.08.06-.08.06-.08.06-.08.05-.09.05-.09.05-.09.03-.09.04-.1.03-.09.02-.1.02-.1.02-.1.01h-.11zm-1.54-.05h1.54v.05h-1.54v-.05zm-2-2.14h.06v.11l.01.11.01.11.01.1.03.1.02.11.03.09.04.1.04.1.04.09.05.09.05.08.05.09.06.08.06.08.07.07.07.07.07.07.07.06.08.06.08.06.08.05.08.05.09.04.09.04.09.03.09.03.09.02.1.02.1.02h.09l.1.01v.05h-.1l-.1-.01-.1-.02-.1-.02-.09-.02-.1-.03-.09-.04-.09-.03-.09-.05-.09-.05-.08-.05-.08-.06-.08-.06-.08-.06-.07-.07-.07-.08-.07-.07-.06-.08-.06-.08-.05-.09-.06-.09-.04-.09-.05-.09-.04-.1-.03-.1-.04-.1-.02-.1-.03-.11-.01-.11-.02-.11v-.11l-.01-.11zM10.57 2v4.18h-.06V2l.03-.02.03.02zm-.06 0v-.02h.03l-.03.02zm5.52.03h-5.49v-.05h5.49l.02.02-.02.03zm0-.05h.02V2l-.02-.02z"/><path fill="#C5E3D7" d="M16.03 5.53v.65c0 1-.62 1.84-1.46 2.09-.05-.2-.08-.4-.08-.61 0-1.06.67-1.95 1.54-2.13z"/><path fill="#2B2A29" fill-rule="nonzero" d="M16 6.18v-.65h.05v.65H16zm-1.46 2.09l.05-.01-.03-.02.08-.02.07-.03.08-.03.07-.03.07-.04.07-.04.07-.05.06-.04.07-.05.06-.05.06-.06.06-.06.06-.06.05-.06.05-.06.05-.07.05-.07.04-.07.05-.07.04-.08.03-.08.04-.07.03-.08.02-.09.03-.08.02-.08.02-.09.02-.09.01-.09.01-.09v-.18h.05v.19l-.01.09-.01.09-.02.09-.02.09-.02.08-.03.09-.03.08-.03.09-.03.08-.04.07-.04.08-.04.08-.05.07-.05.07-.05.07-.05.06-.06.07-.05.06-.06.06-.06.05-.07.06-.06.05-.07.05-.07.04-.07.04-.08.04-.07.04-.08.03-.08.03-.08.02-.03-.02zm.03.02l-.02.01-.01-.03.03.02zm-.1-.63h.05V7.85l.01.02v.08l.01.02v.05l.01.02v.04l.01.02v.03l.01.02v.04l.01.02v.02l.01.01v.02l-.05.01v-.01l-.01-.02v-.02l-.01-.02v-.04l-.01-.02v-.03l-.01-.02v-.04l-.01-.02v-.06l-.01-.02V7.9l-.01-.02V7.66zm1.58-2.13H16l.03.03-.08.02-.07.02-.08.03-.08.03-.07.03-.07.04-.08.04-.07.04-.06.05-.07.05-.06.06-.06.05-.06.06-.06.07-.05.06-.06.07-.05.07-.04.07-.05.08-.04.08-.04.08-.03.08-.04.08-.03.09-.02.09-.03.09-.02.09-.01.09-.02.1-.01.09v.2h-.05v-.2l.01-.1.02-.1.01-.09.02-.09.03-.1.02-.09.03-.08.04-.09.03-.08.04-.09.05-.08.04-.07.05-.08.05-.07.06-.07.05-.07.06-.06.06-.06.06-.06.07-.06.07-.05.07-.05.07-.04.07-.05.08-.04.07-.03.08-.03.08-.03.08-.02.08-.02.03.02zm-.03-.02l.03-.01v.03l-.03-.02z"/><path fill="#C5E3D7" d="M10.54 4V2.85h1.44c.19 0 .35.15.35.34v.46c0 .19-.16.35-.35.35h-1.44z"/><path fill="#2B2A29" fill-rule="nonzero" d="M10.57 2.85V4h-.06V2.85l.03-.03.03.03zm-.06 0v-.03h.03l-.03.03zm1.47.02h-1.44v-.05h1.44v.05zm.37.32h-.05v-.05l-.01-.01V3.1l-.01-.02v-.01l-.01-.02-.01-.01-.01-.01v-.02L12.24 3l-.01-.01-.01-.01-.01-.01-.02-.01-.01-.02h-.01l-.01-.01-.01-.01-.02-.01-.01-.01h-.02l-.01-.01h-.02l-.01-.01h-.02l-.01-.01h-.05v-.05h.06l.01.01h.02l.02.01h.02l.01.01.02.01.02.01h.01l.02.01.01.01.02.02.01.01.01.01.01.01.02.02.01.01.01.02.01.01.01.02.01.01v.02l.01.02.01.01v.04l.01.02v.05zm-.05.46v-.46h.05v.46h-.05zm-.32.37v-.05H12.04l.02-.01h.01l.02-.01h.01l.02-.01.01-.01h.02l.01-.01.01-.01.01-.01.01-.01.02-.01.01-.01.01-.01.01-.02.01-.01v-.01l.01-.02.01-.01.01-.01v-.02l.01-.01v-.03l.01-.02v-.05h.05v.06l-.01.02v.03l-.01.02-.01.02v.01l-.01.02-.01.01-.01.02-.01.01-.01.02-.02.01-.01.02-.01.01-.01.01-.02.01-.01.01-.02.01-.01.01-.02.01-.02.01h-.01l-.02.01h-.02l-.02.01h-.07zm-1.44-.05h1.44v.05h-1.44L10.51 4l.03-.03zm0 .05h-.03V4l.03.02z"/><path fill="#C5E3D7" d="M16.03 2.82v1.15H14.5c-.19 0-.35-.15-.35-.35v-.45c0-.2.16-.35.35-.35h1.53z"/><path fill="#2B2A29" fill-rule="nonzero" d="M16 3.97V2.82h.05v1.15l-.02.03-.03-.03zm.05 0V4h-.02l.02-.03zm-1.55-.02h1.53V4H14.5v-.05zm-.37-.33h.05v.07l.01.01v.02l.01.01v.02l.01.01.01.02v.01l.01.01.01.02.01.01.01.01.01.01.01.01.02.01.01.01.01.01.01.01.02.01h.01l.02.01.01.01h.01l.02.01h.05l.01.01h.02V4h-.04l-.02-.01h-.03l-.02-.01-.02-.01h-.01l-.02-.01-.02-.01-.01-.01-.02-.01-.01-.01-.02-.01-.01-.01-.01-.01-.02-.02-.01-.01-.01-.01-.01-.02-.01-.01-.01-.02-.01-.01v-.02l-.01-.02-.01-.02v-.01l-.01-.02v-.08zm.05-.45v.45h-.05v-.45h.05zm.32-.38v.05h-.02l-.01.01h-.05l-.02.01h-.01l-.01.01-.02.01h-.01l-.02.01-.01.01-.01.01-.01.01-.02.01-.01.01-.01.01-.01.01-.01.01-.01.02-.01.01v.01l-.01.02-.01.01v.02l-.01.01v.02l-.01.01v.07h-.05v-.08l.01-.02v-.01l.01-.02.01-.02V3l.01-.01.01-.02.01-.01.01-.02.01-.01.01-.01.02-.02.01-.01.01-.01.02-.01.01-.01.02-.01.01-.01.02-.01.02-.01h.01l.02-.01.02-.01h.03l.02-.01h.04zm1.53.05H14.5v-.05h1.53l.02.03-.02.02zm0-.05h.02v.03l-.02-.03z"/><path fill="#C5E3D7" d="M12.28 8.33c-.98-.13-1.74-1.05-1.74-2.15v-.72c1.02.4 1.75 1.41 1.75 2.59 0 .09 0 .18-.01.28z"/><path fill="#2B2A29" fill-rule="nonzero" d="M10.51 6.18h.06v.2l.01.1.02.1.02.1.02.09.03.09.03.09.03.09.04.09.04.08.04.09.05.08.05.07.06.08.05.07.06.07.06.07.07.06.06.06.07.06.08.05.07.05.08.05.07.04.08.04.09.04.08.03.08.03.09.02.09.02.09.01-.01.05-.09-.01-.09-.02-.09-.03-.09-.02-.08-.04-.09-.03-.08-.04-.08-.05-.08-.04-.07-.06-.08-.05-.07-.06-.07-.06-.06-.07-.07-.06-.06-.08-.06-.07-.05-.08-.05-.08-.05-.08-.05-.08-.04-.09-.04-.09-.03-.09-.03-.09-.03-.1-.02-.09-.02-.1-.02-.1-.01-.1v-.11l-.01-.1zm.06-.72v.72h-.06v-.72l.04-.02.02.02zm-.06 0v-.04l.04.02-.04.02zm1.81 2.59h-.06v-.22l-.01-.11-.02-.1-.02-.11-.02-.1-.02-.1-.03-.1-.04-.1-.03-.09-.04-.1-.05-.09-.04-.09-.05-.09-.06-.09-.05-.08-.06-.08-.06-.08-.07-.08-.07-.08-.07-.07-.07-.07-.07-.07-.08-.06-.08-.06-.08-.06-.09-.06-.08-.05-.09-.05-.09-.04-.1-.05-.09-.04.02-.04.09.04.1.04.09.05.09.05.09.05.09.06.08.06.08.06.08.06.08.07.07.07.07.08.07.07.07.08.06.08.06.09.06.08.05.09.05.09.05.1.04.09.04.1.04.09.03.1.03.11.03.1.02.1.02.11.02.11.01.11v.11l.01.11zm-.05.3l.01-.05-.03.02v-.04l.01-.01V8.05h.06v.04l-.01.01V8.29h-.01v.04l-.03.02zm.03-.02v.03l-.03-.01.03-.02zM10.75 5.33l-.02.05-.01-.01h-.02l-.01-.01-.01-.01h-.01v-.01h-.01l-.01-.01v-.01h-.01v-.01h-.01l-.01-.01-.01-.01v-.01h-.01v-.01h-.01l-.01-.01-.01-.01h-.01l-.01-.01h-.02l.02-.05h.01l.01.01h.01l.01.01h.01l.01.01.01.01.01.01h.01v.01h.01l.01.01.01.01v.01h.01v.01h.01v.01h.01v.01h.02v.01h.01l.01.01h.01zm.25-.01l-.02.05H10.88l-.01.01H10.81l-.01.01h-.04l-.01-.01h-.02l.02-.05h.02v.01h.02l.01-.01H10.86l.01-.01H11zm.15.21l-.02.04-.01-.01h-.01l-.01-.01v-.01h-.01v-.01l-.01-.01-.01-.01V5.5l-.01-.01v-.01l-.01-.01v-.01l-.01-.01v-.02h-.01v-.01l-.01-.01V5.4h-.01v-.01H11v-.01h-.01v-.01h-.01l.02-.05.01.01h.01l.01.01.01.01.01.01.01.01v.01l.01.01.01.01v.02l.01.01v.01h.01v.02l.01.01v.01h.01v.02h.01v.01h.01v.01h.01v.01zm.26-.02l-.03.05v-.01h-.05l-.01.01h-.03l-.01.01h-.03l-.01.01H11.14l-.01-.01.02-.04h.08l.01-.01h.03v-.01h.04l.01-.01H11.38l.01.01h.02zm.14.23l-.03.04v-.01h-.01l-.01-.01v-.01h-.01l-.01-.01v-.01l-.01-.01v-.01l-.01-.01v-.02l-.01-.01v-.01l-.01-.01v-.02l-.01-.01v-.01l-.01-.01-.01-.01v-.01l-.01-.01-.01-.01h-.01l.03-.05.01.01.01.01.01.01.01.01.01.01v.01l.01.01v.01h.01v.02l.01.01v.02h.01v.02l.01.01v.01l.01.01v.01l.01.01v.01l.01.01h.01v.01zm.25.05l-.03.04-.01-.01h-.01l-.01-.01H11.63l-.01-.01H11.56v-.01h-.02l-.01-.01h-.01l.03-.04h.02v.01h.08l.01.01h.09v.01h.03l.01.01h.01v.01zm.12.29l-.04.03-.01-.01-.01-.01v-.01l-.01-.01v-.02l-.01-.01v-.02l-.01-.01v-.03l-.01-.01v-.04l-.01-.01v-.03h-.01v-.02l-.01-.01v-.01l-.01-.01-.01-.01.03-.04.01.01h.01v.01l.01.01.01.01v.02l.01.01v.01l.01.01v.03l.01.01v.04l.01.01v.04l.01.01v.02h.01v.02l.01.01.01.01zm.24.14l-.04.02-.01-.01h-.01v-.01h-.01v-.01h-.02V6.2h-.02l-.01-.01h-.02l-.01-.01H12l-.01-.01h-.02l-.01-.01h-.02l-.01-.01h-.01l-.01-.01-.01-.01-.01-.01h-.01v-.01l.04-.03v.01h.02v.01h.01l.01.01h.01l.01.01H12v.01h.03l.01.01h.02l.01.01h.01l.01.01h.01l.01.01h.01l.01.01.01.01h.01v.01l.01.01v.01zm.02.28l-.04.02-.01-.01v-.03l-.01-.01V6.41l.01-.01v-.15h-.01v-.01l.04-.02.01.01v.01l.01.01v.17l-.01.01v.03l.01.01v.03zm.19.17l-.04.01h-.01v-.01h-.01v-.01l-.01-.01-.01-.01-.01-.01h-.01l-.01-.01h-.01l-.01-.01-.01-.01h-.02v-.01h-.01l-.01-.01h-.01v-.01l-.01-.01h-.01v-.01h-.01v-.01l-.01-.01v-.01l.04-.02h.01v.01l.01.01v.01h.02v.01h.01v.01h.01l.01.01h.01l.01.01h.01l.01.01.01.01h.01l.01.01.01.01h.01v.01l.01.01h.01v.01l.01.01v.02zm-.02.29l-.05.02V6.86l.01-.01v-.03l.01-.01v-.03l.01-.01v-.09l.04-.01.01.01V6.78l-.01.01v.04h-.01v.03l-.01.01v.09zm.15.24l-.05.01v-.02l-.01-.01v-.01l-.01-.01-.01-.01v-.01h-.01v-.01l-.01-.01-.01-.01-.01-.01v-.01h-.01v-.01l-.01-.01h-.01v-.01l-.01-.01-.01-.01-.01-.01v-.01l-.01-.01v-.02h-.01v-.01l.05-.02v.02h.01v.01l.01.01v.01h.01v.01l.01.01.01.01v.01h.01l.01.01v.01h.01l.01.01v.01l.01.01.01.01.01.01v.01l.01.01.01.01v.02l.01.01v.02zm-.07.27h-.06v-.02l.01-.01V7.4l.01-.01v-.01l.01-.01v-.01l.01-.01v-.02l.01-.01.01-.01v-.02l.01-.01v-.02l.01-.01v-.04l.05-.01v.07l-.01.01v.01l-.01.01v.02l-.01.01v.01l-.01.01v.01l-.01.01v.01l-.01.01v.01l-.01.01V7.47zm.12.22h-.05v-.02h-.01v-.02h-.01v-.01l-.01-.01-.01-.01v-.01h-.01V7.6l-.01-.01-.01-.01v-.01h-.01v-.01l-.01-.01-.01-.01v-.01l-.01-.01-.01-.01v-.03l-.01-.01h.06v.02l.01.01v.01l.01.01.01.01v.01h.01v.01l.01.01.01.01v.01h.01l.01.01v.01h.01v.01l.01.01v.02h.01v.02l.01.01v.02zm-.09.22h-.05v-.04l.01-.01v-.02h.01v-.02l.01-.01.01-.01v-.01h.01v-.01l.01-.01v-.01l.01-.01v-.01l.01-.01v-.01l.01-.01v-.02h.05v.03h-.01v.03l-.01.01v.01l-.01.01-.01.01v.01l-.01.01v.01l-.01.01-.01.01v.01l-.01.01v.01l-.01.01v.03zm.09.18h-.05v-.02h-.01v-.02h-.01v-.01l-.01-.01-.01-.01-.01-.01V8l-.01-.01-.01-.01-.01-.01v-.01l-.01-.01v-.04h.05v.03h.01v.01l.01.01.01.01v.01h.01v.01l.01.01.01.01.01.01v.01l.01.01v.01l.01.01v.03zm-.06.25h-.05v-.05l.01-.01v-.03h.01v-.03l.01-.01V8.2l.01-.01v-.02l.01-.01v-.03l.01-.01v-.03h.05v.04l-.01.01v.04h-.01v.02l-.01.01v.02l-.01.01v.01l-.01.01v.03l-.01.01v.04zM15.83 5.28h.02v-.01h.01v-.01h.01l.01-.01.01-.01.01-.01v-.01h.01l.01-.01.01-.01v-.01h.01v-.01h.01l.01-.01v-.01h.01l.01-.01.01-.01h.02l.01-.01h.01l.01.05h-.01l-.01.01h-.01v.01H16l-.01.01h-.01v.01h-.01v.01h-.01v.01l-.01.01-.01.01-.01.01v.01h-.01l-.01.01-.01.01h-.01v.01l-.01.01h-.02v.01h-.01l-.02-.05zm-.25.01l.01-.01H15.73l.01.01h.08l.01-.01.02.05h-.01l-.01.01h-.09l-.01-.01H15.6l-.02-.04zm-.14.21v-.01h.01v-.01h.01v-.01l.01-.01v-.01l.01-.01v-.01l.01-.01V5.4h.01v-.02l.01-.01v-.01l.01-.01.01-.01v-.01l.01-.01.01-.01.01-.01.01-.01h.01l.02.04v.01h-.02v.01l-.01.01-.01.01v.01l-.01.01v.02l-.01.01v.01l-.01.01v.02l-.01.01-.01.01v.01l-.01.01v.01h-.01v.01l-.01.01h-.01v.01h-.01l-.02-.04zm-.24.01h.01l.01-.01h.02l.01-.01h.04l.01.01h.07l.01.01h.03l.01-.01h.02l.02.04-.01.01h-.03v.01H15.36v-.01h-.07l-.01-.01h-.03v.01h-.02l-.03-.04zm-.13.23l.01-.01v-.01h.01v-.01l.01-.01v-.01l.01-.01v-.02l.01-.01v-.02l.01-.01V5.6l.01-.01v-.01l.01-.01v-.01l.01-.01v-.01h.01l.01-.01v-.01h.01l.01-.01.03.04-.01.01-.01.01h-.01v.02h-.01v.02h-.01v.03l-.01.01v.01l-.01.01v.03l-.01.01-.01.01v.02l-.01.01-.01.01-.01.01v.01h-.01l-.03-.04zm-.25.07l.01-.01v-.01h.02l.01-.01h.02v-.01h.07l.01-.01h.07l.01-.01h.02v-.01h.01l.03.04-.01.01h-.01l-.01.01h-.02l-.01.01h-.07l-.01.01H14.9l-.01.01h-.02l-.01.01-.04-.03zm-.05.27l.01-.01v-.01l.01-.01V5.95l-.01-.01V5.88l.01-.01v-.02l.01-.01v-.01l.01-.01v-.01h.01l.04.03-.01.01-.01.01v.03h-.01v.03h.01v.15l-.01.01v.01l-.01.01v.01l-.05-.03zm-.24.15l.01-.01.01-.01.01-.01.01-.01.01-.01.01-.01h.01l.01-.01h.02l.01-.01.01-.01h.02l.01-.01h.02l.01-.01h.01l.01-.01h.01V6.1h.02v-.01h.01v-.01l.05.03-.01.01h-.01l-.01.01v.01h-.01l-.01.01h-.01l-.01.01h-.01v.01h-.02l-.01.01h-.01l-.01.01h-.02l-.01.01h-.01l-.01.01h-.02v.01h-.01l-.01.01-.01.01h-.01v.02l-.05-.03zm0 .28v-.03l.01-.01-.01-.01v-.08l-.01-.01V6.26l.01-.01v-.02l.05.03-.01.01V6.37l.01.01v.05l.01.01v.04l-.01.01v.04l-.05-.02zm-.18.18v-.02l.01-.01.01-.01.01-.01v-.01h.01v-.01h.01l.01-.01h.01V6.6h.01l.01-.01h.01v-.01h.01l.01-.01.01-.01h.01v-.01h.01v-.01h.01l.01-.01v-.01h.01v-.01l.05.02-.01.01v.01l-.01.01-.01.01-.01.01-.01.01h-.01v.01h-.01l-.01.01-.01.01h-.01l-.01.01-.01.01h-.01v.01h-.01l-.01.01-.01.01h-.01v.01l-.01.01v.01l-.05-.01zm.03.29h.01v-.04l-.01-.01v-.04l-.01-.01v-.02l-.01-.01v-.03l-.01-.01v-.03l-.01-.01V6.7l.01-.01.05.01-.01.01v.05l.01.01v.04h.01v.02l.01.01v.03l.01.01v.04l.01.01V6.99l-.06-.01zm-.13.25v-.04l.01-.01v-.01l.01-.01v-.01h.01v-.01l.01-.01v-.01l.01-.01h.01V7.1l.01-.01v-.01h.01l.01-.01v-.01h.01v-.01l.01-.01.01-.01v-.01l.01-.01v-.03l.06.01-.01.01v.02l-.01.01v.01l-.01.01v.01h-.01v.01l-.01.01v.01h-.01v.01l-.01.01-.01.01-.01.01v.01l-.01.01-.01.01v.01h-.01v.01l-.01.01v.01l-.01.01v.02h-.05zm.08.26v-.05h-.01v-.02l-.01-.01V7.4h-.01v-.02l-.01-.01v-.01l-.01-.01-.01-.01v-.02l-.01-.01V7.3l-.01-.01v-.03l-.01-.01v-.01l.01-.01h.05v.05h.01v.02l.01.01v.01l.01.01v.01l.01.01v.01h.01v.02l.01.01v.01l.01.01v.02h.01v.03l.01.01v.02h-.06zm-.11.23V7.7l.01-.01v-.03h.01v-.01l.01-.01v-.01l.01-.01.01-.01V7.6h.01v-.01l.01-.01.01-.01v-.01l.01-.01.01-.01v-.01l.01-.01v-.03h.06l-.01.01v.04l-.01.01-.01.01v.01l-.01.01-.01.01v.01l-.01.01-.01.01v.01h-.01v.01l-.01.01v.01l-.01.01-.01.01v.02l-.01.01v.01h-.05zm.11.22v-.01l-.01-.01V7.9h-.01v-.01l-.01-.01v-.01l-.01-.01v-.01h-.01v-.01l-.01-.01-.01-.01v-.01h-.01v-.02l-.01-.01-.01-.01v-.03h-.01v-.02h.05v.01h.01v.02l.01.01v.01l.01.01v.01h.01v.01h.01v.02h.01v.01l.01.01v.01h.01v.01l.01.01v.01l.01.01v.03h.01v.01l-.05.01zm-.09.18v-.03l.01-.01v-.02l.01-.01.01-.01v-.01l.01-.01.01-.01.01-.01v-.01l.01-.01v-.01h.01v-.02h.01v-.01l.05-.01v.03h-.01v.02l-.01.01V8h-.01v.02h-.01v.01l-.01.01-.01.01v.01h-.01v.01l-.01.01v.01l-.01.01v.02h-.05zm.08.25v-.02h-.01v-.03l-.01-.01v-.02l-.01-.01v-.01l-.01-.01v-.02h-.01v-.02l-.01-.01V8.2l-.01-.01v-.04h-.01v-.03h.05v.02h.01v.03l.01.01v.02l.01.01v.01l.01.01v.02h.01v.02l.01.01v.02l.01.01v.03l.01.01v.01l-.05.01z"/></svg>