<svg xmlns="http://www.w3.org/2000/svg" width="110" height="66" fill-rule="evenodd" clip-rule="evenodd" image-rendering="optimizeQuality" shape-rendering="geometricPrecision" text-rendering="geometricPrecision" viewBox="0 0 17.32 10.4"><path fill="#99CFBA" d="M.04 3.68H4.6v5.78c.01.03.01.06.01.09s0 .07-.01.1c-.13.4-1.1.72-2.28.72-1.18 0-2.15-.32-2.28-.72-.01-.03-.01-.07-.01-.1s0-.06.01-.09V3.68z"/><path fill="#2B2A29" fill-rule="nonzero" d="M4.6 3.7H.04v-.05H4.6l.02.03-.02.02zm0-.05h.02v.03l-.02-.03zm-.03 5.81V3.68h.05v5.78l-.05.01v-.01zm0 .01v-.01.01zm.07.08h-.05v-.03h-.01v-.04l-.01-.01.05-.02.01.01v.04h.01v.05zm-.02.1h-.05v-.02h.01v-.04l.01-.01v-.03h.05V9.61h-.01v.04h-.01zm-.05 0v-.01.01zm0 0h.05-.05zm.05 0zm-.02 0h.02-.02zm.02 0zm-2.3.75v-.05l.11-.01H2.64l.11-.01.1-.01.1-.01.1-.01.1-.01.1-.01.09-.02.09-.02.09-.02.08-.02.09-.02.08-.02.07-.02.08-.03.07-.02.07-.03.06-.03.06-.03.06-.03.05-.03.05-.03.04-.03.04-.03.04-.04.03-.03.03-.04.02-.03.02-.04.01-.03.05.01-.01.05-.02.04-.03.03-.03.04-.03.04-.04.04-.04.03-.05.03-.05.04-.06.03-.06.03-.06.03-.06.03-.07.03-.07.02-.08.03-.08.02-.08.02-.08.03-.09.02-.09.02-.09.01-.1.02-.09.01-.1.02-.1.01-.1.01h-.11l-.1.01-.11.01h-.22zm-2.3-.75l.05-.01.01.03.02.04.02.03.03.04.03.03.04.04.04.03.04.03.05.03.05.03.06.03.06.03.06.03.07.03.07.02.08.03.07.02.08.02.09.02.08.02.09.02.09.02.09.02.1.01.1.01.1.01.1.01.1.01.11.01H2.21l.11.01v.05H2.1l-.11-.01-.1-.01h-.11l-.1-.01-.1-.01-.1-.02-.09-.01-.1-.02-.09-.01-.09-.02-.09-.02-.08-.03-.08-.02-.08-.02-.08-.03-.07-.02-.07-.03-.06-.03-.06-.03-.06-.03-.06-.03-.05-.04-.05-.03-.04-.03-.04-.04-.03-.04-.03-.04-.03-.03-.02-.04-.01-.05zm0 0zm.02 0H.02h.02zm-.02 0zm.02 0H.02h.02zm-.02 0zM0 9.55h.05v.03l.01.01v.04h.01v.01l-.05.01H.01v-.04H0V9.55zm.01-.09h.06v.01l-.01.01v.04H.05v.03H0V9.5h.01v-.04l.01-.01-.01.01zm.06 0v.01-.01zm0-5.78v5.78H.01V3.68l.03-.03.03.03zm-.06 0v-.03h.03l-.03.03z"/><path fill="#D8ECE4" d="M4.6 5.52v3.94c.01.03.01.06.01.09s0 .07-.01.1c-.13.4-1.1.72-2.28.72-1.18 0-2.15-.32-2.28-.72-.01-.03-.01-.07-.01-.1s0-.06.01-.09V5.52H4.6z"/><path fill="#2B2A29" fill-rule="nonzero" d="M4.57 9.46V5.52h.05v3.94l-.05.01v-.01zm0 .01v-.01.01zm.07.08h-.05v-.03h-.01v-.04l-.01-.01.05-.02.01.01v.04h.01v.05zm-.02.1h-.05v-.02h.01v-.04l.01-.01v-.03h.05V9.61h-.01v.04h-.01zm-.05 0v-.01.01zm0 0h.05-.05zm.05 0zm-.02 0h.02-.02zm.02 0zm-2.3.75v-.05l.11-.01H2.64l.11-.01.1-.01.1-.01.1-.01.1-.01.1-.01.09-.02.09-.02.09-.02.08-.02.09-.02.08-.02.07-.02.08-.03.07-.02.07-.03.06-.03.06-.03.06-.03.05-.03.05-.03.04-.03.04-.03.04-.04.03-.03.03-.04.02-.03.02-.04.01-.03.05.01-.01.05-.02.04-.03.03-.03.04-.03.04-.04.04-.04.03-.05.03-.05.04-.06.03-.06.03-.06.03-.06.03-.07.03-.07.02-.08.03-.08.02-.08.02-.08.03-.09.02-.09.02-.09.01-.1.02-.09.01-.1.02-.1.01-.1.01h-.11l-.1.01-.11.01h-.22zM.01 9.65h.06v-.01l.01.03.02.04.02.03.03.04.03.03.04.04.04.03.04.03.05.03.05.03.06.03.06.03.06.03.07.03.07.02.08.03.07.02.08.02.09.02.08.02.09.02.09.02.09.02.1.01.1.01.1.01.1.01.1.01.11.01H2.21l.11.01v.05H2.1l-.11-.01-.1-.01h-.11l-.1-.01-.1-.01-.1-.02-.09-.01-.1-.02-.09-.01-.09-.02-.09-.02-.08-.03-.08-.02-.08-.02-.08-.03-.07-.02-.07-.03-.06-.03-.06-.03-.06-.03-.06-.03-.05-.04-.05-.03-.04-.03-.04-.04-.03-.04-.03-.04-.03-.03-.02-.04-.01-.05H.01zm.01 0H.01h.01zm.02 0H.01h.03zm-.02 0H.01h.01zm.05 0H.01l.06-.01v.01zm0-.01v.01-.01zM0 9.55h.05v.03l.01.01v.04h.01v.01l-.05.01H.01v-.04H0V9.55zm.01-.09h.06v.01l-.01.01v.04H.05v.03H0V9.5h.01v-.04l.01-.01-.01.01zm.06 0v.01-.01zm0-3.94v3.94H.01V5.52l.03-.03.03.03zm-.06 0v-.03h.03l-.03.03zm4.59.02H.04v-.05H4.6l.02.03-.02.02zm0-.05h.02v.03l-.02-.03z"/><path fill="#99CFBA" d="M2.32 3.09c1.27 0 2.29.28 2.29.61 0 .34-1.02.62-2.29.62S.03 4.04.03 3.7c0-.33 1.02-.61 2.29-.61z"/><path fill="#2B2A29" fill-rule="nonzero" d="M4.64 3.7h-.05l-.01-.02v-.03l-.02-.02-.01-.03-.03-.03-.03-.03-.03-.02-.04-.03-.05-.03-.05-.02-.05-.03-.06-.02-.06-.03-.07-.02-.07-.02-.08-.02-.07-.02-.09-.02-.08-.02-.09-.02-.1-.01-.09-.02-.1-.01-.1-.01-.1-.01L3 3.15l-.11-.01-.11-.01h-.11l-.12-.01H2.32v-.05h.35l.11.01.11.01.11.01h.11l.11.02.1.01.1.01.09.02.1.01.09.02.08.02.09.02.08.02.07.02.08.02.07.02.06.03.06.02.06.03.05.03.05.02.04.03.04.03.03.03.03.04.02.03.02.03.01.04v.03zm-2.32.64v-.05H2.55l.12-.01h.11l.11-.01.11-.01.11-.01.1-.01.1-.01.1-.01.09-.02.1-.02.09-.01.08-.02.09-.02.07-.02.08-.02.07-.02.07-.03.06-.02.06-.02.05-.03.05-.02.05-.03.04-.03.03-.02.03-.03.03-.03.01-.03.02-.02v-.03l.01-.03h.05v.04l-.01.04-.02.03-.02.03-.03.04-.03.03-.04.03-.04.02-.05.03-.05.03-.06.03-.06.02-.06.03-.07.02-.08.02-.07.02-.08.02-.09.02-.08.02-.09.02-.1.01-.09.02-.1.01-.1.01-.11.01-.11.01-.11.01-.11.01h-.11l-.11.01h-.24zM0 3.7h.05l.01.03v.03l.02.02.01.03.03.03.03.03.03.02.04.03.05.03.05.02.05.03.06.02.06.02.07.03.07.02.08.02.07.02.09.02.08.02.09.01.09.02.1.02.1.01.1.01.1.01.11.01.11.01.11.01h.11l.12.01H2.32v.05h-.24l-.11-.01h-.11l-.12-.01-.1-.01-.11-.01-.11-.01-.1-.01-.1-.01-.09-.02-.1-.01-.09-.02-.08-.02-.09-.02-.08-.02-.08-.02-.07-.02-.07-.02-.06-.03-.06-.02-.06-.03-.05-.03-.05-.03-.04-.02-.04-.03-.03-.03-.03-.04-.02-.03-.02-.03L0 3.74V3.7zm2.32-.63v.05H2.09l-.12.01h-.11l-.11.01-.11.01-.11.01-.1.01-.1.01-.1.01-.1.02-.09.01-.09.02-.08.02-.09.02-.07.02-.08.02-.07.02-.07.02-.06.03-.06.02-.05.03-.05.02-.05.03-.04.03-.03.02-.03.03-.03.03-.01.03-.02.02v.03l-.01.02H0v-.03l.01-.04.02-.03.02-.03.03-.04.03-.03.04-.03.04-.03.05-.02.05-.03.06-.03.06-.02.06-.03.07-.02.07-.02.08-.02.08-.02.09-.02.08-.02.09-.02.1-.01.09-.02.1-.01.1-.01.11-.02h.11l.1-.01.12-.01.11-.01h.35z"/><path fill="#F08BB2" d="M.9 2.24h2.84c.19 0 .34.15.34.34v.75c0 .19-.15.35-.34.35H.9c-.19 0-.34-.16-.34-.35v-.75c0-.19.15-.34.34-.34z"/><path fill="#2B2A29" fill-rule="nonzero" d="M3.74 2.27H.9v-.06h2.84v.06zm.37.31h-.06V2.52l-.01-.02v-.01l-.01-.02v-.01l-.01-.02v-.01l-.01-.01L4 2.4l-.01-.01-.01-.01-.01-.01-.01-.01-.01-.01-.01-.01-.01-.01-.02-.01-.01-.01-.01-.01h-.01l-.02-.01-.01-.01h-.03l-.02-.01h-.06v-.06h.04l.02.01h.03l.02.01h.02l.01.01.02.01.01.01.02.01.01.01.02.01.01.01.02.01.01.01.01.01.01.02.01.01.01.01.01.02.01.01.01.02.01.02v.01l.01.02v.02l.01.02v.03l.01.02v.02zm-.06.75v-.75h.06v.75h-.06zm-.31.37v-.05h.03l.02-.01h.03l.01-.01h.02l.01-.01h.02l.01-.01.01-.01.01-.01h.02l.01-.01.01-.01.01-.01.01-.01.01-.02.01-.01.01-.01.01-.01.01-.02v-.01l.01-.01v-.02l.01-.01v-.02l.01-.01v-.07h.06v.02l-.01.02v.04l-.01.02v.01l-.01.02v.02l-.01.01-.01.02-.01.01-.01.02-.01.01-.01.02-.01.01-.01.01-.01.02-.02.01-.01.01-.02.01-.01.01-.02.01-.01.01h-.02l-.01.01-.02.01h-.04l-.01.01h-.06zM.9 3.65h2.84v.05H.9v-.05zm-.37-.32h.06v.07l.01.01v.02l.01.01v.02l.01.01v.01l.01.02.01.01.01.01.01.01.01.02.01.01.01.01.01.01.01.01h.02l.01.01.01.01.01.01h.02l.01.01h.02l.01.01h.03l.02.01H.9v.05H.84l-.01-.01H.79l-.02-.01-.01-.01H.74l-.01-.01-.02-.01-.01-.01-.02-.01-.01-.01-.02-.01-.01-.02-.01-.01-.01-.01-.01-.02-.01-.01-.01-.02-.01-.01-.01-.02-.01-.01v-.02l-.01-.02-.01-.01v-.06l-.01-.02v-.02zm.06-.75v.75H.53v-.75h.06zm.31-.37v.06H.84l-.02.01H.79l-.01.01-.02.01H.75l-.01.01-.01.01-.02.01-.01.01-.01.01-.01.01-.01.01-.01.01-.01.01-.01.01-.01.02-.01.01v.01l-.01.02v.01l-.01.02v.01l-.01.02v.06H.53v-.02l.01-.02v-.05l.01-.02.01-.02v-.01l.01-.02.01-.02.01-.01.01-.02.01-.01.01-.01.01-.02.01-.01.01-.01.02-.01.01-.01.02-.01.01-.01.02-.01.01-.01.02-.01.01-.01h.02l.02-.01h.03l.02-.01H.9z"/><path fill="#D8ECE4" d="M2.32 5.07c1.27 0 2.29.23 2.29.5s-1.02.5-2.29.5-2.29-.23-2.29-.5 1.02-.5 2.29-.5z"/><path fill="#2B2A29" fill-rule="nonzero" d="M4.64 5.57h-.05l-.01-.02v-.02l-.01-.02-.02-.02-.03-.02-.03-.03-.03-.02-.04-.02-.04-.02-.05-.02-.06-.02-.06-.02-.06-.02-.07-.02-.07-.02-.07-.02-.08-.01-.09-.02-.08-.01-.09-.02-.09-.01-.1-.01-.1-.01-.1-.01-.1-.01L3 5.12h-.11l-.11-.01h-.11l-.12-.01H2.32v-.05h.35l.11.01h.11l.11.01.11.01.1.01.11.01.1.01.09.01.1.01.09.02.08.01.09.02.08.01.07.02.08.02.07.02.06.02.06.02.06.02.05.02.05.02.04.03.04.02.03.03.03.02.02.03.02.03.01.03v.03zm-2.32.52v-.05h.35l.11-.01h.11L3 6.02l.11-.01.1-.01.1-.01.1-.01.1-.01.09-.01.09-.02.08-.01.09-.02.08-.01.07-.02.07-.02.07-.02.06-.02.06-.02.06-.02.05-.02.04-.02.04-.02.03-.02.03-.03.03-.02.02-.02.01-.02v-.02l.01-.02h.05v.03l-.01.03-.02.03-.02.03-.03.02-.03.03-.04.02-.04.03-.05.02-.05.02-.06.02-.06.02-.06.02-.07.02-.08.02-.07.02-.08.01-.09.02-.08.01-.09.02-.1.01-.09.01-.1.01-.11.01-.1.01-.11.01-.11.01h-.11l-.11.01h-.35zM0 5.57h.05l.01.02v.02l.01.02.02.02.03.02.02.03.04.02.04.02.04.02.05.02.06.02.06.02.06.02.07.02.07.02.07.02.08.01.09.02.08.01.09.02.09.01.1.01.1.01.1.01.1.01.11.01.11.01h.11l.11.01h.35v.05h-.35l-.11-.01h-.11l-.11-.01-.11-.01-.11-.01-.1-.01-.1-.01-.09-.01-.1-.01-.09-.02-.08-.01-.09-.02-.08-.01-.07-.02-.08-.02-.07-.02-.06-.02-.06-.02-.06-.02-.05-.02-.05-.02-.04-.03-.04-.02-.03-.03-.03-.02-.02-.03-.02-.03L0 5.6v-.03zm2.32-.52v.05H2.09l-.12.01h-.11l-.11.01h-.11l-.11.01-.1.01-.1.01-.1.01-.1.01-.09.01-.09.02-.08.01-.09.02-.08.01-.07.02-.07.02-.07.02-.06.02-.06.02-.06.02-.05.02-.04.02-.04.02-.04.02-.02.03-.03.02-.02.02-.01.02v.02l-.01.02H0v-.03l.01-.03.02-.03.02-.03.03-.02.03-.03.04-.02.04-.03.05-.02.05-.02.06-.02.06-.02.06-.02.07-.02.08-.02.07-.02.08-.01.09-.02.08-.01.09-.02.1-.01.09-.01.1-.01.1-.01.11-.01.11-.01.11-.01h.11l.11-.01h.35z"/><path fill="#F5B2B6" d="M2.32.03c.34 0 .62.24.62.55 0 .44-.27.43-.23.79.13.44.93.27 1.04 1.06H.89c.11-.8.91-.66 1.04-1.07.07-.29-.23-.34-.23-.78 0-.31.28-.55.62-.55z"/><path fill="#2B2A29" fill-rule="nonzero" d="M2.96.58h-.05V.52L2.9.5V.47L2.89.45 2.88.42V.4L2.87.37 2.85.35 2.84.33 2.83.31 2.81.29 2.79.26 2.78.25 2.76.23 2.74.21 2.72.19 2.7.17 2.68.16 2.65.14 2.63.13 2.6.12 2.58.11 2.55.09h-.03L2.5.08 2.47.07 2.44.06h-.06L2.35.05h-.03V0h.07l.03.01h.03l.03.01.03.01h.03l.03.01.03.02.03.01.02.01.03.02.02.01.03.02.02.02.02.02.03.02.02.02.02.02.01.02.02.03.02.02.01.03.01.02.02.03.01.03v.02l.01.03.01.03v.09zm-.22.78l-.05.02v-.01l-.01-.03v-.09l.01-.03V1.2l.01-.03v-.02l.01-.02.01-.02.01-.02.01-.02.01-.02.01-.02.01-.02.02-.02.01-.02.01-.02.01-.02.01-.02.01-.02.01-.02.01-.02.01-.02.01-.03.01-.02V.75L2.9.72V.69l.01-.04V.58h.05v.11l-.01.04v.03l-.01.03-.01.03-.01.03-.01.02L2.9.9l-.01.02-.01.02-.01.02-.02.02-.01.02-.01.02-.01.02-.01.02-.01.01-.01.02-.01.02-.01.02-.01.02-.01.02v.02l-.01.02v.02l-.01.02v.09l.01.03v-.01zm-.05.02v-.01.01zm1.06 1.07V2.4l-.02.03-.01-.07-.02-.06-.02-.06-.02-.06-.03-.05-.03-.04-.03-.04-.03-.04-.03-.04-.04-.03-.04-.03-.04-.03-.04-.02-.04-.03-.04-.02-.05-.02-.04-.02-.04-.02-.04-.02-.05-.02-.04-.02-.04-.02-.04-.02-.03-.02-.04-.02-.03-.03-.03-.02-.03-.03-.03-.04-.02-.03-.02-.04-.01-.04.05-.02.01.04.02.03.02.03.02.03.02.03.03.02.03.02.03.03.04.02.04.02.04.02.04.01.04.02.04.02.04.02.05.02.04.02.05.03.04.02.04.03.04.03.04.03.04.03.04.04.04.04.03.05.03.05.03.05.02.06.02.06.02.07.01.07-.03.03zm.03-.03l.01.03h-.04l.03-.03zM.89 2.4h2.86v.05H.89l-.03-.03.03-.02zm0 .05H.85l.01-.03.03.03zm1.01-1.1l.06.02-.02.04-.02.03-.02.04-.03.03-.03.03-.03.02-.03.03-.04.02-.04.02-.04.02-.04.02-.04.02-.04.02-.04.02-.05.02-.04.02-.04.02-.04.02-.04.03-.04.03-.04.03-.04.03-.04.03L1.1 2l-.04.04-.03.04-.02.05-.03.05-.02.05-.02.07-.02.06-.01.07-.05-.01.01-.07.02-.07.02-.06.02-.06.03-.06.03-.05.03-.04.04-.05.03-.04.04-.03.04-.04.05-.03.04-.03.04-.02.04-.03.05-.02.04-.02.04-.02.05-.02.04-.02.04-.02.04-.02.04-.02.03-.02.04-.02.03-.02.03-.02.02-.03.03-.02.02-.03.01-.03.02-.04H1.9zm.06.02zM1.68.58h.05v.07l.01.04v.03l.01.03v.03l.01.03.01.02.01.03.01.02.01.03.02.02.01.02.01.02.01.02.02.02.01.02.01.02.01.02.01.02.01.02.01.02.01.02.01.02.01.02v.02l.01.03v.07l-.01.03v.03l-.06-.02.01-.02v-.02l.01-.03v-.02l-.01-.02v-.03l-.01-.02-.01-.02v-.02l-.01-.02-.01-.02-.01-.01-.01-.02-.02-.02-.01-.02-.01-.02L1.8 1 1.78.98 1.77.95 1.76.93 1.75.91 1.73.88 1.72.85 1.71.83 1.7.79V.76L1.69.73 1.68.69V.58zM2.32 0v.05h-.03l-.03.01H2.2l-.03.01-.03.01-.02.01h-.03l-.03.02-.02.01-.03.01-.02.01-.03.02-.02.01-.02.02-.02.02-.02.02-.02.02-.01.01-.02.03-.02.02-.01.02-.01.02-.02.02-.01.03-.01.02v.03l-.01.02V.5l-.01.02v.06h-.05V.49l.01-.03.01-.03V.41l.01-.03.02-.03.01-.02.01-.03.02-.02.02-.03.01-.02.02-.02.02-.02.03-.02.02-.02.02-.02.03-.02.02-.01.03-.02.02-.01.03-.01.03-.02.03-.01h.03l.03-.01.03-.01h.03L2.25 0h.07z"/><path fill="#C5E3D7" d="M12.33 7.85c.08.57-.07 1.16-.46 1.62-.74.88-2.08.97-2.97.21-.9-.76-1.03-2.09-.28-2.97.39-.46.95-.71 1.52-.72L11.4 4.5l2.2 1.86-1.27 1.49z"/><path fill="#2B2A29" fill-rule="nonzero" d="M11.89 9.49l-.04-.04.03-.04.04-.04.03-.05.03-.04.03-.05.03-.05.03-.04.03-.05.02-.05.02-.05.02-.05.03-.05.01-.05.02-.05.02-.05.01-.05.02-.05.01-.05.01-.05.01-.05.01-.06v-.05l.01-.05v-.05l.01-.06v-.16l-.01-.05v-.05l-.01-.05v-.06h.05l.01.05v.05l.01.06v.27l-.01.05v.06l-.01.05-.01.05-.01.06-.01.05-.01.05-.02.06-.01.05-.02.05-.02.05-.02.05-.02.05-.02.05-.02.05-.03.05-.02.05-.03.05-.03.05-.03.05-.03.04-.04.05-.03.04-.04.05zm-3.01.21l.03-.04.09.07.09.06.08.06.09.05.1.05.09.04.1.04.09.04.1.03.1.02.1.02.1.01.1.01.1.01h.1l.1-.01.1-.01.1-.01.09-.02.1-.02.1-.03.09-.03.09-.04.1-.04.08-.05.09-.05.09-.06.08-.06.08-.06.07-.07.08-.08.07-.08.04.04-.07.08-.08.08-.08.07-.08.06-.08.07-.09.05-.09.06-.09.04-.09.05-.1.04-.1.03-.09.03-.1.02-.1.02-.11.02-.1.01H10.14l-.11-.01-.1-.02-.1-.02-.1-.02-.1-.03-.1-.04-.1-.04-.1-.04-.09-.05-.09-.06-.09-.06-.09-.06-.09-.07zm-.28-3l.04.03-.07.08-.06.09-.06.08-.05.09-.04.09-.04.1-.04.09-.03.1-.03.09-.02.1-.02.1-.01.1-.01.1v.2l.01.1.01.1.02.09.02.1.02.1.03.1.04.09.04.09.04.1.05.09.06.08.05.09.07.08.07.08.07.08.07.08.08.07-.03.04-.08-.07-.08-.08-.08-.08-.06-.08-.07-.09-.06-.09-.05-.09-.05-.09-.05-.09-.04-.1-.04-.1-.03-.1-.02-.09-.03-.1-.01-.11-.01-.1-.01-.1v-.2l.01-.11.01-.1.02-.1.02-.1.03-.1.03-.1.04-.09.04-.1.05-.09.05-.09.06-.09.06-.09.07-.08zm1.52-.73l.04.04-.02.01h-.1l-.06.01h-.05l-.05.01-.05.01-.06.01-.05.01-.05.01-.05.02-.05.01-.05.02-.05.02-.05.02-.05.02-.05.02-.04.02-.05.02-.05.03-.04.03-.05.03-.04.03L9 6.4l-.04.03-.04.03-.05.04-.04.03-.04.04-.04.04-.04.04-.03.04-.04.04-.04-.03.04-.05.03-.04.04-.04.04-.04.05-.04.04-.03.04-.04.05-.03.04-.04.05-.03.04-.03.05-.03.05-.03.04-.02.05-.03.05-.02.05-.02.05-.02.05-.02.05-.02.05-.02.06-.01.05-.02.05-.01.05-.01.06-.01.05-.01.05-.01.06-.01h.11l.05-.01-.02.01zm.04.04l-.01.01h-.01l.02-.01zm1.26-1.49l-1.26 1.49-.04-.04 1.26-1.49h.04v.04zm-.04-.04l.02-.02.02.02h-.04zm2.2 1.9l-2.19-1.86.03-.04 2.19 1.86.01.04h-.04zm.03-.04l.03.02-.02.02-.01-.04zm-1.3 1.49l1.27-1.49.04.04-1.27 1.49-.04-.02v-.02zm0 .02v-.02.02z"/><path fill="#2B2A29" d="M10.15 7.12c-.01.03-.02.05-.04.08-.08.1-.23.11-.33.02-.1-.08-.11-.23-.03-.33.02-.02.04-.04.07-.05-.03.09-.01.19.07.25.08.07.18.08.26.03z"/><path fill="#2B2A29" fill-rule="nonzero" d="M10.13 7.21l-.04-.03.01-.01v-.01h.01v-.02h.01v-.02h.01v-.01l.05.02v.01h-.01v.02l-.01.01v.01h-.01v.02h-.01v.01h-.01zm-.37.03l.04-.04v.01l.01.01h.01l.01.01h.01l.01.01h.02l.01.01H9.99l.01-.01h.01l.01-.01h.01l.01-.01.01-.01h.01l.01-.01.01-.01.01-.01.04.03-.01.01-.01.01-.01.01-.01.01-.01.01-.01.01h-.01l-.01.01h-.01l-.01.01h-.02L10 7.3h-.03l-.02.01h-.04L9.9 7.3h-.04l-.01-.01h-.02l-.01-.01-.02-.01h-.01l-.01-.01-.01-.01-.01-.01zm-.03-.37l.04.04-.01.01-.01.01v.01l-.01.01v.01l-.01.01V7l-.01.01v.07l.01.01v.02l.01.01v.02l.01.01v.01h.01l.01.01v.01l.01.01.01.01h.01l-.04.04-.01-.01h-.01l-.01-.01-.01-.01V7.2l-.01-.02-.01-.01v-.01l-.01-.01v-.01l-.01-.01V7.1l-.01-.01V6.99l.01-.01v-.03l.01-.01v-.01l.01-.01.01-.01v-.02l.01-.01.01-.01zm.11-.03l-.05-.01.04.03h-.01v.01h-.01l-.01.01h-.01v.01h-.01v.01h-.01v.01l-.04-.04h.01v-.01h.01v-.01h.01v-.01h.01v-.01h.01l.01-.01h.01v-.01h.01l.03.03zm-.03-.03l.06-.03-.03.06-.03-.03zm.1.26l-.04.04h-.01V7.1l-.01-.01h-.01v-.01l-.01-.01-.01-.01v-.01l-.01-.01-.01-.01v-.02L9.79 7v-.02l-.01-.01V6.86h.01v-.03l.05.01v.03l-.01.01V6.94l.01.01v.03l.01.01V7l.01.01v.01l.01.01v.01h.01v.01l.01.01.01.01h.01zm.27.06l-.05-.02.04.03-.01.01h-.01l-.01.01h-.02l-.01.01h-.04l-.01.01h-.04l-.01-.01h-.04l-.01-.01h-.02l-.01-.01h-.01l-.01-.01H9.9v-.01h-.01l-.01-.01-.01-.01.04-.04v.01h.01l.01.01.01.01h.01l.01.01h.02v.01H10.1l.01-.01h.01l.01-.01h.01l.04.03zm-.04-.03l.06-.04-.02.07-.04-.03z"/><path fill="#2B2A29" d="M10.84 7.7c-.01.03-.03.05-.04.08-.09.1-.24.11-.34.02-.1-.08-.11-.23-.02-.33.01-.02.04-.04.06-.05-.03.09 0 .19.07.25.08.07.19.08.27.03z"/><path fill="#2B2A29" fill-rule="nonzero" d="M10.82 7.79l-.04-.03v-.01h.01v-.02h.01v-.02h.01v-.02l.05.02v.02h-.01v.02h-.01v.02h-.01v.01h-.01v.01zm-.37.03l.03-.04.01.01.01.01h.01v.01h.01l.01.01h.02l.01.01H10.67l.01-.01h.02l.01-.01h.01l.01-.01.01-.01.01-.01.01-.01h.01l.01-.01.04.03-.01.01-.01.01-.01.01-.01.01-.01.01-.01.01h-.02l-.01.01h-.01l-.01.01h-.01l-.01.01h-.04l-.01.01h-.04l-.01-.01h-.04l-.01-.01h-.03l-.01-.01-.01-.01h-.01l-.01-.01-.01-.01-.01-.01zm-.03-.37l.04.04-.01.01-.01.01-.01.01v.01l-.01.01v.02l-.01.01V7.68l.01.01v.02l.01.01v.01l.01.01.01.01.01.01v.01l.01.01h.01l-.03.04h-.01l-.01-.01-.01-.01-.01-.01-.01-.01-.01-.02v-.01l-.01-.01v-.01l-.01-.01v-.01l-.01-.02v-.02l-.01-.01v-.07l.01-.01v-.03l.01-.02v-.01l.01-.01V7.5l.01-.01.01-.01.01-.02.01-.01zm.11-.02l-.05-.02.03.03-.01.01h-.01v.01h-.01v.01h-.01v.01h-.01v.01l-.04-.04v-.01h.01v-.01h.01l.01-.01.01-.01h.01V7.4h.01l.01-.01.04.04zm-.04-.04l.06-.03-.02.07-.04-.04zm.1.26l-.03.04h-.01l-.01-.01-.01-.01-.01-.01-.01-.01v-.01l-.01-.01v-.01h-.01v-.01l-.01-.01v-.02l-.01-.01v-.04l-.01-.01V7.46h.01v-.04l.01-.01.05.02h-.01V7.56h.01v.02h.01v.02h.01v.01l.01.01.01.01v.01h.01v.01h.01zm.27.06l-.05-.02.04.03-.01.01h-.01l-.01.01h-.01l-.01.01h-.04l-.01.01h-.05l-.01-.01h-.04l-.01-.01h-.02v-.01h-.01l-.01-.01h-.01l-.01-.01h-.01l-.01-.01v-.01l.03-.04.01.01.01.01h.01v.01h.02l.01.01h.01l.01.01H10.78l.01-.01h.01l.01-.01h.02l.03.03zm-.03-.03l.06-.03-.03.06-.03-.03z"/><path fill="#2B2A29" d="M11.52 8.28c-.01.02-.03.05-.05.07-.08.1-.23.11-.33.03s-.11-.23-.03-.33c.02-.03.05-.04.07-.06-.03.09-.01.19.07.26.08.06.18.07.27.03z"/><path fill="#2B2A29" fill-rule="nonzero" d="M11.49 8.37l-.04-.04h.01v-.01h.01v-.01l.01-.01v-.01l.01-.01v-.01l.05.02v.01l-.01.01v.01l-.01.01v.01h-.01v.01l-.01.01v.01h-.01zm-.37.03l.04-.04.01.01h.01v.01h.01l.01.01h.01l.01.01h.03l.01.01h.07l.01-.01h.02l.01-.01h.02l.01-.01h.01v-.01l.01-.01h.01l.01-.01.01-.01v-.01l.04.04v.01l-.01.01-.01.01-.01.01h-.01l-.02.01-.01.01h-.01l-.01.01h-.01l-.01.01h-.01l-.02.01h-.11l-.01-.01h-.03l-.01-.01h-.01l-.01-.01-.01-.01h-.01l-.02-.01-.01-.01zm-.03-.37l.04.03v.01l-.01.01v.01l-.01.01v.01l-.01.01v.01l-.01.01v.04l-.01.01v.02l.01.01v.04l.01.01v.01l.01.01v.01l.01.01v.01l.01.01.01.01.01.01.01.01-.04.04-.01-.01-.01-.01v-.01l-.01-.01-.01-.01-.01-.01v-.01l-.01-.01-.01-.01v-.02l-.01-.01v-.03l-.01-.02v-.07l.01-.01v-.03l.01-.01V8.1l.01-.02v-.01l.01-.01.01-.01v-.01l.01-.01zm.12-.03l-.05-.02.03.04h-.01v.01h-.02v.01h-.01v.01h-.01v.01h-.01l-.04-.03h.01v-.01h.01v-.01l.01-.01h.01v-.01h.01v-.01h.02v-.01h.01l.04.03zm-.04-.03l.06-.03-.02.06-.04-.03zm.1.26l-.04.04v-.01h-.01l-.01-.01-.01-.01v-.01h-.01v-.01l-.01-.01V8.2l-.01-.01v-.01l-.01-.01v-.01l-.01-.01v-.03l-.01-.01v-.08l.01-.01v-.03l.01-.01.05.02-.01.01v.04l-.01.01v.02h.01v.05l.01.01v.02l.01.01.01.01v.01h.01v.01l.01.01.01.01.01.01zm.27.06l-.05-.02.04.03h-.01l-.01.01h-.01l-.01.01h-.02l-.01.01H11.35l-.01-.01h-.03l-.01-.01h-.01V8.3h-.01l-.01-.01h-.01l-.01-.01h-.01l-.01-.01.04-.04.01.01h.01l.01.01.01.01h.01l.01.01h.03l.01.01h.08v-.01h.03v-.01h.02v-.01l.04.04zm-.04-.04l.06-.03-.02.07-.04-.04z"/><path fill="#2B2A29" d="M9.39 7.33c-.01.02-.03.05-.05.07-.08.1-.23.11-.33.03-.1-.09-.11-.23-.03-.33.02-.03.05-.05.07-.06-.03.09-.01.19.07.26.08.06.18.07.27.03z"/><path fill="#2B2A29" fill-rule="nonzero" d="M9.36 7.42l-.04-.04h.01v-.01h.01v-.01l.01-.01v-.01l.01-.01v-.01l.05.01v.02H9.4v.02l-.01.01v.01h-.01v.01l-.01.01v.01h-.01zm-.37.03l.04-.04.01.01h.01v.01h.01l.01.01h.01l.01.01h.03l.01.01H9.19l.01-.01h.03l.01-.01h.02l.01-.01h.01l.01-.01v-.01h.01l.01-.01.01-.01v-.01l.04.04v.01l-.01.01-.01.01-.01.01h-.01l-.02.01-.01.01h-.01l-.01.01h-.01l-.01.01h-.03l-.01.01h-.1L9.1 7.5h-.03l-.01-.01h-.01l-.01-.01-.01-.01h-.01L9 7.46l-.01-.01zm-.03-.37l.04.03v.01l-.01.01v.01l-.01.01v.01l-.01.01v.01l-.01.01v.04l-.01.01v.02l.01.01v.04l.01.01v.01l.01.01v.01l.01.01v.01l.01.01.01.01.01.01.01.01-.04.04-.01-.01-.01-.01v-.01l-.01-.01-.01-.01-.01-.01v-.01l-.01-.01-.01-.01v-.02l-.01-.01V7.3l-.01-.02v-.07l.01-.02v-.02l.01-.01v-.01l.01-.02v-.01l.01-.01.01-.01.01-.01v-.01zm.12-.03l-.05-.02.03.03v.01h-.01v.01h-.02v.01h-.01v.01h-.01v.01H9l-.04-.03h.01v-.01h.01v-.01l.01-.01H9v-.01h.01v-.01h.02v-.01h.01l.04.03zm-.04-.03l.06-.04-.02.07-.04-.03zm.1.26l-.04.04v-.01h-.01l-.01-.01v-.01l-.01-.01-.01-.01-.01-.01v-.01l-.01-.01v-.01l-.01-.01V7.2h-.01v-.03l-.01-.01v-.08l.01-.01v-.03l.01-.01.05.02-.01.01v.04l-.01.01v.02h.01v.05l.01.01v.01l.01.01v.01l.01.01v.01h.01v.01l.01.01.01.01.01.01zm.27.05l-.05-.01.04.03h-.01l-.01.01h-.01l-.01.01h-.02l-.01.01H9.22l-.01-.01h-.03l-.01-.01h-.01v-.01h-.01l-.01-.01h-.01l-.01-.01h-.01l-.01-.01.04-.04h.01v.01h.01l.01.01.01.01h.01l.01.01h.03l.01.01h.07l.01-.01h.03v-.01h.02V7.3l.04.03zm-.04-.03l.06-.03-.02.06-.04-.03z"/><path fill="#2B2A29" d="M10.07 7.91c-.01.02-.02.05-.04.07-.09.1-.24.11-.33.03-.1-.09-.12-.23-.03-.33.02-.03.04-.04.07-.06-.04.09-.01.19.07.26.07.06.18.07.26.03z"/><path fill="#2B2A29" fill-rule="nonzero" d="M10.05 8l-.04-.04.01-.01v-.01h.01v-.02h.01V7.9h.01l.05.02h-.01v.02l-.01.01v.01h-.01v.02h-.01v.01h-.01V8zm-.37.03l.03-.04.01.01h.01l.01.01h.01l.01.01h.01l.01.01h.03l.01.01h.07l.01-.01h.01l.01-.01h.02l.01-.01h.01L9.97 8l.01-.01h.01v-.01l.01-.01.01-.01.04.04-.01.01-.01.01-.01.01-.01.01H10l-.01.01-.01.01h-.01l-.01.01h-.02l-.01.01h-.01l-.01.01h-.12l-.01-.01h-.02l-.01-.01h-.02l-.01-.01-.01-.01H9.7l-.01-.01-.01-.01zm-.03-.37l.04.03-.01.01v.01l-.01.01-.01.01v.02l-.01.01v.02l-.01.01v.09l.01.01v.01l.01.01v.01l.01.01v.01l.01.01v.01l.01.01h.01v.01l.01.01-.03.04-.01-.01-.01-.01L9.65 8l-.01-.01-.01-.01v-.01l-.01-.01-.01-.01v-.01l-.01-.02V7.9l-.01-.01v-.13l.01-.01v-.01l.01-.01v-.02l.01-.01v-.01l.01-.01.01-.01.01-.01zm.11-.03l-.05-.02.04.04h-.02v.01h-.01v.01h-.01v.01H9.7v.01h-.01l-.04-.03v-.01h.01v-.01h.01v-.01h.01v-.01h.01l.01-.01h.01V7.6h.01l.04.03zm-.04-.03l.06-.03-.02.06-.04-.03zm.1.26l-.03.04-.01-.01h-.01v-.01l-.01-.01-.01-.01v-.01h-.01v-.01l-.01-.01v-.01l-.01-.01V7.8l-.01-.01v-.01l-.01-.01V7.63l.01-.01v-.01l.05.02v.02h-.01V7.75h.01v.02l.01.01v.02h.01v.02h.01v.01l.01.01.01.01h.01v.01zm.28.06l-.05-.02.03.03-.01.01h-.01l-.01.01h-.03l-.01.01H9.9l-.01-.01h-.02l-.01-.01h-.01l-.01-.01h-.01l-.01-.01h-.01l-.01-.01-.01-.01.03-.04h.01l.01.01.01.01h.01v.01h.02l.01.01h.03v.01h.07L10 7.9h.03l.01-.01h.01l.01-.01.04.04zm-.04-.04l.06-.03-.02.07-.04-.04z"/><path fill="#2B2A29" d="M10.75 8.48c-.01.03-.02.05-.04.08-.09.1-.24.11-.34.02-.1-.08-.11-.23-.02-.33.02-.02.04-.04.06-.05-.03.09 0 .19.07.25.08.07.19.08.27.03z"/><path fill="#2B2A29" fill-rule="nonzero" d="M10.73 8.57l-.04-.03v-.01h.01v-.01l.01-.01V8.5h.01v-.03l.05.02v.02l-.01.01v.01l-.01.01v.01h-.01v.01l-.01.01zm-.37.03l.03-.04.01.01.01.01h.01l.01.01h.01v.01h.02l.01.01H10.58l.01-.01h.02l.01-.01h.01l.01-.01h.01l.01-.01v-.01h.01l.01-.01.01-.01.04.03-.01.01-.01.01-.01.01-.01.01-.01.01-.01.01h-.01l-.01.01h-.02l-.01.01h-.01l-.01.01h-.03l-.01.01H10.5l-.01-.01h-.04l-.01-.01h-.02l-.01-.01h-.01l-.01-.01-.01-.01-.01-.01-.01-.01zm-.03-.37l.04.04-.01.01-.01.01-.01.01v.01l-.01.01v.02l-.01.01V8.45l.01.01v.02l.01.01v.02l.01.01.01.01.01.01.01.01v.01h.01l-.03.04h-.01l-.01-.01-.01-.01-.01-.01-.01-.01-.01-.01v-.02l-.01-.01v-.01l-.01-.01v-.01l-.01-.01v-.04l-.01-.01v-.04l.01-.01v-.04l.01-.01V8.3l.01-.01.01-.01v-.01l.01-.01.01-.01.01-.02zm.11-.02l-.05-.02.04.03h-.01v.01h-.02v.01h-.01v.01h-.01v.01h-.01v.01l-.04-.04.01-.01.01-.01h.01V8.2h.01v-.01h.01v-.01h.02v-.01l.04.04zm-.04-.04l.06-.03-.02.07-.04-.04zm.1.26l-.03.05-.01-.01-.01-.01-.01-.01-.01-.01v-.01l-.01-.01-.01-.01-.01-.01v-.02l-.01-.01v-.02l-.01-.01V8.3l-.01-.01v-.03l.01-.01v-.04l.01-.01v-.01l.05.02-.01.01V8.33l.01.01v.02h.01v.01l.01.01v.01l.01.01v.01h.01v.01h.01l.01.01zm.27.06l-.05-.02.04.04h-.02v.01h-.02l-.01.01h-.03l-.01.01h-.07l-.01-.01h-.03l-.01-.01h-.01l-.01-.01h-.01l-.01-.01h-.01l-.01-.01h-.01v-.01h-.01l.03-.05.01.01.01.01h.01v.01h.01l.01.01h.02l.01.01H10.69l.01-.01h.02l.01-.01h.01l.03.03zm-.03-.03l.06-.03-.03.06-.03-.03z"/><path fill="#2B2A29" d="M11.43 9.06c-.01.02-.03.05-.04.07-.09.1-.24.11-.34.03-.1-.08-.11-.23-.02-.33.01-.03.04-.04.06-.06-.03.09 0 .2.07.26.08.07.19.07.27.03z"/><path fill="#2B2A29" fill-rule="nonzero" d="M11.41 9.15l-.04-.03V9.1h.01v-.01h.01v-.02h.01v-.02l.05.02v.02h-.01v.02h-.01v.01l-.01.01v.01h-.01v.01zm-.37.03l.03-.04.01.01h.01l.01.01.01.01h.01l.01.01h.02l.01.01h.08l.01-.01h.03l.01-.01h.01l.01-.01h.01l.01-.01.01-.01.01-.01.01-.01h.01l.04.03-.01.01-.01.01-.01.01-.01.01h-.01l-.01.01-.01.01-.02.01h-.01l-.01.01h-.02l-.02.01h-.11l-.01-.01h-.03l-.01-.01h-.01l-.01-.01-.01-.01h-.01l-.01-.01-.01-.01zm-.03-.37l.04.03-.01.01-.01.01v.01l-.01.01v.01l-.01.01v.02l-.01.01V9.04l.01.01v.02h.01v.01l.01.01v.01l.01.01.01.01v.01h.01l.01.01-.03.04-.01-.01-.01-.01-.01-.01-.01-.01-.01-.01-.01-.01v-.01l-.01-.01v-.01l-.01-.01v-.02l-.01-.01v-.02l-.01-.02V8.95l.01-.01V8.9l.01-.01v-.01l.01-.01v-.02l.01-.01.01-.01.01-.01.01-.01zm.11-.03l-.05-.02.04.04h-.02v.01h-.01v.01h-.01l-.01.01h-.01v.01l-.04-.03V8.8h.01v-.01h.01v-.01h.01v-.01h.01l.01-.01h.01v-.01h.01l.04.03zm-.04-.03l.06-.03-.02.06-.04-.03zm.1.26l-.03.04-.01-.01h-.01l-.01-.01v-.01l-.01-.01h-.01V9l-.01-.01v-.01l-.01-.01v-.01l-.01-.01v-.01l-.01-.01v-.04l-.01-.01V8.82l.01-.01v-.04l.01-.01.05.02v.01l-.01.01V8.9l.01.01v.02l.01.01v.01l.01.01v.01h.01v.01l.01.01.01.01.01.01zm.27.06l-.05-.02.04.03-.01.01h-.02v.01h-.02l-.01.01H11.25l-.01-.01h-.02l-.01-.01-.01-.01h-.01l-.01-.01h-.01l-.01-.01h-.01v-.01l.03-.04.01.01.01.01h.01l.01.01h.02v.01h.02l.01.01h.09v-.01h.03v-.01h.02l.01-.01.03.04zm-.03-.04l.06-.03-.03.07-.03-.04z"/><path fill="#2B2A29" d="M9.31 8.11c0 .02-.02.05-.04.07-.08.1-.23.11-.33.03s-.11-.23-.03-.33c.02-.03.04-.04.07-.06-.03.09-.01.2.07.26.08.07.18.07.26.03z"/><path fill="#2B2A29" fill-rule="nonzero" d="M9.29 8.2l-.04-.03v-.01h.01v-.01h.01v-.02h.01v-.02h.01V8.1l.05.02v.01h-.01v.02h-.01v.02h-.01v.01l-.01.01v.01h-.01zm-.37.03l.04-.04v.01h.01l.01.01h.01l.01.01h.01l.01.01h.02l.01.01h.08l.01-.01h.03l.01-.01h.01l.01-.01.01-.01h.01l.01-.01.01-.01v-.01h.01l.04.03-.01.01-.01.01-.01.01-.01.01h-.01l-.01.01-.01.01h-.01l-.01.01-.01.01h-.03l-.01.01h-.11l-.01-.01H9l-.01-.01h-.01l-.01-.01-.02-.01h-.01l-.01-.01-.01-.01zm-.03-.37l.04.03v.01l-.01.01-.01.01v.01l-.01.01v.01l-.01.01v.03L8.88 8V8.06l.01.01v.03l.01.01v.01l.01.01v.01l.01.01.01.01v.01l.01.01h.01l.01.01-.04.04-.01-.01-.01-.01-.01-.01-.01-.01v-.01l-.01-.01-.01-.01v-.01l-.01-.01v-.01l-.01-.02v-.02l-.01-.01V7.98l.01-.02v-.01l.01-.01v-.01l.01-.01V7.9l.01-.01.01-.01v-.01l.01-.01zM9 7.83l-.05-.02.04.04h-.01v.01h-.02v.01h-.01v.01h-.01v.01h-.01l-.04-.03h.01v-.01l.01-.01h.01v-.01h.01v-.01h.01v-.01h.02V7.8h.01l.03.03zm-.03-.03l.06-.03-.03.06-.03-.03zm.1.26l-.04.04-.01-.01-.01-.01L9 8.07v-.01h-.01l-.01-.01v-.01l-.01-.01v-.01l-.01-.01V8l-.01-.01v-.03l-.01-.01V7.85l.01-.01v-.03l.05.02v.03l-.01.01V7.93l.01.01v.03l.01.01v.01l.01.01v.01l.01.01.01.01v.01h.01v.01h.01l.01.01zm.27.06l-.05-.02.04.03-.01.01H9.3l-.01.01h-.02l-.01.01H9.14l-.01-.01h-.02l-.01-.01h-.01l-.01-.01h-.01v-.01h-.01l-.01-.01h-.01l-.01-.01.04-.04v.01h.02v.01h.01l.01.01h.01l.01.01h.02l.01.01h.08l.01-.01h.02l.01-.01h.02v-.01l.04.04zm-.04-.04l.06-.03-.02.07-.04-.04z"/><path fill="#2B2A29" d="M10 8.69c-.01.02-.02.05-.04.07-.09.1-.24.11-.34.03-.1-.08-.11-.23-.02-.33.02-.03.04-.04.06-.06-.03.09 0 .2.07.26.08.07.19.07.27.03z"/><path fill="#2B2A29" fill-rule="nonzero" d="M9.98 8.78l-.04-.03v-.02h.01v-.01h.01V8.7h.01v-.02l.05.02v.02h-.01v.02H10v.01l-.01.01v.01h-.01v.01zm-.37.03l.03-.04.01.01h.01l.01.01h.01v.01h.01l.01.01h.02l.01.01h.08l.01-.01h.03l.01-.01h.01l.01-.01h.01l.01-.01h.01v-.01l.01-.01.01-.01h.01l.04.03-.01.01-.01.01-.01.01-.01.01-.01.01h-.01l-.01.01-.02.01h-.01l-.01.01h-.02l-.01.01h-.12l-.01-.01h-.02l-.02-.01h-.01l-.01-.01-.01-.01h-.01l-.01-.01-.01-.01zm-.03-.37l.04.03-.01.01-.01.01v.01l-.01.01v.01l-.01.01v.02l-.01.01V8.67l.01.01v.02h.01v.01l.01.01v.01l.01.01.01.01v.01h.01l.01.01-.03.04-.01-.01-.01-.01-.01-.01-.01-.01-.01-.01-.01-.01v-.01l-.01-.01v-.01l-.01-.01v-.02l-.01-.01v-.04l-.01-.01v-.05l.01-.01v-.04l.01-.01v-.01l.01-.01.01-.02v-.01l.01-.01.01-.01.01-.01zm.11-.03l-.05-.02.04.04h-.02v.01h-.01v.01h-.01l-.01.01-.01.01-.04-.03v-.01h.01v-.01h.01v-.01h.01V8.4h.02v-.01h.01v-.01h.01l.04.03zm-.04-.03l.06-.03-.02.06-.04-.03zm.1.26l-.03.04-.01-.01H9.7l-.01-.01v-.01l-.01-.01h-.01v-.01l-.01-.01v-.01l-.01-.01v-.01l-.01-.01v-.01l-.01-.01v-.04l-.01-.01V8.45l.01-.01V8.4l.01-.01.05.02v.01l-.01.01V8.53l.01.01v.02l.01.01v.01l.01.01v.01h.01v.01l.01.01.01.01v.01h.01zm.27.06l-.05-.02.04.03-.01.01h-.02v.01h-.02l-.01.01H9.82l-.01-.01h-.02v-.01h-.01l-.01-.01h-.02l-.01-.01-.01-.01h-.01v-.01l.03-.04.01.01.01.01h.01l.01.01h.02v.01h.03v.01h.09l.01-.01h.02v-.01h.02l.01-.01.03.04zm-.03-.04l.06-.03-.03.07-.03-.04z"/><path fill="#2B2A29" d="M10.68 9.26c-.01.03-.03.06-.05.08-.08.1-.23.11-.33.03-.1-.09-.11-.24-.03-.34.02-.02.05-.04.07-.05-.03.09 0 .19.07.26.08.06.18.07.27.02z"/><path fill="#2B2A29" fill-rule="nonzero" d="M10.65 9.36l-.04-.04h.01v-.01h.01v-.02h.01v-.02h.01v-.01l.05.01v.02h-.01v.02h-.01v.02h-.01v.01h-.01v.01l-.01.01zm-.37.03l.04-.04h.01l.01.01.01.01h.01l.01.01h.01l.01.01h.04l.01.01h.02l.01-.01h.04l.01-.01h.02l.01-.01h.01l.01-.01h.01v-.01l.01-.01h.01l.01-.01v-.01l.04.04v.01l-.01.01h-.01l-.01.01-.01.01-.01.01h-.02l-.01.01-.01.01h-.01l-.01.01h-.04l-.01.01h-.08l-.01-.01h-.02l-.02-.01h-.01l-.01-.01h-.01l-.01-.01-.01-.01-.01-.01h-.02zm-.03-.37l.04.03v.01l-.01.01v.01l-.01.01-.01.01v.01l-.01.01v.05l-.01.01.01.01v.05l.01.01v.02l.01.01v.01l.01.01v.01l.01.01h.01v.01l.01.01.01.01-.04.04-.01-.01-.01-.01v-.01l-.01-.01-.01-.01-.01-.01v-.01l-.01-.02-.01-.01v-.02l-.01-.01v-.03l-.01-.01v-.08l.01-.01v-.02l.01-.01v-.02l.01-.01v-.01l.01-.01.01-.01.01-.01v-.01zm.12-.03l-.05-.02.03.03v.01h-.02v.01h-.01v.01h-.01v.01h-.01v.01h-.01l-.04-.03.01-.01.01-.01.01-.01.01-.01h.01v-.01h.01v-.01h.02l.04.03zm-.04-.03l.06-.04-.02.07-.04-.03zm.1.26l-.04.04v-.01l-.01-.01h-.01v-.01l-.01-.01-.01-.01V9.2h-.01v-.01l-.01-.01v-.01l-.01-.01v-.02l-.01-.01V9.1l-.01-.01v-.07l.01-.01v-.03l.01-.01.05.02h-.01V9.12h.01v.02l.01.01v.01l.01.01.01.01v.01h.01v.01l.01.01.01.01zm.27.05l-.05-.01.04.03h-.01l-.01.01h-.02v.01h-.03l-.01.01h-.09l-.01-.01h-.03l-.01-.01h-.01l-.01-.01h-.01l-.01-.01h-.01l-.01-.01-.01-.01h-.01l.04-.04h.01v.01h.01l.01.01h.01l.01.01h.01l.01.01h.04l.01.01h.03v-.01h.05l.01-.01h.01l.01-.01.04.03zm-.04-.03l.07-.03-.03.06-.04-.03z"/><path fill="#2B2A29" d="M9.58 9.2c-.01.03-.03.06-.05.08-.08.1-.23.11-.33.03-.1-.09-.11-.24-.03-.34.02-.02.05-.04.07-.05-.03.09 0 .19.07.26.08.06.18.07.27.02z"/><path fill="#2B2A29" fill-rule="nonzero" d="M9.55 9.3l-.04-.04h.01v-.01h.01v-.02h.01v-.02h.01v-.02l.05.02v.02h-.01v.02h-.01v.02h-.01v.01h-.01v.01l-.01.01zm-.37.03l.04-.04h.01l.01.01.01.01h.01l.01.01h.01l.01.01h.05l.01.01.01-.01h.05l.01-.01h.02l.01-.01h.01l.01-.01h.01v-.01l.01-.01h.01l.01-.01v-.01l.04.04v.01l-.01.01h-.01l-.01.01-.01.01-.01.01h-.02l-.01.01-.01.01h-.02l-.01.01H9.4l-.01.01h-.08l-.01-.01h-.02l-.02-.01h-.01l-.01-.01h-.01l-.01-.01-.01-.01-.02-.01h-.01zm-.03-.37l.04.03V9l-.01.01v.01h-.01v.01l-.01.01v.01l-.01.01v.05l-.01.01v.01l.01.01v.04l.01.01v.02l.01.01v.01l.01.01v.01h.01l.01.01v.01l.01.01.01.01-.04.04-.01-.01-.01-.01V9.3l-.01-.01-.01-.01-.01-.01v-.01l-.01-.02-.01-.01v-.02L9.1 9.2v-.03l-.01-.01v-.08l.01-.01v-.02l.01-.02v-.01l.01-.01V9l.01-.01.01-.01.01-.01v-.01zm.12-.03l-.05-.02.03.03v.01h-.02v.01h-.01v.01h-.01v.01H9.2v.01h-.01l-.04-.03.01-.01v-.01h.01v-.01h.01l.01-.01h.01v-.01h.01V8.9h.02v-.01l.04.04zm-.04-.04l.06-.03-.02.07-.04-.04zm.1.27l-.04.04v-.01l-.01-.01-.01-.01-.01-.01-.01-.01v-.01l-.01-.01-.01-.01v-.01l-.01-.01v-.02l-.01-.01v-.03l-.01-.01v-.07l.01-.01v-.03l.01-.01.05.02h-.01V8.99L9.25 9h.01V9.06h.01v.02l.01.01v.01l.01.01.01.01v.01h.01v.01h.01v.01l.01.01zm.27.05l-.05-.02.04.04h-.01l-.01.01h-.02v.01h-.04l-.01.01h-.07l-.01-.01h-.04l-.01-.01h-.01l-.01-.01h-.01l-.01-.01-.01-.01h-.01L9.3 9.2h-.01l.04-.04h.01v.01h.02v.01h.01l.01.01h.02l.01.01h.04l.01.01h.01l.01-.01h.04l.01-.01h.02l.01-.01.04.03zm-.04-.03l.07-.03-.03.06-.04-.03z"/><path fill="#F5B2B6" d="M13.84 6.79c.09.13.08.29-.02.41l-.09.11c-.12.14-.33.16-.47.04L10.49 5c-.14-.12-.16-.33-.04-.47l.09-.12c.1-.11.26-.14.4-.08-.02-.06-.01-.12.03-.17l.05-.06c.07-.07.19-.08.27-.02l2.74 2.33c.08.07.09.18.02.26l-.05.06c-.04.05-.1.07-.16.06z"/><path fill="#2B2A29" fill-rule="nonzero" d="M13.84 7.21l-.04-.03.01-.01.01-.01.01-.01v-.01l.01-.01v-.01l.01-.02v-.01l.01-.01v-.01l.01-.01v-.15l-.01-.01v-.02l-.01-.02v-.01l-.01-.01v-.01l-.01-.01-.01-.01.05-.03v.01l.01.01.01.02.01.01v.01l.01.02v.01l.01.01v.05l.01.01v.09l-.01.01v.03l-.01.01v.02l-.01.01v.01l-.01.02v.01l-.01.01-.01.02-.01.01-.01.01-.01.01zm-.13.08l.09-.11.04.03-.09.12-.04-.04zm-.47.08l.03-.04.02.01.01.01.01.01h.02l.01.01.01.01h.02l.01.01h.03l.01.01h.11l.01-.01h.02l.01-.01h.01l.02-.01h.01l.01-.01.02-.01.01-.01.01-.01h.01l.02-.02.01-.01.01-.01.04.04-.01.01-.02.01-.01.02-.01.01-.02.01-.01.01-.02.01h-.01l-.02.01-.02.01h-.01l-.02.01h-.02l-.01.01h-.14l-.02-.01h-.01l-.02-.01-.02-.01h-.01l-.02-.01-.02-.01-.01-.01-.02-.01-.01-.01zM10.5 4.98l2.77 2.35-.03.04-2.77-2.35.03-.04zm-.07-.47l.04.03-.01.02-.01.01-.01.01-.01.02v.01l-.01.01-.01.02v.03l-.01.01v.13l.01.02v.01l.01.01v.02l.01.01.01.01v.02l.01.01.01.01.01.01.01.02.01.01.01.01-.03.04-.01-.02-.02-.01-.01-.01-.01-.02-.01-.01-.01-.01-.01-.02-.01-.01-.01-.02v-.02l-.01-.01v-.02l-.01-.02v-.03l-.01-.02V4.7l.01-.01v-.04l.01-.01v-.02l.01-.02.01-.01.01-.02.01-.02.01-.01.01-.02.01-.01zm.13-.08l-.09.11-.04-.03.09-.11.04.03zm.35-.1l.05-.01-.03.03h-.02l-.01-.01h-.01l-.01-.01h-.05l-.01-.01h-.04l-.01.01h-.05l-.01.01h-.01l-.01.01h-.03l-.01.01-.01.01h-.01l-.01.01-.01.01-.01.01h-.01l-.01.01-.01.01-.01.01-.04-.03.01-.01.01-.01.02-.02.01-.01h.01l.01-.01.01-.01.01-.01.02-.01h.01l.01-.01h.02l.01-.01h.01l.02-.01h.03l.01-.01H10.85l.01.01h.03l.02.01h.01l.01.01h.02l-.04.03zm.05-.01l.02.05-.05-.02.03-.03zm-.01-.17l.05.03h-.01v.01l-.01.01v.01h-.01v.02h-.01v.09l-.05.01V4.3h-.01v-.03l.01-.01v-.04l.01-.01v-.02h.01v-.01l.01-.01v-.01h.01v-.01zm.09-.03l-.04.06-.05-.03.05-.06.04.03zm.26-.06l-.03.04h-.01v-.01h-.02l-.01-.01h-.01l-.01-.01h-.09l-.01.01h-.02v.01h-.02v.01h-.01v.01l-.01.01h-.01L11 4.09l.01-.01.01-.01.01-.01.01-.01h.01l.01-.01h.01l.01-.01h.01l.01-.01h.03l.01-.01h.05l.01.01h.03l.01.01h.02l.01.01h.01l.01.01v.01h.01zm2.71 2.37L11.27 4.1l.03-.04 2.75 2.33-.04.04zm.06.26l-.04-.04h.01v-.02h.01v-.01l.01-.01v-.03h.01V6.52h-.01v-.03h-.01v-.02h-.01v-.01l-.01-.01-.01-.01-.01-.01.04-.04v.01l.01.01h.01l.01.01v.01l.01.01v.01l.01.01v.01h.01v.02l.01.01v.1l-.01.01v.01l-.01.01v.02l-.01.01-.01.01v.01l-.01.01zm-.09.02l.05-.06.04.04-.05.06-.04-.04zm-.11.07l-.05.03.03-.04h.04l.01-.01h.02l.01-.01h.01v-.01h.02v-.01h.01v-.01h.01v-.01l.04.04-.01.01-.01.01h-.01v.01h-.01v.01h-.01l-.01.01h-.01l-.01.01h-.02l-.01.01h-.07l.03-.04zm-.05.03l-.03-.05.06.01-.03.04z"/><path fill="#F08BB2" d="M14.81.72l1.96 1.67c.62.53.7 1.46.17 2.09-.45.54-1.58.99-2.39 1.49.07.11.07.26-.02.37-.11.12-.3.14-.43.03l-2.79-2.36c-.12-.11-.14-.3-.03-.43.09-.11.23-.14.35-.09.36-.88.74-2.21 1.09-2.6.53-.62 1.47-.69 2.09-.17zm1.1 2.05c.37.31.41.87.1 1.24-.17.19-.4.3-.65.3-.11 0-.28-.03-.38.04-.11.08-.11.17-.22.3-.37.44-1.09.44-1.6 0-.51-.43-.63-1.14-.26-1.57.08-.09.24-.16.27-.26.05-.13-.01-.24-.03-.4-.04-.23.03-.49.2-.68.31-.37.86-.42 1.23-.1.15.12.21.29.29.45.12.24.09.29.17.36.07.05.12.03.39.11.17.05.34.09.49.21z"/><path fill="#2B2A29" fill-rule="nonzero" d="M16.75 2.41L14.79.74l.03-.04 1.97 1.67-.04.04zm.21 2.08l-.04-.03.05-.06.04-.06.04-.06.04-.06.03-.07.03-.06.03-.07.02-.07.02-.06.02-.07.01-.07.01-.07v-.07l.01-.07-.01-.07V3.4l-.01-.07-.01-.07-.01-.07-.02-.07-.02-.06-.02-.07-.03-.06-.03-.07-.03-.06-.04-.06-.04-.06-.04-.06-.05-.06-.05-.05-.05-.05-.06-.05.04-.04.06.05.05.05.05.06.05.06.04.06.04.06.04.06.04.07.03.06.03.07.02.07.02.07.02.07.01.07.02.07v.07l.01.08v.14l-.01.07-.01.08-.01.07-.02.07-.02.07-.02.07-.03.07-.03.07-.04.06-.03.07-.04.06-.05.06-.05.06zm-.04-.03zm-2.34 1.5l-.05.03.01-.04.08-.05.08-.04.08-.05.08-.05.08-.04.08-.05.09-.04.08-.05.09-.04.08-.05.09-.04.09-.05.08-.04.08-.05.09-.05.08-.04.08-.05.08-.04.08-.05.08-.04.08-.05.07-.05.07-.04.07-.05.07-.05.06-.05.06-.05.06-.04.05-.05.05-.05.05-.05.04-.05.04.03-.04.05-.05.06-.05.05-.06.05-.06.05-.06.04-.06.05-.07.05-.07.05-.07.05-.08.04-.07.05-.08.05-.08.04-.08.05-.08.05-.09.04-.08.05-.08.04-.09.05-.09.04-.08.05-.09.04-.08.05-.09.04-.08.05-.08.04-.09.05-.08.05-.08.04-.08.05-.07.04.01-.03zm-.05.03l-.01-.03.02-.01-.01.04zm.02.36l-.04-.03.01-.01V6.3l.01-.01.01-.01v-.01l.01-.01v-.01l.01-.01v-.02l.01-.01V6.15l.01-.01v-.01l-.01-.01v-.05l-.01-.01v-.02l-.01-.01v-.02L14.54 6l-.01-.01.05-.03v.01l.01.01.01.01V6l.01.02v.02l.01.01v.03l.01.01v.09l-.01.02v.02l-.01.01v.03l-.01.01-.01.01v.02l-.01.01-.01.01v.01l-.01.01-.01.01zm-.02-.01l.02.01-.02-.01zm-.45.05l.03-.04.01.01.02.01.01.01h.01l.01.01h.02l.01.01h.01l.01.01h.04l.02.01h.04l.01-.01h.04l.01-.01h.02l.01-.01h.01l.01-.01.02-.01h.01l.01-.01.01-.01.01-.01.01-.01.01-.01.04.03-.01.02-.01.01-.02.01-.01.01-.01.01-.02.01-.01.01h-.01l-.02.01-.01.01h-.02l-.01.01h-.04l-.01.01h-.1l-.01-.01h-.02l-.01-.01h-.02l-.02-.01h-.01l-.02-.01-.01-.01-.01-.01-.02-.01-.01-.01zm-2.75-2.4l2.78 2.36-.03.04-2.78-2.36.03-.04zm-.07-.43l.04.03-.01.02-.01.01-.01.01v.01l-.01.01-.01.02v.02l-.01.01v.03l-.01.01v.07l.01.02v.02l.01.01v.02l.01.01v.01l.01.01.01.02v.01l.01.01.01.01.01.01.01.01.01.01-.03.04-.02-.01-.01-.01-.01-.02-.01-.01-.01-.01-.01-.02-.01-.01-.01-.01v-.02l-.01-.01v-.02l-.01-.01v-.02l-.01-.02v-.11l.01-.01v-.03l.01-.02.01-.01v-.02l.01-.01.01-.02.01-.01.01-.02.01-.01zm.02.02l-.02-.02.02.02zm.32-.1l.05.02-.03.01h-.03l-.01-.01H11.45l-.01.01h-.02l-.01.01h-.01l-.01.01h-.01l-.01.01h-.01l-.01.01-.01.01h-.01l-.01.01-.01.01v.01h-.01l-.04-.03.01-.01.01-.01.01-.01.01-.01.01-.01h.01l.01-.01.01-.01.01-.01h.01l.01-.01h.01l.02-.01h.02l.01-.01h.04l.01-.01h.07l.01.01h.04l.01.01h.01l.01.01-.03.01zm.05.02l-.01.02-.02-.01.03-.01zM12.7.88l.04.03-.03.04-.03.04-.04.05-.03.05-.03.06-.04.06-.03.07-.03.07-.04.07-.03.08-.04.08-.03.08-.03.08-.04.09-.03.09-.04.09-.03.1-.04.09-.03.09-.04.1-.03.1-.03.09-.04.1-.03.09-.04.1-.03.09-.04.1-.03.09-.04.09-.03.09-.04.09-.03.08-.05-.02.03-.08.04-.09.03-.09.04-.09.03-.09.04-.09.03-.1.04-.09.03-.1.03-.1.04-.09.03-.1.04-.09.03-.1.04-.09.03-.1.04-.09.03-.09.04-.09.03-.08.03-.08.04-.08.03-.08.04-.08.03-.07.04-.06.03-.07.03-.06.04-.05.03-.05.04-.04.03-.04zm.04.03zM14.82.7l-.03.04-.06-.04-.06-.05-.06-.04-.06-.03-.07-.04-.06-.03-.07-.02-.07-.02-.06-.02-.07-.02-.07-.01-.07-.01-.07-.01H13.73l-.07.01-.07.01-.07.02-.06.01-.07.02-.07.03-.06.02-.07.03-.06.04-.06.03-.06.04-.06.05-.05.04-.06.05-.05.06-.05.05-.04-.03.05-.06.06-.06.05-.05.06-.04.06-.05.06-.04.06-.04.07-.03.07-.03.06-.03.07-.03.07-.02.07-.02.07-.01.07-.01.08-.01H13.94l.08.01h.07l.07.02.07.01.07.02.07.03.07.03.07.03.06.03.07.04.06.04.06.04.06.05zm1.21 3.32l-.04-.03.03-.04.02-.03.03-.04.02-.03.02-.04.01-.04.02-.04.01-.04.01-.04.01-.04.01-.04.01-.04v-.16l-.01-.04v-.04l-.01-.04-.01-.04-.01-.04-.02-.04-.01-.04-.02-.04-.02-.03-.02-.04-.03-.03-.02-.04-.03-.03-.03-.03-.03-.03-.03-.03.03-.04.04.03.03.03.03.03.03.04.03.03.02.04.03.04.02.04.02.04.01.04.02.04.01.04.01.04.01.05.01.04V3.54l-.01.04v.04l-.01.05-.02.04-.01.04-.02.04-.01.04-.03.04-.02.04-.02.04-.03.04-.03.03zm-.67.32v-.05h.05l.02-.01h.04l.02-.01h.05l.02-.01.02-.01h.02l.02-.01.02-.01h.02l.02-.01.02-.01.02-.01.02-.01.02-.01.02-.01.02-.02.02-.01.02-.01.02-.01.01-.02.02-.01.02-.02.02-.01.01-.02.02-.02.01-.01.02-.02.04.03-.02.02-.01.02-.02.02-.02.01-.02.02-.01.02-.02.01-.02.02-.02.01-.02.02-.02.01-.02.01-.02.01-.02.01-.02.02-.02.01-.03.01h-.02l-.02.01-.02.01-.02.01-.03.01h-.02l-.02.01h-.02l-.03.01h-.04l-.03.01H15.36zm.01 0h-.01.01zm-.37.03l-.03-.04.01-.01.01-.01H15l.01-.01h.02l.01-.01h.02l.02-.01h.23l.01.01h.04v.05h-.09l-.01-.01H15.1l-.02.01h-.03l-.01.01h-.02l-.01.01-.01.01zm-.22.3l-.04-.03.01-.02.01-.01V4.6l.01-.01.01-.01.01-.01v-.01l.01-.02.01-.01v-.01l.01-.01V4.5l.01-.01.01-.01.01-.01v-.01l.01-.01v-.01l.01-.01v-.01l.01-.01.01-.01v-.01l.01-.01h.01l.01-.01.01-.01.01-.01.01-.01.01-.01h.01l.03.04-.01.01h-.01l-.01.01-.01.01-.01.01-.01.01v.01h-.01l-.01.01v.01l-.01.01v.01h-.01v.01l-.01.01v.01l-.01.01v.01l-.01.01v.01l-.01.01-.01.01v.01l-.01.01-.01.02-.01.01v.01l-.01.01-.01.01-.01.02-.01.01zm0 0zm-1.64 0l.04-.04.04.04.05.04.05.03.05.03.06.03.05.03.05.02.05.02.06.02.05.02.05.01.06.01.05.01.06.01H14.12l.05-.01.05-.01.05-.01.05-.01.05-.02.04-.02.05-.02.04-.02.05-.03.04-.03.04-.03.04-.03.03-.04.04-.03.04.03-.04.04-.04.04-.04.04-.04.03-.04.03-.05.03-.05.02-.05.02-.05.02-.05.02-.05.01-.05.02-.05.01h-.06l-.05.01h-.11L13.9 5h-.06l-.05-.01-.06-.02-.05-.01-.06-.02-.06-.02-.05-.02-.06-.02-.05-.03-.05-.03-.06-.03-.05-.04-.05-.04-.05-.04zm-.26-1.61l.04.04-.03.04-.03.04-.03.04-.02.05-.02.04-.02.05-.02.04-.01.05-.01.05-.01.05-.01.05v.16l.01.05.01.05.01.05.01.06.01.05.02.05.02.05.02.05.03.05.02.05.03.05.04.05.03.05.04.04.04.05.04.04.04.04.05.04-.04.04-.04-.04-.05-.04-.04-.05-.04-.04-.04-.05-.04-.05-.03-.05-.03-.05-.03-.05-.03-.06-.02-.05-.02-.05-.02-.06-.01-.05-.02-.05-.01-.06v-.05l-.01-.06V3.6l.01-.05.01-.06.01-.05.01-.05.02-.05.02-.05.02-.05.03-.05.02-.04.04-.05.03-.04zm0 0zm.27-.24l.05.01-.01.02v.01l-.01.01h-.01v.01l-.01.01-.01.01-.01.01v.01l-.01.01-.01.01h-.01l-.01.01-.01.01-.01.01-.01.01h-.01l-.01.01-.01.01-.01.01h-.01l-.01.01-.01.01-.01.01h-.01l-.01.01-.01.01-.01.01h-.01l-.01.01v.01l-.01.01-.04-.04.01-.01.01-.01.01-.01h.01l.01-.01.01-.01.01-.01.01-.01h.01l.01-.01.01-.01.01-.01h.01l.01-.01.01-.01.01-.01h.01l.01-.01v-.01l.01-.01h.01l.01-.01.01-.01.01-.01.01-.01.01-.01v-.01h.01v-.02h.01zm-.04-.39l.05-.01v.02l.01.01v.03l.01.01v.04l.01.01v.02l.01.02v.02l.01.01v.05l.01.02v.07l-.01.02v.04l-.01.01v.01l-.05-.01v-.03l.01-.01V2.64l-.01-.02v-.03l-.01-.01v-.03l-.01-.01v-.03l-.01-.01v-.03l-.01-.01v-.03zm.21-.71l.04.03-.02.02-.01.02-.02.02-.01.02-.01.02-.02.02-.01.02-.01.02-.01.02-.01.02-.01.02-.01.02v.02l-.01.02-.01.02v.02l-.01.02-.01.03v.04l-.01.02V2.27l-.01.02v.02l.01.02V2.42l-.05.01v-.02l-.01-.03v-.16l.01-.02v-.05l.01-.02V2.1l.01-.02v-.02l.01-.02.01-.03.01-.02v-.02l.01-.02.01-.03.01-.02.01-.02.02-.02.01-.02.01-.02.02-.02.01-.02.01-.02.02-.02.02-.02zm1.27-.1l-.03.04-.04-.03-.03-.03-.04-.02-.04-.02-.03-.02-.04-.02-.04-.01-.04-.02-.04-.01-.04-.01-.04-.01h-.08l-.04-.01h-.04l-.04.01h-.05l-.04.01h-.04l-.04.01-.03.02-.04.01-.04.02-.04.01-.04.02-.03.02-.04.03-.03.02-.03.03-.03.03-.04.03-.02.03-.04-.03.03-.04.03-.03.03-.03.04-.03.03-.03.04-.02.04-.02.04-.02.04-.02.04-.02.04-.01.04-.02.04-.01.04-.01h.05l.04-.01h.13l.04.01h.05l.04.01.04.01.05.01.04.02.04.01.04.02.04.02.04.02.04.03.04.03.03.03zm.29.46l-.05.02v-.01l-.01-.02-.01-.01v-.02l-.01-.01-.01-.02V2l-.01-.02-.01-.01-.01-.02v-.01l-.01-.02-.01-.01-.01-.02v-.01l-.01-.02-.01-.01-.01-.01-.01-.02v-.01l-.01-.02-.01-.01-.01-.01-.01-.02-.01-.01-.01-.01-.01-.01-.01-.02-.02-.01-.01-.01-.01-.01-.01-.01.03-.04.02.01.01.01.01.01.01.02.02.01.01.01.01.02.01.01.01.02.01.01.01.01.01.02.01.01.01.02.01.01.01.02v.01l.01.02.01.01.01.02v.01l.01.02.01.01.01.02v.01l.01.02.01.01v.02l.01.02.01.01.01.02v.01zm.17.35l-.04.04-.01-.01v-.01h-.01l-.01-.01v-.01h-.01v-.01l-.01-.01V2.4h-.01v-.02l-.01-.01v-.02l-.01-.01v-.02l-.01-.01V2.3l-.01-.01v-.01l-.01-.02v-.01l-.01-.02v-.01l-.01-.02-.01-.02-.01-.01v-.02l-.01-.03-.02-.02.05-.02.01.02.01.02.01.02.01.02.01.02.01.02v.01l.01.02v.01l.01.02v.01l.01.01v.02l.01.01v.02l.01.01v.01l.01.01v.01l.01.01v.01l.01.01v.01h.01v.01h.01l.01.01zm.38.11l-.02.05-.02-.01-.02-.01h-.03l-.02-.01-.02-.01h-.03l-.02-.01h-.02l-.01-.01h-.04l-.02-.01h-.04l-.01-.01h-.02l-.01-.01h-.02l-.01-.01h-.01l-.01-.01-.01-.01h-.01l.04-.04h.01v.01h.01l.01.01h.01l.01.01h.04l.01.01h.04l.01.01h.03l.01.01h.04l.02.01h.02l.02.01h.02l.02.01.02.01.03.01zm.49.21l-.03.04-.01-.01-.02-.01-.01-.01-.01-.01-.02-.01-.01-.01-.01-.01-.02-.01h-.01l-.02-.01-.01-.01h-.02l-.01-.01-.02-.01h-.01l-.02-.01h-.01l-.02-.01h-.01l-.02-.01h-.01l-.02-.01h-.01l-.02-.01h-.02l-.01-.01h-.03l-.02-.01h-.02l-.01-.01h-.02l.02-.05h.01l.02.01h.03l.02.01h.01l.02.01h.01l.02.01h.02l.01.01h.02l.01.01h.02l.02.01h.01l.02.01h.01l.02.01.01.01h.02l.02.01.01.01.02.01.01.01h.02l.01.01.02.01.01.01.02.01.01.01.01.02z"/></svg>