<svg xmlns="http://www.w3.org/2000/svg" width="113" height="68" fill-rule="evenodd" clip-rule="evenodd" image-rendering="optimizeQuality" shape-rendering="geometricPrecision" text-rendering="geometricPrecision" viewBox="0 0 14.57 8.84"><path fill="#C4D985" fill-rule="nonzero" d="M12.96 1.31c-.45-.31-.98-.42-1.48-.33-.49.09-.96.37-1.28.82-.31.44-.42.98-.34 1.48.09.5.36.96.8 1.28.45.31.98.41 1.48.32.49-.08.96-.36 1.28-.81.31-.45.42-.98.34-1.48-.09-.5-.36-.97-.8-1.28zm-1.38.22c.36-.06.74.01 1.05.24.32.22.52.56.57.91.06.36-.01.74-.24 1.07-.23.32-.57.52-.92.58-.36.07-.74-.01-1.05-.23-.32-.23-.52-.56-.57-.91-.06-.36.01-.75.24-1.07.23-.32.57-.52.92-.59z"/><path fill="#2B2A29" fill-rule="nonzero" d="M11.48.96l.05-.01h.05l.04-.01h.05l.05-.01h.24l.05.01h.05l.04.01.05.01h.05l.05.01.04.02.05.01.05.01.05.01.04.02.05.02.04.01.05.02.05.02.04.03.04.02.05.02.04.03.05.03.04.02.04.03-.02.04-.05-.03-.04-.03-.04-.02-.04-.03-.05-.02-.04-.02-.04-.03-.05-.02-.04-.01-.05-.02-.04-.02-.05-.01-.04-.02-.05-.01-.05-.01-.04-.01-.05-.01-.05-.01-.04-.01h-.05L12 .98h-.09l-.05-.01h-.04l-.05.01h-.1l-.04.01h-.05l-.05.01-.04.01-.01-.05zm-1.29.82l.03-.04.03-.04.03-.04.03-.04.04-.03.03-.04.04-.04.03-.03.04-.04.04-.03.03-.03.04-.03.04-.03.04-.03.04-.03.04-.02.05-.03.04-.02.04-.03.04-.02.05-.02.04-.02.05-.02.04-.02.05-.01.04-.02.05-.01.04-.02.05-.01.05-.01.04-.01.05-.01.01.05h-.05l-.04.01-.05.01-.05.02-.04.01-.05.01-.04.02-.04.02-.05.01-.04.02-.04.02-.05.02-.04.02-.04.03-.04.02-.04.02-.04.03-.04.03-.04.03-.04.02-.04.03-.04.04-.03.03-.04.03-.03.03-.04.04-.03.04-.03.03-.04.04-.03.04-.03.04-.03.04-.03-.03zm-.35 1.5l-.01-.05v-.05l-.01-.04v-.1l-.01-.05v-.04l.01-.05V2.75l.01-.05.01-.04v-.05l.01-.05.01-.05.01-.05.02-.04.01-.05.01-.05.02-.04.02-.05.02-.05.02-.04.02-.05.02-.04.02-.05.03-.04.02-.05.03-.04.03-.04.03-.05.03.03-.03.04-.02.04-.03.05-.03.04-.02.04-.02.05-.02.04-.02.05-.02.04-.02.05-.02.04-.01.05-.02.04-.01.05-.01.05-.01.04-.01.05-.01.05-.01.04-.01.05v.05l-.01.04V3.09l.01.04v.05l.01.05v.04l-.04.01zm.81 1.3l-.04-.04-.04-.03-.04-.03-.04-.03-.04-.03-.03-.04-.04-.03-.03-.04-.04-.04-.03-.03-.03-.04-.03-.04-.03-.04-.03-.04-.03-.04-.02-.04-.03-.04-.02-.05-.02-.04-.02-.04-.03-.05-.01-.04-.02-.04-.02-.05-.02-.04-.01-.05-.02-.05-.01-.04-.01-.05-.01-.05-.01-.04-.01-.05.04-.01.01.05.01.04.01.05.01.05.02.04.01.05.02.04.01.05.02.04.02.04.01.05.02.04.03.04.02.04.02.04.03.05.02.04.03.04.02.03.03.04.03.04.03.04.04.03.03.04.03.04.04.03.03.03.04.04.04.03.03.03.04.03.04.03-.02.04zm1.49.33h-.05l-.04.01-.05.01h-.1l-.05.01h-.09l-.05-.01h-.1l-.05-.01h-.04l-.05-.01-.05-.01-.05-.01-.04-.01-.05-.01-.05-.01-.05-.02-.04-.01-.05-.02-.04-.02-.05-.02-.04-.02-.05-.02-.04-.02-.05-.03-.04-.02-.05-.03-.04-.03-.04-.02.02-.04.05.03.04.03.04.02.04.03.05.02.04.02.04.02.05.02.04.02.05.02.04.02.05.01.04.01.05.02.05.01.04.01.05.01.05.01h.04l.05.01.05.01h.33l.04-.01h.05l.05-.01.04-.01.01.05zm1.29-.83l-.03.04-.03.05-.03.03-.03.04-.04.04-.03.04-.04.03-.03.04-.04.03-.04.04-.03.03-.04.03-.04.03-.04.03-.04.02-.04.03-.05.03-.04.02-.04.02-.04.02-.05.03-.04.02-.05.01-.04.02-.05.02-.04.01-.05.02-.04.01-.05.02-.05.01-.04.01-.05.01-.01-.05.05-.01.04-.01.05-.01.05-.01.04-.01.05-.02.04-.01.04-.02.05-.02.04-.01.04-.02.05-.02.04-.03.04-.02.04-.02.04-.03.04-.02.04-.03.04-.03.04-.03.04-.03.04-.03.03-.03.04-.03.03-.04.04-.03.03-.04.03-.03.04-.04.03-.04.03-.04.03-.04.03.02zm.35-1.49l.01.05v.04l.01.05v.1l.01.04v.1l-.01.05v.1l-.01.04-.01.05v.05l-.01.05-.01.04-.01.05-.02.05-.01.05-.01.04-.02.05-.02.05-.02.04-.02.05-.02.04-.02.05-.02.04-.03.05-.02.04-.03.05-.03.04-.03.04-.03-.02.03-.04.02-.05.03-.04.03-.04.02-.05.02-.04.02-.04.02-.05.02-.04.02-.05.02-.04.01-.05.02-.05.01-.04.01-.05.02-.04.01-.05v-.05l.01-.05.01-.04v-.05l.01-.05v-.28l-.01-.05v-.04l-.01-.05v-.05h.04zm-.81-1.3l.04.03.04.03.04.04.04.03.04.03.03.04.04.03.03.04.04.03.03.04.03.04.03.04.03.04.03.04.03.04.02.04.03.04.02.04.02.05.03.04.02.04.02.05.01.04.02.05.02.04.01.05.02.04.01.05.01.05.01.04.01.05.01.05h-.04l-.01-.04-.01-.05-.01-.04-.01-.05-.02-.04-.01-.05-.01-.04-.02-.05-.02-.04-.02-.05-.01-.04-.02-.04-.03-.04-.02-.05-.02-.04-.03-.04-.02-.04-.03-.04-.02-.04-.03-.04-.03-.03-.03-.04-.03-.04-.04-.03-.03-.04-.04-.03-.03-.04-.04-.03-.04-.03-.03-.03-.04-.03-.04-.03.02-.04zm-.35.5l-.03-.02-.03-.02-.03-.02-.03-.02-.03-.02-.03-.01-.03-.02-.03-.01-.03-.01-.04-.02-.03-.01-.03-.01-.03-.01-.04-.01-.03-.01h-.03l-.03-.01-.04-.01h-.03l-.03-.01h-.1l-.04-.01h-.03l-.03.01h-.1l-.04.01h-.03l-.03.01-.01-.05h.03l.04-.01h.07l.03-.01h.17l.04.01h.07l.03.01.03.01h.04l.03.01.04.01.03.01.03.01.04.01.03.01.03.01.03.02.04.01.03.02.03.02.03.01.03.02.04.02.03.02.03.02-.03.04zm.56.89v-.03l-.01-.03-.01-.03v-.04l-.01-.03-.01-.03-.01-.03-.02-.03-.01-.03-.01-.03-.01-.03-.02-.04-.01-.03-.02-.02-.02-.03-.01-.03-.02-.03-.02-.03-.02-.03-.02-.02-.02-.03-.02-.03-.02-.02-.03-.03-.02-.02-.03-.03-.02-.02-.03-.03-.02-.02-.03-.02-.03-.02-.03-.02.03-.04.03.02.03.02.02.03.03.02.03.03.02.02.03.03.02.02.03.03.02.02.02.03.03.03.02.03.02.03.02.02.01.03.02.03.02.03.02.03.01.04.02.03.01.03.01.03.02.03.01.03.01.04.01.03.01.03.01.04v.03l.01.03.01.04h-.05zm-.24 1.05l.02-.03.02-.03.02-.03.02-.03.01-.03.02-.03.02-.03.01-.04.02-.03.01-.03.01-.03.01-.04.01-.03.01-.03.01-.03.01-.04v-.03l.01-.04.01-.03v-.07l.01-.03V2.78l-.01-.03v-.03l-.01-.04h.05v.03l.01.04v.1l.01.03v.07l-.01.04v.07l-.01.03v.04l-.01.03v.04l-.01.03-.01.04-.01.03-.01.03-.01.04-.01.03-.01.04-.01.03-.02.03-.01.04-.02.03-.02.03-.01.03-.02.03-.02.04-.02.03-.02.03-.04-.03zm-.91.58l.04-.01h.03l.03-.01.03-.01.04-.01.03-.01.03-.01.03-.01.03-.01.03-.02.04-.01.03-.02.03-.01.03-.02.03-.01.02-.02.03-.02.03-.02.03-.02.03-.02.02-.02.03-.02.03-.03.02-.02.03-.03.02-.02.03-.03.02-.02.02-.03.03-.03.02-.03.02-.03.04.03-.03.03-.02.03-.02.03-.03.02-.02.03-.03.03-.02.03-.03.02-.02.02-.03.03-.03.02-.03.02-.02.02-.03.03-.03.02-.03.01-.03.02-.03.02-.03.02-.03.01-.04.02-.03.01-.03.02-.03.01-.03.01-.04.01-.03.01-.03.01-.04.01-.03.01-.04.01h-.03l-.01-.04zM11 4.08l.03.02.03.02.03.02.03.02.03.01.03.02.03.01.03.02.03.01.04.01.03.02.03.01.03.01.04.01h.03l.03.01.04.01h.03l.03.01h.03l.04.01h.23l.03-.01H12l.03-.01.01.04-.03.01h-.04l-.03.01h-.07l-.03.01H11.73l-.03-.01h-.07l-.03-.01h-.04l-.03-.01-.04-.01h-.03l-.03-.01-.04-.01-.03-.01-.04-.01-.03-.01-.03-.02-.03-.01-.04-.02-.03-.01-.03-.02-.03-.02-.03-.01-.04-.02-.03-.02-.03-.02.03-.04zm-.56-.9v.04l.01.03.01.03.01.03v.03l.01.04.01.03.02.03.01.03.01.03.01.03.02.03.01.03.02.03.02.03.01.03.02.03.02.03.02.02.02.03.02.03.02.03.02.02.03.03.02.02.03.03.02.02.03.02.02.03.03.02.03.02.03.02-.03.04-.03-.03-.03-.02-.02-.02-.03-.02-.03-.03-.02-.02-.03-.03-.02-.02-.03-.03-.02-.03-.02-.02-.03-.03-.02-.03-.02-.03-.02-.03-.01-.03-.02-.03-.02-.03-.02-.03-.01-.03-.02-.03-.01-.03-.01-.03-.02-.04-.01-.03-.01-.03-.01-.03-.01-.04-.01-.03v-.03l-.01-.04-.01-.03.05-.01zm.24-1.05l-.02.03-.02.04-.02.03-.02.03-.01.03-.02.03-.02.03-.01.03-.01.04-.02.03-.01.03-.01.03-.01.04-.01.03-.01.03-.01.04v.03l-.01.03-.01.04v.06l-.01.04v.23l.01.04v.03l.01.03-.05.01v-.03l-.01-.04v-.14l-.01-.03.01-.04v-.1l.01-.04v-.03l.01-.03v-.04l.01-.03.01-.04.01-.03.01-.04.01-.03.01-.03.01-.04.02-.03.01-.03.01-.04.02-.03.02-.03.01-.04.02-.03.02-.03.02-.03.02-.03.04.02zm.91-.57h-.04l-.03.01-.03.01-.03.01-.04.01-.03.01-.03.01-.03.01-.03.01-.03.01-.03.02-.04.01-.03.02-.03.01-.02.02-.03.02-.03.02-.03.02-.03.02-.03.02-.02.02-.03.02-.03.03-.02.02-.03.02-.02.03-.03.02-.02.03-.02.03-.03.03-.02.03-.02.02-.04-.02.03-.03.02-.03.02-.03.03-.03.02-.03.03-.02.02-.03.03-.02.02-.03.03-.02.03-.02.03-.03.02-.02.03-.02.03-.02.03-.02.03-.02.03-.01.03-.02.04-.02.03-.01.03-.02.03-.01.03-.01.04-.01.03-.02.03-.01.03-.01h.04l.03-.01.04-.01.03-.01.01.05z"/><path fill="#F08BB2" d="M10.24 4.47C9.4 5.77 8.53 6.2 7.73 7.33c-.21.29-.14.71.16.92.07.05.14.1.22.15.29.21.71.14.92-.16.8-1.12.91-2.09 1.86-3.3-.11-.05-.23-.11-.33-.19-.12-.08-.23-.18-.32-.28z"/><path fill="#2B2A29" fill-rule="nonzero" d="M7.71 7.31l.08-.1.07-.1.08-.1.08-.09.07-.09.08-.09.08-.09.08-.08.08-.08.07-.08.08-.08.08-.08.08-.07.08-.08.08-.08.08-.07.08-.08.07-.08.08-.08.08-.08.08-.08.08-.09.08-.08.08-.09.08-.09.08-.1.08-.09.08-.11.07-.1.08-.11.08-.11.08-.12.04.02-.08.12-.08.12-.08.11-.08.1-.08.1-.08.1-.08.1-.08.09-.08.09-.08.08-.08.09-.08.08-.07.08-.08.08-.08.08-.08.08-.08.07-.08.08-.08.08-.08.07-.08.08-.08.08-.07.08-.08.08-.08.08-.08.09-.07.09-.08.09-.07.09-.08.1-.08.1-.07.1-.04-.03zm.17.96l-.03-.02-.03-.03-.02-.02-.03-.02-.02-.03-.02-.03-.02-.02-.02-.03-.02-.03-.01-.03-.01-.03-.02-.03-.01-.03-.01-.03v-.03l-.01-.04-.01-.03v-.16l.01-.04v-.03l.01-.03.01-.03.01-.03.02-.04.01-.03.02-.03.01-.03.02-.03.04.03-.02.03-.02.02-.01.03-.01.03-.02.03-.01.03-.01.03v.03l-.01.03v.03l-.01.03v.1l.01.03v.03l.01.03.01.03v.03l.01.03.02.02.01.03.01.03.02.03.02.02.01.03.02.02.02.03.03.02.02.02.03.02.02.02-.02.04zm.21.15v-.01h-.02V8.4h-.01l-.01-.01-.01-.01h-.01v-.01h-.01l-.01-.01L8 8.35h-.01v-.01h-.01l-.01-.01h-.01v-.01h-.01l-.01-.01-.01-.01h-.01l-.01-.01H7.9v-.01h-.01l-.01-.01.02-.04.01.01h.01v.01h.02v.01h.01l.01.01.01.01h.01v.01h.01L8 8.3l.01.01h.01v.01h.01l.01.01.01.01h.01v.01h.01l.01.01h.01l.01.01.01.01h.01l-.03.04zm.96-.16l-.03.02-.02.03-.02.03-.03.02-.02.02-.03.02-.02.02-.03.02-.03.02-.03.01-.03.02-.03.01-.03.01-.03.01-.03.01H8.6l-.03.01h-.16l-.04-.01h-.03l-.03-.01-.03-.01-.04-.01-.03-.01-.03-.02-.03-.01-.03-.02-.03-.02.03-.04.03.02.02.02.03.01.03.02.03.01.03.01.03.01.03.01h.03l.03.01h.16l.03-.01h.03l.03-.01.03-.01.02-.01.03-.01.03-.02.03-.01.03-.02.02-.01.03-.02.02-.02.02-.02.03-.02.02-.03.02-.02.02-.03.04.03zm1.85-3.34l.01.03-.09.12-.08.11-.08.11-.07.11-.07.1-.07.11-.06.1-.06.11-.06.1-.05.11-.06.1-.05.1-.05.1-.04.1-.05.1-.05.1-.04.1-.05.1-.05.1-.04.1-.05.1-.05.1-.05.1-.05.1-.05.1-.06.1-.05.11-.06.1-.07.1-.06.11-.07.1-.07.11-.04-.03.07-.1.07-.11.07-.1.06-.1.06-.11.06-.1.05-.1.05-.1.05-.1.05-.1.05-.1.05-.1.04-.1.05-.1.05-.1.04-.1.05-.1.05-.1.04-.1.05-.1.06-.1.05-.1.05-.11.06-.1.06-.11.07-.1.06-.11.07-.11.08-.11.07-.11.09-.11.08-.11.01.03.02-.04zm0 0l.03.01-.02.02-.01-.03zm-.33-.19l.01.01.01.01h.01l.01.01.01.01h.01l.01.01.01.01h.01l.01.01.01.01h.01l.01.01h.01l.01.01.01.01h.01l.01.01h.01l.01.01h.01l.01.01.01.01h.01l.02.01h.01l.01.01h.01l.01.01h.01l.01.01h.01l-.02.04h-.01l-.01-.01h-.01l-.01-.01h-.01l-.01-.01-.01-.01h-.01l-.02-.01h-.01l-.01-.01h-.01l-.01-.01h-.01l-.01-.01-.01-.01h-.01l-.01-.01h-.01l-.01-.01-.01-.01h-.01l-.01-.01-.01-.01h-.01l-.01-.01-.01-.01h-.02l-.01-.01-.01-.01h-.01l-.01-.01.03-.04zm-.35-.27l.03-.01.01.01.01.01.01.01.01.01.01.01.01.01.01.01.01.01.01.01v.01l.01.01.01.01h.01l.01.01.01.01.01.01.01.01.01.01.01.01.01.01h.01l.01.01.01.01.01.01.01.01.01.01h.02l.01.01.01.01.01.01.01.01h.01l-.03.04-.01-.01-.01-.01-.01-.01h-.01l-.01-.01-.01-.01-.01-.01-.01-.01-.01-.01h-.01l-.02-.01-.01-.01-.01-.01-.01-.01-.01-.01-.01-.01-.01-.01h-.01l-.01-.01-.01-.01-.01-.01-.01-.01-.01-.01v-.01l-.01-.01-.01-.01-.01-.01-.01-.01-.01-.01-.01-.01-.01-.01-.01-.01h.04l-.04-.02zm0 0l.02-.03.01.02-.03.01z"/><path fill="#F5B2B6" d="M12.14 2.46c-.26-.18-.62-.12-.8.14-.18.26-.12.62.14.8.26.19.62.12.8-.13.18-.26.12-.62-.14-.81z"/><path fill="#2B2A29" fill-rule="nonzero" d="M11.36 2.61l-.04-.02.02-.03.02-.02.02-.02.02-.02.02-.02.03-.02.02-.02.03-.01.02-.02.03-.01.02-.01.03-.01.03-.01.02-.01.03-.01h.03l.03-.01h.14l.03.01h.03l.03.01.02.01.03.01.03.01.03.01.02.01.03.02.02.02-.02.03-.02-.01-.03-.02-.02-.01-.03-.01-.02-.01-.03-.01-.03-.01-.02-.01h-.03l-.02-.01h-.14l-.02.01h-.03l-.03.01-.02.01-.03.01-.02.01-.02.01-.03.01-.02.01-.02.02-.03.01-.02.02-.02.02-.02.02-.02.02-.01.02-.02.02zm.13.78l-.02.03-.03-.02-.02-.02-.02-.02-.03-.02-.02-.02-.01-.02-.02-.03-.02-.02-.01-.03-.02-.02-.01-.03-.01-.02-.01-.03-.01-.03v-.03l-.01-.03v-.02l-.01-.03v-.09l.01-.03v-.03l.01-.02v-.03l.01-.03.01-.03.01-.03.02-.02.01-.03.02-.03.01-.02.04.02-.02.03-.01.02-.01.03-.02.02-.01.03-.01.02v.03l-.01.03-.01.02V3l.01.03v.02l.01.03v.02l.01.03.01.02.01.03.02.02.01.03.01.02.02.02.02.02.02.02.02.02.02.02.02.02.02.02zm.77-.14l.04.03-.02.02-.02.03-.02.02-.02.02-.02.02-.03.02-.02.01-.02.02-.03.02-.03.01-.02.01-.03.01-.03.01-.02.01-.03.01h-.03l-.03.01h-.14l-.03-.01h-.03l-.03-.01-.02-.01-.03-.01-.03-.01-.03-.01-.02-.02-.03-.01-.02-.02.02-.03.02.01.03.02.02.01.03.01.02.01.03.01.03.01h.02l.03.01h.02l.03.01h.08l.03-.01h.02l.03-.01h.03l.02-.01.03-.01.02-.01.03-.01.02-.01.02-.02.02-.01.03-.02.02-.01.02-.02.02-.02.02-.02.01-.02.02-.03zm-.13-.77l.02-.03.03.01.02.02.03.02.02.03.02.02.01.02.02.02.02.03.01.02.02.03.01.03.01.02.01.03.01.03v.02l.01.03v.03l.01.03v.09L12.4 3v.03l-.01.03v.03l-.01.03-.01.03-.01.02-.02.03-.01.03-.02.02-.01.03-.04-.03.02-.02.01-.02.02-.03.01-.02.01-.03.01-.03v-.02l.01-.03.01-.02v-.19l-.01-.03-.01-.02v-.03l-.01-.02-.01-.03-.01-.02-.02-.03-.01-.02-.01-.02-.02-.02-.02-.02-.02-.02-.02-.02-.02-.02-.02-.02-.02-.02z"/><path fill="#F08BB2" d="M14.23 4.04c-.19-.13-.45-.08-.58.1-.13.19-.09.45.1.58.19.14.44.09.58-.1.13-.18.09-.44-.1-.58z"/><path fill="#2B2A29" fill-rule="nonzero" d="M13.67 4.16l-.04-.03.01-.02.02-.01.01-.02.02-.02.02-.01.01-.01.02-.02.02-.01.02-.01.01-.01.02-.01.02-.01h.02l.02-.01h.02l.02-.01h.15l.02.01h.02l.02.01.02.01h.02l.02.01.02.01.02.01.02.02-.02.03-.02-.01-.02-.01-.02-.01-.01-.01h-.02l-.02-.01-.02-.01h-.04l-.02-.01H13.94l-.02.01h-.04l-.01.01-.02.01h-.02l-.02.01-.01.01-.02.01-.02.01-.01.01-.02.01-.01.02-.01.01-.02.01-.01.02-.01.02zm.09.54l-.02.04-.02-.01-.02-.02-.02-.01-.01-.02-.02-.01-.01-.02-.01-.02-.01-.02-.01-.01-.01-.02-.01-.02-.01-.02-.01-.02V4.5l-.01-.02v-.02l-.01-.02V4.33l.01-.02v-.02l.01-.02v-.02l.01-.02.01-.02.01-.02.01-.02.01-.02.01-.02.04.03-.01.01-.01.02-.01.02-.01.02-.01.01-.01.02v.02l-.01.02v.06l-.01.01.01.02v.08l.01.02v.02l.01.01.01.02.01.02v.01l.01.02.01.02.02.01.01.02.01.01.01.02.02.01.01.01.02.01zm.55-.09l.04.03-.02.01-.01.02-.02.02-.01.01-.02.02-.02.01-.01.01-.02.02-.02.01-.02.01h-.02l-.02.01-.02.01-.02.01h-.04l-.02.01h-.1l-.02-.01h-.05l-.02-.01-.02-.01-.02-.01-.02-.01-.02-.01-.02-.01-.01-.01.02-.04.02.02.02.01.01.01h.02l.02.01.02.01h.02l.01.01h.04l.02.01h.06l.02-.01h.03l.02-.01h.02l.02-.01.02-.01h.01l.02-.01.02-.01.01-.01.02-.01.01-.02.02-.01.01-.01.01-.02.02-.01.01-.02zm-.09-.55l.02-.03.02.01.02.01.01.02.02.01.01.02.02.02.01.02.01.01.01.02.01.02.01.02.01.02v.02l.01.02.01.02v.06l.01.02v.02l-.01.02v.07l-.01.02-.01.02v.02l-.01.02-.01.02-.01.02-.01.02-.01.02-.04-.03.01-.02.01-.01.01-.02.01-.02.01-.02v-.01l.01-.02v-.02l.01-.02v-.13l-.01-.02v-.02l-.01-.02v-.02l-.01-.01-.01-.02-.01-.02-.01-.01-.01-.02-.01-.02-.01-.01-.01-.02-.02-.01-.01-.01-.02-.02-.01-.01z"/><path fill="#F08BB2" d="M9.95 1.14c-.19-.14-.45-.09-.58.1-.13.18-.09.44.1.57.19.14.45.09.58-.1.13-.18.09-.44-.1-.57z"/><path fill="#2B2A29" fill-rule="nonzero" d="M9.39 1.25l-.04-.03.02-.02.01-.01.02-.02.01-.01.02-.02.02-.01.01-.01.02-.02.02-.01.02-.01.02-.01h.02l.02-.01.02-.01h.02l.02-.01h.14l.03.01h.02l.02.01.02.01h.02l.02.01.02.01.02.02.01.01-.02.03-.02-.01-.02-.01-.01-.01-.02-.01h-.02l-.02-.01h-.02l-.01-.01h-.02l-.02-.01h-.1l-.02.01h-.01l-.02.01h-.02l-.02.01h-.02l-.01.01-.02.01-.02.01-.01.01-.02.01-.01.01-.02.02-.01.01-.01.02-.02.01-.01.02zm.09.55l-.02.03-.02-.01-.02-.02-.01-.01-.02-.02-.01-.01-.02-.02-.01-.02-.01-.01-.01-.02-.01-.02-.01-.02-.01-.02v-.02l-.01-.02-.01-.02v-.06l-.01-.02v-.02l.01-.03v-.06l.01-.02.01-.02v-.02l.01-.02.01-.02.01-.02.01-.02.01-.02.04.03-.01.01-.01.02-.01.02-.01.02-.01.02v.01l-.01.02v.02l-.01.02v.13l.01.02v.02l.01.02v.01l.01.02.01.02.01.02.01.01.01.02.01.01.01.02.01.01.02.02.01.01.02.01.01.02zm.55-.1l.04.03-.01.02-.02.01-.01.02-.02.01-.02.02-.01.01-.02.01-.02.02-.02.01-.01.01-.02.01h-.02l-.02.01-.02.01h-.02l-.02.01h-.15l-.02-.01H9.6l-.02-.01-.02-.01h-.02l-.02-.01-.02-.01-.02-.02-.02-.01.02-.03.02.01.02.01.02.01.01.01h.02l.02.01h.02l.02.01h.02l.01.01h.1l.02-.01h.02l.01-.01h.02l.02-.01h.02l.02-.01.01-.01.02-.01.02-.01.01-.01.02-.01.01-.02.01-.01.02-.02.01-.01.01-.02zm-.09-.55l.02-.03.02.01.02.02.02.01.01.02.02.01.01.02.01.02.01.01.01.02.01.02.01.02.01.02.01.02v.02l.01.02v.02l.01.02v.11l-.01.02v.02l-.01.02v.02l-.01.02-.01.02-.01.02-.01.02-.01.02-.01.02-.04-.03.01-.01.01-.02.01-.02.01-.02.01-.02.01-.01v-.02l.01-.02V1.39l-.01-.02v-.02l-.01-.01-.01-.02-.01-.02v-.02l-.01-.01-.01-.02-.02-.01-.01-.02-.01-.01-.01-.02-.02-.01-.01-.01-.02-.02z"/><path fill="#F08BB2" d="M14.38 1.61c-.19-.14-.45-.09-.58.09-.13.19-.09.45.1.58.18.14.44.09.58-.1.13-.18.08-.44-.1-.57z"/><path fill="#2B2A29" fill-rule="nonzero" d="M13.82 1.72l-.04-.03.01-.02.02-.01.01-.02.02-.01.01-.02.02-.01.02-.02.02-.01.02-.01.01-.01.02-.01h.02l.02-.01.02-.01h.02l.02-.01h.15l.02.01h.02l.02.01.02.01h.02l.02.01.02.01.02.01.02.02-.03.03-.01-.01-.02-.01-.02-.01-.01-.01h-.02l-.02-.01-.02-.01h-.04l-.02-.01H14.09l-.02.01h-.04l-.01.01-.02.01h-.02l-.02.01-.01.01-.02.01-.02.01-.01.01-.02.01-.01.02-.02.01-.01.02-.01.01-.01.02zm.09.55l-.03.03-.01-.01-.02-.02-.02-.01-.01-.02-.02-.01-.01-.02-.01-.02-.01-.01-.01-.02-.01-.02-.01-.02-.01-.02-.01-.02v-.02l-.01-.02v-.02L13.7 2V1.89l.01-.02v-.02l.01-.02v-.02l.01-.02.01-.02.01-.02.01-.02.01-.02.01-.02.04.03-.02.01-.01.02v.02l-.01.02-.01.01-.01.02v.02l-.01.02v.04l-.01.02v.03l.01.02v.06l.01.02v.02l.01.01.01.02v.02l.01.02.01.01.01.02.01.01.02.02.01.01.01.02.02.01.01.01.02.02zm.55-.1l.03.03-.01.01-.01.02-.02.02-.01.01-.02.02-.02.01-.01.01-.02.02-.02.01-.02.01-.02.01h-.02l-.02.01-.02.01h-.02l-.02.01H14.06l-.02-.01h-.02L14 2.36l-.02-.01-.02-.01h-.02l-.02-.01-.02-.02-.02-.01.03-.03.02.01.01.01.02.01h.02l.02.01.02.01h.01l.02.01h.02l.02.01h.08l.02-.01h.03l.02-.01h.02l.02-.01h.01l.02-.01.02-.01.01-.01.02-.01.02-.01.01-.02.02-.01.01-.01.01-.02.02-.01.01-.02zm-.1-.55l.03-.03.02.01.01.02.02.01.02.02.01.01.01.02.02.02.01.01.01.02.01.02.01.02.01.02v.02l.01.02v.02l.01.02v.15l-.01.02v.02l-.01.02v.02l-.01.02-.01.02-.01.02-.01.02-.02.02-.03-.03.01-.02.01-.01.01-.02.01-.02.01-.02v-.01l.01-.02v-.02l.01-.02v-.13l-.01-.02v-.02l-.01-.02V1.8l-.01-.01-.01-.02-.01-.02-.01-.01-.01-.02-.01-.01-.01-.02-.02-.01-.01-.02-.01-.01-.02-.01-.02-.02z"/><path fill="#F08BB2" d="M12.43.11c-.18-.14-.44-.09-.58.09-.13.19-.08.45.1.58.19.14.45.09.58-.1.13-.18.09-.44-.1-.57z"/><path fill="#2B2A29" fill-rule="nonzero" d="M11.87.22l-.03-.03.01-.02.01-.01.02-.02.01-.01.02-.02.02-.01.01-.02.02-.01.02-.01.02-.01.02-.01h.02l.02-.01.02-.01h.02l.02-.01h.15l.02.01h.02l.02.01.02.01h.02l.02.01.02.01.02.02.02.01-.03.03-.02-.01-.01-.01-.02-.01-.02-.01h-.02l-.02-.01-.01-.01h-.04l-.02-.01h-.09l-.02.01h-.04l-.02.01-.02.01h-.01l-.02.01L12 .1l-.01.01-.02.01-.02.01-.01.01-.02.02-.01.01-.01.02-.02.01-.01.02zm.1.55l-.03.03-.02-.01-.01-.02-.02-.01-.02-.02-.01-.01-.01-.02-.02-.02-.01-.01-.01-.02-.01-.02-.01-.02-.01-.02V.58l-.01-.02V.54l-.01-.02V.37l.01-.02V.33l.01-.02V.29l.01-.02.01-.02.01-.02.01-.02.02-.02.03.03-.01.01-.01.02-.01.02-.01.02V.3l-.01.02-.01.02v.04L11.8.4V.49l.01.02v.04l.01.02.01.01V.6l.01.02.01.02.01.01.01.02.01.01.01.02.02.01.01.02.01.01.02.01.02.02zm.54-.1l.04.03-.01.01-.02.02-.01.02-.02.01-.01.02-.02.01-.02.01-.02.02-.01.01-.02.01-.02.01h-.02l-.02.01-.02.01h-.02l-.02.01h-.15L12.1.87h-.02l-.02-.01-.02-.01-.02-.01H12l-.02-.01-.02-.02-.02-.01.03-.03.01.01.02.01.02.01h.02l.01.01.02.01h.02l.02.01h.02l.02.01h.07l.02-.01h.04l.02-.01h.01l.02-.01h.02l.02-.01.01-.01.02-.01.02-.01.01-.01.02-.02.01-.01.02-.01.01-.02.01-.01.01-.02zm-.09-.55l.03-.03.01.01.02.02.02.01.01.02.02.01.01.02.01.02.01.01.02.02.01.02v.02l.01.02.01.02.01.02v.04l.01.02V.5l-.01.02v.04l-.01.02-.01.02-.01.02-.01.02-.01.02-.01.02-.01.02-.04-.03.02-.02.01-.01.01-.02V.6l.01-.02.01-.01V.55l.01-.02V.49l.01-.02V.42L12.58.4V.36l-.01-.02V.32l-.01-.01-.01-.02V.27l-.01-.02-.01-.01-.01-.02-.01-.01-.02-.02-.01-.01-.01-.02-.02-.01-.01-.01-.02-.02z"/><path fill="#F08BB2" d="M12.21 5.11c-.19-.13-.45-.09-.58.1-.13.19-.09.45.1.58.19.13.45.09.58-.1.13-.19.09-.45-.1-.58z"/><path fill="#2B2A29" fill-rule="nonzero" d="M11.65 5.22l-.04-.02.02-.02.01-.02.02-.01.01-.02.02-.01.01-.02.02-.01.02-.01.02-.01.02-.01.02-.01.02-.01h.02l.02-.01.02-.01h.06l.02-.01h.02l.02.01h.06l.02.01.03.01h.02l.02.01.02.01.02.01.01.01.02.01-.02.04-.02-.01-.02-.01-.01-.01-.02-.01-.02-.01h-.02l-.02-.01h-.02l-.01-.01h-.14l-.01.01h-.02l-.02.01h-.02l-.02.01-.01.01-.02.01-.02.01-.01.01-.02.01-.01.01-.02.01-.01.02-.02.01-.01.02-.01.01zm.09.55l-.02.04-.02-.02-.02-.01-.01-.01-.02-.02-.01-.02-.02-.01-.01-.02-.01-.02-.01-.02-.01-.02-.01-.01-.01-.02-.01-.02v-.02l-.01-.02V5.5l-.01-.02v-.06l.01-.02v-.04l.01-.02v-.02l.01-.02.01-.02.01-.02.01-.02.01-.02.01-.02.04.02-.01.02-.01.02-.01.02-.01.01-.01.02v.02l-.01.02v.02l-.01.02v.13l.01.02v.01l.01.02v.02l.01.02.01.02.01.01.01.02.01.01.01.02.01.02.01.01.02.01.01.02.02.01.01.01zm.55-.09l.04.02-.02.02-.01.02-.02.02-.01.01-.02.01-.01.02-.02.01-.02.01-.02.01-.02.01-.02.01-.01.01-.02.01h-.02l-.03.01h-.02l-.02.01h-.1l-.02-.01h-.02l-.02-.01h-.02l-.02-.01-.03-.01-.01-.01-.02-.01-.02-.01-.02-.01.02-.04.02.01.02.01.01.01.02.01.02.01.02.01h.02l.02.01H12.06l.01-.01h.02l.02-.01.02-.01.01-.01h.02l.02-.01.01-.01.02-.02.01-.01.02-.01.01-.02.02-.01.01-.02.01-.01zm-.09-.55l.02-.04.02.02.02.01.01.02.02.01.01.02.02.02.01.01.01.02.01.02.01.02.01.02.01.02.01.02v.02l.01.02v.04l.01.02v.06l-.01.02v.05l-.01.02v.02l-.01.02-.01.02-.01.02-.01.02-.01.02-.01.01-.04-.02.01-.02.01-.02.01-.01.01-.02.01-.02v-.02l.01-.02v-.01l.01-.02v-.14l-.01-.01v-.02l-.01-.02v-.02l-.01-.02-.01-.01-.01-.02-.01-.02-.01-.01-.01-.02-.01-.01-.01-.02-.02-.01-.01-.01-.02-.02-.01-.01z"/><path fill="#F08BB2" d="M9.63 3.19c-.19-.13-.45-.09-.58.1-.14.19-.09.45.1.58.18.13.44.09.57-.1.14-.19.09-.45-.09-.58z"/><path fill="#2B2A29" fill-rule="nonzero" d="M9.06 3.3l-.03-.02.01-.02.02-.02.01-.01.02-.02.01-.01.02-.02.02-.01.01-.01.02-.01.02-.01.02-.01.02-.01.02-.01h.02l.02-.01h.04l.02-.01h.07l.02.01h.04l.02.01h.02l.02.01.02.01.02.01.02.01.02.01.02.01-.03.04-.01-.01-.02-.01-.02-.01-.02-.01-.01-.01h-.02l-.02-.01h-.02l-.02-.01h-.13l-.02.01h-.02l-.02.01h-.01l-.02.01-.02.01-.02.01-.01.01-.02.01-.01.01-.02.01-.01.01-.02.02-.01.01-.01.02-.02.01zm.1.55l-.03.04-.01-.02-.02-.01-.02-.02-.01-.01-.02-.02-.01-.01-.01-.02-.02-.02L9 3.74l-.01-.02-.01-.02v-.02l-.01-.02-.01-.02v-.02l-.01-.02v-.14l.01-.02v-.02l.01-.03.01-.02.01-.02v-.02L9 3.31l.02-.01.01-.02.03.02-.01.02-.01.02-.01.01v.02l-.01.02-.01.02v.02L9 3.45v.01l-.01.02v.1L9 3.6v.01l.01.02v.02l.01.02v.02l.01.01.01.02.01.02.01.01.01.02.02.01.01.02.01.01.02.02.01.01.02.01zm.55-.09l.03.02-.01.02-.02.02-.01.01-.02.02-.01.01-.02.02-.02.01-.01.01-.02.01-.02.01-.02.01-.02.01-.02.01H9.5l-.02.01h-.04l-.02.01h-.07l-.02-.01h-.04l-.02-.01h-.02l-.02-.01-.02-.01-.02-.01-.02-.01-.02-.01-.02-.01.03-.04.02.01.01.01.02.01.02.01.02.01h.01l.02.01h.02l.02.01h.13l.02-.01h.02l.02-.01h.02l.01-.01.02-.01.02-.01.01-.01.02-.01.01-.01.02-.01.01-.01.02-.02.01-.01.01-.02.02-.01zm-.1-.55l.03-.04.02.02.01.01.02.02.01.01.02.02.01.01.02.02.01.02.01.02.01.02.01.02v.01l.01.02.01.02v.03l.01.02v.14l-.01.02v.02l-.01.02-.01.02v.03l-.01.01-.01.02-.01.02-.02.02-.03-.02.01-.02.01-.02.01-.01.01-.02v-.02l.01-.02.01-.02V3.6l.01-.02v-.1l-.01-.02v-.03l-.01-.02-.01-.02v-.02l-.01-.01-.01-.02-.01-.02-.01-.01-.01-.02-.01-.01-.02-.02-.01-.01-.02-.02-.01-.01-.02-.01z"/><path fill="#99CFBA" fill-rule="nonzero" d="M4.7 1.67L.48 1.63H.46c-.06.01-.12.03-.17.05-.12.06-.19.15-.23.26-.04.09-.05.19-.03.28.01.07.03.13.05.18.18.48.36.86.7 1.19.31.31.75.56 1.42.8-.03.14-.06.29-.09.45-.21.9-.72 2.14-.59 3.05.17 1.25 2.15 1.36 2.2-.4.02-.65-.36-1.67-.74-3.06.41-.08.8-.24 1.15-.51.42-.33.77-.82 1.04-1.56v-.01c.07-.24.03-.4-.06-.51-.1-.11-.23-.15-.39-.17H4.7zm-4.19.38l4.19.04c.04 0 .08.01.09.02 0 .01 0 .04-.02.11-.24.66-.55 1.09-.9 1.37-.35.27-.75.4-1.18.45l-.16.02h-.01c-.72-.25-1.15-.48-1.45-.77-.28-.28-.44-.61-.6-1.05v-.01l-.01-.01c-.01-.01-.01-.03-.02-.06 0-.02 0-.05.01-.07 0-.01.01-.02.03-.03 0 0 .01-.01.03-.01zm2 3.3c.03-.11.05-.22.07-.33.16.57.89 2.92.02 2.97-.84-.1-.23-2.02-.09-2.64z"/><path fill="#2B2A29" fill-rule="nonzero" d="M.48 1.65l-.01-.04h.01l4.22.04v.04L.48 1.65zm-.01-.04h.01-.01zm-.01.04v-.04h.01l.01.04H.46zm0-.04H.45h.01zm-.18.05H.3v-.01h.02v-.01h.03l.01-.01h.02l.01-.01h.03l.01-.01h.03v.04H.45v.01H.4v.01H.37l-.01.01H.34v.01H.32v.01H.3l-.02-.04zm-.24.27v-.01l.01-.01V1.9l.01-.01v-.01l.01-.01v-.01l.01-.01v-.01l.01-.01v-.01l.01-.01.01-.01.01-.01.01-.01.01-.01.01-.01v-.01l.01-.01h.01l.01-.01.01-.01.01-.01h.01l.01-.01.01-.01h.01l.01-.01.01-.01h.01l.01-.01.02.04-.01.01H.28l-.01.01H.26l-.01.01-.01.01H.23l-.01.01v.01H.21l-.01.01-.01.01H.18v.01l-.01.01-.01.01-.01.01-.01.01v.01l-.01.01H.12v.01l-.01.01v.01l-.01.01v.01l-.01.01v.01l-.01.01v.01l-.04-.01zm-.03.3v-.01L0 2.21v-.15l.01-.01V2l.01-.01v-.03h.01v-.02l.01-.01.04.01v.01l-.01.01v.02l-.01.01v.03l-.01.01V2.09l-.01.01v.07l.01.01v.04l-.04.01zm.05.18V2.4l-.01-.01v-.01l-.01-.01v-.02l-.01-.01v-.02l-.01-.01v-.04H.01v-.04l.04-.01v.03h.01v.04l.01.01v.02l.01.01v.02l.01.01v.02H.1v.01l-.04.02zm.04-.02zm.67 1.22l-.03-.03-.04-.03-.03-.04-.02-.03-.03-.03-.03-.03-.03-.04-.02-.03-.03-.04-.02-.03-.03-.03-.02-.04-.02-.04-.03-.03-.02-.04-.02-.03-.02-.04-.02-.04-.02-.04-.02-.04-.02-.04-.02-.04-.02-.04-.01-.04-.02-.04-.02-.04-.02-.04-.01-.05-.02-.04-.02-.04-.01-.05-.02-.04.04-.02.02.05.01.04.02.05.02.04.01.04.02.04.02.04.02.05.01.04.02.04.02.03.02.04.02.04.02.04.02.04.02.03.02.04.02.04.02.03.03.04.02.03.02.04.03.03.02.03.03.04.02.03.03.03.03.03.03.03.03.04.03.03.03.03-.03.03zm1.41.78l.02.02-.07-.02-.06-.02-.06-.03-.06-.02-.05-.02-.06-.03-.05-.02-.06-.02-.05-.03-.05-.02-.05-.02-.05-.03-.05-.02-.04-.03-.05-.02-.04-.03-.05-.02-.04-.03-.04-.02-.04-.03-.04-.02-.04-.03-.04-.02-.03-.03-.04-.03-.03-.02-.04-.03-.03-.03-.03-.03-.03-.02-.03-.03-.03-.03.03-.03.03.03.03.02.03.03.03.03.03.03.04.02.03.03.03.02.04.03.04.03.03.02.04.03.04.02.04.03.05.02.04.03.04.02.05.02.04.03.05.02.05.03.05.02.05.02.05.03.05.02.06.02.05.03.06.02.06.02.06.03.06.02.06.02.02.03-.05-.01zm.03-.02l.02.01v.02l-.02-.03zm-.13.46l.01-.01v-.03l.01-.02v-.02l.01-.02V4.7l.01-.01v-.03l.01-.02v-.02l.01-.02v-.04l.01-.01v-.03l.01-.01v-.03l.01-.01v-.04l.01-.02v-.02l.05.01-.01.01v.03l-.01.01v.04l-.01.01v.03l-.01.01v.03l-.01.01v.03l-.01.02v.04l-.01.01v.03l-.01.02v.03l-.01.01v.03l-.01.01v.03l-.05-.01zM1.49 7.9l-.01-.09v-.09l-.01-.09v-.09l.01-.1v-.09l.01-.1.01-.1.02-.09.01-.1.02-.1.02-.1.02-.1.03-.1.02-.1.03-.11.02-.1.03-.1.03-.1.03-.1.02-.1.03-.1.03-.09.03-.1.03-.1.02-.09.03-.09.03-.1.02-.09.02-.08.02-.09.02-.09.05.01-.02.09-.02.09-.03.08-.02.1-.03.09-.02.09-.03.1-.03.09-.03.1-.03.1-.02.1-.03.09-.03.1-.03.1-.03.1-.02.11-.03.1-.02.1-.02.1-.03.1-.02.1-.01.09-.02.1-.01.1-.01.1-.01.09-.01.09v.28l.01.08.01.09-.05.01zm2.25-.41l-.01.16-.02.15-.03.14-.04.13-.05.12-.06.11-.06.1-.07.08-.08.08-.08.07-.09.06-.09.05-.1.04-.09.03-.1.02-.1.01h-.2l-.1-.02-.1-.02-.09-.03-.09-.04L2 8.68l-.08-.06-.08-.06-.07-.08-.07-.08-.06-.08-.05-.1-.04-.1-.03-.11-.03-.11.05-.01.02.11.03.11.04.09.05.09.05.09.07.07.07.07.07.07.08.05.09.05.08.03.09.04.1.02.09.01.1.01h.09l.1-.02.1-.02.09-.02.09-.04.09-.05.08-.05.08-.07.07-.08.07-.08.06-.1.06-.1.05-.12.04-.12.03-.14.02-.14.01-.16h.04zm-.76-3.04L3 4.42l.03.13.04.13.03.12.04.13.03.12.04.12.03.11.04.12.03.11.03.11.03.11.03.1.03.1.03.11.03.09.03.1.02.1.03.09.02.09.02.09.02.08.02.09.02.08.01.08.02.07.01.08.01.07.01.07v.07l.01.07v.13H3.7v-.06l-.01-.07v-.13l-.01-.07-.01-.07-.01-.08-.02-.07-.01-.08-.02-.08-.02-.09-.02-.08-.02-.09-.02-.09-.03-.09-.02-.1-.03-.09-.03-.1-.03-.1-.03-.11-.03-.1-.03-.11-.03-.11-.04-.11-.03-.12-.03-.11-.04-.12-.03-.12-.04-.13-.03-.12-.04-.13-.03-.13.01-.03.01.05zm-.02-.02l-.01-.02.02-.01-.01.03zm1.18-.5l-.03.03-.03.02-.04.03-.03.02-.03.03-.04.02-.03.02-.04.02-.03.02-.04.02-.03.02-.04.02-.04.02-.03.01-.04.02-.03.02-.04.01-.04.02-.03.01-.04.01-.04.02-.04.01-.03.01-.04.01-.04.01-.04.01-.04.01-.03.01-.04.01-.04.01-.04.01-.04.01-.01-.05h.04l.04-.01.04-.01.04-.01.03-.01.04-.01.04-.01.04-.01.03-.01.04-.01.04-.01.03-.02.04-.01.04-.01.03-.02.04-.01.03-.02.04-.02.04-.01.03-.02.04-.02.03-.02.03-.02.04-.02.03-.02.04-.02.03-.02.04-.02.03-.03.03-.02.03-.03.04-.02.02.03zm1.05-1.56l-.03.07-.02.07-.03.06-.03.07-.02.06-.03.06-.03.06-.03.06-.03.06-.03.05-.03.06-.03.05-.03.05-.03.06-.03.05-.04.04-.03.05-.03.05-.04.04-.03.05-.04.04-.03.04-.04.04-.03.04-.04.04-.04.04-.03.04-.04.03-.04.04-.04.03-.04.03-.04.03-.02-.03.04-.03.03-.03.04-.04.04-.03.04-.03.03-.04.04-.04.03-.04.04-.03.03-.05.04-.04.03-.04.04-.04.03-.05.03-.04.04-.05.03-.05.03-.05.03-.05.03-.05.03-.05.03-.06.03-.05.03-.06.03-.06.03-.06.03-.06.02-.06.03-.07.03-.06.02-.07.03-.06.04.01zm0 0zm-.04-.03l.05.01-.01.02-.04-.01v-.02zm.05.01zm-.08-.52l.01.01.01.01.01.01.01.01.01.02v.01l.01.01.01.02v.01l.01.01v.02l.01.01V2l.01.01v.04l.01.01v.13l-.01.02v.06l-.01.02v.02l-.01.02v.02l-.05-.01.01-.02V2.3l.01-.02v-.02l.01-.02V2.17l.01-.02v-.04l-.01-.01V2.04l-.01-.02V2l-.01-.02v-.01l-.01-.01v-.02l-.01-.01v-.01l-.01-.01-.01-.01-.01-.01v-.01l-.01-.02-.01-.01.03-.02zm-.39-.18h.04l.01.01h.05l.01.01h.03l.01.01h.03l.01.01h.01l.02.01h.01l.01.01.01.01H5l.01.01.01.01h.01l.01.01.01.01.01.01.01.01.01.01h.01l.01.01.01.02.01.01-.03.02-.01-.01h-.01l-.01-.01v-.01l-.01-.01-.01-.01-.01-.01h-.01l-.01-.01L5 1.77h-.01l-.02-.01h-.01l-.01-.01-.01-.01h-.01l-.01-.01h-.03l-.01-.01h-.02l-.02-.01h-.02L4.8 1.7h-.04l-.01-.01h-.03l.01-.04zm0 0l-.04-.01.04.01zm-.03.04v-.04h.03l-.01.04H4.7zm0-.04h.01-.01zm0 .42v.04L.51 2.07v-.04l4.19.04zm0 0zm.07.06v-.01h-.04v-.01h-.04l.01-.04h.05l.01.01h.02l.01.01h.01v.01l-.03.03zm0 0v-.01.01zm-.02.09v-.01l.01-.01v-.04h.01v-.04.01l.03-.03h.01v.08l-.01.01v.03l-.01.01-.04-.01zm.04.01zm-.93 1.34l.03-.03.03-.02.04-.03.03-.03.03-.03.03-.03.03-.03.03-.04.03-.03.03-.04.03-.03.03-.04.03-.04.03-.04.03-.04.03-.04.02-.04.03-.04.03-.05.03-.04.02-.05.03-.05.02-.05.03-.05.03-.05.02-.05.02-.06.03-.05.02-.06.03-.05.02-.06.02-.06.04.01-.02.06-.02.06-.03.06-.02.06-.03.05-.02.06-.03.05-.02.05-.03.05-.02.05-.03.05-.03.05-.02.05-.03.04-.03.04-.03.05-.03.04-.03.04-.02.04-.03.04-.03.04-.03.03-.04.04-.03.03-.03.04-.03.03-.03.03-.03.03-.04.03-.03.03-.03.03-.04.02-.02-.03zm-1.17.45h.04l.04-.01h.03L2.84 4l.04-.01h.04l.04-.01.04-.01.04-.01.04-.01.04-.01.03-.01.04-.01.04-.01.04-.02.03-.01.04-.01.04-.02.03-.01.04-.02.03-.02.04-.01.03-.02.04-.02.03-.02.04-.02.03-.02.04-.02.03-.03.03-.02.04-.02.03-.03.02.03-.03.03-.03.03-.04.02-.03.02-.03.02-.04.03-.03.02-.04.02-.04.02-.03.02-.04.01-.03.02-.04.02-.04.01-.03.02-.04.01-.04.01-.04.02-.04.01-.03.01-.04.01-.04.01-.04.01-.04.01-.04.01-.04.01-.04.01h-.04l-.04.01-.04.01h-.04l-.04.01v-.05zm-.16.06h-.01l.01-.04.16-.02v.05l-.16.01zm0 0h-.01.01zm-.02 0l.01-.04h.02l-.02.04h-.01zm0 0H2.5h.01zm-1.42-.8l.03.02.03.03.02.02.03.03.04.03.03.02.03.03.04.02.03.02.04.03.03.02.04.03.04.02.04.02.04.03.05.02.04.02.05.03.04.02.05.02.05.03.05.02.05.02.06.02.05.03.06.02.06.02.06.03.06.02.06.02.07.02.06.03-.01.04-.07-.02-.06-.03-.07-.02-.06-.02-.06-.03-.06-.02-.05-.02-.06-.02-.05-.03-.06-.02-.05-.02-.05-.03-.04-.02-.05-.02-.05-.03-.04-.02-.05-.02-.04-.03-.04-.02-.04-.03-.04-.02-.04-.03-.03-.02-.04-.02-.03-.03-.04-.03-.03-.02-.03-.03-.03-.02-.03-.03-.03-.03-.03-.02.03-.03zm-.6-1.04l.02.04.01.04.01.04.02.04.01.03.02.04.02.04.01.03.02.04.01.04.02.03.01.03.02.04.02.03.02.03.01.04.02.03.02.03.02.03.02.03.02.03.02.03.02.03.02.03.02.03.02.03.03.02.02.03.02.03.03.02.02.03.03.03-.03.03-.03-.03-.02-.03-.03-.02-.02-.03-.03-.03-.02-.03-.02-.03-.03-.02-.02-.03-.02-.03L.8 3l-.02-.03-.02-.04-.02-.03-.02-.03-.02-.03-.01-.04-.02-.03-.02-.03-.01-.04-.02-.03-.02-.04-.01-.03-.02-.04-.02-.04-.01-.03-.02-.04-.01-.04-.02-.04-.01-.04-.02-.04-.01-.04.04-.01zm0 0v.01-.01zm-.05 0l.04-.02h.01v.02l-.04.01-.01-.01zm.04-.02h.01-.01zm-.04.01l.04-.01-.03.02-.01-.01zm.04-.01zm-.01-.06v.04h.01v.02l-.04.01v-.01H.43v-.04H.42v-.01l.05-.01zm0 0zm0-.07v.02l-.01.01v.03h.01v.01l-.05.01v-.08h.01v-.01l.04.01zm-.04-.01l-.01.01.01-.01zm.05 0v.01H.47l-.04-.01v-.01h.01v-.01l.01-.01h.01v-.01h.01l.01.04zm-.01-.04zm.04.03H.5h.01H.5l-.01.01H.48h.01-.01l-.01-.04h.01v-.01h.03v.04zM.5 2.03h.01H.5zm2.06 2.99h.05l-.01.01v.03l-.01.01v.04l-.01.01v.04l-.01.01v.03l-.01.01v.04l-.01.01v.03l-.01.01v.03l-.01.01v.01l-.04-.01v-.02l.01-.01v-.03l.01-.01v-.04l.01-.01v-.03l.01-.01v-.03l.01-.01V5.1l.01-.01v-.04l.01-.01v-.03h.05l-.05.01zm0-.01l.02-.09.03.09h-.05zm.04 2.96l.07-.01.06-.03.06-.03.05-.04.04-.06.03-.06.03-.08.03-.08.01-.09.01-.1.01-.1v-.11l-.01-.12-.01-.11-.01-.12-.01-.13-.02-.12-.02-.13-.03-.12-.02-.13-.03-.12-.03-.12-.03-.12-.03-.12-.02-.11-.03-.1-.03-.1-.03-.1-.02-.08-.02-.08-.02-.07-.02-.06.05-.01.01.06.02.07.02.08.03.08.02.09.03.1.03.11.03.11.03.12.02.12.03.12.03.12.02.13.03.12.02.13.02.13.01.12.02.12.01.12V7.39l-.02.1-.01.1-.03.09-.03.07-.03.07-.05.06-.05.06-.07.03-.07.03-.08.01v-.04zm0 .04zm-.07-2.66l-.01.06-.02.07-.02.08-.02.08-.02.09-.02.09-.03.09-.02.1-.02.1-.03.11-.02.11-.02.1-.02.11-.02.11-.02.11-.01.11-.01.1-.01.1V7.37l.01.08.01.09.02.07.03.08.03.06.03.06.04.05.05.04.06.03.06.02.07.02v.04L2.52 8l-.07-.03-.06-.04-.06-.04-.04-.06-.04-.06-.03-.07-.03-.07-.02-.08-.01-.09-.01-.09-.01-.1v-.1l.01-.1.01-.1.01-.11.01-.11.02-.11.02-.11.02-.11.02-.1.02-.11.02-.11.03-.1.02-.1.02-.09.03-.09.02-.09.02-.08.02-.08.02-.07.01-.06.04.01z"/><path fill="#6FA691" d="M2.63.02C1.64.01.83.81.82 1.8c-.01.99.79 1.79 1.78 1.8.99.01 1.8-.78 1.8-1.77C4.41.84 3.62.03 2.63.02z"/><path fill="#2B2A29" fill-rule="nonzero" d="M.84 1.8H.8v-.1l.01-.09.01-.09.02-.09.02-.09.03-.08.03-.09.03-.08.04-.08.04-.08.04-.07.05-.07.05-.08.05-.06.06-.07.06-.06.07-.06.06-.06.07-.05.07-.05.08-.05.07-.04.08-.04.08-.03.09-.04.08-.02.09-.03.08-.02.09-.01.09-.01.1-.01h.09v.04l-.09.01h-.09l-.09.01-.09.02-.08.02-.09.02-.08.03-.08.03-.08.03-.08.04-.07.04-.07.05-.07.05-.07.05-.06.05-.07.06-.06.06-.05.06-.05.07-.05.07-.05.07-.04.08-.04.07-.04.08-.03.08-.03.08-.03.08-.02.09-.01.09-.02.09v.09l-.01.09zM2.6 3.58v.05l-.1-.01-.09-.01-.09-.01-.09-.01-.09-.03-.08-.02-.09-.03-.08-.03-.08-.04-.08-.04-.07-.05-.07-.04-.08-.05-.06-.06-.07-.06-.06-.06-.06-.06-.06-.07-.05-.07-.05-.07-.05-.07-.04-.08-.04-.08-.03-.08-.04-.08-.02-.08-.03-.09-.02-.09-.01-.09-.01-.09-.01-.09V1.8h.04l.01.09v.09l.01.09.02.08.02.09.02.08.03.09.03.08.03.08.04.07.04.08.05.07.05.07.05.07.05.06.06.06.06.06.07.06.06.05.07.05.07.05.08.04.07.04.08.04.08.03.08.03.09.02.08.02.09.02.09.01.09.01h.09zm1.78-1.75h.05l-.01.09-.01.09-.01.1-.01.08-.03.09-.02.09-.03.08-.03.08-.04.08-.04.08-.05.08-.04.07-.05.07-.06.07-.06.06-.06.07-.06.06-.07.05-.07.06-.07.05-.07.04-.08.05-.08.03-.08.04-.08.03-.08.03-.09.02-.09.02-.09.02-.09.01h-.09l-.09.01v-.05h.09l.09-.01.09-.01.08-.01.09-.02.08-.02.09-.03.08-.03.08-.04.07-.03.08-.05.07-.04.07-.05.07-.05.06-.06.06-.05.06-.07.06-.06.05-.07.05-.06.05-.08.04-.07.04-.08.04-.07.03-.08.03-.09.02-.08.02-.08.02-.09.01-.09.01-.09v-.09zM2.63.04V0h.09l.1.01.09.01.08.02.09.02.09.03.08.03.08.03.08.04.08.04.08.04.07.05.07.05.07.05.06.06.07.06.06.07.05.06.06.07.05.07.04.08.05.07.03.08.04.08.03.09.03.08.02.09.02.08.02.09.01.09v.1l.01.09h-.05v-.09l-.01-.09-.01-.09-.01-.09-.02-.08-.02-.09-.03-.08-.03-.08-.04-.08-.03-.08-.05-.07-.04-.07-.05-.07L3.99.7 3.93.64 3.88.57 3.81.51 3.75.46 3.68.4 3.62.35 3.54.31 3.47.27 3.39.23 3.32.19 3.24.16 3.15.13 3.07.1 2.99.08 2.9.07 2.81.05h-.09L2.63.04z"/><path fill="#D8ECE4" d="M3.27.68c-.2-.01-.36.15-.36.35-.01.2.15.37.35.37.2 0 .37-.16.37-.36 0-.2-.16-.36-.36-.36zm-.9 2.37c-.2 0-.37.16-.37.36 0 .03 0 .06.01.09.18.07.38.1.59.1h.07c.04-.05.06-.11.06-.18 0-.2-.16-.37-.36-.37zm-1.25-.87c-.09 0-.18.03-.24.09.06.23.17.44.31.63.16-.04.28-.18.29-.35 0-.2-.16-.37-.36-.37zM1.98.36c-.2-.01-.36.15-.36.35-.01.2.15.37.35.37.2 0 .37-.16.37-.36 0-.2-.16-.36-.36-.36zm.15 1.34c-.2 0-.36.16-.36.36 0 .2.16.37.36.37.2 0 .36-.16.36-.36 0-.2-.16-.37-.36-.37zm1.17.45c-.2-.01-.36.15-.36.35 0 .2.16.37.36.37.2 0 .36-.16.36-.36.01-.2-.15-.36-.36-.36z"/><path fill="#2B2A29" fill-rule="nonzero" d="M2.93 1.03h-.05v-.02l.01-.02V.96L2.9.94V.92L2.91.9V.88l.01-.01.01-.02.01-.01.01-.02.01-.02.01-.01.02-.01L3 .76l.01-.01.02-.01.01-.01.02-.01.01-.01.02-.01.01-.01.02-.01h.02l.02-.01.01-.01h.04l.02-.01h.04V.7H3.2l-.01.01h-.02l-.02.01h-.01l-.02.01-.01.01h-.02l-.01.01-.01.01-.02.01-.01.01-.01.01-.01.02-.01.01L3 .83l-.01.01-.01.02-.01.01-.01.02-.01.01v.02l-.01.01v.02l-.01.02V1.03zm.33.35v.04h-.05l-.02-.01h-.02l-.02-.01h-.02l-.02-.01-.01-.01-.02-.01-.01-.01-.02-.01-.02-.01-.01-.01-.01-.01-.02-.01-.01-.02-.01-.01-.01-.02-.01-.01-.01-.02-.01-.01-.01-.02-.01-.02v-.01l-.01-.02-.01-.02v-.04l-.01-.02v-.04h.05V1.1l.01.02v.02l.01.01v.02l.01.01.01.02v.01l.01.02.01.01.01.01.01.01.01.02.02.01.01.01.01.01.01.01.02.01.01.01h.02l.01.01.02.01h.01l.02.01h.03l.02.01h.03zm.35-.34h.04v.06l-.01.02v.02l-.01.02v.01l-.01.02-.01.02-.01.01-.01.02-.01.02-.01.01-.01.01-.01.02-.01.01-.02.01-.01.02-.02.01-.01.01-.02.01-.01.01-.02.01h-.02l-.01.01-.02.01h-.04l-.02.01h-.06v-.04h.04l.02-.01h.03l.02-.01h.01l.02-.01h.01l.02-.01.01-.01.02-.01.01-.01.01-.01.01-.01.02-.01.01-.01.01-.01.01-.02.01-.01.01-.01.01-.02v-.01l.01-.02.01-.01v-.02l.01-.01v-.04l.01-.01v-.04zM3.27.7V.65h.02l.02.01h.04l.02.01h.01l.02.01.02.01h.02l.01.01.02.01.01.01.02.01.01.01.02.02.01.01.01.01.02.02.01.01.01.02.01.01.01.02.01.01v.02l.01.02.01.02v.03l.01.02v.06h-.04v-.03L3.6.99V.96L3.59.94V.92L3.58.91V.89L3.57.88 3.56.86 3.55.85 3.54.84 3.53.82 3.52.81 3.51.8 3.5.79 3.49.78 3.47.77 3.46.76 3.45.75 3.43.74 3.42.73H3.4L3.39.72 3.37.71h-.01L3.34.7h-.07zM2.02 3.41h-.04v-.06l.01-.02v-.01L2 3.3v-.02l.01-.02.01-.01.01-.02.01-.02.01-.01.01-.02.01-.01.01-.02.01-.01.02-.01.01-.01.02-.01.01-.02.02-.01h.01l.02-.01.02-.01.01-.01h.02l.02-.01h.02l.02-.01h.06v.04l-.02.01h-.07l-.01.01h-.02l-.02.01-.01.01H2.2l-.01.01-.01.01-.02.01-.01.01-.01.01-.01.01-.02.01-.01.02-.01.01-.01.01-.01.02v.01l-.01.02-.01.01-.01.02v.01l-.01.02v.05l-.01.01v.02zm0 .07L2 3.52l-.01-.01v-.03h-.01v-.07h.04v.04h.01v.05l-.01-.02zM2 3.52h-.01v-.01l.01.01zm.6.06v.05h-.04l-.02-.01H2.42l-.02-.01h-.05l-.02-.01h-.04l-.02-.01h-.03l-.02-.01H2.2l-.02-.01h-.02l-.01-.01h-.02l-.02-.01h-.02l-.02-.01h-.01l-.02-.01h-.02L2 3.52l.02-.04.02.01h.01l.02.01h.02l.01.01h.02l.02.01h.02l.01.01h.02l.02.01h.04l.01.01h.04l.02.01h.03l.02.01h.08l.01.01h.14zm.05.01l.04.02-.02.01-.01.01H2.6v-.05h.07l-.02.01zm.04.02v.01h-.02l.02-.01zm.01-.19h.05v.04h-.01v.05l-.01.01v.02l-.01.01v.02l-.01.01v.01H2.7v.02h-.01l-.04-.02h.01v-.01l.01-.01v-.01l.01-.01v-.02h.01v-.04h.01v-.07zm-.33-.35v-.04h.04l.02.01h.03l.02.01.02.01h.02l.01.01.02.01.02.01.01.01.02.01.01.01.01.01.02.02.01.01.01.01.01.02.01.01.01.02.01.02.01.01.01.02.01.02v.01l.01.02v.04l.01.02v.04H2.7v-.07l-.01-.02v-.01l-.01-.02v-.01l-.01-.02-.01-.01v-.02l-.01-.01-.01-.02-.01-.01-.01-.01-.01-.01-.02-.01-.01-.02-.01-.01-.01-.01h-.02l-.01-.01-.02-.01-.01-.01h-.02l-.01-.01h-.02l-.01-.01h-.06l-.01-.01zM.9 2.26l-.04.01.01-.02v-.01h.01l.01-.01.01-.01h.01v-.01h.02V2.2h.01l.01-.01h.02v-.01H1l.01-.01h.03l.01-.01h.07v.04h-.05l-.01.01h-.04v.01H1l-.01.01H.97l-.01.01H.95l-.01.01-.01.01H.92l-.01.01-.01.01H.89l.01-.02zm-.04.01v-.01l.01-.01-.01.02zm.32.61l.01.04-.02-.01-.01-.02-.02-.02-.01-.01-.01-.02-.01-.02-.02-.02-.01-.02-.01-.02-.01-.01-.01-.02-.01-.02-.02-.02-.01-.02L1 2.65l-.01-.02-.01-.02-.01-.02-.01-.02v-.02l-.01-.02-.01-.02-.01-.02-.01-.03-.01-.02v-.02L.9 2.4l-.01-.02-.01-.02v-.02l-.01-.03-.01-.02v-.02l.04-.01.01.02v.02l.01.02.01.03v.02l.01.02.01.02v.02l.01.02.01.02.01.02.01.02.01.02v.02l.01.02.01.02.01.02.01.02.01.02.01.02.01.02.01.01.02.02.01.02.01.02.01.02.01.02.01.01.02.02.01.02.01.02.01.01h-.02zm.01.04h-.01l-.01-.01.02.01zm.26-.37h.05v.03l-.01.02v.03l-.01.02v.01l-.01.02v.01l-.01.02-.01.01v.02l-.01.01-.01.01-.01.02-.01.01-.01.01-.01.01-.01.01-.02.01-.01.01-.01.01-.01.01-.02.01-.01.01-.02.01h-.01l-.02.01-.01.01h-.03l-.02.01-.01-.04.02-.01h.01l.02-.01h.01l.01-.01h.01l.02-.01.01-.01h.01l.01-.01.01-.01.02-.01.01-.01.01-.01.01-.01.01-.01v-.01l.01-.01.01-.01.01-.02V2.7l.01-.01.01-.02v-.01l.01-.01v-.02l.01-.01V2.55zm-.33-.35v-.04h.06l.01.01h.02l.02.01h.02l.02.01.01.01.02.01.02.01.01.01.02.01.01.01.01.01.02.01.01.02.01.01.01.02.01.01.01.02.01.01.01.02.01.02.01.01v.02l.01.02v.04l.01.02v.04h-.05V2.48l-.01-.02v-.02l-.01-.01v-.02l-.01-.01-.01-.02v-.01l-.01-.02-.01-.01-.01-.01-.01-.01-.01-.02-.02-.01-.01-.01-.01-.01-.01-.01-.02-.01-.01-.01h-.02l-.01-.01-.02-.01h-.01l-.02-.01h-.03l-.02-.01h-.03zM1.64.71h-.05V.69L1.6.68V.64l.01-.02V.6l.01-.02.01-.01V.55l.01-.02.01-.01.01-.02.01-.01.01-.02.02-.01.01-.02.01-.01.02-.01.01-.01.02-.01.01-.01.02-.01.01-.01.02-.01h.02l.02-.01h.02L1.9.34h.04l.02-.01h.02v.05h-.07L1.9.39h-.02L1.86.4h-.01l-.02.01-.01.01-.02.01h-.01l-.01.01-.02.01-.01.01-.01.02-.01.01-.01.01-.01.01-.01.02-.01.01-.01.01-.01.02v.01L1.66.6l-.01.01v.04l-.01.01v.05zm.33.35v.04h-.05l-.02-.01h-.02l-.02-.01h-.02l-.01-.01-.02-.01-.02-.01-.01-.01-.02-.01-.01-.01-.02-.01L1.72 1 1.7.99 1.69.97 1.68.96 1.67.95 1.66.93 1.65.91 1.64.9 1.63.88 1.62.86V.85L1.61.83V.81L1.6.79V.75L1.59.73V.71h.05V.78l.01.02v.02l.01.01v.02l.01.01.01.02.01.01v.02l.01.01.01.01.01.01.02.02.01.01.01.01.01.01.02.01.01.01.01.01h.02l.01.01.02.01h.01l.02.01h.03l.02.01h.03zm.35-.34h.04v.06L2.35.8v.02l-.01.02v.01l-.01.02-.01.02-.01.01-.01.02-.01.02-.01.01-.01.02-.01.01-.01.01-.02.01-.01.02-.01.01-.02.01-.02.01-.01.01-.02.01h-.02l-.01.01-.02.01h-.02l-.02.01h-.08v-.04h.06l.01-.01h.02l.02-.01h.01l.02-.01h.01l.02-.01.01-.01.02-.01.01-.01.01-.01.01-.01.02-.01.01-.01.01-.01.01-.02.01-.01.01-.01.01-.02V.87l.01-.02.01-.01V.82l.01-.01V.77l.01-.01V.72zM1.98.38V.33H2l.02.01h.04l.02.01h.02l.01.01.02.01h.02l.01.01.02.01.02.01.01.01.02.01.01.02.01.01.01.01.02.02.01.01.01.02.01.01.01.02.01.01v.02l.01.02.01.02v.02l.01.01v.08h-.04V.67L2.31.65V.64L2.3.62V.6L2.29.59V.57L2.28.56 2.27.54 2.26.53 2.25.52 2.24.5 2.23.49 2.22.48 2.21.47 2.2.46 2.18.45 2.17.44 2.16.43 2.14.42 2.13.41h-.02L2.1.4 2.08.39h-.03L2.03.38h-.05zm-.19 1.68h-.04v-.08l.01-.01v-.02l.01-.02.01-.02.01-.02v-.01l.01-.02.01-.01.01-.02.02-.01.01-.02.01-.01.01-.01.02-.01.01-.02.02-.01.01-.01h.02l.02-.01.01-.01L2 1.7h.02l.02-.01h.02l.01-.01h.06v.04h-.01l-.02.01h-.05l-.02.01h-.01L2 1.75l-.02.01h-.01l-.01.01-.02.01-.01.01-.01.01-.02.01-.01.01-.01.01-.01.02-.01.01-.01.01-.01.02-.01.01-.01.01v.02l-.01.01v.02l-.01.02v.01l-.01.02v.05zm.34.35v.04h-.04l-.02-.01h-.04l-.02-.01-.02-.01h-.01l-.02-.01-.02-.01-.01-.01-.02-.01-.01-.01-.02-.01-.01-.01-.01-.02-.02-.01-.01-.01-.01-.02-.01-.01-.01-.02-.01-.02-.01-.01-.01-.02v-.02l-.01-.01v-.02l-.01-.02v-.08h.04v.05l.01.02v.03l.01.02v.01l.01.02.01.01.01.02.01.01.01.02.01.01.01.01.01.01.01.01.01.02.01.01.02.01h.01l.01.01.02.01.01.01h.02l.02.01h.01l.02.01h.05l.02.01zm.34-.34h.04v.08l-.01.01v.02l-.01.02-.01.02-.01.01v.02l-.01.02-.01.01-.01.02-.02.01-.01.02-.01.01-.01.01-.02.01-.01.01-.02.02-.01.01h-.02l-.02.01-.01.01-.02.01h-.02l-.02.01H2.2l-.02.01h-.05v-.04l.01-.01H2.21l.02-.01h.01l.02-.01.01-.01h.02l.01-.01.02-.01.01-.01.01-.01.02-.01.01-.01.01-.01.01-.02.01-.01.01-.01.01-.02.01-.01.01-.01V2.2l.01-.02v-.01l.01-.02v-.01l.01-.02v-.05zm-.34-.35v-.04h.04l.02.01h.04l.02.01h.02l.01.01.02.01.02.01.01.01.02.01.01.01.02.01.01.01.01.02.02.01.01.01.01.02.01.01.01.02.01.01.01.02.01.02v.02l.01.01v.02l.01.02v.08h-.04v-.05L2.46 2v-.03l-.01-.02-.01-.01v-.02l-.01-.01-.01-.02-.01-.01-.01-.02-.01-.01-.01-.01-.01-.01-.01-.02-.01-.01-.01-.01-.02-.01h-.01l-.02-.01-.01-.01-.01-.01h-.02l-.02-.01h-.01l-.02-.01h-.03l-.02-.01h-.02zm.83.78h-.04v-.05l.01-.02v-.02l.01-.02v-.02l.01-.02.01-.01.01-.02v-.01l.02-.02.01-.01.01-.02.01-.01.01-.02.02-.01.01-.01.01-.01.02-.01.02-.01.01-.01.02-.01.02-.01h.01l.02-.01.02-.01h.06l.02-.01h.02l-.01.05H3.24l-.02.01H3.2l-.01.01h-.02l-.01.01-.02.01-.01.01h-.02l-.01.01-.01.01-.01.01-.02.01-.01.02-.01.01-.01.01-.01.01-.01.02-.01.01v.02l-.01.01-.01.02v.01l-.01.02v.03l-.01.02v.03zm.34.35v.04h-.06l-.02-.01H3.2l-.02-.01h-.01l-.02-.01-.02-.01-.01-.01-.02-.01-.02-.01-.01-.01-.02-.01-.01-.01-.01-.01-.02-.02L3 2.75l-.01-.02-.01-.01-.01-.02-.01-.01-.01-.02v-.02l-.01-.01-.01-.02V2.6l-.01-.02V2.5h.04v.06l.01.01v.02l.01.02v.01l.01.02v.01l.01.02.01.01.01.02.01.01.01.01.01.01.01.02.01.01.01.01.02.01.01.01.01.01.02.01h.01l.02.01.01.01h.02l.01.01h.04l.01.01h.04zm.34-.34h.05v.02l-.01.02v.04l-.01.02v.02l-.01.01-.01.02v.02l-.01.01-.01.02-.01.02-.01.01-.01.01-.02.02-.01.01-.01.01-.02.02-.01.01-.02.01-.01.01-.02.01-.02.01h-.01l-.02.01-.02.01h-.03l-.02.01H3.3v-.04h.03l.02-.01h.03l.02-.01h.02l.01-.01h.02l.01-.01.02-.01.01-.01.01-.01.02-.01.01-.01.01-.01.01-.01.01-.01.01-.02.01-.01.01-.01.01-.02.01-.01v-.02l.01-.01.01-.02v-.03l.01-.02v-.05zm-.34-.34l.01-.05h.01l.02.01h.04l.02.01h.02l.02.01.01.01h.02l.02.01.01.01.02.01.01.01.02.01.01.02.02.01.01.01.01.02.01.01.01.02.01.01.01.02.01.01.01.02v.02l.01.02v.02l.01.01v.04l.01.02v.02h-.05v-.07l-.01-.01v-.02l-.01-.02v-.01l-.01-.02-.01-.01-.01-.02v-.01l-.01-.01-.01-.02-.01-.01-.02-.01-.01-.01-.01-.01-.01-.01-.02-.01-.01-.01-.01-.01-.02-.01h-.01l-.02-.01-.01-.01h-.04l-.01-.01H3.3z"/></svg>