<svg xmlns="http://www.w3.org/2000/svg" width="98" height="70" fill-rule="evenodd" clip-rule="evenodd" image-rendering="optimizeQuality" shape-rendering="geometricPrecision" text-rendering="geometricPrecision" viewBox="0 0 99.99 71.85"><path fill="#99CFBA" d="M11.35.17c2.04 0 3.72 1.68 3.72 3.73v8.01c-2.8.09-5.38 1.1-7.45 2.74V3.9C7.62 1.85 9.3.17 11.35.17z"/><path fill="#2B2A29" fill-rule="nonzero" d="M11.35.17V0v.17zm3.89 3.73h-.34l-.01-.19-.01-.17-.02-.18-.03-.18-.04-.17-.05-.17-.06-.16-.06-.16-.07-.16-.08-.15-.09-.15-.09-.14-.1-.14-.11-.14-.11-.13-.12-.12-.12-.12-.13-.11-.13-.1-.14-.1-.15-.1-.14-.08-.16-.08-.16-.07-.16-.07-.16-.05-.17-.05-.17-.04-.18-.03-.17-.02-.18-.02h-.18V0h.2l.19.02.2.02.19.04.19.04.18.06.18.06.18.07.17.08.17.08.16.1.16.1.16.11.14.11.14.13.14.12.13.14.12.14.12.15.11.15.1.16.09.16.09.17.08.17.07.18.06.18.05.19.04.18.04.2.03.19.01.2v.2zm-.34 8.01V3.9h.34v8.01l-.16.17-.18-.17zm.34 0v.16l-.16.01.16-.17zm-7.79 2.74h.35l-.29-.14.2-.15.2-.15.21-.15.2-.14.21-.14.21-.13.22-.14.22-.12.22-.12.22-.12.23-.12.22-.1.23-.11.24-.1.23-.1.24-.09.24-.08.24-.09.24-.07.25-.08.25-.06.25-.07.25-.06.25-.05.26-.05.25-.04.26-.04.26-.03.26-.03.27-.02.26-.02.27-.01.01.35-.26.01-.26.02-.26.02-.25.02-.25.04-.25.03-.25.04-.25.05-.25.05-.24.06-.24.06-.25.07-.23.07-.24.07-.24.08-.23.09-.23.09-.23.09-.22.1-.23.1-.22.11-.22.11-.22.11-.21.12-.21.12-.21.13-.21.13-.2.14-.2.13-.2.15-.2.14-.19.15-.28-.13zm.28.13l-.28.22v-.35l.28.13zM7.8 3.9v10.75h-.35V3.9h.35zM11.35 0v.35h-.19l-.18.02-.17.02-.18.03-.17.04-.17.05-.16.05-.16.07-.16.07-.15.08-.15.08-.15.1-.13.1-.14.1-.13.11-.12.12-.12.12-.11.13-.11.14-.09.14-.1.14-.08.15-.08.15-.07.16-.07.16-.05.16-.05.17-.04.17-.03.18-.03.18-.01.17v.19h-.35v-.2l.02-.2.02-.19.04-.2.04-.18.05-.19.07-.18.07-.18.08-.17.08-.17.1-.16.1-.16.11-.15.11-.15.12-.14.13-.14.14-.12.14-.13.15-.11.15-.11.16-.1.16-.1.17-.08.17-.08.18-.07.18-.06.18-.06.19-.04.19-.04.2-.02.2-.02h.2z"/><path fill="#6FA691" d="M15.49 11.9h10.76c6.97 0 12.69 5.71 12.69 12.69v32.14c0 6.98-5.72 9.66-12.69 9.66H15.49c-6.98 0-12.7-2.68-12.7-9.66V24.59c0-6.98 5.72-12.69 12.7-12.69z"/><path fill="#2B2A29" fill-rule="nonzero" d="M26.25 12.07H15.49v-.34h10.76v.34zm12.86 12.52h-.35l-.01-.64-.05-.64-.08-.62-.11-.62-.14-.6-.17-.59-.2-.58-.23-.57-.25-.56-.27-.54-.31-.52-.32-.51-.35-.49-.37-.47-.4-.46-.41-.43-.44-.42-.45-.39-.48-.37-.49-.35-.51-.33-.52-.3-.54-.28-.56-.25-.56-.23-.58-.19-.6-.17-.6-.14-.62-.11-.62-.08-.63-.05-.64-.02v-.34l.65.01.65.05.65.08.63.12.62.14.61.18.6.2.58.23.57.26.55.28.54.31.52.34.51.36.49.38.46.41.45.42.43.45.4.47.39.48.35.51.34.52.31.54.28.55.26.57.23.59.21.59.17.61.15.62.11.64.08.64.05.65.02.66zm-.35 32.14V24.59h.35v32.14h-.35zm-12.51 9.83v-.35l.64-.01.64-.02.63-.04.62-.05.6-.08.6-.09.58-.1.57-.13.56-.14.54-.16.52-.18.51-.2.49-.22.47-.23.46-.25.43-.28.41-.29.4-.32.37-.33.34-.35.33-.38.3-.4.27-.42.25-.43.22-.47.2-.48.17-.52.14-.53.11-.56.08-.58.05-.61.01-.63h.35l-.02.65-.05.63-.08.6-.11.58-.15.55-.17.53-.21.51-.23.48-.26.47-.29.43-.31.42-.34.39-.36.37-.39.35-.41.32-.42.31-.46.28-.46.27-.49.24-.51.22-.52.2-.54.19-.55.16-.57.15-.58.12-.59.11-.61.09-.62.08-.63.06-.63.04-.65.02-.65.01zm-10.76-.35h10.76v.35H15.49v-.35zM2.62 56.73h.35l.01.63.05.61.08.58.11.56.14.53.17.52.2.48.22.47.25.43.27.42.3.4.33.38.34.35.37.33.4.32.41.29.43.28.46.25.47.23.49.22.51.2.52.18.54.16.56.14.57.13.58.1.6.09.6.08.62.05.63.04.64.02.65.01v.35l-.66-.01-.65-.02-.63-.04-.63-.06-.62-.08-.61-.09-.59-.11-.58-.12-.57-.15-.55-.16-.54-.19-.52-.2-.51-.22-.49-.24-.46-.27-.45-.28-.43-.31-.41-.32-.38-.35-.37-.37-.34-.39-.31-.42-.29-.43-.26-.47-.23-.48-.2-.51-.18-.53-.15-.55-.11-.58-.08-.6-.05-.63-.02-.65zm.35-32.14v32.14h-.35V24.59h.35zm12.52-12.86v.34l-.65.02-.63.05-.62.08-.62.11-.6.14-.6.17-.58.19-.56.23-.56.25-.54.28-.52.3-.51.33-.49.35-.47.37-.46.39-.44.42-.41.43-.39.46-.38.47-.35.49-.32.51-.3.53-.28.53-.25.56-.23.57-.2.58-.17.59-.14.6-.11.62-.08.62-.05.64-.01.64h-.35l.02-.66.05-.65.08-.64.11-.64.15-.62.17-.61.21-.59.23-.59.25-.57.29-.55.31-.54.34-.52.36-.51.38-.48.4-.47.43-.45.45-.42.47-.41.48-.38.51-.36.52-.34.54-.31.55-.28.57-.26.58-.23.6-.2.61-.18.62-.14.63-.12.65-.08.65-.05.66-.01z"/><path fill="#D8ECE4" d="M13.28 17.97h15.17c3.72 0 6.76 3.04 6.76 6.76v13.1c0 3.72-3.04 6.76-6.76 6.76H13.28c-3.72 0-6.76-3.04-6.76-6.76v-13.1c0-3.72 3.04-6.76 6.76-6.76z"/><path fill="#2B2A29" fill-rule="nonzero" d="M28.45 18.14H13.28v-.35h15.17v.35zm6.93 6.59h-.34l-.01-.34-.03-.33-.04-.33-.06-.33-.07-.31-.09-.32-.1-.3-.12-.3-.13-.29-.15-.29-.16-.27-.17-.27-.19-.26-.19-.25-.21-.24-.22-.23-.23-.21-.24-.21-.24-.2-.26-.18-.27-.17-.28-.16-.28-.15-.29-.13-.3-.12-.31-.1-.31-.09-.32-.08-.32-.05-.33-.04-.33-.03-.34-.01v-.35l.36.01.35.03.34.04.34.07.34.07.33.1.32.11.31.12.31.14.3.15.29.17.28.18.27.19.27.21.25.22.24.23.23.24.22.25.2.26.2.28.18.28.16.29.16.3.14.3.12.32.11.32.09.33.08.33.06.34.05.35.03.35v.36zm-.34 13.1v-13.1h.34v13.1h-.34zm-6.59 6.93v-.34l.34-.01.33-.03.33-.04.32-.06.32-.07.31-.09.31-.1.3-.12.29-.14.28-.14.28-.16.27-.17.26-.19.24-.19.24-.21.23-.22.22-.23.21-.24.19-.25.19-.25.17-.27.16-.28.15-.28.13-.29.12-.3.1-.31.09-.31.07-.32.06-.32.04-.33.03-.33.01-.34h.34v.36l-.03.35-.05.34-.06.34-.08.34-.09.33-.11.32-.12.31-.14.31-.16.3-.16.29-.18.28-.2.27-.2.26-.22.26-.23.24-.24.23-.25.22-.27.2-.27.2-.28.18-.29.16-.3.16-.31.14-.31.12-.32.11-.33.09-.34.08-.34.06-.34.05-.35.02-.36.01zm-15.17-.34h15.17v.34H13.28v-.34zm-6.93-6.59h.34l.01.34.03.33.04.33.06.32.07.32.09.31.1.31.12.3.13.29.15.28.16.28.17.27.18.25.2.25.21.24.22.23.23.22.23.21.25.19.26.19.27.17.28.16.28.14.29.14.3.12.3.1.32.09.32.07.32.06.33.04.33.03.34.01v.34l-.36-.01-.35-.02-.35-.05-.34-.06-.33-.08-.33-.09-.32-.11-.31-.12-.31-.14-.3-.16-.29-.16-.28-.18-.27-.2-.27-.2-.25-.22-.24-.23-.23-.24-.22-.26-.2-.26-.2-.27-.18-.28-.16-.29-.16-.3-.14-.31-.12-.31-.11-.32-.1-.33-.07-.34-.06-.34-.05-.34-.03-.35v-.36zm.34-13.1v13.1h-.34v-13.1h.34zm6.59-6.94v.35l-.34.01-.33.03-.33.04-.32.05-.32.08-.32.09-.3.1-.3.12-.29.13-.28.15-.28.16-.27.17-.26.18-.25.2-.23.21-.23.21-.22.23-.21.24-.2.25-.18.26-.17.27-.16.27-.15.29-.13.29-.12.3-.1.3-.09.32-.07.31-.06.33-.04.33-.03.33-.01.34h-.34v-.36l.03-.35.05-.35.06-.34.07-.33.1-.33.11-.32.12-.32.14-.3.16-.3.16-.29.18-.28.2-.28.2-.26.22-.25.23-.24.24-.23.25-.22.27-.21.27-.19.28-.18.29-.17.3-.15.31-.14.31-.12.32-.11.33-.1.33-.07.34-.07.35-.04.35-.03.36-.01z"/><path fill="#F08BB2" d="M13.14 48.59c1.6 0 2.9 1.3 2.9 2.9 0 1.6-1.3 2.89-2.9 2.89-1.6 0-2.9-1.29-2.9-2.89s1.3-2.9 2.9-2.9z"/><path fill="#2B2A29" fill-rule="nonzero" d="M16.21 51.49h-.35v-.14l-.01-.14-.02-.14-.02-.13-.03-.13-.04-.13-.04-.13-.05-.12-.05-.12-.06-.12-.07-.11-.07-.11-.08-.11-.08-.11-.08-.09-.09-.1-.1-.09-.1-.08-.1-.08-.11-.08-.11-.07-.11-.07-.12-.06-.12-.05-.12-.05-.13-.04-.13-.04-.13-.03-.14-.02-.13-.02-.14-.01-.14-.01v-.34h.16l.15.01.16.02.15.03.15.03.14.05.15.04.13.06.14.06.13.07.13.07.13.08.12.09.11.09.11.1.11.1.1.1.1.11.09.12.09.12.08.13.07.12.07.14.06.13.06.14.04.14.04.15.04.15.03.15.02.15.01.16v.16zm-3.07 3.07v-.35h.14l.14-.01.13-.02.14-.02.13-.03.13-.04.13-.04.12-.05.12-.06.12-.06.11-.06.11-.07.11-.08.1-.08.1-.09.1-.09.09-.09.08-.1.08-.1.08-.11.07-.11.07-.11.06-.12.05-.12.05-.13.04-.12.04-.13.03-.13.02-.14.02-.13.01-.14v-.14h.35v.15l-.01.16-.02.16-.03.15-.04.15-.04.14-.04.14-.06.14-.06.14-.07.13-.07.13-.08.12-.09.13-.09.11-.1.11-.1.11-.11.1-.11.1-.11.09-.12.08-.13.08-.13.08-.13.06-.14.07-.13.05-.15.05-.14.04-.15.03-.15.03-.16.02-.15.01-.16.01zm-3.07-3.07h.35v.14l.01.14.02.13.02.14.03.13.04.13.04.12.05.13.05.12.07.12.06.11.07.11.08.11.08.1.08.1.09.09.1.09.1.09.1.08.11.08.11.07.11.06.12.06.12.06.12.05.13.04.13.04.13.03.13.02.14.02.14.01h.14v.35l-.16-.01-.15-.01-.16-.02-.15-.03-.15-.03-.14-.04-.15-.05-.14-.05-.13-.07-.13-.06-.13-.08-.13-.08-.12-.08-.11-.09-.12-.1-.1-.1-.1-.11-.1-.11-.09-.11-.09-.13-.08-.12-.07-.13-.07-.13-.06-.14-.05-.14-.05-.14-.04-.14-.04-.15-.02-.15-.03-.16-.01-.16v-.15zm3.07-3.07v.34l-.14.01-.14.01-.14.02-.13.02-.13.03-.13.04-.13.04-.12.05-.12.05-.12.06-.11.07-.11.07-.11.08-.1.08-.1.08-.1.09-.09.1-.08.09-.08.11-.08.11-.07.11-.06.11-.07.12-.05.12-.05.12-.04.13-.04.13-.03.13-.02.13-.02.14-.01.14v.14h-.35v-.16l.01-.16.03-.15.02-.15.04-.15.04-.15.05-.14.05-.14.06-.13.07-.14.08-.12.07-.13.09-.12.09-.12.1-.11.1-.1.11-.1.11-.1.11-.09.12-.09.13-.08.13-.07.13-.07.13-.06.14-.06.15-.04.14-.05.15-.03.15-.03.16-.02.15-.01h.16z"/><path fill="#99CFBA" d="M2.41 59.1h36.9c1.24 0 2.25 1.01 2.25 2.24v6.94c0 1.24-1.01 2.24-2.25 2.24H2.41c-1.23 0-2.24-1-2.24-2.24v-6.94c0-1.23 1.01-2.24 2.24-2.24z"/><path fill="#2B2A29" fill-rule="nonzero" d="M39.31 59.27H2.41v-.34h36.9v.34zm2.42 2.07h-.35v-.1l-.01-.11-.01-.1-.02-.1-.02-.1-.03-.1-.03-.1-.04-.09-.04-.09-.05-.09-.05-.09-.05-.08-.06-.08-.06-.08-.07-.08-.06-.07-.08-.07-.07-.06-.08-.07-.08-.05-.09-.06-.08-.05-.09-.04-.09-.04-.1-.04-.09-.03-.1-.03-.1-.03-.1-.01-.1-.02-.11-.01h-.11v-.34h.13l.12.01.12.01.12.03.11.02.12.03.11.04.11.05.11.04.1.06.1.06.1.06.1.07.09.07.09.08.08.07.08.09.08.09.07.09.06.09.07.1.06.1.05.11.05.1.04.11.04.11.03.12.03.11.02.12.02.12v.13l.01.12zm-.35 6.94v-6.94h.35v6.94h-.35zm-2.07 2.42v-.35h.11l.11-.01.1-.01.1-.02.1-.03.1-.02.09-.04.1-.03.09-.04.09-.05.08-.05.09-.05.08-.06.08-.06.07-.07.08-.07.06-.07.07-.07.06-.08.06-.08.05-.09.05-.08.05-.09.04-.09.04-.1.03-.09.03-.1.02-.1.02-.1.01-.11.01-.1v-.11h.35l-.01.13v.12l-.02.12-.02.12-.03.11-.03.12-.04.11-.04.11-.05.11-.05.1-.06.1-.07.1-.06.1-.07.09-.08.09-.08.08-.08.08-.09.08-.09.07-.1.06-.1.07-.1.06-.1.05-.11.05-.11.04-.11.04-.12.03-.11.03-.12.02-.12.02h-.12l-.13.01zm-36.9-.35h36.9v.35H2.41v-.35zM0 68.28h.35v.11l.01.1.01.11.02.1.02.1.03.1.03.09.04.1.04.09.05.09.05.08.05.09.06.08.06.08.06.07.07.07.07.07.08.07.08.06.08.06.08.05.09.05.09.05.09.04.09.03.1.04.1.02.1.03.1.02.1.01.11.01h.1v.35l-.12-.01h-.12l-.12-.02-.12-.02-.12-.03-.11-.03-.11-.04-.11-.04-.11-.05-.1-.05-.1-.06-.1-.07-.1-.06-.09-.07-.09-.08-.08-.08-.08-.08-.08-.09-.07-.09-.07-.1-.06-.1-.06-.1-.05-.1-.05-.11-.04-.11L.11 69l-.03-.12-.03-.11-.02-.12-.02-.12-.01-.12v-.13zm.35-6.94v6.94H0v-6.94h.35zm2.06-2.41v.34h-.1l-.11.01-.1.02-.1.01-.1.03-.1.03-.1.03-.09.04-.09.04-.09.04-.09.05-.08.06-.08.05-.08.07-.08.06-.07.07-.07.07-.06.08-.06.08-.06.08-.05.08-.05.09-.05.09-.04.09-.04.09-.03.1-.03.1-.02.1-.02.1-.01.1-.01.11v.1H0v-.12l.01-.13.02-.12.02-.12.03-.11.03-.12.04-.11.04-.11.05-.1.05-.11.06-.1.06-.1.07-.09.07-.09.08-.09.08-.09.08-.07.09-.08.09-.07.1-.07.1-.06.1-.06.1-.06.11-.04.11-.05.11-.04.11-.03.12-.02.12-.03.12-.01.12-.01h.12zM17.78 32.2c-.39-.05-.68-.4-.64-.8.05-.39.4-.68.8-.64 1.34.15 2.52.66 3.36 1.53.77.81 1.22 1.92 1.21 3.32 0 .4-.33.72-.73.71-.39 0-.71-.32-.71-.72.01-1-.3-1.76-.82-2.31-.59-.62-1.46-.98-2.47-1.09z"/><path fill="#2B2A29" fill-rule="nonzero" d="M17.94 28.44c-.4-.04-.68-.4-.64-.79.05-.4.4-.69.8-.64 2.23.25 4.2 1.09 5.58 2.53 1.26 1.33 2.01 3.14 1.99 5.47 0 .39-.33.71-.72.71-.4 0-.72-.33-.72-.73.02-1.91-.58-3.39-1.59-4.45-1.14-1.19-2.8-1.88-4.7-2.1z"/><path fill="#2B2A29" fill-rule="nonzero" d="M17.79 24.84c-.39-.04-.68-.4-.63-.79.04-.4.4-.68.79-.64 3.3.37 6.2 1.6 8.23 3.73 1.84 1.94 2.94 4.6 2.91 8.01 0 .4-.33.72-.73.71-.39 0-.71-.32-.71-.72.03-3.01-.92-5.33-2.52-7.01-1.77-1.87-4.37-2.95-7.34-3.29z"/><path fill="#99CFBA" d="M69.61 1.33c2.05 0 3.73 1.67 3.73 3.72v8.01c-2.81.09-5.39 1.1-7.45 2.74V5.05c0-2.05 1.67-3.72 3.72-3.72z"/><path fill="#2B2A29" fill-rule="nonzero" d="M69.61 1.33v-.18.18zm3.9 3.72h-.35v-.18l-.02-.18-.02-.18-.03-.17-.04-.17L73 4l-.05-.17-.07-.16-.07-.16-.08-.15-.08-.15-.1-.14-.1-.14-.1-.14-.11-.12-.12-.13-.12-.12-.13-.11-.14-.1-.14-.1-.14-.1-.15-.08-.15-.08-.16-.07-.16-.06-.17-.06-.16-.05-.18-.04-.17-.03-.18-.02-.18-.02h-.18v-.35l.2.01.2.01.19.03.19.03.19.05.19.05.18.06.17.07.18.08.16.08.17.1.16.1.15.11.15.11.14.13.13.13.13.13.13.14.11.15.11.15.1.16.1.17.08.16.08.18.07.17.06.18.06.19.04.19.03.19.03.19.01.2.01.2zm-.35 8.01V5.05h.35v8.01l-.17.17-.18-.17zm.35 0v.17h-.17l.17-.17zm-7.8 2.74h.35l-.28-.14.2-.15.2-.15.2-.15.21-.14.21-.14.21-.13.21-.13.22-.13.22-.12.22-.12.23-.11.23-.11.23-.11.23-.1.24-.09.23-.09.24-.09.24-.08.25-.08.24-.07.25-.07.25-.06.25-.06.26-.06.25-.04.26-.05.25-.03.27-.04.26-.02.26-.03.26-.01.27-.01.01.34-.26.01-.25.02-.26.02-.26.03-.25.03-.25.04-.25.04-.25.05-.24.05-.25.05-.24.06-.24.07-.24.07-.24.08-.23.08-.24.08-.23.09-.22.09-.23.1-.23.1-.22.11-.22.11-.21.11-.22.12-.21.13-.21.12-.2.13-.21.14-.2.14-.2.14-.19.15-.2.14-.28-.13zm.28.13l-.28.23v-.36l.28.13zm.07-10.88V15.8h-.35V5.05h.35zm3.55-3.9v.35h-.18l-.18.02-.18.02-.17.03-.17.04-.17.05-.17.06-.16.06-.15.07-.16.08-.15.08-.14.1-.14.1-.13.1-.13.11-.13.12-.11.13-.12.12-.1.14-.1.14-.09.14-.09.15-.08.15-.07.16-.06.16-.06.17-.05.17-.04.17-.03.17-.02.18-.02.18v.18h-.35l.01-.2.01-.2.03-.19.03-.19.05-.19.05-.19.06-.18.07-.17.08-.18.09-.16.09-.17.1-.16.11-.15.12-.15.12-.14.13-.13.13-.13.15-.13.14-.11.16-.11.15-.1.17-.1.17-.08.17-.08.17-.07.18-.06.19-.05.19-.05.19-.03.19-.03.2-.01.2-.01z"/><path fill="#F08BB2" d="M73.75 13.05h10.76c6.98 0 12.69 5.71 12.69 12.69v32.14c0 6.98-5.71 9.66-12.69 9.66H73.75c-6.98 0-12.69-2.68-12.69-9.66V25.74c0-6.98 5.71-12.69 12.69-12.69z"/><path fill="#2B2A29" fill-rule="nonzero" d="M84.51 13.22H73.75v-.34h10.76v.34zm12.86 12.52h-.34l-.02-.64-.05-.63-.08-.63-.11-.61-.14-.61-.17-.59-.2-.58-.22-.57-.25-.55-.28-.54-.3-.52-.33-.51-.35-.49-.37-.48-.4-.45-.41-.44-.44-.41-.45-.4-.48-.37-.49-.35-.51-.33-.52-.3-.54-.28-.55-.25-.57-.22-.58-.2-.59-.17-.61-.14-.61-.11-.63-.08-.63-.05-.64-.02v-.34l.66.02.65.04.64.09.63.11.62.14.61.18.6.2.58.23.57.26.56.29.54.31.52.33.5.36.49.38.47.41.44.43.43.44.41.47.38.49.36.5.33.52.31.54.29.56.26.57.23.58.2.6.18.61.14.62.11.63.09.64.05.65.01.66zm-.34 32.14V25.74h.34v32.14h-.34zm-12.52 9.83v-.34l.65-.01.63-.03.63-.04.62-.05.61-.07.59-.09.59-.11.57-.13.55-.14.54-.16.53-.18.5-.2.49-.21.48-.24.45-.25.43-.28.42-.29.39-.31.37-.34.35-.35.32-.38.3-.39.28-.42.24-.44.23-.47.19-.48.17-.51.14-.54.11-.55.08-.59.05-.6.02-.64h.34l-.01.65-.05.63-.09.6-.11.58-.15.56-.17.53-.21.5-.23.49-.26.46-.29.44-.31.41-.34.39-.36.37-.39.35-.4.33-.43.3-.45.29-.47.26-.49.24-.5.22-.53.21-.53.18-.56.16-.56.15-.59.13-.59.11-.61.09-.61.07-.63.06-.64.04-.65.02-.65.01zm-10.76-.34h10.76v.34H73.75v-.34zm-12.86-9.49h.34l.02.64.05.6.08.59.11.55.14.54.17.51.19.48.22.47.25.44.28.42.3.39.32.38.35.35.37.34.39.31.41.29.44.28.45.25.47.24.49.21.51.2.53.18.54.16.55.14.57.13.59.11.59.09.61.07.62.05.63.04.63.03.65.01v.34l-.65-.01-.65-.02-.64-.04-.63-.06-.61-.07-.61-.09-.6-.11-.58-.13-.57-.15-.55-.16-.54-.18-.52-.21-.5-.22-.49-.24-.47-.26-.45-.29-.43-.3-.41-.33-.38-.35-.36-.37-.34-.39-.31-.41-.29-.44-.26-.46-.24-.49-.2-.5-.17-.53-.15-.56-.12-.58-.08-.6-.05-.63-.01-.65zm.34-32.14v32.14h-.34V25.74h.34zm12.52-12.86v.34l-.64.02-.64.05-.62.08-.61.11-.61.14-.59.17-.58.2-.57.22-.55.25-.54.28-.53.3-.51.33-.49.35-.47.37-.46.4-.43.41-.42.44-.39.45-.37.48-.35.49-.33.51-.3.52-.28.54-.25.55-.23.57-.19.58-.17.59-.14.61-.11.61-.08.63-.05.63-.02.64h-.34l.01-.66.05-.65.08-.64.12-.63.14-.62.18-.61.2-.6.23-.58.26-.57.28-.56.32-.54.33-.52.36-.5.38-.49.41-.47.42-.44.45-.43.47-.41.49-.38.5-.36.52-.33.54-.31.56-.29.56-.26.59-.23.6-.2.6-.18.63-.14.63-.11.64-.09.65-.04.66-.02z"/><path fill="#D8ECE4" d="M71.54 19.12h15.18c3.71 0 6.75 3.04 6.75 6.76v13.1c0 3.72-3.04 6.76-6.75 6.76H71.54c-3.72 0-6.76-3.04-6.76-6.76v-13.1c0-3.72 3.04-6.76 6.76-6.76z"/><path fill="#2B2A29" fill-rule="nonzero" d="M86.72 19.29H71.54v-.34h15.18v.34zm6.93 6.59h-.35l-.01-.34-.02-.33-.05-.33-.05-.32-.08-.32-.09-.31-.1-.31-.12-.3-.13-.29-.15-.28-.16-.28-.17-.27-.18-.25-.2-.25-.2-.24-.22-.23-.23-.22-.24-.21-.25-.19-.26-.19-.27-.17-.27-.16-.28-.14-.3-.14-.3-.12-.3-.1-.31-.09-.32-.07-.32-.06-.33-.04-.34-.03-.33-.01v-.34l.35.01.35.02.35.05.34.06.33.08.33.09.33.11.31.12.31.14.29.16.29.16.29.18.27.2.26.2.25.22.24.23.23.24.22.26.21.26.19.27.18.28.17.29.15.3.14.31.13.31.11.32.09.33.08.34.06.34.04.34.03.35.01.36zm-.35 13.1v-13.1h.35v13.1h-.35zm-6.58 6.94v-.35l.33-.01.34-.03.33-.04.32-.05.32-.08.31-.09.3-.1.3-.12.3-.13.28-.15.27-.16.27-.17.26-.18.25-.2.24-.21.23-.21.22-.23.2-.24.2-.25.18-.26.17-.27.16-.27.15-.29.13-.29.12-.3.1-.3.09-.31.08-.32.05-.33.05-.33.02-.33.01-.34h.35l-.01.36-.03.35-.04.35-.06.34-.08.33-.09.33-.11.32-.13.32-.14.3-.15.3-.17.29-.18.28-.19.28-.21.26-.22.25-.23.24-.24.23-.25.22-.26.21-.27.19-.29.18-.29.17-.29.15-.31.14-.31.12-.33.11-.33.1-.33.07-.34.07-.35.04-.35.03-.35.01zm-15.18-.35h15.18v.35H71.54v-.35zm-6.93-6.59h.35v.34l.03.33.04.33.06.33.08.32.08.31.11.3.12.3.13.29.14.29.16.27.18.27.18.26.19.25.21.24.22.23.23.21.24.21.25.2.26.18.26.17.28.16.28.15.3.13.29.12.31.1.31.09.32.08.32.05.33.04.33.03.34.01v.35l-.35-.01-.35-.03-.35-.04-.34-.07-.34-.07-.33-.1-.32-.11-.31-.12-.31-.14-.3-.15-.29-.17-.28-.18-.27-.19-.26-.21-.25-.22-.24-.23-.23-.24-.22-.25-.21-.26-.19-.28-.18-.28-.17-.29-.15-.3-.14-.3-.13-.32-.11-.32-.09-.33-.08-.33-.06-.34-.04-.35-.03-.35-.01-.36zm.35-13.1v13.1h-.35v-13.1h.35zm6.58-6.93v.34l-.34.01-.33.03-.33.04-.32.06-.32.07-.31.09-.31.1-.29.12-.3.14-.28.14-.28.16-.26.17-.26.19-.25.19-.24.21-.23.22-.22.23-.21.24-.19.25-.18.25-.18.27-.16.28-.14.28-.13.29-.12.3-.11.31-.08.31-.08.32-.06.32-.04.33-.03.33v.34h-.35l.01-.36.03-.35.04-.34.06-.34.08-.34.09-.33.11-.32.13-.31.14-.31.15-.3.17-.29.18-.28.19-.27.21-.26.22-.26.23-.24.24-.23.25-.22.26-.2.27-.2.28-.18.29-.16.3-.16.31-.14.31-.12.32-.11.33-.09.34-.08.34-.06.35-.05.35-.02.35-.01z"/><path fill="#F5B2B6" d="M71.4 49.74c1.6 0 2.9 1.3 2.9 2.9 0 1.6-1.3 2.9-2.9 2.9-1.6 0-2.89-1.3-2.89-2.9 0-1.6 1.29-2.9 2.89-2.9z"/><path fill="#2B2A29" fill-rule="nonzero" d="M74.47 52.64h-.34l-.01-.14-.01-.14-.01-.13-.03-.14-.03-.13-.03-.13-.05-.13-.05-.12-.05-.12-.06-.12-.07-.11-.07-.11-.07-.11-.08-.1-.09-.1-.09-.09-.09-.1-.1-.08-.11-.08-.1-.08-.11-.07-.12-.06-.12-.06-.12-.06-.12-.05-.13-.04-.12-.04-.14-.03-.13-.02-.14-.02-.14-.01h-.14v-.35h.16l.16.02.15.02.15.02.15.04.15.04.14.05.14.05.13.06.14.07.13.08.12.07.12.09.12.09.11.1.11.1.1.11.09.11.09.11.09.12.08.13.07.13.07.13.06.14.06.14.05.14.04.14.03.15.03.15.02.16.01.15v.16zm-3.07 3.07v-.35h.14l.14-.01.14-.02.13-.02.14-.03.12-.04.13-.04.12-.05.12-.05.12-.06.12-.07.11-.07.1-.08.11-.08.09-.08.1-.09.09-.1.09-.1.08-.1.07-.11.07-.11.07-.11.06-.12.05-.12.05-.12.05-.13.03-.13.03-.13.03-.13.01-.14.01-.14.01-.14h.34v.16l-.01.16-.02.15-.03.15-.03.15-.04.14-.05.15-.06.14-.06.13-.07.13-.07.13-.08.13-.09.12-.09.11-.09.11-.1.11-.11.1-.11.1-.12.09-.12.09-.12.08-.13.07-.14.07-.13.06-.14.06-.14.04-.15.04-.15.04-.15.03-.15.02-.16.01h-.16zm-3.07-3.07h.35v.14l.01.14.02.14.03.13.03.13.03.13.05.13.04.12.06.12.06.12.07.11.07.11.07.11.08.1.09.1.09.1.09.09.1.08.1.08.11.08.11.07.12.07.11.06.12.05.13.05.12.04.13.04.13.03.14.02.14.02.13.01h.14v.35h-.15l-.16-.01-.15-.02-.15-.03-.15-.04-.15-.04-.14-.04-.14-.06-.14-.06-.13-.07-.13-.07-.12-.08-.12-.09-.12-.09-.11-.1-.11-.1-.1-.11-.1-.11-.09-.11-.08-.12-.08-.13-.08-.13-.06-.13-.06-.13-.06-.14-.05-.15-.04-.14-.03-.15-.03-.15-.02-.15-.01-.16-.01-.16zm3.07-3.07v.35h-.14l-.13.01-.14.02-.14.02-.13.03-.13.04-.12.04-.13.05-.12.06-.11.06-.12.06-.11.07-.1.08-.11.08-.1.08-.09.09-.09.1-.09.1-.08.1-.07.11-.08.11-.06.11-.06.12-.06.12-.04.12-.05.13-.03.13-.03.13-.03.14-.02.13-.01.14v.14h-.35l.01-.16.01-.15.02-.16.03-.15.03-.15.04-.14.05-.14.06-.14.06-.14.06-.13.08-.13.08-.13.08-.12.09-.11.1-.11.1-.11.11-.1.11-.1.12-.09.12-.09.12-.07.13-.08.13-.07.14-.06.14-.05.14-.05.15-.04.15-.04.15-.02.15-.02.16-.02h.15z"/><path fill="#99CFBA" d="M60.68 60.25h36.9c1.23 0 2.24 1.01 2.24 2.24v6.95c0 1.23-1.01 2.24-2.24 2.24h-36.9c-1.23 0-2.24-1.01-2.24-2.24v-6.95c0-1.23 1.01-2.24 2.24-2.24z"/><path fill="#2B2A29" fill-rule="nonzero" d="M97.58 60.43h-36.9v-.35h36.9v.35zm2.41 2.06h-.34v-.1l-.01-.11-.02-.1-.01-.1-.03-.1-.03-.1-.03-.1-.04-.09-.04-.09-.04-.09-.05-.09-.06-.08-.05-.08-.07-.08-.06-.07-.07-.08-.07-.07-.08-.06-.08-.06-.08-.06-.08-.05-.09-.05-.09-.05-.09-.04-.09-.04-.1-.03-.1-.03-.1-.02-.1-.02-.1-.01-.11-.01h-.1v-.35h.12l.12.01.12.02.12.02.12.03.11.03.12.04.11.04.1.05.11.05.1.06.1.06.09.07.09.07.09.08.08.08.08.08.08.09.07.09.07.1.06.09.06.1.05.11.05.11.05.11.03.11.04.11.02.12.02.12.02.12.01.12v.12zm-.34 6.95v-6.95h.34v6.95h-.34zm-2.07 2.41v-.35h.1l.11-.01.1-.01.1-.02.1-.02.1-.03.1-.03.09-.04.09-.04.09-.05.09-.05.08-.05.08-.06.08-.06.08-.07.07-.06.07-.08.06-.07.07-.08.05-.08.06-.09.05-.08.04-.09.04-.09.04-.09.03-.1.03-.1.03-.1.01-.1.02-.1.01-.11v-.1h.34v.12l-.01.12-.02.12-.02.12-.02.12-.04.11-.03.11-.05.11-.05.11-.05.11-.06.1-.06.09-.07.1-.07.09-.08.09-.08.08-.08.08-.09.08-.09.07-.09.07-.1.06-.1.06-.11.05-.1.05-.11.04-.12.04-.11.03-.12.03-.12.02-.12.02-.12.01h-.12zm-36.9-.35h36.9v.35h-36.9v-.35zm-2.42-2.06h.35v.1l.01.11.01.1.02.1.03.1.02.1.04.1.03.09.04.09.05.09.05.08.05.09.06.08.06.08.07.07.07.08.07.06.07.07.08.06.08.06.09.05.08.05.09.05.09.04.1.04.09.03.1.03.1.02.1.02.11.01.1.01h.11v.35h-.12l-.13-.01-.12-.02-.12-.02-.11-.03-.12-.03-.11-.04-.11-.04-.11-.05-.1-.05-.1-.06-.1-.06-.09-.07-.09-.07-.09-.08-.09-.08-.08-.08-.07-.09-.07-.09-.07-.1-.06-.09-.06-.1-.06-.11-.04-.11-.05-.11-.04-.11-.03-.11-.02-.12-.03-.12-.01-.12-.01-.12-.01-.12zm.35-6.95v6.95h-.35v-6.95h.35zm2.07-2.41v.35h-.11l-.1.01-.11.01-.1.02-.1.02-.1.03-.09.03-.1.04-.09.04-.09.05-.08.05-.09.05-.08.06-.08.06-.07.06-.07.07-.07.08-.07.07-.06.08-.06.08-.05.08-.05.09-.05.09-.04.09-.03.09-.04.1-.02.1-.03.1-.02.1-.01.1-.01.11v.1h-.35l.01-.12.01-.12.01-.12.03-.12.02-.12.03-.11.04-.11.05-.11.04-.11.06-.11.06-.1.06-.09.07-.1.07-.09.07-.09.08-.08.09-.08.09-.08.09-.07.09-.07.1-.06.1-.06.1-.05.11-.05.11-.04.11-.04.12-.03.11-.03.12-.02.12-.02.13-.01h.12zM87.72 32.43h-.35l-.01-.4-.03-.41-.06-.39-.07-.39-.09-.38-.11-.38-.13-.37-.15-.36-.16-.35-.18-.34-.2-.33-.22-.32-.22-.31-.25-.3-.26-.29-.27-.27-.29-.26-.3-.25-.31-.24-.32-.22-.34-.2-.34-.2-.36-.17-.36-.16-.37-.14-.39-.13-.39-.1-.4-.09-.41-.07-.41-.05-.42-.03-.42-.01v-.35l.44.01.44.03.43.06.42.07.41.09.41.11.4.13.39.15.38.16.37.19.36.2.35.21.34.23.32.25.31.26.3.27.28.29.27.3.26.31.24.32.22.34.21.34.19.36.17.36.15.38.14.38.11.4.1.4.08.4.05.42.03.42.02.42zm-8.59 8.26v-.34l.42-.01.42-.04.41-.05.41-.07.4-.08.39-.11.39-.12.37-.15.36-.15.36-.18.34-.19.34-.21.32-.22.31-.23.3-.25.29-.26.27-.28.26-.29.25-.3.22-.31.22-.32.2-.33.18-.34.16-.35.15-.36.13-.37.11-.37.09-.38.07-.39.06-.4.03-.4.01-.41h.35l-.02.43-.03.42-.05.41-.08.41-.1.4-.11.39-.14.38-.15.38-.17.37-.19.35-.21.35-.22.33-.24.33-.26.31-.27.3-.28.29-.3.27-.31.26-.33.24-.33.23-.35.22-.36.2-.37.18-.38.17-.39.14-.4.13-.41.11-.41.1-.42.07-.43.05-.44.03-.44.01zm-8.59-8.26h.35l.01.41.03.4.05.4.08.39.09.38.11.37.13.37.14.36.17.35.18.34.2.33.21.32.23.31.25.3.26.29.27.28.29.26.29.25.32.23.32.22.33.21.35.19.35.18.37.15.37.15.39.12.39.11.4.08.4.07.42.05.41.04.43.01v.34l-.44-.01-.44-.03-.43-.05-.42-.07-.41-.1-.41-.11-.4-.13-.39-.14-.38-.17-.37-.18-.36-.2-.35-.22-.34-.23-.32-.24-.31-.26-.3-.27-.29-.29-.27-.3-.25-.31-.24-.33-.22-.33-.21-.35-.19-.35-.17-.37-.16-.38-.13-.38-.12-.39-.09-.4-.08-.41-.05-.41-.04-.42-.01-.43zm8.59-8.26v.35l-.43.01-.41.03-.42.05-.4.07-.4.09-.39.1-.39.13-.37.14-.37.16-.35.17-.35.2-.33.2-.32.22-.32.24-.29.25-.29.26-.27.27-.26.29-.25.3-.23.31-.21.32-.2.33-.18.34-.17.35-.14.36-.13.37-.11.38-.09.38-.08.39-.05.39-.03.41-.01.4h-.35l.01-.42.04-.42.05-.42.08-.4.09-.4.12-.4.13-.38.16-.38.17-.36.19-.36.21-.34.22-.34.24-.32.25-.31.27-.3.29-.29.3-.27.31-.26.32-.25.34-.23.35-.21.36-.2.37-.19.38-.16.39-.15.4-.13.41-.11.41-.09.42-.07.43-.06.44-.03.44-.01z"/><path fill="#2B2A29" fill-rule="nonzero" d="M71.55 29.33l-.32-.14.14.24h-.01.01-.04.02-.04.01-.05.02H71.23v-.35h.09-.02.05l.01.01-.02-.01h.01l.02.01h.01-.02.04l.15.24zm-.15-.24l.25.02-.1.22-.15-.24zm-.51 3.34h-.35V32.22l.01-.11V32l.01-.1.01-.11.01-.1.01-.11.01-.1.01-.11.02-.1.01-.11.02-.1.02-.1.02-.11.02-.1.02-.1.03-.1.02-.1.03-.1.02-.1.03-.1.03-.1.04-.1.03-.09.03-.1.04-.1.03-.09.04-.1.04-.09.04-.1.04-.09.32.14-.04.09-.04.09-.04.09-.03.09-.04.09-.03.1-.03.09-.04.09-.03.1-.02.09-.03.09-.03.1-.02.1-.03.09-.02.1-.02.1-.02.09-.02.1-.02.1-.01.1-.02.1-.01.1-.02.1-.01.1-.01.1-.01.1v.1l-.01.1-.01.1V32.43zm-.1 1.43l.06-.34-.2.2-.01-.04-.01-.04v-.04l-.01-.04v-.04l-.01-.04v-.04l-.01-.04v-.04l-.01-.04v-.04l-.01-.04v-.08l-.01-.04v-.04l-.01-.04v-.12l-.01-.04v-.2l-.01-.04v-.21h.35V32.74l.01.04v.12l.01.04v.11l.01.04v.08l.01.04v.04l.01.04v.07l.01.04v.04l.01.03v.04l.01.04.01.04v.04l.01.03-.2.2zm.2-.2l.04.24-.24-.04.2-.2zm-2.26-2.17h.35v.1l.01.09.01.09.01.09.02.09.03.09.02.09.03.08.04.08.03.08.05.08.04.08.05.08.05.07.05.07.06.07.06.07.07.06.06.06.07.06.08.05.07.06.08.05.07.04.09.04.08.05.08.03.09.03.09.04.09.02.09.02.1.02-.06.34-.11-.02-.11-.02-.1-.03-.11-.04-.1-.04-.1-.04-.09-.05-.1-.05-.09-.05-.09-.06-.08-.06-.08-.06-.08-.07-.08-.07-.08-.08-.07-.07-.06-.08-.07-.08-.06-.09-.06-.09-.05-.09-.05-.09-.04-.1-.04-.1-.04-.1-.03-.09-.02-.11-.03-.11-.01-.1-.02-.11-.01-.11v-.11zm2.5-2.41v.35h-.11l-.11.01-.11.01-.1.02-.11.02-.1.03-.1.03-.1.04-.09.04-.1.05-.09.05-.08.05-.09.06-.08.06-.08.07-.07.06-.07.08-.07.07-.07.08-.06.08-.05.09-.05.08-.05.09-.04.09-.04.09-.04.1-.02.1-.03.1-.02.1-.01.1-.01.11v.1h-.35l.01-.12v-.12l.02-.13.02-.12.03-.11.03-.12.04-.11.05-.11.05-.11.05-.1.07-.1.06-.1.07-.09.07-.09.08-.09.09-.08.08-.08.09-.08.1-.07.1-.07.1-.06.1-.06.11-.05.11-.05.11-.04.12-.04.12-.03.12-.03.12-.02.13-.02.12-.01h.13zM89.38 31.55h-.35v-.1l-.01-.11-.01-.1-.02-.1-.02-.1-.03-.1-.03-.09-.04-.1-.04-.09-.05-.09-.05-.08-.06-.09-.06-.07-.06-.08-.07-.08-.07-.07-.07-.07-.08-.06-.08-.06-.09-.06-.08-.06-.09-.05-.1-.04-.09-.04-.1-.04-.1-.03-.1-.03-.1-.03-.11-.01-.11-.02-.11-.01h-.11l.01-.35.12.01.13.01.12.01.13.02.12.03.11.03.12.04.11.04.11.05.11.06.1.06.1.06.1.06.09.08.1.07.08.08.08.08.08.09.08.09.06.1.07.09.06.1.06.11.04.11.05.1.04.12.03.11.03.12.02.12.02.12.01.12v.12zm-2.11 2.15l.34.05-.21-.19.08-.03.09-.02.08-.03.09-.03.08-.04.08-.04.07-.04.08-.05.07-.04.07-.05.07-.06.07-.05.06-.06.07-.06.05-.06.06-.07.05-.06.05-.07.05-.07.04-.08.05-.07.03-.08.04-.08.03-.08.03-.08.02-.08.02-.09.02-.08.02-.09.01-.09v-.18h.35v.11l-.01.1-.01.11-.02.1-.02.1-.02.1-.03.1-.03.09-.04.09-.04.1-.05.09-.05.09-.05.08-.05.08-.06.08-.06.08-.07.08-.07.07-.07.07-.07.07-.08.06-.08.07-.08.06-.09.05-.08.05-.09.05-.09.04-.1.05-.09.03-.1.04-.1.03-.1.02-.21-.19zm.21.19l-.26.06.05-.25.21.19zm-.11-1.46h.35v.09l-.01.04v.25l-.01.04V33.02l-.01.04v.08l-.01.04v.05l-.01.04v.04l-.01.04v.04l-.01.04v.04l-.01.04v.04l-.01.04v.04l-.01.05-.01.03v.04l-.34-.05v-.04l.01-.04v-.04l.01-.04v-.04l.01-.04.01-.03v-.04l.01-.04v-.08l.01-.04v-.04l.01-.04v-.08l.01-.04v-.12l.01-.04v-.16l.01-.04V32.43zm-.47-3.29l-.01.35.16-.24.04.09.04.09.04.1.04.09.03.09.03.1.04.09.03.1.03.1.03.09.02.1.03.1.03.1.02.1.02.09.03.1.02.1.02.1.01.11.02.1.01.1.02.1.01.1.01.11.01.1.01.1.01.11v.1l.01.11V32.33l.01.1h-.35v-.2l-.01-.1v-.1l-.01-.1v-.1l-.01-.1-.01-.1-.01-.09-.02-.1-.01-.1-.01-.1-.02-.1-.02-.09-.02-.1-.01-.09-.03-.1-.02-.09-.02-.1-.02-.09-.03-.1-.03-.09-.02-.09-.03-.09-.03-.1-.03-.09-.04-.09-.03-.09-.03-.09-.04-.09-.04-.09-.03-.09.16-.24zm-.16.24l-.11-.24h.27l-.16.24zM80.58 32.43h-.34v-.04l-.01-.02v-.03l-.01-.02-.01-.02-.01-.02-.02-.02-.02-.03-.02-.02-.02-.02-.02-.02-.03-.03-.02-.02-.04-.02-.03-.02-.03-.02-.04-.02-.04-.02-.03-.01-.05-.02-.04-.02-.04-.01-.05-.01-.05-.01-.05-.01-.04-.01-.05-.01h-.06l-.05-.01h-.11v-.35h.13l.06.01.06.01h.07l.06.01.06.02.05.01.06.02.06.02.05.01.05.02.06.03.05.02.04.03.05.02.05.03.04.03.04.03.04.04.04.03.03.04.03.04.03.04.03.04.02.04.03.05.01.05.02.04.01.05v.1zm-1.33.88v-.34h.11l.05-.01h.06l.05-.01.04-.01.05-.01.05-.01.05-.01.04-.02.04-.01.04-.02.04-.02.04-.02.04-.01.03-.02.03-.02.03-.03.03-.02.03-.02.02-.02.02-.02.02-.03.02-.02.02-.02.01-.03.01-.02.01-.02v-.02l.01-.02v-.05h.34v.1l-.01.05-.02.05-.01.05-.03.04-.02.04-.03.05-.03.04-.03.04-.03.03-.04.04-.04.03-.04.03-.04.03-.05.03-.05.03-.04.03-.05.02-.05.02-.06.02-.05.02-.06.02-.06.01-.05.02-.06.01-.06.01-.07.01-.06.01h-.19zm-1.34-.88h.35v.05l.01.02v.02l.01.02.01.02.01.03.02.02.02.02.02.03.02.02.02.02.02.02.04.02.02.03.04.02.03.02.03.01.05.02.04.02.03.02.05.01.04.02.05.01.05.01.05.01.05.01.04.01h.06l.05.01h.11v.34h-.19L79 33.3l-.07-.01-.06-.01-.06-.01-.05-.02-.06-.01-.06-.02-.05-.02-.06-.02-.05-.02-.05-.02-.05-.03-.04-.03-.05-.03-.04-.03-.04-.03-.04-.03-.04-.04-.03-.03-.03-.04-.03-.04-.03-.04-.03-.05-.02-.04-.01-.05-.02-.05-.01-.05v-.05l-.01-.05zm1.34-.88v.35h-.11l-.05.01h-.06l-.04.01-.05.01-.05.01-.05.01-.05.01-.04.01-.05.02-.04.02-.03.01-.04.02-.04.02-.03.02-.04.02-.03.02-.03.02-.02.03-.02.02-.02.02-.02.02-.02.03-.02.02-.01.02-.01.02-.01.02v.03l-.01.02v.04h-.35l.01-.05v-.05l.01-.05.02-.04.01-.05.02-.05.03-.04.03-.04.03-.04.03-.04.03-.04.04-.03.04-.04.04-.03.04-.03.05-.03.04-.02.05-.03.05-.02.06-.03.05-.02.05-.01.06-.02.06-.02.05-.01.06-.02.06-.01H79l.06-.01.06-.01h.13z"/><circle cx="76.75" cy="29.67" r=".85" fill="#2B2A29"/><circle cx="81.54" cy="29.61" r=".85" fill="#2B2A29"/><path fill="#2B2A29" fill-rule="nonzero" d="M81.83 34.68c.11-.09.28-.08.37.03.1.12.09.29-.03.38-.93.8-2.01 1.27-3.09 1.28-1 .01-1.99-.37-2.91-1.25-.11-.1-.11-.27-.01-.38.1-.1.27-.11.38 0 .81.77 1.68 1.1 2.53 1.1.96-.01 1.91-.44 2.76-1.16z"/></svg>