<svg xmlns="http://www.w3.org/2000/svg" width="65" height="67" fill-rule="evenodd" clip-rule="evenodd" image-rendering="optimizeQuality" shape-rendering="geometricPrecision" text-rendering="geometricPrecision" viewBox="0 0 65.1 66.28"><defs><style>.fil1,.fil6{fill:#2b2a29;fill-rule:nonzero}.fil6{fill:#6fa691}</style></defs><g id="Слой_x0020_1"><path fill="#c5e3d7" d="M27.82 7.07c15.27 0 27.65 12.38 27.65 27.65 0 15.27-12.38 27.65-27.65 27.65C12.55 62.37.17 49.99.17 34.72c0-15.27 12.38-27.65 27.65-27.65z"/><path id="1" d="M55.64 34.72h-.34l-.04-1.41-.1-1.4-.18-1.37-.24-1.35-.31-1.33-.37-1.31-.43-1.28-.49-1.24-.55-1.22-.61-1.19-.66-1.15-.71-1.11-.77-1.08-.82-1.04-.86-1-.91-.95-.95-.91-1-.86-1.04-.82-1.08-.77-1.11-.71-1.15-.66-1.19-.61-1.22-.55-1.24-.49-1.28-.43-1.3-.37-1.33-.31L32 7.56l-1.37-.18-1.4-.1-1.41-.04V6.9l1.43.04 1.41.11 1.4.17 1.36.25 1.35.31 1.32.37 1.29.44 1.27.5 1.23.56 1.2.61 1.16.67 1.13.73 1.09.77 1.05.83 1.01.87.97.92.92.97.88 1.01.82 1.05.78 1.09.72 1.13.67 1.16.61 1.2.56 1.23.5 1.27.44 1.29.37 1.32.31 1.35.25 1.37.17 1.39.11 1.41.04 1.43zM27.82 62.54v-.34l1.41-.03 1.4-.11 1.37-.17 1.36-.24 1.33-.31 1.3-.37 1.28-.43 1.24-.5 1.22-.54 1.19-.61 1.15-.66 1.11-.72 1.08-.77 1.04-.81 1-.86.95-.91.91-.96.86-1 .82-1.03.77-1.08.71-1.12.66-1.15.61-1.18.55-1.22.49-1.25.43-1.28.37-1.3.31-1.33.24-1.35.18-1.38.1-1.39.04-1.42h.34l-.04 1.43-.11 1.42-.17 1.39-.25 1.37-.31 1.35-.37 1.32-.44 1.29-.5 1.26-.56 1.23-.61 1.2-.67 1.17-.72 1.13-.78 1.09-.82 1.05-.88 1.01-.92.96-.97.92-1.01.88-1.05.82-1.09.78-1.13.72-1.16.67-1.2.62-1.23.56-1.27.49-1.29.44-1.32.38-1.35.31-1.36.24-1.4.18-1.41.1-1.43.04zM0 34.72h.34l.03 1.42.11 1.39.17 1.38.24 1.35.31 1.33.37 1.3.43 1.28.5 1.25.55 1.22.6 1.18.66 1.15.72 1.12.77 1.08.81 1.03.87 1 .9.96.96.91 1 .86 1.04.81 1.07.77 1.12.72 1.15.66 1.18.61 1.22.54 1.25.5 1.28.43 1.3.37 1.33.31 1.35.24 1.38.17 1.39.11 1.42.03v.34l-1.43-.04-1.41-.1-1.4-.18-1.37-.24-1.34-.31-1.32-.38-1.3-.44-1.26-.49-1.23-.56-1.2-.62-1.17-.67-1.13-.72-1.09-.78-1.05-.82-1.01-.88-.96-.92-.92-.96-.88-1.01-.82-1.05-.78-1.09-.72-1.13-.67-1.17-.62-1.2-.55-1.23-.5-1.26L1.25 43l-.37-1.32-.31-1.35-.25-1.37-.18-1.39-.1-1.42L0 34.72zM27.82 6.9v.34l-1.42.04-1.39.1-1.38.18-1.35.24-1.33.31-1.3.37-1.28.43-1.25.49-1.22.55-1.18.61-1.15.66-1.12.71-1.07.77-1.04.82-1 .86-.96.91-.9.95-.87 1-.81 1.04-.77 1.08-.72 1.11-.66 1.15-.6 1.19-.55 1.22-.5 1.24-.43 1.28-.37 1.31-.31 1.33-.24 1.35-.17 1.37-.11 1.4-.03 1.41H0l.04-1.43.1-1.41.18-1.39.25-1.37.31-1.35.37-1.32.44-1.29.5-1.27.55-1.23.62-1.2.67-1.16.72-1.13.78-1.09.82-1.05.88-1.01.92-.97.96-.92 1.01-.87 1.05-.83 1.09-.77 1.13-.73 1.17-.67 1.2-.61 1.23-.56 1.26-.5 1.3-.44 1.32-.37 1.34-.31 1.37-.25 1.4-.17 1.41-.11 1.43-.04z" class="fil1"/><path fill="#f5b2b6" d="M27.82 11.43c12.86 0 23.29 10.43 23.29 23.29 0 12.87-10.43 23.3-23.29 23.3-12.87 0-23.29-10.43-23.29-23.3 0-12.86 10.42-23.29 23.29-23.29z"/><path id="1" d="M51.28 34.72h-.34l-.03-1.19-.09-1.17-.14-1.16-.21-1.14-.26-1.12-.31-1.09-.36-1.08-.41-1.05-.47-1.02-.51-1-.55-.97-.61-.94-.64-.9-.69-.88-.72-.84-.77-.8-.8-.76-.84-.73-.88-.69-.9-.64-.94-.6-.97-.56-1-.51-1.02-.46-1.05-.42-1.08-.36-1.09-.31-1.12-.26-1.14-.2-1.16-.15-1.17-.09-1.19-.03v-.34l1.21.03 1.19.09 1.17.15 1.16.21 1.13.26 1.12.32 1.09.37 1.06.42 1.04.47 1.01.51.98.57.96.61.92.65.88.7.85.74.82.77.77.82.74.85.7.89.65.92.61.95.57.98.52 1.01.47 1.04.42 1.07.37 1.09.31 1.11.26 1.13.21 1.16.15 1.17.09 1.2.03 1.2zM27.82 58.18v-.33l1.19-.03 1.17-.09 1.16-.15 1.14-.2 1.12-.26 1.09-.31 1.08-.37 1.05-.41 1.02-.46 1-.51.97-.56.94-.6.9-.65.88-.68.84-.73.8-.77.77-.8.72-.84.69-.87.64-.91.61-.94.55-.96.51-1 .47-1.03.41-1.05.36-1.07.31-1.1.26-1.12.21-1.14.14-1.15.09-1.18.03-1.19h.34l-.03 1.21-.09 1.19-.15 1.18-.21 1.15-.26 1.14-.31 1.11-.37 1.09-.42 1.07-.47 1.03-.52 1.02-.57.98-.61.95-.65.92-.7.89-.74.85-.77.81-.82.78-.85.74-.88.69-.92.66-.96.61-.98.56-1.01.52-1.04.47-1.06.42-1.09.37-1.12.32-1.13.26-1.16.2-1.17.15-1.19.09-1.21.03zM4.36 34.72h.33l.03 1.19.09 1.18.15 1.15.2 1.14.26 1.12.31 1.1.37 1.07.41 1.05.46 1.03.51 1 .56.96.6.94.65.91.68.87.73.84.77.8.8.77.84.73.87.68.91.65.94.6.97.56.99.51 1.03.46 1.05.41 1.07.37 1.1.31 1.12.26 1.14.2 1.15.15 1.18.09 1.19.03v.33l-1.21-.03-1.19-.09-1.17-.15-1.16-.2-1.13-.26-1.12-.32-1.09-.37-1.06-.42-1.04-.47-1.01-.52-.99-.56-.95-.61-.92-.66-.89-.69-.85-.74-.81-.78-.78-.81-.74-.85-.69-.89-.66-.92-.61-.95-.56-.98-.52-1.02-.47-1.03-.42-1.07-.37-1.09-.32-1.11-.26-1.14-.2-1.15-.15-1.18-.09-1.19-.03-1.21zm23.46-23.46v.34l-1.19.03-1.18.09-1.15.15-1.14.2-1.12.26-1.1.31-1.07.36-1.05.42-1.03.46-.99.51-.97.56-.94.6-.91.64-.87.69-.84.73-.8.76-.77.8-.73.84-.68.88-.65.9-.6.94-.56.97-.51 1-.46 1.02-.41 1.05-.37 1.08-.31 1.09-.26 1.12-.2 1.14-.15 1.16-.09 1.17-.03 1.19h-.33l.03-1.2.09-1.2.15-1.17.2-1.16.26-1.13.32-1.11.37-1.09.42-1.07.47-1.04.52-1.01.56-.98.61-.95.66-.92.69-.89.74-.85.78-.82.81-.77.85-.74.89-.7.92-.65.95-.61.99-.57 1.01-.51 1.04-.47 1.06-.42 1.09-.37 1.12-.32 1.13-.26 1.16-.21 1.17-.15 1.19-.09 1.21-.03z" class="fil1"/><path fill="#99cfba" d="M27.82 18.59c8.91 0 16.14 7.22 16.14 16.13s-7.23 16.14-16.14 16.14-16.14-7.23-16.14-16.14 7.23-16.13 16.14-16.13z"/><path id="1" d="M44.12 34.72h-.33l-.02-.82-.07-.81-.1-.8-.14-.79-.18-.77-.21-.76-.25-.74-.29-.72-.32-.71-.35-.69-.38-.67-.42-.64-.45-.63-.47-.6-.5-.58-.53-.56-.55-.53-.58-.5-.61-.47-.62-.45-.65-.41-.67-.39-.69-.35-.71-.32-.72-.29-.74-.25-.76-.21-.77-.18-.79-.14-.8-.1-.81-.06-.82-.03v-.33l.84.02.82.06.82.11.81.14.78.18.78.22.75.26.75.29.72.33.7.36.68.39.66.42.64.46.62.48.59.51.57.54.54.57.51.59.48.62.46.64.42.66.4.68.36.7.32.73.3.74.25.75.22.78.18.79.15.8.1.82.06.82.02.84zm-16.3 16.31v-.34l.82-.02.81-.06.8-.1.79-.14.77-.18.76-.22.74-.25.72-.28.71-.32.69-.36.67-.38.65-.42.62-.44.61-.48.58-.5.55-.52.53-.56.5-.58.47-.6.45-.63.42-.65.38-.67.35-.68.32-.71.29-.73.25-.74.21-.76.18-.77.14-.79.1-.79.07-.81.02-.83h.33l-.02.84-.06.83-.1.82-.15.8-.18.79-.22.77-.25.76-.3.74-.32.72-.36.7-.4.69-.42.66-.46.64-.48.61-.51.6-.54.56-.57.54-.59.52-.62.48-.64.45-.66.43-.68.39-.7.36-.72.33-.75.29-.75.26-.78.22-.78.18-.81.14-.82.1-.82.07-.84.02zM11.51 34.72h.34l.02.83.06.81.1.79.14.79.18.77.22.76.25.74.29.73.31.71.36.68.38.67.42.65.44.63.48.6.5.58.53.56.55.52.58.51.6.47.63.44.65.42.67.38.69.36.7.32.73.28.74.25.76.22.77.18.79.14.8.1.81.06.82.02v.34l-.84-.02-.83-.07-.82-.1-.8-.14-.79-.18-.77-.22-.76-.26-.74-.29-.72-.33-.7-.36-.69-.39-.66-.43-.64-.45-.61-.49-.59-.51-.57-.54-.54-.56-.51-.6-.49-.61-.45-.64-.43-.66-.39-.69-.36-.7-.33-.72-.29-.74-.25-.76-.22-.77-.18-.79-.15-.8-.1-.82-.06-.83-.03-.84zm16.31-16.3v.33l-.82.03-.81.06-.8.1-.79.14-.77.18-.76.21-.74.25-.73.29-.7.32-.69.35-.67.39-.65.41-.63.45-.6.47-.58.5-.55.53-.53.56-.5.58-.48.6-.44.63-.42.64-.38.67-.36.69-.31.71-.29.72-.25.74-.22.76-.18.77-.14.79-.1.8-.06.81-.02.82h-.34l.03-.84.06-.82.1-.82.15-.8.18-.79.22-.78.25-.75.29-.74.33-.73.36-.7.39-.68.43-.66.45-.64.49-.62.51-.59.54-.57.57-.54.59-.51.61-.48.64-.46.66-.42.69-.39.7-.36.72-.33.74-.29.76-.26.77-.22.79-.18.8-.14.82-.11.83-.06.84-.02z" class="fil1"/><path fill="#f08bb2" d="M27.82 29.14c3.08 0 5.58 2.5 5.58 5.58 0 3.09-2.5 5.59-5.58 5.59-3.09 0-5.59-2.5-5.59-5.59 0-3.08 2.5-5.58 5.59-5.58z"/><path id="1" d="M33.57 34.72h-.33l-.01-.28-.02-.27-.04-.27-.04-.27-.06-.26-.08-.26-.08-.25-.1-.25-.11-.24-.12-.23-.13-.23-.14-.22-.15-.21-.16-.2-.17-.2-.18-.19-.19-.18-.19-.17-.21-.16-.21-.15-.22-.14-.23-.13-.23-.12-.24-.11-.25-.1-.25-.08-.26-.07-.26-.07-.27-.04-.27-.04-.27-.02-.28-.01v-.33h.29l.3.03.29.03.28.06.28.06.27.08.27.09.26.1.25.12.25.12.24.14.24.15.22.16.22.17.21.18.2.19.19.2.18.21.17.22.16.22.15.24.14.24.13.25.11.25.1.26.09.27.08.27.07.28.05.29.03.28.03.3v.29zm-5.75 5.76v-.34h.28l.27-.03.27-.03.27-.05.26-.06.26-.07.25-.09.25-.09.24-.11.23-.12.23-.13.22-.14.21-.16.21-.16.19-.17.19-.18.18-.18.17-.2.16-.2.15-.22.14-.22.13-.22.12-.24.11-.24.1-.24.08-.25.08-.26.06-.27.04-.26.04-.27.02-.28.01-.28h.33v.3l-.03.29-.03.29-.05.28-.07.28-.08.27-.09.27-.1.26-.11.26-.13.25-.14.24-.15.23-.16.23-.17.21-.18.21-.19.2-.2.19-.21.18-.22.18-.22.16-.24.15-.24.13-.25.13-.25.12-.26.1-.27.09-.27.08-.28.06-.28.05-.29.04-.3.02-.29.01zm-5.76-5.76h.34l.01.28.02.28.03.27.05.26.06.27.07.25.09.26.1.24.1.24.12.24.13.22.15.22.15.22.16.2.17.2.18.18.18.18.2.17.21.16.21.16.22.14.23.13.23.12.24.11.25.09.25.09.26.07.26.06.26.05.28.03.27.03h.28v.34l-.3-.01-.29-.02-.29-.04-.28-.05-.28-.06-.27-.08-.27-.09-.26-.1-.26-.12-.24-.13-.25-.13-.23-.15-.23-.16-.21-.18-.21-.18-.2-.19-.19-.2-.18-.21-.17-.21-.16-.23-.15-.23-.14-.24-.13-.25-.11-.26-.11-.26-.09-.26-.08-.28-.06-.28-.05-.28-.04-.29-.02-.29-.01-.3zm5.76-5.75v.33l-.28.01-.27.02-.28.04-.26.04-.26.07-.26.07-.25.08-.25.1-.24.11-.23.12-.23.13-.22.14-.21.15-.21.16-.2.17-.18.18-.18.19-.17.2-.16.2-.15.21-.15.22-.13.23-.12.23-.1.24-.1.25-.09.25-.07.26-.06.26-.05.27-.03.27-.02.27-.01.28h-.34l.01-.29.02-.3.04-.28.05-.29.06-.28.08-.27.09-.27.11-.26.11-.25.13-.25.14-.24.15-.24.16-.22.17-.22.18-.21.19-.2.2-.19.21-.18.21-.17.23-.16.23-.15.25-.14.24-.12.26-.12.26-.1.27-.09.27-.08.28-.06.28-.06.29-.03.29-.03h.3z" class="fil1"/><path fill="#99cfba" fill-rule="nonzero" d="M57.72 3.12c-.01-.49.39-.89.88-.89.49-.01.89.38.9.87l.8 62.12c0 .49-.39.89-.88.9-.49 0-.89-.39-.9-.88l-.8-62.12z"/><path id="1" d="M58.59 2.06l.01.33-.04.01h-.07l-.03.01-.04.01-.03.01-.04.01-.03.01-.03.02-.03.02-.03.01-.03.02-.03.02-.03.02-.02.03-.03.02-.02.03-.02.02-.02.03-.02.03-.02.03-.02.03-.01.03-.02.03-.01.04-.01.03-.01.03-.01.04v.03l-.01.04v.07l-.34.01v-.06l.01-.05v-.06l.01-.05.01-.05.02-.05.01-.05.02-.05.02-.04.02-.05.03-.04.03-.05.02-.04.04-.04.03-.04.03-.03.04-.04.04-.03.04-.03.04-.03.04-.03.04-.03.05-.02.05-.02.04-.02.05-.02.05-.02.05-.01.06-.01h.05l.05-.01h.06-.01zm.01.33zm1.06.71l-.33.01v-.04l-.01-.04V3l-.01-.04-.01-.03-.01-.04-.01-.03-.01-.03-.02-.04-.01-.03-.02-.03-.02-.03-.02-.02-.02-.03-.03-.03-.02-.02-.02-.02-.03-.03-.03-.02-.03-.02-.03-.01-.03-.02-.03-.02-.03-.01-.03-.01-.04-.02h-.03l-.04-.01-.03-.01h-.07l-.04-.01-.01-.33h.11l.06.01.05.01.05.01.05.01.05.02.05.02.04.02.05.02.04.02.05.03.04.03.04.03.04.03.04.04.03.04.03.03.04.04.03.04.02.05.03.04.02.05.02.04.02.05.02.05.02.05.01.05.01.05.01.05v.11zm.47 62.12l-.8-62.11.33-.01.81 62.12h-.34zm-.71 1.06v-.33h.04l.03-.01h.04l.03-.01.04-.01.03-.01.04-.01.03-.01.03-.02.03-.01.03-.02.03-.02.03-.02.02-.02.03-.03.03-.02.02-.02.02-.03.02-.03.02-.03.02-.03.02-.03.01-.03.02-.03.01-.03.01-.04.01-.03.01-.04v-.03l.01-.04v-.07h.34l-.01.05v.11l-.01.05-.01.05-.02.05-.01.05-.02.05-.02.04-.03.05-.02.04-.03.05-.03.04-.03.04-.03.04-.04.04-.03.03-.04.03-.04.04-.04.03-.04.02-.04.03-.05.03-.05.01-.04.02-.05.02-.05.02-.05.01-.06.01-.05.01h-.11zm-1.07-1.04h.34v.07l.01.04.01.03v.03l.02.04.01.03.01.04.02.03.01.03.02.03.02.03.02.02.02.03.02.03.03.02.02.03.03.02.03.02.03.02.02.02.03.01.03.02.04.01.03.02.03.01.04.01h.03l.04.01h.03l.04.01h.04v.33h-.1l-.06-.01-.05-.01-.05-.01-.05-.01-.05-.02-.05-.02-.05-.02-.04-.02-.05-.02-.04-.03-.04-.03-.04-.03-.04-.03-.04-.04-.03-.03-.04-.04-.03-.04-.03-.04-.03-.04-.02-.05-.03-.04-.02-.05-.02-.05-.01-.05-.02-.05-.01-.05-.01-.05-.01-.05v-.06l-.01-.05zm-.46-62.12l.8 62.12h-.34l-.8-62.11.34-.01z" class="fil1"/><path d="M64.67 60.79c.35.35.34.91-.01 1.25-.35.35-.91.34-1.25-.01l-4.03-4.09-4.99 4.29c-.37.32-.93.28-1.25-.09-.32-.38-.28-.94.1-1.26l6.24-5.37 5.19 5.28z" class="fil6"/><path id="1" d="M64.78 62.16l-.23-.24.02-.02.03-.03.02-.03.02-.03.02-.03.02-.03.01-.03.02-.03.01-.04.01-.03.01-.03.01-.03v-.04l.01-.04v-.13l-.01-.04v-.03l-.01-.04-.01-.03-.01-.03-.01-.03-.01-.04-.02-.03-.01-.03-.02-.03-.02-.03-.03-.03-.02-.03-.03-.02.24-.24.04.04.04.04.03.04.03.05.03.04.02.05.02.05.02.04.02.05.02.05.01.05.01.05.01.05v.05l.01.05v.1l-.01.05v.05l-.01.05-.01.05-.02.05-.01.05-.02.05-.02.04-.03.05-.02.05-.03.04-.03.04-.04.04-.03.04-.04.04zm-.23-.24l-.18.17.18-.17zm-1.26.23l.24-.23.02.02.03.03.03.02.03.02.03.02.03.02.03.01.04.02.03.01.03.01.03.01.04.01h.03l.04.01h.13l.04-.01h.03l.04-.01.03-.01.03-.01.04-.01.03-.01.03-.02.03-.02.03-.01.03-.02.03-.03.03-.02.03-.03.23.24-.04.04-.04.04-.04.03-.04.03-.05.03-.04.02-.05.02-.05.02-.05.02-.05.02-.04.01-.05.01-.06.01h-.04l-.06.01h-.1l-.05-.01h-.05l-.05-.01-.05-.02-.05-.01-.04-.01-.05-.02-.05-.02-.05-.03-.04-.02-.05-.03-.04-.03-.04-.04-.04-.03-.04-.04zm-3.79-4.32l4.03 4.09-.24.23-4.03-4.09.01-.24.23.01zm-.23-.01l.12-.11.11.12-.23-.01zm-4.99 4.28l4.99-4.28.22.25-4.99 4.29-.22-.26zm.22.26zm-1.49-.12l.26-.21.02.02.03.03.03.02.02.03.03.02.03.02.03.02.03.01.03.02.04.01.03.01.03.01.04.01.03.01h.04l.03.01h.1l.04-.01h.03l.04-.01.03-.01.03-.01.04-.01.03-.01.03-.02.03-.01.04-.02.03-.02.03-.02.02-.03.22.26-.04.03-.04.04-.05.03-.04.02-.05.03-.05.02-.04.02-.05.02-.05.01-.05.01-.05.01-.05.01h-.26l-.05-.01-.05-.01-.05-.01-.05-.02-.05-.02-.04-.02-.05-.02-.04-.02-.05-.03-.04-.03-.04-.03-.04-.03-.04-.04-.04-.04-.04-.04zm.26-.21zm-.14-1.28l.22.26-.03.03-.03.02-.02.03-.02.03-.02.03-.02.03-.02.02-.02.04-.01.03-.02.03-.01.03-.01.04-.01.03v.03l-.01.04v.03l-.01.04v.03l.01.04v.06l.01.04.01.03.01.03.01.04.01.03.02.03.01.03.02.04.02.03.02.03.03.03-.26.21-.03-.04-.03-.04-.03-.04-.03-.05-.02-.05-.03-.05-.02-.04-.01-.05-.02-.05-.01-.05-.01-.05v-.05l-.01-.05v-.16l.01-.04v-.05l.01-.05.02-.05.01-.05.02-.05.02-.05.02-.05.02-.04.03-.05.03-.04.03-.04.03-.04.04-.04.04-.04.04-.04zm.22.26zm6.24-5.37l-6.24 5.37-.22-.26 6.24-5.36.23.01-.01.24zm-.22-.25l.12-.11.11.12-.23-.01zm5.18 5.52l-5.19-5.28.24-.23 5.19 5.27-.24.24zm.24-.24l-.45-.46.45.46z" class="fil1"/><g><path d="M64.53 56.06c.34.35.34.91-.01 1.25-.35.35-.91.34-1.26-.01l-4.03-4.09-4.98 4.29c-.38.32-.94.28-1.26-.1-.32-.37-.27-.93.1-1.25l6.24-5.37 5.2 5.28z" class="fil6"/><path id="1" d="M64.64 57.43l-.24-.24.02-.02.03-.03.02-.03.02-.03.02-.03.02-.03.01-.03.02-.04.01-.03.01-.03.01-.03.01-.04.01-.03v-.21l-.01-.03-.01-.04v-.03l-.01-.03-.02-.03-.01-.04-.02-.03-.01-.03-.02-.03-.02-.03-.02-.03-.03-.03-.02-.03.24-.23.04.04.03.04.03.04.03.05.03.04.03.05.02.04.02.05.01.05.02.05.01.05.01.05.01.05.01.05v.15l-.01.05v.05l-.01.05-.01.05-.02.05-.01.05-.02.05-.02.04-.02.05-.03.04-.03.05-.03.04-.03.04-.04.04-.04.04h.01zm-.24-.24l-.35.35.35-.35zm-1.26.23l.24-.24.03.03.03.02.02.03.03.02.04.02.02.02.03.01.04.01.03.02.03.01.04.01h.03l.04.01.03.01h.14l.03-.01h.04l.03-.01.03-.01.04-.01.03-.01.03-.01.03-.02.04-.02.03-.02.02-.01.03-.03.03-.02.03-.03.24.24-.04.04-.05.03-.04.04-.04.03-.05.02-.04.03-.05.02-.05.02-.04.02-.05.02-.05.01-.05.01-.05.01h-.05l-.05.01h-.06l-.04-.01h-.06l-.05-.01h-.04l-.06-.02-.04-.01-.05-.02-.05-.02-.05-.02-.05-.02-.04-.03-.04-.02-.05-.03-.04-.04-.04-.03-.04-.04zm.24-.24l-.42-.42.42.42zm-4.03-4.09l4.03 4.09-.24.24-4.03-4.09.01-.24h.23zm-.23 0l.12-.11.11.11h-.23zm-4.98 4.28l4.98-4.28.22.25-4.98 4.29-.22-.26zm.22.26zm-1.49-.12l.25-.21.03.02.02.03.03.02.03.03.03.02.03.02.03.02.02.01.04.02.03.01.03.01.04.01.03.01.03.01h.07l.04.01h.07l.03-.01h.04l.03-.01.03-.01.04-.01.03-.01.03-.01.04-.02.03-.01.03-.02.03-.02.03-.02.03-.03.22.26-.05.03-.04.04-.04.03-.05.02-.05.03-.04.02-.05.02-.05.01-.05.02-.05.01-.05.01-.05.01h-.2l-.05-.01h-.05l-.05-.01-.05-.01-.05-.02-.05-.02-.05-.02-.04-.02-.05-.02-.04-.03-.05-.03-.04-.03-.04-.03-.04-.04-.04-.04-.03-.04zm.25-.21zm-.14-1.28l.22.26-.03.02-.02.03-.03.03-.02.02-.02.04-.02.02-.02.03-.02.03-.01.04-.01.03-.01.03-.02.04v.03l-.01.03-.01.04v.17l.01.03v.04l.01.03.01.03.01.04.02.03.01.03.02.03.02.04.02.03.02.03.02.03-.25.21-.04-.04-.03-.04-.03-.05-.03-.04-.02-.05-.02-.05-.02-.04-.02-.05-.01-.05-.01-.05-.01-.05-.01-.05-.01-.05v-.11l.01-.04v-.06l.01-.05.01-.04.01-.05.01-.05.02-.05.02-.05.02-.05.03-.04.02-.05.03-.04.03-.04.04-.04.03-.04.04-.04.04-.04zm.22.26zm6.24-5.37l-6.24 5.37-.22-.26 6.24-5.36h.23l-.01.25zm-.22-.25l.12-.11.11.11h-.23zm5.19 5.52l-5.2-5.28.24-.24 5.2 5.28-.24.24zm.24-.24l-.45-.46.45.46z" class="fil1"/></g><g><path d="M63.16 6.66c.29.39.2.95-.2 1.24-.39.29-.95.21-1.24-.19l-3.22-4.4-3.39 4.72c-.29.4-.85.49-1.24.21-.4-.29-.49-.85-.2-1.24L58.49.29l4.67 6.37z" class="fil6"/><path id="1" d="M63.06 8.04l-.2-.28v.01l.03-.03.03-.02.03-.03.02-.02.03-.03.02-.03.02-.03.02-.03.01-.03.02-.03.01-.03.02-.03.01-.03.01-.04v-.03l.01-.04v-.03l.01-.03v-.11l-.01-.03v-.04l-.01-.03-.01-.04-.01-.03-.01-.03-.02-.04-.01-.03-.02-.03-.02-.03-.02-.03.27-.2.03.04.03.05.03.05.02.04.02.05.02.05.01.05.02.05.01.05.01.05v.25l-.01.06-.01.05-.01.04-.01.05-.02.05-.02.05-.02.05-.02.04-.02.05-.03.04-.03.04-.03.04-.04.04-.03.04-.04.04-.04.03-.05.04zm0 0l-.53.39.53-.39zm-1.47-.23l.27-.2.02.03.02.03.03.02.02.03.03.02.03.02.03.02.03.02.03.02.03.02.03.01.03.01.04.01.03.01.03.01h.04l.03.01h.18l.03-.01h.04l.03-.01.03-.01.04-.02.03-.01.03-.02.03-.01.03-.02.03-.03.2.28-.04.03-.05.03-.04.02-.05.03-.05.02-.05.02-.05.01-.05.01-.05.01-.05.01-.05.01h-.15l-.05-.01h-.05l-.05-.01-.05-.01-.05-.02-.05-.01-.05-.02-.05-.02-.04-.02-.04-.03-.05-.02-.04-.04-.04-.03-.04-.03-.04-.04-.04-.04-.03-.04-.03-.04zm-2.95-4.6l3.22 4.4-.27.2-3.22-4.4v-.2h.27zm-.27 0l.13-.19.14.19h-.27zm-3.4 4.72l3.4-4.72.27.2-3.4 4.72-.27-.2zm-1.2.44l.2-.27h-.01l.04.02.03.02.03.02.03.01.03.02.04.01.03.01.04.01h.03l.03.01h.18l.03-.01h.04l.03-.01.03-.01.04-.01.03-.01.03-.02.03-.01.03-.02.03-.02.03-.02.03-.02.02-.03.03-.02.02-.03.03-.02.02-.04.27.2-.03.04-.03.04-.04.04-.04.04-.04.04-.04.03-.04.03-.05.03-.04.02-.04.03-.05.02-.05.01-.05.02-.04.02-.05.01-.06.01h-.05l-.04.01h-.16l-.05-.01h-.05l-.05-.02-.05-.01-.05-.01L54 8.5l-.05-.02-.04-.02-.05-.03-.05-.03-.04-.03zm0 0l-.17-.12.17.12zm-.24-1.47l.27.2-.02.03-.02.03-.02.03-.01.03-.01.03-.02.04-.01.03-.01.03v.04l-.01.03v.18l.01.03v.03l.01.04.01.03.01.03.01.04.02.03.01.03.02.03.02.03.02.03.02.03.03.02.02.03.03.02.02.03.04.02-.2.27-.04-.03-.04-.03-.04-.04-.04-.04-.04-.04-.03-.04-.03-.04-.03-.05-.02-.04-.03-.04-.02-.05-.01-.05-.02-.05-.02-.05-.01-.04-.01-.05v-.06l-.01-.05v-.15l.01-.05.01-.05.01-.05.01-.05.01-.05.02-.05.02-.05.03-.05.02-.04.03-.05.03-.04zm.27.2zM58.63.39L53.8 7.1l-.27-.2L58.36.19h.27v.2zm-.27-.2l.13-.19.14.19h-.27zm4.66 6.57L58.36.39l.27-.2 4.66 6.37-.27.2z" class="fil1"/></g></g></svg>