<svg xmlns="http://www.w3.org/2000/svg" width="62" height="65" fill-rule="evenodd" clip-rule="evenodd" image-rendering="optimizeQuality" shape-rendering="geometricPrecision" text-rendering="geometricPrecision" viewBox="0 0 61.84 64.17"><defs><style>.fil1{fill:#2b2a29;fill-rule:nonzero}</style></defs><g id="Слой_x0020_1"><path fill="#f5b2b6" d="M.95 57.89c-2.93-5 3.1-6.46 5.97-7.86 13.61-6.62 8.9-13.11 1.92-14.14-10.68-1.57-7.41-8.48-.83-8.48 6.71 0 14.3 5.82 22.29 3.16 5.03-2.12 6.97-10.41 14.98-11 6.65-.49 5.67 7.68-1.44 12.68-10.22 7.19 17.6 1.53 17.83 10.72.1 4.15-5.83 5.93-14.96 2.75-4.65-.92-7.05.8-6.37 4.56.67 3.7 12.42 9.08 4.01 13.52-1.24.66-5.27-.4-6.27-1.35-4.09-2.82-11.31-6.47-16.07-6.72-9.95-.53-15.37 6.64-21.06 2.16z"/><path id="1" d="M6.85 49.88l.14.31-.28.13-.29.13-.31.14-.33.13-.33.14-.33.15-.34.14-.35.15-.34.16-.34.16-.34.17-.33.18-.33.18-.31.19-.29.2-.29.21-.26.21-.25.23-.22.24-.2.25-.17.26-.15.27-.12.28-.08.3-.06.31-.02.33.02.34.06.37.1.38.15.41.19.43.25.44-.29.18-.26-.47-.2-.45-.16-.43-.1-.42-.07-.4-.02-.38.02-.37.06-.35.1-.33.13-.32.16-.3.19-.28.22-.27.24-.26.26-.24.28-.23.29-.22.31-.21.33-.19.33-.19.34-.18.34-.17.35-.17.35-.16.34-.15.35-.14.34-.15.33-.14.31-.13.31-.14.29-.13.28-.13zm1.96-13.82l.05-.33.66.11.64.15.62.17.6.21.57.23.54.26.52.29.48.32.45.34.4.36.37.39.32.42.26.43.22.46.16.48.1.49.03.51-.03.53-.09.54-.17.56-.25.56-.31.57-.4.59-.48.59-.56.59-.65.6-.74.61-.83.62-.92.61-1.02.62-1.13.62-1.23.63-.14-.31 1.22-.62 1.11-.61 1.01-.61.91-.61.82-.6.72-.6.63-.59.55-.58.46-.57.38-.55.3-.55.23-.53.16-.52.09-.5.03-.48-.03-.47-.1-.46-.14-.43-.2-.43-.25-.4-.3-.39-.34-.36-.39-.35-.42-.33-.46-.3-.5-.28-.53-.25-.55-.23-.58-.2-.61-.17-.62-.14-.64-.11zm-.8-8.81v.33l-.6.02-.57.06-.55.09-.53.13-.5.15-.47.19-.44.21-.4.23-.37.26-.33.27-.3.29-.25.3-.22.32-.16.32-.13.33-.07.34-.03.34.02.34.07.34.12.34.18.34.24.33.3.33.36.32.43.31.5.3.57.28.64.26.72.24.8.22.87.19.95.16-.05.33-.96-.16-.89-.2-.81-.22-.74-.24-.67-.27-.59-.29-.52-.32-.45-.32-.39-.35-.33-.35-.26-.37-.21-.38-.14-.39-.07-.39-.03-.39.04-.38.08-.38.14-.37.19-.36.23-.35.28-.33.31-.31.36-.29.39-.27.43-.25.46-.22.49-.2.52-.16.55-.13.57-.1.6-.05.62-.02zm22.23 3.17l.13.31h-.02l-.75.23-.76.18-.75.14-.75.09-.75.05-.74.02-.74-.02-.73-.05-.74-.08-.73-.11-.72-.12-.72-.16-.72-.16-.71-.19-.71-.19-.7-.21-.7-.21-.7-.22-.69-.22-.69-.23-.68-.21-.68-.22-.67-.2-.67-.2-.66-.18-.66-.16-.65-.15-.64-.13-.64-.1-.64-.07-.63-.05-.62-.02v-.33l.64.01.64.05.65.08.65.1.66.13.66.15.67.17.66.18.68.19.67.21.68.21.68.22.69.23.69.22.69.21.7.22.7.2.71.2.7.18.71.17.71.14.72.13.71.11.72.07.73.05.72.02.73-.02.73-.05.73-.09.73-.13.74-.17.74-.23-.01.01zm.13.31h-.02.02zm14.9-11.33l.02.34-.72.07-.69.12-.66.16-.62.19-.6.23-.57.26-.55.29-.52.32-.5.34-.49.37-.46.38-.45.4-.43.42-.42.43-.41.44-.4.45-.39.45-.39.45-.37.46-.38.45-.38.45-.37.44-.38.43-.38.42-.39.4-.39.38-.4.37-.42.34-.42.32-.44.28-.46.26-.47.22-.13-.31.45-.21.43-.25.43-.27.41-.31.4-.33.39-.35.39-.38.38-.39.37-.42.38-.42.37-.44.37-.44.38-.46.38-.45.38-.46.4-.46.4-.45.42-.44.42-.44.45-.42.45-.41.48-.4.49-.37.52-.35.54-.33.56-.3.59-.27.62-.24.65-.2.68-.16.71-.12.74-.08zm-1.34 12.99l-.19-.28.64-.47.61-.49.57-.5.53-.52.5-.52.46-.53.42-.54.39-.54.35-.54.3-.54.27-.54.24-.53.19-.52.15-.51.12-.5.07-.49.04-.46v-.45l-.05-.43-.08-.4-.12-.37-.16-.35-.2-.32-.24-.29-.28-.26-.32-.23-.36-.19-.41-.15-.45-.11-.5-.08-.54-.02-.59.02-.02-.34.61-.02.57.03.53.07.49.13.44.17.4.21.36.25.31.29.27.32.22.36.18.38.13.42.09.43.05.46v.48l-.03.49-.08.51-.12.52-.16.54-.2.54-.24.54-.28.56-.32.55-.35.56-.4.55-.43.55-.47.54-.51.54-.54.53-.58.51-.62.5-.66.48zm17.91 10.58h-.34l-.09-.78-.24-.71-.37-.63-.5-.56-.61-.51-.71-.45-.8-.4-.89-.34-.95-.31-1.01-.26-1.05-.22-1.08-.2-1.1-.17-1.1-.15-1.1-.13-1.08-.13-1.06-.11-1.01-.12-.96-.12-.89-.13-.82-.14-.72-.17-.63-.19-.53-.23-.41-.27-.27-.34-.1-.41.08-.46.28-.47.45-.53.65-.57.86-.65.19.28-.84.63-.62.55-.42.49-.24.4-.06.32.07.26.19.25.35.22.48.21.6.19.71.16.8.14.89.13.95.12 1.01.11 1.05.12 1.09.12 1.1.14 1.11.15 1.11.17 1.09.19 1.06.24 1.02.26.97.31.91.36.83.41.75.47.64.53.54.61.4.69.26.77.11.86zm-15.16 2.91l.06-.33.03.01.84.28.82.26.81.22.78.2.76.17.74.15.72.11.7.1.67.07.65.04.62.02.6-.01.57-.03.55-.04.52-.08.5-.09.46-.12.44-.13.41-.15.38-.18.36-.19.32-.21.29-.23.26-.24.23-.26.2-.28.17-.29.13-.3.11-.32.07-.34.04-.35.01-.37h.34l-.01.39-.05.39-.08.37-.11.35-.16.34-.18.32-.22.3-.25.28-.28.27-.32.24-.34.23-.38.2-.4.19-.43.16-.46.14-.48.12-.51.09-.54.08-.56.05-.59.03h-.62l-.63-.01-.66-.05-.68-.07-.71-.09-.73-.12-.75-.15-.77-.17-.79-.2-.81-.23-.83-.26-.85-.28h.02zm.06-.33h.01l.02.01-.03-.01zm-6.24 4.7l-.32.06-.06-.36-.04-.34-.02-.33v-.32l.02-.31.03-.29.05-.29.07-.27.09-.26.11-.24.12-.24.14-.22.16-.2.18-.19.19-.18.21-.16.22-.15.24-.13.26-.12.27-.1.28-.09.3-.07.31-.06.33-.04.34-.03.35-.01h.37l.38.02.4.03.41.05.42.06.43.08-.06.33-.43-.08-.41-.06-.39-.04-.39-.04-.37-.01-.35-.01-.34.02-.33.02-.31.04-.29.06-.28.06-.26.09-.25.09-.24.11-.22.12-.2.13-.18.15-.18.16-.15.17-.14.18-.13.2-.11.2-.09.23-.09.23-.06.25-.05.26-.03.27-.02.29.01.3.01.31.04.33.05.34zm3.93 13.7l-.16-.3.72-.41.61-.41.5-.42.39-.42.3-.42.22-.41.13-.42.06-.41-.01-.42-.07-.43-.13-.42-.19-.44-.23-.43-.28-.44-.32-.44-.35-.44-.38-.43-.4-.44-.41-.44-.43-.43-.43-.42-.43-.43-.42-.42-.41-.41-.39-.41-.37-.41-.34-.4-.3-.39-.26-.39-.21-.38-.16-.39-.1-.37.32-.06.09.32.15.35.2.35.24.37.3.38.32.39.36.4.39.4.41.42.42.41.43.43.43.43.43.43.42.44.4.44.39.45.36.45.32.45.3.46.24.46.2.46.14.47.08.47.01.47-.06.47-.16.47-.23.46-.33.46-.43.45-.52.44-.63.43-.74.42zm-6.45-1.37l.19-.27.02.01.09.08.12.09.12.08.15.09.15.08.17.09.19.08.19.09.2.08.21.07.22.08.23.07.23.08.23.06.24.06.23.06.24.06.24.04.24.05.23.03.23.04.22.02.22.02.21.01.21.01.19-.01.18-.01.17-.02.16-.02.14-.04.12-.04.11-.05.16.3-.14.07-.16.05-.16.04-.18.03-.19.02-.2.01H42.98l-.22-.01-.23-.02-.23-.03-.24-.03-.24-.04-.24-.05-.25-.05-.24-.05-.25-.06-.24-.06-.24-.07-.23-.07-.23-.08-.23-.08-.22-.08-.21-.08-.2-.09-.19-.09-.18-.09-.17-.09-.15-.09-.15-.1-.12-.09-.12-.1.02.01zm.19-.27l.02.01-.02-.01zM22 55.89l.02-.33.46.03.48.06.48.07.49.09.51.1.51.13.52.13.53.16.54.16.54.18.54.19.55.2.55.22.54.22.55.23.55.24.55.25.54.25.54.26.54.27.52.27.53.27.51.28.5.28.5.28.48.28.47.28.46.28.44.27.43.28.41.27.39.27-.19.27-.39-.26-.4-.27-.43-.27-.44-.28-.45-.27-.47-.28-.48-.28-.49-.28-.5-.28-.51-.27-.52-.27-.52-.27-.53-.26-.54-.26-.54-.25-.54-.25-.55-.24-.54-.23-.55-.22-.54-.21-.54-.2-.54-.19-.54-.18-.52-.16-.53-.15-.51-.14-.51-.12-.49-.1-.49-.09-.47-.07-.46-.05-.45-.04zM.81 57.98l.29-.18-.04-.04.52.38.52.31.52.25.51.2.53.15.52.09.53.05.53.01.54-.03.55-.07.56-.1.56-.13.58-.15.59-.18.6-.2.61-.21.62-.22.64-.23.66-.24.67-.24.69-.23.7-.23.73-.22.74-.21.76-.19.79-.17.8-.15.83-.11.86-.09.87-.05.9-.02.93.03-.02.33-.91-.02-.89.01-.86.05-.84.09-.81.12-.8.14-.77.17-.76.19-.73.2-.72.22-.7.23-.68.23-.67.24-.65.23-.64.24-.63.22-.62.21-.6.2-.6.18-.59.16-.58.13-.57.1-.57.07-.56.04-.56-.01-.56-.05-.55-.1-.55-.16-.55-.21-.54-.26-.55-.33-.54-.4-.04-.04zm.04.04L.82 58l-.01-.02.04.04z" class="fil1"/><g><path fill="#c5e3d7" d="M22.83 41.75c-2.73-2.76-1.03-6.85-.87-8.99.99-13.63-9.26-11.87-13.97-11.38-7.19.75-8.05-6.57-3.78-7.66 4.36-1.11 7.36 2.32 10.66-.59C17.78 10.92 18.25 2.1 23.36.39c4.24-1.42 4.95 4.06 1.16 8.48-2.17 2.53-.51 7.45 2.4 6.62 4.4-1.25 9.45-11.62 13.9-6.39 2.26 6.88-5.82 6.73-11.29 11.81-4.66 6.08 4.06 24.2-6.7 20.84z"/><path id="1" d="M21.79 32.75l.33.03-.02.21-.02.22-.04.23-.04.24-.04.25-.05.25-.05.26-.05.27-.05.28-.05.28-.05.28-.05.29-.04.29-.04.3-.03.3-.02.3-.02.31v.6l.02.3.03.31.04.3.06.29.07.3.09.29.11.29.12.28.15.28.17.27.19.27.21.26.23.25-.23.24-.25-.27-.23-.28-.2-.28-.18-.3-.16-.29-.13-.31-.12-.3-.09-.31-.08-.31-.06-.32-.04-.31-.03-.32-.02-.32-.01-.31.01-.32.01-.31.03-.31.03-.31.04-.3.04-.3.05-.29.05-.29.05-.29.05-.27.05-.27.05-.26.05-.26.04-.24.04-.24.04-.22.02-.21.02-.2zM8.01 21.55l-.03-.34.45-.05.49-.05.51-.05.54-.06.56-.05.57-.04.59-.03.61-.01h.61l.62.02.61.04.62.08.62.1.61.13.6.17.58.21.57.25.55.3.53.35.51.4.47.45.44.51.4.57.37.64.32.7.27.77.23.84.17.91.12 1 .06 1.07v1.15l-.06 1.25-.33-.03.06-1.23v-1.13l-.06-1.05-.12-.97-.17-.9-.22-.81-.26-.74-.31-.68-.35-.61-.39-.54-.41-.49-.45-.43-.48-.38-.51-.33-.52-.28-.55-.25-.56-.2-.58-.16-.59-.13-.6-.1-.61-.07-.6-.04-.61-.03h-.6l-.59.02-.58.03-.58.04-.55.05-.53.05-.51.05-.49.06-.46.05zm-3.84-7.99l.09.33-.37.11-.34.15-.31.17-.28.21-.25.22-.22.25-.19.27-.16.29-.13.3-.1.32-.07.32-.04.33-.01.34.03.34.05.34.09.34.12.33.16.33.18.31.22.31.25.29.29.27.32.25.35.23.39.2.42.18.46.14.5.11.53.08.57.04h.61l.65-.05.03.34-.67.04-.63.01-.59-.04-.56-.09-.52-.11-.49-.16-.45-.19-.42-.21-.38-.25-.34-.27-.31-.29-.27-.31-.24-.33-.2-.34-.17-.36-.13-.36-.09-.37-.07-.37-.02-.37.01-.37.04-.37.07-.35.12-.35.14-.33.18-.32.21-.3.24-.27.28-.25.31-.23.34-.19.37-.17.4-.12zm10.6-.56l.2.26h.01l-.32.26-.31.22-.32.2-.32.16-.31.13-.32.1-.31.08-.32.05-.32.03-.31.01-.32-.01-.32-.02-.31-.04-.32-.04-.32-.06-.32-.07-.33-.07-.32-.07-.33-.07-.33-.07-.34-.07-.34-.07-.34-.05-.35-.05-.35-.04-.36-.03-.36-.01h-.37l-.37.03-.38.04-.39.07-.39.09-.09-.33.42-.09.4-.07.4-.05.39-.02.38-.01.38.02.37.02.36.04.36.05.35.06.34.07.34.07.34.07.33.07.32.08.32.07.32.06.31.05.31.05.3.03.3.03h.3l.3-.01.29-.02.3-.05.29-.07.29-.1.29-.12.3-.15.29-.18.3-.21.3-.25h.01zm-.01 0h.01-.01zM23.3.23l.11.32-.45.18-.43.21-.4.25-.38.28-.36.31-.34.35-.32.37-.31.39-.29.42-.27.44-.27.45-.24.47-.24.48-.23.49-.22.49-.21.51-.21.5-.2.5-.2.5-.2.5-.19.49-.2.47-.19.47-.2.45-.21.43-.21.41-.21.39-.23.36-.24.34-.25.3-.26.28-.28.23-.2-.26.25-.22.24-.25.24-.29.22-.32.22-.34.21-.38.2-.4.2-.42.2-.45.2-.46.19-.47.19-.49.2-.49.2-.5.2-.51.21-.5.21-.51.22-.5.24-.5.24-.49.25-.47.27-.47.28-.45.3-.43.32-.41.34-.38.35-.36.38-.33.4-.3.43-.26.45-.23.48-.19zm1.35 8.75l-.26-.22.34-.41.31-.42.29-.42.26-.42.23-.42.21-.42.19-.42.15-.41.14-.4.11-.4.09-.4.06-.37.04-.37.01-.36-.01-.34-.03-.32-.05-.3-.08-.29-.09-.26-.12-.24-.14-.22-.16-.2-.17-.17-.2-.14-.22-.12-.24-.09-.26-.06-.28-.03h-.31l-.33.03-.35.07-.37.11-.11-.32.4-.11.38-.08.36-.04h.35l.32.04.3.07.28.1.26.14.23.17.21.2.18.23.16.25.14.28.1.29.09.32.05.33.04.35.01.36-.02.37-.04.39-.06.4-.1.41-.11.41-.14.43-.16.42-.2.43-.21.44-.24.43-.27.43-.3.44-.32.42-.34.43zm2.23 6.35l.09.32-.29.07-.28.03h-.27l-.27-.04-.25-.06-.24-.09-.23-.12-.22-.14-.21-.17-.19-.18-.18-.21-.17-.22-.15-.23-.13-.25-.12-.27-.11-.27-.09-.29-.08-.29-.06-.3-.04-.31-.02-.31-.01-.31.01-.31.04-.31.04-.32.07-.3.1-.31.11-.29.13-.29.15-.28.18-.27.2-.25.26.22-.19.23-.16.25-.14.25-.13.27-.1.27-.08.28-.07.29-.04.29-.03.29-.01.29v.3l.03.29.04.28.05.29.07.27.08.27.1.25.12.24.12.23.14.22.15.2.16.19.17.16.18.15.19.12.2.1.21.08.21.05.23.03h.23l.24-.02.26-.06zm14.1-6.28l-.32.1.03.06-.4-.43-.41-.35-.41-.26-.4-.19-.41-.12-.41-.05-.41.01-.41.06-.42.12-.43.16-.43.22-.43.25-.44.3-.44.32-.44.36-.44.38-.44.4-.44.41-.44.43-.44.43-.45.43-.44.43-.43.42-.44.41-.44.39-.44.38-.43.34-.44.32-.43.28-.43.25-.43.19-.43.15-.09-.32.39-.14.41-.18.41-.24.41-.27.43-.3.42-.34.43-.37.43-.39.44-.4.43-.42.44-.43.44-.43.45-.43.44-.43.45-.42.44-.4.45-.39.45-.36.45-.34.45-.3.45-.27.45-.22.46-.18.46-.13.45-.07.46-.01.46.06.45.13.45.21.45.29.44.37.43.46.03.06zm-.03-.06l.02.03.01.03-.03-.06zM29.67 21.01l-.27-.2.02-.02.53-.47.53-.44.55-.41.56-.38.56-.37.56-.34.57-.33.56-.31.56-.3.55-.29.55-.28.53-.27.52-.27.5-.26.48-.27.46-.27.44-.27.41-.28.38-.29.35-.3.32-.31.29-.32.24-.34.21-.36.17-.39.12-.4.09-.44.03-.46-.01-.5-.07-.53-.12-.57-.18-.62.32-.1.18.63.13.6.07.57.01.53-.03.5-.09.47-.14.44-.18.42-.23.39-.26.37-.31.34-.33.33-.37.32-.4.29-.42.29-.45.28-.47.28-.48.26-.51.27-.52.27-.53.28-.54.27-.55.29-.56.3-.56.3-.55.33-.56.34-.56.36-.54.37-.54.41-.53.43-.51.45.02-.02zm-.27-.2l.01-.01.01-.01-.02.02zm-6.68 21.06l.23-.24-.07-.04.94.25.83.13.72.02.61-.08.53-.18.44-.27.37-.35.3-.43.25-.51.18-.58.14-.66.1-.71.05-.77.02-.82-.02-.86-.04-.89-.05-.93-.07-.94-.07-.96-.07-.98-.07-.97-.05-.98-.04-.97-.01-.95.02-.93.05-.91.1-.87.15-.84.2-.79.26-.74.34-.69.41-.62.27.2-.39.59-.32.65-.25.71-.2.77-.14.81-.1.85-.05.89-.02.93.01.94.04.96.05.97.07.97.07.97.08.97.06.94.06.93.04.9.01.87-.02.84-.05.78-.1.74-.14.68-.2.63-.27.55-.34.48-.42.4-.5.3-.59.2-.68.1-.76-.02-.87-.14-.97-.26-.06-.04zm.06.04l-.04-.01-.02-.03.06.04z" class="fil1"/></g></g></svg>