<svg xmlns="http://www.w3.org/2000/svg" width="63" height="65" fill-rule="evenodd" clip-rule="evenodd" image-rendering="optimizeQuality" shape-rendering="geometricPrecision" text-rendering="geometricPrecision"><defs><style>.fil3{fill:#f5b2b6}.fil2{fill:#f08bb2}.fil5{fill:#c5e3d7}.fil0{fill:#99cfba}.fil1{fill:#2b2a29;fill-rule:nonzero}</style></defs><g id="Слой_x0020_1"><path d="M17.38 2.3c1.03.16 1.73 1.11 1.57 2.12-.15 1.02-1.11 1.72-2.13 1.56-1.03-.16-1.73-1.11-1.57-2.13.15-1.01 1.11-1.71 2.13-1.55z" class="fil0"/><path id="1" d="M19.12 4.45l-.33-.05.01-.09v-.08l.01-.09-.01-.08v-.09l-.01-.08-.02-.08-.02-.08-.02-.08-.02-.08-.03-.07-.04-.08-.03-.07-.04-.07-.05-.07-.04-.07-.06-.06-.05-.07-.05-.05-.06-.06-.07-.06-.06-.05-.07-.05-.07-.04-.07-.04-.07-.04-.08-.03-.08-.04-.08-.02-.08-.03-.09-.02-.08-.01.05-.34.1.02.1.03.1.02.1.04.1.03.09.05.08.04.09.05.08.06.08.05.08.06.08.07.07.07.06.07.07.07.06.08.06.08.05.08.05.09.04.09.04.09.03.09.04.09.02.1.03.09.01.1.02.1v.1l.01.1-.01.11-.01.1-.01.1zm-2.33 1.7l.05-.34.09.01.09.01H17.19l.08-.01.09-.01.08-.01.08-.02.08-.02.08-.03.07-.03.08-.03.07-.04.07-.03.07-.05.07-.05.07-.05.06-.05.06-.05.05-.06.06-.06.05-.07.05-.06.04-.07.05-.07.03-.08.04-.07.03-.08.03-.08.02-.08.02-.09.02-.08.33.05-.02.1-.02.1-.03.1-.03.1-.04.09-.04.09-.05.09-.05.09-.05.08-.06.08-.06.08-.07.07-.06.07-.08.07-.07.06-.08.06-.08.05-.08.06-.09.04-.09.05-.09.04-.09.03-.09.03-.1.03-.09.02-.1.02-.1.01-.1.01H17l-.1-.01-.11-.01zm-1.71-2.32l.33.05-.01.09V4.31l.01.08.02.08.02.08.02.08.03.08.02.07.04.08.04.07.04.07.04.07.05.07.05.06.05.06.06.06.05.06.07.05.06.06.07.04.07.05.07.04.07.04.08.03.08.03.08.03.08.02.09.03.08.01-.05.34-.1-.02-.1-.03-.1-.03-.1-.03L16.3 6l-.09-.04-.09-.04-.09-.05-.08-.06-.08-.06-.08-.06-.07-.06-.08-.07-.06-.07-.07-.07-.06-.08-.05-.08-.05-.08-.05-.09-.05-.09-.04-.09-.03-.09-.04-.09-.02-.1-.02-.09-.02-.1-.01-.1-.01-.1-.01-.1.01-.11.01-.1.01-.1zm2.33-1.7l-.05.34-.09-.01-.09-.01H17.01l-.08.01-.09.01-.08.01-.08.02-.08.02-.08.03-.07.03-.08.03-.07.04-.07.03-.07.05-.07.04-.07.05-.06.06-.06.05-.05.06-.06.06-.05.07-.05.06-.04.07-.05.07-.03.07-.04.08-.03.08-.03.08-.02.08-.02.08-.02.09-.33-.05.02-.1.02-.11.03-.09.03-.1.04-.09.04-.09.05-.09.05-.09.05-.08.06-.08.06-.08.07-.07.07-.07.07-.07.07-.06.08-.06.08-.06.08-.05.09-.04.08-.05.1-.04.09-.03.09-.03.1-.03.09-.02.1-.02.1-.01.11-.01h.2l.1.01.11.01z" class="fil1"/><path d="M14.51 3.88l.13-.19c-.08-.03-.16-.07-.24-.11-1.94-1.21-3.64-1.51-5.11-1-1.52.53-2.89 1.93-4.14 4.09-2.52 5.21-3.32 9.77-2.69 13.83.63 4.04 2.69 7.64 5.89 10.93.02.03.04.05.06.07l.07-.09c.13-.17.38-.19.54-.06l.06.04c.16.14.19.38.06.55l-.54.68c-.06.15-.15.29-.27.41-.05.05-.11.09-.17.13l-.68.86c-.13.16-.38.19-.54.06l-.06-.05c-.17-.13-.19-.37-.06-.54l.21-.27c-.1-.05-.2-.12-.29-.22C3.21 29.37.94 25.38.23 20.84c-.7-4.51.17-9.52 2.91-15.18l.03-.07C4.7 2.93 6.49 1.18 8.56.46c2.13-.74 4.46-.38 7.03 1.2.11.07.2.15.27.24l.16-.22c.11-.18.36-.22.53-.1l.06.04c.18.12.22.36.1.54l-1.5 2.19c-.12.18-.36.22-.54.1l-.06-.04c-.18-.12-.22-.36-.1-.53z" class="fil2"/><path id="1" d="M14.78 3.78l-.13.19-.28-.19.13-.19.19-.06.09.25zm-.09-.25l.22.07-.13.18-.09-.25zm-.37.19l.17-.29h.01v.01l.02.01.01.01-.01-.01.02.01.01.01h.02l.01.01h.01l.01.01.01.01h.01l.02.01h.01l.01.01h.02l.01.01-.11.32-.02-.01h-.01.01l-.02-.01h-.01l-.01-.01h-.01l-.02-.01h.01-.02l-.01-.01h-.01l-.01-.01h-.02v-.01h-.02v-.01h-.01l-.02-.01-.02-.01-.01-.01-.02-.01-.02-.01h.01zm.17-.29l-.07-.04.07.04zm-5.14-.69l-.11-.32.14-.04.15-.05.14-.03.15-.04.15-.02.15-.03.15-.01.16-.01.15-.01h.31l.16.01.16.01.16.02.17.02.16.03.17.03.16.04.17.05.17.05.17.05.17.06.17.07.18.07.17.07.18.08.17.09.18.09.18.09.19.11.18.1.18.11-.17.29-.18-.11-.18-.1-.18-.1-.17-.09-.17-.09-.18-.08-.17-.08-.16-.07-.17-.07-.17-.06-.16-.06-.16-.05-.16-.05-.16-.04-.16-.03-.15-.04-.16-.03-.15-.02-.15-.01-.15-.02h-.15l-.14-.01-.15.01h-.14l-.14.01-.15.02-.14.02-.13.02-.14.04-.13.03-.14.04-.13.04zm-4.05 4L5 6.59v-.01l.12-.2.12-.2.12-.19.12-.19.12-.18.12-.18.13-.18.12-.17.13-.16.12-.17.13-.15.13-.15.13-.15.13-.15.13-.13.13-.14.13-.13.14-.12.13-.12.13-.11.14-.11.14-.11.14-.1.13-.09.15-.09.14-.09.14-.08.14-.07.15-.07.14-.06.15-.06.15-.06.11.32-.14.05-.14.06-.13.06-.14.06-.13.07-.13.08-.13.08-.14.08-.13.09-.13.1-.13.09-.13.11-.13.11-.13.11-.13.12-.12.12-.13.13-.12.13-.13.14-.13.14-.12.15-.12.15-.12.16-.13.16-.12.17-.12.17-.12.18-.12.17-.12.19-.11.19-.12.19-.12.2.01-.01zM5 6.59v-.01.01zM2.63 20.47l-.34.05-.05-.38-.05-.39-.04-.39-.03-.4-.02-.4-.01-.4v-.81l.02-.41.02-.41.03-.42.04-.42.05-.42.06-.43.07-.42.08-.44.09-.43.09-.44.11-.44.11-.45.13-.45.13-.45.14-.46.16-.46.16-.46.17-.47.19-.47.19-.47.2-.48.21-.48.22-.49.24-.49.3.15-.23.49-.22.48-.21.47-.2.48-.19.47-.18.46-.17.46-.16.46-.15.46-.15.45-.13.44-.12.45-.11.44-.11.43-.09.44-.09.43-.08.42-.06.42-.06.42-.05.42-.04.41-.03.41-.03.41-.01.4-.01.4.01.4.01.39.02.39.03.39.04.38.04.38.06.38zm5.84 10.85l-.24.23-.3-.31-.29-.31-.29-.32-.27-.32-.28-.31-.26-.33-.26-.32-.25-.33-.24-.32-.24-.33-.23-.33-.22-.34-.21-.33-.21-.34-.2-.34-.19-.34-.18-.35-.18-.34-.17-.35-.16-.36-.15-.35-.15-.35-.14-.36-.13-.37-.12-.36-.11-.37-.11-.36-.09-.38-.09-.37-.08-.38-.07-.37-.07-.39.34-.05.06.38.07.37.08.37.08.36.1.37.1.36.11.36.12.35.13.36.14.35.14.35.15.35.16.34.16.34.18.35.18.33.18.34.2.34.2.33.21.33.22.33.23.32.23.33.24.32.25.32.25.32.26.32.27.31.28.32.28.31.29.31.29.31zm0 0l-.03-.04.03.04zm-.19.07l.26.21-.26.01h.01l-.02-.02.01.02-.02-.02.02.01h-.01l-.01-.02.01.01-.02-.02.01.02-.02-.02.02.01-.02-.02.03.03-.02-.01-.02-.02v-.01l.02.02h-.01l-.01-.02.03.03-.02-.02-.02-.02.01.02v-.01l.24-.23.02.02-.01-.02-.02-.01.04.03-.02-.01h.01l.01.02h.01l-.02-.01-.02-.02.04.04-.01-.02.02.02-.02-.01.02.02-.01-.02v.01l.02.02-.02-.02.02.02-.01-.01.02.02-.02-.02.01.01.01.01h-.26zm.26.21l-.13.17-.13-.16.26-.01zm.07-.09l-.07.09-.26-.21.07-.09.26.21zm.51-.3l-.2.27h-.01v-.01H8.9l-.02-.01-.01-.01h-.01l-.01-.01h-.04l-.01-.01h-.03l-.02.01h-.04v.01H8.7l-.02.01h-.01l-.01.01-.01.01-.01.01-.01.01h-.01l-.01.01-.26-.21.02-.02.02-.02.02-.02.01-.02.03-.01.02-.02.02-.01.03-.02.02-.01.03-.01.02-.01.03-.01.02-.01h.02l.03-.01h.06l.02-.01h.03l.03.01h.05l.02.01.03.01h.03l.02.01.03.01.02.02.03.01.02.01.02.02.03.02-.01-.01zm-.14.32l-.06-.05.2-.27.06.05h.01l-.21.27zm.29.51l-.26-.21v-.01l.01-.01.01-.01v-.01h.01v-.03l.01-.01v-.04l.01-.01-.01-.02v-.05l-.01-.01v-.01l-.01-.01-.01-.02v-.01l-.01-.01-.01-.01-.01-.01h-.01l-.01-.01.22-.27.02.02.02.02.02.02.02.02.01.02.02.03.01.02.01.02.02.03.01.02.01.02.01.03.01.03v.02l.01.03v.18l-.01.03-.01.03v.02l-.01.02-.01.03-.02.03-.01.02-.01.02-.02.03-.02.02zm-.8.47l.54-.68.26.21-.54.68-.29-.16.03-.05zm-.03.05l.01-.03.02-.02-.03.05zm.01.59l-.24-.24v-.01l.01-.01.01-.01.01-.01h.01l.01-.02h.01l.01-.02.01-.01.01-.01.01-.02.01-.01v-.01l.01-.01.01-.01.01-.01v-.01l.01-.01.01-.01v-.01l.01-.02.01-.01v-.01l.01-.01v-.01l.01-.01.01-.02v-.01l.01-.01v-.02l.01-.01.32.11-.01.02v.01l-.01.02-.01.02-.01.02v.01l-.01.02-.01.01-.01.02-.01.01v.02l-.01.01-.01.02-.01.02-.01.01-.01.01-.01.02-.01.01-.01.02-.01.02-.01.01-.01.01-.01.01-.02.02-.01.01-.01.02-.01.01-.01.01-.01.02-.02.01-.01.01-.01.02zm-.24-.24v-.01l.19-.18-.19.19zm.09.35l-.27-.21.04-.03h.01v-.01h.01V33v.01V33l.02-.01.02-.01h-.01.01l.01-.01.01-.01-.01.01.02-.01h-.01l.02-.01v-.01l-.01.01h.01l.01-.01.01-.02v.01l.01-.01v-.01.01l.01-.01.24.24h-.01l-.01.02h-.01l-.01.01-.01.01-.02.02h-.01.01l-.02.01h.01l-.02.01v.01-.01l-.01.01-.01.01-.01.01-.02.01v.01l-.02.01h-.01l-.01.01.04-.04zm-.27-.21l.02-.02.02-.01-.04.03zm-.68.86l.68-.86.27.21-.69.86-.26-.21zm-.51.3l.2-.27h.01v.01l.01.01.02.01h.01l.01.01h.01l.01.01H7.22l.01-.01h.02l.01-.01h.02l.01-.01.01-.01h.01v-.01l.01-.01h.01l.01-.01.01-.01.26.21-.02.02-.02.03-.02.01-.01.02-.03.02-.02.02-.02.01-.03.01-.02.02-.03.01-.02.01-.03.01h-.02l-.02.01h-.03l-.03.01h-.13l-.03-.01h-.03l-.02-.01L7 34.3l-.02-.01-.03-.01-.02-.01-.03-.02-.02-.01-.02-.01-.03-.02h.01zm.14-.31l.06.04-.2.27-.06-.05h-.01l.21-.26zm-.29-.51l.26.21-.01.01-.01.01v.01l-.01.01v.02l-.01.01v.04l-.01.01v.02l.01.01v.04l.01.02v.01h.01v.01l.01.01v.01l.01.01v.01l.01.01h.01l.01.01.01.01-.22.26-.02-.02-.02-.02-.02-.02-.02-.02-.02-.02-.01-.02-.01-.02-.02-.03-.01-.02-.01-.03-.01-.02-.01-.02-.01-.03v-.03l-.01-.02v-.16l.01-.03v-.03l.01-.02v-.02l.01-.03.01-.02.02-.03.01-.03.01-.02.02-.02.02-.02zm.47-.06l-.21.27-.26-.21.21-.27.21-.05.05.26zm-.05-.26l.18.09-.13.17-.05-.26zm-.49.05l.24-.23.01.01.01.01h.01l.01.02h.01l.01.01.01.01v.01h.01l.02.01.01.01v.01h.01l.01.01.01.01h.01v.01l.02.01h.01v.01h.01l.02.01.01.01h.02v.01h.01l-.15.3h-.02l-.01-.01h-.01l-.01-.01-.01-.01h-.01l-.01-.01-.02-.01-.01-.01-.01-.01-.02-.01h-.01l-.01-.01-.01-.01h-.01l-.01-.01-.02-.01-.01-.01-.01-.02-.02-.01-.01-.01h-.01v-.01l-.02-.01-.01-.01v-.01l-.01-.01-.02-.01v-.01l-.01-.01zM.06 20.87l.34-.05.07.42.08.41.09.42.09.41.11.41.11.4.13.4.13.4.14.4.15.39.16.39.16.39.18.38.18.39.19.37.2.38.21.38.22.37.22.37.23.37.25.36.24.36.26.36.26.36.28.35.28.36.29.35.29.35.3.34.32.35.31.34.33.34-.24.23-.33-.34-.33-.35-.31-.34-.3-.35-.3-.36-.29-.35-.29-.36-.27-.36-.27-.36-.26-.36-.26-.37-.24-.37-.24-.37-.22-.38-.22-.37-.21-.39-.21-.38-.19-.39-.19-.38-.18-.39-.17-.4-.16-.4-.15-.4-.14-.4-.14-.4-.12-.41-.12-.42-.11-.41-.1-.42-.08-.42-.08-.43-.08-.42zM2.99 5.58l.3.16v-.01l-.25.53-.24.52-.23.52-.22.52-.2.51-.2.51-.18.5-.18.5-.17.5-.15.49-.14.49-.14.49-.12.48-.11.48-.11.47-.09.47-.08.47-.07.47-.07.46-.05.46-.04.45-.04.45-.02.45-.02.45v.88l.02.43.02.44.04.42.04.43.05.42.06.43-.34.05-.06-.43-.05-.43-.04-.44-.04-.43-.02-.44-.01-.45-.01-.44.01-.45.01-.45.02-.46.04-.46.04-.46.06-.46.06-.47.08-.47.08-.48.09-.48.11-.48.11-.48.13-.49.13-.49.15-.5.15-.5.17-.5.18-.51.18-.5.2-.52.21-.51.22-.52.23-.53.24-.53.26-.53zm0 0v-.01.01zm.33.09l-.03.07-.3-.16.03-.07.01-.01.29.17zm-.3-.16l.01-.01-.01.03v-.02zM8.5.3l.11.32-.19.07-.18.07-.19.08-.18.09-.18.09-.18.1-.18.1-.18.11-.18.12-.17.12-.17.12-.18.14-.17.14-.17.14-.16.15-.17.16-.16.16-.17.16-.16.18-.16.18-.16.18-.15.19-.16.2-.16.2-.15.2-.15.21-.15.22-.15.22-.15.23-.14.24-.15.24-.14.24-.29-.17.14-.25.15-.24.15-.24.15-.23.15-.23.15-.22.16-.22.16-.21.15-.2.16-.2.17-.2.16-.19.16-.18.17-.18.17-.17.17-.17.17-.16.17-.16.18-.14.17-.15.18-.14.18-.13.18-.13.19-.12.18-.11.19-.11.19-.1.19-.1.19-.09.2-.08.19-.08.2-.07zm7.18 1.22l-.18.29-.24-.15-.23-.13-.24-.13-.23-.12-.23-.12-.23-.11-.23-.1-.23-.09-.22-.09-.22-.08-.23-.07-.22-.07-.22-.06-.22-.05-.21-.05-.22-.04-.21-.03-.22-.02-.21-.02-.21-.02h-.62l-.2.02L10 .3l-.2.02-.2.04-.2.04-.2.04-.2.05-.19.06-.2.07L8.5.3l.21-.07.2-.06.21-.06.21-.05.21-.04.21-.03.22-.03.21-.02.22-.01.21-.01h.22l.22.01.22.01.22.02.22.03.23.03.22.04.23.05.23.05.22.07.23.07.23.07.24.08.23.09.23.1.24.11.24.11.23.11.24.13.25.13.24.14.24.15zm-.18.29zm.22 0L16 2l-.27.01V2l-.01-.01-.01-.01-.01-.01-.01-.01-.01-.01-.01-.01-.01-.01-.01-.01h-.01l-.01-.01-.01-.01v-.01h-.01l-.01-.01-.01-.01-.01-.01-.01-.01-.01-.01h-.02l-.01-.01-.01-.01h-.01l-.01-.01.18-.29h.01l.01.01.02.01v.01l.01.01h.01l.02.01.01.01.02.01.01.01.01.02h.01l.01.01.01.01.01.01h.01l.01.01.01.01.01.01.01.01.01.02.02.01v.01l.01.01.01.01h.01l.01.01.01.02.01.01-.27.02zM16 2l-.12.18-.15-.17L16 2zm.15-.23L16 2l-.28-.19.16-.23.27.19zm.49-.33l-.18.28h-.01v-.01h-.02V1.7h-.01l-.01-.01h-.03l-.02-.01h-.06l-.01.01h-.03l-.01.01h-.01l-.01.01-.02.01-.01.01-.01.01h-.01v.01l-.01.01-.01.01h-.01l-.27-.19.01-.02.02-.02.02-.02.02-.02.02-.02.02-.02.02-.02.03-.01.01-.01.03-.01.02-.02.03-.01.02-.01h.03l.03-.01.02-.01h.05l.03-.01h.05l.03.01h.05l.03.01.03.01.02.01.03.01.02.01.03.01.02.01.02.02zm-.12.32l-.06-.04.18-.28.07.04-.19.28zm.33.49l-.28-.19.01-.01v-.01l.01-.01.01-.02v-.03l.01-.01V1.9l-.01-.01v-.02l-.01-.01v-.02l-.01-.01-.01-.01v-.01h-.01V1.8l-.01-.01-.01-.01h-.01v-.01l-.01-.01.19-.28.02.02.02.02.02.02.02.02.02.02.02.01.02.03.01.03.01.01.02.02.01.03.01.03.01.02.01.02v.03l.01.03v.03l.01.02v.1l-.01.04v.02l-.01.03-.01.03v.02l-.01.02-.01.03-.02.03-.01.02-.02.02zm-1.78 2.01l1.5-2.2.28.19-1.5 2.2-.28-.19zm-.49.33l.19-.28.01.01.01.01h.01l.02.01h.02v.01h.09l.01-.01h.02l.01-.01h.01l.02-.01.01-.01h.01l.01-.01.01-.01v-.01h.01l.01-.01.01-.01.28.19-.02.02-.02.02-.02.02-.01.02-.03.03-.02.01-.02.02-.03.01-.02.01-.02.02-.02.01-.03.01-.02.01-.03.01h-.02l-.03.01h-.03l-.02.01h-.11l-.03-.01h-.02l-.03-.01-.03-.01h-.02l-.02-.01-.03-.01-.03-.02-.02-.01-.02-.02zm.13-.32l.06.04-.19.28-.07-.04.2-.28zm-.34-.49l.28.19-.01.01v.01l-.01.01v.01l-.01.01v.03l-.01.01V4.12l.01.02v.03l.01.01.01.01v.01l.01.01.01.01.01.02.01.01.01.01h.01l.01.01-.2.28-.02-.02-.02-.01-.02-.02-.02-.02-.02-.03-.02-.01-.01-.02-.02-.03-.01-.02-.02-.03-.01-.02-.01-.02-.01-.03v-.02l-.01-.03-.01-.03v-.05l-.01-.02v-.06l.01-.02v-.06l.01-.03.01-.02.01-.03.01-.02.01-.03.01-.02.01-.03.02-.02z" class="fil1"/><path d="M18.89 33.97l.47 2.67c-1.13 3.26-3.74 6.16-7.59 5.42-3.58-1.17-4.37-4.09-4.29-8.04l1.92-2.53c2.78-1.35 8.21-.18 9.49 2.48z" class="fil3"/><path id="1" d="M19.2 36.67L18.72 34l.34-.06.47 2.67-.01.09-.32-.03zm.33-.06l.01.05-.02.04.01-.09zm-7.82 5.61l.11-.32h-.02l.35.05.34.04.33.02h.33l.32-.03.31-.03.3-.06.3-.07.29-.09.28-.1.27-.12.27-.13.25-.15.26-.16.24-.17.24-.18.23-.2.22-.21.21-.21.21-.23.2-.24.19-.24.18-.26.18-.26.16-.27.16-.27.15-.28.15-.28.13-.29.13-.3.11-.29.11-.3.32.11-.11.31-.12.3-.13.3-.14.3-.15.3-.15.29-.17.28-.17.28-.18.27-.19.26-.2.26-.21.24-.21.24-.22.23-.24.21-.24.21-.25.19-.25.18-.27.17-.28.16-.28.14-.29.12-.3.11-.3.1-.32.07-.32.06-.33.04-.34.02-.35.01-.35-.02-.36-.04-.37-.06-.02-.01zm.02.01l-.02-.01.02.01zm-4.39-8.32l.27.21.04-.1-.01.37v.35l.01.36.01.34.02.34.03.33.03.33.04.31.05.31.05.31.07.29.07.29.08.28.09.27.11.26.11.25.12.25.13.24.14.22.15.23.17.21.17.2.19.19.21.19.21.18.23.17.24.15.26.15.28.15.28.13.31.12.32.11-.11.32-.33-.11-.32-.13-.3-.14-.29-.15-.27-.16-.26-.17-.25-.18-.23-.18-.21-.2-.2-.21-.19-.22-.18-.22-.16-.24-.16-.24-.13-.26-.13-.25-.12-.27-.1-.28-.1-.28-.08-.29-.08-.3-.07-.31-.05-.31-.05-.32-.04-.33-.04-.33-.02-.34-.02-.34-.02-.35v-1.1l.03-.1zm-.03.1v-.05l.03-.05-.03.1zm2.22-2.42l-1.92 2.53-.27-.21 1.92-2.52.07-.05.2.25zm-.27-.2l.03-.03.04-.02-.07.05zm9.8 2.55l-.34.06.02.05-.13-.23-.14-.23-.17-.21-.19-.21-.21-.21-.23-.19-.24-.18-.26-.17-.28-.17-.29-.15-.29-.15-.32-.13-.32-.12-.33-.12-.33-.1-.34-.09-.35-.08-.35-.06-.35-.06-.35-.04-.35-.03-.35-.02-.35-.01-.34.01-.33.02-.33.04-.32.04-.31.06-.3.08-.28.09-.28.1-.26.11-.14-.3.27-.13.3-.1.3-.1.32-.08.32-.06.34-.05.34-.03.35-.02.35-.01h.36l.36.02.37.03.36.05.36.05.36.07.36.08.35.1.35.1.34.12.33.12.33.15.31.15.3.16.29.17.27.18.26.2.25.2.22.22.21.23.18.23.16.25.14.26.02.04zm-.02-.04l.01.02.01.02-.02-.04z" class="fil1"/><path d="M11.54 44.05c-.2.97-.33 1.92-.39 2.83-.35 4.65.92 8.48 3.18 11.32 2.27 2.85 5.52 4.73 9.12 5.46.7.14 1.43.24 2.16.3 4.22.31 8.62-1.06 12.71-3.85 4.06-2.76 7.79-6.92 10.74-12.21l.87.48c-3.02 5.44-6.87 9.71-11.05 12.56-4.27 2.92-8.9 4.35-13.35 4.01-.76-.05-1.53-.16-2.28-.31-3.83-.78-7.28-2.78-9.7-5.82-2.41-3.03-3.77-7.1-3.4-12.01.07-.95.21-1.94.41-2.96l.98.2z" class="fil1"/><path d="M10.81 41.75l1.43.28-.56 2.83-1.42-.28z" class="fil0"/><path id="1" d="M12.2 42.2l-1.42-.28.07-.34 1.42.28.13.2-.2.14zm.07-.34l.17.04-.04.16-.13-.2zm-.76 2.97l.56-2.83.33.06-.55 2.83-.2.14-.14-.2zm.34.06l-.04.17-.16-.03.2-.14zm-1.56-.48l1.42.28-.06.34-1.42-.28-.14-.2.2-.14zm-.06.34l-.17-.04.03-.16.14.2zm.75-2.97l-.56 2.83-.33-.06.56-2.83.2-.14.13.2zm-.33-.06l.03-.17.17.03-.2.14z" class="fil1"/><path d="M57.34 29.89c3.73.57 6.3 4 5.74 7.64-.56 3.65-4.04 6.15-7.77 5.57-3.73-.57-6.29-3.99-5.73-7.64.56-3.65 4.03-6.14 7.76-5.57z" class="fil2"/><path id="1" d="M63.24 37.56l-.33-.05.04-.33.03-.33v-.33l-.01-.33-.02-.32-.04-.32-.06-.32-.07-.31-.09-.3-.1-.3-.12-.29-.13-.29-.15-.28-.15-.28-.18-.26-.18-.26-.19-.25-.21-.24-.22-.23-.23-.22-.24-.2-.26-.2-.26-.19-.27-.17-.28-.16-.29-.15-.3-.14-.31-.12-.31-.1-.33-.09-.33-.08-.33-.06.05-.34.35.07.35.08.34.09.33.12.32.12.32.14.3.16.3.17.28.18.28.2.26.2.25.22.25.24.23.24.22.25.2.26.19.27.18.28.17.29.15.29.14.3.12.31.11.32.1.32.07.33.06.33.04.33.03.34.01.35-.01.34-.02.35-.05.35zm-7.96 5.71l.06-.34.34.05.34.03h.66l.33-.03.33-.03.32-.06.32-.07.31-.08.31-.1.29-.11.3-.13.28-.14.28-.15.27-.17.26-.18.25-.19.25-.2.23-.21.22-.23.21-.23.2-.25.19-.25.18-.27.16-.27.15-.28.14-.29.12-.3.1-.31.09-.32.08-.32.06-.33.33.05-.06.35-.08.34-.1.33-.11.32-.13.32-.14.31-.16.3-.17.28-.18.28-.2.27-.21.26-.22.25-.24.23-.24.23-.25.21-.27.2-.27.19-.29.17-.29.16-.3.15-.31.13-.31.12-.32.1-.33.09-.34.08-.33.05-.35.04-.34.03h-.35l-.35-.01-.36-.02-.36-.05zm-5.87-7.84l.33.06-.04.33-.02.33-.01.33.01.32.02.32.05.32.05.32.08.31.08.3.11.3.11.3.13.29.15.28.16.27.17.27.18.25.2.25.2.24.22.23.23.22.24.21.26.19.26.19.27.17.28.17.29.14.3.14.31.12.31.11.33.09.33.08.34.05-.06.34-.35-.06-.35-.08-.33-.1-.34-.11-.32-.13-.31-.14-.31-.16-.29-.16-.29-.19-.28-.19-.26-.21-.25-.22-.24-.23-.24-.24-.21-.25-.21-.26-.19-.27-.18-.28-.17-.29-.15-.3-.14-.3-.12-.31-.11-.31-.09-.33-.08-.32-.06-.33-.04-.34-.03-.34-.01-.34.01-.35.02-.35.05-.35zm7.96-5.71l-.05.34-.35-.04-.33-.03-.34-.01-.33.01-.33.02-.33.04-.32.05-.32.07-.31.09-.3.09-.3.12-.3.12-.28.14-.28.16-.27.16-.26.18-.25.19-.25.2-.23.22-.22.22-.21.23-.2.25-.19.25-.17.27-.17.27-.15.29-.13.29-.13.3-.1.31-.09.31-.08.32-.06.34-.33-.06.06-.34.08-.34.1-.33.11-.33.13-.32.14-.3.16-.3.17-.29.18-.28.2-.27.21-.25.22-.25.24-.24.24-.22.26-.21.26-.2.28-.19.28-.18.29-.16.3-.14.31-.14.32-.12.32-.1.32-.09.34-.07.33-.06.35-.04.34-.02.35-.01.35.01.36.03.36.04z" class="fil1"/><path d="M57.25 31.83c2.55.39 4.31 2.73 3.93 5.23-.38 2.5-2.77 4.21-5.32 3.82-2.55-.4-4.31-2.74-3.93-5.24.39-2.5 2.77-4.2 5.32-3.81z" class="fil3"/><path id="1" d="M61.35 37.09l-.34-.05.03-.23.02-.22v-.44l-.02-.22-.03-.22-.04-.21-.05-.21-.06-.21-.07-.2-.08-.2-.08-.19-.1-.19-.11-.19-.11-.18-.13-.17-.13-.17-.14-.16-.15-.16-.16-.15-.16-.14-.17-.13-.18-.13-.18-.12-.19-.11-.2-.1-.2-.09-.21-.08-.21-.07-.22-.06-.23-.05-.22-.05.05-.33.24.04.24.06.24.07.23.07.22.09.22.1.21.11.2.11.2.13.19.14.19.14.17.15.17.16.16.17.15.17.14.18.14.19.12.19.12.2.1.21.1.21.08.21.08.22.06.22.05.23.05.23.03.23.01.24.01.24v.23l-.02.24-.03.25zm-5.52 3.95l.06-.33.23.03.23.02h.45l.22-.02.22-.02.22-.04.21-.05.21-.05.21-.07.2-.08.2-.08.2-.1.19-.1.18-.11.18-.12.17-.13.16-.14.16-.14.15-.16.14-.15.14-.17.12-.17.12-.18.11-.19.1-.19.1-.2.08-.2.07-.21.06-.21.05-.22.04-.22.34.05-.05.24-.05.23-.07.23-.08.23-.08.22-.1.21-.11.21-.12.2-.13.19-.14.19-.14.18-.16.17-.16.16-.17.16-.17.14-.19.14-.19.13-.19.12-.21.11-.21.11-.21.09-.22.08-.22.07-.23.06-.23.05-.23.04-.24.03-.24.02h-.24l-.24-.01-.25-.02-.25-.03zm-4.07-5.42l.34.05-.03.22-.02.23v.44l.02.22.03.21.04.22.05.21.06.2.07.21.08.19.08.2.1.19.11.18.12.18.12.18.13.17.14.16.15.15.16.15.16.14.17.14.18.12.18.12.19.11.2.1.2.09.21.08.21.07.22.07.23.05.23.04-.06.33-.24-.04-.24-.06-.24-.06-.23-.08-.22-.09-.22-.1-.21-.1-.2-.12-.2-.13-.19-.13-.18-.15-.18-.15-.17-.16-.16-.16-.15-.18-.14-.18-.14-.19-.12-.19-.11-.2-.11-.2-.09-.21-.09-.22-.08-.22-.06-.22-.05-.23-.05-.23-.02-.23-.02-.23-.01-.24.01-.24.01-.24.03-.24zm5.52-3.96l-.05.33-.23-.03-.23-.01-.23-.01-.23.01-.22.01-.22.03-.22.03-.21.05-.21.06-.21.06-.2.08-.2.09-.2.09-.18.1-.19.12-.17.12-.17.13-.17.13-.16.15-.15.15-.14.16-.13.16-.13.18-.12.18-.11.18-.1.19-.09.2-.09.2-.07.21-.06.21-.05.22-.04.23-.34-.05.05-.24.05-.24.07-.23.08-.23.09-.22.09-.21.11-.2.12-.2.13-.2.14-.18.14-.18.16-.17.16-.17.17-.15.18-.15.18-.14.19-.13.2-.12.2-.11.21-.1.21-.09.22-.08.22-.08.23-.06.23-.05.23-.04.24-.03.24-.01.24-.01.24.01.25.02.25.03z" class="fil1"/><path fill="#e31e24" d="M12.82 33.82l1.31.2-.27 1.73 1.56.24-.16 1.03-1.55-.24-.27 1.73-1.31-.2.27-1.73-1.63-.25.16-1.03 1.62.25z"/><path d="M27.31 4.88c-.95-.39-2.05.05-2.44 1-.4.95.06 2.04 1.01 2.44.96.4 2.05-.05 2.45-1 .39-.95-.06-2.04-1.02-2.44z" class="fil0"/><path id="1" d="M24.71 5.81l.04-.09.05-.09.05-.09.06-.09.05-.08.07-.08.06-.07.07-.07.07-.07.08-.06.08-.06.08-.06.08-.05.09-.05.09-.04.08-.04.1-.03.09-.03.09-.03.1-.02.1-.02.09-.01.1-.01h.2l.1.01.1.01.1.02.1.02.1.03.1.03.1.04-.13.31-.08-.03-.09-.03-.08-.02-.08-.02-.09-.01-.08-.01-.08-.01H26.5l-.08.01-.08.01-.08.01-.08.02-.08.02-.08.02-.08.03-.07.04-.07.03-.08.04-.06.05-.07.04-.07.05-.06.05-.06.06-.06.06-.05.06-.05.07-.05.06-.05.08-.04.07-.04.07-.04.08-.31-.13zm1.11 2.66l-.1-.04-.09-.05-.09-.05-.09-.05-.08-.06-.08-.06-.07-.07-.08-.07-.06-.07-.07-.08-.06-.07-.05-.08-.06-.09-.05-.08-.04-.09-.04-.09-.03-.09-.04-.09-.02-.1L24.6 7l-.02-.1-.01-.1-.01-.09-.01-.1v-.1l.01-.1.01-.1.02-.1.02-.1.03-.1.03-.1.04-.1.31.13-.03.09-.02.08-.03.08-.02.08-.01.09-.01.08v.08l-.01.08.01.09v.08l.01.08.02.08.02.08.02.08.02.07.03.08.04.08.03.07.04.07.05.07.04.07.05.06.06.06.06.06.06.06.06.06.06.05.07.05.08.04.07.05.08.04.08.03-.13.31zm2.67-1.08l-.05.09-.04.09-.05.09-.06.09-.06.08-.06.08-.07.08-.07.07-.07.06-.07.07-.08.06-.08.05-.09.05-.08.05-.09.04-.09.04-.09.04-.09.03-.1.02-.09.03-.1.01-.1.01-.1.01h-.2l-.1-.01-.1-.01-.1-.01-.1-.03-.1-.02-.09-.04-.1-.04.13-.31.08.03.08.03.08.02.09.02.08.02.08.01h.09l.08.01.09-.01h.08l.08-.01.08-.02.08-.01.08-.03.08-.02.07-.03.08-.03.07-.04.07-.04.07-.04.07-.05.06-.05.06-.05.07-.06.05-.06.06-.06.05-.06.05-.07.04-.07.05-.08.04-.07.03-.08.32.13zm-1.11-2.66l.09.04.1.05.09.05.08.06.08.05.08.07.08.06.07.07.07.07.06.08.06.08.06.08.05.08.05.09.05.08.03.09.04.09.03.1.03.09.02.1.02.09.01.1.01.1v.2l-.01.1-.01.09-.02.11-.02.1-.02.09-.04.1-.03.1-.32-.13.03-.08.03-.09.02-.08.02-.08.01-.08.01-.09.01-.08v-.16l-.01-.09-.01-.08-.01-.08-.02-.08-.02-.07-.03-.08-.03-.08-.03-.07-.04-.08-.04-.07-.04-.07-.05-.06-.05-.07-.05-.06-.06-.06-.06-.06-.06-.05-.07-.06-.07-.05-.07-.04-.08-.04-.07-.04-.08-.04.13-.31z" class="fil1"/><path d="M28.95 7.72l-.01-.22c.08.01.16.02.25.02 2.29-.01 3.9.61 4.89 1.82 1.02 1.24 1.47 3.14 1.41 5.64-.56 5.76-2.25 10.07-4.9 13.21-2.64 3.13-6.27 5.13-10.72 6.27l-.09.03-.01-.12c-.03-.21-.22-.36-.43-.33l-.08.01c-.21.03-.36.22-.33.43l.11.86c-.03.16-.03.33.02.49.01.07.04.14.07.2l.14 1.09c.02.21.22.36.43.33l.07-.01c.21-.02.36-.21.33-.43l-.04-.33c.12.01.24-.01.37-.04 4.9-1.26 8.92-3.49 11.88-7 2.95-3.49 4.81-8.21 5.42-14.48l.01-.08c.07-3.06-.54-5.49-1.93-7.18-1.43-1.74-3.62-2.65-6.63-2.63-.13.01-.25.03-.36.06l-.01-.27c-.02-.21-.2-.37-.41-.36l-.08.01c-.21.01-.37.19-.36.4l.14 2.66c.01.21.2.37.41.36h.07c.22-.01.38-.2.37-.41z" class="fil2"/><path id="1" d="M28.77 7.5l.2-.17.13.16.02.23-.34.01-.01-.23zm0 0l-.01-.22.21.05-.2.17zm.42.19h-.13.01-.01l-.02-.01h-.07l-.01-.01h-.04l-.01-.01h-.01l.07-.33H29v.01h.05v.01h.04-.01H29.15h-.01.02l.01.01h.02v.33zm0 0zm4.75 1.75l-.08-.1-.1-.11-.1-.1-.1-.09-.1-.1-.11-.09-.11-.08-.12-.09L33 8.6l-.12-.08-.13-.07-.13-.07-.13-.07-.14-.06-.14-.06-.15-.06-.15-.05-.15-.05-.16-.05-.16-.04-.16-.04-.17-.04-.18-.03-.17-.03-.18-.03-.19-.02-.19-.02-.19-.01-.2-.01-.2-.01-.21-.01h-.21v-.33h.43l.21.01.2.01.2.01.2.03.19.02.19.02.18.04.18.03.18.04.17.04.17.05.17.04.16.06.16.06.16.06.15.06.14.07.15.07.14.08.13.08.14.08.12.08.13.1.12.09.12.1.11.1.11.1.11.11.1.11.1.12-.27.21zm1.38 5.52v.02-.9l-.01-.22-.01-.21-.02-.21-.01-.2-.02-.21-.02-.19-.03-.2-.03-.19-.03-.18-.04-.19-.04-.18-.04-.17-.04-.17-.05-.17-.05-.16-.05-.17-.06-.15-.06-.15-.06-.15-.07-.15-.07-.14-.07-.14-.07-.13-.08-.13-.08-.12-.09-.12-.08-.12-.1-.12.27-.21.1.12.09.13.09.13.09.13.08.14.08.14.08.15.07.15.07.15.07.16.06.16.06.16.05.17.06.17.05.18.04.18.05.18.03.19.04.18.03.2.03.19.03.2.02.21.03.21.01.21.02.21.01.22.01.22V15l-.34-.04zm.34.02V15v-.02zm-5.2 13.1l.24-.29.24-.31.23-.31.23-.31.22-.32.21-.33.21-.34.21-.34.19-.36.2-.35.18-.37.18-.37.18-.38.16-.39.17-.4.15-.4.15-.41.15-.42.13-.43.14-.43.12-.45.12-.45.12-.46.1-.46.1-.48.1-.48.09-.49.08-.5.07-.51.07-.52.06-.52.06-.54.34.04-.06.54-.06.52-.07.53-.08.51-.08.5-.09.5-.1.49-.1.48-.11.47-.11.47-.12.45-.13.45-.13.44-.14.43-.15.43-.15.42-.16.41-.16.4-.17.39-.18.39-.19.38-.18.37-.2.37-.2.36-.21.35-.21.34-.22.34-.23.32-.23.33-.23.31-.24.31-.25.3-.26-.22zM19.82 34.3l.42-.11.4-.12.41-.11.39-.13.4-.13.39-.13.38-.14.38-.15.37-.15.37-.16.36-.16.36-.16.35-.18.34-.18.35-.18.33-.19.33-.19.33-.2.32-.21.31-.21.31-.22.31-.23.29-.23.3-.23.28-.24.29-.25.27-.26.27-.26.27-.27.26-.27.25-.28.25-.29.26.22-.26.29-.25.29-.27.28-.27.27-.27.27-.29.26-.28.25-.3.25-.3.24-.3.23-.31.23-.31.23-.32.21-.33.21-.33.21-.34.19-.34.2-.35.18-.35.19-.36.17-.36.17-.37.16-.37.16-.38.16-.38.14-.39.14-.39.14-.4.13-.4.13-.41.12-.41.12-.42.11-.09-.33zm.09.33l.04-.01-.04.01zm.04-.16l-.22-.14.01-.01h.01l-.02.01.02-.01h.01l-.03.01.04-.02h.01l-.04.02.03-.02-.03.01.05-.01-.04.01.04-.01h.01l-.04.01.04-.02-.02.01.04-.01h-.01.02-.01l.09.33h-.02.01-.02l.03-.01-.02.01h-.01l.04-.01-.05.02.03-.02-.04.02h-.01l.04-.01-.03.01.03-.01-.05.01.04-.01-.04.02.02-.01h-.01l-.02.01h.01l-.22-.14.33-.04zm-.11.18l-.2.07-.02-.21.22.14zm-.24-.26l.34-.04.01.12-.33.04-.02-.12zm-.28-.52h.14l.02.01h.03l.03.01.02.01h.03l.02.02.03.01.02.01.02.01.03.02.02.01.02.02.02.02.01.02.02.01.02.03.02.02.01.02.02.02.01.03.01.02.01.03.01.02.01.03.01.02v.03l.01.03-.34.04v-.02l-.01-.01v-.02l-.01-.01v-.02h-.01l-.01-.01v-.01l-.01-.01-.01-.01-.01-.01-.01-.01-.01-.01-.02-.01h-.01l-.01-.01h-.01l-.02-.01h-.08l-.04-.34zm-.04.35l-.04-.34.08-.01.04.34-.08.01zm-.52.28v-.15l.01-.02v-.02l.01-.03.01-.02.01-.03.01-.03.01-.02.01-.02.02-.03.01-.02.01-.02.02-.02.02-.02.02-.02.02-.02.01-.01.02-.02.03-.01.03-.02.02-.01.02-.01.03-.01.02-.01.03-.01.02-.01h.03l.03-.01.04.34h-.03l-.01.01h-.01l-.01.01h-.02l-.01.01-.01.01-.01.01-.01.01-.01.01-.01.01v.01l-.01.01-.01.01v.01l-.01.01v.02l-.01.01V34.46l-.34.04zm.45.82v.05l-.34-.01-.11-.86.34-.04.11.86zm0 0v.05-.05zm-.32.55v-.01l-.01-.02v-.02l-.01-.02v-.05l-.01-.02v-.05l-.01-.02v-.21l.01-.02V35.37l.01-.03v-.03l.34.06-.01.02v.03l-.01.02V35.66l.01.01v.04l.01.01v.05l.01.01v.01l-.33.08zm.33-.08zm-.26.26l.01.06v-.01l-.01-.02v-.01.01-.01l-.01-.02v-.01h-.01v-.02l-.01-.01v-.02l-.01-.01-.01-.02v-.01.01-.04.02l-.01-.03v-.02h-.01v-.02l.33-.08v.02h.01v.01l-.01-.01.01.02v.01-.01.01l.01.02v.01-.01.01l.01.01v.02h.01v.02l.01.01-.01-.01.01.01v.02h.01-.01.01v.01l.02.05-.34.04zm.32-.09l.01.02.01.03-.02-.05zm.15 1.14l-.33.04-.14-1.09.34-.04.13 1.09zm.29.52l-.03.01h-.09l-.02-.01h-.03l-.03-.01h-.02l-.03-.01-.02-.01-.03-.01-.03-.01-.02-.02-.01-.01-.03-.01-.03-.02-.01-.02-.02-.01-.02-.02-.02-.02-.02-.03-.01-.01-.02-.03-.01-.02-.01-.02-.02-.03-.01-.02-.01-.03-.01-.02v-.03l-.01-.03v-.03l.33-.04.01.01v.03l.01.01v.02l.01.01.01.01v.01l.01.01.01.01.01.01h.01l.01.02h.01l.01.01.02.01h.01l.01.01h.02l.01.01H19.67l.05.33zm.03-.34l.04.33-.07.01-.05-.33.08-.01zm.52-.29l.01.03v.06l-.01.02v.06l-.01.03v.02l-.01.03-.01.03-.01.02-.01.02-.01.02-.02.03-.02.02-.01.02-.02.02-.01.02-.02.02-.02.02-.02.02-.02.01-.03.02-.02.01-.02.01-.03.02-.02.01-.03.01-.02.01h-.03l-.03.01h-.03l-.04-.33.01-.01h.03l.01-.01h.02l.01-.01.01-.01h.01l.01-.01.01-.01.01-.01v-.01l.01-.01.01-.01.01-.01v-.01l.01-.01v-.01l.01-.01v-.03l.01-.01v-.05l.33-.05zm-.38-.29l.18-.19.16.14.04.34-.33.05-.05-.34zm0 0l-.02-.21.2.02-.18.19zm.58.11h-.02l-.02.01h-.04l-.02.01h-.03l-.01.01h-.08l-.02.01h-.17l-.01-.01.02-.33h.15l.02-.01h.07l.01-.01h.04l.01-.01h.02-.01l.09.33zm0 0l.04-.01-.04.01zm11.97-7.06l-.28.33-.29.32-.3.31-.3.31-.31.3-.31.29-.32.28-.33.28-.33.27-.34.26-.34.26-.35.25-.36.24-.36.23-.37.23-.37.22-.38.22-.38.2-.39.21-.4.19-.4.19-.4.18-.41.18-.42.17-.42.16-.43.16-.44.15-.43.14-.45.14-.45.14-.45.13-.46.12-.09-.33.46-.12.45-.13.44-.13.44-.14.43-.14.43-.15.43-.16.41-.16.42-.16.4-.18.4-.18.4-.18.39-.2.38-.2.38-.2.37-.21.37-.22.36-.22.36-.23.35-.24.34-.25.34-.25.33-.26.33-.26.32-.27.31-.28.31-.29.3-.29.3-.3.29-.31.28-.32.28-.32.26.22zm5.46-14.58v.01l-.06.58-.07.58-.08.57-.08.56-.09.55-.1.54-.1.53-.11.53-.12.51-.13.51-.13.5-.14.49-.15.48-.15.47-.17.47-.16.45-.18.45-.18.44-.19.44-.2.42-.2.42-.21.41-.22.4-.22.39-.23.39-.23.38-.25.37-.25.36-.25.36-.26.35-.27.34-.28.33-.26-.22.27-.32.27-.34.26-.34.25-.35.24-.36.24-.36.23-.38.23-.38.22-.38.21-.4.21-.4.2-.41.19-.42.19-.43.18-.43.17-.45.16-.45.16-.46.16-.46.14-.48.14-.48.13-.5.13-.5.12-.51.11-.52.1-.52.1-.54.09-.55.08-.55.07-.56.07-.57.06-.58.34.02zm0 0v.02-.02zm-.33-.1l.33.02v.08l-.34-.02.01-.08zm.33.02v.01-.01zm-1.96-7.3l.13.17.13.17.12.17.12.18.11.18.11.19.1.19.1.19.1.2.09.2.08.21.08.21.08.21.07.22.07.23.06.22.06.23.05.24.05.24.05.24.04.25.03.25.03.25.03.26.03.26.02.27.01.26.01.28.01.28v.56l-.01.29-.33-.01V14.24l-.01-.27-.01-.27-.01-.26-.02-.26-.02-.26-.03-.25-.03-.25-.04-.24-.04-.24-.04-.24-.05-.23-.05-.23-.06-.22-.06-.22-.06-.22-.07-.21-.08-.2-.07-.21-.09-.2-.08-.19-.09-.19-.1-.19-.1-.18-.1-.18-.11-.17-.11-.17-.12-.16-.11-.16-.13-.16.26-.22zM29.18 5.1l.28.01h.28l.27.01.27.02.27.02.26.03.25.04.25.03.25.05.24.05.24.05.23.06.23.07.22.07.22.08.21.08.21.09.2.09.2.1.2.1.19.11.18.11.19.12.17.13.18.13.16.13.16.14.16.14.16.15.15.16.14.16.14.16-.26.22-.13-.16-.14-.15-.14-.15-.15-.14-.15-.14-.15-.13-.16-.13-.17-.12-.16-.12-.18-.11-.17-.11-.19-.1-.18-.1-.19-.09-.2-.09-.2-.08-.2-.08-.21-.08-.21-.07-.22-.06-.22-.06-.23-.05-.24-.05-.23-.04-.25-.04-.24-.03-.26-.03-.25-.02-.27-.02-.26-.01-.28-.01h-.27V5.1zm0 0zm-.19.22l-.22-.15h.02l.02-.01h.01l.02-.01h.02l.01-.01h.03l.01-.01h.04l.01-.01h.06l.01-.01H29.13l.01-.01h.04v.34h-.04l-.01.01h-.09l-.01.01h-.04l-.02.01h-.02l-.02.01h-.02l-.01.01h-.03l-.22-.15.34-.02zm-.12.17l-.21.08-.01-.23.22.15zm-.23-.42l.33-.01.02.26-.34.02-.01-.27zm-.25-.54h.09l.02.01h.03l.03.01.03.01.02.01h.02l.03.02.02.01.03.01.02.01.02.02.02.02.02.01.02.02.02.02.02.02.01.02.02.02.01.02.02.03.01.02.01.03.01.02.01.03.01.03v.03l.01.02v.06l-.33.01v-.01h-.01v-.04l-.01-.01V5l-.01-.01v-.02h-.01l-.01-.01v-.01l-.01-.01-.01-.01h-.01v-.01l-.01-.01h-.01l-.01-.01h-.01l-.01-.01h-.01v-.01h-.03l-.02-.01h-.04l-.02-.34zm-.06.34l-.02-.33h.01l.07-.01.02.34h-.08zm-.54.25v-.08l.01-.03v-.03l.01-.03.01-.03v-.01l.01-.03.02-.03.01-.02.01-.02.01-.03.02-.02.02-.02.01-.02.02-.02.02-.02.02-.02.02-.01.02-.02.03-.01.02-.02.02-.01.02-.01.03-.01.03-.01.02-.01h.04l.01-.01h.06l.02.33h-.01v.01h-.04l-.01.01h-.01l-.01.01h-.01l-.01.01-.01.01h-.01l-.01.01-.01.01-.01.01v.01h-.01v.01l-.01.01-.01.01v.02h-.01v.03h-.01V5.1l-.34.02zm.48 2.64l-.33.02-.15-2.66.34-.02.14 2.66zm.25.54h-.12l-.02-.01h-.03l-.03-.01-.02-.01-.02-.01-.03-.01-.02-.01-.03-.02-.02-.01-.02-.02-.02-.01-.02-.02-.02-.02-.02-.02-.02-.02-.01-.02-.02-.02-.01-.02-.02-.03-.01-.02-.01-.03-.01-.02-.01-.02-.01-.03v-.03l-.01-.03v-.05l.33-.02v.01l.01.01v.03l.01.02v.01l.01.01v.01l.01.01.01.01v.01h.01l.01.01.01.01v.01h.01l.01.01h.01l.01.01h.01l.01.01.02.01h.07l.02.34zm.06-.34l.01.34h-.07l-.02-.34h.08zm.54-.24v.08l-.01.03v.02l-.01.03-.01.03v.02l-.01.03-.02.02-.01.03-.01.02-.01.02-.02.03-.02.02-.02.02-.01.01-.02.02-.02.02-.02.02-.02.01-.03.02-.02.01-.02.01-.03.01-.02.01-.03.01-.03.01-.03.01h-.02l-.02.01h-.04l-.01-.34h.01l.02-.01h.03l.01-.01h.01l.01-.01h.01v-.01h.01l.01-.01.01-.01.01-.01.01-.01.01-.01.01-.01v-.01l.01-.02v-.01l.01-.02v-.01l.01-.01v-.05l.34-.01z" class="fil1"/><g><path d="M54.26 39.35c.25.11.49.25.7.41 1.02.48 2.2.61 3.5.47l-2.58 3.94c-.69 1.19-2.08 1.89-3.54 1.66-1.9-.29-3.21-2.04-2.93-3.9.06-.39.19-.76.38-1.1.03-.06.06-.12.1-.17l2.33-3.97c.53 1.22 1.22 2.08 2.04 2.66z" class="fil3"/><path id="1" d="M55.04 39.61l-.15.3-.03-.02-.02-.01-.02-.01-.02-.02-.02-.01-.01-.02-.03-.01-.02-.02-.01-.01-.03-.01-.02-.02-.02-.01-.02-.01-.02-.01-.02-.02-.02-.01-.02-.01-.02-.01-.02-.01-.02-.02-.03-.01-.02-.01-.02-.01-.02-.01-.02-.02h-.02l-.03-.02-.02-.01-.02-.01-.02-.01-.03-.01-.02-.01-.02-.01.13-.31.03.01.02.01.03.01.02.02.03.01.02.01.02.01.03.01.03.02.02.01.02.01.03.02.02.01.02.01.02.01.03.02.02.01.02.01.03.02.02.01.02.02.03.01.02.01.02.02.03.02.02.01.01.01.03.02.02.02.02.01.02.02.03.01-.03-.01zm-.15.3l-.02-.01-.01-.01.03.02zm3.71.41l-.28-.18.16.26-.13.01-.12.01-.12.01-.12.01h-.12l-.12.01h-.48l-.11-.01h-.12l-.11-.01-.12-.01-.11-.01-.11-.02-.12-.01-.11-.02-.11-.02-.11-.02-.11-.02-.11-.03-.1-.02-.11-.03-.11-.03-.1-.04-.1-.03-.11-.04-.1-.04-.1-.04-.1-.04-.1-.05.15-.3.09.04.09.04.1.04.09.03.1.04.1.03.09.03.1.03.1.03.1.02.11.03.1.02.1.02.11.02.1.01.11.02.1.01.11.01.11.01.11.01h.11l.11.01H57.74l.11-.01h.12l.12-.01.11-.01.12-.01.12-.01.16.26zm-.16-.26l.36-.04-.2.3-.16-.26zm-2.7 4.02l2.58-3.94.28.18-2.58 3.95-.29-.18.01-.01zm-.01.01l.01-.01-.01.01zm.15.08l.15.09-.15-.09zm-.15-.08l.01-.01-.01.01zM52.31 46l.05-.34.14.02.12.02h.52l.12-.02.13-.01.12-.02.12-.03.12-.03.12-.03.12-.04.11-.04.11-.05.12-.05.11-.06.1-.05.1-.07.11-.06.1-.07.09-.08.1-.07.09-.08.08-.08.09-.09.08-.09.08-.09.07-.1.07-.1.07-.1.06-.1.3.17-.07.12-.08.11-.08.11-.08.1-.08.1-.1.1-.09.1-.09.09-.1.09-.11.08-.11.08-.1.08-.12.07-.11.07-.12.06-.12.06-.12.06-.12.05-.13.05-.13.04-.13.04-.13.03-.14.03-.13.02-.14.02-.14.01-.14.01h-.28l-.14-.01-.14-.01-.15-.02zm-3.06-4.09l.33.05-.02.16-.01.17-.01.16.01.16.01.16.02.16.03.16.04.15.04.16.05.14.06.15.06.14.08.14.07.14.09.13.09.13.1.12.1.12.11.12.12.11.12.1.12.1.13.09.14.09.14.08.14.07.15.07.15.06.16.05.16.05.17.03.16.03-.05.34-.18-.03-.18-.04-.18-.06-.17-.05-.17-.07-.16-.07-.16-.09-.16-.08-.15-.1-.14-.1-.14-.11-.13-.11-.13-.12-.12-.13-.11-.13-.11-.14-.1-.14-.09-.14-.09-.15-.08-.16-.07-.16-.07-.16-.05-.16-.05-.17-.04-.17-.03-.17-.03-.18-.01-.18v-.36l.01-.18.03-.18zm.39-1.17l.29.18.01-.01-.02.04-.02.02-.01.03-.02.03-.01.03-.02.04-.01.03-.02.03-.01.03-.01.03-.01.03-.02.03-.01.04-.01.03-.01.03-.02.03-.01.04-.01.03-.01.03-.01.04-.01.03-.01.03-.01.04v.03l-.01.04-.01.03-.01.03-.01.04v.03l-.01.04v.03l-.01.04-.33-.05v-.04l.01-.04.01-.04v-.04l.01-.04.01-.03.01-.04.01-.04.01-.04.01-.03.01-.04.01-.04.01-.04.01-.03.01-.04.01-.03.02-.04.01-.04.01-.04.02-.03.01-.03.01-.04.02-.04.02-.03.01-.03.02-.04.01-.03.02-.03.01-.04.02-.03.02-.04.02-.03v-.01zm0 .01v-.01.01zm.15.08l-.15-.09.15.09zm-.15-.08v-.01.01zm.3.16l-.01.01-.29-.18.3.17zm0 0l-.01.01.01-.01zm-.2-.34l.29.18-.02.03.01-.01-.01.01v.01-.01l-.01.02-.01.01v.01l-.01.01v.01l-.01.01v.01-.01.01h-.01v.02h-.01v.01l-.01.01v.01l-.3-.16v-.01l.01-.01v-.01h.01v-.01l.01-.01v-.01l.01-.02h.01-.01l.01-.01.01-.02.01-.01.01-.01h-.01l.02-.02h-.01l.01-.01.01-.02-.01.02.01-.01.01-.01h-.01zm.29.18l.01-.01-.01.01zm2.34-3.97l-2.34 3.97-.29-.18 2.34-3.97.3.02-.01.16zm-.29-.18l.17-.28.13.3-.3-.02zm2.24 2.59l-.13.31-.03-.01-.08-.06-.08-.06-.08-.06-.07-.06-.08-.07-.07-.06-.08-.07-.07-.07-.07-.07-.07-.07-.07-.08-.07-.07-.07-.08-.07-.08-.07-.08-.06-.09-.07-.08-.06-.09-.07-.09-.06-.09-.06-.1-.06-.09-.06-.1-.06-.1-.06-.1-.05-.1-.06-.11-.05-.1-.06-.11-.05-.11-.05-.12-.05-.11.31-.14.05.11.05.11.05.11.05.1.05.11.06.1.05.1.05.09.06.1.06.09.05.09.06.09.06.09.06.08.06.08.06.09.07.07.06.08.06.08.07.07.06.07.07.07.07.07.06.07.07.06.07.07.07.06.07.06.07.06.08.05.07.06.07.05-.03-.02zm-.13.31h-.02l-.01-.01.03.01z" class="fil1"/></g><g><path d="M49.95 46.01l1.15.71-1.24 2.07-1.15-.71z" class="fil0"/><path id="1" d="M51.01 46.86l-1.15-.71.17-.29 1.16.71.05.24-.23.05zm.18-.29l.14.09-.09.15-.05-.24zm-1.47 2.13l1.23-2.07.29.18-1.23 2.06-.24.06-.05-.23zm.29.17l-.09.15-.15-.09.24-.06zm-1.21-.94l1.15.71-.18.29-1.15-.71-.05-.23.23-.06zm-.18.29l-.14-.09.09-.14.05.23zm1.47-2.13l-1.23 2.07-.29-.17 1.23-2.07.23-.06.06.23zm-.29-.17l.09-.15.14.09-.23.06z" class="fil1"/></g><g><path d="M37.77 37.06c.97.89 1.47 1.73 1.19 2.18-.41.66-2.35.2-4.34-1.02-1.98-1.23-3.26-2.76-2.85-3.42.28-.45 1.26-.39 2.48.09l8.64-13.97 3.52 2.18-8.64 13.96z" class="fil5"/><path id="1" d="M39.1 39.33l-.28-.18.01-.02.01-.03.02-.04v-.03l.01-.04v-.08l-.01-.05-.01-.05-.01-.05-.02-.06-.02-.05-.02-.06-.03-.06-.03-.07-.03-.06-.04-.07-.05-.07-.04-.07-.05-.07-.05-.07-.06-.08-.06-.07-.06-.08-.07-.07-.07-.08-.07-.08-.08-.08-.08-.08-.08-.08-.08-.08-.09-.08.23-.25.09.08.09.09.08.08.08.08.08.09.08.08.07.08.07.08.07.08.07.08.06.09.05.07.06.08.05.08.05.08.04.07.04.08.04.07.03.08.03.07.02.07.03.07.01.07.02.07v.07l.01.07-.01.07v.06l-.02.07-.02.06-.02.06-.04.06zm-4.56-.97l.17-.29.19.11.18.11.18.1.18.1.18.09.18.09.18.08.17.08.17.08.17.07.16.06.17.05.15.06.16.05.15.04.14.03.14.04.14.02.13.02.12.01.11.01.11.01.11-.01h.09l.09-.02.07-.01.07-.03.06-.02.05-.03.04-.03.04-.04.03-.04.28.18-.05.08-.07.07-.08.06-.09.05-.09.04-.1.03-.1.03-.11.01-.12.01h-.24l-.13-.01-.14-.01-.14-.03-.15-.02-.15-.04-.15-.04-.16-.04-.16-.05-.16-.05-.17-.07-.17-.06-.18-.07-.18-.08-.18-.08-.18-.08-.18-.09-.19-.1-.18-.1-.19-.11-.19-.11-.18-.11zm-2.91-3.65l.28.17-.02.05-.01.04-.01.05-.01.06.01.07.01.07.02.08.02.08.04.09.04.09.05.09.06.11.07.1.08.1.08.11.09.12.1.11.1.11.11.12.12.12.12.12.13.12.14.12.14.12.15.12.15.12.16.12.16.12.17.12.17.11.18.12.18.11-.17.29-.19-.12-.18-.12-.18-.12-.17-.12-.17-.12-.17-.13-.15-.12-.15-.12-.15-.13-.14-.12-.14-.13-.13-.12-.12-.12-.12-.13-.11-.12-.1-.12-.1-.12-.09-.11-.08-.12-.07-.11-.07-.12-.06-.11-.05-.11-.04-.11-.04-.1-.02-.11-.02-.1v-.2l.02-.09.03-.1.05-.08zm2.48.09l.28.17-.2.07-.11-.04-.11-.04-.11-.04-.11-.03-.1-.03-.1-.03-.1-.03-.1-.03-.1-.02-.09-.02-.09-.02-.09-.01-.09-.01-.08-.01-.08-.01-.08-.01H32.5l-.06.01h-.07l-.06.01-.05.01-.06.01-.04.01-.05.02-.04.02-.03.02-.03.02-.03.02-.03.02-.02.03-.02.02-.28-.17.04-.06.04-.05.05-.04.05-.05.05-.03.06-.04.07-.02.06-.03.07-.02.07-.01.07-.02.08-.01h.08l.08-.01h.08l.08.01h.09l.09.01.1.01.09.01.1.02.09.02.1.02.11.02.1.03.11.03.11.03.11.04.11.03.11.04.12.04.11.05-.2.07zm.28.17l-.07.12-.13-.05.2-.07zm8.64-13.96l-8.64 13.96-.28-.17 8.63-13.97.24-.05.05.23zm-.29-.18l.09-.14.15.09-.24.05zm3.58 2.41l-3.52-2.17.18-.29 3.52 2.18.05.23-.23.05zm.18-.28l.14.09-.09.14-.05-.23zm-8.87 14.01l8.63-13.96.29.18-8.63 13.96-.26.04-.03-.22zm.03.22l-.11-.1.08-.12.03.22z" class="fil1"/></g><g><path d="M47.47 23.79c.79.86 1.15 1.64.87 2.09-.5.81-2.87.24-5.31-1.26-2.43-1.5-3.99-3.38-3.49-4.19.28-.45 1.14-.48 2.26-.15l9.33-15.09c.62-1 1.95-1.31 2.95-.69l2.03 1.25c1 .62 1.31 1.95.69 2.95l-9.33 15.09z" class="fil0"/><path id="1" d="M48.49 25.96l-.29-.17.02-.04.01-.03.01-.03.01-.04.01-.03.01-.04v-.09l-.01-.05v-.05l-.01-.05-.02-.05-.01-.06-.02-.06-.02-.06-.03-.06-.03-.06-.03-.07-.03-.06-.04-.07-.04-.07-.04-.07-.05-.07-.05-.07-.05-.07-.05-.08-.06-.07-.06-.08-.07-.08-.06-.07-.07-.08-.07-.08.25-.23.07.08.07.09.07.08.07.08.06.08.07.08.05.08.06.08.05.07.05.08.05.08.04.07.05.08.04.07.03.08.03.07.03.07.03.07.02.07.02.07.02.07.01.07.01.07v.06l.01.07-.01.06v.07l-.02.06-.01.06-.02.06-.03.06-.03.05zm-5.54-1.2l.17-.28.23.13.22.13.23.13.22.12.22.11.22.11.21.1.22.1.21.09.2.08.21.08.2.07.19.07.19.06.18.04.18.05.17.04.17.03.16.02.15.02.14.01.14.01.13-.01.12-.01.1-.01.1-.02.09-.03.08-.04.06-.03.06-.05.04-.04.04-.05.29.17-.07.1-.08.08-.09.07-.1.06-.11.04-.12.04-.12.03-.14.02-.13.01-.15.01-.15-.01-.16-.01-.17-.02-.17-.03-.17-.03-.19-.04-.18-.05-.2-.05-.19-.06-.21-.07-.2-.07-.21-.08-.21-.09-.22-.09-.22-.1-.22-.1-.22-.11-.23-.12-.23-.12-.23-.13-.22-.14-.23-.14zm-3.55-4.42l.28.18-.03.06-.02.06-.01.07V20.86l.01.1.03.09.03.11.04.11.06.11.06.12.08.13.08.12.09.13.11.14.11.14.12.14.13.14.13.14.15.15.15.14.16.15.17.15.17.14.18.15.19.15.19.15.2.14.21.15.21.14.22.15.22.14-.17.28-.23-.14-.22-.15-.22-.14-.21-.15-.21-.15-.2-.15-.19-.15-.19-.16-.18-.15-.17-.15-.16-.15-.16-.15-.15-.15-.14-.15-.14-.15-.12-.15-.12-.14-.11-.14-.1-.15-.09-.13-.08-.14-.07-.14-.06-.13-.06-.13-.04-.12-.03-.13-.02-.12v-.24l.03-.11.03-.11.06-.1zm2.25-.15l.29.18-.19.07-.1-.03-.1-.03-.1-.02-.1-.02-.09-.02-.09-.02-.1-.02-.08-.01-.09-.01-.09-.01-.08-.01-.08-.01H40.36l-.06.01h-.07l-.06.01-.05.01-.06.02-.05.01-.05.02-.04.02-.04.02-.04.02-.03.02-.03.02-.03.03-.02.02-.03.03-.02.03-.28-.18.03-.05.04-.05.05-.05.04-.04.05-.04.06-.03.05-.03.06-.03.07-.03.06-.02.07-.02.07-.02.07-.01.07-.01.08-.01.07-.01h.25l.08.01h.09l.09.01.09.01.09.01.1.02.1.02.1.02.1.02.1.02.1.03.11.02.11.03-.2.08zm.29.18l-.07.11-.12-.04.19-.07zm9.33-15.09l-9.33 15.09-.29-.18L50.98 5.1l.29.18zm2.9-.93l-.18.29-.08-.05-.09-.05-.09-.04-.09-.03-.1-.03-.09-.03-.09-.02-.1-.02-.1-.01-.09-.01H52.78l-.09.02-.1.01-.09.02-.09.02-.09.03-.09.04-.09.03-.08.04-.09.05-.08.05-.08.05-.08.06-.07.06-.08.06-.06.07-.07.08-.06.08-.06.08-.06.08-.29-.18.07-.1.07-.09.07-.09.08-.09.08-.08.08-.08.09-.07.09-.07.1-.06.09-.06.1-.05.1-.05.11-.04.1-.04.11-.03.1-.03.11-.02.11-.02.11-.01.11-.01H53.09l.11.01.11.01.11.02.11.03.11.03.11.04.11.04.11.05.1.05.1.06zm1.85 1.54l-2.03-1.25.18-.29 2.02 1.25-.17.29zm.93 2.9l-.29-.18.05-.08.05-.09.04-.1.03-.09.03-.09.03-.09.02-.1.02-.09.01-.1.01-.09V7.5l-.01-.1-.01-.09-.01-.1-.02-.09-.03-.09-.02-.09-.04-.09-.03-.09-.04-.09-.05-.08-.05-.08-.05-.08-.06-.08-.06-.08-.07-.07-.07-.07-.07-.06-.08-.07-.08-.05-.08-.06.17-.29.1.07.1.07.09.07.09.08.08.08.07.08.08.09.06.09.07.1.05.09.06.1.05.1.04.1.04.11.03.1.03.11.02.11.02.11.01.11.01.11V7.71l-.01.11-.02.11-.02.11-.02.11-.03.11-.04.11-.04.11-.05.1-.05.11-.06.1zM47.33 23.7l9.33-15.09.29.18-9.33 15.08-.27.03-.02-.2zm.02.2l-.09-.09.07-.11.02.2z" class="fil1"/></g><g><path d="M55.43 11.39c.23.4.3.74.15.98-.14.24-.49.33-.97.29.07-.04.13-.1.17-.17.37-.59-.7-1.92-2.39-2.96-1.69-1.05-3.36-1.42-3.73-.82-.04.07-.07.16-.07.25-.27-.42-.35-.79-.2-1.04.15-.23.48-.33.94-.3l1.44-2.31c.66-1.08 2.09-1.42 3.17-.75l.11.07 1.75-2.84c.18-.29.56-.37.85-.2l.91.57c.29.17.38.55.2.84l-1.75 2.84.1.06c1.08.67 1.42 2.1.75 3.18l-1.43 2.31z" class="fil5"/><path id="1" d="M55.73 12.46l-.29-.18.01-.02.01-.01v-.02l.01-.01v-.02l.01-.02v-.02l.01-.01v-.13l-.01-.03v-.05l-.01-.02-.01-.03v-.03l-.01-.03-.01-.03-.01-.03-.01-.03-.02-.03-.01-.03-.02-.03-.01-.04-.02-.03-.02-.03-.02-.04-.02-.03.3-.17.02.04.02.04.02.03.02.04.02.04.02.04.01.04.02.04.01.04.02.03.01.04.01.04.01.04.01.03.01.04.01.04v.07l.01.03v.1l-.01.04v.04l-.01.03v.04l-.01.03-.01.03-.02.03-.01.04-.02.03-.01.03zm-1.21.05l.17.3-.07-.32.04.01h.27l.03-.01H55l.03-.01h.06l.03-.01.03-.01h.02l.03-.01.02-.01.02-.01.02-.01.03-.01.01-.01.02-.01.02-.01.02-.01.01-.01.01-.01.02-.02.01-.01.01-.02.01-.01.01-.01.29.18-.02.02-.02.04-.03.02-.02.03-.02.02-.03.03-.03.02-.03.02-.03.02-.03.01-.03.03-.03.01-.04.01-.03.02-.04.01-.03.01-.04.01-.04.01-.04.01-.04.01h-.07l-.05.01h-.04l-.04.01h-.22l-.05-.01h-.05l-.07-.32zm.07.32l-.54-.04.47-.28.07.32zm.05-.42l.29.17-.01.01v.01l-.01.01-.01.02h-.01v.01l-.01.01-.01.01-.01.01-.01.01-.01.01-.01.01v.01l-.01.01-.02.01-.01.01-.01.01-.01.01-.02.01-.02.01-.01.01h-.01l-.01.01-.01.01-.17-.3h.01l.01-.01h.01l.01-.01.01-.01v.01-.01l.01-.01.01-.01v.01-.01h.01v-.01h.01v-.01h.01v-.01l.01-.01.01-.01-.01.01.01-.01v-.01.01zM52.3 9.67l.18-.29.16.1.15.11.15.1.15.1.14.11.14.1.14.11.12.11.13.11.12.1.11.11.11.11.11.11.1.1.09.11.09.1.08.11.08.1.07.1.06.1.05.1.05.1.05.1.03.09.03.1.02.09.01.09v.18l-.02.09-.03.08-.04.08-.29-.17.02-.04.01-.04.01-.05.01-.05-.01-.05v-.06l-.02-.07-.02-.07-.03-.08-.03-.07-.04-.09-.05-.08-.06-.09-.06-.09-.07-.1-.07-.09-.09-.1-.08-.1-.1-.1-.09-.1-.11-.1-.11-.11-.11-.1-.12-.1-.13-.11-.13-.1-.13-.1-.14-.1-.14-.1-.15-.1-.15-.1-.15-.1zm-3.49-.87l-.29-.18.05-.07.06-.07.07-.05.08-.05.08-.04.09-.03.09-.02.1-.02.1-.01h.33l.12.01.12.02.13.02.13.03.13.03.13.03.14.05.15.04.14.05.15.06.15.05.15.07.15.07.16.07.16.08.15.08.17.08.15.09.17.09.16.1-.18.29-.16-.09-.15-.1-.16-.08-.15-.08-.15-.08-.16-.08-.14-.07-.15-.06-.15-.06-.14-.06-.14-.05-.14-.05-.14-.04-.13-.04-.12-.03-.13-.03-.12-.03-.11-.02-.11-.01-.1-.01-.1-.01h-.1l-.08.01-.08.01-.08.01-.06.02-.06.02-.05.02-.04.03-.04.02-.03.03-.02.04zm-.36.25l.29-.17-.32.08v-.05l.01-.02v-.03l.01-.03V8.8l.01-.02v-.01l.01-.03v-.01l.01-.01v-.01l.01-.01v-.01l.01-.01v-.02l.01-.02h.01v-.01l.01-.01.29.18h-.01v.01l-.01.02v.01-.01l-.01.01v.03l-.01.01v-.01.04l-.01.01v.05l-.31.08zm.31-.08l-.01.57-.3-.49.31-.08zm-.51-1.14l.29.18-.01.01-.01.02-.01.01v.02l-.01.02v.02l-.01.02v.16l.01.02v.03l.01.03v.03l.01.03.01.03.01.03.01.03.02.04.01.03.02.03.01.04.02.03.02.04.02.04.02.03.02.04.03.04-.29.17-.03-.04-.02-.04-.03-.04-.02-.04-.02-.04-.02-.05-.02-.03-.02-.05-.02-.04-.01-.04-.02-.04-.01-.04-.01-.04-.01-.03-.01-.04-.01-.04-.01-.04v-.04l-.01-.04V8.14l.01-.03v-.04l.01-.04.01-.03.01-.04.01-.03.01-.03.02-.04.02-.03zm.94-.3l.29.18-.16.08H49.03l-.04.01h-.06l-.03.01h-.03l-.02.01-.03.01h-.03l-.02.01-.02.01-.02.01-.03.01-.02.01-.01.01-.02.01-.02.01-.01.01-.02.01-.01.01-.01.02-.01.01-.01.01-.01.02-.01.01-.29-.18.02-.03.02-.03.02-.02.02-.03.03-.02.02-.03.03-.02.03-.02.03-.02.03-.02.03-.01.03-.02.03-.01.03-.02.04-.01.04-.01.03-.01.04-.01.04-.01h.03l.04-.01.04-.01h.04l.04-.01H49.34l-.15.08zm.29.18l-.05.09-.11-.01.16-.08zm1.43-2.31l-1.43 2.31-.29-.18 1.43-2.31.29.18zm3.12-.98l-.18.28-.09-.05-.1-.05-.1-.05-.1-.03-.1-.04-.1-.03-.1-.02-.1-.02-.1-.01-.11-.01H52.64l-.1.01-.1.01-.1.01-.1.02-.1.03-.1.03-.1.04-.09.04-.09.04-.1.05-.09.05-.08.06-.08.06-.08.07-.08.07-.08.07-.07.08-.07.09-.06.08-.06.1-.29-.18.07-.11.07-.1.08-.1.09-.09.08-.08.09-.09.1-.07.09-.08.11-.06.1-.06.1-.06.11-.05.11-.05.11-.04.11-.04.12-.02.12-.03.11-.02.12-.01.12-.01h.24l.12.01.12.02.12.02.12.02.11.04.12.04.11.04.12.05.11.06.11.07zm-.07.35l-.11-.07.18-.28.11.06.05.24-.23.05zm.23-.05l-.09.14-.14-.09.23-.05zm1.76-2.84l-1.76 2.84-.29-.18 1.76-2.84.29.18zm.79-.43l-.18.29-.02-.02-.02-.01h-.02l-.02-.01-.02-.01-.03-.01h-.03l-.03-.01h-.1l-.03.01h-.02l-.02.01h-.02l-.02.01-.02.01-.02.01-.02.01-.02.01-.01.01-.02.01-.02.02-.01.01-.02.02-.01.02-.02.01-.01.02-.01.02-.29-.18.02-.03.02-.03.03-.04.02-.02.03-.03.03-.03.03-.02.03-.02.03-.03.03-.01.04-.02.03-.02.03-.01.04-.02.04-.01.04-.01h.03l.04-.01.03-.01h.12l.04.01h.03l.04.01.04.01.04.01.03.01.04.01.04.02.03.02.04.02zm.73.85l-.91-.56.18-.29.91.56-.18.29zm.43.79l-.29-.18.02-.02.01-.02.01-.02v-.02l.01-.02.01-.02v-.02l.01-.02v-.13l-.01-.02v-.02l-.01-.02v-.02l-.01-.03-.01-.02-.01-.01-.01-.02-.01-.02-.01-.02-.01-.02-.02-.01-.01-.02-.02-.01-.02-.02-.01-.01-.02-.02-.02-.01.18-.29.03.03.03.02.04.02.02.03.03.03.03.03.02.03.03.03.02.03.02.03.01.03.02.04.01.03.02.04.01.03.01.04.01.04v.03l.01.04V2.76l-.01.04-.01.04-.01.04-.01.03-.01.04-.01.03-.02.04-.02.04-.02.03zm-2.04 2.66l1.75-2.84.29.18-1.75 2.84-.23.05-.06-.23zm.06.23l-.15-.09.09-.14.06.23zm.1.07l-.1-.07.17-.29.11.07-.18.29zM57 9.17l-.28-.18.05-.09.05-.1.05-.1.03-.1.04-.1.03-.1.02-.1.02-.11.01-.1.01-.1V7.68l-.02-.1-.01-.1-.02-.1-.03-.1-.03-.1-.03-.1-.05-.09-.04-.1-.05-.09-.05-.09-.06-.08-.06-.09-.07-.08-.07-.08-.07-.07-.08-.07-.09-.07-.08-.06-.1-.06.18-.29.11.07.1.07.1.08.09.08.09.09.08.09.08.09.07.1.06.1.06.1.06.11.05.11.05.11.04.11.04.11.03.12.02.11.02.12.01.12.01.12v.24l-.01.12-.02.12-.02.12-.02.11-.04.12-.04.12-.04.11-.05.12-.06.11-.07.11zm-1.71 2.13l1.43-2.31.28.18-1.43 2.31h-.29l.01-.18zm-.01.18l-.05-.09.06-.09-.01.18z" class="fil1"/></g><g><path d="M10.39 42.27l1.99.42c.09.02.17-.03.19-.12l.1-.48c.02-.09-.03-.17-.12-.19l-1.99-.42c-.09-.02-.17.03-.19.12l-.1.48c-.02.09.03.17.12.19z" class="fil0"/><path id="1" d="M12.35 42.86l-2-.42.07-.33 2 .42-.07.33zm.05-.32l.34.07-.01.01v.02l-.01.01v.02l-.01.01-.01.01-.01.02-.01.03h-.01v.01l-.01.01-.02.02-.01.01h-.01l-.01.01-.02.01v.01l-.02.01-.02.01h-.01l-.02.01h-.01l-.02.01h-.03l-.03.01h-.04l-.02-.01h-.02l.07-.33h-.01.01-.02.02-.01.01-.01.01-.02.01-.01.01v-.01.01h-.01.01v-.01.01l-.01.01.01-.01-.01.01v-.01.01zm.44-.42l-.1.49-.34-.07.11-.49.33.07zm-.33-.06l.08-.33h-.01l.02.01h.01l.02.01h.02l.01.01h.01l.02.02.02.01.02.01.02.02.01.01v.01l.01.01.01.01.01.02h.01l.01.02.01.02v.01l.01.01.01.03v.15l-.33-.07v.01-.01.01-.01.01l-.01-.01.01.01v-.01.02-.01.01h.01l-.01-.01.01.01-.01-.01h.01-.01.01v.01-.01h-.01zm-1.92-.75l2 .42-.08.33-1.99-.42.07-.33zm-.06.32l-.33-.07v.01l.01-.01v-.03l.01-.02.01-.03.01-.01v-.01l.02-.02.01-.01v-.01l.01-.01.01-.01.02-.01.01-.02.01-.01h.01l.02-.02h.02l.02-.01.02-.01.03-.01h.02l.03-.01h.04l.02.01h.03l-.07.33h.01-.01.01-.01.01-.01.01-.01.01-.01.01v-.01.01-.01.01l.01-.01-.01.01v-.01h.01-.01zm-.43.42l.1-.49.33.07-.1.49-.33-.07zm.32.06l-.07.33-.02-.01h-.01l-.01-.01h-.01l-.03-.01-.02-.01-.01-.01-.03-.02-.01-.01h.01l-.02-.01-.02-.02-.01-.01-.01-.01-.01-.02-.01-.01v-.02h-.01v-.02l-.01-.02v-.01l-.01-.02v-.03l-.01-.02v-.05l.01-.02v-.02l.33.07v-.01.01-.01.01-.01.01-.01h-.01v-.01l.01.01.01.01-.02-.02.01.01h-.01v-.01l.01.01h-.01z" class="fil1"/></g><g><path d="M50 44.59l2.37 1.44-.7 1.16-2.38-1.43z" class="fil0"/><path id="1" d="M52.28 46.17l-2.37-1.43.18-.29 2.37 1.43.06.23-.24.06zm.18-.29l.14.09-.08.14-.06-.23zm-.94 1.23l.71-1.17.29.17-.71 1.17-.23.06-.06-.23zm.29.17l-.09.15-.14-.09.23-.06zm-2.43-1.66l2.37 1.43-.17.29-2.37-1.43-.06-.24.23-.05zm-.17.29l-.15-.09.09-.15.06.24zm.93-1.23l-.7 1.17-.29-.18.7-1.16.24-.06.05.23zm-.29-.17l.09-.15.15.09-.24.06z" class="fil1"/></g></g></svg>