<svg xmlns="http://www.w3.org/2000/svg" width="41" height="61" fill-rule="evenodd" clip-rule="evenodd" image-rendering="optimizeQuality" shape-rendering="geometricPrecision" text-rendering="geometricPrecision"><path fill="#99cfba" d="M18.23-.04c4.35 0 7.87 3.66 7.87 8.18 0 3.15-1.7 5.88-4.21 7.25 6.93 9.15 17.59 12.87 18.66 14.53.74 1.37-4.68 5.78-5.73 4.52-1.76-1.37-6.64-7.07-11.3-11.05-.38-.32-.59-.37-.72-.23 1.14 7.17 2.37 12.29 2.68 14.93 1.76 14.55 6.25 18.35 5.88 20.31-.59 2.92-10.37 3.28-10.53.5.13-1.44.74-9.92.02-17.53-.06-.07-.08-.19-.07-.35.01-.11.01-.22.01-.33l-.02-.14c-.19-1.35-1.72-2.19-2.1.13-.8 7.2-1.12 16.63-.98 18.12-.17 2.79-9.8 3.04-10.4.12-.37-1.96 5.45-8.07 6.18-19.91-.09-3.04 1.07-8.96 1.59-15.63-.16.06-.39.24-.76.55-1.21 1.02-8.57 10.29-9.58 10.62-2.34.74-5.43-2.03-4.58-3.56C1.23 29.35 8.65 24 15.28 15.75v-.02c-2.89-1.21-4.92-4.15-4.92-7.59 0-4.52 3.52-8.18 7.87-8.18z"/><path fill="#2b2a29" fill-rule="nonzero" d="M26.27 8.14h-.34l-.01-.41-.03-.41-.05-.4-.06-.4-.09-.38-.1-.39-.12-.37-.14-.36-.16-.36-.17-.34-.18-.34-.2-.32-.22-.32-.23-.3-.24-.29-.26-.28-.26-.27-.28-.25-.29-.23-.3-.23-.32-.21-.32-.19-.33-.18-.34-.16-.35-.14-.36-.13-.37-.1-.37-.09-.38-.07-.38-.05-.39-.04-.4-.01v-.33l.41.01.41.03.4.05.4.08.39.09.38.11.38.13.36.15.36.17.35.18.33.21.33.22.31.23.31.25.29.26.28.28.27.29.25.3.24.32.22.32.21.34.19.35.18.36.16.37.14.38.13.39.11.39.09.41.07.41.05.42.03.42.01.43zm-4.24 7.14l-.27.21.05-.25.23-.13.22-.14.22-.14.21-.15.21-.16.2-.17.2-.17.19-.18.18-.19.18-.19.18-.2.16-.2.16-.21.16-.22.14-.22.14-.23.13-.23.13-.23.12-.25.11-.24.1-.25.09-.26.09-.26.07-.26.07-.26.06-.27.06-.28.04-.27.03-.28.02-.29.02-.28v-.29h.34v.3l-.02.3-.02.29-.04.29-.04.29-.05.28-.07.29-.07.27-.08.28-.09.26-.1.27-.1.26-.12.26-.12.25-.13.24-.14.25-.14.23-.16.23-.15.23-.17.22-.18.21-.18.21-.18.2-.2.19-.2.19-.2.18-.21.17-.22.17-.22.16-.23.15-.23.14-.24.14.06-.26zm-.27.21l-.12-.16.17-.09-.05.25zM40.7 29.84l-.3.16.01.01-.11-.14-.17-.16-.22-.18-.28-.2-.32-.21-.37-.23-.41-.25-.45-.26-.49-.28-.53-.3-.55-.31-.59-.34-.61-.35-.64-.38-.66-.4-.68-.41-.7-.44-.71-.47-.72-.48-.74-.51-.74-.54-.75-.56-.75-.58-.75-.61-.74-.64-.75-.67-.73-.7-.73-.72-.71-.76-.7-.78-.69-.81-.66-.85.27-.21.65.84.68.81.69.78.71.74.72.72.73.69.74.66.74.64.74.6.75.58.74.56.74.53.73.51.72.48.71.46.69.44.68.41.65.4.64.37.61.36.58.33.56.32.52.3.5.28.45.26.41.25.38.23.33.23.29.2.24.2.2.18.15.19v.01zm0-.01v.01-.01zm-5.98 4.74l.2-.26.03.02.08.07.1.05.12.04.15.01.17-.02.19-.04.22-.06.22-.08.24-.1.25-.12.25-.14.26-.16.26-.17.27-.18.26-.19.26-.2.26-.21.24-.22.24-.22.23-.22.21-.23.2-.22.19-.22.16-.22.14-.21.12-.2.09-.19.07-.17.04-.16.01-.14-.01-.11-.04-.1.3-.16.07.18.02.19-.02.2-.05.2-.08.21-.1.22-.13.22-.16.22-.17.23-.19.23-.21.23-.22.23-.23.24-.25.22-.25.22-.27.22-.27.21-.27.2-.27.18-.27.18-.27.16-.27.15-.26.13-.25.11-.25.09-.24.06-.22.05-.22.01-.21-.01-.18-.05-.18-.09-.14-.13.03.02zm.2-.26l.02.01.01.01-.03-.02zM23.41 23.52l.22-.26.44.38.44.39.44.39.44.41.43.41.44.41.43.41.43.42.43.42.42.42.42.42.41.42.41.41.4.41.39.4.38.4.38.39.36.38.36.37.34.35.34.35.32.33.31.32.3.31.28.28.27.27.26.25.24.23.22.21.21.19.18.16.17.14-.2.26-.18-.14-.2-.17-.21-.19-.23-.21-.24-.24-.26-.25-.27-.27-.28-.29-.3-.3-.31-.32-.33-.33-.33-.35-.35-.36-.35-.37-.37-.38-.37-.39-.39-.39-.39-.41-.39-.4-.41-.42-.41-.41-.42-.42-.42-.42-.42-.42-.43-.41-.43-.42-.44-.41-.43-.4-.44-.4-.44-.4-.43-.39-.44-.37zm-.44-.39l-.33.05.04-.13.02-.03.02-.02.02-.01.02-.02.03-.01.03-.02h.03l.03-.01.03-.01h.14l.04.01.03.01.02.01.03.01.03.01.03.02.03.01.03.02.03.01.03.02.04.03.03.02.03.02.04.03.03.02.04.03.03.03.04.03-.22.26-.04-.03-.03-.03-.03-.02-.03-.02-.03-.03-.02-.02-.03-.01-.02-.02-.03-.01-.02-.02-.02-.01-.02-.01-.02-.01-.02-.01h-.02l-.01-.01h-.05v-.01.01h-.03.01-.01v.01h-.01l.04-.14zm-.33.05l-.02-.07.06-.06-.04.13zm3.01 14.89l-.33.04-.04-.25-.03-.27-.05-.28-.04-.3-.05-.31-.06-.32-.06-.34-.06-.36-.07-.36-.07-.39-.08-.39-.08-.41-.08-.42-.09-.44-.08-.45-.09-.46-.1-.48-.09-.49-.1-.5-.1-.52-.1-.53-.1-.54-.1-.55-.11-.57-.1-.58-.11-.6-.11-.6-.1-.62-.11-.63-.11-.64-.11-.66-.1-.67.33-.05.11.67.1.65.11.64.11.63.11.62.1.61.11.59.1.58.11.56.1.56.1.54.1.53.1.51.1.51.1.49.09.47.09.47.09.44.08.44.08.43.08.4.08.4.07.38.07.37.06.36.06.34.06.33.05.31.05.3.04.28.04.28.03.25zm-.33.04zm.16-.02l.17-.02-.17.02zm-.16.02zm6.21 20.32l-.33-.07-.01.01.02-.17v-.18l-.03-.2-.06-.21-.07-.24-.1-.27-.12-.28-.14-.31-.15-.33-.18-.36-.18-.38-.2-.42-.22-.45-.22-.48-.24-.51-.24-.55-.24-.58-.25-.63-.26-.66-.26-.71-.26-.75-.25-.8-.26-.84-.25-.89-.25-.94-.23-.99-.24-1.05-.22-1.1-.21-1.15-.2-1.22-.19-1.27-.17-1.34.33-.04.17 1.33.19 1.27.2 1.21.21 1.15.22 1.09.24 1.04.23.99.25.93.25.89.25.83.26.79.25.75.26.7.25.66.25.62.25.58.23.54.24.51.22.48.21.44.2.42.19.39.17.36.16.33.14.32.12.29.11.27.08.26.06.25.03.23.01.22-.02.22zm0 0l.01-.05-.01.05zm-10.87.45l.34.03v-.02l.04.21.08.2.13.19.17.18.21.16.26.16.3.13.33.12.35.11.39.09.41.07.43.06.44.03.45.02.47.01.47-.01.47-.03.47-.04.46-.07.45-.07.44-.09.42-.11.41-.13.38-.14.35-.15.32-.17.28-.18.25-.2.21-.2.16-.22.12-.22.08-.24.33.07-.09.3-.15.28-.2.25-.23.24-.28.22-.31.19-.35.18-.37.17-.4.14-.42.13-.43.11-.46.1-.46.08-.48.06-.48.05-.48.03-.48.01-.48-.01-.46-.02-.46-.04-.44-.06-.43-.07-.4-.09-.38-.11-.35-.14-.33-.14-.29-.18-.25-.19-.21-.22-.16-.24-.11-.27-.05-.28v-.03zm0 .03v-.03.03zm.06-17.43l.26-.22.04.09.07.72.05.72.05.73.04.72.04.72.03.72.02.72.02.71.01.71.01.7V50.55l-.01.65-.01.63-.01.62-.02.6-.01.58-.02.56-.03.54-.02.52-.02.48-.02.47-.03.43-.02.4-.03.38-.02.34-.02.3-.02.28-.02.23-.02.2-.01.15-.34-.03.02-.15.01-.2.02-.23.02-.27.02-.31.03-.33.02-.38.02-.4.03-.43.02-.46.02-.49.03-.51.02-.54.02-.56.02-.58.01-.6.02-.61.01-.64v-.65l.01-.66v-.68l-.01-.68-.01-.7-.01-.7-.02-.71-.02-.71-.03-.72-.04-.72-.04-.72-.05-.72-.05-.72-.07-.71.04.09zm.26-.22l.04.04v.05l-.04-.09zm-.37-.26l.34.04v.15l.01.01v.03l.01.01v.01l.01.01v-.01.01l-.26.22-.01-.02-.01-.01-.01-.03h-.01l-.01-.02v-.01l-.01-.01-.01-.02v-.02l-.01-.01-.01-.02v-.03l-.01-.02v-.04l-.01-.01V41zm.01-.29l.33-.03.01.02V40.98l-.01.02v.04l-.34-.04.01-.01V40.7v.01zm.33-.03v-.01.01zm-.01-.14l.01.14-.33.03-.02-.14.34-.04v.01zm0-.01v.01-.01zm-2.1.17l-.34-.04.04-.22.05-.2.06-.18.06-.17.06-.15.08-.13.07-.12.09-.11.09-.09.09-.08.1-.06.11-.04.1-.03.11-.02h.11l.11.01.1.03.1.04.1.05.09.06.09.07.09.08.08.08.07.1.07.1.07.1.06.11.05.12.05.13.03.12.04.14.02.13-.34.05-.01-.12-.03-.11-.04-.11-.03-.1-.05-.1-.05-.09-.05-.09-.06-.08-.06-.07-.06-.07-.07-.06-.06-.05-.07-.05-.07-.03-.06-.03-.07-.01-.06-.01h-.06l-.07.01-.06.01-.06.03-.06.04-.07.05-.06.06-.06.08-.06.1-.06.11-.06.13-.05.14-.05.17-.05.18-.03.2v-.01zm-.34-.04zm-.65 18.15l-.33-.02v.03l-.02-.17v-.21l-.01-.26V56.79l.01-.44.01-.47.01-.5.02-.52.02-.56.02-.57.02-.6.03-.62.03-.64.03-.65.03-.67.04-.68.04-.7.04-.7.05-.71.05-.71.05-.72.05-.72.06-.73.06-.71.06-.72.07-.71.07-.7.07-.7.07-.68.34.04-.08.68-.07.69-.06.7-.07.71-.06.71-.06.72-.06.72-.05.72-.05.72-.05.71-.05.71-.04.7-.04.7-.04.68-.03.67-.04.65-.02.64-.03.61-.02.6-.03.58-.01.55-.02.52-.01.5-.01.47-.01.43v.4l-.01.37v.33l.01.29v.25l.01.2.01.16v.02zm0-.02l.01.01-.01.01v-.02zm-10.72.16l.33-.06v-.01l.07.24.12.22.16.2.2.2.25.17.28.17.31.15.35.13.37.12.4.1.42.08.43.07.45.05.45.03.47.02h.46l.46-.02.46-.03.45-.05.43-.06.43-.08.4-.1.38-.11.36-.13.32-.14.29-.16.26-.17.21-.17.17-.19.13-.2.08-.21.04-.22.33.02-.04.29-.11.27-.16.25-.21.23-.24.21-.29.18-.31.17-.35.15-.38.14-.39.11-.42.11-.44.08-.45.07-.46.05-.47.03-.48.02h-.47l-.47-.02-.47-.03-.46-.05-.45-.07-.43-.09-.42-.1-.39-.13-.37-.14-.34-.16-.31-.18-.27-.2-.24-.23-.2-.25-.14-.27-.09-.3zm0 0l-.01-.05.01.05zm6.18-19.93l.33-.01v.01l-.08 1.1-.11 1.06-.14 1.04-.16.99-.18.97-.2.93-.22.91-.24.87-.25.83-.26.81-.27.78-.27.74-.28.72-.29.69-.28.65-.29.63-.28.6-.27.57-.27.53-.26.52-.24.48-.23.45-.22.43-.2.4-.18.37-.15.34-.13.32-.11.29-.07.26-.05.22-.01.2.01.17-.33.06-.02-.23.02-.24.05-.27.08-.28.11-.3.14-.33.16-.35.18-.38.2-.4.21-.43.24-.46.24-.48.26-.51.26-.53.28-.57.28-.59.28-.62.28-.66.28-.68.28-.71.27-.73.27-.77.26-.8.25-.84.23-.86.22-.89.2-.93.18-.95.16-.99.13-1.03.11-1.05.09-1.09v.02zm.33-.01v.01-.01zm-.17 0l-.16.01.16-.01zm.17 0v.01-.01zm1.49-15.48l-.14-.31.24.17-.05.62-.06.62-.05.62-.06.61-.06.6-.07.59-.06.59-.07.59-.07.57-.07.57-.07.55-.07.55-.06.54-.07.53-.07.52-.06.51-.07.5-.06.49-.06.48-.05.47-.05.45-.05.44-.05.43-.04.41-.04.4-.03.38-.02.37-.03.36-.01.34-.01.32v.6l-.33.01-.01-.3v-.31l.01-.33.02-.35.02-.36.02-.37.04-.39.03-.4.04-.42.05-.43.05-.44.05-.45.06-.47.06-.48.06-.49.06-.5.07-.51.06-.52.07-.53.07-.54.07-.55.07-.55.07-.57.06-.57.07-.59.07-.58.06-.6.06-.6.06-.61.06-.61.05-.61.05-.63.24.17zm-.14-.31l.26-.11-.02.28-.24-.17zm-.58.84l-.22-.26.04-.02.03-.03.03-.03.03-.03.04-.02.03-.03.03-.02.03-.03.03-.02.02-.02.03-.03.03-.02.03-.02.02-.02.02-.01.03-.02.03-.02.02-.02.02-.02.02-.01.02-.01.03-.02.02-.01.02-.01.02-.02.02-.01.02-.01.02-.01.02-.01.02-.01.01-.01.02-.01.14.31-.01.01h-.02l-.01.01h-.01l-.02.01-.01.01-.01.01-.02.01-.02.01-.02.01-.02.02-.01.01-.03.01-.01.02-.03.01-.02.02-.02.01-.02.02-.03.02-.02.02-.03.02-.02.02-.03.02-.03.03-.03.02-.03.02-.03.03-.03.02-.03.03-.03.03-.04.03-.03.02zM4.77 34.71l-.1-.33.07-.03.13-.1.18-.15.2-.18.24-.24.26-.26.29-.31.31-.33.32-.36.35-.39.36-.4.37-.43.38-.44.39-.45.39-.46.4-.46.39-.47.4-.46.39-.46.38-.46.38-.44.37-.43.35-.41.34-.4.32-.36.3-.35.27-.31.26-.29.22-.24.2-.21.17-.17.14-.13.22.26-.12.12-.17.16-.19.2-.22.24-.25.28-.28.31-.3.35-.32.37-.33.39-.36.41-.36.43-.38.44-.38.46-.39.46-.4.46-.4.47-.39.46-.4.46-.39.46-.38.43-.37.43-.36.41-.34.38-.33.37-.31.33-.29.31-.27.27-.24.24-.22.2-.19.16-.16.11-.15.08zM0 30.9l.29.19v-.02l-.06.13-.04.13-.02.14v.14l.01.15.03.15.05.16.07.16.08.16.09.16.11.17.12.16.14.16.15.15.16.15.16.15.18.14.19.13.19.13.2.11.21.11.21.09.21.09.22.07.21.05.22.05.22.03.22.01h.22l.21-.02.21-.04.21-.06.1.33-.24.06-.24.04-.24.02-.24.01-.24-.02-.24-.03-.24-.05-.24-.06-.23-.07-.23-.09-.23-.11-.22-.11-.21-.12-.21-.14-.2-.14-.19-.15-.18-.15-.17-.17-.16-.17-.15-.17-.13-.17-.13-.19-.1-.18-.09-.18-.08-.19-.05-.19-.04-.18-.02-.19.01-.18.02-.19.06-.17.08-.17v-.01zm0 .01v-.01.01zm15.11-15.15l.34-.02-.04.12-.63.77-.62.75-.63.73-.63.71-.63.7-.63.68-.63.66-.62.64-.61.63-.61.6-.6.59-.59.57-.58.55-.56.53-.56.51-.53.49-.52.48-.51.45-.48.44-.47.41-.44.39-.42.38-.39.35-.37.33-.35.31-.31.3-.28.26-.26.25-.22.23-.18.2-.15.18-.11.16L0 30.9l.13-.18.16-.19.2-.21.22-.24.26-.25.29-.27.32-.3.34-.31.37-.33.4-.36.42-.37.44-.39.46-.42.49-.43.5-.45.52-.48.53-.49.55-.51.57-.53.58-.54.58-.57.6-.59.61-.6.61-.62.62-.64.62-.66.62-.68.63-.69.63-.72.63-.72.62-.75.62-.76-.03.11zm.34-.02v.07l-.04.05.04-.12zm-.01-.02l.01.02-.34.02v-.02l.23-.17.1.15zm-.1-.15l.1.05v.1l-.1-.15zm-5.15-7.43h.34v.31l.02.32.03.3.04.31.05.3.06.29.07.3.08.28.09.29.1.28.12.27.12.27.12.26.14.26.15.25.16.24.16.24.17.24.18.22.19.22.19.21.2.2.21.2.22.19.22.17.23.18.23.16.24.15.25.15.25.13.26.13.26.11-.13.32-.27-.13-.27-.13-.26-.14-.26-.15-.25-.16-.25-.17-.24-.18-.23-.18-.22-.2-.22-.2-.21-.22-.2-.22-.2-.22-.19-.24-.18-.24-.17-.25-.16-.25-.15-.27-.15-.26-.13-.28-.13-.28-.11-.28-.11-.29-.09-.3-.09-.3-.07-.3-.07-.31-.05-.31-.04-.32-.03-.32-.02-.32v-.33zm8.04-8.35v.33l-.4.01-.39.04-.38.05-.38.07-.37.09-.37.1-.36.13-.35.14-.34.16-.33.18-.32.19-.32.21-.3.23-.29.23-.28.25-.27.27-.25.28-.24.29-.23.3-.22.32-.2.32-.18.34-.17.34-.16.36-.14.36-.12.37-.1.39-.09.38-.07.4-.04.4-.03.41-.01.41h-.34l.01-.43.03-.42.05-.42.07-.41.09-.41.11-.39.12-.39.15-.38.16-.37.18-.36.19-.35.21-.34.22-.33.24-.31.25-.3.27-.29.28-.28.29-.26.3-.25.32-.23.33-.22.33-.21.35-.18.36-.17.36-.15.38-.13.38-.11.39-.09.39-.08.41-.05.41-.03.41-.01z"/></svg>