<?xml version="1.0" encoding="UTF-8"?>
<!DOCTYPE svg PUBLIC "-//W3C//DTD SVG 1.1//EN" "http://www.w3.org/Graphics/SVG/1.1/DTD/svg11.dtd">
<!-- Creator: CorelDRAW 2018 (64-Bit) -->
<svg xmlns="http://www.w3.org/2000/svg" xml:space="preserve" width="68px" height="70px" version="1.1" style="shape-rendering:geometricPrecision; text-rendering:geometricPrecision; image-rendering:optimizeQuality; fill-rule:evenodd; clip-rule:evenodd"
viewBox="0 0 68 70"
 xmlns:xlink="http://www.w3.org/1999/xlink">
 <defs>
  <style type="text/css">
   <![CDATA[
    .fil7 {fill:#FEFEFE}
    .fil6 {fill:#EBECEC}
    .fil9 {fill:#2B2A29}
    .fil8 {fill:#C5E3D7}
    .fil4 {fill:#C4D985}
    .fil3 {fill:#A1B567}
    .fil2 {fill:#6FA691}
    .fil0 {fill:#99CFBA}
    .fil1 {fill:#2B2A29;fill-rule:nonzero}
    .fil10 {fill:#F08BB2;fill-rule:nonzero}
    .fil5 {fill:#6FA691;fill-rule:nonzero}
   ]]>
  </style>
 </defs>
 <g id="Слой_x0020_1">
  <metadata id="CorelCorpID_0Corel-Layer"/>
  <g>
   <path class="fil0" d="M33.96 7.06c9.71,0 17.59,6.35 17.59,14.18 0,7.83 -7.88,14.18 -17.59,14.18 -9.71,0 -17.58,-6.35 -17.58,-14.18 0,-7.83 7.87,-14.18 17.58,-14.18z"/>
   <path id="1" class="fil1" d="M51.71 21.24l-0.33 0 0 0 -0.03 -0.72 -0.06 -0.71 -0.11 -0.69 -0.16 -0.69 -0.19 -0.68 -0.23 -0.66 -0.27 -0.65 -0.32 -0.64 -0.34 -0.62 -0.39 -0.6 -0.41 -0.59 -0.46 -0.57 -0.48 -0.55 -0.52 -0.53 -0.54 -0.5 -0.58 -0.49 -0.61 -0.47 -0.63 -0.44 -0.65 -0.41 -0.69 -0.4 -0.7 -0.36 -0.73 -0.34 -0.76 -0.31 -0.77 -0.28 -0.79 -0.25 -0.81 -0.22 -0.83 -0.19 -0.84 -0.16 -0.86 -0.12 -0.87 -0.09 -0.89 -0.06 -0.9 -0.02 0 -0.33 0.92 0.01 0.9 0.06 0.88 0.09 0.87 0.13 0.86 0.16 0.84 0.19 0.83 0.22 0.8 0.26 0.79 0.28 0.76 0.32 0.74 0.34 0.73 0.38 0.69 0.4 0.67 0.42 0.65 0.45 0.61 0.48 0.59 0.49 0.56 0.52 0.53 0.55 0.49 0.56 0.46 0.58 0.43 0.6 0.4 0.62 0.35 0.64 0.32 0.65 0.28 0.67 0.24 0.68 0.2 0.69 0.16 0.71 0.11 0.72 0.07 0.73 0.02 0.74 0 0zm-17.75 14.35l0 -0.34 0 0 0.9 -0.01 0.89 -0.06 0.87 -0.09 0.86 -0.12 0.84 -0.16 0.83 -0.19 0.81 -0.22 0.79 -0.25 0.77 -0.28 0.76 -0.31 0.73 -0.34 0.7 -0.37 0.69 -0.39 0.65 -0.41 0.63 -0.45 0.61 -0.46 0.58 -0.49 0.54 -0.51 0.52 -0.53 0.48 -0.55 0.46 -0.57 0.41 -0.58 0.39 -0.61 0.34 -0.62 0.32 -0.63 0.27 -0.65 0.23 -0.66 0.19 -0.68 0.16 -0.69 0.11 -0.7 0.06 -0.71 0.03 -0.72 0.33 0 -0.02 0.74 -0.07 0.73 -0.11 0.72 -0.16 0.71 -0.2 0.7 -0.24 0.68 -0.28 0.67 -0.32 0.65 -0.35 0.64 -0.4 0.62 -0.43 0.6 -0.46 0.58 -0.49 0.56 -0.53 0.54 -0.56 0.52 -0.59 0.5 -0.61 0.48 -0.65 0.45 -0.67 0.42 -0.69 0.4 -0.73 0.37 -0.74 0.35 -0.76 0.31 -0.79 0.29 -0.8 0.26 -0.83 0.22 -0.84 0.19 -0.86 0.16 -0.87 0.13 -0.88 0.09 -0.9 0.05 -0.92 0.02 0 0zm-17.75 -14.35l0.34 0 0 0 0.02 0.72 0.07 0.71 0.11 0.7 0.15 0.69 0.2 0.68 0.23 0.66 0.27 0.65 0.31 0.63 0.35 0.62 0.38 0.61 0.42 0.58 0.45 0.57 0.49 0.55 0.51 0.53 0.55 0.51 0.58 0.49 0.6 0.46 0.63 0.45 0.66 0.41 0.68 0.39 0.71 0.37 0.73 0.34 0.75 0.31 0.77 0.28 0.8 0.25 0.81 0.22 0.82 0.19 0.85 0.16 0.86 0.12 0.87 0.09 0.89 0.06 0.89 0.01 0 0.34 -0.91 -0.02 -0.9 -0.05 -0.89 -0.09 -0.87 -0.13 -0.85 -0.16 -0.85 -0.19 -0.82 -0.22 -0.8 -0.26 -0.79 -0.29 -0.76 -0.31 -0.75 -0.35 -0.72 -0.37 -0.69 -0.4 -0.67 -0.42 -0.65 -0.45 -0.62 -0.48 -0.58 -0.5 -0.56 -0.52 -0.53 -0.54 -0.5 -0.56 -0.46 -0.58 -0.43 -0.6 -0.39 -0.62 -0.36 -0.64 -0.32 -0.65 -0.28 -0.67 -0.24 -0.68 -0.2 -0.7 -0.15 -0.71 -0.12 -0.72 -0.07 -0.73 -0.02 -0.74 0 0zm17.75 -14.34l0 0.33 0 0 -0.89 0.02 -0.89 0.06 -0.87 0.09 -0.86 0.12 -0.85 0.16 -0.82 0.19 -0.81 0.22 -0.8 0.25 -0.77 0.28 -0.75 0.31 -0.73 0.34 -0.71 0.36 -0.68 0.4 -0.66 0.41 -0.63 0.44 -0.6 0.47 -0.58 0.49 -0.55 0.5 -0.51 0.53 -0.49 0.55 -0.45 0.57 -0.42 0.59 -0.38 0.6 -0.35 0.62 -0.31 0.64 -0.27 0.65 -0.23 0.66 -0.2 0.68 -0.15 0.69 -0.11 0.69 -0.07 0.71 -0.02 0.72 -0.34 0 0.02 -0.74 0.07 -0.73 0.12 -0.72 0.15 -0.71 0.2 -0.69 0.24 -0.68 0.28 -0.67 0.32 -0.65 0.36 -0.64 0.39 -0.62 0.43 -0.6 0.46 -0.58 0.5 -0.56 0.53 -0.55 0.56 -0.52 0.58 -0.49 0.62 -0.48 0.65 -0.45 0.67 -0.42 0.69 -0.4 0.72 -0.38 0.75 -0.34 0.76 -0.32 0.79 -0.28 0.8 -0.26 0.82 -0.22 0.85 -0.19 0.85 -0.16 0.87 -0.13 0.89 -0.09 0.9 -0.06 0.91 -0.01 0 0z"/>
  </g>
  <g>
   <path class="fil2" d="M25.12 46.69l4.2 0 0 16.29 -4.2 0 0 -16.29zm13.83 -0.43l4.2 0 0 16.28 -4.2 0 0 -16.28z"/>
   <path id="1" class="fil1" d="M29.32 46.86l-4.2 0 0 -0.34 4.2 0 0.17 0.17 -0.17 0.17zm0 -0.34l0.17 0 0 0.17 -0.17 -0.17zm-0.17 16.46l0 -16.29 0.34 0 0 16.29 -0.17 0.17 -0.17 -0.17zm0.34 0l0 0.17 -0.17 0 0.17 -0.17zm-4.37 -0.17l4.2 0 0 0.34 -4.2 0 -0.16 -0.17 0.16 -0.17zm0 0.34l-0.16 0 0 -0.17 0.16 0.17zm0.17 -16.46l0 16.29 -0.33 0 0 -16.29 0.16 -0.17 0.17 0.17zm-0.33 0l0 -0.17 0.16 0 -0.16 0.17zm18.19 -0.27l-4.2 0 0 -0.33 4.2 0 0.16 0.17 -0.16 0.16zm0 -0.33l0.16 0 0 0.17 -0.16 -0.17zm-0.17 16.45l0 -16.28 0.33 0 0 16.28 -0.16 0.17 -0.17 -0.17zm0.33 0l0 0.17 -0.16 0 0.16 -0.17zm-4.36 -0.17l4.2 0 0 0.34 -4.2 0 -0.17 -0.17 0.17 -0.17zm0 0.34l-0.17 0 0 -0.17 0.17 0.17zm0.17 -16.45l0 16.28 -0.34 0 0 -16.28 0.17 -0.17 0.17 0.17zm-0.34 0l0 -0.17 0.17 0 -0.17 0.17z"/>
  </g>
  <g>
   <path class="fil3" d="M20.1 28.26l27.5 0c1.34,0 2.44,1.1 2.44,2.44l0 14.53c0,1.34 -1.1,2.44 -2.44,2.44l-27.5 0c-1.34,0 -2.44,-1.1 -2.44,-2.44l0 -14.53c0,-1.34 1.1,-2.44 2.44,-2.44z"/>
   <path id="1" class="fil1" d="M47.6 28.43l-27.5 0 0 -0.34 27.5 0 0 0 0 0.34zm2.61 2.27l-0.34 0 0 0 0 -0.12 -0.01 -0.11 -0.02 -0.11 -0.01 -0.12 -0.03 -0.1 -0.03 -0.11 -0.04 -0.11 -0.04 -0.1 -0.04 -0.1 -0.05 -0.1 -0.06 -0.09 -0.06 -0.1 -0.06 -0.08 -0.07 -0.09 -0.07 -0.08 -0.07 -0.08 -0.08 -0.08 -0.09 -0.07 -0.08 -0.07 -0.09 -0.06 -0.09 -0.06 -0.1 -0.05 -0.1 -0.05 -0.1 -0.05 -0.1 -0.04 -0.1 -0.04 -0.11 -0.03 -0.11 -0.02 -0.11 -0.02 -0.12 -0.01 -0.11 -0.01 -0.12 -0.01 0 -0.34 0.14 0.01 0.13 0.01 0.13 0.01 0.13 0.03 0.12 0.03 0.13 0.03 0.12 0.04 0.12 0.05 0.11 0.05 0.11 0.06 0.11 0.06 0.11 0.07 0.1 0.07 0.1 0.08 0.09 0.08 0.09 0.09 0.09 0.09 0.08 0.09 0.08 0.1 0.07 0.11 0.07 0.1 0.06 0.11 0.06 0.11 0.05 0.12 0.05 0.12 0.04 0.12 0.04 0.12 0.03 0.13 0.02 0.13 0.02 0.13 0.01 0.13 0 0.13 0 0zm-0.34 14.53l0 -14.53 0.34 0 0 14.53 0 0 -0.34 0zm-2.27 2.61l0 -0.34 0 0 0.12 0 0.11 -0.01 0.12 -0.02 0.11 -0.02 0.11 -0.02 0.11 -0.03 0.1 -0.04 0.1 -0.04 0.1 -0.04 0.1 -0.05 0.1 -0.06 0.09 -0.06 0.09 -0.06 0.08 -0.07 0.09 -0.07 0.08 -0.08 0.07 -0.07 0.07 -0.09 0.07 -0.08 0.06 -0.09 0.06 -0.09 0.06 -0.1 0.05 -0.1 0.04 -0.1 0.04 -0.1 0.04 -0.11 0.03 -0.1 0.03 -0.11 0.01 -0.11 0.02 -0.12 0.01 -0.11 0 -0.12 0.34 0 0 0.13 -0.01 0.14 -0.02 0.13 -0.02 0.12 -0.03 0.13 -0.04 0.13 -0.04 0.12 -0.05 0.11 -0.05 0.12 -0.06 0.11 -0.06 0.11 -0.07 0.11 -0.07 0.1 -0.08 0.1 -0.08 0.09 -0.09 0.09 -0.09 0.09 -0.09 0.08 -0.1 0.08 -0.1 0.07 -0.11 0.07 -0.11 0.06 -0.11 0.06 -0.11 0.05 -0.12 0.05 -0.12 0.04 -0.13 0.04 -0.12 0.02 -0.13 0.03 -0.13 0.02 -0.13 0 -0.14 0.01 0 0zm-27.5 -0.34l27.5 0 0 0.34 -27.5 0 0 0 0 -0.34zm-2.6 -2.27l0.33 0 0 0 0.01 0.12 0.01 0.11 0.01 0.12 0.02 0.11 0.03 0.11 0.03 0.1 0.03 0.11 0.04 0.1 0.05 0.1 0.05 0.1 0.05 0.1 0.06 0.09 0.07 0.09 0.06 0.08 0.08 0.09 0.07 0.07 0.08 0.08 0.08 0.07 0.09 0.07 0.09 0.06 0.09 0.06 0.09 0.06 0.1 0.05 0.1 0.04 0.11 0.04 0.1 0.04 0.11 0.03 0.11 0.02 0.11 0.02 0.11 0.02 0.12 0.01 0.11 0 0 0.34 -0.13 -0.01 -0.13 0 -0.13 -0.02 -0.13 -0.03 -0.13 -0.02 -0.12 -0.04 -0.12 -0.04 -0.12 -0.05 -0.12 -0.05 -0.11 -0.06 -0.11 -0.06 -0.1 -0.07 -0.11 -0.07 -0.09 -0.08 -0.1 -0.08 -0.09 -0.09 -0.08 -0.09 -0.09 -0.09 -0.08 -0.1 -0.07 -0.1 -0.06 -0.11 -0.07 -0.11 -0.06 -0.11 -0.05 -0.12 -0.04 -0.11 -0.05 -0.12 -0.03 -0.13 -0.03 -0.13 -0.02 -0.12 -0.02 -0.13 -0.01 -0.14 0 -0.13 0 0zm0.33 -14.53l0 14.53 -0.33 0 0 -14.53 0 0 0.33 0zm2.27 -2.61l0 0.34 0 0 -0.11 0.01 -0.12 0.01 -0.11 0.01 -0.11 0.02 -0.11 0.02 -0.11 0.03 -0.1 0.04 -0.11 0.04 -0.1 0.05 -0.1 0.05 -0.09 0.05 -0.09 0.06 -0.09 0.06 -0.09 0.07 -0.08 0.07 -0.08 0.08 -0.07 0.08 -0.08 0.08 -0.06 0.09 -0.07 0.08 -0.06 0.1 -0.05 0.09 -0.05 0.1 -0.05 0.1 -0.04 0.1 -0.03 0.11 -0.03 0.11 -0.03 0.1 -0.02 0.12 -0.01 0.11 -0.01 0.11 -0.01 0.12 -0.33 0 0 -0.13 0.01 -0.13 0.02 -0.13 0.02 -0.13 0.03 -0.13 0.03 -0.12 0.05 -0.12 0.04 -0.12 0.05 -0.12 0.06 -0.11 0.07 -0.11 0.06 -0.1 0.07 -0.11 0.08 -0.1 0.09 -0.09 0.08 -0.09 0.09 -0.09 0.1 -0.08 0.09 -0.08 0.11 -0.07 0.1 -0.07 0.11 -0.06 0.11 -0.06 0.12 -0.05 0.12 -0.05 0.12 -0.04 0.12 -0.03 0.13 -0.03 0.13 -0.03 0.13 -0.01 0.13 -0.01 0.13 -0.01 0 0z"/>
  </g>
  <g>
   <path class="fil4" d="M25.12 35.3l16.19 0c0.97,0 1.76,0.79 1.76,1.76l0 4.97c0,0.97 -0.79,1.76 -1.76,1.76l-16.19 0c-0.96,0 -1.75,-0.79 -1.75,-1.76l0 -4.97c0,-0.97 0.79,-1.76 1.75,-1.76z"/>
   <path id="1" class="fil1" d="M41.31 35.47l-16.19 0 0 -0.33 16.19 0 0 0 0 0.33zm1.93 1.59l-0.34 0 0 0 0 -0.08 -0.01 -0.08 -0.01 -0.08 -0.01 -0.08 -0.02 -0.08 -0.02 -0.07 -0.03 -0.08 -0.03 -0.07 -0.03 -0.07 -0.03 -0.06 -0.04 -0.07 -0.04 -0.07 -0.05 -0.06 -0.04 -0.06 -0.05 -0.06 -0.06 -0.05 -0.05 -0.05 -0.06 -0.05 -0.06 -0.05 -0.06 -0.05 -0.07 -0.04 -0.06 -0.03 -0.07 -0.04 -0.07 -0.03 -0.07 -0.03 -0.08 -0.03 -0.07 -0.02 -0.08 -0.02 -0.07 -0.01 -0.08 -0.01 -0.09 0 -0.08 -0.01 0 -0.33 0.1 0 0.1 0 0.1 0.02 0.09 0.01 0.09 0.03 0.09 0.02 0.09 0.03 0.09 0.04 0.09 0.04 0.08 0.04 0.08 0.04 0.08 0.05 0.07 0.06 0.08 0.06 0.07 0.06 0.06 0.06 0.07 0.07 0.06 0.07 0.05 0.07 0.06 0.07 0.05 0.08 0.04 0.08 0.05 0.09 0.04 0.08 0.03 0.09 0.03 0.09 0.03 0.09 0.02 0.09 0.02 0.1 0.01 0.09 0.01 0.1 0 0.1 0 0zm-0.34 4.97l0 -4.97 0.34 0 0 4.97 0 0 -0.34 0zm-1.59 1.93l0 -0.34 0 0 0.08 0 0.09 -0.01 0.08 -0.01 0.07 -0.01 0.08 -0.02 0.07 -0.02 0.08 -0.03 0.07 -0.03 0.07 -0.03 0.07 -0.03 0.06 -0.04 0.07 -0.04 0.06 -0.05 0.06 -0.04 0.06 -0.05 0.05 -0.06 0.06 -0.05 0.05 -0.06 0.04 -0.06 0.05 -0.06 0.04 -0.07 0.04 -0.06 0.03 -0.07 0.03 -0.07 0.03 -0.07 0.03 -0.08 0.02 -0.07 0.02 -0.08 0.01 -0.08 0.01 -0.08 0.01 -0.08 0 -0.08 0.34 0 0 0.1 -0.01 0.1 -0.01 0.09 -0.02 0.1 -0.02 0.09 -0.03 0.09 -0.03 0.09 -0.03 0.09 -0.04 0.09 -0.05 0.08 -0.04 0.08 -0.05 0.08 -0.06 0.07 -0.05 0.08 -0.06 0.07 -0.07 0.06 -0.06 0.07 -0.07 0.06 -0.08 0.05 -0.07 0.06 -0.08 0.05 -0.08 0.04 -0.08 0.05 -0.09 0.04 -0.09 0.03 -0.09 0.03 -0.09 0.03 -0.09 0.02 -0.09 0.02 -0.1 0.01 -0.1 0 -0.1 0.01 0 0zm-16.19 -0.34l16.19 0 0 0.34 -16.19 0 0 0 0 -0.34zm-1.92 -1.59l0.34 0 0 0 0 0.08 0.01 0.08 0.01 0.08 0.01 0.08 0.02 0.08 0.02 0.07 0.02 0.08 0.03 0.07 0.04 0.07 0.03 0.07 0.04 0.06 0.04 0.07 0.04 0.06 0.05 0.06 0.05 0.06 0.05 0.05 0.06 0.06 0.06 0.05 0.06 0.04 0.06 0.05 0.06 0.04 0.07 0.04 0.07 0.03 0.07 0.03 0.07 0.03 0.07 0.03 0.08 0.02 0.08 0.02 0.07 0.01 0.08 0.01 0.08 0.01 0.08 0 0 0.34 -0.09 -0.01 -0.1 0 -0.1 -0.01 -0.09 -0.02 -0.09 -0.02 -0.1 -0.03 -0.09 -0.03 -0.08 -0.03 -0.09 -0.04 -0.08 -0.05 -0.08 -0.04 -0.08 -0.05 -0.08 -0.06 -0.07 -0.05 -0.07 -0.06 -0.06 -0.07 -0.07 -0.06 -0.06 -0.07 -0.06 -0.08 -0.05 -0.07 -0.05 -0.08 -0.05 -0.08 -0.04 -0.08 -0.04 -0.09 -0.03 -0.09 -0.03 -0.09 -0.03 -0.09 -0.02 -0.09 -0.02 -0.1 -0.01 -0.09 -0.01 -0.1 0 -0.1 0 0zm0.34 -4.97l0 4.97 -0.34 0 0 -4.97 0 0 0.34 0zm1.58 -1.92l0 0.33 0 0 -0.08 0.01 -0.08 0 -0.08 0.01 -0.07 0.01 -0.08 0.02 -0.08 0.02 -0.07 0.03 -0.07 0.03 -0.07 0.03 -0.07 0.04 -0.07 0.03 -0.06 0.04 -0.06 0.05 -0.06 0.05 -0.06 0.05 -0.06 0.05 -0.05 0.05 -0.05 0.06 -0.05 0.06 -0.04 0.06 -0.04 0.07 -0.04 0.07 -0.03 0.06 -0.04 0.07 -0.03 0.07 -0.02 0.08 -0.02 0.07 -0.02 0.08 -0.01 0.08 -0.01 0.08 -0.01 0.08 0 0.08 -0.34 0 0 -0.1 0.01 -0.1 0.01 -0.09 0.02 -0.1 0.02 -0.09 0.03 -0.09 0.03 -0.09 0.03 -0.09 0.04 -0.08 0.04 -0.09 0.05 -0.08 0.05 -0.08 0.05 -0.07 0.06 -0.07 0.06 -0.07 0.07 -0.07 0.06 -0.06 0.07 -0.06 0.07 -0.06 0.08 -0.06 0.08 -0.05 0.08 -0.04 0.08 -0.04 0.09 -0.04 0.08 -0.04 0.09 -0.03 0.1 -0.02 0.09 -0.03 0.09 -0.01 0.1 -0.02 0.1 0 0.09 0 0 0z"/>
  </g>
  <g>
   <path class="fil0" d="M26.3 60.49c3.25,0 5.9,2.3 5.9,5.12 0,0.51 -0.09,1 -0.25,1.47l-11.31 0c-0.16,-0.47 -0.24,-0.96 -0.24,-1.47 0,-2.82 2.64,-5.12 5.9,-5.12z"/>
   <path id="1" class="fil1" d="M32.36 65.61l-0.33 0 0 0 -0.01 -0.25 -0.02 -0.25 -0.04 -0.25 -0.05 -0.24 -0.06 -0.24 -0.08 -0.23 -0.09 -0.23 -0.1 -0.23 -0.11 -0.21 -0.13 -0.22 -0.14 -0.21 -0.15 -0.2 -0.15 -0.19 -0.18 -0.19 -0.17 -0.18 -0.19 -0.17 -0.2 -0.17 -0.21 -0.15 -0.22 -0.15 -0.22 -0.14 -0.23 -0.13 -0.24 -0.12 -0.25 -0.11 -0.26 -0.1 -0.26 -0.08 -0.26 -0.08 -0.28 -0.07 -0.27 -0.06 -0.29 -0.04 -0.29 -0.03 -0.29 -0.02 -0.29 -0.01 0 -0.34 0.31 0.01 0.3 0.02 0.31 0.03 0.29 0.05 0.3 0.06 0.28 0.07 0.29 0.08 0.27 0.1 0.27 0.1 0.26 0.12 0.25 0.12 0.25 0.14 0.24 0.15 0.23 0.16 0.22 0.16 0.21 0.18 0.2 0.18 0.19 0.19 0.18 0.2 0.17 0.21 0.16 0.21 0.15 0.22 0.13 0.23 0.12 0.24 0.11 0.24 0.1 0.24 0.08 0.26 0.07 0.25 0.05 0.26 0.04 0.27 0.03 0.27 0 0.27 0 0zm-0.41 1.63l0 -0.33 -0.16 0.11 0.01 -0.04 0.02 -0.04 0.01 -0.05 0.02 -0.04 0.01 -0.04 0.01 -0.04 0.01 -0.05 0.01 -0.04 0.01 -0.04 0.01 -0.05 0.01 -0.04 0.01 -0.04 0.01 -0.05 0.01 -0.04 0.01 -0.04 0.01 -0.05 0 -0.04 0.01 -0.05 0.01 -0.04 0 -0.04 0.01 -0.05 0 -0.04 0.01 -0.05 0 -0.04 0 -0.05 0.01 -0.04 0 -0.05 0 -0.04 0 -0.05 0.01 -0.05 0 -0.04 0 -0.05 0.33 0 0 0.05 0 0.05 0 0.05 0 0.05 0 0.05 -0.01 0.05 0 0.04 0 0.06 -0.01 0.04 0 0.05 -0.01 0.05 0 0.05 -0.01 0.05 -0.01 0.04 0 0.05 -0.01 0.05 -0.01 0.05 -0.01 0.04 -0.01 0.05 -0.01 0.05 -0.01 0.05 -0.01 0.04 -0.01 0.05 -0.01 0.05 -0.01 0.04 -0.01 0.04 -0.02 0.05 -0.01 0.05 -0.01 0.04 -0.02 0.05 -0.01 0.05 -0.02 0.04 -0.16 0.11zm0.16 -0.11l-0.04 0.11 -0.12 0 0.16 -0.11zm-11.47 -0.22l11.31 0 0 0.33 -11.31 0 -0.16 -0.11 0.16 -0.22zm0 0.33l-0.12 0 -0.04 -0.11 0.16 0.11zm-0.41 -1.63l0.33 0 0 0 0 0.05 0.01 0.04 0 0.05 0 0.05 0 0.04 0 0.05 0.01 0.04 0 0.05 0 0.04 0.01 0.05 0 0.04 0.01 0.05 0 0.04 0.01 0.04 0.01 0.05 0 0.04 0.01 0.05 0.01 0.04 0.01 0.04 0.01 0.05 0.01 0.04 0.01 0.04 0.01 0.05 0.01 0.04 0.01 0.04 0.01 0.05 0.01 0.04 0.02 0.04 0.01 0.04 0.01 0.05 0.02 0.04 0.01 0.04 -0.32 0.11 -0.01 -0.05 -0.02 -0.04 -0.01 -0.05 -0.02 -0.04 -0.01 -0.05 -0.01 -0.04 -0.02 -0.05 -0.01 -0.05 -0.01 -0.04 -0.01 -0.05 -0.01 -0.04 -0.01 -0.05 -0.01 -0.05 -0.01 -0.05 -0.01 -0.04 -0.01 -0.05 -0.01 -0.05 0 -0.05 -0.01 -0.04 -0.01 -0.05 0 -0.05 -0.01 -0.05 0 -0.05 -0.01 -0.04 0 -0.06 0 -0.04 -0.01 -0.05 0 -0.05 0 -0.05 0 -0.05 0 -0.05 0 -0.05 0 0zm6.07 -5.29l0 0.34 0 0 -0.3 0.01 -0.29 0.02 -0.29 0.03 -0.28 0.04 -0.28 0.06 -0.27 0.07 -0.27 0.08 -0.26 0.08 -0.26 0.1 -0.24 0.11 -0.24 0.12 -0.24 0.13 -0.22 0.14 -0.22 0.15 -0.21 0.15 -0.2 0.17 -0.19 0.17 -0.17 0.18 -0.18 0.19 -0.15 0.19 -0.15 0.2 -0.14 0.21 -0.12 0.22 -0.12 0.21 -0.1 0.23 -0.09 0.23 -0.08 0.23 -0.06 0.24 -0.05 0.24 -0.04 0.25 -0.02 0.25 -0.01 0.25 -0.33 0 0 -0.27 0.03 -0.27 0.04 -0.27 0.05 -0.26 0.07 -0.25 0.08 -0.26 0.1 -0.24 0.11 -0.24 0.12 -0.24 0.13 -0.23 0.15 -0.22 0.16 -0.21 0.17 -0.21 0.18 -0.2 0.19 -0.19 0.2 -0.18 0.21 -0.18 0.23 -0.16 0.22 -0.16 0.24 -0.15 0.25 -0.14 0.25 -0.12 0.26 -0.12 0.27 -0.1 0.28 -0.1 0.28 -0.08 0.28 -0.07 0.3 -0.06 0.29 -0.05 0.31 -0.03 0.3 -0.02 0.32 -0.01 0 0z"/>
  </g>
  <g>
   <polygon class="fil3" points="19.96,67.08 32.54,67.08 32.54,70 19.96,70 "/>
   <path id="1" class="fil1" d="M32.54 67.24l-12.58 0 0 -0.33 12.58 0 0.17 0.17 -0.17 0.16zm0 -0.33l0.17 0 0 0.17 -0.17 -0.17zm-0.17 3.09l0 -2.92 0.34 0 0 2.92 -0.17 0.17 -0.17 -0.17zm0.34 0l0 0.17 -0.17 0 0.17 -0.17zm-12.75 -0.17l12.58 0 0 0.34 -12.58 0 -0.17 -0.17 0.17 -0.17zm0 0.34l-0.17 0 0 -0.17 0.17 0.17zm0.17 -3.09l0 2.92 -0.34 0 0 -2.92 0.17 -0.17 0.17 0.17zm-0.34 0l0 -0.17 0.17 0 -0.17 0.17z"/>
  </g>
  <g>
   <path class="fil5" d="M59.99 48.4c-0.86,-2.88 -1.94,-5.17 -3.29,-6.79 -1.26,-1.52 -2.76,-2.44 -4.52,-2.7l0.35 -2.36c2.37,0.35 4.37,1.56 6.01,3.54 1.55,1.87 2.79,4.45 3.73,7.64l-2.28 0.67zm-52.42 -20.48c0.85,2.88 1.94,5.17 3.29,6.79 1.26,1.52 2.75,2.44 4.52,2.7l-0.35 2.36c-2.38,-0.35 -4.37,-1.56 -6.01,-3.54 -1.55,-1.87 -2.79,-4.45 -3.73,-7.64l2.28 -0.67z"/>
   <path id="1" class="fil1" d="M56.57 41.72l0.26 -0.22 0 0 0.13 0.16 0.12 0.16 0.13 0.16 0.12 0.17 0.12 0.17 0.12 0.18 0.12 0.18 0.12 0.18 0.11 0.19 0.11 0.19 0.12 0.19 0.11 0.2 0.11 0.2 0.1 0.21 0.11 0.21 0.1 0.21 0.1 0.22 0.11 0.22 0.1 0.22 0.09 0.23 0.1 0.23 0.1 0.23 0.09 0.24 0.09 0.24 0.09 0.25 0.09 0.25 0.09 0.25 0.09 0.26 0.08 0.25 0.09 0.27 0.08 0.26 0.08 0.27 -0.32 0.1 -0.08 -0.27 -0.09 -0.26 -0.08 -0.26 -0.08 -0.26 -0.09 -0.25 -0.09 -0.25 -0.09 -0.25 -0.08 -0.24 -0.1 -0.24 -0.09 -0.23 -0.09 -0.23 -0.1 -0.23 -0.09 -0.22 -0.1 -0.22 -0.1 -0.22 -0.1 -0.21 -0.1 -0.21 -0.11 -0.21 -0.1 -0.2 -0.11 -0.2 -0.11 -0.19 -0.11 -0.19 -0.11 -0.19 -0.11 -0.18 -0.11 -0.18 -0.12 -0.18 -0.12 -0.17 -0.11 -0.16 -0.12 -0.17 -0.12 -0.16 -0.13 -0.15 -0.12 -0.15 0 0zm-4.56 -2.84l0.34 0.05 -0.14 -0.19 0.16 0.03 0.17 0.03 0.17 0.03 0.16 0.04 0.16 0.04 0.16 0.05 0.16 0.05 0.16 0.06 0.16 0.05 0.15 0.07 0.16 0.06 0.15 0.07 0.15 0.08 0.15 0.07 0.14 0.08 0.15 0.09 0.14 0.09 0.14 0.09 0.14 0.1 0.14 0.1 0.14 0.1 0.14 0.11 0.13 0.11 0.13 0.12 0.13 0.11 0.13 0.13 0.13 0.12 0.13 0.13 0.13 0.13 0.12 0.14 0.12 0.14 0.12 0.14 -0.26 0.22 -0.12 -0.14 -0.11 -0.14 -0.12 -0.13 -0.12 -0.13 -0.13 -0.12 -0.12 -0.12 -0.12 -0.12 -0.13 -0.11 -0.13 -0.11 -0.13 -0.11 -0.13 -0.1 -0.13 -0.1 -0.13 -0.09 -0.13 -0.1 -0.14 -0.08 -0.14 -0.09 -0.13 -0.08 -0.15 -0.08 -0.14 -0.07 -0.14 -0.07 -0.14 -0.07 -0.15 -0.06 -0.14 -0.06 -0.15 -0.06 -0.15 -0.05 -0.15 -0.05 -0.16 -0.04 -0.15 -0.04 -0.16 -0.04 -0.15 -0.03 -0.16 -0.03 -0.16 -0.02 -0.15 -0.2zm0.15 0.2l-0.17 -0.03 0.02 -0.17 0.15 0.2zm0.53 -2.51l-0.34 2.36 -0.34 -0.05 0.35 -2.36 0.19 -0.14 0.14 0.19zm-0.33 -0.05l0.02 -0.16 0.17 0.02 -0.19 0.14zm6.31 3.46l-0.26 0.22 0 0 -0.15 -0.19 -0.16 -0.17 -0.16 -0.17 -0.16 -0.17 -0.16 -0.16 -0.16 -0.16 -0.16 -0.16 -0.17 -0.14 -0.17 -0.15 -0.17 -0.14 -0.17 -0.13 -0.18 -0.13 -0.17 -0.13 -0.18 -0.12 -0.18 -0.12 -0.19 -0.11 -0.18 -0.1 -0.19 -0.11 -0.19 -0.1 -0.19 -0.09 -0.19 -0.08 -0.2 -0.09 -0.2 -0.08 -0.2 -0.07 -0.2 -0.07 -0.21 -0.06 -0.2 -0.06 -0.21 -0.06 -0.21 -0.05 -0.21 -0.04 -0.22 -0.04 -0.22 -0.03 0.05 -0.34 0.23 0.04 0.22 0.04 0.22 0.04 0.22 0.05 0.22 0.06 0.21 0.06 0.21 0.07 0.22 0.07 0.2 0.08 0.21 0.08 0.2 0.09 0.2 0.09 0.2 0.09 0.2 0.1 0.19 0.11 0.19 0.11 0.19 0.12 0.19 0.12 0.19 0.12 0.18 0.13 0.18 0.14 0.18 0.14 0.18 0.14 0.17 0.15 0.17 0.15 0.17 0.16 0.17 0.17 0.17 0.16 0.16 0.18 0.16 0.17 0.16 0.18 0.16 0.19 0 0zm3.65 7.91l-0.09 -0.32 -0.12 0.21 -0.09 -0.3 -0.09 -0.29 -0.09 -0.29 -0.1 -0.29 -0.09 -0.28 -0.1 -0.27 -0.1 -0.28 -0.1 -0.27 -0.1 -0.26 -0.11 -0.27 -0.1 -0.26 -0.11 -0.25 -0.11 -0.25 -0.11 -0.25 -0.11 -0.24 -0.12 -0.24 -0.11 -0.24 -0.12 -0.23 -0.12 -0.23 -0.12 -0.22 -0.13 -0.22 -0.12 -0.22 -0.13 -0.21 -0.13 -0.21 -0.13 -0.2 -0.13 -0.2 -0.14 -0.2 -0.13 -0.19 -0.14 -0.19 -0.14 -0.18 -0.14 -0.18 -0.14 -0.17 0.26 -0.22 0.15 0.18 0.14 0.18 0.14 0.19 0.14 0.19 0.14 0.2 0.14 0.2 0.14 0.21 0.13 0.2 0.13 0.21 0.13 0.22 0.13 0.22 0.12 0.23 0.13 0.22 0.12 0.24 0.12 0.23 0.12 0.24 0.11 0.24 0.12 0.25 0.11 0.25 0.11 0.25 0.11 0.26 0.11 0.27 0.1 0.26 0.11 0.27 0.1 0.27 0.1 0.28 0.1 0.28 0.09 0.29 0.1 0.29 0.09 0.29 0.09 0.29 0.09 0.3 -0.11 0.21zm0.11 -0.21l0.05 0.16 -0.16 0.05 0.11 -0.21zm-2.49 0.56l2.29 -0.67 0.09 0.32 -2.28 0.67 -0.21 -0.11 0.11 -0.21zm0.1 0.32l-0.17 0.05 -0.04 -0.16 0.21 0.11zm-49.05 -13.96l-0.26 0.22 0 0 -0.13 -0.16 -0.12 -0.16 -0.13 -0.16 -0.12 -0.17 -0.12 -0.17 -0.12 -0.18 -0.12 -0.18 -0.12 -0.18 -0.11 -0.19 -0.12 -0.19 -0.11 -0.19 -0.11 -0.2 -0.11 -0.2 -0.1 -0.21 -0.11 -0.21 -0.1 -0.21 -0.11 -0.22 -0.1 -0.22 -0.1 -0.22 -0.1 -0.23 -0.09 -0.23 -0.1 -0.23 -0.09 -0.24 -0.09 -0.24 -0.09 -0.25 -0.09 -0.25 -0.09 -0.25 -0.09 -0.26 -0.08 -0.25 -0.09 -0.27 -0.08 -0.26 -0.08 -0.27 0.32 -0.1 0.08 0.27 0.09 0.26 0.08 0.26 0.08 0.26 0.09 0.25 0.09 0.25 0.08 0.25 0.09 0.24 0.1 0.24 0.09 0.23 0.09 0.23 0.1 0.23 0.09 0.22 0.1 0.22 0.1 0.22 0.1 0.21 0.1 0.21 0.11 0.21 0.1 0.2 0.11 0.2 0.11 0.19 0.11 0.19 0.11 0.19 0.11 0.18 0.11 0.18 0.12 0.18 0.11 0.17 0.12 0.16 0.12 0.17 0.12 0.16 0.13 0.15 0.12 0.15 0 0zm4.56 2.84l-0.34 -0.05 0.14 0.19 -0.16 -0.03 -0.17 -0.03 -0.17 -0.03 -0.16 -0.04 -0.16 -0.04 -0.16 -0.05 -0.16 -0.05 -0.16 -0.06 -0.16 -0.05 -0.15 -0.07 -0.16 -0.06 -0.15 -0.07 -0.15 -0.08 -0.15 -0.07 -0.14 -0.08 -0.15 -0.09 -0.14 -0.09 -0.14 -0.09 -0.15 -0.1 -0.13 -0.1 -0.14 -0.1 -0.14 -0.11 -0.13 -0.11 -0.13 -0.11 -0.14 -0.12 -0.13 -0.13 -0.12 -0.12 -0.13 -0.13 -0.13 -0.13 -0.12 -0.14 -0.12 -0.14 -0.12 -0.14 0.26 -0.22 0.12 0.14 0.11 0.14 0.12 0.13 0.12 0.13 0.13 0.12 0.12 0.12 0.12 0.12 0.13 0.11 0.13 0.11 0.13 0.11 0.13 0.1 0.13 0.1 0.13 0.09 0.13 0.1 0.14 0.08 0.14 0.09 0.13 0.08 0.14 0.08 0.15 0.07 0.14 0.07 0.14 0.07 0.15 0.06 0.14 0.06 0.15 0.06 0.15 0.05 0.15 0.05 0.16 0.04 0.15 0.04 0.16 0.04 0.15 0.03 0.16 0.03 0.16 0.02 0.15 0.2zm-0.15 -0.2l0.17 0.03 -0.02 0.17 -0.15 -0.2zm-0.54 2.51l0.35 -2.36 0.34 0.05 -0.35 2.36 -0.19 0.14 -0.15 -0.19zm0.34 0.05l-0.02 0.16 -0.17 -0.02 0.19 -0.14zm-6.31 -3.46l0.26 -0.22 0 0 0.15 0.19 0.16 0.17 0.16 0.17 0.16 0.17 0.16 0.16 0.16 0.16 0.16 0.16 0.17 0.14 0.17 0.15 0.17 0.14 0.17 0.13 0.18 0.13 0.18 0.13 0.17 0.12 0.18 0.12 0.19 0.11 0.18 0.11 0.19 0.1 0.19 0.1 0.19 0.09 0.19 0.09 0.2 0.08 0.2 0.08 0.2 0.07 0.2 0.07 0.2 0.06 0.21 0.06 0.21 0.06 0.21 0.05 0.21 0.04 0.22 0.04 0.22 0.03 -0.05 0.34 -0.23 -0.04 -0.22 -0.04 -0.22 -0.04 -0.22 -0.05 -0.22 -0.06 -0.21 -0.06 -0.21 -0.07 -0.22 -0.07 -0.2 -0.08 -0.21 -0.08 -0.2 -0.08 -0.2 -0.1 -0.2 -0.09 -0.2 -0.1 -0.19 -0.11 -0.2 -0.11 -0.19 -0.12 -0.18 -0.12 -0.19 -0.12 -0.18 -0.13 -0.18 -0.14 -0.18 -0.14 -0.18 -0.14 -0.17 -0.15 -0.18 -0.15 -0.17 -0.16 -0.16 -0.17 -0.17 -0.16 -0.16 -0.18 -0.16 -0.17 -0.16 -0.18 -0.16 -0.19 0 0zm-3.65 -7.91l0.09 0.32 0.12 -0.21 0.09 0.3 0.09 0.29 0.09 0.29 0.09 0.29 0.1 0.28 0.1 0.27 0.1 0.28 0.1 0.27 0.1 0.26 0.11 0.27 0.1 0.26 0.11 0.25 0.11 0.25 0.11 0.25 0.11 0.24 0.12 0.24 0.11 0.24 0.12 0.23 0.12 0.23 0.12 0.22 0.13 0.22 0.12 0.22 0.13 0.21 0.13 0.21 0.13 0.2 0.13 0.2 0.13 0.2 0.14 0.19 0.14 0.19 0.14 0.18 0.14 0.18 0.14 0.17 -0.26 0.22 -0.15 -0.18 -0.14 -0.18 -0.14 -0.19 -0.14 -0.19 -0.14 -0.2 -0.14 -0.2 -0.14 -0.21 -0.13 -0.2 -0.13 -0.21 -0.13 -0.22 -0.13 -0.22 -0.12 -0.23 -0.13 -0.22 -0.12 -0.24 -0.12 -0.23 -0.12 -0.24 -0.11 -0.24 -0.12 -0.25 -0.11 -0.25 -0.11 -0.26 -0.11 -0.25 -0.11 -0.27 -0.1 -0.26 -0.11 -0.27 -0.1 -0.27 -0.1 -0.28 -0.1 -0.28 -0.1 -0.29 -0.09 -0.29 -0.1 -0.29 -0.09 -0.29 -0.09 -0.3 0.12 -0.21zm-0.12 0.21l-0.04 -0.16 0.16 -0.05 -0.12 0.21zm2.5 -0.56l-2.29 0.67 -0.09 -0.32 2.28 -0.67 0.21 0.11 -0.11 0.21zm-0.1 -0.32l0.17 -0.05 0.04 0.16 -0.21 -0.11z"/>
  </g>
  <g>
   <path class="fil0" d="M17.01 34.77c-2.27,0 -4.11,1.53 -4.11,3.41 0,1.89 1.84,3.41 4.11,3.41l0 -6.82z"/>
   <path id="1" class="fil1" d="M12.73 38.18l0 0 0.01 -0.19 0.02 -0.18 0.02 -0.18 0.04 -0.18 0.05 -0.17 0.06 -0.17 0.07 -0.17 0.07 -0.16 0.09 -0.16 0.1 -0.16 0.1 -0.15 0.11 -0.14 0.12 -0.14 0.13 -0.14 0.13 -0.13 0.15 -0.12 0.15 -0.12 0.15 -0.11 0.16 -0.1 0.17 -0.1 0.17 -0.1 0.18 -0.08 0.19 -0.08 0.18 -0.07 0.2 -0.06 0.2 -0.06 0.2 -0.05 0.2 -0.04 0.21 -0.03 0.22 -0.02 0.21 -0.01 0.22 -0.01 0 0.34 -0.2 0 -0.21 0.02 -0.19 0.02 -0.2 0.03 -0.19 0.03 -0.19 0.05 -0.18 0.05 -0.18 0.06 -0.18 0.06 -0.17 0.08 -0.16 0.08 -0.16 0.08 -0.16 0.09 -0.15 0.1 -0.14 0.1 -0.14 0.11 -0.13 0.11 -0.12 0.12 -0.12 0.12 -0.1 0.13 -0.11 0.13 -0.09 0.14 -0.09 0.14 -0.07 0.14 -0.07 0.15 -0.06 0.15 -0.06 0.15 -0.04 0.15 -0.03 0.16 -0.03 0.16 -0.01 0.17 -0.01 0.16 0 0 -0.34 0zm4.45 3.41l-0.17 0.17 -0.22 0 -0.21 -0.02 -0.22 -0.02 -0.21 -0.03 -0.2 -0.04 -0.2 -0.05 -0.2 -0.05 -0.2 -0.07 -0.18 -0.07 -0.19 -0.08 -0.18 -0.08 -0.17 -0.09 -0.17 -0.1 -0.16 -0.11 -0.15 -0.11 -0.15 -0.12 -0.15 -0.12 -0.13 -0.13 -0.13 -0.13 -0.12 -0.15 -0.11 -0.14 -0.1 -0.15 -0.1 -0.15 -0.09 -0.16 -0.07 -0.17 -0.07 -0.17 -0.06 -0.17 -0.05 -0.17 -0.04 -0.18 -0.02 -0.18 -0.02 -0.18 -0.01 -0.19 0.34 0 0.01 0.17 0.01 0.16 0.03 0.16 0.03 0.16 0.04 0.15 0.06 0.16 0.06 0.15 0.07 0.14 0.07 0.14 0.09 0.14 0.09 0.14 0.11 0.13 0.11 0.13 0.11 0.12 0.12 0.12 0.13 0.11 0.14 0.11 0.14 0.1 0.15 0.1 0.16 0.09 0.16 0.09 0.16 0.08 0.17 0.07 0.18 0.06 0.18 0.06 0.18 0.05 0.19 0.05 0.19 0.03 0.2 0.03 0.19 0.02 0.21 0.02 0.2 0 -0.17 0.17 0.34 0zm0 0l0 0.17 -0.17 0 0.17 -0.17zm-0.34 -6.82l0.17 -0.17 0.17 0.17 0 6.82 -0.34 0 0 -6.82zm0.17 -0.17l0.17 0 0 0.17 -0.17 -0.17z"/>
  </g>
  <path class="fil1" d="M34.71 0.5c0.2,-0.15 0.48,-0.1 0.62,0.09 0.15,0.2 0.11,0.48 -0.09,0.63l-2.45 1.82 3.44 1.78 -3.03 4.48c-0.14,0.21 -0.42,0.26 -0.62,0.12 -0.21,-0.14 -0.26,-0.41 -0.12,-0.62l2.47 -3.65 -3.82 -1.98 3.6 -2.67z"/>
  <g>
   <path class="fil6" d="M29.86 13.34c1.21,0 2.19,1.05 2.19,2.34 0,1.3 -0.98,2.34 -2.19,2.34 -1.22,0 -2.2,-1.04 -2.2,-2.34 0,-1.29 0.98,-2.34 2.2,-2.34z"/>
   <path id="1" class="fil1" d="M32.22 15.68l-0.34 0 0 0 0 -0.11 -0.01 -0.11 -0.01 -0.11 -0.02 -0.11 -0.02 -0.1 -0.03 -0.1 -0.03 -0.11 -0.04 -0.1 -0.04 -0.09 -0.05 -0.1 -0.05 -0.09 -0.05 -0.09 -0.06 -0.08 -0.06 -0.08 -0.06 -0.08 -0.07 -0.08 -0.07 -0.07 -0.07 -0.07 -0.08 -0.06 -0.08 -0.06 -0.08 -0.06 -0.08 -0.05 -0.09 -0.05 -0.09 -0.04 -0.09 -0.04 -0.1 -0.03 -0.09 -0.03 -0.1 -0.03 -0.1 -0.01 -0.1 -0.02 -0.1 -0.01 -0.1 0 0 -0.34 0.12 0.01 0.12 0.01 0.12 0.01 0.11 0.02 0.12 0.03 0.11 0.04 0.11 0.04 0.11 0.04 0.1 0.05 0.11 0.06 0.09 0.06 0.1 0.07 0.09 0.07 0.09 0.07 0.09 0.08 0.08 0.08 0.08 0.09 0.07 0.09 0.07 0.1 0.07 0.09 0.06 0.11 0.06 0.1 0.05 0.11 0.04 0.11 0.04 0.11 0.04 0.12 0.03 0.12 0.03 0.12 0.02 0.12 0.02 0.13 0.01 0.12 0 0.13 0 0zm-2.36 2.51l0 -0.34 0 0 0.1 0 0.1 -0.01 0.1 -0.01 0.1 -0.02 0.1 -0.02 0.09 -0.03 0.1 -0.04 0.09 -0.04 0.09 -0.04 0.09 -0.05 0.08 -0.05 0.08 -0.05 0.08 -0.06 0.08 -0.07 0.07 -0.07 0.07 -0.07 0.07 -0.07 0.06 -0.08 0.06 -0.08 0.06 -0.09 0.05 -0.09 0.05 -0.09 0.05 -0.09 0.04 -0.1 0.04 -0.1 0.03 -0.1 0.03 -0.1 0.02 -0.11 0.02 -0.1 0.01 -0.11 0.01 -0.11 0 -0.12 0.34 0 0 0.13 -0.01 0.13 -0.02 0.12 -0.02 0.13 -0.03 0.12 -0.03 0.12 -0.04 0.11 -0.04 0.12 -0.04 0.11 -0.05 0.1 -0.06 0.11 -0.06 0.1 -0.07 0.1 -0.07 0.09 -0.07 0.1 -0.08 0.08 -0.08 0.09 -0.09 0.08 -0.09 0.07 -0.09 0.07 -0.1 0.07 -0.09 0.06 -0.11 0.05 -0.1 0.05 -0.11 0.05 -0.11 0.04 -0.11 0.03 -0.12 0.03 -0.11 0.02 -0.12 0.02 -0.12 0.01 -0.12 0 0 0zm-2.37 -2.51l0.34 0 0 0 0 0.12 0.01 0.11 0.01 0.11 0.02 0.1 0.02 0.11 0.03 0.1 0.03 0.1 0.04 0.1 0.04 0.1 0.05 0.09 0.05 0.09 0.05 0.09 0.05 0.09 0.07 0.08 0.06 0.08 0.07 0.07 0.07 0.07 0.07 0.07 0.08 0.07 0.08 0.06 0.08 0.05 0.08 0.05 0.09 0.05 0.09 0.04 0.09 0.04 0.1 0.04 0.09 0.03 0.1 0.02 0.1 0.02 0.1 0.01 0.1 0.01 0.11 0 0 0.34 -0.13 0 -0.12 -0.01 -0.12 -0.02 -0.11 -0.02 -0.12 -0.03 -0.11 -0.03 -0.11 -0.04 -0.11 -0.05 -0.1 -0.05 -0.11 -0.05 -0.09 -0.06 -0.1 -0.07 -0.09 -0.07 -0.09 -0.07 -0.09 -0.08 -0.08 -0.09 -0.08 -0.08 -0.07 -0.09 -0.07 -0.1 -0.07 -0.1 -0.06 -0.1 -0.06 -0.11 -0.05 -0.1 -0.04 -0.11 -0.05 -0.12 -0.03 -0.11 -0.03 -0.12 -0.03 -0.12 -0.02 -0.13 -0.02 -0.12 -0.01 -0.13 0 -0.13 0 0zm2.37 -2.51l0 0.34 0 0 -0.11 0 -0.1 0.01 -0.1 0.02 -0.1 0.01 -0.1 0.03 -0.09 0.03 -0.1 0.03 -0.09 0.04 -0.09 0.04 -0.09 0.05 -0.08 0.05 -0.08 0.06 -0.08 0.06 -0.08 0.06 -0.07 0.07 -0.07 0.07 -0.07 0.08 -0.06 0.08 -0.07 0.08 -0.05 0.08 -0.05 0.09 -0.05 0.09 -0.05 0.1 -0.04 0.09 -0.04 0.1 -0.03 0.1 -0.03 0.11 -0.02 0.1 -0.02 0.11 -0.01 0.11 -0.01 0.11 0 0.11 -0.34 0 0 -0.13 0.01 -0.12 0.02 -0.13 0.02 -0.12 0.03 -0.12 0.03 -0.12 0.03 -0.12 0.05 -0.11 0.04 -0.11 0.05 -0.11 0.06 -0.1 0.06 -0.11 0.07 -0.09 0.07 -0.1 0.07 -0.09 0.08 -0.09 0.08 -0.08 0.09 -0.08 0.09 -0.07 0.09 -0.07 0.1 -0.07 0.09 -0.06 0.11 -0.06 0.1 -0.05 0.11 -0.04 0.11 -0.04 0.11 -0.04 0.12 -0.03 0.11 -0.02 0.12 -0.01 0.12 -0.01 0.13 -0.01 0 0z"/>
  </g>
  <g>
   <path class="fil7" d="M36.73 13.34c1.21,0 2.19,1.05 2.19,2.34 0,1.3 -0.98,2.34 -2.19,2.34 -1.21,0 -2.19,-1.04 -2.19,-2.34 0,-1.29 0.98,-2.34 2.19,-2.34z"/>
   <path id="1" class="fil1" d="M39.09 15.68l-0.33 0 0 0 -0.01 -0.11 -0.01 -0.11 -0.01 -0.11 -0.02 -0.11 -0.02 -0.1 -0.03 -0.11 -0.03 -0.1 -0.04 -0.1 -0.04 -0.09 -0.04 -0.1 -0.05 -0.09 -0.05 -0.09 -0.06 -0.08 -0.06 -0.08 -0.07 -0.08 -0.06 -0.08 -0.07 -0.07 -0.08 -0.07 -0.07 -0.06 -0.08 -0.06 -0.09 -0.06 -0.08 -0.05 -0.09 -0.05 -0.09 -0.04 -0.09 -0.04 -0.09 -0.03 -0.1 -0.03 -0.09 -0.03 -0.1 -0.01 -0.1 -0.02 -0.11 -0.01 -0.1 0 0 -0.34 0.12 0.01 0.12 0.01 0.12 0.01 0.12 0.02 0.11 0.03 0.11 0.04 0.12 0.04 0.1 0.04 0.11 0.05 0.1 0.06 0.1 0.06 0.1 0.07 0.09 0.07 0.09 0.07 0.08 0.08 0.09 0.08 0.07 0.09 0.08 0.09 0.07 0.1 0.06 0.09 0.06 0.11 0.06 0.1 0.05 0.11 0.05 0.11 0.04 0.11 0.04 0.12 0.03 0.12 0.03 0.12 0.02 0.12 0.01 0.13 0.01 0.12 0 0.13 0 0zm-2.36 2.51l0 -0.33 0 0 0.1 -0.01 0.11 -0.01 0.1 -0.01 0.1 -0.02 0.09 -0.02 0.1 -0.03 0.09 -0.03 0.09 -0.04 0.09 -0.05 0.09 -0.04 0.08 -0.06 0.09 -0.05 0.08 -0.06 0.07 -0.07 0.08 -0.07 0.07 -0.07 0.06 -0.07 0.07 -0.08 0.06 -0.08 0.06 -0.09 0.05 -0.09 0.05 -0.09 0.04 -0.09 0.04 -0.1 0.04 -0.1 0.03 -0.1 0.03 -0.1 0.02 -0.11 0.02 -0.1 0.01 -0.11 0.01 -0.11 0.01 -0.12 0.33 0 0 0.13 -0.01 0.13 -0.01 0.12 -0.02 0.13 -0.03 0.12 -0.03 0.12 -0.04 0.11 -0.04 0.12 -0.05 0.11 -0.05 0.1 -0.06 0.11 -0.06 0.1 -0.06 0.1 -0.07 0.1 -0.08 0.09 -0.07 0.08 -0.09 0.09 -0.08 0.08 -0.09 0.07 -0.09 0.07 -0.1 0.07 -0.1 0.06 -0.1 0.05 -0.11 0.05 -0.1 0.05 -0.12 0.04 -0.11 0.03 -0.11 0.03 -0.12 0.02 -0.12 0.02 -0.12 0.01 -0.12 0 0 0zm-2.36 -2.51l0.34 0 0 0 0 0.12 0.01 0.11 0.01 0.11 0.02 0.1 0.02 0.11 0.03 0.1 0.03 0.1 0.04 0.1 0.04 0.1 0.04 0.09 0.05 0.09 0.05 0.09 0.06 0.09 0.06 0.08 0.06 0.08 0.07 0.07 0.07 0.07 0.08 0.07 0.07 0.07 0.08 0.06 0.08 0.05 0.09 0.06 0.09 0.04 0.09 0.05 0.09 0.04 0.09 0.03 0.1 0.03 0.09 0.02 0.1 0.02 0.1 0.01 0.11 0.01 0.1 0.01 0 0.33 -0.12 0 -0.12 -0.01 -0.12 -0.02 -0.12 -0.02 -0.11 -0.03 -0.12 -0.03 -0.11 -0.04 -0.11 -0.05 -0.1 -0.05 -0.1 -0.05 -0.1 -0.06 -0.1 -0.07 -0.09 -0.07 -0.09 -0.07 -0.08 -0.08 -0.09 -0.09 -0.07 -0.08 -0.08 -0.09 -0.07 -0.1 -0.06 -0.1 -0.06 -0.1 -0.06 -0.11 -0.05 -0.1 -0.05 -0.11 -0.04 -0.12 -0.04 -0.11 -0.03 -0.12 -0.03 -0.12 -0.02 -0.13 -0.01 -0.12 -0.01 -0.13 0 -0.13 0 0zm2.36 -2.51l0 0.34 0 0 -0.1 0 -0.11 0.01 -0.1 0.02 -0.1 0.01 -0.09 0.03 -0.1 0.03 -0.09 0.03 -0.09 0.04 -0.09 0.04 -0.09 0.05 -0.09 0.05 -0.08 0.06 -0.08 0.06 -0.07 0.06 -0.08 0.07 -0.07 0.07 -0.07 0.08 -0.06 0.08 -0.06 0.08 -0.06 0.08 -0.05 0.09 -0.05 0.09 -0.04 0.1 -0.04 0.09 -0.04 0.1 -0.03 0.11 -0.03 0.1 -0.02 0.1 -0.02 0.11 -0.01 0.11 -0.01 0.11 0 0.11 -0.34 0 0 -0.13 0.01 -0.12 0.01 -0.13 0.02 -0.12 0.03 -0.12 0.03 -0.12 0.04 -0.12 0.04 -0.11 0.05 -0.11 0.05 -0.11 0.06 -0.1 0.06 -0.11 0.06 -0.09 0.07 -0.1 0.08 -0.09 0.07 -0.09 0.09 -0.08 0.08 -0.08 0.09 -0.07 0.09 -0.07 0.1 -0.07 0.1 -0.06 0.1 -0.06 0.1 -0.05 0.11 -0.04 0.11 -0.04 0.12 -0.04 0.11 -0.03 0.12 -0.02 0.12 -0.01 0.12 -0.01 0.12 -0.01 0 0z"/>
  </g>
  <path class="fil1" d="M23.03 21.73c-0.27,-0.18 -0.34,-0.55 -0.15,-0.82 0.18,-0.28 0.55,-0.35 0.83,-0.16 3.05,2.08 6.21,3.03 9.45,2.97 3.27,-0.06 6.64,-1.14 10.1,-3.09 0.29,-0.16 0.65,-0.06 0.81,0.22 0.16,0.29 0.06,0.65 -0.22,0.81 -3.64,2.06 -7.2,3.19 -10.67,3.25 -3.49,0.06 -6.88,-0.95 -10.15,-3.18z"/>
  <g>
   <path class="fil3" d="M5.62 30.17c1.93,0 3.5,-1.5 3.5,-3.34 0,-1.85 -1.57,-3.35 -3.5,-3.35 -1.93,0 -3.5,1.5 -3.5,3.35 0,1.84 1.57,3.34 3.5,3.34z"/>
   <path id="1" class="fil1" d="M9.28 26.83l0 0 0 0.18 -0.01 0.17 -0.03 0.18 -0.03 0.17 -0.04 0.17 -0.05 0.17 -0.06 0.17 -0.06 0.15 -0.08 0.16 -0.08 0.15 -0.09 0.15 -0.09 0.14 -0.11 0.14 -0.1 0.13 -0.12 0.13 -0.12 0.12 -0.13 0.12 -0.13 0.11 -0.14 0.1 -0.14 0.1 -0.15 0.09 -0.16 0.08 -0.15 0.08 -0.17 0.07 -0.16 0.06 -0.17 0.06 -0.18 0.05 -0.17 0.04 -0.18 0.03 -0.19 0.02 -0.18 0.01 -0.19 0.01 0 -0.34 0.17 -0.01 0.17 -0.01 0.17 -0.02 0.16 -0.03 0.16 -0.03 0.16 -0.04 0.16 -0.06 0.15 -0.05 0.14 -0.07 0.15 -0.07 0.14 -0.07 0.13 -0.08 0.13 -0.09 0.13 -0.1 0.12 -0.1 0.11 -0.1 0.11 -0.11 0.11 -0.12 0.1 -0.12 0.09 -0.12 0.09 -0.13 0.08 -0.13 0.07 -0.14 0.07 -0.14 0.06 -0.15 0.05 -0.14 0.04 -0.15 0.04 -0.16 0.03 -0.15 0.02 -0.16 0.01 -0.16 0.01 -0.16 0 0 0.33 0zm-3.66 -3.52l0 0 0.19 0.01 0.18 0.01 0.19 0.02 0.18 0.03 0.17 0.04 0.18 0.05 0.17 0.06 0.16 0.06 0.17 0.07 0.15 0.08 0.16 0.08 0.15 0.09 0.14 0.1 0.14 0.1 0.13 0.11 0.13 0.12 0.12 0.12 0.12 0.13 0.1 0.13 0.11 0.14 0.09 0.14 0.09 0.15 0.08 0.15 0.08 0.16 0.06 0.16 0.06 0.16 0.05 0.17 0.04 0.17 0.03 0.17 0.03 0.18 0.01 0.18 0 0.18 -0.33 0 -0.01 -0.17 -0.01 -0.16 -0.02 -0.16 -0.03 -0.15 -0.04 -0.16 -0.04 -0.15 -0.05 -0.14 -0.06 -0.15 -0.07 -0.14 -0.07 -0.13 -0.08 -0.14 -0.09 -0.12 -0.09 -0.13 -0.1 -0.12 -0.11 -0.11 -0.11 -0.11 -0.11 -0.11 -0.12 -0.1 -0.13 -0.09 -0.13 -0.09 -0.13 -0.09 -0.14 -0.07 -0.15 -0.07 -0.14 -0.07 -0.15 -0.05 -0.16 -0.05 -0.16 -0.05 -0.16 -0.03 -0.16 -0.03 -0.17 -0.02 -0.17 -0.01 -0.17 -0.01 0 0 0 -0.34zm-3.67 3.52l0 0 0.01 -0.18 0.01 -0.18 0.03 -0.18 0.03 -0.17 0.04 -0.17 0.05 -0.17 0.06 -0.16 0.06 -0.16 0.08 -0.16 0.08 -0.15 0.09 -0.15 0.09 -0.14 0.1 -0.14 0.11 -0.13 0.12 -0.13 0.12 -0.12 0.13 -0.12 0.13 -0.11 0.14 -0.1 0.14 -0.1 0.15 -0.09 0.16 -0.08 0.15 -0.08 0.17 -0.07 0.16 -0.06 0.17 -0.06 0.18 -0.05 0.17 -0.04 0.18 -0.03 0.19 -0.02 0.18 -0.01 0.19 -0.01 0 0.34 -0.17 0.01 -0.17 0.01 -0.17 0.02 -0.16 0.03 -0.16 0.03 -0.16 0.05 -0.16 0.05 -0.15 0.05 -0.14 0.07 -0.15 0.07 -0.14 0.07 -0.13 0.09 -0.13 0.09 -0.13 0.09 -0.12 0.1 -0.12 0.11 -0.11 0.11 -0.1 0.11 -0.1 0.12 -0.09 0.13 -0.09 0.12 -0.08 0.14 -0.07 0.13 -0.07 0.14 -0.06 0.15 -0.05 0.14 -0.04 0.15 -0.04 0.16 -0.03 0.15 -0.02 0.16 -0.01 0.16 -0.01 0.17 0 0 -0.34 0zm3.67 3.51l0 0 -0.19 -0.01 -0.18 -0.01 -0.19 -0.02 -0.18 -0.03 -0.17 -0.04 -0.18 -0.05 -0.17 -0.06 -0.16 -0.06 -0.17 -0.07 -0.15 -0.08 -0.16 -0.08 -0.15 -0.09 -0.14 -0.1 -0.14 -0.1 -0.13 -0.11 -0.13 -0.12 -0.12 -0.12 -0.12 -0.13 -0.11 -0.13 -0.1 -0.14 -0.09 -0.14 -0.09 -0.15 -0.08 -0.15 -0.08 -0.16 -0.06 -0.15 -0.06 -0.17 -0.05 -0.17 -0.04 -0.17 -0.03 -0.17 -0.03 -0.18 -0.01 -0.17 -0.01 -0.18 0.34 0 0.01 0.16 0.01 0.16 0.02 0.16 0.03 0.15 0.04 0.16 0.04 0.15 0.05 0.14 0.06 0.15 0.07 0.14 0.07 0.14 0.08 0.13 0.09 0.13 0.09 0.12 0.1 0.12 0.1 0.12 0.11 0.11 0.12 0.1 0.12 0.1 0.13 0.1 0.13 0.09 0.13 0.08 0.14 0.07 0.15 0.07 0.14 0.07 0.15 0.05 0.16 0.06 0.16 0.04 0.16 0.03 0.16 0.03 0.17 0.02 0.17 0.01 0.17 0.01 0 0 0 0.34z"/>
  </g>
  <g>
   <path class="fil0" d="M15.76 28.45l36.18 0c0.49,0 0.88,0.4 0.88,0.88l0 0.88c0,0.48 -0.39,0.87 -0.88,0.87l-36.18 0c-0.48,0 -0.87,-0.39 -0.87,-0.87l0 -0.88c0,-0.48 0.39,-0.88 0.87,-0.88z"/>
   <path id="1" class="fil1" d="M51.94 28.62l-36.18 0 0 -0.34 36.18 0 0 0 0 0.34zm1.05 0.71l-0.34 0 0 0 0 -0.04 0 -0.03 -0.01 -0.04 0 -0.03 -0.01 -0.03 -0.01 -0.04 -0.01 -0.03 -0.02 -0.04 -0.01 -0.03 -0.01 -0.03 -0.02 -0.03 -0.02 -0.03 -0.02 -0.02 -0.02 -0.03 -0.02 -0.03 -0.03 -0.02 -0.02 -0.02 -0.03 -0.03 -0.02 -0.02 -0.03 -0.02 -0.03 -0.02 -0.03 -0.01 -0.03 -0.02 -0.03 -0.01 -0.03 -0.02 -0.04 -0.01 -0.03 -0.01 -0.03 0 -0.04 -0.01 -0.04 -0.01 -0.03 0 -0.04 0 0 -0.34 0.06 0 0.05 0.01 0.05 0.01 0.05 0 0.05 0.02 0.05 0.01 0.05 0.02 0.05 0.02 0.05 0.02 0.04 0.02 0.04 0.03 0.05 0.02 0.04 0.03 0.04 0.03 0.04 0.03 0.03 0.04 0.04 0.04 0.03 0.03 0.03 0.04 0.03 0.05 0.03 0.04 0.02 0.04 0.03 0.05 0.02 0.04 0.02 0.05 0.01 0.05 0.02 0.05 0.01 0.05 0.01 0.05 0 0.05 0.01 0.06 0 0.05 0 0zm-0.34 0.88l0 -0.88 0.34 0 0 0.88 0 0 -0.34 0zm-0.71 1.04l0 -0.33 0 0 0.04 -0.01 0.03 0 0.04 0 0.04 -0.01 0.03 -0.01 0.03 -0.01 0.04 -0.01 0.03 -0.01 0.03 -0.01 0.03 -0.02 0.03 -0.02 0.03 -0.02 0.03 -0.01 0.02 -0.03 0.03 -0.02 0.02 -0.02 0.03 -0.03 0.02 -0.02 0.02 -0.03 0.02 -0.03 0.02 -0.03 0.02 -0.03 0.01 -0.03 0.01 -0.03 0.02 -0.03 0.01 -0.03 0.01 -0.04 0.01 -0.03 0 -0.03 0.01 -0.04 0 -0.04 0 -0.03 0.34 0 0 0.05 -0.01 0.05 0 0.06 -0.01 0.05 -0.01 0.05 -0.02 0.05 -0.01 0.05 -0.02 0.04 -0.02 0.05 -0.03 0.05 -0.02 0.04 -0.03 0.04 -0.03 0.04 -0.03 0.04 -0.03 0.04 -0.04 0.04 -0.03 0.03 -0.04 0.04 -0.04 0.02 -0.04 0.04 -0.05 0.02 -0.04 0.03 -0.04 0.02 -0.05 0.02 -0.05 0.02 -0.05 0.02 -0.05 0.01 -0.05 0.01 -0.05 0.01 -0.05 0.01 -0.05 0 -0.06 0 0 0zm-36.18 -0.33l36.18 0 0 0.33 -36.18 0 0 0 0 -0.33zm-1.04 -0.71l0.33 0 0 0 0.01 0.03 0 0.04 0 0.04 0.01 0.03 0.01 0.03 0.01 0.04 0.01 0.03 0.01 0.03 0.01 0.03 0.02 0.03 0.02 0.03 0.02 0.03 0.02 0.03 0.02 0.03 0.02 0.02 0.02 0.03 0.03 0.02 0.02 0.02 0.03 0.03 0.03 0.01 0.03 0.02 0.03 0.02 0.03 0.02 0.03 0.01 0.03 0.01 0.03 0.01 0.04 0.01 0.03 0.01 0.03 0.01 0.04 0 0.04 0 0.03 0.01 0 0.33 -0.05 0 -0.05 0 -0.05 -0.01 -0.05 -0.01 -0.06 -0.01 -0.05 -0.01 -0.05 -0.02 -0.04 -0.02 -0.05 -0.02 -0.05 -0.02 -0.04 -0.03 -0.04 -0.02 -0.04 -0.04 -0.04 -0.02 -0.04 -0.04 -0.04 -0.03 -0.03 -0.04 -0.03 -0.04 -0.03 -0.04 -0.03 -0.04 -0.03 -0.04 -0.03 -0.04 -0.02 -0.05 -0.02 -0.05 -0.02 -0.04 -0.02 -0.05 -0.01 -0.05 -0.01 -0.05 -0.01 -0.05 -0.01 -0.06 0 -0.05 0 -0.05 0 0zm0.33 -0.88l0 0.88 -0.33 0 0 -0.88 0 0 0.33 0zm0.71 -1.05l0 0.34 0 0 -0.03 0 -0.04 0 -0.04 0.01 -0.03 0.01 -0.03 0 -0.04 0.01 -0.03 0.01 -0.03 0.02 -0.03 0.01 -0.03 0.02 -0.03 0.01 -0.03 0.02 -0.03 0.02 -0.03 0.02 -0.02 0.03 -0.03 0.02 -0.02 0.02 -0.02 0.03 -0.02 0.03 -0.02 0.02 -0.02 0.03 -0.02 0.03 -0.02 0.03 -0.01 0.03 -0.01 0.04 -0.01 0.03 -0.01 0.04 -0.01 0.03 -0.01 0.03 0 0.04 0 0.03 -0.01 0.04 -0.33 0 0 -0.05 0 -0.06 0.01 -0.05 0.01 -0.05 0.01 -0.05 0.01 -0.05 0.02 -0.05 0.02 -0.05 0.02 -0.04 0.02 -0.05 0.03 -0.04 0.03 -0.04 0.03 -0.05 0.03 -0.04 0.03 -0.03 0.03 -0.04 0.04 -0.04 0.04 -0.03 0.04 -0.03 0.04 -0.03 0.04 -0.02 0.04 -0.03 0.05 -0.02 0.05 -0.02 0.04 -0.02 0.05 -0.02 0.05 -0.01 0.06 -0.02 0.05 0 0.05 -0.01 0.05 -0.01 0.05 0 0 0z"/>
  </g>
  <g>
   <path class="fil8" d="M15.76 31.23l36.18 0c0.49,0 0.88,0.4 0.88,0.88l0 0.88c0,0.48 -0.39,0.87 -0.88,0.87l-36.18 0c-0.48,0 -0.87,-0.39 -0.87,-0.87l0 -0.88c0,-0.48 0.39,-0.88 0.87,-0.88z"/>
   <path id="1" class="fil1" d="M51.94 31.4l-36.18 0 0 -0.34 36.18 0 0 0 0 0.34zm1.05 0.71l-0.34 0 0 0 0 -0.04 0 -0.03 -0.01 -0.04 0 -0.04 -0.01 -0.03 -0.01 -0.03 -0.01 -0.03 -0.02 -0.04 -0.01 -0.03 -0.01 -0.03 -0.02 -0.03 -0.02 -0.03 -0.02 -0.02 -0.02 -0.03 -0.02 -0.03 -0.03 -0.02 -0.02 -0.03 -0.03 -0.02 -0.02 -0.02 -0.03 -0.02 -0.03 -0.02 -0.03 -0.01 -0.03 -0.02 -0.03 -0.01 -0.03 -0.02 -0.04 -0.01 -0.03 -0.01 -0.03 0 -0.04 -0.01 -0.04 -0.01 -0.03 0 -0.04 0 0 -0.34 0.06 0 0.05 0.01 0.05 0 0.05 0.01 0.05 0.02 0.05 0.01 0.05 0.02 0.05 0.02 0.05 0.02 0.04 0.02 0.04 0.02 0.05 0.03 0.04 0.03 0.04 0.03 0.04 0.03 0.03 0.04 0.04 0.04 0.03 0.03 0.03 0.04 0.03 0.04 0.03 0.05 0.02 0.04 0.03 0.05 0.02 0.04 0.02 0.05 0.01 0.05 0.02 0.05 0.01 0.05 0.01 0.05 0 0.05 0.01 0.05 0 0.06 0 0zm-0.34 0.88l0 -0.88 0.34 0 0 0.88 0 0 -0.34 0zm-0.71 1.04l0 -0.33 0 0 0.04 -0.01 0.03 0 0.04 0 0.04 -0.01 0.03 -0.01 0.03 -0.01 0.04 -0.01 0.03 -0.01 0.03 -0.01 0.03 -0.02 0.03 -0.02 0.03 -0.02 0.03 -0.02 0.02 -0.02 0.03 -0.02 0.02 -0.02 0.03 -0.03 0.02 -0.02 0.02 -0.03 0.02 -0.03 0.02 -0.03 0.02 -0.03 0.01 -0.03 0.01 -0.03 0.02 -0.03 0.01 -0.03 0.01 -0.04 0.01 -0.03 0 -0.03 0.01 -0.04 0 -0.04 0 -0.03 0.34 0 0 0.05 -0.01 0.05 0 0.05 -0.01 0.05 -0.01 0.06 -0.02 0.05 -0.01 0.05 -0.02 0.04 -0.02 0.05 -0.03 0.05 -0.02 0.04 -0.03 0.04 -0.03 0.04 -0.03 0.04 -0.03 0.04 -0.04 0.04 -0.03 0.03 -0.04 0.03 -0.04 0.03 -0.04 0.03 -0.05 0.03 -0.04 0.03 -0.04 0.02 -0.05 0.02 -0.05 0.02 -0.05 0.02 -0.05 0.01 -0.05 0.01 -0.05 0.01 -0.05 0.01 -0.05 0 -0.06 0 0 0zm-36.18 -0.33l36.18 0 0 0.33 -36.18 0 0 0 0 -0.33zm-1.04 -0.71l0.33 0 0 0 0.01 0.03 0 0.04 0 0.04 0.01 0.03 0.01 0.03 0.01 0.04 0.01 0.03 0.01 0.03 0.01 0.03 0.02 0.03 0.02 0.03 0.02 0.03 0.02 0.03 0.02 0.03 0.02 0.02 0.02 0.03 0.03 0.02 0.02 0.02 0.03 0.02 0.03 0.02 0.03 0.02 0.03 0.02 0.03 0.02 0.03 0.01 0.03 0.01 0.03 0.01 0.04 0.01 0.03 0.01 0.03 0.01 0.04 0 0.04 0 0.03 0.01 0 0.33 -0.05 0 -0.05 0 -0.05 -0.01 -0.05 -0.01 -0.06 -0.01 -0.05 -0.01 -0.05 -0.02 -0.04 -0.02 -0.05 -0.02 -0.05 -0.02 -0.04 -0.03 -0.04 -0.03 -0.04 -0.03 -0.04 -0.03 -0.04 -0.03 -0.04 -0.03 -0.03 -0.04 -0.03 -0.04 -0.03 -0.04 -0.03 -0.04 -0.03 -0.04 -0.03 -0.04 -0.02 -0.05 -0.02 -0.05 -0.02 -0.04 -0.02 -0.05 -0.01 -0.05 -0.01 -0.06 -0.01 -0.05 -0.01 -0.05 0 -0.05 0 -0.05 0 0zm0.33 -0.88l0 0.88 -0.33 0 0 -0.88 0 0 0.33 0zm0.71 -1.05l0 0.34 0 0 -0.03 0 -0.04 0 -0.04 0.01 -0.03 0.01 -0.03 0 -0.04 0.01 -0.03 0.01 -0.03 0.02 -0.03 0.01 -0.03 0.02 -0.03 0.01 -0.03 0.02 -0.03 0.02 -0.03 0.02 -0.02 0.02 -0.03 0.03 -0.02 0.02 -0.02 0.03 -0.02 0.03 -0.02 0.02 -0.02 0.03 -0.02 0.03 -0.02 0.03 -0.01 0.03 -0.01 0.04 -0.01 0.03 -0.01 0.03 -0.01 0.03 -0.01 0.04 0 0.04 0 0.03 -0.01 0.04 -0.33 0 0 -0.06 0 -0.05 0.01 -0.05 0.01 -0.05 0.01 -0.05 0.01 -0.05 0.02 -0.05 0.02 -0.05 0.02 -0.04 0.02 -0.05 0.03 -0.04 0.03 -0.05 0.03 -0.04 0.03 -0.04 0.03 -0.03 0.03 -0.04 0.04 -0.04 0.04 -0.03 0.04 -0.03 0.04 -0.03 0.04 -0.03 0.04 -0.02 0.05 -0.02 0.05 -0.02 0.04 -0.02 0.05 -0.02 0.05 -0.01 0.06 -0.02 0.05 -0.01 0.05 0 0.05 -0.01 0.05 0 0 0z"/>
  </g>
  <g>
   <path class="fil8" d="M20.62 47.13l26.47 0c0.48,0 0.88,0.4 0.88,0.88l0 0.88c0,0.48 -0.4,0.88 -0.88,0.88l-26.47 0c-0.49,0 -0.88,-0.4 -0.88,-0.88l0 -0.88c0,-0.48 0.39,-0.88 0.88,-0.88z"/>
   <path id="1" class="fil1" d="M47.09 47.3l-26.47 0 0 -0.33 26.47 0 0 0 0 0.33zm1.05 0.71l-0.34 0 0 0 0 -0.04 0 -0.03 -0.01 -0.04 -0.01 -0.03 0 -0.03 -0.01 -0.04 -0.01 -0.03 -0.02 -0.04 -0.01 -0.03 -0.01 -0.03 -0.02 -0.03 -0.02 -0.03 -0.02 -0.02 -0.02 -0.03 -0.02 -0.03 -0.03 -0.02 -0.02 -0.03 -0.03 -0.02 -0.03 -0.02 -0.02 -0.02 -0.03 -0.02 -0.03 -0.01 -0.03 -0.02 -0.03 -0.01 -0.04 -0.02 -0.03 -0.01 -0.03 -0.01 -0.03 0 -0.04 -0.01 -0.04 0 -0.03 -0.01 -0.04 0 0 -0.33 0.06 0 0.05 0 0.05 0.01 0.05 0.01 0.05 0.01 0.05 0.01 0.05 0.02 0.05 0.02 0.05 0.02 0.04 0.02 0.04 0.03 0.05 0.02 0.04 0.03 0.04 0.03 0.03 0.04 0.04 0.03 0.04 0.04 0.03 0.04 0.03 0.04 0.03 0.04 0.03 0.04 0.02 0.04 0.03 0.05 0.02 0.04 0.02 0.05 0.01 0.05 0.02 0.05 0.01 0.05 0.01 0.05 0 0.05 0.01 0.06 0 0.05 0 0zm-0.34 0.88l0 -0.88 0.34 0 0 0.88 0 0 -0.34 0zm-0.71 1.04l0 -0.33 0 0 0.04 0 0.03 -0.01 0.04 0 0.04 -0.01 0.03 0 0.03 -0.02 0.03 -0.01 0.04 -0.01 0.03 -0.01 0.03 -0.02 0.03 -0.02 0.03 -0.01 0.02 -0.02 0.03 -0.02 0.03 -0.03 0.02 -0.02 0.03 -0.02 0.02 -0.03 0.02 -0.03 0.02 -0.03 0.02 -0.02 0.02 -0.04 0.01 -0.02 0.01 -0.04 0.02 -0.03 0.01 -0.03 0.01 -0.04 0 -0.03 0.01 -0.03 0.01 -0.04 0 -0.04 0 -0.03 0.34 0 0 0.05 -0.01 0.06 0 0.05 -0.01 0.05 -0.01 0.05 -0.02 0.05 -0.01 0.05 -0.02 0.04 -0.02 0.05 -0.03 0.05 -0.02 0.04 -0.03 0.04 -0.03 0.04 -0.03 0.04 -0.03 0.04 -0.04 0.04 -0.04 0.03 -0.03 0.03 -0.04 0.03 -0.04 0.04 -0.05 0.02 -0.04 0.03 -0.04 0.02 -0.05 0.02 -0.05 0.02 -0.05 0.02 -0.05 0.01 -0.05 0.01 -0.05 0.01 -0.05 0.01 -0.05 0 -0.06 0 0 0zm-26.47 -0.33l26.47 0 0 0.33 -26.47 0 0 0 0 -0.33zm-1.05 -0.71l0.34 0 0 0 0 0.03 0 0.04 0.01 0.04 0 0.03 0.01 0.03 0.01 0.04 0.01 0.03 0.01 0.03 0.02 0.04 0.01 0.02 0.02 0.04 0.02 0.02 0.02 0.03 0.02 0.03 0.02 0.03 0.03 0.02 0.02 0.02 0.03 0.03 0.02 0.02 0.03 0.02 0.03 0.01 0.03 0.02 0.03 0.02 0.03 0.01 0.03 0.01 0.04 0.01 0.03 0.02 0.03 0 0.04 0.01 0.03 0 0.04 0.01 0.04 0 0 0.33 -0.06 0 -0.05 0 -0.05 -0.01 -0.05 -0.01 -0.06 -0.01 -0.05 -0.01 -0.04 -0.02 -0.05 -0.02 -0.05 -0.02 -0.05 -0.02 -0.04 -0.03 -0.04 -0.02 -0.04 -0.04 -0.04 -0.03 -0.04 -0.03 -0.04 -0.03 -0.03 -0.04 -0.03 -0.04 -0.03 -0.04 -0.03 -0.04 -0.03 -0.04 -0.02 -0.04 -0.03 -0.05 -0.02 -0.05 -0.02 -0.04 -0.01 -0.05 -0.02 -0.05 -0.01 -0.05 -0.01 -0.05 -0.01 -0.05 0 -0.06 0 -0.05 0 0zm0.34 -0.88l0 0.88 -0.34 0 0 -0.88 0 0 0.34 0zm0.71 -1.04l0 0.33 0 0 -0.04 0 -0.04 0.01 -0.03 0 -0.04 0.01 -0.03 0 -0.03 0.01 -0.04 0.01 -0.03 0.02 -0.03 0.01 -0.03 0.02 -0.03 0.01 -0.03 0.02 -0.03 0.02 -0.02 0.02 -0.03 0.02 -0.02 0.03 -0.03 0.02 -0.02 0.03 -0.02 0.03 -0.02 0.02 -0.02 0.03 -0.02 0.03 -0.01 0.03 -0.02 0.03 -0.01 0.04 -0.01 0.03 -0.01 0.04 -0.01 0.03 0 0.03 -0.01 0.04 0 0.03 0 0.04 -0.34 0 0 -0.05 0 -0.06 0.01 -0.05 0.01 -0.05 0.01 -0.05 0.02 -0.05 0.01 -0.05 0.02 -0.05 0.02 -0.04 0.03 -0.05 0.02 -0.04 0.03 -0.04 0.03 -0.04 0.03 -0.04 0.03 -0.04 0.03 -0.04 0.04 -0.03 0.04 -0.04 0.04 -0.03 0.04 -0.03 0.04 -0.02 0.04 -0.03 0.05 -0.02 0.05 -0.02 0.05 -0.02 0.04 -0.02 0.05 -0.01 0.06 -0.01 0.05 -0.01 0.05 -0.01 0.05 0 0.06 0 0 0z"/>
  </g>
  <g>
   <path class="fil0" d="M20.62 49.57l26.47 0c0.48,0 0.88,0.4 0.88,0.88l0 0.88c0,0.48 -0.4,0.87 -0.88,0.87l-26.47 0c-0.49,0 -0.88,-0.39 -0.88,-0.87l0 -0.88c0,-0.48 0.39,-0.88 0.88,-0.88z"/>
   <path id="1" class="fil1" d="M47.09 49.74l-26.47 0 0 -0.34 26.47 0 0 0 0 0.34zm1.05 0.71l-0.34 0 0 0 0 -0.04 0 -0.03 -0.01 -0.04 -0.01 -0.04 0 -0.03 -0.01 -0.03 -0.01 -0.04 -0.02 -0.03 -0.01 -0.03 -0.01 -0.03 -0.02 -0.03 -0.02 -0.03 -0.02 -0.03 -0.02 -0.02 -0.02 -0.03 -0.03 -0.02 -0.02 -0.03 -0.03 -0.02 -0.03 -0.02 -0.02 -0.02 -0.03 -0.02 -0.03 -0.02 -0.03 -0.01 -0.03 -0.01 -0.04 -0.02 -0.03 -0.01 -0.03 -0.01 -0.03 -0.01 -0.04 0 -0.04 -0.01 -0.03 0 -0.04 0 0 -0.34 0.06 0 0.05 0.01 0.05 0 0.05 0.01 0.05 0.02 0.05 0.01 0.05 0.02 0.05 0.02 0.05 0.02 0.04 0.02 0.04 0.02 0.05 0.03 0.04 0.03 0.04 0.03 0.03 0.03 0.04 0.04 0.04 0.04 0.03 0.03 0.03 0.04 0.03 0.04 0.03 0.05 0.02 0.04 0.03 0.05 0.02 0.04 0.02 0.05 0.01 0.05 0.02 0.05 0.01 0.05 0.01 0.05 0 0.05 0.01 0.06 0 0.05 0 0zm-0.34 0.88l0 -0.88 0.34 0 0 0.88 0 0 -0.34 0zm-0.71 1.04l0 -0.33 0 0 0.04 -0.01 0.03 0 0.04 0 0.04 -0.01 0.03 -0.01 0.03 -0.01 0.03 -0.01 0.04 -0.01 0.03 -0.01 0.03 -0.02 0.03 -0.02 0.03 -0.02 0.02 -0.01 0.03 -0.03 0.03 -0.02 0.02 -0.02 0.03 -0.03 0.02 -0.02 0.02 -0.03 0.02 -0.03 0.02 -0.03 0.02 -0.03 0.01 -0.03 0.01 -0.03 0.02 -0.03 0.01 -0.03 0.01 -0.04 0 -0.03 0.01 -0.04 0.01 -0.03 0 -0.04 0 -0.03 0.34 0 0 0.05 -0.01 0.05 0 0.05 -0.01 0.05 -0.01 0.06 -0.02 0.05 -0.01 0.04 -0.02 0.05 -0.02 0.05 -0.03 0.05 -0.02 0.04 -0.03 0.04 -0.03 0.04 -0.03 0.04 -0.03 0.04 -0.04 0.03 -0.04 0.04 -0.03 0.03 -0.04 0.03 -0.04 0.03 -0.05 0.03 -0.04 0.02 -0.04 0.03 -0.05 0.02 -0.05 0.02 -0.05 0.01 -0.05 0.02 -0.05 0.01 -0.05 0.01 -0.05 0.01 -0.05 0 -0.06 0 0 0zm-26.47 -0.33l26.47 0 0 0.33 -26.47 0 0 0 0 -0.33zm-1.05 -0.71l0.34 0 0 0 0 0.03 0 0.04 0.01 0.03 0 0.04 0.01 0.03 0.01 0.04 0.01 0.03 0.01 0.03 0.02 0.03 0.01 0.03 0.02 0.03 0.02 0.03 0.02 0.03 0.02 0.03 0.02 0.02 0.03 0.03 0.02 0.02 0.03 0.02 0.02 0.03 0.03 0.01 0.03 0.02 0.03 0.02 0.03 0.02 0.03 0.01 0.03 0.01 0.04 0.01 0.03 0.01 0.03 0.01 0.04 0.01 0.03 0 0.04 0 0.04 0.01 0 0.33 -0.06 0 -0.05 0 -0.05 -0.01 -0.05 -0.01 -0.06 -0.01 -0.05 -0.02 -0.04 -0.01 -0.05 -0.02 -0.05 -0.02 -0.05 -0.03 -0.04 -0.02 -0.04 -0.03 -0.04 -0.03 -0.04 -0.03 -0.04 -0.03 -0.04 -0.04 -0.03 -0.03 -0.03 -0.04 -0.03 -0.04 -0.03 -0.04 -0.03 -0.04 -0.02 -0.04 -0.03 -0.05 -0.02 -0.05 -0.02 -0.05 -0.01 -0.04 -0.02 -0.05 -0.01 -0.06 -0.01 -0.05 -0.01 -0.05 0 -0.05 0 -0.05 0 0zm0.34 -0.88l0 0.88 -0.34 0 0 -0.88 0 0 0.34 0zm0.71 -1.05l0 0.34 0 0 -0.04 0 -0.04 0 -0.03 0.01 -0.04 0 -0.03 0.01 -0.03 0.01 -0.04 0.01 -0.03 0.02 -0.03 0.01 -0.03 0.01 -0.03 0.02 -0.03 0.02 -0.03 0.02 -0.02 0.02 -0.03 0.02 -0.02 0.03 -0.03 0.02 -0.02 0.03 -0.02 0.02 -0.02 0.03 -0.02 0.03 -0.02 0.03 -0.01 0.03 -0.02 0.03 -0.01 0.03 -0.01 0.04 -0.01 0.03 -0.01 0.03 0 0.04 -0.01 0.04 0 0.03 0 0.04 -0.34 0 0 -0.05 0 -0.06 0.01 -0.05 0.01 -0.05 0.01 -0.05 0.02 -0.05 0.01 -0.05 0.02 -0.05 0.02 -0.04 0.03 -0.05 0.02 -0.04 0.03 -0.05 0.03 -0.04 0.03 -0.04 0.03 -0.03 0.03 -0.04 0.04 -0.04 0.04 -0.03 0.04 -0.03 0.04 -0.03 0.04 -0.03 0.04 -0.02 0.05 -0.02 0.05 -0.02 0.05 -0.02 0.04 -0.02 0.05 -0.01 0.06 -0.02 0.05 -0.01 0.05 0 0.05 -0.01 0.06 0 0 0z"/>
  </g>
  <g>
   <path class="fil1" d="M26.56 41.25l-0.34 0 0 0 0 -0.03 0 -0.03 -0.01 -0.03 0 -0.03 -0.01 -0.03 -0.01 -0.03 -0.01 -0.03 -0.01 -0.02 -0.01 -0.03 -0.02 -0.02 -0.02 -0.03 -0.01 -0.02 -0.02 -0.03 -0.02 -0.02 -0.02 -0.03 -0.02 -0.02 -0.02 -0.02 -0.03 -0.02 -0.02 -0.02 -0.03 -0.01 -0.03 -0.02 -0.02 -0.01 -0.03 -0.02 -0.03 -0.01 -0.03 -0.01 -0.03 -0.01 -0.04 -0.01 -0.03 -0.01 -0.03 0 -0.03 -0.01 -0.04 0 -0.03 0 0 -0.34 0.05 0 0.05 0.01 0.05 0 0.05 0.01 0.05 0.01 0.04 0.01 0.05 0.02 0.04 0.02 0.05 0.01 0.04 0.03 0.04 0.02 0.04 0.02 0.04 0.03 0.04 0.03 0.04 0.03 0.03 0.03 0.03 0.03 0.04 0.04 0.02 0.03 0.03 0.03 0.03 0.05 0.02 0.03 0.03 0.05 0.02 0.04 0.02 0.04 0.01 0.05 0.01 0.04 0.02 0.05 0.01 0.05 0 0.04 0.01 0.05 0 0.05 0 0zm-1 0.95l0 -0.34 0 0 0.03 0 0.04 0 0.03 -0.01 0.03 0 0.03 -0.01 0.04 -0.01 0.03 -0.01 0.03 -0.01 0.03 -0.01 0.03 -0.01 0.02 -0.02 0.03 -0.01 0.03 -0.02 0.02 -0.02 0.03 -0.02 0.02 -0.02 0.02 -0.02 0.02 -0.02 0.02 -0.03 0.02 -0.02 0.01 -0.02 0.02 -0.03 0.02 -0.03 0.01 -0.02 0.01 -0.03 0.01 -0.03 0.01 -0.03 0.01 -0.03 0 -0.02 0.01 -0.04 0 -0.03 0 -0.03 0.34 0 0 0.05 -0.01 0.05 0 0.05 -0.01 0.04 -0.02 0.05 -0.01 0.05 -0.01 0.04 -0.02 0.04 -0.02 0.05 -0.03 0.04 -0.02 0.04 -0.03 0.04 -0.03 0.03 -0.02 0.04 -0.04 0.03 -0.03 0.04 -0.04 0.03 -0.03 0.03 -0.04 0.03 -0.04 0.02 -0.04 0.03 -0.04 0.02 -0.04 0.02 -0.05 0.02 -0.04 0.02 -0.05 0.01 -0.04 0.01 -0.05 0.01 -0.05 0.01 -0.05 0.01 -0.05 0 -0.05 0 0 0zm-1 -0.95l0.34 0 0 0 0 0.03 0 0.03 0.01 0.04 0 0.02 0.01 0.03 0.01 0.03 0.01 0.03 0.01 0.03 0.01 0.02 0.01 0.03 0.02 0.03 0.02 0.02 0.02 0.02 0.02 0.03 0.02 0.02 0.02 0.02 0.02 0.02 0.03 0.02 0.02 0.02 0.02 0.02 0.03 0.01 0.03 0.02 0.03 0.01 0.03 0.01 0.03 0.01 0.03 0.01 0.03 0.01 0.03 0.01 0.04 0 0.03 0.01 0.03 0 0.04 0 0 0.34 -0.05 0 -0.05 0 -0.05 -0.01 -0.05 -0.01 -0.05 -0.01 -0.05 -0.01 -0.04 -0.02 -0.05 -0.01 -0.04 -0.02 -0.05 -0.02 -0.04 -0.02 -0.04 -0.03 -0.03 -0.02 -0.04 -0.03 -0.04 -0.03 -0.03 -0.03 -0.04 -0.04 -0.03 -0.03 -0.03 -0.04 -0.03 -0.04 -0.02 -0.03 -0.03 -0.04 -0.02 -0.04 -0.02 -0.05 -0.02 -0.04 -0.01 -0.04 -0.02 -0.05 -0.01 -0.05 -0.01 -0.04 0 -0.05 -0.01 -0.05 0 -0.05 0 0zm1 -0.95l0 0.34 0 0 -0.04 0 -0.03 0 -0.03 0.01 -0.04 0 -0.03 0.01 -0.03 0.01 -0.03 0.01 -0.03 0.01 -0.03 0.01 -0.03 0.02 -0.03 0.01 -0.03 0.02 -0.02 0.01 -0.02 0.02 -0.03 0.02 -0.02 0.02 -0.02 0.02 -0.02 0.03 -0.02 0.02 -0.02 0.02 -0.02 0.03 -0.02 0.03 -0.01 0.02 -0.01 0.03 -0.01 0.02 -0.01 0.03 -0.01 0.03 -0.01 0.03 0 0.03 -0.01 0.03 0 0.03 0 0.03 -0.34 0 0 -0.05 0.01 -0.05 0 -0.04 0.01 -0.05 0.01 -0.05 0.02 -0.04 0.01 -0.05 0.02 -0.04 0.02 -0.04 0.02 -0.05 0.03 -0.03 0.02 -0.04 0.03 -0.04 0.03 -0.03 0.03 -0.04 0.04 -0.03 0.03 -0.03 0.04 -0.03 0.04 -0.03 0.03 -0.03 0.04 -0.02 0.04 -0.02 0.05 -0.03 0.04 -0.01 0.05 -0.02 0.04 -0.02 0.05 -0.01 0.05 -0.01 0.05 -0.01 0.05 0 0.05 -0.01 0.05 0 0 0z"/>
  </g>
  <g>
   <path class="fil9" d="M29.35 15.41c0.45,0 0.83,0.35 0.83,0.78 0,0.43 -0.38,0.78 -0.83,0.78 -0.46,0 -0.83,-0.35 -0.83,-0.78 0,-0.43 0.37,-0.78 0.83,-0.78z"/>
   <path id="1" class="fil1" d="M30.35 16.19l-0.34 0 0 0 0 -0.03 -0.01 -0.03 0 -0.03 -0.01 -0.03 0 -0.03 -0.01 -0.03 -0.01 -0.03 -0.01 -0.03 -0.01 -0.02 -0.02 -0.02 -0.02 -0.03 -0.01 -0.03 -0.02 -0.02 -0.02 -0.02 -0.02 -0.03 -0.02 -0.02 -0.02 -0.02 -0.03 -0.02 -0.02 -0.02 -0.03 -0.01 -0.03 -0.02 -0.03 -0.02 -0.02 -0.01 -0.03 -0.01 -0.03 -0.01 -0.03 -0.01 -0.04 -0.01 -0.03 -0.01 -0.03 0 -0.03 -0.01 -0.04 0 -0.03 0 0 -0.34 0.05 0 0.05 0 0.05 0.01 0.05 0.01 0.05 0.01 0.04 0.01 0.05 0.02 0.04 0.01 0.05 0.02 0.04 0.02 0.04 0.03 0.04 0.02 0.04 0.03 0.04 0.03 0.03 0.02 0.04 0.04 0.03 0.03 0.03 0.03 0.03 0.04 0.03 0.03 0.03 0.04 0.02 0.04 0.03 0.04 0.02 0.05 0.01 0.04 0.02 0.04 0.01 0.05 0.02 0.05 0 0.05 0.01 0.04 0 0.05 0.01 0.05 0 0zm-1 0.95l0 -0.34 0 0 0.03 0 0.04 0 0.03 -0.01 0.03 0 0.03 -0.01 0.04 -0.01 0.03 -0.01 0.03 -0.01 0.03 -0.01 0.03 -0.02 0.02 -0.01 0.03 -0.02 0.03 -0.01 0.02 -0.02 0.03 -0.02 0.02 -0.02 0.02 -0.02 0.02 -0.02 0.02 -0.03 0.02 -0.02 0.01 -0.03 0.02 -0.02 0.02 -0.03 0.01 -0.02 0.01 -0.03 0.01 -0.03 0.01 -0.03 0 -0.03 0.01 -0.03 0 -0.03 0.01 -0.03 0 -0.03 0.34 0 -0.01 0.05 0 0.05 -0.01 0.05 0 0.04 -0.02 0.05 -0.01 0.05 -0.02 0.04 -0.01 0.04 -0.02 0.05 -0.03 0.04 -0.02 0.04 -0.03 0.03 -0.03 0.04 -0.03 0.04 -0.03 0.03 -0.03 0.03 -0.04 0.04 -0.03 0.03 -0.04 0.02 -0.04 0.03 -0.04 0.03 -0.04 0.02 -0.04 0.02 -0.05 0.02 -0.04 0.01 -0.05 0.02 -0.04 0.01 -0.05 0.01 -0.05 0.01 -0.05 0.01 -0.05 0 -0.05 0 0 0zm-1 -0.95l0.34 0 0 0 0 0.03 0 0.03 0.01 0.03 0 0.03 0.01 0.03 0.01 0.03 0.01 0.03 0.01 0.03 0.01 0.02 0.01 0.03 0.02 0.02 0.02 0.03 0.02 0.02 0.01 0.03 0.02 0.02 0.03 0.02 0.02 0.02 0.02 0.02 0.03 0.02 0.02 0.01 0.03 0.02 0.03 0.01 0.03 0.02 0.03 0.01 0.03 0.01 0.03 0.01 0.03 0.01 0.03 0.01 0.03 0 0.04 0.01 0.03 0 0.04 0 0 0.34 -0.05 0 -0.05 0 -0.05 -0.01 -0.05 -0.01 -0.05 -0.01 -0.05 -0.01 -0.04 -0.02 -0.05 -0.01 -0.04 -0.02 -0.04 -0.02 -0.05 -0.02 -0.04 -0.03 -0.04 -0.03 -0.03 -0.02 -0.04 -0.03 -0.04 -0.03 -0.03 -0.04 -0.03 -0.03 -0.03 -0.04 -0.03 -0.04 -0.02 -0.03 -0.03 -0.04 -0.02 -0.04 -0.02 -0.05 -0.02 -0.04 -0.01 -0.04 -0.02 -0.05 -0.01 -0.05 -0.01 -0.04 0 -0.05 -0.01 -0.05 0 -0.05 0 0zm1 -0.95l0 0.34 0 0 -0.04 0 -0.03 0 -0.04 0.01 -0.03 0 -0.03 0.01 -0.03 0.01 -0.03 0.01 -0.03 0.01 -0.03 0.01 -0.03 0.01 -0.03 0.02 -0.03 0.02 -0.02 0.01 -0.03 0.02 -0.02 0.02 -0.02 0.02 -0.03 0.02 -0.02 0.03 -0.02 0.02 -0.01 0.02 -0.02 0.03 -0.02 0.03 -0.01 0.02 -0.01 0.02 -0.01 0.03 -0.01 0.03 -0.01 0.03 -0.01 0.03 0 0.03 -0.01 0.03 0 0.03 0 0.03 -0.34 0 0 -0.05 0.01 -0.05 0 -0.04 0.01 -0.05 0.01 -0.05 0.02 -0.05 0.01 -0.04 0.02 -0.04 0.02 -0.05 0.02 -0.04 0.03 -0.04 0.02 -0.03 0.03 -0.04 0.03 -0.04 0.03 -0.03 0.03 -0.03 0.04 -0.04 0.03 -0.02 0.04 -0.03 0.04 -0.03 0.04 -0.02 0.04 -0.03 0.05 -0.02 0.04 -0.02 0.05 -0.01 0.04 -0.02 0.05 -0.01 0.05 -0.01 0.05 -0.01 0.05 -0.01 0.05 0 0.05 0 0 0z"/>
  </g>
  <g>
   <path class="fil9" d="M36.73 14.12c0.46,0 0.83,0.35 0.83,0.78 0,0.43 -0.37,0.78 -0.83,0.78 -0.46,0 -0.83,-0.35 -0.83,-0.78 0,-0.43 0.37,-0.78 0.83,-0.78z"/>
   <path id="1" class="fil1" d="M37.73 14.9l-0.34 0 0 0 0 -0.03 0 -0.03 -0.01 -0.03 0 -0.03 -0.01 -0.03 -0.01 -0.02 -0.01 -0.04 -0.01 -0.02 -0.01 -0.03 -0.02 -0.02 -0.01 -0.03 -0.02 -0.03 -0.02 -0.02 -0.02 -0.02 -0.02 -0.03 -0.02 -0.01 -0.02 -0.02 -0.03 -0.03 -0.02 -0.01 -0.03 -0.02 -0.02 -0.02 -0.03 -0.01 -0.03 -0.02 -0.03 -0.01 -0.03 -0.01 -0.03 -0.01 -0.03 -0.01 -0.03 -0.01 -0.04 0 -0.03 0 -0.03 -0.01 -0.04 0 0 -0.34 0.05 0.01 0.05 0 0.05 0 0.05 0.01 0.05 0.01 0.04 0.02 0.05 0.01 0.04 0.02 0.05 0.01 0.04 0.03 0.04 0.02 0.04 0.02 0.04 0.03 0.04 0.03 0.04 0.03 0.03 0.03 0.04 0.03 0.03 0.04 0.03 0.03 0.03 0.04 0.02 0.04 0.02 0.04 0.03 0.04 0.02 0.04 0.02 0.04 0.01 0.05 0.02 0.04 0.01 0.05 0.01 0.05 0 0.05 0.01 0.04 0 0.05 0 0zm-1 0.95l0 -0.34 0 0 0.04 0 0.03 0 0.03 0 0.04 -0.01 0.03 -0.01 0.03 -0.01 0.03 0 0.03 -0.02 0.03 -0.01 0.03 -0.01 0.03 -0.02 0.02 -0.01 0.03 -0.02 0.02 -0.02 0.03 -0.02 0.02 -0.02 0.02 -0.02 0.02 -0.02 0.02 -0.03 0.02 -0.02 0.02 -0.02 0.01 -0.03 0.02 -0.03 0.01 -0.02 0.01 -0.03 0.01 -0.03 0.01 -0.03 0.01 -0.03 0 -0.02 0.01 -0.04 0 -0.03 0 -0.03 0.34 0 0 0.05 -0.01 0.05 0 0.05 -0.01 0.05 -0.01 0.04 -0.02 0.05 -0.01 0.04 -0.02 0.04 -0.02 0.05 -0.03 0.04 -0.02 0.04 -0.02 0.04 -0.03 0.03 -0.03 0.04 -0.03 0.03 -0.04 0.04 -0.03 0.03 -0.04 0.03 -0.04 0.03 -0.04 0.02 -0.04 0.03 -0.04 0.02 -0.04 0.02 -0.05 0.02 -0.04 0.02 -0.05 0.01 -0.04 0.01 -0.05 0.01 -0.05 0.01 -0.05 0.01 -0.05 0 -0.05 0 0 0zm-1 -0.95l0.34 0 0 0 0 0.03 0 0.03 0.01 0.04 0 0.02 0.01 0.03 0.01 0.03 0.01 0.03 0.01 0.03 0.01 0.02 0.02 0.03 0.02 0.03 0.01 0.02 0.02 0.02 0.02 0.03 0.02 0.02 0.02 0.02 0.02 0.02 0.03 0.02 0.02 0.02 0.03 0.02 0.02 0.01 0.03 0.02 0.03 0.01 0.03 0.01 0.03 0.02 0.03 0 0.03 0.01 0.03 0.01 0.04 0.01 0.03 0 0.03 0 0.04 0 0 0.34 -0.05 0 -0.05 0 -0.05 -0.01 -0.05 -0.01 -0.05 -0.01 -0.04 -0.01 -0.05 -0.01 -0.05 -0.02 -0.04 -0.02 -0.04 -0.02 -0.04 -0.02 -0.04 -0.03 -0.04 -0.02 -0.04 -0.03 -0.04 -0.03 -0.03 -0.03 -0.04 -0.04 -0.03 -0.03 -0.03 -0.04 -0.02 -0.03 -0.03 -0.04 -0.02 -0.04 -0.03 -0.04 -0.02 -0.05 -0.02 -0.04 -0.01 -0.04 -0.02 -0.05 -0.01 -0.04 -0.01 -0.05 0 -0.05 -0.01 -0.05 0 -0.05 0 0zm1 -0.95l0 0.34 0 0 -0.04 0 -0.03 0.01 -0.03 0 -0.04 0 -0.03 0.01 -0.03 0.01 -0.03 0.01 -0.03 0.01 -0.03 0.01 -0.03 0.02 -0.03 0.01 -0.02 0.02 -0.03 0.02 -0.02 0.01 -0.03 0.03 -0.02 0.02 -0.02 0.01 -0.02 0.03 -0.02 0.02 -0.02 0.02 -0.01 0.03 -0.02 0.03 -0.02 0.02 -0.01 0.03 -0.01 0.02 -0.01 0.04 -0.01 0.02 -0.01 0.03 0 0.03 -0.01 0.03 0 0.03 0 0.03 -0.34 0 0 -0.05 0.01 -0.04 0 -0.05 0.01 -0.05 0.01 -0.05 0.02 -0.04 0.01 -0.05 0.02 -0.04 0.02 -0.04 0.03 -0.04 0.02 -0.04 0.03 -0.04 0.02 -0.04 0.03 -0.03 0.03 -0.04 0.04 -0.03 0.03 -0.03 0.04 -0.03 0.04 -0.03 0.04 -0.03 0.04 -0.02 0.04 -0.02 0.04 -0.02 0.04 -0.02 0.05 -0.02 0.05 -0.01 0.04 -0.02 0.05 -0.01 0.05 -0.01 0.05 0 0.05 0 0.05 -0.01 0 0z"/>
  </g>
  <g>
   <path class="fil0" d="M41.29 60.36c3.26,0 5.9,2.29 5.9,5.12 0,0.51 -0.09,1 -0.25,1.47l-11.31 0c-0.15,-0.47 -0.24,-0.96 -0.24,-1.47 0,-2.83 2.64,-5.12 5.9,-5.12z"/>
   <path id="1" class="fil1" d="M47.36 65.48l-0.34 0 0 0 -0.01 -0.25 -0.02 -0.25 -0.04 -0.25 -0.04 -0.24 -0.07 -0.24 -0.08 -0.23 -0.09 -0.23 -0.1 -0.23 -0.11 -0.21 -0.13 -0.22 -0.13 -0.21 -0.15 -0.2 -0.16 -0.19 -0.17 -0.19 -0.18 -0.18 -0.19 -0.17 -0.2 -0.16 -0.21 -0.16 -0.21 -0.15 -0.23 -0.14 -0.23 -0.13 -0.24 -0.12 -0.25 -0.11 -0.25 -0.09 -0.26 -0.09 -0.27 -0.08 -0.27 -0.07 -0.28 -0.06 -0.28 -0.04 -0.29 -0.03 -0.29 -0.02 -0.3 -0.01 0 -0.34 0.31 0.01 0.31 0.02 0.3 0.03 0.3 0.05 0.29 0.06 0.29 0.07 0.28 0.08 0.27 0.1 0.27 0.1 0.26 0.12 0.26 0.12 0.24 0.14 0.24 0.15 0.23 0.16 0.22 0.16 0.21 0.17 0.2 0.19 0.19 0.19 0.19 0.2 0.16 0.21 0.16 0.21 0.15 0.22 0.13 0.23 0.13 0.23 0.11 0.25 0.09 0.24 0.08 0.25 0.07 0.26 0.06 0.26 0.04 0.27 0.02 0.27 0.01 0.27 0 0zm-0.42 1.63l0 -0.33 -0.16 0.11 0.02 -0.04 0.01 -0.04 0.01 -0.05 0.02 -0.04 0.01 -0.04 0.01 -0.04 0.01 -0.05 0.01 -0.04 0.02 -0.04 0.01 -0.05 0.01 -0.04 0.01 -0.04 0 -0.04 0.01 -0.05 0.01 -0.05 0.01 -0.04 0.01 -0.04 0 -0.05 0.01 -0.04 0.01 -0.04 0 -0.05 0 -0.04 0.01 -0.05 0 -0.04 0.01 -0.05 0 -0.04 0 -0.05 0.01 -0.04 0 -0.05 0 -0.05 0 -0.04 0 -0.05 0.34 0 0 0.05 0 0.05 0 0.05 -0.01 0.05 0 0.05 0 0.05 0 0.04 -0.01 0.05 0 0.05 -0.01 0.05 0 0.05 -0.01 0.05 -0.01 0.05 0 0.04 -0.01 0.05 -0.01 0.05 -0.01 0.05 0 0.04 -0.01 0.05 -0.01 0.05 -0.01 0.04 -0.01 0.05 -0.01 0.05 -0.02 0.04 -0.01 0.05 -0.01 0.05 -0.01 0.04 -0.02 0.05 -0.01 0.04 -0.02 0.05 -0.01 0.05 -0.02 0.04 -0.16 0.11zm0.16 -0.11l-0.04 0.11 -0.12 0 0.16 -0.11zm-11.47 -0.22l11.31 0 0 0.33 -11.31 0 -0.16 -0.11 0.16 -0.22zm0 0.33l-0.12 0 -0.04 -0.11 0.16 0.11zm-0.41 -1.63l0.34 0 0 0 0 0.05 0 0.04 0 0.05 0 0.05 0 0.04 0.01 0.05 0 0.04 0 0.05 0.01 0.04 0 0.05 0.01 0.04 0 0.05 0.01 0.04 0.01 0.04 0 0.05 0.01 0.04 0.01 0.04 0 0.05 0.01 0.04 0.01 0.05 0.01 0.04 0.01 0.04 0.01 0.05 0.01 0.04 0.01 0.04 0.02 0.05 0.01 0.04 0.01 0.04 0.01 0.04 0.02 0.05 0.01 0.04 0.01 0.04 -0.32 0.11 -0.01 -0.05 -0.02 -0.04 -0.01 -0.05 -0.01 -0.04 -0.02 -0.05 -0.01 -0.04 -0.01 -0.05 -0.02 -0.05 -0.01 -0.04 -0.01 -0.05 -0.01 -0.05 -0.01 -0.04 -0.01 -0.05 -0.01 -0.05 -0.01 -0.04 0 -0.05 -0.01 -0.05 -0.01 -0.05 -0.01 -0.04 0 -0.05 -0.01 -0.05 -0.01 -0.05 0 -0.05 0 -0.05 -0.01 -0.04 0 -0.05 0 -0.05 -0.01 -0.05 0 -0.05 0 -0.05 0 -0.05 0 -0.05 0 0zm6.07 -5.29l0 0.34 0 0 -0.3 0.01 -0.29 0.02 -0.29 0.03 -0.28 0.04 -0.28 0.06 -0.27 0.07 -0.27 0.08 -0.26 0.09 -0.25 0.09 -0.25 0.11 -0.24 0.12 -0.24 0.13 -0.22 0.14 -0.22 0.15 -0.2 0.16 -0.2 0.16 -0.19 0.17 -0.18 0.18 -0.17 0.19 -0.16 0.19 -0.15 0.2 -0.13 0.21 -0.13 0.22 -0.12 0.21 -0.1 0.23 -0.09 0.23 -0.07 0.23 -0.07 0.24 -0.05 0.24 -0.03 0.25 -0.03 0.25 0 0.25 -0.34 0 0.01 -0.27 0.02 -0.27 0.04 -0.27 0.05 -0.26 0.07 -0.26 0.09 -0.25 0.09 -0.24 0.11 -0.25 0.12 -0.23 0.14 -0.23 0.14 -0.22 0.16 -0.21 0.17 -0.21 0.18 -0.2 0.19 -0.19 0.21 -0.19 0.21 -0.17 0.22 -0.16 0.23 -0.16 0.23 -0.15 0.25 -0.14 0.25 -0.12 0.27 -0.12 0.26 -0.1 0.28 -0.1 0.28 -0.08 0.29 -0.07 0.29 -0.06 0.3 -0.05 0.3 -0.03 0.31 -0.02 0.31 -0.01 0 0z"/>
  </g>
  <g>
   <polygon class="fil3" points="34.95,66.95 47.53,66.95 47.53,69.87 34.95,69.87 "/>
   <path id="1" class="fil1" d="M47.53 67.11l-12.58 0 0 -0.33 12.58 0 0.17 0.17 -0.17 0.16zm0 -0.33l0.17 0 0 0.17 -0.17 -0.17zm-0.17 3.09l0 -2.92 0.34 0 0 2.92 -0.17 0.17 -0.17 -0.17zm0.34 0l0 0.17 -0.17 0 0.17 -0.17zm-12.75 -0.17l12.58 0 0 0.34 -12.58 0 -0.17 -0.17 0.17 -0.17zm0 0.34l-0.17 0 0 -0.17 0.17 0.17zm0.17 -3.09l0 2.92 -0.34 0 0 -2.92 0.17 -0.17 0.17 0.17zm-0.34 0l0 -0.17 0.17 0 -0.17 0.17z"/>
  </g>
  <g>
   <path class="fil1" d="M42.07 41.51l-0.34 0 0 0 0 -0.03 0 -0.03 -0.01 -0.03 0 -0.03 -0.01 -0.03 -0.01 -0.03 -0.01 -0.03 -0.01 -0.02 -0.01 -0.03 -0.01 -0.02 -0.02 -0.03 -0.02 -0.03 -0.02 -0.02 -0.01 -0.02 -0.02 -0.02 -0.02 -0.02 -0.03 -0.03 -0.02 -0.02 -0.03 -0.01 -0.02 -0.02 -0.03 -0.02 -0.03 -0.01 -0.03 -0.02 -0.03 -0.01 -0.03 -0.01 -0.03 -0.01 -0.03 -0.01 -0.03 -0.01 -0.03 0 -0.04 -0.01 -0.03 0 -0.04 0 0 -0.34 0.05 0 0.06 0.01 0.04 0 0.05 0.01 0.05 0.01 0.05 0.01 0.04 0.02 0.05 0.02 0.04 0.02 0.05 0.02 0.04 0.02 0.04 0.02 0.04 0.03 0.04 0.03 0.03 0.03 0.03 0.03 0.04 0.03 0.03 0.03 0.03 0.04 0.03 0.04 0.02 0.04 0.03 0.03 0.02 0.05 0.02 0.04 0.02 0.04 0.01 0.05 0.02 0.04 0.01 0.05 0.01 0.05 0 0.05 0.01 0.04 0 0.05 0 0zm-1 0.95l0 -0.34 0 0 0.04 0 0.03 0 0.04 0 0.03 -0.01 0.03 -0.01 0.03 -0.01 0.03 -0.01 0.03 -0.01 0.03 -0.01 0.03 -0.01 0.03 -0.02 0.03 -0.01 0.02 -0.02 0.03 -0.02 0.02 -0.02 0.02 -0.02 0.03 -0.02 0.02 -0.02 0.02 -0.03 0.01 -0.02 0.02 -0.02 0.02 -0.03 0.01 -0.03 0.01 -0.02 0.01 -0.03 0.01 -0.03 0.01 -0.03 0.01 -0.03 0 -0.02 0.01 -0.04 0 -0.03 0 -0.03 0.34 0 0 0.05 -0.01 0.05 0 0.05 -0.01 0.05 -0.01 0.04 -0.02 0.05 -0.01 0.04 -0.02 0.04 -0.02 0.05 -0.02 0.04 -0.03 0.04 -0.02 0.04 -0.03 0.03 -0.03 0.04 -0.03 0.03 -0.03 0.04 -0.04 0.03 -0.03 0.03 -0.04 0.03 -0.04 0.02 -0.04 0.03 -0.04 0.02 -0.05 0.02 -0.04 0.02 -0.05 0.02 -0.04 0.01 -0.05 0.01 -0.05 0.01 -0.05 0.01 -0.04 0.01 -0.06 0 -0.05 0 0 0zm-0.99 -0.95l0.33 0 0 0 0 0.03 0.01 0.03 0 0.04 0.01 0.02 0 0.03 0.01 0.03 0.01 0.03 0.01 0.03 0.02 0.02 0.01 0.03 0.02 0.03 0.01 0.02 0.02 0.02 0.02 0.03 0.02 0.02 0.02 0.02 0.03 0.02 0.02 0.02 0.02 0.02 0.03 0.02 0.03 0.01 0.03 0.02 0.02 0.01 0.03 0.01 0.03 0.02 0.03 0 0.04 0.01 0.03 0.01 0.03 0.01 0.04 0 0.03 0 0.03 0 0 0.34 -0.05 0 -0.05 0 -0.05 -0.01 -0.05 -0.01 -0.05 -0.01 -0.04 -0.01 -0.05 -0.02 -0.04 -0.01 -0.04 -0.02 -0.05 -0.02 -0.04 -0.02 -0.04 -0.03 -0.04 -0.02 -0.04 -0.03 -0.03 -0.03 -0.04 -0.03 -0.03 -0.04 -0.03 -0.03 -0.03 -0.04 -0.03 -0.03 -0.03 -0.04 -0.02 -0.04 -0.02 -0.04 -0.03 -0.05 -0.01 -0.04 -0.02 -0.04 -0.01 -0.05 -0.01 -0.04 -0.01 -0.05 -0.01 -0.05 0 -0.05 0 -0.05 0 0zm0.99 -0.95l0 0.34 0 0 -0.03 0 -0.03 0 -0.04 0.01 -0.03 0 -0.03 0.01 -0.04 0.01 -0.03 0.01 -0.03 0.01 -0.03 0.01 -0.02 0.02 -0.03 0.01 -0.03 0.02 -0.03 0.02 -0.02 0.01 -0.02 0.02 -0.03 0.03 -0.02 0.02 -0.02 0.02 -0.02 0.02 -0.02 0.02 -0.01 0.03 -0.02 0.03 -0.01 0.02 -0.02 0.03 -0.01 0.02 -0.01 0.03 -0.01 0.03 0 0.03 -0.01 0.03 0 0.03 -0.01 0.03 0 0.03 -0.33 0 0 -0.05 0 -0.04 0.01 -0.05 0.01 -0.05 0.01 -0.05 0.01 -0.04 0.02 -0.05 0.01 -0.04 0.03 -0.04 0.02 -0.05 0.02 -0.03 0.03 -0.04 0.03 -0.04 0.03 -0.04 0.03 -0.03 0.03 -0.03 0.04 -0.03 0.03 -0.03 0.04 -0.03 0.04 -0.03 0.04 -0.02 0.04 -0.02 0.05 -0.03 0.04 -0.01 0.04 -0.02 0.05 -0.02 0.04 -0.01 0.05 -0.01 0.05 -0.01 0.05 0 0.05 -0.01 0.05 0 0 0z"/>
  </g>
  <g>
   <path class="fil0" d="M50.55 41.55c2.27,0 4.11,-1.53 4.11,-3.41 0,-1.89 -1.84,-3.41 -4.11,-3.41l0 6.82z"/>
   <path id="1" class="fil1" d="M54.82 38.14l0 0 0 0.19 -0.02 0.18 -0.03 0.18 -0.03 0.18 -0.05 0.17 -0.06 0.17 -0.07 0.17 -0.08 0.16 -0.08 0.16 -0.1 0.16 -0.1 0.15 -0.11 0.14 -0.12 0.14 -0.13 0.14 -0.14 0.13 -0.14 0.12 -0.15 0.12 -0.15 0.11 -0.16 0.1 -0.17 0.1 -0.17 0.1 -0.18 0.08 -0.19 0.08 -0.19 0.07 -0.19 0.06 -0.2 0.06 -0.2 0.05 -0.2 0.04 -0.21 0.03 -0.22 0.02 -0.21 0.01 -0.22 0.01 0 -0.34 0.2 -0.01 0.21 -0.01 0.19 -0.02 0.2 -0.03 0.19 -0.03 0.19 -0.05 0.18 -0.05 0.18 -0.06 0.18 -0.07 0.17 -0.07 0.16 -0.08 0.16 -0.08 0.16 -0.09 0.15 -0.1 0.14 -0.1 0.13 -0.11 0.13 -0.11 0.13 -0.12 0.12 -0.12 0.1 -0.13 0.11 -0.13 0.09 -0.14 0.08 -0.14 0.08 -0.14 0.07 -0.15 0.06 -0.15 0.06 -0.15 0.04 -0.15 0.03 -0.16 0.03 -0.16 0.01 -0.17 0.01 -0.16 0 0 0.33 0zm-4.44 -3.41l0.17 -0.17 0.22 0 0.21 0.02 0.22 0.02 0.21 0.03 0.2 0.04 0.2 0.05 0.2 0.05 0.19 0.07 0.19 0.07 0.19 0.08 0.18 0.08 0.17 0.09 0.17 0.1 0.16 0.11 0.15 0.11 0.15 0.12 0.14 0.12 0.14 0.13 0.13 0.13 0.12 0.15 0.11 0.14 0.1 0.15 0.1 0.15 0.08 0.16 0.08 0.17 0.07 0.17 0.06 0.17 0.05 0.17 0.03 0.18 0.03 0.18 0.02 0.18 0 0.19 -0.33 0 -0.01 -0.17 -0.01 -0.16 -0.03 -0.16 -0.03 -0.16 -0.04 -0.15 -0.06 -0.16 -0.06 -0.15 -0.07 -0.14 -0.08 -0.15 -0.08 -0.13 -0.09 -0.14 -0.11 -0.13 -0.11 -0.13 -0.11 -0.12 -0.13 -0.12 -0.13 -0.11 -0.13 -0.11 -0.14 -0.1 -0.15 -0.1 -0.16 -0.09 -0.16 -0.09 -0.16 -0.08 -0.17 -0.07 -0.18 -0.06 -0.18 -0.06 -0.18 -0.05 -0.19 -0.05 -0.19 -0.04 -0.2 -0.02 -0.19 -0.02 -0.21 -0.02 -0.2 0 0.17 -0.17 -0.34 0zm0 0l0 -0.17 0.17 0 -0.17 0.17zm0.34 6.82l-0.17 0.17 -0.17 -0.17 0 -6.82 0.34 0 0 6.82zm-0.17 0.17l-0.17 0 0 -0.17 0.17 0.17z"/>
  </g>
  <g>
   <path class="fil3" d="M61.94 46.15c-1.93,0 -3.5,1.5 -3.5,3.34 0,1.85 1.57,3.35 3.5,3.35 1.93,0 3.5,-1.5 3.5,-3.35 0,-1.84 -1.57,-3.34 -3.5,-3.34z"/>
   <path id="1" class="fil1" d="M58.27 49.49l0 0 0.01 -0.18 0.01 -0.18 0.03 -0.17 0.03 -0.17 0.04 -0.17 0.05 -0.17 0.06 -0.17 0.06 -0.15 0.08 -0.16 0.08 -0.15 0.09 -0.15 0.09 -0.14 0.1 -0.14 0.11 -0.13 0.12 -0.13 0.12 -0.12 0.13 -0.12 0.13 -0.11 0.14 -0.1 0.14 -0.1 0.15 -0.09 0.16 -0.08 0.15 -0.08 0.17 -0.07 0.16 -0.06 0.17 -0.06 0.18 -0.05 0.17 -0.04 0.18 -0.03 0.19 -0.02 0.18 -0.01 0.19 -0.01 0 0.34 -0.17 0.01 -0.17 0.01 -0.17 0.02 -0.16 0.03 -0.16 0.03 -0.16 0.04 -0.16 0.06 -0.15 0.05 -0.14 0.07 -0.15 0.07 -0.14 0.07 -0.13 0.08 -0.13 0.09 -0.13 0.1 -0.12 0.1 -0.12 0.1 -0.11 0.11 -0.1 0.12 -0.1 0.12 -0.09 0.12 -0.09 0.13 -0.08 0.13 -0.07 0.14 -0.07 0.14 -0.06 0.15 -0.05 0.14 -0.04 0.15 -0.04 0.16 -0.03 0.15 -0.02 0.16 -0.01 0.16 -0.01 0.16 0 0 -0.34 0zm3.67 3.52l0 0 -0.19 -0.01 -0.18 -0.01 -0.19 -0.02 -0.18 -0.03 -0.17 -0.04 -0.18 -0.05 -0.17 -0.06 -0.16 -0.06 -0.17 -0.07 -0.15 -0.08 -0.16 -0.08 -0.15 -0.09 -0.14 -0.1 -0.14 -0.1 -0.13 -0.11 -0.13 -0.12 -0.12 -0.12 -0.12 -0.13 -0.11 -0.13 -0.1 -0.14 -0.09 -0.14 -0.09 -0.15 -0.08 -0.15 -0.08 -0.16 -0.06 -0.16 -0.06 -0.16 -0.05 -0.17 -0.04 -0.17 -0.03 -0.17 -0.03 -0.18 -0.01 -0.18 -0.01 -0.18 0.34 0 0.01 0.17 0.01 0.16 0.02 0.16 0.03 0.15 0.04 0.16 0.04 0.15 0.05 0.14 0.06 0.15 0.07 0.14 0.07 0.13 0.08 0.14 0.09 0.12 0.09 0.13 0.1 0.12 0.1 0.11 0.11 0.11 0.12 0.11 0.12 0.1 0.13 0.09 0.13 0.09 0.13 0.09 0.14 0.07 0.15 0.07 0.14 0.07 0.15 0.05 0.16 0.05 0.16 0.05 0.16 0.03 0.16 0.03 0.17 0.02 0.17 0.01 0.17 0.01 0 0 0 0.34zm3.66 -3.52l0 0 0 0.18 -0.01 0.18 -0.03 0.18 -0.03 0.17 -0.04 0.17 -0.05 0.17 -0.06 0.16 -0.06 0.16 -0.08 0.16 -0.08 0.15 -0.09 0.15 -0.09 0.14 -0.11 0.14 -0.1 0.13 -0.12 0.13 -0.12 0.12 -0.13 0.12 -0.13 0.11 -0.14 0.1 -0.14 0.1 -0.15 0.09 -0.16 0.08 -0.15 0.08 -0.17 0.07 -0.16 0.06 -0.17 0.06 -0.18 0.05 -0.17 0.04 -0.18 0.03 -0.19 0.02 -0.18 0.01 -0.19 0.01 0 -0.34 0.17 -0.01 0.17 -0.01 0.17 -0.02 0.16 -0.03 0.16 -0.03 0.16 -0.05 0.16 -0.05 0.15 -0.05 0.14 -0.07 0.15 -0.07 0.14 -0.07 0.13 -0.09 0.13 -0.09 0.13 -0.09 0.12 -0.1 0.11 -0.11 0.11 -0.11 0.11 -0.11 0.1 -0.12 0.09 -0.13 0.09 -0.12 0.08 -0.14 0.07 -0.13 0.07 -0.14 0.05 -0.15 0.06 -0.14 0.04 -0.15 0.04 -0.16 0.03 -0.15 0.02 -0.16 0.01 -0.16 0.01 -0.17 0 0 0.33 0zm-3.66 -3.51l0 0 0.19 0.01 0.18 0.01 0.19 0.02 0.18 0.03 0.17 0.04 0.18 0.05 0.17 0.06 0.16 0.06 0.17 0.07 0.15 0.08 0.16 0.08 0.15 0.09 0.14 0.1 0.14 0.1 0.13 0.11 0.13 0.12 0.12 0.12 0.12 0.13 0.1 0.13 0.11 0.14 0.09 0.14 0.09 0.15 0.08 0.15 0.08 0.16 0.06 0.15 0.06 0.17 0.05 0.17 0.04 0.17 0.03 0.17 0.03 0.17 0.01 0.18 0 0.18 -0.33 0 -0.01 -0.16 -0.01 -0.16 -0.02 -0.16 -0.03 -0.15 -0.04 -0.16 -0.04 -0.15 -0.06 -0.14 -0.05 -0.15 -0.07 -0.14 -0.07 -0.14 -0.08 -0.13 -0.09 -0.13 -0.09 -0.12 -0.1 -0.12 -0.11 -0.12 -0.11 -0.11 -0.11 -0.1 -0.12 -0.1 -0.13 -0.1 -0.13 -0.09 -0.13 -0.08 -0.14 -0.07 -0.15 -0.07 -0.14 -0.07 -0.15 -0.05 -0.16 -0.06 -0.16 -0.04 -0.16 -0.03 -0.16 -0.03 -0.17 -0.02 -0.17 -0.01 -0.17 -0.01 0 0 0 -0.34z"/>
  </g>
  <g>
   <path class="fil10" d="M64.89 58.34c-0.07,0.73 0.47,1.37 1.19,1.43 0.73,0.06 1.37,-0.32 1.43,-1.04 0.33,-3.8 -1.03,-6.41 -2.96,-7.71 -0.79,-0.53 -1.68,-0.84 -2.59,-0.92 -0.91,-0.09 -1.84,0.06 -2.71,0.44 -2.1,0.92 -3.88,3.21 -4.21,6.92 -0.06,0.72 0.47,1.2 1.19,1.26 0.72,0.06 1.36,-0.32 1.42,-1.04 0.24,-2.61 1.35,-4.16 2.65,-4.73 0.47,-0.21 0.95,-0.28 1.42,-0.24 0.47,0.04 0.94,0.21 1.36,0.49 1.2,0.82 2.05,2.43 1.81,5.14zm-62.22 -40.36c0.07,-0.73 -0.47,-1.37 -1.19,-1.43 -0.73,-0.06 -1.37,0.32 -1.43,1.04 -0.33,3.8 1.03,6.41 2.96,7.71 0.79,0.53 1.68,0.84 2.59,0.92 0.91,0.08 1.84,-0.06 2.7,-0.44 2.11,-0.92 3.89,-3.21 4.22,-6.92 0.06,-0.72 -0.47,-1.2 -1.19,-1.26 -0.73,-0.06 -1.36,0.32 -1.42,1.04 -0.24,2.61 -1.35,4.16 -2.65,4.73 -0.47,0.21 -0.95,0.28 -1.42,0.24 -0.47,-0.04 -0.94,-0.21 -1.36,-0.49 -1.2,-0.81 -2.05,-2.43 -1.81,-5.14z"/>
   <path id="1" class="fil1" d="M66.1 59.6l-0.03 0.34 0 0 -0.08 -0.01 -0.07 -0.01 -0.07 -0.02 -0.08 -0.02 -0.06 -0.02 -0.07 -0.03 -0.07 -0.03 -0.07 -0.03 -0.06 -0.03 -0.06 -0.04 -0.06 -0.04 -0.06 -0.05 -0.05 -0.04 -0.05 -0.05 -0.05 -0.05 -0.05 -0.06 -0.04 -0.05 -0.05 -0.06 -0.04 -0.06 -0.03 -0.06 -0.03 -0.06 -0.03 -0.07 -0.03 -0.07 -0.03 -0.06 -0.02 -0.07 -0.01 -0.08 -0.02 -0.07 -0.01 -0.07 0 -0.07 -0.01 -0.08 0 -0.07 0.01 -0.08 0.34 0.03 -0.01 0.06 0 0.06 0 0.05 0.01 0.06 0.01 0.06 0.01 0.05 0.01 0.06 0.02 0.05 0.02 0.06 0.02 0.04 0.02 0.05 0.02 0.06 0.03 0.04 0.03 0.05 0.04 0.04 0.03 0.05 0.04 0.04 0.04 0.04 0.04 0.04 0.04 0.03 0.04 0.03 0.05 0.03 0.04 0.04 0.05 0.02 0.05 0.03 0.05 0.02 0.06 0.02 0.05 0.02 0.05 0.01 0.06 0.01 0.06 0.01 0.06 0.01 0 0zm1.24 -0.89l0.34 0.03 0 0 -0.01 0.08 -0.01 0.07 -0.02 0.07 -0.02 0.07 -0.02 0.07 -0.03 0.06 -0.03 0.07 -0.03 0.06 -0.04 0.06 -0.04 0.05 -0.04 0.05 -0.05 0.06 -0.04 0.04 -0.05 0.05 -0.06 0.04 -0.05 0.04 -0.06 0.04 -0.05 0.03 -0.06 0.03 -0.07 0.03 -0.06 0.03 -0.06 0.02 -0.07 0.02 -0.07 0.02 -0.07 0.01 -0.07 0.02 -0.07 0.01 -0.07 0 -0.07 0 -0.07 0 -0.08 0 -0.07 0 0.03 -0.34 0.06 0 0.06 0.01 0.06 0 0.06 -0.01 0.06 0 0.05 -0.01 0.06 -0.01 0.05 -0.01 0.06 -0.02 0.05 -0.01 0.05 -0.02 0.05 -0.02 0.05 -0.02 0.04 -0.02 0.05 -0.03 0.04 -0.03 0.04 -0.03 0.04 -0.03 0.03 -0.03 0.04 -0.04 0.03 -0.03 0.03 -0.04 0.03 -0.04 0.02 -0.04 0.03 -0.05 0.02 -0.04 0.02 -0.05 0.02 -0.05 0.01 -0.05 0.01 -0.06 0.01 -0.05 0.01 -0.06 0 0zm0 0l0 0 0.01 -0.07 -0.01 0.07zm-2.88 -7.55l0.18 -0.28 0 0 0.19 0.13 0.18 0.14 0.18 0.14 0.17 0.16 0.17 0.16 0.16 0.17 0.16 0.17 0.15 0.19 0.15 0.19 0.15 0.19 0.14 0.21 0.13 0.21 0.12 0.23 0.12 0.22 0.12 0.24 0.1 0.24 0.1 0.25 0.1 0.26 0.08 0.27 0.08 0.27 0.07 0.28 0.06 0.29 0.06 0.29 0.05 0.3 0.03 0.31 0.03 0.31 0.02 0.33 0.02 0.33 0 0.33 -0.01 0.34 -0.02 0.36 -0.02 0.35 -0.34 -0.03 0.03 -0.35 0.01 -0.34 0.01 -0.33 0 -0.33 -0.01 -0.32 -0.02 -0.31 -0.03 -0.3 -0.04 -0.3 -0.04 -0.29 -0.06 -0.29 -0.06 -0.27 -0.07 -0.27 -0.07 -0.26 -0.08 -0.26 -0.09 -0.25 -0.1 -0.24 -0.1 -0.23 -0.11 -0.22 -0.12 -0.22 -0.11 -0.21 -0.13 -0.21 -0.13 -0.19 -0.14 -0.19 -0.14 -0.18 -0.15 -0.18 -0.15 -0.16 -0.15 -0.16 -0.16 -0.15 -0.16 -0.15 -0.17 -0.14 -0.17 -0.12 -0.17 -0.13 0 0zm-2.52 -0.89l0.04 -0.34 0 0 0.08 0.01 0.09 0.01 0.09 0.01 0.09 0.01 0.09 0.02 0.08 0.01 0.09 0.02 0.08 0.02 0.09 0.02 0.09 0.02 0.08 0.02 0.09 0.02 0.08 0.03 0.09 0.03 0.08 0.02 0.09 0.03 0.08 0.03 0.09 0.04 0.08 0.03 0.08 0.03 0.08 0.04 0.09 0.04 0.08 0.04 0.08 0.04 0.08 0.04 0.08 0.04 0.08 0.04 0.07 0.05 0.08 0.04 0.08 0.05 0.08 0.05 0.07 0.05 -0.18 0.28 -0.08 -0.04 -0.07 -0.05 -0.07 -0.05 -0.08 -0.04 -0.07 -0.04 -0.08 -0.04 -0.07 -0.04 -0.08 -0.04 -0.07 -0.04 -0.08 -0.04 -0.08 -0.03 -0.07 -0.03 -0.08 -0.04 -0.08 -0.03 -0.08 -0.03 -0.08 -0.03 -0.08 -0.02 -0.07 -0.03 -0.08 -0.03 -0.08 -0.02 -0.08 -0.02 -0.09 -0.02 -0.08 -0.02 -0.08 -0.02 -0.08 -0.02 -0.08 -0.01 -0.08 -0.02 -0.08 -0.01 -0.09 -0.01 -0.08 -0.02 -0.08 0 -0.09 -0.01 0 0zm0 0l0 0 0 0 0 0zm-2.62 0.43l-0.13 -0.31 0 0 0.08 -0.04 0.09 -0.03 0.08 -0.04 0.09 -0.03 0.08 -0.03 0.09 -0.03 0.08 -0.03 0.09 -0.02 0.08 -0.03 0.09 -0.02 0.09 -0.02 0.09 -0.02 0.08 -0.02 0.09 -0.02 0.09 -0.02 0.08 -0.01 0.09 -0.01 0.09 -0.02 0.09 -0.01 0.09 -0.01 0.08 0 0.09 -0.01 0.09 -0.01 0.09 0 0.09 0 0.09 0 0.08 0 0.09 0 0.09 0 0.09 0.01 0.09 0 0.09 0.01 -0.04 0.34 -0.08 -0.01 -0.08 -0.01 -0.08 0 -0.09 0 -0.08 0 -0.08 0 -0.09 0 -0.08 0 -0.08 0 -0.08 0.01 -0.09 0 -0.08 0.01 -0.08 0.01 -0.08 0.01 -0.09 0.01 -0.08 0.01 -0.08 0.02 -0.09 0.01 -0.08 0.02 -0.08 0.02 -0.08 0.02 -0.08 0.02 -0.08 0.02 -0.09 0.02 -0.08 0.03 -0.08 0.02 -0.08 0.03 -0.08 0.03 -0.08 0.03 -0.08 0.03 -0.08 0.03 -0.08 0.04 0 0zm-4.11 6.77l-0.34 -0.03 0 0 0.04 -0.35 0.04 -0.34 0.06 -0.33 0.06 -0.32 0.06 -0.32 0.08 -0.3 0.08 -0.3 0.09 -0.29 0.1 -0.28 0.1 -0.28 0.11 -0.26 0.12 -0.26 0.13 -0.25 0.13 -0.24 0.13 -0.23 0.14 -0.23 0.15 -0.21 0.15 -0.21 0.16 -0.2 0.16 -0.19 0.16 -0.19 0.17 -0.17 0.18 -0.17 0.18 -0.16 0.18 -0.15 0.18 -0.14 0.19 -0.14 0.19 -0.12 0.2 -0.12 0.2 -0.11 0.19 -0.1 0.21 -0.09 0.13 0.31 -0.19 0.08 -0.19 0.1 -0.18 0.1 -0.19 0.11 -0.18 0.12 -0.18 0.13 -0.17 0.13 -0.17 0.15 -0.17 0.15 -0.17 0.16 -0.16 0.16 -0.16 0.18 -0.15 0.18 -0.15 0.19 -0.14 0.2 -0.14 0.21 -0.14 0.21 -0.13 0.22 -0.12 0.24 -0.12 0.24 -0.12 0.24 -0.1 0.26 -0.1 0.26 -0.1 0.27 -0.08 0.28 -0.08 0.29 -0.08 0.3 -0.06 0.31 -0.06 0.31 -0.05 0.32 -0.05 0.33 -0.03 0.34 0 0zm-0.34 -0.03l0 0 0.01 -0.04 -0.01 0.04zm1.38 1.11l-0.03 0.34 0 0 -0.07 -0.01 -0.08 -0.01 -0.07 -0.01 -0.07 -0.02 -0.07 -0.02 -0.06 -0.02 -0.07 -0.02 -0.06 -0.03 -0.06 -0.02 -0.07 -0.04 -0.06 -0.03 -0.05 -0.04 -0.06 -0.03 -0.05 -0.04 -0.05 -0.05 -0.05 -0.05 -0.04 -0.04 -0.04 -0.05 -0.05 -0.06 -0.03 -0.05 -0.04 -0.06 -0.03 -0.06 -0.03 -0.06 -0.02 -0.06 -0.02 -0.07 -0.02 -0.07 -0.01 -0.06 -0.01 -0.07 -0.01 -0.08 0 -0.07 0 -0.07 0 -0.08 0.34 0.03 0 0.06 -0.01 0.06 0.01 0.05 0 0.05 0.01 0.06 0.01 0.05 0.01 0.05 0.02 0.04 0.02 0.05 0.02 0.04 0.02 0.05 0.02 0.04 0.03 0.04 0.03 0.03 0.03 0.04 0.03 0.04 0.04 0.03 0.04 0.03 0.03 0.03 0.05 0.03 0.04 0.03 0.05 0.03 0.04 0.02 0.05 0.02 0.05 0.02 0.05 0.02 0.06 0.02 0.05 0.01 0.06 0.02 0.06 0.01 0.06 0.01 0.06 0 0 0zm1.23 -0.88l0.34 0.03 0 0 -0.01 0.07 -0.01 0.08 -0.02 0.07 -0.02 0.07 -0.02 0.06 -0.03 0.07 -0.02 0.06 -0.04 0.06 -0.04 0.06 -0.03 0.06 -0.05 0.05 -0.04 0.05 -0.05 0.05 -0.05 0.04 -0.05 0.04 -0.05 0.04 -0.06 0.04 -0.06 0.04 -0.06 0.03 -0.06 0.03 -0.06 0.02 -0.07 0.02 -0.06 0.02 -0.07 0.02 -0.07 0.02 -0.07 0.01 -0.07 0.01 -0.07 0 -0.07 0.01 -0.07 0 -0.08 -0.01 -0.07 0 0.03 -0.34 0.06 0.01 0.06 0 0.06 0 0.06 0 0.05 -0.01 0.06 -0.01 0.06 -0.01 0.05 -0.01 0.05 -0.01 0.06 -0.02 0.05 -0.02 0.05 -0.02 0.04 -0.02 0.05 -0.02 0.04 -0.03 0.04 -0.02 0.04 -0.03 0.04 -0.03 0.04 -0.04 0.03 -0.03 0.03 -0.04 0.03 -0.04 0.03 -0.04 0.03 -0.04 0.02 -0.04 0.03 -0.05 0.01 -0.04 0.02 -0.05 0.02 -0.05 0.01 -0.06 0.01 -0.05 0 -0.06 0 0zm0 0l0 0 0.01 -0.04 -0.01 0.04zm2.76 -4.88l0.13 0.31 0 0 -0.11 0.06 -0.12 0.05 -0.11 0.07 -0.11 0.07 -0.11 0.07 -0.11 0.09 -0.11 0.08 -0.1 0.1 -0.11 0.09 -0.1 0.11 -0.1 0.11 -0.1 0.11 -0.09 0.13 -0.09 0.12 -0.09 0.14 -0.09 0.14 -0.08 0.14 -0.08 0.15 -0.08 0.16 -0.08 0.16 -0.07 0.17 -0.06 0.18 -0.07 0.18 -0.06 0.19 -0.05 0.19 -0.05 0.2 -0.05 0.21 -0.04 0.21 -0.04 0.22 -0.04 0.23 -0.03 0.23 -0.02 0.24 -0.34 -0.03 0.03 -0.25 0.03 -0.24 0.03 -0.23 0.04 -0.23 0.05 -0.22 0.05 -0.22 0.05 -0.21 0.06 -0.2 0.06 -0.2 0.07 -0.19 0.07 -0.18 0.08 -0.18 0.07 -0.18 0.09 -0.16 0.08 -0.16 0.09 -0.16 0.09 -0.15 0.1 -0.14 0.1 -0.14 0.1 -0.13 0.11 -0.12 0.11 -0.12 0.11 -0.12 0.11 -0.1 0.11 -0.11 0.12 -0.09 0.12 -0.09 0.12 -0.08 0.12 -0.08 0.13 -0.07 0.13 -0.07 0.13 -0.06 0 0zm0.13 0.31l0 0 0.41 -0.18 -0.41 0.18zm1.37 -0.56l-0.03 0.34 0 0 -0.04 0 -0.05 -0.01 -0.04 0 -0.04 0 -0.04 0 -0.04 0 -0.04 0 -0.05 0 -0.04 0 -0.04 0 -0.04 0.01 -0.04 0 -0.05 0.01 -0.04 0 -0.04 0.01 -0.04 0 -0.04 0.01 -0.05 0.01 -0.04 0.01 -0.04 0.01 -0.04 0.01 -0.04 0.01 -0.04 0.01 -0.05 0.01 -0.04 0.01 -0.04 0.02 -0.04 0.01 -0.04 0.02 -0.04 0.01 -0.05 0.02 -0.04 0.01 -0.04 0.02 -0.13 -0.31 0.04 -0.02 0.05 -0.02 0.04 -0.01 0.05 -0.02 0.05 -0.02 0.04 -0.01 0.05 -0.02 0.05 -0.01 0.04 -0.02 0.05 -0.01 0.05 -0.01 0.04 -0.01 0.05 -0.01 0.05 -0.01 0.05 -0.01 0.04 -0.01 0.05 -0.01 0.05 0 0.04 -0.01 0.05 -0.01 0.05 0 0.05 0 0.04 -0.01 0.05 0 0.05 0 0.05 0 0.04 0 0.05 0 0.05 0 0.05 0 0.04 0.01 0.05 0 0 0zm-0.03 0.34l0 0 0 0 0 0zm1.46 0.18l-0.19 0.28 0 0 -0.03 -0.02 -0.04 -0.03 -0.04 -0.02 -0.04 -0.02 -0.04 -0.02 -0.03 -0.03 -0.04 -0.02 -0.04 -0.02 -0.04 -0.02 -0.04 -0.02 -0.04 -0.01 -0.04 -0.02 -0.04 -0.02 -0.04 -0.01 -0.04 -0.02 -0.04 -0.01 -0.04 -0.02 -0.04 -0.01 -0.04 -0.02 -0.04 -0.01 -0.04 -0.01 -0.04 -0.01 -0.04 -0.01 -0.04 -0.01 -0.04 -0.01 -0.05 -0.01 -0.04 0 -0.04 -0.01 -0.04 -0.01 -0.04 0 -0.04 -0.01 -0.04 0 0.03 -0.34 0.04 0.01 0.05 0 0.05 0.01 0.04 0 0.05 0.01 0.05 0.01 0.04 0.01 0.05 0.01 0.05 0.01 0.04 0.01 0.05 0.01 0.04 0.02 0.05 0.01 0.04 0.02 0.05 0.01 0.05 0.02 0.04 0.01 0.05 0.02 0.04 0.02 0.04 0.02 0.05 0.02 0.04 0.02 0.05 0.02 0.04 0.02 0.05 0.02 0.04 0.03 0.04 0.02 0.05 0.03 0.04 0.02 0.04 0.03 0.04 0.03 0.04 0.02 0 0zm1.89 5.3l-0.34 -0.03 0 0 0.02 -0.25 0.01 -0.24 0.01 -0.23 0 -0.23 -0.01 -0.22 -0.01 -0.22 -0.01 -0.21 -0.02 -0.2 -0.03 -0.2 -0.03 -0.19 -0.04 -0.18 -0.04 -0.18 -0.04 -0.17 -0.05 -0.17 -0.06 -0.16 -0.05 -0.16 -0.06 -0.15 -0.07 -0.14 -0.07 -0.14 -0.07 -0.13 -0.08 -0.13 -0.08 -0.13 -0.08 -0.11 -0.09 -0.12 -0.09 -0.11 -0.09 -0.1 -0.09 -0.1 -0.1 -0.09 -0.1 -0.09 -0.1 -0.08 -0.11 -0.08 -0.11 -0.08 0.19 -0.28 0.12 0.08 0.12 0.09 0.11 0.09 0.11 0.1 0.1 0.11 0.11 0.1 0.1 0.11 0.1 0.12 0.09 0.13 0.09 0.12 0.09 0.14 0.08 0.14 0.08 0.14 0.07 0.15 0.07 0.16 0.07 0.16 0.06 0.17 0.06 0.17 0.05 0.18 0.05 0.18 0.04 0.19 0.04 0.19 0.04 0.2 0.02 0.21 0.02 0.21 0.02 0.22 0.01 0.23 0.01 0.23 -0.01 0.23 0 0.25 -0.02 0.24 -0.01 0.26 0 0zm-0.34 -0.03l0 0 0 -0.05 0 0.05zm-63.26 -41.61l0.03 -0.34 0 0 0.08 0.01 0.07 0.01 0.07 0.02 0.08 0.02 0.06 0.02 0.07 0.03 0.07 0.03 0.07 0.03 0.06 0.03 0.06 0.04 0.06 0.04 0.06 0.05 0.05 0.04 0.05 0.05 0.05 0.05 0.05 0.06 0.04 0.05 0.05 0.06 0.03 0.06 0.04 0.06 0.03 0.06 0.03 0.07 0.03 0.07 0.02 0.06 0.03 0.07 0.01 0.08 0.02 0.07 0.01 0.07 0 0.07 0.01 0.08 0 0.07 -0.01 0.08 -0.34 -0.03 0.01 -0.06 0 -0.06 0 -0.05 -0.01 -0.06 -0.01 -0.06 -0.01 -0.05 -0.01 -0.06 -0.02 -0.05 -0.02 -0.06 -0.02 -0.04 -0.02 -0.05 -0.03 -0.06 -0.02 -0.04 -0.03 -0.05 -0.04 -0.04 -0.03 -0.05 -0.04 -0.04 -0.04 -0.04 -0.04 -0.04 -0.04 -0.03 -0.04 -0.03 -0.05 -0.03 -0.04 -0.04 -0.05 -0.02 -0.05 -0.03 -0.05 -0.02 -0.06 -0.02 -0.05 -0.02 -0.06 -0.01 -0.05 -0.01 -0.06 -0.01 -0.06 -0.01 0 0zm-1.24 0.89l-0.34 -0.03 0 0 0.01 -0.08 0.01 -0.07 0.02 -0.07 0.02 -0.07 0.02 -0.07 0.03 -0.06 0.03 -0.07 0.03 -0.06 0.04 -0.06 0.04 -0.05 0.04 -0.05 0.04 -0.06 0.05 -0.05 0.05 -0.04 0.05 -0.04 0.06 -0.04 0.05 -0.04 0.06 -0.03 0.06 -0.03 0.07 -0.03 0.06 -0.03 0.06 -0.02 0.07 -0.02 0.07 -0.02 0.07 -0.01 0.07 -0.02 0.07 -0.01 0.07 0 0.07 0 0.07 0 0.08 0 0.07 0 -0.03 0.34 -0.06 0 -0.06 -0.01 -0.06 0 -0.06 0.01 -0.06 0 -0.05 0.01 -0.06 0.01 -0.06 0.01 -0.05 0.01 -0.05 0.02 -0.05 0.02 -0.05 0.02 -0.05 0.02 -0.04 0.02 -0.05 0.03 -0.04 0.03 -0.04 0.03 -0.04 0.03 -0.04 0.03 -0.03 0.03 -0.03 0.04 -0.03 0.04 -0.03 0.04 -0.03 0.04 -0.02 0.05 -0.02 0.04 -0.02 0.05 -0.02 0.05 -0.01 0.05 -0.01 0.05 -0.01 0.06 -0.01 0.06 0 0zm0 0l0 0 -0.01 0.06 0.01 -0.06zm2.88 7.55l-0.18 0.28 0 0 -0.19 -0.13 -0.18 -0.14 -0.18 -0.14 -0.17 -0.16 -0.17 -0.16 -0.16 -0.17 -0.16 -0.17 -0.15 -0.19 -0.15 -0.19 -0.15 -0.19 -0.14 -0.21 -0.13 -0.21 -0.12 -0.23 -0.12 -0.22 -0.12 -0.24 -0.1 -0.24 -0.1 -0.25 -0.1 -0.26 -0.08 -0.27 -0.08 -0.27 -0.07 -0.28 -0.06 -0.29 -0.06 -0.29 -0.05 -0.3 -0.03 -0.31 -0.03 -0.31 -0.02 -0.33 -0.02 -0.32 0 -0.34 0.01 -0.34 0.02 -0.35 0.02 -0.36 0.34 0.03 -0.03 0.35 -0.01 0.34 -0.01 0.33 0 0.33 0.01 0.32 0.02 0.31 0.03 0.3 0.04 0.3 0.04 0.29 0.06 0.29 0.06 0.27 0.06 0.27 0.08 0.26 0.08 0.26 0.09 0.25 0.1 0.24 0.1 0.23 0.11 0.22 0.11 0.22 0.12 0.21 0.13 0.21 0.13 0.19 0.14 0.19 0.14 0.18 0.15 0.18 0.15 0.16 0.15 0.16 0.16 0.15 0.16 0.15 0.17 0.14 0.17 0.12 0.17 0.13 0 0zm2.52 0.89l-0.04 0.34 0 0 -0.08 -0.01 -0.09 -0.01 -0.09 -0.01 -0.09 -0.01 -0.08 -0.02 -0.09 -0.01 -0.09 -0.02 -0.09 -0.02 -0.08 -0.02 -0.09 -0.02 -0.08 -0.02 -0.09 -0.02 -0.08 -0.03 -0.09 -0.03 -0.08 -0.02 -0.09 -0.03 -0.08 -0.03 -0.09 -0.03 -0.08 -0.04 -0.08 -0.03 -0.08 -0.04 -0.09 -0.04 -0.08 -0.04 -0.08 -0.04 -0.08 -0.04 -0.08 -0.04 -0.08 -0.04 -0.08 -0.05 -0.07 -0.05 -0.08 -0.04 -0.08 -0.05 -0.07 -0.05 0.18 -0.28 0.08 0.04 0.07 0.05 0.07 0.05 0.07 0.04 0.08 0.04 0.07 0.04 0.08 0.04 0.08 0.04 0.07 0.04 0.08 0.04 0.07 0.03 0.08 0.03 0.08 0.04 0.08 0.03 0.08 0.03 0.07 0.03 0.08 0.02 0.08 0.03 0.08 0.03 0.08 0.02 0.09 0.02 0.07 0.02 0.09 0.02 0.08 0.02 0.08 0.02 0.08 0.01 0.08 0.02 0.08 0.01 0.09 0.02 0.08 0.01 0.08 0.01 0.09 0 0 0zm2.62 -0.43l0.13 0.31 0 0 -0.08 0.04 -0.09 0.03 -0.08 0.04 -0.09 0.03 -0.08 0.03 -0.09 0.03 -0.08 0.03 -0.09 0.02 -0.08 0.03 -0.09 0.02 -0.09 0.02 -0.09 0.02 -0.08 0.02 -0.09 0.02 -0.09 0.02 -0.09 0.01 -0.08 0.01 -0.09 0.02 -0.09 0.01 -0.09 0.01 -0.08 0 -0.09 0.01 -0.09 0.01 -0.09 0 -0.09 0 -0.09 0 -0.09 0 -0.08 0 -0.09 0 -0.09 -0.01 -0.09 0 -0.09 -0.01 0.04 -0.34 0.08 0.01 0.08 0.01 0.08 0 0.09 0 0.08 0.01 0.08 0 0.09 -0.01 0.08 0 0.08 0 0.08 -0.01 0.09 0 0.08 -0.01 0.08 -0.01 0.08 -0.01 0.09 -0.01 0.08 -0.01 0.08 -0.02 0.08 -0.01 0.09 -0.02 0.08 -0.02 0.08 -0.02 0.08 -0.02 0.08 -0.02 0.08 -0.02 0.09 -0.03 0.08 -0.02 0.08 -0.03 0.08 -0.03 0.08 -0.03 0.08 -0.03 0.08 -0.03 0.08 -0.04 0 0zm4.11 -6.77l0.34 0.03 0 0 -0.04 0.35 -0.04 0.34 -0.06 0.33 -0.06 0.32 -0.06 0.32 -0.08 0.3 -0.08 0.3 -0.09 0.29 -0.1 0.28 -0.1 0.28 -0.12 0.26 -0.11 0.26 -0.13 0.25 -0.13 0.24 -0.13 0.23 -0.14 0.23 -0.15 0.21 -0.15 0.21 -0.16 0.2 -0.16 0.19 -0.16 0.19 -0.17 0.17 -0.18 0.17 -0.18 0.16 -0.18 0.15 -0.18 0.14 -0.19 0.14 -0.19 0.12 -0.2 0.12 -0.2 0.11 -0.19 0.1 -0.21 0.09 -0.13 -0.31 0.19 -0.08 0.19 -0.1 0.18 -0.1 0.19 -0.11 0.18 -0.12 0.18 -0.13 0.17 -0.13 0.17 -0.15 0.17 -0.15 0.17 -0.16 0.16 -0.16 0.16 -0.18 0.15 -0.18 0.15 -0.19 0.14 -0.2 0.14 -0.21 0.14 -0.21 0.13 -0.22 0.12 -0.24 0.12 -0.24 0.11 -0.24 0.11 -0.26 0.1 -0.26 0.09 -0.27 0.09 -0.28 0.08 -0.29 0.08 -0.3 0.06 -0.31 0.06 -0.31 0.05 -0.32 0.05 -0.33 0.03 -0.34 0 0zm0.34 0.03l0 0 -0.01 0.04 0.01 -0.04zm-1.38 -1.11l0.03 -0.34 0 0 0.07 0.01 0.08 0.01 0.07 0.01 0.07 0.02 0.07 0.02 0.06 0.02 0.07 0.02 0.06 0.03 0.06 0.03 0.06 0.03 0.06 0.03 0.06 0.04 0.06 0.03 0.05 0.04 0.05 0.05 0.05 0.05 0.04 0.04 0.04 0.05 0.04 0.06 0.04 0.05 0.04 0.06 0.03 0.06 0.03 0.06 0.02 0.06 0.02 0.07 0.02 0.07 0.01 0.06 0.01 0.07 0.01 0.08 0 0.07 0 0.07 0 0.08 -0.34 -0.03 0 -0.06 0 -0.06 0 -0.05 0 -0.05 -0.01 -0.06 -0.01 -0.05 -0.01 -0.05 -0.02 -0.04 -0.02 -0.05 -0.02 -0.04 -0.02 -0.05 -0.02 -0.04 -0.03 -0.04 -0.03 -0.03 -0.03 -0.04 -0.04 -0.04 -0.03 -0.03 -0.04 -0.03 -0.04 -0.03 -0.04 -0.03 -0.04 -0.03 -0.04 -0.03 -0.05 -0.02 -0.05 -0.02 -0.05 -0.02 -0.05 -0.02 -0.06 -0.02 -0.05 -0.01 -0.06 -0.02 -0.06 -0.01 -0.06 -0.01 -0.06 0 0 0zm0 0l0 0 0 0 0 0zm-1.23 0.88l-0.34 -0.03 0 0 0.01 -0.07 0.01 -0.08 0.02 -0.07 0.02 -0.07 0.02 -0.07 0.02 -0.06 0.03 -0.06 0.04 -0.06 0.03 -0.06 0.04 -0.06 0.05 -0.05 0.04 -0.05 0.05 -0.05 0.05 -0.04 0.05 -0.05 0.05 -0.03 0.06 -0.04 0.06 -0.03 0.06 -0.04 0.06 -0.02 0.06 -0.03 0.07 -0.02 0.06 -0.02 0.07 -0.02 0.07 -0.02 0.07 -0.01 0.07 -0.01 0.07 0 0.07 0 0.07 -0.01 0.08 0.01 0.07 0 -0.03 0.34 -0.06 -0.01 -0.06 0 -0.06 0 -0.06 0.01 -0.05 0 -0.06 0.01 -0.06 0.01 -0.05 0.01 -0.06 0.01 -0.05 0.02 -0.05 0.02 -0.05 0.01 -0.04 0.03 -0.05 0.02 -0.04 0.03 -0.05 0.02 -0.04 0.03 -0.03 0.03 -0.04 0.04 -0.03 0.03 -0.03 0.04 -0.04 0.04 -0.02 0.03 -0.03 0.05 -0.02 0.04 -0.03 0.05 -0.01 0.04 -0.02 0.05 -0.02 0.05 -0.01 0.06 -0.01 0.05 0 0.06 0 0zm0 0l0 0 -0.01 0.04 0.01 -0.04zm-2.76 4.88l-0.13 -0.31 0 0 0.11 -0.06 0.12 -0.05 0.11 -0.07 0.11 -0.07 0.11 -0.07 0.11 -0.09 0.11 -0.08 0.1 -0.09 0.11 -0.1 0.1 -0.11 0.1 -0.11 0.09 -0.11 0.1 -0.13 0.09 -0.12 0.09 -0.14 0.09 -0.14 0.08 -0.14 0.08 -0.15 0.08 -0.16 0.07 -0.16 0.07 -0.17 0.07 -0.18 0.07 -0.18 0.06 -0.19 0.05 -0.19 0.05 -0.2 0.05 -0.21 0.04 -0.21 0.04 -0.22 0.04 -0.23 0.02 -0.23 0.03 -0.24 0.34 0.03 -0.03 0.25 -0.03 0.24 -0.03 0.23 -0.04 0.23 -0.05 0.22 -0.05 0.22 -0.05 0.21 -0.06 0.2 -0.06 0.2 -0.07 0.19 -0.07 0.18 -0.08 0.18 -0.07 0.17 -0.09 0.17 -0.08 0.16 -0.09 0.16 -0.1 0.15 -0.09 0.14 -0.1 0.14 -0.1 0.13 -0.11 0.13 -0.11 0.11 -0.11 0.12 -0.11 0.11 -0.11 0.1 -0.12 0.09 -0.12 0.09 -0.12 0.08 -0.13 0.08 -0.12 0.07 -0.13 0.07 -0.13 0.06 0 0zm-0.13 -0.31l0 0 -0.24 0.1 0.24 -0.1zm-1.37 0.56l0.03 -0.34 0 0 0.04 0.01 0.04 0 0.05 0 0.04 0 0.04 0 0.04 0 0.04 0 0.04 0 0.05 0 0.04 0 0.04 -0.01 0.04 0 0.04 -0.01 0.05 0 0.04 -0.01 0.04 0 0.04 -0.01 0.04 -0.01 0.05 -0.01 0.04 -0.01 0.04 -0.01 0.04 -0.01 0.04 -0.01 0.05 -0.01 0.04 -0.01 0.04 -0.02 0.04 -0.01 0.04 -0.02 0.04 -0.01 0.04 -0.02 0.05 -0.01 0.04 -0.02 0.13 0.31 -0.04 0.02 -0.05 0.02 -0.04 0.01 -0.05 0.02 -0.05 0.02 -0.04 0.01 -0.05 0.02 -0.05 0.01 -0.04 0.02 -0.05 0.01 -0.05 0.01 -0.04 0.01 -0.05 0.01 -0.05 0.01 -0.05 0.01 -0.04 0.01 -0.05 0.01 -0.05 0 -0.05 0.01 -0.04 0 -0.05 0.01 -0.05 0 -0.04 0.01 -0.05 0 -0.05 0 -0.05 0 -0.04 0 -0.05 0 -0.05 0 -0.04 0 -0.05 -0.01 -0.05 0 0 0zm-1.43 -0.52l0.18 -0.28 0 0 0.04 0.02 0.04 0.03 0.04 0.02 0.04 0.02 0.03 0.02 0.04 0.03 0.04 0.02 0.04 0.02 0.04 0.02 0.04 0.02 0.04 0.02 0.04 0.01 0.04 0.02 0.04 0.01 0.04 0.02 0.04 0.02 0.04 0.01 0.04 0.01 0.04 0.02 0.04 0.01 0.04 0.01 0.04 0.01 0.04 0.01 0.04 0.01 0.05 0.01 0.04 0.01 0.04 0 0.04 0.01 0.04 0.01 0.04 0 0.04 0.01 0.04 0 -0.03 0.34 -0.05 -0.01 -0.04 0 -0.05 -0.01 -0.05 0 -0.04 -0.01 -0.05 -0.01 -0.05 -0.01 -0.04 -0.01 -0.05 -0.01 -0.04 -0.01 -0.05 -0.01 -0.05 -0.02 -0.04 -0.01 -0.04 -0.01 -0.05 -0.02 -0.05 -0.02 -0.04 -0.01 -0.05 -0.02 -0.04 -0.02 -0.04 -0.02 -0.05 -0.02 -0.04 -0.02 -0.05 -0.02 -0.04 -0.02 -0.05 -0.02 -0.04 -0.03 -0.04 -0.02 -0.05 -0.03 -0.04 -0.02 -0.04 -0.03 -0.04 -0.03 -0.04 -0.02 0 0zm0 0l0 0 0 0 0 0zm-1.89 -5.3l0.34 0.03 0 0 -0.02 0.25 -0.01 0.24 -0.01 0.23 0 0.23 0.01 0.22 0.01 0.22 0.01 0.21 0.02 0.2 0.03 0.2 0.03 0.19 0.04 0.18 0.04 0.18 0.04 0.17 0.05 0.17 0.05 0.16 0.06 0.16 0.06 0.15 0.07 0.14 0.07 0.14 0.07 0.13 0.08 0.13 0.08 0.13 0.08 0.11 0.09 0.12 0.09 0.11 0.09 0.1 0.09 0.1 0.1 0.09 0.1 0.09 0.1 0.08 0.11 0.08 0.1 0.08 -0.18 0.28 -0.12 -0.08 -0.12 -0.09 -0.11 -0.09 -0.11 -0.1 -0.1 -0.1 -0.11 -0.11 -0.1 -0.11 -0.1 -0.12 -0.09 -0.12 -0.09 -0.13 -0.09 -0.14 -0.08 -0.14 -0.08 -0.14 -0.07 -0.15 -0.08 -0.16 -0.06 -0.16 -0.06 -0.17 -0.06 -0.17 -0.06 -0.18 -0.04 -0.18 -0.04 -0.19 -0.04 -0.19 -0.04 -0.2 -0.02 -0.21 -0.03 -0.21 -0.01 -0.22 -0.01 -0.23 -0.01 -0.23 0.01 -0.23 0 -0.25 0.02 -0.24 0.01 -0.26 0 0zm0.34 0.03l0 0 0 0.05 0 -0.05z"/>
  </g>
 </g>
</svg>
