<?xml version="1.0" encoding="UTF-8"?>
<!DOCTYPE svg PUBLIC "-//W3C//DTD SVG 1.1//EN" "http://www.w3.org/Graphics/SVG/1.1/DTD/svg11.dtd">
<!-- Creator: CorelDRAW 2018 (64-Bit) -->
<svg xmlns="http://www.w3.org/2000/svg" xml:space="preserve" width="63px" height="65px" version="1.1" style="shape-rendering:geometricPrecision; text-rendering:geometricPrecision; image-rendering:optimizeQuality; fill-rule:evenodd; clip-rule:evenodd"
viewBox="0 0 63 65"
 xmlns:xlink="http://www.w3.org/1999/xlink">
 <defs>
  <style type="text/css">
   <![CDATA[
    .fil3 {fill:#F5B2B6}
    .fil2 {fill:#F08BB2}
    .fil4 {fill:#E31E24}
    .fil5 {fill:#C5E3D7}
    .fil0 {fill:#99CFBA}
    .fil1 {fill:#2B2A29;fill-rule:nonzero}
   ]]>
  </style>
 </defs>
 <g id="Слой_x0020_1">
  <metadata id="CorelCorpID_0Corel-Layer"/>
  <g>
   <path class="fil0" d="M17.38 2.3c1.03,0.16 1.73,1.11 1.57,2.12 -0.15,1.02 -1.11,1.72 -2.13,1.56 -1.03,-0.16 -1.73,-1.11 -1.57,-2.13 0.15,-1.01 1.11,-1.71 2.13,-1.55z"/>
   <path id="1" class="fil1" d="M19.12 4.45l-0.33 -0.05 0 0 0.01 -0.09 0 -0.08 0.01 -0.09 -0.01 -0.08 0 -0.09 -0.01 -0.08 -0.02 -0.08 -0.02 -0.08 -0.02 -0.08 -0.02 -0.08 -0.03 -0.07 -0.04 -0.08 -0.03 -0.07 -0.04 -0.07 -0.05 -0.07 -0.04 -0.07 -0.06 -0.06 -0.05 -0.07 -0.05 -0.05 -0.06 -0.06 -0.07 -0.06 -0.06 -0.05 -0.07 -0.05 -0.07 -0.04 -0.07 -0.04 -0.07 -0.04 -0.08 -0.03 -0.08 -0.04 -0.08 -0.02 -0.08 -0.03 -0.09 -0.02 -0.08 -0.01 0.05 -0.34 0.1 0.02 0.1 0.03 0.1 0.02 0.1 0.04 0.1 0.03 0.09 0.05 0.08 0.04 0.09 0.05 0.08 0.06 0.08 0.05 0.08 0.06 0.08 0.07 0.07 0.07 0.06 0.07 0.07 0.07 0.06 0.08 0.06 0.08 0.05 0.08 0.05 0.09 0.04 0.09 0.04 0.09 0.03 0.09 0.04 0.09 0.02 0.1 0.03 0.09 0.01 0.1 0.02 0.1 0 0.1 0.01 0.1 -0.01 0.11 -0.01 0.1 -0.01 0.1 0 0zm-2.33 1.7l0.05 -0.34 0 0 0.09 0.01 0.09 0.01 0.08 0 0.09 0 0.08 -0.01 0.09 -0.01 0.08 -0.01 0.08 -0.02 0.08 -0.02 0.08 -0.03 0.07 -0.03 0.08 -0.03 0.07 -0.04 0.07 -0.03 0.07 -0.05 0.07 -0.05 0.07 -0.05 0.06 -0.05 0.06 -0.05 0.05 -0.06 0.06 -0.06 0.05 -0.07 0.05 -0.06 0.04 -0.07 0.05 -0.07 0.03 -0.08 0.04 -0.07 0.03 -0.08 0.03 -0.08 0.02 -0.08 0.02 -0.09 0.02 -0.08 0.33 0.05 -0.02 0.1 -0.02 0.1 -0.03 0.1 -0.03 0.1 -0.04 0.09 -0.04 0.09 -0.05 0.09 -0.05 0.09 -0.05 0.08 -0.06 0.08 -0.06 0.08 -0.07 0.07 -0.06 0.07 -0.08 0.07 -0.07 0.06 -0.08 0.06 -0.08 0.05 -0.08 0.06 -0.09 0.04 -0.09 0.05 -0.09 0.04 -0.09 0.03 -0.09 0.03 -0.1 0.03 -0.09 0.02 -0.1 0.02 -0.1 0.01 -0.1 0.01 -0.11 0 -0.1 0 -0.1 -0.01 -0.11 -0.01 0 0zm-1.71 -2.32l0.33 0.05 0 0 -0.01 0.09 0 0.08 0 0.09 0 0.08 0 0.09 0.01 0.08 0.02 0.08 0.02 0.08 0.02 0.08 0.03 0.08 0.02 0.07 0.04 0.08 0.04 0.07 0.04 0.07 0.04 0.07 0.05 0.07 0.05 0.06 0.05 0.06 0.06 0.06 0.05 0.06 0.07 0.05 0.06 0.06 0.07 0.04 0.07 0.05 0.07 0.04 0.07 0.04 0.08 0.03 0.08 0.03 0.08 0.03 0.08 0.02 0.09 0.03 0.08 0.01 -0.05 0.34 -0.1 -0.02 -0.1 -0.03 -0.1 -0.03 -0.1 -0.03 -0.09 -0.04 -0.09 -0.04 -0.09 -0.04 -0.09 -0.05 -0.08 -0.06 -0.08 -0.06 -0.08 -0.06 -0.07 -0.06 -0.08 -0.07 -0.06 -0.07 -0.07 -0.07 -0.06 -0.08 -0.05 -0.08 -0.05 -0.08 -0.05 -0.09 -0.05 -0.09 -0.04 -0.09 -0.03 -0.09 -0.04 -0.09 -0.02 -0.1 -0.02 -0.09 -0.02 -0.1 -0.01 -0.1 -0.01 -0.1 -0.01 -0.1 0.01 -0.11 0.01 -0.1 0.01 -0.1 0 0zm2.33 -1.7l-0.05 0.34 0 0 -0.09 -0.01 -0.09 -0.01 -0.08 0 -0.09 0 -0.08 0.01 -0.09 0.01 -0.08 0.01 -0.08 0.02 -0.08 0.02 -0.08 0.03 -0.07 0.03 -0.08 0.03 -0.07 0.04 -0.07 0.03 -0.07 0.05 -0.07 0.04 -0.07 0.05 -0.06 0.06 -0.06 0.05 -0.05 0.06 -0.06 0.06 -0.05 0.07 -0.05 0.06 -0.04 0.07 -0.05 0.07 -0.03 0.07 -0.04 0.08 -0.03 0.08 -0.03 0.08 -0.02 0.08 -0.02 0.08 -0.02 0.09 -0.33 -0.05 0.02 -0.1 0.02 -0.11 0.03 -0.09 0.03 -0.1 0.04 -0.09 0.04 -0.09 0.05 -0.09 0.05 -0.09 0.05 -0.08 0.06 -0.08 0.06 -0.08 0.07 -0.07 0.07 -0.07 0.07 -0.07 0.07 -0.06 0.08 -0.06 0.08 -0.06 0.08 -0.05 0.09 -0.04 0.08 -0.05 0.1 -0.04 0.09 -0.03 0.09 -0.03 0.1 -0.03 0.09 -0.02 0.1 -0.02 0.1 -0.01 0.11 -0.01 0.1 0 0.1 0 0.1 0.01 0.11 0.01 0 0z"/>
  </g>
  <g>
   <path class="fil2" d="M14.51 3.88l0.13 -0.19c-0.08,-0.03 -0.16,-0.07 -0.24,-0.11 -1.94,-1.21 -3.64,-1.51 -5.11,-1 -1.52,0.53 -2.89,1.93 -4.14,4.09 -2.52,5.21 -3.32,9.77 -2.69,13.83 0.63,4.04 2.69,7.64 5.89,10.93 0.02,0.03 0.04,0.05 0.06,0.07l0.07 -0.09c0.13,-0.17 0.38,-0.19 0.54,-0.06l0.06 0.04c0.16,0.14 0.19,0.38 0.06,0.55l-0.54 0.68c-0.06,0.15 -0.15,0.29 -0.27,0.41 -0.05,0.05 -0.11,0.09 -0.17,0.13l-0.68 0.86c-0.13,0.16 -0.38,0.19 -0.54,0.06l-0.06 -0.05c-0.17,-0.13 -0.19,-0.37 -0.06,-0.54l0.21 -0.27c-0.1,-0.05 -0.2,-0.12 -0.29,-0.22 -3.53,-3.63 -5.8,-7.62 -6.51,-12.16 -0.7,-4.51 0.17,-9.52 2.91,-15.18l0.03 -0.07c1.53,-2.66 3.32,-4.41 5.39,-5.13 2.13,-0.74 4.46,-0.38 7.03,1.2 0.11,0.07 0.2,0.15 0.27,0.24l0.16 -0.22c0.11,-0.18 0.36,-0.22 0.53,-0.1l0.06 0.04c0.18,0.12 0.22,0.36 0.1,0.54l-1.5 2.19c-0.12,0.18 -0.36,0.22 -0.54,0.1l-0.06 -0.04c-0.18,-0.12 -0.22,-0.36 -0.1,-0.53z"/>
   <path id="1" class="fil1" d="M14.78 3.78l-0.13 0.19 -0.28 -0.19 0.13 -0.19 0.19 -0.06 0.09 0.25zm-0.09 -0.25l0.22 0.07 -0.13 0.18 -0.09 -0.25zm-0.37 0.19l0.17 -0.29 0 0 0.01 0 0 0.01 0.02 0.01 0 0 0 0 0.01 0.01 -0.01 -0.01 0.02 0.01 0.01 0.01 0 0 0.01 0 0.01 0 0 0 0.01 0.01 0.01 0 0.01 0.01 0 0 0 0 0.01 0.01 0 0 0.01 0 0.02 0.01 0 0 0 0 0.01 0 0.01 0.01 0 0 0 0 0.02 0 0 0 0 0 0.01 0.01 -0.11 0.32 0 0 -0.02 -0.01 -0.01 0 0.01 0 -0.02 -0.01 -0.01 0 0 0 -0.01 -0.01 -0.01 0 -0.02 -0.01 0.01 0 -0.02 0 -0.01 -0.01 -0.01 0 -0.01 -0.01 -0.01 0 0 0 -0.01 0 0 -0.01 -0.02 0 0 -0.01 -0.01 0 -0.02 -0.01 0 0 0 0 -0.02 -0.01 -0.01 -0.01 0 0 -0.02 -0.01 0 0 0 0 -0.02 -0.01 0.01 0zm0.17 -0.29l0 0 -0.07 -0.04 0.07 0.04zm-5.14 -0.69l-0.11 -0.32 0 0 0.14 -0.04 0.15 -0.05 0.14 -0.03 0.15 -0.04 0.15 -0.02 0.15 -0.03 0.15 -0.01 0.16 -0.01 0.15 -0.01 0.16 0 0.15 0 0.16 0.01 0.16 0.01 0.16 0.02 0.17 0.02 0.16 0.03 0.17 0.03 0.16 0.04 0.17 0.05 0.17 0.05 0.17 0.05 0.17 0.06 0.17 0.07 0.18 0.07 0.17 0.07 0.18 0.08 0.17 0.09 0.18 0.09 0.18 0.09 0.19 0.11 0.18 0.1 0.18 0.11 -0.17 0.29 -0.18 -0.11 -0.18 -0.1 -0.18 -0.1 -0.17 -0.09 -0.17 -0.09 -0.18 -0.08 -0.17 -0.08 -0.16 -0.07 -0.17 -0.07 -0.17 -0.06 -0.16 -0.06 -0.16 -0.05 -0.16 -0.05 -0.16 -0.04 -0.16 -0.03 -0.15 -0.04 -0.16 -0.03 -0.15 -0.02 -0.15 -0.01 -0.15 -0.02 -0.15 0 -0.14 -0.01 -0.15 0.01 -0.14 0 -0.14 0.01 -0.15 0.02 -0.14 0.02 -0.13 0.02 -0.14 0.04 -0.13 0.03 -0.14 0.04 -0.13 0.04 0 0zm-4.05 4l-0.3 -0.15 0 -0.01 0.12 -0.2 0.12 -0.2 0.12 -0.19 0.12 -0.19 0.12 -0.18 0.12 -0.18 0.13 -0.18 0.12 -0.17 0.13 -0.16 0.12 -0.17 0.13 -0.15 0.13 -0.15 0.13 -0.15 0.13 -0.15 0.13 -0.13 0.13 -0.14 0.13 -0.13 0.14 -0.12 0.13 -0.12 0.13 -0.11 0.14 -0.11 0.14 -0.11 0.14 -0.1 0.13 -0.09 0.15 -0.09 0.14 -0.09 0.14 -0.08 0.14 -0.07 0.15 -0.07 0.14 -0.06 0.15 -0.06 0.15 -0.06 0.11 0.32 -0.14 0.05 -0.14 0.06 -0.13 0.06 -0.14 0.06 -0.13 0.07 -0.13 0.08 -0.13 0.08 -0.14 0.08 -0.13 0.09 -0.13 0.1 -0.13 0.09 -0.13 0.11 -0.13 0.11 -0.13 0.11 -0.13 0.12 -0.12 0.12 -0.13 0.13 -0.12 0.13 -0.13 0.14 -0.13 0.14 -0.12 0.15 -0.12 0.15 -0.12 0.16 -0.13 0.16 -0.12 0.17 -0.12 0.17 -0.12 0.18 -0.12 0.17 -0.12 0.19 -0.11 0.19 -0.12 0.19 -0.12 0.2 0.01 -0.01zm-0.3 -0.15l0 -0.01 0 0 0 0.01zm-2.37 13.88l-0.34 0.05 0 0 -0.05 -0.38 -0.05 -0.39 -0.04 -0.39 -0.03 -0.4 -0.02 -0.4 -0.01 -0.4 0 -0.4 0 -0.41 0.02 -0.41 0.02 -0.41 0.03 -0.42 0.04 -0.42 0.05 -0.42 0.06 -0.43 0.07 -0.42 0.08 -0.44 0.09 -0.43 0.09 -0.44 0.11 -0.44 0.11 -0.45 0.13 -0.45 0.13 -0.45 0.14 -0.46 0.16 -0.46 0.16 -0.46 0.17 -0.47 0.19 -0.47 0.19 -0.47 0.2 -0.48 0.21 -0.48 0.22 -0.49 0.24 -0.49 0.3 0.15 -0.23 0.49 -0.22 0.48 -0.21 0.47 -0.2 0.48 -0.19 0.47 -0.18 0.46 -0.17 0.46 -0.16 0.46 -0.15 0.46 -0.15 0.45 -0.13 0.44 -0.12 0.45 -0.11 0.44 -0.11 0.43 -0.09 0.44 -0.09 0.43 -0.08 0.42 -0.06 0.42 -0.06 0.42 -0.05 0.42 -0.04 0.41 -0.03 0.41 -0.03 0.41 -0.01 0.4 -0.01 0.4 0.01 0.4 0.01 0.39 0.02 0.39 0.03 0.39 0.04 0.38 0.04 0.38 0.06 0.38 0 0zm5.84 10.85l-0.24 0.23 0 0 -0.3 -0.31 -0.29 -0.31 -0.29 -0.32 -0.27 -0.32 -0.28 -0.31 -0.26 -0.33 -0.26 -0.32 -0.25 -0.33 -0.24 -0.32 -0.24 -0.33 -0.23 -0.33 -0.22 -0.34 -0.21 -0.33 -0.21 -0.34 -0.2 -0.34 -0.19 -0.34 -0.18 -0.35 -0.18 -0.34 -0.17 -0.35 -0.16 -0.36 -0.15 -0.35 -0.15 -0.35 -0.14 -0.36 -0.13 -0.37 -0.12 -0.36 -0.11 -0.37 -0.11 -0.36 -0.09 -0.38 -0.09 -0.37 -0.08 -0.38 -0.07 -0.37 -0.07 -0.39 0.34 -0.05 0.06 0.38 0.07 0.37 0.08 0.37 0.08 0.36 0.1 0.37 0.1 0.36 0.11 0.36 0.12 0.35 0.13 0.36 0.14 0.35 0.14 0.35 0.15 0.35 0.16 0.34 0.16 0.34 0.18 0.35 0.18 0.33 0.18 0.34 0.2 0.34 0.2 0.33 0.21 0.33 0.22 0.33 0.23 0.32 0.23 0.33 0.24 0.32 0.25 0.32 0.25 0.32 0.26 0.32 0.27 0.31 0.28 0.32 0.28 0.31 0.29 0.31 0.29 0.31 0 0zm0 0l0 0 -0.03 -0.04 0.03 0.04zm-0.19 0.07l0.26 0.21 -0.26 0.01 0.01 0 0 0 -0.02 -0.02 0.01 0.02 0 0 -0.02 -0.02 0 0 0.02 0.01 -0.01 0 -0.01 -0.02 0.01 0.01 0 0 -0.02 -0.02 0.01 0.02 0 0 -0.02 -0.02 0.02 0.01 0 0 -0.02 -0.02 0.03 0.03 -0.02 -0.01 -0.02 -0.02 0 -0.01 0.02 0.02 -0.01 0 -0.01 -0.02 0.03 0.03 -0.02 -0.02 -0.02 -0.02 0.01 0.02 0 0 0 -0.01 0.24 -0.23 0 0 0 0 0.02 0.02 -0.01 -0.02 -0.02 -0.01 0.04 0.03 -0.02 -0.01 0.01 0 0.01 0.02 0.01 0 -0.02 -0.01 -0.02 -0.02 0.04 0.04 -0.01 -0.02 0 0 0.02 0.02 -0.02 -0.01 0 0 0.02 0.02 -0.01 -0.02 0 0.01 0.02 0.02 -0.02 -0.02 0 0 0.02 0.02 0 0 -0.01 -0.01 0 0 0.02 0.02 -0.02 -0.02 0.01 0.01 0.01 0.01 -0.26 0zm0.26 0.21l-0.13 0.17 -0.13 -0.16 0.26 -0.01zm0.07 -0.09l-0.07 0.09 -0.26 -0.21 0.07 -0.09 0.26 0.21 0 0zm0.51 -0.3l-0.2 0.27 -0.01 0 0 -0.01 -0.01 0 -0.02 -0.01 0 0 -0.01 -0.01 -0.01 0 -0.01 -0.01 -0.01 0 -0.01 0 -0.01 0 -0.01 0 -0.01 -0.01 -0.01 0 -0.01 0 -0.01 0 -0.02 0.01 0 0 -0.01 0 -0.01 0 -0.02 0 0 0.01 -0.01 0 -0.02 0.01 0 0 -0.01 0 -0.01 0.01 -0.01 0.01 0 0 -0.01 0.01 -0.01 0.01 -0.01 0 -0.01 0.01 -0.26 -0.21 0.02 -0.02 0.02 -0.02 0.02 -0.02 0.01 -0.02 0.03 -0.01 0.02 -0.02 0.02 -0.01 0.03 -0.02 0.02 -0.01 0.03 -0.01 0.02 -0.01 0.03 -0.01 0.02 -0.01 0.02 0 0.03 -0.01 0.03 0 0.03 0 0.02 -0.01 0.03 0 0.03 0.01 0.02 0 0.03 0 0.02 0.01 0.03 0.01 0.03 0 0.02 0.01 0.03 0.01 0.02 0.02 0.03 0.01 0.02 0.01 0.02 0.02 0.03 0.02 -0.01 -0.01zm-0.14 0.32l-0.06 -0.05 0.2 -0.27 0.06 0.05 0.01 0 -0.21 0.27zm0.29 0.51l-0.26 -0.21 0 0 0 -0.01 0.01 -0.01 0.01 -0.01 0 -0.01 0.01 0 0 -0.01 0 -0.02 0.01 -0.01 0 -0.01 0 0 0 -0.02 0 -0.01 0.01 -0.01 0 0 -0.01 -0.02 0 -0.01 0 -0.01 0 -0.01 0 -0.01 0 -0.01 -0.01 -0.01 0 -0.01 -0.01 -0.01 0 0 -0.01 -0.02 0 -0.01 -0.01 -0.01 0 0 -0.01 -0.01 -0.01 -0.01 -0.01 0 -0.01 -0.01 0.22 -0.27 0.02 0.02 0.02 0.02 0.02 0.02 0.02 0.02 0.01 0.02 0.02 0.03 0.01 0.02 0.01 0.02 0.02 0.03 0.01 0.02 0.01 0.02 0.01 0.03 0.01 0.03 0 0.02 0.01 0.03 0 0.03 0 0.02 0 0.02 0 0.03 0 0.03 0 0.03 0 0.02 -0.01 0.03 -0.01 0.03 0 0.02 -0.01 0.02 -0.01 0.03 -0.02 0.03 -0.01 0.02 -0.01 0.02 -0.02 0.03 -0.02 0.02 0 0zm-0.8 0.47l0.54 -0.68 0.26 0.21 -0.54 0.68 -0.29 -0.16 0.03 -0.05zm-0.03 0.05l0.01 -0.03 0.02 -0.02 -0.03 0.05zm0.01 0.59l-0.24 -0.24 0 -0.01 0.01 -0.01 0.01 -0.01 0.01 -0.01 0.01 0 0.01 -0.02 0.01 0 0.01 -0.02 0.01 -0.01 0 0 0.01 -0.01 0.01 -0.02 0.01 -0.01 0 -0.01 0.01 -0.01 0.01 -0.01 0.01 -0.01 0 -0.01 0.01 -0.01 0.01 -0.01 0 -0.01 0.01 -0.02 0.01 -0.01 0 -0.01 0.01 -0.01 0 -0.01 0.01 -0.01 0.01 -0.02 0 -0.01 0.01 -0.01 0 -0.01 0 -0.01 0.01 -0.01 0.32 0.11 -0.01 0.02 0 0.01 -0.01 0.02 -0.01 0.02 -0.01 0.02 0 0.01 -0.01 0.02 -0.01 0.01 -0.01 0.02 -0.01 0.01 0 0.02 -0.01 0.01 -0.01 0.02 -0.01 0.02 -0.01 0.01 -0.01 0.01 -0.01 0.02 -0.01 0.01 -0.01 0.02 -0.01 0.02 -0.01 0.01 -0.01 0.01 -0.01 0.01 -0.02 0.02 -0.01 0.01 -0.01 0.02 -0.01 0.01 -0.01 0.01 -0.01 0.02 -0.02 0.01 -0.01 0.01 -0.01 0.02 0 0zm-0.24 -0.24l0 -0.01 0.19 -0.18 -0.19 0.19zm0.09 0.35l-0.27 -0.21 0.04 -0.03 0.01 0 0 -0.01 0.01 0 0 -0.01 0 0.01 0 -0.01 0.02 -0.01 0 0 0 0 0 0 0.02 -0.01 -0.01 0 0.01 0 0 0 0.01 -0.01 0.01 -0.01 -0.01 0.01 0.02 -0.01 -0.01 0 0.02 -0.01 0 -0.01 -0.01 0.01 0.01 0 0.01 -0.01 0.01 -0.02 0 0.01 0 0 0.01 -0.01 0 -0.01 0 0.01 0.01 -0.01 0 0 0.24 0.24 -0.01 0 0 0 -0.01 0.02 -0.01 0 0 0 -0.01 0.01 -0.01 0.01 0 0 0 0 0 0 -0.02 0.02 -0.01 0 0.01 0 -0.02 0.01 0.01 0 -0.02 0.01 0 0.01 0 -0.01 -0.01 0.01 -0.01 0.01 -0.01 0.01 0 0 0 0 -0.02 0.01 0 0 0 0 0 0.01 -0.02 0.01 -0.01 0 0 0 -0.01 0.01 0 0 0.04 -0.04zm-0.27 -0.21l0.02 -0.02 0.02 -0.01 -0.04 0.03zm-0.68 0.86l0.68 -0.86 0.27 0.21 -0.69 0.86 -0.26 -0.21zm-0.51 0.3l0.2 -0.27 0.01 0 0 0.01 0.01 0.01 0.02 0.01 0 0 0.01 0 0.01 0.01 0.01 0 0.01 0.01 0.01 0 0.01 0 0.01 0 0.01 0 0.01 0 0.01 0 0.01 0 0.01 0 0.01 0 0.01 0 0.01 -0.01 0.02 0 0 0 0.01 -0.01 0.01 0 0.01 0 0.01 -0.01 0.01 -0.01 0.01 0 0 -0.01 0.01 -0.01 0.01 0 0.01 -0.01 0.01 -0.01 0.26 0.21 -0.02 0.02 -0.02 0.03 -0.02 0.01 -0.01 0.02 -0.03 0.02 -0.02 0.02 -0.02 0.01 -0.03 0.01 -0.02 0.02 -0.03 0.01 -0.02 0.01 -0.03 0.01 -0.02 0 -0.02 0.01 -0.03 0 -0.03 0.01 -0.03 0 -0.02 0 -0.03 0 -0.03 0 -0.02 0 -0.03 -0.01 -0.03 0 -0.02 -0.01 -0.03 -0.01 -0.02 -0.01 -0.03 -0.01 -0.02 -0.01 -0.03 -0.02 -0.02 -0.01 -0.02 -0.01 -0.03 -0.02 0.01 0zm0.14 -0.31l0.06 0.04 -0.2 0.27 -0.06 -0.05 -0.01 0 0.21 -0.26zm-0.29 -0.51l0.26 0.21 0 0 0 0 -0.01 0.01 -0.01 0.01 0 0.01 -0.01 0.01 0 0.01 0 0.01 -0.01 0.01 0 0.01 0 0.01 0 0.01 0 0.01 -0.01 0.01 0 0.02 0 0 0.01 0.01 0 0.01 0 0.02 0 0 0 0.01 0.01 0.02 0 0.01 0.01 0 0 0.01 0.01 0.01 0 0.01 0.01 0.01 0 0.01 0.01 0.01 0.01 0 0.01 0.01 0.01 0.01 -0.22 0.26 -0.02 -0.02 -0.02 -0.02 -0.02 -0.02 -0.02 -0.02 -0.02 -0.02 -0.01 -0.02 -0.01 -0.02 -0.02 -0.03 -0.01 -0.02 -0.01 -0.03 -0.01 -0.02 -0.01 -0.02 -0.01 -0.03 0 -0.03 -0.01 -0.02 0 -0.03 0 -0.03 0 -0.02 0 -0.03 0 -0.02 0 -0.03 0.01 -0.03 0 -0.03 0.01 -0.02 0 -0.02 0.01 -0.03 0.01 -0.02 0.02 -0.03 0.01 -0.03 0.01 -0.02 0.02 -0.02 0.02 -0.02 0 0zm0.47 -0.06l-0.21 0.27 -0.26 -0.21 0.21 -0.27 0.21 -0.05 0.05 0.26zm-0.05 -0.26l0.18 0.09 -0.13 0.17 -0.05 -0.26zm-0.49 0.05l0.24 -0.23 0 0 0 0 0.01 0.01 0.01 0.01 0.01 0 0.01 0.02 0 0 0.01 0 0.01 0.01 0.01 0.01 0 0.01 0.01 0 0 0 0.02 0.01 0.01 0.01 0 0 0 0.01 0.01 0 0.01 0.01 0.01 0.01 0.01 0 0 0.01 0.02 0.01 0.01 0 0 0.01 0.01 0 0 0 0.02 0.01 0.01 0.01 0 0 0.02 0 0 0.01 0.01 0 -0.15 0.3 -0.02 0 -0.01 -0.01 -0.01 0 -0.01 -0.01 -0.01 -0.01 -0.01 0 -0.01 -0.01 -0.02 -0.01 -0.01 -0.01 -0.01 -0.01 0 0 -0.02 -0.01 -0.01 0 -0.01 -0.01 -0.01 -0.01 -0.01 0 -0.01 -0.01 -0.02 -0.01 -0.01 -0.01 0 0 -0.01 -0.02 -0.02 -0.01 -0.01 -0.01 -0.01 0 0 -0.01 -0.02 -0.01 -0.01 -0.01 0 -0.01 -0.01 -0.01 -0.02 -0.01 0 -0.01 -0.01 -0.01 0 0zm-6.56 -12.25l0.34 -0.05 0 0 0.07 0.42 0.08 0.41 0.09 0.42 0.09 0.41 0.11 0.41 0.11 0.4 0.13 0.4 0.13 0.4 0.14 0.4 0.15 0.39 0.16 0.39 0.16 0.39 0.18 0.38 0.18 0.39 0.19 0.37 0.2 0.38 0.21 0.38 0.22 0.37 0.22 0.37 0.23 0.37 0.25 0.36 0.24 0.36 0.26 0.36 0.26 0.36 0.28 0.35 0.28 0.36 0.29 0.35 0.29 0.35 0.3 0.34 0.32 0.35 0.31 0.34 0.33 0.34 -0.24 0.23 -0.33 -0.34 -0.33 -0.35 -0.31 -0.34 -0.3 -0.35 -0.3 -0.36 -0.29 -0.35 -0.29 -0.36 -0.27 -0.36 -0.27 -0.36 -0.26 -0.36 -0.26 -0.37 -0.24 -0.37 -0.24 -0.37 -0.22 -0.38 -0.22 -0.37 -0.21 -0.39 -0.21 -0.38 -0.19 -0.39 -0.19 -0.38 -0.18 -0.39 -0.17 -0.4 -0.16 -0.4 -0.15 -0.4 -0.14 -0.4 -0.14 -0.4 -0.12 -0.41 -0.12 -0.42 -0.11 -0.41 -0.1 -0.42 -0.08 -0.42 -0.08 -0.43 -0.08 -0.42 0 0zm2.93 -15.29l0.3 0.16 0 -0.01 -0.25 0.53 -0.24 0.52 -0.23 0.52 -0.22 0.52 -0.2 0.51 -0.2 0.51 -0.18 0.5 -0.18 0.5 -0.17 0.5 -0.15 0.49 -0.14 0.49 -0.14 0.49 -0.12 0.48 -0.11 0.48 -0.11 0.47 -0.09 0.47 -0.08 0.47 -0.07 0.47 -0.07 0.46 -0.05 0.46 -0.04 0.45 -0.04 0.45 -0.02 0.45 -0.02 0.45 0 0.44 0 0.44 0.02 0.43 0.02 0.44 0.04 0.42 0.04 0.43 0.05 0.42 0.06 0.43 -0.34 0.05 -0.06 -0.43 -0.05 -0.43 -0.04 -0.44 -0.04 -0.43 -0.02 -0.44 -0.01 -0.45 -0.01 -0.44 0.01 -0.45 0.01 -0.45 0.02 -0.46 0.04 -0.46 0.04 -0.46 0.06 -0.46 0.06 -0.47 0.08 -0.47 0.08 -0.48 0.09 -0.48 0.11 -0.48 0.11 -0.48 0.13 -0.49 0.13 -0.49 0.15 -0.5 0.15 -0.5 0.17 -0.5 0.18 -0.51 0.18 -0.5 0.2 -0.52 0.21 -0.51 0.22 -0.52 0.23 -0.53 0.24 -0.53 0.26 -0.53 0 0zm0 0l0 0 0 -0.01 0 0.01zm0.33 0.09l-0.03 0.07 -0.3 -0.16 0.03 -0.07 0.01 -0.01 0.29 0.17zm-0.3 -0.16l0.01 -0.01 -0.01 0.03 0 -0.02zm5.48 -5.21l0.11 0.32 0 0 -0.19 0.07 -0.18 0.07 -0.19 0.08 -0.18 0.09 -0.18 0.09 -0.18 0.1 -0.18 0.1 -0.18 0.11 -0.18 0.12 -0.17 0.12 -0.17 0.12 -0.18 0.14 -0.17 0.14 -0.17 0.14 -0.16 0.15 -0.17 0.16 -0.16 0.16 -0.17 0.16 -0.16 0.18 -0.16 0.18 -0.16 0.18 -0.15 0.19 -0.16 0.2 -0.16 0.2 -0.15 0.2 -0.15 0.21 -0.15 0.22 -0.15 0.22 -0.15 0.23 -0.14 0.24 -0.15 0.24 -0.14 0.24 -0.29 -0.17 0.14 -0.25 0.15 -0.24 0.15 -0.24 0.15 -0.23 0.15 -0.23 0.15 -0.22 0.16 -0.22 0.16 -0.21 0.15 -0.2 0.16 -0.2 0.17 -0.2 0.16 -0.19 0.16 -0.18 0.17 -0.18 0.17 -0.17 0.17 -0.17 0.17 -0.16 0.17 -0.16 0.18 -0.14 0.17 -0.15 0.18 -0.14 0.18 -0.13 0.18 -0.13 0.19 -0.12 0.18 -0.11 0.19 -0.11 0.19 -0.1 0.19 -0.1 0.19 -0.09 0.2 -0.08 0.19 -0.08 0.2 -0.07 0 0zm7.18 1.22l-0.18 0.29 0 0 -0.24 -0.15 -0.23 -0.13 -0.24 -0.13 -0.23 -0.12 -0.23 -0.12 -0.23 -0.11 -0.23 -0.1 -0.23 -0.09 -0.22 -0.09 -0.22 -0.08 -0.23 -0.07 -0.22 -0.07 -0.22 -0.06 -0.22 -0.05 -0.21 -0.05 -0.22 -0.04 -0.21 -0.03 -0.22 -0.02 -0.21 -0.02 -0.21 -0.02 -0.2 0 -0.21 0 -0.21 0 -0.2 0.02 -0.21 0.02 -0.2 0.02 -0.2 0.04 -0.2 0.04 -0.2 0.04 -0.2 0.05 -0.19 0.06 -0.2 0.07 -0.11 -0.32 0.21 -0.07 0.2 -0.06 0.21 -0.06 0.21 -0.05 0.21 -0.04 0.21 -0.03 0.22 -0.03 0.21 -0.02 0.22 -0.01 0.21 -0.01 0.22 0 0.22 0.01 0.22 0.01 0.22 0.02 0.22 0.03 0.23 0.03 0.22 0.04 0.23 0.05 0.23 0.05 0.22 0.07 0.23 0.07 0.23 0.07 0.24 0.08 0.23 0.09 0.23 0.1 0.24 0.11 0.24 0.11 0.23 0.11 0.24 0.13 0.25 0.13 0.24 0.14 0.24 0.15 0 0zm-0.18 0.29l0 0 0 0 0 0zm0.22 0l0.28 0.19 -0.27 0.01 0 -0.01 -0.01 -0.01 0 0 -0.01 -0.01 -0.01 -0.01 0 0 -0.01 -0.01 -0.01 -0.01 0 0 -0.01 -0.01 -0.01 -0.01 -0.01 -0.01 0 0 -0.01 0 -0.01 -0.01 -0.01 -0.01 0 -0.01 -0.01 0 -0.01 -0.01 -0.01 -0.01 0 0 0 0 -0.01 -0.01 -0.01 -0.01 -0.01 -0.01 -0.01 0 -0.01 0 -0.01 -0.01 -0.01 -0.01 0 0 -0.01 0 -0.01 -0.01 0.18 -0.29 0.01 0 0.01 0.01 0.02 0.01 0 0.01 0.01 0.01 0.01 0 0.02 0.01 0.01 0.01 0 0 0.02 0.01 0.01 0.01 0.01 0.02 0.01 0 0.01 0.01 0.01 0.01 0.01 0.01 0.01 0 0.01 0.01 0.01 0.01 0.01 0.01 0.01 0.01 0 0 0.01 0.02 0.02 0.01 0 0.01 0.01 0.01 0.01 0.01 0.01 0 0.01 0.01 0.01 0.02 0 0 0.01 0.01 -0.27 0.02zm0.28 0.19l-0.12 0.18 -0.15 -0.17 0.27 -0.01zm0.15 -0.23l-0.15 0.23 -0.28 -0.19 0.16 -0.23 0 0 0.27 0.19zm0.49 -0.33l-0.18 0.28 -0.01 0 0 -0.01 -0.02 0 0 -0.01 -0.01 0 -0.01 -0.01 -0.02 0 -0.01 0 0 0 -0.02 -0.01 0 0 -0.02 0 0 0 -0.01 0 -0.01 0 -0.02 0 -0.01 0.01 -0.01 0 -0.01 0 -0.01 0 -0.01 0.01 -0.01 0 0 0 -0.01 0.01 -0.02 0.01 0 0 -0.01 0.01 -0.01 0.01 -0.01 0 0 0.01 -0.01 0.01 -0.01 0.01 -0.01 0 -0.27 -0.19 0.01 -0.02 0.02 -0.02 0.02 -0.02 0.02 -0.02 0.02 -0.02 0.02 -0.02 0.02 -0.02 0.03 -0.01 0.01 -0.01 0.03 -0.01 0.02 -0.02 0.03 -0.01 0.02 -0.01 0.03 0 0.03 -0.01 0.02 -0.01 0.03 0 0.02 0 0.03 -0.01 0.03 0 0.02 0 0.03 0.01 0.03 0 0.02 0 0.03 0.01 0.03 0.01 0.02 0.01 0.03 0.01 0.02 0.01 0.03 0.01 0.02 0.01 0.02 0.02 0 0zm-0.12 0.32l-0.06 -0.04 0.18 -0.28 0.07 0.04 0 0 -0.19 0.28zm0.33 0.49l-0.28 -0.19 0 0 0.01 -0.01 0 -0.01 0.01 -0.01 0 0 0.01 -0.02 0 -0.01 0 -0.01 0 -0.01 0.01 -0.01 0 -0.01 0 -0.01 0 -0.01 0 -0.01 0 -0.01 0 -0.01 0 -0.01 -0.01 -0.01 0 -0.01 0 -0.01 -0.01 -0.01 0 -0.01 0 -0.01 -0.01 -0.01 -0.01 -0.01 0 -0.01 -0.01 0 0 -0.01 -0.01 -0.01 -0.01 -0.01 -0.01 0 0 -0.01 -0.01 -0.01 0.19 -0.28 0.02 0.02 0.02 0.02 0.02 0.02 0.02 0.02 0.02 0.02 0.02 0.01 0.02 0.03 0.01 0.03 0.01 0.01 0.02 0.02 0.01 0.03 0.01 0.03 0.01 0.02 0.01 0.02 0 0.03 0.01 0.03 0 0.03 0.01 0.02 0 0.02 0 0.03 0 0.03 0 0.02 -0.01 0.04 0 0.02 -0.01 0.03 -0.01 0.03 0 0.02 -0.01 0.02 -0.01 0.03 -0.02 0.03 -0.01 0.02 -0.02 0.02 0 0zm-1.78 2.01l1.5 -2.2 0.28 0.19 -1.5 2.2 0 0 -0.28 -0.19zm-0.49 0.33l0.19 -0.28 0 0 0.01 0.01 0.01 0.01 0.01 0 0 0 0.02 0.01 0.01 0 0.01 0 0 0.01 0.02 0 0 0 0.02 0 0.01 0 0 0 0.02 0 0.01 0 0.01 0 0.01 -0.01 0.01 0 0.01 0 0.01 -0.01 0.01 0 0 0 0.02 -0.01 0.01 -0.01 0 0 0.01 0 0.01 -0.01 0.01 -0.01 0 -0.01 0.01 0 0.01 -0.01 0.01 -0.01 0.28 0.19 -0.02 0.02 -0.02 0.02 -0.02 0.02 -0.01 0.02 -0.03 0.03 -0.02 0.01 -0.02 0.02 -0.03 0.01 -0.02 0.01 -0.02 0.02 -0.02 0.01 -0.03 0.01 -0.02 0.01 -0.03 0.01 -0.02 0 -0.03 0.01 -0.03 0 -0.02 0.01 -0.02 0 -0.03 0 -0.03 0 -0.03 0 -0.03 -0.01 -0.02 0 -0.03 -0.01 -0.03 -0.01 -0.02 0 -0.02 -0.01 -0.03 -0.01 -0.03 -0.02 -0.02 -0.01 -0.02 -0.02 0 0zm0.13 -0.32l0.06 0.04 -0.19 0.28 -0.07 -0.04 0.2 -0.28 0 0zm-0.34 -0.49l0.28 0.19 0 0 -0.01 0.01 0 0.01 -0.01 0.01 0 0.01 -0.01 0.01 0 0.01 0 0.01 0 0.01 -0.01 0.01 0 0.01 0 0.01 0 0.01 0 0.01 0 0.01 0 0.01 0.01 0.02 0 0 0 0.01 0 0.01 0 0.01 0.01 0.01 0.01 0.01 0 0.01 0.01 0.01 0 0 0.01 0.01 0.01 0.02 0 0 0.01 0.01 0.01 0.01 0.01 0 0.01 0.01 -0.2 0.28 -0.02 -0.02 -0.02 -0.01 -0.02 -0.02 -0.02 -0.02 -0.02 -0.03 -0.02 -0.01 -0.01 -0.02 -0.02 -0.03 -0.01 -0.02 -0.02 -0.03 -0.01 -0.02 -0.01 -0.02 -0.01 -0.03 0 -0.02 -0.01 -0.03 -0.01 -0.03 0 -0.02 0 -0.03 -0.01 -0.02 0 -0.03 0 -0.03 0.01 -0.02 0 -0.03 0 -0.03 0.01 -0.03 0.01 -0.02 0.01 -0.03 0.01 -0.02 0.01 -0.03 0.01 -0.02 0.01 -0.03 0.02 -0.02 0 0z"/>
  </g>
  <g>
   <path class="fil3" d="M18.89 33.97l0.47 2.67c-1.13,3.26 -3.74,6.16 -7.59,5.42 -3.58,-1.17 -4.37,-4.09 -4.29,-8.04l1.92 -2.53c2.78,-1.35 8.21,-0.18 9.49,2.48z"/>
   <path id="1" class="fil1" d="M19.2 36.67l-0.48 -2.67 0.34 -0.06 0.47 2.67 -0.01 0.09 -0.32 -0.03zm0.33 -0.06l0.01 0.05 -0.02 0.04 0.01 -0.09zm-7.82 5.61l0.11 -0.32 -0.02 0 0.35 0.05 0.34 0.04 0.33 0.02 0.33 0 0.32 -0.03 0.31 -0.03 0.3 -0.06 0.3 -0.07 0.29 -0.09 0.28 -0.1 0.27 -0.12 0.27 -0.13 0.25 -0.15 0.26 -0.16 0.24 -0.17 0.24 -0.18 0.23 -0.2 0.22 -0.21 0.21 -0.21 0.21 -0.23 0.2 -0.24 0.19 -0.24 0.18 -0.26 0.18 -0.26 0.16 -0.27 0.16 -0.27 0.15 -0.28 0.15 -0.28 0.13 -0.29 0.13 -0.3 0.11 -0.29 0.11 -0.3 0.32 0.11 -0.11 0.31 -0.12 0.3 -0.13 0.3 -0.14 0.3 -0.15 0.3 -0.15 0.29 -0.17 0.28 -0.17 0.28 -0.18 0.27 -0.19 0.26 -0.2 0.26 -0.21 0.24 -0.21 0.24 -0.22 0.23 -0.24 0.21 -0.24 0.21 -0.25 0.19 -0.25 0.18 -0.27 0.17 -0.28 0.16 -0.28 0.14 -0.29 0.12 -0.3 0.11 -0.3 0.1 -0.32 0.07 -0.32 0.06 -0.33 0.04 -0.34 0.02 -0.35 0.01 -0.35 -0.02 -0.36 -0.04 -0.37 -0.06 -0.02 -0.01zm0.02 0.01l0 0 -0.02 -0.01 0.02 0.01zm-4.39 -8.32l0.27 0.21 0.04 -0.1 -0.01 0.37 0 0.35 0.01 0.36 0.01 0.34 0.02 0.34 0.03 0.33 0.03 0.33 0.04 0.31 0.05 0.31 0.05 0.31 0.07 0.29 0.07 0.29 0.08 0.28 0.09 0.27 0.11 0.26 0.11 0.25 0.12 0.25 0.13 0.24 0.14 0.22 0.15 0.23 0.17 0.21 0.17 0.2 0.19 0.19 0.21 0.19 0.21 0.18 0.23 0.17 0.24 0.15 0.26 0.15 0.28 0.15 0.28 0.13 0.31 0.12 0.32 0.11 -0.11 0.32 -0.33 -0.11 -0.32 -0.13 -0.3 -0.14 -0.29 -0.15 -0.27 -0.16 -0.26 -0.17 -0.25 -0.18 -0.23 -0.18 -0.21 -0.2 -0.2 -0.21 -0.19 -0.22 -0.18 -0.22 -0.16 -0.24 -0.16 -0.24 -0.13 -0.26 -0.13 -0.25 -0.12 -0.27 -0.1 -0.28 -0.1 -0.28 -0.08 -0.29 -0.08 -0.3 -0.07 -0.31 -0.05 -0.31 -0.05 -0.32 -0.04 -0.33 -0.04 -0.33 -0.02 -0.34 -0.02 -0.34 -0.02 -0.35 0 -0.36 0 -0.37 0 -0.37 0.03 -0.1zm-0.03 0.1l0 -0.05 0.03 -0.05 -0.03 0.1zm2.22 -2.42l-1.92 2.53 -0.27 -0.21 1.92 -2.52 0.07 -0.05 0.2 0.25zm-0.27 -0.2l0.03 -0.03 0.04 -0.02 -0.07 0.05zm9.8 2.55l-0.34 0.06 0.02 0.05 -0.13 -0.23 -0.14 -0.23 -0.17 -0.21 -0.19 -0.21 -0.21 -0.21 -0.23 -0.19 -0.24 -0.18 -0.26 -0.17 -0.28 -0.17 -0.29 -0.15 -0.29 -0.15 -0.32 -0.13 -0.32 -0.12 -0.33 -0.12 -0.33 -0.1 -0.34 -0.09 -0.35 -0.08 -0.35 -0.06 -0.35 -0.06 -0.35 -0.04 -0.35 -0.03 -0.35 -0.02 -0.35 -0.01 -0.34 0.01 -0.33 0.02 -0.33 0.04 -0.32 0.04 -0.31 0.06 -0.3 0.08 -0.28 0.09 -0.28 0.1 -0.26 0.11 -0.14 -0.3 0.27 -0.13 0.3 -0.1 0.3 -0.1 0.32 -0.08 0.32 -0.06 0.34 -0.05 0.34 -0.03 0.35 -0.02 0.35 -0.01 0.36 0 0.36 0.02 0.37 0.03 0.36 0.05 0.36 0.05 0.36 0.07 0.36 0.08 0.35 0.1 0.35 0.1 0.34 0.12 0.33 0.12 0.33 0.15 0.31 0.15 0.3 0.16 0.29 0.17 0.27 0.18 0.26 0.2 0.25 0.2 0.22 0.22 0.21 0.23 0.18 0.23 0.16 0.25 0.14 0.26 0.02 0.04zm-0.02 -0.04l0.01 0.02 0.01 0.02 -0.02 -0.04z"/>
  </g>
  <path class="fil1" d="M11.54 44.05c-0.2,0.97 -0.33,1.92 -0.39,2.83 -0.35,4.65 0.92,8.48 3.18,11.32 2.27,2.85 5.52,4.73 9.12,5.46 0.7,0.14 1.43,0.24 2.16,0.3 4.22,0.31 8.62,-1.06 12.71,-3.85 4.06,-2.76 7.79,-6.92 10.74,-12.21l0.87 0.48c-3.02,5.44 -6.87,9.71 -11.05,12.56 -4.27,2.92 -8.9,4.35 -13.35,4.01 -0.76,-0.05 -1.53,-0.16 -2.28,-0.31 -3.83,-0.78 -7.28,-2.78 -9.7,-5.82 -2.41,-3.03 -3.77,-7.1 -3.4,-12.01 0.07,-0.95 0.21,-1.94 0.41,-2.96l0.98 0.2z"/>
  <g>
   <polygon class="fil0" points="10.81,41.75 12.24,42.03 11.68,44.86 10.26,44.58 "/>
   <path id="1" class="fil1" d="M12.2 42.2l-1.42 -0.28 0.07 -0.34 1.42 0.28 0.13 0.2 -0.2 0.14zm0.07 -0.34l0.17 0.04 -0.04 0.16 -0.13 -0.2zm-0.76 2.97l0.56 -2.83 0.33 0.06 -0.55 2.83 -0.2 0.14 -0.14 -0.2zm0.34 0.06l-0.04 0.17 -0.16 -0.03 0.2 -0.14zm-1.56 -0.48l1.42 0.28 -0.06 0.34 -1.42 -0.28 -0.14 -0.2 0.2 -0.14zm-0.06 0.34l-0.17 -0.04 0.03 -0.16 0.14 0.2zm0.75 -2.97l-0.56 2.83 -0.33 -0.06 0.56 -2.83 0.2 -0.14 0.13 0.2zm-0.33 -0.06l0.03 -0.17 0.17 0.03 -0.2 0.14z"/>
  </g>
  <g>
   <path class="fil2" d="M57.34 29.89c3.73,0.57 6.3,4 5.74,7.64 -0.56,3.65 -4.04,6.15 -7.77,5.57 -3.73,-0.57 -6.29,-3.99 -5.73,-7.64 0.56,-3.65 4.03,-6.14 7.76,-5.57z"/>
   <path id="1" class="fil1" d="M63.24 37.56l-0.33 -0.05 0 0 0.04 -0.33 0.03 -0.33 0 -0.33 -0.01 -0.33 -0.02 -0.32 -0.04 -0.32 -0.06 -0.32 -0.07 -0.31 -0.09 -0.3 -0.1 -0.3 -0.12 -0.29 -0.13 -0.29 -0.15 -0.28 -0.15 -0.28 -0.18 -0.26 -0.18 -0.26 -0.19 -0.25 -0.21 -0.24 -0.22 -0.23 -0.23 -0.22 -0.24 -0.2 -0.26 -0.2 -0.26 -0.19 -0.27 -0.17 -0.28 -0.16 -0.29 -0.15 -0.3 -0.14 -0.31 -0.12 -0.31 -0.1 -0.33 -0.09 -0.33 -0.08 -0.33 -0.06 0.05 -0.34 0.35 0.07 0.35 0.08 0.34 0.09 0.33 0.12 0.32 0.12 0.32 0.14 0.3 0.16 0.3 0.17 0.28 0.18 0.28 0.2 0.26 0.2 0.25 0.22 0.25 0.24 0.23 0.24 0.22 0.25 0.2 0.26 0.19 0.27 0.18 0.28 0.17 0.29 0.15 0.29 0.14 0.3 0.12 0.31 0.11 0.32 0.1 0.32 0.07 0.33 0.06 0.33 0.04 0.33 0.03 0.34 0.01 0.35 -0.01 0.34 -0.02 0.35 -0.05 0.35 0 0zm-7.96 5.71l0.06 -0.34 0 0 0.34 0.05 0.34 0.03 0.33 0 0.33 0 0.33 -0.03 0.33 -0.03 0.32 -0.06 0.32 -0.07 0.31 -0.08 0.31 -0.1 0.29 -0.11 0.3 -0.13 0.28 -0.14 0.28 -0.15 0.27 -0.17 0.26 -0.18 0.25 -0.19 0.25 -0.2 0.23 -0.21 0.22 -0.23 0.21 -0.23 0.2 -0.25 0.19 -0.25 0.18 -0.27 0.16 -0.27 0.15 -0.28 0.14 -0.29 0.12 -0.3 0.1 -0.31 0.09 -0.32 0.08 -0.32 0.06 -0.33 0.33 0.05 -0.06 0.35 -0.08 0.34 -0.1 0.33 -0.11 0.32 -0.13 0.32 -0.14 0.31 -0.16 0.3 -0.17 0.28 -0.18 0.28 -0.2 0.27 -0.21 0.26 -0.22 0.25 -0.24 0.23 -0.24 0.23 -0.25 0.21 -0.27 0.2 -0.27 0.19 -0.29 0.17 -0.29 0.16 -0.3 0.15 -0.31 0.13 -0.31 0.12 -0.32 0.1 -0.33 0.09 -0.34 0.08 -0.33 0.05 -0.35 0.04 -0.34 0.03 -0.35 0 -0.35 -0.01 -0.36 -0.02 -0.36 -0.05 0 0zm-5.87 -7.84l0.33 0.06 0 0 -0.04 0.33 -0.02 0.33 -0.01 0.33 0.01 0.32 0.02 0.32 0.05 0.32 0.05 0.32 0.08 0.31 0.08 0.3 0.11 0.3 0.11 0.3 0.13 0.29 0.15 0.28 0.16 0.27 0.17 0.27 0.18 0.25 0.2 0.25 0.2 0.24 0.22 0.23 0.23 0.22 0.24 0.21 0.26 0.19 0.26 0.19 0.27 0.17 0.28 0.17 0.29 0.14 0.3 0.14 0.31 0.12 0.31 0.11 0.33 0.09 0.33 0.08 0.34 0.05 -0.06 0.34 -0.35 -0.06 -0.35 -0.08 -0.33 -0.1 -0.34 -0.11 -0.32 -0.13 -0.31 -0.14 -0.31 -0.16 -0.29 -0.16 -0.29 -0.19 -0.28 -0.19 -0.26 -0.21 -0.25 -0.22 -0.24 -0.23 -0.24 -0.24 -0.21 -0.25 -0.21 -0.26 -0.19 -0.27 -0.18 -0.28 -0.17 -0.29 -0.15 -0.3 -0.14 -0.3 -0.12 -0.31 -0.11 -0.31 -0.09 -0.33 -0.08 -0.32 -0.06 -0.33 -0.04 -0.34 -0.03 -0.34 -0.01 -0.34 0.01 -0.35 0.02 -0.35 0.05 -0.35 0 0zm7.96 -5.71l-0.05 0.34 0 0 -0.35 -0.04 -0.33 -0.03 -0.34 -0.01 -0.33 0.01 -0.33 0.02 -0.33 0.04 -0.32 0.05 -0.32 0.07 -0.31 0.09 -0.3 0.09 -0.3 0.12 -0.3 0.12 -0.28 0.14 -0.28 0.16 -0.27 0.16 -0.26 0.18 -0.25 0.19 -0.25 0.2 -0.23 0.22 -0.22 0.22 -0.21 0.23 -0.2 0.25 -0.19 0.25 -0.17 0.27 -0.17 0.27 -0.15 0.29 -0.13 0.29 -0.13 0.3 -0.1 0.31 -0.09 0.31 -0.08 0.32 -0.06 0.34 -0.33 -0.06 0.06 -0.34 0.08 -0.34 0.1 -0.33 0.11 -0.33 0.13 -0.32 0.14 -0.3 0.16 -0.3 0.17 -0.29 0.18 -0.28 0.2 -0.27 0.21 -0.25 0.22 -0.25 0.24 -0.24 0.24 -0.22 0.26 -0.21 0.26 -0.2 0.28 -0.19 0.28 -0.18 0.29 -0.16 0.3 -0.14 0.31 -0.14 0.32 -0.12 0.32 -0.1 0.32 -0.09 0.34 -0.07 0.33 -0.06 0.35 -0.04 0.34 -0.02 0.35 -0.01 0.35 0.01 0.36 0.03 0.36 0.04 0 0z"/>
  </g>
  <g>
   <path class="fil3" d="M57.25 31.83c2.55,0.39 4.31,2.73 3.93,5.23 -0.38,2.5 -2.77,4.21 -5.32,3.82 -2.55,-0.4 -4.31,-2.74 -3.93,-5.24 0.39,-2.5 2.77,-4.2 5.32,-3.81z"/>
   <path id="1" class="fil1" d="M61.35 37.09l-0.34 -0.05 0 0 0.03 -0.23 0.02 -0.22 0 -0.22 0 -0.22 -0.02 -0.22 -0.03 -0.22 -0.04 -0.21 -0.05 -0.21 -0.06 -0.21 -0.07 -0.2 -0.08 -0.2 -0.08 -0.19 -0.1 -0.19 -0.11 -0.19 -0.11 -0.18 -0.13 -0.17 -0.13 -0.17 -0.14 -0.16 -0.15 -0.16 -0.16 -0.15 -0.16 -0.14 -0.17 -0.13 -0.18 -0.13 -0.18 -0.12 -0.19 -0.11 -0.2 -0.1 -0.2 -0.09 -0.21 -0.08 -0.21 -0.07 -0.22 -0.06 -0.23 -0.05 -0.22 -0.05 0.05 -0.33 0.24 0.04 0.24 0.06 0.24 0.07 0.23 0.07 0.22 0.09 0.22 0.1 0.21 0.11 0.2 0.11 0.2 0.13 0.19 0.14 0.19 0.14 0.17 0.15 0.17 0.16 0.16 0.17 0.15 0.17 0.14 0.18 0.14 0.19 0.12 0.19 0.12 0.2 0.1 0.21 0.1 0.21 0.08 0.21 0.08 0.22 0.06 0.22 0.05 0.23 0.05 0.23 0.03 0.23 0.01 0.24 0.01 0.24 0 0.23 -0.02 0.24 -0.03 0.25 0 0zm-5.52 3.95l0.06 -0.33 0 0 0.23 0.03 0.23 0.02 0.22 0 0.23 0 0.22 -0.02 0.22 -0.02 0.22 -0.04 0.21 -0.05 0.21 -0.05 0.21 -0.07 0.2 -0.08 0.2 -0.08 0.2 -0.1 0.19 -0.1 0.18 -0.11 0.18 -0.12 0.17 -0.13 0.16 -0.14 0.16 -0.14 0.15 -0.16 0.14 -0.15 0.14 -0.17 0.12 -0.17 0.12 -0.18 0.11 -0.19 0.1 -0.19 0.1 -0.2 0.08 -0.2 0.07 -0.21 0.06 -0.21 0.05 -0.22 0.04 -0.22 0.34 0.05 -0.05 0.24 -0.05 0.23 -0.07 0.23 -0.08 0.23 -0.08 0.22 -0.1 0.21 -0.11 0.21 -0.12 0.2 -0.13 0.19 -0.14 0.19 -0.14 0.18 -0.16 0.17 -0.16 0.16 -0.17 0.16 -0.17 0.14 -0.19 0.14 -0.19 0.13 -0.19 0.12 -0.21 0.11 -0.21 0.11 -0.21 0.09 -0.22 0.08 -0.22 0.07 -0.23 0.06 -0.23 0.05 -0.23 0.04 -0.24 0.03 -0.24 0.02 -0.24 0 -0.24 -0.01 -0.25 -0.02 -0.25 -0.03 0 0zm-4.07 -5.42l0.34 0.05 0 0 -0.03 0.22 -0.02 0.23 0 0.22 0 0.22 0.02 0.22 0.03 0.21 0.04 0.22 0.05 0.21 0.06 0.2 0.07 0.21 0.08 0.19 0.08 0.2 0.1 0.19 0.11 0.18 0.12 0.18 0.12 0.18 0.13 0.17 0.14 0.16 0.15 0.15 0.16 0.15 0.16 0.14 0.17 0.14 0.18 0.12 0.18 0.12 0.19 0.11 0.2 0.1 0.2 0.09 0.21 0.08 0.21 0.07 0.22 0.07 0.23 0.05 0.23 0.04 -0.06 0.33 -0.24 -0.04 -0.24 -0.06 -0.24 -0.06 -0.23 -0.08 -0.22 -0.09 -0.22 -0.1 -0.21 -0.1 -0.2 -0.12 -0.2 -0.13 -0.19 -0.13 -0.18 -0.15 -0.18 -0.15 -0.17 -0.16 -0.16 -0.16 -0.15 -0.18 -0.14 -0.18 -0.14 -0.19 -0.12 -0.19 -0.11 -0.2 -0.11 -0.2 -0.09 -0.21 -0.09 -0.22 -0.08 -0.22 -0.06 -0.22 -0.05 -0.23 -0.05 -0.23 -0.02 -0.23 -0.02 -0.23 -0.01 -0.24 0.01 -0.24 0.01 -0.24 0.03 -0.24 0 0zm5.52 -3.96l-0.05 0.33 0 0 -0.23 -0.03 -0.23 -0.01 -0.23 -0.01 -0.23 0.01 -0.22 0.01 -0.22 0.03 -0.22 0.03 -0.21 0.05 -0.21 0.06 -0.21 0.06 -0.2 0.08 -0.2 0.09 -0.2 0.09 -0.18 0.1 -0.19 0.12 -0.17 0.12 -0.17 0.13 -0.17 0.13 -0.16 0.15 -0.15 0.15 -0.14 0.16 -0.13 0.16 -0.13 0.18 -0.12 0.18 -0.11 0.18 -0.1 0.19 -0.09 0.2 -0.09 0.2 -0.07 0.21 -0.06 0.21 -0.05 0.22 -0.04 0.23 -0.34 -0.05 0.05 -0.24 0.05 -0.24 0.07 -0.23 0.08 -0.23 0.09 -0.22 0.09 -0.21 0.11 -0.2 0.12 -0.2 0.13 -0.2 0.14 -0.18 0.14 -0.18 0.16 -0.17 0.16 -0.17 0.17 -0.15 0.18 -0.15 0.18 -0.14 0.19 -0.13 0.2 -0.12 0.2 -0.11 0.21 -0.1 0.21 -0.09 0.22 -0.08 0.22 -0.08 0.23 -0.06 0.23 -0.05 0.23 -0.04 0.24 -0.03 0.24 -0.01 0.24 -0.01 0.24 0.01 0.25 0.02 0.25 0.03 0 0z"/>
  </g>
  <polygon class="fil4" points="12.82,33.82 14.13,34.02 13.86,35.75 15.42,35.99 15.26,37.02 13.71,36.78 13.44,38.51 12.13,38.31 12.4,36.58 10.77,36.33 10.93,35.3 12.55,35.55 "/>
  <g>
   <path class="fil0" d="M27.31 4.88c-0.95,-0.39 -2.05,0.05 -2.44,1 -0.4,0.95 0.06,2.04 1.01,2.44 0.96,0.4 2.05,-0.05 2.45,-1 0.39,-0.95 -0.06,-2.04 -1.02,-2.44z"/>
   <path id="1" class="fil1" d="M24.71 5.81l0 0 0.04 -0.09 0.05 -0.09 0.05 -0.09 0.06 -0.09 0.05 -0.08 0.07 -0.08 0.06 -0.07 0.07 -0.07 0.07 -0.07 0.08 -0.06 0.08 -0.06 0.08 -0.06 0.08 -0.05 0.09 -0.05 0.09 -0.04 0.08 -0.04 0.1 -0.03 0.09 -0.03 0.09 -0.03 0.1 -0.02 0.1 -0.02 0.09 -0.01 0.1 -0.01 0.1 0 0.1 0 0.1 0.01 0.1 0.01 0.1 0.02 0.1 0.02 0.1 0.03 0.1 0.03 0.1 0.04 -0.13 0.31 -0.08 -0.03 -0.09 -0.03 -0.08 -0.02 -0.08 -0.02 -0.09 -0.01 -0.08 -0.01 -0.08 -0.01 -0.09 0 -0.08 0 -0.08 0.01 -0.08 0.01 -0.08 0.01 -0.08 0.02 -0.08 0.02 -0.08 0.02 -0.08 0.03 -0.07 0.04 -0.07 0.03 -0.08 0.04 -0.06 0.05 -0.07 0.04 -0.07 0.05 -0.06 0.05 -0.06 0.06 -0.06 0.06 -0.05 0.06 -0.05 0.07 -0.05 0.06 -0.05 0.08 -0.04 0.07 -0.04 0.07 -0.04 0.08 0 0 -0.31 -0.13zm1.11 2.66l0 0 -0.1 -0.04 -0.09 -0.05 -0.09 -0.05 -0.09 -0.05 -0.08 -0.06 -0.08 -0.06 -0.07 -0.07 -0.08 -0.07 -0.06 -0.07 -0.07 -0.08 -0.06 -0.07 -0.05 -0.08 -0.06 -0.09 -0.05 -0.08 -0.04 -0.09 -0.04 -0.09 -0.03 -0.09 -0.04 -0.09 -0.02 -0.1 -0.02 -0.09 -0.02 -0.1 -0.01 -0.1 -0.01 -0.09 -0.01 -0.1 0 -0.1 0.01 -0.1 0.01 -0.1 0.02 -0.1 0.02 -0.1 0.03 -0.1 0.03 -0.1 0.04 -0.1 0.31 0.13 -0.03 0.09 -0.02 0.08 -0.03 0.08 -0.02 0.08 -0.01 0.09 -0.01 0.08 0 0.08 -0.01 0.08 0.01 0.09 0 0.08 0.01 0.08 0.02 0.08 0.02 0.08 0.02 0.08 0.02 0.07 0.03 0.08 0.04 0.08 0.03 0.07 0.04 0.07 0.05 0.07 0.04 0.07 0.05 0.06 0.06 0.06 0.06 0.06 0.06 0.06 0.06 0.06 0.06 0.05 0.07 0.05 0.08 0.04 0.07 0.05 0.08 0.04 0.08 0.03 0 0 -0.13 0.31zm2.67 -1.08l0 0 -0.05 0.09 -0.04 0.09 -0.05 0.09 -0.06 0.09 -0.06 0.08 -0.06 0.08 -0.07 0.08 -0.07 0.07 -0.07 0.06 -0.07 0.07 -0.08 0.06 -0.08 0.05 -0.09 0.05 -0.08 0.05 -0.09 0.04 -0.09 0.04 -0.09 0.04 -0.09 0.03 -0.1 0.02 -0.09 0.03 -0.1 0.01 -0.1 0.01 -0.1 0.01 -0.1 0 -0.1 0 -0.1 -0.01 -0.1 -0.01 -0.1 -0.01 -0.1 -0.03 -0.1 -0.02 -0.09 -0.04 -0.1 -0.04 0.13 -0.31 0.08 0.03 0.08 0.03 0.08 0.02 0.09 0.02 0.08 0.02 0.08 0.01 0.09 0 0.08 0.01 0.09 -0.01 0.08 0 0.08 -0.01 0.08 -0.02 0.08 -0.01 0.08 -0.03 0.08 -0.02 0.07 -0.03 0.08 -0.03 0.07 -0.04 0.07 -0.04 0.07 -0.04 0.07 -0.05 0.06 -0.05 0.06 -0.05 0.07 -0.06 0.05 -0.06 0.06 -0.06 0.05 -0.06 0.05 -0.07 0.04 -0.07 0.05 -0.08 0.04 -0.07 0.03 -0.08 0 0 0.32 0.13zm-1.11 -2.66l0 0 0.09 0.04 0.1 0.05 0.09 0.05 0.08 0.06 0.08 0.05 0.08 0.07 0.08 0.06 0.07 0.07 0.07 0.07 0.06 0.08 0.06 0.08 0.06 0.08 0.05 0.08 0.05 0.09 0.05 0.08 0.03 0.09 0.04 0.09 0.03 0.1 0.03 0.09 0.02 0.1 0.02 0.09 0.01 0.1 0.01 0.1 0 0.1 0 0.1 -0.01 0.1 -0.01 0.09 -0.02 0.11 -0.02 0.1 -0.02 0.09 -0.04 0.1 -0.03 0.1 -0.32 -0.13 0.03 -0.08 0.03 -0.09 0.02 -0.08 0.02 -0.08 0.01 -0.08 0.01 -0.09 0.01 -0.08 0 -0.08 0 -0.08 -0.01 -0.09 -0.01 -0.08 -0.01 -0.08 -0.02 -0.08 -0.02 -0.07 -0.03 -0.08 -0.03 -0.08 -0.03 -0.07 -0.04 -0.08 -0.04 -0.07 -0.04 -0.07 -0.05 -0.06 -0.05 -0.07 -0.05 -0.06 -0.06 -0.06 -0.06 -0.06 -0.06 -0.05 -0.07 -0.06 -0.07 -0.05 -0.07 -0.04 -0.08 -0.04 -0.07 -0.04 -0.08 -0.04 0 0 0.13 -0.31z"/>
  </g>
  <g>
   <path class="fil2" d="M28.95 7.72l-0.01 -0.22c0.08,0.01 0.16,0.02 0.25,0.02 2.29,-0.01 3.9,0.61 4.89,1.82 1.02,1.24 1.47,3.14 1.41,5.64 -0.56,5.76 -2.25,10.07 -4.9,13.21 -2.64,3.13 -6.27,5.13 -10.72,6.27 -0.03,0.01 -0.06,0.02 -0.09,0.03l-0.01 -0.12c-0.03,-0.21 -0.22,-0.36 -0.43,-0.33l-0.08 0.01c-0.21,0.03 -0.36,0.22 -0.33,0.43l0.11 0.86c-0.03,0.16 -0.03,0.33 0.02,0.49 0.01,0.07 0.04,0.14 0.07,0.2l0.14 1.09c0.02,0.21 0.22,0.36 0.43,0.33l0.07 -0.01c0.21,-0.02 0.36,-0.21 0.33,-0.43l-0.04 -0.33c0.12,0.01 0.24,-0.01 0.37,-0.04 4.9,-1.26 8.92,-3.49 11.88,-7 2.95,-3.49 4.81,-8.21 5.42,-14.48l0.01 -0.08c0.07,-3.06 -0.54,-5.49 -1.93,-7.18 -1.43,-1.74 -3.62,-2.65 -6.63,-2.63 -0.13,0.01 -0.25,0.03 -0.36,0.06l-0.01 -0.27c-0.02,-0.21 -0.2,-0.37 -0.41,-0.36l-0.08 0.01c-0.21,0.01 -0.37,0.19 -0.36,0.4l0.14 2.66c0.01,0.21 0.2,0.37 0.41,0.36l0.07 0c0.22,-0.01 0.38,-0.2 0.37,-0.41z"/>
   <path id="1" class="fil1" d="M28.77 7.5l0.2 -0.17 0.13 0.16 0.02 0.23 -0.34 0.01 -0.01 -0.23zm0 0l-0.01 -0.22 0.21 0.05 -0.2 0.17zm0.42 0.19l0 0 -0.01 0 0 0 -0.01 0 -0.02 0 -0.01 0 0 0 -0.02 0 0 0 0 0 -0.02 0 -0.01 0 -0.01 0 -0.02 0 0.01 0 -0.01 0 -0.02 -0.01 -0.01 0 0 0 0 0 -0.02 0 -0.01 0 -0.01 0 -0.02 0 -0.01 -0.01 0 0 0 0 -0.01 0 -0.02 0 -0.01 0 -0.01 -0.01 0 0 -0.01 0 0.07 -0.33 0.01 0 0.01 0 0.01 0 0 0.01 0 0 0.01 0 0.01 0 0.01 0 0.01 0 0 0 0.01 0 0 0.01 0 0 0.01 0 0.02 0 0.01 0 -0.01 0 0.01 0 0.02 0 0 0 0.01 0 0 0 0 0 0.02 0 0.01 0 -0.01 0 0.02 0 0.01 0.01 0 0 0.01 0 0 0 0.01 0 0 0 0 0.33zm0 0l0 0 0 0 0 0zm4.75 1.75l0 0 -0.08 -0.1 -0.1 -0.11 -0.1 -0.1 -0.1 -0.09 -0.1 -0.1 -0.11 -0.09 -0.11 -0.08 -0.12 -0.09 -0.12 -0.08 -0.12 -0.08 -0.13 -0.07 -0.13 -0.07 -0.13 -0.07 -0.14 -0.06 -0.14 -0.06 -0.15 -0.06 -0.15 -0.05 -0.15 -0.05 -0.16 -0.05 -0.16 -0.04 -0.16 -0.04 -0.17 -0.04 -0.18 -0.03 -0.17 -0.03 -0.18 -0.03 -0.19 -0.02 -0.19 -0.02 -0.19 -0.01 -0.2 -0.01 -0.2 -0.01 -0.21 -0.01 -0.21 0 0 -0.33 0.22 0 0.21 0 0.21 0.01 0.2 0.01 0.2 0.01 0.2 0.03 0.19 0.02 0.19 0.02 0.18 0.04 0.18 0.03 0.18 0.04 0.17 0.04 0.17 0.05 0.17 0.04 0.16 0.06 0.16 0.06 0.16 0.06 0.15 0.06 0.14 0.07 0.15 0.07 0.14 0.08 0.13 0.08 0.14 0.08 0.12 0.08 0.13 0.1 0.12 0.09 0.12 0.1 0.11 0.1 0.11 0.1 0.11 0.11 0.1 0.11 0.1 0.12 0 0 -0.27 0.21zm1.38 5.52l0 0.02 0 -0.23 0 -0.23 0 -0.22 0 -0.22 -0.01 -0.22 -0.01 -0.21 -0.02 -0.21 -0.01 -0.2 -0.02 -0.21 -0.02 -0.19 -0.03 -0.2 -0.03 -0.19 -0.03 -0.18 -0.04 -0.19 -0.04 -0.18 -0.04 -0.17 -0.04 -0.17 -0.05 -0.17 -0.05 -0.16 -0.05 -0.17 -0.06 -0.15 -0.06 -0.15 -0.06 -0.15 -0.07 -0.15 -0.07 -0.14 -0.07 -0.14 -0.07 -0.13 -0.08 -0.13 -0.08 -0.12 -0.09 -0.12 -0.08 -0.12 -0.1 -0.12 0.27 -0.21 0.1 0.12 0.09 0.13 0.09 0.13 0.09 0.13 0.08 0.14 0.08 0.14 0.08 0.15 0.07 0.15 0.07 0.15 0.07 0.16 0.06 0.16 0.06 0.16 0.05 0.17 0.06 0.17 0.05 0.18 0.04 0.18 0.05 0.18 0.03 0.19 0.04 0.18 0.03 0.2 0.03 0.19 0.03 0.2 0.02 0.21 0.03 0.21 0.01 0.21 0.02 0.21 0.01 0.22 0.01 0.22 0 0.22 0 0.23 0 0.23 0 0.23 0 0.02 -0.34 -0.04zm0.34 0.02l0 0.02 0 0 0 -0.02zm-5.2 13.1l0 0 0.24 -0.29 0.24 -0.31 0.23 -0.31 0.23 -0.31 0.22 -0.32 0.21 -0.33 0.21 -0.34 0.21 -0.34 0.19 -0.36 0.2 -0.35 0.18 -0.37 0.18 -0.37 0.18 -0.38 0.16 -0.39 0.17 -0.4 0.15 -0.4 0.15 -0.41 0.15 -0.42 0.13 -0.43 0.14 -0.43 0.12 -0.45 0.12 -0.45 0.12 -0.46 0.1 -0.46 0.1 -0.48 0.1 -0.48 0.09 -0.49 0.08 -0.5 0.07 -0.51 0.07 -0.52 0.06 -0.52 0.06 -0.54 0.34 0.04 -0.06 0.54 -0.06 0.52 -0.07 0.53 -0.08 0.51 -0.08 0.5 -0.09 0.5 -0.1 0.49 -0.1 0.48 -0.11 0.47 -0.11 0.47 -0.12 0.45 -0.13 0.45 -0.13 0.44 -0.14 0.43 -0.15 0.43 -0.15 0.42 -0.16 0.41 -0.16 0.4 -0.17 0.39 -0.18 0.39 -0.19 0.38 -0.18 0.37 -0.2 0.37 -0.2 0.36 -0.21 0.35 -0.21 0.34 -0.22 0.34 -0.23 0.32 -0.23 0.33 -0.23 0.31 -0.24 0.31 -0.25 0.3 0 0 -0.26 -0.22zm-10.64 6.22l0 0 0.42 -0.11 0.4 -0.12 0.41 -0.11 0.39 -0.13 0.4 -0.13 0.39 -0.13 0.38 -0.14 0.38 -0.15 0.37 -0.15 0.37 -0.16 0.36 -0.16 0.36 -0.16 0.35 -0.18 0.34 -0.18 0.35 -0.18 0.33 -0.19 0.33 -0.19 0.33 -0.2 0.32 -0.21 0.31 -0.21 0.31 -0.22 0.31 -0.23 0.29 -0.23 0.3 -0.23 0.28 -0.24 0.29 -0.25 0.27 -0.26 0.27 -0.26 0.27 -0.27 0.26 -0.27 0.25 -0.28 0.25 -0.29 0.26 0.22 -0.26 0.29 -0.25 0.29 -0.27 0.28 -0.27 0.27 -0.27 0.27 -0.29 0.26 -0.28 0.25 -0.3 0.25 -0.3 0.24 -0.3 0.23 -0.31 0.23 -0.31 0.23 -0.32 0.21 -0.33 0.21 -0.33 0.21 -0.34 0.19 -0.34 0.2 -0.35 0.18 -0.35 0.19 -0.36 0.17 -0.36 0.17 -0.37 0.16 -0.37 0.16 -0.38 0.16 -0.38 0.14 -0.39 0.14 -0.39 0.14 -0.4 0.13 -0.4 0.13 -0.41 0.12 -0.41 0.12 -0.42 0.11 0 0 -0.09 -0.33zm0.09 0.33l0 0 0.04 -0.01 -0.04 0.01zm0.04 -0.16l-0.22 -0.14 0.01 -0.01 0.01 0 -0.02 0.01 0 0 0.02 -0.01 0.01 0 -0.03 0.01 0 0 0.04 -0.02 0.01 0 -0.04 0.02 0.03 -0.02 0 0 -0.03 0.01 0.05 -0.01 0 0 -0.04 0.01 0.04 -0.01 0 0 0.01 0 0 0 -0.04 0.01 0.04 -0.02 0 0 -0.02 0.01 0.04 -0.01 -0.01 0 0 0 0.01 0 0.01 0 -0.01 0 0 0 0.09 0.33 -0.01 0 -0.01 0 0 0 0.01 0 -0.01 0 -0.01 0 0.03 -0.01 -0.02 0.01 -0.01 0 0.04 -0.01 -0.05 0.02 0 0 0 0 0 0 0.03 -0.02 -0.04 0.02 -0.01 0 0.04 -0.01 -0.03 0.01 0 0 0.03 -0.01 -0.05 0.01 0 0 0.04 -0.01 0 0 -0.04 0.02 0 0 0.02 -0.01 -0.01 0 -0.02 0.01 0 0 0.01 0 -0.22 -0.14 0.33 -0.04zm-0.11 0.18l-0.2 0.07 -0.02 -0.21 0.22 0.14zm-0.24 -0.26l0.34 -0.04 0 0 0.01 0.12 -0.33 0.04 -0.02 -0.12zm-0.28 -0.52l0 0 0.02 0 0.03 0 0.03 0 0.03 0 0.03 0 0.02 0.01 0.03 0 0.03 0.01 0.02 0.01 0.03 0 0.02 0.02 0.03 0.01 0.02 0.01 0.02 0.01 0.03 0.02 0.02 0.01 0.02 0.02 0.02 0.02 0.01 0.02 0.02 0.01 0.02 0.03 0.02 0.02 0.01 0.02 0.02 0.02 0.01 0.03 0.01 0.02 0.01 0.03 0.01 0.02 0.01 0.03 0.01 0.02 0 0.03 0.01 0.03 -0.34 0.04 0 -0.01 0 -0.01 -0.01 -0.01 0 -0.01 0 -0.01 -0.01 -0.01 0 -0.01 0 -0.01 -0.01 0 -0.01 -0.01 0 -0.01 -0.01 -0.01 -0.01 -0.01 -0.01 -0.01 0 0 -0.01 -0.01 -0.01 -0.01 0 0 -0.02 -0.01 -0.01 0 -0.01 -0.01 0 0 -0.01 0 -0.02 -0.01 -0.01 0 0 0 -0.02 0 -0.01 0 -0.01 0 -0.01 0 -0.01 0 -0.01 0 0 0 -0.04 -0.34zm-0.04 0.35l-0.04 -0.34 0.08 -0.01 0.04 0.34 -0.08 0.01zm-0.52 0.28l0 0 0 -0.03 0 -0.03 0 -0.02 0 -0.03 0 -0.04 0.01 -0.02 0 -0.02 0.01 -0.03 0.01 -0.02 0.01 -0.03 0.01 -0.03 0.01 -0.02 0.01 -0.02 0.02 -0.03 0.01 -0.02 0.01 -0.02 0.02 -0.02 0.02 -0.02 0.02 -0.02 0.02 -0.02 0.01 -0.01 0.02 -0.02 0.03 -0.01 0.03 -0.02 0.02 -0.01 0.02 -0.01 0.03 -0.01 0.02 -0.01 0.03 -0.01 0.02 -0.01 0.03 0 0.03 -0.01 0.04 0.34 -0.01 0 0 0 -0.02 0 -0.01 0.01 -0.01 0 -0.01 0.01 -0.01 0 -0.01 0 -0.01 0.01 0 0 -0.01 0.01 -0.01 0.01 -0.01 0.01 0 0 -0.01 0.01 -0.01 0.01 0 0.01 -0.01 0.01 0 0 -0.01 0.01 0 0.01 -0.01 0.01 0 0.01 0 0.01 -0.01 0.01 0 0.02 0 0.01 0 0 0 0.01 0 0.02 0 0.01 0 0.01 0 0 -0.34 0.04zm0.45 0.82l0 0.05 -0.34 -0.01 -0.11 -0.86 0.34 -0.04 0.11 0.86zm0 0l0 0.03 0 0.02 0 -0.05zm-0.32 0.55l0 0 0 -0.01 -0.01 -0.02 0 -0.02 -0.01 -0.02 0 -0.01 0 -0.02 0 -0.02 -0.01 -0.02 0 -0.02 0 -0.01 0 -0.02 -0.01 -0.02 0 -0.02 0 -0.02 0 -0.01 0 -0.02 0 -0.02 0 -0.02 0 -0.01 0 -0.02 0 -0.02 0 -0.01 0 -0.02 0 -0.02 0.01 -0.02 0 -0.02 0 -0.02 0 -0.01 0 -0.01 0.01 -0.03 0 -0.02 0 -0.01 0.34 0.06 -0.01 0.02 0 0.01 0 0.01 0 0.01 -0.01 0.02 0 0.01 0 0.01 0 0.02 0 0.01 0 0.01 0 0.01 0 0.02 0 0.01 0 0.01 0 0.02 0 0.01 0 0.01 0 0.02 0 0.01 0 0.01 0 0.01 0 0.02 0.01 0.01 0 0.01 0 0.02 0 0.01 0.01 0.01 0 0.02 0 0.01 0 0.02 0.01 0.01 0 0.01 0 0 -0.33 0.08zm0.33 -0.08l0 0 0 0 0 0zm-0.26 0.26l0.01 0.06 0 -0.01 0 0 -0.01 -0.02 0 -0.01 0 0.01 0 -0.01 -0.01 -0.02 0 -0.01 -0.01 0 0 0 0 -0.01 0 -0.01 -0.01 -0.01 0 0 0 -0.01 0 -0.01 0 0 0 0 -0.01 -0.01 -0.01 -0.02 0 -0.01 0 0.01 0 -0.01 0 -0.02 0 -0.01 0 0.02 -0.01 -0.03 0 -0.01 0 0 0 -0.01 -0.01 0 0 -0.02 0.33 -0.08 0 0.01 0 0 0 0.01 0.01 0 0 0.01 -0.01 -0.01 0.01 0.02 0 0.01 0 -0.01 0 0.01 0.01 0.02 0 0.01 0 -0.01 0 0 0 0.01 0.01 0.01 0 0 0 0.01 0 0.01 0 0 0.01 0 0 0.01 0 0.01 0.01 0.01 0 0 -0.01 -0.01 0.01 0.01 0 0.02 0.01 0 -0.01 0 0.01 0 0 0.01 0.02 0.05 -0.34 0.04zm0.32 -0.09l0.01 0.02 0.01 0.03 -0.02 -0.05zm0.15 1.14l-0.33 0.04 0 0 -0.14 -1.09 0.34 -0.04 0.13 1.09zm0.29 0.52l0 0 -0.03 0.01 -0.03 0 -0.03 0 -0.03 0 -0.02 -0.01 -0.03 0 -0.03 -0.01 -0.02 0 -0.03 -0.01 -0.02 -0.01 -0.03 -0.01 -0.03 -0.01 -0.02 -0.02 -0.01 -0.01 -0.03 -0.01 -0.03 -0.02 -0.01 -0.02 -0.02 -0.01 -0.02 -0.02 -0.02 -0.02 -0.02 -0.03 -0.01 -0.01 -0.02 -0.03 -0.01 -0.02 -0.01 -0.02 -0.02 -0.03 -0.01 -0.02 -0.01 -0.03 -0.01 -0.02 0 -0.03 -0.01 -0.03 0 -0.03 0.33 -0.04 0.01 0.01 0 0.01 0 0.01 0 0.01 0.01 0.01 0 0.01 0 0.01 0.01 0.01 0.01 0.01 0 0.01 0.01 0.01 0.01 0.01 0 0 0.01 0.01 0.01 0 0.01 0.02 0.01 0 0 0 0.01 0.01 0.02 0.01 0 0 0.01 0 0.01 0.01 0.01 0 0.01 0 0.01 0.01 0.01 0 0.01 0 0.01 0 0.01 0 0.01 0 0.01 0 0 0 0.05 0.33zm0.03 -0.34l0.04 0.33 0 0 -0.07 0.01 -0.05 -0.33 0.08 -0.01zm0.52 -0.29l0 0 0.01 0.03 0 0.03 0 0.03 -0.01 0.02 0 0.03 0 0.03 -0.01 0.03 0 0.02 -0.01 0.03 -0.01 0.03 -0.01 0.02 -0.01 0.02 -0.01 0.02 -0.02 0.03 -0.02 0.02 -0.01 0.02 -0.02 0.02 -0.01 0.02 -0.02 0.02 -0.02 0.02 -0.02 0.02 -0.02 0.01 -0.03 0.02 -0.02 0.01 -0.02 0.01 -0.03 0.02 -0.02 0.01 -0.03 0.01 -0.02 0.01 -0.03 0 -0.03 0.01 -0.03 0 -0.04 -0.33 0.01 -0.01 0.01 0 0.01 0 0.01 0 0.01 -0.01 0.01 0 0.01 0 0.01 -0.01 0.01 -0.01 0.01 0 0.01 -0.01 0 0 0.01 -0.01 0.01 -0.01 0 -0.01 0.01 -0.01 0.01 -0.01 0 0 0.01 -0.01 0 -0.01 0.01 -0.01 0 -0.01 0.01 -0.01 0 -0.01 0 -0.01 0 -0.01 0.01 -0.01 0 -0.01 0 -0.01 0 -0.02 0 0 0 -0.01 0 0 0.33 -0.05zm-0.38 -0.29l0.18 -0.19 0.16 0.14 0.04 0.34 -0.33 0.05 -0.05 -0.34zm0 0l-0.02 -0.21 0.2 0.02 -0.18 0.19zm0.58 0.11l0 0 -0.01 0 -0.01 0 -0.02 0.01 -0.02 0 -0.01 0 -0.01 0 -0.02 0.01 -0.01 0 -0.01 0 -0.01 0 -0.01 0.01 -0.02 0 -0.02 0 -0.01 0 -0.01 0 -0.01 0 -0.01 0 -0.02 0.01 -0.01 0 -0.01 0 -0.02 0 -0.01 0 -0.02 0 -0.01 0 -0.01 0 -0.01 0 -0.02 0 -0.01 0 -0.01 0 -0.02 0 -0.01 0 -0.01 -0.01 0.02 -0.33 0.01 0 0.01 0 0.01 0 0.01 0 0.02 0 0 0 0.01 0 0.01 0 0.01 0 0 0 0.02 0 0.01 0 0.01 0 0.01 0 0 0 0.01 0 0.02 -0.01 0.01 0 0.01 0 0.01 0 0.01 0 0.01 0 0.01 0 0.01 0 0.01 -0.01 0 0 0.01 0 0.02 0 0.01 0 0 0 0.01 -0.01 0.02 0 -0.01 0 0.09 0.33zm0 0l0 0 0.04 -0.01 -0.04 0.01zm11.97 -7.06l0 0 -0.28 0.33 -0.29 0.32 -0.3 0.31 -0.3 0.31 -0.31 0.3 -0.31 0.29 -0.32 0.28 -0.33 0.28 -0.33 0.27 -0.34 0.26 -0.34 0.26 -0.35 0.25 -0.36 0.24 -0.36 0.23 -0.37 0.23 -0.37 0.22 -0.38 0.22 -0.38 0.2 -0.39 0.21 -0.4 0.19 -0.4 0.19 -0.4 0.18 -0.41 0.18 -0.42 0.17 -0.42 0.16 -0.43 0.16 -0.44 0.15 -0.43 0.14 -0.45 0.14 -0.45 0.14 -0.45 0.13 -0.46 0.12 -0.09 -0.33 0.46 -0.12 0.45 -0.13 0.44 -0.13 0.44 -0.14 0.43 -0.14 0.43 -0.15 0.43 -0.16 0.41 -0.16 0.42 -0.16 0.4 -0.18 0.4 -0.18 0.4 -0.18 0.39 -0.2 0.38 -0.2 0.38 -0.2 0.37 -0.21 0.37 -0.22 0.36 -0.22 0.36 -0.23 0.35 -0.24 0.34 -0.25 0.34 -0.25 0.33 -0.26 0.33 -0.26 0.32 -0.27 0.31 -0.28 0.31 -0.29 0.3 -0.29 0.3 -0.3 0.29 -0.31 0.28 -0.32 0.28 -0.32 0 0 0.26 0.22zm5.46 -14.58l0 0.01 -0.06 0.58 -0.07 0.58 -0.08 0.57 -0.08 0.56 -0.09 0.55 -0.1 0.54 -0.1 0.53 -0.11 0.53 -0.12 0.51 -0.13 0.51 -0.13 0.5 -0.14 0.49 -0.15 0.48 -0.15 0.47 -0.17 0.47 -0.16 0.45 -0.18 0.45 -0.18 0.44 -0.19 0.44 -0.2 0.42 -0.2 0.42 -0.21 0.41 -0.22 0.4 -0.22 0.39 -0.23 0.39 -0.23 0.38 -0.25 0.37 -0.25 0.36 -0.25 0.36 -0.26 0.35 -0.27 0.34 -0.28 0.33 -0.26 -0.22 0.27 -0.32 0.27 -0.34 0.26 -0.34 0.25 -0.35 0.24 -0.36 0.24 -0.36 0.23 -0.38 0.23 -0.38 0.22 -0.38 0.21 -0.4 0.21 -0.4 0.2 -0.41 0.19 -0.42 0.19 -0.43 0.18 -0.43 0.17 -0.45 0.16 -0.45 0.16 -0.46 0.16 -0.46 0.14 -0.48 0.14 -0.48 0.13 -0.5 0.13 -0.5 0.12 -0.51 0.11 -0.52 0.1 -0.52 0.1 -0.54 0.09 -0.55 0.08 -0.55 0.07 -0.56 0.07 -0.57 0.06 -0.58 0 0 0.34 0.02zm0 0l0 0.01 0 0.01 0 -0.02zm-0.33 -0.1l0.33 0.02 0 0.01 0 0.07 -0.34 -0.02 0.01 -0.08zm0.33 0.02l0 0.01 0 0 0 -0.01zm-1.96 -7.3l0 0 0.13 0.17 0.13 0.17 0.12 0.17 0.12 0.18 0.11 0.18 0.11 0.19 0.1 0.19 0.1 0.19 0.1 0.2 0.09 0.2 0.08 0.21 0.08 0.21 0.08 0.21 0.07 0.22 0.07 0.23 0.06 0.22 0.06 0.23 0.05 0.24 0.05 0.24 0.05 0.24 0.04 0.25 0.03 0.25 0.03 0.25 0.03 0.26 0.03 0.26 0.02 0.27 0.01 0.26 0.01 0.28 0.01 0.28 0 0.28 0 0.28 -0.01 0.29 -0.33 -0.01 0 -0.28 0 -0.28 0 -0.28 -0.01 -0.27 -0.01 -0.27 -0.01 -0.26 -0.02 -0.26 -0.02 -0.26 -0.03 -0.25 -0.03 -0.25 -0.04 -0.24 -0.04 -0.24 -0.04 -0.24 -0.05 -0.23 -0.05 -0.23 -0.06 -0.22 -0.06 -0.22 -0.06 -0.22 -0.07 -0.21 -0.08 -0.2 -0.07 -0.21 -0.09 -0.2 -0.08 -0.19 -0.09 -0.19 -0.1 -0.19 -0.1 -0.18 -0.1 -0.18 -0.11 -0.17 -0.11 -0.17 -0.12 -0.16 -0.11 -0.16 -0.13 -0.16 0 0 0.26 -0.22zm-6.76 -2.69l0 0 0.28 0.01 0.28 0 0.27 0.01 0.27 0.02 0.27 0.02 0.26 0.03 0.25 0.04 0.25 0.03 0.25 0.05 0.24 0.05 0.24 0.05 0.23 0.06 0.23 0.07 0.22 0.07 0.22 0.08 0.21 0.08 0.21 0.09 0.2 0.09 0.2 0.1 0.2 0.1 0.19 0.11 0.18 0.11 0.19 0.12 0.17 0.13 0.18 0.13 0.16 0.13 0.16 0.14 0.16 0.14 0.16 0.15 0.15 0.16 0.14 0.16 0.14 0.16 -0.26 0.22 -0.13 -0.16 -0.14 -0.15 -0.14 -0.15 -0.15 -0.14 -0.15 -0.14 -0.15 -0.13 -0.16 -0.13 -0.17 -0.12 -0.16 -0.12 -0.18 -0.11 -0.17 -0.11 -0.19 -0.1 -0.18 -0.1 -0.19 -0.09 -0.2 -0.09 -0.2 -0.08 -0.2 -0.08 -0.21 -0.08 -0.21 -0.07 -0.22 -0.06 -0.22 -0.06 -0.23 -0.05 -0.24 -0.05 -0.23 -0.04 -0.25 -0.04 -0.24 -0.03 -0.26 -0.03 -0.25 -0.02 -0.27 -0.02 -0.26 -0.01 -0.28 -0.01 -0.27 0 0 0 0 -0.34zm0 0l0 0 0 0 0 0zm-0.19 0.22l-0.22 -0.15 0.01 0 0.01 0 0.02 -0.01 0.01 0 0 0 0.02 -0.01 0.02 0 0 0 0.01 -0.01 0.02 0 0.01 0 0.01 -0.01 0.01 0 0.03 0 0 0 0.01 -0.01 0.02 0 0.01 0 0.01 0 0.02 0 0.01 -0.01 0.01 0 0.02 0 0.01 0 0.01 0 0.02 0 0.01 0 0.01 0 0.01 0 0.01 -0.01 0.02 0 0.02 0 0 0.34 -0.02 0 0 0 -0.01 0 -0.01 0 -0.01 0.01 -0.01 0 -0.01 0 -0.01 0 -0.01 0 -0.01 0 -0.01 0 -0.01 0 -0.01 0 -0.01 0 -0.01 0.01 0 0 -0.02 0 -0.01 0 -0.01 0 0 0 -0.02 0.01 -0.01 0 0 0 -0.01 0 -0.02 0.01 0 0 0 0 -0.02 0 -0.01 0.01 -0.01 0 -0.01 0 -0.01 0 -0.22 -0.15 0.34 -0.02zm-0.12 0.17l-0.21 0.08 -0.01 -0.23 0.22 0.15zm-0.23 -0.42l0.33 -0.01 0 0 0.02 0.26 -0.34 0.02 -0.01 -0.27zm-0.25 -0.54l0 0 0.03 0 0.03 0 0.03 0 0.02 0.01 0.03 0 0.03 0.01 0.03 0.01 0.02 0.01 0.02 0 0.03 0.02 0.02 0.01 0.03 0.01 0.02 0.01 0.02 0.02 0.02 0.02 0.02 0.01 0.02 0.02 0.02 0.02 0.02 0.02 0.01 0.02 0.02 0.02 0.01 0.02 0.02 0.03 0.01 0.02 0.01 0.03 0.01 0.02 0.01 0.03 0.01 0.03 0 0.03 0.01 0.02 0 0.02 0 0.04 -0.33 0.01 0 -0.01 -0.01 0 0 -0.02 0 -0.01 0 -0.01 -0.01 -0.01 0 -0.01 -0.01 -0.01 0 -0.01 0 -0.01 -0.01 0 -0.01 -0.01 0 -0.01 -0.01 -0.01 -0.01 -0.01 -0.01 0 0 -0.01 -0.01 -0.01 -0.01 0 -0.01 -0.01 -0.01 0 -0.01 -0.01 -0.01 0 0 -0.01 -0.02 0 -0.01 0 0 0 -0.02 -0.01 -0.01 0 -0.01 0 -0.01 0 -0.01 0 0 0 -0.02 -0.34zm-0.06 0.34l-0.02 -0.33 0.01 0 0.07 -0.01 0.02 0.34 -0.08 0zm-0.54 0.25l0 0 0 -0.03 0 -0.03 0 -0.02 0.01 -0.03 0 -0.03 0.01 -0.03 0.01 -0.03 0 -0.01 0.01 -0.03 0.02 -0.03 0.01 -0.02 0.01 -0.02 0.01 -0.03 0.02 -0.02 0.02 -0.02 0.01 -0.02 0.02 -0.02 0.02 -0.02 0.02 -0.02 0.02 -0.01 0.02 -0.02 0.03 -0.01 0.02 -0.02 0.02 -0.01 0.02 -0.01 0.03 -0.01 0.03 -0.01 0.02 -0.01 0.04 0 0.01 -0.01 0.03 0 0.03 0 0.02 0.33 -0.01 0 0 0.01 -0.02 0 -0.01 0 -0.01 0 -0.01 0.01 -0.01 0 -0.01 0.01 -0.01 0 -0.01 0.01 0 0 -0.01 0.01 -0.01 0 -0.01 0.01 -0.01 0.01 -0.01 0.01 0 0.01 -0.01 0 0 0.01 -0.01 0.01 -0.01 0.01 0 0.01 0 0.01 -0.01 0 0 0.02 0 0.01 -0.01 0 0 0.02 0 0.01 0 0.01 0 0.01 0 0.01 0 0 -0.34 0.02zm0.48 2.64l0 0 -0.33 0.02 -0.15 -2.66 0.34 -0.02 0.14 2.66zm0.25 0.54l0 0 -0.03 0 -0.03 0 -0.03 0 -0.03 0 -0.02 -0.01 -0.03 0 -0.03 -0.01 -0.02 -0.01 -0.02 -0.01 -0.03 -0.01 -0.02 -0.01 -0.03 -0.02 -0.02 -0.01 -0.02 -0.02 -0.02 -0.01 -0.02 -0.02 -0.02 -0.02 -0.02 -0.02 -0.02 -0.02 -0.01 -0.02 -0.02 -0.02 -0.01 -0.02 -0.02 -0.03 -0.01 -0.02 -0.01 -0.03 -0.01 -0.02 -0.01 -0.02 -0.01 -0.03 0 -0.03 -0.01 -0.03 0 -0.02 0 -0.03 0.33 -0.02 0 0.01 0.01 0.01 0 0.01 0 0.01 0 0.01 0.01 0.02 0 0 0 0.01 0.01 0.01 0 0.01 0.01 0.01 0.01 0.01 0 0.01 0.01 0 0.01 0.01 0.01 0.01 0 0.01 0.01 0 0.01 0.01 0.01 0 0.01 0.01 0.01 0 0.01 0.01 0 0 0.02 0.01 0.01 0 0 0 0.02 0 0 0 0.02 0 0.01 0 0.01 0 0 0 0.02 0.34zm0.06 -0.34l0.01 0.34 0 0 -0.07 0 -0.02 -0.34 0.08 0zm0.54 -0.24l0 0 0 0.02 0 0.03 0 0.03 -0.01 0.03 0 0.02 -0.01 0.03 -0.01 0.03 0 0.02 -0.01 0.03 -0.02 0.02 -0.01 0.03 -0.01 0.02 -0.01 0.02 -0.02 0.03 -0.02 0.02 -0.02 0.02 -0.01 0.01 -0.02 0.02 -0.02 0.02 -0.02 0.02 -0.02 0.01 -0.03 0.02 -0.02 0.01 -0.02 0.01 -0.03 0.01 -0.02 0.01 -0.03 0.01 -0.03 0.01 -0.03 0.01 -0.02 0 -0.02 0.01 -0.04 0 -0.01 -0.34 0 0 0.01 0 0.02 -0.01 0.01 0 0.01 0 0.01 0 0.01 -0.01 0.01 0 0.01 -0.01 0.01 0 0 -0.01 0.01 0 0.01 -0.01 0.01 -0.01 0.01 -0.01 0 0 0.01 -0.01 0.01 -0.01 0 0 0.01 -0.01 0 -0.01 0.01 -0.02 0 0 0 -0.01 0.01 -0.02 0 0 0 -0.01 0.01 -0.01 0 -0.01 0 -0.02 0 -0.01 0 -0.01 0 0 0.34 -0.01z"/>
  </g>
  <g>
   <path class="fil3" d="M54.26 39.35c0.25,0.11 0.49,0.25 0.7,0.41 1.02,0.48 2.2,0.61 3.5,0.47l-2.58 3.94 0 0c-0.69,1.19 -2.08,1.89 -3.54,1.66 -1.9,-0.29 -3.21,-2.04 -2.93,-3.9 0.06,-0.39 0.19,-0.76 0.38,-1.1l0 0 0 0c0.03,-0.06 0.06,-0.12 0.1,-0.17l2.33 -3.97c0.53,1.22 1.22,2.08 2.04,2.66z"/>
   <path id="1" class="fil1" d="M55.04 39.61l-0.15 0.3 -0.03 -0.02 -0.02 -0.01 -0.02 -0.01 -0.02 -0.02 -0.02 -0.01 -0.01 -0.02 -0.03 -0.01 -0.02 -0.02 -0.01 -0.01 -0.03 -0.01 -0.02 -0.02 -0.02 -0.01 -0.02 -0.01 -0.02 -0.01 -0.02 -0.02 -0.02 -0.01 -0.02 -0.01 -0.02 -0.01 -0.02 -0.01 -0.02 -0.02 -0.03 -0.01 -0.02 -0.01 -0.02 -0.01 -0.02 -0.01 -0.02 -0.02 -0.02 0 -0.03 -0.02 -0.02 -0.01 -0.02 -0.01 -0.02 -0.01 -0.03 -0.01 -0.02 -0.01 -0.02 -0.01 0.13 -0.31 0.03 0.01 0.02 0.01 0.03 0.01 0.02 0.02 0.03 0.01 0.02 0.01 0.02 0.01 0.03 0.01 0.03 0.02 0.02 0.01 0.02 0.01 0.03 0.02 0.02 0.01 0.02 0.01 0.02 0.01 0.03 0.02 0.02 0.01 0.02 0.01 0.03 0.02 0.02 0.01 0.02 0.02 0.03 0.01 0.02 0.01 0.02 0.02 0.03 0.02 0.02 0.01 0.01 0.01 0.03 0.02 0.02 0.02 0.02 0.01 0.02 0.02 0.03 0.01 -0.03 -0.01zm-0.15 0.3l-0.02 -0.01 -0.01 -0.01 0.03 0.02zm3.71 0.41l-0.28 -0.18 0.16 0.26 -0.13 0.01 -0.12 0.01 -0.12 0.01 -0.12 0.01 -0.12 0 -0.12 0.01 -0.12 0 -0.12 0 -0.12 0 -0.12 0 -0.11 -0.01 -0.12 0 -0.11 -0.01 -0.12 -0.01 -0.11 -0.01 -0.11 -0.02 -0.12 -0.01 -0.11 -0.02 -0.11 -0.02 -0.11 -0.02 -0.11 -0.02 -0.11 -0.03 -0.1 -0.02 -0.11 -0.03 -0.11 -0.03 -0.1 -0.04 -0.1 -0.03 -0.11 -0.04 -0.1 -0.04 -0.1 -0.04 -0.1 -0.04 -0.1 -0.05 0.15 -0.3 0.09 0.04 0.09 0.04 0.1 0.04 0.09 0.03 0.1 0.04 0.1 0.03 0.09 0.03 0.1 0.03 0.1 0.03 0.1 0.02 0.11 0.03 0.1 0.02 0.1 0.02 0.11 0.02 0.1 0.01 0.11 0.02 0.1 0.01 0.11 0.01 0.11 0.01 0.11 0.01 0.11 0 0.11 0.01 0.12 0 0.11 0 0.11 0 0.12 0 0.11 -0.01 0.12 0 0.12 -0.01 0.11 -0.01 0.12 -0.01 0.12 -0.01 0.16 0.26zm-0.16 -0.26l0.36 -0.04 -0.2 0.3 -0.16 -0.26zm-2.7 4.02l2.58 -3.94 0.28 0.18 -2.58 3.95 -0.29 -0.18 0.01 -0.01zm-0.01 0.01l0 0 0.01 -0.01 -0.01 0.01zm0.15 0.08l0 0 0 0 0 0 0.15 0.09 -0.15 -0.09zm-0.15 -0.08l0 0 0.01 -0.01 -0.01 0.01zm-3.42 1.91l0.05 -0.34 0 0 0.14 0.02 0.12 0.02 0.13 0 0.13 0 0.13 0 0.13 0 0.12 -0.02 0.13 -0.01 0.12 -0.02 0.12 -0.03 0.12 -0.03 0.12 -0.03 0.12 -0.04 0.11 -0.04 0.11 -0.05 0.12 -0.05 0.11 -0.06 0.1 -0.05 0.1 -0.07 0.11 -0.06 0.1 -0.07 0.09 -0.08 0.1 -0.07 0.09 -0.08 0.08 -0.08 0.09 -0.09 0.08 -0.09 0.08 -0.09 0.07 -0.1 0.07 -0.1 0.07 -0.1 0.06 -0.1 0.3 0.17 -0.07 0.12 -0.08 0.11 -0.08 0.11 -0.08 0.1 -0.08 0.1 -0.1 0.1 -0.09 0.1 -0.09 0.09 -0.1 0.09 -0.11 0.08 -0.11 0.08 -0.1 0.08 -0.12 0.07 -0.11 0.07 -0.12 0.06 -0.12 0.06 -0.12 0.06 -0.12 0.05 -0.13 0.05 -0.13 0.04 -0.13 0.04 -0.13 0.03 -0.14 0.03 -0.13 0.02 -0.14 0.02 -0.14 0.01 -0.14 0.01 -0.14 0 -0.14 0 -0.14 -0.01 -0.14 -0.01 -0.15 -0.02 0 0zm-3.06 -4.09l0.33 0.05 0 0 -0.02 0.16 -0.01 0.17 -0.01 0.16 0.01 0.16 0.01 0.16 0.02 0.16 0.03 0.16 0.04 0.15 0.04 0.16 0.05 0.14 0.06 0.15 0.06 0.14 0.08 0.14 0.07 0.14 0.09 0.13 0.09 0.13 0.1 0.12 0.1 0.12 0.11 0.12 0.12 0.11 0.12 0.1 0.12 0.1 0.13 0.09 0.14 0.09 0.14 0.08 0.14 0.07 0.15 0.07 0.15 0.06 0.16 0.05 0.16 0.05 0.17 0.03 0.16 0.03 -0.05 0.34 -0.18 -0.03 -0.18 -0.04 -0.18 -0.06 -0.17 -0.05 -0.17 -0.07 -0.16 -0.07 -0.16 -0.09 -0.16 -0.08 -0.15 -0.1 -0.14 -0.1 -0.14 -0.11 -0.13 -0.11 -0.13 -0.12 -0.12 -0.13 -0.11 -0.13 -0.11 -0.14 -0.1 -0.14 -0.09 -0.14 -0.09 -0.15 -0.08 -0.16 -0.07 -0.16 -0.07 -0.16 -0.05 -0.16 -0.05 -0.17 -0.04 -0.17 -0.03 -0.17 -0.03 -0.18 -0.01 -0.18 0 -0.18 0 -0.18 0.01 -0.18 0.03 -0.18 0 0zm0.39 -1.17l0.29 0.18 0.01 -0.01 -0.02 0.04 -0.02 0.02 -0.01 0.03 -0.02 0.03 -0.01 0.03 -0.02 0.04 -0.01 0.03 -0.02 0.03 -0.01 0.03 -0.01 0.03 -0.01 0.03 -0.02 0.03 -0.01 0.04 -0.01 0.03 -0.01 0.03 -0.02 0.03 -0.01 0.04 -0.01 0.03 -0.01 0.03 -0.01 0.04 -0.01 0.03 -0.01 0.03 -0.01 0.04 0 0.03 -0.01 0.04 -0.01 0.03 -0.01 0.03 -0.01 0.04 0 0.03 -0.01 0.04 0 0.03 -0.01 0.04 -0.33 -0.05 0 -0.04 0.01 -0.04 0.01 -0.04 0 -0.04 0.01 -0.04 0.01 -0.03 0.01 -0.04 0.01 -0.04 0.01 -0.04 0.01 -0.03 0.01 -0.04 0.01 -0.04 0.01 -0.04 0.01 -0.03 0.01 -0.04 0.01 -0.03 0.02 -0.04 0.01 -0.04 0.01 -0.04 0.02 -0.03 0.01 -0.03 0.01 -0.04 0.02 -0.04 0.02 -0.03 0.01 -0.03 0.02 -0.04 0.01 -0.03 0.02 -0.03 0.01 -0.04 0.02 -0.03 0.02 -0.04 0.02 -0.03 0 -0.01zm0 0.01l0 0 0 -0.01 0 0.01zm0.15 0.08l0 0 0 0 0 0 -0.15 -0.09 0.15 0.09zm-0.15 -0.08l0 0 0 -0.01 0 0.01zm0.3 0.16l-0.01 0.01 -0.29 -0.18 0 0 0.3 0.17 0 0zm0 0l0 0 -0.01 0.01 0.01 -0.01zm-0.2 -0.34l0.29 0.18 0 0 0 0 0 0 -0.02 0.03 0.01 -0.01 0 0 -0.01 0.01 0 0.01 0 -0.01 -0.01 0.02 0 0 0 0 0 0 -0.01 0.01 0 0.01 -0.01 0.01 0 0 0 0 0 0.01 -0.01 0.01 0 0.01 0 -0.01 0 0.01 -0.01 0 0 0.01 0 0 0 0.01 -0.01 0 0 0.01 0 0 -0.01 0.01 0 0 0 0.01 -0.3 -0.16 0 -0.01 0.01 -0.01 0 0 0 -0.01 0.01 0 0 -0.01 0 0 0.01 -0.01 0 0 0 -0.01 0 0 0.01 -0.02 0.01 0 -0.01 0 0.01 -0.01 0 0 0.01 -0.02 0 0 0 0 0 0 0.01 -0.01 0.01 -0.01 0 0 -0.01 0 0.02 -0.02 0 0 -0.01 0 0.01 -0.01 0.01 -0.02 -0.01 0.02 0.01 -0.01 0.01 -0.01 -0.01 0zm0.29 0.18l0.01 -0.01 -0.01 0.01 0 0zm2.34 -3.97l-2.34 3.97 -0.29 -0.18 2.34 -3.97 0.3 0.02 -0.01 0.16zm-0.29 -0.18l0.17 -0.28 0.13 0.3 -0.3 -0.02zm2.24 2.59l-0.13 0.31 -0.03 -0.01 -0.08 -0.06 -0.08 -0.06 -0.08 -0.06 -0.07 -0.06 -0.08 -0.07 -0.07 -0.06 -0.08 -0.07 -0.07 -0.07 -0.07 -0.07 -0.07 -0.07 -0.07 -0.08 -0.07 -0.07 -0.07 -0.08 -0.07 -0.08 -0.07 -0.08 -0.06 -0.09 -0.07 -0.08 -0.06 -0.09 -0.07 -0.09 -0.06 -0.09 -0.06 -0.1 -0.06 -0.09 -0.06 -0.1 -0.06 -0.1 -0.06 -0.1 -0.05 -0.1 -0.06 -0.11 -0.05 -0.1 -0.06 -0.11 -0.05 -0.11 -0.05 -0.12 -0.05 -0.11 0.31 -0.14 0.05 0.11 0.05 0.11 0.05 0.11 0.05 0.1 0.05 0.11 0.06 0.1 0.05 0.1 0.05 0.09 0.06 0.1 0.06 0.09 0.05 0.09 0.06 0.09 0.06 0.09 0.06 0.08 0.06 0.08 0.06 0.09 0.07 0.07 0.06 0.08 0.06 0.08 0.07 0.07 0.06 0.07 0.07 0.07 0.07 0.07 0.06 0.07 0.07 0.06 0.07 0.07 0.07 0.06 0.07 0.06 0.07 0.06 0.08 0.05 0.07 0.06 0.07 0.05 -0.03 -0.02zm-0.13 0.31l-0.02 0 -0.01 -0.01 0.03 0.01z"/>
  </g>
  <g>
   <polygon class="fil0" points="49.95,46.01 51.1,46.72 49.86,48.79 48.71,48.08 "/>
   <path id="1" class="fil1" d="M51.01 46.86l-1.15 -0.71 0.17 -0.29 1.16 0.71 0.05 0.24 -0.23 0.05zm0.18 -0.29l0.14 0.09 -0.09 0.15 -0.05 -0.24zm-1.47 2.13l1.23 -2.07 0.29 0.18 -1.23 2.06 -0.24 0.06 -0.05 -0.23zm0.29 0.17l-0.09 0.15 -0.15 -0.09 0.24 -0.06zm-1.21 -0.94l1.15 0.71 -0.18 0.29 -1.15 -0.71 -0.05 -0.23 0.23 -0.06zm-0.18 0.29l-0.14 -0.09 0.09 -0.14 0.05 0.23zm1.47 -2.13l-1.23 2.07 -0.29 -0.17 1.23 -2.07 0.23 -0.06 0.06 0.23zm-0.29 -0.17l0.09 -0.15 0.14 0.09 -0.23 0.06z"/>
  </g>
  <g>
   <path class="fil5" d="M37.77 37.06c0.97,0.89 1.47,1.73 1.19,2.18 -0.41,0.66 -2.35,0.2 -4.34,-1.02 -1.98,-1.23 -3.26,-2.76 -2.85,-3.42 0.28,-0.45 1.26,-0.39 2.48,0.09l8.64 -13.97 3.52 2.18 -8.64 13.96z"/>
   <path id="1" class="fil1" d="M39.1 39.33l-0.28 -0.18 0 0 0.01 -0.02 0.01 -0.03 0.02 -0.04 0 -0.03 0.01 -0.04 0 -0.04 0 -0.04 -0.01 -0.05 -0.01 -0.05 -0.01 -0.05 -0.02 -0.06 -0.02 -0.05 -0.02 -0.06 -0.03 -0.06 -0.03 -0.07 -0.03 -0.06 -0.04 -0.07 -0.05 -0.07 -0.04 -0.07 -0.05 -0.07 -0.05 -0.07 -0.06 -0.08 -0.06 -0.07 -0.06 -0.08 -0.07 -0.07 -0.07 -0.08 -0.07 -0.08 -0.08 -0.08 -0.08 -0.08 -0.08 -0.08 -0.08 -0.08 -0.09 -0.08 0.23 -0.25 0.09 0.08 0.09 0.09 0.08 0.08 0.08 0.08 0.08 0.09 0.08 0.08 0.07 0.08 0.07 0.08 0.07 0.08 0.07 0.08 0.06 0.09 0.05 0.07 0.06 0.08 0.05 0.08 0.05 0.08 0.04 0.07 0.04 0.08 0.04 0.07 0.03 0.08 0.03 0.07 0.02 0.07 0.03 0.07 0.01 0.07 0.02 0.07 0 0.07 0.01 0.07 -0.01 0.07 0 0.06 -0.02 0.07 -0.02 0.06 -0.02 0.06 -0.04 0.06 0 0zm-4.56 -0.97l0.17 -0.29 0 0 0.19 0.11 0.18 0.11 0.18 0.1 0.18 0.1 0.18 0.09 0.18 0.09 0.18 0.08 0.17 0.08 0.17 0.08 0.17 0.07 0.16 0.06 0.17 0.05 0.15 0.06 0.16 0.05 0.15 0.04 0.14 0.03 0.14 0.04 0.14 0.02 0.13 0.02 0.12 0.01 0.11 0.01 0.11 0.01 0.11 -0.01 0.09 0 0.09 -0.02 0.07 -0.01 0.07 -0.03 0.06 -0.02 0.05 -0.03 0.04 -0.03 0.04 -0.04 0.03 -0.04 0.28 0.18 -0.05 0.08 -0.07 0.07 -0.08 0.06 -0.09 0.05 -0.09 0.04 -0.1 0.03 -0.1 0.03 -0.11 0.01 -0.12 0.01 -0.12 0 -0.12 0 -0.13 -0.01 -0.14 -0.01 -0.14 -0.03 -0.15 -0.02 -0.15 -0.04 -0.15 -0.04 -0.16 -0.04 -0.16 -0.05 -0.16 -0.05 -0.17 -0.07 -0.17 -0.06 -0.18 -0.07 -0.18 -0.08 -0.18 -0.08 -0.18 -0.08 -0.18 -0.09 -0.19 -0.1 -0.18 -0.1 -0.19 -0.11 -0.19 -0.11 -0.18 -0.11 0 0zm-2.91 -3.65l0.28 0.17 0 0 -0.02 0.05 -0.01 0.04 -0.01 0.05 -0.01 0.06 0.01 0.07 0.01 0.07 0.02 0.08 0.02 0.08 0.04 0.09 0.04 0.09 0.05 0.09 0.06 0.11 0.07 0.1 0.08 0.1 0.08 0.11 0.09 0.12 0.1 0.11 0.1 0.11 0.11 0.12 0.12 0.12 0.12 0.12 0.13 0.12 0.14 0.12 0.14 0.12 0.15 0.12 0.15 0.12 0.16 0.12 0.16 0.12 0.17 0.12 0.17 0.11 0.18 0.12 0.18 0.11 -0.17 0.29 -0.19 -0.12 -0.18 -0.12 -0.18 -0.12 -0.17 -0.12 -0.17 -0.12 -0.17 -0.13 -0.15 -0.12 -0.15 -0.12 -0.15 -0.13 -0.14 -0.12 -0.14 -0.13 -0.13 -0.12 -0.12 -0.12 -0.12 -0.13 -0.11 -0.12 -0.1 -0.12 -0.1 -0.12 -0.09 -0.11 -0.08 -0.12 -0.07 -0.11 -0.07 -0.12 -0.06 -0.11 -0.05 -0.11 -0.04 -0.11 -0.04 -0.1 -0.02 -0.11 -0.02 -0.1 0 -0.1 0 -0.1 0.02 -0.09 0.03 -0.1 0.05 -0.08 0 0zm2.48 0.09l0.28 0.17 -0.2 0.07 -0.11 -0.04 -0.11 -0.04 -0.11 -0.04 -0.11 -0.03 -0.1 -0.03 -0.1 -0.03 -0.1 -0.03 -0.1 -0.03 -0.1 -0.02 -0.09 -0.02 -0.09 -0.02 -0.09 -0.01 -0.09 -0.01 -0.08 -0.01 -0.08 -0.01 -0.08 -0.01 -0.08 0 -0.07 0 -0.06 0.01 -0.07 0 -0.06 0.01 -0.05 0.01 -0.06 0.01 -0.04 0.01 -0.05 0.02 -0.04 0.02 -0.03 0.02 -0.03 0.02 -0.03 0.02 -0.03 0.02 -0.02 0.03 -0.02 0.02 -0.28 -0.17 0.04 -0.06 0.04 -0.05 0.05 -0.04 0.05 -0.05 0.05 -0.03 0.06 -0.04 0.07 -0.02 0.06 -0.03 0.07 -0.02 0.07 -0.01 0.07 -0.02 0.08 -0.01 0.08 0 0.08 -0.01 0.08 0 0.08 0.01 0.09 0 0.09 0.01 0.1 0.01 0.09 0.01 0.1 0.02 0.09 0.02 0.1 0.02 0.11 0.02 0.1 0.03 0.11 0.03 0.11 0.03 0.11 0.04 0.11 0.03 0.11 0.04 0.12 0.04 0.11 0.05 -0.2 0.07zm0.28 0.17l-0.07 0.12 -0.13 -0.05 0.2 -0.07zm8.64 -13.96l-8.64 13.96 -0.28 -0.17 8.63 -13.97 0.24 -0.05 0.05 0.23zm-0.29 -0.18l0.09 -0.14 0.15 0.09 -0.24 0.05zm3.58 2.41l-3.52 -2.17 0.18 -0.29 3.52 2.18 0.05 0.23 -0.23 0.05zm0.18 -0.28l0.14 0.09 -0.09 0.14 -0.05 -0.23zm-8.87 14.01l8.63 -13.96 0.29 0.18 -8.63 13.96 -0.26 0.04 -0.03 -0.22zm0.03 0.22l-0.11 -0.1 0.08 -0.12 0.03 0.22z"/>
  </g>
  <g>
   <path class="fil0" d="M47.47 23.79c0.79,0.86 1.15,1.64 0.87,2.09 -0.5,0.81 -2.87,0.24 -5.31,-1.26 -2.43,-1.5 -3.99,-3.38 -3.49,-4.19 0.28,-0.45 1.14,-0.48 2.26,-0.15l9.33 -15.09c0.62,-1 1.95,-1.31 2.95,-0.69l2.03 1.25c1,0.62 1.31,1.95 0.69,2.95l-9.33 15.09z"/>
   <path id="1" class="fil1" d="M48.49 25.96l-0.29 -0.17 0 0 0.02 -0.04 0.01 -0.03 0.01 -0.03 0.01 -0.04 0.01 -0.03 0.01 -0.04 0 -0.05 0 -0.04 -0.01 -0.05 0 -0.05 -0.01 -0.05 -0.02 -0.05 -0.01 -0.06 -0.02 -0.06 -0.02 -0.06 -0.03 -0.06 -0.03 -0.06 -0.03 -0.07 -0.03 -0.06 -0.04 -0.07 -0.04 -0.07 -0.04 -0.07 -0.05 -0.07 -0.05 -0.07 -0.05 -0.07 -0.05 -0.08 -0.06 -0.07 -0.06 -0.08 -0.07 -0.08 -0.06 -0.07 -0.07 -0.08 -0.07 -0.08 0.25 -0.23 0.07 0.08 0.07 0.09 0.07 0.08 0.07 0.08 0.06 0.08 0.07 0.08 0.05 0.08 0.06 0.08 0.05 0.07 0.05 0.08 0.05 0.08 0.04 0.07 0.05 0.08 0.04 0.07 0.03 0.08 0.03 0.07 0.03 0.07 0.03 0.07 0.02 0.07 0.02 0.07 0.02 0.07 0.01 0.07 0.01 0.07 0 0.06 0.01 0.07 -0.01 0.06 0 0.07 -0.02 0.06 -0.01 0.06 -0.02 0.06 -0.03 0.06 -0.03 0.05 0 0zm-5.54 -1.2l0.17 -0.28 0 0 0.23 0.13 0.22 0.13 0.23 0.13 0.22 0.12 0.22 0.11 0.22 0.11 0.21 0.1 0.22 0.1 0.21 0.09 0.2 0.08 0.21 0.08 0.2 0.07 0.19 0.07 0.19 0.06 0.18 0.04 0.18 0.05 0.17 0.04 0.17 0.03 0.16 0.02 0.15 0.02 0.14 0.01 0.14 0.01 0.13 -0.01 0.12 -0.01 0.1 -0.01 0.1 -0.02 0.09 -0.03 0.08 -0.04 0.06 -0.03 0.06 -0.05 0.04 -0.04 0.04 -0.05 0.29 0.17 -0.07 0.1 -0.08 0.08 -0.09 0.07 -0.1 0.06 -0.11 0.04 -0.12 0.04 -0.12 0.03 -0.14 0.02 -0.13 0.01 -0.15 0.01 -0.15 -0.01 -0.16 -0.01 -0.17 -0.02 -0.17 -0.03 -0.17 -0.03 -0.19 -0.04 -0.18 -0.05 -0.2 -0.05 -0.19 -0.06 -0.21 -0.07 -0.2 -0.07 -0.21 -0.08 -0.21 -0.09 -0.22 -0.09 -0.22 -0.1 -0.22 -0.1 -0.22 -0.11 -0.23 -0.12 -0.23 -0.12 -0.23 -0.13 -0.22 -0.14 -0.23 -0.14 0 0zm-3.55 -4.42l0.28 0.18 0 0 -0.03 0.06 -0.02 0.06 -0.01 0.07 0 0.07 0 0.08 0.01 0.1 0.03 0.09 0.03 0.11 0.04 0.11 0.06 0.11 0.06 0.12 0.08 0.13 0.08 0.12 0.09 0.13 0.11 0.14 0.11 0.14 0.12 0.14 0.13 0.14 0.13 0.14 0.15 0.15 0.15 0.14 0.16 0.15 0.17 0.15 0.17 0.14 0.18 0.15 0.19 0.15 0.19 0.15 0.2 0.14 0.21 0.15 0.21 0.14 0.22 0.15 0.22 0.14 -0.17 0.28 -0.23 -0.14 -0.22 -0.15 -0.22 -0.14 -0.21 -0.15 -0.21 -0.15 -0.2 -0.15 -0.19 -0.15 -0.19 -0.16 -0.18 -0.15 -0.17 -0.15 -0.16 -0.15 -0.16 -0.15 -0.15 -0.15 -0.14 -0.15 -0.14 -0.15 -0.12 -0.15 -0.12 -0.14 -0.11 -0.14 -0.1 -0.15 -0.09 -0.13 -0.08 -0.14 -0.07 -0.14 -0.06 -0.13 -0.06 -0.13 -0.04 -0.12 -0.03 -0.13 -0.02 -0.12 0 -0.12 0 -0.12 0.03 -0.11 0.03 -0.11 0.06 -0.1 0 0zm2.25 -0.15l0.29 0.18 -0.19 0.07 -0.1 -0.03 -0.1 -0.03 -0.1 -0.02 -0.1 -0.02 -0.09 -0.02 -0.09 -0.02 -0.1 -0.02 -0.08 -0.01 -0.09 -0.01 -0.09 -0.01 -0.08 -0.01 -0.08 -0.01 -0.07 0 -0.08 0 -0.07 0 -0.07 0 -0.06 0.01 -0.07 0 -0.06 0.01 -0.05 0.01 -0.06 0.02 -0.05 0.01 -0.05 0.02 -0.04 0.02 -0.04 0.02 -0.04 0.02 -0.03 0.02 -0.03 0.02 -0.03 0.03 -0.02 0.02 -0.03 0.03 -0.02 0.03 -0.28 -0.18 0.03 -0.05 0.04 -0.05 0.05 -0.05 0.04 -0.04 0.05 -0.04 0.06 -0.03 0.05 -0.03 0.06 -0.03 0.07 -0.03 0.06 -0.02 0.07 -0.02 0.07 -0.02 0.07 -0.01 0.07 -0.01 0.08 -0.01 0.07 -0.01 0.08 0 0.08 0 0.09 0 0.08 0.01 0.09 0 0.09 0.01 0.09 0.01 0.09 0.01 0.1 0.02 0.1 0.02 0.1 0.02 0.1 0.02 0.1 0.02 0.1 0.03 0.11 0.02 0.11 0.03 -0.2 0.08zm0.29 0.18l-0.07 0.11 -0.12 -0.04 0.19 -0.07zm9.33 -15.09l-9.33 15.09 -0.29 -0.18 9.33 -15.09 0 0 0.29 0.18zm2.9 -0.93l-0.18 0.29 0 0 -0.08 -0.05 -0.09 -0.05 -0.09 -0.04 -0.09 -0.03 -0.1 -0.03 -0.09 -0.03 -0.09 -0.02 -0.1 -0.02 -0.1 -0.01 -0.09 -0.01 -0.1 0 -0.09 0 -0.1 0 -0.09 0.02 -0.1 0.01 -0.09 0.02 -0.09 0.02 -0.09 0.03 -0.09 0.04 -0.09 0.03 -0.08 0.04 -0.09 0.05 -0.08 0.05 -0.08 0.05 -0.08 0.06 -0.07 0.06 -0.08 0.06 -0.06 0.07 -0.07 0.08 -0.06 0.08 -0.06 0.08 -0.06 0.08 -0.29 -0.18 0.07 -0.1 0.07 -0.09 0.07 -0.09 0.08 -0.09 0.08 -0.08 0.08 -0.08 0.09 -0.07 0.09 -0.07 0.1 -0.06 0.09 -0.06 0.1 -0.05 0.1 -0.05 0.11 -0.04 0.1 -0.04 0.11 -0.03 0.1 -0.03 0.11 -0.02 0.11 -0.02 0.11 -0.01 0.11 -0.01 0.12 0 0.11 0 0.11 0.01 0.11 0.01 0.11 0.02 0.11 0.03 0.11 0.03 0.11 0.04 0.11 0.04 0.11 0.05 0.1 0.05 0.1 0.06 0 0zm1.85 1.54l-2.03 -1.25 0.18 -0.29 2.02 1.25 0 0 -0.17 0.29zm0.93 2.9l-0.29 -0.18 0 0 0.05 -0.08 0.05 -0.09 0.04 -0.1 0.03 -0.09 0.03 -0.09 0.03 -0.09 0.02 -0.1 0.02 -0.09 0.01 -0.1 0.01 -0.09 0 -0.1 0 -0.09 -0.01 -0.1 -0.01 -0.09 -0.01 -0.1 -0.02 -0.09 -0.03 -0.09 -0.02 -0.09 -0.04 -0.09 -0.03 -0.09 -0.04 -0.09 -0.05 -0.08 -0.05 -0.08 -0.05 -0.08 -0.06 -0.08 -0.06 -0.08 -0.07 -0.07 -0.07 -0.07 -0.07 -0.06 -0.08 -0.07 -0.08 -0.05 -0.08 -0.06 0.17 -0.29 0.1 0.07 0.1 0.07 0.09 0.07 0.09 0.08 0.08 0.08 0.07 0.08 0.08 0.09 0.06 0.09 0.07 0.1 0.05 0.09 0.06 0.1 0.05 0.1 0.04 0.1 0.04 0.11 0.03 0.1 0.03 0.11 0.02 0.11 0.02 0.11 0.01 0.11 0.01 0.11 0 0.11 0 0.12 -0.01 0.11 -0.02 0.11 -0.02 0.11 -0.02 0.11 -0.03 0.11 -0.04 0.11 -0.04 0.11 -0.05 0.1 -0.05 0.11 -0.06 0.1 0 0zm-9.62 14.91l9.33 -15.09 0.29 0.18 -9.33 15.08 -0.27 0.03 -0.02 -0.2zm0.02 0.2l-0.09 -0.09 0.07 -0.11 0.02 0.2z"/>
  </g>
  <g>
   <path class="fil5" d="M55.43 11.39c0.23,0.4 0.3,0.74 0.15,0.98 -0.14,0.24 -0.49,0.33 -0.97,0.29 0.07,-0.04 0.13,-0.1 0.17,-0.17 0.37,-0.59 -0.7,-1.92 -2.39,-2.96 -1.69,-1.05 -3.36,-1.42 -3.73,-0.82 -0.04,0.07 -0.07,0.16 -0.07,0.25 -0.27,-0.42 -0.35,-0.79 -0.2,-1.04 0.15,-0.23 0.48,-0.33 0.94,-0.3l1.44 -2.31c0.66,-1.08 2.09,-1.42 3.17,-0.75l0.11 0.07 1.75 -2.84c0.18,-0.29 0.56,-0.37 0.85,-0.2l0.91 0.57c0.29,0.17 0.38,0.55 0.2,0.84l-1.75 2.84 0.1 0.06c1.08,0.67 1.42,2.1 0.75,3.18l-1.43 2.31z"/>
   <path id="1" class="fil1" d="M55.73 12.46l-0.29 -0.18 0 0 0.01 -0.02 0.01 -0.01 0 -0.02 0.01 -0.01 0 -0.02 0.01 -0.02 0 -0.02 0.01 -0.01 0 -0.02 0 -0.02 0 -0.02 0 -0.03 0 -0.02 0 -0.02 -0.01 -0.03 0 -0.02 0 -0.03 -0.01 -0.02 -0.01 -0.03 0 -0.03 -0.01 -0.03 -0.01 -0.03 -0.01 -0.03 -0.01 -0.03 -0.02 -0.03 -0.01 -0.03 -0.02 -0.03 -0.01 -0.04 -0.02 -0.03 -0.02 -0.03 -0.02 -0.04 -0.02 -0.03 0.3 -0.17 0.02 0.04 0.02 0.04 0.02 0.03 0.02 0.04 0.02 0.04 0.02 0.04 0.01 0.04 0.02 0.04 0.01 0.04 0.02 0.03 0.01 0.04 0.01 0.04 0.01 0.04 0.01 0.03 0.01 0.04 0.01 0.04 0 0.03 0 0.04 0.01 0.03 0 0.04 0 0.03 0 0.03 -0.01 0.04 0 0.04 -0.01 0.03 0 0.04 -0.01 0.03 -0.01 0.03 -0.02 0.03 -0.01 0.04 -0.02 0.03 -0.01 0.03 0 0zm-1.21 0.05l0.17 0.3 -0.07 -0.32 0.04 0.01 0.04 0 0.04 0 0.04 0 0.04 0 0.04 0 0.03 0 0.04 0 0.03 -0.01 0.04 0 0.03 -0.01 0.03 0 0.03 0 0.03 -0.01 0.03 -0.01 0.02 0 0.03 -0.01 0.02 -0.01 0.02 -0.01 0.02 -0.01 0.03 -0.01 0.01 -0.01 0.02 -0.01 0.02 -0.01 0.02 -0.01 0.01 -0.01 0.01 -0.01 0.02 -0.02 0.01 -0.01 0.01 -0.02 0.01 -0.01 0.01 -0.01 0.29 0.18 -0.02 0.02 -0.02 0.04 -0.03 0.02 -0.02 0.03 -0.02 0.02 -0.03 0.03 -0.03 0.02 -0.03 0.02 -0.03 0.02 -0.03 0.01 -0.03 0.03 -0.03 0.01 -0.04 0.01 -0.03 0.02 -0.04 0.01 -0.03 0.01 -0.04 0.01 -0.04 0.01 -0.04 0.01 -0.04 0.01 -0.04 0 -0.03 0 -0.05 0.01 -0.04 0 -0.04 0.01 -0.04 0 -0.05 0 -0.04 0 -0.05 0 -0.04 0 -0.05 -0.01 -0.05 0 -0.07 -0.32zm0.07 0.32l-0.54 -0.04 0.47 -0.28 0.07 0.32zm0.05 -0.42l0.29 0.17 0 0 -0.01 0.01 0 0.01 -0.01 0.01 -0.01 0.02 -0.01 0 0 0.01 0 0 -0.01 0.01 0 0 -0.01 0.01 -0.01 0.01 -0.01 0.01 -0.01 0.01 0 0 -0.01 0.01 0 0.01 -0.01 0.01 -0.02 0.01 0 0 0 0 -0.01 0.01 -0.01 0.01 -0.01 0.01 -0.02 0.01 0 0 0 0 -0.02 0.01 -0.01 0.01 0 0 -0.01 0 -0.01 0.01 -0.01 0.01 -0.17 -0.3 0.01 0 0 0 0.01 -0.01 0 0 0.01 0 0 0 0.01 -0.01 0.01 -0.01 0 0 0 0 0 0.01 0 -0.01 0.01 -0.01 0.01 -0.01 0 0.01 0 0 0 -0.01 0.01 0 0 -0.01 0.01 0 0 0 0 0 0 -0.01 0.01 0 0 -0.01 0.01 -0.01 0 0 0.01 -0.01 -0.01 0.01 0 0 0.01 -0.01 0 -0.01 0 0.01zm-2.34 -2.74l0.18 -0.29 0 0 0.16 0.1 0.15 0.11 0.15 0.1 0.15 0.1 0.14 0.11 0.14 0.1 0.14 0.11 0.12 0.11 0.13 0.11 0.12 0.1 0.11 0.11 0.11 0.11 0.11 0.11 0.1 0.1 0.09 0.11 0.09 0.1 0.08 0.11 0.08 0.1 0.07 0.1 0.06 0.1 0.05 0.1 0.05 0.1 0.05 0.1 0.03 0.09 0.03 0.1 0.02 0.09 0.01 0.09 0 0.09 0 0.09 -0.02 0.09 -0.03 0.08 -0.04 0.08 -0.29 -0.17 0.02 -0.04 0.01 -0.04 0.01 -0.05 0.01 -0.05 -0.01 -0.05 0 -0.06 -0.02 -0.07 -0.02 -0.07 -0.03 -0.08 -0.03 -0.07 -0.04 -0.09 -0.05 -0.08 -0.06 -0.09 -0.06 -0.09 -0.07 -0.1 -0.07 -0.09 -0.09 -0.1 -0.08 -0.1 -0.1 -0.1 -0.09 -0.1 -0.11 -0.1 -0.11 -0.11 -0.11 -0.1 -0.12 -0.1 -0.13 -0.11 -0.13 -0.1 -0.13 -0.1 -0.14 -0.1 -0.14 -0.1 -0.15 -0.1 -0.15 -0.1 -0.15 -0.1 0 0zm-3.49 -0.87l-0.29 -0.18 0 0 0.05 -0.07 0.06 -0.07 0.07 -0.05 0.08 -0.05 0.08 -0.04 0.09 -0.03 0.09 -0.02 0.1 -0.02 0.1 -0.01 0.1 0 0.11 0 0.12 0 0.12 0.01 0.12 0.02 0.13 0.02 0.13 0.03 0.13 0.03 0.13 0.03 0.14 0.05 0.15 0.04 0.14 0.05 0.15 0.06 0.15 0.05 0.15 0.07 0.15 0.07 0.16 0.07 0.16 0.08 0.15 0.08 0.17 0.08 0.15 0.09 0.17 0.09 0.16 0.1 -0.18 0.29 -0.16 -0.09 -0.15 -0.1 -0.16 -0.08 -0.15 -0.08 -0.15 -0.08 -0.16 -0.08 -0.14 -0.07 -0.15 -0.06 -0.15 -0.06 -0.14 -0.06 -0.14 -0.05 -0.14 -0.05 -0.14 -0.04 -0.13 -0.04 -0.12 -0.03 -0.13 -0.03 -0.12 -0.03 -0.11 -0.02 -0.11 -0.01 -0.1 -0.01 -0.1 -0.01 -0.1 0 -0.08 0.01 -0.08 0.01 -0.08 0.01 -0.06 0.02 -0.06 0.02 -0.05 0.02 -0.04 0.03 -0.04 0.02 -0.03 0.03 -0.02 0.04 0 0zm-0.36 0.25l0.29 -0.17 -0.32 0.08 0 -0.02 0 0 0 -0.01 0 -0.01 0 -0.01 0.01 -0.02 0 -0.01 0 -0.01 0 -0.01 0 0 0.01 -0.03 0 0 0 -0.01 0 -0.01 0 -0.01 0.01 -0.02 0 -0.01 0 0 0.01 -0.03 0 0 0 -0.01 0.01 -0.01 0 -0.01 0.01 -0.01 0 -0.01 0.01 -0.01 0 -0.01 0 -0.01 0.01 -0.02 0.01 0 0 -0.01 0.01 -0.01 0.29 0.18 -0.01 0 0 0.01 0 0 0 0 0 0 -0.01 0.02 0 0 0 0.01 0 -0.01 -0.01 0.01 0 0.01 0 0.01 0 0 0 0 0 0.01 -0.01 0.01 0 -0.01 0 0.01 0 0.01 0 0.01 0 0 0 0 0 0.01 -0.01 0.01 0 0.01 0 0 0 0 0 0.01 0 0.01 0 0.01 0 0.01 0 0 -0.31 0.08zm0.31 -0.08l-0.01 0.57 -0.3 -0.49 0.31 -0.08zm-0.51 -1.14l0.29 0.18 0 0 -0.01 0.01 -0.01 0.02 -0.01 0.01 0 0.02 -0.01 0.02 0 0.02 -0.01 0.02 0 0.02 0 0.02 0 0.02 0 0.02 0 0.03 0 0.02 0 0.03 0.01 0.02 0 0.03 0.01 0.03 0 0.03 0.01 0.03 0.01 0.03 0.01 0.03 0.01 0.03 0.02 0.04 0.01 0.03 0.02 0.03 0.01 0.04 0.02 0.03 0.02 0.04 0.02 0.04 0.02 0.03 0.02 0.04 0.03 0.04 -0.29 0.17 -0.03 -0.04 -0.02 -0.04 -0.03 -0.04 -0.02 -0.04 -0.02 -0.04 -0.02 -0.05 -0.02 -0.03 -0.02 -0.05 -0.02 -0.04 -0.01 -0.04 -0.02 -0.04 -0.01 -0.04 -0.01 -0.04 -0.01 -0.03 -0.01 -0.04 -0.01 -0.04 -0.01 -0.04 0 -0.04 -0.01 -0.04 0 -0.04 0 -0.03 0 -0.04 0 -0.04 0.01 -0.03 0 -0.04 0.01 -0.04 0.01 -0.03 0.01 -0.04 0.01 -0.03 0.01 -0.03 0.02 -0.04 0.02 -0.03 0 0zm0.94 -0.3l0.29 0.18 -0.16 0.08 -0.04 0 -0.04 0 -0.03 0 -0.04 0 -0.04 0 -0.03 0 -0.04 0 -0.03 0 -0.04 0.01 -0.03 0 -0.03 0 -0.03 0.01 -0.03 0 -0.02 0.01 -0.03 0.01 -0.03 0 -0.02 0.01 -0.02 0.01 -0.02 0.01 -0.03 0.01 -0.02 0.01 -0.01 0.01 -0.02 0.01 -0.02 0.01 -0.01 0.01 -0.02 0.01 -0.01 0.01 -0.01 0.02 -0.01 0.01 -0.01 0.01 -0.01 0.02 -0.01 0.01 -0.29 -0.18 0.02 -0.03 0.02 -0.03 0.02 -0.02 0.02 -0.03 0.03 -0.02 0.02 -0.03 0.03 -0.02 0.03 -0.02 0.03 -0.02 0.03 -0.02 0.03 -0.01 0.03 -0.02 0.03 -0.01 0.03 -0.02 0.04 -0.01 0.04 -0.01 0.03 -0.01 0.04 -0.01 0.04 -0.01 0.03 0 0.04 -0.01 0.04 -0.01 0.04 0 0.04 -0.01 0.04 0 0.04 0 0.05 0 0.04 0 0.04 0 0.04 0 0.05 0 0.04 0 -0.15 0.08zm0.29 0.18l-0.05 0.09 -0.11 -0.01 0.16 -0.08zm1.43 -2.31l-1.43 2.31 -0.29 -0.18 1.43 -2.31 0 0 0.29 0.18zm3.12 -0.98l-0.18 0.28 0 0 -0.09 -0.05 -0.1 -0.05 -0.1 -0.05 -0.1 -0.03 -0.1 -0.04 -0.1 -0.03 -0.1 -0.02 -0.1 -0.02 -0.1 -0.01 -0.11 -0.01 -0.1 0 -0.11 0 -0.1 0.01 -0.1 0.01 -0.1 0.01 -0.1 0.02 -0.1 0.03 -0.1 0.03 -0.1 0.04 -0.09 0.04 -0.09 0.04 -0.1 0.05 -0.09 0.05 -0.08 0.06 -0.08 0.06 -0.08 0.07 -0.08 0.07 -0.08 0.07 -0.07 0.08 -0.07 0.09 -0.06 0.08 -0.06 0.1 -0.29 -0.18 0.07 -0.11 0.07 -0.1 0.08 -0.1 0.09 -0.09 0.08 -0.08 0.09 -0.09 0.1 -0.07 0.09 -0.08 0.11 -0.06 0.1 -0.06 0.1 -0.06 0.11 -0.05 0.11 -0.05 0.11 -0.04 0.11 -0.04 0.12 -0.02 0.12 -0.03 0.11 -0.02 0.12 -0.01 0.12 -0.01 0.12 0 0.12 0 0.12 0.01 0.12 0.02 0.12 0.02 0.12 0.02 0.11 0.04 0.12 0.04 0.11 0.04 0.12 0.05 0.11 0.06 0.11 0.07 0 0zm-0.07 0.35l-0.11 -0.07 0.18 -0.28 0.11 0.06 0.05 0.24 -0.23 0.05zm0.23 -0.05l-0.09 0.14 -0.14 -0.09 0.23 -0.05zm1.76 -2.84l-1.76 2.84 -0.29 -0.18 1.76 -2.84 0.29 0.18zm0.79 -0.43l-0.18 0.29 0 0 -0.02 -0.02 -0.02 -0.01 -0.02 0 -0.02 -0.01 -0.02 -0.01 -0.03 -0.01 -0.01 0 -0.02 0 -0.03 -0.01 -0.02 0 -0.02 0 -0.02 0 -0.02 0 -0.02 0 -0.03 0.01 -0.02 0 -0.02 0.01 -0.02 0 -0.02 0.01 -0.02 0.01 -0.02 0.01 -0.02 0.01 -0.02 0.01 -0.01 0.01 -0.02 0.01 -0.02 0.02 -0.01 0.01 -0.02 0.02 -0.01 0.02 -0.02 0.01 -0.01 0.02 -0.01 0.02 -0.29 -0.18 0.02 -0.03 0.02 -0.03 0.03 -0.04 0.02 -0.02 0.03 -0.03 0.03 -0.03 0.03 -0.02 0.03 -0.02 0.03 -0.03 0.03 -0.01 0.04 -0.02 0.03 -0.02 0.03 -0.01 0.04 -0.02 0.04 -0.01 0.04 -0.01 0.03 0 0.04 -0.01 0.03 -0.01 0.04 0 0.04 0 0.04 0 0.04 0.01 0.03 0 0.04 0.01 0.04 0.01 0.04 0.01 0.03 0.01 0.04 0.01 0.04 0.02 0.03 0.02 0.04 0.02 0 0zm0.73 0.85l-0.91 -0.56 0.18 -0.29 0.91 0.56 -0.18 0.29zm0.43 0.79l-0.29 -0.18 0 0 0.02 -0.02 0.01 -0.02 0.01 -0.02 0 -0.02 0.01 -0.02 0.01 -0.02 0 -0.02 0.01 -0.02 0 -0.02 0 -0.03 0 -0.02 0 -0.02 0 -0.02 0 -0.02 -0.01 -0.02 0 -0.02 -0.01 -0.02 0 -0.02 -0.01 -0.03 -0.01 -0.02 -0.01 -0.01 -0.01 -0.02 -0.01 -0.02 -0.01 -0.02 -0.01 -0.02 -0.02 -0.01 -0.01 -0.02 -0.02 -0.01 -0.02 -0.02 -0.01 -0.01 -0.02 -0.02 -0.02 -0.01 0.18 -0.29 0.03 0.03 0.03 0.02 0.04 0.02 0.02 0.03 0.03 0.03 0.03 0.03 0.02 0.03 0.03 0.03 0.02 0.03 0.02 0.03 0.01 0.03 0.02 0.04 0.01 0.03 0.02 0.04 0.01 0.03 0.01 0.04 0.01 0.04 0 0.03 0.01 0.04 0 0.04 0 0.03 0 0.04 0 0.04 -0.01 0.04 -0.01 0.04 -0.01 0.04 -0.01 0.03 -0.01 0.04 -0.01 0.03 -0.02 0.04 -0.02 0.04 -0.02 0.03 0 0zm-2.04 2.66l1.75 -2.84 0.29 0.18 -1.75 2.84 -0.23 0.05 -0.06 -0.23zm0.06 0.23l-0.15 -0.09 0.09 -0.14 0.06 0.23zm0.1 0.07l-0.1 -0.07 0.17 -0.29 0.11 0.07 0 0 -0.18 0.29zm0.98 3.12l-0.28 -0.18 0 0 0.05 -0.09 0.05 -0.1 0.05 -0.1 0.03 -0.1 0.04 -0.1 0.03 -0.1 0.02 -0.1 0.02 -0.11 0.01 -0.1 0.01 -0.1 0 -0.11 0 -0.1 0 -0.1 -0.02 -0.1 -0.01 -0.1 -0.02 -0.1 -0.03 -0.1 -0.03 -0.1 -0.03 -0.1 -0.05 -0.09 -0.04 -0.1 -0.05 -0.09 -0.05 -0.09 -0.06 -0.08 -0.06 -0.09 -0.07 -0.08 -0.07 -0.08 -0.07 -0.07 -0.08 -0.07 -0.09 -0.07 -0.08 -0.06 -0.1 -0.06 0.18 -0.29 0.11 0.07 0.1 0.07 0.1 0.08 0.09 0.08 0.09 0.09 0.08 0.09 0.08 0.09 0.07 0.1 0.06 0.1 0.06 0.1 0.06 0.11 0.05 0.11 0.05 0.11 0.04 0.11 0.04 0.11 0.03 0.12 0.02 0.11 0.02 0.12 0.01 0.12 0.01 0.12 0 0.12 0 0.12 -0.01 0.12 -0.02 0.12 -0.02 0.12 -0.02 0.11 -0.04 0.12 -0.04 0.12 -0.04 0.11 -0.05 0.12 -0.06 0.11 -0.07 0.11 0 0zm-1.71 2.13l1.43 -2.31 0.28 0.18 -1.43 2.31 -0.29 0 0.01 -0.18zm-0.01 0.18l-0.05 -0.09 0.06 -0.09 -0.01 0.18z"/>
  </g>
  <g>
   <path class="fil0" d="M10.39 42.27l1.99 0.42c0.09,0.02 0.17,-0.03 0.19,-0.12l0.1 -0.48c0.02,-0.09 -0.03,-0.17 -0.12,-0.19l-1.99 -0.42c-0.09,-0.02 -0.17,0.03 -0.19,0.12l-0.1 0.48c-0.02,0.09 0.03,0.17 0.12,0.19z"/>
   <path id="1" class="fil1" d="M12.35 42.86l-2 -0.42 0.07 -0.33 2 0.42 -0.07 0.33 0 0zm0.05 -0.32l0.34 0.07 0 0 -0.01 0.01 0 0.02 -0.01 0.01 0 0.02 -0.01 0.01 -0.01 0.01 -0.01 0.02 -0.01 0.03 -0.01 0 0 0.01 -0.01 0.01 -0.02 0.02 -0.01 0.01 -0.01 0 -0.01 0.01 -0.02 0.01 0 0.01 -0.02 0.01 -0.02 0.01 -0.01 0 -0.02 0.01 -0.01 0 -0.02 0.01 -0.02 0 -0.01 0 0 0 -0.03 0.01 -0.02 0 -0.02 0 -0.02 -0.01 0 0 -0.02 0 0.07 -0.33 -0.01 0 0.01 0 0 0 -0.01 0 0 0 -0.01 0 0.01 0 0.01 0 -0.01 0 0 0 0.01 0 -0.01 0 0.01 0 -0.01 0 -0.01 0 0.01 0 -0.01 0 0.01 0 0 -0.01 0 0.01 0 0 -0.01 0 0.01 0 0 -0.01 0 0.01 -0.01 0.01 0.01 -0.01 -0.01 0.01 0 -0.01 0 0.01 0 0 0 0 0 0zm0.44 -0.42l-0.1 0.49 -0.34 -0.07 0.11 -0.49 0 0 0.33 0.07zm-0.33 -0.06l0.08 -0.33 -0.01 0 0.02 0.01 0.01 0 0.02 0.01 0.02 0 0.01 0.01 0.01 0 0.02 0.02 0.02 0.01 0 0 0.02 0.01 0.02 0.02 0.01 0.01 0 0.01 0.01 0.01 0.01 0.01 0.01 0.02 0.01 0 0.01 0.02 0.01 0.02 0 0.01 0.01 0.01 0.01 0.03 0 0.01 0 0.01 0 0.02 0 0.02 0 0.02 0 0.01 0 0.02 0 0.02 0 0 0 0.02 -0.33 -0.07 0 0.01 0 -0.01 0 0 0 0.01 0 -0.01 0 0 0 0.01 0 0 0 0 -0.01 -0.01 0.01 0.01 0 0 0 -0.01 0 0.01 0 0.01 0 -0.01 0 0 0 0 0 0 0 0 0 0 0 0.01 0.01 0 -0.01 -0.01 0 0 0.01 0.01 -0.01 -0.01 0.01 0 -0.01 0 0.01 0 0 0.01 0 -0.01 -0.01 0zm-1.92 -0.75l2 0.42 -0.08 0.33 -1.99 -0.42 0 0 0.07 -0.33zm-0.06 0.32l-0.33 -0.07 0 0.01 0.01 -0.01 0 -0.03 0.01 -0.02 0 0 0.01 -0.03 0.01 -0.01 0 -0.01 0.02 -0.02 0.01 -0.01 0 -0.01 0.01 -0.01 0.01 -0.01 0.02 -0.01 0.01 -0.02 0.01 -0.01 0.01 0 0.02 -0.02 0.01 0 0.01 0 0.02 -0.01 0.02 -0.01 0 0 0.03 -0.01 0.02 0 0 0 0.03 -0.01 0.02 0 0 0 0.02 0 0.02 0.01 0.01 0 0.02 0 -0.07 0.33 0.01 0 -0.01 0 0 0 0 0 0 0 0 0 0.01 0 -0.01 0 0 0 0.01 0 -0.01 0 0.01 0 0 0 0 0 -0.01 0 0.01 0 0 0 -0.01 0 0.01 0 0 0 0 0 0 -0.01 0 0.01 0 0 0 -0.01 0 0.01 0 0 0.01 -0.01 -0.01 0.01 0 -0.01 0.01 0 -0.01 0 0 0zm-0.43 0.42l0.1 -0.49 0.33 0.07 -0.1 0.49 0 0 -0.33 -0.07zm0.32 0.06l-0.07 0.33 0 0 -0.02 -0.01 -0.01 0 -0.01 -0.01 -0.01 0 -0.03 -0.01 -0.02 -0.01 0 0 -0.01 -0.01 -0.03 -0.02 -0.01 -0.01 0.01 0 -0.02 -0.01 -0.02 -0.02 -0.01 -0.01 -0.01 -0.01 -0.01 -0.02 -0.01 -0.01 0 -0.02 -0.01 0 0 -0.02 -0.01 -0.02 0 -0.01 -0.01 -0.02 0 -0.02 0 -0.01 -0.01 -0.02 0 -0.02 0 -0.01 0 -0.02 0.01 -0.02 0 0 0 -0.02 0.33 0.07 0 -0.01 0 0.01 0 0 0 -0.01 0 0.01 0 0 0 -0.01 0 0.01 0 -0.01 0 0 0 0 0 0 0 0 0 0 0 0 0 0 0 0 0 0 0 0 -0.01 0 0 -0.01 0.01 0.01 0.01 0.01 -0.02 -0.02 0 0 0.01 0.01 -0.01 0 0 -0.01 0 0 0 0 0.01 0.01 -0.01 0 0 0z"/>
  </g>
  <g>
   <polygon class="fil0" points="50,44.59 52.37,46.03 51.67,47.19 49.29,45.76 "/>
   <path id="1" class="fil1" d="M52.28 46.17l-2.37 -1.43 0.18 -0.29 2.37 1.43 0.06 0.23 -0.24 0.06zm0.18 -0.29l0.14 0.09 -0.08 0.14 -0.06 -0.23zm-0.94 1.23l0.71 -1.17 0.29 0.17 -0.71 1.17 -0.23 0.06 -0.06 -0.23zm0.29 0.17l-0.09 0.15 -0.14 -0.09 0.23 -0.06zm-2.43 -1.66l2.37 1.43 -0.17 0.29 -2.37 -1.43 -0.06 -0.24 0.23 -0.05zm-0.17 0.29l-0.15 -0.09 0.09 -0.15 0.06 0.24zm0.93 -1.23l-0.7 1.17 -0.29 -0.18 0.7 -1.16 0.24 -0.06 0.05 0.23zm-0.29 -0.17l0.09 -0.15 0.15 0.09 -0.24 0.06z"/>
  </g>
 </g>
</svg>
