<svg xmlns="http://www.w3.org/2000/svg" width="46" height="70" fill-rule="evenodd" clip-rule="evenodd" image-rendering="optimizeQuality" shape-rendering="geometricPrecision" text-rendering="geometricPrecision" viewBox="0 0 46.4 71.13"><defs><style>.fil6{fill:#fefefe}.fil4{fill:#2b2a29}.fil2{fill:#f08bb2}.fil5{fill:#c4d985}.fil0{fill:#a1b567}.fil1{fill:#2b2a29;fill-rule:nonzero}</style></defs><g id="Слой_x0020_1"><path d="M31.54 24.85c-2.78 0 0 0 0 0zm.36 7.83c2.88.78 7.23 6.9 7.23 8.13 0 1.81 1.58 3.27 3.53 3.27 1.95 0 3.53-1.46 3.53-3.27.77-6.66-12.69-15.96-14.65-15.96l-16.69.24C12.9 25.09-.57 34.39.2 41.05c0 1.81 1.58 3.27 3.54 3.27 1.95 0 3.53-1.46 3.53-3.27 0-1.01 3.45-5.54 6.28-7.55-2.56 4.15-5.09 11.07-5.09 14.33-.97 6.82 1.96 23.12 5.72 23.12 6.89 0 6.34-3.42 4.88-7.68-1.14-3.31 2.13-6.88 4.62-6.89 2.12-.02 3.32 1.83 3.96 5.23.67 3.59-5.11 9.8 4.54 8.92 6.52-2.4 5.93-19.71 5.93-23.17 0-3.45-2.48-10.83-6.21-14.68zm-17.05-7.59z" class="fil0"/><path id="1" d="M31.54 25.02v-.34.34h-1.23v-.34h1.23v.34H30.31v-.34h1.23v.34zm7.76 15.79h-.34l-.01-.1-.04-.13-.05-.17-.08-.2-.1-.22-.12-.24-.15-.26-.15-.27-.18-.29-.19-.3-.21-.31-.22-.32-.23-.32-.25-.33-.26-.33-.26-.34-.27-.33-.28-.33-.29-.32-.29-.31-.3-.31-.3-.3-.3-.28-.3-.27-.3-.25-.3-.23-.29-.21-.3-.19-.28-.17-.28-.14-.27-.11-.26-.09.09-.33.29.09.29.13.3.15.3.17.31.2.31.22.31.25.31.25.3.28.31.29.31.3.3.31.29.32.3.33.28.33.28.34.27.33.25.34.25.33.24.33.22.33.22.31.19.31.18.29.16.28.15.27.13.25.1.23.09.22.06.19.04.18.02.15zm3.36 3.1v.34h-.19l-.19-.01-.18-.02-.18-.03-.18-.04-.18-.05-.17-.05-.17-.06-.16-.07-.16-.08-.16-.08-.15-.09-.14-.1-.14-.1-.14-.1-.12-.12-.13-.12-.11-.12-.11-.13-.11-.14-.09-.14-.09-.14-.09-.15-.07-.15-.07-.16-.06-.16-.05-.16-.04-.17-.03-.17-.02-.17-.02-.18v-.18h.34v.16l.02.16.02.15.03.16.03.14.05.15.05.14.06.14.07.14.07.14.08.13.09.12.09.12.1.12.11.11.11.11.11.1.13.1.13.09.13.09.13.08.14.07.15.07.15.07.15.05.16.05.16.04.16.04.17.03.16.01.18.02h.17zm3.36-3.11l.34.03v-.02.18l-.01.18-.03.17-.03.17-.04.17-.05.16-.06.16-.07.16-.07.15-.09.15-.08.14-.1.14-.11.14-.11.13-.11.12-.13.12-.12.12-.14.1-.14.1-.14.1-.15.09-.16.08-.16.08-.16.07-.17.06-.17.05-.18.05-.18.04-.18.03-.18.02-.19.01h-.19v-.34h.17l.18-.02.16-.01.17-.03.16-.04.16-.04.16-.05.15-.05.15-.07.15-.07.14-.07.13-.08.14-.09.12-.09.12-.1.12-.1.11-.11.11-.11.1-.12.09-.12.09-.13.08-.12.07-.14.07-.14.06-.14.05-.14.05-.15.03-.14.03-.16.02-.15.02-.16v-.17zm0 .01v-.01.01zM31.55 25.02l-.01-.34.26.03.29.08.35.14.4.18.44.22.49.27.53.31.56.35.59.39.61.42.63.45.65.49.66.51.67.54.67.56.66.59.66.6.65.62.62.64.61.65.58.66.54.67.52.68.47.69.42.68.38.69.32.69.26.68.19.68.13.68.05.66-.04.65-.34-.03.03-.62-.04-.62-.12-.64-.19-.65-.25-.66-.31-.66-.36-.67-.42-.68-.46-.67-.51-.66-.53-.67-.58-.65-.6-.64-.62-.63-.63-.62-.66-.6-.66-.58-.66-.56-.66-.53-.66-.51-.64-.48-.63-.45-.61-.42-.58-.38-.55-.34-.52-.31-.48-.26-.43-.22-.38-.18-.33-.12-.26-.08-.18-.02h.01zm-.01-.34zm-16.69.24l16.69-.24.01.34-16.7.24v-.34zm0 .34zM.37 41.05H.03v.02L0 40.42l.05-.67.12-.67.2-.68.26-.69.32-.68.37-.69.43-.69.47-.68.51-.68.55-.67.58-.66.6-.65.63-.64.65-.62.65-.61.67-.58.67-.56.66-.54.66-.51.65-.49.64-.45.61-.42.59-.39.56-.35.52-.31.49-.27.44-.23.4-.18.35-.13.3-.08.25-.03v.34l-.18.02-.26.08-.32.12-.38.17-.44.22-.48.27-.51.3-.56.35-.58.38-.61.42-.62.45-.65.48-.65.51-.67.53-.66.56-.66.58-.65.6-.64.61-.62.63-.6.65-.57.65-.54.66-.5.67-.46.67-.42.67-.37.67-.31.67-.25.66-.18.65-.12.64-.05.62.03.61v.02zm0-.02v.02-.02zm3.37 3.12v.34h-.19l-.19-.02-.19-.02-.18-.03-.18-.04-.17-.04-.17-.06-.17-.06-.17-.07-.15-.07-.16-.08-.15-.09-.15-.1-.14-.1-.13-.11-.13-.11-.12-.12-.12-.13-.11-.13-.1-.13-.1-.14-.09-.15-.08-.14-.08-.16-.06-.15-.06-.16-.05-.17-.04-.16-.04-.17-.02-.18-.01-.17-.01-.18h.34l.01.16.01.16.02.15.03.15.04.15.04.15.06.14.06.14.06.14.08.13.08.13.09.13.09.12.1.12.1.11.11.11.12.1.12.1.13.09.13.09.14.08.14.07.14.07.15.06.16.06.15.05.16.04.17.03.16.03.17.02.17.01.18.01zm3.36-3.1h.34v.18l-.02.17-.02.18-.04.17-.04.16-.05.17-.06.16-.06.15-.08.16-.08.14-.09.15-.1.14-.1.13-.11.13-.12.13-.12.12-.13.11-.13.11-.14.1-.15.1-.15.09-.15.08-.16.07-.17.07-.16.06-.18.06-.17.04-.18.04-.18.03-.19.02-.18.02h-.19v-.34l.17-.01.17-.01.17-.02.17-.03.16-.03.16-.04.16-.05.15-.06.15-.06.14-.07.14-.07.14-.08.13-.09.13-.09.12-.1.12-.1.11-.11.1-.11.1-.12.1-.12.08-.13.08-.13.08-.13.06-.14.06-.14.06-.14.04-.15.04-.15.03-.15.02-.15.01-.16.01-.16zm6.6-7.46l-.29-.18.24.23-.26.19-.27.21-.27.22-.27.23-.27.24-.27.25-.27.26-.27.26-.27.28-.27.27-.26.28-.25.29-.25.28-.25.29-.24.28-.23.28-.22.28-.21.28-.21.27-.19.27-.18.25-.17.25-.16.24-.14.22-.13.22-.11.2-.1.19-.08.17-.06.15-.05.13-.02.1-.01.08H7.1l.01-.13.03-.15.06-.15.07-.17.08-.19.1-.19.12-.21.14-.23.14-.23.16-.24.18-.25.18-.27.2-.26.2-.28.22-.28.23-.28.23-.29.24-.29.25-.28.25-.29.26-.29.27-.28.26-.28.27-.28.28-.27.27-.26.28-.26.28-.24.27-.24.28-.22.27-.21.27-.2.25.23zm-.25-.23l.69-.49-.44.72-.25-.23zM8.63 47.85l-.34-.05v.03-.33l.03-.34.03-.36.05-.38.07-.39.07-.41.09-.43.1-.43.11-.45.12-.46.13-.47.14-.47.15-.49.16-.49.17-.49.17-.5.19-.5.19-.5.19-.51.21-.5.2-.5.22-.49.22-.49.22-.49.23-.48.23-.47.23-.47.24-.45.23-.44.24-.43.25-.41.24-.4.29.18-.24.39-.24.41-.23.43-.24.43-.23.45-.24.46-.22.47-.23.47-.22.49-.22.48-.21.5-.21.49-.2.5-.19.5-.19.5-.18.5-.18.49-.16.49-.16.49-.15.48-.14.47-.13.46-.12.45-.11.45-.1.43-.08.41-.08.41-.06.38-.05.37-.03.35-.02.33-.01.31v.02zm0-.02v.02-.02zm5.55 22.95v.35l-.4-.06-.38-.15-.36-.24-.35-.32-.34-.4-.32-.46-.32-.53-.3-.6-.3-.64-.28-.7-.27-.75-.26-.79-.25-.83-.24-.87-.22-.89-.21-.91-.2-.94L9 60.1l-.17-.96-.15-.97-.13-.97-.12-.97-.1-.95-.09-.95-.06-.92-.05-.91-.02-.88-.01-.84.01-.81.04-.77.06-.72.08-.68.34.05-.08.66-.06.71-.03.76-.02.8.01.84.03.87.04.9.07.92.08.93.1.95.12.96.13.97.15.96.17.96.18.94.19.93.21.91.22.89.24.85.25.82.25.79.27.73.28.69.29.64.29.57.31.51.3.45.32.36.31.29.31.21.31.12.31.04zm4.71-7.46l.33-.11.13.4.13.39.12.39.11.38.11.38.09.37.07.36.07.36.05.35.03.34.02.33-.01.32-.02.31-.05.3-.07.3-.09.28-.12.27-.15.26-.18.24-.2.23-.24.21-.27.19-.3.18-.33.16-.36.14-.4.13-.44.1-.47.09-.51.07-.54.05-.59.03-.63.01v-.35l.62-.01.57-.03.54-.04.49-.07.45-.08.42-.1.37-.12.34-.14.31-.14.27-.16.24-.18.21-.19.19-.2.15-.21.13-.23.11-.23.08-.26.07-.26.04-.28.02-.29v-.3l-.01-.31-.03-.32-.05-.34-.06-.34-.08-.35-.09-.36-.1-.37-.11-.38-.12-.38-.12-.39-.14-.4zm4.79-7.11v.34l-.22.01-.22.03-.23.05-.24.06-.23.09-.24.1-.23.12-.23.13-.23.15-.23.16-.22.18-.22.19-.21.2-.2.21-.2.23-.18.23-.18.24-.16.26-.15.26-.14.26-.13.28-.1.27-.1.29-.07.29-.06.29-.04.29-.02.3v.3l.02.3.04.29.07.31.09.29-.33.11-.09-.32-.07-.32-.05-.33-.02-.32v-.32l.02-.32.04-.32.06-.31.08-.31.1-.3.12-.3.13-.29.14-.28.16-.27.18-.27.18-.26.2-.24.2-.24.22-.22.22-.21.23-.2.23-.19.24-.17.25-.16.25-.14.25-.13.25-.11.26-.09.25-.08.26-.05.25-.03.25-.01zm4.12 5.36l-.33.07-.06-.31-.07-.31-.07-.29-.07-.28-.07-.28-.08-.26-.08-.26-.08-.24-.09-.24-.09-.22-.1-.21-.1-.21-.1-.19-.11-.19-.11-.17-.11-.17-.12-.15-.12-.15-.13-.13-.13-.12-.13-.12-.14-.1-.14-.09-.14-.09-.15-.07-.16-.07-.16-.05-.16-.04-.17-.04-.18-.02-.18-.02h-.19v-.34h.21l.2.02.19.02.2.04.18.05.18.06.18.07.17.09.16.09.16.11.16.11.14.13.15.14.13.15.14.15.13.17.12.18.12.18.11.2.11.21.1.21.1.23.1.23.09.24.09.26.08.26.08.27.08.28.07.29.07.3.06.31.06.31zm4.32 8.8l.12.32-.04.01-.87.06-.78.03-.7-.02-.63-.05-.55-.09-.48-.12-.42-.16-.36-.19-.31-.22-.24-.26-.2-.27-.14-.31-.09-.32-.06-.33-.01-.35.01-.37.04-.37.07-.38.08-.39.1-.39.11-.4.11-.4.11-.4.12-.4.1-.4.1-.4.08-.39.07-.38.04-.37.02-.35-.01-.35-.04-.32.33-.07.05.37.01.37-.02.38-.04.39-.07.4-.08.4-.1.4-.11.41-.12.4-.11.4-.11.4-.11.4-.09.38-.08.38-.07.36-.04.35-.01.34.01.31.05.3.08.27.12.25.16.24.21.21.26.19.32.17.38.14.45.11.53.09.6.05.68.01.77-.02.85-.06-.05.01zm.12.32l-.02.01h-.02l.04-.01zm5.7-23.33h.34l.01.37v.95l.01.57v.64l-.01.69v.74l-.02.79-.02.82-.03.86-.04.89-.05.91-.07.93-.08.94-.1.95-.12.96-.13.95-.16.94-.18.93-.2.91-.23.88-.25.86-.28.83-.31.78-.35.74-.37.69-.41.64-.45.58-.49.51-.52.44-.57.36-.62.28-.12-.32.57-.26.53-.34.5-.41.46-.48.43-.56.39-.61.37-.67.33-.72.31-.77.27-.81.25-.85.23-.87.2-.9.17-.92.16-.94.13-.94.12-.94.09-.95.09-.94.06-.92.06-.91.04-.88.03-.86.02-.82.02-.78V48.17l-.01-.44v-.37zm-6-14.85l-.09.33.17-.28.35.37.34.4.34.41.32.43.32.44.31.46.3.47.29.48.28.49.27.5.27.51.25.51.24.51.23.52.22.52.21.52.2.52.19.52.18.51.16.51.16.5.14.49.13.49.11.47.11.46.09.45.07.44.07.41.05.4.04.39.02.36v.34h-.34l-.01-.32-.02-.36-.03-.37-.05-.39-.06-.41-.08-.42-.09-.44-.1-.46-.12-.47-.12-.47-.14-.49-.15-.5-.17-.5-.17-.5-.19-.52-.2-.51-.2-.51-.22-.52-.23-.51-.24-.51-.25-.51-.26-.5-.27-.49-.28-.48-.28-.48-.3-.46-.3-.45-.31-.44-.32-.42-.33-.4-.34-.39-.34-.36.17-.29zm-.17.29l-.43-.45.6.16-.17.29zm-16.92-7.71z" class="fil1"/><path d="M9.22 43.53c9.97 1.57 21.26 1.87 28.04-.9.55 1.84.85 3.53.85 4.73 0 1.99.2 8.52-.87 14.19-2.56.54-5.8.26-9.82-.96-.68-2.75-1.84-4.23-3.74-4.21-1.75.01-3.88 1.77-4.6 3.97-3.49.71-6.73.98-9.71.78-.96-4.74-1.37-10.08-.91-13.3 0-1.1.29-2.61.76-4.3z" class="fil2"/><path id="1" d="M37.42 42.58l-.33.1.23.11-.65.25-.68.24-.7.22-.73.2-.75.18-.77.16-.79.16-.8.13-.83.12-.84.1-.86.09-.87.08-.89.06-.89.05-.91.03-.92.02-.93.01-.94-.01-.94-.01-.95-.03-.96-.04-.95-.05-.97-.06-.96-.08-.96-.08-.97-.09-.96-.1-.96-.11-.95-.12-.96-.13-.94-.13-.94-.15.05-.34.94.15.94.13.95.13.95.12.96.11.96.1.96.09.96.08.96.07.95.06.96.06.95.03.95.03.94.02.93.01.92-.01.92-.02.9-.04.89-.04.88-.07.87-.07.85-.09.83-.1.82-.12.8-.13.78-.15.76-.17.74-.18.72-.2.69-.21.67-.23.64-.25.23.11zm-.23-.11l.18-.07.05.18-.23-.11zm1.09 4.89h-.34v-.22l-.01-.12v-.12l-.01-.12-.01-.13-.01-.13-.01-.13-.02-.13-.01-.14-.02-.13-.02-.14-.02-.15-.03-.14-.02-.15-.03-.14-.02-.15-.03-.16-.03-.15-.04-.16-.03-.15-.04-.16-.03-.16-.04-.16-.04-.17-.04-.16-.05-.16-.04-.17-.05-.17-.05-.17-.05-.17-.05-.17.33-.1.06.17.04.18.05.17.05.17.05.17.04.16.04.17.04.17.04.16.04.16.04.16.03.16.03.16.03.16.03.15.03.16.03.15.02.15.03.14.02.15.02.14.02.14.01.14.02.14.01.13.01.13.01.13.01.13.01.13v.35zm-1 14.36l-.07-.34-.14.14.1-.53.09-.54.08-.54.07-.54.07-.54.07-.55.05-.54.05-.54.05-.53.04-.54.04-.52.03-.53.03-.51.03-.51.02-.5.02-.49.01-.48.01-.47.01-.45.01-.44V48.04l-.01-.25V47.36h.34v.2l.01.23V48.92l.01.34v1.13l-.01.41v.43l-.01.44-.01.46-.01.47-.01.48-.02.49-.02.5-.03.51-.02.52-.04.53-.03.53-.05.54-.04.53-.05.55-.06.54-.07.55-.07.55-.07.54-.08.54-.09.54-.1.54-.13.14zm.13-.14l-.02.11-.11.03.13-.14zm-10.16-.95l.34-.08-.12-.12.37.11.37.11.36.1.36.09.36.09.35.08.35.08.34.08.33.06.34.07.32.05.33.05.32.05.31.04.31.04.31.03.3.03.3.02.29.01.29.01.28.01h.56l.27-.01.26-.02.27-.02.25-.02.26-.03.25-.03.24-.04.25-.04.24-.05.07.34-.25.04-.25.05-.25.04-.26.03-.26.03-.27.03-.27.02-.27.01-.28.01H34.07l-.3-.01-.3-.02-.3-.02-.31-.03-.31-.03-.31-.04-.32-.04-.33-.05-.32-.05-.34-.06-.33-.06-.34-.07-.35-.07-.35-.08-.35-.09-.36-.09-.36-.09-.37-.1-.37-.11-.38-.11-.12-.13zm.12.13l-.09-.03-.03-.1.12.13zm-3.69-4.21v-.34h.19l.18.01.17.02.18.03.17.04.16.05.16.06.16.07.15.07.14.09.15.09.14.11.13.11.13.12.13.12.12.14.12.14.11.15.11.16.11.17.1.17.1.18.09.19.09.2.09.21.09.21.08.22.07.23.08.23.07.25.07.25.07.25-.34.08-.06-.25-.07-.24-.07-.24-.07-.22-.08-.22-.08-.22-.08-.2-.08-.2-.09-.19-.09-.18-.09-.17-.1-.16-.1-.16-.1-.15-.1-.14-.11-.13-.11-.12-.12-.12-.11-.11-.12-.09-.13-.1-.13-.08-.13-.07-.13-.07-.14-.06-.14-.05-.14-.05-.15-.03-.16-.03-.16-.02-.16-.01h-.17zm-4.57 3.97l-.07-.34-.13.11.08-.21.08-.2.09-.21.1-.2.1-.2.11-.19.12-.19.12-.18.13-.19.14-.17.14-.17.14-.17.15-.15.15-.16.16-.15.16-.14.16-.13.17-.13.17-.12.17-.12.17-.1.18-.1.18-.09.17-.08.18-.08.18-.06.18-.06.18-.05.18-.03.18-.03.18-.02h.17v.34h-.15l-.16.02-.16.02-.16.04-.16.04-.17.05-.16.06-.17.07-.16.08-.17.08-.16.09-.16.1-.16.11-.16.12-.16.12-.16.12-.15.14-.15.14-.14.14-.15.15-.13.16-.14.16-.12.17-.13.17-.11.18-.11.18-.11.18-.1.18-.09.19-.08.2-.08.19-.07.2-.13.12zm.13-.12l-.03.1-.1.02.13-.12zm-10.03.76l.33-.06-.15-.14.27.02.28.01.28.01.29.01.28.01h1.15l.3-.01.29-.01.29-.01.3-.02.3-.02.3-.02.3-.02.3-.02.31-.03.3-.03.31-.04.31-.03.31-.04.31-.04.31-.05.32-.05.31-.04.32-.06.32-.05.32-.06.32-.06.33-.06.32-.07.07.34-.33.06-.32.07-.33.06-.32.06-.32.05-.32.05-.32.05-.32.05-.31.05-.32.04-.31.04-.31.03-.31.04-.31.03-.31.03-.3.02-.31.03-.3.02-.3.02-.3.01-.3.01-.29.01-.3.01h-.29l-.29.01-.3-.01h-.28l-.29-.01h-.29l-.28-.02-.29-.01-.28-.02-.15-.14zm.15.14l-.13-.01-.02-.13.15.14zM8.29 47.83h.34v.02l-.04.31-.04.31-.03.33-.02.34-.02.35-.02.36-.01.37-.01.38v.39l.01.39v.41l.01.41.02.42.02.42.03.43.02.43.04.44.04.44.04.44.04.45.05.45.05.45.06.46.06.45.07.46.06.45.07.46.08.45.08.45.08.45.08.45.09.45-.33.06-.09-.44-.09-.45-.08-.46-.08-.45-.07-.46-.08-.45-.06-.46-.07-.46-.06-.46-.06-.46-.05-.45-.05-.45-.05-.45-.04-.45-.03-.45-.04-.44-.03-.43-.02-.43-.02-.43-.02-.42-.01-.41-.01-.41v-.79l.01-.38.01-.38.02-.36.02-.36.02-.35.03-.33.04-.32.04-.32v.03zm.34 0v.02-.02zm.62-4.47l-.05.34.19-.12-.04.16-.05.15-.04.16-.04.15-.04.15-.04.15-.03.15-.04.15-.03.15-.04.14-.03.15-.03.14-.03.14-.03.14-.02.13-.03.14-.02.13-.03.14-.02.13-.01.12-.02.13-.02.13-.02.12-.01.12-.01.12-.01.11-.01.12-.01.11v.1l-.01.11V47.83h-.34v-.33l.01-.11.01-.12.01-.12.01-.12.01-.12.01-.12.02-.13.02-.12.01-.13.02-.14.03-.13.02-.14.02-.13.03-.14.03-.14.03-.14.02-.14.04-.15.03-.14.03-.15.04-.15.03-.15.04-.15.04-.15.04-.16.04-.15.04-.16.04-.16.05-.15.19-.13zm-.19.13l.04-.15.15.02-.19.13z" class="fil1"/><path fill="#f5b2b6" d="M9.22 43.53c9.97 1.57 21.26 1.87 28.04-.9.52 1.73.82 3.33.85 4.52-10.17 1.67-20.08 1.89-29.63.12.08-1.03.34-2.32.74-3.74z"/><path id="1" d="M37.42 42.58l-.33.1.23.11-.65.25-.68.24-.7.22-.73.2-.75.18-.77.16-.79.16-.8.13-.83.12-.84.1-.86.09-.87.08-.89.06-.89.05-.91.03-.92.02-.93.01-.94-.01-.94-.01-.95-.03-.96-.04-.95-.05-.97-.06-.96-.08-.96-.08-.97-.09-.96-.1-.96-.11-.95-.12-.96-.13-.94-.13-.94-.15.05-.34.94.15.94.13.95.13.95.12.96.11.96.1.96.09.96.08.96.07.95.06.96.06.95.03.95.03.94.02.93.01.92-.01.92-.02.9-.04.89-.04.88-.07.87-.07.85-.09.83-.1.82-.12.8-.13.78-.15.76-.17.74-.18.72-.2.69-.21.67-.23.64-.25.23.11zm-.23-.11l.18-.07.05.18-.23-.11zm.95 4.84l-.06-.33-.14.17v-.11l-.01-.11-.01-.12-.01-.11-.01-.12-.01-.13-.01-.12-.01-.13-.02-.13-.02-.13-.02-.13-.02-.13-.02-.14-.02-.14-.03-.13-.02-.14-.03-.15-.03-.14-.03-.15-.03-.15-.03-.15-.04-.14-.03-.16-.04-.15-.04-.15-.04-.16-.04-.16-.04-.15-.05-.16-.04-.16-.05-.16-.05-.16.33-.1.05.16.05.17.04.16.05.16.04.16.04.16.04.15.04.16.04.15.04.16.03.15.04.15.03.15.03.15.03.15.03.14.02.15.03.14.02.14.02.14.02.13.02.14.02.13.02.13.01.13.02.13.01.12.01.13.01.12v.12l.01.12v.11l-.14.17zm.14-.17l.01.15-.15.02.14-.17zm-29.97.12l.34.02-.14-.18.9.16.89.15.9.14.9.12.9.12.91.1.9.09.91.08.91.07.91.06.92.05.91.04.92.03.92.02h1.85l.92-.01.93-.03.93-.03.93-.04.94-.05.93-.07.94-.07.94-.08.94-.09.94-.1.94-.11.95-.11.94-.13.95-.14.95-.14.95-.15.06.33-.96.16-.95.14-.95.14-.95.13-.95.11-.94.11-.95.1-.94.09-.94.08-.94.08-.94.06-.94.05-.93.04-.94.04-.93.02-.93.01-.93.01-.92-.01-.93-.02-.92-.03-.92-.03-.92-.05-.91-.06-.92-.07-.91-.08-.91-.1-.91-.1-.91-.12-.9-.12-.9-.14-.9-.15-.9-.16-.14-.18zm.14.18l-.15-.03.01-.15.14.18zm.8-4.08l-.05.34.19-.12-.04.13-.03.13-.04.13-.03.13-.04.13-.03.13-.03.13-.03.12-.03.13-.03.12-.03.12-.03.12-.03.12-.02.12-.03.12-.02.12-.02.12-.03.11-.02.12-.02.11-.02.11-.02.11-.01.11-.02.11-.01.1-.02.11-.01.1-.01.1-.01.1-.01.1-.01.1-.01.09-.34-.02.01-.1.01-.1.01-.1.01-.11.01-.1.01-.11.02-.1.01-.11.02-.11.02-.11.02-.12.01-.11.02-.11.03-.12.02-.12.02-.12.03-.12.02-.12.03-.12.02-.12.03-.13.03-.12.03-.12.03-.13.03-.13.04-.13.03-.13.03-.13.04-.13.03-.13.04-.13.04-.13.19-.13zm-.19.13l.04-.15.15.02-.19.13z" class="fil1"/><path d="M23.12 2.23c4.61 0 9.24 3.42 11.45 8.61.45 1.02 2.58 2.7 2.65 6.57.08 3.87-2.43 6.82-6.76 7.66-2.18.43-4.43.64-6.93.64-2.9 0-5.31.03-8.24-.53-4.21-.81-6.65-3.92-6.65-8.04 0-4.11 2.34-6.21 3.6-8.22 1.44-3.94 6.28-6.69 10.88-6.69z" class="fil0"/><path id="1" d="M34.72 10.77l-.31.14v-.01l-.21-.47-.23-.47-.24-.45-.25-.45-.26-.43-.28-.42-.28-.41-.3-.39-.31-.38-.31-.37-.33-.36-.34-.34-.34-.33-.36-.32-.36-.3-.37-.28-.37-.27-.38-.26-.39-.24-.4-.22-.39-.21-.41-.19-.4-.17-.41-.16-.42-.14-.41-.12-.42-.11-.42-.08-.42-.07-.43-.05-.42-.03-.43-.01v-.34l.44.01.44.03.44.05.44.07.43.09.44.11.43.12.42.15.43.16.42.18.41.19.41.22.4.23.4.24.39.26.39.28.38.29.37.31.36.33.35.33.35.35.33.37.33.37.31.4.31.4.29.42.28.43.27.44.26.45.24.47.23.47.21.49zm-.31.14l-.01-.01h.01v.01zm2.99 6.5h-.35l-.01-.35-.02-.34-.04-.32-.04-.32-.06-.3-.06-.29-.07-.28-.07-.27-.09-.26-.08-.24-.1-.24-.1-.23-.1-.22-.1-.21-.11-.2-.11-.2-.11-.19-.11-.17-.11-.17-.11-.17-.11-.16-.11-.15-.11-.14-.1-.14-.09-.13-.1-.13-.08-.12-.09-.12-.07-.11-.07-.12-.06-.11-.05-.1.31-.14.05.09.05.09.06.1.07.11.08.11.08.12.09.12.1.14.1.14.11.14.11.16.11.16.11.17.12.17.11.19.12.19.11.2.11.21.11.22.11.23.1.24.1.25.09.25.09.28.08.27.07.3.06.3.06.31.04.33.04.34.02.34.02.37zm-6.91 7.83l-.06-.33.39-.09.39-.09.37-.11.36-.12.35-.13.34-.14.33-.15.31-.17.31-.17.29-.18.28-.19.27-.21.25-.21.25-.22.23-.23.21-.24.21-.24.19-.26.18-.26.17-.27.15-.28.14-.29.13-.29.12-.31.1-.3.08-.32.07-.32.06-.33.05-.34.03-.34.01-.34v-.36h.35l-.01.36-.01.37-.03.35-.05.35-.06.35-.08.33-.09.33-.1.33-.12.32-.13.3-.15.31-.16.29-.18.28-.19.28-.2.27-.22.26-.23.25-.24.24-.25.23-.27.22-.28.21-.29.2-.31.2-.31.18-.33.16-.34.16-.35.15-.37.13-.37.13-.39.11-.39.1-.41.08zm-6.96.64v-.34h.24l.23-.01h.46l.22-.01h.23l.22-.01.23-.01.22-.01.22-.01.22-.02.22-.01.21-.02.22-.01.22-.02.21-.02.21-.02.22-.02.21-.02.21-.03.21-.02.21-.03.21-.03.21-.03.2-.03.21-.03.2-.03.21-.03.2-.04.21-.04.2-.03.21-.04.06.33-.2.04-.21.04-.21.04-.2.03-.21.04-.21.03-.21.03-.21.03-.21.03-.21.03-.21.03-.21.02-.21.03-.22.02-.21.02-.22.02-.21.02-.22.02-.22.02-.22.01-.22.02-.22.01-.23.01-.22.01-.22.01-.23.01h-.23l-.23.01h-.23l-.23.01h-.47zm-8.28-.53l.07-.34.27.05.27.05.26.04.27.04.26.04.26.04.26.03.25.03.26.03.25.02.25.02.25.02.25.02.25.02.25.01.25.01.24.02h.25l.25.01.25.01h.25l.25.01h.51l.26.01h1.84v.34h-2.1l-.26-.01h-.5l-.26-.01-.25-.01h-.25l-.25-.01-.25-.01-.25-.02-.25-.01-.25-.02-.26-.01-.25-.02-.25-.03-.26-.02-.26-.03-.25-.03-.27-.03-.26-.04-.26-.04-.27-.04-.27-.04-.27-.05-.28-.05zm-6.78-8.21h.34l.01.38.02.37.04.36.05.36.06.35.07.34.09.34.1.33.12.32.12.31.14.3.16.3.16.29.18.27.19.27.2.26.21.25.23.24.24.23.25.22.26.22.27.2.28.18.3.18.3.17.32.16.33.14.34.13.35.12.36.11.37.09.39.08-.07.34-.39-.08-.39-.1-.37-.11-.37-.13-.35-.13-.34-.15-.33-.17-.32-.17-.31-.19-.3-.19-.28-.21-.28-.22-.26-.23-.25-.25-.23-.25-.23-.26-.21-.27-.2-.29-.18-.29-.18-.3-.16-.31-.14-.32-.14-.32-.11-.34-.11-.34-.09-.35-.08-.35-.07-.37-.04-.37-.04-.38-.02-.38-.01-.39zm3.61-8.28l.33.12-.02.03-.12.19-.13.19-.14.2-.14.19-.14.2-.14.2-.15.2-.14.2-.15.2-.15.21-.15.21-.15.22-.15.22-.14.22-.14.23-.14.24-.14.24-.13.25-.13.25-.12.26-.11.27-.11.28-.1.28-.09.29-.08.3-.08.31-.06.32-.05.34-.05.34-.03.35-.02.36-.01.37h-.34l.01-.38.02-.38.03-.36.05-.35.05-.35.07-.33.08-.32.08-.31.1-.31.1-.29.11-.29.12-.28.13-.27.13-.26.13-.25.14-.25.14-.24.15-.24.15-.23.15-.22.14-.22.16-.22.15-.21.15-.21.15-.2.14-.2.15-.19.14-.2.13-.19.13-.19.13-.19.12-.18-.02.03zm.33.12l-.01.01-.01.02.02-.03zm10.71-6.92v.34l-.42.01-.43.03-.43.03-.42.06-.43.07-.42.08-.42.1-.42.11-.41.12-.41.14-.41.15-.39.17-.4.17-.38.19-.38.2-.37.22-.35.22-.35.23-.34.25-.33.25-.31.27-.3.28-.29.28-.28.3-.26.3-.25.31-.23.32-.21.33-.2.34-.17.34-.16.35-.14.36-.33-.12.15-.37.17-.37.18-.36.21-.35.22-.34.24-.33.25-.33.27-.31.29-.31.3-.29.31-.29.33-.27.33-.26.35-.26.36-.24.37-.23.38-.22.38-.2.4-.2.4-.18.41-.17.41-.15.42-.14.43-.13.43-.12.43-.1.43-.08.44-.07.44-.06.44-.04.44-.02.43-.01z" class="fil1"/><path d="M22.82 14.17c1.46 0 2.7.52 3.22 1.26-1.9.89-2.24 2.75-3.22 2.78-1.11.04-1.63-1.56-3.3-2.65.45-.81 1.76-1.39 3.3-1.39z" class="fil4"/><path d="M22.82 14.01c.74 0 1.43.13 2 .35.6.24 1.07.57 1.35.98l.11.15-.17.09c-.97.45-1.53 1.18-1.98 1.77-.43.56-.77 1.01-1.3 1.03-.7.02-1.16-.5-1.75-1.16-.43-.49-.93-1.05-1.65-1.52l-.13-.09.08-.13c.25-.44.72-.82 1.34-1.08.59-.25 1.32-.39 2.1-.39zm1.88.65c-.54-.21-1.18-.33-1.88-.33-.74 0-1.42.14-1.97.37-.49.21-.88.49-1.11.81.68.48 1.17 1.02 1.58 1.5.53.59.95 1.06 1.5 1.04.38-.01.67-.4 1.05-.9.45-.58.99-1.29 1.92-1.78-.25-.28-.63-.53-1.09-.71z" class="fil1"/><path d="M15.73 18.04c.48 1.22 1.11 2.16 1.88 2.81.75.62 1.64.97 2.66 1 .45.02.92-.05 1.32-.2.34-.13.63-.32.82-.59.13-.33.18-.82.18-1.33.01-.53-.03-1.08-.06-1.51l.32-.02c.03.43.07.98.07 1.53-.01.56-.06 1.1-.21 1.47l-.01.02-.01.01c-.23.33-.58.57-.98.72-.45.17-.96.24-1.45.22-1.1-.03-2.05-.4-2.86-1.08-.82-.68-1.48-1.67-1.97-2.93l.3-.12z" class="fil1"/><path d="M15.88 17.98c.23.6.51 1.13.81 1.59.31.45.65.84 1.02 1.15.37.3.76.54 1.19.7.43.16.89.25 1.38.27.22.01.44-.01.66-.04.21-.03.41-.08.6-.15.16-.06.31-.14.44-.23.11-.09.21-.18.29-.28.05-.16.09-.34.12-.55.03-.22.04-.46.04-.71.01-.26 0-.53-.02-.78-.01-.25-.03-.5-.05-.71l-.01-.16.65-.06.01.17c.02.2.04.45.05.72.02.26.02.54.02.82 0 .29-.02.57-.05.82-.04.27-.09.51-.17.71l-.02.03-.02.03c-.12.18-.27.33-.44.46-.19.13-.39.24-.61.32-.23.09-.48.15-.72.19-.26.04-.53.06-.79.05-.57-.02-1.09-.13-1.58-.31-.5-.19-.96-.46-1.38-.81-.42-.35-.8-.78-1.14-1.28-.33-.5-.63-1.07-.89-1.72l-.05-.15.6-.24.06.15zm.04.89c-.1-.19-.19-.4-.28-.62.09.22.18.43.28.62zm4.37 3.14h-.02.02zm1.41-.23l-.02.01.02-.01zm.86-.66l-.01.02c.05-.1.08-.22.11-.34-.03.12-.06.22-.1.32zm.18-2.19c.01.18.01.37.02.55-.01-.18-.01-.37-.02-.55-.01-.19-.03-.38-.04-.56.01.17.03.36.04.56zm.02.7v.1-.1z" class="fil1"/><path d="M14.63 19.37c.08-.55.29-1 .62-1.36.33-.35.77-.62 1.32-.8l.1.31c-.5.16-.89.4-1.18.71-.28.31-.47.71-.54 1.19l-.32-.05z" class="fil1"/><path d="M14.46 19.34c.05-.29.13-.55.24-.79.11-.23.26-.45.43-.64.18-.2.38-.36.61-.5.23-.14.5-.26.79-.35l.15-.05.2.62-.16.05c-.23.07-.45.17-.63.28-.19.11-.35.24-.48.38s-.24.31-.32.49c-.09.19-.15.39-.19.61l-.02.16-.64-.1.02-.16zm.91-1.22c-.05.06-.09.11-.13.17.04-.06.08-.11.13-.17zm.12-.12l-.12.12.12-.12zM29.96 18.26c-.49 1.26-1.15 2.25-1.97 2.93-.81.67-1.76 1.05-2.86 1.08-.49.02-1-.05-1.45-.22-.4-.15-.75-.39-.98-.72l-.01-.02v-.01c-.16-.38-.21-.92-.22-1.47 0-.55.04-1.11.07-1.53l.32.02c-.03.43-.07.98-.06 1.51 0 .51.05 1 .18 1.33.19.27.48.46.82.59.4.15.88.21 1.32.2 1.02-.04 1.91-.38 2.66-1.01.78-.64 1.41-1.59 1.88-2.8l.3.12z" class="fil1"/><path d="M30.12 18.32c-.26.64-.55 1.22-.89 1.72-.34.5-.72.92-1.14 1.27-.42.36-.88.63-1.37.82-.49.18-1.02.29-1.59.3-.26.01-.52 0-.78-.04-.25-.04-.5-.1-.73-.19-.22-.08-.42-.19-.6-.33-.18-.12-.33-.27-.45-.45l-.02-.03-.02-.03c-.08-.2-.13-.44-.17-.71-.03-.26-.05-.54-.05-.82 0-.28.01-.56.02-.82.01-.27.03-.52.05-.73l.01-.16.65.05-.01.16c-.02.22-.04.47-.05.71-.02.26-.02.53-.02.78s.01.5.04.72c.03.21.07.39.12.54.08.11.18.2.29.28.13.1.28.17.44.23.19.08.39.13.6.16.22.03.45.04.66.04.49-.02.95-.11 1.38-.27.43-.16.83-.4 1.19-.7.37-.31.71-.7 1.02-1.15.3-.46.58-.99.81-1.59l.06-.15.61.24-.06.15zm-.65.65c.1-.2.19-.4.28-.62-.09.22-.18.42-.28.62zm-4.37 3.14h.02-.02zm-1.88-.49l.01.01-.01-.01zm-.43-.51l.04.12-.04-.12zm-.14-2.09l-.01.32.01-.31c.01-.2.03-.39.04-.56-.01.18-.03.36-.04.55zm.57 2.6l-.01-.01.01.01z" class="fil1"/><path d="M30.26 19.52c-.08-.48-.26-.88-.55-1.19-.28-.31-.68-.55-1.18-.71l.1-.31c.55.18 1 .45 1.32.8.33.36.54.81.63 1.35l-.32.06z" class="fil1"/><path d="M30.1 19.54c-.03-.22-.09-.43-.18-.61s-.19-.35-.32-.49c-.14-.15-.3-.27-.48-.38-.19-.12-.4-.21-.63-.28l-.16-.05.2-.62.15.05c.29.09.55.21.78.35.23.14.44.3.61.49.18.2.32.41.43.65.12.24.2.5.24.79l.03.16-.64.1-.03-.16zm-.27-1.32c.05.05.09.1.13.16-.04-.06-.08-.11-.13-.16zm-.12-.12c.05.04.09.08.12.12-.03-.04-.07-.08-.12-.12z" class="fil1"/><path d="M10.86.17c2.65 0 4.9 1.65 5.65 3.92-1.97 1.18-3.55 2.86-4.27 4.83-.59.95-1.43 1.91-2.14 3.1-2.57.14-5.81-.9-5.61-5.97C4.67 2.3 7.6.17 10.86.17z" class="fil0"/><path id="1" d="M16.6 4.24l-.18-.29-.08.2-.07-.21-.08-.2-.09-.19-.09-.2-.11-.19-.11-.18-.12-.18-.13-.18-.13-.16-.14-.17-.15-.16-.15-.15-.16-.15-.16-.14-.17-.14-.18-.13-.18-.12-.19-.12-.19-.11-.2-.1-.2-.1-.21-.09-.21-.08-.21-.07-.22-.07-.23-.06-.22-.04-.23-.04-.23-.04-.24-.02-.24-.01-.24-.01V0h.26l.25.02.25.02.24.04.24.04.24.05.24.06.23.07.23.08.22.08.22.1.21.1.21.11.2.11.2.13.2.13.18.14.18.14.18.15.17.16.16.16.16.17.15.18.14.18.13.18.13.19.12.2.11.2.1.21.1.21.08.21.08.22-.07.2zm.07-.2l.04.13-.11.07.07-.2zm-4.28 4.97l-.29-.18-.02.03.07-.19.08-.18.08-.19.09-.18.09-.18.1-.18.09-.18.11-.17.11-.17.11-.17.12-.17.12-.17.13-.16.13-.16.13-.16.14-.16.14-.15.14-.15.15-.15.15-.15.16-.14.16-.14.16-.14.16-.14.17-.13.17-.13.17-.13.18-.12.18-.12.18-.12.18-.12.19-.11.18.29-.18.11-.18.11-.18.12-.17.12-.17.12-.17.12-.17.13-.16.13-.16.13-.16.14-.15.13-.15.14-.15.14-.14.15-.14.14-.14.15-.13.15-.13.16-.12.15-.12.16-.12.16-.11.16-.11.16-.11.17-.1.17-.1.16-.09.18-.08.17-.09.17-.07.18-.08.18-.06.18-.02.03zm.02-.03l-.01.01-.01.02.02-.03zm-2.3 3.21l-.02-.34-.14.08.07-.11.07-.11.07-.11.07-.11.07-.1.07-.11.07-.11.07-.1.07-.1.07-.1.07-.1.07-.1.08-.1.07-.1.07-.1.07-.09.07-.1.07-.09.06-.09.07-.1.07-.09.07-.09.06-.09.07-.09.06-.09.06-.09.07-.09.06-.09.06-.09.05-.09.06-.09.06-.08.29.18-.06.09-.06.09-.06.09-.06.09-.06.09-.06.09-.07.1-.06.09-.07.09-.07.09-.06.09-.07.1-.07.09-.07.09-.07.1-.07.09-.07.1-.07.09-.07.1-.07.1-.07.1-.07.1-.07.1-.07.1-.07.1-.07.1-.07.1-.06.11-.07.1-.07.11-.07.11-.06.11-.14.08zm.14-.08l-.05.08h-.09l.14-.08zM4.32 6.05l.34.01-.01.46.01.43.03.41.05.38.06.37.08.34.09.33.11.3.12.28.13.27.15.24.15.23.17.22.18.19.18.18.2.17.2.15.21.13.22.12.22.11.23.1.23.09.24.07.24.06.24.06.24.04.25.03.24.02.25.02h.48l.24-.01.02.34-.25.01h-.51l-.25-.02-.26-.02-.26-.03-.25-.05-.26-.05-.26-.07-.25-.08-.25-.09-.24-.1-.24-.12-.23-.13-.23-.15-.22-.17-.22-.18-.2-.19-.19-.21-.18-.23-.17-.25-.16-.27-.14-.28-.13-.3-.12-.33-.1-.34-.08-.36-.06-.39-.05-.4-.03-.42-.01-.45.01-.47zm0 0v-.01.01zM10.86 0v.34l-.3.01-.29.02-.29.03-.29.04-.29.05-.28.07-.28.08-.27.08-.26.1-.26.11-.26.13-.25.13-.24.15-.23.15-.22.17-.22.17-.2.19-.2.2-.19.21-.18.22-.17.23-.15.23-.15.26-.13.25-.12.27-.11.29-.1.28-.08.31-.07.3-.06.32-.04.33-.02.34-.34-.01.02-.36.04-.35.06-.33.07-.33.09-.32.1-.3.12-.3.13-.28.14-.28.15-.26.17-.26.18-.24.19-.23.2-.23.21-.21.22-.2.23-.18.23-.18.25-.16.25-.16.27-.14.26-.13.28-.11.28-.11.28-.09.3-.08.29-.07.3-.06.31-.04.3-.03.31-.02.31-.01z" class="fil1"/><path d="M34.74.2c-2.65 0-4.89 1.65-5.64 3.92 1.49.89 2.75 2.06 3.59 3.44.63.85 1.2 1.79 1.66 2.8.39.52.79 1.08 1.16 1.69 2.57.14 5.81-.9 5.61-5.97C40.94 2.33 38.01.2 34.74.2z" class="fil0"/><path id="1" d="M29.19 3.97l-.18.3-.07-.2.07-.22.09-.22.09-.21.11-.2.11-.2.12-.2.12-.19.14-.18.14-.18.15-.18.16-.17.16-.16.17-.16.17-.15.18-.14.19-.14.19-.13.2-.13.21-.11.2-.11.22-.1.22-.1.22-.08.23-.08.23-.07.23-.06.24-.05.25-.04.24-.04.25-.02.25-.02h.25v.34l-.24.01-.23.01-.24.02-.23.04-.23.04-.23.04-.22.06-.22.07-.21.07-.21.08-.21.09-.2.09-.2.11-.19.11-.19.11-.18.13-.18.13-.17.13-.16.15-.16.15-.16.15-.14.16-.14.16-.14.17-.12.18-.12.18-.11.18-.11.19-.1.19-.08.2-.09.2-.07.2-.07-.2zm-.18.3l-.12-.07.05-.13.07.2zm3.82 3.18l-.28.21-.01-.01-.08-.13-.08-.13-.08-.12-.09-.12-.08-.12-.09-.12-.09-.12-.1-.12-.1-.11-.1-.12-.1-.11-.1-.11-.1-.11-.11-.11-.11-.11-.11-.11-.11-.1-.12-.11-.11-.1-.12-.1-.12-.1-.12-.1-.13-.1-.12-.09-.13-.1-.13-.09-.13-.09-.13-.09-.13-.09-.14-.08-.13-.09-.14-.08.18-.3.14.09.14.09.13.08.14.1.14.09.13.09.13.1.13.09.13.1.13.1.12.1.13.11.12.1.12.11.12.1.12.11.11.11.11.12.11.11.11.11.11.12.1.12.1.12.11.12.09.12.1.12.09.13.09.12.09.13.09.13.08.12.08.14v-.02zm-.28.21l-.01-.01.01.01zm1.94 2.6l-.27.2-.02-.03-.05-.09-.04-.1-.04-.09-.05-.09-.05-.09-.04-.09-.05-.1-.05-.09-.04-.09-.05-.09-.05-.09-.05-.08-.05-.09-.05-.09-.05-.09-.05-.09-.05-.08-.06-.09-.05-.08-.05-.09-.06-.08-.05-.09-.06-.08-.05-.08-.06-.09-.05-.08-.06-.08-.06-.08-.05-.08-.06-.08-.06-.08-.06-.08.28-.21.06.08.06.09.06.08.05.08.06.08.06.09.06.08.05.08.06.09.06.09.05.08.06.09.05.09.06.08.05.09.05.09.06.09.05.09.05.09.05.09.05.09.05.09.05.09.05.09.05.1.04.09.05.09.05.1.04.09.05.1.05.09.04.1-.02-.03zm-.27.2l-.01-.01-.01-.02.02.03zm1.3 1.42l-.02.34-.14-.08-.03-.06-.04-.05-.03-.06-.04-.06-.03-.05-.04-.06-.03-.05-.04-.06-.03-.05-.04-.05-.03-.06-.04-.05-.04-.05-.03-.06-.04-.05-.03-.05-.04-.05-.04-.06-.03-.05-.04-.05-.04-.05-.03-.05-.04-.05-.03-.05-.04-.05-.04-.05-.03-.05-.04-.05-.04-.05-.03-.05-.04-.05-.03-.05.27-.2.04.05.04.05.03.05.04.05.03.05.04.05.04.05.03.05.04.05.04.05.03.05.04.05.04.05.03.06.04.05.04.05.03.06.04.05.04.05.03.06.04.05.04.06.03.05.04.06.04.05.03.06.04.05.03.06.04.06.04.06.03.05.04.06-.14-.08zm-.02.34h-.09l-.05-.08.14.08zm5.45-6.13l.34-.02.01.47-.01.45-.03.43-.05.4-.06.39-.09.36-.1.34-.11.32-.13.31-.14.28-.16.27-.17.25-.18.23-.2.21-.2.19-.21.18-.22.17-.23.14-.23.14-.24.12-.25.1-.25.09-.25.08-.25.07-.26.05-.26.05-.25.03-.26.02-.26.02h-.5l-.25-.01.02-.34.24.01H36l.24-.01.24-.01.25-.02.24-.03.25-.05.24-.05.24-.06.23-.07.24-.09.22-.1.23-.11.21-.12.21-.14.21-.15.19-.16.19-.18.18-.2.16-.21.16-.23.14-.24.14-.27.12-.28.11-.3.09-.33.08-.34.06-.37.05-.38.03-.41.01-.44-.01-.45zm.34-.02zM34.74.37V.03h.32l.31.02.3.04.31.04.3.06.29.06.29.09.29.09.28.1.27.12.27.13.26.14.26.16.24.16.24.18.23.18.22.2.21.21.2.22.19.24.18.24.16.25.16.27.14.27.13.29.11.3.1.3.09.32.08.32.05.34.04.35.03.35-.34.02-.03-.34-.04-.33-.05-.32-.07-.31-.08-.3-.1-.29-.11-.28-.12-.27-.13-.26-.15-.25-.16-.23-.16-.23-.18-.22-.19-.21-.2-.2-.2-.19-.22-.17-.22-.17-.24-.15-.24-.15-.24-.13-.26-.13-.26-.11-.27-.1-.27-.09-.27-.07-.28-.07-.29-.05-.29-.04-.29-.03-.3-.02-.3-.01z" class="fil1"/><path d="M20.59 9.02c.49 0 .8.68.7 1.51-.1.83-.02 1.36-1.06 1.51-1.04.15-1.17-.6-1.07-1.43.1-.84.94-1.59 1.43-1.59z" class="fil4"/><path d="M20.59 8.86l.08.01c.25.03.46.19.6.45.13.24.2.56.2.91 0 .1-.01.21-.02.32l-.03.27c-.07.75-.12 1.23-1.17 1.38-.6.08-.94-.1-1.13-.43-.16-.31-.18-.74-.12-1.18.05-.43.27-.83.55-1.13.32-.36.73-.6 1.04-.6zm.04.33h-.04c-.22 0-.54.19-.8.49-.24.26-.43.59-.47.94-.05.39-.04.75.09.99.12.22.36.33.8.27.79-.11.83-.5.89-1.1l.03-.27c.01-.09.02-.19.02-.28 0-.3-.06-.56-.17-.75-.09-.17-.21-.28-.35-.29z" class="fil1"/><path d="M25.12 9.03c-.49 0-.8.68-.7 1.51.1.83.02 1.36 1.06 1.51 1.04.14 1.17-.6 1.07-1.44-.1-.83-.94-1.58-1.43-1.58z" class="fil4"/><path d="M25.12 9.19l-.04.01c-.14.01-.27.12-.36.29-.1.19-.16.45-.16.75 0 .09.01.19.02.28l.03.27c.06.6.09.99.89 1.1.44.06.68-.06.8-.27.13-.24.13-.6.09-.99-.04-.35-.23-.69-.47-.95-.27-.29-.58-.49-.8-.49zm-.08-.32h.08c.3 0 .72.24 1.04.6.28.3.5.7.55 1.12.05.45.04.88-.13 1.19-.18.33-.52.51-1.12.43-1.05-.15-1.1-.63-1.18-1.39l-.02-.26c-.02-.11-.02-.22-.02-.32 0-.36.07-.67.2-.91.14-.26.35-.43.6-.46z" class="fil1"/><g><path d="M11.09 4.96c1.18 0 2.11.78 2.5 1.61-.58.72-1.04 1.51-1.35 2.35-.23.36-.49.73-.77 1.11h-.13c-.7 0-2.73-1.29-2.73-2.64 0-1.34 1.3-2.43 2.48-2.43z" class="fil5"/><path id="1" d="M13.73 6.68l-.27-.21-.02.18-.04-.08-.04-.07-.04-.07-.04-.07-.05-.07-.05-.07-.05-.07-.06-.07-.06-.06-.06-.07-.06-.06-.07-.07-.06-.06-.07-.05-.08-.06-.07-.06-.08-.05-.07-.04-.09-.05-.08-.05-.08-.04-.09-.04-.09-.03-.09-.03-.09-.03-.09-.03-.1-.02-.09-.02-.1-.01-.1-.01-.11-.01h-.1v-.34h.12l.11.01.12.01.11.02.11.02.11.02.11.03.1.03.1.04.1.04.1.04.1.05.09.05.09.05.09.06.09.05.08.07.08.06.08.06.08.07.07.07.07.07.07.08.06.07.07.08.06.07.05.08.06.08.05.08.04.09.05.08.04.08-.02.18zm.02-.18l.05.1-.07.08.02-.18zm-1.36 2.51l-.29-.18-.02.03.03-.08.03-.08.03-.08.04-.08.03-.08.03-.08.04-.08.04-.07.03-.08.04-.08.04-.08.04-.07.04-.08.04-.08.04-.07.05-.08.04-.07.04-.07.05-.08.05-.07.04-.08.05-.07.05-.07.05-.07.05-.07.05-.08.05-.07.05-.07.06-.07.05-.07.06-.07.05-.06.27.21-.06.07-.05.06-.05.07-.05.07-.05.07-.05.07-.05.06-.05.07-.04.07-.05.07-.05.07-.04.07-.05.07-.04.07-.04.07-.05.08-.04.07-.04.07-.04.07-.04.08-.03.07-.04.07-.04.08-.03.07-.04.08-.03.07-.03.08-.04.07-.03.08-.03.07-.03.08-.02.08-.02.03zm.02-.03l-.01.01-.01.02.02-.03zm-.93 1.22l-.02-.34-.13.07.03-.04.02-.03.03-.03.03-.04.02-.04.03-.03.02-.04.03-.03.02-.04.03-.03.02-.04.03-.03.02-.04.03-.03.02-.03.03-.04.02-.04.02-.03.03-.03.02-.04.03-.03.02-.04.02-.03.02-.03.03-.04.02-.03.02-.03.02-.04.03-.03.02-.04.02-.03.02-.03.29.18-.02.03-.02.04-.03.03-.02.04-.02.03-.02.04-.03.03-.02.04-.02.03-.03.04-.02.03-.03.04-.02.03-.02.04-.03.03-.02.04-.03.03-.02.04-.03.03-.02.04-.03.03-.02.04-.03.03-.02.04-.03.04-.02.03-.03.03-.03.04-.02.03-.03.04-.02.04-.03.03-.13.07zm.13-.07l-.05.07h-.08l.13-.07zm-.27.08v-.35H11.68v.35h-.02.01H11.56l-.02-.01h-.1l.02-.34.02.34.03-.34h-.03H11.71h-.03v.35h-.34zm-2.9-2.82h.34l.01.11.01.12.03.11.03.11.05.11.05.11.06.11.06.11.08.11.08.1.09.11.09.1.09.1.1.1.11.1.1.09.11.08.11.09.11.07.11.08.11.07.11.06.11.06.11.06.1.05.1.04.09.03.09.03.08.02.07.02.06.01h.05v.35l-.08-.01-.09-.01-.1-.02-.1-.03-.1-.03-.1-.04-.11-.05-.12-.06-.11-.05-.12-.07-.12-.07-.11-.07-.12-.08-.12-.09-.12-.09-.12-.09-.11-.1-.11-.1-.11-.1-.11-.11-.1-.12-.09-.11-.09-.12-.08-.12-.08-.13-.07-.13-.06-.13-.05-.13-.04-.14-.03-.13-.02-.15-.01-.14zm2.65-2.6v.34h-.1l-.1.01-.1.02-.11.02-.1.02-.1.03-.1.04-.11.04-.1.04-.1.05-.09.06-.1.06-.09.06-.09.07-.09.07-.09.08-.08.08-.07.08-.08.09-.07.09-.06.09-.06.09-.06.1-.05.1-.05.1-.04.11-.03.1-.03.11-.03.11-.01.11-.01.12-.01.11h-.34v-.13l.02-.14.02-.13.02-.13.04-.12.04-.13.05-.12.05-.12.06-.12.06-.11.07-.1.08-.11.08-.1.08-.1.09-.09.09-.09.1-.09.1-.08.1-.08.1-.07.11-.07.11-.06.11-.06.12-.05.11-.04.12-.04.12-.04.12-.03.12-.02.12-.02.12-.01h.12z" class="fil1"/></g><g><path d="M34.51 4.99c-1.18 0-2.1.78-2.5 1.61.25.31.48.62.68.95.57.77 1.08 1.61 1.52 2.51h.05c.71 0 2.73-1.29 2.73-2.64 0-1.34-1.29-2.43-2.48-2.43z" class="fil5"/><path id="1" d="M32.15 6.49l-.27.22-.02-.18.04-.08.04-.09.05-.08.05-.08.05-.08.06-.08.06-.08.06-.07.07-.08.07-.07.07-.07.07-.07.08-.07.08-.06.08-.07.08-.06.09-.06.08-.05.1-.05.09-.05.1-.05.09-.04.1-.04.11-.04.1-.03.11-.03.1-.03.12-.02.11-.01.11-.01.12-.01h.11v.34h-.1l-.1.01-.1.01-.1.01-.09.02-.1.02-.09.03-.1.03-.09.03-.08.03-.09.04-.09.04-.08.05-.08.04-.08.05-.07.05-.08.06-.07.05-.07.06-.07.06-.06.06-.07.07-.06.06-.05.07-.06.07-.05.07-.05.07-.05.07-.05.07-.04.07-.04.07-.03.08-.02-.19zm-.27.22l-.07-.08.05-.1.02.18zm.95.74l-.28.21-.01-.02-.02-.03-.01-.03-.03-.03-.01-.03-.02-.03-.02-.03-.02-.03-.02-.03-.02-.03-.02-.02-.02-.03-.02-.03-.02-.03-.02-.03-.02-.03-.02-.03-.02-.03-.02-.03-.03-.03-.02-.03-.02-.03-.02-.03-.02-.02-.02-.03-.02-.03-.03-.03-.02-.03-.02-.03-.02-.02-.02-.03-.03-.03-.02-.03.27-.22.02.03.02.03.03.03.02.03.02.03.02.03.03.03.02.03.02.03.02.03.03.03.02.03.02.03.02.03.03.03.02.03.02.03.02.03.02.03.02.03.02.03.02.03.02.03.03.04.02.02.02.04.02.03.02.03.02.03.02.03.01.03.02.03v-.01zm-.28.21l-.01-.01v-.01l.01.02zm1.66 2.23v.34l-.15-.09-.04-.09-.04-.08-.05-.08-.04-.08-.04-.09-.04-.08-.05-.08-.04-.08-.04-.08-.05-.08-.05-.08-.04-.08-.05-.08-.04-.07-.05-.08-.05-.08-.04-.08-.05-.08-.05-.07-.05-.08-.05-.07-.05-.08-.05-.07-.05-.08-.05-.07-.05-.08-.05-.07-.05-.08-.05-.07-.05-.07-.06-.07-.05-.07.28-.21.05.07.05.08.06.07.05.08.05.07.06.08.05.07.05.08.05.08.05.07.05.08.05.08.05.07.05.08.05.08.05.08.05.08.04.08.05.08.05.08.04.08.05.08.05.08.04.09.05.08.04.08.04.09.05.08.04.08.04.09.05.08.04.09-.16-.1zm0 .34h-.1l-.05-.09.15.09zm.05 0h-.05v-.34h.05v.34zm2.56-2.81h.35l-.01.14-.02.14-.03.14-.04.14-.05.13-.06.13-.07.13-.08.12-.08.13-.09.12-.1.11-.1.11-.1.11-.11.11-.11.1-.12.1-.11.09-.12.09-.12.09-.12.08-.12.07-.12.07-.11.06-.12.06-.11.06-.11.04-.11.04-.1.04-.09.03-.1.02-.09.01h-.09v-.34h.05l.07-.01.07-.02.08-.02.09-.03.09-.04.1-.04.1-.05.11-.05.1-.06.11-.06.11-.07.11-.08.11-.08.12-.08.1-.09.11-.09.1-.09.1-.1.1-.1.09-.1.09-.11.08-.1.07-.11.07-.11.06-.11.05-.11.04-.11.04-.12.02-.11.02-.11v-.11zm-2.31-2.26v-.34h.13l.12.01.12.02.12.02.12.03.12.03.11.04.12.05.11.05.12.06.11.06.1.07.11.07.1.08.1.08.1.09.09.09.09.09.08.1.08.1.07.1.07.11.07.11.06.12.05.12.05.12.04.12.03.13.03.13.02.13.01.14.01.13h-.35v-.11l-.01-.12-.02-.11-.02-.11-.03-.11-.03-.1-.04-.11-.05-.1-.05-.1-.06-.1-.06-.09-.07-.1-.06-.08-.08-.09-.08-.09-.08-.07-.08-.08-.09-.07-.09-.07-.09-.06-.1-.06-.1-.06-.1-.05-.1-.04-.1-.04-.1-.04-.1-.03-.11-.03-.1-.02-.1-.01-.1-.01h-.11z" class="fil1"/></g><g><path d="M19.35 27.2c1.28 0 3.64 1.28 3.64 2.8 0 1.52-3.19 2.89-4.47 2.89-1.28 0-2-1.21-1.48-2.94.51-1.72 1.03-2.75 2.31-2.75zm7.63-.07c-1.28 0-3.64 1.28-3.64 2.8 0 1.52 3.19 2.9 4.47 2.9 1.28 0 2-1.22 1.49-2.94-.51-1.73-1.04-2.76-2.32-2.76z" class="fil2"/><path id="1" d="M23.17 30h-.35l-.01-.13-.01-.12-.03-.12-.04-.13-.05-.12-.06-.12-.08-.12-.07-.12-.09-.12-.1-.11-.11-.11-.11-.11-.12-.1-.12-.11-.13-.1-.13-.09-.14-.09-.14-.08-.14-.09-.15-.07-.15-.07-.14-.07-.15-.06-.15-.06-.14-.04-.14-.05-.14-.03-.14-.04-.13-.02-.12-.02-.12-.01h-.12v-.34h.14l.14.01.14.02.14.03.15.03.15.04.16.05.15.05.16.06.15.06.16.07.16.08.15.08.15.09.15.09.15.1.15.1.14.1.13.11.13.12.12.12.12.12.11.13.1.13.09.14.08.13.07.15.06.14.05.15.04.16.02.15.01.16zm-4.65 3.07v-.35h.12l.13-.01.13-.02.15-.03.16-.03.16-.04.17-.05.17-.05.18-.06.18-.06.18-.07.18-.08.19-.08.18-.09.18-.09.18-.09.17-.1.17-.11.16-.1.15-.11.15-.12.14-.11.13-.12.12-.12.11-.12.09-.13.08-.12.07-.12.05-.13.04-.12.02-.12.01-.12h.35l-.01.16-.03.17-.05.15-.07.16-.08.15-.1.14-.11.14-.12.14-.13.14-.14.13-.15.12-.16.12-.17.12-.17.11-.17.11-.19.11-.18.1-.19.09-.19.09-.19.09-.19.08-.19.07-.19.07-.18.06-.19.05-.17.05-.18.05-.16.03-.16.03-.15.02-.15.01-.14.01zm-1.65-3.16l.33.09-.04.16-.04.15-.03.15-.02.14-.01.14-.02.14v.26l.01.12.02.12.02.11.02.11.03.11.04.1.04.09.04.09.05.09.05.08.06.07.06.07.07.06.07.07.07.05.08.05.08.04.08.04.09.03.1.03.09.02.1.02.11.01h.1v.35l-.12-.01-.13-.01-.12-.02-.12-.03-.12-.03-.11-.04-.11-.05-.1-.05-.1-.07-.09-.07-.09-.07-.08-.08-.08-.09-.07-.09-.07-.1-.06-.11-.05-.11-.05-.11-.04-.12-.03-.12-.03-.13-.03-.13-.01-.14-.01-.14V30.86l.01-.15.02-.16.02-.15.03-.16.04-.17.05-.16zm2.48-2.88v.34h-.1l-.11.01-.1.01-.09.02-.09.03-.09.03-.09.03-.08.04-.08.04-.07.05-.07.05-.07.06-.07.07-.07.07-.06.07-.06.08-.07.09-.06.09-.05.09-.06.11-.06.1-.05.11-.05.12-.06.12-.05.13-.05.13-.05.13-.05.15-.05.14-.04.15-.05.16-.05.15-.33-.09.05-.16.05-.16.05-.16.05-.15.05-.14.05-.14.05-.14.05-.13.06-.13.06-.12.05-.12.06-.12.07-.11.06-.1.07-.11.07-.09.07-.1.08-.08.08-.09.08-.07.08-.08.09-.06.1-.06.09-.06.1-.04.11-.05.11-.03.11-.03.11-.03.12-.01.13-.01h.12zm4.16 2.9h-.34v-.16l.03-.15.03-.16.05-.15.06-.14.08-.15.08-.13.09-.14.1-.13.11-.13.11-.12.13-.12.12-.11.14-.12.14-.1.14-.1.15-.1.15-.09.15-.09.16-.08.15-.07.16-.08.16-.06.15-.06.16-.05.15-.05.15-.04.15-.03.15-.03.14-.02.14-.01h.13v.34l-.11.01-.12.01-.13.01-.13.03-.13.03-.14.03-.15.05-.14.05-.15.05-.14.06-.15.07-.14.07-.15.08-.14.08-.14.08-.14.09-.14.1-.13.09-.12.11-.12.1-.11.11-.11.11-.09.12-.09.11-.08.12-.07.12-.06.12-.05.12-.04.13-.03.12-.02.12-.01.13zm4.3 2.72V33l-.14-.01-.14-.01-.15-.02-.16-.03-.17-.03-.17-.04-.18-.05-.18-.06-.19-.06-.18-.07-.19-.07-.2-.08-.19-.09-.19-.09-.18-.09-.19-.1-.18-.11-.18-.1-.17-.12-.17-.12-.15-.12-.15-.12-.15-.13-.13-.14-.12-.14-.11-.14-.09-.14-.09-.15-.06-.16-.05-.15-.03-.17-.01-.16h.34l.01.12.02.12.04.12.06.13.06.12.09.12.09.13.11.12.11.12.13.12.14.11.15.12.16.11.16.11.17.1.17.1.18.09.18.09.18.09.18.08.18.08.19.07.18.06.17.06.18.06.17.04.16.04.15.03.15.03.14.02.13.01h.11zm1.32-2.72l.33-.09.05.16.04.17.03.16.03.15.01.16.01.15.01.15v.14l-.01.14-.02.14-.02.13-.03.13-.04.12-.04.12-.05.12-.05.1-.06.11-.07.1-.07.09-.07.09-.09.08-.09.08-.09.07-.1.06-.1.05-.11.05-.11.04-.11.04-.12.02-.13.02-.12.01-.13.01v-.35h.11l.1-.01.1-.02.1-.02.09-.02.09-.04.09-.04.08-.04.08-.05.07-.05.07-.06.06-.07.07-.07.05-.07.06-.08.05-.09.04-.09.04-.09.03-.1.03-.11.03-.11.02-.11.01-.12.01-.12v-.26l-.01-.14-.02-.14-.02-.14-.03-.15-.03-.15-.05-.16zm-2.15-2.63v-.34h.13l.12.01.12.02.12.02.11.03.1.03.11.05.1.04.1.06.09.06.09.07.09.07.08.07.08.09.08.08.07.1.07.09.06.1.07.11.06.11.06.12.06.12.06.12.05.13.05.13.06.14.05.14.05.15.05.14.05.16.05.16.04.16-.33.09-.04-.15-.05-.16-.05-.15-.05-.14-.05-.14-.05-.14-.05-.13-.05-.13-.05-.12-.05-.12-.06-.11-.05-.1-.06-.11-.06-.09-.06-.09-.06-.09-.06-.08-.07-.07-.06-.07-.07-.06-.07-.06-.08-.06-.07-.05-.08-.04-.08-.04-.08-.03-.09-.03-.09-.02-.1-.02-.1-.02h-.1l-.11-.01z" class="fil1"/></g><path d="M20.24 9.53c.16 0 .29.13.29.29 0 .17-.13.3-.29.3-.16 0-.29-.13-.29-.3 0-.16.13-.29.29-.29zM24.98 9.48c.16 0 .29.13.29.29 0 .16-.13.29-.29.29-.16 0-.29-.13-.29-.29 0-.16.13-.29.29-.29z" class="fil6"/><g><path d="M22.62 27.91h1.22c.45 0 .76.38.82.82l.33 2.34c.06.44-.37.82-.83.82H22.3c-.45 0-.89-.38-.82-.82l.32-2.34c.07-.44.37-.82.82-.82z" class="fil2"/><path id="1" d="M23.84 28.09h-1.22v-.35h1.22v.35zm.99.62l-.34.05v-.04l-.01-.03-.01-.04-.01-.03-.01-.04-.01-.03-.01-.03-.02-.03-.01-.03-.02-.03-.01-.03-.02-.03-.02-.02-.02-.03-.02-.02-.02-.03-.02-.02-.02-.02-.02-.02-.03-.01-.02-.02-.03-.02-.02-.01-.03-.01-.03-.02-.03-.01H24l-.03-.01-.03-.01h-.1v-.35h.05l.05.01h.05l.05.01.05.01.04.02.05.01.04.02.04.02.04.03.04.02.04.03.04.02.03.03.04.04.03.03.03.03.03.04.03.04.03.04.02.03.02.04.03.05.02.04.01.04.02.04.02.05.01.04.01.05.01.04.01.05.01.05zm-.01 2.38l-.33-2.33.34-.05.33 2.33-.34.05zm-.66.97v-.34l.04-.01h.07l.03-.01.03-.01h.03l.03-.02.04-.01.03-.01.03-.02.03-.01.02-.02.03-.02.03-.02.02-.02.03-.02.02-.02.02-.03.02-.02.02-.02.02-.03.01-.03.02-.02.01-.03.01-.03.01-.03v-.03l.01-.02v-.12l.34-.05V31.25l-.01.05-.01.05-.02.05-.01.04-.02.05-.03.05-.02.04-.03.04-.03.04-.03.04-.03.03-.03.04-.04.03-.04.03-.04.03-.04.03-.04.03-.04.02-.05.02-.04.02-.05.02-.05.01-.04.02-.05.01-.06.01h-.04l-.05.01h-.06zm-1.86-.34h1.86v.34H22.3v-.34zm-.99-.68l.34.05-.01.03v.06l.01.03v.02l.01.03v.03l.02.03.01.03.01.02.02.03.01.03.02.02.02.02.02.03.02.02.03.02.02.02.03.02.03.02.03.02.02.01.04.02.03.01.03.01.03.02h.03l.03.01.04.01h.07l.03.01v.34h-.05l-.05-.01h-.05l-.05-.01-.05-.01-.05-.02-.05-.01-.04-.02-.05-.02-.04-.02-.05-.02-.04-.03-.04-.03-.04-.03-.04-.03-.03-.03-.04-.04-.03-.03-.03-.04-.03-.04-.03-.04-.02-.04-.03-.05-.02-.05-.01-.04-.01-.05-.02-.05v-.05l-.01-.05v-.1l.01-.06zm.66-2.28l-.32 2.33-.34-.05.32-2.33.34.05zm.65-1.02v.35h-.09l-.03.01-.03.01h-.03l-.03.01-.03.02-.02.01-.03.01-.03.02-.02.01-.02.02-.02.02-.03.02-.02.02-.02.03-.02.02-.02.03-.02.02-.01.03-.02.03-.02.03-.01.03-.01.03-.02.03-.01.03-.01.04-.01.03-.01.04v.03l-.01.04-.34-.05.01-.05.01-.05.01-.04.01-.05.02-.04.01-.05.02-.04.02-.04.02-.05.02-.04.02-.04.03-.04.02-.03.03-.04.03-.04.03-.03.03-.03.04-.04.03-.02.04-.03.04-.03.04-.02.04-.03.04-.02.05-.02.04-.01.05-.02.04-.01.06-.01h.04l.05-.01h.05z" class="fil1"/></g></g></svg>