<svg xmlns="http://www.w3.org/2000/svg" width="58" height="71" fill-rule="evenodd" clip-rule="evenodd" image-rendering="optimizeQuality" shape-rendering="geometricPrecision" text-rendering="geometricPrecision" viewBox="0 0 57.98 70.81"><defs><style>.fil6{fill:#fefefe}.fil7{fill:#2b2a29}.fil9{fill:#f5b2b6}.fil2{fill:#f6d0d1}.fil3{fill:#c5e3d7}.fil4{fill:#99cfba}.fil1,.fil5,.fil8{fill:#2b2a29;fill-rule:nonzero}.fil5,.fil8{fill:#f08bb2}.fil5{fill:#f6d0d1}</style></defs><g id="Слой_x0020_1"><path fill="#f08bb2" d="M10.87 60.65c6.46-6.75 11.45-16.62 14.47-27.58 2.6.33 4.13.55 6.72-.22 3.73 9.61 7.25 18.95 15.97 26.63-12.35 6.69-21.7 8.74-37.16 1.17z"/><path id="1" d="M25.36 32.91l-.04.33.18-.12-.29 1.02-.3 1.02-.31 1.02-.32 1-.34 1-.34.99-.36.97-.37.98-.38.96-.39.95-.4.94-.41.93-.42.92-.43.91-.44.9-.46.89-.46.87-.47.86-.48.85-.5.83-.5.82-.51.81-.52.79-.53.78-.54.76-.55.75-.56.73-.57.71-.58.7-.58.68-.6.66-.6.65-.24-.24.59-.64.6-.65.58-.68.57-.69.56-.71.56-.72.54-.75.54-.75.53-.78.52-.78.51-.8.5-.82.49-.83.48-.84.47-.86.46-.87.45-.88.43-.89.43-.91.42-.92.41-.92.4-.94.39-.95.38-.96.36-.96.36-.98.34-.98.34-1 .32-1 .31-1 .3-1.02.29-1.02.18-.12zm-.18.12l.04-.14.14.02-.18.12zm7.03-.24l-.31.12.2.1-.24.07-.23.07-.24.06-.22.05-.22.05-.22.04-.21.04-.21.04-.21.02-.21.03-.2.02-.2.02-.2.01-.19.01h-.79l-.19-.01-.2-.01-.2-.01-.2-.02-.21-.02-.2-.02-.21-.02-.21-.02-.22-.03-.22-.02-.23-.03-.22-.03-.24-.03-.24-.03.04-.33.24.03.24.03.23.03.22.02.22.03.21.03.21.02.21.02.2.02.2.02.2.01.2.01.19.01.19.01.19.01h.38l.19-.01.2-.01.19-.01.19-.02.2-.01.19-.03.21-.03.2-.03.21-.04.21-.04.21-.05.22-.05.23-.06.23-.06.24-.07.2.1zm-.2-.1l.15-.04.05.14-.2-.1zm16.1 26.94l-.16-.29-.03.27-.8-.73-.78-.74-.75-.74-.72-.76-.69-.76-.67-.78-.64-.78-.62-.79-.6-.79-.57-.81-.56-.81-.53-.82-.52-.82-.5-.83-.48-.84-.46-.84-.46-.85-.43-.85-.43-.86-.41-.87-.4-.86-.4-.87-.38-.88-.37-.88-.37-.88-.37-.89-.36-.89-.35-.89-.35-.89-.35-.9-.35-.9-.35-.9.31-.12.35.9.35.9.35.89.35.9.36.89.35.89.37.88.37.88.37.88.38.87.39.87.4.86.42.86.42.86.43.85.45.84.46.84.48.83.5.82.51.82.53.81.55.81.57.8.6.79.61.78.64.78.66.76.69.76.71.75.75.74.76.73.81.73-.04.27zm.04-.27l.18.16-.22.11.04-.27zm-37.4 1.17l.24.24-.05-.27 1.43.68 1.39.62 1.37.57 1.33.52 1.3.47 1.27.41 1.25.36 1.22.31 1.2.26 1.18.22 1.16.17 1.14.12 1.12.07 1.12.03 1.1-.01 1.08-.05 1.08-.1 1.08-.13 1.06-.18 1.06-.21 1.07-.26 1.06-.29 1.06-.32 1.06-.36 1.07-.4 1.08-.43 1.08-.46 1.09-.5 1.11-.52 1.11-.56 1.14-.58 1.14-.61.16.29-1.15.62-1.13.58-1.13.56-1.11.53-1.09.49-1.1.47-1.08.43-1.07.4-1.08.37-1.07.33-1.07.29-1.07.25-1.08.22-1.08.18-1.08.14-1.09.09-1.11.06-1.11.01-1.12-.03-1.14-.08-1.16-.12-1.17-.17-1.19-.22-1.21-.26-1.23-.32-1.26-.36-1.28-.42-1.31-.46-1.34-.52-1.37-.58-1.4-.62-1.44-.69-.04-.27zm.04.27l-.2-.1.16-.17.04.27z" class="fil1"/><path d="M28.29 10.9c6.69 0 12.11 5.04 12.11 11.25 0 6.22-5.42 11.26-12.11 11.26-6.69 0-12.12-5.04-12.12-11.26 0-6.21 5.43-11.25 12.12-11.25z" class="fil2"/><path id="1" d="M40.57 22.15h-.33l-.02-.57-.05-.56-.07-.56-.11-.54-.13-.54-.16-.52-.19-.52-.21-.5-.24-.49-.26-.48-.29-.46-.31-.45-.34-.44-.35-.42-.37-.4-.4-.38-.41-.37-.44-.35-.45-.33-.47-.31-.48-.29-.5-.26-.52-.25-.53-.22-.54-.2-.56-.17-.56-.16-.58-.12-.59-.1-.6-.07-.61-.04-.61-.02v-.33l.63.01.62.05.62.07.6.1.59.13.59.15.57.18.55.21.55.22.53.26.51.27.5.3.48.31.47.34.44.36.43.38.41.4.38.41.37.43.34.45.32.46.3.48.27.5.24.5.22.52.2.53.16.54.14.56.11.56.08.57.05.58.01.59zM28.29 33.58v-.34l.61-.01.61-.05.6-.07.59-.1.58-.12.56-.15.56-.18.54-.19.53-.23.52-.24.5-.27.48-.29.47-.31.45-.33.44-.34.41-.37.4-.39.37-.4.35-.42.34-.43.31-.45.29-.47.26-.48.24-.49.21-.5.19-.51.16-.53.13-.54.11-.54.07-.56.05-.56.02-.57h.33l-.01.59-.05.58-.08.57-.11.57-.14.55-.16.54-.2.53-.22.52-.24.51-.27.49-.3.48-.32.46-.34.45-.37.43-.38.42-.41.39-.43.38-.44.36-.47.34-.48.32-.5.29-.51.28-.53.25-.55.23-.55.2-.57.18-.59.16-.59.12-.6.11-.62.07-.62.04-.63.02zM16 22.15h.34l.02.57.04.56.08.56.1.54.14.54.16.53.18.51.22.5.24.49.26.48.29.47.31.45.33.43.35.42.38.4.4.39.41.37.43.34.46.33.46.31.49.29.5.27.51.24.53.23.55.19.55.18.57.15.58.12.59.1.59.07.61.05.62.01v.34l-.63-.02-.63-.04-.61-.07-.6-.11-.6-.12-.58-.16-.57-.18-.56-.2-.54-.23-.53-.25-.52-.28-.49-.29-.49-.32-.46-.34-.45-.36-.42-.38-.41-.39-.39-.42-.36-.43-.34-.45-.32-.46-.3-.48-.27-.49-.25-.51-.22-.52-.19-.53-.17-.54-.14-.55-.1-.57-.08-.57-.05-.58-.02-.59zm12.29-11.42v.33l-.62.02-.61.04-.59.07-.59.1-.58.12-.57.16-.55.17-.55.2-.53.22-.51.25-.5.26-.49.29-.46.31-.46.33-.43.35-.41.37-.4.38-.38.4-.35.42-.33.44-.31.45-.29.46-.26.48-.24.49-.22.5-.18.52-.16.52-.14.54-.1.54-.08.56-.04.56-.02.57H16l.02-.59.05-.58.08-.57.1-.56.14-.56.17-.54.19-.53.22-.52.25-.5.27-.5.3-.48.32-.46.34-.45.36-.43.39-.41.41-.4.42-.38.45-.36.46-.34.49-.31.49-.3.52-.27.53-.26.54-.22.56-.21.57-.18.58-.15.6-.13.6-.1.61-.07.63-.05.63-.01z" class="fil1"/><path d="M16.91 32.17c1.21-12.28 5.25-19.09 9.3-23.91C14.28 7.16 14.47 24.72 6.54 28.3c2.44 3.09 6.93 4.44 10.37 3.87z" class="fil3"/><path id="1" d="M26.19 8.43l.03-.34.12.28-.38.45-.38.47-.37.48-.38.5-.37.51-.37.52-.37.54-.36.55-.36.57-.35.59-.35.61-.35.62-.33.65-.33.66-.33.69-.31.7-.31.73-.3.75-.29.78-.28.79-.26.82-.26.85-.25.87-.24.9-.22.93-.21.95-.19.98-.19 1.01-.16 1.04-.16 1.07-.13 1.1-.13 1.13-.33-.03.12-1.14.14-1.1.15-1.08.17-1.05.19-1.01.19-.99.21-.96.23-.93.24-.91.24-.87.26-.86.28-.83.28-.8.29-.78.3-.76.31-.73.32-.71.32-.69.34-.67.34-.66.34-.63.36-.61.35-.59.37-.58.36-.56.37-.54.38-.53.37-.51.38-.5.38-.49.38-.47.38-.46.11.28zm.03-.34l.32.03-.2.25-.12-.28zM6.68 28.19l-.27.21.06-.26.71-.36.66-.44.62-.52.59-.57.56-.64.53-.69.51-.73.49-.78.47-.81.46-.84.44-.86.45-.88.43-.89.44-.9.45-.9.45-.88.46-.88.48-.86.5-.83.53-.8.55-.77.58-.72.62-.68.66-.62.7-.55.75-.49.8-.42.85-.33.91-.25.97-.16 1.03-.05 1.1.05-.03.34-1.07-.05-.99.05-.94.15-.87.24-.82.32-.77.4-.72.47-.68.54-.64.6-.6.66-.57.71-.55.75-.51.79-.5.82-.47.85-.46.87-.45.89-.45.89-.43.9-.44.89-.45.88-.45.87-.46.85-.47.82-.5.79-.51.74-.55.71-.57.65-.61.6-.65.53-.69.46-.74.38.07-.26zm-.27.21l-.13-.17.19-.09-.06.26zm10.33 3.75l.33.03-.14.15-.33.05-.33.04-.35.03-.34.01h-.7l-.36-.02-.36-.03-.36-.04-.36-.06-.36-.06-.36-.08-.36-.08-.35-.1-.36-.11-.36-.12-.35-.12-.35-.15-.34-.15-.34-.16-.33-.17-.33-.19-.32-.19-.32-.2-.3-.22-.3-.23-.3-.23-.28-.25-.27-.26-.26-.27-.25-.28-.24-.29.27-.21.23.28.24.27.25.26.26.25.27.24.28.23.29.22.3.21.31.2.31.18.32.18.32.17.33.16.34.14.33.14.35.13.34.11.35.11.35.09.35.09.35.07.35.06.35.05.35.04.34.03.35.02.34.01h.34l.34-.02.33-.02.32-.04.32-.05-.14.15zm.33.03l-.01.13-.13.02.14-.15z" class="fil1"/><path d="M38.85 31.54c-1.21-12.28-5.01-18.91-9.05-23.73 11.92-1.1 11.48 16.28 19.41 19.86-2.43 3.08-6.93 4.44-10.36 3.87z" class="fil3"/><path id="1" d="M29.81 7.98l.12-.27.37.45.38.48.38.48.37.49.37.51.37.53.36.53.36.56.35.57.35.58.34.61.34.62.33.64.32.67.31.68.31.7.3.73.29.75.28.77.27.79.26.82.25.85.24.87.23.9.21.92.2.96.2.98.17 1.01.17 1.04.15 1.08.13 1.1.13 1.14-.34.03-.12-1.13-.14-1.1-.15-1.07-.16-1.03-.18-1.01-.18-.98-.21-.94-.21-.92-.23-.89-.24-.87-.24-.84-.26-.81-.27-.79-.28-.77-.29-.74-.29-.72-.3-.69-.32-.68-.31-.66-.33-.63-.33-.62-.34-.6-.35-.58-.35-.56-.35-.55-.36-.53-.36-.52-.37-.51-.37-.49-.37-.48-.38-.46-.37-.46.11-.27.03.33zm-.14-.06l-.21-.24.32-.03-.11.27zm19.41 19.64l.06.26-.73-.38-.69-.46-.65-.53-.6-.59-.57-.65-.54-.7-.51-.74-.49-.79-.46-.81-.45-.84-.44-.86-.43-.88-.43-.88-.43-.89-.43-.88-.44-.88-.45-.86-.46-.84-.49-.82-.5-.78-.53-.74-.56-.7-.59-.65-.64-.6-.66-.53-.72-.46-.76-.4-.81-.32-.87-.23-.94-.15-.99-.05-1.07.05-.03-.33 1.1-.05 1.03.05.97.15.9.24.85.33.79.41.74.49.7.55.64.61.61.67.58.72.54.75.51.8.49.82.47.85.45.87.44.88.43.89.43.88.43.89.43.87.44.86.44.83.46.8.48.77.5.73.53.68.55.63.59.58.62.51.66.44.7.36.06.26-.26-.21zm.2-.05l.2.09-.14.17-.06-.26zm-10.26 4.01l-.14-.15.31.05.33.03.33.03.33.01.34.01.34-.01.35-.02.35-.03.35-.04.35-.05.35-.06.35-.08.35-.08.35-.09.34-.11.35-.11.34-.13.34-.14.33-.14.33-.16.33-.17.31-.18.32-.19.3-.2.3-.2.29-.22.28-.23.27-.24.26-.25.26-.26.24-.27.23-.28.26.21-.24.29-.25.28-.26.27-.27.26-.28.24-.29.24-.3.23-.31.21-.31.21-.33.19-.32.19-.34.17-.34.16-.34.15-.35.14-.35.13-.36.12-.35.11-.36.1-.36.08-.36.08-.36.06-.36.05-.36.05-.36.03-.35.01-.36.01h-.35l-.34-.02-.34-.02-.34-.04-.33-.05-.14-.15.34-.03zm-.2.18l-.13-.02-.01-.13.14.15z" class="fil1"/><path d="M47.4 30.53c-1.08.85-2.49 1.22-4.06 1.37-4.29-16.31-8.3-19.74-11.73-24.37 7.37 5.03 11.44 19.53 15.79 23z" class="fil4"/><path id="1" d="M43.5 31.86l-.18-.12.15-.02.14-.01.14-.02.15-.02.14-.02.14-.02.14-.03.13-.02.14-.03.13-.03.14-.03.13-.03.13-.03.13-.04.12-.03.13-.04.13-.04.12-.05.12-.04.12-.05.12-.05.11-.05.12-.05.11-.06.11-.06.11-.06.11-.06.11-.06.1-.07.1-.07.1-.07.1-.08.21.27-.11.08-.1.07-.11.08-.11.07-.12.07-.11.07-.12.06-.12.06-.12.06-.12.06-.12.05-.12.05-.13.05-.13.05-.13.05-.13.04-.13.04-.13.04-.13.03-.14.04-.14.03-.14.03-.14.03-.13.03-.15.02-.14.03-.14.02-.15.02-.14.02-.15.02-.15.02-.14.01-.18-.12.32-.09zm-.14.21l-.15.02-.03-.14.18.12zM31.52 7.66l.23-.23.32.42.32.43.33.43.34.42.33.43.34.44.35.44.34.46.35.47.36.48.35.51.36.52.36.55.36.58.37.61.37.63.37.68.38.71.37.74.38.79.38.84.38.88.39.93.39.99.39 1.04.39 1.09.39 1.16.4 1.21.39 1.29.4 1.35.4 1.42.4 1.49-.32.09-.4-1.49-.4-1.42-.4-1.35-.4-1.27-.39-1.22-.39-1.15-.39-1.09-.39-1.03-.38-.98-.39-.93-.38-.87-.37-.83-.38-.79-.37-.74-.37-.7-.37-.67-.37-.63-.36-.6-.36-.57-.36-.55-.36-.52-.35-.5-.35-.48-.35-.47-.34-.46-.34-.44-.34-.43-.34-.43-.33-.43-.33-.42-.33-.43-.32-.43.23-.24-.19.27zm-.04-.03l-.6-.8.83.56-.23.24zM47.29 30.4v.27l-.42-.37-.41-.43-.41-.48-.41-.53-.41-.59-.41-.63-.42-.67-.41-.7-.42-.74-.42-.78-.43-.8-.43-.82-.44-.84-.45-.85-.45-.87-.46-.88-.47-.88-.48-.88-.49-.87-.5-.87-.51-.86-.52-.85-.53-.82-.55-.81-.56-.78-.58-.75-.59-.71-.6-.68-.63-.64-.64-.59-.65-.54-.67-.5.19-.27.69.5.67.56.65.6.63.65.62.69.59.73.59.75.56.79.56.81.54.83.52.85.52.87.5.87.49.88.48.88.47.89.46.87.45.87.45.86.44.84.43.82.42.79.42.77.42.74.41.7.41.66.4.62.41.58.4.52.4.47.4.41.39.34v.27l-.21-.27zm.21 0l.17.14-.17.13v-.27z" class="fil1"/><path d="M7.32 69.54c.88-.88 1.75-1.76 2.63-2.65.96.48 1.36 1.23 1.45 1.94.14 1.24-.43 1.76-1.64 1.81-.75.03-1.66-.22-2.44-1.1z" class="fil4"/><path id="1" d="M10.03 66.74l-.15.3.19-.03-.08.09-.08.08-.09.08-.08.08-.08.09-.08.08-.08.08-.09.08-.08.09-.08.08-.08.08-.09.09-.08.08-.08.08-.08.08-.08.09-.09.08-.08.08-.08.09-.08.08-.08.08-.09.08-.08.09-.08.08-.08.08-.09.09-.08.08-.08.08-.08.08-.08.09-.09.08-.08.08-.24-.23.08-.09.09-.08.08-.08.08-.09.08-.08.08-.08.09-.08.08-.09.08-.08.08-.08.09-.09.08-.08.08-.08.08-.08.08-.09.09-.08.08-.08.08-.09.08-.08.09-.08.08-.08.08-.09.08-.08.08-.08.09-.08.08-.09.08-.08.08-.08.09-.09.08-.08.08-.08.08-.09.2-.03zm-.2.03l.09-.08.11.05-.2.03zm1.73 2.04l-.33.04-.01-.06-.01-.07-.01-.06-.01-.06-.02-.06-.02-.06-.02-.06-.02-.07-.02-.06-.03-.06-.03-.06-.02-.06-.04-.06-.03-.06-.04-.06-.04-.06-.04-.06-.04-.05-.05-.06-.05-.06-.05-.05-.05-.06-.06-.05-.06-.05-.06-.06-.07-.05-.07-.05-.07-.05-.07-.04-.08-.05-.08-.04-.08-.05.15-.3.09.05.09.05.08.05.09.05.08.06.07.05.08.06.07.06.07.06.06.06.06.06.06.07.06.06.05.07.05.06.05.07.04.07.05.07.04.07.03.07.04.07.03.07.03.07.03.07.02.07.03.07.02.07.01.07.02.07.01.08.01.07.01.07zm-1.79 2l-.01-.34.1-.01h.11l.09-.02.1-.01.09-.02.09-.01.08-.03.07-.02.08-.03.07-.03.06-.03.06-.03.06-.04.05-.04.05-.04.04-.05.05-.04.03-.05.04-.06.03-.05.03-.06.03-.07.02-.07.02-.07.01-.08.02-.08v-.09l.01-.09v-.19l-.01-.1-.01-.11.33-.04.02.12v.11l.01.12v.11l-.01.1-.01.1-.02.1-.01.1-.03.09-.03.08-.03.09-.04.08-.04.08-.05.07-.05.07-.06.06-.06.07-.07.05-.07.06-.07.04-.08.05-.08.04-.09.04-.09.03-.09.03-.1.02-.09.03-.11.01-.1.02-.11.01-.11.01-.12.01zM7.2 69.43l.24.23.01-.23.07.08.07.07.07.07.07.07.07.06.08.06.07.06.07.05.08.05.07.05.07.04.08.04.07.04.08.04.07.03.08.03.07.03.07.03.08.02.07.02.07.02.08.02.07.01.07.02.07.01.07.01h.07l.07.01h.28l.01.34H9.54l-.08-.01h-.07l-.08-.01-.08-.01-.08-.01-.09-.02-.08-.01-.08-.02-.08-.02-.08-.03-.08-.02-.09-.03-.08-.03-.08-.04-.09-.04-.08-.04-.08-.04-.09-.05-.08-.05-.08-.05-.08-.06-.08-.05-.08-.07-.08-.06-.08-.07-.08-.07-.08-.08-.08-.08-.07-.08v-.23zm0 .23l-.11-.12.11-.11v.23z" class="fil1"/><path d="M13.49 62.36c-.78 1.46-1.74 2.84-2.99 4.06.86.68 1.49 1.5 1.77 2.52 1.66-1.6 3.03-3.38 4.22-5.27-.67-.2-1.6-.58-3-1.31z" class="fil2"/><path id="1" d="M10.6 66.29l-.21.27-.01-.25.11-.12.12-.12.11-.11.11-.12.11-.11.1-.12.11-.12.11-.12.1-.12.1-.13.1-.12.1-.12.09-.12.1-.13.09-.13.09-.12.1-.13.08-.13.09-.12.09-.13.09-.13.08-.13.09-.13.08-.13.08-.14.08-.13.08-.13.08-.14.07-.13.08-.13.07-.14.08-.13.29.16-.07.13-.08.14-.08.14-.07.13-.08.14-.08.14-.08.13-.09.13-.08.14-.09.13-.08.13-.09.14-.09.13-.09.13-.09.13-.09.13-.1.12-.09.13-.1.13-.1.13-.1.12-.1.13-.1.12-.11.13-.11.12-.1.12-.11.12-.11.12-.12.12-.11.12-.12.12-.12.11-.01-.25zm-.21.27l-.15-.12.14-.13.01.25zm1.76 2.26l.24.24-.28-.07-.03-.1-.03-.09-.03-.09-.03-.09-.03-.08-.04-.09-.04-.08-.04-.09-.04-.08-.04-.08-.04-.08-.05-.08-.05-.08-.05-.08-.05-.08-.06-.07-.05-.08-.06-.07-.05-.07-.06-.07-.07-.08-.06-.07-.07-.07-.06-.06-.07-.07-.07-.07-.07-.06-.07-.07-.08-.06-.07-.07-.08-.06-.08-.06.21-.27.08.07.08.06.08.07.08.07.08.07.07.07.08.07.07.07.07.07.07.08.07.07.06.08.07.07.06.08.06.08.06.08.06.08.05.09.05.08.06.09.05.08.05.09.04.09.05.09.04.09.04.09.04.09.04.1.03.09.03.1.03.1.03.1-.28-.08zm.24.24l-.21.2-.07-.27.28.07zm4.05-5.23l.1-.32.09.25-.11.18-.11.17-.12.18-.11.17-.12.18-.12.17-.12.18-.12.17-.12.17-.13.18-.12.17-.13.17-.12.17-.13.16-.13.17-.13.17-.14.16-.13.17-.14.16-.13.17-.14.16-.14.16-.14.16-.14.16-.15.16-.14.16-.15.15-.15.16-.15.15-.15.16-.16.15-.15.15-.24-.24.16-.15.15-.15.15-.15.15-.16.14-.15.15-.15.14-.16.15-.16.14-.15.14-.16.13-.16.14-.16.14-.16.13-.16.13-.17.13-.16.13-.17.13-.16.13-.17.12-.17.13-.16.12-.17.12-.17.13-.17.11-.17.12-.18.12-.17.12-.17.11-.18.12-.17.11-.18.11-.17.09.25zm.1-.32l.21.06-.12.19-.09-.25zm-2.9-1.07l-.29-.16.22-.07.13.06.13.07.12.06.12.06.12.06.12.06.11.05.11.06.11.05.11.05.1.05.1.05.1.04.1.04.09.04.09.05.09.03.09.04.09.03.08.04.08.03.08.03.08.03.08.03.07.03.07.03.07.02.07.02.07.03.07.02.06.02.06.02-.1.32-.06-.02-.07-.02-.07-.02-.06-.03-.08-.02-.07-.03-.07-.02-.08-.03-.08-.03-.08-.03-.08-.03-.08-.04-.09-.03-.09-.04-.09-.04-.09-.04-.09-.04-.1-.04-.1-.04-.1-.05-.1-.05-.11-.04-.1-.06-.11-.05-.12-.05-.11-.06-.12-.06-.12-.06-.12-.06-.12-.06-.13-.07-.13-.07.22-.06zm-.29-.16l.08-.15.14.08-.22.07z" class="fil1"/><path d="M8.96 31.23c1.08.84 2.49 1.21 4.06 1.37 4.29-16.31 8.29-19.75 11.73-24.38-7.38 5.03-11.44 19.54-15.79 23.01z" class="fil4"/><path id="1" d="M12.85 32.55l.33.09-.18.13-.15-.02-.14-.02-.15-.02-.15-.01-.14-.03-.14-.02-.15-.02-.14-.03-.14-.03-.14-.02-.13-.04-.14-.03-.14-.03-.13-.04-.13-.04-.14-.04-.13-.04-.12-.05-.13-.04-.13-.05-.12-.05-.12-.06-.13-.06-.12-.05-.12-.07-.11-.06-.12-.07-.11-.07-.11-.07-.11-.07-.11-.08-.1-.08.2-.26.1.07.1.07.11.07.1.07.11.07.11.06.1.06.11.06.12.05.11.06.12.05.12.04.12.05.12.05.12.04.13.04.12.04.13.04.13.03.13.04.13.03.13.03.14.02.14.03.13.03.14.02.14.02.14.02.14.02.15.02.14.02.14.01-.18.12zm.33.09l-.04.14-.14-.01.18-.13zM24.84 8.36l-.19-.28.23.24-.32.43-.33.43-.33.43-.33.42-.34.43-.34.44-.34.44-.34.45-.35.47-.35.48-.36.5-.35.52-.36.55-.36.57-.36.6-.37.63-.37.67-.37.7-.37.75-.38.78-.38.83-.38.87-.38.93-.38.98-.39 1.03-.39 1.09-.39 1.15-.4 1.22-.39 1.28-.4 1.34-.4 1.42-.4 1.49-.33-.09.41-1.49.4-1.42.4-1.35.39-1.28.4-1.22.39-1.16.39-1.09.39-1.04.39-.99.38-.93.39-.88.38-.83.38-.79.37-.75.38-.71.37-.67.37-.64.36-.61.37-.57.36-.56.36-.52.35-.51.36-.48.34-.47.35-.46.34-.44.34-.44.34-.43.33-.42.33-.43.33-.42.32-.43.23.24zm-.19-.28l.82-.56-.59.8-.23-.24zM9.06 31.1l-.2.26v-.26l.39-.35.4-.41.4-.47.4-.52.4-.57.41-.62.41-.67.41-.7.41-.74.42-.76.43-.8.43-.82.44-.84.45-.86.45-.86.46-.88.47-.88.48-.89.49-.87.5-.88.51-.86.53-.85.54-.84.55-.81.57-.79.58-.75.6-.73.62-.69.63-.65.65-.6.67-.56.69-.5.19.28-.67.49-.66.54-.64.6-.62.63-.6.68-.59.72-.58.75-.56.77-.55.81-.54.83-.52.84-.51.86-.5.87-.48.88-.48.88-.47.88-.46.87-.46.87-.44.86-.44.84-.43.82-.43.8-.42.77-.42.74-.41.71-.42.67-.41.62-.41.59-.41.53-.41.49-.42.42-.41.37-.01-.26zm-.2.26l-.17-.13.17-.13v.26z" class="fil1"/><path d="M18.92 15.57c5.53 1.33 11.57 1.31 17.98.37-.85-2.43-2.19-7.98-8.21-8.66-6.79.13-7.63 4.44-9.77 8.29z" class="fil3"/><path id="1" d="M36.74 16l.32-.11-.13.22-.6.08-.6.08-.6.08-.59.07-.6.06-.59.06-.58.05-.59.04-.58.04-.58.04-.58.02-.58.02-.57.02-.58.01h-.56l-.57-.01-.56-.01-.57-.02-.55-.02-.56-.03-.55-.04-.56-.05-.54-.05-.55-.06-.54-.07-.54-.08-.54-.08-.53-.09-.53-.09-.53-.11-.52-.11-.53-.12.08-.33.52.12.52.11.52.1.53.1.53.09.53.08.53.08.54.06.54.06.54.06.55.04.55.04.55.03.56.03.55.02.56.01h1.13l.57-.01.57-.01.57-.02.58-.03.58-.03.58-.04.58-.05.58-.05.59-.06.59-.06.59-.07.59-.07.6-.08.6-.08-.14.22zm.32-.11l.07.19-.2.03.13-.22zm-8.37-8.44l-.01-.34.03.01.56.07.53.11.51.13.48.16.46.18.43.2.41.23.39.24.37.26.34.27.33.29.31.3.28.31.27.32.25.33.24.34.22.34.21.34.19.35.18.35.16.34.16.35.14.33.13.34.13.32.11.32.11.31.1.3.1.28.09.27.08.25.08.24-.32.11-.08-.24-.08-.26-.09-.26-.1-.29-.1-.29-.11-.31-.11-.31-.12-.32-.13-.33-.14-.33-.15-.34-.16-.33-.18-.34-.19-.34-.2-.33-.21-.33-.23-.33-.24-.32-.26-.3-.28-.3-.29-.29-.31-.28-.33-.26-.35-.25-.37-.23-.4-.22-.41-.19-.44-.17-.47-.15-.49-.13-.51-.1-.54-.08h.02zm-.01-.34h.01l.02.01-.03-.01zm-9.72 8.3l-.08.33-.1-.25.19-.36.19-.36.19-.37.18-.36.18-.36.18-.37.18-.36.18-.36.18-.35.19-.35.2-.35.2-.34.21-.33.22-.33.24-.31.24-.31.27-.29.27-.29.3-.27.31-.26.33-.24.35-.23.37-.21.4-.19.42-.18.45-.16.47-.13.51-.12.52-.09.57-.07.59-.05.62-.03.01.34-.61.02-.58.05-.54.07-.52.09-.48.11-.46.13-.43.15-.4.17-.38.19-.36.2-.33.22-.32.23-.29.24-.28.26-.27.27-.25.29-.24.29-.22.31-.22.31-.2.33-.2.33-.19.34-.19.35-.18.35-.18.35-.18.36-.18.37-.18.36-.18.37-.19.36-.19.37-.2.37-.11-.25zm-.08.33l-.21-.06.11-.19.1.25z" class="fil1"/><path d="M27.71 7.33c-2.42-.06-3.85 7.06-5.18 9.31 1.52.36 2.77.25 4.42.27-.47-2.6.34-8.09.76-9.58z" class="fil4"/><path id="1" d="M22.57 16.48l-.07.32-.11-.25.12-.21.12-.25.13-.27.12-.29.13-.32.13-.33.13-.35.13-.36.14-.37.14-.39.14-.39.14-.39.14-.4.15-.39.15-.4.15-.39.16-.38.16-.37.17-.37.17-.35.17-.34.18-.32.18-.3.19-.27.19-.26.2-.23.21-.2.22-.18.23-.14.23-.1.25-.06.25-.02-.01.34-.19.01-.19.05-.19.08-.19.12-.19.15-.18.18-.19.21-.18.24-.18.27-.17.28-.17.31-.17.33-.17.34-.16.36-.16.37-.15.38-.16.39-.14.39-.15.39-.15.4-.14.39-.14.39-.13.38-.14.37-.13.37-.14.35-.13.34-.13.32-.13.3-.12.28-.13.25-.13.23-.11-.24zm-.07.32l-.23-.05.12-.2.11.25zm4.29.14l.33-.05-.17.19H24.95l-.13-.01h-.27l-.13-.01-.14-.01h-.13l-.13-.01-.14-.01-.13-.02-.14-.01-.14-.02-.13-.02-.14-.02-.14-.02-.14-.03-.14-.02-.14-.03-.14-.04.07-.32.14.03.14.03.13.02.14.03.13.02.14.02.13.02.13.01.13.02.13.01.13.01.13.01.13.01.13.01h.27l.13.01H26.8l.15.01-.16.19zm.33-.05l.03.2-.2-.01.17-.19zm.58-9.39l.01-.34.16.22-.04.15-.04.17-.04.19-.05.21-.05.23-.04.25-.05.26-.05.28-.04.29-.05.31-.05.31-.04.33-.05.33-.04.34-.04.34-.04.35-.03.36-.03.35-.03.36-.03.35-.02.36-.02.35-.01.34-.01.34v.66l.01.31.01.31.02.29.02.28.04.26.04.25-.33.05-.05-.25-.03-.28-.03-.28-.02-.3-.01-.32-.01-.32v-.33l.01-.33v-.35l.02-.35.01-.35.03-.36.02-.36.03-.36.03-.35.04-.36.04-.35.04-.35.04-.34.04-.34.05-.33.04-.31.05-.31.05-.3.05-.28.05-.26.04-.25.05-.24.05-.21.04-.2.04-.18.05-.15.15.21zm.01-.34l.22.01-.06.21-.16-.22z" class="fil1"/><path d="M17.41 46.06c-.21-.25-.43-.48-.65-.69-.22-.21-.45-.4-.69-.57-.69.9-1.5 1.71-2.51 2.37-.76.5-1.69 1.01-2.74 1.38-.84.29-1.76.5-2.73.54h-.08l-.07-.04c-.64-.4-1.29-.68-1.8-.9-.17-.08-.33-.15-.49-.22-.3-.14-.54-.14-.69-.05-.06.04-.1.11-.12.19-.03.09-.03.22.01.35.15.52.76 1.18 2.06 1.73l.66.28-.68.22c-.09.03-.19.07-.32.13-.5.21-1.2.59-1.72 1.08-.48.45-.8.98-.62 1.53 0 .01.01.03.02.04.39.39.82.06 1.24-.27.28-.22.56-.43.87-.52l.65-.17-.35.57c-.03.06-.09.13-.16.22-.37.46-1.25 1.58-.7 2.28.26.24.48.17.67-.03.23-.25.45-.65.65-1.02.18-.34.36-.66.54-.87l.65-.72-.19.95c-.04.23-.13.49-.22.77-.06.16-.12.33-.17.51-.23.77-.36 1.6.46 1.85.41.09.57-.2.67-.62.05-.21.08-.44.11-.66.07-.48.14-.95.33-1.31l.22-.4.25.39c.21.35.27.8.34 1.24.02.15.04.3.07.45.1.49.28.89.89.79.74-.58.69-2.59.64-4.54-.01-.67-.03-1.34-.01-1.98v-.17l.17-.07c2.27-.89 3.95-2.4 5.54-4.04z" class="fil5"/><path id="1" d="M16.64 45.49l.23-.25.02.03.02.02.03.02.02.02.02.02.02.02.02.02.02.02.02.02.03.02.02.02.02.03.02.02.02.02.02.02.02.02.02.03.02.02.03.02.01.02.02.02.03.03.02.02.02.03.02.02.02.02.02.02.02.03.02.02.02.02.02.03.02.02-.26.22-.02-.03-.02-.02-.02-.02-.02-.02-.02-.03-.02-.02-.02-.02-.02-.02-.01-.02-.02-.03-.02-.02-.02-.02-.03-.02-.01-.02-.02-.02-.02-.03-.02-.02-.02-.02-.02-.02-.02-.02-.02-.02-.02-.02-.02-.02-.02-.02-.02-.02-.02-.02-.02-.02-.03-.02-.02-.02-.02-.02-.02-.02-.02-.02zm0 0zm-.44-.59l-.27-.2.23-.04.03.02.02.02.02.01.03.02.02.02.02.01.02.02.03.02.02.02.02.02.02.01.03.02.02.02.02.02.03.01.01.02.03.02.02.02.02.01.02.02.03.02.02.02.02.02.02.02.02.02.02.02.02.02.03.02.02.02.02.02.02.01.02.02-.23.25-.02-.02-.02-.02-.02-.02-.02-.01-.02-.02-.02-.02-.02-.02-.02-.02-.02-.02-.02-.01-.02-.02-.02-.02-.02-.01-.03-.02-.02-.02-.02-.02-.02-.02-.02-.01-.02-.02-.02-.02-.02-.01-.03-.02-.02-.02-.02-.01-.02-.02-.02-.02-.02-.02-.02-.01-.03-.02-.02-.01-.02-.02-.02-.01.23-.04zm-.27-.2l.1-.13.13.09-.23.04zm-2.28 2.62l-.19-.29.1-.06.09-.06.09-.06.09-.07.09-.06.08-.07.09-.06.08-.07.09-.07.08-.07.08-.07.08-.07.08-.07.08-.07.08-.07.08-.07.07-.08.08-.07.07-.08.08-.07.07-.08.07-.08.07-.08.07-.07.07-.08.07-.08.07-.08.06-.08.07-.08.06-.09.07-.08.06-.08.27.2-.07.09-.06.08-.07.08-.07.09-.07.08-.06.09-.08.08-.07.08-.07.08-.07.08-.07.08-.08.08-.08.08-.07.07-.08.08-.08.08-.08.07-.08.08-.08.07-.08.08-.09.07-.08.07-.09.07-.08.07-.09.07-.09.07-.09.07-.1.06-.09.07-.09.07-.1.06-.09.07zm-2.77 1.38l-.11-.31.09-.04.1-.03.09-.04.1-.03.09-.04.09-.04.1-.04.09-.04.09-.04.09-.04.09-.04.09-.04.08-.04.09-.04.09-.05.08-.04.08-.04.09-.05.08-.04.08-.05.09-.04.07-.05.08-.04.08-.05.08-.04.07-.05.08-.04.07-.05.08-.05.07-.04.07-.05.07-.05.19.29-.07.04-.08.05-.07.05-.08.04-.07.05-.08.05-.08.05-.08.04-.08.05-.08.05-.08.04-.09.05-.08.04-.08.05-.09.04-.09.05-.08.04-.09.05-.09.04-.09.04-.09.05-.09.04-.1.04-.09.04-.09.04-.1.04-.09.04-.1.04-.1.04-.1.03-.09.04-.1.03zm-2.78.55l-.01-.33.08-.01h.09l.09-.01h.09l.09-.01.08-.01.09-.01.09-.01.08-.01.09-.01.09-.02.08-.01.09-.01.08-.02.09-.02.08-.01.08-.02.09-.02.08-.02.08-.02.09-.02.08-.02.08-.02.08-.02.08-.03.08-.02.08-.02.08-.03.08-.02.08-.03.08-.03.08-.02.11.31-.08.03-.08.03-.09.03-.08.02-.08.03-.08.02-.08.03-.09.02-.08.02-.09.03-.08.02-.09.02-.08.02-.09.02-.08.02-.09.02-.09.01-.09.02-.08.02-.09.01-.09.02-.09.01-.09.01-.09.01-.09.01-.09.01-.09.01-.09.01-.09.01-.1.01H8.1zm-.01-.33zm-.09 0h.09l.01.33-.08.01-.1-.03.08-.31zm.02.34h-.05l-.05-.03.1.03zm.01-.36l.07.05-.18.28-.07-.04.18-.29zm0 0l-.04-.02.04.02zm-1.95-.6l.13-.31.05.03.04.02.06.02.05.02.05.02.05.03.05.02.06.02.05.03.05.02.06.03.05.02.06.03.06.02.06.03.05.03.06.03.06.03.06.03.06.03.06.03.06.03.06.03.06.03.06.03.06.04.06.03.06.04.07.03.06.04.06.04.06.03-.18.29-.06-.04-.06-.03-.06-.04-.05-.03-.06-.03-.06-.04-.06-.03-.06-.03-.06-.03-.06-.03-.06-.03-.05-.03-.06-.03-.06-.03-.06-.03-.05-.03-.06-.02-.05-.03-.06-.03-.06-.02-.05-.03-.06-.02-.05-.03-.05-.02-.05-.02-.06-.03-.05-.02-.05-.02-.05-.02-.05-.02-.05-.03-.04-.02zm.13-.31zm-.63.09l.14-.3h.02l.01.01.02.01.01.01h.02l.03.02h.01l.01.01h.01l.02.01.02.01.01.01h.01l.02.01.02.01h.02l.01.01H6l.02.01.01.01.02.01h.01l.02.01.02.01h.01l.02.01.01.01h.02l.01.01.02.01h.02l-.13.31h-.02l-.02-.01-.01-.01-.02-.01h-.02l-.01-.01-.02-.01h-.01l-.02-.01-.02-.01H5.9l-.02-.01-.01-.01h-.02l-.02-.01-.01-.01h-.01l-.02-.01-.02-.01-.01-.01h-.01l-.02-.01-.02-.01H5.7l-.02-.01-.01-.01h-.01l-.02-.01-.02-.01-.01-.01h-.02l-.01-.01zm.14-.3l-.39-.19.39.19zm-.66.24l-.19-.28.02-.01.02-.01.02-.01.03-.02h.02l.02-.01.03-.01.02-.01h.02l.03-.01H5.33l.03.01h.03l.03.01.03.01.03.01h.03l.03.01.03.01.03.01.03.02.03.01.03.01.03.02-.14.3-.03-.01-.02-.01-.03-.01-.02-.01-.02-.01-.03-.01h-.02l-.02-.01-.02-.01h-.04l-.02-.01h-.04l-.01-.01H5.16l-.01.01h-.03l-.01.01h-.02v.01h-.01l-.02.01zm-.19-.28l-.03.02.03-.02zm.13.37l-.32-.09v-.03h.01v-.02l.01-.01v-.01l.01-.01.01-.02v-.02l.01-.01.01-.02h.01v-.01l.01-.01.02-.02v-.01h.01v-.01h.01l.01-.02.01-.01h.01l.01-.01v-.01l.02-.01.01-.01.19.28h-.01.01l-.01.01h-.01.01-.01v.01h-.01v.01l.01-.01-.01.01-.01.01v.01l-.01.01.01-.01-.01.01v.01L5 48.1l.01-.01-.01.01v.01zm-.32-.09l.01-.05-.01.05zm.34.35l-.33.1v-.03l-.01-.02v-.02l-.01-.02v-.01l-.01-.02v-.09l-.01-.02v-.07l.01-.02v-.08l.01-.02v-.01l.01-.02.32.09v.02l-.01.02v.01-.01.12l.01.02v.03l.01.01v.03l.01.01zm0 0l.13.48-.13-.48zM6.98 50l-.13.31-.13-.05-.12-.06-.11-.05-.11-.06-.11-.05-.1-.06-.1-.06-.1-.05-.09-.06-.09-.06-.08-.06-.08-.06-.08-.05-.07-.06-.08-.06-.06-.06-.07-.06-.06-.06-.06-.06-.05-.06-.05-.06-.05-.06-.04-.05-.04-.06-.04-.06-.04-.06-.03-.06-.03-.05-.02-.06-.03-.06-.02-.06-.02-.05.33-.1.01.05.02.04.01.04.02.05.03.04.02.05.03.05.03.05.04.05.04.05.04.05.04.05.05.05.05.05.05.05.06.06.06.05.07.06.07.05.07.05.07.06.08.05.08.05.09.06.09.05.09.06.1.05.1.05.11.05.11.06.11.05.12.05zm.52.59l-.65-.28.13-.31.65.28-.01.31H7.5zm.13-.31l.41.17-.42.14.01-.31zm-.79.21l.67-.22.11.32-.68.22-.1-.32zm.1.32l.04-.01-.04.01zm-.3.12l-.13-.31h.01l.01-.01h.01l.01-.01h.01l.01-.01h.02l.01-.01.02-.01h.02l.02-.01.01-.01h.02l.01-.01h.02v-.01h.02l.01-.01h.01l.02-.01h.02l.01-.01h.02l.01-.01.1.32v.01h-.03l-.01.01h-.02v.01h-.02l-.01.01h-.02l-.01.01H6.8l-.01.01-.02.01h-.01l-.02.01-.02.01h-.01l-.01.01h-.02l-.01.01h-.01l-.01.01h-.01zm-.13-.31zm-1.55 1.36l-.23-.24.05-.05.06-.05.05-.04.05-.05.06-.04.05-.05.06-.04.06-.04.05-.04.06-.04.06-.04.06-.04.06-.04.05-.04.06-.03.06-.04.06-.04.06-.03.05-.03.06-.03.06-.04.06-.02.05-.04.06-.02.05-.03.06-.03.05-.03.06-.02.05-.02.05-.03.05-.02.05-.02.13.31-.05.02-.04.02-.05.02-.05.03-.05.02-.05.02-.06.03-.05.03-.05.02-.06.03-.05.03-.05.03-.06.03-.05.03-.06.04-.06.03-.05.03-.06.04-.05.03-.06.04-.05.04-.06.03-.05.04-.05.04-.06.04-.05.04-.05.04-.05.04-.05.04-.05.05-.05.04-.05.04zm-.57 1.36l-.32.1-.02-.06-.01-.06-.01-.06-.01-.06-.01-.06V52.97l.01-.06.01-.06.01-.06.02-.05.01-.06.02-.06.03-.05.02-.05.02-.06.03-.05.03-.05.03-.05.03-.06.04-.04.03-.05.04-.06.04-.04.04-.05.04-.05.04-.04.05-.05.04-.04.05-.05.04-.04.23.24-.04.04-.04.04-.04.04-.04.04-.04.05-.03.04-.04.04-.03.04-.04.04-.03.05-.03.04-.02.04-.03.05-.02.04-.03.04-.01.05-.02.04-.02.04-.02.04-.01.05-.01.04-.01.04-.01.04V53.16l.01.05.01.04.01.04.01.04v.01zm0-.01v.01-.01zm-.03-.02l-.23.24-.04-.06-.01-.01.01.02-.01-.02.01.02-.01-.02v-.01l.01.02-.01-.02-.01-.06.02.08-.01-.03.01.02h-.01v-.02h-.01v-.06l.01.08v-.01l-.01-.02-.01-.06.02.08-.01-.03.01.02-.01-.02.32-.1-.01-.03.01.03-.01-.02.02.07-.01-.05-.01-.02.02.08-.01-.05v-.02l.01.03-.01-.02.02.07-.01-.05-.01-.02.01.03-.01-.02.01.02-.01-.02.01.03h.01-.01l-.04-.07zm-.23.24l-.03-.02-.01-.04.04.06zm1.26-.52l.2.27-.04.03-.04.03-.04.03-.04.03-.04.03-.04.03-.04.03-.04.03-.05.03-.04.02-.04.03-.04.02-.05.03-.04.02-.05.02-.05.02-.04.01-.05.01-.05.02h-.05l-.05.01h-.05l-.05-.01h-.05l-.06-.02-.05-.01-.04-.02-.06-.02-.05-.03-.04-.04-.05-.04-.04-.04.23-.24.03.03.03.02.03.02.02.02.03.01.03.01.02.01.03.01h.1l.03-.01h.03l.03-.01.03-.01.03-.01.04-.02.03-.02.04-.01.03-.02.04-.03.03-.02.04-.02.04-.03.03-.02.04-.03.04-.03.04-.03.04-.03.04-.03.04-.03zm0 0zm.93-.55l.09.33h-.03l-.02.01-.03.01-.02.01-.03.01-.03.01-.02.01-.02.01-.03.01-.03.02-.02.01-.02.01-.03.02-.02.01-.03.02-.03.01-.02.02-.02.02-.03.02-.03.01-.02.02-.03.02-.02.02-.03.01-.03.03-.02.01-.03.02-.02.02-.03.02-.03.03-.02.01-.03.03-.2-.27.02-.02.03-.02.03-.02.02-.02.03-.02.03-.02.02-.02.03-.02.03-.03.03-.01.02-.02.03-.03.03-.01.03-.02.03-.02.03-.02.02-.02.03-.02.03-.01.03-.02.03-.02.03-.01.03-.02.03-.01.04-.02.03-.01.02-.01.04-.02.03-.01.03-.01.04-.01.03-.01zm.09.33zm.64-.18l-.64.18-.09-.33.65-.17.18.25-.1.07zm-.08-.32l.4-.11-.22.36-.18-.25zm-.45.64l.35-.57.28.18-.35.57-.28-.18zm0 0l.09-.16-.09.16zm.11.41l-.27-.2.01-.01v-.01l.01-.01.01-.01.01-.01.01-.01v-.01l.02-.01v-.01l.01-.01.01-.01v-.01l.01-.01.01-.01.01-.02v.01V53l.01-.01.01-.01.01-.01v-.01.01-.01l.01-.01.28.18-.01.02-.01.01-.01.01h.01l-.01.01-.01.01v.01h-.01l-.01.02v-.01.01l-.01.01-.01.01v.01l-.01.01-.01.01-.01.01-.01.02-.01.01-.01.01v.01l-.01.01-.02.02zm0 0l.33-.42-.33.42zm-.72 2.06l-.23.24-.02-.02-.05-.08-.05-.08-.04-.09-.03-.09-.02-.09-.01-.09-.01-.09.01-.09v-.09l.02-.09.02-.09.02-.09.03-.08.03-.09.03-.09.04-.08.04-.09.05-.08.04-.08.05-.08.04-.08.05-.07.05-.07.05-.08.05-.06.04-.07.05-.06.05-.06.04-.06.04-.05.04-.05.03-.04.27.2-.04.05-.04.05-.03.05-.05.05-.04.06-.05.06-.04.06-.05.07-.04.06-.05.07-.04.07-.05.07-.04.08-.04.07-.04.07-.03.08-.04.07-.03.08-.02.07-.03.08-.02.07-.01.07-.01.07-.01.07v.13l.01.06.02.06.02.06.02.06.03.05.04.06-.02-.02zm-.23.24l-.01-.01-.01-.01.02.02zm.67-.27l.24.23-.02.02-.02.03-.03.02-.02.02-.02.01-.02.02-.03.02-.02.02-.03.01-.03.02-.02.01-.03.01-.03.01-.03.01h-.03l-.03.01h-.09l-.04-.01h-.03l-.03-.01-.04-.01-.03-.01-.03-.01-.03-.02-.03-.02-.03-.02-.03-.01-.03-.03-.03-.02-.03-.03.23-.24.02.01.02.02.02.01.02.02.01.01.02.01h.01l.01.01h.02l.01.01H6.17l.01-.01h.01l.02-.01h.01l.01-.01.02-.01.01-.01.01-.01.02-.01.01-.02.02-.01.01-.01.02-.02zm0 0zm.62-.98l.3.16-.02.03-.02.04-.02.04-.02.03-.02.04-.02.03-.02.04-.02.03-.02.04-.02.04-.02.03-.02.04-.02.03-.02.03-.02.04-.02.04-.02.03-.02.03-.02.04-.03.03-.02.03-.02.03-.02.04-.02.03-.02.03-.03.03-.02.03-.02.03-.03.02-.02.03-.02.03-.03.02-.24-.23.02-.02.02-.02.02-.02.02-.03.01-.02.02-.03.02-.02.02-.03.02-.03.02-.03.02-.03.02-.03.02-.03.02-.02.02-.04.02-.03.02-.03.02-.04.02-.03.02-.03.02-.04.02-.03.02-.04.02-.03.02-.03.02-.04.02-.04.02-.03.01-.04.02-.03.02-.03.02-.04zm.57-.9l.25.22-.02.02-.01.02-.02.02-.01.02-.02.02-.02.02-.01.02-.02.02-.01.03-.02.02-.01.02-.02.03-.02.02-.01.03-.02.03-.02.02-.01.03-.02.03-.01.03-.02.02-.02.03-.01.03-.02.03-.02.03-.01.03-.02.03-.02.03-.01.03-.02.03-.02.04-.01.03-.02.03-.3-.16.02-.03.02-.03.01-.04.02-.03.02-.03.01-.03.02-.03.02-.03.02-.03.01-.03.02-.03.02-.03.02-.04.01-.02.02-.03.02-.03.01-.03.02-.03.02-.03.02-.02.01-.03.02-.03.02-.02.02-.03.01-.03.02-.02.02-.03.02-.02.02-.02.02-.03.02-.02.02-.02zm0 0zm.89-.5l-.64.72-.25-.22.64-.73.29.15-.04.08zm-.25-.23l.41-.45-.12.6-.29-.15zm-.22 1.04l.18-.96.33.07-.18.95-.33-.06zm0 0zm.1.86l-.32-.11v-.03l.01-.02.01-.03.01-.03.01-.02.01-.03.01-.02.01-.03v-.02l.01-.03.01-.02.01-.03v-.02l.01-.03.01-.02.01-.02v-.03l.01-.02.01-.03.01-.02v-.02l.01-.02V54l.01-.02.01-.02v-.02l.01-.02v-.02l.01-.02v-.04l.01-.02.33.06-.01.02v.02l-.01.04v.02l-.01.02v.02l-.01.02v.03l-.01.02-.01.03v.02l-.01.03-.01.02v.02l-.01.03-.01.02-.01.03-.01.03v.02l-.01.02-.01.03-.01.02-.01.03v.03l-.01.02-.01.03-.01.02-.01.03-.01.03-.01.02-.01.03v.03zm-.17.49l-.32-.09v-.02l.01-.02.01-.02v-.01l.01-.02v-.01l.01-.02v-.02l.01-.01v-.02l.01-.01v-.02l.01-.02v-.01l.01-.02v-.01l.01-.02v-.02l.01-.01v-.02l.01-.01.01-.02v-.02l.01-.03.01-.01v-.02l.01-.01v-.01l.01-.02v-.02l.01-.01.32.11-.01.01-.01.02v.01l-.01.02v.01l-.01.02v.02l-.01.02-.01.02v.02l-.01.01v.01l-.01.02v.01l-.01.02v.02l-.01.01v.02l-.01.01V55l-.01.02v.01l-.01.02v.01l-.01.02v.02l-.01.01v.02l-.01.01v.01l-.01.02zm.34 1.65l-.08.33-.01-.01-.08-.03-.08-.03-.08-.04-.07-.04-.06-.04-.06-.05-.06-.06-.04-.05-.05-.06-.04-.06-.03-.07-.03-.07-.02-.06-.02-.07-.01-.07-.01-.07-.01-.08V55.9l.01-.07.01-.08.01-.07.02-.08.01-.07.02-.08.02-.08.02-.07.02-.08.02-.07.02-.07.32.09-.02.07-.02.08-.02.07-.02.07-.01.07-.02.07-.01.06-.02.07-.01.07-.01.07v.06l-.01.06v.12l.01.06v.06l.01.05.01.05.01.05.02.05.02.04.02.04.02.04.03.04.03.03.03.04.04.03.05.03.04.03.06.03.05.02.07.02h-.01zm-.08.33h-.01v-.01l.01.01zm.55-.82l.32.07-.01.04-.01.04-.01.04-.01.04-.01.04-.01.04-.02.04-.01.03-.02.04-.02.03-.01.04-.02.03-.02.04-.02.03-.03.03-.02.03-.03.02-.03.03-.03.02-.03.03-.04.02-.03.02-.04.01-.04.02h-.04l-.04.01-.04.01h-.09l-.05-.01H8.2l-.05-.01.08-.33h.03l.02.01H8.39l.02-.01h.01l.02-.01.01-.01h.01l.02-.01.01-.02.01-.01.02-.01.01-.02.01-.01.02-.02.01-.02.01-.02.01-.03.02-.02.01-.03.01-.02.01-.03.01-.04.01-.03.01-.03.01-.03.01-.04.01-.03zm0 0l.02-.11-.02.11zm.11-.66l.33.05v.04l-.01.03v.04l-.01.02v.04l-.01.03v.03l-.01.03v.04l-.01.02v.02l-.01.03v.04l-.01.02v.04l-.01.02v.02l-.01.03v.04l-.01.02v.02l-.01.02v.02l-.01.02-.32-.07v-.04l.01-.02v-.02l.01-.02v-.02l.01-.02v-.04l.01-.02v-.04l.01-.02v-.04l.01-.02v-.04l.01-.03v-.03l.01-.02v-.05l.01-.02v-.06l.01-.03v-.04l.01-.02zm.33.05zm.02-1.41l.29.16-.02.04-.01.03-.01.03-.02.03-.01.03-.02.04-.01.03-.01.03-.01.04-.01.04-.02.03v.04l-.02.04-.01.04-.01.04v.04l-.01.04-.01.04-.01.04-.01.04-.01.04v.04l-.01.05-.01.04v.05l-.01.04-.01.04v.04l-.01.05-.01.04v.05l-.01.04-.33-.05v-.04l.01-.05.01-.04v-.04l.01-.05.01-.05v-.04l.01-.04.01-.05.01-.04v-.04l.01-.05.01-.04.01-.05.01-.04.01-.04.01-.05.01-.04.01-.04.01-.04.01-.05.01-.04.02-.04.01-.04.01-.04.02-.04.01-.04.02-.04.02-.04.02-.04.02-.04.02-.04zm.29.16l-.12.23.12-.23zm.22-.4l-.22.4-.29-.16.22-.4.29-.01v.17zm-.29-.16l.14-.26.15.25-.29.01zm.24.56l-.24-.4.29-.17.24.39-.29.18zm.66 1.13l-.34.05v-.04l-.01-.04-.01-.05v-.04l-.01-.04v-.04l-.01-.04-.01-.04-.01-.04v-.04l-.01-.04-.01-.04v-.04l-.01-.04-.01-.04-.01-.03-.01-.04-.01-.04-.01-.04-.01-.03-.01-.04-.01-.03-.02-.04-.01-.03-.01-.03-.01-.04-.02-.03-.01-.03-.02-.03-.02-.03-.01-.03-.02-.03.29-.18.02.04.02.04.02.04.02.03.02.04.02.04.01.04.02.04.01.04.01.04.02.04.01.04.01.04.01.04.02.04.01.04.01.05v.04l.01.04.01.05.01.04.01.04.01.04v.04l.01.04.01.05.01.04v.04l.01.04v.05l.01.04.01.04zm0 0zm.07.44l-.33.06v-.01l-.01-.01v-.03l-.01-.02v-.05l-.01-.01v-.04l-.01-.02v-.05l-.01-.01v-.05l-.01-.01v-.05l-.01-.03v-.05l-.01-.01.34-.05v.04l.01.02v.07h.01V55.79l.01.01v.04l.01.02v.04l.01.01V55.97l.01.01v.03l.01.01v.02zm-.33.06l.02.09-.02-.09zm.95.63l.2.26-.07.04h-.07l-.06.01H10.8l-.06-.01-.05-.01-.05-.01-.05-.02-.05-.02-.04-.02-.05-.03-.04-.02-.03-.03-.04-.04-.03-.03-.03-.04-.03-.04-.03-.03-.02-.04-.02-.04-.02-.05-.02-.04-.02-.04-.02-.05-.01-.04-.02-.05-.01-.05-.01-.04-.01-.05-.01-.05-.01-.05.33-.06.01.04.01.05.01.04.01.04.01.04.01.04.01.03.01.03.02.04.01.03.02.03.01.03.02.03.01.02.02.02.02.02.02.02.02.02.02.02.02.01.02.01.02.02.03.01.02.01h.03l.03.01h.04l.04.01h.04l.04-.01h.04l.05-.01-.07.04zm.2.26l-.03.03-.04.01.07-.04zm.38-4.67h.33v-.01l.01.19v.37l.01.18v.36l.01.18v.36l-.01.17v.35l-.01.17-.01.16-.01.16-.01.16-.02.16-.02.15-.02.14-.02.14-.03.14-.03.13-.03.13-.04.12-.04.12-.05.11-.05.11-.05.1-.07.09-.06.09-.08.07-.08.07-.2-.26.05-.05.05-.06.05-.06.05-.07.04-.08.05-.08.03-.1.04-.1.03-.11.03-.12.03-.12.03-.13.02-.13.02-.14.02-.14.01-.15.01-.15.01-.16.01-.16.01-.16v-.17l.01-.17V53.24l-.01-.18v-.19l-.01-.18v-.37zm-.02-1.98l.34.01-.01.06V51.56l.01.06V52l.01.06v.26h-.33l-.01-.06v-.31l-.01-.07v-.56l-.01-.06V50.64l.01-.06v-.24zm.34.01zm0-.18v.18l-.34-.01v-.18l.11-.15.23.16zm-.34-.01l.01-.11.1-.04-.11.15zm.4.1l-.17.06-.12-.31.16-.07.13.32zm0 0l-.26.1.26-.1zm5.35-4.09l.26-.22-.01.23-.15.15-.15.15-.15.16-.15.15-.16.15-.15.15-.16.14-.15.15-.16.15-.16.14-.16.14-.17.14-.16.14-.17.14-.17.13-.17.13-.17.14-.17.12-.18.13-.18.12-.18.12-.18.12-.19.12-.19.11-.19.11-.2.11-.19.1-.2.1-.21.1-.21.09-.21.09-.21.09-.13-.31.21-.09.21-.09.2-.09.2-.09.19-.1.2-.1.18-.1.19-.11.19-.11.18-.11.18-.12.17-.12.18-.11.17-.13.17-.12.17-.13.17-.13.16-.13.16-.14.17-.13.16-.14.15-.14.16-.14.16-.15.15-.14.15-.15.16-.14.15-.15.15-.15.15-.15.15-.15.15-.16-.01.23zm.26-.22l.1.12-.11.11.01-.23z" class="fil1"/><path d="M42.26 43.6c-.15-.15-.29-.31-.43-.48-.24.35-.5.69-.79 1.01-.3.34-.64.67-1.02.97.41.33.82.64 1.25.94.92.62 1.95 1.18 3.27 1.78l.01.01.02.01c1.88 1.09 2.46 3.12 2.94 4.8.32 1.1.59 2.04 1.12 2.35.36.05.51-.12.56-.39.05-.28.03-.65.01-1.02-.03-.61-.06-1.22.18-1.63l.23-.4.23.41c.3.53.88 1.41 1.56 1.95.42.33.86.53 1.29.42.24-.07.3-.17.26-.29-.1-.32-.55-.76-.98-1.2-.51-.5-1-.99-1.09-1.42l-.2-.95.66.71.09.09c.32.33.86.79 1.45 1.05.53.24 1.08.32 1.48-.05l.01-.01c.13-.18.01-.36-.22-.55-.41-.31-1.09-.59-1.61-.81-.41-.16-.72-.29-.81-.44l-.36-.56.65.16c.11.03.22.06.34.09.81.23 2.18.62 2.82-.03.12-.33.01-.51-.21-.6-.34-.14-.91-.16-1.43-.17-.45-.01-.88-.03-1.17-.12l-.68-.21.65-.29c1.19-.52 1.75-.92 1.92-1.18.02-.04.05-.04.04-.04-.02-.03-.1-.06-.21-.07-.43-.07-1.16.06-1.72.42l-.07.05h-.08c-1.1-.03-2.54-.26-3.87-.59-1.27-.32-2.45-.74-3.13-1.17-1.05-.67-2.05-1.55-2.96-2.55z" class="fil5"/><path id="1" d="M41.97 43.22l-.27-.19.26-.02.01.02.01.01.02.02.01.02.02.01.01.02.01.01.01.01.02.02.01.01.01.02.02.01.01.02.01.01.01.02.02.02.01.01.01.01.02.02.01.01.01.02.02.01.01.02.01.01.02.02.01.01.01.02.02.01.01.02.01.01.02.02.01.01-.25.23-.01-.02-.01-.01-.02-.02-.01-.01-.01-.02-.02-.01-.01-.02-.01-.01-.02-.02-.01-.01-.01-.01-.02-.02-.01-.02-.01-.01-.02-.02-.01-.01-.01-.02-.02-.01-.01-.02-.01-.01-.02-.02-.01-.01-.02-.02-.01-.01-.01-.02-.02-.01-.01-.02-.01-.02-.01-.01-.02-.01-.01-.02-.02-.02.27-.01zm-.27-.19l.12-.18.14.16-.26.02zm-.54 1.21l-.25-.22.03-.03.02-.03.03-.03.03-.03.02-.03.03-.03.03-.03.02-.03.02-.03.03-.03.02-.03.03-.03.02-.03.03-.04.02-.03.03-.03.02-.03.03-.03.02-.03.02-.03.03-.04.02-.03.03-.03.02-.03.02-.03.03-.03.02-.03.02-.04.03-.03.02-.03.02-.03.03-.03.27.19-.02.03-.03.04-.02.03-.02.03-.03.03-.02.04-.03.03-.02.03-.03.04-.02.03-.02.03-.03.03-.02.03-.03.04-.02.03-.03.03-.02.03-.03.03-.02.03-.03.04-.02.03-.03.03-.03.03-.02.03-.03.04-.03.03-.02.03-.03.03-.03.03-.02.03-.03.03-.03.03zm-1.03.73l-.22.26.01-.27.03-.02.04-.03.03-.03.03-.03.04-.02.03-.03.04-.03.03-.03.03-.03.03-.03.03-.02.04-.03.03-.03.03-.03.03-.03.03-.03.03-.03.03-.03.03-.03.04-.03.03-.03.02-.03.03-.03.03-.03.03-.03.03-.03.03-.03.03-.03.03-.04.03-.03.02-.03.03-.03.25.22-.03.04-.03.03-.02.03-.03.03-.03.03-.04.04-.02.03-.03.03-.03.03-.03.03-.04.04-.03.03-.03.03-.03.03-.03.03-.03.03-.04.03-.03.03-.03.03-.04.03-.03.03-.03.04-.04.03-.03.02-.04.04-.03.02-.04.03-.03.03-.04.03-.03.03-.04.03-.04.03.01-.26zm-.22.26l-.16-.14.17-.13-.01.27zm1.46.67l-.19.28-.04-.03-.05-.03-.04-.03-.03-.03-.05-.03-.04-.02-.04-.03-.04-.03-.04-.03-.04-.03-.04-.03-.04-.03-.04-.03-.04-.02-.04-.03-.04-.03-.04-.03-.03-.03-.04-.03-.04-.03-.04-.03-.04-.03-.04-.03-.04-.03-.04-.03-.04-.03-.04-.04-.03-.03-.04-.03-.04-.03-.04-.03-.04-.03.22-.26.03.03.04.03.04.03.04.03.04.03.04.03.03.03.04.03.04.03.04.03.04.03.03.03.04.03.04.03.04.03.04.03.04.03.03.02.04.03.04.03.04.03.04.03.04.03.04.02.04.03.04.03.04.03.04.03.04.02.04.03.04.03.04.03zm3.25 1.77l-.15.3v.01l-.12-.06-.12-.06-.12-.05-.12-.06-.12-.06-.12-.05-.11-.06-.11-.05-.11-.06-.11-.05-.11-.06-.11-.06-.11-.05-.1-.06-.1-.05-.1-.06-.11-.05-.1-.06-.1-.05-.09-.06-.1-.06-.1-.05-.09-.06-.09-.05-.1-.06-.09-.06-.09-.06-.09-.05-.09-.06-.09-.06-.08-.06-.09-.05.19-.28.08.05.09.06.09.06.08.05.09.06.09.06.09.05.09.06.09.05.1.06.09.05.1.06.09.05.1.06.1.05.1.06.1.05.1.06.1.05.11.06.1.05.11.05.11.06.11.06.11.05.11.05.12.06.11.06.12.05.12.06.12.06.12.05h.01zm-.01 0h.01-.01zm-.14.31v-.01l.15-.3v.01h.01l-.16.3zm.15-.3h.01-.01zm-.14.3l-.02-.01.17-.29.02.01-.17.29zm0 0h-.01.01zm3.2 4.62l-.33.09-.04-.16-.05-.16-.05-.16-.04-.16-.05-.17-.05-.16-.06-.16-.05-.17-.06-.16-.06-.17-.06-.16-.07-.16-.07-.17-.07-.16-.07-.15-.08-.16-.09-.16-.08-.15-.09-.15-.1-.15-.1-.15-.11-.14-.11-.14-.11-.14-.12-.13-.13-.13-.13-.12-.14-.12-.15-.12-.15-.11-.16-.11-.17-.1.17-.29.18.11.17.11.16.12.16.13.15.13.14.13.14.14.13.14.12.15.12.15.11.15.11.15.1.16.1.16.09.16.09.16.08.17.08.16.07.17.07.17.07.17.06.17.07.16.06.17.05.17.05.17.06.17.05.16.05.16.04.17.05.16.05.16zm.98 2.22l-.05.34-.06-.02-.06-.04-.06-.04-.05-.05-.06-.04-.04-.06-.05-.05-.05-.06-.04-.06-.05-.06-.04-.07-.04-.06-.03-.07-.04-.07-.04-.08-.03-.08-.04-.07-.03-.08-.03-.09-.03-.08-.03-.09-.04-.09-.03-.09-.02-.09-.04-.09-.02-.1-.03-.09-.03-.1-.03-.1-.03-.1-.03-.1-.03-.1-.03-.1.33-.09.03.1.02.1.03.1.03.1.03.1.03.09.03.1.03.09.02.09.03.09.03.08.03.09.03.08.03.08.03.08.03.07.04.08.03.07.03.06.03.07.04.06.03.06.04.05.03.06.04.05.04.04.03.05.04.03.04.04.04.03.04.03.04.03-.06-.03zm-.05.34l-.03-.01-.03-.01.06.02zm.41-.59l.33.06v.03l-.01.03-.01.03-.01.02v.03l-.02.03-.01.03-.01.03-.01.02-.02.03-.01.02-.02.03-.02.02-.02.03-.02.02-.03.02-.02.02-.03.01-.03.02-.03.01-.03.02-.03.01-.03.01h-.03l-.03.01-.04.01H48.68l-.03-.01h-.04l.05-.34.02.01h.15l.02-.01h.01l.01-.01h.01l.01-.01h.01l.01-.01h.01l.01-.01.01-.01v-.01l.01-.01.01-.01v-.01l.01-.01.01-.01v-.01l.01-.02.01-.02v-.01l.01-.02v-.02l.01-.02v-.02zm.33.06l-.01.07.01-.07zm-.32-1.04l.34-.02V53.75l.01.03v.28l.01.03V54.2l-.01.03v.22l-.01.03v.03l-.01.03v.06l-.01.03-.33-.06v-.02l.01-.03v-.05l.01-.02v-.08l.01-.03v-.41l-.01-.03v-.17l-.01-.04v-.1zm.2-1.72l.29.17-.01.03-.02.03-.02.04-.01.04-.02.03-.01.04-.01.04-.01.05-.01.04-.01.04-.01.05-.01.04v.05l-.01.05v.04l-.01.05V53.29l.01.06V53.52l.01.05-.34.02v-.06l-.01-.05v-.18l-.01-.05v-.51l.01-.06v-.05l.01-.06v-.05l.01-.05.01-.06.01-.05.01-.05.01-.06.01-.05.02-.05.02-.05.01-.04.02-.05.02-.05.03-.05.02-.04zm.53-.23l-.24.4-.29-.17.24-.4h.29v.17zm-.29-.17l.15-.26.14.26h-.29zm.23.57l-.23-.41.29-.16.23.4-.29.17zm.29-.17zm1.52 1.91l-.21.26-.07-.05-.06-.06-.07-.06-.06-.06-.07-.06-.06-.06-.06-.06-.06-.07-.06-.06-.06-.07-.06-.06-.05-.07-.06-.07-.05-.06-.06-.07-.05-.07-.05-.07-.05-.07-.04-.06-.05-.07-.05-.07-.04-.06-.04-.07-.05-.06-.04-.06-.03-.07-.04-.05-.04-.06-.03-.06-.03-.06-.04-.05-.02-.05.29-.17.03.05.03.06.03.05.03.05.04.06.03.06.04.06.04.06.04.06.04.06.04.06.05.07.04.06.05.07.04.06.05.07.05.06.05.07.05.06.06.07.05.06.05.06.06.06.06.07.05.06.06.05.06.06.06.06.06.05.06.06.06.05.06.05zm-.21.26zm1.34.14l.11.31-.02.01-.04.01-.05.01h-.05l-.05.01h-.19l-.04-.01-.05-.01h-.05l-.04-.01-.05-.02-.04-.01-.05-.01-.05-.02-.04-.01-.05-.02-.04-.02-.04-.02-.05-.02-.04-.03-.04-.02-.05-.03-.04-.02-.04-.03-.05-.03-.04-.03-.04-.03-.04-.02-.04-.04-.04-.03.21-.26.03.03.04.02.04.03.03.03.04.02.04.03.04.02.03.02.04.02.04.03.04.01.03.02.04.02.04.02.03.01.04.02.03.01.04.01.04.01.03.01.04.01h.03l.04.01h.23l.04-.01.03-.01-.01.01zm.11.31l-.02.01h.01l.01-.01zm.04-.4l.32-.1v-.01.03l.01.01v.04l.01.02v.04l-.01.03v.02l-.01.02v.02l-.01.02-.01.02-.01.02-.01.01-.02.03-.01.02-.02.01-.01.01-.02.02-.01.01-.02.01-.02.02-.02.01-.02.01-.02.01-.02.01-.02.01-.02.01-.03.01-.02.01h-.02l-.11-.31.02-.01.01-.01h.02l.02-.01.02-.01.01-.01h.01l.01-.01h.01l.01-.01.01-.01v-.01.01-.01.01-.01zm0 0l-.01-.04.01.04zm-.94-1.13l.23-.24.05.04.04.05.04.04.04.04.04.04.04.04.04.04.04.04.04.04.04.05.04.04.03.04.04.04.04.04.04.04.03.04.03.04.04.04.03.03.03.04.03.04.03.04.03.04.02.04.03.03.02.04.02.04.02.04.02.03.02.04.01.04.02.04-.32.1-.01-.02-.01-.03-.01-.02-.01-.03-.02-.03-.02-.02-.02-.04-.02-.03-.02-.03-.02-.03-.03-.03-.02-.04-.03-.03-.03-.04-.03-.04-.03-.03-.04-.04-.03-.04-.04-.04-.03-.03-.04-.04-.03-.04-.04-.04-.04-.04-.04-.04-.04-.04-.04-.04-.04-.04-.04-.05-.04-.04-.04-.04-.04-.04zm-1.13-1.51l.33-.07v.04l.01.03.01.03.02.04.01.03.02.04.02.04.02.04.03.03.02.04.03.05.03.04.03.04.03.04.03.04.04.05.03.04.04.04.04.05.04.04.04.05.04.04.05.05.04.04.04.05.05.04.04.05.05.05.04.04.05.05.05.05.04.04-.23.24-.05-.05-.05-.04-.04-.05-.05-.05-.05-.04-.04-.05-.05-.05-.04-.05-.05-.04-.04-.05-.05-.05-.04-.04-.04-.05-.04-.05-.04-.04-.04-.05-.04-.05-.04-.04-.03-.05-.04-.05-.03-.04-.03-.05-.03-.05-.03-.05-.02-.04-.03-.05-.02-.05-.02-.04-.02-.05-.02-.05-.01-.05-.01-.05zm.33-.07zm-.2-.95l.2.95-.33.07-.2-.95.28-.15.05.08zm-.33.07l-.13-.6.41.45-.28.15zm.7.8l-.66-.72.24-.23.66.72-.24.23zm.33-.14l-.24.23h-.01v-.01h-.01l-.01-.02.01.01h-.01v-.01h-.01l-.01-.02.01.01-.02-.02.01.01h-.01v-.01l-.02-.01v-.01l.03.03-.02-.02-.02-.02.02.02-.01-.01-.02-.02.01.01.24-.23.01.01-.01-.01-.01-.01.03.03h.01l-.01-.01-.01-.01.03.03v.01l-.01-.02v.01h.01v.01l.01.01-.01-.01h.01l.01.02-.01-.01h.01v.01l.02.02-.01-.01.01.01.01.01zm-.24.23h-.01.01zm1.64.78l-.14.3-.06-.02-.06-.03-.05-.03-.06-.03-.05-.03-.06-.03-.06-.03-.05-.04-.05-.03-.06-.03-.05-.04-.05-.03-.05-.04-.05-.03-.05-.04-.05-.04-.05-.03-.04-.04-.05-.03-.04-.04-.05-.04-.04-.03-.04-.04-.05-.04-.04-.03-.03-.04-.04-.03-.04-.04-.03-.03-.04-.03-.03-.04-.03-.03.24-.23.03.03.03.03.03.03.03.03.04.03.03.03.04.04.04.03.03.03.04.04.05.03.04.04.04.03.04.04.05.03.04.03.05.04.05.03.04.04.05.03.05.03.05.04.05.03.05.03.05.03.05.03.05.03.05.02.05.03.05.03.05.02.06.03zm0 0zm1.3-.03l.22.26v-.01l-.04.04-.05.04-.04.03-.05.03-.05.03-.05.03-.05.02-.05.02-.05.01-.05.02-.06.01-.05.01-.05.01H53.56l-.06-.01-.05-.01-.05-.01-.06-.01-.05-.01-.06-.01-.05-.02-.05-.01-.06-.02-.05-.02-.05-.02-.06-.02-.05-.02-.05-.03.14-.3.04.02.05.02.05.02.04.01.05.02.05.02.04.01.05.01.04.02.05.01h.04l.05.01.04.01h.09l.04.01h.04l.04-.01h.08l.04-.01.03-.01.04-.01.04-.01.04-.01.03-.02.03-.02.04-.01.03-.03.03-.02.03-.02.04-.03v-.01zm0 .01v-.01.01zm.23.24l-.01.01-.22-.26.02-.01.24.23-.03.03zm.03-.03l-.01.01-.02.02.03-.03zm-.47-.51l.21-.27.02.02.03.02.02.02.02.02.02.02.02.02.02.02.02.02.02.02.02.02.01.02.02.02.02.03.01.02.01.02.01.03.02.02v.02l.01.03.01.03.01.03v.12l-.01.02v.03l-.01.03-.01.03-.02.03-.01.02-.02.03-.27-.2.01-.01v-.03h.01v-.01h-.01v-.03l-.01-.01v-.02l-.01-.01-.01-.01-.01-.01V52l-.01-.01-.02-.01-.01-.02-.01-.01-.01-.01-.02-.02-.02-.01-.01-.02-.02-.01-.02-.02-.02-.01zm.21-.27l-.05-.04.05.04zm-1.77-.52l.12-.31.05.02.05.02.06.02.05.02.05.02.05.03.05.02.06.02.05.02.06.03.05.02.06.03.05.02.06.03.05.02.06.03.05.02.06.03.05.03.05.02.06.03.05.03.05.03.05.03.05.03.05.03.05.03.05.03.04.03.05.03.04.03.04.03-.21.27-.03-.03-.04-.03-.04-.02-.04-.03-.04-.03-.05-.03-.04-.02-.05-.03-.04-.03-.05-.02-.05-.03-.05-.03-.05-.02-.05-.03-.05-.02-.06-.03-.05-.02-.05-.03-.06-.02-.05-.03-.05-.02-.06-.02-.05-.03-.05-.02-.06-.02-.05-.02-.05-.03-.05-.02-.05-.02-.05-.02-.05-.02-.05-.02zm.12-.31zm-1.02-.2l.29-.18v.01l.01.01.01.01h.01l.01.01.01.01.01.01.01.01.02.01.02.01.02.02.02.01.02.01.03.01.02.02.02.01.03.01.03.01.03.02.02.01.04.01.03.02.03.01.03.01.04.02.03.01.04.02.03.01.04.02.04.01.03.02-.12.31-.04-.01-.04-.02-.04-.02-.03-.01-.04-.02-.03-.01-.04-.02-.03-.01-.04-.02-.03-.01-.03-.01-.03-.02-.04-.01-.02-.02-.03-.01-.03-.01-.03-.02-.02-.01-.03-.02-.03-.01-.02-.02-.03-.01-.02-.02-.03-.02-.02-.01-.02-.02-.02-.01-.02-.02-.02-.02-.01-.02-.02-.02-.02-.03zm0 0l.14.22-.14-.22zm-.07-.74l.36.56-.29.18-.35-.56.18-.26.1.08zm-.28.18l-.23-.36.41.1-.18.26zm.75.23l-.65-.16.08-.33.65.17-.08.32zm.08-.32zm.35.09l-.09.33-.01-.01h-.03v-.01h-.02l-.02-.01h-.03l-.01-.01h-.01l-.02-.01h-.03l-.01-.01h-.03l-.01-.01h-.02l-.02-.01h-.02l-.01-.01h-.03l-.01-.01.08-.32h.02l.02.01h.03l.01.01h.02l.01.01h.03l.01.01h.02l.02.01h.02l.02.01h.02l.01.01h.01l.02.01h.03l.01.01h.02zm0 0zm2.61.07l.32.12-.04.06-.07.06-.08.06-.08.06-.08.05-.09.04-.09.03-.09.03-.1.03-.09.01-.1.02-.1.01h-.1l-.1.01h-.1l-.11-.01h-.1l-.1-.02-.1-.01-.1-.01-.11-.02-.1-.02-.1-.02-.1-.02-.09-.02-.1-.02-.09-.02-.09-.03-.09-.02-.09-.03-.08-.02-.09-.02-.07-.02.09-.33.08.02.08.03.08.02.08.02.09.03.09.02.09.02.09.02.1.02.09.03.1.01.09.02.1.02.09.01.1.01.09.01.09.01h.28l.08-.01.09-.01.08-.01.08-.01.08-.02.07-.03.07-.02.06-.03.07-.04.05-.04.06-.04.05-.05-.04.06zm.32.12l-.01.03-.03.03.04-.06zm-.43-.5l.12-.32.03.02.03.01.02.01.02.01.03.02.02.01.02.02.02.02.02.02.02.02.02.02.02.02.02.02.01.03.02.03.01.02.01.03.01.03.01.03v.03l.01.03v.13l-.01.03V50l-.01.04-.01.03-.01.04-.01.03-.01.04-.32-.12.01-.03.01-.02.01-.03v-.02l.01-.02v-.13l-.01-.01-.01-.02v-.01l-.01-.01v-.01h-.01l-.01-.01-.01-.01h-.01v-.01l-.02-.01-.01-.01h-.01l-.02-.01-.01-.01h-.01zm.12-.32zm-1.49.16l.01-.34h.1l.04.01H53.9l.04.01h.16l.04.01h.1l.05.01h.05l.05.01h.05l.04.01h.05l.04.01.05.01h.04l.05.01.04.01.05.01.04.01.03.01.05.01.04.02.04.01.03.01-.12.32-.03-.01-.03-.01-.03-.01-.03-.01-.04-.01-.03-.01-.04-.01-.04-.01h-.04l-.04-.01-.03-.01h-.05l-.04-.01-.04-.01h-.09l-.05-.01h-.05l-.04-.01h-.14l-.05-.01h-.2l-.05-.01h-.19zm0 0zm-1.22-.13l.1-.32.02.01h.03l.02.01.03.01h.03l.03.01h.03l.03.01h.03l.03.01h.04l.03.01h.07l.04.01h.07l.03.01h.12l.04.01h.2l.04.01H53.55l-.01.34h-.09l-.04-.01H53.2l-.04-.01H53l-.04-.01h-.08l-.04-.01h-.07l-.04-.01h-.04l-.03-.01h-.04l-.04-.01h-.03l-.04-.01-.03-.01h-.03l-.04-.01-.03-.01-.03-.01-.03-.01zm.1-.32zm-.68-.21l.68.21-.1.32-.68-.21-.02-.32h.12zm-.1.32l-.43-.14.41-.18.02.32zm.77-.3l-.65.29-.14-.31.65-.28.14.3zm1.71-1.42l.29.18-.03.03-.02.04-.03.02-.02.04-.04.03-.03.03-.03.03-.04.04-.04.03-.04.04-.05.03-.05.03-.05.04-.05.04-.06.04-.06.03-.06.04-.06.04-.07.04-.07.04-.07.04-.08.05-.08.04-.08.04-.09.05-.09.04-.09.05-.1.04-.1.05-.1.05-.11.05-.11.04-.14-.3.11-.05.11-.05.1-.05.1-.04.09-.05.09-.04.09-.04.08-.05.08-.04.08-.04.07-.04.07-.04.07-.04.07-.04.06-.03.05-.04.06-.04.05-.03.05-.03.04-.04.05-.03.04-.03.03-.03.04-.03.03-.02.03-.03.02-.03.03-.02.02-.02.02-.03.01-.01.01-.02zm.29.18l.01-.03-.01.03zm-.24-.03l.26-.21.04.11-.05-.12v.24l.05-.12-.17.17.12-.05-.05.03.04-.03-.04.04.04-.04v.01l-.03.02.02-.02-.02.02.02-.02v.01l.01-.02-.03.04.01-.02.03-.03-.02.02.01-.01v.01l-.29-.18.01-.02.01-.01-.01.02.02-.04.02-.01-.03.03.02-.02v-.01l.03-.02-.02.02.02-.02h.01l-.03.02.05-.04-.04.04.04-.04-.04.03.12-.05-.17.17.05-.12v.24l-.05-.12.04.1zm0 0l.01.01-.01-.01zm-.1-.01l.05-.33h.03l.01.01h.03l.01.01h.04l.02.01h.02l.01.01h.01l.01.01h.02v.01h.01l.02.01.02.01.01.01h.01v.01l.01.01.02.02-.26.21.01.01.01.01h-.01v-.01l.01.01h.01-.01l.01.01v-.01h-.03v-.01h-.03l-.01-.01h-.04l-.01-.01h-.01zm-1.61.4l-.18-.28.05-.03.06-.04.06-.03.06-.03.06-.03.06-.03.06-.03.06-.02.06-.02.07-.03.06-.02.06-.02.06-.02.06-.01.06-.02.06-.01.06-.02.06-.01.06-.01.06-.01.06-.01h.05l.06-.01h.06l.05-.01H53.97l.05.01h.05l.05.01-.05.33h-.04l-.04-.01h-.26l-.05.01h-.05l-.05.01h-.05l-.05.01-.06.01-.05.01-.05.01-.06.02-.05.01-.06.01-.05.02-.06.02-.05.02-.06.02-.05.02-.06.02-.05.03-.05.02-.06.03-.05.03-.05.02-.05.03-.05.03zm0 0zm-.25-.23l.07-.05.18.28-.07.05-.1.03-.08-.31zm.18.28l-.04.03h-.06l.1-.03zm-.17-.31h.08l-.01.34-.08-.01.01-.33zm0 0zm-3.91-.26l.08-.33.12.03.13.03.12.03.13.03.12.03.13.03.13.02.12.03.13.02.12.03.13.02.13.03.12.02.13.02.12.02.12.02.13.02.12.02.12.01.12.02.12.01.12.02.12.01.11.01.12.01.11.01.11.01.11.01h.11l.1.01h.11l.1.01-.01.33H52l-.11-.01-.11-.01h-.11l-.12-.01-.11-.01-.12-.01-.12-.02-.12-.01-.12-.01-.12-.02-.12-.01-.13-.02-.12-.02-.13-.02-.12-.02-.13-.02-.13-.02-.12-.02-.13-.03-.13-.02-.13-.02-.13-.03-.12-.03-.13-.02-.13-.03-.13-.03-.12-.03-.13-.03-.13-.03-.12-.03zm-3.18-1.19l.18-.29.06.04.07.04.06.04.08.04.07.04.08.04.08.04.08.03.08.04.09.04.09.04.09.04.09.04.1.03.09.04.1.04.1.03.1.04.11.04.1.03.11.04.11.03.11.04.11.03.11.03.11.04.12.03.11.03.12.03.12.03.11.03.12.03-.08.33-.12-.03-.12-.03-.12-.03-.12-.03-.11-.04-.12-.03-.12-.03-.11-.04-.11-.03-.11-.04-.11-.03-.11-.04-.11-.04-.11-.03-.1-.04-.1-.04-.11-.03-.1-.04-.09-.04-.1-.04-.09-.04-.1-.04-.09-.04-.08-.04-.09-.04-.08-.04-.08-.04-.08-.04-.08-.05-.07-.04-.07-.04-.07-.04zm-3-2.57l.25-.23.09.09.08.09.09.09.08.09.09.09.09.09.09.09.09.09.09.08.08.09.09.08.09.09.09.08.09.08.1.08.09.08.09.08.09.08.09.07.1.08.09.07.09.08.1.07.09.07.1.07.09.07.1.07.09.07.1.06.09.07.1.06.1.06-.18.29-.1-.07-.1-.06-.1-.07-.1-.07-.1-.07-.1-.06-.09-.08-.1-.07-.1-.07-.09-.08-.1-.07-.1-.08-.09-.08-.1-.07-.09-.08-.09-.08-.1-.09-.09-.08-.09-.08-.09-.09-.1-.08-.09-.09-.09-.08-.09-.09-.09-.09-.09-.09-.09-.09-.09-.09-.09-.09-.08-.1-.09-.09-.09-.09z" class="fil1"/><path d="M24.66 17.7c.9 0 1.48.93 1.29 2.08-.18 1.14-1.05 2.08-1.95 2.08-.9 0-1.48-.94-1.3-2.08.19-1.15 1.06-2.08 1.96-2.08z" class="fil6"/><path id="1" d="M26.12 19.8l-.33-.05.01-.1.01-.1.01-.1v-.19l-.01-.09-.01-.09-.01-.09-.02-.08-.02-.08-.02-.08-.03-.08-.03-.07-.03-.07-.03-.07-.04-.07-.04-.06-.04-.06-.05-.05-.05-.05-.05-.05-.05-.04-.06-.04-.05-.04-.06-.03-.06-.03-.06-.02-.07-.02-.06-.02-.07-.01h-.07l-.07-.01v-.33h.09l.1.01.09.01.08.03.09.02.08.03.08.04.08.04.08.05.07.05.06.06.07.06.06.07.06.07.05.07.05.08.05.08.04.08.04.08.04.1.03.09.03.09.02.1.02.1.02.1.01.1v.11l.01.11-.01.1v.12l-.01.11-.02.11zM24 22.02v-.33l.07-.01h.08l.07-.01.07-.02.08-.02.07-.03.07-.03.07-.03.07-.04.08-.04.07-.04.06-.05.07-.06.07-.05.06-.06.06-.07.06-.07.06-.07.06-.07.05-.08.06-.08.05-.08.04-.08.05-.09.04-.09.04-.09.03-.09.03-.1.03-.09.03-.1.02-.1.02-.1.33.05-.02.12-.02.11-.03.11-.03.11-.04.1-.04.11-.04.1-.05.1-.05.1-.05.09-.06.09-.06.09-.06.09-.06.08-.07.08-.07.08-.07.07-.08.08-.08.06-.07.06-.08.06-.09.06-.08.05-.09.04-.08.04-.09.04-.09.03-.09.03-.1.02-.09.01-.1.01H24zm-1.46-2.27l.33.05-.02.1v.1l-.01.1v.19l.01.09.01.09.01.09.02.08.01.08.03.08.03.08.02.07.04.07.03.07.04.07.04.06.04.06.05.05.05.05.05.05.05.04.05.04.06.04.06.03.06.03.06.02.06.02.07.02.07.01h.07l.07.01v.33h-.09l-.1-.01-.09-.01-.09-.03-.08-.02-.08-.03-.08-.04-.08-.04-.08-.05-.07-.05-.07-.06-.06-.06-.06-.07-.06-.06-.06-.08-.05-.08-.04-.07-.05-.09-.04-.08-.03-.09-.03-.09-.03-.1-.02-.1-.02-.1-.02-.1-.01-.1-.01-.11V20.09l.01-.12.01-.11.02-.11zm2.12-2.22v.33l-.08.01h-.07l-.07.01-.08.02-.07.02-.07.03-.07.03-.08.03-.07.04-.07.04-.07.04-.06.05-.07.06-.07.05-.06.07-.07.06-.06.07-.06.07-.05.07-.06.08-.05.08-.05.08-.05.08-.04.09-.04.09-.04.09-.03.09-.04.1-.03.09-.02.1-.02.1-.02.1-.33-.05.02-.11.02-.12.03-.11.03-.1.04-.11.04-.11.04-.1.05-.1.05-.1.05-.09.06-.09.06-.09.06-.09.06-.08.07-.08.07-.08.07-.07.08-.07.07-.07.08-.06.08-.06.09-.06.08-.05.08-.04.09-.04.09-.04.09-.03.09-.03.1-.02.09-.01.09-.01h.1z" class="fil1"/><path d="M24.77 19.23c.51 0 .83.53.73 1.19-.1.66-.6 1.19-1.11 1.19-.51 0-.84-.53-.73-1.19.1-.66.6-1.19 1.11-1.19z" class="fil7"/><path d="M24.77 19.06c.04 0 .09 0 .13.01.24.04.44.17.58.38.13.19.21.45.21.73 0 .08-.01.17-.02.26-.06.37-.23.7-.45.93-.23.25-.52.41-.83.41-.04 0-.09-.01-.13-.01-.24-.04-.44-.18-.58-.38-.13-.2-.21-.45-.21-.74 0-.08.01-.17.02-.26.06-.36.23-.69.45-.93.23-.25.52-.4.83-.4zm.08.34c-.03 0-.05-.01-.08-.01-.21 0-.42.12-.59.3-.18.19-.31.46-.36.75-.01.07-.01.14-.01.21 0 .22.05.41.15.55.08.13.21.21.35.23.03.01.05.01.08.01.21 0 .42-.11.59-.3.18-.19.31-.45.36-.75.01-.07.01-.14.01-.21 0-.22-.05-.4-.15-.54-.08-.13-.21-.22-.35-.24z" class="fil1"/><path d="M23.46 35.21c-1.26 1.85-8.92 4.6-8.99 7.26.48-.04 4.21 3.76 4.68 3.72l.01-.01H19.27l.01-.01H19.34c1.1-1.38 2.86-9.73 4.12-10.96z" class="fil8"/><path id="1" d="M14.46 42.31l.03.33-.19-.17.03-.28.08-.27.12-.27.15-.27.19-.26.22-.26.25-.26.28-.25.29-.25.32-.25.34-.25.35-.25.36-.24.38-.24.38-.24.39-.24.39-.23.4-.23.39-.23.39-.23.37-.22.38-.21.35-.22.35-.21.32-.21.3-.2.29-.19.25-.2.23-.18.2-.18.16-.17.12-.16.28.19-.15.19-.18.19-.21.19-.24.2-.27.2-.29.2-.31.21-.33.21-.34.21-.36.21-.37.22-.38.23-.39.22-.39.23-.39.23-.39.23-.39.24-.38.23-.37.24-.36.24-.35.24-.33.25-.3.24-.29.24-.26.24-.24.25-.2.24-.17.23-.14.24-.1.23-.06.23-.03.22-.18-.17zm.03.33l-.19.02v-.19l.19.17zm4.64 3.38l.04.33h-.01l-.11-.01-.1-.04-.1-.05-.11-.07-.12-.09-.14-.1-.15-.12-.15-.12-.17-.14-.17-.15-.18-.15-.19-.16-.18-.17-.2-.17-.19-.18-.2-.17-.2-.18-.19-.17-.2-.18-.19-.16-.18-.16-.18-.16-.17-.14-.16-.14-.15-.12-.14-.11-.13-.1-.11-.08-.1-.06-.08-.04-.04-.02h.01l-.03-.33.11.01.1.04.1.05.11.07.13.09.13.1.15.12.15.12.17.14.17.15.18.15.19.17.19.16.19.17.2.18.19.17.2.18.19.17.2.18.19.16.18.16.18.16.17.14.16.14.15.12.14.11.13.1.12.08.09.06.08.04.04.02h-.01zm.04.33h-.01.01zm-.02-.16l-.02-.17.02.17zm.02.16h-.01.01zm.01 0h-.01l-.04-.33h.01l.04.33zm-.02-.17l-.02-.16.02.16zm.03.17h-.01l-.04-.33h.03l.02.33zm-.04-.33h.02-.02zm.02.16v-.16.16zm-.02-.16h.02-.02zm.03.33h-.01v-.33h.01l.02.33h-.02zm.02 0h-.02.02zm-.02-.17l-.02-.16.02.16zm.02.17h-.02.02zm.01 0h-.01l-.04-.33h.01l.04.33zm-.02-.17l-.02-.16.02.16zm.03.17h-.01l-.04-.33.01-.01.04.34zm-.04-.34l-.02.01.02-.01zm.02.17l-.02-.17.02.17zm-.02-.17l-.02.01.02-.01zm.05.34h-.01l-.04-.34h.03l.02.34zm-.04-.34h.02-.02zm.02.17v-.17.17zm-.02-.17h.02-.02zm.03.34h-.01v-.34h.01l.02.34h-.02zm.02 0h-.02.02zm-.02-.17l-.02-.17.02.17zm.02.17h-.02.02zm.01 0h-.01l-.04-.34h.01l.04.34zm0 0l.02-.01-.02.01zm-.02-.17l-.02-.17.02.17zm.02.17l.02-.01-.02.01zm.01-.01l-.01.01-.04-.34h.01l.04.33zm-.04-.33h-.02.02zm.02.17l-.02-.17.02.17zm-.02-.17h-.02.02zm.05.33h-.01l-.04-.33h.03l.02.33zm-.04-.33h.02-.02zm.02.17v-.17.17zm-.02-.17h.02-.02zm.03.33h-.01v-.33h.01l.02.33h-.02zm.02 0h-.02.02zm-.02-.16l-.02-.17.02.17zm.02.16h-.02.02zm.01 0h-.01l-.04-.33h.01l.04.33zm-.02-.16l-.02-.17.02.17zm.03.16h-.01l-.04-.33h.03l.02.33zm-.04-.33h.02-.02zm.02.16v-.16.16zm-.02-.16h.02-.02zm.03.33h-.01v-.33h.01l.02.33h-.02zm.02 0h-.02.02zm-.02-.17l-.02-.16.02.16zm.02.17h-.02.02zm.01 0h-.01l-.04-.33h.01l.04.33zm-.02-.17l-.02-.16.02.16zm.03.17h-.01l-.04-.33.01-.01.04.34zm0 0h.02-.02zm-.02-.17l-.02-.17.02.17zm.02.17h.02-.02zm.01 0h-.01l-.04-.34h.03l.02.34zM19.3 46h.02-.02zm.03.34h-.01V46h.01l.02.34h-.02zm.02 0h-.02.02zm.01 0h-.01l-.04-.34h.01l.15.28-.11.06zm.11-.06l-.04.05-.07.01.11-.06zm4.13-10.97l-.28-.19.26.21-.11.12-.11.16-.12.2-.12.24-.13.27-.13.31-.13.33-.13.35-.14.37-.13.4-.14.41-.14.42-.13.43-.14.45-.14.44-.14.46-.13.45-.14.45-.14.44-.13.44-.14.43-.13.42-.13.4-.13.38-.13.37-.12.34-.12.32-.12.29-.12.26-.12.23-.11.2-.12.17-.26-.22.09-.13.11-.18.1-.21.12-.25.11-.28.12-.32.13-.33.12-.36.13-.39.13-.4.13-.41.13-.43.14-.44.14-.44.13-.45.14-.45.14-.46.14-.45.14-.44.13-.44.14-.42.14-.41.14-.4.13-.38.14-.36.13-.33.13-.31.14-.28.13-.26.13-.22.13-.19.13-.15.26.22zm-.26-.22l1.2-1.17-.94 1.39-.26-.22z" class="fil1"/><path d="M33.46 34.74c1.45 1.71 9.36 3.62 9.71 6.27-.48.01-3.79 4.18-4.26 4.19H38.72c-1.24-1.25-3.88-9.37-5.26-10.46z" class="fil8"/><path id="1" d="M43.16 40.84l-.16.19-.05-.22-.08-.22-.13-.21-.16-.22-.2-.22-.22-.22-.26-.21-.29-.22-.31-.21-.33-.21-.36-.2-.37-.21-.38-.2-.39-.2-.41-.19-.4-.19-.42-.19-.41-.19-.41-.19-.41-.18-.41-.18-.39-.18-.38-.17-.37-.18-.35-.17-.33-.17-.31-.17-.28-.17-.26-.17-.23-.17-.2-.17-.17-.18.25-.22.15.15.18.16.21.15.25.16.27.17.3.16.33.17.34.17.36.17.38.18.39.17.4.19.41.18.42.18.41.19.42.19.41.2.41.19.39.2.39.21.38.2.36.21.34.22.32.22.3.22.28.23.25.23.21.24.18.25.15.26.1.26.06.28-.16.19-.01-.34zm.17.15l.03.18-.19.01.16-.19zm-4.42 4.04h-.01l.04-.02.07-.05.09-.07.11-.09.11-.11.13-.13.14-.14.14-.15.16-.16.16-.17.17-.18.17-.19.17-.19.18-.19.17-.2.18-.19.18-.2.17-.19.17-.19.17-.18.16-.17.16-.17.15-.15.14-.14.13-.13.13-.12.11-.1.1-.08.1-.06.09-.05.11-.03.01.34h.01l-.05.02-.07.05-.08.07-.11.09-.12.11-.12.13-.14.13-.15.16-.15.16-.16.17-.17.18-.17.19-.17.19-.18.19-.18.2-.17.19-.18.2-.17.19-.18.19-.16.18-.17.17-.15.16-.15.16-.14.14-.13.13-.13.11-.11.1-.11.09-.09.06-.09.05-.12.02v-.33zm0 .33zm0-.16v.16-.16zm0 .16zm-.01 0v-.33h.01v.33h-.01zm0-.16v.16-.16zm-.01.16v-.33h.01v.33h-.01zm0-.16v.16-.16zm-.01.16v-.33h.01v.33h-.01zm0-.16v.16-.16zm-.01.16v-.33h.01v.33h-.01zm0-.16v.16-.16zm-.01.16v-.33h.01v.33h-.01zm0 0l-.02-.33h.02v.33zm-.02-.33h.02-.02zm.03.33l-.02.01-.02-.34h.01l.04.33h-.01zm0 0l-.01.01h-.01l.02-.01zm-.02-.16v.17-.17zm.02.16l-.01.01h-.01l.02-.01zm-.03.01v-.34h.01v.34h-.01zm0-.17v.17-.17zm-.01.17v-.34h.01v.34h-.01zm0-.17v.17-.17zm-.01.17v-.34h.01v.34h-.01zm0 0v-.34.34zm-.01 0l-.02-.34h.03v.34h-.01zm-.02-.34h.02-.02zm.02.17l.02.16-.02-.16zm-.02-.17h.02-.02zm.03.34h-.02l-.02-.34h.01l.04.33-.01.01zm0 0h-.02.02zm-.02-.17v.17-.17zm.02.17h-.02.02zm-.03 0v-.34h.01v.34h-.01zm0-.17v.17-.17zm-.01.17v-.34h.01v.34h-.01zm0-.17v.17-.17zm-.01.17v-.34h.01v.34h-.01zm0-.17v.17-.17zm-.01.17v-.34h.01v.34h-.01zm0-.17v.17-.17zm-.01.17l-.02-.34h.03v.34h-.01zm-.02-.34h.02-.02zm.02.17l.02.17-.02-.17zm-.02-.17h.02-.02zm.03.34h-.02l-.02-.34h.01l.04.34h-.01zm0 0h-.02.02zm-.03 0v-.34h.01v.34h-.01zm-.01 0l-.12-.05.12-.29h.01v.34h-.01zm0 0h-.07l-.05-.05.12.05zm-5.39-10.52l.23-.24.15.14.15.17.15.21.16.23.16.27.17.29.17.32.17.35.17.36.18.38.18.39.19.41.18.42.19.43.18.43.19.44.18.43.19.43.18.43.18.42.18.41.17.4.17.39.17.36.16.35.16.32.15.3.15.26.14.24.13.2.12.17.11.12-.24.24-.13-.15-.14-.19-.14-.21-.14-.25-.15-.28-.16-.3-.16-.33-.16-.35-.17-.37-.18-.38-.17-.4-.18-.41-.18-.43-.18-.43-.19-.43-.18-.43-.19-.44-.18-.43-.19-.42-.18-.42-.18-.41-.18-.39-.18-.38-.17-.36-.17-.33-.17-.31-.16-.29-.15-.26-.15-.22-.14-.19-.13-.15-.12-.1.23-.25-.25.22zm0 0l-1.09-1.27 1.32 1.03-.23.24z" class="fil1"/><path d="M21.63 26.22c-.06-.15.01-.33.15-.39.15-.07.33 0 .39.15.72 1.63 2.01 2.68 3.5 3.21.93.34 1.93.48 2.92.44.99-.04 1.96-.26 2.83-.64 1.33-.59 2.41-1.56 2.87-2.84.06-.16.23-.24.38-.18.16.06.24.22.18.38-.52 1.45-1.72 2.53-3.2 3.18-.93.41-1.97.65-3.04.69-1.06.04-2.14-.11-3.14-.47-1.63-.59-3.05-1.74-3.84-3.53zM28.74 23.04c.39 0 .75.1 1.01.27.28.17.45.42.45.71 0 .28-.17.53-.45.71-.26.16-.62.26-1.01.26-.38 0-.74-.1-1-.26-.28-.18-.46-.43-.46-.71 0-.29.18-.54.46-.71.26-.17.62-.27 1-.27zm.83.55c-.21-.13-.5-.21-.83-.21-.32 0-.61.08-.82.21-.19.12-.3.27-.3.43 0 .16.11.31.3.43.21.12.5.21.82.21.33 0 .62-.09.83-.21.18-.12.3-.27.3-.43 0-.16-.12-.31-.3-.43z" class="fil1"/><path d="M51.22 69.01c-.88-.88-1.76-1.76-2.63-2.65-.96.48-1.36 1.23-1.45 1.94-.14 1.24.42 1.76 1.64 1.81.75.03 1.66-.22 2.44-1.1z" class="fil4"/><path id="1" d="M48.51 66.21l.2.04.08.08.08.08.08.08.09.09.08.08.08.08.08.09.08.08.09.08.08.08.08.09.08.08.09.08.08.08.08.09.08.08.08.08.09.09.08.08.08.08.08.08.09.09.08.08.08.08.08.09.08.08.09.08.08.08.08.09.08.08.09.08.08.08-.24.24-.08-.08-.09-.08-.08-.09-.08-.08-.08-.08-.09-.08-.08-.09-.08-.08-.08-.08-.08-.09-.09-.08-.08-.08-.08-.08-.08-.09-.08-.08-.09-.08-.08-.09-.08-.08-.08-.08-.09-.08-.08-.09-.08-.08-.08-.08-.08-.09-.09-.08-.08-.08-.08-.08-.08-.09-.09-.08-.08-.08-.08-.08-.08-.09.19.03-.15-.3zm0 0l.11-.05.09.09-.2-.04zm-1.53 2.07v-.07l.02-.07.01-.08.02-.07.01-.07.02-.07.03-.07.02-.07.03-.07.03-.07.03-.07.03-.07.04-.07.04-.07.04-.07.05-.07.05-.07.05-.06.05-.07.06-.06.06-.07.06-.06.06-.06.07-.06.07-.06.07-.06.08-.05.08-.06.08-.05.09-.05.09-.05.09-.05.15.3-.08.05-.08.04-.08.05-.07.05-.08.04-.06.05-.07.05-.06.06-.06.05-.06.05-.05.06-.05.05-.05.06-.05.05-.04.06-.05.06-.03.06-.04.06-.04.06-.03.06-.03.06-.02.06-.03.06-.02.06-.03.06-.01.07-.02.06-.02.06-.01.06-.01.06-.01.07-.01.06-.33-.04zm1.79 2l-.12-.01-.11-.01-.11-.01-.11-.02-.1-.01-.1-.03-.09-.02-.1-.03-.09-.03-.08-.04-.08-.04-.08-.05-.07-.04-.07-.06-.07-.05-.06-.07-.06-.06-.05-.07-.05-.07-.04-.08-.04-.08-.04-.09-.02-.08-.03-.09-.02-.1-.01-.1-.01-.1-.01-.11v-.1l.01-.12v-.11l.02-.12.33.04-.01.11-.01.1v.28l.01.09.01.08.02.08.02.07.02.07.03.07.02.06.04.05.03.06.04.05.04.04.05.05.05.04.05.04.06.04.06.03.06.03.07.03.07.03.08.02.08.03.09.01.09.02.09.02.1.01.11.01h.1l-.01.34zm2.57-1.39v.24l-.07.08-.08.08-.08.07-.08.08-.08.07-.08.06-.08.06-.08.06-.08.06-.08.05-.09.05-.08.05-.08.04-.08.04-.09.04-.08.04-.09.03-.08.03-.08.02-.08.03-.08.02-.08.02-.09.02-.08.01-.08.01-.08.01-.08.01h-.08l-.07.01h-.23l.01-.34h.27l.07-.01h.07l.08-.01.07-.01.07-.02.07-.01.07-.02.08-.02.07-.02.07-.02.08-.03.07-.03.08-.03.07-.03.08-.04.07-.04.07-.04.08-.04.07-.05.08-.05.07-.05.07-.06.07-.06.08-.06.07-.07.07-.07.07-.07.07-.08.01.23.24-.24zm0 0l.11.12-.11.12v-.24z" class="fil1"/><path d="M51.81 68.42c-1.27-1.45-1.82-1.96-3.09-3.41 2.2-3.35 2.22-7.43 6.02-7.35 1.93.04 3.03 1.9 3.08 3.67.06 2.8-1.75 5.49-6.01 7.09z" class="fil4"/><path id="1" d="M48.86 65.1l-.01-.2.11.13.12.13.11.12.1.12.1.12.1.11.1.1.09.11.1.1.09.1.09.1.08.09.09.1.09.09.08.09.09.09.08.09.09.09.09.1.08.09.09.1.09.09.09.1.1.11.09.1.1.11.1.11.1.12.11.12.11.12.11.13.12.13-.26.22-.11-.13-.12-.13-.1-.12-.11-.12-.1-.11-.1-.12-.1-.1-.09-.11-.1-.1-.09-.1-.09-.09-.08-.1-.09-.09-.09-.1-.08-.09-.09-.09-.08-.09-.09-.09-.08-.1-.09-.09-.09-.1-.09-.09-.09-.1-.09-.11-.1-.1-.1-.11-.1-.11-.1-.11-.11-.12-.11-.13-.11-.13-.12-.13-.01-.2.28.18zm-.27.02l-.08-.1.07-.1.01.2zm6.15-7.29h-.34l-.31.03-.29.05-.27.07-.25.08-.24.11-.22.13-.21.14-.2.16-.19.17-.17.19-.17.21-.16.22-.15.23-.15.25-.14.26-.14.27-.13.28-.13.28-.14.3-.13.3-.13.31-.13.32-.14.31-.14.33-.15.32-.15.33-.16.32-.18.33-.18.33-.19.32-.2.32-.28-.18.2-.32.18-.31.18-.32.16-.32.16-.32.15-.32.15-.32.14-.32.14-.32.13-.31.13-.31.14-.31.13-.3.13-.29.14-.28.14-.28.15-.27.15-.25.16-.25.17-.23.18-.23.19-.2.21-.2.22-.17.23-.16.25-.14.26-.12.28-.1.3-.07.32-.05.34-.03.35-.01v.34zm2.91 3.5l-.01-.16-.01-.16-.02-.16-.02-.16-.04-.15-.03-.16-.04-.16-.05-.15-.05-.15-.06-.15-.07-.15-.07-.14-.07-.14-.08-.14-.09-.13-.09-.12-.09-.12-.11-.12-.1-.11-.11-.1-.12-.1-.12-.09-.12-.09-.13-.07-.14-.07-.14-.06-.14-.06-.15-.04-.15-.04-.16-.03-.16-.01-.17-.01v-.34l.19.01.19.02.18.03.17.04.17.05.16.07.16.06.15.08.15.09.14.09.13.11.13.11.13.11.11.12.11.13.11.13.1.14.09.15.09.14.08.15.08.16.07.16.06.16.06.16.05.17.04.17.04.17.04.17.02.17.02.17.02.17v.17l-.33.01zm-5.71 6.98l-.19-.04.39-.16.37-.15.36-.17.35-.17.33-.17.32-.18.3-.19.29-.19.28-.19.26-.2.25-.21.24-.2.22-.21.21-.22.2-.22.18-.22.18-.23.16-.22.15-.24.13-.23.13-.24.11-.24.1-.24.08-.24.08-.25.07-.24.05-.25.04-.25.04-.25.02-.26.01-.25v-.26l.33-.01v.27l-.01.27-.02.27-.03.27-.05.26-.06.27-.06.26-.09.26-.09.26-.11.25-.11.25-.13.25-.15.25-.15.24-.17.24-.18.24-.2.23-.2.23-.22.22-.24.23-.24.21-.26.21-.27.21-.29.2-.3.2-.31.19-.33.18-.34.18-.35.17-.37.17-.38.17-.4.15-.19-.05.26-.22zm-.07.27l-.11.04-.08-.09.19.05z" class="fil1"/><path d="M45.04 61.82c.79 1.47 1.75 2.84 3 4.07-.86.68-1.49 1.5-1.77 2.52-1.66-1.6-3.03-3.38-4.22-5.27.66-.2 1.6-.58 2.99-1.32z" class="fil2"/><path id="1" d="M47.94 65.76l-.02.25-.11-.11-.12-.12-.11-.12-.12-.12-.11-.12-.11-.12-.11-.12-.1-.13-.11-.12-.1-.12-.1-.13-.1-.12-.1-.13-.1-.13-.09-.13-.1-.12-.09-.13-.09-.13-.09-.13-.09-.13-.09-.14-.09-.13-.08-.13-.09-.14-.08-.13-.08-.14-.08-.13-.08-.14-.08-.13-.07-.14-.08-.14-.07-.14.29-.15.08.13.07.14.08.13.07.14.08.13.08.13.08.14.08.13.08.13.09.13.08.13.09.13.08.13.09.12.09.13.09.13.1.13.09.12.09.12.1.13.1.12.1.12.1.13.1.12.11.11.1.13.11.11.11.12.11.12.11.11.11.12.12.11-.02.26-.2-.27zm.22.01l.14.14-.16.12.02-.26zm-1.77 2.52l-.28.08.03-.1.03-.1.03-.1.03-.09.04-.1.04-.09.04-.09.04-.09.05-.09.04-.09.05-.09.05-.08.05-.09.06-.08.05-.08.06-.09.06-.08.06-.08.06-.08.07-.07.06-.08.07-.07.07-.08.07-.07.07-.07.08-.07.07-.07.08-.07.08-.07.07-.07.09-.06.08-.07.2.27-.07.06-.08.06-.08.07-.07.06-.07.07-.07.06-.07.07-.07.07-.07.07-.06.06-.06.07-.07.08-.06.07-.05.07-.06.07-.06.08-.05.08-.05.07-.05.08-.05.08-.05.08-.04.08-.04.08-.05.08-.04.09-.03.08-.04.09-.03.08-.03.09-.03.09-.03.09-.03.1-.28.07.24-.24zm.04.17l-.07.27-.21-.2.28-.07zM42.1 63.3l.09-.25.11.17.11.18.12.17.11.18.12.17.12.18.12.17.11.17.12.17.13.17.12.17.12.16.13.17.13.17.13.16.13.17.13.16.13.17.13.16.14.16.13.16.14.16.14.16.14.15.15.16.14.16.15.15.14.16.15.15.15.15.15.15.16.15-.24.24-.15-.15-.16-.15-.15-.16-.15-.15-.15-.16-.15-.15-.14-.16-.15-.16-.14-.16-.14-.16-.14-.16-.14-.16-.14-.17-.13-.16-.14-.17-.13-.16-.13-.17-.13-.17-.13-.16-.13-.17-.12-.17-.13-.17-.12-.18-.12-.17-.12-.17-.12-.17-.12-.18-.12-.17-.11-.18-.12-.18-.11-.17-.11-.18.09-.25.1.32zm-.19-.07l-.12-.19.21-.06-.09.25zm2.99-1.33l.22.07-.13.07-.13.07-.12.06-.12.06-.12.06-.12.06-.11.06-.12.05-.11.05-.1.05-.11.05-.1.05-.1.05-.1.04-.1.04-.09.04-.09.04-.09.04-.09.04-.09.03-.08.04-.08.03-.08.03-.08.03-.08.03-.07.02-.08.03-.07.02-.06.03-.07.02-.07.02-.06.02-.1-.32.06-.02.06-.02.07-.02.07-.03.06-.02.07-.02.08-.03.07-.03.08-.03.07-.02.09-.04.08-.03.08-.03.09-.04.08-.04.09-.03.1-.05.09-.04.1-.04.1-.04.1-.05.1-.05.11-.05.11-.05.11-.06.11-.05.12-.06.12-.06.12-.06.12-.06.13-.07.13-.06.22.07-.29.15zm.07-.22l.14-.08.08.15-.22-.07z" class="fil1"/><path d="M31.87 17.63c-.9 0-1.48.93-1.3 2.08.18 1.15 1.06 2.08 1.96 2.08.9 0 1.48-.93 1.29-2.08-.18-1.15-1.05-2.08-1.95-2.08z" class="fil6"/><path id="1" d="M30.74 19.68l-.33.06-.02-.12-.01-.11-.01-.11v-.22l.01-.1.01-.1.02-.11.02-.1.02-.09.03-.1.03-.09.03-.09.04-.09.05-.08.04-.08.05-.07.06-.08.06-.07.06-.06.06-.06.07-.06.07-.05.08-.05.07-.04.09-.04.08-.03.08-.03.09-.02.09-.01.1-.01.09-.01v.34h-.07l-.07.01-.07.01-.07.02-.06.02-.06.02-.06.03-.06.03-.06.04-.05.04-.05.04-.05.05-.05.05-.05.05-.04.06-.04.06-.04.06-.03.07-.04.07-.03.08-.02.07-.03.08-.02.09-.01.08-.02.09v.09l-.01.09V19.49l.01.09.02.1zm1.79 1.94v.34h-.1l-.09-.01-.1-.02-.09-.02-.09-.02-.09-.04-.09-.03-.09-.04-.08-.05-.09-.05-.08-.05-.08-.06-.08-.06-.07-.07-.08-.07-.07-.07-.07-.08-.07-.08-.06-.08-.06-.09-.06-.09-.06-.09-.05-.1-.05-.1-.05-.09-.04-.11-.04-.1-.04-.11-.03-.11-.03-.11-.02-.11-.02-.11.33-.06.02.1.02.1.02.1.03.1.03.09.04.1.04.09.04.09.04.08.05.09.05.08.05.08.06.08.05.07.06.07.06.07.07.06.06.06.07.06.06.05.07.05.07.05.07.04.07.04.07.03.08.03.07.02.07.03.08.01.07.01.07.01h.08zm1.13-1.88l.33-.06.02.12.01.11V20.34l-.01.11-.02.1-.02.1-.02.1-.03.09-.03.09-.04.09-.04.09-.04.08-.05.08-.05.08-.05.07-.06.07-.06.06-.07.07-.06.05-.08.05-.07.05-.08.05-.08.03-.08.03-.09.03-.09.02-.09.02-.09.01h-.09v-.34h.07l.07-.01.07-.01.06-.01.07-.02.06-.03.06-.03.06-.03.05-.03.06-.04.05-.05.05-.04.05-.05.04-.06.05-.06.04-.06.03-.06.04-.07.03-.07.03-.07.03-.08.02-.08.02-.08.02-.09.01-.09.01-.08.01-.1v-.19l-.01-.09-.01-.1-.01-.1zm-1.79-1.94v-.34l.09.01.1.01.09.01.09.02.1.03.09.03.08.03.09.04.09.05.08.05.08.05.09.06.07.07.08.06.08.07.07.08.07.07.06.08.07.09.06.08.06.09.06.1.05.09.05.1.05.1.04.1.04.1.03.11.04.11.02.11.03.11.02.11-.33.06-.02-.1-.02-.1-.03-.1-.03-.1-.03-.09-.03-.09-.04-.1-.04-.08-.05-.09-.05-.08-.05-.09-.05-.08-.05-.07-.06-.08-.06-.07-.06-.06-.06-.07-.07-.06-.06-.06-.07-.05-.07-.05-.07-.04-.07-.05-.07-.03-.07-.04-.07-.03-.07-.02-.08-.02-.07-.02-.07-.01-.08-.01h-.07z" class="fil1"/><path d="M31.76 19.16c-.51 0-.84.54-.74 1.19.11.66.6 1.19 1.11 1.19.51 0 .84-.53.74-1.19-.1-.65-.6-1.19-1.11-1.19z" class="fil7"/><path d="M31.76 19.33c-.03 0-.06 0-.08.01-.15.02-.27.11-.36.23-.09.14-.15.33-.15.55 0 .07.01.14.02.21.05.29.18.56.36.75.17.18.38.3.58.3.03 0 .06-.01.09-.01.14-.02.26-.11.35-.24.1-.13.15-.32.15-.54 0-.07-.01-.14-.02-.21-.04-.3-.18-.56-.36-.75-.17-.19-.37-.3-.58-.3zm-.13-.33c.04 0 .09-.01.13-.01.3 0 .6.16.83.41.22.24.39.56.44.93.02.09.03.18.03.26 0 .28-.08.54-.21.73-.14.21-.34.34-.58.38-.05.01-.09.01-.14.01-.3 0-.59-.15-.83-.4-.22-.24-.38-.57-.44-.93-.02-.09-.02-.18-.02-.26 0-.29.07-.54.21-.73.13-.21.34-.35.58-.39z" class="fil1"/><g><path d="M6.17 68.78c1.27-1.46 1.83-1.96 3.09-3.42-2.2-3.35-2.22-7.42-6.02-7.35-1.92.04-3.03 1.9-3.07 3.67-.07 2.8 1.74 5.49 6 7.1z" class="fil4"/><path id="1" d="M9.12 65.45l.29-.18-.02.2-.12.14-.11.13-.11.12-.1.12-.11.11-.1.12-.1.1-.09.11-.09.1-.1.1-.09.1-.08.09-.09.1-.09.09-.08.09-.09.09-.08.1-.09.09-.09.09-.08.09-.09.1-.09.1-.09.09-.09.11-.1.1-.09.11-.1.11-.11.11-.1.12-.11.13-.11.12-.12.14-.25-.22.11-.14.12-.13.11-.12.1-.12.11-.12.1-.11.09-.11.1-.1.09-.1.09-.1.09-.1.09-.09.09-.1.08-.09.09-.09.09-.1.08-.09.09-.09.08-.09.09-.1.09-.09.09-.1.09-.1.09-.1.09-.1.1-.11.1-.11.1-.12.11-.11.11-.13.11-.13.12-.13-.02.2zm.29-.18l.07.11-.09.09.02-.2zm-6.16-7.09l-.01-.34.36.01.33.03.32.05.3.08.28.1.27.11.24.14.24.16.22.18.2.19.19.21.18.22.17.23.16.25.15.26.15.26.14.28.14.28.14.3.13.3.13.3.13.31.14.31.13.32.14.32.15.32.15.32.16.32.17.32.17.32.19.32.2.31-.29.18-.2-.32-.19-.32-.18-.33-.17-.32-.16-.33-.16-.33-.14-.32-.14-.32-.14-.32-.14-.32-.13-.31-.13-.3-.13-.29-.13-.29-.14-.28-.14-.27-.14-.26-.14-.24-.16-.24-.16-.22-.16-.2-.18-.19-.19-.18-.19-.16-.21-.14-.22-.13-.24-.1-.26-.09-.27-.07-.29-.05-.31-.03h-.33zm-2.91 3.5H0l.01-.18.01-.17.02-.17.03-.17.03-.17.04-.17.04-.17.06-.17.05-.16.07-.16.07-.16.07-.15.08-.15.09-.15.1-.14.1-.14.1-.14.11-.12.12-.13.12-.11.13-.11.14-.1.14-.1.15-.08.15-.08.15-.07.17-.06.17-.05.17-.05.18-.03.18-.02.19-.01.01.34-.17.01-.16.02-.16.02-.16.04-.14.05-.15.05-.14.06-.13.07-.13.08-.13.08-.12.09-.11.1-.11.1-.11.11-.1.12-.1.12-.09.13-.08.13-.08.13-.08.14-.07.14-.06.15-.06.15-.05.15-.05.15-.04.16-.04.16-.03.16-.02.15-.02.16-.02.17v.15zm5.71 6.99l.25.22-.19.04-.39-.15-.38-.16-.37-.17-.36-.17-.34-.18-.32-.19-.32-.19-.3-.2-.28-.2-.27-.2-.26-.21-.25-.22-.23-.22-.22-.23-.21-.22-.19-.24-.18-.23-.17-.24-.16-.25-.14-.25-.13-.24-.12-.26-.11-.25-.09-.26-.08-.26-.07-.26-.06-.27-.04-.26-.04-.27-.02-.27-.01-.26v-.27h.34v.26l.01.25.02.26.03.25.04.25.06.25.06.25.08.24.09.25.1.24.11.24.12.23.14.24.15.23.16.23.17.22.18.22.2.22.21.22.23.21.23.21.25.2.27.2.27.19.29.19.31.19.31.18.34.18.34.16.36.17.37.16.39.15-.18.05zm.25.22l-.08.08-.11-.04.19-.04z" class="fil1"/></g><g><path d="M29.11 7.26c2.42-.07 3.85 7.06 5.18 9.31-1.52.36-.59.24-2.24.27.47-2.61-1.63-8.26-2.94-9.58z" class="fil4"/><path id="1" d="M34.25 16.4l-.11.25-.13-.23-.13-.26-.12-.28-.13-.3-.13-.32-.13-.33-.14-.35-.13-.37-.14-.37-.13-.38-.14-.39-.15-.4-.14-.39-.15-.39-.15-.4-.15-.38-.15-.38-.16-.37-.16-.36-.17-.34-.17-.33-.17-.31-.17-.29-.18-.26-.18-.24-.19-.21-.18-.18-.19-.15-.19-.12-.19-.08-.19-.05-.19-.01-.01-.34.25.02.25.06.23.1.23.14.22.17.21.21.2.23.19.25.19.28.18.3.18.32.17.34.17.35.17.36.16.38.15.38.16.39.15.4.15.39.14.4.14.39.14.39.14.38.14.38.13.36.13.35.13.33.13.31.12.3.13.27.12.24.12.22-.11.25-.07-.33zm.18.08l.12.2-.23.05.11-.25zm-2.21.39l-.17-.2h.4l.11-.01.1.01h.49l.02-.01h.06l.02-.01h.03l.03-.01.04-.01.04-.01.04-.01.06-.02.06-.01.07-.02.07-.02.09-.02.1-.03.11-.03.12-.02.14-.04.07.33-.13.03-.12.03-.11.03-.1.02-.08.03-.08.02-.07.02-.06.01-.05.01-.05.02-.04.01-.04.01-.04.01h-.04l-.03.01h-.04l-.03.01h-1.16l-.16-.19.33.06zm-.17.13l-.2.01.04-.2.16.19zm-2.93-9.57l.11-.29.14.15.13.16.14.2.14.2.14.23.14.25.14.26.14.28.14.3.14.3.14.32.14.33.13.34.13.35.13.35.12.35.11.37.12.36.1.36.1.37.08.36.09.36.07.36.06.35.05.34.04.34.03.33.02.31.01.31-.01.29-.02.28-.04.27-.33-.06.03-.24.02-.26.01-.28v-.29l-.02-.31-.03-.31-.04-.33-.05-.34-.06-.34-.07-.35-.08-.35-.09-.36-.1-.36-.1-.36-.11-.35-.11-.36-.12-.35-.12-.35-.13-.34-.13-.33-.14-.33-.13-.31-.14-.3-.14-.29-.14-.27-.14-.26-.13-.24-.14-.21-.13-.2-.13-.18-.12-.15-.12-.13.12-.29.01.34zm-.13-.05l-.27-.28.39-.01-.12.29z" class="fil1"/></g><g><path d="M19.95.27c1.31-.78 4.84 3.07 7.97 6.12-3.78 1.85-10.42 6.41-11.17 4.68-1.27-2.75 1.29-9.52 3.2-10.8z" class="fil9"/><path id="1" d="M28 6.54l-.15-.3-.04.27-.3-.29-.3-.29-.3-.3-.29-.29-.3-.3-.3-.3-.3-.29-.3-.29-.3-.29-.29-.29-.29-.28-.29-.27-.28-.26-.28-.26-.28-.25-.27-.24-.26-.22-.26-.22-.25-.2-.25-.18-.23-.17-.23-.16-.22-.13-.21-.12-.2-.1-.18-.08-.18-.05-.16-.04-.14-.01-.12.01-.12.02-.09.05-.17-.3.16-.07.17-.04.18-.01.19.02.19.04.2.07.21.08.22.11.22.13.23.14.24.16.24.17.25.2.26.2.26.22.27.23.28.24.27.25.29.26.28.26.29.28.29.28.3.29.3.29.29.29.3.29.3.3.3.3.3.29.3.3.3.29.29.29-.04.27zm.04-.27l.17.16-.21.11.04-.27zM16.6 11.15l.31-.15v.01l.06.1.08.08.12.05.14.04.19.01.22-.02.24-.04.28-.06.29-.09.32-.11.34-.14.36-.15.37-.17.39-.18.4-.2.41-.21.42-.22.43-.23.43-.23.44-.25.44-.24.44-.25.45-.25.43-.25.44-.25.43-.24.42-.24.42-.23.4-.22.4-.21.38-.19.36-.18.15.3-.36.18-.38.19-.39.21-.4.22-.41.23-.43.23-.42.24-.44.25-.44.25-.44.25-.44.25-.44.25-.44.24-.44.24-.43.23-.42.22-.42.22-.4.2-.4.18-.38.17-.36.16-.35.13-.33.12-.32.09-.29.07-.27.05-.26.02-.23-.02-.22-.05-.18-.09-.16-.14-.11-.19v.01zm.31-.15v.01V11zM19.87.12l.17.3.01-.01-.17.13-.18.15-.17.19-.18.21-.19.24-.18.27-.18.28-.18.31-.18.33-.18.34-.17.36-.17.37-.16.38-.16.4-.14.39-.14.41-.13.41-.12.41-.11.42-.09.41-.09.41-.07.4-.05.4-.04.39-.03.38-.01.36.01.36.03.33.04.32.06.3.09.28.1.25-.31.15-.11-.29-.09-.31-.07-.32-.05-.34-.03-.36-.01-.37.01-.38.03-.39.04-.4.06-.41.07-.42.09-.41.1-.42.11-.43.12-.42.13-.41.14-.42.15-.4.16-.4.16-.39.17-.38.18-.37.18-.35.18-.33.19-.32.19-.3.19-.28.19-.25.2-.23.19-.2.19-.18.2-.14.01-.01zm-.01.01l.01-.01-.01.01z" class="fil1"/></g><g><path d="M36.64.51c-1.3-.81-4.88 2.96-8.07 5.94 3.75 1.94 10.32 6.63 11.09 4.92 1.32-2.72-1.13-9.55-3.02-10.86z" class="fil9"/><path id="1" d="M28.49 6.6l-.04-.27.3-.28.31-.29.3-.28.3-.29.31-.29.3-.29.3-.29.31-.29.3-.28.3-.28.3-.28.29-.27.29-.26.29-.25.28-.24.28-.24.27-.22.27-.22.26-.19.25-.19.25-.17.24-.15.23-.14.23-.13.21-.1.21-.08.21-.06.19-.04.19-.01.18.01.17.05.16.07-.18.29-.09-.05-.11-.03-.13-.01-.14.02-.16.03-.18.05-.18.07-.2.1-.21.11-.23.13-.22.15-.24.17-.25.18-.26.19-.26.21-.27.22-.27.23-.28.24-.29.25-.28.27-.3.26-.29.28-.3.27-.3.29-.3.28-.31.29-.3.29-.31.29-.3.29-.3.29-.31.29-.3.28-.03-.28-.16.3zm0 0l-.21-.1.17-.17.04.27zm11.32 4.85v-.01l-.11.19-.16.13-.19.1-.21.04-.24.01-.25-.02-.27-.05-.3-.08-.31-.1-.33-.12-.35-.15-.36-.16-.38-.18-.39-.19-.4-.21-.41-.22-.42-.23-.42-.24-.44-.25-.43-.25L33 9.2l-.44-.26-.43-.26-.44-.26-.43-.25-.43-.25-.41-.25-.41-.23-.4-.23-.39-.22-.37-.2-.36-.19.16-.3.36.19.37.21.39.22.4.22.42.24.42.25.42.25.43.25.44.26.43.26.44.26.44.26.43.25.43.24.43.24.41.23.41.22.4.21.38.19.37.18.36.15.33.14.32.12.3.1.27.07.25.04.21.02h.19l.14-.04.12-.05.08-.07.07-.1v-.01l.3.15zm-.3-.14h-.01l.01-.01v.01zM36.73.36l.01.01.19.15.19.18.19.2.19.24.19.25.19.28.18.3.18.32.18.34.18.36.17.37.16.38.16.39.15.41.14.41.13.41.13.42.11.43.11.42.09.42.08.42.06.42.05.41.04.4.02.39v.38l-.01.38-.04.35-.05.34-.07.32-.1.31-.12.28-.3-.15.1-.25.09-.28.07-.29.05-.32.03-.34.01-.35V9.1l-.02-.38-.03-.39-.05-.39-.06-.41-.08-.41-.09-.42-.1-.41-.12-.42-.12-.41-.13-.41-.14-.4-.15-.4-.15-.38-.16-.38-.17-.36-.17-.34-.17-.33-.18-.31-.18-.29-.18-.27-.18-.25-.17-.22-.18-.19-.17-.16-.16-.13v.01l.18-.29zm0 0l.01.01-.01-.01z" class="fil1"/></g><g><path d="M27 4.12c.97-.44 1.93-.24 2.9-.2.3.84.36 2.13.17 3.85-.26.32-3.73.67-3.83-.13.05-1.5.18-2.86.76-3.52z" class="fil9"/><path id="1" d="M30.05 3.87l-.31.11.15.11h-.09l-.1-.01h-.09l-.09-.01-.09-.01h-.09l-.09-.01-.09-.01h-.09l-.09-.01-.09-.01h-.18l-.08-.01H28.28l-.09.01h-.09l-.09.01-.08.01-.09.01-.08.02-.09.01-.09.02-.08.02-.08.03-.09.02-.09.04-.08.03-.08.04-.15-.31.1-.04.1-.04.09-.04.1-.03.09-.02.1-.03.09-.02.1-.02.09-.01.1-.02.09-.01h.1l.09-.01.09-.01h.38l.09.01h.09l.09.01H29l.09.01.1.01h.09l.09.01.09.01h.09l.09.01.09.01h.09l.08.01.15.11zm-.15-.11h.12l.03.11-.15-.11zm.3 4.12l-.26-.22-.04.09.02-.15.01-.16.02-.16.01-.15.01-.14.01-.15.01-.14.01-.15v-.13l.01-.14v-.64L30 5.52l-.01-.11v-.12l-.01-.11-.01-.11-.01-.1-.02-.11-.01-.1-.02-.1-.01-.09-.02-.09-.02-.09-.02-.09-.03-.08-.02-.08-.03-.08-.02-.08.31-.11.03.08.03.09.03.08.02.1.03.09.02.1.02.1.02.1.01.1.02.11.01.11.01.11.01.11.01.12.01.12.01.12v.25l.01.13v.26l-.01.14v.14l-.01.14v.14l-.01.15-.01.15-.01.15-.02.15-.01.16-.01.16-.02.16-.04.09zm.04-.09l-.01.05-.03.04.04-.09zm-4.17-.16l.34.01v-.02l.01.03.01.02.03.04.05.03.07.04.08.04.11.03.11.03.13.02.13.02.15.02.15.01h.16l.16.01h.16l.17-.01h.17l.17-.01.16-.01.16-.02.16-.02.16-.02.14-.02.14-.02.12-.02.12-.03.11-.03.08-.02.08-.03.05-.02.03-.02.26.22-.07.06-.07.04-.08.04-.09.03-.11.03-.11.03-.13.03-.13.02-.15.03-.15.02-.16.02-.16.02-.17.01-.17.02-.18.01h-.17l-.17.01h-.18l-.17-.01h-.16l-.17-.02-.15-.01-.15-.03-.14-.02-.13-.04-.13-.04-.11-.04-.11-.06-.09-.07-.08-.08-.06-.11-.03-.11v-.03zm0 .03v-.03.03zm.86-3.69l.15.31.05-.05-.05.06-.04.06-.05.07-.04.07-.04.07-.04.08-.03.08-.04.08-.03.09-.03.09-.03.1-.03.1-.03.1-.02.1-.02.11-.03.11-.01.11-.02.12-.02.11-.02.12-.01.13-.01.12-.01.13-.02.13-.01.12v.14l-.01.13-.01.13-.01.14v.14l-.01.13v.14l-.34-.01.01-.14v-.14l.01-.14v-.13l.01-.14.01-.13.01-.14.01-.13.01-.13.01-.13.02-.13.01-.13.02-.12.01-.12.02-.13.02-.11.03-.12.02-.11.03-.11.02-.11.03-.11.04-.1.03-.1.04-.1.04-.1.04-.09.04-.09.05-.08.05-.09.05-.08.06-.07.06-.07.05-.04zm-.05.04l.02-.03.03-.01-.05.04z" class="fil1"/></g><g><path d="M26.83 53.83c1.08 0 1.95.87 1.95 1.95 0 1.07-.87 1.95-1.95 1.95-1.07 0-1.95-.88-1.95-1.95 0-1.08.88-1.95 1.95-1.95z" class="fil9"/><path id="1" d="M28.95 55.78h-.34v-.09l-.01-.09-.01-.09-.02-.09-.02-.08-.02-.09-.03-.08-.03-.08-.03-.08-.04-.08-.05-.07-.04-.08-.05-.06-.06-.07-.05-.07-.06-.06-.06-.06-.07-.05-.07-.06-.06-.05-.08-.04-.07-.05-.08-.03-.08-.04-.08-.03-.08-.03-.09-.02-.08-.02-.09-.02-.09-.01-.09-.01h-.09v-.34l.11.01h.11l.1.02.11.02.1.02.1.03.1.03.09.04.1.04.09.05.09.05.08.05.09.06.08.07.07.06.08.07.07.08.06.07.07.08.06.09.05.08.05.09.05.09.04.1.04.09.03.1.03.1.02.1.02.11.02.1v.11l.01.11zm-2.12 2.11v-.33l.09-.01h.09l.09-.01.09-.02.08-.02.09-.02.08-.03.08-.03.08-.04.08-.04.07-.04.08-.05.07-.05.06-.05.07-.06.06-.05.06-.07.05-.06.06-.07.05-.07.04-.07.05-.07.04-.08.03-.08.03-.08.03-.08.02-.09.02-.08.02-.09.01-.09.01-.09v-.09h.34l-.01.11V56l-.02.1-.02.11-.02.1-.03.1-.03.1-.04.09-.04.1-.05.09-.05.09-.05.08-.06.08-.07.08-.06.08-.07.07-.08.07-.07.07-.08.06-.09.06-.08.06-.09.05-.09.05-.1.04-.09.04-.1.03-.1.03-.1.02-.11.02-.1.01-.11.01h-.11zm-2.11-2.11h.33l.01.09v.09l.01.09.02.09.02.08.02.09.03.08.03.08.04.08.04.08.04.07.05.07.05.07.05.07.06.06.05.07.07.05.06.06.07.05.07.05.07.05.07.04.08.04.08.04.08.03.08.03.09.02.08.02.09.02.09.01h.09l.09.01v.33h-.11l-.11-.01-.1-.01-.11-.02-.1-.02-.1-.03-.1-.03-.09-.04-.1-.04-.09-.05-.09-.05-.08-.06-.08-.06-.08-.06-.08-.07-.07-.07-.07-.07-.07-.08-.06-.08-.06-.08-.06-.08-.05-.09-.05-.09-.04-.1-.03-.09-.04-.1-.03-.1-.02-.1-.02-.11-.01-.1-.01-.11v-.11zm2.11-2.12V54h-.09l-.09.01-.09.01-.09.02-.08.02-.09.02-.08.03-.08.03-.08.04-.08.03-.07.05-.07.04-.07.05-.07.06-.06.05-.07.06-.05.06-.06.07-.05.06-.05.07-.05.08-.04.07-.04.08-.04.08-.03.08-.03.08-.02.09-.02.08-.02.09-.01.09v.09l-.01.09h-.33v-.11l.01-.11.01-.1.02-.11.02-.1.03-.1.04-.1.03-.09.04-.1.05-.09.05-.09.06-.08.06-.09.06-.08.07-.07.07-.08.07-.07.08-.06.08-.07.08-.06.08-.05.09-.05.09-.05.1-.04.09-.04.1-.03.1-.03.1-.02.11-.02.1-.02h.11l.11-.01z" class="fil1"/></g><g><path d="M18.75 56.98c1.07 0 1.94.87 1.94 1.94 0 1.08-.87 1.95-1.94 1.95-1.08 0-1.95-.87-1.95-1.95 0-1.07.87-1.94 1.95-1.94z" class="fil9"/><path id="1" d="M20.86 58.92h-.34v-.09l-.01-.09-.01-.09-.01-.08-.02-.09-.03-.08-.03-.09-.03-.08-.03-.08-.04-.07-.04-.08-.05-.07-.05-.07-.05-.07-.06-.06-.06-.06-.06-.06-.06-.06-.07-.05-.07-.05-.07-.05-.08-.04-.07-.04-.08-.04-.08-.03-.09-.02-.08-.03-.09-.02-.08-.01-.09-.01-.09-.01h-.09v-.34h.1l.11.01.11.01.1.02.1.02.1.03.1.04.1.03.09.05.09.04.09.06.09.05.08.06.08.06.08.07.07.07.07.07.07.08.06.08.06.08.05.09.05.09.05.09.04.09.04.1.03.09.03.11.03.1.02.1.01.11.01.11v.1zm-2.11 2.12v-.34h.09l.09-.01.09-.01.08-.01.09-.02.08-.03.09-.03.08-.03.08-.03.07-.04.08-.04.07-.05.07-.05.07-.05.06-.06.06-.06.06-.06.06-.06.05-.07.05-.07.05-.08.04-.07.04-.08.03-.07.03-.08.03-.09.03-.08.02-.09.01-.08.01-.09.01-.1v-.09h.34v.11l-.01.11-.01.1-.02.11-.03.1-.03.1-.03.1-.04.1-.04.09-.05.09-.05.09-.05.09-.06.08-.06.08-.07.08-.07.07-.07.07-.08.07-.08.06-.08.06-.09.05-.09.05-.09.05-.09.04-.1.04-.1.03-.1.03-.1.02-.1.02-.11.02-.11.01h-.1zm-2.12-2.12h.34v.09l.01.1.01.09.01.08.02.09.03.08.03.09.03.08.03.07.04.08.04.07.05.08.05.07.05.07.06.06.06.06.06.06.06.06.07.05.07.05.07.04.08.05.07.04.08.03.08.03.09.03.08.03.09.02.08.01.09.01.09.01h.1v.34h-.11l-.11-.01-.11-.02-.1-.02-.1-.02-.1-.03-.1-.03-.1-.04-.09-.04-.09-.05-.09-.05-.09-.05-.08-.06-.08-.06-.08-.07-.07-.07-.07-.07-.07-.08-.06-.08-.06-.08-.05-.09-.05-.09-.05-.09-.04-.09-.04-.1-.03-.1-.03-.1-.03-.1-.02-.11-.01-.1-.01-.11v-.11zm2.12-2.11v.34h-.1l-.09.01-.09.01-.08.01-.09.02-.08.03-.09.02-.08.03-.08.04-.07.04-.08.04-.07.05-.07.05-.07.05-.06.06-.06.06-.06.06-.06.06-.05.07-.05.07-.05.07-.04.08-.04.07-.03.08-.03.08-.03.09-.03.08-.02.09-.01.08-.01.09-.01.09v.09h-.34v-.1l.01-.11.01-.11.02-.1.03-.1.03-.11.03-.09.04-.1.04-.09.05-.09.05-.09.05-.09.06-.08.06-.08.07-.08.07-.07.07-.07.08-.07.08-.06.08-.06.09-.06.09-.05.09-.04.09-.05.1-.03.1-.04.1-.03.1-.02.1-.02.11-.01.11-.01h.11z" class="fil1"/></g><g><path d="M22.04 47.39c1.07 0 1.95.87 1.95 1.95 0 1.07-.88 1.95-1.95 1.95-1.08 0-1.95-.88-1.95-1.95 0-1.08.87-1.95 1.95-1.95z" class="fil9"/><path id="1" d="M24.15 49.34h-.33v-.09l-.01-.09-.01-.09-.02-.09-.02-.08-.02-.09-.03-.08-.03-.08-.04-.08-.04-.08-.04-.07-.05-.07-.05-.07-.05-.07-.06-.07-.05-.06-.07-.06-.06-.05-.07-.06-.07-.04-.07-.05-.07-.04-.08-.04-.08-.04-.08-.03-.08-.03-.09-.02-.08-.02-.09-.02-.09-.01-.09-.01h-.09v-.33h.11l.11.01.1.01.11.02.1.02.1.03.1.03.09.04.1.04.09.05.09.05.08.06.08.05.08.07.08.06.07.08.07.07.07.07.06.09.06.08.06.08.05.09.05.09.04.1.04.09.03.1.03.1.02.1.02.11.01.1.01.11v.11zm-2.11 2.11v-.33h.09l.09-.01.09-.01.09-.02.08-.02.09-.02.08-.03.08-.03.08-.04.08-.04.07-.04.07-.05.07-.05.07-.05.06-.05.07-.06.05-.06.06-.07.05-.07.05-.07.05-.07.04-.07.04-.08.04-.08.03-.08.03-.08.02-.09.02-.08.02-.09.01-.09.01-.09v-.09h.33v.11l-.01.11-.01.1-.02.11-.02.1-.03.1-.03.1-.04.09-.04.1-.05.09-.05.09-.06.08-.06.08-.06.08-.07.08-.07.08-.07.06-.08.07-.08.06-.08.06-.08.06-.09.05-.09.05-.1.04-.09.04-.1.03-.1.03-.1.02-.11.02-.1.01-.11.01h-.11zm-2.12-2.11h.34v.09l.01.09.01.09.02.09.02.08.02.09.03.08.03.08.04.08.04.08.04.07.04.07.05.07.06.07.05.07.06.06.06.06.07.05.06.05.07.05.08.05.07.04.08.04.08.04.08.03.08.03.09.02.08.02.09.02.09.01.09.01h.09v.33h-.11l-.11-.01-.1-.01-.11-.02-.1-.02-.1-.03-.1-.03-.09-.04-.1-.04-.09-.05-.09-.05-.08-.06-.09-.06-.08-.06-.07-.07-.08-.06-.07-.08-.06-.08-.07-.08-.06-.08-.05-.08-.05-.09-.05-.09-.04-.1-.04-.09-.03-.1-.03-.1-.02-.1-.02-.11-.01-.1-.01-.11-.01-.11zm2.12-2.11v.33h-.09l-.09.01-.09.01-.09.02-.08.02-.09.02-.08.03-.08.03-.08.04-.08.04-.07.04-.08.05-.06.04-.07.06-.07.05-.06.06-.06.06-.05.07-.06.07-.05.07-.04.07-.04.07-.04.08-.04.08-.03.08-.03.08-.02.09-.02.08-.02.09-.01.09-.01.09v.09h-.34l.01-.11.01-.11.01-.1.02-.11.02-.1.03-.1.03-.1.04-.09.04-.1.05-.09.05-.09.05-.08.06-.09.07-.08.06-.07.07-.07.08-.08.07-.06.08-.07.09-.05.08-.06.09-.05.09-.05.1-.04.09-.04.1-.03.1-.03.1-.02.11-.02.1-.01.11-.01h.11z" class="fil1"/></g><g><path d="M32.22 44.55c1.08 0 1.95.87 1.95 1.94 0 1.08-.87 1.95-1.95 1.95-1.07 0-1.94-.87-1.94-1.95 0-1.07.87-1.94 1.94-1.94z" class="fil9"/><path id="1" d="M34.34 46.49H34v-.09l-.01-.09-.01-.09-.02-.08-.02-.09-.02-.08-.03-.09-.03-.08-.03-.08-.04-.07-.05-.08-.04-.07-.05-.07-.05-.07-.06-.06-.06-.06-.06-.06-.07-.06-.06-.05-.08-.05-.07-.05-.07-.04-.08-.04-.08-.03-.08-.04-.08-.02-.08-.03-.09-.02-.09-.01-.09-.01-.09-.01h-.09v-.34h.11l.11.01.1.01.11.02.1.03.1.02.1.04.1.04.09.04.09.04.09.06.09.05.08.06.08.06.07.07.08.07.07.07.06.08.07.08.06.08.05.09.05.09.05.09.04.09.04.1.03.1.03.1.02.1.02.1.02.11v.11l.01.1zm-2.12 2.12v-.34h.09l.09-.01.09-.01.09-.01.09-.02.08-.03.08-.03.09-.03.07-.03.08-.04.07-.04.08-.05.07-.05.06-.05.07-.06.06-.06.06-.06.06-.06.05-.07.05-.07.04-.07.05-.08.04-.07.03-.08.03-.08.03-.09.02-.08.02-.09.02-.08.01-.09.01-.09v-.1h.34l-.01.11v.11l-.02.11-.02.1-.02.1-.03.1-.03.1-.04.1-.04.09-.05.09-.05.09-.05.09-.06.08-.07.08-.06.08-.07.07-.08.07-.07.07-.08.06-.09.06-.08.05-.09.05-.09.05-.1.04-.09.04-.1.03-.1.03-.1.03-.11.02-.1.01-.11.01h-.11zm-2.11-2.12h.33l.01.1v.09l.01.09.02.08.02.09.02.08.03.09.03.08.04.08.04.07.04.08.05.07.05.07.05.07.06.06.05.06.07.06.06.06.07.05.07.05.07.05.08.04.07.04.08.03.08.03.08.03.09.03.08.02.09.01.09.01.09.01h.09v.34h-.11l-.1-.01-.11-.01-.1-.02-.11-.03-.1-.03-.09-.03-.1-.04-.09-.04-.1-.05-.08-.05-.09-.05-.08-.06-.08-.06-.08-.07-.07-.07-.07-.07-.07-.08-.06-.08-.06-.08-.06-.09-.05-.09-.04-.09-.05-.09-.03-.1-.04-.1-.03-.1-.02-.1-.02-.1-.01-.11-.01-.11v-.11zm2.11-2.11v.34h-.09l-.09.01-.09.01-.09.01-.08.02-.09.03-.08.02-.08.04-.08.03-.08.04-.07.04-.07.05-.07.05-.07.05-.06.06-.07.06-.05.06-.06.06-.05.07-.05.07-.05.07-.04.08-.04.07-.04.08-.03.08-.03.09-.02.08-.02.09-.02.08-.01.09v.09l-.01.09h-.33v-.1l.01-.11.01-.11.02-.1.02-.1.03-.1.04-.1.03-.1.05-.09.04-.09.05-.09.06-.09.06-.08.06-.08.07-.08.07-.07.07-.07.08-.07.08-.06.08-.06.09-.06.08-.05.1-.04.09-.04.1-.04.09-.04.1-.02.11-.03.1-.02.11-.01.1-.01h.11z" class="fil1"/></g><g><path d="M26.53 39.76c1.08 0 1.95.87 1.95 1.94 0 1.08-.87 1.95-1.95 1.95-1.07 0-1.94-.87-1.94-1.95 0-1.07.87-1.94 1.94-1.94z" class="fil9"/><path id="1" d="M28.65 41.7h-.34v-.09l-.01-.09-.01-.09-.02-.08-.02-.09-.02-.09-.03-.08-.03-.08-.03-.08-.04-.07-.05-.08-.04-.07-.05-.07-.06-.07-.05-.06-.06-.06-.06-.06-.07-.06-.06-.05-.07-.05-.08-.05-.07-.04-.08-.04-.08-.04-.08-.03-.08-.02-.08-.03-.09-.02-.09-.01-.09-.02h-.09l-.09-.01v-.33h.11l.11.01.1.01.11.02.1.02.1.03.1.04.09.03.1.05.09.04.09.05.08.06.09.06.08.06.07.07.08.07.07.07.06.08.07.08.06.08.05.09.05.08.05.1.04.09.04.1.03.09.03.1.02.11.02.1.02.11v.1l.01.11zm-2.12 2.12v-.34h.09l.09-.01.09-.01.09-.02.09-.02.08-.02.08-.03.08-.03.08-.03.08-.04.07-.05.08-.04.07-.05.06-.05.07-.06.06-.06.06-.06.05-.07.06-.06.05-.07.04-.08.05-.07.04-.08.03-.07.03-.08.03-.09.02-.08.02-.09.02-.09.01-.09.01-.09v-.09h.34l-.01.11v.11l-.02.1-.02.11-.02.1-.03.1-.03.1-.04.1-.04.09-.05.09-.05.09-.05.08-.06.09-.07.08-.06.07-.07.08-.08.07-.07.06-.08.07-.09.06-.08.05-.09.05-.09.05-.1.04-.09.04-.1.03-.1.03-.1.02-.11.02-.1.02h-.11l-.11.01zm-2.11-2.12h.33l.01.09v.09l.01.09.02.09.02.09.02.08.03.09.03.08.04.07.04.08.04.07.05.08.05.07.05.06.06.07.05.06.07.06.06.06.07.05.07.05.07.04.07.05.08.04.08.03.08.03.08.03.09.02.08.02.09.02.09.01.09.01h.09v.34l-.11-.01h-.1l-.11-.02-.1-.02-.11-.02-.1-.03-.1-.03-.09-.04-.09-.04-.1-.05-.09-.05-.08-.05-.08-.06-.08-.07-.08-.06-.07-.07-.07-.08-.07-.07-.06-.08-.06-.09-.06-.08-.05-.09-.04-.09-.05-.09-.03-.1-.04-.1-.03-.1-.02-.1-.02-.11-.01-.1-.01-.11v-.11zm2.11-2.11v.33l-.09.01h-.09l-.09.02-.09.01-.08.02-.09.03-.08.02-.08.03-.08.04-.08.04-.07.04-.07.05-.07.05-.07.05-.06.06-.07.06-.05.06-.06.06-.05.07-.05.07-.05.07-.04.08-.04.07-.04.08-.03.08-.03.08-.02.09-.02.09-.02.08-.01.09v.09l-.01.09h-.33v-.11l.01-.1.01-.11.02-.1.02-.11.03-.1.04-.09.03-.1.05-.09.04-.1.05-.08.06-.09.06-.08.06-.08.07-.08.07-.07.07-.07.08-.07.08-.06.08-.06.08-.06.09-.05.1-.04.09-.05.09-.03.1-.04.1-.03.11-.02.1-.02.11-.01.1-.01h.11z" class="fil1"/></g><g><path d="M31.32 34.67c1.08 0 1.95.87 1.95 1.94 0 1.08-.87 1.95-1.95 1.95-1.07 0-1.94-.87-1.94-1.95 0-1.07.87-1.94 1.94-1.94z" class="fil9"/><path id="1" d="M33.44 36.61h-.34v-.09l-.01-.09-.01-.09-.01-.09-.02-.08-.03-.09-.03-.08-.03-.08-.03-.08-.04-.08-.05-.07-.04-.07-.05-.07-.05-.07-.06-.06-.06-.07-.06-.05-.06-.06-.07-.05-.07-.05-.08-.05-.07-.04-.08-.04-.07-.04-.08-.03-.09-.03-.08-.02-.09-.02-.08-.02-.1-.01h-.09l-.09-.01v-.33h.11l.11.01.1.01.11.02.1.02.1.03.1.04.1.03.09.05.09.04.09.05.09.06.08.06.08.06.08.07.07.07.07.07.07.08.06.08.06.08.05.08.05.09.05.1.04.09.04.09.03.1.03.1.02.1.02.11.02.11.01.1v.11zm-2.12 2.12v-.34h.09l.09-.01.1-.01.08-.02.09-.02.08-.02.09-.03.08-.03.07-.03.08-.04.07-.05.08-.04.07-.05.07-.06.06-.05.06-.06.06-.06.06-.07.05-.06.05-.07.04-.08.05-.07.04-.08.03-.07.03-.09.03-.08.03-.08.02-.09.01-.09.01-.09.01-.09v-.09h.34v.11l-.01.11-.02.1-.02.11-.02.1-.03.1-.03.1-.04.09-.04.1-.05.09-.05.09-.05.08-.06.09-.06.08-.07.07-.07.08-.07.07-.08.06-.08.07-.08.06-.09.05-.09.05-.09.05-.09.04-.1.04-.1.03-.1.03-.1.02-.11.02-.1.02h-.11l-.11.01zm-2.11-2.12h.33l.01.09.01.09.01.09.01.09.02.09.03.08.02.08.03.09.04.07.04.08.04.07.05.08.05.07.05.06.06.07.06.06.06.06.06.05.07.06.07.05.07.04.08.05.07.04.08.03.08.03.09.03.08.02.09.02.08.02.09.01.09.01h.09v.34l-.11-.01h-.1L31 38.7l-.1-.02-.1-.02-.11-.03-.09-.03-.1-.04-.09-.04-.09-.05-.09-.05-.09-.05-.08-.06-.08-.07-.08-.06-.07-.07-.07-.08-.07-.07-.06-.08-.06-.09-.06-.08-.05-.09-.04-.09-.05-.1-.03-.09-.04-.1-.03-.1-.02-.1-.02-.11-.01-.1-.01-.11v-.11zm2.11-2.11v.33l-.09.01h-.09l-.09.01-.08.02-.09.02-.08.02-.09.03-.08.03-.08.04-.07.04-.08.04-.07.05-.07.05-.07.05-.06.06-.06.05-.06.07-.06.06-.05.07-.05.07-.05.07-.04.07-.04.08-.04.08-.03.08-.02.08-.03.09-.02.08-.01.09-.01.09-.01.09-.01.09h-.33v-.11l.01-.1.01-.11.02-.11.02-.1.03-.1.04-.1.03-.09.05-.09.04-.1.06-.09.05-.08.06-.08.06-.08.07-.08.07-.07.07-.07.08-.07.08-.06.08-.06.09-.06.09-.05.09-.04.09-.05.1-.03.09-.04.11-.03.1-.02.1-.02.11-.01.1-.01h.11z" class="fil1"/></g><g><path d="M35.67 51.74c1.07 0 1.94.87 1.94 1.94 0 1.08-.87 1.95-1.94 1.95-1.08 0-1.95-.87-1.95-1.95 0-1.07.87-1.94 1.95-1.94z" class="fil9"/><path id="1" d="M37.78 53.68h-.34v-.09l-.01-.09-.01-.09-.01-.09-.02-.08-.03-.09-.02-.08-.03-.08-.04-.08-.04-.07-.04-.08-.05-.07-.05-.07-.05-.07-.06-.06-.06-.06-.06-.06-.06-.06-.07-.05-.07-.05-.07-.05-.08-.04-.07-.04-.08-.04-.08-.03-.09-.03-.08-.02-.09-.02-.08-.02-.09-.01h-.09l-.09-.01v-.33h.1l.11.01.11.01.1.02.1.02.11.03.09.04.1.03.09.05.09.04.09.05.09.06.08.06.08.06.08.07.07.07.07.07.07.08.06.08.06.08.06.09.05.08.04.1.05.09.03.1.04.09.03.1.02.11.02.1.01.11.01.1v.11zm-2.11 2.12v-.34h.09l.09-.01.09-.01.08-.02.09-.02.08-.02.09-.03.08-.03.08-.03.07-.04.08-.05.07-.04.07-.05.07-.05.06-.06.06-.06.06-.06.06-.07.05-.06.05-.07.05-.08.04-.07.04-.08.04-.07.03-.09.02-.08.03-.08.02-.09.01-.09.01-.09.01-.09v-.09h.34v.11l-.01.11-.01.1-.02.11-.02.1-.03.1-.04.1-.03.1-.05.09-.04.09-.06.09-.05.08-.06.09-.06.08-.07.07-.07.08-.07.07-.08.06-.08.07-.08.06-.09.05-.09.05-.09.05-.09.04-.1.04-.09.03-.11.03-.1.02-.1.02-.11.02h-.11l-.1.01zm-2.12-2.12h.34v.09l.01.09.01.09.01.09.02.09.03.08.03.08.03.09.03.07.04.08.04.07.05.08.05.07.05.06.06.07.06.06.06.06.06.06.07.05.07.05.08.04.07.05.08.04.07.03.08.03.09.03.08.02.09.02.08.02.09.01.1.01h.09v.34l-.11-.01h-.11l-.1-.02-.11-.02-.1-.02-.1-.03-.1-.03-.1-.04-.09-.04-.09-.05-.09-.05-.09-.05-.08-.06-.08-.07-.08-.06-.07-.07-.07-.08-.07-.07-.06-.08-.06-.09-.05-.08-.05-.09-.05-.09-.04-.09-.04-.1-.03-.1-.03-.1-.02-.1-.02-.11-.02-.1-.01-.11v-.11zm2.12-2.11v.33l-.09.01h-.1l-.09.01-.08.02-.09.02-.08.02-.09.03-.08.03-.07.04-.08.04-.07.04-.08.05-.07.05-.07.05-.06.06-.06.06-.06.06-.06.06-.05.07-.05.07-.04.07-.05.08-.04.07-.03.08-.03.08-.03.08-.03.09-.02.08-.01.09-.01.09-.01.09v.09h-.34v-.11l.01-.1.02-.11.02-.1.02-.11.03-.1.03-.09.04-.1.04-.09.05-.1.05-.08.05-.09.06-.08.06-.08.07-.08.07-.07.07-.07.08-.07.08-.06.08-.06.09-.06.09-.05.09-.04.09-.05.1-.03.1-.04.1-.03.1-.02.11-.02.1-.01.11-.01h.11z" class="fil1"/></g><g><path d="M32.67 59.67c1.08 0 1.95.87 1.95 1.95 0 1.07-.87 1.95-1.95 1.95-1.07 0-1.94-.88-1.94-1.95 0-1.08.87-1.95 1.94-1.95z" class="fil9"/><path id="1" d="M34.79 61.62h-.34v-.09l-.01-.09-.01-.09-.02-.09-.02-.08-.02-.09-.03-.08-.03-.08-.03-.08-.04-.08-.05-.07-.04-.08-.05-.06-.06-.07-.05-.07-.06-.06-.06-.06-.07-.05-.06-.06-.07-.05-.08-.04-.07-.04-.08-.04-.07-.04-.09-.03-.08-.03-.08-.02-.09-.02-.09-.02-.09-.01-.09-.01h-.09v-.34l.11.01h.11l.1.02.11.02.1.02.1.03.1.03.09.04.1.04.09.05.09.05.08.05.09.06.08.07.07.06.08.07.07.08.06.07.07.08.06.09.05.08.05.09.05.09.04.1.04.09.03.1.03.1.02.1.02.11.02.1v.11l.01.11zm-2.12 2.11v-.33h.09l.09-.01.09-.01.09-.02.09-.02.08-.02.08-.03.09-.03.07-.04.08-.04.07-.04.08-.05.07-.05.06-.05.07-.06.06-.05.06-.07.05-.06.06-.07.05-.07.04-.07.05-.07.04-.08.03-.08.03-.08.03-.08.02-.09.02-.08.02-.09.01-.09.01-.09v-.09h.34l-.01.11v.11l-.02.1-.02.11-.02.1-.03.1-.03.1-.04.09-.04.1-.05.09-.05.09-.05.08-.06.08-.07.08-.06.08-.07.07-.08.07-.07.07-.08.06-.09.06-.08.06-.09.05-.09.05-.1.04-.09.04-.1.03-.1.03-.1.02-.11.02-.1.01-.11.01h-.11zm-2.11-2.11h.33l.01.09v.09l.01.09.02.09.02.08.02.09.03.08.03.08.04.08.04.08.04.07.05.07.05.07.05.07.06.06.05.07.07.05.06.06.07.05.07.05.07.05.07.04.08.04.08.04.08.03.08.03.09.02.08.02.09.02.09.01.09.01h.09v.33h-.11l-.1-.01-.11-.01-.11-.02-.1-.02-.1-.03-.1-.03-.09-.04-.09-.04-.1-.05-.09-.05-.08-.06-.08-.06-.08-.06-.08-.07-.07-.07-.07-.07-.07-.08-.06-.08-.06-.08-.06-.08-.05-.09-.04-.09-.05-.1-.03-.09-.04-.1-.03-.1-.02-.1-.02-.11-.01-.1-.01-.11v-.11zm2.11-2.12v.34h-.09l-.09.01-.09.01-.09.02-.08.02-.09.02-.08.03-.08.03-.08.04-.08.04-.07.04-.07.04-.07.05-.07.06-.06.05-.07.06-.05.06-.06.07-.05.06-.05.07-.05.08-.04.07-.04.08-.04.08-.03.08-.03.08-.02.09-.02.08-.02.09-.01.09v.09l-.01.09h-.33v-.11l.01-.11.01-.1.02-.11.02-.1.03-.1.04-.1.03-.09.05-.1.04-.09.05-.09.06-.08.06-.09.06-.08.07-.07.07-.08.07-.07.08-.06.08-.07.08-.06.08-.05.09-.05.1-.05.09-.04.09-.04.1-.03.1-.03.1-.02.11-.02.11-.02h.1l.11-.01z" class="fil1"/></g><g><path d="M42.26 56.68c1.07 0 1.94.87 1.94 1.94 0 1.08-.87 1.95-1.94 1.95-1.08 0-1.95-.87-1.95-1.95 0-1.07.87-1.94 1.95-1.94z" class="fil9"/><path id="1" d="M44.37 58.62h-.34v-.09l-.01-.09-.01-.09-.01-.08-.02-.09-.03-.08-.03-.09-.03-.08-.03-.08-.04-.07-.05-.08-.04-.07-.05-.07-.05-.07-.06-.06-.06-.06-.06-.06-.06-.06-.07-.05-.07-.05-.07-.05-.08-.04-.07-.04-.08-.03-.08-.04-.09-.02-.08-.03-.09-.02-.08-.01-.09-.01-.09-.01h-.09v-.34h.1l.11.01.11.01.1.02.1.03.1.02.1.04.1.04.09.04.09.04.09.06.09.05.08.06.08.06.08.07.07.07.07.07.07.08.06.08.06.08.05.09.05.09.05.09.04.09.04.1.03.1.03.1.03.1.02.1.01.11.01.11v.1zm-2.11 2.12v-.34h.09l.09-.01.09-.01.08-.01.09-.02.08-.03.09-.03.08-.03.08-.03.07-.04.08-.04.07-.05.07-.05.07-.05.06-.06.06-.06.06-.06.06-.06.05-.07.05-.07.05-.07.04-.08.04-.07.03-.08.03-.08.03-.09.03-.08.02-.09.01-.08.01-.09.01-.09v-.1h.34v.11l-.01.11-.01.11-.02.1-.03.1-.03.1-.03.1-.04.1-.04.09-.05.09-.05.09-.05.09-.06.08-.06.08-.07.08-.07.07-.07.07-.08.07-.08.06-.08.06-.09.05-.09.05-.09.05-.09.04-.1.04-.1.03-.1.03-.1.03-.1.02-.11.01-.11.01h-.1zm-2.12-2.12h.34v.1l.01.09.01.09.01.08.02.09.03.08.03.09.03.08.03.08.04.07.04.08.05.07.05.07.05.07.06.06.06.06.06.06.06.06.07.05.07.05.07.04.08.05.07.04.08.03.08.03.09.03.08.03.09.02.08.01.09.01.09.01h.1v.34h-.11l-.11-.01-.11-.01-.1-.02-.1-.03-.1-.03-.1-.03-.1-.04-.09-.04-.09-.05-.09-.05-.09-.05-.08-.06-.08-.06-.08-.07-.07-.07-.07-.07-.07-.08-.06-.08-.06-.08-.05-.09-.06-.09-.04-.09-.04-.09-.04-.1-.03-.1-.03-.1-.03-.1-.02-.1-.01-.11-.01-.11v-.11zm2.12-2.11v.34h-.1l-.09.01-.09.01-.08.01-.09.02-.08.03-.09.02-.08.04-.08.03-.07.04-.08.04-.07.05-.07.05-.07.05-.06.06-.06.06-.06.06-.06.06-.05.07-.05.07-.05.07-.04.08-.04.07-.03.08-.03.08-.03.09-.03.08-.02.09-.01.08-.01.09-.01.09v.09h-.34v-.1l.01-.11.01-.11.02-.1.03-.1.03-.1.03-.1.04-.1.04-.09.04-.09.06-.09.05-.09.06-.08.06-.08.07-.08.07-.07.07-.07.08-.07.08-.06.08-.06.09-.05.09-.06.09-.04.09-.04.1-.04.1-.04.1-.02.1-.03.1-.02.11-.01.11-.01h.11z" class="fil1"/></g><g><path d="M24.5 63.24c1.08 0 1.95.87 1.95 1.94 0 .08 0 .15-.01.22-1.25-.1-2.53-.28-3.85-.55.15-.92.95-1.61 1.91-1.61z" class="fil9"/><path id="1" d="M26.62 65.18h-.34v-.09l-.01-.09-.01-.09-.01-.08-.02-.09-.03-.08-.03-.09-.03-.08-.03-.08-.04-.07-.05-.08-.04-.07-.05-.07-.05-.07-.06-.06-.06-.06-.06-.06-.06-.06-.07-.05-.07-.05-.07-.05-.08-.04-.08-.04-.07-.04-.08-.03-.09-.02-.08-.03-.09-.02-.08-.01-.09-.01-.1-.01-.09-.01v-.33h.11l.11.01.11.01.1.02.1.02.1.03.1.04.1.03.09.05.09.04.09.06.09.05.08.06.08.06.08.07.07.07.07.07.07.08.06.08.06.08.05.09.05.08.05.1.04.09.04.1.03.09.03.11.02.1.02.1.02.11.01.1v.11zm-.19.38l.02-.33-.18.15v-.03l.01-.02v.01-.01.01-.09.01-.08h.34V65.25v-.01.05-.01.03h-.01v-.01.09-.01.03l-.18.15zm.18-.15l-.02.17-.16-.02.18-.15zm-4.19-.59l.33.06-.13-.19.12.02.12.03.13.02.12.02.12.02.12.03.13.02.12.02.12.02.12.02.12.02.12.02.12.02.12.02.12.01.12.02.12.02.12.01.12.02.12.01.12.02.11.01.12.02.12.01.12.01.12.01.12.02.11.01.12.01.12.01.11.01.12.01-.02.33-.12-.01-.12-.01-.12-.01-.12-.01-.12-.01-.12-.01-.12-.01-.12-.02-.11-.01-.12-.01-.12-.02-.12-.01-.12-.02-.13-.01-.12-.02-.12-.02-.12-.01-.12-.02-.12-.02-.12-.02-.12-.02-.13-.02-.12-.02-.12-.02-.12-.02-.13-.02-.12-.02-.12-.03-.13-.02-.12-.02-.12-.03-.13-.02-.13-.2zm.13.2l-.16-.04.03-.16.13.2zm1.95-1.95v.33l-.08.01h-.08l-.08.01-.08.01-.07.02-.08.02-.08.02-.07.03-.07.03-.07.03-.07.03-.07.04-.06.04-.07.04-.06.05-.06.05-.06.05-.05.05-.05.06-.05.06-.05.05-.05.07-.04.06-.04.07-.04.07-.03.06-.03.07-.03.08-.02.07-.03.08-.01.07-.02.08-.33-.06.02-.09.02-.09.03-.09.03-.09.03-.08.04-.09.04-.08.04-.08.05-.08.05-.08.05-.07.06-.07.06-.07.06-.07.07-.06.06-.06.07-.06.08-.05.07-.05.08-.05.08-.04.08-.04.09-.04.08-.04.09-.03.09-.03.09-.02.09-.02.1-.01.09-.01.1-.01h.09z" class="fil1"/></g><g><path d="M27.27 33.3c-.11.97-.93 1.72-1.93 1.72-.19 0-.37-.03-.54-.08.19-.62.37-1.24.54-1.87.71.09 1.34.18 1.93.23z" class="fil9"/><path id="1" d="M25.34 35.19v-.34h.09l.08-.01.08-.01.08-.01.09-.02.07-.02.08-.02.08-.03.07-.03.07-.04.07-.03.07-.04.07-.04.06-.05.07-.05.06-.05.06-.06.05-.05.05-.06.05-.06.05-.07.05-.06.04-.07.04-.07.03-.07.03-.07.03-.08.03-.08.02-.08.02-.08.02-.08.01-.08.33.04-.01.1-.02.09-.02.1-.03.09-.03.09-.04.09-.03.09-.05.09-.04.08-.05.08-.06.08-.05.07-.06.08-.06.07-.07.06-.07.07-.07.06-.07.06-.08.05-.08.05-.08.05-.09.05-.08.04-.09.03-.09.04-.09.03-.1.02-.09.02-.1.02-.1.01-.1.01h-.1zm-.7-.29l.32.09-.11-.21.02.01h.02l.02.01h.01l.02.01h.03l.01.01h.05l.01.01h.05l.02.01h.07l.02.01H25.34v.34h-.11l-.02-.01h-.09l-.03-.01h-.05l-.02-.01h-.03l-.03-.01h-.02l-.03-.01h-.03l-.02-.01h-.02l-.01-.01h-.04l-.02-.01h-.02l-.11-.21zm.11.21l-.16-.05.05-.16.11.21zm.61-2.2l-.04.33.18-.12-.01.06-.02.06-.02.05-.01.06-.02.06-.01.06-.02.06-.02.06-.01.06-.02.06-.02.05-.01.06-.02.06-.02.06-.02.06-.01.06-.02.06-.02.05-.01.06-.02.06-.02.06-.01.06-.02.06-.02.06-.02.05-.01.06-.02.06-.02.06-.01.06-.02.06-.02.05-.02.06-.32-.09.02-.06.02-.06.01-.06.02-.06.02-.06.01-.05.02-.06.02-.06.02-.06.01-.06.02-.05.02-.06.01-.06.02-.06.02-.06.01-.05.02-.06.02-.06.01-.06.02-.06.02-.06.01-.06.02-.06.02-.05.01-.06.02-.06.02-.06.01-.06.02-.05.02-.07.01-.05.02-.06.18-.12zm-.18.12l.04-.14.14.02-.18.12zm2.26.29l-.33-.04.15.19-.06-.01h-.06l-.05-.01h-.06l-.05-.01-.06-.01h-.06l-.06-.01-.05-.01h-.06l-.06-.01-.06-.01h-.06l-.06-.01-.06-.01h-.06l-.06-.01-.06-.01-.06-.01h-.06l-.06-.01-.07-.01-.06-.01h-.06l-.07-.01-.06-.01-.06-.01-.07-.01-.06-.01h-.07l-.06-.01-.07-.01.04-.33h.07l.06.01.07.01.06.01.07.01.06.01h.07l.06.01.06.01.06.01.07.01h.06l.06.01.06.01.06.01h.06l.06.01.06.01h.06l.06.01.06.01.05.01h.06l.06.01h.06l.05.01h.06l.06.01.05.01h.06l.05.01h.06l.15.19zm-.15-.19l.17.02-.02.17-.15-.19z" class="fil1"/></g></g></svg>