<?xml version="1.0" encoding="UTF-8"?>
<!DOCTYPE svg PUBLIC "-//W3C//DTD SVG 1.1//EN" "http://www.w3.org/Graphics/SVG/1.1/DTD/svg11.dtd">
<!-- Creator: CorelDRAW 2018 (64-Bit) -->
<svg xmlns="http://www.w3.org/2000/svg" xml:space="preserve" width="110px" height="63px" version="1.1" style="shape-rendering:geometricPrecision; text-rendering:geometricPrecision; image-rendering:optimizeQuality; fill-rule:evenodd; clip-rule:evenodd"
viewBox="0 0 109.91 62.4"
 xmlns:xlink="http://www.w3.org/1999/xlink">
 <defs>
  <style type="text/css">
   <![CDATA[
    .fil8 {fill:#FEFEFE}
    .fil3 {fill:#F5B2B6}
    .fil2 {fill:#F08BB2}
    .fil6 {fill:#C5E3D7}
    .fil4 {fill:#C4D985}
    .fil5 {fill:#A1B567}
    .fil7 {fill:#6FA691}
    .fil0 {fill:#99CFBA}
    .fil1 {fill:#2B2A29;fill-rule:nonzero}
   ]]>
  </style>
 </defs>
 <g id="Слой_x0020_1">
  <metadata id="CorelCorpID_0Corel-Layer"/>
  <g>
   <path class="fil0" d="M3.43 38.28l57.11 -36.95c0.85,-0.55 1.05,-0.53 1.58,-0.23l1.21 0.69c0.87,0.5 0.58,0.79 0.05,1.17l-56.77 39.63c-0.82,0.58 -1.26,0.44 -1.98,-0.27l-1.89 -1.88c-0.72,-0.71 -0.16,-1.61 0.69,-2.16z"/>
   <path id="1" class="fil1" d="M60.64 1.47l-57.12 36.95 -0.19 -0.28 57.12 -36.95 0 0 0.19 0.28zm1.56 -0.52l-0.17 0.3 0 0 -0.04 -0.03 -0.05 -0.02 -0.04 -0.03 -0.04 -0.02 -0.04 -0.01 -0.04 -0.02 -0.03 -0.01 -0.03 -0.02 -0.04 -0.01 -0.03 0 -0.03 -0.01 -0.03 -0.01 -0.03 0 -0.03 0 -0.03 0 -0.03 0.01 -0.03 0 -0.04 0.01 -0.03 0.01 -0.04 0.01 -0.04 0.01 -0.05 0.02 -0.04 0.02 -0.05 0.02 -0.06 0.03 -0.05 0.03 -0.06 0.03 -0.06 0.04 -0.07 0.03 -0.06 0.05 -0.08 0.04 -0.07 0.05 -0.19 -0.28 0.08 -0.05 0.08 -0.05 0.07 -0.04 0.07 -0.05 0.07 -0.03 0.06 -0.04 0.06 -0.03 0.06 -0.03 0.06 -0.03 0.05 -0.02 0.06 -0.02 0.05 -0.02 0.06 -0.02 0.05 -0.01 0.05 -0.01 0.05 -0.01 0.05 0 0.05 0 0.05 0 0.05 0 0.05 0.01 0.05 0.01 0.04 0.01 0.05 0.01 0.05 0.02 0.04 0.02 0.05 0.02 0.05 0.02 0.04 0.02 0.05 0.03 0.05 0.03 0.05 0.02 0 0zm1.05 0.99l-1.22 -0.69 0.17 -0.3 1.21 0.7 -0.16 0.29 0 0zm0.22 1.15l-0.19 -0.27 0 0 0.05 -0.04 0.04 -0.03 0.05 -0.03 0.04 -0.03 0.04 -0.04 0.04 -0.03 0.03 -0.03 0.03 -0.02 0.03 -0.03 0.02 -0.03 0.02 -0.02 0.02 -0.03 0.01 -0.02 0.01 -0.02 0 -0.01 0.01 -0.02 0 -0.01 0 -0.01 -0.01 -0.02 0 -0.01 -0.01 -0.02 -0.01 -0.03 -0.02 -0.02 -0.02 -0.03 -0.02 -0.03 -0.04 -0.03 -0.04 -0.04 -0.04 -0.03 -0.06 -0.04 -0.06 -0.04 -0.07 -0.05 -0.07 -0.04 0.16 -0.29 0.09 0.04 0.07 0.05 0.07 0.05 0.07 0.05 0.06 0.04 0.05 0.05 0.05 0.04 0.04 0.05 0.04 0.05 0.03 0.05 0.03 0.05 0.02 0.06 0.01 0.05 0.01 0.06 0 0.05 0 0.06 -0.01 0.05 -0.02 0.05 -0.02 0.05 -0.03 0.04 -0.03 0.05 -0.03 0.04 -0.04 0.04 -0.04 0.04 -0.03 0.03 -0.05 0.04 -0.04 0.04 -0.04 0.03 -0.05 0.04 -0.05 0.03 -0.05 0.04 -0.05 0.03 0 0zm-56.95 39.36l56.76 -39.63 0.19 0.27 -56.76 39.64 0 0 -0.19 -0.28zm-2 -0.01l0.23 -0.24 0 0 0.07 0.06 0.06 0.06 0.06 0.06 0.06 0.05 0.06 0.05 0.06 0.05 0.05 0.04 0.05 0.03 0.06 0.04 0.04 0.03 0.06 0.02 0.04 0.03 0.05 0.01 0.05 0.02 0.04 0.01 0.05 0.01 0.04 0.01 0.05 0 0.05 0 0.05 0 0.05 -0.01 0.04 -0.01 0.06 -0.01 0.05 -0.02 0.06 -0.02 0.06 -0.02 0.05 -0.03 0.07 -0.03 0.06 -0.04 0.07 -0.04 0.07 -0.05 0.08 -0.05 0.19 0.28 -0.08 0.05 -0.08 0.05 -0.08 0.05 -0.07 0.04 -0.07 0.04 -0.08 0.04 -0.07 0.02 -0.07 0.03 -0.07 0.02 -0.07 0.02 -0.07 0.02 -0.07 0 -0.07 0.01 -0.07 0 -0.07 -0.01 -0.07 -0.01 -0.07 -0.01 -0.06 -0.02 -0.06 -0.02 -0.07 -0.03 -0.07 -0.03 -0.06 -0.03 -0.06 -0.04 -0.06 -0.04 -0.07 -0.04 -0.06 -0.05 -0.07 -0.05 -0.06 -0.05 -0.06 -0.06 -0.07 -0.06 -0.07 -0.06 -0.06 -0.07 0 0zm-1.66 -2.12l1.89 1.88 -0.23 0.24 -1.9 -1.88 0 0 0.24 -0.24zm0.47 -2.18l0.19 0.28 0 0 -0.08 0.05 -0.07 0.05 -0.07 0.05 -0.07 0.06 -0.06 0.06 -0.07 0.05 -0.06 0.06 -0.05 0.06 -0.06 0.06 -0.05 0.06 -0.05 0.07 -0.04 0.06 -0.04 0.06 -0.04 0.06 -0.03 0.07 -0.03 0.06 -0.02 0.06 -0.02 0.06 -0.01 0.07 -0.02 0.06 0 0.06 0 0.06 0 0.06 0.01 0.06 0.01 0.06 0.02 0.05 0.03 0.06 0.02 0.06 0.04 0.06 0.04 0.06 0.05 0.06 0.06 0.06 -0.24 0.24 -0.07 -0.08 -0.07 -0.08 -0.05 -0.07 -0.05 -0.09 -0.04 -0.08 -0.04 -0.08 -0.02 -0.09 -0.02 -0.08 -0.01 -0.09 -0.01 -0.09 0 -0.08 0.01 -0.09 0.02 -0.08 0.01 -0.08 0.03 -0.09 0.03 -0.08 0.04 -0.08 0.04 -0.08 0.04 -0.07 0.05 -0.08 0.05 -0.07 0.06 -0.08 0.06 -0.07 0.06 -0.07 0.06 -0.07 0.07 -0.06 0.07 -0.07 0.08 -0.06 0.07 -0.06 0.08 -0.06 0.08 -0.06 0.08 -0.05 0 0z"/>
  </g>
  <g>
   <path class="fil0" d="M19.49 52.71l53.09 -45.22c0.76,-0.65 1.04,-0.53 1.57,-0.23l1.21 0.7c0.88,0.49 0.53,0.72 0.05,1.16l-52.74 47.9c-0.74,0.68 -1.26,0.44 -1.98,-0.27l-1.89 -1.88c-0.72,-0.71 -0.08,-1.5 0.69,-2.16z"/>
   <path id="1" class="fil1" d="M72.69 7.62l-53.09 45.22 -0.22 -0.26 53.09 -45.22 0.22 0.26zm1.54 -0.5l-0.16 0.29 0 0 -0.05 -0.03 -0.05 -0.02 -0.04 -0.03 -0.05 -0.02 -0.04 -0.02 -0.04 -0.02 -0.04 -0.02 -0.03 -0.01 -0.04 -0.02 -0.03 -0.01 -0.04 -0.01 -0.03 0 -0.03 -0.01 -0.03 0 -0.04 0 -0.02 0 -0.04 0 -0.03 0.01 -0.04 0 -0.04 0.01 -0.03 0.02 -0.05 0.01 -0.04 0.02 -0.05 0.03 -0.05 0.02 -0.05 0.03 -0.05 0.04 -0.06 0.04 -0.06 0.04 -0.06 0.05 -0.06 0.05 -0.07 0.06 -0.22 -0.26 0.07 -0.06 0.07 -0.05 0.07 -0.06 0.07 -0.04 0.06 -0.05 0.06 -0.04 0.06 -0.04 0.06 -0.03 0.06 -0.03 0.06 -0.03 0.06 -0.02 0.05 -0.02 0.06 -0.01 0.06 -0.02 0.05 0 0.05 -0.01 0.06 0 0.05 0 0.05 0.01 0.06 0.01 0.04 0.01 0.05 0.01 0.05 0.02 0.05 0.01 0.05 0.02 0.05 0.02 0.04 0.03 0.05 0.02 0.05 0.03 0.04 0.02 0.05 0.03 0.05 0.03 0 0zm1.05 0.98l-1.21 -0.69 0.16 -0.29 1.22 0.69 -0.17 0.29 0 0zm0.24 1.14l-0.23 -0.25 0 0 0.05 -0.04 0.05 -0.04 0.04 -0.04 0.04 -0.03 0.04 -0.04 0.03 -0.03 0.04 -0.03 0.03 -0.04 0.03 -0.03 0.02 -0.02 0.02 -0.03 0.02 -0.03 0.01 -0.02 0.01 -0.01 0.01 -0.02 0 -0.02 0 -0.01 0 -0.01 0 -0.01 0 -0.01 -0.01 -0.02 -0.01 -0.02 -0.01 -0.02 -0.02 -0.03 -0.03 -0.02 -0.03 -0.04 -0.04 -0.03 -0.05 -0.03 -0.05 -0.04 -0.06 -0.04 -0.07 -0.04 -0.07 -0.05 0.17 -0.29 0.08 0.05 0.07 0.04 0.07 0.05 0.07 0.05 0.05 0.04 0.06 0.04 0.04 0.05 0.05 0.05 0.03 0.04 0.03 0.05 0.03 0.05 0.02 0.06 0.01 0.05 0.01 0.06 0 0.05 -0.01 0.05 -0.01 0.05 -0.02 0.05 -0.03 0.05 -0.02 0.04 -0.03 0.04 -0.03 0.04 -0.04 0.04 -0.03 0.04 -0.04 0.03 -0.03 0.04 -0.04 0.04 -0.05 0.04 -0.04 0.03 -0.04 0.04 -0.04 0.04 -0.05 0.04 0 0zm-52.96 47.66l52.73 -47.91 0.23 0.25 -52.74 47.91 0 0 -0.22 -0.25zm-1.99 -0.03l0.24 -0.24 0 0 0.07 0.07 0.06 0.06 0.06 0.06 0.06 0.05 0.06 0.05 0.06 0.05 0.06 0.04 0.06 0.04 0.05 0.04 0.05 0.03 0.06 0.03 0.05 0.03 0.05 0.02 0.05 0.02 0.05 0.01 0.04 0.01 0.05 0.01 0.05 0.01 0.05 0 0.04 -0.01 0.05 0 0.05 -0.01 0.05 -0.01 0.05 -0.02 0.05 -0.02 0.06 -0.03 0.05 -0.03 0.06 -0.04 0.06 -0.04 0.06 -0.04 0.06 -0.05 0.07 -0.06 0.22 0.25 -0.07 0.06 -0.07 0.06 -0.07 0.06 -0.08 0.05 -0.07 0.04 -0.07 0.04 -0.07 0.04 -0.07 0.02 -0.07 0.03 -0.08 0.02 -0.07 0.01 -0.07 0.01 -0.07 0 -0.07 0 -0.07 0 -0.07 -0.02 -0.07 -0.01 -0.07 -0.02 -0.07 -0.03 -0.06 -0.03 -0.07 -0.03 -0.07 -0.04 -0.06 -0.04 -0.07 -0.04 -0.06 -0.05 -0.07 -0.05 -0.06 -0.05 -0.07 -0.06 -0.06 -0.05 -0.07 -0.06 -0.07 -0.07 -0.07 -0.07 0 0zm-1.66 -2.12l1.9 1.88 -0.24 0.24 -1.89 -1.88 0.23 -0.24zm0.47 -2.17l0.22 0.26 0 0 -0.08 0.06 -0.06 0.06 -0.07 0.06 -0.07 0.07 -0.06 0.06 -0.06 0.06 -0.06 0.06 -0.06 0.07 -0.05 0.06 -0.06 0.06 -0.04 0.07 -0.05 0.06 -0.04 0.06 -0.04 0.07 -0.03 0.06 -0.03 0.06 -0.03 0.06 -0.02 0.06 -0.01 0.06 -0.02 0.06 0 0.05 -0.01 0.06 0 0.05 0.01 0.06 0.01 0.05 0.02 0.06 0.02 0.05 0.03 0.06 0.03 0.06 0.04 0.05 0.05 0.06 0.05 0.06 -0.23 0.24 -0.07 -0.08 -0.07 -0.07 -0.05 -0.08 -0.05 -0.08 -0.04 -0.08 -0.03 -0.08 -0.03 -0.09 -0.01 -0.08 -0.01 -0.08 0 -0.09 0 -0.08 0.01 -0.08 0.02 -0.08 0.02 -0.08 0.03 -0.08 0.03 -0.08 0.04 -0.08 0.04 -0.07 0.04 -0.08 0.05 -0.07 0.06 -0.07 0.05 -0.07 0.06 -0.08 0.06 -0.07 0.06 -0.07 0.06 -0.06 0.07 -0.07 0.07 -0.07 0.07 -0.06 0.07 -0.07 0.07 -0.06 0.08 -0.07 0 0z"/>
  </g>
  <g>
   <path class="fil2" d="M10.83 24.67l32.02 28.26c0.97,0.86 0.8,2.17 -0.11,3.11l-5.39 5.55c-0.92,0.93 -2.64,0.81 -3.57,-0.1l-32.88 -32.02c-0.93,-0.9 -1.06,-2.51 0.11,-3.11l6.1 -3.14c1.55,-0.8 2.75,0.59 3.72,1.45z"/>
   <path id="1" class="fil1" d="M42.74 53.06l-32.02 -28.27 0.23 -0.25 32.01 28.27 -0.22 0.25zm0.12 3.1l-0.24 -0.24 0 0 0.08 -0.08 0.07 -0.09 0.07 -0.09 0.07 -0.09 0.06 -0.09 0.06 -0.09 0.05 -0.09 0.05 -0.1 0.04 -0.09 0.04 -0.09 0.03 -0.1 0.03 -0.09 0.02 -0.1 0.02 -0.1 0.02 -0.09 0.01 -0.09 0 -0.1 0 -0.09 -0.01 -0.1 -0.01 -0.09 -0.02 -0.09 -0.02 -0.09 -0.03 -0.09 -0.03 -0.09 -0.04 -0.09 -0.05 -0.08 -0.05 -0.09 -0.05 -0.08 -0.06 -0.08 -0.07 -0.08 -0.08 -0.08 -0.08 -0.07 0.22 -0.25 0.1 0.08 0.09 0.09 0.08 0.1 0.07 0.09 0.07 0.1 0.06 0.1 0.05 0.11 0.05 0.1 0.04 0.11 0.03 0.11 0.03 0.11 0.02 0.11 0.02 0.11 0 0.11 0.01 0.11 -0.01 0.12 -0.01 0.11 -0.01 0.11 -0.03 0.11 -0.02 0.11 -0.04 0.11 -0.04 0.12 -0.04 0.1 -0.05 0.11 -0.05 0.11 -0.06 0.1 -0.06 0.11 -0.07 0.1 -0.08 0.1 -0.08 0.1 -0.08 0.09 -0.09 0.1 0 0zm-5.63 5.31l5.39 -5.55 0.24 0.24 -5.39 5.54 -0.24 -0.23zm-3.57 0.15l0.23 -0.25 0 0 0.09 0.08 0.08 0.07 0.1 0.07 0.09 0.07 0.1 0.05 0.1 0.06 0.1 0.05 0.11 0.04 0.11 0.05 0.11 0.03 0.11 0.04 0.12 0.02 0.11 0.03 0.12 0.01 0.12 0.01 0.11 0.01 0.12 0.01 0.12 -0.01 0.11 -0.01 0.12 -0.01 0.11 -0.02 0.11 -0.02 0.11 -0.03 0.11 -0.03 0.1 -0.04 0.1 -0.05 0.1 -0.05 0.1 -0.06 0.09 -0.06 0.09 -0.06 0.09 -0.07 0.08 -0.08 0.24 0.23 -0.1 0.1 -0.1 0.08 -0.1 0.08 -0.11 0.07 -0.11 0.07 -0.12 0.06 -0.12 0.05 -0.12 0.04 -0.12 0.04 -0.13 0.04 -0.13 0.02 -0.13 0.02 -0.13 0.02 -0.13 0.01 -0.13 0 -0.13 0 -0.13 -0.01 -0.13 -0.01 -0.13 -0.02 -0.13 -0.03 -0.13 -0.03 -0.13 -0.03 -0.12 -0.04 -0.13 -0.05 -0.12 -0.05 -0.11 -0.06 -0.12 -0.06 -0.11 -0.07 -0.11 -0.08 -0.1 -0.07 -0.1 -0.09 -0.1 -0.08 0 0zm-32.64 -32.27l32.87 32.02 -0.23 0.25 -32.88 -32.03 0 0 0.24 -0.24zm-0.09 -3.14l0.16 0.3 0 0 -0.1 0.05 -0.09 0.06 -0.08 0.07 -0.07 0.06 -0.07 0.07 -0.06 0.08 -0.05 0.07 -0.05 0.08 -0.05 0.09 -0.03 0.09 -0.03 0.09 -0.03 0.09 -0.02 0.09 -0.01 0.1 -0.01 0.1 0 0.1 0 0.1 0.01 0.11 0.01 0.1 0.02 0.1 0.03 0.11 0.03 0.1 0.03 0.1 0.04 0.1 0.05 0.1 0.05 0.1 0.06 0.09 0.06 0.1 0.06 0.09 0.07 0.09 0.08 0.08 0.08 0.08 -0.24 0.24 -0.09 -0.09 -0.09 -0.1 -0.08 -0.1 -0.07 -0.1 -0.07 -0.11 -0.06 -0.11 -0.06 -0.11 -0.06 -0.11 -0.04 -0.12 -0.04 -0.12 -0.04 -0.12 -0.03 -0.12 -0.02 -0.12 -0.02 -0.12 -0.01 -0.12 0 -0.12 0 -0.12 0.01 -0.12 0.02 -0.11 0.02 -0.12 0.03 -0.11 0.04 -0.11 0.05 -0.11 0.05 -0.11 0.06 -0.1 0.07 -0.1 0.08 -0.09 0.08 -0.09 0.1 -0.08 0.1 -0.08 0.11 -0.07 0.11 -0.07 0 0zm6.26 -2.84l-6.1 3.14 -0.16 -0.3 6.11 -3.14 0 0 0.15 0.3zm3.76 1.17l-0.23 0.25 0 0 -0.09 -0.08 -0.09 -0.08 -0.1 -0.09 -0.1 -0.09 -0.09 -0.09 -0.1 -0.09 -0.1 -0.09 -0.1 -0.09 -0.1 -0.08 -0.1 -0.09 -0.11 -0.08 -0.1 -0.08 -0.11 -0.08 -0.11 -0.08 -0.1 -0.07 -0.11 -0.06 -0.11 -0.06 -0.11 -0.06 -0.12 -0.05 -0.11 -0.04 -0.11 -0.04 -0.12 -0.03 -0.12 -0.02 -0.11 -0.02 -0.12 0 -0.12 0 -0.12 0.01 -0.13 0.02 -0.12 0.03 -0.13 0.04 -0.13 0.05 -0.14 0.07 -0.15 -0.3 0.15 -0.08 0.15 -0.06 0.16 -0.04 0.15 -0.04 0.14 -0.02 0.15 -0.02 0.15 0 0.14 0.01 0.14 0.02 0.13 0.02 0.14 0.04 0.13 0.04 0.13 0.05 0.13 0.06 0.12 0.06 0.13 0.07 0.11 0.07 0.12 0.07 0.12 0.08 0.11 0.09 0.11 0.08 0.11 0.09 0.11 0.09 0.1 0.09 0.11 0.09 0.1 0.09 0.1 0.09 0.09 0.09 0.1 0.09 0.09 0.09 0.1 0.08 0.09 0.08 0 0z"/>
  </g>
  <g>
   <path class="fil3" d="M22.09 19.28l28.95 23.37c0.91,0.74 0.72,1.97 -0.1,2.81l-4.3 4.42c-0.83,0.85 -2.34,0.69 -3.23,-0.08l-30.28 -26.42c-0.88,-0.77 -0.96,-2.03 0.09,-2.57l5.51 -2.84c1.4,-0.72 2.45,0.57 3.36,1.31z"/>
   <path id="1" class="fil1" d="M50.93 42.79l-28.94 -23.38 0.21 -0.26 28.94 23.37 -0.21 0.27zm0.13 2.79l-0.24 -0.24 0 0 0.07 -0.07 0.07 -0.08 0.06 -0.08 0.06 -0.08 0.05 -0.08 0.06 -0.08 0.04 -0.09 0.05 -0.08 0.04 -0.09 0.03 -0.09 0.03 -0.08 0.03 -0.09 0.02 -0.09 0.02 -0.08 0.01 -0.09 0.01 -0.09 0 -0.08 0 -0.09 0 -0.08 -0.01 -0.08 -0.02 -0.08 -0.02 -0.08 -0.02 -0.08 -0.03 -0.08 -0.04 -0.08 -0.04 -0.07 -0.04 -0.08 -0.06 -0.07 -0.05 -0.07 -0.07 -0.06 -0.06 -0.07 -0.08 -0.06 0.21 -0.27 0.09 0.08 0.09 0.08 0.07 0.08 0.07 0.09 0.07 0.09 0.05 0.09 0.05 0.09 0.05 0.1 0.03 0.1 0.04 0.1 0.02 0.1 0.02 0.1 0.01 0.1 0.01 0.1 0 0.11 0 0.1 -0.01 0.1 -0.02 0.11 -0.02 0.1 -0.03 0.1 -0.03 0.1 -0.03 0.1 -0.04 0.1 -0.05 0.1 -0.05 0.1 -0.05 0.1 -0.06 0.09 -0.07 0.1 -0.06 0.09 -0.08 0.09 -0.07 0.08 -0.08 0.09 0 0zm-4.54 4.18l4.3 -4.42 0.24 0.24 -4.3 4.42 -0.24 -0.24zm-3.22 0.17l0.22 -0.26 0 0 0.08 0.07 0.09 0.06 0.08 0.06 0.09 0.05 0.09 0.05 0.09 0.05 0.1 0.05 0.1 0.04 0.1 0.04 0.1 0.03 0.1 0.03 0.1 0.02 0.1 0.02 0.11 0.02 0.1 0.01 0.11 0.01 0.1 0 0.1 0 0.11 -0.01 0.1 -0.01 0.1 -0.01 0.09 -0.02 0.1 -0.03 0.1 -0.03 0.09 -0.03 0.09 -0.04 0.08 -0.04 0.09 -0.05 0.08 -0.05 0.08 -0.06 0.08 -0.07 0.07 -0.07 0.24 0.24 -0.09 0.08 -0.09 0.08 -0.09 0.07 -0.1 0.07 -0.1 0.05 -0.11 0.06 -0.11 0.04 -0.11 0.04 -0.11 0.04 -0.11 0.03 -0.11 0.02 -0.12 0.02 -0.12 0.01 -0.12 0.01 -0.11 0 -0.12 -0.01 -0.12 0 -0.12 -0.02 -0.12 -0.02 -0.11 -0.02 -0.12 -0.03 -0.11 -0.03 -0.12 -0.04 -0.11 -0.04 -0.11 -0.04 -0.11 -0.05 -0.1 -0.06 -0.1 -0.06 -0.1 -0.06 -0.1 -0.07 -0.1 -0.07 -0.09 -0.07 0 0zm-30.06 -26.68l30.28 26.42 -0.22 0.26 -30.28 -26.43 0 0 0.22 -0.25zm-0.1 -2.59l0.16 0.3 0 0 -0.09 0.04 -0.08 0.05 -0.07 0.06 -0.07 0.05 -0.06 0.06 -0.05 0.07 -0.05 0.06 -0.05 0.07 -0.04 0.06 -0.03 0.07 -0.03 0.08 -0.02 0.07 -0.02 0.07 -0.01 0.08 -0.01 0.08 0 0.08 0 0.07 0.01 0.08 0.01 0.09 0.02 0.08 0.02 0.08 0.03 0.08 0.03 0.08 0.04 0.08 0.04 0.08 0.05 0.08 0.05 0.08 0.06 0.08 0.05 0.07 0.07 0.07 0.07 0.07 0.07 0.07 -0.22 0.25 -0.08 -0.08 -0.08 -0.08 -0.08 -0.08 -0.07 -0.09 -0.07 -0.09 -0.06 -0.09 -0.05 -0.09 -0.05 -0.1 -0.05 -0.09 -0.04 -0.1 -0.03 -0.1 -0.03 -0.1 -0.02 -0.1 -0.01 -0.1 -0.01 -0.1 -0.01 -0.11 0.01 -0.09 0.01 -0.1 0.01 -0.1 0.02 -0.1 0.04 -0.1 0.03 -0.09 0.04 -0.09 0.05 -0.09 0.06 -0.09 0.07 -0.08 0.07 -0.08 0.07 -0.07 0.09 -0.08 0.09 -0.06 0.1 -0.07 0.1 -0.05 0 0zm5.67 -2.54l-5.51 2.84 -0.16 -0.3 5.52 -2.84 0 0 0.15 0.3zm3.39 1.03l-0.21 0.26 0 0 -0.09 -0.07 -0.09 -0.08 -0.09 -0.08 -0.09 -0.07 -0.09 -0.08 -0.09 -0.08 -0.09 -0.08 -0.09 -0.08 -0.09 -0.08 -0.1 -0.08 -0.09 -0.07 -0.09 -0.08 -0.1 -0.07 -0.1 -0.06 -0.09 -0.07 -0.1 -0.06 -0.1 -0.05 -0.1 -0.05 -0.1 -0.05 -0.1 -0.04 -0.1 -0.04 -0.1 -0.02 -0.1 -0.02 -0.11 -0.02 -0.1 0 -0.11 0 -0.11 0 -0.11 0.02 -0.11 0.03 -0.11 0.03 -0.12 0.05 -0.12 0.06 -0.15 -0.3 0.14 -0.07 0.13 -0.05 0.14 -0.05 0.14 -0.03 0.13 -0.02 0.14 -0.01 0.13 0 0.13 0.01 0.12 0.01 0.13 0.03 0.12 0.03 0.12 0.04 0.11 0.05 0.12 0.05 0.11 0.06 0.11 0.06 0.11 0.07 0.1 0.07 0.11 0.07 0.1 0.07 0.1 0.08 0.1 0.08 0.09 0.08 0.1 0.08 0.09 0.08 0.09 0.08 0.1 0.08 0.08 0.08 0.09 0.08 0.09 0.07 0.08 0.08 0.09 0.07 0 0z"/>
  </g>
  <g>
   <path class="fil4" d="M31.75 14.76l26.37 19.34c0.94,0.7 0.72,1.97 -0.1,2.81l-3.34 3.43c-0.82,0.85 -2.3,0.64 -3.22,-0.08l-27.73 -21.81c-0.92,-0.73 -0.96,-2.02 0.09,-2.57l4.57 -2.43c1.39,-0.74 2.42,0.62 3.36,1.31z"/>
   <path id="1" class="fil1" d="M58.02 34.24l-26.37 -19.34 0.2 -0.28 26.37 19.35 -0.2 0.27zm0.12 2.79l-0.24 -0.24 0 0 0.07 -0.07 0.07 -0.08 0.06 -0.08 0.06 -0.08 0.06 -0.08 0.05 -0.09 0.05 -0.08 0.04 -0.09 0.04 -0.09 0.04 -0.08 0.03 -0.09 0.03 -0.09 0.02 -0.09 0.02 -0.09 0.01 -0.09 0.01 -0.08 0.01 -0.09 0 -0.08 -0.01 -0.09 -0.01 -0.08 -0.01 -0.08 -0.02 -0.08 -0.03 -0.08 -0.03 -0.08 -0.03 -0.07 -0.05 -0.07 -0.04 -0.08 -0.05 -0.06 -0.06 -0.07 -0.06 -0.07 -0.08 -0.06 -0.07 -0.06 0.2 -0.27 0.09 0.07 0.09 0.08 0.08 0.08 0.07 0.08 0.06 0.09 0.06 0.09 0.05 0.09 0.05 0.1 0.04 0.1 0.03 0.1 0.03 0.1 0.01 0.1 0.02 0.1 0 0.11 0 0.1 0 0.1 -0.01 0.11 -0.02 0.1 -0.02 0.11 -0.03 0.1 -0.03 0.1 -0.04 0.11 -0.04 0.1 -0.04 0.1 -0.06 0.1 -0.05 0.09 -0.06 0.1 -0.07 0.09 -0.06 0.1 -0.08 0.09 -0.07 0.08 -0.08 0.09 0 0zm-3.58 3.2l3.34 -3.44 0.24 0.24 -3.34 3.43 0 0 -0.24 -0.23zm-3.21 0.16l0.21 -0.26 0 0 0.08 0.06 0.09 0.06 0.09 0.06 0.09 0.05 0.09 0.05 0.1 0.05 0.09 0.04 0.1 0.04 0.1 0.04 0.11 0.03 0.1 0.03 0.1 0.02 0.1 0.02 0.11 0.02 0.1 0.01 0.1 0.01 0.11 0.01 0.1 0 0.1 -0.01 0.1 -0.01 0.1 -0.01 0.1 -0.02 0.09 -0.02 0.09 -0.03 0.1 -0.03 0.08 -0.04 0.09 -0.04 0.08 -0.05 0.08 -0.05 0.08 -0.06 0.08 -0.07 0.07 -0.06 0.24 0.23 -0.09 0.09 -0.09 0.07 -0.09 0.07 -0.1 0.07 -0.1 0.05 -0.1 0.05 -0.11 0.05 -0.11 0.04 -0.11 0.03 -0.11 0.03 -0.11 0.02 -0.12 0.02 -0.12 0.01 -0.11 0 -0.12 0 -0.12 0 -0.11 -0.01 -0.12 -0.01 -0.12 -0.02 -0.11 -0.03 -0.12 -0.02 -0.11 -0.04 -0.12 -0.03 -0.11 -0.04 -0.11 -0.05 -0.11 -0.05 -0.1 -0.05 -0.11 -0.06 -0.1 -0.06 -0.1 -0.06 -0.09 -0.07 -0.1 -0.07 0 0zm-27.51 -22.08l27.72 21.82 -0.21 0.26 -27.72 -21.81 0.21 -0.27zm-0.1 -2.58l0.16 0.3 0 0 -0.09 0.04 -0.08 0.06 -0.07 0.05 -0.07 0.06 -0.06 0.06 -0.06 0.06 -0.05 0.07 -0.04 0.07 -0.04 0.07 -0.04 0.07 -0.02 0.07 -0.03 0.08 -0.02 0.08 -0.01 0.07 -0.01 0.08 0 0.08 0 0.08 0 0.08 0.02 0.08 0.01 0.08 0.02 0.08 0.03 0.08 0.03 0.08 0.04 0.08 0.04 0.08 0.05 0.08 0.05 0.07 0.06 0.07 0.06 0.08 0.07 0.06 0.07 0.07 0.08 0.06 -0.21 0.27 -0.09 -0.08 -0.09 -0.08 -0.08 -0.08 -0.07 -0.08 -0.07 -0.09 -0.06 -0.09 -0.06 -0.09 -0.05 -0.1 -0.05 -0.09 -0.04 -0.1 -0.03 -0.1 -0.03 -0.1 -0.02 -0.1 -0.01 -0.1 -0.01 -0.1 0 -0.1 0 -0.1 0.01 -0.11 0.02 -0.09 0.03 -0.1 0.03 -0.1 0.03 -0.1 0.05 -0.09 0.05 -0.09 0.06 -0.09 0.06 -0.08 0.07 -0.08 0.08 -0.08 0.09 -0.07 0.09 -0.07 0.1 -0.06 0.1 -0.06 0 0zm4.73 -2.13l-4.57 2.43 -0.16 -0.3 4.57 -2.43 0 0 0.16 0.3zm3.38 1.02l-0.2 0.28 0 0 -0.09 -0.07 -0.09 -0.07 -0.1 -0.08 -0.09 -0.08 -0.09 -0.07 -0.09 -0.08 -0.09 -0.08 -0.1 -0.08 -0.09 -0.08 -0.09 -0.08 -0.1 -0.07 -0.09 -0.08 -0.1 -0.07 -0.1 -0.07 -0.09 -0.06 -0.1 -0.07 -0.1 -0.05 -0.1 -0.05 -0.1 -0.05 -0.1 -0.04 -0.1 -0.04 -0.1 -0.03 -0.1 -0.02 -0.1 -0.02 -0.1 0 -0.11 0 -0.1 0.01 -0.11 0.01 -0.11 0.03 -0.11 0.04 -0.12 0.04 -0.12 0.06 -0.16 -0.3 0.14 -0.07 0.14 -0.05 0.14 -0.05 0.13 -0.03 0.14 -0.02 0.13 -0.01 0.13 0 0.13 0.01 0.12 0.02 0.13 0.03 0.12 0.03 0.12 0.04 0.11 0.05 0.11 0.05 0.12 0.06 0.1 0.07 0.11 0.06 0.11 0.07 0.1 0.08 0.1 0.07 0.1 0.08 0.1 0.08 0.1 0.08 0.09 0.08 0.09 0.08 0.1 0.08 0.09 0.08 0.09 0.08 0.09 0.07 0.09 0.07 0.08 0.07 0.09 0.06 0 0z"/>
  </g>
  <g>
   <path class="fil5" d="M40.23 10.84l23.8 16.52c0.96,0.67 0.67,1.24 -0.13,2.11l-2.65 2.91c-0.85,0.93 -1.74,0.73 -2.91,-0.14l-25.01 -18.71c-0.94,-0.71 -1.31,-1.21 -0.29,-1.8l3.68 -2.12c1.36,-0.78 2.55,0.56 3.51,1.23z"/>
   <path id="1" class="fil1" d="M63.93 27.5l-23.8 -16.53 0.2 -0.27 23.8 16.52 -0.2 0.28zm0.09 2.09l-0.25 -0.23 0 0 0.08 -0.08 0.07 -0.08 0.06 -0.07 0.06 -0.08 0.06 -0.07 0.06 -0.07 0.04 -0.07 0.05 -0.06 0.04 -0.07 0.04 -0.06 0.03 -0.06 0.03 -0.06 0.02 -0.06 0.02 -0.05 0.02 -0.06 0.01 -0.05 0 -0.05 0 -0.04 0 -0.05 0 -0.05 -0.02 -0.04 -0.01 -0.05 -0.02 -0.05 -0.03 -0.04 -0.03 -0.05 -0.04 -0.06 -0.04 -0.05 -0.06 -0.05 -0.05 -0.06 -0.07 -0.05 -0.07 -0.06 -0.09 -0.06 0.2 -0.28 0.09 0.07 0.08 0.06 0.08 0.07 0.07 0.07 0.07 0.06 0.06 0.07 0.05 0.07 0.04 0.07 0.04 0.08 0.03 0.07 0.03 0.07 0.02 0.08 0.01 0.08 0 0.07 0 0.08 -0.01 0.08 -0.02 0.07 -0.02 0.08 -0.02 0.07 -0.03 0.08 -0.04 0.07 -0.04 0.07 -0.04 0.08 -0.05 0.07 -0.05 0.08 -0.06 0.07 -0.06 0.08 -0.06 0.08 -0.06 0.07 -0.07 0.08 -0.07 0.09 -0.08 0.08 0 0zm-2.89 2.67l2.64 -2.9 0.25 0.23 -2.64 2.9 0 0 -0.25 -0.23zm-2.89 0.12l0.2 -0.27 0 0 0.11 0.07 0.1 0.08 0.11 0.07 0.1 0.06 0.1 0.06 0.09 0.06 0.1 0.05 0.09 0.05 0.09 0.04 0.1 0.04 0.08 0.03 0.09 0.03 0.09 0.02 0.08 0.02 0.08 0.02 0.08 0.01 0.08 0 0.08 0 0.07 0 0.08 -0.01 0.07 -0.02 0.08 -0.02 0.07 -0.02 0.07 -0.03 0.08 -0.04 0.07 -0.04 0.07 -0.05 0.08 -0.05 0.07 -0.06 0.08 -0.07 0.07 -0.07 0.08 -0.08 0.25 0.23 -0.09 0.09 -0.09 0.08 -0.08 0.08 -0.09 0.07 -0.09 0.06 -0.09 0.06 -0.09 0.05 -0.09 0.04 -0.09 0.04 -0.1 0.03 -0.09 0.03 -0.1 0.02 -0.09 0.01 -0.1 0.01 -0.1 0 -0.1 -0.01 -0.1 -0.01 -0.1 -0.02 -0.1 -0.02 -0.1 -0.03 -0.1 -0.03 -0.1 -0.04 -0.1 -0.04 -0.1 -0.05 -0.11 -0.05 -0.1 -0.06 -0.11 -0.06 -0.1 -0.06 -0.11 -0.07 -0.11 -0.07 -0.11 -0.08 -0.11 -0.08 0 0zm-24.81 -18.99l25.01 18.72 -0.2 0.27 -25.01 -18.72 0 0 0.2 -0.27zm-0.47 -1.8l0.17 0.29 -0.01 0 -0.08 0.05 -0.08 0.05 -0.07 0.05 -0.06 0.05 -0.06 0.05 -0.04 0.04 -0.04 0.05 -0.03 0.04 -0.02 0.04 -0.02 0.03 -0.01 0.04 -0.01 0.03 0 0.03 0 0.04 0 0.03 0.01 0.04 0.01 0.04 0.02 0.04 0.03 0.05 0.03 0.04 0.03 0.05 0.04 0.05 0.04 0.05 0.05 0.05 0.06 0.06 0.06 0.05 0.06 0.06 0.07 0.06 0.08 0.06 0.07 0.06 0.08 0.07 0.09 0.06 -0.2 0.27 -0.09 -0.07 -0.09 -0.06 -0.08 -0.07 -0.07 -0.06 -0.08 -0.06 -0.07 -0.07 -0.06 -0.06 -0.07 -0.06 -0.06 -0.06 -0.05 -0.06 -0.05 -0.07 -0.04 -0.06 -0.05 -0.06 -0.03 -0.07 -0.03 -0.07 -0.02 -0.07 -0.02 -0.07 -0.01 -0.07 0 -0.07 0.01 -0.07 0.01 -0.08 0.03 -0.06 0.03 -0.07 0.04 -0.07 0.05 -0.06 0.05 -0.07 0.07 -0.06 0.06 -0.06 0.08 -0.06 0.08 -0.06 0.09 -0.05 0.1 -0.06 0 0zm3.85 -1.83l-3.68 2.12 -0.17 -0.29 3.68 -2.12 0.17 0.29zm3.52 0.94l-0.2 0.27 0 0 -0.09 -0.06 -0.09 -0.07 -0.1 -0.07 -0.09 -0.08 -0.1 -0.07 -0.1 -0.08 -0.1 -0.08 -0.1 -0.07 -0.1 -0.08 -0.09 -0.08 -0.11 -0.07 -0.1 -0.07 -0.1 -0.07 -0.11 -0.07 -0.1 -0.06 -0.1 -0.06 -0.11 -0.06 -0.1 -0.05 -0.11 -0.04 -0.11 -0.04 -0.1 -0.03 -0.11 -0.03 -0.11 -0.02 -0.1 -0.01 -0.11 -0.01 -0.11 0.01 -0.11 0.01 -0.11 0.02 -0.11 0.03 -0.11 0.04 -0.12 0.05 -0.11 0.06 -0.17 -0.29 0.14 -0.08 0.13 -0.06 0.14 -0.05 0.14 -0.03 0.13 -0.03 0.14 -0.01 0.13 0 0.13 0 0.13 0.02 0.13 0.02 0.13 0.03 0.12 0.04 0.12 0.04 0.12 0.05 0.12 0.06 0.12 0.06 0.11 0.07 0.11 0.07 0.11 0.07 0.11 0.07 0.11 0.08 0.11 0.07 0.1 0.08 0.1 0.08 0.1 0.08 0.1 0.08 0.1 0.07 0.09 0.08 0.1 0.07 0.09 0.07 0.09 0.06 0.09 0.07 0 0z"/>
  </g>
  <g>
   <path class="fil6" d="M47.85 7.44l21.08 13.64c0.82,0.53 0.97,0.87 0.2,1.76l-2.34 2.68c-0.69,0.8 -1.71,0.71 -2.9,-0.13l-22.44 -15.76c-0.96,-0.68 -1.29,-1.04 -0.26,-1.62l3.15 -1.8c1.36,-0.77 2.52,0.59 3.51,1.23z"/>
   <path id="1" class="fil1" d="M68.84 21.22l-21.09 -13.64 0.19 -0.28 21.08 13.64 -0.18 0.28zm0.41 1.73l-0.25 -0.22 0 0 0.07 -0.08 0.06 -0.07 0.06 -0.08 0.05 -0.07 0.04 -0.06 0.04 -0.06 0.04 -0.06 0.03 -0.06 0.02 -0.05 0.02 -0.05 0.01 -0.05 0.02 -0.04 0 -0.04 0 -0.04 0 -0.03 0 -0.04 -0.01 -0.03 -0.01 -0.03 -0.01 -0.04 -0.02 -0.03 -0.02 -0.03 -0.03 -0.04 -0.03 -0.04 -0.04 -0.04 -0.04 -0.04 -0.04 -0.04 -0.05 -0.04 -0.06 -0.04 -0.06 -0.05 -0.06 -0.04 -0.07 -0.05 -0.07 -0.05 0.18 -0.28 0.08 0.05 0.07 0.05 0.07 0.05 0.07 0.05 0.06 0.05 0.06 0.05 0.05 0.05 0.06 0.05 0.04 0.05 0.05 0.05 0.04 0.06 0.03 0.05 0.03 0.06 0.03 0.06 0.02 0.06 0.01 0.07 0.01 0.06 0 0.07 0 0.07 -0.01 0.07 -0.02 0.06 -0.02 0.07 -0.03 0.07 -0.03 0.07 -0.04 0.07 -0.04 0.07 -0.05 0.08 -0.05 0.07 -0.05 0.08 -0.07 0.08 -0.06 0.08 -0.08 0.08 0 0zm-2.58 2.46l2.33 -2.68 0.25 0.22 -2.33 2.68 -0.25 -0.22zm-2.88 0.12l0.19 -0.28 0 0 0.11 0.07 0.11 0.07 0.1 0.07 0.11 0.06 0.1 0.06 0.1 0.05 0.1 0.05 0.1 0.04 0.1 0.04 0.09 0.03 0.1 0.03 0.09 0.03 0.09 0.02 0.08 0.01 0.09 0.02 0.08 0 0.09 0 0.08 0 0.08 0 0.08 -0.01 0.07 -0.02 0.07 -0.02 0.08 -0.02 0.07 -0.03 0.07 -0.03 0.06 -0.04 0.07 -0.04 0.06 -0.04 0.07 -0.06 0.06 -0.05 0.07 -0.06 0.06 -0.07 0.25 0.22 -0.07 0.08 -0.08 0.08 -0.07 0.06 -0.08 0.07 -0.08 0.06 -0.09 0.05 -0.08 0.04 -0.09 0.04 -0.09 0.04 -0.09 0.03 -0.1 0.02 -0.09 0.02 -0.1 0.01 -0.1 0.01 -0.09 0 -0.1 0 -0.11 -0.01 -0.1 -0.01 -0.1 -0.02 -0.11 -0.03 -0.1 -0.03 -0.11 -0.03 -0.1 -0.04 -0.11 -0.04 -0.11 -0.05 -0.11 -0.05 -0.11 -0.06 -0.11 -0.06 -0.11 -0.06 -0.11 -0.07 -0.12 -0.08 -0.11 -0.07 0 0zm-22.25 -16.04l22.44 15.76 -0.19 0.28 -22.44 -15.77 0.19 -0.27zm-0.44 -1.63l0.17 0.29 0 0 -0.09 0.05 -0.08 0.05 -0.07 0.05 -0.06 0.05 -0.06 0.04 -0.05 0.05 -0.04 0.04 -0.03 0.03 -0.02 0.04 -0.02 0.03 -0.01 0.03 -0.01 0.02 0 0.03 -0.01 0.02 0.01 0.03 0 0.02 0.01 0.03 0.02 0.04 0.02 0.03 0.03 0.04 0.03 0.04 0.04 0.04 0.04 0.05 0.05 0.05 0.06 0.05 0.06 0.05 0.06 0.05 0.07 0.05 0.07 0.06 0.08 0.06 0.08 0.05 0.09 0.07 -0.19 0.27 -0.09 -0.06 -0.09 -0.06 -0.08 -0.06 -0.08 -0.06 -0.07 -0.06 -0.07 -0.05 -0.07 -0.06 -0.06 -0.05 -0.06 -0.06 -0.05 -0.06 -0.05 -0.05 -0.04 -0.06 -0.04 -0.06 -0.04 -0.05 -0.03 -0.07 -0.02 -0.06 -0.01 -0.06 -0.01 -0.07 0 -0.07 0.01 -0.07 0.02 -0.07 0.03 -0.06 0.03 -0.06 0.05 -0.06 0.05 -0.06 0.05 -0.06 0.06 -0.05 0.07 -0.06 0.08 -0.05 0.08 -0.06 0.09 -0.05 0.09 -0.06 0 0zm3.32 -1.5l-3.15 1.79 -0.17 -0.29 3.16 -1.79 0.16 0.29zm3.52 0.94l-0.19 0.28 0 0 -0.09 -0.06 -0.1 -0.07 -0.1 -0.07 -0.09 -0.07 -0.1 -0.08 -0.1 -0.07 -0.1 -0.08 -0.1 -0.08 -0.1 -0.07 -0.1 -0.08 -0.1 -0.07 -0.1 -0.07 -0.1 -0.07 -0.11 -0.07 -0.1 -0.07 -0.1 -0.06 -0.11 -0.05 -0.11 -0.05 -0.1 -0.05 -0.11 -0.04 -0.1 -0.03 -0.11 -0.03 -0.1 -0.02 -0.11 -0.01 -0.11 -0.01 -0.1 0 -0.11 0.01 -0.11 0.02 -0.11 0.03 -0.12 0.04 -0.11 0.05 -0.12 0.06 -0.16 -0.29 0.13 -0.07 0.14 -0.06 0.14 -0.05 0.14 -0.04 0.13 -0.02 0.13 -0.01 0.14 -0.01 0.13 0.01 0.13 0.02 0.13 0.02 0.12 0.03 0.12 0.04 0.13 0.05 0.12 0.05 0.11 0.06 0.12 0.06 0.11 0.06 0.11 0.07 0.11 0.08 0.11 0.07 0.11 0.07 0.1 0.08 0.11 0.08 0.1 0.08 0.1 0.07 0.1 0.08 0.1 0.07 0.09 0.08 0.1 0.07 0.09 0.06 0.09 0.07 0.09 0.06 0 0z"/>
  </g>
  <g>
   <path class="fil0" d="M53.7 3.63l19.54 12.08c0.72,0.44 1.36,1.03 0.62,1.74l-2.36 2.26c-0.67,0.64 -1.59,0.39 -2.66,-0.3l-20.24 -13.05c-0.86,-0.55 -1.22,-1.14 -0.32,-1.63l2.75 -1.52c1.2,-0.67 1.81,-0.12 2.67,0.42z"/>
   <path id="1" class="fil1" d="M73.15 15.85l-19.54 -12.08 0.18 -0.28 19.54 12.07 0 0 -0.18 0.29zm0.82 1.72l-0.23 -0.24 0 0 0.06 -0.06 0.05 -0.06 0.04 -0.05 0.04 -0.06 0.03 -0.05 0.02 -0.05 0.02 -0.04 0.01 -0.05 0.01 -0.04 0 -0.05 0 -0.04 -0.01 -0.04 -0.01 -0.05 -0.01 -0.04 -0.02 -0.04 -0.02 -0.05 -0.03 -0.05 -0.03 -0.04 -0.03 -0.05 -0.04 -0.04 -0.04 -0.05 -0.05 -0.04 -0.05 -0.05 -0.05 -0.05 -0.05 -0.04 -0.06 -0.04 -0.06 -0.05 -0.06 -0.04 -0.06 -0.05 -0.06 -0.04 -0.06 -0.04 -0.07 -0.04 0.18 -0.29 0.07 0.05 0.06 0.04 0.07 0.05 0.07 0.04 0.07 0.05 0.06 0.05 0.06 0.05 0.06 0.05 0.06 0.05 0.06 0.06 0.05 0.05 0.05 0.06 0.05 0.05 0.05 0.07 0.04 0.06 0.03 0.06 0.04 0.07 0.02 0.06 0.03 0.08 0.01 0.07 0.01 0.07 0.01 0.07 -0.01 0.08 -0.01 0.08 -0.02 0.07 -0.03 0.08 -0.03 0.08 -0.04 0.07 -0.05 0.08 -0.06 0.07 -0.06 0.07 -0.08 0.08 0 -0.01zm-2.59 2.02l2.36 -2.26 0.23 0.24 -2.36 2.26 0 0 -0.23 -0.24zm-2.63 -0.04l0.18 -0.28 0 0 0.1 0.06 0.1 0.06 0.09 0.06 0.1 0.05 0.09 0.05 0.09 0.05 0.09 0.04 0.09 0.04 0.09 0.04 0.09 0.04 0.08 0.03 0.08 0.02 0.09 0.03 0.08 0.02 0.08 0.02 0.07 0.01 0.08 0.01 0.08 0.01 0.07 0 0.07 0 0.07 -0.01 0.06 0 0.07 -0.02 0.07 -0.01 0.06 -0.02 0.06 -0.03 0.06 -0.02 0.06 -0.04 0.06 -0.03 0.06 -0.04 0.06 -0.05 0.05 -0.05 0.23 0.24 -0.07 0.07 -0.07 0.06 -0.07 0.05 -0.08 0.05 -0.08 0.04 -0.08 0.04 -0.08 0.03 -0.08 0.02 -0.09 0.02 -0.08 0.02 -0.09 0.01 -0.09 0.01 -0.09 0 -0.09 -0.01 -0.09 0 -0.09 -0.02 -0.09 -0.01 -0.09 -0.02 -0.09 -0.03 -0.1 -0.02 -0.09 -0.03 -0.1 -0.04 -0.09 -0.04 -0.1 -0.04 -0.1 -0.05 -0.09 -0.04 -0.1 -0.05 -0.1 -0.06 -0.1 -0.05 -0.1 -0.06 -0.1 -0.06 -0.1 -0.07 0 0zm-20.06 -13.33l20.24 13.05 -0.18 0.28 -20.25 -13.05 0 0 0.19 -0.28zm-0.49 -1.64l0.16 0.29 0 0 -0.07 0.05 -0.07 0.04 -0.06 0.04 -0.05 0.04 -0.04 0.04 -0.04 0.04 -0.03 0.04 -0.02 0.04 -0.02 0.03 -0.02 0.04 -0.01 0.03 0 0.03 0 0.04 0 0.03 0 0.04 0.01 0.03 0.02 0.04 0.01 0.04 0.03 0.04 0.02 0.05 0.04 0.04 0.03 0.05 0.04 0.04 0.05 0.05 0.05 0.05 0.05 0.05 0.06 0.05 0.06 0.05 0.07 0.05 0.07 0.05 0.07 0.05 0.08 0.05 -0.19 0.28 -0.08 -0.05 -0.08 -0.06 -0.07 -0.05 -0.07 -0.06 -0.07 -0.05 -0.07 -0.06 -0.06 -0.05 -0.06 -0.06 -0.05 -0.06 -0.06 -0.05 -0.04 -0.06 -0.05 -0.06 -0.03 -0.07 -0.04 -0.06 -0.03 -0.06 -0.02 -0.07 -0.02 -0.07 -0.01 -0.06 0 -0.07 0 -0.07 0.01 -0.07 0.03 -0.07 0.02 -0.07 0.04 -0.06 0.04 -0.07 0.04 -0.06 0.06 -0.06 0.06 -0.05 0.07 -0.06 0.07 -0.05 0.08 -0.05 0.09 -0.05 0 0zm2.91 -1.23l-2.75 1.52 -0.16 -0.29 2.75 -1.52 0.16 0.29zm2.68 0.14l-0.18 0.28 0 0 -0.08 -0.05 -0.08 -0.05 -0.07 -0.05 -0.08 -0.05 -0.08 -0.05 -0.07 -0.04 -0.08 -0.05 -0.07 -0.04 -0.07 -0.04 -0.07 -0.04 -0.07 -0.04 -0.07 -0.03 -0.07 -0.03 -0.07 -0.03 -0.07 -0.03 -0.07 -0.02 -0.07 -0.02 -0.07 -0.01 -0.07 -0.02 -0.07 0 -0.07 -0.01 -0.08 0 -0.08 0.01 -0.08 0.01 -0.08 0.01 -0.08 0.02 -0.09 0.02 -0.09 0.03 -0.09 0.04 -0.1 0.04 -0.1 0.05 -0.11 0.05 -0.16 -0.29 0.12 -0.06 0.11 -0.06 0.11 -0.05 0.11 -0.04 0.1 -0.03 0.11 -0.03 0.1 -0.02 0.1 -0.02 0.1 -0.01 0.09 -0.01 0.1 0.01 0.09 0 0.09 0.01 0.09 0.02 0.08 0.01 0.09 0.03 0.08 0.02 0.08 0.03 0.09 0.04 0.07 0.03 0.08 0.04 0.08 0.04 0.08 0.04 0.07 0.05 0.08 0.05 0.08 0.04 0.07 0.05 0.08 0.05 0.08 0.05 0.07 0.05 0.08 0.05 0.08 0.05 0 0z"/>
  </g>
  <g>
   <path class="fil7" d="M59.72 0.89l17.25 10.16c0.72,0.43 1.35,1.04 0.61,1.75l-1.92 1.83c-0.66,0.64 -1.57,0.36 -2.66,-0.3l-17.95 -10.92c-0.87,-0.53 -1.21,-1.13 -0.31,-1.63l2.31 -1.31c1.19,-0.67 1.79,-0.09 2.67,0.42z"/>
   <path id="1" class="fil1" d="M76.88 11.19l-17.25 -10.15 0.18 -0.29 17.24 10.15 0 0 -0.17 0.29zm0.82 1.73l-0.23 -0.25 0 0 0.05 -0.06 0.06 -0.05 0.04 -0.06 0.03 -0.05 0.04 -0.06 0.02 -0.05 0.01 -0.04 0.02 -0.05 0 -0.04 0.01 -0.05 -0.01 -0.04 0 -0.05 -0.01 -0.04 -0.02 -0.05 -0.01 -0.04 -0.02 -0.04 -0.03 -0.05 -0.03 -0.05 -0.04 -0.04 -0.03 -0.05 -0.04 -0.04 -0.05 -0.05 -0.05 -0.05 -0.05 -0.04 -0.05 -0.04 -0.06 -0.05 -0.05 -0.04 -0.06 -0.04 -0.07 -0.05 -0.06 -0.04 -0.07 -0.04 -0.06 -0.04 0.17 -0.29 0.07 0.05 0.07 0.04 0.07 0.04 0.07 0.05 0.06 0.05 0.07 0.04 0.06 0.05 0.06 0.05 0.06 0.06 0.06 0.05 0.05 0.05 0.05 0.06 0.05 0.06 0.05 0.06 0.04 0.06 0.03 0.07 0.04 0.06 0.02 0.07 0.02 0.07 0.02 0.08 0.01 0.07 0 0.07 0 0.08 -0.01 0.08 -0.02 0.07 -0.03 0.08 -0.04 0.08 -0.04 0.07 -0.05 0.08 -0.05 0.07 -0.07 0.07 -0.07 0.08 0 0zm-2.15 1.59l1.92 -1.84 0.23 0.25 -1.92 1.84 -0.23 -0.25 0 0zm-2.63 -0.03l0.17 -0.29 0 0 0.1 0.06 0.1 0.05 0.1 0.06 0.09 0.05 0.1 0.05 0.09 0.05 0.09 0.04 0.09 0.04 0.09 0.04 0.09 0.03 0.08 0.04 0.09 0.02 0.08 0.03 0.08 0.02 0.08 0.02 0.08 0.01 0.07 0.01 0.08 0.01 0.07 0 0.07 0 0.07 0 0.06 -0.01 0.07 -0.01 0.06 -0.01 0.07 -0.02 0.06 -0.03 0.06 -0.02 0.06 -0.04 0.05 -0.03 0.06 -0.04 0.06 -0.05 0.06 -0.05 0.23 0.24 -0.07 0.07 -0.07 0.06 -0.08 0.05 -0.07 0.05 -0.08 0.04 -0.08 0.04 -0.08 0.03 -0.09 0.02 -0.08 0.02 -0.09 0.02 -0.08 0.01 -0.09 0 -0.09 0 -0.09 0 -0.09 -0.01 -0.09 -0.02 -0.09 -0.01 -0.09 -0.02 -0.09 -0.03 -0.1 -0.02 -0.09 -0.04 -0.09 -0.03 -0.1 -0.04 -0.09 -0.04 -0.1 -0.04 -0.1 -0.05 -0.1 -0.05 -0.1 -0.05 -0.1 -0.06 -0.1 -0.05 -0.1 -0.06 -0.1 -0.06 0 0zm-17.78 -11.21l17.95 10.92 -0.17 0.29 -17.96 -10.93 0.18 -0.28zm-0.49 -1.64l0.17 0.29 0 0 -0.08 0.05 -0.06 0.04 -0.06 0.04 -0.05 0.04 -0.04 0.05 -0.04 0.04 -0.04 0.04 -0.02 0.03 -0.02 0.04 -0.01 0.04 -0.01 0.03 -0.01 0.03 0 0.04 0 0.03 0 0.04 0.01 0.04 0.02 0.04 0.01 0.04 0.03 0.04 0.02 0.04 0.03 0.04 0.04 0.05 0.04 0.04 0.05 0.05 0.05 0.05 0.05 0.05 0.06 0.05 0.06 0.04 0.07 0.05 0.07 0.05 0.07 0.05 0.08 0.05 -0.18 0.28 -0.08 -0.05 -0.08 -0.05 -0.08 -0.05 -0.07 -0.06 -0.07 -0.05 -0.07 -0.06 -0.06 -0.05 -0.06 -0.06 -0.06 -0.05 -0.05 -0.06 -0.04 -0.06 -0.05 -0.06 -0.04 -0.06 -0.03 -0.07 -0.03 -0.06 -0.02 -0.07 -0.02 -0.07 -0.01 -0.07 0 -0.07 0.01 -0.06 0.01 -0.07 0.02 -0.08 0.03 -0.06 0.03 -0.07 0.04 -0.06 0.05 -0.06 0.05 -0.06 0.06 -0.06 0.07 -0.05 0.08 -0.06 0.08 -0.05 0.08 -0.05 0 0zm2.48 -1.01l-2.31 1.3 -0.17 -0.29 2.32 -1.31 0.16 0.3zm2.68 0.13l-0.18 0.29 0 0 -0.08 -0.05 -0.08 -0.05 -0.08 -0.05 -0.08 -0.05 -0.07 -0.04 -0.08 -0.05 -0.07 -0.04 -0.08 -0.05 -0.07 -0.04 -0.07 -0.04 -0.07 -0.04 -0.07 -0.03 -0.07 -0.03 -0.07 -0.03 -0.07 -0.03 -0.07 -0.02 -0.07 -0.02 -0.07 -0.02 -0.07 -0.01 -0.07 -0.01 -0.07 0 -0.08 0 -0.07 0 -0.08 0.01 -0.08 0.01 -0.09 0.02 -0.08 0.02 -0.09 0.03 -0.1 0.04 -0.09 0.04 -0.1 0.05 -0.11 0.06 -0.16 -0.3 0.11 -0.06 0.11 -0.05 0.12 -0.05 0.1 -0.04 0.11 -0.04 0.1 -0.03 0.1 -0.02 0.1 -0.02 0.1 -0.01 0.1 0 0.09 0 0.09 0.01 0.09 0.01 0.09 0.01 0.09 0.02 0.08 0.03 0.09 0.02 0.08 0.04 0.08 0.03 0.08 0.03 0.08 0.04 0.07 0.04 0.08 0.05 0.08 0.04 0.07 0.05 0.08 0.04 0.07 0.05 0.08 0.05 0.08 0.05 0.08 0.04 0.08 0.05 0.08 0.05 0 0z"/>
  </g>
  <g>
   <path class="fil0" d="M60.96 45.41l42.19 -13.95c0.26,-0.09 0.55,0.05 0.64,0.32l0.14 0.41c0.09,0.27 -0.06,0.56 -0.32,0.65l-42.19 13.94c-0.27,0.09 -0.55,-0.05 -0.64,-0.32l-0.14 -0.41c-0.09,-0.27 0.05,-0.56 0.32,-0.64z"/>
   <path id="1" class="fil1" d="M103.2 31.62l-42.19 13.95 -0.1 -0.32 42.18 -13.95 0.11 0.32zm0.75 0.11l-0.32 0.1 0 0 -0.01 -0.01 0 -0.02 -0.01 -0.01 -0.01 -0.02 -0.01 -0.02 0 -0.01 -0.02 -0.01 -0.01 -0.01 -0.01 -0.02 -0.01 -0.01 -0.01 -0.01 -0.01 -0.01 -0.02 -0.01 -0.01 -0.01 -0.01 -0.01 -0.02 0 -0.02 -0.01 -0.01 -0.01 -0.01 0 -0.02 -0.01 -0.02 0 -0.01 0 -0.02 -0.01 -0.01 0 -0.02 0 -0.02 0 -0.01 0 -0.02 0 -0.02 0.01 -0.01 0 -0.02 0 -0.02 0.01 -0.11 -0.32 0.04 -0.01 0.03 -0.01 0.04 -0.01 0.03 0 0.03 0 0.04 -0.01 0.03 0 0.03 0.01 0.04 0 0.03 0.01 0.03 0 0.03 0.01 0.03 0.01 0.03 0.01 0.03 0.01 0.03 0.02 0.03 0.01 0.03 0.02 0.02 0.01 0.03 0.02 0.03 0.02 0.02 0.03 0.03 0.02 0.02 0.02 0.02 0.03 0.02 0.02 0.02 0.03 0.01 0.03 0.02 0.03 0.02 0.03 0.01 0.03 0.01 0.04 0 0zm-0.18 0.52l-0.14 -0.42 0.32 -0.1 0.14 0.41 -0.32 0.11 0 0zm-0.11 0.75l-0.1 -0.32 0 0 0.01 -0.01 0.02 -0.01 0.01 0 0.02 -0.01 0.01 -0.01 0.02 -0.01 0.01 -0.01 0.01 -0.01 0.01 -0.01 0.01 -0.01 0.02 -0.02 0.01 -0.01 0.01 -0.01 0.01 -0.02 0 -0.01 0.01 -0.02 0.01 -0.01 0 -0.01 0.01 -0.02 0 -0.02 0.01 -0.01 0 -0.02 0 -0.01 0.01 -0.02 0 -0.02 0 -0.01 0 -0.02 -0.01 -0.02 0 -0.02 0 -0.01 -0.01 -0.02 0 -0.01 0.32 -0.11 0.01 0.03 0.01 0.04 0 0.03 0.01 0.03 0 0.04 0 0.03 0 0.03 0 0.03 0 0.04 -0.01 0.03 0 0.03 -0.01 0.03 -0.01 0.03 -0.01 0.04 -0.01 0.03 -0.02 0.03 -0.01 0.02 -0.02 0.03 -0.02 0.03 -0.02 0.03 -0.02 0.02 -0.02 0.03 -0.02 0.02 -0.02 0.02 -0.03 0.02 -0.03 0.02 -0.02 0.02 -0.03 0.02 -0.03 0.02 -0.03 0.01 -0.04 0.01 -0.03 0.02 0 0zm-42.29 13.62l42.19 -13.94 0.1 0.32 -42.19 13.94 -0.1 -0.32zm-0.75 -0.1l0.32 -0.11 0 0 0 0.02 0.01 0.01 0.01 0.01 0.01 0.02 0 0.02 0.01 0.01 0.01 0.01 0.01 0.02 0.01 0.01 0.02 0.01 0.01 0.01 0.01 0.01 0.01 0.01 0.02 0.01 0.01 0.01 0.02 0 0.01 0.01 0.02 0.01 0.01 0 0.02 0.01 0.01 0 0.02 0 0.02 0.01 0.01 0 0.02 0 0.02 0 0.01 0 0.02 0 0.02 -0.01 0.01 0 0.02 0 0.02 -0.01 0.1 0.32 -0.03 0.01 -0.03 0.01 -0.04 0.01 -0.03 0 -0.03 0.01 -0.04 0 -0.03 0 -0.03 0 -0.04 -0.01 -0.03 0 -0.03 -0.01 -0.03 -0.01 -0.03 -0.01 -0.03 -0.01 -0.03 -0.01 -0.03 -0.01 -0.03 -0.02 -0.03 -0.02 -0.03 -0.01 -0.02 -0.02 -0.03 -0.02 -0.02 -0.03 -0.03 -0.02 -0.02 -0.02 -0.02 -0.03 -0.02 -0.02 -0.02 -0.03 -0.02 -0.03 -0.01 -0.03 -0.02 -0.03 -0.01 -0.03 -0.01 -0.04 0 0.01zm0.18 -0.53l0.14 0.42 -0.32 0.11 -0.14 -0.42 0 0 0.32 -0.11zm0.11 -0.74l0.1 0.32 0 0 -0.01 0 -0.02 0.01 -0.02 0.01 -0.01 0 -0.01 0.01 -0.02 0.01 -0.01 0.01 -0.01 0.01 -0.02 0.01 -0.01 0.01 -0.01 0.02 -0.01 0.01 -0.01 0.02 -0.01 0.01 0 0.01 -0.01 0.02 -0.01 0.01 -0.01 0.01 0 0.02 -0.01 0.02 0 0.01 0 0.02 -0.01 0.02 0 0.01 0 0.02 0 0.01 0 0.02 0 0.02 0.01 0.02 0 0.01 0 0.02 0.01 0.02 -0.32 0.1 -0.01 -0.03 -0.01 -0.03 -0.01 -0.04 0 -0.03 -0.01 -0.03 0 -0.04 0 -0.03 0 -0.04 0.01 -0.03 0 -0.03 0.01 -0.03 0.01 -0.03 0.01 -0.03 0.01 -0.04 0.01 -0.03 0.02 -0.03 0.01 -0.02 0.02 -0.03 0.02 -0.03 0.01 -0.03 0.03 -0.02 0.02 -0.02 0.02 -0.03 0.02 -0.02 0.03 -0.02 0.03 -0.02 0.02 -0.02 0.03 -0.02 0.03 -0.02 0.03 -0.01 0.03 -0.01 0.04 -0.01 0 0z"/>
  </g>
  <g>
   <path class="fil0" d="M105.94 27.7c1.92,-0.18 3.61,1.23 3.79,3.15 0.17,1.91 -1.23,3.61 -3.15,3.78 -1.91,0.18 -3.61,-1.23 -3.78,-3.15 -0.18,-1.91 1.23,-3.6 3.14,-3.78z"/>
   <path id="1" class="fil1" d="M109.9 30.83l-0.34 0.03 0 0 -0.02 -0.17 -0.03 -0.17 -0.03 -0.16 -0.05 -0.16 -0.05 -0.15 -0.06 -0.16 -0.06 -0.15 -0.08 -0.14 -0.08 -0.14 -0.08 -0.13 -0.1 -0.14 -0.09 -0.12 -0.11 -0.12 -0.11 -0.12 -0.11 -0.11 -0.12 -0.1 -0.13 -0.1 -0.13 -0.09 -0.13 -0.09 -0.14 -0.08 -0.14 -0.07 -0.14 -0.07 -0.15 -0.06 -0.15 -0.05 -0.16 -0.05 -0.16 -0.03 -0.16 -0.04 -0.16 -0.02 -0.17 -0.01 -0.16 -0.01 -0.17 0.01 -0.17 0.01 -0.03 -0.34 0.18 -0.01 0.19 0 0.18 0 0.19 0.02 0.18 0.02 0.17 0.04 0.18 0.04 0.17 0.05 0.17 0.05 0.16 0.07 0.16 0.07 0.16 0.08 0.15 0.09 0.14 0.1 0.15 0.1 0.14 0.11 0.13 0.11 0.12 0.12 0.12 0.13 0.12 0.13 0.11 0.14 0.1 0.15 0.09 0.15 0.09 0.15 0.08 0.16 0.07 0.16 0.07 0.17 0.05 0.17 0.05 0.18 0.04 0.18 0.03 0.18 0.03 0.19 0 0zm-3.3 3.97l-0.03 -0.34 0 0 0.17 -0.02 0.16 -0.02 0.16 -0.04 0.16 -0.04 0.16 -0.06 0.15 -0.05 0.15 -0.07 0.15 -0.07 0.14 -0.08 0.13 -0.09 0.13 -0.09 0.13 -0.1 0.12 -0.1 0.12 -0.11 0.1 -0.12 0.11 -0.12 0.1 -0.12 0.09 -0.13 0.09 -0.13 0.08 -0.14 0.07 -0.14 0.07 -0.15 0.06 -0.15 0.05 -0.15 0.05 -0.16 0.03 -0.15 0.03 -0.17 0.02 -0.16 0.02 -0.16 0 -0.17 0 -0.17 -0.01 -0.17 0.34 -0.03 0.01 0.19 0 0.18 -0.01 0.19 -0.01 0.18 -0.03 0.18 -0.03 0.18 -0.04 0.17 -0.05 0.17 -0.06 0.17 -0.06 0.16 -0.08 0.16 -0.08 0.16 -0.09 0.15 -0.09 0.15 -0.1 0.14 -0.11 0.14 -0.12 0.13 -0.12 0.13 -0.13 0.12 -0.13 0.11 -0.14 0.11 -0.14 0.1 -0.15 0.1 -0.15 0.08 -0.16 0.08 -0.17 0.08 -0.17 0.06 -0.17 0.06 -0.17 0.05 -0.18 0.04 -0.19 0.03 -0.18 0.02 0 0zm-3.97 -3.3l0.33 -0.03 0 0 0.02 0.17 0.03 0.17 0.04 0.16 0.04 0.16 0.05 0.15 0.06 0.16 0.07 0.15 0.07 0.14 0.08 0.14 0.09 0.13 0.09 0.14 0.1 0.12 0.1 0.12 0.11 0.12 0.12 0.11 0.12 0.1 0.12 0.1 0.13 0.09 0.13 0.09 0.14 0.08 0.14 0.07 0.15 0.07 0.15 0.06 0.15 0.05 0.15 0.05 0.16 0.04 0.16 0.03 0.17 0.02 0.16 0.01 0.17 0.01 0.17 0 0.17 -0.02 0.03 0.34 -0.19 0.01 -0.19 0.01 -0.18 -0.01 -0.18 -0.02 -0.18 -0.02 -0.18 -0.03 -0.17 -0.05 -0.17 -0.05 -0.17 -0.05 -0.17 -0.07 -0.16 -0.07 -0.15 -0.08 -0.15 -0.09 -0.15 -0.1 -0.14 -0.1 -0.14 -0.11 -0.13 -0.11 -0.13 -0.12 -0.12 -0.13 -0.11 -0.14 -0.11 -0.13 -0.1 -0.15 -0.1 -0.15 -0.09 -0.15 -0.08 -0.16 -0.07 -0.16 -0.06 -0.17 -0.06 -0.17 -0.05 -0.18 -0.04 -0.18 -0.03 -0.18 -0.02 -0.19 0 0zm3.3 -3.97l0.03 0.34 0 0 -0.17 0.02 -0.17 0.03 -0.16 0.03 -0.16 0.05 -0.16 0.05 -0.15 0.06 -0.15 0.06 -0.14 0.07 -0.14 0.08 -0.14 0.09 -0.13 0.09 -0.12 0.1 -0.12 0.1 -0.12 0.11 -0.11 0.12 -0.11 0.12 -0.09 0.12 -0.1 0.13 -0.08 0.14 -0.08 0.13 -0.08 0.14 -0.06 0.15 -0.06 0.15 -0.05 0.15 -0.05 0.16 -0.04 0.15 -0.03 0.17 -0.02 0.16 -0.01 0.16 -0.01 0.17 0 0.17 0.01 0.17 -0.33 0.03 -0.01 -0.19 -0.01 -0.18 0.01 -0.19 0.01 -0.18 0.03 -0.18 0.03 -0.18 0.04 -0.17 0.05 -0.17 0.06 -0.17 0.07 -0.16 0.07 -0.16 0.08 -0.16 0.09 -0.15 0.09 -0.15 0.11 -0.14 0.11 -0.14 0.11 -0.13 0.12 -0.13 0.13 -0.12 0.13 -0.11 0.14 -0.11 0.14 -0.1 0.15 -0.1 0.16 -0.08 0.16 -0.08 0.16 -0.08 0.17 -0.06 0.17 -0.06 0.18 -0.05 0.18 -0.04 0.18 -0.03 0.19 -0.02 0 0z"/>
  </g>
  <g>
   <path class="fil8" d="M106.24 28.55c0.42,-0.04 0.79,0.2 0.82,0.54 0.03,0.33 -0.29,0.64 -0.71,0.68 -0.42,0.04 -0.79,-0.21 -0.82,-0.54 -0.03,-0.34 0.29,-0.65 0.71,-0.68z"/>
   <path id="1" class="fil1" d="M107.23 29.07l-0.34 0.03 0 0 0 -0.02 0 -0.02 -0.01 -0.02 -0.01 -0.02 0 -0.02 -0.01 -0.02 -0.01 -0.02 -0.01 -0.01 -0.02 -0.02 -0.01 -0.02 -0.01 -0.02 -0.02 -0.01 -0.02 -0.02 -0.02 -0.02 -0.02 -0.01 -0.02 -0.01 -0.02 -0.02 -0.02 -0.01 -0.03 -0.01 -0.02 -0.01 -0.03 -0.01 -0.02 -0.01 -0.03 -0.01 -0.03 -0.01 -0.03 -0.01 -0.03 0 -0.03 -0.01 -0.03 0 -0.03 0 -0.03 0 -0.03 0 -0.03 0 -0.04 -0.33 0.05 -0.01 0.05 0 0.04 0 0.05 0.01 0.04 0 0.05 0.01 0.04 0 0.04 0.01 0.04 0.01 0.04 0.02 0.04 0.01 0.04 0.01 0.04 0.02 0.04 0.02 0.03 0.02 0.04 0.02 0.03 0.03 0.03 0.02 0.04 0.03 0.02 0.03 0.03 0.03 0.03 0.03 0.03 0.03 0.02 0.03 0.02 0.04 0.02 0.03 0.02 0.04 0.01 0.04 0.01 0.04 0.01 0.03 0.01 0.05 0.01 0.04 0 0zm-0.86 0.87l-0.03 -0.34 0 0 0.03 -0.01 0.03 0 0.03 -0.01 0.03 0 0.03 -0.01 0.03 -0.01 0.03 -0.01 0.03 -0.01 0.02 -0.02 0.03 -0.01 0.02 -0.01 0.03 -0.02 0.02 -0.01 0.02 -0.02 0.02 -0.02 0.02 -0.01 0.02 -0.02 0.01 -0.02 0.02 -0.02 0.01 -0.02 0.01 -0.01 0.02 -0.03 0.01 -0.02 0.01 -0.02 0 -0.01 0.01 -0.02 0 -0.02 0.01 -0.03 0 -0.01 0 -0.03 0 -0.02 0 -0.02 0.34 -0.03 0 0.04 0 0.04 0 0.05 -0.01 0.04 -0.01 0.04 -0.01 0.04 -0.01 0.04 -0.01 0.03 -0.02 0.04 -0.02 0.04 -0.02 0.03 -0.02 0.03 -0.03 0.04 -0.02 0.03 -0.03 0.03 -0.03 0.03 -0.03 0.03 -0.03 0.02 -0.03 0.03 -0.04 0.02 -0.03 0.03 -0.04 0.02 -0.04 0.02 -0.04 0.02 -0.03 0.01 -0.05 0.02 -0.04 0.01 -0.04 0.01 -0.04 0.01 -0.05 0.01 -0.05 0.01 -0.04 0.01 0 0zm-1 -0.7l0.33 -0.03 0 0 0 0.02 0.01 0.02 0 0.02 0.01 0.02 0.01 0.02 0 0.02 0.02 0.02 0.01 0.02 0.01 0.01 0.01 0.02 0.02 0.02 0.01 0.01 0.02 0.02 0.02 0.02 0.02 0.01 0.02 0.02 0.02 0.01 0.02 0.01 0.03 0.02 0.02 0.01 0.03 0.01 0.03 0.01 0.02 0 0.03 0.01 0.03 0.01 0.03 0 0.03 0.01 0.03 0 0.03 0 0.03 0 0.04 0 0.03 0 0.03 0.34 -0.05 0 -0.04 0 -0.05 0 -0.04 0 -0.05 -0.01 -0.04 0 -0.04 -0.01 -0.05 -0.01 -0.04 -0.01 -0.04 -0.01 -0.04 -0.02 -0.04 -0.01 -0.04 -0.02 -0.03 -0.02 -0.04 -0.02 -0.03 -0.02 -0.04 -0.02 -0.03 -0.03 -0.03 -0.03 -0.03 -0.02 -0.03 -0.03 -0.03 -0.03 -0.02 -0.03 -0.03 -0.04 -0.02 -0.04 -0.02 -0.03 -0.01 -0.04 -0.02 -0.04 -0.01 -0.03 -0.01 -0.04 -0.01 -0.05 0 -0.04 0 0zm0.85 -0.86l0.04 0.33 0 0 -0.04 0.01 -0.03 0 -0.03 0.01 -0.03 0.01 -0.03 0 -0.03 0.01 -0.03 0.01 -0.02 0.02 -0.03 0.01 -0.03 0.01 -0.02 0.01 -0.02 0.02 -0.02 0.01 -0.03 0.02 -0.02 0.02 -0.02 0.02 -0.01 0.01 -0.02 0.02 -0.01 0.02 -0.02 0.02 -0.01 0.02 -0.01 0.02 -0.01 0.02 -0.01 0.02 -0.01 0.02 -0.01 0.02 0 0.02 -0.01 0.02 0 0.02 0 0.02 0 0.02 0 0.02 -0.33 0.03 -0.01 -0.04 0 -0.04 0.01 -0.04 0 -0.04 0.01 -0.05 0.01 -0.04 0.01 -0.03 0.01 -0.04 0.02 -0.04 0.02 -0.03 0.02 -0.04 0.02 -0.03 0.03 -0.04 0.02 -0.03 0.03 -0.03 0.03 -0.03 0.03 -0.03 0.03 -0.02 0.03 -0.03 0.04 -0.02 0.04 -0.02 0.03 -0.03 0.04 -0.01 0.04 -0.02 0.04 -0.02 0.04 -0.02 0.04 -0.01 0.05 -0.01 0.04 -0.01 0.04 -0.01 0.05 -0.01 0.04 0 0 0z"/>
  </g>
  <g>
   <path class="fil0" d="M63.47 58.17l29.02 -33.66c0.18,-0.21 0.5,-0.23 0.71,-0.05l0.33 0.28c0.22,0.18 0.24,0.51 0.06,0.72l-29.01 33.66c-0.19,0.21 -0.51,0.23 -0.72,0.05l-0.33 -0.28c-0.21,-0.19 -0.24,-0.51 -0.06,-0.72z"/>
   <path id="1" class="fil1" d="M92.61 24.63l-29.01 33.65 -0.25 -0.22 29.01 -33.66 0.25 0.22 0 0.01zm0.7 -0.3l-0.22 0.26 0 0 -0.01 -0.01 -0.01 -0.01 -0.02 -0.01 -0.01 -0.01 -0.01 -0.01 -0.02 -0.01 -0.02 0 -0.01 -0.01 -0.02 0 -0.01 -0.01 -0.02 0 -0.02 0 -0.01 0 -0.02 0 -0.02 0 -0.01 0 -0.02 0 -0.01 0 -0.02 0 -0.02 0.01 -0.01 0 -0.02 0.01 -0.01 0 -0.02 0.01 -0.01 0.01 -0.02 0.01 -0.01 0.01 -0.01 0.01 -0.02 0.01 -0.01 0.01 -0.01 0.01 -0.02 0.01 -0.25 -0.21 0.02 -0.03 0.03 -0.03 0.02 -0.02 0.03 -0.02 0.03 -0.02 0.02 -0.02 0.03 -0.01 0.03 -0.02 0.03 -0.01 0.03 -0.02 0.03 -0.01 0.03 -0.01 0.04 0 0.03 -0.01 0.03 -0.01 0.03 0 0.04 0 0.03 0 0.03 0 0.03 0 0.03 0.01 0.03 0 0.04 0.01 0.03 0.01 0.03 0.01 0.03 0.02 0.03 0.01 0.03 0.01 0.03 0.02 0.03 0.02 0.03 0.02 0.02 0.02 0 0zm0.12 0.54l-0.34 -0.28 0.22 -0.26 0.33 0.29 -0.21 0.25zm0.29 0.7l-0.26 -0.22 0 0 0.01 -0.01 0.01 -0.02 0.01 -0.01 0.01 -0.02 0.01 -0.01 0.01 -0.02 0 -0.01 0.01 -0.01 0 -0.02 0 -0.02 0.01 -0.02 0 -0.01 0 -0.02 0 -0.01 0 -0.02 0 -0.02 0 -0.01 0 -0.02 -0.01 -0.02 0 -0.01 0 -0.02 -0.01 -0.01 -0.01 -0.02 0 -0.01 -0.01 -0.02 -0.01 -0.01 -0.01 -0.02 -0.01 -0.01 -0.01 -0.01 -0.01 -0.01 -0.01 -0.02 -0.01 -0.01 0.21 -0.25 0.03 0.02 0.02 0.02 0.03 0.03 0.02 0.02 0.02 0.03 0.02 0.03 0.01 0.03 0.02 0.03 0.01 0.03 0.02 0.03 0.01 0.03 0.01 0.03 0 0.03 0.01 0.03 0 0.04 0.01 0.03 0 0.03 0 0.03 0 0.03 -0.01 0.04 0 0.03 -0.01 0.03 0 0.03 -0.01 0.03 -0.01 0.04 -0.02 0.03 -0.01 0.03 -0.02 0.03 -0.01 0.03 -0.02 0.02 -0.02 0.03 -0.02 0.03 0 0zm-29.27 33.43l29.01 -33.65 0.26 0.22 -29.01 33.66 -0.01 0 -0.25 -0.23zm-0.7 0.3l0.22 -0.26 0 0 0.01 0.01 0.02 0.01 0.01 0.01 0.01 0.01 0.02 0.01 0.02 0.01 0.01 0 0.02 0.01 0.01 0 0.02 0 0.02 0.01 0.01 0 0.02 0 0.01 0 0.02 0 0.01 0 0.02 0 0.02 0 0.02 -0.01 0.01 0 0.02 0 0.01 -0.01 0.02 -0.01 0.02 0 0.01 -0.01 0.01 -0.01 0.02 -0.01 0.01 -0.01 0.01 -0.01 0.02 -0.01 0.01 -0.01 0.01 -0.02 0.25 0.23 -0.02 0.02 -0.02 0.03 -0.03 0.02 -0.02 0.02 -0.03 0.02 -0.03 0.02 -0.03 0.01 -0.03 0.02 -0.03 0.01 -0.03 0.02 -0.03 0.01 -0.03 0.01 -0.03 0 -0.03 0.01 -0.04 0 -0.02 0.01 -0.04 0 -0.03 0 -0.04 0 -0.03 0 -0.03 -0.01 -0.03 0 -0.03 -0.01 -0.04 -0.01 -0.03 -0.01 -0.03 -0.01 -0.02 -0.02 -0.04 -0.01 -0.03 -0.02 -0.02 -0.02 -0.03 -0.02 -0.03 -0.02 0 0zm-0.11 -0.54l0.33 0.28 -0.22 0.26 -0.33 -0.28 0 0 0.22 -0.26zm-0.29 -0.7l0.25 0.22 0 0 -0.01 0.01 -0.01 0.02 -0.01 0.01 -0.01 0.02 0 0.01 -0.01 0.02 -0.01 0.01 0 0.01 -0.01 0.02 0 0.02 0 0.02 -0.01 0.01 0 0.01 0 0.02 0 0.02 0 0.02 0 0.01 0.01 0.02 0 0.01 0 0.02 0.01 0.02 0 0.01 0.01 0.02 0.01 0.01 0.01 0.02 0 0.01 0.01 0.02 0.01 0.01 0.01 0.01 0.02 0.02 0.01 0.01 0.01 0.01 -0.22 0.26 -0.02 -0.03 -0.03 -0.02 -0.02 -0.03 -0.02 -0.02 -0.02 -0.03 -0.02 -0.03 -0.02 -0.03 -0.01 -0.03 -0.02 -0.03 -0.01 -0.03 -0.01 -0.03 -0.01 -0.03 -0.01 -0.03 -0.01 -0.03 0 -0.04 0 -0.03 0 -0.03 0 -0.03 0 -0.03 0 -0.04 0 -0.03 0.01 -0.03 0.01 -0.03 0.01 -0.03 0.01 -0.03 0.01 -0.04 0.01 -0.03 0.02 -0.03 0.02 -0.03 0.01 -0.03 0.03 -0.02 0.02 -0.03 0 0z"/>
  </g>
  <g>
   <path class="fil0" d="M92.95 19.85c1.55,-1.13 3.73,-0.8 4.86,0.76 1.14,1.55 0.8,3.72 -0.75,4.86 -1.55,1.14 -3.73,0.8 -4.86,-0.75 -1.14,-1.55 -0.8,-3.73 0.75,-4.87z"/>
   <path id="1" class="fil1" d="M97.95 20.51l-0.27 0.2 0 0 -0.11 -0.14 -0.11 -0.13 -0.11 -0.12 -0.12 -0.11 -0.12 -0.11 -0.13 -0.1 -0.14 -0.1 -0.13 -0.08 -0.14 -0.08 -0.15 -0.07 -0.14 -0.07 -0.15 -0.05 -0.15 -0.05 -0.16 -0.05 -0.15 -0.03 -0.16 -0.03 -0.15 -0.02 -0.16 -0.01 -0.16 -0.01 -0.16 0 -0.16 0.01 -0.16 0.02 -0.16 0.02 -0.16 0.04 -0.15 0.04 -0.16 0.05 -0.15 0.05 -0.15 0.07 -0.15 0.07 -0.15 0.08 -0.14 0.09 -0.14 0.1 -0.2 -0.27 0.15 -0.11 0.16 -0.1 0.16 -0.09 0.17 -0.08 0.16 -0.07 0.17 -0.06 0.17 -0.06 0.18 -0.04 0.17 -0.04 0.17 -0.02 0.18 -0.02 0.17 -0.02 0.18 0 0.18 0.01 0.17 0.01 0.17 0.02 0.18 0.04 0.17 0.04 0.17 0.04 0.16 0.06 0.17 0.06 0.16 0.07 0.16 0.08 0.15 0.09 0.15 0.09 0.15 0.11 0.14 0.11 0.14 0.12 0.13 0.12 0.13 0.14 0.12 0.14 0.11 0.15 0 0zm-0.79 5.1l-0.2 -0.28 0 0 0.14 -0.1 0.13 -0.11 0.12 -0.11 0.11 -0.12 0.11 -0.13 0.1 -0.13 0.09 -0.13 0.09 -0.14 0.08 -0.14 0.07 -0.14 0.07 -0.15 0.05 -0.15 0.05 -0.15 0.05 -0.15 0.03 -0.16 0.03 -0.15 0.02 -0.16 0.01 -0.16 0.01 -0.16 0 -0.16 -0.01 -0.16 -0.02 -0.15 -0.03 -0.16 -0.03 -0.16 -0.04 -0.16 -0.05 -0.15 -0.06 -0.16 -0.06 -0.15 -0.07 -0.14 -0.08 -0.15 -0.09 -0.14 -0.1 -0.14 0.27 -0.2 0.11 0.15 0.1 0.16 0.09 0.16 0.08 0.16 0.07 0.17 0.06 0.17 0.05 0.17 0.05 0.17 0.04 0.18 0.02 0.17 0.02 0.18 0.01 0.17 0.01 0.18 -0.01 0.17 -0.01 0.18 -0.03 0.17 -0.03 0.17 -0.04 0.17 -0.04 0.17 -0.06 0.17 -0.06 0.16 -0.07 0.16 -0.08 0.16 -0.09 0.15 -0.1 0.16 -0.1 0.14 -0.11 0.15 -0.12 0.13 -0.12 0.13 -0.14 0.13 -0.14 0.12 -0.15 0.12 0 0zm-5.1 -0.79l0.27 -0.2 0 0 0.11 0.14 0.11 0.12 0.11 0.12 0.12 0.12 0.13 0.11 0.13 0.1 0.13 0.09 0.14 0.09 0.14 0.08 0.14 0.07 0.15 0.06 0.15 0.06 0.15 0.05 0.15 0.04 0.15 0.04 0.16 0.03 0.16 0.02 0.16 0.01 0.15 0.01 0.17 -0.01 0.16 -0.01 0.15 -0.01 0.16 -0.03 0.16 -0.03 0.16 -0.04 0.15 -0.05 0.15 -0.06 0.16 -0.06 0.14 -0.08 0.15 -0.08 0.14 -0.09 0.14 -0.1 0.2 0.28 -0.15 0.1 -0.16 0.1 -0.16 0.09 -0.16 0.08 -0.17 0.07 -0.17 0.07 -0.17 0.05 -0.17 0.05 -0.18 0.03 -0.17 0.03 -0.18 0.02 -0.17 0.01 -0.18 0 -0.17 0 -0.18 -0.02 -0.17 -0.02 -0.17 -0.03 -0.17 -0.04 -0.17 -0.05 -0.17 -0.05 -0.16 -0.07 -0.16 -0.07 -0.16 -0.08 -0.16 -0.08 -0.15 -0.1 -0.14 -0.1 -0.15 -0.11 -0.13 -0.12 -0.14 -0.13 -0.12 -0.13 -0.12 -0.14 -0.12 -0.15 0 0zm0.79 -5.1l0.2 0.27 0 0 -0.14 0.1 -0.12 0.11 -0.13 0.12 -0.11 0.12 -0.11 0.12 -0.1 0.13 -0.09 0.13 -0.09 0.14 -0.08 0.14 -0.07 0.14 -0.06 0.15 -0.06 0.15 -0.05 0.15 -0.04 0.15 -0.04 0.16 -0.03 0.16 -0.02 0.15 -0.01 0.16 -0.01 0.16 0.01 0.16 0.01 0.16 0.01 0.16 0.03 0.16 0.03 0.15 0.04 0.16 0.05 0.16 0.06 0.15 0.06 0.15 0.08 0.15 0.08 0.14 0.09 0.15 0.09 0.14 -0.27 0.2 -0.11 -0.16 -0.09 -0.15 -0.09 -0.16 -0.08 -0.17 -0.07 -0.17 -0.07 -0.17 -0.05 -0.16 -0.05 -0.18 -0.03 -0.17 -0.03 -0.18 -0.02 -0.17 -0.01 -0.18 0 -0.17 0 -0.18 0.02 -0.17 0.02 -0.18 0.03 -0.17 0.04 -0.17 0.05 -0.17 0.05 -0.16 0.07 -0.17 0.07 -0.16 0.08 -0.16 0.08 -0.15 0.1 -0.15 0.1 -0.15 0.11 -0.14 0.12 -0.14 0.13 -0.13 0.13 -0.13 0.14 -0.12 0.15 -0.11 0 0z"/>
  </g>
  <g>
   <path class="fil8" d="M93.64 20.43c0.34,-0.25 0.78,-0.23 0.98,0.04 0.2,0.27 0.09,0.7 -0.25,0.95 -0.35,0.25 -0.78,0.23 -0.98,-0.05 -0.21,-0.27 -0.09,-0.69 0.25,-0.94z"/>
   <path id="1" class="fil1" d="M94.76 20.37l-0.28 0.2 0 0 -0.01 -0.02 -0.01 -0.02 -0.02 -0.01 -0.01 -0.01 -0.02 -0.02 -0.01 0 -0.02 -0.02 -0.02 -0.01 -0.02 -0.01 -0.02 0 -0.02 -0.01 -0.03 -0.01 -0.02 0 -0.03 0 -0.02 -0.01 -0.02 0 -0.03 0 -0.03 0 -0.02 0 -0.03 0.01 -0.03 0 -0.02 0.01 -0.03 0 -0.03 0.01 -0.03 0.01 -0.02 0.01 -0.03 0.01 -0.03 0.02 -0.03 0.01 -0.03 0.02 -0.02 0.01 -0.03 0.02 -0.2 -0.27 0.04 -0.03 0.04 -0.02 0.04 -0.02 0.04 -0.03 0.04 -0.02 0.04 -0.01 0.04 -0.02 0.04 -0.01 0.04 -0.01 0.04 -0.01 0.04 -0.01 0.04 -0.01 0.05 0 0.04 -0.01 0.04 0 0.04 0 0.05 0.01 0.03 0 0.04 0.01 0.04 0.01 0.04 0.01 0.04 0.01 0.04 0.01 0.04 0.02 0.03 0.02 0.04 0.02 0.03 0.02 0.03 0.03 0.03 0.02 0.04 0.04 0.02 0.03 0.03 0.03 0 0zm-0.29 1.18l-0.2 -0.27 0 0 0.02 -0.02 0.03 -0.02 0.02 -0.02 0.02 -0.02 0.02 -0.02 0.02 -0.03 0.02 -0.02 0.02 -0.02 0.02 -0.03 0.01 -0.03 0.02 -0.02 0.01 -0.02 0.01 -0.03 0.01 -0.02 0.01 -0.03 0 -0.02 0.01 -0.03 0 -0.02 0.01 -0.03 0 -0.02 0 -0.02 0 -0.02 0 -0.03 0 -0.02 -0.01 -0.02 0 -0.02 -0.01 -0.02 -0.01 -0.02 0 -0.02 -0.01 -0.02 -0.01 -0.01 -0.02 -0.02 0.28 -0.2 0.02 0.03 0.02 0.04 0.02 0.04 0.02 0.04 0.01 0.03 0.01 0.04 0.01 0.04 0.01 0.04 0.01 0.05 0 0.03 0 0.04 0 0.04 -0.01 0.05 0 0.04 -0.01 0.04 -0.01 0.04 -0.01 0.03 -0.02 0.04 -0.01 0.04 -0.02 0.04 -0.02 0.04 -0.02 0.04 -0.02 0.03 -0.02 0.04 -0.03 0.03 -0.03 0.04 -0.02 0.03 -0.04 0.03 -0.03 0.04 -0.03 0.02 -0.04 0.04 -0.03 0.02 0 0zm-1.22 -0.08l0.27 -0.2 0 0 0.01 0.02 0.02 0.02 0.01 0.01 0.02 0.01 0.01 0.02 0.02 0.01 0.02 0.01 0.02 0.01 0.02 0.01 0.02 0.01 0.02 0 0.02 0.01 0.03 0 0.02 0.01 0.02 0 0.03 0 0.03 0 0.02 0 0.03 0 0.02 0 0.03 -0.01 0.03 0 0.03 -0.01 0.02 -0.01 0.04 -0.01 0.02 -0.01 0.03 -0.01 0.03 -0.01 0.02 -0.02 0.03 -0.01 0.03 -0.02 0.03 -0.02 0.2 0.27 -0.04 0.03 -0.04 0.02 -0.04 0.03 -0.04 0.02 -0.04 0.02 -0.04 0.01 -0.04 0.02 -0.04 0.01 -0.04 0.02 -0.05 0.01 -0.04 0.01 -0.04 0 -0.04 0.01 -0.04 0 -0.04 0 -0.04 0 -0.05 0 -0.04 -0.01 -0.04 0 -0.04 -0.01 -0.03 -0.01 -0.04 -0.02 -0.04 -0.01 -0.04 -0.02 -0.03 -0.01 -0.04 -0.02 -0.04 -0.03 -0.03 -0.02 -0.03 -0.03 -0.03 -0.03 -0.02 -0.03 -0.03 -0.04 0 0zm0.29 -1.18l0.2 0.27 0 0 -0.03 0.02 -0.02 0.02 -0.02 0.03 -0.03 0.02 -0.02 0.02 -0.02 0.02 -0.02 0.03 -0.01 0.02 -0.02 0.02 -0.01 0.03 -0.02 0.02 -0.01 0.03 -0.01 0.02 -0.01 0.03 -0.01 0.02 -0.01 0.03 0 0.02 -0.01 0.02 0 0.03 0 0.02 -0.01 0.02 0.01 0.03 0 0.02 0 0.02 0 0.02 0.01 0.02 0 0.02 0.01 0.02 0.01 0.02 0.01 0.02 0.01 0.02 0.01 0.01 -0.27 0.2 -0.02 -0.03 -0.03 -0.04 -0.02 -0.03 -0.01 -0.04 -0.02 -0.04 -0.01 -0.04 -0.01 -0.04 -0.01 -0.04 0 -0.04 0 -0.04 0 -0.04 0 -0.04 0 -0.04 0.01 -0.04 0.01 -0.04 0.01 -0.04 0.01 -0.04 0.01 -0.04 0.02 -0.04 0.01 -0.04 0.02 -0.03 0.02 -0.04 0.03 -0.04 0.02 -0.03 0.03 -0.04 0.02 -0.03 0.03 -0.03 0.03 -0.04 0.04 -0.03 0.03 -0.03 0.03 -0.03 0.04 -0.03 0 0z"/>
  </g>
 </g>
</svg>
