<?xml version="1.0" encoding="UTF-8"?>
<!DOCTYPE svg PUBLIC "-//W3C//DTD SVG 1.1//EN" "http://www.w3.org/Graphics/SVG/1.1/DTD/svg11.dtd">
<!-- Creator: CorelDRAW 2018 (64-Bit) -->
<svg xmlns="http://www.w3.org/2000/svg" xml:space="preserve" width="65px" height="67px" version="1.1" style="shape-rendering:geometricPrecision; text-rendering:geometricPrecision; image-rendering:optimizeQuality; fill-rule:evenodd; clip-rule:evenodd"
viewBox="0 0 65.1 66.28"
 xmlns:xlink="http://www.w3.org/1999/xlink">
 <defs>
  <style type="text/css">
   <![CDATA[
    .fil2 {fill:#F5B2B6}
    .fil4 {fill:#F08BB2}
    .fil0 {fill:#C5E3D7}
    .fil3 {fill:#99CFBA}
    .fil1 {fill:#2B2A29;fill-rule:nonzero}
    .fil6 {fill:#6FA691;fill-rule:nonzero}
    .fil5 {fill:#99CFBA;fill-rule:nonzero}
   ]]>
  </style>
 </defs>
 <g id="Слой_x0020_1">
  <metadata id="CorelCorpID_0Corel-Layer"/>
  <g>
   <path class="fil0" d="M27.82 7.07c15.27,0 27.65,12.38 27.65,27.65 0,15.27 -12.38,27.65 -27.65,27.65 -15.27,0 -27.65,-12.38 -27.65,-27.65 0,-15.27 12.38,-27.65 27.65,-27.65z"/>
   <path id="1" class="fil1" d="M55.64 34.72l-0.34 0 0 0 -0.04 -1.41 -0.1 -1.4 -0.18 -1.37 -0.24 -1.35 -0.31 -1.33 -0.37 -1.31 -0.43 -1.28 -0.49 -1.24 -0.55 -1.22 -0.61 -1.19 -0.66 -1.15 -0.71 -1.11 -0.77 -1.08 -0.82 -1.04 -0.86 -1 -0.91 -0.95 -0.95 -0.91 -1 -0.86 -1.04 -0.82 -1.08 -0.77 -1.11 -0.71 -1.15 -0.66 -1.19 -0.61 -1.22 -0.55 -1.24 -0.49 -1.28 -0.43 -1.3 -0.37 -1.33 -0.31 -1.36 -0.24 -1.37 -0.18 -1.4 -0.1 -1.41 -0.04 0 -0.34 1.43 0.04 1.41 0.11 1.4 0.17 1.36 0.25 1.35 0.31 1.32 0.37 1.29 0.44 1.27 0.5 1.23 0.56 1.2 0.61 1.16 0.67 1.13 0.73 1.09 0.77 1.05 0.83 1.01 0.87 0.97 0.92 0.92 0.97 0.88 1.01 0.82 1.05 0.78 1.09 0.72 1.13 0.67 1.16 0.61 1.2 0.56 1.23 0.5 1.27 0.44 1.29 0.37 1.32 0.31 1.35 0.25 1.37 0.17 1.39 0.11 1.41 0.04 1.43 0 0zm-27.82 27.82l0 -0.34 0 0 1.41 -0.03 1.4 -0.11 1.37 -0.17 1.36 -0.24 1.33 -0.31 1.3 -0.37 1.28 -0.43 1.24 -0.5 1.22 -0.54 1.19 -0.61 1.15 -0.66 1.11 -0.72 1.08 -0.77 1.04 -0.81 1 -0.86 0.95 -0.91 0.91 -0.96 0.86 -1 0.82 -1.03 0.77 -1.08 0.71 -1.12 0.66 -1.15 0.61 -1.18 0.55 -1.22 0.49 -1.25 0.43 -1.28 0.37 -1.3 0.31 -1.33 0.24 -1.35 0.18 -1.38 0.1 -1.39 0.04 -1.42 0.34 0 -0.04 1.43 -0.11 1.42 -0.17 1.39 -0.25 1.37 -0.31 1.35 -0.37 1.32 -0.44 1.29 -0.5 1.26 -0.56 1.23 -0.61 1.2 -0.67 1.17 -0.72 1.13 -0.78 1.09 -0.82 1.05 -0.88 1.01 -0.92 0.96 -0.97 0.92 -1.01 0.88 -1.05 0.82 -1.09 0.78 -1.13 0.72 -1.16 0.67 -1.2 0.62 -1.23 0.56 -1.27 0.49 -1.29 0.44 -1.32 0.38 -1.35 0.31 -1.36 0.24 -1.4 0.18 -1.41 0.1 -1.43 0.04 0 0zm-27.82 -27.82l0.34 0 0 0 0.03 1.42 0.11 1.39 0.17 1.38 0.24 1.35 0.31 1.33 0.37 1.3 0.43 1.28 0.5 1.25 0.55 1.22 0.6 1.18 0.66 1.15 0.72 1.12 0.77 1.08 0.81 1.03 0.87 1 0.9 0.96 0.96 0.91 1 0.86 1.04 0.81 1.07 0.77 1.12 0.72 1.15 0.66 1.18 0.61 1.22 0.54 1.25 0.5 1.28 0.43 1.3 0.37 1.33 0.31 1.35 0.24 1.38 0.17 1.39 0.11 1.42 0.03 0 0.34 -1.43 -0.04 -1.41 -0.1 -1.4 -0.18 -1.37 -0.24 -1.34 -0.31 -1.32 -0.38 -1.3 -0.44 -1.26 -0.49 -1.23 -0.56 -1.2 -0.62 -1.17 -0.67 -1.13 -0.72 -1.09 -0.78 -1.05 -0.82 -1.01 -0.88 -0.96 -0.92 -0.92 -0.96 -0.88 -1.01 -0.82 -1.05 -0.78 -1.09 -0.72 -1.13 -0.67 -1.17 -0.62 -1.2 -0.55 -1.23 -0.5 -1.26 -0.44 -1.29 -0.37 -1.32 -0.31 -1.35 -0.25 -1.37 -0.18 -1.39 -0.1 -1.42 -0.04 -1.43 0 0zm27.82 -27.82l0 0.34 0 0 -1.42 0.04 -1.39 0.1 -1.38 0.18 -1.35 0.24 -1.33 0.31 -1.3 0.37 -1.28 0.43 -1.25 0.49 -1.22 0.55 -1.18 0.61 -1.15 0.66 -1.12 0.71 -1.07 0.77 -1.04 0.82 -1 0.86 -0.96 0.91 -0.9 0.95 -0.87 1 -0.81 1.04 -0.77 1.08 -0.72 1.11 -0.66 1.15 -0.6 1.19 -0.55 1.22 -0.5 1.24 -0.43 1.28 -0.37 1.31 -0.31 1.33 -0.24 1.35 -0.17 1.37 -0.11 1.4 -0.03 1.41 -0.34 0 0.04 -1.43 0.1 -1.41 0.18 -1.39 0.25 -1.37 0.31 -1.35 0.37 -1.32 0.44 -1.29 0.5 -1.27 0.55 -1.23 0.62 -1.2 0.67 -1.16 0.72 -1.13 0.78 -1.09 0.82 -1.05 0.88 -1.01 0.92 -0.97 0.96 -0.92 1.01 -0.87 1.05 -0.83 1.09 -0.77 1.13 -0.73 1.17 -0.67 1.2 -0.61 1.23 -0.56 1.26 -0.5 1.3 -0.44 1.32 -0.37 1.34 -0.31 1.37 -0.25 1.4 -0.17 1.41 -0.11 1.43 -0.04 0 0z"/>
  </g>
  <g>
   <path class="fil2" d="M27.82 11.43c12.86,0 23.29,10.43 23.29,23.29 0,12.87 -10.43,23.3 -23.29,23.3 -12.87,0 -23.29,-10.43 -23.29,-23.3 0,-12.86 10.42,-23.29 23.29,-23.29z"/>
   <path id="1" class="fil1" d="M51.28 34.72l-0.34 0 0 0 -0.03 -1.19 -0.09 -1.17 -0.14 -1.16 -0.21 -1.14 -0.26 -1.12 -0.31 -1.09 -0.36 -1.08 -0.41 -1.05 -0.47 -1.02 -0.51 -1 -0.55 -0.97 -0.61 -0.94 -0.64 -0.9 -0.69 -0.88 -0.72 -0.84 -0.77 -0.8 -0.8 -0.76 -0.84 -0.73 -0.88 -0.69 -0.9 -0.64 -0.94 -0.6 -0.97 -0.56 -1 -0.51 -1.02 -0.46 -1.05 -0.42 -1.08 -0.36 -1.09 -0.31 -1.12 -0.26 -1.14 -0.2 -1.16 -0.15 -1.17 -0.09 -1.19 -0.03 0 -0.34 1.21 0.03 1.19 0.09 1.17 0.15 1.16 0.21 1.13 0.26 1.12 0.32 1.09 0.37 1.06 0.42 1.04 0.47 1.01 0.51 0.98 0.57 0.96 0.61 0.92 0.65 0.88 0.7 0.85 0.74 0.82 0.77 0.77 0.82 0.74 0.85 0.7 0.89 0.65 0.92 0.61 0.95 0.57 0.98 0.52 1.01 0.47 1.04 0.42 1.07 0.37 1.09 0.31 1.11 0.26 1.13 0.21 1.16 0.15 1.17 0.09 1.2 0.03 1.2 0 0zm-23.46 23.46l0 -0.33 0 0 1.19 -0.03 1.17 -0.09 1.16 -0.15 1.14 -0.2 1.12 -0.26 1.09 -0.31 1.08 -0.37 1.05 -0.41 1.02 -0.46 1 -0.51 0.97 -0.56 0.94 -0.6 0.9 -0.65 0.88 -0.68 0.84 -0.73 0.8 -0.77 0.77 -0.8 0.72 -0.84 0.69 -0.87 0.64 -0.91 0.61 -0.94 0.55 -0.96 0.51 -1 0.47 -1.03 0.41 -1.05 0.36 -1.07 0.31 -1.1 0.26 -1.12 0.21 -1.14 0.14 -1.15 0.09 -1.18 0.03 -1.19 0.34 0 -0.03 1.21 -0.09 1.19 -0.15 1.18 -0.21 1.15 -0.26 1.14 -0.31 1.11 -0.37 1.09 -0.42 1.07 -0.47 1.03 -0.52 1.02 -0.57 0.98 -0.61 0.95 -0.65 0.92 -0.7 0.89 -0.74 0.85 -0.77 0.81 -0.82 0.78 -0.85 0.74 -0.88 0.69 -0.92 0.66 -0.96 0.61 -0.98 0.56 -1.01 0.52 -1.04 0.47 -1.06 0.42 -1.09 0.37 -1.12 0.32 -1.13 0.26 -1.16 0.2 -1.17 0.15 -1.19 0.09 -1.21 0.03 0 0zm-23.46 -23.46l0.33 0 0 0 0.03 1.19 0.09 1.18 0.15 1.15 0.2 1.14 0.26 1.12 0.31 1.1 0.37 1.07 0.41 1.05 0.46 1.03 0.51 1 0.56 0.96 0.6 0.94 0.65 0.91 0.68 0.87 0.73 0.84 0.77 0.8 0.8 0.77 0.84 0.73 0.87 0.68 0.91 0.65 0.94 0.6 0.97 0.56 0.99 0.51 1.03 0.46 1.05 0.41 1.07 0.37 1.1 0.31 1.12 0.26 1.14 0.2 1.15 0.15 1.18 0.09 1.19 0.03 0 0.33 -1.21 -0.03 -1.19 -0.09 -1.17 -0.15 -1.16 -0.2 -1.13 -0.26 -1.12 -0.32 -1.09 -0.37 -1.06 -0.42 -1.04 -0.47 -1.01 -0.52 -0.99 -0.56 -0.95 -0.61 -0.92 -0.66 -0.89 -0.69 -0.85 -0.74 -0.81 -0.78 -0.78 -0.81 -0.74 -0.85 -0.69 -0.89 -0.66 -0.92 -0.61 -0.95 -0.56 -0.98 -0.52 -1.02 -0.47 -1.03 -0.42 -1.07 -0.37 -1.09 -0.32 -1.11 -0.26 -1.14 -0.2 -1.15 -0.15 -1.18 -0.09 -1.19 -0.03 -1.21 0 0zm23.46 -23.46l0 0.34 0 0 -1.19 0.03 -1.18 0.09 -1.15 0.15 -1.14 0.2 -1.12 0.26 -1.1 0.31 -1.07 0.36 -1.05 0.42 -1.03 0.46 -0.99 0.51 -0.97 0.56 -0.94 0.6 -0.91 0.64 -0.87 0.69 -0.84 0.73 -0.8 0.76 -0.77 0.8 -0.73 0.84 -0.68 0.88 -0.65 0.9 -0.6 0.94 -0.56 0.97 -0.51 1 -0.46 1.02 -0.41 1.05 -0.37 1.08 -0.31 1.09 -0.26 1.12 -0.2 1.14 -0.15 1.16 -0.09 1.17 -0.03 1.19 -0.33 0 0.03 -1.2 0.09 -1.2 0.15 -1.17 0.2 -1.16 0.26 -1.13 0.32 -1.11 0.37 -1.09 0.42 -1.07 0.47 -1.04 0.52 -1.01 0.56 -0.98 0.61 -0.95 0.66 -0.92 0.69 -0.89 0.74 -0.85 0.78 -0.82 0.81 -0.77 0.85 -0.74 0.89 -0.7 0.92 -0.65 0.95 -0.61 0.99 -0.57 1.01 -0.51 1.04 -0.47 1.06 -0.42 1.09 -0.37 1.12 -0.32 1.13 -0.26 1.16 -0.21 1.17 -0.15 1.19 -0.09 1.21 -0.03 0 0z"/>
  </g>
  <g>
   <path class="fil3" d="M27.82 18.59c8.91,0 16.14,7.22 16.14,16.13 0,8.91 -7.23,16.14 -16.14,16.14 -8.91,0 -16.14,-7.23 -16.14,-16.14 0,-8.91 7.23,-16.13 16.14,-16.13z"/>
   <path id="1" class="fil1" d="M44.12 34.72l-0.33 0 0 0 -0.02 -0.82 -0.07 -0.81 -0.1 -0.8 -0.14 -0.79 -0.18 -0.77 -0.21 -0.76 -0.25 -0.74 -0.29 -0.72 -0.32 -0.71 -0.35 -0.69 -0.38 -0.67 -0.42 -0.64 -0.45 -0.63 -0.47 -0.6 -0.5 -0.58 -0.53 -0.56 -0.55 -0.53 -0.58 -0.5 -0.61 -0.47 -0.62 -0.45 -0.65 -0.41 -0.67 -0.39 -0.69 -0.35 -0.71 -0.32 -0.72 -0.29 -0.74 -0.25 -0.76 -0.21 -0.77 -0.18 -0.79 -0.14 -0.8 -0.1 -0.81 -0.06 -0.82 -0.03 0 -0.33 0.84 0.02 0.82 0.06 0.82 0.11 0.81 0.14 0.78 0.18 0.78 0.22 0.75 0.26 0.75 0.29 0.72 0.33 0.7 0.36 0.68 0.39 0.66 0.42 0.64 0.46 0.62 0.48 0.59 0.51 0.57 0.54 0.54 0.57 0.51 0.59 0.48 0.62 0.46 0.64 0.42 0.66 0.4 0.68 0.36 0.7 0.32 0.73 0.3 0.74 0.25 0.75 0.22 0.78 0.18 0.79 0.15 0.8 0.1 0.82 0.06 0.82 0.02 0.84 0 0zm-16.3 16.31l0 -0.34 0 0 0.82 -0.02 0.81 -0.06 0.8 -0.1 0.79 -0.14 0.77 -0.18 0.76 -0.22 0.74 -0.25 0.72 -0.28 0.71 -0.32 0.69 -0.36 0.67 -0.38 0.65 -0.42 0.62 -0.44 0.61 -0.48 0.58 -0.5 0.55 -0.52 0.53 -0.56 0.5 -0.58 0.47 -0.6 0.45 -0.63 0.42 -0.65 0.38 -0.67 0.35 -0.68 0.32 -0.71 0.29 -0.73 0.25 -0.74 0.21 -0.76 0.18 -0.77 0.14 -0.79 0.1 -0.79 0.07 -0.81 0.02 -0.83 0.33 0 -0.02 0.84 -0.06 0.83 -0.1 0.82 -0.15 0.8 -0.18 0.79 -0.22 0.77 -0.25 0.76 -0.3 0.74 -0.32 0.72 -0.36 0.7 -0.4 0.69 -0.42 0.66 -0.46 0.64 -0.48 0.61 -0.51 0.6 -0.54 0.56 -0.57 0.54 -0.59 0.52 -0.62 0.48 -0.64 0.45 -0.66 0.43 -0.68 0.39 -0.7 0.36 -0.72 0.33 -0.75 0.29 -0.75 0.26 -0.78 0.22 -0.78 0.18 -0.81 0.14 -0.82 0.1 -0.82 0.07 -0.84 0.02 0 0zm-16.31 -16.31l0.34 0 0 0 0.02 0.83 0.06 0.81 0.1 0.79 0.14 0.79 0.18 0.77 0.22 0.76 0.25 0.74 0.29 0.73 0.31 0.71 0.36 0.68 0.38 0.67 0.42 0.65 0.44 0.63 0.48 0.6 0.5 0.58 0.53 0.56 0.55 0.52 0.58 0.51 0.6 0.47 0.63 0.44 0.65 0.42 0.67 0.38 0.69 0.36 0.7 0.32 0.73 0.28 0.74 0.25 0.76 0.22 0.77 0.18 0.79 0.14 0.8 0.1 0.81 0.06 0.82 0.02 0 0.34 -0.84 -0.02 -0.83 -0.07 -0.82 -0.1 -0.8 -0.14 -0.79 -0.18 -0.77 -0.22 -0.76 -0.26 -0.74 -0.29 -0.72 -0.33 -0.7 -0.36 -0.69 -0.39 -0.66 -0.43 -0.64 -0.45 -0.61 -0.49 -0.59 -0.51 -0.57 -0.54 -0.54 -0.56 -0.51 -0.6 -0.49 -0.61 -0.45 -0.64 -0.43 -0.66 -0.39 -0.69 -0.36 -0.7 -0.33 -0.72 -0.29 -0.74 -0.25 -0.76 -0.22 -0.77 -0.18 -0.79 -0.15 -0.8 -0.1 -0.82 -0.06 -0.83 -0.03 -0.84 0 0zm16.31 -16.3l0 0.33 0 0 -0.82 0.03 -0.81 0.06 -0.8 0.1 -0.79 0.14 -0.77 0.18 -0.76 0.21 -0.74 0.25 -0.73 0.29 -0.7 0.32 -0.69 0.35 -0.67 0.39 -0.65 0.41 -0.63 0.45 -0.6 0.47 -0.58 0.5 -0.55 0.53 -0.53 0.56 -0.5 0.58 -0.48 0.6 -0.44 0.63 -0.42 0.64 -0.38 0.67 -0.36 0.69 -0.31 0.71 -0.29 0.72 -0.25 0.74 -0.22 0.76 -0.18 0.77 -0.14 0.79 -0.1 0.8 -0.06 0.81 -0.02 0.82 -0.34 0 0.03 -0.84 0.06 -0.82 0.1 -0.82 0.15 -0.8 0.18 -0.79 0.22 -0.78 0.25 -0.75 0.29 -0.74 0.33 -0.73 0.36 -0.7 0.39 -0.68 0.43 -0.66 0.45 -0.64 0.49 -0.62 0.51 -0.59 0.54 -0.57 0.57 -0.54 0.59 -0.51 0.61 -0.48 0.64 -0.46 0.66 -0.42 0.69 -0.39 0.7 -0.36 0.72 -0.33 0.74 -0.29 0.76 -0.26 0.77 -0.22 0.79 -0.18 0.8 -0.14 0.82 -0.11 0.83 -0.06 0.84 -0.02 0 0z"/>
  </g>
  <g>
   <path class="fil4" d="M27.82 29.14c3.08,0 5.58,2.5 5.58,5.58 0,3.09 -2.5,5.59 -5.58,5.59 -3.09,0 -5.59,-2.5 -5.59,-5.59 0,-3.08 2.5,-5.58 5.59,-5.58z"/>
   <path id="1" class="fil1" d="M33.57 34.72l-0.33 0 0 0 -0.01 -0.28 -0.02 -0.27 -0.04 -0.27 -0.04 -0.27 -0.06 -0.26 -0.08 -0.26 -0.08 -0.25 -0.1 -0.25 -0.11 -0.24 -0.12 -0.23 -0.13 -0.23 -0.14 -0.22 -0.15 -0.21 -0.16 -0.2 -0.17 -0.2 -0.18 -0.19 -0.19 -0.18 -0.19 -0.17 -0.21 -0.16 -0.21 -0.15 -0.22 -0.14 -0.23 -0.13 -0.23 -0.12 -0.24 -0.11 -0.25 -0.1 -0.25 -0.08 -0.26 -0.07 -0.26 -0.07 -0.27 -0.04 -0.27 -0.04 -0.27 -0.02 -0.28 -0.01 0 -0.33 0.29 0 0.3 0.03 0.29 0.03 0.28 0.06 0.28 0.06 0.27 0.08 0.27 0.09 0.26 0.1 0.25 0.12 0.25 0.12 0.24 0.14 0.24 0.15 0.22 0.16 0.22 0.17 0.21 0.18 0.2 0.19 0.19 0.2 0.18 0.21 0.17 0.22 0.16 0.22 0.15 0.24 0.14 0.24 0.13 0.25 0.11 0.25 0.1 0.26 0.09 0.27 0.08 0.27 0.07 0.28 0.05 0.29 0.03 0.28 0.03 0.3 0 0.29 0 0zm-5.75 5.76l0 -0.34 0 0 0.28 0 0.27 -0.03 0.27 -0.03 0.27 -0.05 0.26 -0.06 0.26 -0.07 0.25 -0.09 0.25 -0.09 0.24 -0.11 0.23 -0.12 0.23 -0.13 0.22 -0.14 0.21 -0.16 0.21 -0.16 0.19 -0.17 0.19 -0.18 0.18 -0.18 0.17 -0.2 0.16 -0.2 0.15 -0.22 0.14 -0.22 0.13 -0.22 0.12 -0.24 0.11 -0.24 0.1 -0.24 0.08 -0.25 0.08 -0.26 0.06 -0.27 0.04 -0.26 0.04 -0.27 0.02 -0.28 0.01 -0.28 0.33 0 0 0.3 -0.03 0.29 -0.03 0.29 -0.05 0.28 -0.07 0.28 -0.08 0.27 -0.09 0.27 -0.1 0.26 -0.11 0.26 -0.13 0.25 -0.14 0.24 -0.15 0.23 -0.16 0.23 -0.17 0.21 -0.18 0.21 -0.19 0.2 -0.2 0.19 -0.21 0.18 -0.22 0.18 -0.22 0.16 -0.24 0.15 -0.24 0.13 -0.25 0.13 -0.25 0.12 -0.26 0.1 -0.27 0.09 -0.27 0.08 -0.28 0.06 -0.28 0.05 -0.29 0.04 -0.3 0.02 -0.29 0.01 0 0zm-5.76 -5.76l0.34 0 0 0 0.01 0.28 0.02 0.28 0.03 0.27 0.05 0.26 0.06 0.27 0.07 0.25 0.09 0.26 0.1 0.24 0.1 0.24 0.12 0.24 0.13 0.22 0.15 0.22 0.15 0.22 0.16 0.2 0.17 0.2 0.18 0.18 0.18 0.18 0.2 0.17 0.21 0.16 0.21 0.16 0.22 0.14 0.23 0.13 0.23 0.12 0.24 0.11 0.25 0.09 0.25 0.09 0.26 0.07 0.26 0.06 0.26 0.05 0.28 0.03 0.27 0.03 0.28 0 0 0.34 -0.3 -0.01 -0.29 -0.02 -0.29 -0.04 -0.28 -0.05 -0.28 -0.06 -0.27 -0.08 -0.27 -0.09 -0.26 -0.1 -0.26 -0.12 -0.24 -0.13 -0.25 -0.13 -0.23 -0.15 -0.23 -0.16 -0.21 -0.18 -0.21 -0.18 -0.2 -0.19 -0.19 -0.2 -0.18 -0.21 -0.17 -0.21 -0.16 -0.23 -0.15 -0.23 -0.14 -0.24 -0.13 -0.25 -0.11 -0.26 -0.11 -0.26 -0.09 -0.26 -0.08 -0.28 -0.06 -0.28 -0.05 -0.28 -0.04 -0.29 -0.02 -0.29 -0.01 -0.3 0 0zm5.76 -5.75l0 0.33 0 0 -0.28 0.01 -0.27 0.02 -0.28 0.04 -0.26 0.04 -0.26 0.07 -0.26 0.07 -0.25 0.08 -0.25 0.1 -0.24 0.11 -0.23 0.12 -0.23 0.13 -0.22 0.14 -0.21 0.15 -0.21 0.16 -0.2 0.17 -0.18 0.18 -0.18 0.19 -0.17 0.2 -0.16 0.2 -0.15 0.21 -0.15 0.22 -0.13 0.23 -0.12 0.23 -0.1 0.24 -0.1 0.25 -0.09 0.25 -0.07 0.26 -0.06 0.26 -0.05 0.27 -0.03 0.27 -0.02 0.27 -0.01 0.28 -0.34 0 0.01 -0.29 0.02 -0.3 0.04 -0.28 0.05 -0.29 0.06 -0.28 0.08 -0.27 0.09 -0.27 0.11 -0.26 0.11 -0.25 0.13 -0.25 0.14 -0.24 0.15 -0.24 0.16 -0.22 0.17 -0.22 0.18 -0.21 0.19 -0.2 0.2 -0.19 0.21 -0.18 0.21 -0.17 0.23 -0.16 0.23 -0.15 0.25 -0.14 0.24 -0.12 0.26 -0.12 0.26 -0.1 0.27 -0.09 0.27 -0.08 0.28 -0.06 0.28 -0.06 0.29 -0.03 0.29 -0.03 0.3 0 0 0z"/>
  </g>
  <g>
   <path class="fil5" d="M57.72 3.12c-0.01,-0.49 0.39,-0.89 0.88,-0.89 0.49,-0.01 0.89,0.38 0.9,0.87l0.8 62.12c0,0.49 -0.39,0.89 -0.88,0.9 -0.49,0 -0.89,-0.39 -0.9,-0.88l-0.8 -62.12z"/>
   <path id="1" class="fil1" d="M58.59 2.06l0.01 0.33 0 0 -0.04 0.01 -0.03 0 -0.04 0 -0.03 0.01 -0.04 0.01 -0.03 0.01 -0.04 0.01 -0.03 0.01 -0.03 0.02 -0.03 0.02 -0.03 0.01 -0.03 0.02 -0.03 0.02 -0.03 0.02 -0.02 0.03 -0.03 0.02 -0.02 0.03 -0.02 0.02 -0.02 0.03 -0.02 0.03 -0.02 0.03 -0.02 0.03 -0.01 0.03 -0.02 0.03 -0.01 0.04 -0.01 0.03 -0.01 0.03 -0.01 0.04 0 0.03 -0.01 0.04 0 0.04 0 0.03 -0.34 0.01 0 -0.06 0.01 -0.05 0 -0.06 0.01 -0.05 0.01 -0.05 0.02 -0.05 0.01 -0.05 0.02 -0.05 0.02 -0.04 0.02 -0.05 0.03 -0.04 0.03 -0.05 0.02 -0.04 0.04 -0.04 0.03 -0.04 0.03 -0.03 0.04 -0.04 0.04 -0.03 0.04 -0.03 0.04 -0.03 0.04 -0.03 0.04 -0.03 0.05 -0.02 0.05 -0.02 0.04 -0.02 0.05 -0.02 0.05 -0.02 0.05 -0.01 0.06 -0.01 0.05 0 0.05 -0.01 0.06 0 -0.01 0zm0.01 0.33l0 0 0 0 0 0zm1.06 0.71l-0.33 0.01 0 0 0 -0.04 -0.01 -0.04 0 -0.03 -0.01 -0.04 -0.01 -0.03 -0.01 -0.04 -0.01 -0.03 -0.01 -0.03 -0.02 -0.04 -0.01 -0.03 -0.02 -0.03 -0.02 -0.03 -0.02 -0.02 -0.02 -0.03 -0.03 -0.03 -0.02 -0.02 -0.02 -0.02 -0.03 -0.03 -0.03 -0.02 -0.03 -0.02 -0.03 -0.01 -0.03 -0.02 -0.03 -0.02 -0.03 -0.01 -0.03 -0.01 -0.04 -0.02 -0.03 0 -0.04 -0.01 -0.03 -0.01 -0.04 0 -0.03 0 -0.04 -0.01 -0.01 -0.33 0.06 0 0.05 0 0.06 0.01 0.05 0.01 0.05 0.01 0.05 0.01 0.05 0.02 0.05 0.02 0.04 0.02 0.05 0.02 0.04 0.02 0.05 0.03 0.04 0.03 0.04 0.03 0.04 0.03 0.04 0.04 0.03 0.04 0.03 0.03 0.04 0.04 0.03 0.04 0.02 0.05 0.03 0.04 0.02 0.05 0.02 0.04 0.02 0.05 0.02 0.05 0.02 0.05 0.01 0.05 0.01 0.05 0.01 0.05 0 0.06 0 0.05 0 0zm0.47 62.12l-0.8 -62.11 0.33 -0.01 0.81 62.12 0 0 -0.34 0zm-0.71 1.06l0 -0.33 0 0 0.04 0 0.03 -0.01 0.04 0 0.03 -0.01 0.04 -0.01 0.03 -0.01 0.04 -0.01 0.03 -0.01 0.03 -0.02 0.03 -0.01 0.03 -0.02 0.03 -0.02 0.03 -0.02 0.02 -0.02 0.03 -0.03 0.03 -0.02 0.02 -0.02 0.02 -0.03 0.02 -0.03 0.02 -0.03 0.02 -0.03 0.02 -0.03 0.01 -0.03 0.02 -0.03 0.01 -0.03 0.01 -0.04 0.01 -0.03 0.01 -0.04 0 -0.03 0.01 -0.04 0 -0.03 0 -0.04 0.34 0 -0.01 0.05 0 0.05 0 0.06 -0.01 0.05 -0.01 0.05 -0.02 0.05 -0.01 0.05 -0.02 0.05 -0.02 0.04 -0.03 0.05 -0.02 0.04 -0.03 0.05 -0.03 0.04 -0.03 0.04 -0.03 0.04 -0.04 0.04 -0.03 0.03 -0.04 0.03 -0.04 0.04 -0.04 0.03 -0.04 0.02 -0.04 0.03 -0.05 0.03 -0.05 0.01 -0.04 0.02 -0.05 0.02 -0.05 0.02 -0.05 0.01 -0.06 0.01 -0.05 0.01 -0.05 0 -0.06 0 0 0zm-1.07 -1.04l0.34 0 0 0 0 0.03 0 0.04 0.01 0.04 0.01 0.03 0 0.03 0.02 0.04 0.01 0.03 0.01 0.04 0.02 0.03 0.01 0.03 0.02 0.03 0.02 0.03 0.02 0.02 0.02 0.03 0.02 0.03 0.03 0.02 0.02 0.03 0.03 0.02 0.03 0.02 0.03 0.02 0.02 0.02 0.03 0.01 0.03 0.02 0.04 0.01 0.03 0.02 0.03 0.01 0.04 0.01 0.03 0 0.04 0.01 0.03 0 0.04 0.01 0.04 0 0 0.33 -0.05 0 -0.05 0 -0.06 -0.01 -0.05 -0.01 -0.05 -0.01 -0.05 -0.01 -0.05 -0.02 -0.05 -0.02 -0.05 -0.02 -0.04 -0.02 -0.05 -0.02 -0.04 -0.03 -0.04 -0.03 -0.04 -0.03 -0.04 -0.03 -0.04 -0.04 -0.03 -0.03 -0.04 -0.04 -0.03 -0.04 -0.03 -0.04 -0.03 -0.04 -0.02 -0.05 -0.03 -0.04 -0.02 -0.05 -0.02 -0.05 -0.01 -0.05 -0.02 -0.05 -0.01 -0.05 -0.01 -0.05 -0.01 -0.05 0 -0.06 -0.01 -0.05 0 0zm-0.46 -62.12l0.8 62.12 -0.34 0 -0.8 -62.11 0 0 0.34 -0.01z"/>
  </g>
  <g>
   <path class="fil6" d="M64.67 60.79c0.35,0.35 0.34,0.91 -0.01,1.25 -0.35,0.35 -0.91,0.34 -1.25,-0.01l-4.03 -4.09 -4.99 4.29c-0.37,0.32 -0.93,0.28 -1.25,-0.09 -0.32,-0.38 -0.28,-0.94 0.1,-1.26l6.24 -5.37 5.19 5.28z"/>
   <path id="1" class="fil1" d="M64.78 62.16l-0.23 -0.24 0 0 0.02 -0.02 0.03 -0.03 0.02 -0.03 0.02 -0.03 0.02 -0.03 0.02 -0.03 0.01 -0.03 0.02 -0.03 0.01 -0.04 0.01 -0.03 0.01 -0.03 0.01 -0.03 0 -0.04 0.01 -0.04 0 -0.03 0 -0.03 0 -0.04 0 -0.03 -0.01 -0.04 0 -0.03 -0.01 -0.04 -0.01 -0.03 -0.01 -0.03 -0.01 -0.03 -0.01 -0.04 -0.02 -0.03 -0.01 -0.03 -0.02 -0.03 -0.02 -0.03 -0.03 -0.03 -0.02 -0.03 -0.03 -0.02 0.24 -0.24 0.04 0.04 0.04 0.04 0.03 0.04 0.03 0.05 0.03 0.04 0.02 0.05 0.02 0.05 0.02 0.04 0.02 0.05 0.02 0.05 0.01 0.05 0.01 0.05 0.01 0.05 0 0.05 0.01 0.05 0 0.05 0 0.05 -0.01 0.05 0 0.05 -0.01 0.05 -0.01 0.05 -0.02 0.05 -0.01 0.05 -0.02 0.05 -0.02 0.04 -0.03 0.05 -0.02 0.05 -0.03 0.04 -0.03 0.04 -0.04 0.04 -0.03 0.04 -0.04 0.04 0 0zm-0.23 -0.24l0 0 -0.18 0.17 0.18 -0.17zm-1.26 0.23l0.24 -0.23 0 0 0.02 0.02 0.03 0.03 0.03 0.02 0.03 0.02 0.03 0.02 0.03 0.02 0.03 0.01 0.04 0.02 0.03 0.01 0.03 0.01 0.03 0.01 0.04 0.01 0.03 0 0.04 0.01 0.03 0 0.04 0 0.03 0 0.03 0 0.04 -0.01 0.03 0 0.04 -0.01 0.03 -0.01 0.03 -0.01 0.04 -0.01 0.03 -0.01 0.03 -0.02 0.03 -0.02 0.03 -0.01 0.03 -0.02 0.03 -0.03 0.03 -0.02 0.03 -0.03 0.23 0.24 -0.04 0.04 -0.04 0.04 -0.04 0.03 -0.04 0.03 -0.05 0.03 -0.04 0.02 -0.05 0.02 -0.05 0.02 -0.05 0.02 -0.05 0.02 -0.04 0.01 -0.05 0.01 -0.06 0.01 -0.04 0 -0.06 0.01 -0.05 0 -0.05 0 -0.05 -0.01 -0.05 0 -0.05 -0.01 -0.05 -0.02 -0.05 -0.01 -0.04 -0.01 -0.05 -0.02 -0.05 -0.02 -0.05 -0.03 -0.04 -0.02 -0.05 -0.03 -0.04 -0.03 -0.04 -0.04 -0.04 -0.03 -0.04 -0.04 0 0zm-3.79 -4.32l4.03 4.09 -0.24 0.23 -4.03 -4.09 0.01 -0.24 0.23 0.01zm-0.23 -0.01l0.12 -0.11 0.11 0.12 -0.23 -0.01zm-4.99 4.28l4.99 -4.28 0.22 0.25 -4.99 4.29 0 0 -0.22 -0.26zm0.22 0.26l0 0 0 0 0 0zm-1.49 -0.12l0.26 -0.21 0 0 0.02 0.02 0.03 0.03 0.03 0.02 0.02 0.03 0.03 0.02 0.03 0.02 0.03 0.02 0.03 0.01 0.03 0.02 0.04 0.01 0.03 0.01 0.03 0.01 0.04 0.01 0.03 0.01 0.04 0 0.03 0.01 0.03 0 0.04 0 0.03 0 0.04 -0.01 0.03 0 0.04 -0.01 0.03 -0.01 0.03 -0.01 0.04 -0.01 0.03 -0.01 0.03 -0.02 0.03 -0.01 0.04 -0.02 0.03 -0.02 0.03 -0.02 0.02 -0.03 0.22 0.26 -0.04 0.03 -0.04 0.04 -0.05 0.03 -0.04 0.02 -0.05 0.03 -0.05 0.02 -0.04 0.02 -0.05 0.02 -0.05 0.01 -0.05 0.01 -0.05 0.01 -0.05 0.01 -0.05 0 -0.06 0 -0.05 0 -0.05 0 -0.05 0 -0.05 -0.01 -0.05 -0.01 -0.05 -0.01 -0.05 -0.02 -0.05 -0.02 -0.04 -0.02 -0.05 -0.02 -0.04 -0.02 -0.05 -0.03 -0.04 -0.03 -0.04 -0.03 -0.04 -0.03 -0.04 -0.04 -0.04 -0.04 -0.04 -0.04 0 0zm0.26 -0.21l0 0 0 0 0 0zm-0.14 -1.28l0.22 0.26 0 0 -0.03 0.03 -0.03 0.02 -0.02 0.03 -0.02 0.03 -0.02 0.03 -0.02 0.03 -0.02 0.02 -0.02 0.04 -0.01 0.03 -0.02 0.03 -0.01 0.03 -0.01 0.04 -0.01 0.03 0 0.03 -0.01 0.04 0 0.03 -0.01 0.04 0 0.03 0.01 0.04 0 0.03 0 0.03 0.01 0.04 0.01 0.03 0.01 0.03 0.01 0.04 0.01 0.03 0.02 0.03 0.01 0.03 0.02 0.04 0.02 0.03 0.02 0.03 0.03 0.03 -0.26 0.21 -0.03 -0.04 -0.03 -0.04 -0.03 -0.04 -0.03 -0.05 -0.02 -0.05 -0.03 -0.05 -0.02 -0.04 -0.01 -0.05 -0.02 -0.05 -0.01 -0.05 -0.01 -0.05 0 -0.05 -0.01 -0.05 0 -0.05 0 -0.05 0 -0.06 0.01 -0.04 0 -0.05 0.01 -0.05 0.02 -0.05 0.01 -0.05 0.02 -0.05 0.02 -0.05 0.02 -0.05 0.02 -0.04 0.03 -0.05 0.03 -0.04 0.03 -0.04 0.03 -0.04 0.04 -0.04 0.04 -0.04 0.04 -0.04 0 0zm0.22 0.26l0 0 0 0 0 0zm6.24 -5.37l-6.24 5.37 -0.22 -0.26 6.24 -5.36 0.23 0.01 -0.01 0.24zm-0.22 -0.25l0.12 -0.11 0.11 0.12 -0.23 -0.01zm5.18 5.52l-5.19 -5.28 0.24 -0.23 5.19 5.27 0 0 -0.24 0.24zm0.24 -0.24l0 0 -0.45 -0.46 0.45 0.46z"/>
  </g>
  <g>
   <path class="fil6" d="M64.53 56.06c0.34,0.35 0.34,0.91 -0.01,1.25 -0.35,0.35 -0.91,0.34 -1.26,-0.01l-4.03 -4.09 -4.98 4.29c-0.38,0.32 -0.94,0.28 -1.26,-0.1 -0.32,-0.37 -0.27,-0.93 0.1,-1.25l6.24 -5.37 5.2 5.28z"/>
   <path id="1" class="fil1" d="M64.64 57.43l-0.24 -0.24 0 0 0.02 -0.02 0.03 -0.03 0.02 -0.03 0.02 -0.03 0.02 -0.03 0.02 -0.03 0.01 -0.03 0.02 -0.04 0.01 -0.03 0.01 -0.03 0.01 -0.03 0.01 -0.04 0.01 -0.03 0 -0.04 0 -0.03 0 -0.04 0 -0.03 0 -0.03 0 -0.04 -0.01 -0.03 -0.01 -0.04 0 -0.03 -0.01 -0.03 -0.02 -0.03 -0.01 -0.04 -0.02 -0.03 -0.01 -0.03 -0.02 -0.03 -0.02 -0.03 -0.02 -0.03 -0.03 -0.03 -0.02 -0.03 0.24 -0.23 0.04 0.04 0.03 0.04 0.03 0.04 0.03 0.05 0.03 0.04 0.03 0.05 0.02 0.04 0.02 0.05 0.01 0.05 0.02 0.05 0.01 0.05 0.01 0.05 0.01 0.05 0.01 0.05 0 0.05 0 0.05 0 0.05 -0.01 0.05 0 0.05 -0.01 0.05 -0.01 0.05 -0.02 0.05 -0.01 0.05 -0.02 0.05 -0.02 0.04 -0.02 0.05 -0.03 0.04 -0.03 0.05 -0.03 0.04 -0.03 0.04 -0.04 0.04 -0.04 0.04 0.01 0zm-0.24 -0.24l0 0 -0.35 0.35 0.35 -0.35zm-1.26 0.23l0.24 -0.24 0 0 0.03 0.03 0.03 0.02 0.02 0.03 0.03 0.02 0.04 0.02 0.02 0.02 0.03 0.01 0.04 0.01 0.03 0.02 0.03 0.01 0.04 0.01 0.03 0 0.04 0.01 0.03 0.01 0.03 0 0.04 0 0.03 0 0.04 0 0.03 -0.01 0.04 0 0.03 -0.01 0.03 -0.01 0.04 -0.01 0.03 -0.01 0.03 -0.01 0.03 -0.02 0.04 -0.02 0.03 -0.02 0.02 -0.01 0.03 -0.03 0.03 -0.02 0.03 -0.03 0.24 0.24 -0.04 0.04 -0.05 0.03 -0.04 0.04 -0.04 0.03 -0.05 0.02 -0.04 0.03 -0.05 0.02 -0.05 0.02 -0.04 0.02 -0.05 0.02 -0.05 0.01 -0.05 0.01 -0.05 0.01 -0.05 0 -0.05 0.01 -0.06 0 -0.04 -0.01 -0.06 0 -0.05 -0.01 -0.04 0 -0.06 -0.02 -0.04 -0.01 -0.05 -0.02 -0.05 -0.02 -0.05 -0.02 -0.05 -0.02 -0.04 -0.03 -0.04 -0.02 -0.05 -0.03 -0.04 -0.04 -0.04 -0.03 -0.04 -0.04 0 0zm0.24 -0.24l0 0 -0.42 -0.42 0.42 0.42zm-4.03 -4.09l4.03 4.09 -0.24 0.24 -4.03 -4.09 0.01 -0.24 0.23 0zm-0.23 0l0.12 -0.11 0.11 0.11 -0.23 0zm-4.98 4.28l4.98 -4.28 0.22 0.25 -4.98 4.29 0 0 -0.22 -0.26zm0.22 0.26l0 0 0 0 0 0zm-1.49 -0.12l0.25 -0.21 0 0 0.03 0.02 0.02 0.03 0.03 0.02 0.03 0.03 0.03 0.02 0.03 0.02 0.03 0.02 0.02 0.01 0.04 0.02 0.03 0.01 0.03 0.01 0.04 0.01 0.03 0.01 0.03 0.01 0.04 0 0.03 0 0.04 0.01 0.03 0 0.04 0 0.03 -0.01 0.04 0 0.03 -0.01 0.03 -0.01 0.04 -0.01 0.03 -0.01 0.03 -0.01 0.04 -0.02 0.03 -0.01 0.03 -0.02 0.03 -0.02 0.03 -0.02 0.03 -0.03 0.22 0.26 -0.05 0.03 -0.04 0.04 -0.04 0.03 -0.05 0.02 -0.05 0.03 -0.04 0.02 -0.05 0.02 -0.05 0.01 -0.05 0.02 -0.05 0.01 -0.05 0.01 -0.05 0.01 -0.05 0 -0.05 0 -0.05 0 -0.05 0 -0.05 -0.01 -0.05 0 -0.05 -0.01 -0.05 -0.01 -0.05 -0.02 -0.05 -0.02 -0.05 -0.02 -0.04 -0.02 -0.05 -0.02 -0.04 -0.03 -0.05 -0.03 -0.04 -0.03 -0.04 -0.03 -0.04 -0.04 -0.04 -0.04 -0.03 -0.04 0 0zm0.25 -0.21l0 0 0 0 0 0zm-0.14 -1.28l0.22 0.26 0 0 -0.03 0.02 -0.02 0.03 -0.03 0.03 -0.02 0.02 -0.02 0.04 -0.02 0.02 -0.02 0.03 -0.02 0.03 -0.01 0.04 -0.01 0.03 -0.01 0.03 -0.02 0.04 0 0.03 -0.01 0.03 -0.01 0.04 0 0.03 0 0.04 0 0.03 0 0.03 0 0.04 0.01 0.03 0 0.04 0.01 0.03 0.01 0.03 0.01 0.04 0.02 0.03 0.01 0.03 0.02 0.03 0.02 0.04 0.02 0.03 0.02 0.03 0.02 0.03 -0.25 0.21 -0.04 -0.04 -0.03 -0.04 -0.03 -0.05 -0.03 -0.04 -0.02 -0.05 -0.02 -0.05 -0.02 -0.04 -0.02 -0.05 -0.01 -0.05 -0.01 -0.05 -0.01 -0.05 -0.01 -0.05 -0.01 -0.05 0 -0.05 0 -0.06 0.01 -0.04 0 -0.06 0.01 -0.05 0.01 -0.04 0.01 -0.05 0.01 -0.05 0.02 -0.05 0.02 -0.05 0.02 -0.05 0.03 -0.04 0.02 -0.05 0.03 -0.04 0.03 -0.04 0.04 -0.04 0.03 -0.04 0.04 -0.04 0.04 -0.04 0 0zm0.22 0.26l0 0 0 0 0 0zm6.24 -5.37l-6.24 5.37 -0.22 -0.26 6.24 -5.36 0.23 0 -0.01 0.25zm-0.22 -0.25l0.12 -0.11 0.11 0.11 -0.23 0zm5.19 5.52l-5.2 -5.28 0.24 -0.24 5.2 5.28 0 0 -0.24 0.24zm0.24 -0.24l0 0 -0.45 -0.46 0.45 0.46z"/>
  </g>
  <g>
   <path class="fil6" d="M63.16 6.66c0.29,0.39 0.2,0.95 -0.2,1.24 -0.39,0.29 -0.95,0.21 -1.24,-0.19l-3.22 -4.4 -3.39 4.72c-0.29,0.4 -0.85,0.49 -1.24,0.21 -0.4,-0.29 -0.49,-0.85 -0.2,-1.24l4.82 -6.71 4.67 6.37z"/>
   <path id="1" class="fil1" d="M63.06 8.04l-0.2 -0.28 0 0.01 0.03 -0.03 0.03 -0.02 0.03 -0.03 0.02 -0.02 0.03 -0.03 0.02 -0.03 0.02 -0.03 0.02 -0.03 0.01 -0.03 0.02 -0.03 0.01 -0.03 0.02 -0.03 0.01 -0.03 0.01 -0.04 0 -0.03 0.01 -0.04 0 -0.03 0.01 -0.03 0 -0.04 0 -0.04 0 -0.03 -0.01 -0.03 0 -0.04 -0.01 -0.03 -0.01 -0.04 -0.01 -0.03 -0.01 -0.03 -0.02 -0.04 -0.01 -0.03 -0.02 -0.03 -0.02 -0.03 -0.02 -0.03 0.27 -0.2 0.03 0.04 0.03 0.05 0.03 0.05 0.02 0.04 0.02 0.05 0.02 0.05 0.01 0.05 0.02 0.05 0.01 0.05 0.01 0.05 0 0.05 0 0.05 0 0.05 0 0.05 0 0.05 -0.01 0.06 -0.01 0.05 -0.01 0.04 -0.01 0.05 -0.02 0.05 -0.02 0.05 -0.02 0.05 -0.02 0.04 -0.02 0.05 -0.03 0.04 -0.03 0.04 -0.03 0.04 -0.04 0.04 -0.03 0.04 -0.04 0.04 -0.04 0.03 -0.05 0.04 0 0zm0 0l0 0 -0.53 0.39 0.53 -0.39zm-1.47 -0.23l0.27 -0.2 0 0 0.02 0.03 0.02 0.03 0.03 0.02 0.02 0.03 0.03 0.02 0.03 0.02 0.03 0.02 0.03 0.02 0.03 0.02 0.03 0.02 0.03 0.01 0.03 0.01 0.04 0.01 0.03 0.01 0.03 0.01 0.04 0 0.03 0.01 0.04 0 0.03 0 0.04 0 0.03 0 0.04 0 0.03 -0.01 0.04 0 0.03 -0.01 0.03 -0.01 0.04 -0.02 0.03 -0.01 0.03 -0.02 0.03 -0.01 0.03 -0.02 0.03 -0.03 0.2 0.28 -0.04 0.03 -0.05 0.03 -0.04 0.02 -0.05 0.03 -0.05 0.02 -0.05 0.02 -0.05 0.01 -0.05 0.01 -0.05 0.01 -0.05 0.01 -0.05 0.01 -0.05 0 -0.05 0 -0.05 0 -0.05 -0.01 -0.05 0 -0.05 -0.01 -0.05 -0.01 -0.05 -0.02 -0.05 -0.01 -0.05 -0.02 -0.05 -0.02 -0.04 -0.02 -0.04 -0.03 -0.05 -0.02 -0.04 -0.04 -0.04 -0.03 -0.04 -0.03 -0.04 -0.04 -0.04 -0.04 -0.03 -0.04 -0.03 -0.04 0 0zm-2.95 -4.6l3.22 4.4 -0.27 0.2 -3.22 -4.4 0 -0.2 0.27 0zm-0.27 0l0.13 -0.19 0.14 0.19 -0.27 0zm-3.4 4.72l3.4 -4.72 0.27 0.2 -3.4 4.72 0 0 -0.27 -0.2zm-1.2 0.44l0.2 -0.27 -0.01 0 0.04 0.02 0.03 0.02 0.03 0.02 0.03 0.01 0.03 0.02 0.04 0.01 0.03 0.01 0.04 0.01 0.03 0 0.03 0.01 0.04 0 0.03 0 0.04 0 0.03 0 0.04 0 0.03 -0.01 0.04 0 0.03 -0.01 0.03 -0.01 0.04 -0.01 0.03 -0.01 0.03 -0.02 0.03 -0.01 0.03 -0.02 0.03 -0.02 0.03 -0.02 0.03 -0.02 0.02 -0.03 0.03 -0.02 0.02 -0.03 0.03 -0.02 0.02 -0.04 0.27 0.2 -0.03 0.04 -0.03 0.04 -0.04 0.04 -0.04 0.04 -0.04 0.04 -0.04 0.03 -0.04 0.03 -0.05 0.03 -0.04 0.02 -0.04 0.03 -0.05 0.02 -0.05 0.01 -0.05 0.02 -0.04 0.02 -0.05 0.01 -0.06 0.01 -0.05 0 -0.04 0.01 -0.05 0 -0.06 0 -0.05 0 -0.05 -0.01 -0.05 0 -0.05 -0.02 -0.05 -0.01 -0.05 -0.01 -0.05 -0.02 -0.05 -0.02 -0.04 -0.02 -0.05 -0.03 -0.05 -0.03 -0.04 -0.03 0 0zm0 0l0 0 -0.17 -0.12 0.17 0.12zm-0.24 -1.47l0.27 0.2 0 0 -0.02 0.03 -0.02 0.03 -0.02 0.03 -0.01 0.03 -0.01 0.03 -0.02 0.04 -0.01 0.03 -0.01 0.03 0 0.04 -0.01 0.03 0 0.04 0 0.03 0 0.04 0 0.03 0 0.04 0.01 0.03 0 0.03 0.01 0.04 0.01 0.03 0.01 0.03 0.01 0.04 0.02 0.03 0.01 0.03 0.02 0.03 0.02 0.03 0.02 0.03 0.02 0.03 0.03 0.02 0.02 0.03 0.03 0.02 0.02 0.03 0.04 0.02 -0.2 0.27 -0.04 -0.03 -0.04 -0.03 -0.04 -0.04 -0.04 -0.04 -0.04 -0.04 -0.03 -0.04 -0.03 -0.04 -0.03 -0.05 -0.02 -0.04 -0.03 -0.04 -0.02 -0.05 -0.01 -0.05 -0.02 -0.05 -0.02 -0.05 -0.01 -0.04 -0.01 -0.05 0 -0.06 -0.01 -0.05 0 -0.05 0 -0.05 0 -0.05 0.01 -0.05 0.01 -0.05 0.01 -0.05 0.01 -0.05 0.01 -0.05 0.02 -0.05 0.02 -0.05 0.03 -0.05 0.02 -0.04 0.03 -0.05 0.03 -0.04 0 0zm0.27 0.2l0 0 0 0 0 0zm4.83 -6.71l-4.83 6.71 -0.27 -0.2 4.83 -6.71 0.27 0 0 0.2zm-0.27 -0.2l0.13 -0.19 0.14 0.19 -0.27 0zm4.66 6.57l-4.66 -6.37 0.27 -0.2 4.66 6.37 -0.27 0.2z"/>
  </g>
 </g>
</svg>
