<svg xmlns="http://www.w3.org/2000/svg" width="64" height="43" fill-rule="evenodd" clip-rule="evenodd" image-rendering="optimizeQuality" shape-rendering="geometricPrecision" text-rendering="geometricPrecision"><defs><style>.fil1,.fil2,.fil4{fill:#2b2a29;fill-rule:nonzero}.fil2,.fil4{fill:#f5b2b6}.fil2{fill:#f08bb2}</style></defs><g id="Слой_x0020_1"><path fill="#a1b567" fill-rule="nonzero" d="M44.48 2.79c3.47 2.02 4.94 7.91 7.99 12.59 3.52 2.06 6.87 1.95 9.4 5.13 2.61 3.3 3.48 7.25.15 12.03-1.75 2.51-7.11 3.08-8.64-1.13-2.21-3.14-9.44-6.58-15 1.95-.97 1.5-2.8 2.34-4.76 2.65-2.32.38-4.33.03-5.88-.8-2.68-1.42-3.73-4.66-5.57-5.64-6.89-5.15-13.76-.19-14.55 4.7-.35.78-.67 1.49-1.01 2.06-.75 1.24-1.56 1.83-2.8 1.05l-.01-.01C1.71 35.93.47 33.55.11 30.94c-.36-2.63.18-5.49 1.69-7.86 1.44-2.26 3.89-3.91 6.05-5.37 1.71-1.15 3.24-2.18 3.81-3.22 2.47-4.45 3.68-8.66 7.36-11.17C22.12 1.2 27.57.45 31.09.19c3.53-.25 9.87.54 13.39 2.6zm14.1 20.44c.28-1.28 1.01-2.12 2.4-1.8l.08.01.07.04c.34.23.65.53.92.87.61.78 1.02 1.81 1.14 2.89.12 1.08-.07 2.21-.66 3.15-.23.36-.52.7-.87 1-.7.57-1.37.33-1.93-.38-.47-.61-.86-1.61-1.08-2.67-.21-1.06-.27-2.2-.07-3.11z"/><path id="1" d="M52.56 15.24l-.17.29-.06-.06-.28-.44-.28-.45-.27-.46-.25-.46-.26-.46-.24-.47-.24-.47-.24-.46-.23-.47-.23-.46-.22-.47-.23-.45-.22-.46-.22-.45-.22-.44-.22-.44-.22-.42-.23-.42-.22-.41-.23-.4-.23-.38-.24-.38-.24-.36-.24-.34-.26-.33-.25-.31-.27-.29-.27-.28-.29-.26-.29-.24-.3-.21-.31-.2.18-.29.33.21.31.23.31.25.29.27.29.28.27.31.27.32.26.34.25.35.25.37.24.38.23.39.23.4.23.42.23.42.22.43.22.44.23.44.22.45.22.46.22.46.23.46.22.46.23.47.24.46.24.47.24.46.25.46.26.45.26.45.27.45.28.44-.05-.05zm-.17.29l-.04-.02-.02-.04.06.06zM62 20.4l-.27.21-.23-.28-.24-.27-.24-.24-.25-.23-.25-.22-.26-.21-.26-.18-.26-.18-.27-.17-.27-.16-.28-.15-.28-.14-.29-.13-.28-.13-.29-.12-.3-.12-.3-.11-.3-.12-.3-.11-.31-.11-.31-.11-.32-.12-.31-.12-.32-.12-.32-.13-.33-.13-.32-.14-.33-.14-.33-.16-.33-.17-.33-.17-.33-.19.17-.29.32.18.33.17.32.17.32.15.33.15.32.13.31.13.32.13.32.12.31.11.31.12.31.11.31.11.31.12.3.11.31.12.29.12.3.12.3.13.29.14.28.15.29.15.28.16.28.18.28.18.27.2.26.21.27.22.25.25.26.26.25.27.24.29zm.16 12.23l-.28-.19.3-.44.27-.44.25-.43.23-.42.2-.42.18-.42.16-.41.14-.41.11-.4.1-.39.08-.39.06-.39.04-.38.02-.38v-.37l-.02-.37-.03-.37-.05-.36-.06-.35-.08-.36-.1-.34-.11-.35-.12-.34-.14-.34-.16-.33-.16-.33-.18-.32-.19-.33-.21-.31-.21-.32-.23-.31-.24-.31.27-.21.24.32.23.32.22.32.21.33.2.33.19.34.17.34.16.34.14.35.13.35.12.36.1.36.08.37.07.37.05.38.03.38.02.38-.01.39-.02.39-.04.4-.06.4-.08.41-.1.41-.12.42-.14.41-.17.43-.18.43-.21.43-.23.44-.26.44-.28.44-.3.45zm-8.92-1.12l.28-.19.02.04.15.36.17.35.19.31.2.29.22.26.24.24.25.22.26.19.28.17.28.14.3.13.3.1.3.08.31.06.32.05.32.02h.31l.32-.02.32-.03.31-.05.31-.07.3-.08.29-.1.29-.12.27-.13.27-.15.25-.16.24-.17.22-.18.2-.2.19-.21.16-.22.28.19-.18.24-.2.23-.23.22-.24.2-.25.18-.27.17-.28.16-.29.14-.31.12-.31.11-.32.09-.33.07-.33.05-.33.04-.34.02-.34-.01-.34-.02-.33-.04-.33-.07-.33-.09-.33-.11-.31-.13-.31-.16-.29-.18-.29-.21-.27-.23-.26-.26-.23-.28-.23-.32-.2-.33-.18-.37-.16-.39.02.04zm.28-.19l.01.02.01.02-.02-.04zm-14.99 2.13l-.29-.18.53-.77.54-.71.55-.64.55-.57.56-.52.57-.45.57-.4.56-.34.58-.29.57-.24.56-.19.57-.15.56-.1.55-.06.55-.02.54.02.52.05.52.09.5.12.49.14.47.17.46.19.44.22.42.23.4.25.38.26.36.27.33.29.31.29.28.3.26.3.23.31-.28.19-.22-.29-.24-.28-.27-.29-.3-.28-.32-.27-.34-.27-.37-.25-.38-.24-.41-.23-.42-.2-.44-.19-.46-.16-.46-.14-.49-.11-.49-.08-.51-.05-.51-.02-.52.02-.53.05-.54.1-.54.14-.54.18-.55.23-.55.28-.55.33-.55.39-.55.44-.54.5-.54.56-.53.62-.53.69-.52.76zm-4.89 2.73l-.05-.33.18-.03.18-.04.18-.03.18-.04.17-.04.18-.05.17-.05.17-.05.17-.06.17-.06.16-.06.17-.06.16-.07.15-.07.16-.08.15-.08.15-.08.15-.08.14-.09.14-.09.13-.1.14-.1.13-.1.12-.1.12-.11.12-.11.11-.12.11-.12.11-.12.1-.13.09-.13.09-.13.29.18-.1.15-.11.14-.1.13-.11.13-.12.13-.12.13-.13.12-.12.11-.14.12-.14.1-.14.11-.14.1-.15.09-.15.1-.15.09-.16.08-.16.09-.16.07-.17.08-.16.07-.17.07-.18.06-.17.06-.18.06-.17.05-.18.05-.18.05-.19.05-.18.04-.18.04-.19.03-.19.03zm-5.98-.82l.16-.3.14.08.15.07.15.07.15.06.15.07.16.06.15.05.17.06.16.05.16.05.17.04.18.04.17.04.17.04.18.03.18.03.19.02.18.02.19.02.19.01.19.02h.78l.21-.01.2-.01.21-.02.21-.02.2-.02.22-.03.21-.03.05.33-.22.03-.21.03-.22.03-.21.02-.22.02-.21.01-.2.01h-.62l-.2-.01-.2-.01-.19-.02-.19-.01-.2-.03-.18-.02-.19-.03-.19-.03-.18-.04-.18-.04-.18-.04-.17-.05-.18-.05-.17-.05-.17-.06-.16-.06-.17-.06-.16-.07-.15-.07-.16-.07-.15-.07-.15-.08zm-5.6-5.65l.21-.27-.02-.02.18.11.17.11.17.13.17.14.16.15.16.16.15.16.16.17.15.19.15.18.15.19.15.2.15.2.15.2.15.2.16.21.15.21.16.21.16.21.17.2.16.21.18.2.18.2.18.19.19.19.19.18.2.18.21.17.21.16.23.15.23.15.24.13-.16.3-.26-.14-.24-.16-.23-.16-.23-.17-.22-.18-.21-.18-.2-.19-.2-.2-.18-.2-.19-.2-.18-.21-.17-.21-.17-.21-.16-.21-.16-.21-.16-.21-.15-.2-.15-.21-.15-.2-.15-.2-.15-.19-.15-.19-.14-.18-.15-.18-.15-.16-.14-.16-.15-.15-.16-.14-.15-.12-.15-.12-.16-.11-.16-.09-.03-.01zm.03.01h-.01l-.02-.01.03.01zM7.78 34.34l-.31-.14-.01.04.09-.47.13-.47.16-.46.2-.46.22-.45.26-.44.29-.43.32-.42.34-.4.37-.38.39-.37.42-.35.44-.32.46-.3.48-.27.51-.25.52-.21.53-.19.56-.15.57-.11.58-.08.6-.04.6.01.62.05.62.09.64.14.64.19.64.24.65.29.65.35.65.4.66.46-.21.27-.63-.45-.64-.39-.63-.34-.63-.28-.62-.23-.62-.18-.61-.14-.6-.09-.59-.04-.59-.01-.57.04-.56.07-.54.11-.54.15-.51.17-.5.21-.49.24-.46.26-.45.29-.42.31-.4.33-.39.35-.35.38-.33.38-.3.4-.28.42-.25.42-.22.43-.18.44-.16.44-.12.45-.09.44-.01.05zm.01-.05l-.01.03v.02l.01-.05zm-1.04 2.13l-.29-.18.03-.05.04-.05.03-.06.03-.05.03-.06.03-.06.03-.05.03-.06.03-.06.03-.06.03-.06.03-.06.03-.07.04-.06.03-.06.03-.07.03-.06.03-.07.03-.06.03-.07.03-.06.04-.07.03-.07.03-.07.03-.07.03-.07.03-.07.04-.07.03-.07.03-.08.03-.07.04-.07.31.14-.04.07-.03.07-.03.07-.03.08-.04.07-.03.07-.03.07-.03.07-.04.07-.03.07-.03.06-.03.07-.03.07-.03.07-.04.06-.03.07-.03.07-.03.06-.03.06-.03.07-.03.06-.04.06-.03.06-.03.06-.03.06-.03.06-.04.06-.03.06-.03.06-.03.05-.03.06-.04.06zm-3.03 1.09l.19-.27-.01-.01.11.07.11.06.1.05.1.04.1.04.09.02.09.02.09.02.09.01h.16l.08-.01.08-.02.07-.02.08-.02.08-.03.07-.04.07-.04.08-.05.07-.05.07-.06.07-.06.07-.07.08-.08.07-.08.07-.08.07-.09.07-.09.07-.1.07-.11.06-.11.07-.11.29.18-.07.11-.07.12-.07.11-.08.1-.07.1-.08.1-.07.09-.09.09-.07.08-.09.08-.08.08-.08.07-.09.06-.09.06-.09.05-.09.05-.1.04-.1.03-.1.02-.1.02-.11.01-.1.01-.11-.01-.11-.01-.11-.01-.11-.03-.11-.04-.11-.04-.12-.05-.12-.05-.12-.07-.12-.07v-.01zm0 .01v-.01l.01.02-.01-.01zm.17-.29l.02.01-.19.27-.02-.01.19-.27zm0 0zm-3.95-6.27l.34-.04.03.24.04.24.05.23.05.24.05.23.07.23.06.23.07.23.08.22.08.23.09.22.09.21.1.22.1.21.1.21.11.2.12.2.12.2.13.19.13.19.13.19.14.18.15.18.15.17.15.17.16.16.17.16.17.16.17.15.18.14.19.14.18.14-.19.27-.2-.14-.19-.14-.18-.15-.19-.16-.17-.16-.18-.17-.16-.17-.16-.18-.16-.18-.15-.18-.15-.19-.14-.19-.13-.2-.14-.2-.12-.21-.12-.21-.12-.21-.11-.21-.1-.22-.1-.22-.1-.23-.09-.23-.08-.22-.08-.24-.07-.23-.07-.24-.06-.24-.06-.24-.05-.24-.05-.25-.04-.24-.04-.25zm1.72-7.97l.29.18-.14.22-.13.22-.13.23-.12.23-.11.23-.11.23-.1.23-.1.24-.1.24-.08.24-.08.24-.08.24-.07.25-.07.24-.06.25-.05.25-.05.25-.04.24-.04.25-.03.25-.03.25-.02.25-.02.25-.01.25-.01.25v.5l.01.25.02.24.02.25.02.24.04.25-.34.04-.03-.25-.03-.25-.02-.25-.01-.26-.01-.25-.01-.26v-.25l.01-.26.01-.26.02-.25.02-.26.03-.26.03-.25.04-.26.05-.26.05-.25.05-.26.07-.25.06-.25.08-.25.07-.25.09-.25.09-.25.09-.24.1-.25.11-.24.11-.24.12-.24.12-.23.13-.23.14-.23.14-.23zm6.1-5.42l.19.28-.21.14-.2.14-.21.14-.2.14-.21.14-.21.14-.21.15-.2.15-.21.14-.21.15-.2.16-.21.15-.2.16-.21.15-.2.16-.2.17-.19.16-.2.17-.19.17-.18.17-.19.17-.18.18-.18.18-.18.18-.17.18-.16.19-.16.19-.16.2-.15.19-.15.2-.14.2-.13.21-.29-.18.14-.21.15-.21.15-.21.15-.2.17-.2.16-.2.17-.19.18-.19.18-.19.18-.18.19-.18.18-.18.2-.17.19-.18.2-.17.2-.16.2-.17.2-.16.21-.16.21-.16.2-.15.21-.16.21-.15.21-.15.21-.15.21-.14.21-.15.21-.14.2-.14.21-.14.2-.14.21-.14zm3.75-3.16l.3.16-.06.1-.07.11-.07.1-.07.1-.08.1-.09.1-.09.1-.09.11-.1.1-.1.1-.11.1-.11.1-.12.1-.11.1-.12.1-.13.1-.13.1-.13.1-.13.1-.14.1-.14.11-.14.1-.15.1-.14.1-.15.11-.15.1-.16.11-.15.1-.16.11-.15.11-.16.1-.16.11-.19-.28.16-.1.16-.11.15-.11.16-.1.15-.11.15-.1.15-.11.15-.1.15-.1.14-.1.14-.11.14-.1.13-.1.13-.1.13-.1.13-.1.12-.09.12-.1.11-.1.11-.09.11-.1.1-.1.1-.09.09-.1.09-.09.09-.1.07-.09.08-.09.07-.1.06-.09.06-.09.05-.09zm7.41-11.23l.19.28-.33.23-.32.25-.3.26-.3.26-.28.27-.27.29-.26.28-.25.3-.25.31-.23.31-.23.33-.22.33-.22.33-.21.34-.2.35-.21.36-.19.36-.2.37-.19.37-.19.38-.2.38-.19.39-.19.39-.19.4-.2.39-.2.41-.2.4-.2.41-.21.41-.22.42-.22.41-.23.42-.3-.16.23-.42.22-.41.22-.41.2-.41.21-.41.2-.4.2-.4.19-.4.2-.4.19-.39.19-.39.19-.38.2-.38.19-.38.2-.37.2-.36.2-.36.21-.36.21-.35.22-.34.23-.33.23-.33.24-.33.25-.31.26-.31.27-.29.28-.29.29-.29.3-.27.32-.26.33-.26.34-.24zM31.08.03l.03.33-.34.03-.34.03-.36.03-.36.03-.37.04-.38.04-.39.05-.39.05-.4.05-.4.06-.4.07-.41.06-.41.07-.41.08-.41.08-.4.09-.41.09-.41.1-.4.11-.4.11-.39.11-.39.13-.39.12-.37.14-.37.14-.36.15-.35.15-.34.17-.33.17-.32.17-.31.19-.29.19-.19-.28.3-.2.32-.19.33-.18.34-.18.35-.16.36-.16.36-.15.38-.15.38-.14.39-.13.4-.12.4-.12.4-.11.41-.1.41-.1.41-.1.42-.09.41-.08.41-.08.41-.07.41-.07.41-.06.41-.06.39-.05.4-.05.39-.05.38-.04.37-.04.37-.04.36-.03.35-.03.33-.02zm13.49 2.61l-.18.29h.01l-.34-.18-.35-.18-.36-.17-.38-.17-.39-.16-.4-.15-.41-.14-.42-.14-.43-.13-.44-.12-.44-.12-.45-.11-.46-.1-.45-.1-.46-.09-.46-.08-.46-.08-.46-.07-.45-.06-.46-.05-.45-.05-.44-.04L34.6.4l-.43-.03-.42-.02-.42-.02-.4-.01h-.77l-.37.01-.35.01-.33.02-.03-.33.34-.02.36-.02.37-.01h.79l.4.01.42.02.43.02.44.03.44.04.45.04.45.05.46.06.46.06.46.07.47.08.46.08.47.09.46.1.46.1.45.11.45.12.44.12.44.14.43.14.42.14.41.16.39.16.39.17.37.18.36.18.35.19zm16.45 18.62l-.07.33-.12-.03-.12-.01-.11-.02h-.32l-.09.01-.09.02-.09.02-.09.02-.08.04-.08.03-.07.04-.08.05-.07.04-.06.06-.07.06-.06.06-.06.06-.06.08-.05.07-.05.08-.05.08-.05.09-.05.09-.04.1-.04.1-.03.1-.04.1-.03.11-.03.11-.02.12-.34-.07.03-.13.03-.12.04-.11.04-.12.04-.11.04-.11.05-.11.05-.1.05-.1.06-.1.06-.09.06-.09.07-.08.07-.08.08-.08.08-.07.08-.07.09-.06.09-.05.09-.05.1-.05.1-.03.11-.04.11-.02.11-.02.12-.01.12-.01h.12l.12.01.13.01.14.02.13.03zm0 .35l-.07-.02.07-.33.08.02.06.02-.14.31zm.08-.33l.03.01.03.01-.06-.02zm-.07.35l-.06-.05.19-.28.06.04-.19.29zm.19-.29l.2.13-.2-.13zm.96.91l-.26.21-.03-.03-.02-.03-.03-.04-.02-.03-.03-.03-.02-.03-.03-.02-.03-.03-.02-.04-.03-.02-.03-.03-.02-.03-.03-.02-.03-.03-.02-.03-.03-.02-.03-.03-.03-.02-.03-.03-.03-.03-.02-.02-.03-.02-.03-.03-.03-.02-.03-.02-.03-.03-.03-.02-.03-.02-.03-.02-.03-.02-.03-.03-.03-.01.19-.29.03.03.04.02.03.02.03.03.03.02.04.03.03.02.03.03.03.02.04.03.03.02.03.03.03.03.03.02.03.03.03.03.03.03.03.03.03.03.03.03.03.03.03.03.03.03.02.03.03.03.03.03.03.03.03.04.02.03.03.03.03.03.02.04zm1.18 2.97l-.34.03v.01l-.01-.1-.01-.1-.02-.1-.01-.09-.02-.1-.02-.1-.02-.09-.03-.1-.02-.09-.03-.1-.02-.09-.03-.09-.03-.09-.04-.09-.03-.1-.03-.08-.04-.09-.04-.09-.04-.09-.03-.08-.05-.09-.04-.08-.04-.09-.05-.08-.05-.08-.04-.08-.05-.07-.05-.08-.05-.08-.06-.07-.05-.07-.05-.07.26-.21.06.07.06.08.05.08.06.08.05.08.06.09.05.08.05.09.04.08.05.09.05.09.04.09.04.09.04.09.04.1.04.09.04.1.03.09.04.1.03.1.03.09.03.1.03.1.02.1.03.1.02.1.02.1.02.11.02.1.01.1.02.11.01.1zm0 0l-.01-.11.01.11zm-.69 3.26l-.28-.18.05-.08.05-.09.05-.09.04-.09.05-.09.04-.09.04-.09.03-.09.04-.09.03-.09.03-.1.03-.09.03-.1.02-.09.02-.1.02-.1.02-.09.02-.1.01-.1.01-.1.01-.09.01-.1.01-.1v-.1l.01-.1v-.2l-.01-.1v-.1l-.01-.1-.01-.1-.01-.1.34-.03.01.1.01.11v.1l.01.11v.53l-.01.1-.01.11-.01.1-.01.11-.02.1-.02.11-.02.1-.02.1-.02.11-.03.1-.02.1-.04.1-.03.1-.03.1-.04.1-.04.1-.04.1-.05.1-.04.09-.05.1-.05.09-.06.1-.06.09zm-.9 1.03l-.22-.25.03-.03.03-.03.03-.02.04-.03.02-.03.03-.03.04-.03.02-.02.03-.03.03-.03.03-.03.03-.03.02-.03.03-.03.03-.03.02-.03.03-.03.03-.03.02-.03.03-.03.02-.03.02-.03.03-.03.02-.03.03-.03.02-.04.02-.03.02-.03.03-.03.02-.04.02-.03.02-.03.28.18-.02.04-.02.03-.02.04-.03.03-.02.04-.03.03-.02.03-.03.04-.02.03-.03.04-.02.03-.03.03-.03.04-.02.03-.03.03-.03.03-.03.04-.03.03-.03.03-.03.03-.03.03-.03.03-.03.04-.03.03-.03.03-.03.03-.03.03-.04.03-.03.03-.03.03-.04.03-.03.02zm0 0l.53-.44-.53.44zm-2.17-.4l.27-.21.05.06.05.06.05.06.05.05.05.05.05.05.05.04.05.04.06.04.05.03.05.03.05.03.05.02.05.02.05.02.05.01.05.02h.05l.06.01h.1l.05-.01.05-.01.06-.01.05-.02.06-.02.05-.03.06-.02.05-.04.06-.04.06-.04.06-.04.22.25-.07.06-.08.05-.07.05-.07.04-.07.04-.08.03-.07.03-.07.02-.08.02-.07.01-.07.01-.08.01-.07-.01h-.07l-.07-.01-.07-.02-.08-.02-.07-.02-.06-.03-.07-.03-.07-.03-.06-.04-.07-.04-.06-.05-.06-.05-.06-.05-.06-.05-.06-.06-.06-.06-.06-.06-.05-.07-.06-.07zm-1.11-2.74l.33-.06.02.09.02.1.02.1.03.09.02.1.02.1.03.09.03.09.03.1.03.09.02.09.03.09.04.09.03.08.03.09.03.08.04.09.03.08.04.08.03.08.04.07.04.08.03.07.04.07.04.07.04.07.04.07.04.06.04.06.04.06.04.06.05.05-.27.21-.05-.06-.04-.06-.05-.07-.04-.07-.05-.07-.04-.07-.04-.07-.04-.07-.05-.08-.04-.08-.03-.08-.04-.08-.04-.08-.04-.09-.03-.08-.04-.09-.04-.09-.03-.09-.03-.09-.03-.09-.04-.1-.03-.09-.03-.1-.03-.09-.02-.1-.03-.1-.03-.1-.02-.1-.03-.09-.02-.11-.02-.1-.02-.1zm-.08-3.17l.34.07-.02.08-.02.08-.01.09-.02.09-.01.08-.01.09v.09l-.01.1-.01.09v.09l-.01.09v.58l.01.1v.1l.01.1.01.1.01.1.01.1.01.1.01.09.02.1.01.1.02.1.01.1.02.1.02.1.02.1-.33.06-.02-.1-.02-.1-.02-.1-.02-.1-.01-.11-.02-.1-.01-.1-.02-.11-.01-.1-.01-.1-.01-.1-.01-.11v-.1l-.01-.1v-.1l-.01-.11v-.5l.01-.1v-.09l.01-.1.01-.1.01-.09.01-.1.01-.09.01-.09.02-.09.02-.09.01-.09z" class="fil1"/><path d="M26.86 6.59c.33.02.65.07.97.13l.04.01.03.01c.13.05.28.13.45.22.92.54 2.16 1.78 3.01 3.26.87 1.53 1.36 3.32.77 4.95-.07.21-.17.42-.28.62-2.17 3.92-5.71 3.98-9.71 4.05-.5.01-1.01.02-1.53.03-1.43.05-2.8-.03-3.82-.49-1.12-.5-1.81-1.41-1.71-2.98.02-.33.06-.67.13-1 .5-2.54 2.24-4.83 4.43-6.44 2.2-1.6 4.86-2.53 7.22-2.37z" class="fil2"/><path id="1" d="M27.86 6.56l-.07.33h.01l-.03-.01h-.03l-.03-.01-.03-.01h-.03l-.03-.01h-.03l-.03-.01h-.03l-.03-.01h-.03l-.03-.01h-.03l-.03-.01h-.06l-.02-.01h-.04l-.03-.01h-.05l-.03-.01h-.09l-.03-.01h-.09l-.03-.01h-.06l.02-.34.03.01h.13l.03.01h.06l.03.01h.06l.04.01h.03l.03.01h.06l.03.01h.03l.03.01h.06l.03.01.04.01h.03l.03.01h.03l.03.01h.03l.03.01h.03l.03.01.03.01zm0 0l.07.01-.07-.01zm-.02.34l-.05-.01.07-.33.05.01h.03l-.1.33zm.07-.33h.03-.03zm-.08.33l-.02-.01.13-.32.02.01-.12.32h-.01zm.01 0h-.01l-.04-.02.05.02zm.59-.08l-.17.29-.01-.01-.02-.01-.01-.01-.01-.01-.02-.01h-.02l-.01-.01-.01-.01-.02-.01h-.01l-.02-.01-.01-.01h-.01L28.06 7l-.01-.01-.01-.01h-.02l-.01-.01H28l-.02-.01h-.01l-.01-.01-.01-.01h-.02l-.01-.01h-.01l-.02-.01h-.01l-.01-.01-.01-.01h-.02l.12-.32.01.01h.02l.01.01h.01l.02.01.01.01h.02l.01.01h.01l.02.01.01.01h.02l.01.01.01.01.02.01h.02l.01.01.02.01.01.01h.02l.01.01.01.01.02.01.02.01h.01l.02.01.01.01.02.01.01.01.02.01.02.01.01.01zm3.08 3.32l-.3.17-.08-.14-.08-.13-.08-.14-.09-.13-.08-.13-.09-.12-.09-.13-.1-.13-.09-.12-.09-.12-.1-.12-.09-.11-.1-.11-.1-.11-.1-.11-.09-.11-.1-.1-.1-.1-.1-.09-.1-.1-.09-.09-.1-.09-.09-.08-.1-.08-.1-.08-.09-.07-.09-.07-.09-.07-.09-.06-.09-.06-.09-.05-.08-.05.17-.29.09.05.09.06.1.06.09.07.1.07.1.07.1.08.1.08.1.08.1.09.1.09.1.1.1.09.1.1.1.11.1.1.1.11.1.11.11.12.1.11.09.12.1.12.1.13.1.12.09.13.09.13.09.13.09.14.09.13.09.14.08.14.09.14zm.78 5.09l-.32-.11.05-.15.05-.15.04-.15.03-.15.03-.15.02-.15.01-.15.01-.15.01-.16v-.3l-.01-.16-.02-.15-.01-.16-.03-.15-.02-.15-.03-.16-.04-.15-.04-.15-.04-.15-.05-.16-.05-.15-.05-.15-.06-.15-.06-.15-.06-.15-.07-.14-.06-.15-.08-.14-.07-.15-.08-.14-.08-.14.3-.17.08.15.08.14.08.15.07.15.07.16.07.15.07.15.06.16.06.16.06.15.05.16.05.16.04.16.04.16.04.16.03.17.03.16.02.16.02.17.02.16.01.16v.33l-.01.16-.01.17-.02.16-.02.17-.03.16-.04.16-.04.16-.04.16-.06.16zm-.32-.11zm.03.75l-.3-.16.01-.02.01-.02.01-.01.01-.02.01-.02.01-.02.01-.02.01-.02.01-.02.01-.02.01-.02.01-.01.01-.02v-.02l.01-.02.01-.02.01-.02.01-.01.01-.02v-.02l.01-.02.01-.02.01-.02.01-.01v-.02l.01-.02.01-.02.01-.02v-.02l.01-.01.01-.02v-.02l.32.11-.01.02v.02l-.01.02-.01.02-.01.02v.02l-.01.02-.01.02-.01.02-.01.02-.01.02v.02l-.01.02-.01.02-.01.02-.01.02-.01.02-.01.02-.01.02-.01.02-.01.03-.01.01-.01.02v.02l-.02.03-.01.01-.01.02-.01.02-.01.02-.01.03-.01.01-.01.02zm-.3-.16zm-9.55 4.3l-.01-.34h.37l.37-.01.37-.01.36-.01.36-.01.36-.02.35-.02.34-.03.35-.03.34-.04.33-.04.33-.05.32-.06.32-.07.31-.08.31-.09.3-.1.3-.11.28-.12.29-.14.28-.15.27-.17.26-.18.26-.19.25-.21.25-.23.24-.25.23-.27.23-.28.22-.31.21-.33.2-.35.3.16-.21.36-.22.35-.23.32-.24.3-.24.27-.25.26-.26.25-.27.22-.27.21-.28.19-.28.17-.3.16-.29.14-.31.13-.31.12-.31.1-.32.1-.32.08-.33.07-.33.06-.34.05-.34.05-.35.04-.35.03-.35.02-.36.03-.36.01-.36.02-.36.01-.37.01h-.37l-.38.01h.01zm-.01-.34h-.01.01zm-1.53.37l-.01-.33.05-.01H21l.04-.01h.34l.05-.01H21.95l.05-.01h.14l.01.34h-.29l-.04.01h-.48l-.05.01H20.95l-.04.01h-.3zm-.01-.33zm-3.88-.18l.14-.3.09.04.09.03.1.04.1.03.1.04.1.03.11.02.11.03.1.03.11.02.12.02.11.02.11.02.12.02.12.01.12.02.12.01.12.01.12.01.12.01.13.01h.12l.13.01h.13l.13.01h.52l.13-.01h.26l.01.33-.13.01h-.4l-.13.01-.14-.01h-.39l-.13-.01-.13-.01h-.13l-.13-.01-.12-.01-.13-.01-.12-.02-.12-.01-.13-.02-.12-.02-.12-.01-.12-.03-.11-.02-.12-.02-.11-.03-.12-.03-.11-.03-.11-.03-.11-.04-.1-.03-.11-.04-.1-.04-.1-.05zm-1.81-3.14l.34.02-.01.14v.4l.02.13.01.12.02.11.02.12.03.1.03.11.03.1.03.1.05.1.04.09.05.09.05.08.05.09.06.08.06.07.06.08.07.07.07.07.07.07.08.06.08.07.08.06.09.05.09.06.09.05.09.05.1.05.1.05-.14.3-.11-.05-.11-.05-.1-.06-.1-.05-.1-.06-.09-.07-.09-.07-.09-.07-.09-.07-.08-.08-.08-.07-.08-.09-.07-.08-.07-.09-.07-.09-.06-.1-.06-.1-.05-.1-.05-.11-.05-.11-.04-.11-.04-.11-.03-.12-.03-.12-.03-.13-.02-.13-.01-.13-.01-.14-.01-.14V16.54l.01-.15zm.34.02zm-.21-1.04l.34.06-.01.03-.01.03v.03l-.01.03v.04l-.01.02v.04l-.01.03v.03l-.01.03v.03l-.01.03v.03l-.01.03v.03l-.01.03v.06l-.01.03v.07l-.01.03v.06l-.01.03v.09l-.01.03v.09l-.34-.02v-.06l.01-.03v-.1l.01-.03v-.07l.01-.03v-.06l.01-.03v-.07l.01-.03v-.03l.01-.04v-.03l.01-.03v-.03l.01-.03v-.03l.01-.04v-.03l.01-.03v-.04l.01-.03v-.03l.01-.03.01-.03v-.03zm4.5-6.54l.2.27-.2.15-.2.15-.19.16-.2.16-.19.17-.18.17-.19.17-.17.18-.18.18-.17.18-.17.18-.16.19-.16.2-.16.19-.15.2-.14.2-.14.2-.14.2-.12.21-.13.21-.12.21-.11.22-.11.22-.1.21-.1.23-.09.22-.08.22-.08.23-.07.23-.06.23-.05.23-.05.23-.34-.06.05-.25.06-.24.07-.24.07-.24.08-.23.09-.23.09-.23.1-.23.1-.23.12-.22.11-.23.13-.22.12-.21.14-.22.14-.21.14-.21.15-.2.16-.21.15-.2.17-.19.17-.2.17-.19.17-.19.18-.18.19-.18.19-.18.19-.17.19-.17.2-.17.2-.16.21-.16.2-.15zm7.33-2.41l-.02.34-.22-.01-.22-.01h-.22l-.22.01-.22.01-.23.02-.22.03-.23.03-.23.03-.23.04-.22.05-.23.05-.23.06-.23.06-.23.07-.23.08-.23.07-.22.09-.23.09-.23.09-.22.1-.22.1-.23.11-.22.11-.22.12-.21.12-.22.13-.21.13-.22.13-.2.14-.21.14-.21.15-.2-.27.21-.15.22-.15.21-.14.22-.14.22-.13.22-.13.22-.12.23-.12.22-.12.23-.11.23-.11.23-.1.23-.09.24-.1.23-.08.23-.08.24-.08.24-.07.23-.06.24-.06.23-.06.24-.05.24-.04.23-.04.24-.03.23-.02.23-.02.24-.02h.23l.23-.01.22.01.23.01zm-.02.34h-.03.03z" class="fil1"/><path d="M36.02 13.95c.14-.97.29-1.99.17-2.84-.39-2.71.48-3.92 1.92-4.14 1.49-.22 3.6.76 5.48 2.22 1.85 1.45 3.5 3.39 4.09 5.12.59 1.72.2 3.24-1.86 3.98-1.44.52-2.76.75-4.14.73-1.37-.01-2.78-.26-4.39-.7-1.82-.5-1.56-2.35-1.27-4.37z" class="fil2"/><path id="1" d="M36.02 11.13l.34-.04.01.08.01.08.01.09v.08l.01.09V12.13l-.01.09v.09l-.01.09-.01.1v.09l-.01.09-.01.09-.01.1-.01.09-.01.09-.01.09-.02.1-.01.09-.01.09-.01.1-.02.09-.01.09-.01.1-.02.09-.01.09-.33-.05.01-.09.01-.09.02-.09.01-.1.01-.09.01-.09.02-.09.01-.09.01-.1.01-.09.01-.09.01-.09.01-.09.01-.09.01-.09.01-.09v-.09l.01-.09v-.09l.01-.08v-.18l.01-.08V11.69l-.01-.08v-.08l-.01-.08v-.08l-.01-.08-.01-.08-.01-.08zm2.07-4.32l.05.33-.13.02-.12.03-.12.03-.11.04-.11.04-.11.05-.1.06-.1.06-.09.07-.09.07-.08.08-.08.08-.08.1-.07.09-.07.11-.06.11-.06.12-.06.13-.04.14-.05.14-.04.15-.03.16-.03.17-.02.18-.01.18-.01.19v.42l.01.22.02.22.03.24.03.25-.34.04-.03-.25-.03-.25-.02-.23-.01-.23v-.44l.01-.2.02-.2.02-.19.03-.18.03-.17.05-.17.04-.16.06-.15.06-.14.07-.14.07-.13.08-.12.08-.12.09-.11.1-.1.1-.09.1-.09.12-.08.11-.07.12-.07.13-.06.12-.05.13-.04.14-.04.14-.03.14-.02zm5.6 2.25l-.21.27-.17-.14-.18-.13-.18-.13-.17-.12-.18-.13-.18-.11-.18-.12-.18-.11-.18-.11-.18-.1-.18-.1-.18-.09-.18-.09-.17-.09-.18-.08-.17-.07-.18-.08-.17-.06-.17-.06-.17-.06-.17-.05-.16-.04-.16-.04-.16-.04-.16-.02-.15-.02-.15-.02-.15-.01h-.28l-.14.01-.13.02-.05-.33.15-.02.15-.01.16-.01.16.01.15.01.17.01.16.02.17.03.17.04.17.04.18.05.17.05.18.06.18.06.18.07.18.08.18.07.18.09.19.08.18.1.18.1.19.1.18.1.19.11.18.12.18.11.19.13.18.12.18.13.18.13.18.13.18.14zm4.15 5.19l-.32.11-.06-.15-.06-.16-.07-.16-.07-.17-.08-.16-.09-.16-.09-.17-.1-.16-.1-.17-.1-.16-.11-.17-.12-.16-.12-.17-.12-.16-.13-.16-.13-.17-.13-.16-.14-.16-.14-.16-.15-.16-.14-.16-.15-.16-.16-.16-.15-.15-.16-.15-.16-.15-.17-.15-.16-.15-.17-.14-.17-.14-.17-.14-.17-.13.21-.27.17.14.18.14.17.15.17.14.17.15.16.15.17.16.16.15.16.16.16.16.15.16.15.16.15.16.15.17.14.16.14.17.13.17.13.17.13.17.12.17.12.17.11.17.11.17.11.17.1.17.09.17.09.17.08.17.08.17.07.17.07.17.06.16zm0 0zm-1.96 4.2l-.12-.32.18-.06.18-.08.16-.07.15-.09.14-.08.14-.09.12-.09.12-.1.11-.09.1-.11.09-.1.08-.11.08-.11.06-.11.06-.12.05-.11.05-.13.04-.12.03-.12.02-.13.02-.14.01-.13.01-.14v-.14l-.01-.14-.02-.15-.02-.14-.02-.15-.04-.15-.04-.15-.04-.16-.05-.16.32-.11.05.17.05.17.04.16.04.16.03.16.02.16.02.16v.16l.01.15-.01.16-.01.15-.02.15-.03.15-.04.14-.04.14-.05.14-.06.14-.07.13-.08.13-.09.13-.09.12-.1.12-.12.12-.12.11-.13.1-.14.11-.15.09-.15.1-.17.09-.17.08-.19.08-.19.07zm-4.2.74v-.34h.51l.12-.01h.13l.13-.01.12-.01.13-.01.12-.01.13-.02.12-.01.13-.02.13-.02.12-.02.13-.02.12-.02.13-.03.13-.02.12-.03.13-.03.13-.03.13-.03.13-.04.12-.03.13-.04.13-.04.13-.04.14-.04.13-.04.13-.05.13-.05.12.32-.14.05-.13.05-.14.04-.13.04-.14.04-.13.04-.13.04-.14.04-.13.03-.13.04-.13.03-.13.03-.13.03-.13.02-.13.03-.13.02-.13.02-.13.02-.13.02-.13.02-.13.02-.13.01-.13.01-.13.01-.13.01-.13.01-.13.01h-.13l-.13.01h-.39zm-4.44-.71l.09-.33.15.04.15.04.15.04.14.04.15.04.14.03.14.03.15.04.14.03.14.03.14.03.14.02.13.03.14.03.13.02.14.02.14.03.13.02.13.02.13.01.13.02.14.02.13.01.13.01.13.01.12.01.13.01.13.01.13.01h.38v.34h-.26l-.14-.01-.13-.01h-.13l-.13-.01-.13-.01-.13-.01-.14-.02-.13-.01-.14-.01-.13-.02-.14-.02-.13-.02-.14-.02-.13-.02-.14-.03-.14-.02-.14-.03-.14-.02-.14-.03-.14-.03-.14-.03-.15-.03-.14-.04-.15-.03-.14-.04-.15-.03-.15-.04-.15-.04-.15-.04-.15-.04zm-1.38-4.55l.33.05-.03.19-.02.18-.03.19-.02.18-.02.18-.02.18-.02.18-.02.17-.01.17-.01.17v.47l.01.15.01.15.02.14.03.13.03.13.04.13.04.11.05.12.06.1.06.11.07.09.08.09.09.08.1.08.11.07.12.07.13.06.14.06.15.04-.09.33-.17-.06-.17-.06-.15-.07-.14-.08-.13-.09-.12-.09-.11-.11-.1-.11-.09-.11-.08-.13-.06-.13-.06-.13-.06-.14-.04-.14-.03-.15-.03-.15-.02-.15-.02-.16-.01-.17v-.5l.01-.17.01-.18.02-.18.02-.17.02-.19.02-.18.03-.19.02-.18.03-.19.03-.19z" class="fil1"/><path fill="#fefefe" fill-rule="nonzero" d="M60.61 21.14c-1.38-.17-2.14.52-2.46 1.55-.32 1.05-.22 2.41.15 3.69.36 1.27.98 2.43 1.72 3.1.45.4.79.57 1.21.33.53-.32.96-.67 1.3-1.06.91-1.03.93-2.27.74-3.48-.19-1.22-.45-2.4-1.42-3.28-.37-.33-.79-.62-1.24-.85z"/><path d="M60.57 21.28c-.61-.07-1.08.03-1.45.26-.4.26-.67.68-.83 1.19-.15.5-.21 1.06-.18 1.65.02.64.14 1.31.32 1.96.19.64.43 1.24.73 1.77.28.51.6.94.95 1.26.21.19.4.32.57.38.15.05.3.03.48-.07.25-.15.48-.31.69-.48.22-.17.41-.36.58-.55.43-.49.65-1.03.74-1.59.09-.58.05-1.18-.04-1.77-.09-.6-.2-1.19-.41-1.74-.2-.53-.5-1.03-.96-1.45-.18-.16-.38-.32-.58-.46-.2-.13-.4-.25-.61-.36zm-1.59.02c.42-.27.96-.39 1.65-.3h.02l.02.01c.23.12.45.25.66.39.22.15.42.31.61.49.51.45.83.98 1.04 1.56.22.57.33 1.18.43 1.8.09.62.14 1.24.04 1.85-.1.62-.34 1.21-.81 1.75-.18.2-.38.39-.61.58-.22.18-.47.34-.73.5-.25.15-.48.17-.71.09-.21-.06-.43-.22-.66-.43-.38-.34-.72-.8-1.02-1.34-.3-.54-.56-1.17-.75-1.83-.19-.67-.31-1.36-.33-2.02-.03-.63.03-1.23.19-1.75.18-.58.49-1.06.96-1.35z" class="fil1"/><path d="M60.72 22.28c-.73-.13-1.13.39-1.29 1.15-.17.77-.12 1.78.07 2.73.19.93.52 1.79.91 2.29.23.29.48.42.7.24.28-.23.51-.5.69-.78.48-.76.62-1.68.53-2.58-.1-.9-.45-1.77-.96-2.42-.19-.25-.41-.46-.65-.63z" class="fil4"/><path d="M60.67 22.42c-.29-.04-.51.03-.68.18-.21.18-.34.48-.42.86-.08.36-.11.78-.1 1.22.01.47.07.97.17 1.45.1.47.23.91.38 1.3.15.38.32.7.5.93.1.13.21.22.31.26.06.02.13.01.19-.04.14-.11.26-.23.36-.35.11-.13.21-.26.3-.4.22-.35.37-.74.45-1.14.09-.44.1-.89.06-1.34-.05-.44-.16-.87-.32-1.26-.15-.41-.36-.77-.61-1.09-.09-.12-.19-.23-.3-.33-.09-.09-.19-.18-.29-.25zm-.86-.04c.24-.21.55-.31.93-.24h.03l.03.02c.12.09.24.19.35.3.12.11.23.23.33.36.27.34.49.73.66 1.16.16.42.27.88.33 1.34.05.48.03.96-.06 1.43-.09.43-.25.86-.49 1.24-.1.15-.21.29-.33.43-.11.13-.25.26-.39.38-.15.12-.3.14-.46.09-.15-.05-.3-.18-.44-.35-.2-.26-.38-.6-.54-1-.16-.4-.29-.87-.39-1.35-.11-.5-.17-1.01-.18-1.5-.01-.46.02-.91.1-1.29.09-.44.26-.79.52-1.02z" class="fil1"/><path d="M17.02 28.42c-3.57-.15-5.76 1.11-6.79 2.92-.46.81-.69 1.73-.71 2.68-.02.96.18 1.96.58 2.92 1.07 2.58 3.6 4.81 7.24 5.13 1.7.15 3.14-.49 4.23-1.54 1.26-1.23 2.07-3.03 2.3-4.86.01-.08.02-.17.03-.27.12-1.74-.74-3.36-2.01-4.6-1.3-1.27-3.01-2.14-4.55-2.35-.1-.01-.21-.02-.32-.03zm-3.72 6.64c-.22-.39-.36-.84-.4-1.36-.06-.81.09-1.48.39-2.01.34-.62.88-1.04 1.49-1.28.6-.22 1.27-.28 1.92-.18.79.12 1.55.48 2.11 1.03.18.19.33.39.46.6.34.61.46 1.33.37 2.02-.08.69-.37 1.36-.85 1.85-.17.19-.36.34-.57.47-.46.28-1 .43-1.56.48-.63.05-1.3-.06-1.89-.32-.6-.27-1.13-.7-1.47-1.3z" class="fil2"/><path id="1" d="M10.38 31.42l-.29-.17.1-.17.11-.17.12-.17.12-.16.13-.16.14-.15.15-.15.15-.15.16-.14.17-.13.18-.13.18-.13.19-.12.2-.11.2-.11.21-.11.22-.09.23-.09.23-.09.25-.08.25-.07.25-.07.27-.06.27-.05.28-.04.29-.04.29-.03.31-.02.31-.01.31-.01h.33l.33.01-.01.34-.33-.01h-.62l-.31.02-.29.02-.29.03-.27.03-.27.04-.26.06-.26.05-.24.06-.24.07-.23.08-.23.08-.22.09-.2.09-.21.1-.19.1-.19.11-.18.11-.17.12-.16.12-.16.13-.15.13-.14.14-.14.14-.13.14-.12.15-.12.15-.11.16-.1.16-.1.16zm-.69 2.6l-.34-.01.01-.09v-.09l.01-.09v-.09l.01-.09.01-.09.01-.09.01-.09.01-.09.02-.09.01-.09.02-.09.02-.09.02-.09.02-.08.02-.09.02-.09.03-.08.02-.09.03-.08.03-.09.03-.08.03-.09.03-.08.04-.08.03-.08.04-.09.04-.08.04-.08.04-.08.04-.08.05-.08.29.17-.04.07-.04.08-.04.07-.04.08-.03.07-.04.08-.03.08-.03.07-.03.08-.03.08-.03.08-.03.08-.02.08-.03.08-.02.08-.02.09-.02.08-.02.08-.02.08-.02.09-.01.08-.02.08-.01.09-.01.08-.02.09v.08l-.01.09-.01.08-.01.09v.09l-.01.08v.09zm.57 2.85l-.32.13-.03-.09-.04-.09-.03-.09-.04-.1-.03-.09-.03-.09-.03-.1-.03-.09-.03-.09-.03-.1-.02-.09-.03-.09-.02-.1-.02-.09-.02-.09-.02-.1-.02-.09-.02-.1-.01-.09-.01-.09-.02-.1-.01-.09-.01-.1-.01-.09-.01-.09v-.1l-.01-.09v-.09l-.01-.1v-.28l.34.01v.26l.01.09v.18l.01.09.01.09.01.09.01.09.01.09.01.09.01.09.02.09.01.09.02.09.02.09.02.09.02.09.02.09.03.09.02.09.03.08.02.09.03.09.03.09.03.09.03.09.03.09.04.09.03.08.04.09zm7.1 5.03l-.03.34-.35-.04-.33-.05-.33-.05-.33-.07-.32-.08-.3-.09-.31-.1-.29-.11-.29-.11-.29-.13-.27-.13-.27-.14-.26-.16-.25-.15-.24-.17-.24-.17-.23-.18-.22-.19-.22-.19-.2-.2-.2-.2-.19-.21-.19-.22-.17-.21-.17-.23-.15-.22-.15-.24-.15-.23-.13-.24-.12-.24-.12-.24-.11-.25.32-.13.1.24.11.23.12.23.13.23.13.23.15.22.15.22.16.21.17.21.17.21.18.2.19.19.2.19.21.19.21.18.22.17.23.16.24.17.24.15.25.14.25.14.27.13.27.12.28.11.28.1.29.1.3.08.31.08.31.07.32.05.32.05.34.03zm4.09-1.49l.24.24-.11.1-.11.1-.11.09-.11.1-.12.09-.11.08-.12.09-.12.08-.12.07-.13.08-.12.07-.13.07-.13.06-.13.07-.14.05-.14.06-.13.05-.14.05-.14.04-.15.04-.14.03-.15.04-.15.02-.15.03-.15.01-.16.02-.15.01-.16.01h-.32l-.16-.01-.16-.01.03-.34.15.01.15.01h.3l.15-.01.15-.01.14-.01.14-.02.14-.02.14-.03.14-.02.14-.04.13-.03.13-.05.13-.04.13-.05.13-.05.13-.05.12-.06.12-.06.12-.07.12-.06.12-.07.11-.08.12-.07.11-.08.11-.08.11-.09.1-.08.11-.1.1-.09.1-.09zm2.26-4.77l.33.05-.02.17-.03.17-.03.18-.04.17-.03.18-.04.17-.05.17-.04.17-.05.17-.06.17-.05.17-.07.16-.06.17-.06.16-.07.16-.08.16-.07.16-.08.16-.09.15-.08.16-.09.15-.09.14-.09.15-.1.14-.1.14-.1.14-.11.14-.11.13-.11.13-.12.13-.11.12-.12.12-.24-.24.11-.12.12-.11.1-.12.11-.13.1-.12.11-.13.09-.13.1-.14.09-.14.09-.13.09-.15.09-.14.08-.15.08-.14.07-.15.08-.16.07-.15.06-.16.07-.15.06-.16.06-.16.05-.16.05-.17.05-.16.05-.17.04-.16.04-.17.03-.16.04-.17.03-.17.02-.17.03-.17zm.33.05v.02-.02zm-.31-.3l.34.02v.03l-.01.02v-.01.1-.01.01l-.01.02V35.64v-.01.01l-.01.02v.01-.01.03l-.33-.05v-.03.01-.06l.01-.01v-.03.01-.06.01-.03l.01-.01v-.03.01-.03zm0 0v-.01.01zm-1.96-4.47l.23-.25.12.13.12.12.12.12.11.13.11.13.11.13.1.13.1.14.1.13.09.14.09.14.09.15.08.14.08.15.07.14.08.15.06.15.07.16.06.15.05.16.05.15.04.16.04.16.04.16.03.16.02.16.02.17.02.16v.17l.01.17-.01.16v.17l-.34-.02.01-.16v-.31l-.01-.15-.02-.16-.01-.15-.03-.15-.02-.15-.04-.15-.03-.15-.05-.15-.04-.15-.05-.15-.06-.14-.06-.14-.06-.15-.07-.14-.07-.14-.07-.14-.08-.13-.09-.14-.08-.13-.09-.14-.09-.13-.1-.13-.1-.12-.1-.13-.11-.12-.1-.12-.11-.12-.12-.12-.11-.11zm-4.45-2.3l.04-.33.15.02.15.02.15.03.15.04.16.03.15.04.15.05.15.05.15.05.16.05.15.06.15.07.15.06.15.07.15.07.15.08.15.07.15.09.15.08.14.09.15.09.14.09.15.1.14.1.14.1.13.1.14.11.13.11.13.11.13.12.13.11.12.12-.23.25-.12-.12-.12-.11-.13-.11-.13-.11-.12-.11-.14-.1-.13-.1-.13-.1-.14-.1-.13-.09-.14-.09-.14-.09-.14-.08-.15-.08-.14-.08-.14-.07-.15-.08-.14-.07-.14-.06-.15-.06-.15-.07-.14-.05-.15-.05-.14-.05-.15-.05-.14-.04-.15-.04-.14-.04-.15-.03-.14-.03-.14-.02-.14-.02zm-.47-.2h.34l-.16-.17h.02l.02.01h.09v.01H17.27l.01.01H17.34l.01.01h.01l-.04.33h-.03l-.01-.01h-.09l-.02-.01h-.02.01-.07l-.02-.01H17.01l-.16-.17zm.16.17l-.16-.01v-.16l.16.17zm.18-.17h-.34l.17-.17.17.17zm-.17-.17l.17.01v.16l-.17-.17zm-4.29 5.46l.34-.02v.04l.01.05v.04l.01.05v.04l.01.05.01.04v.04l.01.05.01.04.01.04.01.05.01.04.01.04.01.04.01.04.02.04.01.04.01.04.02.04.01.03.01.04.02.04.02.04.01.04.02.03.01.04.02.03.02.04.02.03.02.04.02.03-.3.17-.02-.04-.02-.04-.02-.04-.02-.04-.02-.04-.02-.04-.02-.04-.02-.04-.01-.04-.02-.04-.02-.05-.01-.04-.02-.04-.01-.05-.02-.04-.01-.04-.01-.05-.02-.05-.01-.04-.01-.05-.01-.04-.01-.05-.01-.05-.01-.05-.01-.04v-.05l-.01-.05-.01-.05v-.05l-.01-.05-.01-.05v-.05zm.41-2.1l.3.16-.03.05-.02.05-.03.05-.02.05-.02.05-.03.05-.02.05-.02.05-.01.06-.02.05-.02.06-.02.05-.01.06-.02.05-.01.06-.01.06-.01.06-.02.06v.06l-.01.07-.01.06-.01.06v.07l-.01.07V33.61l.01.08-.34.02v-.08l-.01-.08V33.18l.01-.07v-.08l.01-.07v-.06l.01-.08.01-.06.01-.07.01-.07.02-.06.01-.07.01-.06.02-.07.02-.06.02-.06.02-.06.01-.06.03-.06.02-.06.02-.06.02-.06.03-.05.03-.06.02-.05.03-.06.03-.05zm1.58-1.35l.12.31-.05.02-.05.03-.06.02-.05.03-.05.02-.06.03-.05.02-.05.03-.05.03-.05.03-.05.03-.04.04-.05.03-.05.04-.04.03-.05.04-.04.04-.05.04-.04.04-.04.04-.04.04-.04.04-.04.05-.04.04-.04.05-.03.05-.04.04-.03.05-.04.05-.03.06-.03.05-.03.05-.3-.16.04-.06.03-.06.04-.06.04-.05.03-.06.05-.06.04-.05.04-.05.04-.05.05-.05.04-.05.05-.05.05-.05.05-.04.04-.05.05-.04.05-.04.06-.04.05-.04.05-.04.06-.03.05-.04.06-.03.05-.04.06-.03.06-.03.05-.03.06-.03.06-.03.06-.02.06-.03.06-.02zm2.01-.2l-.05.34-.06-.01-.06-.01-.06-.01h-.06l-.06-.01h-.06l-.05-.01h-.36l-.06.01h-.05l-.06.01h-.06l-.06.01-.05.01-.06.01h-.06l-.06.02-.05.01-.06.01-.06.01-.05.02-.06.01-.05.02-.06.02-.05.01-.05.02-.06.02-.12-.31.06-.02.06-.03.06-.02.06-.01.06-.02.06-.02.06-.01.07-.02.06-.01.06-.01.06-.02.06-.01.07-.01h.06l.06-.01.07-.01h.06l.07-.01h.06l.06-.01h.26l.06.01h.07l.06.01h.06l.07.01.06.01h.06l.07.01zm2.2 1.08l-.24.24-.05-.05-.05-.04-.06-.05-.05-.05-.05-.04-.06-.05-.06-.04-.05-.04-.06-.04-.06-.04-.06-.04-.06-.03-.06-.04-.07-.03-.06-.03-.06-.04-.07-.03-.06-.03-.07-.02-.06-.03-.07-.03-.07-.02-.07-.02-.07-.03-.06-.02-.07-.01-.07-.02-.07-.02-.07-.02-.07-.01-.07-.01-.07-.01.05-.34.07.02.08.01.08.02.07.01.08.02.08.02.07.02.07.02.08.03.07.02.08.03.07.03.07.02.07.04.07.03.07.03.07.04.07.03.07.04.07.04.07.04.06.04.07.04.06.05.07.04.06.05.06.05.06.04.06.06.06.05.05.05.06.05zm.48.64l-.29.16-.01-.01-.01-.02-.02-.02-.01-.02-.01-.02-.01-.02-.01-.02-.01-.01-.02-.02-.01-.02-.01-.02-.01-.02-.02-.01-.01-.02-.01-.02-.02-.02-.01-.02-.01-.01-.01-.02-.02-.02-.02-.02-.01-.01-.01-.02-.02-.01-.01-.02-.02-.02-.01-.02-.02-.01-.02-.02-.01-.01-.02-.02-.01-.02.24-.24.02.02.01.02.02.02.02.02.02.02.01.02.02.01.02.02.01.02.02.02.02.02.01.02.02.02.01.02.02.02.02.02.01.02.01.02.02.02.01.02.02.02.01.02.02.02.01.02.01.02.02.02.01.02.01.03.02.01.01.03.01.02.01.02zm.4 2.12l-.33-.04v-.06l.01-.06v-.06l.01-.07v-.31l-.01-.06v-.06l-.01-.06v-.07l-.01-.06-.01-.06-.01-.06-.01-.06-.02-.06-.01-.06-.01-.06-.02-.06-.02-.06-.02-.06-.02-.06-.02-.06-.02-.05-.03-.06-.02-.06-.03-.05-.02-.06-.03-.05-.03-.06.29-.16.04.06.03.06.03.06.03.06.03.07.02.06.03.07.02.06.02.06.03.07.02.07.01.06.02.07.02.07.01.06.01.07.01.07.01.07.01.06.01.07.01.07v.07l.01.07v.27l-.01.07v.14l-.01.07-.01.06zm-.89 1.95l-.25-.23.04-.04.04-.05.04-.05.04-.04.04-.05.03-.05.04-.05.03-.05.04-.05.03-.05.03-.06.03-.05.03-.05.03-.06.02-.05.03-.06.02-.05.03-.06.02-.06.02-.06.02-.05.02-.06.02-.06.02-.06.01-.06.02-.06.01-.06.02-.06.01-.06.01-.07.01-.06.01-.06.33.04-.01.07-.01.07-.01.06-.01.07-.02.07-.01.07-.02.06-.02.07-.02.06-.02.07-.02.06-.02.07-.02.06-.03.07-.02.06-.03.06-.03.06-.03.06-.03.06-.03.06-.04.06-.03.06-.04.06-.04.06-.03.05-.04.06-.04.05-.04.06-.05.05-.04.05-.05.05-.04.05zm-.25-.23zm-.37.73l-.17-.29.02-.01.01-.02.02-.01.02-.01.02-.01.02-.01.02-.02.02-.01.01-.01.02-.01.02-.02.01-.01.02-.01.02-.02.01-.01.02-.01.02-.02.02-.01.02-.01.01-.02.02-.01.01-.02.02-.01.02-.02.01-.01.02-.02.01-.01.02-.02.02-.01.01-.02.02-.02.01-.01.25.23-.02.02-.01.01-.02.02-.02.02-.02.02-.02.01-.01.02-.02.02-.02.01-.02.02-.02.02-.02.02-.02.01-.01.02-.02.01-.02.02-.02.01-.02.02-.02.02-.02.01-.02.01-.02.02-.02.01-.02.02-.02.01-.02.02-.02.01-.02.01-.02.02-.02.01-.02.01-.03.02zm-.17-.29zm-1.46.78l-.02-.33.05-.01h.05l.05-.01h.05l.05-.01.05-.01h.04l.05-.01.05-.01.05-.01.05-.01.05-.01.04-.02.05-.01.05-.01.05-.01.04-.02.05-.01.05-.02.04-.02.05-.01.04-.02.05-.02.04-.02.04-.02.05-.02.04-.02.04-.02.04-.02.05-.03.04-.02.04-.02.17.29-.04.02-.05.03-.04.02-.05.03-.05.02-.05.03-.04.02-.05.02-.05.02-.05.02-.05.02-.05.02-.05.02-.05.01-.05.02-.06.02-.05.01-.05.02-.05.01-.05.01-.06.02-.05.01-.05.01-.06.01-.05.01-.05.01-.05.01h-.06l-.05.01-.06.01h-.11zm-.01-.16l.01.16-.01-.16zm-1.96-.17l.14-.31.06.03.05.02.05.02.06.02.05.02.06.02.05.02.06.01.05.02.06.01.05.02.06.01.06.02.05.01.06.01.06.01.05.01.06.01h.06l.06.01h.05l.06.01h.06l.06.01H16.53l.06-.01h.06l.02.33-.06.01h-.06l-.06.01h-.25l-.07-.01h-.06l-.06-.01h-.07l-.06-.01h-.06l-.06-.01-.07-.01-.06-.01-.06-.01-.06-.01-.06-.01-.07-.02-.06-.01-.06-.02-.06-.02-.06-.01-.06-.02-.06-.02-.06-.02-.06-.02-.06-.02-.06-.03-.06-.02-.06-.03zm-1.55-1.37l.3-.17.03.05.03.06.03.05.04.05.03.05.04.04.03.05.04.05.04.04.04.05.04.04.04.04.04.04.04.05.05.04.04.03.04.04.05.04.05.04.04.03.05.04.05.03.05.03.05.03.05.03.05.03.05.03.05.03.05.03.06.03.05.02.05.02-.14.31-.05-.03-.06-.02-.06-.03-.06-.03-.06-.03-.05-.03-.06-.04-.05-.03-.06-.04-.05-.03-.06-.04-.05-.04-.05-.04-.05-.04-.05-.04-.05-.04-.05-.05-.05-.04-.05-.04-.05-.05-.04-.05-.04-.05-.05-.05-.04-.05-.04-.05-.04-.05-.04-.06-.04-.05-.04-.06-.04-.05-.03-.06-.04-.06zm0 0z" class="fil1"/><g><path d="M13.77 33.63c.03.38.13.7.28.97.25.43.63.74 1.07.94.45.2.97.28 1.48.25.42-.04.83-.16 1.18-.36.14-.09.28-.2.39-.32.34-.35.55-.84.61-1.34.06-.5-.02-1.02-.27-1.46-.08-.15-.19-.29-.31-.41-.42-.42-1.01-.69-1.63-.79-.51-.07-1.03-.03-1.48.14-.44.17-.81.46-1.05.88-.21.38-.32.88-.27 1.5z" class="fil4"/><path id="1" d="M14.2 34.52l-.29.17-.02-.03-.01-.03-.02-.03-.01-.03-.02-.02-.01-.03-.02-.03-.01-.03-.01-.03-.01-.03-.02-.04-.01-.03-.01-.03-.01-.03-.01-.03-.01-.04-.01-.03-.01-.03-.01-.04v-.03l-.01-.03-.01-.04-.01-.03v-.04l-.01-.03-.01-.03v-.04l-.01-.04v-.07l-.01-.04v-.03l.34-.03v.07l.01.03v.06l.01.03v.03l.01.04v.03l.01.03.01.03v.02l.01.03.01.03.01.03.01.03v.03l.01.02.01.03.01.03.01.03.01.02.01.03.01.02.01.03.01.03.02.02.01.03.01.02.01.02.02.03.01.02zm.99.87l-.14.3-.05-.02-.04-.01-.04-.03-.04-.02-.05-.02-.04-.03-.04-.02-.04-.02-.04-.03-.04-.03-.04-.03-.04-.02-.04-.03-.04-.03-.03-.03-.04-.03-.03-.03-.04-.04-.04-.03-.03-.03-.03-.04-.04-.03-.03-.04-.03-.04-.03-.04-.03-.03-.03-.05-.03-.04-.03-.04-.02-.04-.03-.04-.02-.04.29-.17.02.04.02.03.03.04.02.03.03.04.02.03.02.03.03.04.03.03.03.03.02.03.03.03.03.03.03.03.03.02.03.03.04.03.03.03.03.02.03.03.04.02.03.02.03.03.04.02.04.02.03.02.04.02.04.02.03.02.04.02.04.02.04.02zm-.14.3zm1.55-.07v.33h.01l-.05.01H16.16l-.05-.01h-.1l-.05-.01-.05-.01h-.05l-.05-.01-.05-.01-.05-.01-.04-.01-.05-.01-.05-.01-.05-.01-.05-.01-.05-.02-.05-.01-.04-.02-.05-.01-.05-.02-.04-.02-.05-.02-.05-.02-.04-.02.14-.3.04.02.04.01.04.02.04.01.04.02.04.01.05.02.04.01.04.01.04.01.05.01.04.01.05.01.04.01.04.01.05.01h.04l.05.01.04.01h.04l.05.01h.18l.04.01h.09l.05-.01h.15zm-.02 0h.02-.02zm.02.33v-.33l.01.33h-.01zm.01 0h-.01.01zm1.08-.67l.17.29-.03.02-.04.02-.03.02-.04.02-.04.02-.03.02-.04.01-.03.02-.04.02-.04.01-.04.02-.04.01-.03.01-.04.02-.04.01-.04.01-.04.01-.04.02-.04.01-.04.01-.04.01h-.04l-.04.01-.05.01-.04.01h-.04l-.04.01-.04.01h-.04l-.04.01h-.09l-.02-.33.03-.01h.08l.04-.01h.03l.04-.01h.04l.03-.01.04-.01h.04l.03-.01.04-.01.03-.01.04-.01.03-.01.04-.01.03-.01.04-.01.03-.01.04-.02.03-.01.03-.01.04-.01.03-.02.03-.01.04-.02.03-.01.03-.02.03-.01.03-.02.03-.02.03-.02zm0 0zm.36-.28l.24.23-.01.01-.01.02h-.01l-.01.01-.02.02-.01.01-.01.01-.01.01-.02.02-.01.01-.01.01-.01.01-.02.01-.01.01-.02.01-.01.02h-.01l-.01.01-.02.02h-.01l-.01.01-.02.02-.01.01h-.02l-.02.02-.01.01-.01.01-.02.01-.01.01h-.01l-.02.01-.02.01-.17-.29h.01l.01-.01.02-.01.01-.01h.01l.01-.01.02-.01v-.01l.02-.01.01-.01h.01l.01-.01.02-.01v-.01l.02-.01.01-.01.01-.01.01-.01h.01l.01-.01.01-.01.01-.01.02-.01v-.01l.02-.01.01-.02H18v-.01l.02-.01.01-.02h.01l.01-.01zm0 0zm.56-1.25l.34.04-.01.05-.01.05v.05l-.01.05-.01.05-.01.05-.02.05-.01.05-.01.05-.02.04-.01.05-.02.05-.02.05-.02.04-.02.05-.02.04-.02.05-.02.05-.02.04-.02.05-.03.04-.03.04-.02.04-.03.05-.03.04-.03.04-.03.04-.03.04-.03.04-.03.03-.03.04-.04.04-.24-.23.03-.04.03-.03.02-.03.03-.03.03-.04.02-.03.02-.03.03-.04.02-.04.02-.03.03-.04.02-.04.02-.03.02-.04.02-.04.01-.04.02-.04.02-.04.02-.04.01-.04.01-.04.02-.05.01-.04.01-.04.02-.04v-.05l.02-.04v-.04l.01-.05.01-.04.01-.04v-.05zm-.25-1.35l.3-.17.02.04.03.05.02.04.02.05.02.04.02.05.02.05.02.05.01.04.02.05.01.05.02.05.01.05.01.05.01.05.01.05.01.05.01.05v.05l.01.05v.05l.01.05v.3l-.01.05v.1l-.01.05-.34-.04.01-.04v-.05l.01-.04v-.31l-.01-.05v-.08l-.01-.05-.01-.04v-.04l-.01-.05-.01-.04-.01-.04-.01-.04-.01-.05-.01-.04-.02-.04-.01-.04-.02-.04-.01-.04-.02-.04-.02-.04-.02-.04-.01-.04-.02-.04-.03-.03zm0 0zm-.28-.38l.24-.24.01.01.01.02.02.01.01.02.01.01.02.01.01.01v.01l.02.02.01.01.01.02.01.01.01.01.01.02.02.01.01.02.01.01.01.01.01.02v.01l.02.02.01.01.01.02.01.01v.01l.01.02.02.02.01.01v.01l.01.02.01.01.01.02-.3.17v-.02l-.01-.01-.01-.01-.01-.02v-.01l-.01-.01-.01-.01-.01-.01-.01-.02-.01-.01v-.01l-.01-.01-.01-.01-.01-.02-.01-.01-.01-.01v-.01l-.01-.01-.01-.02-.01-.01-.01-.01-.01-.01-.01-.01-.01-.01-.01-.02-.01-.01-.01-.01-.01-.01-.01-.01-.01-.01-.01-.01-.01-.01zm-1.53-.74l.05-.33.06.01.06.01.06.01.06.01.06.02.06.01.06.02.06.02.05.02.06.01.06.03.06.02.05.02.06.02.06.03.05.02.06.03.05.03.06.03.05.03.05.03.05.03.05.03.05.04.05.03.05.04.05.03.04.04.05.04.04.04.05.04.04.04-.24.24-.04-.04-.04-.03-.03-.04-.04-.03-.05-.03-.04-.04-.04-.03-.04-.03-.05-.03-.04-.03-.05-.02-.04-.03-.05-.03-.05-.02-.04-.03-.05-.02-.05-.03-.05-.02-.05-.02-.05-.02-.06-.02-.05-.02-.05-.01-.05-.02-.05-.02-.06-.01-.05-.01-.06-.02-.05-.01-.06-.01-.05-.01-.05-.01zm-1.4.13l-.13-.32.05-.01.05-.02.04-.02.05-.01.05-.01.04-.02.05-.01.05-.01.05-.01.05-.01.05-.01.05-.01h.04l.05-.01.05-.01h.1l.05-.01H16.29l.06.01h.05l.05.01h.05l.05.01.05.01-.05.33-.05-.01h-.04l-.05-.01h-.05l-.04-.01H16.14l-.05-.01-.04.01H15.82l-.04.01h-.04l-.05.01-.04.01h-.05l-.04.01-.04.01-.05.01-.04.01-.04.01-.04.01-.04.01-.04.02-.04.01-.04.01-.04.02zm0 0zm-.96.8l-.29-.16.02-.04.03-.04.02-.05.03-.04.03-.03.03-.04.02-.04.04-.04.03-.03.03-.04.03-.03.03-.04.04-.03.03-.03.04-.03.03-.03.04-.03.04-.03.03-.03.04-.03.04-.02.04-.03.04-.02.04-.03.04-.02.04-.02.04-.02.04-.02.05-.02.04-.02.04-.02.04-.02.13.32-.04.01-.04.02-.03.01-.04.02-.04.02-.03.02-.04.02-.03.02-.04.02-.03.02-.03.02-.04.02-.03.02-.03.03-.03.02-.03.02-.03.03-.03.03-.03.02-.03.03-.03.03-.02.03-.03.03-.02.03-.03.03-.03.03-.02.03-.02.04-.03.03-.02.03-.02.04-.02.03zm-.29-.16zm.04 1.57l-.34.03v-.06l-.01-.06v-.35l.01-.05v-.06l.01-.05v-.06l.01-.05.01-.05v-.05l.01-.05.01-.05.01-.05.02-.05.01-.04.01-.05.02-.05.01-.04.01-.04.02-.05.02-.05.02-.03.01-.05.02-.04.02-.04.02-.04.03-.04.29.16-.02.04-.01.03-.02.03-.02.04-.01.04-.02.03-.01.04-.01.03-.02.05-.01.04-.01.03-.01.04-.02.04v.05l-.02.04v.04l-.01.05-.01.04-.01.05v.05l-.01.04v.05l-.01.05v.42l.01.05z" class="fil1"/></g><g><path d="M43.59 42.29c1.76.76 3.31.86 4.61.53 1.03-.25 1.9-.78 2.62-1.46.71-.69 1.26-1.53 1.63-2.43.51-1.25.66-2.59.39-3.71v-.02c-.24-1.12-.66-2.06-1.21-2.84-.84-1.18-1.99-1.96-3.24-2.38-1.26-.42-2.63-.48-3.89-.2-.92.2-1.79.58-2.51 1.12-.76.58-1.39 1.32-1.84 2.16-.52.98-.79 2.11-.74 3.25.05 1.15.42 2.32 1.2 3.41.67.94 1.65 1.83 2.98 2.57zm1.68-10.04c.05-.03.08-.05.12-.07.86-.49 1.9-.21 2.67.39.28.22.52.48.71.76.2.29.34.61.4.94.11.65-.08 1.29-.76 1.75l-.02.01c-.63.43-1.39.59-2.1.5-.72-.09-1.38-.44-1.79-1.04h-.01l-.02-.04c-.02-.04-.04-.07-.06-.09-.21-.41-.23-1.05-.07-1.64.16-.58.48-1.16.93-1.47z" class="fil2"/><path id="1" d="M48.16 42.66l.08.33-.12.03-.13.02-.13.03-.13.02-.13.02-.14.02-.13.01-.14.01-.14.01-.13.01H46.63l-.14-.01-.15-.01-.14-.01-.15-.01-.15-.02-.15-.02-.15-.02-.15-.03-.15-.03-.16-.03-.15-.04-.16-.04-.16-.04-.16-.05-.16-.05-.16-.05-.17-.06-.16-.07-.17-.06-.17-.07.14-.31.16.07.16.06.16.06.16.06.15.05.16.05.15.05.15.04.16.04.15.03.14.03.15.03.15.03.14.02.14.02.15.02.14.01.13.01h.14l.14.01h.27l.13-.01h.13l.13-.01.12-.02.13-.01.13-.02.12-.02.12-.03.12-.02.12-.03zm2.54-1.42l.23.24-.06.07-.07.06-.08.06-.07.06-.07.07-.07.06-.08.06-.08.05-.07.06-.08.06-.08.05-.08.06-.08.05-.08.05-.09.05-.08.05-.08.04-.09.05-.09.04-.08.05-.09.04-.09.04-.09.04-.09.04-.1.03-.09.04-.09.03-.1.03-.09.03-.1.03-.1.03-.1.03-.08-.33.09-.03.1-.02.09-.03.09-.03.09-.03.08-.03.09-.03.09-.03.08-.04.09-.04.08-.03.09-.04.08-.05.08-.04.08-.04.08-.05.08-.04.08-.05.08-.05.07-.05.08-.05.07-.05.08-.05.07-.05.07-.06.07-.06.07-.05.07-.06.07-.06.07-.06.06-.06.07-.06zm1.59-2.37l.32.13-.04.08-.04.09-.03.08-.04.09-.04.08-.04.08-.04.09-.05.08-.04.08-.05.09-.05.08-.04.08-.05.08-.05.08-.05.08-.05.08-.06.08-.05.07-.06.08-.05.08-.06.07-.06.08-.06.07-.06.07-.06.08-.06.07-.06.07-.07.07-.06.07-.07.07-.07.06-.07.07-.23-.24.06-.07.07-.06.06-.06.06-.07.07-.07.06-.06.06-.07.05-.07.06-.07.06-.07.05-.07.06-.08.05-.07.05-.07.05-.07.06-.08.05-.07.04-.08.05-.08.05-.07.04-.08.05-.08.04-.08.04-.08.04-.08.04-.08.04-.08.04-.08.04-.08.03-.08.04-.08.03-.08zm.39-3.61l.32-.09v.01l.03.11.02.11.02.11.02.11.01.12.02.11.01.12v.12l.01.11v.36l-.01.12v.12l-.01.12-.01.12-.02.13-.02.12-.01.12-.02.12-.03.13-.02.12-.03.12-.03.12-.03.12-.04.13-.04.12-.03.12-.05.12-.04.12-.04.13-.05.12-.32-.13.05-.12.04-.11.05-.12.03-.11.04-.12.04-.12.03-.11.03-.12.03-.12.03-.11.02-.12.02-.12.02-.11.02-.12.02-.12.01-.11.01-.12.01-.11.01-.12v-.56l-.01-.11-.01-.11-.01-.1-.02-.11-.01-.11-.02-.1-.02-.1-.02-.1zm.32-.09v.01-.01zm0-.01v.01l-.32.09v-.01l-.01-.01.33-.08zm-.32.09h-.01v-.01l.01.01zm-1.18-2.79l.27-.19.06.07.05.08.05.07.05.08.05.08.05.08.04.08.05.08.04.09.05.08.04.09.05.08.04.09.04.08.04.09.04.1.04.09.04.09.03.09.04.1.03.09.04.1.03.1.03.09.03.1.03.1.03.11.02.1.03.1.03.11.02.1.02.11-.33.07-.02-.1-.02-.11-.03-.1-.02-.1-.03-.1-.03-.09-.02-.1-.03-.1-.03-.09-.04-.09-.03-.1-.03-.09-.03-.09-.04-.09-.03-.09-.04-.08-.04-.09-.04-.08-.04-.09-.04-.08-.04-.08-.04-.08-.04-.08-.05-.08-.04-.08-.05-.08-.04-.07-.05-.08-.05-.07-.04-.07-.05-.08-.05-.07zm-3.17-2.32l.11-.32.12.04.12.05.12.04.12.05.12.05.11.05.12.06.11.05.12.06.11.07.11.06.11.06.11.07.11.07.11.08.11.07.1.08.11.08.1.08.1.08.1.09.1.09.09.09.1.09.09.1.1.1.09.1.08.1.09.11.09.1.08.11.08.12-.27.19-.08-.1-.08-.11-.08-.1-.08-.1-.09-.1-.08-.1-.09-.09-.09-.09-.09-.09-.09-.08-.1-.09-.09-.08-.1-.08-.1-.08-.09-.07-.1-.08-.1-.07-.11-.07-.1-.06-.1-.07-.11-.06-.1-.06-.11-.06-.11-.06-.11-.05-.11-.05-.11-.05-.11-.05-.11-.05-.12-.04-.11-.04-.12-.04zm-3.79-.2l-.07-.32.12-.03.12-.02.12-.03.12-.01.13-.02.12-.02.13-.01.12-.01.13-.01.12-.01h.12l.13-.01h.25l.13.01h.12l.13.01.13.01.12.01.13.01.12.02.13.02.12.02.13.02.12.02.13.03.12.03.12.03.13.03.12.04.12.03.12.04-.11.32-.11-.04-.12-.03-.11-.04-.12-.03-.12-.03-.12-.02-.12-.03-.11-.02-.12-.02-.12-.02-.12-.02-.12-.01-.12-.02-.12-.01-.12-.01h-.12l-.12-.01h-.48l-.12.01h-.12l-.12.01-.12.01-.12.02-.12.01-.11.02-.12.02-.12.02-.12.02-.11.02zm-2.45 1.1l-.2-.27.07-.05.07-.05.07-.05.07-.05.08-.05.07-.05.08-.04.07-.05.08-.04.07-.04.08-.05.08-.04.08-.04.08-.04.08-.03.08-.04.08-.04.08-.03.09-.03.08-.04.08-.03.09-.03.08-.03.09-.03.08-.02.09-.03.09-.02.08-.03.09-.02.09-.02.09-.03.09-.01.07.32-.08.02-.09.02-.08.02-.09.03-.08.02-.08.02-.08.03-.09.02-.08.03-.08.03-.08.03-.08.03-.08.03-.08.03-.07.03-.08.04-.08.03-.07.04-.08.04-.08.03-.07.04-.07.04-.07.04-.08.04-.07.04-.07.05-.07.04-.07.05-.07.04-.07.05-.06.05-.07.05zm0 0zm-1.79 2.1l-.3-.16.05-.08.04-.08.05-.08.04-.08.05-.08.05-.07.05-.08.05-.08.05-.07.05-.08.06-.07.05-.07.06-.08.06-.07.05-.07.06-.07.06-.07.06-.07.06-.06.07-.07.06-.07.06-.06.07-.07.07-.06.06-.06.07-.06.07-.06.07-.06.07-.06.07-.06.08-.06.07-.05.2.27-.07.05-.07.05-.07.06-.06.05-.07.06-.06.06-.07.06-.06.06-.06.06-.07.06-.06.06-.06.06-.06.06-.06.07-.05.06-.06.07-.05.07-.06.06-.05.07-.06.07-.05.07-.05.07-.05.07-.05.07-.05.07-.04.08-.05.07-.05.08-.04.07-.04.07-.05.08-.04.08zm-.72 3.17l-.34.01v-.11l-.01-.11v-.11l.01-.11v-.22l.01-.11.01-.1.01-.11.02-.11.01-.11.02-.11.01-.1.02-.11.03-.11.02-.1.03-.11.02-.1.03-.11.03-.1.03-.1.04-.1.03-.11.04-.1.04-.1.04-.1.04-.1.04-.09.05-.1.05-.1.04-.09.05-.1.3.16-.04.09-.05.09-.04.09-.05.09-.04.1-.04.09-.04.1-.03.09-.04.1-.03.09-.03.1-.03.1-.03.1-.03.1-.02.09-.03.11-.02.09-.02.11-.02.1-.02.1-.01.1-.02.1-.01.1-.01.11-.01.1-.01.1v.11l-.01.1V36.2l.01.11zm1.16 3.31l-.27.19-.07-.1-.08-.11-.06-.1-.07-.11-.06-.1-.06-.11-.06-.11-.06-.1-.06-.11-.05-.11-.05-.11-.05-.11-.04-.11-.04-.11-.05-.11-.03-.11-.04-.11-.04-.11-.03-.11-.03-.11-.03-.11-.02-.11-.03-.11-.02-.11-.02-.11-.02-.11-.01-.11-.02-.12-.01-.11-.01-.11-.01-.11v-.11l.34-.01v.1l.01.11.01.1.01.11.01.1.02.1.01.11.02.1.02.11.03.11.02.1.03.11.03.1.03.1.03.11.04.1.03.11.04.1.04.11.05.1.04.1.05.11.05.1.05.1.05.1.06.11.06.1.06.1.06.1.07.1.07.1.06.1zm2.92 2.52l-.14.31-.01-.01-.13-.07-.12-.07-.12-.08-.12-.07-.12-.08-.12-.07-.11-.08-.11-.07-.11-.08-.11-.08-.1-.08-.11-.08-.1-.08-.1-.08-.09-.08-.1-.08-.09-.09-.09-.08-.09-.08-.09-.09-.09-.08-.08-.09-.08-.09-.09-.08-.07-.09-.08-.09-.07-.09-.08-.09-.07-.09-.07-.09-.07-.09-.06-.09.27-.19.07.09.06.08.07.09.06.08.08.09.07.08.07.09.08.08.07.08.08.09.08.08.09.08.08.08.09.08.08.08.09.08.1.08.09.08.1.08.09.08.1.07.11.08.1.08.1.07.11.08.11.07.11.07.12.07.11.08.12.07.12.07.12.07-.01-.01zm-.14.31l-.01-.01.01.01zm1.79-10.42l.17.29-.01.01h-.01l.02-.01-.03.02.01-.01-.02.01h.01-.01l-.02.02h-.01l.02-.01-.02.01-.01.01-.01.01-.01.01h-.01l.02-.02-.01.01-.02.02.01-.01-.19-.28.01-.01-.01.01.02-.02h.01l-.01.01.01-.01h-.01.02v-.01l.02-.01.02-.01h.01l-.02.01v-.01h.02l.02-.02-.01.01.02-.01h-.01l.02-.01zm.17.29l-.01.01.01-.01zm2.68.12l-.2.26-.07-.05-.07-.05-.08-.05-.07-.05-.07-.04-.08-.04-.07-.04-.08-.04-.08-.04-.08-.03-.08-.03-.08-.03-.08-.02-.08-.02-.08-.02-.08-.02-.08-.01-.08-.01-.08-.01h-.24l-.08.01-.08.01-.08.01-.08.02-.08.02-.07.02-.08.03-.08.03-.07.03-.07.04-.17-.29.09-.05.09-.04.09-.04.09-.03.09-.03.09-.02.1-.02.09-.02.09-.01.1-.01h.19l.09.01h.09l.1.02.09.01.09.02.09.02.1.03.09.02.09.04.09.03.08.04.09.04.09.04.08.04.09.05.08.05.08.05.08.05.08.06.07.06zm.75.8l-.28.18-.01-.02-.02-.03-.02-.02-.02-.02-.01-.03-.02-.02-.02-.03-.02-.02-.02-.03-.02-.02-.02-.02-.02-.03-.02-.02-.02-.02-.02-.02-.02-.03-.02-.02-.03-.02-.02-.02-.02-.03-.02-.02-.02-.02-.03-.02-.02-.03-.02-.01-.03-.03-.02-.02-.03-.02-.02-.02-.03-.02-.02-.02-.02-.02.2-.26.03.02.03.02.03.02.02.03.03.02.03.02.02.02.03.03.02.02.03.02.02.03.03.02.02.03.03.02.02.03.02.02.03.03.02.02.02.03.03.02.02.03.02.03.02.02.02.03.02.03.02.02.03.03.02.03.02.03.01.02.02.03.02.03zm.42 1l-.33.06v-.03l-.01-.03-.01-.03v-.03l-.01-.02-.01-.03-.01-.03v-.03l-.01-.02-.01-.03-.01-.03-.01-.03-.01-.03-.01-.02-.01-.03-.01-.03-.02-.03-.01-.02-.01-.03-.01-.03-.02-.03-.01-.02-.01-.03-.02-.02-.01-.03-.02-.03-.01-.02-.02-.03-.02-.03-.01-.02-.02-.03-.02-.03.28-.18.02.02.02.04.02.02.02.03.02.03.02.03.01.03.02.03.02.03.01.04.02.03.01.03.02.03.01.03.01.03.02.03.01.03.02.04.01.03.01.03.01.03.01.03.01.03.01.04.01.03.01.03.01.03.01.04v.03l.01.03.01.03v.04zm-.83 1.92l-.18-.28.05-.04.06-.04.05-.04.05-.05.05-.04.04-.04.04-.05.04-.04.04-.05.03-.05.03-.04.03-.05.03-.05.02-.05.03-.05.02-.05.02-.05.01-.05.02-.05.01-.05.01-.06.01-.05.01-.05v-.05l.01-.06v-.16l-.01-.06v-.05l-.01-.06-.01-.05.33-.06.01.06.01.07.01.06v.07l.01.07v.13l-.01.06v.07l-.01.06-.01.07-.02.06-.01.07-.02.06-.02.06-.03.07-.02.06-.03.06-.03.06-.04.06-.03.06-.04.06-.04.05-.05.06-.05.05-.05.06-.05.05-.05.05-.06.05-.06.05-.07.05-.06.05h-.01zm.01 0h-.01l-.02.02.03-.02zm-.21-.27l.02-.01.18.28-.02.02-.21-.27.03-.02zm-.03.02l.01-.01.02-.01-.03.02zm0 .01v-.01l.24.24-.03.02-.21-.25zm.24.23l-.01.01-.02.01.03-.02zm-2.24.55l.04-.33h.06l.07.01h.06l.06.01h.26l.06-.01.07-.01h.06l.07-.01.06-.01.06-.01.07-.01.06-.02.06-.01.07-.02.06-.02.06-.02.07-.02.06-.02.06-.02.06-.03.06-.03.06-.03.06-.02.06-.04.06-.03.05-.03.06-.04.06-.03.18.27-.06.05-.06.04-.07.03-.06.04-.06.03-.07.04-.07.03-.07.03-.07.03-.06.02-.07.03-.07.02-.07.02-.07.02-.07.02-.07.02-.07.02-.07.01-.08.01-.07.01-.07.01-.07.01-.07.01h-.14l-.08.01h-.07l-.07-.01h-.14l-.07-.01-.07-.01zm-1.89-1.09l.24-.24.02.03.03.05.04.05.04.05.04.05.04.04.05.05.04.04.04.04.05.04.05.04.05.04.05.03.05.04.05.04.05.03.05.03.06.03.05.03.06.02.06.03.05.02.06.03.06.02.06.02.06.02.06.01.06.02.06.01.06.02.07.01.06.01.06.01-.04.33-.07-.01-.07-.01-.07-.01-.07-.02-.07-.01-.07-.02-.07-.02-.07-.02-.06-.02-.07-.03-.07-.02-.06-.03-.07-.03-.06-.03-.06-.03-.06-.04-.06-.03-.07-.04-.05-.04-.06-.04-.06-.04-.06-.05-.05-.04-.05-.05-.06-.05-.05-.05-.05-.05-.04-.05-.05-.06-.05-.06-.04-.06-.04-.06.02.03zm.24-.24v.01l.02.02-.02-.03zm-.01 0h.01l-.24.24h-.01l-.02-.03.26-.21zm-.24.24l-.01-.01-.01-.02.02.03zm.24-.26l.03.05-.29.18-.03-.04.29-.19zm0 0zm-.34.09l.29-.16h.01v.01-.01.01l.01.01-.02-.02.02.02.01.03-.02-.04.02.04-.01-.02v-.01l.01.02-.01-.01.01.02h.01v.02l-.01-.02.02.02v.01-.01l-.29.19v-.01l.01.01-.02-.02v-.01l-.01-.01.01.01-.01-.02v.01l-.01-.01-.01-.03.02.03-.03-.04.01.02.01.01-.01-.02-.01-.01.01.01-.01-.02h-.01v-.01l.01.01zm.29-.16h.01v.02l-.01-.02zm-.38-1.6l.32.08h.01l-.02.05-.01.06-.01.05-.01.05-.01.06-.01.05-.01.06-.01.05v.05l-.01.05v.11l-.01.05v.1l.01.05v.1l.01.05v.05l.01.04v.05l.01.04.01.04.01.05.01.04.02.04.01.04.02.03.01.04.02.03.01.04-.29.16-.03-.05-.02-.04-.02-.05-.02-.05-.01-.05-.02-.05-.01-.05-.02-.05-.01-.05-.01-.05-.01-.06v-.05l-.01-.06-.01-.05V34.33l.01-.06v-.06l.01-.06v-.06l.01-.06.01-.06.01-.06.02-.06.01-.06.01-.05.02-.06zm0 0l-.18.65.18-.65zm1-1.57l.19.28-.04.03-.03.02-.04.03-.04.04-.03.03-.04.03-.03.04-.04.03-.03.04-.03.04-.03.04-.03.04-.03.04-.03.04-.03.05-.03.04-.03.05-.02.04-.03.05-.03.05-.02.04-.02.05-.02.05-.02.05-.03.05-.02.05-.01.05-.02.06-.02.05-.02.05-.01.05-.02.05-.32-.08.01-.06.02-.06.02-.06.02-.05.02-.06.02-.06.02-.05.02-.06.03-.05.02-.06.03-.05.02-.06.03-.05.03-.05.03-.05.03-.06.03-.04.04-.05.03-.05.03-.05.04-.05.03-.04.04-.05.04-.04.04-.04.04-.05.04-.04.05-.04.04-.03.04-.04.05-.03.05-.04zm0 0l.02-.01-.02.01z" class="fil1"/></g><g><path fill="#fefefe" fill-rule="nonzero" d="M2.33 27.56c-.25-.02-.4.19-.46.49-.09.41-.06.94.04 1.45.1.5.27.95.47 1.2.06.08.11.12.12.11.14-.12.26-.25.35-.39.24-.39.31-.86.26-1.32-.05-.47-.23-.92-.49-1.26-.09-.11-.18-.21-.29-.28zm-1.31.3c.18-.83.66-1.37 1.57-1.16l.08.01.06.05c.21.14.4.31.57.52.36.47.61 1.09.68 1.72.07.65-.04 1.33-.4 1.9-.14.22-.31.42-.53.6-.5.41-.96.25-1.35-.24-.28-.36-.51-.95-.64-1.58-.13-.62-.16-1.28-.04-1.82z"/><path id="1" d="M2.03 28.09l-.33-.07.01-.03.01-.04v-.03l.01-.02.01-.04.01-.03.01-.02.02-.03.01-.03.01-.03.02-.03.01-.02.01-.02.02-.03.02-.02.02-.03.02-.02.02-.02.02-.02.03-.02.02-.02.03-.01.02-.02.03-.01.03-.01.03-.01.03-.01.04-.01h.13l-.03.33H2.3l-.02.01h-.04l-.01.01h-.01l-.01.01H2.2l-.01.01-.01.01-.02.01v.01l-.01.01-.01.02-.01.01-.01.01-.01.02-.01.02v.01l-.01.02-.01.02-.01.02-.01.02v.02l-.01.02-.01.03v.02l-.01.03zm-.33-.07zm.38 1.45l-.34.06v.01l-.01-.05-.01-.05v-.05l-.01-.05-.01-.05-.01-.05v-.05l-.01-.05-.01-.05v-.05l-.01-.05v-.05l-.01-.05v-.52l.01-.05v-.04l.01-.05v-.04l.01-.05v-.04l.01-.04.01-.04.33.07-.01.03v.04l-.01.03v.04l-.01.04v.04l-.01.04v.12l-.01.05V28.69l.01.04v.14l.01.04v.05l.01.05v.09l.01.04.01.05.01.05v.04l.01.05.01.04.01.05.01.05zm0 0l-.02-.09.02.09zm.43 1.13l-.26.21-.03-.03-.02-.03-.02-.03-.02-.03-.02-.04-.02-.03-.02-.03-.01-.03-.02-.04-.02-.04-.02-.03-.01-.04-.02-.04-.02-.04-.01-.04-.02-.04-.02-.04-.01-.04-.02-.04-.01-.05-.01-.04-.02-.04-.01-.05-.02-.04-.01-.05-.01-.04-.01-.05-.01-.05-.02-.04-.01-.05-.01-.05-.01-.05.34-.06v.04l.02.05v.04l.02.04.01.05.01.04.01.04.01.05.01.04.02.04.01.04.01.04.01.04.02.04.01.03.02.04.01.04.01.03.02.04.01.03.02.03.02.04.01.03.01.03.02.03.02.03.01.02.02.03.01.02.02.03.02.02.01.02zm-.26.21l-.01-.01.01.01zm.15-.13l.21.26-.01.01-.06.02-.04.01h-.01l-.04-.01-.02-.01h-.01l-.02-.01-.02-.01-.02-.01-.02-.02.02.02-.03-.03h-.01v-.01h-.01v-.01l-.01-.01-.01-.01h.01-.01l-.02-.03v.01l-.01-.02-.01-.01.26-.21.01.01v-.01l.01.02.01.02-.01-.02.01.01.01.02v-.01l.01.01.01.01v.01l-.01-.02.03.02h-.01l-.01-.01-.02-.01.02.01-.02-.01h-.02l-.04-.01h.01l-.04.01-.05.02-.01.01zm.21.26l-.01.01.01-.01zm.09-.61l.29.18-.01.01-.01.02-.01.01-.01.01-.01.02-.01.01-.01.02-.01.01-.01.01-.01.02-.01.01-.01.01-.01.02-.01.01-.02.02-.01.02-.01.01-.01.01-.01.01-.02.02-.01.01-.01.01-.01.01-.02.02-.01.01-.02.01-.01.01-.01.02-.02.01-.01.01-.01.01-.02.02-.21-.26.01-.01.01-.01.02-.02.01-.01.02-.02h.01v-.01l.02-.01.01-.02h.01l.01-.02.01-.01.02-.02.01-.01.01-.01v-.01l.01-.01.01-.01.01-.02.01-.01h.01l.01-.02.01-.01.01-.01.01-.02v-.01l.01-.01.01-.01v-.01l.01-.01zm.25-1.21l.33-.04.01.05v.09l.01.05V29.45l-.01.05v.09l-.01.04v.05l-.01.05-.01.04v.05l-.01.04-.01.05-.01.04-.01.05-.02.04-.01.05-.02.04-.01.04-.02.05-.02.04-.02.04-.02.04-.02.04-.02.04-.02.05-.03.04-.29-.18.02-.04.02-.03.02-.03.02-.04.02-.03.01-.04.02-.03.01-.04.01-.03.02-.04.01-.04.01-.03.01-.04.01-.04v-.04l.01-.04.01-.04.01-.03v-.04l.01-.04v-.08l.01-.04V29.24l-.01-.04v-.08zm0 0v.04-.04zm-.46-1.17l.26-.21.03.04.03.03.02.04.02.03.03.04.02.04.02.03.03.04.02.04.02.04.02.04.02.04.02.04.02.05.02.04.01.04.02.04.02.05.01.04.02.04.01.05.01.04.02.05.01.04.01.05.01.04.01.05.01.05v.04l.01.05.01.05v.04l-.33.04-.01-.04v-.04L2.93 29l-.01-.04-.01-.04v-.05l-.01-.04-.01-.04-.01-.04-.01-.03-.02-.04-.01-.05-.01-.03-.01-.04-.02-.04-.01-.04-.02-.03-.01-.04-.02-.04-.02-.03-.01-.04-.02-.03-.02-.04-.02-.03-.02-.03-.02-.04-.02-.03-.02-.03-.02-.03-.02-.03-.02-.03-.02-.03zm0 0l.08.11-.08-.11zm-.17-.23l.03-.33.09.03.01.01.01.01.01.01.01.01h.01l.01.02h.01l.01.01.01.01.01.01.01.01.02.01v.01l.01.01.01.01.01.01.01.01.01.01.01.01.01.01.02.02.01.01.01.01.01.01.01.01.01.02.01.01.01.01v.01l.01.01.01.01-.26.21-.01-.01-.01-.01-.01-.01-.01-.01v-.01l-.01-.01-.01-.01-.01-.01-.01-.01-.01-.02h-.01v-.01h-.01l-.01-.01-.01-.01-.01-.01v-.01l-.02-.01v-.01h-.01l-.01-.01v-.01H2.3l-.01-.01-.01-.01-.01-.01h-.01l-.01-.01-.01-.01-.01-.01.09.03zm.03-.33h.05l.04.03-.09-.03zm.28-.86l-.07.33-.08-.02-.08-.01h-.07l-.07-.01h-.12l-.06.01-.06.01-.06.01-.05.02-.05.01-.05.03-.04.02-.05.03-.04.02-.04.04-.04.03-.04.04-.04.04-.03.05-.04.04-.03.05-.03.05-.03.05-.03.06-.02.06-.03.06-.02.07-.02.06-.02.07-.02.07-.02.08-.33-.08.02-.08.02-.08.03-.07.02-.08.03-.08.03-.07.03-.07.03-.07.04-.06.04-.07.04-.06.04-.06.05-.06.05-.05.05-.05.05-.05.06-.04.06-.05.06-.03.07-.04.06-.03.08-.02.07-.02.07-.02.08-.01.08-.01.08-.01.09.01h.08l.09.01.09.01.09.02zm-.07.33zm.07.02l-.07-.02.07-.33.08.02.05.02-.13.31zm.08-.33l.03.01.02.01-.05-.02zm-.07.35l-.06-.04.18-.29.07.05-.19.28zm.19-.28l-.07-.05.07.05zm.6.56l-.26.21-.02-.02-.01-.02-.02-.02-.01-.02-.02-.01-.01-.02-.02-.02-.02-.01-.01-.02-.01-.02L3 27.2l-.02-.02-.02-.02-.01-.01-.01-.02-.02-.01-.02-.02-.02-.01-.01-.02-.02-.02-.02-.01-.01-.01-.02-.02-.02-.01-.02-.02-.01-.01-.02-.01-.02-.01-.01-.02-.03-.01-.01-.01-.02-.01.19-.28.02.01.02.02.02.01.02.01.02.02.02.01.02.02.02.02.02.01.02.02.02.02.02.01.02.02.02.02.02.02.02.01.02.02.02.02.02.01.01.02.02.02.02.02.02.02.02.02.01.02.02.02.02.02.02.02.01.02.02.02.02.02.01.02zm0 0zm.72 1.81l-.34.03-.01-.06v-.05l-.01-.06-.01-.05-.01-.06-.01-.06-.02-.05-.01-.06-.01-.05-.02-.06-.01-.05-.02-.06-.02-.05-.02-.05-.02-.06-.02-.05-.02-.05-.02-.05-.02-.05-.03-.05-.02-.05-.03-.05-.02-.05-.03-.05-.03-.05-.02-.04-.03-.05-.03-.04-.03-.04-.03-.05-.03-.04-.03-.04.26-.21.04.05.03.04.04.05.03.05.03.05.03.05.04.05.03.06.03.05.02.05.03.06.03.05.02.06.03.05.02.06.03.06.02.06.02.05.02.06.02.06.02.06.02.06.01.06.02.06.01.06.02.06.01.06.01.07.01.06.01.06.01.06.01.07zm-.42 2l-.29-.18.03-.05.03-.05.03-.05.02-.06.03-.05.02-.05.02-.05.03-.06.02-.05.02-.06.01-.05.02-.05.01-.06.02-.06.01-.06.01-.05.02-.06v-.06l.01-.05.01-.06.01-.06v-.06l.01-.05v-.35l-.01-.06v-.06l-.01-.06.34-.03v.06l.01.06v.07l.01.06v.26l-.01.06v.07l-.01.06v.07l-.01.06-.01.07-.01.06-.01.06-.02.07-.01.06-.02.06-.01.06-.02.07-.02.06-.02.06-.03.07-.02.06-.03.05-.03.07-.02.06-.03.05-.04.06-.03.06-.04.06h.01zm-.29-.18l-.33.52.33-.52zm-.28.82l-.22-.26.02-.01.02-.02.02-.01.01-.02.02-.02.02-.01.02-.02.02-.02.01-.01.02-.02.02-.02.01-.01.02-.02.02-.02.01-.02.02-.01.01-.02.02-.02.01-.02.02-.01.01-.02.02-.02.01-.02.01-.02.02-.02.01-.02.01-.02.02-.01.01-.03.01-.02.02-.01.01-.02.29.18-.02.02-.01.02-.02.02-.01.03-.02.02-.01.02-.02.02-.01.02-.02.03-.02.01-.01.02-.02.02-.02.03-.02.02-.01.02-.02.02-.02.02-.01.02-.02.02-.02.02-.02.02-.02.02-.02.02-.02.01-.02.02-.02.02-.02.02-.02.02-.02.02-.02.02-.02.01-.02.02zm0 0l-.27.22.27-.22zm-1.59-.27l.26-.2.04.04.03.04.03.03.04.04.03.03.04.03.03.03.03.03.04.02.03.02.04.02.03.02.03.01.04.02.03.01h.03l.03.01.04.01h.09l.04-.01.03-.01h.04l.03-.02.04-.01.03-.02.04-.02.04-.02.04-.03.04-.03.04-.03.22.26-.05.04-.06.04-.05.04-.05.03-.06.03-.05.02-.05.02-.06.02-.05.01-.06.01-.05.01H2.4l-.05-.01H2.3l-.06-.02-.05-.02-.05-.01-.05-.03-.04-.02-.05-.03-.05-.03-.05-.03-.04-.04-.04-.03-.05-.04-.04-.04-.04-.04-.04-.05-.04-.05-.04-.05zm0 0zm-.68-1.64l.33-.07.01.06.02.05.01.06.01.06.02.05.01.06.02.05.01.05.02.06.02.05.02.05.01.06.02.05.02.05.02.05.02.05.02.05.02.04.02.05.02.05.02.04.02.04.03.05.02.04.02.04.02.04.03.04.02.03.02.04.03.03.02.04.02.03-.26.2-.03-.03-.03-.04-.03-.04-.02-.04-.03-.05-.03-.04-.02-.04-.03-.05-.02-.05-.03-.04-.02-.05-.03-.05-.02-.05-.02-.05-.02-.05-.03-.06-.02-.05-.02-.05-.02-.06-.02-.05-.02-.06-.01-.05-.02-.06-.02-.06-.02-.06-.01-.06-.02-.06-.01-.05-.02-.06-.01-.06-.02-.06-.01-.06zm0 0l.02.08-.02-.08zm-.04-1.9l.33.08-.01.04-.01.05v.05l-.01.05-.01.05v.05l-.01.06v.05l-.01.05v.11l-.01.05V28.68l.01.06V28.91l.01.05v.06l.01.06v.06l.01.05.01.06v.06l.01.05.01.06.01.06.01.06.01.05.01.06-.33.07-.01-.06-.01-.06-.01-.06-.01-.07-.01-.06-.01-.06-.01-.06-.01-.06v-.06l-.01-.06-.01-.06v-.12l-.01-.06v-.48l.01-.06v-.12l.01-.05.01-.06v-.06l.01-.05.01-.06.01-.05.01-.06z" class="fil1"/></g><g><path d="M45.81 32.96c-.02.01-.04.02-.05.03-.27.19-.47.57-.58.96-.1.39-.11.77 0 .98 0 .01.01.02.01.02.26.4.71.63 1.21.7.51.06 1.07-.06 1.53-.37.34-.23.44-.54.38-.85-.03-.2-.12-.4-.25-.59-.14-.21-.32-.4-.52-.56-.53-.41-1.21-.61-1.73-.32z" class="fil4"/><path id="1" d="M45.85 33.13l-.19-.27-.02.01.04-.03h.01l-.05.03.03-.02.04-.02-.02.01-.04.03.03-.03.04-.02-.02.01-.02.01-.02.02.03-.02.04-.02-.04.02.01-.01.04-.02-.03.02.02-.02-.02.01.02-.01.16.3.01-.01-.02.01h.02-.01l-.04.02.04-.02h-.01l-.04.03.03-.02.03-.02-.03.02-.02.01-.02.01.04-.02.02-.02v.01l-.05.03-.02.01.04-.02.02-.02-.04.03.04-.03-.02.02h-.01zm.01 0h-.01.01zm-.52.87l-.32-.09.01-.04.01-.04.01-.04.01-.04.02-.03.01-.04.01-.04.02-.04.02-.04.01-.04.02-.03.01-.04.02-.04.02-.03.02-.04.02-.03.02-.03.02-.04.03-.03.02-.03.02-.03.02-.04.03-.02.02-.03.03-.03.02-.03.03-.03.02-.02.03-.03.03-.02.03-.02.03-.02.19.27-.02.02-.02.01-.02.02-.01.01-.02.02-.02.02-.02.03-.02.02-.02.02-.02.02-.02.03-.02.02-.02.03-.01.02-.02.03-.02.03-.01.03-.02.03-.02.03-.01.03-.01.03-.02.03-.01.03-.02.04-.01.03-.01.03-.01.03-.01.04-.02.04-.01.03-.01.03-.01.04zm-.32-.09l-.13.48.13-.48zm.31.94l-.3.16-.02-.03-.01-.03-.01-.03-.01-.02-.01-.03-.01-.04v-.02l-.01-.04v-.03l-.01-.03v-.03l-.01-.03v-.25l.01-.04v-.07l.01-.04v-.03l.01-.04.01-.04v-.04l.01-.04.01-.03.01-.04.01-.04.01-.04.32.09-.01.03v.03l-.01.04-.01.03v.04l-.01.03-.01.03v.03l-.01.04v.06l-.01.03V34.64l.01.03v.04l.01.02v.03l.01.01v.02l.01.02v.01l.01.02.01.01zm-.3.16zm.16-.23v.34l-.15-.1-.02-.07.17.17-.12-.05-.05-.12.05.11.12.05-.17-.17.05.12h-.01l-.04-.12.04.12-.03-.04-.02-.08.05.12-.05-.12.02.07-.02-.08.05.12-.03-.04.03.04-.03-.05v.01l.3-.16-.03-.04.03.05-.03-.05.05.12-.02-.07.02.08-.05-.12.05.12-.02-.08-.02-.04.04.12-.04-.12.04.12-.16-.16.12.05.05.12-.05-.12-.12-.05.17.17-.02-.08-.15-.09zm0 .34h-.11l-.04-.1.15.1zm0 0v-.34l.14.08-.14.26zm0-.34h.09l.05.08-.14-.08zm1.23.7l-.04.33h-.05l-.05-.01-.05-.01-.05-.01-.05-.01-.05-.01-.05-.02-.05-.01-.04-.02-.05-.01-.04-.02-.05-.02-.05-.02-.04-.02-.04-.02-.05-.03-.04-.02-.04-.03-.04-.03-.04-.02-.04-.03-.04-.03-.04-.04-.04-.03-.03-.03-.04-.04-.03-.03-.03-.04-.03-.04-.04-.04-.03-.04-.02-.04.28-.18.02.03.03.03.02.03.02.03.03.03.03.03.02.03.03.02.03.03.03.02.03.03.04.02.03.03.03.02.04.02.03.02.03.02.04.02.04.01.03.02.04.02.04.01.04.01.04.02.03.01.05.01.04.01.04.01.04.01.04.01h.04l.05.01zm0 0l-.29-.04.29.04zm1.51-.37v.34l.09-.03-.04.03-.05.03-.05.03-.04.02-.05.03-.05.03-.05.02-.05.02-.06.02-.04.02-.05.02-.06.02-.05.02-.05.01-.05.01-.05.02-.06.01-.05.01-.05.01-.06.01-.05.01h-.11l-.05.01h-.27l-.05-.01h-.05l-.05-.01.04-.33h.04l.05.01h.36l.05-.01.04-.01h.05l.05-.01.04-.01.05-.01.04-.01.05-.01.04-.02.05-.01.04-.02.04-.01.05-.02.04-.02.04-.02.05-.02.04-.02.04-.02.04-.02.04-.03.04-.02.04-.03.1-.03zm-.1.03l.05-.03h.05l-.1.03zm.1.31v-.34l.1.31-.1.03zm.1-.03l-.05.03h-.05l.1-.03zm.12-.96l.33-.06v.03l.01.04v.06l.01.04v.03l-.01.04v.07l-.01.03v.04l-.01.03-.01.04-.01.03-.01.03-.02.04-.01.03-.02.03-.01.03-.02.04-.02.03-.03.03-.02.03-.02.03-.03.03-.02.03-.03.03-.03.02-.03.03-.04.03-.03.02-.03.03-.2-.28.03-.02.02-.02.03-.02.02-.02.02-.02.02-.02.02-.02.02-.02.01-.02.02-.02.02-.02.01-.02.01-.02.01-.02.01-.02.01-.02.01-.02.01-.03.01-.02v-.04l.01-.02v-.05l.01-.02v-.07l-.01-.02v-.07zm.33-.06zm-.56-.47l.28-.19.01.02.01.02.01.02.02.02.01.02.01.02.01.02.02.02.01.02.01.02.01.02.01.03.01.01.01.02.01.02.01.02v.02l.01.03.01.02.01.02.01.01v.03l.01.02.01.02v.02l.01.02.01.02v.03l.01.02v.01l.01.03v.02l-.33.06-.01-.02v-.03l-.01-.02v-.01l-.01-.02v-.03l-.01-.02-.01-.01v-.02l-.01-.02-.01-.01v-.02l-.01-.02v-.01l-.01-.02-.01-.01-.01-.02-.01-.02v-.02l-.01-.01-.01-.02-.01-.02-.01-.01-.01-.02-.01-.02-.01-.01-.01-.02-.01-.02-.01-.01-.01-.02zm0 0l.22.33-.22-.33zm-.49-.52l.21-.26.02.02.02.01.02.02.02.01.02.02.02.02.02.01.02.02.02.02.02.02.01.01.02.02.02.02.02.02.02.02.02.02.01.01.02.02.02.02.01.02.02.02.02.02.01.02.02.02.01.02.02.02.02.02.01.02.02.02.01.02.01.02.02.02-.28.19-.02-.02-.01-.02-.01-.02-.01-.01-.02-.02-.01-.01-.01-.02-.02-.02-.01-.02-.02-.02-.01-.01-.01-.02-.02-.02-.01-.01-.02-.02-.01-.01-.02-.02-.01-.02-.02-.01-.01-.02-.02-.01-.02-.02-.01-.02-.02-.01-.02-.01-.02-.02-.01-.02-.02-.01-.02-.01-.01-.02-.02-.01-.02-.02zm-1.54-.3l-.16-.3.05-.03.06-.02.06-.03.06-.02.06-.01.06-.02.07-.01.06-.01h.06l.06-.01h.07l.06.01h.06l.06.01.07.01.06.01.06.02.06.01.06.02.06.02.07.03.05.02.06.03.06.03.06.03.06.03.06.03.05.03.06.04.05.04.06.04.05.04-.21.26-.05-.03-.04-.04-.05-.03-.05-.03-.05-.03-.05-.03-.05-.03-.05-.02-.05-.03-.05-.02-.05-.02-.05-.02-.05-.02-.05-.01-.05-.02-.05-.01-.06-.01-.05-.01h-.04l-.05-.01H46.29l-.04.01h-.05l-.05.01-.04.01-.05.01-.04.02-.04.02-.05.02-.04.02zm0 0l-.07.04.07-.04z" class="fil1"/></g></g></svg>