<?xml version="1.0" encoding="UTF-8"?>
<!DOCTYPE svg PUBLIC "-//W3C//DTD SVG 1.1//EN" "http://www.w3.org/Graphics/SVG/1.1/DTD/svg11.dtd">
<!-- Creator: CorelDRAW 2018 (64-Bit) -->
<svg xmlns="http://www.w3.org/2000/svg" xml:space="preserve" width="117px" height="57px" version="1.1" style="shape-rendering:geometricPrecision; text-rendering:geometricPrecision; image-rendering:optimizeQuality; fill-rule:evenodd; clip-rule:evenodd"
viewBox="0 0 117.12 56.69"
 xmlns:xlink="http://www.w3.org/1999/xlink">
 <defs>
  <style type="text/css">
   <![CDATA[
    .fil4 {fill:#F5B2B6}
    .fil5 {fill:#F08BB2}
    .fil0 {fill:#C4D985}
    .fil2 {fill:#A1B567}
    .fil3 {fill:#99CFBA}
    .fil1 {fill:#2B2A29;fill-rule:nonzero}
   ]]>
  </style>
 </defs>
 <g id="Слой_x0020_1">
  <metadata id="CorelCorpID_0Corel-Layer"/>
  <g>
   <path class="fil0" d="M67.12 42.03l48.68 0c0.53,0 0.97,0.43 0.97,0.96l0 12.42c0,0.53 -0.44,0.96 -0.97,0.96l-48.68 0c-0.54,0 -0.97,-0.43 -0.97,-0.96l0 -12.42c0,-0.53 0.43,-0.96 0.97,-0.96z"/>
   <path id="1" class="fil1" d="M115.8 42.2l-48.68 0 0 -0.34 48.68 0 0 0 0 0.34zm1.13 0.79l-0.33 0 0 0 0 -0.04 -0.01 -0.04 0 -0.04 -0.01 -0.03 -0.01 -0.05 -0.01 -0.03 -0.01 -0.04 -0.02 -0.04 -0.01 -0.03 -0.02 -0.04 -0.02 -0.03 -0.02 -0.03 -0.02 -0.03 -0.03 -0.03 -0.02 -0.03 -0.03 -0.03 -0.03 -0.03 -0.02 -0.02 -0.03 -0.02 -0.04 -0.03 -0.03 -0.02 -0.03 -0.02 -0.04 -0.01 -0.03 -0.02 -0.04 -0.02 -0.03 -0.01 -0.04 -0.01 -0.04 -0.01 -0.04 -0.01 -0.04 0 -0.04 0 -0.04 0 0 -0.34 0.06 0 0.05 0 0.06 0.01 0.06 0.01 0.05 0.01 0.06 0.02 0.05 0.02 0.05 0.02 0.05 0.02 0.05 0.03 0.05 0.02 0.04 0.03 0.05 0.03 0.04 0.04 0.04 0.03 0.04 0.04 0.04 0.04 0.03 0.04 0.04 0.05 0.03 0.04 0.03 0.04 0.03 0.05 0.02 0.05 0.02 0.05 0.02 0.05 0.02 0.06 0.02 0.05 0.01 0.05 0.01 0.06 0.01 0.06 0 0.06 0 0.05 0 0zm-0.33 12.42l0 -12.42 0.33 0 0 12.42 0 0 -0.33 0zm-0.8 1.13l0 -0.33 0 0 0.04 -0.01 0.04 0 0.04 0 0.04 -0.01 0.04 -0.01 0.04 -0.01 0.03 -0.01 0.04 -0.02 0.03 -0.01 0.04 -0.02 0.03 -0.02 0.03 -0.02 0.04 -0.02 0.03 -0.03 0.02 -0.02 0.03 -0.03 0.03 -0.03 0.02 -0.03 0.03 -0.03 0.02 -0.03 0.02 -0.03 0.02 -0.03 0.02 -0.04 0.01 -0.03 0.02 -0.04 0.01 -0.04 0.01 -0.03 0.01 -0.04 0.01 -0.04 0 -0.04 0.01 -0.04 0 -0.04 0.33 0 0 0.06 0 0.05 -0.01 0.06 -0.01 0.06 -0.01 0.05 -0.02 0.05 -0.02 0.06 -0.02 0.05 -0.02 0.05 -0.02 0.05 -0.03 0.05 -0.03 0.04 -0.03 0.05 -0.04 0.04 -0.03 0.04 -0.04 0.04 -0.04 0.04 -0.04 0.03 -0.04 0.04 -0.05 0.03 -0.04 0.03 -0.05 0.02 -0.05 0.03 -0.05 0.02 -0.05 0.02 -0.05 0.02 -0.06 0.02 -0.05 0.01 -0.06 0.01 -0.05 0.01 -0.06 0 -0.06 0 0 0zm-48.68 -0.33l48.68 0 0 0.33 -48.68 0 0 0 0 -0.33zm-1.14 -0.8l0.34 0 0 0 0 0.04 0 0.04 0.01 0.04 0 0.04 0.01 0.04 0.01 0.03 0.02 0.04 0.01 0.04 0.02 0.03 0.01 0.04 0.02 0.03 0.02 0.03 0.03 0.03 0.02 0.03 0.03 0.03 0.02 0.03 0.03 0.03 0.03 0.02 0.03 0.03 0.03 0.02 0.03 0.02 0.04 0.02 0.03 0.02 0.04 0.01 0.03 0.02 0.04 0.01 0.04 0.01 0.03 0.01 0.05 0.01 0.03 0 0.05 0 0.04 0.01 0 0.33 -0.06 0 -0.06 0 -0.06 -0.01 -0.05 -0.01 -0.06 -0.01 -0.05 -0.02 -0.05 -0.02 -0.06 -0.02 -0.05 -0.02 -0.04 -0.03 -0.05 -0.02 -0.05 -0.03 -0.04 -0.03 -0.05 -0.04 -0.04 -0.03 -0.04 -0.04 -0.03 -0.04 -0.04 -0.04 -0.03 -0.04 -0.03 -0.05 -0.03 -0.04 -0.03 -0.05 -0.03 -0.05 -0.02 -0.05 -0.02 -0.05 -0.02 -0.06 -0.01 -0.05 -0.02 -0.05 -0.01 -0.06 0 -0.06 -0.01 -0.05 0 -0.06 0 0zm0.34 -12.42l0 12.42 -0.34 0 0 -12.42 0 0 0.34 0zm0.8 -1.13l0 0.34 0 0 -0.04 0 -0.05 0 -0.03 0 -0.04 0.01 -0.04 0.01 -0.04 0.01 -0.04 0.01 -0.03 0.02 -0.04 0.02 -0.03 0.01 -0.03 0.02 -0.04 0.02 -0.03 0.03 -0.03 0.02 -0.03 0.02 -0.03 0.03 -0.02 0.03 -0.03 0.03 -0.02 0.03 -0.03 0.03 -0.02 0.03 -0.02 0.03 -0.01 0.04 -0.02 0.03 -0.01 0.04 -0.02 0.04 -0.01 0.03 -0.01 0.05 0 0.03 -0.01 0.04 0 0.04 0 0.04 -0.34 0 0 -0.05 0.01 -0.06 0 -0.06 0.01 -0.06 0.02 -0.05 0.01 -0.05 0.02 -0.06 0.02 -0.05 0.02 -0.05 0.03 -0.05 0.03 -0.05 0.03 -0.04 0.03 -0.04 0.03 -0.05 0.04 -0.04 0.03 -0.04 0.04 -0.04 0.04 -0.03 0.05 -0.04 0.04 -0.03 0.05 -0.03 0.05 -0.02 0.05 -0.03 0.04 -0.02 0.06 -0.02 0.05 -0.02 0.05 -0.02 0.06 -0.01 0.05 -0.01 0.06 -0.01 0.06 0 0.06 0 0 0z"/>
  </g>
  <g>
   <path class="fil0" d="M68.43 39.07l5.96 0c0.18,0 0.33,0.15 0.33,0.34l0 3.07c0,0.19 -0.15,0.34 -0.33,0.34l-5.96 0c-0.19,0 -0.34,-0.15 -0.34,-0.34l0 -3.07c0,-0.19 0.15,-0.34 0.34,-0.34zm40.09 0l5.96 0c0.18,0 0.33,0.15 0.33,0.34l0 3.07c0,0.19 -0.15,0.34 -0.33,0.34l-5.96 0c-0.19,0 -0.34,-0.15 -0.34,-0.34l0 -3.07c0,-0.19 0.15,-0.34 0.34,-0.34zm-13.37 0l5.96 0c0.19,0 0.34,0.15 0.34,0.34l0 3.07c0,0.19 -0.15,0.34 -0.34,0.34l-5.96 0c-0.18,0 -0.33,-0.15 -0.33,-0.34l0 -3.07c0,-0.19 0.15,-0.34 0.33,-0.34zm-13.41 0l5.96 0c0.19,0 0.34,0.15 0.34,0.34l0 3.07c0,0.19 -0.15,0.34 -0.34,0.34l-5.96 0c-0.18,0 -0.34,-0.15 -0.34,-0.34l0 -3.07c0,-0.19 0.16,-0.34 0.34,-0.34z"/>
   <path id="1" class="fil1" d="M74.39 39.24l-5.96 0 0 -0.34 5.96 0 0 0 0 0.34zm0.5 0.17l-0.34 0 0 0 0 -0.02 0 0 0 -0.01 0 -0.01 0 0 0 -0.02 -0.01 0 0 -0.01 0 0 -0.01 -0.01 0 -0.01 0 -0.01 -0.01 -0.01 0 0 -0.01 0 0 -0.01 -0.01 -0.01 -0.01 0 0 -0.01 -0.01 0 0 -0.01 -0.01 0 -0.02 -0.01 0 0 0 0 -0.01 0 -0.01 -0.01 -0.01 0 -0.01 0 -0.01 0 0 0 -0.01 0 0 -0.34 0.02 0 0.03 0 0.03 0.01 0.02 0 0.02 0.01 0.02 0 0.03 0.01 0.02 0.01 0.03 0.01 0.02 0.01 0.02 0.01 0.02 0.02 0.02 0.01 0.02 0.02 0.02 0.01 0.01 0.02 0.02 0.01 0.02 0.03 0.01 0.02 0.01 0.01 0.02 0.03 0.01 0.02 0.01 0.01 0.01 0.03 0.01 0.03 0.01 0.02 0.01 0.02 0 0.02 0.01 0.03 0 0.02 0 0.03 0 0.03 0 0zm-0.34 3.07l0 -3.07 0.34 0 0 3.07 0 0 -0.34 0zm-0.16 0.51l0 -0.34 0 0 0.01 0 0 0 0.01 0 0.01 0 0.01 -0.01 0.01 0 0.01 0 0 0 0.01 -0.01 0.01 0 0 0 0.01 -0.01 0.01 -0.01 0 0 0.01 0 0.01 -0.01 0 -0.01 0.01 0 0 -0.01 0.01 -0.01 0 0 0 0 0.01 -0.02 0 0 0 -0.01 0.01 -0.01 0 0 0 -0.02 0 -0.01 0 0 0 -0.01 0 -0.01 0.34 0 0 0.03 0 0.02 0 0.03 -0.01 0.03 0 0.02 -0.01 0.02 -0.01 0.02 -0.01 0.03 -0.01 0.03 -0.01 0.01 -0.01 0.02 -0.02 0.03 -0.01 0.01 -0.01 0.02 -0.02 0.02 -0.02 0.02 -0.01 0.01 -0.02 0.02 -0.02 0.02 -0.02 0.01 -0.02 0.01 -0.02 0.02 -0.02 0.01 -0.03 0.01 -0.02 0.01 -0.03 0 -0.02 0.01 -0.02 0.01 -0.02 0 -0.03 0.01 -0.03 0 -0.02 0 0 0zm-5.96 -0.34l5.96 0 0 0.34 -5.96 0 0 0 0 -0.34zm-0.51 -0.17l0.34 0 0 0 0 0.01 0 0.01 0 0 0 0.01 0 0.02 0.01 0 0 0.01 0 0.01 0.01 0 0 0.02 0 0 0 0 0.01 0.01 0.01 0.01 0 0 0.01 0.01 0.01 0.01 0 0 0 0 0.02 0.01 0 0.01 0 0 0.01 0 0.01 0.01 0.01 0 0 0 0.01 0 0.01 0.01 0.01 0 0.01 0 0 0 0.02 0 0 0.34 -0.03 0 -0.03 -0.01 -0.02 0 -0.03 0 -0.02 -0.01 -0.02 -0.01 -0.02 0 -0.03 -0.01 -0.02 -0.01 -0.02 -0.01 -0.03 -0.02 -0.02 -0.01 -0.01 -0.01 -0.02 -0.02 -0.03 -0.02 -0.01 -0.01 -0.02 -0.02 -0.01 -0.02 -0.02 -0.02 -0.01 -0.01 -0.01 -0.02 -0.02 -0.03 -0.01 -0.02 -0.01 -0.02 -0.01 -0.03 -0.01 -0.02 0 -0.02 -0.01 -0.02 0 -0.03 -0.01 -0.03 0 -0.02 0 -0.03 0 0zm0.34 -3.07l0 3.07 -0.34 0 0 -3.07 0 0 0.34 0zm0.17 -0.51l0 0.34 0 0 -0.02 0 0 0 -0.01 0 -0.01 0 -0.01 0 -0.01 0.01 0 0 -0.01 0 0 0 -0.02 0.01 0 0 0 0 -0.02 0.01 0 0.01 0 0 -0.01 0.01 -0.01 0.01 0 0 -0.01 0 0 0.01 -0.01 0.01 0 0.01 0 0 -0.01 0.01 0 0.01 0 0 -0.01 0.02 0 0 0 0.01 0 0.01 0 0 0 0.02 -0.34 0 0 -0.03 0 -0.03 0.01 -0.02 0 -0.03 0.01 -0.02 0 -0.02 0.01 -0.02 0.01 -0.03 0.01 -0.02 0.01 -0.02 0.02 -0.03 0.01 -0.02 0.01 -0.01 0.02 -0.02 0.01 -0.03 0.02 -0.01 0.01 -0.02 0.03 -0.01 0.02 -0.02 0.01 -0.01 0.02 -0.02 0.03 -0.01 0.01 -0.01 0.03 -0.01 0.03 -0.01 0.02 -0.01 0.02 0 0.02 -0.01 0.03 0 0.02 -0.01 0.03 0 0.03 0 0 0zm46.05 0.34l-5.96 0 0 -0.34 5.96 0 0 0 0 0.34zm0.5 0.17l-0.34 0 0 0 0 -0.02 0 0 0 -0.01 0 -0.01 0 0 0 -0.02 -0.01 0 0 -0.01 0 -0.01 -0.01 0 0 -0.01 0 -0.01 -0.01 -0.01 -0.01 0 0 0 -0.01 -0.01 -0.01 -0.01 0 0 0 -0.01 -0.02 -0.01 0 0 0 0 -0.02 -0.01 0 0 0 0 -0.01 0 -0.01 -0.01 -0.01 0 -0.01 0 -0.01 0 0 0 -0.01 0 0 -0.34 0.02 0 0.03 0 0.03 0.01 0.02 0 0.02 0.01 0.02 0 0.03 0.01 0.03 0.01 0.02 0.01 0.01 0.01 0.03 0.01 0.02 0.02 0.02 0.01 0.02 0.02 0.02 0.01 0.01 0.02 0.02 0.01 0.02 0.03 0.01 0.02 0.01 0.01 0.02 0.02 0.01 0.03 0.01 0.02 0.01 0.02 0.01 0.03 0.01 0.02 0 0.02 0.01 0.02 0 0.03 0.01 0.02 0 0.03 0 0.03 0 0zm-0.34 3.07l0 -3.07 0.34 0 0 3.07 0 0 -0.34 0zm-0.16 0.51l0 -0.34 0 0 0.01 0 0 0 0.01 0 0.01 0 0.01 -0.01 0.01 0 0.01 0 0 0 0.01 -0.01 0.01 0 0 0 0 -0.01 0.02 -0.01 0 0 0 0 0.01 -0.01 0.01 -0.01 0 0 0.01 -0.01 0.01 -0.01 0 0 0 0 0.01 -0.02 0 0 0 -0.01 0.01 -0.01 0 0 0 -0.02 0 -0.01 0 0 0 -0.01 0 -0.01 0.34 0 0 0.03 0 0.02 -0.01 0.03 0 0.03 -0.01 0.02 0 0.02 -0.01 0.02 -0.01 0.03 -0.01 0.02 -0.01 0.02 -0.02 0.03 -0.01 0.02 -0.01 0.01 -0.01 0.02 -0.02 0.02 -0.02 0.02 -0.01 0.01 -0.02 0.02 -0.02 0.02 -0.02 0.01 -0.02 0.01 -0.03 0.02 -0.02 0.01 -0.01 0.01 -0.03 0.01 -0.03 0 -0.02 0.01 -0.02 0.01 -0.02 0 -0.03 0 -0.03 0.01 -0.02 0 0 0zm-5.96 -0.34l5.96 0 0 0.34 -5.96 0 0 0 0 -0.34zm-0.51 -0.17l0.34 0 0 0 0 0.01 0 0.01 0 0 0 0.01 0 0.02 0.01 0 0 0.01 0 0.01 0 0 0.01 0.02 0 0 0 0 0.01 0.01 0.01 0.01 0 0 0.01 0.01 0.01 0.01 0 0 0 0 0.01 0.01 0.01 0.01 0.01 0 0 0 0.01 0.01 0.01 0 0 0 0.01 0 0.01 0.01 0.01 0 0.01 0 0 0 0.02 0 0 0.34 -0.03 0 -0.03 0 -0.02 -0.01 -0.03 0 -0.02 -0.01 -0.02 -0.01 -0.03 0 -0.02 -0.01 -0.02 -0.01 -0.02 -0.01 -0.03 -0.02 -0.02 -0.01 -0.01 -0.01 -0.02 -0.02 -0.03 -0.02 -0.01 -0.01 -0.02 -0.02 -0.02 -0.02 -0.01 -0.02 -0.01 -0.01 -0.02 -0.03 -0.01 -0.02 -0.01 -0.01 -0.01 -0.03 -0.01 -0.03 -0.01 -0.02 0 -0.02 -0.01 -0.02 0 -0.03 -0.01 -0.03 0 -0.02 0 -0.03 0 0zm0.34 -3.07l0 3.07 -0.34 0 0 -3.07 0 0 0.34 0zm0.17 -0.51l0 0.34 0 0 -0.02 0 0 0 -0.01 0 -0.01 0 -0.01 0 -0.01 0.01 0 0 -0.01 0 0 0 -0.01 0.01 -0.01 0 -0.01 0.01 -0.01 0 0 0.01 0 0 -0.01 0.01 -0.01 0.01 0 0 -0.01 0 0 0.01 -0.01 0.01 0 0.01 -0.01 0.01 0 0 0 0.01 0 0 -0.01 0.02 0 0 0 0.01 0 0.01 0 0 0 0.02 -0.34 0 0 -0.03 0 -0.03 0.01 -0.02 0 -0.03 0.01 -0.02 0 -0.02 0.01 -0.02 0.01 -0.03 0.01 -0.03 0.01 -0.01 0.01 -0.02 0.02 -0.03 0.01 -0.01 0.01 -0.02 0.02 -0.03 0.02 -0.01 0.01 -0.02 0.03 -0.01 0.02 -0.02 0.01 -0.01 0.03 -0.02 0.02 -0.01 0.01 -0.01 0.03 -0.01 0.02 -0.01 0.03 -0.01 0.02 0 0.02 -0.01 0.03 0 0.02 -0.01 0.03 0 0.03 0 0 0zm-7.41 0.34l-5.96 0 0 -0.34 5.96 0 0 0 0 0.34zm0.51 0.17l-0.34 0 0 0 0 -0.02 0 0 0 -0.01 0 -0.01 0 0 -0.01 -0.02 0 0 0 -0.01 -0.01 -0.01 0 0 -0.01 -0.01 0 -0.01 0 0 -0.01 -0.01 0 -0.01 -0.01 0 -0.01 -0.01 0 0 0 0 -0.02 -0.01 0 -0.01 -0.01 0 -0.01 -0.01 0 0 -0.01 0 -0.01 0 -0.01 -0.01 -0.01 0 -0.01 0 0 0 -0.01 0 -0.01 0 0 -0.34 0.03 0 0.02 0 0.03 0.01 0.02 0 0.03 0.01 0.02 0 0.02 0.01 0.03 0.01 0.03 0.01 0.01 0.01 0.02 0.01 0.03 0.02 0.01 0.01 0.02 0.02 0.03 0.01 0.01 0.02 0.02 0.02 0.01 0.01 0.02 0.02 0.01 0.03 0.02 0.02 0 0.01 0.02 0.03 0.01 0.02 0.01 0.02 0.01 0.03 0 0.02 0.01 0.02 0 0.03 0.01 0.02 0 0.03 0 0.03 0 0zm-0.34 3.07l0 -3.07 0.34 0 0 3.07 0 0 -0.34 0zm-0.17 0.51l0 -0.34 0 0 0.01 0 0.01 0 0 0 0.01 0 0.01 -0.01 0.01 0 0.01 0 0.01 0 0.01 -0.01 0 0 0 0 0.01 -0.01 0.02 -0.01 0 0 0 0 0.01 -0.01 0.01 -0.01 0 0 0.01 -0.01 0 -0.01 0.01 0 0 -0.01 0 -0.01 0.01 0 0 -0.01 0 -0.01 0.01 0 0 -0.02 0 -0.01 0 0 0 -0.01 0 -0.01 0.34 0 0 0.03 0 0.02 -0.01 0.03 0 0.03 -0.01 0.02 0 0.02 -0.01 0.03 -0.01 0.02 -0.01 0.02 -0.01 0.03 -0.02 0.01 -0.01 0.03 -0.01 0.02 -0.02 0.02 -0.01 0.01 -0.02 0.02 -0.01 0.01 -0.03 0.02 -0.02 0.02 -0.01 0.01 -0.02 0.01 -0.03 0.02 -0.02 0.01 -0.02 0.01 -0.03 0.01 -0.02 0 -0.02 0.01 -0.03 0.01 -0.02 0 -0.03 0 -0.02 0.01 -0.03 0 0 0zm-5.96 -0.34l5.96 0 0 0.34 -5.96 0 0 0 0 -0.34zm-0.5 -0.17l0.33 0 0 0 0 0.01 0 0.01 0.01 0 0 0.01 0 0.02 0 0 0.01 0.01 0 0.01 0 0 0.01 0.02 0 0 0 0 0.01 0.01 0 0.01 0.01 0 0 0.01 0.01 0.01 0 0 0.01 0 0.01 0.01 0.01 0.01 0 0 0.01 0 0.01 0.01 0 0 0.01 0 0.01 0 0.01 0.01 0.01 0 0.01 0 0 0 0.01 0 0 0.34 -0.02 0 -0.03 -0.01 -0.03 0 -0.02 0 -0.02 -0.01 -0.03 -0.01 -0.02 0 -0.03 -0.01 -0.02 -0.01 -0.02 -0.01 -0.02 -0.02 -0.02 -0.01 -0.02 -0.01 -0.02 -0.02 -0.02 -0.02 -0.01 -0.01 -0.02 -0.02 -0.02 -0.02 -0.01 -0.02 -0.01 -0.01 -0.02 -0.02 -0.01 -0.03 -0.01 -0.02 -0.01 -0.02 -0.01 -0.03 -0.01 -0.02 -0.01 -0.02 0 -0.02 -0.01 -0.03 0 -0.03 0 -0.02 0 -0.03 0 0zm0.33 -3.07l0 3.07 -0.33 0 0 -3.07 0 0 0.33 0zm0.17 -0.51l0 0.34 0 0 -0.01 0 0 0 -0.01 0 -0.01 0 -0.01 0 -0.01 0.01 -0.01 0 0 0 -0.01 0 -0.01 0.01 -0.01 0 0 0 -0.01 0.01 -0.01 0.01 0 0 -0.01 0.01 0 0.01 -0.01 0 0 0 -0.01 0.01 0 0.01 -0.01 0.01 0 0 0 0.01 0 0.01 -0.01 0 0 0.02 0 0 0 0.01 0 0.01 -0.01 0 0 0.02 -0.33 0 0 -0.03 0 -0.03 0 -0.02 0.01 -0.03 0 -0.02 0.01 -0.02 0.01 -0.02 0.01 -0.03 0.01 -0.02 0.01 -0.02 0.01 -0.03 0.02 -0.02 0.01 -0.01 0.01 -0.02 0.02 -0.03 0.02 -0.01 0.01 -0.02 0.02 -0.01 0.02 -0.02 0.02 -0.01 0.02 -0.02 0.02 -0.01 0.02 -0.01 0.02 -0.01 0.03 -0.01 0.02 -0.01 0.03 0 0.02 -0.01 0.02 0 0.03 -0.01 0.03 0 0.02 0 0 0zm-7.45 0.34l-5.96 0 0 -0.34 5.96 0 0 0 0 0.34zm0.51 0.17l-0.34 0 0 0 0 -0.02 0 0 0 -0.01 0 -0.01 -0.01 0 0 -0.02 0 0 0 -0.01 -0.01 -0.01 0 0 -0.01 -0.01 0 -0.01 0 0 -0.01 -0.01 0 -0.01 -0.01 0 -0.01 -0.01 0 0 0 0 -0.02 -0.01 0 -0.01 -0.01 0 -0.01 -0.01 0 0 -0.01 0 -0.01 0 -0.01 -0.01 -0.01 0 -0.01 0 0 0 -0.01 0 -0.01 0 0 -0.34 0.03 0 0.02 0 0.03 0.01 0.02 0 0.03 0.01 0.02 0 0.02 0.01 0.03 0.01 0.03 0.01 0.01 0.01 0.02 0.01 0.03 0.02 0.01 0.01 0.02 0.02 0.02 0.01 0.02 0.02 0.02 0.02 0.01 0.01 0.01 0.02 0.02 0.03 0.02 0.02 0 0.01 0.02 0.03 0.01 0.02 0.01 0.02 0 0.03 0.01 0.02 0.01 0.02 0 0.03 0.01 0.02 0 0.03 0 0.03 0 0zm-0.34 3.07l0 -3.07 0.34 0 0 3.07 0 0 -0.34 0zm-0.17 0.51l0 -0.34 0 0 0.01 0 0.01 0 0 0 0.01 0 0.01 -0.01 0.01 0 0.01 0 0.01 0 0 -0.01 0.01 0 0 0 0.01 -0.01 0.02 -0.01 0 0 0 0 0.01 -0.01 0.01 -0.01 0 0 0.01 -0.01 0 -0.01 0.01 0 0 -0.01 0 -0.01 0.01 0 0 -0.01 0 -0.01 0 0 0.01 -0.02 0 -0.01 0 0 0 -0.01 0 -0.01 0.34 0 0 0.03 -0.01 0.02 0 0.03 0 0.03 -0.01 0.02 -0.01 0.02 0 0.03 -0.01 0.02 -0.01 0.02 -0.02 0.03 -0.01 0.01 -0.01 0.03 -0.02 0.02 -0.01 0.02 -0.01 0.01 -0.02 0.02 -0.02 0.01 -0.02 0.02 -0.02 0.02 -0.01 0.01 -0.02 0.01 -0.03 0.02 -0.02 0.01 -0.02 0.01 -0.03 0.01 -0.02 0 -0.02 0.01 -0.03 0.01 -0.02 0 -0.03 0 -0.02 0.01 -0.03 0 0 0zm-5.96 -0.34l5.96 0 0 0.34 -5.96 0 0 0 0 -0.34zm-0.5 -0.17l0.33 0 0 0 0 0.01 0 0.01 0 0 0.01 0.01 0 0.02 0 0 0 0.01 0.01 0.01 0 0 0 0.01 0.01 0.01 0 0 0 0.01 0.01 0.01 0.01 0 0.01 0.01 0 0.01 0 0 0.01 0 0.01 0.01 0.01 0.01 0 0 0.01 0 0.01 0.01 0 0 0.01 0 0.01 0 0.01 0.01 0.01 0 0 0 0.01 0 0.01 0 0 0.34 -0.02 0 -0.03 -0.01 -0.03 0 -0.02 0 -0.02 -0.01 -0.03 -0.01 -0.02 0 -0.03 -0.01 -0.02 -0.01 -0.02 -0.01 -0.02 -0.02 -0.02 -0.01 -0.02 -0.01 -0.02 -0.02 -0.02 -0.02 -0.02 -0.01 -0.01 -0.02 -0.02 -0.01 -0.01 -0.02 -0.02 -0.02 -0.01 -0.03 -0.01 -0.01 -0.01 -0.03 -0.01 -0.02 -0.01 -0.02 -0.01 -0.03 -0.01 -0.02 0 -0.02 -0.01 -0.03 0 -0.03 0 -0.02 0 -0.03 0 0zm0.33 -3.07l0 3.07 -0.33 0 0 -3.07 0 0 0.33 0zm0.17 -0.51l0 0.34 0 0 -0.01 0 -0.01 0 0 0 -0.01 0 -0.01 0 -0.01 0.01 -0.01 0 0 0 -0.01 0 -0.01 0.01 -0.01 0 0 0.01 -0.01 0.01 -0.01 0 0 0 0 0.01 -0.01 0 -0.01 0.01 -0.01 0.01 0 0 0 0.01 -0.01 0.01 0 0 0 0.01 -0.01 0.01 0 0 0 0.02 0 0 -0.01 0.01 0 0.01 0 0 0 0.02 -0.33 0 0 -0.03 0 -0.03 0 -0.02 0.01 -0.03 0 -0.02 0.01 -0.02 0.01 -0.03 0.01 -0.02 0.01 -0.02 0.01 -0.03 0.01 -0.01 0.01 -0.02 0.02 -0.03 0.01 -0.02 0.02 -0.01 0.01 -0.02 0.02 -0.02 0.02 -0.01 0.02 -0.02 0.02 -0.01 0.02 -0.02 0.02 -0.01 0.02 -0.01 0.02 -0.01 0.03 -0.01 0.02 -0.01 0.03 0 0.02 -0.01 0.02 0 0.03 -0.01 0.03 0 0.02 0 0 0z"/>
  </g>
  <g>
   <path class="fil2" d="M94.16 17.66l21.82 0c0.53,0 0.97,0.43 0.97,0.96l0 12.42c0,0.53 -0.44,0.96 -0.97,0.96l-21.82 0c-0.53,0 -0.96,-0.43 -0.96,-0.96l0 -12.42c0,-0.53 0.43,-0.96 0.96,-0.96z"/>
   <path id="1" class="fil1" d="M115.98 17.82l-21.82 0 0 -0.33 21.82 0 0 0 0 0.33zm1.14 0.8l-0.34 0 0 0 0 -0.04 0 -0.04 -0.01 -0.04 -0.01 -0.04 -0.01 -0.04 -0.01 -0.03 -0.01 -0.04 -0.02 -0.04 -0.01 -0.03 -0.02 -0.04 -0.02 -0.03 -0.02 -0.03 -0.02 -0.03 -0.02 -0.03 -0.03 -0.03 -0.03 -0.03 -0.02 -0.03 -0.03 -0.02 -0.03 -0.02 -0.04 -0.03 -0.03 -0.02 -0.03 -0.02 -0.03 -0.02 -0.04 -0.01 -0.04 -0.02 -0.03 -0.01 -0.04 -0.01 -0.04 -0.01 -0.04 -0.01 -0.04 0 -0.04 0 -0.04 -0.01 0 -0.33 0.06 0 0.06 0 0.05 0.01 0.06 0.01 0.05 0.01 0.06 0.02 0.05 0.02 0.05 0.02 0.05 0.02 0.05 0.02 0.05 0.03 0.05 0.03 0.04 0.03 0.04 0.04 0.04 0.03 0.04 0.04 0.04 0.04 0.04 0.04 0.03 0.05 0.03 0.04 0.03 0.04 0.03 0.05 0.02 0.05 0.03 0.05 0.02 0.05 0.01 0.06 0.02 0.05 0.01 0.06 0.01 0.05 0.01 0.06 0 0.06 0.01 0.05 0 0zm-0.34 12.42l0 -12.42 0.34 0 0 12.42 0 0 -0.34 0zm-0.8 1.13l0 -0.34 0 0 0.04 0 0.04 0 0.04 0 0.04 -0.01 0.04 -0.01 0.04 -0.01 0.03 -0.01 0.04 -0.02 0.04 -0.01 0.03 -0.02 0.03 -0.02 0.03 -0.02 0.04 -0.03 0.03 -0.02 0.03 -0.03 0.02 -0.02 0.03 -0.03 0.03 -0.03 0.02 -0.03 0.02 -0.03 0.02 -0.03 0.02 -0.03 0.02 -0.04 0.01 -0.03 0.02 -0.04 0.01 -0.04 0.01 -0.03 0.01 -0.04 0.01 -0.04 0.01 -0.04 0 -0.04 0 -0.04 0.34 0 -0.01 0.05 0 0.06 -0.01 0.06 -0.01 0.05 -0.01 0.06 -0.02 0.05 -0.01 0.06 -0.02 0.05 -0.03 0.05 -0.02 0.05 -0.03 0.04 -0.03 0.05 -0.03 0.04 -0.03 0.05 -0.04 0.04 -0.04 0.04 -0.04 0.04 -0.04 0.03 -0.04 0.03 -0.04 0.04 -0.05 0.03 -0.05 0.02 -0.05 0.03 -0.05 0.02 -0.05 0.02 -0.05 0.02 -0.06 0.02 -0.05 0.01 -0.06 0.01 -0.05 0.01 -0.06 0 -0.06 0 0 0zm-21.82 -0.34l21.82 0 0 0.34 -21.82 0 0 0 0 -0.34zm-1.13 -0.79l0.34 0 0 0 0 0.04 0 0.04 0 0.04 0.01 0.04 0.01 0.04 0.01 0.03 0.01 0.04 0.02 0.04 0.01 0.03 0.02 0.04 0.02 0.03 0.02 0.03 0.03 0.03 0.02 0.03 0.02 0.03 0.03 0.03 0.03 0.02 0.03 0.03 0.03 0.02 0.03 0.03 0.03 0.02 0.03 0.02 0.04 0.02 0.03 0.01 0.04 0.02 0.04 0.01 0.04 0.01 0.03 0.01 0.04 0.01 0.04 0 0.04 0 0.04 0 0 0.34 -0.05 0 -0.06 0 -0.06 -0.01 -0.06 -0.01 -0.05 -0.01 -0.05 -0.02 -0.06 -0.02 -0.05 -0.02 -0.05 -0.02 -0.05 -0.03 -0.04 -0.02 -0.05 -0.03 -0.04 -0.04 -0.05 -0.03 -0.04 -0.03 -0.04 -0.04 -0.04 -0.04 -0.03 -0.04 -0.04 -0.05 -0.03 -0.04 -0.03 -0.05 -0.02 -0.04 -0.03 -0.05 -0.02 -0.05 -0.02 -0.05 -0.02 -0.06 -0.02 -0.05 -0.01 -0.06 -0.01 -0.05 -0.01 -0.06 0 -0.06 0 -0.05 0 0zm0.34 -12.42l0 12.42 -0.34 0 0 -12.42 0 0 0.34 0zm0.79 -1.13l0 0.33 0 0 -0.04 0.01 -0.04 0 -0.04 0 -0.04 0.01 -0.03 0.01 -0.04 0.01 -0.04 0.01 -0.04 0.02 -0.03 0.01 -0.04 0.02 -0.03 0.02 -0.03 0.02 -0.03 0.03 -0.03 0.02 -0.03 0.02 -0.03 0.03 -0.03 0.03 -0.02 0.03 -0.02 0.03 -0.03 0.03 -0.02 0.03 -0.02 0.03 -0.02 0.04 -0.01 0.03 -0.02 0.04 -0.01 0.04 -0.01 0.03 -0.01 0.04 -0.01 0.04 0 0.04 0 0.04 0 0.04 -0.34 0 0 -0.05 0 -0.06 0.01 -0.06 0.01 -0.05 0.01 -0.06 0.02 -0.05 0.02 -0.06 0.02 -0.05 0.02 -0.05 0.03 -0.05 0.02 -0.05 0.03 -0.04 0.03 -0.04 0.04 -0.05 0.03 -0.04 0.04 -0.04 0.04 -0.04 0.04 -0.03 0.05 -0.04 0.04 -0.03 0.05 -0.03 0.04 -0.03 0.05 -0.02 0.05 -0.02 0.05 -0.02 0.06 -0.02 0.05 -0.02 0.05 -0.01 0.06 -0.01 0.06 -0.01 0.06 0 0.05 0 0 0z"/>
  </g>
  <g>
   <path class="fil2" d="M95.47 14.7l5.97 0c0.18,0 0.33,0.15 0.33,0.33l0 3.08c0,0.19 -0.15,0.34 -0.33,0.34l-5.97 0c-0.18,0 -0.33,-0.15 -0.33,-0.34l0 -3.08c0,-0.18 0.15,-0.33 0.33,-0.33zm13.32 0l5.96 0c0.19,0 0.34,0.15 0.34,0.33l0 3.08c0,0.19 -0.15,0.34 -0.34,0.34l-5.96 0c-0.19,0 -0.34,-0.15 -0.34,-0.34l0 -3.08c0,-0.18 0.15,-0.33 0.34,-0.33z"/>
   <path id="1" class="fil1" d="M101.44 14.87l-5.97 0 0 -0.34 5.97 0 0 0 0 0.34zm0.5 0.16l-0.34 0 0 0 0 -0.01 0 0 0 -0.01 0 -0.01 0 -0.01 0 -0.01 -0.01 0 0 -0.01 0 -0.01 -0.01 0 0 -0.01 0 -0.01 -0.01 0 0 -0.01 -0.01 -0.01 -0.01 -0.01 -0.01 0 0 0 0 0 -0.01 -0.01 -0.01 -0.01 0 0 -0.01 -0.01 -0.01 0 0 0 -0.01 0 -0.01 -0.01 -0.01 0 -0.01 0 -0.01 0 0 0 -0.01 0 0 -0.34 0.02 0 0.03 0 0.03 0.01 0.02 0 0.02 0.01 0.02 0 0.03 0.01 0.02 0.01 0.02 0.01 0.03 0.01 0.02 0.02 0.02 0.01 0.01 0.01 0.03 0.02 0.02 0.01 0.02 0.02 0.01 0.02 0.01 0.01 0.02 0.02 0.01 0.02 0.02 0.02 0.01 0.02 0.01 0.03 0.01 0.02 0.01 0.02 0.01 0.03 0.01 0.02 0 0.02 0 0.02 0.01 0.03 0 0.03 0 0.02 0 0zm-0.34 3.08l0 -3.08 0.34 0 0 3.08 0 0 -0.34 0zm-0.16 0.51l0 -0.34 0 0 0.01 0 0 0 0.01 0 0.01 0 0.01 -0.01 0.01 0 0.01 0 0 0 0 0 0.02 -0.01 0 0 0.01 -0.01 0.01 -0.01 0 0 0 0 0.01 -0.01 0.01 -0.01 0.01 0 0 -0.01 0 0 0.01 -0.01 0 -0.01 0.01 -0.01 0 0 0 -0.01 0.01 -0.01 0 -0.01 0 -0.01 0 -0.01 0 0 0 -0.01 0 -0.01 0.34 0 0 0.02 0 0.03 -0.01 0.03 0 0.03 0 0.02 -0.01 0.02 -0.01 0.03 -0.01 0.02 -0.01 0.02 -0.01 0.03 -0.01 0.01 -0.01 0.02 -0.02 0.03 -0.02 0.01 -0.01 0.02 -0.01 0.02 -0.02 0.01 -0.02 0.02 -0.03 0.02 -0.01 0.01 -0.02 0.01 -0.02 0.02 -0.02 0 -0.03 0.02 -0.02 0.01 -0.03 0 -0.02 0.01 -0.02 0.01 -0.02 0 -0.03 0 -0.03 0.01 -0.02 0 0 0zm-5.97 -0.34l5.97 0 0 0.34 -5.97 0 0 0 0 -0.34zm-0.5 -0.17l0.34 0 0 0 0 0.01 0 0.01 0 0 0 0.01 0 0.01 0 0.01 0.01 0.01 0 0.01 0 0 0.01 0.01 0 0.01 0.01 0.01 0 0 0 0.01 0.01 0 0.01 0.01 0.01 0.01 0 0 0 0 0.01 0.01 0.01 0.01 0 0 0.02 0.01 0 0 0 0 0.01 0 0.01 0 0.01 0.01 0.01 0 0.01 0 0 0 0.01 0 0 0.34 -0.02 0 -0.03 -0.01 -0.03 0 -0.02 0 -0.02 -0.01 -0.02 -0.01 -0.03 0 -0.02 -0.01 -0.03 -0.02 -0.02 0 -0.02 -0.02 -0.02 -0.01 -0.01 -0.01 -0.03 -0.02 -0.02 -0.02 -0.02 -0.01 -0.01 -0.02 -0.01 -0.02 -0.02 -0.01 -0.02 -0.03 -0.01 -0.02 -0.01 -0.01 -0.01 -0.03 -0.01 -0.02 -0.01 -0.02 -0.01 -0.03 -0.01 -0.02 0 -0.02 0 -0.03 -0.01 -0.03 0 -0.03 0 -0.02 0 0zm0.34 -3.08l0 3.08 -0.34 0 0 -3.08 0 0 0.34 0zm0.16 -0.5l0 0.34 0 0 -0.01 0 0 0 -0.01 0 -0.01 0 -0.01 0 -0.01 0.01 -0.01 0 0 0 -0.01 0 -0.01 0.01 0 0 -0.01 0.01 -0.01 0.01 0 0 0 0 -0.01 0 -0.01 0.01 -0.01 0.01 0 0.01 -0.01 0 0 0.01 0 0.01 -0.01 0 0 0.01 0 0.01 -0.01 0 0 0.01 0 0.01 0 0.01 0 0.01 0 0 0 0.01 -0.34 0 0 -0.02 0 -0.03 0.01 -0.03 0 -0.02 0 -0.02 0.01 -0.02 0.01 -0.03 0.01 -0.02 0.01 -0.02 0.01 -0.03 0.01 -0.02 0.02 -0.02 0.01 -0.02 0.02 -0.02 0.01 -0.01 0.01 -0.02 0.02 -0.02 0.02 -0.01 0.03 -0.02 0.01 -0.01 0.02 -0.01 0.02 -0.02 0.03 -0.01 0.02 -0.01 0.02 -0.01 0.03 -0.01 0.02 0 0.02 -0.01 0.02 0 0.03 -0.01 0.03 0 0.02 0 0 0zm19.28 0.34l-5.96 0 0 -0.34 5.96 0 0 0 0 0.34zm0.5 0.16l-0.33 0 0 0 0 -0.01 0 0 0 -0.01 -0.01 -0.01 0 -0.01 0 -0.01 0 -0.01 0 0 -0.01 0 0 -0.02 -0.01 0 0 0 -0.01 -0.02 0 0 0 0 -0.01 -0.01 -0.01 -0.01 0 0 -0.01 -0.01 -0.01 0 -0.01 -0.01 0 0 -0.01 -0.01 -0.01 0 0 0 -0.01 0 -0.01 -0.01 -0.01 0 -0.01 0 0 0 -0.01 0 -0.01 0 0 -0.34 0.02 0 0.03 0 0.03 0.01 0.02 0 0.03 0.01 0.02 0 0.02 0.01 0.03 0.01 0.02 0.01 0.02 0.01 0.02 0.01 0.02 0.02 0.02 0.01 0.02 0.02 0.02 0.01 0.02 0.02 0.01 0.01 0.02 0.03 0.02 0.02 0.01 0.01 0.01 0.02 0.01 0.03 0.01 0.01 0.01 0.03 0.02 0.02 0 0.03 0.01 0.02 0 0.02 0.01 0.02 0 0.03 0 0.03 0 0.02 0 0zm-0.33 3.08l0 -3.08 0.33 0 0 3.08 0 0 -0.33 0zm-0.17 0.51l0 -0.34 0 0 0.01 0 0.01 0 0 0 0.01 0 0.01 -0.01 0.01 0 0.01 0 0 0 0.01 0 0.01 -0.01 0.01 -0.01 0 0 0.01 -0.01 0.01 0 0 0 0.01 -0.01 0.01 -0.01 0 0 0 -0.01 0.01 -0.01 0 0 0.01 -0.01 0 -0.01 0 0 0.01 -0.01 0 -0.01 0 -0.01 0 -0.01 0.01 -0.01 0 0 0 -0.01 0 -0.01 0.33 0 0 0.02 0 0.03 0 0.03 -0.01 0.03 0 0.02 -0.01 0.02 0 0.02 -0.01 0.03 -0.02 0.02 -0.01 0.02 -0.01 0.02 -0.01 0.03 -0.01 0.01 -0.02 0.02 -0.02 0.02 -0.01 0.02 -0.02 0.01 -0.02 0.02 -0.02 0.02 -0.02 0.01 -0.02 0.02 -0.02 0.01 -0.02 0 -0.02 0.02 -0.03 0.01 -0.02 0 -0.02 0.01 -0.03 0.01 -0.02 0 -0.03 0.01 -0.03 0 -0.02 0 0 0zm-5.96 -0.34l5.96 0 0 0.34 -5.96 0 0 0 0 -0.34zm-0.51 -0.17l0.34 0 0 0 0 0.01 0 0.01 0 0 0.01 0.01 0 0.01 0 0.01 0 0.01 0 0.01 0.01 0 0 0.01 0 0.01 0.01 0 0.01 0.01 0 0.01 0 0 0.01 0.01 0.01 0.01 0 0 0.01 0 0.01 0.01 0 0.01 0.01 0 0.01 0.01 0.01 0 0 0 0.01 0 0.01 0 0.01 0.01 0.01 0 0 0 0.01 0 0.01 0 0 0.34 -0.02 0 -0.03 -0.01 -0.03 0 -0.02 0 -0.03 -0.01 -0.02 -0.01 -0.02 0 -0.03 -0.01 -0.02 -0.02 -0.02 0 -0.02 -0.02 -0.03 -0.01 -0.01 -0.01 -0.02 -0.02 -0.02 -0.02 -0.02 -0.01 -0.01 -0.02 -0.02 -0.02 -0.02 -0.02 -0.01 -0.01 -0.01 -0.03 -0.02 -0.02 -0.01 -0.02 -0.01 -0.02 -0.01 -0.03 0 -0.02 -0.01 -0.02 0 -0.02 -0.01 -0.03 0 -0.03 -0.01 -0.03 0 -0.02 0 0zm0.34 -3.08l0 3.08 -0.34 0 0 -3.08 0 0 0.34 0zm0.17 -0.5l0 0.34 0 0 -0.01 0 -0.01 0 0 0 -0.01 0 -0.01 0 -0.01 0.01 -0.01 0 0 0 -0.01 0 -0.01 0.01 0 0 -0.01 0 -0.01 0.01 -0.01 0.01 0 0 -0.01 0.01 -0.01 0.01 0 0 0 0 -0.01 0.02 -0.01 0 0 0 0 0.01 -0.01 0.01 0 0 0 0.01 0 0.01 0 0.01 -0.01 0.01 0 0.01 0 0 0 0.01 -0.34 0 0 -0.02 0.01 -0.03 0 -0.03 0.01 -0.02 0 -0.02 0.01 -0.02 0 -0.03 0.01 -0.02 0.01 -0.02 0.01 -0.02 0.02 -0.03 0.01 -0.02 0.01 -0.01 0.02 -0.02 0.02 -0.03 0.01 -0.01 0.02 -0.02 0.02 -0.01 0.02 -0.02 0.01 -0.01 0.02 -0.01 0.03 -0.02 0.02 -0.01 0.02 -0.01 0.03 -0.01 0.02 -0.01 0.02 0 0.03 -0.01 0.02 0 0.03 -0.01 0.03 0 0.02 0 0 0z"/>
  </g>
  <g>
   <path class="fil3" d="M81.37 3.13l21.82 0c0.53,0 0.97,0.43 0.97,0.96l0 12.42c0,0.53 -0.44,0.96 -0.97,0.96l-21.82 0c-0.53,0 -0.96,-0.43 -0.96,-0.96l0 -12.42c0,-0.53 0.43,-0.96 0.96,-0.96z"/>
   <path id="1" class="fil1" d="M103.19 3.29l-21.82 0 0 -0.33 21.82 0 0 0 0 0.33zm1.13 0.8l-0.33 0 0 0 0 -0.04 -0.01 -0.04 0 -0.04 -0.01 -0.04 -0.01 -0.04 -0.01 -0.03 -0.01 -0.04 -0.02 -0.04 -0.01 -0.03 -0.02 -0.04 -0.02 -0.03 -0.02 -0.03 -0.02 -0.03 -0.03 -0.03 -0.02 -0.03 -0.03 -0.03 -0.03 -0.03 -0.02 -0.02 -0.04 -0.03 -0.03 -0.02 -0.03 -0.02 -0.03 -0.02 -0.04 -0.02 -0.03 -0.01 -0.04 -0.02 -0.04 -0.01 -0.03 -0.01 -0.04 -0.01 -0.04 -0.01 -0.04 0 -0.04 0 -0.04 -0.01 0 -0.33 0.06 0 0.05 0 0.06 0.01 0.05 0.01 0.06 0.01 0.06 0.02 0.05 0.02 0.05 0.02 0.05 0.02 0.05 0.03 0.05 0.02 0.04 0.03 0.05 0.03 0.04 0.04 0.04 0.03 0.04 0.04 0.04 0.04 0.04 0.04 0.03 0.04 0.03 0.05 0.03 0.04 0.03 0.05 0.02 0.05 0.02 0.05 0.02 0.05 0.02 0.06 0.02 0.05 0.01 0.06 0.01 0.05 0.01 0.05 0 0.06 0 0.06 0 0zm-0.33 12.42l0 -12.42 0.33 0 0 12.42 0 0 -0.33 0zm-0.8 1.13l0 -0.34 0 0 0.04 0 0.04 0 0.04 -0.01 0.04 0 0.04 -0.01 0.03 -0.01 0.04 -0.01 0.04 -0.02 0.03 -0.01 0.04 -0.02 0.03 -0.02 0.03 -0.02 0.03 -0.03 0.04 -0.02 0.02 -0.03 0.03 -0.02 0.03 -0.03 0.02 -0.03 0.03 -0.03 0.02 -0.03 0.02 -0.03 0.02 -0.03 0.02 -0.04 0.01 -0.03 0.02 -0.04 0.01 -0.04 0.01 -0.04 0.01 -0.03 0.01 -0.05 0 -0.03 0.01 -0.04 0 -0.04 0.33 0 0 0.05 0 0.06 -0.01 0.06 -0.01 0.05 -0.01 0.06 -0.02 0.05 -0.02 0.06 -0.02 0.05 -0.02 0.05 -0.02 0.05 -0.03 0.04 -0.03 0.05 -0.03 0.04 -0.03 0.05 -0.04 0.04 -0.04 0.04 -0.04 0.04 -0.04 0.03 -0.04 0.04 -0.05 0.03 -0.04 0.03 -0.05 0.02 -0.05 0.03 -0.05 0.02 -0.05 0.02 -0.05 0.02 -0.06 0.02 -0.06 0.01 -0.05 0.01 -0.06 0.01 -0.05 0 -0.06 0 0 0zm-21.82 -0.34l21.82 0 0 0.34 -21.82 0 0 0 0 -0.34zm-1.13 -0.79l0.33 0 0 0 0.01 0.04 0 0.04 0 0.03 0.01 0.04 0.01 0.04 0.01 0.04 0.01 0.04 0.02 0.04 0.01 0.03 0.02 0.04 0.02 0.03 0.02 0.03 0.02 0.03 0.03 0.03 0.02 0.03 0.03 0.03 0.03 0.03 0.03 0.02 0.02 0.02 0.04 0.03 0.03 0.02 0.03 0.02 0.04 0.02 0.03 0.01 0.04 0.02 0.04 0.01 0.03 0.01 0.04 0.01 0.04 0 0.04 0.01 0.04 0 0.04 0 0 0.34 -0.06 0 -0.05 0 -0.06 -0.01 -0.05 -0.01 -0.06 -0.01 -0.06 -0.02 -0.05 -0.02 -0.05 -0.02 -0.05 -0.02 -0.05 -0.03 -0.05 -0.02 -0.04 -0.03 -0.05 -0.03 -0.04 -0.04 -0.04 -0.03 -0.04 -0.04 -0.04 -0.04 -0.03 -0.04 -0.04 -0.05 -0.03 -0.04 -0.03 -0.05 -0.03 -0.04 -0.02 -0.05 -0.02 -0.05 -0.02 -0.05 -0.02 -0.06 -0.02 -0.05 -0.01 -0.05 -0.01 -0.06 -0.01 -0.06 0 -0.06 0 -0.05 0 0zm0.33 -12.42l0 12.42 -0.33 0 0 -12.42 0 0 0.33 0zm0.8 -1.13l0 0.33 0 0 -0.04 0.01 -0.04 0 -0.04 0 -0.04 0.01 -0.04 0.01 -0.03 0.01 -0.04 0.01 -0.04 0.02 -0.03 0.01 -0.04 0.02 -0.03 0.02 -0.03 0.02 -0.04 0.02 -0.02 0.03 -0.03 0.02 -0.03 0.03 -0.03 0.03 -0.02 0.03 -0.03 0.02 -0.02 0.04 -0.02 0.03 -0.02 0.03 -0.02 0.04 -0.01 0.03 -0.02 0.04 -0.01 0.04 -0.01 0.03 -0.01 0.04 -0.01 0.04 0 0.04 0 0.04 -0.01 0.04 -0.33 0 0 -0.06 0 -0.05 0.01 -0.06 0.01 -0.06 0.01 -0.05 0.02 -0.06 0.02 -0.05 0.02 -0.05 0.02 -0.05 0.02 -0.05 0.03 -0.05 0.03 -0.04 0.03 -0.05 0.04 -0.04 0.03 -0.04 0.04 -0.04 0.04 -0.04 0.04 -0.03 0.04 -0.04 0.05 -0.03 0.04 -0.03 0.05 -0.03 0.05 -0.02 0.05 -0.02 0.05 -0.02 0.05 -0.02 0.06 -0.02 0.05 -0.01 0.06 -0.01 0.06 -0.01 0.05 0 0.06 0 0 0z"/>
  </g>
  <g>
   <path class="fil3" d="M82.68 0.17l5.96 0c0.19,0 0.34,0.15 0.34,0.34l0 3.07c0,0.19 -0.15,0.34 -0.34,0.34l-5.96 0c-0.18,0 -0.33,-0.15 -0.33,-0.34l0 -3.07c0,-0.19 0.15,-0.34 0.33,-0.34zm13.32 0l5.96 0c0.18,0 0.33,0.15 0.33,0.34l0 3.07c0,0.19 -0.15,0.34 -0.33,0.34l-5.96 0c-0.19,0 -0.34,-0.15 -0.34,-0.34l0 -3.07c0,-0.19 0.15,-0.34 0.34,-0.34z"/>
   <path id="1" class="fil1" d="M88.64 0.34l-5.96 0 0 -0.34 5.96 0 0 0 0 0.34zm0.51 0.17l-0.34 0 0 0 0 -0.02 0 0 0 -0.01 0 -0.01 0 -0.01 -0.01 -0.01 0 0 0 -0.01 0 0 -0.01 -0.01 0 -0.01 -0.01 -0.01 0 -0.01 -0.01 0 0 0 -0.01 -0.01 -0.01 -0.01 0 0 0 -0.01 -0.02 0 0 -0.01 -0.01 0 -0.01 -0.01 0 0 -0.01 0 -0.01 0 -0.01 -0.01 -0.01 0 0 0 -0.01 0 -0.01 0 -0.01 0 0 -0.34 0.03 0 0.02 0 0.03 0.01 0.03 0 0.02 0.01 0.02 0 0.02 0.01 0.03 0.01 0.03 0.01 0.01 0.01 0.02 0.01 0.03 0.02 0.01 0.01 0.02 0.01 0.03 0.02 0.01 0.02 0.01 0.01 0.02 0.02 0.02 0.02 0.01 0.02 0.02 0.03 0.01 0.01 0.01 0.02 0.01 0.03 0.01 0.02 0.01 0.03 0 0.02 0.01 0.02 0 0.03 0.01 0.02 0 0.03 0 0.03 0 0zm-0.34 3.07l0 -3.07 0.34 0 0 3.07 0 0 -0.34 0zm-0.17 0.51l0 -0.34 0 0 0.01 0 0.01 0 0.01 0 0 0 0.01 -0.01 0.01 0 0.01 0 0.01 0 0.01 -0.01 0 0 0.01 0 0 -0.01 0.02 -0.01 0 0 0 0 0.01 -0.01 0.01 -0.01 0 0 0.01 -0.01 0.01 -0.01 0 0 0 -0.01 0.01 -0.01 0 -0.01 0 0 0 -0.01 0.01 -0.01 0 -0.01 0 -0.01 0 0 0 -0.01 0 -0.01 0.34 0 0 0.03 0 0.02 -0.01 0.03 0 0.02 -0.01 0.03 0 0.02 -0.01 0.02 -0.01 0.03 -0.01 0.02 -0.01 0.02 -0.02 0.02 -0.01 0.03 -0.01 0.01 -0.02 0.02 -0.02 0.02 -0.01 0.02 -0.01 0.01 -0.03 0.02 -0.02 0.02 -0.01 0.01 -0.02 0.01 -0.03 0.02 -0.02 0.01 -0.02 0.01 -0.03 0.01 -0.02 0 -0.02 0.01 -0.02 0 -0.03 0.01 -0.03 0 -0.02 0.01 -0.03 0 0 0zm-5.96 -0.34l5.96 0 0 0.34 -5.96 0 0 0 0 -0.34zm-0.5 -0.17l0.34 0 0 0 0 0.01 0 0.01 0 0 0 0.01 0 0.01 0 0.01 0.01 0.01 0 0 0 0.01 0.01 0.01 0 0 0 0.01 0.01 0.01 0 0.01 0.01 0 0 0.01 0.01 0.01 0.01 0 0 0 0.01 0.01 0.01 0.01 0 0 0.01 0 0.01 0.01 0 0 0.01 0 0.01 0 0.01 0.01 0.01 0 0.01 0 0 0 0.01 0 0 0.34 -0.02 0 -0.03 -0.01 -0.03 0 -0.02 -0.01 -0.02 0 -0.03 -0.01 -0.02 0 -0.03 -0.01 -0.02 -0.01 -0.02 -0.01 -0.02 -0.02 -0.02 -0.01 -0.02 -0.01 -0.02 -0.02 -0.02 -0.02 -0.01 -0.01 -0.02 -0.02 -0.02 -0.02 -0.01 -0.02 -0.01 -0.01 -0.02 -0.02 -0.01 -0.03 -0.01 -0.02 -0.01 -0.02 -0.01 -0.03 -0.01 -0.02 -0.01 -0.02 0 -0.03 -0.01 -0.02 0 -0.03 0 -0.02 0 -0.03 0 0zm0.34 -3.07l0 3.07 -0.34 0 0 -3.07 0 0 0.34 0zm0.16 -0.51l0 0.34 0 0 -0.01 0 0 0 -0.01 0 -0.01 0 -0.01 0 -0.01 0.01 -0.01 0 0 0 0 0 -0.02 0.01 0 0 -0.01 0 -0.01 0.01 0 0.01 -0.01 0 -0.01 0.01 0 0.01 -0.01 0 0 0 -0.01 0.01 0 0.01 0 0.01 -0.01 0 0 0.01 0 0.01 -0.01 0 0 0.01 0 0.01 0 0.01 0 0.01 0 0 0 0.02 -0.34 0 0 -0.03 0 -0.03 0 -0.02 0.01 -0.03 0 -0.02 0.01 -0.02 0.01 -0.03 0.01 -0.02 0.01 -0.02 0.01 -0.03 0.01 -0.02 0.02 -0.02 0.01 -0.02 0.01 -0.02 0.02 -0.02 0.02 -0.01 0.01 -0.02 0.02 -0.02 0.02 -0.01 0.02 -0.01 0.02 -0.02 0.02 -0.01 0.02 -0.01 0.02 -0.01 0.03 -0.01 0.02 -0.01 0.03 0 0.02 -0.01 0.02 0 0.03 -0.01 0.03 0 0.02 0 0 0zm19.28 0.34l-5.96 0 0 -0.34 5.96 0 0 0 0 0.34zm0.5 0.17l-0.33 0 0 0 0 -0.02 0 0 0 -0.01 -0.01 -0.01 0 -0.01 0 -0.01 0 0 -0.01 -0.01 0 -0.01 0 0 -0.01 -0.01 0 -0.01 -0.01 0 0 -0.01 -0.01 -0.01 -0.01 -0.01 0 0 0 0 -0.01 -0.01 -0.01 0 0 -0.01 -0.01 0 -0.01 -0.01 -0.01 0 0 0 -0.01 0 -0.01 -0.01 -0.01 0 -0.01 0 -0.01 0 0 0 -0.01 0 0 -0.34 0.02 0 0.03 0 0.03 0.01 0.02 0 0.02 0.01 0.03 0 0.02 0.01 0.02 0.01 0.03 0.01 0.02 0.01 0.02 0.01 0.02 0.02 0.02 0.01 0.02 0.01 0.02 0.02 0.02 0.02 0.01 0.02 0.02 0.01 0.01 0.02 0.02 0.02 0.01 0.03 0.01 0.01 0.01 0.03 0.01 0.02 0.01 0.02 0.01 0.03 0.01 0.02 0 0.02 0.01 0.03 0 0.02 0 0.03 0 0.03 0 0zm-0.33 3.07l0 -3.07 0.33 0 0 3.07 0 0 -0.33 0zm-0.17 0.51l0 -0.34 0 0 0.01 0 0 0 0.01 0 0.01 0 0.01 -0.01 0.01 0 0.01 0 0 0 0.01 -0.01 0.01 0 0 0 0.01 -0.01 0.01 -0.01 0.01 0 0 0 0 -0.01 0.01 -0.01 0.01 0 0 -0.01 0.01 -0.01 0 0 0.01 -0.01 0 -0.01 0 -0.01 0.01 0 0 -0.01 0 -0.01 0 -0.01 0.01 -0.01 0 0 0 -0.01 0 -0.01 0.33 0 0 0.03 0 0.02 0 0.03 -0.01 0.02 0 0.03 -0.01 0.02 -0.01 0.03 -0.01 0.02 -0.01 0.02 -0.01 0.02 -0.01 0.02 -0.01 0.02 -0.02 0.03 -0.01 0.01 -0.02 0.02 -0.01 0.01 -0.02 0.02 -0.02 0.02 -0.02 0.02 -0.02 0.01 -0.02 0.01 -0.02 0.02 -0.02 0.01 -0.03 0.01 -0.02 0.01 -0.02 0 -0.03 0.01 -0.02 0 -0.02 0.01 -0.03 0 -0.03 0.01 -0.02 0 0 0zm-5.96 -0.34l5.96 0 0 0.34 -5.96 0 0 0 0 -0.34zm-0.51 -0.17l0.34 0 0 0 0 0.01 0 0.01 0 0 0 0.01 0.01 0.01 0 0.01 0 0.01 0 0 0.01 0.01 0 0.01 0 0.01 0.01 0 0 0.01 0.01 0.01 0 0 0.01 0.01 0.01 0.01 0 0 0 0 0.02 0.01 0.01 0.01 0 0 0 0 0.01 0.01 0.01 0 0.01 0 0.01 0 0.01 0.01 0.01 0 0 0 0.01 0 0.01 0 0 0.34 -0.03 0 -0.02 -0.01 -0.03 0 -0.02 -0.01 -0.03 0 -0.02 -0.01 -0.02 0 -0.03 -0.01 -0.02 -0.01 -0.02 -0.01 -0.03 -0.02 -0.02 -0.01 -0.01 -0.01 -0.02 -0.02 -0.03 -0.02 -0.01 -0.02 -0.02 -0.01 -0.01 -0.02 -0.02 -0.01 -0.01 -0.03 -0.01 -0.02 -0.02 -0.02 -0.01 -0.02 -0.01 -0.02 -0.01 -0.02 -0.01 -0.03 0 -0.02 -0.01 -0.03 0 -0.02 -0.01 -0.03 0 -0.02 0 -0.03 0 0zm0.34 -3.07l0 3.07 -0.34 0 0 -3.07 0 0 0.34 0zm0.17 -0.51l0 0.34 0 0 -0.01 0 -0.01 0 0 0 -0.01 0 -0.01 0 -0.01 0.01 -0.01 0 -0.01 0 0 0 -0.01 0.01 -0.01 0 0 0.01 -0.02 0 0 0.01 0 0 -0.01 0 -0.01 0.01 0 0.01 -0.01 0.01 0 0 0 0.01 -0.01 0.01 0 0 -0.01 0.01 0 0.01 0 0 0 0.01 -0.01 0.01 0 0.01 0 0.01 0 0 0 0.02 -0.34 0 0 -0.03 0 -0.03 0.01 -0.02 0 -0.03 0.01 -0.02 0 -0.02 0.01 -0.03 0.01 -0.02 0.01 -0.02 0.02 -0.03 0 -0.01 0.02 -0.03 0.01 -0.02 0.02 -0.02 0.01 -0.01 0.02 -0.02 0.01 -0.02 0.03 -0.02 0.02 -0.01 0.01 -0.01 0.03 -0.02 0.02 -0.01 0.01 -0.01 0.03 -0.01 0.03 -0.01 0.02 -0.01 0.02 0 0.03 -0.01 0.02 0 0.03 -0.01 0.02 0 0.03 0 0 0z"/>
  </g>
  <g>
   <path class="fil3" d="M1.14 42.17l48.68 0c0.53,0 0.96,0.44 0.96,0.97l0 12.41c0,0.53 -0.43,0.97 -0.96,0.97l-48.68 0c-0.54,0 -0.97,-0.44 -0.97,-0.97l0 -12.41c0,-0.53 0.43,-0.97 0.97,-0.97z"/>
   <path id="1" class="fil1" d="M49.82 42.34l-48.68 0 0 -0.34 48.68 0 0 0 0 0.34zm1.13 0.8l-0.33 0 0 0 0 -0.04 -0.01 -0.04 0 -0.04 -0.01 -0.04 -0.01 -0.04 -0.01 -0.04 -0.01 -0.03 -0.02 -0.04 -0.01 -0.04 -0.02 -0.03 -0.02 -0.03 -0.02 -0.04 -0.02 -0.03 -0.03 -0.03 -0.02 -0.03 -0.03 -0.02 -0.03 -0.03 -0.03 -0.03 -0.02 -0.02 -0.04 -0.02 -0.03 -0.02 -0.03 -0.02 -0.04 -0.02 -0.03 -0.02 -0.04 -0.01 -0.04 -0.01 -0.03 -0.01 -0.04 -0.01 -0.04 -0.01 -0.04 -0.01 -0.04 0 -0.04 0 0 -0.34 0.06 0 0.05 0.01 0.06 0.01 0.06 0.01 0.05 0.01 0.06 0.01 0.05 0.02 0.05 0.02 0.05 0.03 0.05 0.02 0.05 0.03 0.04 0.03 0.05 0.03 0.04 0.03 0.04 0.04 0.04 0.04 0.04 0.04 0.03 0.04 0.04 0.04 0.03 0.04 0.03 0.05 0.03 0.05 0.02 0.05 0.02 0.05 0.02 0.05 0.02 0.05 0.02 0.06 0.01 0.05 0.01 0.06 0.01 0.05 0 0.06 0 0.06 0 0zm-0.33 12.41l0 -12.41 0.33 0 0 12.41 0 0 -0.33 0zm-0.8 1.14l0 -0.34 0 0 0.04 0 0.04 0 0.04 -0.01 0.04 -0.01 0.04 -0.01 0.03 -0.01 0.04 -0.01 0.04 -0.01 0.03 -0.02 0.04 -0.02 0.03 -0.01 0.03 -0.03 0.04 -0.02 0.02 -0.02 0.03 -0.03 0.03 -0.02 0.03 -0.03 0.02 -0.03 0.03 -0.03 0.02 -0.03 0.02 -0.04 0.02 -0.03 0.02 -0.03 0.01 -0.04 0.02 -0.03 0.01 -0.04 0.01 -0.04 0.01 -0.04 0.01 -0.04 0 -0.04 0.01 -0.04 0 -0.04 0.33 0 0 0.06 0 0.06 -0.01 0.06 -0.01 0.05 -0.01 0.05 -0.02 0.06 -0.02 0.05 -0.02 0.05 -0.02 0.05 -0.02 0.05 -0.03 0.05 -0.03 0.05 -0.03 0.04 -0.04 0.05 -0.03 0.04 -0.04 0.03 -0.04 0.04 -0.04 0.04 -0.04 0.03 -0.05 0.03 -0.04 0.03 -0.05 0.03 -0.05 0.03 -0.05 0.02 -0.05 0.02 -0.05 0.02 -0.06 0.01 -0.05 0.01 -0.06 0.01 -0.06 0.01 -0.05 0.01 -0.06 0 0 0zm-48.68 -0.34l48.68 0 0 0.34 -48.68 0 0 0 0 -0.34zm-1.14 -0.8l0.34 0 0 0 0 0.04 0 0.04 0.01 0.04 0 0.04 0.01 0.04 0.01 0.04 0.02 0.04 0.01 0.03 0.02 0.04 0.01 0.03 0.02 0.03 0.02 0.04 0.03 0.03 0.02 0.03 0.03 0.03 0.02 0.03 0.03 0.02 0.03 0.03 0.03 0.02 0.03 0.02 0.03 0.03 0.04 0.01 0.03 0.02 0.03 0.02 0.04 0.01 0.04 0.01 0.04 0.01 0.04 0.01 0.04 0.01 0.03 0.01 0.04 0 0.05 0 0 0.34 -0.06 0 -0.06 -0.01 -0.06 -0.01 -0.05 -0.01 -0.06 -0.01 -0.05 -0.01 -0.05 -0.02 -0.06 -0.02 -0.05 -0.02 -0.04 -0.03 -0.05 -0.03 -0.05 -0.03 -0.04 -0.03 -0.05 -0.03 -0.04 -0.04 -0.04 -0.04 -0.03 -0.03 -0.04 -0.04 -0.03 -0.05 -0.03 -0.04 -0.04 -0.05 -0.02 -0.05 -0.03 -0.05 -0.02 -0.05 -0.02 -0.05 -0.02 -0.05 -0.01 -0.06 -0.02 -0.05 -0.01 -0.05 0 -0.06 -0.01 -0.06 0 -0.06 0 0zm0.34 -12.41l0 12.41 -0.34 0 0 -12.41 0 0 0.34 0zm0.8 -1.14l0 0.34 0 0 -0.05 0 -0.03 0 -0.04 0.01 -0.05 0.01 -0.03 0.01 -0.04 0.01 -0.04 0.01 -0.04 0.01 -0.03 0.02 -0.03 0.02 -0.04 0.02 -0.03 0.02 -0.03 0.02 -0.03 0.02 -0.03 0.03 -0.03 0.03 -0.02 0.02 -0.03 0.03 -0.02 0.03 -0.03 0.03 -0.02 0.04 -0.02 0.03 -0.01 0.04 -0.02 0.03 -0.01 0.04 -0.02 0.03 -0.01 0.04 -0.01 0.04 0 0.04 -0.01 0.04 0 0.04 0 0.04 -0.34 0 0 -0.06 0.01 -0.06 0 -0.05 0.01 -0.06 0.02 -0.05 0.01 -0.06 0.02 -0.05 0.02 -0.05 0.02 -0.05 0.03 -0.05 0.02 -0.05 0.04 -0.05 0.03 -0.04 0.03 -0.04 0.04 -0.04 0.03 -0.04 0.04 -0.04 0.04 -0.04 0.05 -0.03 0.04 -0.03 0.05 -0.03 0.05 -0.03 0.04 -0.02 0.05 -0.03 0.06 -0.02 0.05 -0.02 0.05 -0.01 0.06 -0.01 0.05 -0.01 0.06 -0.01 0.06 -0.01 0.06 0 0 0z"/>
  </g>
  <g>
   <path class="fil3" d="M2.45 39.22l5.96 0c0.18,0 0.33,0.15 0.33,0.33l0 3.08c0,0.18 -0.15,0.33 -0.33,0.33l-5.96 0c-0.19,0 -0.34,-0.15 -0.34,-0.33l0 -3.08c0,-0.18 0.15,-0.33 0.34,-0.33zm40.08 0l5.97 0c0.18,0 0.33,0.15 0.33,0.33l0 3.08c0,0.18 -0.15,0.33 -0.33,0.33l-5.97 0c-0.18,0 -0.33,-0.15 -0.33,-0.33l0 -3.08c0,-0.18 0.15,-0.33 0.33,-0.33zm-13.36 0l5.96 0c0.19,0 0.34,0.15 0.34,0.33l0 3.08c0,0.18 -0.15,0.33 -0.34,0.33l-5.96 0c-0.18,0 -0.33,-0.15 -0.33,-0.33l0 -3.08c0,-0.18 0.15,-0.33 0.33,-0.33zm-13.41 0l5.96 0c0.19,0 0.34,0.15 0.34,0.33l0 3.08c0,0.18 -0.15,0.33 -0.34,0.33l-5.96 0c-0.18,0 -0.34,-0.15 -0.34,-0.33l0 -3.08c0,-0.18 0.16,-0.33 0.34,-0.33z"/>
   <path id="1" class="fil1" d="M8.41 39.38l-5.96 0 0 -0.33 5.96 0 0 0 0 0.33zm0.5 0.17l-0.33 0 0 0 0 -0.01 0 0 -0.01 -0.01 0 -0.01 0 -0.01 0 -0.01 0 0 -0.01 -0.01 0 -0.01 0 -0.01 -0.01 -0.01 0 0 -0.01 -0.01 0 0 -0.01 -0.01 -0.01 -0.01 0 0 -0.01 -0.01 0 0 -0.01 -0.01 -0.01 0 0 -0.01 -0.01 0 -0.01 0 0 -0.01 -0.01 0 -0.01 0 -0.01 0 -0.01 0 -0.01 -0.01 0 0 -0.01 0 0 -0.33 0.02 0 0.03 0 0.03 0 0.02 0.01 0.02 0 0.03 0.01 0.02 0.01 0.02 0.01 0.03 0.01 0.02 0.01 0.02 0.01 0.02 0.01 0.01 0.01 0.03 0.02 0.02 0.02 0.02 0.02 0.01 0.01 0.01 0.02 0.02 0.02 0.01 0.02 0.02 0.02 0.01 0.02 0.01 0.02 0.01 0.02 0.01 0.03 0.01 0.02 0.01 0.03 0 0.02 0.01 0.02 0 0.03 0 0.03 0 0.02 0 0zm-0.33 3.08l0 -3.08 0.33 0 0 3.08 0 0 -0.33 0zm-0.17 0.5l0 -0.33 0 0 0.01 0 0 0 0.01 0 0.01 -0.01 0.01 0 0.01 0 0.01 0 0 -0.01 0 0 0.02 0 0 -0.01 0.01 0 0.01 -0.01 0 0 0.01 -0.01 0 0 0.01 -0.01 0.01 -0.01 0 0 0 -0.01 0.01 0 0.01 -0.02 0 0 0 -0.01 0.01 -0.01 0 0 0 -0.01 0 -0.01 0 -0.01 0 -0.01 0.01 0 0 -0.01 0.33 0 0 0.02 0 0.03 0 0.03 -0.01 0.02 0 0.02 -0.01 0.03 -0.01 0.02 -0.01 0.02 -0.01 0.03 -0.01 0.02 -0.01 0.02 -0.01 0.02 -0.02 0.02 -0.02 0.02 -0.01 0.02 -0.01 0.01 -0.02 0.02 -0.02 0.02 -0.03 0.02 -0.01 0.01 -0.02 0.01 -0.02 0.01 -0.02 0.01 -0.03 0.01 -0.02 0.01 -0.02 0.01 -0.03 0.01 -0.02 0 -0.02 0.01 -0.03 0 -0.03 0 -0.02 0 0 0zm-5.96 -0.33l5.96 0 0 0.33 -5.96 0 0 0 0 -0.33zm-0.51 -0.17l0.34 0 0 0 0 0.01 0 0 0 0.01 0 0.01 0 0.01 0.01 0.01 0 0 0 0.01 0 0.01 0.01 0 0 0.02 0.01 0 0 0.01 0.01 0 0 0.01 0.01 0.01 0.01 0 0 0.01 0 0 0.02 0.01 0 0 0.01 0.01 0.01 0 0 0 0.01 0.01 0 0 0.01 0 0.01 0 0.01 0.01 0.01 0 0 0 0.02 0 0 0.33 -0.03 0 -0.03 0 -0.02 0 -0.03 -0.01 -0.02 0 -0.02 -0.01 -0.02 -0.01 -0.03 -0.01 -0.03 -0.01 -0.01 -0.01 -0.03 -0.01 -0.02 -0.01 -0.01 -0.01 -0.02 -0.02 -0.03 -0.02 -0.01 -0.02 -0.02 -0.01 -0.01 -0.02 -0.02 -0.02 -0.01 -0.02 -0.02 -0.02 -0.01 -0.02 -0.01 -0.02 -0.01 -0.03 -0.01 -0.02 -0.01 -0.02 0 -0.03 -0.01 -0.02 0 -0.02 -0.01 -0.03 0 -0.03 0 -0.02 0 0zm0.34 -3.08l0 3.08 -0.34 0 0 -3.08 0 0 0.34 0zm0.17 -0.5l0 0.33 0 0 -0.02 0 0 0 -0.01 0.01 -0.01 0 -0.01 0 -0.01 0 0 0 -0.01 0.01 -0.01 0 0 0 -0.01 0.01 0 0 -0.02 0.01 0 0 0 0.01 -0.01 0 -0.01 0.01 0 0.01 -0.01 0 0 0.01 -0.01 0 0 0.01 -0.01 0.01 0 0.01 0 0.01 0 0 -0.01 0.01 0 0.01 0 0.01 0 0.01 0 0 0 0.01 -0.34 0 0 -0.02 0 -0.03 0.01 -0.03 0 -0.02 0.01 -0.02 0 -0.03 0.01 -0.02 0.01 -0.03 0.01 -0.02 0.01 -0.02 0.02 -0.02 0.01 -0.02 0.01 -0.02 0.02 -0.02 0.01 -0.02 0.02 -0.01 0.01 -0.02 0.03 -0.02 0.02 -0.02 0.01 -0.01 0.02 -0.01 0.03 -0.01 0.02 -0.01 0.02 -0.01 0.03 -0.01 0.02 -0.01 0.02 -0.01 0.02 0 0.03 -0.01 0.02 0 0.03 0 0.03 0 0 0zm46.05 0.33l-5.97 0 0 -0.33 5.97 0 0 0 0 0.33zm0.5 0.17l-0.34 0 0 0 0 -0.01 0 0 0 -0.01 0 -0.01 0 -0.01 0 -0.01 -0.01 0 0 -0.01 0 -0.01 -0.01 -0.01 0 -0.01 0 0 -0.01 -0.01 0 0 -0.01 -0.01 -0.01 -0.01 -0.01 0 0 -0.01 0 0 -0.01 -0.01 -0.01 0 0 -0.01 -0.01 0 -0.01 0 0 -0.01 -0.01 0 -0.01 0 -0.01 0 -0.01 0 -0.01 -0.01 0 0 -0.01 0 0 -0.33 0.02 0 0.03 0 0.03 0 0.02 0.01 0.02 0 0.02 0.01 0.03 0.01 0.02 0.01 0.02 0.01 0.03 0.01 0.02 0.01 0.02 0.01 0.01 0.01 0.03 0.02 0.02 0.02 0.02 0.02 0.01 0.01 0.01 0.02 0.02 0.02 0.01 0.02 0.02 0.02 0.01 0.02 0.01 0.02 0.01 0.02 0.01 0.03 0.01 0.02 0.01 0.03 0 0.02 0 0.02 0.01 0.03 0 0.03 0 0.02 0 0zm-0.34 3.08l0 -3.08 0.34 0 0 3.08 0 0 -0.34 0zm-0.16 0.5l0 -0.33 0 0 0.01 0 0 0 0.01 0 0.01 -0.01 0.01 0 0.01 0 0.01 0 0 -0.01 0 0 0.02 0 0 -0.01 0.01 0 0.01 -0.01 0 0 0 -0.01 0.01 0 0.01 -0.01 0.01 -0.01 0 0 0 -0.01 0.01 0 0 -0.02 0.01 0 0 -0.01 0 -0.01 0.01 0 0 -0.01 0 -0.01 0 -0.01 0 -0.01 0 0 0 -0.01 0.34 0 0 0.02 0 0.03 -0.01 0.03 0 0.02 0 0.02 -0.01 0.03 -0.01 0.02 -0.01 0.02 -0.01 0.03 -0.01 0.02 -0.01 0.02 -0.01 0.02 -0.02 0.02 -0.02 0.02 -0.01 0.02 -0.01 0.01 -0.02 0.02 -0.02 0.02 -0.03 0.02 -0.01 0.01 -0.02 0.01 -0.02 0.01 -0.02 0.01 -0.03 0.01 -0.02 0.01 -0.03 0.01 -0.02 0.01 -0.02 0 -0.02 0.01 -0.03 0 -0.03 0 -0.02 0 0 0zm-5.97 -0.33l5.97 0 0 0.33 -5.97 0 0 0 0 -0.33zm-0.5 -0.17l0.34 0 0 0 0 0.01 0 0 0 0.01 0 0.01 0 0.01 0 0.01 0.01 0 0 0.01 0 0.01 0.01 0 0 0.02 0.01 0 0 0.01 0 0 0.01 0.01 0.01 0.01 0.01 0 0 0.01 0 0 0.01 0.01 0.01 0 0 0.01 0.02 0 0 0 0 0.01 0.01 0 0.01 0 0.01 0 0.01 0.01 0.01 0 0 0 0.01 0 0 0.33 -0.02 0 -0.03 0 -0.03 0 -0.02 -0.01 -0.02 0 -0.02 -0.01 -0.03 -0.01 -0.02 -0.01 -0.03 -0.01 -0.02 -0.01 -0.02 -0.01 -0.02 -0.01 -0.01 -0.01 -0.03 -0.02 -0.02 -0.02 -0.02 -0.02 -0.01 -0.01 -0.01 -0.02 -0.02 -0.02 -0.02 -0.02 -0.01 -0.02 -0.01 -0.02 -0.01 -0.02 -0.01 -0.03 -0.01 -0.02 -0.01 -0.02 -0.01 -0.03 0 -0.02 0 -0.02 -0.01 -0.03 0 -0.03 0 -0.02 0 0zm0.34 -3.08l0 3.08 -0.34 0 0 -3.08 0 0 0.34 0zm0.16 -0.5l0 0.33 0 0 -0.01 0 0 0 -0.01 0.01 -0.01 0 -0.01 0 -0.01 0 -0.01 0 0 0.01 -0.01 0 -0.01 0 0 0.01 -0.01 0 -0.01 0.01 0 0 0 0.01 -0.01 0 -0.01 0.01 -0.01 0.01 0 0 -0.01 0.01 0 0 0 0.01 -0.01 0.01 0 0.01 0 0.01 -0.01 0 0 0.01 0 0.01 0 0.01 0 0.01 0 0 0 0.01 -0.34 0 0 -0.02 0 -0.03 0.01 -0.03 0 -0.02 0 -0.02 0.01 -0.03 0.01 -0.02 0.01 -0.03 0.01 -0.02 0.01 -0.02 0.01 -0.02 0.02 -0.02 0.01 -0.02 0.02 -0.02 0.01 -0.02 0.01 -0.01 0.02 -0.02 0.02 -0.02 0.03 -0.02 0.01 -0.01 0.02 -0.01 0.02 -0.01 0.03 -0.01 0.02 -0.01 0.02 -0.01 0.03 -0.01 0.02 -0.01 0.02 0 0.02 -0.01 0.03 0 0.03 0 0.02 0 0 0zm-7.4 0.33l-5.96 0 0 -0.33 5.96 0 0 0 0 0.33zm0.51 0.17l-0.34 0 0 0 0 -0.01 0 0 0 -0.01 0 -0.01 -0.01 -0.01 0 -0.01 0 -0.01 0 0 -0.01 -0.01 0 -0.01 0 0 -0.01 -0.01 -0.01 -0.01 0 -0.01 0 0 -0.01 -0.01 -0.01 0 0 -0.01 -0.01 0 -0.01 -0.01 0 0 0 0 -0.02 -0.01 0 0 -0.01 -0.01 -0.01 0 0 0 -0.02 0 -0.01 0 0 -0.01 -0.01 0 -0.01 0 0 -0.33 0.03 0 0.02 0 0.03 0 0.03 0.01 0.02 0 0.02 0.01 0.02 0.01 0.03 0.01 0.02 0.01 0.02 0.01 0.03 0.01 0.02 0.02 0.01 0.01 0.02 0.01 0.02 0.02 0.02 0.02 0.01 0.01 0.02 0.02 0.02 0.02 0.01 0.02 0.01 0.02 0.02 0.02 0.01 0.02 0.01 0.02 0.01 0.03 0 0.02 0.01 0.03 0.01 0.02 0 0.02 0 0.03 0.01 0.03 0 0.02 0 0zm-0.34 3.08l0 -3.08 0.34 0 0 3.08 0 0 -0.34 0zm-0.17 0.5l0 -0.33 0 0 0.01 0 0.01 0 0 0 0.01 -0.01 0.02 0 0 0 0.01 0 0.01 -0.01 0 0 0.02 -0.01 0 0 0 0 0.01 -0.01 0.01 0 0 -0.01 0.01 0 0.01 -0.01 0 0 0 -0.01 0.01 -0.01 0.01 -0.01 0 0 0 -0.01 0.01 -0.01 0 0 0 -0.01 0 -0.01 0.01 -0.01 0 -0.01 0 -0.01 0 0 0 -0.01 0.34 0 0 0.02 0 0.03 -0.01 0.03 0 0.02 -0.01 0.02 -0.01 0.03 0 0.02 -0.01 0.02 -0.01 0.03 -0.01 0.02 -0.02 0.02 -0.01 0.02 -0.01 0.02 -0.02 0.02 -0.02 0.02 -0.01 0.01 -0.02 0.02 -0.02 0.02 -0.02 0.01 -0.01 0.01 -0.03 0.02 -0.02 0.01 -0.01 0.01 -0.03 0.01 -0.03 0.01 -0.02 0.01 -0.02 0.01 -0.02 0 -0.03 0.01 -0.03 0 -0.02 0 -0.03 0 0 0zm-5.96 -0.33l5.96 0 0 0.33 -5.96 0 0 0 0 -0.33zm-0.5 -0.17l0.33 0 0 0 0 0.01 0.01 0 0 0.01 0 0.01 0 0.01 0 0.01 0 0 0.01 0.01 0 0.01 0 0 0.01 0.02 0 0 0.01 0.01 0 0 0.01 0.01 0.01 0.01 0 0 0 0.01 0.01 0 0.01 0.01 0.01 0 0 0.01 0.01 0 0.01 0 0 0.01 0.01 0 0.01 0 0.01 0 0.01 0.01 0.01 0 0 0 0.01 0 0 0.33 -0.02 0 -0.03 0 -0.03 0 -0.02 -0.01 -0.02 0 -0.03 -0.01 -0.02 -0.01 -0.02 -0.01 -0.03 -0.01 -0.02 -0.01 -0.02 -0.01 -0.02 -0.01 -0.02 -0.01 -0.02 -0.02 -0.02 -0.02 -0.02 -0.02 -0.01 -0.01 -0.02 -0.02 -0.01 -0.02 -0.02 -0.02 -0.01 -0.02 -0.01 -0.02 -0.01 -0.02 -0.01 -0.03 -0.01 -0.02 -0.01 -0.02 -0.01 -0.03 0 -0.02 -0.01 -0.02 0 -0.03 0 -0.03 0 -0.02 0 0zm0.33 -3.08l0 3.08 -0.33 0 0 -3.08 0 0 0.33 0zm0.17 -0.5l0 0.33 0 0 -0.01 0 0 0 -0.01 0.01 -0.01 0 -0.01 0 -0.01 0 -0.01 0 0 0.01 -0.01 0 -0.01 0 0 0.01 -0.01 0 -0.01 0.01 -0.01 0 0 0.01 0 0 -0.01 0.01 -0.01 0.01 0 0 -0.01 0.01 0 0 -0.01 0.01 0 0.01 0 0.01 -0.01 0.01 0 0 0 0.01 0 0.01 0 0.01 -0.01 0.01 0 0 0 0.01 -0.33 0 0 -0.02 0 -0.03 0 -0.03 0.01 -0.02 0 -0.02 0.01 -0.03 0.01 -0.02 0.01 -0.03 0.01 -0.02 0.01 -0.02 0.01 -0.02 0.01 -0.02 0.02 -0.02 0.01 -0.02 0.02 -0.02 0.01 -0.01 0.02 -0.02 0.02 -0.02 0.02 -0.02 0.02 -0.01 0.02 -0.01 0.02 -0.01 0.02 -0.01 0.03 -0.01 0.02 -0.01 0.02 -0.01 0.03 -0.01 0.02 0 0.02 -0.01 0.03 0 0.03 0 0.02 0 0 0zm-7.45 0.33l-5.96 0 0 -0.33 5.96 0 0 0 0 0.33zm0.51 0.17l-0.34 0 0 0 0 -0.01 0 0 0 -0.01 0 -0.01 -0.01 -0.01 0 -0.01 0 -0.01 0 0 -0.01 -0.01 0 -0.01 0 0 -0.01 -0.01 -0.01 -0.01 0 -0.01 0 0 -0.01 -0.01 -0.01 0 0 -0.01 -0.01 0 -0.01 -0.01 -0.01 0 0 0 -0.01 -0.01 -0.01 0 0 -0.01 -0.01 0 -0.01 0 -0.01 0 -0.01 0 0 -0.01 -0.01 0 -0.01 0 0 -0.33 0.03 0 0.02 0 0.03 0 0.02 0.01 0.03 0 0.02 0.01 0.02 0.01 0.03 0.01 0.02 0.01 0.02 0.01 0.03 0.01 0.02 0.02 0.01 0.01 0.02 0.01 0.02 0.02 0.02 0.02 0.01 0.01 0.02 0.02 0.02 0.02 0.01 0.02 0.01 0.02 0.02 0.02 0.01 0.02 0.01 0.02 0.01 0.03 0 0.02 0.01 0.03 0.01 0.02 0 0.02 0 0.03 0.01 0.03 0 0.02 0 0zm-0.34 3.08l0 -3.08 0.34 0 0 3.08 0 0 -0.34 0zm-0.17 0.5l0 -0.33 0 0 0.01 0 0.01 0 0 0 0.01 -0.01 0.01 0 0.01 0 0.01 0 0 -0.01 0.01 0 0.01 -0.01 0.01 0 0 0 0.01 -0.01 0.01 0 0 -0.01 0.01 0 0.01 -0.01 0 0 0 -0.01 0.01 -0.01 0.01 -0.01 0 0 0 -0.01 0.01 -0.01 0 0 0 -0.01 0 -0.01 0.01 -0.01 0 -0.01 0 -0.01 0 0 0 -0.01 0.34 0 0 0.02 -0.01 0.03 0 0.03 0 0.02 -0.01 0.02 -0.01 0.03 0 0.02 -0.01 0.02 -0.01 0.03 -0.01 0.02 -0.02 0.02 -0.01 0.02 -0.01 0.02 -0.02 0.02 -0.02 0.02 -0.01 0.01 -0.02 0.02 -0.02 0.02 -0.02 0.01 -0.01 0.01 -0.03 0.02 -0.02 0.01 -0.02 0.01 -0.02 0.01 -0.03 0.01 -0.02 0.01 -0.02 0.01 -0.03 0 -0.02 0.01 -0.03 0 -0.02 0 -0.03 0 0 0zm-5.96 -0.33l5.96 0 0 0.33 -5.96 0 0 0 0 -0.33zm-0.5 -0.17l0.33 0 0 0 0 0.01 0 0 0 0.01 0.01 0.01 0 0.01 0 0.01 0 0.01 0.01 0 0 0.01 0 0.01 0.01 0.01 0 0 0.01 0.01 0 0.01 0 0 0.01 0.01 0.01 0 0 0.01 0.01 0 0.01 0.01 0 0 0.01 0.01 0.01 0 0.01 0 0 0.01 0.01 0 0.01 0 0.01 0 0.01 0.01 0.01 0 0 0 0.01 0 0 0.33 -0.02 0 -0.03 0 -0.03 0 -0.02 -0.01 -0.02 0 -0.03 -0.01 -0.02 -0.01 -0.03 -0.01 -0.02 -0.01 -0.02 -0.01 -0.02 -0.01 -0.02 -0.01 -0.02 -0.02 -0.02 -0.01 -0.02 -0.02 -0.02 -0.02 -0.01 -0.01 -0.02 -0.02 -0.01 -0.02 -0.02 -0.02 -0.01 -0.02 -0.01 -0.02 -0.01 -0.02 -0.01 -0.03 -0.01 -0.02 -0.01 -0.02 -0.01 -0.03 0 -0.02 -0.01 -0.02 0 -0.03 0 -0.03 0 -0.02 0 0zm0.33 -3.08l0 3.08 -0.33 0 0 -3.08 0 0 0.33 0zm0.17 -0.5l0 0.33 0 0 -0.01 0 0 0.01 -0.01 0 -0.01 0 -0.01 0 -0.01 0 -0.01 0 0 0.01 -0.01 0 -0.01 0 0 0.01 -0.01 0 -0.01 0.01 -0.01 0 0 0.01 -0.01 0 -0.01 0.01 0 0 0 0.01 -0.01 0.01 0 0 0 0.01 -0.01 0.01 -0.01 0.01 0 0 0 0.01 0 0.01 0 0.01 -0.01 0.01 0 0.01 0 0 0 0.01 -0.33 0 0 -0.02 0 -0.03 0 -0.03 0.01 -0.02 0 -0.02 0.01 -0.03 0.01 -0.02 0.01 -0.03 0.01 -0.02 0.01 -0.02 0.01 -0.02 0.02 -0.02 0.01 -0.02 0.01 -0.02 0.02 -0.02 0.01 -0.01 0.02 -0.02 0.02 -0.02 0.02 -0.01 0.02 -0.02 0.02 -0.01 0.02 -0.01 0.02 -0.01 0.02 -0.01 0.03 -0.01 0.02 -0.01 0.03 -0.01 0.02 0 0.02 -0.01 0.03 0 0.03 0 0.02 0 0 0z"/>
  </g>
  <g>
   <path class="fil4" d="M27.25 27.06l48.68 0c0.53,0 0.97,0.43 0.97,0.96l0 12.42c0,0.53 -0.44,0.96 -0.97,0.96l-48.68 0c-0.54,0 -0.97,-0.43 -0.97,-0.96l0 -12.42c0,-0.53 0.43,-0.96 0.97,-0.96z"/>
   <path id="1" class="fil1" d="M75.93 27.22l-48.68 0 0 -0.33 48.68 0 0 0 0 0.33zm1.13 0.8l-0.33 0 0 0 0 -0.04 -0.01 -0.04 0 -0.04 -0.01 -0.04 -0.01 -0.04 -0.01 -0.03 -0.01 -0.04 -0.02 -0.04 -0.01 -0.03 -0.02 -0.04 -0.02 -0.03 -0.02 -0.03 -0.02 -0.03 -0.03 -0.03 -0.02 -0.03 -0.03 -0.03 -0.02 -0.03 -0.03 -0.02 -0.04 -0.03 -0.03 -0.02 -0.03 -0.02 -0.03 -0.02 -0.04 -0.02 -0.03 -0.01 -0.04 -0.02 -0.04 -0.01 -0.03 -0.01 -0.04 -0.01 -0.04 -0.01 -0.04 0 -0.04 0 -0.04 -0.01 0 -0.33 0.06 0 0.05 0 0.06 0.01 0.06 0.01 0.05 0.01 0.06 0.02 0.05 0.02 0.05 0.02 0.05 0.02 0.05 0.03 0.05 0.02 0.04 0.03 0.05 0.03 0.04 0.04 0.04 0.03 0.04 0.04 0.04 0.04 0.04 0.04 0.03 0.04 0.03 0.05 0.03 0.05 0.03 0.04 0.02 0.05 0.02 0.05 0.03 0.05 0.01 0.06 0.02 0.05 0.01 0.06 0.01 0.05 0.01 0.06 0 0.06 0 0.05 0 0zm-0.33 12.42l0 -12.42 0.33 0 0 12.42 0 0 -0.33 0zm-0.8 1.13l0 -0.34 0 0 0.04 0 0.04 0 0.04 0 0.04 -0.01 0.04 -0.01 0.03 -0.01 0.04 -0.01 0.04 -0.02 0.04 -0.02 0.03 -0.01 0.03 -0.02 0.03 -0.02 0.03 -0.03 0.04 -0.02 0.03 -0.03 0.02 -0.02 0.03 -0.03 0.03 -0.03 0.02 -0.03 0.02 -0.03 0.02 -0.03 0.02 -0.03 0.02 -0.04 0.01 -0.03 0.02 -0.04 0.01 -0.04 0.01 -0.03 0.01 -0.04 0.01 -0.04 0 -0.04 0.01 -0.04 0 -0.04 0.33 0 0 0.05 0 0.06 -0.01 0.06 -0.01 0.05 -0.01 0.06 -0.02 0.05 -0.01 0.06 -0.03 0.05 -0.02 0.05 -0.02 0.05 -0.03 0.04 -0.03 0.05 -0.03 0.04 -0.04 0.05 -0.03 0.04 -0.04 0.04 -0.04 0.04 -0.04 0.03 -0.04 0.04 -0.05 0.03 -0.04 0.03 -0.05 0.02 -0.05 0.03 -0.05 0.02 -0.05 0.02 -0.05 0.02 -0.06 0.02 -0.05 0.01 -0.06 0.01 -0.06 0.01 -0.05 0 -0.06 0 0 0zm-48.68 -0.34l48.68 0 0 0.34 -48.68 0 0 0 0 -0.34zm-1.14 -0.79l0.34 0 0 0 0 0.04 0 0.04 0.01 0.04 0 0.04 0.01 0.04 0.01 0.03 0.02 0.04 0.01 0.04 0.02 0.03 0.01 0.04 0.02 0.03 0.02 0.03 0.03 0.03 0.02 0.03 0.03 0.03 0.02 0.03 0.03 0.02 0.03 0.03 0.03 0.02 0.03 0.03 0.03 0.02 0.04 0.02 0.03 0.02 0.03 0.01 0.04 0.02 0.04 0.01 0.04 0.01 0.04 0.01 0.04 0.01 0.03 0 0.04 0 0.05 0 0 0.34 -0.06 0 -0.06 0 -0.06 -0.01 -0.05 -0.01 -0.06 -0.01 -0.05 -0.02 -0.05 -0.02 -0.05 -0.02 -0.06 -0.02 -0.04 -0.03 -0.05 -0.02 -0.05 -0.03 -0.04 -0.03 -0.05 -0.04 -0.04 -0.03 -0.04 -0.04 -0.03 -0.04 -0.04 -0.04 -0.03 -0.05 -0.03 -0.04 -0.03 -0.05 -0.03 -0.04 -0.03 -0.05 -0.02 -0.05 -0.02 -0.05 -0.02 -0.06 -0.01 -0.05 -0.02 -0.06 -0.01 -0.05 0 -0.06 -0.01 -0.06 0 -0.05 0 0zm0.34 -12.42l0 12.42 -0.34 0 0 -12.42 0 0 0.34 0zm0.8 -1.13l0 0.33 0 0 -0.05 0.01 -0.03 0 -0.04 0 -0.05 0.01 -0.03 0.01 -0.04 0.01 -0.04 0.01 -0.04 0.02 -0.03 0.01 -0.03 0.02 -0.04 0.02 -0.03 0.02 -0.03 0.02 -0.03 0.03 -0.03 0.02 -0.03 0.03 -0.02 0.03 -0.03 0.03 -0.02 0.03 -0.03 0.03 -0.02 0.03 -0.02 0.03 -0.01 0.04 -0.02 0.03 -0.01 0.04 -0.02 0.04 -0.01 0.03 -0.01 0.04 0 0.04 -0.01 0.04 0 0.04 0 0.04 -0.34 0 0 -0.05 0.01 -0.06 0 -0.06 0.01 -0.05 0.02 -0.06 0.01 -0.05 0.02 -0.06 0.02 -0.05 0.02 -0.05 0.03 -0.05 0.02 -0.04 0.04 -0.05 0.03 -0.05 0.03 -0.04 0.03 -0.04 0.04 -0.04 0.04 -0.04 0.04 -0.03 0.05 -0.04 0.04 -0.03 0.05 -0.03 0.05 -0.02 0.04 -0.03 0.06 -0.02 0.05 -0.02 0.05 -0.02 0.05 -0.02 0.06 -0.01 0.05 -0.01 0.06 -0.01 0.06 0 0.06 0 0 0z"/>
  </g>
  <g>
   <path class="fil4" d="M28.56 24.1l5.96 0c0.18,0 0.33,0.15 0.33,0.34l0 3.07c0,0.19 -0.15,0.34 -0.33,0.34l-5.96 0c-0.19,0 -0.34,-0.15 -0.34,-0.34l0 -3.07c0,-0.19 0.15,-0.34 0.34,-0.34zm40.08 0l5.97 0c0.18,0 0.33,0.15 0.33,0.34l0 3.07c0,0.19 -0.15,0.34 -0.33,0.34l-5.97 0c-0.18,0 -0.33,-0.15 -0.33,-0.34l0 -3.07c0,-0.19 0.15,-0.34 0.33,-0.34zm-13.36 0l5.96 0c0.19,0 0.34,0.15 0.34,0.34l0 3.07c0,0.19 -0.15,0.34 -0.34,0.34l-5.96 0c-0.18,0 -0.33,-0.15 -0.33,-0.34l0 -3.07c0,-0.19 0.15,-0.34 0.33,-0.34zm-13.41 0l5.96 0c0.19,0 0.34,0.15 0.34,0.34l0 3.07c0,0.19 -0.15,0.34 -0.34,0.34l-5.96 0c-0.18,0 -0.34,-0.15 -0.34,-0.34l0 -3.07c0,-0.19 0.16,-0.34 0.34,-0.34z"/>
   <path id="1" class="fil1" d="M34.52 24.27l-5.96 0 0 -0.34 5.96 0 0 0 0 0.34zm0.5 0.17l-0.33 0 0 0 0 -0.02 0 0 -0.01 -0.01 0 -0.01 0 -0.01 0 -0.01 0 0 -0.01 -0.01 0 -0.01 0 0 -0.01 -0.01 -0.01 -0.01 0 -0.01 0 0 -0.01 -0.01 0 0 -0.01 -0.01 -0.01 -0.01 0 0 -0.01 0 -0.01 -0.01 -0.01 0 0 -0.01 -0.01 0 -0.01 0 0 0 -0.01 -0.01 -0.01 0 -0.01 0 -0.01 0 0 0 -0.01 0 0 -0.34 0.02 0 0.03 0 0.03 0.01 0.02 0 0.02 0.01 0.03 0 0.02 0.01 0.02 0.01 0.03 0.01 0.02 0.01 0.02 0.01 0.02 0.02 0.02 0.01 0.02 0.02 0.02 0.01 0.01 0.02 0.02 0.02 0.01 0.01 0.02 0.02 0.02 0.03 0.01 0.01 0.01 0.02 0.01 0.03 0.01 0.02 0.01 0.02 0.01 0.03 0.01 0.02 0 0.02 0.01 0.03 0 0.02 0 0.03 0 0.03 0 0zm-0.33 3.07l0 -3.07 0.33 0 0 3.07 0 0 -0.33 0zm-0.17 0.51l0 -0.34 0 0 0.01 0 0 0 0.01 0 0.01 0 0.01 -0.01 0.01 0 0 0 0.01 0 0.01 -0.01 0 0 0.01 0 0.01 -0.01 0.01 0 0 -0.01 0.01 0 0.01 -0.01 0 -0.01 0.01 0 0 -0.01 0 0 0.01 -0.01 0.01 -0.01 0 -0.01 0 0 0.01 -0.01 0 -0.01 0 -0.01 0 -0.01 0 -0.01 0.01 0 0 -0.01 0 -0.01 0.33 0 0 0.03 0 0.02 0 0.03 -0.01 0.02 0 0.03 -0.01 0.02 -0.01 0.03 -0.01 0.02 -0.01 0.02 -0.01 0.03 -0.01 0.01 -0.01 0.02 -0.02 0.02 -0.02 0.03 -0.01 0.01 -0.02 0.02 -0.01 0.02 -0.02 0.01 -0.02 0.02 -0.02 0.01 -0.02 0.01 -0.02 0.01 -0.02 0.02 -0.03 0.01 -0.02 0.01 -0.02 0 -0.03 0.01 -0.02 0.01 -0.02 0 -0.03 0 -0.03 0.01 -0.02 0 0 0zm-5.96 -0.34l5.96 0 0 0.34 -5.96 0 0 0 0 -0.34zm-0.51 -0.17l0.34 0 0 0 0 0.01 0 0.01 0 0 0 0.01 0 0.01 0.01 0.01 0 0.01 0 0.01 0 0 0.01 0.01 0 0.01 0.01 0.01 0 0 0.01 0.01 0 0 0.01 0.01 0 0.01 0.01 0 0.01 0.01 0 0 0.01 0.01 0.01 0 0 0 0.01 0.01 0.01 0 0 0 0.01 0 0.01 0.01 0.02 0 0 0 0 0 0.02 0 0 0.34 -0.03 0 -0.03 -0.01 -0.02 0 -0.03 0 -0.02 -0.01 -0.02 -0.01 -0.03 0 -0.02 -0.01 -0.02 -0.01 -0.03 -0.02 -0.02 -0.01 -0.01 -0.01 -0.03 -0.01 -0.02 -0.02 -0.01 -0.01 -0.02 -0.02 -0.02 -0.02 -0.01 -0.01 -0.02 -0.03 -0.01 -0.02 -0.01 -0.02 -0.02 -0.01 -0.01 -0.03 -0.01 -0.02 -0.01 -0.02 -0.01 -0.03 0 -0.02 -0.01 -0.03 0 -0.02 -0.01 -0.03 0 -0.02 0 -0.03 0 0zm0.34 -3.07l0 3.07 -0.34 0 0 -3.07 0 0 0.34 0zm0.17 -0.51l0 0.34 0 0 -0.02 0 0 0 0 0 -0.02 0 -0.01 0 -0.01 0.01 0 0 -0.01 0 -0.01 0 0 0.01 -0.01 0 -0.01 0.01 0 0 -0.01 0 -0.01 0.01 0 0.01 -0.01 0 0 0.01 -0.01 0 0 0.01 -0.01 0.01 0 0.01 -0.01 0 0 0.01 0 0.01 0 0 -0.01 0.01 0 0.01 0 0.01 0 0.01 0 0 0 0.02 -0.34 0 0 -0.03 0 -0.03 0.01 -0.02 0 -0.03 0.01 -0.02 0 -0.02 0.01 -0.03 0.01 -0.02 0.01 -0.02 0.01 -0.03 0.02 -0.02 0.01 -0.01 0.01 -0.03 0.02 -0.02 0.01 -0.01 0.02 -0.02 0.02 -0.02 0.01 -0.01 0.02 -0.02 0.03 -0.01 0.01 -0.02 0.02 -0.01 0.03 -0.01 0.02 -0.01 0.02 -0.01 0.03 -0.01 0.02 0 0.02 -0.01 0.03 0 0.02 -0.01 0.03 0 0.03 0 0 0zm46.05 0.34l-5.97 0 0 -0.34 5.97 0 0 0 0 0.34zm0.5 0.17l-0.34 0 0 0 0 -0.02 0 0 0 -0.01 0 -0.01 0 -0.01 0 -0.01 -0.01 0 0 -0.01 0 -0.01 -0.01 0 0 -0.01 -0.01 -0.01 0 -0.01 0 0 -0.01 -0.01 -0.01 0 0 -0.01 -0.01 -0.01 0 0 -0.01 0 -0.01 -0.01 -0.01 0 0 -0.01 -0.01 0 -0.01 0 0 0 -0.01 -0.01 -0.01 0 -0.01 0 -0.01 0 0 0 -0.01 0 0 -0.34 0.02 0 0.03 0 0.03 0.01 0.02 0 0.02 0.01 0.02 0 0.03 0.01 0.02 0.01 0.02 0.01 0.03 0.01 0.02 0.01 0.01 0.02 0.03 0.01 0.02 0.02 0.01 0.01 0.02 0.02 0.02 0.02 0.01 0.01 0.02 0.02 0.02 0.03 0.01 0.01 0.01 0.02 0.01 0.03 0.01 0.02 0.01 0.02 0.01 0.03 0.01 0.02 0 0.02 0 0.03 0.01 0.02 0 0.03 0 0.03 0 0zm-0.34 3.07l0 -3.07 0.34 0 0 3.07 0 0 -0.34 0zm-0.16 0.51l0 -0.34 0 0 0.01 0 0 0 0.01 0 0.01 0 0.01 -0.01 0.01 0 0 0 0.01 0 0.01 -0.01 0 0 0.01 0 0.01 -0.01 0.01 0 0 -0.01 0.01 0 0 -0.01 0.01 -0.01 0.01 0 0 -0.01 0 0 0.01 -0.01 0 -0.01 0.01 -0.01 0 0 0 -0.01 0.01 -0.01 0 -0.01 0 -0.01 0 -0.01 0 0 0 -0.01 0 -0.01 0.34 0 0 0.03 0 0.02 -0.01 0.03 0 0.02 0 0.03 -0.01 0.02 -0.01 0.03 -0.01 0.02 -0.01 0.02 -0.01 0.03 -0.01 0.01 -0.01 0.02 -0.02 0.02 -0.02 0.03 -0.01 0.01 -0.02 0.02 -0.02 0.02 -0.01 0.01 -0.02 0.02 -0.03 0.01 -0.01 0.01 -0.02 0.01 -0.03 0.02 -0.02 0.01 -0.02 0.01 -0.03 0 -0.02 0.01 -0.02 0.01 -0.02 0 -0.03 0 -0.03 0.01 -0.02 0 0 0zm-5.97 -0.34l5.97 0 0 0.34 -5.97 0 0 0 0 -0.34zm-0.5 -0.17l0.34 0 0 0 0 0.01 0 0.01 0 0 0 0.01 0 0.01 0.01 0.01 0 0.01 0 0.01 0 0 0.01 0.01 0 0 0.01 0.01 0.01 0.02 0 0 0 0 0 0.01 0.01 0.01 0.01 0 0.01 0.01 0 0 0.01 0.01 0.01 0 0 0 0.01 0.01 0.01 0 0 0 0.01 0 0.01 0.01 0.01 0 0.01 0 0 0 0.01 0 0 0.34 -0.02 0 -0.03 -0.01 -0.03 0 -0.02 0 -0.02 -0.01 -0.02 -0.01 -0.03 0 -0.02 -0.01 -0.02 -0.01 -0.03 -0.02 -0.02 -0.01 -0.02 -0.01 -0.02 -0.02 -0.02 -0.01 -0.01 -0.01 -0.02 -0.02 -0.02 -0.02 -0.01 -0.02 -0.02 -0.02 -0.01 -0.01 -0.01 -0.02 -0.02 -0.03 -0.01 -0.02 -0.01 -0.02 -0.01 -0.03 -0.01 -0.02 0 -0.02 -0.01 -0.03 0 -0.02 -0.01 -0.03 0 -0.02 0 -0.03 0 0zm0.34 -3.07l0 3.07 -0.34 0 0 -3.07 0 0 0.34 0zm0.16 -0.51l0 0.34 0 0 -0.01 0 0 0 -0.01 0 -0.01 0 -0.01 0 -0.01 0.01 0 0 -0.01 0 -0.01 0 0 0.01 -0.01 0 -0.01 0.01 0 0 -0.01 0 -0.01 0.01 -0.01 0.01 0 0.01 0 0 0 0 -0.01 0.01 -0.01 0.01 0 0.01 -0.01 0 0 0.01 0 0.01 0 0 -0.01 0.01 0 0.01 0 0.01 0 0.01 0 0 0 0.02 -0.34 0 0 -0.03 0 -0.03 0.01 -0.02 0 -0.03 0.01 -0.02 0 -0.02 0.01 -0.03 0.01 -0.02 0.01 -0.02 0.01 -0.02 0.02 -0.03 0.01 -0.02 0.01 -0.01 0.02 -0.02 0.01 -0.03 0.02 -0.01 0.02 -0.02 0.01 -0.01 0.02 -0.02 0.02 -0.01 0.02 -0.02 0.02 -0.01 0.03 -0.01 0.02 -0.01 0.02 -0.01 0.03 -0.01 0.02 0 0.02 -0.01 0.02 0 0.03 -0.01 0.03 0 0.02 0 0 0zm-7.4 0.34l-5.96 0 0 -0.34 5.96 0 0 0 0 0.34zm0.51 0.17l-0.34 0 0 0 0 -0.02 0 0 0 -0.01 0 -0.01 -0.01 -0.01 0 -0.01 0 0 0 -0.01 -0.01 -0.01 0 0 0 -0.01 -0.01 -0.01 -0.01 -0.01 0 0 0 0 -0.01 -0.01 -0.01 -0.01 0 -0.01 -0.01 0 -0.01 0 0 -0.01 -0.01 0 -0.01 -0.01 0 0 -0.01 0 -0.01 0 0 -0.01 -0.02 0 -0.01 0 0 0 -0.01 0 -0.01 0 0 -0.34 0.03 0 0.02 0 0.03 0.01 0.03 0 0.02 0.01 0.02 0 0.03 0.01 0.02 0.01 0.02 0.01 0.03 0.01 0.01 0.01 0.03 0.02 0.02 0.01 0.02 0.02 0.01 0.01 0.02 0.02 0.01 0.01 0.02 0.03 0.02 0.02 0.01 0.01 0.01 0.02 0.02 0.03 0.01 0.02 0.01 0.02 0.01 0.02 0 0.03 0.01 0.02 0.01 0.02 0 0.03 0 0.02 0.01 0.03 0 0.03 0 0zm-0.34 3.07l0 -3.07 0.34 0 0 3.07 0 0 -0.34 0zm-0.17 0.51l0 -0.34 0 0 0.01 0 0.01 0 0 0 0.01 0 0.02 -0.01 0 0 0.01 0 0.01 0 0 -0.01 0.01 0 0.01 0 0 -0.01 0.01 0 0.01 -0.01 0 0 0.01 -0.01 0.01 -0.01 0 0 0 0 0.01 -0.02 0.01 -0.01 0 0 0 -0.01 0.01 0 0 -0.01 0 -0.01 0 -0.01 0.01 -0.01 0 -0.01 0 0 0 -0.01 0 -0.01 0.34 0 0 0.03 -0.01 0.02 0 0.03 0 0.02 -0.01 0.03 -0.01 0.02 0 0.02 -0.01 0.03 -0.01 0.02 -0.01 0.02 -0.02 0.03 -0.01 0.02 -0.01 0.01 -0.02 0.02 -0.02 0.02 -0.01 0.02 -0.02 0.02 -0.01 0.01 -0.02 0.01 -0.02 0.02 -0.03 0.01 -0.01 0.01 -0.03 0.02 -0.02 0.01 -0.02 0.01 -0.03 0 -0.02 0.01 -0.02 0.01 -0.03 0 -0.03 0 -0.02 0.01 -0.03 0 0 0zm-5.96 -0.34l5.96 0 0 0.34 -5.96 0 0 0 0 -0.34zm-0.5 -0.17l0.33 0 0 0 0 0.01 0 0.01 0.01 0 0 0.01 0 0.01 0 0.01 0 0.01 0.01 0.01 0 0 0 0.01 0.01 0.01 0 0.01 0.01 0 0 0.01 0.01 0 0 0.01 0.01 0.01 0.01 0 0 0.01 0.01 0 0.01 0.01 0.01 0 0 0 0.01 0.01 0.01 0 0 0 0.01 0 0.01 0.01 0.01 0 0.01 0 0 0 0.01 0 0 0.34 -0.02 0 -0.03 -0.01 -0.03 0 -0.02 0 -0.02 -0.01 -0.03 -0.01 -0.02 0 -0.02 -0.01 -0.03 -0.01 -0.02 -0.02 -0.02 -0.01 -0.02 -0.01 -0.02 -0.01 -0.02 -0.02 -0.02 -0.01 -0.01 -0.02 -0.02 -0.02 -0.02 -0.01 -0.01 -0.03 -0.02 -0.02 -0.01 -0.02 -0.01 -0.01 -0.01 -0.03 -0.01 -0.02 -0.01 -0.02 -0.01 -0.03 -0.01 -0.02 0 -0.03 -0.01 -0.02 0 -0.03 0 -0.02 0 -0.03 0 0zm0.33 -3.07l0 3.07 -0.33 0 0 -3.07 0 0 0.33 0zm0.17 -0.51l0 0.34 0 0 -0.01 0 0 0 -0.01 0 -0.01 0 -0.01 0 -0.01 0.01 0 0 -0.01 0 -0.01 0 0 0.01 -0.01 0 -0.01 0.01 -0.01 0 0 0 -0.01 0.01 -0.01 0.01 0 0 -0.01 0.01 0 0 -0.01 0.01 0 0.01 -0.01 0.01 0 0 0 0.01 -0.01 0.01 0 0 0 0.01 0 0.01 0 0.01 -0.01 0.01 0 0 0 0.02 -0.33 0 0 -0.03 0 -0.03 0 -0.02 0.01 -0.03 0 -0.02 0.01 -0.02 0.01 -0.03 0.01 -0.02 0.01 -0.02 0.01 -0.03 0.01 -0.02 0.01 -0.01 0.02 -0.03 0.01 -0.02 0.02 -0.01 0.02 -0.02 0.01 -0.02 0.02 -0.01 0.02 -0.02 0.02 -0.01 0.02 -0.02 0.02 -0.01 0.02 -0.01 0.03 -0.01 0.02 -0.01 0.02 -0.01 0.03 0 0.02 -0.01 0.02 0 0.03 -0.01 0.03 0 0.02 0 0 0zm-7.45 0.34l-5.96 0 0 -0.34 5.96 0 0 0 0 0.34zm0.51 0.17l-0.34 0 0 0 0 -0.02 0 0 0 -0.01 0 -0.01 -0.01 -0.01 0 -0.01 0 0 0 -0.01 -0.01 -0.01 0 0 0 -0.01 -0.01 -0.01 -0.01 -0.01 0 0 0 0 -0.01 -0.01 -0.01 -0.01 0 -0.01 -0.01 0 -0.01 0 0 -0.01 -0.01 0 -0.01 -0.01 -0.01 0 0 0 -0.01 0 -0.01 -0.01 -0.01 0 -0.01 0 0 0 -0.01 0 -0.01 0 0 -0.34 0.03 0 0.02 0 0.03 0.01 0.02 0 0.03 0.01 0.02 0 0.03 0.01 0.02 0.01 0.02 0.01 0.02 0.01 0.02 0.01 0.02 0.02 0.03 0.01 0.01 0.02 0.02 0.01 0.02 0.02 0.01 0.01 0.02 0.03 0.02 0.02 0.01 0.01 0.01 0.02 0.02 0.03 0.01 0.02 0.01 0.02 0.01 0.02 0 0.03 0.01 0.02 0.01 0.02 0 0.03 0 0.02 0.01 0.03 0 0.03 0 0zm-0.34 3.07l0 -3.07 0.34 0 0 3.07 0 0 -0.34 0zm-0.17 0.51l0 -0.34 0 0 0.01 0 0.01 0 0 0 0.01 0 0.01 -0.01 0.01 0 0.01 0 0 0 0.01 -0.01 0.01 0 0.01 0 0 -0.01 0.01 0 0.01 -0.01 0 0 0.01 -0.01 0.01 -0.01 0 0 0 0 0.01 -0.02 0.01 -0.01 0 0 0 -0.01 0.01 0 0 -0.01 0 -0.01 0 -0.01 0.01 -0.01 0 -0.01 0 0 0 -0.01 0 -0.01 0.34 0 0 0.03 -0.01 0.02 0 0.03 0 0.02 -0.01 0.03 -0.01 0.02 0 0.02 -0.01 0.03 -0.01 0.02 -0.01 0.02 -0.02 0.03 -0.01 0.02 -0.01 0.01 -0.02 0.02 -0.02 0.02 -0.01 0.02 -0.02 0.02 -0.02 0.01 -0.01 0.01 -0.03 0.02 -0.02 0.01 -0.02 0.01 -0.02 0.02 -0.02 0.01 -0.02 0.01 -0.03 0 -0.02 0.01 -0.03 0.01 -0.02 0 -0.03 0 -0.02 0.01 -0.03 0 0 0zm-5.96 -0.34l5.96 0 0 0.34 -5.96 0 0 0 0 -0.34zm-0.5 -0.17l0.33 0 0 0 0 0.01 0 0.01 0 0 0.01 0.01 0 0.01 0 0.01 0 0.01 0.01 0.01 0 0 0 0.01 0.01 0.01 0 0.01 0.01 0 0 0.01 0.01 0 0 0.01 0.01 0.01 0.01 0 0 0.01 0.01 0 0 0.01 0.02 0 0 0 0.01 0.01 0.01 0 0 0 0.01 0 0.01 0.01 0.01 0 0.01 0 0 0 0.01 0 0 0.34 -0.02 0 -0.03 -0.01 -0.03 0 -0.02 0 -0.02 -0.01 -0.03 -0.01 -0.02 0 -0.02 -0.01 -0.03 -0.01 -0.02 -0.02 -0.02 -0.01 -0.02 -0.01 -0.02 -0.01 -0.02 -0.02 -0.02 -0.01 -0.02 -0.02 -0.01 -0.02 -0.02 -0.01 -0.01 -0.03 -0.02 -0.02 -0.01 -0.02 -0.01 -0.01 -0.01 -0.03 -0.01 -0.02 -0.01 -0.02 -0.01 -0.03 -0.01 -0.02 0 -0.03 -0.01 -0.02 0 -0.03 0 -0.02 0 -0.03 0 0zm0.33 -3.07l0 3.07 -0.33 0 0 -3.07 0 0 0.33 0zm0.17 -0.51l0 0.34 0 0 -0.01 0 0 0 -0.01 0 -0.01 0 -0.01 0 -0.01 0.01 0 0 -0.01 0 -0.01 0 0 0.01 -0.02 0 0 0.01 -0.01 0 0 0 -0.01 0.01 -0.01 0.01 0 0 -0.01 0.01 0 0 -0.01 0.01 0 0.01 -0.01 0.01 0 0 0 0.01 -0.01 0.01 0 0 0 0.01 0 0.01 -0.01 0.01 0 0.01 0 0 0 0.02 -0.33 0 0 -0.03 0 -0.03 0 -0.02 0.01 -0.03 0 -0.02 0.01 -0.02 0.01 -0.03 0.01 -0.02 0.01 -0.02 0.01 -0.03 0.01 -0.02 0.01 -0.01 0.02 -0.03 0.01 -0.02 0.02 -0.01 0.01 -0.02 0.02 -0.02 0.02 -0.01 0.02 -0.02 0.02 -0.01 0.02 -0.02 0.02 -0.01 0.02 -0.01 0.03 -0.01 0.02 -0.01 0.02 -0.01 0.03 0 0.02 -0.01 0.02 0 0.03 -0.01 0.03 0 0.02 0 0 0z"/>
  </g>
  <g>
   <path class="fil5" d="M40.07 11.42l21.81 0c0.53,0 0.97,0.44 0.97,0.97l0 12.41c0,0.54 -0.44,0.97 -0.97,0.97l-21.81 0c-0.54,0 -0.97,-0.43 -0.97,-0.97l0 -12.41c0,-0.53 0.43,-0.97 0.97,-0.97z"/>
   <path id="1" class="fil1" d="M61.88 11.59l-21.81 0 0 -0.33 21.81 0 0 0 0 0.33zm1.14 0.8l-0.34 0 0 0 0 -0.04 0 -0.04 -0.01 -0.04 -0.01 -0.04 -0.01 -0.04 -0.01 -0.03 -0.01 -0.04 -0.01 -0.04 -0.02 -0.03 -0.02 -0.04 -0.02 -0.03 -0.02 -0.03 -0.02 -0.03 -0.02 -0.04 -0.03 -0.03 -0.02 -0.02 -0.03 -0.03 -0.03 -0.02 -0.03 -0.03 -0.03 -0.02 -0.04 -0.02 -0.03 -0.02 -0.03 -0.02 -0.04 -0.01 -0.04 -0.02 -0.03 -0.01 -0.04 -0.01 -0.04 -0.01 -0.04 -0.01 -0.04 0 -0.04 -0.01 -0.04 0 0 -0.33 0.06 0 0.06 0 0.05 0.01 0.06 0.01 0.05 0.01 0.06 0.02 0.05 0.02 0.05 0.02 0.05 0.02 0.05 0.02 0.05 0.03 0.05 0.03 0.04 0.03 0.04 0.03 0.04 0.04 0.04 0.04 0.04 0.04 0.04 0.04 0.03 0.04 0.03 0.04 0.03 0.05 0.03 0.05 0.02 0.05 0.03 0.05 0.02 0.05 0.02 0.05 0.01 0.06 0.01 0.05 0.01 0.06 0.01 0.05 0.01 0.06 0 0.06 0 0zm-0.34 12.41l0 -12.41 0.34 0 0 12.41 0 0 -0.34 0zm-0.8 1.14l0 -0.34 0 0 0.04 0 0.04 0 0.04 -0.01 0.04 0 0.04 -0.01 0.04 -0.01 0.03 -0.02 0.04 -0.01 0.04 -0.02 0.03 -0.02 0.03 -0.01 0.04 -0.02 0.03 -0.03 0.03 -0.02 0.03 -0.03 0.03 -0.02 0.02 -0.03 0.03 -0.03 0.02 -0.03 0.02 -0.03 0.02 -0.03 0.02 -0.04 0.02 -0.03 0.02 -0.04 0.01 -0.03 0.01 -0.04 0.01 -0.04 0.01 -0.04 0.01 -0.04 0.01 -0.04 0 -0.04 0 -0.04 0.34 0 0 0.06 -0.01 0.06 -0.01 0.06 -0.01 0.05 -0.01 0.06 -0.01 0.05 -0.02 0.05 -0.02 0.05 -0.03 0.06 -0.02 0.04 -0.03 0.05 -0.03 0.05 -0.03 0.04 -0.03 0.04 -0.04 0.05 -0.04 0.03 -0.04 0.04 -0.04 0.04 -0.04 0.03 -0.04 0.03 -0.05 0.04 -0.05 0.02 -0.05 0.03 -0.05 0.02 -0.05 0.02 -0.05 0.02 -0.06 0.01 -0.05 0.02 -0.06 0.01 -0.05 0 -0.06 0.01 -0.06 0 0 0zm-21.81 -0.34l21.81 0 0 0.34 -21.81 0 0 0 0 -0.34zm-1.14 -0.8l0.34 0 0 0 0 0.04 0 0.05 0 0.03 0.01 0.04 0.01 0.04 0.01 0.04 0.01 0.04 0.02 0.03 0.02 0.04 0.01 0.03 0.02 0.04 0.02 0.03 0.03 0.03 0.02 0.03 0.03 0.03 0.02 0.03 0.03 0.03 0.03 0.02 0.03 0.02 0.03 0.03 0.03 0.02 0.03 0.01 0.04 0.02 0.04 0.02 0.03 0.01 0.04 0.02 0.03 0.01 0.04 0.01 0.04 0 0.04 0.01 0.04 0 0.05 0 0 0.34 -0.06 0 -0.06 -0.01 -0.06 0 -0.05 -0.01 -0.06 -0.02 -0.05 -0.01 -0.06 -0.02 -0.05 -0.02 -0.05 -0.02 -0.05 -0.03 -0.04 -0.03 -0.05 -0.03 -0.04 -0.03 -0.05 -0.03 -0.04 -0.04 -0.04 -0.04 -0.03 -0.03 -0.04 -0.05 -0.03 -0.04 -0.03 -0.04 -0.04 -0.05 -0.02 -0.05 -0.03 -0.05 -0.02 -0.05 -0.02 -0.05 -0.02 -0.05 -0.01 -0.05 -0.02 -0.06 -0.01 -0.05 -0.01 -0.06 0 -0.06 0 -0.06 0 0zm0.34 -12.41l0 12.41 -0.34 0 0 -12.41 0 0 0.34 0zm0.8 -1.13l0 0.33 0 0 -0.05 0 -0.04 0.01 -0.04 0 -0.03 0.01 -0.05 0.01 -0.03 0.01 -0.04 0.01 -0.03 0.02 -0.04 0.01 -0.04 0.02 -0.03 0.02 -0.03 0.02 -0.03 0.02 -0.03 0.02 -0.03 0.03 -0.03 0.03 -0.02 0.03 -0.03 0.02 -0.02 0.03 -0.03 0.04 -0.02 0.03 -0.02 0.03 -0.01 0.03 -0.02 0.04 -0.02 0.04 -0.01 0.03 -0.01 0.04 -0.01 0.04 -0.01 0.04 0 0.04 0 0.04 0 0.04 -0.34 0 0 -0.06 0 -0.05 0.01 -0.06 0.01 -0.06 0.02 -0.05 0.01 -0.06 0.02 -0.05 0.02 -0.05 0.02 -0.05 0.03 -0.05 0.03 -0.05 0.03 -0.04 0.03 -0.05 0.03 -0.04 0.04 -0.04 0.03 -0.04 0.04 -0.04 0.04 -0.03 0.05 -0.04 0.04 -0.03 0.05 -0.03 0.04 -0.03 0.06 -0.02 0.04 -0.02 0.05 -0.02 0.06 -0.02 0.05 -0.02 0.06 -0.01 0.05 -0.01 0.06 -0.01 0.06 0 0.06 0 0 0z"/>
  </g>
  <g>
   <path class="fil5" d="M41.37 8.47l5.97 0c0.18,0 0.33,0.15 0.33,0.33l0 3.08c0,0.18 -0.15,0.34 -0.33,0.34l-5.97 0c-0.18,0 -0.33,-0.16 -0.33,-0.34l0 -3.08c0,-0.18 0.15,-0.33 0.33,-0.33zm13.32 0l5.96 0c0.19,0 0.34,0.15 0.34,0.33l0 3.08c0,0.18 -0.15,0.34 -0.34,0.34l-5.96 0c-0.18,0 -0.34,-0.16 -0.34,-0.34l0 -3.08c0,-0.18 0.16,-0.33 0.34,-0.33z"/>
   <path id="1" class="fil1" d="M47.34 8.64l-5.97 0 0 -0.34 5.97 0 0 0 0 0.34zm0.5 0.16l-0.34 0 0 0 0 -0.01 0 0 0 -0.01 0 -0.01 0 -0.01 0 -0.01 -0.01 -0.01 0 0 0 0 -0.01 -0.02 0 -0.01 0 0 -0.01 -0.01 -0.01 0 0 -0.01 -0.01 -0.01 -0.01 0 0 -0.01 0 0 -0.01 -0.01 -0.01 0 0 0 -0.02 -0.01 0 0 0 0 -0.01 -0.01 -0.01 0 -0.01 0 -0.01 0 -0.01 0 0 0 -0.01 0 0 -0.34 0.02 0 0.03 0 0.03 0 0.02 0.01 0.02 0 0.02 0.01 0.03 0.01 0.02 0.01 0.03 0.01 0.02 0.01 0.01 0.01 0.03 0.02 0.02 0.01 0.02 0.01 0.02 0.02 0.01 0.02 0.02 0.01 0.02 0.02 0.01 0.02 0.01 0.02 0.02 0.02 0.01 0.02 0.01 0.02 0.01 0.03 0.01 0.02 0.01 0.03 0.01 0.02 0 0.02 0 0.02 0.01 0.03 0 0.03 0 0.02 0 0zm-0.34 3.08l0 -3.08 0.34 0 0 3.08 0 0 -0.34 0zm-0.16 0.5l0 -0.33 0 0 0.01 0 0 0 0.01 0 0.01 -0.01 0.01 0 0.01 0 0.01 0 0 -0.01 0.01 0 0.01 0 0 -0.01 0.01 0 0.01 -0.01 0 0 0 0 0.01 -0.01 0.01 -0.01 0 0 0.01 -0.01 0.01 -0.01 0 0 0 -0.01 0.01 -0.01 0 -0.01 0 0 0.01 -0.01 0 -0.01 0 -0.01 0 -0.01 0 0 0 -0.01 0 -0.01 0.34 0 0 0.02 0 0.03 -0.01 0.03 0 0.02 0 0.02 -0.01 0.03 -0.01 0.02 -0.01 0.03 -0.01 0.02 -0.01 0.02 -0.01 0.02 -0.02 0.03 -0.01 0.01 -0.01 0.02 -0.02 0.02 -0.02 0.02 -0.01 0.01 -0.02 0.02 -0.02 0.01 -0.02 0.02 -0.02 0.01 -0.02 0.01 -0.03 0.01 -0.02 0.01 -0.02 0.01 -0.03 0.01 -0.02 0.01 -0.02 0 -0.02 0.01 -0.03 0 -0.03 0 -0.02 0 0 0zm-5.97 -0.33l5.97 0 0 0.33 -5.97 0 0 0 0 -0.33zm-0.5 -0.17l0.34 0 0 0 0 0.01 0 0.01 0 0 0 0.01 0 0.01 0.01 0.01 0 0.01 0 0 0 0.01 0.01 0.01 0 0 0 0.01 0.01 0.01 0.01 0.01 0 0 0.01 0.01 0.01 0.01 0 0 0 0 0.02 0.01 0 0.01 0 0 0.01 0 0.01 0.01 0 0 0.01 0 0.01 0 0.01 0 0.01 0.01 0.01 0 0 0 0.01 0 0 0.33 -0.02 0 -0.03 0 -0.03 0 -0.02 -0.01 -0.02 0 -0.02 -0.01 -0.03 -0.01 -0.02 -0.01 -0.02 -0.01 -0.02 -0.01 -0.03 -0.01 -0.02 -0.02 -0.01 -0.01 -0.02 -0.01 -0.03 -0.02 -0.01 -0.01 -0.02 -0.02 -0.02 -0.02 -0.01 -0.02 -0.01 -0.01 -0.01 -0.02 -0.02 -0.03 -0.01 -0.02 -0.01 -0.02 -0.01 -0.03 -0.01 -0.02 0 -0.03 -0.01 -0.02 0 -0.02 -0.01 -0.03 0 -0.03 0 -0.02 0 0zm0.34 -3.08l0 3.08 -0.34 0 0 -3.08 0 0 0.34 0zm0.16 -0.5l0 0.34 0 0 -0.01 0 0 0 -0.01 0 -0.01 0 -0.01 0 -0.01 0 -0.01 0.01 0 0 0 0 -0.02 0.01 0 0 0 0 -0.02 0.01 0 0 0 0.01 -0.01 0 -0.01 0.01 0 0.01 -0.01 0 0 0.01 -0.01 0.01 0 0 -0.01 0.01 0 0.01 0 0 0 0.01 -0.01 0.01 0 0.01 0 0.01 0 0.01 0 0 0 0.01 -0.34 0 0 -0.02 0 -0.03 0.01 -0.03 0 -0.02 0.01 -0.02 0 -0.02 0.01 -0.03 0.01 -0.02 0.01 -0.03 0.01 -0.02 0.01 -0.02 0.02 -0.02 0.01 -0.02 0.01 -0.02 0.02 -0.02 0.02 -0.01 0.01 -0.02 0.03 -0.02 0.02 -0.01 0.01 -0.01 0.02 -0.02 0.03 -0.01 0.01 -0.01 0.03 -0.01 0.02 -0.01 0.03 -0.01 0.02 -0.01 0.02 0 0.02 -0.01 0.03 0 0.03 0 0.02 0 0 0zm19.28 0.34l-5.96 0 0 -0.34 5.96 0 0 0 0 0.34zm0.51 0.16l-0.34 0 0 0 0 -0.01 0 0 0 -0.01 0 -0.01 -0.01 -0.01 0 -0.01 0 0 -0.01 -0.01 0 -0.01 0 0 -0.01 -0.02 0 0 0 0 -0.01 -0.01 -0.01 -0.01 0 -0.01 -0.01 0 0 -0.01 0 0 -0.02 -0.01 0 0 -0.01 0 -0.01 -0.01 0 0 -0.01 0 -0.01 -0.01 -0.01 0 -0.01 0 -0.01 0 0 0 -0.01 0 -0.01 0 0 -0.34 0.02 0 0.03 0 0.03 0 0.02 0.01 0.03 0 0.02 0.01 0.02 0.01 0.03 0.01 0.02 0.01 0.02 0.01 0.02 0.01 0.02 0.02 0.02 0 0.02 0.02 0.02 0.02 0.02 0.02 0.01 0.01 0.02 0.02 0.01 0.02 0.02 0.02 0.01 0.02 0.01 0.02 0.02 0.02 0.01 0.03 0.01 0.02 0 0.03 0.01 0.02 0.01 0.02 0 0.02 0 0.03 0.01 0.03 0 0.02 0 0zm-0.34 3.08l0 -3.08 0.34 0 0 3.08 0 0 -0.34 0zm-0.17 0.5l0 -0.33 0 0 0.01 0 0.01 0 0 0 0.01 -0.01 0.01 0 0.01 0 0.01 0 0.01 -0.01 0 0 0.01 0 0 0 0.01 -0.01 0.02 -0.01 0 0 0 0 0.01 -0.01 0 -0.01 0.01 -0.01 0.01 0 0 -0.01 0 0 0.01 -0.01 0 -0.01 0.01 -0.01 0 0 0 -0.01 0 -0.01 0.01 -0.01 0 -0.01 0 0 0 -0.01 0 -0.01 0.34 0 0 0.02 -0.01 0.03 0 0.03 0 0.02 -0.01 0.02 -0.01 0.03 0 0.03 -0.02 0.02 0 0.02 -0.02 0.02 -0.01 0.02 -0.01 0.02 -0.02 0.02 -0.01 0.02 -0.02 0.02 -0.01 0.01 -0.02 0.02 -0.02 0.02 -0.02 0.02 -0.02 0.01 -0.01 0.01 -0.03 0.01 -0.02 0.01 -0.02 0.01 -0.03 0.01 -0.02 0.01 -0.02 0.01 -0.03 0 -0.02 0.01 -0.03 0 -0.03 0 -0.02 0 0 0zm-5.96 -0.33l5.96 0 0 0.33 -5.96 0 0 0 0 -0.33zm-0.51 -0.17l0.34 0 0 0 0 0.01 0 0.01 0 0 0.01 0.01 0 0.01 0 0.01 0 0.01 0 0 0.01 0.01 0 0.01 0.01 0.01 0 0 0 0.01 0.01 0 0.01 0.01 0 0.01 0.01 0.01 0 0 0.01 0 0.01 0.01 0.01 0.01 0 0 0.01 0 0.01 0 0 0.01 0.01 0 0.01 0 0.01 0 0.01 0.01 0 0 0.01 0 0.01 0 0 0.33 -0.02 0 -0.03 0 -0.03 0 -0.02 -0.01 -0.02 0 -0.03 -0.01 -0.02 -0.01 -0.03 -0.01 -0.02 -0.01 -0.02 -0.01 -0.03 -0.01 -0.01 -0.01 -0.02 -0.01 -0.02 -0.02 -0.02 -0.02 -0.02 -0.02 -0.01 -0.01 -0.02 -0.02 -0.01 -0.02 -0.02 -0.02 -0.01 -0.02 -0.01 -0.02 -0.02 -0.02 0 -0.02 -0.01 -0.02 -0.01 -0.03 -0.01 -0.03 0 -0.02 -0.01 -0.02 0 -0.03 -0.01 -0.03 0 -0.02 0 0zm0.34 -3.08l0 3.08 -0.34 0 0 -3.08 0 0 0.34 0zm0.17 -0.5l0 0.34 0 0 -0.01 0 -0.01 0 0 0 -0.01 0 -0.01 0 -0.01 0 -0.01 0.01 0 0 -0.01 0 -0.01 0.01 -0.01 0 0 0 -0.01 0.01 -0.01 0 0 0.01 -0.01 0 0 0.01 -0.01 0.01 -0.01 0.01 0 0 0 0 -0.01 0.02 0 0 0 0.01 -0.01 0.01 0 0 0 0.01 0 0.01 -0.01 0.01 0 0.01 0 0 0 0.01 -0.34 0 0 -0.02 0.01 -0.03 0 -0.03 0.01 -0.02 0 -0.02 0.01 -0.02 0.01 -0.03 0 -0.02 0.01 -0.03 0.02 -0.02 0.01 -0.02 0.01 -0.02 0.02 -0.02 0.01 -0.02 0.02 -0.02 0.01 -0.01 0.02 -0.02 0.02 -0.02 0.02 -0.02 0.02 0 0.02 -0.02 0.02 -0.01 0.02 -0.01 0.02 -0.01 0.03 -0.01 0.02 -0.01 0.03 -0.01 0.02 0 0.02 -0.01 0.03 0 0.03 0 0.02 0 0 0z"/>
  </g>
 </g>
</svg>
