<?xml version="1.0" encoding="UTF-8"?>
<!DOCTYPE svg PUBLIC "-//W3C//DTD SVG 1.1//EN" "http://www.w3.org/Graphics/SVG/1.1/DTD/svg11.dtd">
<!-- Creator: CorelDRAW 2018 (64-Bit) -->
<svg xmlns="http://www.w3.org/2000/svg" xml:space="preserve" width="46px" height="70px" version="1.1" style="shape-rendering:geometricPrecision; text-rendering:geometricPrecision; image-rendering:optimizeQuality; fill-rule:evenodd; clip-rule:evenodd"
viewBox="0 0 46.4 71.13"
 xmlns:xlink="http://www.w3.org/1999/xlink">
 <defs>
  <style type="text/css">
   <![CDATA[
    .fil6 {fill:#FEFEFE}
    .fil4 {fill:#2B2A29}
    .fil3 {fill:#F5B2B6}
    .fil2 {fill:#F08BB2}
    .fil5 {fill:#C4D985}
    .fil0 {fill:#A1B567}
    .fil1 {fill:#2B2A29;fill-rule:nonzero}
   ]]>
  </style>
 </defs>
 <g id="Слой_x0020_1">
  <metadata id="CorelCorpID_0Corel-Layer"/>
  <g>
   <path class="fil0" d="M31.54 24.85c-2.78,0 0,0 0,0zm0.36 7.83c2.88,0.78 7.23,6.9 7.23,8.13 0,1.81 1.58,3.27 3.53,3.27 1.95,0 3.53,-1.46 3.53,-3.27 0.77,-6.66 -12.69,-15.96 -14.65,-15.96l-16.69 0.24c-1.95,0 -15.42,9.3 -14.65,15.96 0,1.81 1.58,3.27 3.54,3.27 1.95,0 3.53,-1.46 3.53,-3.27 0,-1.01 3.45,-5.54 6.28,-7.55 -2.56,4.15 -5.09,11.07 -5.09,14.33 -0.97,6.82 1.96,23.12 5.72,23.12 6.89,0 6.34,-3.42 4.88,-7.68 -1.14,-3.31 2.13,-6.88 4.62,-6.89 2.12,-0.02 3.32,1.83 3.96,5.23 0.67,3.59 -5.11,9.8 4.54,8.92 6.52,-2.4 5.93,-19.71 5.93,-23.17 0,-3.45 -2.48,-10.83 -6.21,-14.68zm-17.05 -7.59c0,0 0,0 0,0z"/>
   <path id="1" class="fil1" d="M31.54 25.02l0 -0.34 0 0.34 0 0 -0.03 0 -0.03 0 -0.05 0 -0.06 0 -0.06 0 -0.08 0 -0.08 0 -0.08 0 -0.09 0 -0.08 0 -0.09 0 -0.08 0 -0.08 0 -0.08 0 -0.07 0 -0.06 0 -0.05 0 -0.04 0 -0.03 0 -0.01 0 0 -0.34 0.02 0 0.04 0 0.06 0 0.08 0 0.11 0 0.12 0 0.16 0 0.18 0 0.22 0 0.24 0 0 0.34 -0.24 0 -0.22 0 -0.18 0 -0.16 0 -0.12 0 -0.11 0 -0.08 0 -0.06 0 -0.04 0 -0.02 0 0 -0.34 0.01 0 0.03 0 0.04 0 0.05 0 0.06 0 0.07 0 0.08 0 0.08 0 0.08 0 0.09 0 0.08 0 0.09 0 0.08 0 0.08 0 0.08 0 0.06 0 0.06 0 0.05 0 0.03 0 0.03 0 0 0 0 0.34zm7.76 15.79l-0.34 0 0 0 -0.01 -0.1 -0.04 -0.13 -0.05 -0.17 -0.08 -0.2 -0.1 -0.22 -0.12 -0.24 -0.15 -0.26 -0.15 -0.27 -0.18 -0.29 -0.19 -0.3 -0.21 -0.31 -0.22 -0.32 -0.23 -0.32 -0.25 -0.33 -0.26 -0.33 -0.26 -0.34 -0.27 -0.33 -0.28 -0.33 -0.29 -0.32 -0.29 -0.31 -0.3 -0.31 -0.3 -0.3 -0.3 -0.28 -0.3 -0.27 -0.3 -0.25 -0.3 -0.23 -0.29 -0.21 -0.3 -0.19 -0.28 -0.17 -0.28 -0.14 -0.27 -0.11 -0.26 -0.09 0.09 -0.33 0.29 0.09 0.29 0.13 0.3 0.15 0.3 0.17 0.31 0.2 0.31 0.22 0.31 0.25 0.31 0.25 0.3 0.28 0.31 0.29 0.31 0.3 0.3 0.31 0.29 0.32 0.3 0.33 0.28 0.33 0.28 0.34 0.27 0.33 0.25 0.34 0.25 0.33 0.24 0.33 0.22 0.33 0.22 0.31 0.19 0.31 0.18 0.29 0.16 0.28 0.15 0.27 0.13 0.25 0.1 0.23 0.09 0.22 0.06 0.19 0.04 0.18 0.02 0.15 0 0zm3.36 3.1l0 0.34 0 0 -0.19 0 -0.19 -0.01 -0.18 -0.02 -0.18 -0.03 -0.18 -0.04 -0.18 -0.05 -0.17 -0.05 -0.17 -0.06 -0.16 -0.07 -0.16 -0.08 -0.16 -0.08 -0.15 -0.09 -0.14 -0.1 -0.14 -0.1 -0.14 -0.1 -0.12 -0.12 -0.13 -0.12 -0.11 -0.12 -0.11 -0.13 -0.11 -0.14 -0.09 -0.14 -0.09 -0.14 -0.09 -0.15 -0.07 -0.15 -0.07 -0.16 -0.06 -0.16 -0.05 -0.16 -0.04 -0.17 -0.03 -0.17 -0.02 -0.17 -0.02 -0.18 0 -0.18 0.34 0 0 0.16 0.02 0.16 0.02 0.15 0.03 0.16 0.03 0.14 0.05 0.15 0.05 0.14 0.06 0.14 0.07 0.14 0.07 0.14 0.08 0.13 0.09 0.12 0.09 0.12 0.1 0.12 0.11 0.11 0.11 0.11 0.11 0.1 0.13 0.1 0.13 0.09 0.13 0.09 0.13 0.08 0.14 0.07 0.15 0.07 0.15 0.07 0.15 0.05 0.16 0.05 0.16 0.04 0.16 0.04 0.17 0.03 0.16 0.01 0.18 0.02 0.17 0 0 0zm3.36 -3.11l0.34 0.03 0 -0.02 0 0.18 -0.01 0.18 -0.03 0.17 -0.03 0.17 -0.04 0.17 -0.05 0.16 -0.06 0.16 -0.07 0.16 -0.07 0.15 -0.09 0.15 -0.08 0.14 -0.1 0.14 -0.11 0.14 -0.11 0.13 -0.11 0.12 -0.13 0.12 -0.12 0.12 -0.14 0.1 -0.14 0.1 -0.14 0.1 -0.15 0.09 -0.16 0.08 -0.16 0.08 -0.16 0.07 -0.17 0.06 -0.17 0.05 -0.18 0.05 -0.18 0.04 -0.18 0.03 -0.18 0.02 -0.19 0.01 -0.19 0 0 -0.34 0.17 0 0.18 -0.02 0.16 -0.01 0.17 -0.03 0.16 -0.04 0.16 -0.04 0.16 -0.05 0.15 -0.05 0.15 -0.07 0.15 -0.07 0.14 -0.07 0.13 -0.08 0.14 -0.09 0.12 -0.09 0.12 -0.1 0.12 -0.1 0.11 -0.11 0.11 -0.11 0.1 -0.12 0.09 -0.12 0.09 -0.13 0.08 -0.12 0.07 -0.14 0.07 -0.14 0.06 -0.14 0.05 -0.14 0.05 -0.15 0.03 -0.14 0.03 -0.16 0.02 -0.15 0.02 -0.16 0 -0.16 0 -0.01zm0 0.01l0 0 0 -0.01 0 0.01zm-14.47 -15.79l-0.01 -0.34 0 0 0.26 0.03 0.29 0.08 0.35 0.14 0.4 0.18 0.44 0.22 0.49 0.27 0.53 0.31 0.56 0.35 0.59 0.39 0.61 0.42 0.63 0.45 0.65 0.49 0.66 0.51 0.67 0.54 0.67 0.56 0.66 0.59 0.66 0.6 0.65 0.62 0.62 0.64 0.61 0.65 0.58 0.66 0.54 0.67 0.52 0.68 0.47 0.69 0.42 0.68 0.38 0.69 0.32 0.69 0.26 0.68 0.19 0.68 0.13 0.68 0.05 0.66 -0.04 0.65 -0.34 -0.03 0.03 -0.62 -0.04 -0.62 -0.12 -0.64 -0.19 -0.65 -0.25 -0.66 -0.31 -0.66 -0.36 -0.67 -0.42 -0.68 -0.46 -0.67 -0.51 -0.66 -0.53 -0.67 -0.58 -0.65 -0.6 -0.64 -0.62 -0.63 -0.63 -0.62 -0.66 -0.6 -0.66 -0.58 -0.66 -0.56 -0.66 -0.53 -0.66 -0.51 -0.64 -0.48 -0.63 -0.45 -0.61 -0.42 -0.58 -0.38 -0.55 -0.34 -0.52 -0.31 -0.48 -0.26 -0.43 -0.22 -0.38 -0.18 -0.33 -0.12 -0.26 -0.08 -0.18 -0.02 0.01 0zm-0.01 -0.34l0 0 0 0 0 0zm-16.69 0.24l16.69 -0.24 0.01 0.34 -16.7 0.24 0 0 0 -0.34zm0 0.34l0 0 0 0 0 0zm-14.48 15.79l-0.34 0 0 0.02 -0.03 -0.65 0.05 -0.67 0.12 -0.67 0.2 -0.68 0.26 -0.69 0.32 -0.68 0.37 -0.69 0.43 -0.69 0.47 -0.68 0.51 -0.68 0.55 -0.67 0.58 -0.66 0.6 -0.65 0.63 -0.64 0.65 -0.62 0.65 -0.61 0.67 -0.58 0.67 -0.56 0.66 -0.54 0.66 -0.51 0.65 -0.49 0.64 -0.45 0.61 -0.42 0.59 -0.39 0.56 -0.35 0.52 -0.31 0.49 -0.27 0.44 -0.23 0.4 -0.18 0.35 -0.13 0.3 -0.08 0.25 -0.03 0 0.34 -0.18 0.02 -0.26 0.08 -0.32 0.12 -0.38 0.17 -0.44 0.22 -0.48 0.27 -0.51 0.3 -0.56 0.35 -0.58 0.38 -0.61 0.42 -0.62 0.45 -0.65 0.48 -0.65 0.51 -0.67 0.53 -0.66 0.56 -0.66 0.58 -0.65 0.6 -0.64 0.61 -0.62 0.63 -0.6 0.65 -0.57 0.65 -0.54 0.66 -0.5 0.67 -0.46 0.67 -0.42 0.67 -0.37 0.67 -0.31 0.67 -0.25 0.66 -0.18 0.65 -0.12 0.64 -0.05 0.62 0.03 0.61 0 0.02zm0 -0.02l0 0.01 0 0.01 0 -0.02zm3.37 3.12l0 0.34 0 0 -0.19 0 -0.19 -0.02 -0.19 -0.02 -0.18 -0.03 -0.18 -0.04 -0.17 -0.04 -0.17 -0.06 -0.17 -0.06 -0.17 -0.07 -0.15 -0.07 -0.16 -0.08 -0.15 -0.09 -0.15 -0.1 -0.14 -0.1 -0.13 -0.11 -0.13 -0.11 -0.12 -0.12 -0.12 -0.13 -0.11 -0.13 -0.1 -0.13 -0.1 -0.14 -0.09 -0.15 -0.08 -0.14 -0.08 -0.16 -0.06 -0.15 -0.06 -0.16 -0.05 -0.17 -0.04 -0.16 -0.04 -0.17 -0.02 -0.18 -0.01 -0.17 -0.01 -0.18 0.34 0 0.01 0.16 0.01 0.16 0.02 0.15 0.03 0.15 0.04 0.15 0.04 0.15 0.06 0.14 0.06 0.14 0.06 0.14 0.08 0.13 0.08 0.13 0.09 0.13 0.09 0.12 0.1 0.12 0.1 0.11 0.11 0.11 0.12 0.1 0.12 0.1 0.13 0.09 0.13 0.09 0.14 0.08 0.14 0.07 0.14 0.07 0.15 0.06 0.16 0.06 0.15 0.05 0.16 0.04 0.17 0.03 0.16 0.03 0.17 0.02 0.17 0.01 0.18 0.01 0 0zm3.36 -3.1l0.34 0 0 0 0 0.18 -0.02 0.17 -0.02 0.18 -0.04 0.17 -0.04 0.16 -0.05 0.17 -0.06 0.16 -0.06 0.15 -0.08 0.16 -0.08 0.14 -0.09 0.15 -0.1 0.14 -0.1 0.13 -0.11 0.13 -0.12 0.13 -0.12 0.12 -0.13 0.11 -0.13 0.11 -0.14 0.1 -0.15 0.1 -0.15 0.09 -0.15 0.08 -0.16 0.07 -0.17 0.07 -0.16 0.06 -0.18 0.06 -0.17 0.04 -0.18 0.04 -0.18 0.03 -0.19 0.02 -0.18 0.02 -0.19 0 0 -0.34 0.17 -0.01 0.17 -0.01 0.17 -0.02 0.17 -0.03 0.16 -0.03 0.16 -0.04 0.16 -0.05 0.15 -0.06 0.15 -0.06 0.14 -0.07 0.14 -0.07 0.14 -0.08 0.13 -0.09 0.13 -0.09 0.12 -0.1 0.12 -0.1 0.11 -0.11 0.1 -0.11 0.1 -0.12 0.1 -0.12 0.08 -0.13 0.08 -0.13 0.08 -0.13 0.06 -0.14 0.06 -0.14 0.06 -0.14 0.04 -0.15 0.04 -0.15 0.03 -0.15 0.02 -0.15 0.01 -0.16 0.01 -0.16 0 0zm6.6 -7.46l-0.29 -0.18 0.24 0.23 -0.26 0.19 -0.27 0.21 -0.27 0.22 -0.27 0.23 -0.27 0.24 -0.27 0.25 -0.27 0.26 -0.27 0.26 -0.27 0.28 -0.27 0.27 -0.26 0.28 -0.25 0.29 -0.25 0.28 -0.25 0.29 -0.24 0.28 -0.23 0.28 -0.22 0.28 -0.21 0.28 -0.21 0.27 -0.19 0.27 -0.18 0.25 -0.17 0.25 -0.16 0.24 -0.14 0.22 -0.13 0.22 -0.11 0.2 -0.1 0.19 -0.08 0.17 -0.06 0.15 -0.05 0.13 -0.02 0.1 -0.01 0.08 -0.34 0 0.01 -0.13 0.03 -0.15 0.06 -0.15 0.07 -0.17 0.08 -0.19 0.1 -0.19 0.12 -0.21 0.14 -0.23 0.14 -0.23 0.16 -0.24 0.18 -0.25 0.18 -0.27 0.2 -0.26 0.2 -0.28 0.22 -0.28 0.23 -0.28 0.23 -0.29 0.24 -0.29 0.25 -0.28 0.25 -0.29 0.26 -0.29 0.27 -0.28 0.26 -0.28 0.27 -0.28 0.28 -0.27 0.27 -0.26 0.28 -0.26 0.28 -0.24 0.27 -0.24 0.28 -0.22 0.27 -0.21 0.27 -0.2 0.25 0.23zm-0.25 -0.23l0.69 -0.49 -0.44 0.72 -0.25 -0.23zm-4.82 14.49l-0.34 -0.05 0 0.03 0 -0.33 0.03 -0.34 0.03 -0.36 0.05 -0.38 0.07 -0.39 0.07 -0.41 0.09 -0.43 0.1 -0.43 0.11 -0.45 0.12 -0.46 0.13 -0.47 0.14 -0.47 0.15 -0.49 0.16 -0.49 0.17 -0.49 0.17 -0.5 0.19 -0.5 0.19 -0.5 0.19 -0.51 0.21 -0.5 0.2 -0.5 0.22 -0.49 0.22 -0.49 0.22 -0.49 0.23 -0.48 0.23 -0.47 0.23 -0.47 0.24 -0.45 0.23 -0.44 0.24 -0.43 0.25 -0.41 0.24 -0.4 0.29 0.18 -0.24 0.39 -0.24 0.41 -0.23 0.43 -0.24 0.43 -0.23 0.45 -0.24 0.46 -0.22 0.47 -0.23 0.47 -0.22 0.49 -0.22 0.48 -0.21 0.5 -0.21 0.49 -0.2 0.5 -0.19 0.5 -0.19 0.5 -0.18 0.5 -0.18 0.49 -0.16 0.49 -0.16 0.49 -0.15 0.48 -0.14 0.47 -0.13 0.46 -0.12 0.45 -0.11 0.45 -0.1 0.43 -0.08 0.41 -0.08 0.41 -0.06 0.38 -0.05 0.37 -0.03 0.35 -0.02 0.33 -0.01 0.31 0 0.02zm0 -0.02l0 0.01 0 0.01 0 -0.02zm5.55 22.95l0 0.35 0 0 -0.4 -0.06 -0.38 -0.15 -0.36 -0.24 -0.35 -0.32 -0.34 -0.4 -0.32 -0.46 -0.32 -0.53 -0.3 -0.6 -0.3 -0.64 -0.28 -0.7 -0.27 -0.75 -0.26 -0.79 -0.25 -0.83 -0.24 -0.87 -0.22 -0.89 -0.21 -0.91 -0.2 -0.94 -0.18 -0.95 -0.17 -0.96 -0.15 -0.97 -0.13 -0.97 -0.12 -0.97 -0.1 -0.95 -0.09 -0.95 -0.06 -0.92 -0.05 -0.91 -0.02 -0.88 -0.01 -0.84 0.01 -0.81 0.04 -0.77 0.06 -0.72 0.08 -0.68 0.34 0.05 -0.08 0.66 -0.06 0.71 -0.03 0.76 -0.02 0.8 0.01 0.84 0.03 0.87 0.04 0.9 0.07 0.92 0.08 0.93 0.1 0.95 0.12 0.96 0.13 0.97 0.15 0.96 0.17 0.96 0.18 0.94 0.19 0.93 0.21 0.91 0.22 0.89 0.24 0.85 0.25 0.82 0.25 0.79 0.27 0.73 0.28 0.69 0.29 0.64 0.29 0.57 0.31 0.51 0.3 0.45 0.32 0.36 0.31 0.29 0.31 0.21 0.31 0.12 0.31 0.04 0 0zm4.71 -7.46l0.33 -0.11 0 0 0.13 0.4 0.13 0.39 0.12 0.39 0.11 0.38 0.11 0.38 0.09 0.37 0.07 0.36 0.07 0.36 0.05 0.35 0.03 0.34 0.02 0.33 -0.01 0.32 -0.02 0.31 -0.05 0.3 -0.07 0.3 -0.09 0.28 -0.12 0.27 -0.15 0.26 -0.18 0.24 -0.2 0.23 -0.24 0.21 -0.27 0.19 -0.3 0.18 -0.33 0.16 -0.36 0.14 -0.4 0.13 -0.44 0.1 -0.47 0.09 -0.51 0.07 -0.54 0.05 -0.59 0.03 -0.63 0.01 0 -0.35 0.62 -0.01 0.57 -0.03 0.54 -0.04 0.49 -0.07 0.45 -0.08 0.42 -0.1 0.37 -0.12 0.34 -0.14 0.31 -0.14 0.27 -0.16 0.24 -0.18 0.21 -0.19 0.19 -0.2 0.15 -0.21 0.13 -0.23 0.11 -0.23 0.08 -0.26 0.07 -0.26 0.04 -0.28 0.02 -0.29 0 -0.3 -0.01 -0.31 -0.03 -0.32 -0.05 -0.34 -0.06 -0.34 -0.08 -0.35 -0.09 -0.36 -0.1 -0.37 -0.11 -0.38 -0.12 -0.38 -0.12 -0.39 -0.14 -0.4 0 0zm4.79 -7.11l0 0.34 0 0 -0.22 0.01 -0.22 0.03 -0.23 0.05 -0.24 0.06 -0.23 0.09 -0.24 0.1 -0.23 0.12 -0.23 0.13 -0.23 0.15 -0.23 0.16 -0.22 0.18 -0.22 0.19 -0.21 0.2 -0.2 0.21 -0.2 0.23 -0.18 0.23 -0.18 0.24 -0.16 0.26 -0.15 0.26 -0.14 0.26 -0.13 0.28 -0.1 0.27 -0.1 0.29 -0.07 0.29 -0.06 0.29 -0.04 0.29 -0.02 0.3 0 0.3 0.02 0.3 0.04 0.29 0.07 0.31 0.09 0.29 -0.33 0.11 -0.09 -0.32 -0.07 -0.32 -0.05 -0.33 -0.02 -0.32 0 -0.32 0.02 -0.32 0.04 -0.32 0.06 -0.31 0.08 -0.31 0.1 -0.3 0.12 -0.3 0.13 -0.29 0.14 -0.28 0.16 -0.27 0.18 -0.27 0.18 -0.26 0.2 -0.24 0.2 -0.24 0.22 -0.22 0.22 -0.21 0.23 -0.2 0.23 -0.19 0.24 -0.17 0.25 -0.16 0.25 -0.14 0.25 -0.13 0.25 -0.11 0.26 -0.09 0.25 -0.08 0.26 -0.05 0.25 -0.03 0.25 -0.01 0 0zm4.12 5.36l-0.33 0.07 0 0 -0.06 -0.31 -0.07 -0.31 -0.07 -0.29 -0.07 -0.28 -0.07 -0.28 -0.08 -0.26 -0.08 -0.26 -0.08 -0.24 -0.09 -0.24 -0.09 -0.22 -0.1 -0.21 -0.1 -0.21 -0.1 -0.19 -0.11 -0.19 -0.11 -0.17 -0.11 -0.17 -0.12 -0.15 -0.12 -0.15 -0.13 -0.13 -0.13 -0.12 -0.13 -0.12 -0.14 -0.1 -0.14 -0.09 -0.14 -0.09 -0.15 -0.07 -0.16 -0.07 -0.16 -0.05 -0.16 -0.04 -0.17 -0.04 -0.18 -0.02 -0.18 -0.02 -0.19 0 0 -0.34 0.21 0 0.2 0.02 0.19 0.02 0.2 0.04 0.18 0.05 0.18 0.06 0.18 0.07 0.17 0.09 0.16 0.09 0.16 0.11 0.16 0.11 0.14 0.13 0.15 0.14 0.13 0.15 0.14 0.15 0.13 0.17 0.12 0.18 0.12 0.18 0.11 0.2 0.11 0.21 0.1 0.21 0.1 0.23 0.1 0.23 0.09 0.24 0.09 0.26 0.08 0.26 0.08 0.27 0.08 0.28 0.07 0.29 0.07 0.3 0.06 0.31 0.06 0.31 0 0zm4.32 8.8l0.12 0.32 -0.04 0.01 -0.87 0.06 -0.78 0.03 -0.7 -0.02 -0.63 -0.05 -0.55 -0.09 -0.48 -0.12 -0.42 -0.16 -0.36 -0.19 -0.31 -0.22 -0.24 -0.26 -0.2 -0.27 -0.14 -0.31 -0.09 -0.32 -0.06 -0.33 -0.01 -0.35 0.01 -0.37 0.04 -0.37 0.07 -0.38 0.08 -0.39 0.1 -0.39 0.11 -0.4 0.11 -0.4 0.11 -0.4 0.12 -0.4 0.1 -0.4 0.1 -0.4 0.08 -0.39 0.07 -0.38 0.04 -0.37 0.02 -0.35 -0.01 -0.35 -0.04 -0.32 0.33 -0.07 0.05 0.37 0.01 0.37 -0.02 0.38 -0.04 0.39 -0.07 0.4 -0.08 0.4 -0.1 0.4 -0.11 0.41 -0.12 0.4 -0.11 0.4 -0.11 0.4 -0.11 0.4 -0.09 0.38 -0.08 0.38 -0.07 0.36 -0.04 0.35 -0.01 0.34 0.01 0.31 0.05 0.3 0.08 0.27 0.12 0.25 0.16 0.24 0.21 0.21 0.26 0.19 0.32 0.17 0.38 0.14 0.45 0.11 0.53 0.09 0.6 0.05 0.68 0.01 0.77 -0.02 0.85 -0.06 -0.05 0.01zm0.12 0.32l-0.02 0.01 -0.02 0 0.04 -0.01zm5.7 -23.33l0.34 0 0 0 0.01 0.37 0 0.44 0 0.51 0.01 0.57 0 0.64 -0.01 0.69 0 0.74 -0.02 0.79 -0.02 0.82 -0.03 0.86 -0.04 0.89 -0.05 0.91 -0.07 0.93 -0.08 0.94 -0.1 0.95 -0.12 0.96 -0.13 0.95 -0.16 0.94 -0.18 0.93 -0.2 0.91 -0.23 0.88 -0.25 0.86 -0.28 0.83 -0.31 0.78 -0.35 0.74 -0.37 0.69 -0.41 0.64 -0.45 0.58 -0.49 0.51 -0.52 0.44 -0.57 0.36 -0.62 0.28 -0.12 -0.32 0.57 -0.26 0.53 -0.34 0.5 -0.41 0.46 -0.48 0.43 -0.56 0.39 -0.61 0.37 -0.67 0.33 -0.72 0.31 -0.77 0.27 -0.81 0.25 -0.85 0.23 -0.87 0.2 -0.9 0.17 -0.92 0.16 -0.94 0.13 -0.94 0.12 -0.94 0.09 -0.95 0.09 -0.94 0.06 -0.92 0.06 -0.91 0.04 -0.88 0.03 -0.86 0.02 -0.82 0.02 -0.78 0 -0.74 0 -0.69 0 -0.64 0 -0.57 0 -0.51 -0.01 -0.44 0 -0.37 0 0zm-6 -14.85l-0.09 0.33 0.17 -0.28 0.35 0.37 0.34 0.4 0.34 0.41 0.32 0.43 0.32 0.44 0.31 0.46 0.3 0.47 0.29 0.48 0.28 0.49 0.27 0.5 0.27 0.51 0.25 0.51 0.24 0.51 0.23 0.52 0.22 0.52 0.21 0.52 0.2 0.52 0.19 0.52 0.18 0.51 0.16 0.51 0.16 0.5 0.14 0.49 0.13 0.49 0.11 0.47 0.11 0.46 0.09 0.45 0.07 0.44 0.07 0.41 0.05 0.4 0.04 0.39 0.02 0.36 0 0.34 -0.34 0 -0.01 -0.32 -0.02 -0.36 -0.03 -0.37 -0.05 -0.39 -0.06 -0.41 -0.08 -0.42 -0.09 -0.44 -0.1 -0.46 -0.12 -0.47 -0.12 -0.47 -0.14 -0.49 -0.15 -0.5 -0.17 -0.5 -0.17 -0.5 -0.19 -0.52 -0.2 -0.51 -0.2 -0.51 -0.22 -0.52 -0.23 -0.51 -0.24 -0.51 -0.25 -0.51 -0.26 -0.5 -0.27 -0.49 -0.28 -0.48 -0.28 -0.48 -0.3 -0.46 -0.3 -0.45 -0.31 -0.44 -0.32 -0.42 -0.33 -0.4 -0.34 -0.39 -0.34 -0.36 0.17 -0.29zm-0.17 0.29l-0.43 -0.45 0.6 0.16 -0.17 0.29zm-16.92 -7.71l0 0 0 0 0 0 0 0 0 0 0 0 0 0 0 0 0 0 0 0 0 0 0 0 0 0 0 0 0 0 0 0 0 0 0 0 0 0 0 0 0 0z"/>
  </g>
  <g>
   <path class="fil2" d="M9.22 43.53c9.97,1.57 21.26,1.87 28.04,-0.9 0.55,1.84 0.85,3.53 0.85,4.73 0,1.99 0.2,8.52 -0.87,14.19 -2.56,0.54 -5.8,0.26 -9.82,-0.96 -0.68,-2.75 -1.84,-4.23 -3.74,-4.21 -1.75,0.01 -3.88,1.77 -4.6,3.97 -3.49,0.71 -6.73,0.98 -9.71,0.78 -0.96,-4.74 -1.37,-10.08 -0.91,-13.3 0,-1.1 0.29,-2.61 0.76,-4.3z"/>
   <path id="1" class="fil1" d="M37.42 42.58l-0.33 0.1 0.23 0.11 -0.65 0.25 -0.68 0.24 -0.7 0.22 -0.73 0.2 -0.75 0.18 -0.77 0.16 -0.79 0.16 -0.8 0.13 -0.83 0.12 -0.84 0.1 -0.86 0.09 -0.87 0.08 -0.89 0.06 -0.89 0.05 -0.91 0.03 -0.92 0.02 -0.93 0.01 -0.94 -0.01 -0.94 -0.01 -0.95 -0.03 -0.96 -0.04 -0.95 -0.05 -0.97 -0.06 -0.96 -0.08 -0.96 -0.08 -0.97 -0.09 -0.96 -0.1 -0.96 -0.11 -0.95 -0.12 -0.96 -0.13 -0.94 -0.13 -0.94 -0.15 0.05 -0.34 0.94 0.15 0.94 0.13 0.95 0.13 0.95 0.12 0.96 0.11 0.96 0.1 0.96 0.09 0.96 0.08 0.96 0.07 0.95 0.06 0.96 0.06 0.95 0.03 0.95 0.03 0.94 0.02 0.93 0.01 0.92 -0.01 0.92 -0.02 0.9 -0.04 0.89 -0.04 0.88 -0.07 0.87 -0.07 0.85 -0.09 0.83 -0.1 0.82 -0.12 0.8 -0.13 0.78 -0.15 0.76 -0.17 0.74 -0.18 0.72 -0.2 0.69 -0.21 0.67 -0.23 0.64 -0.25 0.23 0.11zm-0.23 -0.11l0.18 -0.07 0.05 0.18 -0.23 -0.11zm1.09 4.89l-0.34 0 0 0 0 -0.11 0 -0.11 -0.01 -0.12 0 -0.12 -0.01 -0.12 -0.01 -0.13 -0.01 -0.13 -0.01 -0.13 -0.02 -0.13 -0.01 -0.14 -0.02 -0.13 -0.02 -0.14 -0.02 -0.15 -0.03 -0.14 -0.02 -0.15 -0.03 -0.14 -0.02 -0.15 -0.03 -0.16 -0.03 -0.15 -0.04 -0.16 -0.03 -0.15 -0.04 -0.16 -0.03 -0.16 -0.04 -0.16 -0.04 -0.17 -0.04 -0.16 -0.05 -0.16 -0.04 -0.17 -0.05 -0.17 -0.05 -0.17 -0.05 -0.17 -0.05 -0.17 0.33 -0.1 0.06 0.17 0.04 0.18 0.05 0.17 0.05 0.17 0.05 0.17 0.04 0.16 0.04 0.17 0.04 0.17 0.04 0.16 0.04 0.16 0.04 0.16 0.03 0.16 0.03 0.16 0.03 0.16 0.03 0.15 0.03 0.16 0.03 0.15 0.02 0.15 0.03 0.14 0.02 0.15 0.02 0.14 0.02 0.14 0.01 0.14 0.02 0.14 0.01 0.13 0.01 0.13 0.01 0.13 0.01 0.13 0.01 0.13 0 0.12 0 0.12 0 0.11 0 0zm-1 14.36l-0.07 -0.34 -0.14 0.14 0.1 -0.53 0.09 -0.54 0.08 -0.54 0.07 -0.54 0.07 -0.54 0.07 -0.55 0.05 -0.54 0.05 -0.54 0.05 -0.53 0.04 -0.54 0.04 -0.52 0.03 -0.53 0.03 -0.51 0.03 -0.51 0.02 -0.5 0.02 -0.49 0.01 -0.48 0.01 -0.47 0.01 -0.45 0.01 -0.44 0 -0.43 0 -0.41 0 -0.39 0 -0.38 0 -0.36 0 -0.34 0 -0.31 0 -0.3 0 -0.27 -0.01 -0.25 0 -0.23 0 -0.2 0.34 0 0 0.2 0.01 0.23 0 0.25 0 0.27 0 0.29 0 0.32 0.01 0.34 0 0.36 0 0.38 0 0.39 -0.01 0.41 0 0.43 -0.01 0.44 -0.01 0.46 -0.01 0.47 -0.01 0.48 -0.02 0.49 -0.02 0.5 -0.03 0.51 -0.02 0.52 -0.04 0.53 -0.03 0.53 -0.05 0.54 -0.04 0.53 -0.05 0.55 -0.06 0.54 -0.07 0.55 -0.07 0.55 -0.07 0.54 -0.08 0.54 -0.09 0.54 -0.1 0.54 -0.13 0.14zm0.13 -0.14l-0.02 0.11 -0.11 0.03 0.13 -0.14zm-10.16 -0.95l0.34 -0.08 -0.12 -0.12 0.37 0.11 0.37 0.11 0.36 0.1 0.36 0.09 0.36 0.09 0.35 0.08 0.35 0.08 0.34 0.08 0.33 0.06 0.34 0.07 0.32 0.05 0.33 0.05 0.32 0.05 0.31 0.04 0.31 0.04 0.31 0.03 0.3 0.03 0.3 0.02 0.29 0.01 0.29 0.01 0.28 0.01 0.28 0 0.28 0 0.27 -0.01 0.26 -0.02 0.27 -0.02 0.25 -0.02 0.26 -0.03 0.25 -0.03 0.24 -0.04 0.25 -0.04 0.24 -0.05 0.07 0.34 -0.25 0.04 -0.25 0.05 -0.25 0.04 -0.26 0.03 -0.26 0.03 -0.27 0.03 -0.27 0.02 -0.27 0.01 -0.28 0.01 -0.28 0 -0.28 0 -0.29 0 -0.3 -0.01 -0.3 -0.02 -0.3 -0.02 -0.31 -0.03 -0.31 -0.03 -0.31 -0.04 -0.32 -0.04 -0.33 -0.05 -0.32 -0.05 -0.34 -0.06 -0.33 -0.06 -0.34 -0.07 -0.35 -0.07 -0.35 -0.08 -0.35 -0.09 -0.36 -0.09 -0.36 -0.09 -0.37 -0.1 -0.37 -0.11 -0.38 -0.11 -0.12 -0.13zm0.12 0.13l-0.09 -0.03 -0.03 -0.1 0.12 0.13zm-3.69 -4.21l0 -0.34 0 0 0.19 0 0.18 0.01 0.17 0.02 0.18 0.03 0.17 0.04 0.16 0.05 0.16 0.06 0.16 0.07 0.15 0.07 0.14 0.09 0.15 0.09 0.14 0.11 0.13 0.11 0.13 0.12 0.13 0.12 0.12 0.14 0.12 0.14 0.11 0.15 0.11 0.16 0.11 0.17 0.1 0.17 0.1 0.18 0.09 0.19 0.09 0.2 0.09 0.21 0.09 0.21 0.08 0.22 0.07 0.23 0.08 0.23 0.07 0.25 0.07 0.25 0.07 0.25 -0.34 0.08 -0.06 -0.25 -0.07 -0.24 -0.07 -0.24 -0.07 -0.22 -0.08 -0.22 -0.08 -0.22 -0.08 -0.2 -0.08 -0.2 -0.09 -0.19 -0.09 -0.18 -0.09 -0.17 -0.1 -0.16 -0.1 -0.16 -0.1 -0.15 -0.1 -0.14 -0.11 -0.13 -0.11 -0.12 -0.12 -0.12 -0.11 -0.11 -0.12 -0.09 -0.13 -0.1 -0.13 -0.08 -0.13 -0.07 -0.13 -0.07 -0.14 -0.06 -0.14 -0.05 -0.14 -0.05 -0.15 -0.03 -0.16 -0.03 -0.16 -0.02 -0.16 -0.01 -0.17 0 0 0zm-4.57 3.97l-0.07 -0.34 -0.13 0.11 0.08 -0.21 0.08 -0.2 0.09 -0.21 0.1 -0.2 0.1 -0.2 0.11 -0.19 0.12 -0.19 0.12 -0.18 0.13 -0.19 0.14 -0.17 0.14 -0.17 0.14 -0.17 0.15 -0.15 0.15 -0.16 0.16 -0.15 0.16 -0.14 0.16 -0.13 0.17 -0.13 0.17 -0.12 0.17 -0.12 0.17 -0.1 0.18 -0.1 0.18 -0.09 0.17 -0.08 0.18 -0.08 0.18 -0.06 0.18 -0.06 0.18 -0.05 0.18 -0.03 0.18 -0.03 0.18 -0.02 0.17 0 0 0.34 -0.15 0 -0.16 0.02 -0.16 0.02 -0.16 0.04 -0.16 0.04 -0.17 0.05 -0.16 0.06 -0.17 0.07 -0.16 0.08 -0.17 0.08 -0.16 0.09 -0.16 0.1 -0.16 0.11 -0.16 0.12 -0.16 0.12 -0.16 0.12 -0.15 0.14 -0.15 0.14 -0.14 0.14 -0.15 0.15 -0.13 0.16 -0.14 0.16 -0.12 0.17 -0.13 0.17 -0.11 0.18 -0.11 0.18 -0.11 0.18 -0.1 0.18 -0.09 0.19 -0.08 0.2 -0.08 0.19 -0.07 0.2 -0.13 0.12zm0.13 -0.12l-0.03 0.1 -0.1 0.02 0.13 -0.12zm-10.03 0.76l0.33 -0.06 -0.15 -0.14 0.27 0.02 0.28 0.01 0.28 0.01 0.29 0.01 0.28 0.01 0.29 0 0.29 0 0.28 0 0.29 0 0.3 -0.01 0.29 -0.01 0.29 -0.01 0.3 -0.02 0.3 -0.02 0.3 -0.02 0.3 -0.02 0.3 -0.02 0.31 -0.03 0.3 -0.03 0.31 -0.04 0.31 -0.03 0.31 -0.04 0.31 -0.04 0.31 -0.05 0.32 -0.05 0.31 -0.04 0.32 -0.06 0.32 -0.05 0.32 -0.06 0.32 -0.06 0.33 -0.06 0.32 -0.07 0.07 0.34 -0.33 0.06 -0.32 0.07 -0.33 0.06 -0.32 0.06 -0.32 0.05 -0.32 0.05 -0.32 0.05 -0.32 0.05 -0.31 0.05 -0.32 0.04 -0.31 0.04 -0.31 0.03 -0.31 0.04 -0.31 0.03 -0.31 0.03 -0.3 0.02 -0.31 0.03 -0.3 0.02 -0.3 0.02 -0.3 0.01 -0.3 0.01 -0.29 0.01 -0.3 0.01 -0.29 0 -0.29 0.01 -0.3 -0.01 -0.28 0 -0.29 -0.01 -0.29 0 -0.28 -0.02 -0.29 -0.01 -0.28 -0.02 -0.15 -0.14zm0.15 0.14l-0.13 -0.01 -0.02 -0.13 0.15 0.14zm-1.07 -13.47l0.34 0 0 0.02 -0.04 0.31 -0.04 0.31 -0.03 0.33 -0.02 0.34 -0.02 0.35 -0.02 0.36 -0.01 0.37 -0.01 0.38 0 0.39 0.01 0.39 0 0.41 0.01 0.41 0.02 0.42 0.02 0.42 0.03 0.43 0.02 0.43 0.04 0.44 0.04 0.44 0.04 0.44 0.04 0.45 0.05 0.45 0.05 0.45 0.06 0.46 0.06 0.45 0.07 0.46 0.06 0.45 0.07 0.46 0.08 0.45 0.08 0.45 0.08 0.45 0.08 0.45 0.09 0.45 -0.33 0.06 -0.09 -0.44 -0.09 -0.45 -0.08 -0.46 -0.08 -0.45 -0.07 -0.46 -0.08 -0.45 -0.06 -0.46 -0.07 -0.46 -0.06 -0.46 -0.06 -0.46 -0.05 -0.45 -0.05 -0.45 -0.05 -0.45 -0.04 -0.45 -0.03 -0.45 -0.04 -0.44 -0.03 -0.43 -0.02 -0.43 -0.02 -0.43 -0.02 -0.42 -0.01 -0.41 -0.01 -0.41 0 -0.4 0 -0.39 0.01 -0.38 0.01 -0.38 0.02 -0.36 0.02 -0.36 0.02 -0.35 0.03 -0.33 0.04 -0.32 0.04 -0.32 0 0.03zm0.34 0l0 0.01 0 0.01 0 -0.02zm0.62 -4.47l-0.05 0.34 0.19 -0.12 -0.04 0.16 -0.05 0.15 -0.04 0.16 -0.04 0.15 -0.04 0.15 -0.04 0.15 -0.03 0.15 -0.04 0.15 -0.03 0.15 -0.04 0.14 -0.03 0.15 -0.03 0.14 -0.03 0.14 -0.03 0.14 -0.02 0.13 -0.03 0.14 -0.02 0.13 -0.03 0.14 -0.02 0.13 -0.01 0.12 -0.02 0.13 -0.02 0.13 -0.02 0.12 -0.01 0.12 -0.01 0.12 -0.01 0.11 -0.01 0.12 -0.01 0.11 0 0.1 -0.01 0.11 0 0.11 0 0.1 -0.34 0 0 -0.11 0 -0.11 0 -0.11 0.01 -0.11 0.01 -0.12 0.01 -0.12 0.01 -0.12 0.01 -0.12 0.01 -0.12 0.02 -0.13 0.02 -0.12 0.01 -0.13 0.02 -0.14 0.03 -0.13 0.02 -0.14 0.02 -0.13 0.03 -0.14 0.03 -0.14 0.03 -0.14 0.02 -0.14 0.04 -0.15 0.03 -0.14 0.03 -0.15 0.04 -0.15 0.03 -0.15 0.04 -0.15 0.04 -0.15 0.04 -0.16 0.04 -0.15 0.04 -0.16 0.04 -0.16 0.05 -0.15 0.19 -0.13zm-0.19 0.13l0.04 -0.15 0.15 0.02 -0.19 0.13z"/>
  </g>
  <g>
   <path class="fil3" d="M9.22 43.53c9.97,1.57 21.26,1.87 28.04,-0.9 0.52,1.73 0.82,3.33 0.85,4.52 -10.17,1.67 -20.08,1.89 -29.63,0.12 0.08,-1.03 0.34,-2.32 0.74,-3.74z"/>
   <path id="1" class="fil1" d="M37.42 42.58l-0.33 0.1 0.23 0.11 -0.65 0.25 -0.68 0.24 -0.7 0.22 -0.73 0.2 -0.75 0.18 -0.77 0.16 -0.79 0.16 -0.8 0.13 -0.83 0.12 -0.84 0.1 -0.86 0.09 -0.87 0.08 -0.89 0.06 -0.89 0.05 -0.91 0.03 -0.92 0.02 -0.93 0.01 -0.94 -0.01 -0.94 -0.01 -0.95 -0.03 -0.96 -0.04 -0.95 -0.05 -0.97 -0.06 -0.96 -0.08 -0.96 -0.08 -0.97 -0.09 -0.96 -0.1 -0.96 -0.11 -0.95 -0.12 -0.96 -0.13 -0.94 -0.13 -0.94 -0.15 0.05 -0.34 0.94 0.15 0.94 0.13 0.95 0.13 0.95 0.12 0.96 0.11 0.96 0.1 0.96 0.09 0.96 0.08 0.96 0.07 0.95 0.06 0.96 0.06 0.95 0.03 0.95 0.03 0.94 0.02 0.93 0.01 0.92 -0.01 0.92 -0.02 0.9 -0.04 0.89 -0.04 0.88 -0.07 0.87 -0.07 0.85 -0.09 0.83 -0.1 0.82 -0.12 0.8 -0.13 0.78 -0.15 0.76 -0.17 0.74 -0.18 0.72 -0.2 0.69 -0.21 0.67 -0.23 0.64 -0.25 0.23 0.11zm-0.23 -0.11l0.18 -0.07 0.05 0.18 -0.23 -0.11zm0.95 4.84l-0.06 -0.33 -0.14 0.17 0 -0.11 -0.01 -0.11 -0.01 -0.12 -0.01 -0.11 -0.01 -0.12 -0.01 -0.13 -0.01 -0.12 -0.01 -0.13 -0.02 -0.13 -0.02 -0.13 -0.02 -0.13 -0.02 -0.13 -0.02 -0.14 -0.02 -0.14 -0.03 -0.13 -0.02 -0.14 -0.03 -0.15 -0.03 -0.14 -0.03 -0.15 -0.03 -0.15 -0.03 -0.15 -0.04 -0.14 -0.03 -0.16 -0.04 -0.15 -0.04 -0.15 -0.04 -0.16 -0.04 -0.16 -0.04 -0.15 -0.05 -0.16 -0.04 -0.16 -0.05 -0.16 -0.05 -0.16 0.33 -0.1 0.05 0.16 0.05 0.17 0.04 0.16 0.05 0.16 0.04 0.16 0.04 0.16 0.04 0.15 0.04 0.16 0.04 0.15 0.04 0.16 0.03 0.15 0.04 0.15 0.03 0.15 0.03 0.15 0.03 0.15 0.03 0.14 0.02 0.15 0.03 0.14 0.02 0.14 0.02 0.14 0.02 0.13 0.02 0.14 0.02 0.13 0.02 0.13 0.01 0.13 0.02 0.13 0.01 0.12 0.01 0.13 0.01 0.12 0 0.12 0.01 0.12 0 0.11 -0.14 0.17zm0.14 -0.17l0.01 0.15 -0.15 0.02 0.14 -0.17zm-29.97 0.12l0.34 0.02 -0.14 -0.18 0.9 0.16 0.89 0.15 0.9 0.14 0.9 0.12 0.9 0.12 0.91 0.1 0.9 0.09 0.91 0.08 0.91 0.07 0.91 0.06 0.92 0.05 0.91 0.04 0.92 0.03 0.92 0.02 0.92 0 0.93 0 0.92 -0.01 0.93 -0.03 0.93 -0.03 0.93 -0.04 0.94 -0.05 0.93 -0.07 0.94 -0.07 0.94 -0.08 0.94 -0.09 0.94 -0.1 0.94 -0.11 0.95 -0.11 0.94 -0.13 0.95 -0.14 0.95 -0.14 0.95 -0.15 0.06 0.33 -0.96 0.16 -0.95 0.14 -0.95 0.14 -0.95 0.13 -0.95 0.11 -0.94 0.11 -0.95 0.1 -0.94 0.09 -0.94 0.08 -0.94 0.08 -0.94 0.06 -0.94 0.05 -0.93 0.04 -0.94 0.04 -0.93 0.02 -0.93 0.01 -0.93 0.01 -0.92 -0.01 -0.93 -0.02 -0.92 -0.03 -0.92 -0.03 -0.92 -0.05 -0.91 -0.06 -0.92 -0.07 -0.91 -0.08 -0.91 -0.1 -0.91 -0.1 -0.91 -0.12 -0.9 -0.12 -0.9 -0.14 -0.9 -0.15 -0.9 -0.16 -0.14 -0.18zm0.14 0.18l-0.15 -0.03 0.01 -0.15 0.14 0.18zm0.8 -4.08l-0.05 0.34 0.19 -0.12 -0.04 0.13 -0.03 0.13 -0.04 0.13 -0.03 0.13 -0.04 0.13 -0.03 0.13 -0.03 0.13 -0.03 0.12 -0.03 0.13 -0.03 0.12 -0.03 0.12 -0.03 0.12 -0.03 0.12 -0.02 0.12 -0.03 0.12 -0.02 0.12 -0.02 0.12 -0.03 0.11 -0.02 0.12 -0.02 0.11 -0.02 0.11 -0.02 0.11 -0.01 0.11 -0.02 0.11 -0.01 0.1 -0.02 0.11 -0.01 0.1 -0.01 0.1 -0.01 0.1 -0.01 0.1 -0.01 0.1 -0.01 0.09 -0.34 -0.02 0.01 -0.1 0.01 -0.1 0.01 -0.1 0.01 -0.11 0.01 -0.1 0.01 -0.11 0.02 -0.1 0.01 -0.11 0.02 -0.11 0.02 -0.11 0.02 -0.12 0.01 -0.11 0.02 -0.11 0.03 -0.12 0.02 -0.12 0.02 -0.12 0.03 -0.12 0.02 -0.12 0.03 -0.12 0.02 -0.12 0.03 -0.13 0.03 -0.12 0.03 -0.12 0.03 -0.13 0.03 -0.13 0.04 -0.13 0.03 -0.13 0.03 -0.13 0.04 -0.13 0.03 -0.13 0.04 -0.13 0.04 -0.13 0.19 -0.13zm-0.19 0.13l0.04 -0.15 0.15 0.02 -0.19 0.13z"/>
  </g>
  <g>
   <path class="fil0" d="M23.12 2.23c4.61,0 9.24,3.42 11.45,8.61 0.45,1.02 2.58,2.7 2.65,6.57 0.08,3.87 -2.43,6.82 -6.76,7.66 -2.18,0.43 -4.43,0.64 -6.93,0.64 -2.9,0 -5.31,0.03 -8.24,-0.53 -4.21,-0.81 -6.65,-3.92 -6.65,-8.04 0,-4.11 2.34,-6.21 3.6,-8.22 1.44,-3.94 6.28,-6.69 10.88,-6.69z"/>
   <path id="1" class="fil1" d="M34.72 10.77l-0.31 0.14 0 -0.01 -0.21 -0.47 -0.23 -0.47 -0.24 -0.45 -0.25 -0.45 -0.26 -0.43 -0.28 -0.42 -0.28 -0.41 -0.3 -0.39 -0.31 -0.38 -0.31 -0.37 -0.33 -0.36 -0.34 -0.34 -0.34 -0.33 -0.36 -0.32 -0.36 -0.3 -0.37 -0.28 -0.37 -0.27 -0.38 -0.26 -0.39 -0.24 -0.4 -0.22 -0.39 -0.21 -0.41 -0.19 -0.4 -0.17 -0.41 -0.16 -0.42 -0.14 -0.41 -0.12 -0.42 -0.11 -0.42 -0.08 -0.42 -0.07 -0.43 -0.05 -0.42 -0.03 -0.43 -0.01 0 -0.34 0.44 0.01 0.44 0.03 0.44 0.05 0.44 0.07 0.43 0.09 0.44 0.11 0.43 0.12 0.42 0.15 0.43 0.16 0.42 0.18 0.41 0.19 0.41 0.22 0.4 0.23 0.4 0.24 0.39 0.26 0.39 0.28 0.38 0.29 0.37 0.31 0.36 0.33 0.35 0.33 0.35 0.35 0.33 0.37 0.33 0.37 0.31 0.4 0.31 0.4 0.29 0.42 0.28 0.43 0.27 0.44 0.26 0.45 0.24 0.47 0.23 0.47 0.21 0.49 0 0zm-0.31 0.14l-0.01 -0.01 0.01 0 0 0.01zm2.99 6.5l-0.35 0 0 0 -0.01 -0.35 -0.02 -0.34 -0.04 -0.32 -0.04 -0.32 -0.06 -0.3 -0.06 -0.29 -0.07 -0.28 -0.07 -0.27 -0.09 -0.26 -0.08 -0.24 -0.1 -0.24 -0.1 -0.23 -0.1 -0.22 -0.1 -0.21 -0.11 -0.2 -0.11 -0.2 -0.11 -0.19 -0.11 -0.17 -0.11 -0.17 -0.11 -0.17 -0.11 -0.16 -0.11 -0.15 -0.11 -0.14 -0.1 -0.14 -0.09 -0.13 -0.1 -0.13 -0.08 -0.12 -0.09 -0.12 -0.07 -0.11 -0.07 -0.12 -0.06 -0.11 -0.05 -0.1 0.31 -0.14 0.05 0.09 0.05 0.09 0.06 0.1 0.07 0.11 0.08 0.11 0.08 0.12 0.09 0.12 0.1 0.14 0.1 0.14 0.11 0.14 0.11 0.16 0.11 0.16 0.11 0.17 0.12 0.17 0.11 0.19 0.12 0.19 0.11 0.2 0.11 0.21 0.11 0.22 0.11 0.23 0.1 0.24 0.1 0.25 0.09 0.25 0.09 0.28 0.08 0.27 0.07 0.3 0.06 0.3 0.06 0.31 0.04 0.33 0.04 0.34 0.02 0.34 0.02 0.37 0 0zm-6.91 7.83l-0.06 -0.33 0 0 0.39 -0.09 0.39 -0.09 0.37 -0.11 0.36 -0.12 0.35 -0.13 0.34 -0.14 0.33 -0.15 0.31 -0.17 0.31 -0.17 0.29 -0.18 0.28 -0.19 0.27 -0.21 0.25 -0.21 0.25 -0.22 0.23 -0.23 0.21 -0.24 0.21 -0.24 0.19 -0.26 0.18 -0.26 0.17 -0.27 0.15 -0.28 0.14 -0.29 0.13 -0.29 0.12 -0.31 0.1 -0.3 0.08 -0.32 0.07 -0.32 0.06 -0.33 0.05 -0.34 0.03 -0.34 0.01 -0.34 0 -0.36 0.35 0 -0.01 0.36 -0.01 0.37 -0.03 0.35 -0.05 0.35 -0.06 0.35 -0.08 0.33 -0.09 0.33 -0.1 0.33 -0.12 0.32 -0.13 0.3 -0.15 0.31 -0.16 0.29 -0.18 0.28 -0.19 0.28 -0.2 0.27 -0.22 0.26 -0.23 0.25 -0.24 0.24 -0.25 0.23 -0.27 0.22 -0.28 0.21 -0.29 0.2 -0.31 0.2 -0.31 0.18 -0.33 0.16 -0.34 0.16 -0.35 0.15 -0.37 0.13 -0.37 0.13 -0.39 0.11 -0.39 0.1 -0.41 0.08 0 0zm-6.96 0.64l0 -0.34 0 0 0.24 0 0.23 -0.01 0.23 0 0.23 0 0.22 -0.01 0.23 0 0.22 -0.01 0.23 -0.01 0.22 -0.01 0.22 -0.01 0.22 -0.02 0.22 -0.01 0.21 -0.02 0.22 -0.01 0.22 -0.02 0.21 -0.02 0.21 -0.02 0.22 -0.02 0.21 -0.02 0.21 -0.03 0.21 -0.02 0.21 -0.03 0.21 -0.03 0.21 -0.03 0.2 -0.03 0.21 -0.03 0.2 -0.03 0.21 -0.03 0.2 -0.04 0.21 -0.04 0.2 -0.03 0.21 -0.04 0.06 0.33 -0.2 0.04 -0.21 0.04 -0.21 0.04 -0.2 0.03 -0.21 0.04 -0.21 0.03 -0.21 0.03 -0.21 0.03 -0.21 0.03 -0.21 0.03 -0.21 0.03 -0.21 0.02 -0.21 0.03 -0.22 0.02 -0.21 0.02 -0.22 0.02 -0.21 0.02 -0.22 0.02 -0.22 0.02 -0.22 0.01 -0.22 0.02 -0.22 0.01 -0.23 0.01 -0.22 0.01 -0.22 0.01 -0.23 0.01 -0.23 0 -0.23 0.01 -0.23 0 -0.23 0.01 -0.23 0 -0.24 0 0 0zm-8.28 -0.53l0.07 -0.34 0 0 0.27 0.05 0.27 0.05 0.26 0.04 0.27 0.04 0.26 0.04 0.26 0.04 0.26 0.03 0.25 0.03 0.26 0.03 0.25 0.02 0.25 0.02 0.25 0.02 0.25 0.02 0.25 0.02 0.25 0.01 0.25 0.01 0.24 0.02 0.25 0 0.25 0.01 0.25 0.01 0.25 0 0.25 0.01 0.26 0 0.25 0 0.26 0.01 0.25 0 0.26 0 0.26 0 0.27 0 0.26 0 0.27 0 0.27 0 0 0.34 -0.27 0 -0.27 0 -0.26 0 -0.27 0 -0.26 0 -0.26 0 -0.25 0 -0.26 0 -0.26 -0.01 -0.25 0 -0.25 0 -0.26 -0.01 -0.25 -0.01 -0.25 0 -0.25 -0.01 -0.25 -0.01 -0.25 -0.02 -0.25 -0.01 -0.25 -0.02 -0.26 -0.01 -0.25 -0.02 -0.25 -0.03 -0.26 -0.02 -0.26 -0.03 -0.25 -0.03 -0.27 -0.03 -0.26 -0.04 -0.26 -0.04 -0.27 -0.04 -0.27 -0.04 -0.27 -0.05 -0.28 -0.05 0 0zm-6.78 -8.21l0.34 0 0 0 0.01 0.38 0.02 0.37 0.04 0.36 0.05 0.36 0.06 0.35 0.07 0.34 0.09 0.34 0.1 0.33 0.12 0.32 0.12 0.31 0.14 0.3 0.16 0.3 0.16 0.29 0.18 0.27 0.19 0.27 0.2 0.26 0.21 0.25 0.23 0.24 0.24 0.23 0.25 0.22 0.26 0.22 0.27 0.2 0.28 0.18 0.3 0.18 0.3 0.17 0.32 0.16 0.33 0.14 0.34 0.13 0.35 0.12 0.36 0.11 0.37 0.09 0.39 0.08 -0.07 0.34 -0.39 -0.08 -0.39 -0.1 -0.37 -0.11 -0.37 -0.13 -0.35 -0.13 -0.34 -0.15 -0.33 -0.17 -0.32 -0.17 -0.31 -0.19 -0.3 -0.19 -0.28 -0.21 -0.28 -0.22 -0.26 -0.23 -0.25 -0.25 -0.23 -0.25 -0.23 -0.26 -0.21 -0.27 -0.2 -0.29 -0.18 -0.29 -0.18 -0.3 -0.16 -0.31 -0.14 -0.32 -0.14 -0.32 -0.11 -0.34 -0.11 -0.34 -0.09 -0.35 -0.08 -0.35 -0.07 -0.37 -0.04 -0.37 -0.04 -0.38 -0.02 -0.38 -0.01 -0.39 0 0zm3.61 -8.28l0.33 0.12 -0.02 0.03 -0.12 0.19 -0.13 0.19 -0.14 0.2 -0.14 0.19 -0.14 0.2 -0.14 0.2 -0.15 0.2 -0.14 0.2 -0.15 0.2 -0.15 0.21 -0.15 0.21 -0.15 0.22 -0.15 0.22 -0.14 0.22 -0.14 0.23 -0.14 0.24 -0.14 0.24 -0.13 0.25 -0.13 0.25 -0.12 0.26 -0.11 0.27 -0.11 0.28 -0.1 0.28 -0.09 0.29 -0.08 0.3 -0.08 0.31 -0.06 0.32 -0.05 0.34 -0.05 0.34 -0.03 0.35 -0.02 0.36 -0.01 0.37 -0.34 0 0.01 -0.38 0.02 -0.38 0.03 -0.36 0.05 -0.35 0.05 -0.35 0.07 -0.33 0.08 -0.32 0.08 -0.31 0.1 -0.31 0.1 -0.29 0.11 -0.29 0.12 -0.28 0.13 -0.27 0.13 -0.26 0.13 -0.25 0.14 -0.25 0.14 -0.24 0.15 -0.24 0.15 -0.23 0.15 -0.22 0.14 -0.22 0.16 -0.22 0.15 -0.21 0.15 -0.21 0.15 -0.2 0.14 -0.2 0.15 -0.19 0.14 -0.2 0.13 -0.19 0.13 -0.19 0.13 -0.19 0.12 -0.18 -0.02 0.03zm0.33 0.12l-0.01 0.01 -0.01 0.02 0.02 -0.03zm10.71 -6.92l0 0.34 0 0 -0.42 0.01 -0.43 0.03 -0.43 0.03 -0.42 0.06 -0.43 0.07 -0.42 0.08 -0.42 0.1 -0.42 0.11 -0.41 0.12 -0.41 0.14 -0.41 0.15 -0.39 0.17 -0.4 0.17 -0.38 0.19 -0.38 0.2 -0.37 0.22 -0.35 0.22 -0.35 0.23 -0.34 0.25 -0.33 0.25 -0.31 0.27 -0.3 0.28 -0.29 0.28 -0.28 0.3 -0.26 0.3 -0.25 0.31 -0.23 0.32 -0.21 0.33 -0.2 0.34 -0.17 0.34 -0.16 0.35 -0.14 0.36 -0.33 -0.12 0.15 -0.37 0.17 -0.37 0.18 -0.36 0.21 -0.35 0.22 -0.34 0.24 -0.33 0.25 -0.33 0.27 -0.31 0.29 -0.31 0.3 -0.29 0.31 -0.29 0.33 -0.27 0.33 -0.26 0.35 -0.26 0.36 -0.24 0.37 -0.23 0.38 -0.22 0.38 -0.2 0.4 -0.2 0.4 -0.18 0.41 -0.17 0.41 -0.15 0.42 -0.14 0.43 -0.13 0.43 -0.12 0.43 -0.1 0.43 -0.08 0.44 -0.07 0.44 -0.06 0.44 -0.04 0.44 -0.02 0.43 -0.01 0 0z"/>
  </g>
  <path class="fil4" d="M22.82 14.17c1.46,0 2.7,0.52 3.22,1.26 -1.9,0.89 -2.24,2.75 -3.22,2.78 -1.11,0.04 -1.63,-1.56 -3.3,-2.65 0.45,-0.81 1.76,-1.39 3.3,-1.39z"/>
  <path class="fil1" d="M22.82 14.01c0.74,0 1.43,0.13 2,0.35 0.6,0.24 1.07,0.57 1.35,0.98l0.11 0.15 -0.17 0.09c-0.97,0.45 -1.53,1.18 -1.98,1.77 -0.43,0.56 -0.77,1.01 -1.3,1.03 -0.7,0.02 -1.16,-0.5 -1.75,-1.16 -0.43,-0.49 -0.93,-1.05 -1.65,-1.52l-0.13 -0.09 0.08 -0.13c0.25,-0.44 0.72,-0.82 1.34,-1.08 0.59,-0.25 1.32,-0.39 2.1,-0.39zm1.88 0.65c-0.54,-0.21 -1.18,-0.33 -1.88,-0.33 -0.74,0 -1.42,0.14 -1.97,0.37 -0.49,0.21 -0.88,0.49 -1.11,0.81 0.68,0.48 1.17,1.02 1.58,1.5 0.53,0.59 0.95,1.06 1.5,1.04 0.38,-0.01 0.67,-0.4 1.05,-0.9 0.45,-0.58 0.99,-1.29 1.92,-1.78 -0.25,-0.28 -0.63,-0.53 -1.09,-0.71z"/>
  <path class="fil1" d="M15.73 18.04c0.48,1.22 1.11,2.16 1.88,2.81 0.75,0.62 1.64,0.97 2.66,1 0.45,0.02 0.92,-0.05 1.32,-0.2 0.34,-0.13 0.63,-0.32 0.82,-0.59 0.13,-0.33 0.18,-0.82 0.18,-1.33 0.01,-0.53 -0.03,-1.08 -0.06,-1.51l0.32 -0.02c0.03,0.43 0.07,0.98 0.07,1.53 -0.01,0.56 -0.06,1.1 -0.21,1.47l-0.01 0.02 -0.01 0.01c-0.23,0.33 -0.58,0.57 -0.98,0.72 -0.45,0.17 -0.96,0.24 -1.45,0.22 -1.1,-0.03 -2.05,-0.4 -2.86,-1.08 -0.82,-0.68 -1.48,-1.67 -1.97,-2.93l0.3 -0.12z"/>
  <path class="fil1" d="M15.88 17.98c0.23,0.6 0.51,1.13 0.81,1.59 0.31,0.45 0.65,0.84 1.02,1.15 0.37,0.3 0.76,0.54 1.19,0.7 0.43,0.16 0.89,0.25 1.38,0.27 0.22,0.01 0.44,-0.01 0.66,-0.04 0.21,-0.03 0.41,-0.08 0.6,-0.15 0.16,-0.06 0.31,-0.14 0.44,-0.23 0.11,-0.09 0.21,-0.18 0.29,-0.28 0.05,-0.16 0.09,-0.34 0.12,-0.55 0.03,-0.22 0.04,-0.46 0.04,-0.71 0.01,-0.26 0,-0.53 -0.02,-0.78 -0.01,-0.25 -0.03,-0.5 -0.05,-0.71l-0.01 -0.16 0.65 -0.06 0.01 0.17c0.02,0.2 0.04,0.45 0.05,0.72 0.02,0.26 0.02,0.54 0.02,0.82 0,0.29 -0.02,0.57 -0.05,0.82 -0.04,0.27 -0.09,0.51 -0.17,0.71l-0.02 0.03 -0.02 0.03c-0.12,0.18 -0.27,0.33 -0.44,0.46 -0.19,0.13 -0.39,0.24 -0.61,0.32 -0.23,0.09 -0.48,0.15 -0.72,0.19 -0.26,0.04 -0.53,0.06 -0.79,0.05 -0.57,-0.02 -1.09,-0.13 -1.58,-0.31 -0.5,-0.19 -0.96,-0.46 -1.38,-0.81 -0.42,-0.35 -0.8,-0.78 -1.14,-1.28 -0.33,-0.5 -0.63,-1.07 -0.89,-1.72l-0.05 -0.15 0.6 -0.24 0.06 0.15zm0.04 0.89c-0.1,-0.19 -0.19,-0.4 -0.28,-0.62 0.09,0.22 0.18,0.43 0.28,0.62zm4.37 3.14l-0.02 0 0.02 0zm1.41 -0.23l-0.02 0.01 0.02 -0.01zm0.86 -0.66l-0.01 0.02c0.05,-0.1 0.08,-0.22 0.11,-0.34 -0.03,0.12 -0.06,0.22 -0.1,0.32zm0.18 -2.19c0.01,0.18 0.01,0.37 0.02,0.55 -0.01,-0.18 -0.01,-0.37 -0.02,-0.55 -0.01,-0.19 -0.03,-0.38 -0.04,-0.56 0.01,0.17 0.03,0.36 0.04,0.56zm0.02 0.7l0 0.1 0 -0.1z"/>
  <path class="fil1" d="M14.63 19.37c0.08,-0.55 0.29,-1 0.62,-1.36 0.33,-0.35 0.77,-0.62 1.32,-0.8l0.1 0.31c-0.5,0.16 -0.89,0.4 -1.18,0.71 -0.28,0.31 -0.47,0.71 -0.54,1.19l-0.32 -0.05z"/>
  <path class="fil1" d="M14.46 19.34c0.05,-0.29 0.13,-0.55 0.24,-0.79 0.11,-0.23 0.26,-0.45 0.43,-0.64 0.18,-0.2 0.38,-0.36 0.61,-0.5 0.23,-0.14 0.5,-0.26 0.79,-0.35l0.15 -0.05 0.2 0.62 -0.16 0.05c-0.23,0.07 -0.45,0.17 -0.63,0.28 -0.19,0.11 -0.35,0.24 -0.48,0.38 -0.13,0.14 -0.24,0.31 -0.32,0.49 -0.09,0.19 -0.15,0.39 -0.19,0.61l-0.02 0.16 -0.64 -0.1 0.02 -0.16zm0.91 -1.22c-0.05,0.06 -0.09,0.11 -0.13,0.17 0.04,-0.06 0.08,-0.11 0.13,-0.17zm0.12 -0.12c-0.04,0.04 -0.08,0.08 -0.12,0.12 0.04,-0.04 0.08,-0.08 0.12,-0.12z"/>
  <path class="fil1" d="M29.96 18.26c-0.49,1.26 -1.15,2.25 -1.97,2.93 -0.81,0.67 -1.76,1.05 -2.86,1.08 -0.49,0.02 -1,-0.05 -1.45,-0.22 -0.4,-0.15 -0.75,-0.39 -0.98,-0.72l-0.01 -0.02 0 -0.01c-0.16,-0.38 -0.21,-0.92 -0.22,-1.47 0,-0.55 0.04,-1.11 0.07,-1.53l0.32 0.02c-0.03,0.43 -0.07,0.98 -0.06,1.51 0,0.51 0.05,1 0.18,1.33 0.19,0.27 0.48,0.46 0.82,0.59 0.4,0.15 0.88,0.21 1.32,0.2 1.02,-0.04 1.91,-0.38 2.66,-1.01 0.78,-0.64 1.41,-1.59 1.88,-2.8l0.3 0.12z"/>
  <path class="fil1" d="M30.12 18.32c-0.26,0.64 -0.55,1.22 -0.89,1.72 -0.34,0.5 -0.72,0.92 -1.14,1.27 -0.42,0.36 -0.88,0.63 -1.37,0.82 -0.49,0.18 -1.02,0.29 -1.59,0.3 -0.26,0.01 -0.52,0 -0.78,-0.04 -0.25,-0.04 -0.5,-0.1 -0.73,-0.19 -0.22,-0.08 -0.42,-0.19 -0.6,-0.33 -0.18,-0.12 -0.33,-0.27 -0.45,-0.45l-0.02 -0.03 -0.02 -0.03c-0.08,-0.2 -0.13,-0.44 -0.17,-0.71 -0.03,-0.26 -0.05,-0.54 -0.05,-0.82 0,-0.28 0.01,-0.56 0.02,-0.82 0.01,-0.27 0.03,-0.52 0.05,-0.73l0.01 -0.16 0.65 0.05 -0.01 0.16c-0.02,0.22 -0.04,0.47 -0.05,0.71 -0.02,0.26 -0.02,0.53 -0.02,0.78 0,0.25 0.01,0.5 0.04,0.72 0.03,0.21 0.07,0.39 0.12,0.54 0.08,0.11 0.18,0.2 0.29,0.28 0.13,0.1 0.28,0.17 0.44,0.23 0.19,0.08 0.39,0.13 0.6,0.16 0.22,0.03 0.45,0.04 0.66,0.04 0.49,-0.02 0.95,-0.11 1.38,-0.27 0.43,-0.16 0.83,-0.4 1.19,-0.7 0.37,-0.31 0.71,-0.7 1.02,-1.15 0.3,-0.46 0.58,-0.99 0.81,-1.59l0.06 -0.15 0.61 0.24 -0.06 0.15zm-0.65 0.65c0.1,-0.2 0.19,-0.4 0.28,-0.62 -0.09,0.22 -0.18,0.42 -0.28,0.62zm-4.37 3.14l0.02 0 -0.02 0zm-1.88 -0.49l0.01 0.01 -0.01 -0.01zm-0.43 -0.51l0.04 0.12 -0.04 -0.12zm-0.14 -2.09l-0.01 0.32 0.01 -0.31c0.01,-0.2 0.03,-0.39 0.04,-0.56 -0.01,0.18 -0.03,0.36 -0.04,0.55zm0.57 2.6l-0.01 -0.01 0.01 0.01z"/>
  <path class="fil1" d="M30.26 19.52c-0.08,-0.48 -0.26,-0.88 -0.55,-1.19 -0.28,-0.31 -0.68,-0.55 -1.18,-0.71l0.1 -0.31c0.55,0.18 1,0.45 1.32,0.8 0.33,0.36 0.54,0.81 0.63,1.35l-0.32 0.06z"/>
  <path class="fil1" d="M30.1 19.54c-0.03,-0.22 -0.09,-0.43 -0.18,-0.61 -0.09,-0.18 -0.19,-0.35 -0.32,-0.49 -0.14,-0.15 -0.3,-0.27 -0.48,-0.38 -0.19,-0.12 -0.4,-0.21 -0.63,-0.28l-0.16 -0.05 0.2 -0.62 0.15 0.05c0.29,0.09 0.55,0.21 0.78,0.35 0.23,0.14 0.44,0.3 0.61,0.49 0.18,0.2 0.32,0.41 0.43,0.65 0.12,0.24 0.2,0.5 0.24,0.79l0.03 0.16 -0.64 0.1 -0.03 -0.16zm-0.27 -1.32c0.05,0.05 0.09,0.1 0.13,0.16 -0.04,-0.06 -0.08,-0.11 -0.13,-0.16zm-0.12 -0.12c0.05,0.04 0.09,0.08 0.12,0.12 -0.03,-0.04 -0.07,-0.08 -0.12,-0.12z"/>
  <g>
   <path class="fil0" d="M10.86 0.17c2.65,0 4.9,1.65 5.65,3.92 -1.97,1.18 -3.55,2.86 -4.27,4.83 -0.59,0.95 -1.43,1.91 -2.14,3.1 -2.57,0.14 -5.81,-0.9 -5.61,-5.97 0.18,-3.75 3.11,-5.88 6.37,-5.88z"/>
   <path id="1" class="fil1" d="M16.6 4.24l-0.18 -0.29 -0.08 0.2 -0.07 -0.21 -0.08 -0.2 -0.09 -0.19 -0.09 -0.2 -0.11 -0.19 -0.11 -0.18 -0.12 -0.18 -0.13 -0.18 -0.13 -0.16 -0.14 -0.17 -0.15 -0.16 -0.15 -0.15 -0.16 -0.15 -0.16 -0.14 -0.17 -0.14 -0.18 -0.13 -0.18 -0.12 -0.19 -0.12 -0.19 -0.11 -0.2 -0.1 -0.2 -0.1 -0.21 -0.09 -0.21 -0.08 -0.21 -0.07 -0.22 -0.07 -0.23 -0.06 -0.22 -0.04 -0.23 -0.04 -0.23 -0.04 -0.24 -0.02 -0.24 -0.01 -0.24 -0.01 0 -0.34 0.26 0 0.25 0.02 0.25 0.02 0.24 0.04 0.24 0.04 0.24 0.05 0.24 0.06 0.23 0.07 0.23 0.08 0.22 0.08 0.22 0.1 0.21 0.1 0.21 0.11 0.2 0.11 0.2 0.13 0.2 0.13 0.18 0.14 0.18 0.14 0.18 0.15 0.17 0.16 0.16 0.16 0.16 0.17 0.15 0.18 0.14 0.18 0.13 0.18 0.13 0.19 0.12 0.2 0.11 0.2 0.1 0.21 0.1 0.21 0.08 0.21 0.08 0.22 -0.07 0.2zm0.07 -0.2l0.04 0.13 -0.11 0.07 0.07 -0.2zm-4.28 4.97l-0.29 -0.18 -0.02 0.03 0.07 -0.19 0.08 -0.18 0.08 -0.19 0.09 -0.18 0.09 -0.18 0.1 -0.18 0.09 -0.18 0.11 -0.17 0.11 -0.17 0.11 -0.17 0.12 -0.17 0.12 -0.17 0.13 -0.16 0.13 -0.16 0.13 -0.16 0.14 -0.16 0.14 -0.15 0.14 -0.15 0.15 -0.15 0.15 -0.15 0.16 -0.14 0.16 -0.14 0.16 -0.14 0.16 -0.14 0.17 -0.13 0.17 -0.13 0.17 -0.13 0.18 -0.12 0.18 -0.12 0.18 -0.12 0.18 -0.12 0.19 -0.11 0.18 0.29 -0.18 0.11 -0.18 0.11 -0.18 0.12 -0.17 0.12 -0.17 0.12 -0.17 0.12 -0.17 0.13 -0.16 0.13 -0.16 0.13 -0.16 0.14 -0.15 0.13 -0.15 0.14 -0.15 0.14 -0.14 0.15 -0.14 0.14 -0.14 0.15 -0.13 0.15 -0.13 0.16 -0.12 0.15 -0.12 0.16 -0.12 0.16 -0.11 0.16 -0.11 0.16 -0.11 0.17 -0.1 0.17 -0.1 0.16 -0.09 0.18 -0.08 0.17 -0.09 0.17 -0.07 0.18 -0.08 0.18 -0.06 0.18 -0.02 0.03zm0.02 -0.03l-0.01 0.01 -0.01 0.02 0.02 -0.03zm-2.3 3.21l-0.02 -0.34 -0.14 0.08 0.07 -0.11 0.07 -0.11 0.07 -0.11 0.07 -0.11 0.07 -0.1 0.07 -0.11 0.07 -0.11 0.07 -0.1 0.07 -0.1 0.07 -0.1 0.07 -0.1 0.07 -0.1 0.08 -0.1 0.07 -0.1 0.07 -0.1 0.07 -0.09 0.07 -0.1 0.07 -0.09 0.06 -0.09 0.07 -0.1 0.07 -0.09 0.07 -0.09 0.06 -0.09 0.07 -0.09 0.06 -0.09 0.06 -0.09 0.07 -0.09 0.06 -0.09 0.06 -0.09 0.05 -0.09 0.06 -0.09 0.06 -0.08 0.29 0.18 -0.06 0.09 -0.06 0.09 -0.06 0.09 -0.06 0.09 -0.06 0.09 -0.06 0.09 -0.07 0.1 -0.06 0.09 -0.07 0.09 -0.07 0.09 -0.06 0.09 -0.07 0.1 -0.07 0.09 -0.07 0.09 -0.07 0.1 -0.07 0.09 -0.07 0.1 -0.07 0.09 -0.07 0.1 -0.07 0.1 -0.07 0.1 -0.07 0.1 -0.07 0.1 -0.07 0.1 -0.07 0.1 -0.07 0.1 -0.07 0.1 -0.06 0.11 -0.07 0.1 -0.07 0.11 -0.07 0.11 -0.06 0.11 -0.14 0.08zm0.14 -0.08l-0.05 0.08 -0.09 0 0.14 -0.08zm-5.93 -6.06l0.34 0.01 0 0 -0.01 0.46 0.01 0.43 0.03 0.41 0.05 0.38 0.06 0.37 0.08 0.34 0.09 0.33 0.11 0.3 0.12 0.28 0.13 0.27 0.15 0.24 0.15 0.23 0.17 0.22 0.18 0.19 0.18 0.18 0.2 0.17 0.2 0.15 0.21 0.13 0.22 0.12 0.22 0.11 0.23 0.1 0.23 0.09 0.24 0.07 0.24 0.06 0.24 0.06 0.24 0.04 0.25 0.03 0.24 0.02 0.25 0.02 0.24 0 0.24 0 0.24 -0.01 0.02 0.34 -0.25 0.01 -0.25 0 -0.26 0 -0.25 -0.02 -0.26 -0.02 -0.26 -0.03 -0.25 -0.05 -0.26 -0.05 -0.26 -0.07 -0.25 -0.08 -0.25 -0.09 -0.24 -0.1 -0.24 -0.12 -0.23 -0.13 -0.23 -0.15 -0.22 -0.17 -0.22 -0.18 -0.2 -0.19 -0.19 -0.21 -0.18 -0.23 -0.17 -0.25 -0.16 -0.27 -0.14 -0.28 -0.13 -0.3 -0.12 -0.33 -0.1 -0.34 -0.08 -0.36 -0.06 -0.39 -0.05 -0.4 -0.03 -0.42 -0.01 -0.45 0.01 -0.47 0 0zm0 0l0 -0.01 0 0.01 0 0zm6.54 -6.05l0 0.34 0 0 -0.3 0.01 -0.29 0.02 -0.29 0.03 -0.29 0.04 -0.29 0.05 -0.28 0.07 -0.28 0.08 -0.27 0.08 -0.26 0.1 -0.26 0.11 -0.26 0.13 -0.25 0.13 -0.24 0.15 -0.23 0.15 -0.22 0.17 -0.22 0.17 -0.2 0.19 -0.2 0.2 -0.19 0.21 -0.18 0.22 -0.17 0.23 -0.15 0.23 -0.15 0.26 -0.13 0.25 -0.12 0.27 -0.11 0.29 -0.1 0.28 -0.08 0.31 -0.07 0.3 -0.06 0.32 -0.04 0.33 -0.02 0.34 -0.34 -0.01 0.02 -0.36 0.04 -0.35 0.06 -0.33 0.07 -0.33 0.09 -0.32 0.1 -0.3 0.12 -0.3 0.13 -0.28 0.14 -0.28 0.15 -0.26 0.17 -0.26 0.18 -0.24 0.19 -0.23 0.2 -0.23 0.21 -0.21 0.22 -0.2 0.23 -0.18 0.23 -0.18 0.25 -0.16 0.25 -0.16 0.27 -0.14 0.26 -0.13 0.28 -0.11 0.28 -0.11 0.28 -0.09 0.3 -0.08 0.29 -0.07 0.3 -0.06 0.31 -0.04 0.3 -0.03 0.31 -0.02 0.31 -0.01 0 0z"/>
  </g>
  <g>
   <path class="fil0" d="M34.74 0.2c-2.65,0 -4.89,1.65 -5.64,3.92 1.49,0.89 2.75,2.06 3.59,3.44 0.63,0.85 1.2,1.79 1.66,2.8 0.39,0.52 0.79,1.08 1.16,1.69 2.57,0.14 5.81,-0.9 5.61,-5.97 -0.18,-3.75 -3.11,-5.88 -6.38,-5.88z"/>
   <path id="1" class="fil1" d="M29.19 3.97l-0.18 0.3 -0.07 -0.2 0.07 -0.22 0.09 -0.22 0.09 -0.21 0.11 -0.2 0.11 -0.2 0.12 -0.2 0.12 -0.19 0.14 -0.18 0.14 -0.18 0.15 -0.18 0.16 -0.17 0.16 -0.16 0.17 -0.16 0.17 -0.15 0.18 -0.14 0.19 -0.14 0.19 -0.13 0.2 -0.13 0.21 -0.11 0.2 -0.11 0.22 -0.1 0.22 -0.1 0.22 -0.08 0.23 -0.08 0.23 -0.07 0.23 -0.06 0.24 -0.05 0.25 -0.04 0.24 -0.04 0.25 -0.02 0.25 -0.02 0.25 0 0 0.34 -0.24 0.01 -0.23 0.01 -0.24 0.02 -0.23 0.04 -0.23 0.04 -0.23 0.04 -0.22 0.06 -0.22 0.07 -0.21 0.07 -0.21 0.08 -0.21 0.09 -0.2 0.09 -0.2 0.11 -0.19 0.11 -0.19 0.11 -0.18 0.13 -0.18 0.13 -0.17 0.13 -0.16 0.15 -0.16 0.15 -0.16 0.15 -0.14 0.16 -0.14 0.16 -0.14 0.17 -0.12 0.18 -0.12 0.18 -0.11 0.18 -0.11 0.19 -0.1 0.19 -0.08 0.2 -0.09 0.2 -0.07 0.2 -0.07 -0.2zm-0.18 0.3l-0.12 -0.07 0.05 -0.13 0.07 0.2zm3.82 3.18l-0.28 0.21 -0.01 -0.01 -0.08 -0.13 -0.08 -0.13 -0.08 -0.12 -0.09 -0.12 -0.08 -0.12 -0.09 -0.12 -0.09 -0.12 -0.1 -0.12 -0.1 -0.11 -0.1 -0.12 -0.1 -0.11 -0.1 -0.11 -0.1 -0.11 -0.11 -0.11 -0.11 -0.11 -0.11 -0.11 -0.11 -0.1 -0.12 -0.11 -0.11 -0.1 -0.12 -0.1 -0.12 -0.1 -0.12 -0.1 -0.13 -0.1 -0.12 -0.09 -0.13 -0.1 -0.13 -0.09 -0.13 -0.09 -0.13 -0.09 -0.13 -0.09 -0.14 -0.08 -0.13 -0.09 -0.14 -0.08 0.18 -0.3 0.14 0.09 0.14 0.09 0.13 0.08 0.14 0.1 0.14 0.09 0.13 0.09 0.13 0.1 0.13 0.09 0.13 0.1 0.13 0.1 0.12 0.1 0.13 0.11 0.12 0.1 0.12 0.11 0.12 0.1 0.12 0.11 0.11 0.11 0.11 0.12 0.11 0.11 0.11 0.11 0.11 0.12 0.1 0.12 0.1 0.12 0.11 0.12 0.09 0.12 0.1 0.12 0.09 0.13 0.09 0.12 0.09 0.13 0.09 0.13 0.08 0.12 0.08 0.14 0 -0.02zm-0.28 0.21l-0.01 -0.01 0.01 0.01 0 0zm1.94 2.6l-0.27 0.2 -0.02 -0.03 -0.05 -0.09 -0.04 -0.1 -0.04 -0.09 -0.05 -0.09 -0.05 -0.09 -0.04 -0.09 -0.05 -0.1 -0.05 -0.09 -0.04 -0.09 -0.05 -0.09 -0.05 -0.09 -0.05 -0.08 -0.05 -0.09 -0.05 -0.09 -0.05 -0.09 -0.05 -0.09 -0.05 -0.08 -0.06 -0.09 -0.05 -0.08 -0.05 -0.09 -0.06 -0.08 -0.05 -0.09 -0.06 -0.08 -0.05 -0.08 -0.06 -0.09 -0.05 -0.08 -0.06 -0.08 -0.06 -0.08 -0.05 -0.08 -0.06 -0.08 -0.06 -0.08 -0.06 -0.08 0.28 -0.21 0.06 0.08 0.06 0.09 0.06 0.08 0.05 0.08 0.06 0.08 0.06 0.09 0.06 0.08 0.05 0.08 0.06 0.09 0.06 0.09 0.05 0.08 0.06 0.09 0.05 0.09 0.06 0.08 0.05 0.09 0.05 0.09 0.06 0.09 0.05 0.09 0.05 0.09 0.05 0.09 0.05 0.09 0.05 0.09 0.05 0.09 0.05 0.09 0.05 0.1 0.04 0.09 0.05 0.09 0.05 0.1 0.04 0.09 0.05 0.1 0.05 0.09 0.04 0.1 -0.02 -0.03zm-0.27 0.2l-0.01 -0.01 -0.01 -0.02 0.02 0.03zm1.3 1.42l-0.02 0.34 -0.14 -0.08 -0.03 -0.06 -0.04 -0.05 -0.03 -0.06 -0.04 -0.06 -0.03 -0.05 -0.04 -0.06 -0.03 -0.05 -0.04 -0.06 -0.03 -0.05 -0.04 -0.05 -0.03 -0.06 -0.04 -0.05 -0.04 -0.05 -0.03 -0.06 -0.04 -0.05 -0.03 -0.05 -0.04 -0.05 -0.04 -0.06 -0.03 -0.05 -0.04 -0.05 -0.04 -0.05 -0.03 -0.05 -0.04 -0.05 -0.03 -0.05 -0.04 -0.05 -0.04 -0.05 -0.03 -0.05 -0.04 -0.05 -0.04 -0.05 -0.03 -0.05 -0.04 -0.05 -0.03 -0.05 0.27 -0.2 0.04 0.05 0.04 0.05 0.03 0.05 0.04 0.05 0.03 0.05 0.04 0.05 0.04 0.05 0.03 0.05 0.04 0.05 0.04 0.05 0.03 0.05 0.04 0.05 0.04 0.05 0.03 0.06 0.04 0.05 0.04 0.05 0.03 0.06 0.04 0.05 0.04 0.05 0.03 0.06 0.04 0.05 0.04 0.06 0.03 0.05 0.04 0.06 0.04 0.05 0.03 0.06 0.04 0.05 0.03 0.06 0.04 0.06 0.04 0.06 0.03 0.05 0.04 0.06 -0.14 -0.08zm-0.02 0.34l-0.09 0 -0.05 -0.08 0.14 0.08zm5.45 -6.13l0.34 -0.02 0 0 0.01 0.47 -0.01 0.45 -0.03 0.43 -0.05 0.4 -0.06 0.39 -0.09 0.36 -0.1 0.34 -0.11 0.32 -0.13 0.31 -0.14 0.28 -0.16 0.27 -0.17 0.25 -0.18 0.23 -0.2 0.21 -0.2 0.19 -0.21 0.18 -0.22 0.17 -0.23 0.14 -0.23 0.14 -0.24 0.12 -0.25 0.1 -0.25 0.09 -0.25 0.08 -0.25 0.07 -0.26 0.05 -0.26 0.05 -0.25 0.03 -0.26 0.02 -0.26 0.02 -0.25 0 -0.25 0 -0.25 -0.01 0.02 -0.34 0.24 0.01 0.24 0 0.24 -0.01 0.24 -0.01 0.25 -0.02 0.24 -0.03 0.25 -0.05 0.24 -0.05 0.24 -0.06 0.23 -0.07 0.24 -0.09 0.22 -0.1 0.23 -0.11 0.21 -0.12 0.21 -0.14 0.21 -0.15 0.19 -0.16 0.19 -0.18 0.18 -0.2 0.16 -0.21 0.16 -0.23 0.14 -0.24 0.14 -0.27 0.12 -0.28 0.11 -0.3 0.09 -0.33 0.08 -0.34 0.06 -0.37 0.05 -0.38 0.03 -0.41 0.01 -0.44 -0.01 -0.45 0 0zm0.34 -0.02l0 0 0 0 0 0zm-6.55 -5.7l0 -0.34 0 0 0.32 0 0.31 0.02 0.3 0.04 0.31 0.04 0.3 0.06 0.29 0.06 0.29 0.09 0.29 0.09 0.28 0.1 0.27 0.12 0.27 0.13 0.26 0.14 0.26 0.16 0.24 0.16 0.24 0.18 0.23 0.18 0.22 0.2 0.21 0.21 0.2 0.22 0.19 0.24 0.18 0.24 0.16 0.25 0.16 0.27 0.14 0.27 0.13 0.29 0.11 0.3 0.1 0.3 0.09 0.32 0.08 0.32 0.05 0.34 0.04 0.35 0.03 0.35 -0.34 0.02 -0.03 -0.34 -0.04 -0.33 -0.05 -0.32 -0.07 -0.31 -0.08 -0.3 -0.1 -0.29 -0.11 -0.28 -0.12 -0.27 -0.13 -0.26 -0.15 -0.25 -0.16 -0.23 -0.16 -0.23 -0.18 -0.22 -0.19 -0.21 -0.2 -0.2 -0.2 -0.19 -0.22 -0.17 -0.22 -0.17 -0.24 -0.15 -0.24 -0.15 -0.24 -0.13 -0.26 -0.13 -0.26 -0.11 -0.27 -0.1 -0.27 -0.09 -0.27 -0.07 -0.28 -0.07 -0.29 -0.05 -0.29 -0.04 -0.29 -0.03 -0.3 -0.02 -0.3 -0.01 0 0z"/>
  </g>
  <path class="fil4" d="M20.59 9.02c0.49,0 0.8,0.68 0.7,1.51 -0.1,0.83 -0.02,1.36 -1.06,1.51 -1.04,0.15 -1.17,-0.6 -1.07,-1.43 0.1,-0.84 0.94,-1.59 1.43,-1.59z"/>
  <path class="fil1" d="M20.59 8.86l0.08 0.01c0.25,0.03 0.46,0.19 0.6,0.45 0.13,0.24 0.2,0.56 0.2,0.91 0,0.1 -0.01,0.21 -0.02,0.32l-0.03 0.27c-0.07,0.75 -0.12,1.23 -1.17,1.38 -0.6,0.08 -0.94,-0.1 -1.13,-0.43 -0.16,-0.31 -0.18,-0.74 -0.12,-1.18 0.05,-0.43 0.27,-0.83 0.55,-1.13 0.32,-0.36 0.73,-0.6 1.04,-0.6zm0.04 0.33l-0.04 0c-0.22,0 -0.54,0.19 -0.8,0.49 -0.24,0.26 -0.43,0.59 -0.47,0.94 -0.05,0.39 -0.04,0.75 0.09,0.99 0.12,0.22 0.36,0.33 0.8,0.27 0.79,-0.11 0.83,-0.5 0.89,-1.1l0.03 -0.27c0.01,-0.09 0.02,-0.19 0.02,-0.28 0,-0.3 -0.06,-0.56 -0.17,-0.75 -0.09,-0.17 -0.21,-0.28 -0.35,-0.29z"/>
  <path class="fil4" d="M25.12 9.03c-0.49,0 -0.8,0.68 -0.7,1.51 0.1,0.83 0.02,1.36 1.06,1.51 1.04,0.14 1.17,-0.6 1.07,-1.44 -0.1,-0.83 -0.94,-1.58 -1.43,-1.58z"/>
  <path class="fil1" d="M25.12 9.19l-0.04 0.01c-0.14,0.01 -0.27,0.12 -0.36,0.29 -0.1,0.19 -0.16,0.45 -0.16,0.75 0,0.09 0.01,0.19 0.02,0.28l0.03 0.27c0.06,0.6 0.09,0.99 0.89,1.1 0.44,0.06 0.68,-0.06 0.8,-0.27 0.13,-0.24 0.13,-0.6 0.09,-0.99 -0.04,-0.35 -0.23,-0.69 -0.47,-0.95 -0.27,-0.29 -0.58,-0.49 -0.8,-0.49zm-0.08 -0.32l0.08 0c0.3,0 0.72,0.24 1.04,0.6 0.28,0.3 0.5,0.7 0.55,1.12 0.05,0.45 0.04,0.88 -0.13,1.19 -0.18,0.33 -0.52,0.51 -1.12,0.43 -1.05,-0.15 -1.1,-0.63 -1.18,-1.39l-0.02 -0.26c-0.02,-0.11 -0.02,-0.22 -0.02,-0.32 0,-0.36 0.07,-0.67 0.2,-0.91 0.14,-0.26 0.35,-0.43 0.6,-0.46z"/>
  <g>
   <path class="fil5" d="M11.09 4.96c1.18,0 2.11,0.78 2.5,1.61 -0.58,0.72 -1.04,1.51 -1.35,2.35 -0.23,0.36 -0.49,0.73 -0.77,1.11 -0.04,0 0.58,0 -0.13,0 -0.7,0 -2.73,-1.29 -2.73,-2.64 0,-1.34 1.3,-2.43 2.48,-2.43z"/>
   <path id="1" class="fil1" d="M13.73 6.68l-0.27 -0.21 -0.02 0.18 -0.04 -0.08 -0.04 -0.07 -0.04 -0.07 -0.04 -0.07 -0.05 -0.07 -0.05 -0.07 -0.05 -0.07 -0.06 -0.07 -0.06 -0.06 -0.06 -0.07 -0.06 -0.06 -0.07 -0.07 -0.06 -0.06 -0.07 -0.05 -0.08 -0.06 -0.07 -0.06 -0.08 -0.05 -0.07 -0.04 -0.09 -0.05 -0.08 -0.05 -0.08 -0.04 -0.09 -0.04 -0.09 -0.03 -0.09 -0.03 -0.09 -0.03 -0.09 -0.03 -0.1 -0.02 -0.09 -0.02 -0.1 -0.01 -0.1 -0.01 -0.11 -0.01 -0.1 0 0 -0.34 0.12 0 0.11 0.01 0.12 0.01 0.11 0.02 0.11 0.02 0.11 0.02 0.11 0.03 0.1 0.03 0.1 0.04 0.1 0.04 0.1 0.04 0.1 0.05 0.09 0.05 0.09 0.05 0.09 0.06 0.09 0.05 0.08 0.07 0.08 0.06 0.08 0.06 0.08 0.07 0.07 0.07 0.07 0.07 0.07 0.08 0.06 0.07 0.07 0.08 0.06 0.07 0.05 0.08 0.06 0.08 0.05 0.08 0.04 0.09 0.05 0.08 0.04 0.08 -0.02 0.18zm0.02 -0.18l0.05 0.1 -0.07 0.08 0.02 -0.18zm-1.36 2.51l-0.29 -0.18 -0.02 0.03 0.03 -0.08 0.03 -0.08 0.03 -0.08 0.04 -0.08 0.03 -0.08 0.03 -0.08 0.04 -0.08 0.04 -0.07 0.03 -0.08 0.04 -0.08 0.04 -0.08 0.04 -0.07 0.04 -0.08 0.04 -0.08 0.04 -0.07 0.05 -0.08 0.04 -0.07 0.04 -0.07 0.05 -0.08 0.05 -0.07 0.04 -0.08 0.05 -0.07 0.05 -0.07 0.05 -0.07 0.05 -0.07 0.05 -0.08 0.05 -0.07 0.05 -0.07 0.06 -0.07 0.05 -0.07 0.06 -0.07 0.05 -0.06 0.27 0.21 -0.06 0.07 -0.05 0.06 -0.05 0.07 -0.05 0.07 -0.05 0.07 -0.05 0.07 -0.05 0.06 -0.05 0.07 -0.04 0.07 -0.05 0.07 -0.05 0.07 -0.04 0.07 -0.05 0.07 -0.04 0.07 -0.04 0.07 -0.05 0.08 -0.04 0.07 -0.04 0.07 -0.04 0.07 -0.04 0.08 -0.03 0.07 -0.04 0.07 -0.04 0.08 -0.03 0.07 -0.04 0.08 -0.03 0.07 -0.03 0.08 -0.04 0.07 -0.03 0.08 -0.03 0.07 -0.03 0.08 -0.02 0.08 -0.02 0.03zm0.02 -0.03l-0.01 0.01 -0.01 0.02 0.02 -0.03zm-0.93 1.22l-0.02 -0.34 -0.13 0.07 0.03 -0.04 0.02 -0.03 0.03 -0.03 0.03 -0.04 0.02 -0.04 0.03 -0.03 0.02 -0.04 0.03 -0.03 0.02 -0.04 0.03 -0.03 0.02 -0.04 0.03 -0.03 0.02 -0.04 0.03 -0.03 0.02 -0.03 0.03 -0.04 0.02 -0.04 0.02 -0.03 0.03 -0.03 0.02 -0.04 0.03 -0.03 0.02 -0.04 0.02 -0.03 0.02 -0.03 0.03 -0.04 0.02 -0.03 0.02 -0.03 0.02 -0.04 0.03 -0.03 0.02 -0.04 0.02 -0.03 0.02 -0.03 0.29 0.18 -0.02 0.03 -0.02 0.04 -0.03 0.03 -0.02 0.04 -0.02 0.03 -0.02 0.04 -0.03 0.03 -0.02 0.04 -0.02 0.03 -0.03 0.04 -0.02 0.03 -0.03 0.04 -0.02 0.03 -0.02 0.04 -0.03 0.03 -0.02 0.04 -0.03 0.03 -0.02 0.04 -0.03 0.03 -0.02 0.04 -0.03 0.03 -0.02 0.04 -0.03 0.03 -0.02 0.04 -0.03 0.04 -0.02 0.03 -0.03 0.03 -0.03 0.04 -0.02 0.03 -0.03 0.04 -0.02 0.04 -0.03 0.03 -0.13 0.07zm0.13 -0.07l-0.05 0.07 -0.08 0 0.13 -0.07zm-0.27 0.08l0 -0.35 0 0 0.07 0 0.05 0 0.05 0 0.04 0 0.04 0 0.03 0 0.02 0 0.02 0 0.01 0 0.01 0 0 0 0 0.35 -0.02 0 0 0 0.01 0 -0.01 0 -0.02 0 -0.01 0 -0.01 0 -0.02 0 -0.02 0 -0.02 0 -0.02 -0.01 -0.01 0 -0.01 0 -0.01 0 -0.02 0 -0.01 0 -0.02 0 -0.02 0 0.02 -0.34 0 0 0.02 0.34 0 0 0.03 -0.34 -0.02 0 -0.01 0 0.01 0 0.02 0 0.01 0 0.01 0 0.03 0 0.01 0 0.01 0 0.02 0 0.02 0 0.01 0 0.01 0 0.02 0 0.01 0 0.02 0 0.02 0 -0.03 0 0 0.35 0 0 -0.01 0 -0.01 0 -0.02 0 -0.02 0 -0.03 0 -0.04 0 -0.04 0 -0.05 0 -0.05 0 -0.07 0 0 0zm-2.9 -2.82l0.34 0 0 0 0.01 0.11 0.01 0.12 0.03 0.11 0.03 0.11 0.05 0.11 0.05 0.11 0.06 0.11 0.06 0.11 0.08 0.11 0.08 0.1 0.09 0.11 0.09 0.1 0.09 0.1 0.1 0.1 0.11 0.1 0.1 0.09 0.11 0.08 0.11 0.09 0.11 0.07 0.11 0.08 0.11 0.07 0.11 0.06 0.11 0.06 0.11 0.06 0.1 0.05 0.1 0.04 0.09 0.03 0.09 0.03 0.08 0.02 0.07 0.02 0.06 0.01 0.05 0 0 0.35 -0.08 -0.01 -0.09 -0.01 -0.1 -0.02 -0.1 -0.03 -0.1 -0.03 -0.1 -0.04 -0.11 -0.05 -0.12 -0.06 -0.11 -0.05 -0.12 -0.07 -0.12 -0.07 -0.11 -0.07 -0.12 -0.08 -0.12 -0.09 -0.12 -0.09 -0.12 -0.09 -0.11 -0.1 -0.11 -0.1 -0.11 -0.1 -0.11 -0.11 -0.1 -0.12 -0.09 -0.11 -0.09 -0.12 -0.08 -0.12 -0.08 -0.13 -0.07 -0.13 -0.06 -0.13 -0.05 -0.13 -0.04 -0.14 -0.03 -0.13 -0.02 -0.15 -0.01 -0.14 0 0zm2.65 -2.6l0 0.34 0 0 -0.1 0 -0.1 0.01 -0.1 0.02 -0.11 0.02 -0.1 0.02 -0.1 0.03 -0.1 0.04 -0.11 0.04 -0.1 0.04 -0.1 0.05 -0.09 0.06 -0.1 0.06 -0.09 0.06 -0.09 0.07 -0.09 0.07 -0.09 0.08 -0.08 0.08 -0.07 0.08 -0.08 0.09 -0.07 0.09 -0.06 0.09 -0.06 0.09 -0.06 0.1 -0.05 0.1 -0.05 0.1 -0.04 0.11 -0.03 0.1 -0.03 0.11 -0.03 0.11 -0.01 0.11 -0.01 0.12 -0.01 0.11 -0.34 0 0 -0.13 0.02 -0.14 0.02 -0.13 0.02 -0.13 0.04 -0.12 0.04 -0.13 0.05 -0.12 0.05 -0.12 0.06 -0.12 0.06 -0.11 0.07 -0.1 0.08 -0.11 0.08 -0.1 0.08 -0.1 0.09 -0.09 0.09 -0.09 0.1 -0.09 0.1 -0.08 0.1 -0.08 0.1 -0.07 0.11 -0.07 0.11 -0.06 0.11 -0.06 0.12 -0.05 0.11 -0.04 0.12 -0.04 0.12 -0.04 0.12 -0.03 0.12 -0.02 0.12 -0.02 0.12 -0.01 0.12 0 0 0z"/>
  </g>
  <g>
   <path class="fil5" d="M34.51 4.99c-1.18,0 -2.1,0.78 -2.5,1.61 0.25,0.31 0.48,0.62 0.68,0.95 0.57,0.77 1.08,1.61 1.52,2.51l0.05 0c0.71,0 2.73,-1.29 2.73,-2.64 0,-1.34 -1.29,-2.43 -2.48,-2.43z"/>
   <path id="1" class="fil1" d="M32.15 6.49l-0.27 0.22 -0.02 -0.18 0.04 -0.08 0.04 -0.09 0.05 -0.08 0.05 -0.08 0.05 -0.08 0.06 -0.08 0.06 -0.08 0.06 -0.07 0.07 -0.08 0.07 -0.07 0.07 -0.07 0.07 -0.07 0.08 -0.07 0.08 -0.06 0.08 -0.07 0.08 -0.06 0.09 -0.06 0.08 -0.05 0.1 -0.05 0.09 -0.05 0.1 -0.05 0.09 -0.04 0.1 -0.04 0.11 -0.04 0.1 -0.03 0.11 -0.03 0.1 -0.03 0.12 -0.02 0.11 -0.01 0.11 -0.01 0.12 -0.01 0.11 0 0 0.34 -0.1 0 -0.1 0.01 -0.1 0.01 -0.1 0.01 -0.09 0.02 -0.1 0.02 -0.09 0.03 -0.1 0.03 -0.09 0.03 -0.08 0.03 -0.09 0.04 -0.09 0.04 -0.08 0.05 -0.08 0.04 -0.08 0.05 -0.07 0.05 -0.08 0.06 -0.07 0.05 -0.07 0.06 -0.07 0.06 -0.06 0.06 -0.07 0.07 -0.06 0.06 -0.05 0.07 -0.06 0.07 -0.05 0.07 -0.05 0.07 -0.05 0.07 -0.05 0.07 -0.04 0.07 -0.04 0.07 -0.03 0.08 -0.02 -0.19zm-0.27 0.22l-0.07 -0.08 0.05 -0.1 0.02 0.18zm0.95 0.74l-0.28 0.21 -0.01 -0.02 -0.02 -0.03 -0.01 -0.03 -0.03 -0.03 -0.01 -0.03 -0.02 -0.03 -0.02 -0.03 -0.02 -0.03 -0.02 -0.03 -0.02 -0.03 -0.02 -0.02 -0.02 -0.03 -0.02 -0.03 -0.02 -0.03 -0.02 -0.03 -0.02 -0.03 -0.02 -0.03 -0.02 -0.03 -0.02 -0.03 -0.03 -0.03 -0.02 -0.03 -0.02 -0.03 -0.02 -0.03 -0.02 -0.02 -0.02 -0.03 -0.02 -0.03 -0.03 -0.03 -0.02 -0.03 -0.02 -0.03 -0.02 -0.02 -0.02 -0.03 -0.03 -0.03 -0.02 -0.03 0.27 -0.22 0.02 0.03 0.02 0.03 0.03 0.03 0.02 0.03 0.02 0.03 0.02 0.03 0.03 0.03 0.02 0.03 0.02 0.03 0.02 0.03 0.03 0.03 0.02 0.03 0.02 0.03 0.02 0.03 0.03 0.03 0.02 0.03 0.02 0.03 0.02 0.03 0.02 0.03 0.02 0.03 0.02 0.03 0.02 0.03 0.02 0.03 0.03 0.04 0.02 0.02 0.02 0.04 0.02 0.03 0.02 0.03 0.02 0.03 0.02 0.03 0.01 0.03 0.02 0.03 0 -0.01zm-0.28 0.21l-0.01 -0.01 0 -0.01 0.01 0.02zm1.66 2.23l0 0.34 -0.15 -0.09 -0.04 -0.09 -0.04 -0.08 -0.05 -0.08 -0.04 -0.08 -0.04 -0.09 -0.04 -0.08 -0.05 -0.08 -0.04 -0.08 -0.04 -0.08 -0.05 -0.08 -0.05 -0.08 -0.04 -0.08 -0.05 -0.08 -0.04 -0.07 -0.05 -0.08 -0.05 -0.08 -0.04 -0.08 -0.05 -0.08 -0.05 -0.07 -0.05 -0.08 -0.05 -0.07 -0.05 -0.08 -0.05 -0.07 -0.05 -0.08 -0.05 -0.07 -0.05 -0.08 -0.05 -0.07 -0.05 -0.08 -0.05 -0.07 -0.05 -0.07 -0.06 -0.07 -0.05 -0.07 0.28 -0.21 0.05 0.07 0.05 0.08 0.06 0.07 0.05 0.08 0.05 0.07 0.06 0.08 0.05 0.07 0.05 0.08 0.05 0.08 0.05 0.07 0.05 0.08 0.05 0.08 0.05 0.07 0.05 0.08 0.05 0.08 0.05 0.08 0.05 0.08 0.04 0.08 0.05 0.08 0.05 0.08 0.04 0.08 0.05 0.08 0.05 0.08 0.04 0.09 0.05 0.08 0.04 0.08 0.04 0.09 0.05 0.08 0.04 0.08 0.04 0.09 0.05 0.08 0.04 0.09 -0.16 -0.1zm0 0.34l-0.1 0 -0.05 -0.09 0.15 0.09zm0.05 0l-0.05 0 0 -0.34 0.05 0 0 0 0 0.34zm2.56 -2.81l0.35 0 0 0 -0.01 0.14 -0.02 0.14 -0.03 0.14 -0.04 0.14 -0.05 0.13 -0.06 0.13 -0.07 0.13 -0.08 0.12 -0.08 0.13 -0.09 0.12 -0.1 0.11 -0.1 0.11 -0.1 0.11 -0.11 0.11 -0.11 0.1 -0.12 0.1 -0.11 0.09 -0.12 0.09 -0.12 0.09 -0.12 0.08 -0.12 0.07 -0.12 0.07 -0.11 0.06 -0.12 0.06 -0.11 0.06 -0.11 0.04 -0.11 0.04 -0.1 0.04 -0.09 0.03 -0.1 0.02 -0.09 0.01 -0.09 0 0 -0.34 0.05 0 0.07 -0.01 0.07 -0.02 0.08 -0.02 0.09 -0.03 0.09 -0.04 0.1 -0.04 0.1 -0.05 0.11 -0.05 0.1 -0.06 0.11 -0.06 0.11 -0.07 0.11 -0.08 0.11 -0.08 0.12 -0.08 0.1 -0.09 0.11 -0.09 0.1 -0.09 0.1 -0.1 0.1 -0.1 0.09 -0.1 0.09 -0.11 0.08 -0.1 0.07 -0.11 0.07 -0.11 0.06 -0.11 0.05 -0.11 0.04 -0.11 0.04 -0.12 0.02 -0.11 0.02 -0.11 0 -0.11 0 0zm-2.31 -2.26l0 -0.34 0 0 0.13 0 0.12 0.01 0.12 0.02 0.12 0.02 0.12 0.03 0.12 0.03 0.11 0.04 0.12 0.05 0.11 0.05 0.12 0.06 0.11 0.06 0.1 0.07 0.11 0.07 0.1 0.08 0.1 0.08 0.1 0.09 0.09 0.09 0.09 0.09 0.08 0.1 0.08 0.1 0.07 0.1 0.07 0.11 0.07 0.11 0.06 0.12 0.05 0.12 0.05 0.12 0.04 0.12 0.03 0.13 0.03 0.13 0.02 0.13 0.01 0.14 0.01 0.13 -0.35 0 0 -0.11 -0.01 -0.12 -0.02 -0.11 -0.02 -0.11 -0.03 -0.11 -0.03 -0.1 -0.04 -0.11 -0.05 -0.1 -0.05 -0.1 -0.06 -0.1 -0.06 -0.09 -0.07 -0.1 -0.06 -0.08 -0.08 -0.09 -0.08 -0.09 -0.08 -0.07 -0.08 -0.08 -0.09 -0.07 -0.09 -0.07 -0.09 -0.06 -0.1 -0.06 -0.1 -0.06 -0.1 -0.05 -0.1 -0.04 -0.1 -0.04 -0.1 -0.04 -0.1 -0.03 -0.11 -0.03 -0.1 -0.02 -0.1 -0.01 -0.1 -0.01 -0.11 0 0 0z"/>
  </g>
  <g>
   <path class="fil2" d="M19.35 27.2c1.28,0 3.64,1.28 3.64,2.8 0,1.52 -3.19,2.89 -4.47,2.89 -1.28,0 -2,-1.21 -1.48,-2.94 0.51,-1.72 1.03,-2.75 2.31,-2.75zm7.63 -0.07c-1.28,0 -3.64,1.28 -3.64,2.8 0,1.52 3.19,2.9 4.47,2.9 1.28,0 2,-1.22 1.49,-2.94 -0.51,-1.73 -1.04,-2.76 -2.32,-2.76z"/>
   <path id="1" class="fil1" d="M23.17 30l-0.35 0 0 0 -0.01 -0.13 -0.01 -0.12 -0.03 -0.12 -0.04 -0.13 -0.05 -0.12 -0.06 -0.12 -0.08 -0.12 -0.07 -0.12 -0.09 -0.12 -0.1 -0.11 -0.11 -0.11 -0.11 -0.11 -0.12 -0.1 -0.12 -0.11 -0.13 -0.1 -0.13 -0.09 -0.14 -0.09 -0.14 -0.08 -0.14 -0.09 -0.15 -0.07 -0.15 -0.07 -0.14 -0.07 -0.15 -0.06 -0.15 -0.06 -0.14 -0.04 -0.14 -0.05 -0.14 -0.03 -0.14 -0.04 -0.13 -0.02 -0.12 -0.02 -0.12 -0.01 -0.12 0 0 -0.34 0.14 0 0.14 0.01 0.14 0.02 0.14 0.03 0.15 0.03 0.15 0.04 0.16 0.05 0.15 0.05 0.16 0.06 0.15 0.06 0.16 0.07 0.16 0.08 0.15 0.08 0.15 0.09 0.15 0.09 0.15 0.1 0.15 0.1 0.14 0.1 0.13 0.11 0.13 0.12 0.12 0.12 0.12 0.12 0.11 0.13 0.1 0.13 0.09 0.14 0.08 0.13 0.07 0.15 0.06 0.14 0.05 0.15 0.04 0.16 0.02 0.15 0.01 0.16 0 0zm-4.65 3.07l0 -0.35 0 0 0.12 0 0.13 -0.01 0.13 -0.02 0.15 -0.03 0.16 -0.03 0.16 -0.04 0.17 -0.05 0.17 -0.05 0.18 -0.06 0.18 -0.06 0.18 -0.07 0.18 -0.08 0.19 -0.08 0.18 -0.09 0.18 -0.09 0.18 -0.09 0.17 -0.1 0.17 -0.11 0.16 -0.1 0.15 -0.11 0.15 -0.12 0.14 -0.11 0.13 -0.12 0.12 -0.12 0.11 -0.12 0.09 -0.13 0.08 -0.12 0.07 -0.12 0.05 -0.13 0.04 -0.12 0.02 -0.12 0.01 -0.12 0.35 0 -0.01 0.16 -0.03 0.17 -0.05 0.15 -0.07 0.16 -0.08 0.15 -0.1 0.14 -0.11 0.14 -0.12 0.14 -0.13 0.14 -0.14 0.13 -0.15 0.12 -0.16 0.12 -0.17 0.12 -0.17 0.11 -0.17 0.11 -0.19 0.11 -0.18 0.1 -0.19 0.09 -0.19 0.09 -0.19 0.09 -0.19 0.08 -0.19 0.07 -0.19 0.07 -0.18 0.06 -0.19 0.05 -0.17 0.05 -0.18 0.05 -0.16 0.03 -0.16 0.03 -0.15 0.02 -0.15 0.01 -0.14 0.01 0 0zm-1.65 -3.16l0.33 0.09 0 0 -0.04 0.16 -0.04 0.15 -0.03 0.15 -0.02 0.14 -0.01 0.14 -0.02 0.14 0 0.13 0 0.13 0.01 0.12 0.02 0.12 0.02 0.11 0.02 0.11 0.03 0.11 0.04 0.1 0.04 0.09 0.04 0.09 0.05 0.09 0.05 0.08 0.06 0.07 0.06 0.07 0.07 0.06 0.07 0.07 0.07 0.05 0.08 0.05 0.08 0.04 0.08 0.04 0.09 0.03 0.1 0.03 0.09 0.02 0.1 0.02 0.11 0.01 0.1 0 0 0.35 -0.12 -0.01 -0.13 -0.01 -0.12 -0.02 -0.12 -0.03 -0.12 -0.03 -0.11 -0.04 -0.11 -0.05 -0.1 -0.05 -0.1 -0.07 -0.09 -0.07 -0.09 -0.07 -0.08 -0.08 -0.08 -0.09 -0.07 -0.09 -0.07 -0.1 -0.06 -0.11 -0.05 -0.11 -0.05 -0.11 -0.04 -0.12 -0.03 -0.12 -0.03 -0.13 -0.03 -0.13 -0.01 -0.14 -0.01 -0.14 0 -0.14 0 -0.15 0.01 -0.15 0.02 -0.16 0.02 -0.15 0.03 -0.16 0.04 -0.17 0.05 -0.16 0 0zm2.48 -2.88l0 0.34 0 0 -0.1 0 -0.11 0.01 -0.1 0.01 -0.09 0.02 -0.09 0.03 -0.09 0.03 -0.09 0.03 -0.08 0.04 -0.08 0.04 -0.07 0.05 -0.07 0.05 -0.07 0.06 -0.07 0.07 -0.07 0.07 -0.06 0.07 -0.06 0.08 -0.07 0.09 -0.06 0.09 -0.05 0.09 -0.06 0.11 -0.06 0.1 -0.05 0.11 -0.05 0.12 -0.06 0.12 -0.05 0.13 -0.05 0.13 -0.05 0.13 -0.05 0.15 -0.05 0.14 -0.04 0.15 -0.05 0.16 -0.05 0.15 -0.33 -0.09 0.05 -0.16 0.05 -0.16 0.05 -0.16 0.05 -0.15 0.05 -0.14 0.05 -0.14 0.05 -0.14 0.05 -0.13 0.06 -0.13 0.06 -0.12 0.05 -0.12 0.06 -0.12 0.07 -0.11 0.06 -0.1 0.07 -0.11 0.07 -0.09 0.07 -0.1 0.08 -0.08 0.08 -0.09 0.08 -0.07 0.08 -0.08 0.09 -0.06 0.1 -0.06 0.09 -0.06 0.1 -0.04 0.11 -0.05 0.11 -0.03 0.11 -0.03 0.11 -0.03 0.12 -0.01 0.13 -0.01 0.12 0 0 0zm4.16 2.9l-0.34 0 0 0 0 -0.16 0.03 -0.15 0.03 -0.16 0.05 -0.15 0.06 -0.14 0.08 -0.15 0.08 -0.13 0.09 -0.14 0.1 -0.13 0.11 -0.13 0.11 -0.12 0.13 -0.12 0.12 -0.11 0.14 -0.12 0.14 -0.1 0.14 -0.1 0.15 -0.1 0.15 -0.09 0.15 -0.09 0.16 -0.08 0.15 -0.07 0.16 -0.08 0.16 -0.06 0.15 -0.06 0.16 -0.05 0.15 -0.05 0.15 -0.04 0.15 -0.03 0.15 -0.03 0.14 -0.02 0.14 -0.01 0.13 0 0 0.34 -0.11 0.01 -0.12 0.01 -0.13 0.01 -0.13 0.03 -0.13 0.03 -0.14 0.03 -0.15 0.05 -0.14 0.05 -0.15 0.05 -0.14 0.06 -0.15 0.07 -0.14 0.07 -0.15 0.08 -0.14 0.08 -0.14 0.08 -0.14 0.09 -0.14 0.1 -0.13 0.09 -0.12 0.11 -0.12 0.1 -0.11 0.11 -0.11 0.11 -0.09 0.12 -0.09 0.11 -0.08 0.12 -0.07 0.12 -0.06 0.12 -0.05 0.12 -0.04 0.13 -0.03 0.12 -0.02 0.12 -0.01 0.13 0 0zm4.3 2.72l0 0.35 0 0 -0.14 -0.01 -0.14 -0.01 -0.15 -0.02 -0.16 -0.03 -0.17 -0.03 -0.17 -0.04 -0.18 -0.05 -0.18 -0.06 -0.19 -0.06 -0.18 -0.07 -0.19 -0.07 -0.2 -0.08 -0.19 -0.09 -0.19 -0.09 -0.18 -0.09 -0.19 -0.1 -0.18 -0.11 -0.18 -0.1 -0.17 -0.12 -0.17 -0.12 -0.15 -0.12 -0.15 -0.12 -0.15 -0.13 -0.13 -0.14 -0.12 -0.14 -0.11 -0.14 -0.09 -0.14 -0.09 -0.15 -0.06 -0.16 -0.05 -0.15 -0.03 -0.17 -0.01 -0.16 0.34 0 0.01 0.12 0.02 0.12 0.04 0.12 0.06 0.13 0.06 0.12 0.09 0.12 0.09 0.13 0.11 0.12 0.11 0.12 0.13 0.12 0.14 0.11 0.15 0.12 0.16 0.11 0.16 0.11 0.17 0.1 0.17 0.1 0.18 0.09 0.18 0.09 0.18 0.09 0.18 0.08 0.18 0.08 0.19 0.07 0.18 0.06 0.17 0.06 0.18 0.06 0.17 0.04 0.16 0.04 0.15 0.03 0.15 0.03 0.14 0.02 0.13 0.01 0.11 0 0 0zm1.32 -2.72l0.33 -0.09 0 0 0.05 0.16 0.04 0.17 0.03 0.16 0.03 0.15 0.01 0.16 0.01 0.15 0.01 0.15 0 0.14 -0.01 0.14 -0.02 0.14 -0.02 0.13 -0.03 0.13 -0.04 0.12 -0.04 0.12 -0.05 0.12 -0.05 0.1 -0.06 0.11 -0.07 0.1 -0.07 0.09 -0.07 0.09 -0.09 0.08 -0.09 0.08 -0.09 0.07 -0.1 0.06 -0.1 0.05 -0.11 0.05 -0.11 0.04 -0.11 0.04 -0.12 0.02 -0.13 0.02 -0.12 0.01 -0.13 0.01 0 -0.35 0.11 0 0.1 -0.01 0.1 -0.02 0.1 -0.02 0.09 -0.02 0.09 -0.04 0.09 -0.04 0.08 -0.04 0.08 -0.05 0.07 -0.05 0.07 -0.06 0.06 -0.07 0.07 -0.07 0.05 -0.07 0.06 -0.08 0.05 -0.09 0.04 -0.09 0.04 -0.09 0.03 -0.1 0.03 -0.11 0.03 -0.11 0.02 -0.11 0.01 -0.12 0.01 -0.12 0 -0.13 0 -0.13 -0.01 -0.14 -0.02 -0.14 -0.02 -0.14 -0.03 -0.15 -0.03 -0.15 -0.05 -0.16 0 0zm-2.15 -2.63l0 -0.34 0 0 0.13 0 0.12 0.01 0.12 0.02 0.12 0.02 0.11 0.03 0.1 0.03 0.11 0.05 0.1 0.04 0.1 0.06 0.09 0.06 0.09 0.07 0.09 0.07 0.08 0.07 0.08 0.09 0.08 0.08 0.07 0.1 0.07 0.09 0.06 0.1 0.07 0.11 0.06 0.11 0.06 0.12 0.06 0.12 0.06 0.12 0.05 0.13 0.05 0.13 0.06 0.14 0.05 0.14 0.05 0.15 0.05 0.14 0.05 0.16 0.05 0.16 0.04 0.16 -0.33 0.09 -0.04 -0.15 -0.05 -0.16 -0.05 -0.15 -0.05 -0.14 -0.05 -0.14 -0.05 -0.14 -0.05 -0.13 -0.05 -0.13 -0.05 -0.12 -0.05 -0.12 -0.06 -0.11 -0.05 -0.1 -0.06 -0.11 -0.06 -0.09 -0.06 -0.09 -0.06 -0.09 -0.06 -0.08 -0.07 -0.07 -0.06 -0.07 -0.07 -0.06 -0.07 -0.06 -0.08 -0.06 -0.07 -0.05 -0.08 -0.04 -0.08 -0.04 -0.08 -0.03 -0.09 -0.03 -0.09 -0.02 -0.1 -0.02 -0.1 -0.02 -0.1 0 -0.11 -0.01 0 0z"/>
  </g>
  <path class="fil6" d="M20.24 9.53c0.16,0 0.29,0.13 0.29,0.29 0,0.17 -0.13,0.3 -0.29,0.3 -0.16,0 -0.29,-0.13 -0.29,-0.3 0,-0.16 0.13,-0.29 0.29,-0.29z"/>
  <path class="fil6" d="M24.98 9.48c0.16,0 0.29,0.13 0.29,0.29 0,0.16 -0.13,0.29 -0.29,0.29 -0.16,0 -0.29,-0.13 -0.29,-0.29 0,-0.16 0.13,-0.29 0.29,-0.29z"/>
  <g>
   <path class="fil2" d="M22.62 27.91l1.22 0c0.45,0 0.76,0.38 0.82,0.82l0.33 2.34c0.06,0.44 -0.37,0.82 -0.83,0.82l-1.86 0c-0.45,0 -0.89,-0.38 -0.82,-0.82l0.32 -2.34c0.07,-0.44 0.37,-0.82 0.82,-0.82z"/>
   <path id="1" class="fil1" d="M23.84 28.09l-1.22 0 0 -0.35 1.22 0 0 0 0 0.35zm0.99 0.62l-0.34 0.05 0 0 0 -0.04 -0.01 -0.03 -0.01 -0.04 -0.01 -0.03 -0.01 -0.04 -0.01 -0.03 -0.01 -0.03 -0.02 -0.03 -0.01 -0.03 -0.02 -0.03 -0.01 -0.03 -0.02 -0.03 -0.02 -0.02 -0.02 -0.03 -0.02 -0.02 -0.02 -0.03 -0.02 -0.02 -0.02 -0.02 -0.02 -0.02 -0.03 -0.01 -0.02 -0.02 -0.03 -0.02 -0.02 -0.01 -0.03 -0.01 -0.03 -0.02 -0.03 -0.01 -0.02 0 -0.03 -0.01 -0.03 -0.01 -0.04 0 -0.03 0 -0.03 0 0 -0.35 0.05 0 0.05 0.01 0.05 0 0.05 0.01 0.05 0.01 0.04 0.02 0.05 0.01 0.04 0.02 0.04 0.02 0.04 0.03 0.04 0.02 0.04 0.03 0.04 0.02 0.03 0.03 0.04 0.04 0.03 0.03 0.03 0.03 0.03 0.04 0.03 0.04 0.03 0.04 0.02 0.03 0.02 0.04 0.03 0.05 0.02 0.04 0.01 0.04 0.02 0.04 0.02 0.05 0.01 0.04 0.01 0.05 0.01 0.04 0.01 0.05 0.01 0.05 0 0zm-0.01 2.38l-0.33 -2.33 0.34 -0.05 0.33 2.33 -0.34 0.05zm-0.66 0.97l0 -0.34 0 0 0.04 -0.01 0.03 0 0.04 0 0.03 -0.01 0.03 -0.01 0.03 0 0.03 -0.02 0.04 -0.01 0.03 -0.01 0.03 -0.02 0.03 -0.01 0.02 -0.02 0.03 -0.02 0.03 -0.02 0.02 -0.02 0.03 -0.02 0.02 -0.02 0.02 -0.03 0.02 -0.02 0.02 -0.02 0.02 -0.03 0.01 -0.03 0.02 -0.02 0.01 -0.03 0.01 -0.03 0.01 -0.03 0 -0.03 0.01 -0.02 0 -0.03 0 -0.03 0 -0.03 0 -0.03 0.34 -0.05 0 0.06 0 0.05 0 0.05 0 0.05 -0.01 0.05 -0.01 0.05 -0.02 0.05 -0.01 0.04 -0.02 0.05 -0.03 0.05 -0.02 0.04 -0.03 0.04 -0.03 0.04 -0.03 0.04 -0.03 0.03 -0.03 0.04 -0.04 0.03 -0.04 0.03 -0.04 0.03 -0.04 0.03 -0.04 0.03 -0.04 0.02 -0.05 0.02 -0.04 0.02 -0.05 0.02 -0.05 0.01 -0.04 0.02 -0.05 0.01 -0.06 0.01 -0.04 0 -0.05 0.01 -0.06 0 0 0zm-1.86 -0.34l1.86 0 0 0.34 -1.86 0 0 0 0 -0.34zm-0.99 -0.68l0.34 0.05 0 0 -0.01 0.03 0 0.03 0 0.03 0.01 0.03 0 0.02 0.01 0.03 0 0.03 0.02 0.03 0.01 0.03 0.01 0.02 0.02 0.03 0.01 0.03 0.02 0.02 0.02 0.02 0.02 0.03 0.02 0.02 0.03 0.02 0.02 0.02 0.03 0.02 0.03 0.02 0.03 0.02 0.02 0.01 0.04 0.02 0.03 0.01 0.03 0.01 0.03 0.02 0.03 0 0.03 0.01 0.04 0.01 0.03 0 0.04 0 0.03 0.01 0 0.34 -0.05 0 -0.05 -0.01 -0.05 0 -0.05 -0.01 -0.05 -0.01 -0.05 -0.02 -0.05 -0.01 -0.04 -0.02 -0.05 -0.02 -0.04 -0.02 -0.05 -0.02 -0.04 -0.03 -0.04 -0.03 -0.04 -0.03 -0.04 -0.03 -0.03 -0.03 -0.04 -0.04 -0.03 -0.03 -0.03 -0.04 -0.03 -0.04 -0.03 -0.04 -0.02 -0.04 -0.03 -0.05 -0.02 -0.05 -0.01 -0.04 -0.01 -0.05 -0.02 -0.05 0 -0.05 -0.01 -0.05 0 -0.05 0 -0.05 0.01 -0.06 0 0zm0.66 -2.28l-0.32 2.33 -0.34 -0.05 0.32 -2.33 0.34 0.05zm0.65 -1.02l0 0.35 0 0 -0.03 0 -0.03 0 -0.03 0 -0.03 0.01 -0.03 0.01 -0.03 0 -0.03 0.01 -0.03 0.02 -0.02 0.01 -0.03 0.01 -0.03 0.02 -0.02 0.01 -0.02 0.02 -0.02 0.02 -0.03 0.02 -0.02 0.02 -0.02 0.03 -0.02 0.02 -0.02 0.03 -0.02 0.02 -0.01 0.03 -0.02 0.03 -0.02 0.03 -0.01 0.03 -0.01 0.03 -0.02 0.03 -0.01 0.03 -0.01 0.04 -0.01 0.03 -0.01 0.04 0 0.03 -0.01 0.04 -0.34 -0.05 0.01 -0.05 0.01 -0.05 0.01 -0.04 0.01 -0.05 0.02 -0.04 0.01 -0.05 0.02 -0.04 0.02 -0.04 0.02 -0.05 0.02 -0.04 0.02 -0.04 0.03 -0.04 0.02 -0.03 0.03 -0.04 0.03 -0.04 0.03 -0.03 0.03 -0.03 0.04 -0.04 0.03 -0.02 0.04 -0.03 0.04 -0.03 0.04 -0.02 0.04 -0.03 0.04 -0.02 0.05 -0.02 0.04 -0.01 0.05 -0.02 0.04 -0.01 0.06 -0.01 0.04 0 0.05 -0.01 0.05 0 0 0z"/>
  </g>
 </g>
</svg>
