<?xml version="1.0" encoding="UTF-8"?>
<!DOCTYPE svg PUBLIC "-//W3C//DTD SVG 1.1//EN" "http://www.w3.org/Graphics/SVG/1.1/DTD/svg11.dtd">
<!-- Creator: CorelDRAW 2018 (64-Bit) -->
<svg xmlns="http://www.w3.org/2000/svg" xml:space="preserve" width="79px" height="66px" version="1.1" style="shape-rendering:geometricPrecision; text-rendering:geometricPrecision; image-rendering:optimizeQuality; fill-rule:evenodd; clip-rule:evenodd"
viewBox="0 0 79.29 66.78"
 xmlns:xlink="http://www.w3.org/1999/xlink">
 <defs>
  <style type="text/css">
   <![CDATA[
    .fil2 {fill:#F08BB2}
    .fil0 {fill:#C5E3D7}
    .fil3 {fill:#6FA691}
    .fil4 {fill:#99CFBA}
    .fil1 {fill:#2B2A29;fill-rule:nonzero}
   ]]>
  </style>
 </defs>
 <g id="Слой_x0020_1">
  <metadata id="CorelCorpID_0Corel-Layer"/>
  <g>
   <path class="fil0" d="M66.52 32.98c10.74,-3.97 8.05,-11.73 1.25,-16.53 -1.8,-1.57 -0.79,-4.16 0.93,-4.1 11.77,4.76 15.94,21.28 -0.22,27.22 -1.4,-1.87 -2.28,-4.04 -1.96,-6.59z"/>
   <path id="1" class="fil1" d="M67.65 16.58l0.23 -0.26 -0.02 -0.01 0.63 0.46 0.61 0.48 0.58 0.49 0.55 0.51 0.51 0.52 0.49 0.54 0.45 0.54 0.41 0.55 0.38 0.56 0.33 0.57 0.3 0.57 0.25 0.58 0.21 0.58 0.16 0.59 0.11 0.58 0.06 0.59 0.01 0.58 -0.05 0.58 -0.1 0.58 -0.16 0.57 -0.22 0.56 -0.28 0.55 -0.35 0.54 -0.41 0.53 -0.47 0.51 -0.54 0.5 -0.61 0.49 -0.68 0.46 -0.75 0.45 -0.83 0.43 -0.89 0.41 -0.98 0.38 -0.12 -0.32 0.96 -0.38 0.88 -0.4 0.81 -0.42 0.74 -0.44 0.66 -0.45 0.59 -0.47 0.52 -0.48 0.45 -0.49 0.39 -0.51 0.33 -0.51 0.27 -0.52 0.21 -0.53 0.15 -0.54 0.1 -0.54 0.04 -0.55 -0.01 -0.55 -0.06 -0.56 -0.1 -0.56 -0.16 -0.55 -0.19 -0.56 -0.25 -0.56 -0.28 -0.56 -0.33 -0.55 -0.37 -0.54 -0.4 -0.54 -0.44 -0.53 -0.48 -0.52 -0.5 -0.51 -0.54 -0.5 -0.57 -0.49 -0.59 -0.47 -0.62 -0.45 -0.02 -0.01zm0.02 0.01l-0.01 -0.01 -0.01 0 0.02 0.01zm1.1 -4.4l-0.13 0.32 0.06 0.01 -0.15 0 -0.13 0.02 -0.14 0.02 -0.13 0.04 -0.12 0.05 -0.12 0.07 -0.12 0.07 -0.1 0.08 -0.11 0.1 -0.09 0.1 -0.09 0.11 -0.08 0.12 -0.07 0.12 -0.07 0.13 -0.05 0.14 -0.05 0.14 -0.04 0.15 -0.03 0.15 -0.01 0.16 -0.01 0.16 0 0.16 0.02 0.16 0.03 0.16 0.04 0.16 0.05 0.16 0.06 0.16 0.08 0.16 0.09 0.16 0.11 0.15 0.12 0.15 0.14 0.15 0.15 0.14 -0.23 0.26 -0.16 -0.16 -0.16 -0.16 -0.13 -0.17 -0.12 -0.18 -0.11 -0.18 -0.09 -0.18 -0.07 -0.18 -0.06 -0.19 -0.05 -0.18 -0.03 -0.19 -0.02 -0.18 0 -0.18 0.01 -0.19 0.02 -0.17 0.03 -0.18 0.04 -0.17 0.05 -0.17 0.07 -0.16 0.08 -0.15 0.08 -0.15 0.1 -0.13 0.1 -0.14 0.12 -0.12 0.12 -0.11 0.13 -0.1 0.14 -0.09 0.14 -0.08 0.16 -0.06 0.16 -0.05 0.16 -0.03 0.17 -0.02 0.18 0 0.06 0.01zm-0.06 -0.01l0.03 0 0.03 0.01 -0.06 -0.01zm-0.37 27.49l0.27 -0.2 -0.19 -0.06 1.44 -0.59 1.33 -0.63 1.22 -0.7 1.1 -0.74 0.99 -0.78 0.89 -0.83 0.78 -0.86 0.68 -0.9 0.58 -0.92 0.48 -0.95 0.38 -0.96 0.3 -0.99 0.21 -1 0.11 -1 0.04 -1.01 -0.06 -1.02 -0.13 -1.01 -0.21 -1 -0.28 -0.99 -0.36 -0.98 -0.43 -0.95 -0.51 -0.94 -0.57 -0.9 -0.63 -0.88 -0.7 -0.84 -0.75 -0.8 -0.82 -0.75 -0.87 -0.71 -0.92 -0.66 -0.98 -0.6 -1.02 -0.54 -1.07 -0.47 0.13 -0.32 1.09 0.48 1.04 0.56 1 0.61 0.94 0.67 0.89 0.72 0.83 0.77 0.77 0.82 0.71 0.85 0.65 0.89 0.58 0.93 0.51 0.96 0.44 0.97 0.37 1 0.29 1.02 0.22 1.03 0.13 1.03 0.06 1.04 -0.04 1.04 -0.12 1.04 -0.21 1.03 -0.3 1.01 -0.4 0.99 -0.5 0.98 -0.59 0.95 -0.7 0.92 -0.8 0.88 -0.91 0.85 -1.01 0.8 -1.12 0.75 -1.24 0.71 -1.35 0.65 -1.47 0.59 -0.19 -0.06zm0.19 0.06l-0.12 0.04 -0.07 -0.1 0.19 0.06zm-2.07 -6.91l0.12 0.32 0.11 -0.14 -0.03 0.24 -0.01 0.23 -0.02 0.23 -0.01 0.22 0 0.23 0.01 0.22 0.02 0.22 0.01 0.22 0.03 0.21 0.03 0.22 0.03 0.21 0.05 0.21 0.04 0.2 0.06 0.21 0.05 0.2 0.07 0.21 0.06 0.2 0.08 0.19 0.07 0.2 0.09 0.2 0.08 0.19 0.09 0.19 0.1 0.19 0.1 0.19 0.1 0.18 0.11 0.19 0.11 0.18 0.11 0.18 0.12 0.18 0.12 0.18 0.13 0.17 0.12 0.18 -0.27 0.2 -0.13 -0.18 -0.13 -0.18 -0.12 -0.18 -0.12 -0.19 -0.12 -0.18 -0.12 -0.19 -0.11 -0.19 -0.1 -0.19 -0.1 -0.2 -0.1 -0.19 -0.1 -0.2 -0.09 -0.2 -0.08 -0.2 -0.08 -0.2 -0.08 -0.21 -0.07 -0.21 -0.06 -0.21 -0.06 -0.21 -0.06 -0.22 -0.05 -0.21 -0.04 -0.22 -0.04 -0.22 -0.03 -0.23 -0.03 -0.22 -0.02 -0.23 -0.01 -0.23 -0.01 -0.23 0 -0.23 0.01 -0.24 0.01 -0.24 0.02 -0.24 0.03 -0.24 0.11 -0.14zm-0.11 0.14l0.02 -0.1 0.09 -0.04 -0.11 0.14z"/>
  </g>
  <g>
   <path class="fil0" d="M19.13 34.4c-2.37,11.61 -0.6,15.29 2.56,16.29 5.86,6.38 26.38,8.24 42.04,1.3 1.08,-3.35 3.99,-3.55 4.47,-6.48 1.92,-11.68 -3.94,-21.96 -20.92,-17.1 -3.94,-0.27 -11.41,-4.14 -10.67,-5.72 -5.83,3.91 -11.66,7.81 -17.48,11.71z"/>
   <path id="1" class="fil1" d="M21.81 50.57l-0.25 0.23 0.08 0.05 -0.31 -0.11 -0.29 -0.12 -0.28 -0.14 -0.28 -0.16 -0.26 -0.18 -0.26 -0.2 -0.24 -0.23 -0.23 -0.25 -0.21 -0.27 -0.21 -0.29 -0.19 -0.33 -0.17 -0.34 -0.16 -0.38 -0.14 -0.4 -0.13 -0.43 -0.11 -0.46 -0.1 -0.49 -0.07 -0.52 -0.06 -0.56 -0.05 -0.59 -0.02 -0.62 0 -0.66 0.01 -0.69 0.03 -0.73 0.06 -0.78 0.07 -0.81 0.1 -0.85 0.12 -0.89 0.14 -0.93 0.16 -0.98 0.19 -1.02 0.21 -1.07 0.33 0.07 -0.2 1.06 -0.19 1.02 -0.16 0.97 -0.14 0.93 -0.12 0.88 -0.09 0.85 -0.08 0.8 -0.05 0.76 -0.04 0.73 -0.01 0.68 0 0.65 0.02 0.61 0.05 0.58 0.06 0.54 0.07 0.51 0.09 0.48 0.11 0.44 0.12 0.42 0.14 0.38 0.15 0.36 0.16 0.32 0.18 0.3 0.19 0.28 0.2 0.25 0.21 0.23 0.23 0.21 0.23 0.19 0.24 0.16 0.26 0.15 0.26 0.13 0.28 0.12 0.28 0.09 0.07 0.05zm-0.07 -0.05l0.04 0.02 0.03 0.03 -0.07 -0.05zm41.83 1.42l0.32 0.11 -0.09 0.1 -1.49 0.63 -1.51 0.57 -1.53 0.53 -1.55 0.48 -1.57 0.42 -1.57 0.38 -1.59 0.34 -1.58 0.28 -1.59 0.25 -1.58 0.19 -1.58 0.15 -1.56 0.11 -1.55 0.07 -1.53 0.03 -1.51 -0.02 -1.49 -0.05 -1.45 -0.1 -1.43 -0.13 -1.39 -0.17 -1.34 -0.21 -1.31 -0.24 -1.26 -0.28 -1.21 -0.31 -1.16 -0.35 -1.1 -0.38 -1.04 -0.41 -0.97 -0.44 -0.91 -0.48 -0.84 -0.51 -0.76 -0.53 -0.69 -0.57 -0.6 -0.6 0.25 -0.23 0.58 0.58 0.67 0.55 0.74 0.52 0.82 0.49 0.89 0.47 0.96 0.44 1.02 0.4 1.09 0.38 1.14 0.34 1.2 0.31 1.25 0.28 1.29 0.24 1.34 0.2 1.38 0.17 1.41 0.13 1.45 0.1 1.48 0.05 1.5 0.02 1.52 -0.03 1.54 -0.07 1.56 -0.11 1.56 -0.15 1.57 -0.19 1.58 -0.24 1.58 -0.29 1.57 -0.33 1.57 -0.38 1.55 -0.42 1.54 -0.47 1.52 -0.53 1.51 -0.57 1.47 -0.62 -0.09 0.1zm0.32 0.11l-0.02 0.07 -0.07 0.03 0.09 -0.1zm4.14 -6.56l0.34 0.05 0 0 -0.05 0.28 -0.07 0.26 -0.08 0.25 -0.1 0.23 -0.1 0.22 -0.12 0.22 -0.13 0.2 -0.13 0.19 -0.14 0.18 -0.15 0.18 -0.16 0.17 -0.16 0.17 -0.16 0.16 -0.17 0.16 -0.17 0.15 -0.18 0.16 -0.17 0.16 -0.17 0.16 -0.17 0.16 -0.18 0.16 -0.17 0.17 -0.17 0.18 -0.16 0.18 -0.16 0.2 -0.16 0.2 -0.14 0.21 -0.15 0.22 -0.14 0.24 -0.13 0.24 -0.12 0.27 -0.11 0.28 -0.11 0.3 -0.32 -0.11 0.11 -0.31 0.12 -0.3 0.13 -0.28 0.13 -0.26 0.15 -0.25 0.15 -0.23 0.16 -0.23 0.16 -0.21 0.17 -0.2 0.17 -0.19 0.18 -0.18 0.17 -0.18 0.18 -0.17 0.18 -0.16 0.17 -0.17 0.18 -0.15 0.17 -0.16 0.17 -0.15 0.16 -0.16 0.16 -0.16 0.15 -0.15 0.15 -0.17 0.14 -0.16 0.13 -0.17 0.13 -0.18 0.11 -0.19 0.11 -0.19 0.1 -0.2 0.08 -0.22 0.08 -0.23 0.06 -0.24 0.05 -0.25 0 0zm-20.76 -16.91l0.03 -0.34 -0.06 0.01 1.56 -0.42 1.51 -0.32 1.43 -0.25 1.38 -0.16 1.31 -0.08 1.26 -0.01 1.19 0.07 1.13 0.14 1.07 0.21 1.02 0.28 0.95 0.34 0.9 0.4 0.83 0.47 0.78 0.52 0.73 0.57 0.66 0.63 0.61 0.67 0.55 0.72 0.5 0.77 0.45 0.81 0.39 0.84 0.33 0.88 0.29 0.92 0.23 0.94 0.18 0.97 0.13 1 0.08 1.02 0.03 1.04 -0.02 1.06 -0.06 1.08 -0.11 1.08 -0.16 1.1 -0.34 -0.05 0.16 -1.09 0.11 -1.07 0.06 -1.06 0.02 -1.04 -0.03 -1.03 -0.08 -1 -0.13 -0.98 -0.18 -0.96 -0.22 -0.92 -0.28 -0.89 -0.33 -0.86 -0.38 -0.83 -0.43 -0.78 -0.48 -0.75 -0.54 -0.7 -0.59 -0.65 -0.65 -0.61 -0.7 -0.56 -0.75 -0.5 -0.82 -0.45 -0.87 -0.4 -0.93 -0.33 -0.99 -0.27 -1.04 -0.2 -1.11 -0.14 -1.17 -0.07 -1.23 0.01 -1.3 0.08 -1.36 0.16 -1.42 0.24 -1.49 0.33 -1.55 0.41 -0.06 0zm0.06 0l-0.03 0.01 -0.03 -0.01 0.06 0zm-10.63 -5.75l-0.19 -0.28 0.25 0.22 -0.03 0.1 0 0.12 0.04 0.15 0.07 0.16 0.12 0.18 0.15 0.19 0.19 0.21 0.23 0.21 0.25 0.22 0.29 0.22 0.31 0.23 0.34 0.22 0.36 0.23 0.38 0.23 0.4 0.23 0.41 0.22 0.43 0.22 0.44 0.22 0.45 0.21 0.46 0.2 0.46 0.2 0.47 0.18 0.46 0.18 0.46 0.16 0.47 0.16 0.45 0.14 0.45 0.12 0.43 0.11 0.43 0.09 0.4 0.07 0.4 0.06 0.37 0.03 -0.03 0.34 -0.39 -0.03 -0.4 -0.06 -0.42 -0.08 -0.43 -0.09 -0.45 -0.11 -0.45 -0.13 -0.47 -0.14 -0.47 -0.15 -0.47 -0.17 -0.47 -0.18 -0.47 -0.19 -0.47 -0.19 -0.46 -0.21 -0.46 -0.21 -0.44 -0.22 -0.44 -0.23 -0.42 -0.22 -0.4 -0.23 -0.39 -0.24 -0.37 -0.23 -0.35 -0.24 -0.32 -0.23 -0.29 -0.23 -0.27 -0.23 -0.24 -0.22 -0.21 -0.22 -0.17 -0.22 -0.14 -0.22 -0.09 -0.21 -0.06 -0.21 0 -0.22 0.06 -0.2 0.25 0.21zm-0.19 -0.28l0.51 -0.34 -0.26 0.56 -0.25 -0.22zm-17.22 11.89l-0.33 -0.07 0.07 -0.11 0.55 -0.37 0.54 -0.36 0.55 -0.37 0.55 -0.36 0.54 -0.37 0.55 -0.36 0.55 -0.37 0.54 -0.37 0.55 -0.36 0.55 -0.37 0.54 -0.36 0.55 -0.37 0.54 -0.37 0.55 -0.36 0.55 -0.37 0.54 -0.36 0.55 -0.37 0.55 -0.37 0.54 -0.36 0.55 -0.37 0.54 -0.36 0.55 -0.37 0.55 -0.37 0.54 -0.36 0.55 -0.37 0.55 -0.36 0.54 -0.37 0.55 -0.36 0.55 -0.37 0.54 -0.37 0.55 -0.36 0.54 -0.37 0.19 0.28 -0.54 0.37 -0.55 0.37 -0.54 0.36 -0.55 0.37 -0.55 0.36 -0.54 0.37 -0.55 0.37 -0.55 0.36 -0.54 0.37 -0.55 0.36 -0.55 0.37 -0.54 0.37 -0.55 0.36 -0.54 0.37 -0.55 0.36 -0.55 0.37 -0.54 0.37 -0.55 0.36 -0.55 0.37 -0.54 0.36 -0.55 0.37 -0.54 0.37 -0.55 0.36 -0.55 0.37 -0.54 0.36 -0.55 0.37 -0.55 0.36 -0.54 0.37 -0.55 0.37 -0.55 0.36 -0.54 0.37 -0.55 0.36 0.07 -0.1zm-0.33 -0.07l0.01 -0.07 0.06 -0.04 -0.07 0.11z"/>
  </g>
  <g>
   <path class="fil2" d="M53.13 55.3c3.63,-0.72 7.23,-1.81 10.6,-3.31 1.08,-3.35 3.99,-3.55 4.47,-6.48 1.66,-10.08 -2.47,-19.37 -14.55,-18.53 -2.18,0.42 -4.07,-0.68 -6.14,0.09 -0.58,0.26 -0.94,0.7 -1.02,1.22 -0.38,2.12 6.28,3.28 0.63,12.19 -1.45,2.29 -0.57,4.21 1.32,5.98 3.29,3.19 4.84,6.13 4.69,8.84z"/>
   <path id="1" class="fil1" d="M63.57 51.94l0.32 0.11 -0.09 0.1 -0.32 0.14 -0.32 0.14 -0.32 0.13 -0.32 0.13 -0.32 0.13 -0.33 0.13 -0.32 0.13 -0.33 0.12 -0.33 0.12 -0.33 0.12 -0.33 0.11 -0.33 0.12 -0.33 0.11 -0.33 0.11 -0.33 0.1 -0.34 0.11 -0.33 0.1 -0.34 0.1 -0.33 0.1 -0.34 0.09 -0.33 0.1 -0.34 0.09 -0.34 0.09 -0.34 0.08 -0.34 0.09 -0.34 0.08 -0.34 0.08 -0.34 0.08 -0.34 0.07 -0.34 0.07 -0.34 0.07 -0.34 0.07 -0.07 -0.33 0.34 -0.07 0.34 -0.07 0.34 -0.07 0.34 -0.08 0.34 -0.08 0.33 -0.07 0.34 -0.09 0.34 -0.08 0.33 -0.09 0.34 -0.08 0.34 -0.09 0.33 -0.1 0.34 -0.09 0.33 -0.1 0.33 -0.1 0.33 -0.1 0.34 -0.1 0.33 -0.11 0.33 -0.11 0.32 -0.11 0.33 -0.11 0.33 -0.11 0.33 -0.12 0.32 -0.12 0.32 -0.12 0.33 -0.13 0.32 -0.12 0.32 -0.13 0.32 -0.13 0.32 -0.14 0.32 -0.13 0.31 -0.14 -0.09 0.1zm0.32 0.11l-0.02 0.07 -0.07 0.03 0.09 -0.1zm4.14 -6.56l0.34 0.05 0 0 -0.05 0.28 -0.07 0.26 -0.08 0.25 -0.1 0.23 -0.1 0.22 -0.12 0.22 -0.13 0.2 -0.13 0.19 -0.14 0.18 -0.15 0.18 -0.16 0.17 -0.16 0.17 -0.16 0.16 -0.17 0.16 -0.17 0.15 -0.18 0.16 -0.17 0.16 -0.17 0.16 -0.17 0.16 -0.18 0.16 -0.17 0.17 -0.17 0.18 -0.16 0.18 -0.16 0.2 -0.16 0.2 -0.14 0.21 -0.15 0.22 -0.14 0.24 -0.13 0.24 -0.12 0.27 -0.11 0.28 -0.11 0.3 -0.32 -0.11 0.11 -0.31 0.12 -0.3 0.13 -0.28 0.13 -0.26 0.15 -0.25 0.15 -0.23 0.16 -0.23 0.16 -0.21 0.17 -0.2 0.17 -0.19 0.18 -0.18 0.17 -0.18 0.18 -0.17 0.18 -0.16 0.17 -0.17 0.18 -0.15 0.17 -0.16 0.17 -0.15 0.16 -0.16 0.16 -0.16 0.15 -0.15 0.15 -0.17 0.14 -0.16 0.13 -0.17 0.13 -0.18 0.11 -0.19 0.11 -0.19 0.1 -0.2 0.08 -0.22 0.08 -0.23 0.06 -0.24 0.05 -0.25 0 0zm-14.35 -18.34l-0.06 -0.34 0.02 0 1.11 -0.05 1.08 0.01 1.02 0.06 0.99 0.12 0.93 0.17 0.9 0.23 0.85 0.27 0.8 0.33 0.76 0.36 0.72 0.42 0.68 0.46 0.63 0.49 0.59 0.54 0.55 0.58 0.5 0.61 0.47 0.64 0.42 0.68 0.39 0.71 0.34 0.73 0.3 0.77 0.27 0.78 0.22 0.81 0.19 0.84 0.15 0.85 0.11 0.87 0.07 0.88 0.04 0.91 0 0.91 -0.04 0.92 -0.07 0.94 -0.1 0.94 -0.14 0.95 -0.34 -0.05 0.14 -0.94 0.1 -0.93 0.07 -0.92 0.04 -0.92 0 -0.9 -0.04 -0.88 -0.07 -0.88 -0.11 -0.85 -0.15 -0.84 -0.18 -0.81 -0.22 -0.8 -0.26 -0.77 -0.3 -0.74 -0.33 -0.72 -0.37 -0.69 -0.41 -0.66 -0.45 -0.62 -0.5 -0.6 -0.53 -0.56 -0.57 -0.52 -0.61 -0.48 -0.66 -0.44 -0.7 -0.4 -0.74 -0.36 -0.78 -0.32 -0.83 -0.26 -0.87 -0.22 -0.92 -0.17 -0.96 -0.12 -1 -0.06 -1.06 -0.01 -1.1 0.05 0.02 0zm-0.06 -0.34l0 0 0.02 0 -0.02 0zm-6.04 0.41l-0.15 -0.31 0.02 0 0.2 -0.07 0.2 -0.06 0.2 -0.05 0.19 -0.04 0.2 -0.03 0.2 -0.02 0.19 -0.01 0.2 -0.01 0.19 0 0.2 0 0.19 0.01 0.19 0.01 0.19 0.02 0.19 0.02 0.19 0.02 0.19 0.03 0.19 0.02 0.19 0.02 0.19 0.03 0.18 0.02 0.19 0.02 0.19 0.02 0.19 0.02 0.19 0.01 0.19 0.01 0.19 0.01 0.19 0 0.2 -0.01 0.19 -0.01 0.19 -0.02 0.2 -0.02 0.2 -0.04 0.06 0.34 -0.21 0.03 -0.21 0.03 -0.2 0.02 -0.21 0.01 -0.2 0.01 -0.2 0 -0.2 -0.01 -0.2 -0.01 -0.2 -0.01 -0.19 -0.02 -0.19 -0.02 -0.2 -0.02 -0.19 -0.02 -0.19 -0.03 -0.19 -0.02 -0.18 -0.03 -0.19 -0.02 -0.19 -0.02 -0.18 -0.02 -0.19 -0.01 -0.18 -0.02 -0.19 -0.01 -0.18 0 -0.18 0 -0.19 0.01 -0.18 0.01 -0.18 0.02 -0.19 0.03 -0.18 0.04 -0.19 0.04 -0.18 0.05 -0.19 0.07 0.02 -0.01zm-0.15 -0.31l0.01 0 0.01 0 -0.02 0zm-0.77 1.41l-0.34 -0.06 0 0 0.01 -0.05 0.01 -0.05 0.01 -0.06 0.02 -0.05 0.01 -0.05 0.02 -0.05 0.02 -0.05 0.03 -0.05 0.02 -0.05 0.02 -0.05 0.03 -0.05 0.03 -0.05 0.03 -0.04 0.03 -0.05 0.04 -0.04 0.03 -0.05 0.04 -0.04 0.03 -0.04 0.05 -0.04 0.04 -0.04 0.04 -0.04 0.04 -0.04 0.05 -0.03 0.04 -0.04 0.05 -0.04 0.05 -0.03 0.05 -0.03 0.05 -0.03 0.06 -0.03 0.05 -0.03 0.06 -0.03 0.05 -0.03 0.15 0.31 -0.05 0.03 -0.05 0.02 -0.05 0.03 -0.04 0.02 -0.05 0.03 -0.04 0.03 -0.04 0.02 -0.04 0.03 -0.04 0.03 -0.04 0.03 -0.04 0.04 -0.03 0.03 -0.03 0.03 -0.04 0.03 -0.03 0.04 -0.03 0.03 -0.03 0.04 -0.02 0.03 -0.03 0.04 -0.02 0.04 -0.03 0.03 -0.02 0.04 -0.02 0.04 -0.02 0.04 -0.01 0.04 -0.02 0.04 -0.01 0.04 -0.02 0.04 -0.01 0.04 -0.01 0.04 -0.01 0.04 0 0.04 0 0.01zm0 -0.01l0 0.01 0 -0.03 0 0.02zm0.61 12.26l-0.29 -0.18 0 -0.01 0.49 -0.8 0.42 -0.76 0.36 -0.72 0.29 -0.68 0.24 -0.64 0.19 -0.6 0.13 -0.56 0.09 -0.53 0.04 -0.49 0 -0.46 -0.03 -0.44 -0.06 -0.4 -0.09 -0.38 -0.12 -0.35 -0.14 -0.34 -0.16 -0.31 -0.17 -0.29 -0.18 -0.28 -0.2 -0.26 -0.2 -0.25 -0.2 -0.24 -0.2 -0.22 -0.2 -0.22 -0.19 -0.21 -0.17 -0.21 -0.17 -0.2 -0.14 -0.2 -0.12 -0.2 -0.1 -0.21 -0.06 -0.22 -0.03 -0.22 0.02 -0.23 0.34 0.06 -0.02 0.16 0.02 0.16 0.05 0.17 0.08 0.17 0.11 0.17 0.13 0.18 0.15 0.19 0.17 0.2 0.19 0.21 0.19 0.22 0.21 0.23 0.2 0.24 0.21 0.26 0.2 0.27 0.2 0.29 0.18 0.32 0.17 0.33 0.15 0.36 0.13 0.38 0.09 0.4 0.07 0.44 0.03 0.46 0 0.49 -0.05 0.52 -0.09 0.55 -0.14 0.58 -0.19 0.62 -0.24 0.66 -0.3 0.69 -0.37 0.74 -0.43 0.77 -0.49 0.82 0 0zm-0.29 -0.18l0 -0.01 0.12 -0.19 -0.12 0.2zm1.58 5.95l-0.24 0.24 0 0.01 -0.18 -0.17 -0.17 -0.17 -0.16 -0.17 -0.16 -0.18 -0.15 -0.17 -0.14 -0.17 -0.14 -0.18 -0.13 -0.18 -0.12 -0.18 -0.11 -0.18 -0.11 -0.18 -0.09 -0.19 -0.09 -0.19 -0.08 -0.18 -0.07 -0.2 -0.05 -0.19 -0.05 -0.19 -0.04 -0.2 -0.03 -0.2 -0.02 -0.2 0 -0.2 0.01 -0.2 0.01 -0.21 0.03 -0.21 0.04 -0.21 0.06 -0.21 0.07 -0.21 0.08 -0.21 0.09 -0.22 0.11 -0.22 0.12 -0.21 0.13 -0.22 0.29 0.18 -0.13 0.21 -0.11 0.2 -0.1 0.2 -0.09 0.2 -0.07 0.2 -0.06 0.2 -0.05 0.19 -0.04 0.19 -0.03 0.19 -0.01 0.18 -0.01 0.19 0 0.18 0.02 0.18 0.03 0.18 0.03 0.18 0.04 0.18 0.06 0.18 0.06 0.17 0.07 0.18 0.08 0.17 0.09 0.17 0.1 0.17 0.11 0.17 0.11 0.18 0.13 0.16 0.13 0.17 0.13 0.17 0.15 0.17 0.15 0.16 0.16 0.17 0.16 0.16 0.17 0.17 0.01 0zm-0.01 0l0 -0.01 0.01 0.01 -0.01 0zm4.54 8.79l0.07 0.33 -0.2 -0.17 0 -0.25 0 -0.25 -0.01 -0.25 -0.02 -0.25 -0.03 -0.26 -0.04 -0.25 -0.05 -0.26 -0.05 -0.26 -0.07 -0.26 -0.08 -0.26 -0.09 -0.26 -0.1 -0.27 -0.11 -0.26 -0.12 -0.27 -0.13 -0.27 -0.14 -0.27 -0.15 -0.27 -0.15 -0.28 -0.17 -0.28 -0.18 -0.27 -0.19 -0.28 -0.2 -0.28 -0.21 -0.28 -0.22 -0.29 -0.23 -0.29 -0.24 -0.28 -0.25 -0.29 -0.26 -0.29 -0.27 -0.29 -0.29 -0.3 -0.29 -0.29 -0.3 -0.3 0.24 -0.24 0.3 0.3 0.3 0.3 0.28 0.29 0.28 0.3 0.26 0.29 0.26 0.3 0.24 0.29 0.23 0.29 0.23 0.29 0.21 0.29 0.21 0.28 0.19 0.29 0.19 0.28 0.17 0.29 0.16 0.28 0.16 0.28 0.14 0.28 0.13 0.28 0.13 0.27 0.11 0.28 0.1 0.27 0.09 0.28 0.08 0.27 0.08 0.27 0.06 0.27 0.05 0.27 0.04 0.27 0.03 0.26 0.02 0.27 0.01 0.26 0.01 0.26 -0.01 0.27 -0.21 -0.18zm0.07 0.33l-0.22 0.05 0.02 -0.22 0.2 0.17z"/>
  </g>
  <g>
   <path class="fil3" d="M7.31 62.96c3.36,2.19 6.28,2.92 9.2,3.64 5.04,-0.02 5.73,-1.43 4.58,-3.43 -4.72,-1.41 -9.44,-2.83 -14.16,-4.25 0.02,1.15 0.13,2.46 0.38,4.04z"/>
   <path id="1" class="fil1" d="M16.51 66.43l0 0.35 -0.04 -0.01 -0.27 -0.07 -0.28 -0.07 -0.27 -0.06 -0.28 -0.07 -0.27 -0.08 -0.28 -0.07 -0.27 -0.07 -0.28 -0.08 -0.28 -0.08 -0.28 -0.08 -0.28 -0.08 -0.28 -0.09 -0.28 -0.09 -0.28 -0.09 -0.29 -0.1 -0.28 -0.1 -0.29 -0.1 -0.29 -0.11 -0.29 -0.12 -0.29 -0.12 -0.29 -0.13 -0.3 -0.13 -0.29 -0.13 -0.3 -0.15 -0.3 -0.15 -0.3 -0.15 -0.31 -0.17 -0.31 -0.17 -0.3 -0.18 -0.32 -0.19 -0.31 -0.19 -0.31 -0.2 0.18 -0.29 0.31 0.2 0.31 0.19 0.31 0.19 0.3 0.17 0.31 0.17 0.3 0.16 0.29 0.16 0.3 0.15 0.29 0.14 0.29 0.13 0.3 0.13 0.28 0.13 0.29 0.11 0.29 0.12 0.28 0.11 0.28 0.1 0.29 0.1 0.28 0.1 0.28 0.09 0.27 0.09 0.28 0.08 0.28 0.09 0.28 0.07 0.27 0.08 0.28 0.08 0.27 0.07 0.27 0.07 0.28 0.07 0.27 0.07 0.28 0.07 0.27 0.07 0.27 0.07 -0.04 -0.01zm0 0.35l-0.02 0 -0.02 -0.01 0.04 0.01zm4.53 -3.44l0.1 -0.33 0.1 0.08 0.1 0.19 0.09 0.19 0.09 0.18 0.07 0.19 0.06 0.18 0.04 0.17 0.03 0.18 0.02 0.17 0 0.17 -0.02 0.17 -0.04 0.16 -0.05 0.15 -0.07 0.15 -0.09 0.15 -0.11 0.13 -0.13 0.13 -0.14 0.12 -0.16 0.12 -0.19 0.1 -0.19 0.1 -0.22 0.09 -0.24 0.08 -0.26 0.08 -0.28 0.06 -0.3 0.07 -0.32 0.05 -0.35 0.04 -0.36 0.04 -0.39 0.03 -0.42 0.02 -0.43 0.02 -0.47 0.01 0 -0.35 0.46 0 0.43 -0.02 0.41 -0.02 0.38 -0.03 0.35 -0.04 0.34 -0.04 0.31 -0.05 0.29 -0.06 0.26 -0.06 0.24 -0.07 0.22 -0.08 0.21 -0.08 0.17 -0.09 0.16 -0.09 0.14 -0.1 0.12 -0.1 0.11 -0.1 0.08 -0.11 0.07 -0.11 0.05 -0.12 0.04 -0.11 0.03 -0.13 0.01 -0.13 0 -0.13 -0.01 -0.15 -0.02 -0.15 -0.04 -0.15 -0.05 -0.16 -0.07 -0.17 -0.07 -0.17 -0.09 -0.17 -0.1 -0.18 0.1 0.08zm0.1 -0.33l0.06 0.02 0.04 0.06 -0.1 -0.08zm-14.04 -4.09l-0.34 0.01 0.22 -0.17 0.44 0.13 0.44 0.14 0.44 0.13 0.45 0.13 0.44 0.14 0.44 0.13 0.44 0.13 0.45 0.13 0.44 0.14 0.44 0.13 0.44 0.13 0.45 0.14 0.44 0.13 0.44 0.13 0.44 0.13 0.45 0.14 0.44 0.13 0.44 0.13 0.44 0.13 0.45 0.14 0.44 0.13 0.44 0.13 0.44 0.14 0.45 0.13 0.44 0.13 0.44 0.13 0.44 0.14 0.45 0.13 0.44 0.13 0.44 0.13 0.44 0.14 0.45 0.13 -0.1 0.33 -0.44 -0.14 -0.45 -0.13 -0.44 -0.13 -0.44 -0.13 -0.44 -0.14 -0.45 -0.13 -0.44 -0.13 -0.44 -0.14 -0.44 -0.13 -0.45 -0.13 -0.44 -0.13 -0.44 -0.14 -0.44 -0.13 -0.45 -0.13 -0.44 -0.13 -0.44 -0.14 -0.44 -0.13 -0.45 -0.13 -0.44 -0.14 -0.44 -0.13 -0.44 -0.13 -0.45 -0.13 -0.44 -0.14 -0.44 -0.13 -0.44 -0.13 -0.45 -0.14 -0.44 -0.13 -0.44 -0.13 -0.44 -0.13 -0.45 -0.14 -0.44 -0.13 -0.44 -0.13 0.22 -0.17zm-0.34 0.01l-0.01 -0.24 0.23 0.07 -0.22 0.17zm0.64 3.88l-0.18 0.29 -0.08 -0.12 -0.02 -0.15 -0.02 -0.14 -0.03 -0.15 -0.02 -0.14 -0.02 -0.14 -0.01 -0.14 -0.02 -0.14 -0.02 -0.14 -0.02 -0.14 -0.01 -0.13 -0.02 -0.13 -0.01 -0.13 -0.02 -0.14 -0.01 -0.12 -0.01 -0.13 -0.01 -0.13 -0.02 -0.12 -0.01 -0.13 -0.01 -0.12 -0.01 -0.12 0 -0.12 -0.01 -0.12 -0.01 -0.12 -0.01 -0.11 0 -0.12 -0.01 -0.11 0 -0.12 -0.01 -0.11 0 -0.11 -0.01 -0.11 0 -0.11 0 -0.11 0.34 -0.01 0 0.11 0 0.11 0.01 0.11 0 0.1 0.01 0.12 0 0.11 0.01 0.11 0 0.12 0.01 0.11 0.01 0.12 0.01 0.12 0.01 0.11 0 0.12 0.01 0.12 0.02 0.13 0.01 0.12 0.01 0.13 0.01 0.12 0.01 0.13 0.02 0.13 0.01 0.13 0.02 0.13 0.01 0.13 0.02 0.14 0.02 0.14 0.01 0.13 0.02 0.14 0.02 0.14 0.02 0.14 0.02 0.15 0.02 0.14 0.03 0.15 -0.08 -0.12zm-0.18 0.29l-0.07 -0.04 -0.01 -0.08 0.08 0.12z"/>
  </g>
  <g>
   <path class="fil0" d="M6.93 58.58c5.59,6.35 10.02,8.22 13.72,7.3 3.85,-3.63 3.67,-8.68 5.5,-13.01 2.64,-6.01 7.99,-6.41 12.31,-9.7 5.06,-3.23 1.38,-13.82 -7.13,-10.4 -3.43,1.85 -5.01,9.09 -10.13,11.6 -8.11,3.65 -11.98,8.67 -14.27,14.21z"/>
   <path id="1" class="fil1" d="M20.53 65.76l0.24 0.25 -0.08 0.04 -0.35 0.08 -0.37 0.06 -0.36 0.04 -0.37 0.03 -0.38 0.01 -0.38 -0.01 -0.38 -0.02 -0.39 -0.05 -0.4 -0.07 -0.4 -0.08 -0.4 -0.1 -0.41 -0.13 -0.41 -0.14 -0.42 -0.17 -0.42 -0.19 -0.43 -0.2 -0.43 -0.23 -0.44 -0.25 -0.45 -0.27 -0.44 -0.29 -0.46 -0.32 -0.46 -0.34 -0.47 -0.36 -0.47 -0.39 -0.48 -0.41 -0.48 -0.43 -0.49 -0.46 -0.5 -0.48 -0.5 -0.51 -0.51 -0.53 -0.52 -0.56 -0.52 -0.58 0.25 -0.23 0.52 0.58 0.52 0.55 0.5 0.53 0.5 0.51 0.49 0.47 0.49 0.46 0.48 0.43 0.47 0.4 0.47 0.38 0.46 0.36 0.45 0.33 0.45 0.31 0.44 0.29 0.43 0.27 0.43 0.24 0.42 0.22 0.42 0.21 0.41 0.18 0.41 0.16 0.4 0.14 0.39 0.12 0.39 0.1 0.39 0.08 0.37 0.06 0.38 0.04 0.37 0.03 0.36 0.01 0.36 -0.01 0.35 -0.03 0.35 -0.04 0.35 -0.06 0.34 -0.07 -0.08 0.04zm0.24 0.25l-0.04 0.03 -0.04 0.01 0.08 -0.04zm5.23 -13.21l0.31 0.13 0 0 -0.17 0.41 -0.15 0.4 -0.14 0.42 -0.14 0.41 -0.13 0.42 -0.12 0.42 -0.12 0.43 -0.11 0.42 -0.12 0.43 -0.11 0.43 -0.1 0.43 -0.11 0.43 -0.12 0.42 -0.11 0.43 -0.12 0.43 -0.12 0.43 -0.13 0.42 -0.13 0.43 -0.15 0.42 -0.15 0.41 -0.17 0.42 -0.17 0.41 -0.19 0.4 -0.2 0.41 -0.22 0.39 -0.23 0.4 -0.26 0.38 -0.27 0.38 -0.28 0.37 -0.32 0.37 -0.33 0.36 -0.35 0.35 -0.24 -0.25 0.35 -0.34 0.32 -0.35 0.3 -0.35 0.28 -0.36 0.26 -0.37 0.25 -0.38 0.22 -0.38 0.22 -0.38 0.19 -0.39 0.19 -0.4 0.17 -0.4 0.16 -0.41 0.15 -0.41 0.14 -0.41 0.14 -0.42 0.12 -0.42 0.13 -0.42 0.11 -0.43 0.11 -0.42 0.11 -0.43 0.11 -0.43 0.11 -0.43 0.11 -0.43 0.12 -0.43 0.11 -0.42 0.12 -0.43 0.12 -0.43 0.13 -0.42 0.14 -0.42 0.15 -0.42 0.16 -0.42 0.16 -0.41 0.01 0zm-0.01 0l0.01 0 -0.02 0.04 0.01 -0.04zm12.38 -9.77l0.18 0.28 0.02 0 -0.42 0.3 -0.42 0.29 -0.42 0.27 -0.42 0.26 -0.43 0.25 -0.43 0.24 -0.43 0.23 -0.44 0.23 -0.43 0.22 -0.43 0.22 -0.43 0.21 -0.43 0.22 -0.43 0.22 -0.42 0.22 -0.42 0.22 -0.41 0.23 -0.41 0.24 -0.4 0.25 -0.4 0.26 -0.39 0.27 -0.38 0.29 -0.37 0.3 -0.36 0.31 -0.35 0.34 -0.34 0.35 -0.33 0.38 -0.32 0.4 -0.31 0.43 -0.29 0.45 -0.28 0.47 -0.27 0.51 -0.25 0.54 -0.31 -0.13 0.25 -0.56 0.28 -0.52 0.29 -0.49 0.3 -0.47 0.32 -0.44 0.32 -0.41 0.35 -0.39 0.35 -0.36 0.36 -0.35 0.37 -0.32 0.38 -0.31 0.39 -0.3 0.4 -0.27 0.4 -0.27 0.41 -0.25 0.42 -0.24 0.42 -0.24 0.42 -0.22 0.43 -0.22 0.43 -0.22 0.43 -0.22 0.43 -0.22 0.43 -0.22 0.43 -0.21 0.43 -0.23 0.42 -0.23 0.43 -0.24 0.42 -0.24 0.42 -0.26 0.41 -0.27 0.41 -0.28 0.41 -0.29 0.01 -0.01zm-0.01 0.01l0 -0.01 0.01 0 -0.01 0.01zm-6.95 -10.12l-0.17 -0.3 0.02 -0.01 0.8 -0.28 0.77 -0.21 0.74 -0.13 0.71 -0.06 0.68 0.01 0.65 0.08 0.61 0.13 0.59 0.19 0.54 0.24 0.52 0.29 0.47 0.34 0.44 0.37 0.4 0.41 0.36 0.44 0.32 0.47 0.28 0.5 0.24 0.51 0.19 0.53 0.16 0.54 0.11 0.55 0.07 0.55 0.02 0.56 -0.02 0.55 -0.06 0.54 -0.12 0.53 -0.16 0.52 -0.21 0.49 -0.26 0.48 -0.31 0.44 -0.36 0.41 -0.41 0.38 -0.47 0.33 -0.18 -0.28 0.43 -0.32 0.39 -0.35 0.33 -0.38 0.29 -0.41 0.24 -0.45 0.2 -0.46 0.15 -0.49 0.11 -0.5 0.06 -0.51 0.02 -0.52 -0.02 -0.53 -0.07 -0.52 -0.1 -0.53 -0.15 -0.51 -0.19 -0.51 -0.23 -0.48 -0.26 -0.47 -0.31 -0.45 -0.34 -0.42 -0.38 -0.39 -0.41 -0.35 -0.45 -0.32 -0.48 -0.27 -0.52 -0.23 -0.54 -0.18 -0.59 -0.13 -0.61 -0.07 -0.65 -0.01 -0.68 0.06 -0.71 0.12 -0.74 0.2 -0.77 0.28 0.02 -0.01zm-0.17 -0.3l0.01 -0.01 0.01 0 -0.02 0.01zm-9.97 11.91l-0.14 -0.32 -0.01 0.01 0.46 -0.25 0.44 -0.27 0.43 -0.29 0.4 -0.32 0.39 -0.33 0.38 -0.36 0.36 -0.37 0.35 -0.38 0.33 -0.4 0.33 -0.41 0.31 -0.42 0.31 -0.43 0.29 -0.44 0.29 -0.43 0.28 -0.45 0.28 -0.44 0.27 -0.44 0.27 -0.43 0.26 -0.43 0.27 -0.43 0.26 -0.41 0.27 -0.41 0.26 -0.39 0.27 -0.38 0.27 -0.36 0.27 -0.35 0.29 -0.32 0.29 -0.3 0.29 -0.28 0.31 -0.26 0.32 -0.22 0.32 -0.2 0.17 0.3 -0.31 0.18 -0.29 0.21 -0.29 0.24 -0.28 0.27 -0.28 0.29 -0.27 0.31 -0.27 0.34 -0.27 0.35 -0.26 0.37 -0.26 0.39 -0.26 0.4 -0.26 0.41 -0.26 0.42 -0.27 0.44 -0.27 0.43 -0.27 0.44 -0.28 0.45 -0.28 0.44 -0.29 0.44 -0.3 0.44 -0.31 0.44 -0.32 0.42 -0.33 0.42 -0.34 0.41 -0.36 0.4 -0.37 0.38 -0.39 0.36 -0.4 0.35 -0.42 0.33 -0.44 0.3 -0.46 0.28 -0.48 0.25 0 0.01zm0 -0.01l0 0.01 0 0 0 -0.01zm-14.22 13.95l-0.25 0.23 -0.03 -0.18 0.22 -0.52 0.23 -0.52 0.24 -0.51 0.25 -0.52 0.27 -0.5 0.27 -0.51 0.29 -0.5 0.3 -0.49 0.31 -0.49 0.33 -0.49 0.34 -0.48 0.36 -0.48 0.37 -0.47 0.39 -0.47 0.4 -0.46 0.42 -0.46 0.43 -0.45 0.46 -0.45 0.47 -0.43 0.49 -0.44 0.51 -0.43 0.53 -0.42 0.55 -0.41 0.57 -0.41 0.59 -0.4 0.62 -0.39 0.63 -0.39 0.66 -0.38 0.68 -0.37 0.7 -0.36 0.73 -0.36 0.75 -0.35 0.14 0.32 -0.75 0.34 -0.72 0.35 -0.69 0.36 -0.68 0.37 -0.65 0.37 -0.62 0.39 -0.61 0.39 -0.58 0.39 -0.56 0.4 -0.55 0.41 -0.52 0.42 -0.5 0.42 -0.49 0.43 -0.47 0.43 -0.44 0.44 -0.43 0.45 -0.42 0.45 -0.4 0.45 -0.38 0.46 -0.36 0.47 -0.35 0.47 -0.34 0.47 -0.32 0.48 -0.31 0.49 -0.3 0.49 -0.28 0.49 -0.27 0.5 -0.26 0.5 -0.25 0.5 -0.24 0.51 -0.23 0.51 -0.22 0.52 -0.03 -0.18zm-0.25 0.23l-0.07 -0.08 0.04 -0.1 0.03 0.18z"/>
  </g>
  <g>
   <path class="fil2" d="M6.93 58.58c5.59,6.35 10.02,8.22 13.72,7.3 0.66,-0.62 1.2,-1.28 1.65,-1.97 -5.32,-0.67 -8.76,-6.88 -9.66,-13.91 -2.69,2.61 -4.44,5.52 -5.71,8.58z"/>
   <path id="1" class="fil1" d="M20.53 65.76l0.24 0.25 -0.08 0.04 -0.35 0.08 -0.37 0.06 -0.36 0.04 -0.37 0.03 -0.38 0.01 -0.38 -0.01 -0.38 -0.02 -0.39 -0.05 -0.4 -0.07 -0.4 -0.08 -0.4 -0.1 -0.41 -0.13 -0.41 -0.14 -0.42 -0.17 -0.42 -0.19 -0.43 -0.2 -0.43 -0.23 -0.44 -0.25 -0.45 -0.27 -0.44 -0.29 -0.46 -0.32 -0.46 -0.34 -0.47 -0.36 -0.47 -0.39 -0.48 -0.41 -0.48 -0.43 -0.49 -0.46 -0.5 -0.48 -0.5 -0.51 -0.51 -0.53 -0.52 -0.56 -0.52 -0.58 0.25 -0.23 0.52 0.58 0.52 0.55 0.5 0.53 0.5 0.51 0.49 0.47 0.49 0.46 0.48 0.43 0.47 0.4 0.47 0.38 0.46 0.36 0.45 0.33 0.45 0.31 0.44 0.29 0.43 0.27 0.43 0.24 0.42 0.22 0.42 0.21 0.41 0.18 0.41 0.16 0.4 0.14 0.39 0.12 0.39 0.1 0.39 0.08 0.37 0.06 0.38 0.04 0.37 0.03 0.36 0.01 0.36 -0.01 0.35 -0.03 0.35 -0.04 0.35 -0.06 0.34 -0.07 -0.08 0.04zm0.24 0.25l-0.04 0.03 -0.04 0.01 0.08 -0.04zm1.51 -1.93l0.04 -0.34 0.12 0.26 -0.04 0.07 -0.05 0.07 -0.04 0.06 -0.04 0.07 -0.05 0.06 -0.05 0.07 -0.04 0.06 -0.05 0.06 -0.05 0.07 -0.05 0.06 -0.04 0.07 -0.05 0.06 -0.05 0.06 -0.05 0.07 -0.05 0.06 -0.06 0.06 -0.05 0.06 -0.05 0.07 -0.06 0.06 -0.05 0.06 -0.05 0.06 -0.06 0.06 -0.06 0.07 -0.05 0.06 -0.06 0.06 -0.06 0.06 -0.06 0.06 -0.06 0.06 -0.06 0.06 -0.06 0.06 -0.06 0.06 -0.06 0.06 -0.24 -0.25 0.06 -0.06 0.06 -0.06 0.06 -0.05 0.06 -0.06 0.06 -0.06 0.06 -0.06 0.05 -0.06 0.06 -0.06 0.05 -0.06 0.06 -0.05 0.05 -0.06 0.05 -0.06 0.06 -0.06 0.05 -0.06 0.05 -0.06 0.05 -0.07 0.05 -0.06 0.05 -0.06 0.05 -0.06 0.05 -0.06 0.05 -0.06 0.04 -0.06 0.05 -0.07 0.04 -0.06 0.05 -0.06 0.05 -0.06 0.04 -0.07 0.04 -0.06 0.05 -0.06 0.04 -0.06 0.04 -0.07 0.05 -0.06 0.12 0.26zm0.04 -0.34l0.27 0.04 -0.15 0.22 -0.12 -0.26zm-9.56 -13.62l-0.24 -0.24 0.29 0.1 0.09 0.65 0.11 0.65 0.12 0.64 0.13 0.63 0.15 0.63 0.17 0.61 0.17 0.61 0.19 0.59 0.21 0.58 0.22 0.57 0.23 0.56 0.25 0.54 0.25 0.53 0.28 0.51 0.28 0.49 0.3 0.48 0.31 0.45 0.32 0.44 0.33 0.42 0.35 0.39 0.36 0.37 0.37 0.36 0.38 0.32 0.39 0.3 0.41 0.28 0.41 0.25 0.43 0.22 0.44 0.2 0.45 0.17 0.46 0.14 0.47 0.1 0.48 0.08 -0.04 0.34 -0.51 -0.08 -0.49 -0.11 -0.48 -0.15 -0.47 -0.17 -0.46 -0.21 -0.44 -0.23 -0.44 -0.26 -0.42 -0.29 -0.4 -0.31 -0.4 -0.34 -0.38 -0.36 -0.37 -0.39 -0.36 -0.4 -0.34 -0.43 -0.33 -0.45 -0.32 -0.47 -0.3 -0.48 -0.29 -0.51 -0.28 -0.52 -0.26 -0.53 -0.25 -0.56 -0.24 -0.56 -0.22 -0.58 -0.21 -0.59 -0.19 -0.6 -0.18 -0.62 -0.17 -0.62 -0.15 -0.63 -0.14 -0.65 -0.12 -0.64 -0.11 -0.66 -0.09 -0.66 0.29 0.1zm-0.24 -0.24l0.25 -0.24 0.04 0.34 -0.29 -0.1zm-5.47 8.59l-0.25 0.23 -0.03 -0.18 0.12 -0.29 0.13 -0.29 0.12 -0.28 0.13 -0.29 0.14 -0.29 0.13 -0.28 0.14 -0.28 0.15 -0.28 0.14 -0.28 0.15 -0.28 0.16 -0.28 0.16 -0.28 0.16 -0.27 0.16 -0.28 0.17 -0.27 0.18 -0.27 0.18 -0.28 0.18 -0.26 0.19 -0.27 0.19 -0.27 0.19 -0.26 0.2 -0.27 0.21 -0.26 0.21 -0.26 0.21 -0.26 0.22 -0.25 0.23 -0.26 0.23 -0.25 0.23 -0.26 0.24 -0.25 0.25 -0.24 0.25 -0.25 0.24 0.24 -0.25 0.25 -0.24 0.24 -0.24 0.25 -0.23 0.25 -0.23 0.25 -0.22 0.25 -0.21 0.25 -0.22 0.26 -0.2 0.25 -0.21 0.26 -0.19 0.26 -0.2 0.26 -0.19 0.27 -0.18 0.26 -0.18 0.27 -0.18 0.26 -0.17 0.27 -0.17 0.27 -0.16 0.27 -0.16 0.27 -0.15 0.28 -0.16 0.27 -0.15 0.28 -0.14 0.27 -0.14 0.28 -0.14 0.28 -0.14 0.28 -0.13 0.28 -0.13 0.28 -0.12 0.29 -0.13 0.28 -0.12 0.29 -0.03 -0.18zm-0.25 0.23l-0.07 -0.08 0.04 -0.1 0.03 0.18z"/>
  </g>
  <g>
   <path class="fil2" d="M34.83 33.74c2.39,0 4.34,1.88 4.34,4.2 0,2.32 -1.95,4.2 -4.34,4.2 -2.4,0 -4.35,-1.88 -4.35,-4.2 0,-2.32 1.95,-4.2 4.35,-4.2z"/>
   <path id="1" class="fil1" d="M39.34 37.94l-0.34 0 0 0 -0.01 -0.21 -0.01 -0.2 -0.03 -0.21 -0.04 -0.19 -0.04 -0.2 -0.06 -0.19 -0.06 -0.19 -0.08 -0.18 -0.08 -0.18 -0.09 -0.17 -0.1 -0.17 -0.11 -0.16 -0.12 -0.16 -0.12 -0.15 -0.13 -0.15 -0.14 -0.14 -0.15 -0.13 -0.15 -0.13 -0.16 -0.12 -0.16 -0.11 -0.17 -0.11 -0.17 -0.09 -0.18 -0.09 -0.19 -0.08 -0.19 -0.08 -0.19 -0.06 -0.2 -0.05 -0.2 -0.05 -0.21 -0.03 -0.21 -0.03 -0.21 -0.02 -0.21 0 0 -0.34 0.23 0 0.23 0.02 0.22 0.03 0.22 0.04 0.22 0.04 0.22 0.06 0.21 0.07 0.2 0.08 0.2 0.09 0.19 0.09 0.19 0.11 0.19 0.11 0.17 0.12 0.17 0.13 0.17 0.14 0.15 0.15 0.15 0.15 0.15 0.16 0.13 0.16 0.13 0.17 0.11 0.18 0.11 0.18 0.1 0.19 0.09 0.19 0.09 0.2 0.07 0.21 0.06 0.2 0.05 0.21 0.04 0.22 0.03 0.22 0.01 0.22 0.01 0.23 0 0zm-4.51 4.37l0 -0.34 0 0 0.21 -0.01 0.21 -0.01 0.21 -0.03 0.21 -0.04 0.2 -0.04 0.2 -0.06 0.19 -0.06 0.19 -0.07 0.19 -0.08 0.18 -0.09 0.17 -0.1 0.17 -0.1 0.16 -0.12 0.16 -0.12 0.15 -0.12 0.15 -0.14 0.14 -0.14 0.13 -0.14 0.12 -0.15 0.12 -0.16 0.11 -0.17 0.1 -0.16 0.09 -0.18 0.08 -0.18 0.08 -0.18 0.06 -0.19 0.06 -0.19 0.04 -0.19 0.04 -0.2 0.03 -0.2 0.01 -0.21 0.01 -0.2 0.34 0 -0.01 0.22 -0.01 0.22 -0.03 0.22 -0.04 0.22 -0.05 0.21 -0.06 0.21 -0.07 0.2 -0.09 0.2 -0.09 0.19 -0.1 0.19 -0.11 0.19 -0.11 0.17 -0.13 0.18 -0.13 0.16 -0.15 0.16 -0.15 0.15 -0.15 0.14 -0.17 0.14 -0.17 0.13 -0.17 0.12 -0.19 0.12 -0.19 0.1 -0.19 0.1 -0.2 0.09 -0.2 0.07 -0.21 0.07 -0.22 0.06 -0.22 0.05 -0.22 0.04 -0.22 0.03 -0.23 0.01 -0.23 0.01 0 0zm-4.52 -4.37l0.34 0 0 0 0.01 0.2 0.01 0.21 0.03 0.2 0.04 0.2 0.04 0.19 0.06 0.19 0.06 0.19 0.08 0.18 0.08 0.18 0.09 0.18 0.1 0.16 0.11 0.17 0.12 0.16 0.12 0.15 0.13 0.14 0.14 0.14 0.15 0.14 0.15 0.12 0.16 0.12 0.16 0.12 0.17 0.1 0.17 0.1 0.18 0.09 0.19 0.08 0.19 0.07 0.19 0.06 0.2 0.06 0.2 0.04 0.21 0.04 0.21 0.03 0.21 0.01 0.22 0.01 0 0.34 -0.24 -0.01 -0.23 -0.01 -0.22 -0.03 -0.22 -0.04 -0.22 -0.05 -0.22 -0.06 -0.21 -0.07 -0.2 -0.07 -0.2 -0.09 -0.2 -0.1 -0.18 -0.1 -0.19 -0.12 -0.17 -0.12 -0.18 -0.13 -0.16 -0.14 -0.16 -0.14 -0.14 -0.15 -0.15 -0.16 -0.13 -0.16 -0.13 -0.18 -0.12 -0.17 -0.1 -0.19 -0.1 -0.19 -0.09 -0.19 -0.09 -0.2 -0.07 -0.2 -0.06 -0.21 -0.05 -0.21 -0.04 -0.22 -0.03 -0.22 -0.01 -0.22 -0.01 -0.22 0 0zm4.52 -4.37l0 0.34 0 0 -0.22 0 -0.21 0.02 -0.21 0.03 -0.21 0.03 -0.2 0.05 -0.2 0.05 -0.19 0.06 -0.19 0.08 -0.19 0.08 -0.18 0.09 -0.17 0.09 -0.17 0.11 -0.16 0.11 -0.16 0.12 -0.15 0.13 -0.15 0.13 -0.14 0.14 -0.13 0.15 -0.12 0.15 -0.12 0.16 -0.11 0.16 -0.1 0.17 -0.09 0.17 -0.08 0.18 -0.08 0.18 -0.06 0.19 -0.06 0.19 -0.04 0.2 -0.04 0.19 -0.03 0.21 -0.01 0.2 -0.01 0.21 -0.34 0 0.01 -0.23 0.01 -0.22 0.03 -0.22 0.04 -0.22 0.05 -0.21 0.06 -0.2 0.07 -0.21 0.09 -0.2 0.09 -0.19 0.1 -0.19 0.1 -0.18 0.12 -0.18 0.13 -0.17 0.13 -0.16 0.15 -0.16 0.14 -0.15 0.16 -0.15 0.16 -0.14 0.18 -0.13 0.17 -0.12 0.19 -0.11 0.18 -0.11 0.2 -0.09 0.2 -0.09 0.2 -0.08 0.21 -0.07 0.22 -0.06 0.22 -0.04 0.22 -0.04 0.22 -0.03 0.23 -0.02 0.24 0 0 0z"/>
  </g>
  <g>
   <path class="fil3" d="M57.29 65.85c3.96,0.66 6.93,0.15 9.9,-0.37 3.35,-1.49 -0.98,-2.3 -2.84,-3.67 -4.89,0.61 -5.91,-0.17 -8.62,1.84 0.48,1.03 0.7,0.85 1.56,2.2z"/>
   <path id="1" class="fil1" d="M67.12 65.33l0.14 0.31 -0.04 0.01 -0.28 0.05 -0.28 0.05 -0.28 0.04 -0.28 0.05 -0.28 0.05 -0.28 0.04 -0.28 0.05 -0.29 0.04 -0.28 0.04 -0.29 0.04 -0.29 0.03 -0.29 0.04 -0.3 0.03 -0.29 0.03 -0.3 0.02 -0.3 0.03 -0.31 0.02 -0.31 0.01 -0.31 0.01 -0.32 0.01 -0.31 0 -0.33 0 -0.32 -0.01 -0.33 -0.01 -0.34 -0.01 -0.34 -0.03 -0.34 -0.02 -0.35 -0.04 -0.36 -0.04 -0.36 -0.04 -0.36 -0.05 -0.37 -0.06 0.05 -0.34 0.37 0.06 0.36 0.05 0.35 0.05 0.35 0.04 0.35 0.03 0.33 0.02 0.34 0.03 0.33 0.01 0.33 0.01 0.32 0.01 0.32 0 0.31 0 0.31 -0.01 0.31 -0.01 0.3 -0.02 0.3 -0.01 0.3 -0.03 0.3 -0.02 0.29 -0.03 0.29 -0.03 0.29 -0.03 0.28 -0.04 0.29 -0.04 0.28 -0.04 0.29 -0.04 0.28 -0.04 0.28 -0.05 0.27 -0.04 0.28 -0.05 0.28 -0.05 0.28 -0.05 0.28 -0.04 -0.04 0.01zm0.14 0.31l-0.02 0.01 -0.02 0 0.04 -0.01zm-2.88 -3.66l-0.05 -0.33 0.13 0.03 0.17 0.12 0.19 0.12 0.2 0.12 0.21 0.11 0.21 0.12 0.23 0.11 0.23 0.11 0.23 0.11 0.22 0.11 0.23 0.1 0.23 0.11 0.22 0.11 0.21 0.1 0.2 0.11 0.19 0.11 0.19 0.11 0.16 0.11 0.15 0.11 0.14 0.12 0.11 0.12 0.1 0.13 0.07 0.14 0.04 0.15 0 0.15 -0.04 0.16 -0.08 0.15 -0.11 0.15 -0.14 0.13 -0.19 0.14 -0.22 0.14 -0.25 0.14 -0.3 0.14 -0.14 -0.31 0.28 -0.14 0.24 -0.13 0.2 -0.12 0.16 -0.12 0.11 -0.11 0.08 -0.09 0.04 -0.09 0.02 -0.08 0 -0.07 -0.02 -0.07 -0.04 -0.08 -0.07 -0.09 -0.09 -0.1 -0.11 -0.09 -0.13 -0.1 -0.16 -0.1 -0.16 -0.11 -0.19 -0.1 -0.2 -0.1 -0.2 -0.11 -0.22 -0.1 -0.22 -0.11 -0.23 -0.1 -0.23 -0.11 -0.23 -0.11 -0.23 -0.12 -0.23 -0.11 -0.22 -0.12 -0.22 -0.12 -0.21 -0.12 -0.2 -0.13 -0.19 -0.13 0.13 0.03zm-0.05 -0.33l0.07 -0.01 0.06 0.04 -0.13 -0.03zm-8.45 1.93l-0.31 0.14 0.05 -0.21 0.26 -0.18 0.24 -0.17 0.24 -0.15 0.23 -0.14 0.23 -0.13 0.22 -0.11 0.21 -0.1 0.22 -0.09 0.21 -0.08 0.22 -0.07 0.21 -0.06 0.21 -0.05 0.22 -0.05 0.22 -0.03 0.22 -0.04 0.23 -0.02 0.23 -0.03 0.24 -0.02 0.25 -0.01 0.25 -0.02 0.27 -0.01 0.28 -0.02 0.29 -0.01 0.3 -0.02 0.31 -0.01 0.33 -0.02 0.35 -0.03 0.37 -0.03 0.38 -0.03 0.4 -0.04 0.43 -0.04 0.44 -0.05 0.05 0.33 -0.45 0.06 -0.43 0.04 -0.41 0.04 -0.38 0.03 -0.37 0.03 -0.35 0.03 -0.34 0.02 -0.31 0.01 -0.31 0.02 -0.29 0.01 -0.27 0.02 -0.27 0.01 -0.25 0.02 -0.25 0.01 -0.23 0.02 -0.22 0.03 -0.22 0.02 -0.22 0.03 -0.21 0.04 -0.2 0.04 -0.2 0.05 -0.2 0.06 -0.2 0.06 -0.2 0.08 -0.21 0.08 -0.2 0.1 -0.21 0.11 -0.22 0.12 -0.22 0.13 -0.23 0.15 -0.24 0.16 -0.24 0.18 0.05 -0.21zm-0.31 0.14l-0.06 -0.13 0.11 -0.08 -0.05 0.21zm1.75 1.96l-0.05 0.34 -0.12 -0.08 -0.08 -0.12 -0.07 -0.11 -0.07 -0.1 -0.07 -0.1 -0.06 -0.09 -0.07 -0.08 -0.06 -0.08 -0.05 -0.07 -0.05 -0.07 -0.05 -0.06 -0.05 -0.06 -0.05 -0.05 -0.05 -0.05 -0.04 -0.06 -0.05 -0.05 -0.04 -0.04 -0.04 -0.05 -0.04 -0.05 -0.04 -0.05 -0.04 -0.05 -0.04 -0.05 -0.05 -0.05 -0.04 -0.06 -0.04 -0.05 -0.04 -0.06 -0.04 -0.07 -0.04 -0.07 -0.04 -0.07 -0.04 -0.08 -0.05 -0.08 -0.04 -0.09 -0.05 -0.1 0.31 -0.14 0.04 0.09 0.05 0.08 0.04 0.08 0.04 0.07 0.04 0.07 0.03 0.06 0.04 0.06 0.03 0.05 0.04 0.06 0.04 0.05 0.03 0.04 0.04 0.05 0.04 0.04 0.04 0.05 0.04 0.05 0.04 0.04 0.04 0.05 0.04 0.05 0.05 0.05 0.05 0.06 0.04 0.05 0.06 0.06 0.05 0.07 0.06 0.07 0.06 0.08 0.06 0.07 0.06 0.09 0.07 0.09 0.07 0.1 0.07 0.11 0.08 0.12 0.08 0.12 -0.12 -0.08zm-0.05 0.34l-0.08 -0.01 -0.04 -0.07 0.12 0.08z"/>
  </g>
  <g>
   <path class="fil0" d="M55.73 63.65c0.81,-2.86 1.11,-5.92 4.95,-7.57 0.71,-0.41 0.85,-0.93 0.11,-1.63 -4.64,-1.62 -6.38,-5.72 -7.95,-9.97 -1.73,-9.72 6.57,-13.16 12.63,-9.75 6.51,3.87 8,10.58 4.2,20.26 0.29,3.31 0.25,6.58 -0.77,9.75 -0.81,1.66 -7.65,-0.09 -13.17,-1.09z"/>
   <path id="1" class="fil1" d="M60.6 55.93l0.17 0.3 -0.02 0.01 -0.34 0.15 -0.33 0.16 -0.3 0.17 -0.29 0.18 -0.26 0.19 -0.26 0.19 -0.23 0.19 -0.22 0.21 -0.2 0.21 -0.19 0.21 -0.18 0.22 -0.17 0.22 -0.15 0.23 -0.15 0.24 -0.13 0.23 -0.13 0.25 -0.12 0.24 -0.1 0.25 -0.1 0.25 -0.1 0.26 -0.09 0.26 -0.08 0.26 -0.09 0.26 -0.07 0.27 -0.08 0.27 -0.07 0.26 -0.07 0.27 -0.07 0.27 -0.07 0.27 -0.07 0.27 -0.07 0.28 -0.08 0.27 -0.33 -0.1 0.08 -0.26 0.07 -0.27 0.07 -0.27 0.07 -0.27 0.07 -0.27 0.07 -0.27 0.07 -0.27 0.08 -0.27 0.08 -0.27 0.08 -0.27 0.09 -0.27 0.09 -0.27 0.1 -0.26 0.1 -0.26 0.12 -0.26 0.12 -0.26 0.13 -0.25 0.14 -0.25 0.15 -0.24 0.16 -0.24 0.18 -0.24 0.19 -0.23 0.2 -0.23 0.21 -0.22 0.24 -0.21 0.24 -0.21 0.27 -0.2 0.28 -0.19 0.29 -0.19 0.32 -0.18 0.34 -0.17 0.35 -0.16 -0.01 0.01zm0.17 0.3l-0.01 0 -0.01 0.01 0.02 -0.01zm-0.04 -1.62l0.12 -0.33 0.06 0.04 0.07 0.07 0.06 0.07 0.06 0.07 0.06 0.06 0.05 0.07 0.05 0.07 0.04 0.06 0.04 0.07 0.03 0.07 0.03 0.06 0.02 0.07 0.02 0.07 0.01 0.06 0 0.07 0 0.06 0 0.07 -0.01 0.07 -0.02 0.06 -0.02 0.06 -0.02 0.06 -0.03 0.06 -0.04 0.05 -0.04 0.06 -0.04 0.05 -0.05 0.05 -0.04 0.05 -0.06 0.05 -0.06 0.04 -0.05 0.05 -0.07 0.04 -0.06 0.04 -0.07 0.05 -0.17 -0.3 0.06 -0.04 0.05 -0.03 0.06 -0.04 0.05 -0.04 0.04 -0.03 0.04 -0.04 0.04 -0.04 0.03 -0.03 0.03 -0.04 0.03 -0.04 0.02 -0.03 0.02 -0.04 0.01 -0.03 0.02 -0.04 0.01 -0.03 0 -0.04 0 -0.03 0 -0.04 0 -0.04 -0.01 -0.04 -0.01 -0.04 -0.01 -0.05 -0.02 -0.05 -0.02 -0.04 -0.03 -0.05 -0.03 -0.05 -0.04 -0.06 -0.05 -0.05 -0.04 -0.06 -0.05 -0.06 -0.06 -0.06 -0.07 -0.06 0.06 0.04zm0.12 -0.33l0.03 0.02 0.03 0.02 -0.06 -0.04zm-8.18 -9.77l0.34 -0.06 -0.01 -0.03 0.15 0.4 0.14 0.39 0.16 0.4 0.15 0.39 0.16 0.39 0.15 0.38 0.17 0.38 0.17 0.38 0.17 0.37 0.18 0.37 0.18 0.37 0.19 0.35 0.2 0.35 0.2 0.35 0.21 0.33 0.22 0.33 0.23 0.32 0.24 0.32 0.25 0.3 0.25 0.3 0.27 0.28 0.28 0.28 0.29 0.27 0.31 0.25 0.31 0.25 0.33 0.23 0.35 0.22 0.35 0.21 0.37 0.19 0.39 0.19 0.41 0.17 0.42 0.15 -0.12 0.33 -0.43 -0.16 -0.42 -0.18 -0.4 -0.19 -0.38 -0.2 -0.37 -0.22 -0.36 -0.23 -0.34 -0.24 -0.33 -0.25 -0.31 -0.27 -0.3 -0.27 -0.29 -0.29 -0.28 -0.29 -0.26 -0.31 -0.26 -0.31 -0.24 -0.32 -0.24 -0.33 -0.22 -0.34 -0.22 -0.35 -0.21 -0.35 -0.2 -0.35 -0.19 -0.37 -0.19 -0.37 -0.18 -0.37 -0.17 -0.38 -0.17 -0.38 -0.17 -0.39 -0.16 -0.38 -0.16 -0.4 -0.15 -0.39 -0.15 -0.4 -0.15 -0.39 -0.15 -0.4 -0.01 -0.03zm0.01 0.03l-0.01 -0.02 0 -0.01 0.01 0.03zm12.88 -9.96l-0.17 0.3 0 0 -0.56 -0.3 -0.58 -0.25 -0.58 -0.22 -0.6 -0.18 -0.59 -0.13 -0.59 -0.1 -0.6 -0.06 -0.59 -0.02 -0.59 0.02 -0.58 0.05 -0.57 0.09 -0.56 0.14 -0.54 0.17 -0.53 0.21 -0.51 0.24 -0.5 0.28 -0.46 0.33 -0.45 0.35 -0.41 0.4 -0.39 0.43 -0.36 0.47 -0.32 0.51 -0.29 0.54 -0.25 0.59 -0.21 0.62 -0.17 0.65 -0.12 0.7 -0.08 0.73 -0.03 0.77 0.02 0.81 0.07 0.85 0.14 0.88 -0.34 0.06 -0.13 -0.9 -0.08 -0.87 -0.02 -0.83 0.03 -0.79 0.08 -0.76 0.13 -0.72 0.17 -0.68 0.22 -0.65 0.26 -0.6 0.31 -0.57 0.33 -0.53 0.38 -0.49 0.4 -0.46 0.44 -0.41 0.46 -0.38 0.49 -0.33 0.52 -0.3 0.53 -0.26 0.55 -0.21 0.57 -0.18 0.58 -0.14 0.6 -0.1 0.6 -0.06 0.61 -0.01 0.61 0.02 0.62 0.06 0.62 0.1 0.61 0.15 0.61 0.18 0.61 0.22 0.59 0.27 0.59 0.3 0 0zm0 0l0 0 -0.01 0 0.01 0zm4.28 20.39l-0.34 0.04 0.01 -0.08 0.34 -0.9 0.31 -0.88 0.28 -0.86 0.24 -0.84 0.22 -0.82 0.18 -0.81 0.16 -0.79 0.12 -0.77 0.1 -0.75 0.06 -0.74 0.03 -0.72 0.01 -0.7 -0.03 -0.69 -0.06 -0.66 -0.08 -0.65 -0.12 -0.63 -0.15 -0.62 -0.17 -0.6 -0.21 -0.58 -0.23 -0.56 -0.27 -0.55 -0.29 -0.53 -0.32 -0.51 -0.36 -0.5 -0.38 -0.48 -0.41 -0.46 -0.44 -0.45 -0.47 -0.44 -0.5 -0.41 -0.53 -0.4 -0.56 -0.39 -0.59 -0.36 0.17 -0.3 0.6 0.38 0.58 0.39 0.54 0.41 0.51 0.43 0.49 0.44 0.45 0.46 0.42 0.48 0.4 0.49 0.36 0.52 0.33 0.53 0.31 0.54 0.27 0.57 0.24 0.58 0.21 0.6 0.18 0.61 0.15 0.64 0.13 0.64 0.08 0.67 0.06 0.68 0.03 0.7 0 0.72 -0.04 0.73 -0.06 0.75 -0.1 0.77 -0.13 0.78 -0.15 0.8 -0.19 0.82 -0.22 0.83 -0.25 0.85 -0.28 0.87 -0.31 0.89 -0.34 0.9 0.01 -0.08zm-0.34 0.04l-0.01 -0.04 0.02 -0.04 -0.01 0.08zm-0.44 9.8l-0.31 -0.15 -0.01 0.03 0.09 -0.3 0.09 -0.29 0.08 -0.3 0.07 -0.29 0.08 -0.3 0.06 -0.3 0.06 -0.3 0.06 -0.29 0.05 -0.3 0.04 -0.3 0.04 -0.3 0.04 -0.3 0.03 -0.31 0.03 -0.3 0.03 -0.3 0.02 -0.3 0.01 -0.31 0.02 -0.3 0.01 -0.3 0 -0.31 0.01 -0.3 0 -0.31 -0.01 -0.31 -0.01 -0.3 -0.01 -0.31 -0.01 -0.31 -0.01 -0.3 -0.02 -0.31 -0.02 -0.31 -0.02 -0.31 -0.03 -0.31 -0.02 -0.3 0.34 -0.04 0.02 0.31 0.03 0.32 0.02 0.31 0.02 0.31 0.02 0.31 0.01 0.31 0.02 0.31 0 0.31 0.01 0.31 0.01 0.31 0 0.31 -0.01 0.31 0 0.31 -0.01 0.3 -0.02 0.31 -0.01 0.31 -0.02 0.31 -0.03 0.3 -0.03 0.31 -0.03 0.3 -0.04 0.31 -0.04 0.31 -0.05 0.3 -0.05 0.31 -0.06 0.3 -0.06 0.3 -0.06 0.31 -0.07 0.3 -0.08 0.3 -0.08 0.3 -0.09 0.3 -0.09 0.3 -0.01 0.02zm0.01 -0.02l-0.01 0.02 0 0 0.01 -0.02zm-13.51 -1.19l0.33 0.1 -0.13 -0.22 0.52 0.1 0.53 0.1 0.53 0.1 0.54 0.1 0.54 0.11 0.53 0.11 0.54 0.1 0.54 0.11 0.54 0.1 0.53 0.1 0.52 0.1 0.52 0.09 0.5 0.09 0.5 0.09 0.49 0.07 0.47 0.07 0.46 0.07 0.45 0.05 0.42 0.04 0.41 0.04 0.39 0.02 0.37 0.01 0.35 0 0.32 -0.01 0.29 -0.03 0.27 -0.04 0.23 -0.05 0.21 -0.07 0.17 -0.08 0.13 -0.09 0.11 -0.1 0.07 -0.12 0.31 0.15 -0.12 0.18 -0.15 0.15 -0.18 0.13 -0.22 0.1 -0.24 0.08 -0.26 0.06 -0.29 0.04 -0.31 0.03 -0.34 0.01 -0.35 0 -0.38 -0.01 -0.4 -0.02 -0.42 -0.04 -0.43 -0.04 -0.45 -0.06 -0.47 -0.06 -0.47 -0.07 -0.49 -0.08 -0.5 -0.08 -0.51 -0.09 -0.52 -0.09 -0.53 -0.1 -0.53 -0.1 -0.53 -0.11 -0.54 -0.1 -0.54 -0.11 -0.54 -0.1 -0.54 -0.11 -0.53 -0.11 -0.54 -0.1 -0.52 -0.1 -0.53 -0.09 -0.13 -0.22zm0.13 0.22l-0.18 -0.04 0.05 -0.18 0.13 0.22z"/>
  </g>
  <g>
   <path class="fil2" d="M60.57 35.76c3.37,0 6.09,2.63 6.09,5.88 0,3.25 -2.72,5.89 -6.09,5.89 -3.36,0 -6.08,-2.64 -6.08,-5.89 0,-3.25 2.72,-5.88 6.08,-5.88z"/>
   <path id="1" class="fil1" d="M66.83 41.64l-0.34 0 0 0 -0.01 -0.29 -0.02 -0.29 -0.04 -0.29 -0.05 -0.28 -0.07 -0.27 -0.08 -0.27 -0.09 -0.27 -0.1 -0.26 -0.12 -0.25 -0.13 -0.25 -0.14 -0.24 -0.16 -0.23 -0.16 -0.22 -0.18 -0.22 -0.18 -0.21 -0.2 -0.19 -0.21 -0.19 -0.21 -0.18 -0.22 -0.17 -0.24 -0.16 -0.24 -0.15 -0.25 -0.14 -0.25 -0.13 -0.26 -0.11 -0.27 -0.1 -0.28 -0.09 -0.28 -0.08 -0.28 -0.06 -0.3 -0.05 -0.29 -0.04 -0.3 -0.02 -0.31 -0.01 0 -0.34 0.32 0.01 0.32 0.02 0.31 0.04 0.31 0.05 0.31 0.07 0.29 0.08 0.29 0.1 0.29 0.1 0.28 0.12 0.26 0.14 0.27 0.14 0.25 0.16 0.25 0.17 0.23 0.18 0.23 0.19 0.22 0.2 0.2 0.21 0.2 0.22 0.19 0.23 0.17 0.24 0.16 0.24 0.15 0.26 0.14 0.26 0.13 0.27 0.11 0.27 0.1 0.28 0.08 0.29 0.07 0.29 0.06 0.3 0.04 0.3 0.02 0.31 0.01 0.31 0 0zm-6.26 6.06l0 -0.34 0 0 0.31 -0.01 0.3 -0.02 0.29 -0.04 0.3 -0.05 0.28 -0.06 0.28 -0.08 0.28 -0.09 0.27 -0.1 0.26 -0.12 0.25 -0.12 0.25 -0.14 0.24 -0.15 0.24 -0.16 0.22 -0.17 0.21 -0.18 0.21 -0.19 0.2 -0.2 0.18 -0.2 0.18 -0.22 0.16 -0.22 0.16 -0.24 0.14 -0.23 0.13 -0.25 0.12 -0.25 0.1 -0.26 0.09 -0.27 0.08 -0.27 0.07 -0.28 0.05 -0.28 0.04 -0.28 0.02 -0.29 0.01 -0.3 0.34 0 -0.01 0.31 -0.02 0.31 -0.04 0.31 -0.06 0.3 -0.07 0.29 -0.08 0.29 -0.1 0.28 -0.11 0.27 -0.13 0.27 -0.14 0.26 -0.15 0.25 -0.16 0.25 -0.17 0.24 -0.19 0.23 -0.2 0.22 -0.2 0.21 -0.22 0.2 -0.23 0.19 -0.23 0.18 -0.25 0.17 -0.25 0.15 -0.27 0.15 -0.26 0.13 -0.28 0.12 -0.29 0.11 -0.29 0.1 -0.29 0.08 -0.31 0.07 -0.31 0.05 -0.31 0.04 -0.32 0.02 -0.32 0.01 0 0zm-6.25 -6.06l0.34 0 0 0 0 0.3 0.03 0.29 0.03 0.28 0.06 0.28 0.06 0.28 0.08 0.27 0.09 0.27 0.11 0.26 0.12 0.25 0.13 0.25 0.14 0.23 0.16 0.24 0.16 0.22 0.18 0.22 0.18 0.2 0.2 0.2 0.2 0.19 0.22 0.18 0.22 0.17 0.23 0.16 0.24 0.15 0.25 0.14 0.26 0.12 0.26 0.12 0.27 0.1 0.27 0.09 0.28 0.08 0.29 0.06 0.29 0.05 0.3 0.04 0.3 0.02 0.3 0.01 0 0.34 -0.32 -0.01 -0.32 -0.02 -0.31 -0.04 -0.31 -0.05 -0.3 -0.07 -0.3 -0.08 -0.29 -0.1 -0.28 -0.11 -0.28 -0.12 -0.27 -0.13 -0.26 -0.15 -0.25 -0.15 -0.25 -0.17 -0.23 -0.18 -0.23 -0.19 -0.22 -0.2 -0.21 -0.21 -0.19 -0.22 -0.19 -0.23 -0.17 -0.24 -0.17 -0.25 -0.15 -0.25 -0.14 -0.26 -0.12 -0.27 -0.11 -0.27 -0.1 -0.28 -0.09 -0.29 -0.07 -0.29 -0.05 -0.3 -0.04 -0.31 -0.03 -0.31 0 -0.31 0 0zm6.25 -6.05l0 0.34 0 0 -0.3 0.01 -0.3 0.02 -0.3 0.04 -0.29 0.05 -0.29 0.06 -0.28 0.08 -0.27 0.09 -0.27 0.1 -0.26 0.11 -0.26 0.13 -0.25 0.14 -0.24 0.15 -0.23 0.16 -0.22 0.17 -0.22 0.18 -0.2 0.19 -0.2 0.19 -0.18 0.21 -0.18 0.22 -0.17 0.22 -0.15 0.23 -0.14 0.24 -0.13 0.25 -0.12 0.25 -0.11 0.26 -0.09 0.27 -0.08 0.27 -0.06 0.27 -0.06 0.28 -0.03 0.29 -0.03 0.29 0 0.29 -0.34 0 0 -0.31 0.03 -0.31 0.04 -0.3 0.05 -0.3 0.07 -0.29 0.09 -0.29 0.1 -0.28 0.11 -0.27 0.12 -0.27 0.14 -0.26 0.15 -0.26 0.17 -0.24 0.17 -0.24 0.19 -0.23 0.19 -0.22 0.21 -0.21 0.22 -0.2 0.23 -0.19 0.23 -0.18 0.25 -0.17 0.25 -0.16 0.26 -0.14 0.27 -0.14 0.28 -0.12 0.28 -0.1 0.29 -0.1 0.3 -0.08 0.3 -0.07 0.31 -0.05 0.31 -0.04 0.32 -0.02 0.32 -0.01 0 0z"/>
  </g>
  <g>
   <path class="fil0" d="M0.17 25.05c0.91,-0.09 2.05,-0.99 2.15,-1.86 -2.21,-9.36 2.47,-16.45 13.94,-21.31 7.12,-1.26 14.15,-1.03 20.44,9.94 2,4.55 1.91,8.32 -0.09,10.87 -4.93,4.69 -10.09,9.23 -18.04,12.07 -8.38,2.55 -13.63,-1.16 -18,-6.63 -0.48,-1.23 -0.38,-1.86 -0.4,-3.08z"/>
   <path id="1" class="fil1" d="M2.15 23.23l0.33 -0.07 0.01 0.05 -0.02 0.1 -0.02 0.09 -0.03 0.09 -0.03 0.09 -0.03 0.09 -0.05 0.09 -0.05 0.09 -0.05 0.08 -0.05 0.08 -0.06 0.09 -0.07 0.08 -0.07 0.07 -0.07 0.08 -0.07 0.07 -0.08 0.07 -0.08 0.07 -0.08 0.07 -0.09 0.06 -0.09 0.07 -0.08 0.06 -0.1 0.05 -0.09 0.05 -0.09 0.05 -0.09 0.05 -0.1 0.04 -0.09 0.04 -0.1 0.03 -0.09 0.03 -0.1 0.03 -0.09 0.02 -0.1 0.01 -0.09 0.02 -0.03 -0.34 0.07 -0.01 0.08 -0.02 0.08 -0.02 0.08 -0.02 0.09 -0.02 0.08 -0.03 0.08 -0.04 0.09 -0.03 0.08 -0.04 0.08 -0.05 0.08 -0.04 0.08 -0.05 0.08 -0.06 0.08 -0.05 0.08 -0.06 0.07 -0.06 0.07 -0.06 0.07 -0.06 0.07 -0.07 0.06 -0.07 0.06 -0.07 0.06 -0.06 0.05 -0.07 0.05 -0.08 0.04 -0.07 0.04 -0.07 0.04 -0.07 0.02 -0.07 0.03 -0.07 0.02 -0.07 0.02 -0.08 0.01 -0.06 0 0.05zm0.33 -0.07l0.01 0.02 0 0.03 -0.01 -0.05zm13.75 -21.45l0.06 0.33 0.03 -0.01 -1.05 0.46 -1.01 0.48 -0.97 0.48 -0.93 0.5 -0.89 0.51 -0.85 0.53 -0.82 0.54 -0.77 0.55 -0.73 0.56 -0.69 0.58 -0.65 0.58 -0.61 0.61 -0.57 0.61 -0.53 0.63 -0.5 0.64 -0.45 0.65 -0.41 0.67 -0.37 0.67 -0.33 0.69 -0.29 0.71 -0.26 0.71 -0.21 0.73 -0.17 0.75 -0.14 0.75 -0.09 0.77 -0.06 0.78 -0.01 0.8 0.02 0.81 0.07 0.82 0.1 0.84 0.15 0.85 0.18 0.87 -0.33 0.07 -0.19 -0.87 -0.14 -0.87 -0.11 -0.85 -0.07 -0.84 -0.02 -0.83 0.01 -0.81 0.06 -0.8 0.09 -0.79 0.14 -0.77 0.18 -0.76 0.22 -0.75 0.26 -0.73 0.3 -0.73 0.34 -0.7 0.38 -0.7 0.42 -0.68 0.46 -0.66 0.5 -0.66 0.54 -0.64 0.58 -0.62 0.63 -0.61 0.66 -0.6 0.7 -0.59 0.74 -0.57 0.78 -0.55 0.82 -0.55 0.86 -0.53 0.9 -0.52 0.94 -0.5 0.98 -0.49 1.02 -0.48 1.06 -0.46 0.04 -0.01zm-0.04 0.01l0.02 -0.01 0.02 0 -0.04 0.01zm20.67 10.03l-0.32 0.14 0.01 0.01 -0.59 -0.99 -0.59 -0.93 -0.6 -0.87 -0.6 -0.82 -0.6 -0.75 -0.61 -0.71 -0.61 -0.65 -0.61 -0.59 -0.62 -0.55 -0.62 -0.51 -0.62 -0.45 -0.62 -0.41 -0.63 -0.37 -0.63 -0.33 -0.63 -0.29 -0.64 -0.26 -0.63 -0.21 -0.64 -0.19 -0.65 -0.15 -0.64 -0.12 -0.65 -0.1 -0.64 -0.06 -0.65 -0.05 -0.66 -0.01 -0.65 0 -0.66 0.03 -0.66 0.04 -0.66 0.06 -0.66 0.08 -0.66 0.09 -0.67 0.1 -0.66 0.11 -0.06 -0.33 0.67 -0.12 0.67 -0.1 0.67 -0.09 0.67 -0.08 0.66 -0.06 0.67 -0.04 0.67 -0.03 0.66 0 0.67 0.01 0.66 0.05 0.67 0.06 0.66 0.1 0.66 0.13 0.65 0.15 0.66 0.19 0.65 0.22 0.65 0.26 0.65 0.3 0.65 0.34 0.64 0.38 0.64 0.42 0.63 0.47 0.63 0.51 0.63 0.56 0.62 0.61 0.62 0.66 0.62 0.71 0.61 0.77 0.61 0.82 0.61 0.88 0.59 0.94 0.6 1 0.01 0.02zm-0.01 -0.02l0.01 0.02 -0.01 -0.01 0 -0.01zm-0.12 11.09l-0.24 -0.25 -0.02 0.02 0.18 -0.24 0.17 -0.24 0.15 -0.25 0.15 -0.26 0.13 -0.27 0.13 -0.27 0.11 -0.27 0.1 -0.29 0.09 -0.29 0.07 -0.29 0.07 -0.31 0.06 -0.31 0.04 -0.31 0.03 -0.33 0.03 -0.32 0 -0.34 0 -0.34 -0.01 -0.34 -0.02 -0.36 -0.04 -0.35 -0.05 -0.37 -0.06 -0.37 -0.07 -0.37 -0.08 -0.38 -0.1 -0.39 -0.11 -0.39 -0.12 -0.4 -0.13 -0.4 -0.14 -0.41 -0.16 -0.41 -0.17 -0.41 -0.18 -0.42 0.32 -0.14 0.18 0.43 0.17 0.42 0.16 0.42 0.15 0.41 0.13 0.41 0.12 0.41 0.11 0.4 0.1 0.39 0.08 0.39 0.08 0.38 0.06 0.38 0.05 0.38 0.04 0.37 0.02 0.36 0.01 0.35 0.01 0.36 -0.01 0.34 -0.03 0.34 -0.03 0.34 -0.05 0.33 -0.05 0.32 -0.07 0.32 -0.09 0.31 -0.09 0.3 -0.1 0.3 -0.12 0.29 -0.13 0.28 -0.14 0.28 -0.15 0.27 -0.17 0.26 -0.17 0.26 -0.19 0.25 -0.01 0.02zm0.01 -0.02l-0.01 0.01 0 0.01 0.01 -0.02zm-18.12 12.12l-0.1 -0.32 -0.01 0 0.74 -0.27 0.72 -0.28 0.7 -0.29 0.69 -0.3 0.67 -0.31 0.66 -0.31 0.65 -0.33 0.63 -0.33 0.62 -0.33 0.61 -0.35 0.59 -0.36 0.59 -0.35 0.58 -0.37 0.56 -0.38 0.56 -0.38 0.54 -0.38 0.54 -0.39 0.53 -0.4 0.52 -0.4 0.52 -0.4 0.5 -0.41 0.5 -0.41 0.5 -0.42 0.49 -0.42 0.48 -0.43 0.48 -0.42 0.48 -0.43 0.47 -0.43 0.47 -0.44 0.47 -0.44 0.46 -0.43 0.46 -0.44 0.24 0.25 -0.47 0.44 -0.46 0.43 -0.47 0.44 -0.47 0.44 -0.47 0.43 -0.48 0.43 -0.48 0.43 -0.49 0.43 -0.49 0.42 -0.5 0.42 -0.5 0.41 -0.51 0.42 -0.52 0.4 -0.52 0.41 -0.54 0.39 -0.54 0.4 -0.55 0.39 -0.56 0.38 -0.57 0.37 -0.58 0.37 -0.59 0.37 -0.6 0.35 -0.62 0.35 -0.62 0.34 -0.64 0.34 -0.65 0.33 -0.67 0.31 -0.68 0.31 -0.69 0.3 -0.71 0.3 -0.72 0.28 -0.74 0.27 -0.01 0zm0.01 0l-0.01 0 0 0 0.01 0zm-18.22 -6.73l0.32 -0.12 -0.03 -0.04 0.41 0.5 0.42 0.49 0.42 0.49 0.43 0.46 0.43 0.46 0.44 0.44 0.45 0.42 0.46 0.41 0.46 0.39 0.48 0.38 0.48 0.35 0.49 0.34 0.5 0.32 0.51 0.29 0.52 0.27 0.53 0.26 0.55 0.22 0.55 0.21 0.57 0.17 0.58 0.16 0.6 0.12 0.61 0.1 0.62 0.07 0.63 0.05 0.66 0.01 0.66 -0.02 0.69 -0.05 0.7 -0.08 0.71 -0.11 0.74 -0.15 0.75 -0.18 0.77 -0.22 0.1 0.32 -0.78 0.22 -0.77 0.19 -0.75 0.15 -0.73 0.12 -0.71 0.08 -0.7 0.05 -0.68 0.02 -0.67 -0.01 -0.65 -0.05 -0.64 -0.07 -0.63 -0.1 -0.61 -0.13 -0.59 -0.16 -0.59 -0.18 -0.56 -0.21 -0.56 -0.23 -0.55 -0.26 -0.53 -0.28 -0.53 -0.3 -0.51 -0.32 -0.5 -0.35 -0.49 -0.36 -0.48 -0.38 -0.48 -0.4 -0.46 -0.42 -0.46 -0.43 -0.44 -0.44 -0.44 -0.46 -0.44 -0.48 -0.42 -0.48 -0.42 -0.5 -0.42 -0.51 -0.02 -0.05zm0.02 0.05l-0.01 -0.02 -0.01 -0.03 0.02 0.05zm-0.27 -3.36l0.03 0.34 0.15 -0.18 0 0.12 0.01 0.11 0 0.11 0 0.1 0 0.1 0 0.1 0 0.1 0 0.09 0 0.1 0 0.09 0 0.09 0 0.08 0 0.09 0.01 0.09 0 0.08 0.01 0.09 0.01 0.08 0.01 0.08 0.01 0.09 0.01 0.08 0.01 0.09 0.02 0.09 0.01 0.09 0.03 0.09 0.02 0.09 0.02 0.09 0.03 0.1 0.03 0.1 0.03 0.1 0.03 0.1 0.04 0.11 0.05 0.11 -0.32 0.12 -0.05 -0.11 -0.04 -0.12 -0.03 -0.1 -0.04 -0.11 -0.03 -0.11 -0.03 -0.1 -0.02 -0.1 -0.03 -0.1 -0.02 -0.09 -0.02 -0.1 -0.01 -0.09 -0.02 -0.1 -0.01 -0.09 -0.01 -0.09 -0.01 -0.09 -0.01 -0.09 -0.01 -0.09 0 -0.09 -0.01 -0.09 0 -0.09 0 -0.09 0 -0.09 0 -0.09 0 -0.1 0 -0.09 0 -0.1 0 -0.1 0 -0.1 0 -0.1 -0.01 -0.11 0 -0.11 0 -0.11 0.16 -0.17zm-0.16 0.17l0 -0.16 0.16 -0.01 -0.16 0.17z"/>
  </g>
  <g>
   <path class="fil4" d="M2.32 23.19c-0.92,-3.89 -0.64,-7.39 0.81,-10.5 0.49,-0.36 1.03,-0.58 1.61,-0.63 2.73,-0.27 5.34,3.14 5.82,7.61 0.52,2.86 -1.96,5.47 -4.68,5.74 -0.63,0.06 -3.27,-0.13 -3.56,-2.22z"/>
   <path id="1" class="fil1" d="M3.03 12.55l0.2 0.28 0.06 -0.07 -0.14 0.29 -0.12 0.29 -0.12 0.3 -0.11 0.29 -0.1 0.3 -0.1 0.3 -0.09 0.3 -0.08 0.31 -0.08 0.31 -0.07 0.31 -0.06 0.31 -0.06 0.31 -0.05 0.32 -0.04 0.32 -0.04 0.32 -0.03 0.32 -0.02 0.33 -0.01 0.33 -0.01 0.33 0 0.33 0 0.33 0.02 0.34 0.02 0.34 0.02 0.34 0.04 0.35 0.04 0.34 0.04 0.35 0.06 0.36 0.06 0.35 0.07 0.36 0.07 0.35 0.08 0.37 -0.33 0.07 -0.08 -0.36 -0.08 -0.37 -0.07 -0.36 -0.06 -0.36 -0.05 -0.36 -0.05 -0.35 -0.04 -0.36 -0.04 -0.35 -0.02 -0.35 -0.02 -0.34 -0.02 -0.35 0 -0.34 0 -0.34 0.01 -0.34 0.01 -0.33 0.02 -0.33 0.03 -0.34 0.04 -0.32 0.04 -0.33 0.05 -0.32 0.06 -0.33 0.07 -0.32 0.07 -0.31 0.08 -0.32 0.08 -0.31 0.09 -0.31 0.1 -0.31 0.11 -0.3 0.11 -0.31 0.12 -0.3 0.13 -0.3 0.14 -0.29 0.05 -0.07zm-0.05 0.07l0.01 -0.04 0.04 -0.03 -0.05 0.07zm1.74 -0.73l0.04 0.34 0 0 -0.05 0 -0.05 0.01 -0.06 0.01 -0.05 0 -0.05 0.01 -0.05 0.01 -0.05 0.01 -0.05 0.01 -0.04 0.02 -0.06 0.01 -0.04 0.01 -0.05 0.02 -0.05 0.02 -0.05 0.01 -0.05 0.02 -0.05 0.02 -0.04 0.02 -0.05 0.02 -0.05 0.02 -0.05 0.02 -0.04 0.02 -0.05 0.03 -0.04 0.02 -0.05 0.03 -0.05 0.02 -0.04 0.03 -0.05 0.03 -0.04 0.03 -0.05 0.03 -0.04 0.02 -0.04 0.04 -0.05 0.03 -0.2 -0.28 0.05 -0.03 0.05 -0.04 0.05 -0.03 0.04 -0.03 0.05 -0.03 0.05 -0.03 0.05 -0.03 0.05 -0.03 0.05 -0.03 0.05 -0.02 0.06 -0.03 0.05 -0.03 0.05 -0.02 0.05 -0.02 0.06 -0.03 0.05 -0.02 0.05 -0.02 0.05 -0.02 0.06 -0.02 0.05 -0.01 0.06 -0.02 0.05 -0.02 0.06 -0.01 0.05 -0.02 0.06 -0.01 0.06 -0.01 0.05 -0.01 0.06 -0.01 0.05 -0.01 0.06 -0.01 0.06 -0.01 0.05 0 0 0zm6.01 7.75l-0.33 0.06 -0.01 -0.02 -0.05 -0.41 -0.06 -0.4 -0.08 -0.4 -0.08 -0.39 -0.1 -0.38 -0.1 -0.37 -0.12 -0.36 -0.13 -0.36 -0.13 -0.34 -0.15 -0.33 -0.15 -0.33 -0.16 -0.31 -0.17 -0.29 -0.18 -0.29 -0.18 -0.27 -0.19 -0.26 -0.2 -0.25 -0.2 -0.23 -0.21 -0.21 -0.21 -0.21 -0.22 -0.18 -0.22 -0.17 -0.22 -0.15 -0.23 -0.14 -0.23 -0.11 -0.23 -0.1 -0.24 -0.09 -0.23 -0.06 -0.24 -0.04 -0.24 -0.03 -0.24 -0.01 -0.24 0.02 -0.04 -0.34 0.27 -0.02 0.27 0.01 0.27 0.03 0.26 0.05 0.26 0.07 0.26 0.09 0.26 0.11 0.25 0.12 0.24 0.15 0.24 0.16 0.24 0.18 0.23 0.2 0.22 0.21 0.22 0.23 0.21 0.24 0.21 0.26 0.2 0.27 0.19 0.28 0.18 0.3 0.18 0.31 0.16 0.32 0.16 0.34 0.15 0.34 0.14 0.35 0.13 0.37 0.12 0.37 0.11 0.38 0.1 0.4 0.09 0.39 0.08 0.41 0.06 0.42 0.05 0.42 0 -0.01zm-0.33 0.06l0 0 -0.01 -0.02 0.01 0.02zm-4.51 5.88l-0.03 -0.34 0 0 0.24 -0.03 0.25 -0.05 0.24 -0.05 0.24 -0.07 0.24 -0.08 0.23 -0.09 0.23 -0.11 0.22 -0.11 0.22 -0.13 0.21 -0.13 0.21 -0.14 0.2 -0.16 0.19 -0.16 0.18 -0.17 0.18 -0.17 0.17 -0.19 0.15 -0.19 0.15 -0.2 0.14 -0.21 0.13 -0.21 0.11 -0.22 0.11 -0.22 0.09 -0.23 0.08 -0.24 0.07 -0.23 0.05 -0.25 0.04 -0.24 0.02 -0.25 0.01 -0.25 0 -0.25 -0.03 -0.26 -0.03 -0.25 0.33 -0.06 0.04 0.27 0.03 0.28 0 0.27 -0.01 0.28 -0.02 0.26 -0.05 0.27 -0.05 0.26 -0.07 0.26 -0.09 0.25 -0.1 0.24 -0.11 0.24 -0.12 0.24 -0.14 0.22 -0.15 0.22 -0.16 0.22 -0.16 0.2 -0.18 0.2 -0.19 0.19 -0.2 0.18 -0.2 0.17 -0.21 0.16 -0.22 0.15 -0.23 0.15 -0.23 0.13 -0.24 0.12 -0.24 0.11 -0.25 0.1 -0.25 0.08 -0.25 0.08 -0.26 0.06 -0.26 0.04 -0.27 0.04 0 0zm-3.74 -2.35l0.33 -0.07 0.01 0.01 0.03 0.18 0.04 0.16 0.06 0.16 0.06 0.14 0.08 0.14 0.08 0.13 0.09 0.12 0.1 0.11 0.11 0.1 0.11 0.1 0.12 0.09 0.13 0.08 0.13 0.08 0.13 0.07 0.14 0.06 0.13 0.06 0.14 0.05 0.14 0.04 0.14 0.04 0.14 0.04 0.14 0.03 0.13 0.02 0.13 0.02 0.13 0.02 0.12 0.01 0.11 0.01 0.11 0.01 0.1 0 0.09 0.01 0.08 -0.01 0.07 0 0.06 0 0.03 0.34 -0.07 0 -0.08 0 -0.09 0.01 -0.1 -0.01 -0.11 0 -0.11 -0.01 -0.13 -0.01 -0.12 -0.01 -0.14 -0.02 -0.14 -0.02 -0.14 -0.03 -0.15 -0.03 -0.14 -0.04 -0.16 -0.04 -0.15 -0.05 -0.15 -0.06 -0.15 -0.06 -0.15 -0.07 -0.15 -0.08 -0.14 -0.08 -0.14 -0.09 -0.14 -0.1 -0.13 -0.11 -0.12 -0.12 -0.12 -0.13 -0.11 -0.14 -0.1 -0.15 -0.08 -0.16 -0.08 -0.18 -0.07 -0.18 -0.05 -0.19 -0.03 -0.2 0 0.01zm0.33 -0.07l0.01 0.01 0 0 -0.01 -0.01z"/>
  </g>
  <g>
   <path class="fil2" d="M4.69 0.44c-0.06,6.52 8.88,8.92 9.57,14.5 11.72,-2.18 13.22,-9.03 7.25,-13 -5.7,-1.73 -11.29,-2.1 -16.82,-1.5z"/>
   <path id="1" class="fil1" d="M14.23 14.77l0.06 0.34 -0.2 -0.15 -0.09 -0.5 -0.13 -0.48 -0.17 -0.47 -0.21 -0.45 -0.24 -0.44 -0.28 -0.44 -0.3 -0.42 -0.34 -0.41 -0.35 -0.41 -0.38 -0.41 -0.4 -0.39 -0.41 -0.4 -0.42 -0.39 -0.42 -0.39 -0.44 -0.4 -0.43 -0.39 -0.44 -0.4 -0.42 -0.41 -0.42 -0.4 -0.41 -0.42 -0.4 -0.43 -0.38 -0.43 -0.35 -0.45 -0.34 -0.46 -0.3 -0.48 -0.28 -0.49 -0.24 -0.51 -0.21 -0.53 -0.16 -0.55 -0.12 -0.57 -0.07 -0.59 -0.02 -0.61 0.34 0 0.02 0.58 0.07 0.57 0.11 0.54 0.16 0.52 0.19 0.5 0.23 0.49 0.27 0.48 0.29 0.45 0.33 0.45 0.34 0.44 0.38 0.42 0.38 0.42 0.41 0.41 0.41 0.41 0.43 0.4 0.43 0.4 0.43 0.39 0.44 0.39 0.43 0.4 0.42 0.39 0.41 0.4 0.4 0.41 0.39 0.41 0.36 0.42 0.35 0.42 0.31 0.44 0.29 0.45 0.26 0.47 0.22 0.48 0.18 0.49 0.14 0.51 0.09 0.53 -0.2 -0.15zm0.06 0.34l-0.18 0.03 -0.02 -0.18 0.2 0.15zm7.17 -13.01l0.1 -0.32 0.04 0.02 0.55 0.38 0.5 0.41 0.46 0.41 0.41 0.43 0.37 0.45 0.32 0.46 0.27 0.46 0.22 0.47 0.18 0.49 0.12 0.48 0.08 0.49 0.02 0.49 -0.03 0.5 -0.08 0.49 -0.13 0.49 -0.19 0.48 -0.24 0.48 -0.29 0.47 -0.34 0.46 -0.4 0.44 -0.45 0.44 -0.51 0.42 -0.56 0.41 -0.62 0.4 -0.67 0.37 -0.73 0.36 -0.78 0.33 -0.85 0.32 -0.89 0.29 -0.96 0.28 -1.02 0.24 -1.07 0.22 -0.06 -0.34 1.06 -0.21 1 -0.25 0.95 -0.26 0.88 -0.29 0.83 -0.31 0.77 -0.33 0.71 -0.35 0.66 -0.37 0.6 -0.38 0.54 -0.4 0.49 -0.4 0.43 -0.42 0.38 -0.43 0.33 -0.44 0.28 -0.44 0.22 -0.45 0.17 -0.45 0.13 -0.45 0.07 -0.46 0.03 -0.46 -0.02 -0.45 -0.07 -0.46 -0.12 -0.45 -0.16 -0.46 -0.22 -0.44 -0.25 -0.44 -0.31 -0.43 -0.35 -0.43 -0.39 -0.41 -0.44 -0.4 -0.48 -0.39 -0.53 -0.38 0.04 0.02zm0.1 -0.32l0.02 0 0.02 0.02 -0.04 -0.02zm-16.7 -1.34l-0.34 0 0.15 -0.17 0.52 -0.06 0.52 -0.04 0.53 -0.04 0.52 -0.04 0.52 -0.03 0.52 -0.03 0.52 -0.01 0.53 -0.02 0.52 0 0.53 0 0.52 0.01 0.53 0.01 0.52 0.02 0.53 0.03 0.53 0.03 0.52 0.04 0.53 0.05 0.53 0.06 0.53 0.06 0.53 0.07 0.53 0.07 0.53 0.08 0.53 0.09 0.53 0.1 0.53 0.11 0.53 0.11 0.54 0.12 0.53 0.13 0.53 0.13 0.54 0.15 0.53 0.15 0.54 0.16 -0.1 0.32 -0.53 -0.16 -0.53 -0.15 -0.53 -0.14 -0.53 -0.13 -0.53 -0.13 -0.53 -0.12 -0.53 -0.11 -0.53 -0.1 -0.52 -0.1 -0.53 -0.09 -0.52 -0.08 -0.53 -0.08 -0.52 -0.06 -0.53 -0.07 -0.52 -0.05 -0.53 -0.05 -0.52 -0.04 -0.52 -0.03 -0.52 -0.03 -0.52 -0.02 -0.53 -0.01 -0.52 -0.01 -0.52 0 -0.52 0.01 -0.52 0.01 -0.51 0.02 -0.52 0.02 -0.52 0.03 -0.52 0.04 -0.52 0.04 -0.51 0.05 -0.52 0.05 0.15 -0.17zm-0.34 0l0 -0.15 0.15 -0.02 -0.15 0.17z"/>
  </g>
  <g>
   <path class="fil3" d="M5.07 16.04c1,0 1.8,1.62 1.8,3.61 0,1.99 -0.8,3.6 -1.8,3.6 -0.99,0 -1.8,-1.61 -1.8,-3.6 0,-1.99 0.81,-3.61 1.8,-3.61z"/>
   <path id="1" class="fil1" d="M7.04 19.65l-0.34 0 0 0 0 -0.18 -0.01 -0.18 -0.01 -0.18 -0.01 -0.17 -0.02 -0.17 -0.03 -0.17 -0.02 -0.16 -0.03 -0.16 -0.04 -0.15 -0.04 -0.15 -0.04 -0.15 -0.05 -0.14 -0.04 -0.14 -0.06 -0.13 -0.05 -0.13 -0.06 -0.12 -0.06 -0.11 -0.06 -0.11 -0.06 -0.1 -0.07 -0.09 -0.07 -0.09 -0.06 -0.08 -0.08 -0.07 -0.07 -0.06 -0.07 -0.06 -0.07 -0.05 -0.08 -0.04 -0.07 -0.04 -0.07 -0.02 -0.08 -0.02 -0.07 -0.01 -0.08 -0.01 0 -0.34 0.11 0.01 0.11 0.02 0.1 0.02 0.11 0.04 0.1 0.05 0.1 0.05 0.09 0.07 0.09 0.07 0.09 0.07 0.09 0.09 0.08 0.1 0.07 0.1 0.08 0.1 0.07 0.12 0.07 0.12 0.07 0.12 0.06 0.13 0.06 0.14 0.05 0.14 0.06 0.15 0.05 0.15 0.04 0.15 0.04 0.16 0.04 0.17 0.03 0.17 0.03 0.17 0.03 0.18 0.02 0.17 0.01 0.19 0.01 0.18 0.01 0.19 0 0.19 0 0zm-1.97 3.77l0 -0.34 0 0 0.08 0 0.07 -0.01 0.08 -0.02 0.07 -0.03 0.07 -0.03 0.08 -0.04 0.07 -0.05 0.07 -0.06 0.07 -0.07 0.08 -0.07 0.06 -0.08 0.07 -0.08 0.07 -0.1 0.06 -0.1 0.06 -0.11 0.06 -0.11 0.06 -0.12 0.05 -0.12 0.06 -0.13 0.04 -0.14 0.05 -0.14 0.04 -0.15 0.04 -0.15 0.04 -0.15 0.03 -0.16 0.02 -0.17 0.03 -0.16 0.02 -0.17 0.01 -0.18 0.01 -0.17 0.01 -0.18 0 -0.18 0.34 0 0 0.19 -0.01 0.19 -0.01 0.18 -0.01 0.18 -0.02 0.18 -0.03 0.18 -0.03 0.17 -0.03 0.17 -0.04 0.16 -0.04 0.16 -0.04 0.16 -0.05 0.15 -0.06 0.14 -0.05 0.15 -0.06 0.13 -0.06 0.13 -0.07 0.13 -0.07 0.12 -0.07 0.11 -0.08 0.11 -0.07 0.1 -0.08 0.09 -0.09 0.09 -0.09 0.08 -0.09 0.07 -0.09 0.07 -0.1 0.05 -0.1 0.05 -0.11 0.03 -0.1 0.03 -0.11 0.02 -0.11 0 0 0zm-1.97 -3.77l0.34 0 0 0 0 0.18 0.01 0.18 0.01 0.17 0.01 0.18 0.02 0.17 0.03 0.16 0.03 0.17 0.03 0.16 0.03 0.15 0.04 0.15 0.04 0.15 0.05 0.14 0.05 0.14 0.05 0.13 0.05 0.12 0.06 0.12 0.06 0.11 0.06 0.11 0.06 0.1 0.07 0.1 0.07 0.08 0.07 0.08 0.07 0.08 0.07 0.06 0.07 0.06 0.07 0.05 0.08 0.04 0.07 0.03 0.08 0.03 0.07 0.02 0.08 0.01 0.07 0 0 0.34 -0.11 0 -0.11 -0.02 -0.1 -0.03 -0.11 -0.03 -0.1 -0.05 -0.1 -0.05 -0.09 -0.07 -0.09 -0.07 -0.09 -0.08 -0.08 -0.09 -0.09 -0.09 -0.07 -0.1 -0.08 -0.11 -0.07 -0.11 -0.07 -0.12 -0.07 -0.13 -0.06 -0.13 -0.06 -0.13 -0.05 -0.15 -0.06 -0.14 -0.04 -0.15 -0.05 -0.16 -0.04 -0.16 -0.04 -0.16 -0.03 -0.17 -0.03 -0.17 -0.02 -0.18 -0.02 -0.18 -0.02 -0.18 -0.01 -0.18 -0.01 -0.19 0 -0.19 0 0zm1.97 -3.78l0 0.34 0 0 -0.07 0.01 -0.08 0.01 -0.07 0.02 -0.08 0.02 -0.07 0.04 -0.08 0.04 -0.07 0.05 -0.07 0.06 -0.07 0.06 -0.07 0.07 -0.07 0.08 -0.07 0.09 -0.07 0.09 -0.06 0.1 -0.06 0.11 -0.06 0.11 -0.06 0.12 -0.05 0.13 -0.05 0.13 -0.05 0.14 -0.05 0.14 -0.04 0.15 -0.04 0.15 -0.03 0.15 -0.03 0.16 -0.03 0.16 -0.03 0.17 -0.02 0.17 -0.01 0.17 -0.01 0.18 -0.01 0.18 0 0.18 -0.34 0 0 -0.19 0.01 -0.19 0.01 -0.18 0.02 -0.19 0.02 -0.17 0.02 -0.18 0.03 -0.17 0.03 -0.17 0.04 -0.17 0.04 -0.16 0.05 -0.15 0.04 -0.15 0.06 -0.15 0.05 -0.14 0.06 -0.14 0.06 -0.13 0.07 -0.12 0.07 -0.12 0.07 -0.11 0.08 -0.11 0.07 -0.1 0.09 -0.1 0.08 -0.08 0.09 -0.08 0.09 -0.07 0.09 -0.07 0.1 -0.05 0.1 -0.05 0.11 -0.04 0.1 -0.02 0.11 -0.02 0.11 -0.01 0 0z"/>
  </g>
  <g>
   <path class="fil1" d="M5.99 19.52l-0.34 0 0 0 0 -0.08 0 -0.08 -0.01 -0.08 0 -0.07 -0.01 -0.08 -0.01 -0.07 -0.02 -0.07 -0.01 -0.07 -0.01 -0.07 -0.02 -0.06 -0.02 -0.07 -0.02 -0.06 -0.02 -0.06 -0.02 -0.05 -0.02 -0.06 -0.03 -0.05 -0.03 -0.05 -0.02 -0.04 -0.03 -0.04 -0.02 -0.04 -0.03 -0.04 -0.03 -0.03 -0.03 -0.03 -0.03 -0.02 -0.03 -0.03 -0.02 -0.01 -0.03 -0.02 -0.02 -0.01 -0.03 -0.01 -0.02 -0.01 -0.03 0 -0.02 0 0 -0.34 0.05 0 0.06 0.01 0.06 0.01 0.05 0.02 0.06 0.03 0.05 0.03 0.05 0.03 0.04 0.04 0.05 0.04 0.04 0.04 0.04 0.05 0.04 0.05 0.04 0.05 0.03 0.05 0.03 0.06 0.03 0.06 0.03 0.06 0.03 0.07 0.03 0.06 0.02 0.07 0.03 0.07 0.02 0.08 0.02 0.07 0.01 0.08 0.02 0.08 0.01 0.08 0.01 0.08 0.01 0.08 0.01 0.09 0.01 0.08 0 0.09 0 0.09 0 0zm-0.98 1.8l0 -0.34 0 0 0.02 0 0.03 -0.01 0.02 0 0.03 -0.01 0.02 -0.01 0.03 -0.02 0.02 -0.02 0.03 -0.02 0.03 -0.03 0.03 -0.02 0.03 -0.03 0.03 -0.04 0.02 -0.04 0.03 -0.04 0.02 -0.05 0.03 -0.05 0.03 -0.05 0.02 -0.05 0.02 -0.06 0.02 -0.05 0.02 -0.07 0.02 -0.06 0.02 -0.07 0.01 -0.06 0.01 -0.07 0.02 -0.07 0.01 -0.08 0.01 -0.07 0 -0.08 0.01 -0.07 0 -0.08 0 -0.08 0.34 0 0 0.09 0 0.08 -0.01 0.09 -0.01 0.09 -0.01 0.08 -0.01 0.08 -0.01 0.08 -0.02 0.08 -0.01 0.08 -0.02 0.07 -0.02 0.07 -0.03 0.07 -0.02 0.08 -0.03 0.06 -0.03 0.06 -0.03 0.07 -0.03 0.06 -0.03 0.05 -0.03 0.06 -0.04 0.05 -0.04 0.05 -0.04 0.05 -0.04 0.04 -0.05 0.04 -0.04 0.04 -0.05 0.03 -0.05 0.03 -0.06 0.02 -0.05 0.02 -0.06 0.02 -0.06 0.01 -0.05 0 0 0zm-0.99 -1.8l0.34 0 0 0 0 0.08 0.01 0.08 0 0.07 0.01 0.08 0.01 0.07 0.01 0.08 0.01 0.07 0.01 0.07 0.02 0.06 0.01 0.07 0.02 0.06 0.02 0.07 0.02 0.06 0.02 0.05 0.03 0.05 0.02 0.06 0.03 0.04 0.02 0.05 0.03 0.04 0.03 0.04 0.02 0.04 0.03 0.03 0.03 0.02 0.03 0.03 0.03 0.02 0.02 0.02 0.03 0.02 0.03 0.01 0.02 0.01 0.03 0 0.02 0.01 0.03 0 0 0.34 -0.06 0 -0.06 -0.01 -0.06 -0.02 -0.05 -0.02 -0.06 -0.02 -0.05 -0.03 -0.04 -0.03 -0.05 -0.04 -0.05 -0.04 -0.04 -0.04 -0.04 -0.05 -0.04 -0.05 -0.03 -0.05 -0.04 -0.06 -0.03 -0.05 -0.03 -0.06 -0.03 -0.07 -0.03 -0.06 -0.03 -0.07 -0.02 -0.07 -0.02 -0.07 -0.02 -0.07 -0.02 -0.07 -0.02 -0.08 -0.02 -0.08 -0.01 -0.08 -0.01 -0.08 -0.01 -0.08 -0.01 -0.09 0 -0.09 -0.01 -0.08 0 -0.09 0 0zm0.99 -1.8l0 0.34 0 0 -0.03 0 -0.02 0 -0.03 0.01 -0.02 0.01 -0.03 0.01 -0.03 0.02 -0.02 0.02 -0.03 0.02 -0.03 0.02 -0.03 0.03 -0.03 0.03 -0.02 0.04 -0.03 0.04 -0.03 0.04 -0.02 0.05 -0.03 0.04 -0.02 0.05 -0.03 0.06 -0.02 0.05 -0.02 0.06 -0.02 0.06 -0.02 0.07 -0.01 0.06 -0.02 0.07 -0.01 0.07 -0.01 0.07 -0.01 0.07 -0.01 0.08 -0.01 0.07 0 0.08 -0.01 0.08 0 0.08 -0.34 0 0 -0.09 0.01 -0.09 0 -0.08 0.01 -0.09 0.01 -0.08 0.01 -0.08 0.01 -0.08 0.02 -0.08 0.02 -0.08 0.02 -0.07 0.02 -0.08 0.02 -0.07 0.02 -0.06 0.03 -0.07 0.03 -0.07 0.03 -0.06 0.03 -0.06 0.03 -0.06 0.04 -0.05 0.03 -0.05 0.04 -0.05 0.04 -0.05 0.04 -0.04 0.05 -0.04 0.05 -0.04 0.04 -0.03 0.05 -0.03 0.06 -0.03 0.05 -0.02 0.06 -0.01 0.06 -0.01 0.06 0 0 0z"/>
  </g>
 </g>
</svg>
