<svg xmlns="http://www.w3.org/2000/svg" width="68" height="70" fill-rule="evenodd" clip-rule="evenodd" image-rendering="optimizeQuality" shape-rendering="geometricPrecision" text-rendering="geometricPrecision"><defs><style>.fil9{fill:#2b2a29}.fil8{fill:#c5e3d7}.fil3{fill:#a1b567}.fil0{fill:#99cfba}.fil1{fill:#2b2a29;fill-rule:nonzero}</style></defs><g id="Слой_x0020_1"><path d="M33.96 7.06c9.71 0 17.59 6.35 17.59 14.18s-7.88 14.18-17.59 14.18-17.58-6.35-17.58-14.18S24.25 7.06 33.96 7.06z" class="fil0"/><path id="1" d="M51.71 21.24h-.33l-.03-.72-.06-.71-.11-.69-.16-.69-.19-.68-.23-.66-.27-.65-.32-.64-.34-.62-.39-.6-.41-.59-.46-.57-.48-.55-.52-.53-.54-.5-.58-.49-.61-.47-.63-.44-.65-.41-.69-.4-.7-.36-.73-.34-.76-.31-.77-.28-.79-.25-.81-.22-.83-.19-.84-.16-.86-.12-.87-.09-.89-.06-.9-.02V6.9l.92.01.9.06.88.09.87.13.86.16.84.19.83.22.8.26.79.28.76.32.74.34.73.38.69.4.67.42.65.45.61.48.59.49.56.52.53.55.49.56.46.58.43.6.4.62.35.64.32.65.28.67.24.68.2.69.16.71.11.72.07.73.02.74zM33.96 35.59v-.34l.9-.01.89-.06.87-.09.86-.12.84-.16.83-.19.81-.22.79-.25.77-.28.76-.31.73-.34.7-.37.69-.39.65-.41.63-.45.61-.46.58-.49.54-.51.52-.53.48-.55.46-.57.41-.58.39-.61.34-.62.32-.63.27-.65.23-.66.19-.68.16-.69.11-.7.06-.71.03-.72h.33l-.02.74-.07.73-.11.72-.16.71-.2.7-.24.68-.28.67-.32.65-.35.64-.4.62-.43.6-.46.58-.49.56-.53.54-.56.52-.59.5-.61.48-.65.45-.67.42-.69.4-.73.37-.74.35-.76.31-.79.29-.8.26-.83.22-.84.19-.86.16-.87.13-.88.09-.9.05-.92.02zM16.21 21.24h.34l.02.72.07.71.11.7.15.69.2.68.23.66.27.65.31.63.35.62.38.61.42.58.45.57.49.55.51.53.55.51.58.49.6.46.63.45.66.41.68.39.71.37.73.34.75.31.77.28.8.25.81.22.82.19.85.16.86.12.87.09.89.06.89.01v.34l-.91-.02-.9-.05-.89-.09-.87-.13-.85-.16-.85-.19-.82-.22-.8-.26-.79-.29-.76-.31-.75-.35-.72-.37-.69-.4-.67-.42-.65-.45-.62-.48-.58-.5-.56-.52-.53-.54-.5-.56-.46-.58-.43-.6-.39-.62-.36-.64-.32-.65-.28-.67-.24-.68-.2-.7-.15-.71-.12-.72-.07-.73-.02-.74zM33.96 6.9v.33l-.89.02-.89.06-.87.09-.86.12-.85.16-.82.19-.81.22-.8.25-.77.28-.75.31-.73.34-.71.36-.68.4-.66.41-.63.44-.6.47-.58.49-.55.5-.51.53-.49.55-.45.57-.42.59-.38.6-.35.62-.31.64-.27.65-.23.66-.2.68-.15.69-.11.69-.07.71-.02.72h-.34l.02-.74.07-.73.12-.72.15-.71.2-.69.24-.68.28-.67.32-.65.36-.64.39-.62.43-.6.46-.58.5-.56.53-.55.56-.52.58-.49.62-.48.65-.45.67-.42.69-.4.72-.38.75-.34.76-.32.79-.28.8-.26.82-.22.85-.19.85-.16.87-.13.89-.09.9-.06.91-.01z" class="fil1"/><path fill="#6fa691" d="M25.12 46.69h4.2v16.29h-4.2V46.69zm13.83-.43h4.2v16.28h-4.2V46.26z"/><path id="1" d="M29.32 46.86h-4.2v-.34h4.2l.17.17-.17.17zm0-.34h.17v.17l-.17-.17zm-.17 16.46V46.69h.34v16.29l-.17.17-.17-.17zm.34 0v.17h-.17l.17-.17zm-4.37-.17h4.2v.34h-4.2l-.16-.17.16-.17zm0 .34h-.16v-.17l.16.17zm.17-16.46v16.29h-.33V46.69l.16-.17.17.17zm-.33 0v-.17h.16l-.16.17zm18.19-.27h-4.2v-.33h4.2l.16.17-.16.16zm0-.33h.16v.17l-.16-.17zm-.17 16.45V46.26h.33v16.28l-.16.17-.17-.17zm.33 0v.17h-.16l.16-.17zm-4.36-.17h4.2v.34h-4.2l-.17-.17.17-.17zm0 .34h-.17v-.17l.17.17zm.17-16.45v16.28h-.34V46.26l.17-.17.17.17zm-.34 0v-.17h.17l-.17.17z" class="fil1"/><path d="M20.1 28.26h27.5c1.34 0 2.44 1.1 2.44 2.44v14.53c0 1.34-1.1 2.44-2.44 2.44H20.1c-1.34 0-2.44-1.1-2.44-2.44V30.7c0-1.34 1.1-2.44 2.44-2.44z" class="fil3"/><path id="1" d="M47.6 28.43H20.1v-.34h27.5v.34zm2.61 2.27h-.34v-.12l-.01-.11-.02-.11-.01-.12-.03-.1-.03-.11-.04-.11-.04-.1-.04-.1-.05-.1-.06-.09-.06-.1-.06-.08-.07-.09-.07-.08-.07-.08-.08-.08-.09-.07-.08-.07-.09-.06-.09-.06-.1-.05-.1-.05-.1-.05-.1-.04-.1-.04-.11-.03-.11-.02-.11-.02-.12-.01-.11-.01-.12-.01v-.34l.14.01.13.01.13.01.13.03.12.03.13.03.12.04.12.05.11.05.11.06.11.06.11.07.1.07.1.08.09.08.09.09.09.09.08.09.08.1.07.11.07.1.06.11.06.11.05.12.05.12.04.12.04.12.03.13.02.13.02.13.01.13v.13zm-.34 14.53V30.7h.34v14.53h-.34zm-2.27 2.61v-.34h.12l.11-.01.12-.02.11-.02.11-.02.11-.03.1-.04.1-.04.1-.04.1-.05.1-.06.09-.06.09-.06.08-.07.09-.07.08-.08.07-.07.07-.09.07-.08.06-.09.06-.09.06-.1.05-.1.04-.1.04-.1.04-.11.03-.1.03-.11.01-.11.02-.12.01-.11v-.12h.34v.13l-.01.14-.02.13-.02.12-.03.13-.04.13-.04.12-.05.11-.05.12-.06.11-.06.11-.07.11-.07.1-.08.1-.08.09-.09.09-.09.09-.09.08-.1.08-.1.07-.11.07-.11.06-.11.06-.11.05-.12.05-.12.04-.13.04-.12.02-.13.03-.13.02h-.13l-.14.01zm-27.5-.34h27.5v.34H20.1v-.34zm-2.6-2.27h.33l.01.12.01.11.01.12.02.11.03.11.03.1.03.11.04.1.05.1.05.1.05.1.06.09.07.09.06.08.08.09.07.07.08.08.08.07.09.07.09.06.09.06.09.06.1.05.1.04.11.04.1.04.11.03.11.02.11.02.11.02.12.01h.11v.34l-.13-.01h-.13l-.13-.02-.13-.03-.13-.02-.12-.04-.12-.04-.12-.05-.12-.05-.11-.06-.11-.06-.1-.07-.11-.07-.09-.08-.1-.08-.09-.09-.08-.09-.09-.09-.08-.1-.07-.1-.06-.11-.07-.11-.06-.11-.05-.12-.04-.11-.05-.12-.03-.13-.03-.13-.02-.12-.02-.13-.01-.14v-.13zm.33-14.53v14.53h-.33V30.7h.33zm2.27-2.61v.34l-.11.01-.12.01-.11.01-.11.02-.11.02-.11.03-.1.04-.11.04-.1.05-.1.05-.09.05-.09.06-.09.06-.09.07-.08.07-.08.08-.07.08-.08.08-.06.09-.07.08-.06.1-.05.09-.05.1-.05.1-.04.1-.03.11-.03.11-.03.1-.02.12-.01.11-.01.11-.01.12h-.33v-.13l.01-.13.02-.13.02-.13.03-.13.03-.12.05-.12.04-.12.05-.12.06-.11.07-.11.06-.1.07-.11.08-.1.09-.09.08-.09.09-.09.1-.08.09-.08.11-.07.1-.07.11-.06.11-.06.12-.05.12-.05.12-.04.12-.03.13-.03.13-.03.13-.01.13-.01.13-.01z" class="fil1"/><path fill="#c4d985" d="M25.12 35.3h16.19c.97 0 1.76.79 1.76 1.76v4.97c0 .97-.79 1.76-1.76 1.76H25.12c-.96 0-1.75-.79-1.75-1.76v-4.97c0-.97.79-1.76 1.75-1.76z"/><path id="1" d="M41.31 35.47H25.12v-.33h16.19v.33zm1.93 1.59h-.34v-.08l-.01-.08-.01-.08-.01-.08-.02-.08-.02-.07-.03-.08-.03-.07-.03-.07-.03-.06-.04-.07-.04-.07-.05-.06-.04-.06-.05-.06-.06-.05-.05-.05-.06-.05-.06-.05-.06-.05-.07-.04-.06-.03-.07-.04-.07-.03-.07-.03-.08-.03-.07-.02-.08-.02-.07-.01-.08-.01h-.09l-.08-.01v-.33h.2l.1.02.09.01.09.03.09.02.09.03.09.04.09.04.08.04.08.04.08.05.07.06.08.06.07.06.06.06.07.07.06.07.05.07.06.07.05.08.04.08.05.09.04.08.03.09.03.09.03.09.02.09.02.1.01.09.01.1v.1zm-.34 4.97v-4.97h.34v4.97h-.34zm-1.59 1.93v-.34h.08l.09-.01.08-.01.07-.01.08-.02.07-.02.08-.03.07-.03.07-.03.07-.03.06-.04.07-.04.06-.05.06-.04.06-.05.05-.06.06-.05.05-.06.04-.06.05-.06.04-.07.04-.06.03-.07.03-.07.03-.07.03-.08.02-.07.02-.08.01-.08.01-.08.01-.08v-.08h.34v.1l-.01.1-.01.09-.02.1-.02.09-.03.09-.03.09-.03.09-.04.09-.05.08-.04.08-.05.08-.06.07-.05.08-.06.07-.07.06-.06.07-.07.06-.08.05-.07.06-.08.05-.08.04-.08.05-.09.04-.09.03-.09.03-.09.03-.09.02-.09.02-.1.01h-.1l-.1.01zm-16.19-.34h16.19v.34H25.12v-.34zm-1.92-1.59h.34v.08l.01.08.01.08.01.08.02.08.02.07.02.08.03.07.04.07.03.07.04.06.04.07.04.06.05.06.05.06.05.05.06.06.06.05.06.04.06.05.06.04.07.04.07.03.07.03.07.03.07.03.08.02.08.02.07.01.08.01.08.01h.08v.34l-.09-.01h-.1l-.1-.01-.09-.02-.09-.02-.1-.03-.09-.03-.08-.03-.09-.04-.08-.05-.08-.04-.08-.05-.08-.06-.07-.05-.07-.06-.06-.07-.07-.06-.06-.07-.06-.08-.05-.07-.05-.08-.05-.08-.04-.08-.04-.09-.03-.09-.03-.09-.03-.09-.02-.09-.02-.1-.01-.09-.01-.1v-.1zm.34-4.97v4.97h-.34v-4.97h.34zm1.58-1.92v.33l-.08.01h-.08l-.08.01-.07.01-.08.02-.08.02-.07.03-.07.03-.07.03-.07.04-.07.03-.06.04-.06.05-.06.05-.06.05-.06.05-.05.05-.05.06-.05.06-.04.06-.04.07-.04.07-.03.06-.04.07-.03.07-.02.08-.02.07-.02.08-.01.08-.01.08-.01.08v.08h-.34v-.1l.01-.1.01-.09.02-.1.02-.09.03-.09.03-.09.03-.09.04-.08.04-.09.05-.08.05-.08.05-.07.06-.07.06-.07.07-.07.06-.06.07-.06.07-.06.08-.06.08-.05.08-.04.08-.04.09-.04.08-.04.09-.03.1-.02.09-.03.09-.01.1-.02h.19z" class="fil1"/><path d="M26.3 60.49c3.25 0 5.9 2.3 5.9 5.12 0 .51-.09 1-.25 1.47H20.64c-.16-.47-.24-.96-.24-1.47 0-2.82 2.64-5.12 5.9-5.12z" class="fil0"/><path id="1" d="M32.36 65.61h-.33l-.01-.25-.02-.25-.04-.25-.05-.24-.06-.24-.08-.23-.09-.23-.1-.23-.11-.21-.13-.22-.14-.21-.15-.2-.15-.19-.18-.19-.17-.18-.19-.17-.2-.17-.21-.15-.22-.15-.22-.14-.23-.13-.24-.12-.25-.11-.26-.1-.26-.08-.26-.08-.28-.07-.27-.06-.29-.04-.29-.03-.29-.02-.29-.01v-.34l.31.01.3.02.31.03.29.05.3.06.28.07.29.08.27.1.27.1.26.12.25.12.25.14.24.15.23.16.22.16.21.18.2.18.19.19.18.2.17.21.16.21.15.22.13.23.12.24.11.24.1.24.08.26.07.25.05.26.04.27.03.27v.27zm-.41 1.63v-.33l-.16.11.01-.04.02-.04.01-.05.02-.04.01-.04.01-.04.01-.05.01-.04.01-.04.01-.05.01-.04.01-.04.01-.05.01-.04.01-.04.01-.05v-.04l.01-.05.01-.04v-.04l.01-.05v-.04l.01-.05v-.09l.01-.04v-.14l.01-.05v-.09h.33v.25l-.01.05v.1l-.01.04v.05l-.01.05v.05l-.01.05-.01.04v.05l-.01.05-.01.05-.01.04-.01.05-.01.05-.01.05-.01.04-.01.05-.01.05-.01.04-.01.04-.02.05-.01.05-.01.04-.02.05-.01.05-.02.04-.16.11zm.16-.11l-.04.11h-.12l.16-.11zm-11.47-.22h11.31v.33H20.64l-.16-.11.16-.22zm0 .33h-.12l-.04-.11.16.11zm-.41-1.63h.33v.05l.01.04v.19l.01.04v.09l.01.05v.04l.01.05v.04l.01.04.01.05v.04l.01.05.01.04.01.04.01.05.01.04.01.04.01.05.01.04.01.04.01.05.01.04.02.04.01.04.01.05.02.04.01.04-.32.11-.01-.05-.02-.04-.01-.05-.02-.04-.01-.05-.01-.04-.02-.05-.01-.05-.01-.04-.01-.05-.01-.04-.01-.05-.01-.05-.01-.05-.01-.04-.01-.05-.01-.05v-.05l-.01-.04-.01-.05v-.05l-.01-.05v-.05l-.01-.04v-.1l-.01-.05v-.25zm6.07-5.29v.34l-.3.01-.29.02-.29.03-.28.04-.28.06-.27.07-.27.08-.26.08-.26.1-.24.11-.24.12-.24.13-.22.14-.22.15-.21.15-.2.17-.19.17-.17.18-.18.19-.15.19-.15.2-.14.21-.12.22-.12.21-.1.23-.09.23-.08.23-.06.24-.05.24-.04.25-.02.25-.01.25h-.33v-.27l.03-.27.04-.27.05-.26.07-.25.08-.26.1-.24.11-.24.12-.24.13-.23.15-.22.16-.21.17-.21.18-.2.19-.19.2-.18.21-.18.23-.16.22-.16.24-.15.25-.14.25-.12.26-.12.27-.1.28-.1.28-.08.28-.07.3-.06.29-.05.31-.03.3-.02.32-.01z" class="fil1"/><path d="M19.96 67.08h12.58V70H19.96z" class="fil3"/><path id="1" d="M32.54 67.24H19.96v-.33h12.58l.17.17-.17.16zm0-.33h.17v.17l-.17-.17zM32.37 70v-2.92h.34V70l-.17.17-.17-.17zm.34 0v.17h-.17l.17-.17zm-12.75-.17h12.58v.34H19.96l-.17-.17.17-.17zm0 .34h-.17V70l.17.17zm.17-3.09V70h-.34v-2.92l.17-.17.17.17zm-.34 0v-.17h.17l-.17.17z" class="fil1"/><path fill="#6fa691" fill-rule="nonzero" d="M59.99 48.4c-.86-2.88-1.94-5.17-3.29-6.79-1.26-1.52-2.76-2.44-4.52-2.7l.35-2.36c2.37.35 4.37 1.56 6.01 3.54 1.55 1.87 2.79 4.45 3.73 7.64l-2.28.67zM7.57 27.92c.85 2.88 1.94 5.17 3.29 6.79 1.26 1.52 2.75 2.44 4.52 2.7l-.35 2.36c-2.38-.35-4.37-1.56-6.01-3.54-1.55-1.87-2.79-4.45-3.73-7.64l2.28-.67z"/><path id="1" d="M56.57 41.72l.26-.22.13.16.12.16.13.16.12.17.12.17.12.18.12.18.12.18.11.19.11.19.12.19.11.2.11.2.1.21.11.21.1.21.1.22.11.22.1.22.09.23.1.23.1.23.09.24.09.24.09.25.09.25.09.25.09.26.08.25.09.27.08.26.08.27-.32.1-.08-.27-.09-.26-.08-.26-.08-.26-.09-.25-.09-.25-.09-.25-.08-.24-.1-.24-.09-.23-.09-.23-.1-.23-.09-.22-.1-.22-.1-.22-.1-.21-.1-.21-.11-.21-.1-.2-.11-.2-.11-.19-.11-.19-.11-.19-.11-.18-.11-.18-.12-.18-.12-.17-.11-.16-.12-.17-.12-.16-.13-.15-.12-.15zm-4.56-2.84l.34.05-.14-.19.16.03.17.03.17.03.16.04.16.04.16.05.16.05.16.06.16.05.15.07.16.06.15.07.15.08.15.07.14.08.15.09.14.09.14.09.14.1.14.1.14.1.14.11.13.11.13.12.13.11.13.13.13.12.13.13.13.13.12.14.12.14.12.14-.26.22-.12-.14-.11-.14-.12-.13-.12-.13-.13-.12-.12-.12-.12-.12-.13-.11-.13-.11-.13-.11-.13-.1-.13-.1-.13-.09-.13-.1-.14-.08-.14-.09-.13-.08-.15-.08-.14-.07-.14-.07-.14-.07-.15-.06-.14-.06-.15-.06-.15-.05-.15-.05-.16-.04-.15-.04-.16-.04-.15-.03-.16-.03-.16-.02-.15-.2zm.15.2l-.17-.03.02-.17.15.2zm.53-2.51l-.34 2.36-.34-.05.35-2.36.19-.14.14.19zm-.33-.05l.02-.16.17.02-.19.14zm6.31 3.46l-.26.22-.15-.19-.16-.17-.16-.17-.16-.17-.16-.16-.16-.16-.16-.16-.17-.14-.17-.15-.17-.14-.17-.13-.18-.13-.17-.13-.18-.12-.18-.12-.19-.11-.18-.1-.19-.11-.19-.1-.19-.09-.19-.08-.2-.09-.2-.08-.2-.07-.2-.07-.21-.06-.2-.06-.21-.06-.21-.05-.21-.04-.22-.04-.22-.03.05-.34.23.04.22.04.22.04.22.05.22.06.21.06.21.07.22.07.2.08.21.08.2.09.2.09.2.09.2.1.19.11.19.11.19.12.19.12.19.12.18.13.18.14.18.14.18.14.17.15.17.15.17.16.17.17.17.16.16.18.16.17.16.18.16.19zm3.65 7.91l-.09-.32-.12.21-.09-.3-.09-.29-.09-.29-.1-.29-.09-.28-.1-.27-.1-.28-.1-.27-.1-.26-.11-.27-.1-.26-.11-.25-.11-.25-.11-.25-.11-.24-.12-.24-.11-.24-.12-.23-.12-.23-.12-.22-.13-.22-.12-.22-.13-.21-.13-.21-.13-.2-.13-.2-.14-.2-.13-.19-.14-.19-.14-.18-.14-.18-.14-.17.26-.22.15.18.14.18.14.19.14.19.14.2.14.2.14.21.13.2.13.21.13.22.13.22.12.23.13.22.12.24.12.23.12.24.11.24.12.25.11.25.11.25.11.26.11.27.1.26.11.27.1.27.1.28.1.28.09.29.1.29.09.29.09.29.09.3-.11.21zm.11-.21l.05.16-.16.05.11-.21zm-2.49.56l2.29-.67.09.32-2.28.67-.21-.11.11-.21zm.1.32l-.17.05-.04-.16.21.11zM10.99 34.6l-.26.22-.13-.16-.12-.16-.13-.16-.12-.17-.12-.17-.12-.18-.12-.18-.12-.18-.11-.19-.12-.19-.11-.19-.11-.2-.11-.2-.1-.21-.11-.21-.1-.21-.11-.22-.1-.22-.1-.22-.1-.23-.09-.23-.1-.23-.09-.24-.09-.24-.09-.25-.09-.25-.09-.25-.09-.26-.08-.25-.09-.27-.08-.26-.08-.27.32-.1.08.27.09.26.08.26.08.26.09.25.09.25.08.25.09.24.1.24.09.23.09.23.1.23.09.22.1.22.1.22.1.21.1.21.11.21.1.2.11.2.11.19.11.19.11.19.11.18.11.18.12.18.11.17.12.16.12.17.12.16.13.15.12.15zm4.56 2.84l-.34-.05.14.19-.16-.03-.17-.03-.17-.03-.16-.04-.16-.04-.16-.05-.16-.05-.16-.06-.16-.05-.15-.07-.16-.06-.15-.07-.15-.08-.15-.07-.14-.08-.15-.09-.14-.09-.14-.09-.15-.1-.13-.1-.14-.1-.14-.11-.13-.11-.13-.11-.14-.12-.13-.13-.12-.12-.13-.13-.13-.13-.12-.14-.12-.14-.12-.14.26-.22.12.14.11.14.12.13.12.13.13.12.12.12.12.12.13.11.13.11.13.11.13.1.13.1.13.09.13.1.14.08.14.09.13.08.14.08.15.07.14.07.14.07.15.06.14.06.15.06.15.05.15.05.16.04.15.04.16.04.15.03.16.03.16.02.15.2zm-.15-.2l.17.03-.02.17-.15-.2zm-.54 2.51l.35-2.36.34.05-.35 2.36-.19.14-.15-.19zm.34.05l-.02.16-.17-.02.19-.14zm-6.31-3.46l.26-.22.15.19.16.17.16.17.16.17.16.16.16.16.16.16.17.14.17.15.17.14.17.13.18.13.18.13.17.12.18.12.19.11.18.11.19.1.19.1.19.09.19.09.2.08.2.08.2.07.2.07.2.06.21.06.21.06.21.05.21.04.22.04.22.03-.05.34-.23-.04-.22-.04-.22-.04-.22-.05-.22-.06-.21-.06-.21-.07-.22-.07-.2-.08-.21-.08-.2-.08-.2-.1-.2-.09-.2-.1-.19-.11-.2-.11-.19-.12-.18-.12-.19-.12-.18-.13-.18-.14-.18-.14-.18-.14-.17-.15-.18-.15-.17-.16-.16-.17-.17-.16-.16-.18-.16-.17-.16-.18-.16-.19zm-3.65-7.91l.09.32.12-.21.09.3.09.29.09.29.09.29.1.28.1.27.1.28.1.27.1.26.11.27.1.26.11.25.11.25.11.25.11.24.12.24.11.24.12.23.12.23.12.22.13.22.12.22.13.21.13.21.13.2.13.2.13.2.14.19.14.19.14.18.14.18.14.17-.26.22-.15-.18-.14-.18-.14-.19-.14-.19-.14-.2-.14-.2-.14-.21-.13-.2-.13-.21-.13-.22-.13-.22-.12-.23-.13-.22-.12-.24-.12-.23-.12-.24-.11-.24-.12-.25-.11-.25-.11-.26-.11-.25-.11-.27-.1-.26-.11-.27-.1-.27-.1-.28-.1-.28-.1-.29-.09-.29-.1-.29-.09-.29-.09-.3.12-.21zm-.12.21l-.04-.16.16-.05-.12.21zm2.5-.56l-2.29.67-.09-.32 2.28-.67.21.11-.11.21zm-.1-.32l.17-.05.04.16-.21-.11z" class="fil1"/><path d="M17.01 34.77c-2.27 0-4.11 1.53-4.11 3.41 0 1.89 1.84 3.41 4.11 3.41v-6.82z" class="fil0"/><path id="1" d="M12.73 38.18l.01-.19.02-.18.02-.18.04-.18.05-.17.06-.17.07-.17.07-.16.09-.16.1-.16.1-.15.11-.14.12-.14.13-.14.13-.13.15-.12.15-.12.15-.11.16-.1.17-.1.17-.1.18-.08.19-.08.18-.07.2-.06.2-.06.2-.05.2-.04.21-.03.22-.02.21-.01.22-.01v.34h-.2l-.21.02-.19.02-.2.03-.19.03-.19.05-.18.05-.18.06-.18.06-.17.08-.16.08-.16.08-.16.09-.15.1-.14.1-.14.11-.13.11-.12.12-.12.12-.1.13-.11.13-.09.14-.09.14-.07.14-.07.15-.06.15-.06.15-.04.15-.03.16-.03.16-.01.17-.01.16h-.34zm4.45 3.41l-.17.17h-.22l-.21-.02-.22-.02-.21-.03-.2-.04-.2-.05-.2-.05-.2-.07-.18-.07-.19-.08-.18-.08-.17-.09-.17-.1-.16-.11-.15-.11-.15-.12-.15-.12-.13-.13-.13-.13-.12-.15-.11-.14-.1-.15-.1-.15-.09-.16-.07-.17-.07-.17-.06-.17-.05-.17-.04-.18-.02-.18-.02-.18-.01-.19h.34l.01.17.01.16.03.16.03.16.04.15.06.16.06.15.07.14.07.14.09.14.09.14.11.13.11.13.11.12.12.12.13.11.14.11.14.1.15.1.16.09.16.09.16.08.17.07.18.06.18.06.18.05.19.05.19.03.2.03.19.02.21.02h.2l-.17.17h.34zm0 0v.17h-.17l.17-.17zm-.34-6.82l.17-.17.17.17v6.82h-.34v-6.82zm.17-.17h.17v.17l-.17-.17z" class="fil1"/><path d="M34.71.5c.2-.15.48-.1.62.09.15.2.11.48-.09.63l-2.45 1.82 3.44 1.78L33.2 9.3c-.14.21-.42.26-.62.12-.21-.14-.26-.41-.12-.62l2.47-3.65-3.82-1.98L34.71.5z" class="fil1"/><path fill="#ebecec" d="M29.86 13.34c1.21 0 2.19 1.05 2.19 2.34 0 1.3-.98 2.34-2.19 2.34-1.22 0-2.2-1.04-2.2-2.34 0-1.29.98-2.34 2.2-2.34z"/><path id="1" d="M32.22 15.68h-.34v-.11l-.01-.11-.01-.11-.02-.11-.02-.1-.03-.1-.03-.11-.04-.1-.04-.09-.05-.1-.05-.09-.05-.09-.06-.08-.06-.08-.06-.08-.07-.08-.07-.07-.07-.07-.08-.06-.08-.06-.08-.06-.08-.05-.09-.05-.09-.04-.09-.04-.1-.03-.09-.03-.1-.03-.1-.01-.1-.02-.1-.01h-.1v-.34l.12.01.12.01.12.01.11.02.12.03.11.04.11.04.11.04.1.05.11.06.09.06.1.07.09.07.09.07.09.08.08.08.08.09.07.09.07.1.07.09.06.11.06.1.05.11.04.11.04.11.04.12.03.12.03.12.02.12.02.13.01.12v.13zm-2.36 2.51v-.34h.1l.1-.01.1-.01.1-.02.1-.02.09-.03.1-.04.09-.04.09-.04.09-.05.08-.05.08-.05.08-.06.08-.07.07-.07.07-.07.07-.07.06-.08.06-.08.06-.09.05-.09.05-.09.05-.09.04-.1.04-.1.03-.1.03-.1.02-.11.02-.1.01-.11.01-.11v-.12h.34v.13l-.01.13-.02.12-.02.13-.03.12-.03.12-.04.11-.04.12-.04.11-.05.1-.06.11-.06.1-.07.1-.07.09-.07.1-.08.08-.08.09-.09.08-.09.07-.09.07-.1.07-.09.06-.11.05-.1.05-.11.05-.11.04-.11.03-.12.03-.11.02-.12.02-.12.01h-.12zm-2.37-2.51h.34v.12l.01.11.01.11.02.1.02.11.03.1.03.1.04.1.04.1.05.09.05.09.05.09.05.09.07.08.06.08.07.07.07.07.07.07.08.07.08.06.08.05.08.05.09.05.09.04.09.04.1.04.09.03.1.02.1.02.1.01.1.01h.11v.34h-.13l-.12-.01-.12-.02-.11-.02-.12-.03-.11-.03-.11-.04-.11-.05-.1-.05-.11-.05-.09-.06-.1-.07-.09-.07-.09-.07-.09-.08-.08-.09-.08-.08-.07-.09-.07-.1-.07-.1-.06-.1-.06-.11-.05-.1-.04-.11-.05-.12-.03-.11-.03-.12-.03-.12-.02-.13-.02-.12-.01-.13v-.13zm2.37-2.51v.34h-.11l-.1.01-.1.02-.1.01-.1.03-.09.03-.1.03-.09.04-.09.04-.09.05-.08.05-.08.06-.08.06-.08.06-.07.07-.07.07-.07.08-.06.08-.07.08-.05.08-.05.09-.05.09-.05.1-.04.09-.04.1-.03.1-.03.11-.02.1-.02.11-.01.11-.01.11v.11h-.34v-.13l.01-.12.02-.13.02-.12.03-.12.03-.12.03-.12.05-.11.04-.11.05-.11.06-.1.06-.11.07-.09.07-.1.07-.09.08-.09.08-.08.09-.08.09-.07.09-.07.1-.07.09-.06.11-.06.1-.05.11-.04.11-.04.11-.04.12-.03.11-.02.12-.01.12-.01.13-.01z" class="fil1"/><path fill="#fefefe" d="M36.73 13.34c1.21 0 2.19 1.05 2.19 2.34 0 1.3-.98 2.34-2.19 2.34s-2.19-1.04-2.19-2.34c0-1.29.98-2.34 2.19-2.34z"/><path id="1" d="M39.09 15.68h-.33l-.01-.11-.01-.11-.01-.11-.02-.11-.02-.1-.03-.11-.03-.1-.04-.1-.04-.09-.04-.1-.05-.09-.05-.09-.06-.08-.06-.08-.07-.08-.06-.08-.07-.07-.08-.07-.07-.06-.08-.06-.09-.06-.08-.05-.09-.05-.09-.04-.09-.04-.09-.03-.1-.03-.09-.03-.1-.01-.1-.02-.11-.01h-.1v-.34l.12.01.12.01.12.01.12.02.11.03.11.04.12.04.1.04.11.05.1.06.1.06.1.07.09.07.09.07.08.08.09.08.07.09.08.09.07.1.06.09.06.11.06.1.05.11.05.11.04.11.04.12.03.12.03.12.02.12.01.13.01.12v.13zm-2.36 2.51v-.33l.1-.01.11-.01.1-.01.1-.02.09-.02.1-.03.09-.03.09-.04.09-.05.09-.04.08-.06.09-.05.08-.06.07-.07.08-.07.07-.07.06-.07.07-.08.06-.08.06-.09.05-.09.05-.09.04-.09.04-.1.04-.1.03-.1.03-.1.02-.11.02-.1.01-.11.01-.11.01-.12h.33v.13l-.01.13-.01.12-.02.13-.03.12-.03.12-.04.11-.04.12-.05.11-.05.1-.06.11-.06.1-.06.1-.07.1-.08.09-.07.08-.09.09-.08.08-.09.07-.09.07-.1.07-.1.06-.1.05-.11.05-.1.05-.12.04-.11.03-.11.03-.12.02-.12.02-.12.01h-.12zm-2.36-2.51h.34v.12l.01.11.01.11.02.1.02.11.03.1.03.1.04.1.04.1.04.09.05.09.05.09.06.09.06.08.06.08.07.07.07.07.08.07.07.07.08.06.08.05.09.06.09.04.09.05.09.04.09.03.1.03.09.02.1.02.1.01.11.01.1.01v.33h-.12l-.12-.01-.12-.02-.12-.02-.11-.03-.12-.03-.11-.04-.11-.05-.1-.05-.1-.05-.1-.06-.1-.07-.09-.07-.09-.07-.08-.08-.09-.09-.07-.08-.08-.09-.07-.1-.06-.1-.06-.1-.06-.11-.05-.1-.05-.11-.04-.12-.04-.11-.03-.12-.03-.12-.02-.13-.01-.12-.01-.13v-.13zm2.36-2.51v.34h-.1l-.11.01-.1.02-.1.01-.09.03-.1.03-.09.03-.09.04-.09.04-.09.05-.09.05-.08.06-.08.06-.07.06-.08.07-.07.07-.07.08-.06.08-.06.08-.06.08-.05.09-.05.09-.04.1-.04.09-.04.1-.03.11-.03.1-.02.1-.02.11-.01.11-.01.11v.11h-.34v-.13l.01-.12.01-.13.02-.12.03-.12.03-.12.04-.12.04-.11.05-.11.05-.11.06-.1.06-.11.06-.09.07-.1.08-.09.07-.09.09-.08.08-.08.09-.07.09-.07.1-.07.1-.06.1-.06.1-.05.11-.04.11-.04.12-.04.11-.03.12-.02.12-.01.12-.01.12-.01z" class="fil1"/><path d="M23.03 21.73c-.27-.18-.34-.55-.15-.82.18-.28.55-.35.83-.16 3.05 2.08 6.21 3.03 9.45 2.97 3.27-.06 6.64-1.14 10.1-3.09.29-.16.65-.06.81.22.16.29.06.65-.22.81-3.64 2.06-7.2 3.19-10.67 3.25-3.49.06-6.88-.95-10.15-3.18z" class="fil1"/><path d="M5.62 30.17c1.93 0 3.5-1.5 3.5-3.34 0-1.85-1.57-3.35-3.5-3.35s-3.5 1.5-3.5 3.35c0 1.84 1.57 3.34 3.5 3.34z" class="fil3"/><path id="1" d="M9.28 26.83v.18l-.01.17-.03.18-.03.17-.04.17-.05.17-.06.17-.06.15-.08.16-.08.15-.09.15-.09.14-.11.14-.1.13-.12.13-.12.12-.13.12-.13.11-.14.1-.14.1-.15.09-.16.08-.15.08-.17.07-.16.06-.17.06-.18.05-.17.04-.18.03-.19.02-.18.01-.19.01V30l.17-.01.17-.01.17-.02.16-.03.16-.03.16-.04.16-.06.15-.05.14-.07.15-.07.14-.07.13-.08.13-.09.13-.1.12-.1.11-.1.11-.11.11-.12.1-.12.09-.12.09-.13.08-.13.07-.14.07-.14.06-.15.05-.14.04-.15.04-.16.03-.15.02-.16.01-.16.01-.16h.33zm-3.66-3.52l.19.01.18.01.19.02.18.03.17.04.18.05.17.06.16.06.17.07.15.08.16.08.15.09.14.1.14.1.13.11.13.12.12.12.12.13.1.13.11.14.09.14.09.15.08.15.08.16.06.16.06.16.05.17.04.17.03.17.03.18.01.18v.18h-.33l-.01-.17-.01-.16-.02-.16-.03-.15-.04-.16-.04-.15-.05-.14-.06-.15-.07-.14-.07-.13-.08-.14-.09-.12-.09-.13-.1-.12-.11-.11-.11-.11-.11-.11-.12-.1-.13-.09-.13-.09-.13-.09-.14-.07-.15-.07-.14-.07-.15-.05-.16-.05-.16-.05-.16-.03-.16-.03-.17-.02-.17-.01-.17-.01v-.34zm-3.67 3.52l.01-.18.01-.18.03-.18.03-.17.04-.17.05-.17.06-.16.06-.16.08-.16.08-.15.09-.15.09-.14.1-.14.11-.13.12-.13.12-.12.13-.12.13-.11.14-.1.14-.1.15-.09.16-.08.15-.08.17-.07.16-.06.17-.06.18-.05.17-.04.18-.03.19-.02.18-.01.19-.01v.34l-.17.01-.17.01-.17.02-.16.03-.16.03-.16.05-.16.05-.15.05-.14.07-.15.07-.14.07-.13.09-.13.09-.13.09-.12.1-.12.11-.11.11-.1.11-.1.12-.09.13-.09.12-.08.14-.07.13-.07.14-.06.15-.05.14-.04.15-.04.16-.03.15-.02.16-.01.16-.01.17h-.34zm3.67 3.51l-.19-.01-.18-.01-.19-.02-.18-.03-.17-.04-.18-.05-.17-.06-.16-.06-.17-.07-.15-.08-.16-.08-.15-.09-.14-.1-.14-.1-.13-.11-.13-.12-.12-.12-.12-.13-.11-.13-.1-.14-.09-.14-.09-.15-.08-.15-.08-.16-.06-.15-.06-.17-.05-.17-.04-.17-.03-.17-.03-.18-.01-.17-.01-.18h.34l.01.16.01.16.02.16.03.15.04.16.04.15.05.14.06.15.07.14.07.14.08.13.09.13.09.12.1.12.1.12.11.11.12.1.12.1.13.1.13.09.13.08.14.07.15.07.14.07.15.05.16.06.16.04.16.03.16.03.17.02.17.01.17.01v.34z" class="fil1"/><path d="M15.76 28.45h36.18c.49 0 .88.4.88.88v.88c0 .48-.39.87-.88.87H15.76c-.48 0-.87-.39-.87-.87v-.88c0-.48.39-.88.87-.88z" class="fil0"/><path id="1" d="M51.94 28.62H15.76v-.34h36.18v.34zm1.05.71h-.34v-.07l-.01-.04v-.03l-.01-.03-.01-.04-.01-.03-.02-.04-.01-.03-.01-.03-.02-.03-.02-.03-.02-.02-.02-.03-.02-.03-.03-.02-.02-.02-.03-.03-.02-.02-.03-.02-.03-.02-.03-.01-.03-.02-.03-.01-.03-.02-.04-.01-.03-.01h-.03l-.04-.01-.04-.01h-.07v-.34H52l.05.01.05.01h.05l.05.02.05.01.05.02.05.02.05.02.04.02.04.03.05.02.04.03.04.03.04.03.03.04.04.04.03.03.03.04.03.05.03.04.02.04.03.05.02.04.02.05.01.05.02.05.01.05.01.05v.05l.01.06v.05zm-.34.88v-.88h.34v.88h-.34zm-.71 1.04v-.33l.04-.01h.07l.04-.01.03-.01.03-.01.04-.01.03-.01.03-.01.03-.02.03-.02.03-.02.03-.01.02-.03.03-.02.02-.02.03-.03.02-.02.02-.03.02-.03.02-.03.02-.03.01-.03.01-.03.02-.03.01-.03.01-.04.01-.03v-.03l.01-.04v-.07h.34v.05l-.01.05v.06l-.01.05-.01.05-.02.05-.01.05-.02.04-.02.05-.03.05-.02.04-.03.04-.03.04-.03.04-.03.04-.04.04-.03.03-.04.04-.04.02-.04.04-.05.02-.04.03-.04.02-.05.02-.05.02-.05.02-.05.01-.05.01-.05.01-.05.01h-.11zm-36.18-.33h36.18v.33H15.76v-.33zm-1.04-.71h.33l.01.03v.08l.01.03.01.03.01.04.01.03.01.03.01.03.02.03.02.03.02.03.02.03.02.03.02.02.02.03.03.02.02.02.03.03.03.01.03.02.03.02.03.02.03.01.03.01.03.01.04.01.03.01.03.01h.08l.03.01v.33h-.1l-.05-.01-.05-.01-.06-.01-.05-.01-.05-.02-.04-.02-.05-.02-.05-.02-.04-.03-.04-.02-.04-.04-.04-.02-.04-.04-.04-.03-.03-.04-.03-.04-.03-.04-.03-.04-.03-.04-.03-.04-.02-.05-.02-.05-.02-.04-.02-.05-.01-.05-.01-.05-.01-.05-.01-.06v-.1zm.33-.88v.88h-.33v-.88h.33zm.71-1.05v.34h-.07l-.04.01-.03.01h-.03l-.04.01-.03.01-.03.02-.03.01-.03.02-.03.01-.03.02-.03.02-.03.02-.02.03-.03.02-.02.02-.02.03-.02.03-.02.02-.02.03-.02.03-.02.03-.01.03-.01.04-.01.03-.01.04-.01.03-.01.03v.07l-.01.04h-.33v-.11l.01-.05.01-.05.01-.05.01-.05.02-.05.02-.05.02-.04.02-.05.03-.04.03-.04.03-.05.03-.04.03-.03.03-.04.04-.04.04-.03.04-.03.04-.03.04-.02.04-.03.05-.02.05-.02.04-.02.05-.02.05-.01.06-.02h.05l.05-.01.05-.01h.05z" class="fil1"/><g><path d="M15.76 31.23h36.18c.49 0 .88.4.88.88v.88c0 .48-.39.87-.88.87H15.76c-.48 0-.87-.39-.87-.87v-.88c0-.48.39-.88.87-.88z" class="fil8"/><path id="1" d="M51.94 31.4H15.76v-.34h36.18v.34zm1.05.71h-.34v-.07l-.01-.04v-.04l-.01-.03-.01-.03-.01-.03-.02-.04-.01-.03-.01-.03-.02-.03-.02-.03-.02-.02-.02-.03-.02-.03-.03-.02-.02-.03-.03-.02-.02-.02-.03-.02-.03-.02-.03-.01-.03-.02-.03-.01-.03-.02-.04-.01-.03-.01h-.03l-.04-.01-.04-.01h-.07v-.34H52l.05.01h.05l.05.01.05.02.05.01.05.02.05.02.05.02.04.02.04.02.05.03.04.03.04.03.04.03.03.04.04.04.03.03.03.04.03.04.03.05.02.04.03.05.02.04.02.05.01.05.02.05.01.05.01.05V32l.01.05v.06zm-.34.88v-.88h.34v.88h-.34zm-.71 1.04v-.33l.04-.01h.07l.04-.01.03-.01.03-.01.04-.01.03-.01.03-.01.03-.02.03-.02.03-.02.03-.02.02-.02.03-.02.02-.02.03-.03.02-.02.02-.03.02-.03.02-.03.02-.03.01-.03.01-.03.02-.03.01-.03.01-.04.01-.03v-.03l.01-.04v-.07h.34v.05l-.01.05v.05l-.01.05-.01.06-.02.05-.01.05-.02.04-.02.05-.03.05-.02.04-.03.04-.03.04-.03.04-.03.04-.04.04-.03.03-.04.03-.04.03-.04.03-.05.03-.04.03-.04.02-.05.02-.05.02-.05.02-.05.01-.05.01-.05.01-.05.01h-.11zm-36.18-.33h36.18v.33H15.76v-.33zm-1.04-.71h.33l.01.03v.08l.01.03.01.03.01.04.01.03.01.03.01.03.02.03.02.03.02.03.02.03.02.03.02.02.02.03.03.02.02.02.03.02.03.02.03.02.03.02.03.02.03.01.03.01.03.01.04.01.03.01.03.01h.08l.03.01v.33h-.1l-.05-.01-.05-.01-.06-.01-.05-.01-.05-.02-.04-.02-.05-.02-.05-.02-.04-.03-.04-.03-.04-.03-.04-.03-.04-.03-.04-.03-.03-.04-.03-.04-.03-.04-.03-.04-.03-.04-.03-.04-.02-.05-.02-.05-.02-.04-.02-.05-.01-.05-.01-.06-.01-.05-.01-.05v-.1zm.33-.88v.88h-.33v-.88h.33zm.71-1.05v.34h-.07l-.04.01-.03.01h-.03l-.04.01-.03.01-.03.02-.03.01-.03.02-.03.01-.03.02-.03.02-.03.02-.02.02-.03.03-.02.02-.02.03-.02.03-.02.02-.02.03-.02.03-.02.03-.01.03-.01.04-.01.03-.01.03-.01.03-.01.04v.07l-.01.04h-.33V32l.01-.05.01-.05.01-.05.01-.05.02-.05.02-.05.02-.04.02-.05.03-.04.03-.05.03-.04.03-.04.03-.03.03-.04.04-.04.04-.03.04-.03.04-.03.04-.03.04-.02.05-.02.05-.02.04-.02.05-.02.05-.01.06-.02.05-.01h.05l.05-.01h.05z" class="fil1"/></g><g><path d="M20.62 47.13h26.47c.48 0 .88.4.88.88v.88c0 .48-.4.88-.88.88H20.62c-.49 0-.88-.4-.88-.88v-.88c0-.48.39-.88.88-.88z" class="fil8"/><path id="1" d="M47.09 47.3H20.62v-.33h26.47v.33zm1.05.71h-.34v-.07l-.01-.04-.01-.03v-.03l-.01-.04-.01-.03-.02-.04-.01-.03-.01-.03-.02-.03-.02-.03-.02-.02-.02-.03-.02-.03-.03-.02-.02-.03-.03-.02-.03-.02-.02-.02-.03-.02-.03-.01-.03-.02-.03-.01-.04-.02-.03-.01-.03-.01h-.03l-.04-.01h-.04l-.03-.01h-.04v-.33h.11l.05.01.05.01.05.01.05.01.05.02.05.02.05.02.04.02.04.03.05.02.04.03.04.03.03.04.04.03.04.04.03.04.03.04.03.04.03.04.02.04.03.05.02.04.02.05.01.05.02.05.01.05.01.05v.05l.01.06v.05zm-.34.88v-.88h.34v.88h-.34zm-.71 1.04v-.33h.04l.03-.01h.04l.04-.01h.03l.03-.02.03-.01.04-.01.03-.01.03-.02.03-.02.03-.01.02-.02.03-.02.03-.03.02-.02.03-.02.02-.03.02-.03.02-.03.02-.02.02-.04.01-.02.01-.04.02-.03.01-.03.01-.04v-.03l.01-.03.01-.04v-.07h.34v.05l-.01.06v.05l-.01.05-.01.05-.02.05-.01.05-.02.04-.02.05-.03.05-.02.04-.03.04-.03.04-.03.04-.03.04-.04.04-.04.03-.03.03-.04.03-.04.04-.05.02-.04.03-.04.02-.05.02-.05.02-.05.02-.05.01-.05.01-.05.01-.05.01h-.11zm-26.47-.33h26.47v.33H20.62v-.33zm-1.05-.71h.34v.07l.01.04v.03l.01.03.01.04.01.03.01.03.02.04.01.02.02.04.02.02.02.03.02.03.02.03.03.02.02.02.03.03.02.02.03.02.03.01.03.02.03.02.03.01.03.01.04.01.03.02h.03l.04.01h.03l.04.01h.04v.33h-.11l-.05-.01-.05-.01-.06-.01-.05-.01-.04-.02-.05-.02-.05-.02-.05-.02-.04-.03-.04-.02-.04-.04-.04-.03-.04-.03-.04-.03-.03-.04-.03-.04-.03-.04-.03-.04-.03-.04-.02-.04-.03-.05-.02-.05-.02-.04-.01-.05-.02-.05-.01-.05-.01-.05-.01-.05v-.11zm.34-.88v.88h-.34v-.88h.34zm.71-1.04v.33h-.04l-.04.01h-.03l-.04.01h-.03l-.03.01-.04.01-.03.02-.03.01-.03.02-.03.01-.03.02-.03.02-.02.02-.03.02-.02.03-.03.02-.02.03-.02.03-.02.02-.02.03-.02.03-.01.03-.02.03-.01.04-.01.03-.01.04-.01.03v.03l-.01.04v.07h-.34v-.11l.01-.05.01-.05.01-.05.02-.05.01-.05.02-.05.02-.04.03-.05.02-.04.03-.04.03-.04.03-.04.03-.04.03-.04.04-.03.04-.04.04-.03.04-.03.04-.02.04-.03.05-.02.05-.02.05-.02.04-.02.05-.01.06-.01.05-.01.05-.01h.11z" class="fil1"/></g><g><path d="M20.62 49.57h26.47c.48 0 .88.4.88.88v.88c0 .48-.4.87-.88.87H20.62c-.49 0-.88-.39-.88-.87v-.88c0-.48.39-.88.88-.88z" class="fil0"/><path id="1" d="M47.09 49.74H20.62v-.34h26.47v.34zm1.05.71h-.34v-.07l-.01-.04-.01-.04v-.03l-.01-.03-.01-.04-.02-.03-.01-.03-.01-.03-.02-.03-.02-.03-.02-.03-.02-.02-.02-.03-.03-.02-.02-.03-.03-.02-.03-.02-.02-.02-.03-.02-.03-.02-.03-.01-.03-.01-.04-.02-.03-.01-.03-.01-.03-.01h-.04l-.04-.01h-.07v-.34h.06l.05.01h.05l.05.01.05.02.05.01.05.02.05.02.05.02.04.02.04.02.05.03.04.03.04.03.03.03.04.04.04.04.03.03.03.04.03.04.03.05.02.04.03.05.02.04.02.05.01.05.02.05.01.05.01.05v.05l.01.06v.05zm-.34.88v-.88h.34v.88h-.34zm-.71 1.04v-.33l.04-.01h.07l.04-.01.03-.01.03-.01.03-.01.04-.01.03-.01.03-.02.03-.02.03-.02.02-.01.03-.03.03-.02.02-.02.03-.03.02-.02.02-.03.02-.03.02-.03.02-.03.01-.03.01-.03.02-.03.01-.03.01-.04v-.03l.01-.04.01-.03v-.07h.34v.05l-.01.05v.05l-.01.05-.01.06-.02.05-.01.04-.02.05-.02.05-.03.05-.02.04-.03.04-.03.04-.03.04-.03.04-.04.03-.04.04-.03.03-.04.03-.04.03-.05.03-.04.02-.04.03-.05.02-.05.02-.05.01-.05.02-.05.01-.05.01-.05.01h-.11zm-26.47-.33h26.47v.33H20.62v-.33zm-1.05-.71h.34v.07l.01.03v.04l.01.03.01.04.01.03.01.03.02.03.01.03.02.03.02.03.02.03.02.03.02.02.03.03.02.02.03.02.02.03.03.01.03.02.03.02.03.02.03.01.03.01.04.01.03.01.03.01.04.01h.07l.04.01v.33h-.11l-.05-.01-.05-.01-.06-.01-.05-.02-.04-.01-.05-.02-.05-.02-.05-.03-.04-.02-.04-.03-.04-.03-.04-.03-.04-.03-.04-.04-.03-.03-.03-.04-.03-.04-.03-.04-.03-.04-.02-.04-.03-.05-.02-.05-.02-.05-.01-.04-.02-.05-.01-.06-.01-.05-.01-.05v-.1zm.34-.88v.88h-.34v-.88h.34zm.71-1.05v.34h-.08l-.03.01h-.04l-.03.01-.03.01-.04.01-.03.02-.03.01-.03.01-.03.02-.03.02-.03.02-.02.02-.03.02-.02.03-.03.02-.02.03-.02.02-.02.03-.02.03-.02.03-.01.03-.02.03-.01.03-.01.04-.01.03-.01.03v.04l-.01.04v.07h-.34v-.11l.01-.05.01-.05.01-.05.02-.05.01-.05.02-.05.02-.04.03-.05.02-.04.03-.05.03-.04.03-.04.03-.03.03-.04.04-.04.04-.03.04-.03.04-.03.04-.03.04-.02.05-.02.05-.02.05-.02.04-.02.05-.01.06-.02.05-.01h.05l.05-.01h.06z" class="fil1"/></g><g><path d="M26.56 41.25h-.34v-.06l-.01-.03v-.03l-.01-.03-.01-.03-.01-.03-.01-.02-.01-.03-.02-.02-.02-.03-.01-.02-.02-.03-.02-.02-.02-.03-.02-.02-.02-.02-.03-.02-.02-.02-.03-.01-.03-.02-.02-.01-.03-.02-.03-.01-.03-.01-.03-.01-.04-.01-.03-.01h-.03l-.03-.01h-.07v-.34h.05l.05.01h.05l.05.01.05.01.04.01.05.02.04.02.05.01.04.03.04.02.04.02.04.03.04.03.04.03.03.03.03.03.04.04.02.03.03.03.03.05.02.03.03.05.02.04.02.04.01.05.01.04.02.05.01.05v.04l.01.05v.05zm-1 .95v-.34h.07l.03-.01h.03l.03-.01.04-.01.03-.01.03-.01.03-.01.03-.01.02-.02.03-.01.03-.02.02-.02.03-.02.02-.02.02-.02.02-.02.02-.03.02-.02.01-.02.02-.03.02-.03.01-.02.01-.03.01-.03.01-.03.01-.03v-.02l.01-.04v-.06h.34v.05l-.01.05v.05l-.01.04-.02.05-.01.05-.01.04-.02.04-.02.05-.03.04-.02.04-.03.04-.03.03-.02.04-.04.03-.03.04-.04.03-.03.03-.04.03-.04.02-.04.03-.04.02-.04.02-.05.02-.04.02-.05.01-.04.01-.05.01-.05.01-.05.01h-.1zm-1-.95h.34v.06l.01.04v.02l.01.03.01.03.01.03.01.03.01.02.01.03.02.03.02.02.02.02.02.03.02.02.02.02.02.02.03.02.02.02.02.02.03.01.03.02.03.01.03.01.03.01.03.01.03.01.03.01h.04l.03.01h.07v.34h-.1l-.05-.01-.05-.01-.05-.01-.05-.01-.04-.02-.05-.01-.04-.02-.05-.02-.04-.02-.04-.03-.03-.02-.04-.03-.04-.03-.03-.03-.04-.04-.03-.03-.03-.04-.03-.04-.02-.03-.03-.04-.02-.04-.02-.05-.02-.04-.01-.04-.02-.05-.01-.05-.01-.04v-.05l-.01-.05v-.05zm1-.95v.34h-.07l-.03.01h-.04l-.03.01-.03.01-.03.01-.03.01-.03.01-.03.02-.03.01-.03.02-.02.01-.02.02-.03.02-.02.02-.02.02-.02.03-.02.02-.02.02-.02.03-.02.03-.01.02-.01.03-.01.02-.01.03-.01.03-.01.03v.03l-.01.03v.06h-.34v-.05l.01-.05v-.04l.01-.05.01-.05.02-.04.01-.05.02-.04.02-.04.02-.05.03-.03.02-.04.03-.04.03-.03.03-.04.04-.03.03-.03.04-.03.04-.03.03-.03.04-.02.04-.02.05-.03.04-.01.05-.02.04-.02.05-.01.05-.01.05-.01h.05l.05-.01h.05z" class="fil1"/></g><g><path d="M29.35 15.41c.45 0 .83.35.83.78 0 .43-.38.78-.83.78-.46 0-.83-.35-.83-.78 0-.43.37-.78.83-.78z" class="fil9"/><path id="1" d="M30.35 16.19h-.34v-.03l-.01-.03v-.03l-.01-.03v-.03l-.01-.03-.01-.03-.01-.03-.01-.02-.02-.02-.02-.03-.01-.03-.02-.02-.02-.02-.02-.03-.02-.02-.02-.02-.03-.02-.02-.02-.03-.01-.03-.02-.03-.02-.02-.01-.03-.01-.03-.01-.03-.01-.04-.01-.03-.01h-.03l-.03-.01h-.07v-.34h.1l.05.01.05.01.05.01.04.01.05.02.04.01.05.02.04.02.04.03.04.02.04.03.04.03.03.02.04.04.03.03.03.03.03.04.03.03.03.04.02.04.03.04.02.05.01.04.02.04.01.05.02.05v.05l.01.04v.05l.01.05zm-1 .95v-.34h.07l.03-.01h.03l.03-.01.04-.01.03-.01.03-.01.03-.01.03-.02.02-.01.03-.02.03-.01.02-.02.03-.02.02-.02.02-.02.02-.02.02-.03.02-.02.01-.03.02-.02.02-.03.01-.02.01-.03.01-.03.01-.03v-.03l.01-.03v-.03l.01-.03v-.03h.34l-.01.05v.05l-.01.05v.04l-.02.05-.01.05-.02.04-.01.04-.02.05-.03.04-.02.04-.03.03-.03.04-.03.04-.03.03-.03.03-.04.04-.03.03-.04.02-.04.03-.04.03-.04.02-.04.02-.05.02-.04.01-.05.02-.04.01-.05.01-.05.01-.05.01h-.1zm-1-.95h.34v.06l.01.03v.03l.01.03.01.03.01.03.01.03.01.02.01.03.02.02.02.03.02.02.01.03.02.02.03.02.02.02.02.02.03.02.02.01.03.02.03.01.03.02.03.01.03.01.03.01.03.01.03.01h.03l.04.01h.07v.34h-.1l-.05-.01-.05-.01-.05-.01-.05-.01-.04-.02-.05-.01-.04-.02-.04-.02-.05-.02-.04-.03-.04-.03-.03-.02-.04-.03-.04-.03-.03-.04-.03-.03-.03-.04-.03-.04-.02-.03-.03-.04-.02-.04-.02-.05-.02-.04-.01-.04-.02-.05-.01-.05-.01-.04v-.05l-.01-.05v-.05zm1-.95v.34h-.07l-.04.01h-.03l-.03.01-.03.01-.03.01-.03.01-.03.01-.03.01-.03.02-.03.02-.02.01-.03.02-.02.02-.02.02-.03.02-.02.03-.02.02-.01.02-.02.03-.02.03-.01.02-.01.02-.01.03-.01.03-.01.03-.01.03v.03l-.01.03v.06h-.34v-.05l.01-.05v-.04l.01-.05.01-.05.02-.05.01-.04.02-.04.02-.05.02-.04.03-.04.02-.03.03-.04.03-.04.03-.03.03-.03.04-.04.03-.02.04-.03.04-.03.04-.02.04-.03.05-.02.04-.02.05-.01.04-.02.05-.01.05-.01.05-.01.05-.01h.1z" class="fil1"/></g><g><path d="M36.73 14.12c.46 0 .83.35.83.78 0 .43-.37.78-.83.78-.46 0-.83-.35-.83-.78 0-.43.37-.78.83-.78z" class="fil9"/><path id="1" d="M37.73 14.9h-.34v-.06l-.01-.03v-.03l-.01-.03-.01-.02-.01-.04-.01-.02-.01-.03-.02-.02-.01-.03-.02-.03-.02-.02-.02-.02-.02-.03-.02-.01-.02-.02-.03-.03-.02-.01-.03-.02-.02-.02-.03-.01-.03-.02-.03-.01-.03-.01-.03-.01-.03-.01-.03-.01h-.07l-.03-.01h-.04v-.34l.05.01h.1l.05.01.05.01.04.02.05.01.04.02.05.01.04.03.04.02.04.02.04.03.04.03.04.03.03.03.04.03.03.04.03.03.03.04.02.04.02.04.03.04.02.04.02.04.01.05.02.04.01.05.01.05v.05l.01.04v.05zm-1 .95v-.34h.1l.04-.01.03-.01.03-.01h.03l.03-.02.03-.01.03-.01.03-.02.02-.01.03-.02.02-.02.03-.02.02-.02.02-.02.02-.02.02-.03.02-.02.02-.02.01-.03.02-.03.01-.02.01-.03.01-.03.01-.03.01-.03V15l.01-.04v-.06h.34v.05l-.01.05v.05l-.01.05-.01.04-.02.05-.01.04-.02.04-.02.05-.03.04-.02.04-.02.04-.03.03-.03.04-.03.03-.04.04-.03.03-.04.03-.04.03-.04.02-.04.03-.04.02-.04.02-.05.02-.04.02-.05.01-.04.01-.05.01-.05.01-.05.01h-.1zm-1-.95h.34v.06l.01.04v.02l.01.03.01.03.01.03.01.03.01.02.02.03.02.03.01.02.02.02.02.03.02.02.02.02.02.02.03.02.02.02.03.02.02.01.03.02.03.01.03.01.03.02h.03l.03.01.03.01.04.01h.1v.34h-.1l-.05-.01-.05-.01-.05-.01-.04-.01-.05-.01-.05-.02-.04-.02-.04-.02-.04-.02-.04-.03-.04-.02-.04-.03-.04-.03-.03-.03-.04-.04-.03-.03-.03-.04-.02-.03-.03-.04-.02-.04-.03-.04-.02-.05-.02-.04-.01-.04-.02-.05-.01-.04-.01-.05V15l-.01-.05v-.05zm1-.95v.34h-.04l-.03.01h-.07l-.03.01-.03.01-.03.01-.03.01-.03.01-.03.02-.03.01-.02.02-.03.02-.02.01-.03.03-.02.02-.02.01-.02.03-.02.02-.02.02-.01.03-.02.03-.02.02-.01.03-.01.02-.01.04-.01.02-.01.03v.03l-.01.03v.06h-.34v-.05l.01-.04v-.05l.01-.05.01-.05.02-.04.01-.05.02-.04.02-.04.03-.04.02-.04.03-.04.02-.04.03-.03.03-.04.04-.03.03-.03.04-.03.04-.03.04-.03.04-.02.04-.02.04-.02.04-.02.05-.02.05-.01.04-.02.05-.01.05-.01h.1l.05-.01z" class="fil1"/></g><g><path d="M41.29 60.36c3.26 0 5.9 2.29 5.9 5.12 0 .51-.09 1-.25 1.47H35.63c-.15-.47-.24-.96-.24-1.47 0-2.83 2.64-5.12 5.9-5.12z" class="fil0"/><path id="1" d="M47.36 65.48h-.34l-.01-.25-.02-.25-.04-.25-.04-.24-.07-.24-.08-.23-.09-.23-.1-.23-.11-.21-.13-.22-.13-.21-.15-.2-.16-.19-.17-.19-.18-.18-.19-.17-.2-.16-.21-.16-.21-.15-.23-.14-.23-.13-.24-.12-.25-.11-.25-.09-.26-.09-.27-.08-.27-.07-.28-.06-.28-.04-.29-.03-.29-.02-.3-.01v-.34l.31.01.31.02.3.03.3.05.29.06.29.07.28.08.27.1.27.1.26.12.26.12.24.14.24.15.23.16.22.16.21.17.2.19.19.19.19.2.16.21.16.21.15.22.13.23.13.23.11.25.09.24.08.25.07.26.06.26.04.27.02.27.01.27zm-.42 1.63v-.33l-.16.11.02-.04.01-.04.01-.05.02-.04.01-.04.01-.04.01-.05.01-.04.02-.04.01-.05.01-.04.01-.04v-.04l.01-.05.01-.05.01-.04.01-.04v-.05l.01-.04.01-.04v-.09l.01-.05v-.04l.01-.05v-.09l.01-.04v-.19h.34V65.63l-.01.05v.14l-.01.05v.05l-.01.05v.05l-.01.05-.01.05v.04l-.01.05-.01.05-.01.05v.04l-.01.05-.01.05-.01.04-.01.05-.01.05-.02.04-.01.05-.01.05-.01.04-.02.05-.01.04-.02.05-.01.05-.02.04-.16.11zm.16-.11l-.04.11h-.12l.16-.11zm-11.47-.22h11.31v.33H35.63l-.16-.11.16-.22zm0 .33h-.12l-.04-.11.16.11zm-.41-1.63h.34v.23l.01.05v.09l.01.04v.05l.01.04v.05l.01.04.01.04v.05l.01.04.01.04v.05l.01.04.01.05.01.04.01.04.01.05.01.04.01.04.02.05.01.04.01.04.01.04.02.05.01.04.01.04-.32.11-.01-.05-.02-.04-.01-.05-.01-.04-.02-.05-.01-.04-.01-.05-.02-.05-.01-.04-.01-.05-.01-.05-.01-.04-.01-.05-.01-.05-.01-.04v-.05l-.01-.05-.01-.05-.01-.04v-.05l-.01-.05-.01-.05v-.1l-.01-.04v-.1l-.01-.05v-.2zm6.07-5.29v.34l-.3.01-.29.02-.29.03-.28.04-.28.06-.27.07-.27.08-.26.09-.25.09-.25.11-.24.12-.24.13-.22.14-.22.15-.2.16-.2.16-.19.17-.18.18-.17.19-.16.19-.15.2-.13.21-.13.22-.12.21-.1.23-.09.23-.07.23-.07.24-.05.24-.03.25-.03.25v.25h-.34l.01-.27.02-.27.04-.27.05-.26.07-.26.09-.25.09-.24.11-.25.12-.23.14-.23.14-.22.16-.21.17-.21.18-.2.19-.19.21-.19.21-.17.22-.16.23-.16.23-.15.25-.14.25-.12.27-.12.26-.1.28-.1.28-.08.29-.07.29-.06.3-.05.3-.03.31-.02.31-.01z" class="fil1"/></g><g><path d="M34.95 66.95h12.58v2.92H34.95z" class="fil3"/><path id="1" d="M47.53 67.11H34.95v-.33h12.58l.17.17-.17.16zm0-.33h.17v.17l-.17-.17zm-.17 3.09v-2.92h.34v2.92l-.17.17-.17-.17zm.34 0v.17h-.17l.17-.17zm-12.75-.17h12.58v.34H34.95l-.17-.17.17-.17zm0 .34h-.17v-.17l.17.17zm.17-3.09v2.92h-.34v-2.92l.17-.17.17.17zm-.34 0v-.17h.17l-.17.17z" class="fil1"/></g><g><path d="M42.07 41.51h-.34v-.06l-.01-.03v-.03l-.01-.03-.01-.03-.01-.03-.01-.02-.01-.03-.01-.02-.02-.03-.02-.03-.02-.02-.01-.02-.02-.02-.02-.02-.03-.03-.02-.02-.03-.01-.02-.02-.03-.02-.03-.01-.03-.02-.03-.01-.03-.01-.03-.01-.03-.01-.03-.01h-.03l-.04-.01h-.07v-.34h.05l.06.01h.04l.05.01.05.01.05.01.04.02.05.02.04.02.05.02.04.02.04.02.04.03.04.03.03.03.03.03.04.03.03.03.03.04.03.04.02.04.03.03.02.05.02.04.02.04.01.05.02.04.01.05.01.05v.05l.01.04v.05zm-1 .95v-.34H41.18l.03-.01.03-.01.03-.01.03-.01.03-.01.03-.01.03-.01.03-.02.03-.01.02-.02.03-.02.02-.02.02-.02.03-.02.02-.02.02-.03.01-.02.02-.02.02-.03.01-.03.01-.02.01-.03.01-.03.01-.03.01-.03v-.02l.01-.04v-.06h.34v.05l-.01.05v.05l-.01.05-.01.04-.02.05-.01.04-.02.04-.02.05-.02.04-.03.04-.02.04-.03.03-.03.04-.03.03-.03.04-.04.03-.03.03-.04.03-.04.02-.04.03-.04.02-.05.02-.04.02-.05.02-.04.01-.05.01-.05.01-.05.01-.04.01h-.11zm-.99-.95h.33v.03l.01.03v.04l.01.02v.03l.01.03.01.03.01.03.02.02.01.03.02.03.01.02.02.02.02.03.02.02.02.02.03.02.02.02.02.02.03.02.03.01.03.02.02.01.03.01.03.02h.03l.04.01.03.01.03.01h.1v.34h-.1l-.05-.01-.05-.01-.05-.01-.04-.01-.05-.02-.04-.01-.04-.02-.05-.02-.04-.02-.04-.03-.04-.02-.04-.03-.03-.03-.04-.03-.03-.04-.03-.03-.03-.04-.03-.03-.03-.04-.02-.04-.02-.04-.03-.05-.01-.04-.02-.04-.01-.05-.01-.04-.01-.05-.01-.05v-.1zm.99-.95v.34h-.06l-.04.01h-.03l-.03.01-.04.01-.03.01-.03.01-.03.01-.02.02-.03.01-.03.02-.03.02-.02.01-.02.02-.03.03-.02.02-.02.02-.02.02-.02.02-.01.03-.02.03-.01.02-.02.03-.01.02-.01.03-.01.03v.03l-.01.03v.03l-.01.03v.03h-.33v-.09l.01-.05.01-.05.01-.05.01-.04.02-.05.01-.04.03-.04.02-.05.02-.03.03-.04.03-.04.03-.04.03-.03.03-.03.04-.03.03-.03.04-.03.04-.03.04-.02.04-.02.05-.03.04-.01.04-.02.05-.02.04-.01.05-.01.05-.01h.05l.05-.01h.05z" class="fil1"/></g><g><path d="M50.55 41.55c2.27 0 4.11-1.53 4.11-3.41 0-1.89-1.84-3.41-4.11-3.41v6.82z" class="fil0"/><path id="1" d="M54.82 38.14v.19l-.02.18-.03.18-.03.18-.05.17-.06.17-.07.17-.08.16-.08.16-.1.16-.1.15-.11.14-.12.14-.13.14-.14.13-.14.12-.15.12-.15.11-.16.1-.17.1-.17.1-.18.08-.19.08-.19.07-.19.06-.2.06-.2.05-.2.04-.21.03-.22.02-.21.01-.22.01v-.34l.2-.01.21-.01.19-.02.2-.03.19-.03.19-.05.18-.05.18-.06.18-.07.17-.07.16-.08.16-.08.16-.09.15-.1.14-.1.13-.11.13-.11.13-.12.12-.12.1-.13.11-.13.09-.14.08-.14.08-.14.07-.15.06-.15.06-.15.04-.15.03-.16.03-.16.01-.17.01-.16h.33zm-4.44-3.41l.17-.17h.22l.21.02.22.02.21.03.2.04.2.05.2.05.19.07.19.07.19.08.18.08.17.09.17.1.16.11.15.11.15.12.14.12.14.13.13.13.12.15.11.14.1.15.1.15.08.16.08.17.07.17.06.17.05.17.03.18.03.18.02.18v.19h-.33l-.01-.17-.01-.16-.03-.16-.03-.16-.04-.15-.06-.16-.06-.15-.07-.14-.08-.15-.08-.13-.09-.14-.11-.13-.11-.13-.11-.12-.13-.12-.13-.11-.13-.11-.14-.1-.15-.1-.16-.09-.16-.09-.16-.08-.17-.07-.18-.06-.18-.06-.18-.05-.19-.05-.19-.04-.2-.02-.19-.02-.21-.02h-.2l.17-.17h-.34zm0 0v-.17h.17l-.17.17zm.34 6.82l-.17.17-.17-.17v-6.82h.34v6.82zm-.17.17h-.17v-.17l.17.17z" class="fil1"/></g><g><path d="M61.94 46.15c-1.93 0-3.5 1.5-3.5 3.34 0 1.85 1.57 3.35 3.5 3.35s3.5-1.5 3.5-3.35c0-1.84-1.57-3.34-3.5-3.34z" class="fil3"/><path id="1" d="M58.27 49.49l.01-.18.01-.18.03-.17.03-.17.04-.17.05-.17.06-.17.06-.15.08-.16.08-.15.09-.15.09-.14.1-.14.11-.13.12-.13.12-.12.13-.12.13-.11.14-.1.14-.1.15-.09.16-.08.15-.08.17-.07.16-.06.17-.06.18-.05.17-.04.18-.03.19-.02.18-.01.19-.01v.34l-.17.01-.17.01-.17.02-.16.03-.16.03-.16.04-.16.06-.15.05-.14.07-.15.07-.14.07-.13.08-.13.09-.13.1-.12.1-.12.1-.11.11-.1.12-.1.12-.09.12-.09.13-.08.13-.07.14-.07.14-.06.15-.05.14-.04.15-.04.16-.03.15-.02.16-.01.16-.01.16h-.34zm3.67 3.52l-.19-.01-.18-.01-.19-.02-.18-.03-.17-.04-.18-.05-.17-.06-.16-.06-.17-.07-.15-.08-.16-.08-.15-.09-.14-.1-.14-.1-.13-.11-.13-.12-.12-.12-.12-.13-.11-.13-.1-.14-.09-.14-.09-.15-.08-.15-.08-.16-.06-.16-.06-.16-.05-.17-.04-.17-.03-.17-.03-.18-.01-.18-.01-.18h.34l.01.17.01.16.02.16.03.15.04.16.04.15.05.14.06.15.07.14.07.13.08.14.09.12.09.13.1.12.1.11.11.11.12.11.12.1.13.09.13.09.13.09.14.07.15.07.14.07.15.05.16.05.16.05.16.03.16.03.17.02.17.01.17.01v.34zm3.66-3.52v.18l-.01.18-.03.18-.03.17-.04.17-.05.17-.06.16-.06.16-.08.16-.08.15-.09.15-.09.14-.11.14-.1.13-.12.13-.12.12-.13.12-.13.11-.14.1-.14.1-.15.09-.16.08-.15.08-.17.07-.16.06-.17.06-.18.05-.17.04-.18.03-.19.02-.18.01-.19.01v-.34l.17-.01.17-.01.17-.02.16-.03.16-.03.16-.05.16-.05.15-.05.14-.07.15-.07.14-.07.13-.09.13-.09.13-.09.12-.1.11-.11.11-.11.11-.11.1-.12.09-.13.09-.12.08-.14.07-.13.07-.14.05-.15.06-.14.04-.15.04-.16.03-.15.02-.16.01-.16.01-.17h.33zm-3.66-3.51l.19.01.18.01.19.02.18.03.17.04.18.05.17.06.16.06.17.07.15.08.16.08.15.09.14.1.14.1.13.11.13.12.12.12.12.13.1.13.11.14.09.14.09.15.08.15.08.16.06.15.06.17.05.17.04.17.03.17.03.17.01.18v.18h-.33l-.01-.16-.01-.16-.02-.16-.03-.15-.04-.16-.04-.15-.06-.14-.05-.15-.07-.14-.07-.14-.08-.13-.09-.13-.09-.12-.1-.12-.11-.12-.11-.11-.11-.1-.12-.1-.13-.1-.13-.09-.13-.08-.14-.07-.15-.07-.14-.07-.15-.05-.16-.06-.16-.04-.16-.03-.16-.03-.17-.02-.17-.01-.17-.01v-.34z" class="fil1"/></g><g><path fill="#f08bb2" fill-rule="nonzero" d="M64.89 58.34c-.07.73.47 1.37 1.19 1.43.73.06 1.37-.32 1.43-1.04.33-3.8-1.03-6.41-2.96-7.71-.79-.53-1.68-.84-2.59-.92-.91-.09-1.84.06-2.71.44-2.1.92-3.88 3.21-4.21 6.92-.06.72.47 1.2 1.19 1.26.72.06 1.36-.32 1.42-1.04.24-2.61 1.35-4.16 2.65-4.73.47-.21.95-.28 1.42-.24.47.04.94.21 1.36.49 1.2.82 2.05 2.43 1.81 5.14zM2.67 17.98c.07-.73-.47-1.37-1.19-1.43-.73-.06-1.37.32-1.43 1.04-.33 3.8 1.03 6.41 2.96 7.71.79.53 1.68.84 2.59.92.91.08 1.84-.06 2.7-.44 2.11-.92 3.89-3.21 4.22-6.92.06-.72-.47-1.2-1.19-1.26-.73-.06-1.36.32-1.42 1.04-.24 2.61-1.35 4.16-2.65 4.73-.47.21-.95.28-1.42.24-.47-.04-.94-.21-1.36-.49-1.2-.81-2.05-2.43-1.81-5.14z"/><path id="1" d="M66.1 59.6l-.03.34-.08-.01-.07-.01-.07-.02-.08-.02-.06-.02-.07-.03-.07-.03-.07-.03-.06-.03-.06-.04-.06-.04-.06-.05-.05-.04-.05-.05-.05-.05-.05-.06-.04-.05-.05-.06-.04-.06-.03-.06-.03-.06-.03-.07-.03-.07-.03-.06-.02-.07-.01-.08-.02-.07-.01-.07v-.07l-.01-.08v-.07l.01-.08.34.03-.01.06v.11l.01.06.01.06.01.05.01.06.02.05.02.06.02.04.02.05.02.06.03.04.03.05.04.04.03.05.04.04.04.04.04.04.04.03.04.03.05.03.04.04.05.02.05.03.05.02.06.02.05.02.05.01.06.01.06.01.06.01zm1.24-.89l.34.03-.01.08-.01.07-.02.07-.02.07-.02.07-.03.06-.03.07-.03.06-.04.06-.04.05-.04.05-.05.06-.04.04-.05.05-.06.04-.05.04-.06.04-.05.03-.06.03-.07.03-.06.03-.06.02-.07.02-.07.02-.07.01-.07.02-.07.01H66.07l.03-.34h.06l.06.01h.06l.06-.01h.06l.05-.01.06-.01.05-.01.06-.02.05-.01.05-.02.05-.02.05-.02.04-.02.05-.03.04-.03.04-.03.04-.03.03-.03.04-.04.03-.03.03-.04.03-.04.02-.04.03-.05.02-.04.02-.05.02-.05.01-.05.01-.06.01-.05.01-.06zm0 0l.01-.07-.01.07zm-2.88-7.55l.18-.28.19.13.18.14.18.14.17.16.17.16.16.17.16.17.15.19.15.19.15.19.14.21.13.21.12.23.12.22.12.24.1.24.1.25.1.26.08.27.08.27.07.28.06.29.06.29.05.3.03.31.03.31.02.33.02.33v.33l-.01.34-.02.36-.02.35-.34-.03.03-.35.01-.34.01-.33v-.33l-.01-.32-.02-.31-.03-.3-.04-.3-.04-.29-.06-.29-.06-.27-.07-.27-.07-.26-.08-.26-.09-.25-.1-.24-.1-.23-.11-.22-.12-.22-.11-.21-.13-.21-.13-.19-.14-.19-.14-.18-.15-.18-.15-.16-.15-.16-.16-.15-.16-.15-.17-.14-.17-.12-.17-.13zm-2.52-.89l.04-.34.08.01.09.01.09.01.09.01.09.02.08.01.09.02.08.02.09.02.09.02.08.02.09.02.08.03.09.03.08.02.09.03.08.03.09.04.08.03.08.03.08.04.09.04.08.04.08.04.08.04.08.04.08.04.07.05.08.04.08.05.08.05.07.05-.18.28-.08-.04-.07-.05-.07-.05-.08-.04-.07-.04-.08-.04-.07-.04-.08-.04-.07-.04-.08-.04-.08-.03-.07-.03-.08-.04-.08-.03-.08-.03-.08-.03-.08-.02-.07-.03-.08-.03-.08-.02-.08-.02-.09-.02-.08-.02-.08-.02-.08-.02-.08-.01-.08-.02-.08-.01-.09-.01-.08-.02h-.08l-.09-.01zm0 0zm-2.62.43l-.13-.31.08-.04.09-.03.08-.04.09-.03.08-.03.09-.03.08-.03.09-.02.08-.03.09-.02.09-.02.09-.02.08-.02.09-.02.09-.02.08-.01.09-.01.09-.02.09-.01.09-.01H61l.09-.01.09-.01h.53l.09.01h.09l.09.01-.04.34-.08-.01-.08-.01h-.58l-.08.01h-.09l-.08.01-.08.01-.08.01-.09.01-.08.01-.08.02-.09.01-.08.02-.08.02-.08.02-.08.02-.08.02-.09.02-.08.03-.08.02-.08.03-.08.03-.08.03-.08.03-.08.03-.08.04zm-4.11 6.77l-.34-.03.04-.35.04-.34.06-.33.06-.32.06-.32.08-.3.08-.3.09-.29.1-.28.1-.28.11-.26.12-.26.13-.25.13-.24.13-.23.14-.23.15-.21.15-.21.16-.2.16-.19.16-.19.17-.17.18-.17.18-.16.18-.15.18-.14.19-.14.19-.12.2-.12.2-.11.19-.1.21-.09.13.31-.19.08-.19.1-.18.1-.19.11-.18.12-.18.13-.17.13-.17.15-.17.15-.17.16-.16.16-.16.18-.15.18-.15.19-.14.2-.14.21-.14.21-.13.22-.12.24-.12.24-.12.24-.1.26-.1.26-.1.27-.08.28-.08.29-.08.3-.06.31-.06.31-.05.32-.05.33-.03.34zm-.34-.03l.01-.04-.01.04zm1.38 1.11l-.03.34-.07-.01-.08-.01-.07-.01-.07-.02-.07-.02-.06-.02-.07-.02-.06-.03-.06-.02-.07-.04-.06-.03-.05-.04-.06-.03-.05-.04-.05-.05-.05-.05-.04-.04-.04-.05-.05-.06-.03-.05-.04-.06-.03-.06-.03-.06-.02-.06-.02-.07-.02-.07-.01-.06-.01-.07-.01-.08V57.44l.34.03v.06l-.01.06.01.05v.05l.01.06.01.05.01.05.02.04.02.05.02.04.02.05.02.04.03.04.03.03.03.04.03.04.04.03.04.03.03.03.05.03.04.03.05.03.04.02.05.02.05.02.05.02.06.02.05.01.06.02.06.01.06.01h.06zm1.23-.88l.34.03-.01.07-.01.08-.02.07-.02.07-.02.06-.03.07-.02.06-.04.06-.04.06-.03.06-.05.05-.04.05-.05.05-.05.04-.05.04-.05.04-.06.04-.06.04-.06.03-.06.03-.06.02-.07.02-.06.02-.07.02-.07.02-.07.01-.07.01h-.07l-.07.01h-.07l-.08-.01h-.07l.03-.34.06.01h.18l.05-.01.06-.01.06-.01.05-.01.05-.01.06-.02.05-.02.05-.02.04-.02.05-.02.04-.03.04-.02.04-.03.04-.03.04-.04.03-.03.03-.04.03-.04.03-.04.03-.04.02-.04.03-.05.01-.04.02-.05.02-.05.01-.06.01-.05v-.06zm0 0l.01-.04-.01.04zm2.76-4.88l.13.31-.11.06-.12.05-.11.07-.11.07-.11.07-.11.09-.11.08-.1.1-.11.09-.1.11-.1.11-.1.11-.09.13-.09.12-.09.14-.09.14-.08.14-.08.15-.08.16-.08.16-.07.17-.06.18-.07.18-.06.19-.05.19-.05.2-.05.21-.04.21-.04.22-.04.23-.03.23-.02.24-.34-.03.03-.25.03-.24.03-.23.04-.23.05-.22.05-.22.05-.21.06-.2.06-.2.07-.19.07-.18.08-.18.07-.18.09-.16.08-.16.09-.16.09-.15.1-.14.1-.14.1-.13.11-.12.11-.12.11-.12.11-.1.11-.11.12-.09.12-.09.12-.08.12-.08.13-.07.13-.07.13-.06zm.13.31l.41-.18-.41.18zm1.37-.56l-.03.34h-.04l-.05-.01H61.29l-.04.01h-.04l-.05.01h-.04l-.04.01h-.04l-.04.01-.05.01-.04.01-.04.01-.04.01-.04.01-.04.01-.05.01-.04.01-.04.02-.04.01-.04.02-.04.01-.05.02-.04.01-.04.02-.13-.31.04-.02.05-.02.04-.01.05-.02.05-.02.04-.01.05-.02.05-.01.04-.02.05-.01.05-.01.04-.01.05-.01.05-.01.05-.01.04-.01.05-.01h.05l.04-.01.05-.01h.1l.04-.01h.34l.04.01h.05zm-.03.34zm1.46.18l-.19.28-.03-.02-.04-.03-.04-.02-.04-.02-.04-.02-.03-.03-.04-.02-.04-.02-.04-.02-.04-.02-.04-.01-.04-.02-.04-.02-.04-.01-.04-.02-.04-.01-.04-.02-.04-.01-.04-.02-.04-.01-.04-.01-.04-.01-.04-.01-.04-.01-.04-.01-.05-.01h-.04l-.04-.01-.04-.01h-.04l-.04-.01h-.04l.03-.34.04.01h.05l.05.01h.04l.05.01.05.01.04.01.05.01.05.01.04.01.05.01.04.02.05.01.04.02.05.01.05.02.04.01.05.02.04.02.04.02.05.02.04.02.05.02.04.02.05.02.04.03.04.02.05.03.04.02.04.03.04.03.04.02zm1.89 5.3l-.34-.03.02-.25.01-.24.01-.23v-.23l-.01-.22-.01-.22-.01-.21-.02-.2-.03-.2-.03-.19-.04-.18-.04-.18-.04-.17-.05-.17-.06-.16-.05-.16-.06-.15-.07-.14-.07-.14-.07-.13-.08-.13-.08-.13-.08-.11-.09-.12-.09-.11-.09-.1-.09-.1-.1-.09-.1-.09-.1-.08-.11-.08-.11-.08.19-.28.12.08.12.09.11.09.11.1.1.11.11.1.1.11.1.12.09.13.09.12.09.14.08.14.08.14.07.15.07.16.07.16.06.17.06.17.05.18.05.18.04.19.04.19.04.2.02.21.02.21.02.22.01.23.01.23-.01.23v.25l-.02.24-.01.26zm-.34-.03v-.05.05zM1.46 16.72l.03-.34.08.01.07.01.07.02.08.02.06.02.07.03.07.03.07.03.06.03.06.04.06.04.06.05.05.04.05.05.05.05.05.06.04.05.05.06.03.06.04.06.03.06.03.07.03.07.02.06.03.07.01.08.02.07.01.07v.07l.01.08v.07l-.01.08-.34-.03.01-.06v-.11l-.01-.06-.01-.06-.01-.05-.01-.06-.02-.05-.02-.06-.02-.04-.02-.05-.03-.06-.02-.04-.03-.05-.04-.04-.03-.05-.04-.04-.04-.04-.04-.04-.04-.03-.04-.03-.05-.03-.04-.04-.05-.02-.05-.03-.05-.02-.06-.02-.05-.02-.06-.01-.05-.01-.06-.01-.06-.01zm-1.24.89l-.34-.03.01-.08.01-.07.02-.07.02-.07.02-.07.03-.06.03-.07.03-.06.04-.06.04-.05.04-.05.04-.06.05-.05.05-.04.05-.04.06-.04.05-.04.06-.03.06-.03.07-.03.06-.03.06-.02.07-.02.07-.02.07-.01.07-.02.07-.01H1.49l-.03.34H1.4l-.06-.01h-.06l-.06.01h-.06l-.05.01-.06.01-.06.01-.05.01-.05.02-.05.02-.05.02-.05.02-.04.02-.05.03-.04.03-.04.03-.04.03-.04.03-.03.03-.03.04-.03.04-.03.04-.03.04-.02.05-.02.04-.02.05-.02.05-.01.05-.01.05-.01.06-.01.06zm0 0l-.01.06.01-.06zm2.88 7.55l-.18.28-.19-.13-.18-.14-.18-.14-.17-.16-.17-.16-.16-.17-.16-.17-.15-.19-.15-.19-.15-.19-.14-.21-.13-.21-.12-.23-.12-.22-.12-.24-.1-.24-.1-.25-.1-.26-.08-.27-.08-.27-.07-.28-.06-.29-.06-.29-.05-.3-.03-.31-.03-.31-.02-.33-.02-.32v-.34l.01-.34.02-.35.02-.36.34.03-.03.35-.01.34-.01.33v.33l.01.32.02.31.03.3.04.3.04.29.06.29.06.27.06.27.08.26.08.26.09.25.1.24.1.23.11.22.11.22.12.21.13.21.13.19.14.19.14.18.15.18.15.16.15.16.16.15.16.15.17.14.17.12.17.13zm2.52.89l-.04.34-.08-.01-.09-.01-.09-.01-.09-.01-.08-.02-.09-.01-.09-.02-.09-.02-.08-.02-.09-.02-.08-.02-.09-.02-.08-.03-.09-.03-.08-.02-.09-.03-.08-.03-.09-.03-.08-.04-.08-.03-.08-.04-.09-.04-.08-.04-.08-.04-.08-.04-.08-.04-.08-.04-.08-.05-.07-.05-.08-.04-.08-.05-.07-.05.18-.28.08.04.07.05.07.05.07.04.08.04.07.04.08.04.08.04.07.04.08.04.07.03.08.03.08.04.08.03.08.03.07.03.08.02.08.03.08.03.08.02.09.02.07.02.09.02.08.02.08.02.08.01.08.02.08.01.09.02.08.01.08.01h.09zm2.62-.43l.13.31-.08.04-.09.03-.08.04-.09.03-.08.03-.09.03-.08.03-.09.02-.08.03-.09.02-.09.02-.09.02-.08.02-.09.02-.09.02-.09.01-.08.01-.09.02-.09.01-.09.01h-.08l-.09.01-.09.01h-.53l-.09-.01h-.09l-.09-.01.04-.34.08.01.08.01H5.95l.08.01h.08l.09-.01h.16l.08-.01h.09l.08-.01.08-.01.08-.01.09-.01.08-.01.08-.02.08-.01.09-.02.08-.02.08-.02.08-.02.08-.02.08-.02.09-.03.08-.02.08-.03.08-.03.08-.03.08-.03.08-.03.08-.04zm4.11-6.77l.34.03-.04.35-.04.34-.06.33-.06.32-.06.32-.08.3-.08.3-.09.29-.1.28-.1.28-.12.26-.11.26-.13.25-.13.24-.13.23-.14.23-.15.21-.15.21-.16.2-.16.19-.16.19-.17.17-.18.17-.18.16-.18.15-.18.14-.19.14-.19.12-.2.12-.2.11-.19.1-.21.09-.13-.31.19-.08.19-.1.18-.1.19-.11.18-.12.18-.13.17-.13.17-.15.17-.15.17-.16.16-.16.16-.18.15-.18.15-.19.14-.2.14-.21.14-.21.13-.22.12-.24.12-.24.11-.24.11-.26.1-.26.09-.27.09-.28.08-.29.08-.3.06-.31.06-.31.05-.32.05-.33.03-.34zm.34.03l-.01.04.01-.04zm-1.38-1.11l.03-.34.07.01.08.01.07.01.07.02.07.02.06.02.07.02.06.03.06.03.06.03.06.03.06.04.06.03.05.04.05.05.05.05.04.04.04.05.04.06.04.05.04.06.03.06.03.06.02.06.02.07.02.07.01.06.01.07.01.08V18.88l-.34-.03V18.63l-.01-.06-.01-.05-.01-.05-.02-.04-.02-.05-.02-.04-.02-.05-.02-.04-.03-.04-.03-.03-.03-.04-.04-.04-.03-.03-.04-.03-.04-.03-.04-.03-.04-.03-.04-.03-.05-.02-.05-.02-.05-.02-.05-.02-.06-.02-.05-.01-.06-.02-.06-.01-.06-.01h-.06zm0 0zm-1.23.88l-.34-.03.01-.07.01-.08.02-.07.02-.07.02-.07.02-.06.03-.06.04-.06.03-.06.04-.06.05-.05.04-.05.05-.05.05-.04.05-.05.05-.03.06-.04.06-.03.06-.04.06-.02.06-.03.07-.02.06-.02.07-.02.07-.02.07-.01.07-.01h.14l.07-.01.08.01h.07l-.03.34-.06-.01h-.12l-.06.01h-.05l-.06.01-.06.01-.05.01-.06.01-.05.02-.05.02-.05.01-.04.03-.05.02-.04.03-.05.02-.04.03-.03.03-.04.04-.03.03-.03.04-.04.04-.02.03-.03.05-.02.04-.03.05-.01.04-.02.05-.02.05-.01.06-.01.05v.06zm0 0l-.01.04.01-.04zm-2.76 4.88l-.13-.31.11-.06.12-.05.11-.07.11-.07.11-.07.11-.09.11-.08.1-.09.11-.1.1-.11.1-.11.09-.11.1-.13.09-.12.09-.14.09-.14.08-.14.08-.15.08-.16.07-.16.07-.17.07-.18.07-.18.06-.19.05-.19.05-.2.05-.21.04-.21.04-.22.04-.23.02-.23.03-.24.34.03-.03.25-.03.24-.03.23-.04.23-.05.22-.05.22-.05.21-.06.2-.06.2-.07.19-.07.18-.08.18-.07.17-.09.17-.08.16-.09.16-.1.15-.09.14-.1.14-.1.13-.11.13-.11.11-.11.12-.11.11-.11.1-.12.09-.12.09-.12.08-.13.08-.12.07-.13.07-.13.06zm-.13-.31l-.24.1.24-.1zm-1.37.56l.03-.34.04.01H6.27l.04-.01h.04l.04-.01h.05l.04-.01h.04l.04-.01.04-.01.05-.01.04-.01.04-.01.04-.01.04-.01.05-.01.04-.01.04-.02.04-.01.04-.02.04-.01.04-.02.05-.01.04-.02.13.31-.04.02-.05.02-.04.01-.05.02-.05.02-.04.01-.05.02-.05.01-.04.02-.05.01-.05.01-.04.01-.05.01-.05.01-.05.01-.04.01-.05.01h-.05l-.05.01h-.04l-.05.01h-.05l-.04.01h-.33l-.05-.01h-.05zm-1.43-.52l.18-.28.04.02.04.03.04.02.04.02.03.02.04.03.04.02.04.02.04.02.04.02.04.02.04.01.04.02.04.01.04.02.04.02.04.01.04.01.04.02.04.01.04.01.04.01.04.01.04.01.05.01.04.01h.04l.04.01.04.01h.04l.04.01h.04l-.03.34-.05-.01h-.04l-.05-.01h-.05l-.04-.01-.05-.01-.05-.01-.04-.01-.05-.01-.04-.01-.05-.01-.05-.02-.04-.01-.04-.01-.05-.02-.05-.02-.04-.01-.05-.02-.04-.02-.04-.02-.05-.02-.04-.02-.05-.02-.04-.02-.05-.02-.04-.03-.04-.02-.05-.03-.04-.02-.04-.03-.04-.03-.04-.02zm0 0zm-1.89-5.3l.34.03-.02.25-.01.24-.01.23v.23l.01.22.01.22.01.21.02.2.03.2.03.19.04.18.04.18.04.17.05.17.05.16.06.16.06.15.07.14.07.14.07.13.08.13.08.13.08.11.09.12.09.11.09.1.09.1.1.09.1.09.1.08.11.08.1.08-.18.28-.12-.08-.12-.09-.11-.09-.11-.1-.1-.1-.11-.11-.1-.11-.1-.12-.09-.12-.09-.13-.09-.14-.08-.14-.08-.14-.07-.15-.08-.16-.06-.16-.06-.17-.06-.17-.06-.18-.04-.18-.04-.19-.04-.19-.04-.2-.02-.21-.03-.21-.01-.22-.01-.23-.01-.23.01-.23v-.25l.02-.24.01-.26zm.34.03v.05-.05z" class="fil1"/></g></g></svg>