<svg xmlns="http://www.w3.org/2000/svg" width="117" height="57" fill-rule="evenodd" clip-rule="evenodd" image-rendering="optimizeQuality" shape-rendering="geometricPrecision" text-rendering="geometricPrecision" viewBox="0 0 117.12 56.69"><defs><style>.fil4{fill:#f5b2b6}.fil5{fill:#f08bb2}.fil0{fill:#c4d985}.fil2{fill:#a1b567}.fil3{fill:#99cfba}.fil1{fill:#2b2a29;fill-rule:nonzero}</style></defs><g id="Слой_x0020_1"><path d="M67.12 42.03h48.68c.53 0 .97.43.97.96v12.42c0 .53-.44.96-.97.96H67.12c-.54 0-.97-.43-.97-.96V42.99c0-.53.43-.96.97-.96z" class="fil0"/><path id="1" d="M115.8 42.2H67.12v-.34h48.68v.34zm1.13.79h-.33v-.04l-.01-.04v-.04l-.01-.03-.01-.05-.01-.03-.01-.04-.02-.04-.01-.03-.02-.04-.02-.03-.02-.03-.02-.03-.03-.03-.02-.03-.03-.03-.03-.03-.02-.02-.03-.02-.04-.03-.03-.02-.03-.02-.04-.01-.03-.02-.04-.02-.03-.01-.04-.01-.04-.01-.04-.01h-.12v-.34h.11l.06.01.06.01.05.01.06.02.05.02.05.02.05.02.05.03.05.02.04.03.05.03.04.04.04.03.04.04.04.04.03.04.04.05.03.04.03.04.03.05.02.05.02.05.02.05.02.06.02.05.01.05.01.06.01.06v.11zm-.33 12.42V42.99h.33v12.42h-.33zm-.8 1.13v-.33l.04-.01h.08l.04-.01.04-.01.04-.01.03-.01.04-.02.03-.01.04-.02.03-.02.03-.02.04-.02.03-.03.02-.02.03-.03.03-.03.02-.03.03-.03.02-.03.02-.03.02-.03.02-.04.01-.03.02-.04.01-.04.01-.03.01-.04.01-.04v-.04l.01-.04v-.04h.33v.11l-.01.06-.01.06-.01.05-.02.05-.02.06-.02.05-.02.05-.02.05-.03.05-.03.04-.03.05-.04.04-.03.04-.04.04-.04.04-.04.03-.04.04-.05.03-.04.03-.05.02-.05.03-.05.02-.05.02-.05.02-.06.02-.05.01-.06.01-.05.01h-.12zm-48.68-.33h48.68v.33H67.12v-.33zm-1.14-.8h.34v.08l.01.04v.04l.01.04.01.03.02.04.01.04.02.03.01.04.02.03.02.03.03.03.02.03.03.03.02.03.03.03.03.02.03.03.03.02.03.02.04.02.03.02.04.01.03.02.04.01.04.01.03.01.05.01h.08l.04.01v.33H67l-.06-.01-.05-.01-.06-.01-.05-.02-.05-.02-.06-.02-.05-.02-.04-.03-.05-.02-.05-.03-.04-.03-.05-.04-.04-.03-.04-.04-.03-.04-.04-.04-.03-.04-.03-.05-.03-.04-.03-.05-.03-.05-.02-.05-.02-.05-.02-.06-.01-.05-.02-.05-.01-.06v-.06l-.01-.05v-.06zm.34-12.42v12.42h-.34V42.99h.34zm.8-1.13v.34H67l-.04.01-.04.01-.04.01-.04.01-.03.02-.04.02-.03.01-.03.02-.04.02-.03.03-.03.02-.03.02-.03.03-.02.03-.03.03-.02.03-.03.03-.02.03-.02.03-.01.04-.02.03-.01.04-.02.04-.01.03-.01.05v.03l-.01.04v.08h-.34v-.05l.01-.06v-.06l.01-.06.02-.05.01-.05.02-.06.02-.05.02-.05.03-.05.03-.05.03-.04.03-.04.03-.05.04-.04.03-.04.04-.04.04-.03.05-.04.04-.03.05-.03.05-.02.05-.03.04-.02.06-.02.05-.02.05-.02.06-.01.05-.01.06-.01h.12z" class="fil1"/><path d="M68.43 39.07h5.96c.18 0 .33.15.33.34v3.07c0 .19-.15.34-.33.34h-5.96c-.19 0-.34-.15-.34-.34v-3.07c0-.19.15-.34.34-.34zm40.09 0h5.96c.18 0 .33.15.33.34v3.07c0 .19-.15.34-.33.34h-5.96c-.19 0-.34-.15-.34-.34v-3.07c0-.19.15-.34.34-.34zm-13.37 0h5.96c.19 0 .34.15.34.34v3.07c0 .19-.15.34-.34.34h-5.96c-.18 0-.33-.15-.33-.34v-3.07c0-.19.15-.34.33-.34zm-13.41 0h5.96c.19 0 .34.15.34.34v3.07c0 .19-.15.34-.34.34h-5.96c-.18 0-.34-.15-.34-.34v-3.07c0-.19.16-.34.34-.34z" class="fil0"/><path id="1" d="M74.39 39.24h-5.96v-.34h5.96v.34zm.5.17h-.34v-.06h-.01v-.01l-.01-.01v-.02l-.01-.01h-.01v-.01l-.01-.01h-.01v-.01h-.01v-.01h-.01l-.02-.01h-.01l-.01-.01h-.04v-.34h.05l.03.01h.02l.02.01h.02l.03.01.02.01.03.01.02.01.02.01.02.02.02.01.02.02.02.01.01.02.02.01.02.03.01.02.01.01.02.03.01.02.01.01.01.03.01.03.01.02.01.02v.02l.01.03v.08zm-.34 3.07v-3.07h.34v3.07h-.34zm-.16.51v-.34h.03l.01-.01h.02l.01-.01h.01l.01-.01.01-.01h.01l.01-.01v-.01h.01v-.01l.01-.01.01-.02v-.01l.01-.01v-.05h.34v.08l-.01.03v.02l-.01.02-.01.02-.01.03-.01.03-.01.01-.01.02-.02.03-.01.01-.01.02-.02.02-.02.02-.01.01-.02.02-.02.02-.02.01-.02.01-.02.02-.02.01-.03.01-.02.01h-.03l-.02.01-.02.01h-.02l-.03.01h-.05zm-5.96-.34h5.96v.34h-5.96v-.34zm-.51-.17h.34v.05h.01v.02h.01v.02l.01.01.01.01.01.01.01.01.02.01v.01h.01l.01.01h.02l.01.01h.04v.34h-.03l-.03-.01h-.05l-.02-.01-.02-.01h-.02l-.03-.01-.02-.01-.02-.01-.03-.02-.02-.01-.01-.01-.02-.02-.03-.02-.01-.01-.02-.02-.01-.02-.02-.02-.01-.01-.01-.02-.02-.03-.01-.02-.01-.02-.01-.03-.01-.02v-.02l-.01-.02v-.03l-.01-.03v-.05zm.34-3.07v3.07h-.34v-3.07h.34zm.17-.51v.34h-.05l-.01.01h-.01l-.02.01-.02.01v.01l-.01.01-.01.01h-.01v.01l-.01.01v.01l-.01.01v.01l-.01.02v.04h-.34v-.06l.01-.02v-.03l.01-.02v-.02l.01-.02.01-.03.01-.02.01-.02.02-.03.01-.02.01-.01.02-.02.01-.03.02-.01.01-.02.03-.01.02-.02.01-.01.02-.02.03-.01.01-.01.03-.01.03-.01.02-.01h.02l.02-.01h.03l.02-.01h.06zm46.05.34h-5.96v-.34h5.96v.34zm.5.17h-.34v-.06h-.01v-.02h-.01v-.02l-.01-.01h-.01l-.01-.01-.01-.01v-.01l-.02-.01-.02-.01h-.01l-.01-.01h-.04v-.34h.05l.03.01h.02l.02.01h.02l.03.01.03.01.02.01.01.01.03.01.02.02.02.01.02.02.02.01.01.02.02.01.02.03.01.02.01.01.02.02.01.03.01.02.01.02.01.03.01.02v.02l.01.02v.03l.01.02v.06zm-.34 3.07v-3.07h.34v3.07h-.34zm-.16.51v-.34h.03l.01-.01h.02l.01-.01h.01v-.01l.02-.01.01-.01.01-.01.01-.01.01-.01.01-.02v-.01l.01-.01v-.05h.34v.05l-.01.03v.03l-.01.02v.02l-.01.02-.01.03-.01.02-.01.02-.02.03-.01.02-.01.01-.01.02-.02.02-.02.02-.01.01-.02.02-.02.02-.02.01-.02.01-.03.02-.02.01-.01.01-.03.01h-.03l-.02.01-.02.01h-.05l-.03.01h-.02zm-5.96-.34h5.96v.34h-5.96v-.34zm-.51-.17h.34v.05h.01v.02l.01.02.01.01.01.01.01.01.01.01.01.01.01.01h.01l.01.01h.02l.01.01h.04v.34h-.06l-.02-.01h-.03l-.02-.01-.02-.01h-.03l-.02-.01-.02-.01-.02-.01-.03-.02-.02-.01-.01-.01-.02-.02-.03-.02-.01-.01-.02-.02-.02-.02-.01-.02-.01-.01-.02-.03-.01-.02-.01-.01-.01-.03-.01-.03-.01-.02v-.02l-.01-.02v-.03l-.01-.03v-.05zm.34-3.07v3.07h-.34v-3.07h.34zm.17-.51v.34h-.05l-.01.01h-.01l-.01.01h-.01l-.01.01h-.01v.01l-.01.01-.01.01h-.01v.01l-.01.01v.01l-.01.01v.01l-.01.02v.04h-.34v-.06l.01-.02v-.03l.01-.02v-.02l.01-.02.01-.03.01-.03.01-.01.01-.02.02-.03.01-.01.01-.02.02-.03.02-.01.01-.02.03-.01.02-.02.01-.01.03-.02.02-.01.01-.01.03-.01.02-.01.03-.01h.02l.02-.01h.03l.02-.01h.06zm-7.41.34h-5.96v-.34h5.96v.34zm.51.17h-.34v-.04l-.01-.02v-.01l-.01-.01-.01-.01v-.01l-.01-.01v-.01h-.01l-.01-.01-.02-.01v-.01h-.01l-.01-.01h-.02l-.01-.01h-.04v-.34h.05l.03.01h.02l.03.01h.02l.02.01.03.01.03.01.01.01.02.01.03.02.01.01.02.02.03.01.01.02.02.02.01.01.02.02.01.03.02.02v.01l.02.03.01.02.01.02.01.03v.02l.01.02v.03l.01.02v.06zm-.34 3.07v-3.07h.34v3.07h-.34zm-.17.51v-.34h.03l.01-.01h.03l.01-.01.01-.01.02-.01.01-.01.01-.01.01-.01v-.01h.01v-.02h.01v-.02h.01v-.05h.34v.05l-.01.03v.03l-.01.02v.02l-.01.03-.01.02-.01.02-.01.03-.02.01-.01.03-.01.02-.02.02-.01.01-.02.02-.01.01-.03.02-.02.02-.01.01-.02.01-.03.02-.02.01-.02.01-.03.01h-.02l-.02.01-.03.01h-.05l-.02.01h-.03zm-5.96-.34h5.96v.34h-5.96v-.34zm-.5-.17h.33v.02h.01v.03l.01.01v.01l.01.02.01.01v.01h.01v.01l.01.01h.01l.01.01.01.01h.01l.01.01h.02l.01.01h.03v.34h-.02l-.03-.01h-.05l-.02-.01-.03-.01h-.02l-.03-.01-.02-.01-.02-.01-.02-.02-.02-.01-.02-.01-.02-.02-.02-.02-.01-.01-.02-.02-.02-.02-.01-.02-.01-.01-.02-.02-.01-.03-.01-.02-.01-.02-.01-.03-.01-.02-.01-.02v-.02l-.01-.03v-.08zm.33-3.07v3.07h-.33v-3.07h.33zm.17-.51v.34h-.04l-.01.01h-.02l-.01.01h-.01l-.01.01-.01.01-.01.01v.01h-.01l-.01.01v.01l-.01.01v.02h-.01v.04h-.01v.02h-.33v-.08l.01-.03v-.02l.01-.02.01-.02.01-.03.01-.02.01-.02.01-.03.02-.02.01-.01.01-.02.02-.03.02-.01.01-.02.02-.01.02-.02.02-.01.02-.02.02-.01.02-.01.02-.01.03-.01.02-.01h.03l.02-.01h.02l.03-.01h.05zm-7.45.34h-5.96v-.34h5.96v.34zm.51.17h-.34v-.04h-.01v-.03l-.01-.01-.01-.01v-.01l-.01-.01v-.01h-.01l-.01-.01-.02-.01v-.01h-.01l-.01-.01h-.02l-.01-.01h-.04v-.34h.05l.03.01h.02l.03.01h.02l.02.01.03.01.03.01.01.01.02.01.03.02.01.01.02.02.02.01.02.02.02.02.01.01.01.02.02.03.02.02v.01l.02.03.01.02.01.02v.03l.01.02.01.02v.03l.01.02v.06zm-.34 3.07v-3.07h.34v3.07h-.34zm-.17.51v-.34h.03l.01-.01h.03v-.01h.01l.01-.01.02-.01.01-.01.01-.01.01-.01v-.01h.01v-.02h.01v-.02l.01-.02v-.03h.34v.03l-.01.02v.06l-.01.02-.01.02v.03l-.01.02-.01.02-.02.03-.01.01-.01.03-.02.02-.01.02-.01.01-.02.02-.02.01-.02.02-.02.02-.01.01-.02.01-.03.02-.02.01-.02.01-.03.01h-.02l-.02.01-.03.01h-.05l-.02.01h-.03zm-5.96-.34h5.96v.34h-5.96v-.34zm-.5-.17h.33v.02l.01.01v.03l.01.01v.01l.01.01v.01l.01.01h.01l.01.01v.01h.01l.01.01.01.01h.01l.01.01h.02l.01.01h.03v.34h-.02l-.03-.01h-.05l-.02-.01-.03-.01h-.02l-.03-.01-.02-.01-.02-.01-.02-.02-.02-.01-.02-.01-.02-.02-.02-.02-.02-.01-.01-.02-.02-.01-.01-.02-.02-.02-.01-.03-.01-.01-.01-.03-.01-.02-.01-.02-.01-.03-.01-.02v-.02l-.01-.03v-.08zm.33-3.07v3.07h-.33v-3.07h.33zm.17-.51v.34h-.04l-.01.01h-.02l-.01.01h-.01v.01l-.01.01h-.01v.01h-.01l-.01.01-.01.01v.01l-.01.01v.01l-.01.01v.02l-.01.01v.03h-.33v-.08l.01-.03v-.02l.01-.02.01-.03.01-.02.01-.02.01-.03.01-.01.01-.02.02-.03.01-.02.02-.01.01-.02.02-.02.02-.01.02-.02.02-.01.02-.02.02-.01.02-.01.02-.01.03-.01.02-.01h.03l.02-.01h.02l.03-.01h.05z" class="fil1"/><path d="M94.16 17.66h21.82c.53 0 .97.43.97.96v12.42c0 .53-.44.96-.97.96H94.16c-.53 0-.96-.43-.96-.96V18.62c0-.53.43-.96.96-.96z" class="fil2"/><path id="1" d="M115.98 17.82H94.16v-.33h21.82v.33zm1.14.8h-.34v-.08l-.01-.04-.01-.04-.01-.04-.01-.03-.01-.04-.02-.04-.01-.03-.02-.04-.02-.03-.02-.03-.02-.03-.02-.03-.03-.03-.03-.03-.02-.03-.03-.02-.03-.02-.04-.03-.03-.02-.03-.02-.03-.02-.04-.01-.04-.02-.03-.01-.04-.01-.04-.01-.04-.01h-.08l-.04-.01v-.33h.12l.05.01.06.01.05.01.06.02.05.02.05.02.05.02.05.02.05.03.05.03.04.03.04.04.04.03.04.04.04.04.04.04.03.05.03.04.03.04.03.05.02.05.03.05.02.05.01.06.02.05.01.06.01.05.01.06v.06l.01.05zm-.34 12.42V18.62h.34v12.42h-.34zm-.8 1.13v-.34h.12l.04-.01.04-.01.04-.01.03-.01.04-.02.04-.01.03-.02.03-.02.03-.02.04-.03.03-.02.03-.03.02-.02.03-.03.03-.03.02-.03.02-.03.02-.03.02-.03.02-.04.01-.03.02-.04.01-.04.01-.03.01-.04.01-.04.01-.04v-.08h.34l-.01.05v.06l-.01.06-.01.05-.01.06-.02.05-.01.06-.02.05-.03.05-.02.05-.03.04-.03.05-.03.04-.03.05-.04.04-.04.04-.04.04-.04.03-.04.03-.04.04-.05.03-.05.02-.05.03-.05.02-.05.02-.05.02-.06.02-.05.01-.06.01-.05.01h-.12zm-21.82-.34h21.82v.34H94.16v-.34zm-1.13-.79h.34v.12l.01.04.01.04.01.03.01.04.02.04.01.03.02.04.02.03.02.03.03.03.02.03.02.03.03.03.03.02.03.03.03.02.03.03.03.02.03.02.04.02.03.01.04.02.04.01.04.01.03.01.04.01h.12v.34h-.11l-.06-.01-.06-.01-.05-.01-.05-.02-.06-.02-.05-.02-.05-.02-.05-.03-.04-.02-.05-.03-.04-.04-.05-.03-.04-.03-.04-.04-.04-.04-.03-.04-.04-.05-.03-.04-.03-.05-.02-.04-.03-.05-.02-.05-.02-.05-.02-.06-.02-.05-.01-.06-.01-.05-.01-.06v-.11zm.34-12.42v12.42h-.34V18.62h.34zm.79-1.13v.33l-.04.01h-.08l-.04.01-.03.01-.04.01-.04.01-.04.02-.03.01-.04.02-.03.02-.03.02-.03.03-.03.02-.03.02-.03.03-.03.03-.02.03-.02.03-.03.03-.02.03-.02.03-.02.04-.01.03-.02.04-.01.04-.01.03-.01.04-.01.04v.12h-.34v-.11l.01-.06.01-.05.01-.06.02-.05.02-.06.02-.05.02-.05.03-.05.02-.05.03-.04.03-.04.04-.05.03-.04.04-.04.04-.04.04-.03.05-.04.04-.03.05-.03.04-.03.05-.02.05-.02.05-.02.06-.02.05-.02.05-.01.06-.01.06-.01h.11z" class="fil1"/><path d="M95.47 14.7h5.97c.18 0 .33.15.33.33v3.08c0 .19-.15.34-.33.34h-5.97c-.18 0-.33-.15-.33-.34v-3.08c0-.18.15-.33.33-.33zm13.32 0h5.96c.19 0 .34.15.34.33v3.08c0 .19-.15.34-.34.34h-5.96c-.19 0-.34-.15-.34-.34v-3.08c0-.18.15-.33.34-.33z" class="fil2"/><path id="1" d="M101.44 14.87h-5.97v-.34h5.97v.34zm.5.16h-.34v-.05h-.01v-.02h-.01v-.02h-.01v-.01l-.01-.01-.01-.01h-.01l-.01-.01-.01-.01-.01-.01h-.02l-.01-.01h-.04v-.34h.05l.03.01h.02l.02.01h.02l.03.01.02.01.02.01.03.01.02.02.02.01.01.01.03.02.02.01.02.02.01.02.01.01.02.02.01.02.02.02.01.02.01.03.01.02.01.02.01.03.01.02v.04l.01.03v.05zm-.34 3.08v-3.08h.34v3.08h-.34zm-.16.51v-.34h.03l.01-.01h.02l.02-.01.01-.01.01-.01.01-.01.01-.01h.01v-.01l.01-.01v-.01l.01-.01v-.01l.01-.01v-.05h.34v.05l-.01.03v.05l-.01.02-.01.03-.01.02-.01.02-.01.03-.01.01-.01.02-.02.03-.02.01-.01.02-.01.02-.02.01-.02.02-.03.02-.01.01-.02.01-.02.02h-.02l-.03.02-.02.01h-.03l-.02.01-.02.01h-.05l-.03.01h-.02zm-5.97-.34h5.97v.34h-5.97v-.34zm-.5-.17h.34v.05l.01.01v.01l.01.01v.01l.01.01v.01h.01l.01.01.01.01.01.01.01.01.02.01h.02l.01.01h.03v.34h-.02l-.03-.01h-.05l-.02-.01-.02-.01h-.03l-.02-.01-.03-.02h-.02l-.02-.02-.02-.01-.01-.01-.03-.02-.02-.02-.02-.01-.01-.02-.01-.02-.02-.01-.02-.03-.01-.02-.01-.01-.01-.03-.01-.02-.01-.02-.01-.03-.01-.02v-.05l-.01-.03v-.05zm.34-3.08v3.08h-.34v-3.08h.34zm.16-.5v.34h-.04l-.01.01h-.02l-.01.01-.01.01-.01.01h-.01l-.01.01-.01.01v.01h-.01v.02h-.01v.02h-.01v.05h-.34v-.05l.01-.03v-.04l.01-.02.01-.03.01-.02.01-.02.01-.03.01-.02.02-.02.01-.02.02-.02.01-.01.01-.02.02-.02.02-.01.03-.02.01-.01.02-.01.02-.02.03-.01.02-.01.02-.01.03-.01h.02l.02-.01h.02l.03-.01h.05zm19.28.34h-5.96v-.34h5.96v.34zm.5.16h-.33v-.02l-.01-.01v-.03h-.01v-.02h-.01l-.01-.02-.01-.01-.01-.01-.01-.01h-.01l-.01-.01-.01-.01h-.02l-.01-.01h-.04v-.34h.05l.03.01h.02l.03.01h.02l.02.01.03.01.02.01.02.01.02.01.02.02.02.01.02.02.02.01.02.02.01.01.02.03.02.02.01.01.01.02.01.03.01.01.01.03.02.02v.03l.01.02v.02l.01.02v.08zm-.33 3.08v-3.08h.33v3.08h-.33zm-.17.51v-.34h.03l.01-.01h.03l.01-.01.01-.01.01-.01h.01l.01-.01.01-.01v-.01l.01-.01.01-.01v-.01l.01-.01v-.03l.01-.01v-.02h.33v.08l-.01.03v.02l-.01.02v.02l-.01.03-.02.02-.01.02-.01.02-.01.03-.01.01-.02.02-.02.02-.01.02-.02.01-.02.02-.02.02-.02.01-.02.02-.02.01h-.02l-.02.02-.03.01h-.02l-.02.01-.03.01h-.02l-.03.01h-.05zm-5.96-.34h5.96v.34h-5.96v-.34zm-.51-.17h.34v.02l.01.01v.04h.01v.02h.01l.01.01v.01l.01.01.01.01h.01l.01.01v.01h.01l.01.01h.03l.01.01h.03v.34h-.02l-.03-.01h-.05l-.03-.01-.02-.01h-.02l-.03-.01-.02-.02h-.02l-.02-.02-.03-.01-.01-.01-.02-.02-.02-.02-.02-.01-.01-.02-.02-.02-.02-.02-.01-.01-.01-.03-.02-.02-.01-.02-.01-.02-.01-.03v-.02l-.01-.02v-.02l-.01-.03v-.03l-.01-.03v-.02zm.34-3.08v3.08h-.34v-3.08h.34zm.17-.5v.34h-.04l-.01.01h-.02l-.01.01h-.01l-.01.01-.01.01-.01.01-.01.01-.01.02h-.01v.01l-.01.01V15l-.01.01v.02h-.34v-.02l.01-.03v-.03l.01-.02v-.02l.01-.02v-.03l.01-.02.01-.02.01-.02.02-.03.01-.02.01-.01.02-.02.02-.03.01-.01.02-.02.02-.01.02-.02.01-.01.02-.01.03-.02.02-.01.02-.01.03-.01.02-.01h.02l.03-.01h.02l.03-.01h.05z" class="fil1"/><path d="M81.37 3.13h21.82c.53 0 .97.43.97.96v12.42c0 .53-.44.96-.97.96H81.37c-.53 0-.96-.43-.96-.96V4.09c0-.53.43-.96.96-.96z" class="fil3"/><path id="1" d="M103.19 3.29H81.37v-.33h21.82v.33zm1.13.8h-.33v-.04l-.01-.04v-.04l-.01-.04-.01-.04-.01-.03-.01-.04-.02-.04-.01-.03-.02-.04-.02-.03-.02-.03-.02-.03-.03-.03-.02-.03-.03-.03-.03-.03-.02-.02-.04-.03-.03-.02-.03-.02-.03-.02-.04-.02-.03-.01-.04-.02-.04-.01-.03-.01-.04-.01-.04-.01h-.08l-.04-.01v-.33h.11l.06.01.05.01.06.01.06.02.05.02.05.02.05.02.05.03.05.02.04.03.05.03.04.04.04.03.04.04.04.04.04.04.03.04.03.05.03.04.03.05.02.05.02.05.02.05.02.06.02.05.01.06.01.05.01.05v.12zm-.33 12.42V4.09h.33v12.42h-.33zm-.8 1.13v-.34h.08l.04-.01h.04l.04-.01.03-.01.04-.01.04-.02.03-.01.04-.02.03-.02.03-.02.03-.03.04-.02.02-.03.03-.02.03-.03.02-.03.03-.03.02-.03.02-.03.02-.03.02-.04.01-.03.02-.04.01-.04.01-.04.01-.03.01-.05v-.03l.01-.04v-.04h.33v.11l-.01.06-.01.05-.01.06-.02.05-.02.06-.02.05-.02.05-.02.05-.03.04-.03.05-.03.04-.03.05-.04.04-.04.04-.04.04-.04.03-.04.04-.05.03-.04.03-.05.02-.05.03-.05.02-.05.02-.05.02-.06.02-.06.01-.05.01-.06.01h-.11zm-21.82-.34h21.82v.34H81.37v-.34zm-1.13-.79h.33l.01.04v.07l.01.04.01.04.01.04.01.04.02.04.01.03.02.04.02.03.02.03.02.03.03.03.02.03.03.03.03.03.03.02.02.02.04.03.03.02.03.02.04.02.03.01.04.02.04.01.03.01.04.01h.04l.04.01h.08v.34h-.11l-.06-.01-.05-.01-.06-.01-.06-.02-.05-.02-.05-.02-.05-.02-.05-.03-.05-.02-.04-.03-.05-.03-.04-.04-.04-.03-.04-.04-.04-.04-.03-.04-.04-.05-.03-.04-.03-.05-.03-.04-.02-.05-.02-.05-.02-.05-.02-.06-.02-.05-.01-.05-.01-.06-.01-.06v-.11zm.33-12.42v12.42h-.33V4.09h.33zm.8-1.13v.33l-.04.01h-.08l-.04.01-.04.01-.03.01-.04.01-.04.02-.03.01-.04.02-.03.02-.03.02-.04.02-.02.03-.03.02-.03.03-.03.03-.02.03-.03.02-.02.04-.02.03-.02.03-.02.04-.01.03-.02.04-.01.04-.01.03-.01.04-.01.04v.08l-.01.04h-.33v-.11l.01-.06.01-.06.01-.05.02-.06.02-.05.02-.05.02-.05.02-.05.03-.05.03-.04.03-.05.04-.04.03-.04.04-.04.04-.04.04-.03.04-.04.05-.03.04-.03.05-.03.05-.02.05-.02.05-.02.05-.02.06-.02.05-.01.06-.01.06-.01h.11z" class="fil1"/><path d="M82.68.17h5.96c.19 0 .34.15.34.34v3.07c0 .19-.15.34-.34.34h-5.96c-.18 0-.33-.15-.33-.34V.51c0-.19.15-.34.33-.34zM96 .17h5.96c.18 0 .33.15.33.34v3.07c0 .19-.15.34-.33.34H96c-.19 0-.34-.15-.34-.34V.51c0-.19.15-.34.34-.34z" class="fil3"/><path id="1" d="M88.64.34h-5.96V0h5.96v.34zm.51.17h-.34V.46L88.8.45V.44l-.01-.01V.42l-.01-.01V.4h-.01l-.01-.01-.01-.01V.37h-.02V.36h-.01l-.01-.01h-.02l-.01-.01h-.04V0h.05l.03.01h.03l.02.01h.02l.02.01.03.01.03.01.01.01.02.01.03.02.01.01.02.01.03.02.01.02.01.01.02.02.02.02.01.02.02.03.01.01.01.02.01.03.01.02.01.03v.02l.01.02v.03l.01.02v.06zm-.34 3.07V.51h.34v3.07h-.34zm-.17.51v-.34h.03l.01-.01h.03l.01-.01h.01v-.01l.02-.01.01-.01.01-.01.01-.01.01-.01v-.01l.01-.01v-.02l.01-.01v-.04h.34v.05l-.01.03v.02l-.01.03v.02l-.01.02-.01.03-.01.02-.01.02-.02.02-.01.03-.01.01-.02.02-.02.02-.01.02-.01.01-.03.02-.02.02-.01.01-.02.01-.03.02-.02.01-.02.01-.03.01h-.02l-.02.01h-.02l-.03.01h-.03l-.02.01h-.03zm-5.96-.34h5.96v.34h-5.96v-.34zm-.5-.17h.34v.05l.01.01v.01l.01.01v.01l.01.01v.01h.01v.01l.01.01h.01l.01.01.01.01h.01l.01.01h.02l.01.01h.03v.34h-.02l-.03-.01h-.03l-.02-.01h-.02l-.03-.01h-.02l-.03-.01-.02-.01-.02-.01-.02-.02L82.4 4l-.02-.01-.02-.02-.02-.02-.01-.01-.02-.02-.02-.02-.01-.02-.01-.01-.02-.02-.01-.03-.01-.02-.01-.02-.01-.03-.01-.02-.01-.02v-.03l-.01-.02v-.08zm.34-3.07v3.07h-.34V.51h.34zm.16-.51v.34h-.04l-.01.01h-.01l-.02.01h-.01l-.01.01v.01h-.01l-.01.01V.4h-.01l-.01.01v.02h-.01v.02h-.01v.06h-.34V.43l.01-.03V.38l.01-.02.01-.03.01-.02.01-.02.01-.03.01-.02.02-.02.01-.02.01-.02.02-.02.02-.01.01-.02.02-.02.02-.01.02-.01.02-.02.02-.01.02-.01.02-.01.03-.01.02-.01h.03l.02-.01h.02l.03-.01h.05zm19.28.34H96V0h5.96v.34zm.5.17h-.33V.48l-.01-.01V.45l-.01-.01V.43l-.01-.01V.41h-.01V.4l-.01-.01-.01-.01-.01-.01h-.01V.36h-.01l-.01-.01h-.02L102 .34h-.04V0h.05l.03.01h.02l.02.01h.03l.02.01.02.01.03.01.02.01.02.01.02.02.02.01.02.01.02.02.02.02.01.02.02.01.01.02.02.02.01.03.01.01.01.03.01.02.01.02.01.03.01.02V.4l.01.03v.08zm-.33 3.07V.51h.33v3.07h-.33zm-.17.51v-.34h.03l.01-.01h.02l.01-.01h.01l.01-.01.01-.01h.01V3.7l.01-.01h.01v-.01l.01-.01.01-.01v-.02h.01v-.03l.01-.01v-.02h.33v.08l-.01.02v.03l-.01.02-.01.03-.01.02-.01.02-.01.02-.01.02-.01.02-.02.03-.01.01-.02.02-.01.01-.02.02-.02.02-.02.02-.02.01-.02.01-.02.02-.02.01-.03.01-.02.01h-.02l-.03.01h-.02l-.02.01h-.03l-.03.01h-.02zM96 3.75h5.96v.34H96v-.34zm-.51-.17h.34v.03l.01.01v.02l.01.01v.02h.01v.01l.01.01.01.01.01.01.02.01.01.01.01.01h.03l.01.01H96v.34h-.03l-.02-.01h-.03l-.02-.01h-.03l-.02-.01h-.02l-.03-.01-.02-.01-.02-.01-.03-.02-.02-.01-.01-.01-.02-.02-.03-.02-.01-.02-.02-.01-.01-.02-.02-.01-.01-.03-.01-.02-.02-.02-.01-.02-.01-.02-.01-.02-.01-.03v-.02l-.01-.03v-.02l-.01-.03v-.05zm.34-3.07v3.07h-.34V.51h.34zM96 0v.34h-.04l-.01.01h-.02l-.01.01h-.01v.01h-.02v.01h-.01l-.01.01V.4l-.01.01v.01l-.01.01-.01.01v.02l-.01.01v.04h-.34V.45l.01-.02V.4l.01-.02V.36l.01-.03.01-.02.01-.02.02-.03V.25l.02-.03.01-.02.02-.02.01-.01.02-.02.01-.02.03-.02.02-.01.01-.01.03-.02.02-.01.01-.01.03-.01.03-.01.02-.01h.02l.03-.01h.02l.03-.01H96z" class="fil1"/><g><path d="M1.14 42.17h48.68c.53 0 .96.44.96.97v12.41c0 .53-.43.97-.96.97H1.14c-.54 0-.97-.44-.97-.97V43.14c0-.53.43-.97.97-.97z" class="fil3"/><path id="1" d="M49.82 42.34H1.14V42h48.68v.34zm1.13.8h-.33v-.04l-.01-.04v-.04l-.01-.04-.01-.04-.01-.04-.01-.03-.02-.04-.01-.04-.02-.03-.02-.03-.02-.04-.02-.03-.03-.03-.02-.03-.03-.02-.03-.03-.03-.03-.02-.02-.04-.02-.03-.02-.03-.02-.04-.02-.03-.02-.04-.01-.04-.01-.03-.01-.04-.01-.04-.01-.04-.01h-.08V42h.06l.05.01.06.01.06.01.05.01.06.01.05.02.05.02.05.03.05.02.05.03.04.03.05.03.04.03.04.04.04.04.04.04.03.04.04.04.03.04.03.05.03.05.02.05.02.05.02.05.02.05.02.06.01.05.01.06.01.05v.12zm-.33 12.41V43.14h.33v12.41h-.33zm-.8 1.14v-.34h.08l.04-.01.04-.01.04-.01.03-.01.04-.01.04-.01.03-.02.04-.02.03-.01.03-.03.04-.02.02-.02.03-.03.03-.02.03-.03.02-.03.03-.03.02-.03.02-.04.02-.03.02-.03.01-.04.02-.03.01-.04.01-.04.01-.04.01-.04v-.04l.01-.04v-.04h.33v.12l-.01.06-.01.05-.01.05-.02.06-.02.05-.02.05-.02.05-.02.05-.03.05-.03.05-.03.04-.04.05-.03.04-.04.03-.04.04-.04.04-.04.03-.05.03-.04.03-.05.03-.05.03-.05.02-.05.02-.05.02-.06.01-.05.01-.06.01-.06.01-.05.01h-.06zm-48.68-.34h48.68v.34H1.14v-.34zM0 55.55h.34v.08l.01.04v.04l.01.04.01.04.02.04.01.03.02.04.01.03.02.03.02.04.03.03.02.03.03.03.02.03.03.02.03.03.03.02.03.02.03.03.04.01.03.02.03.02.04.01.04.01.04.01.04.01.04.01.03.01h.09v.34h-.06l-.06-.01-.06-.01-.05-.01-.06-.01-.05-.01-.05-.02-.06-.02-.05-.02-.04-.03-.05-.03-.05-.03-.04-.03-.05-.03-.04-.04-.04-.04-.03-.03-.04-.04-.03-.05-.03-.04-.04-.05-.02-.05-.03-.05-.02-.05-.02-.05-.02-.05-.01-.06-.02-.05-.01-.05v-.06L0 55.61v-.06zm.34-12.41v12.41H0V43.14h.34zm.8-1.14v.34h-.08l-.04.01-.05.01-.03.01-.04.01-.04.01-.04.01-.03.02-.03.02-.04.02-.03.02-.03.02-.03.02-.03.03-.03.03-.02.02-.03.03-.02.03-.03.03-.02.04-.02.03-.01.04-.02.03-.01.04-.02.03-.01.04-.01.04v.04l-.01.04v.08H0v-.06l.01-.06v-.05l.01-.06.02-.05.01-.06.02-.05.02-.05.02-.05.03-.05.02-.05.04-.05.03-.04.03-.04.04-.04.03-.04.04-.04.04-.04.05-.03.04-.03.05-.03.05-.03.04-.02.05-.03.06-.02.05-.02.05-.01.06-.01.05-.01.06-.01.06-.01h.06z" class="fil1"/></g><g><path d="M2.45 39.22h5.96c.18 0 .33.15.33.33v3.08c0 .18-.15.33-.33.33H2.45c-.19 0-.34-.15-.34-.33v-3.08c0-.18.15-.33.34-.33zm40.08 0h5.97c.18 0 .33.15.33.33v3.08c0 .18-.15.33-.33.33h-5.97c-.18 0-.33-.15-.33-.33v-3.08c0-.18.15-.33.33-.33zm-13.36 0h5.96c.19 0 .34.15.34.33v3.08c0 .18-.15.33-.34.33h-5.96c-.18 0-.33-.15-.33-.33v-3.08c0-.18.15-.33.33-.33zm-13.41 0h5.96c.19 0 .34.15.34.33v3.08c0 .18-.15.33-.34.33h-5.96c-.18 0-.34-.15-.34-.33v-3.08c0-.18.16-.33.34-.33z" class="fil3"/><path id="1" d="M8.41 39.38H2.45v-.33h5.96v.33zm.5.17h-.33v-.01l-.01-.01v-.03l-.01-.01v-.02l-.01-.01-.01-.01-.01-.01-.01-.01-.01-.01-.01-.01h-.01v-.01h-.02v-.01h-.04l-.01-.01h-.01v-.33h.08l.02.01h.02l.03.01.02.01.02.01.03.01.02.01.02.01.02.01.01.01.03.02.02.02.02.02.01.01.01.02.02.02.01.02.02.02.01.02.01.02.01.02.01.03.01.02.01.03v.02l.01.02v.08zm-.33 3.08v-3.08h.33v3.08h-.33zm-.17.5v-.33h.02l.01-.01h.03v-.01h.02v-.01h.01l.01-.01.01-.01.01-.01.01-.01v-.01h.01l.01-.02v-.01l.01-.01v-.04h.01v-.01h.33v.08l-.01.02v.02l-.01.03-.01.02-.01.02-.01.03-.01.02-.01.02-.01.02-.02.02-.02.02-.01.02-.01.01-.02.02-.02.02-.03.02-.01.01-.02.01-.02.01-.02.01-.03.01-.02.01-.02.01-.03.01h-.02l-.02.01h-.08zm-5.96-.33h5.96v.33H2.45v-.33zm-.51-.17h.34v.04l.01.01v.02h.01v.02h.01v.01h.01v.01l.01.01h.01v.01l.02.01.01.01h.01l.01.01h.02l.01.01h.03v.33h-.08l-.03-.01h-.02l-.02-.01-.02-.01-.03-.01-.03-.01-.01-.01-.03-.01-.02-.01-.01-.01-.02-.02L2.1 43l-.01-.02-.02-.01-.01-.02-.02-.02-.01-.02-.02-.02-.01-.02-.01-.02-.01-.03-.01-.02-.01-.02v-.03l-.01-.02v-.02l-.01-.03v-.05zm.34-3.08v3.08h-.34v-3.08h.34zm.17-.5v.33h-.02l-.01.01h-.03l-.01.01h-.01l-.01.01-.02.01v.01h-.01l-.01.01v.01h-.01v.01H2.3v.01l-.01.01v.02l-.01.01v.04h-.34v-.05l.01-.03v-.02l.01-.02v-.03l.01-.02.01-.03.01-.02.01-.02.02-.02.01-.02.01-.02.02-.02.01-.02.02-.01.01-.02.03-.02.02-.02.01-.01.02-.01.03-.01.02-.01.02-.01.03-.01.02-.01.02-.01h.02l.03-.01h.08zm46.05.33h-5.97v-.33h5.97v.33zm.5.17h-.34v-.05h-.01v-.02l-.01-.01v-.01l-.01-.01-.01-.01-.01-.01h-.01v-.01l-.01-.01h-.01v-.01h-.02v-.01h-.04l-.01-.01h-.01v-.33h.08l.02.01h.02l.02.01.03.01.02.01.02.01.03.01.02.01.02.01.01.01.03.02.02.02.02.02.01.01.01.02.02.02.01.02.02.02.01.02.01.02.01.02.01.03.01.02.01.03v.04l.01.03v.05zm-.34 3.08v-3.08H49v3.08h-.34zm-.16.5v-.33h.02l.01-.01h.03v-.01h.02v-.01h.01l.01-.01v-.01h.01l.01-.01.01-.01v-.01h.01v-.02h.01v-.02h.01v-.05H49v.05l-.01.03v.04l-.01.03-.01.02-.01.02-.01.03-.01.02-.01.02-.01.02-.02.02-.02.02-.01.02-.01.01-.02.02-.02.02-.03.02-.01.01-.02.01-.02.01-.02.01-.03.01-.02.01-.03.01-.02.01h-.02l-.02.01h-.08zm-5.97-.33h5.97v.33h-5.97v-.33zm-.5-.17h.34v.05h.01v.02h.01v.02h.01v.01l.01.01.01.01h.01v.01l.01.01h.01v.01h.02v.01h.03l.01.01h.02v.33h-.08l-.02-.01h-.02l-.02-.01-.03-.01-.02-.01-.03-.01-.02-.01-.02-.01-.02-.01-.01-.01-.03-.02-.02-.02-.02-.02-.01-.01-.01-.02-.02-.02-.02-.02-.01-.02-.01-.02-.01-.02-.01-.03-.01-.02-.01-.02-.01-.03v-.04l-.01-.03v-.05zm.34-3.08v3.08h-.34v-3.08h.34zm.16-.5v.33h-.01l-.01.01h-.04v.01h-.02v.01h-.01l-.01.01v.01h-.01l-.01.01-.01.01-.01.01v.01l-.01.01v.02h-.01v.05h-.34v-.05l.01-.03v-.04l.01-.03.01-.02.01-.03.01-.02.01-.02.01-.02.02-.02.01-.02.02-.02.01-.02.01-.01.02-.02.02-.02.03-.02.01-.01.02-.01.02-.01.03-.01.02-.01.02-.01.03-.01.02-.01h.02l.02-.01h.08zm-7.4.33h-5.96v-.33h5.96v.33zm.51.17h-.34v-.03l-.01-.01v-.02l-.01-.01v-.01l-.01-.01-.01-.01v-.01l-.01-.01h-.01v-.01h-.01l-.01-.01-.02-.01-.01-.01h-.04v-.01h-.02v-.33h.08l.03.01h.02l.02.01.02.01.03.01.02.01.02.01.03.01.02.02.01.01.02.01.02.02.02.02.01.01.02.02.02.02.01.02.01.02.02.02.01.02.01.02.01.03v.02l.01.03.01.02v.05l.01.03v.02zm-.34 3.08v-3.08h.34v3.08h-.34zm-.17.5v-.33h.02l.01-.01h.03l.01-.01.02-.01.01-.01h.01v-.01h.01l.01-.01v-.01l.01-.01.01-.01v-.01l.01-.01v-.02l.01-.01v-.03h.34v.05l-.01.03v.02l-.01.02-.01.03v.02l-.01.02-.01.03-.01.02-.02.02-.01.02-.01.02-.02.02-.02.02-.01.01-.02.02-.02.02-.02.01-.01.01-.03.02-.02.01-.01.01-.03.01-.03.01-.02.01-.02.01h-.02l-.03.01h-.08zm-5.96-.33h5.96v.33h-5.96v-.33zm-.5-.17H29v.01h.01v.04l.01.01v.01l.01.02.01.01.01.01.01.01v.01h.01l.01.01h.01v.01h.02v.01h.03l.01.01h.02v.33h-.08l-.02-.01h-.02l-.03-.01-.02-.01-.02-.01-.03-.01-.02-.01-.02-.01-.02-.01-.02-.01-.02-.02-.02-.02-.02-.02-.01-.01-.02-.02-.01-.02-.02-.02-.01-.02-.01-.02-.01-.02-.01-.03-.01-.02-.01-.02-.01-.03v-.02l-.01-.02v-.08zm.33-3.08v3.08h-.33v-3.08H29zm.17-.5v.33h-.01l-.01.01h-.04v.01h-.02v.01h-.01l-.01.01h-.01v.01l-.01.01-.01.01-.01.01-.01.01v.02l-.01.01v.03l-.01.01v.01h-.33v-.08l.01-.02v-.02l.01-.03.01-.02.01-.03.01-.02.01-.02.01-.02.01-.02.02-.02.01-.02.02-.02.01-.01.02-.02.02-.02.02-.02.02-.01.02-.01.02-.01.02-.01.03-.01.02-.01.02-.01.03-.01h.02l.02-.01h.08zm-7.45.33h-5.96v-.33h5.96v.33zm.51.17h-.34v-.03l-.01-.01v-.02l-.01-.01v-.01l-.01-.01-.01-.01v-.01l-.01-.01h-.01v-.01h-.01l-.01-.01h-.01l-.01-.01h-.01v-.01h-.04v-.01h-.02v-.33h.08l.02.01h.03l.02.01.02.01.03.01.02.01.02.01.03.01.02.02.01.01.02.01.02.02.02.02.01.01.02.02.02.02.01.02.01.02.02.02.01.02.01.02.01.03v.02l.01.03.01.02v.05l.01.03v.02zm-.34 3.08v-3.08h.34v3.08h-.34zm-.17.5v-.33h.02l.01-.01h.03v-.01h.01l.01-.01h.01l.01-.01h.01v-.01h.01l.01-.01v-.01l.01-.01.01-.01v-.01l.01-.01v-.02l.01-.01v-.03h.34v.02l-.01.03v.05l-.01.02-.01.03v.02l-.01.02-.01.03-.01.02-.02.02-.01.02-.01.02-.02.02-.02.02-.01.01-.02.02-.02.02-.02.01-.01.01-.03.02-.02.01-.02.01-.02.01-.03.01-.02.01-.02.01h-.03l-.02.01h-.08zm-5.96-.33h5.96v.33h-5.96v-.33zm-.5-.17h.33v.02l.01.01v.03h.01v.02l.01.01.01.01v.01l.01.01h.01v.01h.01l.01.01.01.01h.02v.01h.03l.01.01h.02v.33h-.08l-.02-.01h-.02l-.03-.01-.02-.01-.03-.01-.02-.01-.02-.01-.02-.01-.02-.01-.02-.02-.02-.01-.02-.02-.02-.02-.01-.01-.02-.02-.01-.02-.02-.02-.01-.02-.01-.02-.01-.02-.01-.03-.01-.02-.01-.02-.01-.03v-.02l-.01-.02v-.08zm.33-3.08v3.08h-.33v-3.08h.33zm.17-.5v.33h-.01v.01h-.05v.01h-.02v.01h-.01l-.01.01h-.01v.01h-.01l-.01.01v.01l-.01.01v.01l-.01.01-.01.01v.03l-.01.01v.02h-.33v-.08l.01-.02v-.02l.01-.03.01-.02.01-.03.01-.02.01-.02.01-.02.02-.02.01-.02.01-.02.02-.02.01-.01.02-.02.02-.02.02-.01.02-.02.02-.01.02-.01.02-.01.02-.01.03-.01.02-.01.03-.01h.02l.02-.01h.08z" class="fil1"/></g><g><path d="M27.25 27.06h48.68c.53 0 .97.43.97.96v12.42c0 .53-.44.96-.97.96H27.25c-.54 0-.97-.43-.97-.96V28.02c0-.53.43-.96.97-.96z" class="fil4"/><path id="1" d="M75.93 27.22H27.25v-.33h48.68v.33zm1.13.8h-.33v-.04l-.01-.04v-.04l-.01-.04-.01-.04-.01-.03-.01-.04-.02-.04-.01-.03-.02-.04-.02-.03-.02-.03-.02-.03-.03-.03-.02-.03-.03-.03-.02-.03-.03-.02-.04-.03-.03-.02-.03-.02-.03-.02-.04-.02-.03-.01-.04-.02-.04-.01-.03-.01-.04-.01-.04-.01h-.08l-.04-.01v-.33h.11l.06.01.06.01.05.01.06.02.05.02.05.02.05.02.05.03.05.02.04.03.05.03.04.04.04.03.04.04.04.04.04.04.03.04.03.05.03.05.03.04.02.05.02.05.03.05.01.06.02.05.01.06.01.05.01.06v.11zm-.33 12.42V28.02h.33v12.42h-.33zm-.8 1.13v-.34h.12l.04-.01.04-.01.03-.01.04-.01.04-.02.04-.02.03-.01.03-.02.03-.02.03-.03.04-.02.03-.03.02-.02.03-.03.03-.03.02-.03.02-.03.02-.03.02-.03.02-.04.01-.03.02-.04.01-.04.01-.03.01-.04.01-.04v-.04l.01-.04v-.04h.33v.11l-.01.06-.01.05-.01.06-.02.05-.01.06-.03.05-.02.05-.02.05-.03.04-.03.05-.03.04-.04.05-.03.04-.04.04-.04.04-.04.03-.04.04-.05.03-.04.03-.05.02-.05.03-.05.02-.05.02-.05.02-.06.02-.05.01-.06.01-.06.01h-.11zm-48.68-.34h48.68v.34H27.25v-.34zm-1.14-.79h.34v.08l.01.04v.04l.01.04.01.03.02.04.01.04.02.03.01.04.02.03.02.03.03.03.02.03.03.03.02.03.03.02.03.03.03.02.03.03.03.02.04.02.03.02.03.01.04.02.04.01.04.01.04.01.04.01H27.25v.34h-.12l-.06-.01-.05-.01-.06-.01-.05-.02-.05-.02-.05-.02-.06-.02-.04-.03-.05-.02-.05-.03-.04-.03-.05-.04-.04-.03-.04-.04-.03-.04-.04-.04-.03-.05-.03-.04-.03-.05-.03-.04-.03-.05-.02-.05-.02-.05-.02-.06-.01-.05-.02-.06-.01-.05v-.06l-.01-.06v-.05zm.34-12.42v12.42h-.34V28.02h.34zm.8-1.13v.33l-.05.01h-.07l-.05.01-.03.01-.04.01-.04.01-.04.02-.03.01-.03.02-.04.02-.03.02-.03.02-.03.03-.03.02-.03.03-.02.03-.03.03-.02.03-.03.03-.02.03-.02.03-.01.04-.02.03-.01.04-.02.04-.01.03-.01.04v.04l-.01.04v.08h-.34v-.05l.01-.06v-.06l.01-.05.02-.06.01-.05.02-.06.02-.05.02-.05.03-.05.02-.04.04-.05.03-.05.03-.04.03-.04.04-.04.04-.04.04-.03.05-.04.04-.03.05-.03.05-.02.04-.03.06-.02.05-.02.05-.02.05-.02.06-.01.05-.01.06-.01h.12z" class="fil1"/></g><g><path d="M28.56 24.1h5.96c.18 0 .33.15.33.34v3.07c0 .19-.15.34-.33.34h-5.96c-.19 0-.34-.15-.34-.34v-3.07c0-.19.15-.34.34-.34zm40.08 0h5.97c.18 0 .33.15.33.34v3.07c0 .19-.15.34-.33.34h-5.97c-.18 0-.33-.15-.33-.34v-3.07c0-.19.15-.34.33-.34zm-13.36 0h5.96c.19 0 .34.15.34.34v3.07c0 .19-.15.34-.34.34h-5.96c-.18 0-.33-.15-.33-.34v-3.07c0-.19.15-.34.33-.34zm-13.41 0h5.96c.19 0 .34.15.34.34v3.07c0 .19-.15.34-.34.34h-5.96c-.18 0-.34-.15-.34-.34v-3.07c0-.19.16-.34.34-.34z" class="fil4"/><path id="1" d="M34.52 24.27h-5.96v-.34h5.96v.34zm.5.17h-.33v-.02l-.01-.01v-.03l-.01-.01v-.01l-.01-.01-.01-.01v-.01l-.01-.01-.01-.01-.01-.01h-.01l-.01-.01h-.01v-.01h-.02l-.01-.01h-.04v-.34h.05l.03.01h.02l.02.01h.03l.02.01.02.01.03.01.02.01.02.01.02.02.02.01.02.02.02.01.01.02.02.02.01.01.02.02.02.03.01.01.01.02.01.03.01.02.01.02.01.03.01.02v.02l.01.03v.08zm-.33 3.07v-3.07h.33v3.07h-.33zm-.17.51v-.34h.03l.01-.01h.02l.01-.01h.01l.01-.01h.01v-.01h.01l.01-.01v-.01h.01v-.01l.01-.01.01-.01v-.01l.01-.01v-.04h.01v-.02h.33v.08l-.01.02v.03l-.01.02-.01.03-.01.02-.01.02-.01.03-.01.01-.01.02-.02.02-.02.03-.01.01-.02.02-.01.02-.02.01-.02.02-.02.01-.02.01-.02.01-.02.02-.03.01-.02.01h-.02l-.03.01-.02.01h-.05l-.03.01h-.02zm-5.96-.34h5.96v.34h-5.96v-.34zm-.51-.17h.34v.04l.01.01v.02l.01.01v.01l.01.01.01.01.01.01v.01h.01l.01.01.01.01h.01l.01.01h.02l.01.01h.04v.34h-.03l-.03-.01h-.05l-.02-.01-.02-.01h-.03l-.02-.01-.02-.01-.03-.02-.02-.01-.01-.01-.03-.01-.02-.02-.01-.01-.02-.02-.02-.02-.01-.01-.02-.03-.01-.02-.01-.02-.02-.01-.01-.03-.01-.02-.01-.02-.01-.03v-.02l-.01-.03v-.02l-.01-.03v-.05zm.34-3.07v3.07h-.34v-3.07h.34zm.17-.51v.34h-.05l-.01.01h-.02v.01h-.01l-.01.01h-.01l-.01.01v.01h-.01v.01h-.01v.01l-.01.01v.01h-.01v.02l-.01.01v.05h-.34v-.06l.01-.02v-.03l.01-.02v-.02l.01-.03.01-.02.01-.02.01-.03.02-.02.01-.01.01-.03.02-.02.01-.01.02-.02.02-.02.01-.01.02-.02.03-.01.01-.02.02-.01.03-.01.02-.01.02-.01.03-.01h.02l.02-.01h.03l.02-.01h.06zm46.05.34h-5.97v-.34h5.97v.34zm.5.17h-.34V24.38h-.01v-.02h-.01v-.01l-.01-.01v-.01l-.01-.01h-.01v-.01l-.01-.01h-.01l-.01-.01h-.01v-.01h-.02l-.01-.01h-.04v-.34h.05l.03.01h.02l.02.01h.02l.03.01.02.01.02.01.03.01.02.01.01.02.03.01.02.02.01.01.02.02.02.02.01.01.02.02.02.03.01.01.01.02.01.03.01.02.01.02.01.03.01.02v.05l.01.02v.06zm-.34 3.07v-3.07h.34v3.07h-.34zm-.16.51v-.34h.03l.01-.01h.02l.01-.01h.01l.01-.01h.01v-.01h.01v-.01l.01-.01h.01v-.01l.01-.01v-.01l.01-.01v-.01l.01-.01v-.05h.34v.05l-.01.03v.05l-.01.02-.01.03-.01.02-.01.02-.01.03-.01.01-.01.02-.02.02-.02.03-.01.01-.02.02-.02.02-.01.01-.02.02-.03.01-.01.01-.02.01-.03.02-.02.01-.02.01h-.03l-.02.01-.02.01h-.05l-.03.01h-.02zm-5.97-.34h5.97v.34h-5.97v-.34zm-.5-.17h.34v.04l.01.01v.02l.01.01.01.01.01.02v.01l.01.01h.01l.01.01.01.01h.01l.01.01h.02l.01.01h.03v.34h-.02l-.03-.01h-.05l-.02-.01-.02-.01h-.03l-.02-.01-.02-.01-.03-.02-.02-.01-.02-.01-.02-.02-.02-.01-.01-.01-.02-.02-.02-.02-.01-.02-.02-.02-.01-.01-.01-.02-.02-.03-.01-.02-.01-.02-.01-.03-.01-.02v-.02l-.01-.03v-.02l-.01-.03v-.05zm.34-3.07v3.07h-.34v-3.07h.34zm.16-.51v.34h-.04l-.01.01h-.02v.01h-.01l-.01.01h-.01l-.01.01-.01.01v.01l-.01.01-.01.01v.01h-.01v.02l-.01.01v.05h-.34v-.06l.01-.02v-.03l.01-.02v-.02l.01-.03.01-.02.01-.02.01-.02.02-.03.01-.02.01-.01.02-.02.01-.03.02-.01.02-.02.01-.01.02-.02.02-.01.02-.02.02-.01.03-.01.02-.01.02-.01.03-.01h.02l.02-.01h.02l.03-.01h.05zm-7.4.34h-5.96v-.34h5.96v.34zm.51.17h-.34v-.04l-.01-.01v-.02l-.01-.01v-.01l-.01-.01-.01-.01-.01-.01-.01-.01v-.01h-.02v-.01h-.01l-.01-.01h-.02v-.01h-.05v-.34h.05l.03.01h.03l.02.01h.02l.03.01.02.01.02.01.03.01.01.01.03.02.02.01.02.02.01.01.02.02.01.01.02.03.02.02.01.01.01.02.02.03.01.02.01.02.01.02v.03l.01.02.01.02v.05l.01.03v.03zm-.34 3.07v-3.07h.34v3.07h-.34zm-.17.51v-.34h.03l.02-.01h.02v-.01h.02v-.01h.01l.01-.01.01-.01.01-.01.01-.02.01-.01v-.01h.01v-.03l.01-.01v-.03h.34v.03l-.01.02v.05l-.01.03-.01.02v.02l-.01.03-.01.02-.01.02-.02.03-.01.02-.01.01-.02.02-.02.02-.01.02-.02.02-.01.01-.02.01-.02.02-.03.01-.01.01-.03.02-.02.01-.02.01h-.03l-.02.01-.02.01h-.06l-.02.01h-.03zm-5.96-.34h5.96v.34h-5.96v-.34zm-.5-.17h.33v.02h.01v.04l.01.01v.01l.01.01v.01h.01v.01h.01v.01l.01.01h.01v.01h.01l.01.01h.01l.01.01h.02l.01.01h.03v.34h-.02l-.03-.01h-.05l-.02-.01-.03-.01h-.02l-.02-.01-.03-.01-.02-.02-.02-.01-.02-.01-.02-.01-.02-.02-.02-.01-.01-.02-.02-.02-.02-.01-.01-.03-.02-.02-.01-.02-.01-.01-.01-.03-.01-.02-.01-.02-.01-.03-.01-.02v-.03l-.01-.02v-.08zm.33-3.07v3.07h-.33v-3.07h.33zm.17-.51v.34h-.04l-.01.01h-.02v.01h-.01l-.01.01h-.01l-.01.01-.01.01-.01.01-.01.01v.01l-.01.01v.01l-.01.01v.03l-.01.01v.02h-.33v-.08l.01-.03v-.02l.01-.02.01-.03.01-.02.01-.02.01-.03.01-.02.01-.01.02-.03.01-.02.02-.01.02-.02.01-.02.02-.01.02-.02.02-.01.02-.02.02-.01.02-.01.03-.01.02-.01.02-.01h.03l.02-.01h.02l.03-.01h.05zm-7.45.34h-5.96v-.34h5.96v.34zm.51.17H48v-.04l-.01-.01v-.02l-.01-.01v-.01l-.01-.01-.01-.01-.01-.01-.01-.01v-.01h-.02v-.01h-.01l-.01-.01h-.02l-.01-.01h-.04v-.34h.05l.03.01h.02l.03.01h.02l.03.01.02.01.02.01.02.01.02.01.02.02.03.01.01.02.02.01.02.02.01.01.02.03.02.02.01.01.01.02.02.03.01.02.01.02.01.02v.03l.01.02.01.02v.05l.01.03v.03zM48 27.51v-3.07h.34v3.07H48zm-.17.51v-.34h.03l.01-.01h.02l.01-.01h.02v-.01h.01l.01-.01.01-.01.01-.01.01-.02.01-.01v-.01h.01v-.03l.01-.01v-.03h.34v.03l-.01.02v.05l-.01.03-.01.02v.02l-.01.03-.01.02-.01.02-.02.03-.01.02-.01.01-.02.02-.02.02-.01.02-.02.02-.02.01-.01.01-.03.02-.02.01-.02.01-.02.02-.02.01-.02.01h-.03l-.02.01-.03.01h-.05l-.02.01h-.03zm-5.96-.34h5.96v.34h-5.96v-.34zm-.5-.17h.33v.02l.01.01v.03l.01.01v.01l.01.01v.01h.01v.01h.01v.01l.01.01h.01v.01h.01v.01h.02l.01.01h.02l.01.01h.03v.34h-.02l-.03-.01h-.05l-.02-.01-.03-.01h-.02l-.02-.01-.03-.01-.02-.02-.02-.01-.02-.01-.02-.01-.02-.02-.02-.01-.02-.02-.01-.02-.02-.01-.01-.03-.02-.02-.01-.02-.01-.01-.01-.03-.01-.02-.01-.02-.01-.03-.01-.02v-.03l-.01-.02v-.08zm.33-3.07v3.07h-.33v-3.07h.33zm.17-.51v.34h-.04l-.01.01h-.02v.01h-.02v.01h-.01l-.01.01-.01.01-.01.01-.01.01v.01l-.01.01v.01l-.01.01v.02l-.01.01v.03h-.33v-.08l.01-.03v-.02l.01-.02.01-.03.01-.02.01-.02.01-.03.01-.02.01-.01.02-.03.01-.02.02-.01.01-.02.02-.02.02-.01.02-.02.02-.01.02-.02.02-.01.02-.01.03-.01.02-.01.02-.01h.03l.02-.01h.02l.03-.01h.05z" class="fil1"/></g><g><path d="M40.07 11.42h21.81c.53 0 .97.44.97.97V24.8c0 .54-.44.97-.97.97H40.07c-.54 0-.97-.43-.97-.97V12.39c0-.53.43-.97.97-.97z" class="fil5"/><path id="1" d="M61.88 11.59H40.07v-.33h21.81v.33zm1.14.8h-.34v-.08l-.01-.04-.01-.04-.01-.04-.01-.03-.01-.04-.01-.04-.02-.03-.02-.04-.02-.03-.02-.03-.02-.03-.02-.04-.03-.03-.02-.02-.03-.03-.03-.02-.03-.03-.03-.02-.04-.02-.03-.02-.03-.02-.04-.01-.04-.02-.03-.01-.04-.01-.04-.01-.04-.01h-.04l-.04-.01h-.04v-.33H62l.05.01.06.01.05.01.06.02.05.02.05.02.05.02.05.02.05.03.05.03.04.03.04.03.04.04.04.04.04.04.04.04.03.04.03.04.03.05.03.05.02.05.03.05.02.05.02.05.01.06.01.05.01.06.01.05.01.06v.06zm-.34 12.41V12.39h.34V24.8h-.34zm-.8 1.14v-.34h.08l.04-.01h.04l.04-.01.04-.01.03-.02.04-.01.04-.02.03-.02.03-.01.04-.02.03-.03.03-.02.03-.03.03-.02.02-.03.03-.03.02-.03.02-.03.02-.03.02-.04.02-.03.02-.04.01-.03.01-.04.01-.04.01-.04.01-.04.01-.04v-.08h.34v.06l-.01.06-.01.06-.01.05-.01.06-.01.05-.02.05-.02.05-.03.06-.02.04-.03.05-.03.05-.03.04-.03.04-.04.05-.04.03-.04.04-.04.04-.04.03-.04.03-.05.04-.05.02-.05.03-.05.02-.05.02-.05.02-.06.01-.05.02-.06.01H62l-.06.01h-.06zm-21.81-.34h21.81v.34H40.07v-.34zm-1.14-.8h.34v.12l.01.04.01.04.01.04.01.04.02.03.02.04.01.03.02.04.02.03.03.03.02.03.03.03.02.03.03.03.03.02.03.02.03.03.03.02.03.01.04.02.04.02.03.01.04.02.03.01.04.01h.04l.04.01h.09v.34h-.06l-.06-.01h-.06l-.05-.01-.06-.02-.05-.01-.06-.02-.05-.02-.05-.02-.05-.03-.04-.03-.05-.03-.04-.03-.05-.03-.04-.04-.04-.04-.03-.03-.04-.05-.03-.04-.03-.04-.04-.05-.02-.05-.03-.05-.02-.05-.02-.05-.02-.05-.01-.05-.02-.06-.01-.05-.01-.06v-.12zm.34-12.41V24.8h-.34V12.39h.34zm.8-1.13v.33h-.05l-.04.01h-.04l-.03.01-.05.01-.03.01-.04.01-.03.02-.04.01-.04.02-.03.02-.03.02-.03.02-.03.02-.03.03-.03.03-.02.03-.03.02-.02.03-.03.04-.02.03-.02.03-.01.03-.02.04-.02.04-.01.03-.01.04-.01.04-.01.04v.12h-.34v-.11l.01-.06.01-.06.02-.05.01-.06L39 12l.02-.05.02-.05.03-.05.03-.05.03-.04.03-.05.03-.04.04-.04.03-.04.04-.04.04-.03.05-.04.04-.03.05-.03.04-.03.06-.02.04-.02.05-.02.06-.02.05-.02.06-.01.05-.01.06-.01h.12z" class="fil1"/></g><g><path d="M41.37 8.47h5.97c.18 0 .33.15.33.33v3.08c0 .18-.15.34-.33.34h-5.97c-.18 0-.33-.16-.33-.34V8.8c0-.18.15-.33.33-.33zm13.32 0h5.96c.19 0 .34.15.34.33v3.08c0 .18-.15.34-.34.34h-5.96c-.18 0-.34-.16-.34-.34V8.8c0-.18.16-.33.34-.33z" class="fil5"/><path id="1" d="M47.34 8.64h-5.97V8.3h5.97v.34zm.5.16h-.34v-.05l-.01-.01-.01-.02v-.01l-.01-.01h-.01v-.01l-.01-.01h-.01v-.01l-.01-.01h-.01l-.02-.01-.01-.01h-.05V8.3h.08l.02.01h.02l.02.01.03.01.02.01.03.01.02.01.01.01.03.02.02.01.02.01.02.02.01.02.02.01.02.02.01.02.01.02.02.02.01.02.01.02.01.03.01.02.01.03.01.02v.04l.01.03v.05zm-.34 3.08V8.8h.34v3.08h-.34zm-.16.5v-.33h.02l.01-.01h.03v-.01h.02v-.01h.01l.01-.01.01-.01.01-.01.01-.01.01-.01v-.01l.01-.01v-.01l.01-.01v-.05h.34v.05l-.01.03V12l-.01.03-.01.02-.01.03-.01.02-.01.02-.01.02-.02.03-.01.01-.01.02-.02.02-.02.02-.01.01-.02.02-.02.01-.02.02-.02.01-.02.01-.03.01-.02.01-.02.01-.03.01-.02.01h-.02l-.02.01h-.08zm-5.97-.33h5.97v.33h-5.97v-.33zm-.5-.17h.34v.04l.01.01v.02l.01.01v.01l.01.01.01.01.01.01.01.01.02.01v.01h.01l.01.01h.03l.01.01h.02v.33h-.08l-.02-.01h-.02l-.02-.01-.03-.01-.02-.01-.02-.01-.02-.01-.03-.01-.02-.02-.01-.01-.02-.01-.03-.02-.01-.01-.02-.02-.02-.02-.01-.02-.01-.01-.01-.02-.02-.03-.01-.02-.01-.02-.01-.03-.01-.02V12l-.01-.02v-.02l-.01-.03v-.05zm.34-3.08v3.08h-.34V8.8h.34zm.16-.5v.34h-.05l-.01.01-.02.01-.02.01v.01h-.01l-.01.01v.01h-.01v.01l-.01.01-.01.01v.02l-.01.01v.04h-.34v-.05l.01-.03V8.7l.01-.02v-.02l.01-.03.01-.02.01-.03.01-.02.01-.02.02-.02.01-.02.01-.02.02-.02.02-.01.01-.02.03-.02.02-.01.01-.01.02-.02.03-.01.01-.01.03-.01.02-.01.03-.01.02-.01h.02l.02-.01h.08zm19.28.34h-5.96V8.3h5.96v.34zm.51.16h-.34v-.03l-.01-.01v-.01l-.01-.01v-.01l-.01-.02-.01-.01-.01-.01v-.01h-.01v-.01l-.02-.01h-.01l-.01-.01h-.01l-.01-.01h-.05V8.3h.08l.02.01h.03l.02.01.02.01.03.01.02.01.02.01.02.01.02.02h.02l.02.02.02.02.02.02.01.01.02.02.01.02.02.02.01.02.01.02.02.02.01.03.01.02v.03l.01.02.01.02v.05l.01.03v.02zm-.34 3.08V8.8h.34v3.08h-.34zm-.17.5v-.33h.02l.01-.01h.03l.01-.01h.01l.01-.01.02-.01.01-.01v-.01l.01-.01h.01v-.01l.01-.01v-.01l.01-.01v-.02l.01-.01v-.03h.34v.02l-.01.03v.05l-.01.02-.01.03v.03l-.02.02v.02l-.02.02-.01.02-.01.02-.02.02-.01.02-.02.02-.01.01-.02.02-.02.02-.02.02-.02.01-.01.01-.03.01-.02.01-.02.01-.03.01-.02.01-.02.01h-.03l-.02.01h-.08zm-5.96-.33h5.96v.33h-5.96v-.33zm-.51-.17h.34v.02l.01.01v.03l.01.01v.01l.01.01v.01h.01l.01.01V12l.01.01h.01l.01.01.01.01h.02v.01h.03l.01.01h.02v.33h-.08l-.02-.01h-.02l-.03-.01-.02-.01-.03-.01-.02-.01-.02-.01-.03-.01-.01-.01-.02-.01-.02-.02-.02-.02-.02-.02-.01-.01-.02-.02-.01-.02-.02-.02-.01-.02-.01-.02-.02-.02v-.02l-.01-.02-.01-.03-.01-.03v-.02l-.01-.02v-.03l-.01-.03v-.02zm.34-3.08v3.08h-.34V8.8h.34zm.17-.5v.34h-.05l-.01.01h-.01l-.01.01h-.01l-.01.01h-.01v.01h-.01v.01l-.01.01-.01.01-.01.02v.01l-.01.01v.02l-.01.01v.02h-.34v-.02l.01-.03v-.03l.01-.02v-.02l.01-.02.01-.03v-.02l.01-.03.02-.02.01-.02.01-.02.02-.02.01-.02.02-.02.01-.01.02-.02.02-.02.02-.02h.02l.02-.02.02-.01.02-.01.02-.01.03-.01.02-.01.03-.01h.02l.02-.01h.08z" class="fil1"/></g></g></svg>