<svg xmlns="http://www.w3.org/2000/svg" width="115" height="62" fill-rule="evenodd" clip-rule="evenodd" image-rendering="optimizeQuality" shape-rendering="geometricPrecision" text-rendering="geometricPrecision" viewBox="0 0 115.18 62.45"><defs><style>.fil2{fill:#f5b2b6}.fil1{fill:#2b2a29;fill-rule:nonzero}</style></defs><g id="Слой_x0020_1"><path fill="#99cfba" d="M.2 13.15c2.01-3.25 8.01-2.57 11.4-2.73 6.65-.39 8.36 3.96 9.7 7.85 1.33 2.49 2.7 1.64 4.69 1.77 2.26-1 2.25-2.3 3.98-2.74 4.62-1.16 8 2.96 7.53-.22-.47-2.18-4.04-2.76-5.37-4.91-2.35-2.44-3.77-.4-5.65-.6l-1.26 1.13c0 .02.04-.2-.01.07-.04.26-.58.85-1.12.76-.54-.08-.91-.56-.83-1.07.08-.5.83-.81 1.12-.76.29.04.07.01.11.02 1.49-.1 1.67-1.35-.15-4.19-.74-.46-1.49-.61-2.25-.66-.16.05-.11.1-.52.04-.42-.06-1.09-.71-.99-1.35.11-.64.78-1.08 1.35-.99.58.09.89.47.98.95.7 1.16 1.7 1.22 2.16 1.03.78-.76.01-2.47-.58-2.95-.58-.15-.97-.7-.87-1.32.1-.63.7-1.09 1.35-.99.64.1 1.04.99.98 1.35-.06.37-.04.18-.07.26 0 .78.29 1.73 1.13 1.9.67-.04.92-1.24.43-2.34.02 0 .03.01.05.01-.24-.2-.39-.41-.33-.8.06-.39.57-.8 1.1-.71.53.08.88.65.82 1.01-.05.36-.18.44-.38.57-.32.54-.61 1.64-.04 2.67 1.02.71 1.38-.23 1.79-1.14.09-.37.47-.61.91-.55.43.07.75.46.69.85-.06.4-.45.66-.88.61-.33.18-.65.57-.97 1.15.03 1.87.91 3.07 2.79 3.49 7.88 1.24 11.44 8.62 4.4 12.9 6.88 3.56 15.27 1.71 19.7-.53 1.63-1.04-8.13-4.38-5.91-8.33.43-.96 1.82-1.46 3.36-2.2 1.97-.94 4.29-2.06 6.43-2.96.9-.44.17-1.62-1.47-1.69-.22.3-.66.46-1.13.39-.63-.1-1.07-.59-.99-1.1.08-.51.65-.84 1.28-.74.17.03.33.09.47.16.16.09.29.21.38.35.28.19.63.39.84.44.96.08.15-1.38-1.26-2.05-.11.03-.24.04-.37.02-.5-.08-.84-.55-.76-1.06.07-.5.55-.85 1.05-.77.5.08.85.55.77 1.06l-.01.02c.71 1.18 1.26 1.41 1.72 1.01.81-.89.31-1.63-.29-2.35-.49-.14-.81-.63-.73-1.15.09-.56.61-.94 1.17-.86.57.09.95.62.86 1.18-.01.08-.03.16-.06.23-.17.54-.24 1.85 1.17 2.31.46.01.26-.87-.15-1.69-.05-.06-.08-.13-.11-.2-.04-.12-.06-.26-.04-.4.08-.48.57-.8 1.1-.71.53.08.9.53.82 1.01-.02.12-.06.23-.13.33l-.01.02c-.62.88-.53 2.12.27 2.97.51.36.95-.3 1.4-.91.1-.48.6-.8 1.15-.72.56.09.95.57.87 1.07-.08.51-.6.84-1.16.76l-.02-.01c-.86.09-1.52.32-1.51 1.04.76.73 1.15 2.59-.42 3.9-2.56 2.14-8 3.17-7.16 4.35.97 1 4.81.95 7.11 1.65 6.04.32 19.28-10.24 32.9-5.25 10.98 4.02 16.98 13.54 16.46 26.59-.65 14.49-8.62 21.94-14.53 23.85-1.89.61-4.92 1.07-7.93.38-4.75-1.08-9.38-4.47-8.96-10.44.36-8.53 12.28-8.56 13.35-3.16.96 5.65-6.11 6.33-6.22 2.51.09-3.37 3.75-3.16 4.4-1.35.41.99-.47 2.69-2.07 1.97-.8-.37-.89-1.62.53-1.48-.21-.76-1.43-1-2.05 0-1.02 2.15 2.03 3.54 3.67 1.88 2.51-2.45-.31-5.97-4.07-5.83-3.6-.07-5.21 2.89-5.5 4.73-.35 2.24.11 5.29 2.71 7.26 1.6 1.21 4.13 2.4 7.64 2.21 13.37-.38 18.7-21.64 14.18-28.02-3.51-8.57-13.04-13.19-20.67-12.89-6.92.27-12.02 4.71-14.39 11.4 1.7.87 2.56 1.85 2.98 2.87 2.1-.99 3.56-4.67 5.75-5.46 1.9-.69 2.61 1.5 3.64 1.01.81 0 1.45-.74 1.68-1.44.17-.58.75-.96 1.36-.86.67.1 1.12.72 1.02 1.39-.1.61-.62 1.04-1.22 1.03-.69.05-1.47.33-1.84.59-.5.62-.27 1.27.62 1.95.61.16 1.33.19 2.12.09.21-.12.47-.17.74-.13.6.09 1.02.6.94 1.14-.09.54-.64.9-1.24.81-.29-.05-.54-.19-.71-.39-.51-.3-1.1-.63-1.54-.6-.5.08-.73.38-.53 1.08.54 1.19 1.53 1.21 2.48 1.31l-.01.02c.07 0 .13 0 .2.01.63.1 1.07.65.98 1.22-.09.57-.67.96-1.3.86-.41-.07-.74-.32-.89-.64-.57-1.14-1.85-2.44-2.82-1.24-.71 1.05.46 1.62.7 1.86.31.19.5.56.44.94-.08.51-.55.85-1.05.77-.41-.06-.72-.39-.77-.78-.01-.09-.01-.18 0-.27.01-.08.03-.15.06-.22.11-1.35-.45-2.12-1.43-2.54-.32.37-.05 1.02.1 2.05.01.04.01.07.01.11.02.12.01.24-.01.36-.1.66-.64 1.13-1.2 1.04-.56-.09-.93-.7-.82-1.36.01-.1.04-.2.07-.29.1-.24.24-.43.43-.57 1.44-2.26-.62-3.57-1.27-2.67-1.67 2.04-3.38 4.91-5.86 5.24-2.38.33-2.6-2.82-8.82-5.5-10.94 12.64-30.66 10.85-40.14 2.24.47 1.67 1.43 3.56-.47 6.3-1.71 2.46-8.75 4.85-11.33 3.65-1.85-.54-3.12-.22-4.05 1.41 0 .66.1 1.15.29 1.48.41.16.62.57.49.95-.14.37-.6.56-1.02.41-.41-.15-.63-.55-.53-.92.08-.99.21-1.98-1.02-1.86-1 .63-1.28 1.74-1.25 2.36.11.21.18.34.06.68-.12.35-.71.68-1.21.49-.51-.18-.75-.78-.62-1.15.14-.37.37-.48.67-.54-.01 0-.03-.01-.04-.01.95-.74 1.31-1.91.74-2.26-.81-.26-1.52.43-1.9 1.12-.01.09.06-.09-.06.26-.13.35-.9.93-1.51.71-.62-.23-.93-.92-.71-1.52.22-.59.82-.89 1.4-.74.75-.13 2.24-1.26 1.93-2.3-.31-.39-1.21-.82-2.39-.14-.31.37-.77.56-1.31.36-.55-.2-.93-.9-.71-1.51.22-.62 1.12-.86 1.51-.71.39.14.33.16.45.28.68.33 1.41.55 2.28.51 2.97-1.62 3.41-2.8 2.15-3.61-.04 0 .17.07-.11-.03-.27-.1-.79-.73-.61-1.21.17-.48.73-.72 1.25-.53.51.18.7.96.61 1.21-.09.25-.02.04-.03.06l.56 1.6c1.75.73 2.01 3.2 5.24 2.19 1.51-.85 2.65-1.94 4.11-1.88 3.15-1.6 2.32-3.29.85-4.59-2.36-2.07-1.73-4.11-1.71-4.92.44-2.02-.08-4.43-3.61-3.64-3.95.45-8.11.74-10.26-.83-1.94-1.42-2.6-4.07-3.65-5.58-1.19-1.41-2.44-4.21-2.2-8.15z"/><path id="1" d="M11.59 10.25l.02.34-.33.02-.34.01h-.72l-.38.01H8.27l-.41.01-.41.01-.41.02-.41.02-.41.03-.41.03-.41.05-.4.05-.39.06-.39.07-.38.09-.37.09-.36.11-.35.12-.34.14-.32.15-.3.17-.29.19-.27.2-.26.22-.23.24-.21.26-.2.28-.29-.18.21-.31.24-.28.25-.26.27-.24.29-.21.31-.2.33-.18.34-.16.35-.14.36-.13.38-.11.38-.1.39-.09.4-.07.41-.07.4-.05.42-.04.41-.04.42-.03.42-.02.41-.02.42-.01h.41l.4-.01h1.17l.38-.01h.71l.34-.01.32-.02zm.02.34h.01-.01zm9.84 7.6l-.3.16-.01-.02-.12-.37-.13-.36-.14-.37-.13-.37-.15-.36-.15-.36-.15-.36-.17-.36-.17-.35-.18-.34-.19-.33-.21-.33-.21-.32-.23-.31-.24-.29-.25-.29-.27-.28-.29-.25-.3-.25-.32-.23-.33-.21-.36-.2-.38-.18-.4-.16-.42-.14-.44-.13-.47-.1-.49-.07-.52-.06-.54-.03h-.58l-.6.02-.02-.34.62-.02h.58l.57.03.53.06.51.08.49.1.46.13.44.15.42.17.39.19.38.2.35.23.34.24.32.26.29.27.29.29.26.29.25.31.24.32.22.33.21.34.2.35.18.35.18.36.17.36.16.36.15.37.14.37.14.37.14.37.13.37.12.37-.01-.03zm-.3.16v-.01l-.01-.01.01.02zm4.77 1.54l.14.31-.08.01h-.18l-.18-.01h-.34l-.17.01h-.17l-.16.01-.17.01-.16.01h-.15l-.16.01h-.31l-.15-.01-.16-.01-.15-.02-.15-.03-.14-.03-.15-.05-.15-.05-.14-.07-.15-.08-.14-.09-.14-.1-.14-.11-.13-.13-.14-.15-.13-.16-.13-.17-.13-.2-.13-.21-.13-.23.3-.16.13.22.12.2.12.18.12.16.12.15.12.13.12.11.12.1.12.09.12.08.13.07.12.05.13.05.12.04.13.03.13.02.14.02.14.01.14.01H24.13l.15-.01h.16l.16-.01.16-.01h.17l.17-.01.17-.01h.36l.19.01.19.01-.09.01zm.14.31l-.04.02-.04-.01.08-.01zm3.87-3.07l.08.33-.15.05-.14.04-.13.05-.13.06-.11.05-.11.06-.1.07-.11.07-.09.07-.1.08-.09.08-.09.08-.09.09-.09.08-.09.09-.09.1-.09.09-.1.1-.1.1-.1.1-.11.11-.12.1-.12.1-.13.11-.14.1-.14.11-.16.1-.16.1-.18.1-.18.1-.2.1-.21.1-.14-.31.21-.09.18-.1.18-.09.16-.1.16-.1.14-.09.14-.1.13-.1.12-.1.12-.1.1-.1.11-.09.1-.1.1-.1.09-.09.1-.1.09-.09.09-.1.1-.09.09-.09.1-.09.1-.08.1-.09.11-.08.11-.07.12-.08.12-.07.13-.06.14-.06.15-.06.15-.05.17-.05zm7.4-.02l.34-.07v.01l.03.29.01.25-.01.22-.04.19-.06.16-.11.14-.13.1-.15.06-.16.02-.17-.01-.19-.02-.19-.05-.21-.06-.22-.07-.24-.08-.24-.09-.27-.09-.27-.1-.29-.09-.3-.1-.32-.09-.32-.09-.34-.08-.35-.07-.36-.06-.37-.04-.37-.03h-.39l-.39.01-.41.04-.41.06-.42.09-.08-.33.44-.09.43-.07.42-.04.42-.01h.4l.39.03.39.04.37.06.36.08.35.08.33.09.33.09.3.1.3.1.28.1.26.09.25.09.23.08.21.07.19.05.18.04.15.02.12.01.1-.01.07-.03.05-.04.05-.06.04-.1.02-.13.01-.18-.01-.22-.03-.27v.01zm.34-.07v.01-.01zM32 12.29l.25-.24.02.03.13.19.13.18.15.17.16.17.17.16.17.16.19.15.19.14.2.14.2.14.21.14.21.13.21.13.21.13.21.13.22.13.2.13.21.13.2.13.2.13.19.14.19.14.18.15.17.15.15.16.15.16.14.17.12.18.11.18.09.2.08.21.06.21-.34.07-.05-.18-.06-.18-.08-.17-.09-.16-.11-.16-.13-.15-.13-.15-.15-.14-.15-.14-.17-.14-.18-.13-.18-.13-.2-.14-.19-.12-.21-.13-.2-.13-.21-.13-.22-.13-.21-.13-.21-.13-.22-.14-.21-.14-.21-.14-.2-.14-.2-.16-.19-.15-.19-.17-.18-.17-.17-.18-.16-.19-.15-.19-.14-.21.02.03zm.25-.24l.01.02.01.01-.02-.03zm-5.65-.36l-.23-.25.13-.04.16.01h.16l.16-.01.16-.02.16-.03.16-.03.16-.04.16-.04.16-.05.16-.05.16-.05.17-.05.16-.05.17-.05.17-.04.17-.04.17-.03.18-.02.18-.02h.18l.18.01.19.02.2.04.19.05.2.07.2.09.2.11.21.13.21.15.22.17.22.2.22.22-.25.24-.21-.21-.2-.19-.2-.16-.2-.14-.18-.11-.19-.1-.18-.08-.17-.06-.17-.05-.17-.03-.16-.02-.17-.01h-.16l-.16.02-.16.02-.16.03-.16.03-.15.04-.16.05-.16.05-.16.05-.17.05-.16.05-.17.05-.16.04-.17.04-.17.04-.18.03-.18.02-.18.01h-.18l-.19-.02.14-.04zm-.23-.25l.05-.05.08.01-.13.04zm-1.26 1.13l1.26-1.13.23.25-1.26 1.14-.29-.14.06-.12zm-.06.12l.01-.07.05-.05-.06.12zm.33.11l-.33-.06v-.06l.01-.02v-.03.01-.02l.01-.01-.01.03h.34v.04-.01.03-.02.02l-.01.01v.01-.02.04-.01.01l-.01.01-.33-.05v-.01l.34.02v-.01l-.33-.05v.01-.01.02-.04.01l.01-.03-.01.01h.01v-.02l-.01.04h.34V12.71l-.01.01v.05l-.01.03zm-1.31.9l.05-.34.04.01h.11l.04-.01.04-.01.04-.01.04-.01.04-.02.04-.02.04-.02.04-.02.03-.02.04-.03.04-.02.03-.03.04-.03.03-.03.03-.03.03-.03.03-.03.02-.03.03-.03.02-.03.02-.02.02-.03.01-.03.01-.02.01-.02.01-.03.01-.02.33.06-.01.04-.01.04-.01.04-.02.04-.02.04-.02.03-.03.04-.02.04-.04.04-.03.04-.03.04-.03.04-.04.04-.04.03-.04.04-.04.04-.05.03-.04.03-.05.03-.05.04-.05.02-.05.03-.06.03-.05.02-.06.02-.06.01-.05.02h-.06l-.07.01h-.12l-.06-.01zm-.98-1.26l.34.05-.01.04V12.68l.01.04v.03l.01.04.01.03.02.04.01.03.01.03.02.04.02.03.02.03.03.03.02.03.03.03.02.03.03.02.03.03.03.02.03.02.04.03.03.01.04.02.04.02.03.01.05.02.03.01.05.01h.04l-.05.34-.06-.01-.06-.01-.06-.02-.05-.02-.05-.02-.05-.02-.06-.02-.04-.03-.05-.03-.05-.03-.04-.03-.04-.04-.04-.04-.04-.04-.04-.04-.03-.04-.03-.04-.03-.05-.03-.04-.03-.05-.02-.05-.02-.05-.02-.05-.02-.05-.01-.05-.01-.06-.01-.05V12.5l.01-.06zm1.31-.91l-.05.34h-.01l-.02-.01-.03.01h-.05l-.03.01h-.04l-.03.01-.04.01-.04.02-.04.01-.04.02-.04.01-.04.02-.04.02-.04.02-.04.03-.03.02-.04.02-.03.03-.04.03-.03.03-.03.03-.03.03-.02.03-.02.03-.02.03-.02.03-.02.03-.01.04-.01.03v.03l-.34-.05.01-.06.02-.06.02-.06.02-.05.03-.05.04-.05.03-.05.04-.05.04-.04.04-.04.04-.04.05-.04.04-.03.05-.03.05-.04.05-.02.04-.03.06-.03.04-.02.05-.02.05-.02.05-.02.05-.01.05-.01.05-.02.04-.01.05-.01h.09l.04-.01.04.01h.04zm.08.02l.02.34h-.05l-.02-.01.05.01v-.34h.05-.02.03l.01.01-.03-.01h.01l-.08.33.05.01h-.03l-.01-.01h-.04l-.02-.01h-.05l.05-.34h.03l.03.01h.03l.02.01h.03l.01.01v-.01l.01.01.05.01-.08.32h-.04.02-.04.02-.01v-.34l.06.01h-.01l-.05-.01zm.02.34h-.05.05zm-.25-4.22l.18-.29.05.06.17.26.15.25.14.25.14.24.12.23.11.22.1.21.09.2.07.2.07.19.06.18.04.17.04.16.03.16.01.15.01.14-.01.14-.02.13-.03.13-.04.11-.05.11-.06.11-.07.09-.09.08-.09.07-.1.07-.11.05-.12.05-.13.04-.13.03-.14.02-.14.01-.02-.34.12-.01.12-.02.11-.02.1-.03.09-.04.08-.04.07-.04.07-.05.05-.06.05-.06.04-.07.04-.07.03-.09.02-.09.01-.1.01-.11-.01-.12-.01-.13-.02-.13-.04-.15-.04-.16-.05-.17-.06-.17-.08-.19-.08-.19-.1-.2-.1-.22-.12-.22-.13-.23-.14-.24-.15-.25-.17-.26.06.05zm.18-.29l.03.02.02.04-.05-.06zm-2.28-.35l-.11-.32.06-.01.08.01h.07l.07.01h.07l.08.01.07.01.07.01.07.01.08.01.07.01.07.02.07.01.08.02.07.02.07.01.08.02.07.02.07.02.07.03.07.02.08.03.07.02.07.03.08.03.07.03.07.04.07.03.08.04.07.04.07.04.07.04.08.04-.18.29-.07-.04-.07-.04-.06-.03-.07-.04-.07-.03-.06-.03-.07-.03-.07-.03-.06-.03-.07-.03-.07-.02-.06-.03-.07-.02-.07-.02-.07-.02-.07-.02-.06-.02-.07-.01-.07-.02-.06-.01-.07-.02-.07-.01-.07-.01-.07-.01-.07-.01-.06-.01-.07-.01-.07-.01h-.07l-.07-.01h-.07l-.07-.01.07-.01zm-.11-.32l.03-.01h.03l-.06.01zm-.5.37l.05-.34.04.01h.03l.03.01h.08l.02.01H21.9v-.01h.02l.01-.01h.02l.01-.01.01-.01h.02l.02-.01.02-.01h.01l.11.32-.02.01h-.02v.01h-.02l-.01.01h-.01l-.01.01h-.01l-.02.01-.02.01h-.02l-.02.01h-.03l-.02.01h-.15l-.03-.01h-.06l-.03-.01h-.03l-.04-.01h-.04zm-1.12-1.55l.33.06v.04l-.01.05.01.05v.05l.01.05.01.05.01.05.02.05.02.04.02.05.02.05.03.05.03.04.03.05.03.04.04.04.03.05.04.03.03.04.04.04.04.03.04.03.04.03.04.03.04.03.04.02.03.02.04.01.03.02.04.01.03.01h.02l-.05.34-.05-.01-.05-.02-.05-.01-.06-.02-.05-.03-.05-.02-.05-.03-.05-.04-.05-.03-.05-.04-.05-.04-.05-.04-.04-.04-.05-.05-.04-.05-.05-.05-.04-.05-.04-.05-.04-.06-.03-.06-.04-.06-.03-.06-.03-.06-.02-.07-.02-.06-.02-.07-.02-.07-.01-.07v-.07l-.01-.07.01-.07.01-.08zm1.54-1.12l-.05.33h-.05l-.04-.01h-.05l-.05.01h-.04l-.05.01h-.05l-.04.02-.05.01-.05.01-.04.02-.05.02-.04.02-.05.03-.04.02-.04.03-.04.03-.04.03-.04.04-.03.03-.04.04-.03.04-.03.04-.03.04-.03.04-.02.04-.02.05-.02.04-.02.05-.02.05-.01.05-.01.05-.33-.06.01-.07.02-.06.02-.07.02-.06.03-.07.03-.06.03-.06.04-.05.03-.06.04-.05.05-.05.04-.05.05-.05.05-.04.05-.04.05-.04.06-.03.05-.04.06-.03.06-.03.06-.02.06-.03.06-.02.06-.02.06-.01.07-.01.06-.01h.06l.07-.01h.06l.06.01.07.01zm1.09 1.02l-.29.17-.02-.05-.01-.04-.01-.04-.01-.04-.01-.03-.01-.04-.01-.04-.02-.03-.02-.03-.01-.04-.02-.03-.02-.03-.02-.03-.02-.03-.02-.03-.03-.02-.02-.03-.03-.03-.02-.02-.03-.02-.03-.03-.03-.02-.03-.02-.04-.02-.03-.02-.04-.01-.03-.02-.04-.01-.05-.02-.04-.01-.04-.01-.05-.01-.04-.01.05-.33.06.01.05.01.06.01.06.02.05.02.05.02.05.02.05.02.05.03.04.02.05.03.04.03.04.03.04.03.04.04.03.03.04.04.03.04.03.03.03.05.03.04.02.04.03.04.02.05.02.04.02.05.02.04.01.05.02.05.01.05.01.05.02.04-.03-.05zm-.29.17l-.01-.02-.01-.03.02.05zm2.19.83l.24.25-.05.03-.06.02-.05.02-.06.02-.06.01-.06.01-.07.01h-.28l-.08-.01-.07-.01-.08-.01-.08-.02-.08-.02-.08-.03-.08-.03-.09-.03-.08-.04-.08-.05-.08-.05-.09-.05-.08-.06-.08-.06-.08-.07-.08-.08-.08-.08-.07-.09-.08-.09-.07-.1-.08-.1-.07-.12.29-.17.07.1.06.09.07.09.06.08.07.08.07.07.07.07.07.06.07.05.07.05.07.05.07.04.07.04.06.03.07.03.07.02.07.02.06.02.07.02.06.01.06.01h.06l.06.01h.06l.05-.01h.06l.05-.01.05-.01h.04l.04-.02.04-.01.04-.01-.06.03zm.24.25l-.02.02-.03.01.05-.03zm-.74-2.91l.08-.33.07.03.06.06.06.06.07.07.06.07.06.08.06.08.06.09.06.09.05.1.06.1.05.1.04.11.05.11.04.11.04.11.04.12.03.11.03.12.02.12.01.11.02.12V5.74l-.01.12-.01.11-.03.11-.03.11-.04.11-.05.1-.06.1-.07.09-.08.09-.24-.25.06-.06.05-.06.04-.08.04-.07.03-.08.02-.08.02-.09.01-.09.01-.09v-.2l-.01-.1-.02-.1-.02-.1-.02-.11-.03-.1-.03-.1-.04-.11-.03-.09-.05-.1-.04-.1-.05-.09-.05-.1-.05-.08-.05-.09-.05-.07-.05-.08-.06-.07-.05-.06-.05-.05-.05-.05-.05-.04.07.03zm.08-.33l.04.01.03.02-.07-.03zm-1.08-1.19l.34.05-.01.05v.05l-.01.05.01.05v.1l.01.04.01.05.01.05.01.04.02.05.01.04.02.04.02.04.03.04.02.04.03.03.03.04.02.03.03.03.04.04.03.03.04.03.03.02.04.03.04.02.04.02.04.03.05.01.04.02.05.02.04.01-.08.33-.06-.02-.06-.02-.06-.02-.06-.03-.06-.02-.05-.03-.05-.04-.05-.03-.05-.04-.05-.04-.05-.04-.04-.04-.04-.04-.04-.05-.04-.05-.03-.05-.03-.05-.03-.05-.03-.05-.03-.06-.02-.06-.02-.06-.02-.05-.01-.07-.02-.06v-.06l-.01-.06v-.07l-.01-.06.01-.07v-.06l.01-.07zm1.54-1.13l-.05.34-.05-.01H24.74l-.05.01h-.05l-.05.01-.05.01-.05.01-.04.02-.05.02-.04.02-.05.02-.04.02-.04.03-.04.03-.04.03-.04.03-.03.04-.04.03-.03.04-.03.04-.03.03-.02.05-.03.04-.02.04-.02.05-.02.04-.02.05-.01.04-.01.05-.01.05-.34-.05.01-.07.02-.06.02-.07.02-.06.02-.06.03-.06.03-.06.04-.05.03-.06.04-.05.04-.05.04-.05.05-.05.05-.04.05-.04.05-.04.05-.04.05-.04.06-.03.06-.03.06-.03.06-.02.06-.02.07-.02.06-.01.07-.02h.06l.07-.01h.2l.07.01zm1.13 1.55l-.34-.05v-.03l.01-.03-.01-.02V2.5l-.01-.04v-.04l-.01-.04-.01-.04-.02-.05-.01-.04-.02-.05-.02-.05-.03-.05-.02-.05L25.6 2l-.02-.04-.03-.05-.04-.04-.03-.05-.03-.04-.04-.04-.04-.04-.04-.04-.04-.03-.04-.03-.04-.03-.04-.03-.05-.02-.04-.02-.05-.02-.04-.01-.05-.01.05-.34.07.02.07.02.08.02.06.03.06.03.06.04.06.04.05.04.06.05.05.05.05.04.04.06.05.05.04.06.04.05.03.06.04.06.03.05.03.06.03.06.02.06.02.06.03.06.01.05.02.06.01.06.01.05.01.05v.05l.01.06-.01.05v.05zm-.07.23h-.34l.01-.06v-.01l.01-.02.02-.02.02-.03v-.01l.05-.03.07-.02.08.02.05.04-.04-.03-.08-.02-.12.05h.01l-.04.04v.02h-.01l.01-.01v.01-.03l.01-.01v-.05l.01-.03v-.02l.01-.03v-.03l.34.05-.01.03v.03l-.01.03v.05l-.01.01v.02l-.01.02v.05h-.01v.01l-.01.03-.03.05h-.01l-.12.05-.07-.02h-.01L25.78 3l.04.03.07.01.08-.01.04-.04V3l.02-.03.01-.01v-.01.01l.01-.06zm-.34 0v-.04l.01-.02-.01.06zM27 4.63l.02.34h-.05l-.08-.02-.09-.03-.08-.03-.08-.03-.07-.05-.07-.04-.07-.05-.06-.05-.06-.05-.06-.06-.05-.06-.05-.07-.05-.06-.04-.07-.05-.07-.03-.07-.04-.08-.03-.07-.03-.08-.03-.08-.02-.08-.02-.08-.02-.07-.02-.08-.01-.09-.02-.08-.01-.08-.01-.08v-.08l-.01-.08V2.9h.34v.14l.01.07v.07l.01.07.01.08.01.07.01.07.02.07.02.07.02.07.02.07.02.06.03.07.02.06.03.06.03.06.04.06.03.06.04.05.04.05.04.05.04.04.05.04.05.04.05.04.05.03.05.03.06.02.06.03.06.02.07.01H27zm.02.34h-.05.05zm.45-2.68l-.05.34.18-.24.04.11.04.11.04.11.03.11.03.11.03.11.02.11.01.1.01.11.01.1V3.78l-.01.1-.01.09-.01.09-.03.09-.02.09-.02.08-.04.08-.03.08-.04.07-.04.07-.05.06-.05.06-.06.05-.06.05-.07.04-.07.04-.07.02-.08.02-.08.01-.02-.34.04-.01h.04l.04-.02.04-.02.03-.02.04-.03.03-.03.03-.03.04-.05.03-.04.02-.06.03-.05.02-.06.03-.07.01-.07.02-.07.01-.08.02-.08v-.35l-.01-.09-.01-.09-.01-.1-.02-.09-.02-.1-.02-.1-.03-.1-.04-.09-.03-.1-.04-.1.18-.24zm-.18.24l-.13-.28.31.04-.18.24zm.09.07l.22-.27-.12.31h.01l-.08-.02.07.01h-.01l-.07-.01.02.01h.05-.06l-.02-.02.07.02-.06-.01.05.01-.08-.02.02.01.05.01h-.02l.05-.34h-.03l.06.01.02.01-.07-.02.06.01-.05-.01.08.02-.02-.01-.05-.01.05.01.03.01-.08-.01h.01l.08.01-.07-.01h.01l-.12.3zm.22-.27l.42.35-.54-.04.12-.31zm-.61-.68l.34.05v.03l-.01.03v.16l.01.01v.02l.01.03v.03l.01.02.01.02.01.02v.02l.01.01.02.02v.01l.02.02.01.02.01.02.02.01.01.02.02.02.01.01.02.02.02.01.02.02.02.02.02.01-.22.27-.02-.02-.03-.02-.02-.02-.02-.02-.02-.02-.03-.03-.02-.02-.02-.02-.02-.03-.02-.02-.02-.03-.02-.02-.01-.03-.02-.03-.02-.03-.01-.03-.01-.03-.01-.02-.02-.03-.01-.04-.01-.04v-.02l-.01-.04-.01-.04V1.73l.01-.05v-.03zm1.29-.86l-.05.34-.04-.01h-.16l-.04.01h-.04l-.04.01-.03.01-.04.02-.04.01-.03.02-.04.01-.03.02-.04.03-.03.01-.03.03-.03.02-.03.03-.02.02-.03.03-.02.03-.03.02-.02.03-.01.03-.02.03-.02.02-.01.03-.01.03-.01.03v.02l-.01.03-.34-.05.01-.05.01-.05.02-.05.02-.04.02-.05.02-.04.03-.04.02-.04.04-.05.03-.04.03-.03.04-.04.04-.04.03-.03.04-.03.05-.03.04-.03.05-.03.04-.03.05-.02.05-.02.05-.02.06-.02.05-.02.05-.01.06-.01.05-.01H28.22l.06.01zM29.25 2l-.34-.06.01-.02v-.08l-.01-.02v-.03l-.01-.03-.01-.04-.01-.03-.01-.03-.02-.03-.01-.04-.02-.03-.02-.03-.02-.04-.03-.03-.02-.03-.03-.03-.02-.03-.03-.03-.03-.02-.03-.03-.03-.03-.04-.02-.03-.02-.03-.02-.04-.02-.04-.01-.03-.02-.04-.01-.04-.01h-.04l.05-.34.06.01.06.01.06.02.05.02.06.03.05.02.04.03.05.03.05.03.04.04.04.03.04.04.04.04.04.04.03.04.04.04.03.04.03.05.02.04.03.05.02.04.02.05.02.05.02.04.01.05.01.05.01.04.01.05v.14l-.01.05zm-.41.63l-.29-.17.06-.06.01-.01.02-.01.02-.01.02-.02.01-.01.02-.01.01-.01.01-.01.02-.01h.01l.01-.01.01-.01.01-.02.01-.01.01-.01.01-.01.01-.01v-.01l.01-.02.01-.01.01-.01v-.02l.01-.02.01-.01V2.1l.01-.03v-.02l.01-.02V2l.01-.03v-.03l.34.06-.01.04v.03l-.01.03-.01.03v.04l-.01.03-.01.02-.01.04-.02.02-.01.03-.01.02-.01.03-.01.02-.02.03-.02.02-.01.02-.01.01-.02.03-.02.02-.02.01-.01.02-.02.02-.02.01-.02.02-.02.01-.02.01-.02.02-.02.01-.01.01-.02.01-.02.01-.02.02.05-.06zm-.29-.17l.02-.04.04-.02-.06.06zm.21 2.61l-.19.28-.06-.06-.05-.1-.05-.1-.05-.11-.03-.1-.04-.11-.03-.1-.03-.1-.02-.11-.02-.1-.01-.1-.01-.1v-.1l-.01-.1v-.1l.01-.09v-.1l.02-.09.01-.09.01-.09.02-.09.02-.08.02-.08.02-.08.03-.08.02-.08.03-.07.03-.07.03-.07.03-.07.03-.06.03-.06.03-.05.29.17-.02.05-.03.05-.03.05-.02.06-.03.06-.02.06-.03.07-.02.06-.02.07-.02.07-.02.08-.02.07-.01.08-.02.08-.01.08-.01.08v.09l-.01.08v.09l.01.09v.08l.01.09.01.09.02.09.02.09.02.09.03.09.03.09.03.1.04.08.04.09.05.1-.05-.06zm-.19.28l-.04-.02-.02-.04.06.06zm1.72-1.32l.33.08-.01.03-.04.09-.04.08-.04.09-.04.08-.04.09-.04.08-.04.08-.04.08-.04.08-.04.08-.05.07-.05.07-.04.07-.06.07-.05.06-.06.06-.06.05-.06.05-.07.05-.07.03-.08.03-.08.03-.08.01-.08.01-.09-.01-.09-.01-.09-.02-.09-.03-.1-.04-.1-.05-.09-.05-.1-.07.19-.28.09.06.08.04.07.04.07.03.07.02.06.02h.06l.05.01.05-.01.05-.01.04-.01.05-.02.04-.02.04-.03.04-.03.05-.04.04-.04.04-.05.04-.05.04-.06.04-.06.04-.07.04-.07.04-.07.04-.07.04-.08.04-.08.03-.08.04-.08.04-.09.04-.08.04-.09-.01.03zm.33.08v.01l-.01.02.01-.03zm.77-.75l-.06.33h-.03l-.03-.01h-.1l-.03.01h-.03l-.03.01h-.03l-.03.01-.03.01-.02.01-.03.01-.03.01-.02.02-.03.01-.02.01-.02.02-.02.02-.03.02-.01.01-.02.02-.02.02-.02.03-.01.02-.01.02-.02.02-.01.02-.01.03-.01.02-.01.03v.02l-.33-.08.01-.04.01-.04.02-.04.01-.04.02-.04.02-.04.03-.04.02-.03.03-.03.03-.04.03-.03.03-.03.03-.02.03-.03.04-.03.04-.02.03-.02.04-.02.04-.02.04-.02.04-.01.05-.02.04-.01.04-.01.05-.01h.04l.05-.01h.14l.05.01h.05v.01zm.83 1.04l-.34-.05.01-.03v-.08l-.01-.03v-.05l-.01-.03-.01-.02-.01-.03-.01-.02-.02-.03-.01-.02-.02-.03-.01-.02-.02-.03-.02-.02-.02-.02-.02-.02-.02-.02-.03-.02-.02-.02-.03-.02-.03-.01-.02-.02-.03-.01-.03-.01-.03-.02-.03-.01h-.03l-.03-.01-.04-.01.06-.33h.04l.05.02.05.01.04.01.05.02.04.02.05.02.04.02.03.03.04.02.04.03.04.03.03.03.03.03.03.04.03.03.03.04.03.03.02.04.02.04.02.04.02.04.02.04.01.04.02.05v.04l.01.05.01.05v.13l-.01.05zm-.97.72l-.17-.29.11-.02h.16l.03-.01h.03l.03-.01h.03l.03-.01.02-.01.03-.01.03-.02.03-.01.02-.01.02-.02.03-.02.02-.01.02-.02.02-.02.02-.02.02-.02.01-.02.01-.02.02-.02.01-.03.01-.02.01-.03.01-.02.01-.03.01-.02v-.03l.34.05-.01.05-.01.04-.01.04-.02.05-.02.04-.01.04-.03.04-.02.04-.02.03-.03.04-.03.03-.03.03-.03.03-.04.03-.03.03-.04.02-.03.03-.04.02-.04.02-.04.02-.04.01-.04.02-.05.01-.04.01-.05.01-.04.01-.05.01H31.15l.1-.03zm-.17-.29l.05-.03.06.01-.11.02zm-.71 1.3h-.34l.02-.08.03-.06.03-.05.03-.05.03-.06.04-.05.03-.05.03-.05.03-.04.03-.05.03-.04.03-.05.04-.04.03-.04.03-.04.03-.04.03-.04.03-.04.04-.04.03-.03.03-.04.03-.03.04-.03.03-.03.03-.03.04-.03.03-.03.03-.03.04-.02.03-.02.03-.03.04-.02.03-.02.17.29-.02.02-.03.01-.02.02-.03.02-.03.02-.03.03-.03.02-.02.02-.03.03-.03.02-.03.03-.02.03-.03.03-.03.03-.03.03-.03.04-.03.03-.03.04-.02.03-.03.04-.03.04-.03.04-.03.04-.03.05-.03.04-.03.05-.02.04-.04.05-.02.05-.03.05-.03.05-.03.05.02-.08zm-.34 0v-.04l.02-.04-.02.08zm2.98 3.32l-.05.34h-.01l-.18-.05-.17-.04-.17-.06-.16-.05-.16-.07-.15-.06-.14-.07-.14-.08-.14-.08-.12-.09-.13-.09-.11-.09-.12-.11-.1-.1-.1-.11-.09-.12-.09-.11-.08-.13-.08-.12-.07-.14-.07-.13-.06-.14-.05-.15-.05-.14-.04-.16-.04-.15-.03-.16-.03-.17-.02-.16-.01-.17-.02-.18v-.18h.34v.17l.02.16.01.16.02.16.02.15.03.14.04.15.04.14.04.13.05.13.05.13.06.12.06.12.07.11.08.11.07.1.09.11.09.09.09.1.1.09.1.08.11.08.12.08.12.07.12.07.14.07.13.06.15.06.15.05.16.05.16.04.16.04h-.01zm-.05.34h-.01.01zm4.51 12.58l-.16.3-.01-.3.62-.4.56-.42.5-.43.44-.45.38-.45.33-.46.27-.47.22-.48.17-.48.12-.48.07-.48.02-.48-.03-.48-.07-.48-.11-.47-.16-.47-.21-.45-.24-.45-.29-.44-.32-.42-.37-.41-.4-.39-.43-.38-.48-.35-.51-.33-.54-.31-.57-.29-.6-.26-.64-.22-.66-.2-.69-.17-.72-.13.05-.34.74.14.71.17.68.2.65.24.62.26.59.3.56.32.53.34.49.37.45.39.42.4.38.43.34.45.3.45.26.48.21.48.17.49.13.5.07.51.03.51-.02.52-.08.51-.12.52-.18.51-.24.5-.28.5-.35.49-.4.47-.46.47-.52.45-.57.43-.64.41-.01-.29zm-.16.3l-.27-.14.26-.16.01.3zM57 21.85l.18.28-.01.01-.43.21-.45.21-.48.2-.49.2-.52.19-.53.19-.55.17-.56.17-.58.16-.6.15-.6.13-.62.13-.64.11-.64.09-.65.08-.66.07-.66.05-.68.02-.67.02-.69-.01-.68-.03-.69-.06-.69-.07-.69-.1-.69-.12-.69-.15-.68-.18-.68-.2-.68-.23-.67-.26-.66-.29-.66-.32.16-.3.64.31.65.29.66.25.66.23.67.2.67.17.68.14.67.13.68.09.68.07.68.06.67.03.68.01.66-.02.67-.02.66-.05.65-.06.64-.08.63-.1.62-.11.62-.12.6-.13.58-.15.58-.16.55-.16.55-.18.52-.18.5-.19.49-.19.47-.2.44-.2.43-.21-.02.01zm.18.28l-.01.01h.01v-.01zm-6.16-8.54l.31.14-.01.01-.16.35-.1.34-.04.33.01.33.06.33.11.32.15.33.19.32.22.32.26.31.29.31.31.3.33.3.34.29.36.28.36.28.37.27.36.25.36.26.35.24.33.23.31.22.29.22.27.2.23.19.2.19.16.18.12.18.07.19.01.2-.09.19-.17.14-.18-.28.08-.07.02-.05v-.06l-.04-.1-.08-.13-.14-.15-.18-.17-.23-.18-.25-.2-.29-.21-.31-.22-.33-.23-.35-.25-.35-.25-.37-.26-.37-.27-.37-.28-.36-.29-.36-.29-.34-.31-.32-.31-.3-.33-.27-.33-.24-.34-.21-.34-.16-.36-.12-.37-.07-.37-.01-.38.05-.39.11-.39.19-.39-.01.01zm.31.14l-.01.01.01-.01zm3.13-2.42l.15.31-.14.07-.15.06-.14.07-.14.06-.14.07-.14.06-.13.06-.13.07-.13.06-.13.06-.13.06-.12.06-.12.06-.12.06-.11.07-.11.06-.11.06-.1.06-.1.06-.1.07-.09.06-.09.07-.08.07-.08.06-.07.07-.07.07-.07.07-.06.08-.05.07-.05.07-.04.08-.04.08-.31-.14.05-.1.05-.09.06-.09.07-.09.07-.09.07-.08.08-.08.08-.08.09-.08.09-.07.1-.07.1-.07.1-.07.11-.07.11-.06.11-.07.11-.06.12-.07.12-.06.13-.06.12-.07.13-.06.13-.06.13-.06.14-.06.13-.07.14-.06.14-.06.14-.07.14-.06.14-.07.14-.07zm6.43-2.96l.15.3-.01.01-.2.08-.2.09-.2.09-.2.08-.21.09-.2.09-.21.09-.2.1-.21.09-.2.09-.21.1-.21.09-.2.09-.21.1-.2.1-.21.09-.2.1-.21.09-.2.1-.2.09-.21.1-.2.09-.2.1-.19.09-.2.1-.2.09-.19.09-.19.1-.2.09-.19.09-.18.09-.19.09-.15-.31.19-.09.19-.09.19-.09.19-.09.19-.09.2-.1.19-.09.2-.09.2-.1.2-.09.2-.1.2-.09.2-.1.21-.1.2-.09.21-.1.2-.09.21-.1.21-.09.2-.1.21-.09.21-.1.2-.09.21-.1.21-.09.2-.09.21-.09.2-.09.2-.09.21-.08.2-.09.2-.09-.01.01zm.15.3l-.01.01.02-.01h-.01zm-1.4-1.74l-.27-.2.14-.07.16.01.15.02.15.02.14.03.14.03.13.04.12.05.12.05.11.05.1.06.1.06.09.06.09.07.08.07.07.08.06.07.06.08.04.08.04.09.03.08.02.09.01.09v.09l-.01.08-.02.09-.03.08-.05.08-.05.08-.07.06-.07.07-.09.05-.09.05-.15-.3.07-.04.05-.03.05-.04.04-.04.03-.04.02-.04.02-.05.01-.04.01-.04v-.05l-.01-.05-.01-.05-.02-.05-.03-.06-.03-.05-.04-.06-.05-.06-.05-.05-.06-.06-.07-.05-.08-.06-.08-.05-.09-.05-.09-.04-.1-.05-.11-.03-.12-.04-.12-.03-.12-.03-.13-.02-.14-.01-.14-.01.14-.07zm-.27-.2l.05-.07h.09l-.14.07zm-1.02.65l.05-.33h.04l.04.01H58.7l.04-.01h.03l.04-.01h.03l.04-.01.03-.01.03-.01.03-.01.03-.01.03-.01.03-.02.04-.01.02-.02.03-.01.03-.02.02-.01.02-.02.03-.02.02-.02.02-.02.02-.02.02-.02.02-.02.02-.02.27.2-.03.04-.03.03-.02.03-.03.03-.04.03-.03.02-.03.03-.03.02-.04.03-.04.02-.03.02-.04.02-.04.02-.04.02-.04.01-.04.02-.05.02-.04.01-.04.01-.05.01-.04.01-.05.01h-.04l-.05.01h-.29l-.04-.01-.05-.01zm-1.14-1.29l.34.06-.01.03v.15l.01.03.01.04.01.04.02.03.01.04.02.03.02.04.02.03.02.03.03.04.02.03.03.03.04.03.03.03.03.02.04.03.04.03.04.02.04.02.04.02.05.03.04.01.05.02.05.01.05.02.05.01.05.01-.05.33-.07-.01-.06-.01-.07-.02-.06-.02-.06-.02-.06-.02-.05-.03-.06-.02-.05-.03-.06-.04-.04-.03-.05-.04-.05-.03-.04-.04-.05-.04-.04-.04-.04-.05-.03-.04-.03-.05-.03-.05-.03-.05-.03-.05-.02-.05-.02-.05-.02-.06-.01-.05-.01-.06-.01-.06V6.13l.01-.06zm1.48-.88l-.06.34-.05-.01h-.05l-.05-.01h-.05l-.05.01h-.1l-.04.01-.05.01-.05.01-.04.01-.04.02-.05.02-.04.01-.04.02-.03.02-.04.02-.03.03-.04.02-.03.03-.02.02-.03.03-.03.03-.02.03-.02.03-.02.03-.02.03-.01.04-.02.03-.01.04-.01.03v.04l-.34-.06.01-.05.01-.06.02-.06.02-.05.03-.05.02-.05.03-.05.04-.04.03-.05.04-.04.04-.04.04-.04.04-.04.05-.03.05-.03.05-.03.05-.03.05-.03.06-.02.05-.02.06-.02.06-.02.06-.01.06-.01.06-.01.06-.01h.06l.07-.01h.06l.06.01h.07l.07.01zm0 0l-.59-.09.59.09zm.53.19l-.17.29h-.01l-.02-.01-.01-.01H59l-.01-.01h-.01l-.02-.01-.02-.01-.01-.01h-.01l-.02-.01h-.01l-.01-.01h-.01l-.02-.01h-.02l-.02-.01h-.01l-.01-.01h-.03l-.01-.01h-.03l-.02-.01h-.02l-.02-.01h-.03l.06-.34.02.01h.03l.02.01h.03l.02.01h.02l.02.01h.01l.02.01h.02l.01.01h.02l.02.01h.02l.01.01H59l.02.01.01.01h.02l.01.01.02.01h.01l.02.01.02.01.01.01h.02l.01.01.02.01.01.01.02.01zm0 0l-.49-.28.49.28zm-.09.14l.09-.14-.09.14zm.09-.14l-.49-.28.49.28zm-.09.14l.09-.14-.09.14zm.09-.14l-.49-.28.49.28zm.39.35l-.19.28-.05-.05v-.01h-.01l-.01-.02-.01-.01-.01-.01V5.9h-.01l-.01-.02-.01-.01-.02-.02-.01-.01-.01-.01-.01-.01-.01-.01-.02-.01-.01-.01-.01-.01-.01-.01-.01-.01-.01-.01-.01-.01-.02-.01h-.01l-.01-.01-.01-.01-.01-.01-.02-.01h-.01l-.01-.01-.01-.01.17-.29.01.01.02.01.02.01.01.01.02.01.01.01.02.01.01.01.02.01.01.01.02.01.02.02.01.01.01.01.01.01.02.01.01.01.02.02.01.01.01.01.02.02.01.01.01.01.02.02v.01l.02.02.01.01.01.01.01.02.01.01.01.02.01.01-.04-.04zm-.19.28l-.03-.02-.02-.03.05.05zm.95.13l-.03.34-.03-.01h-.02l-.03-.01-.03-.01-.02-.01h-.02l-.03-.01-.03-.02-.03-.01-.03-.01-.02-.01-.03-.01-.03-.02-.03-.01-.03-.02-.02-.01-.03-.02-.03-.01-.03-.02-.03-.01-.03-.02-.03-.02-.03-.02-.03-.01-.03-.02-.03-.02-.03-.02-.02-.02-.03-.02-.03-.02-.03-.01-.03-.02-.02-.02.19-.28.03.02.02.02.03.01.02.02.03.02.03.01.03.02.02.02.03.01.02.02.03.02.03.01.02.02.03.01.03.02.03.01.02.02.03.01.02.01.03.02.02.01.03.01.02.01.02.01.03.01.02.01h.02l.02.01.02.01.02.01h.03-.02zm-.03.34h-.01l-.02-.01.03.01zm-1.21-2.05l-.08-.33.12.01.13.06.14.08.12.07.13.08.11.09.12.08.11.09.1.09.1.09.09.09.09.09.08.1.08.09.07.09.06.09.06.09.04.09.05.09.03.09.03.08.02.09.01.08v.08l-.02.09-.03.08-.05.07-.06.06-.07.05-.09.03-.09.02h-.19l.03-.34h.12l.04-.01.02-.01.02-.01.01-.01.01-.01v-.02l.01-.02v-.03l-.01-.05-.01-.05-.02-.06-.02-.06-.04-.07-.04-.07-.05-.08-.05-.08-.06-.08-.07-.08-.07-.09-.08-.08-.09-.08L59.9 5l-.09-.08-.1-.08-.11-.08-.1-.07-.12-.08-.12-.07-.12-.06-.12-.07.11.02zm-.08-.33l.06-.02.06.03-.12-.01zm-.35.35l.05-.34h.04l.01.01H58.94l.01-.01H59l.02-.01h.03l.08.33h-.03l-.02.01h-.02l-.02.01h-.08l-.02.01H58.79l-.02-.01h-.07zm0 0l.11.01-.11-.01zm-.91-1.25l.33.05v.08l-.01.04.01.03v.08l.01.03.01.04.01.03.01.04.01.03.02.04.01.03.02.03.02.03.02.03.02.03.03.03.02.02.02.03.03.02.03.02.03.03.03.02.03.01.04.02.03.02.03.01.04.01.03.01.04.01.04.01-.05.34-.06-.01-.05-.02-.06-.01-.05-.02-.05-.02-.05-.02-.04-.03-.05-.03-.04-.02-.05-.03-.04-.04-.04-.03-.03-.04-.04-.04-.03-.04-.04-.04-.02-.04-.03-.05-.03-.04-.02-.05-.02-.05-.02-.05-.02-.05-.01-.05-.01-.05-.01-.05-.01-.06v-.05l-.01-.06.01-.05v-.06l.01-.05zm1.24-.92l-.05.34h-.04l-.03-.01h-.12l-.03.01h-.04l-.03.01-.04.01-.04.02-.03.01-.03.01-.03.02-.04.02-.03.01-.03.03-.02.02-.03.02-.03.03-.02.02-.03.03-.02.03-.02.03-.02.03-.02.03-.02.03-.01.04-.02.03-.01.04-.01.03-.01.04-.01.04-.33-.05.01-.06.01-.05.02-.06.01-.05.02-.05.03-.05.02-.04.03-.05.03-.05.03-.04.03-.04.04-.04.03-.04.04-.03.04-.04.04-.03.05-.03.04-.03.05-.02.04-.03.05-.02.05-.02.05-.01.05-.02.05-.01.06-.01h.05l.06-.01h.1l.06.01h.05zm.91 1.26l-.33-.06v-.04l.01-.04V3.29l-.01-.04v-.03l-.01-.04-.02-.04v-.03l-.02-.03-.01-.03-.02-.04-.02-.03-.02-.03-.02-.03-.02-.03-.02-.03-.03-.02-.02-.03-.03-.02-.03-.02-.03-.03-.03-.02-.03-.01-.03-.02-.03-.02-.04-.01-.04-.01-.03-.01-.04-.01-.04-.01.05-.34.06.01.05.02.06.01.05.02.05.02.05.02.05.03.04.03.05.02.04.03.04.04.04.03.04.04.03.04.04.04.03.04.03.04.03.05.02.04.02.05.03.05.02.05.01.05.02.05.01.05.01.05v.06l.01.05v.11l-.01.06v.05l-.01.01zm.01-.01l-.01.01.01-.02v.01zm-.34-.03v-.02l.33.06v.02l-.31.05-.02-.11zm.02.11l-.04-.05.02-.06.02.11zm1.73.81l.25.23-.01.01-.05.05-.05.03-.06.04-.05.03-.06.03-.06.02-.06.01-.06.02h-.19l-.07-.02-.06-.01-.06-.02-.07-.03-.06-.04-.06-.03-.06-.04-.06-.05-.07-.05-.06-.05-.06-.07-.06-.06-.06-.07-.07-.07-.06-.08-.06-.09-.07-.09-.06-.09-.07-.1-.07-.11-.06-.11.29-.17.06.1.07.1.06.1.06.09.06.08.06.08.06.07.05.07.06.06.05.05.05.06.06.04.04.04.05.04.05.03.04.03.05.02.04.02.04.01.04.01.03.01h.1l.04-.01.03-.01.03-.01.04-.01.03-.02.03-.03.04-.02.03-.03-.01.01zm.25.23v.01h-.01l.01-.01zm-.46-2.3l.09-.32.09.05.05.07.06.07.06.07.05.07.05.07.05.07.06.07.04.08.05.07.04.07.04.08.04.08.04.07.03.08.03.08.02.08.02.08.01.09.01.08V3.68l-.01.09-.02.09-.02.08-.03.09-.03.09-.04.09-.05.09-.06.08-.06.09-.07.09-.08.09-.25-.23.07-.08.06-.07.05-.08.05-.07.03-.07.04-.07.02-.06.03-.07.01-.07.01-.06.01-.06v-.13l-.01-.06-.01-.06-.01-.07-.02-.06-.02-.06-.03-.07-.03-.06-.03-.07-.03-.06-.04-.06-.04-.07-.04-.07-.05-.06-.05-.07-.05-.06-.05-.07-.05-.07-.06-.06-.05-.07.08.05zm.09-.32l.05.01.04.04-.09-.05zm-.94-1.01l.34.05-.01.04v.2l.01.04.01.04v.03l.02.04.01.03.01.04.02.03.01.04.02.03.02.04.02.03.02.03.03.03.02.03.03.02.03.03.03.03.03.02.03.02.03.02.03.02.04.02.03.02.04.01.04.01.03.02-.09.32-.05-.01-.06-.02-.05-.02-.05-.03-.04-.02-.05-.03-.05-.03-.04-.03-.04-.03-.04-.04-.04-.03-.04-.04-.03-.04-.03-.04-.04-.05-.03-.04-.02-.05-.03-.04-.02-.05-.02-.05-.02-.05-.02-.05-.01-.05-.02-.05-.01-.06v-.05l-.01-.06v-.22l.01-.05zm0 0zM61.67.01l-.05.34h-.05l-.04-.01h-.13l-.04.01-.04.01-.04.01-.04.01-.04.01-.04.02-.04.01-.03.02-.04.02-.04.02-.03.03-.03.02-.03.03-.03.03-.03.03-.03.03-.03.03-.02.03-.02.04-.03.03-.01.04-.02.04-.02.04-.01.04-.02.04-.01.05v.04l-.34-.05.01-.06.02-.06.01-.06.02-.06.02-.05.03-.06.03-.05.03-.05.03-.05.03-.05.04-.04.04-.05.04-.04.04-.04.04-.03.05-.04.05-.03.05-.03.04-.03.06-.03.05-.02.05-.02.06-.02.06-.01.05-.02.06-.01h.06l.06-.01h.12l.06.01h.06zm1 1.38l-.34-.05v-.01l.01-.04v-.17l-.01-.04v-.05l-.01-.04-.01-.04-.02-.04-.01-.04-.02-.03-.02-.04-.02-.04-.02-.03-.02-.04-.03-.03-.02-.03L62.1.6l-.03-.03-.03-.03-.03-.02-.04-.03-.03-.02-.04-.02-.04-.02-.03-.02-.04-.02-.04-.01-.04-.01-.05-.01-.04-.01.05-.34.06.02.06.01.06.02.06.02.05.02.05.02.06.03.05.03.05.03.04.04.05.03.04.04.04.04.04.04.04.05.03.04.04.05.03.05.03.05.02.05.02.05.03.06.01.05.02.06.01.06.01.05.01.06v.25l-.01.06zm-.07.25l-.32-.1v-.02l.01-.02v-.01h.01v-.03.01-.01l.01-.02v-.02l.01-.01v-.02l.01-.02v-.03l.34.05v.02l-.01.01v.03l-.01.02v.03l-.01.01v.02l-.01.01v.01l-.01.03v.02l-.01.01v.01l-.01.01v.02-.01zm-.32-.1v-.02.02zm1.33 2.19l-.01.34-.04-.01-.14-.05-.13-.05-.12-.06-.11-.07-.11-.06-.09-.08-.09-.07-.08-.08-.08-.08-.07-.09-.06-.09-.05-.09-.05-.09-.04-.09-.04-.09-.03-.09-.03-.1-.02-.09-.01-.09-.02-.09v-.09l-.01-.09V2.11l.01-.08v-.08l.01-.08.02-.07.01-.08.01-.06.02-.06.02-.06.32.1-.01.05-.02.05-.01.05-.01.06-.01.07-.01.06v.07l-.01.07V2.27l.01.07v.08l.01.08.02.07.01.08.02.08.03.07.03.08.03.07.04.07.05.08.05.07.05.06.06.07.07.07.07.06.08.06.08.05.1.06.1.05.11.04.12.05-.05-.01zm-.01.34h-.02l-.02-.01.04.01zm-.29-1.77l.29-.19.01.02.04.08.03.08.04.08.04.08.03.08.03.08.03.08.03.07.02.08.03.08.02.07.02.07.02.08.01.07.02.07.01.06.01.07v.24l-.01.06-.02.06-.02.05-.02.05-.03.05-.05.05-.05.04-.05.02-.06.02-.07.02h-.06l.01-.34h.02l.02-.01h.01l.01-.01V3.7l.01-.01.01-.02v-.03l.01-.03v-.17l-.01-.05-.01-.06-.01-.06-.01-.05-.02-.07-.02-.07-.02-.06-.02-.07-.02-.07-.03-.08-.03-.07-.03-.07-.03-.07-.03-.08-.03-.08-.04-.07-.04-.08.01.02zm.29-.19v.01l.01.01-.01-.02zm-.42-.1h.34l-.01-.06.01.01v.01l-.01-.01.01.01.01.02-.01-.01.01.01v.02h.01v.01l.01.01h-.01.01l.01.02v.01-.01.01l.01.01.01.01v.01l.01.01-.01-.01.01.01.01.01-.29.19v-.01h-.01l-.01-.02v-.01l-.01-.01v-.01h-.01v-.01l-.01-.02-.01-.01.01.01-.01-.01-.01-.02v-.01l-.01-.01v-.01l-.01-.01v-.01l-.01-.02V2.1v.01l-.01-.03h-.01l-.01-.07zm.01.07l-.01-.03v-.04l.01.07zm.33-.07h-.34l.33-.06.01.06zm-.01-.06l.01.03v.03l-.01-.06zm-.16.06l-.16.06.16-.06zm.16-.06l.01.03v.03l-.01-.06zm-.37-.37l.34.06v.03l-.01.01V1.78l.01.01V1.85l.01.01v.03l.01.02v.02l.01.01v.01l-.32.12v-.01l-.01-.02v-.03L63.17 2v-.01l-.01-.02v-.03l-.01-.02V1.9l-.01-.02V1.82l-.01-.02v-.13l.01-.03V1.6l.01-.02h-.01zm.34.06l.02-.13-.02.13zm.95-.91l-.05.33h-.04l-.04-.01h-.08l-.05.01h-.07l-.04.01-.04.01-.03.01-.04.01-.04.02-.03.01-.04.02-.03.02-.03.01-.03.03-.03.02-.02.02-.03.02-.02.03-.03.02-.02.03-.02.03-.02.03-.01.03-.02.03-.01.03-.01.03-.01.04-.01.03-.01.04-.34-.06.01-.05.02-.05.01-.05.02-.06.02-.04.03-.05.02-.04.03-.05.03-.04.03-.04.04-.04.03-.04.04-.03.04-.04.04-.03.05-.03.04-.03.05-.02.04-.03.05-.02.05-.02.05-.01.05-.02.06-.01.05-.01.06-.01h.05l.06-.01h.05l.06.01h.06l.05.01zm.97 1.21l-.33-.06h-.01l.01-.03v-.14l-.01-.03v-.04l-.01-.03-.01-.03-.02-.03-.01-.04-.02-.03-.01-.03-.02-.03-.02-.03-.02-.03-.03-.02-.02-.03-.03-.03-.03-.02-.03-.03-.03-.02-.03-.02-.03-.02-.04-.02-.03-.02-.04-.01-.04-.02-.04-.01-.04-.01-.04-.01-.04-.01.05-.33.06.01.06.01.05.02.06.01.05.02.05.02.05.03.04.02.05.03.05.03.04.03.04.04.04.03.04.04.03.04.04.04.03.04.03.04.03.05.03.04.02.05.02.04.02.05.01.06.02.04.01.06v.05l.01.05v.16l-.01.06zm-.13.3h-.34l.03-.1.01-.01v-.01h.01l.01-.01V2.1l.01-.01v-.02l.01-.01v-.01l.01-.01v-.01l.01-.01v-.01l.01-.01v-.03l.01-.01v-.02l.01-.01v-.04l.01-.01.33.06v.02l-.01.02V2l-.01.02v.02l-.01.01v.03l-.01.01v.02l-.01.01v.02l-.01.01v.01l-.01.02-.01.02-.01.01v.02l-.01.01-.01.01v.01l-.01.02-.01.01-.01.01v.01l-.01.01-.01.01.03-.09zm-.34 0v-.06l.03-.04-.03.1zm0 0h.34l-.03.09-.31-.09zm.34 0v.05l-.03.04.03-.09zm-.31-.09v-.01l.28.19v.01l-.28-.19zm.28.18v.01l-.03.04.03-.05zm-.29-.17l.01-.02.28.2-.01.01-.28-.19zm.28.19l.02-.02-.02.02zm.22 2.74l-.19.28-.03-.02-.07-.09-.08-.09-.07-.09-.06-.09-.06-.09-.06-.1-.05-.1-.04-.1-.04-.1-.04-.1-.04-.11-.03-.1-.02-.1-.02-.11-.02-.1-.01-.11v-.11l-.01-.1.01-.11v-.1l.01-.11.02-.1.02-.11.02-.1.03-.1.04-.1.03-.1.05-.1.04-.1.05-.09.06-.09.06-.09.28.19-.05.08-.05.08-.04.08-.05.08-.03.09-.03.08-.03.09-.03.09-.02.08-.02.09-.01.09-.01.09v.1l-.01.09.01.09v.09l.01.09.02.09.01.09.02.1.03.09.03.09.03.09.04.08.04.09.04.09.05.08.06.08.05.09.06.07.06.08.07.08-.03-.03zm-.19.28l-.02-.01-.01-.01.03.02zm1.33-1.08l.34.06-.03.07-.04.06-.05.05-.04.06-.04.06-.04.06-.05.05-.04.06-.04.06-.05.05-.04.05-.04.06-.05.05-.04.04-.05.05-.05.05-.05.04-.04.04-.05.04-.06.03-.05.03-.05.03-.06.02-.06.02-.06.01-.06.01h-.13l-.06-.01-.06-.02-.07-.03-.06-.03-.06-.04.19-.28.04.03.03.01.03.02.04.01h.11l.03-.01.03-.01.04-.01.03-.02.03-.02.04-.02.04-.03.03-.03.04-.03.04-.04.04-.04.04-.04.04-.05.04-.04.04-.05.04-.05.04-.06.04-.05.05-.06.04-.05.04-.06.04-.06.04-.05.04-.06-.03.07zm.34.06l-.01.04-.02.03.03-.07zm1-.91l-.05.33h-.04l-.04-.01h-.13l-.04.01h-.04l-.05.01-.03.01-.04.01-.04.01-.04.01-.03.02-.04.02-.03.01-.03.02-.04.02-.03.03-.03.02-.02.02-.03.03-.02.02-.03.03-.02.03-.02.03-.02.03-.02.03-.01.03-.01.04-.02.03v.04l-.01.03-.34-.06.01-.06.02-.05.02-.05.02-.05.02-.05.03-.05.03-.04.03-.05.03-.04.03-.04.04-.04.04-.04.04-.03.04-.04.04-.03.05-.02.04-.03.05-.03.05-.02.05-.02.05-.02.05-.02.05-.01.06-.01.05-.01.06-.01.06-.01h.16l.07.01.05.01zm1.02 1.26l-.34-.05v-.04l.01-.04V4.5l-.01-.04v-.04l-.01-.03-.01-.03-.01-.04-.01-.03-.02-.04-.02-.03-.01-.04-.02-.03-.03-.03-.02-.03-.03-.03-.02-.03-.03-.03-.03-.02-.03-.03-.03-.02-.04-.02-.03-.03-.04-.01-.04-.02-.04-.02-.04-.02-.04-.01-.04-.01-.04-.01-.05-.01.05-.33.06.01.06.01.06.02.05.01.06.02.05.03.05.02.05.03.05.03.05.03.04.03.05.04.04.04.04.03.04.04.03.05.04.04.03.04.03.05.03.05.02.05.02.05.02.05.02.05.01.05.01.06.01.05.01.05v.12l-.01.05v.06zm-1.35.9l.05-.34.04.01h.18l.04-.01h.04l.04-.01.04-.01.04-.01.04-.01.04-.02.04-.01.03-.02.03-.02.04-.02.03-.02.03-.03.03-.02.03-.03.02-.02.03-.03.02-.03.02-.03.02-.03.02-.03.02-.04.01-.03.01-.03.01-.04.01-.04.01-.03.34.05-.01.06-.02.05-.01.05-.02.06-.03.05-.02.05-.03.04-.03.05-.03.05-.03.04-.04.04-.04.04-.04.04-.04.03-.04.03-.05.03-.04.03-.05.03-.05.03-.05.02-.05.02-.06.02-.05.01-.06.01-.05.01-.06.01-.06.01H67.72l-.06-.01h-.06zm.03-.35l.02.01-.05.34-.03-.01.01-.34h.05zm-.05 0h.05-.05zm-1.37 1.09l-.24.24-.05-.12v-.08l.01-.07.01-.07.01-.07.02-.07.03-.06.02-.06.03-.06.04-.06.04-.05.04-.05.05-.05.05-.04.05-.04.06-.04.05-.03.06-.04.06-.03.07-.02.06-.03.07-.02.07-.03.07-.02.07-.01.07-.02.08-.02.07-.01.08-.02.08-.01.08-.01.08-.01.08-.01.04.34-.08.01-.08.01-.07.01-.07.01-.08.01-.06.02-.07.01-.07.02-.06.01-.06.02-.06.02-.06.02-.05.02-.05.02-.05.03-.04.02-.05.03-.04.02-.03.03-.03.03-.04.03-.03.04-.02.03-.02.03-.02.04-.02.04-.02.04-.01.04-.01.05v.05l-.01.05v.06l-.05-.12zm-.24.24l-.05-.05v-.07l.05.12zm-.19 3.91l-.21-.26.13-.12.12-.12.12-.13.1-.12.09-.13.09-.13.07-.13.06-.12.06-.13.05-.14.04-.13.03-.13.02-.13.02-.13.01-.12v-.26l-.01-.12-.01-.12-.02-.12-.03-.12-.03-.11-.03-.11-.04-.11-.05-.1-.04-.09-.05-.1-.06-.09-.05-.08-.06-.07-.06-.07-.07-.07.24-.24.08.08.07.08.07.09.07.1.06.1.06.11.05.11.05.12.05.12.04.12.03.13.03.14.02.13.02.14.01.14v.28l-.01.15-.02.15-.03.15-.04.14-.04.15-.06.15-.06.15-.07.15-.09.14-.09.14-.1.15-.12.14-.12.13-.14.14-.15.13zm-7.15 4.11l-.24.23-.02-.02-.08-.14-.04-.16.01-.16.06-.15.08-.14.12-.13.14-.12.16-.12.18-.11.2-.12.22-.12.24-.12.25-.12.27-.12.28-.12.29-.12.3-.13.31-.13.31-.14.32-.13.32-.14.33-.15.32-.15.32-.15.32-.16.31-.16.3-.17.3-.17.28-.17.28-.19.25-.18.25-.19.21.26-.25.2-.27.19-.28.19-.3.19-.3.17-.31.17-.32.17-.32.16-.33.15-.32.15-.33.15-.32.14-.32.14-.32.13-.31.13-.3.13-.29.12-.27.12-.27.12-.25.12-.22.11-.21.12-.2.11-.16.1-.14.11-.11.1-.09.09-.05.08-.02.07-.01.06.02.06.04.08-.02-.02zm-.24.23l-.02-.01v-.01l.02.02zm7.23 1.36l-.01.34-.04-.01-.22-.06-.22-.06-.24-.05-.23-.06-.25-.04-.25-.05-.25-.04-.26-.04-.26-.05-.27-.03-.26-.04-.27-.04-.26-.03-.27-.04-.26-.04-.26-.03-.26-.04-.25-.04-.24-.04-.24-.04-.23-.05-.23-.05-.22-.05-.21-.05-.2-.06-.19-.06-.18-.07-.16-.07-.16-.08-.14-.09-.13-.09-.11-.11.24-.23.08.07.11.08.12.07.13.07.15.06.17.07.17.05.19.06.2.05.21.05.22.05.23.04.24.04.24.04.25.04.25.04.26.04.26.03.26.04.27.03.26.04.27.04.27.04.26.04.26.04.26.04.25.05.25.05.25.05.24.06.23.06.23.06h-.05zm-.01.34h-.02l-.02-.01.04.01zm32.97-5.58l-.11.32-1.27-.42-1.26-.33-1.26-.26-1.25-.17-1.25-.11-1.23-.04-1.23.02-1.22.08-1.21.13-1.19.18-1.18.22-1.16.26-1.15.29-1.13.32-1.11.34-1.09.36-1.06.38-1.05.38-1.02.39-.99.39-.97.38-.94.38-.92.35-.88.34-.85.31-.82.29-.78.24-.75.21-.72.17-.68.11-.64.07h-.6l.01-.34h.57l.62-.06.66-.11.7-.17.73-.2.78-.25.81-.28.84-.31.88-.34.91-.35.94-.37.97-.39 1-.38 1.02-.39 1.05-.39 1.07-.38 1.1-.36 1.12-.35 1.13-.32 1.16-.29 1.17-.26 1.19-.23 1.21-.18 1.22-.13 1.23-.08 1.25-.02 1.25.04 1.27.11 1.27.18 1.27.26 1.29.34 1.28.42zm16.57 26.76l-.34-.02.03-1.2-.01-1.19-.04-1.16-.09-1.15-.12-1.12-.15-1.1-.2-1.07-.22-1.05-.27-1.03-.3-1.01-.33-.98-.37-.95-.41-.93-.44-.91-.47-.88-.5-.85-.54-.83-.58-.8-.6-.77-.64-.75-.67-.71-.7-.69-.73-.67-.77-.63-.8-.6-.82-.58-.86-.54-.89-.52-.92-.48-.95-.46-.98-.42-1-.39.11-.32 1.02.4.99.43.96.45.93.5.91.52.86.55.84.58.81.61.78.65.74.67.72.7.68.73.64.75.62.79.58.81.55.84.51.87.48.89.44.92.41.94.38.97.34.99.3 1.02.27 1.04.23 1.06.19 1.09.16 1.11.12 1.13.09 1.16.04 1.17.01 1.2-.03 1.22zm0 0zm-14.65 24l-.1-.32.55-.2.56-.22.58-.26.58-.29.58-.33.59-.35.59-.4.59-.42.59-.46.59-.5.58-.53.57-.57.57-.6.56-.64.54-.67.53-.71.52-.75.5-.78.48-.82.46-.86.43-.9.42-.93.39-.97.36-1.02.33-1.05.3-1.09.27-1.12.24-1.18.2-1.2.16-1.25.12-1.29.08-1.34.34.02-.08 1.34-.12 1.3-.17 1.27-.2 1.22-.24 1.18-.27 1.14-.3 1.1-.34 1.06-.37 1.03-.39.98-.42.95-.44.9-.47.88-.48.83-.51.79-.52.76-.54.72-.55.68-.57.65-.57.61-.59.58-.59.54-.59.5-.6.47-.61.43-.6.4-.6.37-.59.33-.6.3-.58.26-.58.23-.57.2zm-8.02.39l.08-.33.27.06.28.05.28.05.28.04.28.04.27.03.28.02.27.02.27.01.27.01.27.01h.27l.26-.01.27-.01.25-.01.26-.02.25-.02.25-.03.25-.03.24-.03.24-.03.23-.04.23-.04.22-.04.22-.05.22-.04.21-.05.2-.06.19-.05.2-.05.18-.06.18-.05.1.32-.18.06-.19.06-.19.05-.21.05-.2.06-.22.05-.22.05-.22.04-.23.05-.23.04-.24.04-.24.03-.25.03-.25.03-.25.03-.26.02-.26.02-.27.01-.27.01-.27.01h-.27l-.27-.01-.28-.01-.28-.01-.28-.02-.28-.02-.29-.04-.28-.03-.28-.04-.29-.05-.28-.06-.29-.06zm-9.09-10.62l.34.01v.01l-.02.54v.53l.03.51.06.5.08.49.11.46.13.46.15.44.18.42.2.41.21.4.24.38.25.37.28.35.29.34.3.33.32.31.34.3.34.28.36.27.38.26.38.24.39.23.4.22.41.2.42.18.42.18.43.16.43.15.44.13.44.12.44.11-.08.33-.45-.11-.45-.12-.44-.14-.45-.15-.43-.17-.44-.17-.42-.2-.42-.2-.41-.22-.41-.24-.39-.25-.38-.26-.38-.28-.35-.29-.35-.31-.33-.33-.32-.33-.3-.35-.28-.37-.27-.38-.24-.4-.23-.41-.2-.43-.18-.44-.16-.46-.14-.47-.11-.49-.09-.5-.06-.51-.03-.54v-.54l.02-.57v.01zm.34.01v.02-.02zm13.35-3.19l-.34.05v.01l-.12-.47-.18-.44-.24-.4-.28-.38-.34-.34-.37-.31-.41-.28-.45-.24-.48-.21-.5-.18-.53-.14-.55-.1-.56-.06-.58-.03-.58.02-.58.05-.58.1-.57.13-.56.17-.55.22-.53.26-.5.3-.48.34-.45.39-.42.43-.37.47-.34.52-.29.57-.24.61-.18.66-.13.71-.07.76-.34-.01.07-.79.13-.74.2-.69.25-.65.31-.59.35-.55.4-.5.43-.46.48-.41.5-.36.53-.31.55-.27.58-.23.58-.18.6-.14.6-.09.6-.06.61-.01.59.02.59.07.57.1.55.15.54.18.5.22.47.26.45.29.4.34.36.37.3.41.26.44.2.48.14.51v.01zm0-.01v.01l-.01-.04.01.03zm-6.56 2.55l.34.01v-.01l.03.32.06.3.1.27.12.24.15.23.18.19.2.17.23.15.24.12.26.1.27.07.28.05.29.02.3-.01.29-.03.3-.06.3-.08.29-.11.28-.14.27-.17.25-.19.25-.22.22-.24.2-.27.17-.3.16-.33.12-.35.09-.39.05-.41.02-.44-.02-.47-.07-.51.34-.05.07.53.02.5-.02.47-.06.44-.1.42-.13.39-.16.36-.2.33-.22.3-.24.26-.27.24-.28.22-.3.18-.31.15-.31.12-.33.09-.33.07-.32.03-.33.01-.32-.03-.31-.05-.31-.08-.29-.11-.27-.14-.26-.17-.23-.19-.21-.23-.18-.26-.15-.28-.11-.32-.07-.34-.03-.36v-.01zm0 .01v-.01.01zm4.73-1.42l-.32.13v-.01l-.06-.15-.08-.14-.09-.13-.1-.12-.12-.11-.13-.11-.14-.09-.14-.08-.16-.07-.16-.06-.17-.05-.17-.04-.18-.02-.17-.01-.18.01-.17.01-.18.04-.17.04-.17.06-.16.08-.16.09-.14.11-.15.12-.13.14-.12.15-.11.18-.1.19-.08.21-.07.23-.06.25-.03.27-.02.3-.34-.01.02-.32.04-.3.06-.27.08-.26.09-.24.12-.22.12-.2.15-.18.15-.17.16-.14.18-.13.18-.1.19-.09.2-.07.2-.06.2-.03.2-.02.2-.01.21.01.2.03.19.04.19.05.19.07.18.08.17.1.16.11.15.12.14.14.13.14.11.16.09.17.08.19v-.01zm-.32.13v-.01.01zm-1.98 2.05l.14-.31.14.06.13.04.13.03.12.02.11.01h.11l.11-.01.1-.02.09-.03.09-.04.09-.04.08-.05.08-.06.07-.06.07-.07.07-.07.05-.08.06-.09.05-.08.04-.09.04-.09.03-.1.03-.1.02-.09.01-.1.01-.1V50l-.01-.1-.01-.09-.01-.09-.03-.08-.03-.08.32-.13.04.1.03.12.02.11.01.12.01.11v.12l-.01.12-.02.12-.02.11-.03.12-.04.11-.05.12-.05.11-.06.1-.07.1-.07.1-.08.09-.09.09-.09.08-.1.07-.11.07-.11.06-.12.04-.12.04-.13.02-.14.02h-.14l-.14-.01-.15-.02-.15-.04-.16-.05-.16-.07zm.44-1.59l.33-.09-.18.22-.12-.01H93.21l-.09.01-.08.02-.08.02-.06.03-.06.02-.04.04-.05.03-.03.03-.03.04-.03.04-.01.04-.02.05-.01.04V50.7l.01.05.01.06.02.05.02.05.03.05.04.06.03.04.04.05.05.04.05.05.05.04.06.03.06.03-.14.31-.08-.04-.08-.05-.08-.05-.07-.06-.06-.06-.06-.07-.06-.07-.04-.07-.04-.08-.04-.07-.02-.08-.02-.08-.02-.08V50.58l.01-.08.01-.08.03-.08.04-.08.04-.07.05-.07.07-.06.07-.06.07-.05.09-.04.09-.04.1-.03.11-.02.12-.02h.25l.14.01-.18.21zm.33-.09l.07.24-.25-.02.18-.22zm-2.07.12l-.3-.15.01-.02.06-.09.07-.1.08-.08.07-.07.08-.07.08-.07.09-.05.09-.05.08-.04.09-.04.09-.03.09-.02.09-.01.09-.01h.18l.09.01.08.02.09.02.08.02.08.03.08.04.07.04.07.05.07.05.06.06.05.06.06.07.04.07.05.08.03.08.03.08-.33.09-.02-.05-.02-.05-.03-.05-.03-.05-.04-.05-.03-.04-.05-.04-.04-.03-.05-.04-.05-.03-.06-.02-.05-.03-.06-.02-.06-.01-.07-.01-.06-.01h-.13l-.07.01-.07.01-.07.01-.06.02-.07.03-.07.03-.06.04-.07.04-.06.05-.07.05-.06.06-.06.07-.05.07-.06.09.01-.02zm-.3-.15l.01-.02-.01.02zm3.7 1.84l.24.24-.17.16-.17.14-.19.12-.19.1-.19.08-.2.07-.2.05-.2.04-.2.02h-.2l-.19-.01-.2-.02-.19-.04-.19-.05-.18-.06-.17-.08-.16-.09-.16-.1-.15-.11-.13-.12-.12-.14-.11-.14-.1-.16-.08-.16-.06-.18-.04-.18-.02-.19v-.2l.02-.2.04-.2.07-.21.09-.22.3.15-.07.18-.06.18-.04.17-.01.17v.16l.01.15.04.15.05.14.06.13.08.12.09.12.1.12.11.1.12.09.14.09.14.07.15.07.16.06.16.04.16.03.17.02.18.01h.17l.18-.02.17-.03.18-.04.17-.06.16-.08.17-.08.16-.11.15-.12.15-.14zm0 0l-.03.04.03-.04zM91.1 46.2v-.34h.35l.36.02.34.04.34.06.33.07.32.1.31.11.3.13.28.14.28.15.25.17.25.19.23.19.21.21.19.21.18.22.16.24.14.24.12.25.1.25.07.26.05.26.03.27v.27l-.02.26-.06.27-.08.27-.11.27-.13.26-.17.25-.2.25-.23.24-.24-.24.21-.22.18-.23.15-.23.13-.23.09-.23.07-.24.05-.24.02-.23v-.24l-.02-.23-.05-.23-.06-.23-.09-.23-.11-.22-.13-.22-.14-.21-.16-.21-.19-.2-.19-.19-.21-.18-.23-.17-.24-.16-.26-.14-.27-.14-.27-.11-.3-.11-.3-.09-.31-.07-.31-.06-.33-.03-.33-.02H91.1zm.01 0h-.01.01zm-5.34 4.58l-.34-.05.04-.18.04-.19.05-.19.05-.2.07-.2.07-.2.08-.2.09-.21.1-.2.11-.21.12-.2.13-.21.14-.2.14-.19.16-.2.17-.19.17-.18.19-.17.2-.17.2-.16.22-.16.23-.14.24-.13.25-.12.27-.11.27-.1.28-.08.3-.07.31-.05.31-.03.33-.02.34-.01v.34l-.32.01-.32.01-.29.04-.29.05-.28.06-.27.08-.25.09-.25.1-.23.11-.23.12-.21.14-.2.14-.2.15-.18.16-.18.16-.16.18-.16.17-.15.19-.14.18-.13.19-.12.19-.11.2-.1.19-.1.2-.08.19-.08.19-.07.2-.06.18-.06.19-.04.18-.04.18-.03.16zm2.64 7.1l-.21.27-.24-.19-.23-.2-.22-.2-.2-.21-.2-.21-.18-.23-.17-.22-.16-.23-.15-.23-.14-.23-.13-.24-.12-.24-.11-.24-.1-.25-.09-.24-.08-.25-.07-.25-.06-.25-.05-.24-.05-.25-.04-.25-.03-.24-.02-.25-.02-.24-.01-.24v-.48l.01-.23.02-.23.02-.22.02-.22.03-.22.34.05-.03.21-.03.21-.01.22-.02.22-.01.22v.46l.01.23.02.23.02.24.03.23.03.24.05.24.05.24.06.23.07.24.08.23.08.24.1.23.1.23.11.23.12.23.14.22.14.22.15.22.17.21.17.21.18.21.2.19.21.2.22.19.23.18zm7.54 2.18l.01.34-.33.02h-.64l-.32-.01-.3-.01-.31-.03-.29-.03-.29-.03-.29-.05-.28-.04-.27-.06-.27-.06-.26-.06-.25-.07-.26-.08-.24-.08-.24-.08-.23-.09-.23-.09-.22-.09-.22-.1-.21-.1-.21-.1-.2-.11-.19-.1-.19-.11-.18-.12-.18-.11-.17-.11-.17-.12-.16-.11-.16-.12.21-.27.15.11.16.12.16.11.16.11.18.1.17.11.19.11.19.1.19.11.2.1.2.09.21.1.22.09.22.09.23.08.23.08.23.08.25.07.25.07.25.06.26.06.27.05.27.05.27.04.29.04.28.02.3.03.3.01.3.01h.63l.32-.02h.01zm-.01 0h.01-.01zm14.03-27.79l.32-.13-.02-.03.41.66.34.73.29.82.23.87.17.94.11.99.05 1.03v1.08l-.05 1.11-.11 1.14-.17 1.16-.22 1.18-.27 1.18-.33 1.18-.38 1.19-.43 1.17-.49 1.15-.54 1.13-.59 1.09-.64 1.06-.7 1.02-.74.97-.8.91-.85.85-.9.77-.95.7-1 .62-1.06.53-1.1.43-1.15.32-1.2.22-1.24.09-.01-.34 1.21-.09 1.17-.21 1.11-.32 1.08-.41 1.02-.52.98-.6.93-.68.88-.76.83-.83.78-.9.74-.95.68-1 .64-1.04.58-1.09.53-1.11.48-1.14.43-1.16.38-1.16.32-1.17.27-1.17.22-1.16.16-1.15.11-1.12.05-1.1v-1.06l-.05-1.01-.11-.97-.17-.91-.22-.86-.27-.78-.33-.7-.39-.62-.02-.04zm.02.04l-.01-.02-.01-.02.02.04zM89.47 19.49l-.02-.34.73-.02.74.02.74.04.76.08.75.1.76.13.77.15.76.19.76.21.76.24.76.27.75.29.75.32.74.35.73.37.72.4.7.43.7.45.68.48.66.5.64.53.63.56.6.58.58.6.56.63.53.66.51.67.47.71.45.73.42.75.38.77.35.8-.32.13-.34-.78-.37-.76-.41-.74-.44-.72-.47-.69-.5-.67-.52-.64-.55-.62-.57-.59-.59-.58-.62-.54-.63-.52-.66-.5-.66-.47-.69-.45-.69-.42-.71-.39-.72-.37-.73-.34-.73-.32-.75-.29-.74-.26-.75-.23-.76-.21-.75-.19-.75-.15-.75-.13-.74-.1-.74-.07-.73-.04-.73-.02-.71.02zM75.15 30.57l-.16.3-.08-.2.23-.63.25-.61.26-.6.28-.58.3-.57.31-.56.32-.54.34-.52.36-.51.37-.49.38-.47.4-.46.42-.44.42-.42.44-.4.46-.39.47-.37.48-.34.5-.33.51-.31.52-.28.53-.27.55-.24.56-.23.57-.2.58-.18.59-.15.61-.13.62-.12.63-.08.63-.06.65-.04.02.34-.64.04-.62.06-.62.08-.6.11-.6.13-.58.15-.57.18-.56.19-.54.22-.53.24-.53.26-.5.28-.5.3-.49.32-.47.34-.46.36-.44.37-.43.4-.42.41-.41.43-.39.45-.37.46-.37.48-.34.5-.34.52-.32.53-.3.54-.29.56-.28.57-.26.59-.24.6-.23.62-.08-.21zm-.16.3l-.13-.06.05-.14.08.2zm2.98 2.57l.15.31-.23-.09-.04-.09-.04-.1-.05-.09-.04-.09-.05-.09-.05-.09-.06-.09-.06-.09-.06-.09-.06-.09-.07-.09-.07-.09-.08-.09-.07-.09-.09-.08-.08-.09-.09-.09-.09-.08-.1-.09-.1-.09-.1-.08-.11-.09-.12-.08-.11-.09-.12-.08-.13-.08-.13-.09-.14-.08-.14-.08-.14-.08-.15-.08-.16-.09.16-.3.16.08.15.09.15.08.15.09.14.08.14.09.13.09.12.08.13.09.11.09.12.09.11.09.11.09.1.09.1.1.09.09.09.09.09.1.08.09.08.09.08.1.07.1.07.09.06.1.07.1.06.09.05.1.06.1.05.1.05.1.04.1.04.1-.23-.09zm.15.31l-.16.07-.07-.16.23.09zm5.62-5.78l.11.32-.19.08-.19.09-.18.11-.19.12-.18.13-.18.15-.17.16-.18.17-.17.18-.18.18-.17.19-.17.2-.17.21-.17.21-.17.21-.17.21-.17.22-.17.21-.17.21-.17.21-.17.21-.17.21-.18.19-.17.2-.18.18-.18.18-.19.17-.19.16-.19.15-.19.13-.21.12-.2.11-.15-.31.19-.1.18-.1.18-.13.18-.14.18-.15.17-.16.18-.17.17-.18.17-.18.17-.2.17-.2.17-.2.17-.21.17-.21.17-.22.17-.21.16-.21.17-.22.18-.21.17-.21.17-.2.18-.2.18-.19.18-.18.18-.18.19-.17.19-.15.2-.15.2-.13.2-.12.21-.1.22-.09zm3.7 1v.34l.08-.02-.12.05-.12.03-.11.01h-.12l-.11-.02-.11-.03-.1-.04-.1-.05-.1-.05-.1-.06-.1-.07-.09-.07-.1-.07-.1-.08-.09-.07-.1-.07-.1-.08-.11-.07-.1-.06-.11-.07-.11-.05-.11-.06-.12-.04-.11-.04-.13-.03-.12-.02-.13-.01-.14-.01-.14.02-.15.02-.15.04-.17.05-.11-.32.18-.06.19-.04.17-.03.17-.01h.16l.16.01.15.03.15.03.14.05.14.05.12.06.13.07.12.07.11.07.11.08.11.07.1.08.1.07.1.08.09.07.09.06.09.06.08.05.08.05.08.04.08.03.07.02.08.01h.06l.07-.01.07-.01.08-.03.07-.02zm-.07.02l.04-.02h.03l-.07.02zm1.59-1.34l.33.1-.03.08-.03.07-.03.07-.03.07-.03.07-.04.07-.04.06-.04.07-.04.07-.05.06-.04.07-.05.06-.06.06-.05.06-.06.06-.05.06-.06.05-.07.05-.06.05-.06.05-.07.04-.07.04-.07.04-.08.04-.07.03-.07.03-.08.02-.09.02-.07.02-.09.01-.08.01h-.09v-.34h.07l.06-.01.07-.01.06-.01.06-.02.06-.01.06-.03.06-.02.06-.03.06-.03.06-.04.05-.03.06-.04.05-.04.05-.05.05-.04.05-.05.05-.05.05-.05.04-.06.04-.05.05-.06.04-.05.03-.06.04-.06.03-.06.04-.06.02-.06.03-.06.03-.06.02-.06.02-.06zm.33.1v-.01.01zm1.22-1.08l-.06.34-.04-.01-.05-.01H90.21l-.04.01-.05.01-.05.01-.05.01-.04.01-.04.02-.05.01-.04.02-.04.02-.04.02-.04.03-.04.02-.04.03-.03.03-.04.03-.03.03-.03.04-.03.03-.03.04-.03.04-.03.04-.02.04-.02.04-.02.04-.02.05-.02.04-.01.05-.33-.1.02-.06.02-.06.03-.06.02-.05.03-.06.04-.05.03-.06.04-.04.03-.05.04-.05.05-.05.04-.04.05-.04.04-.04.06-.03.04-.04.06-.03.05-.03.06-.03.05-.02.06-.03.06-.02.06-.01.06-.02.06-.01.06-.01.07-.01h.19l.06.01.07.01zm1.16 1.59l-.34-.06.01-.05V27.94l-.01-.05-.01-.05-.01-.05-.01-.05-.02-.05-.02-.05-.02-.04-.02-.05-.02-.04-.03-.04-.03-.05-.03-.04-.03-.04-.04-.03-.03-.04-.04-.03-.04-.03-.04-.03-.05-.03-.04-.03-.05-.02-.04-.02-.05-.02-.05-.02-.05-.01-.05-.02h-.06l.06-.34.07.01.07.02.06.02.07.02.06.03.07.03.06.02.06.04.05.04.06.04.05.04.05.04.05.05.04.05.04.05.04.05.04.06.04.05.03.06.03.06.03.06.02.06.02.07.02.07.02.06.01.07.01.07v.2l-.01.08v.07zm-1.38 1.17l-.02-.34H90.38l.04-.01h.05l.05-.01.04-.01.05-.02.04-.01.04-.02.05-.02.04-.02.04-.02.04-.02.04-.03.03-.02.04-.03.03-.03.03-.03.04-.04.03-.03.02-.04.03-.04.03-.04.02-.04.02-.04.02-.04.02-.04.02-.05.02-.04.01-.05.01-.05.01-.05.34.06-.02.06-.01.06-.02.07-.02.06-.02.06-.02.05-.03.06-.03.05-.03.06-.04.05-.03.05-.04.04-.04.05-.04.05-.05.04-.04.04-.05.04-.05.03-.05.04-.05.03-.06.03-.05.02-.06.03-.05.02-.06.02-.06.02-.06.01-.06.01-.06.01-.07.01h-.12.01zm-.02-.34h.01-.01zm.01.17l.01.17-.01-.17zm-.01-.17h.01-.01zm-1.7.87l-.26-.22.03-.03.04-.02.05-.03.04-.03.05-.02.04-.03.05-.03.05-.02.06-.03.05-.02.06-.03.06-.02.05-.03.06-.02.06-.02.07-.02.06-.03.07-.02.06-.02.06-.02.07-.01.07-.02.07-.02.06-.01.07-.02.07-.01.07-.01.07-.02.07-.01.06-.01h.07l.07-.01.07-.01.02.34-.06.01h-.06l-.06.01-.07.01-.06.01-.06.01-.07.01-.06.01-.06.02-.06.01-.07.02-.06.01-.06.02-.06.02-.06.02-.06.02-.06.02-.06.02-.06.02-.05.02-.05.02-.06.03-.05.02-.05.02-.05.02-.04.03-.05.02-.04.02-.04.03-.03.02-.04.02-.03.02.03-.03zm-.26-.22l.01-.01.02-.02-.03.03zm.8 1.89l-.09.33-.06-.03-.08-.06-.08-.07-.08-.06-.08-.07-.07-.06-.06-.07-.06-.07-.06-.06-.06-.07-.05-.07-.04-.07-.05-.07-.04-.06-.03-.07-.03-.07-.02-.07-.02-.07-.02-.07-.01-.08-.01-.07v-.14l.01-.08.01-.07.02-.06.02-.07.03-.07.04-.07.03-.07.04-.07.05-.06.05-.07.26.22-.04.05-.03.05-.03.05-.03.05-.03.05-.02.05-.01.05-.01.05-.01.05-.01.04V30.6l.01.05.01.05.02.05.02.05.02.05.03.06.03.05.03.06.04.05.04.06.05.06.05.05.05.06.06.06.06.06.07.06.07.06.08.06.08.06-.06-.03zm-.09.33h-.03l-.03-.03.06.03zm2.07-.22l.17.29-.06.02-.08.01-.07.01-.08.01-.07.01h-.07l-.08.01h-.07l-.08.01H89.97l-.06-.01h-.07l-.07-.01h-.06l-.07-.01-.06-.01-.06-.01-.07-.01-.06-.01-.06-.01-.07-.01-.06-.01-.06-.02-.06-.01-.06-.02.09-.33.05.02.06.01.05.01.06.01.05.02.07.01.05.01h.06l.06.01.06.01.06.01h.06l.07.01h.06l.06.01H90.59l.07-.01h.07l.07-.01h.07l.07-.01.07-.01h.07l.07-.01-.06.02zm.17.29l-.03.02h-.03l.06-.02zm.69-.44l-.05.34-.02-.01H91.79l-.03-.01h-.05l-.03.01h-.1l-.02.01h-.03l-.01.01h-.02l-.02.01h-.02l-.02.01-.02.01h-.02l-.02.01-.02.01h-.02l-.01.01-.02.01-.02.01-.01.01h-.02l-.17-.29.03-.02.02-.01.02-.01.03-.01.02-.01.03-.01.02-.01.03-.01.03-.01.02-.01.02-.01h.03l.02-.01.03-.01h.04l.02-.01h.05l.03-.01h.09l.02-.01h.09l.03.01h.08l.03.01h.03zm1.07 1.34l-.33-.05v-.04l.01-.05v-.03l-.01-.05v-.04l-.01-.04v-.03l-.01-.04-.01-.04-.02-.04-.02-.03-.01-.04-.02-.04-.03-.03-.02-.04-.03-.03-.02-.03-.03-.03-.03-.03-.04-.03-.03-.03-.04-.02-.03-.03-.04-.02-.04-.02-.04-.02-.04-.02-.05-.02-.04-.01-.05-.01-.04-.02h-.05l.05-.34.06.01.07.02.06.01.06.02.05.02.06.03.06.03.05.02.05.03.05.04.05.03.05.04.04.04.04.04.04.04.04.05.03.04.04.05.03.05.03.05.02.05.03.05.02.06.01.05.02.06.01.06.01.05v.06l.01.06v.06l-.01.06-.01.06zm-1.43.95l.06-.34.04.01H91.93l.04-.01.05-.01.04-.01.04-.01.05-.01.04-.02.04-.02.04-.02.03-.02.04-.02.03-.02.04-.03.03-.02.03-.03.03-.03.02-.03.03-.03.02-.03.02-.04.02-.03.02-.04.02-.04.01-.03.01-.04.01-.04.01-.04.33.05-.01.06-.01.06-.02.05-.02.06-.02.05-.03.06-.03.05-.03.04-.03.05-.04.05-.04.04-.04.04-.04.04-.04.04-.05.03-.05.04-.05.03-.05.02-.05.03-.05.02-.06.03-.06.02-.05.01-.06.01-.06.02-.06.01h-.31l-.07-.01zm-.77-.41l.18-.3.04.04.01.02.02.01.01.02.02.01.01.01.02.02.01.01.02.02.02.01.01.01.02.02.02.01.01.01.02.01.02.01.02.01.02.01.02.02.02.01h.02l.02.01.02.01.02.01.02.01h.03l.02.01.02.01h.02l.03.01h.02l.02.01h.03l-.06.34-.03-.01h-.03l-.03-.01-.03-.01-.03-.01h-.03l-.03-.01-.02-.01-.03-.01-.03-.01-.03-.01-.03-.02-.03-.01-.02-.01-.03-.01-.02-.02-.03-.01-.03-.02-.02-.01-.03-.02-.02-.02-.02-.01-.03-.02-.02-.02-.02-.02-.02-.02-.02-.02-.02-.02-.02-.02-.02-.02-.02-.02-.02-.02.04.04zm.18-.3l.02.01.02.03-.04-.04zm-1.61-.28l-.05-.34h.17l.05.01h.05l.05.01.05.01.06.01.05.02.05.01.05.02.05.02.06.02.05.02.05.02.05.02.06.02.05.03.05.02.05.03.05.02.06.03.05.03.05.03.05.02.05.03.05.03.05.03.05.03.05.03.05.02.05.03-.18.3-.04-.03-.05-.03-.05-.03-.05-.03-.05-.02-.05-.03-.04-.03-.05-.02-.05-.03-.05-.03-.05-.02-.05-.03-.05-.02-.05-.02-.05-.03-.04-.02-.05-.02-.05-.02-.04-.01-.05-.02-.04-.02-.05-.01-.04-.01-.05-.02-.04-.01h-.04l-.04-.01-.04-.01h-.14.01zm-.05-.34h.02-.02zM89 33.73l-.31.14-.01-.02-.02-.07-.02-.07-.01-.06-.01-.07-.01-.06-.01-.06V33.29l.01-.05v-.06l.01-.05.02-.05.01-.04.02-.05.02-.05.03-.04.02-.04.04-.04.03-.03.03-.03.04-.03.04-.03.04-.02.04-.03.05-.02.05-.02.04-.01.05-.02.05-.01.05-.01.05-.01.05.34-.04.01h-.04l-.03.01-.03.01-.04.01-.03.01-.02.02-.03.01-.02.02-.03.01-.01.01-.02.02-.02.02-.01.02-.02.02-.01.02-.01.02-.01.02-.01.03-.01.03v.03l-.01.03v.16l.01.05v.05l.02.05.01.06.01.05.02.06-.01-.02zm-.31.14l-.01-.02.01.02zm2.76 1.36L91.2 35l.1.28-.08-.01h-.09l-.1-.02h-.08l-.09-.01-.1-.01-.09-.02-.09-.01-.09-.01-.09-.02-.09-.02-.09-.02-.09-.02-.09-.03-.09-.02-.09-.04-.08-.03-.09-.04-.08-.04-.09-.05-.08-.06-.08-.05-.08-.06-.07-.07-.08-.08-.07-.07-.07-.09-.07-.09-.06-.09-.06-.11-.06-.1-.05-.12.31-.14.05.1.05.1.05.08.06.09.05.07.06.07.06.07.06.06.06.05.07.06.06.04.07.05.07.04.07.03.07.04.08.03.07.02.08.03.08.02.08.02.08.02.08.02.09.01.08.02.09.01.08.01.09.01.09.01.09.01.09.01h.09l.09.01.11.29zm-.11-.29l.34.04-.23.25-.11-.29zm-.16.07l.02-.01.25.23-.02.01-.12.06-.13-.29zm.13.29l-.4.01.27-.3.13.29zm.23-.33l-.05.34h-.04.01-.02l-.03-.01h.02-.04.01-.05.01-.05l-.01-.34h.09-.01.03-.01.04-.01.03l.02.01h-.01.05-.01.03zm1.12 1.42l-.34-.06.01-.04v-.17l-.01-.05-.01-.04-.01-.04-.01-.04-.02-.04-.02-.04-.02-.04-.02-.04-.02-.04-.02-.03-.03-.04-.03-.03-.03-.04-.03-.03-.04-.03-.03-.03-.04-.03-.04-.02-.04-.03-.04-.02-.05-.02-.04-.02-.05-.02-.04-.01-.05-.02-.05-.01-.05-.01.05-.34.06.02.07.01.06.02.07.02.06.02.05.03.06.03.06.03.05.03.05.03.05.04.05.04.05.04.04.04.05.05.03.05.04.04.03.05.04.06.03.05.02.05.03.06.02.06.02.05.01.06.01.06.01.06.01.07v.18l-.01.07zm-1.5 1l.05-.34.06.01H91.51l.05-.01.05-.01.04-.01.05-.01.04-.02.05-.02.04-.01.04-.02.04-.03.04-.02.03-.03.04-.02.03-.03.03-.03.04-.03.02-.04.03-.03.02-.03.03-.04.02-.04.02-.04.02-.04.01-.04.01-.04.01-.04.01-.05.34.06-.01.06-.02.06-.02.06-.02.06-.02.05-.03.06-.03.05-.03.05-.04.05-.03.05-.04.05-.05.04-.04.04-.05.04-.05.04-.05.03-.05.04-.05.02-.05.03-.06.03-.06.02-.06.02-.06.02-.06.01-.06.01-.07.01-.06.01h-.26l-.07-.01zm-.74-.69l-.24-.24.27.05.01.02.02.03.01.02.01.02.02.03.02.02.01.02.02.02.03.03.01.02.02.02.03.02.02.02.02.02.02.02.03.02.02.02.03.01.02.02.03.01.03.02.03.01.03.02.02.01.03.01.03.01.03.01.03.01.04.01.03.01h.03l.03.01-.05.34-.04-.01-.04-.01-.05-.01-.04-.01-.04-.01-.04-.02-.04-.01-.04-.02-.04-.01-.03-.02-.04-.02-.03-.02-.04-.02-.04-.02-.03-.02-.03-.03-.03-.02-.04-.03-.03-.02-.03-.03-.02-.03-.03-.02-.03-.04-.02-.02-.03-.03-.03-.04-.02-.03-.02-.03-.02-.04-.02-.03-.02-.03-.02-.04.28.05zm-.24-.24l.17-.17.1.22-.27-.05zm0 0l.24.24-.28-.05.04-.19zm.24.24l-.17.17-.11-.22.28.05zm-2.8-1.27l-.28-.19.01-.01.1-.12.1-.1.11-.08.11-.08.11-.06.12-.04.11-.04.12-.02h.24l.11.02.11.03.12.03.11.05.1.05.11.06.1.07.1.08.1.08.1.08.09.09.09.1.09.1.09.1.08.1.08.11.07.11.08.11.06.11.07.11.06.11.06.11-.31.15-.05-.1-.06-.1-.06-.11-.06-.1-.07-.1-.07-.1-.07-.1-.08-.1-.08-.09-.08-.09-.08-.09-.08-.08-.09-.07-.08-.07-.09-.07-.09-.06-.09-.05-.08-.04-.09-.04-.09-.03-.08-.02-.09-.01h-.16l-.08.02-.08.02-.08.03-.09.04-.08.06-.08.07-.09.08-.08.09.01-.01zm-.28-.19l.01-.01-.01.01zm1.01 1.96h-.34l.05.12-.02-.01-.03-.03-.03-.02-.03-.03-.04-.03-.05-.03-.05-.04-.05-.04-.05-.04-.05-.05-.06-.05-.05-.05-.06-.05-.05-.06-.05-.05-.05-.07-.05-.06-.04-.07-.04-.07-.04-.08-.03-.08-.02-.08-.02-.09-.01-.09v-.19l.02-.1.02-.1.04-.1.05-.11.05-.1.07-.11.28.19-.05.09-.05.08-.03.08-.03.08-.02.07-.01.07v.19l.02.05.01.06.02.06.03.05.03.05.03.06.04.05.04.05.04.05.05.04.04.05.05.04.05.04.05.04.04.04.05.04.05.03.04.04.04.03.05.03.03.03.04.03.03.03.05.12zm-.05-.12l.05.05v.07l-.05-.12zm-.29.12h.34l-.26.15-.08-.15zm.08.15l-.08-.05v-.1l.08.15zm.7.82l-.34-.05.01-.03v-.18l-.01-.02v-.03l-.01-.03v-.02l-.01-.03-.01-.03-.01-.03-.01-.02-.01-.03-.01-.02-.02-.03-.01-.02-.02-.02-.01-.03-.02-.02-.02-.02-.02-.02-.02-.02-.01-.02-.03-.02-.02-.02-.02-.01-.02-.02-.02-.01-.03-.02.17-.29.04.02.03.02.03.02.04.03.03.03.03.02.03.03.02.03.03.03.03.03.02.03.02.03.03.04.02.04.02.03.01.03.02.04.02.04.01.04.01.03.02.04.01.04v.04l.01.04.01.05v.25l-.01.04zm-1.25.91l.06-.33H87.82l.04-.01.03-.01.04-.01.03-.01.04-.01.03-.02.03-.01.03-.02.03-.02.03-.02.03-.02.03-.03.03-.02.02-.03.03-.02.02-.03.02-.03.02-.03.02-.03.02-.04.01-.03.02-.03.01-.04.01-.04.01-.03v-.04l.34.05-.01.05-.01.06-.02.05-.02.05-.02.05-.02.05-.02.05-.03.05-.03.04-.03.04-.03.04-.04.05-.04.03-.03.04-.04.03-.04.04-.05.02-.04.03-.05.03-.04.02-.05.02-.05.02-.05.02-.05.01-.06.01-.05.01-.05.01H87.6l-.06-.01zm-.91-.93l.34-.04v.03l.01.03v.03l.01.03.01.02.01.03.02.03.01.03.01.02.02.03.01.02.02.03.01.02.02.02.02.03.02.02.02.02.03.02.02.02.02.02.03.01.02.02.03.01.02.02.03.01.03.01.03.02.02.01h.03l.03.01.04.01.03.01-.06.33-.04-.01-.05-.01-.04-.01-.04-.01-.05-.02-.03-.01-.04-.02-.05-.02-.03-.02-.04-.02-.04-.03-.03-.02-.04-.03-.03-.03-.03-.02-.03-.04-.03-.03-.03-.03-.02-.03-.03-.04-.02-.03-.03-.04-.02-.04-.02-.03-.02-.04-.01-.04-.02-.04-.01-.04-.01-.05-.01-.04-.01-.04-.01-.04v-.01zm0 .01v-.01.02-.01zm.17-.03l-.17.02.17-.02zm-.17.03v-.01.02-.01zm.17-.03l-.17.02.17-.02zm-.17.03v-.01.02-.01zm0-.33l.34.06v.02l-.01.01v-.01V38.06v-.01.05-.01l.01.01v.01l-.34.04v-.01l-.01-.02v-.23l.01-.02v-.04zm.06-.21l.34.03-.01.06v.01h-.01.01-.01v.02l-.01.01v.02l-.01.01v.02l-.01.01v.03-.01.02l-.01.01v-.01.04l-.34-.06v-.01h.01v-.05h.01-.01l.01-.02v-.03l.01-.01v-.02.01l.01-.01v-.02l.01-.02v-.02h.01v-.03l.01-.02.01-.01-.02.05zm.34.03v.03l-.01.03.01-.06zm-1.47-2.44l-.26-.22.2-.05.09.04.1.05.09.04.09.05.08.06.08.05.08.06.08.06.08.06.07.07.07.07.06.07.06.07.07.08.05.08.05.08.05.09.05.09.04.09.04.09.03.1.03.1.03.1.02.11.02.11.02.11.01.11v.12l.01.12v.13l-.01.12-.01.13-.34-.03.01-.12.01-.11v-.12l-.01-.1v-.11l-.01-.1-.02-.1-.01-.1-.02-.09-.03-.09-.02-.08-.03-.09-.03-.08-.04-.08-.04-.07-.04-.07-.04-.07-.05-.07-.05-.07-.05-.06-.06-.06-.06-.06-.06-.05-.06-.06-.07-.05-.07-.05-.07-.05-.08-.04-.07-.05-.09-.04-.08-.04-.09-.04.2-.04zm-.26-.22l.08-.1.12.05-.2.05zm.4 2.13l-.34.06-.01-.1-.02-.09-.01-.09-.02-.09-.01-.08-.02-.09-.01-.08-.02-.08-.01-.08-.02-.07-.02-.08-.01-.07-.01-.07-.01-.07-.02-.07v-.07l-.01-.07-.01-.06-.01-.06v-.24l.01-.06.01-.06.01-.06.02-.05.02-.06.02-.05.03-.05.03-.05.04-.04.26.22-.02.02-.02.03-.01.03-.02.03-.01.03-.01.03-.01.03v.04l-.01.04v.19l.01.06v.06l.01.05.01.07.01.06.01.07.02.07.01.07.01.07.02.08.01.08.02.08.02.08.01.09.02.08.01.09.02.1.01.09.02.1v-.01zm-.34.06zm.35.08h-.33v.03-.01l-.01-.03.01.03v-.01l-.01-.03.01.02h-.01v-.03.02-.04.03-.05.03-.02l-.01-.01v-.01l.34-.06v.04l.01.03-.01-.03.01.01v.04-.03.05-.03.04-.03.04-.02.03zm0-.02v.02-.02zm-.33.02h.33l-.33.02v-.02zm0 .02v-.02.02zm.16-.02l.17-.01-.17.01zm-.16.02v-.02.02zm.32.36l-.33-.05V37.53l.01-.01V37.28l.33-.03v.01l.01.02V37.52l-.01.02v.08l-.01.01v.01zm0 0v.02-.02zm-1.39 1.19l.05-.34.04.01h.13l.04-.01h.04l.04-.01.04-.01.04-.02.04-.01.04-.02.04-.02.03-.03.04-.02.04-.03.03-.03.03-.03.04-.03.03-.04.03-.03.03-.04.03-.04.03-.04.02-.05.02-.04.03-.05.02-.05.02-.05.01-.05.01-.05.02-.05.01-.06.33.05-.01.07-.02.07-.01.07-.02.06-.03.07-.02.06-.03.06-.03.05-.03.06-.04.06-.03.05-.04.05-.04.05-.04.04-.05.05-.04.04-.05.04-.05.04-.05.03-.05.03-.06.03-.05.03-.06.02-.06.02-.05.02-.06.01-.07.01-.06.01h-.18l-.06-.01zm-.97-1.55l.34.05-.01.05-.01.06v.16l.01.05v.05l.01.05.01.05.01.05.02.04.01.05.02.04.02.05.02.04.03.04.02.04.03.03.03.04.02.03.03.03.04.03.03.03.03.03.04.02.03.02.04.02.04.02.04.01.04.02.04.01h.04l-.05.34-.07-.01-.06-.02-.06-.02-.05-.02-.06-.02-.05-.03-.06-.03-.05-.04-.04-.03-.05-.04-.04-.04-.05-.05-.04-.04-.04-.05-.03-.05-.03-.05-.04-.06-.02-.06-.03-.05-.02-.06-.03-.06-.01-.06-.02-.06-.01-.07-.01-.06-.01-.07-.01-.07v-.2l.01-.07.01-.07v.01zm.09-.33l.31.12v.01l-.01.02v.02h-.01v.03l-.01.01v.03l-.01.01v.01-.01.03l-.01.01v.02l-.01.02v-.01V37.33l-.34-.05v-.03l.01-.02v-.04l.01-.01v-.03l.01-.01v-.03l.01-.01v-.02l.01-.01v-.03l.01-.01v-.02l.01-.01v-.01l.01-.02v-.01l.01-.01zm0 0l.05-.13-.05.13zm.43-.6l.29.18-.04.05-.01.01-.02.01-.02.01-.01.01-.01.02h-.01l-.02.02-.01.01-.02.02-.01.01-.01.01-.02.02v.01l-.02.02-.01.01-.01.02-.01.01-.01.02-.02.02-.01.02-.01.01-.01.02-.01.01-.01.02-.01.02-.01.02v.01l-.01.02-.01.02-.01.02-.01.02-.01.02-.31-.12.01-.03.01-.02.01-.02.01-.03.01-.02.01-.03.01-.02.01-.02.02-.02.01-.03.01-.02.02-.02.01-.02.01-.02.02-.02.02-.03.01-.02.02-.01.01-.02.02-.03.01-.01.02-.02.02-.02.02-.02.01-.01.02-.02.02-.02.02-.02.02-.01.02-.02.01-.01.02-.02-.04.05zm.29.18l-.02.03-.02.02.04-.05zm-1.28-2.65l-.26-.22-.01.01.08-.09.09-.09.1-.06.11-.05.11-.04.11-.02.12-.01.12.01.11.02.12.04.11.04.11.06.11.06.1.08.1.09.09.1.08.11.08.12.06.13.06.14.05.15.03.15.02.16.01.17-.01.18-.02.18-.04.2-.06.19-.07.2-.09.21-.11.21-.13.22-.29-.18.12-.2.1-.2.09-.18.06-.18.05-.17.03-.17.02-.16.01-.15-.01-.14-.01-.13-.03-.13-.04-.12-.04-.11-.06-.1-.06-.09-.06-.09-.07-.08-.08-.07-.08-.06-.08-.05-.08-.04-.08-.03-.08-.03-.08-.01-.08-.01-.08.01-.07.01-.07.02-.06.03-.06.04-.05.05-.05.06-.01.01zm.01-.01l-.01.01.01-.01zm-5.98 5.31l-.04-.33.22-.04.21-.05.21-.06.21-.08.21-.09.2-.1.2-.11.19-.12.2-.13.19-.14.18-.15.19-.16.18-.17.18-.17.18-.18.18-.18.17-.2.17-.19.17-.2.17-.2.17-.21.17-.2.16-.21.16-.21.16-.21.16-.21.16-.21.16-.21.16-.2.16-.2.16-.2.16-.2.26.22-.15.19-.16.2-.16.2-.16.2-.15.21-.16.21-.17.21-.16.21-.16.21-.17.21-.17.21-.17.21-.17.2-.17.2-.17.2-.18.2-.18.19-.19.18-.18.18-.2.17-.19.17-.2.16-.2.14-.2.14-.21.13-.21.12-.22.11-.22.09-.23.09-.23.07-.24.05-.24.04zm-8.71-5.55l-.25-.23.19-.04.57.25.54.26.5.26.47.25.45.26.41.26.39.26.37.25.34.25.32.25.3.24.28.24.26.23.25.22.23.22.22.2.2.2.2.19.19.18.18.17.17.15.17.14.16.12.16.11.17.1.16.08.16.07.16.05.18.03.17.02h.19l.21-.02.04.33-.23.02-.22.01-.21-.02-.21-.04-.19-.06-.19-.08-.19-.09-.18-.11-.18-.12-.17-.14-.18-.14-.18-.16-.19-.17-.19-.18-.19-.19-.21-.2-.22-.2-.22-.22-.25-.22-.26-.23-.27-.23-.29-.24-.32-.24-.33-.24-.36-.25-.38-.25-.41-.26-.43-.25-.47-.25-.5-.26-.52-.25-.56-.25.19-.04zm-.25-.23l.08-.09.11.05-.19.04zm-39.86 2.31l-.33.09.28-.17.91.78.97.74 1.02.7 1.07.65 1.12.61 1.16.56 1.2.52 1.23.46 1.27.42 1.29.36 1.32.31 1.34.25 1.36.2 1.37.14 1.39.08 1.39.02 1.4-.04 1.4-.11 1.39-.17 1.39-.23 1.38-.31 1.36-.37 1.35-.44 1.33-.51 1.31-.59 1.27-.66 1.25-.73 1.22-.82 1.17-.89 1.14-.97 1.09-1.05 1.05-1.14.25.23-1.06 1.15-1.1 1.06-1.15.99-1.2.9-1.23.82-1.26.75-1.3.67-1.32.59-1.34.52-1.37.45-1.38.38-1.4.3-1.4.24-1.41.17-1.41.11-1.42.04-1.4-.02-1.4-.08-1.39-.14-1.38-.2-1.35-.26-1.34-.31-1.3-.37-1.29-.42-1.24-.47-1.22-.52-1.17-.57-1.13-.61-1.08-.67-1.04-.71-.98-.75-.93-.79.28-.17zm-.33.09l-.16-.57.44.4-.28.17zm-.16 6.35l-.28-.2.17-.25.15-.24.13-.24.12-.24.11-.22.09-.23.08-.22.07-.21.05-.22.05-.2.03-.21.03-.2.02-.19V38.51l-.02-.19-.02-.18-.02-.18-.04-.17-.03-.18-.04-.17-.04-.17-.05-.17-.05-.17-.05-.16-.05-.17-.05-.16-.05-.16-.05-.16-.05-.16-.05-.16.33-.09.05.15.04.16.05.16.05.16.06.16.05.17.05.17.05.17.04.17.05.18.04.18.04.18.03.19.03.19.02.19.02.2v.61l-.02.21-.03.21-.03.22-.05.23-.06.22-.08.23-.08.23-.1.24-.11.24-.13.25-.14.25-.16.26-.17.26zm-11.52 3.71l.1-.32.02.01.24.09.26.08.29.06.31.04.34.02.34.01.37-.01.38-.03.39-.04.41-.06.41-.07.42-.09.42-.1.43-.11.43-.12.43-.14.42-.14.42-.16.42-.16.4-.18.4-.18.39-.19.37-.19.35-.2.34-.21.32-.21.3-.21.28-.22.25-.22.23-.22.19-.22.17-.22.28.2-.19.24-.21.24-.24.23-.26.23-.29.23-.31.22-.33.22-.35.21-.37.21-.38.2-.39.19-.41.19-.41.17-.43.17-.42.16-.44.15-.43.13-.44.13-.43.11-.44.11-.42.08-.43.08-.41.05-.41.05-.39.03-.38.01-.37-.01-.35-.02-.33-.05-.32-.06-.29-.09-.27-.11.02.01zm.1-.32h.01l.01.01-.02-.01zm-3.93 1.57h-.34l.02-.09.1-.15.09-.15.09-.13.1-.14.1-.12.11-.12.1-.11.11-.1.11-.1.12-.09.12-.08.12-.07.12-.07.13-.06.13-.05.13-.05.13-.04.14-.03.14-.03.14-.02.15-.01.15-.01h.3l.15.02.16.01.16.02.17.03.16.04.17.03.17.05.18.05-.1.32-.17-.04-.16-.05-.16-.03-.16-.03-.15-.03-.15-.02-.15-.01-.14-.02h-.27l-.14.01-.13.01-.12.02-.13.02-.12.03-.12.03-.11.04-.11.05-.11.05-.11.06-.11.07-.1.07-.1.08-.1.08-.1.09-.09.1-.1.11-.09.11-.09.12-.09.13-.08.14-.09.14.02-.08zm-.34 0v-.05l.02-.04-.02.09zm.53 1.32l-.13.31-.08-.07-.02-.03-.02-.04-.02-.03-.02-.04-.02-.04-.01-.04-.02-.04-.01-.04-.02-.04-.01-.05-.02-.04-.01-.04-.01-.05-.01-.05-.01-.04-.01-.05-.01-.05-.01-.05-.01-.05v-.06l-.01-.05-.01-.05v-.06l-.01-.05v-.06l-.01-.06v-.12l-.01-.06v-.18h.34V47.28l.01.06v.11l.01.05v.06l.01.05v.05l.01.05v.05l.01.04.01.05v.05l.01.04.01.04.01.05.01.04.01.04.01.04.01.03.01.04.02.04.01.03.01.03.02.03.01.03.01.03.02.03.01.03.02.03-.08-.07zm-.13.31l-.05-.02-.03-.05.08.07zm.71.86l-.32-.12.01-.03v-.02l.01-.03v-.03l.01-.02v-.08l-.01-.03v-.02l-.01-.03v-.03l-.01-.03-.01-.02-.01-.02-.01-.03-.02-.02-.01-.03-.02-.02-.01-.03-.02-.02-.02-.02-.02-.02-.03-.02-.02-.02-.02-.02-.03-.02-.02-.02-.03-.02-.03-.01-.03-.01-.03-.02.13-.31.04.02.05.02.04.02.04.02.04.03.03.03.04.02.03.03.03.04.04.03.03.03.02.04.03.03.03.04.02.04.02.04.02.04.02.03.01.05.01.04.01.04.01.04.01.05.01.04v.14l-.01.04-.01.04-.01.05-.01.04-.01.05zm-1.24.51l.12-.32.03.01.03.01.04.01h.03l.03.01h.16l.03-.01h.03l.02-.01.03-.01.03-.01.03-.01.03-.01.02-.01.03-.02.02-.01.03-.02.02-.01.02-.02.02-.02.02-.02.02-.02.02-.02.01-.02.01-.02.02-.03.01-.03.01-.02.32.12-.02.04-.02.04-.02.04-.03.04-.02.04-.03.04-.03.03-.03.03-.03.03-.04.03-.03.03-.04.02-.04.03-.04.02-.04.02-.04.02-.04.01-.04.02-.05.01-.05.01-.04.01-.05.01H12.01l-.05-.01-.05-.01-.04-.01-.05-.01-.05-.02zm-.64-1.09l.34.02v.04l-.01.02-.01.03v.16l.01.02v.03l.01.02v.03l.02.02.01.03.01.02.01.03.01.02.02.03.02.02.02.02.02.02.02.02.02.02.02.02.02.02.03.02.02.02.03.02.03.01.03.01.03.02.03.01-.12.32-.04-.02-.04-.01-.05-.03-.04-.02-.04-.02-.04-.03-.03-.03-.04-.02-.03-.03-.03-.04-.04-.03-.02-.03-.03-.04-.03-.03-.02-.04-.02-.03-.03-.04-.02-.04-.01-.04-.02-.04-.01-.04-.01-.04-.01-.04-.01-.05V49.12l.01-.05.01-.04.01-.05-.01.04zm.34.02v.04-.04zm-1.1-1.72l-.18-.29.07-.02.13-.01.11-.01.11.01.1.01.09.02.09.02.09.03.07.04.08.05.06.05.06.06.05.06.05.07.04.07.03.08.02.07.03.08.01.08.02.08.01.09v.08l.01.09v.27l-.01.09v.09l-.01.09-.01.1v.09l-.01.09-.01.09-.34-.02.01-.09.01-.1v-.09l.01-.09.01-.09v-.09l.01-.08v-.25l-.01-.08v-.07l-.01-.07-.01-.07-.01-.06-.02-.06-.02-.05-.02-.05-.02-.04-.03-.05-.03-.03-.03-.04-.04-.02-.04-.03-.05-.03-.05-.02-.06-.01-.07-.01-.08-.01-.08-.01-.1.01h-.1l.07-.02zm-.18-.29l.04-.02h.03l-.07.02zm-1.01 2.42l-.3.16-.02-.08v-.27l.01-.07.01-.08.01-.08.02-.08.01-.08.02-.08.02-.08.03-.08.02-.09.04-.09.03-.08.03-.09.04-.08.05-.09.04-.08.05-.09.06-.08.05-.09.06-.08.07-.08.07-.08.07-.08.08-.07.08-.08.08-.07.09-.07.09-.07.1-.06.18.29-.08.05-.09.06-.07.06-.08.07-.07.06-.07.07-.06.07-.06.07-.06.07-.05.07-.05.07-.05.08-.04.07-.04.08-.04.08-.03.07-.04.08-.03.08-.02.07-.03.08-.02.07-.02.07-.01.08-.02.07-.01.07-.01.07-.01.06-.01.07V49.52l-.02-.07zm-.3.16l-.02-.04v-.04l.02.08zm.37.66l-.32-.11.01-.03.01-.03.01-.02v-.03l.01-.02v-.02l.01-.02V49.82l-.01-.01v-.01l-.01-.02v-.02l-.01-.01-.01-.02-.01-.02v-.01l-.01-.02-.01-.02-.01-.01-.01-.02-.01-.02.3-.16.01.02.01.02.01.02.01.02.01.02.01.02.01.02.01.01.01.03.01.02.01.03v.01l.01.03.01.03v.02l.01.03v.21l-.01.04v.03l-.01.03-.01.03-.01.03-.01.03-.01.04-.01.03zm-1.43.6l.12-.33.03.02.04.01.04.01h.08l.04.01h.04l.04-.01h.04l.04-.01h.04l.04-.01.03-.02.04-.01.04-.01.03-.02.04-.02.04-.01.03-.02.03-.02.03-.02.03-.03.03-.02.02-.02.02-.02.03-.03.02-.02.01-.02.02-.03.01-.02.01-.02.01-.02.32.11-.02.05-.02.04-.02.04-.03.04-.03.04-.03.03-.03.04-.03.03-.04.04-.04.03-.04.03-.04.03-.04.03-.05.02-.05.03-.04.02-.05.02-.05.02-.05.02-.05.01-.06.02-.05.01-.06.01h-.05l-.06.01h-.06l-.06-.01h-.05l-.06-.01-.06-.01-.05-.02-.06-.01zm-.72-1.38l.32.12-.01.03v.02l-.01.03v.19l.01.03.01.04.01.03.01.04.01.03.02.04.01.03.02.04.02.03.02.03.02.04.03.03.02.03.03.03.03.03.03.02.03.03.03.02.03.02.04.02.03.02.04.02.04.01-.12.33-.06-.03-.05-.02-.05-.03-.05-.03-.05-.03-.04-.03-.05-.04-.04-.04-.04-.04-.03-.04-.04-.04-.03-.04-.03-.05-.03-.04-.03-.05-.02-.05-.02-.04-.02-.05-.02-.05-.02-.05-.01-.05-.01-.05-.01-.05-.01-.05V49.64l.01-.05.02-.05.01-.05zm.77-.32l.13-.31-.04.32-.02.01h-.05l-.02.01-.03.01h-.02l-.02.01-.03.01h-.01l-.02.01-.03.01-.01.01-.02.01-.02.01-.01.01-.02.01-.01.01-.02.01-.01.02-.02.01-.01.02-.02.01-.01.02-.01.02-.01.02-.02.02-.01.02-.01.02-.01.03-.02.02-.01.03-.01.03-.32-.12.02-.03.01-.04.02-.04.01-.03.02-.04.02-.03.02-.03.02-.03.02-.03.03-.03.02-.02.02-.03.03-.02.02-.02.03-.02.02-.02.03-.02.03-.02.02-.02.03-.01.03-.02.03-.01.03-.01.03-.01.03-.01.03-.01.03-.01.03-.01.03-.01h.03l.03-.01h.03l-.03.32zm.13-.31l.53.22-.57.1.04-.32zm-.22 0l.21.27-.04-.29h.01l-.02-.01h.01l.02.02-.02-.01.02.01h.01l-.02-.01.02.01-.02-.01-.05-.01.08.02h-.02l.03.01-.02-.01.03.01H8l-.13.31h-.01l-.01-.01.03.01h-.01l-.02-.01.02.01h-.01l-.02-.01.07.01h-.05l-.03-.01v-.01l.02.01-.02-.01h-.01l.02.01-.02-.01.02.01-.03-.01h.02l-.05-.29zm.05.29l-.29-.1.24-.19.05.29zm.75-2.25l.11-.33.03.02.07.05.06.05.05.06.05.06.04.07.03.07.02.08.02.07.01.08.01.08v.09l-.01.08-.01.09-.02.08-.02.09-.03.09-.03.08-.03.09-.04.09-.05.09-.04.09-.06.09-.05.09-.06.08-.07.09-.07.08-.07.09-.08.08-.08.08-.09.08-.09.08-.09.07-.21-.27.09-.07.08-.06.07-.07.08-.08.07-.07.06-.07.06-.08.06-.08.05-.07.05-.08.05-.08.04-.08.04-.07.04-.08.03-.07.02-.08.02-.07.02-.07.01-.07.01-.07.01-.06v-.06l-.01-.05-.01-.05-.01-.05-.01-.05-.02-.04-.02-.03-.02-.04-.03-.03-.03-.03-.04-.02.04.02zm.11-.33l.02.01.01.01-.03-.02zM6.9 47.88l-.34-.04.02-.06.04-.07.04-.07.04-.06.04-.07.05-.07.05-.06.05-.07.05-.06.05-.06.06-.06.06-.06.06-.06.06-.05.06-.06.06-.05.07-.04.07-.05.07-.04.07-.04.07-.04.08-.03.07-.03.08-.02.08-.02.08-.01.08-.01.09-.01h.08l.09.01.08.01.09.02.09.02-.11.33-.06-.02-.07-.01-.06-.01-.06-.01h-.07l-.06.01h-.06l-.06.01-.06.02-.06.02-.06.02-.06.02-.06.03-.05.03-.06.04-.05.03-.06.04-.06.05-.05.04-.05.05-.05.05-.05.05-.05.05-.05.06-.04.06-.05.05-.04.06-.04.06-.04.06-.04.06-.04.06-.03.06.02-.06zm-.34-.04v-.04l.02-.02-.02.06zm.27.33l-.32-.11.01-.03.01-.03.01-.02v-.02l.01-.03.01-.01v-.02l.01-.01v-.03.03l.02.07.07.08h.15l-.08.02-.07-.02-.05-.03-.02-.03-.03-.06v-.08l.34.04v-.01.01l-.01-.03-.02-.06-.02-.02-.04-.03-.08-.02-.07.02v-.01h.15l.01.01.07.07.02.08v.03l-.01.02v.02l-.01.02v.03l-.01.02-.01.01v.02l-.01.03-.01.03-.01.02-.01.03zm-1.73.82l.11-.33.05.02.04.01.05.01h.2l.05-.01.05-.01.05-.01.06-.02.05-.02.05-.02.05-.02.05-.03.05-.02.05-.03.04-.03.05-.03.04-.03.04-.04.04-.03.04-.03.03-.03.03-.04.03-.03.03-.03.02-.03.02-.03.02-.03.01-.02.01-.02.32.11-.02.05-.02.04-.03.05-.03.04-.03.05-.04.04-.03.04-.05.05-.04.04-.05.04-.04.04-.05.04-.05.04-.06.03-.06.04-.05.03-.06.04-.06.03-.07.02-.06.03-.07.02-.06.02-.07.02-.07.01-.07.02h-.28l-.07-.02-.07-.01-.07-.02zm-.81-1.74l.32.12-.02.05-.01.05-.01.05-.01.04v.05l-.01.05v.1l.01.05v.05l.01.05.01.04.01.05.02.05.02.04.02.05.02.04.02.05.03.04.02.04.03.04.04.03.03.04.03.04.04.03.04.03.04.03.04.03.05.02.04.03.04.02.05.01-.11.33-.07-.03-.06-.03-.06-.03-.06-.04-.05-.03-.06-.04-.05-.04-.05-.05-.05-.04-.04-.05-.04-.05-.04-.05-.04-.06-.03-.05-.03-.06-.03-.06-.03-.06-.02-.06-.02-.06-.02-.06-.01-.07-.01-.06-.01-.07-.01-.06v-.13l.01-.07v-.07l.02-.06.01-.06.02-.07.02-.07zm1.53-.85l.06.34h-.07l-.05-.02h-.05l-.04-.01-.05-.01h-.14l-.04.01-.05.01h-.04l-.05.01-.04.02-.04.01-.05.01-.04.02-.04.02-.04.03-.04.02-.04.02-.03.03-.03.03-.04.03-.03.04-.03.03-.03.03-.03.04-.03.04-.03.04-.02.04-.02.05-.02.04-.02.05-.32-.12.02-.06.03-.06.03-.06.03-.05.03-.06.04-.05.04-.05.04-.05.04-.04.05-.05.04-.04.05-.04.05-.03.05-.04.05-.03.05-.03.06-.03.05-.02.06-.02.06-.02.06-.02.06-.01.06-.01.06-.01.06-.01h.18l.07.01.06.01.06.01.06.02-.07-.01zm.06.34l-.04.01-.03-.01h.07zm1.77-2.37l.26-.21.03.06.03.11.02.12v.22l-.02.12-.02.11-.04.11-.04.1-.04.11-.06.1-.06.1-.07.1-.07.09-.07.09-.08.09-.08.09-.09.08-.09.08-.09.08-.09.07-.1.07-.09.07-.09.06-.1.06-.1.05-.09.05-.09.04-.09.04-.09.04-.09.03-.09.02-.08.02-.06-.34.06-.01.07-.02.07-.02.08-.03.08-.04.08-.04.08-.04.09-.05.08-.05.09-.06.09-.06.08-.06.08-.07.09-.06.08-.08.07-.07.08-.08.07-.08.07-.08.06-.08.05-.09.06-.08.04-.08.04-.09.03-.09.03-.08.02-.08.01-.09v-.16l-.01-.08-.02-.09.03.06zm.26-.21l.02.02.01.04-.03-.06zm-2.39.08l-.26-.22.04-.04.12-.06.11-.06.11-.05.11-.04.12-.04.1-.03.11-.03.1-.03.1-.01.11-.02h.09l.1-.01.09.01h.09l.09.01.09.01.08.02.08.02.08.02.08.02.07.03.07.03.06.03.07.04.06.03.05.04.06.04.05.04.04.04.05.04.04.04.03.05-.26.21-.03-.03-.03-.03-.03-.03-.03-.03-.04-.03-.04-.03-.05-.03-.04-.03-.05-.02-.05-.03-.06-.02-.06-.02-.06-.02-.06-.02-.07-.02-.07-.01-.07-.01-.07-.01h-.08l-.08-.01-.08.01h-.08l-.09.01-.08.02-.09.02-.1.02-.09.03-.09.04-.1.04-.1.04-.1.05-.11.06.05-.04zm-.26-.22l.02-.02.02-.02-.04.04zm-1.24.63l.12-.32.04.01.04.02.05.01.04.01.04.01h.05l.03.01h.16l.04-.01h.03l.04-.01.04-.01.03-.01.03-.01.04-.01.03-.02.03-.01.04-.02.03-.02.03-.02.03-.02.03-.02.03-.02.03-.03.03-.02.03-.03.02-.03.03-.03.03-.03.26.22-.04.04-.03.03-.03.04-.04.04-.04.03-.04.03-.03.03-.04.03-.05.03-.04.03-.04.02-.04.02-.05.02-.05.02-.04.02-.05.02-.05.01-.05.01-.05.01-.05.01-.05.01H4.41l-.06-.01-.05-.01-.06-.01-.05-.01-.06-.02-.05-.01-.06-.02zm-.81-1.73l.32.11-.01.05-.02.05-.01.05-.01.05v.2l.01.05v.05l.01.05.02.04.01.05.02.05.02.05.02.04.02.05.03.04.02.04.03.04.03.04.04.04.03.04.03.03.04.03.03.03.04.03.04.03.04.02.04.02.04.02.05.02-.12.32-.06-.03-.06-.02-.05-.03-.06-.03-.05-.04-.05-.04-.05-.04-.05-.04-.05-.05-.04-.05-.04-.05-.04-.05-.04-.05-.03-.05-.04-.06-.03-.06-.02-.06-.03-.06-.02-.06-.02-.06-.02-.07-.01-.06-.01-.07-.01-.06V43.25l.01-.06.01-.07.01-.07.02-.06.02-.07zm1.73-.81l-.12.32-.02-.01-.03-.01h-.03l-.04-.01h-.17l-.05.01h-.05l-.05.01-.05.01-.05.01-.05.02-.05.02-.06.02-.05.02-.05.02-.04.02-.05.03-.05.03-.04.03-.04.03-.04.03-.04.04-.04.04-.03.03-.03.04-.03.04-.02.05-.02.04-.02.04-.32-.11.03-.07.03-.07.04-.06.04-.06.04-.05.04-.05.05-.06.05-.04.06-.05.05-.04.06-.04.06-.03.06-.04.06-.03.06-.03.06-.02.06-.02.07-.03.06-.01.06-.02.06-.01.07-.01.06-.01.06-.01H4.73l.06.01.05.01.05.01.05.02zm.46.29l-.15.31-.05-.04-.01-.02h-.01l-.02-.02v-.01l-.01-.01-.01-.02-.01-.01h-.01l-.01-.02-.01-.01-.01-.01h-.01v-.01h-.01l-.02-.01-.02-.01-.02-.01-.02-.01-.02-.01-.02-.01-.03-.01-.03-.01-.03-.01-.04-.01.12-.32.04.01.03.01.03.02.03.01.03.01.03.01.02.01.02.01.02.01.03.01.01.01.02.01.02.01.01.01.02.01.02.02.02.02.01.01.01.01.02.02v.01l.02.01.01.02.01.01.01.01.01.02.01.01-.05-.04zm-.15.31l-.03-.02-.02-.02.05.04zm2.28.2l.16.3-.07.02H7.2l-.08-.01h-.08l-.08-.01-.07-.01-.08-.01-.08-.01-.07-.01-.08-.01-.08-.02-.07-.01-.07-.02-.08-.02-.07-.02-.07-.02-.07-.02-.07-.02-.07-.03-.07-.02-.07-.03-.07-.02-.07-.03-.07-.03-.06-.02-.07-.03-.07-.03-.06-.03-.07-.03.15-.31.06.03.06.03.07.02.06.03.06.03.07.02.06.03.07.02.06.03.07.02.06.02.07.02.06.02.07.02.07.02.07.02.06.01.07.02.07.01.07.01.07.01.07.02.08.01H7l.07.01h.07l.08.01H7.6l-.07.02zm.16.3l-.04.02h-.03l.07-.02zm2.03-3.59l.08-.33.05.02.12.08.11.09.1.09.1.09.08.1.07.1.06.11.04.11.03.11.03.12v.12l-.01.11-.02.13-.03.12-.05.12-.06.13-.07.12-.09.13-.1.12-.11.13-.12.13-.14.13-.15.13-.16.13-.18.14-.19.13-.2.14-.22.15-.23.14-.24.15-.26.15-.27.15-.16-.3.26-.15.26-.15.24-.14.22-.14.21-.14.2-.13.18-.14.17-.13.15-.12.14-.13.13-.12.11-.11.1-.12.08-.11.08-.1.06-.11.05-.09.03-.1.03-.09.02-.09v-.16l-.02-.07-.02-.08-.03-.08-.04-.07-.05-.07-.07-.08-.07-.07-.08-.08-.1-.07-.1-.07.05.02zm.08-.33h.02l.03.02-.05-.02zm-.2.29l.11-.32.03.01.02.01.02.01h.01l.02.01h.01l.01.01h.01l.02.01-.01-.01-.05-.01-.12.29.02.02.02.01.01.01h.01-.01l-.01-.01H9.7l-.01-.01-.01-.01.02.01h-.02l-.1-.16.18-.17.05.01H9.8l-.08.33H9.7h.06l.16-.17-.09-.15h-.01l.03.01h-.01v-.01.01h.01-.01.02l.01.01.02.01.03.02-.12.29h-.05l-.02-.01.02.01-.02-.01h-.01l-.01-.01h-.02l-.01-.01h-.02l-.02-.01-.02-.01-.02-.01zm-.72-1.43l.32.12-.01.03-.01.04v.03l-.01.03v.04l.01.04v.04l.01.04.01.03.01.04.01.04.02.04.02.04.02.05.02.03.02.04.03.04.02.04.03.03.02.04.03.03.03.03.03.03.02.03.03.02.03.03.02.01.03.02.02.01.02.02.02.01h.01l-.11.32-.04-.01-.04-.02-.04-.02-.04-.03-.03-.02-.04-.04-.03-.02-.04-.04-.03-.03-.04-.04-.04-.04-.03-.04-.03-.04-.04-.05-.03-.04-.03-.05L9 39l-.02-.05-.03-.05-.02-.05-.02-.05-.02-.06-.02-.06-.01-.05-.01-.06-.01-.06V38.34l.01-.07.01-.06.02-.06zm1.47-.63l-.12.32-.04-.02-.04-.01-.04-.01-.04-.01h-.08l-.05-.01-.03.01h-.08l-.04.01h-.04l-.04.01-.03.01-.04.02-.04.01-.03.02-.04.02-.03.01-.03.02-.03.03-.03.02-.03.02-.02.03-.03.03-.02.02-.02.03-.02.03-.02.04-.02.03-.02.03-.01.04-.32-.12.02-.05.02-.05.03-.05.03-.05.03-.04.03-.05.04-.04.03-.04.04-.04.04-.03.05-.04.04-.03.04-.03.05-.02.05-.03.05-.02.05-.02.05-.02.05-.02.06-.01.05-.01.05-.01h.11l.06-.01.06.01h.05l.06.01.06.01.05.01.06.02.06.02zm.71 1.43l-.32-.12.01-.01v-.18l-.01-.04v-.03l-.01-.04-.01-.04-.01-.04-.02-.05-.01-.04-.02-.04-.01-.04-.02-.04-.02-.04-.02-.04-.03-.03-.02-.04-.03-.04-.03-.03-.03-.03-.02-.03-.03-.03-.04-.02-.03-.02-.03-.02-.04-.02-.03-.01.12-.32.05.02.06.03.05.03.05.03.05.04.05.04.04.04.04.05.04.04.03.05.04.05.03.05.03.05.02.05.03.05.02.05.02.06.02.05.01.05.02.05.01.05.01.05.01.05v.05l.01.04V38.82l-.01.04-.01.05-.01.04zm-.02-.05l-.33.11.01-.13.04-.05.29.12-.02.08-.01.02.01-.03.01-.01-.01.02v.01h-.01v.03-.03.03l-.05.06-.24-.24-.04.07.01-.01v-.01.01-.02l.01-.01.01-.02v-.01l.01-.02v-.02l.01-.02.32.12-.01.02v.02l-.01.02-.01.01v.02l-.01.01v.02h-.01.01l-.05.06-.24-.24-.04.07v.02l.01-.03v-.02.01-.01l.01-.01-.01.01.01-.01v-.01l.01-.02.01-.03-.01.02-.01.07.29.12.03-.05.01-.12zm-.33.11l-.02-.07.03-.06-.01.13zm.56 1.6l-.56-1.6.33-.11.55 1.6-.22.21-.1-.1zm.1.1l-.07-.03-.03-.07.1.1zm5.21 1.88l.17.3-.03.02-.3.08-.29.07-.27.05-.26.03-.24.01h-.23l-.22-.02-.21-.04-.19-.04-.19-.06-.18-.07-.17-.08-.15-.1-.15-.09-.15-.11-.13-.11-.14-.12-.12-.12-.13-.12-.12-.12-.12-.12-.11-.13-.12-.12-.12-.11-.12-.12-.12-.11-.12-.11-.13-.1-.13-.09-.13-.08-.15-.08-.14-.07.13-.31.17.07.16.09.15.1.15.1.14.11.13.12.13.11.12.12.12.13.12.12.12.12.12.12.11.12.12.12.12.11.12.11.13.1.13.09.13.09.14.08.15.07.15.07.17.05.17.04.18.03.2.02h.2l.22-.01.24-.03.25-.05.27-.06.29-.08-.04.01zm.17.3l-.01.01-.02.01.03-.02zm3.96-2.18l.15.3-.08.02-.13-.01-.13.01-.12.01-.13.01-.12.02-.12.03-.12.03-.12.04-.12.04-.12.04-.12.05-.12.06-.12.05-.12.06-.12.07-.12.06-.13.07-.12.08-.12.07-.12.08-.13.08-.12.08-.13.08-.12.08-.13.08-.13.09-.14.08-.13.09-.14.08-.13.09-.15.08-.14.08-.17-.3.14-.08.14-.08.14-.08.13-.08.13-.08.13-.09.13-.08.13-.08.13-.09.12-.08.13-.08.13-.08.12-.08.13-.08.12-.07.13-.07.12-.07.13-.07.13-.06.12-.06.13-.06.13-.05.13-.05.13-.05.13-.04.14-.03.14-.03.13-.02.14-.02.14-.01H20.79l-.08.02zm.15.3l-.04.02h-.04l.08-.02zm.66-4.61l.23-.26.13.13.14.13.13.13.12.13.12.14.11.13.11.14.09.15.09.14.08.15.07.15.06.15.05.16.03.16.02.16.01.16-.01.16-.02.17-.04.16-.06.17-.07.16-.1.16-.1.17-.13.16-.15.16-.16.16-.18.15-.21.16-.22.16-.24.15-.27.16-.29.15-.15-.3.27-.15.26-.15.23-.15.21-.14.19-.15.17-.14.15-.15.13-.14.11-.14.09-.14.08-.14.06-.14.05-.14.03-.13.02-.13.01-.13-.01-.13-.01-.13-.03-.14-.04-.13-.05-.13-.06-.13-.07-.13-.08-.13-.09-.13-.1-.13-.1-.12-.11-.13-.12-.13-.12-.12-.13-.12-.13-.12zm-1.77-5.09l.33.08.01-.04-.01.09v.09l-.01.1-.01.1-.01.1-.01.11-.01.12-.01.12-.01.13-.01.13V32.86l.01.14.02.15.02.16.03.16.03.16.05.16.05.17.06.17.07.18.08.17.09.18.11.18.12.18.13.18.14.19.16.19.18.19.19.18.21.19-.23.26-.22-.2-.2-.2-.18-.2-.17-.19-.16-.2-.14-.2-.12-.19-.12-.2-.09-.19-.09-.19-.08-.18-.07-.19-.05-.18-.05-.18-.04-.18-.03-.17-.02-.17-.02-.16-.01-.16v-.44l.01-.14.01-.13.01-.13.01-.12.01-.11.01-.11.01-.1.01-.09v-.08l.01-.07v-.04zm0 .04v-.04.04zm-3.42-3.47l-.04-.34-.02.01.33-.07.31-.05.3-.03.28-.01h.27l.25.02.24.04.22.05.21.06.19.08.18.1.17.1.15.12.13.13.13.14.11.15.1.16.09.16.07.17.06.18.05.18.04.19.03.19.03.19.01.2v.2l-.01.19-.01.21-.02.2-.02.19-.04.2-.04.2-.33-.08.04-.18.03-.19.02-.19.02-.18.02-.19v-.37l-.01-.18-.02-.18-.03-.17-.04-.17-.04-.16-.06-.15-.06-.15-.08-.14-.08-.14-.09-.12-.11-.12-.11-.11-.13-.1-.14-.09-.15-.08-.17-.07-.18-.05-.2-.05-.21-.03-.23-.02h-.24l-.26.01-.28.03-.3.04-.32.07h-.01zm.01 0h-.01.01zm-10.39-.87l.2-.27.2.14.21.12.22.12.23.11.25.1.25.09.26.08.27.07.29.07.29.05.29.05.31.04.31.04.32.03.33.02.33.01.34.02h.69l.35-.01.36-.01.35-.01.37-.02.36-.03.37-.02.37-.03.37-.03.37-.04.37-.04.37-.03.37-.04.37-.05.04.34-.37.04-.38.04-.37.04-.37.04-.37.04-.38.03-.37.03-.36.02-.37.03-.37.02-.36.01-.36.01-.36.01h-.7l-.34-.02-.34-.01-.33-.02-.33-.03-.32-.04-.32-.04-.3-.05-.31-.06-.29-.07-.28-.07-.28-.09-.27-.1-.25-.1-.25-.12-.24-.12-.23-.14-.21-.15zm-3.68-5.6l.26-.22.01.01.1.15.1.15.09.16.1.17.09.17.09.17.09.18.09.18.09.18.09.19.1.19.09.19.09.19.1.19.09.19.1.19.1.19.11.19.11.19.11.19.11.18.12.18.12.18.13.18.13.17.13.17.14.16.15.15.15.15.16.15.17.14.17.13-.2.27-.19-.14-.17-.14-.17-.16-.16-.16-.16-.16-.15-.18-.14-.17-.14-.18-.13-.18-.13-.19-.12-.18-.12-.2-.11-.19-.11-.19-.11-.2-.1-.19-.1-.19-.1-.2-.09-.19-.1-.19-.09-.19-.09-.19-.09-.19-.09-.18-.09-.18-.09-.17-.09-.17-.09-.17-.09-.15-.09-.16-.09-.15-.1-.14.01.02zm.26-.22l.01.01-.01-.01zM.05 13.06l.29.18.03-.08-.02.36-.01.35v.35l.01.35.01.33.02.33.03.32.03.32.04.3.05.3.05.3.06.28.06.28.07.27.08.27.08.25.08.25.08.24.09.24.09.22.1.22.1.21.1.21.1.19.1.19.11.18.11.18.11.16.1.16.11.14.11.14.11.14-.26.22-.11-.14-.12-.15-.11-.16-.12-.16-.11-.17-.11-.18-.11-.19-.11-.19-.11-.21-.1-.21-.1-.22-.1-.22-.1-.24-.09-.24-.09-.25-.08-.26-.08-.26-.07-.27-.08-.28-.06-.29-.06-.29-.06-.3-.04-.31-.05-.31-.03-.33-.03-.32-.02-.34-.01-.34-.01-.35v-.36l.01-.36.02-.37.02-.08zm-.02.08v-.05l.02-.03-.02.08z" class="fil1"/><path d="M2.84 18.74c1.03 0 1.87.91 1.87 2.02 0 1.11-.84 2.02-1.87 2.02-1.04 0-1.88-.91-1.88-2.02 0-1.11.84-2.02 1.88-2.02z" class="fil2"/><path id="1" d="M4.88 20.76h-.34v-.09l-.01-.1-.01-.09-.01-.09-.02-.09-.03-.09-.02-.09-.03-.08-.04-.08-.04-.08-.04-.08-.04-.08-.05-.07-.05-.07-.05-.07-.06-.06-.06-.06-.06-.06-.07-.05-.06-.05-.07-.05-.08-.05-.07-.04-.07-.03-.08-.04-.08-.03-.08-.02-.08-.02-.08-.01-.09-.02h-.09l-.08-.01v-.34l.1.01h.11l.1.02.1.02.1.02.1.03.09.04.1.04.09.04.09.05.08.05.08.06.09.06.07.07.08.06.07.08.07.07.06.08.06.09.06.08.05.09.05.09.04.1.04.09.04.1.03.1.03.11.02.1.02.11.01.11.01.11v.11zm-2.04 2.19v-.34h.08l.09-.01.09-.02.08-.01.08-.02.08-.02.08-.03.08-.04.07-.03.07-.04.08-.05.07-.05.06-.05.07-.05.06-.06.06-.06.06-.06.05-.07.05-.07.05-.07.04-.08.04-.08.04-.08.04-.08.03-.08.02-.09.03-.09.02-.09.01-.09.01-.09.01-.09v-.1h.34v.11l-.01.11-.01.11-.02.11-.02.1-.03.11-.03.1-.04.1-.04.09-.04.1-.05.09-.05.09-.06.08-.06.09-.06.08-.07.07-.07.08-.08.06-.07.07-.09.06-.08.06-.08.05-.09.05-.09.04-.1.04-.09.04-.1.03-.1.02-.1.02-.1.02h-.11l-.1.01zM.79 20.76h.34v.1l.01.09.01.09.01.09.02.09.03.09.02.09.03.08.04.08.04.08.04.08.04.08.05.07.05.07.06.07.05.06.06.06.06.06.07.05.07.06.07.04.07.05.07.04.08.03.07.04.08.03.08.02.08.02.09.01.08.02.09.01h.09v.34l-.11-.01h-.1l-.11-.02-.1-.02-.1-.02-.1-.03-.09-.04-.09-.04-.1-.04-.09-.05-.08-.05-.08-.06-.08-.06-.08-.07-.07-.06-.08-.08-.06-.07-.07-.08-.06-.09-.05-.08-.06-.09-.05-.09-.04-.1-.04-.09-.04-.1-.03-.1-.03-.11-.02-.1-.02-.11-.01-.11-.01-.11v-.11zm2.05-2.19v.34l-.09.01h-.09l-.08.02-.09.01-.08.02-.08.02-.08.03-.07.04-.08.03-.07.04-.07.05-.07.05-.07.05-.07.05-.06.06-.06.06-.05.06-.06.07-.05.07-.05.07-.04.08-.04.08-.04.08-.04.08-.03.08-.02.09-.03.09-.02.09-.01.09-.01.09-.01.1v.09H.79v-.11l.01-.11.01-.11.02-.11.02-.1.03-.11.03-.1.04-.1.04-.09.04-.1.05-.09.06-.09.05-.08.06-.09.07-.08.06-.07.08-.08.07-.06.08-.07.08-.06.08-.06.08-.05.09-.05.1-.04.09-.04.09-.04.1-.03.1-.02.1-.02.11-.02h.1l.11-.01z" class="fil1"/><g><path d="M8.43 9.42c1.04 0 1.88.9 1.88 2.01 0 1.12-.84 2.02-1.88 2.02s-1.88-.9-1.88-2.02c0-1.11.84-2.01 1.88-2.01z" class="fil2"/><path id="1" d="M10.48 11.43h-.34l-.01-.09v-.1l-.01-.09-.02-.09-.02-.09-.02-.09-.03-.09-.03-.08-.03-.08-.04-.08-.04-.08-.05-.07-.05-.08-.05-.07-.05-.06-.06-.07-.06-.06-.06-.06-.06-.05-.07-.05-.07-.05-.07-.04-.07-.04-.08-.04-.08-.03-.08-.03-.08-.03-.08-.02-.08-.01-.09-.01-.08-.01h-.09v-.34h.11l.1.01.1.01.1.02.1.03.1.02.1.04.09.04.09.04.09.05.09.06.08.05.08.06.08.07.07.07.07.07.07.08.06.08.06.08.06.08.05.09.05.09.04.1.05.1.03.09.04.11.02.1.03.1.01.11.02.11v.11l.01.11zm-2.05 2.19v-.34h.09l.08-.01.09-.01.08-.02.08-.02.08-.02.08-.03.08-.03.08-.04.07-.04.07-.04.07-.05.07-.05.06-.06.06-.06.06-.06.06-.06.05-.07.05-.07.05-.07.05-.07.04-.08.04-.08.03-.08.03-.09.03-.08.02-.09.02-.09.02-.09.01-.1v-.09l.01-.1h.34l-.01.11v.12l-.02.1-.01.11-.03.11-.02.1-.04.1-.03.1-.05.1-.04.09-.05.09-.05.09-.06.09-.06.08-.06.08-.07.08-.07.07-.07.07-.08.06-.08.06-.08.06-.09.05-.09.05-.09.05-.09.04-.1.03-.1.03-.1.03-.1.02-.1.01-.1.01h-.11zm-2.05-2.19h.34l.01.1v.09l.01.1.02.09.02.09.02.09.03.08.03.09.03.08.04.08.04.08.05.07.05.07.05.07.05.07.06.06.06.06.06.06.06.06.07.05.07.05.07.04.07.04.08.04.08.03.08.03.08.02.08.02.08.02.09.01.08.01h.09v.34h-.11l-.1-.01-.1-.01-.1-.02-.1-.03-.1-.03-.1-.03-.09-.04-.09-.05-.09-.05-.09-.05-.08-.06-.08-.06-.08-.06-.07-.07-.07-.07-.07-.08-.06-.08-.06-.08-.06-.09-.05-.09-.05-.09-.05-.09-.04-.1-.03-.1-.04-.1-.02-.1-.03-.11-.01-.11-.02-.1v-.12l-.01-.11zm2.05-2.18v.34h-.09l-.08.01-.09.01-.08.01-.08.02-.08.03-.08.03-.08.03-.08.04-.07.04-.07.04-.07.05-.07.05-.06.05-.06.06-.06.06-.06.07-.05.06-.05.07-.05.08-.05.07-.04.08-.04.08-.03.08-.03.08-.03.09-.02.09-.02.09-.02.09-.01.09v.1l-.01.09h-.34l.01-.11v-.11l.02-.11.01-.11.03-.1.02-.1.04-.11.03-.09.04-.1.05-.1.05-.09.05-.09.06-.08.06-.08.06-.08.07-.08.07-.07.07-.07.08-.07.08-.06.08-.05.09-.06.09-.05.09-.04.09-.04.1-.04.1-.02.1-.03.1-.02.1-.01.1-.01h.11z" class="fil1"/></g></g></svg>