<svg xmlns="http://www.w3.org/2000/svg" width="110" height="63" fill-rule="evenodd" clip-rule="evenodd" image-rendering="optimizeQuality" shape-rendering="geometricPrecision" text-rendering="geometricPrecision" viewBox="0 0 109.91 62.4"><defs><style>.fil8{fill:#fefefe}.fil0{fill:#99cfba}.fil1{fill:#2b2a29;fill-rule:nonzero}</style></defs><g id="Слой_x0020_1"><path d="M3.43 38.28L60.54 1.33c.85-.55 1.05-.53 1.58-.23l1.21.69c.87.5.58.79.05 1.17L6.61 42.59c-.82.58-1.26.44-1.98-.27l-1.89-1.88c-.72-.71-.16-1.61.69-2.16z" class="fil0"/><path id="1" d="M60.64 1.47L3.52 38.42l-.19-.28L60.45 1.19l.19.28zM62.2.95l-.17.3-.04-.03-.05-.02-.04-.03-.04-.02-.04-.01-.04-.02-.03-.01-.03-.02-.04-.01h-.03l-.03-.01-.03-.01h-.09l-.03.01h-.03l-.04.01-.03.01-.04.01-.04.01-.05.02-.04.02-.05.02-.06.03-.05.03-.06.03-.06.04-.07.03-.06.05-.08.04-.07.05-.19-.28.08-.05.08-.05.07-.04.07-.05.07-.03.06-.04.06-.03.06-.03.06-.03.05-.02.06-.02.05-.02.06-.02.05-.01.05-.01.05-.01h.2l.05.01.05.01.04.01.05.01.05.02.04.02.05.02.05.02.04.02.05.03.05.03.05.02zm1.05.99l-1.22-.69.17-.3 1.21.7-.16.29zm.22 1.15l-.19-.27.05-.04.04-.03.05-.03.04-.03.04-.04.04-.03.03-.03.03-.02.03-.03.02-.03.02-.02.02-.03.01-.02.01-.02v-.01l.01-.02v-.02l-.01-.02v-.01l-.01-.02-.01-.03-.02-.02-.02-.03-.02-.03-.04-.03-.04-.04-.04-.03-.06-.04-.06-.04-.07-.05-.07-.04.16-.29.09.04.07.05.07.05.07.05.06.04.05.05.05.04.04.05.04.05.03.05.03.05.02.06.01.05.01.06v.11l-.01.05-.02.05-.02.05-.03.04-.03.05-.03.04-.04.04-.04.04-.03.03-.05.04-.04.04-.04.03-.05.04-.05.03-.05.04-.05.03zM6.52 42.45L63.28 2.82l.19.27L6.71 42.73l-.19-.28zm-2-.01l.23-.24.07.06.06.06.06.06.06.05.06.05.06.05.05.04.05.03.06.04.04.03.06.02.04.03.05.01.05.02.04.01.05.01.04.01H5.8l.05-.01.04-.01.06-.01.05-.02.06-.02.06-.02.05-.03.07-.03.06-.04.07-.04.07-.05.08-.05.19.28-.08.05-.08.05-.08.05-.07.04-.07.04-.08.04-.07.02-.07.03-.07.02-.07.02-.07.02h-.07l-.07.01h-.07l-.07-.01-.07-.01-.07-.01-.06-.02-.06-.02-.07-.03-.07-.03-.06-.03-.06-.04-.06-.04-.07-.04-.06-.05-.07-.05-.06-.05-.06-.06-.07-.06-.07-.06-.06-.07zm-1.66-2.12l1.89 1.88-.23.24-1.9-1.88.24-.24zm.47-2.18l.19.28-.08.05-.07.05-.07.05-.07.06-.06.06-.07.05-.06.06-.05.06-.06.06-.05.06-.05.07-.04.06-.04.06-.04.06-.03.07-.03.06-.02.06-.02.06-.01.07-.02.06v.18l.01.06.01.06.02.05.03.06.02.06.04.06.04.06.05.06.06.06-.24.24-.07-.08-.07-.08-.05-.07-.05-.09-.04-.08-.04-.08-.02-.09-.02-.08-.01-.09-.01-.09v-.08l.01-.09.02-.08.01-.08.03-.09.03-.08.04-.08.04-.08.04-.07.05-.08.05-.07.06-.08.06-.07.06-.07.06-.07.07-.06.07-.07.08-.06.07-.06.08-.06.08-.06.08-.05z" class="fil1"/><path d="M19.49 52.71L72.58 7.49c.76-.65 1.04-.53 1.57-.23l1.21.7c.88.49.53.72.05 1.16l-52.74 47.9c-.74.68-1.26.44-1.98-.27l-1.89-1.88c-.72-.71-.08-1.5.69-2.16z" class="fil0"/><path id="1" d="M72.69 7.62L19.6 52.84l-.22-.26L72.47 7.36l.22.26zm1.54-.5l-.16.29-.05-.03-.05-.02-.04-.03-.05-.02-.04-.02-.04-.02-.04-.02-.03-.01-.04-.02-.03-.01-.04-.01h-.03l-.03-.01h-.13l-.03.01h-.04l-.04.01-.03.02-.05.01-.04.02-.05.03-.05.02-.05.03-.05.04-.06.04-.06.04-.06.05-.06.05-.07.06-.22-.26.07-.06.07-.05.07-.06.07-.04.06-.05.06-.04.06-.04.06-.03.06-.03.06-.03.06-.02.05-.02.06-.01.06-.02h.05l.05-.01h.11l.05.01.06.01.04.01.05.01.05.02.05.01.05.02.05.02.04.03.05.02.05.03.04.02.05.03.05.03zm1.05.98l-1.21-.69.16-.29 1.22.69-.17.29zm.24 1.14l-.23-.25.05-.04.05-.04.04-.04.04-.03.04-.04.03-.03.04-.03.03-.04.03-.03.02-.02.02-.03.02-.03.01-.02.01-.01.01-.02V8.48l-.01-.02-.01-.02-.01-.02-.02-.03-.03-.02-.03-.04-.04-.03-.05-.03-.05-.04-.06-.04-.07-.04-.07-.05.17-.29.08.05.07.04.07.05.07.05.05.04.06.04.04.05.05.05.03.04.03.05.03.05.02.06.01.05.01.06v.05l-.01.05-.01.05-.02.05-.03.05-.02.04-.03.04-.03.04-.04.04-.03.04-.04.03-.03.04-.04.04-.05.04-.04.03-.04.04-.04.04-.05.04zM22.56 56.9L75.29 8.99l.23.25-52.74 47.91-.22-.25zm-1.99-.03l.24-.24.07.07.06.06.06.06.06.05.06.05.06.05.06.04.06.04.05.04.05.03.06.03.05.03.05.02.05.02.05.01.04.01.05.01.05.01h.05l.04-.01h.05l.05-.01.05-.01.05-.02.05-.02.06-.03.05-.03.06-.04.06-.04.06-.04.06-.05.07-.06.22.25-.07.06-.07.06-.07.06-.08.05-.07.04-.07.04-.07.04-.07.02-.07.03-.08.02-.07.01-.07.01H21.71l-.07-.02-.07-.01-.07-.02-.07-.03-.06-.03-.07-.03-.07-.04-.06-.04-.07-.04-.06-.05-.07-.05-.06-.05-.07-.06-.06-.05-.07-.06-.07-.07-.07-.07zm-1.66-2.12l1.9 1.88-.24.24-1.89-1.88.23-.24zm.47-2.17l.22.26-.08.06-.06.06-.07.06-.07.07-.06.06-.06.06-.06.06-.06.07-.05.06-.06.06-.04.07-.05.06-.04.06-.04.07-.03.06-.03.06-.03.06-.02.06-.01.06-.02.06v.05l-.01.06v.05l.01.06.01.05.02.06.02.05.03.06.03.06.04.05.05.06.05.06-.23.24-.07-.08-.07-.07-.05-.08-.05-.08-.04-.08-.03-.08-.03-.09-.01-.08-.01-.08V54.1l.01-.08.02-.08.02-.08.03-.08.03-.08.04-.08.04-.07.04-.08.05-.07.06-.07.05-.07.06-.08.06-.07.06-.07.06-.06.07-.07.07-.07.07-.06.07-.07.07-.06.08-.07z" class="fil1"/><path fill="#f08bb2" d="M10.83 24.67l32.02 28.26c.97.86.8 2.17-.11 3.11l-5.39 5.55c-.92.93-2.64.81-3.57-.1L.9 29.47c-.93-.9-1.06-2.51.11-3.11l6.1-3.14c1.55-.8 2.75.59 3.72 1.45z"/><path id="1" d="M42.74 53.06L10.72 24.79l.23-.25 32.01 28.27-.22.25zm.12 3.1l-.24-.24.08-.08.07-.09.07-.09.07-.09.06-.09.06-.09.05-.09.05-.1.04-.09.04-.09.03-.1.03-.09.02-.1.02-.1.02-.09.01-.09v-.19l-.01-.1-.01-.09-.02-.09-.02-.09-.03-.09-.03-.09-.04-.09-.05-.08-.05-.09-.05-.08-.06-.08-.07-.08-.08-.08-.08-.07.22-.25.1.08.09.09.08.1.07.09.07.1.06.1.05.11.05.1.04.11.03.11.03.11.02.11.02.11v.11l.01.11-.01.12-.01.11-.01.11-.03.11-.02.11-.04.11-.04.12-.04.1-.05.11-.05.11-.06.1-.06.11-.07.1-.08.1-.08.1-.08.09-.09.1zm-5.63 5.31l5.39-5.55.24.24-5.39 5.54-.24-.23zm-3.57.15l.23-.25.09.08.08.07.1.07.09.07.1.05.1.06.1.05.11.04.11.05.11.03.11.04.12.02.11.03.12.01.12.01.11.01.12.01.12-.01.11-.01.12-.01.11-.02.11-.02.11-.03.11-.03.1-.04.1-.05.1-.05.1-.06.09-.06.09-.06.09-.07.08-.08.24.23-.1.1-.1.08-.1.08-.11.07-.11.07-.12.06-.12.05-.12.04-.12.04-.13.04-.13.02-.13.02-.13.02-.13.01h-.26l-.13-.01-.13-.01-.13-.02-.13-.03-.13-.03-.13-.03-.12-.04-.13-.05-.12-.05-.11-.06-.12-.06-.11-.07-.11-.08-.1-.07-.1-.09-.1-.08zM1.02 29.35l32.87 32.02-.23.25L.78 29.59l.24-.24zm-.09-3.14l.16.3-.1.05-.09.06-.08.07-.07.06-.07.07-.06.08-.05.07-.05.08-.05.09-.03.09-.03.09-.03.09-.02.09-.01.1-.01.1v.2l.01.11.01.1.02.1.03.11.03.1.03.1.04.1.05.1.05.1.06.09.06.1.06.09.07.09.08.08.08.08-.24.24-.09-.09-.09-.1-.08-.1-.07-.1-.07-.11-.06-.11-.06-.11-.06-.11-.04-.12-.04-.12-.04-.12-.03-.12-.02-.12-.02-.12-.01-.12v-.24l.01-.12.02-.11.02-.12.03-.11.04-.11.05-.11.05-.11.06-.1.07-.1.08-.09.08-.09.1-.08.1-.08.11-.07.11-.07zm6.26-2.84l-6.1 3.14-.16-.3 6.11-3.14.15.3zm3.76 1.17l-.23.25-.09-.08-.09-.08-.1-.09-.1-.09-.09-.09-.1-.09-.1-.09-.1-.09-.1-.08-.1-.09-.11-.08-.1-.08-.11-.08-.11-.08-.1-.07-.11-.06-.11-.06-.11-.06-.12-.05-.11-.04-.11-.04-.12-.03-.12-.02-.11-.02h-.24l-.12.01-.13.02-.12.03-.13.04-.13.05-.14.07-.15-.3.15-.08.15-.06.16-.04.15-.04.14-.02.15-.02h.15l.14.01.14.02.13.02.14.04.13.04.13.05.13.06.12.06.13.07.11.07.12.07.12.08.11.09.11.08.11.09.11.09.1.09.11.09.1.09.1.09.09.09.1.09.09.09.1.08.09.08z" class="fil1"/><path fill="#f5b2b6" d="M22.09 19.28l28.95 23.37c.91.74.72 1.97-.1 2.81l-4.3 4.42c-.83.85-2.34.69-3.23-.08L13.13 23.38c-.88-.77-.96-2.03.09-2.57l5.51-2.84c1.4-.72 2.45.57 3.36 1.31z"/><path id="1" d="M50.93 42.79L21.99 19.41l.21-.26 28.94 23.37-.21.27zm.13 2.79l-.24-.24.07-.07.07-.08.06-.08.06-.08.05-.08.06-.08.04-.09.05-.08.04-.09.03-.09.03-.08.03-.09.02-.09.02-.08.01-.09.01-.09v-.25l-.01-.08-.02-.08-.02-.08-.02-.08-.03-.08-.04-.08-.04-.07-.04-.08-.06-.07-.05-.07-.07-.06-.06-.07-.08-.06.21-.27.09.08.09.08.07.08.07.09.07.09.05.09.05.09.05.1.03.1.04.1.02.1.02.1.01.1.01.1V44.03l-.01.1-.02.11-.02.1-.03.1-.03.1-.03.1-.04.1-.05.1-.05.1-.05.1-.06.09-.07.1-.06.09-.08.09-.07.08-.08.09zm-4.54 4.18l4.3-4.42.24.24-4.3 4.42-.24-.24zm-3.22.17l.22-.26.08.07.09.06.08.06.09.05.09.05.09.05.1.05.1.04.1.04.1.03.1.03.1.02.1.02.11.02.1.01.11.01h.2l.11-.01.1-.01.1-.01.09-.02.1-.03.1-.03.09-.03.09-.04.08-.04.09-.05.08-.05.08-.06.08-.07.07-.07.24.24-.09.08-.09.08-.09.07-.1.07-.1.05-.11.06-.11.04-.11.04-.11.04-.11.03-.11.02-.12.02-.12.01-.12.01h-.11l-.12-.01h-.12l-.12-.02-.12-.02-.11-.02-.12-.03-.11-.03-.12-.04-.11-.04-.11-.04-.11-.05-.1-.06-.1-.06-.1-.06-.1-.07-.1-.07-.09-.07zM13.24 23.25l30.28 26.42-.22.26L13.02 23.5l.22-.25zm-.1-2.59l.16.3-.09.04-.08.05-.07.06-.07.05-.06.06-.05.07-.05.06-.05.07-.04.06-.03.07-.03.08-.02.07-.02.07-.01.08-.01.08V22.08l.01.08.01.09.02.08.02.08.03.08.03.08.04.08.04.08.05.08.05.08.06.08.05.07.07.07.07.07.07.07-.22.25-.08-.08-.08-.08-.08-.08-.07-.09-.07-.09-.06-.09-.05-.09-.05-.1-.05-.09-.04-.1-.03-.1-.03-.1-.02-.1-.01-.1-.01-.1-.01-.11.01-.09.01-.1.01-.1.02-.1.04-.1.03-.09.04-.09.05-.09.06-.09.07-.08.07-.08.07-.07.09-.08.09-.06.1-.07.1-.05zm5.67-2.54l-5.51 2.84-.16-.3 5.52-2.84.15.3zm3.39 1.03l-.21.26-.09-.07-.09-.08-.09-.08-.09-.07-.09-.08-.09-.08-.09-.08-.09-.08-.09-.08-.1-.08-.09-.07-.09-.08-.1-.07-.1-.06-.09-.07-.1-.06-.1-.05-.1-.05-.1-.05-.1-.04-.1-.04-.1-.02-.1-.02-.11-.02h-.32l-.11.02-.11.03-.11.03-.12.05-.12.06-.15-.3.14-.07.13-.05.14-.05.14-.03.13-.02.14-.01h.13l.13.01.12.01.13.03.12.03.12.04.11.05.12.05.11.06.11.06.11.07.1.07.11.07.1.07.1.08.1.08.09.08.1.08.09.08.09.08.1.08.08.08.09.08.09.07.08.08.09.07z" class="fil1"/><path fill="#c4d985" d="M31.75 14.76L58.12 34.1c.94.7.72 1.97-.1 2.81l-3.34 3.43c-.82.85-2.3.64-3.22-.08L23.73 18.45c-.92-.73-.96-2.02.09-2.57l4.57-2.43c1.39-.74 2.42.62 3.36 1.31z"/><path id="1" d="M58.02 34.24L31.65 14.9l.2-.28 26.37 19.35-.2.27zm.12 2.79l-.24-.24.07-.07.07-.08.06-.08.06-.08.06-.08.05-.09.05-.08.04-.09.04-.09.04-.08.03-.09.03-.09.02-.09.02-.09.01-.09.01-.08.01-.09v-.08l-.01-.09-.01-.08-.01-.08-.02-.08-.03-.08-.03-.08-.03-.07-.05-.07-.04-.08-.05-.06-.06-.07-.06-.07-.08-.06-.07-.06.2-.27.09.07.09.08.08.08.07.08.06.09.06.09.05.09.05.1.04.1.03.1.03.1.01.1.02.1V35.46l-.01.11-.02.1-.02.11-.03.1-.03.1-.04.11-.04.1-.04.1-.06.1-.05.09-.06.1-.07.09-.06.1-.08.09-.07.08-.08.09zm-3.58 3.2l3.34-3.44.24.24-3.34 3.43-.24-.23zm-3.21.16l.21-.26.08.06.09.06.09.06.09.05.09.05.1.05.09.04.1.04.1.04.11.03.1.03.1.02.1.02.11.02.1.01.1.01.11.01h.1l.1-.01.1-.01.1-.01.1-.02.09-.02.09-.03.1-.03.08-.04.09-.04.08-.05.08-.05.08-.06.08-.07.07-.06.24.23-.09.09-.09.07-.09.07-.1.07-.1.05-.1.05-.11.05-.11.04-.11.03-.11.03-.11.02-.12.02-.12.01h-.35l-.11-.01-.12-.01-.12-.02-.11-.03-.12-.02-.11-.04-.12-.03-.11-.04-.11-.05-.11-.05-.1-.05-.11-.06-.1-.06-.1-.06-.09-.07-.1-.07zM23.84 18.31l27.72 21.82-.21.26-27.72-21.81.21-.27zm-.1-2.58l.16.3-.09.04-.08.06-.07.05-.07.06-.06.06-.06.06-.05.07-.04.07-.04.07-.04.07-.02.07-.03.08-.02.08-.01.07-.01.08v.24l.02.08.01.08.02.08.03.08.03.08.04.08.04.08.05.08.05.07.06.07.06.08.07.06.07.07.08.06-.21.27-.09-.08-.09-.08-.08-.08-.07-.08-.07-.09-.06-.09-.06-.09-.05-.1-.05-.09-.04-.1-.03-.1-.03-.1-.02-.1-.01-.1-.01-.1V17l.01-.11.02-.09.03-.1.03-.1.03-.1.05-.09.05-.09.06-.09.06-.08.07-.08.08-.08.09-.07.09-.07.1-.06.1-.06zm4.73-2.13l-4.57 2.43-.16-.3 4.57-2.43.16.3zm3.38 1.02l-.2.28-.09-.07-.09-.07-.1-.08-.09-.08-.09-.07-.09-.08-.09-.08-.1-.08-.09-.08-.09-.08-.1-.07-.09-.08-.1-.07-.1-.07-.09-.06-.1-.07-.1-.05-.1-.05-.1-.05-.1-.04-.1-.04-.1-.03-.1-.02-.1-.02H29.14l-.1.01-.11.01-.11.03-.11.04-.12.04-.12.06-.16-.3.14-.07.14-.05.14-.05.13-.03.14-.02.13-.01h.13l.13.01.12.02.13.03.12.03.12.04.11.05.11.05.12.06.1.07.11.06.11.07.1.08.1.07.1.08.1.08.1.08.09.08.09.08.1.08.09.08.09.08.09.07.09.07.08.07.09.06z" class="fil1"/><path fill="#a1b567" d="M40.23 10.84l23.8 16.52c.96.67.67 1.24-.13 2.11l-2.65 2.91c-.85.93-1.74.73-2.91-.14L33.33 13.53c-.94-.71-1.31-1.21-.29-1.8l3.68-2.12c1.36-.78 2.55.56 3.51 1.23z"/><path id="1" d="M63.93 27.5l-23.8-16.53.2-.27 23.8 16.52-.2.28zm.09 2.09l-.25-.23.08-.08.07-.08.06-.07.06-.08.06-.07.06-.07.04-.07.05-.06.04-.07.04-.06.03-.06.03-.06.02-.06.02-.05.02-.06.01-.05v-.19l-.02-.04-.01-.05-.02-.05-.03-.04-.03-.05-.04-.06-.04-.05-.06-.05-.05-.06-.07-.05-.07-.06-.09-.06.2-.28.09.07.08.06.08.07.07.07.07.06.06.07.05.07.04.07.04.08.03.07.03.07.02.08.01.08V28.29l-.01.08-.02.07-.02.08-.02.07-.03.08-.04.07-.04.07-.04.08-.05.07-.05.08-.06.07-.06.08-.06.08-.06.07-.07.08-.07.09-.08.08zm-2.89 2.67l2.64-2.9.25.23-2.64 2.9-.25-.23zm-2.89.12l.2-.27.11.07.1.08.11.07.1.06.1.06.09.06.1.05.09.05.09.04.1.04.08.03.09.03.09.02.08.02.08.02.08.01h.23l.08-.01.07-.02.08-.02.07-.02.07-.03.08-.04.07-.04.07-.05.08-.05.07-.06.08-.07.07-.07.08-.08.25.23-.09.09-.09.08-.08.08-.09.07-.09.06-.09.06-.09.05-.09.04-.09.04-.1.03-.09.03-.1.02-.09.01-.1.01H60l-.1-.01-.1-.01-.1-.02-.1-.02-.1-.03-.1-.03-.1-.04-.1-.04-.1-.05-.11-.05-.1-.06-.11-.06-.1-.06-.11-.07-.11-.07-.11-.08-.11-.08zM33.43 13.39l25.01 18.72-.2.27-25.01-18.72.2-.27zm-.47-1.8l.17.29h-.01l-.08.05-.08.05-.07.05-.06.05-.06.05-.04.04-.04.05-.03.04-.02.04-.02.03-.01.04-.01.03v.1l.01.04.01.04.02.04.03.05.03.04.03.05.04.05.04.05.05.05.06.06.06.05.06.06.07.06.08.06.07.06.08.07.09.06-.2.27-.09-.07-.09-.06-.08-.07-.07-.06-.08-.06-.07-.07-.06-.06-.07-.06-.06-.06-.05-.06-.05-.07-.04-.06-.05-.06-.03-.07-.03-.07-.02-.07-.02-.07-.01-.07v-.07l.01-.07.01-.08.03-.06.03-.07.04-.07.05-.06.05-.07.07-.06.06-.06.08-.06.08-.06.09-.05.1-.06zm3.85-1.83l-3.68 2.12-.17-.29 3.68-2.12.17.29zm3.52.94l-.2.27-.09-.06-.09-.07-.1-.07-.09-.08-.1-.07-.1-.08-.1-.08-.1-.07-.1-.08-.09-.08-.11-.07-.1-.07-.1-.07-.11-.07-.1-.06-.1-.06-.11-.06-.1-.05-.11-.04-.11-.04-.1-.03-.11-.03-.11-.02-.1-.01-.11-.01-.11.01-.11.01-.11.02-.11.03-.11.04-.12.05-.11.06-.17-.29.14-.08.13-.06.14-.05.14-.03.13-.03.14-.01h.26l.13.02.13.02.13.03.12.04.12.04.12.05.12.06.12.06.11.07.11.07.11.07.11.07.11.08.11.07.1.08.1.08.1.08.1.08.1.07.09.08.1.07.09.07.09.06.09.07z" class="fil1"/><path fill="#c5e3d7" d="M47.85 7.44l21.08 13.64c.82.53.97.87.2 1.76l-2.34 2.68c-.69.8-1.71.71-2.9-.13L41.45 9.63c-.96-.68-1.29-1.04-.26-1.62l3.15-1.8c1.36-.77 2.52.59 3.51 1.23z"/><path id="1" d="M68.84 21.22L47.75 7.58l.19-.28 21.08 13.64-.18.28zm.41 1.73l-.25-.22.07-.08.06-.07.06-.08.05-.07.04-.06.04-.06.04-.06.03-.06.02-.05.02-.05.01-.05.02-.04v-.15l-.01-.03-.01-.03-.01-.04-.02-.03-.02-.03-.03-.04-.03-.04-.04-.04-.04-.04-.04-.04-.05-.04-.06-.04-.06-.05-.06-.04-.07-.05-.07-.05.18-.28.08.05.07.05.07.05.07.05.06.05.06.05.05.05.06.05.04.05.05.05.04.06.03.05.03.06.03.06.02.06.01.07.01.06V22l-.01.07-.02.06-.02.07-.03.07-.03.07-.04.07-.04.07-.05.08-.05.07-.05.08-.07.08-.06.08-.08.08zm-2.58 2.46L69 22.73l.25.22-2.33 2.68-.25-.22zm-2.88.12l.19-.28.11.07.11.07.1.07.11.06.1.06.1.05.1.05.1.04.1.04.09.03.1.03.09.03.09.02.08.01.09.02h.33l.08-.01.07-.02.07-.02.08-.02.07-.03.07-.03.06-.04.07-.04.06-.04.07-.06.06-.05.07-.06.06-.07.25.22-.07.08-.08.08-.07.06-.08.07-.08.06-.09.05-.08.04-.09.04-.09.04-.09.03-.1.02-.09.02-.1.01-.1.01h-.19l-.11-.01-.1-.01-.1-.02-.11-.03-.1-.03-.11-.03-.1-.04-.11-.04-.11-.05-.11-.05-.11-.06-.11-.06-.11-.06-.11-.07-.12-.08-.11-.07zM41.54 9.49l22.44 15.76-.19.28L41.35 9.76l.19-.27zm-.44-1.63l.17.29-.09.05-.08.05-.07.05-.06.05-.06.04-.05.05-.04.04-.03.03-.02.04-.02.03-.01.03-.01.02v.03l-.01.02.01.03v.02l.01.03.02.04.02.03.03.04.03.04.04.04.04.05.05.05.06.05.06.05.06.05.07.05.07.06.08.06.08.05.09.07-.19.27-.09-.06-.09-.06-.08-.06-.08-.06-.07-.06-.07-.05-.07-.06-.06-.05-.06-.06-.05-.06-.05-.05-.04-.06-.04-.06-.04-.05-.03-.07-.02-.06-.01-.06-.01-.07v-.07l.01-.07.02-.07.03-.06.03-.06.05-.06.05-.06.05-.06.06-.05.07-.06.08-.05.08-.06.09-.05.09-.06zm3.32-1.5l-3.15 1.79-.17-.29 3.16-1.79.16.29zm3.52.94l-.19.28-.09-.06-.1-.07-.1-.07-.09-.07-.1-.08-.1-.07-.1-.08-.1-.08-.1-.07-.1-.08-.1-.07-.1-.07-.1-.07-.11-.07-.1-.07-.1-.06-.11-.05-.11-.05-.1-.05-.11-.04-.1-.03-.11-.03-.1-.02-.11-.01-.11-.01h-.1l-.11.01-.11.02-.11.03-.12.04-.11.05-.12.06-.16-.29.13-.07.14-.06.14-.05.14-.04.13-.02.13-.01.14-.01.13.01.13.02.13.02.12.03.12.04.13.05.12.05.11.06.12.06.11.06.11.07.11.08.11.07.11.07.1.08.11.08.1.08.1.07.1.08.1.07.09.08.1.07.09.06.09.07.09.06z" class="fil1"/><path d="M53.7 3.63l19.54 12.08c.72.44 1.36 1.03.62 1.74l-2.36 2.26c-.67.64-1.59.39-2.66-.3L48.6 6.36c-.86-.55-1.22-1.14-.32-1.63l2.75-1.52c1.2-.67 1.81-.12 2.67.42z" class="fil0"/><path id="1" d="M73.15 15.85L53.61 3.77l.18-.28 19.54 12.07-.18.29zm.82 1.72l-.23-.24.06-.06.05-.06.04-.05.04-.06.03-.05.02-.05.02-.04.01-.05.01-.04v-.09l-.01-.04-.01-.05-.01-.04-.02-.04-.02-.05-.03-.05-.03-.04-.03-.05-.04-.04-.04-.05-.05-.04-.05-.05-.05-.05-.05-.04-.06-.04-.06-.05-.06-.04-.06-.05-.06-.04-.06-.04-.07-.04.18-.29.07.05.06.04.07.05.07.04.07.05.06.05.06.05.06.05.06.05.06.06.05.05.05.06.05.05.05.07.04.06.03.06.04.07.02.06.03.08.01.07.01.07.01.07-.01.08-.01.08-.02.07-.03.08-.03.08-.04.07-.05.08-.06.07-.06.07-.08.08v-.01zm-2.59 2.02l2.36-2.26.23.24-2.36 2.26-.23-.24zm-2.63-.04l.18-.28.1.06.1.06.09.06.1.05.09.05.09.05.09.04.09.04.09.04.09.04.08.03.08.02.09.03.08.02.08.02.07.01.08.01.08.01h.14l.07-.01h.06l.07-.02.07-.01.06-.02.06-.03.06-.02.06-.04.06-.03.06-.04.06-.05.05-.05.23.24-.07.07-.07.06-.07.05-.08.05-.08.04-.08.04-.08.03-.08.02-.09.02-.08.02-.09.01-.09.01h-.09l-.09-.01h-.09l-.09-.02-.09-.01-.09-.02-.09-.03-.1-.02-.09-.03-.1-.04-.09-.04-.1-.04-.1-.05-.09-.04-.1-.05-.1-.06-.1-.05-.1-.06-.1-.06-.1-.07zM48.69 6.22l20.24 13.05-.18.28L48.5 6.5l.19-.28zm-.49-1.64l.16.29-.07.05-.07.04-.06.04-.05.04-.04.04-.04.04-.03.04-.02.04-.02.03-.02.04-.01.03v.14l.01.03.02.04.01.04.03.04.02.05.04.04.03.05.04.04.05.05.05.05.05.05.06.05.06.05.07.05.07.05.07.05.08.05-.19.28-.08-.05-.08-.06-.07-.05-.07-.06-.07-.05-.07-.06-.06-.05-.06-.06-.05-.06-.06-.05-.04-.06-.05-.06-.03-.07-.04-.06-.03-.06-.02-.07-.02-.07-.01-.06V5.3l.01-.07.03-.07.02-.07.04-.06.04-.07.04-.06.06-.06.06-.05.07-.06.07-.05.08-.05.09-.05zm2.91-1.23l-2.75 1.52-.16-.29 2.75-1.52.16.29zm2.68.14l-.18.28-.08-.05-.08-.05-.07-.05-.08-.05-.08-.05-.07-.04-.08-.05-.07-.04-.07-.04-.07-.04-.07-.04-.07-.03-.07-.03-.07-.03-.07-.03-.07-.02-.07-.02-.07-.01-.07-.02h-.07l-.07-.01h-.08l-.08.01-.08.01-.08.01-.08.02-.09.02-.09.03-.09.04-.1.04-.1.05-.11.05-.16-.29.12-.06.11-.06.11-.05.11-.04.1-.03.11-.03.1-.02.1-.02.1-.01.09-.01.1.01h.09l.09.01.09.02.08.01.09.03.08.02.08.03.09.04.07.03.08.04.08.04.08.04.07.05.08.05.08.04.07.05.08.05.08.05.07.05.08.05.08.05z" class="fil1"/><g><path fill="#6fa691" d="M59.72.89l17.25 10.16c.72.43 1.35 1.04.61 1.75l-1.92 1.83c-.66.64-1.57.36-2.66-.3L55.05 3.41c-.87-.53-1.21-1.13-.31-1.63L57.05.47c1.19-.67 1.79-.09 2.67.42z"/><path id="1" d="M76.88 11.19L59.63 1.04l.18-.29L77.05 10.9l-.17.29zm.82 1.73l-.23-.25.05-.06.06-.05.04-.06.03-.05.04-.06.02-.05.01-.04.02-.05v-.04l.01-.05-.01-.04v-.05l-.01-.04-.02-.05-.01-.04-.02-.04-.03-.05-.03-.05-.04-.04-.03-.05-.04-.04-.05-.05-.05-.05-.05-.04-.05-.04-.06-.05-.05-.04-.06-.04-.07-.05-.06-.04-.07-.04-.06-.04.17-.29.07.05.07.04.07.04.07.05.06.05.07.04.06.05.06.05.06.06.06.05.05.05.05.06.05.06.05.06.04.06.03.07.04.06.02.07.02.07.02.08.01.07V12.24l-.01.08-.02.07-.03.08-.04.08-.04.07-.05.08-.05.07-.07.07-.07.08zm-2.15 1.59l1.92-1.84.23.25-1.92 1.84-.23-.25zm-2.63-.03l.17-.29.1.06.1.05.1.06.09.05.1.05.09.05.09.04.09.04.09.04.09.03.08.04.09.02.08.03.08.02.08.02.08.01.07.01.08.01H74.88l.06-.01.07-.01.06-.01.07-.02.06-.03.06-.02.06-.04.05-.03.06-.04.06-.05.06-.05.23.24-.07.07-.07.06-.08.05-.07.05-.08.04-.08.04-.08.03-.09.02-.08.02-.09.02-.08.01h-.27l-.09-.01-.09-.02-.09-.01-.09-.02-.09-.03-.1-.02-.09-.04-.09-.03-.1-.04-.09-.04-.1-.04-.1-.05-.1-.05-.1-.05-.1-.06-.1-.05-.1-.06-.1-.06zM55.14 3.27l17.95 10.92-.17.29L54.96 3.55l.18-.28zm-.49-1.64l.17.29-.08.05-.06.04-.06.04-.05.04-.04.05-.04.04-.04.04-.02.03-.02.04-.01.04-.01.03-.01.03V2.5l.01.04.02.04.01.04.03.04.02.04.03.04.04.05.04.04.05.05.05.05.05.05.06.05.06.04.07.05.07.05.07.05.08.05-.18.28-.08-.05-.08-.05-.08-.05-.07-.06-.07-.05-.07-.06-.06-.05-.06-.06-.06-.05-.05-.06-.04-.06-.05-.06-.04-.06-.03-.07-.03-.06-.02-.07-.02-.07-.01-.07v-.07l.01-.06.01-.07.02-.08.03-.06.03-.07.04-.06.05-.06.05-.06.06-.06.07-.05.08-.06.08-.05.08-.05zM57.13.62l-2.31 1.3-.17-.29L56.97.32l.16.3zm2.68.13l-.18.29-.08-.05-.08-.05-.08-.05-.08-.05-.07-.04-.08-.05-.07-.04-.08-.05-.07-.04-.07-.04-.07-.04-.07-.03-.07-.03-.07-.03-.07-.03-.07-.02-.07-.02-.07-.02-.07-.01-.07-.01H57.95l-.08.01-.08.01-.09.02-.08.02-.09.03-.1.04-.09.04-.1.05-.11.06-.16-.3.11-.06.11-.05.12-.05.1-.04.11-.04.1-.03.1-.02.1-.02.1-.01h.19l.09.01.09.01.09.01.09.02.08.03.09.02.08.04.08.03.08.03.08.04.07.04.08.05.08.04.07.05.08.04.07.05.08.05.08.05.08.04.08.05.08.05z" class="fil1"/></g><g><path d="M60.96 45.41l42.19-13.95c.26-.09.55.05.64.32l.14.41c.09.27-.06.56-.32.65L61.42 46.78c-.27.09-.55-.05-.64-.32l-.14-.41c-.09-.27.05-.56.32-.64z" class="fil0"/><path id="1" d="M103.2 31.62L61.01 45.57l-.1-.32 42.18-13.95.11.32zm.75.11l-.32.1-.01-.01v-.02l-.01-.01-.01-.02-.01-.02v-.01l-.02-.01-.01-.01-.01-.02-.01-.01-.01-.01-.01-.01-.02-.01-.01-.01-.01-.01h-.02l-.02-.01-.01-.01h-.01l-.02-.01h-.03l-.02-.01h-.08l-.02.01h-.03l-.02.01-.11-.32.04-.01.03-.01.04-.01h.06l.04-.01h.03l.03.01h.04l.03.01h.03l.03.01.03.01.03.01.03.01.03.02.03.01.03.02.02.01.03.02.03.02.02.03.03.02.02.02.02.03.02.02.02.03.01.03.02.03.02.03.01.03.01.04zm-.18.52l-.14-.42.32-.1.14.41-.32.11zm-.11.75l-.1-.32.01-.01.02-.01h.01l.02-.01.01-.01.02-.01.01-.01.01-.01.01-.01.01-.01.02-.02.01-.01.01-.01.01-.02v-.01l.01-.02.01-.01v-.01l.01-.02v-.02l.01-.01v-.03l.01-.02v-.05l-.01-.02v-.03l-.01-.02v-.01l.32-.11.01.03.01.04v.03l.01.03v.17l-.01.03v.03l-.01.03-.01.03-.01.04-.01.03-.02.03-.01.02-.02.03-.02.03-.02.03-.02.02-.02.03-.02.02-.02.02-.03.02-.03.02-.02.02-.03.02-.03.02-.03.01-.04.01-.03.02zM61.37 46.62l42.19-13.94.1.32-42.19 13.94-.1-.32zm-.75-.1l.32-.11v.02l.01.01.01.01.01.02v.02l.01.01.01.01.01.02.01.01.02.01.01.01.01.01.01.01.02.01.01.01h.02l.01.01.02.01h.01l.02.01h.03l.02.01h.08l.02-.01h.03l.02-.01.1.32-.03.01-.03.01-.04.01h-.03l-.03.01h-.1l-.04-.01h-.03l-.03-.01-.03-.01-.03-.01-.03-.01-.03-.01-.03-.01-.03-.02-.03-.02-.03-.01-.02-.02-.03-.02-.02-.03-.03-.02-.02-.02-.02-.03-.02-.02-.02-.03-.02-.03-.01-.03-.02-.03-.01-.03-.01-.04v.01zm.18-.53l.14.42-.32.11-.14-.42.32-.11zm.11-.74l.1.32H61l-.02.01-.02.01h-.01l-.01.01-.02.01-.01.01-.01.01-.02.01-.01.01-.01.02-.01.01-.01.02-.01.01v.01l-.01.02-.01.01-.01.01v.02l-.01.02v.03l-.01.02v.08l.01.02v.03l.01.02-.32.1-.01-.03-.01-.03-.01-.04v-.03l-.01-.03V45.83l.01-.03v-.03l.01-.03.01-.03.01-.03.01-.04.01-.03.02-.03.01-.02.02-.03.02-.03.01-.03.03-.02.02-.02.02-.03.02-.02.03-.02.03-.02.02-.02.03-.02.03-.02.03-.01.03-.01.04-.01z" class="fil1"/></g><g><path d="M105.94 27.7c1.92-.18 3.61 1.23 3.79 3.15.17 1.91-1.23 3.61-3.15 3.78-1.91.18-3.61-1.23-3.78-3.15-.18-1.91 1.23-3.6 3.14-3.78z" class="fil0"/><path id="1" d="M109.9 30.83l-.34.03-.02-.17-.03-.17-.03-.16-.05-.16-.05-.15-.06-.16-.06-.15-.08-.14-.08-.14-.08-.13-.1-.14-.09-.12-.11-.12-.11-.12-.11-.11-.12-.1-.13-.1-.13-.09-.13-.09-.14-.08-.14-.07-.14-.07-.15-.06-.15-.05-.16-.05-.16-.03-.16-.04-.16-.02-.17-.01-.16-.01-.17.01-.17.01-.03-.34.18-.01h.37l.19.02.18.02.17.04.18.04.17.05.17.05.16.07.16.07.16.08.15.09.14.1.15.1.14.11.13.11.12.12.12.13.12.13.11.14.1.15.09.15.09.15.08.16.07.16.07.17.05.17.05.18.04.18.03.18.03.19zm-3.3 3.97l-.03-.34.17-.02.16-.02.16-.04.16-.04.16-.06.15-.05.15-.07.15-.07.14-.08.13-.09.13-.09.13-.1.12-.1.12-.11.1-.12.11-.12.1-.12.09-.13.09-.13.08-.14.07-.14.07-.15.06-.15.05-.15.05-.16.03-.15.03-.17.02-.16.02-.16v-.34l-.01-.17.34-.03.01.19v.18l-.01.19-.01.18-.03.18-.03.18-.04.17-.05.17-.06.17-.06.16-.08.16-.08.16-.09.15-.09.15-.1.14-.11.14-.12.13-.12.13-.13.12-.13.11-.14.11-.14.1-.15.1-.15.08-.16.08-.17.08-.17.06-.17.06-.17.05-.18.04-.19.03-.18.02zm-3.97-3.3l.33-.03.02.17.03.17.04.16.04.16.05.15.06.16.07.15.07.14.08.14.09.13.09.14.1.12.1.12.11.12.12.11.12.1.12.1.13.09.13.09.14.08.14.07.15.07.15.06.15.05.15.05.16.04.16.03.17.02.16.01.17.01h.17l.17-.02.03.34-.19.01-.19.01-.18-.01-.18-.02-.18-.02-.18-.03-.17-.05-.17-.05-.17-.05-.17-.07-.16-.07-.15-.08-.15-.09-.15-.1-.14-.1-.14-.11-.13-.11-.13-.12-.12-.13-.11-.14-.11-.13-.1-.15-.1-.15-.09-.15-.08-.16-.07-.16-.06-.17-.06-.17-.05-.18-.04-.18-.03-.18-.02-.19zm3.3-3.97l.03.34-.17.02-.17.03-.16.03-.16.05-.16.05-.15.06-.15.06-.14.07-.14.08-.14.09-.13.09-.12.1-.12.1-.12.11-.11.12-.11.12-.09.12-.1.13-.08.14-.08.13-.08.14-.06.15-.06.15-.05.15-.05.16-.04.15-.03.17-.02.16-.01.16-.01.17v.17l.01.17-.33.03-.01-.19-.01-.18.01-.19.01-.18.03-.18.03-.18.04-.17.05-.17.06-.17.07-.16.07-.16.08-.16.09-.15.09-.15.11-.14.11-.14.11-.13.12-.13.13-.12.13-.11.14-.11.14-.1.15-.1.16-.08.16-.08.16-.08.17-.06.17-.06.18-.05.18-.04.18-.03.19-.02z" class="fil1"/></g><g><path d="M106.24 28.55c.42-.04.79.2.82.54.03.33-.29.64-.71.68-.42.04-.79-.21-.82-.54-.03-.34.29-.65.71-.68z" class="fil8"/><path id="1" d="M107.23 29.07l-.34.03v-.04l-.01-.02-.01-.02V29l-.01-.02-.01-.02-.01-.01-.02-.02-.01-.02-.01-.02-.02-.01-.02-.02-.02-.02-.02-.01-.02-.01-.02-.02-.02-.01-.03-.01-.02-.01-.03-.01-.02-.01-.03-.01-.03-.01-.03-.01h-.03l-.03-.01h-.15l-.04-.33.05-.01h.09l.05.01h.04l.05.01h.04l.04.01.04.01.04.02.04.01.04.01.04.02.04.02.03.02.04.02.03.03.03.02.04.03.02.03.03.03.03.03.03.03.02.03.02.04.02.03.02.04.01.04.01.04.01.03.01.05.01.04zm-.86.87l-.03-.34.03-.01h.03l.03-.01h.03l.03-.01.03-.01.03-.01.03-.01.02-.02.03-.01.02-.01.03-.02.02-.01.02-.02.02-.02.02-.01.02-.02.01-.02.02-.02.01-.02.01-.01.02-.03.01-.02.01-.02v-.01l.01-.02v-.02l.01-.03v-.08l.34-.03v.13l-.01.04-.01.04-.01.04-.01.04-.01.03-.02.04-.02.04-.02.03-.02.03-.03.04-.02.03-.03.03-.03.03-.03.03-.03.02-.03.03-.04.02-.03.03-.04.02-.04.02-.04.02-.03.01-.05.02-.04.01-.04.01-.04.01-.05.01-.05.01-.04.01zm-1-.7l.33-.03v.02l.01.02v.02l.01.02.01.02v.02l.02.02.01.02.01.01.01.02.02.02.01.01.02.02.02.02.02.01.02.02.02.01.02.01.03.02.02.01.03.01.03.01h.02l.03.01.03.01h.03l.03.01h.16l.03.34H106.19l-.05-.01h-.04l-.04-.01-.05-.01-.04-.01-.04-.01-.04-.02-.04-.01-.04-.02-.03-.02-.04-.02-.03-.02-.04-.02-.03-.03-.03-.03-.03-.02-.03-.03-.03-.03-.02-.03-.03-.04-.02-.04-.02-.03-.01-.04-.02-.04-.01-.03-.01-.04-.01-.05v-.04zm.85-.86l.04.33-.04.01h-.03l-.03.01-.03.01h-.03l-.03.01-.03.01-.02.02-.03.01-.03.01-.02.01-.02.02-.02.01-.03.02-.02.02-.02.02-.01.01-.02.02-.01.02-.02.02-.01.02-.01.02-.01.02-.01.02-.01.02-.01.02v.02l-.01.02v.08l-.33.03-.01-.04v-.04l.01-.04v-.04l.01-.05.01-.04.01-.03.01-.04.02-.04.02-.03.02-.04.02-.03.03-.04.02-.03.03-.03.03-.03.03-.03.03-.02.03-.03.04-.02.04-.02.03-.03.04-.01.04-.02.04-.02.04-.02.04-.01.05-.01.04-.01.04-.01.05-.01h.04z" class="fil1"/></g><g><path d="M63.47 58.17l29.02-33.66c.18-.21.5-.23.71-.05l.33.28c.22.18.24.51.06.72L64.58 59.12c-.19.21-.51.23-.72.05l-.33-.28c-.21-.19-.24-.51-.06-.72z" class="fil0"/><path id="1" d="M92.61 24.63L63.6 58.28l-.25-.22L92.36 24.4l.25.22v.01zm.7-.3l-.22.26-.01-.01-.01-.01-.02-.01-.01-.01-.01-.01-.02-.01h-.02l-.01-.01h-.02l-.01-.01h-.15l-.02.01h-.01l-.02.01h-.01l-.02.01-.01.01-.02.01-.01.01-.01.01-.02.01-.01.01-.01.01-.02.01-.25-.21.02-.03.03-.03.02-.02.03-.02.03-.02.02-.02.03-.01.03-.02.03-.01.03-.02.03-.01.03-.01h.04l.03-.01.03-.01h.16l.03.01h.03l.04.01.03.01.03.01.03.02.03.01.03.01.03.02.03.02.03.02.02.02zm.12.54l-.34-.28.22-.26.33.29-.21.25zm.29.7l-.26-.22.01-.01.01-.02.01-.01.01-.02.01-.01.01-.02v-.01l.01-.01v-.04l.01-.02v-.11l-.01-.02v-.03l-.01-.01-.01-.02v-.01l-.01-.02-.01-.01-.01-.02-.01-.01-.01-.01-.01-.01-.01-.02-.01-.01.21-.25.03.02.02.02.03.03.02.02.02.03.02.03.01.03.02.03.01.03.02.03.01.03.01.03v.03l.01.03v.04l.01.03v.09l-.01.04v.03l-.01.03v.03l-.01.03-.01.04-.02.03-.01.03-.02.03-.01.03-.02.02-.02.03-.02.03zM64.45 59l29.01-33.65.26.22-29.01 33.66h-.01l-.25-.23zm-.7.3l.22-.26.01.01.02.01.01.01.01.01.02.01.02.01h.01l.02.01h.03l.02.01h.11l.02-.01h.03l.01-.01.02-.01h.02l.01-.01.01-.01.02-.01.01-.01.01-.01.02-.01.01-.01.01-.02.25.23-.02.02-.02.03-.03.02-.02.02-.03.02-.03.02-.03.01-.03.02-.03.01-.03.02-.03.01-.03.01h-.03l-.03.01h-.04l-.02.01h-.14l-.03-.01h-.03l-.03-.01-.04-.01-.03-.01-.03-.01-.02-.02-.04-.01-.03-.02-.02-.02-.03-.02-.03-.02zm-.11-.54l.33.28-.22.26-.33-.28.22-.26zm-.29-.7l.25.22-.01.01-.01.02-.01.01-.01.02v.01l-.01.02-.01.01v.01l-.01.02v.04l-.01.01v.08l.01.02v.03l.01.02v.01l.01.02.01.01.01.02v.01l.01.02.01.01.01.01.02.02.01.01.01.01-.22.26-.02-.03-.03-.02-.02-.03-.02-.02-.02-.03-.02-.03-.02-.03-.01-.03-.02-.03-.01-.03-.01-.03-.01-.03-.01-.03-.01-.03v-.23l.01-.03.01-.03.01-.03.01-.03.01-.04.01-.03.02-.03.02-.03.01-.03.03-.02.02-.03z" class="fil1"/></g><g><path d="M92.95 19.85c1.55-1.13 3.73-.8 4.86.76 1.14 1.55.8 3.72-.75 4.86-1.55 1.14-3.73.8-4.86-.75-1.14-1.55-.8-3.73.75-4.87z" class="fil0"/><path id="1" d="M97.95 20.51l-.27.2-.11-.14-.11-.13-.11-.12-.12-.11-.12-.11-.13-.1-.14-.1-.13-.08-.14-.08-.15-.07-.14-.07-.15-.05-.15-.05-.16-.05-.15-.03-.16-.03-.15-.02-.16-.01-.16-.01h-.16l-.16.01-.16.02-.16.02-.16.04-.15.04-.16.05-.15.05-.15.07-.15.07-.15.08-.14.09-.14.1-.2-.27.15-.11.16-.1.16-.09.17-.08.16-.07.17-.06.17-.06.18-.04.17-.04.17-.02.18-.02.17-.02h.18l.18.01.17.01.17.02.18.04.17.04.17.04.16.06.17.06.16.07.16.08.15.09.15.09.15.11.14.11.14.12.13.12.13.14.12.14.11.15zm-.79 5.1l-.2-.28.14-.1.13-.11.12-.11.11-.12.11-.13.1-.13.09-.13.09-.14.08-.14.07-.14.07-.15.05-.15.05-.15.05-.15.03-.16.03-.15.02-.16.01-.16.01-.16v-.16l-.01-.16-.02-.15-.03-.16-.03-.16-.04-.16-.05-.15-.06-.16-.06-.15-.07-.14-.08-.15-.09-.14-.1-.14.27-.2.11.15.1.16.09.16.08.16.07.17.06.17.05.17.05.17.04.18.02.17.02.18.01.17.01.18-.01.17-.01.18-.03.17-.03.17-.04.17-.04.17-.06.17-.06.16-.07.16-.08.16-.09.15-.1.16-.1.14-.11.15-.12.13-.12.13-.14.13-.14.12-.15.12zm-5.1-.79l.27-.2.11.14.11.12.11.12.12.12.13.11.13.1.13.09.14.09.14.08.14.07.15.06.15.06.15.05.15.04.15.04.16.03.16.02.16.01.15.01.17-.01.16-.01.15-.01.16-.03.16-.03.16-.04.15-.05.15-.06.16-.06.14-.08.15-.08.14-.09.14-.1.2.28-.15.1-.16.1-.16.09-.16.08-.17.07-.17.07-.17.05-.17.05-.18.03-.17.03-.18.02-.17.01h-.35l-.18-.02-.17-.02-.17-.03-.17-.04-.17-.05-.17-.05-.16-.07-.16-.07-.16-.08-.16-.08-.15-.1-.14-.1-.15-.11-.13-.12-.14-.13-.12-.13-.12-.14-.12-.15zm.79-5.1l.2.27-.14.1-.12.11-.13.12-.11.12-.11.12-.1.13-.09.13-.09.14-.08.14-.07.14-.06.15-.06.15-.05.15-.04.15-.04.16-.03.16-.02.15-.01.16-.01.16.01.16.01.16.01.16.03.16.03.15.04.16.05.16.06.15.06.15.08.15.08.14.09.15.09.14-.27.2-.11-.16-.09-.15-.09-.16-.08-.17-.07-.17-.07-.17-.05-.16-.05-.18-.03-.17-.03-.18-.02-.17-.01-.18v-.35l.02-.17.02-.18.03-.17.04-.17.05-.17.05-.16.07-.17.07-.16.08-.16.08-.15.1-.15.1-.15.11-.14.12-.14.13-.13.13-.13.14-.12.15-.11z" class="fil1"/></g><g><path d="M93.64 20.43c.34-.25.78-.23.98.04.2.27.09.7-.25.95-.35.25-.78.23-.98-.05-.21-.27-.09-.69.25-.94z" class="fil8"/><path id="1" d="M94.76 20.37l-.28.2-.01-.02-.01-.02-.02-.01-.01-.01-.02-.02h-.01l-.02-.02-.02-.01-.02-.01h-.02l-.02-.01-.03-.01h-.05l-.02-.01h-.1l-.03.01h-.03l-.02.01h-.03l-.03.01-.03.01-.02.01-.03.01-.03.02-.03.01-.03.02-.02.01-.03.02-.2-.27.04-.03.04-.02.04-.02.04-.03.04-.02.04-.01.04-.02.04-.01.04-.01.04-.01.04-.01.04-.01h.05l.04-.01h.08l.05.01h.03l.04.01.04.01.04.01.04.01.04.01.04.02.03.02.04.02.03.02.03.03.03.02.04.04.02.03.03.03zm-.29 1.18l-.2-.27.02-.02.03-.02.02-.02.02-.02.02-.02.02-.03.02-.02.02-.02.02-.03.01-.03.02-.02.01-.02.01-.03.01-.02.01-.03v-.02l.01-.03v-.02l.01-.03v-.11l-.01-.02v-.02l-.01-.02-.01-.02v-.02l-.01-.02-.01-.01-.02-.02.28-.2.02.03.02.04.02.04.02.04.01.03.01.04.01.04.01.04.01.05V20.83l-.01.05v.04l-.01.04-.01.04-.01.03-.02.04-.01.04-.02.04-.02.04-.02.04-.02.03-.02.04-.03.03-.03.04-.02.03-.04.03-.03.04-.03.02-.04.04-.03.02zm-1.22-.08l.27-.2.01.02.02.02.01.01.02.01.01.02.02.01.02.01.02.01.02.01.02.01h.02l.02.01h.03l.02.01h.15l.03-.01h.03l.03-.01.02-.01.04-.01.02-.01.03-.01.03-.01.02-.02.03-.01.03-.02.03-.02.2.27-.04.03-.04.02-.04.03-.04.02-.04.02-.04.01-.04.02-.04.01-.04.02-.05.01-.04.01h-.04l-.04.01H93.77l-.04-.01h-.04l-.04-.01-.03-.01-.04-.02-.04-.01-.04-.02-.03-.01-.04-.02-.04-.03-.03-.02-.03-.03-.03-.03-.02-.03-.03-.04zm.29-1.18l.2.27-.03.02-.02.02-.02.03-.03.02-.02.02-.02.02-.02.03-.01.02-.02.02-.01.03-.02.02-.01.03-.01.02-.01.03-.01.02-.01.03v.02l-.01.02v.05l-.01.02.01.03v.06l.01.02v.02l.01.02.01.02.01.02.01.02.01.01-.27.2-.02-.03-.03-.04-.02-.03-.01-.04-.02-.04-.01-.04-.01-.04-.01-.04v-.2l.01-.04.01-.04.01-.04.01-.04.01-.04.02-.04.01-.04.02-.03.02-.04.03-.04.02-.03.03-.04.02-.03.03-.03.03-.04.04-.03.03-.03.03-.03.04-.03z" class="fil1"/></g></g></svg>