<?xml version="1.0" encoding="UTF-8"?>
<!DOCTYPE svg PUBLIC "-//W3C//DTD SVG 1.1//EN" "http://www.w3.org/Graphics/SVG/1.1/DTD/svg11.dtd">
<!-- Creator: CorelDRAW 2018 (64-Bit) -->
<svg xmlns="http://www.w3.org/2000/svg" xml:space="preserve" width="62px" height="65px" version="1.1" style="shape-rendering:geometricPrecision; text-rendering:geometricPrecision; image-rendering:optimizeQuality; fill-rule:evenodd; clip-rule:evenodd"
viewBox="0 0 61.84 64.17"
 xmlns:xlink="http://www.w3.org/1999/xlink">
 <defs>
  <style type="text/css">
   <![CDATA[
    .fil0 {fill:#F5B2B6}
    .fil2 {fill:#C5E3D7}
    .fil1 {fill:#2B2A29;fill-rule:nonzero}
   ]]>
  </style>
 </defs>
 <g id="Слой_x0020_1">
  <metadata id="CorelCorpID_0Corel-Layer"/>
  <g>
   <path class="fil0" d="M0.95 57.89c-2.93,-5 3.1,-6.46 5.97,-7.86 13.61,-6.62 8.9,-13.11 1.92,-14.14 -10.68,-1.57 -7.41,-8.48 -0.83,-8.48 6.71,0 14.3,5.82 22.29,3.16 5.03,-2.12 6.97,-10.41 14.98,-11 6.65,-0.49 5.67,7.68 -1.44,12.68 -10.22,7.19 17.6,1.53 17.83,10.72 0.1,4.15 -5.83,5.93 -14.96,2.75 -4.65,-0.92 -7.05,0.8 -6.37,4.56 0.67,3.7 12.42,9.08 4.01,13.52 -1.24,0.66 -5.27,-0.4 -6.27,-1.35 -4.09,-2.82 -11.31,-6.47 -16.07,-6.72 -9.95,-0.53 -15.37,6.64 -21.06,2.16z"/>
   <path id="1" class="fil1" d="M6.85 49.88l0.14 0.31 0 0 -0.28 0.13 -0.29 0.13 -0.31 0.14 -0.33 0.13 -0.33 0.14 -0.33 0.15 -0.34 0.14 -0.35 0.15 -0.34 0.16 -0.34 0.16 -0.34 0.17 -0.33 0.18 -0.33 0.18 -0.31 0.19 -0.29 0.2 -0.29 0.21 -0.26 0.21 -0.25 0.23 -0.22 0.24 -0.2 0.25 -0.17 0.26 -0.15 0.27 -0.12 0.28 -0.08 0.3 -0.06 0.31 -0.02 0.33 0.02 0.34 0.06 0.37 0.1 0.38 0.15 0.41 0.19 0.43 0.25 0.44 -0.29 0.18 -0.26 -0.47 -0.2 -0.45 -0.16 -0.43 -0.1 -0.42 -0.07 -0.4 -0.02 -0.38 0.02 -0.37 0.06 -0.35 0.1 -0.33 0.13 -0.32 0.16 -0.3 0.19 -0.28 0.22 -0.27 0.24 -0.26 0.26 -0.24 0.28 -0.23 0.29 -0.22 0.31 -0.21 0.33 -0.19 0.33 -0.19 0.34 -0.18 0.34 -0.17 0.35 -0.17 0.35 -0.16 0.34 -0.15 0.35 -0.14 0.34 -0.15 0.33 -0.14 0.31 -0.13 0.31 -0.14 0.29 -0.13 0.28 -0.13 0 0zm1.96 -13.82l0.05 -0.33 0 0 0.66 0.11 0.64 0.15 0.62 0.17 0.6 0.21 0.57 0.23 0.54 0.26 0.52 0.29 0.48 0.32 0.45 0.34 0.4 0.36 0.37 0.39 0.32 0.42 0.26 0.43 0.22 0.46 0.16 0.48 0.1 0.49 0.03 0.51 -0.03 0.53 -0.09 0.54 -0.17 0.56 -0.25 0.56 -0.31 0.57 -0.4 0.59 -0.48 0.59 -0.56 0.59 -0.65 0.6 -0.74 0.61 -0.83 0.62 -0.92 0.61 -1.02 0.62 -1.13 0.62 -1.23 0.63 -0.14 -0.31 1.22 -0.62 1.11 -0.61 1.01 -0.61 0.91 -0.61 0.82 -0.6 0.72 -0.6 0.63 -0.59 0.55 -0.58 0.46 -0.57 0.38 -0.55 0.3 -0.55 0.23 -0.53 0.16 -0.52 0.09 -0.5 0.03 -0.48 -0.03 -0.47 -0.1 -0.46 -0.14 -0.43 -0.2 -0.43 -0.25 -0.4 -0.3 -0.39 -0.34 -0.36 -0.39 -0.35 -0.42 -0.33 -0.46 -0.3 -0.5 -0.28 -0.53 -0.25 -0.55 -0.23 -0.58 -0.2 -0.61 -0.17 -0.62 -0.14 -0.64 -0.11 0 0zm-0.8 -8.81l0 0.33 0 0 -0.6 0.02 -0.57 0.06 -0.55 0.09 -0.53 0.13 -0.5 0.15 -0.47 0.19 -0.44 0.21 -0.4 0.23 -0.37 0.26 -0.33 0.27 -0.3 0.29 -0.25 0.3 -0.22 0.32 -0.16 0.32 -0.13 0.33 -0.07 0.34 -0.03 0.34 0.02 0.34 0.07 0.34 0.12 0.34 0.18 0.34 0.24 0.33 0.3 0.33 0.36 0.32 0.43 0.31 0.5 0.3 0.57 0.28 0.64 0.26 0.72 0.24 0.8 0.22 0.87 0.19 0.95 0.16 -0.05 0.33 -0.96 -0.16 -0.89 -0.2 -0.81 -0.22 -0.74 -0.24 -0.67 -0.27 -0.59 -0.29 -0.52 -0.32 -0.45 -0.32 -0.39 -0.35 -0.33 -0.35 -0.26 -0.37 -0.21 -0.38 -0.14 -0.39 -0.07 -0.39 -0.03 -0.39 0.04 -0.38 0.08 -0.38 0.14 -0.37 0.19 -0.36 0.23 -0.35 0.28 -0.33 0.31 -0.31 0.36 -0.29 0.39 -0.27 0.43 -0.25 0.46 -0.22 0.49 -0.2 0.52 -0.16 0.55 -0.13 0.57 -0.1 0.6 -0.05 0.62 -0.02 0 0zm22.23 3.17l0.13 0.31 -0.02 0 -0.75 0.23 -0.76 0.18 -0.75 0.14 -0.75 0.09 -0.75 0.05 -0.74 0.02 -0.74 -0.02 -0.73 -0.05 -0.74 -0.08 -0.73 -0.11 -0.72 -0.12 -0.72 -0.16 -0.72 -0.16 -0.71 -0.19 -0.71 -0.19 -0.7 -0.21 -0.7 -0.21 -0.7 -0.22 -0.69 -0.22 -0.69 -0.23 -0.68 -0.21 -0.68 -0.22 -0.67 -0.2 -0.67 -0.2 -0.66 -0.18 -0.66 -0.16 -0.65 -0.15 -0.64 -0.13 -0.64 -0.1 -0.64 -0.07 -0.63 -0.05 -0.62 -0.02 0 -0.33 0.64 0.01 0.64 0.05 0.65 0.08 0.65 0.1 0.66 0.13 0.66 0.15 0.67 0.17 0.66 0.18 0.68 0.19 0.67 0.21 0.68 0.21 0.68 0.22 0.69 0.23 0.69 0.22 0.69 0.21 0.7 0.22 0.7 0.2 0.71 0.2 0.7 0.18 0.71 0.17 0.71 0.14 0.72 0.13 0.71 0.11 0.72 0.07 0.73 0.05 0.72 0.02 0.73 -0.02 0.73 -0.05 0.73 -0.09 0.73 -0.13 0.74 -0.17 0.74 -0.23 -0.01 0.01zm0.13 0.31l-0.02 0 0.01 0 0.01 0zm14.9 -11.33l0.02 0.34 0 0 -0.72 0.07 -0.69 0.12 -0.66 0.16 -0.62 0.19 -0.6 0.23 -0.57 0.26 -0.55 0.29 -0.52 0.32 -0.5 0.34 -0.49 0.37 -0.46 0.38 -0.45 0.4 -0.43 0.42 -0.42 0.43 -0.41 0.44 -0.4 0.45 -0.39 0.45 -0.39 0.45 -0.37 0.46 -0.38 0.45 -0.38 0.45 -0.37 0.44 -0.38 0.43 -0.38 0.42 -0.39 0.4 -0.39 0.38 -0.4 0.37 -0.42 0.34 -0.42 0.32 -0.44 0.28 -0.46 0.26 -0.47 0.22 -0.13 -0.31 0.45 -0.21 0.43 -0.25 0.43 -0.27 0.41 -0.31 0.4 -0.33 0.39 -0.35 0.39 -0.38 0.38 -0.39 0.37 -0.42 0.38 -0.42 0.37 -0.44 0.37 -0.44 0.38 -0.46 0.38 -0.45 0.38 -0.46 0.4 -0.46 0.4 -0.45 0.42 -0.44 0.42 -0.44 0.45 -0.42 0.45 -0.41 0.48 -0.4 0.49 -0.37 0.52 -0.35 0.54 -0.33 0.56 -0.3 0.59 -0.27 0.62 -0.24 0.65 -0.2 0.68 -0.16 0.71 -0.12 0.74 -0.08 0 0zm-1.34 12.99l-0.19 -0.28 0 0 0.64 -0.47 0.61 -0.49 0.57 -0.5 0.53 -0.52 0.5 -0.52 0.46 -0.53 0.42 -0.54 0.39 -0.54 0.35 -0.54 0.3 -0.54 0.27 -0.54 0.24 -0.53 0.19 -0.52 0.15 -0.51 0.12 -0.5 0.07 -0.49 0.04 -0.46 0 -0.45 -0.05 -0.43 -0.08 -0.4 -0.12 -0.37 -0.16 -0.35 -0.2 -0.32 -0.24 -0.29 -0.28 -0.26 -0.32 -0.23 -0.36 -0.19 -0.41 -0.15 -0.45 -0.11 -0.5 -0.08 -0.54 -0.02 -0.59 0.02 -0.02 -0.34 0.61 -0.02 0.57 0.03 0.53 0.07 0.49 0.13 0.44 0.17 0.4 0.21 0.36 0.25 0.31 0.29 0.27 0.32 0.22 0.36 0.18 0.38 0.13 0.42 0.09 0.43 0.05 0.46 0 0.48 -0.03 0.49 -0.08 0.51 -0.12 0.52 -0.16 0.54 -0.2 0.54 -0.24 0.54 -0.28 0.56 -0.32 0.55 -0.35 0.56 -0.4 0.55 -0.43 0.55 -0.47 0.54 -0.51 0.54 -0.54 0.53 -0.58 0.51 -0.62 0.5 -0.66 0.48 0 0zm17.91 10.58l-0.34 0 0 0 -0.09 -0.78 -0.24 -0.71 -0.37 -0.63 -0.5 -0.56 -0.61 -0.51 -0.71 -0.45 -0.8 -0.4 -0.89 -0.34 -0.95 -0.31 -1.01 -0.26 -1.05 -0.22 -1.08 -0.2 -1.1 -0.17 -1.1 -0.15 -1.1 -0.13 -1.08 -0.13 -1.06 -0.11 -1.01 -0.12 -0.96 -0.12 -0.89 -0.13 -0.82 -0.14 -0.72 -0.17 -0.63 -0.19 -0.53 -0.23 -0.41 -0.27 -0.27 -0.34 -0.1 -0.41 0.08 -0.46 0.28 -0.47 0.45 -0.53 0.65 -0.57 0.86 -0.65 0.19 0.28 -0.84 0.63 -0.62 0.55 -0.42 0.49 -0.24 0.4 -0.06 0.32 0.07 0.26 0.19 0.25 0.35 0.22 0.48 0.21 0.6 0.19 0.71 0.16 0.8 0.14 0.89 0.13 0.95 0.12 1.01 0.11 1.05 0.12 1.09 0.12 1.1 0.14 1.11 0.15 1.11 0.17 1.09 0.19 1.06 0.24 1.02 0.26 0.97 0.31 0.91 0.36 0.83 0.41 0.75 0.47 0.64 0.53 0.54 0.61 0.4 0.69 0.26 0.77 0.11 0.86 0 0zm-15.16 2.91l0.06 -0.33 0.03 0.01 0.84 0.28 0.82 0.26 0.81 0.22 0.78 0.2 0.76 0.17 0.74 0.15 0.72 0.11 0.7 0.1 0.67 0.07 0.65 0.04 0.62 0.02 0.6 -0.01 0.57 -0.03 0.55 -0.04 0.52 -0.08 0.5 -0.09 0.46 -0.12 0.44 -0.13 0.41 -0.15 0.38 -0.18 0.36 -0.19 0.32 -0.21 0.29 -0.23 0.26 -0.24 0.23 -0.26 0.2 -0.28 0.17 -0.29 0.13 -0.3 0.11 -0.32 0.07 -0.34 0.04 -0.35 0.01 -0.37 0.34 0 -0.01 0.39 -0.05 0.39 -0.08 0.37 -0.11 0.35 -0.16 0.34 -0.18 0.32 -0.22 0.3 -0.25 0.28 -0.28 0.27 -0.32 0.24 -0.34 0.23 -0.38 0.2 -0.4 0.19 -0.43 0.16 -0.46 0.14 -0.48 0.12 -0.51 0.09 -0.54 0.08 -0.56 0.05 -0.59 0.03 -0.62 0 -0.63 -0.01 -0.66 -0.05 -0.68 -0.07 -0.71 -0.09 -0.73 -0.12 -0.75 -0.15 -0.77 -0.17 -0.79 -0.2 -0.81 -0.23 -0.83 -0.26 -0.85 -0.28 0.02 0zm0.06 -0.33l0.01 0 0.02 0.01 -0.03 -0.01zm-6.24 4.7l-0.32 0.06 0 0 -0.06 -0.36 -0.04 -0.34 -0.02 -0.33 0 -0.32 0.02 -0.31 0.03 -0.29 0.05 -0.29 0.07 -0.27 0.09 -0.26 0.11 -0.24 0.12 -0.24 0.14 -0.22 0.16 -0.2 0.18 -0.19 0.19 -0.18 0.21 -0.16 0.22 -0.15 0.24 -0.13 0.26 -0.12 0.27 -0.1 0.28 -0.09 0.3 -0.07 0.31 -0.06 0.33 -0.04 0.34 -0.03 0.35 -0.01 0.37 0 0.38 0.02 0.4 0.03 0.41 0.05 0.42 0.06 0.43 0.08 -0.06 0.33 -0.43 -0.08 -0.41 -0.06 -0.39 -0.04 -0.39 -0.04 -0.37 -0.01 -0.35 -0.01 -0.34 0.02 -0.33 0.02 -0.31 0.04 -0.29 0.06 -0.28 0.06 -0.26 0.09 -0.25 0.09 -0.24 0.11 -0.22 0.12 -0.2 0.13 -0.18 0.15 -0.18 0.16 -0.15 0.17 -0.14 0.18 -0.13 0.2 -0.11 0.2 -0.09 0.23 -0.09 0.23 -0.06 0.25 -0.05 0.26 -0.03 0.27 -0.02 0.29 0.01 0.3 0.01 0.31 0.04 0.33 0.05 0.34 0 0zm3.93 13.7l-0.16 -0.3 0 0 0.72 -0.41 0.61 -0.41 0.5 -0.42 0.39 -0.42 0.3 -0.42 0.22 -0.41 0.13 -0.42 0.06 -0.41 -0.01 -0.42 -0.07 -0.43 -0.13 -0.42 -0.19 -0.44 -0.23 -0.43 -0.28 -0.44 -0.32 -0.44 -0.35 -0.44 -0.38 -0.43 -0.4 -0.44 -0.41 -0.44 -0.43 -0.43 -0.43 -0.42 -0.43 -0.43 -0.42 -0.42 -0.41 -0.41 -0.39 -0.41 -0.37 -0.41 -0.34 -0.4 -0.3 -0.39 -0.26 -0.39 -0.21 -0.38 -0.16 -0.39 -0.1 -0.37 0.32 -0.06 0.09 0.32 0.15 0.35 0.2 0.35 0.24 0.37 0.3 0.38 0.32 0.39 0.36 0.4 0.39 0.4 0.41 0.42 0.42 0.41 0.43 0.43 0.43 0.43 0.43 0.43 0.42 0.44 0.4 0.44 0.39 0.45 0.36 0.45 0.32 0.45 0.3 0.46 0.24 0.46 0.2 0.46 0.14 0.47 0.08 0.47 0.01 0.47 -0.06 0.47 -0.16 0.47 -0.23 0.46 -0.33 0.46 -0.43 0.45 -0.52 0.44 -0.63 0.43 -0.74 0.42 0 0zm-6.45 -1.37l0.19 -0.27 0.02 0.01 0.09 0.08 0.12 0.09 0.12 0.08 0.15 0.09 0.15 0.08 0.17 0.09 0.19 0.08 0.19 0.09 0.2 0.08 0.21 0.07 0.22 0.08 0.23 0.07 0.23 0.08 0.23 0.06 0.24 0.06 0.23 0.06 0.24 0.06 0.24 0.04 0.24 0.05 0.23 0.03 0.23 0.04 0.22 0.02 0.22 0.02 0.21 0.01 0.21 0.01 0.19 -0.01 0.18 -0.01 0.17 -0.02 0.16 -0.02 0.14 -0.04 0.12 -0.04 0.11 -0.05 0.16 0.3 -0.14 0.07 -0.16 0.05 -0.16 0.04 -0.18 0.03 -0.19 0.02 -0.2 0.01 -0.2 0 -0.22 0 -0.22 -0.01 -0.23 -0.02 -0.23 -0.03 -0.24 -0.03 -0.24 -0.04 -0.24 -0.05 -0.25 -0.05 -0.24 -0.05 -0.25 -0.06 -0.24 -0.06 -0.24 -0.07 -0.23 -0.07 -0.23 -0.08 -0.23 -0.08 -0.22 -0.08 -0.21 -0.08 -0.2 -0.09 -0.19 -0.09 -0.18 -0.09 -0.17 -0.09 -0.15 -0.09 -0.15 -0.1 -0.12 -0.09 -0.12 -0.1 0.02 0.01zm0.19 -0.27l0.02 0.01 0 0 -0.02 -0.01zm-16.17 -6.42l0.02 -0.33 0 0 0.46 0.03 0.48 0.06 0.48 0.07 0.49 0.09 0.51 0.1 0.51 0.13 0.52 0.13 0.53 0.16 0.54 0.16 0.54 0.18 0.54 0.19 0.55 0.2 0.55 0.22 0.54 0.22 0.55 0.23 0.55 0.24 0.55 0.25 0.54 0.25 0.54 0.26 0.54 0.27 0.52 0.27 0.53 0.27 0.51 0.28 0.5 0.28 0.5 0.28 0.48 0.28 0.47 0.28 0.46 0.28 0.44 0.27 0.43 0.28 0.41 0.27 0.39 0.27 -0.19 0.27 -0.39 -0.26 -0.4 -0.27 -0.43 -0.27 -0.44 -0.28 -0.45 -0.27 -0.47 -0.28 -0.48 -0.28 -0.49 -0.28 -0.5 -0.28 -0.51 -0.27 -0.52 -0.27 -0.52 -0.27 -0.53 -0.26 -0.54 -0.26 -0.54 -0.25 -0.54 -0.25 -0.55 -0.24 -0.54 -0.23 -0.55 -0.22 -0.54 -0.21 -0.54 -0.2 -0.54 -0.19 -0.54 -0.18 -0.52 -0.16 -0.53 -0.15 -0.51 -0.14 -0.51 -0.12 -0.49 -0.1 -0.49 -0.09 -0.47 -0.07 -0.46 -0.05 -0.45 -0.04 0 0zm-21.19 2.09l0.29 -0.18 -0.04 -0.04 0.52 0.38 0.52 0.31 0.52 0.25 0.51 0.2 0.53 0.15 0.52 0.09 0.53 0.05 0.53 0.01 0.54 -0.03 0.55 -0.07 0.56 -0.1 0.56 -0.13 0.58 -0.15 0.59 -0.18 0.6 -0.2 0.61 -0.21 0.62 -0.22 0.64 -0.23 0.66 -0.24 0.67 -0.24 0.69 -0.23 0.7 -0.23 0.73 -0.22 0.74 -0.21 0.76 -0.19 0.79 -0.17 0.8 -0.15 0.83 -0.11 0.86 -0.09 0.87 -0.05 0.9 -0.02 0.93 0.03 -0.02 0.33 -0.91 -0.02 -0.89 0.01 -0.86 0.05 -0.84 0.09 -0.81 0.12 -0.8 0.14 -0.77 0.17 -0.76 0.19 -0.73 0.2 -0.72 0.22 -0.7 0.23 -0.68 0.23 -0.67 0.24 -0.65 0.23 -0.64 0.24 -0.63 0.22 -0.62 0.21 -0.6 0.2 -0.6 0.18 -0.59 0.16 -0.58 0.13 -0.57 0.1 -0.57 0.07 -0.56 0.04 -0.56 -0.01 -0.56 -0.05 -0.55 -0.1 -0.55 -0.16 -0.55 -0.21 -0.54 -0.26 -0.55 -0.33 -0.54 -0.4 -0.04 -0.04zm0.04 0.04l-0.03 -0.02 -0.01 -0.02 0.04 0.04z"/>
  </g>
  <g>
   <path class="fil2" d="M22.83 41.75c-2.73,-2.76 -1.03,-6.85 -0.87,-8.99 0.99,-13.63 -9.26,-11.87 -13.97,-11.38 -7.19,0.75 -8.05,-6.57 -3.78,-7.66 4.36,-1.11 7.36,2.32 10.66,-0.59 2.91,-2.21 3.38,-11.03 8.49,-12.74 4.24,-1.42 4.95,4.06 1.16,8.48 -2.17,2.53 -0.51,7.45 2.4,6.62 4.4,-1.25 9.45,-11.62 13.9,-6.39 2.26,6.88 -5.82,6.73 -11.29,11.81 -4.66,6.08 4.06,24.2 -6.7,20.84z"/>
   <path id="1" class="fil1" d="M21.79 32.75l0.33 0.03 0 0 -0.02 0.21 -0.02 0.22 -0.04 0.23 -0.04 0.24 -0.04 0.25 -0.05 0.25 -0.05 0.26 -0.05 0.27 -0.05 0.28 -0.05 0.28 -0.05 0.28 -0.05 0.29 -0.04 0.29 -0.04 0.3 -0.03 0.3 -0.02 0.3 -0.02 0.31 0 0.3 0 0.3 0.02 0.3 0.03 0.31 0.04 0.3 0.06 0.29 0.07 0.3 0.09 0.29 0.11 0.29 0.12 0.28 0.15 0.28 0.17 0.27 0.19 0.27 0.21 0.26 0.23 0.25 -0.23 0.24 -0.25 -0.27 -0.23 -0.28 -0.2 -0.28 -0.18 -0.3 -0.16 -0.29 -0.13 -0.31 -0.12 -0.3 -0.09 -0.31 -0.08 -0.31 -0.06 -0.32 -0.04 -0.31 -0.03 -0.32 -0.02 -0.32 -0.01 -0.31 0.01 -0.32 0.01 -0.31 0.03 -0.31 0.03 -0.31 0.04 -0.3 0.04 -0.3 0.05 -0.29 0.05 -0.29 0.05 -0.29 0.05 -0.27 0.05 -0.27 0.05 -0.26 0.05 -0.26 0.04 -0.24 0.04 -0.24 0.04 -0.22 0.02 -0.21 0.02 -0.2 0 0zm-13.78 -11.2l-0.03 -0.34 0 0 0.45 -0.05 0.49 -0.05 0.51 -0.05 0.54 -0.06 0.56 -0.05 0.57 -0.04 0.59 -0.03 0.61 -0.01 0.61 0 0.62 0.02 0.61 0.04 0.62 0.08 0.62 0.1 0.61 0.13 0.6 0.17 0.58 0.21 0.57 0.25 0.55 0.3 0.53 0.35 0.51 0.4 0.47 0.45 0.44 0.51 0.4 0.57 0.37 0.64 0.32 0.7 0.27 0.77 0.23 0.84 0.17 0.91 0.12 1 0.06 1.07 0 1.15 -0.06 1.25 -0.33 -0.03 0.06 -1.23 0 -1.13 -0.06 -1.05 -0.12 -0.97 -0.17 -0.9 -0.22 -0.81 -0.26 -0.74 -0.31 -0.68 -0.35 -0.61 -0.39 -0.54 -0.41 -0.49 -0.45 -0.43 -0.48 -0.38 -0.51 -0.33 -0.52 -0.28 -0.55 -0.25 -0.56 -0.2 -0.58 -0.16 -0.59 -0.13 -0.6 -0.1 -0.61 -0.07 -0.6 -0.04 -0.61 -0.03 -0.6 0 -0.59 0.02 -0.58 0.03 -0.58 0.04 -0.55 0.05 -0.53 0.05 -0.51 0.05 -0.49 0.06 -0.46 0.05 0 0zm-3.84 -7.99l0.09 0.33 0 0 -0.37 0.11 -0.34 0.15 -0.31 0.17 -0.28 0.21 -0.25 0.22 -0.22 0.25 -0.19 0.27 -0.16 0.29 -0.13 0.3 -0.1 0.32 -0.07 0.32 -0.04 0.33 -0.01 0.34 0.03 0.34 0.05 0.34 0.09 0.34 0.12 0.33 0.16 0.33 0.18 0.31 0.22 0.31 0.25 0.29 0.29 0.27 0.32 0.25 0.35 0.23 0.39 0.2 0.42 0.18 0.46 0.14 0.5 0.11 0.53 0.08 0.57 0.04 0.61 0 0.65 -0.05 0.03 0.34 -0.67 0.04 -0.63 0.01 -0.59 -0.04 -0.56 -0.09 -0.52 -0.11 -0.49 -0.16 -0.45 -0.19 -0.42 -0.21 -0.38 -0.25 -0.34 -0.27 -0.31 -0.29 -0.27 -0.31 -0.24 -0.33 -0.2 -0.34 -0.17 -0.36 -0.13 -0.36 -0.09 -0.37 -0.07 -0.37 -0.02 -0.37 0.01 -0.37 0.04 -0.37 0.07 -0.35 0.12 -0.35 0.14 -0.33 0.18 -0.32 0.21 -0.3 0.24 -0.27 0.28 -0.25 0.31 -0.23 0.34 -0.19 0.37 -0.17 0.4 -0.12 0 0zm10.6 -0.56l0.2 0.26 0.01 0 -0.32 0.26 -0.31 0.22 -0.32 0.2 -0.32 0.16 -0.31 0.13 -0.32 0.1 -0.31 0.08 -0.32 0.05 -0.32 0.03 -0.31 0.01 -0.32 -0.01 -0.32 -0.02 -0.31 -0.04 -0.32 -0.04 -0.32 -0.06 -0.32 -0.07 -0.33 -0.07 -0.32 -0.07 -0.33 -0.07 -0.33 -0.07 -0.34 -0.07 -0.34 -0.07 -0.34 -0.05 -0.35 -0.05 -0.35 -0.04 -0.36 -0.03 -0.36 -0.01 -0.37 0 -0.37 0.03 -0.38 0.04 -0.39 0.07 -0.39 0.09 -0.09 -0.33 0.42 -0.09 0.4 -0.07 0.4 -0.05 0.39 -0.02 0.38 -0.01 0.38 0.02 0.37 0.02 0.36 0.04 0.36 0.05 0.35 0.06 0.34 0.07 0.34 0.07 0.34 0.07 0.33 0.07 0.32 0.08 0.32 0.07 0.32 0.06 0.31 0.05 0.31 0.05 0.3 0.03 0.3 0.03 0.3 0 0.3 -0.01 0.29 -0.02 0.3 -0.05 0.29 -0.07 0.29 -0.1 0.29 -0.12 0.3 -0.15 0.29 -0.18 0.3 -0.21 0.3 -0.25 0.01 0zm-0.01 0l0.01 0 -0.01 0 0 0zm8.54 -12.77l0.11 0.32 0 0 -0.45 0.18 -0.43 0.21 -0.4 0.25 -0.38 0.28 -0.36 0.31 -0.34 0.35 -0.32 0.37 -0.31 0.39 -0.29 0.42 -0.27 0.44 -0.27 0.45 -0.24 0.47 -0.24 0.48 -0.23 0.49 -0.22 0.49 -0.21 0.51 -0.21 0.5 -0.2 0.5 -0.2 0.5 -0.2 0.5 -0.19 0.49 -0.2 0.47 -0.19 0.47 -0.2 0.45 -0.21 0.43 -0.21 0.41 -0.21 0.39 -0.23 0.36 -0.24 0.34 -0.25 0.3 -0.26 0.28 -0.28 0.23 -0.2 -0.26 0.25 -0.22 0.24 -0.25 0.24 -0.29 0.22 -0.32 0.22 -0.34 0.21 -0.38 0.2 -0.4 0.2 -0.42 0.2 -0.45 0.2 -0.46 0.19 -0.47 0.19 -0.49 0.2 -0.49 0.2 -0.5 0.2 -0.51 0.21 -0.5 0.21 -0.51 0.22 -0.5 0.24 -0.5 0.24 -0.49 0.25 -0.47 0.27 -0.47 0.28 -0.45 0.3 -0.43 0.32 -0.41 0.34 -0.38 0.35 -0.36 0.38 -0.33 0.4 -0.3 0.43 -0.26 0.45 -0.23 0.48 -0.19 0 0zm1.35 8.75l-0.26 -0.22 0 0 0.34 -0.41 0.31 -0.42 0.29 -0.42 0.26 -0.42 0.23 -0.42 0.21 -0.42 0.19 -0.42 0.15 -0.41 0.14 -0.4 0.11 -0.4 0.09 -0.4 0.06 -0.37 0.04 -0.37 0.01 -0.36 -0.01 -0.34 -0.03 -0.32 -0.05 -0.3 -0.08 -0.29 -0.09 -0.26 -0.12 -0.24 -0.14 -0.22 -0.16 -0.2 -0.17 -0.17 -0.2 -0.14 -0.22 -0.12 -0.24 -0.09 -0.26 -0.06 -0.28 -0.03 -0.31 0 -0.33 0.03 -0.35 0.07 -0.37 0.11 -0.11 -0.32 0.4 -0.11 0.38 -0.08 0.36 -0.04 0.35 0 0.32 0.04 0.3 0.07 0.28 0.1 0.26 0.14 0.23 0.17 0.21 0.2 0.18 0.23 0.16 0.25 0.14 0.28 0.1 0.29 0.09 0.32 0.05 0.33 0.04 0.35 0.01 0.36 -0.02 0.37 -0.04 0.39 -0.06 0.4 -0.1 0.41 -0.11 0.41 -0.14 0.43 -0.16 0.42 -0.2 0.43 -0.21 0.44 -0.24 0.43 -0.27 0.43 -0.3 0.44 -0.32 0.42 -0.34 0.43 0 0zm2.23 6.35l0.09 0.32 0 0 -0.29 0.07 -0.28 0.03 -0.27 0 -0.27 -0.04 -0.25 -0.06 -0.24 -0.09 -0.23 -0.12 -0.22 -0.14 -0.21 -0.17 -0.19 -0.18 -0.18 -0.21 -0.17 -0.22 -0.15 -0.23 -0.13 -0.25 -0.12 -0.27 -0.11 -0.27 -0.09 -0.29 -0.08 -0.29 -0.06 -0.3 -0.04 -0.31 -0.02 -0.31 -0.01 -0.31 0.01 -0.31 0.04 -0.31 0.04 -0.32 0.07 -0.3 0.1 -0.31 0.11 -0.29 0.13 -0.29 0.15 -0.28 0.18 -0.27 0.2 -0.25 0.26 0.22 -0.19 0.23 -0.16 0.25 -0.14 0.25 -0.13 0.27 -0.1 0.27 -0.08 0.28 -0.07 0.29 -0.04 0.29 -0.03 0.29 -0.01 0.29 0 0.3 0.03 0.29 0.04 0.28 0.05 0.29 0.07 0.27 0.08 0.27 0.1 0.25 0.12 0.24 0.12 0.23 0.14 0.22 0.15 0.2 0.16 0.19 0.17 0.16 0.18 0.15 0.19 0.12 0.2 0.1 0.21 0.08 0.21 0.05 0.23 0.03 0.23 0 0.24 -0.02 0.26 -0.06 0 0zm14.1 -6.28l-0.32 0.1 0.03 0.06 -0.4 -0.43 -0.41 -0.35 -0.41 -0.26 -0.4 -0.19 -0.41 -0.12 -0.41 -0.05 -0.41 0.01 -0.41 0.06 -0.42 0.12 -0.43 0.16 -0.43 0.22 -0.43 0.25 -0.44 0.3 -0.44 0.32 -0.44 0.36 -0.44 0.38 -0.44 0.4 -0.44 0.41 -0.44 0.43 -0.44 0.43 -0.45 0.43 -0.44 0.43 -0.43 0.42 -0.44 0.41 -0.44 0.39 -0.44 0.38 -0.43 0.34 -0.44 0.32 -0.43 0.28 -0.43 0.25 -0.43 0.19 -0.43 0.15 -0.09 -0.32 0.39 -0.14 0.41 -0.18 0.41 -0.24 0.41 -0.27 0.43 -0.3 0.42 -0.34 0.43 -0.37 0.43 -0.39 0.44 -0.4 0.43 -0.42 0.44 -0.43 0.44 -0.43 0.45 -0.43 0.44 -0.43 0.45 -0.42 0.44 -0.4 0.45 -0.39 0.45 -0.36 0.45 -0.34 0.45 -0.3 0.45 -0.27 0.45 -0.22 0.46 -0.18 0.46 -0.13 0.45 -0.07 0.46 -0.01 0.46 0.06 0.45 0.13 0.45 0.21 0.45 0.29 0.44 0.37 0.43 0.46 0.03 0.06zm-0.03 -0.06l0.02 0.03 0.01 0.03 -0.03 -0.06zm-11.28 12.02l-0.27 -0.2 0.02 -0.02 0.53 -0.47 0.53 -0.44 0.55 -0.41 0.56 -0.38 0.56 -0.37 0.56 -0.34 0.57 -0.33 0.56 -0.31 0.56 -0.3 0.55 -0.29 0.55 -0.28 0.53 -0.27 0.52 -0.27 0.5 -0.26 0.48 -0.27 0.46 -0.27 0.44 -0.27 0.41 -0.28 0.38 -0.29 0.35 -0.3 0.32 -0.31 0.29 -0.32 0.24 -0.34 0.21 -0.36 0.17 -0.39 0.12 -0.4 0.09 -0.44 0.03 -0.46 -0.01 -0.5 -0.07 -0.53 -0.12 -0.57 -0.18 -0.62 0.32 -0.1 0.18 0.63 0.13 0.6 0.07 0.57 0.01 0.53 -0.03 0.5 -0.09 0.47 -0.14 0.44 -0.18 0.42 -0.23 0.39 -0.26 0.37 -0.31 0.34 -0.33 0.33 -0.37 0.32 -0.4 0.29 -0.42 0.29 -0.45 0.28 -0.47 0.28 -0.48 0.26 -0.51 0.27 -0.52 0.27 -0.53 0.28 -0.54 0.27 -0.55 0.29 -0.56 0.3 -0.56 0.3 -0.55 0.33 -0.56 0.34 -0.56 0.36 -0.54 0.37 -0.54 0.41 -0.53 0.43 -0.51 0.45 0.02 -0.02zm-0.27 -0.2l0.01 -0.01 0.01 -0.01 -0.02 0.02zm-6.68 21.06l0.23 -0.24 -0.07 -0.04 0.94 0.25 0.83 0.13 0.72 0.02 0.61 -0.08 0.53 -0.18 0.44 -0.27 0.37 -0.35 0.3 -0.43 0.25 -0.51 0.18 -0.58 0.14 -0.66 0.1 -0.71 0.05 -0.77 0.02 -0.82 -0.02 -0.86 -0.04 -0.89 -0.05 -0.93 -0.07 -0.94 -0.07 -0.96 -0.07 -0.98 -0.07 -0.97 -0.05 -0.98 -0.04 -0.97 -0.01 -0.95 0.02 -0.93 0.05 -0.91 0.1 -0.87 0.15 -0.84 0.2 -0.79 0.26 -0.74 0.34 -0.69 0.41 -0.62 0.27 0.2 -0.39 0.59 -0.32 0.65 -0.25 0.71 -0.2 0.77 -0.14 0.81 -0.1 0.85 -0.05 0.89 -0.02 0.93 0.01 0.94 0.04 0.96 0.05 0.97 0.07 0.97 0.07 0.97 0.08 0.97 0.06 0.94 0.06 0.93 0.04 0.9 0.01 0.87 -0.02 0.84 -0.05 0.78 -0.1 0.74 -0.14 0.68 -0.2 0.63 -0.27 0.55 -0.34 0.48 -0.42 0.4 -0.5 0.3 -0.59 0.2 -0.68 0.1 -0.76 -0.02 -0.87 -0.14 -0.97 -0.26 -0.06 -0.04zm0.06 0.04l-0.04 -0.01 -0.02 -0.03 0.06 0.04z"/>
  </g>
 </g>
</svg>
