<svg xmlns="http://www.w3.org/2000/svg" width="79" height="66" fill-rule="evenodd" clip-rule="evenodd" image-rendering="optimizeQuality" shape-rendering="geometricPrecision" text-rendering="geometricPrecision" viewBox="0 0 79.29 66.78"><defs><style>.fil2{fill:#f08bb2}.fil0{fill:#c5e3d7}.fil3{fill:#6fa691}.fil1{fill:#2b2a29;fill-rule:nonzero}</style></defs><g id="Слой_x0020_1"><path d="M66.52 32.98c10.74-3.97 8.05-11.73 1.25-16.53-1.8-1.57-.79-4.16.93-4.1 11.77 4.76 15.94 21.28-.22 27.22-1.4-1.87-2.28-4.04-1.96-6.59z" class="fil0"/><path id="1" d="M67.65 16.58l.23-.26-.02-.01.63.46.61.48.58.49.55.51.51.52.49.54.45.54.41.55.38.56.33.57.3.57.25.58.21.58.16.59.11.58.06.59.01.58-.05.58-.1.58-.16.57-.22.56-.28.55-.35.54-.41.53-.47.51-.54.5-.61.49-.68.46-.75.45-.83.43-.89.41-.98.38-.12-.32.96-.38.88-.4.81-.42.74-.44.66-.45.59-.47.52-.48.45-.49.39-.51.33-.51.27-.52.21-.53.15-.54.1-.54.04-.55-.01-.55-.06-.56-.1-.56-.16-.55-.19-.56-.25-.56-.28-.56-.33-.55-.37-.54-.4-.54-.44-.53-.48-.52-.5-.51-.54-.5-.57-.49-.59-.47-.62-.45-.02-.01zm.02.01l-.01-.01h-.01l.02.01zm1.1-4.4l-.13.32.06.01h-.15l-.13.02-.14.02-.13.04-.12.05-.12.07-.12.07-.1.08-.11.1-.09.1-.09.11-.08.12-.07.12-.07.13-.05.14-.05.14-.04.15-.03.15-.01.16-.01.16v.16l.02.16.03.16.04.16.05.16.06.16.08.16.09.16.11.15.12.15.14.15.15.14-.23.26-.16-.16-.16-.16-.13-.17-.12-.18-.11-.18-.09-.18-.07-.18-.06-.19-.05-.18-.03-.19-.02-.18v-.18l.01-.19.02-.17.03-.18.04-.17.05-.17.07-.16.08-.15.08-.15.1-.13.1-.14.12-.12.12-.11.13-.1.14-.09.14-.08.16-.06.16-.05.16-.03.17-.02h.18l.06.01zm-.06-.01h.03l.03.01-.06-.01zm-.37 27.49l.27-.2-.19-.06 1.44-.59 1.33-.63 1.22-.7 1.1-.74.99-.78.89-.83.78-.86.68-.9.58-.92.48-.95.38-.96.3-.99.21-1 .11-1 .04-1.01-.06-1.02-.13-1.01-.21-1-.28-.99-.36-.98-.43-.95-.51-.94-.57-.9-.63-.88-.7-.84-.75-.8-.82-.75-.87-.71-.92-.66-.98-.6-1.02-.54-1.07-.47.13-.32 1.09.48 1.04.56 1 .61.94.67.89.72.83.77.77.82.71.85.65.89.58.93.51.96.44.97.37 1 .29 1.02.22 1.03.13 1.03.06 1.04-.04 1.04-.12 1.04-.21 1.03-.3 1.01-.4.99-.5.98-.59.95-.7.92-.8.88-.91.85-1.01.8-1.12.75-1.24.71-1.35.65-1.47.59-.19-.06zm.19.06l-.12.04-.07-.1.19.06zm-2.07-6.91l.12.32.11-.14-.03.24-.01.23-.02.23-.01.22v.23l.01.22.02.22.01.22.03.21.03.22.03.21.05.21.04.2.06.21.05.2.07.21.06.2.08.19.07.2.09.2.08.19.09.19.1.19.1.19.1.18.11.19.11.18.11.18.12.18.12.18.13.17.12.18-.27.2-.13-.18-.13-.18-.12-.18-.12-.19-.12-.18-.12-.19-.11-.19-.1-.19-.1-.2-.1-.19-.1-.2-.09-.2-.08-.2-.08-.2-.08-.21-.07-.21-.06-.21-.06-.21-.06-.22-.05-.21-.04-.22-.04-.22-.03-.23-.03-.22-.02-.23-.01-.23-.01-.23v-.23l.01-.24.01-.24.02-.24.03-.24.11-.14zm-.11.14l.02-.1.09-.04-.11.14z" class="fil1"/><path d="M19.13 34.4c-2.37 11.61-.6 15.29 2.56 16.29 5.86 6.38 26.38 8.24 42.04 1.3 1.08-3.35 3.99-3.55 4.47-6.48 1.92-11.68-3.94-21.96-20.92-17.1-3.94-.27-11.41-4.14-10.67-5.72-5.83 3.91-11.66 7.81-17.48 11.71z" class="fil0"/><path id="1" d="M21.81 50.57l-.25.23.08.05-.31-.11-.29-.12-.28-.14-.28-.16-.26-.18-.26-.2-.24-.23-.23-.25-.21-.27-.21-.29-.19-.33-.17-.34-.16-.38-.14-.4-.13-.43-.11-.46-.1-.49-.07-.52-.06-.56-.05-.59-.02-.62v-.66l.01-.69.03-.73.06-.78.07-.81.1-.85.12-.89.14-.93.16-.98.19-1.02.21-1.07.33.07-.2 1.06-.19 1.02-.16.97-.14.93-.12.88-.09.85-.08.8-.05.76-.04.73-.01.68v.65l.02.61.05.58.06.54.07.51.09.48.11.44.12.42.14.38.15.36.16.32.18.3.19.28.2.25.21.23.23.21.23.19.24.16.26.15.26.13.28.12.28.09.07.05zm-.07-.05l.04.02.03.03-.07-.05zm41.83 1.42l.32.11-.09.1-1.49.63-1.51.57-1.53.53-1.55.48-1.57.42-1.57.38-1.59.34-1.58.28-1.59.25-1.58.19-1.58.15-1.56.11-1.55.07-1.53.03-1.51-.02-1.49-.05-1.45-.1-1.43-.13-1.39-.17-1.34-.21-1.31-.24-1.26-.28-1.21-.31-1.16-.35-1.1-.38-1.04-.41-.97-.44-.91-.48-.84-.51-.76-.53-.69-.57-.6-.6.25-.23.58.58.67.55.74.52.82.49.89.47.96.44 1.02.4 1.09.38 1.14.34 1.2.31 1.25.28 1.29.24 1.34.2 1.38.17 1.41.13 1.45.1 1.48.05 1.5.02 1.52-.03 1.54-.07 1.56-.11 1.56-.15 1.57-.19 1.58-.24 1.58-.29 1.57-.33 1.57-.38 1.55-.42 1.54-.47 1.52-.53 1.51-.57 1.47-.62-.09.1zm.32.11l-.02.07-.07.03.09-.1zm4.14-6.56l.34.05-.05.28-.07.26-.08.25-.1.23-.1.22-.12.22-.13.2-.13.19-.14.18-.15.18-.16.17-.16.17-.16.16-.17.16-.17.15-.18.16-.17.16-.17.16-.17.16-.18.16-.17.17-.17.18-.16.18-.16.2-.16.2-.14.21-.15.22-.14.24-.13.24-.12.27-.11.28-.11.3-.32-.11.11-.31.12-.3.13-.28.13-.26.15-.25.15-.23.16-.23.16-.21.17-.2.17-.19.18-.18.17-.18.18-.17.18-.16.17-.17.18-.15.17-.16.17-.15.16-.16.16-.16.15-.15.15-.17.14-.16.13-.17.13-.18.11-.19.11-.19.1-.2.08-.22.08-.23.06-.24.05-.25zM47.27 28.58l.03-.34-.06.01 1.56-.42 1.51-.32 1.43-.25 1.38-.16 1.31-.08 1.26-.01 1.19.07 1.13.14 1.07.21 1.02.28.95.34.9.4.83.47.78.52.73.57.66.63.61.67.55.72.5.77.45.81.39.84.33.88.29.92.23.94.18.97.13 1 .08 1.02.03 1.04-.02 1.06-.06 1.08-.11 1.08-.16 1.1-.34-.05.16-1.09.11-1.07.06-1.06.02-1.04-.03-1.03-.08-1-.13-.98-.18-.96-.22-.92-.28-.89-.33-.86-.38-.83-.43-.78-.48-.75-.54-.7-.59-.65-.65-.61-.7-.56-.75-.5-.82-.45-.87-.4-.93-.33-.99-.27-1.04-.2-1.11-.14-1.17-.07-1.23.01-1.3.08-1.36.16-1.42.24-1.49.33-1.55.41h-.06zm.06 0l-.03.01-.03-.01h.06zM36.7 22.83l-.19-.28.25.22-.03.1v.12l.04.15.07.16.12.18.15.19.19.21.23.21.25.22.29.22.31.23.34.22.36.23.38.23.4.23.41.22.43.22.44.22.45.21.46.2.46.2.47.18.46.18.46.16.47.16.45.14.45.12.43.11.43.09.4.07.4.06.37.03-.03.34-.39-.03-.4-.06-.42-.08-.43-.09-.45-.11-.45-.13-.47-.14-.47-.15-.47-.17-.47-.18-.47-.19-.47-.19-.46-.21-.46-.21-.44-.22-.44-.23-.42-.22-.4-.23-.39-.24-.37-.23-.35-.24-.32-.23-.29-.23-.27-.23-.24-.22-.21-.22-.17-.22-.14-.22-.09-.21-.06-.21v-.22l.06-.2.25.21zm-.19-.28l.51-.34-.26.56-.25-.22zM19.29 34.44l-.33-.07.07-.11.55-.37.54-.36.55-.37.55-.36.54-.37.55-.36.55-.37.54-.37.55-.36.55-.37.54-.36.55-.37.54-.37.55-.36.55-.37.54-.36.55-.37.55-.37.54-.36.55-.37.54-.36.55-.37.55-.37.54-.36.55-.37.55-.36.54-.37.55-.36.55-.37.54-.37.55-.36.54-.37.19.28-.54.37-.55.37-.54.36-.55.37-.55.36-.54.37-.55.37-.55.36-.54.37-.55.36-.55.37-.54.37-.55.36-.54.37-.55.36-.55.37-.54.37-.55.36-.55.37-.54.36-.55.37-.54.37-.55.36-.55.37-.54.36-.55.37-.55.36-.54.37-.55.37-.55.36-.54.37-.55.36.07-.1zm-.33-.07l.01-.07.06-.04-.07.11z" class="fil1"/><path d="M53.13 55.3c3.63-.72 7.23-1.81 10.6-3.31 1.08-3.35 3.99-3.55 4.47-6.48 1.66-10.08-2.47-19.37-14.55-18.53-2.18.42-4.07-.68-6.14.09-.58.26-.94.7-1.02 1.22-.38 2.12 6.28 3.28.63 12.19-1.45 2.29-.57 4.21 1.32 5.98 3.29 3.19 4.84 6.13 4.69 8.84z" class="fil2"/><path id="1" d="M63.57 51.94l.32.11-.09.1-.32.14-.32.14-.32.13-.32.13-.32.13-.33.13-.32.13-.33.12-.33.12-.33.12-.33.11-.33.12-.33.11-.33.11-.33.1-.34.11-.33.1-.34.1-.33.1-.34.09-.33.1-.34.09-.34.09-.34.08-.34.09-.34.08-.34.08-.34.08-.34.07-.34.07-.34.07-.34.07-.07-.33.34-.07.34-.07.34-.07.34-.08.34-.08.33-.07.34-.09.34-.08.33-.09.34-.08.34-.09.33-.1.34-.09.33-.1.33-.1.33-.1.34-.1.33-.11.33-.11.32-.11.33-.11.33-.11.33-.12.32-.12.32-.12.33-.13.32-.12.32-.13.32-.13.32-.14.32-.13.31-.14-.09.1zm.32.11l-.02.07-.07.03.09-.1zm4.14-6.56l.34.05-.05.28-.07.26-.08.25-.1.23-.1.22-.12.22-.13.2-.13.19-.14.18-.15.18-.16.17-.16.17-.16.16-.17.16-.17.15-.18.16-.17.16-.17.16-.17.16-.18.16-.17.17-.17.18-.16.18-.16.2-.16.2-.14.21-.15.22-.14.24-.13.24-.12.27-.11.28-.11.3-.32-.11.11-.31.12-.3.13-.28.13-.26.15-.25.15-.23.16-.23.16-.21.17-.2.17-.19.18-.18.17-.18.18-.17.18-.16.17-.17.18-.15.17-.16.17-.15.16-.16.16-.16.15-.15.15-.17.14-.16.13-.17.13-.18.11-.19.11-.19.1-.2.08-.22.08-.23.06-.24.05-.25zM53.68 27.15l-.06-.34h.02l1.11-.05 1.08.01 1.02.06.99.12.93.17.9.23.85.27.8.33.76.36.72.42.68.46.63.49.59.54.55.58.5.61.47.64.42.68.39.71.34.73.3.77.27.78.22.81.19.84.15.85.11.87.07.88.04.91v.91l-.04.92-.07.94-.1.94-.14.95-.34-.05.14-.94.1-.93.07-.92.04-.92v-.9l-.04-.88-.07-.88-.11-.85-.15-.84-.18-.81-.22-.8-.26-.77-.3-.74-.33-.72-.37-.69-.41-.66-.45-.62-.5-.6-.53-.56-.57-.52-.61-.48-.66-.44-.7-.4-.74-.36-.78-.32-.83-.26-.87-.22-.92-.17-.96-.12-1-.06-1.06-.01-1.1.05h.02zm-.06-.34h.02-.02zm-6.04.41l-.15-.31h.02l.2-.07.2-.06.2-.05.19-.04.2-.03.2-.02.19-.01.2-.01h.39l.19.01.19.01.19.02.19.02.19.02.19.03.19.02.19.02.19.03.18.02.19.02.19.02.19.02.19.01.19.01.19.01h.19l.2-.01.19-.01.19-.02.2-.02.2-.04.06.34-.21.03-.21.03-.2.02-.21.01-.2.01h-.2l-.2-.01-.2-.01-.2-.01-.19-.02-.19-.02-.2-.02-.19-.02-.19-.03-.19-.02-.18-.03-.19-.02-.19-.02-.18-.02-.19-.01-.18-.02-.19-.01h-.36l-.19.01-.18.01-.18.02-.19.03-.18.04-.19.04-.18.05-.19.07.02-.01zm-.15-.31h.02-.02zm-.77 1.41l-.34-.06.01-.05.01-.05.01-.06.02-.05.01-.05.02-.05.02-.05.03-.05.02-.05.02-.05.03-.05.03-.05.03-.04.03-.05.04-.04.03-.05.04-.04.03-.04.05-.04.04-.04.04-.04.04-.04.05-.03.04-.04.05-.04.05-.03.05-.03.05-.03.06-.03.05-.03.06-.03.05-.03.15.31-.05.03-.05.02-.05.03-.04.02-.05.03-.04.03-.04.02-.04.03-.04.03-.04.03-.04.04-.03.03-.03.03-.04.03-.03.04-.03.03-.03.04-.02.03-.03.04-.02.04-.03.03-.02.04-.02.04-.02.04-.01.04-.02.04-.01.04-.02.04-.01.04-.01.04-.01.04v.05zm0-.01v.01-.03.02zm.61 12.26l-.29-.18v-.01l.49-.8.42-.76.36-.72.29-.68.24-.64.19-.6.13-.56.09-.53.04-.49v-.46l-.03-.44-.06-.4-.09-.38-.12-.35-.14-.34-.16-.31-.17-.29-.18-.28-.2-.26-.2-.25-.2-.24-.2-.22-.2-.22-.19-.21-.17-.21-.17-.2-.14-.2-.12-.2-.1-.21-.06-.22-.03-.22.02-.23.34.06-.02.16.02.16.05.17.08.17.11.17.13.18.15.19.17.2.19.21.19.22.21.23.2.24.21.26.2.27.2.29.18.32.17.33.15.36.13.38.09.4.07.44.03.46v.49l-.05.52-.09.55-.14.58-.19.62-.24.66-.3.69-.37.74-.43.77-.49.82zm-.29-.18v-.01l.12-.19-.12.2zm1.58 5.95l-.24.24v.01l-.18-.17-.17-.17-.16-.17-.16-.18-.15-.17-.14-.17-.14-.18-.13-.18-.12-.18-.11-.18-.11-.18-.09-.19-.09-.19-.08-.18-.07-.2-.05-.19-.05-.19-.04-.2-.03-.2-.02-.2v-.2l.01-.2.01-.21.03-.21.04-.21.06-.21.07-.21.08-.21.09-.22.11-.22.12-.21.13-.22.29.18-.13.21-.11.2-.1.2-.09.2-.07.2-.06.2-.05.19-.04.19-.03.19-.01.18-.01.19v.18l.02.18.03.18.03.18.04.18.06.18.06.17.07.18.08.17.09.17.1.17.11.17.11.18.13.16.13.17.13.17.15.17.15.16.16.17.16.16.17.17h.01zm-.01 0v-.01l.01.01h-.01zm4.54 8.79l.07.33-.2-.17v-.5l-.01-.25-.02-.25-.03-.26-.04-.25-.05-.26-.05-.26-.07-.26-.08-.26-.09-.26-.1-.27-.11-.26-.12-.27-.13-.27-.14-.27-.15-.27-.15-.28-.17-.28-.18-.27-.19-.28-.2-.28-.21-.28-.22-.29-.23-.29-.24-.28-.25-.29-.26-.29-.27-.29-.29-.3-.29-.29-.3-.3.24-.24.3.3.3.3.28.29.28.3.26.29.26.3.24.29.23.29.23.29.21.29.21.28.19.29.19.28.17.29.16.28.16.28.14.28.13.28.13.27.11.28.1.27.09.28.08.27.08.27.06.27.05.27.04.27.03.26.02.27.01.26.01.26-.01.27-.21-.18zm.07.33l-.22.05.02-.22.2.17z" class="fil1"/><path d="M7.31 62.96c3.36 2.19 6.28 2.92 9.2 3.64 5.04-.02 5.73-1.43 4.58-3.43-4.72-1.41-9.44-2.83-14.16-4.25.02 1.15.13 2.46.38 4.04z" class="fil3"/><path id="1" d="M16.51 66.43v.35l-.04-.01-.27-.07-.28-.07-.27-.06-.28-.07-.27-.08-.28-.07-.27-.07-.28-.08-.28-.08-.28-.08-.28-.08-.28-.09-.28-.09-.28-.09-.29-.1-.28-.1-.29-.1-.29-.11-.29-.12-.29-.12-.29-.13-.3-.13-.29-.13-.3-.15-.3-.15-.3-.15-.31-.17-.31-.17-.3-.18-.32-.19-.31-.19-.31-.2.18-.29.31.2.31.19.31.19.3.17.31.17.3.16.29.16.3.15.29.14.29.13.3.13.28.13.29.11.29.12.28.11.28.1.29.1.28.1.28.09.27.09.28.08.28.09.28.07.27.08.28.08.27.07.27.07.28.07.27.07.28.07.27.07.27.07-.04-.01zm0 .35h-.02l-.02-.01.04.01zm4.53-3.44l.1-.33.1.08.1.19.09.19.09.18.07.19.06.18.04.17.03.18.02.17v.17l-.02.17-.04.16-.05.15-.07.15-.09.15-.11.13-.13.13-.14.12-.16.12-.19.1-.19.1-.22.09-.24.08-.26.08-.28.06-.3.07-.32.05-.35.04-.36.04-.39.03-.42.02-.43.02-.47.01v-.35h.46l.43-.02.41-.02.38-.03.35-.04.34-.04.31-.05.29-.06.26-.06.24-.07.22-.08.21-.08.17-.09.16-.09.14-.1.12-.1.11-.1.08-.11.07-.11.05-.12.04-.11.03-.13.01-.13v-.13l-.01-.15-.02-.15-.04-.15-.05-.16-.07-.17-.07-.17-.09-.17-.1-.18.1.08zm.1-.33l.06.02.04.06-.1-.08zM7.1 58.92l-.34.01.22-.17.44.13.44.14.44.13.45.13.44.14.44.13.44.13.45.13.44.14.44.13.44.13.45.14.44.13.44.13.44.13.45.14.44.13.44.13.44.13.45.14.44.13.44.13.44.14.45.13.44.13.44.13.44.14.45.13.44.13.44.13.44.14.45.13-.1.33-.44-.14-.45-.13-.44-.13-.44-.13-.44-.14-.45-.13-.44-.13-.44-.14-.44-.13-.45-.13-.44-.13-.44-.14-.44-.13-.45-.13-.44-.13-.44-.14-.44-.13-.45-.13-.44-.14-.44-.13-.44-.13-.45-.13-.44-.14-.44-.13-.44-.13-.45-.14-.44-.13-.44-.13-.44-.13-.45-.14-.44-.13-.44-.13.22-.17zm-.34.01l-.01-.24.23.07-.22.17zm.64 3.88l-.18.29-.08-.12-.02-.15-.02-.14-.03-.15-.02-.14-.02-.14-.01-.14-.02-.14-.02-.14-.02-.14-.01-.13-.02-.13-.01-.13-.02-.14-.01-.12-.01-.13-.01-.13-.02-.12-.01-.13-.01-.12-.01-.12v-.12l-.01-.12-.01-.12-.01-.11v-.12l-.01-.11v-.12l-.01-.11v-.11l-.01-.11v-.22l.34-.01v.22l.01.11v.1l.01.12v.11l.01.11v.12l.01.11.01.12.01.12.01.11v.12l.01.12.02.13.01.12.01.13.01.12.01.13.02.13.01.13.02.13.01.13.02.14.02.14.01.13.02.14.02.14.02.14.02.15.02.14.03.15-.08-.12zm-.18.29l-.07-.04-.01-.08.08.12z" class="fil1"/><path d="M6.93 58.58c5.59 6.35 10.02 8.22 13.72 7.3 3.85-3.63 3.67-8.68 5.5-13.01 2.64-6.01 7.99-6.41 12.31-9.7 5.06-3.23 1.38-13.82-7.13-10.4-3.43 1.85-5.01 9.09-10.13 11.6-8.11 3.65-11.98 8.67-14.27 14.21z" class="fil0"/><path id="1" d="M20.53 65.76l.24.25-.08.04-.35.08-.37.06-.36.04-.37.03-.38.01-.38-.01-.38-.02-.39-.05-.4-.07-.4-.08-.4-.1-.41-.13-.41-.14-.42-.17-.42-.19-.43-.2-.43-.23-.44-.25-.45-.27-.44-.29-.46-.32-.46-.34-.47-.36-.47-.39-.48-.41-.48-.43-.49-.46-.5-.48-.5-.51-.51-.53-.52-.56-.52-.58.25-.23.52.58.52.55.5.53.5.51.49.47.49.46.48.43.47.4.47.38.46.36.45.33.45.31.44.29.43.27.43.24.42.22.42.21.41.18.41.16.4.14.39.12.39.1.39.08.37.06.38.04.37.03.36.01.36-.01.35-.03.35-.04.35-.06.34-.07-.08.04zm.24.25l-.04.03-.04.01.08-.04zM26 52.8l.31.13-.17.41-.15.4-.14.42-.14.41-.13.42-.12.42-.12.43-.11.42-.12.43-.11.43-.1.43-.11.43-.12.42-.11.43-.12.43-.12.43-.13.42-.13.43-.15.42-.15.41-.17.42-.17.41-.19.4-.2.41-.22.39-.23.4-.26.38-.27.38-.28.37-.32.37-.33.36-.35.35-.24-.25.35-.34.32-.35.3-.35.28-.36.26-.37.25-.38.22-.38.22-.38.19-.39.19-.4.17-.4.16-.41.15-.41.14-.41.14-.42.12-.42.13-.42.11-.43.11-.42.11-.43.11-.43.11-.43.11-.43.12-.43.11-.42.12-.43.12-.43.13-.42.14-.42.15-.42.16-.42.16-.41H26zm-.01 0H26l-.02.04.01-.04zm12.38-9.77l.18.28h.02l-.42.3-.42.29-.42.27-.42.26-.43.25-.43.24-.43.23-.44.23-.43.22-.43.22-.43.21-.43.22-.43.22-.42.22-.42.22-.41.23-.41.24-.4.25-.4.26-.39.27-.38.29-.37.3-.36.31-.35.34-.34.35-.33.38-.32.4-.31.43-.29.45-.28.47-.27.51-.25.54-.31-.13.25-.56.28-.52.29-.49.3-.47.32-.44.32-.41.35-.39.35-.36.36-.35.37-.32.38-.31.39-.3.4-.27.4-.27.41-.25.42-.24.42-.24.42-.22.43-.22.43-.22.43-.22.43-.22.43-.22.43-.21.43-.23.42-.23.43-.24.42-.24.42-.26.41-.27.41-.28.41-.29.01-.01zm-.01.01v-.01h.01l-.01.01zm-6.95-10.12l-.17-.3.02-.01.8-.28.77-.21.74-.13.71-.06.68.01.65.08.61.13.59.19.54.24.52.29.47.34.44.37.4.41.36.44.32.47.28.5.24.51.19.53.16.54.11.55.07.55.02.56-.02.55-.06.54-.12.53-.16.52-.21.49-.26.48-.31.44-.36.41-.41.38-.47.33-.18-.28.43-.32.39-.35.33-.38.29-.41.24-.45.2-.46.15-.49.11-.5.06-.51.02-.52-.02-.53-.07-.52-.1-.53-.15-.51-.19-.51-.23-.48-.26-.47-.31-.45-.34-.42-.38-.39-.41-.35-.45-.32-.48-.27-.52-.23-.54-.18-.59-.13-.61-.07-.65-.01-.68.06-.71.12-.74.2-.77.28.02-.01zm-.17-.3l.01-.01h.01l-.02.01zm-9.97 11.91l-.14-.32-.01.01.46-.25.44-.27.43-.29.4-.32.39-.33.38-.36.36-.37.35-.38.33-.4.33-.41.31-.42.31-.43.29-.44.29-.43.28-.45.28-.44.27-.44.27-.43.26-.43.27-.43.26-.41.27-.41.26-.39.27-.38.27-.36.27-.35.29-.32.29-.3.29-.28.31-.26.32-.22.32-.2.17.3-.31.18-.29.21-.29.24-.28.27-.28.29-.27.31-.27.34-.27.35-.26.37-.26.39-.26.4-.26.41-.26.42-.27.44-.27.43-.27.44-.28.45-.28.44-.29.44-.3.44-.31.44-.32.42-.33.42-.34.41-.36.4-.37.38-.39.36-.4.35-.42.33-.44.3-.46.28-.48.25v.01zm0-.01v.01-.01zM7.05 58.47l-.25.23-.03-.18.22-.52.23-.52.24-.51.25-.52.27-.5.27-.51.29-.5.3-.49.31-.49.33-.49.34-.48.36-.48.37-.47.39-.47.4-.46.42-.46.43-.45.46-.45.47-.43.49-.44.51-.43.53-.42.55-.41.57-.41.59-.4.62-.39.63-.39.66-.38.68-.37.7-.36.73-.36.75-.35.14.32-.75.34-.72.35-.69.36-.68.37-.65.37-.62.39-.61.39-.58.39-.56.4-.55.41-.52.42-.5.42-.49.43-.47.43-.44.44-.43.45-.42.45-.4.45-.38.46-.36.47-.35.47-.34.47-.32.48-.31.49-.3.49-.28.49-.27.5-.26.5-.25.5-.24.51-.23.51-.22.52-.03-.18zm-.25.23l-.07-.08.04-.1.03.18z" class="fil1"/><path d="M6.93 58.58c5.59 6.35 10.02 8.22 13.72 7.3.66-.62 1.2-1.28 1.65-1.97-5.32-.67-8.76-6.88-9.66-13.91-2.69 2.61-4.44 5.52-5.71 8.58z" class="fil2"/><path id="1" d="M20.53 65.76l.24.25-.08.04-.35.08-.37.06-.36.04-.37.03-.38.01-.38-.01-.38-.02-.39-.05-.4-.07-.4-.08-.4-.1-.41-.13-.41-.14-.42-.17-.42-.19-.43-.2-.43-.23-.44-.25-.45-.27-.44-.29-.46-.32-.46-.34-.47-.36-.47-.39-.48-.41-.48-.43-.49-.46-.5-.48-.5-.51-.51-.53-.52-.56-.52-.58.25-.23.52.58.52.55.5.53.5.51.49.47.49.46.48.43.47.4.47.38.46.36.45.33.45.31.44.29.43.27.43.24.42.22.42.21.41.18.41.16.4.14.39.12.39.1.39.08.37.06.38.04.37.03.36.01.36-.01.35-.03.35-.04.35-.06.34-.07-.08.04zm.24.25l-.04.03-.04.01.08-.04zm1.51-1.93l.04-.34.12.26-.04.07-.05.07-.04.06-.04.07-.05.06-.05.07-.04.06-.05.06-.05.07-.05.06-.04.07-.05.06-.05.06-.05.07-.05.06-.06.06-.05.06-.05.07-.06.06-.05.06-.05.06-.06.06-.06.07-.05.06-.06.06-.06.06-.06.06-.06.06-.06.06-.06.06-.06.06-.06.06-.24-.25.06-.06.06-.06.06-.05.06-.06.06-.06.06-.06.05-.06.06-.06.05-.06.06-.05.05-.06.05-.06.06-.06.05-.06.05-.06.05-.07.05-.06.05-.06.05-.06.05-.06.05-.06.04-.06.05-.07.04-.06.05-.06.05-.06.04-.07.04-.06.05-.06.04-.06.04-.07.05-.06.12.26zm.04-.34l.27.04-.15.22-.12-.26zm-9.56-13.62l-.24-.24.29.1.09.65.11.65.12.64.13.63.15.63.17.61.17.61.19.59.21.58.22.57.23.56.25.54.25.53.28.51.28.49.3.48.31.45.32.44.33.42.35.39.36.37.37.36.38.32.39.3.41.28.41.25.43.22.44.2.45.17.46.14.47.1.48.08-.04.34-.51-.08-.49-.11-.48-.15-.47-.17-.46-.21-.44-.23-.44-.26-.42-.29-.4-.31-.4-.34-.38-.36-.37-.39-.36-.4-.34-.43-.33-.45-.32-.47-.3-.48-.29-.51-.28-.52-.26-.53-.25-.56-.24-.56-.22-.58-.21-.59-.19-.6-.18-.62-.17-.62-.15-.63-.14-.65-.12-.64-.11-.66-.09-.66.29.1zm-.24-.24l.25-.24.04.34-.29-.1zm-5.47 8.59l-.25.23-.03-.18.12-.29.13-.29.12-.28.13-.29.14-.29.13-.28.14-.28.15-.28.14-.28.15-.28.16-.28.16-.28.16-.27.16-.28.17-.27.18-.27.18-.28.18-.26.19-.27.19-.27.19-.26.2-.27.21-.26.21-.26.21-.26.22-.25.23-.26.23-.25.23-.26.24-.25.25-.24.25-.25.24.24-.25.25-.24.24-.24.25-.23.25-.23.25-.22.25-.21.25-.22.26-.2.25-.21.26-.19.26-.2.26-.19.27-.18.26-.18.27-.18.26-.17.27-.17.27-.16.27-.16.27-.15.28-.16.27-.15.28-.14.27-.14.28-.14.28-.14.28-.13.28-.13.28-.12.29-.13.28-.12.29-.03-.18zm-.25.23l-.07-.08.04-.1.03.18z" class="fil1"/><path d="M34.83 33.74c2.39 0 4.34 1.88 4.34 4.2 0 2.32-1.95 4.2-4.34 4.2-2.4 0-4.35-1.88-4.35-4.2 0-2.32 1.95-4.2 4.35-4.2z" class="fil2"/><path id="1" d="M39.34 37.94H39l-.01-.21-.01-.2-.03-.21-.04-.19-.04-.2-.06-.19-.06-.19-.08-.18-.08-.18-.09-.17-.1-.17-.11-.16-.12-.16-.12-.15-.13-.15-.14-.14-.15-.13-.15-.13-.16-.12-.16-.11-.17-.11-.17-.09-.18-.09-.19-.08-.19-.08-.19-.06-.2-.05-.2-.05-.21-.03-.21-.03-.21-.02h-.21v-.34h.23l.23.02.22.03.22.04.22.04.22.06.21.07.2.08.2.09.19.09.19.11.19.11.17.12.17.13.17.14.15.15.15.15.15.16.13.16.13.17.11.18.11.18.1.19.09.19.09.2.07.21.06.2.05.21.04.22.03.22.01.22.01.23zm-4.51 4.37v-.34l.21-.01.21-.01.21-.03.21-.04.2-.04.2-.06.19-.06.19-.07.19-.08.18-.09.17-.1.17-.1.16-.12.16-.12.15-.12.15-.14.14-.14.13-.14.12-.15.12-.16.11-.17.1-.16.09-.18.08-.18.08-.18.06-.19.06-.19.04-.19.04-.2.03-.2.01-.21.01-.2h.34l-.01.22-.01.22-.03.22-.04.22-.05.21-.06.21-.07.2-.09.2-.09.19-.1.19-.11.19-.11.17-.13.18-.13.16-.15.16-.15.15-.15.14-.17.14-.17.13-.17.12-.19.12-.19.1-.19.1-.2.09-.2.07-.21.07-.22.06-.22.05-.22.04-.22.03-.23.01-.23.01zm-4.52-4.37h.34l.01.2.01.21.03.2.04.2.04.19.06.19.06.19.08.18.08.18.09.18.1.16.11.17.12.16.12.15.13.14.14.14.15.14.15.12.16.12.16.12.17.1.17.1.18.09.19.08.19.07.19.06.2.06.2.04.21.04.21.03.21.01.22.01v.34l-.24-.01-.23-.01-.22-.03-.22-.04-.22-.05-.22-.06-.21-.07-.2-.07-.2-.09-.2-.1-.18-.1-.19-.12-.17-.12-.18-.13-.16-.14-.16-.14-.14-.15-.15-.16-.13-.16-.13-.18-.12-.17-.1-.19-.1-.19-.09-.19-.09-.2-.07-.2-.06-.21-.05-.21-.04-.22-.03-.22-.01-.22-.01-.22zm4.52-4.37v.34h-.22l-.21.02-.21.03-.21.03-.2.05-.2.05-.19.06-.19.08-.19.08-.18.09-.17.09-.17.11-.16.11-.16.12-.15.13-.15.13-.14.14-.13.15-.12.15-.12.16-.11.16-.1.17-.09.17-.08.18-.08.18-.06.19-.06.19-.04.2-.04.19-.03.21-.01.2-.01.21h-.34l.01-.23.01-.22.03-.22.04-.22.05-.21.06-.2.07-.21.09-.2.09-.19.1-.19.1-.18.12-.18.13-.17.13-.16.15-.16.14-.15.16-.15.16-.14.18-.13.17-.12.19-.11.18-.11.2-.09.2-.09.2-.08.21-.07.22-.06.22-.04.22-.04.22-.03.23-.02h.24z" class="fil1"/><path d="M57.29 65.85c3.96.66 6.93.15 9.9-.37 3.35-1.49-.98-2.3-2.84-3.67-4.89.61-5.91-.17-8.62 1.84.48 1.03.7.85 1.56 2.2z" class="fil3"/><path id="1" d="M67.12 65.33l.14.31-.04.01-.28.05-.28.05-.28.04-.28.05-.28.05-.28.04-.28.05-.29.04-.28.04-.29.04-.29.03-.29.04-.3.03-.29.03-.3.02-.3.03-.31.02-.31.01-.31.01-.32.01h-.64l-.32-.01-.33-.01-.34-.01-.34-.03-.34-.02-.35-.04-.36-.04-.36-.04-.36-.05-.37-.06.05-.34.37.06.36.05.35.05.35.04.35.03.33.02.34.03.33.01.33.01.32.01h.63l.31-.01.31-.01.3-.02.3-.01.3-.03.3-.02.29-.03.29-.03.29-.03.28-.04.29-.04.28-.04.29-.04.28-.04.28-.05.27-.04.28-.05.28-.05.28-.05.28-.04-.04.01zm.14.31l-.02.01h-.02l.04-.01zm-2.88-3.66l-.05-.33.13.03.17.12.19.12.2.12.21.11.21.12.23.11.23.11.23.11.22.11.23.1.23.11.22.11.21.1.2.11.19.11.19.11.16.11.15.11.14.12.11.12.1.13.07.14.04.15v.15l-.04.16-.08.15-.11.15-.14.13-.19.14-.22.14-.25.14-.3.14-.14-.31.28-.14.24-.13.2-.12.16-.12.11-.11.08-.09.04-.09.02-.08v-.07l-.02-.07-.04-.08-.07-.09-.09-.1-.11-.09-.13-.1-.16-.1-.16-.11-.19-.1-.2-.1-.2-.11-.22-.1-.22-.11-.23-.1-.23-.11-.23-.11-.23-.12-.23-.11-.22-.12-.22-.12-.21-.12-.2-.13-.19-.13.13.03zm-.05-.33l.07-.01.06.04-.13-.03zm-8.45 1.93l-.31.14.05-.21.26-.18.24-.17.24-.15.23-.14.23-.13.22-.11.21-.1.22-.09.21-.08.22-.07.21-.06.21-.05.22-.05.22-.03.22-.04.23-.02.23-.03.24-.02.25-.01.25-.02.27-.01.28-.02.29-.01.3-.02.31-.01.33-.02.35-.03.37-.03.38-.03.4-.04.43-.04.44-.05.05.33-.45.06-.43.04-.41.04-.38.03-.37.03-.35.03-.34.02-.31.01-.31.02-.29.01-.27.02-.27.01-.25.02-.25.01-.23.02-.22.03-.22.02-.22.03-.21.04-.2.04-.2.05-.2.06-.2.06-.2.08-.21.08-.2.1-.21.11-.22.12-.22.13-.23.15-.24.16-.24.18.05-.21zm-.31.14l-.06-.13.11-.08-.05.21zm1.75 1.96l-.05.34-.12-.08-.08-.12-.07-.11-.07-.1-.07-.1-.06-.09-.07-.08-.06-.08-.05-.07-.05-.07-.05-.06-.05-.06-.05-.05-.05-.05-.04-.06-.05-.05-.04-.04-.04-.05-.04-.05-.04-.05-.04-.05-.04-.05-.05-.05-.04-.06-.04-.05-.04-.06-.04-.07-.04-.07-.04-.07-.04-.08-.05-.08-.04-.09-.05-.1.31-.14.04.09.05.08.04.08.04.07.04.07.03.06.04.06.03.05.04.06.04.05.03.04.04.05.04.04.04.05.04.05.04.04.04.05.04.05.05.05.05.06.04.05.06.06.05.07.06.07.06.08.06.07.06.09.07.09.07.1.07.11.08.12.08.12-.12-.08zm-.05.34l-.08-.01-.04-.07.12.08z" class="fil1"/><g><path d="M55.73 63.65c.81-2.86 1.11-5.92 4.95-7.57.71-.41.85-.93.11-1.63-4.64-1.62-6.38-5.72-7.95-9.97-1.73-9.72 6.57-13.16 12.63-9.75 6.51 3.87 8 10.58 4.2 20.26.29 3.31.25 6.58-.77 9.75-.81 1.66-7.65-.09-13.17-1.09z" class="fil0"/><path id="1" d="M60.6 55.93l.17.3-.02.01-.34.15-.33.16-.3.17-.29.18-.26.19-.26.19-.23.19-.22.21-.2.21-.19.21-.18.22-.17.22-.15.23-.15.24-.13.23-.13.25-.12.24-.1.25-.1.25-.1.26-.09.26-.08.26-.09.26-.07.27-.08.27-.07.26-.07.27-.07.27-.07.27-.07.27-.07.28-.08.27-.33-.1.08-.26.07-.27.07-.27.07-.27.07-.27.07-.27.07-.27.08-.27.08-.27.08-.27.09-.27.09-.27.1-.26.1-.26.12-.26.12-.26.13-.25.14-.25.15-.24.16-.24.18-.24.19-.23.2-.23.21-.22.24-.21.24-.21.27-.2.28-.19.29-.19.32-.18.34-.17.35-.16-.01.01zm.17.3h-.01l-.01.01.02-.01zm-.04-1.62l.12-.33.06.04.07.07.06.07.06.07.06.06.05.07.05.07.04.06.04.07.03.07.03.06.02.07.02.07.01.06v.2l-.01.07-.02.06-.02.06-.02.06-.03.06-.04.05-.04.06-.04.05-.05.05-.04.05-.06.05-.06.04-.05.05-.07.04-.06.04-.07.05-.17-.3.06-.04.05-.03.06-.04.05-.04.04-.03.04-.04.04-.04.03-.03.03-.04.03-.04.02-.03.02-.04.01-.03.02-.04.01-.03V55.24l-.01-.04-.01-.04-.01-.05-.02-.05-.02-.04-.03-.05-.03-.05-.04-.06-.05-.05-.04-.06-.05-.06-.06-.06-.07-.06.06.04zm.12-.33l.03.02.03.02-.06-.04zm-8.18-9.77l.34-.06-.01-.03.15.4.14.39.16.4.15.39.16.39.15.38.17.38.17.38.17.37.18.37.18.37.19.35.2.35.2.35.21.33.22.33.23.32.24.32.25.3.25.3.27.28.28.28.29.27.31.25.31.25.33.23.35.22.35.21.37.19.39.19.41.17.42.15-.12.33-.43-.16-.42-.18-.4-.19-.38-.2-.37-.22-.36-.23-.34-.24-.33-.25-.31-.27-.3-.27-.29-.29-.28-.29-.26-.31-.26-.31-.24-.32-.24-.33-.22-.34-.22-.35-.21-.35-.2-.35-.19-.37-.19-.37-.18-.37-.17-.38-.17-.38-.17-.39-.16-.38-.16-.4-.15-.39-.15-.4-.15-.39-.15-.4-.01-.03zm.01.03l-.01-.02v-.01l.01.03zm12.88-9.96l-.17.3-.56-.3-.58-.25-.58-.22-.6-.18-.59-.13-.59-.1-.6-.06-.59-.02-.59.02-.58.05-.57.09-.56.14-.54.17-.53.21-.51.24-.5.28-.46.33-.45.35-.41.4-.39.43-.36.47-.32.51-.29.54-.25.59-.21.62-.17.65-.12.7-.08.73-.03.77.02.81.07.85.14.88-.34.06-.13-.9-.08-.87-.02-.83.03-.79.08-.76.13-.72.17-.68.22-.65.26-.6.31-.57.33-.53.38-.49.4-.46.44-.41.46-.38.49-.33.52-.3.53-.26.55-.21.57-.18.58-.14.6-.1.6-.06.61-.01.61.02.62.06.62.1.61.15.61.18.61.22.59.27.59.3zm0 0h-.01.01zm4.28 20.39l-.34.04.01-.08.34-.9.31-.88.28-.86.24-.84.22-.82.18-.81.16-.79.12-.77.1-.75.06-.74.03-.72.01-.7-.03-.69-.06-.66-.08-.65-.12-.63-.15-.62-.17-.6-.21-.58-.23-.56-.27-.55-.29-.53-.32-.51-.36-.5-.38-.48-.41-.46-.44-.45-.47-.44-.5-.41-.53-.4-.56-.39-.59-.36.17-.3.6.38.58.39.54.41.51.43.49.44.45.46.42.48.4.49.36.52.33.53.31.54.27.57.24.58.21.6.18.61.15.64.13.64.08.67.06.68.03.7v.72l-.04.73-.06.75-.1.77-.13.78-.15.8-.19.82-.22.83-.25.85-.28.87-.31.89-.34.9.01-.08zm-.34.04l-.01-.04.02-.04-.01.08zm-.44 9.8l-.31-.15-.01.03.09-.3.09-.29.08-.3.07-.29.08-.3.06-.3.06-.3.06-.29.05-.3.04-.3.04-.3.04-.3.03-.31.03-.3.03-.3.02-.3.01-.31.02-.3.01-.3v-.31l.01-.3v-.31l-.01-.31-.01-.3-.01-.31-.01-.31-.01-.3-.02-.31-.02-.31-.02-.31-.03-.31-.02-.3.34-.04.02.31.03.32.02.31.02.31.02.31.01.31.02.31v.31l.01.31.01.31v.31l-.01.31v.31l-.01.3-.02.31-.01.31-.02.31-.03.3-.03.31-.03.3-.04.31-.04.31-.05.3-.05.31-.06.3-.06.3-.06.31-.07.3-.08.3-.08.3-.09.3-.09.3-.01.02zm.01-.02l-.01.02.01-.02zM55.56 63.6l.33.1-.13-.22.52.1.53.1.53.1.54.1.54.11.53.11.54.1.54.11.54.1.53.1.52.1.52.09.5.09.5.09.49.07.47.07.46.07.45.05.42.04.41.04.39.02.37.01h.35l.32-.01.29-.03.27-.04.23-.05.21-.07.17-.08.13-.09.11-.1.07-.12.31.15-.12.18-.15.15-.18.13-.22.1-.24.08-.26.06-.29.04-.31.03-.34.01h-.35l-.38-.01-.4-.02-.42-.04-.43-.04-.45-.06-.47-.06-.47-.07-.49-.08-.5-.08-.51-.09-.52-.09-.53-.1-.53-.1-.53-.11-.54-.1-.54-.11-.54-.1-.54-.11-.53-.11-.54-.1-.52-.1-.53-.09-.13-.22zm.13.22l-.18-.04.05-.18.13.22z" class="fil1"/></g><g><path d="M60.57 35.76c3.37 0 6.09 2.63 6.09 5.88s-2.72 5.89-6.09 5.89c-3.36 0-6.08-2.64-6.08-5.89 0-3.25 2.72-5.88 6.08-5.88z" class="fil2"/><path id="1" d="M66.83 41.64h-.34l-.01-.29-.02-.29-.04-.29-.05-.28-.07-.27-.08-.27-.09-.27-.1-.26-.12-.25-.13-.25-.14-.24-.16-.23-.16-.22-.18-.22-.18-.21-.2-.19-.21-.19-.21-.18-.22-.17-.24-.16-.24-.15-.25-.14-.25-.13-.26-.11-.27-.1-.28-.09-.28-.08-.28-.06-.3-.05-.29-.04-.3-.02-.31-.01v-.34l.32.01.32.02.31.04.31.05.31.07.29.08.29.1.29.1.28.12.26.14.27.14.25.16.25.17.23.18.23.19.22.2.2.21.2.22.19.23.17.24.16.24.15.26.14.26.13.27.11.27.1.28.08.29.07.29.06.3.04.3.02.31.01.31zm-6.26 6.06v-.34l.31-.01.3-.02.29-.04.3-.05.28-.06.28-.08.28-.09.27-.1.26-.12.25-.12.25-.14.24-.15.24-.16.22-.17.21-.18.21-.19.2-.2.18-.2.18-.22.16-.22.16-.24.14-.23.13-.25.12-.25.1-.26.09-.27.08-.27.07-.28.05-.28.04-.28.02-.29.01-.3h.34l-.01.31-.02.31-.04.31-.06.3-.07.29-.08.29-.1.28-.11.27-.13.27-.14.26-.15.25-.16.25-.17.24-.19.23-.2.22-.2.21-.22.2-.23.19-.23.18-.25.17-.25.15-.27.15-.26.13-.28.12-.29.11-.29.1-.29.08-.31.07-.31.05-.31.04-.32.02-.32.01zm-6.25-6.06h.34v.3l.03.29.03.28.06.28.06.28.08.27.09.27.11.26.12.25.13.25.14.23.16.24.16.22.18.22.18.2.2.2.2.19.22.18.22.17.23.16.24.15.25.14.26.12.26.12.27.1.27.09.28.08.29.06.29.05.3.04.3.02.3.01v.34l-.32-.01-.32-.02-.31-.04-.31-.05-.3-.07-.3-.08-.29-.1-.28-.11-.28-.12-.27-.13-.26-.15-.25-.15-.25-.17-.23-.18-.23-.19-.22-.2-.21-.21-.19-.22-.19-.23-.17-.24-.17-.25-.15-.25-.14-.26-.12-.27-.11-.27-.1-.28-.09-.29-.07-.29-.05-.3-.04-.31-.03-.31v-.31zm6.25-6.05v.34l-.3.01-.3.02-.3.04-.29.05-.29.06-.28.08-.27.09-.27.1-.26.11-.26.13-.25.14-.24.15-.23.16-.22.17-.22.18-.2.19-.2.19-.18.21-.18.22-.17.22-.15.23-.14.24-.13.25-.12.25-.11.26-.09.27-.08.27-.06.27-.06.28-.03.29-.03.29v.29h-.34v-.31l.03-.31.04-.3.05-.3.07-.29.09-.29.1-.28.11-.27.12-.27.14-.26.15-.26.17-.24.17-.24.19-.23.19-.22.21-.21.22-.2.23-.19.23-.18.25-.17.25-.16.26-.14.27-.14.28-.12.28-.1.29-.1.3-.08.3-.07.31-.05.31-.04.32-.02.32-.01z" class="fil1"/></g><g><path d="M.17 25.05c.91-.09 2.05-.99 2.15-1.86C.11 13.83 4.79 6.74 16.26 1.88 23.38.62 30.41.85 36.7 11.82c2 4.55 1.91 8.32-.09 10.87-4.93 4.69-10.09 9.23-18.04 12.07-8.38 2.55-13.63-1.16-18-6.63-.48-1.23-.38-1.86-.4-3.08z" class="fil0"/><path id="1" d="M2.15 23.23l.33-.07.01.05-.02.1-.02.09-.03.09-.03.09-.03.09-.05.09-.05.09-.05.08-.05.08-.06.09-.07.08-.07.07-.07.08-.07.07-.08.07-.08.07-.08.07-.09.06-.09.07-.08.06-.1.05-.09.05-.09.05-.09.05-.1.04-.09.04-.1.03-.09.03-.1.03-.09.02-.1.01-.09.02-.03-.34.07-.01.08-.02.08-.02.08-.02.09-.02.08-.03.08-.04.09-.03.08-.04.08-.05.08-.04.08-.05.08-.06.08-.05.08-.06.07-.06.07-.06.07-.06.07-.07.06-.07.06-.07.06-.06.05-.07.05-.08.04-.07.04-.07.04-.07.02-.07.03-.07.02-.07.02-.08.01-.06v.05zm.33-.07l.01.02v.03l-.01-.05zM16.23 1.71l.06.33.03-.01-1.05.46-1.01.48-.97.48-.93.5-.89.51-.85.53-.82.54-.77.55-.73.56-.69.58-.65.58-.61.61-.57.61-.53.63-.5.64-.45.65-.41.67-.37.67-.33.69-.29.71-.26.71-.21.73-.17.75-.14.75-.09.77-.06.78-.01.8.02.81.07.82.1.84.15.85.18.87-.33.07-.19-.87-.14-.87-.11-.85-.07-.84-.02-.83.01-.81.06-.8.09-.79.14-.77.18-.76.22-.75.26-.73.3-.73.34-.7.38-.7.42-.68.46-.66.5-.66.54-.64.58-.62.63-.61.66-.6.7-.59.74-.57.78-.55.82-.55.86-.53.9-.52.94-.5.98-.49 1.02-.48 1.06-.46.04-.01zm-.04.01l.02-.01h.02l-.04.01zm20.67 10.03l-.32.14.01.01-.59-.99-.59-.93-.6-.87-.6-.82-.6-.75-.61-.71-.61-.65-.61-.59-.62-.55-.62-.51-.62-.45-.62-.41-.63-.37-.63-.33-.63-.29-.64-.26-.63-.21-.64-.19-.65-.15-.64-.12-.65-.1-.64-.06-.65-.05-.66-.01h-.65l-.66.03-.66.04-.66.06-.66.08-.66.09-.67.1-.66.11-.06-.33.67-.12.67-.1.67-.09.67-.08.66-.06.67-.04.67-.03h.66l.67.01.66.05.67.06.66.1.66.13.65.15.66.19.65.22.65.26.65.3.65.34.64.38.64.42.63.47.63.51.63.56.62.61.62.66.62.71.61.77.61.82.61.88.59.94.6 1 .01.02zm-.01-.02l.01.02-.01-.01v-.01zm-.12 11.09l-.24-.25-.02.02.18-.24.17-.24.15-.25.15-.26.13-.27.13-.27.11-.27.1-.29.09-.29.07-.29.07-.31.06-.31.04-.31.03-.33.03-.32v-.68l-.01-.34-.02-.36-.04-.35-.05-.37-.06-.37-.07-.37-.08-.38-.1-.39-.11-.39-.12-.4-.13-.4-.14-.41-.16-.41-.17-.41-.18-.42.32-.14.18.43.17.42.16.42.15.41.13.41.12.41.11.4.1.39.08.39.08.38.06.38.05.38.04.37.02.36.01.35.01.36-.01.34-.03.34-.03.34-.05.33-.05.32-.07.32-.09.31-.09.3-.1.3-.12.29-.13.28-.14.28-.15.27-.17.26-.17.26-.19.25-.01.02zm.01-.02l-.01.01v.01l.01-.02zM18.62 34.92l-.1-.32h-.01l.74-.27.72-.28.7-.29.69-.3.67-.31.66-.31.65-.33.63-.33.62-.33.61-.35.59-.36.59-.35.58-.37.56-.38.56-.38.54-.38.54-.39.53-.4.52-.4.52-.4.5-.41.5-.41.5-.42.49-.42.48-.43.48-.42.48-.43.47-.43.47-.44.47-.44.46-.43.46-.44.24.25-.47.44-.46.43-.47.44-.47.44-.47.43-.48.43-.48.43-.49.43-.49.42-.5.42-.5.41-.51.42-.52.4-.52.41-.54.39-.54.4-.55.39-.56.38-.57.37-.58.37-.59.37-.6.35-.62.35-.62.34-.64.34-.65.33-.67.31-.68.31-.69.3-.71.3-.72.28-.74.27h-.01zm.01 0h-.01.01zM.41 28.19l.32-.12-.03-.04.41.5.42.49.42.49.43.46.43.46.44.44.45.42.46.41.46.39.48.38.48.35.49.34.5.32.51.29.52.27.53.26.55.22.55.21.57.17.58.16.6.12.61.1.62.07.63.05.66.01.66-.02.69-.05.7-.08.71-.11L17 35l.75-.18.77-.22.1.32-.78.22-.77.19-.75.15-.73.12-.71.08-.7.05-.68.02-.67-.01-.65-.05-.64-.07-.63-.1-.61-.13-.59-.16-.59-.18-.56-.21-.56-.23-.55-.26-.53-.28-.53-.3-.51-.32-.5-.35-.49-.36-.48-.38-.48-.4-.46-.42-.46-.43-.44-.44-.44-.46-.44-.48-.42-.48-.42-.5-.42-.51-.02-.05zm.02.05l-.01-.02-.01-.03.02.05zm-.27-3.36l.03.34.15-.18v.12l.01.11V26.32l.01.09v.08l.01.09.01.08.01.08.01.09.01.08.01.09.02.09.01.09.03.09.02.09.02.09.03.1.03.1.03.1.03.1.04.11.05.11-.32.12-.05-.11-.04-.12-.03-.1-.04-.11-.03-.11-.03-.1-.02-.1-.03-.1-.02-.09-.02-.1-.01-.09-.02-.1-.01-.09-.01-.09-.01-.09-.01-.09-.01-.09v-.09l-.01-.09V25.38L0 25.27v-.22l.16-.17zm-.16.17v-.16l.16-.01-.16.17z" class="fil1"/></g><g><path fill="#99cfba" d="M2.32 23.19c-.92-3.89-.64-7.39.81-10.5.49-.36 1.03-.58 1.61-.63 2.73-.27 5.34 3.14 5.82 7.61.52 2.86-1.96 5.47-4.68 5.74-.63.06-3.27-.13-3.56-2.22z"/><path id="1" d="M3.03 12.55l.2.28.06-.07-.14.29-.12.29-.12.3-.11.29-.1.3-.1.3-.09.3-.08.31-.08.31-.07.31-.06.31-.06.31-.05.32-.04.32-.04.32-.03.32-.02.33-.01.33-.01.33v.66l.02.34.02.34.02.34.04.35.04.34.04.35.06.36.06.35.07.36.07.35.08.37-.33.07-.08-.36-.08-.37-.07-.36-.06-.36-.05-.36-.05-.35-.04-.36-.04-.35-.02-.35-.02-.34-.02-.35v-.68l.01-.34.01-.33.02-.33.03-.34.04-.32.04-.33.05-.32.06-.33.07-.32.07-.31.08-.32.08-.31.09-.31.1-.31.11-.3.11-.31.12-.3.13-.3.14-.29.05-.07zm-.05.07l.01-.04.04-.03-.05.07zm1.74-.73l.04.34h-.05l-.05.01-.06.01h-.05l-.05.01-.05.01-.05.01-.05.01-.04.02-.06.01-.04.01-.05.02-.05.02-.05.01-.05.02-.05.02-.04.02-.05.02-.05.02-.05.02-.04.02-.05.03-.04.02-.05.03-.05.02-.04.03-.05.03-.04.03-.05.03-.04.02-.04.04-.05.03-.2-.28.05-.03.05-.04.05-.03.04-.03.05-.03.05-.03.05-.03.05-.03.05-.03.05-.02.06-.03.05-.03.05-.02.05-.02.06-.03.05-.02.05-.02.05-.02.06-.02.05-.01.06-.02.05-.02.06-.01.05-.02.06-.01.06-.01.05-.01.06-.01.05-.01.06-.01.06-.01h.05zm6.01 7.75l-.33.06-.01-.02-.05-.41-.06-.4-.08-.4-.08-.39-.1-.38-.1-.37-.12-.36-.13-.36-.13-.34-.15-.33-.15-.33-.16-.31-.17-.29-.18-.29-.18-.27-.19-.26-.2-.25-.2-.23-.21-.21-.21-.21-.22-.18-.22-.17-.22-.15-.23-.14-.23-.11-.23-.1-.24-.09-.23-.06-.24-.04-.24-.03-.24-.01-.24.02-.04-.34.27-.02.27.01.27.03.26.05.26.07.26.09.26.11.25.12.24.15.24.16.24.18.23.2.22.21.22.23.21.24.21.26.2.27.19.28.18.3.18.31.16.32.16.34.15.34.14.35.13.37.12.37.11.38.1.4.09.39.08.41.06.42.05.42v-.01zm-.33.06l-.01-.02.01.02zm-4.51 5.88l-.03-.34.24-.03.25-.05.24-.05.24-.07.24-.08.23-.09.23-.11.22-.11.22-.13.21-.13.21-.14.2-.16.19-.16.18-.17.18-.17.17-.19.15-.19.15-.2.14-.21.13-.21.11-.22.11-.22.09-.23.08-.24.07-.23.05-.25.04-.24.02-.25.01-.25v-.25l-.03-.26-.03-.25.33-.06.04.27.03.28v.27l-.01.28-.02.26-.05.27-.05.26-.07.26-.09.25-.1.24-.11.24-.12.24-.14.22-.15.22-.16.22-.16.2-.18.2-.19.19-.2.18-.2.17-.21.16-.22.15-.23.15-.23.13-.24.12-.24.11-.25.1-.25.08-.25.08-.26.06-.26.04-.27.04zm-3.74-2.35l.33-.07.01.01.03.18.04.16.06.16.06.14.08.14.08.13.09.12.1.11.11.1.11.1.12.09.13.08.13.08.13.07.14.06.13.06.14.05.14.04.14.04.14.04.14.03.13.02.13.02.13.02.12.01.11.01.11.01h.1l.09.01.08-.01h.13l.03.34H5.74l-.09.01-.1-.01h-.11l-.11-.01-.13-.01-.12-.01-.14-.02-.14-.02-.14-.03-.15-.03-.14-.04-.16-.04-.15-.05-.15-.06-.15-.06-.15-.07-.15-.08-.14-.08-.14-.09-.14-.1-.13-.11-.12-.12-.12-.13-.11-.14-.1-.15-.08-.16-.08-.18-.07-.18-.05-.19-.03-.2v.01zm.33-.07l.01.01-.01-.01z" class="fil1"/></g><g><path d="M4.69.44c-.06 6.52 8.88 8.92 9.57 14.5 11.72-2.18 13.22-9.03 7.25-13C15.81.21 10.22-.16 4.69.44z" class="fil2"/><path id="1" d="M14.23 14.77l.06.34-.2-.15-.09-.5-.13-.48-.17-.47-.21-.45-.24-.44-.28-.44-.3-.42-.34-.41-.35-.41-.38-.41-.4-.39-.41-.4-.42-.39-.42-.39-.44-.4-.43-.39-.44-.4-.42-.41-.42-.4-.41-.42-.4-.43-.38-.43-.35-.45-.34-.46-.3-.48-.28-.49-.24-.51-.21-.53-.16-.55-.12-.57-.07-.59-.02-.61h.34l.02.58.07.57.11.54.16.52.19.5.23.49.27.48.29.45.33.45.34.44.38.42.38.42.41.41.41.41.43.4.43.4.43.39.44.39.43.4.42.39.41.4.4.41.39.41.36.42.35.42.31.44.29.45.26.47.22.48.18.49.14.51.09.53-.2-.15zm.06.34l-.18.03-.02-.18.2.15zM21.46 2.1l.1-.32.04.02.55.38.5.41.46.41.41.43.37.45.32.46.27.46.22.47.18.49.12.48.08.49.02.49-.03.5-.08.49-.13.49-.19.48-.24.48-.29.47-.34.46-.4.44-.45.44-.51.42-.56.41-.62.4-.67.37-.73.36-.78.33-.85.32-.89.29-.96.28-1.02.24-1.07.22-.06-.34 1.06-.21 1-.25.95-.26.88-.29.83-.31.77-.33.71-.35.66-.37.6-.38.54-.4.49-.4.43-.42.38-.43.33-.44.28-.44.22-.45.17-.45.13-.45.07-.46.03-.46-.02-.45-.07-.46-.12-.45-.16-.46-.22-.44-.25-.44-.31-.43-.35-.43-.39-.41-.44-.4-.48-.39-.53-.38.04.02zm.1-.32h.02l.02.02-.04-.02zM4.86.44h-.34l.15-.17.52-.06.52-.04.53-.04.52-.04.52-.03.52-.03.52-.01.53-.02H9.9l.52.01.53.01.52.02.53.03.53.03.52.04.53.05.53.06.53.06.53.07.53.07.53.08.53.09.53.1.53.11.53.11.54.12.53.13.53.13.54.15.53.15.54.16-.1.32-.53-.16-.53-.15-.53-.14-.53-.13-.53-.13-.53-.12-.53-.11-.53-.1-.52-.1-.53-.09-.52-.08-.53-.08-.52-.06-.53-.07-.52-.05-.53-.05-.52-.04-.52-.03-.52-.03-.52-.02-.53-.01-.52-.01h-.52l-.52.01-.52.01-.51.02L7.3.4l-.52.03-.52.04-.52.04-.51.05-.52.05.15-.17zm-.34 0V.29l.15-.02-.15.17z" class="fil1"/></g><g><path d="M5.07 16.04c1 0 1.8 1.62 1.8 3.61 0 1.99-.8 3.6-1.8 3.6-.99 0-1.8-1.61-1.8-3.6s.81-3.61 1.8-3.61z" class="fil3"/><path id="1" d="M7.04 19.65H6.7v-.18l-.01-.18-.01-.18-.01-.17-.02-.17-.03-.17-.02-.16-.03-.16-.04-.15-.04-.15-.04-.15-.05-.14-.04-.14-.06-.13-.05-.13-.06-.12-.06-.11-.06-.11-.06-.1-.07-.09-.07-.09-.06-.08-.08-.07-.07-.06-.07-.06-.07-.05-.08-.04-.07-.04-.07-.02-.08-.02-.07-.01-.08-.01v-.34l.11.01.11.02.1.02.11.04.1.05.1.05.09.07.09.07.09.07.09.09.08.1.07.1.08.1.07.12.07.12.07.12.06.13.06.14.05.14.06.15.05.15.04.15.04.16.04.17.03.17.03.17.03.18.02.17.01.19.01.18.01.19v.19zm-1.97 3.77v-.34h.08l.07-.01.08-.02.07-.03.07-.03.08-.04.07-.05.07-.06.07-.07.08-.07.06-.08.07-.08.07-.1.06-.1.06-.11.06-.11.06-.12.05-.12.06-.13.04-.14.05-.14.04-.15.04-.15.04-.15.03-.16.02-.17.03-.16.02-.17.01-.18.01-.17.01-.18v-.18h.34v.19l-.01.19-.01.18-.01.18-.02.18-.03.18-.03.17-.03.17-.04.16-.04.16-.04.16-.05.15-.06.14-.05.15-.06.13-.06.13-.07.13-.07.12-.07.11-.08.11-.07.1-.08.09-.09.09-.09.08-.09.07-.09.07-.1.05-.1.05-.11.03-.1.03-.11.02h-.11zM3.1 19.65h.34v.18l.01.18.01.17.01.18.02.17.03.16.03.17.03.16.03.15.04.15.04.15.05.14.05.14.05.13.05.12.06.12.06.11.06.11.06.1.07.1.07.08.07.08.07.08.07.06.07.06.07.05.08.04.07.03.08.03.07.02.08.01h.07v.34h-.11l-.11-.02-.1-.03-.11-.03-.1-.05-.1-.05-.09-.07-.09-.07-.09-.08-.08-.09-.09-.09-.07-.1-.08-.11-.07-.11-.07-.12-.07-.13-.06-.13-.06-.13-.05-.15-.06-.14-.04-.15-.05-.16-.04-.16-.04-.16-.03-.17-.03-.17-.02-.18-.02-.18-.02-.18-.01-.18-.01-.19v-.19zm1.97-3.78v.34l-.07.01-.08.01-.07.02-.08.02-.07.04-.08.04-.07.05-.07.06-.07.06-.07.07-.07.08-.07.09-.07.09-.06.1-.06.11-.06.11-.06.12-.05.13-.05.13-.05.14-.05.14-.04.15-.04.15-.03.15-.03.16-.03.16-.03.17-.02.17-.01.17-.01.18-.01.18v.18H3.1v-.19l.01-.19.01-.18.02-.19.02-.17.02-.18.03-.17.03-.17.04-.17.04-.16.05-.15.04-.15.06-.15.05-.14.06-.14.06-.13.07-.12.07-.12.07-.11.08-.11.07-.1.09-.1.08-.08.09-.08.09-.07.09-.07.1-.05.1-.05.11-.04.1-.02.11-.02.11-.01z" class="fil1"/></g><g><path d="M5.99 19.52h-.34v-.16l-.01-.08v-.07l-.01-.08-.01-.07-.02-.07-.01-.07-.01-.07-.02-.06-.02-.07-.02-.06-.02-.06-.02-.05-.02-.06-.03-.05-.03-.05-.02-.04-.03-.04-.02-.04-.03-.04-.03-.03-.03-.03-.03-.02-.03-.03-.02-.01-.03-.02-.02-.01-.03-.01-.02-.01h-.05v-.34h.05l.06.01.06.01.05.02.06.03.05.03.05.03.04.04.05.04.04.04.04.05.04.05.04.05.03.05.03.06.03.06.03.06.03.07.03.06.02.07.03.07.02.08.02.07.01.08.02.08.01.08.01.08.01.08.01.09.01.08v.18zm-.98 1.8v-.34h.02l.03-.01h.02l.03-.01.02-.01.03-.02.02-.02.03-.02.03-.03.03-.02.03-.03.03-.04.02-.04.03-.04.02-.05.03-.05.03-.05.02-.05.02-.06.02-.05.02-.07.02-.06.02-.07.01-.06.01-.07.02-.07.01-.08.01-.07v-.08l.01-.07v-.16h.34V19.69l-.01.09-.01.09-.01.08-.01.08-.01.08-.02.08-.01.08-.02.07-.02.07-.03.07-.02.08-.03.06-.03.06-.03.07-.03.06-.03.05-.03.06-.04.05-.04.05-.04.05-.04.04-.05.04-.04.04-.05.03-.05.03-.06.02-.05.02-.06.02-.06.01h-.05zm-.99-1.8h.34v.08l.01.08v.07l.01.08.01.07.01.08.01.07.01.07.02.06.01.07.02.06.02.07.02.06.02.05.03.05.02.06.03.04.02.05.03.04.03.04.02.04.03.03.03.02.03.03.03.02.02.02.03.02.03.01.02.01h.03l.02.01h.03v.34h-.06l-.06-.01-.06-.02-.05-.02-.06-.02-.05-.03-.04-.03-.05-.04-.05-.04-.04-.04-.04-.05-.04-.05-.03-.05-.04-.06-.03-.05-.03-.06-.03-.07-.03-.06-.03-.07-.02-.07-.02-.07-.02-.07-.02-.07-.02-.08-.02-.08-.01-.08-.01-.08-.01-.08-.01-.09v-.09l-.01-.08v-.09zm.99-1.8v.34h-.05l-.03.01-.02.01-.03.01-.03.02-.02.02-.03.02-.03.02-.03.03-.03.03-.02.04-.03.04-.03.04-.02.05-.03.04-.02.05-.03.06-.02.05-.02.06-.02.06-.02.07-.01.06-.02.07-.01.07-.01.07-.01.07-.01.08-.01.07v.08l-.01.08v.08h-.34v-.09l.01-.09v-.08l.01-.09.01-.08.01-.08.01-.08.02-.08.02-.08.02-.07.02-.08.02-.07.02-.06.03-.07.03-.07.03-.06.03-.06.03-.06.04-.05.03-.05.04-.05.04-.05.04-.04.05-.04.05-.04.04-.03.05-.03.06-.03.05-.02.06-.01.06-.01h.06z" class="fil1"/></g></g></svg>