<svg xmlns="http://www.w3.org/2000/svg" width="138" height="67" fill-rule="evenodd" clip-rule="evenodd" image-rendering="optimizeQuality" shape-rendering="geometricPrecision" text-rendering="geometricPrecision" viewBox="0 0 54.78 26.6"><defs><style>.str0{stroke:#2b2a29;stroke-width:.36;stroke-miterlimit:22.9256}.fil1{fill:none;fill-rule:nonzero}.fil5{fill:#f5b2b6}.fil2{fill:#d8ece4}.fil3{fill:#6fa691}</style></defs><g id="Слой_x0020_1"><path fill="#99cfba" d="M43.57.01c6.19 0 11.2 4.87 11.2 10.87 0 6-5.01 10.86-11.2 10.86-6.19 0-11.2-4.86-11.2-10.86 3.6.66 8.2.8 11.93.8-.02-3.69 0-8.45-.73-11.67z"/><path id="1" d="M43.57.01c6.19 0 11.2 4.87 11.2 10.87 0 6-5.01 10.86-11.2 10.86-6.19 0-11.2-4.86-11.2-10.86 3.6.66 8.2.8 11.93.8-.02-3.69 0-8.45-.73-11.67z" class="fil1 str0"/><path d="M45.93 2.21c.62 2.9.42 6.7.47 9.37 2.23.03 3.87.02 5.98-.2.52-4.97-3.11-8.75-6.45-9.17z" class="fil2"/><path id="1" d="M45.93 2.21c.62 2.9.42 6.7.47 9.37 2.23.03 3.87.02 5.98-.2.52-4.97-3.11-8.75-6.45-9.17z" class="fil1 str0"/><path d="M27.98 3.88c.14-.14.37-.15.52-.01l16.88 16.1c.15.14.15.37.01.52-.14.14-.37.15-.51.01L27.99 4.4c-.14-.14-.15-.37-.01-.52z" class="fil2"/><path id="1" d="M27.98 3.88c.14-.14.37-.15.52-.01l16.88 16.1c.15.14.15.37.01.52-.14.14-.37.15-.51.01L27.99 4.4c-.14-.14-.15-.37-.01-.52z" class="fil1 str0"/><path d="M39.22 19.62c1.92 0 3.49 1.56 3.49 3.49 0 1.92-1.57 3.49-3.49 3.49-1.93 0-3.49-1.57-3.49-3.49 0-1.93 1.56-3.49 3.49-3.49zm0 .74c1.51 0 2.75 1.23 2.75 2.75 0 1.51-1.24 2.74-2.75 2.74-1.52 0-2.75-1.23-2.75-2.74 0-1.52 1.23-2.75 2.75-2.75z" class="fil3"/><path id="1" d="M39.22 19.62c1.92 0 3.49 1.56 3.49 3.49 0 1.92-1.57 3.49-3.49 3.49-1.93 0-3.49-1.57-3.49-3.49 0-1.93 1.56-3.49 3.49-3.49zm0 .74c1.51 0 2.75 1.23 2.75 2.75 0 1.51-1.24 2.74-2.75 2.74-1.52 0-2.75-1.23-2.75-2.74 0-1.52 1.23-2.75 2.75-2.75z" class="fil1 str0"/><path d="M39.22 22.19c.5 0 .91.41.91.92 0 .5-.41.91-.91.91-.51 0-.92-.41-.92-.91 0-.51.41-.92.92-.92z" class="fil2"/><path id="1" d="M39.22 22.19c.5 0 .91.41.91.92 0 .5-.41.91-.91.91-.51 0-.92-.41-.92-.91 0-.51.41-.92.92-.92z" class="fil1 str0"/><path d="M48.32 19.55c1.93 0 3.49 1.56 3.49 3.49 0 1.93-1.56 3.49-3.49 3.49-1.92 0-3.49-1.56-3.49-3.49 0-1.93 1.57-3.49 3.49-3.49zm0 .74c1.52 0 2.75 1.23 2.75 2.75s-1.23 2.75-2.75 2.75-2.75-1.23-2.75-2.75 1.23-2.75 2.75-2.75z" class="fil3"/><path id="1" d="M48.32 19.55c1.93 0 3.49 1.56 3.49 3.49 0 1.93-1.56 3.49-3.49 3.49-1.92 0-3.49-1.56-3.49-3.49 0-1.93 1.57-3.49 3.49-3.49zm0 .74c1.52 0 2.75 1.23 2.75 2.75s-1.23 2.75-2.75 2.75-2.75-1.23-2.75-2.75 1.23-2.75 2.75-2.75z" class="fil1 str0"/><path d="M48.32 22.12c.51 0 .92.41.92.92 0 .5-.41.91-.92.91-.5 0-.91-.41-.91-.91 0-.51.41-.92.91-.92z" class="fil2"/><path id="1" d="M48.32 22.12c.51 0 .92.41.92.92 0 .5-.41.91-.92.91-.5 0-.91-.41-.91-.91 0-.51.41-.92.91-.92z" class="fil1 str0"/><g><path fill="#f08bb2" d="M15.7.01c6.19 0 11.2 4.87 11.2 10.87 0 6-5.01 10.86-11.2 10.86-6.18 0-11.2-4.86-11.2-10.86 3.6.66 8.2.8 11.93.8-.02-3.69 0-8.45-.73-11.67z"/><path id="1" d="M15.7.01c6.19 0 11.2 4.87 11.2 10.87 0 6-5.01 10.86-11.2 10.86-6.18 0-11.2-4.86-11.2-10.86 3.6.66 8.2.8 11.93.8-.02-3.69 0-8.45-.73-11.67z" class="fil1 str0"/></g><g><path d="M18.06 2.21c.62 2.9.42 6.71.47 9.37 2.23.03 3.87.02 5.98-.2.52-4.97-3.11-8.75-6.45-9.17z" class="fil2"/><path id="1" d="M18.06 2.21c.62 2.9.42 6.71.47 9.37 2.23.03 3.87.02 5.98-.2.52-4.97-3.11-8.75-6.45-9.17z" class="fil1 str0"/></g><g><path d="M.11 3.88c.14-.14.37-.15.52-.01l16.88 16.1c.15.14.15.37.01.52-.14.14-.37.15-.51.01L.12 4.4c-.14-.14-.15-.37-.01-.52z" class="fil5"/><path id="1" d="M.11 3.88c.14-.14.37-.15.52-.01l16.88 16.1c.15.14.15.37.01.52-.14.14-.37.15-.51.01L.12 4.4c-.14-.14-.15-.37-.01-.52z" class="fil1 str0"/></g><g><path d="M11.35 19.62c1.92 0 3.49 1.56 3.49 3.49 0 1.92-1.57 3.49-3.49 3.49-1.93 0-3.49-1.57-3.49-3.49 0-1.93 1.56-3.49 3.49-3.49zm0 .74c1.52 0 2.75 1.23 2.75 2.75 0 1.51-1.23 2.74-2.75 2.74S8.6 24.62 8.6 23.11c0-1.52 1.23-2.75 2.75-2.75z" class="fil5"/><path id="1" d="M11.35 19.62c1.92 0 3.49 1.56 3.49 3.49 0 1.92-1.57 3.49-3.49 3.49-1.93 0-3.49-1.57-3.49-3.49 0-1.93 1.56-3.49 3.49-3.49zm0 .74c1.52 0 2.75 1.23 2.75 2.75 0 1.51-1.23 2.74-2.75 2.74S8.6 24.62 8.6 23.11c0-1.52 1.23-2.75 2.75-2.75z" class="fil1 str0"/></g><g><path d="M11.35 22.19c.5 0 .91.41.91.92 0 .5-.41.91-.91.91-.51 0-.92-.41-.92-.91 0-.51.41-.92.92-.92z" class="fil2"/><path id="1" d="M11.35 22.19c.5 0 .91.41.91.92 0 .5-.41.91-.91.91-.51 0-.92-.41-.92-.91 0-.51.41-.92.92-.92z" class="fil1 str0"/></g><g><path d="M20.45 19.55c1.93 0 3.49 1.56 3.49 3.49 0 1.93-1.56 3.49-3.49 3.49-1.92 0-3.49-1.56-3.49-3.49 0-1.93 1.57-3.49 3.49-3.49zm0 .74c1.52 0 2.75 1.23 2.75 2.75s-1.23 2.75-2.75 2.75c-1.51 0-2.75-1.23-2.75-2.75s1.24-2.75 2.75-2.75z" class="fil5"/><path id="1" d="M20.45 19.55c1.93 0 3.49 1.56 3.49 3.49 0 1.93-1.56 3.49-3.49 3.49-1.92 0-3.49-1.56-3.49-3.49 0-1.93 1.57-3.49 3.49-3.49zm0 .74c1.52 0 2.75 1.23 2.75 2.75s-1.23 2.75-2.75 2.75c-1.51 0-2.75-1.23-2.75-2.75s1.24-2.75 2.75-2.75z" class="fil1 str0"/></g><g><path d="M20.45 22.12c.51 0 .92.41.92.92 0 .5-.41.91-.92.91-.5 0-.91-.41-.91-.91 0-.51.41-.92.91-.92z" class="fil2"/><path id="1" d="M20.45 22.12c.51 0 .92.41.92.92 0 .5-.41.91-.92.91-.5 0-.91-.41-.91-.91 0-.51.41-.92.91-.92z" class="fil1 str0"/></g></g></svg>