<svg xmlns="http://www.w3.org/2000/svg" width="124" height="68" fill-rule="evenodd" clip-rule="evenodd" image-rendering="optimizeQuality" shape-rendering="geometricPrecision" text-rendering="geometricPrecision" viewBox="0 0 33.03 18.07"><defs><style>.fil2{fill:#f5b2b6}.fil0{fill:#f08bb2}.fil4{fill:#99cfba}.fil1,.fil5{fill:#2b2a29;fill-rule:nonzero}</style></defs><g id="Слой_x0020_1"><path d="M24.14 17.82c-.69.27-1.19.19-1.8-.09-1.34-.71-2.68-1.41-4.02-2.12-.42-.19-.2-1.78-.04-2.25l12-.36c-.03.59.14.23.12.82-.18.27.19 1.2-.78 1.63-1.39.75-3.63 1.62-5.48 2.37z" class="fil0"/><path id="1" d="M22.38 17.66h-.01l.06.02.05.03.06.02.05.02.05.02.06.02.05.02.05.02.05.01.06.01.05.02.05.01.05.01h.05l.05.01h.05l.06.01H23.42l.06-.01h.05l.05-.01.06-.01.06-.01.05-.01.06-.02.06-.01.06-.02.06-.02.06-.02.07-.03.05.15-.06.03-.07.02-.06.02-.07.02-.06.02-.06.01-.06.02-.06.01-.06.01-.06.01h-.06l-.06.01H23.26l-.06-.01h-.05l-.06-.01-.06-.01-.05-.01-.06-.01-.05-.01-.06-.02-.05-.01-.06-.02-.06-.02-.05-.02-.06-.02-.05-.02-.06-.03-.06-.02-.06-.03.08-.14zm-.08.14zm-3.95-2.27v.01l.13.06.12.07.13.07.13.06.12.07.13.07.12.06.13.07.12.06.13.07.13.07.12.06.13.07.12.07.13.06.12.07.13.06.13.07.12.07.13.06.12.07.13.07.12.06.13.07.13.07.12.06.13.07.12.06.13.07.12.07.13.06.13.07-.08.14-.12-.06-.13-.07-.13-.07-.12-.06-.13-.07-.12-.07-.13-.06-.12-.07-.13-.07-.13-.06-.12-.07-.13-.06-.12-.07-.13-.07-.12-.06-.13-.07-.13-.07-.12-.06-.13-.07-.12-.07-.13-.06-.12-.07-.13-.06-.13-.07-.12-.07-.13-.06-.12-.07-.13-.07-.12-.06-.13-.07-.13-.07-.12-.06.07-.15zm0 0v.01-.01zm-.07-2.09l.08-.06-.02.05-.01.05-.02.06-.01.06-.02.07-.01.07-.02.07-.01.08-.01.09-.02.08-.01.09-.01.09-.01.09v.08l-.01.09-.01.09V15.01l.01.08.01.07.01.07.01.06.02.06.02.05.02.04.02.03.02.03.03.02.02.01-.07.15-.05-.03-.04-.04-.04-.04-.03-.06-.03-.05-.02-.06-.02-.07-.02-.07-.01-.08-.01-.07v-.08l-.01-.09v-.35l.01-.1.01-.09v-.09l.01-.09.02-.09.01-.09.01-.09.01-.08.02-.08.01-.08.02-.08.01-.07.02-.06.01-.06.02-.06.02-.05.07-.05v.16zm-.07-.11l.01-.05h.06l-.07.05zM30.2 13l.08.08-.38.01-.37.01-.38.01-.37.02-.38.01-.37.01-.38.01-.37.01-.38.01-.37.01-.38.01-.37.01-.37.02-.38.01-.37.01-.38.01-.37.01-.38.01-.37.01-.38.01-.37.01-.38.01-.37.02-.38.01-.37.01-.38.01-.37.01-.38.01-.37.01-.38.01-.37.01-.38.02v-.16l.37-.02.38-.01.37-.01.38-.01.37-.01.38-.01.37-.01.38-.01.37-.01.38-.01.37-.02.38-.01.37-.01.38-.01.37-.01.38-.01.37-.01.38-.01.37-.01.38-.02.37-.01.38-.01.37-.01.37-.01.38-.01.37-.01.38-.01.37-.01.38-.01.37-.02.38-.01.37-.01.09.09-.16-.01zm.07-.08h.09v.09l-.09-.09zm.06.86l-.01.04v-.23l-.01-.02v-.04l-.01-.01v-.02l-.01-.01v-.01h-.01v-.01l-.01-.01-.01-.02v-.01l-.01-.01-.01-.02-.01-.02-.01-.02v-.02l-.01-.03v-.02l-.01-.03v-.07l-.01-.04v-.1l.01-.05.16.01-.01.05v.12l.01.03v.05l.01.02v.03l.01.01v.01l.01.01v.01l.01.01.01.01v.01l.01.01.01.02.01.02v.02l.01.02.01.02.01.02v.06l.01.03V13.83l-.01.04-.14-.09zm.15.05v.02l-.01.02.01-.04zm-.9 1.55h.01l.08-.04.08-.04.06-.05.07-.04.05-.05.05-.05.04-.05.04-.05.04-.06.03-.05.02-.05.02-.06.02-.06.02-.05.01-.06.01-.06.01-.05.01-.06v-.11l.01-.06v-.2l.01-.05v-.05l.01-.04.01-.04.01-.04.01-.04.02-.04.14.09-.01.01-.01.03-.01.02-.01.04v.07l-.01.05v.15l-.01.05v.12l-.01.06v.06l-.01.06-.01.06-.02.07-.01.06-.03.06-.02.07-.03.06-.04.07-.04.06-.04.06-.05.06-.06.06-.06.05-.07.05-.08.05-.09.05-.09.05.01-.01-.08-.14zm0 0h.01-.01zm-5.46 2.36h-.01l.18-.07.17-.07.18-.07.18-.07.18-.07.19-.08.18-.07.18-.08.19-.07.18-.08.19-.07.18-.08.18-.07.19-.08.18-.07.18-.08.18-.07.18-.08.17-.08.18-.07.17-.08.17-.07.17-.08.16-.07.16-.07.16-.08.16-.07.14-.07.15-.08.14-.07.14-.07.13-.07.08.14-.14.07-.14.07-.14.08-.15.07-.15.07-.15.08-.16.07-.16.07-.17.08-.16.07-.17.08-.18.08-.17.07-.18.08-.18.07-.18.08-.18.07-.18.08-.19.08-.18.07-.18.08-.19.07-.18.08-.19.07-.18.08-.19.07-.18.07-.18.08-.18.07-.18.07-.17.07-.18.07-.05-.15zm.05.15z" class="fil1"/><path d="M18 14.03c-1.5-2.86-.52-6.28 3.6-5.66.92.03 1.4-.86.91-2.03C20.67.96 23.43-.1 27.52.1c9.14.43 4.27 4.93-1.48 9.69-2.68 1.41-5.36 2.83-8.04 4.24z" class="fil2"/><path id="1" d="M21.59 8.45l-.38-.05-.35-.02h-.34l-.31.02-.3.04-.28.06-.27.07-.24.1-.23.11-.21.12-.19.14-.18.15-.16.17-.15.18-.13.19-.11.2-.09.21-.09.23-.06.23-.05.23-.03.25-.02.25v.26l.01.26.03.26.04.27.06.27.07.27.09.27.1.27.12.27.13.26-.14.08-.14-.27-.12-.28-.1-.28-.09-.28-.08-.27-.06-.28-.04-.28-.03-.27-.01-.27v-.27l.02-.26.03-.25.06-.25.06-.24.09-.24.1-.22.12-.21.13-.21.16-.18.17-.18.19-.17.2-.14.22-.14.24-.11.26-.1.28-.08.29-.06.31-.04.33-.02h.34l.37.02.38.05h-.01l-.01.16zm0 0zm1-2.13v-.01l.04.11.04.11.03.11.03.11.02.1.02.11.01.1.01.09v.1l-.01.09-.01.09-.01.09-.02.09-.02.08-.03.08-.03.07-.04.07-.04.07-.05.06-.05.06-.05.06-.06.05-.06.05-.07.04-.07.04-.07.03-.08.03-.08.02-.08.01-.09.01-.08.01h-.1l.01-.16h.16l.07-.01.07-.02.07-.02.07-.02.06-.03.06-.03.06-.03.05-.04.05-.05.04-.04.05-.05.04-.06.03-.06.03-.06.03-.06.03-.07.02-.07.01-.08.02-.08v-.08l.01-.08v-.09l-.01-.09-.01-.09-.02-.1-.02-.1-.02-.1-.03-.1-.04-.1-.04-.11.15-.05zm-.15.05zM27.52.18l-.38-.01-.37-.01h-.36l-.35.01-.34.02-.33.03-.31.04-.31.05-.29.07-.28.07-.26.09-.25.1-.24.12-.21.13-.21.14-.18.16-.17.17-.15.19-.13.21-.12.22-.09.25-.08.26-.05.28-.03.3-.02.33.01.35.04.37.05.39.08.41.11.44.13.47.16.49-.15.05-.16-.5-.13-.47-.11-.44-.08-.43-.06-.4-.04-.37-.01-.36.02-.34.03-.31.06-.3.08-.27.1-.26.12-.24.14-.22.16-.2.18-.19.2-.17.21-.15.23-.13.24-.12.26-.11.27-.09.29-.08.3-.06.31-.06.33-.04.33-.03.34-.02.36-.01h.36l.38.01.38.01-.01.16zm0 0zm-1.51 9.53l-.02.01.54-.44.52-.44.52-.44.51-.44.49-.43.47-.43.45-.42.44-.41.4-.41.38-.39.35-.39.32-.38.29-.37.24-.36.21-.35.17-.33.13-.32.07-.3.03-.29-.01-.27-.07-.25-.12-.24-.18-.22-.23-.21-.3-.19-.37-.18-.43-.16-.51-.14-.58-.11-.65-.1-.74-.08-.81-.05.01-.16.82.05.74.08.66.1.59.12.52.14.44.16.39.19.31.2.26.23.19.25.14.26.07.29.02.3-.03.31-.08.32-.13.34-.18.34-.21.36-.25.36-.29.38-.33.38-.35.39-.38.41-.41.41-.44.41-.45.42-.48.43-.49.43-.5.44-.52.44-.53.44-.54.45-.01.01-.07-.15zm.08.14l-.01.01.01-.01zm-8.02 4.14l-.11-.03.25-.13.25-.13.26-.14.25-.13.25-.13.25-.14.25-.13.25-.13.25-.13.26-.14.25-.13.25-.13.25-.13.25-.14.25-.13.25-.13.25-.14.26-.13.25-.13.25-.13.25-.14.25-.13.25-.13.25-.13.26-.14.25-.13.25-.13.25-.13.25-.14.25-.13.25-.13.26-.14.07.15-.25.13-.25.13-.25.13-.26.14-.25.13-.25.13-.25.13-.25.14-.25.13-.25.13-.26.14-.25.13-.25.13-.25.13-.25.14-.25.13-.25.13-.26.13-.25.14-.25.13-.25.13-.25.14-.25.13-.25.13-.25.13-.26.14-.25.13-.25.13-.25.13-.25.14-.25.13-.25.13-.11-.03.14-.08zm-.03.11l-.07.04-.04-.07.11.03z" class="fil1"/><path d="M22.97 16.7c-2.92-1.11-4.96-1.9-5.16-3.07-.29-1.68 2.83-3.28 5.58-3.79.93.04.86-8.14 3.12-9.15 1.62-1.08 6.49.02 5.97 1.05 1.15.93-3.6 2-3.33 5.37.31 3.86-.28 4.4-1 4.87-2.69 1.42-4.61 4.98-5.18 4.72z" class="fil0"/><path id="1" d="M17.89 13.62l.02.1.03.1.04.1.06.09.06.1.07.09.08.1.09.09.1.09.11.1.12.09.13.09.14.09.15.09.15.09.17.09.17.09.18.09.18.09.2.09.2.09.21.09.22.09.22.09.23.1.24.09.24.1.25.09.25.1.26.1.27.1.27.11-.06.15-.27-.11-.26-.1-.26-.1-.26-.1-.25-.1-.24-.09-.24-.1-.23-.09-.23-.09-.21-.1-.21-.09-.21-.09-.19-.09-.19-.09-.19-.09-.17-.09-.17-.09-.15-.1-.15-.09-.15-.09-.13-.09-.12-.1-.12-.1-.11-.09-.09-.1-.09-.1-.08-.11-.07-.1-.06-.11-.05-.11-.03-.12-.03-.11.16-.03zm5.5-3.7h.02l-.26.05-.26.06-.26.06-.26.07-.26.07-.26.08-.25.09-.26.09-.25.09-.24.1-.24.11-.24.1-.23.12-.22.11-.21.12-.21.12-.2.13-.18.13-.18.13-.17.14-.15.14-.14.13-.13.15-.12.14-.1.14-.08.15-.07.14-.05.15-.04.15-.02.14v.15l.02.15-.16.03-.02-.17v-.17l.02-.16.05-.17.05-.16.08-.16.09-.15.11-.16.12-.15.13-.15.15-.14.16-.14.17-.14.18-.14.19-.13.21-.13.21-.13.22-.12.22-.12.23-.11.24-.11.25-.11.25-.1.25-.09.26-.09.26-.09.26-.08.26-.07.26-.07.26-.07.27-.05.26-.06h.02l-.01.16zm-.01-.16h.02-.02zm3.18-9h-.01l-.2.11-.18.15-.17.18-.17.22-.15.25-.14.28-.14.3-.13.33-.11.34-.11.37-.1.38-.1.39-.09.39-.08.41-.08.4-.07.41-.07.4-.07.4-.06.39-.06.38-.06.36-.06.35-.06.33-.06.3-.06.28-.06.26-.07.22-.07.19-.07.16-.08.12-.11.08-.12.03.01-.16.04-.01.06-.05.06-.09.07-.14.06-.18.06-.21.06-.25.06-.28.06-.3.06-.33.06-.34.06-.37.06-.37.07-.39.06-.4.07-.41.08-.41.07-.4.09-.41.09-.4.09-.39.11-.39.11-.37.11-.35.13-.33.14-.31.15-.29.16-.26.17-.23.19-.2.2-.16.22-.12h-.01l.09.14zm0 0h-.01.01zm5.87 1.05l-.03-.1.03-.08v-.07l-.02-.08-.04-.08-.07-.08-.09-.09-.12-.09-.13-.08-.16-.08-.18-.08-.19-.08-.21-.08L31 .68l-.23-.07-.24-.06-.25-.05-.25-.05-.26-.04-.26-.03-.27-.03-.26-.01-.26-.01-.26-.01-.25.01-.25.02-.24.03-.23.03-.21.05-.21.06-.19.07-.17.08-.15.09-.09-.14.17-.1.18-.08.2-.08.22-.06.22-.05.24-.03.24-.03.26-.02.26-.01.26.01.27.01.27.01.27.03.26.03.27.05.25.04.26.06.24.06.24.06.22.07.22.08.19.08.19.08.16.09.15.09.13.1.11.1.08.1.06.11.03.12v.12l-.04.12-.02-.1-.1.13zm0 0l-.05-.05.02-.05.03.1zm-3.36 5.31l-.01-.32.02-.3.04-.3.07-.27.08-.27.11-.25.13-.24.14-.24.16-.22.16-.2.18-.2.18-.19.19-.18.19-.17.19-.17.19-.15.19-.15.19-.14.17-.14.17-.12.16-.12.14-.12.13-.11.11-.11.09-.1.07-.09.04-.08.02-.08v-.07l-.02-.07-.04-.07-.08-.07.1-.13.1.1.07.1.03.12v.11l-.03.12-.06.11-.08.11-.1.11-.12.11-.13.11-.15.12-.15.12-.17.13-.18.14-.18.14-.19.14-.19.16-.19.16-.18.16-.19.18-.18.19-.17.19-.16.2-.15.21-.13.22-.12.24-.11.24-.08.25-.07.26-.04.28-.01.29.01.3-.16.02zm-.96 4.79h-.01l.07-.04.06-.04.07-.05.06-.05.06-.05.06-.05.06-.06.05-.06.06-.06.05-.07.05-.08.04-.09.05-.09.04-.1.04-.11.04-.12.03-.12.03-.14.03-.16.03-.16.02-.17.02-.19.01-.2.01-.22.01-.23v-.51l-.01-.28-.01-.3-.01-.31-.02-.33-.03-.35.16-.02.02.36.03.33.01.32.01.3.01.28v.51l-.01.24-.01.22-.01.2-.02.19-.02.18-.03.17-.03.16-.03.14-.04.14-.04.12-.04.12-.05.11-.05.1-.05.09-.05.09-.06.07-.06.08-.06.06-.06.07-.06.05-.07.06-.07.05-.06.05-.07.04-.07.05h-.01l-.07-.14zm.08.14h-.01.01zM23 16.63h.07l.06-.02.07-.05.09-.06.09-.08.1-.09.1-.11.12-.13.12-.14.13-.15.14-.16.14-.17.15-.18.16-.18.17-.19.16-.2.18-.2.18-.2.19-.21.2-.21.19-.2.21-.2.21-.21.22-.19.22-.2.23-.18.23-.18.24-.17.24-.17.25-.15.25-.14.07.14-.24.14-.25.15-.23.16-.24.17-.22.17-.23.19-.22.19-.21.19-.21.2-.2.2-.2.2-.19.21-.19.2-.18.21-.17.19-.17.2-.17.19-.15.19-.15.18-.15.17-.14.16-.13.15-.12.14-.12.13-.11.11-.11.1-.09.09-.1.07-.09.05-.08.03-.09.01-.09-.02v.01l.06-.15zm0 0h.01H23z" class="fil1"/><path d="M18.36 12.21c-.04-.02-.06-.07-.04-.11.02-.04.07-.05.11-.03l-.07.14zm5.2 2.67l-5.2-2.67.07-.14 5.2 2.66-.07.15zm.07-.15c.04.02.06.07.04.11-.02.04-.07.06-.11.04l.07-.15zM19.65 11.23c-.04-.01-.06-.06-.04-.1.02-.04.07-.06.11-.04l-.07.14zm5.95 2.85l-5.95-2.85.07-.14 5.94 2.84-.06.15zm.06-.15c.04.02.06.07.04.11-.02.04-.06.06-.1.04l.06-.15zM21.18 10.49c-.04-.02-.05-.06-.04-.1.02-.04.07-.06.11-.04l-.07.14zm5.88 2.68l-5.88-2.68.07-.14 5.87 2.67-.06.15zm.06-.15c.04.02.06.07.04.11-.02.04-.06.06-.1.04l.06-.15zM23.04 9.96c-.04-.02-.06-.07-.04-.11.01-.04.06-.06.1-.04l-.06.15zm5.68 2.38l-5.68-2.38.06-.15 5.68 2.38-.06.15zm.06-.15c.04.02.06.07.04.11-.02.04-.06.06-.1.04l.06-.15zM23.87 8.96c-.04-.02-.06-.06-.05-.1.02-.04.06-.07.1-.05l-.05.15zm5.69 2.12l-5.69-2.12.05-.15 5.7 2.12-.06.15zm.06-.15c.04.02.06.06.05.1-.02.05-.06.07-.11.05l.06-.15zM24.11 7.65c-.04-.01-.07-.05-.05-.1.01-.04.05-.06.09-.05l-.04.15zm5.7 1.54l-5.7-1.54.04-.15 5.7 1.54-.04.15zm.04-.15c.04.01.07.06.06.1-.01.04-.06.07-.1.05l.04-.15zM24.35 6.31c-.05-.01-.08-.05-.07-.1.01-.04.05-.07.1-.06l-.03.16zm6.04 1.2l-6.04-1.2.03-.16 6.04 1.21-.03.15zm.03-.15c.04 0 .07.05.06.09-.01.04-.05.07-.09.06l.03-.15zM24.59 4.9c-.04-.01-.07-.05-.06-.1.01-.04.05-.07.09-.06l-.03.16zm5.9 1.18l-5.9-1.18.03-.16 5.9 1.19-.03.15zm.03-.15c.04 0 .07.05.06.09-.01.04-.05.07-.09.06l.03-.15zM24.92 3.28c-.04-.01-.07-.05-.06-.09.01-.05.05-.07.09-.07l-.03.16zm5.88 1.17l-5.88-1.17.03-.16 5.89 1.17-.04.16zm.04-.16c.04.01.07.05.06.1-.01.04-.05.07-.1.06l.04-.16zM25.57 1.74c-.05 0-.08-.05-.07-.09 0-.04.04-.07.09-.07l-.02.16zm5.93.85l-5.93-.85.02-.16 5.93.86-.02.15zm.02-.15c.05 0 .08.04.07.09 0 .04-.04.07-.09.06l.02-.15z" class="fil1"/><path d="M22.05 11.98c-.04.02-.09 0-.1-.04-.02-.04 0-.09.04-.11l.06.15zM32.41 1.5l-.06.15-.18-.05h-.2l-.2.06-.22.1-.23.15-.24.19-.25.23-.25.27-.27.31-.27.33-.28.37-.29.38-.3.41-.31.43-.31.44-.32.46-.33.46-.33.47-.35.47-.35.47-.36.46-.36.46-.38.45-.38.43-.39.41-.4.4-.4.37-.42.35-.42.31-.43.29-.43.24-.45.21-.06-.15.43-.2.43-.24.42-.28.41-.31.41-.34.4-.37.39-.39.39-.41.38-.43.37-.44.37-.46.35-.46.35-.47.35-.47.33-.46.33-.46.32-.46.31-.44.31-.43.3-.41.29-.39.28-.37.28-.34.27-.31.26-.27.26-.24.25-.2.24-.16.24-.11.24-.07h.23l.23.06zm0 0c.04.01.06.06.04.1-.01.04-.06.06-.1.05l.06-.15z" class="fil1"/><path d="M19.62 15.29c0 .05-.05.07-.09.07-.04-.01-.07-.05-.06-.09l.15.02zm2.37-3.46l.06.15-.12.06-.13.06-.12.06-.11.07-.12.07-.11.07-.1.07-.11.08-.1.08-.09.09-.09.08-.09.09-.09.1-.08.09-.08.1-.08.1-.08.11-.07.11-.06.11-.07.11-.06.12-.06.12-.05.12-.05.13-.05.13-.05.13-.04.13-.04.14-.04.14-.03.15-.03.14-.03.15-.15-.02.02-.16.03-.15.04-.15.04-.14.04-.14.04-.14.05-.14.05-.13.05-.13.06-.13.06-.12.06-.12.07-.12.07-.12.07-.11.08-.11.08-.11.08-.1.09-.1.09-.1.09-.09.1-.09.1-.09.11-.08.1-.09.11-.07.12-.08.11-.07.13-.07.12-.06.13-.07.13-.06zm0 0h.02-.02zM27.37.27l.04.16-.16.06-.14.11-.13.15-.13.19-.11.24-.1.27-.09.31-.09.34-.08.37-.08.39-.08.42-.07.43-.08.45-.08.47-.08.47-.1.49-.09.49-.11.48-.12.49-.14.49-.15.47-.16.47-.19.46-.2.44-.23.42-.25.4-.28.37-.31.35-.33.32-.37.29-.4.24-.43.21-.06-.15.42-.2.38-.24.36-.27.32-.31.3-.34.27-.36.24-.39.22-.41.2-.44.19-.44.16-.47.15-.47.13-.48.12-.48.11-.49.1-.48.09-.48.08-.48.08-.46.08-.45.08-.44.07-.42.08-.39.08-.38.09-.34.1-.32.11-.28.11-.25.14-.22.15-.17.17-.13.2-.08zm0 0c.04-.01.08.02.09.06.01.05-.01.09-.05.1l-.04-.16z" class="fil1"/><path fill="#c5e3d7" d="M25.17 9.82l-1.02-.47c-.07-.03-.13.04-.2.12l-.52.66c-.06.07-.01.18.05.21l.82.44c.06.03.35.04.4-.04l.53-.71c.06-.08.01-.18-.06-.21z"/><path id="1" d="M24.11 9.43l.07-.15 1.03.46-.07.15-1.03-.46zm-.22-.01l.01-.01V9.4h.01l.01-.01v-.01l.01-.01h.01v-.01l.01-.01.01-.01.01-.01.01-.01h.01v-.01H24l.01-.01.01-.01h.01l.01-.01h.02l.01-.01H24.16l.01.01h.01l-.07.15h-.02v.01h-.01v.01h-.01v.01h-.01v.01h-.01v.01h-.01v.01l-.01.01-.01.01v.01l-.13-.1zm-.4.76l-.12-.1.52-.66.13.1-.53.66zm-.04.23l-.01-.01h-.01l-.01-.01-.01-.01h-.01l-.01-.01v-.01l-.01-.01-.01-.01-.01-.01-.01-.01v-.01l-.01-.01v-.03l-.01-.01v-.03l-.01-.02v-.02l.01-.01v-.03l.01-.01v-.01l.01-.02v-.01l.01-.01.01-.01.12.1v.01l-.01.01v.01l.01.01v.02h.01v.02h.01l.01.01-.07.14zm.88.3l-.07.14-.81-.44.07-.14.81.44zm.44.07l-.01.02-.02.01-.01.01-.02.01-.01.01-.02.01h-.02l-.01.01h-.02l-.02.01h-.03l-.02.01h-.2l-.02-.01h-.04l-.01-.01h-.02l-.01-.01.07-.14h.02l.01.01h.19l.02-.01h.03l.01-.01h.02v-.01h.01l.13.09zm.39-.8l.13.1-.52.7-.13-.09.52-.71zm.05-.24l.01.01h.01l.01.01.01.01.01.01.01.01.01.01.01.01v.01l.01.01.01.01v.01l.01.01v.02l.01.01V10l-.01.01v.02l-.01.01v.01l-.01.01-.01.02-.13-.1.01-.01v-.05l-.01-.01V9.9h-.01v-.01h-.01l.07-.15z" class="fil1"/><path d="M22.97 16.7c-.44-2.69.58-7.27 4.7-6.66.92.04 1.4-.86.91-2.02-1.84-5.39 1.59-6.4 4.13-6.27 1.15.93-2.2 4.41-1.93 7.78.3 3.86-.28 4.4-1.01 4.87-2.68 1.42-6.23 2.56-6.8 2.3z" class="fil2"/><path id="1" d="M27.66 10.12h-.01l-.37-.04-.35-.01-.34.01-.31.04-.3.06-.29.09-.27.11-.25.13-.24.15-.22.17-.2.19-.2.2-.18.22-.16.23-.15.24-.14.26-.13.26-.11.27-.1.28-.09.29-.07.29-.07.3-.05.29-.04.3-.03.29-.02.3-.01.29v.29l.01.28.02.27.02.26.04.26-.16.02-.03-.26-.03-.27-.02-.28-.01-.28v-.29l.01-.3.02-.3.03-.3.04-.3.06-.31.06-.3.08-.29.09-.3.1-.28.12-.28.13-.27.14-.27.16-.25.17-.24.18-.22.2-.22.22-.19.23-.18.25-.15.27-.14.28-.12.3-.09.31-.07.33-.04.35-.01.36.01.39.04h-.01l-.01.16zm0 0h-.01.01zm1-2.13l.04.11.04.11.03.1.03.11.02.11.02.1.01.1V9.02l-.01.09-.01.08-.02.09-.02.08-.03.08-.03.07-.04.08-.04.06-.05.07-.05.06-.06.05-.05.05-.07.05-.06.04-.07.04-.07.03-.08.03-.08.02-.08.02-.09.01h-.18l.01-.16h.16l.07-.01.07-.01.07-.02.07-.03.06-.02.06-.04.05-.03.06-.04.05-.04.04-.05.04-.05.04-.06.04-.05.03-.07.03-.06.02-.07.02-.07.02-.08.01-.07.01-.09.01-.08-.01-.09v-.09l-.01-.09-.02-.1-.02-.09-.02-.1-.03-.1-.04-.11-.04-.1v-.01l.15-.05zm-.15.06v-.01.01zm4.15-6.24l.05.02-.24-.01h-.24l-.25.01-.25.01-.24.02-.25.04-.25.04-.24.05-.23.07-.24.08-.22.08-.22.11-.21.11-.2.13-.19.14-.18.16-.17.18-.15.19-.14.2-.12.23-.1.24-.09.26-.07.28-.05.31-.02.32-.01.35.02.36.05.39.07.42.09.44.13.46.16.49-.15.05-.16-.49-.13-.47-.1-.45-.07-.42-.05-.4-.02-.38.01-.36.02-.33.05-.32.08-.29.09-.28.11-.25.13-.24.14-.22.16-.2.18-.18.19-.17.2-.15.21-.14.22-.12.22-.1.24-.09.24-.08.25-.07.24-.06.26-.04.25-.03.25-.03.25-.01.25-.01h.25l.24.01.05.02-.1.12zm.05-.14h.03l.02.02-.05-.02zM30.7 9.53l-.02-.32.01-.32.02-.32.04-.32.06-.32.07-.31.08-.31.09-.31.1-.31.11-.3.12-.3.12-.29.12-.29.13-.28.13-.27.12-.27.12-.26.12-.25.11-.25.11-.23.1-.23.08-.21.08-.2.06-.2.05-.18.03-.16.01-.16v-.14l-.03-.12-.04-.11-.06-.09-.08-.09.1-.12.11.11.08.12.05.14.03.15v.16l-.02.17-.03.18-.05.19-.06.2-.08.21-.09.22-.09.22-.11.24-.11.25-.12.25-.12.26-.13.26-.13.28-.12.28-.12.28-.12.29-.12.3-.11.29-.1.31-.09.3-.08.31-.07.31-.05.31-.04.31-.02.31-.01.31.01.31-.15.01zm-.96 4.8h-.01l.07-.04.06-.05.07-.04.06-.05.06-.05.06-.05.05-.06.06-.06.05-.06.05-.08.05-.07.05-.09.04-.09.05-.1.04-.11.04-.12.03-.13.03-.14.03-.15.03-.16.02-.17.02-.19.01-.21.01-.21.01-.23v-.51l-.01-.28-.01-.3-.02-.31-.02-.33-.02-.36.15-.01.03.36.02.33.02.32.01.29.01.29v.51l-.01.23-.01.22-.02.21-.01.19-.03.18-.02.17-.03.16-.04.14-.03.14-.04.12-.04.12-.05.11-.05.1-.05.09-.05.08-.06.08-.06.08-.06.06-.06.07-.07.05-.06.06-.07.05-.07.05-.07.04-.06.05h-.01l-.07-.14zm.08.14h-.01.01zm-6.77 2.22l-.04-.06.04.01.07.01.09.01.1-.01.12-.01.14-.01.15-.03.16-.03.18-.04.18-.04.2-.05.2-.06.22-.06.22-.07.24-.07.23-.08.25-.08.25-.09.25-.09.26-.1.27-.1.26-.1.27-.11.27-.11.27-.12.27-.11.26-.12.27-.13.26-.12.26-.13.26-.13.26-.13.07.14-.26.13-.25.13-.27.13-.26.13-.27.12-.27.12-.27.12-.27.12-.27.11-.27.11-.27.1-.26.1-.26.1-.26.09-.25.09-.25.08-.24.08-.23.08-.23.06-.21.07-.21.05-.2.05-.19.05-.18.04-.16.03-.16.02-.14.02-.13.01-.11.01-.1-.01-.09-.01-.08-.03-.05-.06.16-.02zm-.11.08l-.04-.01-.01-.05.05.06z" class="fil1"/><g><path d="M24.77 14.86l1.89-.63c.08-.02.14.03.13.12l-.04.38c-.01.09-.09.18-.17.21l-1.88.63c-.09.03-.14-.03-.14-.12l.04-.38c.01-.09.09-.18.17-.21z" class="fil4"/><path id="1" d="M26.68 14.31l-1.88.63-.05-.16 1.88-.62.05.15zm.19.05l-.16-.02v-.03h-.03l-.05-.15.01-.01h.11l.01.01h.01l.01.01h.01l.01.01.01.01.01.01.01.01.01.01v.01l.01.01v.01l.01.01v.03l.01.01v.06zm-.2.36l.04-.38.16.02-.04.38-.16-.02zm-.06.3l-.05-.15v-.01h.02v-.01h.01l.01-.01.01-.01.01-.01v-.01h.01v-.01h.01v-.01l.01-.01v-.01l.01-.01v-.02h.01v-.02l.16.02v.01l-.01.01v.02l-.01.02v.02l-.01.01v.01l-.01.01v.01l-.01.01v.01l-.01.01-.01.01-.01.01v.01l-.01.01h-.01l-.01.01v.01l-.01.01-.01.01h-.01l-.01.01-.01.01h-.01l-.01.01h-.01l-.01.01h-.01l-.01.01zm-1.94.47l1.89-.62.05.15-1.89.62-.05-.15zm-.18-.04l.15.01v.03h.01v.01h.01l.01-.01.05.15-.01.01h-.03l-.02.01h-.02l-.01-.01h-.04l-.01-.01h-.01l-.01-.01-.01-.01h-.01l-.01-.01v-.01l-.01-.01-.01-.01v-.01l-.01-.01v-.01l-.01-.01v-.04l-.01-.01v-.03l.01-.01zm.19-.37l-.04.38-.15-.01.04-.39.15.02zm.07-.3l.05.16h-.02l-.01.01-.01.01h-.01v.01h-.01v.01h-.01v.01h-.01V15l-.01.01v.01l-.01.01v.01h-.01v.03l-.01.01-.15-.02v-.04l.01-.01V15l.01-.01v-.03l.01-.01.01-.01v-.01l.01-.01v-.01l.01-.01.01-.01.01-.01.01-.01.01-.01.01-.01.01-.01.01-.01.01-.01h.01l.01-.01.01-.01h.01l.01-.01h.01l.02-.01z" class="fil1"/></g><g><path d="M28.06 13.52l1.74-.64c.08-.03.14.02.13.1l-.03.36c0 .08-.07.18-.15.2l-1.74.64c-.08.03-.14-.02-.13-.1l.03-.36c0-.08.07-.18.15-.2z" class="fil4"/><path id="1" d="M29.83 12.95l-1.75.64-.05-.15 1.75-.64.05.15zm.18.04l-.16-.02v-.02h-.02l-.05-.15h.02l.01-.01h.08l.01.01h.01l.01.01h.01l.01.01h.01l.01.01.01.01v.01l.01.01.01.01v.01l.01.01v.02l.01.01V12.99zm-.19.34l.03-.36.16.02-.03.36-.16-.02zm-.04.29l-.05-.15.01-.01h.01v-.01h.01l.01-.01.01-.01.01-.01v-.01h.01v-.02h.01v-.02h.01v-.04l.16.02v.04l-.01.01v.02l-.01.01v.01l-.01.01v.01l-.01.01v.01l-.01.01v.01l-.01.01-.01.01v.01l-.01.01h-.01l-.01.01v.01l-.01.01h-.01l-.01.01-.01.01h-.01l-.01.01h-.01l-.01.01h-.01l-.01.01zm-1.8.49l1.75-.64.05.15-1.75.64-.05-.15zm-.18-.04l.16.01v.03h.02l.05.15h-.02l-.01.01H27.93l-.01-.01h-.02l-.01-.01h-.01l-.01-.01-.01-.01h-.01l-.01-.01v-.01l-.01-.01-.01-.01v-.01l-.01-.01v-.02l-.01-.01v-.07zm.19-.34l-.03.35-.16-.01.03-.36.16.02zm.04-.29l.05.15-.01.01h-.01v.01h-.01l-.01.01-.01.01-.01.01v.01h-.01v.02H28v.02h-.01v.04l-.16-.02v-.04l.01-.01v-.02l.01-.01v-.01l.01-.01v-.01l.01-.01v-.01l.01-.01v-.01l.01-.01.01-.01v-.01l.01-.01.01-.01h.01v-.01l.01-.01h.01l.01-.01.01-.01h.01l.01-.01.01-.01h.02l.01-.01z" class="fil1"/></g><g><path d="M8.59 5.91c-.23 1.05-1.28 2.67-6.66 4.56C.6 10.59-.11 9.25.18 8c.5-1.72 1.94-2.28 2.8-2.33 1.64-.12 2.63-1.58 1.08-1.56-1.15.55-2.11.02-1.59-.99 2.13-1.83 5.79-.85 6.12 2.79z" class="fil4"/><path id="1" d="M1.94 10.59l-.02-.24-.03.01.49-.18.47-.17.44-.18.41-.17.4-.17.37-.16.35-.17.33-.16.31-.16.29-.16.28-.15.25-.16.23-.15.22-.15.2-.14.19-.15.17-.14.15-.14.15-.13.12-.14.12-.13.11-.12.09-.13.08-.12.07-.11.07-.12.05-.11.05-.11.04-.1.04-.11.02-.09.03-.1.23.05-.02.11-.04.11-.03.11-.05.11-.05.12-.06.12-.07.13-.08.12-.09.13-.1.14-.11.13-.12.14-.14.14-.14.14-.17.14-.17.15-.19.15-.21.15-.22.15-.24.15-.26.16-.28.16-.29.16-.32.16-.33.17-.36.17-.37.16-.4.17-.42.18-.45.17-.47.18-.49.17-.03.01zm.03-.01l-.02.01h-.01l.03-.01zM.07 7.96l.23.07v-.01l-.02.12-.02.11-.01.11-.01.11v.22l.01.11.02.11.01.11.03.1.03.1.03.1.04.1.04.09.05.09.05.08.06.09.06.07.06.08.07.06.07.07.08.05.08.06.08.04.09.05.09.03.09.03.1.02.11.02.1.01h.11l.12-.01.02.24-.13.01h-.13l-.12-.01-.12-.02-.12-.03-.11-.03-.11-.04-.1-.05-.1-.06-.09-.06-.09-.07-.09-.07-.08-.08L.48 10l-.07-.09-.06-.1-.06-.09-.05-.11-.05-.1-.04-.11-.04-.11-.03-.11-.03-.12-.02-.11-.02-.12L0 8.71v-.25l.01-.12.01-.12.02-.13.03-.12v-.01zm0 .01v-.01.01zm2.91-2.42l.01.24-.08.01-.08.01-.08.01-.09.02-.09.01-.09.03-.1.02-.09.03-.1.03L2.1 6l-.1.04-.1.04-.1.05-.09.06-.1.05-.1.07-.09.06-.1.08-.09.07-.09.09-.09.08-.08.1-.08.09-.08.11-.08.11-.08.11-.07.12-.06.13-.06.13-.06.14-.05.15-.05.15-.23-.07.05-.16.06-.16.06-.14.06-.15.07-.13.08-.13.08-.13.08-.12.09-.11.09-.1.09-.1.1-.1.1-.09.09-.08.11-.08.1-.07.1-.07.11-.06.1-.06.11-.05.1-.05.11-.04.1-.04.11-.04.1-.03.1-.03.1-.02.09-.02.1-.02.09-.01.09-.01.09-.01zm.01.24H3h-.01zm1.13-1.57L4.01 4l.05-.01.15.01.13.01.12.02.1.03.1.03.08.05.07.05.06.07.05.07.02.08.01.09v.08l-.02.08-.03.09-.03.08-.05.08-.06.08-.07.07-.08.08-.08.07-.09.07-.1.07-.11.07-.11.06-.12.06-.13.05-.13.05-.14.05-.15.03-.15.03-.15.03-.16.01-.01-.24.14-.01.14-.02.14-.03.13-.03.13-.04.12-.05.12-.05.11-.05.1-.06.1-.06.08-.06.09-.06.07-.07.06-.06.06-.06.05-.07.04-.06.02-.06.02-.05.01-.05.01-.04-.01-.04-.01-.04-.02-.03-.03-.03-.04-.03-.05-.03-.07-.03-.08-.02-.1-.02-.12-.01h-.12l.05-.01zM4.01 4l.03-.01h.02L4.01 4zM2.4 3.03l.15.18.03-.04-.04.09-.03.08-.03.08-.02.08-.01.07v.13l.01.06.01.05.02.05.02.05.03.04.03.04.04.04.04.04.05.03.05.03.06.02.06.02.07.02.07.01.08.01h.16l.09-.01.08-.01.1-.01.09-.03.1-.03.1-.03.1-.04.1-.05.11.22-.12.05-.11.05-.11.03-.11.03-.1.03-.11.02-.1.01-.1.01h-.19l-.09-.01-.09-.02-.08-.02-.08-.02-.08-.04-.07-.04-.07-.04-.06-.05-.05-.06-.05-.06-.05-.06-.03-.08-.03-.07-.02-.08-.01-.08v-.18l.02-.09.02-.09.03-.1.04-.1.05-.1.03-.03zm-.03.03l.01-.02.02-.01-.03.03zm6.34 2.87l-.23-.05v.04l-.05-.33-.05-.31-.08-.29-.09-.28-.11-.26-.12-.25-.13-.23-.15-.22-.16-.2-.17-.19-.18-.17L7 3.04l-.2-.14-.21-.12-.21-.11-.22-.09-.22-.08-.23-.06-.23-.05-.24-.03-.23-.02h-.24l-.23.02-.24.03-.23.05-.24.06-.22.08-.23.09-.21.11-.22.13-.2.14-.2.16-.15-.18.21-.17.21-.15.23-.14.23-.11.24-.11.24-.08.25-.07.25-.05.25-.03.25-.02h.26l.25.02.25.03.25.05.24.07.24.08.23.1.23.12.22.13.21.15.21.16.19.19.18.19.17.22.16.23.14.24.13.27.11.28.1.29.08.31.06.32.04.34v.04zm0-.04l.01.02-.01.02v-.04z" class="fil5"/></g><g><path fill="#6fa691" d="M6.37 12.64L1.03 10.4c-.46-4.38 4.4-4.56 7.41-5.48l4.71 1.76-6.78 5.96z"/><path id="1" d="M1.07 10.29l5.34 2.24-.09.23-5.34-2.25-.07-.1.16-.12zm-.09.22l-.06-.03-.01-.07.07.1zm7.5-5.7l-.08.22.07.01-.29.08-.29.08-.31.08-.31.08-.32.07-.32.08-.33.08-.32.07-.33.09-.32.08-.33.09-.31.1-.31.1-.31.11-.3.11-.29.13-.27.14-.27.14-.25.16-.24.17-.22.18-.21.2-.18.21-.17.22-.15.24-.13.26-.1.28-.08.3-.06.32-.03.34V10l.03.39-.24.02-.03-.4v-.39l.03-.36.06-.34.09-.32.11-.3.14-.28.16-.26.18-.24.2-.23.22-.21.24-.19.25-.18.26-.16.28-.16.28-.14.3-.13.31-.12.31-.11.32-.1.32-.1.32-.09.33-.09.33-.08.33-.08.32-.07.32-.08.32-.08.31-.07.3-.08.3-.08.28-.08h.08zm-.08 0l.04-.02.04.02H8.4zm4.71 1.98L8.4 5.03l.08-.22 4.71 1.76.04.2-.12.02zm.08-.22l.19.07-.15.13-.04-.2zm-6.9 5.99l6.78-5.97.16.18-6.79 5.96-.12.03-.03-.2zm.15.17l-.05.05-.07-.02.12-.03z" class="fil5"/></g><g><path d="M14.96 8.25c-.23 1.06-2.82 2.56-8.2 4.45-1.33.12-2.04-1.22-1.75-2.47.56-1.75 2.64-2.27 4.34-2.21 1.75.1 2.7-1.53 1.08-1.57-1.16.55-2.11.02-1.59-.99 2.12-1.83 5.78-.85 6.12 2.79z" class="fil4"/><path id="1" d="M6.77 12.82l-.02-.24h-.03l.49-.17.48-.17.47-.18.44-.17.43-.16.42-.17.4-.16.38-.16.37-.15.35-.16.34-.15.32-.15.3-.15.29-.14.27-.14.26-.14.24-.14.23-.14.22-.13.19-.13.19-.12.16-.13.16-.12.14-.12.12-.11.11-.11.09-.11.08-.1.07-.1.05-.1.04-.09.02-.09.23.05-.03.12-.05.11-.06.12-.07.11-.09.12-.11.12-.11.12-.14.12-.14.13-.16.12-.17.13-.19.13-.21.13-.21.14-.24.14-.24.14-.27.14-.27.14-.29.15-.31.15-.32.15-.34.15-.36.16-.37.15-.38.16-.4.17-.42.16-.43.17-.45.17-.46.17-.48.17-.5.18-.03.01zm.03-.01l-.02.01h-.01l.03-.01zm-1.9-2.62l.23.07v-.01l-.02.11-.02.12-.01.11-.01.11v.22l.01.11.02.11.01.1.03.11.03.1.03.1.04.09.04.1.05.09.05.08.05.08.06.08.07.07.07.07.07.06.08.06.07.06.09.04.09.04.09.04.09.03.1.02.1.02H6.75l.02.24h-.26l-.12-.01-.12-.01-.12-.03-.11-.03-.11-.05-.1-.04-.1-.06-.09-.06-.09-.07-.09-.07-.08-.08-.07-.09-.07-.09-.06-.09-.06-.1-.05-.1-.05-.1-.05-.11-.03-.11-.03-.11-.03-.12-.02-.12-.02-.11-.01-.12v-.25l.01-.12.01-.13.02-.12.03-.12v-.01zm0 .01v-.01.01zm4.46-2.3l-.02.24-.15-.01h-.16l-.16.01H8.7l-.16.02-.16.01-.17.02-.16.02-.16.03-.16.03-.16.04-.16.04-.16.04-.15.05-.15.06-.15.06-.15.06-.14.07-.13.07-.14.08-.12.09-.12.09-.12.1-.11.1-.11.11-.09.11-.1.12-.08.13-.08.13-.07.14-.06.15-.05.15-.23-.07.06-.17.07-.16.07-.15.09-.15.09-.14.1-.13.11-.12.11-.12.12-.11.13-.11.13-.1.14-.09.14-.08.14-.08.15-.08.15-.07.16-.06.16-.05.16-.06.16-.04.17-.05.17-.03.16-.04.17-.03.17-.02.17-.02.17-.01.17-.01.17-.01.16-.01h.17l.16.01h.01zm-.01 0h.01-.01zm1.13-1.34l-.1-.21.05-.02.15.01.14.02.13.03.11.03.1.05.09.05.08.07.06.07.05.08.03.08.01.09V7l-.01.09-.03.09-.04.09-.04.08-.06.09-.07.08-.08.08-.09.07-.09.07-.11.07-.11.06-.12.06-.12.05-.14.05-.14.04-.14.03-.16.02-.16.02h-.33l.02-.24h.3l.14-.02.14-.02.14-.03.12-.03.12-.04.12-.05.1-.05.1-.05.09-.06.08-.07.08-.06.06-.06.06-.07.04-.07.04-.06.03-.06.01-.06.01-.06v-.09l-.02-.05-.03-.04-.03-.04-.05-.04-.06-.04-.07-.03-.09-.03-.11-.02-.12-.02-.14-.01.06-.01zm-.1-.21l.02-.02h.03l-.05.02zm-1.62-.98l.15.18.03-.03-.04.08-.03.09-.03.07-.01.08-.02.07v.13l.01.06.01.05.02.05.03.05.02.04.04.05.03.03.05.04.05.03.05.03.05.02.07.02.06.02.07.01.08.01h.25l.09-.01.09-.02.09-.02.1-.03.1-.04.1-.04.11-.04.1.21-.11.05-.12.05-.11.03-.1.04-.11.02-.1.02-.11.02H9.43l-.09-.01-.09-.01-.08-.03-.08-.02-.08-.04-.07-.03-.06-.05-.07-.05-.05-.05-.05-.07-.04-.06-.04-.07-.03-.08-.01-.08-.02-.08v-.09l.01-.09.01-.09.02-.09.03-.1.04-.09.05-.1.03-.04zm-.03.04l.01-.03.02-.01-.03.04zm6.34 2.86l-.23-.05v.04l-.04-.33-.06-.31-.08-.29-.09-.28-.1-.26-.13-.25-.13-.23-.15-.22-.16-.2-.17-.18-.18-.17-.19-.16-.2-.14-.2-.12-.22-.11-.21-.09-.23-.08-.23-.06-.23-.05-.23-.03-.24-.02h-.23l-.24.02-.24.03-.23.05-.23.06-.23.08-.22.1-.22.11-.21.12-.21.14-.2.16-.15-.18.21-.17.22-.15.22-.13.24-.12.23-.1.25-.09.24-.06.25-.05.25-.04.26-.02h.25l.25.02.25.03.25.05.24.07.24.08.24.1.22.12.22.13.22.15.2.17.19.18.18.2.17.21.16.23.15.25.12.26.12.28.09.29.08.31.06.33.05.34-.01.03zm.01-.03v.02l-.01.01.01-.03z" class="fil5"/></g></g></svg>