<svg xmlns="http://www.w3.org/2000/svg" width="76" height="70" fill-rule="evenodd" clip-rule="evenodd" image-rendering="optimizeQuality" shape-rendering="geometricPrecision" text-rendering="geometricPrecision" viewBox="0 0 11.11 10.25"><defs><style>.fil3{fill:#c4d985}.fil0{fill:#a1b567}.fil1,.fil4{fill:#2b2a29;fill-rule:nonzero}</style></defs><g id="Слой_x0020_1"><path d="M5.4 3.9c1.27.51 2.55 1.02 3.83 1.53.13-2.08-.12-3.73-1.47-4.05-1.42-.3-2.25.46-2.36 2.52z" class="fil0"/><path id="1" d="M9.21 5.42l.04.01-.03.02-.12-.05-.12-.05-.12-.04-.12-.05-.12-.05-.12-.05-.12-.05-.12-.04-.12-.05-.12-.05-.12-.05-.12-.04-.12-.05-.12-.05-.12-.05-.12-.04-.12-.05-.12-.05-.12-.05-.12-.05-.12-.04-.12-.05-.12-.05-.12-.05-.12-.04-.12-.05-.11-.05-.12-.05-.12-.05-.12-.04-.12-.05-.12-.05.01-.04.12.04.12.05.12.05.12.05.12.04.12.05.12.05.12.05.12.04.12.05.12.05.12.05.12.05.12.04.12.05.12.05.12.05.12.04.12.05.12.05.12.05.12.05.12.04.12.05.12.05.12.05.12.04.12.05.12.05.12.05.12.04.12.05-.03.02zm.04.01v.03l-.03-.01.03-.02zm-1.5-4.02l.01-.05.13.03.12.05.11.05.11.05.1.07.09.07.09.08.09.08.07.09.08.1.06.1.06.11.06.12.05.12.05.13.04.13.04.13.04.15.03.14.02.15.02.16.02.16.02.16.01.17.01.17v.72l-.01.19v.19l-.02.2-.04-.01.01-.19v-.19l.01-.19v-.72l-.01-.17-.01-.16-.02-.17-.02-.16-.02-.15-.02-.15-.03-.14-.04-.14-.03-.14-.05-.13-.04-.12-.05-.12-.06-.11-.06-.11-.07-.1-.07-.1-.07-.09-.08-.08-.09-.07-.09-.07-.1-.06-.1-.06-.11-.05-.12-.04-.12-.03zm.01-.05zM5.4 3.88l-.01.04-.02-.02.01-.19.02-.19.02-.17.03-.17.03-.16.03-.15.04-.15.04-.13.05-.13.05-.13.05-.11.06-.11.06-.11.07-.09.07-.09.07-.08.08-.08.08-.06.09-.06.09-.06.09-.05.1-.04.1-.03.1-.02.11-.02.11-.02h.36l.12.02.13.02.13.02-.01.05-.13-.03-.13-.02-.12-.01h-.35l-.1.01-.11.02-.1.03-.1.03-.09.04-.09.05-.09.05-.08.06-.08.06-.07.07-.08.08-.06.09-.07.09-.06.1-.05.11-.06.11-.05.12-.04.13-.04.14-.04.14-.03.15-.03.16-.03.17-.02.17-.02.18-.01.19-.02-.02zm-.01.04l-.02-.01V3.9l.02.02z" class="fil1"/><path fill="#c5e3d7" d="M.91 5.24c2.18-.65 4.37-1.31 6.55-1.96 2.07-.22 3.07.4 3.29 1.62-2.16.75-4.32 1.5-6.47 2.26-.85.38-1.72.72-2.71.22-.44-.31-.78-.54-1.2-.84-.55-.36-.45-.84.54-1.3z"/><path id="1" d="M7.46 3.25v.05h.01l-.21.06-.2.07-.21.06-.2.06-.21.06-.2.06-.21.06-.2.06-.21.07-.2.06-.21.06-.2.06-.2.06-.21.06-.2.06-.21.07-.2.06-.21.06-.2.06-.21.06-.2.06-.21.06-.2.07-.21.06-.2.06-.21.06-.2.06-.21.06-.2.06-.21.06-.2.07-.21.06-.01-.05.21-.06.2-.06.2-.06.21-.07.2-.06.21-.06.2-.06.21-.06.2-.06.21-.06.2-.07.21-.06.2-.06.21-.06.2-.06.21-.06.2-.06.21-.06.2-.07.21-.06.2-.06.21-.06.2-.06.21-.06.2-.06.2-.07.21-.06.2-.06.21-.06.2-.06.21-.06.2-.06.01-.01zm-.01.01h.01v-.01l-.01.01zm3.3 1.66l-.01-.05-.02.03-.02-.11-.03-.11-.03-.1-.04-.1-.04-.1-.04-.09-.05-.09-.06-.09-.06-.08-.06-.08-.07-.07-.08-.07-.08-.07-.09-.06-.09-.06-.09-.05-.11-.05-.1-.04-.12-.05-.11-.03-.13-.03-.13-.03-.13-.03-.15-.02-.14-.01-.16-.01-.16-.01h-.33l-.18.01-.19.02-.19.01v-.05l.19-.01.18-.02h.18l.18-.01h.16l.17.01.15.01.15.01.14.02.14.03.13.03.13.03.12.04.12.04.11.05.1.05.1.05.09.06.09.06.08.07.08.07.07.08.07.08.06.08.06.09.05.09.05.1.04.1.04.1.03.11.03.11.02.11-.02.03zm.02-.03v.02l-.02.01.02-.03zM4.29 7.18l-.02-.05.2-.07.21-.07.2-.07.2-.07.2-.07.2-.07.21-.07.2-.07.2-.07.2-.07.2-.07.21-.08.2-.07.2-.07.2-.07.2-.07.21-.07.2-.07.2-.07.2-.07.2-.07.21-.07.2-.07.2-.07.2-.07.2-.07.21-.07.2-.08.2-.07.2-.07.21-.07.2-.07.01.05-.2.07-.2.07-.2.07-.2.07-.21.07-.2.07-.2.07-.2.07-.2.08-.21.07-.2.07-.2.07-.2.07-.21.07-.2.07-.2.07-.2.07-.2.07-.21.07-.2.07-.2.07-.2.07-.2.07-.21.07-.2.07-.2.08-.2.07-.2.07-.21.07-.2.07-.2.07-.2.07zm-.02-.05zm-2.72.27l.03-.04.09.04.09.04.09.04.09.03.09.02.09.02.09.02.08.02.09.01h.09l.08.01h.09l.08-.01h.09l.08-.01.08-.01.09-.02.08-.01.08-.02.08-.02.08-.03.08-.02.09-.03.08-.03.08-.03.08-.03.08-.03.08-.04.08-.03.08-.04.08-.03.08-.04.02.05-.08.03-.08.04-.08.04-.08.03-.08.03-.08.04-.08.03-.09.03-.08.03-.08.02-.08.03-.09.02-.08.02-.08.02-.09.02-.08.02-.08.01-.09.01h-.09l-.08.01h-.09l-.09-.01h-.08l-.09-.01-.09-.02-.09-.02-.09-.02-.09-.03-.09-.03-.1-.03-.09-.04-.09-.05h-.01zm.01 0h-.01.01zM.35 6.56l.03-.04.04.03.04.03.04.02.04.03.03.03.04.02.04.03.04.03.03.02.04.03.04.02.03.03.04.02.03.03.04.02.04.03.03.02.04.03.03.02.04.03.04.02.03.03.04.03.04.02.04.03.03.03.04.02.04.03.04.03.04.02.04.03.04.03-.03.04-.04-.03-.04-.02-.04-.03-.04-.03-.04-.03-.03-.02-.04-.03-.04-.03-.04-.02-.03-.03-.04-.02-.04-.03-.03-.03-.04-.02L.98 7l-.03-.02-.04-.03-.03-.02-.04-.03-.04-.02-.03-.03-.04-.02-.04-.03-.03-.02-.04-.03-.04-.03-.03-.02-.04-.03-.04-.02-.04-.03-.04-.03-.04-.03zm.03-.04zm.52-1.3l.01.05h.01l-.09.04-.09.04-.07.04-.08.05-.07.04-.06.04-.06.04-.05.05-.05.04-.05.04-.04.04-.03.04-.03.05-.03.04-.02.04-.01.04-.02.04v.04l-.01.03v.04l.01.04.01.04.01.03.01.04.03.04.02.03.03.04.03.04.04.03.04.04.04.03.05.03-.03.04-.05-.03-.04-.04-.05-.03-.04-.04-.03-.04-.03-.04-.03-.04-.02-.04-.02-.04-.01-.04-.01-.04-.01-.05v-.04l.01-.04.01-.05.01-.04.02-.04.02-.05.03-.04.03-.05.04-.04.04-.04.04-.05.05-.04.06-.05.06-.04.07-.04.07-.05.07-.04.08-.04.09-.05.09-.04zm0 0z" class="fil1"/><path d="M.91 5.24l3.56-1.06 3.26 1.77-3.45 1.21c-.85.38-1.72.72-2.71.22-.44-.31-.78-.54-1.2-.84-.55-.36-.45-.84.54-1.3z" class="fil3"/><path id="1" d="M4.48 4.2L.91 5.27.9 5.22l3.57-1.07h.01v.05zm-.01-.05h.01-.01zm3.25 1.82L4.46 4.2l.02-.05 3.27 1.78-.01.04h-.02zm.03-.04l.05.02-.06.02.01-.04zm-3.48 1.2l3.46-1.21.01.05-3.45 1.21-.02-.05zm0 0zm-2.72.27l.03-.04.09.04.09.04.09.04.09.03.09.02.09.02.09.02.08.02.09.01h.09l.08.01h.09l.08-.01h.09l.08-.01.08-.01.09-.02.08-.01.08-.02.08-.02.08-.03.08-.02.09-.03.08-.03.08-.03.08-.03.08-.03.08-.04.08-.03.08-.04.08-.03.08-.04.02.05-.08.03-.08.04-.08.04-.08.03-.08.03-.08.04-.08.03-.09.03-.08.03-.08.02-.08.03-.09.02-.08.02-.08.02-.09.02-.08.02-.08.01-.09.01h-.09l-.08.01h-.09l-.09-.01h-.08l-.09-.01-.09-.02-.09-.02-.09-.02-.09-.03-.09-.03-.1-.03-.09-.04-.09-.05h-.01zm.01 0h-.01.01zM.35 6.56l.03-.04.04.03.04.03.04.02.04.03.03.03.04.02.04.03.04.03.03.02.04.03.04.02.03.03.04.02.03.03.04.02.04.03.03.02.04.03.03.02.04.03.04.02.03.03.04.03.04.02.04.03.03.03.04.02.04.03.04.03.04.02.04.03.04.03-.03.04-.04-.03-.04-.02-.04-.03-.04-.03-.04-.03-.03-.02-.04-.03-.04-.03-.04-.02-.03-.03-.04-.02-.04-.03-.03-.03-.04-.02L.98 7l-.03-.02-.04-.03-.03-.02-.04-.03-.04-.02-.03-.03-.04-.02-.04-.03-.03-.02-.04-.03-.04-.03-.03-.02-.04-.03-.04-.02-.04-.03-.04-.03-.04-.03zm.03-.04zm.52-1.3l.01.05h.01l-.09.04-.09.04-.07.04-.08.05-.07.04-.06.04-.06.04-.05.05-.05.04-.05.04-.04.04-.03.04-.03.05-.03.04-.02.04-.01.04-.02.04v.04l-.01.03v.04l.01.04.01.04.01.03.01.04.03.04.02.03.03.04.03.04.04.03.04.04.04.03.05.03-.03.04-.05-.03-.04-.04-.05-.03-.04-.04-.03-.04-.03-.04-.03-.04-.02-.04-.02-.04-.01-.04-.01-.04-.01-.05v-.04l.01-.04.01-.05.01-.04.02-.04.02-.05.03-.04.03-.05.04-.04.04-.04.04-.05.05-.04.06-.05.06-.04.07-.04.07-.05.07-.04.08-.04.09-.05.09-.04zm0 0z" class="fil1"/><path d="M9.99 3.67c.89.03 1.05.63.96 1.52-.08.73-.34 1.88-.47 1.9-2.15.75-3.7 1.9-5.85 2.66-.86.38-1.72.72-2.71.22-.44-.31-.8-.91-1.22-1.2C.58 8.64.15 6.9.06 6.2c.05.12.15.24.31.34.42.3.76.53 1.2.84.99.5 1.86.16 2.71-.22 2.15-.76 4.31-1.51 6.47-2.26-.1-.54-.34-.95-.76-1.23zM.05 5.98c0-.03.01-.05.01-.05 0 .01-.01.03-.01.05z" class="fil0"/><path id="1" d="M10.97 5.19h-.05l.01-.08.01-.08v-.08l.01-.08V4.72l-.01-.07v-.07l-.01-.06-.01-.07-.01-.06-.01-.06-.02-.05-.02-.06-.02-.05-.03-.05-.02-.05-.03-.04-.03-.05-.04-.03-.04-.04-.04-.04-.05-.03-.04-.03-.06-.02-.05-.02-.06-.02-.06-.02-.07-.02-.07-.01-.08-.01h-.08v-.05l.09.01h.07l.08.01.07.02.06.02.07.02.05.02.06.03.05.03.05.03.04.04.05.04.03.04.04.05.03.05.03.05.02.05.03.05.02.06.01.06.02.06.01.07.01.06.01.07v.07l.01.07V4.87l-.01.08v.08l-.01.08-.01.08zm-.48 1.92l-.01-.05.01-.01.01-.01.02-.02.01-.03.02-.03.01-.04.02-.04.01-.05.02-.05.02-.06.01-.06.02-.06.02-.06.02-.07.01-.07.02-.07.02-.08.01-.07.02-.08.01-.08.02-.08.01-.07.02-.08.01-.08.01-.08.02-.08.01-.07.01-.08.01-.07.01-.07v-.07h.05v.07l-.01.07-.01.08-.01.07-.01.08-.02.08-.01.08-.01.08-.02.07-.01.08-.02.08-.01.08-.02.08-.02.07-.01.08-.02.07-.02.07-.01.07-.02.06-.02.07-.02.06-.01.05-.02.06-.02.04-.01.05-.02.04-.01.03-.02.03-.02.03-.01.02-.02.01-.02.01zm-.01-.05zM4.64 9.77l-.02-.05.2-.07.2-.07.19-.08.19-.08.19-.08.18-.08.19-.08.18-.08.18-.09.18-.09.17-.08.18-.09.17-.09.18-.09.17-.09.17-.09.18-.09.17-.08.18-.09.17-.09.18-.09.17-.09.18-.08.18-.09.18-.08.19-.09.18-.08.19-.08.19-.08.2-.07.2-.08.2-.07.01.05-.2.07-.19.07-.2.08-.19.08-.19.08-.18.08-.18.08-.19.09-.18.08-.17.09-.18.08-.18.09-.17.09-.18.09-.17.09-.17.09-.18.09-.17.09-.17.09-.18.08-.18.09-.17.09-.18.09-.18.08-.18.08-.19.09-.18.08-.19.08-.19.08-.2.07-.19.08-.2.07zm-.02-.05zm-2.72.27l.03-.04.09.04.09.04.09.04.09.03.09.02.09.02.08.02.09.02.09.01h.08l.09.01h.08l.09-.01h.08l.09-.01.08-.01.08-.02.09-.01.08-.02.08-.02.08-.03.08-.02.08-.03.08-.03.09-.03.08-.03.08-.03.08-.04.08-.03.08-.04.08-.03.08-.04.02.05-.08.03-.08.04-.08.04-.08.03-.08.03-.09.04-.08.03-.08.03-.08.03-.08.02-.08.03-.09.02-.08.02-.08.02-.09.02-.08.02-.09.01-.08.01h-.09l-.08.01H2.9l-.09-.01h-.09l-.08-.01-.09-.02-.09-.02-.09-.02-.09-.03-.1-.03-.09-.03-.09-.04-.1-.05zm0 0zM.68 8.78l.03-.03.04.03.04.03.04.03.04.03.04.04.04.04.03.03.04.04.04.04.04.04.03.04.04.04.04.04.04.05.03.04.04.04.04.04.03.04.04.05.04.04.03.04.04.04.04.04.04.04.03.04.04.03.04.04.04.04.04.03.04.03.04.03.04.03-.03.04-.04-.03-.04-.03-.04-.03-.04-.04-.04-.03-.04-.04-.04-.04-.04-.04-.04-.04-.03-.04-.04-.04-.04-.04-.04-.04-.03-.04-.04-.05-.04-.04-.04-.04-.03-.04-.04-.04-.04-.05-.03-.04-.04-.04-.04-.04-.03-.03-.04-.04-.04-.04-.04-.03-.03-.04-.04-.03-.04-.03-.04-.03-.04-.03v-.01zm0 .01v-.01.01zm-.6-2.6l-.04.02.05-.01.01.07.01.07.01.08.01.08.02.09.02.09.01.1.02.09.03.1.02.1.02.11.02.1.03.1.02.11.03.1.02.1.03.1.02.1.03.09.02.1.02.09.03.08.02.08.02.07.02.07.03.07.01.05.02.05.02.04.01.04.02.02v.01l-.03.03-.02-.02-.01-.02-.02-.04-.01-.04-.02-.05-.02-.06-.02-.06-.02-.07-.03-.08-.02-.08-.02-.08-.03-.09L.42 8l-.03-.1-.02-.1-.03-.1-.02-.1-.03-.1-.02-.11-.02-.1-.03-.1-.02-.11-.02-.1-.02-.1-.02-.09-.02-.1L.1 6.6l-.02-.09-.01-.08-.01-.08-.01-.08-.01-.06.04-.02zm-.04.02l-.03-.22.07.2-.04.02zm.34.31l-.03.04-.01-.01-.02-.01-.01-.01-.02-.01-.01-.01-.01-.01-.02-.01-.01-.01-.01-.01-.01-.01-.01-.01-.02-.01-.01-.01-.01-.01-.01-.01-.01-.01-.01-.01-.01-.02-.01-.01v-.01l-.01-.01-.01-.01-.01-.01-.01-.01v-.02l-.01-.01-.01-.01v-.01l-.01-.01v-.01l-.01-.02v-.01l.04-.02.01.02v.01l.01.01v.01l.01.01v.01l.01.01.01.01v.01l.01.01.01.01.01.01v.01l.01.01.01.01.01.01.01.01.01.01.01.01.01.01.01.01.01.01.01.01.01.01.02.01.01.01.01.01.01.01.02.01.01.01.02.01.01.01zm0 0zm1.2.84l-.02.04h-.01l-.04-.03-.04-.02-.04-.03-.04-.03-.04-.03-.03-.02-.04-.03-.04-.03-.04-.02-.03-.03-.04-.02-.04-.03-.03-.03-.04-.02L.98 7l-.03-.02-.04-.03-.03-.02-.04-.03-.04-.02-.03-.03-.04-.02-.04-.03-.03-.02-.04-.03-.04-.03-.03-.02-.04-.03-.04-.02-.04-.03-.04-.03-.04-.03.03-.04.04.03.04.03.04.02.04.03.03.03.04.02.04.03.04.03.03.02.04.03.04.02.03.03.04.02.03.03.04.02.04.03.03.02.04.03.03.02.04.03.04.02.03.03.04.03.04.02.04.03.03.03.04.02.04.03.04.03.04.02.04.03.04.03zm-.02.04h-.01.01zm2.71-.27l.02.05-.08.03-.08.04-.08.04-.08.03-.08.03-.08.04-.08.03-.09.03-.08.03-.08.02-.08.03-.09.02-.08.02-.08.02-.09.02-.08.02-.08.01-.09.01h-.09l-.08.01h-.09l-.09-.01h-.08l-.09-.01-.09-.02-.09-.02-.09-.02-.09-.03-.09-.03-.1-.03-.09-.04-.09-.05.02-.04.09.04.09.04.09.04.09.03.09.02.09.02.09.02.08.02.09.01h.09l.08.01h.09l.08-.01h.09l.08-.01.08-.01.09-.02.08-.01.08-.02.08-.02.08-.03.08-.02.09-.03.08-.03.08-.03.08-.03.08-.03.08-.04.08-.03.08-.04.08-.03.08-.04zm0 0zm6.45-2.23l.05-.01-.02.03-.2.07-.2.07-.2.07-.2.07-.21.07-.2.07-.2.07-.2.07-.2.08-.21.07-.2.07-.2.07-.2.07-.21.07-.2.07-.2.07-.2.07-.2.07-.21.07-.2.07-.2.07-.2.07-.2.07-.21.07-.2.07-.2.08-.2.07-.2.07-.21.07-.2.07-.2.07-.2.07-.02-.05.2-.07.21-.07.2-.07.2-.07.2-.07.2-.07.21-.07.2-.07.2-.07.2-.07.2-.07.21-.08.2-.07.2-.07.2-.07.2-.07.21-.07.2-.07.2-.07.2-.07.2-.07.21-.07.2-.07.2-.07.2-.07.2-.07.21-.07.2-.08.2-.07.2-.07.21-.07.2-.07-.02.03zm.05-.01v.02l-.02.01.02-.03zm-.78-1.25v.05l.02-.05.04.03.03.03.04.03.04.03.03.03.04.03.03.03.03.03.03.04.03.03.03.04.03.03.02.04.03.04.03.04.02.03.02.04.03.04.02.05.02.04.02.04.02.04.01.05.02.04.02.05.01.04.01.05.02.05.01.04.01.05.01.05.01.05-.05.01-.01-.05-.01-.05-.01-.04-.01-.05-.01-.05-.02-.04-.01-.05-.02-.04-.01-.05-.02-.04-.02-.04-.02-.04-.02-.04-.02-.04-.02-.04-.02-.04-.03-.04-.02-.03-.03-.04-.02-.04-.03-.03-.03-.04-.03-.03-.03-.03-.03-.03-.03-.03-.03-.03-.04-.03-.03-.03-.04-.03-.03-.03-.04-.02.01-.05zm-.01.05l-.07-.05h.08l-.01.05zM.09 5.93l-.05-.01.04.03v-.01.01-.01.01-.01.02H.07v.02H.02v-.02h.01v-.04h.01v-.01h.01l.04.02zm-.04-.02l.07-.05-.03.07-.04-.02zm.01.02h.03-.03zm-.01-.02l.07-.05-.03.07-.04-.02zm-.03.07h.05-.05v-.01h.01v-.03l.01-.01v-.01l.05.01v.01H.08v.03l-.01.01v.01l-.05-.01zm.05.01L0 6.31l.02-.33.05.01z" class="fil1"/><g><path d="M8.99 5.33c.1.18.2.29.29.3.54.06 1.37-.3 1.76-.48.13-2.08.04-3.01-1.09-3.45-.62-.13-1.03-.48-1.86-.45-.38-.02-.7.01-.97.07.2-.01.41.02.64.06 1.35.32 1.6 1.97 1.47 4.05l-.24-.1z" class="fil3"/><path id="1" d="M9.29 5.61l-.01.05-.01-.01h-.02l-.01-.01h-.02l-.01-.01-.01-.01h-.01l-.01-.01-.01-.01h-.01l-.01-.01-.01-.01-.01-.01-.01-.01-.01-.01-.01-.01-.01-.01-.01-.02-.01-.01-.01-.01-.01-.01-.01-.02v-.01l-.01-.01-.01-.02-.01-.01L9 5.39l-.01-.01-.01-.02-.01-.02.04-.02.01.01.01.02.01.02.01.01.01.01.01.02.01.01.01.02v.01l.01.01.01.01.01.01.01.02.01.01.01.01h.01v.01l.01.01.01.01.01.01h.01l.01.01.01.01.01.01h.01l.01.01h.03l.01.01zm-.01.05zm1.74-.51h.04l-.01.02-.04.02-.04.02-.04.02-.05.02-.04.02-.05.02-.05.02-.05.02-.06.02-.05.03-.06.02-.06.02-.06.02-.06.02-.06.02-.06.02-.06.02-.06.02-.06.02-.06.02-.06.01-.06.02-.07.01-.06.01-.06.01-.05.01h-.06l-.06.01H9.28l.01-.05H9.5l.05-.01h.06l.06-.01.06-.01.06-.01.05-.01.07-.02.06-.01.06-.02.06-.02.06-.01.06-.02.06-.02.06-.02.06-.03.06-.02.05-.02.06-.02.05-.02.06-.02.05-.03.05-.02.05-.02.04-.02.05-.02.04-.02.04-.02.04-.01-.01.02zm.04 0v.01l-.01.01.01-.02zM9.94 1.72l.01-.05.01.01.1.04.1.04.09.05.09.06.08.05.08.06.07.07.06.06.06.07.06.08.05.08.05.08.04.09.04.09.03.1.03.1.03.11.02.11.02.11.01.13.02.12.01.13v.14l.01.14v.47l-.01.16-.01.17v.18l-.01.19-.02.19h-.04l.01-.19.01-.19v-.18l.01-.17.01-.17V3.79l-.01-.14v-.13l-.01-.13-.02-.13-.01-.12-.02-.11-.02-.11-.03-.11-.03-.09-.03-.1-.04-.09-.04-.08-.04-.08-.05-.08-.06-.07-.05-.07-.07-.07-.07-.06-.07-.06-.08-.05-.08-.05-.09-.05-.1-.05-.1-.04zm.01-.05l.01.01-.01-.01zm-1.86-.4v-.05H8.31l.07.01h.07l.07.01.06.01.07.01.06.01.06.02.06.01.06.02.05.01.06.02.05.02.06.02.05.02.05.02.05.02.06.02.05.02.05.02.05.02.05.01.05.02.06.02.05.02.05.02.06.01.05.02.06.01.05.01-.01.05-.05-.01-.06-.01-.06-.02-.05-.02-.06-.01-.05-.02-.05-.02-.05-.02-.06-.02-.05-.02-.05-.02-.05-.02-.05-.02-.06-.02-.05-.02-.05-.01-.05-.02-.06-.02-.05-.02-.06-.01-.05-.02-.06-.01-.06-.02-.06-.01-.06-.01-.07-.01-.06-.01h-.07l-.07-.01H8.09zm0 0zm-.97.03v.05l-.01-.05.03-.01h.02l.03-.01h.03l.02-.01h.03l.03-.01h.03l.02-.01h.03l.03-.01h.06l.03-.01h.09l.03-.01h.47v.05H7.62l-.03.01H7.5l-.03.01h-.05l-.03.01h-.03l-.03.01h-.05l-.03.01h-.02l-.03.01h-.03l-.02.01-.03.01V1.3zm0 .05l-.25.01.24-.06.01.05zm.64.01l-.01.05-.02-.01h-.04l-.02-.01h-.02l-.02-.01h-.05l-.02-.01H7.5l-.02-.01H7.4l-.02-.01H7.12V1.3H7.39l.02.01h.08l.02.01h.04l.02.01h.04l.02.01h.05l.02.01h.02l.02.01h.02zm0 0zm1.46 4.09l.02-.05-.03.02.01-.19v-.19l.01-.19v-.72l-.01-.17-.01-.16-.02-.17-.02-.16-.02-.15-.02-.15-.03-.14-.04-.14-.03-.14-.05-.13-.04-.12-.05-.12-.06-.11-.06-.11-.07-.1-.07-.1-.07-.09-.08-.08-.09-.07-.09-.07-.1-.06-.1-.06-.11-.05-.12-.04-.12-.03.01-.05.13.03.12.05.11.05.11.05.1.07.09.07.09.08.09.08.07.09.08.1.06.1.06.11.06.12.05.12.05.13.04.13.04.13.04.15.03.14.02.15.02.16.02.16.02.16.01.17.01.17v.72l-.01.19v.19l-.02.2-.03.02zm.03-.02v.03l-.03-.01.03-.02zM9 5.31l.24.09-.02.05-.24-.1-.01-.01.03-.03zm-.03.03l-.03-.06.06.03-.03.03z" class="fil1"/></g><path d="M4.13.22c-.02-.1.05-.2.15-.22.1-.02.2.05.22.15l1.25 6.52v2.68c0 .1-.08.18-.18.18-.11 0-.19-.08-.19-.18V6.73L4.13.22z" class="fil4"/><path d="M4.31.42c-.06-.08-.05-.2.03-.26s.2-.05.26.03l4.26 5.3.04.1.21 2.21c.01.1-.07.19-.17.2-.1.01-.19-.07-.2-.17l-.2-2.15L4.31.42z" class="fil4"/><path d="M4.15.11c.04-.09.15-.14.24-.09.09.04.14.15.09.24L2.41 4.92c-.04.09-.15.13-.24.09-.1-.04-.14-.15-.1-.24L4.15.11z" class="fil4"/></g></svg>