<svg xmlns="http://www.w3.org/2000/svg" width="70" height="67" fill-rule="evenodd" clip-rule="evenodd" image-rendering="optimizeQuality" shape-rendering="geometricPrecision" text-rendering="geometricPrecision" viewBox="0 0 17.92 17.07"><defs><style>.fil6{fill:#f5b2b6}.fil7{fill:#c5e3d7}.fil3{fill:#c4d985}.fil0{fill:#a1b567}.fil1,.fil5{fill:#2b2a29;fill-rule:nonzero}</style></defs><g id="Слой_x0020_1"><path d="M8.53 5.41c2.68-.73 3.64.2 4.12.84.17-2.82-1.94-5.28-3.78-5.71-1.91-.41-2.5.91-.34 4.87z" class="fil0"/><path id="1" d="M12.6 6.25h.09l-.08.02-.04-.06-.05-.06-.05-.06-.06-.06-.06-.06-.06-.07-.07-.06-.07-.06-.07-.06-.08-.06-.09-.06-.09-.05-.1-.05-.1-.05-.11-.05-.11-.04-.12-.04-.13-.03-.13-.03-.14-.03-.15-.02-.16-.01-.16-.01h-.35l-.19.01-.2.02-.21.03-.22.04-.22.04-.24.06-.24.06-.03-.09.25-.06.24-.05.23-.05.22-.03.21-.03.2-.02.19-.01.19-.01h.17l.17.01.16.02.15.02.15.02.13.03.14.04.12.04.12.04.11.05.1.05.1.05.1.06.09.06.08.06.08.06.07.07.07.06.07.07.06.06.05.06.06.07.05.06.04.06-.08.03zm.09 0l-.01.12-.07-.1.08-.02zM8.86.59L8.88.5l.18.05.17.06.18.07.18.08.17.09.18.1.17.11.18.12.17.14.16.14.17.15.16.15.16.17.15.17.15.19.14.19.13.19.13.21.13.2.11.22.11.22.1.23.09.23.08.24.07.24.06.24.05.25.04.26.03.25.02.26v.27l-.01.26h-.09l.01-.27v-.25l-.02-.26-.02-.25-.04-.25-.05-.25-.06-.24-.07-.24-.08-.23-.09-.23-.1-.22-.11-.22-.11-.21-.12-.21-.13-.2-.13-.19-.14-.19-.15-.18-.15-.17-.15-.16-.16-.16-.16-.15-.17-.14-.17-.13-.17-.12-.17-.11-.17-.1-.17-.09-.17-.07L9.2.69 9.03.63 8.86.58v.01zM8.88.5h-.01.01zm-.37 4.86l.03.09-.05-.02-.2-.37-.18-.34-.16-.34-.15-.32-.13-.3-.12-.29-.1-.28-.09-.26-.08-.24-.06-.24-.05-.22-.03-.2-.02-.2-.01-.18v-.16l.02-.16.03-.14.04-.13.05-.12.07-.11.07-.09.09-.08.1-.07.11-.06.12-.04.13-.03.13-.02.15-.01h.15l.16.01.17.03.18.03-.02.09-.17-.04-.17-.02-.15-.01-.15-.01-.14.01-.13.02-.12.03-.11.04-.1.05-.08.06-.08.08-.07.08-.06.1-.05.11-.04.12-.03.13-.01.15V1.83l.02.18.04.21.05.21.06.23.07.25.09.25.1.28.12.28.13.31.15.31.16.34.18.34.19.37-.05-.03zm.03.09l-.04.01-.01-.03.05.02z" class="fil1"/><path fill="#99cfba" d="M2.47 5.88l6.06-.47c4.41-.68 5.1-.19 4.12.84l-6.86.93c-1.26.09-2.59.29-3.74-.38-.74-.48-.21-.84.42-.92z"/><path id="1" d="M8.53 5.45l-6.06.48-.01-.09 6.06-.48.01.09zm0 0zm4.12.84l-.01-.09-.02.02.08-.09.08-.09.06-.09.06-.08.04-.08.03-.07.02-.07.01-.06-.01-.06-.01-.05-.03-.05-.04-.05-.06-.04-.06-.04-.09-.04-.1-.03-.12-.03-.13-.02-.16-.02-.16-.01-.19-.01H11.41l-.24.01-.26.02-.28.02-.3.02-.31.04-.34.04-.36.05-.39.05-.4.06-.01-.09.4-.06.38-.05.36-.05.35-.04.32-.03.3-.03.28-.02.26-.02.24-.01h.43l.19.01.17.01.16.02.14.03.12.03.11.03.09.04.08.05.07.05.05.06.04.07.02.07v.07l-.01.08-.02.08-.03.08-.05.08-.06.09-.06.09-.08.09-.09.1-.03.01zm.03-.01l-.01.01h-.02l.03-.01zm-6.89.85l6.85-.93.01.09-6.85.93-.01-.09zm.01.09zm-3.78-.38l.05-.07v-.01l.11.06.1.06.11.05.11.04.11.04.12.04.11.03.11.03.12.03.11.02.12.02.11.02.12.01.12.01.11.01h.12l.12.01h.24l.12-.01h.12l.12-.01h.12l.12-.01.12-.01.12-.01.11-.01.12-.01.12-.01.12-.01.12-.01.12-.01.01.09-.12.01-.12.01-.12.01-.12.01-.12.01-.12.01-.12.01-.12.01h-.12l-.12.01-.12.01h-.6l-.12-.01h-.12l-.12-.01-.12-.02-.12-.01-.11-.02-.12-.03-.12-.02-.11-.03-.12-.04-.11-.03-.12-.05-.11-.04-.11-.05-.11-.06-.11-.06h-.01zm.01 0h-.01.01zm.43-1l.01.09v-.01l-.05.01-.06.01-.06.01-.05.02-.05.01-.05.02-.05.01-.05.02-.04.02-.04.02-.04.02-.04.03-.03.02-.03.02-.03.03-.02.03-.02.02-.01.03-.01.03-.01.02v.06l.01.03.01.04.02.03.02.04.03.04.04.04.04.04.05.04.06.04.06.05-.05.07-.06-.05-.06-.04-.06-.05-.04-.04-.04-.05-.04-.04-.02-.04-.03-.05-.01-.04-.01-.04v-.09l.01-.04.01-.04.02-.03.02-.04.03-.03.03-.03.03-.03.04-.03.04-.02.04-.03.05-.02.05-.02.05-.02.05-.02.05-.01.06-.02.06-.01.05-.01.06-.01.06-.01zm0 0h.01-.01z" class="fil1"/><path d="M16.23 6.71c-4.26.32-8.05 1.73-12.16 1.55-.77-.01-2.42-.38-2.55-.89-.14.02-.51-1.3.69-1.44-.49.13-.8.46-.16.87 1.15.67 2.48.47 3.74.38l6.86-.93c4.44-.82 3.17-.5 3.58.46z" class="fil0"/><path id="1" d="M4.07 8.31v-.09l.39.01h.76l.38-.01.38-.02.37-.03.38-.03.37-.04.38-.05.37-.05.37-.05.38-.06.37-.06.37-.07.37-.06.38-.07.37-.07.38-.07.37-.07.38-.07.38-.07.37-.07.38-.07.39-.07.38-.06.38-.06.39-.06.39-.06.39-.04.39-.05.4-.04.4-.03.01.09-.4.03-.4.04-.39.04-.39.05-.39.05-.38.06-.39.06-.38.07-.38.06-.38.07-.38.07-.38.07-.37.07-.38.07-.37.08-.38.06-.37.07-.37.07-.38.06-.37.07-.37.05-.38.06-.37.05-.38.04-.37.04-.38.04-.38.02-.38.02-.38.02h-.76l-.39-.01zm0-.09h.01-.01zm-2.54-.81l-.02-.08.05.03.02.04.02.04.03.04.04.05.04.04.05.04.06.04.07.04.07.04.07.03.08.04.09.03.09.04.09.03.09.03.1.03.1.03.1.03.1.02.1.03.1.02.1.02.11.02.09.02.1.01.1.01.09.02.09.01.09.01h.08l.08.01h.07v.09L4 8.3h-.08l-.09-.01-.09-.01-.09-.01-.09-.01-.1-.01-.1-.02-.1-.02-.1-.02-.1-.02-.11-.02-.1-.02-.1-.03-.11-.03-.1-.03-.09-.03-.1-.03-.09-.03-.09-.04-.09-.03L2 7.84l-.08-.04-.08-.04-.06-.04-.07-.04-.05-.05-.05-.04-.05-.05-.04-.05-.02-.05-.02-.06.05.03zm-.02-.08l.04-.01.01.04-.05-.03zm.71-1.36l-.02-.08.02.08-.11.02-.09.02-.09.03-.08.03-.07.04-.06.04-.06.05-.05.05-.05.05-.03.05-.04.06-.02.06-.02.06-.02.06-.02.06v.07l-.01.06v.18l.01.05.01.06.01.05.01.04.02.04.01.04.01.03.02.03.01.02.01.01h-.01l.02.08h-.04l-.03-.02-.02-.02-.02-.03-.01-.03-.02-.04-.02-.04-.01-.04-.01-.05-.02-.06-.01-.06v-.06l-.01-.06v-.13l.01-.07.01-.06.01-.07.02-.07.03-.06.03-.07.03-.06.05-.06.04-.06.06-.06.06-.05.07-.05.08-.04.09-.03.09-.03.11-.03.11-.01.01.08zm-.01-.08l.57-.07-.56.15-.01-.08zm-.14.87l-.04.08h-.01l-.05-.04-.06-.04-.05-.04-.04-.04-.04-.04-.03-.03-.03-.04-.02-.04-.02-.04-.02-.03-.01-.04V6.31l.01-.03.01-.04.01-.03.02-.03.02-.03.02-.02.03-.03.03-.03.03-.02.04-.02.03-.02.04-.02.04-.02.04-.02.04-.02.05-.01.04-.02.05-.01.02.08-.04.02-.04.01-.05.01-.04.02-.03.02-.04.01-.04.02-.03.02-.03.02-.03.02-.02.02-.02.02-.02.03-.02.02-.01.02-.01.03-.01.02-.01.02v.05l.01.03.01.03.01.03.01.03.02.03.03.03.03.03.03.04.04.03.05.04.05.04.05.04v-.01zm-.04.08h-.01.01zm3.76.29l.01.09-.12.01-.12.01-.12.01-.12.01-.12.01-.12.01-.12.01-.12.01h-.12l-.12.01-.12.01h-.6l-.12-.01h-.12l-.12-.01-.12-.02-.12-.01-.11-.02-.12-.03-.12-.02-.11-.03-.12-.04-.11-.03-.12-.05-.11-.04-.11-.05-.11-.06-.11-.06.04-.08.11.06.1.06.11.05.11.04.11.04.12.04.11.03.11.03.12.03.11.02.12.02.11.02.12.01.12.01.11.01h.12l.12.01h.24l.12-.01h.12l.12-.01h.12l.12-.01.12-.01.12-.01.11-.01.12-.01.12-.01.12-.01.12-.01.12-.01zm.01.09zm6.85-.93l-6.85.93-.01-.09 6.85-.93.02.09h-.01zm.01 0h-.01.01zm3.58.47l-.01-.09-.04.06-.03-.09-.03-.09-.02-.08-.01-.08-.01-.07-.01-.07v-.13l-.01-.05v-.05l-.01-.04-.01-.03-.02-.03-.02-.03-.03-.02-.05-.01-.05-.02-.07-.01h-.31l-.13.01-.16.02-.18.02-.21.03-.22.04-.25.04-.28.05-.31.05-.34.06-.36.07-.4.07-.02-.08.4-.08.37-.06.33-.06.31-.06.28-.05.25-.04.23-.03.21-.03.18-.03.16-.01.14-.01.12-.01h.2l.08.02.06.01.06.03.04.03.04.04.02.04.02.05.01.05.01.05v.06l.01.06v.06l.01.07v.07l.02.07.01.08.03.08.03.09-.03.06zm.03-.06l.03.05-.06.01.03-.06z" class="fil1"/><path d="M12.89 7.15c.73 0 2.81-.19 3.34-.44.76-3.55-2.28-6.03-3.81-6.62-.83-.18-1.98.22-3.1.27-.52-.03-.95.01-1.31.1.27-.01.55.02.86.08 1.84.43 3.95 2.89 3.78 5.71-.22.19.17.89.24.9z" class="fil3"/><path id="1" d="M16.19 6.71l.09.01-.03.03-.06.03-.06.02-.07.02-.08.03-.09.02-.09.02-.1.02-.1.02-.11.02-.11.02-.12.02-.12.01-.12.02-.13.02-.12.01-.13.02-.13.01-.12.02-.13.01-.13.01-.12.01-.12.01-.12.01-.12.01-.11.01-.11.01h-.11l-.1.01h-.33v-.08H13.04l.09-.01h.19l.1-.01.11-.01h.11l.12-.01.12-.01.12-.01.13-.01.12-.02.13-.01.12-.01.13-.02.13-.01.12-.02.13-.01.12-.02.12-.02.11-.02.11-.02.11-.02.1-.02.1-.02.09-.02.09-.02.07-.02.07-.02.06-.02.05-.02-.02.03zm.09.01l-.01.02-.02.01.03-.03zM12.41.13l.02-.08h.01l.15.06.15.07.17.09.17.09.17.1.18.12.18.12.19.14.18.14.19.16.18.16.18.18.18.18.17.19.18.2.16.21.16.22.15.23.14.24.13.24.12.25.11.26.1.27.08.28.07.28.06.3.03.3.02.3v.31l-.02.32-.03.33-.06.33-.09-.01.06-.33.04-.32.02-.32v-.31l-.02-.3-.04-.29-.05-.29-.07-.28-.08-.27-.1-.26-.11-.26-.12-.25-.13-.24-.13-.23-.15-.23-.16-.21-.16-.21-.17-.2-.17-.19-.18-.18-.18-.17-.18-.17-.18-.15-.19-.14-.18-.13-.18-.13-.17-.11-.17-.1-.17-.1-.16-.08-.16-.07-.14-.06zm.02-.08h.01-.01zM9.32.4V.31h.11l.1-.01.1-.01.11-.01.1-.01.11-.01.1-.02.11-.01.1-.02.1-.01.11-.02.1-.02.1-.01.1-.02.1-.02.1-.01.1-.02.1-.01.1-.02.09-.01.1-.01.09-.01.1-.01h.09l.09-.01h.27l.08.01.09.01.08.01.08.02-.02.08-.07-.01-.08-.02h-.08l-.09-.01h-.34l-.1.01-.09.01-.09.01-.09.01-.1.01-.1.01-.1.02-.09.01-.1.02-.1.01-.11.02-.1.02-.1.02-.1.01-.11.02-.1.01-.11.02-.1.01-.11.02-.1.01-.11.01-.1.01h-.11L9.32.4zm0 0zM8.01.41V.5L8 .42l.03-.01.04-.01.03-.01.04-.01h.04l.03-.01.04-.01h.04l.04-.01h.03L8.4.34h.04l.04-.01h.08L8.6.32h.09l.04-.01h.59V.4h-.09L9.18.39h-.27L8.86.4h-.17l-.04.01h-.08l-.04.01h-.08l-.04.01h-.03l-.04.01H8.3l-.04.01-.03.01h-.04l-.03.01-.04.01h-.03l-.04.01-.03.01-.01-.09zm0 .09l-.43.02.42-.1.01.08zm.87 0l-.02.08v.01L8.83.58 8.8.57h-.02L8.75.56h-.03L8.69.55h-.03L8.64.54h-.03L8.58.53h-.05L8.5.52h-.05L8.42.51h-.11L8.29.5H8.01V.41H8.24l.03.01h.1l.03.01h.08l.03.01h.06l.02.01h.03l.03.01h.03l.03.01h.03l.02.01h.03l.03.01h.03l.03.01zm0 0h-.01.01zm3.8 5.78l-.06-.07-.02.04.01-.27v-.25l-.02-.26-.02-.25-.04-.25-.05-.25-.06-.24-.07-.24-.08-.23-.09-.23-.1-.22-.11-.22-.11-.21-.12-.21-.13-.2-.13-.19-.14-.19-.15-.18-.15-.17-.15-.16-.16-.16-.16-.15-.17-.14-.17-.13-.17-.12-.17-.11-.17-.1-.17-.09-.17-.07L9.2.69 9.03.63 8.86.58 8.88.5l.18.05.17.06.18.07.18.08.17.09.18.1.17.11.18.12.17.14.16.14.17.15.16.15.16.17.15.17.15.19.14.19.13.19.13.21.13.2.11.22.11.22.1.23.09.23.08.24.07.24.06.24.05.25.04.26.03.25.02.26v.27l-.01.26-.01.03zm.01-.03v.02l-.01.01.01-.03zm.2.86v.08h-.03l-.01-.01-.02-.02-.01-.01-.02-.02-.01-.02-.02-.03-.02-.02-.01-.03-.02-.03-.02-.04-.02-.03-.01-.03-.02-.04-.02-.04-.01-.04-.02-.04-.01-.04-.01-.04-.01-.03-.01-.04-.01-.04-.01-.04v-.15l.01-.03.01-.03.02-.03.02-.03.02-.03.06.07-.02.02-.01.01-.01.02-.01.02v.03l-.01.02v.06l.01.04v.03l.01.04.01.03.01.04.01.04.01.03.02.04.01.04.02.03.02.04.01.03.02.03.02.04.01.02.02.03.01.02.02.03.01.01.01.02.01.01.01.01h-.01zm0 .08z" class="fil1"/><path fill="#a1b567" fill-rule="nonzero" d="M.33 15.11c-.25-.21-.28-.58-.08-.84.21-.25.58-.28.83-.08 1.54 1.27 4.72 1.76 7.88 1.64 3.34-.13 6.62-.93 7.91-2.24.23-.23.61-.23.84 0 .23.23.23.61 0 .84-1.51 1.51-5.1 2.44-8.7 2.58-3.42.13-6.9-.44-8.68-1.9z"/><path id="1" d="M.22 14.25l.07.05-.02.02-.02.03-.01.02-.01.02-.02.03-.01.02-.01.03-.01.02v.03l-.01.02v.03l-.01.03v.1l.01.03v.02l.01.03v.03l.01.02.01.02.01.03.01.02.02.03.01.02.02.02.01.02.02.02.02.02.02.02.02.02-.05.07-.03-.02-.02-.03-.02-.02-.02-.02-.02-.03L.18 15l-.02-.03-.01-.03-.02-.02-.01-.03-.01-.03-.01-.03-.01-.03v-.03l-.01-.03v-.18l.01-.03v-.03l.01-.03.01-.03.01-.03.01-.03.02-.03.01-.02.02-.03.02-.03.02-.02zm.89-.09l-.05.07-.03-.02-.02-.02-.02-.01-.03-.02-.02-.01-.02-.01-.03-.01-.03-.01H.84l-.03-.01H.79l-.03-.01h-.1l-.03.01H.6l-.02.01H.55l-.02.01-.03.01-.02.01-.02.01-.03.02-.02.01-.02.02-.03.01-.02.02-.02.02-.01.02-.02.02-.07-.05.02-.03.02-.02.03-.02.02-.02.03-.02.02-.02.03-.02.02-.01.03-.02.03-.01.03-.01.03-.01.03-.01h.03l.03-.01H.8l.03.01h.03l.03.01.03.01.03.01.03.01.02.02.03.01.03.02.03.02.02.02zm0 0l.11.09-.11-.09zm7.85 1.63l.01.08-.3.01-.3.01h-.59l-.3-.01h-.29l-.29-.02-.29-.01-.29-.02-.28-.03-.28-.03-.28-.03-.28-.03-.27-.04-.26-.05-.27-.05-.25-.05-.26-.05-.24-.06-.24-.07-.24-.07-.23-.07-.22-.08-.22-.08-.21-.09-.2-.09-.19-.09-.19-.1-.17-.1-.17-.11-.16-.12-.15-.11.05-.07.15.11.16.12.16.1.17.1.19.1.19.1.2.08.2.09.22.08.22.08.23.07.23.07.24.06.24.06.25.06.26.05.26.05.27.04.27.04.27.04.28.03.28.03.28.02.28.02.29.02.29.01.3.01h1.18l.29-.01zm7.88-2.23l.06.06-.13.13-.14.12-.15.11-.16.11-.17.11-.18.11-.19.1-.2.1-.21.1-.22.09-.22.09-.23.09-.24.08-.25.08-.25.08-.26.07-.27.07-.27.07-.28.06-.28.06-.29.06-.29.05-.29.05-.3.04-.3.04-.3.04-.31.03-.31.03-.31.03-.31.02-.31.02-.31.01-.01-.08.32-.02.31-.02.31-.02.31-.02.3-.03.31-.04.3-.03.3-.04.3-.05.29-.05.29-.05.28-.05.28-.06.28-.06.27-.07.26-.07.26-.07.25-.08.25-.08.24-.08.23-.09.22-.09.21-.09.21-.1.2-.09.19-.11.17-.1.17-.11.16-.11.15-.11.14-.12.12-.12zm.9 0l-.06.06-.02-.02-.03-.02-.02-.01-.02-.02-.02-.01-.03-.02-.02-.01-.02-.01-.03-.01-.02-.01h-.03l-.03-.01h-.02l-.03-.01h-.1l-.03.01h-.03l-.02.01-.03.01h-.02l-.03.01-.02.01-.03.02-.02.01-.02.01-.02.02-.03.02-.02.01-.02.02-.06-.06.02-.02.03-.02.02-.02.03-.02.03-.02.02-.01.03-.01.03-.02.03-.01.03-.01.03-.01h.03l.03-.01h.18l.03.01h.03l.03.01.03.01.03.01.03.01.02.02.03.01.03.02.02.02.03.02.02.02.03.02zm0 .9l-.06-.06.02-.02.02-.03.01-.02.02-.02.01-.02.02-.03.01-.02.01-.03.01-.02.01-.02v-.03l.01-.03v-.02l.01-.03v-.1l-.01-.03v-.03l-.01-.02v-.03l-.01-.02-.01-.03-.01-.02-.02-.03-.01-.02-.01-.02-.02-.02-.02-.03-.01-.02-.02-.02.06-.06.02.02.02.03.02.02.02.03.02.03.01.02.02.03.01.03.01.03.01.03.01.03v.03l.01.03v.18l-.01.03v.03l-.01.03-.01.03-.01.03-.01.03-.02.02-.01.03-.02.03-.02.02-.02.03-.02.02-.02.03zm-8.73 2.59L9 16.97l.34-.02.34-.02.33-.02.34-.03.33-.03.33-.04.33-.04.33-.05.32-.05.32-.06.32-.06.31-.06.3-.07.31-.07.29-.08.29-.08.29-.08.27-.09.28-.09.26-.1.25-.1.25-.1.24-.11.23-.11.22-.11.21-.12.21-.12.19-.13.18-.13.17-.13.15-.13.15-.14.06.06-.15.14-.16.14-.17.13-.18.13-.2.13-.2.12-.22.12-.22.12-.23.11-.24.11-.25.1-.26.1-.27.1-.27.09-.28.09-.28.09-.3.08-.29.07-.31.08-.3.06-.32.07-.31.06-.32.05-.33.05-.33.05-.33.04-.33.04-.33.04-.34.02-.34.03-.33.02-.34.01zm-8.7-1.91l.05-.07.17.13.18.13.19.13.2.11.2.12.22.11.22.1.23.1.24.09.25.09.25.08.26.08.26.08.27.07.28.06.28.06.29.06.29.05.29.05.3.04.31.04.3.03.31.03.31.02.31.02.32.02.32.01h.32l.31.01.32-.01h.32l.32-.01.01.08-.32.01-.32.01h-.65l-.32-.01-.31-.01-.32-.01-.31-.02-.32-.03-.31-.03-.3-.03-.31-.04-.3-.04-.3-.05-.29-.05-.29-.05-.28-.06-.28-.07-.27-.07-.27-.07-.26-.08-.25-.09-.25-.09-.24-.09-.23-.1-.23-.11-.22-.11-.21-.11-.2-.12-.19-.13-.18-.13-.17-.13zm.05-.07l.08.07-.08-.07z" class="fil5"/><path d="M5.1 12.37c.2 0 .35.16.35.35v3.14c0 .19-.15.35-.35.35-.19 0-.35-.16-.35-.35v-3.14c0-.19.16-.35.35-.35z" class="fil0"/><path id="1" d="M5.1 12.41v-.08.08zm.4.31h-.09v-.06l-.01-.01v-.02l-.01-.01v-.02l-.01-.01-.01-.01v-.02l-.01-.01-.01-.01-.01-.01-.01-.01-.01-.02-.01-.01-.01-.01h-.01l-.02-.01-.01-.01-.01-.01-.02-.01h-.01l-.01-.01h-.02l-.01-.01h-.05l-.01-.01H5.1v-.08h.06l.02.01h.02l.02.01h.02l.02.01.01.01.02.01h.02l.01.02.02.01.01.01.02.01.01.01.01.02.02.01.01.02.01.01.01.02.01.02.01.01.01.02v.02l.01.02.01.02v.03l.01.02v.04zm-.09 3.14v-3.14h.09v3.14h-.09zm-.31.4v-.09h.05l.01-.01h.03l.02-.01h.01l.01-.01.02-.01h.01l.01-.01.02-.01.01-.01.01-.01.01-.01.01-.01.01-.01.01-.01.01-.02.01-.01v-.01l.01-.02.01-.01v-.01l.01-.02v-.01l.01-.02v-.06h.09v.04l-.01.02v.04l-.01.02-.01.02v.01l-.01.02-.01.02-.01.02-.01.01-.01.02-.01.01-.02.02-.01.01-.01.01-.02.02-.01.01-.02.01-.01.01-.02.01-.02.01-.01.01h-.02l-.02.01H5.2l-.02.01h-.04l-.02.01H5.1zm0-.09v.09-.09zm-.4-.31h.09v.05l.01.01v.03l.01.02v.01l.01.01.01.02v.01l.01.01.01.02.01.01.01.01.01.01.01.01.01.01.01.01.02.01.01.01h.01l.02.01.01.01h.01l.02.01h.03l.01.01h.05v.09h-.02l-.02-.01h-.04L5 16.24h-.02l-.02-.01h-.01l-.02-.01-.02-.01-.02-.01-.01-.01-.02-.01-.01-.01-.02-.02-.01-.01-.01-.01-.02-.02-.01-.01-.01-.02-.01-.01-.01-.02-.01-.02-.01-.02V16l-.01-.02v-.02l-.01-.02v-.02l-.01-.02v-.04zm.09-3.14v3.14H4.7v-3.14h.09zm.31-.39v.08h-.02l-.01.01h-.05l-.01.01h-.02l-.01.01h-.01l-.02.01-.01.01-.01.01-.02.01H4.9l-.01.01-.01.01-.01.02-.01.01-.01.01-.01.01-.01.01v.02l-.01.01-.01.01v.02l-.01.01v.03l-.01.02v.04H4.7v-.04l.01-.02v-.01l.01-.02v-.02l.01-.02v-.02l.01-.02.01-.01.01-.02.01-.02.01-.01.01-.02.02-.01.01-.02.01-.01.02-.01.01-.01.02-.01.01-.02h.02l.02-.01.02-.01.01-.01h.02l.02-.01h.02l.02-.01h.06z" class="fil5"/><path d="M12.14 12.06c.19-.03.37.11.39.3l.38 3.11c.03.2-.11.38-.3.4h-.01c-.19.02-.37-.11-.39-.31l-.38-3.11c-.03-.19.11-.37.31-.39z" class="fil0"/><path id="1" d="M12.14 12.1v-.09.09zm.43.26l-.08.01v-.02l-.01-.01v-.02l-.01-.01v-.02l-.01-.01v-.01l-.01-.02-.01-.01-.01-.01-.01-.02-.01-.01-.01-.01-.01-.01-.01-.01-.01-.01-.01-.01-.01-.01h-.02l-.01-.01-.01-.01h-.02l-.01-.01h-.02l-.01-.01h-.11l-.01-.09h.1l.02.01h.04l.02.01.01.01h.02l.02.01.02.01.01.01.02.01.01.01.02.02.01.01.02.01.01.02.01.01.01.02.01.01.01.02.01.02.01.01.01.02.01.02v.02l.01.02v.04zm.3 3.12l-.38-3.11.08-.01.39 3.11-.09.01zm-.26.43v-.08h-.01l.02-.01h.03l.01-.01h.02l.01-.01h.01l.02-.01.01-.01.01-.01.01-.01.02-.01.01-.01.01-.01.01-.01.01-.01.01-.01v-.02l.01-.01.01-.01.01-.01v-.02l.01-.01v-.03l.01-.02v-.09l.09-.01v.1l-.01.02v.02l-.01.02v.02l-.01.01-.01.02v.02l-.01.02-.01.01-.01.02-.02.01-.01.02-.01.01-.01.02-.02.01-.01.01-.02.01-.01.01-.02.01-.02.01-.01.01-.02.01h-.02l-.02.01-.02.01h-.04zm-.01-.08h.01v.08h-.01v-.08zm-.43-.26l.08-.01.01.01v.03l.01.02v.01l.01.02v.01l.01.01.01.02.01.01.01.01.01.01.01.01.01.01.01.01.01.01.01.01.01.01.02.01.01.01h.01l.02.01h.01l.02.01h.03l.01.01h.08l.01.08h-.02l-.02.01h-.02l-.02-.01h-.06l-.02-.01-.02-.01h-.01l-.02-.01-.02-.01-.02-.01-.01-.01-.02-.01-.01-.01-.02-.01-.01-.01-.02-.02-.01-.01-.01-.02-.01-.01-.01-.02-.01-.01-.01-.02-.01-.02-.01-.02-.01-.01v-.02l-.01-.02v-.04zm-.3-3.13l.38 3.12-.08.01-.39-3.11.09-.02zm.27-.43v.09h-.03l-.02.01h-.01l-.02.01h-.01l-.01.01-.02.01-.01.01H12l-.01.01-.01.01-.02.01-.01.01-.01.01-.01.02-.01.01v.01l-.01.01-.01.02v.01l-.01.01-.01.02v.03l-.01.01v.09l-.09.02v-.1l.01-.02v-.02l.01-.02v-.02l.01-.02.01-.02v-.01l.01-.02.01-.02.01-.01.02-.02.01-.01.01-.02.01-.01.02-.01.01-.02.02-.01.01-.01.02-.01.02-.01.02-.01h.01l.02-.01.02-.01h.04l.02-.01h.01z" class="fil5"/><path d="M1.52 7.37C1.07 9.18.5 10.98.04 12.79c.05.39.78-.09 1.17-.14-.05.22-.1.45-.15.67-.35.69 1.08-.07 1.83.1-.02.2-.03.4-.05.59-.2.72 1.53.18 2.63.05.9.58 1.3.09 1.87-.16.54.15.89.12.93-.18.66.44 1.09.42 1.3 0 .13-.61.69.3 1.55.08-.02-.19-.04-.38-.06-.56.53.12.42.82 1.39.64.15-.08.09-.32.13-.48.59.03.55.5 1.78.1.14-.1.27-.21.4-.31.37-.18 1.25.11 1.12-.54.56-.03 1.03.35 1.68-.1-.44-1.68-.89-4.16-1.33-5.84-4.26.32-8.05 1.73-12.16 1.55-.77-.01-2.42-.38-2.55-.89z" class="fil3"/><path id="1" d="M.09 12.78l-.09.01v-.01l.04-.17.05-.17.04-.17.05-.17.04-.17.05-.17.04-.17.05-.17.05-.17.04-.17.05-.17.05-.17.05-.17.04-.17.05-.16.05-.17.05-.17.05-.17.04-.17.05-.17.05-.17.05-.17.04-.17.05-.17.05-.16.04-.17.05-.17.04-.17.05-.17.04-.17.04-.17.05-.17.08.02-.04.17-.05.17-.04.17-.04.17-.05.17-.04.17-.05.17-.05.17-.04.17-.05.17-.05.17-.05.16-.04.17-.05.17-.05.17-.05.17-.04.17-.05.17-.05.17-.05.17-.05.17-.04.16-.05.17-.05.17-.04.17-.05.17-.04.17-.05.17-.04.17-.05.17-.04.17-.04.17v-.02zm-.09.01v-.01.01zm1.26-.13l-.09-.02.05.06h-.04l-.03.01-.04.01-.04.01-.05.01-.04.02-.05.01-.04.02-.05.02-.05.01-.04.02-.05.02-.05.02-.05.01-.04.02-.05.02-.04.01-.05.01-.04.01-.04.01-.04.01H.18l-.03-.01-.03-.01-.03-.01-.03-.02-.02-.03-.02-.03-.01-.04-.01-.04.09-.01v.03l.01.02.01.02.01.01.01.02h.02l.02.01h.02l.03.01h.03l.04-.01h.03l.04-.01.04-.01.04-.01.05-.02.04-.01.05-.02.04-.01.05-.02.05-.02.04-.02.05-.02.05-.01.05-.02.04-.02.05-.01.04-.01.05-.02.04-.01h.04l.04-.01.05.05zm-.05-.05l.06-.01-.01.06-.05-.05zm-.12.73l-.07-.04-.01.01.01-.02v-.02l.01-.02v-.02l.01-.03v-.02l.01-.02v-.02l.01-.02v-.02l.01-.02v-.02l.01-.02v-.02l.01-.02v-.02l.01-.03v-.02l.01-.02v-.02l.01-.02v-.02l.01-.02v-.02l.01-.02v-.02l.01-.02v-.02l.01-.02v-.03l.01-.02v-.02l.09.02-.01.02v.02l-.01.03v.02l-.01.02v.02l-.01.02v.02l-.01.02v.02l-.01.02v.02l-.01.02v.02l-.01.03V13l-.01.02v.02l-.01.02v.02l-.01.02v.02l-.01.02v.02l-.01.02v.02l-.01.02v.02l-.01.03v.02l-.01.02v.02l-.01.01zm.01-.01l-.01.01.01-.01zm1.83.1l-.08-.01.03.05-.07-.02h-.07l-.08-.01h-.07l-.09.01h-.08l-.09.01-.08.02-.09.01-.09.02-.08.01-.09.02-.08.02-.09.02-.08.01-.08.02-.07.01-.08.02-.06.01h-.07l-.06.01h-.05l-.05-.01-.05-.01-.04-.01L1 13.6l-.02-.04-.02-.04v-.05l.01-.05.02-.06.03-.06.07.04-.02.05-.02.05v.08l.01.02.02.01.02.01.04.01h.14l.06-.01.07-.01.07-.01.08-.02.07-.01.08-.02.09-.02.08-.01.09-.02.09-.02.09-.02.08-.01.09-.01.09-.01.09-.01h.25l.08.01.07.01.03.05zm-.03-.05l.04.01-.01.04-.03-.05zm-.02.64L2.8 14v.01-.1l.01-.01v-.1l.01-.01v-.09l.01-.02v-.09l.01-.02v-.09l.01-.02v-.04l.08.01V13.52l-.01.02V13.63l-.01.02V13.74l-.01.02V13.85l-.01.02V13.96l-.01.02v.04zm0-.01v.01-.01zm2.62.02l-.05.07.03.01-.11.01-.1.01-.11.02-.12.02-.11.02-.12.02-.11.02-.12.02-.12.02-.12.03-.11.02-.12.02-.11.01-.11.02-.11.02-.1.01-.11.01-.09.01h-.27l-.07-.01-.07-.01-.07-.02-.06-.02-.05-.03-.04-.04-.04-.04-.02-.06-.01-.06v-.06L2.8 14l.08.02-.01.06v.09l.02.03.02.03.03.03.04.02.05.02.05.01.07.02h.07l.08.01.08-.01h.09l.1-.01.1-.01.1-.01.11-.01.11-.02.11-.02.11-.02.12-.02.12-.02.11-.02.12-.02.12-.02.11-.03.12-.02.11-.01.11-.02.11-.02.11-.01.03.01zm-.03-.01h.01l.02.01-.03-.01zm1.88-.16l-.02.09.02-.01-.05.03-.05.02-.05.03-.05.02-.05.03-.05.03-.05.03-.05.02-.05.03-.05.03-.05.02-.05.03-.05.02-.05.02-.06.02-.05.01-.05.02-.06.01-.06.01h-.06l-.06.01-.06-.01h-.07l-.06-.01-.07-.02-.07-.02-.07-.02-.08-.03-.07-.03-.08-.04-.09-.05-.08-.05.05-.07.08.05.08.04.07.04.08.03.07.03.06.02.07.02.06.01.06.01.06.01h.12l.05-.01h.05l.06-.02.05-.01.05-.01.05-.02.05-.02.05-.02.04-.03.05-.02.05-.03.05-.02.05-.03.05-.03.05-.02.05-.03.05-.03.05-.03.06-.02.05-.03h.03zm-.03 0h.03-.03zm.97-.18l-.05.07.07-.03v.03l-.01.03-.01.03-.01.03-.01.02-.02.03-.02.02-.02.02-.02.02-.02.01-.03.02-.02.01-.03.01-.03.01-.03.01H8l-.03.01H7.74l-.04-.01h-.04l-.05-.01-.04-.01-.05-.01-.04-.01-.05-.01-.05-.01-.05-.01.02-.09.05.01.05.02.04.01.05.01.05.01h.04l.04.01.04.01h.12l.03.01h.04l.03-.01h.06l.02-.01h.03l.02-.01.02-.01.02-.01.02-.01.02-.01.01-.02.02-.01.01-.02.01-.01.01-.02.01-.02.01-.02v-.05l.07-.03zm-.07.03l.01-.07.06.04-.07.03zm1.31 0l.08.02v.01l-.02.04-.02.04-.03.03-.03.04-.02.03-.03.03-.03.02-.03.03-.04.02-.03.01-.04.02-.04.01-.04.01-.04.01-.04.01h-.08L9 14.08h-.05l-.04-.01-.05-.01-.05-.02-.05-.02-.05-.01-.06-.03-.05-.02-.06-.03-.05-.03-.06-.03-.06-.04-.06-.04-.07-.04.05-.07.06.04.06.04.06.03.06.03.05.03.06.03.05.02.05.02.05.02.04.02.05.01.05.01.04.01.04.01h.15l.04-.01.03-.01.03-.01.03-.01.03-.02.03-.02.02-.02.03-.02.02-.02.03-.03.02-.03.02-.03.02-.04.02-.03v.01zm.08.02v.01-.01zm1.46.07l.09-.01-.03.05-.09.02-.08.01-.07.01h-.08l-.08-.01-.07-.01-.07-.01-.07-.01-.06-.02-.07-.02-.06-.03-.06-.02-.06-.02-.05-.03-.06-.02-.05-.03-.04-.02-.05-.02-.04-.02-.04-.01-.04-.02-.03-.01h-.08l-.02.01-.02.01-.02.01-.01.03-.02.03-.01.04-.02.05-.08-.02.01-.06.02-.05.02-.04.03-.03.03-.03.03-.02.04-.01.04-.01h.04l.04.01.04.01.04.01.04.02.05.02.04.02.05.02.05.03.05.02.06.03.05.02.06.02.06.02.06.02.06.02.07.02.06.01.07.01h.14l.07-.01.08-.01.07-.01-.03.04zm.09-.01v.04l-.03.01.03-.05zm-.09-.59l-.02.08.06-.05v.09l.01.02V13.43l.01.01v.09l.01.02V13.64l.01.01v.09l.01.02v.03l-.09.01v-.07l-.01-.02v-.08l-.01-.02V13.52l-.01-.02v-.08l-.01-.02V13.31l-.01-.02v-.05l.05-.04zm-.05.04l-.01-.06.06.02-.05.04zm1.41.6l.04.08h-.02l-.08.01-.09.01-.08.01h-.14l-.06-.01-.06-.01-.05-.02-.06-.02-.04-.02-.05-.02-.04-.03-.04-.03-.04-.03-.03-.03-.03-.03-.03-.03-.03-.03-.03-.04-.03-.03-.02-.03-.03-.03-.03-.03-.03-.03-.03-.03-.03-.03-.03-.02-.03-.02-.04-.02-.03-.02-.04-.02-.05-.01.02-.08.05.01.05.02.04.02.05.02.03.03.04.03.03.02.03.04.04.03.02.03.03.03.03.03.03.04.02.03.03.03.03.03.03.03.03.03.03.03.04.02.03.02.04.02.05.02.04.02.05.01.05.01.06.01h.2l.08-.01.09-.02-.01.01zm.04.08h-.02.02zm.11-.57v.09l.04-.03v.03l-.01.01v.08l-.01.02v.14l-.01.02v.03l-.01.02v.02l-.01.01v.02l-.01.01-.01.02-.01.02-.01.01-.02.01-.01.01-.02.02-.01.01-.04-.08.01-.01h.01l.01-.01v-.01l.01-.01.01-.01v-.01l.01-.01v-.01l.01-.01v-.03l.01-.01v-.08l.01-.02V13.46l.01-.02v-.04l.01-.01.04-.04zm-.04.04l.01-.04h.03l-.04.04zm1.8.08l.05.07-.01.01-.12.03-.1.03-.1.03-.1.02-.08.01-.08.02-.08.01h-.31l-.05-.01-.05-.01-.05-.01-.04-.02-.04-.01-.04-.02-.04-.01-.04-.02-.04-.02-.03-.01-.04-.02-.03-.02-.04-.01-.04-.01-.03-.02-.05-.01-.04-.01-.04-.01h-.05l-.05-.01v-.09l.06.01.05.01.05.01.05.01.04.01.04.01.04.02.04.02.04.01.04.02.03.01.04.02.03.02.04.01.04.02.03.01.04.01.05.01.04.01.05.01h.05l.05.01h.06l.06-.01h.07l.07-.01.08-.01.09-.02.09-.02.09-.02.11-.03.11-.04-.01.01zm.05.07h-.01v.01l.01-.01zm.35-.39l.04.07h.01l-.01.01-.02.01-.01.01-.01.01-.01.01-.02.01-.01.01-.01.01-.01.01-.02.01-.01.01-.01.01-.01.01-.02.01-.01.01-.01.01-.01.01-.02.01-.01.01-.01.01-.01.01-.02.01-.01.01-.01.01-.01.01-.02.01-.01.01-.01.01-.01.01-.02.01-.01.01-.01.01-.05-.07.01-.01.01-.01.01-.01.02-.01.01-.01.01-.01.01-.01.02-.01.01-.01.01-.01.01-.01.02-.01.01-.01.01-.01.01-.01.02-.01.01-.01.01-.01.01-.01.02-.01.01-.01.01-.01.01-.01.02-.01.01-.01.01-.01.01-.01.02-.01.01-.01.01-.01.01-.01.01-.01h.01zm-.01 0h.01-.01zm1.15-.54v.09l.04-.06.01.07.01.05v.06l-.01.04-.02.05-.01.04-.03.03-.03.04-.03.02-.03.03-.04.02-.04.01-.05.01-.04.01-.05.01-.04.01h-.05l-.05.01h-.1l-.05.01H15.12l-.05.01h-.1l-.04.01-.04.01-.04.01-.04.01-.03.01-.04-.07.04-.02.05-.01.04-.02h.05l.04-.01.05-.01h.1l.05-.01H15.31l.05-.01h.1l.05-.01h.04l.04-.01.04-.01.04-.01.03-.01.03-.02.03-.02.02-.02.02-.02.02-.02.01-.03.01-.03.01-.04v-.09l-.01-.06.04-.05zm-.04.05l-.01-.05h.05l-.04.05zm1.67-.1l.09-.02-.02.04-.06.04-.06.04-.06.03-.06.03-.06.02-.06.02-.06.02-.05.01-.06.01-.05.01h-.22l-.05-.01h-.05l-.05-.01-.05-.01-.05-.01h-.05l-.05-.01-.05-.01-.05-.01-.05-.01-.05-.01-.05-.01-.05-.01h-.1l-.05-.01h-.05l-.05.01v-.09H16.09l.05.01.05.01h.05l.05.01.05.01.05.01.05.01.05.01.05.01.05.01.05.01h.05l.05.01h.05l.05.01h.05l.05-.01h.05l.05-.01h.05l.05-.02.06-.01.05-.02.05-.02.06-.03.06-.03.05-.03.06-.04-.02.05zm.09-.02l.01.02-.03.02.02-.04zm-1.36-5.78l-.01-.09.04.03.05.16.04.17.04.17.04.17.04.17.04.18.04.18.04.19.05.19.04.18.04.19.04.2.04.19.04.19.05.2.04.19.04.2.04.19.04.19.04.2.05.19.04.19.04.19.04.18.04.19.04.18.04.18.05.17.04.17.04.17.04.17.04.16-.09.02-.04-.16-.04-.17-.04-.17-.04-.17-.04-.17-.04-.18-.04-.18-.04-.19-.05-.18-.04-.19-.04-.19-.04-.19-.04-.2-.04-.19-.05-.2-.04-.19-.04-.2-.04-.19-.04-.19-.04-.2-.05-.19-.04-.19-.04-.19-.04-.18-.04-.19-.04-.18-.04-.18-.05-.17-.04-.17-.04-.17-.04-.17-.04-.15.05.03zm-.01-.09h.04v.03l-.04-.03zM4.07 8.31v-.09l.39.01h.76l.38-.01.38-.02.37-.03.38-.03.37-.04.38-.05.37-.05.37-.05.38-.06.37-.06.37-.07.37-.06.38-.07.37-.07.38-.07.37-.07.38-.07.38-.07.37-.07.38-.07.39-.07.38-.06.38-.06.39-.06.39-.06.39-.04.39-.05.4-.04.4-.03.01.09-.4.03-.4.04-.39.04-.39.05-.39.05-.38.06-.39.06-.38.07-.38.06-.38.07-.38.07-.38.07-.37.07-.38.07-.37.08-.38.06-.37.07-.37.07-.38.06-.37.07-.37.05-.38.06-.37.05-.38.04-.37.04-.38.04-.38.02-.38.02-.38.02h-.76l-.39-.01zm0-.09h.01-.01zm-2.51-.84l-.08-.02h.08l.02.04.02.04.03.04.04.05.04.04.05.04.06.04.07.04.07.04.07.03.08.04.09.03.09.04.09.03.09.03.1.03.1.03.1.03.1.02.1.03.1.02.1.02.11.02.09.02.1.01.1.01.09.02.09.01.09.01h.08l.08.01h.07v.09L4 8.3h-.08l-.09-.01-.09-.01-.09-.01-.09-.01-.1-.01-.1-.02-.1-.02-.1-.02-.1-.02-.11-.02-.1-.02-.1-.03-.11-.03-.1-.03-.09-.03-.1-.03-.09-.03-.09-.04-.09-.03L2 7.84l-.08-.04-.08-.04-.06-.04-.07-.04-.05-.05-.05-.04-.05-.05-.04-.05-.02-.05-.02-.06h.08zm-.08-.02l.04-.17.04.17h-.08z" class="fil5"/><path d="M9.27 6.04c-.39.01-.48.78-.12 2.65.15.58 1.08-.4 1.85-1.05.02-.26.05-.52.08-.77-.44-.52-.91-.99-1.81-.83z" class="fil6"/><path id="1" d="M9.19 8.68l-.09.02-.03-.17-.03-.17-.03-.16-.02-.15-.02-.15-.02-.14-.02-.14-.01-.13-.02-.12-.01-.12v-.11l-.01-.11v-.37l.01-.08.01-.07.01-.07.01-.06.02-.06.01-.05.02-.05.03-.05.02-.04.03-.03.03-.03.03-.03.04-.02.04-.01.04-.01.04-.01v.09h-.03l-.03.01-.02.01-.03.01-.02.02-.03.02-.02.03-.02.03-.02.04-.02.05-.01.04L9 6.4l-.01.06-.01.06-.01.07v.08l-.01.08v.18l.01.1v.1l.01.11.01.12.01.12.02.13.01.14.02.14.02.14.03.16.03.15.03.17.03.17zm-.09.02zm1.86-1.06h.08l-.01.03-.08.06-.07.07-.07.06-.08.07-.07.06-.08.07-.07.07-.07.06-.08.07-.07.06-.07.06-.08.06-.07.06-.07.06-.07.05-.06.05-.07.05-.06.04-.06.04-.06.03-.06.03-.05.02-.06.02-.05.01-.05.01H9.3l-.04-.02-.04-.02-.04-.03-.03-.04-.03-.04-.02-.06.09-.02.01.04.02.04.02.02.02.02.03.01.02.01h.08l.04-.01.04-.02.05-.02.06-.02.05-.04.06-.03.06-.04.07-.05.06-.05.07-.05.07-.06.07-.05.07-.06.07-.06.07-.07.08-.06.07-.07.08-.06.07-.07.08-.07.07-.06.07-.07.08-.06.07-.06-.01.03zm.08 0v.02l-.01.01.01-.03zm0-.74l.07-.06.01.03v.05l-.01.02v.08l-.01.02v.07l-.01.03v.07l-.01.02v.08l-.01.02v.07l-.01.03v.07l-.01.02v.08l-.01.02v.02h-.08v-.08l.01-.02v-.07l.01-.03V7.35l.01-.03v-.07l.01-.03v-.07l.01-.02v-.07l.01-.03v-.07l.01-.03v-.07l.01.04zm.07-.06l.01.01v.02l-.01-.03zm-1.84-.76v-.09h-.01l.09-.01.08-.01h.08l.08-.01.07.01h.08l.07.01.07.01.06.01.07.02.06.02.06.02.06.02.06.03.06.02.06.03.05.04.05.03.05.04.05.03.05.04.05.04.05.04.04.05.05.04.04.05.05.04.04.05.04.05.05.04.04.05.04.05-.07.06-.04-.05-.04-.05-.04-.05-.04-.04-.04-.05-.05-.04-.04-.05-.04-.04-.05-.04-.05-.04-.04-.04-.05-.04-.05-.03-.05-.04-.05-.03-.05-.03-.05-.03-.05-.03-.06-.02-.06-.02-.05-.02-.06-.02-.07-.01-.06-.02-.06-.01h-.07l-.07-.01H9.51l-.07.01-.08.01-.08.01h-.01zm.01 0h-.01.01z" class="fil5"/><path d="M13.63 6.43c.39.08.35.85-.32 2.64-.25.54-1-.58-1.65-1.35.02-.26.04-.52.05-.78.52-.43 1.07-.81 1.92-.51z" class="fil6"/><path id="1" d="M13.27 9.05l.06-.16.05-.16.06-.15.05-.15.05-.14.04-.14.04-.13.03-.12.04-.12.03-.11.02-.11.03-.1.02-.1.01-.09.01-.08.01-.09.01-.07.01-.07v-.07l-.01-.06v-.05l-.01-.05-.01-.05-.01-.04-.01-.04-.02-.03-.02-.02-.02-.02-.02-.02-.03-.02-.03-.01-.03-.01.02-.08.04.01.04.02.04.02.03.02.03.03.02.04.02.04.02.04.02.05.01.05.01.06v.26l-.01.08-.01.09-.01.09-.02.09-.02.1-.02.1-.03.11-.03.12-.03.11-.04.13-.04.13-.04.14-.05.14-.05.15-.05.15-.06.16-.06.16-.08-.03zm.08.03zM11.7 7.72l-.01-.03.06.07.07.08.06.08.06.07.06.08.06.08.07.08.06.07.06.08.06.07.06.08.06.07.06.07.06.06.06.07.05.06.06.05.05.05.05.05.05.04.05.03.05.03.04.03.04.01.04.01.03.01.03-.01h.02l.03-.02.02-.02.02-.03.03-.04.08.03-.03.06-.03.04-.04.03-.04.03-.05.01h-.09l-.05-.02-.05-.02-.05-.02-.05-.04-.05-.03-.05-.05-.06-.05-.05-.05-.06-.05-.06-.07-.06-.06-.05-.07-.06-.06-.06-.08-.07-.07-.06-.08-.06-.07-.06-.08L12 8.2l-.07-.08-.06-.07-.06-.08-.06-.08-.06-.07-.06-.07-.01-.03h.08zm-.07.03l-.02-.02.01-.01.01.03zm.11-.77l.02-.03-.01.02V7.09l-.01.03V7.24l-.01.02V7.38l-.01.03V7.53l-.01.02V7.67l-.01.03v.02h-.08v-.13l.01-.02V7.45l.01-.03V7.3l.01-.02V7.16l.01-.03V7.01l.01-.02v-.05l.02-.03.05.07zm-.07-.04v-.02l.02-.01-.02.03zm1.95-.47l-.08-.02-.07-.03-.08-.01-.07-.02-.07-.01-.07-.01h-.26l-.06.01-.06.01-.06.01-.06.02-.06.01-.06.02-.05.02-.06.03-.05.02-.06.03-.05.03-.05.03-.05.03-.05.03-.05.04-.05.03-.05.04-.05.04-.05.04-.05.04-.05.04-.05.04-.05-.07.04-.04.05-.04.05-.04.05-.04.05-.04.05-.04.06-.03.05-.04.05-.03.05-.04.06-.03.05-.03.06-.03.06-.02.05-.03.06-.02.06-.02.06-.02.07-.01.06-.02.06-.01h.07l.07-.01h.14l.07.01h.07l.07.02.08.01.08.02.08.02.08.03h-.01l-.02.08zm0 0z" class="fil5"/><g><path d="M11.02 6.86c-.12.22-.12.48-.02.78.22.03.44.06.66.1-.03-.39.03-.63.14-.8-.27 0-.53-.03-.78-.08z" class="fil6"/><path id="1" d="M11 7.6l-.01.08-.03-.03-.01-.03-.01-.02-.01-.03-.01-.03v-.03l-.01-.03v-.02l-.01-.03V7.4l-.01-.03v-.08l-.01-.02v-.05l.01-.03v-.07l.01-.03v-.02l.01-.03v-.02l.01-.02v-.03l.01-.02.01-.02.01-.02.01-.03.01-.02.01-.02.08.04-.01.02-.01.02-.01.02-.01.02-.01.02V7l-.01.02-.01.02v.02l-.01.02v.07l-.01.02v.14l.01.03v.05l.01.02v.03l.01.03v.02l.01.03.01.02v.03l.01.03.01.03L11 7.6zm-.01.08h-.02l-.01-.03.03.03zm.63.07l.09-.01-.05.04h-.04l-.02-.01h-.05l-.02-.01h-.04l-.02-.01h-.04l-.02-.01h-.04l-.02-.01h-.04l-.03-.01h-.04l-.02-.01h-.06l-.02-.01h-.04l-.02-.01h-.07l-.02-.01.01-.08h.05l.02.01h.06l.02.01h.04l.02.01h.07l.02.01h.04l.02.01h.04l.02.01h.04l.03.01h.04l.02.01h.02l.02.01h.04l.02.01h.02l-.05.05zm.09-.01v.05l-.05-.01.05-.04zm.09-.76V6.9l.04.06-.01.02-.01.01-.01.02-.01.02-.01.02-.01.01v.02l-.01.02-.01.02-.01.02v.02l-.01.02v.02l-.01.02-.01.02v.05l-.01.03v.05l-.01.02V7.7l.01.04-.09.01v-.08l-.01-.03v-.22l.01-.03v-.06l.01-.03v-.02l.01-.03v-.02l.01-.03v-.02l.01-.02.01-.03v-.02l.01-.02.01-.02.01-.02.01-.02v-.02l.01-.02.01-.02.01-.02.01-.02.01-.01.04.06zm0-.08h.08l-.04.06-.04-.06zm-.74-.02l-.08-.04.05-.02h.02l.03.01h.02l.02.01h.05l.02.01h.05l.03.01h.04l.03.01h.07l.02.01h.1l.03.01h.14l.03.01h.07v.08H11.57l-.02-.01h-.1l-.02-.01h-.08l-.02-.01h-.05l-.03-.01h-.04l-.03-.01h-.05l-.02-.01h-.02l-.03-.01h-.02l-.03-.01.05-.02zm-.08-.04l.02-.03.03.01-.05.02z" class="fil5"/></g><g><path d="M10.91 12.32c.17.57.52.2 1.03-1.06.26-.28.61.11.96.55-.22-1.66-.63-3.04-1.24-4.11-.22-.02-.44-.05-.66-.07-.77.81-.69 2.49-.09 4.69z" class="fil6"/><path id="1" d="M11.91 11.24l.06.05.01-.01-.05.12-.04.11-.05.1-.04.1-.05.09-.04.09-.04.09-.04.08-.04.07-.04.07-.04.06-.04.06-.04.06-.03.04-.04.05-.03.04-.04.03-.03.03-.03.02-.04.02-.03.01h-.07l-.04-.01-.03-.01-.03-.03-.02-.02-.03-.04-.02-.03-.02-.04-.02-.05-.01-.05.08-.03.01.05.02.04.02.04.02.03.01.02.02.02.02.01.01.01.02.01h.02l.02-.01h.02l.02-.02.03-.01.03-.03.03-.02.03-.04.03-.04.03-.04.04-.06.04-.05.03-.06.04-.07.04-.07.04-.08.04-.08.05-.09.04-.1.04-.09.05-.11.04-.11.05-.11.01-.01zm-.01.01v-.01h.01l-.01.01zm.96.57l.09-.01-.08.03-.03-.04-.04-.04-.03-.04-.03-.04-.04-.04-.03-.04-.03-.03-.03-.04-.03-.03-.04-.04-.03-.03-.03-.03-.03-.02-.03-.03-.03-.02-.03-.03-.03-.02-.03-.01-.02-.02-.03-.01-.03-.01-.02-.01-.03-.01h-.07l-.02.01-.02.01-.02.01-.02.01-.02.02-.03.02-.06-.05.03-.03.02-.03.03-.02.03-.01.04-.01.03-.01h.1l.03.01.03.01.03.01.03.01.04.02.03.02.03.02.03.03.03.02.04.03.03.03.03.03.04.03.03.04.03.03.03.04.04.04.03.03.03.04.04.04.03.04.03.04.04.04-.08.04zm.09-.01l.02.15-.1-.12.08-.03zm-1.29-4.07v-.08l.04.02.06.1.05.1.06.11.05.11.05.11.05.11.05.11.05.11.05.12.05.12.04.12.04.12.05.12.04.13.04.13.04.12.04.13.03.14.04.13.04.13.03.14.03.14.03.14.03.14.03.15.03.14.03.15.02.15.03.15.02.15.02.15.03.16-.09.01-.02-.16-.02-.15-.03-.15-.02-.15-.03-.15-.02-.14-.03-.15-.03-.14-.03-.14-.03-.14-.04-.14-.03-.13-.03-.14-.04-.13-.04-.13-.03-.13-.04-.13-.04-.12-.04-.13-.05-.12-.04-.12-.05-.12-.04-.12-.05-.11-.05-.12-.05-.11-.05-.11-.05-.11-.05-.1-.06-.11-.05-.1-.06-.1.04.02zm0-.08h.03l.01.02-.04-.02zm-.63 0l-.06-.06.03-.01h.05l.02.01h.08l.02.01h.08l.02.01h.09l.02.01h.06l.02.01h.08l.02.01h.08l.02.01v.08h-.07l-.02-.01h-.08l-.02-.01h-.08l-.02-.01h-.07l-.02-.01h-.08l-.02-.01h-.08l-.02-.01h-.09l.04-.02zm-.06-.06l.01-.01H11l-.03.01zm-.02 4.71l-.08.03v-.01l-.06-.2-.05-.2-.05-.2-.04-.2-.04-.19-.04-.19-.04-.19-.03-.18-.03-.18-.02-.17-.02-.17-.02-.17-.01-.17-.01-.16-.01-.15V9.31l.01-.15.01-.14.01-.14.02-.13.02-.12.03-.13.04-.12.03-.11.04-.11.05-.11.05-.1.06-.09.06-.09.07-.09.07-.08.06.06-.07.08-.06.08-.06.09-.05.09-.05.09-.05.1-.04.11-.03.11-.03.11-.03.12-.02.13-.02.13-.02.13-.01.14V9.76l.01.16.02.16.01.17.02.17.03.17.03.18.03.18.03.18.04.19.04.19.05.2.04.2.05.2.06.2zm-.08.03v-.01.01z" class="fil5"/></g><g><path d="M3.54 10.47c.39 0 .71.32.71.71 0 .39-.32.7-.71.7-.39 0-.7-.31-.7-.7 0-.39.31-.71.7-.71z" class="fil7"/><path id="1" d="M4.29 11.18h-.08v-.04l-.01-.03v-.03l-.01-.04v-.03l-.01-.03-.01-.03-.01-.03-.02-.03-.01-.03-.02-.03-.02-.02-.01-.03-.02-.03-.02-.02-.03-.02-.02-.02-.02-.03-.03-.02-.03-.01-.02-.02-.03-.02-.03-.01-.03-.01-.03-.02-.03-.01-.03-.01h-.03l-.04-.01h-.03l-.03-.01h-.04v-.08h.12l.03.01.04.01.04.01.03.01.04.02.03.01.03.02.03.02.03.01.03.02.03.03.03.02.02.03.03.02.02.03.02.03.03.03.02.03.01.03.02.03.02.03.01.04.01.03.01.04.01.04.01.03v.12zm-.75.75v-.09h.07l.03-.01h.04l.03-.01.03-.01.03-.01.03-.01.03-.02.03-.01.03-.02.02-.01.03-.02.03-.02.02-.02.02-.02.03-.03.02-.02.02-.03.01-.02.02-.03.02-.03.01-.03.02-.02.01-.03.01-.04.01-.03v-.03l.01-.03v-.04l.01-.03v-.03h.08V11.29l-.01.04-.01.03-.01.04-.01.03-.01.04-.02.03-.02.03-.01.04-.02.03-.03.03-.02.02-.02.03-.03.03-.02.02-.03.03-.03.02-.03.02-.03.02-.03.02-.03.01-.03.02-.04.01-.03.01-.04.01-.04.01-.03.01h-.04l-.04.01h-.04zm-.75-.75h.09v.06l.01.04v.03l.01.03.01.03.01.04.01.03.02.02.01.03.02.03.01.03.02.02.02.03.02.02.02.03.03.02.02.02.03.02.02.02.03.01.03.02.03.01.03.02.03.01.03.01.03.01.03.01h.03l.04.01h.06v.09h-.03l-.04-.01h-.04l-.04-.01-.03-.01-.04-.01-.03-.01-.04-.01-.03-.02-.03-.01-.04-.02-.03-.02-.03-.02-.02-.02-.03-.03-.03-.02-.02-.03-.03-.03-.02-.02-.02-.03-.02-.03-.02-.04-.01-.03-.02-.03-.01-.04-.01-.03-.01-.04-.01-.03-.01-.04v-.04l-.01-.03v-.04zm.75-.75v.08h-.03l-.03.01h-.04l-.03.01h-.03l-.03.01-.03.01-.03.02-.03.01-.03.01-.03.02-.03.02-.02.01-.03.02-.02.03-.03.02-.02.02-.02.02-.02.03-.02.03-.01.02-.02.03-.01.03-.02.03-.01.03-.01.03-.01.03-.01.03v.04l-.01.03v.07h-.09v-.04l.01-.04v-.04l.01-.03.01-.04.01-.04.01-.03.01-.04.02-.03.01-.03.02-.03.02-.03.02-.03.02-.03.03-.03.02-.02.03-.03.03-.02.02-.02.03-.03.03-.01.04-.02.03-.02.03-.01.04-.02.03-.01.04-.01.03-.01.04-.01h.11z" class="fil5"/></g><g><path d="M6.39 8.79c.39 0 .71.32.71.71 0 .39-.32.71-.71.71-.39 0-.7-.32-.7-.71 0-.39.31-.71.7-.71z" class="fil7"/><path id="1" d="M7.14 9.5h-.08v-.03l-.01-.04V9.4l-.01-.03v-.04l-.01-.03-.01-.03L7 9.24l-.01-.03-.01-.03-.02-.02-.02-.03-.02-.03-.01-.02-.03-.03-.02-.02-.02-.02-.03-.02-.02-.02-.03-.02-.02-.02-.03-.01-.03-.02-.03-.01-.03-.01-.03-.01-.03-.01-.03-.01-.04-.01h-.1v-.09h.08l.04.01h.03l.04.01.04.01.03.01.03.02.04.01.03.02.03.02.03.02.03.02.03.02.03.02.02.03.03.02.02.03.02.03.03.03.01.03.02.03.02.03.01.04.02.03.01.04.01.03.01.04v.04l.01.03v.08zm-.75.75v-.09h.1l.04-.01.03-.01.03-.01.03-.01.03-.01.03-.01.03-.02.03-.01.02-.02.03-.02.03-.02.02-.02.02-.02.02-.02.03-.03.01-.02.02-.03.02-.03.02-.02.01-.03.01-.03.02-.03.01-.03.01-.03v-.04l.01-.03v-.03l.01-.04V9.5h.08v.08l-.01.03v.04l-.01.04-.01.03-.01.04-.02.03-.01.04-.02.03-.02.03-.01.03-.03.03-.02.03-.02.02-.03.03-.02.03-.03.02-.03.02-.03.02-.03.02-.03.02-.03.02-.04.01-.03.01-.03.02-.04.01h-.04l-.03.01-.04.01h-.08zm-.75-.75h.09v.07l.01.03v.03l.01.04.01.03.01.03.01.03.01.03.02.03.02.02.01.03.02.03.02.02.02.03.02.02.03.02.02.02.03.02.02.02.03.02.03.01.02.02.03.01.03.01.04.01.03.01.03.01.03.01h.1v.09h-.07l-.04-.01-.04-.01H6.2l-.03-.01-.04-.02-.03-.01-.03-.01-.04-.02-.03-.02-.03-.02-.03-.02-.02-.02-.03-.02-.03-.03-.02-.03-.03-.02-.02-.03-.02-.03-.02-.03-.02-.03-.01-.03-.02-.04-.01-.03-.01-.04-.01-.03-.01-.04-.01-.04v-.03l-.01-.04V9.5zm.75-.75v.09h-.1l-.03.01-.03.01-.03.01-.04.01-.03.01-.03.01-.02.02-.03.01-.03.02-.02.02-.03.02-.02.02-.03.02-.02.02-.02.03-.02.02-.02.03-.01.03-.02.02-.02.03-.01.03-.01.03-.01.03-.01.03-.01.04v.03l-.01.03v.07h-.09v-.04l.01-.04v-.03l.01-.04.01-.04.01-.03.01-.04.01-.03.02-.04.01-.03.02-.03.02-.03.02-.03.02-.03.03-.03.02-.02.03-.03.03-.02.02-.02.03-.02.03-.02.03-.02.04-.02.03-.01.03-.02.04-.01.03-.01.04-.01h.04l.04-.01h.07z" class="fil5"/></g><g><path d="M6.35 11.82c.39 0 .71.32.71.71 0 .39-.32.71-.71.71-.39 0-.7-.32-.7-.71 0-.39.31-.71.7-.71z" class="fil7"/><path id="1" d="M7.1 12.53h-.08v-.03l-.01-.04v-.03L7 12.4v-.04l-.01-.03-.01-.03-.02-.03-.01-.03-.01-.03-.02-.02-.02-.03-.02-.03-.02-.02-.02-.03-.02-.02-.02-.02-.03-.02-.02-.02-.03-.02-.02-.02-.03-.01-.03-.02-.03-.01-.03-.01-.03-.01-.03-.01-.03-.01-.04-.01h-.1v-.09h.08l.04.01.03.01h.04l.04.01.03.02.03.01.04.01.03.02.03.02.03.02.03.02.03.02.03.03.02.02.03.03.02.02.02.03.02.03.02.03.02.03.02.04.01.03.02.03.01.04.01.03.01.04v.04l.01.03v.08zm-.75.75v-.09h.1l.04-.01.03-.01.03-.01.03-.01.03-.01.03-.01.03-.02.03-.01.02-.02.03-.02.02-.02.03-.02.02-.02.02-.02.02-.03.02-.02.02-.03.02-.03.02-.02.01-.03.01-.03.02-.03.01-.03.01-.03v-.04l.01-.03v-.03l.01-.04v-.03h.08v.08l-.01.03v.04l-.01.04-.01.03-.01.04-.02.03-.01.04-.02.03-.02.03-.02.03-.02.03-.02.03-.02.02-.03.03-.02.03-.03.02-.03.02-.03.02-.03.02-.03.02-.03.02-.04.01-.03.02-.03.01-.04.01-.04.01h-.03l-.04.01h-.08zm-.75-.75h.09v.07l.01.03v.03l.01.04.01.03.01.03.01.03.01.03.02.03.01.02.02.03.02.03.02.02.02.03.02.02.03.02.02.02.02.02.03.02.03.02.03.01.02.02.03.01.03.01.03.01.04.01.03.01.03.01h.1v.09h-.07l-.04-.01H6.2l-.04-.01-.03-.01-.04-.01-.03-.02-.03-.01-.04-.02-.03-.02-.03-.02-.03-.02-.03-.02-.02-.02-.03-.03-.02-.03-.03-.02-.02-.03-.02-.03-.02-.03-.02-.03-.01-.03-.02-.04-.01-.03-.01-.04-.01-.03-.01-.04-.01-.04v-.03l-.01-.04v-.04zm.75-.75v.09h-.1l-.03.01-.03.01-.04.01-.03.01-.03.01-.03.01-.02.02-.03.01-.03.02-.03.02-.02.02-.02.02-.03.02-.02.02-.02.03-.02.02-.02.03-.02.03-.01.02-.02.03-.01.03-.01.03-.01.03-.01.03-.01.04v.03l-.01.03v.07H5.6v-.04l.01-.04v-.03l.01-.04.01-.04.01-.03.01-.04.01-.03.02-.03.01-.04.02-.03.02-.03.02-.03.02-.03.03-.02.02-.03.03-.02.02-.03.03-.02.03-.02.03-.02.03-.02.04-.02.03-.01.03-.01.04-.02.03-.01h.04l.04-.01.04-.01h.07z" class="fil5"/></g><g><path d="M9.06 10.29c.39 0 .71.31.71.7 0 .4-.32.71-.71.71-.39 0-.71-.31-.71-.71 0-.39.32-.7.71-.7z" class="fil7"/><path id="1" d="M9.81 10.99h-.09v-.1l-.01-.03-.01-.03-.01-.03-.01-.03-.01-.03-.01-.03-.02-.03-.01-.03-.02-.03-.02-.02-.02-.03-.02-.02-.02-.02-.02-.03-.03-.02-.02-.02-.03-.02-.03-.01-.02-.02-.03-.01-.03-.02-.03-.01-.03-.01-.03-.01-.04-.01h-.03l-.03-.01h-.07v-.09l.04.01h.07l.04.01.04.01.03.01.04.01.03.01.04.02.03.02.03.01.03.02.03.02.03.03.02.02.03.02.03.03.02.03.02.03.02.03.02.03.02.03.02.03.01.03.01.04.02.03.01.04.01.03v.04l.01.04v.07zm-.75.76v-.09h.07l.03-.01h.03l.04-.01.03-.01.03-.01.03-.01.03-.02.03-.01.02-.02.03-.02.03-.01.02-.02.03-.02.02-.03.02-.02.02-.02.02-.03.02-.02.02-.03.01-.03.02-.03.01-.03.01-.03.01-.03.01-.03.01-.03.01-.03V10.99h.09v.08l-.01.04v.04l-.01.03-.01.04-.02.03-.01.04-.01.03-.02.03-.02.03-.02.03-.02.03-.02.03-.02.03-.03.03-.03.02-.02.02-.03.03-.03.02-.03.02-.03.01-.03.02-.04.02-.03.01-.04.01-.03.01-.04.01-.04.01H9.1l-.04.01zm-.75-.76h.09V11.1l.01.03.01.03.01.03.01.03.01.03.01.03.02.03.01.03.02.03.02.02.02.03.02.02.02.02.02.03.03.02.02.02.03.01.03.02.02.02.03.01.03.02.03.01.03.01.03.01.04.01h.03l.03.01h.07v.09l-.04-.01h-.07l-.04-.01-.04-.01-.03-.01-.04-.01-.03-.01-.04-.02-.03-.02-.03-.01-.03-.02-.03-.02-.03-.03-.02-.02-.03-.02-.03-.03-.02-.03-.02-.03-.02-.03-.02-.03-.02-.03-.02-.03-.01-.03-.02-.04-.01-.03-.01-.04-.01-.03v-.04l-.01-.04v-.08zm.75-.75v.09h-.07l-.03.01h-.03l-.04.01-.03.01-.03.01-.03.01-.03.02-.03.01-.02.02-.03.01-.03.02-.02.02-.03.02-.02.03-.02.02-.02.02-.02.03-.02.02-.02.03-.01.03-.02.03-.01.03-.01.03-.01.03-.01.03-.01.03-.01.03v.1h-.09v-.07l.01-.04v-.04l.01-.03.01-.04.01-.03.02-.04.01-.03.02-.03.02-.03.02-.04.02-.02.02-.03.02-.03.03-.03.03-.02.02-.02.03-.03.03-.02.03-.02.03-.01.03-.02.04-.02.03-.01.04-.01.03-.01.04-.01.04-.01h.07l.04-.01z" class="fil5"/></g><g><path d="M14.15 11.26c.39 0 .71.31.71.7 0 .4-.32.71-.71.71-.39 0-.71-.31-.71-.71 0-.39.32-.7.71-.7z" class="fil7"/><path id="1" d="M14.9 11.96h-.08l-.01-.03v-.07l-.01-.03v-.03l-.01-.03-.01-.03-.02-.03-.01-.03-.01-.03-.02-.03-.02-.03-.02-.02-.02-.03-.02-.02-.02-.02-.02-.03-.03-.02-.02-.02-.03-.02-.02-.01-.03-.02-.03-.01-.03-.02-.03-.01-.03-.01-.03-.01-.03-.01h-.04l-.03-.01h-.07v-.09h.04l.04.01h.04l.03.01.04.01.04.01.03.01.03.01.04.02.03.01.03.02.03.02.03.02.03.03.03.02.02.02.03.03.02.03.02.03.02.02.02.04.02.03.02.03.01.03.02.04.01.03.01.04.01.03v.04l.01.04v.07zm-.75.76v-.09h.07l.03-.01.04-.01h.03l.03-.01.03-.01.03-.01.03-.02.03-.01.03-.02.02-.02.03-.01.02-.02.03-.02.02-.03.02-.02.02-.02.02-.03.02-.02.02-.03.02-.03.01-.03.01-.03.02-.03.01-.03.01-.03v-.03l.01-.03V12l.01-.04h.08v.08l-.01.04v.04l-.01.03-.01.04-.01.03-.02.04-.01.03-.02.03-.02.03-.02.03-.02.03-.02.03-.02.03-.03.03-.02.02-.03.02-.03.03-.03.02-.03.02-.03.01-.03.02-.04.02-.03.01-.03.01-.04.01-.04.01-.03.01h-.08l-.04.01zm-.75-.76h.09v.07l.01.04v.03l.01.03.01.03.01.03.01.03.01.03.02.03.01.03.02.03.02.02.02.03.02.02.02.02.03.03.02.02.02.02.03.01.03.02.03.02.02.01.03.02.03.01.03.01.04.01h.03l.03.01.03.01h.07v.09l-.04-.01h-.07L14 12.7l-.04-.01-.03-.01-.04-.01-.03-.01-.03-.02-.04-.02-.03-.01-.03-.02-.03-.02-.03-.03-.02-.02-.03-.02-.02-.03-.03-.03-.02-.03-.02-.03-.02-.03-.02-.03-.01-.03-.02-.03-.01-.04-.01-.03-.01-.04-.01-.03-.01-.04v-.04L13.4 12v-.04zm.75-.75v.09h-.07l-.03.01h-.03l-.03.01-.04.01-.03.01-.03.01-.03.02-.02.01-.03.02-.03.01-.03.02-.02.02-.02.02-.03.03-.02.02-.02.02-.02.03-.02.02-.02.03-.01.03-.02.03-.01.03-.01.03-.01.03-.01.03-.01.03v.03l-.01.04v.06h-.09v-.03l.01-.04v-.04l.01-.04.01-.03.01-.04.01-.03.01-.04.02-.03.01-.03.02-.03.02-.03.02-.03.02-.03.03-.03.02-.03.03-.02.02-.02.03-.03.03-.02.03-.02.03-.02.04-.01.03-.02.03-.01.04-.01.03-.01.04-.01.04-.01h.03l.04-.01h.04z" class="fil5"/></g><g><path d="M15.53 8.43c.39 0 .7.32.7.71 0 .39-.31.7-.7.7-.4 0-.71-.31-.71-.7 0-.39.31-.71.71-.71z" class="fil7"/><path id="1" d="M16.28 9.14h-.09v-.07l-.01-.04V9l-.01-.03-.01-.03-.01-.03-.01-.03-.02-.03-.01-.03-.02-.03-.01-.03-.02-.02-.02-.03-.02-.02-.02-.02-.03-.03-.02-.02-.03-.02-.02-.01-.03-.02-.03-.02-.03-.01-.03-.02-.03-.01-.03-.01-.03-.01h-.03l-.03-.01h-.04l-.03-.01h-.03v-.08H15.64l.04.01.03.01.04.01.03.01.04.01.03.02.03.02.03.01.03.02.03.02.03.03.03.02.03.03.02.02.02.03.03.03.02.03.02.03.02.03.01.03.02.03.01.04.01.03.01.04.01.03.01.04v.04l.01.04v.04zm-.75.75V9.8h.06l.04-.01h.03l.03-.01.03-.01.03-.01.03-.01.03-.02.03-.01.03-.02.03-.01.02-.02.03-.02.02-.02.03-.02.02-.03.02-.02.02-.03.02-.02.01-.03.02-.03.01-.03.02-.03.01-.03.01-.03.01-.03.01-.03v-.03l.01-.04v-.06h.09v.03l-.01.04v.04l-.01.04-.01.03-.01.04-.01.03-.01.04-.02.03-.01.03-.02.04-.02.03-.02.02-.03.03-.02.03-.02.03-.03.02-.03.03-.03.02-.02.02-.04.02-.03.02-.03.01-.03.02-.04.01-.03.01-.04.01-.03.01-.04.01h-.04l-.04.01h-.03zm-.75-.75h.08v.03l.01.03v.04l.01.03v.03l.01.03.01.03.01.03.02.03.01.03.02.03.02.03.01.02.02.03.02.02.03.03.02.02.02.02.03.02.02.02.03.01.03.02.03.01.03.02.03.01.03.01.03.01.03.01h.03l.04.01h.07v.09h-.04l-.04-.01h-.04l-.04-.01-.03-.01-.04-.01-.03-.01-.04-.01-.03-.02-.03-.01-.03-.02-.03-.02-.03-.02-.03-.02-.03-.03-.03-.02-.02-.03-.02-.03-.03-.03-.02-.02-.02-.03-.01-.04-.02-.03-.02-.03-.01-.04-.01-.03-.01-.04-.01-.03-.01-.04v-.11zm.75-.75v.08h-.04l-.03.01h-.04l-.03.01h-.03l-.03.01-.03.01-.03.01-.03.02-.03.01-.03.02-.03.02-.02.01-.03.02-.02.02-.02.03-.03.02-.02.02-.02.03-.01.02-.02.03-.02.03-.01.03-.02.03-.01.03-.01.03-.01.03V9l-.01.03v.04l-.01.03v.04h-.08v-.12l.01-.04.01-.03.01-.04.01-.03.01-.04.02-.03.02-.03.01-.03.02-.03.02-.03.03-.03.02-.03.02-.02.03-.03.03-.02.03-.03.03-.02.03-.02.03-.01.03-.02.03-.02.04-.01.03-.01.04-.01.03-.01.04-.01h.12z" class="fil5"/></g><g><path d="M17.5 12.32c-.05.02-.11.02-.16.02-.39 0-.71-.31-.71-.7 0-.34.23-.62.55-.69.11.48.21.95.32 1.37zM1.22 8.52c-.08.29-.16.57-.24.86.11.25.36.42.64.42.39 0 .71-.31.71-.7 0-.4-.32-.71-.71-.71-.15 0-.29.05-.4.13zM.6 10.73c-.13.46-.26.91-.38 1.37.06.01.12.02.19.02.39 0 .7-.31.7-.7 0-.33-.22-.6-.51-.69z" class="fil7"/><path id="1" d="M17.34 12.39v-.09h.08v-.01H17.48v-.01h.01l.02.09h-.03l-.01.01h-.07l-.01.01h-.05zm-.75-.75h.08v.03l.01.03v.04l.01.03v.03l.01.03.01.04.01.03.02.02.01.03.02.03.02.03.01.02.02.03.02.02.03.03.02.02.02.02.03.02.02.02.03.01.03.02.03.02.03.01.03.01.03.01.03.01.03.01h.04l.03.01h.07v.09h-.04l-.04-.01h-.04l-.04-.01-.03-.01-.04-.01-.03-.01-.04-.01-.03-.02-.03-.01-.03-.02-.03-.02-.03-.02-.03-.02-.03-.03-.02-.02-.03-.03-.02-.03-.03-.02-.02-.03-.02-.03-.01-.04-.02-.03-.02-.03-.01-.04-.01-.03-.01-.04-.01-.03-.01-.04V11.64zm.63-.7l-.08.02.05.03-.03.01h-.03l-.02.01-.03.01-.02.01-.03.02-.02.01-.03.01-.02.02-.02.02-.02.01-.02.02-.02.02-.02.02-.02.02-.02.02-.02.02-.01.02-.02.03-.01.02-.02.02-.01.03-.01.03-.01.02-.01.03-.01.03v.02l-.01.03v.03l-.01.03v.06h-.08v-.1l.01-.03v-.04l.01-.03.01-.03.01-.03.01-.03.01-.03.02-.02.01-.03.02-.03.02-.03.01-.02.02-.02.02-.03.02-.02.03-.02.02-.02.02-.02.03-.02.02-.02.03-.02.02-.02.03-.01.03-.01.03-.02.03-.01.03-.01.03-.01h.03l.05.03zm-.05-.03l.04-.01.01.04-.05-.03zm.34 1.46l-.02-.09-.03.06-.01-.04-.01-.04-.01-.05-.01-.04-.01-.04-.01-.04-.01-.04-.01-.04-.01-.04-.01-.04-.01-.05-.01-.04-.01-.04-.01-.04-.01-.05-.01-.04-.01-.04-.01-.05-.01-.04-.01-.05-.01-.04-.01-.04-.01-.05-.01-.04-.01-.05-.01-.04-.01-.05-.01-.04-.01-.05-.01-.04-.01-.05-.01-.04.08-.02.01.04.01.05.01.04.01.05.01.04.01.05.01.04.01.05.01.04.01.05.01.04.01.05.01.04.01.04.01.05.01.04.01.04.01.05.01.04.01.04.01.04.01.05.01.04.01.04.01.04.01.04.01.04.01.04.01.04.01.04.01.04.01.04-.03.06zm.03-.06l.01.05-.04.01.03-.06zM1.02 9.37l-.08.03v-.05l.01-.03.01-.03.01-.03v-.02l.01-.03.01-.03.01-.02.01-.03V9.1l.01-.03.01-.02.01-.03v-.03l.01-.02.01-.03.01-.03v-.03l.01-.02.01-.03.01-.03v-.02l.01-.03.01-.03.01-.03v-.02l.01-.03.01-.03.01-.02v-.03l.01-.03.01-.03.08.03-.01.02v.03l-.01.03-.01.03-.01.02v.03l-.01.03-.01.02-.01.03v.03l-.01.03-.01.02-.01.03v.03l-.01.02-.01.03-.01.03v.03l-.01.02-.01.03-.01.03v.02l-.01.03-.01.03-.01.03v.02l-.01.03-.01.03-.01.02v.03l-.01.03-.01.03v-.03zm-.08.03l-.01-.01.01-.02v.03zm.68.36v.09H1.6l-.03-.01h-.06l-.03-.01h-.02l-.03-.01-.03-.01-.02-.01h-.03l-.02-.01-.03-.02-.02-.01-.02-.01-.03-.01-.02-.02-.02-.01-.02-.02-.02-.02-.02-.01-.02-.02-.02-.02-.02-.02-.02-.02-.01-.02-.02-.02L1 9.52.99 9.5l-.01-.03-.02-.02-.01-.02-.01-.03.08-.03.01.02.01.02.01.02.01.02.02.02.01.02.01.02.02.02.01.01.02.02.02.02.01.01.02.02.02.01.02.02.02.01.02.01.02.01.02.02.02.01.02.01h.02l.03.01.02.01.02.01h.03l.02.01h.02l.03.01h.07zm.67-.66h.08V9.21l-.01.04-.01.03-.01.04-.01.03-.01.04-.02.03-.02.03-.01.03-.02.03-.02.03-.03.03-.02.03-.03.03-.02.02-.03.02-.03.03-.03.02-.03.02-.03.02-.03.01-.03.02-.04.01-.03.01-.04.01-.03.01-.04.01h-.08l-.04.01v-.09h.07l.03-.01h.04l.03-.01.03-.01.03-.01.03-.01.03-.02.03-.01.03-.02.03-.01.02-.02.03-.02.02-.02.02-.03.03-.02.02-.02.02-.03.01-.02.02-.03.02-.03.01-.03.02-.03.01-.03.01-.03.01-.03v-.03l.01-.03v-.04l.01-.03V9.1zm-.67-.67v-.09l.04.01h.08l.04.01.03.01.04.01.03.01.04.01.03.02.03.02.03.01.03.02.03.02.03.03.03.02.02.02.03.03.02.03.03.03.02.03.02.03.01.03.02.03.02.03.01.04.01.03.01.04.01.03.01.04v.12h-.08v-.04l-.01-.03v-.04l-.01-.03v-.03l-.01-.03-.01-.03-.01-.03-.02-.03-.01-.03-.02-.03-.02-.03-.01-.02-.02-.03-.02-.02-.03-.02-.02-.03-.02-.02-.03-.02L2 8.54l-.03-.01-.03-.02-.03-.01-.03-.02-.03-.01-.03-.01-.03-.01-.03-.01h-.04l-.03-.01h-.07zm-.36.1l-.08-.03.01-.02.02-.01.01-.01h.01l.01-.01.01-.01h.02l.01-.01.01-.01h.01l.02-.01h.01l.01-.01.01-.01h.03l.01-.01h.02l.01-.01h.03l.01-.01h.03l.02-.01h.08l.02-.01h.01v.09H1.56l-.01.01H1.5l-.02.01h-.02l-.01.01h-.03l-.01.01H1.4l-.01.01h-.02l-.01.01h-.01l-.01.01h-.01l-.01.01h-.01l-.01.01h-.01l-.02.01-.01.01h-.01l-.01.01.02-.02zm-.08-.03v-.01l.01-.01-.01.02zm-.95 3.56l-.02.08-.03-.05.01-.05L.2 12l.01-.04.01-.04.02-.05.01-.04.01-.04.01-.04.01-.05.01-.04.02-.04.01-.05.01-.04.01-.04.01-.04.01-.05.02-.04.01-.04.01-.04.01-.05.01-.04.01-.04.02-.04.01-.05.01-.04.01-.04.01-.04.02-.05.01-.04.01-.04.01-.05.01-.04.09.03-.01.04-.02.04-.01.04-.01.05-.01.04-.01.04-.02.04-.01.05-.01.04-.01.04-.01.04-.02.05-.01.04-.01.04-.01.04-.01.05-.01.04-.02.04-.01.05-.01.04-.01.04-.01.04-.01.05-.02.04-.01.04-.01.04-.01.05-.01.04-.01.04-.01.04-.02.05-.01.04-.03-.05zm-.02.08l-.04-.01.01-.04.03.05zm.2-.06v.09H.37l-.01-.01H.28v-.01H.23v-.01H.21l.02-.08h.04l.01.01h.05v.01h.08zm.66-.66h.09v.03l-.01.04v.04l-.01.04-.01.03-.01.04-.01.03-.01.04-.02.03-.01.03-.02.03-.02.03-.02.03-.03.03-.02.03-.02.03-.03.02-.03.02-.03.03-.02.02-.03.02-.04.02-.03.01-.03.02-.04.01-.03.01-.04.01-.03.01-.04.01H.48l-.04.01H.41v-.09h.06l.04-.01h.03l.03-.01.03-.01.03-.01.03-.01.03-.02.03-.01.03-.02.03-.01.02-.02.03-.02.02-.02.03-.03.02-.02.02-.02.02-.03.02-.02.01-.03.02-.03.01-.03.02-.03.01-.03.01-.03.01-.03.01-.03v-.03l.01-.04v-.06zm-.43-.67l-.09-.03.06-.03.03.01.03.01.02.01.03.01.03.02.03.01.02.02.03.01.02.02.02.02.03.02.02.02.02.02.02.02.02.02.02.03.02.02.02.03.01.02.02.03.01.03.01.02.01.03.02.03v.03l.01.03.01.03.01.03v.06l.01.03v.04h-.09v-.06l-.01-.03v-.05l-.01-.03-.01-.03-.01-.02-.01-.03-.01-.02-.01-.03-.01-.02-.01-.02-.02-.03-.01-.02-.02-.02-.01-.02-.02-.02-.02-.02-.02-.02-.02-.02-.02-.01-.02-.02-.02-.01-.02-.02-.03-.01-.02-.02-.02-.01-.03-.01-.02-.01-.03-.01H.58l.06-.03zm-.09-.03l.02-.04.04.01-.06.03z" class="fil5"/></g><g><path d="M11.97.31c.39 0 .71.31.71.7 0 .39-.32.71-.71.71-.39 0-.71-.32-.71-.71 0-.39.32-.7.71-.7zm4.33 6.02c.07-.5.07-.97 0-1.42-.36.03-.66.34-.66.71 0 .37.29.68.66.71zm-.92-3.77c-.24-.35-.5-.67-.78-.95-.33.05-.59.35-.59.7 0 .39.32.7.71.7.3 0 .56-.18.66-.45zm-1.71 1.18c.39 0 .7.32.7.71 0 .39-.31.71-.7.71-.39 0-.71-.32-.71-.71 0-.39.32-.71.71-.71z" class="fil7"/><path id="1" d="M12.72 1.01h-.09v-.1l-.01-.03-.01-.03-.01-.03-.01-.04-.01-.03-.01-.02-.02-.03-.01-.03-.02-.03-.02-.02-.02-.03-.02-.02-.02-.03-.02-.02-.03-.02-.02-.02-.03-.02-.03-.01-.02-.02-.03-.02-.03-.01-.03-.01-.03-.01-.03-.01-.04-.01h-.03l-.03-.01h-.07V.26h.04l.04.01h.03l.04.01.04.01.03.01.04.01.03.01.03.02.04.01.03.02.03.02.03.02.03.02.02.03.03.02.02.03.03.03.02.02.02.03.02.03.02.04.02.03.01.03.01.04.02.03.01.04v.03l.01.04.01.04v.07zm-.75.75v-.08H12l.04-.01h.03l.03-.01h.04l.03-.01.03-.01.03-.02.03-.01.03-.01.02-.02.03-.02.03-.01.02-.02.03-.03.02-.02.02-.02.02-.02.02-.03.02-.03.02-.02.01-.03.02-.03.01-.03.01-.03.01-.03.01-.03.01-.03.01-.04v-.1h.09v.08l-.01.04-.01.03v.04l-.01.04-.02.03-.01.04-.01.03-.02.03-.02.03-.02.03-.02.03-.02.03-.03.03-.02.02-.03.03-.02.02-.03.02-.03.03-.03.01-.03.02-.04.02-.03.01-.03.02-.04.01-.03.01-.04.01h-.04l-.03.01h-.08zm-.75-.75h.09v.1l.01.04.01.03.01.03.01.03.01.03.01.03.02.03.01.03.02.02.02.03.02.03.02.02.02.02.02.02.03.03.02.02.03.01.03.02.02.02.03.01.03.01.03.02.03.01.03.01h.04l.03.01h.03l.04.01h.03v.08h-.08l-.03-.01h-.04l-.04-.01-.03-.01-.04-.01-.03-.02-.04-.01-.03-.02-.03-.02-.03-.01-.03-.03-.03-.02-.03-.02-.02-.03-.03-.02-.02-.03-.02-.03-.02-.03-.02-.03-.02-.03-.02-.03-.01-.03-.02-.04-.01-.03-.01-.04-.01-.04v-.03l-.01-.04v-.08zm.75-.75v.09h-.07l-.03.01h-.03l-.04.01-.03.01-.03.01-.03.01-.03.01-.03.02-.02.02-.03.01-.03.02-.02.02-.03.02-.02.02-.02.03-.02.02-.02.03-.02.02-.02.03-.01.03-.02.03-.01.02-.01.03-.01.04-.01.03-.01.03-.01.03v.1h-.09V.94l.01-.04V.86l.01-.03.01-.04.01-.03.02-.04.01-.03.02-.03.02-.04.02-.03.02-.03.02-.02.02-.03.03-.03.02-.02.03-.03.03-.02.03-.02.03-.02.03-.02.03-.01.04-.02.03-.01.04-.01.03-.01.04-.01.04-.01h.03l.04-.01h.04zm4.34 4.7l-.01-.09.05.04v.04l.01.04v.05l.01.04v.04l.01.04v.09l.01.04v.63l-.01.04v.05l-.01.04v.1l-.01.04v.05l-.01.05-.01.04-.08-.01v-.05l.01-.04.01-.05v-.09l.01-.04V6l.01-.04V5.78l.01-.05v-.26l-.01-.04v-.17l-.01-.05v-.08l-.01-.04v-.04L16.27 5v-.04l-.01-.04.05.04zm-.01-.09h.04l.01.04-.05-.04zm-.61.75h-.09v-.07l.01-.04.01-.04v-.03l.01-.03.01-.04.02-.03.01-.03.01-.03.02-.04.02-.02.02-.03.02-.03.02-.03.02-.02.03-.03.02-.02.03-.02.03-.02.03-.03.03-.01.03-.02.03-.02.03-.01.03-.01.04-.02.03-.01h.03l.04-.01.04-.01h.03l.01.09h-.03l-.04.01h-.03l-.03.01-.03.01-.03.01-.03.01-.03.01-.02.02-.03.01-.03.02-.02.01-.02.02-.03.02-.02.02-.02.03-.02.02-.02.02-.02.03-.02.02-.01.03-.02.03-.01.02-.01.03-.02.03v.03l-.01.03-.01.03-.01.03v.1zm.57.7l.08.01-.04.04h-.04l-.03-.01-.04-.01h-.03l-.04-.01-.03-.02-.03-.01-.04-.01-.03-.02-.03-.02-.03-.02-.02-.02-.03-.02-.03-.02-.02-.02-.03-.03-.02-.02-.02-.03-.02-.03-.02-.03-.02-.03-.02-.03-.01-.03-.01-.03-.02-.03-.01-.04-.01-.03v-.03l-.01-.04-.01-.04v-.07h.09v.1l.01.03.01.03.01.03v.03l.02.03.01.03.01.02.02.03.01.03.02.02.02.03.02.02.02.02.02.03.02.02.02.02.03.01.02.02.03.02.02.01.03.02.03.01.03.01.03.01.03.01.03.01.03.01h.06l-.04.04zm.08.01v.04h-.04l.04-.04zm-1.73-4.68l-.02-.08.04.01.03.03.02.02.03.03.03.03.02.03.03.02.02.03.03.03.02.03.03.03.02.03.03.02.02.03.03.03.02.03.03.03.02.03.03.03.02.03.03.03.02.03.02.04.03.03.02.03.02.03.03.03.02.03.02.04.03.03.02.03.02.03.02.04-.07.04-.02-.03-.02-.03-.02-.03-.03-.03-.02-.04-.02-.03-.03-.03-.02-.03-.02-.03-.03-.03-.02-.03-.02-.03-.03-.03-.02-.03-.02-.03-.03-.03-.02-.03-.03-.03L14.9 2l-.03-.03-.02-.03-.03-.03-.02-.02-.03-.03-.02-.03-.03-.03-.02-.03-.03-.02-.02-.03-.03-.03-.02-.02-.03-.03.04.01zm-.02-.08l.03-.01.01.02-.04-.01zm-.54.74h-.08V2.2l.01-.03.01-.03V2.1l.01-.03.01-.03.02-.03.01-.03.02-.03.01-.03.02-.02.02-.03.02-.03.02-.02.02-.03.02-.02.02-.02.03-.02.02-.02.03-.02.03-.02.03-.02.02-.01.03-.02.03-.01.03-.01.04-.01.03-.01.03-.01h.03l.02.08-.03.01h-.03l-.03.01-.03.01-.02.01-.03.01-.03.02-.02.01-.03.01-.02.02-.02.02-.03.01-.02.02-.02.02-.02.02-.02.03-.02.02-.01.02-.02.02-.01.03-.02.02-.01.03-.01.03-.01.02-.01.03-.01.03-.01.03-.01.03v.06l-.01.03v.03zm.67.66v.09h-.04l-.04-.01h-.04l-.03-.01-.04-.01-.04-.01-.03-.01-.03-.01-.04-.02-.03-.01-.03-.02-.03-.02-.03-.02-.03-.02-.03-.03-.02-.02-.03-.03-.02-.03-.02-.02-.02-.03-.02-.03-.02-.04-.02-.03-.01-.03-.02-.04-.01-.03-.01-.04-.01-.03v-.04l-.01-.04v-.07h.08v.03l.01.03v.04l.01.03v.03l.01.03.01.03.02.03.01.03.01.03.02.03.02.03.02.02.01.03.03.02.02.03.02.02.02.02.03.02.03.02.02.01.03.02.03.01.03.02.03.01.03.01.03.01.03.01h.04l.03.01h.07zm.62-.39l.07-.04.01.04-.01.02-.01.03-.02.02-.01.03-.01.02-.02.02-.02.03-.01.02-.02.02-.02.02-.02.02-.02.02-.02.02-.02.02-.02.02-.02.01-.03.02-.02.01-.02.02-.03.01-.02.01L15 3l-.03.01-.02.01-.03.01-.03.01h-.03l-.03.01h-.05l-.03.01h-.03v-.09h.08l.02-.01h.03l.02-.01h.03l.02-.01.02-.01.03-.01.02-.01.02-.01.02-.01.03-.01.02-.02.02-.01.02-.01.02-.02.02-.01.01-.02.02-.02.02-.02.01-.02.02-.01.01-.02.02-.02.01-.02.01-.03.02-.02.01-.02.01-.02.01-.03v.04zm.07-.04l.02.01-.01.03-.01-.04zm-.99 1.91h-.09v-.07l-.01-.03v-.04l-.01-.03-.01-.03-.01-.03-.01-.03-.01-.03-.02-.03-.02-.03-.01-.02-.02-.03-.02-.02-.02-.03-.02-.02-.03-.02-.02-.02-.03-.02-.02-.02-.03-.02-.03-.02-.03-.01-.02-.01-.03-.02-.04-.01-.03-.01h-.03l-.03-.01h-.07l-.03-.01V3.7h.07l.04.01h.04l.03.01.04.01.03.01.04.02.03.01.03.02.04.02.03.02.03.02.02.02.03.02.03.03.02.02.03.03.02.03.02.03.02.03.02.03.01.03.02.04.01.03.01.03.01.04.01.04.01.03v.04l.01.04v.04zm-.75.75v-.09h.06l.04-.01h.03l.03-.01.03-.01.04-.01.03-.01.02-.01.03-.02.03-.01.03-.02.02-.02.03-.02.02-.02.03-.02.02-.03.02-.02.02-.02.02-.03.01-.03.02-.03.02-.02.01-.03.01-.03.01-.03.01-.04.01-.03v-.03l.01-.03v-.07h.09v.04l-.01.03v.04l-.01.04-.01.04-.01.03-.01.04-.01.03-.02.03-.01.04-.02.03-.02.03-.02.03-.02.03-.03.02-.02.03-.03.02-.03.03-.02.02-.03.02-.03.02-.04.02-.03.01-.03.02-.04.01-.03.01-.04.01-.03.01-.04.01h-.04l-.03.01h-.04zm-.75-.75H13v.03l.01.04v.03l.01.03v.03l.01.04.01.03.02.03.01.03.01.02.02.03.02.03.01.03.02.02.02.02.03.03.02.02.02.02.03.02.03.02.02.02.03.01.03.02.03.01.03.01.03.01.03.01.03.01h.04l.03.01h.07v.09h-.04l-.04-.01h-.04l-.03-.01-.04-.01-.04-.01-.03-.01-.04-.01-.03-.02-.03-.01-.03-.02-.03-.02-.03-.02-.03-.02-.03-.03-.02-.02-.03-.03-.02-.02-.02-.03-.03-.03-.02-.03-.01-.03-.02-.04-.01-.03-.02-.03-.01-.04-.01-.03-.01-.04-.01-.04V4.45zm.75-.75v.08l-.04.01h-.06l-.04.01h-.03l-.03.01-.03.01-.03.02-.03.01-.03.01-.03.02-.02.02-.03.02-.03.02-.02.02-.02.02-.03.02-.02.03-.02.02-.01.03-.02.02-.02.03-.01.03-.01.03-.02.03-.01.03-.01.03v.03l-.01.04v.03l-.01.03v.04h-.08v-.12l.01-.03.01-.04.01-.04.01-.03.02-.03.01-.04.02-.03.01-.03.02-.03.03-.03.02-.03.02-.03.03-.02.02-.03.03-.02.03-.02.03-.02.03-.02.03-.02.03-.02.03-.01.04-.02.03-.01.04-.01.04-.01h.03l.04-.01h.08z" class="fil5"/></g></g></svg>