<svg xmlns="http://www.w3.org/2000/svg" xml:space="preserve" width="22px" height="27px" version="1.1" style="shape-rendering:geometricPrecision; text-rendering:geometricPrecision; image-rendering:optimizeQuality; fill-rule:evenodd; clip-rule:evenodd" viewBox="0 0 0.55 0.67" xmlns:xlink="http://www.w3.org/1999/xlink">
  <path fill="#FEFEFE" d="M0.27 0.16c0.08,0 0.15,-0.08 0.14,-0.16 -0.07,0.01 -0.14,0.06 -0.14,0.16z"/>
  <path fill="#FEFEFE" d="M0.53 0.23c-0.1,0.06 -0.09,0.21 0.02,0.27 -0.03,0.06 -0.08,0.17 -0.14,0.17 -0.06,0.01 -0.08,-0.05 -0.18,-0.01 -0.03,0.01 -0.05,0.02 -0.07,0.01 -0.05,-0.01 -0.1,-0.08 -0.13,-0.16 -0.02,-0.03 -0.02,-0.06 -0.03,-0.1 -0.02,-0.21 0.14,-0.29 0.24,-0.23 0.03,0.02 0.05,0.01 0.06,0.01 0.09,-0.04 0.17,-0.04 0.23,0.04z"/>
</svg>
