<svg xmlns="http://www.w3.org/2000/svg" xml:space="preserve" width="17px" height="18px" version="1.1" style="shape-rendering:geometricPrecision; text-rendering:geometricPrecision; image-rendering:optimizeQuality; fill-rule:evenodd; clip-rule:evenodd" viewBox="0 0 0.32 0.35"  xmlns:xlink="http://www.w3.org/1999/xlink">
  <linearGradient id="id0" gradientUnits="userSpaceOnUse" x1="0.02" y1="0.01" x2="0.17" y2="0.15">
   <stop offset="0" style="stop-opacity:1; stop-color:#7FC3A5"/>
   <stop offset="1" style="stop-opacity:1; stop-color:#DFE591"/>
  </linearGradient>
  <linearGradient id="id1" gradientUnits="userSpaceOnUse" x1="0.01" y1="0.02" x2="0.01" y2="0.31">
   <stop offset="0" style="stop-opacity:1; stop-color:#0990C6"/>
   <stop offset="0.501961" style="stop-opacity:1; stop-color:#74B1B3"/>
   <stop offset="1" style="stop-opacity:1; stop-color:#72C09C"/>
  </linearGradient>
  <linearGradient id="id2" gradientUnits="userSpaceOnUse" x1="0.06" y1="0.23" x2="0.24" y2="0.24">
   <stop offset="0" style="stop-opacity:1; stop-color:#BE3489"/>
   <stop offset="0.478431" style="stop-opacity:1; stop-color:#DE3962"/>
   <stop offset="1" style="stop-opacity:1; stop-color:#E43535"/>
  </linearGradient>
  <linearGradient id="id3" gradientUnits="userSpaceOnUse" x1="0.23" y1="0.14" x2="0.25" y2="0.2">
   <stop offset="0" style="stop-opacity:1; stop-color:#F29C6D"/>
   <stop offset="1" style="stop-opacity:1; stop-color:#FBD070"/>
  </linearGradient>
   <path fill="url(#id0)" d="M0.03 0l0.27 0.16c0.03,0.01 0.01,0.03 0,0.03l-0.27 0.15c-0.02,0.01 -0.03,0.01 -0.03,-0.01l0 -0.31c0,-0.01 0.01,-0.03 0.03,-0.02z"/>
   <path fill="url(#id3)" d="M0.23 0.12l0.07 0.04c0.03,0.01 0.01,0.03 0,0.03l-0.27 0.15c-0.01,0.01 -0.02,0.01 -0.02,0.01l0.22 -0.23z"/>
   <path fill="url(#id1)" d="M0.23 0.23l-0.2 0.11c-0.02,0.01 -0.03,0.01 -0.03,-0.01l0 -0.31c0,-0.01 0,-0.02 0.01,-0.02l0.22 0.23z"/>
   <path fill="url(#id2)" d="M0.23 0.23l-0.2 0.11c-0.01,0.01 -0.02,0.01 -0.02,0.01l0.17 -0.18 0.05 0.06z"/>
</svg>
