<?xml version="1.0" encoding="UTF-8"?>
<!DOCTYPE svg PUBLIC "-//W3C//DTD SVG 1.1//EN" "http://www.w3.org/Graphics/SVG/1.1/DTD/svg11.dtd">
<!-- Creator: CorelDRAW 2018 (64-Bit) -->
<svg xmlns="http://www.w3.org/2000/svg" xml:space="preserve" width="417px" height="133px" version="1.1" style="shape-rendering:geometricPrecision; text-rendering:geometricPrecision; image-rendering:optimizeQuality; fill-rule:evenodd; clip-rule:evenodd"
viewBox="0 0 417 133"
 xmlns:xlink="http://www.w3.org/1999/xlink">
 <defs>
  <style type="text/css">
   <![CDATA[
    .str0 {stroke:#2B2A29;stroke-width:0.65;stroke-miterlimit:22.9256}
    .str1 {stroke:#F29FC4;stroke-width:0.65;stroke-miterlimit:22.9256}
    .fil9 {fill:#2B2A29}
    .fil4 {fill:#B61D5A}
    .fil1 {fill:#D9DADA}
    .fil7 {fill:#E5097F}
    .fil2 {fill:#E50E78}
    .fil3 {fill:#F08BB2}
    .fil8 {fill:#F29FC4}
    .fil10 {fill:#FEFEFE}
    .fil5 {fill:white}
    .fil6 {fill:#2B2A29;fill-rule:nonzero}
    .fil0 {fill:#EBECEC;fill-rule:nonzero}
   ]]>
  </style>
 </defs>
 <g id="Слой_x0020_1">
  <metadata id="CorelCorpID_0Corel-Layer"/>
  <path class="fil0" d="M249.22 133c7.84,-10.85 17.16,-23.23 21.94,-28.45 -7.6,-5.59 -14.19,-12.41 -18.48,-21.44 -4.62,-9.74 -6.52,-21.97 -4.07,-37.85 -0.12,-0.59 -0.22,-1.04 -0.33,-1.53 -0.92,-4.23 -2.23,-10.21 -1.4,-15.59l0.08 -0.51 0.31 -0.43c1.39,-1.96 5.38,-2.68 10.07,-2.77 3.84,-0.08 8.19,0.17 11.74,0.45 7.7,-5.46 16.68,-9.25 26.23,-11.34 9.71,-2.12 20.02,-2.48 30.18,-1.04 2.14,-1.72 4.19,-3.27 6.41,-4.58 2.57,-1.52 5.32,-2.66 8.59,-3.25l0.71 -0.13 0.65 0.27c2.68,1.11 3.43,2.63 7.2,10.28 0.76,1.54 1.62,3.29 2.21,4.48 8.37,5.59 12.71,13.5 15.92,25.82 2.53,9.72 2.39,25.32 0.05,37.2 4.53,-3.94 9.96,-10.46 11.07,-15.12 1.49,-6.26 2.83,-14.12 0.02,-23.07 -2.12,-3.53 -4.61,-7.38 -5.11,-10.65 -0.4,-2.64 -1.57,-4.31 -0.82,-6.42 0.8,-2.28 2.27,-4.14 4.45,-5.37 0.89,-0.5 1.9,-0.89 3.01,-1.15 2.74,-4.58 6.56,-4.47 9.65,-4.38 0.62,0.02 1.19,0.03 1.59,-0.01 0.87,-0.3 1.81,-0.53 2.79,-0.68 3.09,-0.44 6.62,0.01 9.85,1.79 3.18,1.74 6.05,4.75 7.9,9.42 0.7,1.78 1.26,3.81 1.63,6.12 5.14,18.37 1.84,35.3 -3.88,51.86 -4.05,11.73 -15.65,31.99 -25.59,48.07l-134.57 0 0 0z"/>
  <path class="fil1" d="M381.08 133l1.14 -1.23c-4.52,-0.06 -9.53,0.4 -14.74,1.23l13.6 0z"/>
  <path class="fil1" d="M381.15 66.64c10.45,-4.23 20.89,-6.55 31.34,-6.96l1.04 -4.7c-10.8,1.34 -21.3,3.57 -31.54,6.55 -2.67,4.28 1.27,6.57 -0.84,5.11z"/>
  <path class="fil1" d="M381.57 57.64c10.45,-2.49 20.89,-5.01 31.33,-6.95l1.05 -4.71c-10.8,1.34 -21.3,3.57 -31.54,6.55 -2.67,4.28 1.27,6.57 -0.84,5.11z"/>
  <path class="fil1" d="M378.86 45.16c10.44,-2.48 20.89,-5.01 31.33,-6.95l1.04 -4.7c-10.8,1.33 -21.29,3.57 -31.54,6.54 -2.66,4.28 1.27,6.57 -0.83,5.11z"/>
  <path class="fil1" d="M374.68 35.35c10.44,-2.49 25.07,-4.4 35.51,-6.35l-0.63 -4.7c-10.8,1.34 -24.64,2.55 -34.88,5.52 -2.67,4.29 2.11,6.99 0,5.53l0 0z"/>
  <path class="fil1" d="M338.53 133c22.09,-9.38 46.39,-18.93 57.87,-19.94 -0.41,-1.16 1.05,-3.95 0.63,-5.11 -14.91,0.83 -48.61,13.32 -76.15,25.05l17.65 0z"/>
  <path class="fil1" d="M291.47 133c37.69,-16.27 90.98,-35.17 113.5,-35.89 -0.42,-1.16 -1.26,-3.34 -1.68,-4.5 -22.31,0.84 -88.16,22.6 -130.91,40.39l19.09 0z"/>
  <path class="fil1" d="M251.66 131.27c-0.19,0.3 -0.86,0.93 -1.76,1.73l12.85 0c29.63,-13.47 116.89,-43.83 145.35,-46.32 -0.42,-1.16 -1.25,-3.34 -1.67,-4.5 -27.72,1.78 -129.49,35.24 -154.77,49.09z"/>
  <path class="fil1" d="M266.9 109.59c-1.11,1.77 -1.81,4.77 -2.92,6.54 27.44,-12.97 118.11,-37.53 147.25,-40.09 -0.41,-1.15 -1.25,-3.33 -1.67,-4.49 -27.72,1.78 -117.37,24.19 -142.66,38.04z"/>
  <path class="fil1" d="M265.86 96.91c-1.11,1.77 4.46,2.52 3.34,4.29 27.45,-11.59 71.32,-27.2 100.47,-31.08 -0.42,-1.16 -1.25,-3.35 -1.67,-4.51 -27.72,4.36 -76.86,20.33 -102.14,31.3z"/>
  <path class="fil1" d="M259.8 88.93c-1.11,1.77 2.37,3.14 1.26,4.91 27.44,-11.59 80.09,-29.24 109.24,-33.13 -0.42,-1.16 -1.26,-3.34 -1.68,-4.5 -27.72,4.35 -83.54,21.75 -108.82,32.72l0 0z"/>
  <path class="fil1" d="M252.7 78.5c-1.11,1.77 0.49,3.75 -0.62,5.52 27.44,-11.59 86.14,-30.87 115.29,-34.77 -0.42,-1.16 -1.25,-3.34 -1.67,-4.5 -27.72,4.35 -87.72,22.78 -113,33.75l0 0z"/>
  <path class="fil1" d="M249.36 67.66c-1.11,1.77 0.49,3.75 -0.63,5.52 27.45,-11.59 86.15,-30.88 115.3,-34.77 -0.42,-1.15 -1.26,-3.34 -1.67,-4.49 -27.72,4.35 -87.72,22.77 -113,33.74l0 0z"/>
  <path class="fil1" d="M248.73 50.28c-0.45,0.72 -5.61,4.95 -0.13,4.83 2.5,-0.05 18.14,-5.88 18.19,-4.78 0.06,1.24 -12.46,4.69 -17.18,7.85 -4.43,2.96 -1.07,5.65 -1.29,6 27.44,-13.27 83.64,-29.85 112.78,-33.13 -0.41,-1.16 -6.47,-7.02 -6.89,-8.18 -26.87,4.16 -78.81,16.63 -105.48,27.41l0 0z"/>
  <path class="fil1" d="M251.66 42.71c-1.11,1.77 -2.23,3.54 -3.34,5.32 27.44,-11.6 72.77,-24.13 101.92,-28.02 -0.41,-1.16 -0.83,-2.32 -1.25,-3.48 -28.26,3.03 -72.63,13.81 -97.33,26.18l0 0z"/>
  <path class="fil1" d="M263.98 28.8c-1.11,1.77 -2.22,3.55 -3.34,5.32 27.44,-11.59 56.69,-16.15 85.84,-20.04 -0.41,-1.16 -0.83,-2.32 -1.25,-3.48 -28.15,3.35 -55.89,7.74 -81.25,18.2z"/>
  <path class="fil2" d="M21.16 63.02c-0.21,0.73 -0.24,1.44 -0.11,2.13 0.83,4.57 8.45,7.71 11.79,1.41 7.01,-13.11 13.31,-27.27 17.07,-44.72 0.06,-0.53 1.05,-0.81 1.33,0 2.43,5.18 4.23,23.18 7.82,38.02 0.58,2.39 1.19,4.5 2.28,6.71 2.71,5.5 5.74,7.28 18.48,0.02 0.87,-0.49 1.63,-0.71 1.72,-1.82 0.07,-0.83 -0.12,-1.93 -0.36,-2.88 -4.68,-18.88 -11.07,-37.32 -17.12,-55.8 -1.29,-4.9 -12.24,-6.07 -17.14,-2.99 -1.54,0.97 -2.11,2.36 -2.87,3.9 -8.88,18.05 -16.01,36.97 -22.89,56.02l0 0z"/>
  <path class="fil3" d="M25.24 64.13c7.75,-21.5 15.62,-41.9 23.66,-56.03 1.7,-2.39 5.54,-2.03 8.51,-0.8 2.68,0.84 4.48,-1.3 0.28,-3.28 -1.82,-0.59 -4.23,-0.85 -6.29,-0.79 -2.6,0.21 -3.89,1.43 -4.72,3.32 -7.69,17.84 -14.82,36.03 -22.23,54.15 -1.33,2.9 -0.04,4.97 0.79,3.43l0 0z"/>
  <path class="fil4" d="M21.85 67.09c2.24,3.36 8.15,4.82 10.99,-0.53 7.01,-13.11 13.31,-27.27 17.07,-44.72 0.06,-0.53 1.05,-0.81 1.33,0 2.43,5.18 4.23,23.18 7.82,38.02 0.58,2.39 1.19,4.5 2.28,6.71 2.71,5.5 5.74,7.28 18.48,0.02 0.87,-0.49 1.63,-0.71 1.72,-1.82 0.07,-0.83 -0.12,-1.93 -0.36,-2.88 -4.68,-18.88 -11.07,-37.32 -17.12,-55.8 -0.16,-0.61 -0.47,-1.17 -0.91,-1.67 -1.34,-0.68 -2.92,-0.89 -2.62,1.67 5.51,16.66 11.5,33.26 15.75,49.92 0.67,3.03 0.59,6.39 -1.56,8.06 -2.31,1.48 -4.62,2.5 -7.63,3.02 -2.32,0.26 -4.27,-0.41 -5.09,-3.13 -4.09,-14.58 -6.71,-29.15 -8.95,-43.72 -0.83,-4.15 -3.22,-4.87 -4.8,-0.33 -4.15,18.51 -10.44,32.98 -17.81,45.32 -1.13,1.57 -4.1,1.88 -5.95,0.09 -0.92,-0.91 -3.16,-0.9 -2.87,1.19 0.08,0.2 0.16,0.39 0.23,0.58l0 0z"/>
  <path class="fil2" d="M79.01 14.9c0.02,-4.82 5.68,-8.04 9.58,-4.61 3.28,3.35 5.24,5.68 10.31,15 0.59,0.84 1.18,1.02 1.77,0.11 2.9,-6.14 5.35,-11.17 8.1,-14.82 1.1,-1.46 2.1,-2.7 3.91,-3.27 3.78,-1.17 8.41,1.21 9.57,4.47 0.63,1.75 -0.01,3.89 -0.51,5.6 -2.46,8.29 -10.86,27.35 -18.05,39.48 -1.54,2.58 -2.99,5.48 -5.57,7.17 -3.7,2.43 -8.01,1.53 -12.92,-2.71 -0.72,-0.77 -0.96,-1.7 -0.94,-2.71 0.03,-1.55 0.48,-2.67 1.14,-4.01 2.44,-4.91 4.99,-9.26 7.43,-14.17 0.59,-0.85 0.48,-1.71 -0.12,-2.56 -6.04,-8.01 -13.93,-20.57 -13.7,-22.97z"/>
  <path class="fil4" d="M93.2 39.04c-0.05,-0.39 -0.21,-0.78 -0.49,-1.17 -6.04,-8.01 -13.93,-20.57 -13.7,-22.97 0,-0.78 0.16,-1.53 0.43,-2.21 0.47,0.37 0.85,1.05 0.94,2.32 0.44,2.07 5.47,9.59 14.21,21.11 1.06,1.9 -0.04,3.24 -1.39,2.92l0 0zm26.76 -30.23c1.06,0.81 1.89,1.83 2.29,2.97 0.63,1.75 -0.01,3.89 -0.51,5.6 -2.46,8.29 -10.86,27.34 -18.05,39.48 -1.54,2.58 -2.99,5.48 -5.57,7.17 -3.7,2.43 -8.01,1.53 -12.92,-2.71 -0.72,-0.77 -0.96,-1.7 -0.94,-2.71 0,-0.13 0,-0.24 0.01,-0.36 0.8,-0.57 1.59,-0.16 2.44,0.87 1.22,1.5 4.73,2.66 7.76,2.2 2.33,-0.35 4.21,-1.83 5.65,-3.76 8.9,-11.79 11.25,-23.96 18.54,-37.54 2.31,-4.54 2.17,-7.27 1.1,-9.24 -0.59,-0.84 -0.36,-1.6 0.2,-1.97l0 0zm-32.53 0.81c-0.76,0.35 -0.97,1.66 0.4,5.21 0.33,0.85 0.76,1.56 1.21,2.35 2.55,4.35 4.14,7.47 7.82,10.92 2.56,0.97 3.16,-0.89 2.82,-2.12 -0.26,-0.07 -0.52,-0.32 -0.78,-0.69 -5.07,-9.32 -7.03,-11.65 -10.31,-15 -0.33,-0.29 -0.67,-0.53 -1.02,-0.73l-0.14 0.06 0 0z"/>
  <path class="fil3" d="M82.45 15c0.89,-0.97 1.51,-1.85 3.45,-1.34 0.87,0.17 1.3,-0.61 0.59,-2.18 -1.48,-1.94 -4.04,-1.41 -5.66,1.49 -0.45,1.28 -0.16,2.97 1.62,2.03zm15.24 13.05c-1.87,-0.58 -2.36,0.94 -0.89,2.43 1.9,1.2 3.67,0.81 4.87,-0.05 0.96,-0.7 1.29,-1.56 1.75,-2.6 2.83,-6.38 5.3,-12.62 8.76,-15.86 4.31,-2.8 5.91,1.23 6.92,0.94 0.2,-0.06 0.71,-0.87 -0.37,-2.52 -2.19,-2.26 -5.48,-3.11 -7.77,-0.34 -2.39,2.88 -3.95,7.77 -8.64,16.45 -1.37,2.04 -3.39,2.15 -4.63,1.55l0 0zm-3.82 15.16c-2.36,4.09 -4.28,7.26 -6.64,11.35 -1.31,2.44 -1.18,4.45 0.84,3.44 1.62,-1.81 3.1,-8.88 7.08,-14.59 0.64,-1.68 -0.48,-1.81 -1.28,-0.2z"/>
  <path class="fil2" d="M136.62 28.46c0,0.36 0.35,0.48 1.32,-0.12 4.94,-5.98 8.5,-8.25 12.09,-9.86 1.2,-0.54 2.25,-1 3.57,-1.11 2.99,-0.26 5.94,3.88 3.23,7 -2.88,3.66 -6.2,5.92 -9.75,9.59 -1.23,1.26 -2.13,2.51 -0.76,3.78 4.44,4.28 8.92,8.42 13.28,13.08 1.25,1.33 3,2.83 3.75,4.51 0.86,1.92 0.52,3.91 -0.11,5.07 -0.92,1.72 -3,2.75 -7.14,2.24 -6.78,-1.03 -12.26,-7.21 -16.55,-10.98 -1.62,-1.99 -2.32,-1.71 -2.72,-0.88 -0.21,3.67 0.14,7.1 -0.34,11 -0.11,3.76 -2.22,4.14 -4.08,4.42 -5.35,0.06 -7.89,-0.3 -9.49,-0.71 -4.25,-0.86 -3.44,-7.19 -3.28,-10.26 0.55,-10.94 1.11,-21.87 1.67,-32.81 0.22,-2.67 1.07,-5.38 5.15,-5.91 1.91,-0.16 3.9,-0.08 5.74,0.2 4.04,1.52 4.7,6.2 4.42,11.75l0 0z"/>
  <path class="fil4" d="M136.62 28.46c0,0.1 0.02,0.18 0.08,0.24 0.01,0.51 0.03,1.06 0.06,1.65 0.36,2.26 -4.29,2.24 -4.2,-1.91 -0.16,-6.99 0.43,-7.7 -1.63,-9.97 -0.92,-0.72 -0.86,-1.4 -0.59,-1.97 0.63,0.05 1.25,0.12 1.86,0.21 4.04,1.52 4.7,6.2 4.42,11.75l0 0zm18.77 -10.74c2.17,1.05 3.59,4.17 1.44,6.65 -2.88,3.66 -6.2,5.92 -9.75,9.59 -1.23,1.26 -2.13,2.51 -0.76,3.78 4.44,4.28 8.92,8.42 13.28,13.08 1.25,1.33 3,2.83 3.75,4.51 0.86,1.92 0.52,3.91 -0.11,5.07 -0.92,1.72 -3,2.75 -7.14,2.24 -6.78,-1.03 -12.26,-7.21 -16.55,-10.98 -1.62,-1.99 -2.32,-1.71 -2.72,-0.88 -0.21,3.67 0.14,7.1 -0.34,11 -0.11,3.76 -2.22,4.14 -4.08,4.42 -5.35,0.06 -7.89,-0.3 -9.49,-0.71 -1.03,-0.2 -1.76,-0.73 -2.27,-1.46 0.23,-2.15 1.5,-3.06 3.57,-2.63 11.68,4.86 11.3,-4.94 10.87,-12.22 -0.05,-2.89 3.07,-4.32 5.3,-1.53 4.64,5.89 9.89,10.75 14.07,12.08 3.44,1.05 6.39,-3.34 5.07,-4.94 -5.22,-6.05 -10.86,-10.86 -16.25,-16.25 -1.07,-1.31 -0.35,-2.92 0.49,-4.34 3.27,-5.53 8.04,-8.09 10.97,-12.12 1.5,-1.86 -0.8,-3.5 0.65,-4.36l0 0z"/>
  <path class="fil3" d="M145.28 39.1c-1.14,-0.67 -1.99,0.46 -1.14,1.38 4.69,3.91 9.56,10.21 14.4,15.32 1.15,1.28 1.96,0.57 1.09,-0.86 -2.65,-5.57 -5.93,-7.54 -14.35,-15.84zm-11.11 -7.69c-1.77,-0.57 -2.29,2.02 -0.17,2.59 1.93,0.39 3.06,-0.15 4.14,-0.99 1.05,-0.81 1.85,-1.77 2.71,-2.77 4.2,-4.93 7.2,-9.22 11.69,-10.05 0.41,-0.01 1.39,-0.55 2,0.95 0.8,1 1.97,-1.8 0.03,-2.59 -6.34,-1.86 -12.69,9.25 -17.17,12.19 -1.02,0.66 -2.41,1.2 -3.23,0.67zm-10.27 -6.54c1.68,-4.34 3.5,-4.84 5.35,-4.57 0.69,0.1 0.86,0.3 1.44,0.63 1.43,0.8 2.24,-0.5 1.26,-1.92 -1.74,-1.75 -3.8,-2.15 -5.87,-1.35 -0.71,0.27 -1.16,0.61 -1.69,1.15 -1.49,1.5 -2.19,3.53 -2.23,5.61 -0.05,2.49 1.36,2.64 1.74,0.45l0 0z"/>
  <path class="fil2" d="M176.02 21.7c-6.18,2.27 -8.07,7.9 -9.72,11.78 -4.25,14.65 -1.95,20.41 2.37,23.57 7.05,4.64 21.35,5.05 25.83,0.83 11.83,-8.59 8.66,-28.41 3.15,-32.65 -6.57,-6.12 -16.52,-4.93 -21.63,-3.53l0 0zm6.81 10.99c2.14,-0.54 4.31,-0.3 5.92,1.06 1.53,2.61 2.07,7.2 1.38,12.2 -0.65,2.53 -3.61,3.41 -8.9,2.66 -2.15,-0.44 -2.25,-2 -2.48,-3.49 0.98,-7.72 2.42,-11.78 4.08,-12.43l0 0z"/>
  <path class="fil4" d="M164.05 46.18c-0.07,5.77 1.86,8.85 4.62,10.87 7.05,4.64 21.35,5.05 25.83,0.83 10.57,-7.67 9.17,-24.3 4.82,-30.79 -2.72,-0.46 -4.83,0.21 -3.52,2.41 1.36,1.61 2.33,4.71 2.65,9.98 0.12,1.99 0.14,3.86 -0.15,5.83 -0.94,6.53 -3.76,11.67 -16.37,11.69 -13.09,-0.19 -16.24,-5.58 -17.88,-10.82zm15.98 1.96c-0.01,0.78 -0.11,1.6 -1.41,1.41 -0.88,-0.47 -1.16,-1.06 -1.35,-2.26 -0.24,-1.52 -0.09,-2.95 -0.01,-4.48 0.22,-4.29 0.41,-8.13 1.83,-12.02 1.1,-2.31 5.62,-2.24 8.4,-1.26 1.69,1.1 2.47,3.56 1.02,4.03 -1.58,-1.19 -3.65,-1.39 -5.68,-0.87 -1.66,0.65 -3.1,4.71 -4.08,12.43 0.18,1.15 0.27,2.33 1.28,3.02z"/>
  <path class="fil3" d="M170.68 33.32c-0.33,1.57 -1.61,2.55 -1.12,-0.36 1.47,-7.56 5.76,-9.65 7.98,-10.35 5.36,-1.67 13.2,-0.88 16.95,3.75 0.86,1.79 1.01,3.29 -1.24,1.1 -2.54,-2.14 -5,-2.56 -8.17,-2.58 -10.44,-0.07 -13.05,3.45 -14.4,8.44l0 0zm10.46 16.3c-3.05,-0.44 -2.6,1.38 -1.38,2.56 4.4,1 8.81,0.76 13.21,-3.94 0.63,-1.45 0.23,-2.61 -0.74,-1.65 -2.26,2.32 -4.84,4.35 -11.09,3.03z"/>
  <path class="fil2" d="M215.03 34.26c7.19,0.18 9.06,3.64 9.06,7.74 0,4.1 -4.24,6.37 -9.31,6.37 -5.07,0 -9.06,-2.27 -9.06,-6.37 0,-4.1 2.12,-7.93 9.31,-7.74z"/>
  <path class="fil4" d="M221.45 35.93c2.03,1.43 2.69,3.63 2.69,6.06 0,4.1 -4.24,6.37 -9.32,6.37 -3.74,0 -6.9,-1.24 -8.29,-3.54 1.65,1.18 4,1.8 6.66,1.8 5.07,0 9.31,-2.27 9.31,-6.37 0,-1.59 -0.29,-3.08 -1.05,-4.32z"/>
  <path class="fil3" d="M209.27 40.7c-2.06,1.88 -2.65,0.28 -2.33,-1.23 2.8,-2.98 6.23,-5.03 11.91,-3.73 1.21,0.77 1.5,1.84 0.29,1.61 -2.88,-0.59 -5.84,-0.81 -9.87,3.35z"/>
  <path class="fil2" d="M0.12 109.45c-1.69,7.09 14.91,6.17 15.41,0.59 0.73,-4.48 0.96,-12.53 1.48,-19.27 0.15,-0.92 0.28,-1.57 0.82,-0.93 3.1,7.18 6.45,11.16 9.37,13.68 3.04,2.2 5.71,2.63 8.75,0.12 2.95,-3.35 4.01,-6.49 5.18,-9.64 0.27,-0.58 0.55,-0.58 0.82,0 1.11,4.91 1.12,11.63 3.32,15.09 2.96,6.34 19.27,3.31 16.15,-5.76 -2.18,-10.37 -4.52,-20.66 -8.36,-31.03 -1.12,-2.82 -2.62,-2.54 -4.2,-2.59 -3.38,0.09 -7.83,-0.88 -9.58,2.98 -2.35,6.29 -4.69,12.43 -7.04,18.72 -0.79,0.76 -1.3,0.96 -2.09,-0.42 -2.62,-5.46 -4.96,-11.5 -7.51,-16.38 -1.97,-3.24 -3.66,-5.34 -13.93,-4.57 -2.02,0.38 -3.75,1.36 -4.1,4.34 -1.45,12.03 -3.04,23.04 -4.49,35.07l0 0z"/>
  <path class="fil4" d="M1.55 113.18c3.85,2.65 13.6,1.11 13.98,-3.14 0.73,-4.48 0.96,-12.53 1.48,-19.27 0.15,-0.92 0.28,-1.57 0.82,-0.93 3.1,7.18 6.45,11.16 9.37,13.68 3.04,2.2 5.71,2.63 8.75,0.12 2.95,-3.35 4.01,-6.49 5.18,-9.64 0.27,-0.58 0.55,-0.58 0.82,0 1.11,4.91 1.12,11.63 3.32,15.09 2.96,6.34 19.27,3.31 16.15,-5.76 -2.18,-10.37 -4.52,-20.66 -8.36,-31.03 -0.34,-0.86 -0.72,-1.44 -1.13,-1.81 -0.97,-0.09 -1.61,0.54 -1.11,3.46 3.07,9.71 4.99,18.84 7.29,28.55 0.6,2.25 0.94,3.97 -1.17,4.71 -2.68,0.65 -4.9,1.96 -8.96,1.05 -1.67,-0.22 -2.08,-1.15 -2.63,-2.85 -1.13,-5.29 -1.67,-10.28 -2.15,-15.35 -0.56,-1.71 -1.22,-2.16 -1.97,-1.35 -2.56,3.94 -2.49,7.81 -7.37,11.97 -2.7,1.54 -5.79,0.7 -8.68,-2.22 -4.33,-3.39 -6.34,-10.78 -7.97,-12.13 -1.27,-0.7 -3.99,-0.37 -3.73,4.14 -0.14,5.29 0.37,11.96 -0.42,15.87 -0.78,4.29 -4.24,5.11 -8.9,4.35 -2.08,-0.6 -2.88,0.95 -2.61,2.49l0 0zm29.78 -21.18c-0.37,0.05 -0.73,-0.22 -1.18,-1.01 -2.62,-5.46 -4.96,-11.5 -7.51,-16.38 -1.3,-2.13 -2.47,-3.77 -6.05,-4.42 -0.72,0.32 -0.97,0.79 -0.58,1.45 0.12,1.14 7.85,9.2 12,20.54 1.46,1.66 3.1,1.4 3.32,-0.18l0 0z"/>
  <path class="fil3" d="M5.87 89.43c0.47,-3.5 0.26,-7.79 0.97,-10.84 0.72,-3.27 2.87,-4.69 7.46,-3.88 1.57,0.48 2.09,1.54 3.46,2.02 1.19,0.42 1.49,-0.25 0.89,-2.02 -0.84,-1.68 -1.64,-2.51 -2.9,-3.21 -3.09,-0.88 -5.65,-0.56 -7.97,0.31 -1.5,1.04 -2.29,3.25 -2.23,5.26 -0.3,4.04 -0.96,7.42 -1.55,11.54 -0.49,2.36 0.66,3.14 1.87,0.82zm24.69 3.95c-1.47,-0.57 -3.41,-0.83 -1.47,2.53 0.59,1.01 2.91,0.86 4.83,-0.62 1.92,-1.47 4.91,-12.54 5.29,-15.23 0.38,-2.69 2.82,-6.3 4.68,-5.88 2.07,-0.03 4.07,0.15 6.14,0.12 1.36,-0.87 1.58,-2.09 0.22,-2.96 -1.89,-0.55 -4.36,-0.3 -6.46,-0.2 -2.72,0.33 -4.15,2.63 -5.09,7.2 -2.28,8.79 -4.67,14.9 -6.58,15.14 -0.52,-0.03 -1.04,-0.07 -1.56,-0.1z"/>
  <path class="fil2" d="M70.15 74.23c7.35,-5.18 19.1,-3.41 26.2,-1.44 3.99,1.1 6.6,8.12 6.6,11.48 -0.4,19.68 -3.43,22.39 -6.88,26.2 -8.31,4.51 -18.35,3.31 -25.73,-1.62 -5.37,-3.92 -6.63,-9.31 -6.88,-14.16 0.77,-12.37 3.11,-18.54 6.69,-20.46l0 0z"/>
  <path class="fil4" d="M80 102.53c-3.58,-1.4 -2.46,-2.9 -0.67,-2.48 4.21,0.61 7.4,-1.21 9.56,-5.45 0.67,-2.11 2.52,-1.6 2.39,1.24 -2.04,5.96 -6.18,7.37 -11.28,6.69l0 0zm20.37 -26.23c1.63,2.59 2.58,5.94 2.58,7.97 -0.4,19.68 -3.43,22.39 -6.88,26.2 -8.31,4.51 -18.35,3.31 -25.73,-1.62 -3.1,-2.26 -4.83,-5.02 -5.79,-7.87 0.74,-1.03 1.63,-1.38 2.16,-0.26 0.89,1.89 2.58,3.44 2.58,3.44 4.37,3.26 13.52,10.25 24.96,2.29 4.77,-3.88 5.05,-13.05 4.21,-26.39 -0.2,-2.63 0.72,-3.56 1.91,-3.76l0 0z"/>
  <path class="fil3" d="M68.71 84.84c-1.01,2.14 -2.67,1.44 -1.81,-1.24 1.89,-5.33 4.88,-10.33 12.14,-11.19 5.35,-0.54 9.54,0.62 14.35,1.44 2.72,0.96 2.76,3.66 -1.05,2.29 -16.89,-2.9 -22.05,1.4 -23.63,8.7l0 0zm17.12 -4.3c-4.19,-1.3 -8.55,-0.13 -9.94,2.68 -2.25,6.44 -3.27,12.71 0.09,16.54 5.26,3.09 10.62,-0.22 12.05,-2.77 1.28,-4.15 1.31,-7.81 0.96,-11.48 -0.07,-2 -1.75,-3.92 -3.16,-4.97l0 0zm-6.5 3.73c1.74,-1.41 6.3,-0.43 7.55,1.05 0.74,3.03 0.8,7.11 -0.86,11.19 -2.99,3.17 -5.86,2.85 -7.84,0.67 -2.26,-2.23 -1.34,-9.63 1.15,-12.91l0 0z"/>
  <path class="fil5" d="M79.33 84.27c1.74,-1.41 6.3,-0.43 7.55,1.05 0.74,3.03 0.8,7.11 -0.86,11.19 -2.99,3.17 -5.86,2.85 -7.84,0.67 -2.26,-2.23 -1.34,-9.63 1.15,-12.91l0 0z"/>
  <path class="fil2" d="M106.65 78.19c0.08,-4.54 2.46,-6.96 7.37,-7.27 5.41,-0.06 10.81,-0.12 16.21,-0.18 2.81,-0.03 5.09,-0.06 7.77,1 11.93,4.72 13.68,22 2.55,30.97 -3.86,2.7 -9.07,4.56 -14.74,4.54 -1.59,0.15 -2.8,0.56 -3.17,2.84 0.11,2.95 0,5.9 0.11,8.85 -0.97,3.65 -2.26,7.14 -13.6,5.9 -2.23,-0.05 -3.74,-2.17 -3.63,-5.45 0.38,-13.73 0.76,-27.47 1.13,-41.2l0 0zm15.19 3.74c0.38,-2.19 1.67,-3.02 3.86,-2.49 6.72,0.28 7.21,6.18 4.87,14.64 -2.92,5.62 -7.68,4.52 -8.61,2.16 -0.55,-4.94 -0.48,-9.67 -0.12,-14.31z"/>
  <path class="fil4" d="M135.57 71.03c0.79,0.15 1.59,0.38 2.43,0.71 11.93,4.72 13.68,22 2.55,30.97 -3.86,2.7 -9.07,4.56 -14.74,4.54 -1.59,0.15 -2.8,0.56 -3.17,2.84 0.11,2.95 0,5.9 0.11,8.85 -0.97,3.65 -2.26,7.14 -13.6,5.9 -0.5,-0.01 -0.97,-0.13 -1.39,-0.34 -1.07,-1.88 -0.71,-4.53 2.41,-4.54 5.17,0.66 8.74,0.1 9.97,-2.27 0.76,-1.55 0.68,-4.35 0.23,-7.72 -0.43,-3.55 1,-5.03 3.29,-5.56 8.42,-0.98 12.82,-2.91 16.09,-5.11 10.71,-7.93 3.96,-22.6 -5.66,-25.19 -1.07,-1.13 -0.57,-2.15 1.48,-3.08l0 0zm-4.34 11.74c0.9,0.37 2.97,0.68 1.72,-3.1 -2.24,-2.87 -6.93,-3.5 -10.17,-2.43 -1.59,0.53 -2.34,1.09 -2.83,2.64 -1.59,5.07 -2,16.6 -0.37,18.97 2.53,2.36 3.41,0.74 4.09,-0.98 -0.81,-0.34 -1.43,-0.93 -1.71,-1.63 -0.55,-4.94 -0.48,-9.67 -0.12,-14.3 0.38,-2.2 1.67,-3.03 3.86,-2.5 2.94,0.12 4.69,1.32 5.53,3.33l0 0z"/>
  <path class="fil3" d="M123.54 98.74c-2.41,0.49 -2.41,2.8 0,2.95 5.79,-0.67 10.9,-2.14 11.23,-11.01 -0.38,-2.28 -1.33,-2.24 -1.7,-0.57 -0.76,5.83 -4.35,8.81 -9.53,8.63l0 0z"/>
  <path class="fil5" d="M121.84 81.93c0.38,-2.19 1.67,-3.02 3.86,-2.49 6.72,0.28 7.21,6.18 4.87,14.64 -2.92,5.62 -7.68,4.52 -8.61,2.16 -0.55,-4.94 -0.48,-9.67 -0.12,-14.31z"/>
  <path class="fil2" d="M151.39 70.13c2.2,-6.23 12.04,-4.24 11.94,1.23 0.21,2.02 -0.31,4.05 -0.41,6.07 -0.27,1.03 -0.01,1.43 0.51,1.65 5.05,-0.97 9.94,-0.47 14.72,1.03 3.82,1.66 5.96,5.33 5.66,11.94 -0.49,7.83 -2.66,13.54 -9.47,15.43 -7.27,1.29 -15.23,1.15 -20.27,-1.13 -6.62,-4.15 -5.32,-12.72 -5.25,-16.67 0.86,-6.52 1.51,-14.17 2.57,-19.55zm10.81 19.03c1.77,-1.76 5.3,-2.38 6.48,0.52 0.55,3.26 0.34,5.63 -0.21,8.34 -1.61,2.05 -4.15,2.88 -5.35,0.61 -2.01,-2.82 -1.45,-7.69 -0.92,-9.47l0 0z"/>
  <path class="fil4" d="M160.25 66.96c1.79,0.83 3.12,2.37 3.08,4.4 0.21,2.02 -0.31,4.05 -0.41,6.07 -0.18,0.69 -0.12,1.1 0.1,1.36 -0.23,1.06 -0.66,2.16 -1.54,3.07 -1.82,0.38 -3.34,0.35 -2.47,-3.6 1.13,-3.06 1.13,-6.11 0.62,-9.16 -0.18,-1.15 0.11,-1.77 0.62,-2.14l0 0zm8.7 24.86c0.4,-0.03 0.79,-0.25 1.17,-1.11 0.1,-1.24 0.31,-1.96 -0.92,-3.71 -2.03,-2.95 -9.92,-1.71 -10.4,4.02 -0.35,2.08 -0.58,5.4 1.03,8.64 1.24,2.57 3.71,2.99 5.56,2.06 0.45,-0.52 0.6,-1.16 0.6,-1.86 -1.11,0.34 -2.2,0.04 -2.87,-1.23 -2.01,-2.82 -1.45,-7.69 -0.92,-9.47 1.77,-1.76 5.3,-2.38 6.48,0.52 0.13,0.76 0.22,1.47 0.27,2.14zm13.26 -8.17c1.19,2.01 1.77,4.76 1.6,8.4 -0.49,7.83 -2.66,13.54 -9.47,15.43 -7.27,1.29 -15.23,1.15 -20.27,-1.13 -0.83,-0.52 -1.53,-1.1 -2.13,-1.75 6.07,1.94 12.58,2.54 20.86,0.72 7.72,-3.9 8.47,-10.02 6.17,-19.14 -0.08,-2.14 1.58,-2.9 3.24,-2.53z"/>
  <path class="fil3" d="M153.76 73.83c-0.69,2.13 -2.3,2.81 -1.44,-0.72 0.44,-3.29 2.12,-5.21 5.04,-5.76 3.4,0.07 3.67,3.22 2.16,3.8 -2.34,0.14 -3.55,-1.67 -5.76,2.68l0 0zm7.61 7.28c-0.86,1.11 -0.57,1.85 0.17,1.95 1.08,0.14 3.12,-0.73 3.95,-0.75 6.63,-0.48 9.61,1.49 10.29,2.36 2.34,2.23 3.27,0.69 2.37,-0.99 -1.6,-3.34 -13.56,-5.67 -16.78,-2.57l0 0zm2.08 20.43c-2.23,-0.46 -2.17,1.69 -0.18,2.34 2.95,0.69 5.9,0.44 8.75,-4.5 1.25,-2.25 -0.04,-3.42 -0.62,-2.22 -0.3,1.39 -5.31,5.45 -7.95,4.38l0 0z"/>
  <path class="fil5" d="M162.2 89.16c1.77,-1.76 5.3,-2.38 6.48,0.52 0.55,3.26 0.34,5.63 -0.21,8.34 -1.61,2.05 -4.15,2.88 -5.35,0.61 -2.01,-2.82 -1.45,-7.69 -0.92,-9.47l0 0z"/>
  <path class="fil2" d="M198.33 62.92c-2.92,0.36 -8.38,0.02 -9.15,9.37 -0.17,8.44 -0.33,16.88 -0.49,25.33 0.05,8.2 3.37,9.82 6.29,11.03 8.07,1.44 16.47,1.29 25.01,0.5 8.79,-1.18 7.14,-14.06 1.18,-13.6 -5.84,0.12 -12.34,-0.33 -17.79,-1.26 -2.61,-1.58 -1.32,-3.6 -0.03,-3.99 3.17,-0.93 9.66,-0.34 14.27,-1.38 4.66,-1.24 6.18,-8.38 0.38,-9.14 -4.82,-0.1 -12.35,0.06 -14.94,-0.52 -1.88,-0.49 -1.73,-3 0.29,-3.23 5.64,-0.13 11.24,0.13 16.89,0 5.47,-0.37 6.47,-10.69 2.26,-12.7 -2.05,-0.97 -5.3,-0.72 -7.5,-0.77 -5.54,-0.15 -11.13,0.05 -16.67,0.36l0 0z"/>
  <path class="fil4" d="M204.69 94.5c-0.44,-0.07 -0.88,-0.14 -1.31,-0.21 -2.61,-1.58 -1.32,-3.6 -0.03,-3.99 3.17,-0.93 9.66,-0.34 14.27,-1.38 3.2,-0.85 4.92,-4.49 3.81,-6.93 -0.46,-0.18 -0.86,-0.17 -1.05,0.45 -0.16,1.06 -0.56,2.1 -1.77,3.05 -3.85,2.93 -11.73,0.73 -17.37,1.77 -4.06,1.51 -3.82,7.09 1.03,8.7 2.35,0.3 2.8,-0.59 2.42,-1.46l0 0zm-10.74 10.79c-1.4,-0.03 -2.24,0.38 -2.73,1.02 1.13,1.2 2.48,1.81 3.76,2.34 8.07,1.44 16.47,1.29 25.01,0.5 7.51,-1.01 7.39,-10.55 3.49,-13.03 -1.21,1.19 -1.9,2.37 -1.41,3.29 1.37,2.54 0.59,4.3 -1.74,5.56 -1.31,0.71 -2.32,0.81 -3.79,0.89 -7,0.38 -15.06,-0.42 -22.59,-0.57l0 0zm10.76 -25.8c-0.66,-0.06 -1.23,-0.13 -1.65,-0.23 -1.88,-0.49 -1.73,-3 0.29,-3.23 5.64,-0.13 11.24,0.13 16.89,0 4.35,-0.29 5.87,-6.88 4.19,-10.58 -0.46,-0.07 -0.94,-0.03 -1.45,0.08 -2.21,1.74 1.27,4.84 -2.24,6.8 -3.67,1.08 -15.21,-1.19 -19.62,0.3 -1.41,0.6 -2.69,2.25 -2.61,4.78 0.64,4.28 5.33,3.65 6.08,2.91 0.3,-0.21 0.28,-0.51 0.12,-0.83l0 0z"/>
  <path class="fil3" d="M203.35 99.64c-2.44,-0.18 -1.61,-2.19 -0.4,-2.25 4.86,-0.62 9.97,-0.56 14.49,-0.48 3.66,-0.16 4.65,3.56 1.63,3.24 -5.35,-0.16 -10.35,-0.25 -15.72,-0.51zm0.39 -15.78c-2.34,-0.03 -1.66,-1.71 -0.39,-1.82 3.81,-0.69 7.88,-0.92 11.42,-0.81 2.81,-0.13 4.07,2.63 1.67,2.49 -4.23,-0.17 -8.46,-0.28 -12.7,0.14zm-9.54 -14.53c-2.03,2.1 -2.46,0.1 -1.24,-1.97 1.3,-1.98 4.44,-3.03 8.54,-3.13 6,-0.24 12.84,-0.47 17.84,0.09 2.57,0.52 3.02,3.46 -0.44,3.23 -10.34,-0.35 -21.45,-2.19 -24.7,1.78l0 0z"/>
  <path class="fil6" d="M246.65 133c7.76,-10.77 17.44,-23.55 22.6,-29.31 -7.72,-5.77 -14.41,-12.83 -18.76,-22.18 -4.69,-10.07 -6.62,-22.72 -4.13,-39.16 -0.12,-0.6 -0.22,-1.07 -0.33,-1.57 -0.94,-4.38 -2.27,-10.57 -1.42,-16.14l0.08 -0.52 0.31 -0.45c1.41,-2.03 5.46,-2.77 10.22,-2.87 3.9,-0.08 8.31,0.18 11.92,0.47 7.81,-5.65 16.93,-9.57 26.63,-11.73 9.85,-2.19 20.32,-2.56 30.63,-1.08 2.18,-1.77 4.25,-3.38 6.51,-4.73 2.61,-1.57 5.39,-2.75 8.72,-3.37l0.71 -0.13 0.66 0.28c2.73,1.14 3.49,2.72 7.31,10.64 0.77,1.59 1.65,3.39 2.25,4.63 8.49,5.78 15.14,16.01 18.4,28.77 2.57,10.05 3.05,21.71 0.68,34 4.59,-4.08 7.24,-8.39 8.37,-13.21 1.51,-6.48 0.36,-14.06 -2.49,-23.31 -2.16,-3.65 -3.52,-7.36 -4.02,-10.74 -0.41,-2.74 -0.25,-5.3 0.5,-7.49 0.82,-2.36 2.31,-4.28 4.52,-5.55 0.91,-0.52 1.93,-0.92 3.06,-1.19 2.78,-4.74 6.66,-4.62 9.8,-4.53 0.62,0.02 1.21,0.03 1.61,-0.01 0.88,-0.31 1.83,-0.55 2.83,-0.7 3.14,-0.46 6.72,0.01 10,1.85 3.22,1.8 6.14,4.91 8.02,9.74 0.72,1.84 1.28,3.94 1.66,6.33 5.21,19.01 3.38,36.81 -2.42,53.94 -4.15,12.26 -16.15,32.98 -26.26,49.32l-5.46 0c10.24,-16.47 23.01,-38.33 27.22,-50.78 5.54,-16.35 7.29,-33.32 2.29,-51.41l-0.03 -0.12 -0.03 -0.14c-0.31,-2.09 -0.8,-3.91 -1.41,-5.49 -1.45,-3.7 -3.6,-6.04 -5.94,-7.36 -2.28,-1.27 -4.77,-1.6 -6.95,-1.28 -0.72,0.11 -1.4,0.29 -2.03,0.52l-0.14 0.05 -0.24 0.05c-0.93,0.19 -1.85,0.16 -2.85,0.13 -1.99,-0.06 -4.47,-0.13 -5.95,2.95l-0.55 1.13 -1.26 0.18c-1.02,0.14 -1.87,0.43 -2.57,0.83 -1.16,0.67 -1.96,1.72 -2.42,3.04 -0.51,1.48 -0.6,3.31 -0.3,5.34 0.42,2.87 1.63,6.08 3.55,9.29l0.14 0.23 0.09 0.27c3.14,10.12 4.39,18.51 2.66,25.94 -1.77,7.58 -6.56,13.98 -15.45,19.96 -1.73,1.09 -3.52,2.02 -5.37,2.73 -3.32,1.1 -5.68,-2.18 -2.6,-4.2 1.3,-0.55 4.62,-2.13 4.76,-2.67 3.32,-13.24 3.1,-25.85 0.37,-36.52 -2.17,-8.47 -6.01,-15.58 -10.71,-20.94 0.31,0.87 0.78,1.54 0.11,2.46 -0.5,0.67 -2.65,0.34 -2.93,0.11 -1.65,-1.36 -2.84,-6.69 -4.26,-8.95 -1.38,-2.82 -2.01,-4.12 -2.54,-5.22 -2.65,-5.48 -3.53,-7.3 -4.37,-8.02 -2.33,0.53 -4.35,1.43 -6.27,2.58 -2.24,1.34 -4.4,3.08 -6.76,5.01l-0.82 0.68 -4 3.94c-0.72,0.53 -6.31,0.62 -3.94,-2.6 0.79,-1.07 1.37,-1.51 1.9,-2.13 -8.44,-0.81 -16.91,-0.31 -24.95,1.48 -7.25,1.62 -14.15,4.28 -20.34,7.98 -0.53,0.31 -0.74,0.24 -1.56,0.96 2.56,0.12 3.17,3.36 -0.77,3.22 -1.5,-0.08 -3,-0.16 -4.5,-0.24 -3.71,-0.32 -8.42,-0.63 -12.33,-0.55 -2.88,0.06 -5.25,0.24 -6.1,0.64 -0.5,4.61 0.65,9.93 1.47,13.75 0.18,0.84 0.35,1.62 0.43,2.02l0.08 0.4 -0.06 0.4c-2.44,15.66 -0.69,27.57 3.67,36.93 4.35,9.34 11.32,16.24 19.33,21.87 3.43,2.2 6.91,4.13 10.45,5.72 2.59,1.25 0.83,4.57 -1.38,3.79 -1.77,-0.41 -8.8,-4.12 -9.91,-4.68 -4.32,4.92 -13.32,16.82 -20.61,26.72l-6.03 0 0 0z"/>
  <polygon class="fil7 str0" points="328.77,16.91 338.41,10.45 342.27,20.25 "/>
  <polygon class="fil7 str0" points="253.49,40.69 252.55,29.78 262.71,31.25 "/>
  <path class="fil6" d="M326.24 16.22c1.8,-1.9 3.5,-3.54 5.32,-4.9 1.94,-1.43 3.91,-2.5 5.94,-3.06l0.74 -0.2 0.74 0.28c1.77,0.66 2.28,2.6 3.46,4.98 1.16,2.35 1.79,5.05 2.86,7.62 0.39,1.42 -0.25,2.73 -2.75,2.59 -2.42,-0.73 -4.99,-1.46 -7.74,-2.15 -2.61,-0.65 -5.2,-1.2 -7.68,-1.56 -2.28,-0.18 -2.24,-1.19 -0.89,-3.6l0 0zm7.79 -1.52c-0.55,0.41 -2.07,1.46 -2.62,1.95 3.33,0.7 5.69,1.12 9.03,2.07 -0.34,-1.06 -1.2,-2.86 -1.65,-3.76 -0.48,-0.98 -0.96,-1.77 -1.38,-2.23 -1.1,0.44 -2.23,1.11 -3.38,1.97l0 0z"/>
  <path class="fil6" d="M251.71 42.43c-0.77,-2.37 -1.36,-4.53 -1.65,-6.66 -0.31,-2.25 -0.28,-4.36 0.2,-6.28l0.18 -0.7 0.58 -0.47c1.4,-1.12 3.29,-0.63 5.88,-0.47 2.54,0.16 5.13,0.92 7.82,1.27 1.39,0.35 2.2,1.48 0.9,3.46 -1.75,1.63 -3.59,3.38 -5.48,5.29 -1.78,1.82 -3.47,3.67 -4.94,5.53 -1.23,1.78 -2.08,1.26 -3.49,-0.97l0 0zm2.39 -7.07c0.08,0.64 0.27,2.38 0.41,3.05 2.17,-2.38 3.65,-4.1 6.03,-6.38 -1.06,-0.22 -3,-0.37 -3.98,-0.43 -1.06,-0.07 -1.95,-0.06 -2.54,0.07 -0.15,1.11 -0.11,2.34 0.08,3.69z"/>
  <path class="fil6" d="M273.21 35.04c-0.62,1.13 -2.06,1.55 -3.22,0.95 -1.15,-0.61 -1.59,-2.02 -0.97,-3.15 1,-1.8 2.25,-3.26 3.77,-4.38 1.52,-1.14 3.28,-1.9 5.26,-2.3 1.28,-0.26 2.54,0.55 2.8,1.81 0.26,1.26 -0.57,2.48 -1.85,2.74 -1.29,0.26 -2.4,0.74 -3.35,1.44 -0.95,0.71 -1.77,1.67 -2.44,2.89l0 0z"/>
  <path class="fil6" d="M298.75 24.56c-1.3,0.18 -2.5,-0.71 -2.68,-1.98 -0.18,-1.27 0.72,-2.45 2.02,-2.63 2.07,-0.27 4.02,-0.14 5.84,0.39 1.83,0.54 3.5,1.47 5,2.8 0.97,0.86 1.04,2.33 0.16,3.28 -0.88,0.95 -2.38,1.02 -3.35,0.16 -0.97,-0.87 -2.03,-1.46 -3.17,-1.8 -1.15,-0.33 -2.42,-0.41 -3.82,-0.22l0 0z"/>
  <path class="fil8" d="M382.63 25.5c1.96,0 3.55,1.66 3.55,3.71 0,2.04 -1.59,3.71 -3.55,3.71 -1.96,0 -3.55,-1.67 -3.55,-3.71 0,-2.05 1.59,-3.71 3.55,-3.71z"/>
  <path class="fil6" d="M382.63 24.68c1.22,0 2.33,0.51 3.12,1.34 0.78,0.82 1.27,1.95 1.27,3.19 0,1.24 -0.49,2.36 -1.27,3.18 -0.79,0.83 -1.9,1.35 -3.12,1.35 -1.22,0 -2.32,-0.52 -3.12,-1.35 -0.78,-0.82 -1.27,-1.94 -1.27,-3.18 0,-1.24 0.49,-2.37 1.27,-3.19 0.8,-0.83 1.9,-1.34 3.12,-1.34zm1.9 2.47c-0.49,-0.51 -1.16,-0.83 -1.9,-0.83 -0.74,0 -1.41,0.32 -1.9,0.83 -0.5,0.52 -0.81,1.25 -0.81,2.06 0,0.81 0.31,1.53 0.81,2.06 0.49,0.51 1.16,0.82 1.9,0.82 0.74,0 1.41,-0.31 1.9,-0.82 0.5,-0.53 0.81,-1.25 0.81,-2.06 0,-0.81 -0.31,-1.54 -0.81,-2.06z"/>
  <path class="fil8" d="M393.05 21.6c1.96,0 3.55,1.67 3.55,3.71 0,2.05 -1.59,3.71 -3.55,3.71 -1.96,0 -3.55,-1.66 -3.55,-3.71 0,-2.04 1.59,-3.71 3.55,-3.71z"/>
  <path class="fil6" d="M393.05 20.78c1.22,0 2.32,0.52 3.12,1.35 0.78,0.82 1.26,1.94 1.26,3.18 0,1.24 -0.48,2.37 -1.26,3.19 -0.8,0.83 -1.9,1.34 -3.12,1.34 -1.22,0 -2.33,-0.51 -3.12,-1.34 -0.79,-0.82 -1.27,-1.95 -1.27,-3.19 0,-1.24 0.48,-2.36 1.27,-3.18 0.79,-0.83 1.9,-1.35 3.12,-1.35zm1.9 2.47c-0.49,-0.51 -1.16,-0.82 -1.9,-0.82 -0.74,0 -1.42,0.31 -1.91,0.82 -0.5,0.52 -0.8,1.26 -0.8,2.06 0,0.81 0.3,1.54 0.8,2.06 0.49,0.51 1.17,0.83 1.91,0.83 0.74,0 1.41,-0.32 1.9,-0.83 0.5,-0.52 0.81,-1.25 0.81,-2.06 0,-0.8 -0.31,-1.54 -0.81,-2.06z"/>
  <path class="fil8" d="M402.09 21.31c1.36,0 2.46,1.39 2.46,3.11 0,1.72 -1.1,3.12 -2.46,3.12 -1.36,0 -2.46,-1.4 -2.46,-3.12 0,-1.72 1.1,-3.11 2.46,-3.11z"/>
  <path class="fil6" d="M402.09 20.49c0.95,0 1.8,0.47 2.4,1.23 0.55,0.7 0.9,1.66 0.9,2.7 0,1.05 -0.35,2 -0.9,2.71 -0.6,0.76 -1.45,1.23 -2.4,1.23 -0.95,0 -1.8,-0.47 -2.41,-1.23 -0.55,-0.71 -0.89,-1.66 -0.89,-2.71 0,-1.04 0.34,-2 0.89,-2.7 0.61,-0.76 1.46,-1.23 2.41,-1.23zm1.07 2.23c-0.28,-0.36 -0.67,-0.59 -1.07,-0.59 -0.41,0 -0.79,0.23 -1.08,0.59 -0.34,0.43 -0.54,1.03 -0.54,1.7 0,0.68 0.2,1.28 0.54,1.71 0.29,0.36 0.67,0.59 1.08,0.59 0.4,0 0.79,-0.23 1.07,-0.59 0.34,-0.43 0.55,-1.03 0.55,-1.71 0,-0.67 -0.21,-1.27 -0.55,-1.7z"/>
  <path class="fil8" d="M391.44 33.56c1.96,0 10.56,-6.06 12.73,2.6 2.17,8.66 -7.49,17.9 -12.07,9.92 -3.73,-2.42 -5.35,-6.3 -5.35,-8.34 0,-2.05 2.73,-4.18 4.69,-4.18z"/>
  <path class="fil6" d="M391.44 32.92c0.31,0 1.02,-0.28 1.91,-0.62 0.89,-0.35 1.94,-0.76 3.09,-1.06 3.29,-0.87 6.97,-0.7 8.34,4.76 0.95,3.78 -0.23,7.65 -2.27,10.31 -0.87,1.12 -1.89,2.04 -2.99,2.64 -1.12,0.62 -2.32,0.92 -3.5,0.79 -1.62,-0.19 -3.17,-1.16 -4.38,-3.2 -1.67,-1.11 -2.92,-2.49 -3.81,-3.87 -1.17,-1.83 -1.71,-3.68 -1.71,-4.93 0,-1.19 0.72,-2.36 1.71,-3.25 1.05,-0.93 2.44,-1.57 3.61,-1.57l0 0zm2.35 0.58c-1,0.39 -1.81,0.71 -2.35,0.71 -0.87,0 -1.94,0.51 -2.78,1.25 -0.74,0.67 -1.28,1.49 -1.28,2.28 0,1.04 0.47,2.62 1.5,4.23 0.83,1.28 1.99,2.56 3.55,3.57l0.13 0.08 0.08 0.14c1,1.73 2.24,2.56 3.51,2.7 0.92,0.1 1.87,-0.14 2.78,-0.64 0.94,-0.52 1.83,-1.32 2.59,-2.31 1.83,-2.38 2.89,-5.84 2.04,-9.19 -1.11,-4.43 -4.11,-4.55 -6.81,-3.84 -1.04,0.27 -2.08,0.68 -2.96,1.02l0 0z"/>
  <path class="fil9" d="M305.49 89.61c-0.72,0.18 -0.76,0.53 -0.12,1.08 16.37,1.48 38.99,-16.12 27.93,-38.99 -2.03,-3.15 -4.46,-1.47 -3.77,0.48 11.71,21.86 -8.48,36.26 -24.04,37.43l0 0z"/>
  <path class="fil9 str0" d="M302.45 32.27c2.82,0 5.1,2.24 5.1,4.99 0,2.76 -2.28,5 -5.1,5 -2.82,0 -5.1,-2.24 -5.1,-5 0,-2.75 2.28,-4.99 5.1,-4.99z"/>
  <path class="fil10" d="M302.94 33.93c2.01,0 3.64,1.6 3.64,3.57 0,1.97 -1.63,3.56 -3.64,3.56 -2.01,0 -3.65,-1.59 -3.65,-3.56 0,-1.97 1.64,-3.57 3.65,-3.57z"/>
  <path class="fil9 str0" d="M304.46 35.35c1.23,0 2.24,0.99 2.24,2.2 0,1.22 -1.01,2.2 -2.24,2.2 -1.25,0 -2.25,-0.98 -2.25,-2.2 0,-1.21 1,-2.2 2.25,-2.2z"/>
  <path class="fil9 str0" d="M277.55 39.42c2.82,0 5.1,2.24 5.1,5 0,2.76 -2.28,4.99 -5.1,4.99 -2.81,0 -5.1,-2.23 -5.1,-4.99 0,-2.76 2.29,-5 5.1,-5z"/>
  <path class="fil10" d="M278.04 41.08c2.01,0 3.64,1.6 3.64,3.57 0,1.97 -1.63,3.57 -3.64,3.57 -2.01,0 -3.64,-1.6 -3.64,-3.57 0,-1.97 1.63,-3.57 3.64,-3.57z"/>
  <path class="fil9 str0" d="M279.56 42.51c1.24,0 2.25,0.98 2.25,2.2 0,1.21 -1.01,2.2 -2.25,2.2 -1.24,0 -2.25,-0.99 -2.25,-2.2 0,-1.22 1.01,-2.2 2.25,-2.2z"/>
  <path class="fil9 str0" d="M337.1 43.02c-2.02,2.38 0.59,3.52 2.92,1.58 8.98,-7.09 17.76,-13.5 27.25,-16.58 1.33,-0.83 0.6,-1.45 -1.5,-0.83 -4.73,1.79 -10.6,2.92 -28.67,15.83l0 0z"/>
  <path class="fil9 str0" d="M340.95 50.9c-2.44,1.95 -0.1,3.57 2.56,2.09 10.2,-5.26 20.08,-9.89 30,-11.13 1.46,-0.57 0.87,-1.31 -1.32,-1.1 -4.99,0.86 -10.97,0.87 -31.24,10.14z"/>
  <path class="fil9 str0" d="M343.36 57.56c-2.7,1.27 -0.97,3.42 1.81,2.68 10.55,-2.47 20.65,-4.42 29.96,-3.08 1.46,-0.18 1.11,-1.05 -0.93,-1.4 -4.74,-0.45 -10.17,-1.96 -30.84,1.8z"/>
  <path class="fil9 str0" d="M262.7 60.57c2.14,0.77 0.77,3.24 -1.44,3 -8.38,-0.58 -16.41,-0.71 -23.81,2.3 -1.16,0.08 -0.89,-0.84 0.73,-1.57 3.77,-1.29 8.09,-3.78 24.52,-3.73z"/>
  <path class="fil9 str0" d="M263.32 72.91c2.15,0.78 0.78,2.96 -1.43,2.72 -8.34,0.59 -14.27,1.77 -21.77,2.14 -1.17,0.08 -2.19,-1.12 0.85,-1.51 2.46,-0.46 6.71,-1.44 22.35,-3.35z"/>
  <path class="fil9 str0" d="M268.81 82.5c1.46,-1.72 -0.99,-3.18 -2.78,-1.89 -6.96,4.62 -13.84,8.67 -21.78,9.7 -1.05,0.49 -0.33,1.16 1.43,0.99 3.93,-0.73 8.94,-0.69 23.13,-8.8z"/>
  <path class="fil7" d="M298.58 47.69c13.87,-1.27 25.12,5.6 25.12,15.35 0,9.74 -11.25,18.67 -25.12,19.94 -13.87,1.27 -25.12,-5.6 -25.12,-15.34 0,-9.75 11.25,-18.68 25.12,-19.95z"/>
  <path class="fil6" d="M298.31 44.85c1.29,-0.12 2.5,-0.18 3.63,-0.18 6.59,0 12.51,1.69 16.92,4.57 4.62,3.01 7.61,7.33 8.1,12.4 0.05,0.53 0.07,1 0.07,1.42 0,5.79 -3.26,11.26 -8.54,15.44 -5.07,4.01 -12.05,6.84 -19.75,7.54 -1.29,0.12 -2.5,0.18 -3.62,0.18 -6.6,0 -12.52,-1.69 -16.93,-4.57 -4.62,-3.01 -7.61,-7.32 -8.09,-12.39 -0.05,-0.53 -0.08,-1.01 -0.08,-1.43 0,-5.79 3.27,-11.26 8.55,-15.44 5.07,-4.01 12.05,-6.84 19.74,-7.54l0 0zm3.63 4.48c-1.11,0 -2.18,0.05 -3.2,0.14 -6.73,0.61 -12.81,3.07 -17.2,6.54 -4.18,3.31 -6.76,7.51 -6.76,11.82 0,0.4 0.01,0.74 0.04,1.01 0.34,3.58 2.56,6.69 5.99,8.94 3.66,2.38 8.66,3.78 14.31,3.78 1.1,0 2.17,-0.04 3.19,-0.14 6.73,-0.61 12.81,-3.07 17.2,-6.54 4.18,-3.3 6.77,-7.5 6.77,-11.82 0,-0.4 -0.02,-0.73 -0.05,-1 -0.34,-3.59 -2.55,-6.7 -5.99,-8.94 -3.65,-2.39 -8.65,-3.79 -14.3,-3.79l0 0z"/>
  <path class="fil8 str1" d="M286.08 55.82c3.04,-0.71 5.51,0.2 5.51,2.02 0,1.82 -2.47,3.87 -5.51,4.58 -3.05,0.7 -5.51,-0.2 -5.51,-2.02 0,-1.82 2.46,-3.87 5.51,-4.58z"/>
 </g>
</svg>
