<svg xmlns="http://www.w3.org/2000/svg" xml:space="preserve" width="19px" height="19px" version="1.1" style="shape-rendering:geometricPrecision; text-rendering:geometricPrecision; image-rendering:optimizeQuality; fill-rule:evenodd; clip-rule:evenodd" viewBox="0 0 0.32 0.33" xmlns:xlink="http://www.w3.org/1999/xlink">

  <path fill="#323232" d="M0.32 0.31l0 -0.07c0,0 -0.01,-0.01 -0.01,-0.01l-0.09 0c-0.01,0 -0.01,0.01 -0.01,0.01l0 0.02c-0.01,0.02 -0.06,0 -0.1,-0.04 -0.04,-0.05 -0.07,-0.1 -0.04,-0.1l0.02 0c0.01,0 0.01,-0.01 0.01,-0.02l0 -0.08c0,-0.01 0,-0.02 -0.01,-0.02l-0.07 0c-0.01,0 -0.02,0.01 -0.02,0.02 0,0.15 0.1,0.31 0.28,0.3l0.03 0c0,0 0.01,0 0.01,-0.01z"/>
  <path id="1" fill="#323232" fill-rule="nonzero" d="M0.32 0.24l0 0.07 -0.01 0 0 -0.07 0 0 0.01 0zm-0.01 -0.01l0 0 0 0 0 0 0 0 0 0 0 0 0 0 0 0 0 0 0 0 0 0 0 0 0 0 0.01 0 0 0 0 0 0 0 0 0 0 0 0 0 0 0 0 0 0 0 0 0 0 0.01 0 0 0 0 0 0 0 0 0 0 0 0 0 0 0 0 0 0 -0.01 0 0 0 0 0 0 0 0 0 0 0 0 0 0 0 0 0 0 0 0 0 0 0 0 0 0 0 0 0 0 0 0 0 0 0 0 0 0 0 0 0 0 -0.01 0 0 0 0 0 0 0 0 0 0 0 0 0 0 0 0 0 0 0 0 0 0 0 0zm-0.09 0l0.09 0 0 0 -0.09 0 0 0 0 0zm-0.01 0.01l-0.01 0 0 0 0 0 0.01 0 0 0 0 0 0 0 0 0 0 0 0 0 0 0 0 -0.01 0 0 0 0 0 0 0 0 0 0 0 0 0 0 0 0 0 0 0 0 0 0 0 0 0 0 0 0 0.01 0 0 0 0 0 0 0 0 0 0 0 0 0 0 0 0 0 0 0 0 0 0 0 0 0 0 0 0 0 0 0 0 0 0 0 0 0 0 0 0 0.01 0 0 0 0 0 0 0 0 -0.01 0 0 0 0 0 0 0 0 0 0 0 0 0 0 0 0 0 0 0 0 0 0 0 0 0 0 0 0 0 0 0 0 0zm-0.01 0.02l0 -0.02 0.01 0 0 0.02 0 0 -0.01 0zm0.01 0l0 0 0 0 0 0zm-0.1 -0.04l0 -0.01 0 0 0.01 0.01 0 0 0.01 0 0 0.01 0 0 0.01 0 0 0.01 0 0 0.01 0 0 0.01 0.01 0 0 0 0 0 0.01 0.01 0 0 0 0 0.01 0 0 0 0 0 0.01 0 0 0.01 0 0 0 0 0.01 0 0 0 0 0 0 0 0 0 0 -0.01 0 0 0 0 0.01 0 0 0 0 0.01 0 0 0 0 0 0 -0.01 0 0 0 0 0 0 0 -0.01 0 0 0 0 0 -0.01 0 0 0 0 0 -0.01 0 0 0 0 -0.01 -0.01 0 0 0 0 0 -0.01 0 0 -0.01 -0.01 0 0 0 0 -0.01 -0.01 0 0 0 -0.01 -0.01 0 0 0 0 -0.01 -0.01 0 0 0 0zm-0.04 -0.11l0 0.01 0 0 0 0 0 0 -0.01 0 0 0 0 0 0 0 0 0.01 0 0 0 0 0 0 0 0 0 0.01 0 0 0.01 0 0 0.01 0 0 0 0 0 0.01 0 0 0.01 0 0 0.01 0 0 0 0.01 0.01 0 0 0.01 0 0 0.01 0 0 0.01 0 0 0.01 0.01 0 0 0 0 0 0.01 -0.01 0 0 -0.01 0 0 -0.01 -0.01 0 0 0 -0.01 -0.01 0 0 0 0 -0.01 0 0 -0.01 -0.01 0 0 0 -0.01 0 0 -0.01 0 0 -0.01 0 0 0 0 0 -0.01 0 0 0 0 0 -0.01 0 0 -0.01 0 0.01 -0.01 0 0 0 0 0 0 0 0 0 -0.01 0.01 0 0 0 0 0zm0 0l0 0 0 0 0 0zm0.02 0.01l-0.02 0 0 -0.01 0.02 0 0 0 0 0.01zm0.01 -0.02l0.01 0 0 0 0 0.01 -0.01 0 0 0 0 0 0 0 0 0 0 0 0 0 0 0 0 0 0 0 0 0 0 0 0 0 0 0.01 0 0 0 0 0 0 0 0 0 0 0 0 0 0 0 0 0 0 -0.01 0 0 0 0 0 0 0 0 0 0 0 0 0 0 0 0 -0.01 0 0 0 0 0 0 0 0 0 0 0 0 0 0 0 0 0 0 0 0 0 0 0 0 0 0 0 0 0 0 0 0 0.01 0 0 0 0 0 0 0 0 0 0 0 0 0 0 0 0 0 0 0 0 0 0 0 0 0 0 0 0 -0.01 0 0 0 0zm0.01 -0.08l0 0.08 -0.01 0 0 -0.08 0 0 0.01 0zm-0.02 -0.01l0 -0.01 0 0 0 0 0 0 0 0 0 0 0 0 0 0 0 0 0.01 0 0 0 0 0 0 0 0 0 0 0 0 0 0 0 0 0 0 0.01 0 0 0 0 0 0 0 0 0 0 0 0 0 0 0 0 0 0 0 0 0 0 0 0 0 0 0.01 0.01 0 0 -0.01 0 0 0 0 0 0 -0.01 0 0 0 0 0 0 0 0 0 0 0 0 0 0 0 0 0 0 0 0 0 0 0 0 -0.01 0 0 0 0 0 0 0 0 0 0 0 0 0 0 0 0 0 0 0 0 0 0 0 0 0 0 0 0 0 0 0 0 0 0 0zm-0.07 -0.01l0.07 0 0 0.01 -0.07 0 0 0 0 -0.01zm-0.01 0.02l-0.01 0 0 0 0 0 0 -0.01 0 0 0 0 0 0 0 0 0 0 0 0 0 0 0 0 0 0 0 0 0 0 0 0 0 0 0.01 -0.01 0 0 0 0 0 0 0 0 0 0 0 0 0 0 0 0 0 0 0 0 0 0 0 0 0 0 0 0 0.01 0 0 0 0 0.01 0 0 0 0 0 0 -0.01 0 0 0 0 0 0 0 0 0 0 0 0 0 0 0 0 0 0 0 0 0 0 0 0 0 0 0 0 0 0 0 0 0 0 0 0 0 0 0 0 0 0 0 0 0 0 0 0 0 0 0 0 0.01 0 0 0 0 0 0zm0 0l0 0 0 0 0 0zm0.27 0.3l0 0.01 0 0 -0.01 0 -0.02 0 -0.02 -0.01 -0.01 0 -0.02 0 -0.01 -0.01 -0.02 0 -0.01 -0.01 -0.01 0 -0.02 -0.01 -0.01 -0.01 -0.01 -0.01 -0.01 -0.01 -0.01 -0.01 -0.01 -0.01 -0.01 -0.01 -0.01 -0.01 -0.01 -0.01 -0.01 -0.02 0 -0.01 -0.01 -0.01 0 -0.01 -0.01 -0.02 0 -0.01 -0.01 -0.01 0 -0.02 -0.01 -0.01 0 -0.02 0 -0.01 0 -0.02 0 -0.01 0 -0.01 0.01 0 0 0.01 0 0.01 0 0.02 0 0.01 0 0.02 0.01 0.01 0 0.01 0 0.02 0.01 0.01 0 0.01 0.01 0.02 0 0.01 0.01 0.01 0.01 0.01 0.01 0.01 0.01 0.02 0 0.01 0.01 0.01 0.01 0.01 0.01 0 0.02 0.01 0.01 0.01 0.01 0.01 0.01 0.01 0.02 0 0.01 0.01 0.01 0 0.02 0 0.02 0.01 0.01 0 0.02 0 0.01 0 0 0zm0 0l0 0 0 0 0 0zm0.03 0.01l-0.03 0 0 -0.01 0.03 0 0 0 0 0.01zm0 -0.01l0 0 0 0 0 0zm0 -0.01l0.01 0 0 0 0 0 0 0 0 0 0 0 0 0.01 0 0 0 0 0 0 0 0 0 0 0 0 0 0 0 0 0 0 0 0 0 0 0 0 0 0 0 0 0 0 -0.01 0.01 0 0 0 0 0 0 0 0 0 0 0 0 0 0 0 0 0 0 0 0 0 0 0 -0.01 0 0 0 0 0 0 0 0 0 0 0 0 0 0 0 0 0 0 0 0 0 0 0 0 0 0 0 0 0 0 0 0 0 0 0 0 0 0 0 0 0 0 0 0 0 -0.01 0 0 0 0 0 0 0 0 0 0 0 0 0 0 0 0 0 0 0 0z"/>
</svg>
