<svg xmlns="http://www.w3.org/2000/svg" xml:space="preserve" width="16px" height="17px" version="1.1" style="shape-rendering:geometricPrecision; text-rendering:geometricPrecision; image-rendering:optimizeQuality; fill-rule:evenodd; clip-rule:evenodd" viewBox="0 0 1.6 1.69" xmlns:xlink="http://www.w3.org/1999/xlink">
  <path fill="#323232" fill-role="nonzero" d="M1.6 0.63l-0.19 0 0 0 0 -0.02 0 -0.02 -0.01 -0.03 0 -0.02 -0.01 -0.02 0 -0.02 -0.01 -0.02 -0.01 -0.02 0 -0.02 -0.01 -0.02 -0.01 -0.01 -0.02 -0.02 -0.01 -0.02 -0.01 -0.02 -0.01 -0.01 -0.02 -0.02 -0.01 -0.01 -0.02 -0.01 -0.02 -0.02 -0.01 -0.01 -0.02 -0.01 -0.02 -0.01 -0.02 -0.01 -0.02 -0.01 -0.02 -0.01 -0.02 0 -0.02 -0.01 -0.02 0 -0.02 -0.01 -0.02 0 -0.02 0 -0.03 0 0 -0.2 0.04 0 0.03 0 0.03 0.01 0.03 0 0.03 0.01 0.03 0.01 0.03 0.01 0.03 0.01 0.03 0.01 0.02 0.02 0.03 0.01 0.03 0.02 0.02 0.02 0.02 0.01 0.03 0.02 0.02 0.02 0.02 0.03 0.02 0.02 0.02 0.02 0.02 0.03 0.01 0.02 0.02 0.03 0.01 0.03 0.01 0.03 0.02 0.02 0.01 0.03 0 0.03 0.01 0.03 0.01 0.04 0 0.03 0 0.03 0 0.03 0 0zm-0.63 0.63l0 -0.19 0 0 0.03 0 0.02 -0.01 0.02 0 0.02 0 0.02 -0.01 0.02 0 0.02 -0.01 0.02 -0.01 0.02 -0.01 0.02 -0.01 0.02 -0.01 0.02 -0.01 0.01 -0.01 0.02 -0.01 0.02 -0.02 0.01 -0.01 0.02 -0.02 0.01 -0.01 0.01 -0.02 0.01 -0.02 0.02 -0.01 0.01 -0.02 0.01 -0.02 0 -0.02 0.01 -0.02 0.01 -0.02 0 -0.02 0.01 -0.02 0 -0.02 0.01 -0.02 0 -0.03 0 -0.02 0.19 0 0 0.03 0 0.04 0 0.03 -0.01 0.03 -0.01 0.03 0 0.03 -0.01 0.03 -0.02 0.03 -0.01 0.02 -0.01 0.03 -0.02 0.03 -0.01 0.02 -0.02 0.03 -0.02 0.02 -0.02 0.03 -0.02 0.02 -0.02 0.02 -0.03 0.02 -0.02 0.02 -0.02 0.01 -0.03 0.02 -0.03 0.02 -0.02 0.01 -0.03 0.01 -0.03 0.01 -0.03 0.01 -0.03 0.01 -0.03 0.01 -0.03 0 -0.03 0.01 -0.03 0 -0.04 0 0 0zm-0.63 -0.63l0.2 0 0 0 0 0.02 0 0.03 0 0.02 0.01 0.02 0 0.02 0.01 0.02 0.01 0.02 0 0.02 0.01 0.02 0.01 0.02 0.01 0.02 0.01 0.01 0.02 0.02 0.01 0.02 0.01 0.01 0.02 0.02 0.01 0.01 0.02 0.02 0.01 0.01 0.02 0.01 0.02 0.01 0.02 0.01 0.01 0.01 0.02 0.01 0.02 0.01 0.02 0.01 0.02 0 0.03 0.01 0.02 0 0.02 0 0.02 0.01 0.02 0 0 0.19 -0.03 0 -0.03 0 -0.03 -0.01 -0.03 0 -0.03 -0.01 -0.03 -0.01 -0.03 -0.01 -0.03 -0.01 -0.03 -0.01 -0.03 -0.01 -0.02 -0.02 -0.03 -0.02 -0.02 -0.01 -0.03 -0.02 -0.02 -0.02 -0.02 -0.02 -0.02 -0.02 -0.02 -0.03 -0.02 -0.02 -0.02 -0.03 -0.02 -0.02 -0.01 -0.03 -0.02 -0.03 -0.01 -0.02 -0.01 -0.03 -0.01 -0.03 -0.01 -0.03 0 -0.03 -0.01 -0.03 0 -0.03 -0.01 -0.04 0 -0.03 0 0zm0.63 -0.63l0 0.2 0 0 -0.02 0 -0.02 0 -0.02 0 -0.02 0.01 -0.03 0 -0.02 0.01 -0.02 0 -0.02 0.01 -0.02 0.01 -0.01 0.01 -0.02 0.01 -0.02 0.01 -0.02 0.01 -0.01 0.02 -0.02 0.01 -0.01 0.01 -0.02 0.02 -0.01 0.01 -0.01 0.02 -0.02 0.02 -0.01 0.02 -0.01 0.01 -0.01 0.02 -0.01 0.02 0 0.02 -0.01 0.02 -0.01 0.02 0 0.02 -0.01 0.02 0 0.03 0 0.02 0 0.02 -0.2 0 0 -0.03 0.01 -0.03 0 -0.03 0.01 -0.04 0 -0.03 0.01 -0.03 0.01 -0.03 0.01 -0.02 0.01 -0.03 0.02 -0.03 0.01 -0.03 0.02 -0.02 0.02 -0.03 0.02 -0.02 0.02 -0.02 0.02 -0.03 0.02 -0.02 0.02 -0.02 0.03 -0.01 0.02 -0.02 0.03 -0.02 0.02 -0.01 0.03 -0.02 0.03 -0.01 0.03 -0.01 0.03 -0.01 0.03 -0.01 0.03 -0.01 0.03 0 0.03 -0.01 0.03 0 0.03 0 0 0z"/>
  <path fill="#323232" fill-role="nonzero" d="M0.51 1c0.03,-0.04 0.1,-0.04 0.14,0 0.04,0.04 0.04,0.1 0,0.14l-0.14 -0.14zm-0.48 0.53l0.48 -0.53 0.14 0.14 -0.48 0.52 -0.14 -0.13zm0.14 0.13c-0.04,0.04 -0.1,0.04 -0.14,0.01 -0.04,-0.04 -0.04,-0.1 0,-0.14l0.14 0.13z"/>
</svg>
